<svg xmlns="http://www.w3.org/2000/svg" viewBox="0 0 100.3 104.9"><defs><style>.cls-1{font-size:25.91px;font-family:MyriadPro-Regular, Myriad Pro;}.cls-2{letter-spacing:0em;}</style></defs><title>Asset 393</title><g id="Layer_2" data-name="Layer 2"><g id="Layer_1-2" data-name="Layer 1"><path d="M99.52,40.25C97.76,37.11,96,34,94.26,30.84c-2.31-4.29-4.73-8.51-7.33-12.63-.29-.47-.77-.87-.7-1.53a8.85,8.85,0,0,1,1.87-.42c1.84-.49,3.52-1.23,4.41-3.07a4,4,0,0,0-.39-4.58,4.31,4.31,0,0,0-4.61-1.17,2.81,2.81,0,0,0-2.14,2.27,2.27,2.27,0,0,0,1.27,2.45c.06,0,0,.18.06.28a6.75,6.75,0,0,1-3.89-.19c-3.18-.89-6.37-1.75-9.55-2.63a46.32,46.32,0,0,1-6-1.79,5.28,5.28,0,0,1-2.78-2.5c-.34-.67-.65-1.36-1-2A6,6,0,0,0,61.6.87C60.31-.07,59.11-.25,58.4.35S57.59,2,58.27,3.56c.75,1.72.63,2.37-.72,3.69a6.78,6.78,0,0,1-2.27,1.58,3.52,3.52,0,0,1-2.62.31c1.61-2.57,1.6-4,0-5.54a4,4,0,0,0-4.53-.42,4.28,4.28,0,0,0-1.56,2c-.62,1.55.41,2.7,1.14,4A6.51,6.51,0,0,1,42,6.3a2.07,2.07,0,0,1-.08-2.44,3.88,3.88,0,0,0,.6-2.15A1.58,1.58,0,0,0,40.26.14a5.13,5.13,0,0,0-3.51,3.35,7.49,7.49,0,0,1-5.68,5.08L29.9,8.9c-4.22,1-8.41,2.19-12.58,3.4a6.36,6.36,0,0,1-3.69.18c0-.47.37-.49.56-.68A2.42,2.42,0,0,0,14,8a4.51,4.51,0,0,0-5.2,0,4,4,0,0,0-1.15,4.7,5.36,5.36,0,0,0,3.5,3.15c1,.31,2,.5,3,.75,0,.62-.38,1-.66,1.42C8.87,25.27,5.06,32.9.79,40.27a5.34,5.34,0,0,0-.31,5c1.26,2.87,3,5.43,5.89,6.87a17.14,17.14,0,0,0,17.12-.35,10.63,10.63,0,0,0,4.87-6.12,5.21,5.21,0,0,0-.44-4.74A149.88,149.88,0,0,1,16.85,18.72a3.46,3.46,0,0,1-.47-2.19c5.07-.25,10-1.25,14.88-1.94,5.15-.71,10.25-.05,15.48.35-.12.61-.46.64-.68.8-1.15.86-1.2,1.36-.06,2.24a1.13,1.13,0,0,1,.58,1,1.49,1.49,0,0,0,.83,1.26c.91.51,1,1.3.93,2.23a88.81,88.81,0,0,0,.06,11.65,87,87,0,0,1,.19,9.55c0,.91.11,1.86-1.07,2.3-.47.17-.57.82-.71,1.33a9.66,9.66,0,0,0-.19,3.63,1.43,1.43,0,0,1-.71,1.55c-1.26.92-1.44,1.89-.82,3.34.13.3.36.49.08.9-1.42,2-1.64,2.2-4.19,2.32-.46,0-.93,0-1.39,0a18,18,0,0,0-5.27,1,5.42,5.42,0,0,0-3.91,4.63,1.79,1.79,0,0,0,.91,2.2,8.38,8.38,0,0,0,2.41,1c1.52.42,3.08.59,4.61.9,5.61,1.13,11.3.93,17,.89a8.12,8.12,0,0,0,1.21-.11c2.41-.34,4.83-.66,7.23-1.06a17.31,17.31,0,0,0,4.84-1.33c1.31-.66,1.55-1.24,1.29-2.68a5.32,5.32,0,0,0-3.61-4.3A17.8,17.8,0,0,0,59.81,59c-1.81,0-3.52-.15-4.46-2.11-.22-.46-.43-.67-.1-1.17a2,2,0,0,0-.37-2.81c-1.32-.84-1.23-1.88-1.15-3.11a11.42,11.42,0,0,0-.16-2.25,2.16,2.16,0,0,0-1.24-1.95c-.58-.24-.54-.67-.55-1.13a93.06,93.06,0,0,1,.09-9.74,81.51,81.51,0,0,0,.06-12.5,1.81,1.81,0,0,1,.74-1.82c.43-.3.91-.61,1-1.15a2.1,2.1,0,0,1,1-1.49c.78-.54.66-1.18-.1-1.86-.3-.28-1-.18-.92-1,1-.08,2-.15,3-.25a56.19,56.19,0,0,1,16.27.49,76.2,76.2,0,0,0,10,1.3c.38,0,.82-.09,1.12.34a7.4,7.4,0,0,1-.64,2.12,149.73,149.73,0,0,1-11,22A5.13,5.13,0,0,0,72,45.7a11.83,11.83,0,0,0,7.69,7.48,18.67,18.67,0,0,0,8.91.77,13.75,13.75,0,0,0,11-8.05A5.72,5.72,0,0,0,99.52,40.25Zm-.59,1.31c.07.7-.81.62-1.38,1.32V40.75C98.29,40.65,98.87,41,98.93,41.56ZM86.27,18.94c4.32,7,7.5,14.09,12.16,20.68-4.53-.59-8.75-.2-13.1,0C85.55,32.8,86.53,26.11,86.27,18.94ZM96.72,41.57a1.19,1.19,0,0,1,0,.19c-.14.41.34,1.2-.43,1.2-.61,0-.45-.77-.54-1.24a.48.48,0,0,1,0-.17c.07-.42-.36-1.16.51-1.14S96.62,41.16,96.72,41.57ZM95,43c0,.37-.4.35-.67.38s-.47,0-.49-.32c-.07-.75-.1-1.49-.15-2.24,0-.29.14-.41.39-.44s.52,0,.58.25c.12.5.17,1,.24,1.52h0A4,4,0,0,1,95,43Zm-2.69-2.53c.74,0,.14,1,.47,1.47-.2.55.53,1.41-.25,1.5s-.43-.87-.47-1.34S91.7,40.51,92.35,40.48Zm-1,2.73a.28.28,0,0,1-.23.37.37.37,0,0,1-.31-.06,5.48,5.48,0,0,1-.63-2.94c.07-.13.27-.18.33-.22.46-.06.63.12.65.46A9.61,9.61,0,0,0,91.3,43.21Zm-1.92.54c-.22,0-.54.08-.59-.2-.16-1-.28-1.92-.38-2.89,0-.14.2-.27.36-.25a.46.46,0,0,1,.45.46,8.05,8.05,0,0,0,.43,2.37A.35.35,0,0,1,89.38,43.75Zm-1.76.07c-.3,0-.63,0-.7-.29a5.49,5.49,0,0,1,.07-3.3c.72,1.17.55,2.15.92,3C88,43.48,88,43.76,87.62,43.82Zm-1.35-.12a2.14,2.14,0,0,1-1.72,0c.12-.81.25-1.64.38-2.46,0-.31.2-.57.53-.59.5,0,.46.38.5.71C86.05,42.11,86.15,42.85,86.27,43.7ZM87.59,8.65c0,.63-.16,1.25.3,1.76a.47.47,0,0,1-.08.74.71.71,0,0,1-.8-.09C86,10.43,86.14,9.52,87.59,8.65ZM48.45,5.31a2.69,2.69,0,0,1,.86-1.06,1.32,1.32,0,0,1,1.74,0,2.38,2.38,0,0,1,1,2.77c-.46-.28,0-1-.63-1.18-.4.54.13,1.17-.15,1.73-.43.1-.38-.53-.75-.52-.2.36,0,.81-.3,1.12-.44-.21,0-1.09-.77-1-.08,0-.13.29-.23.55-.47-.71.24-1.64-.52-2.17-.11.42,0,.92-.41,1.25C48.05,6.1,48.05,6.1,48.45,5.31Zm-.27,5.76c.26-1.35.34-1.42,1.66-1.44l.87,0a1.17,1.17,0,0,1,1.4,1.17c.12,1.15.23,2.3.36,3.54-.6-.36-.09-1-.48-1.29-.74.49-.32,1.39-.7,2-.47-.2-.13-.79-.55-1-.64.15,0,1-.56,1.19-.62-.31-.36-.95-.61-1.48-.35.43,0,1-.4,1.36-.64-.56-.27-1.45-.65-2.1-.52.26-.11.88-.49,1.2A13.36,13.36,0,0,1,48.18,11.07Zm-14.56-.76c.36-.06.69,0,.74.46a.5.5,0,0,1-.48.57.62.62,0,0,1-.74-.48C33.07,10.45,33.35,10.35,33.62,10.31Zm-21.14,0a3.44,3.44,0,0,0,.33-.77,4.58,4.58,0,0,0,0-1c1.35,1.08,1.48,2,.54,2.52a.7.7,0,0,1-.93,0C12.1,10.78,12.36,10.56,12.48,10.32Zm1.44,8.86c0,7,.77,13.62,1.08,20.42-4.35-.13-8.56-.6-13.1,0C6.49,33.13,9.64,26.08,13.92,19.18ZM15.4,41.44c.16.73.28,1.47.42,2.27a2,2,0,0,1-1.68,0c0-.75.08-1.49.13-2.22,0-.33-.06-.74.42-.81S15.32,41.06,15.4,41.44Zm-1.9,1.84c0,.41-.29.58-.7.55s-.46-.42-.34-.73c.28-.77.22-1.65.8-2.36A5.4,5.4,0,0,1,13.5,43.28Zm-1.56-2.59c-.08.92-.18,1.84-.3,2.75,0,.24-.27.34-.64.32-.12,0-.37-.07-.32-.38.16-.91.33-1.81.5-2.71,0-.22.22-.23.39-.25S12,40.54,11.94,40.69Zm-1.72-.07a17.89,17.89,0,0,1-.29,2.2c-.07.38-.17.81-.84.77.05-1,.1-2,.18-3,0-.1.25-.21.4-.24S10.23,40.41,10.22,40.62Zm-2.1,2.63a.33.33,0,0,1-.42.19.31.31,0,0,1-.26-.36c.1-.89.19-1.79.29-2.68h.41A5.25,5.25,0,0,1,8.12,43.25ZM6.56,41v.85h0c0,.34,0,.69,0,1s-.3.55-.68.49-.64-.21-.55-.67.2-1.23.3-1.85a.5.5,0,0,1,.59-.46C6.55,40.43,6.56,40.72,6.56,41ZM4.05,43c-1,0-.41-1-.54-1.49a1.69,1.69,0,0,1,0-.67A.44.44,0,0,1,4,40.41c.34,0,.51.16.52.49s0,.45,0,.69C4.34,42.06,4.85,43,4.05,43ZM2.61,40.73a2.32,2.32,0,0,1,0,1.68c-.55,0-1.17-.29-1.2-.73C1.37,41.06,2,40.78,2.61,40.73Zm9.1,12c.9-.75,2.09-.48,3-1.24-2.45,0-4.76,1-7-.17,1.77-.2,3.61,0,5.21-1-2.77.06-5.58.52-8.11-1.16,1.79.13,3.56.57,5.36,0-.88-.14-1.78-.24-2.65-.43-1.34-.29-2.75-.39-3.86-1.35-.28,0-.59,0-.66-.39l-.22-.15c.07,0,.14-.1.2-.08s.12.11,0,.22c.35-.26.59,0,.86.16,1.2.32,2.32,1,4,.79a37.3,37.3,0,0,1-5.29-2.34,2,2,0,0,1-1.29-2C5.57,45.17,10,45,14.43,45.16a38.7,38.7,0,0,0,13.22-1.34C27.09,49,21.11,54.27,11.71,52.71ZM16.58,40.8a5.51,5.51,0,0,1,.4,2.48c0,.22,0,.46-.37.45a.32.32,0,0,1-.32-.32A4.69,4.69,0,0,1,16.58,40.8Zm1.14,2.87V41A3.07,3.07,0,0,1,17.72,43.67Zm1-.25c0-.51.06-1,.13-1.53,0-.31-.08-.84.35-.83.62,0,.34.56.34.74-.06.69-.09,1.2-.16,1.7a.35.35,0,0,1-.38.26C18.79,43.76,18.76,43.56,18.76,43.42Zm1.88-2.13a3.88,3.88,0,0,1-.21,2.38C20,42.84,20.44,42.07,20.64,41.29Zm.68,1.82c.1-.44.16-.9.22-1.35s.14-.58.5-.58.53.33.53.7c0,.18,0,.35,0,.78a4.41,4.41,0,0,1-.12.75c-.11.32-.45.32-.73.29S21.24,43.45,21.32,43.11Zm1.9-.24c0-.23.05-.46.08-.68s0-.77.44-.78.52.46.5.86c0,.23,0,.45,0,.68a.52.52,0,0,1-.57.5C23.22,43.45,23.19,43.17,23.22,42.87ZM25,42.43a.65.65,0,0,1,.39-.63.61.61,0,0,1,.32.62c0,.35,0,.78-.48.72S25,42.7,25,42.43Zm2.06.19a.27.27,0,0,1-.32.26c-.06-.07-.17-.14-.17-.21s.16-.25.31-.23S27.05,42.56,27.05,42.62Zm-.11-1.39a38,38,0,0,0-9.81-1.41c-.71,0-1.13-.28-1.18-1.13-.47-6.75-1.07-13.49-.56-20.32A101.29,101.29,0,0,0,26.94,41.23ZM46.69,11.62c-.88.92-2,0-3,.54.92.59,1.92.19,2.73.7-1.13.1-2.14.76-3.31.56a47.68,47.68,0,0,0-16.25.29A75.42,75.42,0,0,1,15.65,15a10.07,10.07,0,0,1-4.91-.85,3.53,3.53,0,0,1-2-3.71c.39-1.6,1.43-2.22,3.51-2-1.26.2-2.14.78-2.18,2.14a3,3,0,0,0,2.08,2.74,9,9,0,0,0,5.47.24l10.71-3a11.71,11.71,0,0,1,1.18-.23v0h0v0a17.74,17.74,0,0,1,3.31-1.12,2.27,2.27,0,0,0-.18,2.23,1.11,1.11,0,0,0,.77.64,1.66,1.66,0,0,0,2-.68c.4-.83,0-1.57-1.5-2.64A7.75,7.75,0,0,0,37.69,4a5.74,5.74,0,0,1,1.78-2.53c.44-.36,1-.77,1.57-.35s.34,1,.1,1.59a4.42,4.42,0,0,1-.34.6,3.18,3.18,0,0,0,.38,4,6.59,6.59,0,0,0,5.15,2.82,3.17,3.17,0,0,1,.66.2c-.89.75-1.87,0-2.7.47C45,11.39,45.85,11.25,46.69,11.62Zm1.59,7.67c-.24-.12-.56-.21-.58-.55s.27-.34.48-.31.4.36.43.65S48.51,19.41,48.28,19.29Zm-1,33.84c.46,0,.75.56.75,1.52a.92.92,0,0,1-.93,1A1.06,1.06,0,0,1,46,54.63,1.38,1.38,0,0,1,47.3,53.13ZM44.55,60h.08c0,.1-.08.13-.18.1Zm-.14.13c-.2,1.35-.27,1.39-1.66,1.07C43.17,60.59,43.88,60.49,44.41,60.14Zm22.34,1.49c1.47.71,1.69,2,2,3.28a.62.62,0,0,1-.42.82c-.48.19-.6-.15-.77-.46s-.08-.56-.47-.65c-.29.64.23,1.74-1.07,1.82-.89.06-.48-.77-.88-1.08-.68.42-.42,1.67-1.65,1.73s-1.39.18-2.07-.92c-.52,2-2.17,1.47-3.48,1.7-.65-.55.08-1.58-.81-2.05a3.71,3.71,0,0,0-.49,1.77c0,.22,0,.47-.34.52s-.39-.18-.42-.42a1.37,1.37,0,0,0-.51-1.07c-.31.46-.1,1-.31,1.47a.62.62,0,0,1-.4.28c-.26,0-.41-.09-.47-.37-.09-.47.1-1.06-.57-1.38-.06.25-.12.46-.17.67-.1.43,0,1-.55,1.17-.71.21-.66-.66-1.16-1,0,1.27-.8,1.15-1.57,1.16s-1.62.1-1.65-1c-.4.06-.41.34-.54.51-.48.59-.83.57-1.06-.07-.15-.4,0-.89-.39-1.31-.55.36-.39.86-.47,1.28a.43.43,0,0,1-.45.42.44.44,0,0,1-.48-.4c0-.46-.08-.92-.12-1.37-.38,0-.48.26-.57.56s.08,1-.54.89c-.39,0-.35-.53-.42-.86s0-.94-.36-1.37c-.66.22-.49.81-.5,1.26,0,.64-.3.82-.87.73-.11,0-.23,0-.34,0-1.09-.18-2.45.12-2.48-1.92-.58.68-.45,1.41-1.32,1.32-1.22-.13-2.14-.42-2.28-1.91-.7.33-.38,1.33-1.35,1.12-1.21-.27-.39-1.29-.79-1.83-.34.09-.43.38-.52.64s-.28.65-.73.51a.6.6,0,0,1-.43-.81,4.42,4.42,0,0,1,2-3.32c.06,1.59,1.15,2.07,2.4,2.39A55.5,55.5,0,0,0,49.7,65.6a57.85,57.85,0,0,0,13.12-1.24c.68-.15,1.36-.29,2-.5C65.89,63.54,66.77,63,66.75,61.63ZM58.5,60.1c2.47,0,4.81.28,6.84,1.93-4.74,3.28-24.93,3.33-30.2.13,1.33-1.45,3.44-2.09,6.63-2-.07.68-.37,1.44.3,2s1.29.35,2,.43a69.67,69.67,0,0,0,9.36.22c1.27,0,2.54-.11,3.8-.23S58.84,61.89,58.5,60.1Zm-13.58-.86.1-.05v.12Zm12.69,1.9c-1.21.41-1.21.41-1.66-.83A3.53,3.53,0,0,1,57.61,61.14ZM55.8,60v.11l-.08,0Zm-.37-.69a5.39,5.39,0,0,0-1.76-1A2.11,2.11,0,0,0,51,59.85c-.07.22-.13.44-.21.65a.62.62,0,0,1-.69.39.59.59,0,0,1-.65-.46c-.18-.94-.39-1.81-1.51-2.09-.85-.21-1.1-.2-3,.68.49-1.38.86-2.2,2.28-2.31.79-.07,1.47-.39,2.22.16a1.21,1.21,0,0,0,1.34,0c.76-.56,1.43-.2,2.22-.15C54.58,56.82,54.88,57.78,55.43,59.26ZM49.11,54.8c0-.77.66-1.62,1.11-1.58s1,1,.94,1.71-.37,1.1-1.08,1A1,1,0,0,1,49.11,54.8Zm4.06-1.67a1.35,1.35,0,0,1,1.13,1.49c-.06.65-.4,1.1-1.1,1.06a1,1,0,0,1-1-1.11C52.22,53.69,52.65,53.09,53.17,53.13Zm-.94-4.35c0,.86-.09,1.72-.13,2.6-.62-.11-.16-.74-.61-1-.61.27-.08,1.06-.69,1.27-.63-.33-.13-1-.54-1.43-.58.29-.26,1-.77,1.44-.74-.21-.24-1-.61-1.42-.41.2-.08.75-.44,1-.06-.06-.16-.1-.18-.18a10.87,10.87,0,0,1-.15-3.27c0-.79.32-1.35,1.24-1.29.17,0,.34,0,.52,0C52,46.36,52.25,46.64,52.23,48.78Zm-1.6-4.69a2.28,2.28,0,0,1,0,.69.45.45,0,0,1-.48.4.41.41,0,0,1-.44-.42,4,4,0,0,1,0-.69c.19-1.85.1-3.7.15-5.56-.18-3.75-.38-7.51-.54-11.26-.06-1.39,0-2.78,0-4.17,0-.65.26-1,.85-1s1,.36,1,1.1c.06,3.59-.26,7.16-.42,10.74C50.54,37.28,50.14,40.68,50.63,44.09Zm1.76-25a2.58,2.58,0,0,0-1.49,1.78c-.07.37-.4.54-.85.53-.1,0-.35-.09-.39-.2-.23-.71-.94-1.26-.68-2.15.2-.69.34-1.15.8-.14a.45.45,0,0,0,.21.22c.67.26.46-1,1.13-.68.28.13.41,1,.84.1.1-.21.42-.19.59,0S52.6,19,52.39,19.09Zm1.26-2.42a9.82,9.82,0,0,1-7,0A17.72,17.72,0,0,1,53.65,16.67Zm19.91-2.94a46.65,46.65,0,0,0-16.41-.28c-1.14.2-2.07-.79-3.23-.35.69-.94,1.84-.24,2.71-1-1-.47-2.07.27-3.22-.43l2.78-.78c-1-.49-1.89.09-2.63-.3,0-.49.36-.45.63-.46a6.61,6.61,0,0,0,5.07-3,3.06,3.06,0,0,0,.28-3.86c-.44-.67-.93-1.44-.25-2.21.37-.42,1.35.05,2.2,1a4.68,4.68,0,0,1,1.07,1.77,8.5,8.5,0,0,0,4.87,5.48h0l0,0a8.9,8.9,0,0,1,3.13,1v0h0l0,0a63,63,0,0,1,7.53,1.94c1.57.4,3.13.83,4.69,1.27a9.52,9.52,0,0,0,5-.08,4.13,4.13,0,0,0,1-.4,2.85,2.85,0,0,0,1.45-2.92c-.12-1.16-1-1.45-2-1.67,1.4-.27,2.25-.08,2.84.75a2.88,2.88,0,0,1,.27,3.12,4,4,0,0,1-2.12,1.94,11,11,0,0,1-4.6.66A72.73,72.73,0,0,1,73.56,13.73ZM85,18.38a68,68,0,0,1,.14,9.67c-.18,3.35-.44,6.7-.67,10.05-.12,1.6-.15,1.66-1.72,1.75A37.8,37.8,0,0,0,73.4,41.2,101.89,101.89,0,0,0,85,18.38ZM84,43.5a.31.31,0,0,1-.39.24c-.09,0-.23-.13-.22-.2a7.22,7.22,0,0,1,.2-2.7c0-.06.21,0,.37-.06A8.56,8.56,0,0,1,84,43.5Zm-1.55.15c-.08-.91-.16-1.82-.25-3C82.76,41.7,82.76,41.7,82.47,43.65Zm-.86-.28c0,.31-.19.4-.43.4s-.36-.05-.38-.27a8.38,8.38,0,0,1,0-2.45l.45,0C81.38,41.81,81.5,42.59,81.61,43.37Zm-1.7.31a3.16,3.16,0,0,1-.15-2.45A3.68,3.68,0,0,1,79.91,43.68Zm-1-.78c0,.39.23.79-.34.81-.36,0-.75,0-.74-.48,0-.66-.29-1.36.16-2a.49.49,0,0,1,.47,0C79.12,41.68,78.71,42.41,79,42.9Zm-2,.54c-.07.07-.36,0-.48,0C76,43,76.19,42.46,76.1,42s.09-.62.45-.63.37.2.42.44A.47.47,0,0,1,77,42C77,42.49,77.35,43,76.94,43.44Zm-1.66-.19c-.7,0-.65-.54-.69-1a.38.38,0,0,1,.37-.46c.12,0,.3.18.34.31A1.33,1.33,0,0,1,75.28,43.25Zm20.47,5.68a.41.41,0,0,1-.11.07c0-.1,0-.16.11-.16S95.77,48.92,95.75,48.93Zm1.32-1.7c-.16,0-.37.1-.45-.08a.34.34,0,0,1,.26-.49,2.18,2.18,0,0,1,.66,0C97.39,47,97.32,47.17,97.07,47.23Zm.56-1.68a25.45,25.45,0,0,1-5.26,2.21,3.67,3.67,0,0,0,2.12,0c.61-.1,1.13-.64,2-.33-2,1.33-4.31,1.26-6.43,1.79a8.66,8.66,0,0,0,4.08,0A3,3,0,0,1,95.61,49c-.86,1.13-2.19,1.11-3.4,1.28a26.67,26.67,0,0,1-4.81,0c1.6,1.07,3.44.83,5.38.88-1.16,1.07-2.43.59-3.59.65s-2.25-.47-3.48-.32c.82.76,2,.49,2.76,1.06-5.87,1.76-14.73-1.41-15.79-8.73A29,29,0,0,0,78.6,45a61.68,61.68,0,0,0,11.45,0c1.56-.15,3.13,0,4.68-.32A15.27,15.27,0,0,0,99,43.36,2,2,0,0,1,97.63,45.55ZM51.44,5.83l0,0h0ZM61.5,7.17a3.28,3.28,0,0,0-3.12,2.88,2.57,2.57,0,0,0,2.7,2.35,2.78,2.78,0,0,0,3-2.69A2.76,2.76,0,0,0,61.5,7.17Zm.81,3.76a1.84,1.84,0,0,1-.63.24,1.75,1.75,0,0,1-2.07-.77c-.32-.85.13-1.4.85-1.78a1.23,1.23,0,0,1,1.18-.49,1.64,1.64,0,0,1,1.44,1.28C63.34,10.19,62.83,10.57,62.31,10.93ZM60.45,8.64v0h0ZM64.78,11a1.47,1.47,0,0,0,1.67,1.17c1,0,1.41-.57,1.44-1.59a2.6,2.6,0,0,0-.46-1.24,4.74,4.74,0,0,0-1.17-.14A1.63,1.63,0,0,0,64.78,11Zm2.37-.2c-.09.35-.29.59-.72.51a.49.49,0,0,1-.45-.6.56.56,0,0,1,.64-.44C66.91,10.31,67.18,10.41,67.15,10.82Zm2.75-.31a2.08,2.08,0,0,1,.66-.12,3.19,3.19,0,0,1,.45.45c.38.5.53,1-.08,1.47A1.31,1.31,0,0,1,69.24,12C68.9,11.43,69.13,10.88,69.9,10.51Zm-31-3.34a3,3,0,0,0-2.69,2.48,3,3,0,0,0,3,2.75A2.65,2.65,0,0,0,42,10.1,3.33,3.33,0,0,0,38.87,7.17Zm1.85,3.23a1.62,1.62,0,0,1-1.75.83A1.88,1.88,0,0,1,37.22,10,1.68,1.68,0,0,1,38.43,8.2a1.41,1.41,0,0,1,1.29.3l.41.28C40.63,9.21,41.08,9.68,40.72,10.4Zm-11.58.68c.08-.25.42-.37.38-.68a3.91,3.91,0,0,1,1,.13c.62.23,1,.67.66,1.35a1.33,1.33,0,0,1-1.66.5C28.83,12.1,29,11.6,29.14,11.08ZM51.42,5.86c-.08.09-.15.08-.2-.05s0-.13,0-.13S51.44,5.73,51.42,5.86Zm9.17,2.91c.25.13.52-.12.78-.09a.94.94,0,0,1,.93,1,.81.81,0,0,1-.78.92c-.6,0-.88-.36-1.05-.9C60.36,9.38,60.74,9.07,60.59,8.77Zm0,0a.55.55,0,0,1-.14-.13l0,0A.48.48,0,0,1,60.59,8.77Zm-20.72.28a1.67,1.67,0,0,1-.14,1,.92.92,0,0,1-1,.56A1,1,0,0,1,38,9.8a1,1,0,0,1,.57-1c.31-.21.67-.08,1-.09A.39.39,0,0,0,39.87,9.05Z"/><text class="cls-1" transform="translate(23.73 98.42)">Lib<tspan class="cls-2" x="33.03" y="0">r</tspan><tspan x="41.37" y="0">a</tspan></text></g></g></svg>