<svg xmlns="http://www.w3.org/2000/svg" viewBox="0 0 108.63 111.25"><defs><style>.cls-1{font-size:25.91px;font-family:MyriadPro-Regular, Myriad Pro;}.cls-2{letter-spacing:0em;}.cls-3{letter-spacing:0em;}</style></defs><title>Asset 385</title><g id="Layer_2" data-name="Layer 2"><g id="Layer_1-2" data-name="Layer 1"><path d="M106.68,39.56a2.22,2.22,0,0,1-.5-2.73,26.77,26.77,0,0,0,1.29-15.31,27.78,27.78,0,0,0-5.19-10.32c-3.75-5.06-8.49-8.66-14.79-9.89C85.34.89,83.18.46,81,.2,74.44-.59,68.59.94,63.74,5.67c-3.58,3.49-6.72,7.26-8.44,12-.18.52-.29,1.17-1.06,1.11s-.8-.69-1-1.21a21.49,21.49,0,0,0-1.73-3.74,37,37,0,0,0-7.88-9.26A18.66,18.66,0,0,0,31.41,0a51.42,51.42,0,0,0-7.83.78A24.5,24.5,0,0,0,7.16,10.09,30.61,30.61,0,0,0,1.38,20.53a25.48,25.48,0,0,0,.84,15.7c.5,1.45.84,2.65-.65,3.69-.28.19-.41.62-.58,1a10.52,10.52,0,0,0-.81,6.57C1,52.64,3.89,56.22,8.28,58.8c.38.23.83.46,1.18,0s-.09-.76-.43-1A14.46,14.46,0,0,1,5.35,53.1c-1.13-2-1.11-5.77,1.36-7.5a51.27,51.27,0,0,0,4,4.73c5,4.91,10.71,8,18,7.3,4.49-.45,9.16-3.31,9.73-9.28.07-.73.17-1.46.26-2.26,1.95,1,3.29,2.28,3.28,4.6a4.08,4.08,0,0,0,1.46,3.16,5.53,5.53,0,0,1,1.79,5.75,4.58,4.58,0,0,0,.69,3.57,8.24,8.24,0,0,1,1.65,4.68,3.41,3.41,0,0,0,2,3A2.77,2.77,0,0,1,51,73.62c0,2.16.92,3.21,3.14,4a2.21,2.21,0,0,0,.12.27.18.18,0,0,0,.17,0c1.95-1,3.51-2.24,3.37-4.7A2.2,2.2,0,0,1,59,70.94,4.09,4.09,0,0,0,61.18,67a3.8,3.8,0,0,1,.75-2.45,7.22,7.22,0,0,0,1.42-5.8A4.68,4.68,0,0,1,65,54.06a4.5,4.5,0,0,0,1.72-3.63c0-2.27,1.38-3.29,3.07-4.2.47.46.31,1,.34,1.47.39,6.59,5.34,9.54,10.09,10a18.4,18.4,0,0,0,9-1.39,25.69,25.69,0,0,0,9.27-6.57c1.19-1.35,2.32-2.77,3.48-4.16a6.37,6.37,0,0,1,.76,8.42,13.06,13.06,0,0,1-3.39,4c-.27.18-.46.45-.25.79a.59.59,0,0,0,.8.26,3,3,0,0,0,.51-.25A15.31,15.31,0,0,0,108.49,47C108.85,44.26,108.58,41.62,106.68,39.56ZM5.51,44.9C2.89,47.15,2.85,50,3.84,53c-.45-.12-.54-.53-.73-.85a4.59,4.59,0,0,1-.57-1.18c-.22-.89-1-1.6-.45-2.77.24-.49-1.11-1.31-.58-2.47.4-.45,1.1.31,1.63-.12a1,1,0,0,0-.92-1c-1.05-.24-.86-.89-.63-1.57.12-.35.37-.46.74-.29s.77.65,1.32.64h0c.23-.46-.13-.69-.38-.94C2,41.17,2,41.18,3.48,39.65c.74,1.39,1.43,2.76,2.18,4.1A.79.79,0,0,1,5.51,44.9Zm31.26,1.83c0,.37,0,.75,0,1.13,0,.65-.38.87-1,.8l-2.42-.28c-.49-.06-.95-.33-1.47-.16h0c.28,1,1.17,1,1.9,1.29a10.71,10.71,0,0,0,2.38.36c0,.16.12.3.09.4-.81,2.31-1.13,2.44-3.39,1.7a6.84,6.84,0,0,1-3-2.29c-.06,2.06.6,2.67,4,3.9,0,.1,0,.23-.1.3-2.36,2.14-3.79.91-5-1.2a14.34,14.34,0,0,1-.84-2.06c-.89,1.32-.43,2.7,1.68,5-2.11,1-2.81.71-3.34-1.41-.25-1-.38-2.08-.56-3.14-.86,1.13-.9,2-.24,4.89-1.78.18-1.95.1-2.09-1.41a11.31,11.31,0,0,1,.09-3.18,4.71,4.71,0,0,0,0-2.33c-1.76,2-1.8,4.08-1.36,6.26-1.83-.17-1.86-.22-1.86-1.78,0-1.37.53-2.65.68-4.17-1.92,1.13-1.8,3-2.26,4.67-.33.25-.58,0-.82-.16-1.39-.73-1.39-.74-.85-2.3a37.85,37.85,0,0,0,1.3-4.28c-1.84,1.14-2,3.19-2.67,5-.14,0-.29,0-.37,0-2.06-1.38-2.2-1.89-.77-3.88.82-1.16,1.8-2.21,2.77-3.38-2.15.25-3.65,1.76-4.77,4.71-.07,0-.15,0-.19,0-1.9-1.5-2-2.1-.42-3.92a14.23,14.23,0,0,1,2.72-2.3c.44-.32,1.08-.41,1.34-1.22a7.77,7.77,0,0,0-6.05,4.55c-.56-.1-.76-.61-1.06-1-1.41-1.85-1.35-2.1.57-3.56,1.23-.94,2.67-1.53,4.1-2.41-2.26-.39-4.35.6-6.36,2.86-.11,0-.28,0-.32-.11-1.65-3.05-2.24-2.69,1.07-5.19a26.7,26.7,0,0,1,3.27-1.84c.26-.14.61-.17.64-.58-2.32-.15-4.47.92-6.93,3.49A10,10,0,0,1,3.41,35c-.29-.84.4-1.16,1-1.32,1.2-.36,2.43-.57,3.65-.87A12.4,12.4,0,0,0,11.35,32a10.17,10.17,0,0,0-8.35.9,9.42,9.42,0,0,1-.77-3.77c-.1-.73.46-.75,1-.82a31.53,31.53,0,0,1,8.3-.14c-1.49-1.61-4.09-1.87-9.12-1-.36-.27-.26-.67-.24-1,.22-3.6-.09-3.38,3.73-3,1.33.11,2.61.7,4.39.63A10.87,10.87,0,0,0,3,21.48c.41-3.38,1-3.77,4-2.81A21.7,21.7,0,0,1,11.74,21c-.9-1.82-2.58-2.82-6.79-4.12a.44.44,0,0,1,0-.5C6.12,14.05,6.25,14,8.65,15.09a28.23,28.23,0,0,1,6,4.12h0L15,18.8c-2-2.71-4.76-4.3-7.72-5.71a1.43,1.43,0,0,1,.14-.52c2.18-3,1.91-2.94,5.17-1.26.88.45,1.69,1,2.53,1.56h0c.09-.16.17-.32.26-.47-1.18-1.65-3.05-2.34-4.76-3.43A12.65,12.65,0,0,1,14,6c.68-.49,1,0,1.42.41a34.73,34.73,0,0,1,5,7c.23.41.25,1,1,1.27C20.7,10.76,18.37,7.86,16,5c.14-.17.19-.31.29-.35,4.32-1.88,3.79-1.91,5.77,1.85a34.3,34.3,0,0,1,2.84,7.72c.49-3-.67-6.94-3.23-11.23,1.16-.65,2.49-.59,3.71-.92.83-.23.92.52,1,1A52.19,52.19,0,0,1,28,11c0,.49.09,1,.17,1.77.67-2.63.47-5.37-.73-11a24.82,24.82,0,0,1,4.59-.11,69,69,0,0,1-1,11.82c1.5-1.56,2-3.81,2.42-11.6.1,0,.22-.13.32-.11,3.19.6,2.71.17,2.46,3.28-.2,2.55-.56,5.09-1,7.63C37.53,9.86,37.65,6.46,38,3.06a5.68,5.68,0,0,1,2.56,1.2c.69.39.32,1,.15,1.5-.94,2.92-1.82,5.86-3,8.7a1.32,1.32,0,0,0-.19,1c1.06-.43,1.42-1.47,1.92-2.35a33.35,33.35,0,0,0,2.84-7.34c.74,0,1,.67,1.51,1,.78.51.75,1.15.42,1.94A56.67,56.67,0,0,1,39.9,17.2h0l.3.27a9,9,0,0,0,2.88-3.38A23.47,23.47,0,0,0,45.51,8.8c.84.27,1.16,1,1.64,1.55s.14,1.06-.1,1.57a32.66,32.66,0,0,1-6.53,9.92,3.29,3.29,0,0,0,2.72-1.47,24.89,24.89,0,0,0,4.57-6.84c.17-.38.15-.87.58-1.13,1.43,1.29,1.45,1.32.68,2.89a45.93,45.93,0,0,1-4.76,7.19h0l.43.27c2.24-1.54,3.55-3.82,4.89-6.08.26-.43.47-.88.71-1.34,1.21,1.5,1.22,1.51.65,3.11a17.33,17.33,0,0,1-3.54,5.71c-.39.44-1,.73-1.07,1.45,2.1-.47,3.88-2.57,5.74-6.75a1.22,1.22,0,0,1,.62,1.4A12.32,12.32,0,0,1,52,23.14a16.14,16.14,0,0,1-7.57,7.54,4.75,4.75,0,0,1-2.92.47,2.38,2.38,0,0,1-2-1.46c-.52-1.34-1.28-2.56-1.69-4a9.68,9.68,0,0,0-4.06-5.47,15,15,0,0,0-8.48-2.59c-5.63,0-8.95,3.25-9.44,8.67a22.59,22.59,0,0,0,7,19.08,9.59,9.59,0,0,0,3,2.16,3,3,0,0,0,4.24-1.87,6.6,6.6,0,0,0-3.54-8A10.92,10.92,0,0,0,19,37.2a10,10,0,0,1-1.08-3.33.48.48,0,0,1,.35-.58.46.46,0,0,1,.61.28c.27.62.49,1.26.74,1.94.63-.5.28-1.12.28-1.66s-.2-.91.47-1a1,1,0,0,1,1.21.61c.25.62.12,1.38.7,1.91a1.94,1.94,0,0,0,.4-1.78c-.06-.23-.15-.52.15-.65a.84.84,0,0,1,.88.15,1.78,1.78,0,0,1,.56,1.16c.11.6.15,1.22.22,1.89,1.1-.7.43-1.79.74-2.62,1.86.15,1.86.15,2.26,2.92,1-.21.49-1.3,1-1.78,1.77.58,1.77.58.87,3.68,1.25-.22,1.29-1.43,1.85-2.13,2.21,1.28,2.22,1.35.37,3.64,1.09.4,1.48-.67,2.19-1,.11,0,.26,0,.32.13,1.2,1.65,1.17,1.8-.69,2.65-.33.16-.69.27-1.07.41,1,.62,1,.62,3.16-.34.1.07.25.12.3.21,1.28,2.59,1.13,2.84-1.64,2.94-.44,0-.88,0-1.31.07,0,0-.06.09-.15.26a1.67,1.67,0,0,0,1.52.73,11.78,11.78,0,0,0,1.68,0C36.47,45.88,36.82,46,36.77,46.73Zm-11-24.25A9.35,9.35,0,0,1,27,25.19a10.79,10.79,0,0,0,5.33,6.93c1,.57,2.14,1.12,1.28,2.68-.22.4.21.87.43,1.3-1.17-.78-2.3-1.63-3.52-2.32a16.7,16.7,0,0,0-12.09-2.19c-.59.12-1.16.28-1.21-.6-.17-2.75-.32-5.47,1.13-8a6.74,6.74,0,0,1,4.82-3.53c5.2-1,10.82,1.62,12.72,5.3l.26.36c.11.18.32.36.06.55,0,0-.23-.17-.35-.26l-.43-.32a25.51,25.51,0,0,0-8.73-3.72c-.41-.1-.9-.34-1.19.11S25.61,22.16,25.81,22.48Zm-6.21,16c3.2-1,6.75,0,8.46,2.31a4.67,4.67,0,0,1,.74,3.92c-.32,1.56-1.36,2-2.77,1.29a8.12,8.12,0,0,1-1.38-1,23.68,23.68,0,0,1-4.5-5.23A2.61,2.61,0,0,1,19.6,38.47Zm15.48-1.06c.22.05.32.13.12.3ZM51.63,72.83s-.06,0-.06,0a.77.77,0,0,1,0-.15s0,0,0,.06A.71.71,0,0,1,51.63,72.83Zm.39,2a1.36,1.36,0,0,1-.22-1.15C52.29,73.94,52.2,74.29,52,74.82Zm.82-.8a1.85,1.85,0,0,1,.81,1.64C53,75.45,53.1,74.86,52.84,74Zm1.27,3.54c-.27-.6-.69-1.16-.44-1.87h1.12C55.29,76.57,54.71,77.07,54.11,77.56Zm.69-1.9c0-.21.08-.4.37-.36C55.19,75.58,55.19,75.83,54.8,75.66Zm.37-.37a1.29,1.29,0,0,1,.16-1C55.65,74.71,55.68,75.05,55.17,75.29ZM56.51,75c-.5-.83.35-1.43.32-2.16A2.33,2.33,0,0,1,56.51,75Zm1.74-4.82a4.79,4.79,0,0,0-2.16,2,1,1,0,0,1-.36.42c-1.27.67-1.27.66-1.34,1.93a1.65,1.65,0,0,1-.09.39c-.37-.46-.12-1-.2-1.45s0-1-.54-1.31c-.41.12-.2.54-.55,1-.6-1.66-1.93-2.48-3.24-3.39a3.21,3.21,0,0,1-1.25-3.24,29.35,29.35,0,0,0,3.25,1.33c.78.15,1.44.35,2.08-.26.16-.14.28-.4.61-.2,1.61,1,3.09.35,4.56-.4.27-.14.55-.26.93-.43A3.21,3.21,0,0,1,58.25,70.18ZM51.67,58.74a1,1,0,0,1-.81-1.27A1,1,0,0,1,52.29,57a4.64,4.64,0,0,0,4.14,0,.89.89,0,0,1,1.29.93,1.14,1.14,0,0,1-1,.92A1.81,1.81,0,0,0,55.23,61c.06.62-.11,1.15-.85,1.19A.93.93,0,0,1,53.31,61,1.86,1.86,0,0,0,51.67,58.74ZM71,41.79c-.47,1.38-.45,3.05-2.2,3.66-.11,0-.21.14-.32.18a4.65,4.65,0,0,0-3.32,4.71,3,3,0,0,1-.55,1.78c-1.14-3.17-2.88-5.91-3.69-9a12.33,12.33,0,0,1-.15-1.49.8.8,0,0,1,.78-1A10.41,10.41,0,0,0,63,40.29a3,3,0,0,0,2.54-2.68,5.83,5.83,0,0,1,1.1-3.11c-1.82.72-3.68,1.34-5.43,2.19a3.34,3.34,0,0,0-1.58,2.66,11,11,0,0,0,1.64,8.44A7,7,0,0,1,62.38,54a9.24,9.24,0,0,1-.21.91,8,8,0,0,0-.19,4.8,4.62,4.62,0,0,1-1.78,5c-.81.69-1.69,1.29-2.53,1.93a2.13,2.13,0,0,1-1.59.45.91.91,0,0,1-1-.94c0-.87-.44-2-.07-2.57A17.48,17.48,0,0,0,56.81,60c0-.15.45-.17.66-.29,1.13-.63,1.39-1.21,1-2.27a1.94,1.94,0,0,0-2.35-1.36,1.37,1.37,0,0,0-.54.17,2.43,2.43,0,0,1-2.62,0,1.94,1.94,0,0,0-2.83,1c-.48,1.09-.34,1.85.75,2.33.93.42,1.44.88,1.29,1.94a1.27,1.27,0,0,0,.49,1c.32.33,1,.31.93,1a17.25,17.25,0,0,1-.16,3c-.2.78-1.09.83-1.75.56a11.06,11.06,0,0,1-4.16-3.14,4.86,4.86,0,0,1-.83-4.78,5.88,5.88,0,0,0-.12-3.52A28,28,0,0,1,46,52.82a6.06,6.06,0,0,1,1.12-4.77,11.06,11.06,0,0,0,1.81-8.58,4.13,4.13,0,0,0-3.18-3.54c-1.25-.34-2.46-.87-3.69-1.31h0l-.29.25A3,3,0,0,1,43,37.36c-.07,1.53,1,2.49,2.48,2.92a10.68,10.68,0,0,0,1.11.18c1.27.27,1.31.34,1.19,1.63-.24,2.5-1.5,4.63-2.49,6.85a15.76,15.76,0,0,0-1.17,3.27c-.71-.5-.63-1.21-.66-1.81-.13-2.27-1-4-3.3-4.73-1.67-.55-2.1-2-2.47-3.44-.52-2-.53-2-1.53-3.19a2.91,2.91,0,0,1-.27-.49,1.9,1.9,0,0,1-.68-.83c.5-.26.72.17,1,.44a6.47,6.47,0,0,0,2.11,1c-1-1.5-2.51-2.17-3.32-3.53-.07-.14-.24-.37-.19-.43.21-.27.39-.06.55.11,1,.33,1.66,1.27,2.89,1.28-.46-1-1.53-1.26-2-2.08.35-.37.69,0,1,0h0a2.28,2.28,0,0,1,.22-.22,17,17,0,0,0-4.12-2.88c-3.27-1.83-4.82-4.74-5.7-8.19a19.75,19.75,0,0,1,8.1,4.33,9.39,9.39,0,0,1,2.46,3.24,3.33,3.33,0,0,0,2.75,2,7.47,7.47,0,0,0,5.56-1.2,18.64,18.64,0,0,0,6.64-7.26,9.47,9.47,0,0,0,1-4c.6,4.85,3.54,8.16,7.25,10.9a7.64,7.64,0,0,0,6,1.58,3.34,3.34,0,0,0,2.79-2,10.26,10.26,0,0,1,2.44-3.26c2.22-2.32,5.22-3.24,8.3-4.78-1,3.68-2.34,6.58-5.5,8.35-1.52.85-2.9,1.95-4.35,2.93h0l.27.3c.35,0,.68-.23,1-.08-.4,1-1.68,1.17-2.17,2.35,1.36-.2,2.19-1.14,3.38-1.62.11.56-.24.83-.49,1.12-.81.94-1.9,1.59-2.63,2.62h0l.22.22c1-.25,1.65-1.11,2.84-1.76a10.75,10.75,0,0,1-2.22,2.9C71,40.62,70.15,41,71,41.79Zm-10-2.4c.24-2.07.63-2.37,3.49-2.7C64.38,38.67,63.83,39.09,61,39.39Zm-13.41.08c-3-.51-3.31-.78-3.66-2.74C46.62,36.81,47.22,37.24,47.62,39.47ZM35.71,34.12s.08-.1.12-.1.08.07.12.11l-.13.1Zm36.17-7.9v-.1l.07.06Zm2.46,8.16c.36-.64.49-1.42,1.18-1.85.26-.17.54-.32.81-.48a10.62,10.62,0,0,0,5.19-6.81,9.22,9.22,0,0,1,1.33-2.88.88.88,0,0,0,.14-.89c-.24-.42-.65-.26-1-.18a22.43,22.43,0,0,0-9.6,4.44c-.47-.43,0-.71.15-.94,3-4.38,7.23-6,12.34-5.44a7.24,7.24,0,0,1,6.38,6.43,17.57,17.57,0,0,1,.19,2.62c0,1.05-.12,2.11-.2,3.36-6.3-1.44-11.56.37-16.58,4.33C75,35.23,75.11,34.63,74.34,34.38Zm-1.59-.2-.28.11c0-.11,0-.2.09-.22S72.69,34.14,72.75,34.18Zm28.91,8.69c-1.68-2.11-3.73-3.34-6.48-3.07l3.21,1.81c.27.16.52.35.78.53,2,1.45,2,1.76.55,3.7-.23.3-.47.58-.83,1a8.43,8.43,0,0,0-6.35-4.7c.54.93,1.32,1.1,1.89,1.53a11.09,11.09,0,0,1,2.83,2.72c.89,1.34.89,1.41-.17,2.56a1.59,1.59,0,0,1-1,.69,7.4,7.4,0,0,0-4.8-5,5.15,5.15,0,0,0,1.22,1.74c.5.64,1.11,1.2,1.55,1.88,1.42,2.23,1.39,2.89-1.11,4-.65-1.7-.73-3.7-2.38-4.9l-.35.28c.45,1.3.91,2.59,1.36,3.89.56,1.62.56,1.63-1,2.39a7.63,7.63,0,0,1-.73.26c-.35-1.77-.35-3.63-2.29-5a31,31,0,0,1,.72,4.57c0,1.12-.43,1.62-1.65,1.58-.12-1.07.26-2.18,0-3.24s-.36-2.21-1.69-3c.12,1.45.23,2.65.31,3.86a9.53,9.53,0,0,1,0,1.31c-.11,1.7-.2,1.77-2.13,1.71.3-1.61,1-3.22.08-5a2,2,0,0,0-.52,1.27c-.1.55-.12,1.12-.25,1.67-.55,2.27-1.12,2.54-3.54,1.66,1.48-1.34,2.55-2.84,2.16-5-.52.07-.52.44-.64.7a9,9,0,0,1-.77,1.7c-1.44,2-2.83,2.91-5,.52,1.9-.68,4-1.17,4.09-3.77A7.43,7.43,0,0,1,75.61,52c-2.25.7-2.53.56-3.2-2,1.51-.38,3.24-.25,4.39-1.59h0l-.27-.26a21,21,0,0,1-3.53.52c-1,0-1.17-.23-1.24-1.58-.05-.9.22-1.23,1.16-1.15s2.25.29,3.28-.94C75,44.91,74,44.83,73,44.79c-.76,0-1-.41-.79-1.1a5.11,5.11,0,0,1,.86-2c1,.23,2,1.26,3.41.55-.77-.39-1.37-.65-1.93-1-1-.6-1-.66-.39-1.7a1.38,1.38,0,0,1,.72-.71c.71.17,1,1.4,2.12,1-1.63-2.41-1.63-2.41.49-3.69.51.69.51,1.86,1.76,2,0-1.29-1.53-2.95.84-3.68.53.58.13,1.6,1.06,1.91.47-.29.19-.77.24-1.15.21-1.55.18-1.55,2-1.81.27.82-.28,1.88.64,2.53.61-2.81.61-2.81,1.84-3.08a4,4,0,0,0,.61,2.37c1-3.08,1-2.73,2.37-2.23a5,5,0,0,0-.06,2.48c.71-.47.55-1.33.93-1.9.19-.29.37-.5.74-.37s.39.44.3.76q-.23.81-.48,1.62c-.44,1.46-.45,1.47-2,1.23a10.86,10.86,0,0,0-6.24.81,6.59,6.59,0,0,0-3.59,7.83,3.07,3.07,0,0,0,4.47,2,10.42,10.42,0,0,0,2.88-2.09,22.5,22.5,0,0,0,6.58-12,31.35,31.35,0,0,0,.54-5.79,11.21,11.21,0,0,0-2.39-7,7.66,7.66,0,0,0-5.69-2.9,14.37,14.37,0,0,0-10.44,2.82A9.15,9.15,0,0,0,71,25.21a40.44,40.44,0,0,1-1.62,4,3,3,0,0,1-3.78,1.95,3.87,3.87,0,0,1-.9-.25c-4.21-2-7.37-4.93-8.64-9.55-.32-1.15-.25-1.35.35-2.66,1.35,3.37,3.19,6.21,6.68,7.73,0-.69-.46-.81-.74-1.07a17.56,17.56,0,0,1-4.76-6.89c-.51-1.41-.49-1.42.51-3.18C59.82,18.1,61.31,21,64,22.91h0c.09-.12.19-.23.29-.35h0a52.05,52.05,0,0,1-4.73-7.18c-.82-1.7-.83-1.69.68-3.1,2.38,5.54,5.22,9.08,7.75,9.54a32.28,32.28,0,0,1-6-9c-1.08-2.22-1.07-2.23,1-4,1.34,3.09,2.5,6.29,5.17,8.56h0l.27-.43c-1.26-2.38-2.58-4.72-3.6-7.21s-1-2.46,1.46-3.94c1.17,3.35,2,6.86,4.46,9.58h0l.29-.27q-1.53-4.53-3-9c-.49-1.48-.48-1.5.93-2.29a2.45,2.45,0,0,1,1.63-.6c.49,3.31.46,6.8,2.77,9.62-.31-2.45-.77-4.86-1-7.31,0-.12,0-.25-.06-.37-.2-2.79-1-2.85,2.75-3.33.09,4,.34,8,2.38,11.69-.2-1.8-.38-3.6-.61-5.4s-.2-3.5-.29-5.25c0-.84.15-1.31,1.13-1.22a23.78,23.78,0,0,1,3.48.24,25.73,25.73,0,0,0-.89,10.71c.39-2.19.69-4.4,1.2-6.56,1.16-4.94.19-4.1,5.09-3.18.06,0,.11,0,.39.16a22.14,22.14,0,0,0-2.55,5.33,13.71,13.71,0,0,0-.87,5.79c.69-2,1.39-4,2.21-5.9a23.6,23.6,0,0,1,2.07-4,1.32,1.32,0,0,1,1.74-.63,15.48,15.48,0,0,1,3.08,1.34c-2.31,3-4.72,5.83-5.43,9.75.65,0,.69-.53.86-.86a35.23,35.23,0,0,1,4.89-7.09c1-1.1,1.07-1.07,2.32-.21A12.07,12.07,0,0,1,98,8.93c-1.07.65-2.12,1.25-3.14,1.92a7.9,7.9,0,0,0-2.65,2.76c.67.14.88-.32,1.17-.55a18.9,18.9,0,0,1,4.33-2.61A1.59,1.59,0,0,1,100,11c.44.67,1,1.29,1.55,2a19.08,19.08,0,0,0-6.84,4.62h0l.43.2c.71.08,1.13-.46,1.62-.81A16.69,16.69,0,0,1,101,14.68c1.42-.47,1.45-.47,2.21.81a2.37,2.37,0,0,1,.51,1.35c-2.12.76-4.46,1.26-6.09,3.1l0,0,.26.35a22.66,22.66,0,0,1,5.23-2c1.28-.3,1.45-.22,2,1a4.06,4.06,0,0,1,.51,2.12,12.27,12.27,0,0,0-7.11,2.16,2.2,2.2,0,0,0,1.74.05,21.72,21.72,0,0,1,4.83-.68c.87,0,1.26.36,1.26,1.22a9.81,9.81,0,0,1,0,3c-3.15-.48-6.27-1.05-9.15.78a52,52,0,0,1,8,.3c1,.12,1.32.41,1.22,1.4a31.13,31.13,0,0,1-.57,3.26,12.45,12.45,0,0,0-4.1-1.32,10.38,10.38,0,0,0-4.26.18c.12.63.62.56,1,.64,1.78.37,3.57.67,5.33,1.12,1.59.42,1.67.7,1.17,2.27-.13.42-.27.83-.43,1.24s-.35.8-.6,1.35c-2-1.94-4.14-3.51-7.18-3.65.41.85,1.11.88,1.63,1.16a17.75,17.75,0,0,1,4.17,2.86,1.38,1.38,0,0,1,.3,2C102.41,41.37,102.09,42.06,101.66,42.87ZM89.17,38.54A19.89,19.89,0,0,1,82.53,46c-1.31.8-2.23.34-2.72-1.14a5,5,0,0,1,2-5.44A8.76,8.76,0,0,1,89.17,38.54ZM105.1,52.7l-.1.15a2.22,2.22,0,0,1-.1-.31s.08-.13.1-.12S105.18,52.57,105.1,52.7Zm1.26-2.53a5,5,0,0,1-1.07,2c0-1,0-1.67,0-2.37a5.38,5.38,0,0,0-1.59-4.25c-1.39-1.4-1.06-1.1-.28-2.66.53-1.06,1.07-2.1,1.73-3.38.38.47.58.7.76.95.46.64.62,1.2-.25,1.69-.41.22-.87.5-.81,1.13.44.24.66-.17,1-.3s.8-.66,1.09-.09.59,1.2-.28,1.58c-.5.22-1.08.36-1.13,1.07.49.44,1.1-.15,1.6.18.05.1.15.2.15.3a2.53,2.53,0,0,1-.92,2.11C107.09,48.79,106.57,49.49,106.36,50.17Z"/><text class="cls-1" transform="translate(25.19 104.77)"><tspan class="cls-2">A</tspan><tspan class="cls-3" x="15.78" y="0">r</tspan><tspan x="24.35" y="0">ies</tspan></text></g></g></svg>