<svg xmlns="http://www.w3.org/2000/svg" viewBox="0 0 96.67 118.99"><defs><style>.cls-1{font-size:25.91px;font-family:MyriadPro-Regular, Myriad Pro;}.cls-2{letter-spacing:-0.01em;}.cls-3{letter-spacing:-0.01em;}</style></defs><title>Asset 390</title><g id="Layer_2" data-name="Layer 2"><g id="Layer_1-2" data-name="Layer 1"><path d="M96.59,64.77A42.22,42.22,0,0,0,95,59.58a7.63,7.63,0,0,0-3.43-3.85c-1.44-.79-2.89-1.52-4.4-2.17-2.1-.9-4.48-1-6.46-2.26A2.78,2.78,0,0,0,79.25,51a22.33,22.33,0,0,1-8-1.17c-1-.35-2.1-.11-3.2-.31.27-1.28,1.47-1.71,1.75-2.7s.94-1,1.8-.78a6.73,6.73,0,0,0,5.57-.89A3,3,0,0,0,78.7,42c0-.34-.31-.67,0-1,3.11-1.3,5.27-5.56,4.1-8.52a4.74,4.74,0,0,1,.12-3.65c.35-1,.85-1.88,1.15-2.86.92-3,.45-5.62-2-7.76a22.63,22.63,0,0,0-2.59-2,11.7,11.7,0,0,1-2.63-2.22,4.31,4.31,0,0,1-1-2.58c-.32-3.46-1.52-6.68-4.48-8.77A14,14,0,0,0,60.47.26c-2.87.51-4.61,2.52-5.53,5.22-.15.44-.37,1,.13,1.34s.8-.08,1.13-.29a4.38,4.38,0,0,1,3.09-.83c1.17.17,2.25.54,2.16,2.15a2,2,0,0,0,1.8,2.31,1.3,1.3,0,0,1,1.3,1.6,4.2,4.2,0,0,0,.65,2.16c-1.52.25-1.77,1.2-1.48,2.44.06.28.17.61-.25.73s-.55-.19-.65-.46a4.93,4.93,0,0,0-3-2.7,2.65,2.65,0,0,1-1.65-1.81c-.23-.93-.42-1.88-.67-2.82s-.61-1-1.25-.32a4.9,4.9,0,0,0-.58.7,7.49,7.49,0,0,0,.66,9.38,87.43,87.43,0,0,1,6,7.33,20.82,20.82,0,0,0,4.23,4.46A11.25,11.25,0,0,0,69,32.37c.43.19.78.48.47,1-.74,1.15-1,2.59-2.13,3.64-2.44-2.18-5.4-3.38-8.32-4.65.92-1.72.75-2.74-.47-3.3a2,2,0,0,0-1.42-.08c-.94.23-1.08,1.1-1.27,1.93a10.18,10.18,0,0,0-2.06-1.17c-1.1-.3-1.19-1-1.14-1.92A8.09,8.09,0,0,0,52.46,25a3.27,3.27,0,0,0-1.06,2.2c-.43,1.77-.4,1.77-2.16,2.1-.12,0-.24.08-.35.1a5.91,5.91,0,0,1-3-.4c-.82-.25-.33-1.29-.62-1.94S45.06,25.53,44,25c0,1.27,0,2.28,0,3.3,0,.5,0,1-.58,1.18a18.88,18.88,0,0,0-2.55,1.36c-.59-1.72-1.5-2.32-2.7-1.82s-1.43,1.56-.56,3.37A28.92,28.92,0,0,0,29.32,37c-1-1-1.24-2.26-1.9-3.26-.54-.83-.18-1.15.54-1.49A14.11,14.11,0,0,0,33.12,28c2.44-3.17,4.93-6.29,7.53-9.33A7.36,7.36,0,0,0,41,9.59c-.33-.42-.62-1.06-1.21-1s-.54.85-.68,1.34c-.19.7-.35,1.41-.53,2.11a2.58,2.58,0,0,1-1.6,1.84,5.11,5.11,0,0,0-3.14,2.84c-.11.3-.36.51-.7.33s-.24-.39-.16-.63c.42-1.34-.12-2.2-1.53-2.66a3,3,0,0,0,.7-2.31,1,1,0,0,1,.9-1.18c1.81-.19,2.28-1.33,2.27-2.91a1.47,1.47,0,0,1,1.16-1.44,3.92,3.92,0,0,1,3,.07c.5.2.94.54,1.43.78.67.32,1,0,1-.7a2.7,2.7,0,0,0-.21-.88A7.52,7.52,0,0,0,35.38.08a18.48,18.48,0,0,0-6.45.75C23.58,2,21.13,7.28,20.82,11.47a3.76,3.76,0,0,1-.72,2.13,10.58,10.58,0,0,1-2.55,2.31A27.84,27.84,0,0,0,14.8,18a7,7,0,0,0-2.08,8.22c.32.91.8,1.77,1.11,2.68a4.11,4.11,0,0,1,.31,3,7.46,7.46,0,0,0,2.53,8.41,2.28,2.28,0,0,1,1.26,2.14,3.18,3.18,0,0,0,2,3,6.76,6.76,0,0,0,5.09.7c.89-.24,1.64-.38,1.94.82.15.59.7,1,1.11,1.42s.68.69.39,1.29a11.27,11.27,0,0,0-4.46.61,13.13,13.13,0,0,1-4.81.74c-1.64,0-3.28-.05-4.67,1.09a2.91,2.91,0,0,1-1.21.36,28.36,28.36,0,0,0-8,3.23,7.64,7.64,0,0,0-3.61,4.15C1.05,61.41.59,63,.11,64.67c-.14.47-.24,1,.34,1.25s.76-.24,1.05-.54a9.36,9.36,0,0,0,.73-.81,21.75,21.75,0,0,0,1.89-3.1A7.86,7.86,0,0,1,9.7,57.54c2.4-.51,4.82-.19,7.22-.48a19.09,19.09,0,0,0,3.84-.69,18,18,0,0,1,2.41-.81,3.34,3.34,0,0,1,3,.34c-1.9.6-3.63,1.14-5.35,1.71a7.61,7.61,0,0,0-3.39,2,48.48,48.48,0,0,1-3.69,3.76c-.31.28-.74.63-.68,1,.17,1.22-.77,1.67-1.45,2.32a6.06,6.06,0,0,0-2.07,4.66,32.45,32.45,0,0,0,.34,3.26,15.09,15.09,0,0,0,1,3.66c.14.34.27.74.7.73s.62-.48.71-.9c0-.17,0-.36.09-.53.37-1.84.76-3.68,1.11-5.52a6,6,0,0,1,3.11-4.65,13.31,13.31,0,0,0,3.67-2.59,13.38,13.38,0,0,1,4.58-3.19,20.24,20.24,0,0,1,3.76-1.79,24.25,24.25,0,0,1,3.57-1.12c-2.08,1.59-4.69,2.08-6.88,3.42a11.29,11.29,0,0,0-2.87,2.47,52.31,52.31,0,0,0-3,4.57c-.26.48-.71,1-.64,1.47.25,1.57-.57,2.93-.68,4.41a41.27,41.27,0,0,0,0,7.62,8.93,8.93,0,0,0,2.4,5.19c.21.23.44.45.76.34a.68.68,0,0,0,.4-.74,14.05,14.05,0,0,0-.05-1.45,39.26,39.26,0,0,1,.41-10.66,4.13,4.13,0,0,1,.95-2.5,13.58,13.58,0,0,0,1.8-2.49c1.23-1.87,2.45-3.75,4.51-4.85.05-.15.13-.32.29-.18s0,.27-.05.4c-.23,1.13-.7,2.18-1,3.28-1,3.27-.93,7,3.1,8.74a2.14,2.14,0,0,1,1,.75c1.78,2.74,4.6,3.56,7.59,4,.3,0,.63.08.77-.28s-.1-.56-.34-.76l-2.81-2.3A8.27,8.27,0,0,1,35,75.19a8.53,8.53,0,0,0-1-2.27c-1.66-2.56-1.2-4.22,1.53-5.54a4.75,4.75,0,0,0,2.22-1.81,5.4,5.4,0,0,1,2.3-1.7.89.89,0,0,1,1.27.19,4,4,0,0,0,3.5,1.13,36.2,36.2,0,0,1,7.06,0A4.13,4.13,0,0,0,55.49,64a.69.69,0,0,1,.94-.21c.84.47,1.84.73,2.38,1.6a5.87,5.87,0,0,0,2.65,2.12c2.31,1.09,2.8,2.89,1.51,5.06a6.65,6.65,0,0,0-1.09,1.87,9,9,0,0,1-3.61,5.25c-.81.64-1.59,1.31-2.38,2-.25.21-.41.47-.21.78a.58.58,0,0,0,.65.2c2.36-.34,4.78-.84,6.41-2.64a28.52,28.52,0,0,1,4.13-3.45,3.3,3.3,0,0,0,1.46-2.2,10,10,0,0,0-.53-6,3.58,3.58,0,0,1-.47-2.7,9.83,9.83,0,0,1,3,2.77,47.28,47.28,0,0,0,2.79,4,5.61,5.61,0,0,1,1.41,3.05C75,79,75.49,82.51,75,86.1a14,14,0,0,0,0,1.45.66.66,0,0,0,.43.72c.32.1.54-.14.75-.38a9,9,0,0,0,2.38-5.2c.23-2,.12-4,.16-6s-1-4-.78-6a.9.9,0,0,0-.16-.51c-1.58-2.64-2.86-5.5-5.47-7.38-.27-.2-.67-.37-.32-.82.25-.16.48,0,.68.07a14.38,14.38,0,0,1,4,3.06,7.26,7.26,0,0,0,2.58,2c2.46.89,3.51,2.8,4,5.17.41,2,.78,3.91,1.17,5.87.09.42.15.9.67,1s.64-.45.8-.84A23.15,23.15,0,0,0,87,72.93a6.57,6.57,0,0,0-2.56-6.73c-.37-.29-.79-.56-.73-1.16a2.2,2.2,0,0,0-1-1.85,23.1,23.1,0,0,1-2.58-2.56,8.65,8.65,0,0,0-4.4-3.06c-1.61-.52-3.23-1-4.84-1.52-.52.1-.85-.34-1.3-.53h1.63c1.58-.42,3,.22,4.4.74a7.83,7.83,0,0,0,3,.85c2-.1,4,.17,5.93.18,3.77,0,6.84,1.36,8.52,5a9.73,9.73,0,0,0,2.18,3.11c.29.28.58.71,1.07.45S96.7,65.18,96.59,64.77ZM5.5,58c-1.91,1.42-2.61,3.69-3.89,5.56a12.21,12.21,0,0,1,1.92-5A3.53,3.53,0,0,1,5,57.24c.26-.11.45.08.59.28A.31.31,0,0,1,5.5,58Zm9-1.9A17.62,17.62,0,0,0,7.41,57c-.34.13-.69.31-.89-.19s.08-.67.42-.85a36.27,36.27,0,0,1,6.82-2.89,1.06,1.06,0,0,1,1.13.3,4.41,4.41,0,0,1,1.47,2.69C15.62,56.08,15.08,56.09,14.54,56.08Zm7.22-1.35c-1,.34-1.93.68-2.9,1-.69.21-1.27.18-1.52-.72a5.06,5.06,0,0,0-1.61-2.29A3.44,3.44,0,0,1,18,52.14c1.14,0,2.29,0,3.42-.08.9-.1,1.14.29,1.3,1C23,54.3,23,54.3,21.76,54.73ZM11.45,76.56a21.89,21.89,0,0,1-.61-6c.06-1.8,1.27-3,2.5-4.05.58-.49,1,.29,1.73.66C11.82,69.68,12.55,73.44,11.45,76.56Zm12.79-16a22.24,22.24,0,0,0-6,4.55c-1.36,1.32-2.5,1.33-3.66.37-.4-.33-.55-.69-.07-1a32.05,32.05,0,0,0,4.19-4.21,9.49,9.49,0,0,1,3.77-2.07c1.39-.5,2.35.15,2.37,1.56C24.88,60.22,24.58,60.41,24.24,60.57Zm59.81,6.6A5.49,5.49,0,0,1,85.84,72c-.18,1.49-.28,3-.43,4.6a1.36,1.36,0,0,1-.63-1.21c-.16-1.19-.29-2.38-.5-3.56a7.25,7.25,0,0,0-2.51-4.64C83.08,66.17,83,66.21,84.05,67.17ZM72.08,59c.46-1.09.71-1.26,1.74-.91a9.83,9.83,0,0,1,5.34,3.51,13,13,0,0,0,2.71,2.64c.27.22.59.42.6.81-.11.66-1.92,1.4-2.65,1.06a5.59,5.59,0,0,1-1.75-1.26,17.13,17.13,0,0,0-5.45-4.11C71.69,60.27,71.78,59.69,72.08,59ZM81.53,34a7.75,7.75,0,0,1-1.7,4.88c-.48.55-.94,1.11-1.41,1.67-2.54-2.21-5.72-3.73-6.93-7.32.89,0,1.88.12,2.87.15.81,0,1,.45.94,1.18,0,.47,0,1,0,1.55,1.27-.56.72-2.06,1.56-3,.59,1.28-.19,2.24-.25,3.26l.33.33a4.71,4.71,0,0,0,1.33-2.91,2.06,2.06,0,0,1,2.28-1.47C81.54,32.48,81.56,33.31,81.53,34ZM63.43,9c-.55-.1-.76-.48-.88-1C61.89,5.26,60.74,4.47,58,4.73a2.57,2.57,0,0,1-1.38,0,5.8,5.8,0,0,1,3.9-3.42A5.29,5.29,0,0,1,62.09,1c4.33.19,8.43.92,11.13,4.86a11.69,11.69,0,0,1,1.6,5.33c.06.5-.23.79-.78.7a15.25,15.25,0,0,1-2.66-.52c-2-.68-2.19-.58-3.51,1.21a1.12,1.12,0,0,1-1.25.5,1,1,0,0,1-.85-1A2.54,2.54,0,0,0,63.43,9Zm2.4,6.07c.61-.36,1-1.05,1.83-1.07a1.21,1.21,0,0,0,1.14-.79c.35-1.1,1.07-1,1.85-.64a13.45,13.45,0,0,0,2.65.72,4.62,4.62,0,0,0-1.38,1.6c-.58,1.54-2.08,2.09-3.22,3a5.1,5.1,0,0,1-3.3-.12C64.9,17.39,65.12,15.49,65.83,15.08Zm-2.06,2.16s.08,0,.13.07,0,.09,0,.12-.18.07-.25-.08S63.72,17.26,63.77,17.24Zm-4.88,2.22c-.46-.64-1-1.19-1.51-1.81a6.78,6.78,0,0,1-1-7,2.25,2.25,0,0,1,.6,1.36,3.78,3.78,0,0,0,2.5,3.08,3.14,3.14,0,0,1,2.11,2.09c.29,1,1.33,1.14,2,1.66-.17.66-.68.7-1.15.81s-1.06,0-1.4.28C60.07,20.74,59.49,20.3,58.89,19.46Zm7.92,9.59c-2.31-2.26-4-5-6.11-7.47A2.88,2.88,0,0,1,62.52,21c.47-.08,1.12,0,1.38-.33,1.11-1.25,2.48-.87,3.88-1a5.78,5.78,0,0,0,4.9-3.5,3.89,3.89,0,0,1,2.46-2.52,10.48,10.48,0,0,0,3.78,4c.74.52,1.42,1.13,2.11,1.72,2,1.64,2.29,3.74,1.64,6.08-.43,1.57-1.32,3-1.48,4.65a.71.71,0,0,1-.66.71c-1.54.29-3,.73-4.6,1A10,10,0,0,1,66.81,29.05Zm1.68,8.32A15.14,15.14,0,0,0,70.39,35c.21.18.4.26.46.41a12.37,12.37,0,0,0,2.5,3.75c.42.39.34,1.28,1.34,1,.27-.09.46.32.26.66s-.85.45-1,1a1.43,1.43,0,0,0,1.15-.36c.46-.29.9-.7,1.38,0a1.52,1.52,0,0,1,.2,2,3.48,3.48,0,0,1-2,1.17,13.39,13.39,0,0,1-4.51,0c-1-.08-1.43-.76-1.53-1.82-.15-1.49.24-3-.41-4.48A.69.69,0,0,1,68.49,37.37ZM68.54,45c.35.8-.21,1.31-.62,1.8s-.9.87-1.36,1.31A3.47,3.47,0,0,1,68.54,45ZM57.71,30c.5.05.76.28.82.68s-.24.64-.63.69-.67-.24-.72-.62A.68.68,0,0,1,57.71,30Zm-19.57.68a.73.73,0,0,1,.71-.67c.44.06.69.31.64.74s-.26.68-.72.62S38.07,31.14,38.14,30.68ZM35.37,16.52a1.94,1.94,0,0,1,1.34-1.15,4.4,4.4,0,0,0,3.07-3.9,5,5,0,0,1,.34-.88A6.26,6.26,0,0,1,40.28,16c-.66,1.68-2.06,2.83-3.13,4.21-.15.21-.44.4-.61.26-.94-.83-2.24-.49-3.24-1.07-.09-.06-.13-.19-.37-.52A3.5,3.5,0,0,0,35.37,16.52Zm-2.49.7s.08.07.13.11l-.07.12-.19-.12S32.83,17.22,32.88,17.22Zm-1.38-.14c0,.29,0,.72-.33.75-.94.1-1.89.81-2.8.26-1.26-.77-2.67-1.39-3.4-2.82a4,4,0,0,0-1.77-1.93,15.87,15.87,0,0,0,3.1-.85c.6-.26,1.15-.28,1.44.52s.89.87,1.54,1.1C31.05,14.73,31.67,15.61,31.5,17.08Zm-9.65-6C22.27,6.9,24,3.52,28.65,2A29.53,29.53,0,0,1,32.7,1,6.41,6.41,0,0,1,40,4.71c-.82,0-1.64,0-2.46,0-2.22.18-3.38,1.17-3.38,3A1.27,1.27,0,0,1,33,9.1a2.3,2.3,0,0,0-2.06,2.71A1.13,1.13,0,0,1,30,13.14c-.58.1-1-.23-1.28-.79-.72-1.33-1.39-1.58-3-1.09a16.42,16.42,0,0,1-3,.66C22.05,12,21.79,11.71,21.85,11.11Zm-8.12,12a5,5,0,0,1,1.67-3.5c.65-.55,1.25-1.16,1.94-1.64a11.25,11.25,0,0,0,4.2-4.35,4,4,0,0,1,2.4,2.42,5.85,5.85,0,0,0,6.4,3.47c.44-.08.88-.17,1.17.21.93,1.19,2.24,1.31,3.59,1.38a.73.73,0,0,1,.64.33c.13.47-.26.75-.51,1.05C33.47,24.65,31.94,27,30,29c-3.09,3.12-6.71,3.5-10.69,2.61A15.58,15.58,0,0,1,16,30.73c-1.07-.51-.6-2.06-1.12-3.08A8.15,8.15,0,0,1,13.73,23.13Zm4.59,17.38a8.66,8.66,0,0,1-3.17-6.12c-.08-1.33.22-2,1-2A2.09,2.09,0,0,1,18.43,34a4.57,4.57,0,0,0,1.31,2.73h0c.14.13.24.46.48.24s.07-.42-.15-.57c-.06-1-.84-2-.24-3.27.8,1,.32,2.34,1.28,2.9.25,0,.32,0,.32-.19,0-2.45,0-2.45,2.51-2.57.42,0,.84,0,1.28,0C24,36.69,20.92,38.31,18.32,40.51Zm8.18,4a13.93,13.93,0,0,1-4.51,0,3.78,3.78,0,0,1-1.9-1,1.62,1.62,0,0,1,.31-2.39c.31-.22.53-.1.81.06s.86.43,1.3.64c0,0,.09,0,.15-.06,0-.39-.32-.43-.52-.61s-.68-.43-.45-.86a.61.61,0,0,1,.8-.21c.45.17.66.07.56-.48-.05-.24.16-.43.35-.59a9.37,9.37,0,0,0,2.31-3.44.71.71,0,0,1,.64-.5,14.22,14.22,0,0,0,1.81,2.31.77.77,0,0,1,.2,1c-.61,1.39-.21,2.87-.36,4.3C27.89,43.67,27.51,44.4,26.5,44.47Zm1.57.54a3.35,3.35,0,0,1,2.05,3.1c-.42-.38-.85-.76-1.24-1.17A2,2,0,0,1,28.07,45ZM25.3,54c-.86,0-1.15-.51-1.37-1.91-.13-.84.5-.86,1-1A11.84,11.84,0,0,1,27,50.67c1.09-.13,2.11-.15,2.86,1A7.28,7.28,0,0,0,31.67,53,19.82,19.82,0,0,1,25.3,54Zm4.94,4c-1.28.51-2.58,1-3.92,1.49l-1.15-2c2.64-.92,5.19-1.51,7.56-2.59.75-.35.93.12,1.23.6s.13.92-.37,1.14C32.48,57.08,31.37,57.55,30.24,58Zm.81,3a13.42,13.42,0,0,0,4.44-3.32.87.87,0,0,1,1.25-.26,1.93,1.93,0,0,1,.88,1.27,1.77,1.77,0,0,1-.15.36c-1.3,1.58-2.61,3.17-4.76,3.63a3,3,0,0,1-2-1.18C30.6,61.2,30.86,61.09,31.05,61ZM21.3,73.81c-.9,3.49-.65,7.06-.68,10.6V85.6c-1.22-1.63-1.11-3.42-1.24-5.1a37.27,37.27,0,0,1,0-6.68c.1-.9.51-1.09,1.33-.86C21.24,73.09,21.44,73.25,21.3,73.81Zm2.09-3.07c-.73,1.43-1.59,1.68-2.94,1.07-.52-.23-.79-.56-.47-1.12,1.86-3.33,3.61-6.74,7.5-8.25,1.66-.65,1.74-.69,3.05.83A16.2,16.2,0,0,0,23.39,70.74Zm13.71,9.4.21.2C37.08,80.4,37,80.32,37.1,80.14ZM33.79,76.9c.43-.32.63.13.81.39a31.31,31.31,0,0,0,2.46,2.81c-1.45-.13-2.4-1.12-3.4-2C33.16,77.68,33.35,77.21,33.79,76.9Zm-1.67-.16A6.11,6.11,0,0,1,29.86,75c-.58-.66-.59-1.79-.13-2.12a2.06,2.06,0,0,1,2.67.34l.2.3C33.82,75.25,33.82,75.25,32.12,76.74Zm-.64-5.15-1.93.17a1.76,1.76,0,0,1,0-1.57,38.46,38.46,0,0,0,1.27-3.75c.43-1.36.8-1.51,2.12-1a2.41,2.41,0,0,1,1.15.83C32.26,67.64,31.14,69.24,31.48,71.59Zm4.16-6.1a13.9,13.9,0,0,0-2.39-1.24c1.52-1,3.1-1.71,4.53-2.68.91-.61,1,.42,1.68.8A7.27,7.27,0,0,0,35.64,65.49Zm4.83-4c-.58-.13-.74-.64-.86-1.15s-.26-1.31-.37-2a3.19,3.19,0,0,0-2.08-2.55A3.53,3.53,0,0,1,35,53.74a3.88,3.88,0,0,0-2.4-2.33,3.38,3.38,0,0,1-2.43-3.18,9.46,9.46,0,0,0,4.11,3.34,5.8,5.8,0,0,1,2.53,2,6.76,6.76,0,0,0,2,1.85A3.06,3.06,0,0,1,40.32,58C40.39,59.1,41.41,60.2,40.47,61.47Zm13.92-5.66a1.81,1.81,0,0,0-1.53.41c.57.9,1.62.37,2.41.82a6.38,6.38,0,0,1-2.49,4.23c0,.21-.19.48.16.61.5.18.91-.28,1.39-.19-.18,1.48-.38,1.63-2.38,1.65l.15-2.11-.3-.57c-.61.92-.29,2.3-1.52,2.83-.5-.84.75-1.73-.24-2.6-.17.47-.31.89-.48,1.29s-.33.67-1.1.37c-1.26-.49-1.35-.25-1.79-1.66-1,.78.09,1.66-.17,2.42-1-.41-1-.41-1.5-2.6-.3,0-.33.32-.43.52,0,.65.11,1.31.17,2-1.74.29-2,.18-2.52-1.38.47-.39.87.19,1.33.11s.36-.36.34-.65A6.83,6.83,0,0,1,41.35,57c.87-.37,1.82-.06,2.53-.71a2.18,2.18,0,0,0-2-.54,2.82,2.82,0,0,1-2.37-1.08c0-.05-.09-.08-.12-.13A15.48,15.48,0,0,0,33,49.15a3.36,3.36,0,0,1-1.44-1.6c-.7-1.24-.67-1.41.45-2.38a4.73,4.73,0,0,0,1.6-2.06,4.77,4.77,0,0,0-2.49,1c-1.27.68-2,.39-2.06-1a11.86,11.86,0,0,1,.39-3.91c.46-1.46,2-2.05,3.18-2.83.4-.26.62.19.82.45a11,11,0,0,0,2.07,2.44,10,10,0,0,0-1.36-2.93c-.14-.25-.38-.53,0-.78s.65-.11.9.24a31.24,31.24,0,0,0,2.32,3c-.11-1.55-1.4-2.54-1.89-4l2.81-1.55c.62.38.55,1.15,1.23,1.61l.13-1.61c-.28-.31-.52-.63-.22-1.07a1.17,1.17,0,0,1,.49,1.07c.18.38.33.86.88.72a.65.65,0,0,0,.41-.89c-.43-1.07.31-1.38,1-1.71.49-.23,1-.44,1.51-.67.4.73,0,1.36,0,2a.58.58,0,0,0,.36.57.54.54,0,0,0,.63-.22,3.38,3.38,0,0,0,.67-1.67c.1-.77.42-1.1,1.19-.89a6.54,6.54,0,0,0,3.59,0c.66-.17,1,.07,1.11.78A3.57,3.57,0,0,0,52,33.08a.45.45,0,0,0,.64.13.71.71,0,0,0,.27-.43c.08-.65-.28-1.29-.09-2a5,5,0,0,1,2,.79c.53.25.94.5.69,1.23-.15.45-.2,1,.44,1.17s.61-.62,1-1c.44.53-.11,1.24.32,1.76.65-.3.51-1.12,1.16-1.49l2.82,1.54c-.52,1.43-1.73,2.45-1.77,4,.73-1,1.47-2,2.19-3,.25-.35.53-.53.9-.24s.09.54-.06.79A6.15,6.15,0,0,0,61.38,39a7.19,7.19,0,0,0,2.1-2.87,13.69,13.69,0,0,1,3.17,2.21,1.55,1.55,0,0,1,.24.27,12,12,0,0,1,.54,5.25c-.36.78-.73.9-1.59.48a7.31,7.31,0,0,0-2.73-1.23,4.14,4.14,0,0,0,1.67,2.21c1,.81,1,1,.41,2.12a5.34,5.34,0,0,1-2.78,2.5,7.85,7.85,0,0,0-3.95,3.32,8.14,8.14,0,0,1-1,1.1A3.47,3.47,0,0,1,54.39,55.81Zm1.83,5.76a2.52,2.52,0,0,1-.16-2.47,3.63,3.63,0,0,0,.29-1.22,2.91,2.91,0,0,1,1.43-2.39.71.71,0,0,0,.14-.1,24.91,24.91,0,0,1,6.67-5.13c.85-.4,1.3-1.32,1.92-2a3.41,3.41,0,0,1-2.42,3.17,4.09,4.09,0,0,0-2.5,2.46,3.05,3.05,0,0,1-1.87,1.83A3.59,3.59,0,0,0,57.32,59,3.11,3.11,0,0,1,56.22,61.57Zm7.14-1.91c.85.56,1.73,1.07,2.75,1.7-1.77,1.65-2.43,1.69-4.33.34a14.85,14.85,0,0,1-2.4-2.42c-.64-.71-.17-1.22.33-1.68a.87.87,0,0,1,1.4,0A11,11,0,0,0,63.36,59.66Zm-2.17,5.86a20.17,20.17,0,0,0-1.74-1.9,13.91,13.91,0,0,0-1.85-1.14c.64-1.28.63-1.27,1.66-.68,1.35.78,2.73,1.53,4.38,2.46A6.26,6.26,0,0,0,61.19,65.52ZM59.53,80.36c-.3-.13,0-.15,0-.22C59.64,80.25,59.59,80.39,59.53,80.36ZM63,78.1c-1,.87-2,1.86-3.4,2a31.07,31.07,0,0,0,2.45-2.8c.18-.27.39-.71.81-.39S63.51,77.68,63,78.1Zm3.6-2.85c-.31.29-.63.56-1,.82a1.48,1.48,0,0,1-2.5-.66s-.08-.1-.09-.15c-.13-.62,1.79-2.76,2.5-2.72.55.12,1.39,0,1.62.72A1.93,1.93,0,0,1,66.62,75.25Zm.49-3.53-1.89-.1c.33-2.33-.79-4-2.68-5.32a3.42,3.42,0,0,1,1.73-1,1,1,0,0,1,1.41.71c.51,1.54,1,3.07,1.52,4.62A1.23,1.23,0,0,1,67.11,71.72ZM67,65.42s.08-.09.12-.09.07.07.1.11l-.06.11Zm10.31,8.8a37.69,37.69,0,0,1-.34,9.37,2.93,2.93,0,0,1-.88,1.9c0-4.1.24-8.2-.76-12.2C77.17,72.49,77.17,72.8,77.28,74.22Zm-2.82-7.3c.67,1.22,1.43,2.38,2.15,3.58.4.67.21,1.1-.53,1.37-1.38.5-2,.29-2.79-1.1a16.86,16.86,0,0,0-4.83-6,18.81,18.81,0,0,0-2.41-1.5c1.57-1.49,1.58-1.51,3.1-.8A10.87,10.87,0,0,1,74.46,66.92ZM71.73,62a30.92,30.92,0,0,1-7.51-3.32C67.65,59.48,70.83,60.91,71.73,62Zm-.23-4.54-1.16,2.07c-2.34-.92-4.65-1.8-6.93-2.75-1-.43-1.08-.78-.53-1.63.3-.46.59-.48,1-.28C66.32,55.91,68.86,56.52,71.5,57.44Zm.93-4.22a.94.94,0,0,1-1.12.83,23.85,23.85,0,0,1-6.5-1,7.39,7.39,0,0,0,2.65-2c.24-.36.61-.33,1-.32a9.82,9.82,0,0,1,2.69.29C73,51.47,72.93,51.42,72.43,53.22Zm4.86,2.32c-.75-.24-1.49-.5-2.23-.76-1.26-.43-1.58-1.31-.87-2.4.09-.14.27-.31.39-.3,2,.14,4.09-.13,6.45.34a14.1,14.1,0,0,0-1.58,2.22C78.8,56,78.78,56,77.29,55.54Zm12.84,1.35c-.17.36-.46.3-.76.18a18.47,18.47,0,0,0-7.84-1c-.35,0-.7,0-1.13-.06A3.76,3.76,0,0,1,82,53.24a.82.82,0,0,1,.83-.19,36.13,36.13,0,0,1,7,3C90.14,56.21,90.33,56.47,90.13,56.89Zm4.2,5.61a12,12,0,0,0-3.06-4.42c-.2-.15-.34-.36-.17-.6a.51.51,0,0,1,.78-.15,5.82,5.82,0,0,1,1.07,1A9,9,0,0,1,94.88,63C94.5,63.07,94.44,62.72,94.33,62.5Zm.63,1a.39.39,0,0,1-.06-.44.28.28,0,0,1,.25.34C95.14,63.55,95,63.59,95,63.51Z"/><path d="M61.19,48.93c.63-.35,1.32-.61,1.93-1s1.14-.79.81-1.74a6.37,6.37,0,0,1-2.53,1.91,11.31,11.31,0,0,0-2.23,1.53c.14.13.27.27.4.41A4.22,4.22,0,0,1,61.19,48.93Z"/><path d="M32.83,46.22c-.52.33-.31.61-.18.85a3.55,3.55,0,0,0,1.69,1.32,8.11,8.11,0,0,1,2.76,1.66l.39-.41C36.11,48.22,34,47.87,32.83,46.22Z"/><path d="M30.75,41.29c0-.74.68-1.39.26-2.45A2.22,2.22,0,0,0,30.75,41.29Z"/><path d="M65.56,38.94a4.8,4.8,0,0,0,.46,2.7C66.29,40.49,66.34,39.71,65.56,38.94Z"/><path d="M17,28.49a.66.66,0,0,0,.53-.58c.32-1.26-.33-2.21-.93-3.21-1.07-1.79-.84-2.68.94-3.69A6.63,6.63,0,0,0,20.69,18l0,0,0,0c.17-.06.3-.14.18-.35,0,0-.12,0-.15,0s-.2.21-.08.31c-.08-.05-.16-.1-.17-.08A26.22,26.22,0,0,1,16.26,21a2.79,2.79,0,0,0-1.1,3.21,6.33,6.33,0,0,0,1,2.1C16.61,27,16.45,27.87,17,28.49Z"/><path d="M30,25.31c-2.05,1.92-4,3.74-6.92,4.36C25.57,30.91,29.38,28.38,30,25.31Z"/><path d="M66.59,25.45c1.44,3.42,4.46,5.37,6.77,4.39-1-1-2.5-.87-3.51-1.74A16.38,16.38,0,0,0,66.59,25.45Z"/><path d="M76,18l0,0h0l0,0A6.63,6.63,0,0,0,79.17,21c1.78,1,2,1.89,1,3.69a9.52,9.52,0,0,0-.86,1.6,2.06,2.06,0,0,0,.56,2.42A10.53,10.53,0,0,1,81.2,25,3,3,0,0,0,80.41,21a28,28,0,0,1-4.2-3.13s-.1,0-.18.09c.12-.1,0-.21-.08-.31s-.14,0-.15,0C75.68,17.81,75.81,17.89,76,18Z"/><path d="M70.77,8.71l1.92,1c.22.12.44.2.61-.06a.59.59,0,0,0,0-.67C72.79,8.31,72.09,8.2,70.77,8.71Z"/><path d="M70.89,7.29l1.18.28c.33.08.77.33.9-.18s-.35-.59-.69-.64A1.09,1.09,0,0,0,70.89,7.29Z"/><path d="M70.83,6.3c.39-.13,1.17.25,1.1-.46-.05-.53-.76-.32-1.21-.29a.73.73,0,0,0-.73.63A.89.89,0,0,0,70.83,6.3Z"/><path d="M24,9.74c.52-.47,1.34-.47,1.82-1.06-1.17-.48-1.86-.39-2.36.31a.61.61,0,0,0-.07.67A.37.37,0,0,0,24,9.74Z"/><path d="M24.07,7.68,26,7.26A1.57,1.57,0,0,0,23.91,7c-.14.09-.31.22-.23.44S23.87,7.71,24.07,7.68Z"/><path d="M26.79,6.19a1.4,1.4,0,0,0-2.09-.33A2.07,2.07,0,0,0,26.79,6.19Z"/><path d="M24.42,41.15h0A.45.45,0,0,0,24,40.8c-.18-.26-.43-.71-.73-.36s.25.48.46.68h0l.39.29c.23.15.51.45.72.11C25,41.34,24.64,41.2,24.42,41.15Z"/><path d="M72.51,41.41h0l.39-.29c.21-.2.78-.32.46-.68s-.54.09-.73.36a.45.45,0,0,0-.38.35l-.73.37C71.88,41.79,72.2,41.64,72.51,41.41Z"/><path d="M71.59,41.64l-.07-.11h0l0,0Z"/><path d="M76.45,37c.24.22.34-.11.48-.24l-.33-.33C76.39,36.56,76.29,36.83,76.45,37Z"/><text class="cls-1" transform="translate(10.51 112.52)"><tspan class="cls-2">C</tspan><tspan x="14.85" y="0">an</tspan><tspan class="cls-3" x="41.71" y="0">c</tspan><tspan x="53.16" y="0">er</tspan></text></g></g></svg>