<svg xmlns="http://www.w3.org/2000/svg" viewBox="0 0 93.66 133.79"><defs><style>.cls-1{font-size:25.91px;font-family:MyriadPro-Regular, Myriad Pro;}.cls-2{letter-spacing:-0.01em;}.cls-3{letter-spacing:0em;}</style></defs><title>Asset 394</title><g id="Layer_2" data-name="Layer 2"><g id="Layer_1-2" data-name="Layer 1"><path d="M90.46,5.59A12,12,0,0,0,82,.24,22.64,22.64,0,0,0,77.25,0,25.78,25.78,0,0,0,61.69,5.62,45.21,45.21,0,0,0,47.21,26.48c-.09.27,0,.75-.55.7A43.79,43.79,0,0,0,38,11.56,35.37,35.37,0,0,0,29.36,3.8,27.6,27.6,0,0,0,12.89.08,11.8,11.8,0,0,0,4.17,4.29,23.19,23.19,0,0,0,.68,10.18a10.9,10.9,0,0,0-.43,6.24c.1.52.15,1.16.82,1.48.7-.55.62-1.41.76-2.15C3.59,7,10.65,3,19.09,5.93a24.58,24.58,0,0,1,8.8,5.51A34,34,0,0,1,37.2,27c.4,1.36.43,1.35-.88,2.08a.79.79,0,0,0-.29.18c-.59.69-1.16.65-1.89.14A8.55,8.55,0,0,0,30,28c-1.7-.15-3.43-.09-5-.94-.36-.2-.79,0-.63.45.61,1.43.63,3,1.21,4.46a5,5,0,0,0,3.73,3.2c.73.16,1.45.35,2.18.48a1.47,1.47,0,0,1,1.34,1.5,17.78,17.78,0,0,1,0,4.61,11.37,11.37,0,0,0,.33,5.09c.1.32.39.7.17,1-.89,1.13-.54,2.39-.42,3.69l-1.22,0c-1.38.07-2.18.6-2.34,1.56s.14,1.31,1.64,1.8c.76.25.9.61.69,1.25C30.85,58.47,30.56,61,29,63a8,8,0,0,0-.75,1.35,7.73,7.73,0,0,0,.86,8.4c.21.3.69.45.58,1-3.57,2.6-5,4.36-6,7.48a15.08,15.08,0,0,0-.25,8c1.12,5.25,3.75,9.6,8.71,11.87,7.35,3.38,14.65,3.24,21.47-1.61A12.54,12.54,0,0,0,58.31,85c-.12-.39-.45-.78-.06-1.31a6.79,6.79,0,0,1,2.12,2.22c3.84,5.72,3.7,9.93-.37,14.28a10.08,10.08,0,0,0-1,1.18c-.39.6-.18,1,.55,1,3.09-.22,6.23-.55,8.82-2.42,5.06-3.66,8-8.57,8-15C76.31,80,73.43,75,68,74c-.17,0-.46,0-.44-.33,0-.06.07-.12.12-.15.45-.25.92-.46,1.35-.74,5.05-3.35,8.19-7.72,7.75-14.11-.14-2-.54-4-.82-5.94a7.06,7.06,0,0,1,.53-4.34A7.24,7.24,0,0,0,77,44.19,5.66,5.66,0,0,0,69,39.66a11,11,0,0,0-2.55,1.72,21.36,21.36,0,0,1-3,2.33,4.09,4.09,0,0,1-2.48.88,11.85,11.85,0,0,0-.17-3.28,15.66,15.66,0,0,1,0-3.93c.17-1.37.26-1.49,1.6-1.83.61-.16,1.23-.27,1.85-.39a5,5,0,0,0,3.9-3.47c.49-1.35.54-2.8,1.1-4.13.23-.56-.25-.73-.69-.5a11.25,11.25,0,0,1-4.51.87,6.52,6.52,0,0,0-3.61,1,2.85,2.85,0,0,1-3.75,0c-.55-.36-.73-.56-.56-1.15A35.92,35.92,0,0,1,64.25,13,25.69,25.69,0,0,1,74.81,5.85C83.06,3.08,90,7,91.77,15.5a.86.86,0,0,0,0,.17c.23.73,0,2.1.76,2.06,1-.06.78-1.41,1-2.24a3.94,3.94,0,0,0,0-.69C94,11.26,92.32,8.39,90.46,5.59ZM1,15.23c-.6-1.23.19-2.18.05-3.2-.05-.37.49-.15.79-.25A13.84,13.84,0,0,0,1,15.23Zm35.49,6.65A32.78,32.78,0,0,0,23.89,7.1,19.52,19.52,0,0,0,14.9,4C9.93,3.68,6,5.39,3.13,9.58c-.13.19-.27.37-.41.56-.28.52-.56,1-.83,1.56-.66-1.15-.58-1.37.59-1.77a2.59,2.59,0,0,1-.23-.64c-.07-.77,1-.86,1-1.35,0-.83.1-1.31,1-1.38.33,0,.21-.2.21-.44,0-.83.25-1.43,1.28-1.1h0c.14.11.22.47.44.28s.06-.4-.19-.51a.74.74,0,0,1,.1-1c.47-.46.8-.08,1.18.09.06.14.14.3.31.17s0-.28,0-.41C7.15,3,7.48,2.7,8,2.46s.75-.22,1,.21.48.62.79,1c.36-.53.06-.89-.07-1.27s-.19-.56.22-.67.59-.14.77.15.39.76.57,1.11c.37-.06.43-.3.38-.51-.14-.62-.44-1.21.6-1.34.79-.1,1.35,0,1.5.87,0,.27.11.54.18.87.83-.45.31-1.18.52-1.71C16.37.94,16.37.94,16.75,3c.88-.33.23-1.28.7-1.76,1.62.07,1.62.07,2,2.46a3.23,3.23,0,0,0,.65-2c.05-.13.14-.15.28-.13,2.2.36,2.2.36,1.93,3.16,1-.45.84-1.56,1.3-2.27,2,.41,2.07.6.74,3,1.45,0,1.29-1.41,1.95-2,2.15.74,2.15.74,1.38,3.74.83-.57.83-.57,1.42-2.08a.6.6,0,0,1,.63.09c2.33,1.41,2.33,1.41.87,3.65-.14.06-.34.13-.2.32s.3,0,.44-.06c.74-.29,1-1.05,1.52-1.51.33-.17.48.07.63.21,1.55,1.35,1.45,2-.49,2.79-.34.15-.79.1-1,.51,1.43.36,1.59.3,3.57-1.11,2.07,1.71,2.06,1.85,0,3.39-.35.26-.89.31-1.05.9,1.55.19,2.3-1.06,3.31-1.8,2.08,2.11,2.05,1.87-.31,3.5-.32.22-.68.37-1.27.7,1.84.54,2.66-.65,3.66-1.44.08,0,.21,0,.26.11,1.43,1.89,1.42,2-.55,3.21-.57.37-1.16.68-1.85,1.08,1.52.15,2.05-.1,4-1.8a9.62,9.62,0,0,1,1.51,2.48c-1.17,1-2.64,1-4,1.41.45.71,1.12.55,1.69.49a4.36,4.36,0,0,0,2.09-.72c.53-.38.82-.19,1.05.33,0,.1.11.2.16.3.77,1.42.68,1.64-.88,2.14a13,13,0,0,1-1.5.35c-.5.09-1,.13-1.8.22,2,1.08,3.52.24,5-.51.13.13.23.2.26.29.88,2.23.8,1.9-1.43,2.38A4.91,4.91,0,0,1,41.09,27a3.69,3.69,0,0,0-1.86,0c2.15,1.18,4.17,1.48,6.25.44,1.38,2.38,1,2.28-1.14,2.81a8.32,8.32,0,0,1-3.41.09,2.77,2.77,0,0,1-2.62-2.69A19.57,19.57,0,0,0,36.51,21.88Zm-2.75,9a.41.41,0,0,1-.31-.31C33.63,30.63,33.88,30.58,33.76,30.91Zm-.37-.37-.46-.23C33.11,30.33,33.3,30.32,33.39,30.54ZM34,34.15a17.55,17.55,0,0,0-4.15-1.51,3.09,3.09,0,0,1-1.81-1.45C31.2,30.27,33.55,31.33,34,34.15ZM32.7,30.21c-.22-.07-.52,0-.62-.3C32.32,29.94,32.6,29.91,32.7,30.21ZM30.48,63a11,11,0,0,0,4.06,5.36,17.86,17.86,0,0,0,6.08,3.13c-.12.35.13.34.34.36-.17.38-.53.34-.85.33-3-.09-6-.27-8.79.91-.6.25-.8-.2-1-.6A8.26,8.26,0,0,1,30.48,63ZM57,92.37a10.38,10.38,0,0,1-3.36,5.08,18,18,0,0,1-11.87,4.11,22.76,22.76,0,0,1-6.62-1A14.8,14.8,0,0,1,24.85,88.7,13.58,13.58,0,0,1,25,81.91a12,12,0,0,1,10.3-8.39,27.35,27.35,0,0,1,6.33,0,40.77,40.77,0,0,0,8.9.3c1-.1,1.36.24,1.48,1.16s-.3,1.83-1.17,1.91c-1.54.13-3.08.22-4.63.27a32.85,32.85,0,0,0-4.43.4,11.1,11.1,0,0,0-5.38,2.51,5.44,5.44,0,0,0-2.11,4,2.52,2.52,0,0,0,1.77,2.81,4,4,0,0,0,4.33-.68,6,6,0,0,0,2.34-5.43c-.19-2.2-.14-2.24,2-2.4a40.82,40.82,0,0,0,6.14-.62c.4-.09.64,0,.78.41a5.37,5.37,0,0,0,3.75,3.47,1,1,0,0,1,.73.64C57.19,85.59,58.09,88.89,57,92.37ZM74,52.93a4.28,4.28,0,0,1-1.2,2.46A20.88,20.88,0,0,1,66,60.8c-1.43.72-2.88,1.38-4.34,2.05a27.88,27.88,0,0,0-4.34,2.41,12.19,12.19,0,0,0-4.76,6.32c-.13.4-.11.89-.52,1.26a13.11,13.11,0,0,1,2.57-9.22,9,9,0,0,1,3.25-2.75,22.6,22.6,0,0,1,3.65-1.46C65.91,58,70.27,56.4,74,52.93Zm-5.43,1.83.24-.13c.07.1.06.18,0,.21S68.63,54.79,68.56,54.76Zm-.07,9.8A39.79,39.79,0,0,1,62,68.77q-3.68,1.85-7.37,3.66a2.19,2.19,0,0,1-1.29.42c0,.15-.12.21-.21.12s0-.2.07-.28A9.7,9.7,0,0,1,57.62,66a25.57,25.57,0,0,1,4.53-2.42c1.51-.69,3-1.35,4.51-2.1A17.51,17.51,0,0,0,73,56.33c.21-.27.43-.53.66-.79,0,0,.1,0,.24-.08a2,2,0,0,1-.14,1.25A15.1,15.1,0,0,1,68.49,64.56Zm5.25-5.34c-1.31,9-11,17.21-20.76,15,.24-.55.8-.57,1.23-.79,3.16-1.6,6.33-3.17,9.49-4.78a32.86,32.86,0,0,0,4-2.56A17,17,0,0,0,73.74,59.22ZM41.91,80.74A5.88,5.88,0,0,1,40,85.12a3,3,0,0,1-3.14.78,1.62,1.62,0,0,1-1.26-2.33,5.8,5.8,0,0,1,2.75-3.34,10.22,10.22,0,0,1,2-1C41.77,78.75,42,78.88,41.91,80.74ZM63.12,98.17S63,98.08,63,98s.07-.08.11-.12l.11.13ZM64,91c-1.37-5-4.11-8.87-9.1-10.85a3.7,3.7,0,0,1-2.52-3.56c1.08,2.53,3.09,3.4,5.23,4.08a18.44,18.44,0,0,1,3.91,1.72,8.54,8.54,0,0,1,4.27,9.47,16.46,16.46,0,0,1-2.19,5.75c-.4-.3-.17-.52-.1-.74l.23-.65A8.47,8.47,0,0,0,64,91Zm.71,6.34a16.09,16.09,0,0,0,2-7.35c0-3.35-1.18-6.09-4.16-7.94A18.46,18.46,0,0,0,58,79.83,18.3,18.3,0,0,1,55.73,79a4.3,4.3,0,0,1-2.26-2.21,13.09,13.09,0,0,0,5,.49,14.67,14.67,0,0,1,4.76.37c4,.92,8.62,4.35,8,10.21A13.12,13.12,0,0,1,69.07,94a16.43,16.43,0,0,1-4.74,4.62h0C64,98,64.53,97.69,64.72,97.31Zm-.39,1.26-.21.18c0-.07,0-.17,0-.21S64.27,98.49,64.33,98.57Zm10.61-14.4C75.37,90.45,72.5,95.29,67.6,99a7.3,7.3,0,0,1-4,1.55,20.15,20.15,0,0,1,2.93-2.4,14.66,14.66,0,0,0,5.24-7.84,11.64,11.64,0,0,0,.33-5.25c-.83-4-3.41-6.5-7.17-7.79A15.72,15.72,0,0,0,59,76.51c-1,0-2.06.06-3.08,0a3.36,3.36,0,0,1-2.64-1.25c1.65.1,3,.28,4.26.29a57.71,57.71,0,0,0,6.83-.42C70.48,74.45,74.55,78.39,74.94,84.17ZM63.42,74.06C70,70.28,74.28,64.9,75.2,56.8,77.35,64,71.27,72,63.42,74.06ZM68.51,41a4.77,4.77,0,0,1,7.61,3.8c0,1.86,0,3.77-1.81,5a10.65,10.65,0,0,0,0-1.13.82.82,0,0,0-.89-.84,1.24,1.24,0,0,0-1.19.82,1,1,0,0,0,.35,1.21,1.67,1.67,0,0,0,1.3.24c.08-.18.2-.3.41-.25a.48.48,0,0,1-.18.5,15.88,15.88,0,0,1-4.71,4.23.6.6,0,0,1-.58.07c.55-.71,1.16-1.39,1.64-2.15a5.93,5.93,0,0,0,.44-6,4.14,4.14,0,0,0-4.57-2.57,2.2,2.2,0,0,1-1.23-.13C66.23,42.82,67.3,41.8,68.51,41Zm5,8s-.07.07-.1.11a1,1,0,0,1-.11-.23s.07-.07.11-.11A2.29,2.29,0,0,1,73.53,49Zm-11.67-3.6a1.48,1.48,0,0,1,.25.05c-.14.13-.18.18-.22.19-.25.06-.47.3-.75.12-.06,0,0-.19-.08-.28Zm-.29-15.5c-.11.31-.41.23-.63.3C61,29.91,61.32,30,61.57,29.91ZM65.66,31A3.66,3.66,0,0,1,62.8,32.9a16.79,16.79,0,0,0-3,1.16C59.77,31.53,61.5,30.63,65.66,31Zm-4.95-.73-.45.23C60.34,30.33,60.53,30.33,60.71,30.31Zm-.52.29a.38.38,0,0,1-.31.31C59.78,30.6,60,30.63,60.19,30.6Zm-2.86-.38a3.5,3.5,0,0,1,.42.46A10.44,10.44,0,0,1,54,33.25c-2.39.87-3.19,3-4.55,4.79,1-.24,1-.22,1.47-.86a9.22,9.22,0,0,1,4.2-3.35c1.34-.49,2.31-1.82,3.58-2.59.39-.23.7-.5,1.16-.31a3.62,3.62,0,0,0-1,3c.12.6.43,1,1,.74,1.21-.58,2.53-.71,3.76-1.17,1.74-.65,2.76-2,3.65-3.88a20.47,20.47,0,0,1-5.7.3,3,3,0,0,1,2-.63,14.08,14.08,0,0,0,4.3-.53,8.09,8.09,0,0,1-1.26,3.79,3.21,3.21,0,0,1-2,1.48c-.87.27-1.76.48-2.63.78a3.14,3.14,0,0,0-2.29,2.7,15.36,15.36,0,0,0,0,4.44,11.24,11.24,0,0,1-.14,4.76,1.85,1.85,0,0,1-.69,1.21c-.64-.84-.29-1.86-.51-2.77-.6,0-.62.48-.63.84,0,.85,0,1.71,0,2.57a2,2,0,0,1-1.35,2c-.39-1-.12-2-.34-3-.87.78-.58,1.72-.62,2.55-.07,1.29-.14,2.54-1.49,3.33,1.12.15,1.41.06,1.86-.91a2.23,2.23,0,0,1,1.38-1.32,2.06,2.06,0,0,0,1.26-1.33c.23-.77.79-1.05,1.57-1.32a3.7,3.7,0,0,1-.5,3.22A9.73,9.73,0,0,1,57.46,54a36.76,36.76,0,0,0-3.84,3.65l.23.37c1.59-1.3,3.19-2.59,4.77-3.9a6.34,6.34,0,0,0,2-2.71,4,4,0,0,0,0-3.15c-.53-1.16-.31-1.47,1-1.57a5,5,0,0,0,1.62-.52c.78-.34,1.54-.76,2.35-1a3.29,3.29,0,0,1,4.45,2.28,5.14,5.14,0,0,1-.6,4.75,13.89,13.89,0,0,1-6.7,5.37,42.58,42.58,0,0,0-4.65,1.74,12.56,12.56,0,0,0-7.29,12.31,2.06,2.06,0,0,1-.09,1.24,66.61,66.61,0,0,1-8.45-.42c-.58,0-.8-.62-1.33-.64.06-.29-.16-.32-.37-.34h0a24.65,24.65,0,0,1-5.24-4.25c-.76-.77-1.5-1.56-2.21-2.38-1.7-2-1.85-4.18-1-6.72a4.38,4.38,0,0,0,2.32,1.44c-1,3.3.47,4.37,3,4,.36.3.21.74.33,1.11.41,1.35,1.24,1.88,2.58,1.43.73-.25.95-.11,1.25.56s1,1.1,2.18.8c-1-.71-1.8-1.29-1.62-2.52.06-.37-.4-.52-.77-.39s-.61.3-.92.43c-1.14.49-1.76.11-1.84-1.07,0-.58.62-1.27-.13-1.71-.54-.31-1.08.2-1.63.3-1.42.25-2.11-.49-1.73-1.85a5.11,5.11,0,0,1,.27-.64c.66-1.49.66-1.49-1-1.57-1.29-.06-1.84-.88-1.52-2.26.35-1.53.35-1.53-1.19-1.92a2.92,2.92,0,0,1-1.4-.59c-.32-.31-.14-.66.15-.87.45-.32.38.11.45.35.15.49.54.54,1,.47.6-.1.27-.43.19-.74s.2-.45.5-.43a2.18,2.18,0,0,1,1.47.77,59,59,0,0,0,4.81,4.12.57.57,0,0,0,.69.15c.09-.44-.3-.64-.55-.88-1.3-1.21-2.65-2.36-3.92-3.6a4.7,4.7,0,0,1-1.59-4.53c.76.23,1.31.48,1.58,1.23a3.36,3.36,0,0,0,2,1.76c.8.37.7,1.66,1.64,2a.74.74,0,0,0,.9-.1c-1.35-.84-1.42-2.19-1.46-3.58,0-.76.2-1.61-.64-2.38-.06,1.06-.12,2-.19,3.1a1.91,1.91,0,0,1-1.48-1.89c0-.69.08-1.37.06-2.06a1.72,1.72,0,0,0-.68-1.66A12.55,12.55,0,0,1,34.85,48a3.44,3.44,0,0,1-1-2.38,12.16,12.16,0,0,1,.08-3.76,13.53,13.53,0,0,0,0-4.26,3.23,3.23,0,0,0-2.53-2.89c-.5-.14-1-.32-1.49-.41a4.66,4.66,0,0,1-3.79-3.52,5.56,5.56,0,0,1-.34-2.07c1.56.7,3.17.36,4.73.61.52.08,1.13.07,1.51.57a25,25,0,0,1-5.72-.23c1.05,2,2.19,3.43,4.13,4a27.76,27.76,0,0,1,3.11.92c.81.33,1.12.09,1.25-.78a3.29,3.29,0,0,0-.54-2.28l-.46-.56c.41-.3.54,0,.69.34a1.76,1.76,0,0,1,1,.33c1.7,1,3.06,2.52,5,3.16.78.26,1.24,1.15,1.79,1.81a5.87,5.87,0,0,0,1.64,1.69c.43-.34.16-.63,0-.89-1.31-1.79-2.51-3.6-4.82-4.43A6.38,6.38,0,0,1,36,30.69c.26-.55.72-.69,1.09-.94a.72.72,0,0,1,1.06.11c2.29,2.62,5,1.88,7.73.91a2.13,2.13,0,0,1,2,0,8.68,8.68,0,0,0,4.69.77,4.16,4.16,0,0,0,2.59-1.19C56.14,29.38,56.16,29.39,57.33,30.22Zm34.42-18.5c-.28-.53-.55-1.06-.82-1.59L89.84,8.44a13.58,13.58,0,0,0-6.27-4,16.13,16.13,0,0,0-10.39.93,28.49,28.49,0,0,0-11.07,8.46A34.76,34.76,0,0,0,56.26,24a11.86,11.86,0,0,0-.91,3.65,2.49,2.49,0,0,1-2.06,2.43,8.23,8.23,0,0,1-6-.66,7.84,7.84,0,0,1,.75-2.18c2.12,1.16,4.16.81,6.41-.35a3.5,3.5,0,0,0-1.87,0,4.75,4.75,0,0,1-2,.1c-2.36-.43-2.71-.18-1.46-2.69,1.51.67,3,1.61,5.06.53a16.35,16.35,0,0,1-3.88-.81c-.75-.31-1-.7-.55-1.42a5.51,5.51,0,0,0,.4-.76c.26-.62.6-.69,1.18-.32a4.64,4.64,0,0,0,3,.68.78.78,0,0,0,.68-.5,20.79,20.79,0,0,1-3.29-.9c-.59-.27-.77-.59-.39-1.18a10.72,10.72,0,0,1,1.15-1.78c.57.44,1.11.91,1.71,1.3a2.93,2.93,0,0,0,2.14.64c-.06-.52-.52-.53-.8-.72-.67-.44-1.34-.88-2-1.33a.85.85,0,0,1-.17-1.43c.29-.35.53-.74.84-1.18,1.06.84,2,2,3.77,1.63-.81-.53-1.47-.93-2.09-1.37-1.25-.9-1.24-.92-.33-2.07.25-.31.52-.59.8-.9,1.06.77,1.82,2,3.5,1.82-.86-.69-1.59-1.3-2.35-1.88-.5-.39-.61-.77-.12-1.25s.79-.82,1.23-1.28c1.06.95,2.11,1.75,3.94,1.34-1-.6-1.8-.66-2.4-1.21-.78-.73-.82-.88-.08-1.61.32-.32.69-.6,1-.9.8.5,1.06,1.58,2.25,1.79a4,4,0,0,0-.9-1.36c-.72-1-.73-1.11.34-1.9a4.17,4.17,0,0,1,1.68-1c.6.63.43,1.86,1.65,2.28-.26-.83-.51-1.5-.67-2.2s1.27-1.91,1.9-1.64c.37.15.35.56.51.85.31.58.57,1.24,1.43,1.19.08-.48-.3-.64-.43-.92-.61-1.32-.75-2.08,1.2-2.14C70.58,4,70.58,4,71.35,4.63a.91.91,0,0,0,0-.32c-.47-2.38-.82-2.43,2.07-2.71.33.33.15.76.2,1.14a1.22,1.22,0,0,0,.52.94c.28-.46.12-1,.19-1.42s.13-.77.58-1c.84-.37,1.28-.15,1.44.81,0,.33,0,.69.47.86.46-.52-.07-1.41.56-1.79a2.28,2.28,0,0,1,1.67,0c.34.52-.31,1.29.45,1.69.55-.5,0-1.74,1.4-1.75,1.64,0,.82,1.3,1.23,2.07.61-.53.47-2,1.76-1.26.17.58-.54,1-.23,1.67.53,0,.64-.56.89-.88a.75.75,0,0,1,1-.22c.55.25.87.56.5,1.17h0c-.09.12-.19.28-.06.39s.25,0,.31-.16c.35-.1.58-.35,1.08-.22.77.19-.35,1.48.94,1.3.56-.08,1,.57.75,1.37-.13.38.28.15.44.23.86.41.92.61.51,1.71,1.27.22,1.4.42,1.07,1.68C92.35,10.34,92.43,10.55,91.75,11.72Zm1,3.18c-.31-1-.63-2.08-.94-3.13.37.12,1.08-.23.83.75C92.4,13.29,93.23,14.06,92.71,14.9ZM47.56,50.58c-.59.88-1,.65-1.53-.09-.33-.49-.81-.85-1.44-.46s-.9,1.22-.51,1.62c1,1,1,2.55,2,3.48a1.05,1.05,0,0,1,.29,1.06c-.07.58-.54.47-.92.5a1.81,1.81,0,0,0-1,.16c.61.87.64,1,1.38.88,1.12-.19,2.49.56,3.43-.71-.47-.5-1-.25-1.36-.34-.58-.11-1-1-.62-1.22,1.31-.75.74-2.53,2-3.31.61-.37.44-1.54-.09-2C48.52,49.55,48,50,47.56,50.58ZM45,51.75c-.18-.12-.31-.32-.11-.52a.76.76,0,0,1,.35.22,1.59,1.59,0,0,1,.16.4A1.17,1.17,0,0,1,45,51.75Zm.43.13c.18,0,.32.11.32.32C45.59,52.18,45.45,52.1,45.46,51.88Zm2,2.11c0,.4-.29.59-.67.59s-.71-.19-.66-.59a3.42,3.42,0,0,0-.35-1.76h2A3.54,3.54,0,0,0,47.49,54Zm.38-1.79c0-.2.13-.28.31-.32C48.19,52.1,48.05,52.17,47.87,52.2Zm.86-.55a.46.46,0,0,1-.52.2,1.32,1.32,0,0,1,.18-.4c.08-.11.29-.24.35-.21S48.83,51.52,48.73,51.65ZM36.22,39.49c-.3.19-.75.32-.6.87.62.19,1.2-.38,1.81-.06-.11,1.31.16,1.86,1,2.16a1.67,1.67,0,0,0,1,0c.85-.23.83-1.11,1.14-1.64.54.05.68.37.86.66,1.08,1.69.86,3.71,1.34,5.57.54-.29.55-.76.58-1.22a14.82,14.82,0,0,0-.61-4C42.14,39,38.37,38.1,36.22,39.49Zm2.72,2.11a.66.66,0,0,1-.65-.8c0-.36.08-.71.54-.69s.78.38.78,1A.58.58,0,0,1,38.94,41.6ZM50.88,47c.54-2.19.15-4.58,2-6.31.79,1.55,1.35,2,2.19,1.8s1.29-.88,1.19-2.22c.61-.3,1.2.32,1.81,0-.91-2.17-5.38-2-6.66.31a8.7,8.7,0,0,0-1.1,5.46A1,1,0,0,0,50.88,47Zm4-6.89c.44,0,.44.42.48.73,0,.5-.26.77-.74.75a.58.58,0,0,1-.6-.66A.76.76,0,0,1,54.9,40.12Zm-5.61-5.78A3,3,0,0,1,47.44,32c0-.35-.32-.44-.62-.44s-.58.11-.62.45a2.77,2.77,0,0,1-1.7,2.2c-.47.25-.61.6-.15.91a8,8,0,0,1,2.48,3.28,7.73,7.73,0,0,1,2.49-3.28A.44.44,0,0,0,49.29,34.34Zm-2.38,2.31c-1.41-1.73-1.41-1.73-.1-3.35l1.29,1.52Zm5.86,13.72c1,3.08.54,5.1-1.53,5.5C53.07,54.38,52,52.14,52.77,50.37ZM42.6,55.83c-1.19.4-1.58-.29-1.88-.9a3.6,3.6,0,0,1-.35-2c.09-.84.2-1.69.35-2.9C41.73,52.09,40.55,54.36,42.6,55.83Zm-7.41,1.22c.13.42-.33.68-.77.69a.85.85,0,0,1-1-.94A.72.72,0,0,1,34.1,56,1.21,1.21,0,0,1,35.19,57.05Zm2.38,4.07c0,.52-.37.76-.88.72a.84.84,0,0,1-.87-1c.08-.62.52-.83,1.1-.78S37.51,60.63,37.57,61.12ZM52.3,57.86c-.24-.37-.47-.93-1.21-.65.81,1.55,1.21,3.07.13,4.56-.86,1.17-1.78,2.29-2.67,3.44,0-1.19.79-2,1.29-3a3.09,3.09,0,0,0-.1-3.65h0c-.12-.09-.26-.2-.38-.07s0,.25.14.32c.47,1.91-.42,3.36-1.59,4.87-.3-.85.14-1.62-.23-2.5-.39,1.11-.23,2.22-1,3.26L46,61.17c-.54,1.17.25,2.18,0,3.41-.6-1.1-1.07-2.07-1.63-3s-.27-2.09-.32-3.15a3,3,0,0,0-.28,3.74c.5,1,1.32,1.82,1.28,3a27.91,27.91,0,0,1-2-2.5,4.16,4.16,0,0,1-.69-5.32s-.06-.18-.12-.34c-.56.09-.81.54-1.09.94s-.59.08-.88,0c-.11-.15-.17-.43-.42-.23s0,.33.12.47c.28.42.87.66.82,1.25-.18,1.87,1,3.1,2,4.36a14.37,14.37,0,0,1,3.21,5.39,1.2,1.2,0,0,0,.73.93,2.05,2.05,0,0,0,.74-1.24,5,5,0,0,1,.75-1.72,17.81,17.81,0,0,1,2.37-3.35c1.11-1.25,2.22-2.5,2.07-4.36,0-.6.52-.84.8-1.25h0l.26-.23-.23-.37a.44.44,0,0,0-.34.35C52.92,58.2,52.62,58.34,52.3,57.86Zm-7.06,7.81c0-.13-.08-.27-.11-.4.17,0,.22.08.23.23S45.28,65.61,45.24,65.67Zm2.48-1.22s-.15-.11-.15-.16a1,1,0,0,1,.09-.28l.17.16C47.79,64.27,47.75,64.36,47.72,64.45Zm.66,1.25s-.09-.09-.09-.14,0-.33.22-.29Zm6.43,25c-.85.9-1.54.85-2.07-.12-.23-.4.07-1.22-.69-1.17s-.4.85-.69,1.24a2.85,2.85,0,0,1-.16.3c-.25.35-.57.39-.84.07s-.64-.83.07-1.23a2.37,2.37,0,0,0,1-2.38.5.5,0,0,0-.28-.38c-.11,0-.32.07-.43.17a1.85,1.85,0,0,0-.27.43c-.78,1.26-1.38,1.28-2.2,0-.21-.32-.21-.83-.76-.75s-.41.5-.49.8c-.18.66-.47,1.2-1.24,1.21s-1.1-.47-1.43-1.06c-.19-.35-.11-1-.77-1-.33,1.55-.09,2.34,1.28,2.83,1.11.4,1.06,1.53,1.78,2.13.15.13-.05.42-.2.59a1.16,1.16,0,0,1-1.9,0c-.34-.39-.24-1-.69-1.31-.46,0-.49.46-.72.69-.87.86-1.44.75-1.84-.4-.11-.32-.08-.69-.54-.88a1.51,1.51,0,0,0-.08,2.1,1.36,1.36,0,0,0,1.78.62,1.41,1.41,0,0,1,1.81.25,1.5,1.5,0,0,0,1.77.19c.69-.44,1-.2,1.62.23,1.13.86,2,.66,2.67-.56a3.5,3.5,0,0,1,1.19-1.11c.76-.56,1.16.11,1.68.29a1.84,1.84,0,0,0,2.57-1.43c0-.29,0-.59-.26-.75S55,90.46,54.81,90.66Zm-8-.53a.82.82,0,0,1,.78-.92,1,1,0,0,1,1,.87.84.84,0,0,1-.85.87A1,1,0,0,1,46.78,90.13ZM49,93.24c-.61.12-1-.38-1.08-.85-.18-.65.5-.7.86-.79.53-.13.65.45.91.78A.9.9,0,0,1,49,93.24ZM38,94.93c-1.07-.23-.86-1.34-1.47-1.82-.76.41-.5,1.72-1.64,1.6s-.88-1.25-1.21-2c-2.12,2.43-2.54,1.32-3.86-.77a2,2,0,0,0,.31,2.41,2.83,2.83,0,0,1,.81,1.6,2,2,0,0,0,2.77,1.65,1.29,1.29,0,0,1,1.35.24,2,2,0,0,0,3.08-.64c.36-.58.59-1.14,1.34-1.4s1-.93.65-1.85A1.87,1.87,0,0,1,38,94.93Zm-5.64,1.52c-.34-.27-.82-.71-.49-1.1a1,1,0,0,1,1.45-.26c.34.29.71.54,1.23.94C33.8,96.7,33.15,97.07,32.35,96.45Zm4,.83c-.72-.06-.92-.57-.88-1.21,0-.48.36-.8.78-.65s1.18.36,1.43.94A1.18,1.18,0,0,1,36.32,97.28ZM31.87,83.43c.3-.55.76-.62,1.14-.91.81-.61.86-1.06.27-2.12-.55.12-.4,1-1,1-.72-.24-.25-1.16-.79-1.52-1.19,1.25-1.43,2.06-3.1,0-.44.7-.08,1.28.2,1.9a.8.8,0,0,1-.42,1.15c-.56.26-.81-.16-1.07-.55s0-.79-.46-1c-.57,1.6.11,2.64,1.56,2.38a1.79,1.79,0,0,1,1.39.23A1.44,1.44,0,0,0,31.87,83.43Zm-2.09-.92c0-.62.63-.48,1-.59s.51.21.45.53-.27.73-1,.66A.64.64,0,0,1,29.78,82.51ZM49.05,98.25a7.92,7.92,0,0,0,3.43-2.43c-.8,2.38-3.77,3.77-7.72,3.69C46.45,99,47.75,98.62,49.05,98.25ZM43.61,81a3,3,0,0,1-.06-1.75c.83,1.14.65,2.14.28,3.49A4.05,4.05,0,0,1,43.61,81ZM87.54,5.2l.08.11-.11.1s-.07-.08-.07-.12S87.5,5.23,87.54,5.2ZM71.83,44a1.3,1.3,0,0,0,1.41-1.35,1.28,1.28,0,0,0-1.4-1.35,1.33,1.33,0,0,0-1.41,1.37A1.23,1.23,0,0,0,71.83,44Zm0-2a.62.62,0,0,1,.76.67c0,.4-.22.6-.67.62s-.73-.15-.73-.65A.63.63,0,0,1,71.83,41.94Zm.35,3.66a1.26,1.26,0,0,0,1.38,1.18,1.13,1.13,0,0,0,1.19-1.32,1,1,0,0,0-1.18-1.11A1.48,1.48,0,0,0,72.18,45.6Zm1.68-.43a.3.3,0,0,1,.31.32c-.09.27-.24.49-.58.43a.31.31,0,0,1-.31-.32C73.32,45.28,73.58,45.17,73.86,45.17ZM32.2,67.84c1.36.8,2.45,2,3.83,2.75A6,6,0,0,1,32.2,67.84Z"/><text class="cls-1" transform="translate(21 127.31)"><tspan class="cls-2">C</tspan><tspan x="14.85" y="0">ap</tspan><tspan class="cls-3" x="42.07" y="0">r</tspan><tspan x="50.65" y="0">i</tspan></text></g></g></svg>