<svg xmlns="http://www.w3.org/2000/svg" viewBox="0 0 102.92 111.2"><defs><style>.cls-1{font-size:25.91px;font-family:MyriadPro-Regular, Myriad Pro;}.cls-2{letter-spacing:0em;}</style></defs><title>Asset 391</title><g id="Layer_2" data-name="Layer 2"><g id="Layer_1-2" data-name="Layer 1"><path d="M64.26,56.45h0ZM102,24.21a4.38,4.38,0,0,0-.3,2.22,8.14,8.14,0,0,1-3,8c-1,.75-2,1.42-2.91,2.23a4.44,4.44,0,0,0-.17,6.86,34.15,34.15,0,0,1,4,4.26c3.29,4.57,2,10.09-2.94,12.76a4.28,4.28,0,0,1-2.22.62c-.59,0-.91.13-1,.82-.15,2.57-1.82,4-4,4.82a10.75,10.75,0,0,1-6.73.18c-1-.27-2-.6-3-.89a7.08,7.08,0,0,0-1.29-.29c-1.25-.14-1.35,0-1.59,1.25-1.17,6.41-7.56,8.46-12.6,5.69-.84-.47-1.35-1.36-2.12-1.85s-1.81,0-2.75-.28a9.17,9.17,0,0,1-6.08-11c1.33-4.88,4.6-8,11.36-8.6a24.15,24.15,0,0,1,6.5.4c-.09-1.45.41-2.7,0-4.12a26.9,26.9,0,0,1-5.87,1,9.41,9.41,0,0,1-2.65,0,2.84,2.84,0,0,1-2.45-2.92c0-.39,0-.78,0-1.17,0-.66-.2-1.23-.94-1.38-.35-.07-.79-.22-.77-.51A3.25,3.25,0,0,0,57.24,40c-.35-.39-.29-.84.08-1.34.78-1,.63-1.36-.6-1.5a5.25,5.25,0,0,1-3.11-1.45c-.78-.74-.84-1.18-.12-2A29.84,29.84,0,0,0,56,30.58c.29-.44.48-.76,0-1.28a3.13,3.13,0,0,1-.4-3.85c.24-.5.54-1,.8-1.47a3.21,3.21,0,0,0-.55-4,4,4,0,0,0-.58-.59c-2.79-2.15-3.06-5.11-2.3-8.15A9.22,9.22,0,0,1,60.36,4c1.19-.25,2.36-.69,3.6-.28.42.14.73-.09,1.09-.26,2-1,4-1.62,6.23-.68,1.72-.3,3.58,0,5.11-1A9.52,9.52,0,0,1,80.61.32a21.91,21.91,0,0,1,6.81.06,9.94,9.94,0,0,1,6.19,3.33c2.4,3,5.27,5.56,7.3,8.84A12.88,12.88,0,0,1,102,24.21Zm-3.86-12.4a2.06,2.06,0,0,0-.08.6,15.15,15.15,0,0,1-3.4,10.71,35.06,35.06,0,0,1-7.87,7.41,16.08,16.08,0,0,0-5,5.93.34.34,0,0,0,.14.44.34.34,0,0,0,.42-.15,17.27,17.27,0,0,1,6-6.11,59,59,0,0,0,5.46-4.11,15,15,0,0,0,5-7.89C99.49,16.32,99.63,14,98.17,11.81ZM84.36,43.23c-2.67,2-3.07,4.2-1.55,6.12A6.92,6.92,0,0,1,84,51.74a3.05,3.05,0,0,1-2.31,4.08c-.37.11-.91-.1-1.12.55a11.38,11.38,0,0,0,3.29,1.14c2.75.12,4.39-2,3.55-4.55a12,12,0,0,0-1.51-2.77C84.56,48.17,83.29,46.13,84.36,43.23Zm2.3-3.94c-.32.24-.87.29-.8.87a1.79,1.79,0,0,0,1-.64c2.89-1.17,3.21-1.35,4-2.46A16.85,16.85,0,0,0,86.66,39.29Zm.45-1.79v-.07h0Zm.69-.33a1,1,0,0,0-.65.24C87.4,37.4,87.65,37.43,87.8,37.17Zm.28-.16-.17-.1-.06.21Zm5.19,19.53c1.9-2,2-3.71.37-5.68a14.56,14.56,0,0,0-3.09-2.77.41.41,0,0,0-.35-.32.36.36,0,0,0-.34-.32,2.2,2.2,0,0,0-1.08-1.11,2.32,2.32,0,0,0,.86,1.31l.29.35.29.34C91.86,50.76,93.57,53.16,93.27,56.54Zm-4.2-15.22C88,43,87.69,44.5,88.63,46.14c.13-.73-.25-1.44-.13-2.22A9.74,9.74,0,0,0,89.07,41.32Zm-3.58,5.79a20.31,20.31,0,0,0,1.9,3.12,7.8,7.8,0,0,1,1.46,3.85,4.13,4.13,0,0,1-3.4,4.46,6.41,6.41,0,0,1-4.06-.5,17.36,17.36,0,0,0-3.49-1.52,27.11,27.11,0,0,0,3.34,2.63c2.66,1.87,5.47,1.63,8.23.38a4.31,4.31,0,0,0,2.41-5.27,12.61,12.61,0,0,0-2.52-4.84C86.71,46,86.7,46,87.07,41.91A4.13,4.13,0,0,0,85.49,47.11Zm.33-6.92c-.3-.1-.5.11-.7.29l0,0,0-.06C85.37,40.38,85.64,40.4,85.82,40.19ZM82.41,42c.08,0,.13-.1.06-.21C82.37,41.87,82.12,41.9,82.41,42Zm1.14-1.19a1.07,1.07,0,0,0-1.06,1C83.21,42,83.26,41.39,83.55,40.84Zm3.24-14.37c-.24.14-.24.4-.3.63C86.82,27,86.83,26.75,86.79,26.47Zm.35-.67h-.31c0,.21,0,.42,0,.63C87.24,26.38,87.25,26.12,87.14,25.8Zm4.77-8.28a32.37,32.37,0,0,1-3,7.56,7.5,7.5,0,0,0-1.13,2.37c.88-.15,1.06-1,1.59-1.55.19-.19.23-.66.62-.53-.12-.12,0-.28,0-.43l1.15-1.83a15.64,15.64,0,0,0,2.6-9.8A11,11,0,0,0,86,3.58a1.35,1.35,0,0,0-1.15,0c.71.54,1.31,1,1.92,1.48a16.42,16.42,0,0,1,3,3.07A10.85,10.85,0,0,1,91.91,17.52Zm-4.1,9.94c-.34.15-.33.41-.26.69C87.68,27.94,88,27.78,87.81,27.46Zm-.34.71h0ZM98,11.63c0,.12.08.16.19.13a1,1,0,0,0-.09-.26C98,11.42,97.94,11.49,98,11.63ZM79.53,1.7a23.21,23.21,0,0,1,6.88,1.07,11,11,0,0,1,6.51,4.89,12.62,12.62,0,0,1,1.68,9.28,15.92,15.92,0,0,1-4.42,8.5h0v1.24c3.07-3,5.44-6.07,6.38-10.12a11.2,11.2,0,0,0-.46-7A15.15,15.15,0,0,0,90.8,3a6.44,6.44,0,0,0-1.62-.85A17.48,17.48,0,0,0,79.53,1.7ZM76.61,3.16A23.58,23.58,0,0,1,81.36,8c1.43,1.7,2.89,3.38,4.28,5.12A11.6,11.6,0,0,1,88.33,20a17.68,17.68,0,0,1-.93,5.38c-.22.06-.25.23-.24.42.33.17.28-.13.33-.31a15.91,15.91,0,0,0,3.4-7.81,10.59,10.59,0,0,0-2.54-9.28,19.46,19.46,0,0,0-4.54-3.9,11.55,11.55,0,0,0-4.69-1.64A3.61,3.61,0,0,0,76.61,3.16Zm-1.93.71a7.61,7.61,0,0,0,.59.75,7.92,7.92,0,0,1,2.19,5.92c0,.83,0,1.67,0,2.5a4.61,4.61,0,0,0,1.94,3.85c.73.52,1.43,1.06,2.13,1.61a9,9,0,0,1,3.36,5.74c.17,1,.15,2,.24,3.1.84-.4.84-1.38,1.64-1.56-.3-.31,0-.62,0-.89a11,11,0,0,0-2.21-11.2C83.23,12,81.8,10.4,80.4,8.75A36.74,36.74,0,0,0,77,4.91,3.3,3.3,0,0,0,74.68,3.87ZM72,8.91a19.77,19.77,0,0,0-.69,3.25,5.86,5.86,0,0,0,1.92,5.4c.95.86,2,1.59,3,2.42.24.2.76.26.59.77.44-.2.58.18.68.46s-.2.13-.32.17a.34.34,0,0,0-.39-.25l-.06.06.06-.06h0v-.32c-.18.05-.45,0-.45.23a.28.28,0,0,0,.41.15c-.14.18.06.3.17.44a3.64,3.64,0,0,0,1.53,1.48c3.93,2.4,4.28,6,2.83,10a3.33,3.33,0,0,1-2.68,2.24c-1.59.28-2.28,1.47-2.72,2.79s.29,2.6,1.35,3.5a3.55,3.55,0,0,0,4,0c.84-.65,1-1.8.52-3.17A2.24,2.24,0,0,0,79,37.38a1,1,0,0,0-.56,1.25c.21.56.64.15,1,0,0,0,.09,0,.15-.07.67-.29,1.36-.32,1.78.35A1.17,1.17,0,0,1,81,40.69l-.26-.3c.05-1.29.05-1.29-1-.84a3.68,3.68,0,0,1-.44.23,1.32,1.32,0,0,1-1.82-1.58,2.23,2.23,0,0,1,2.13-2c.49-.09,1,0,1.14-.67a13.84,13.84,0,0,1,2.21-4.45,8.81,8.81,0,0,0-2.16-11.74c-.62-.48-1.23-1-1.88-1.39a6,6,0,0,1-2.63-5.6c0-.39.09-.78.1-1.17A8.74,8.74,0,0,0,74,4.34c-.4-.4-.78-.94-1.72-.63C73.25,5.54,72.54,7.22,72,8.91ZM76.18,46.2a2.32,2.32,0,0,1-2.05,2.27c-1.51.18-1.94,1.07-2.17,2.3a4.22,4.22,0,0,1-.2.6c3.11,1.2,6-.08,7-3.06.31-1,.52-1.93.81-2.88s1.09-1.58,1.54-2.52c-.55.13-1,.39-1.4.3-2.17-.48-3.63.7-5.1,2a16.15,16.15,0,0,1-1.82,1.17c-.21.13-.54.2-.47.67a1.68,1.68,0,0,0,1.51-.12c.73-.28,1.44-.59,2.15-.88.11-.12.27-.25.39-.11S76.32,46.15,76.18,46.2Zm2.45-12.15a.42.42,0,0,0,.5-.23c-.19-.15-.37,0-.54,0S78.5,34,78.63,34.05Zm1.62-2.37c1.35-4-1.25-8.06-5.25-8C78,25.63,80.94,27.51,80.25,31.68Zm-.4,1.47c.06-.12.11-.24.16-.37s-.07-.06-.09-.05A.28.28,0,0,0,79.85,33.15Zm-.71,0c0,.22,0,.43,0,.65a1.09,1.09,0,0,0,.68-.63C79.62,33,79.37,33.24,79.14,33.15Zm-6.62-15v0s0,0,0,.06Zm-.72-.35a.55.55,0,0,0,.66.27C72.27,17.9,72.12,17.62,71.8,17.79ZM67.1,7.23a6.14,6.14,0,0,0,.39,7,10.16,10.16,0,0,0,4.3,3.53c.18-.29-.07-.48-.21-.67a6.56,6.56,0,0,1-1.26-4.37A15.23,15.23,0,0,1,71,8.65a19,19,0,0,0,.66-2.57,2.14,2.14,0,0,0-1.41-2.51c-.32-.1-.66-.19-.84.23C68.87,5.09,67.79,6,67.1,7.23ZM63,15.65a11.92,11.92,0,0,0,3.67,2.84A47.06,47.06,0,0,0,75,21.36a4,4,0,0,0-1.68-1.29,38.74,38.74,0,0,1-4.65-2.94c-3.57-2.77-5.75-7.79-.93-12.49.24-.23.69-.39.5-1a6,6,0,0,0-4,1.47,10.12,10.12,0,0,0-2.68,4.74A6.06,6.06,0,0,0,63,15.65Zm11.68,7.57s-.07,0-.11.06.06.08.1.08.07,0,.1-.06S74.67,23.22,74.64,23.22Zm-13.2-6.8c-.13-.09-.22-.1-.26,0-.11.4.19.58.44.79C61.87,16.9,61.75,16.65,61.44,16.42ZM60.74,6c.09.1.12.31.34.19s.27-.13.26-.31-.17-.16-.22-.14A2.33,2.33,0,0,0,60.74,6ZM60,12.87a12.08,12.08,0,0,1,.36-3.65c-1.8,1.67-1.28,5.2.7,6.88A12.62,12.62,0,0,1,60,12.87ZM56.14,7.4s.06,0,.08,0,0-.06,0-.1Zm-.26.18.14.1a1.43,1.43,0,0,0,0-.22Zm.72,21.63a1.53,1.53,0,0,0,.87-.93,10.59,10.59,0,0,0,.91-4.19,26.85,26.85,0,0,1,.27-4.3,1.72,1.72,0,0,0-.81-2.07A6.77,6.77,0,0,1,55,11.48,19.47,19.47,0,0,1,55.78,8c-3,2.74-3,7.88-.16,10.41a11.89,11.89,0,0,1,1,.93,3.81,3.81,0,0,1,.72,4.59c-.24.5-.52,1-.78,1.47A3.53,3.53,0,0,0,56.6,29.21ZM76.5,42.63c-1-1.13-2.12-2.13-2-3.77a5.32,5.32,0,0,1,2-3.61,14.84,14.84,0,0,1-1.44-.79,3,3,0,0,1-1.31-3,2.24,2.24,0,0,1,2.51-1.9,1.29,1.29,0,0,1,1.23,1.17,1,1,0,0,1-1.07,1.19,1.2,1.2,0,0,0-.33,0c-.7.22-.86.75-.3,1.19a1.78,1.78,0,0,0,2,.45c.43-.17.78-.83,1.39-.42-.11-.92.61-1.64.56-2.56A5.86,5.86,0,0,0,77,26,22.51,22.51,0,0,0,72,23.15L65.3,20.57a12.44,12.44,0,0,1-6.23-5.48,5.51,5.51,0,0,1,.16-6.26c.24-.37.56-.7.76-1.09s1.08-.88.49-1.34-.91.39-1.24.79a10.16,10.16,0,0,0-2,4c-.13.51-.18,1.05-.29,1.8-.58-2,.32-3.56.92-5.13a.8.8,0,0,0,.37-.61c.12-.09.29-.22.14-.35s-.24,0-.28.19c-.29,0-.39.29-.52.5a6.75,6.75,0,0,0,.64,9.09,12.53,12.53,0,0,0,2.25,1.72c.29.18.78.19.76.7-.55.27-1.1-.26-1.69.06-.15,1.73-.09,3.48-.07,5.27,2.72-1.06,4.78-1,6.64.25-2.14.24-4.22-.28-6.09.69-.65-.4-.76.09-.8.54A9.86,9.86,0,0,1,56.87,31c-.93,1.23-1.87,2.45-2.89,3.6.44.53,1,1.18,1.39.93,1.22-.71,2.21.24,3.34.1-.48,1.25.24,2.45-.27,3.58,0,.1.21.38.38.51a1.45,1.45,0,0,1,.63,1.86c-.13.31.06.49.34.64a2.58,2.58,0,0,1,1.28,2.52c0,1.88.62,2.39,2.52,2.51C68.54,47.53,72.59,45.41,76.5,42.63ZM76,31.16c.19,0,.49,0,.48-.28s-.34-.38-.61-.31-.63.17-.73.55c-.23.08-.32.31-.16.43s.27-.15.38-.27ZM60.21,69.08a9.39,9.39,0,0,1-2.12-7.29c.34-3.46,2-5.84,5.23-6.78a17.16,17.16,0,0,1,8.39-.59,5.68,5.68,0,0,0,2.46.24,6.42,6.42,0,0,1,3.26.07,8.8,8.8,0,0,0,3.65,0,2.06,2.06,0,0,0,1.71-3,5,5,0,0,0-.38-.92,11.12,11.12,0,0,1-1.7-4.49,6.4,6.4,0,0,0-.6,2,6,6,0,0,1-6.28,4.83,10.29,10.29,0,0,1-2-.23,26.19,26.19,0,0,0-6.11-.67,13.61,13.61,0,0,0-7.59,2.18c-2.89,1.89-4.58,6.19-3.68,9.33a7.88,7.88,0,0,0,5.48,5.57c.15.08.33.16.44,0S60.32,69.17,60.21,69.08ZM76.75,57.27a.9.9,0,0,0-.28-.08c0,.11,0,.18.13.2S76.82,57.33,76.75,57.27Zm-12.49-.82h0c.12,0,.15-.11.06-.17s-.07,0-.11,0,0,.06,0,.08a.24.24,0,0,0,.06.08A4.24,4.24,0,0,0,61,58c-1.77,2-2.11,6.17-.64,8.61A11.42,11.42,0,0,1,64.26,56.45Zm4.35,1.15A12.17,12.17,0,0,1,75,57.07a2.82,2.82,0,0,0,1.44.1c-.09-.37-.45-.46-.72-.59a10.93,10.93,0,0,0-7-.7A8.9,8.9,0,0,0,62,67.54a4.49,4.49,0,0,0,.13-1.45C62.67,61.85,65,58.81,68.61,57.6Zm-1.55,8.61c0-2.44,2.55-5.75,6-4.78a29.13,29.13,0,0,0,5,1,38.83,38.83,0,0,1,4.73.95,10.27,10.27,0,0,0,4,.11,6.14,6.14,0,0,0,4.36-2.71c-.77-.31-1.24.09-1.76.24-2.87.84-5.77,1.18-8.31-.72A10.86,10.86,0,0,0,75.16,58a16.46,16.46,0,0,0-5.61.31,8.13,8.13,0,0,0-5.45,4.55,10.24,10.24,0,0,0-.67,7,2.46,2.46,0,0,0,1.15,1.69,7.09,7.09,0,0,0,8.84-1,5.38,5.38,0,0,0,1.37-5A3.73,3.73,0,0,0,71,62.75c-1.18.1-2.62,1.71-2.82,3.17a1.56,1.56,0,0,0,.5,1.66c.54.4,1.06.12,1.58-.07a9.9,9.9,0,0,0,1.61-1.18A2.83,2.83,0,0,1,69,68.72C67.77,68.62,67.05,67.64,67.06,66.21Zm25.62-5.07c0-.24,0-.46-.23-.56s-.51.05-.61.35c-.69,2.1-2.39,3-4.32,3.47a10.3,10.3,0,0,1-4.78,0,42.56,42.56,0,0,0-6.35-1.17c.45,1.64.46,1.73,1,1.67a14.64,14.64,0,0,1,5.21.84,12.2,12.2,0,0,0,5.76.13A5.4,5.4,0,0,0,92.68,61.14Zm4-7.67a7.2,7.2,0,0,0-2.12-5.09c-.77-.79-1.58-1.55-2.37-2.34a5.11,5.11,0,0,1-1.83-4.41c-1.38,2.47-1.25,3.59.44,5.17.89.83,1.85,1.59,2.74,2.43,3,2.83,2.92,6.25-.29,8.84-.47.38-1.06.64-1.4,1.36A6.54,6.54,0,0,0,96.72,53.47ZM93.14,39.58c.06-.35.25-.73,0-1.1a4.12,4.12,0,0,0-.5,6.34c.88.92,1.86,1.75,2.78,2.64a7.71,7.71,0,0,1-.83,11.92c-.27.19-.52.42-1,.77a8.29,8.29,0,0,0,4.92-3,6.58,6.58,0,0,0,1.31-5.33,10.17,10.17,0,0,0-2.54-4.61c-.77-.88-1.62-1.68-2.45-2.5A5.39,5.39,0,0,1,93.14,39.58Zm-1.59-2.45c.08,0,.16-.09.25-.14-.08-.05-.15-.14-.23-.15s-.3,0-.27.19S91.47,37.14,91.55,37.13Zm.76-.4s.08,0,.11-.07-.06-.11-.1-.11-.08.05-.12.08S92.27,36.73,92.31,36.73Zm1,1.72c0-.05,0-.12-.06-.19l-.14.21C93.25,38.55,93.33,38.55,93.36,38.45Zm3.7-6.28c-3.62,1.28-7.15,3.12-8.59,4.47C91.37,36,96.27,33.47,97.06,32.17Zm1-.75c-.23.16-.57.21-.55.62C97.93,32,98.24,31.89,98.1,31.42Zm.73-.22a.94.94,0,0,0-.69.2C98.42,31.51,98.62,31.35,98.83,31.2Zm0,0v0Zm1.52-3.9C98.14,29.91,95,31.11,92,32.44a22.81,22.81,0,0,0-5.35,3.35,1.71,1.71,0,0,0-.83,1.69l-.06,0h0a21.32,21.32,0,0,1,6.71-4.26,46.21,46.21,0,0,0,5.38-2.64A4.79,4.79,0,0,0,100.39,27.27Zm.48-12.12c-.05-.18-.17-.23-.44-.18.42,3.32-.79,6.2-2.56,8.91a19.78,19.78,0,0,1-4,4.25c-2,1.65-4.14,3-6.23,4.47a20,20,0,0,0-4.07,3.67,2.36,2.36,0,0,0-.28,3.14,5.29,5.29,0,0,0,.55-.81,12.57,12.57,0,0,1,4.31-5,31.09,31.09,0,0,1,5.14-3.08c.84-.42,1.71-.8,2.52-1.28C101.25,26,102.56,21.05,100.87,15.15ZM67.31,26.3c-1.14,1.21-2.57,1-4,.85,0,1.38,0,1.38,1.22,1.8-.62.63-1.45.46-2.18.58-1,.15-1,.13-.94-.91a12.15,12.15,0,0,0-.14-1.48c-.07-.67-1-.12-1.09-.81.32-.68,1-.64,1.55-.58C63.61,26,65.4,26.58,67.31,26.3Zm-5.06,1c-.12.5-.14.94.37,1.24A1,1,0,0,0,62.25,27.31Zm7.5,8.44a.19.19,0,0,1,0,.07h0v0Zm.59-.71c0-.42.39-.56.47-.89a.34.34,0,0,0,.36-.3c.29-.05.57-.35.46-.48-.31-.35-.49.07-.7.25h0l-.32.36a16.24,16.24,0,0,0-2.29,2h0c-.12.09-.32.2-.17.35s.27,0,.33-.17c.47,0,.69-.81,1.27-.42,0-.13-.1-.26.09-.31s.3.16.3.36c.9.25,1-.66,1.54-1,.08-.07,0-.18-.09-.24C71.11,34.53,70.94,35.3,70.34,35ZM58.37,34a.28.28,0,0,0-.27.34c.17.53.58.74,1.36.79C59.2,34.42,59,34,58.37,34Zm8.77,3.2s0,0,0,0h0Zm.13-.39a.34.34,0,0,0-.14.36,1.07,1.07,0,0,0,.4-.15.72.72,0,0,0,.23-.33C67.56,36.43,67.41,36.65,67.27,36.77Zm3.87-.64a.39.39,0,0,0,.56-.32s0-.14,0-.14C71.41,35.75,71.14,35.8,71.14,36.13Zm-4,1,0,0v0Zm-.34.22c0,.08.25,0,.31-.22C66.94,37.16,66.68,37,66.8,37.38Zm2.59-.68c.1,0,.11-.11.06-.21l-.23.12C69.28,36.64,69.35,36.71,69.39,36.7Zm.06-.21h0l0,0S69.45,36.48,69.45,36.49Zm1.38-.15a.2.2,0,0,0,.11.09c.16,0,.2-.14.17-.28S70.86,36.18,70.83,36.34Zm.28-.19h0v0h0Zm-1.65.34s0,0,0,0h0Zm0,0c.21,0,.47,0,.31-.31C69.59,36.17,69.47,36.26,69.47,36.46Zm.31-.31h0v0l0,0S69.78,36.14,69.78,36.15Zm0,0c.13,0,.28.09.37-.07s0-.15-.06-.24H69.8Zm.31-.31h0v0h0Zm10.43,4.91c.12.15.29.06.43,0l-.26-.3C80.57,40.46,80.41,40.57,80.54,40.73Z"/><path d="M38.67,56.36h0Zm11,3.2a9.18,9.18,0,0,1-6.09,11c-.93.27-2-.21-2.74.28s-1.28,1.38-2.13,1.84c-5,2.78-11.43.73-12.6-5.68-.23-1.29-.33-1.39-1.58-1.26a7.41,7.41,0,0,0-1.3.3c-1,.29-2,.62-3,.89a10.75,10.75,0,0,1-6.73-.18c-2.18-.84-3.86-2.25-4-4.82,0-.7-.35-.85-.94-.82a4.17,4.17,0,0,1-2.22-.63C1.31,57.8,0,52.28,3.34,47.71a35.67,35.67,0,0,1,4-4.27,4.44,4.44,0,0,0-.17-6.86c-.91-.8-1.94-1.47-2.9-2.23a8.1,8.1,0,0,1-3.05-8,4.49,4.49,0,0,0-.3-2.22A12.93,12.93,0,0,1,2,12.46C4,9.19,6.91,6.6,9.31,3.63A9.84,9.84,0,0,1,15.5.3,21.61,21.61,0,0,1,22.31.24a9.34,9.34,0,0,1,4.21,1.39c1.53,1,3.4.76,5.12,1.06,2.2-.95,4.24-.27,6.23.68.35.17.66.4,1.08.26,1.24-.41,2.42,0,3.61.28A9.22,9.22,0,0,1,50,11.16c.76,3,.49,6-2.31,8.15a6.6,6.6,0,0,0-.58.6,3.22,3.22,0,0,0-.54,4c.26.49.56,1,.8,1.46A3.13,3.13,0,0,1,47,29.22c-.51.52-.32.84,0,1.27a30,30,0,0,0,2.5,3.12c.71.81.66,1.25-.12,2a5.31,5.31,0,0,1-3.12,1.46c-1.23.14-1.38.46-.6,1.49a1,1,0,0,1,.09,1.35,3.25,3.25,0,0,0-1.21,2.37c0,.29-.42.44-.77.51-.74.15-.93.72-.94,1.38,0,.39,0,.78,0,1.17a2.85,2.85,0,0,1-2.45,2.92,9.48,9.48,0,0,1-2.66,0,27,27,0,0,1-5.87-1.06c-.4,1.43.1,2.68,0,4.13A24.26,24.26,0,0,1,38.3,51C45.05,51.53,48.32,54.68,49.66,59.56ZM47.14,7.9a20.69,20.69,0,0,1,.74,3.5,6.79,6.79,0,0,1-2.8,6.24,1.7,1.7,0,0,0-.82,2.06A27,27,0,0,1,44.54,24a10.45,10.45,0,0,0,.9,4.19c.19.33.31.72.88.93a3.53,3.53,0,0,0,.08-3.82c-.25-.49-.53-1-.78-1.47a3.83,3.83,0,0,1,.73-4.59,10.43,10.43,0,0,1,.95-.93C50.16,15.78,50.15,10.65,47.14,7.9Zm-.29-.52a1.7,1.7,0,0,1,0,.22L47,7.5Zm-.19-.19s0,.08,0,.1l.08,0Zm-3.74.47c.21.39.52.71.76,1.09A5.5,5.5,0,0,1,43.84,15a12.39,12.39,0,0,1-6.22,5.49L31,23.06a22.65,22.65,0,0,0-5.07,2.82,5.82,5.82,0,0,0-2.64,4.59c0,.92.67,1.64.56,2.55.61-.4,1,.26,1.39.43A1.8,1.8,0,0,0,27.14,33c.55-.44.4-1-.31-1.19a1.77,1.77,0,0,0-.33,0,1,1,0,0,1-1.06-1.18,1.28,1.28,0,0,1,1.22-1.17,2.25,2.25,0,0,1,2.52,1.89,3,3,0,0,1-1.31,3,13.84,13.84,0,0,1-1.44.8,5.31,5.31,0,0,1,2,3.61c.11,1.63-1,2.63-2,3.77,3.92,2.77,8,4.89,12.91,4.58,1.9-.12,2.49-.63,2.52-2.51a2.59,2.59,0,0,1,1.28-2.52c.28-.15.47-.34.34-.64a1.45,1.45,0,0,1,.64-1.86c.16-.13.42-.41.37-.51-.51-1.13.21-2.34-.27-3.58,1.14.14,2.13-.82,3.35-.11.44.26,1-.39,1.39-.92-1-1.15-2-2.37-2.9-3.6a9.88,9.88,0,0,1-2.32-5.08c0-.44-.15-.93-.8-.54-1.88-1-4-.44-6.09-.68,1.85-1.26,3.91-1.31,6.64-.25,0-1.79.08-3.55-.07-5.27-.59-.32-1.14.21-1.69-.06,0-.51.47-.53.76-.71a12,12,0,0,0,2.24-1.71,6.74,6.74,0,0,0,.64-9.09c-.13-.21-.22-.46-.52-.5,0-.15-.12-.33-.28-.19s0,.25.15.34a.73.73,0,0,0,.37.61c.6,1.58,1.49,3.1.92,5.14-.12-.75-.16-1.29-.29-1.81a10.46,10.46,0,0,0-2-4c-.33-.4-.76-1.17-1.24-.8S42.69,7.22,42.92,7.66ZM26.54,45.83c.12-.14.28,0,.38.11.72.29,1.43.6,2.15.88a1.74,1.74,0,0,0,1.52.12c.07-.47-.26-.54-.48-.68A16.89,16.89,0,0,1,28.3,45.1c-1.48-1.27-2.94-2.45-5.1-2-.39.09-.85-.17-1.4-.3.45.94,1.26,1.58,1.54,2.52s.49,1.93.81,2.87c1,3,3.9,4.26,7,3.07a4.69,4.69,0,0,1-.2-.6c-.24-1.23-.66-2.13-2.18-2.3a2.32,2.32,0,0,1-2-2.27C26.6,46.07,26.4,46,26.54,45.83ZM28,31.47c.16-.12.06-.35-.17-.43-.09-.38-.42-.48-.73-.56s-.59-.08-.6.31.28.24.48.28l.64.13C27.7,31.32,27.78,31.61,28,31.47Zm-3.64,2.32c-.18-.07-.36-.2-.55-.06a.43.43,0,0,0,.51.24C24.41,34,24.43,33.82,24.33,33.79Zm3.58-10.21c-4,0-6.59,4-5.25,8C22,27.43,24.92,25.55,27.91,23.58Zm-5,9.12.16.37a.28.28,0,0,0-.07-.43A.28.28,0,0,0,22.9,32.7Zm.17.39a1.13,1.13,0,0,0,.69.63c0-.22,0-.44,0-.65C23.55,33.15,23.3,32.94,23.07,33.09Zm5.22-9.81s.06-.05.09-.08-.07-.07-.1-.06-.07.05-.1.08S28.26,23.28,28.29,23.28Zm13-6.11c.25-.21.55-.39.44-.79,0-.15-.14-.14-.26-.05C41.16,16.56,41,16.82,41.3,17.17Zm1.6-4.38A12.55,12.55,0,0,1,41.84,16c2-1.67,2.49-5.21.7-6.87A12.41,12.41,0,0,1,42.9,12.79Zm-1.32-7c0,.19.12.25.26.32s.24-.09.34-.19a2.41,2.41,0,0,0-.39-.26S41.65,5.73,41.58,5.78ZM35.16,4.56c4.82,4.7,2.64,9.71-.92,12.49A40,40,0,0,1,29.59,20a4.11,4.11,0,0,0-1.68,1.29,45.91,45.91,0,0,0,8.37-2.87A11.81,11.81,0,0,0,40,15.56a6,6,0,0,0,1.35-5.75,10.14,10.14,0,0,0-2.69-4.74,6,6,0,0,0-4-1.48C34.48,4.16,34.92,4.32,35.16,4.56ZM30.4,18.09v0l0,.1A.43.43,0,0,0,30.4,18.09Zm.71-.38c-.31-.17-.46.11-.66.26C30.72,18,31,18,31.11,17.71ZM31.24,6a23.07,23.07,0,0,0,.66,2.57,15.24,15.24,0,0,1,.7,4.08A6.64,6.64,0,0,1,31.34,17c-.14.19-.39.38-.21.67a10.22,10.22,0,0,0,4.3-3.53,6.16,6.16,0,0,0,.39-7C35.13,5.94,34.05,5,33.5,3.71c-.18-.42-.52-.33-.84-.23A2.17,2.17,0,0,0,31.24,6ZM29,4.26a8.69,8.69,0,0,0-2.38,6.86c0,.39.09.78.1,1.16a6,6,0,0,1-2.62,5.61c-.65.43-1.26.91-1.88,1.39A8.8,8.8,0,0,0,20,31a13.92,13.92,0,0,1,2.2,4.45c.14.69.66.58,1.14.66a2.24,2.24,0,0,1,2.13,2,1.32,1.32,0,0,1-1.82,1.58c-.15-.05-.29-.17-.44-.23-1.08-.46-1.08-.46-1,.83.14.08.3.18.16.35s-.29.06-.42,0a1.17,1.17,0,0,1-.38-1.73c.42-.67,1.11-.64,1.78-.35l.15.07c.34.1.77.5,1-.05a1,1,0,0,0-.56-1.25,2.22,2.22,0,0,0-2.79,1.1c-.51,1.36-.33,2.51.51,3.17a3.54,3.54,0,0,0,4.05,0c1.07-.89,1.85-2,1.36-3.49a3.57,3.57,0,0,0-2.72-2.79,3.36,3.36,0,0,1-2.69-2.25c-1.44-4-1.1-7.64,2.84-10A3.64,3.64,0,0,0,26,21.55c.1-.14.31-.27.17-.45a.28.28,0,0,0,.41-.14c0-.28-.28-.18-.46-.23v.32s0,0,0,0l.06.05-.06-.05a.33.33,0,0,0-.39.25c-.13-.05-.39,0-.33-.17s.24-.66.68-.46c-.16-.51.36-.57.6-.78,1-.82,2-1.55,3-2.41a5.83,5.83,0,0,0,1.92-5.41,20.19,20.19,0,0,0-.68-3.25c-.51-1.68-1.23-3.37-.21-5.2C29.74,3.32,29.37,3.86,29,4.26Zm-10,47.39a6.79,6.79,0,0,1,1.17-2.38c1.51-1.93,1.12-4.12-1.55-6.13,1.06,2.91-.2,5-1.52,7a11.76,11.76,0,0,0-1.51,2.76c-.84,2.6.8,4.68,3.55,4.55a11.16,11.16,0,0,0,3.29-1.13c-.22-.66-.75-.44-1.12-.55A3.05,3.05,0,0,1,18.94,51.65Zm-6.24-3.4.29-.33.28-.36a2.22,2.22,0,0,0,.87-1.3,2.11,2.11,0,0,0-1.08,1.1.36.36,0,0,0-.34.33.42.42,0,0,0-.36.32,15,15,0,0,0-3.09,2.76c-1.59,2-1.52,3.7.38,5.69C9.35,53.08,11.06,50.68,12.7,48.25ZM12.07,37c.79,1.1,1.11,1.29,4,2.46a1.79,1.79,0,0,0,1,.64c.07-.59-.48-.63-.81-.87A16.78,16.78,0,0,0,12.07,37Zm3,.06L15,36.82l-.16.11Zm.7.28a1,1,0,0,0-.64-.23C15.27,37.35,15.52,37.32,15.76,37.32Zm.05,0h0v0Zm-2,3.89a9.83,9.83,0,0,0,.57,2.6c.11.78-.26,1.49-.14,2.21C15.23,44.42,14.92,42.92,13.85,41.24Zm-.4,18.21c2.76,1.25,5.57,1.49,8.23-.38A28.87,28.87,0,0,0,25,56.44,17.36,17.36,0,0,0,21.52,58a6.4,6.4,0,0,1-4.06.51A4.15,4.15,0,0,1,14.06,54a7.91,7.91,0,0,1,1.47-3.85A21.57,21.57,0,0,0,17.43,47a4.12,4.12,0,0,0-1.59-5.2c.38,4.07.37,4.06-2.28,7.52A12.61,12.61,0,0,0,11,54.18,4.32,4.32,0,0,0,13.45,59.45Zm4.33-19.07,0,.06,0,0c-.2-.17-.39-.38-.7-.29C17.27,40.32,17.55,40.3,17.78,40.38Zm2.65,1.34a1.07,1.07,0,0,0-1.06-1C19.66,41.31,19.7,41.87,20.43,41.72Zm.07.23c.3-.14,0-.16-.05-.21S20.42,42,20.5,42ZM26,4.82a35.74,35.74,0,0,0-3.43,3.85c-1.41,1.65-2.83,3.28-4.21,4.94A11,11,0,0,0,16.1,24.8c.09.28.33.59,0,.89.8.18.81,1.17,1.64,1.57.1-1.07.08-2.1.25-3.1a8.93,8.93,0,0,1,3.36-5.74c.69-.56,1.4-1.09,2.12-1.61A4.62,4.62,0,0,0,25.45,13c0-.83,0-1.66,0-2.49a7.87,7.87,0,0,1,2.2-5.92c.19-.2.34-.43.59-.75A3.28,3.28,0,0,0,26,4.82ZM16.13,26.39c-.05.28,0,.53.29.62C16.37,26.78,16.36,26.53,16.13,26.39Zm0-.68h-.31c-.11.32-.1.58.32.62C16.1,26.13,16.09,25.92,16.09,25.71Zm7.7-23A11.41,11.41,0,0,0,19.11,4.4a19.26,19.26,0,0,0-4.54,3.9A10.59,10.59,0,0,0,12,17.58a15.89,15.89,0,0,0,3.41,7.8c.05.18,0,.48.33.31,0-.19,0-.35-.24-.41a17.69,17.69,0,0,1-.93-5.39A11.57,11.57,0,0,1,17.28,13c1.38-1.75,2.84-3.42,4.27-5.12a23.64,23.64,0,0,1,4.76-4.83A3.59,3.59,0,0,0,23.79,2.76ZM12.88,25.29c.39-.13.43.33.63.52.52.52.7,1.4,1.59,1.56A7.5,7.5,0,0,0,14,25a31.52,31.52,0,0,1-3-7.56A10.82,10.82,0,0,1,13.15,8a16.37,16.37,0,0,1,3-3.07l1.92-1.49A1.35,1.35,0,0,0,17,3.5a11,11,0,0,0-7.88,9.73A15.62,15.62,0,0,0,11.69,23c.37.62.76,1.23,1.14,1.84C12.93,25,13,25.17,12.88,25.29Zm2.48,2.78c.08-.29.08-.55-.25-.69C15,27.7,15.24,27.85,15.36,28.07Zm0,0Zm-9-11.62c.94,4.05,3.31,7.16,6.38,10.11V25.36h0a15.92,15.92,0,0,1-4.42-8.5A12.66,12.66,0,0,1,10,7.58,11.09,11.09,0,0,1,16.5,2.69a23.31,23.31,0,0,1,6.88-1.07,17.35,17.35,0,0,0-9.64.48,6.24,6.24,0,0,0-1.62.84,15.1,15.1,0,0,0-5.3,6.51A11.13,11.13,0,0,0,6.36,16.48Zm-1.59-4.8c.11,0,.18,0,.19-.13s-.06-.21-.11-.13A.72.72,0,0,0,4.77,11.68ZM4,18.56a15.06,15.06,0,0,0,5,7.89,60.39,60.39,0,0,0,5.46,4.11,17.14,17.14,0,0,1,6,6.11.33.33,0,0,0,.42.15.35.35,0,0,0,.14-.44,16.3,16.3,0,0,0-5-5.94A34.84,34.84,0,0,1,8.22,23,15.2,15.2,0,0,1,4.83,12.32a3.09,3.09,0,0,0-.08-.59C3.28,13.87,3.43,16.24,4,18.56ZM7.07,29.18c.81.48,1.68.86,2.53,1.27a31.05,31.05,0,0,1,5.13,3.09,12.53,12.53,0,0,1,4.32,5,5.1,5.1,0,0,0,.54.8,2.33,2.33,0,0,0-.28-3.13,19.18,19.18,0,0,0-4.07-3.67C13.15,31.05,11,29.69,9,28A19.78,19.78,0,0,1,5,23.8c-1.77-2.71-3-5.6-2.56-8.91-.26-.05-.39,0-.44.17C.35,21,1.67,25.94,7.07,29.18ZM5,30.52a44.67,44.67,0,0,0,5.38,2.64,21.45,21.45,0,0,1,6.71,4.26l0,0-.07,0a1.68,1.68,0,0,0-.83-1.69,23,23,0,0,0-5.34-3.36c-3-1.32-6.14-2.52-8.39-5.16A4.82,4.82,0,0,0,5,30.52Zm-1,.51v.06h0Zm.73.29a1,1,0,0,0-.69-.2C4.29,31.26,4.5,31.43,4.78,31.32Zm.59.64c0-.42-.33-.46-.56-.62C4.68,31.81,5,31.91,5.37,32Zm9.08,4.6c-1.45-1.36-5-3.19-8.59-4.47C6.65,33.39,11.55,35.94,14.45,36.56Zm-3.1.2c-.08,0-.15.1-.23.15a.69.69,0,0,0,.25.14c.08,0,.24,0,.25-.1S11.47,36.74,11.35,36.76Zm-.76-.29s-.06.07-.1.1.08.08.11.08.08-.06.12-.1S10.63,36.46,10.59,36.47Zm-1,1.71c0,.06-.07.14,0,.19s.11.1.19,0ZM9.25,60.07c-.43-.35-.67-.59-.94-.78a7.7,7.7,0,0,1-.83-11.91c.91-.89,1.89-1.72,2.78-2.64a4.13,4.13,0,0,0-.5-6.34c-.24.36,0,.74,0,1.1A5.41,5.41,0,0,1,8,44.62c-.83.82-1.69,1.62-2.45,2.5A10.08,10.08,0,0,0,3,51.73a6.59,6.59,0,0,0,1.3,5.33A8.42,8.42,0,0,0,9.25,60.07ZM11,59.34c-.35-.72-.93-1-1.4-1.35-3.22-2.6-3.34-6-.3-8.85.9-.83,1.86-1.59,2.75-2.43,1.69-1.58,1.81-2.7.43-5.16A5.05,5.05,0,0,1,10.68,46c-.78.79-1.59,1.56-2.37,2.35a7.28,7.28,0,0,0-2.12,5.09A6.55,6.55,0,0,0,11,59.34Zm15.5,3.78a42.1,42.1,0,0,0-6.35,1.16,10.17,10.17,0,0,1-4.78,0c-1.94-.46-3.64-1.37-4.32-3.47-.1-.3-.29-.49-.62-.35s-.23.32-.22.55a5.38,5.38,0,0,0,4.28,4.71,12.19,12.19,0,0,0,5.76-.14,14.65,14.65,0,0,1,5.22-.83C26.06,64.85,26.07,64.75,26.53,63.12Zm12.29-.32a8.12,8.12,0,0,0-5.45-4.54,16.75,16.75,0,0,0-5.61-.32,10.83,10.83,0,0,0-5.92,2.23c-2.54,1.89-5.43,1.56-8.3.72-.52-.15-1-.55-1.76-.24a6.12,6.12,0,0,0,4.36,2.71,10.09,10.09,0,0,0,4-.12,36.3,36.3,0,0,1,4.73-.94,29.83,29.83,0,0,0,4.95-.95c3.51-1,6,2.33,6.06,4.78,0,1.43-.72,2.41-1.9,2.51a2.83,2.83,0,0,1-2.88-2.4,8.88,8.88,0,0,0,1.62,1.18c.52.2,1,.48,1.58.08a1.59,1.59,0,0,0,.49-1.66c-.19-1.47-1.64-3.08-2.81-3.17a3.75,3.75,0,0,0-3.84,2.83,5.39,5.39,0,0,0,1.37,5,7.1,7.1,0,0,0,8.84,1,2.48,2.48,0,0,0,1.16-1.69A10.27,10.27,0,0,0,38.82,62.8Zm-12.5-5.49c.13,0,.17-.09.13-.2a.61.61,0,0,0-.28.08C26.09,57.24,26.16,57.32,26.32,57.31Zm7.87-1.51a10.79,10.79,0,0,0-7,.7c-.28.13-.63.21-.72.58A2.77,2.77,0,0,0,27.91,57a12.05,12.05,0,0,1,6.39.53c3.63,1.21,5.94,4.24,6.5,8.48a4.44,4.44,0,0,0,.13,1.45A8.89,8.89,0,0,0,34.19,55.8Zm8.35,10.69c1.48-2.44,1.13-6.62-.63-8.62a4.28,4.28,0,0,0-3.24-1.51.25.25,0,0,0,.07-.08s0-.06-.05-.09h-.1c-.09.06-.07.13.06.18h0A11.39,11.39,0,0,1,42.54,66.49ZM44.77,54.4a13.55,13.55,0,0,0-7.58-2.17,26.27,26.27,0,0,0-6.12.67,11.13,11.13,0,0,1-2,.23,6,6,0,0,1-6.28-4.83,7,7,0,0,0-.6-2,11.12,11.12,0,0,1-1.7,4.49,5,5,0,0,0-.39.92,2.06,2.06,0,0,0,1.72,3,8.76,8.76,0,0,0,3.64,0,6.46,6.46,0,0,1,3.27-.06,5.64,5.64,0,0,0,2.45-.24,17,17,0,0,1,8.39.59c3.23.93,4.89,3.32,5.24,6.78A9.44,9.44,0,0,1,42.71,69c-.12.09-.32.16-.17.33s.29.06.43,0a7.86,7.86,0,0,0,5.48-5.57C49.35,60.6,47.67,56.3,44.77,54.4ZM35.61,26.21c1.91.29,3.69-.33,5.53-.54.57-.07,1.23-.1,1.54.58-.08.69-1,.14-1.08.8a10.73,10.73,0,0,0-.14,1.48c0,1,0,1.07-.94.92-.74-.12-1.56,0-2.18-.59,1.25-.42,1.25-.42,1.22-1.79C38.17,27.18,36.75,27.43,35.61,26.21Zm4.68,2.26c.52-.3.5-.75.37-1.24A1,1,0,0,0,40.29,28.47ZM33.11,35.7v0h0l0-.08-.06,0Zm1.49.21h0a16.89,16.89,0,0,0-2.29-2L32,33.54h0c-.2-.18-.38-.6-.69-.25-.11.12.17.43.45.48a.37.37,0,0,0,.37.3c.08.32.49.47.46.89-.59.26-.76-.51-1.24-.52-.12.06-.18.17-.09.24.49.38.64,1.29,1.54,1,0-.21,0-.43.3-.36s.14.18.09.3c.57-.38.8.45,1.27.43.05.16.18.32.33.17S34.72,36,34.6,35.91Zm10.21-1.69a.28.28,0,0,0-.26-.34c-.58,0-.83.46-1.09,1.13C44.23,35,44.64,34.74,44.81,34.22Zm-9,2.86,0,0h0Zm-.63-.51a.72.72,0,0,0,.23.33,1.74,1.74,0,0,0,.4.15.33.33,0,0,0-.13-.37C35.5,36.57,35.36,36.35,35.15,36.57Zm-3.88-1s-.07.1-.06.15a.4.4,0,0,0,.57.32C31.77,35.72,31.51,35.67,31.27,35.58Zm4.51,1.5h0s0,0,0,0Zm0,0c0,.18.28.3.31.22C36.24,37,36,37.07,35.81,37.08Zm-2.29-.47s.12,0,.18-.09l-.24-.11C33.41,36.5,33.43,36.59,33.52,36.61Zm-.06-.2,0,0h0v0Zm-1.65-.34c0,.14,0,.24.16.27s.12-.06.11-.08S32,36.06,31.81,36.07Zm0,0v0h0v0Zm1.67.32a.29.29,0,0,0-.31-.3C33,36.42,33.23,36.38,33.45,36.37Zm-.31-.3a.06.06,0,0,1,0,0h0v0ZM32.75,36c.09.16.23.12.37.06s0-.2,0-.3h-.3C32.78,35.82,32.72,35.92,32.75,36Zm0-.26v0h0a0,0,0,0,1,0,0Z"/><text class="cls-1" transform="translate(14.85 104.72)"><tspan class="cls-2">G</tspan><tspan x="16.87" y="0">emin</tspan></text></g></g></svg>