<svg xmlns="http://www.w3.org/2000/svg" viewBox="0 0 90.2 130.96"><defs><style>.cls-1{font-size:25.91px;font-family:MyriadPro-Regular, Myriad Pro;}.cls-2{letter-spacing:-0.01em;}</style></defs><title>Asset 386</title><g id="Layer_2" data-name="Layer 2"><g id="Layer_1-2" data-name="Layer 1"><path d="M30.73,62l.07,0,0,0ZM49.05,14.5l0,0a.13.13,0,0,0,0-.06ZM89.83,49.64c-.47.17-.71-.24-1-.54a7.21,7.21,0,0,0-3.5-2.63c-.1-.15-.25-.25-.4-.14s0,.27.06.4c2,3.9,1.71,7.87.3,11.86a3.48,3.48,0,0,1-.26.63.45.45,0,0,1-.57.25.6.6,0,0,1-.31-.37c-.07-.33-.06-.68-.1-1A6.94,6.94,0,0,0,81,53.27c.75,3.52,1.9,6.91-.28,10.39-1-1.23-1.88-2.34-3-3.73-.15,2,.17,3.55-.06,5.25-.88-.33-.76-1.1-1.16-1.65-.32.57-.09,1.11-.16,1.61-.17,1.34.29,2.91-1.36,3.74-.3.15-.2.63-.23,1a26.24,26.24,0,0,1-.45,3.06,8,8,0,0,1-1.61,3,.61.61,0,0,1-.73.3c-.41-.13-.45-.49-.39-.84a2.77,2.77,0,0,1,.22-.65,8.31,8.31,0,0,0,.34-5.39c.09-.52-.21-.86-.56-1.51v1.84a13.56,13.56,0,0,1-.6,2,26.3,26.3,0,0,0-2.1,6.71c-.13.66-.15,1.63-1,1.58s-.71-1-.81-1.67-.12-1.22-.18-1.93c-.6.13-.71.53-.86.85a18.79,18.79,0,0,1-5.12,6.41,9.39,9.39,0,0,0-1.63,1.52c-.34.47-.86,1-1.43.45s-.07-1,.42-1.38a4.16,4.16,0,0,0,1.62-2.44.52.52,0,0,0-.8.2,7.46,7.46,0,0,1-3.21,2.51L54.6,85c-1.64.8-3.11,1.77-3.46,3.77-.06.31-.23.56-.55.55a.51.51,0,0,1-.51-.58c.15-1.13-1-1.88-.83-3,.06-.47-.46-.44-.71-.14a7.61,7.61,0,0,0-.58,1c-.17.3-.34.82-.54.83-1.36.1-1.11,1.22-1.33,2a9.48,9.48,0,0,1-1,2.87,11.77,11.77,0,0,1-1.18-3.81c-.09-.45-.08-.92-.77-.9s-.69-.54-.89-.94a4.69,4.69,0,0,0-1.5-2.06c.52,1.67-.56,2.8-.63,4.17a.53.53,0,0,1-.55.54.49.49,0,0,1-.47-.43c-.43-2.36-2.25-3.32-4.17-4.19a9.63,9.63,0,0,1-3.31-2.14c-.22-.23-.49-.61-.83-.25s.05.63.2.91a4,4,0,0,0,1.12,1.05c.37.31.74.69.38,1.16s-.93.29-1.33-.09c-2.92-2.76-6-5.36-7.55-9.25,0,0-.09,0-.3-.14-.19,1,0,2-.29,3-.12.43-.1,1-.73,1s-.68-.53-.8-1-.24-1-.34-1.51a19.17,19.17,0,0,0-1.59-5.07,9.88,9.88,0,0,1-1-3.58A5.6,5.6,0,0,0,18,73.26c.19.66.42,1.31.64,2,.12.35.15.71-.2.92s-.72,0-1-.36a7.68,7.68,0,0,1-1.76-4.22c-.08-.69-.18-1.37-.28-2,0-.22,0-.56-.18-.64C13.59,68,14,66.46,13.89,65.09c0-.48,0-1,0-1.57-.71.39-.38,1.29-1.15,1.62-.55-.79-.21-1.64-.22-2.44s0-1.55,0-2.59c-1.32,1-1.9,2.38-2.93,3.44a5.27,5.27,0,0,1-1.36-3.64,17.74,17.74,0,0,1,1-6.42c.1-.13.17-.31,0-.36s-.37.11-.43.33A7,7,0,0,0,6.05,58.6c0,.34,0,.77-.37.86s-.64-.31-.78-.7c-1.44-4-1.76-8.06.26-12,.08-.13.24-.27.07-.4s-.3,0-.4.13a6.79,6.79,0,0,0-3.07,2.09c-.2.21-.37.44-.55.67s-.48.55-.86.42S0,49.1,0,48.77c.22-2.8,1.1-5.26,3.53-6.93L6.32,40C4.25,39.22,2.21,38.86.64,37.2a3.89,3.89,0,0,1,2.6-.42,16.13,16.13,0,0,0,4.44-.29c.33,0,.8.06.78-.33S8,36,7.68,35.94a11.23,11.23,0,0,1-6.36-3.52c-.21-.25-.63-.4-.47-.82s.58-.28.9-.21c3.08.72,5.87-.25,8.72-1.44A6.47,6.47,0,0,0,6.41,29a8.32,8.32,0,0,0-.85.13c-.46.09-1,.22-1.12-.38s.55-.68,1-.77c2.19-.43,4.28-1.36,6.58-1.24.08,0,.17-.13.34-.25a12.73,12.73,0,0,0-2.39-2.14,10.13,10.13,0,0,1-3.41-5.26,9,9,0,0,1-.28-1.69c0-1.55,0-3.1,0-4.65a.59.59,0,0,1,.3-.58.53.53,0,0,1,.61.21c1.64,2.11,4.15,2.53,6.48,3.3a20.92,20.92,0,0,0,2.39.42c-.91-1.32-1.7-2.31-2.32-3.4A5.25,5.25,0,0,1,13,9c1.37.66,2.22,2,3.68,2.21.39-.32.08-.65-.05-.92C15.44,7.8,15.85,5.21,16,2.64a.4.4,0,0,1,.26-.4.42.42,0,0,1,.57.24c1,2.08,2.94,2.8,4.82,3.65A23.69,23.69,0,0,1,25,7.84a1.09,1.09,0,0,0,1.17.2c-.23-1.31-.81-2.68-.27-4.08a38.62,38.62,0,0,1,1.64-4A9.14,9.14,0,0,0,30,5a6.81,6.81,0,0,0,1.42-2.63c.13-.31.19-.66.3-1S32,.91,32.22,1c.41,0,.37.38.3.65C32,3.65,33,5.25,34,6.92c1.2-1.14,2.31-2.31,4.14-2.57-.65,2.43-1.71,4.7-.19,7C38.48,9,38.9,6.62,40.94,5a2.8,2.8,0,0,1,2.48-.84C43,5.81,42,7.28,42.36,9.07s1.56,2.86,2.68,4c3.26-2.45,3.57-5.44,1.58-8.83,2.73-.16,3.93,1.39,5.5,6.86C53.37,10,53.33,7.71,52,4.44c1.84,0,2.86,1.34,4.15,2.41,1.16-1.56,2-3.17,1.55-5.18-.05-.26-.15-.61.24-.71s.5.23.58.5A11.76,11.76,0,0,0,60.09,5c1-1.33,2.18-2.43,2.13-4.19,0-.31.07-.64.38-.7s.5.32.61.65c.21.65.44,1.3.68,1.94a6.33,6.33,0,0,1,.29,4.53,2.84,2.84,0,0,0-.08.66c0,.05.06.1.13.2s.32.06.43,0a58.17,58.17,0,0,1,5.7-2.84,5.77,5.77,0,0,0,3-2.75.48.48,0,0,1,.54-.31c.25.06.32.29.34.53.21,2.76.46,5.52-.88,8.1,0,.14-.18.33-.13.4.16.23.35.08.52,0a8.1,8.1,0,0,0,2.7-1.82c.19-.21.43-.43.73-.23s.2.51.18.79a7.48,7.48,0,0,1-1.46,3.82c-.5.67-1,1.33-1.59,2.09a3.83,3.83,0,0,0,2.34-.18c2.33-.76,4.84-1.2,6.47-3.32a.45.45,0,0,1,.61-.14.58.58,0,0,1,.27.59c0,1.72,0,3.45-.11,5.16A9.2,9.2,0,0,1,80.57,24c-.88.8-1.8,1.54-2.67,2.28.2.59.58.43.89.44,2.16,0,4.15.89,6.22,1.33.37.08.87.21.7.76s-.64.4-1,.31c-1.69-.42-3.29,0-5.25.56a14,14,0,0,0,8.47,1.8c.47-.07,1.09-.5,1.39.07s-.5.78-.8,1.14c-1.54,1.89-3.73,2.6-6,3.2a1.83,1.83,0,0,0-1,.14.91.91,0,0,0,1,.42,14.79,14.79,0,0,0,4.25.29A4.93,4.93,0,0,1,89.3,37c-.65,1.29-1,1.5-5.27,2.92a7.55,7.55,0,0,0,2.18,1.61c2.62,1.63,3.66,4.12,4,7.05C90.19,49,90.32,49.46,89.83,49.64ZM82.6,17.72s0,.08.07.13a1.86,1.86,0,0,1,.1-.25l-.06-.14A1.45,1.45,0,0,0,82.6,17.72Zm-1-.29A7.45,7.45,0,0,1,76.7,20a20.08,20.08,0,0,1-2.56.3,8.33,8.33,0,0,0-7.5,4.88l-.25.17c.15.16.28.12.39,0A22.89,22.89,0,0,0,73,24.2a20.64,20.64,0,0,0,5.31-3.33,1.26,1.26,0,0,1-.39,1.3,11,11,0,0,1-7.7,4c-1,.1-2.06.2-3.07.36A7,7,0,0,0,64,27.92c-.94.7-1,1.18-.25,2.12.51.68,1,1.36,1.6,2.1a11.2,11.2,0,0,1,6.08-3.48,11.85,11.85,0,0,0,5.5-3c1-.93,2.07-1.81,3.06-2.77a9.14,9.14,0,0,0,2.16-3.08c.24-.6.81-1.3-.39-1.6C81.64,18.16,82,17.69,81.58,17.43Zm-4,9.18s-.09.06-.13.09.08.11.12.11.09-.06.13-.1S77.57,26.61,77.53,26.61Zm-9.32-5.37.16-.21c-.08-.09-.16-.07-.2.06A.31.31,0,0,0,68.21,21.24ZM81.49,15.5a.17.17,0,0,0,.22-.17s-.11-.06-.15-.05S81.4,15.41,81.49,15.5ZM73.05,6.64a7.75,7.75,0,0,1-3.33,3.62A8.29,8.29,0,0,0,67,12.64c-.26.4-.49.74-.06,1.21,1.22,1.33,1.31,3,1.38,4.68,0,.83-.31,1.67,0,2.49a12.07,12.07,0,0,1,6.21-2,11.58,11.58,0,0,0,3-.45,5.49,5.49,0,0,0,3.83-3c-.61-.22-1.06.23-1.55.43a17.63,17.63,0,0,1-4.31,1.16A6.54,6.54,0,0,1,73,17.05c-.32-.08-.7-.11-.83-.51s.17-.63.45-.84.47-.33.68-.52a9.27,9.27,0,0,0,2.51-3.71c-1.76.82-3.35,1.9-5.74,2.13C71.73,11.24,73.39,9.33,73.05,6.64Zm-9.84,4.2A9.63,9.63,0,0,1,59.4,16.2a.9.9,0,0,0-.38.69A11.49,11.49,0,0,0,63.64,14c.32-.33.55-.93,1-.92,1.27,0,1.61-.92,2.19-1.73a8.39,8.39,0,0,1,2.33-2,15.42,15.42,0,0,0,1.7-1.16,4.39,4.39,0,0,0,1.67-3,36.92,36.92,0,0,1-5.13,2.48,16.05,16.05,0,0,0-3,1.69A2.65,2.65,0,0,0,63.21,10.84Zm-9.16,4.05c-.65.57-1.33,1.1-1.94,1.7s-1.21.84-1.29,1.65a29.15,29.15,0,0,0,3.69-2.09,13.59,13.59,0,0,0,3.72-3.53c1.67-2.36,1.37-4.88.73-7.44a20.17,20.17,0,0,1-1.61,5.3c0-1.72.83-3,.61-4.51-1,1.31-1,1.31-1,2.52A8.64,8.64,0,0,1,54.05,14.89Zm-13.16-.18c1.55,1.29,3.58,2.09,4.17,4.71a6.58,6.58,0,0,1,3.06-3.87c.37-.23,1.15-.24,1-1,.08.06.18.15.21.13a3.67,3.67,0,0,0,.91-6c-.13,1.63.08,3.35-1.14,5.13,0-1.62.61-2.82.16-4.56-.53,3-3.25,3.92-4.21,6.55-.79-2.7-3.58-3.54-4.06-6.09-.47,1.47.29,2.75.2,4.11.15,0,.25,0,.3.19a.33.33,0,0,1-.27.46c0-.21,0-.42-.07-.63-.57-.28-.56-.89-.74-1.39a15.33,15.33,0,0,1-.41-4C38.13,11.2,38.39,12.92,40.89,14.71ZM45.08,23c-.42,1.41-.91,2.63.05,4C45.93,25.64,45.55,24.44,45.08,23ZM30.72,8.7a5.66,5.66,0,0,0,.74,3.14c1.75,3,4.49,4.72,7.57,6.05-.6-1.3-1.81-2-2.8-2.87A8.54,8.54,0,0,1,33.28,8.5a3.29,3.29,0,0,0-1-2.49,2.68,2.68,0,0,0,.07,1.57,5.12,5.12,0,0,1,.24,1.69.67.67,0,0,1,.17,1c-.31-.21-.27-.55-.39-.82h0a41.28,41.28,0,0,1-1.22-4.27A21.44,21.44,0,0,0,30.72,8.7Zm-4-3a35,35,0,0,0,1.69,6.37A11.53,11.53,0,0,0,31,15.37a7.42,7.42,0,0,1,1.6,1.75c.15.1.27.22,0,.37,0,0-.12-.15-.19-.22l-.61-.09c-.06-.15-.21-.31-.32-.22-.29.2,0,.3.12.42A9,9,0,0,1,34,21.19a6.86,6.86,0,0,0,3.63,4.55,3.84,3.84,0,0,1,1.72,1.64.88.88,0,0,1-.42,1.29c-.37-1.32-1.48-1.74-2.43-2.35-1.58-1-3.09-2.11-3.41-4.11a6.28,6.28,0,0,0-4-5,8.34,8.34,0,0,1-3.37-2.6c-.76-1-1.15-1-1.86,0A4.44,4.44,0,0,0,23,16.73a12.59,12.59,0,0,0,.46,5.45,5.28,5.28,0,0,0,2.27,3.12,7.65,7.65,0,0,1,1.46,1.2,2.85,2.85,0,0,1,.42,3.63c-.39.7-.86,1.36-1.3,2-3.16,4.85-2.43,9.79,2,13.46l.27.22a7.3,7.3,0,0,1,3,5c.19,1.12.32,2.48,1.39,3.22s1.62,1.64,2.73,2.05c.52.2.43.75.57,1.15.08.23-.16.4-.36.52a.63.63,0,0,1-.65,0,1.12,1.12,0,0,1-.41-.72,3.36,3.36,0,0,0-2.26-2.12c0,.55.07.95.07,1.35,0,.66,0,1.14.91,1.34.66.15.63.94.09,1.3s-.35.61-.2,1c.21.53.59.42,1,.33.72-.17,1.46-.28,2.17-.47.37-.11.71-.19.88.2a1.14,1.14,0,0,1,0,.83c-.16.37-.54.4-.88.2-.85-.5-1.56-.1-2.56.23,2.64,2.91,5.58,4.33,9.3,4,.49-.05.68-.23.74-.73.08-.8-.06-1.35-1-1.49a1.44,1.44,0,0,1-1.42-1.76c.09-.73-.23-1.05-.9-1.2a3.32,3.32,0,0,1-2.78-2.71,2,2,0,0,0-.36-.76c-1.55-2.08-1.55-4.36-.92-6.73a21.35,21.35,0,0,1,2.07-4.72,22.73,22.73,0,0,0,1.33-3,24.94,24.94,0,0,0,1.39-6.3,2.55,2.55,0,0,1,.51,2.55,19.63,19.63,0,0,1-2.32,7.16,17,17,0,0,0-1.54,3.26c-.8,2.32-1.17,4.65,0,7a5,5,0,0,1,3-1.11,6.83,6.83,0,0,1,2.55.26,5.32,5.32,0,0,0,2.54,0c2-.49,3.94-.59,5.66.92a8.39,8.39,0,0,0,.48-5.34,18.58,18.58,0,0,0-2.16-5.23,18.94,18.94,0,0,1-2.2-7,2.35,2.35,0,0,1,.53-2.44,24.83,24.83,0,0,0,3.45,10.69A12.65,12.65,0,0,1,53.44,50c.53,2.25.55,4.45-.94,6.41a2.11,2.11,0,0,0-.43.92A3.23,3.23,0,0,1,49.41,60c-.73.17-1.07.49-1,1.3a1.4,1.4,0,0,1-1.35,1.66,2.27,2.27,0,0,0-.65.22c-.63.3-.35.89-.38,1.37s.37.6.8.65c3.06.39,5.62-.77,7.94-2.59a2.25,2.25,0,0,0,1-1.47c-.84-.27-1.58-.62-2.38-.1a.5.5,0,0,1-.75-.16.94.94,0,0,1,0-1c.18-.3.46-.24.76-.16.72.17,1.45.31,2.17.47.38.09.79.31,1-.22s.35-.69-.23-1.1-.47-1.1.31-1.31c.58-.16.77-.43.78-.93s.16-1-.22-1.51c-.15,0-.35,0-.47.11-.71.57-1.47,1.08-1.6,2.13a.64.64,0,0,1-.95.43c-.39-.17-.43-.47-.29-.85a1.46,1.46,0,0,1,.62-.9c1.71-1.12,3.46-2.25,3.85-4.53,0-.33.15-.65.21-1a6.58,6.58,0,0,1,2.63-4.48c.42-.3.8-.66,1.2-1,3-2.34,3.61-5.39,3-9a15.61,15.61,0,0,0-2.65-5.54c-1.14-1.82-.95-3.16.65-4.55a10.31,10.31,0,0,1,1.25-.92,4.61,4.61,0,0,0,1.76-2.27A12.51,12.51,0,0,0,67,16.22a3.41,3.41,0,0,0-1.1-2.09c-.4-.34-.78-.5-1.13.08a9.28,9.28,0,0,1-4.26,3.36,5.59,5.59,0,0,0-3.33,4.31,5.66,5.66,0,0,1-2.51,3.76,12.69,12.69,0,0,1-2,1.28c-.73.36-.95,1.23-1.69,1.66a1.52,1.52,0,0,1,.52-2A13.06,13.06,0,0,1,53,25.45a6.28,6.28,0,0,0,3.06-4,9.37,9.37,0,0,1,2.4-4.12c.09-.11.27-.29.25-.31-.2-.25-.33-.07-.44.11l-.59.11c-.08.07-.2.22-.22.2-.22-.13-.1-.27,0-.4h0c.95-1,1.91-2,2.86-3a6.89,6.89,0,0,0,2-3.54A31.85,31.85,0,0,1,63.3,6.9,4.18,4.18,0,0,0,63,3.6a9.8,9.8,0,0,1-1,3.2c-.44-.85.54-1.62,0-2.52C61,5.36,60.31,6.39,60.77,8a6.35,6.35,0,0,1-1.1,5.4,11.94,11.94,0,0,1-5.74,4.77A8.42,8.42,0,0,0,49,22.47c0,.05-.19,0-.28.06-.2-2.91.25-4.21,2.18-6.22.51-.53,1.07-1,1.62-1.53a10.55,10.55,0,0,0,3-5.13c.43-1.62,0-2.44-1.66-3.23a.49.49,0,0,0-.05.16,2.88,2.88,0,0,0,.1.51,6.24,6.24,0,0,1-1.42,6.39A15.41,15.41,0,0,1,48.32,17a4.21,4.21,0,0,0-2.16,3.87,10.81,10.81,0,0,0,.32,2.38,7.16,7.16,0,0,1,.21,2.21c-.12,1.31-.85,2.4-1.6,2.41s-1.47-1.09-1.6-2.4a9.25,9.25,0,0,1,.32-2.72c.52-2.8.1-4.72-2.68-6.21a12.53,12.53,0,0,1-3.93-3.57,6,6,0,0,1-1.11-5.51c.1-.36.36-.71.11-1.12-2,1.39-2.1,1.82-1.42,4a10.55,10.55,0,0,0,3.16,4.84A19.17,19.17,0,0,1,40,17.17a7,7,0,0,1,1.46,5.35c-.24.11-.31.06-.37-.08a8.28,8.28,0,0,0-4.89-4.31,11.77,11.77,0,0,1-5.33-4.22,6.79,6.79,0,0,1-1.44-6.14c.45-1.56-.33-2.46-1.27-3.52-.35,1,.36,1.76.22,2.59-1-.8-.72-2.1-1.23-3.11A2.33,2.33,0,0,0,26.68,5.68ZM50.62,18.53l.15-.25C50.57,18.25,50.48,18.29,50.62,18.53Zm-1,48.36-.07-.39c-.79,0-1.59,0-2.38,0-1.42-.07-1.64-.28-2-1.7-.42,1.44-.64,1.63-2.09,1.7-.4,0-.8,0-1.2,0a2.87,2.87,0,0,0-1.54.28c2,1,3.85.7,5.62.7C47.13,67.49,48.48,67.69,49.58,66.89ZM48,68.75s-.05.13,0,.14.24.19.38.07A.28.28,0,0,0,48,68.75Zm-4.48.42c-.06,0,0,.13.07.19S43.84,69.1,43.54,69.17Zm-1.39-.43c-.18,0-.27.06-.32.22.15.08.27,0,.39-.1S42.18,68.75,42.15,68.74ZM45.05,62h.52c1.47,0,1.48,0,1.56-1.43a1.8,1.8,0,0,1,1.25-1.67,12.06,12.06,0,0,0,1.56-.68,1.18,1.18,0,0,0,.71-1.26,1.26,1.26,0,0,0-1.19-1,6,6,0,0,0-2.38.14A7.1,7.1,0,0,1,43,56a4.67,4.67,0,0,0-2.54-.06A1.14,1.14,0,0,0,40,58a4.33,4.33,0,0,0,1.53.73,1.89,1.89,0,0,1,1.45,2C42.93,62,43,62,44.37,62ZM23.55,25.17c-.11.11-.09.19.06.23a.23.23,0,0,0,.16,0C23.77,25.24,23.69,25.17,23.55,25.17ZM17.6,5.59A6.15,6.15,0,0,0,20.37,9c1.46.91,2.93,1.84,3.66,3.52.11.25.26.56.61.49,1-.2,1.39.56,1.94,1.13a10.55,10.55,0,0,0,4.56,2.67,7.63,7.63,0,0,0-1.31-1.35,6.56,6.56,0,0,1-2.38-3.31c-.46-2-1.82-3-3.44-3.79-2-1-4.22-1.78-6.2-2.93-.09-.11-.2-.28-.34-.14S17.46,5.51,17.6,5.59Zm-8.93,10a6.51,6.51,0,0,0,5.68,3.3A15,15,0,0,1,21.81,21a31.54,31.54,0,0,0,.05-3.37,5.29,5.29,0,0,1,1.05-3.39c.77-.81.48-1.4-.1-2A9.89,9.89,0,0,0,21.56,11c-.82-.62-1.69-1.19-2.53-1.79a9.68,9.68,0,0,1-2-2.78,7.38,7.38,0,0,0,.81,3.84c.49,1.09,1.52,1.86,2,3.23-2.12-.14-3.71-1.27-5.47-2.21a8.17,8.17,0,0,0,3,4.21c.3.26.76.45.68.91s-.68.57-1.1.66a7.43,7.43,0,0,1-2.4,0,18.28,18.28,0,0,1-4.3-1.18C9.73,15.74,9.31,15.31,8.67,15.6Zm13.2,5.57H22c0-.14,0-.17-.14-.13C21.93,21.2,21.66,21.12,21.87,21.17Zm-6.12,6.45a3.37,3.37,0,0,0,1.09.5c2.95.72,5.79,1.66,8,4,.66-.85,1.18-1.61,1.78-2.3a1,1,0,0,0,0-1.52,3.71,3.71,0,0,0-1.09-.83,10.54,10.54,0,0,0-4.79-1.22,11.8,11.8,0,0,1-3.86-.78c-2.15-.88-4.09-2.06-5.09-4.32l.16-.17a9,9,0,0,1,1.92,1.39,15.09,15.09,0,0,0,9.75,2.79,8.58,8.58,0,0,0-7.65-4.92c-2.69-.14-5.37-.51-7.35-2.83C8.27,18.42,9.2,19,9,20c-.68-.5-.64-1.34-1.28-1.7,0-.21-.09-.43-.13-.64,0,0-.16.09-.16.14,0,.21-.06.46.24.54a5,5,0,0,0,1.45,3.39A32.66,32.66,0,0,0,15.75,27.62ZM8.85,43a6.5,6.5,0,0,1,2.44-1.25,18.12,18.12,0,0,1,7.43-1.17,18.6,18.6,0,0,1,4.88.59c-.53-1.1-.52-1.13-1.33-1.46a20.72,20.72,0,0,0-9.22-1.79,1.83,1.83,0,0,1-1.14-.08c2.49-1.57,6.57-1.3,11.17.63.47-2.4.31-2.72-1.8-3.71-.42-.19-.85-.35-1.28-.51a18.49,18.49,0,0,0-8-.79,5,5,0,0,1-.86,0c-.28,0-.65.16-.87-.32A14.19,14.19,0,0,1,23.74,34.6c.34-1.43.33-1.5-.53-2.22a11.5,11.5,0,0,0-4-1.93,19.57,19.57,0,0,1-4.07-1.78,6.57,6.57,0,0,0-5.61-.35c1.35.74,2.9.55,4.15,1.79a13.09,13.09,0,0,0-2.49.58,15.31,15.31,0,0,1-8,2,8.12,8.12,0,0,0,3.61,1.82c1,.25,2,.46,3,.71.32.08.69.18.73.61a.83.83,0,0,1-.52.81,9.31,9.31,0,0,1-2.38,1,19.61,19.61,0,0,1-4,.32,5,5,0,0,0,1.82.66c.51.09,1,.21,1.52.31s.8.24.88.7-.29.72-.61.95c-.57.39-1.16.75-1.73,1.14a20.92,20.92,0,0,0-2.1,1.49,5.77,5.77,0,0,0-2,4,27.23,27.23,0,0,1,2.76-1.54C5.82,45,7.54,44.4,8.85,43Zm3.56,5.87a16.29,16.29,0,0,1,9-5.64,8.17,8.17,0,0,0-3.24.24,25.36,25.36,0,0,0-3,.72,12.1,12.1,0,0,0-2.67,1.21A22.21,22.21,0,0,0,10,47.24,8,8,0,0,1,7.74,49c3.18-5.45,8.45-6.75,14.2-7.1l-1.53-.13a19,19,0,0,0-9.1,1.42c-2.31,1-4.37,2.31-5.47,4.73a12.59,12.59,0,0,0-.64,8.25c0,.15.14.18.31.08a9.58,9.58,0,0,1,3-3.64A21.65,21.65,0,0,0,12.41,48.87Zm-2.13,7.42a11.94,11.94,0,0,1,4-4.82,25,25,0,0,0,4.8-4.39,6.86,6.86,0,0,1,6.05-2.52,5.18,5.18,0,0,0-3.55-.19A17.82,17.82,0,0,0,10.15,54.69a2.9,2.9,0,0,0-.32,2.11C10.14,56.74,10.19,56.48,10.28,56.29Zm5.4-1.54a21.2,21.2,0,0,1,2.75-4.15,11.45,11.45,0,0,1,6.16-3.85,22.26,22.26,0,0,1,2.55-.25,2.23,2.23,0,0,0-2.32-1.27,6,6,0,0,0-4.59,2,32,32,0,0,1-6,5.59A7.35,7.35,0,0,0,13,54a9.78,9.78,0,0,0-2.53,6.33c1-.95,1.87-1.81,2.8-2.55A9.39,9.39,0,0,0,15.68,54.75Zm-.47,11.31-.08-.13S15,66,15,66s0,.08.07.12ZM29.65,79.65c.34-.05.15-.43.06-.68-.26-1.19.24-2.47-.35-4a6.44,6.44,0,0,0,0,4C29.37,79.26,29.39,79.69,29.65,79.65Zm.39,1c.14,0,.18-.13.07-.38,0,0-.12-.24-.21-.24a.24.24,0,0,0-.18.37C29.78,80.52,29.8,80.73,30,80.65Zm.36.61L30.27,81s-.11.09-.11.11a1,1,0,0,0,.11.24Zm8.92-14c-.2-.4-.39-.88-.65-1.32a1.16,1.16,0,0,0-1.57-.6c-2.91,1.19-6,2.06-8.31,4.36-.1.09-.26.27-.3.25-.26-.14-.09-.33,0-.49h0c1.73-2.9,4.6-4,7.85-4.68a8.49,8.49,0,0,1-1.76-1.39A3.05,3.05,0,0,0,30.8,62a3.46,3.46,0,0,1,1.06-.75.74.74,0,0,0,.39-.84c-.39-2.35-1-2.93-3.42-3.17l-.68,0c-.8-.07-1.6-.19-2.4-.2s-1.46.07-2.19.12c2.53-1.11,5.13-.66,7.74-.34a6.35,6.35,0,0,0,0-1.62A1.87,1.87,0,0,0,30,53c-1-.39-2-.85-3.09-1.34,1.51-.16,2.61.71,3.89.94-.13-2-.13-2-1.9-2A13.31,13.31,0,0,0,23,52.37a4.5,4.5,0,0,1-2,.82,10,10,0,0,1,9-3.58c-.57-1.33-.73-1.5-1.82-1.63a9.09,9.09,0,0,0-6.72,1.46,14.09,14.09,0,0,0-3.87,4.09,42.74,42.74,0,0,1-2.41,3.56,6.46,6.46,0,0,0-1.51,4.42,1.3,1.3,0,0,0,.25-.06c.62-.29.92-1.53,1.74-1,.63.42-.14,1.23-.2,1.88-.1,1.07-.48,2.14-.06,3.29.85-.64,1-1.76,2.44-2.23-1.27,3.18-2.2,6.11-.89,9.37.24-1.27.09-2.36.25-3.44.24-1.64,1.16-3,1.63-4.52A6.91,6.91,0,0,1,22,60.74l.34-.21c.14-.13.28-.2.41,0a1.94,1.94,0,0,1-.22.19.38.38,0,0,1-.28.41c-.3.41-.58.85-.9,1.24a8,8,0,0,0-1.7,4.73c-.18,3.13,1.54,5.57,2.44,8.62a3.47,3.47,0,0,0,.09-2.62,5.21,5.21,0,0,1-.31-2.37c.65-3.81,2.26-7,5.64-9.2.14-.1.31-.22.44-.07s-.05.28-.2.34a17.25,17.25,0,0,0-4.08,7.08,5.75,5.75,0,0,0-.24,4,26,26,0,0,0,4.38,7.38c.23.25.37.7.87.58a2.55,2.55,0,0,0-.15-1,10.24,10.24,0,0,1,.41-6.26c.24-.53.26-1.46,1-1.36s.38,1,.51,1.51c0,.17.1.21.35,0C32.57,70.37,36,69,39.32,67.29Zm.35,17.14c0-.17,0-.32-.23-.28l.14.42S39.67,84.48,39.67,84.43Zm9.65.54-.13-.12-.11.13.18.12Zm1.46-.82c-.1-.07-.18-.06-.2,0a.4.4,0,0,0,.07.2Zm8.16-8.24a11.25,11.25,0,0,0-4.9-6,5.78,5.78,0,0,0-3.09-1c2.17,2.62,4.3,5.09,3.88,8.65A15.45,15.45,0,0,0,52,71.8,7.26,7.26,0,0,0,48.39,69c-.14.52.35.77.56,1.12a10.75,10.75,0,0,1,1.67,4.29,1.48,1.48,0,0,1-.42,1.36c-.31-2.89-1.8-5.59-3.6-6.46.19,1.79.77,3.53.2,5.32-.43-2-.55-4.18-1.74-6.28-1.16,2.17-1.22,4.3-1.73,6.66a13.5,13.5,0,0,1,.28-5.62c-.79-.3-1.06.43-1.38.85a10.55,10.55,0,0,0-2.29,5.62,1.67,1.67,0,0,1-.4-1.62,12.81,12.81,0,0,1,1.39-3.68c.29-.52.9-.87.87-1.55a7.75,7.75,0,0,0-3.87,3.18,15.4,15.4,0,0,0-2.58,5.38c-.48-3.57,1.75-6,3.8-8.6-3,.1-6.08,3.22-7.36,5.57A6.06,6.06,0,0,0,34.49,83c.79.33,1.56.73,2.33,1.09.17.08.36.3.5,0,0-.07-.14-.23-.22-.35s-.08-.21-.13-.32c-.13-.28-.46-.58-.07-.88s.63,0,.92.19c.63.36.9,1.12,1.58,1.42.12-.63-.42-1-.65-1.46s-1.14-1.07-.5-1.56,1.07.43,1.47.85c1,1.08,2,2.21,3.17,3.52-.17-1.08-.3-1.87-.4-2.66,0-.27-.1-.61.25-.73s.63.21.75.52A11.74,11.74,0,0,1,44,84.22c.36,1.73.7,3.46,1,5.19a15.53,15.53,0,0,0,.61-2.51,22.87,22.87,0,0,1,1-4.16c.15-.38.31-.82.82-.67s.24.56.25.88c0,.77-.48,1.49-.2,2.43a27.78,27.78,0,0,1,3.1-3.56c.38-.37.79-1.16,1.36-.73s-.27,1-.37,1.46c-.36.48-.92.86-.77,1.57A4.12,4.12,0,0,0,52,82.9l.57-.34c.24-.14.51-.26.76,0s0,.58-.09.86c0,.1-.09.2-.14.3s-.24.3-.21.38c.15.29.35.08.52,0,1-.51,2.1-1,3.07-1.54A5.86,5.86,0,0,0,58.94,75.91Zm1.59-.72a12.67,12.67,0,0,1-.9,6.23C61.05,80.19,61.51,77,60.53,75.19Zm16-13.72a6.79,6.79,0,0,0-1.43-4.31,28,28,0,0,1-2.51-3.7A12.17,12.17,0,0,0,70.68,51a9.54,9.54,0,0,0-8.38-3.08c-1.33.19-1.62.37-2,1.61,4.53.1,7.09,1.16,8.64,3.72-.72-.37-1.27-.63-1.8-.92a13.74,13.74,0,0,0-6.6-1.7c-.68,0-1.12.14-1.12.92,0,.32-.19.66.09,1,1.14-.08,2.12-1.05,3.59-.73-.74.28-1.28.46-1.8.67-2.46,1-2.62,1.29-2.48,4,0,.09.1.19.16.28,2.57-.31,5.15-.8,8.08.29a4.46,4.46,0,0,1-.9.1,19.34,19.34,0,0,0-6.48.37,1.21,1.21,0,0,0-1.16,1,3.49,3.49,0,0,1-.38,1.14c-.58.93,0,1.45.65,1.94.21,0,.54.15.46.31-.18.31-.46.07-.68-.06h0c-.59-.12-1.18-.52-1.7.17a12,12,0,0,1-3,2.65c1.52.61,3,.69,4.32,1.5a9.06,9.06,0,0,1,3.25,2.93l.22.3h0c.11.16.27.34,0,.51,0,0-.2-.15-.31-.24a.41.41,0,0,1-.36-.33,17.36,17.36,0,0,0-5.68-3.13,17.51,17.51,0,0,1-2.09-.78c-.89-.36-1.35-.25-1.81.59-.23.42-.63.81-.58,1.24,3.4,1.68,6.79,3.2,8.84,7,.05-.78.07-1.12.08-1.46a.71.71,0,0,1,.42-.7c.44-.13.53.31.68.6a10.26,10.26,0,0,1,.77,6.87c-.08.42-.32.82-.11,1.28.47-.09.66-.48.91-.77a31.55,31.55,0,0,0,3.64-5.82,6.32,6.32,0,0,0,.37-5.46,17,17,0,0,0-3.59-6.59c-.2-.12-.4-.24-.45-.5-.15-.06-.34-.15-.19-.33s.3,0,.43.08h0a1,1,0,0,1,.61.44c2.64,1.84,4,4.53,4.81,7.5a6.38,6.38,0,0,1-.1,3.57c-.32,1.12-.31,1.13.06,2.71.53-1.42,1-2.69,1.5-4,1.48-3.57,1.56-7-1.26-10.08a7.47,7.47,0,0,1-.67-1c-.14-.05-.3-.14-.17-.3s.27,0,.39.08h0a5.91,5.91,0,0,1,2.72,2.55c1,2.29,2.29,4.51,2.56,7.08a9.35,9.35,0,0,0,.23,2.59A11.5,11.5,0,0,0,73.85,68c-.18-1.5-1-2.83-1.22-4.55,1.26.48,1.38,1.82,2.44,2.4a14.87,14.87,0,0,0-.57-4.4c-.12-.36-.4-.78.08-1.06s.72.18,1,.41S76.07,61.46,76.53,61.47Zm3.14-1.32A9.45,9.45,0,0,0,76,52.87a36.91,36.91,0,0,1-6-5.61,6,6,0,0,0-4.74-2,2.05,2.05,0,0,0-2.18,1.31c4.72-.06,7.8,2.45,10.17,6.12.62,1,1.15,2,1.75,3A4.38,4.38,0,0,0,76,57C77.29,57.94,78.44,59,79.67,60.15Zm0-6.23a18.91,18.91,0,0,0-8.41-8.57A7.32,7.32,0,0,0,65,44.57,6.73,6.73,0,0,1,71,47a21.13,21.13,0,0,0,3.29,3.26c2.52,1.82,4.91,3.76,6.06,6.83A5.05,5.05,0,0,0,79.7,53.92Zm1.82-9.29a17.15,17.15,0,0,0-3.34-1.75,20.57,20.57,0,0,0-9.86-1c1.29.17,2.71.33,4.13.55a13.71,13.71,0,0,1,10.27,6.72c.1.16.26.33,0,.49,0,0-.18-.17-.27-.26-1.11-1-2.19-2-3.35-2.95-3-2.39-6.52-3.07-10.2-3.25a17.87,17.87,0,0,1,10.16,7.44,1.6,1.6,0,0,0,.57.61,12,12,0,0,1,5.23,5.36,13.52,13.52,0,0,0,.07-7A8.11,8.11,0,0,0,81.52,44.63Zm7.4,2.73a6.61,6.61,0,0,0-2.63-4.56c-1.08-.75-2.21-1.45-3.3-2.19-.33-.22-.72-.47-.67-.93s.56-.64,1-.78a8.85,8.85,0,0,0,3.12-1c-.85,0-1.37,0-1.88,0a9.06,9.06,0,0,1-4.42-1.27c-.29-.18-.59-.41-.52-.81s.43-.5.77-.58c1.11-.27,2.24-.48,3.34-.8A7.19,7.19,0,0,0,87,32.72a15.68,15.68,0,0,1-8-2,3.14,3.14,0,0,0-1.48-.42c-.31,0-.72.09-.78-.57,1-.72,2.48-.68,3.85-1.42a6.35,6.35,0,0,0-5.4.3,25.48,25.48,0,0,1-5,2.13,9.79,9.79,0,0,0-3.45,1.89,1.17,1.17,0,0,0-.1,1.91,13.67,13.67,0,0,1,13.27-1.24c-1.41.08-2.83.12-4.25.07a15.26,15.26,0,0,0-6.85,1.47c-2,.93-2.18,1.35-1.64,3.61,4.91-2,9.27-2.19,11-.51-5.92,0-10.58,1.18-11.5,3.09,1.4-.16,2.74-.38,4.11-.42,4.54-.14,8.83.45,12.26,3.85a1,1,0,0,0,.42.28A15,15,0,0,1,88.92,47.36ZM56.37,29c-.91-1-.2-2.05.24-3a8.55,8.55,0,0,1,3.1-3.61,8.65,8.65,0,0,0,3.84-4.87,2.77,2.77,0,0,1,.22-.46c.2-.42.4-.92.94-.88s.77.64.89,1.13A8.88,8.88,0,0,1,66,19.94a4.8,4.8,0,0,1-2.2,4.22c-.52.35-1.08.66-1.58,1a2.84,2.84,0,0,0-1.41,2.24c0,1-.66,1.38-1.51,1.58S57.21,29.85,56.37,29Zm.77-.7c.39.5,1,0,1.45,0a4.05,4.05,0,0,0,.85-.12c.36-.08.67-.22.64-.67-.12-2,1.21-3,2.63-3.91,2.38-1.62,3-3.62,1.93-6.51-.28,0-.37.25-.42.46A9.42,9.42,0,0,1,60,23.19a8.4,8.4,0,0,0-2.71,3.3C57.05,27.06,56.68,27.68,57.14,28.25ZM27.35,24.78l-.59-.37a5,5,0,0,1-2.54-5.22,7.89,7.89,0,0,1,.55-2.5c.36-.78.92-.82,1.41-.1a5,5,0,0,1,.59,1.24A7.72,7.72,0,0,0,30,21.93a10,10,0,0,1,3.77,4.36,4.33,4.33,0,0,1,.45,1.41c0,1.14-.47,1.63-1.36,1.66a6.11,6.11,0,0,1-2.66-.59,1.18,1.18,0,0,1-.78-1.05C29.42,26.24,28.43,25.48,27.35,24.78Zm.93-.63a3.59,3.59,0,0,1,1.8,3.12c0,.58.23.9.76.9.77,0,1.7.73,2.25,0s-.15-1.51-.52-2.21a11.94,11.94,0,0,0-3.67-3.78,6.6,6.6,0,0,1-2.54-3.55A3.66,3.66,0,0,0,25.52,17c-1,3.44-.52,4.92,2.2,6.81ZM60.57,35a7.09,7.09,0,0,0,3.35,1.28,1.27,1.27,0,0,1,1,.51c-1.58.87-3,.3-4.57-.39a4.39,4.39,0,0,1-1.67,3.12,3.39,3.39,0,0,1-2.14.52c-1.8-.12-2.72-1.05-3.32-3.42-1.29.35-2.42,1.42-4.05,0,2,.11,3.26-.91,4.61-1.68A6.19,6.19,0,0,1,60.57,35Zm-1.5,1.58c0-1.07-.62-1.5-2.06-1.48s-2.59.92-2.54,2.19A2.08,2.08,0,0,0,56.71,39,2.28,2.28,0,0,0,59.07,36.6ZM36.8,35.17a7.06,7.06,0,0,0,3.92,1.58c-1.31,1.38-2.53.19-3.94-.23-.08,1,0,2-.85,2.62a4.27,4.27,0,0,1-2.36.92c-1.92.06-2.92-.86-3.74-3.49-3,.87-3,.87-4.45.08,2-.32,3.7-1.48,5.52-2.26A6.1,6.1,0,0,1,36.8,35.17ZM35.67,37.5a2.13,2.13,0,0,0-2.15-2.37c-.11,0-.23,0-.59,0-.56,0-1.42,0-1.76.94a2.36,2.36,0,0,0,1.59,2.86C34,39.27,35.53,38.52,35.67,37.5Zm-.28-4.61L38,34.2a2.8,2.8,0,0,0,2.48.07c-2.13-.4-3.6-1.52-5.26-2.21a5.34,5.34,0,0,0-3.34-.51,18.11,18.11,0,0,0-5.28,2.62A6.15,6.15,0,0,0,30.3,33,5.11,5.11,0,0,1,35.39,32.89Zm16.8,1.3,2.61-1.31a5.08,5.08,0,0,1,5.1.12,18.57,18.57,0,0,0,1.84.92,1.94,1.94,0,0,0,1.88.09c-1.23-.64-2.45-1.3-3.69-1.92A5.48,5.48,0,0,0,55.11,32c-1.71.73-3.24,1.87-5.33,2.3A2.67,2.67,0,0,0,52.19,34.19Zm-3.12-4.88a.53.53,0,0,0,.4-.57,5,5,0,0,1,2.12-3.57,5.22,5.22,0,0,0,1.67-1.67c.16-.06.3-.16.17-.32s-.27,0-.39.09a12.82,12.82,0,0,0-4.25,3.2C48.75,27.43,48.32,28.44,49.07,29.31Zm-.3-2.81,0,0h0l0,0ZM47.91,30c.53-.08.23-.65.29-1,.14-.84-.18-1.78.56-2.47-.56-.74.32-1.49.07-2.41a4.45,4.45,0,0,0-1.34,2.12A4.6,4.6,0,0,0,47.11,29C47.24,29.45,47.34,30.07,47.91,30Zm-6-.49a.4.4,0,0,0,.31.51.47.47,0,0,0,.54-.31,2.25,2.25,0,0,0,.38-1.3A7,7,0,0,0,41.22,24C41.49,26,42.27,27.69,41.93,29.49ZM28.59,7.09c0-.06-.11-.12-.19-.17a.41.41,0,0,0,0,.25C28.48,7.28,28.6,7.24,28.59,7.09Zm-.19-.17v0h0l0,0a.11.11,0,0,0,0,0Zm9.82,18a5.73,5.73,0,0,1,2.58,4.28c0,.05.18.08.28.12a3,3,0,0,0-.77-3.91,11.29,11.29,0,0,0-3.16-2.07h0c-.11-.12-.25-.26-.38-.11s0,.26.16.32A3.74,3.74,0,0,0,38.22,24.87Zm43.11-5.71h0a.74.74,0,0,0-.16.85c.31-.11.36-.37.38-.65.26-.2.54-.51.18-.73S81.41,18.93,81.33,19.16Zm-.28.93.06,0s0,0,0-.07S81,20.08,81.05,20.09Zm.09-.05h0s0,0,0,0h0Zm-69.48.73c-.2.14-.1.26.05.38l.16-.17C11.8,20.91,11.68,20.76,11.66,20.77ZM7.4,49.42a1.15,1.15,0,0,0,.1.23l.12-.12-.12-.22S7.39,49.4,7.4,49.42ZM48.9,13.85s-.17.1-.21.18c-.21.41.15.34.34.41C49,14.25,49.23,14,48.9,13.85Zm.15.65,0,0a.1.1,0,0,0,0,0A.08.08,0,0,0,49.05,14.5Zm7.63,21.38a1.28,1.28,0,0,0-1.16,1.23,1.16,1.16,0,0,0,1.16,1.2A1.28,1.28,0,0,0,58,37.22,1.44,1.44,0,0,0,56.68,35.88Zm-23.08,0a1.4,1.4,0,0,0-1.38,1.22,1.22,1.22,0,0,0,1.16,1.21,1.16,1.16,0,0,0,1.27-1.08A1.37,1.37,0,0,0,33.6,35.88Z"/><text class="cls-1" transform="translate(18.01 124.48)"><tspan class="cls-2">L</tspan><tspan x="11.87" y="0">eo</tspan></text></g></g></svg>