<svg xmlns="http://www.w3.org/2000/svg" viewBox="0 0 89.64 128.65"><defs><style>.cls-1{font-size:25.91px;font-family:MyriadPro-Regular, Myriad Pro;}.cls-2{letter-spacing:-0.02em;}.cls-3{letter-spacing:-0.01em;}</style></defs><title>Asset 388</title><g id="Layer_2" data-name="Layer 2"><g id="Layer_1-2" data-name="Layer 1"><path d="M52.22,71.13a2.41,2.41,0,0,0-.67-1.65,13.69,13.69,0,0,1-2.23-3.07,13,13,0,0,0-2.6-3,28.84,28.84,0,0,0-9-5.06c-.49-.18-.85-.28-1.05-.86a9,9,0,0,0-3.49-4.3,32.58,32.58,0,0,0-4.69-2.79c-.61-.31-1.32-.51-1.7-1.18a8.45,8.45,0,0,1,1.86-.82,8,8,0,0,0,5.18-8.83c-.23-1.67-1-3-2.74-3.31a3.06,3.06,0,0,1-2.2-1.53c-.53-.8-1.14-1.6-2.27-1.26s-1,1.31-1.18,2.16c-.27,1.41-.18,2.86-.5,4.27-.49,2.14-1.42,4.18-1.21,6.58a2.27,2.27,0,0,1-1.14-1.22,16,16,0,0,1-1.95-6.44c-.29-3.51,1.14-6.56,2.59-9.6.17-.36.57-.28.84-.45a19.6,19.6,0,0,0,5.75-4.66c2.63-3.53,2.81-7.21.4-10.88a4.22,4.22,0,0,1-.62-3.3c.2-1.09.46-2.16.58-3.25A4.43,4.43,0,0,0,29,3c-.11-.12-.23-.22-.37-.16.14-.29-.21-.42-.38-.57a9.6,9.6,0,0,0-12.46,0,7.65,7.65,0,0,0-2.64,5.5,9.7,9.7,0,0,1,3-2.53,4.73,4.73,0,0,1,7.13,3.86,6.74,6.74,0,0,1-1.6,4.74,48.38,48.38,0,0,1-3.38,3.63,5.63,5.63,0,0,0-.91,7.25c.17.31.29.5,0,.86-2.74,3.73-5.1,7.71-7.66,11.58-4,6-6,12.57-5.14,19.9a27.58,27.58,0,0,0,11.6,19.8c1.33,1,1.42,1.36.42,2.63a15.84,15.84,0,0,1-2.49,2.42c-1.11.91-2.19,1.85-3.28,2.79a1.52,1.52,0,0,0-.54,1.78,1.66,1.66,0,0,0,1.56,1,6.42,6.42,0,0,0,1.16,0,2.56,2.56,0,0,1,2.32,1A11.49,11.49,0,0,0,17,90.14a3.94,3.94,0,0,0,6.18-1.28,5.49,5.49,0,0,0,.72-2.52,12.1,12.1,0,0,0-1.16-5c-.13-.15-.28-.32-.08-.49s.25.06.39.1a100.67,100.67,0,0,1,9.46,4.32,6,6,0,0,0,3.33.81,30.6,30.6,0,0,0,3.46-.2A14.24,14.24,0,0,0,44,84.63a18.61,18.61,0,0,0,6.12-5.22A11.57,11.57,0,0,0,52.22,71.13ZM40.77,60.66a4.44,4.44,0,0,1,.82.8c.88,1,1,1.73.48,2.51a2.37,2.37,0,0,1-3,.73l-.47-.17c-.22-.11-.46-.2-.54-.47a1.28,1.28,0,0,1-.39-.29,2.29,2.29,0,0,1-.22-3A2.67,2.67,0,0,1,40.77,60.66ZM25.06,43.37a22,22,0,0,0,1.16-7.32,1,1,0,0,1,0-.17c0-.65,0-1.47.71-1.67s1,.57,1.27,1.08a3.24,3.24,0,0,0,2.69,1.92,1.89,1.89,0,0,1,1.57,1.52,6.63,6.63,0,0,1-2,6.9A19,19,0,0,1,28.59,47c-.55.34-1.13.63-2,1.11.58-1.77,2.11-2.51,2.64-4.06-.62,0-.8.47-1.08.75a13,13,0,0,1-2.63,2.66c-.25-.7.23-1.23.53-1.74.77-1.37,1.66-2.68,2.46-4,.28-.47.86-.86.61-1.54A33.88,33.88,0,0,0,24.73,46,6.31,6.31,0,0,1,25.06,43.37Zm1.34,4.91c-.2.23-.39.65-.74.31-.12-.12.18-.45.45-.54.07-.16.2-.34.33-.27C26.74,47.93,26.54,48.12,26.4,48.28Zm-.91-.85-.16.23a.31.31,0,0,1,0-.15C25.33,47.37,25.4,47.35,25.49,47.43Zm-3-21.33a.72.72,0,0,1-.27-.73A6.83,6.83,0,0,1,23.76,22a17.28,17.28,0,0,0,3.3-6.22c1.1,2.27,1.23,4.45-.27,6.55a15.38,15.38,0,0,1-3.58,3.62C23,26.08,22.78,26.3,22.48,26.1ZM25.26,1.2c.14.07.27.17.41.25,1.06.3,1.79,1.21,2.81,1.59a6.05,6.05,0,0,1,.72,5.62,9,9,0,0,0-.31,1.46,4.8,4.8,0,0,0,.72,3.46,8,8,0,0,1-.45,10.1,12.35,12.35,0,0,1-5.28,3.87c-.23.1-.52.26-.69-.11a.62.62,0,0,1,.14-.76c.26-.2.57-.34.84-.53a12.62,12.62,0,0,0,4-5,4.76,4.76,0,0,0,.16-3.73c-1.1-2.7-.73-5.38-.39-8.13a9.74,9.74,0,0,0-1.13-5.9c-.13-.22-.21-.64-.64-.44.11-.33.06-.5-.32-.33.28-.48-.37-.57-.42-.91l-.61-.07c-.11-.17-.32-.41-.28-.48C24.75.92,25,1.08,25.26,1.2ZM23.71.74,24,.88a1,1,0,0,1-.28.08,1.15,1.15,0,0,1-.29-.08Zm-1,.5c.71.14,1.32.74,2.11.48,0,.65.53.77,1,1,0,.23.1.35.34.34a11.46,11.46,0,0,1,1.28,7c-.4,2.22-.82,4.44-1.4,6.61a13.65,13.65,0,0,1-2.55,4.43,8.49,8.49,0,0,0-2,4.3A2.58,2.58,0,0,1,21,22.9a8.94,8.94,0,0,1,1.63-3.59c.75-1,1.54-2,2.2-3.11a11.64,11.64,0,0,0,1.73-8.86,6.9,6.9,0,0,0-1.19-2.7c-.18-.25-.37-.55-.75-.39a.19.19,0,0,0-.06.3c2.51,3.66,1.82,7.31-.1,10.92a22.54,22.54,0,0,1-1.79,2.59c-2,2.72-2.31,3.5-2.51,6.63-.42.34-.73-.47-1.14-.21.16-.22,0-.43-.13-.62a3.85,3.85,0,0,1,.26-3.94,17,17,0,0,1,2.79-3.48,12.27,12.27,0,0,0,3.12-5c.72-2.31.6-4.53-1.17-6.41,0-.24-.1-.35-.33-.35,0-.23-.12-.33-.34-.33l-.35-.64c-.14,0-.34-.07-.21-.25s.27,0,.35.13l1.2.51c.35-.4,0-.59-.23-.78a5.76,5.76,0,0,0-4.34-1.1l-1.56.22A5.07,5.07,0,0,1,22.73,1.24Zm.84,10.87a6.26,6.26,0,0,0-.34-5.41A5.19,5.19,0,0,0,17.5,4.06a3.68,3.68,0,0,1-1.27.29.3.3,0,0,1-.35.25s-.12-.16-.11-.17.25-.21.43-.12a4.23,4.23,0,0,1,5.59-.6c.41.28.66,1,1.37.65,0,.11-.17.2,0,.35s.24,0,.35,0-.18.2,0,.35.23,0,.33,0c-.42.51.15.84.31,1.21,1.22,2.7.6,5.1-1.11,7.59A3.53,3.53,0,0,1,23.57,12.11Zm-1.38,2.51a1,1,0,0,1,.12-.3,1.44,1.44,0,0,1,.35-.3c.21.21,0,.36-.11.51s-.22.19-.36.09Zm0,0c.18.33-.08.49-.28.67C21.7,15,21.92,14.79,22.17,14.63Zm-.3.7-.3.29C21.52,15.38,21.56,15.22,21.87,15.33Zm-.34.33-.3.27C21.24,15.74,21.31,15.63,21.53,15.66Zm-.75.68h0l-.1.07Zm-1.13,1,.13.15-.21.07Zm-.81.88a.33.33,0,0,1,.35-.31c0-.21.12-.33.34-.3,0,.21,0,.33-.24.41l-.23.42c-.29.53-.63,1-.87,1.58a3.88,3.88,0,0,0-.39,3.32C16.85,21.63,17.22,19.9,18.84,18.23Zm-.66,5.94L18,24.1C18.17,23.91,18.16,24.08,18.18,24.17Zm4.49,60.41a5,5,0,0,1-.47,3.52c-1.09,2-2.8,2.32-4.55,1a8.09,8.09,0,0,1-1.19-1.15,3.85,3.85,0,0,0-3.66-1.45c-.56.06-1.36.34-1.62-.37s.5-1,.94-1.41c.74-.66,1.52-1.27,2.29-1.9,1.53-1.25,3.05-2.52,3.76-4.83.78,1.45.1,2.47-.25,3.45s-.93,2.07-1.4,3.1l.31.15a12.63,12.63,0,0,0,2.46-5.12c.71.88.89,1.56,1.39,3.82.32,1.45-.21,2.84-.14,4.31,1.29-1.56,1.29-2.52,0-7.78.49,0,.49.39.63.68A16,16,0,0,1,22.67,84.58Zm-1.88-7.26c-.36-1.51-.06-2,1.53-2.67C22.93,76.31,21.28,76.36,20.79,77.32Zm2-.44c-.25.75-.43,1.24-.57,1.75-.07.25-.06.56-.46.41s-.49-.29-.45-.59A1.81,1.81,0,0,1,22.82,76.88Zm7,5.93c-.14.1-.29,0-.38-.13a55.94,55.94,0,0,1-7.13-3.4,3.81,3.81,0,0,0,.69-.76C24,76.37,25.07,74.2,26.07,72a8.37,8.37,0,0,1-4.23,1.87c-1.69.41-2.25,1.59-1.94,3.76l.47.2c.11.1.19.25.06.36s-.24,0-.3-.13-.3-.14-.44-.22C12.82,73.86,8,68.31,6.1,60.49A27.8,27.8,0,0,1,9.47,39.31a81.41,81.41,0,0,1,6.42-10,11.36,11.36,0,0,0,1.18-2.17,2.58,2.58,0,0,1,3.37-.95c.23.16,0,.4,0,.6-3.21,2.59-6,5.47-7.47,9.48a29.94,29.94,0,0,0-1.73,11.37c0,.52,0,1,0,1.62A4.86,4.86,0,0,1,9.65,48a1.26,1.26,0,0,0-2.12,0c-.75,1-1.78,1.95-1.43,3.47,1.5-.21,3-.41,4.53-.65.66-.1,1.15.06,1.16.76.05,1.77,1,3.11,2,4.47a4.66,4.66,0,0,1,.86,3l-.06,2a6.16,6.16,0,0,0,4.78,5.93,1.15,1.15,0,0,0,.8-.05c.78-.46,1.32,0,1.91.42a23.8,23.8,0,0,0,6.5,3.57,26.55,26.55,0,0,0,6,1.11A3.07,3.07,0,0,0,33,71.27a30.51,30.51,0,0,1-9.22-4,4.18,4.18,0,0,1-2.27-3.54,1.62,1.62,0,0,0-1.33-1.7c-1.93-.28-2.34-1.5-2.31-3.18a5.59,5.59,0,0,0-1.63-4.21,10.33,10.33,0,0,0-2-1.51,4,4,0,0,1-1.94-2.71,21.8,21.8,0,0,1-.12-8c.68-4.7,2.28-9,5.85-12.29a21.17,21.17,0,0,0,2.64-3c.41-.44.82-.57,1.17,0a2.64,2.64,0,0,1,.37,2.36c-.34.87-.6,1.77-1,2.62A14.11,14.11,0,0,0,20.5,43a4.94,4.94,0,0,1,.15.64s0,.09-.15.25a5.33,5.33,0,0,1-2.36-1.4c-1.68-1.54-3.15-1.16-3.79,1-.28,1-1.13,1.79-.5,3.13,2.26-.81,4.58-1.71,6.91-2.67a7.75,7.75,0,0,1,.5.87,13.56,13.56,0,0,0,6.37,6.47,42.32,42.32,0,0,1,5.23,3.1,9.22,9.22,0,0,1,3.29,3.92c-3,.5-4.16,2.67-4.64,5.21a6.28,6.28,0,0,0,2.8,6.76,1.85,1.85,0,0,1,1,1.89A2.16,2.16,0,0,1,33.73,74a15.32,15.32,0,0,0-2.16.84A4.53,4.53,0,0,0,29,79.72a15.09,15.09,0,0,0,.77,2.7C29.81,82.54,29.93,82.69,29.77,82.81Zm-6-8.56c.06-.16.17-.29.32-.17s0,.26-.07.38a2.76,2.76,0,0,1-.78,1.25A1.09,1.09,0,0,1,23.81,74.25ZM10.42,49.9c-.15.3-.43.22-.68.21s-.34-.08-.32-.26a.43.43,0,0,1,.57-.4A.57.57,0,0,1,10.42,49.9ZM8,48.65c0-.26.32-.43.61-.47a.6.6,0,0,1,.65.39.57.57,0,0,1-.51.55C8.47,49.15,8.05,49,8,48.65Zm-.3,1.73c-.26,0-.53.13-.73-.14,0-.39.31-.52.66-.56s.5.07.55.25C8.32,50.29,8,50.34,7.73,50.38Zm8.7,10.19c.36-1.41-.09-2.77-.19-4.15.81.3.69,1.11.86,1.72a8.07,8.07,0,0,1,.13,1.64c.12,1.74.65,2.39,2.36,2.92,1.13.35,1.17.4,1.17,1.75-.68.23-1.19-.48-1.91-.37.25.89,1.31.68,1.72,1.34-.54.73-1.22.43-1.74.12-2.26-1.32-3.62-2.6-3.3-5.17a7.14,7.14,0,0,0-.81-4.48c-.13-.14-.26-.28-.16-.49l-.25-.09.14-.16.12.24c.23,0,.33.08.38.28.45.07.37.82.93.74A13.91,13.91,0,0,0,16.43,60.57Zm-.3-4.68c.16,0,.18.29.09.49h-.3C16,56.2,15.76,55.86,16.13,55.89Zm2.54-12c-.15.12-.19.17-.23.17l-.73.14c0-.1-.05-.25,0-.28a.91.91,0,0,1,.75-.14A1.41,1.41,0,0,1,18.67,43.92Zm-3.41-.6c.83-1,.83-1,2.12-.4C16.88,44.17,16.06,43.63,15.26,43.32ZM16,44.67c-.36.6-.93.54-1.42.69C14.8,44.56,15.25,44.29,16,44.67Zm26.28,36.7c-.24,1-.45,2.2-1.91,2.24-.11.39-.5.32-.78.39-.66.16-1.34.55-2-.14a2.21,2.21,0,0,1-.34-2.31,3.35,3.35,0,0,1,3-2.47A1.83,1.83,0,0,1,42.31,81.37Zm4.95-.65A13.07,13.07,0,0,1,45,82.42a8.93,8.93,0,0,1-2.46,1.25c.91-1.91,1.15-3.63-.49-5,.16-.09.23-.19.22-.29s-.19.06-.24.27h0v0c-2.19-.74-3.6-.47-4.79.91a4.14,4.14,0,0,0-.38,4.92c.14.22.45.35.36.68a6.25,6.25,0,0,1-7.21-5.54c-.19-2.1.4-3.19,2.33-4,.55-.25,1.14-.42,1.69-.66a3,3,0,0,0,.68-5.2c-2.84-2-3.11-6.09-1-8.81,1.06-1.38,2.44-1.71,4.34-1.92-1.5,1.27-2.28,2.56-1.9,4.29l.39.62c.39.38.75.8,1.18,1.15a3.29,3.29,0,0,0,3.69.55,3,3,0,0,0,1.77-3.08c-.09-.13-.18-.29-.06-.41s.25,0,.34.14a17.24,17.24,0,0,1,4.37,4.44c.62.91,1.24,1.82,1.89,2.71a5,5,0,0,1,.95,2.92A10.48,10.48,0,0,1,47.26,80.72ZM13.73,78.09c0-.31-.18-.39-.36-.49a17.54,17.54,0,0,1-6.66-6.25,6.33,6.33,0,0,0-.84-1A5,5,0,0,0,3.19,68.8,2.48,2.48,0,0,0,.11,72,6.26,6.26,0,0,0,1.76,74.8,12,12,0,0,0,7.46,78,17,17,0,0,0,13.73,78.09ZM2.11,73.68A4.16,4.16,0,0,1,.9,71.37a1.36,1.36,0,0,1,1.41-1.76,3.1,3.1,0,0,1,1.89.46,4.77,4.77,0,0,1,1.47,1.32c1.55,2.12,3,4.28,5.33,5.76A11.27,11.27,0,0,1,2.11,73.68ZM36.46,6.54a4.12,4.12,0,0,0,.23-3.06A2.15,2.15,0,0,0,34.36,2a1.85,1.85,0,0,0-1.59,2,5.26,5.26,0,0,0,.11,1.48,5.87,5.87,0,0,1-.32,3.24,23.42,23.42,0,0,1-1.23,2.89A9.52,9.52,0,0,0,36.46,6.54Zm-3,3.14c0,.14-.1.32-.27.2s0-.27.06-.4a7.94,7.94,0,0,0,.28-4.7,1.19,1.19,0,0,1,0-.33c-.06-1,.26-1.6.9-1.71A1.66,1.66,0,0,1,36.12,4a3.54,3.54,0,0,1-.21,2.42A7.69,7.69,0,0,1,33.49,9.68ZM8,31.19a2.41,2.41,0,0,1,.6,2.14c0,.37-.37.69-.19,1.16a1.72,1.72,0,0,0,1.25-.93A10.33,10.33,0,0,0,11,28.84,3.58,3.58,0,0,0,10.51,27c-.77-1.28-2-1.74-3-1.15a2.47,2.47,0,0,0-1,3.43A9,9,0,0,0,8,31.19Zm-.15-4.76c.63-.31,1.23-.08,1.82.68a3.59,3.59,0,0,1,.59,2.66,8.12,8.12,0,0,1-.66,2.36,16.88,16.88,0,0,0-1.84-2.36A4.67,4.67,0,0,1,7,28.52,1.74,1.74,0,0,1,7.87,26.43ZM35.63,46c-.55,1.56-1.45,2.68-3.29,2.58a.57.57,0,0,0,.58.58,7.13,7.13,0,0,0,5.64-1.86,2.48,2.48,0,0,0,.76-1.43,1.51,1.51,0,0,0-.69-1.72,1.32,1.32,0,0,0-1.67.22A3.91,3.91,0,0,0,35.63,46Zm-.21,2s-.09,0-.13,0l.16-.18C35.53,47.84,35.53,47.91,35.42,48Zm1.84-3.05a.84.84,0,0,1,.92-.16c.44.24.31.66.26,1a1.53,1.53,0,0,1-.83,1.16c-.67.38-1.25,1.06-2.15.82a8.3,8.3,0,0,1,1-2A3,3,0,0,1,37.26,44.91ZM17.55,11.81a2.43,2.43,0,0,1,3.16.88,2.45,2.45,0,0,0,.21-1.7,3.28,3.28,0,0,0-2.83-2.61,3.49,3.49,0,0,0-3.47,1.73c-.58,1.16-.12,2,1.15,2A5,5,0,0,0,17.55,11.81Zm-2.43-.58c-.3-.46.09-.84.34-1.16a2.71,2.71,0,0,1,4.55.74.22.22,0,0,1,0,.36L19.86,11a7.3,7.3,0,0,0-3.55.46C15.87,11.57,15.41,11.67,15.12,11.23ZM30.58,53.75c-.58,0-.77.4-1,.6s-.39.2-.57,0,0-.39.08-.57c.23-.35.83-.39.78-1a1.29,1.29,0,0,0-1.68.91,2.43,2.43,0,0,1-1.23,1.38,1.69,1.69,0,0,0-.79,2.61c.31.63.05,1.17.07,1.75s-.61.54-.94.78c-1.25.92-1.38,2.07-.19,3.15.33.3.28.81.91,1.06a32.2,32.2,0,0,1,4.89-7.29c-.69-.05-1.45.17-2-.56C29.22,55.58,30.11,54.86,30.58,53.75Zm-3.82,2.89c.24-.7.79-1,1.74-1.11-.37.71-.44,1.35-1,1.68-.18.1-.39.21-.59,0A.54.54,0,0,1,26.76,56.64Zm-1,6.38a1,1,0,0,1-.49-1.45c.32-.66.92-.91,1.87-.75A11.74,11.74,0,0,1,25.75,63Zm3.61-5.16a7.09,7.09,0,0,1-1.17,1.71.52.52,0,0,1-.55.26.73.73,0,0,1-.48-.6.92.92,0,0,1,.59-1A2.79,2.79,0,0,1,29.36,57.86Zm1.52-.75,0,0h0l0,0ZM14.14,63.23c-1-.42-2,.06-2.94,0s-1.42-.14-1.88.56A1.9,1.9,0,0,0,9.22,66a7.2,7.2,0,0,1,.46,1.45c.56-.37.56-1.16,1.27-1.3.11,2.27.11,2.27,1,3.5a18.64,18.64,0,0,1,2.16-3.33c-1.32-.67-1.31-.66-.57-1.85C13.73,64.06,14.11,63.77,14.14,63.23Zm-3.21,1.34c-.09.54-.54.79-.92,1.39-.17-.84-.2-1.32.14-1.75a.54.54,0,0,1,.59-.18C11,64.12,11,64.35,10.93,64.57Zm.9,1.38c-.16-1.17,0-1.79,1-2.14A4.32,4.32,0,0,1,11.83,66Zm1,1-.77,1a1,1,0,0,1,.23-1.33c.16-.15.37-.25.56-.06A.31.31,0,0,1,12.82,67ZM36.21,64.2c.22.44.43.88.64,1.32-1.2-.19-1.79-1.55-1.31-3,.37.23.14.71.39,1S36.12,64,36.21,64.2ZM36.84,78c-.1.94-.3,1.24-1.74,2.54A4,4,0,0,1,36.84,78Zm5.47.32a.5.5,0,0,0-.2-.33,3.94,3.94,0,0,0-1.78-.58c1.33-.45,1.66-.31,2.6.95C42.77,78.53,42.51,78.33,42.31,78.34Zm7.59-6.52a.36.36,0,0,1-.21.39c-.38.15-1.07-.39-1.17-.91a.42.42,0,0,1,.3-.51C49.19,70.67,49.82,71.28,49.9,71.82Zm-15,9.57a12,12,0,0,1,.86,3A3.16,3.16,0,0,1,34.91,81.39Zm14.38-5.74a2.59,2.59,0,0,1-1.59,1.59C47.83,76.22,48.33,75.85,49.29,75.65ZM41,66.73a6.66,6.66,0,0,1,2-1.06l.09.16A2.3,2.3,0,0,1,41,66.73Zm2.44-1.24c.12.18-.12.3-.32.33a1.09,1.09,0,0,0-.08-.15C43.15,65.46,43.33,65.3,43.47,65.49ZM16.43,85s.07.07.1.1a.54.54,0,0,1-.2.1s-.07-.06-.1-.1A1.86,1.86,0,0,1,16.43,85ZM29,44a3.09,3.09,0,0,1,1.12-1.57c0-.2.09-.38.35-.29a.4.4,0,0,1-.19.46h0A2,2,0,0,1,29,44Zm1.49-1.86h0s0,0,0,0h0s0,0,0,0Zm0,0a.47.47,0,0,1,.14-.51s.11,0,.12.08C30.78,41.91,30.73,42.08,30.48,42.12Zm-1.36-2h0l0,0h.08Zm.18,0h-.13l.06,0Zm11.11,43.5s0,0,0,0h0l0,0Zm1.26-2.35a3.9,3.9,0,0,1-1.26,2.35l-.65,0a3.49,3.49,0,0,1-.65,0,1.34,1.34,0,0,1-.94-1.38,2.26,2.26,0,0,1,1.54-2.27,1.61,1.61,0,0,1,1.79.43A1.15,1.15,0,0,1,41.67,81.23ZM38.33,63.79a2,2,0,0,1-.15-2.45,1,1,0,0,1,.58-.55,1.88,1.88,0,0,1,1.91.67,2,2,0,0,1,.66,2.22,1.46,1.46,0,0,1-1.59.91,2.81,2.81,0,0,1-.48-.12l-.44-.18Zm-20.48-.57c.27-.23.37.14.48.33s.44.22.14.43c-.12.08-.26-.1-.3-.25C17.9,63.65,17.69,63.35,17.85,63.22Zm-1.28-1.89c0-.09.09-.16.14-.24l.14.25c0,.09-.05.24-.09.25C16.57,61.62,16.54,61.46,16.57,61.33Zm.47,1s-.09-.08-.09-.12.06-.07.1-.11l.11.13Z"/><path d="M73.48,15.17c-1.33-1-1.42-1.35-.41-2.62a15.83,15.83,0,0,1,2.48-2.43c1.11-.91,2.2-1.85,3.28-2.79a1.53,1.53,0,0,0,.55-1.78,1.66,1.66,0,0,0-1.56-1,6.44,6.44,0,0,0-1.16,0,2.52,2.52,0,0,1-2.32-1A12.1,12.1,0,0,0,72.67,1.9a3.94,3.94,0,0,0-6.18,1.28,5.48,5.48,0,0,0-.71,2.52,11.89,11.89,0,0,0,1.15,5c.14.15.28.32.08.5s-.25-.07-.38-.1a99.78,99.78,0,0,1-9.47-4.33,5.92,5.92,0,0,0-3.32-.81,33.32,33.32,0,0,0-3.47.2,14.24,14.24,0,0,0-4.76,1.3,18.8,18.8,0,0,0-6.11,5.22,11.58,11.58,0,0,0-2.08,8.28,2.43,2.43,0,0,0,.67,1.66,13.41,13.41,0,0,1,2.23,3.06,13.21,13.21,0,0,0,2.6,3,28.78,28.78,0,0,0,9,5.06c.49.18.85.28,1,.87a9,9,0,0,0,3.49,4.29,32.21,32.21,0,0,0,4.69,2.79,3.49,3.49,0,0,1,1.71,1.18,8.88,8.88,0,0,1-1.86.82,8,8,0,0,0-5.19,8.83c.24,1.67,1,3,2.74,3.31a3.07,3.07,0,0,1,2.2,1.53c.54.8,1.14,1.6,2.27,1.27s1-1.31,1.19-2.17c.26-1.41.18-2.86.5-4.27.48-2.14,1.41-4.18,1.2-6.57a2.19,2.19,0,0,1,1.14,1.21,15.68,15.68,0,0,1,2,6.44c.3,3.51-1.14,6.56-2.59,9.6-.17.36-.57.29-.84.45a19.72,19.72,0,0,0-5.74,4.66c-2.63,3.53-2.81,7.22-.4,10.88a4.26,4.26,0,0,1,.61,3.3c-.2,1.09-.46,2.16-.58,3.26A4.46,4.46,0,0,0,60.67,89c.11.12.24.22.37.16-.14.29.21.43.38.57a9.6,9.6,0,0,0,12.46,0,7.64,7.64,0,0,0,2.64-5.49,9.74,9.74,0,0,1-3,2.52,4.73,4.73,0,0,1-7.14-3.86A6.8,6.8,0,0,1,68,78.19a46.51,46.51,0,0,1,3.39-3.63,5.61,5.61,0,0,0,.9-7.24c-.17-.32-.29-.51,0-.86,2.75-3.74,5.11-7.72,7.66-11.58,4-6.06,6-12.58,5.14-19.9A27.55,27.55,0,0,0,73.48,15.17ZM67,7.46a5,5,0,0,1,.47-3.52C68.53,2,70.25,1.62,72,3a7.14,7.14,0,0,1,1.19,1.14,3.85,3.85,0,0,0,3.66,1.45c.56-.06,1.37-.34,1.62.37S78,7,77.53,7.36C76.78,8,76,8.64,75.24,9.26a9.86,9.86,0,0,0-3.77,4.83c-.78-1.45-.1-2.47.25-3.45s.93-2.07,1.41-3.1l-.32-.15a12.48,12.48,0,0,0-2.45,5.12c-.71-.88-.9-1.56-1.4-3.82-.32-1.45.22-2.84.14-4.31-1.29,1.56-1.29,2.53,0,7.78-.48,0-.49-.39-.63-.68A15.89,15.89,0,0,1,67,7.46Zm1.88,7.26c.37,1.51.06,2-1.53,2.67C66.71,15.73,68.36,15.68,68.85,14.72Zm-2,.44c.25-.75.43-1.24.57-1.75.08-.25.06-.56.47-.41s.49.29.44.59A1.8,1.8,0,0,1,66.82,15.16ZM47.33,10.67c.24-1,.45-2.2,1.91-2.23.12-.4.5-.33.78-.4.67-.16,1.34-.55,2,.14a2.17,2.17,0,0,1,.34,2.31,3.35,3.35,0,0,1-3,2.47A1.83,1.83,0,0,1,47.33,10.67Zm1.54,20.71a4.71,4.71,0,0,1-.82-.79c-.87-1.06-1-1.74-.48-2.52a2.37,2.37,0,0,1,3-.73l.47.17c.22.11.46.2.55.47a1.37,1.37,0,0,1,.38.29,2.31,2.31,0,0,1,.23,3A2.68,2.68,0,0,1,48.87,31.38Zm2.66,1.68c1.5-1.27,2.29-2.55,1.9-4.29-.13-.2-.26-.41-.38-.62-.4-.38-.76-.8-1.18-1.15a3.29,3.29,0,0,0-3.7-.54,3,3,0,0,0-1.77,3.07c.1.13.19.29.06.41s-.25,0-.34-.13a17.4,17.4,0,0,1-4.36-4.45c-.63-.91-1.25-1.82-1.9-2.71a5.11,5.11,0,0,1-1-2.92,10.48,10.48,0,0,1,3.47-8.41,13.55,13.55,0,0,1,2.23-1.7,9,9,0,0,1,2.45-1.25c-.9,1.92-1.15,3.63.49,5-.16.1-.23.19-.22.3s.2-.07.24-.28h0l0,0c2.2.73,3.61.47,4.79-.92a4.11,4.11,0,0,0,.38-4.92c-.13-.22-.44-.34-.36-.68a6.24,6.24,0,0,1,7.21,5.54c.19,2.1-.4,3.19-2.33,4-.55.25-1.13.42-1.69.67a2.94,2.94,0,0,0-.68,5.19c2.84,2,3.11,6.09,1,8.82C54.82,32.52,53.43,32.85,51.53,33.06Zm13,15.61A22.25,22.25,0,0,0,63.42,56v.17c0,.65,0,1.47-.72,1.68s-1-.58-1.27-1.09a3.23,3.23,0,0,0-2.69-1.92,1.89,1.89,0,0,1-1.57-1.51,6.65,6.65,0,0,1,2-6.91,19.56,19.56,0,0,1,1.9-1.33c.54-.34,1.13-.63,2-1.11C62.49,45.74,61,46.48,60.42,48c.63,0,.81-.46,1.08-.75a13,13,0,0,1,2.64-2.66c.25.7-.24,1.23-.53,1.74-.78,1.37-1.67,2.68-2.47,4-.28.46-.85.85-.6,1.53A34.4,34.4,0,0,0,64.92,46,6.31,6.31,0,0,1,64.58,48.67Zm-1.33-4.9c.2-.24.39-.66.73-.32.13.12-.17.45-.45.55-.06.15-.19.33-.33.26C62.9,44.11,63.1,43.92,63.25,43.77Zm.9.84.17-.23c0,.06,0,.11,0,.16S64.24,44.69,64.15,44.61Zm3,21.33a.74.74,0,0,1,.28.73,6.85,6.85,0,0,1-1.56,3.4,17.28,17.28,0,0,0-3.3,6.22c-1.1-2.27-1.22-4.44.27-6.55a15.57,15.57,0,0,1,3.58-3.62C66.65,66,66.86,65.74,67.16,65.94Zm-2.77,24.9a4.64,4.64,0,0,1-.42-.25c-1.06-.3-1.78-1.21-2.8-1.59a6.06,6.06,0,0,1-.73-5.62,8.8,8.8,0,0,0,.31-1.46A4.75,4.75,0,0,0,60,78.46a8,8,0,0,1,.44-10.1,12.35,12.35,0,0,1,5.28-3.87c.23-.1.52-.25.69.12a.61.61,0,0,1-.14.75c-.26.21-.57.34-.83.54a12.31,12.31,0,0,0-4,5,4.65,4.65,0,0,0-.16,3.72c1.1,2.7.72,5.38.38,8.13a9.68,9.68,0,0,0,1.14,5.9c.12.23.2.65.63.44-.11.33-.06.5.32.34-.28.47.38.56.42.9l.61.07c.12.18.33.41.28.48C64.9,91.12,64.62,91,64.39,90.84Zm1.54.46-.33-.14a1.09,1.09,0,0,1,.28-.08,1,1,0,0,1,.29.08Zm1-.5c-.71-.13-1.31-.74-2.1-.48,0-.65-.54-.76-1-1,0-.23-.1-.35-.33-.34a11.3,11.3,0,0,1-1.28-7c.39-2.22.82-4.44,1.39-6.61A13.83,13.83,0,0,1,66.15,71a8.41,8.41,0,0,0,2-4.3,2.62,2.62,0,0,1,.51,2.47A8.9,8.9,0,0,1,67,72.73c-.75,1-1.53,2-2.2,3.11a11.69,11.69,0,0,0-1.73,8.86,7,7,0,0,0,1.19,2.7c.19.25.37.55.75.4a.2.2,0,0,0,.06-.31c-2.51-3.66-1.82-7.31.1-10.92A22.54,22.54,0,0,1,67,74c2-2.72,2.31-3.5,2.51-6.63.43-.33.73.47,1.15.21-.17.22,0,.43.13.62a3.85,3.85,0,0,1-.27,3.94,17.63,17.63,0,0,1-2.78,3.49,12.09,12.09,0,0,0-3.13,5c-.72,2.31-.59,4.53,1.17,6.41,0,.24.1.36.33.35,0,.23.12.33.34.33l.35.64c.14,0,.35.07.21.25s-.26,0-.35-.13L65.47,88c-.36.4,0,.6.22.78A5.76,5.76,0,0,0,70,89.84l1.57-.22A5.09,5.09,0,0,1,66.91,90.8Zm-.84-10.86a6.27,6.27,0,0,0,.35,5.41A5.19,5.19,0,0,0,72.14,88a3.78,3.78,0,0,1,1.28-.29.29.29,0,0,1,.34-.25s.12.17.11.17-.24.21-.42.13a4.25,4.25,0,0,1-5.6.59c-.41-.28-.66-1-1.37-.65,0-.11.17-.19,0-.35s-.24,0-.35,0,.17-.2,0-.35-.24,0-.34,0c.42-.51-.15-.84-.31-1.21-1.22-2.69-.6-5.1,1.11-7.59A3.5,3.5,0,0,1,66.07,79.94Zm1.38-2.52a1,1,0,0,1-.11.3A2,2,0,0,1,67,78c-.22-.21,0-.35.11-.5s.21-.2.35-.1Zm0,0c-.17-.33.08-.49.28-.67C67.94,77.07,67.72,77.25,67.47,77.41Zm.31-.69.29-.3C68.12,76.66,68.08,76.82,67.78,76.72Zm.34-.34.29-.27C68.4,76.3,68.33,76.42,68.12,76.38Zm.74-.68h0l.1-.07S68.89,75.69,68.86,75.7Zm1.14-1-.14-.15.22-.07A1.43,1.43,0,0,0,70,74.69Zm.8-.88a.32.32,0,0,1-.35.31c0,.21-.11.33-.33.3-.06-.2,0-.33.24-.4s.15-.29.22-.43c.29-.52.63-1,.88-1.58a3.89,3.89,0,0,0,.38-3.31C72.79,70.41,72.42,72.14,70.8,73.81Zm.66-5.94.2.07C71.47,68.13,71.49,68,71.46,67.87Zm8.71-15.14a83.43,83.43,0,0,1-6.41,10,11.66,11.66,0,0,0-1.19,2.17,2.58,2.58,0,0,1-3.37.94c-.23-.16,0-.4,0-.6,3.21-2.59,6.05-5.47,7.47-9.48a30.15,30.15,0,0,0,1.74-11.37c0-.52,0-1,0-1.62A4.66,4.66,0,0,1,80,44.08a1.26,1.26,0,0,0,2.12,0c.76-1,1.79-2,1.44-3.47-1.51.22-3,.41-4.54.65-.65.1-1.14-.06-1.16-.76,0-1.77-1-3.11-2-4.47A4.66,4.66,0,0,1,75,33.09c0-.67,0-1.33.07-2a6.16,6.16,0,0,0-4.78-5.92,1.18,1.18,0,0,0-.81,0c-.78.47-1.32.05-1.9-.42a24.09,24.09,0,0,0-6.5-3.57,27.2,27.2,0,0,0-6-1.11,3.11,3.11,0,0,0,1.54.65,30.34,30.34,0,0,1,9.23,4,4.18,4.18,0,0,1,2.26,3.53A1.63,1.63,0,0,0,69.42,30c1.93.28,2.34,1.5,2.32,3.19a5.58,5.58,0,0,0,1.62,4.2,10.66,10.66,0,0,0,2,1.51,4.06,4.06,0,0,1,2,2.71,21.8,21.8,0,0,1,.11,8c-.67,4.7-2.28,9-5.85,12.3a21.15,21.15,0,0,0-2.64,3c-.4.44-.81.58-1.17,0a2.64,2.64,0,0,1-.37-2.36c.34-.87.61-1.77,1-2.61a14.09,14.09,0,0,0,.78-10.77,4.58,4.58,0,0,1-.15-.64s.05-.09.15-.25a5.37,5.37,0,0,1,2.37,1.4c1.67,1.54,3.14,1.16,3.78-1,.28-1,1.13-1.8.51-3.14-2.27.81-4.58,1.71-6.92,2.67a9.68,9.68,0,0,1-.5-.87A13.56,13.56,0,0,0,62,40.78a41.11,41.11,0,0,1-5.23-3.1,9.3,9.3,0,0,1-3.29-3.92c3-.49,4.17-2.67,4.65-5.21a6.31,6.31,0,0,0-2.8-6.76,1.82,1.82,0,0,1-1-1.89A2.14,2.14,0,0,1,55.92,18a15.69,15.69,0,0,0,2.15-.84,4.52,4.52,0,0,0,2.6-4.86,15.57,15.57,0,0,0-.76-2.69c-.08-.13-.2-.28,0-.39s.29,0,.39.12a55.81,55.81,0,0,1,7.12,3.4,4.5,4.5,0,0,0-.69.76c-1.07,2.16-2.11,4.32-3.11,6.57a8.33,8.33,0,0,1,4.23-1.87c1.68-.41,2.24-1.58,1.93-3.76l-.47-.19c-.11-.11-.18-.26-.06-.37s.24,0,.31.13l.43.22c6.88,3.93,11.73,9.48,13.59,17.3A27.75,27.75,0,0,1,80.17,52.73Zm-.94-10.59c.14-.3.42-.22.67-.21s.35.08.33.26a.44.44,0,0,1-.57.41A.57.57,0,0,1,79.23,42.14Zm2.38,1.26c0,.25-.31.42-.61.46a.57.57,0,0,1-.64-.39.56.56,0,0,1,.5-.55C81.17,42.89,81.59,43,81.61,43.4Zm.3-1.74c.26,0,.53-.13.74.14-.05.39-.32.52-.67.56s-.5-.07-.55-.25C81.33,41.75,81.64,41.7,81.91,41.66Zm-8.7-10.18c-.36,1.4.1,2.76.19,4.14-.8-.3-.69-1.11-.86-1.72a8.86,8.86,0,0,1-.12-1.64c-.13-1.74-.65-2.39-2.37-2.92-1.13-.34-1.16-.4-1.16-1.75.68-.23,1.18.48,1.91.38-.26-.9-1.32-.69-1.72-1.34.53-.73,1.21-.44,1.73-.13,2.26,1.33,3.62,2.6,3.3,5.17a7.21,7.21,0,0,0,.81,4.48c.14.14.27.28.16.5l.25.08a1.07,1.07,0,0,1-.14.16l-.11-.24c-.23.05-.34-.08-.39-.28-.45-.07-.37-.82-.93-.74A13.54,13.54,0,0,0,73.21,31.48Zm.3,4.67c-.15,0-.18-.29-.08-.48h.29C73.65,35.84,73.88,36.18,73.51,36.15ZM71,48.12c.14-.12.18-.16.22-.17l.74-.14c0,.1,0,.25,0,.28a.9.9,0,0,1-.75.14S71.1,48.18,71,48.12Zm3.41.6c-.83,1-.83,1-2.13.4C72.77,47.87,73.58,48.41,74.39,48.72Zm-.78-1.35c.36-.6.93-.54,1.43-.69C74.84,47.48,74.4,47.75,73.61,47.37ZM65.84,17.79c-.06.16-.18.29-.33.17s0-.26.07-.38a2.91,2.91,0,0,1,.78-1.25A1.09,1.09,0,0,1,65.84,17.79Zm23.7,2.27a6.36,6.36,0,0,0-1.65-2.82,12.08,12.08,0,0,0-5.71-3.15A17,17,0,0,0,75.91,14c0,.31.18.39.36.49a17.42,17.42,0,0,1,6.66,6.26,6.72,6.72,0,0,0,.84,1,5.1,5.1,0,0,0,2.68,1.54A2.49,2.49,0,0,0,89.54,20.06Zm-2.21,2.38A3.13,3.13,0,0,1,85.44,22,4.89,4.89,0,0,1,84,20.65c-1.54-2.12-3-4.28-5.32-5.76a11.28,11.28,0,0,1,8.89,3.47,4.21,4.21,0,0,1,1.2,2.31A1.37,1.37,0,0,1,87.33,22.44ZM53.18,85.5A4.19,4.19,0,0,0,53,88.57,2.14,2.14,0,0,0,55.28,90a1.85,1.85,0,0,0,1.6-2,6.12,6.12,0,0,0-.11-1.48,5.87,5.87,0,0,1,.31-3.24,22.05,22.05,0,0,1,1.24-2.89A9.51,9.51,0,0,0,53.18,85.5Zm3-3.14c0-.14.1-.32.27-.19s0,.26-.05.39a8,8,0,0,0-.29,4.7,1.86,1.86,0,0,1,0,.33c.06,1-.26,1.6-.9,1.71A1.67,1.67,0,0,1,53.52,88a3.54,3.54,0,0,1,.21-2.42A7.86,7.86,0,0,1,56.15,82.36ZM81.62,60.85a2.4,2.4,0,0,1-.6-2.14c.06-.37.37-.69.19-1.16a1.76,1.76,0,0,0-1.25.93,10.45,10.45,0,0,0-1.34,4.72,3.65,3.65,0,0,0,.52,1.9c.77,1.28,2,1.73,3,1.14a2.48,2.48,0,0,0,1-3.43A9,9,0,0,0,81.62,60.85Zm.16,4.76c-.64.31-1.24.08-1.82-.68a3.58,3.58,0,0,1-.59-2.66A7.83,7.83,0,0,1,80,59.91a18.52,18.52,0,0,0,1.84,2.36,4.67,4.67,0,0,1,.78,1.25A1.72,1.72,0,0,1,81.78,65.61ZM54,46.1c.56-1.56,1.45-2.69,3.29-2.58a.57.57,0,0,0-.58-.59,7.11,7.11,0,0,0-5.63,1.86,2.49,2.49,0,0,0-.77,1.43A1.52,1.52,0,0,0,51,47.94a1.32,1.32,0,0,0,1.67-.22A4,4,0,0,0,54,46.1Zm.21-2s.09,0,.13,0l-.16.17Q54.07,44.17,54.22,44.08Zm-1.83,3.05a.86.86,0,0,1-.93.16c-.43-.24-.31-.66-.26-1A1.54,1.54,0,0,1,52,45.1c.66-.38,1.24-1.06,2.14-.82a7.86,7.86,0,0,1-1,2A2.89,2.89,0,0,1,52.39,47.13ZM72.1,80.23a2.43,2.43,0,0,1-3.16-.87,2.43,2.43,0,0,0-.22,1.69,3.29,3.29,0,0,0,2.84,2.61A3.5,3.5,0,0,0,75,81.93c.58-1.15.11-2-1.16-2A4.89,4.89,0,0,0,72.1,80.23Zm2.43.58c.3.46-.09.84-.35,1.16a2.7,2.7,0,0,1-4.54-.74.22.22,0,0,1,0-.36l.18.19a7.27,7.27,0,0,0,3.55-.46C73.78,80.47,74.24,80.37,74.53,80.81ZM59.07,38.29c.58,0,.76-.4,1-.6s.4-.2.57,0,0,.39-.08.57c-.22.35-.83.39-.78,1a1.29,1.29,0,0,0,1.68-.91A2.41,2.41,0,0,1,62.74,37a1.69,1.69,0,0,0,.79-2.61c-.31-.63-.05-1.17-.08-1.75s.61-.54.94-.78c1.26-.92,1.38-2.07.2-3.15-.34-.3-.29-.81-.92-1.06a32,32,0,0,1-4.89,7.29c.69.05,1.45-.17,2,.56C60.42,36.46,59.53,37.18,59.07,38.29Zm3.81-2.89c-.24.71-.79,1-1.74,1.11.37-.71.45-1.35,1-1.68.18-.1.4-.21.59,0A.52.52,0,0,1,62.88,35.4Zm1-6.38a1,1,0,0,1,.49,1.45c-.32.66-.92.91-1.87.75A11.08,11.08,0,0,1,63.9,29Zm-3.61,5.16a7.29,7.29,0,0,1,1.17-1.71.51.51,0,0,1,.55-.26.74.74,0,0,1,.47.61.92.92,0,0,1-.58,1A2.9,2.9,0,0,1,60.29,34.18Zm-1.53.75,0,0h0v0h0ZM80,24.64c-.57.37-.57,1.16-1.27,1.3-.12-2.26-.12-2.26-1-3.5a18.64,18.64,0,0,1-2.16,3.33c1.32.67,1.31.66.57,1.85-.22.36-.61.65-.63,1.19,1,.42,2-.06,2.94,0s1.42.15,1.87-.56a1.9,1.9,0,0,0,.11-2.18A6.35,6.35,0,0,1,80,24.64Zm-3.15.42.78-1a1.06,1.06,0,0,1-.23,1.34c-.16.14-.37.25-.56.05A.31.31,0,0,1,76.82,25.06Zm0,3.17a4.35,4.35,0,0,1,1-2.14C78,27.26,77.82,27.88,76.83,28.23Zm2.66-.4a.51.51,0,0,1-.58.18c-.26-.09-.23-.32-.19-.54.08-.54.53-.79.91-1.38C79.81,26.92,79.83,27.41,79.49,27.83ZM54.11,29.56c-.38-.24-.15-.72-.4-1l-.28-.72c-.21-.44-.42-.88-.64-1.32C54,26.71,54.58,28.07,54.11,29.56ZM52.8,14c.1-.95.3-1.24,1.74-2.55A4.08,4.08,0,0,1,52.8,14Zm-5.47-.32a.5.5,0,0,0,.2.32,3.82,3.82,0,0,0,1.78.58c-1.33.45-1.66.31-2.59-.95C46.87,13.51,47.13,13.71,47.33,13.71Zm-6.21,7a.41.41,0,0,1-.3.5c-.37.12-1-.49-1.08-1a.36.36,0,0,1,.21-.39C40.33,19.68,41,20.22,41.12,20.75Zm13.62-10.1a11.16,11.16,0,0,1-.86-3A3.16,3.16,0,0,1,54.74,10.65Zm-12.8,4.16c-.13,1-.63,1.38-1.58,1.58A2.51,2.51,0,0,1,41.94,14.81Zm6.67,10.5a6.34,6.34,0,0,1-2,1.06,1.09,1.09,0,0,1-.08-.15A2.26,2.26,0,0,1,48.61,25.31Zm-2.12.91a1.09,1.09,0,0,0,.08.15c-.07.21-.26.38-.39.18S46.29,26.25,46.49,26.22ZM73.21,7.08s-.07-.07-.1-.1a.81.81,0,0,1,.21-.1s.06.06.1.1A1,1,0,0,1,73.21,7.08ZM60.64,48a3.1,3.1,0,0,1-1.12,1.56c0,.2-.08.39-.34.29a.39.39,0,0,1,.19-.46h0A2,2,0,0,1,60.64,48Zm-1.49,1.85h0v0h0a0,0,0,0,0,0,0Zm0,0a.46.46,0,0,1-.13.51.23.23,0,0,1-.13-.08C58.86,50.13,58.91,50,59.16,49.92Zm1.37,2h0a.08.08,0,0,0,0,0h-.08Zm-.18,0h.12l-.06,0ZM49.23,8.47s0,0,0,0h0l0,0ZM48,10.81a3.81,3.81,0,0,1,1.25-2.34h.65a2.76,2.76,0,0,1,.65.06,1.32,1.32,0,0,1,.95,1.37,2.27,2.27,0,0,1-1.55,2.27,1.61,1.61,0,0,1-1.79-.43A1.11,1.11,0,0,1,48,10.81Zm3.33,17.45a2,2,0,0,1,.15,2.44,1,1,0,0,1-.57.55A1.85,1.85,0,0,1,49,30.58a2,2,0,0,1-.67-2.22,1.47,1.47,0,0,1,1.59-.91,2.81,2.81,0,0,1,.48.12l.45.18Zm20.49.56c-.27.23-.37-.14-.49-.33s-.43-.22-.14-.43c.12-.08.26.1.3.26C71.75,28.39,72,28.69,71.8,28.82Zm1.28,1.89a.87.87,0,0,1-.15.24l-.14-.25c0-.09,0-.24.09-.24C73.07,30.43,73.1,30.58,73.08,30.71Zm-.48-1s.1.08.1.12-.07.08-.11.11l-.11-.13Z"/><text class="cls-1" transform="translate(10.56 122.17)"><tspan class="cls-2">P</tspan><tspan x="13.37" y="0">is</tspan><tspan class="cls-3" x="29.69" y="0">c</tspan><tspan x="41.14" y="0">es</tspan></text></g></g></svg>