<svg xmlns="http://www.w3.org/2000/svg" viewBox="0 0 105.73 130.74"><defs><style>.cls-1{font-size:25.91px;font-family:MyriadPro-Regular, Myriad Pro;}.cls-2{letter-spacing:0em;}.cls-3{letter-spacing:-0.01em;}.cls-4{letter-spacing:0em;}.cls-5{letter-spacing:0em;}.cls-6{letter-spacing:0em;}</style></defs><title>Asset 387</title><g id="Layer_2" data-name="Layer 2"><g id="Layer_1-2" data-name="Layer 1"><path d="M90,87.83a14,14,0,0,1-1.19,1,1.6,1.6,0,0,1-2.09.06c-.72-.59-.1-1.14.17-1.67A2.25,2.25,0,0,0,87,84.81,2,2,0,0,0,84.53,84c-.94.31-1.39-.13-1.87-.78a12.62,12.62,0,0,1-2.44-10A60.37,60.37,0,0,1,81.92,66a24.94,24.94,0,0,0,1-5.81,11.52,11.52,0,0,0-4.29-9.81,4.14,4.14,0,0,0-2.53-1,2.09,2.09,0,0,0-2.47,1.85c-.14.65-.33.82-1,.83a14.5,14.5,0,0,1-10.91-5c-.16-.17-.3-.35-.44-.53a.57.57,0,0,1,.07-.9l5.35-4.21c.17.95-.26,1.59-.27,2.28,0,.4-.09.85.35,1.09s.76-.13,1-.42c1-1.1,2.08-2.18,3-3.34a65.57,65.57,0,0,0,4.73-6c.23-.36.69-.74.29-1.22s-.87-.07-1.27.06c-1.6.52-3.17,1.11-4.77,1.62a50.1,50.1,0,0,0-6.75,2.77c-.32.16-.68.29-.65.7s.43.49.75.62c.79.31,1.71.15,2.65.77L60,44.68A38.57,38.57,0,0,1,57.25,39a5.67,5.67,0,0,1,.42-4.73,1.47,1.47,0,0,1,.9.47A2.16,2.16,0,0,0,62,34.36a3.09,3.09,0,0,0,.62-2,8.7,8.7,0,0,0-1.15-4.32,14,14,0,0,0-6.25-5.85,22.91,22.91,0,0,0-9.42-2.14,42.33,42.33,0,0,0-7.12.38c-3.73.46-6.66-1-9.13-3.68a1.71,1.71,0,0,1-.6-1.37c.16-2.25.16-2.29-1.81-3a1.86,1.86,0,0,1-1.38-1.79c-.06-2.29.41-4.38,2.39-5.83.23-.17.54-.28.42-.66s-.31-.3-.53-.38a2.93,2.93,0,0,0-3.94,2.1,63.1,63.1,0,0,0-1.5,6.78,4.58,4.58,0,0,0,1.86,4.92A3.48,3.48,0,0,1,26,19.89q2.55,10.72,5.16,21.45c1.49,6.2,3,12.4,4.52,18.58a1.84,1.84,0,0,1-.88,2.3,39.24,39.24,0,0,0-3.12,2.5c-.29.25-.7.54-.48,1s.68.25,1.07.17a15.36,15.36,0,0,1,3.09-.45c1.07,0,1.34.37,1.12,1.41a6.1,6.1,0,0,1-.28.82c-.21.54-.42,1.08-.62,1.63s-.42.94.06,1.26.73-.21,1-.45c.76-.63,1.5-1.29,2.25-1.92,1.68-1.41,1.68-1.4,3.64-.36,12.7,6.73,25.29,13.68,38.09,20.22a4.29,4.29,0,0,1,1.36,1,9.22,9.22,0,0,0,3.44,2.3,3.66,3.66,0,0,0,4.46-1.34C90.31,89.38,90.73,88.64,90,87.83ZM72.89,36.36l0,.2-.19,0Zm-.21.64A53.87,53.87,0,0,1,68,42.55a10.31,10.31,0,0,1-.11-2.91c0-.32.29-.48.55-.61,1.47-.76,2.78-1.82,4.33-2.45A.36.36,0,0,1,72.68,37Zm-7.8,1.5a33.12,33.12,0,0,1,6.36-2.26c-1.3.82-2.59,1.64-3.9,2.44C66.65,39.1,66.63,39.08,64.88,38.5Zm-4.45,8.94a17.09,17.09,0,0,0,5.11,4.11A12.07,12.07,0,0,0,73.08,53a1.55,1.55,0,0,0,1.52-1.15c.49-1.68,1-1.91,2.58-1.29a4.1,4.1,0,0,1,.75.46c-1.56.83-1.57.84-1.74,2.57a3.77,3.77,0,0,0-2.37,0,17.14,17.14,0,0,1-7.06-.07,17.7,17.7,0,0,1-8.14-4.43c-.39-.36-.78-.68-.15-1.25C59.53,46.93,59.86,46.78,60.43,47.44ZM77.9,52.6a.28.28,0,0,1-.21.38c-.22.06-.47,0-.49-.25a.47.47,0,0,1,.2-.4A.37.37,0,0,1,77.9,52.6Zm-1.36,1.22c-.18.08-.27,0-.33-.18a.22.22,0,0,1,.36,0S76.57,53.81,76.54,53.82ZM30.78,19.47c3,2.42,6.39,2.41,9.91,2A28.26,28.26,0,0,1,51.22,22a13.7,13.7,0,0,1,8.27,5.36A8.59,8.59,0,0,1,61.23,32,2.68,2.68,0,0,1,61,33.5a1.07,1.07,0,0,1-1.72.41c-1.67-1.06-1.88-1-2.74.87a6.21,6.21,0,0,0-.27,4.56,27.64,27.64,0,0,0,2.12,4.94c.2.39.66.8.39,1.26a3.84,3.84,0,0,1-1.56,1.34c-.42.24-.59-.23-.75-.5a19.08,19.08,0,0,1-2.16-6.2,9.35,9.35,0,0,1,.48-6,3.46,3.46,0,0,0-.21-3c-1.31-2.78-5.63-6.72-10.06-6.25a22,22,0,0,1-6.58-.21c-2.62-.51-6.3-3-7.53-5.12C30.56,19.39,30.67,19.38,30.78,19.47Zm-.85-.73c.15.11.45.17.24.42s-.34,0-.48-.14-.56-.48-.5-.9C29.65,18.07,29.77,18.43,29.93,18.74Zm-.77-.65c-.21,0-.29-.13-.33-.3C29.13,17.66,29.18,17.84,29.16,18.09Zm-.41-.74c.08.13.16.26.07.41a.36.36,0,0,1-.22-.39S28.74,17.33,28.75,17.35Zm-3.41-.42c-1.82-1.23-2-3-1.66-4.9s.75-3.6,1.07-5.42a2.44,2.44,0,0,1,2.33-2.32,14.29,14.29,0,0,0-1.91,3.89A8.33,8.33,0,0,0,25,10.76a2.33,2.33,0,0,0,1.54,2.31c1.74.48,1.79,1.61,1.49,3C26.45,15.13,26.41,14.63,25.34,16.93ZM33.82,64.8c.9-1.35,1.31-1.39,3.83-.44C36.37,65.11,35.07,64.22,33.82,64.8Zm3.29,3.58a.12.12,0,0,1-.08,0l.13,0Zm.13-.12a6.06,6.06,0,0,1,.9-3.46C38.26,66.35,38.72,67.58,37.24,68.26Zm-1.05-5.5,2.36.4C37.59,63.5,37.56,63.49,36.19,62.76Zm1.36-.68H40.1C39.05,63.16,38.32,62.15,37.55,62.08Zm1.66,4.26A4.19,4.19,0,0,1,39.08,64,2.8,2.8,0,0,1,39.21,66.34Zm.92-2.41a.92.92,0,0,1-.07-.32,1.19,1.19,0,0,1,.1-.28l.11.3C40.23,63.73,40.18,63.83,40.13,63.93ZM40,61c-3.55-.15-2.74.58-3.58-2.77-3.26-13-6.47-25.95-9.74-38.92a6.58,6.58,0,0,1,.06-3.17A13.5,13.5,0,0,1,29,19.38a13.91,13.91,0,0,0,9,6.27,20.85,20.85,0,0,0,6.06.29c3.73-.34,8.19,2.39,9.72,5.83a3.44,3.44,0,0,1,0,2.69c-1.64,4.4-.43,8.43,1.55,12.35.57,1.11.63,1.1-.38,1.89A148,148,0,0,0,41.53,60.51,1.82,1.82,0,0,1,40,61ZM82.19,87.46c-.52.65-1,.19-1.53-.09C68,80.31,55.16,73.6,42.4,66.72c-1.51-.82-1.6-.57-1.1-2.36a1.85,1.85,0,0,0,.06-.52,3.7,3.7,0,0,1,1.69-3c4.23-3.44,8.35-7,12.51-10.54a7.1,7.1,0,0,0,.67-.56c.58-.64,1-.46,1.55.12a18.52,18.52,0,0,0,6.06,4c3.26,1.43,6.65,1.35,10.07.74,2-.37,2.6,0,3,2a11.56,11.56,0,0,1,.33,2.43c-.28,1.77-.59,3.53-.84,5.31a32.69,32.69,0,0,0,.23,11.25A18.8,18.8,0,0,0,81.54,85a6,6,0,0,1,.57.66A1.34,1.34,0,0,1,82.19,87.46Zm3.24,3.12a13.53,13.53,0,0,1-1.8-1c-1.11-.7-1.1-.71-.54-1.88a1.82,1.82,0,0,0-.38-2.37c-2.39-1.79-3.45-4.46-4.6-7a15.77,15.77,0,0,1-1.22-6.33c.61.37,1.19.75,1.76.08a1,1,0,0,0,.1-1.28c-.51-.77-1.14-.1-1.9-.07a24.85,24.85,0,0,1,.21-5.46c.18-1.32.53-2.61.74-3.92.4-2.5.52-5-1.07-7.32,1.12-.15,2.2-.4,2.24-2.08,2.82,3.49,3.78,7,2.51,11.1l-.07.08.07-.08c0-.69.07-1.38-.73-1.71,0-.11,0-.26-.06-.31a1.49,1.49,0,0,0-2-.08,1.94,1.94,0,0,0-.18,2.54,1.49,1.49,0,0,0,2,.45,5.53,5.53,0,0,0,.89-.79,10.65,10.65,0,0,1-.54,3.4,73.17,73.17,0,0,0-1.61,7.65c-.08,0-.2.06-.25,0-.31-.28-.47-.9-1.08-.52a.74.74,0,0,0-.26.93c.16.48.46.8,1,.65.16,0,.33-.07.54-.12a13,13,0,0,0,1.82,7.15,8.53,8.53,0,0,0,1.67,2,2.37,2.37,0,0,0,2,.71c1.51-.19,1.91.43,1.32,1.8-.07.16-.17.31-.24.47a1.85,1.85,0,0,0,1.43,2.86c.36.08.75.1,1.12.15C87.51,91.27,86.45,91,85.43,90.58Zm-5-28.25c-.15.27-.32.51-.62.52a.5.5,0,0,1-.49-.4.74.74,0,0,1,.34-.87c.23-.18.54,0,.79-.06C80.41,61.77,80.6,62.09,80.47,62.33ZM88.4,90.19c-.06-.1-.05-.17,0-.19s.12,0,.18.08ZM49.25,75.75c-1-.48-2.16-.83-3.22-1.3a2.49,2.49,0,0,0-2.77.26c-.31.26-.72.39-1,.64a1.93,1.93,0,0,1-1.93.37c-3.58-.93-7.19-1.81-10.79-2.69a1.7,1.7,0,0,1-1.35-1.17C26.44,67,25.09,62,23.84,57c-.2-.82.14-1.07.77-1.17a6.47,6.47,0,0,1,2.59.07c.7.19.95-.15.67-.85a17.87,17.87,0,0,0-7.24-8.43c-.72-.46-1-.17-1.26.53a16.86,16.86,0,0,0-.46,2.74,23.15,23.15,0,0,0,.24,7.61c.06.39.1.87.53,1s.83-.26,1.15-.58.77-1,1.63-1.1c.6,2.24,1.22,4.45,1.78,6.68A49.59,49.59,0,0,1,26,70.09c-3.34-2.54-6.27-5.44-9.42-8.29a5.31,5.31,0,0,1,2.63-.29c.89,0,1.06-.26.67-1a5.09,5.09,0,0,0-1.33-1.59A21.23,21.23,0,0,0,10,54.78c-.75-.2-.93,0-.77.78a22.54,22.54,0,0,0,2.66,6.76,20.7,20.7,0,0,0,2.33,3.25c.19.22.39.46.72.38s.33-.42.34-.71a4.78,4.78,0,0,1,.7-2.65,7.74,7.74,0,0,1,1.67,1.6c2.05,2.06,4.13,4.08,6.33,6,.5.43,1.51.87,1.19,1.49-.4.8-1.35.1-2,0-2.39-.47-4.77-1-7.17-1.37a9.27,9.27,0,0,1-3-.66c.37-1.11,1.6-1.16,2.19-1.85a.88.88,0,0,0-.59-.68,11.07,11.07,0,0,0-8.61-.57,3.74,3.74,0,0,0-1.06.57.72.72,0,0,0-.14,1.17,17.61,17.61,0,0,0,8.79,6c.32.11.68.31.92-.09s-.08-.55-.27-.75a4.39,4.39,0,0,1-1.25-2.53c.21-.06.33-.13.43-.11,4.48.91,9,1.86,13.45,2.75.81.16,1,.72,1.17,1.32,1,3,1.87,6,3.08,8.86a5.24,5.24,0,0,1-.51,5.63,1.74,1.74,0,0,0-.46,1.61c.71,1.83,1.43,3.67,2.23,5.46.34.74.81.72,1.31,0A23.9,23.9,0,0,0,35.27,94c.38-.67.79-.7,1.43-.46a6.51,6.51,0,0,0,2.18.53c.48,0,.84-.25.69-.75a15.58,15.58,0,0,0-2.34-5,5.46,5.46,0,0,0-3.29-1.8,1.8,1.8,0,0,1-1.52-1.57c-.63-2.6-1.48-5.12-2.35-7.64-.14-.43-.41-.84-.23-1.35.68,0,1,.53,1.39.9,2.47,2.28,4.85,4.67,7.54,6.7a1.3,1.3,0,0,1,.46,1.68c-.67,1.57,0,2.65,1.12,3.63.35.31.65.66,1,1,2,2,2,2,2.68-.76.16-.61.29-1,1.08-1a11.54,11.54,0,0,0,2.24-.28c.65-.12.77-.52.33-1-.68-.71-1.46-1.33-2.13-2a4.4,4.4,0,0,0-4.17-1.58,2.62,2.62,0,0,1-2.21-.75c-2.56-2.11-4.92-4.43-7.34-6.67-.25-.23-.62-.49-.36-.87s.64-.12,1,0c2.59.66,5.16,1.35,7.75,2,.9.21,1.43.59,1.54,1.56A1.94,1.94,0,0,0,42.47,80a13.77,13.77,0,0,0,4.23,1.54c.51.1,1,0,1-.66a5.85,5.85,0,0,1,1.94-3.74C50.26,76.45,50.18,76.17,49.25,75.75ZM21.8,55.85a9.55,9.55,0,0,0-1.71,1A15.58,15.58,0,0,1,19.91,49c.53-.13.5.33.6.62.59,1.69,1.15,3.4,1.76,5.09C22.48,55.25,22.52,55.6,21.8,55.85Zm.52-3.56c-.55-1.32-1-2.68-1.46-4l.32-.28c2.28,1.88,4.43,3.85,5.54,6.82-1.19.12-2.35.57-3.18.23S22.71,53.23,22.32,52.29ZM15.08,62.2c-.27.69-.48,1.39-.73,2.08a13.39,13.39,0,0,1-3.93-7.62,62.71,62.71,0,0,1,4.65,4.74C15.3,61.63,15.2,61.91,15.08,62.2Zm.19-1.66a54.72,54.72,0,0,1-4-4.35c-.11-.09-.32-.18-.17-.35s.31-.05.46,0a17.46,17.46,0,0,1,7.47,4.61c-1.1.25-2.05,0-2.88.41C15.8,61.09,15.52,60.8,15.27,60.54ZM6.74,69.09a.32.32,0,0,1,.14,0c.1.07.1.14,0,.2Zm.16.23c1.63-.2,3.11.49,4.57,1,.89.3.72,1.55,1.22,2.72C10.25,72.11,8.29,71.18,6.9,69.32Zm4.64.13a6.69,6.69,0,0,1-2.33-.6,23.68,23.68,0,0,1-3.66-1.09,9.51,9.51,0,0,1,8-.23c0,.11,0,.28-.08.3C12.63,68.19,12.43,69.4,11.54,69.45Zm14,2.61a1.38,1.38,0,0,1-.1-.22s.07-.07.11-.1a2,2,0,0,1,.1.21S25.56,72,25.52,72.06Zm12.32,20c-1.78.36-2.11.23-2.6-1,.28-.44.92,0,1.21-.58-.48-.58-1.92.12-1.84-1.24C36.79,89.21,36.79,89.21,37.84,92.1Zm-2.65-3.91c-.19.33-.29.09-.42,0Zm-1.39-.58c.15-.29.38,0,.56.07s.4.18.35.45a2.68,2.68,0,0,1-.49,0C33.93,88.09,33.61,88,33.8,87.61ZM32.52,88c.78,1.39-1,2.21-.5,3.47.64-.36.65-1.18,1.19-1.57.47.21.47.55.32,1-.23.69-.74,1.31-.51,2.11.6-.21.49-1,1-1.3,1,1.28.89,1.62-1,3.47-.65-1.42-1.29-2.81-1.92-4.21a.65.65,0,0,1,.1-.64C31.56,89.57,32,88.85,32.52,88Zm-1.43-13.1s-.11-.08-.1-.11a1.06,1.06,0,0,1,.11-.21l.12.11ZM45,85.4c.33.51,1,.76,1.29,1.51a3.39,3.39,0,0,1-1.43.21c-.51.06-.51,0-.59-.6a.45.45,0,0,0-.43-.42,8.05,8.05,0,0,1-1-.21.56.56,0,0,1-.32-.38c0-.26.14-.4.38-.44C43.62,84.92,44.38,84.45,45,85.4Zm-1.62-1.06c-.64.08-1.32.52-2-.27A2.8,2.8,0,0,1,43.36,84.34Zm-1.83,1.77c.48.52-.19,1.29.3,1.8.44,0,.24-.91.76-.63s.95.51.72,1.19c-.14.42-.26.85-.45,1.45-.84-.85-2-1.27-2.14-2.53C41.23,87.14,40.89,86.39,41.53,86.11Zm-1-1.42c.46,1-.27,1.88.18,2.69-.33,0-.69-.12-.69-.52A3.08,3.08,0,0,1,40.49,84.69ZM46.91,80c-.08.41-.32.63-.73.47-1.06-.43-2.25-.52-3.19-1.25a2.07,2.07,0,0,1-.46-1.71A2.62,2.62,0,0,1,43.15,79c.17,0,.38,0,.5-.06.3-.21-.26-.91.44-.89.55,0,.4.61.6.93s.37.43.63-.05c.35-.66.89-.18,1.33,0S47,79.57,46.91,80Zm.25-2.08c-.36,0-1-.13-.82-.83h0c.12-.07.27-.16.14-.31s-.27,0-.37.08c-.57,0-1.13.77-1.72,0,.09-.41.64-.41.8-.8-1-.61-1.6.93-2.54.34,1.51-1.52,1.71-1.59,3.45-.79a10,10,0,0,1,2.48,1.08C48.18,77.21,47.94,77.91,47.16,77.88ZM68.43,22c.84,0,1.47-.62,2.33-.81a4.45,4.45,0,0,1,.59,2.14c0,.69-.1,1.38-.13,2.07,0,.4-.09.87.42,1A1.14,1.14,0,0,0,72.9,26a2.15,2.15,0,0,0,.45-1.79A6.94,6.94,0,0,0,72,20.4c4-1.7,4.55-5.51,2.26-8.56a12.71,12.71,0,0,0-2.69-2.69C70.79,8.62,70,8.1,69.28,7.54c-2.29-1.7-3.77-3.76-3-6.81,0-.06,0-.12,0-.17a1.14,1.14,0,0,0-.19-.45.45.45,0,0,0-.63,0,3.19,3.19,0,0,0-.43.54A21.49,21.49,0,0,0,61,10.17C60.42,14,61,17.55,64,20.4A5.68,5.68,0,0,0,68.43,22Zm3.69.6c0,.89,1,1.85,0,3.16Zm-8-4.41c2.42-.73,4,.6,5.79,2.08C67.26,21.73,65.93,20.77,64.14,18.15ZM74.22,16a3.72,3.72,0,0,1-1.69,2.87,2,2,0,0,1-2.12.18c-.73-.35-.55-1.08-.52-1.68C70,15.27,71.17,13.7,72.46,12A5,5,0,0,1,74.22,16ZM68.49,8.89c.43.28.78.48,1.09.72.73.56,1.89.88,2.09,1.71s-1,1.27-1.45,2a8.45,8.45,0,0,0-1.51,4.12C65.65,15.31,66.21,11.6,68.49,8.89ZM65,4.22a12.84,12.84,0,0,0,2.32,3.57.58.58,0,0,1,0,.91,11.79,11.79,0,0,0-1.72,3.42A13.31,13.31,0,0,1,65,4.22Zm-2.63,9.16a12.66,12.66,0,0,1,1.14-7.07,20.44,20.44,0,0,0,.83,5.45c.31,1.12.29,1.14-.88,1.47C63.15,13.32,62.84,13.55,62.38,13.38ZM63,16.17C62.44,14.67,63,14,64.6,14a.68.68,0,0,1,.65.45c.4.81.8,1.63,1.28,2.63a17.24,17.24,0,0,0-2.18,0A1.12,1.12,0,0,1,63,16.17ZM8.62,43.4a6.92,6.92,0,0,0-.69,3.2c0,.57.11,1,.83,1.06A1.07,1.07,0,0,0,10,46.56c0-.76,0-1.51,0-2.26s.38-1.17,1.33-1.1a7.51,7.51,0,0,0,6.24-2,4.57,4.57,0,0,1,1.15-.78,6,6,0,0,0,2.88-3.56,12.13,12.13,0,0,0-.1-9.15,5.63,5.63,0,0,0-2.45-2.88c.21,3-1.67,4.51-3.57,6-1.55,1.21-3.15,2.36-4.72,3.55a10.48,10.48,0,0,0-2.23,2.18,4,4,0,0,0-.05,5.27A1.33,1.33,0,0,1,8.62,43.4ZM20.21,27.47a3.74,3.74,0,0,1,1.19,2.66,12.18,12.18,0,0,1-.28,5.16c-.17.68-.44.92-1.22.71a10.76,10.76,0,0,0-2.39,0A12.36,12.36,0,0,0,20.21,27.47Zm-3.54,3.85a16.34,16.34,0,0,0,2.65-2.73A11.35,11.35,0,0,1,16.26,36a4.76,4.76,0,0,0-.05-3.49C16,31.86,16.31,31.62,16.67,31.32Zm3.68,5.75a7,7,0,0,1-1.45,2.12,1.23,1.23,0,0,1-1.54.39,9,9,0,0,0-2.88-.44C15.8,37.23,17.5,36.62,20.35,37.07ZM11.86,35a33.21,33.21,0,0,1,3.28-2.33c.92,1.59,0,3-.33,4.39s-1.61,1.5-2.73,2.59a6.13,6.13,0,0,0-.48-3.45A.83.83,0,0,1,11.86,35Zm.2,6a5.69,5.69,0,0,1,4.63-.16,8.49,8.49,0,0,1-5.79,1.28C10.94,41.24,11.52,41.13,12.06,41Zm-1.3-4.81a4.74,4.74,0,0,1-.32,4.72c-.4.71-.81.68-1.29,0a2.45,2.45,0,0,1-.48-2A4.21,4.21,0,0,1,10.76,36.14Zm43.61-8.25a2.22,2.22,0,0,0,1.92-1.7c.08-.74-.77-1.6-1.66-1.68a1.71,1.71,0,0,0-1.82,1.67A1.6,1.6,0,0,0,54.37,27.89Zm.35-2.34a.74.74,0,0,1,.65.73,1,1,0,0,1-1.13.53.49.49,0,0,1-.39-.65A.68.68,0,0,1,54.72,25.55Zm3,6.47a1.74,1.74,0,0,0,1.78-1.71,1.68,1.68,0,0,0-1.81-1.85A1.73,1.73,0,0,0,56,30.23,1.83,1.83,0,0,0,57.75,32Zm.19-2.62a1,1,0,0,1,.84,1A1,1,0,0,1,57.7,31a.64.64,0,0,1-.65-.81C57.11,29.66,57.37,29.29,57.94,29.4Zm-16.5-5.09a2,2,0,0,0,1.71-1.24A1.19,1.19,0,0,0,42,22a1.41,1.41,0,0,0-1.42,1.27C40.56,23.82,40.79,24.24,41.44,24.31Zm.47-1.38c.13.07.41.15.41.21a.55.55,0,0,1-.57.52c-.21,0-.32-.09-.32-.27S41.66,23,41.91,22.93Zm7.16,1.66c.54.39,1.1.2,1.71-.56.37.2.57,0,.62-.32.11-.77-.39-1.16-1-1.34a1.44,1.44,0,0,0-1.69.85A1.13,1.13,0,0,0,49.07,24.59Zm.53-1.2a.52.52,0,0,1,.76-.06,2.79,2.79,0,0,1,.41.67l-.62,0c-.29,0-.58,0-.66-.34A.42.42,0,0,1,49.6,23.39ZM36.85,23a1,1,0,0,1,1-1,.79.79,0,0,1,.83.89.94.94,0,0,1-1,1C37.24,23.74,36.83,23.54,36.85,23Zm7.92.59a.88.88,0,0,1,.12-1.24A1.29,1.29,0,0,1,46.47,22a.67.67,0,0,1,.46.82c-.24.58-.5.05-.77-.05s-.58-.11-.6.31.33.39.6.46c.07-.15.23-.34.35-.26.32.21,0,.35-.11.5h0A1.05,1.05,0,0,1,44.77,23.55ZM79.59,58.1a1.62,1.62,0,0,0,1.35-1.37,1.42,1.42,0,0,0-1.34-1.32,1.27,1.27,0,0,0-1.24,1.2A1.68,1.68,0,0,0,79.59,58.1Zm.2-1.85a.49.49,0,0,1,.26.57c0,.23-.16.44-.46.42a.53.53,0,0,1-.31-.68A.38.38,0,0,1,79.79,56.25Zm-.43,10.27c.21-.43,0-.66-.41-.72a1.32,1.32,0,0,0-1.52.87,1.69,1.69,0,0,0,.66,1.81,1,1,0,0,0,1.27-.09C79.88,67.8,80.1,67.13,79.36,66.52Zm-.22.79c-.09.26-.22.6-.59.35a.5.5,0,0,1-.11-.75c.21-.32.62-.18.88-.37A3.92,3.92,0,0,1,79.14,67.31ZM33,93a.26.26,0,0,1-.17.37s-.08-.08-.08-.13S32.76,92.9,33,93Zm0,0h0v0h0Z"/><text class="cls-1" transform="translate(0 124.26)"><tspan class="cls-2">S</tspan><tspan x="12.85" y="0">a</tspan><tspan class="cls-3" x="25.34" y="0">g</tspan><tspan x="39.66" y="0">i</tspan><tspan class="cls-4" x="45.73" y="0">r</tspan><tspan x="54.07" y="0">a</tspan><tspan class="cls-5" x="66.56" y="0">r</tspan><tspan class="cls-6" x="75.13" y="0">ius</tspan></text></g></g></svg>