<svg xmlns="http://www.w3.org/2000/svg" viewBox="0 0 82.2 132.69"><defs><style>.cls-1{font-size:25.91px;font-family:MyriadPro-Regular, Myriad Pro;}.cls-2{letter-spacing:0.01em;}.cls-3{letter-spacing:-0.01em;}.cls-4{letter-spacing:0em;}.cls-5{letter-spacing:0em;}</style></defs><title>Asset 389</title><g id="Layer_2" data-name="Layer 2"><g id="Layer_1-2" data-name="Layer 1"><path d="M80.37,70c-2.56-1-4.29-3-6-5.11a15.87,15.87,0,0,1-1.55-2.2A3.2,3.2,0,0,0,70,61c-.79-.06-1.58-.16-2.36-.25-2.42-.27-4.83-.57-7.26-.7a5.8,5.8,0,0,0-4.85,1.85A15.19,15.19,0,0,1,53.7,63.6c-.81.62-1.64,1.31-2.86,1,.33-.73-.08-1.56,1-2A16.22,16.22,0,0,0,59,56.82a1.22,1.22,0,0,1,1.27-.62c2.58.13,5.17.22,7.76.23a1.2,1.2,0,0,1,1.23.71,6.65,6.65,0,0,0,2.08,2.36,15.77,15.77,0,0,0,6.75,2.57,4.16,4.16,0,0,0,1.57-.14c.26-.06.56-.17.59-.45s-.3-.48-.6-.58a6.67,6.67,0,0,1-.74-.29c-3.53-1.55-6.59-3.6-8-7.4a2.26,2.26,0,0,0-2.11-1.42,30.9,30.9,0,0,0-6.16-.16,11.84,11.84,0,0,0-7.64,4,15.54,15.54,0,0,1-4.06,3.25c-.3.15-.63.42-1.12,0a3.92,3.92,0,0,0,.32-3.13c-.15-.41.24-.52.55-.61a12.46,12.46,0,0,0,4.92-3.37c.74-.74,1.58-1.4,2.35-2.12a1,1,0,0,1,.69-.32A37.74,37.74,0,0,0,66.73,48a1.78,1.78,0,0,1,2,.79,18,18,0,0,0,7.8,5.53,3.4,3.4,0,0,0,1.69.31.63.63,0,0,0,.39-.21c.14-.2,0-.4-.15-.54s-.24-.2-.37-.29A31,31,0,0,1,70,45.26a3.14,3.14,0,0,0-2.86-1.34,10.06,10.06,0,0,0-1.89.23q-2.94.62-5.88,1.3a2.59,2.59,0,0,0-1.65.84,33,33,0,0,1-4.23,4,19.16,19.16,0,0,1-3.72,2.29,5.11,5.11,0,0,0-1-2.44.55.55,0,0,1,0-.72A4,4,0,0,0,49,46.24a.71.71,0,0,1,.33-.93,8.66,8.66,0,0,0,2.42-2.48,2.83,2.83,0,0,1,1.66-1.09,22.13,22.13,0,0,0,5.85-2.4c.8-.47,1.46-.71,2.17.17a4.17,4.17,0,0,0,1.63,1A24.16,24.16,0,0,0,70,42.17a10.23,10.23,0,0,0,1.75,0,.5.5,0,0,0,.46-.37.46.46,0,0,0-.3-.5l-.87-.4c-2.17-1-4.31-2-6.41-3.12a6.67,6.67,0,0,1-2.15-1.32,3,3,0,0,0-3.31-.87,8,8,0,0,0-2.63,1.07,15.2,15.2,0,0,1-3.71,1.76,4.06,4.06,0,0,0-1.65,1.11,14.58,14.58,0,0,1-3.47,2.6,4,4,0,0,0-1.32-2c-.55-.6.19-1.53-.31-2.25-.27-.39-.39-.92-.73-1.21a1.88,1.88,0,0,1-.31-2.8c1.23-1.78-.44-4-2.37-4.1-.67-.05-1.33.12-2,.09-.41-2.21-1.08-3.18-3-4.1a2.5,2.5,0,0,1-1.27-1.29,10.59,10.59,0,0,0-2-3.19,6.08,6.08,0,0,1-1.59-3.21c-.59-2.88-1-5.74.81-8.39.72-1.05,1.41-2.11,2.1-3.17.19-.31.49-.33.76-.47,2.35-1.24,5-1.48,7.45-2.5a.4.4,0,0,1,.24-.62,4.55,4.55,0,0,1,1.21-.29c.67-.07,1.26-.74,1.94-.38a5.9,5.9,0,0,1,2,2.09c-.77.31-1.31-.08-1.85-.24a7.59,7.59,0,0,0-3.52-.59c.08.43.42.58.76.72a21,21,0,0,0,2.94,1.18,2.11,2.11,0,0,1,1.73,2.23c.14,1.61-.29,3.3.62,4.81a.48.48,0,0,1,0,.31c-.59,1.73-1.06,3.57-3.26,4-.53-2-1.24-2.56-3.38-2.45a7.53,7.53,0,0,0-1.57.23c-1.14.32-1.62-.72-1.19-1.67a3.58,3.58,0,0,1,2-1.7,11.28,11.28,0,0,1,2.92-.68c.42-.08.9-.12.95-.66s-.34-.62-.65-.82a6.08,6.08,0,0,0-4-.72A6.09,6.09,0,0,0,36,13.59C35.56,16.36,37.22,18.83,40,20a18.49,18.49,0,0,0,4.85,1.23,6.38,6.38,0,0,0,6.47-2.72,8.36,8.36,0,0,0,1.93-5.85,1.83,1.83,0,0,1,0-.47,7.28,7.28,0,0,0-2.09-7.37,4.16,4.16,0,0,1-.56-.95A6.84,6.84,0,0,0,46.36.43C45.19.15,44,.76,43,.62S40.76-.14,39.57,0a8.75,8.75,0,0,0-5.43,3,4.94,4.94,0,0,1-1,1,9.63,9.63,0,0,0-4.4,6.84,2.54,2.54,0,0,1-.36,1A5.25,5.25,0,0,0,28,16.76c.67,1.85,1.79,3.56,1.88,5.61a.84.84,0,0,0,.13.29,16.66,16.66,0,0,0,4.39,5.53c1,.89,2.07,1.81,3.15,2.65a1.4,1.4,0,0,1,.37,1.95,8.76,8.76,0,0,1-2.06,2.78c-1.16,1.06-2,2.26-1.13,3.91a.46.46,0,0,1-.15.68,4.18,4.18,0,0,0-1.46,1.94c-.4-.26-.67-.42-.92-.62-2-1.58-3.86-3.4-6.45-4.07a5.34,5.34,0,0,1-1.23-.72,8.93,8.93,0,0,0-3.09-1.18,2.78,2.78,0,0,0-2.87.86,3.78,3.78,0,0,1-1.28.91c-2.31,1.18-4.58,2.41-7,3.42-.39.16-.77.35-1.15.53a.49.49,0,0,0-.34.62.52.52,0,0,0,.51.32,12.2,12.2,0,0,0,3.46-.26c2.44-.49,4.92-.91,6.89-2.58a1.2,1.2,0,0,1,1.64-.16,25.07,25.07,0,0,0,6.43,2.65,2.49,2.49,0,0,1,1.37,1,9.07,9.07,0,0,0,2.42,2.48.76.76,0,0,1,.36,1.07,3.53,3.53,0,0,0,.24,2.91c.17.35.35.66,0,1a5.22,5.22,0,0,0-1,2.3,15.8,15.8,0,0,1-4.95-3.31c-1-1.08-2.34-1.83-3.14-3.12A1.58,1.58,0,0,0,22,45.57c-2.47-.54-4.94-1.1-7.43-1.57a3.53,3.53,0,0,0-3.92,1.68,30.61,30.61,0,0,1-7.21,7.51c-.44.33-1.45.53-1.07,1.26.3.55,1.16.19,1.75,0A17.4,17.4,0,0,0,12,49a2.26,2.26,0,0,1,2.7-.88,33.27,33.27,0,0,0,7.48,1.27,1.17,1.17,0,0,1,.83.36c.81.75,1.67,1.46,2.46,2.24a12,12,0,0,0,4.68,3.17c.55.17.79.39.58,1a3.24,3.24,0,0,0,.44,2.73c.09.11.27.28.24.33-.14.24-.34.11-.52,0a12.82,12.82,0,0,1-5-3.7,11.58,11.58,0,0,0-6.13-3.7,22.73,22.73,0,0,0-7.89,0A2.26,2.26,0,0,0,10,53.35a9.85,9.85,0,0,1-1.57,2.74,16.56,16.56,0,0,1-6.55,4.59c-.44.19-1.08.14-1.29.8a1.93,1.93,0,0,0,1.88.6c3.69-.54,7.15-1.57,9.25-5a1.12,1.12,0,0,1,1.12-.62c2.59,0,5.18-.08,7.77-.22A1.31,1.31,0,0,1,22,56.9a17.6,17.6,0,0,0,6.63,5.53c1.33.71,1.39.6,1.32,2.27a4.44,4.44,0,0,1-2.83-1.2,10.69,10.69,0,0,1-1-1,6.92,6.92,0,0,0-6.81-2.43l-.79.09c-2.42.26-4.83.56-7.25.77A3.9,3.9,0,0,0,8,62.77C6,65.75,3.85,68.57.42,70c-.18.07-.39.21-.31.48a.47.47,0,0,0,.47.34,7.26,7.26,0,0,0,3.83-.8A13.27,13.27,0,0,0,8.9,66.59a3.14,3.14,0,0,1,2.78-1.3,27.56,27.56,0,0,0,8.94-.94,1.45,1.45,0,0,1,1.32.3,29.46,29.46,0,0,1,4.24,3.55,60.11,60.11,0,0,0-6.48,1.46A22.53,22.53,0,0,0,12.05,73a8.05,8.05,0,0,0-3.2,3.42A2.8,2.8,0,0,1,7.68,77.8a6.53,6.53,0,0,0-2.94,4.85c-.15,1.33.4,2.59.57,3.86s-.16,2.7.32,4a13.74,13.74,0,0,0,5.94,7.39,11.48,11.48,0,0,0,9.05,1c.24-.06.52-.18.49-.52s-.23-.34-.43-.42c-1-.39-1.94-.84-2.94-1.16a2.7,2.7,0,0,1-1.92-1.7,2.46,2.46,0,0,0-1.71-1.74c-.5-.12-.73-.33-.61-.87a1.21,1.21,0,0,0-.68-1.45.68.68,0,0,1-.42-.9,1.89,1.89,0,0,0-.26-1.51c-.34-.64-.09-1,.63-1a10.4,10.4,0,0,0,1.55-.32c1.5-.39,2.05,0,2.06,1.54,0,2,0,2,1.83,2.49.59.15,1,.32,1,1,0,.92,1,.78,1.43,1.28s-.06,1.51.61,2.06a1.5,1.5,0,0,0,.25.19c1.11.51,1.08,1.46.93,2.44-.09.52-.23,1-.32,1.55-.05.31-.11.67.28.81s.59-.08.77-.38a17.55,17.55,0,0,0,1.45-3A10.91,10.91,0,0,0,25,89.52a25,25,0,0,0-2.66-5.38,19.62,19.62,0,0,0-6-5.87,50.19,50.19,0,0,1,4.48-3.66c1-.81,2-1.47,3.38-1.17a5.12,5.12,0,0,0,2-.24,53.82,53.82,0,0,0,5.16-1.56,2,2,0,0,1,1.45-.15,5.94,5.94,0,0,0-.28,2A3.6,3.6,0,0,0,33.65,76a1.45,1.45,0,0,0,1.61.36A1.81,1.81,0,0,0,36.4,75c.11-.66-.36-1-.74-1.49s-.3-.81.33-.8a3.63,3.63,0,0,0,2.4-.52c.42,1.89.69,2,1.93,1.18a2.22,2.22,0,0,1,.12-1.08c.21.34.09.72.13,1.07.37.27.64.7,1.24.46s.46-1.09.8-1.64a3.18,3.18,0,0,0,2.3.53c.65,0,.76.26.39.78-.09.13-.24.22-.33.34a1.63,1.63,0,0,0,.29,2.37,1.56,1.56,0,0,0,2.25-.37,3.88,3.88,0,0,0,.88-3.4c-.07-.34-.38-.67,0-1.06a38.92,38.92,0,0,1,4.07,1.24c1.83.52,3.64,1.15,5.59.81a1.15,1.15,0,0,1,1,.34c1.46,1.14,2.94,2.26,4.39,3.4a3.31,3.31,0,0,1,1.17,1.28,11.25,11.25,0,0,0-2.14,1.48,22.59,22.59,0,0,0-5.48,7.29,11.71,11.71,0,0,0-.42,10.53c.36.82.78,1.61,1.18,2.41.17.34.4.69.85.54s.36-.57.28-.94c-.14-.67-.29-1.34-.37-2A1.51,1.51,0,0,1,59.15,96a1.72,1.72,0,0,0,1-1.69c0-.42.07-.88.57-1a1.37,1.37,0,0,0,1.17-1.46.42.42,0,0,1,.41-.42c2-.13,2.58-1.15,2.36-3.07-.12-1,.64-1.42,1.68-1.18.61.15,1.23.29,1.85.42.85.19,1,.31.58,1.16a2.12,2.12,0,0,0-.2,1.37.76.76,0,0,1-.42.92c-.21.12-.56.39-.53.53.33,1.45-.87,1.73-1.69,2.35a2.45,2.45,0,0,0-.76,1.18,2.59,2.59,0,0,1-1.78,1.64c-1,.35-2,.78-2.94,1.17-.24.09-.54.15-.54.48s.34.51.65.56a20.64,20.64,0,0,0,3.77.43c5.25-.16,9.22-4.1,10.93-8.6a5.5,5.5,0,0,0,.35-3.87,1.27,1.27,0,0,1,.13-.91,6.64,6.64,0,0,0-1-7c-.57-.72-1.45-1.08-2-1.7S71.78,75.7,71.12,75a18.47,18.47,0,0,0-6.05-4c-2.69-1.3-5.65-1.56-8.44-2.46a7.87,7.87,0,0,1-1.83-.5c1.34-1.12,2.53-2.16,3.78-3.13a1.9,1.9,0,0,1,1.87-.53c3,1,6.16.91,9.27.91a2.34,2.34,0,0,1,2,.94A14.38,14.38,0,0,0,76.37,70a7.55,7.55,0,0,0,3.81.88c.27,0,.56,0,.63-.35S80.6,70,80.37,70ZM77,60.77v0H76.9Zm-7.37-7.69c1.19,3.55,3.82,5.58,6.92,7.5C72.06,59.83,68.77,56.29,69.66,53.08Zm1-4.95L73.34,51a1.39,1.39,0,0,1,.81.89,1.94,1.94,0,0,1-1.07-.61c-2.28-1.5-4.18-3.31-4.87-6.09C69.33,45.93,69.8,47.19,70.66,48.13Zm-9.76-2c1.69-.34,3.38-.72,5.08-1.05.38-.07.93-.3,1.12.2A3,3,0,0,1,67.42,47c-.06.31-.41.26-.66.28-2.61.25-5.13,1.05-7.89,1.18C59.14,46.49,59.14,46.49,60.9,46.13ZM61.31,37a65.92,65.92,0,0,0,6.9,3.79A13,13,0,0,1,62,38.47a2,2,0,0,1-.86-1.28l-.33-.3C61,36.76,61.19,36.85,61.31,37Zm-8.09,2.28a12.76,12.76,0,0,0,3.83-1.79,5.17,5.17,0,0,1,.85-.42c1.38-.6,1.38-.6,2.12.89a53.1,53.1,0,0,1-7.54,2.92C52.18,40.05,52.32,39.57,53.22,39.32ZM43.27,19.23c-.08.11-.28.28-.35.25a14,14,0,0,1-3.93-2,4.57,4.57,0,0,1-1.57-3,4.13,4.13,0,0,1,1.64-3.9,5.66,5.66,0,0,1,4.7-1.15c-.91.47-1.92.7-2.79,1.25A3.15,3.15,0,0,0,39.26,14a1.94,1.94,0,0,0,2.31,1.83c.68-.06,1.35-.21,2-.25s1.27-.15,1.54.51-.34.92-.54,1.35c-.84-.08-1.43-.84-2.28-.56,0,.54.67.48.77.91-.39.14-.76-.11-1.15-.09h0c-.08-.11-.2-.21-.32-.09s0,.22.11.31c.37.48,1,.6,1.45.91A.28.28,0,0,1,43.27,19.23ZM43.38,18c-.14,0-.28,0-.26-.22l.41.09C43.48,17.94,43.43,18,43.38,18Zm1.77,2c-.27,0-.53-.11-.58-.42a.55.55,0,0,1,.28-.53l2.57-1.52a.23.23,0,0,1,.35.17.55.55,0,0,1-.07.44c-.4.42-1.1.33-1.47.83h0c-.19,0-.49.13-.42.25s.41.12.63,0c.73,0,1.45-.68,2.31,0A5,5,0,0,1,45.15,20Zm5.15-2.19a2.53,2.53,0,0,1-.89.3c-.7.09-1-.29-.75-.94a.64.64,0,0,1,.08-.14,13,13,0,0,0,2.07-4c.44.91-.45,1.78.06,2.73.65-.82.52-1.95,1.21-2.76A4.58,4.58,0,0,1,50.3,17.82Zm.13-8.63c.48-1,.16-2,.31-3.38a9.49,9.49,0,0,1,1.58,5.09A.89.89,0,0,1,51.6,12c-.59.12-.88-.3-1.06-.75A2.75,2.75,0,0,1,50.43,9.19ZM46,1.82c-.71.07-1.43.41-2.13-.08C44.61,1.16,44.61,1.16,46,1.82ZM19.76,37.28l-.21.35A3.11,3.11,0,0,1,18.27,39a15.59,15.59,0,0,1-5.64,1.87c2.21-1.15,4.47-2.22,6.63-3.46a.34.34,0,0,1,.33-.3c.05-.13.13-.3.28-.17S19.87,37.18,19.76,37.28Zm8.71,3.6a56,56,0,0,1-7.58-2.83c.52-1.37.5-1.73,2.16-.92a30.8,30.8,0,0,0,5,2.33C28.77,39.66,28.57,40.25,28.47,40.88ZM7.41,51.58c-.1.1-.24.25-.36.11s0-.24.19-.28a38.08,38.08,0,0,0,5-6c.11-.19.28-.31.64-.15A11.51,11.51,0,0,1,7.41,51.58Zm6.68-4.35c-.46,0-.6-.25-.56-.73.12-1.37.43-1.66,1.77-1.38,1.8.38,3.58.83,5.39,1.15.78.13,1.28.33,1.26,1.21a3.91,3.91,0,0,0,.23.92C19.31,48.31,16.75,47.46,14.09,47.23Zm-2.64,8A6.63,6.63,0,0,1,9.65,58a10,10,0,0,1-4.27,2.27c2.32-2,4.81-3.8,5.81-7.06A2,2,0,0,1,11.45,55.27Zm51.2,43a1.13,1.13,0,0,1,.92-.53,3.08,3.08,0,0,0,2.52-2.13,1.69,1.69,0,0,1,1.52-1.2c.87-.11,1.1-.6,1-1.45s.22-1.3,1.22-1.23a2.51,2.51,0,0,0,1.46,0c-.25-.56-.88-.49-1.27-.77a.56.56,0,0,1-.24-.55c0-.27.24-.28.45-.33.4-.09.84,0,1.18-.3,0-.25-.14-.24-.27-.26a1.36,1.36,0,0,1-1.08-1.76,1.5,1.5,0,0,1,1.78-.82A4.36,4.36,0,0,0,74.6,87C75.56,92.49,68.7,98.92,62.65,98.24ZM71.41,78a2,2,0,0,1,1.16.46,6.2,6.2,0,0,1,2.48,6.41c-.29,1.08-.93,1.57-2,1.21a3.47,3.47,0,0,0-3.44.37,2,2,0,0,1-1.54.17c-.46-.1-.91-.26-1.37-.39-1.54-.43-2.08-.23-2.92,1.08-.11.18-.2.37-.28.52-.44.14-.58-.22-.82-.38s-.4-.5-.88-.32a3,3,0,0,0,1,1.48c.23.21.54.31.61.68.12.59-.19.94-.78.78a12.91,12.91,0,0,1-2.1-1.19c0,.83.84,1,.89,1.7-.82.2-1.19-.6-1.82-.73-.07-.22-.27-.33-.41-.19s.09.28.18.41.39.5.61.72c.88.88.87,1-.11,1.94a2.89,2.89,0,0,0-.51.59c-.35.58,0,1.45-.63,1.89a3.44,3.44,0,0,0-1.28,1.73,6.65,6.65,0,0,1-.85-4.38,11.05,11.05,0,0,1,.58-2.62c1.64-4.22,4-8,7.94-10.37A14.58,14.58,0,0,1,71.41,78ZM59.59,70.42c3.35,0,9.52,3.5,11.18,6.28a39.53,39.53,0,0,0-4.25,1.11.84.84,0,0,1-1.09-.38c-.26-.46.27-.59.47-.86l.48-.62h0a.37.37,0,0,0,.27-.36c.24-.14.33-.32.16-.57l-.4.34h0l-.28.24.23.32-.23-.32c-.59.23-.92,1-1.71.93-.18-.77.63-1,.66-1.57.22-.08.32-.28.16-.43s-.28.1-.4.21c-.52.21-.85,1.23-1.34.83-.7-.56.44-1,.52-1.52,0-.2.24-.36.1-.58-.09,0-.22,0-.27,0-.48.4-.72,1.17-1.35,1.26s-1-.59-1.47-.84-1.22-.63-1.91-1C59.27,72.09,59.79,71.32,59.59,70.42Zm1-17.27c.09-.42.41-.42.73-.43a33.78,33.78,0,0,1,6.28-.06c.62.09,1,.18.77.93a6,6,0,0,0,0,2.08,40.19,40.19,0,0,0-8.25-.41A7,7,0,0,1,60.56,53.15Zm-4.28,2.72a10.93,10.93,0,0,1,2.64-2c.07-.12.15-.28.31-.16s0,.27-.07.39a10.9,10.9,0,0,1-3.48,4.6,19.48,19.48,0,0,1-4.74,3.1c-.47-.4-.55-1-1-1.56A16,16,0,0,0,56.28,55.87Zm1.27-7.81c0,.06.06.13,0,.18s-.1.08-.18,0Zm-.15.21c.19.47-.18.74-.46,1a10.71,10.71,0,0,1-2,1.51A6.66,6.66,0,0,1,57.4,48.27Zm-6.87,4.91a10.37,10.37,0,0,0,3.19-1.63,1.48,1.48,0,0,1,.71-.55c.1-.16.21-.29.42-.2,0,.2-.07.31-.26.35a.9.9,0,0,1-.62.65c-1.18,1.6-3.1,2-4.78,3.18C49.27,54,49.48,53.36,50.53,53.18Zm-.81,6.08s-.06.07-.09.1l-.11-.19.11-.12A1,1,0,0,1,49.72,59.26ZM47.87,43.15a32.58,32.58,0,0,0,3.59-2.48c.22.48.21.79,0,1.06A24.07,24.07,0,0,1,49,44.56a1,1,0,0,1-1.43-.4A.66.66,0,0,1,47.87,43.15Zm-5.54,9.7c-.45.54-.07,1.65-1.4,1.71s-2.14-.35-2.33-1.81l-.19.25c-.3.38.31,1.22-.55,1.24s-.23-.91-.68-1.17c-.36.07-.4.36-.44.6-.06.48-.34.58-.77.56a23.42,23.42,0,0,0-2.37,0c-.61,0-.85-.21-1-.77a2.67,2.67,0,0,1,2.85-3.3,7.55,7.55,0,0,1,.94.12,20.42,20.42,0,0,0,8.13,0A4.51,4.51,0,0,1,46,50.2a2.63,2.63,0,0,1,2.27,3.34c-.11.46-.29.76-.85.7a5.54,5.54,0,0,0-1.57-.05c-1,.19-1.75,0-1.89-1.24-.75.35-.12,1.35-.92,1.29S42.85,53.21,42.33,52.85Zm.15-21.77c1.33.21,1.79,1,1.24,2.2A5.55,5.55,0,0,0,43.33,35c-1.52-.29-.14-1.37-.63-1.88-.46-.06-.47.81-1,.54s-.08-.76-.09-1.15h0c.12-.11.21-.25.09-.38s-.25,0-.37.07a2.29,2.29,0,0,1-2.2,1.35C39.58,31.7,40.79,30.81,42.48,31.08Zm-3-1.88c.07.31-.12.06-.19.08S39.44,29.14,39.46,29.2ZM35.24,3.54C36.35,1.82,40,.83,41.8,1.73c.31.16.74.29.71.74s-.41.46-.69.56c-.54.2-1.11.33-1.66.51a10.39,10.39,0,0,0-4.13,2c-.2-.4-.22-.67.15-.92a2.51,2.51,0,0,0,1-.75l-.27-.35c-.43.19-.85.4-1.29.56A.46.46,0,0,1,35.2,4,.51.51,0,0,1,35.24,3.54Zm-4.81,6a13,13,0,0,1,2-3.23,6.24,6.24,0,0,1,.88-.9c.35-.28.73-.77,1.23-.43s.28,1,0,1.39c-.62,1-1.29,1.92-2,3-.35-.48,0-.85,0-1.21h0c.07-.21.21-.43-.08-.6,0,.14-.11.27-.16.41-.76.7-1,1.83-1.77,2.49C30,10,30.32,9.75,30.43,9.52Zm1.37,1.53c-.3-.79,0-1.14.43-1.63C32.42,10.1,32.06,10.45,31.8,11.05Zm-1.3,5.39c-.07-.06-.19-.19-.2-.17-.2.13-.1.23.07.3v1.84c-.92-1.83-2.05-3.61-.91-5.73a4.18,4.18,0,0,1,.4-.68c.23-.27.45-.65.89-.49s.28.52.33.81c.42,2.16.09,4.4.84,6.54-.71.05-.69-.38-.76-.72-.12-.61-.1-1.27-.66-1.7Zm2.82,6.69c-.08-.22-.27-.33-.43-.18s.09.29.18.42a6.29,6.29,0,0,1,.79,2.28A16.72,16.72,0,0,1,31.27,22a5.26,5.26,0,0,1-.29-.9.76.76,0,0,1,.22-.86c.32-.23.61,0,.83.24a17.34,17.34,0,0,1,1.58,1.75c.64.87,1.18,1.82,1.77,2.74-.45.23-.66.13-.81-.26A2.67,2.67,0,0,0,33.32,23.13ZM34.77,27c-.46-.38-.19-.68.21-.8a3.18,3.18,0,0,1,2.77.82c.75.52,1.75,1,1.51,2.22a.18.18,0,0,0-.2-.12l-.3.23c0,.3.32.57.11,1C37.49,29.23,36.12,28.13,34.77,27Zm2.65,9.9A7.14,7.14,0,0,0,39.88,35,.64.64,0,0,1,41,35,6.93,6.93,0,0,0,43.5,36.9a3.09,3.09,0,0,1,1.59,2.55c-1.89.44-1.89.44-2.82-1.43-.31,1.71-.32,1.73-.65,1.66-.65-.13-1,1.4-1.92.23-.63-.84-.75-.76-.87-1.81-.76.27-.61,1-.92,1.64l-2-.1A2.85,2.85,0,0,1,37.42,36.92Zm-3.14,5.34a2.2,2.2,0,0,1,2.77-1.44,12.37,12.37,0,0,0,3.58.48,11.41,11.41,0,0,0,3-.4c2.11-.59,3.24.44,2.89,2.69-.49.17-1-.22-1.5-.08-.92.27-1.44-.11-1.63-1-.74.39-.42,1.11-.72,1.58-.65.06-.24-.76-.82-.83-.53.12.13,1-.47,1.08a9.38,9.38,0,0,1-1.41.07c-1,0-.47-.85-.75-1.24-.58.07-.35.73-.72,1-.65-.34-.08-1.24-.69-1.57-.38.06-.38.34-.41.59s-.16.61-.6.47a3.72,3.72,0,0,0-1.41-.09C34.36,43.56,34.07,43.22,34.28,42.26ZM36.86,45a12.78,12.78,0,0,0,7.25,0,3,3,0,0,1,3.22.74c.85.82.68,1.93.45,3-.11.54-.46.66-.94.46a3,3,0,0,0-1.55-.21c-.87.11-1.63.07-1.9-1-.51.38,0,1.26-.81,1.29-.49,0-.28-.62-.64-.94-.26,1.1-1,1.35-2,1.27s-.47-.89-.75-1.21c-.65.08-.3.92-.84.88-.74-.06-.33-.92-.83-1.28a1.21,1.21,0,0,1-1.61,1,3.16,3.16,0,0,0-1.86.21c-.53.22-.76,0-.9-.52a2.82,2.82,0,0,1,.49-3A3,3,0,0,1,36.86,45Zm-4.61-.22a8.65,8.65,0,0,1-2.83-3.48c0-.07.07-.19.19-.47a36.82,36.82,0,0,0,3.61,2.47.55.55,0,0,1,.18.92C33.07,44.45,32.7,45.11,32.25,44.73Zm.48,10.87a4.23,4.23,0,0,1,2.48-.34,9.85,9.85,0,0,0,5-.14,1.16,1.16,0,0,1,.76.09,9,9,0,0,0,4.23.11,5,5,0,0,1,2.66.16,1.91,1.91,0,0,1,.78,3.08c-.26.28-.56.21-.87.2a6.13,6.13,0,0,0-4.46,1.12c-.24-.34,0-.83-.47-1-.25.93.06,2-.78,2.91-.27-.65-.19-1.33-.78-1.95a7.59,7.59,0,0,0,0,2.33c0,.66-.16,1-.88.95s-.81-.34-.76-.92a6.67,6.67,0,0,0,0-2.09c-.66.37-.4,1.16-.81,1.59a1.49,1.49,0,0,1-.5-1.27c0-.47-.17-.93-.3-1.66-.2.51-.32.79-.45,1.13a5.44,5.44,0,0,0-4.15-1.15,1.1,1.1,0,0,1-1.45-1C31.71,56.69,31.93,56,32.73,55.6Zm-9.14-6.88c-.09-.12-.23-.27-.08-.39s.25,0,.31.18c.62.43,1.41.72,1.51,1.63A3.34,3.34,0,0,1,23.59,48.72Zm1.77,1.44c.25,0,.36,0,.29.3A.29.29,0,0,1,25.36,50.16Zm.32.32c.25-.06.37,0,.29.3A.31.31,0,0,1,25.68,50.48Zm.76.84a.53.53,0,0,1-.13-.19c-.24-.1-.3-.2-.32-.33.28-.1.4,0,.31.31.08,0,.17-.08.24-.06s.07.13.1.19l-.31-.1C26.61,51.38,26.54,51.41,26.44,51.32Zm.38.33c.36-.46.58,0,.78.11a10,10,0,0,0,3.26,1.55c.5.1.49.16.95,1.67C30,53.83,28,53.31,26.82,51.65ZM12.58,55.73a10,10,0,0,0-.06-2.88,17.61,17.61,0,0,1,4.61-.29c.36,0,.73.08,1.09.11,2.24.13,2.24.13,2.66,2.57A37.23,37.23,0,0,0,12.58,55.73Zm9.11-2a20.79,20.79,0,0,1,3.62,2.79,13.06,13.06,0,0,0,5.46,3.66c.1.68-.47,1-.63,1.79C26.44,60,23.21,57.75,21.69,53.71Zm-18,15.68c-.28-.13,0-.14.06-.2C3.8,69.29,3.76,69.42,3.69,69.39Zm4.84-3.76A14.63,14.63,0,0,1,4.6,69c-.27.14-.52.32-.83.2a40.18,40.18,0,0,0,5.9-6.84A4.65,4.65,0,0,1,8.53,65.63Zm10.15-1.88c-2.46.25-4.92.47-7.38.72-.69.07-1-.13-.85-.87a3.69,3.69,0,0,0,0-.94c0-.47.16-.68.62-.7,3.42-.12,6.8-.8,10.24-.7.2,0,.4,0,.74.05A3.85,3.85,0,0,1,18.68,63.75ZM26,66.18a8.78,8.78,0,0,0-4-2.57l1-2a12.32,12.32,0,0,1,2.55,2.09,6.06,6.06,0,0,0,4.49,2,.88.88,0,0,1,.84.32c.62.82,1.58,1.18,2.38,1.93-1.1,0-2.21.08-3.31,0A6.21,6.21,0,0,1,26,66.18ZM12.29,93c0,.77.18,1.23,1,1.35a1.58,1.58,0,0,1,1.48,1,3.36,3.36,0,0,0,2.88,2.38,2.3,2.3,0,0,1,.43.18.5.5,0,0,1,.12.13c-.06.53-.5.28-.72.28A10.56,10.56,0,0,1,9.68,95a14,14,0,0,1-3.25-5.56,3,3,0,0,1,0-2.37A3.48,3.48,0,0,0,8.88,87c.29-.12.61-.32.91-.13s1.19.27,1.08.94a8.6,8.6,0,0,1-.13,1.37c-.15.41-.64.25-1,.35a1,1,0,0,0-.24.17,1.31,1.31,0,0,0,.11.12c.46.34,1.4,0,1.49.59.15.92-1,.62-1.52,1.26.41.34.85.16,1.27.12C12.12,91.62,12.38,91.82,12.29,93Zm8.05-9.33a20.52,20.52,0,0,1,3.77,7.77,7.41,7.41,0,0,1-.55,5.31c-.54-.54-.75-1.33-1.46-1.64a.57.57,0,0,1-.28-.53,2.44,2.44,0,0,0-1.25-2.23c-.55-.32-.44-.88,0-1.34s.87-.61,1-1.17c.07-.07.21-.18.2-.2-.13-.19-.26-.1-.38,0-.7.29-1.21,1.15-2.27.91.38-.62,1.05-.77,1.17-1.37.18,0,.31-.21.21-.34-.24-.3-.28.1-.42.16a14.27,14.27,0,0,1-1.64.87c-.36.1-.71.35-.93-.1a.72.72,0,0,1,.32-1A3.13,3.13,0,0,0,19,87.5.44.44,0,0,0,19,87h0s0,0,0,0h0l0,0c-.62.07-.87.74-1.51.89-.14-.25-.28-.53-.45-.78a2,2,0,0,0-2.57-1c-.41.1-.81.23-1.21.36a2.52,2.52,0,0,1-2.42-.29,2.66,2.66,0,0,0-2.55-.24c-1.57.5-2.29,0-2.52-1.62a6.12,6.12,0,0,1,2.11-5.54A3.05,3.05,0,0,1,10.36,78,13.13,13.13,0,0,1,20.34,83.69Zm-1.78-8.9c-.74-.24-1-1-1.7-1.4-.18.65.31,1,.57,1.41.16.26.45.51.09.8s-.6-.22-.9-.33h0a.58.58,0,0,0-.19-.19.79.79,0,0,0-.6-.49l0,0,0,0h0c-.28.35,0,.51.26.7a.43.43,0,0,0,.28.35c.07.25.26.58.17.72-.23.34-.53.1-.78-.08l-1.13-.8a.34.34,0,0,0-.35-.29c0-.12-.1-.28-.24-.16s0,.23.09.32l.21.36.69.85c.21.27.73.41.5.86s-.74.53-1.24.35-.8-.27-1.21-.37l-3-.72a9.18,9.18,0,0,1,2.49-2.62,30.34,30.34,0,0,1,7.21-3.53,6.74,6.74,0,0,1,.78-.16c.45-.12.66,0,.75.51.12.67.32,1.31.5,2.07A16.78,16.78,0,0,0,18.56,74.79Zm9.54-3.12a.87.87,0,0,1-1.23-.59,1.54,1.54,0,0,0-.57-.89c-.63.6,0,1.2-.1,1.8-.76-.15-.53-1.27-1.33-1.32-.41.55.38,1.09,0,1.65-.9.1-.85-1-1.52-1.18-.44.33.33.76-.16,1.17a1.55,1.55,0,0,1-.68-1.71c.09-.57.7-.58,1.13-.71a11.68,11.68,0,0,1,2.64-.46,57.66,57.66,0,0,1,9.29-.33c.21,0,.41.07.67.58C33.28,69.72,30.73,70.83,28.1,71.67Zm12.37.08c-.63,0-.9-.24-.92-.76,0-.87.65-.36,1-.47s.86-.25.87.32S41.25,71.78,40.47,71.75Zm6.17,3.41c-.25.23-.52.39-.82.09s-.17-.57,0-.83.23-.21.35-.32a1.13,1.13,0,0,0,.36-1.42,1.46,1.46,0,0,0-1.37-.91l-.51,0a2.05,2.05,0,0,1-2.35-1.36,1.33,1.33,0,0,0-1.72-.88,3,3,0,0,1-.77-.07,1,1,0,0,0-1.15.64,2.34,2.34,0,0,1-2.79,1.67,1.41,1.41,0,0,0-1.55.86c-.34.63,0,1.11.44,1.53a6.17,6.17,0,0,1,.43.46c.16.21.06.41-.07.58a.44.44,0,0,1-.68.09,3,3,0,0,1-1.06-2.53,1.69,1.69,0,0,1,1.3-1.61c.3-.12.61-.19.91-.28,1.29-.41,1.48-.84.89-2.08a5.39,5.39,0,0,0-2.79-2.47,3.44,3.44,0,0,1-2.24-2.27c-.35-1.43.45-3.46,1.64-4a3.24,3.24,0,0,1,3.93,1.51A15,15,0,0,0,37.9,63,3,3,0,0,0,40.18,64c2,.27,2.87-.86,3.63-2.33a3,3,0,0,1,2-1.65,2.6,2.6,0,0,1,3.35,1.63,3.24,3.24,0,0,1-.81,4c-.51.36-1.11.6-1.66.91a4.85,4.85,0,0,0-2.45,2.59c-.33,1-.16,1.31.81,1.65l.76.23A2.35,2.35,0,0,1,46.64,75.16Zm10.61-5.28c1.29.29,1.56,1,.93,2-.17.3-.48.67-.7,0-.14-.43-.39-.21-.57,0s-.41.65-1,.35c0-.48.46-1,.12-1.56-.74.15-.56,1.11-1.25,1.33-.15-.57.36-1.19-.06-1.74-.13.07-.26.1-.3.17-.93,1.47-.93,1.48-2.51,1a22.62,22.62,0,0,0-7.11-1.66c0-.58.36-.61.67-.58.64.06,1.27-.1,1.89-.09A47.46,47.46,0,0,1,57.25,69.88ZM56,65.32a7.82,7.82,0,0,1-7,2.62,12.14,12.14,0,0,0-1.35,0,15.46,15.46,0,0,0,2.48-2c.22-.3.55-.27.86-.26a6.07,6.07,0,0,0,4.35-1.92c.81-.75,1.65-1.47,2.53-2.26.4.75.74,1.38,1.1,2.07A6.78,6.78,0,0,0,56,65.32Zm13.38-.89c-2.25-.2-4.51-.38-6.75-.65s-2.36-.44-3.79-2.46a49.38,49.38,0,0,1,7.86.37c.94.07,1.88.23,2.82.24.77,0,1,.29,1,1a9.11,9.11,0,0,0,0,1.27C70.16,64.63,69.72,64.46,69.33,64.43Zm1.9-2.14a66.46,66.46,0,0,0,5.22,6.49C73.83,67.33,71.51,65.62,71.23,62.29ZM77,69.13,76.8,69s.08-.08.11-.08S77,69,77,69Zm-50.66-18,0,0h0ZM19,87c.13-.14-.14-.14.07-.12,0,0,.09,0,.09,0S19.1,87,19,87ZM34.28,62.14a1.46,1.46,0,0,0-.63,2,2.36,2.36,0,0,0,1.75,1.44c.43.07.85.26,1.41.31-.24-1-.39-1.93-.68-2.81A1.37,1.37,0,0,0,34.28,62.14Zm.28,1.21c0-.06.16-.16.22-.14.68.23.63.83.76,1.6C34.81,64.42,34.48,64,34.56,63.35Zm12.65,1a1.46,1.46,0,0,0-.52-2.15,1.39,1.39,0,0,0-1.93,1.05c-.19.85-.41,1.7-.7,2.73C45.39,65.65,46.56,65.51,47.21,64.31ZM46.3,64a1.64,1.64,0,0,1-.85.91,1.83,1.83,0,0,1,.19-1.15c.08-.29.24-.64.61-.51S46.4,63.72,46.3,64ZM41.75,65.8a3.43,3.43,0,0,1-2,.25c-.14,0-.3,0-.31-.24a.29.29,0,0,1,.27-.31A2.73,2.73,0,0,1,41.75,65.8ZM15.82,74.59c-.06.07-.12.06-.17,0l.07,0C15.92,74.42,15.65,74.49,15.82,74.59Zm41.71-3.15c0-.07-.12-.15-.11-.22s.1-.15.15-.23l.12.25ZM37.17,3.91l-.27-.35a1.22,1.22,0,0,1,.8-.41c.07-.22.29-.32.42-.17s-.14.26-.24.39h0A1.14,1.14,0,0,1,37.17,3.91Zm1.89,25.23-.3.23L38.59,29c-.16-.08-.26-.18-.07-.34l.18.23A.32.32,0,0,1,39.06,29.14Z"/><text class="cls-1" transform="translate(0 126.21)"><tspan class="cls-2">S</tspan><tspan class="cls-3" x="12.93" y="0">c</tspan><tspan x="24.38" y="0">o</tspan><tspan class="cls-4" x="38.6" y="0">r</tspan><tspan class="cls-5" x="47.18" y="0">pio</tspan></text></g></g></svg>