<svg xmlns="http://www.w3.org/2000/svg" viewBox="0 0 86.95 118.54"><defs><style>.cls-1{font-size:25.91px;font-family:MyriadPro-Regular, Myriad Pro;letter-spacing:-0.06em;}.cls-2{letter-spacing:0em;}</style></defs><title>Asset 396</title><g id="Layer_2" data-name="Layer 2"><g id="Layer_1-2" data-name="Layer 1"><path d="M10.22,43a4.69,4.69,0,0,0-1.13-1.86c0-.27-.05-.54-.35-.67a5.44,5.44,0,0,0-.73-2,4.23,4.23,0,0,1,1,0,16.05,16.05,0,0,0,6.76.11,9.19,9.19,0,0,1,3.73.16c1.54.46,2.72,2,2.5,3.25a.72.72,0,0,1-.49.64c-.32.09-.48-.14-.59-.45-.64-1.83-2.12-2.25-3.82-2.17-2.35.11-4.67.88-7.14,0,1,2.51,1.9,3.25,4.12,3.62.84.14,1.69.21,2.54.3.55.07,1.16,0,1.63.59A8.52,8.52,0,0,1,10.22,43Zm0,0-.13-.09.12.25.09.06C10.27,43.12,10.24,43.05,10.22,43Zm49.6.68a8.49,8.49,0,0,0-5.07,2.55A4.61,4.61,0,0,1,51,47.85a20.3,20.3,0,0,0-2.2.14c-.23,0-.47.1-.51.37a.54.54,0,0,0,.48.59,9.28,9.28,0,0,0,4.06.11,3,3,0,0,1,2,.17,6.49,6.49,0,0,0,3.51.48,3.39,3.39,0,0,0,3-4.06c-1,.59-1.41,1.84-2.48,2.3a4.09,4.09,0,0,1-3.44,0c1.86-2.76,4.69-2.85,7.76-3A3.12,3.12,0,0,0,59.82,43.66Zm8.77-5.16a4.07,4.07,0,0,0-3.18,1.7A2.26,2.26,0,0,0,65,42.12a.65.65,0,0,0,.43.49.42.42,0,0,0,.54-.28c.79-2.39,2.68-2.46,4.7-2.26s4.13.76,6.29-.16c-.9,2.45-1.85,3.3-4,3.66-.89.16-1.8.23-2.7.32-.55.06-1.15,0-1.62.57a8.07,8.07,0,0,0,7.69-1.25,19.47,19.47,0,0,0,2.57-4.8,6.71,6.71,0,0,0-1.35.11,12.73,12.73,0,0,1-4.88.23A17.35,17.35,0,0,0,68.59,38.5ZM37.78,48a7.77,7.77,0,0,0-1.52-.1,5.4,5.4,0,0,1-4.48-2,7.75,7.75,0,0,0-5.21-2.23A2.13,2.13,0,0,0,24,44.89a20.36,20.36,0,0,1,4.28.61,5.78,5.78,0,0,1,3.29,2.55,7.06,7.06,0,0,1-2.49.23c-1.67-.11-2.21-1.8-3.62-2.65,0,2.38,1.27,3.85,3.27,4.09a6.11,6.11,0,0,0,3.33-.48,3.16,3.16,0,0,1,2.12-.15,10.33,10.33,0,0,0,3.55,0c.41-.06.91-.15.93-.59S38.15,48,37.78,48Zm9.11-10.09a10.32,10.32,0,0,0-3,6c0,.25,0,.61-.42.61s-.47-.33-.51-.58a9.88,9.88,0,0,0-1.55-4.27c-.56-.84-1.25-1.58-1.92-2.41.22-.16.39-.36.58-.4,2-.43,2.67-1.89,2.76-3.75a4.12,4.12,0,0,1,.53-2.55c.57.18.49.63.54,1,.09.67.17,1.35.21,2a3.17,3.17,0,0,0,2.49,3.23C47.5,37,47.54,37.23,46.89,37.86Zm-.72-.62c-1.44-.17-2-1.11-2.83-1.88-.46,1.1-1.43,1.5-2.37,2.09,1.51,1.24,1.91,2.89,2.45,4.82C44.06,40.37,44.46,38.64,46.17,37.24Zm-.58,11.25a12.86,12.86,0,0,1-4.06.06c-.25,0-.61-.25-.7.15s.33.52.65.6a1.68,1.68,0,0,0,.67,0,8.54,8.54,0,0,1,2.67,0c.54.08,1.12,0,1.37-.57C46,48.42,45.81,48.45,45.59,48.49ZM35.71,54a.45.45,0,0,0-.31.54,23.13,23.13,0,0,0,.82,3.56,4,4,0,0,0,0-3.83A.45.45,0,0,0,35.71,54ZM86.06,22.07a13.33,13.33,0,0,1-2.41,4.48c-2.38,2.91-4.78,5.8-8.14,7.68-.07.05-.1.18-.2.37,2.51.85,5,.16,7.5.07.29.85-.25,1.28-.64,1.73a10.89,10.89,0,0,0-2.06,3.89,16.59,16.59,0,0,1-2,4.15A7.57,7.57,0,0,1,71.88,48a7.72,7.72,0,0,1-3.73-1c-.14-.22-.3-.44-.58-.31s-.07.25,0,.36a16.42,16.42,0,0,1,1.61,7.09,7,7,0,0,1-2.9,5.72c-.72.56-1.44,1.11-2.18,1.64a4.3,4.3,0,0,0-1.81,3.15A7.06,7.06,0,0,1,60,69.05a2.15,2.15,0,0,0-.72,1.65,6.19,6.19,0,0,1-2.14,4.82,5.59,5.59,0,0,0-1.2,2,8.84,8.84,0,0,1-1.39,2.14c-1.16,1.37-2.58,2.48-3.51,4.1a5.62,5.62,0,0,1-4.15,2.43,19.12,19.12,0,0,1-6.62,0A6.45,6.45,0,0,1,35,82.5a2.9,2.9,0,0,0-.9-1,12.4,12.4,0,0,1-3.41-4.41,4.21,4.21,0,0,0-1.08-1.71,5.63,5.63,0,0,1-2-4.19,3.5,3.5,0,0,0-1.11-2.52,6,6,0,0,1-1.86-3.74,4.94,4.94,0,0,0-2.29-3.81c-.52-.35-1-.75-1.51-1.12a7.41,7.41,0,0,1-3.11-7.46,19.37,19.37,0,0,1,1-4.3c.12-.36.41-.69.18-1.1-.3-.22-.54,0-.79.08a7.17,7.17,0,0,1-9.38-2.77,14.39,14.39,0,0,1-1.86-3.82,11.62,11.62,0,0,0-2.38-4.48A1.48,1.48,0,0,1,4,34.79c1.24-.29,2.49.2,3.75.22a13.32,13.32,0,0,0,3.87-.37c-.07-.15-.08-.3-.15-.34-3.55-2-6.13-5-8.56-8.21C-.55,21.55-1.52,13.2,3.3,7.54a32.58,32.58,0,0,1,7.47-6.15c1.56-1,3.41-1,5.34-1.39a1.51,1.51,0,0,1-.94,1.12,2.71,2.71,0,0,0-1.43,3c.1.5.08,1,.13,1.53a2.23,2.23,0,0,1-1,2.2A3.84,3.84,0,0,0,11,11.06a1.73,1.73,0,0,1-.35.95,3.36,3.36,0,0,0-.27,3.49c.06.16.18.37.13.48-.76,1.41.53,2,1.1,2.87a1.11,1.11,0,0,0,1.22.57A2.3,2.3,0,0,1,15,20.48c.37.64.8.64,1.4.56,1.1-.14,1.85.56,2.75,1.05s1.87-.69,2.88,0a10.72,10.72,0,0,1,1,.64c.36.3.64.24,1.05,0a3.19,3.19,0,0,1,4,.6.82.82,0,0,0,1.16.19,20.37,20.37,0,0,1,13.27-1.76,5.41,5.41,0,0,0,1.84,0,20.24,20.24,0,0,1,13.12,1.76c.58.31.87.16,1.29-.26a3.13,3.13,0,0,1,3.91-.53.92.92,0,0,0,1.2-.08,2.7,2.7,0,0,1,3.3-.43c.45.26.6-.08.83-.31a2.59,2.59,0,0,1,2.48-.82,1.16,1.16,0,0,0,1.37-.64,1.46,1.46,0,0,1,1.23-.83c1.5.16,2.18-1,3.17-1.71.36-.25.44-.49.24-.85a2.06,2.06,0,0,1,.06-1.78,3,3,0,0,0-.23-3A2.12,2.12,0,0,1,75.93,11a3.68,3.68,0,0,0-1.77-3.05,2.46,2.46,0,0,1-1.09-2.67c.08-.44.1-.9.16-1.35A2.68,2.68,0,0,0,72,1.27C71.61,1,71.08.85,70.77.06c1.85.28,3.61.31,5.12,1.2,3.55,2.1,6.85,4.52,9,8.14C87.34,13.43,87.43,17.7,86.06,22.07Zm-1.92-11A5,5,0,0,1,80.06,13a4.25,4.25,0,0,0-1.28.37.67.67,0,0,0-.46.65c0,.36.32.39.61.43.95.14,1.89.33,2.84.42a6.86,6.86,0,0,0,3.64-.42A10.68,10.68,0,0,0,84.14,11.05ZM81.6,7.5a6.19,6.19,0,0,1-3.29,2.36,2.69,2.69,0,0,0-.61.31.85.85,0,0,0-.27,1.19.68.68,0,0,0,.94.45A15.1,15.1,0,0,1,81,11.33a4.75,4.75,0,0,0,1.42-.52c1-.59,1.09-.88.38-1.81C82.47,8.51,82.05,8,81.6,7.5Zm-.52-.71L76.72,3.53a5.3,5.3,0,0,0-2.39-1.4V5.59a1.69,1.69,0,0,0,1.08,1.56A.47.47,0,0,0,76,7a1.6,1.6,0,0,0,.18-1.74,4.39,4.39,0,0,1-.4-1.44c0-.44.4-.11.62,0,.94,1.48,1.92,3,0,4.48a.31.31,0,0,0,0,.45c.12.11.33.25.43.21C78.31,8.41,79.87,8.16,81.08,6.79Zm-22,18.45a12.71,12.71,0,0,0,3.83,8.67,3,3,0,0,0,4.14.52c-2.16-2-2.94-4.65-3.44-7.41-.08-.45-.2-.89-.31-1.33a3.55,3.55,0,0,0-.95-1.59,2,2,0,0,0-2.23-.24A1.36,1.36,0,0,0,59.11,25.24ZM19.73,34.51c.5.17.87.27,1.22.41a2,2,0,0,0,2.16-.37c3.06-2.32,4.38-5.5,4.72-9.21A1.37,1.37,0,0,0,27,24a2.08,2.08,0,0,0-3,.69,5.55,5.55,0,0,0-.72,2.07C22.79,29.58,22.11,32.38,19.73,34.51ZM5.8,6.8C7,8.12,8.54,8.38,9.88,8.94a.42.42,0,0,0,.57-.22c.19-.34-.1-.5-.26-.71-1.25-1.68-1-3.06.88-4.31.16.75-.29,1.33-.47,2s0,1.22.54,1.43,1-.34,1.28-.85a2,2,0,0,0,.11-.83c0-1,0-2,0-3.4C9.88,3.35,8.06,5.29,5.8,6.8ZM4.15,10.61a6.22,6.22,0,0,0,1.06.54c1.12.41,2.36.24,3.49.69.37.15.62-.13.79-.46a.79.79,0,0,0-.11-1.08,2.83,2.83,0,0,0-.89-.48A6.06,6.06,0,0,1,5.33,7.48c-.52.64-1,1.22-1.45,1.77S3.58,10.26,4.15,10.61ZM2.59,14.77c2,.38,3.82-.24,5.72-.45.47-.05.4-.49.14-.76a2.36,2.36,0,0,0-1.71-.63,5,5,0,0,1-4-1.95c-.38,1-.67,1.63-.91,2.32C1.41,14.46,1.47,14.55,2.59,14.77ZM2.9,20c2.26,0,3.89-1.41,5.67-2.47A1.07,1.07,0,0,0,9,16.19c-.23-.49-.8-.34-1.22-.41a2.48,2.48,0,0,0-1,.14,6.72,6.72,0,0,1-5.46-.71,10.76,10.76,0,0,0-.09,3.42C1.42,19.9,1.57,20,2.9,20ZM9.38,30.9a.59.59,0,0,1,.33-.67c3-1.63,3.51-4.74,4.51-7.54a1.32,1.32,0,0,0-.65-1.61,1.37,1.37,0,0,0-1.7.36c-.57.55-1.12,1.13-1.68,1.7a6.91,6.91,0,0,1-2.33,1.68,2.46,2.46,0,0,1-2.72-.25c2.36-.52,3.63-2.16,5-3.65.36-.38.77-.73.36-1.31a1.26,1.26,0,0,0-1.64-.49,5.28,5.28,0,0,0-1,.59,6.07,6.07,0,0,1-6,1.06,9.74,9.74,0,0,0,1.69,4,53.44,53.44,0,0,0,5.17,5.88C8.85,30.86,9.07,31.05,9.38,30.9ZM13.71,34a2.32,2.32,0,0,0,1.32.25,9.47,9.47,0,0,1,2.55,0,1.82,1.82,0,0,0,1.86-.92,13,13,0,0,0,2-4.1c.44-1.59.81-3.19,1.22-4.78a.79.79,0,0,0-.29-.89,1.57,1.57,0,0,0-2.72.64c-.45,1.22-.68,2.52-1.07,3.76-.58,1.85-1.23,3.67-2.92,4.86-.13.08-.29.16-.4,0s0-.26.15-.34a35.15,35.15,0,0,0,2.91-8.46c.21-1-.06-1.5-1-1.75a1.4,1.4,0,0,0-1.89,1c-.46,1-.78,2.12-1.2,3.16a6.61,6.61,0,0,1-4.9,4.47c-.2.22,0,.37.14.51A19,19,0,0,0,13.71,34ZM19.11,47l.12-.19-.1-.11a.72.72,0,0,0-.11.19S19.08,46.94,19.11,47Zm3.23,12.61c0-.13,0-.25-.19-.14Zm4.71,7-.08-.1s-.09.07-.09.1.05.07.08.1Zm.8.74c0-.17-.25-.29-.5-.38,0,0-.16.15-.15.22a.65.65,0,0,0,.42.62C27.81,67.9,27.84,67.7,27.85,67.38Zm4.06,10v-.61C31.83,76.94,31.48,77.14,31.91,77.34Zm2.4,3.06c.12-.65.25-1.51-.19-1.82a4.83,4.83,0,0,0-2.18-1.2A5.56,5.56,0,0,0,34.31,80.4Zm.19.1c0-.06-.07-.11-.17-.07S34.35,80.73,34.5,80.5Zm.67-7.33a.47.47,0,0,0,.45-.42,2.06,2.06,0,0,0-.12-.27c-.21.06-.46.1-.43.4A.83.83,0,0,0,35.17,73.17Zm15-.75c-2.14.52-2.22.63-1.47,2.55a10.88,10.88,0,0,1,.91,4.13c0,2.62-1.06,3.83-3.59,4.36a12.61,12.61,0,0,1-5.4,0c-2.23-.5-3.17-1.59-3.31-3.89a9.16,9.16,0,0,1,.59-3.84,16.9,16.9,0,0,1,.62-1.59c.51-1-.31-1.16-.86-1.47s-1-.22-1.3.49a13.31,13.31,0,0,0-.8,7.84,4.56,4.56,0,0,0,2.81,3.57,12.63,12.63,0,0,0,10.1,0A4.62,4.62,0,0,0,51.35,81,12.76,12.76,0,0,0,50.19,72.42Zm-10,9.94a14,14,0,0,0,6.56,0,2.1,2.1,0,0,0,1.78-1.77c-4.4,1.4-6.58,1.12-10.11,0A2.08,2.08,0,0,0,40.18,82.36Zm11.68-9.47a.5.5,0,0,0-.37-.5c-.19-.08-.34,0-.28.23a1.12,1.12,0,0,0,.33.57C51.66,73.27,51.82,73.06,51.86,72.89Zm2.78,4.63c-1.3.58-2.57,1.18-2.12,3C54,79.39,54.61,78.52,54.64,77.52Zm.39-.4s-.07,0-.1,0-.06.08,0,.1.08.12.09.11S55.11,77.19,55,77.12Zm1.55-11.06a4.59,4.59,0,0,0-4-1.87,6.15,6.15,0,0,0-3.08.88,11.28,11.28,0,0,1-12.11,0,6,6,0,0,0-.92-.45,5.27,5.27,0,0,0-4.91.32c-2.88,1.93-3.93,7-1.18,9.59.49.47,1,1,1.41,1.48.15.17.48.36.14.64,1-.32,1.41.92,2.31.94a8.32,8.32,0,0,0,.42-2c.13-.72.27-1.29-.47-1.93s-.48-1.85.57-2.32a4.76,4.76,0,0,1,5.33,2,1.47,1.47,0,0,1-.86,2.29,1.08,1.08,0,0,0-.75.8A11.25,11.25,0,0,0,38.07,79a.7.7,0,0,0,.59.82,13.17,13.17,0,0,0,7.7.51c.84-.23,2.1-.13,2.4-1a5,5,0,0,0-.36-3,1.06,1.06,0,0,0-.65-.69c-1.28-.6-1.54-1.6-.69-2.68a4.65,4.65,0,0,1,4.55-1.77c1.58.25,2,1.48.94,2.69-.23.26-.54.41-.46.82.18,1,.35,1.94.54,2.93a12.28,12.28,0,0,0,3.71-2.9C58.94,72.26,58.48,68.5,56.58,66.06Zm3.64.28c-.65.53-1.17.73-1.27,1.8A3.39,3.39,0,0,0,60.22,66.34ZM73.15,35.9c-4.15-.53-8.2-.39-11.42,2.89-.17.17-.37.29-.58.09a.51.51,0,0,1-.07-.63,5.15,5.15,0,0,1,2.36-2.39c-3.46-2.27-4.93-5.59-5.52-9.34a2,2,0,0,0-1.32-1.74,19.35,19.35,0,0,0-7.27-1.68c-3.92-.1-7.84-.08-11.76,0a21.25,21.25,0,0,0-6.65,1.4,2.89,2.89,0,0,0-2,2.56c-.63,3.55-2.09,6.7-5.32,8.73,2.12,1.69,2.27,1.93,2,3.32a9.39,9.39,0,0,0-4.43-2.8,16.83,16.83,0,0,0-7.43-.43,21.93,21.93,0,0,1-7,.38c-.12-.12-.28-.19-.41-.07s0,.25.09.36l1.17,1.9a6.91,6.91,0,0,0,.9,2.15l.33.73a3,3,0,0,0,1.36,1.81,5.5,5.5,0,0,0,5.49,3.25,10.63,10.63,0,0,0,3.44-.91c.41-.19.8-.8,1.35-.31s.2,1,.11,1.45a2.44,2.44,0,0,1-.27.8A2.22,2.22,0,0,0,20.61,50,14.77,14.77,0,0,0,23.54,53c.91.74,1.86,1.44,2.78,2.16-2.86-.6-4.77-2.61-6.79-4.57a1.66,1.66,0,0,0,.26,2.09,20.54,20.54,0,0,0,3.62,3.09,8.71,8.71,0,0,1,2.05,1.68,19.1,19.1,0,0,1-6.4-4,4,4,0,0,0,1.86,4.06,40.19,40.19,0,0,0,5.27,2.79c.4.18.93.24,1.19.84a38,38,0,0,1-4.3-1.4.59.59,0,0,0-.71-.2,1,1,0,0,0,.68.66c1.76,2,3.74,3.85,5.07,6.22.28,0,.33-.27.45-.46s.23-.39.37-.57a6.26,6.26,0,0,1,5.5-2.83,9.25,9.25,0,0,1,4.63,1.53,8.13,8.13,0,0,0,8.72,0c.59-.34,1.19-.67,1.81-1a6.7,6.7,0,0,1,8.45,2.29c.2.3.24.78.72.82a2.86,2.86,0,0,0,1.09-1.3,7.24,7.24,0,0,1,2.34-2.85,8.38,8.38,0,0,0,2.18-2.69c-1.8.44-3.12,1.57-4.89,1.63.42-.54,1-.6,1.4-.85,1.9-1.09,4-1.74,5.74-3.22,1.11-1,1.3-1.62,1-3.23-3.09,2.39-4.4,3.13-6,3.31l1.9-1.35a18.46,18.46,0,0,0,3.73-3.22,1.29,1.29,0,0,0,.06-1.94c-1.89,2-3.81,3.88-6.57,4.74,0-.66.53-.68.81-.9a21.49,21.49,0,0,0,4.6-4.28,2.49,2.49,0,0,0,.45-2.83,4.66,4.66,0,0,1-.41-1.47c-.1-.74.33-1,1-.76s1.33.63,2,.86c3.16,1,5.59.19,7.44-2.45a13.94,13.94,0,0,0,2.66-5.14l1.15-2a1.54,1.54,0,0,0,.22-.21c-.13-.18-.28-.12-.42,0A25.39,25.39,0,0,1,73.15,35.9ZM77.82,31c-3.25-.64-4.71-2.87-5.61-5.65a16.56,16.56,0,0,0-.77-2.07,1.5,1.5,0,0,0-2.09-.89c-.84.34-1,.81-.73,1.93A27.08,27.08,0,0,0,71.9,33,2.7,2.7,0,0,1,70,31.67a12.38,12.38,0,0,1-1.9-4.52,12.18,12.18,0,0,0-1-3.24,1.39,1.39,0,0,0-2-.64c-.88.39-1,.64-.67,1.7.15.55.25,1.1.37,1.66a16.27,16.27,0,0,0,2.61,6.59c.3.41.59,1,1.09,1,1.52,0,3.1.36,4.54-.15A13.11,13.11,0,0,0,77.82,31Zm7.27-10.22c-.15-.12-.26,0-.35.14a5.91,5.91,0,0,1-5.32-1,10.24,10.24,0,0,0-1.3-.79,1.24,1.24,0,0,0-1.67.38c-.44.61,0,1,.38,1.47,1.38,1.48,2.68,3,4.76,3.53-.15.42-.35.51-.59.54a4.27,4.27,0,0,1-3.16-1,31.71,31.71,0,0,1-2.57-2.48c-.56-.51-1.14-1-2-.53-.63.36-.8,1.14-.46,2.1s.74,2.15,1.17,3.19a7.92,7.92,0,0,0,3.32,4c.66.39.89.35,1.33-.12,1-1,2-2,2.9-3.11a13.88,13.88,0,0,0,3.49-5.95C85.14,21.05,85.22,20.89,85.09,20.77Zm.33-5.47a6.68,6.68,0,0,1-5.29.62,3.78,3.78,0,0,0-1.86,0c-.54.13-.63.45-.42.87a2.05,2.05,0,0,0,.69.94,31.17,31.17,0,0,0,3.58,2,6,6,0,0,0,2.69.29c.37,0,.65-.16.71-.58A7.65,7.65,0,0,0,85.42,15.3ZM50.92,58c.06-1.5.72-2.7.41-4.09C50,54.81,49.83,56.35,50.92,58Z"/><text class="cls-1" transform="translate(11.97 112.06)">T<tspan class="cls-2" x="11.22" y="0">auru</tspan></text></g></g></svg>