<svg xmlns="http://www.w3.org/2000/svg" viewBox="0 0 95.48 129.83"><defs><style>.cls-1{font-size:25.91px;font-family:MyriadPro-Regular, Myriad Pro;}.cls-2{letter-spacing:-0.01em;}.cls-3{letter-spacing:0em;}.cls-4{letter-spacing:0em;}</style></defs><title>Asset 392</title><g id="Layer_2" data-name="Layer 2"><g id="Layer_1-2" data-name="Layer 1"><path d="M95.18,19.8a29.15,29.15,0,0,0-3-7,4.14,4.14,0,0,0-1-1.21,26.93,26.93,0,0,0-6.91-4.24A42.5,42.5,0,0,0,72.08,4.51,23.31,23.31,0,0,0,60.52,6a1.77,1.77,0,0,1-1.26.22A14.86,14.86,0,0,0,59.7,3,3.43,3.43,0,0,0,58.25.23C57.5-.24,57,0,57,.88a17,17,0,0,0,.38,2.56A4.45,4.45,0,0,1,56,7.55a6.77,6.77,0,0,1-8.26,1.3c-1.28-.66-2.52-1.4-3.82-2a9.75,9.75,0,0,0-8.86,0,7.22,7.22,0,0,0-4.51,7,8,8,0,0,0,2.84,6.43c.33.28.88.51.54,1.1-.89,1.56-.63,3.26-.55,4.92A1.48,1.48,0,0,1,32.26,28C18.3,33.31,8.78,43.28,2.75,56.67a28,28,0,0,0-.22,23.71c2.73,6.1,7,10.88,13.35,13.38a26.06,26.06,0,0,0,6.84,1.8,29.45,29.45,0,0,0,6.9.25A40.82,40.82,0,0,0,43.3,91.13a2.13,2.13,0,0,1,2.58,0,4.13,4.13,0,0,0,5.86-1.24c.37-.51.74-.39,1.18-.37,1.5,0,3-.13,3.81-1.52a2,2,0,0,1,1.75-1c1.7-.23,2.47-1.12,2.31-2.83-.08-.81.25-1.07.83-1.44a3.1,3.1,0,0,0,1.44-4,1.75,1.75,0,0,1,.19-1.43,2.53,2.53,0,0,0-.43-3.05,18.65,18.65,0,0,1-3.12-2.92c-.62-.87-2-.55-2.94-.2a2.54,2.54,0,0,1-2.09,0c-1.62-.68-3.65-.27-4.42.92a1.84,1.84,0,0,1-2,1,3.34,3.34,0,0,0-1,.15c-1.06.25-1.65,1.33-2.49,1.71s-2.12-.34-3.15.23A36.69,36.69,0,0,1,38,76.63a7.42,7.42,0,0,1-8.36-1.32,10.9,10.9,0,0,1-3.26-5.21,15.67,15.67,0,0,1-.56-6.69A32.43,32.43,0,0,1,38.71,41.28a1.34,1.34,0,0,1,2.26,1c0,.52.12.72.49.88a2.8,2.8,0,0,0,1.14.36c1.09,0,1.28.58,1.18,1.44a8.63,8.63,0,0,1-.32,1.51c-.32,1-.72,2.08-1,3.13-.8,3,.21,5,3.09,6a8.92,8.92,0,0,0,8.11-1.06,14.58,14.58,0,0,0,4.71-5.45,14.35,14.35,0,0,1,2.89-3.86,7.54,7.54,0,0,1,5.87-2c.63.06,1.23.32,1.85.41,1,.15,1.38-.18,1.4-1.2,0-.27-.24-.54,0-.82,1.34-.25,2.71-.47,4.06-.79,8.92-2.17,16-6.75,19.85-15.43a2.3,2.3,0,0,1,.2-.48C95.71,23.34,95.61,21.59,95.18,19.8Zm-4.76-8,.13.24c-.1.07-.18.06-.21,0S90.39,11.88,90.42,11.81ZM58.16,6.28a12.3,12.3,0,0,0,0-4.91C59.37,3,59,4.62,58.16,6.28Zm-.35.6s.09.09.09.12-.07.08-.11.12S57.7,7,57.7,7,57.77,6.91,57.81,6.88Zm-1.57,4a6.54,6.54,0,0,1,4.84,2.68,23.65,23.65,0,0,1,3.44,6.19,37.08,37.08,0,0,1,3,12.22,14.22,14.22,0,0,1-.79,6,2.74,2.74,0,0,1-2,1.93C67.23,35.81,67,31.8,66,27.71a33.58,33.58,0,0,0-4.11-10.6c-1.72-2.64-3.56-5.15-7.16-5.68A1.52,1.52,0,0,1,56.24,10.89Zm-1.48,1.5a6.61,6.61,0,0,1,4.43,2.45,22.8,22.8,0,0,1,3.79,6,37.13,37.13,0,0,1,3.07,11.48,10.9,10.9,0,0,1-1.71,6.92,1.76,1.76,0,0,1-2,.92,32.5,32.5,0,0,1-5.26-1.34c2-3.91,1.89-7.79,1.12-11.7a25.47,25.47,0,0,0-2.6-6.95,9.15,9.15,0,0,0-4.19-4.22c.66-1,1.29-2,1.88-2.94A1.34,1.34,0,0,1,54.76,12.39Zm-8.4,29.39c.4-2.18,2.07-2.51,3.77-2.68a13.59,13.59,0,0,1,4.61.57c2.34.57,4.66,1.22,7.4,1.94C59,43,57.48,45.42,55.91,47.84a11.71,11.71,0,0,1-3.68,3.83,4.1,4.1,0,0,1-3.1.7,3.13,3.13,0,0,1-2.54-4c.2-.78.52-1.53.75-2.3C47.84,44.43,47.91,42.87,46.36,41.78Zm1.93-23.64A6.06,6.06,0,0,1,45.1,20.4,2.8,2.8,0,0,1,42.64,20a6.05,6.05,0,0,0-5-1.42,1,1,0,0,1-.8-.19A5.82,5.82,0,0,1,35.18,12a4.87,4.87,0,0,1,5.45-2.7,7,7,0,0,1,1.91.8c4.06,2.2,3.63,2.33,9.94,1.92A42.33,42.33,0,0,1,48.29,18.14ZM34.06,8.79A8.9,8.9,0,0,1,43.2,7.62a19.06,19.06,0,0,1,2.91,1.5,8.64,8.64,0,0,0,7.27,1.23c.06.35-.21.32-.33.39a2.53,2.53,0,0,1-.64.26c-2.7.62-5.35.8-7.86-.72-.74-.45-1.51-.84-2.28-1.22a5.67,5.67,0,0,0-7.2,1.33c-.16.16-.3.34-.53.62-.4-.48-.83-.94-1.52-.69C32.87,9.48,33.58,9.14,34.06,8.79ZM33,10.34a.42.42,0,0,1-.32.31C32.71,10.47,32.7,10.24,33,10.34Zm.86,8.9a7.52,7.52,0,0,1-2.16-6.12c0-.12.14-.23.24-.35h0v0h0l0,0a2,2,0,0,1,.72-2.08c.12.26.21.68.35.7,1.33.15,1,.92.85,1.81A6.3,6.3,0,0,0,36,19.05C34.89,20.25,34.89,20.25,33.85,19.24Zm8,56.88a2.43,2.43,0,0,1,2.76.19c.18.15.31.37.5.48.37.2.77.1.76-.34a1.94,1.94,0,0,1,1.28-2.19,3.45,3.45,0,0,1,2.53-.13c.5.19.83.05,1.06-.53.7-1.8,1.74-2.41,3.42-1.65a3.5,3.5,0,0,0,2.87,0,3.08,3.08,0,0,1,.84-.18c1.13-.07,1.62.32,1.56,1.48-.05.91,0,1.24,1.1,1.07a1.57,1.57,0,0,1,1.68,2.24,7.19,7.19,0,0,1-.6,1,.86.86,0,0,0,0,1c.81,1.45.65,2.17-.67,3.17-.51.38-1.08.68-1.58,1.06-.25.19-.27.38.07.64a1.21,1.21,0,0,1-.06,2.13,2.74,2.74,0,0,1-2,.41,1,1,0,0,0-1.21.7,3,3,0,0,1-3.47,1.84c-1.06-.23-1.57-.14-1.92,1-.42,1.34-1.72,1.42-2.86,1.5a2.74,2.74,0,0,1-2.11-.62c-.76-.79-1.32-.42-2.07-.07a50.65,50.65,0,0,1-13.23,4.48,12.47,12.47,0,0,1-2.94.2c.2-.54.69-.46,1-.58a25.47,25.47,0,0,0,10.25-6.88c.21-.22.72-.42.36-.88.39.17.43,0,.33-.35.35.12.4-.06.34-.35.32.08.34-.14.35-.37,1-.69.76-1.83,1-2.78a2.78,2.78,0,0,1,2.15-2.22,2.26,2.26,0,0,1,2.22.61c.62.52.84.28,1-.46.38-2.37,1.93-3,3.93-1.63.74.51.87.46,1.16-.39.59-1.75,1.83-2.28,3.46-1.43a16.63,16.63,0,0,1,1.63,1.07A3.11,3.11,0,0,0,51.53,77a1.68,1.68,0,0,1-2,.6A3.13,3.13,0,0,0,46,79.12c-.21.34-.33.76-.87.6a5,5,0,0,0-3.95.77,8.31,8.31,0,0,1-.47-2.1A2.06,2.06,0,0,1,41.87,76.12Zm-1.5,6.36a16.51,16.51,0,0,0-.11,3.07.3.3,0,0,0-.34.35.3.3,0,0,0-.35.35c-.24,0-.37.09-.35.35-.62.07-.94.59-1.36,1a41.69,41.69,0,0,1-4.74,3.5,18.73,18.73,0,0,1-23.43-2.7c-8.54-8.58-10.55-18.86-6.21-30,4.9-12.56,13.7-21.77,25.93-27.62A33.84,33.84,0,0,1,38,28c.91-.16,1.78-.49,2.67-.7.26-.06.61-.09.69.31s-.16.4-.36.5c-.36.19-.73.35-1.09.53A89.4,89.4,0,0,0,28.1,35.27,60.72,60.72,0,0,0,9.86,54.47a32.71,32.71,0,0,0-5,18.63c.19,5,1.88,9.29,5.9,12.39a19.45,19.45,0,0,0,7.78,3.67,21.9,21.9,0,0,0,19.39-4.91.35.35,0,0,0,.31-.38c.15,0,.37-.1.23-.28s-.26,0-.33.17l0,.06,0-.06-.46.21A35.55,35.55,0,0,1,32.05,87c-7.34,2.87-14.38,2.45-20.83-2.34A13.59,13.59,0,0,1,6,75.25,28.91,28.91,0,0,1,7.9,60.83a50.63,50.63,0,0,1,9.48-15A56.11,56.11,0,0,1,31.81,34.05C34.2,32.67,36.54,31.17,39,30c.87-.43,1.76-.84,2.6-1.24a1.52,1.52,0,0,1,0,2.4c-.43-.27-.66-.16-.71.34-.42-.26-.63-.12-.69.35-1.09-.09-1.74.76-2.58,1.21h0a1.59,1.59,0,0,0-1,.83h.08a4.25,4.25,0,0,0-2.68,1.72,8,8,0,0,0,2.73-1.72,1.35,1.35,0,0,0,1.11-.56l1.5-.57c-.34.8-.9,1-1.32,1.28-5.53,4-10.95,8.13-15.57,13.21A56.32,56.32,0,0,0,13.89,59.5a34.12,34.12,0,0,0-3.4,15.42,13.21,13.21,0,0,0,1.09,5A7.94,7.94,0,0,0,16.1,84.5a20.24,20.24,0,0,0,10,1.3A32.41,32.41,0,0,0,35,83.47a15.22,15.22,0,0,0,4.78-3.53A2.92,2.92,0,0,1,40.37,82.48ZM35.94,26c-.07-.87-.11-1.37-.13-1.68s.27-.29,0-.27A3.75,3.75,0,0,1,35.94,26Zm.44.61a.2.2,0,0,1,0,.15c-.07.17-.16.16-.19,0a.77.77,0,0,1,.06-.31A1,1,0,0,1,36.38,26.58Zm.18-4.14A8.43,8.43,0,0,1,37,25.52C36.79,24.5,36,23.57,36.56,22.44Zm.69-.29a1.2,1.2,0,0,1,.13-.21,2.29,2.29,0,0,0,.08.28c-.06.14-.12.16-.18.07S37.23,22.19,37.25,22.15Zm1.29,4.52-.41.08c-.22-1.24-.43-2.48-.64-3.72A7.23,7.23,0,0,1,38.54,26.67Zm-.22-4.5a2.83,2.83,0,0,1,.79,2.67C38.89,24,38.12,23.27,38.32,22.17ZM42.8,34.66c.48.42.56.83-.21,1.08-5.9,1.85-10.33,5.74-14.24,10.34a38,38,0,0,0-8.24,15.06c-1.37,5.3-.06,10.2,2.82,14.68,1.91,3,5,3.91,8.37,4.15.46,0,.92,0,1.37,0a18.38,18.38,0,0,1-9.46,1.28c-.58,0-1.15-.13-1.72-.2A7.57,7.57,0,0,1,14.63,74a21.11,21.11,0,0,1,.54-7.21,40.52,40.52,0,0,1,5.65-12.38c.28-.41.71-.76.74-1.36-.44-.23-.58.12-.77.37-3.91,5.37-6.56,11.24-7.08,17.95a12,12,0,0,0,.53,4.79,7.82,7.82,0,0,0,6.27,5.58A26.23,26.23,0,0,0,38.7,78.58c.28-.16.61-.47.88,0a.75.75,0,0,1-.18.95,14.49,14.49,0,0,1-4.51,2.85A34.08,34.08,0,0,1,25,84.74a20.84,20.84,0,0,1-7-.7c-3.75-1-5.54-3.69-6.11-7.37a27,27,0,0,1,.5-8.6c1-6.37,4.39-11.61,8.15-16.63a55.07,55.07,0,0,1,8.57-9,119.62,119.62,0,0,1,11.25-8.66c.71-.47,1.46-.89,2.31-1.39.24.72.69,1.28,0,1.83C42.23,34.55,42.6,34.49,42.8,34.66ZM29.15,47.09l-.3.29C28.86,47.19,28.93,47.07,29.15,47.09Zm-.33.35a.32.32,0,0,1-.31.31C28.51,47.55,28.59,47.42,28.82,47.44Zm-.35,1-.53-.14c.13-.23.22-.49.53-.52C28.46,48,28.3,48.23,28.47,48.45Zm-1,.68a1.84,1.84,0,0,1,.05-.25C27.81,49.06,27.59,49.07,27.48,49.13Zm0,0c0,.2-.1.34-.33.32C27.13,49.28,27.19,49.13,27.44,49.17Zm-.37.36,0,.24-.16-.11Zm-.43.94c-.08.19-.17.38-.42.38,0,0-.1-.11-.08-.13.11-.18.24-.36.39-.56C26.58,50.3,26.66,50.41,26.64,50.47ZM26,51.4c0,.17-.12.21-.26.17a.24.24,0,0,1,.18-.29S26,51.36,26,51.4Zm-.29.21A1.57,1.57,0,0,1,25,53c0,.16-.05.29-.22.33s-.1-.07-.11-.11a.32.32,0,0,1,.21-.35A1.62,1.62,0,0,1,25.7,51.61Zm-1.08,2.18L24.5,54s-.11-.08-.1-.11a.67.67,0,0,1,.1-.23Zm-1.9,19.13c-3.23-4.81-2.33-14.26,1.6-18.55-.94,3-2.25,5.86-2.6,9A23.13,23.13,0,0,0,22.72,72.92Zm.06.24.09.12c0,.1-.07.19-.1.28s-.08-.09-.08-.13A2.14,2.14,0,0,1,22.78,73.16ZM40,32.62c-.14.16-.3.37-.47.09-.06-.11.15-.23.31-.26,0-.27.49-.27.42-.61.33.08.59,0,.68-.35.33.07.6,0,.69-.34.27.17.67-.14.95.36ZM35.3,78.23a10.07,10.07,0,0,0,4.56-1.78c-1,1.71-5.14,2.62-9.43,2.36C32.23,78.6,33.74,78.32,35.3,78.23Zm-3-32.76A32.52,32.52,0,0,0,24.47,63.6c-.48,4.77.52,9.2,4.35,12.55.65.56,1.38,1,2.08,1.52a6.32,6.32,0,0,1-6.84-3.57,18.14,18.14,0,0,1-1.6-10.77A31.93,31.93,0,0,1,28,49.84c.26-.39,1-.66.55-1.37.89.25.88-.7,1.34-1a.3.3,0,0,0-.06-.53c-.16,0-.37.07-.56.14.56-1.54,1.93-2.38,3.07-3.77.21.94-.53,1-.66,1.48h0c-.21.19-.69.35-.32.69s.54-.1.71-.37l.62-.29C32.74,45.13,32.44,45.28,32.28,45.47Zm1.38-2.41c-.22.14-.44.39-.76.17-.19-.51.25-.71.51-.95a30.84,30.84,0,0,1,8.88-5.52,3.51,3.51,0,0,1,.49-.15c.24-.07.46,0,.54.24a.49.49,0,0,1-.2.6,4.79,4.79,0,0,1-.45.25A96.29,96.29,0,0,0,33.66,43.06Zm9.19-2.36a1.26,1.26,0,0,1-.4-1.47A2.3,2.3,0,0,1,42.85,40.7Zm-1.42,1.68a3.42,3.42,0,0,0,2.83-1.23,4.31,4.31,0,0,0,.47-2.86c-.39-4.74-1-9.42-3.31-13.71a12.8,12.8,0,0,0-1.55-2.49,3.16,3.16,0,0,0-3-1.34.54.54,0,0,1-.51-.08,10.17,10.17,0,0,0-1.81,3,14.27,14.27,0,0,0-.17,3.4c-.72-3.52-.18-5.53,1.93-6.52,0,0,0,0,0,0a2.87,2.87,0,0,1,3.59-1,9.13,9.13,0,0,1,2,1.08,4.29,4.29,0,0,0,4.89.16,9.61,9.61,0,0,0,3.29-3c.94-1.28,1-1.24,2.27-.31a7.73,7.73,0,0,1,2.29,2.79,23.2,23.2,0,0,1,3,12.8,10.78,10.78,0,0,1-1,4.35,1.6,1.6,0,0,1-2,1,25.46,25.46,0,0,0-3.26-.4,7,7,0,0,0-2.9.36,4.3,4.3,0,0,0-2.75,2.41C44.89,42.62,43.68,43.07,41.43,42.38Zm3.2,11.54c-1.41-1-1.63-1.55-1.24-3h0v0l0,0c-.28-1,.23-1.79.48-2.66.42-1.47,1.15-2.87.62-4.51-.24-.75.66-.82,1.09-1.1s.63.16.8.45a2,2,0,0,1,.28,1.65,13.34,13.34,0,0,1-.52,2,5.16,5.16,0,0,0,.37,5.5C45,52.35,45,52.36,44.63,53.92Zm1.54-.6c-.06.15-.11.34-.31.22s-.16-.26-.23-.39a1,1,0,0,1,.28-.13C46.11,53,46.19,53.12,46.17,53.32ZM68.93,42.88c-3.86-1.3-6.84.23-9.43,3a15.34,15.34,0,0,0-1.85,2.72,15.25,15.25,0,0,1-4.37,5.08,7.65,7.65,0,0,1-4.19,1.45c-.29,0-.7.16-.61-.48s-.11-1-.82-1c-.44,0-.51.33-.34,1.36-.62.22-1.1-.15-1.86-.45,1.24-.21,1.41-1,1.4-1.88-.24,0-.34-.12-.33-.34.23,0,.35.08.35.33,3,1.57,5.42.48,7.58-1.73a17.62,17.62,0,0,0,2.4-3.17,17,17,0,0,1,3-3.8,7.3,7.3,0,0,1,5.33-2.1c1,0,2,0,2.95,0,.66,0,1.24.16,1.48.88A.68.68,0,0,1,68.93,42.88ZM89.58,30.73a28.74,28.74,0,0,1-16.4,9c-1.2.2-2.39.42-3.59.61a9.64,9.64,0,0,1-3,.06c2.75-5,2.07-10.15.75-15.24A36.38,36.38,0,0,0,62.5,13.92c-1.47-2.2-3.28-3.83-6.38-4.07A16.6,16.6,0,0,1,62,6.52c6-1.87,12-1.41,17.9.29a3.37,3.37,0,0,1,1.43.92A23.14,23.14,0,0,1,85,12.31C88,17,89.48,22.15,90.59,27.49A3.33,3.33,0,0,1,89.58,30.73Zm3.64-5.56c-.49.77-.94,1.58-1.41,2.37-.6-.12-.45-.61-.53-.95A51,51,0,0,0,86.73,13.4c-1-1.82-2.31-3.43-3.48-5.14-.13,0-.32-.09-.19-.26s.27,0,.39.06a19.55,19.55,0,0,1,4.38,2,3.61,3.61,0,0,1,1.39,1.51,35.4,35.4,0,0,1,4.34,11.77A2.5,2.5,0,0,1,93.22,25.17Zm1-2.15a32.21,32.21,0,0,0-3-9.25c-.25-.55-.75-1-.59-1.7,0,0,.11,0,.13,0a31.73,31.73,0,0,1,3.76,8.48A3,3,0,0,1,94.2,23ZM36.45,20.53l-.1.14-.05-.07ZM37,61a4.92,4.92,0,0,0-.25-3.05,2.55,2.55,0,0,0-3.36-1.58,4.94,4.94,0,0,0-3.52,4.29c-.75,4.29.82,7.9,3.57,11.08.85,1,2,1.62,2.95,2.91a3.38,3.38,0,0,0-.09-.77c-1.6-3.09-1.19-6.22-.23-9.38C36.43,63.31,36.72,62.13,37,61Zm-2.42,7.17c-.14,1-.12,2.06-.25,3.15a11.36,11.36,0,0,1-3.87-9,7.15,7.15,0,0,1,.67-3,4.12,4.12,0,0,1,1.27-1.62,2.27,2.27,0,0,1,3.85,1.53,7.87,7.87,0,0,1-.37,3.23C35.46,64.31,34.84,66.17,34.59,68.13Zm7.08-5.66a4.2,4.2,0,0,0-2.36,1.64c-1.89,2.55-2.43,7.45.69,10.35a7.9,7.9,0,0,1,2.54-5.6,10.41,10.41,0,0,0,2.08-2.94,2.35,2.35,0,0,0-.26-2.75A2.55,2.55,0,0,0,41.67,62.47Zm2.48,2.77a2.8,2.8,0,0,1-.53,1.25c-.49.71-1,1.42-1.53,2.09-1,1.24-2.17,2.37-2.6,4a7.91,7.91,0,0,1,0-7.2,3.75,3.75,0,0,1,2.32-2.17A1.66,1.66,0,0,1,44.15,65.24ZM7.56,52.55A3.1,3.1,0,0,1,8.8,50.62,3.21,3.21,0,0,1,7.56,52.55ZM17.71,39.68a2.17,2.17,0,0,1,1-.92C18.8,39.46,18.15,39.47,17.71,39.68Zm1.06-.93h0v0h0l0,0ZM9.32,49.67a2.14,2.14,0,0,1,1.17-1.39A1.87,1.87,0,0,1,9.32,49.67ZM14,44h0v0Zm-1,1c.19-.48.37-1,1-1C13.7,44.45,13.56,45,12.9,45Zm-2.21,3.16c.11-.57.11-.57.86-1.22A2.29,2.29,0,0,1,10.69,48.13Zm.77-1.33a2.2,2.2,0,0,1,.82-1.1s.13.1.2.15A1.75,1.75,0,0,1,11.46,46.8ZM7.33,53.44c-.45,0,0-.38,0-.6s.15-.13.24-.21C7.77,53,7.65,53.46,7.33,53.44Zm26.09-17L33,36.15a3.09,3.09,0,0,1,.46-.43c.13-.08.32,0,.26.18A3.13,3.13,0,0,1,33.42,36.42Zm-13.93,2c-.07-.5.3-.57.66-.66C20.21,38.22,19.85,38.3,19.49,38.39Zm0,0,0,0v0h0v0Zm.68-.72h0v0h.05ZM8.8,50.28a2.67,2.67,0,0,1,.42-.47l.21.26a1.84,1.84,0,0,1-.44.44C8.77,50.63,8.74,50.38,8.8,50.28Zm12.08-13a.68.68,0,0,1,.65-.58C21.61,37.18,21.27,37.21,20.88,37.26ZM24,35h0s0,0,0,0Zm-.58.52c-.16-.27.14-.33.27-.45s.19-.05.3-.07a.29.29,0,0,1-.16.37C23.69,35.4,23.42,35.5,23.4,35.47Zm7.66,2.13c.21-.39.45-.64.87-.57A.75.75,0,0,1,31.06,37.6Zm-8.79-1.24Zm0,0,0,0v0h0A.09.09,0,0,1,22.27,36.36Zm0,0c-.07-.47.25-.54.64-.57A.65.65,0,0,1,22.26,36.31Zm-8,6.92,0,0,0,0Zm0,0,.68-.67C15,43.05,14.89,43.44,14.23,43.23Zm7.33-6.55h0v0h0l0,0Zm0,0c.13-.3.32-.47.66-.32A.47.47,0,0,1,21.57,36.66Zm4.19-2.72h-.05v0Zm-.05,0a.62.62,0,0,1-.66.3C25.17,33.91,25.42,33.89,25.71,33.93Zm-1,.68h0v0Zm-.69.31,0,0,0,0Zm0,0a.51.51,0,0,1,.65-.32A.49.49,0,0,1,24,34.92Zm-10.06,9a.08.08,0,0,0,0,0l0,0Zm0,0c-.16-.32.08-.5.27-.69C14.53,43.63,14.23,43.78,13.94,43.94Zm.29-.71,0,0s0,0,0,0ZM30.4,38.16l0-.14h.07Zm-11.62.57c.17-.25.34-.46.68-.31C19.31,38.69,19.15,39,18.78,38.73Zm-6,6.58s-.13,0-.13,0,.05-.23.19-.27A.18.18,0,0,1,12.82,45.31Zm.07-.31h0l0,0h.05v0h0Zm2.4-2.79,0,0s0,0,0-.06Zm-.36.32,0,0a.13.13,0,0,1,0-.06h0l0,0Zm0,0,.31-.28C15.26,42.45,15.21,42.6,15,42.52Zm.38-.34,0,0,0,0Zm0,0,.26-.3C15.61,42.07,15.52,42.18,15.33,42.18Zm.29-.33,0,0s0,0,0-.06Zm.14-.1-.14.1,0,0Zm4.69-4.07H20.2l.16-.21ZM32,37h0v0h0Zm0,0c0-.26.1-.34.33-.34h0C32.36,37,32.19,37,32,37Zm.34-.33h0c0-.16.1-.27.28-.25s.09.09.08.12A.25.25,0,0,1,32.31,36.68ZM25,34.26h0v0h0A0,0,0,0,0,25,34.26Zm-.35.32c-.05-.26.11-.32.32-.32C25,34.5,24.89,34.57,24.69,34.58Zm0,0v0l0,0Zm1.06-.68c-.07-.22.09-.29.26-.36C26.07,33.77,25.93,33.85,25.75,33.9Zm0,0a.08.08,0,0,0,0,0l0,0Zm.28-.37h0s0,0,0,0Zm.08,0-.08,0h0ZM23.62,50a2.08,2.08,0,0,1-.82,1.44c-.13.22-.22.47-.48.58L22,51.74l.28.26a1.87,1.87,0,0,1-.19.43c-.12.15-.27.39-.5.2s0-.39.07-.55a2.24,2.24,0,0,1,.33-.36c.11-.22.21-.47.49-.55A2.12,2.12,0,0,1,23.62,50ZM26,47.5c.14.19-.06.26-.22.31a.38.38,0,0,1-.33.36.38.38,0,0,1-.34.35.39.39,0,0,1-.34.36,1.86,1.86,0,0,1-.59.8c-.15.13-.29.41-.49.1-.08-.13.09-.28.25-.34h0a1.33,1.33,0,0,1,.6-.79l.34-.36.34-.35h0l.37-.34h0C25.68,47.48,25.85,47.34,26,47.5ZM39.48,36l.06,0-.11.11S39.45,36,39.48,36Zm.1-.05.05,0,0,0h-.07l0,0h0Zm.11-.23.17.11-.23.1Zm.77-.42s.07.07.11.11l-.06.1-.17-.11S40.42,35.33,40.46,35.33Zm.69-.36s.08.07.12.1l-.06.12L41,35.07S41.11,35,41.15,35Zm.75-.3s.07.06.1.09a.6.6,0,0,1-.22.09s-.07-.06-.1-.09A.85.85,0,0,1,41.9,34.67ZM56.67,81a7.54,7.54,0,0,1,1.16.28c.19.07.41.26.26.54a.43.43,0,0,1-.44.2,7,7,0,0,0-1-.09c-.78,0-1.5.16-1.61,1.17-.09.72-.46.77-1.1.5-1.67-.71-1.73-.68-2.38,1-.22.54-.44.76-1,.49a3,3,0,0,0-4.3,1.26c-.15.24-.38.32-.57.2a.59.59,0,0,1-.19-.62,2.49,2.49,0,0,1,1.31-1.74,3.9,3.9,0,0,1,2.92-.54c.47.22,1,0,1.47-.66.21-.31.71-.71,1-.64C53.93,82.77,54.94,80.62,56.67,81ZM30.45,46.09l.12.12a1.2,1.2,0,0,1-.23.11s-.08-.07-.12-.11Zm13.18,5.6a1,1,0,0,1-.23-.77c.4-.26.78-.78,1.28-.27a.82.82,0,0,1,0,1.1C44.33,52.12,44,52,43.63,51.69ZM32,12.91a.68.68,0,0,0,0-.14s.1,0,.13,0c.48-.3.95-.47,1.25.2a.55.55,0,0,1-.4.79C32.29,13.88,32,13.52,32,12.91Zm1.38,2.54a.55.55,0,0,1-.5.59.58.58,0,0,1-.59-.66c0-.3.11-.57.47-.56S33.33,15.07,33.36,15.45Z"/><text class="cls-1" transform="translate(8.97 123.35)"><tspan class="cls-2">A</tspan><tspan class="cls-3" x="15.54" y="0">qua</tspan><tspan class="cls-4" x="56.89" y="0">r</tspan><tspan x="65.47" y="0">i</tspan></text></g></g></svg>