<svg xmlns="http://www.w3.org/2000/svg" viewBox="0 0 88.84 104.55"><defs><style>.cls-1{font-size:25.91px;font-family:MyriadPro-Regular, Myriad Pro;}.cls-2{letter-spacing:-0.02em;}.cls-3{letter-spacing:0em;}.cls-4{letter-spacing:-0.01em;}</style></defs><title>Asset 395</title><g id="Layer_2" data-name="Layer 2"><g id="Layer_1-2" data-name="Layer 1"><text class="cls-1" transform="translate(17.82 98.08)"><tspan class="cls-2">V</tspan><tspan class="cls-3" x="14.04" y="0">i</tspan><tspan class="cls-4" x="20.1" y="0">r</tspan><tspan x="28.37" y="0">go</tspan></text><path d="M48.23,31.66c-.4-.66.37-1,.83-1.35,2.75-1.94,8.25-1.65,10.74.56.12.1.16.3.41.8-.91-.28-1.53-.45-2.12-.67a10.15,10.15,0,0,0-8.45.45C49.21,31.67,48.6,32.27,48.23,31.66Zm-.65,2.54a9,9,0,0,0-.73,3.47C47.81,36.16,48,35.28,47.58,34.2Zm41.26-5.6c0,4.08-.35,8.11-3,11.51a28.87,28.87,0,0,1-6.63,6.38c-.08.52.34.63.58.84a8.13,8.13,0,0,1,2.85,6.48c0,2.49-1.32,4.12-3.38,5.28a13.46,13.46,0,0,1-6.06,1.28c-.8,0-1.66-.18-2.25.69-.86,1.27-2.17,2.31-2.18,4s1.78,2.88,3.93,2.45c.43.58.11,1.1-.12,1.64a9.17,9.17,0,0,1-4.44,4.7A11.29,11.29,0,0,1,61.91,75,7.4,7.4,0,0,1,55.36,70a9.6,9.6,0,0,1,1-9.53c.5-.71.91-1.41.45-2.28-.29-.12-.45.06-.59.24-2.53,3.19-6,5.28-9.25,7.52a4.38,4.38,0,0,1-5.21-.1c-3.26-2.28-6.7-4.36-9.21-7.56-.06-.08-.2-.09-.34-.15a1.83,1.83,0,0,0,.29,2.23c2,2.71,2.18,5.72,1.33,8.86a7.9,7.9,0,0,1-8.51,5.85c-3.95-.35-7.09-1.94-8.9-5.64A2.47,2.47,0,0,1,16,67.72c.31-.47.63,0,.94,0a3,3,0,0,0,2.75-1.36,2.45,2.45,0,0,0,0-2.85c-.58-.9-1.26-1.74-1.89-2.6-.41-.58-1-.5-1.62-.53a20.4,20.4,0,0,1-4.6-.51A8.64,8.64,0,0,1,9,58.7a5.63,5.63,0,0,1-2.72-5.29A8.09,8.09,0,0,1,9.11,47.3c.21-.18.5-.31.6-.73a32.56,32.56,0,0,1-6.17-5.8,12.9,12.9,0,0,1-3-6.92c-.23-2-.79-4-.34-6a16.38,16.38,0,0,1,6.19-9.73,9,9,0,0,1,6.69-1.94c.34,0,.71.16,1-.09C11.64,10,17.5,3,22.77,2.33c2.19-.28,4.36-.71,6.53.06a1,1,0,0,0,.86,0,6.21,6.21,0,0,1,3.6-.8,1.54,1.54,0,0,0,1-.39A4.64,4.64,0,0,1,37.1.51,4.82,4.82,0,0,0,39.35.13a1.1,1.1,0,0,1,.87-.07,6.51,6.51,0,0,0,4,.09A3.22,3.22,0,0,1,46,.38a1.84,1.84,0,0,0,1.4,0c1-.44,2-.05,2.89-.07,2.28-.06,4.19,1.12,6.35,1.44A28.52,28.52,0,0,0,61.75,2C67.69,1.81,71.67,3.59,74.33,9a7.58,7.58,0,0,1,.28,7.19,3.58,3.58,0,0,0,.74.07c4-.54,7.07,1.2,9.56,4.12a15.72,15.72,0,0,1,3.87,7.92C88.79,28.37,88.84,28.48,88.84,28.6ZM62.09,3.06c1.29.83,2.12,1.62,2.09,2.87A1.39,1.39,0,0,0,65,7.29c3.67,2.43,5.91,5.7,5.68,10.33.73,0,1.3-.48,2-.65A1.69,1.69,0,0,0,74,15.54a7.62,7.62,0,0,0-.61-5.86C71.1,5.34,67.41,3.27,62.09,3.06Zm1.24,33.26a9.91,9.91,0,0,1,4.28-2.49,13.91,13.91,0,0,0,1.63-.72,3.94,3.94,0,0,0,2.2-3.43,4.82,4.82,0,0,0-2.19-4.6,9,9,0,0,0-5.51-1.76c-1,0-2,.1-3,.14-1.16,0-2.28,0-3-1.17-.16-.27-.4-.44-.73-.26s-.72.43-.65.95a1.88,1.88,0,0,0,.85,1.31,4.15,4.15,0,0,0,3.22.73c.82-.15,1.62-.39,2.44-.53a4.14,4.14,0,0,1,4.68,2.39,3.83,3.83,0,0,1-2,4.82A3.88,3.88,0,0,0,63.33,36.32Zm2.38-5.92a2.61,2.61,0,0,0-.41-4.34c-.47-.26-.82-.19-.91.35a34.4,34.4,0,0,0-.8,5.57A22.92,22.92,0,0,0,65.71,30.4ZM62.94,41.09a21.56,21.56,0,0,1,5.19-3.46c1-.57,2.18-.94,3.24-1.48,2-1,3.74-2.33,4.36-4.66,1-3.78-1.7-8.12-5.71-9.19a22.83,22.83,0,0,0-6.39-.39,6.73,6.73,0,0,1-4.38-1.18c-.26-.21-.54-.53-.88-.08a.81.81,0,0,0-.08,1,1.94,1.94,0,0,0,1.64.93,20.65,20.65,0,0,0,2.48-.16,10.58,10.58,0,0,1,7.9,2.06c3.46,2.64,3.09,8.56-1.45,10.1A18.1,18.1,0,0,0,65.4,36C63.23,37.27,62.46,37.49,62.94,41.09Zm5.19-23.73c0,.4-.1.84.17,1.21,1.07.06,1.41-.6,1.53-1.52a3.45,3.45,0,0,0-.28-1.75,18.53,18.53,0,0,0-4.88-7c-.75-.67-1.21-.5-1.54.42-.21.61.26.74.58.92C66.75,11.35,67.91,14.08,68.13,17.36Zm-5.71-7.5a3.7,3.7,0,0,0-.43.32c-1,1.05-1.05,1.07.2,2A5.83,5.83,0,0,1,64.75,17c0,1.46.06,1.47,1.54,1.72.33.05.67.32,1,0C66.77,15.22,65.81,12,62.42,9.86Zm-2,2.24C59.63,13,58.9,14,59.49,15c.95,1.54,2.18,3,4.37,3.13C63.82,15.44,62.4,13.66,60.39,12.1Zm-1.13,4.32c-.51,3-.11,3.57,2.29,4.17a7.85,7.85,0,0,0,1.93.18h5.68c-1.78-.36-3.2-.7-4.64-.94A6.53,6.53,0,0,1,59.26,16.42ZM71,21.18c-.29-.36-.64-.33-1.09-.08Zm-8.92,26c1-3.44,3.72-5.06,6.76-6.31.87-.36,1.76-.7,2.64-1.06a19.32,19.32,0,0,0,5-3,8.73,8.73,0,0,0,3.09-4.27c1.73-5.74-2.25-11-8.54-11.38.15.37.55.39.84.53A9.57,9.57,0,0,1,75.67,25a7.94,7.94,0,0,1-1.76,11.23,10.81,10.81,0,0,1-3.52,1.69,15.09,15.09,0,0,0-5,2.59C62.53,42.65,62.19,43.46,62.1,47.21ZM65,45.48c3.45-2.06,7-2.75,10.49-3.75a16,16,0,0,0,6.31-3.21,8.48,8.48,0,0,0,3-7.14,13.77,13.77,0,0,0-2.72-7.28A9.5,9.5,0,0,0,72.89,20c.55.19,1.11.36,1.65.56a11.12,11.12,0,0,1,4,2.3,10.13,10.13,0,0,1,.52,14,19.16,19.16,0,0,1-7.28,4.73,43.9,43.9,0,0,0-5.09,2.16C65.78,44.24,65.78,44.25,65,45.48ZM59.69,3.11c1,2.18.26,3.61-.87,4.93-.5.59-1,1.15-1.56,1.72A5.57,5.57,0,0,0,55.71,14,20.49,20.49,0,0,1,55,21.54a2.6,2.6,0,0,0,2.51-2.36A23,23,0,0,0,57.73,16,8,8,0,0,1,60.45,9.8a8.91,8.91,0,0,0,2.1-2.86,1.7,1.7,0,0,0-.06-1.86A6.86,6.86,0,0,0,59.69,3.11ZM55,21.57l-.2.2c.05,0,.11,0,.15,0S55.06,21.66,55,21.57ZM54.63,7.23c-.67,1-1.32,2.11-2,3.17a5.32,5.32,0,0,0-.88,3.38c.07.83.13,1.66.23,2.48a7.25,7.25,0,0,1-1.2,5.08c-.26.38-.7.66-.69,1.2,2.81-.07,3.57-.7,4.23-3.3a15.91,15.91,0,0,0,.21-5,7.19,7.19,0,0,1,2.17-5.81,15.34,15.34,0,0,0,1.64-1.88,2.27,2.27,0,0,0,.11-3c-.8-1.13-1.21-1.24-2.91-.8A5.48,5.48,0,0,1,54.63,7.23ZM51.76,1.79c1.15,2.26.29,4.24-1.09,6a9.79,9.79,0,0,0-2,8.05,8.9,8.9,0,0,1-1.21,6.47c.83.28,1.21-.43,1.63-.87a5.6,5.6,0,0,0,1.37-5.3,8.71,8.71,0,0,1,1.73-7.56c.56-.7,1-1.47,1.51-2.21a5,5,0,0,0,.77-1.8A2.2,2.2,0,0,0,51.76,1.79Zm-5,7.6a8.23,8.23,0,0,0-.57,4.72c.33,1.74.72,3.46,1.09,5.19a2.4,2.4,0,0,0,.34-2.08c-.48-3.69-.34-7.24,2.24-10.29A5.47,5.47,0,0,0,51,4.55c.53-2.48-.8-3.76-3.35-3.15a6.75,6.75,0,0,1-.09,6C47.27,8.08,47,8.74,46.73,9.39Zm.7,12.92-.36.28C47.26,22.57,47.57,22.67,47.43,22.31Zm-.39.31v.05l0-.06ZM41.92,5.31c.35,1.14.75,2.26,1.18,3.37a10.29,10.29,0,0,1,.54,6.13c-.37,1.62-.62,3.27-1,4.89a3.49,3.49,0,0,0,1,3.11,1,1,0,0,0,1.68,0,3.6,3.6,0,0,0,1-2.95c-.16-.81-.31-1.64-.53-2.44-.95-3.42-1.13-6.78.53-10.08a6.58,6.58,0,0,0,.8-3.09,3.73,3.73,0,0,0-.33-1.74,2.5,2.5,0,0,0-4.64,0A3.76,3.76,0,0,0,41.92,5.31Zm-4.09-1.1a4.36,4.36,0,0,0,.44,1.35A13.61,13.61,0,0,0,39.55,7.7a9.5,9.5,0,0,1,1.91,6.54c-.06,1.13-.11,2.26-.18,3.39a4.1,4.1,0,0,0,.24,2.06c.33-1.46.62-2.66.87-3.87.15-.7.28-1.4.37-2.11a9.6,9.6,0,0,0-1-5.36c-1-2.26-1.75-4.58-.44-7C38.72.89,37.52,1.91,37.83,4.21Zm3.92,18.42v0l0,.06Zm-7.3-18A6.37,6.37,0,0,0,35.61,7c2.77,4.09,3.45,4.14,2.68,10.24a5,5,0,0,0,3.44,5.37,7.7,7.7,0,0,1-1.55-6c.12-.94.1-1.9.14-2.85a7.8,7.8,0,0,0-1.56-5.18A22.47,22.47,0,0,1,37.17,6a4.46,4.46,0,0,1-.37-3.45c.08-.31.45-.6.1-1C35.05,1.71,34.11,2.87,34.45,4.61ZM30.74,6.89a8.74,8.74,0,0,0,1.07,1.2,7.51,7.51,0,0,1,2.49,6.56,14.27,14.27,0,0,0,.27,4.78c.6,2.38,1.54,3.1,4.29,3.07-.32-.48-.61-.91-.89-1.36a6.33,6.33,0,0,1-1.06-4.58A9.34,9.34,0,0,0,35,8.38c-.07-.09-.12-.2-.19-.3-1.07-1.64-2-3.31-1.45-5.34A2.37,2.37,0,0,0,30.21,4C29.54,5.09,30.09,6,30.74,6.89ZM27.05,4.4c-1.11.87-1.22,1.52-.59,2.8A6.33,6.33,0,0,0,28,9.36a9,9,0,0,1,3.2,7.26c0,.66.05,1.31.09,2a3,3,0,0,0,2.46,3.06c.08.17.19.26.33.06a2,2,0,0,0-.2-.19,16.27,16.27,0,0,1-.76-6.15,7.56,7.56,0,0,0-2.63-6.86c-1.44-1.36-2.38-3-1.45-5.17A3.53,3.53,0,0,0,27.05,4.4Zm-.79,20.13c.82.17,1.62.42,2.44.51a3.63,3.63,0,0,0,3.61-1.46.9.9,0,0,0-.17-1.4c-.56-.4-.83-.15-1.14.3a2.47,2.47,0,0,1-2.35,1c-1.19,0-2.38-.14-3.57-.13a9,9,0,0,0-6.31,2.49c-2,1.9-2,6.23,1.38,7.56a17.77,17.77,0,0,1,5.35,2.67s.07,0,.05,0c.49-2.16-.56-3.45-2.33-4.33a3.38,3.38,0,0,1-.6-.38,3.76,3.76,0,0,1,.53-6.4A4.31,4.31,0,0,1,26.26,24.53Zm-1.88,1.29a2.5,2.5,0,0,0-2.11,1.89,2.71,2.71,0,0,0,.93,2.71A21.45,21.45,0,0,0,25.27,32,38.69,38.69,0,0,0,24.38,25.82Zm2.46,21.33c-.09-2.23-.36-4.38-2.31-5.89A17.65,17.65,0,0,0,19,38.06a15.18,15.18,0,0,1-3.13-1.26,8,8,0,0,1-2.37-12.23A10.37,10.37,0,0,1,18.79,21a13.93,13.93,0,0,0-5,1.28A8.4,8.4,0,0,0,11.33,36a18,18,0,0,0,6,3.85c1,.42,2,.79,3,1.2C23.19,42.22,25.73,43.85,26.84,47.15Zm-2.42-1.54s-.11,0-.2,0l.07,0C24.43,45.73,24.51,45.7,24.42,45.61Zm-.34-.46c-.14-.16-.35-.43-.53-.22s.12.36.3.48l.28.16A.37.37,0,0,0,24.08,45.15ZM13.3,20.92a12.94,12.94,0,0,0,1.32-.52c.4-.24,1,0,1.31-.65a10.21,10.21,0,0,0-7.86,2.87,13.49,13.49,0,0,0-3.41,6c-1.49,4.66,0,8.62,4.2,11.18a21.54,21.54,0,0,0,6.46,2.49,35.86,35.86,0,0,1,6.93,2.29,1.07,1.07,0,0,0,1,.16c-.24-.79-.95-.95-1.51-1.21-1.51-.69-3.06-1.31-4.6-1.93a21.22,21.22,0,0,1-6.27-3.7,9.93,9.93,0,0,1-3.09-4.51C6.49,29.12,7.47,23.47,13.3,20.92ZM26.11,41.15c0-3.65-.54-4.39-3.7-5.66-.44-.18-.89-.33-1.33-.51-.61-.25-1.22-.48-1.81-.77a5.16,5.16,0,0,1-3-4.7,5.89,5.89,0,0,1,3-5.52,10.49,10.49,0,0,1,7.34-1.57,17.92,17.92,0,0,0,2.31.15,1.94,1.94,0,0,0,1.66-.89.77.77,0,0,0,0-1c-.3-.43-.59-.22-.88,0a6.71,6.71,0,0,1-4.56,1.19c-1.19,0-2.38,0-3.57,0a10.24,10.24,0,0,0-2.81.44,8.1,8.1,0,0,0-5.79,7.37c-.06,3.23,1.9,5.18,4.6,6.41A35.52,35.52,0,0,1,26.11,41.15Zm2.35-29a7.73,7.73,0,0,0-3.52,6,5.12,5.12,0,0,0,3.45-1.88C29.9,14.67,29.92,14.09,28.46,12.17ZM23.69,20c-1.2.21-2.39.48-4,.8,2.43,0,4.45.06,6.47,0,3-.11,3.83-1.1,3.43-4C28.26,19.05,26,19.56,23.69,20Zm4.13-8.73c-.22-.27-.35-.46-.51-.62-.88-.9-.85-.86-1.8-.11-2.63,2.07-3.44,5-3.88,8.23,2.33-.12,2.35-.12,2.51-2.2a5.79,5.79,0,0,1,2.33-4.23A4.91,4.91,0,0,0,27.82,11.24Zm-1.9-2a2.44,2.44,0,0,0-1-1.47,17.62,17.62,0,0,0-5.63,7.64,3.47,3.47,0,0,0-.14,1.41c0,1.19-.24,1.56,1.67,1.7C20.57,14.39,22,11.1,25.92,9.27ZM15,15.88c.11.35.23.71.59.83a14.3,14.3,0,0,0,3,1c-.76-1.69-.26-3.08.29-4.48a12.23,12.23,0,0,1,4.94-5.94c.43-.27,1-.37.92-1.12a3.37,3.37,0,0,1,1.37-2.77l.42-.22c-.2-.26-.43-.13-.65-.05A11.73,11.73,0,0,0,15.48,9.66,7.57,7.57,0,0,0,15,15.88Zm-2.76,27.5a41.58,41.58,0,0,0,7.94,1.39,13.7,13.7,0,0,0-4.4-1.38,21.4,21.4,0,0,1-8.26-3.16A9.83,9.83,0,0,1,3.2,30.14a16.25,16.25,0,0,1,2-5.53c2.21-4,5.51-6.12,10.15-6,.15,0,.47.2.5-.26a7.5,7.5,0,0,0-8.38.61,15.33,15.33,0,0,0-5.71,8,10.15,10.15,0,0,0,.17,6.66C3.62,38.62,7.2,41.74,12.19,43.38Zm-4.83-.57s-.07-.11-.11-.11-.08.06-.12.09l.17.12ZM12.88,45a40.21,40.21,0,0,1-5.17-1.83,4.75,4.75,0,0,0,1.79,2C10.93,46.28,11.39,46.24,12.88,45Zm-.77,13.44c-2.74-3.58-2.07-7.11,1.62-9.3a8,8,0,0,1,3.89-1.18,26.42,26.42,0,0,1,5.33.31c1.07.19,2.15.31,3.22.47a6.8,6.8,0,0,0-4.1-2.39,32.61,32.61,0,0,0-5.84-.53A10.27,10.27,0,0,0,11.62,47a7.14,7.14,0,0,0-4.15,5.66C7.06,55.61,8.84,57.9,12.11,58.39Zm8.66.7c0-.4-.21-.53-.36-.71-2.61-3.12-1.69-6.31,2.18-7.64A27.39,27.39,0,0,1,26.3,50a52.58,52.58,0,0,0-7.17-.8,7.49,7.49,0,0,0-6.38,2.56c-1.95,2.32-1.23,5.15,1.62,6.15A32.08,32.08,0,0,0,20.77,59.09Zm-1.1,9.21c2.59.24,4-1.65,3-4a19.05,19.05,0,0,0-2.79-3.66c-.19-.24-.54-.16-.92,0C21.91,64.08,22,65.45,19.67,68.3Zm-.21,2.2a1.07,1.07,0,0,0-.16-.14s-.08,0-.12,0Zm.78.4c-.13-.29-.41-.29-.66-.33C19.66,71,20,70.9,20.24,70.9Zm0-1.21a4.75,4.75,0,0,0,2.05.52,4.32,4.32,0,0,0,4.31-2.55,4.36,4.36,0,0,0-1.32-5.13,6.72,6.72,0,0,0-3.63-1.6c.58.81,1.25,1.32,1.69,2,2,3.11.79,5.87-2.84,6.56A1,1,0,0,0,20.25,69.69Zm.62,1.36-.59-.12c0,.25.21.32.43.3C20.77,71.23,20.82,71.12,20.87,71.05Zm1.18.73a6.82,6.82,0,0,0,7.06-2.64A5.94,5.94,0,0,0,28.54,62a26.23,26.23,0,0,1-2.26-3c-1.46-2.59-.8-4.89,1.82-6.28.29-.16.79-.12.62-.65a.89.89,0,0,0-.82-.58,9.51,9.51,0,0,0-6.55,1.06A2.58,2.58,0,0,0,20.19,56a3.74,3.74,0,0,0,1.16,1.77,22.7,22.7,0,0,0,3.75,3,6,6,0,0,1,2.44,7.7A4.89,4.89,0,0,1,22.6,71.3H21.44A.7.7,0,0,0,22.05,71.78Zm9.56-10.49c-.57-.77-1.17-1.52-1.69-2.31-1-1.51-1.55-3.09-.57-4.84,0-.1.15-.22.14-.32a.88.88,0,0,0-.15-.48.39.39,0,0,0-.47-.06,3.43,3.43,0,0,0-2,4,7.59,7.59,0,0,0,1.49,2.82c.42.57.91,1.11,1.3,1.7A7,7,0,0,1,27.16,72a11,11,0,0,1-3.78,1.15,7.6,7.6,0,0,0,3.13.54,6.22,6.22,0,0,0,5-2.7C33.25,68.57,33.85,64.27,31.61,61.29Zm-.88-3.37c.57-1.13.59-2-.59-2.84C29.59,56.27,30.09,57,30.73,57.92ZM59.78,50a11.83,11.83,0,0,0,.95-4c0-.46-.24-.45-.57-.35-.12.14-.2.48-.41.33s0-.39.2-.48c.08-.83,1.57-1.08.86-2.33a11.79,11.79,0,0,0-2.32,2.47,13.54,13.54,0,0,0-1.57,3,12.61,12.61,0,0,1-1.18,3.22c.35-4.4,1.68-7,4.72-9.28a2,2,0,0,0,.93-1.77,66.75,66.75,0,0,1,1.1-10.45c.26-1.49.66-2.95,1-4.57-1.17.22-2.2.46-3.25.6a4.35,4.35,0,0,1-4.86-2.72c-.22-.57-.44-.66-1-.66-1.83,0-3.59.94-5.46.41-.23-.06-.57.16-.81.31-1.87,1.14-4,.87-5.87.53-1.53-.28-3-.93-4.61-.76a3,3,0,0,1-1.22-.24A9.79,9.79,0,0,0,34.5,23c-.67-.12-.91.14-1.08.78a3.48,3.48,0,0,1-2.5,2.33,6.63,6.63,0,0,1-3.87,0c-.56-.13-1.1-.48-1.73-.14a54,54,0,0,1,2.1,13.88,3.67,3.67,0,0,0,1.64,3.21c2.83,2.1,3.75,5.19,3.94,8.56-1-3.29-2.16-6.41-5.13-8.57-.53,1.32.92,1.53,1,2.39.26.11.38.36.2.52s-.32-.16-.46-.29h0c-.63-.26-.55.19-.51.53a20.37,20.37,0,0,0,1.51,5.12c2.63,6,7.24,10.24,12.69,13.64a3.71,3.71,0,0,0,4.36-.11c1.47-1,2.9-2.09,4.36-3.13C55.23,58.77,57.8,54.6,59.78,50Zm-1.11,5.21c-.26-.08-.38.18-.52.35-.63.72-.38,1.46-.11,2.4a3.29,3.29,0,0,0,1-2A.6.6,0,0,0,58.67,55.21Zm7,17.92c-.47-.06-.94-.1-1.4-.19A7.41,7.41,0,0,1,58,66.33a7,7,0,0,1,1.77-5.27,15.46,15.46,0,0,0,1.83-2.63c1.05-2.11.67-3.58-1.24-4.94-.22-.15-.4-.52-.73-.24s-.24.58,0,.94a4.09,4.09,0,0,1-.33,4.39,25.08,25.08,0,0,1-1.67,2.31A8.21,8.21,0,0,0,56.2,68.5a6.63,6.63,0,0,0,8,5.09c.47-.08.93-.19,1.4-.29ZM68.33,71c-.51.1-1,.25-1.55.3a5,5,0,0,1-5.19-2.36,5.5,5.5,0,0,1,.14-6.22,7,7,0,0,1,2.36-2.14,16.74,16.74,0,0,0,3.8-3.21c1.76-1.94,1.23-4.15-1.15-5.17a10.09,10.09,0,0,0-5.59-.66c-.57.08-1,.23-1,1A4.37,4.37,0,0,1,63,54.9a4.7,4.7,0,0,1-.49,4.27,30,30,0,0,1-2.28,3,6.13,6.13,0,0,0-1.41,3.39C58.46,70.18,64.12,73.77,68.33,71Zm.34-1.33-.58-.15c-3.25-.68-4.44-3.32-2.76-6.18.42-.7,1-1.33,1.46-2l.44-.23a.42.42,0,0,0-.62,0,5.73,5.73,0,0,0-3.41,1.8,4.19,4.19,0,0,0-1,4.62,4,4,0,0,0,3.69,2.66A4.37,4.37,0,0,0,68.67,69.63Zm.53,1.12s-.08-.1-.12-.1-.08,0-.12.08.07.1.11.1S69.16,70.78,69.2,70.75Zm.52-.36h.1l0-.08Zm-1.17-8.51a4,4,0,0,0-2.2,2.24,2.65,2.65,0,0,0-.06,3,3,3,0,0,0,3.22,1.21C67,66.44,67.26,64.27,68.55,61.88Zm1.34-1.2c-1-.34-1.22.26-1.46,1.12A1.89,1.89,0,0,0,69.89,60.68Zm6.16-9a6.76,6.76,0,0,0-4-2.25,25.42,25.42,0,0,0-9.1.68,12.49,12.49,0,0,1,4.41,1.09,4.1,4.1,0,0,1,2.09,5.68,8.09,8.09,0,0,1-1.76,2.3A40.42,40.42,0,0,0,74.45,58C77.39,56.92,78.11,54,76.05,51.67ZM79,48.14a9.91,9.91,0,0,0-6.2-2.36,29.29,29.29,0,0,0-5.84.5,6.59,6.59,0,0,0-4.19,2.44l1-.16a33.47,33.47,0,0,1,7.27-.66,8.5,8.5,0,0,1,5.49,2.23,5.29,5.29,0,0,1,.53,7.76,2.32,2.32,0,0,0-.26.45,4.87,4.87,0,0,0,4.54-3.82A6.65,6.65,0,0,0,79,48.14Zm2.68-5.38c-.13-.16-.27,0-.36.15A28.14,28.14,0,0,1,75.83,45C78,46.27,78,46.28,79.6,44.92A6,6,0,0,0,81.44,43C81.59,43,81.81,42.94,81.66,42.76Zm6-13.31a15.39,15.39,0,0,0-5.54-10.06,8.72,8.72,0,0,0-2.78-1.58,6.91,6.91,0,0,0-6.3.65c5.65-.18,9.27,2.85,11.24,7.27a24.26,24.26,0,0,1,.92,2.51c1.72,5.48-.23,10.22-5.31,12.93a24.66,24.66,0,0,1-6.75,2.22,12.3,12.3,0,0,0-4.33,1.38,50.8,50.8,0,0,0,6.77-1.07c5.88-1.6,10-5.05,11.69-11.09A8.67,8.67,0,0,0,87.66,29.45ZM46.92,46.12a.71.71,0,0,0,.13-.41c0-.15-.1-.19-.23-.12a.34.34,0,0,0-.14.4C46.72,46.13,46.84,46.21,46.92,46.12Zm1.65,6.3A4.21,4.21,0,0,0,51,53.76c0,.62-.44.74-.78.87a2.46,2.46,0,0,0-1.3,1.14,4.35,4.35,0,0,1-4.23,2.07,7.52,7.52,0,0,1-2.63-.27,3.14,3.14,0,0,1-1.49-1,8.09,8.09,0,0,0-2.8-2.68,6.07,6.07,0,0,0,2.64-1.63A2.05,2.05,0,0,1,43.19,52a2.12,2.12,0,0,0,2.49,0A2.11,2.11,0,0,1,48.57,52.42ZM48.11,55c-1.4-.37-2.37.7-3.66.72s-2.33-1.2-3.69-.67c.81,1.51,2.16,2.12,4.35,1.82C46.31,56.68,47.7,56.64,48.11,55Zm.64-.9c-1.38-1.62-1.38-1.63-2.91-1a3.59,3.59,0,0,1-2.75,0c-1.66-.65-1.66-.64-2.89,1,1.22,0,2.38-.18,3.43.56a1.55,1.55,0,0,0,1.36.07A6.56,6.56,0,0,1,48.75,54.07ZM38.81,36.26l.09,0-.09,0ZM56.59,37c-1.65,1.4-5,1.13-6.64-.55.27-.7,1.08.19,1.3-.39a1.17,1.17,0,0,0-.32-1.17c-1.27.38-1.62,1.6-2.23,2.52-.69-.19-.57-.69-.45-1a4.26,4.26,0,0,1,3.41-3A4.93,4.93,0,0,1,54,33.23a3.23,3.23,0,0,0,1.74-.18c.35-.09,1.29-.83.82.52-.06.18.22.3.36.28,1.26-.1,1.74,1.4,3,1.3-1.49,1.07-2.73.16-4-.24a2.3,2.3,0,0,0-.43,1.14c-.07.13-.24.27-.07.4s.31,0,.4-.14c.26-.13.52-.28.78-.4A.37.37,0,0,1,57,36a.42.42,0,0,1,0,.5A2.37,2.37,0,0,1,56.59,37Zm-2.39-.8H52.49A1.46,1.46,0,0,0,54.2,36.24Zm.51-1.55c-.34-.58-1-.54-1.58-.49-.24,0-.46.1-.69.14a.63.63,0,0,0-.6.86,1.28,1.28,0,0,0,.6,1,1.83,1.83,0,0,0,.07-.46c0-.61.13-1,.82-1s.88.42.83,1a1.44,1.44,0,0,0,.09.44C54.74,35.8,55.06,35.29,54.71,34.69ZM43.07,60.44a4,4,0,0,0,2.84-.22C44.75,59.72,44,59.55,43.07,60.44Zm-3.92-29c.44.22,1.08,1,1.49.17.33-.63-.46-1-.91-1.32a3.11,3.11,0,0,0-.78-.43,10.31,10.31,0,0,0-9.24.56c-.4.22-.85.46-.83,1.12a4.36,4.36,0,0,0,2-.53A10.08,10.08,0,0,1,39.15,31.4Zm2.67,14.35a.29.29,0,0,0,.21.38c.09-.05.24-.08.26-.15a.29.29,0,0,0-.24-.37A.28.28,0,0,0,41.82,45.75Zm-.7-11.36a5.71,5.71,0,0,0,.88,3.5A5.14,5.14,0,0,0,41.12,34.39ZM38.69,37a6.37,6.37,0,0,1-6.1.3,3.28,3.28,0,0,1-.65-.59.49.49,0,0,1-.08-.64c.18-.24.42-.17.63-.05s.58.39.91.62c0-1.74,0-1.74-1.54-1.24a2.83,2.83,0,0,1-3.06-.22c1.38,0,1.91-1.3,3.15-1.28.89,0-.09-.79.41-1.08a8.07,8.07,0,0,0,3.21.44,4.81,4.81,0,0,1,4.28,1.73,2.65,2.65,0,0,1,.66,2.43c-.72.15-.64-.55-.86-.88s-.46-.4-.75-.28a.3.3,0,0,0,.13-.46A1.69,1.69,0,0,0,38,34.93a1.79,1.79,0,0,0-.29,1.17c-.12.07-.17.18-.08.28s.19,0,.22-.13h1l0,0,0,0C39.17,36.55,38.9,36.79,38.69,37Zm-2.37-.7a4.24,4.24,0,0,1-1.33,0C35.43,36.7,35.87,36.57,36.32,36.25ZM37,34.77c-.19-.59-.86-.47-1.35-.58a1.36,1.36,0,0,0-.35,0c-.46,0-1,.06-1.14.61s-.13,1.3.76,1.41a3,3,0,0,1-.15-.64c0-.47.18-.8.7-.82s.82.12.88.64a7.56,7.56,0,0,1,0,.83A1.13,1.13,0,0,0,37,34.77ZM40.07,49c.12.4.5.47.86.49a4.4,4.4,0,0,1,1.39.13c2,.71,4.06-.06,6.08-.23a.48.48,0,0,0,.42-.5c0-.27-.16-.52-.4-.5-.73.07-.59-.67-.9-1a3.6,3.6,0,0,1-6.23-.16c-.13.59,0,1-.63,1.11C40.31,48.4,39.93,48.54,40.07,49Z"/></g></g></svg>