<svg xmlns="http://www.w3.org/2000/svg" viewBox="0 0 113.59 113.59"><defs><style>.cls-1{fill:#1a1a1a;}</style></defs><title>Asset 446</title><g id="Layer_2" data-name="Layer 2"><g id="Layer_1-2" data-name="Layer 1"><path class="cls-1" d="M73.87,48.41A9.21,9.21,0,0,0,66.75,52a57.09,57.09,0,0,1-.25-5.72,26.51,26.51,0,0,0-1.43-9.69C63.58,33,61.23,32.21,59.5,32.2A7.87,7.87,0,0,0,53,35.91c-1.45-2.62-3.48-3.7-5.45-3.71a2.06,2.06,0,0,0,0,4.11,1.6,1.6,0,0,1,1.14.58C50.1,38.37,51,42,50.86,46.38c-.11,4.93,0,5.28,0,14.18a2.06,2.06,0,0,0,4.11,0c0-8.9-.09-9.23,0-14.09,0-.83,0-1.65,0-2.44,0-2.92.74-5.27,2.09-6.62a3.49,3.49,0,0,1,2.49-1.1c1.39,0,2.88,3.14,2.88,10,0,5.41.52,9.49,1.55,12.14-.89,3.25-1.8,6.07-3.65,7.79-.94.87-3.89,1.2-6.09,1a2,2,0,1,0-.37,4.08c.17,0,.83.07,1.71.07,2.39,0,5.64-.37,7.55-2.14A15.51,15.51,0,0,0,67,62.71c6.54,5.9,15.43,1.5,15.43-5.78A8.52,8.52,0,0,0,73.87,48.41Zm0,12.93c-2.92,0-4.8-2.22-5.52-3.3l0-.2c.85-3.18,3.07-5.32,5.51-5.32a4.41,4.41,0,1,1,0,8.82Z"/><path class="cls-1" d="M38.31,80.32a.34.34,0,0,1,0,.54c-.2.23-.74.24-1.61,0a4.44,4.44,0,0,1-2.11-1,2.9,2.9,0,0,1-.9-1.63,2.05,2.05,0,0,1,.58-1.82,5.26,5.26,0,0,1,2.35-1.32,7.46,7.46,0,0,1,3.09-.28,4.18,4.18,0,0,1,2.39,1,1.57,1.57,0,0,1,.56,1.06,1.24,1.24,0,0,1-.32,1,2.93,2.93,0,0,1-.63.55.89.89,0,0,1-.59,0,1,1,0,0,1-.49-.21.47.47,0,0,1,0-.7,1.76,1.76,0,0,1,.38-.28,1.79,1.79,0,0,0,.4-.32c.16-.17.18-.31,0-.42a2.83,2.83,0,0,0-1.77-.58,7.11,7.11,0,0,0-2.47.31,4.18,4.18,0,0,0-1.85,1,1.42,1.42,0,0,0-.4,1,1.25,1.25,0,0,0,.49,1,3,3,0,0,0,.88.53,4.7,4.7,0,0,0,1.2.35A1.79,1.79,0,0,1,38.31,80.32Zm5.83,4.9c.09.13.11.24,0,.33a.49.49,0,0,1-.44.24,1.13,1.13,0,0,1-.58-.13c-.57-.33-.52-1,.16-2.08a3.66,3.66,0,0,1-3.17.18,1.06,1.06,0,0,1-.54-.71,1.25,1.25,0,0,1,.15-1,4.59,4.59,0,0,1,2.47-1.83,3.46,3.46,0,0,1,2.92-.06.81.81,0,0,1,.42,1c.35.2.46.43.31.68a5.23,5.23,0,0,1-.47.6,8.44,8.44,0,0,0-1,1.32,2.94,2.94,0,0,0-.36.83A1.78,1.78,0,0,0,44,85C44,85,44.05,85.1,44.14,85.22Zm.35-3.53a.64.64,0,0,0,.09-.41.32.32,0,0,0-.15-.25c-.31-.18-.89-.09-1.75.28A3.38,3.38,0,0,0,41,82.53c-.13.24-.15.39,0,.45a2.42,2.42,0,0,0,1.84-.16A3,3,0,0,0,44.49,81.69Zm8.07,1.7a1.35,1.35,0,0,1,.1,1.08,4.07,4.07,0,0,1-2.13,2.41,3.74,3.74,0,0,1-2.88.48.75.75,0,0,1-.61-.67,10.41,10.41,0,0,0-.48,1l-.82,1.79a1.21,1.21,0,0,1-.43.56.62.62,0,0,1-.48,0,.73.73,0,0,1-.38-.3.47.47,0,0,1-.09-.41,3.81,3.81,0,0,1,.4-.86,26.57,26.57,0,0,0,2.64-5.62l0-.09a5.6,5.6,0,0,1,.3-.84.71.71,0,0,1,.33-.31.77.77,0,0,1,.56,0q.54.16.3,1a7.8,7.8,0,0,1-.47,1.06L48.3,84a5.89,5.89,0,0,1,1.83-1.07,2.5,2.5,0,0,1,1.59-.16A1.35,1.35,0,0,1,52.56,83.39Zm-1.2.54a.27.27,0,0,0-.17-.19c-.41-.13-1,.08-1.94.64a3.44,3.44,0,0,0-1.53,1.47.39.39,0,0,0,.08.35.66.66,0,0,0,.37.26,2.27,2.27,0,0,0,1.75-.5,3,3,0,0,0,1.4-1.57A.86.86,0,0,0,51.36,83.93ZM58,83.81a2.07,2.07,0,0,0-1.5.61,8.51,8.51,0,0,0-1.55,1.82l-.11.15.21-.75a4,4,0,0,1,.2-.59,3.73,3.73,0,0,0,.33-1,.49.49,0,0,0-.11-.35.59.59,0,0,0-.41-.19.83.83,0,0,0-.51.11.71.71,0,0,0-.31.31,3.29,3.29,0,0,0-.17.65L54,85c-.13.55-.21,1-.27,1.41s-.09.73-.11,1a3.73,3.73,0,0,0,0,1.29.53.53,0,0,0,.47.44.82.82,0,0,0,.56-.11.88.88,0,0,0,.31-.56,5.29,5.29,0,0,1,1.37-2.49c.69-.71,1.17-1,1.43-1a.55.55,0,0,1,.28.19.82.82,0,0,0,.57.31.35.35,0,0,0,.33-.13.76.76,0,0,0,.16-.4.88.88,0,0,0-.27-.7A1.41,1.41,0,0,0,58,83.81ZM61.28,81a.94.94,0,0,0-.68.25.73.73,0,0,0-.22.59.7.7,0,0,0,.26.49.75.75,0,0,0,.57.22,1,1,0,0,0,.57-.28.81.81,0,0,0,.32-.63.62.62,0,0,0-.24-.46A.79.79,0,0,0,61.28,81Zm-.83,2.89a.57.57,0,0,0-.47.27,1.21,1.21,0,0,0-.15.62,8.79,8.79,0,0,1-.13,1h0c0,.16-.05.33-.07.51a10.44,10.44,0,0,0-.18,2.07c0,.66.26,1,.72,1a.75.75,0,0,0,.49-.21c.15-.13.22-.24.22-.32s0-.09,0-.15a3.27,3.27,0,0,1-.14-.8c0-.25,0-.58,0-1A8.28,8.28,0,0,1,61,85.32l0-.11a3.43,3.43,0,0,0,.16-.83A.43.43,0,0,0,61,84,.85.85,0,0,0,60.45,83.89Zm6.49,2.77a1.29,1.29,0,0,0-.59.38,3.15,3.15,0,0,1-1.58.86c-.51.08-.8-.09-.87-.53a3.87,3.87,0,0,1,.32-2c.32-.8.61-1.23.88-1.28s.24.13.34.44.36.61.7.56a.56.56,0,0,0,.32-.23.84.84,0,0,0,.08-.67,1.61,1.61,0,0,0-.52-.9,1,1,0,0,0-.92-.32q-1,.18-1.83,1.8a4.66,4.66,0,0,0-.59,2.87,1.65,1.65,0,0,0,.66,1.14,1.77,1.77,0,0,0,1.38.22A3.49,3.49,0,0,0,66.53,88c.54-.52.78-.9.74-1.15S67.13,86.63,66.94,86.66ZM73,83.59h0a3.89,3.89,0,0,1-.55,2.31,3.11,3.11,0,0,1-1.55,1.45,1.71,1.71,0,0,1-1.4,0,1.9,1.9,0,0,1-.94-1.06,4.2,4.2,0,0,1,0-2.7,2.72,2.72,0,0,1,1.65-2,1.88,1.88,0,0,1,1.59.07,2.24,2.24,0,0,1,1,1.21A3,3,0,0,1,73,83.59ZM71.7,83.4a1.49,1.49,0,0,0-.51-.71.72.72,0,0,0-.71-.08,1.09,1.09,0,0,0-.57.49h0a3,3,0,0,0-.32,1.18,2.91,2.91,0,0,0,.15,1.39,1.38,1.38,0,0,0,.39.59.51.51,0,0,0,.49.1,2,2,0,0,0,1-1.17A2.28,2.28,0,0,0,71.7,83.4Zm5.58-5.33a1.31,1.31,0,0,0-.89.22,2.08,2.08,0,0,0-.82,1.4,8.3,8.3,0,0,0-.12,2.39v.19l-.29-.72A4.29,4.29,0,0,1,75,81a4,4,0,0,0-.31-.95.44.44,0,0,0-.3-.21.55.55,0,0,0-.45.09.86.86,0,0,0-.33.4.71.71,0,0,0-.06.44,4,4,0,0,0,.26.62l.15.31c.25.51.46.94.66,1.28s.37.63.5.84a3.74,3.74,0,0,0,.8,1,.53.53,0,0,0,.65.06.8.8,0,0,0,.37-.43.94.94,0,0,0-.09-.63,5.17,5.17,0,0,1-.44-2.8c.11-1,.28-1.55.51-1.69a.56.56,0,0,1,.34,0,.83.83,0,0,0,.64-.1.37.37,0,0,0,.18-.31.78.78,0,0,0-.12-.41A.81.81,0,0,0,77.28,78.07Zm7.8-2a.24.24,0,0,0-.38,0,1.73,1.73,0,0,0-.17.25.91.91,0,0,1-.16.24c-.13.13-.68-.2-1.65-1s-1.72-.85-2.3-.28-.66,1.86,0,3.59a11,11,0,0,0-1.08-1.51c-.3-.29-.51-.44-.66-.43a.71.71,0,0,0-.43.23.6.6,0,0,0-.14.51.86.86,0,0,0,.2.51,13.44,13.44,0,0,1,1.72,2,8.71,8.71,0,0,0,.64.86c.33.33.68.3,1.06-.07a.41.41,0,0,0,.09-.27.64.64,0,0,0-.1-.35,8.83,8.83,0,0,1-.57-2.19c-.19-1.07-.2-1.69,0-1.87s.61,0,1.27.54a4.67,4.67,0,0,0,1.44.92h0a.93.93,0,0,0,1-.26,1.33,1.33,0,0,0,.42-.82A.76.76,0,0,0,85.08,76Z"/><path class="cls-1" d="M70.91,71.94l-1,1.44,1,1.46-1.7-.53-1.07,1.42,0-1.78-1.68-.58,1.69-.57,0-1.78,1.06,1.43ZM36.07,44.56l2.1-2.18,2.75,1.25L39.5,41l2-2.24-3,.53-1.5-2.63-.42,3-3,.61,2.73,1.32ZM43.87,65l-1.39-2.28-.29,2.65-2.6.62L42,67.05l-.22,2.66,1.79-2,2.47,1-1.32-2.31,1.73-2ZM78.79,35.35l-2.32-4.14-.69,4.7-4.65.93,4.25,2.1-.55,4.71,3.32-3.39,4.3,2L80.25,38l3.22-3.49Zm-21-9.9,0-1.78-1,1.44L55,24.61l1,1.44-1,1.47L56.76,27l1.09,1.4V26.6L59.52,26ZM30.16,70.53l-.06-1.78-1,1.44-1.71-.5,1,1.44-1,1.47,1.69-.55,1.09,1.4V71.67l1.67-.6ZM87.9,51.44l1.41-1.08,1.5,1-.59-1.67,1.38-1.12-1.78,0-.64-1.66-.51,1.7-1.77.1,1.46,1ZM93.43,64l-2.62-.48-.43-2.63-1.27,2.35-2.64-.41,1.84,1.93-1.2,2.39L89.52,66l1.89,1.88-.35-2.64ZM34.1,53l-.69-4.7-2.32,4.14-4.67-.79,3.21,3.48-2.19,4.21,4.3-2,3.32,3.39-.55-4.71L38.75,54Z"/><path class="cls-1" d="M56.79,0a56.8,56.8,0,1,0,56.8,56.79A56.86,56.86,0,0,0,56.79,0Zm0,112.34a55.55,55.55,0,1,1,55.55-55.55A55.61,55.61,0,0,1,56.79,112.34Z"/><path class="cls-1" d="M75.06,10a4.66,4.66,0,0,1-1.11,2l-.06.07-1.19-.28.17-.2a4.07,4.07,0,0,0,1-1.79,1.91,1.91,0,0,0,0-1.17A.87.87,0,0,0,73.26,8c-.67-.16-1.51.49-2.49,1.93A16.74,16.74,0,0,0,69.19,13,22.22,22.22,0,0,0,68,16.59l-.16.67L66.71,17l.16-.7a21.71,21.71,0,0,0,.51-3.57,17.75,17.75,0,0,0,0-3.31c-.24-1.86-.71-2.88-1.41-3a.84.84,0,0,0-.8.22,1.8,1.8,0,0,0-.55,1,3.77,3.77,0,0,0,.15,2l.08.26L63.63,9.6l0-.09a4.67,4.67,0,0,1-.12-2.26,2.59,2.59,0,0,1,1-1.59,2,2,0,0,1,1.71-.35c1,.23,1.66,1.08,2,2.53a12.47,12.47,0,0,1,.17,4.45,12.08,12.08,0,0,1,2.12-3.88c1-1.15,2-1.62,3-1.39a2,2,0,0,1,1.38,1.06A2.58,2.58,0,0,1,75.06,10Z"/><path class="cls-1" d="M96.81,23.58a2.63,2.63,0,0,0-2.65-.53l-.91.18a3,3,0,0,1-1.41,0,2.24,2.24,0,0,1-1-.73,2.36,2.36,0,0,1-.6-1.13,3,3,0,0,1,.2-1.39l.3-.88a2.66,2.66,0,0,0-.19-2.7L90.14,16l-.71.62.21.23a1.63,1.63,0,0,1,.06,1.64l-.24.66a5.17,5.17,0,0,0-.33,1.35,2.67,2.67,0,0,0,.1.82,4,4,0,0,0-1.82-.12,3.63,3.63,0,0,0-3,3.45,3.65,3.65,0,0,0,.91,2.74,3.7,3.7,0,0,0,2.6,1.26h.3A3.61,3.61,0,0,0,91.68,26a4.06,4.06,0,0,0,.11-1.81,2.79,2.79,0,0,0,.81.19A4.76,4.76,0,0,0,94,24.27l.68-.14q1.16-.25,1.62.27l.2.23.71-.62Zm-7,3.3a2.62,2.62,0,0,1-3.68-.28,2.55,2.55,0,0,1-.66-1.9A2.57,2.57,0,0,1,88,22.27h.21a2.48,2.48,0,0,1,1.8.9,2.58,2.58,0,0,1,.66,1.9A2.52,2.52,0,0,1,89.82,26.88Z"/><path class="cls-1" d="M107.93,48.42A17.42,17.42,0,0,1,106.4,44a17.68,17.68,0,0,1-.51-4.61v-.21l-1,.23v.12a12.3,12.3,0,0,0,0,2.11L98.1,43.22a16.53,16.53,0,0,0-.87-1.92l-.06-.11-1,.23.1.18A18.42,18.42,0,0,1,97.84,46a18.84,18.84,0,0,1,.48,4.63v.2l1-.22v-.12a18.16,18.16,0,0,0,0-2.12l6.84-1.56a11.48,11.48,0,0,0,.86,1.94l.06.1,1-.23ZM99.09,47.2a13.19,13.19,0,0,0-.26-1.45c-.12-.51-.25-1-.39-1.41l6.68-1.52c.07.4.16.88.29,1.44s.25,1,.36,1.42Z"/><path class="cls-1" d="M106.47,67.57A2.87,2.87,0,0,0,104.86,65a2.2,2.2,0,0,0-1.76,0,2.33,2.33,0,0,0-1.25,3,2.27,2.27,0,0,0,1.25,1.26,2.37,2.37,0,0,0,1.3.16,2.5,2.5,0,0,0,.94-.41,7.34,7.34,0,0,1-.6,2.22,12.21,12.21,0,0,1-3,4.23l-.18.17,1.17.48.07-.06a11.52,11.52,0,0,0,2.92-4A9.17,9.17,0,0,0,106.47,67.57Zm-1.17,0a1.39,1.39,0,0,1-.77.79,1.38,1.38,0,0,1-1.09,0,1.44,1.44,0,0,1-.78-1.88,1.44,1.44,0,0,1,1.89-.76,1.35,1.35,0,0,1,.76.76A1.31,1.31,0,0,1,105.3,67.61Zm-3.44,5.64a2.22,2.22,0,0,1-1.24,1.24,2.3,2.3,0,0,1-1,.18,2.43,2.43,0,0,1-.74-.18,2.89,2.89,0,0,1-1.61-2.62,9.17,9.17,0,0,1,.8-4.43,11.61,11.61,0,0,1,2.92-4l.07-.07,1.17.49L102,64a12.34,12.34,0,0,0-3,4.24,7.88,7.88,0,0,0-.6,2.22,2.5,2.5,0,0,1,.94-.41,2.28,2.28,0,0,1,1.3.16,2.32,2.32,0,0,1,1.24,3Zm-.81-.34a1.33,1.33,0,0,1-.77.77,1.38,1.38,0,0,1-1.11,0,1.35,1.35,0,0,1-.76-.76,1.34,1.34,0,0,1,0-1.09,1.37,1.37,0,0,1,.77-.78,1.31,1.31,0,0,1,1.09,0,1.39,1.39,0,0,1,.78.78A1.36,1.36,0,0,1,101.05,72.91Z"/><path class="cls-1" d="M92.71,90.84a4.54,4.54,0,0,0-1.7-.92,1.75,1.75,0,0,0,.32-.27,2.24,2.24,0,0,0,.6-1.68,2.32,2.32,0,0,0-.75-1.64,2.34,2.34,0,0,0-1.72-.64,2.36,2.36,0,0,0-2.28,2.45,2.24,2.24,0,0,0,.71,1.64,4.78,4.78,0,0,0,1.68.78l.49.15a4.75,4.75,0,0,1,1.82.94A1.87,1.87,0,0,1,92.54,93a2.24,2.24,0,0,1-2.09,2.16,2.23,2.23,0,0,1-1.58-.68,5.19,5.19,0,0,1-1.14-1.9l-.49-1.2a9.09,9.09,0,0,0-1.73-3.09,1.85,1.85,0,0,0-1.42-.53,2,2,0,0,0-1.39.66A3,3,0,0,0,82,90.55v.15h1v-.15a2.07,2.07,0,0,1,.39-1.37.8.8,0,0,1,.63-.28.93.93,0,0,1,.69.29,9.93,9.93,0,0,1,1.4,2.72l.37.87a13.57,13.57,0,0,0,.75,1.64,4.66,4.66,0,0,0,.8.94,3.12,3.12,0,0,0,2.32.92l.15,0a3.31,3.31,0,0,0,2.11-1.14,3.18,3.18,0,0,0,.93-2.21A2.72,2.72,0,0,0,92.71,90.84ZM90.63,89a1.33,1.33,0,0,1-1,.45,1.47,1.47,0,0,1-1.49-1.38,1.38,1.38,0,0,1,1.22-1.45h.12A1.47,1.47,0,0,1,91,88,1.31,1.31,0,0,1,90.63,89Z"/><path class="cls-1" d="M74.43,105.83a4,4,0,0,1-1.33-1.91l-2-6-1.1.37,1.7,5.17a6.84,6.84,0,0,1-.37,2.5,5.44,5.44,0,0,1-.83-1.73l-1.81-5.51-1.11.36,1.64,5a6.26,6.26,0,0,1-.31,2.7,4.2,4.2,0,0,1-.74-1.46l-1.61-4.9a6.37,6.37,0,0,0-.38-.94,5.47,5.47,0,0,1,1.38-1l.11-.07-.32-1-.17.08a6.19,6.19,0,0,0-1.57,1.12,4.16,4.16,0,0,0-.91-.85l-.06,0-1.33.43.28.18a3.73,3.73,0,0,1,1.26,1.19,6.85,6.85,0,0,0-.89,2.4,5.24,5.24,0,0,0,.21,2.42A5.48,5.48,0,0,0,66,106.88l.09.08.72-.57,0,0a5.89,5.89,0,0,0,.17-.89l.25.76a3.7,3.7,0,0,0,1.37,1.87l.08.06.86-.48,0,0a6,6,0,0,0,.41-1.52,3.68,3.68,0,0,0,1.08,1.19l.08,0,.86-.48,0,0a5.79,5.79,0,0,0,.39-1.48,3.57,3.57,0,0,0,.94,1l.06.05,1.2-.39Zm-8.31-.46a4.46,4.46,0,0,1-.84-1.48,4.64,4.64,0,0,1-.21-1.8,4.8,4.8,0,0,1,.37-1.48l.92,2.79A6.76,6.76,0,0,1,66.12,105.37Z"/><path class="cls-1" d="M43.92,101.74l3.7,1.29-.38,1.1L45,103.36a2.3,2.3,0,0,1,0,1.51,2.7,2.7,0,0,1-1.45,1.59,2.87,2.87,0,0,1-1.36.28,3,3,0,0,1-.82-.16,2.83,2.83,0,0,1-1.64-1.45,2.65,2.65,0,0,1-.15-2.15,2.28,2.28,0,0,1,.93-1.18l-2.2-.76.39-1.1,3.69,1.28-.34,1-.08,0a1.68,1.68,0,0,0-1.29,1.1,1.58,1.58,0,0,0,.1,1.29,1.69,1.69,0,0,0,2.28.79,1.58,1.58,0,0,0,.86-1,1.65,1.65,0,0,0-.31-1.66l-.06-.07Zm-4.36-4.2-.38,1.1,8.89,3.09.38-1.1Z"/><path class="cls-1" d="M28,90.41l-4.46,4.3a3.65,3.65,0,0,0-1.2,2.11l-.05.32-.91-1,0-.08a4.51,4.51,0,0,1,.51-1.28,5.56,5.56,0,0,1-1.5.28h-.05l-.8-.56v-.09a3.43,3.43,0,0,1,.59-1.5,6.41,6.41,0,0,1-1.52.29h-.05l-.83-.58,0-.09a3.7,3.7,0,0,1,1.15-2.1l3.79-3.66a6.26,6.26,0,0,0,.75-.8.85.85,0,0,0,.16-.46,1.45,1.45,0,0,0-.52-1l-.25-.26-.75.72L22,82.69l2.29.2-.73.7L24,84a2.12,2.12,0,0,1,.74,1.69,2.94,2.94,0,0,1-1,1.75L20,91a4,4,0,0,0-1,1.26,6,6,0,0,0,2.57-.9l3.78-3.65.81.84L22,92.64a5.5,5.5,0,0,0-1.17,1.48,6.25,6.25,0,0,0,2.43-.77l3.92-3.78Z"/><path class="cls-1" d="M16.17,71.15l-.58,1-3.2-1.89L11.1,72.43l-1-.58,1.29-2.19-4.25-2.5.33,2.89-1.15.11L5.8,65.71,9.94,64l.47,1.07-2.7,1.12L12,68.67l1.29-2.19,1,.59L13,69.26Z"/><path class="cls-1" d="M15.85,43.28A2.21,2.21,0,0,0,16,41.52a2.31,2.31,0,0,0-1.17-1.34,2.12,2.12,0,0,0-1.69-.13,2.18,2.18,0,0,0-1.3,1.12A2.55,2.55,0,0,0,12,43.73a8.31,8.31,0,0,1-1-.32l-.74-.26-1-.33a11.63,11.63,0,0,0-2.85-.68H6.3L5.93,43.4l0,.05a7.6,7.6,0,0,0,1.88,2.6,9.65,9.65,0,0,0-2.18-.41,1.41,1.41,0,0,0-1.33.86L4,47.2l.91.47L5,47.39a1,1,0,0,1,1-.59,8.76,8.76,0,0,1,2,.42A12.17,12.17,0,0,1,10.1,48l.41.2.52-1-.55-.28a7.91,7.91,0,0,1-2-1.63A8,8,0,0,1,7.09,43.4,10.26,10.26,0,0,1,9,43.93l1.54.55A12.47,12.47,0,0,0,12,45a3.78,3.78,0,0,0,.88,0,7.61,7.61,0,0,1,1.5,1.88,1.93,1.93,0,0,1-.28,1.41l-.24.46.9.46.42-.82a2.44,2.44,0,0,0,.34-1.78,6,6,0,0,0-1.29-1.88A3,3,0,0,0,15.85,43.28ZM15,42.9A2.35,2.35,0,0,1,13.41,44c-.83-.93-1.09-1.73-.75-2.38a1.15,1.15,0,0,1,.72-.61A1.1,1.1,0,0,1,14,41a1.06,1.06,0,0,1,.34.12,1.36,1.36,0,0,1,.72.79A1.22,1.22,0,0,1,15,42.9Z"/><path class="cls-1" d="M20.64,24.9,19,24.2l-.66,2.85-1-.22.92-4,1.63.69.66-2.87,1.62.7.66-2.87,2.7,1.16-.4.95-1.59-.69-.67,2.89L21.29,22Zm5.23-3.3-.66,2.87-1.61-.7-.66,2.88L21.31,26,20.39,30l1,.22L22,27.37l1.63.7.65-2.87,1.62.7L26.59,23l1.59.7.39-1Z"/><path class="cls-1" d="M48.56,14.94l-1.31.35-.06,0a7.75,7.75,0,0,1-1.84-1.73,5.84,5.84,0,0,1-1-1.91l-1.4.37A6,6,0,0,1,43,14.16a7.78,7.78,0,0,1-.72,2.42l0,.06-1.3.35.17-.32a6.09,6.09,0,0,0,.71-4.38l-1.74.47-.25-.91,1.73-.47a6.32,6.32,0,0,0-2.71-3.09l-.29-.19,1.25-.34.06,0a6.85,6.85,0,0,1,2.8,3.28l1.42-.38a6.93,6.93,0,0,1,.78-4.25l0-.06,1.26-.33L46,6.37a6.43,6.43,0,0,0-.79,4l1.73-.46.25.91-1.74.47a6,6,0,0,0,2.81,3.43Z"/><path class="cls-1" d="M55.72,18.34A38.79,38.79,0,1,0,94.5,57.13,38.82,38.82,0,0,0,55.72,18.34Zm0,76.32A37.54,37.54,0,1,1,93.25,57.13,37.58,37.58,0,0,1,55.72,94.66Z"/></g></g></svg>