<svg xmlns="http://www.w3.org/2000/svg" viewBox="0 0 55.27 74.67"><defs><style>.cls-1{fill:#1d1d1b;}</style></defs><title>Asset 435</title><g id="Layer_2" data-name="Layer 2"><g id="Layer_1-2" data-name="Layer 1"><path class="cls-1" d="M43.94,34.23a.93.93,0,0,0-.81-.91,7.43,7.43,0,0,0-7.74,3.82C31.92,43.48,28.59,44,27.74,44h-.21c-.85,0-4.18-.53-7.66-6.87a7.42,7.42,0,0,0-7.73-3.82.93.93,0,0,0-.81.91v.23a.94.94,0,0,0,1,1,5.11,5.11,0,0,1,3.56,1.18c1.9,1.62,3.45,6.41,7.39,8.52a10,10,0,1,0,9-.09c3.8-2.17,5.34-6.84,7.2-8.43A5.11,5.11,0,0,1,43,35.42a1,1,0,0,0,1-1ZM35.63,54a7.82,7.82,0,1,1-8.22-7.81H28A7.81,7.81,0,0,1,35.63,54Z"/><path class="cls-1" d="M27.64,74.67a27.62,27.62,0,1,1,19.54-8.09A27.5,27.5,0,0,1,27.64,74.67Zm0-53.37a25.74,25.74,0,1,0,18.19,7.54A25.57,25.57,0,0,0,27.64,21.3Z"/><path class="cls-1" d="M10.35,1v8.8c0,2,.06,2.16.82,2.28v.16c-.35,0-1.08,0-1.67,0s-1.32,0-1.68,0v-.16c.76-.12.82-.33.82-2.28V1H8c-2.07,0-2.46.37-2.77,1.41H5c.1-.79.24-1.56.29-2.38.3.1.72.43,4,.43,3.11,0,3.88,0,4.72-.36a16.07,16.07,0,0,0-.36,2.21h-.18C13.48,1,12.94,1,10.35,1Zm9.81,10.39.09.15a1.69,1.69,0,0,1-1.45.78.86.86,0,0,1-1-.85,3.63,3.63,0,0,1-2.35.9c-1.32,0-2.24-.75-2.24-1.83,0-1.25,1.23-2.1,2.78-2.1a3.55,3.55,0,0,1,1.74.42V6.47c0-1.26-.41-1.78-1.24-1.78S15,5.34,15,6.75H13.56a2.82,2.82,0,0,1,3.13-2.44c1.59,0,2.62.72,2.62,2.84v3.44c0,.72.12.93.44.93A.58.58,0,0,0,20.16,11.36ZM17.77,9.19a2.32,2.32,0,0,0-1.31-.37,1.4,1.4,0,0,0-1.54,1.51,1.28,1.28,0,0,0,1.34,1.42,2.2,2.2,0,0,0,1.51-.64Zm10.74,2.32c-.4,0-.5-.41-.5-1V4.31a5.18,5.18,0,0,1-2.14.44v.17c.6.13.6.32.6,1.52v3.77a4.87,4.87,0,0,0,0,.54,2,2,0,0,1-1.84,1c-1.16,0-1.62-.63-1.62-2.47V4.31a5.37,5.37,0,0,1-2.2.44v.17c.66.13.66.37.66,1.49V9.57c0,2.2,1.28,2.74,2.56,2.74a2.87,2.87,0,0,0,2.47-1.17c.12.66.43,1.17,1.2,1.17a1.68,1.68,0,0,0,1.46-1l-.08-.15A.84.84,0,0,1,28.51,11.51Zm5.57-7.2a2.83,2.83,0,0,0-1.89,1.05V4.31a5.32,5.32,0,0,1-2,.44v.17c.49.13.51.37.51,1.18v4.45c0,1.32-.21,1.4-.7,1.5v.16c.36,0,.86,0,1.47,0s1.12,0,1.48,0v-.16c-.5-.1-.71-.18-.71-1.5V5.82a1.36,1.36,0,0,1,1-.58c.39,0,.66.23.66.91h1.5C35.35,4.87,34.9,4.31,34.08,4.31Zm9.57,7.2c-.4,0-.49-.41-.49-1V4.31A5.27,5.27,0,0,1,41,4.75v.17c.6.13.6.32.6,1.52v3.77a4.87,4.87,0,0,0,0,.54,2,2,0,0,1-1.83,1c-1.17,0-1.63-.63-1.63-2.47V4.31A5.35,5.35,0,0,1,36,4.75v.17c.65.13.65.37.65,1.49V9.57c0,2.2,1.28,2.74,2.56,2.74a2.86,2.86,0,0,0,2.47-1.17c.12.66.43,1.17,1.2,1.17a1.68,1.68,0,0,0,1.46-1l-.08-.15A.84.84,0,0,1,43.65,11.51Zm2.93-5.66a1.18,1.18,0,0,1,1.31-1.21,2,2,0,0,1,1.84,1.72h.16c0-.53,0-.94,0-1.21a2.47,2.47,0,0,1,0-.61c-.71-.07-1.36-.23-2-.23-1.45,0-2.62.77-2.62,2.2,0,2.47,3.54,1.93,3.54,4.13A1.25,1.25,0,0,1,47.42,12c-1.27,0-1.82-1.11-1.77-2.29h-.17c-.15.65-.1,1.73-.19,2.27a13.62,13.62,0,0,0,2.24.35,2.45,2.45,0,0,0,2.7-2.38C50.23,7.31,46.58,7.75,46.58,5.85Z"/></g></g></svg>