<svg xmlns="http://www.w3.org/2000/svg" viewBox="0 0 93 118.52"><defs><style>.cls-1{fill:#1a1a1a;}</style></defs><title>Asset 524</title><g id="Layer_2" data-name="Layer 2"><g id="Layer_1-2" data-name="Layer 1"><path class="cls-1" d="M91.59,35.12A42,42,0,1,1,57.88,1.41,46.5,46.5,0,1,0,91.59,35.12ZM20.89,9.45a.65.65,0,0,1,.93,0,.64.64,0,0,1,0,.92.65.65,0,1,1-.93-.92Zm-5.56,4.74a.87.87,0,1,1,1.23,1.23.87.87,0,0,1-1.23-1.23Zm-5,5.88a1.11,1.11,0,0,1,1.57,1.57,1.12,1.12,0,0,1-1.57,0A1.1,1.1,0,0,1,10.34,20.07ZM5.7,27.36l1.24.34.4-1.23.32,1.25,1.27-.27L8,28.36l.87.95L7.63,29l-.4,1.23L6.91,29l-1.27.27.93-.91Zm-2,8.41L4.84,37l1.23-1.09-.46,1.58L7.18,38l-1.6.39L5.9,40,4.76,38.79,3.53,39.88,4,38.3l-1.56-.52,1.6-.4ZM1.85,49.09a2.67,2.67,0,0,1-.08-.48,2.73,2.73,0,0,1,2.41-3A2.73,2.73,0,0,1,7,48.22a2.67,2.67,0,0,1,0,.49,2.69,2.69,0,0,0-2.76-2.16A2.68,2.68,0,0,0,1.85,49.09Zm3.81,7.08a3,3,0,0,0-2,3,3.13,3.13,0,0,1-.37-.73A3,3,0,0,1,9,56.53a3.14,3.14,0,0,1,.15.8A3,3,0,0,0,5.66,56.17Zm4.66,10.72A3.35,3.35,0,0,0,8.7,70,3.28,3.28,0,0,1,7.62,68.9a3.34,3.34,0,1,1,6.21-2A3.36,3.36,0,0,0,10.32,66.89Zm8.81,11.29a2.82,2.82,0,1,1,0-4A2.82,2.82,0,0,1,19.13,78.18ZM29,84.54a3.34,3.34,0,0,1-4.58,1.16,3.38,3.38,0,0,1-1.11-1.08,3.34,3.34,0,0,0,3.07-5.13A3.35,3.35,0,0,1,29,84.54Zm9.68,3.63a3,3,0,0,1-3.8,1.89,3,3,0,0,1-.73-.37A3,3,0,0,0,36,84.22a3.14,3.14,0,0,1,.8.15A3,3,0,0,1,38.68,88.17Zm6,3.38a2.67,2.67,0,0,1-.48-.08,2.6,2.6,0,0,0,.38-5.16,2.67,2.67,0,0,1,.49,0,2.64,2.64,0,1,1-.39,5.24Zm11.22-2.26-.39,1.6L55,89.33l-1.58.46,1.09-1.23-1.19-1.15,1.61.33.4-1.6.52,1.57,1.58-.46-1.09,1.23,1.19,1.14Zm10-1.67L65,86.75l-.91.93.27-1.27-1.25-.32,1.23-.4L64,84.45l.95.86.91-.92-.27,1.27,1.25.32-1.23.4ZM73.25,83a1.1,1.1,0,0,1-1.57,0,1.12,1.12,0,0,1,0-1.57A1.11,1.11,0,1,1,73.25,83Zm5.88-5a.87.87,0,1,1,0-1.23A.86.86,0,0,1,79.13,78Zm4.74-5.57a.65.65,0,1,1,0-.92A.64.64,0,0,1,83.87,72.42Z"/><path class="cls-1" d="M25.81,35.58l2.93-1.38-2.29-.74,2.39.32-2.06-2.5,2.65,1.85-.5-2.35L29.85,33,31,30l-.28,3.22,1.79-1.61L31,33.49,34.23,33,31.3,34.33l2.28.74-2.38-.31,2.05,2.5L30.6,35.41l.5,2.35-.92-2.22-1.13,3,.27-3.23L27.54,37,29,35.05Zm-8.49,18L19,51.87,17,53.28l.62-3.17L16.2,53l-.67-2.31.24,2.39L13.33,51l1.78,2.71-2.34-.57,2.2,1-3.06,1,3.22-.18-1.66,1.74,1.95-1.41-.62,3.17,1.46-2.88.67,2.3-.24-2.39,2.43,2.13-1.77-2.71,2.34.57-2.2-1,3.06-1Zm50.41-4.93,2.4.17-2.33-.61,2.84-1.54-3.15.72,1.35-2-1.69,1.71.09-3.23-1,3.09-1-2.17.64,2.32-2.76-1.69,2.2,2.37-2.4-.17,2.33.61L62.4,49.81l3.15-.72-1.35,2,1.69-1.71L65.8,52.6l1-3.09,1,2.16-.64-2.31,2.76,1.69ZM85.5,53.53,88.68,53l-3.22-.3,1.9-1.47-2.13,1.1,1.09-3.05-1.87,2.64-.33-2.38L84,51.89l-2.1-2.47,1.36,2.94L81,51.45l2,1.3-3.18.58,3.22.3L81.2,55.1,83.34,54l-1.09,3,1.87-2.64.32,2.38.12-2.4,2.09,2.47L85.3,53.92l2.22.91Zm-13.25-.21,2-2.12.62,2.19,0-2.28,2.56,1.44-2.12-2,2.19-.62L75.19,50l1.44-2.56-2,2.13L74,47.32l0,2.28-2.56-1.43,2.13,2-2.2.62,2.28-.05Zm8.15,3.41.14-1.44-.73,1.24-1.18-.84L79.35,57,78,57.54h1.44L79.33,59l.73-1.24,1.18.84-.72-1.26,1.32-.59Zm-5.23-1.42L73.9,56l-.59-1.32v1.45L71.86,56l1.24.74-.85,1.17,1.27-.71.59,1.32V57.07l1.44.15-1.24-.73Zm3.58-6.72L78,49.83,79.2,49l.69,1.27-.1-1.44,1.45,0-1.3-.64L80.7,47l-1.2.81-.69-1.27L78.9,48l-1.45,0ZM48.32,46.68l-1.4.35L46.7,45.6,46.3,47,45,46.47l1,1-1.13.91,1.41-.36.22,1.44.39-1.4,1.35.52-1-1ZM42.49,46l-1.38.44L40.8,45l-.31,1.41L39.11,46l1.07,1-1.07,1,1.38-.44.31,1.41.31-1.41,1.38.44-1.07-1ZM31.57,48.06l-1.33.59-.46-1.38-.15,1.44-1.42-.29,1.16.86-1,1.08,1.33-.58.46,1.37.15-1.44,1.42.29-1.16-.85Zm-4.65,1-1.44.19-.05-1.45-.56,1.34-1.28-.68.88,1.15-1.22.77,1.43-.19.06,1.45.55-1.34,1.28.68-.88-1.15Zm-3.41-4.53.2,1.43.42-1.38,1.34.55-1-1.06,1.15-.89-1.41.33L24,42.1l-.42,1.38-1.34-.55,1,1.06-1.15.89ZM37,20.5l.47,1.37.15-1.44,1.42.28-1.18-.85,1-1.09-1.32.6L37,18l-.14,1.44-1.42-.28,1.17.85-1,1.09Zm-1.92-5,.13,1.44.49-1.36,1.31.61-.93-1.1,1.18-.83-1.42.25-.12-1.44-.49,1.36-1.32-.61.94,1.1-1.19.83Zm2-3.78,1.34-.56.43,1.39L39,11.1l1.41.32-1.15-.88,1-1.06L38.92,10l-.43-1.38-.19,1.44-1.41-.32,1.15.88ZM37.17,13l.19-.25s1-1.27.85-1.35-1.07,1.2-1.07,1.2l-.18.24s-1,1.34-.92,1.42S37.17,13,37.17,13Zm-.43,6.15c.12,0-.3-1.49-.3-1.49l-.08-.28s-.45-1.53-.58-1.5.33,1.58.33,1.58l.08.28S36.61,19.19,36.74,19.15ZM38.22,15a20,20,0,0,0,.17-3.29,22.71,22.71,0,0,0-.52,3.27l-.07.63a22.42,22.42,0,0,0-.19,3.48,22.63,22.63,0,0,0,.54-3.46ZM33,29l2.39-4.73a26.21,26.21,0,0,0,1.53-3.42A28.67,28.67,0,0,0,35,24.17l-2.39,4.72A29.82,29.82,0,0,0,31,32.53,30,30,0,0,0,33,29Zm-7,12.1,1.92-3A11.61,11.61,0,0,0,29.08,36a12.66,12.66,0,0,0-1.5,2l-1.92,3a14.32,14.32,0,0,0-1.3,2.33C24.52,43.39,26,41.14,26,41.14Zm-6.64,9.34,2.46-3.27a15.08,15.08,0,0,0,1.59-2.42A17.25,17.25,0,0,0,21.49,47L19,50.28a18.5,18.5,0,0,0-1.71,2.57A17.31,17.31,0,0,0,19.32,50.48Zm3.2.61-2.69,1.23s-2,.93-1.95,1.08,2.1-.76,2.1-.76l2.69-1.23s1.9-.87,1.83-1A9,9,0,0,0,22.52,51.09Zm6.59-1.84c0-.12-1.39.14-1.39.14l-.26,0s-1.43.28-1.4.41,1.46-.15,1.46-.15l.26-.05S29.14,49.39,29.11,49.25Zm8-1.8-3.59.82a14.75,14.75,0,0,0-2.66.79,14.89,14.89,0,0,0,2.75-.45l3.59-.83a13.06,13.06,0,0,0,2.5-.75A13.21,13.21,0,0,0,37.15,47.45Zm8.45,0a8.33,8.33,0,0,0-1.7-.37l-.33,0a8.58,8.58,0,0,0-1.83-.13,8.78,8.78,0,0,0,1.8.39l.33.05A7.13,7.13,0,0,0,45.6,47.45Zm19,.93c0-.16-4.93-.4-4.93-.4l-6.94-.34s-5.24-.25-5.25-.08a51.36,51.36,0,0,0,5.25.43l6.95.34A42.49,42.49,0,0,0,64.64,48.38ZM73.12,50a13.06,13.06,0,0,0-2.09-.6l-.41-.1A13,13,0,0,0,68.37,49a13.24,13.24,0,0,0,2.21.63l.4.09A11.8,11.8,0,0,0,73.12,50Zm2.55-.32c0,.13,1.37-.35,1.37-.35l.24-.09s1.25-.45,1.21-.58-1.3.33-1.3.33l-.24.09S75.63,49.59,75.67,49.71Zm5.61.82.25.25s1.26,1.29,1.36,1.2-1.18-1.4-1.18-1.4l-.25-.24S80.12,49,80,49.06,81.28,50.53,81.28,50.53Zm-7.28,3v.35a8.54,8.54,0,0,0,0,1.82,8.62,8.62,0,0,0,.22-1.82l0-.35a9.6,9.6,0,0,0,0-1.93A9.78,9.78,0,0,0,74,53.52Zm5.06,3.4a11,11,0,0,0-2-.34l-.38,0a11.12,11.12,0,0,0-2.08-.1,10.34,10.34,0,0,0,2.06.36l.38,0A9.33,9.33,0,0,0,79.06,56.92Zm4-2.53c-.08-.1-1.2.84-1.2.84l-.21.18s-1.17,1-1.08,1.09,1.26-.89,1.26-.89l.21-.18S83.14,54.49,83.05,54.39Z"/><path class="cls-1" d="M47.24,28.81a.59.59,0,1,1-.59-.58A.58.58,0,0,1,47.24,28.81Zm-4.65,28.3-.75.33-.51-.65-.08.82-.82.11.66.49-.3.76.75-.33.5.65.09-.82.81-.11-.66-.49ZM48,61.92a.47.47,0,1,0,.46.46A.47.47,0,0,0,48,61.92Zm3,12.21.06-.82-.61.55-.69-.45.18.8-.74.36.78.25-.05.82.61-.55.68.46-.17-.8.73-.37ZM49.84,10.21l.07.82.52-.64.74.34L50.88,10l.67-.48-.81-.12-.08-.82-.51.64-.75-.35.3.77-.67.47ZM18.64,33.32a.88.88,0,1,0,.88.87A.88.88,0,0,0,18.64,33.32ZM23,23.48a.45.45,0,0,0,.46-.46.46.46,0,0,0-.46-.47.47.47,0,0,0-.47.47A.46.46,0,0,0,23,23.48ZM33.68,67.77a.59.59,0,0,0-.58.59.58.58,0,0,0,.58.58.59.59,0,0,0,.59-.58A.6.6,0,0,0,33.68,67.77ZM24.36,64.5l-.77.27-.45-.69-.16.8-.82.05.62.54-.37.73.78-.27.45.69.15-.81.82,0L24,65.23ZM60.17,24.23a7.21,7.21,0,0,1-1.6-.31,1.23,1.23,0,0,1-1-1.05c-.14-.8-.36-3.14-.36-3.14a0,0,0,1,0,0,0s-.2,2.35-.36,3.14a1.33,1.33,0,0,1-1,1,9.27,9.27,0,0,1-1.79.32h0a10.54,10.54,0,0,1,1.76.31,1.37,1.37,0,0,1,1,1.05c.17.8.36,3.14.36,3.14a0,0,0,1,0,0,0s.21-2.37.36-3.14a1.46,1.46,0,0,1,1-1.06,6.72,6.72,0,0,1,1.58-.3S60.18,24.23,60.17,24.23ZM53.72,36.94l-.8.17-.36-.73-.25.78-.82-.06.55.61-.46.68.8-.17.36.74.25-.78.82.06-.55-.62ZM68,44a.59.59,0,1,0,.58.59A.58.58,0,0,0,68,44Zm10.73-8.2a.47.47,0,1,0,.47.47A.47.47,0,0,0,78.75,35.84Zm8.4,2.09-.82-.07-.13-.81-.47.67-.77-.3.35.75-.64.51.82.08.12.81.48-.67.76.29-.34-.74ZM68.55,10.38l-.1-.82-.49.66-.76-.33.32.76-.66.49.82.11.09.81.5-.65.75.32L68.71,11l.66-.5ZM57.67,50.29a.47.47,0,1,0,.6.28A.47.47,0,0,0,57.67,50.29ZM62.3,68.84,62,68.2l-.26.64-.68-.1.42.55-.42.55.68-.1.26.65.27-.65.68.1-.42-.55.42-.55Zm4.13-8.06a.59.59,0,1,0,.58.58A.58.58,0,0,0,66.43,60.78ZM62.26,29.5C62.17,29,62,27.62,62,27.62s0,0,0,0S61.9,29,61.81,29.5a.79.79,0,0,1-.58.63,5.22,5.22,0,0,1-1.07.19h0a5.61,5.61,0,0,1,1.05.18.82.82,0,0,1,.6.63c.1.48.21,1.88.21,1.88h0s.13-1.42.22-1.88a.89.89,0,0,1,.58-.64,4,4,0,0,1,.95-.17h0a4,4,0,0,1-1-.19A.72.72,0,0,1,62.26,29.5Z"/><path class="cls-1" d="M75.64,24l-1.18.49.2,1.27-1-.77-1,.8.16-1.27-1.19-.46,1.18-.5-.2-1.26,1,.77,1-.8-.16,1.27Zm2-3.56.49-.26a11.09,11.09,0,0,1,1.32-.58,9.94,9.94,0,0,1,1-.3c.26-.07.44-.13.44-.17s-.2-.05-.48,0a5,5,0,0,0-1,.22,8.36,8.36,0,0,0-1.38.56c-.17.09-.34.18-.5.28a10.48,10.48,0,0,0-1.3.89,8.16,8.16,0,0,0-.78.75c-.19.22-.3.39-.27.41a10,10,0,0,0,1.24-.94A15.1,15.1,0,0,1,77.69,20.44Zm1.5.77a7.9,7.9,0,0,0-1.27.3l-.47.17a7.24,7.24,0,0,0-1.21.63,3.16,3.16,0,0,0-1,.9,10.72,10.72,0,0,0,1.15-.7,9.47,9.47,0,0,1,1.2-.58l.45-.17a10.54,10.54,0,0,1,1.21-.32,6.5,6.5,0,0,0,1.25-.25A3,3,0,0,0,79.19,21.21Zm-.1,1.84a1.9,1.9,0,0,0-.53-.11,4.24,4.24,0,0,0-.77,0l-.3,0a4.68,4.68,0,0,0-.79.18c-.39.12-.75.33-.71.39s.39-.08.78-.16.77-.14.77-.14l.28,0s.37,0,.73,0,.73.07.75,0S79.23,23.1,79.09,23.05Z"/><path class="cls-1" d="M30.83,101.43a12.48,12.48,0,0,0-4.69,1.16c0,.21.49.57.66.57A13.1,13.1,0,0,1,29.75,102a127.89,127.89,0,0,0-5.51,15.46c0,.61.74,1.06,1.46,1.06.66-2.25,1.44-5.21,2.29-8.11C39,110.41,38.05,101.43,30.83,101.43Zm-2.76,8.64a52,52,0,0,1,2.95-8.2c2,0,3.83,1,3.83,3.28C34.85,108.39,31.19,109.9,28.07,110.07Zm9.6-3.24c0-.6.87-1.1,1.54-1.1,1.3,0,.64,1.8-.67,1.8C38.07,107.53,37.67,107.31,37.67,106.83Zm30.9,6.44c-.83,1.58-1.7,2.22-2.67,2.39.59-2.2-1-4.53-1-6.14a6.47,6.47,0,0,1,.12-.94c0-.46-1.16-.52-1.16,1.17V110a12.3,12.3,0,0,1-2.1,3.07,1.78,1.78,0,0,1-.45.24c-.1-.08-.06-.1-.16.09a1.41,1.41,0,0,0-.7,1.09c-2.65,3.55-6.29,3.15-5.55,0,2.41-.23,5.25-2,5.25-4.11a1.16,1.16,0,0,0-1.31-1.29c-2.28,0-4.87,3-5.31,5.4a5,5,0,0,1-3.88,2.61c-3.44,0-.4-7,1.92-7,.36,0,.47.19.47.53a2.12,2.12,0,0,1-.78,1.67c.57.71,1.67.22,1.67-1.23,0-3-4.87-1.5-6,2.74a3.44,3.44,0,0,1-2.35,1.84c.58-2.21-1-4.51-1-6.14a6,6,0,0,1,.13-.94c0-.46-1.17-.52-1.17,1.17V110a12.54,12.54,0,0,1-2.09,3.07,1.87,1.87,0,0,1-.48.25c-.09-.1,0-.12-.16.09a1.5,1.5,0,0,0-.7,1.2c-.9,1.37-1.73,1.87-2.48,1.87s-1-.25-1-1.27c0-2,2.2-4.55,2.2-5.25a.44.44,0,0,0-.47-.46c-1.44,0-3,4.34-3,6,0,2.57,3.17,2.2,4.83-.08a2.48,2.48,0,0,0,2.63,2.39A2.7,2.7,0,0,0,44.53,116a3.55,3.55,0,0,0,2.31-1.31c-.38,4.2,4.13,4.08,6.65.53.06,3,4.27,3.35,6.95,0a2.51,2.51,0,0,0,2.64,2.56A2.7,2.7,0,0,0,65.79,116a3.61,3.61,0,0,0,3-2.52Zm-9.77-3.56c.36,0,.45.17.45.48,0,1.83-2.71,3.33-4.22,3.86C55.61,112,57.45,109.71,58.8,109.71ZM41.86,117c-1.8,0-2.17-2.74-1.27-2.79a4.17,4.17,0,0,0,2.6,1.76A1.33,1.33,0,0,1,41.86,117Zm1.44-1.37a3.83,3.83,0,0,1-2.63-2.08,15.45,15.45,0,0,0,2.06-2.75C43,112.49,43.59,113.78,43.3,115.64ZM63.13,117c-1.8,0-2.17-2.74-1.28-2.79A4.2,4.2,0,0,0,64.46,116,1.35,1.35,0,0,1,63.13,117Zm1.44-1.37a3.78,3.78,0,0,1-2.63-2.08A15.45,15.45,0,0,0,64,110.81C64.3,112.49,64.85,113.77,64.57,115.64Z"/></g></g></svg>