<svg xmlns="http://www.w3.org/2000/svg" viewBox="0 0 34.8 55.7"><title>Asset 500</title><g id="Layer_2" data-name="Layer 2"><g id="Layer_1-2" data-name="Layer 1"><path d="M34.35,53.71c-1.21-.76-2.43-1.48-3.63-2.25a65.13,65.13,0,0,1-5.66-3.74,31.41,31.41,0,0,1-5.95-6.89,24,24,0,0,1-2.77-5.7,18.87,18.87,0,0,1-1.26-5A22.59,22.59,0,0,1,19.57,14.6a32.46,32.46,0,0,1,5.67-6.21A17.27,17.27,0,0,1,29.8,5.48a9.74,9.74,0,0,0,1.76-1.07,12.38,12.38,0,0,1,1.83-1.18c.48-.21.74-.51.66-.92s-.41-.54-.69-.65a19.23,19.23,0,0,0-2.73-1A15.63,15.63,0,0,0,26.9,0a16.85,16.85,0,0,0-4.34.62A33,33,0,0,0,15.8,3.31,24.66,24.66,0,0,0,8.58,8.79a2.58,2.58,0,0,1-.34.32A18.87,18.87,0,0,0,5,12.41c-2.42,3-3.54,6.64-4.55,10.28A25.13,25.13,0,0,0,0,26.87,28.65,28.65,0,0,0,.38,30.7c.51,2.21,1.14,4.4,1.8,6.58a23.49,23.49,0,0,0,3.21,6.88,30.45,30.45,0,0,0,5.31,5.45,16,16,0,0,0,2.52,1.82A31.8,31.8,0,0,0,22.58,55a23.06,23.06,0,0,0,6.07.7c1.77-.11,3.53-.37,5.28-.61a1.25,1.25,0,0,0,.79-.51C34.94,54.2,34.67,53.9,34.35,53.71ZM31.86,2.4l.55.08-.06.25-.55-.14C31.82,2.53,31.84,2.4,31.86,2.4Zm-.67-.07c-.14.47-.53.37-.85.34-1.9-.19-3.81-.41-5.71-.62A12.48,12.48,0,0,1,31.19,2.33Zm-7.69.11c2.27.32,4.56.55,7,.84a2.9,2.9,0,0,1-2.09,1c-.69,0-1.39,0-2.08-.07C24.18,4,22,3.73,19.82,3.49c-.19,0-.37-.07-.72-.14A6.54,6.54,0,0,1,23.5,2.44ZM18,3.93c.89,0,1.77.1,2.65.19l7,.69a1.43,1.43,0,0,1-1.44.69l-5.07-.29L16.4,5c-.18,0-.36,0-.73-.09A3.19,3.19,0,0,1,18,3.93ZM15.61,5.38c3,.26,5.92.42,8.89.62.37,0,.75.08,1.12.13l.06.34a4.52,4.52,0,0,1-1,.23c-2.62,0-5.24,0-7.86,0-1.1,0-2.21,0-3.34-.12A2.14,2.14,0,0,1,15.61,5.38ZM12.88,7.1,24,7.41s.05,0,.14.13a1.75,1.75,0,0,1-1.64.92c-2.26-.14-4.53-.21-6.8-.3-.92,0-1.84-.05-2.76-.06H11.52C11.89,7.38,12.29,7.09,12.88,7.1Zm-1.5,1.58c2.62,0,5.23.1,7.84.17.84,0,1.69.09,2.53.14a7.43,7.43,0,0,1,.75.17c-.37.19-.53.34-.67.33-3.83-.15-7.66.12-11.56-.32C10.54,8.53,11,8.67,11.38,8.68Zm-.87,1c1.92.06,3.84.16,5.76.23l4.37.15a2.75,2.75,0,0,1,.56.1l.06.29a2.47,2.47,0,0,1-.85.32c-2.06-.06-4.13-.13-6.2-.25-1.45-.09-2.9-.25-4.35-.39-.18,0-.36-.05-.61-.08C9.6,9.45,10.11,9.67,10.51,9.68Zm-1.27.94c1.69.14,3.38.25,5.07.37,1.35.1,2.7.19,4,.3.57,0,1.14.12,1.76.19a.92.92,0,0,1-1.08.76c-1,0-2-.06-3-.11l-7.27-.39a7.57,7.57,0,0,1-.83-.14A1.11,1.11,0,0,1,9.24,10.62ZM7.85,12.18c2.87.19,5.75.34,8.63.52l2.57.19L18.56,14,6.28,13.35C6.64,12.46,7.07,12.13,7.85,12.18ZM6.31,13.8c1.34.09,2.69.16,4,.24l6.34.38c.42,0,.83.09,1.35.15-.33.77-.87.6-1.28.61-1.19,0-2.38,0-3.57,0l-7.39-.23a5.93,5.93,0,0,1-.7-.13A1.06,1.06,0,0,1,6.31,13.8ZM5.23,15.39c2.35.1,4.7.17,7,.23,1.68,0,3.37.06,5.09.08-.37,1.12-.37,1.16-1.23,1.12-2.85-.1-5.7-.23-8.55-.35-.85,0-1.7,0-2.55-.08a5.77,5.77,0,0,1-.78-.13C4.29,15.57,4.6,15.36,5.23,15.39ZM3.87,16.8l12.5.57c-.24,1.13-.24,1.13-1.14,1.1-3.38-.08-6.76-.16-10.14-.26-.52,0-1-.13-1.65-.21C3.6,17.57,3.71,17.25,3.87,16.8Zm-.6,1.78,12.25.4c0,.8-.36.93-.88.92-1.15,0-2.3,0-3.46,0L3.69,19.8c-.19,0-.38,0-.76-.08C3.06,19.28,3.16,19,3.27,18.58Zm.45,1.78c3.54,0,7.08-.06,10.63,0a3.84,3.84,0,0,1,.74.16c0,.28,0,.51-.05.66s-.12.58-.22.58H2.46C2.61,20.6,2.61,20.36,3.72,20.36ZM3.23,22.2H14.56l-.36,1.43L2,23.43C2.14,22.22,2.14,22.2,3.23,22.2ZM1.85,24.12A86.28,86.28,0,0,1,14,24.38c.07.35,0,.61-.43.64-.81.05-1.62.16-2.42.14A75.18,75.18,0,0,0,2,25.1c-.07,0-.15,0-.39-.11C1.73,24.65,1.79,24.37,1.85,24.12Zm.22,1.51c1.73,0,3.54-.07,5.27-.08s3.14.05,4.8.07H13.2v.8c-4.31.51-7.79-.41-11.76.26C1.11,25.83,1.48,25.64,2.07,25.63Zm-.4,1.52c4-.47,8,.21,12.11-.1,0,.33.07.6.12,1a43.83,43.83,0,0,1-6.17,0c-2,0-4,.14-6.14.22C1.62,27.79,1.64,27.49,1.67,27.15Zm0,1.71c4.12-.52,8.15-.14,12.26-.22.07.46.12.81.2,1.26H1.82C1.76,29.45,1.71,29.25,1.64,28.86Zm.51,2.87c-.1-.38-.19-.69-.3-1.1,1.39,0,2.68-.11,4-.1,2.46,0,4.92.08,7.38.12.61,0,.61,0,1.09.63l-1.64.1-9,.35C3.18,31.75,2.69,31.73,2.15,31.73Zm.07.79c1.39-.41,9.42-.75,12.21-.52.07.44.14.84.21,1.23-1.19.48-8.72.73-12.1.42Zm.52,1.71a8.36,8.36,0,0,1,.92-.1c3.38,0,6.77-.05,10.15-.06h.95l.24.71c-.16.07-.3.19-.43.19-1.65,0-3.31,0-5,0s-3.22.16-4.83.23l-1.26,0C2.93,35.26,2.68,35,2.74,34.23Zm.17,1.35h12.4c.14.45.25.74.42,1.24l-12.26.77C3.28,36.92,3.13,36.48,2.91,35.58Zm.74,2.54L16,37.39c.26.52.44.89.7,1.43-.69.06-1.28.15-1.87.17l-9.57.3H4.1Zm.69,1.74c1.31-.1,2.48-.24,3.65-.26,2.74-.06,5.47-.08,8.2-.1.91,0,.91,0,1.35,1a12.76,12.76,0,0,1-1.59.13c-2.19-.06-4.38-.19-6.57-.23-1.23,0-2.46.09-3.68.14C5.22,40.6,4.68,40.75,4.34,39.86Zm.71,1.28C5.64,41.08,6.2,41,6.76,41c1.62,0,3.23.11,4.84.14,1.89,0,3.78,0,5.67.08.4,0,.91-.11.86.68-1.44,0-2.9.11-4.35.12-2.47,0-4.93,0-7.39,0C5.85,42,5.18,42.11,5.05,41.14Zm.7,1.28h2.3c3.32,0,6.63,0,9.94-.05.58,0,1,.09,1.08.89a9.91,9.91,0,0,1-1.32.16q-3.81,0-7.62-.05c-1.12,0-2.24,0-3.35-.07C6.12,43.27,6.12,43.24,5.75,42.42Zm.89,1.42a25.22,25.22,0,0,1,4.45,0c1.38.1,2.77.15,4.15.18s2.79,0,4.19,0a79.76,79.76,0,0,1-12.17.22C7.12,44.26,7,44.09,6.64,43.84Zm1,1a14.67,14.67,0,0,1,1.53-.11c3,0,5.94.08,8.91.1.5,0,1-.09,1.5-.14s.85,0,1,.68c-.51.07-1,.16-1.47.2-2.92.23-5.84.4-8.75.69A2.4,2.4,0,0,1,7.63,44.85Zm2,1.91c.91-.08,1.78-.19,2.65-.25,2.77-.17,5.54-.28,8.31-.52.93-.08,1.27.4,1.75,1.19l-4,.26-5.54.41a16.6,16.6,0,0,1-1.73,0C10.46,47.86,10.28,47.7,9.61,46.76Zm1.77,1.61c.63-.06,1.11-.12,1.59-.15l9.34-.55a1.3,1.3,0,0,1,1.4.84c-.93.06-1.79.13-2.64.17-2.57.11-5.15.25-7.72.31C12.73,49,12,49.18,11.38,48.37Zm1.4,1.13c3.92-.52,7.74-.34,11.54-.49a.74.74,0,0,1,.5.28,5.25,5.25,0,0,1-1.81.42l-7.82.73A2.4,2.4,0,0,1,12.78,49.5Zm2.49,1.39c.83-.09,1.67-.2,2.51-.28,2.45-.23,4.91-.43,7.36-.68a2,2,0,0,1,1.87.86,8.77,8.77,0,0,1-.85.23c-2.44.36-4.88.69-7.32,1.1A4.55,4.55,0,0,1,15.27,50.89Zm5.9,2.33A3.07,3.07,0,0,1,19,52.56l6.59-1c.46-.07.92-.11,1.37-.19a2.36,2.36,0,0,1,1.95.7c-.73.16-1.27.31-1.82.38C25.14,52.74,23.15,53,21.17,53.22Zm3.1.63a11.76,11.76,0,0,1-1.56-.15v-.21l3.05-.42c1.21-.17,2.43-.34,3.65-.54a1.45,1.45,0,0,1,1.41.55l-4.62.53C25.56,53.69,24.92,53.83,24.27,53.85Zm2.57.36a14.87,14.87,0,0,1,5.93-.42A12.58,12.58,0,0,1,26.84,54.21Z"/></g></g></svg>