<svg xmlns="http://www.w3.org/2000/svg" viewBox="0 0 75.9 53.44"><defs><style>.cls-1{fill:#1d1d1b;}</style></defs><title>Asset 408</title><g id="Layer_2" data-name="Layer 2"><g id="Layer_1-2" data-name="Layer 1"><path class="cls-1" d="M10.35,32.21A.41.41,0,0,1,10,32L4.88,18.63a.4.4,0,0,1,.23-.52.41.41,0,0,1,.53.23l5.09,13.32a.41.41,0,0,1-.38.55ZM38.52,48.12a.41.41,0,0,0-.25-.52L17.5,40.29a.39.39,0,0,0-.51.24.4.4,0,0,0,.24.52L38,48.37l.13,0A.41.41,0,0,0,38.52,48.12Zm6.55-.45L68.12,15.46a.41.41,0,0,0-.1-.57.39.39,0,0,0-.56.1l-23,32.21a.39.39,0,0,0,.1.56.39.39,0,0,0,.56-.09Zm.59-23.47L65.08,13.26a.42.42,0,0,0,.15-.56.41.41,0,0,0-.55-.15L45.26,23.49a.4.4,0,0,0-.16.55.41.41,0,0,0,.36.21A.53.53,0,0,0,45.66,24.2Zm-10,2.12a.41.41,0,0,0-.28-.51L6.76,17.49a.41.41,0,0,0-.5.28.39.39,0,0,0,.27.5l28.58,8.32.11,0A.41.41,0,0,0,35.61,26.32Zm5.63.1c-.86.21-.4-1.53-1.58-.9.29.63.56,1.22.89,2-.91,0-1.73,0-2.54,0s-1.56-.53-2.37-.08c.17.6.59.56,1,.56,1.19,0,2.37,0,3.55,0,.25,0,.5,0,.85.07-.63.95-1.83,1.28-2,2.63,1.06-.23,1.36-1.36,2.33-1.54,0,.5,0,.93,0,1.35s-.08,1,0,1.53c0,.74.19,1.47.23,2.2.05,1,0,2.06.07,3.08a2.92,2.92,0,0,0,.24.78l.33,0A7.79,7.79,0,0,0,42.23,37c0-2.12-.12-4.25-.19-6.37,0-.47,0-.94.43-1.27.73.51,1,1.49,1.8,1.81.48-.32.34-.65.1-.94s-.6-.62-.89-.94-.83-.63-.76-1.35a3.64,3.64,0,0,1,1-.15,26.22,26.22,0,0,1,2.79.48c.49.11.83.15,1.08-.53a32.85,32.85,0,0,0-4.6-.55L44.41,25c-1.21-.06-1.15,1.15-1.95,1.41l.17-1.78-1,.93c0-2,0-3.71,0-5.43,0-.37.25-.78-.54-1.05A47.32,47.32,0,0,0,41.24,26.42ZM69.55,8.78c-.87.21-.4-1.53-1.58-.9l.89,2c-.92,0-1.73,0-2.54,0S64.76,9.31,64,9.77c.17.6.59.56,1,.56h3.55c.25,0,.5,0,.85.06-.64.95-1.84,1.29-2,2.63,1.06-.23,1.35-1.36,2.33-1.53,0,.5,0,.92,0,1.35s-.08,1,0,1.52c0,.74.19,1.47.23,2.21,0,1,0,2.05.07,3.08a3.29,3.29,0,0,0,.23.78l.33,0a6.65,6.65,0,0,0,.13-1.07c-.05-2.13-.13-4.25-.19-6.38,0-.46,0-.93.43-1.26.72.51,1,1.48,1.8,1.8.48-.32.34-.64.1-.93s-.6-.62-.9-.94S71,11,71,10.27a3.58,3.58,0,0,1,1-.15,26.63,26.63,0,0,1,2.79.47c.48.12.83.16,1.07-.52a32.71,32.71,0,0,0-4.59-.55l1.41-2.19c-1.22,0-1.15,1.15-2,1.41L70.93,7l-1,.92c0-2,0-3.7,0-5.42,0-.37.24-.78-.54-1.05A47.36,47.36,0,0,0,69.55,8.78ZM13.08,34.45c-.86.21-.4-1.52-1.58-.9l.89,2c-.92,0-1.73,0-2.54,0S8.29,35,7.48,35.44c.17.6.59.56,1,.57H12c.25,0,.5,0,.85.07-.64,1-1.84,1.28-2,2.63,1.06-.23,1.35-1.36,2.33-1.54,0,.5,0,.93,0,1.35s-.08,1-.05,1.53c0,.74.19,1.47.23,2.2,0,1,0,2.06.07,3.08a3.29,3.29,0,0,0,.23.78l.33,0A6.51,6.51,0,0,0,14.07,45c-.05-2.12-.13-4.25-.19-6.37,0-.46-.05-.94.43-1.26.72.5,1,1.48,1.8,1.8.48-.32.34-.64.1-.94s-.6-.62-.9-.94-.82-.63-.75-1.35a4.05,4.05,0,0,1,1-.15,26.22,26.22,0,0,1,2.79.48c.48.12.83.15,1.08-.53a33,33,0,0,0-4.6-.55L16.25,33C15,33,15.1,34.16,14.3,34.42l.16-1.78-1,.93c0-2,0-3.71,0-5.43,0-.37.25-.78-.54-1.05A47.32,47.32,0,0,0,13.08,34.45ZM39,49.49c.21.09.41.19.62.26a12.88,12.88,0,0,1,1.49.47c1.09.5.87.33.83,1.42,0,.52,0,1,0,1.66,0,.4.3-.15.33-.22.13-.32.26-.65.36-1,.16-.61.35-1.14,1.1-1.3a10.83,10.83,0,0,0,2-.49c.48-.17-.69-.51-.86-.59s-.63-.23-.94-.34a1.49,1.49,0,0,1-1.07-1.51c0-.57.06-1.13.1-1.7,0-.21.08-.42-.27-.5a2.92,2.92,0,0,0-.14.38c-.15.69-.35,1.38-.44,2.08s-.56.93-1.15,1c-.28,0-.57,0-.86,0l-1.1.08C38.87,49.29,38.7,49.36,39,49.49ZM.16,15.66c.2.08.4.18.61.25a14.36,14.36,0,0,1,1.49.47c1.09.5.88.33.84,1.42,0,.52,0,1,0,1.66.05.4.31-.15.33-.21a7.35,7.35,0,0,0,.36-1c.17-.61.35-1.14,1.11-1.31a11,11,0,0,0,2-.49c.47-.16-.69-.51-.87-.58s-.62-.24-.93-.34A1.48,1.48,0,0,1,4.07,14c0-.56.06-1.13.1-1.69,0-.21.08-.43-.28-.51-.05.14-.11.26-.14.38-.15.69-.34,1.38-.43,2.08s-.56.94-1.16,1a8.08,8.08,0,0,1-.85,0l-1.1.08C0,15.45-.13,15.53.16,15.66Z"/><path class="cls-1" d="M18.11,6l.11,0c0,.41-.08,1-.08,1.58a6.56,6.56,0,0,1-2.68.6,4.07,4.07,0,0,1-4.25-4.1A4,4,0,0,1,15.49,0a12.28,12.28,0,0,1,2.65.4c0,.31,0,.75,0,1.09s0,.57,0,.76H18A2.34,2.34,0,0,0,15.58.3c-1.66,0-3.06,1.28-3.06,3.77s1.55,3.8,3,3.8A2.73,2.73,0,0,0,18.11,6Zm5.48,1.54.06.1a1.13,1.13,0,0,1-1,.53A.58.58,0,0,1,22,7.57a2.43,2.43,0,0,1-1.58.6c-.89,0-1.5-.5-1.5-1.23s.82-1.41,1.87-1.41A2.31,2.31,0,0,1,22,5.82V4.23c0-.85-.28-1.2-.84-1.2s-1,.44-1,1.39h-1a1.9,1.9,0,0,1,2.11-1.64c1.07,0,1.76.48,1.76,1.9V7c0,.48.08.62.3.62A.38.38,0,0,0,23.59,7.51ZM22,6.06a1.52,1.52,0,0,0-.88-.25.94.94,0,0,0-1,1,.86.86,0,0,0,.9,1,1.52,1.52,0,0,0,1-.43Zm7.58-.62a2.59,2.59,0,0,1-2.64,2.69,2.31,2.31,0,0,1-1.32-.38v1.7c0,.88.14.94.47,1v.11c-.24,0-.58,0-1,0s-.75,0-1,0v-.11c.33-.07.47-.13.47-1V4c0-.54,0-.72-.4-.8V3.07a3.78,3.78,0,0,0,1.44-.29v.5a2.43,2.43,0,0,1,1.49-.5A2.5,2.5,0,0,1,29.57,5.44Zm-1.23.08c0-1.5-.54-2.42-1.57-2.42a1.62,1.62,0,0,0-1.16.5V7.38a1.67,1.67,0,0,0,1.18.46C27.62,7.84,28.34,7.26,28.34,5.52ZM33.1,2.78a1.93,1.93,0,0,0-1.27.7v-.7a3.67,3.67,0,0,1-1.37.29v.11c.33.09.34.26.34.8V7c0,.89-.14.94-.47,1v.11c.24,0,.58,0,1,0s.75,0,1,0V8c-.33-.07-.48-.12-.48-1V3.79a.92.92,0,0,1,.68-.39c.26,0,.44.16.44.61h1C34,3.15,33.65,2.78,33.1,2.78Zm2.4-.62a.52.52,0,0,0,.55-.52.54.54,0,1,0-1.08,0A.52.52,0,0,0,35.5,2.16ZM36,7V2.81a3.73,3.73,0,0,1-1.38.29v.11c.33.08.34.26.34.79V7c0,.89-.14.94-.47,1v.11c.24,0,.58,0,1,0s.75,0,1,0V8C36.13,7.91,36,7.86,36,7Zm3.83-4c.7,0,.9.46.94,1h1.07A1.77,1.77,0,0,0,39.9,2.78a2.63,2.63,0,0,0-2.74,2.71,2.55,2.55,0,0,0,2.62,2.68,2.23,2.23,0,0,0,1.93-1l-.08-.07a1.85,1.85,0,0,1-1.39.6c-1.15,0-1.94-.9-1.94-2.46C38.3,4,38.77,3,39.82,3Zm8,2.46a2.62,2.62,0,0,1-2.73,2.67,2.57,2.57,0,0,1-2.7-2.63,2.72,2.72,0,0,1,5.43,0Zm-1.22,0c0-1.5-.31-2.5-1.49-2.5s-1.49,1.15-1.49,2.49.26,2.42,1.47,2.42S46.65,6.82,46.65,5.5Zm4.74-2.72a1.93,1.93,0,0,0-1.27.7v-.7a3.68,3.68,0,0,1-1.38.29v.11c.33.09.35.26.35.8V7c0,.89-.15.94-.48,1v.11c.24,0,.59,0,1,0s.75,0,1,0V8c-.33-.07-.47-.12-.47-1V3.79a.9.9,0,0,1,.67-.39c.27,0,.44.16.44.61h1C52.25,3.15,51.94,2.78,51.39,2.78ZM57.66,7V4.57c0-1.56-1-1.79-1.73-1.79a2.69,2.69,0,0,0-1.66.54V2.78a3.67,3.67,0,0,1-1.37.29v.11c.33.09.34.26.34.8V7c0,.89-.14.94-.48,1v.11c.25,0,.59,0,1,0s.75,0,1,0V8c-.33-.07-.48-.12-.48-1V3.6a1.89,1.89,0,0,1,1.22-.47c.62,0,1.13.33,1.13,1.48V7c0,.89-.14.94-.47,1v.11c.24,0,.58,0,1,0s.75,0,1,0V8C57.8,7.91,57.66,7.86,57.66,7Z"/></g></g></svg>