<svg xmlns="http://www.w3.org/2000/svg" viewBox="0 0 68.31 68.02"><title>Asset 508</title><g id="Layer_2" data-name="Layer 2"><g id="Layer_1-2" data-name="Layer 1"><path d="M68.27,35.43c-.12-1.38-.26-2.76-.44-4.14a41.17,41.17,0,0,0-.63-4.13,36.64,36.64,0,0,0-3.94-10A25.77,25.77,0,0,0,58.9,11C56.92,9.12,55,7.2,52.8,5.5a17.66,17.66,0,0,0-5.37-3.15c-.67-.21-1.33-.44-2-.6a57.45,57.45,0,0,0-6-1.42A36.28,36.28,0,0,0,26.53.9,29.85,29.85,0,0,0,15.29,6a79.43,79.43,0,0,0-7.76,6.66A10.64,10.64,0,0,0,5,16.24c-.65,1.57-1.3,3.14-1.91,4.73-.72,1.83-1.5,3.66-2.06,5.54a29,29,0,0,0-1,8.94,23.19,23.19,0,0,0,2.42,11A40.84,40.84,0,0,0,10.85,58a39.05,39.05,0,0,0,7.54,5.79,28.77,28.77,0,0,0,10,3.7A44.91,44.91,0,0,0,37,68a18.24,18.24,0,0,0,6.11-1,57.9,57.9,0,0,0,9-4.31,42.62,42.62,0,0,0,5.64-4.45,22.8,22.8,0,0,0,4.45-5.15c.63-1,1.22-2,1.84-3a18,18,0,0,0,2.48-5.46c.57-2.57,1.16-5.13,1.71-7.7A5.44,5.44,0,0,0,68.27,35.43ZM56.33,9.61c-1.46,0-2.74.05-4,0a8.77,8.77,0,0,1-2.16-.34,7.14,7.14,0,0,1-3.58-3c-1-1.33-1.74-2.78-2.64-4.25A24.35,24.35,0,0,1,56.33,9.61ZM.67,37.37a32.71,32.71,0,0,1,.44-8.55c.62-3.3,2.09-6.28,3.36-9.35.61-1.49,1.27-3,2-4.43a4.47,4.47,0,0,1,.83-1.11A51.77,51.77,0,0,1,18.42,4.74,27.69,27.69,0,0,1,28.9,1.18L30.62,1c.07,0,.14,0,.24.08a16.49,16.49,0,0,0-3.11,6.51,30.23,30.23,0,0,0-.58,4.24c-.19,3-1.93,5.17-4.05,7-1.48,1.3-3.08,2.46-4.64,3.67a13.64,13.64,0,0,0-3.69,4.86,17.14,17.14,0,0,1-5.45,6.39c-1.89,1.35-3.79,2.82-6.14,3.4-.78.19-1.55.42-2.42.65A2.46,2.46,0,0,1,.67,37.37Zm50,25.27a34,34,0,0,1-8,3.73,17.79,17.79,0,0,1-5.45,1,68.63,68.63,0,0,1-8.11-.42A28.74,28.74,0,0,1,17.52,62.5a44.16,44.16,0,0,1-6.26-5,33.82,33.82,0,0,1-2.69-3c-.72-.85-1.39-1.74-2.07-2.63a30.33,30.33,0,0,1-3-4.77,1.61,1.61,0,0,1,1.71-.3,15,15,0,0,0,5.62.27c2-.2,3.14.78,4.14,2.2.53.76,1,1.53,1.54,2.32a2.23,2.23,0,0,0,1.73,1l3.8.43c.65.07,1.3.17,1.94.25.37-.68,1.1-.38,1.64-.58a17.66,17.66,0,0,1,1.89-.53l1.89-.51a7.43,7.43,0,0,0,1.35-.35,4.21,4.21,0,0,1,3.39,0A9.35,9.35,0,0,1,38,53.76a20.19,20.19,0,0,0,6.15,4.48,40.2,40.2,0,0,0,4.34,1.61c.72.26,1.48.45,2.2.73a1.64,1.64,0,0,1,1.12,1.25C51.42,62.12,51.05,62.4,50.66,62.64Zm1.86-1.32c-1.07-1.56-2.84-1.72-4.42-2.26a33.46,33.46,0,0,1-5.29-2.3c-1.94-1.07-3.37-2.69-5-4.08A9.18,9.18,0,0,0,34,50.55a6.44,6.44,0,0,0-3.16.21c-2.77.75-5.52,1.85-8.47,1.71-1.36-.06-2.7-.27-4.05-.39A1.75,1.75,0,0,1,17,51.26c-.33-.48-.63-1-1-1.45-.56-.78-1.11-1.58-1.71-2.32a2.67,2.67,0,0,0-2.45-1,17,17,0,0,1-6-.26,12.32,12.32,0,0,0-2.85,0,29.22,29.22,0,0,1-2-6.4c-.14-.93,0-1.35.87-1.75a2.88,2.88,0,0,1,.65-.2,10.85,10.85,0,0,0,4.17-1.68c1-.67,2.14-1.26,3.12-2a20.37,20.37,0,0,0,4.52-4.79,28,28,0,0,0,1.56-2.71,16.35,16.35,0,0,1,4.74-5.19c1.45-1.14,2.87-2.35,4.21-3.62A10.25,10.25,0,0,0,28,10.94,14.35,14.35,0,0,1,28.77,6,30.87,30.87,0,0,1,30.63,2.3,2.83,2.83,0,0,1,33.49.73c1.26.14,2.56,0,3.83.06,1.69.14,3.37.43,4.82.62a7.2,7.2,0,0,0,1,1.15,6.54,6.54,0,0,1,2,2.55,11.69,11.69,0,0,0,3,3.81,5.41,5.41,0,0,0,3.29,1.33,41.45,41.45,0,0,0,4.17.07,3.83,3.83,0,0,1,3.26,1.43,35,35,0,0,1,4.85,7.48q.36.72.72,1.47a13,13,0,0,0-2.79,9.12,9.61,9.61,0,0,0,1,4.13c1.21,2.12.59,4.15-.32,6.1-.66,1.43-1.63,2.72-2.37,4.11a10,10,0,0,0-.28,9.17c.17.39.37.76.57,1.17A24.64,24.64,0,0,1,52.52,61.32ZM65.66,45.07a31.21,31.21,0,0,1-5,8.9,9.41,9.41,0,0,1-1.39-6.19,10.77,10.77,0,0,1,2.2-5.28A12.5,12.5,0,0,0,63.82,36a3.16,3.16,0,0,0-.34-1.55,12.8,12.8,0,0,1-.8-9.71,8.08,8.08,0,0,1,1.81-3.28l.33,0c.66,2.21,1.49,4.4,1.94,6.66.41,2.08.36,4.24.63,6.35C67.84,38.22,66.81,41.67,65.66,45.07ZM38.6,35.17a10.56,10.56,0,0,0-7.89,4.1,13.69,13.69,0,0,1-3.65,3.38,6.6,6.6,0,0,1-4.47.88,19,19,0,0,1-5.79-2,7.18,7.18,0,0,1-2.21-1.62,4.54,4.54,0,0,1-.83-3.63c.27-1.79,1.41-3.07,2.47-4.4a8.56,8.56,0,0,1,2.59-2.11,43.34,43.34,0,0,1,6.45-2.89,8.83,8.83,0,0,0,4.1-2.3,15.52,15.52,0,0,0,2.3-4c.66-1.48,1.28-3,2-4.45a3.56,3.56,0,0,1,1.62-1.61,17.47,17.47,0,0,0,1.51-.88A6.16,6.16,0,0,1,42,12.9c1.12.31,2.23.64,3.36.91a5.23,5.23,0,0,1,4,4.58,30.72,30.72,0,0,1,.28,3.33l-.25,0a35.31,35.31,0,0,0,.66,4c.58,2.06-.23,3.72-1.3,5.32a7.1,7.1,0,0,1-3.15,2.3A20,20,0,0,1,38.6,35.17Zm-7.67,3.07c-1.17,1.1-2.23,2.33-3.46,3.36a6.14,6.14,0,0,1-6.62,1,36.29,36.29,0,0,1-3.54-1.42,7.46,7.46,0,0,1-2.22-1.81,3.51,3.51,0,0,1-.63-3.5,9.81,9.81,0,0,1,4.2-5.36,36.25,36.25,0,0,1,8-3.38,7,7,0,0,0,3.94-3.24,23.36,23.36,0,0,0,2.17-4.74,8.32,8.32,0,0,1,1.07-2.43c1.9-2.43,4.27-3.92,7.53-3.18,1.54.35,3.08.75,4.6,1.19a3.8,3.8,0,0,1,2.52,2.68,9.45,9.45,0,0,1,.5,4.12,14.55,14.55,0,0,0,.57,4.82,3.78,3.78,0,0,1-.13,2.28,6.92,6.92,0,0,1-3.76,4.2,22.42,22.42,0,0,1-7,1.93,11.8,11.8,0,0,0-5.42,1.55A16.3,16.3,0,0,0,30.93,38.24Zm26.68-4.31a6,6,0,0,1-.33,2.15,10.32,10.32,0,0,1-1,2.09,11.32,11.32,0,0,0-1.62,7.12,9.56,9.56,0,0,1-1.75,6,4.63,4.63,0,0,1-3.25,1.84c-1,.22-2.14.25-3.22.37a15,15,0,0,1-5-.89,13.11,13.11,0,0,1-2.33-1.26A4.32,4.32,0,0,1,37.49,48a7,7,0,0,1,1.25-5.06,6.24,6.24,0,0,1,2.87-2.06,9.18,9.18,0,0,1,2.25-.57,7,7,0,0,0,5.2-3.69c.34-.56.65-1.14,1-1.72a6.05,6.05,0,0,1,4.53-3.26A2.65,2.65,0,0,1,57.61,33.93Zm-.6.63a5.48,5.48,0,0,1-.39,1.68,10.42,10.42,0,0,1-.93,1.86,11.39,11.39,0,0,0-1.64,7.35,8.6,8.6,0,0,1-1.41,5.15,3.19,3.19,0,0,1-1.17,1.11,7.48,7.48,0,0,1-4.17,1,15.21,15.21,0,0,1-2.43.06,4.9,4.9,0,0,1-1.51-.36,7.07,7.07,0,0,1-3.22-1.21,3.58,3.58,0,0,1-1.07-1,.1.1,0,0,1,0,0,1.7,1.7,0,0,1-.5-.68,9.8,9.8,0,0,1-.41-2.49,5.48,5.48,0,0,1,1-3.72,4.81,4.81,0,0,1,2.51-1.78,8.56,8.56,0,0,1,1.91-.51c3-.35,4.86-2.16,6.18-4.7A8.34,8.34,0,0,1,52.37,33a4.74,4.74,0,0,1,2.14-.8A2.14,2.14,0,0,1,57,34.56Z"/></g></g></svg>