<svg xmlns="http://www.w3.org/2000/svg" viewBox="0 0 85.56 117.12"><title>Asset 539</title><g id="Layer_2" data-name="Layer 2"><g id="Layer_1-2" data-name="Layer 1"><path d="M47.83,108.28a4.5,4.5,0,0,0-4.5,4.3,4.4,4.4,0,0,0,8.79.19A4.45,4.45,0,0,0,47.83,108.28Zm0,8.29a3.91,3.91,0,0,1-.09-7.82,3.91,3.91,0,0,1,3.88,3.87A3.87,3.87,0,0,1,47.81,116.57Zm11-4.73a2.28,2.28,0,0,0-.49-2.74c-.62-.57-3-1-3.6-.58a1,1,0,0,0-.3.67c0,2.41,0,4.82,0,7.23a2.3,2.3,0,0,0,.2.57c.13-.16.25-.25.25-.33,0-.65.05-1.3.05-2,0-1.47,0-1.52,1.46-1.39a1.47,1.47,0,0,1,1,.58c.6.84,1.09,1.75,1.65,2.62a2.55,2.55,0,0,0,.56.46l.17-.18-2.06-3.46A8,8,0,0,0,58.77,111.84Zm-3.85,1V109c1.15-.08,2.42-.45,3.13.72a2.69,2.69,0,0,1,.06,2.22C57.48,113.15,56.19,112.87,54.92,112.79Zm14-4.21h.28v8.29l-6.23-7-.26.06v6.91H62.3v-8.45l6.26,7,.31-.1Zm-40.17,1c-.64-1.14-2.32-1.53-4.21-1v8.49c.21-.3.31-.38.31-.47,0-.65.05-1.3.05-2,0-1.44.07-1.54,1.49-1.37a1.89,1.89,0,0,1,1.11.77c.67.94,1.25,2,1.86,2.94l.39-.23-2.12-3.56C29,112,29.34,110.74,28.7,109.61ZM27,112.74c-.33.08-.68.07-1,.12-.91.13-1.25-.24-1.18-1.15s0-1.6.05-2.4c0-.1.09-.21.17-.4.54,0,1.11,0,1.67,0a1.8,1.8,0,0,1,1.76,1.77A1.84,1.84,0,0,1,27,112.74Zm50.6-4.16H78v1.74c0,1.3,0,2.6,0,3.91A2.69,2.69,0,0,1,75.45,117c-1.67.16-3.06-.65-3.2-2.23-.19-2.06,0-4.14,0-6.21l.41,0v2.82c0,.89,0,1.77,0,2.65a2.34,2.34,0,0,0,2.4,2.52,2.39,2.39,0,0,0,2.48-2.46c.08-1.49,0-3,0-4.49C77.55,109.28,77.6,108.93,77.63,108.58Zm-65.87-.2q-1.69,4.23-3.4,8.44l.33.14c.12-.21.25-.42.35-.64,1-2.28,1-2.24,3.52-2.3.95,0,1.49.24,1.73,1.2A12.17,12.17,0,0,0,15,117l.43-.2q-1.71-4.21-3.41-8.43Zm-1.57,5.12,1.69-4.29c.64,1.61,1.15,2.89,1.7,4.29Zm-9.57-1a3.06,3.06,0,0,0,1.88,3.58,14.79,14.79,0,0,0,3.8.41c-1.12,1-3.59.79-5-.65a4.47,4.47,0,0,1-.09-6.15,3.79,3.79,0,0,1,5.3-.49c-1.62-.57-3.26-.78-4.51.52A5.59,5.59,0,0,0,.62,112.47Zm40.83,3.59c-1,1.28-3.44,1.25-4.92.09a4.52,4.52,0,0,1-.58-6.37,3.8,3.8,0,0,1,5.39-.62c-2.1-.74-4-.62-5.27,1.38a3.74,3.74,0,0,0,0,4.34C37.38,116.89,39.31,116.83,41.45,116.06Zm44.11-1.23a2.21,2.21,0,0,1-1.39,2,3.81,3.81,0,0,1-4-.88,17.08,17.08,0,0,0,2.41.67A2,2,0,0,0,85,115.08c.24-1-.24-1.74-1.44-2.28a8.24,8.24,0,0,1-2-.93,2.35,2.35,0,0,1-.86-1.69A2.5,2.5,0,0,1,82,108.59a2.77,2.77,0,0,1,3.07.49l-1.34-.25c-1.28-.22-2.26.2-2.47,1.09-.27,1.2.58,1.62,1.46,2,.59.27,1.21.49,1.78.8A2.09,2.09,0,0,1,85.56,114.83ZM19.9,108.44c-.68,0-1.36,0-2.11,0v8.43a2.18,2.18,0,0,0,.33-1.28c0-.65-.21-1.52.12-1.9s1.21-.31,1.86-.41a2.45,2.45,0,0,0,2.14-2.68A2.16,2.16,0,0,0,19.9,108.44Zm.48,4.24a4,4,0,0,1-1.57.14,1,1,0,0,1-.65-.66c-.07-1,0-2,0-3.26.7,0,1.23,0,1.76,0a1.71,1.71,0,0,1,1.85,1.65A1.85,1.85,0,0,1,20.38,112.68Zm11.84-4.09h.23v8.27l-.23,0Z"/><path d="M60.9,25.61a13.58,13.58,0,0,1,5.68-8L77.7,10.28c.49-.33.94-.69,1.41-1L79,8.94a11.29,11.29,0,0,0-1.15.27C72.55,11,67.27,12.72,62,14.57a13.5,13.5,0,0,0-8.64,8.77C51.17,29.91,49,36.51,46.88,43.09,46.25,45,46.26,45,44.26,45a1.33,1.33,0,0,1-1.53-1.12Q39.46,33.74,36.07,23.6a13.85,13.85,0,0,0-9-9.13c-5.17-1.8-10.37-3.54-15.55-5.29a10.82,10.82,0,0,0-1.1-.24l-.14.33c.29.21.57.44.87.64,3.74,2.48,7.47,5,11.23,7.43A13.37,13.37,0,0,1,28.26,25c2.2,7.66,4.31,15.34,6.44,23,.08.3.12.78-.05.95-1.13,1.11-2.32,2.15-3.55,3.26-.14-.42-.25-.75-.37-1.07-1.39-3.53-3.78-6-7.63-6.59a16.67,16.67,0,0,0-9.29,1.51,1,1,0,0,0-.42.86c1.16,3.93,4.29,7.9,9.37,8.05a54.26,54.26,0,0,0,7-.67,6.42,6.42,0,0,0,.75,5.83,2.08,2.08,0,0,1,.28.86c.31,4,.72,8,.86,12.05a7.72,7.72,0,0,0,3.06,6,3.18,3.18,0,0,1,.69,1.3,17.83,17.83,0,0,0,1.25,3.37c1,1.64,2.38,3.09,3.51,4.68a1.76,1.76,0,0,1,.18,1.4c-.63,1.84-.64,3.56.72,5.08.94,1,2,2,2.95,3a.78.78,0,0,0,1.28,0c.88-.91,1.8-1.78,2.66-2.7a4.86,4.86,0,0,0,1-5.53,1.51,1.51,0,0,1,.12-1.23c1.1-1.52,2.26-3,3.43-4.46a5.13,5.13,0,0,0,1.33-3.47A1.75,1.75,0,0,1,54.66,79a6.88,6.88,0,0,0,3-5.33c.15-2.91.34-5.82.55-8.72.12-1.53,0-3.18.57-4.53.87-2.1,1.71-4.07.65-6.45,1,.28,1.82.54,2.67.74,6.46,1.57,11.79-1.28,13.79-7.33.25-.76.2-1.22-.66-1.44-1.63-.42-3.22-1-4.87-1.31-5.39-1-9.72,1.48-11.72,6.59-.13.34-.28.66-.45,1a34,34,0,0,0-2.7-2.49,1.84,1.84,0,0,1-.7-2.32C56.86,40.15,58.88,32.88,60.9,25.61ZM71.32,12.06l4.26-1.48.16.23c-1,.7-2,1.46-3.15,2-.3.16-.88-.23-1.34-.37Zm-1.39.49c.44-.13,1.1.47,1.91.84l-7,4.68L62,15.23C64.71,14.28,67.3,13.33,69.93,12.55ZM60.8,15.78a1.05,1.05,0,0,1,.88.22c.9.77,1.75,1.6,2.74,2.52a15.08,15.08,0,0,0-4.21,7.28L55.3,20.74A12.33,12.33,0,0,1,60.8,15.78Zm-6.08,5.51c1.84,1.91,3.43,3.54,5,5.19a1,1,0,0,1,.09.75c-.73,2.65-1.48,5.3-2.23,8a3,3,0,0,1-.32.46c-1.75-1.79-3.46-3.54-5.15-5.3a.73.73,0,0,1-.17-.61C52.8,27.05,53.69,24.37,54.72,21.29ZM48.55,40c2,2,3.91,3.79,5.58,5.77.41.49,0,1.66,0,2.8L46.81,45.2Zm-6,5.18-7,3.25c-.93-2.18-.94-2.18.58-3.73l4.64-4.77C41.43,41.83,42,43.44,42.53,45.19ZM16.26,12.62c-.84-.65-1.76-1.2-2.64-1.79l.13-.23,4.32,1.46C17.61,13,17.1,13.27,16.26,12.62Zm1.59,1a1.55,1.55,0,0,1,2.26-.91c2.38.9,4.8,1.68,7.15,2.49L24.4,18Zm7.09,4.93c1-.91,1.85-1.77,2.79-2.54a1.26,1.26,0,0,1,1.09-.09,12.51,12.51,0,0,1,5.24,4.88l-4.88,5A15.36,15.36,0,0,0,24.94,18.54Zm4.61,8.66a1.08,1.08,0,0,1,.15-.83c1.51-1.61,3.06-3.19,4.82-5,.46,1.15.82,2,1.1,2.82q.87,2.55,1.67,5.12c.09.3.16.77,0,.94-1.71,1.78-3.47,3.52-5.39,5.44C31.05,32.64,30.29,29.92,29.55,27.2Zm5.11,18.37c-.88-3.16-1.67-5.9-2.4-8.66a1.13,1.13,0,0,1,.25-.91c1.67-1.73,3.37-3.43,5.23-5.31.38,1.13.69,2.05,1,3,.56,1.67,1.13,3.33,1.64,5a1.36,1.36,0,0,1-.16,1.12C38.47,41.66,36.68,43.49,34.66,45.57Zm-4.24,7-15.75-6C21.24,43.4,28.59,45,30.42,52.6Zm-16.2-5.55,15.68,6C23.49,56.14,16.25,54.28,14.22,47.05ZM32.41,74.29c-.4-4.35-.63-8.71-1-13.07A4,4,0,0,0,31,59.73a6,6,0,0,1-.88-3.87A12.48,12.48,0,0,1,44.35,67.38,2.19,2.19,0,0,1,44,68.77C41.33,72.15,38.6,75.5,35.79,79,34,77.82,32.6,76.41,32.41,74.29Zm15.53,20a21.18,21.18,0,0,1-1.65,1.9C44.43,98,44.93,98,43,96.11a18.41,18.41,0,0,1-1.83-2.2A3.51,3.51,0,0,1,41,90c.2-.41,1-.53,1.49-.78l.26.39-.63,2.3.38.14a12.79,12.79,0,0,1,.63-1.42A9.69,9.69,0,0,1,44,89.47a6,6,0,0,1,.35,1.31c.06.7,0,1.42,0,2.13l.39.06A8.89,8.89,0,0,0,45,91.84c0-.58,0-1.16,0-1.73a2.36,2.36,0,0,1,.3-.65c.22.16.54.27.64.49.3.68.51,1.4.75,2.1l.44-.11c-.18-.78-.37-1.56-.56-2.34,1.38-.39,1.61-.25,2,1A3.64,3.64,0,0,1,47.94,94.28Zm.28-5.75a1.66,1.66,0,0,1-1.14.32c-1.57,0-3.14,0-4.7,0A1.75,1.75,0,0,1,40.67,88c-.53-.82-1.13-1.6-1.85-2.61,2.2.6,4.11.9,5.83-.65,1.71,1.55,3.67,1.24,5.92.66C49.68,86.6,49,87.61,48.22,88.53Zm4.24-5.46a5.34,5.34,0,0,1-7.81.78c-1.76,2-3.86,1.61-6,.71a4.45,4.45,0,0,1-2.6-4.47,1.85,1.85,0,0,1,.37-.93q3.93-4.89,7.89-9.74a3.28,3.28,0,0,1,.41-.32c2.78,3.4,5.62,6.73,8.25,10.21C53.87,80.47,53.23,81.94,52.46,83.07ZM59.53,56l-.87,3.15a17.69,17.69,0,0,0-.82,3c-.33,3.78-.57,7.56-.77,11.34a6.67,6.67,0,0,1-3,5.08,1,1,0,0,1-.91-.13q-4-4.81-7.89-9.71A1.93,1.93,0,0,1,45,67.59c.16-5.93,3.81-10.15,9.89-11.38,1.4-.28,2.85-.38,4.27-.57Zm-.06-3,15.58-6C74.69,53,65.33,56.64,59.47,53.05Zm7.07-7.92a17.21,17.21,0,0,1,8.4,1.33L59,52.58A9.07,9.07,0,0,1,66.54,45.13Zm-8,8.76a9.57,9.57,0,0,1,.62,1.17c-6.72.44-12.29,2.4-14.49,9.82a11.93,11.93,0,0,0-5.44-7.49,19.24,19.24,0,0,0-9.11-2.3,11.64,11.64,0,0,1,.77-1.34c1.79-2.27,3.69-4.4,6.5-5.49a35.5,35.5,0,0,0,3.75-1.76,7,7,0,0,1,7.1,0A40,40,0,0,0,52,48.27C54.82,49.42,56.76,51.56,58.55,53.89ZM52,42.59c-1-1.06-2.65-2-3-3.25s.68-2.8,1.13-4.22.93-2.81,1.49-4.46c1.88,1.9,3.63,3.66,5.35,5.44a.86.86,0,0,1,.14.72c-.75,2.77-1.52,5.52-2.36,8.55ZM33.5,14.71a29,29,0,0,0,4.56-.12,3.27,3.27,0,0,1,2.36.45,8.22,8.22,0,0,0,12.46-4.53A3.81,3.81,0,0,1,54,9c1.15-1,2.48-1.82,3.52-2.91a1.3,1.3,0,0,0-.85-2.3,21.65,21.65,0,0,0-3.42-.11c-.19,0-.39.19-.83.43.51.06.69.09.88.1a22.91,22.91,0,0,1,2.87,0c1.26.18,1.54.9.63,1.78s-2.23,1.8-3.55,2.85c-.75-5.06-2.57-7.63-6-8.52A7.82,7.82,0,0,0,38.67,3c-2.83,3.53-2.45,7.2.32,11.14-2.05,0-3.79.1-5.52,0-1-.08-1.23-.8-.54-1.53a22.68,22.68,0,0,1,2.37-2l.81-.71-.26-.32a11.19,11.19,0,0,0-3.36,2.57C31.47,13.37,31.88,14.57,33.5,14.71Zm14,.66a7.2,7.2,0,0,1-7-1l11.74-4.2A7.39,7.39,0,0,1,47.51,15.37ZM37.39,8.19a7.58,7.58,0,0,1,15.15-.06c0,.7-.16,1.17-.85,1.41-3.7,1.31-7.4,2.62-11.1,4A1.23,1.23,0,0,1,39,13,7.23,7.23,0,0,1,37.39,8.19ZM73.23,76.4C68.49,88.79,56.41,95.09,49.46,95.17c9.36-2,16.67-6.84,21.37-15.21s5-17.08,1.63-26.16C75.66,55.78,75.92,69.36,73.23,76.4ZM39.89,95.13C35.28,96.8,22.94,88.63,18.37,81A30.12,30.12,0,0,1,14.3,61.54a18.69,18.69,0,0,1,2.32-7.66c-3.13,9.06-2.77,17.84,2,26.21S30.59,93.19,39.89,95.13ZM69,68.51c-2.4-1.81-3.4-4.3-4-7-.56,1.31-.83,2.64-1.43,3.79a29.68,29.68,0,0,1-2.48,3.43c2.29,1.6,3.15,4.16,3.86,6.89C65.57,72.8,66.54,70.32,69,68.51Zm-6.77,0,2.74-4.3,2.74,4.32-2.75,4.31Zm-37.86,7,.29.15a10.1,10.1,0,0,1,3.82-7.13c-2.46-1.79-3.35-4.33-4.07-7a11.12,11.12,0,0,1-3.76,6.92A27.07,27.07,0,0,1,23,71.72,25.08,25.08,0,0,1,24.34,75.46Zm.08-11.26,2.74,4.31c-.9,1.41-1.85,2.91-2.75,4.31l-2.74-4.33Zm24.3-40.73a3.77,3.77,0,1,0-7.53-.28,3.77,3.77,0,0,0,7.53.28Zm-3.72,3a3.18,3.18,0,1,1,3.1-3.21A3.21,3.21,0,0,1,45,26.46Zm-1.56,5.69A1.48,1.48,0,0,0,45,33.64a1.45,1.45,0,0,0,1.49-1.54,1.52,1.52,0,1,0-3,0Zm2.8-.06c-.55.43-.91.91-1.19.87s-.67-.52-1-.81c.31-.32.58-.82,1-.9S45.66,31.67,46.24,32.09Zm8.53,25.08a2,2,0,0,0-2.07,2,2,2,0,0,0,2,2.12,2,2,0,0,0,2.06-2A2,2,0,0,0,54.77,57.17Zm-.05,3.5a1.32,1.32,0,0,1-1.39-1.47c0-.9.56-1.37,1.51-1.42a1.37,1.37,0,0,1,1.35,1.49A1.35,1.35,0,0,1,54.72,60.67ZM34.6,57.17a2.08,2.08,0,0,0-2.1,2,2,2,0,0,0,2.08,2.12,2.06,2.06,0,1,0,0-4.11Zm0,3.51a1.48,1.48,0,0,1-1.49-1.44,1.55,1.55,0,0,1,1.71-1.44,1.33,1.33,0,0,1,1.24,1.44A1.36,1.36,0,0,1,34.59,60.68ZM50,76.65c-1,.78-1.85,1.54-2.77,2.25a3.15,3.15,0,0,0-1.14,4,22.18,22.18,0,0,0,3.36-2.44C50.46,79.41,49.89,77.91,50,76.65Zm-3.5,4.87c0-1.33.69-2.13,2.9-3.16C49.33,80.4,48.27,81.5,46.47,81.52Zm-7.15-4.86c0,.92,0,1.92.16,2.9.34,2.15,2.48,2.27,3.87,3.22a2.89,2.89,0,0,0-1-3.69C41.38,78.29,40.38,77.51,39.32,76.66Zm.78,1.66c1.21.85,2.71,1.34,2.92,3.11A2.59,2.59,0,0,1,40.1,78.32Z"/></g></g></svg>