<svg xmlns="http://www.w3.org/2000/svg" viewBox="0 0 113.59 113.59"><defs><style>.cls-1{fill:#1a1a1a;}</style></defs><title>Asset 445</title><g id="Layer_2" data-name="Layer 2"><g id="Layer_1-2" data-name="Layer 1"><path class="cls-1" d="M38.13,49.6a2,2,0,0,1,.59-1.43l6-6a2,2,0,0,1,2.86,0l4.54,4.54,4.54-4.54a2,2,0,0,1,2.86,0L64,46.74l4.54-4.54a2,2,0,0,1,2.86,0l6,6A2,2,0,0,1,76,51.63a2,2,0,0,1-1.43-.6L70,46.49,65.46,51a2,2,0,0,1-2.86,0L58.06,46.5,53.52,51a2,2,0,0,1-2.86,0L46.12,46.5,41.58,51A2,2,0,0,1,38.13,49.6ZM77.4,58.77l-6-6a2,2,0,0,0-2.86,0L64,57.34,59.49,52.8a2,2,0,0,0-2.86,0l-4.54,4.54L47.55,52.8a2,2,0,0,0-2.86,0l-6,6a2,2,0,0,0,2.86,2.86l4.54-4.54,4.54,4.54a2,2,0,0,0,2.86,0l4.54-4.54,4.54,4.54a2,2,0,0,0,2.86,0L70,57.09l4.54,4.54a2,2,0,0,0,2.86-2.86Z"/><path class="cls-1" d="M41.33,76.84a.77.77,0,0,0-.65-.06c-.28.07-1.17.41-2.66,1q-1.11.45-2.34.84a11.52,11.52,0,0,0-2.36.88.53.53,0,0,0,0,.49.86.86,0,0,0,.24.44.81.81,0,0,0,.31.13,2.65,2.65,0,0,0,1-.25,9.13,9.13,0,0,0,1-.4.53.53,0,0,0,.2.27,1.14,1.14,0,0,0,.25.13,15.12,15.12,0,0,1,1.49.68,8,8,0,0,1,1.14.63s0,0,0,0a4.92,4.92,0,0,0-.24.92,4.81,4.81,0,0,0-.12,1.45,1.14,1.14,0,0,0,.38.86.75.75,0,0,0,.52.16.57.57,0,0,0,.45-.24.42.42,0,0,0,.1-.23,2.37,2.37,0,0,0-.05-.49,5.6,5.6,0,0,1,.16-2c.18-.85.59-2.22,1.22-4.11a1,1,0,0,0,.23-.23q.16-.21.12-.33A.84.84,0,0,0,41.33,76.84Zm-1.4,1.6c-.41,1.22-.64,1.94-.69,2.15l-.42-.23c-.59-.29-1-.47-1.08-.56l-.61-.34L40,78.22S40,78.33,39.93,78.44Zm7.83,4.47a.75.75,0,0,0-.48-.91,3.74,3.74,0,0,0-3.12.27,4.33,4.33,0,0,0-2.37,2.09,1.65,1.65,0,0,0-.12,1.1,1.08,1.08,0,0,0,.66.75A3.89,3.89,0,0,0,45.16,86c-.1.14-.25.34-.45.59s-.56.75-1,1.43a13.67,13.67,0,0,0-.75,1.2.73.73,0,0,0,0,.54.62.62,0,0,0,.36.37.77.77,0,0,0,.5.07.58.58,0,0,0,.32-.17,3.22,3.22,0,0,0,.3-.53,13.15,13.15,0,0,1,.63-1.2c.2-.36.6-1,1.2-1.81s1-1.4,1.23-1.67a6,6,0,0,0,.66-1c.13-.3,0-.59-.33-.84C47.76,83,47.76,83,47.76,82.91Zm-1,.75a2.52,2.52,0,0,1-.83.94h0a4.62,4.62,0,0,1-1.57.7,2.25,2.25,0,0,1-1.38,0c-.13-.06-.13-.24,0-.54a3.27,3.27,0,0,1,1.69-1.51,2.49,2.49,0,0,1,1.9-.37.38.38,0,0,1,.24.29A.73.73,0,0,1,46.74,83.66Zm7.36,1.55a1.29,1.29,0,0,1-.15.31,6.34,6.34,0,0,0-.73,1.92c-.18.86-.13,1.41.14,1.64a.25.25,0,0,1,.11.24c0,.12-.14.21-.34.28a.94.94,0,0,1-.54.05c-.28-.06-.45-.28-.52-.68a4.24,4.24,0,0,1,.09-1.54,4.85,4.85,0,0,1-1.45,1.14,2.26,2.26,0,0,1-1.45.23,1.22,1.22,0,0,1-.73-.57,1.72,1.72,0,0,1-.16-1.32,8.6,8.6,0,0,1,.69-1.72,6.76,6.76,0,0,0,.59-1.43.68.68,0,0,1,.74-.28.63.63,0,0,1,.44.29.53.53,0,0,1,.1.42,3,3,0,0,1-.47,1,9.15,9.15,0,0,0-.56,1,6.16,6.16,0,0,0-.36.87q-.13.66.15.72a2.19,2.19,0,0,0,1.4-.57,4.22,4.22,0,0,0,1.37-1.48,4.07,4.07,0,0,1,.65-1,.59.59,0,0,1,.57-.15A.5.5,0,0,1,54.1,85.21ZM60.48,89s-.07-.17-.13-.34a3.19,3.19,0,0,1-.09-.91,8.22,8.22,0,0,1,.22-1.67,4.4,4.4,0,0,0,.12-.77c0-.3-.21-.45-.62-.45a.81.81,0,0,0-.85-.62,3.43,3.43,0,0,0-2.55,1.51,4.58,4.58,0,0,0-1.27,2.85,1.28,1.28,0,0,0,.35.92,1.09,1.09,0,0,0,.82.36c.88,0,1.78-.58,2.72-1.75-.07,1.28.23,1.91.9,1.92a1.07,1.07,0,0,0,.58-.18.49.49,0,0,0,.27-.43.29.29,0,0,0-.21-.26C60.6,89.09,60.51,89,60.48,89Zm-2.13-1.27c-.61.7-1.13,1.06-1.55,1.05-.12,0-.18-.14-.18-.41a3.39,3.39,0,0,1,.87-1.92c.57-.76,1-1.13,1.4-1.13a.34.34,0,0,1,.27.15.62.62,0,0,1,.12.4A3.06,3.06,0,0,1,58.35,87.71Zm9-3.54a.69.69,0,0,1,0,.43.37.37,0,0,1-.29.23.89.89,0,0,1-.64-.14.53.53,0,0,0-.33-.11c-.26,0-.63.52-1.1,1.41a5.26,5.26,0,0,0-.62,2.82,1,1,0,0,1-.15.63.79.79,0,0,1-.51.27.54.54,0,0,1-.59-.3,3.83,3.83,0,0,1-.39-1.24c-.05-.25-.1-.58-.16-1s-.11-.87-.15-1.45c0-.15,0-.26,0-.35a4.43,4.43,0,0,1,0-.69.71.71,0,0,1,.22-.39.78.78,0,0,1,.46-.25.58.58,0,0,1,.46.07.49.49,0,0,1,.21.31,4.48,4.48,0,0,1,0,1,3.09,3.09,0,0,0,0,.63v.79l.06-.17a8.5,8.5,0,0,1,1-2.22,2.08,2.08,0,0,1,1.29-1,1.36,1.36,0,0,1,.93.12A.84.84,0,0,1,67.36,84.17Zm2.79,3.19.07.14a.58.58,0,0,1-.12.37.77.77,0,0,1-.41.35c-.45.15-.78-.09-1-.73a10.62,10.62,0,0,1-.43-2.07c0-.18-.05-.36-.08-.52h0c-.09-.62-.15-1-.18-1.06a1.13,1.13,0,0,1,0-.65.55.55,0,0,1,.38-.39.87.87,0,0,1,.59,0,.46.46,0,0,1,.31.28,3.76,3.76,0,0,1,.08.85V84a7.92,7.92,0,0,0,.18,1.62c.1.4.19.73.27,1A3.86,3.86,0,0,0,70.15,87.36Zm-2.09-6.13a.77.77,0,0,1-.4-.4.79.79,0,0,1,0-.64,1,1,0,0,1,.59-.44.8.8,0,0,1,.61,0,.61.61,0,0,1,.37.38.83.83,0,0,1-.12.7,1,1,0,0,1-.48.45A.8.8,0,0,1,68.06,81.23Zm9.16,2.92a.43.43,0,0,1-.07.43,1,1,0,0,1-.39.39c-.24.13-.52.06-.83-.2A4,4,0,0,1,75,83.54a4.58,4.58,0,0,1-.39,1.8,2.22,2.22,0,0,1-1,1.11,1.21,1.21,0,0,1-.93,0,1.73,1.73,0,0,1-1-.92,7.65,7.65,0,0,1-.57-1.76,5.81,5.81,0,0,0-.48-1.47.72.72,0,0,1,.39-.69.63.63,0,0,1,.53-.06.54.54,0,0,1,.35.26,3.25,3.25,0,0,1,.25,1A9.1,9.1,0,0,0,72.47,84a5.88,5.88,0,0,0,.27.9c.21.4.41.55.58.46A2.21,2.21,0,0,0,74,84a4.28,4.28,0,0,0,.1-2,4.18,4.18,0,0,1-.16-1.2.57.57,0,0,1,.34-.48.51.51,0,0,1,.77.25,2.08,2.08,0,0,1,.08.35,5.93,5.93,0,0,0,.67,1.93c.41.78.8,1.17,1.16,1.17A.23.23,0,0,1,77.22,84.15ZM81,81.36a5.53,5.53,0,0,1-1.53,1.88q-.77.6-1.17.09a.53.53,0,0,1-.11-.46.7.7,0,0,1,.25-.41,1.06,1.06,0,0,1,.29-.15,1.06,1.06,0,0,0,.35-.19,3.84,3.84,0,0,0,.73-.77,1.44,1.44,0,0,0,.33-.75c-.12-.14-.5-.12-1.13.05a4.42,4.42,0,0,1-1.64.21,1.17,1.17,0,0,1-.73-.42,1.89,1.89,0,0,1-.16-1.89,3.7,3.7,0,0,1,1.12-1.76c.47-.38.86-.38,1.17,0a.44.44,0,0,1,.06.41.67.67,0,0,1-.17.34.61.61,0,0,1-.21.07.81.81,0,0,0-.22.09,2.25,2.25,0,0,0-.63.9.86.86,0,0,0,0,.91.55.55,0,0,0,.4.17,3.43,3.43,0,0,0,.94-.16,3.82,3.82,0,0,1,1.42-.18,1.09,1.09,0,0,1,.69.39A1.46,1.46,0,0,1,81,81.36Z"/><path class="cls-1" d="M88.75,71.11l-1,1.47,1,1.49L87,73.52,85.92,75V73.16l-1.71-.59L85.91,72l0-1.81L87,71.64ZM68.27,26.52l-1.08-1.45,0,1.81-1.72.57,1.71.6,0,1.81,1.09-1.45L70,29l-1-1.49L70,26ZM34.4,42.35l2.43-2.68-3.56.63-1.79-3.14L31,40.74l-3.54.74,3.25,1.58-.4,3.6,2.51-2.61,3.3,1.49Zm48.27-4.51,1.77-2.06-2.66.55L80.37,34l-.3,2.7-2.64.62,2.48,1.12-.22,2.7,1.82-2,2.51,1Zm-21.78,31-2.36-4.21-.7,4.78-4.73.94,4.32,2.14-.56,4.79,3.37-3.45,4.38,2-2.23-4.27,3.26-3.54ZM27.37,59l-.06-1.81-1.06,1.46-1.73-.5,1.06,1.46-1,1.5,1.72-.57L27.39,62V60.19l1.7-.61Zm64.94-2.24L88.79,56l-.42-3.6-1.86,3.11L83,54.78l2.38,2.72-1.78,3.16,3.33-1.42,2.46,2.66L89,58.3ZM37.87,69.31l-.44-2.68L36.14,69l-2.68-.41,1.87,2L34.11,73l2.45-1.17,1.93,1.91L38.13,71l2.41-1.24ZM55.79,31.63l4.32-2.15-4.73-.94-.7-4.77L52.32,28l-4.75-.8,3.27,3.54L48.6,35,53,33l3.38,3.45Z"/><path class="cls-1" d="M56.79,0a56.8,56.8,0,1,0,56.8,56.79A56.86,56.86,0,0,0,56.79,0Zm0,112.34a55.55,55.55,0,1,1,55.55-55.55A55.61,55.61,0,0,1,56.79,112.34Z"/><path class="cls-1" d="M75.06,10a4.66,4.66,0,0,1-1.11,2l-.06.07-1.19-.28.17-.2a4.07,4.07,0,0,0,1-1.79,1.91,1.91,0,0,0,0-1.17A.87.87,0,0,0,73.26,8c-.67-.16-1.51.49-2.49,1.93A16.74,16.74,0,0,0,69.19,13,22.22,22.22,0,0,0,68,16.59l-.16.67L66.71,17l.16-.7a21.71,21.71,0,0,0,.51-3.57,17.75,17.75,0,0,0,0-3.31c-.24-1.86-.71-2.88-1.41-3a.84.84,0,0,0-.8.22,1.8,1.8,0,0,0-.55,1,3.77,3.77,0,0,0,.15,2l.08.26L63.63,9.6l0-.09a4.67,4.67,0,0,1-.12-2.26,2.59,2.59,0,0,1,1-1.59,2,2,0,0,1,1.71-.35c1,.23,1.66,1.08,2,2.53a12.47,12.47,0,0,1,.17,4.45,12.08,12.08,0,0,1,2.12-3.88c1-1.15,2-1.62,3-1.39a2,2,0,0,1,1.38,1.06A2.58,2.58,0,0,1,75.06,10Z"/><path class="cls-1" d="M96.81,23.58a2.63,2.63,0,0,0-2.65-.53l-.91.18a3,3,0,0,1-1.41,0,2.24,2.24,0,0,1-1-.73,2.36,2.36,0,0,1-.6-1.13,3,3,0,0,1,.2-1.39l.3-.88a2.66,2.66,0,0,0-.19-2.7L90.14,16l-.71.62.21.23a1.63,1.63,0,0,1,.06,1.64l-.24.66a5.17,5.17,0,0,0-.33,1.35,2.67,2.67,0,0,0,.1.82,4,4,0,0,0-1.82-.12,3.63,3.63,0,0,0-3,3.45,3.65,3.65,0,0,0,.91,2.74,3.7,3.7,0,0,0,2.6,1.26h.3A3.61,3.61,0,0,0,91.68,26a4.06,4.06,0,0,0,.11-1.81,2.79,2.79,0,0,0,.81.19A4.76,4.76,0,0,0,94,24.27l.68-.14q1.16-.25,1.62.27l.2.23.71-.62Zm-7,3.3a2.62,2.62,0,0,1-3.68-.28,2.55,2.55,0,0,1-.66-1.9A2.57,2.57,0,0,1,88,22.27h.21a2.48,2.48,0,0,1,1.8.9,2.58,2.58,0,0,1,.66,1.9A2.52,2.52,0,0,1,89.82,26.88Z"/><path class="cls-1" d="M107.93,48.42A17.42,17.42,0,0,1,106.4,44a17.26,17.26,0,0,1-.51-4.61v-.21l-1,.23v.12a12.3,12.3,0,0,0,0,2.11L98.1,43.22a16.53,16.53,0,0,0-.87-1.92l-.06-.11-1,.23.1.18A18.42,18.42,0,0,1,97.84,46a18.84,18.84,0,0,1,.48,4.63v.2l1-.22v-.12a18.16,18.16,0,0,0,0-2.12l6.84-1.56a11.48,11.48,0,0,0,.86,1.94l.06.1,1-.23ZM99.09,47.2a13.19,13.19,0,0,0-.26-1.45c-.12-.51-.25-1-.39-1.41l6.68-1.52c.07.4.16.88.29,1.44s.25,1,.36,1.42Z"/><path class="cls-1" d="M106.47,67.57A2.87,2.87,0,0,0,104.86,65a2.2,2.2,0,0,0-1.76,0,2.33,2.33,0,0,0-1.25,3,2.27,2.27,0,0,0,1.25,1.26,2.37,2.37,0,0,0,1.3.16,2.5,2.5,0,0,0,.94-.41,7.34,7.34,0,0,1-.6,2.22,12.21,12.21,0,0,1-3,4.23l-.18.17,1.17.48.07-.06a11.52,11.52,0,0,0,2.92-4A9.17,9.17,0,0,0,106.47,67.57Zm-1.17,0a1.39,1.39,0,0,1-.77.79,1.38,1.38,0,0,1-1.09,0,1.44,1.44,0,0,1-.78-1.88,1.44,1.44,0,0,1,1.89-.76,1.35,1.35,0,0,1,.76.76A1.31,1.31,0,0,1,105.3,67.61Zm-3.44,5.64a2.22,2.22,0,0,1-1.24,1.24,2.3,2.3,0,0,1-1,.18,2.43,2.43,0,0,1-.74-.18,2.89,2.89,0,0,1-1.61-2.62,9.17,9.17,0,0,1,.8-4.43,11.61,11.61,0,0,1,2.92-4l.07-.07,1.17.49L102,64a12.34,12.34,0,0,0-3,4.24,7.88,7.88,0,0,0-.6,2.22,2.5,2.5,0,0,1,.94-.41,2.28,2.28,0,0,1,1.3.16,2.32,2.32,0,0,1,1.24,3Zm-.81-.34a1.33,1.33,0,0,1-.77.77,1.38,1.38,0,0,1-1.11,0,1.35,1.35,0,0,1-.76-.76,1.34,1.34,0,0,1,0-1.09,1.37,1.37,0,0,1,.77-.78,1.31,1.31,0,0,1,1.09,0,1.39,1.39,0,0,1,.78.78A1.36,1.36,0,0,1,101.05,72.91Z"/><path class="cls-1" d="M92.71,90.84a4.54,4.54,0,0,0-1.7-.92,1.75,1.75,0,0,0,.32-.27,2.24,2.24,0,0,0,.6-1.68,2.32,2.32,0,0,0-.75-1.64,2.34,2.34,0,0,0-1.72-.64,2.36,2.36,0,0,0-2.28,2.45,2.24,2.24,0,0,0,.71,1.64,4.78,4.78,0,0,0,1.68.78l.49.15a4.75,4.75,0,0,1,1.82.94A1.87,1.87,0,0,1,92.54,93a2.24,2.24,0,0,1-2.09,2.16,2.23,2.23,0,0,1-1.58-.68,5.19,5.19,0,0,1-1.14-1.9l-.49-1.2a9.09,9.09,0,0,0-1.73-3.09,1.85,1.85,0,0,0-1.42-.53,2,2,0,0,0-1.39.66A3,3,0,0,0,82,90.55v.15h1v-.15a2.07,2.07,0,0,1,.39-1.37.8.8,0,0,1,.63-.28.93.93,0,0,1,.69.29,9.93,9.93,0,0,1,1.4,2.72l.37.87a13.57,13.57,0,0,0,.75,1.64,4.66,4.66,0,0,0,.8.94,3.12,3.12,0,0,0,2.32.92l.15,0a3.31,3.31,0,0,0,2.11-1.14,3.18,3.18,0,0,0,.93-2.21A2.72,2.72,0,0,0,92.71,90.84ZM90.63,89a1.33,1.33,0,0,1-1,.45,1.47,1.47,0,0,1-1.49-1.38,1.38,1.38,0,0,1,1.22-1.45h.12A1.47,1.47,0,0,1,91,88,1.31,1.31,0,0,1,90.63,89Z"/><path class="cls-1" d="M74.43,105.83a4,4,0,0,1-1.33-1.91l-2-6-1.1.37,1.7,5.17a6.84,6.84,0,0,1-.37,2.5,5.44,5.44,0,0,1-.83-1.73l-1.81-5.51-1.11.36,1.64,5a6.26,6.26,0,0,1-.31,2.7,4.2,4.2,0,0,1-.74-1.46l-1.61-4.9a6.37,6.37,0,0,0-.38-.94,5.47,5.47,0,0,1,1.38-1l.11-.07-.32-1-.17.08a6.19,6.19,0,0,0-1.57,1.12,4.16,4.16,0,0,0-.91-.85l-.06,0-1.33.43.28.18a3.73,3.73,0,0,1,1.26,1.19,6.85,6.85,0,0,0-.89,2.4,5.24,5.24,0,0,0,.21,2.42A5.48,5.48,0,0,0,66,106.88l.09.08.72-.57,0,0a5.89,5.89,0,0,0,.17-.89l.25.76a3.7,3.7,0,0,0,1.37,1.87l.08.06.86-.48,0,0a6,6,0,0,0,.41-1.52,3.68,3.68,0,0,0,1.08,1.19l.08,0,.86-.48,0,0a5.79,5.79,0,0,0,.39-1.48,3.57,3.57,0,0,0,.94,1l.06.05,1.2-.39Zm-8.31-.46a4.46,4.46,0,0,1-.84-1.48,4.64,4.64,0,0,1-.21-1.8,4.8,4.8,0,0,1,.37-1.48l.92,2.79A6.76,6.76,0,0,1,66.12,105.37Z"/><path class="cls-1" d="M43.92,101.74l3.7,1.29-.38,1.1L45,103.36a2.3,2.3,0,0,1,0,1.51,2.7,2.7,0,0,1-1.45,1.59,2.87,2.87,0,0,1-1.36.28,3,3,0,0,1-.82-.16,2.83,2.83,0,0,1-1.64-1.45,2.65,2.65,0,0,1-.15-2.15,2.28,2.28,0,0,1,.93-1.18l-2.2-.76.38-1.1,3.7,1.28-.34,1-.08,0a1.68,1.68,0,0,0-1.29,1.1,1.58,1.58,0,0,0,.1,1.29,1.69,1.69,0,0,0,2.28.79,1.58,1.58,0,0,0,.86-1,1.65,1.65,0,0,0-.31-1.66l-.06-.07Zm-4.36-4.2-.38,1.1,8.89,3.09.38-1.1Z"/><path class="cls-1" d="M28,90.41l-4.46,4.3a3.65,3.65,0,0,0-1.2,2.11l-.05.32-.91-1,0-.08a4.51,4.51,0,0,1,.51-1.28,5.56,5.56,0,0,1-1.5.28h-.05l-.8-.56v-.09a3.43,3.43,0,0,1,.59-1.5,6.41,6.41,0,0,1-1.52.29h-.05l-.83-.58,0-.09a3.7,3.7,0,0,1,1.15-2.1l3.79-3.66a6.26,6.26,0,0,0,.75-.8.85.85,0,0,0,.16-.46,1.45,1.45,0,0,0-.52-1l-.25-.26-.75.72L22,82.69l2.29.2-.73.7L24,84a2.12,2.12,0,0,1,.74,1.69,2.94,2.94,0,0,1-1,1.75L20,91a4,4,0,0,0-1,1.26,6,6,0,0,0,2.57-.9l3.78-3.65.81.84L22,92.64a5.5,5.5,0,0,0-1.17,1.48,6.25,6.25,0,0,0,2.43-.77l3.92-3.78Z"/><path class="cls-1" d="M16.17,71.15l-.58,1-3.2-1.89L11.1,72.43l-1-.58,1.29-2.19-4.25-2.5.33,2.89-1.15.11L5.8,65.71,9.94,64l.47,1.07-2.7,1.12L12,68.67l1.29-2.19,1,.59L13,69.26Z"/><path class="cls-1" d="M15.85,43.28A2.21,2.21,0,0,0,16,41.52a2.31,2.31,0,0,0-1.17-1.34,2.12,2.12,0,0,0-1.69-.13,2.18,2.18,0,0,0-1.3,1.12A2.55,2.55,0,0,0,12,43.73a8.31,8.31,0,0,1-1-.32l-.74-.26-1-.33a11.63,11.63,0,0,0-2.85-.68H6.3L5.93,43.4l0,.05a7.6,7.6,0,0,0,1.88,2.6,9.65,9.65,0,0,0-2.18-.41,1.41,1.41,0,0,0-1.33.86L4,47.2l.91.47L5,47.39a1,1,0,0,1,1-.59,8.76,8.76,0,0,1,2,.42A12.17,12.17,0,0,1,10.1,48l.41.2.52-1-.55-.28a7.91,7.91,0,0,1-2-1.63A8,8,0,0,1,7.09,43.4,10.26,10.26,0,0,1,9,43.93l1.54.55A12.47,12.47,0,0,0,12,45a3.78,3.78,0,0,0,.88,0,7.61,7.61,0,0,1,1.5,1.88A1.89,1.89,0,0,1,14,48.29l-.23.46.9.46.42-.82a2.44,2.44,0,0,0,.34-1.78,6,6,0,0,0-1.29-1.88A3,3,0,0,0,15.85,43.28ZM15,42.9A2.35,2.35,0,0,1,13.41,44c-.83-.93-1.09-1.73-.75-2.38a1.15,1.15,0,0,1,.72-.61A1.1,1.1,0,0,1,14,41a1.06,1.06,0,0,1,.34.12,1.36,1.36,0,0,1,.72.79A1.22,1.22,0,0,1,15,42.9Z"/><path class="cls-1" d="M20.64,24.9,19,24.2l-.66,2.85-1-.22.92-4,1.63.69.66-2.87,1.62.7.66-2.87,2.7,1.16-.4.95-1.59-.69-.67,2.89L21.29,22Zm5.23-3.3-.66,2.87-1.61-.7-.66,2.88L21.31,26,20.39,30l1,.22L22,27.37l1.63.7.65-2.87,1.62.7L26.59,23l1.59.7.39-1Z"/><path class="cls-1" d="M48.56,14.94l-1.31.35-.06,0a7.75,7.75,0,0,1-1.84-1.73,5.84,5.84,0,0,1-1-1.91l-1.4.37A6,6,0,0,1,43,14.16a7.78,7.78,0,0,1-.72,2.42l0,.06-1.3.35.17-.32a6.09,6.09,0,0,0,.71-4.38l-1.74.47-.25-.91,1.73-.47a6.32,6.32,0,0,0-2.71-3.09l-.29-.19,1.25-.34.06,0a6.85,6.85,0,0,1,2.8,3.28l1.42-.38a6.93,6.93,0,0,1,.78-4.25l0-.06,1.26-.33L46,6.37a6.43,6.43,0,0,0-.79,4l1.73-.46.25.91-1.74.47a6,6,0,0,0,2.81,3.43Z"/><path class="cls-1" d="M55.72,18.34A38.79,38.79,0,1,0,94.5,57.13,38.83,38.83,0,0,0,55.72,18.34Zm0,76.32A37.54,37.54,0,1,1,93.25,57.13,37.58,37.58,0,0,1,55.72,94.66Z"/></g></g></svg>