<svg xmlns="http://www.w3.org/2000/svg" viewBox="0 0 105.31 119.6"><title>Asset 557</title><g id="Layer_2" data-name="Layer 2"><g id="Layer_1-2" data-name="Layer 1"><g id="_Group_" data-name="&lt;Group&gt;"><path d="M80.47,11l-2.9,2.11,1.1,3.41-2.9-2.11-2.9,2.11L74,13.14,71.08,11h3.59l1.1-3.4L76.88,11Zm-3.89,1.79,1.31-1H76.27l-.5-1.53-.5,1.53H73.66l1.31,1-.5,1.54,1.3-.95,1.31.95Z"/></g><path d="M63.25,10.8a2.15,2.15,0,1,1,2.14-2.15A2.15,2.15,0,0,1,63.25,10.8Zm0-3.45a1.31,1.31,0,1,0,1.31,1.3A1.31,1.31,0,0,0,63.25,7.35Z"/><g id="_Group_2" data-name="&lt;Group&gt;"><path d="M58.47,98.73l-3.54,2.58,1.35,4.16-3.54-2.57-3.54,2.57,1.35-4.16L47,98.73h4.37l1.36-4.16,1.35,4.16ZM53.94,101l2-1.42H53.48l-.74-2.29L52,99.57h-2.4L51.53,101l-.74,2.29,2-1.42,1.95,1.42Z"/></g><g id="_Group_3" data-name="&lt;Group&gt;"><path d="M58.47,4.16,54.93,6.74l1.35,4.16L52.74,8.33,49.2,10.9l1.35-4.16L47,4.16h4.37L52.74,0l1.35,4.16ZM53.94,6.42l2-1.42H53.48l-.74-2.29L52,5h-2.4l1.94,1.42-.74,2.29,2-1.42,1.95,1.42Z"/></g><g id="_Group_4" data-name="&lt;Group&gt;"><path d="M105.31,49.25l-3.54,2.58L103.12,56l-3.54-2.57L96,56l1.35-4.16-3.54-2.58h4.38l1.35-4.16,1.35,4.16Zm-4.52,2.26,1.94-1.42h-2.41l-.74-2.29-.74,2.29H96.43l1.95,1.42-.75,2.29,2-1.42,2,1.42Z"/></g><polygon points="86.54 22.66 82.83 22.01 86.54 21.35 87.2 17.64 87.86 21.35 91.57 22.01 87.86 22.66 87.2 26.38 86.54 22.66"/><path d="M82.41,91.54a2.06,2.06,0,1,1,2.06-2.06A2.06,2.06,0,0,1,82.41,91.54Zm0-3.28a1.22,1.22,0,1,0,1.22,1.22A1.22,1.22,0,0,0,82.41,88.26Z"/><g id="_Group_5" data-name="&lt;Group&gt;"><path d="M101,68.94l-2.81.77,1.44,2.53L96.93,71,96.4,73.9l-1.25-2.64-2.24,1.86.73-2.82-2.91,0,2.38-1.69L90.89,66.7l2.9.24-.48-2.87,2.07,2.05,1.48-2.52.27,2.9,2.74-1-1.65,2.39Zm-4.07.25,1.34-.37-1.31-.49.8-1.14-1.32.46-.13-1.39-.7,1.21-1-1,.23,1.37-1.39-.11,1.06.9-1.14.81h1.4l-.36,1.35,1.08-.89.6,1.26.25-1.37,1.27.58Z"/></g><g id="_Group_6" data-name="&lt;Group&gt;"><path d="M100.89,35l-2.81.77,1.43,2.53-2.64-1.21L96.34,40l-1.25-2.63-2.24,1.86.73-2.82-2.91,0,2.38-1.69-2.22-1.89,2.9.24-.48-2.88,2.07,2.05,1.47-2.51.28,2.9,2.74-1L98.15,34Zm-4.07.25,1.34-.37-1.31-.49.8-1.15-1.32.47-.13-1.39-.7,1.2-1-1,.23,1.38-1.39-.11,1.06.9-1.14.81h1.4l-.36,1.35L95.39,36l.6,1.26.25-1.37,1.26.58Z"/></g><polygon points="69.12 96.7 65.66 96.09 69.12 95.48 69.73 92.02 70.34 95.48 73.8 96.09 70.34 96.7 69.73 100.16 69.12 96.7"/><polygon points="17.07 17.14 14.98 16.77 17.07 16.4 17.44 14.31 17.81 16.4 19.9 16.77 17.81 17.14 17.44 19.23 17.07 17.14"/><g id="_Group_7" data-name="&lt;Group&gt;"><path d="M28.43,11l1.11-3.4,1.1,3.4h3.59l-2.9,2.11,1.11,3.41-2.9-2.11-2.9,2.11,1.1-3.41L24.84,11Zm-.2,3.33,1.31-.95,1.3.95-.5-1.54,1.31-1H30l-.5-1.53L29,11.87H27.42l1.31,1Z"/></g><path d="M39.92,8.65a2.14,2.14,0,1,1,2.14,2.15A2.14,2.14,0,0,1,39.92,8.65Zm.83,0a1.31,1.31,0,1,0,1.31-1.3A1.31,1.31,0,0,0,40.75,8.65Z"/><g id="_Group_8" data-name="&lt;Group&gt;"><path d="M4.38,49.25l1.35-4.16,1.35,4.16h4.38L7.92,51.83,9.27,56,5.73,53.42,2.19,56l1.35-4.16L0,49.25Zm-.6,4.55,2-1.42L7.68,53.8l-.75-2.29,2-1.42H6.47L5.73,47.8,5,50.09H2.58l2,1.42Z"/></g><polygon points="16.54 82.68 20.26 82.02 16.54 81.36 15.89 77.65 15.23 81.36 11.52 82.02 15.23 82.68 15.89 86.39 16.54 82.68"/><path d="M20.94,91.54a2.06,2.06,0,1,1,2.06,2A2.06,2.06,0,0,1,20.94,91.54Zm.84,0A1.22,1.22,0,1,0,23,90.32,1.22,1.22,0,0,0,21.78,91.54Z"/><g id="_Group_9" data-name="&lt;Group&gt;"><path d="M7.09,67.92,5.44,65.53l2.74,1,.27-2.9,1.48,2.52L12,64.07l-.48,2.87,2.9-.24L12.2,68.59l2.38,1.69-2.91,0,.73,2.82-2.24-1.86L8.91,73.9,8.38,71,5.73,72.24l1.44-2.53-2.81-.77Zm.65,2.48L9,69.82l.25,1.37.6-1.26,1.08.89-.36-1.35H12l-1.14-.81,1.06-.9-1.39.11.23-1.37-1,1-.7-1.21-.13,1.39L7.6,67.19l.8,1.14-1.31.49,1.34.37Z"/></g><g id="_Group_10" data-name="&lt;Group&gt;"><path d="M7.16,34,5.5,31.58l2.74,1,.28-2.9L10,32.17l2.07-2.05L11.58,33l2.9-.24-2.22,1.89,2.38,1.69-2.91,0,.73,2.82-2.24-1.86L9,40l-.53-2.86L5.8,38.3l1.43-2.53L4.42,35Zm.65,2.48,1.26-.58.25,1.37L9.92,36l1.08.89-.36-1.35H12l-1.14-.81,1.06-.9-1.39.11.24-1.38-1,1-.7-1.2L9,33.71l-1.32-.47.8,1.15-1.31.49,1.34.37Z"/></g><polygon points="36.19 96.7 39.65 96.09 36.19 95.48 35.58 92.02 34.97 95.48 31.51 96.09 34.97 96.7 35.58 100.16 36.19 96.7"/><g id="_Group_11" data-name="&lt;Group&gt;"><path d="M95.72,83.93l.12.71-.67-.25c-2.77-1-6.27-.62-10-.22-4.47.48-9.08,1-13.36-.7-.75.58-1.52,1.14-2.32,1.69-1.68,1.15-7.64,4.32-11.93,4.32a4.58,4.58,0,0,1-4.12-1.85c-2-3-.72-7.41,3.82-13.09,1-1.18,2-2.36,3.07-3.52-1.56-4.21-1.12-8.78-.69-13.21.36-3.73.7-7.26-.3-10l-.24-.68.7.12c.86.14,1.33,1.05,1.67,1.72l.14.28a2.31,2.31,0,0,0,.81.91,5.44,5.44,0,0,1,.64.52,3.34,3.34,0,0,1,.72,1,2.22,2.22,0,0,0,.56.82l.31.27a4.48,4.48,0,0,1,1.25,1.46c.15.28.41.64.65,1s.38.56.55.82a7,7,0,0,1,.61,1.37,8.81,8.81,0,0,0,.39.94,2.56,2.56,0,0,0,.34.5,4,4,0,0,1,.31.38,8.66,8.66,0,0,1,1.41,2.55l.52-.45c10.08-8.59,7.64-20,3.82-28a2.44,2.44,0,0,1-.14-.34h0a.85.85,0,0,0-.34-.63c-1-.74-3.81-.24-6.83.28a44.39,44.39,0,0,1-7.42.88,9.83,9.83,0,0,1-4.65-.94l-.88-.46,1-.3c5.6-1.81,8.56-4,8.55-6.24a3.4,3.4,0,0,0-.38-1.49h0v0c-1.64-3.2-7.73-5.82-8.71-6.13l-1.39-.43,1.41-.37c3.67-1,8.59.07,13.48,2.87,4.44,2.54,8.2,6.19,9.87,9.58a3.33,3.33,0,0,1,.92.43c4.94,3.28,8,8.8,8.85,16A44.65,44.65,0,0,1,85.61,64.8a36.38,36.38,0,0,1-4.39,8.8A8.54,8.54,0,0,1,83.71,75c.17.12.28.22.38.3a1.91,1.91,0,0,0,.5.34,7.14,7.14,0,0,0,.94.39,7.11,7.11,0,0,1,1.37.62c.26.16.55.36.82.55s.71.49,1,.65a4.26,4.26,0,0,1,1.46,1.25l.27.31a2.35,2.35,0,0,0,.82.56,3.44,3.44,0,0,1,1,.71,6.39,6.39,0,0,1,.51.64,2.23,2.23,0,0,0,.91.81l.28.15C94.67,82.61,95.58,83.07,95.72,83.93ZM94,83.19,93.62,83l-.3-.15a3.1,3.1,0,0,1-1.19-1.06c-.06-.09-.14-.19-.22-.29v0c-3.25-2.4-6-2.74-10-3-1-.06-2.69-.24-4.16-.47-.84.92-1.72,1.82-2.66,2.69a39.82,39.82,0,0,0,6.09,0c4.3-.19,8.75-.38,11.78,2.26C93.29,83.07,93.63,83.13,94,83.19Zm-8.86.14a49.78,49.78,0,0,1,6.27-.41c-2.71-1.64-6.36-1.48-10.19-1.31a36.23,36.23,0,0,1-6.93-.14c-.53.47-1.09.94-1.65,1.39C76.57,84.25,80.91,83.79,85.11,83.33Zm3.64-4.48a4.62,4.62,0,0,0-.43-.28c-.33-.18-.71-.44-1.08-.69s-.54-.38-.78-.53a6.3,6.3,0,0,0-1.22-.54,8.71,8.71,0,0,1-1-.43,3,3,0,0,1-.66-.45l-.35-.28a7.73,7.73,0,0,0-2.48-1.33c-.72,1-1.5,2-2.33,3,1.31.19,2.68.33,3.55.39A23.17,23.17,0,0,1,88.75,78.85ZM84.82,64.53A43.88,43.88,0,0,0,87,46.09c-.82-6.93-3.75-12.25-8.48-15.38a2.34,2.34,0,0,0-1.31-.42,2,2,0,0,0-.91.22,24.9,24.9,0,0,1,5,6.49l-.73.41A24,24,0,0,0,75.58,31l-.18.25A1.74,1.74,0,0,0,75.28,33c7.16,15,1.76,24.07-4,29a133.06,133.06,0,0,0-9.92,9.23h0c-.47.49-.92,1-1.36,1.48,3.42-.16,6.14.74,7.91,2.64s2.57,4.84,2.18,8.42a44.54,44.54,0,0,0,7.34-6.6h0A36.72,36.72,0,0,0,84.82,64.53ZM76.33,29.58a2.62,2.62,0,0,1,.68-.12c-1.7-3.11-5.18-6.4-9.28-8.74s-8.19-3.41-11.47-3c2.16,1,6,3.06,7.62,5.64C67.47,23.77,73.39,25.19,76.33,29.58Zm-1.25.76a2.68,2.68,0,0,1,.49-.4c-2.65-3.83-7.8-5.21-11.24-5.71a4,4,0,0,1,.27,1.36,4.11,4.11,0,0,1-1.13,2.73C68.49,27.4,73.27,28.72,75.08,30.34Zm-.72,1.24a2.72,2.72,0,0,1,.22-.56c-1.53-1.43-6.74-3.09-12.37-1.55a21.47,21.47,0,0,1-5.69,2.8c2.84.9,6.91.19,10.54-.44C70.38,31.25,73,30.79,74.36,31.58ZM69.13,84.41c.55-3.68-.09-6.62-1.86-8.51s-4.53-2.66-8.09-2.32c-.43.49-.84,1-1.23,1.48-4.29,5.37-5.56,9.44-3.79,12.11a3.84,3.84,0,0,0,3.43,1.47c4.09,0,9.83-3.06,11.46-4.18Zm.37-22a7.77,7.77,0,0,0-1.38-2.63l-.28-.35a2.68,2.68,0,0,1-.45-.66,8.71,8.71,0,0,1-.43-1,6.34,6.34,0,0,0-.55-1.22c-.15-.25-.34-.52-.52-.78a10.07,10.07,0,0,1-.69-1.08,4.62,4.62,0,0,0-.28-.43A23.51,23.51,0,0,1,66.09,61c.07,1,.23,2.56.45,4C67.57,64.06,68.57,63.19,69.5,62.38Zm-3.69,3.28c-.28-1.56-.48-3.48-.56-4.6-.27-4.06-.61-6.75-3-10h0l-.3-.22a3.18,3.18,0,0,1-1.06-1.19l-.15-.3a2.79,2.79,0,0,0-.18-.34c.07.33.13.68.17,1,2.64,3,2.45,7.53,2.26,11.89a38.3,38.3,0,0,0,.06,6.35C64,67.36,64.9,66.49,65.81,65.66Zm-3.65-3.79c.17-3.87.33-7.55-1.3-10.27a49.57,49.57,0,0,1-.36,6.29c-.4,4.19-.82,8.51.51,12.44.43-.45.87-.9,1.32-1.34A35,35,0,0,1,62.16,61.87Z"/><path d="M73,77l-.83.12a7.05,7.05,0,0,0-5.66-6.41l.18-.81A7.81,7.81,0,0,1,73,77Z"/><path d="M66.3,83.76l-.13.83a5.15,5.15,0,0,0-.94-.06s0,0,0,0a1,1,0,0,1-1.78.71.14.14,0,0,1,0-.06,1.49,1.49,0,0,0-.28.53l-.8-.23C62.85,83.83,64.79,83.52,66.3,83.76Z"/><path d="M57.94,77.93a1,1,0,1,1-1.06.55A.87.87,0,0,1,57.94,77.93Z"/><path d="M57.56,87.11a.43.43,0,1,1,0,.85.43.43,0,0,1,0-.85Z"/><path d="M54.77,84.91a.43.43,0,0,1,.43.43.43.43,0,0,1-.85,0A.43.43,0,0,1,54.77,84.91Z"/></g><g id="_Group_12" data-name="&lt;Group&gt;"><g id="_Group_13" data-name="&lt;Group&gt;"><path d="M51.38,88.75,50,89.12a11.18,11.18,0,0,1-2.9.36,22,22,0,0,1-10.58-3.23c-4.44-2.54-8.2-6.19-9.87-9.58a3.33,3.33,0,0,1-.92-.43c-4.94-3.27-8-8.8-8.85-16A44.81,44.81,0,0,1,19,41.45a36.75,36.75,0,0,1,4.39-8.8,8.54,8.54,0,0,1-2.49-1.39c-.17-.12-.28-.22-.38-.3a1.91,1.91,0,0,0-.5-.34,7.14,7.14,0,0,0-.94-.39,7.11,7.11,0,0,1-1.37-.62c-.26-.16-.55-.36-.82-.55s-.71-.49-1-.64a4.39,4.39,0,0,1-1.46-1.26l-.27-.31a2.4,2.4,0,0,0-.81-.56,3.22,3.22,0,0,1-1-.71,5.44,5.44,0,0,1-.52-.64,2.17,2.17,0,0,0-.91-.81L10.64,24c-.67-.34-1.57-.8-1.72-1.66l-.12-.71.68.25c2.76,1,6.26.62,10,.22,4.47-.48,9.09-1,13.36.7.75-.58,1.52-1.14,2.32-1.69,1.68-1.15,7.65-4.32,11.93-4.32a4.61,4.61,0,0,1,4.13,1.85c2,3,.71,7.41-3.83,13.09-.94,1.18-2,2.36-3.07,3.52C45.84,39.44,45.4,44,45,48.44c-.36,3.73-.7,7.26.3,10l.24.68-.7-.12C44,58.88,43.48,58,43.15,57.3L43,57a2.23,2.23,0,0,0-.81-.91,6.39,6.39,0,0,1-.64-.51,3.69,3.69,0,0,1-.72-1,2.22,2.22,0,0,0-.56-.82L40,53.47A4.48,4.48,0,0,1,38.71,52a10.3,10.3,0,0,0-.65-1c-.19-.27-.38-.56-.54-.82a6.55,6.55,0,0,1-.62-1.37,7.14,7.14,0,0,0-.39-.94,2.18,2.18,0,0,0-.34-.5c-.08-.09-.18-.21-.31-.38a8.66,8.66,0,0,1-1.41-2.55l-.52.45c-10.08,8.59-7.64,20-3.82,28a3.07,3.07,0,0,1,.14.34h0a.64.64,0,0,0,0,.2h0a.77.77,0,0,0,.3.43c1,.74,3.81.24,6.83-.28,4.23-.74,9-1.57,12.07.06l.88.46-.94.3c-5.61,1.81-8.57,4-8.56,6.24a3.41,3.41,0,0,0,.39,1.49h0v0C42.92,85.39,49,88,50,88.32ZM46.69,31.19c4.29-5.37,5.56-9.44,3.79-12.11a3.83,3.83,0,0,0-3.43-1.47c-4.08,0-9.83,3.06-11.46,4.18l-.08.05c-.55,3.68.09,6.62,1.86,8.51S41.9,33,45.46,32.67C45.89,32.18,46.3,31.68,46.69,31.19ZM36.91,85.53c4.1,2.34,8.19,3.41,11.47,3-2.16-1-6-3.06-7.62-5.64-3.59-.45-9.51-1.87-12.45-6.26a2.62,2.62,0,0,1-.68.12C29.33,79.9,32.81,83.19,36.91,85.53Zm5.52-8.75A21.47,21.47,0,0,1,48.12,74c-2.84-.9-6.9-.19-10.54.44-3.32.58-6,1-7.3.25a2.49,2.49,0,0,1-.22.57C31.59,76.66,36.8,78.32,42.43,76.78Zm2.25-43.21-.75,0a9.44,9.44,0,0,1-7.17-2.67c-1.83-2-2.57-4.84-2.18-8.42a44.54,44.54,0,0,0-7.34,6.6v0h0a36.69,36.69,0,0,0-7.4,12.61,43.89,43.89,0,0,0-2.15,18.44c.82,6.93,3.75,12.25,8.48,15.38a2.34,2.34,0,0,0,1.31.42,2,2,0,0,0,.91-.22,24.74,24.74,0,0,1-5-6.49l.73-.41a24,24,0,0,0,4.94,6.39,2.27,2.27,0,0,0,.18-.25,1.74,1.74,0,0,0,.12-1.71c-7.15-15-1.76-24.07,4-29A133.06,133.06,0,0,0,43.31,35h0Zm-.54,14.79c.4-4.19.82-8.51-.5-12.44l-1.32,1.34a35,35,0,0,1,.16,7.12c-.17,3.87-.32,7.55,1.3,10.27A49.57,49.57,0,0,1,44.14,48.36Zm-.25,8.56.18.34c-.07-.34-.13-.68-.17-1-2.64-3-2.44-7.53-2.26-11.89A38.3,38.3,0,0,0,41.58,38c-.92.9-1.84,1.77-2.74,2.6.27,1.57.47,3.48.55,4.6.27,4.06.61,6.76,3,10h0l.29.22a3.1,3.1,0,0,1,1.06,1.19ZM40.05,80.66a4,4,0,0,1,1.13-2.73,19.71,19.71,0,0,1-3.37.3c-3.68,0-6.85-1.07-8.25-2.31a3.11,3.11,0,0,1-.49.39c2.65,3.83,7.8,5.21,11.24,5.71A3.77,3.77,0,0,1,40.05,80.66Zm-.6-29a3.22,3.22,0,0,0,.27.43,23.51,23.51,0,0,1-1.17-6.81c-.06-1-.23-2.56-.45-4-1,.93-2,1.8-3,2.61a7.57,7.57,0,0,0,1.37,2.63c.12.16.21.26.29.35a2.68,2.68,0,0,1,.44.66,7.3,7.3,0,0,1,.43,1,6.34,6.34,0,0,0,.55,1.22c.15.25.34.52.52.78A12.15,12.15,0,0,1,39.45,51.62ZM30.38,24.78c.54-.47,1.09-.94,1.65-1.39-4-1.39-8.3-.93-12.5-.47a49.66,49.66,0,0,1-6.27.41C16,25,19.62,24.81,23.45,24.64A36.21,36.21,0,0,1,30.38,24.78Zm-3.47,3.43c.84-.92,1.72-1.82,2.66-2.69a39.69,39.69,0,0,0-6.08,0c-4.31.19-8.76.38-11.79-2.26-.35,0-.69-.1-1-.16l.35.18.3.15a3.1,3.1,0,0,1,1.19,1.06l.22.29v0c3.26,2.4,6,2.74,10,3C23.77,27.8,25.44,28,26.91,28.21Zm-.66.75c-1.3-.19-2.68-.33-3.55-.39a23.17,23.17,0,0,1-6.81-1.17,2.81,2.81,0,0,0,.44.28c.32.18.7.44,1.07.69s.54.38.78.53a6.58,6.58,0,0,0,1.22.54,8.83,8.83,0,0,1,1,.43,3.14,3.14,0,0,1,.65.45l.35.28a7.73,7.73,0,0,0,2.48,1.33C24.64,30.92,25.42,29.92,26.25,29Z"/><path d="M41.47,20.51l.81.23a2.87,2.87,0,0,1-3,1.82,5.29,5.29,0,0,1-.9-.07l.13-.82C38.73,21.71,41,22,41.47,20.51Z"/><path d="M38.16,35.5l-.19.81a7.83,7.83,0,0,1-6.31-7.1l.83-.12A7,7,0,0,0,38.16,35.5Z"/></g></g><path d="M41.18,21a1,1,0,0,1-1.78.71c-.15-.37.13-.82.62-1A.88.88,0,0,1,41.18,21Z"/><path d="M45.82,29.32c-.13-1.53.32-3.44,2-3.81l.18.82c-1.55.33-1.39,2.65-1.37,2.91Z"/><path d="M47.53,26.6a1,1,0,1,0,.23,1.17A.86.86,0,0,0,47.53,26.6Z"/><path d="M32.55,35.6a.27.27,0,1,1,.27-.27A.27.27,0,0,1,32.55,35.6Z"/><path d="M30.83,37.4a.48.48,0,1,1,.48-.48A.48.48,0,0,1,30.83,37.4Z"/><path d="M29.2,39.25a.64.64,0,0,1-.64-.64A.64.64,0,0,1,29.2,38a.64.64,0,1,1,0,1.28Z"/><path d="M27.68,41.17a.78.78,0,1,1,0-1.55.78.78,0,0,1,0,1.55Z"/><path d="M26.28,43.14a.87.87,0,1,1,.87-.87A.87.87,0,0,1,26.28,43.14Z"/><path d="M25,45.19a.94.94,0,1,1,.94-.94A.94.94,0,0,1,25,45.19Z"/><path d="M23.9,47.29a1,1,0,1,1,1-1A1,1,0,0,1,23.9,47.29Z"/><path d="M23,49.46a1,1,0,1,1,1-1A1,1,0,0,1,23,49.46Z"/><path d="M22.21,51.68a1,1,0,1,1,1-1A1,1,0,0,1,22.21,51.68Z"/><path d="M21.66,53.93a1,1,0,1,1,1-1A1,1,0,0,1,21.66,53.93Z"/><path d="M21.32,56.19a.92.92,0,1,1,.91-.91A.92.92,0,0,1,21.32,56.19Z"/><path d="M21.19,58.45a.83.83,0,1,1,.83-.83A.83.83,0,0,1,21.19,58.45Z"/><path d="M21.27,60.68a.72.72,0,0,1,0-1.44.72.72,0,1,1,0,1.44Z"/><path d="M21.56,62.86a.57.57,0,0,1-.57-.57.56.56,0,0,1,.57-.57.57.57,0,0,1,.57.57A.58.58,0,0,1,21.56,62.86Z"/><path d="M22,65a.39.39,0,1,1,.39-.39A.39.39,0,0,1,22,65Z"/><path d="M22.72,67a.15.15,0,0,1-.15-.15.15.15,0,1,1,.3,0A.15.15,0,0,1,22.72,67Z"/><path d="M47.51,18.72a.43.43,0,1,1-.43-.43A.42.42,0,0,1,47.51,18.72Z"/><path d="M50.29,20.91a.43.43,0,1,1-.42-.42A.42.42,0,0,1,50.29,20.91Z"/><path d="M56.79,80.74l-.18-.82C58.16,79.59,58,77.27,58,77l.84-.07C59,78.46,58.5,80.37,56.79,80.74Z"/><path d="M72.09,71.19a.27.27,0,1,1,.27-.27A.27.27,0,0,1,72.09,71.19Z"/><path d="M73.81,69.81a.49.49,0,0,1-.48-.48.48.48,0,0,1,.48-.48.47.47,0,0,1,.48.48A.48.48,0,0,1,73.81,69.81Z"/><path d="M75.44,68.28a.64.64,0,0,1-.64-.64.64.64,0,1,1,.64.64Z"/><path d="M77,66.63a.78.78,0,1,1,.78-.77A.78.78,0,0,1,77,66.63Z"/><path d="M78.37,64.85a.87.87,0,1,1,.87-.87A.87.87,0,0,1,78.37,64.85Z"/><path d="M79.63,62.94a.94.94,0,1,1,.94-.94A.94.94,0,0,1,79.63,62.94Z"/><path d="M80.74,60.92a1,1,0,1,1,1-1A1,1,0,0,1,80.74,60.92Z"/><path d="M81.68,58.79a1,1,0,1,1,1-1A1,1,0,0,1,81.68,58.79Z"/><path d="M82.43,56.57a1,1,0,1,1,1-1A1,1,0,0,1,82.43,56.57Z"/><path d="M83,54.26a1,1,0,1,1,1-1A1,1,0,0,1,83,54.26Z"/><path d="M83.32,51.89a.92.92,0,1,1,.92-.92A.92.92,0,0,1,83.32,51.89Z"/><path d="M83.45,49.46a.83.83,0,1,1,.83-.83A.83.83,0,0,1,83.45,49.46Z"/><path d="M83.37,47a.72.72,0,1,1,.72-.72A.71.71,0,0,1,83.37,47Z"/><path d="M83.08,44.53a.57.57,0,0,1-.57-.57.58.58,0,1,1,.57.57Z"/><path d="M82.6,42.06a.39.39,0,1,1,.38-.39A.39.39,0,0,1,82.6,42.06Z"/><path d="M81.92,39.58a.15.15,0,0,1-.15-.15.15.15,0,1,1,.3,0A.15.15,0,0,1,81.92,39.58Z"/><path d="M52.4,52.62c-2.74,0-5.06-2.59-5.06-5.65h.84c0,2.61,1.93,4.81,4.22,4.81s4.22-2.2,4.22-4.81h.83C57.45,50,55.14,52.62,52.4,52.62Z"/><rect x="51.98" y="46.97" width="0.84" height="12.88"/><rect x="50.21" y="55.21" width="4.37" height="0.84"/><path d="M34.27,111.54h2.22a4.12,4.12,0,0,1,1.09.13,2.2,2.2,0,0,1,.83.39,1.62,1.62,0,0,1,.54.65,2.06,2.06,0,0,1,.19.93,2.12,2.12,0,0,1-.19.93,1.73,1.73,0,0,1-.55.65,2.34,2.34,0,0,1-.84.4,4.67,4.67,0,0,1-1.1.13H35.07v3.65h-.8Zm.8,3.53h1.35a2.3,2.3,0,0,0,1.43-.37,1.23,1.23,0,0,0,.49-1.06,1.2,1.2,0,0,0-.5-1.07,2.51,2.51,0,0,0-1.42-.34H35.07Z"/><path d="M41.51,119.4h-.8v-7.86h.8Z"/><path d="M47.4,112.81a1.92,1.92,0,0,0-.65-.58,2.19,2.19,0,0,0-1.56-.12,1.52,1.52,0,0,0-.54.27,1.35,1.35,0,0,0-.39.46,1.33,1.33,0,0,0-.15.65,1.2,1.2,0,0,0,.14.63,1.35,1.35,0,0,0,.38.41,2.2,2.2,0,0,0,.55.29l.63.22c.28.09.55.18.83.29a3.09,3.09,0,0,1,.74.4,2,2,0,0,1,.55.63,2,2,0,0,1,.21,1,2.14,2.14,0,0,1-.81,1.72,2.53,2.53,0,0,1-.82.41,3.31,3.31,0,0,1-.93.13,3.49,3.49,0,0,1-.71-.07,3.09,3.09,0,0,1-.67-.22,2.28,2.28,0,0,1-.6-.36,2.63,2.63,0,0,1-.49-.51l.69-.51a2.07,2.07,0,0,0,.71.7,2,2,0,0,0,1.08.28,2.27,2.27,0,0,0,.62-.09,1.76,1.76,0,0,0,.56-.29,1.74,1.74,0,0,0,.41-.48,1.48,1.48,0,0,0,0-1.34,1.57,1.57,0,0,0-.43-.46,2.67,2.67,0,0,0-.61-.3l-.72-.25c-.26-.08-.52-.17-.77-.27A2.74,2.74,0,0,1,44,115a1.85,1.85,0,0,1-.48-.62,2.29,2.29,0,0,1,0-1.87,2.08,2.08,0,0,1,.6-.68,2.34,2.34,0,0,1,.81-.39,3.39,3.39,0,0,1,.88-.12,3,3,0,0,1,1.36.28,2.43,2.43,0,0,1,.86.67Z"/><path d="M56.48,118.13a3.11,3.11,0,0,1-.48.56,2.91,2.91,0,0,1-.66.47,3.11,3.11,0,0,1-.82.32,3.81,3.81,0,0,1-1,.12,4.25,4.25,0,0,1-1.65-.31,4,4,0,0,1-1.3-.86,4.12,4.12,0,0,1-.85-1.3,4.49,4.49,0,0,1-.3-1.66,4.22,4.22,0,0,1,.31-1.65,3.93,3.93,0,0,1,.86-1.31,4,4,0,0,1,1.3-.86,4.15,4.15,0,0,1,1.63-.31,4.09,4.09,0,0,1,.85.09,4.17,4.17,0,0,1,.78.25,3.21,3.21,0,0,1,.67.4,2.41,2.41,0,0,1,.5.51l-.67.49a1.83,1.83,0,0,0-.33-.37,2.43,2.43,0,0,0-.48-.34,3.67,3.67,0,0,0-.61-.23,2.63,2.63,0,0,0-.7-.09,3.17,3.17,0,0,0-1.37.28,3,3,0,0,0-1,.74,3.43,3.43,0,0,0-.65,1.09,4.09,4.09,0,0,0-.22,1.31,3.84,3.84,0,0,0,.23,1.31,3.43,3.43,0,0,0,.65,1.09,3.15,3.15,0,0,0,1,.75,3.27,3.27,0,0,0,1.36.27,3,3,0,0,0,1.29-.28,2.51,2.51,0,0,0,1-.88Z"/><path d="M58.66,118.69h4.21v.71h-5v-7.86h4.87v.71H58.66V115h3.81v.71H58.66Z"/><path d="M68.24,112.81a2,2,0,0,0-.65-.58,2.19,2.19,0,0,0-1.56-.12,1.52,1.52,0,0,0-.54.27,1.27,1.27,0,0,0-.4.46,1.33,1.33,0,0,0-.15.65,1.2,1.2,0,0,0,.15.63,1.24,1.24,0,0,0,.38.41,2.32,2.32,0,0,0,.54.29l.64.22c.27.09.55.18.82.29a3,3,0,0,1,.75.4,2.06,2.06,0,0,1,.54.63,2,2,0,0,1,.21,1,2.09,2.09,0,0,1-.8,1.72,2.63,2.63,0,0,1-.82.41,3.31,3.31,0,0,1-.93.13,3.42,3.42,0,0,1-.71-.07,3.18,3.18,0,0,1-.68-.22,2.65,2.65,0,0,1-.6-.36,3,3,0,0,1-.49-.51l.69-.51a2.1,2.1,0,0,0,.72.7,2,2,0,0,0,1.08.28,2.2,2.2,0,0,0,.61-.09,1.57,1.57,0,0,0,.56-.29,1.46,1.46,0,0,0,.41-.48,1.48,1.48,0,0,0,0-1.34,1.53,1.53,0,0,0-.42-.46A2.89,2.89,0,0,0,67,116l-.73-.25c-.26-.08-.51-.17-.76-.27a2.74,2.74,0,0,1-.68-.41,1.85,1.85,0,0,1-.48-.62,1.87,1.87,0,0,1-.19-.9,2,2,0,0,1,.23-1,2,2,0,0,1,.59-.68,2.48,2.48,0,0,1,.82-.39,3.26,3.26,0,0,1,.87-.12,3,3,0,0,1,1.37.28,2.39,2.39,0,0,1,.85.67Z"/></g></g></svg>