<svg xmlns="http://www.w3.org/2000/svg" viewBox="0 0 34.48 55.7"><title>Asset 505</title><g id="Layer_2" data-name="Layer 2"><g id="Layer_1-2" data-name="Layer 1"><path d="M33.79,54a4.82,4.82,0,0,1-1.5-1.19c-1.46-1.51-2.93-3-4.37-4.54-.7-.74-1.35-1.54-2-2.29a51,51,0,0,1-4.68-5.78,16.23,16.23,0,0,1-1.75-3.42c-.41-1.13-.76-2.27-1.09-3.42A9.11,9.11,0,0,1,18,31.06c0-1.06,0-2.11,0-3.16a13.2,13.2,0,0,1,.53-4.59,1.09,1.09,0,0,0,.05-.26,9.35,9.35,0,0,1,.55-2.38,30.17,30.17,0,0,1,1.77-4.38,22.72,22.72,0,0,1,1.2-2.23c1-1.61,2-3.21,3.11-4.78a31,31,0,0,1,2.68-3.56C29.07,4.39,30.48,3.23,31.8,2a10,10,0,0,0,.77-.82c.19-.21.12-.44-.09-.68C32,.43,31.54.37,31.06.28A13.25,13.25,0,0,0,27.14.06c-1,.1-2,.25-2.95.41a24.55,24.55,0,0,0-6.43,2c-1,.46-1.94,1-2.88,1.49A26.3,26.3,0,0,0,7.45,9.71c-.47.56-1,1.1-1.44,1.66a11.73,11.73,0,0,0-1,1.29c-.71,1.14-1.37,2.31-2,3.48-.16.27-.3.57-.46.84a13.53,13.53,0,0,0-1.6,3.78,31,31,0,0,0-.81,5,26.77,26.77,0,0,0,1.13,9.42c.29,1,.72,2,1.06,3.07a16,16,0,0,0,2.1,4.12,2.63,2.63,0,0,1,.45.84,1.87,1.87,0,0,0,.41.76A36.29,36.29,0,0,0,8,47.13c.34.36.68.72,1.05,1a33.43,33.43,0,0,0,6.8,4.47l.39.19c.5.23,1,.44,1.5.71A13.59,13.59,0,0,0,21,54.81c1.14.29,2.29.44,3.45.62a20.76,20.76,0,0,0,8-.24c.65-.15,1.29-.32,2-.5A1.29,1.29,0,0,0,33.79,54Zm-1.58-53-.55.61a2.55,2.55,0,0,1-.49,0,31.31,31.31,0,0,0-4.11-.14c-1.23,0-2.45-.1-3.68-.16a.9.9,0,0,1-.24-.07C25,.37,29.88.22,32.21,1.05Zm-11.37.73a1.18,1.18,0,0,1,.42,0l2.28,0c1.05,0,2.1,0,3.15,0l2.18,0A5.69,5.69,0,0,1,31,2c-.21.63-.47.86-1,.89-.29,0-.58,0-.87,0-1.87.1-3.73,0-5.6-.08-1.43,0-2.86,0-4.29,0l-.49,0,0-.18C19.41,2.28,20.12,2,20.84,1.78Zm-3,1.15a2,2,0,0,0,1.15.2c1.81,0,3.62,0,5.43,0,1.16,0,2.32.11,3.49.15.55,0,1.1,0,1.73,0-.06.18-.07.3-.13.36-.49.5-1,1-1.51,1.48L21.25,5C19,5,16.77,5,14.52,4.79A15.62,15.62,0,0,1,17.83,2.93ZM11.23,6.8c.71-.52,1.42-1,2.13-1.52l14.1.13a8.8,8.8,0,0,1-1.25,1.72c-5.09.31-10.15.25-15.2.13C10.9,7,11.11,6.89,11.23,6.8ZM9,8.64a6.91,6.91,0,0,1,1.06-.91c.38-.23.86-.05,1.29-.05,1.93,0,3.86.08,5.79.09,1.45,0,2.91-.07,4.37-.11l3.42-.1c.26,0,.51,0,.94,0-.35.52-.61.91-.88,1.29a.79.79,0,0,1-.7.28c-.47,0-.93,0-1.4,0-2.25-.11-4.49,0-6.74.08-1.25,0-2.51-.06-3.76-.09L9.68,9.08H8.94A.3.3,0,0,1,9,8.64Zm-.85.88a.69.69,0,0,1,.4-.11l3.24,0c.58,0,1.17,0,1.75,0,.78,0,1.57.13,2.35.14,1,0,2.1,0,3.15-.08a17.79,17.79,0,0,1,2.19,0c.81,0,1.63,0,2.45.06.22,0,.45.05.69.08,0,.47-.32.72-.55,1.06H18.16a3.31,3.31,0,0,1-.44,0,45.37,45.37,0,0,0-4.81-.11l-4.55-.06a1,1,0,0,1-.76-.19A1.5,1.5,0,0,1,8.16,9.52ZM6.9,10.92a.54.54,0,0,1,.39-.13c1.9,0,3.79,0,5.69.06l3.84.05c.79,0,1.57,0,2.36.06l4.26.07a1.49,1.49,0,0,1-.08.42,6.86,6.86,0,0,1-.46.64.6.6,0,0,1-.54.23l-4.46,0-7.81,0c-1.05,0-2.1,0-3.15-.08-.29,0-.58,0-1-.06A3.26,3.26,0,0,1,6.9,10.92Zm-1.77,2.3a.92.92,0,0,1,1-.55c3.58.05,7.17.16,10.76,0,1.31,0,2.62-.05,3.94-.05.49,0,1,.07,1.5.11a2,2,0,0,1-.61,1.09.5.5,0,0,1-.32.11,9.21,9.21,0,0,1-1.05,0c-1.11,0-2.21-.1-3.32-.13-1.58,0-3.15-.06-4.73-.07l-6.47,0A1,1,0,0,1,5,13.55Zm-.91,1.51a7,7,0,0,1,.39-.6c1,0,1.92,0,2.85,0s1.8-.1,2.7,0,1.87,0,2.8.05,1.87,0,2.81,0,1.8.09,2.71.15,1.85,0,2.81.09c0,.49-.36.77-.51,1.19a7.39,7.39,0,0,1-2.07.14c-1.35,0-2.69-.13-4-.2-.93,0-1.87-.13-2.8-.12-1.72,0-3.44-.06-5.16-.12-.44,0-.88,0-1.32,0l-1.28-.06A1.58,1.58,0,0,1,4.22,14.73ZM3.05,16.86c.08-.22.21-.42.29-.64.19-.52.53-.65,1.08-.62,2,.09,4,.1,6,.14,1.11,0,2.22,0,3.32,0s2,.19,3.05.26c.76,0,1.52,0,2.28.06h1.41a4.2,4.2,0,0,1-.61,1.42c-5.61-.06-11.2,0-16.86-.21A2.18,2.18,0,0,1,3.05,16.86ZM2.5,18a.59.59,0,0,1,.35-.22,2.44,2.44,0,0,1,.61,0c.67,0,1.34,0,2,0,2.72.14,5.43.07,8.15.05.9,0,1.8,0,2.7.05a21.7,21.7,0,0,0,2.28,0l1,0A1.89,1.89,0,0,1,19.18,19c-5.62,0-11.25.11-16.94-.05A1.44,1.44,0,0,1,2.5,18ZM1.92,19.5a4.54,4.54,0,0,1,1.61-.1l8.32.06c1.43,0,2.86-.07,4.3-.08.81,0,1.63,0,2.45.08a1.3,1.3,0,0,1,.36.11,3.48,3.48,0,0,1-.3,1.19,2.17,2.17,0,0,1-1,.11c-1.19,0-2.39-.11-3.59-.13-1.92,0-3.85,0-5.78,0-.67,0-1.34,0-2,0-1.17,0-2.34.09-3.51.11a2.1,2.1,0,0,1-1.31-.19A1.52,1.52,0,0,1,1.92,19.5ZM1,22.06c.06-.25.15-.5.22-.74a2.09,2.09,0,0,1,1-.19c1.34,0,2.68-.07,4-.09,1.1,0,2.21,0,3.32,0l2.53,0c1.55,0,3.09,0,4.64.14.31,0,.64,0,1,0a5,5,0,0,1,.7.13,3.22,3.22,0,0,1-.26,1.25,3.46,3.46,0,0,1-.77.1,22.48,22.48,0,0,0-3.67,0C10,22.9,6.38,23,2.73,23a6.54,6.54,0,0,1-1.86-.13C.92,22.57,1,22.31,1,22.06Zm-.19,1.2a4.42,4.42,0,0,0,1.65.13l8-.16c1.31,0,2.62-.08,3.93-.14.41,0,.81-.12,1.21-.14a8,8,0,0,1,2.28.19c.27.33.1.64-.07.94a15.31,15.31,0,0,1-4.27.19,59,59,0,0,0-5.95.12c-1.57.08-3.15.13-4.72.2-.44,0-.88.05-1.31.07a1.26,1.26,0,0,1-.87-.1A2.06,2.06,0,0,1,.82,23.26Zm-.29,2A3.54,3.54,0,0,1,1.84,25c1,0,2,0,3-.08,1.72-.08,3.43-.21,5.15-.28,1,0,2,0,3,0h4.69a2.32,2.32,0,0,1,0,1,1.42,1.42,0,0,1-.91.24c-2.27.11-4.54.23-6.82.32-.64,0-1.28,0-1.92,0-1,0-2.1,0-3.15.06-1.25.05-2.5.14-3.75.21a4.6,4.6,0,0,1-.63-.06C.47,25.93.5,25.58.53,25.23ZM.45,27A3.48,3.48,0,0,1,2,26.73c1.63-.09,3.26-.17,4.9-.22,1.43,0,2.86,0,4.28-.07.91,0,1.81-.1,2.72-.14,1.16-.05,2.33-.11,3.54-.07a3,3,0,0,1,.11.52c0,.32-.05.63-.09,1a2.58,2.58,0,0,1-.54,0,23.65,23.65,0,0,0-3.15,0c-1.4.07-2.81.09-4.21.08s-2.86,0-4.29.1-2.81.07-4.21.1A5,5,0,0,1,.45,28Zm.07,1.66a4.49,4.49,0,0,1,1.71-.2c2.1-.1,4.2-.15,6.3-.21.67,0,1.35,0,2,0,1.63,0,3.26-.12,4.9-.15.64,0,1.27.08,1.95.13a2.94,2.94,0,0,1,.1.52.33.33,0,0,1-.32.35H17c-2.25.06-4.5.13-6.75.15-1.77,0-3.55,0-5.33,0-1,0-1.93,0-2.89,0-.41,0-.82,0-1.22,0S.53,29.1.52,28.65Zm.17,1c.26,0,.55-.07.83-.08l5.7-.06c.82,0,1.64.08,2.45.07l6.66-.11a9.77,9.77,0,0,1,1.06.11,1.5,1.5,0,0,1,.06,1.12,1.59,1.59,0,0,1-.93.15c-1.79,0-3.57,0-5.35,0S7.78,31,6.08,31c-1.52,0-3,0-4.55,0C1.27,31,1,31,.79,30.94A1.52,1.52,0,0,1,.69,29.66Zm.43,3.59c-.13-.53-.27-1-.36-1.48A.39.39,0,0,1,1,31.44a3.55,3.55,0,0,1,.86-.1L7,31.3l3.93-.06,5.78,0c.23,0,.46,0,.75.05.07.26.14.51.19.76s.09.51.13.73A1,1,0,0,1,17,33c-3.09.07-6.18.21-9.28.14-1.81,0-3.62,0-5.43.11C1.92,33.28,1.54,33.25,1.12,33.25Zm.2.61c.19-.26.45-.22.67-.23,1,0,2-.1,3-.11,1.81,0,3.62,0,5.43,0,.84,0,1.69,0,2.54-.06l4.73-.13a1.57,1.57,0,0,1,.23.06,1.33,1.33,0,0,1,.23.89,17.07,17.07,0,0,1-2.86.24c-1.75,0-3.51-.05-5.25.08-2.63.19-5.26,0-7.89.12a5.6,5.6,0,0,1-.59-.07A1,1,0,0,1,1.32,33.86Zm.77,2.72-.55-1.3a1.65,1.65,0,0,1,.51-.18c1,0,2-.05,3,0a46,46,0,0,0,5.25-.16c.7-.07,1.4,0,2.1,0,1.75,0,3.51,0,5.25-.13.2,0,.41,0,.6,0,.27.21.28.52.37.79s.15.49.27.88c-.68,0-1.23.05-1.78.05-2.37,0-4.73,0-7.1,0-1,0-2,0-3.06.11-1.52.12-3,.1-4.55.07A1.25,1.25,0,0,1,2.09,36.58Zm.6,1.73c-.09-.25-.2-.49-.28-.74s0-.51.38-.55.64,0,1,0a39.09,39.09,0,0,0,4.46-.14,19.48,19.48,0,0,1,3.15-.11c1.51.1,3,0,4.55.05.81,0,1.63,0,2.45,0l.67,0,.58,1.4a1,1,0,0,1-.75.28c-.73.05-1.46.09-2.19.1-1.43,0-2.86,0-4.29.05L8,38.67c-.38,0-.76,0-1.14,0l-3.59,0A.57.57,0,0,1,2.69,38.31Zm.94,2c-.07-.11-.17-.21-.24-.34s-.16-.37-.26-.61a2,2,0,0,1,.49-.16H6.25l3.23-.06c1.16,0,2.33,0,3.49-.09a39.24,39.24,0,0,1,4.2-.07,15.5,15.5,0,0,0,1.92-.14l.75,0a2.65,2.65,0,0,1,.59,1.14,1.64,1.64,0,0,1-.34.11c-1.08.07-2.15.16-3.23.2s-1.92,0-2.89,0c-.78,0-1.57.09-2.35.09l-7.7,0A1.81,1.81,0,0,1,3.63,40.27Zm.38.62a2.42,2.42,0,0,1,1.1-.2l6.82-.06c.35,0,.7-.05,1.05-.07s.93,0,1.4,0a47.38,47.38,0,0,0,5.33-.17,11.12,11.12,0,0,1,1.16,0l.75,1.13c-.14.31-.37.27-.56.28l-2.79.13c-1.46.06-2.92.12-4.37.16-.79,0-1.58,0-2.36,0l-5.87,0H5.41C4.51,42.1,4.26,41.88,4,40.89Zm1.37,2.27a3.29,3.29,0,0,0-.27-.39c0-.25.21-.25.34-.26.64,0,1.28-.11,1.92-.12,1.7,0,3.39,0,5.08,0,2,0,4-.1,6.05-.17q1.44,0,2.88-.15a1.1,1.1,0,0,1,1.17.58,10.92,10.92,0,0,0,.64.91,6.29,6.29,0,0,1-.83.12l-4.29-.09c-.35,0-.7,0-1.05,0a38.64,38.64,0,0,1-5.16-.05,10.58,10.58,0,0,0-1.49,0c-1.26.06-2.51.09-3.76.22A1.07,1.07,0,0,1,5.38,43.16Zm1.19,1.75a1.3,1.3,0,0,1-.45-.68A10.44,10.44,0,0,1,7.94,44c.9-.05,1.8-.09,2.71-.12.38,0,.76,0,1.14,0,1.92.1,3.85.07,5.78,0,.7,0,1.4,0,2.1,0l.79,0c.85,0,1.69,0,2.54,0,.65,0,.94.31,1.17.85a.92.92,0,0,1-.27.1l-4.47.17-4.64.11c-.38,0-.76-.07-1.14-.06-.67,0-1.34.07-2,.12L9,45.41l-1.9.1C7,45.34,6.75,45.13,6.57,44.91ZM8.11,46.6c-.13-.15-.25-.31-.37-.47s0-.06,0-.22l1.66-.15c.76-.07,1.52-.15,2.27-.17a26.71,26.71,0,0,1,3-.09c.72,0,1.45,0,2.18,0l2.44-.08c1.52,0,3-.07,4.55-.13a1.61,1.61,0,0,1,1.45.63c.14.19.29.36.49.6a1.9,1.9,0,0,1-.43.14c-.88,0-1.75,0-2.63.07s-1.92.11-2.88.15c-1.46.06-2.92.09-4.37.15-1.87.09-3.73.2-5.59.31C8.81,47.36,8.81,47.37,8.11,46.6Zm2.33,2.08c-.27-.22-.56-.43-.82-.65-.06-.05-.07-.15-.14-.29.26,0,.47-.11.69-.12,1.37-.06,2.74-.1,4.11-.17.61,0,1.22-.09,1.83-.11,1.23-.05,2.45-.06,3.68-.11s2.21-.14,3.32-.18,2,0,3-.07l.13,0,1.14,1.28s0,.11,0,.16-.18.13-.29.14l-6.22.29L18.16,49a59.24,59.24,0,0,1-6,0,6.33,6.33,0,0,0-.87,0A1.14,1.14,0,0,1,10.44,48.68Zm3.17,2.15a8.53,8.53,0,0,1-1.89-1.23c0-.22.21-.19.35-.19,2.24,0,4.49,0,6.73,0,1.4,0,2.8-.13,4.2-.2L27.54,49a1,1,0,0,1,.66.17,1,1,0,0,1,.5.79l-2.44.13c-1.08.07-2.15.17-3.23.24l-6.46.43c-.85.06-1.69.1-2.54.14A.73.73,0,0,1,13.61,50.83Zm4.05,1.66a2.77,2.77,0,0,1-1.77-.3,4.61,4.61,0,0,1-1.43-.94L17.34,51c1.66-.12,3.31-.25,5-.36,2.15-.15,4.31-.27,6.46-.43a1,1,0,0,1,1,.42c.17.23.41.42.47.69s-.23.2-.37.21l-2.18.12c-1.39.09-2.79.26-4.19.28s-2.5.16-3.75.28C19.05,52.31,18.35,52.38,17.66,52.49Zm3.64,1.63A2,2,0,0,1,19.7,54a4.17,4.17,0,0,1-1.63-.81s0-.06,0-.15a2.23,2.23,0,0,1,.43-.16c1.13-.14,2.26-.3,3.39-.4,1.71-.15,3.43-.25,5.15-.36.41,0,.82,0,1.23,0s1.11-.05,1.65-.12a1.54,1.54,0,0,1,1.62.6c.24.32.53.6.86,1a2.35,2.35,0,0,1-.48.13c-2.33.12-4.65.45-7,.43-1.08,0-2.16,0-3.24.08A.82.82,0,0,0,21.3,54.12Zm11.88.55a22.53,22.53,0,0,1-9.14.27c-.29,0-.58,0-.87-.1s-.44-.11-.65-.17v-.11c.22,0,.43-.05.65-.06l4.21-.19c.64,0,1.28-.11,1.92-.16,1-.08,1.92-.12,2.87-.25a1.55,1.55,0,0,1,1.43.59A4.08,4.08,0,0,1,33.18,54.67Z"/></g></g></svg>