<svg xmlns="http://www.w3.org/2000/svg" viewBox="0 0 80.04 108.78"><title>Asset 540</title><g id="Layer_2" data-name="Layer 2"><g id="Layer_1-2" data-name="Layer 1"><path d="M36.09,103.46c0,.06,0,0,.1-.11a2.66,2.66,0,0,0,.86-3.1,2.29,2.29,0,0,0-2.33-1.54c-.9-.08-1.81,0-2.71,0v10a29.28,29.28,0,0,0,3.39,0,2.39,2.39,0,0,0,2.2-3.1A8.4,8.4,0,0,0,36.09,103.46Zm-3.45-4.15c1.35,0,2.78-.45,3.56.84a2.8,2.8,0,0,1,0,2.35c-.75,1.46-2.27.8-3.6,1Zm4.13,7.88c-1,1.46-2.61,1-4.16,1v-4.15c1.51,0,3.13-.47,4.13,1A2.34,2.34,0,0,1,36.77,107.19Zm8.92-6.67c-.43-1.21-1.59-1.84-3.38-1.85H40.57v10H41v-3.94c1.79-.53,2.9-.13,3.54,1.42a12,12,0,0,0,1.25,2.06,2.88,2.88,0,0,0,.65.54l.22-.22-2.47-4.13C45.71,103.16,46.18,101.88,45.69,100.52Zm-4.57,3.39V99.33c1.41-.07,2.8-.37,3.73,1a2.18,2.18,0,0,1,0,2.58C44,104.29,42.52,103.84,41.12,103.91ZM52.9,98.25c-1.48,3.68-2.83,7-4.17,10.35l.34.17a10.46,10.46,0,0,0,.61-1.07c1-2.29,1-2.33,3.38-2.29s1.85-.47,2.89,2c.19.47.44.91.67,1.37l.46-.22C55.73,105.22,54.37,101.88,52.9,98.25Zm-2.06,6.52,2-5.07c.74,1.85,1.34,3.38,2,5.07Zm-31,3.45h5.48c0,.12,0,.25,0,.37h-6V98.74l.33,0a21.34,21.34,0,0,1,.16,4.59C19.92,104.87,19.88,106.44,19.88,108.22Zm8.26-9.45h.27v9.89h-.27Z"/><path d="M79.91,71.42Q77,57.71,74.08,44c-.61-2.88-1.21-5.76-1.82-8.67,1.74-.53,2.92-1.49,3-3.3s-1-3-2.66-3.72l1.1-1.79H43.15c3.17-2.15,4.44-4.81,3.55-8.29-.52-2.06-2.12-3.79-3.61-4,1.17,2.2,1.25,4.25-.89,5.84a3.44,3.44,0,0,1-4,.24c-2.55-1.51-2.58-3.69-1.24-6.18a5.57,5.57,0,0,0-3.62,3.92c-.95,3.53.29,6.27,3.16,8.55H6.23l1.17,1.7C5.75,29,4.73,30,4.73,31.77c0,2,1.23,3,3,3.57-.05.3-.07.52-.11.74-2.5,11.77-5,23.53-7.46,35.3a7.17,7.17,0,0,0,2.12,6.74c2.52,2.5,5.72,2.66,8.93,2.14A7.5,7.5,0,0,0,17.62,71Q13.93,53.51,10.2,36a1.7,1.7,0,0,1,.52-1.9,1.88,1.88,0,0,0,.47-2.55c-.12.44-.2.8-.31,1.14a2.87,2.87,0,0,1-3.27,1.93,2.83,2.83,0,0,1-2.28-2.9c.07-1.79,1.4-2.86,3.52-2.7q13.31,1,26.6,2.12a2.3,2.3,0,0,1,2.15,2.31c0,.61,0,1.23,0,1.84a2.06,2.06,0,0,1-1.06,2.27c-.68.4-1.55,1.22-.7,2.17a4,4,0,0,1,1,3.17c-.06,1,.05,2,0,3a4,4,0,0,0,1.05,3.26,5.37,5.37,0,0,1,1.44,4c-.11,1.63-.54,3.24-.67,4.87-.57,7.18-1.07,14.37-1.66,21.56-.08,1.08-.74,2.15-.67,3.2a2.15,2.15,0,0,1-1.74,2.56,8.79,8.79,0,0,0-1.23.61l-6.54,3.12c-.24,1.2-.19,1.28,1.23,1.28q12,0,24.06,0c.37,0,.74,0,1.13-.08V88.81a11,11,0,0,1-1.51-.45c-2.46-1.18-4.9-2.38-7.34-3.59-.22-.1-.55-.34-.54-.49A16.51,16.51,0,0,0,43.23,81c-.58-5.06-.81-10.16-1.25-15.24-.29-3.32-.68-6.62-1.12-9.92-.27-2-.56-4.12.73-5.77a7.76,7.76,0,0,0,1.63-5.86,7.56,7.56,0,0,1,0-2,6.32,6.32,0,0,1,.68-2.1c.71-1.17.79-1.87-.38-2.56a2.17,2.17,0,0,1-1.09-2.37c0-.49,0-1,0-1.49,0-1.73.76-2.49,2.52-2.63,6.19-.5,12.38-1,18.57-1.53,2.79-.22,5.58-.46,8.38-.57a2.76,2.76,0,0,1,2.8,2.64,3,3,0,0,1-2.26,2.95,2.84,2.84,0,0,1-3.32-2c-.11-.34-.21-.68-.36-1.15a2.1,2.1,0,0,0,.64,2.74,1.5,1.5,0,0,1,.44,1.62c-.41,1.88-.8,3.75-1.2,5.63Q65.5,56.28,62.35,71.11a7.56,7.56,0,0,0,4.86,8.74,11.68,11.68,0,0,0,7.91,0A7.68,7.68,0,0,0,79.91,71.42Zm-67.79,8a11.76,11.76,0,0,1-6.47,0,6.91,6.91,0,0,1-5-7H17.12A6.78,6.78,0,0,1,12.12,79.46ZM8.28,35.92A8.06,8.06,0,0,1,9,35.17c.2.26.53.49.59.77,1.14,5.24,2.25,10.48,3.37,15.73l4,18.76c.07.37.11.75.18,1.22H.72c.3-1.47.58-2.87.88-4.27q3.28-15.51,6.56-31A1,1,0,0,1,8.28,35.92ZM34.13,22.68a6,6,0,0,1,1.32-6.83c.34,3.83,1.79,5.59,4.59,5.57s4.33-1.9,4.52-5.37c1.41.82,2.15,3.27,1.66,5.5a6.37,6.37,0,0,1-12.09,1.13Zm.77,7.77c-2-.15-4.44-.33-6.84-.53-6.26-.5-12.52-1-18.78-1.51-.8-.06-1.39-.26-1.66-1.16H36.09Zm17.7,58.9v.29H27.36v-.29Zm-2.34-1-.07.24H29.89c0-.12,0-.24,0-.25a70.72,70.72,0,0,1,8-3.83,7.76,7.76,0,0,1,4.78.19A79.7,79.7,0,0,1,50.26,88.36Zm-7.1-4.87a1.42,1.42,0,0,1-.42.15c-1.72,0-3.45,0-5.17,0-.27,0-.53-.41-.8-.64.26-.2.51-.56.77-.57,1.84,0,3.67,0,5.62,0ZM40.91,59.24c.5,6.72,1,13.44,1.52,20.16.06.72,0,1.45,0,2.32-.29,0-.55.06-.81.06h-4.2c.59-8,1.18-15.79,1.76-23.6C40.67,57.77,40.81,57.89,40.91,59.24ZM40,54.77l.16.07.44,2.44-1.12.09C39.63,56.42,39.8,55.6,40,54.77Zm-.49-4.26h1c-.13.72-.25,1.4-.43,2.33Zm.51-.67c-1.34,0-1.48-1-2.16-1.91h4.37C41.52,48.87,41.31,49.85,40,49.84ZM43.32,38.2c.57.44.53.92.11,1.57A4.82,4.82,0,0,0,42.71,42c-.11,1.45-.06,2.91,0,4.36,0,.68-.2,1-.92.95-1.15,0-2.3,0-3.45,0-.71,0-.94-.26-.91-.94s0-1.61,0-2.42a9.3,9.3,0,0,0,0-1.83,6,6,0,0,0-.76-2.28c-.54-.77-.42-1.27.22-1.74a3,3,0,0,1,1.32-.62,23.66,23.66,0,0,1,3.67,0A3.13,3.13,0,0,1,43.32,38.2Zm-5.11-5.4c0-.16.41-.44.64-.45.94-.05,1.89,0,2.9,0v4.38l-3.44-.06C38.27,35.37,38.2,34.09,38.21,32.8Zm5.43-2.16A3.79,3.79,0,0,1,40,31.73a3.77,3.77,0,0,1-3.57-1.06,1.46,1.46,0,0,1,0-2.38A3.24,3.24,0,0,1,39,27.16c.8.07,1.6,0,2.4,0A3.22,3.22,0,0,1,44,28.79C44.51,29.47,44.14,30.09,43.64,30.64Zm27.29-2.28c-8.25.71-16.5,1.37-24.75,2-.45,0-.9,0-1.44,0a2.68,2.68,0,0,0-1.47-3.16h29l.2.37A5,5,0,0,1,70.93,28.36Zm-.25,6.44c.5.51,1,.77,1,1.11q3.73,17.46,7.41,34.93c0,.22.07.45.13.83H62.86C65.45,59.45,68,47.32,70.68,34.8Zm4.07,44.49a11,11,0,0,1-7,.11,6.86,6.86,0,0,1-4.92-7H79.27A6.65,6.65,0,0,1,74.75,79.29ZM32.19,9.93l5.79.56-1.63,2.66.27.22,2.57-1.71c.21,2.71.41,5.19.6,7.67h.47c.1-1.24.21-2.49.31-3.73s.17-2.55.26-4l2.59,1.68.26-.3L42,10.46l5.77-.63V9.36l-5.82-.55,1.7-2.53L43.37,6,40.8,7.66C40.59,5,40.39,2.5,40.19,0h-.5c-.17,2.5-.35,5-.53,7.69L36.53,6l-.26.3L38,8.83l-5.85.65Zm5.35-.38L39,9.35c-.15-.39-.24-.66-.36-1l1,.19.28-1.69.2,0c.06.52.12,1,.18,1.67l1-.15c-.07.26-.15.5-.26.88l1.83.34-1.75.4.24,1-1-.33c-.05.84-.1,1.59-.15,2.33H40c-.12-.75-.23-1.49-.36-2.31l-1.09.36.43-1L37.53,9.7ZM26.47,67A15.38,15.38,0,0,1,28,50a12.77,12.77,0,0,1,7.64-4.82c-6.43,2.75-10.4,7.36-10.4,14.51s4,11.78,10.41,14.55A14,14,0,0,1,26.47,67Zm28.38-7.33c0-7.14-4-11.82-10.62-14.39,1.56-.6,5.55,1.87,7.88,4.71A15.5,15.5,0,0,1,53,68.06c-2.11,3.27-6.75,6.56-8.88,6C50.88,71.48,54.84,66.8,54.85,59.69Zm-.18-25c-.64,2.06-1.27,4-3.21,5.38,1.92,1.4,2.61,3.32,3.19,5.37a8.82,8.82,0,0,1,3.1-5.36A8.69,8.69,0,0,1,54.67,34.67Zm0,8.36-2-3,1.95-3,2,3ZM28.27,40c-2-1.3-2.54-3.25-3.18-5.3-.55,2.07-1.25,4-3.12,5.34a9,9,0,0,1,3.15,5.38A9,9,0,0,1,28.27,40Zm-5.16,0c.36-.47.76-.94,1.1-1.44s.55-1,.85-1.55c.67,1,1.31,2,2,3-.62,1-1.29,2-1.95,3Zm48,21.87c-1.77-1.38-3.14-1.58-4.45-.68s-1.73,2.66-1,4.58a9.54,9.54,0,0,0,5,5.28,1.07,1.07,0,0,0,.86,0c2.43-1.3,4.46-3,5.18-5.82a3.5,3.5,0,0,0-.89-3.81C74.41,60.24,72.88,60.37,71.12,61.85Zm2.93,6.63c-3.11,2.7-2.93,2.7-5.94-.1A9.17,9.17,0,0,1,66,64.54a2.46,2.46,0,0,1,1.51-3.1c1.17-.49,2.24-.11,3.16,1.12.11.14.23.28.41.48.21-.26.38-.45.53-.65a2.48,2.48,0,0,1,3-1,2.57,2.57,0,0,1,1.61,2.76A6.41,6.41,0,0,1,74.05,68.48Zm-65,.46a.88.88,0,0,1,0,.62A1,1,0,0,1,9.07,68.94Zm0,0c.24-.81,1.59-1.31,2.38-2.15A4.75,4.75,0,0,0,13,62.1c-1.12-4.17-2.33-8.32-3.51-12.47,0-.14-.27-.22-.41-.33-.13.13-.25.2-.28.3-1.18,4.07-2.39,8.14-3.5,12.23a5,5,0,0,0,1.62,5.1C7.69,67.68,8.78,68.24,9.07,68.94Zm.5-1.53c-.39-1.38,0-2,2.78-4.48C12.65,64.58,11.47,66.41,9.57,67.41Zm2.1-4.79A30,30,0,0,0,9.53,65c-.34-2.52-.44-2.12,2.32-4.87C12.24,61,12.59,61.78,11.67,62.62ZM9.53,61.31c-.39-1.72-.16-2.25,1.68-3.74C11.87,59.15,11.44,60.06,9.53,61.31Zm0-9.09c.32.76,1.2,1.51,0,2.52ZM10.36,55c.9,1.3.93,2-.93,3.15C9.37,56.9,9,55.69,10.36,55ZM8.74,52.14v2.4C7.86,54,7.87,53.63,8.74,52.14ZM7.8,54.93c1.14.89,1.3,1.47.84,3.13C7,56.86,7,56.53,7.8,54.93ZM7,57.53c1.16,1,2.31,2,1.65,3.72C6.78,60.08,6.34,59.13,7,57.53Zm-.76,2.24c1.34,1.66,3.14,2.64,2.39,5.14a28.4,28.4,0,0,1-2.61-3C5.78,61.5,6.14,60.7,6.26,59.77Zm-.35,2.92c1,1.74,3.09,2.41,2.9,4.81C6.79,66.46,5.57,64.54,5.91,62.69Z"/></g></g></svg>