<svg xmlns="http://www.w3.org/2000/svg" viewBox="0 0 105.11 119.32"><title>Asset 556</title><g id="Layer_2" data-name="Layer 2"><g id="Layer_1-2" data-name="Layer 1"><path d="M23.32,112.52a1.92,1.92,0,0,0-.66-.57,2.07,2.07,0,0,0-1-.22,2,2,0,0,0-.58.09,1.76,1.76,0,0,0-.55.27,1.49,1.49,0,0,0-.39.47,1.33,1.33,0,0,0-.15.65,1.26,1.26,0,0,0,.14.62,1.38,1.38,0,0,0,.38.42,2.19,2.19,0,0,0,.55.28c.2.08.41.15.63.22l.83.29a3.4,3.4,0,0,1,.75.41,2.06,2.06,0,0,1,.54.63,2,2,0,0,1,.21,1,2.14,2.14,0,0,1-.81,1.73,2.53,2.53,0,0,1-.82.41,3.26,3.26,0,0,1-.93.13,3.49,3.49,0,0,1-.71-.07,3.09,3.09,0,0,1-.67-.22,2.62,2.62,0,0,1-.6-.37,2.16,2.16,0,0,1-.49-.51l.69-.51a2.19,2.19,0,0,0,.71.71,2,2,0,0,0,1.09.28,2.2,2.2,0,0,0,.61-.09,2,2,0,0,0,.56-.29,1.74,1.74,0,0,0,.41-.48,1.48,1.48,0,0,0,0-1.34,1.35,1.35,0,0,0-.43-.46,2.67,2.67,0,0,0-.61-.3c-.23-.09-.47-.17-.72-.25a7.08,7.08,0,0,1-.77-.28,2.71,2.71,0,0,1-.68-.4,1.85,1.85,0,0,1-.48-.62,2,2,0,0,1-.18-.9,2,2,0,0,1,.82-1.65,2.34,2.34,0,0,1,.81-.39,3.39,3.39,0,0,1,.88-.12,3,3,0,0,1,1.36.28A2.32,2.32,0,0,1,24,112Z"/><path d="M25.71,119.12h-.87l3.4-7.86H29l3.38,7.86H31.5l-.86-2.07H26.57Zm1.16-2.8h3.47l-1.74-4.18Z"/><path d="M39.31,112.68a2.68,2.68,0,0,0-1-.67,3.6,3.6,0,0,0-2.66,0A3.11,3.11,0,0,0,34,113.88a3.62,3.62,0,0,0-.23,1.31A3.58,3.58,0,0,0,34,116.5a3.14,3.14,0,0,0,3,2.11,4.63,4.63,0,0,0,1.22-.15,2.91,2.91,0,0,0,.9-.36v-2.39H37.32V115H40v3.55a5.25,5.25,0,0,1-1.38.58,6.15,6.15,0,0,1-1.55.19,4.2,4.2,0,0,1-1.64-.31,3.82,3.82,0,0,1-2.15-2.17,4.41,4.41,0,0,1-.31-1.65,4.5,4.5,0,0,1,.31-1.66,3.91,3.91,0,0,1,.87-1.3,3.7,3.7,0,0,1,1.29-.86,4.19,4.19,0,0,1,1.63-.31,4.39,4.39,0,0,1,1.65.28,3.77,3.77,0,0,1,1.2.78Z"/><path d="M42.8,119.12H42v-7.86h.8Z"/><path d="M47.41,119.12h-.8V112H44v-.71H50V112H47.41Z"/><path d="M53.74,119.12h-.8V112H50.31v-.71h6.06V112H53.74Z"/><path d="M56.83,119.12H56l3.4-7.86h.77l3.38,7.86h-.89l-.86-2.07H57.68Zm1.15-2.8h3.47l-1.74-4.18Z"/><path d="M65.46,119.12h-.8v-7.86H67a4.57,4.57,0,0,1,1.07.11,2.25,2.25,0,0,1,.85.36,1.61,1.61,0,0,1,.56.65,2,2,0,0,1,.2,1,2,2,0,0,1-.15.79,2.12,2.12,0,0,1-.42.62,2.22,2.22,0,0,1-.64.42,2.84,2.84,0,0,1-.8.2l2.3,3.74H69l-2.18-3.68H65.46Zm0-4.37h1.38a2.61,2.61,0,0,0,1.49-.35,1.17,1.17,0,0,0,.52-1.05,1.33,1.33,0,0,0-.14-.65,1.18,1.18,0,0,0-.4-.43,1.83,1.83,0,0,0-.62-.25,4.12,4.12,0,0,0-.81-.08H65.46Z"/><path d="M72.11,119.12h-.8v-7.86h.8Z"/><path d="M77.1,119.32a3,3,0,0,1-1.46-.31,2.53,2.53,0,0,1-.9-.77,2.8,2.8,0,0,1-.46-1,4.41,4.41,0,0,1-.13-1v-4.93H75v4.84a4.08,4.08,0,0,0,.11.93,2.65,2.65,0,0,0,.36.8,1.9,1.9,0,0,0,.66.56,2.14,2.14,0,0,0,1,.22,2.09,2.09,0,0,0,1-.22,1.9,1.9,0,0,0,.66-.56,2.65,2.65,0,0,0,.36-.8,4.08,4.08,0,0,0,.11-.93v-4.84H80v4.93a4.41,4.41,0,0,1-.13,1,2.8,2.8,0,0,1-.46,1,2.48,2.48,0,0,1-.91.77A3,3,0,0,1,77.1,119.32Z"/><path d="M85.89,112.52a2,2,0,0,0-.65-.57,2.14,2.14,0,0,0-1.56-.13,1.71,1.71,0,0,0-.54.27,1.39,1.39,0,0,0-.4.47,1.33,1.33,0,0,0-.15.65,1.16,1.16,0,0,0,.15.62,1.27,1.27,0,0,0,.38.42,2.3,2.3,0,0,0,.54.28c.2.08.42.15.64.22l.82.29a3,3,0,0,1,.75.41,2.06,2.06,0,0,1,.54.63,2,2,0,0,1,.21,1,2.09,2.09,0,0,1-.8,1.73,2.63,2.63,0,0,1-.82.41,3.31,3.31,0,0,1-.93.13,3.42,3.42,0,0,1-.71-.07,3.18,3.18,0,0,1-.68-.22,3.13,3.13,0,0,1-.6-.37,2.38,2.38,0,0,1-.49-.51l.69-.51a2.13,2.13,0,0,0,.72.71,2,2,0,0,0,1.08.28,2.2,2.2,0,0,0,.61-.09,1.75,1.75,0,0,0,.56-.29,1.46,1.46,0,0,0,.41-.48,1.48,1.48,0,0,0,0-1.34,1.33,1.33,0,0,0-.42-.46,2.67,2.67,0,0,0-.61-.3c-.23-.09-.47-.17-.73-.25a6.92,6.92,0,0,1-.76-.28,2.71,2.71,0,0,1-.68-.4,1.85,1.85,0,0,1-.48-.62,1.87,1.87,0,0,1-.19-.9,2,2,0,0,1,.23-1,1.94,1.94,0,0,1,.6-.67,2.34,2.34,0,0,1,.81-.39,3.26,3.26,0,0,1,.87-.12,3,3,0,0,1,1.37.28,2.28,2.28,0,0,1,.85.67Z"/><g id="_Group_" data-name="&lt;Group&gt;"><path d="M86.73,70.25l-2.9,2.11,1.11,3.4L82,73.66l-2.9,2.1,1.11-3.4-2.9-2.11h3.58L82,66.84l1.11,3.41ZM82.85,72l1.31-1H82.54L82,69.55l-.5,1.53H79.93l1.3,1-.5,1.53L82,72.62l1.31.95Z"/></g><g id="_Group_2" data-name="&lt;Group&gt;"><path d="M89.7,17.19,86.89,18l1.44,2.54-2.65-1.22-.52,2.87-1.25-2.64-2.25,1.86.74-2.82-2.91,0,2.37-1.68L79.64,15l2.91.23-.49-2.87,2.08,2,1.47-2.52.27,2.91,2.75-1L87,16.18Zm-4.07.25L87,17.07l-1.31-.49.79-1.14-1.31.46L85,14.52l-.71,1.2-1-1,.23,1.37L82.16,16l1.07.91-1.14.8h1.39l-.35,1.35,1.08-.89.59,1.26.25-1.37,1.27.58Z"/></g><g id="_Group_3" data-name="&lt;Group&gt;"><path d="M102.4,63.33l-2.81.77L101,66.64l-2.64-1.22-.53,2.87-1.25-2.64-2.25,1.86.74-2.82-2.91,0L94.57,63,92.35,61.1l2.9.23-.49-2.87,2.08,2L98.31,58l.27,2.91,2.75-1-1.66,2.4Zm-4.06.25,1.34-.37-1.31-.48.8-1.15-1.32.47-.13-1.39-.7,1.2-1-1,.24,1.37-1.39-.11,1.06.91-1.14.8h1.39l-.35,1.35,1.08-.89.59,1.26.26-1.37L99,64.8Z"/></g><polygon points="92.34 80.81 88.88 80.19 92.34 79.58 92.95 76.13 93.56 79.58 97.02 80.19 93.56 80.81 92.95 84.26 92.34 80.81"/><g id="_Group_4" data-name="&lt;Group&gt;"><path d="M58.55,98.45,55,101l1.35,4.16-3.54-2.57-3.54,2.57L50.63,101l-3.54-2.58h4.38l1.35-4.16,1.35,4.16ZM54,100.71,56,99.29H53.56L52.82,97l-.74,2.29H49.67l1.95,1.42L50.87,103l2-1.42,2,1.42Z"/></g><g id="_Group_5" data-name="&lt;Group&gt;"><path d="M58.62,4.16,55.08,6.74l1.35,4.16L52.89,8.33,49.35,10.9,50.7,6.74,47.16,4.16h4.38L52.89,0l1.35,4.16ZM54.09,6.42,56,5H53.63l-.74-2.29L52.15,5H49.74l1.95,1.42-.75,2.29,2-1.42,2,1.42Z"/></g><g id="_Group_6" data-name="&lt;Group&gt;"><path d="M52.85,15.07,58,28.93,52.85,24.3l-5.11,4.63Zm3.17,11-3.17-8.6-3.17,8.6,3.17-2.88Z"/><path d="M52.85,79.36c-.58.29-2.55,1.39-2.78,3s-.2,6.32-.17,8.57l2.62-3.55.33.24.33-.24L55.8,91c0-2.25.06-7-.17-8.57S53.43,79.65,52.85,79.36Zm0-.46.17-.38c.12,0,3.09,1.37,3.43,3.76,0,.3.08.7.11,1.18L87.25,53.15A35.37,35.37,0,0,1,80.75,48C74.93,42.76,67,35.58,53.26,34.71V45.5a9.3,9.3,0,1,1-.82,0V34.7c-13.78.86-21.72,8-27.54,13.33a35.52,35.52,0,0,1-6.47,5.1L49.14,83.46c0-.48.07-.88.11-1.18.34-2.39,3.31-3.71,3.43-3.76Zm.2-49.45a41.83,41.83,0,0,1,18.82,5.37,66.59,66.59,0,0,1,12,9.18c5,4.51,8,7.23,11.39,4.11A1.56,1.56,0,0,1,97,47.88a2,2,0,0,1,1.19,1.84,3.61,3.61,0,0,1-1.46,2.91,9,9,0,0,1-5.34,1.53,9.58,9.58,0,0,1-2.15-.23,8.16,8.16,0,0,1-1.21-.4l-31.45,31c.1,3,0,7.38,0,7.62l0,1.22-3.74-5.06-3.73,5.06,0-1.22c0-.24-.09-4.59,0-7.62L17.63,53.51a7.35,7.35,0,0,1-1.25.42,9.58,9.58,0,0,1-2.15.23,9,9,0,0,1-5.34-1.53,3.64,3.64,0,0,1-1.46-2.91,2,2,0,0,1,1.19-1.84,1.56,1.56,0,0,1,1.71.23c3.39,3.12,6.4.4,11.39-4.11a66.94,66.94,0,0,1,12.05-9.18,41.87,41.87,0,0,1,18.82-5.37v0l.22,0,.23,0ZM97.39,49.72a1.19,1.19,0,0,0-.7-1.09.75.75,0,0,0-.82.09c-3.94,3.63-7.54.39-12.5-4.11C77,38.86,68.3,31,52.82,30.26c-15.47.73-24.18,8.6-30.54,14.35-5,4.5-8.56,7.74-12.51,4.11A.75.75,0,0,0,9,48.63a1.18,1.18,0,0,0-.69,1.09A2.78,2.78,0,0,0,9.4,52c1.66,1.31,4.82,1.62,6.79,1.15,2.51-.6,5-2.86,8.15-5.72C30.28,42,38.4,34.68,52.6,33.87h.45c14.2.81,22.31,8.16,28.25,13.54,3.15,2.86,5.65,5.12,8.16,5.72,2,.47,5.12.16,6.78-1.15A2.79,2.79,0,0,0,97.39,49.72Zm-36,5.09a8.49,8.49,0,1,0-8.49,8.49A8.5,8.5,0,0,0,61.36,54.81Z"/></g><rect x="53.81" y="50.42" width="0.83" height="10.13"/><path d="M54.22,55.9H49.43l.65-.7a4.42,4.42,0,0,0,1.49-3.4,3.66,3.66,0,0,0-1.43-2.39l.48-.68a4.55,4.55,0,0,1,1.77,3,4.73,4.73,0,0,1-1.12,3.36h2.95Z"/><rect x="52.44" y="63.72" width="0.83" height="24.53"/><rect x="52.44" y="23.89" width="0.83" height="5.94"/><path d="M16.69,50.86a.13.13,0,0,1-.13-.13.12.12,0,0,1,.13-.12.12.12,0,0,1,.12.12A.12.12,0,0,1,16.69,50.86Z"/><circle cx="18.76" cy="49.72" r="0.23"/><circle cx="20.64" cy="48.37" r="0.33"/><path d="M22.41,47.3a.42.42,0,0,1,0-.84.42.42,0,1,1,0,.84Z"/><path d="M24.13,45.84a.5.5,0,1,1,0-1,.5.5,0,0,1,0,1Z"/><circle cx="25.84" cy="43.79" r="0.57"/><path d="M27.58,42.9a.64.64,0,1,1,.64-.63A.64.64,0,0,1,27.58,42.9Z"/><path d="M29.36,41.49a.7.7,0,1,1,.7-.7A.7.7,0,0,1,29.36,41.49Z"/><path d="M31.2,40.13a.75.75,0,1,1,.75-.75A.75.75,0,0,1,31.2,40.13Z"/><path d="M33.09,38.86a.8.8,0,1,1,.8-.8A.8.8,0,0,1,33.09,38.86Z"/><path d="M35.05,37.68a.85.85,0,1,1,.85-.85A.85.85,0,0,1,35.05,37.68Z"/><path d="M37.08,36.6a.88.88,0,1,1,.88-.88A.87.87,0,0,1,37.08,36.6Z"/><path d="M39.17,35.65a.91.91,0,1,1,.91-.91A.9.9,0,0,1,39.17,35.65Z"/><path d="M41.32,34.82a.94.94,0,1,1,.94-.94A.94.94,0,0,1,41.32,34.82Z"/><path d="M43.52,34.12a1,1,0,1,1,1-.95A1,1,0,0,1,43.52,34.12Z"/><circle cx="45.76" cy="32.59" r="0.97"/><path d="M48,33.13a1,1,0,1,1,1-1A1,1,0,0,1,48,33.13Z"/><path d="M50.32,32.82a1,1,0,1,1,1-1A1,1,0,0,1,50.32,32.82Z"/><path d="M52.63,32.65a1,1,0,1,1,1-1A1,1,0,0,1,52.63,32.65Z"/><circle cx="54.94" cy="31.8" r="0.99"/><path d="M57.23,33.07a1,1,0,1,1,1-1A1,1,0,0,1,57.23,33.07Z"/><circle cx="59.51" cy="32.5" r="0.97"/><path d="M61.75,34a.95.95,0,1,1,1-.95A.94.94,0,0,1,61.75,34Z"/><path d="M64,34.69a.94.94,0,1,1,.93-.94A.94.94,0,0,1,64,34.69Z"/><path d="M66.11,35.5a.91.91,0,1,1,.91-.91A.9.9,0,0,1,66.11,35.5Z"/><path d="M68.22,36.43a.88.88,0,1,1,.87-.88A.87.87,0,0,1,68.22,36.43Z"/><path d="M70.26,37.48a.84.84,0,1,1,.84-.84A.84.84,0,0,1,70.26,37.48Z"/><circle cx="72.23" cy="37.85" r="0.8"/><path d="M74.14,39.91a.76.76,0,1,1,.75-.75A.76.76,0,0,1,74.14,39.91Z"/><path d="M76,41.25a.7.7,0,1,1,.7-.7A.7.7,0,0,1,76,41.25Z"/><path d="M77.77,42.66a.64.64,0,0,1-.64-.64.64.64,0,0,1,1.28,0A.64.64,0,0,1,77.77,42.66Z"/><path d="M79.52,44.11a.58.58,0,1,1,.57-.57A.58.58,0,0,1,79.52,44.11Z"/><path d="M81.23,45.59a.51.51,0,1,1,.51-.51A.51.51,0,0,1,81.23,45.59Z"/><path d="M83,47.05a.42.42,0,1,1,0-.84.42.42,0,1,1,0,.84Z"/><path d="M84.71,48.47a.34.34,0,1,1,.34-.34A.34.34,0,0,1,84.71,48.47Z"/><path d="M86.57,49.74a.23.23,0,1,1,.23-.23A.23.23,0,0,1,86.57,49.74Z"/><path d="M88.61,50.73a.13.13,0,0,1-.13-.13.13.13,0,0,1,.13-.12.13.13,0,0,1,.12.12A.13.13,0,0,1,88.61,50.73Z"/><rect x="47.68" y="42.89" width="0.83" height="4.11" transform="translate(-14.74 25.32) rotate(-25.71)"/><rect x="43.87" y="45.93" width="0.83" height="4.11" transform="translate(-20.85 52.69) rotate(-51.43)"/><rect x="41.76" y="50.33" width="0.83" height="4.11" transform="translate(-18.29 81.85) rotate(-77.14)"/><rect x="40.13" y="56.86" width="4.11" height="0.83" transform="translate(-11.68 10.82) rotate(-12.85)"/><rect x="42.26" y="61.25" width="4.11" height="0.83" transform="translate(-28.77 41.07) rotate(-38.56)"/><rect x="46.08" y="64.28" width="4.11" height="0.83" transform="translate(-31.04 79.98) rotate(-64.28)"/><rect x="57.23" y="62.62" width="0.83" height="4.11" transform="translate(-22.35 31.42) rotate(-25.71)"/><rect x="61.04" y="59.57" width="0.83" height="4.11" transform="translate(-25.05 71.25) rotate(-51.43)"/><rect x="63.15" y="55.17" width="0.83" height="4.11" transform="translate(-6.38 106.47) rotate(-77.14)"/><rect x="61.5" y="51.94" width="4.11" height="0.83" transform="translate(-10.05 15.45) rotate(-12.85)"/><rect x="59.37" y="47.55" width="4.11" height="0.83" transform="translate(-16.5 48.75) rotate(-38.56)"/><rect x="55.55" y="44.51" width="4.11" height="0.83" transform="translate(-7.86 77.33) rotate(-64.28)"/><g id="_Group_7" data-name="&lt;Group&gt;"><path d="M86.2,91l-2.35.65,1.2,2.12-2.21-1-.44,2.4-1.05-2.21-1.88,1.56.62-2.36-2.44,0,2-1.41-1.86-1.58,2.43.2-.4-2.41,1.73,1.72,1.24-2.11L83,89l2.29-.82-1.38,2Zm-3.61.12.89-.24-.86-.32.52-.76-.87.31-.08-.91-.47.79-.65-.65.15.91-.92-.07.7.59-.75.53h.92l-.23.89.71-.59.39.83.17-.9.83.38Z"/></g><polygon points="70.56 25.64 67.48 25.09 70.56 24.55 71.1 21.48 71.64 24.55 74.72 25.09 71.64 25.64 71.1 28.71 70.56 25.64"/><polygon points="68.57 98.57 66.23 98.15 68.57 97.74 68.98 95.4 69.4 97.74 71.73 98.15 69.4 98.57 68.98 100.9 68.57 98.57"/><path d="M68.92,8.65a1.77,1.77,0,1,1,1.77-1.77A1.77,1.77,0,0,1,68.92,8.65Zm0-2.87A1.1,1.1,0,1,0,70,6.88,1.1,1.1,0,0,0,68.92,5.78Z"/><path d="M95.29,28.63a1.77,1.77,0,1,1,1.76-1.77A1.77,1.77,0,0,1,95.29,28.63Zm0-2.87a1.1,1.1,0,1,0,1.09,1.1A1.1,1.1,0,0,0,95.29,25.76Z"/><path d="M103.34,50.57a1.77,1.77,0,1,1,1.77-1.77A1.78,1.78,0,0,1,103.34,50.57Zm0-2.87a1.1,1.1,0,1,0,1.1,1.1A1.1,1.1,0,0,0,103.34,47.7Z"/><path d="M68.11,85.06a1.77,1.77,0,1,1,1.77-1.77A1.77,1.77,0,0,1,68.11,85.06Zm0-2.87a1.1,1.1,0,0,0,0,2.2,1.1,1.1,0,0,0,0-2.2Z"/><g id="_Group_8" data-name="&lt;Group&gt;"><path d="M22,70.25l1.11-3.41,1.11,3.41h3.58l-2.9,2.11L26,75.76l-2.9-2.1-2.9,2.1,1.11-3.4-2.9-2.11Zm-.2,3.32,1.31-.95,1.31.95L23.88,72l1.31-1H23.57l-.5-1.53-.5,1.53H21l1.3,1Z"/></g><g id="_Group_9" data-name="&lt;Group&gt;"><path d="M16.25,35.78l1.11-3.41,1.11,3.41h3.58l-2.9,2.11,1.11,3.41-2.9-2.11-2.9,2.11,1.11-3.41-2.9-2.11Zm-.2,3.32,1.31-1,1.31,1-.5-1.53,1.31-1H17.86l-.5-1.54-.5,1.54H15.25l1.3,1Z"/></g><g id="_Group_10" data-name="&lt;Group&gt;"><path d="M90.94,35.78,88,37.89l1.1,3.41-2.9-2.11-2.9,2.11,1.11-3.41-2.9-2.11h3.59l1.1-3.41,1.11,3.41Zm-3.89,1.79,1.31-1H86.74l-.5-1.54-.5,1.54H84.13l1.31,1-.5,1.53,1.3-1,1.31,1Z"/></g><g id="_Group_11" data-name="&lt;Group&gt;"><path d="M18.14,16.18l-1.66-2.4,2.75,1,.27-2.91L21,14.37l2.07-2-.49,2.87L25.47,15l-2.22,1.89,2.38,1.68-2.92,0,.74,2.82L21.2,19.51,20,22.15l-.53-2.87L16.78,20.5,18.22,18l-2.81-.77Zm.65,2.47,1.27-.58.25,1.37.6-1.26,1.07.89-.35-1.35H23l-1.13-.8L23,16l-1.39.11.23-1.37-1,1-.71-1.2L20,15.9l-1.31-.46.79,1.14-1.31.49,1.35.37Z"/></g><g id="_Group_12" data-name="&lt;Group&gt;"><path d="M5.44,62.32l-1.66-2.4,2.75,1L6.8,58l1.47,2.52,2.08-2-.49,2.87,2.91-.23L10.55,63l2.37,1.68-2.91,0,.74,2.82L8.5,65.65,7.25,68.29l-.52-2.87L4.08,66.64,5.52,64.1l-2.81-.77Zm.65,2.48,1.27-.59.25,1.37.59-1.26,1.08.89-.35-1.35h1.39l-1.14-.8,1.07-.91-1.39.11.23-1.37-1,1-.71-1.2-.13,1.39L6,61.58l.79,1.15-1.31.48,1.35.37Z"/></g><polygon points="12.78 80.81 16.23 80.19 12.78 79.58 12.16 76.13 11.55 79.58 8.1 80.19 11.55 80.81 12.16 84.26 12.78 80.81"/><g id="_Group_13" data-name="&lt;Group&gt;"><path d="M21.19,90.14l-1.38-2,2.3.82.22-2.43,1.24,2.11,1.73-1.72-.4,2.41,2.43-.2L25.47,90.7l2,1.41-2.44,0,.62,2.36-1.88-1.56-1.05,2.21-.44-2.4-2.21,1,1.2-2.12L18.91,91Zm.88,1.77.83-.38.17.9.39-.83.71.59-.23-.89h.92l-.75-.53.7-.59-.92.07.15-.91-.65.65-.47-.79-.08.91L22,89.79l.53.76-.87.32.89.24Z"/></g><polygon points="34.56 25.64 37.63 25.09 34.56 24.55 34.01 21.48 33.47 24.55 30.4 25.09 33.47 25.64 34.01 28.71 34.56 25.64"/><polygon points="36.54 98.57 38.88 98.15 36.54 97.74 36.13 95.4 35.71 97.74 33.38 98.15 35.71 98.57 36.13 100.9 36.54 98.57"/><path d="M34.42,6.88a1.77,1.77,0,1,1,1.77,1.77A1.77,1.77,0,0,1,34.42,6.88Zm.67,0a1.1,1.1,0,1,0,1.1-1.1A1.1,1.1,0,0,0,35.09,6.88Z"/><path d="M8.06,26.86a1.77,1.77,0,1,1,1.77,1.77A1.77,1.77,0,0,1,8.06,26.86Zm.67,0a1.1,1.1,0,0,0,2.2,0,1.1,1.1,0,0,0-2.2,0Z"/><path d="M0,48.8a1.77,1.77,0,1,1,1.77,1.77A1.77,1.77,0,0,1,0,48.8Zm.67,0a1.1,1.1,0,1,0,1.1-1.1A1.1,1.1,0,0,0,.67,48.8Z"/><path d="M35.23,83.29A1.77,1.77,0,1,1,37,85.06,1.77,1.77,0,0,1,35.23,83.29Zm.67,0a1.1,1.1,0,1,0,2.2,0,1.1,1.1,0,1,0-2.2,0Z"/></g></g></svg>