<svg xmlns="http://www.w3.org/2000/svg" viewBox="0 0 55.27 74.67"><defs><style>.cls-1{fill:#1d1d1b;}</style></defs><title>Asset 431</title><g id="Layer_2" data-name="Layer 2"><g id="Layer_1-2" data-name="Layer 1"><path class="cls-1" d="M44.74,40.21c-.73,3.5-4.68,4.16-4.07,3.2s2.79-4.2-1.21-5S31.53,43.7,28.58,62.17a1,1,0,0,1-.94.81,1,1,0,0,1-.95-.81c-3-18.47-7-24.49-10.88-23.74s-1.91,3.89-1.21,5-3.43.32-4.06-3.2c-.45-2.48.74-5.66,5.43-5.66,6.94,0,10.29,10.31,11.67,18.94C29,44.86,32.36,34.55,39.3,34.55,44,34.55,45.18,38.08,44.74,40.21Z"/><path class="cls-1" d="M27.64,74.67a27.62,27.62,0,1,1,19.54-8.09A27.5,27.5,0,0,1,27.64,74.67Zm0-53.37a25.74,25.74,0,1,0,18.19,7.54A25.57,25.57,0,0,0,27.64,21.3Z"/><path class="cls-1" d="M19.66,10.11,16.43,0h-.35L12.82,8.52c-1,2.71-1.36,3.23-2.31,3.51v.16c.33,0,.64,0,1.2,0s1.24,0,1.6,0V12a.74.74,0,0,1-.69-.82,7.57,7.57,0,0,1,.66-2.29L13.62,8c.51,0,1,0,1.69,0s1.23,0,1.85,0l.55,1.7a7.21,7.21,0,0,1,.44,1.71c0,.34-.18.55-.71.62v.16l1.82,0c.56,0,1.26,0,1.61,0V12C20.3,11.88,20.1,11.49,19.66,10.11Zm-4.35-2.7c-.62,0-1,0-1.46,0l1.69-4.51L17,7.39C16.36,7.41,15.79,7.41,15.31,7.41ZM27,6.13h-1.5c0-.67-.27-.9-.66-.9a1.34,1.34,0,0,0-1,.57v4.74c0,1.31.21,1.39.71,1.49v.16c-.37,0-.87,0-1.48,0s-1.11,0-1.47,0V12c.49-.1.7-.18.7-1.49V6.08c0-.8,0-1-.51-1.18V4.74a5.32,5.32,0,0,0,2.05-.45v1a2.87,2.87,0,0,1,1.89-1C26.55,4.29,27,4.85,27,6.13Zm1.51-3.52a.79.79,0,0,1,.79-.84.8.8,0,0,1,.82.84.79.79,0,0,1-.82.77A.77.77,0,0,1,28.52,2.61ZM30.73,12v.16c-.36,0-.87,0-1.47,0s-1.12,0-1.48,0V12c.49-.1.71-.18.71-1.49V6.11c0-.78,0-1.05-.51-1.18V4.77A5.31,5.31,0,0,0,30,4.34v6.2C30,11.85,30.24,11.93,30.73,12Zm5.64-.51c-1.75,0-3-1.42-3-3.74a3.15,3.15,0,0,1,0-.4h5.13a3,3,0,0,0-3.1-3.09,3.8,3.8,0,0,0-3.72,4,3.82,3.82,0,0,0,3.88,4,3.43,3.43,0,0,0,3-1.55l-.11-.15A2.86,2.86,0,0,1,36.37,11.52Zm-1-6.9c.89,0,1.46.77,1.5,2.33H33.44C33.63,5.65,34.32,4.62,35.35,4.62Zm9.41,5.3a2.45,2.45,0,0,1-2.7,2.37A14.53,14.53,0,0,1,39.81,12c.1-.54,0-1.62.2-2.28h.16c-.05,1.18.51,2.29,1.77,2.29a1.26,1.26,0,0,0,1.38-1.34c0-2.2-3.54-1.66-3.54-4.13,0-1.43,1.16-2.2,2.62-2.2.67,0,1.33.17,2,.23a3.16,3.16,0,0,0,0,.61c0,.28,0,.69,0,1.21h-.17a1.93,1.93,0,0,0-1.83-1.72,1.19,1.19,0,0,0-1.31,1.21C41.11,7.74,44.76,7.29,44.76,9.92Z"/></g></g></svg>