<svg xmlns="http://www.w3.org/2000/svg" viewBox="0 0 87.85 87.78"><title>Asset 489</title><g id="Layer_2" data-name="Layer 2"><g id="Layer_1-2" data-name="Layer 1"><path d="M87.82,43.12,87.45,43l-1.64-.4L83.24,42l-2-.53c-.61-.16-1.23-.33-1.85-.47s-1-.16-1.54-.27c-.9-.2-1.79-.43-2.69-.64l-1.89-.42-1.51-.31c-.51-.12-1-.26-1.52-.39l-.19-.08,0-.08.18-.08a13.22,13.22,0,0,0,2.09-1c.56-.32,1.09-.7,1.64-1a25.68,25.68,0,0,0,2.33-1.83c.37-.32.73-.66,1.09-1l1.05-1a9.54,9.54,0,0,1,.72-.7c.3-.21.56-.48.84-.71l2.45-2a9.27,9.27,0,0,1,1.69-1.3c.07,0,.1-.12.16-.19a.56.56,0,0,0-.51-.1c-.34.08-.69.12-1,.18l-.23.05a8.75,8.75,0,0,1-1,.18c-.48,0-.95,0-1.43,0l-2-.13q-1.08-.06-2.16-.15c-.7-.05-1.4-.14-2.1-.17-.86,0-1.71,0-2.57,0a10.7,10.7,0,0,0-2.65.34c-.47.13-.93.27-1.38.44a7.27,7.27,0,0,0-1.67.72,1.6,1.6,0,0,1-.27.11,1.84,1.84,0,0,1,.09-.19c.38-.55.77-1.09,1.14-1.63s.56-.84.84-1.26l.84-1.29,1-1.57c.09-.14.21-.26.3-.41s.18-.33.28-.48c.51-.77,1-1.53,1.54-2.29.17-.25.37-.47.55-.72L73.19,18,74,17c.19-.25.39-.49.56-.75.34-.52.66-1.06,1-1.59a.64.64,0,0,0,.06-.57.61.61,0,0,0-.15,0l-1.07.53-1.27.58-.27.09-1.24.56-1.09.49c-.38.18-.74.39-1.11.58l-.82.39L67.23,18c-.63.31-1.26.6-1.89.92s-1.51.79-2.26,1.19c-.52.27-1,.55-1.53.83a2.58,2.58,0,0,1-.41.2,12.12,12.12,0,0,0-1.39.71c-.66.33-1.31.68-2,1-.18.09-.37.16-.59.26.18-.37.33-.7.51-1s.37-.58.54-.87.25-.54.39-.79a13.08,13.08,0,0,0,.91-2.15,14.62,14.62,0,0,0,.39-1.48c.09-.4.14-.8.2-1.2,0-.23,0-.47.08-.7s.07-.36.08-.54c0-.68.06-1.36.09-2a2.28,2.28,0,0,0,0-.37c0-.69,0-1.37,0-2,0-.44,0-.89,0-1.33,0-.27,0-.53,0-.8,0-.42.1-.85.12-1.27a5.26,5.26,0,0,1,.29-1.62l.35-1c0-.09,0-.17-.05-.24-.21.12-.46.2-.52.5a.56.56,0,0,1-.09.17,16.28,16.28,0,0,1-1.66,2,8.54,8.54,0,0,1-1,.91c-.4.34-.83.65-1.24,1A19.09,19.09,0,0,1,53.87,10a10.88,10.88,0,0,0-2.09,1.67c-.24.25-.48.51-.71.77s-.59.68-.86,1-.46.65-.69,1a7.1,7.1,0,0,0-.76,1.24,8.84,8.84,0,0,0-.66,2.08c-.06.27-.15.53-.22.8A6.49,6.49,0,0,1,47.37,17c0-.12-.06-.23-.09-.35a2.76,2.76,0,0,1-.08-.27c-.14-.72-.28-1.44-.43-2.15-.11-.51-.24-1-.37-1.52s-.26-1-.41-1.47c-.09-.27-.11-.55-.22-.81a20.16,20.16,0,0,1-.87-3.06c-.09-.34-.38-1.86-.45-2.21,0-.15-.1-.29-.14-.43-.09-.37-.16-.74-.25-1.11s-.21-.72-.3-1.08A14.63,14.63,0,0,0,42.92.08s-.07,0-.11-.08-.19.16-.13.33,0,.24,0,.36-.06.2-.08.3c-.14.65-.28,1.31-.42,2-.08.35-.18.69-.26,1s-.24,1-.35,1.47c-.05.23-.09.46-.15.69s-.1.41-.15.61a1.06,1.06,0,0,0-.06.19,30.29,30.29,0,0,1-.74,3,3.21,3.21,0,0,0-.12.33c-.08.35-.14.7-.23,1-.23,1-.47,2-.71,3-.12.51-.23,1-.35,1.53,0,.19-.1.37-.16.56l-.07,0c-.18-.37-.35-.74-.55-1.09a3.57,3.57,0,0,0-.64-.86c-.23-.22-.38-.5-.6-.73a8.41,8.41,0,0,0-.9-.89,8.52,8.52,0,0,0-1-.66c-.69-.44-1.4-.86-2.08-1.32A7.69,7.69,0,0,1,32,10.06a8.11,8.11,0,0,0-1-.73,10.59,10.59,0,0,1-1.73-1.47,14.71,14.71,0,0,1-1.34-1.72c-.38-.59-.75-1.19-1.12-1.79-.11-.16-.19-.34-.3-.51s-.19-.17-.36,0l.06.15a10.77,10.77,0,0,1,.35,1c.12.53.2,1.07.29,1.6,0,.2.05.4.07.6.08.72.17,1.45.22,2.18,0,.58,0,1.16.08,1.74,0,.18.06.36.06.54,0,.86,0,1.72,0,2.59,0,.43,0,.87,0,1.3s0,1,0,1.49a18.33,18.33,0,0,0,.7,3.23c.2.46.48.87.69,1.33a9,9,0,0,0,.62,1l.06.13a2.29,2.29,0,0,1-.47-.23l-1.82-1c-.22-.13-.43-.3-.66-.44l-1.32-.78-1.89-1.17-2.59-1.61c-.32-.2-.65-.39-1-.6s-.68-.49-1-.69c-.82-.45-1.61-.94-2.38-1.46l-.86-.56c-.1-.07-.24-.08-.33-.16-.37-.32-.87-.42-1.23-.75a.16.16,0,0,0-.13,0c-.06,0-.14,0-.16.07s0,.12,0,.16.19.26.26.4c.21.41.38.82.59,1.23.38.75.77,1.48,1.15,2.23.2.38,1.66,3.08,2.2,4.05l1.38,2.47L20,25.47l1.22,2.29a2.25,2.25,0,0,1,.31.68c-.47-.13-.89-.22-1.31-.35-.79-.25-1.58-.48-2.39-.66a14.28,14.28,0,0,0-2.16-.34c-.75-.06-1.49-.12-2.24-.22-.2,0-.41,0-.62,0l-.86,0h-.38l-1.1.11a3.48,3.48,0,0,0-.73.12,5.63,5.63,0,0,1-1.56.37,2,2,0,0,0-.34.06,7.57,7.57,0,0,1-1.43.19c-.58.07-1.17.1-1.76.14-.29,0-.58,0-.87,0a1.16,1.16,0,0,0-.77.17,1.16,1.16,0,0,0,.22.18A9.5,9.5,0,0,1,4.64,29a2,2,0,0,0,.19.12c.61.33,1.22.66,1.82,1a19.16,19.16,0,0,1,1.87,1.38,16.31,16.31,0,0,1,2.38,2.17c.19.21.4.4.59.61.44.45.86.91,1.3,1.35a10.73,10.73,0,0,1,1,1.21,6.15,6.15,0,0,0,.5.62,4.22,4.22,0,0,0,.46.38A6.65,6.65,0,0,0,17,39.08c.57.17,1.15.31,1.73.47a1.14,1.14,0,0,1,.19.07c-.06,0-.08.06-.1.06L17.18,40c-.34.08-.66.18-1,.25s-.67.09-1,.16l-1.68.42-.63.15c-.68.16-1.37.31-2,.48a5.73,5.73,0,0,0-.89.28,7,7,0,0,1-1.19.33c-.77.2-1.53.43-2.3.64s-1.72.47-2.59.69-1.51.35-2.27.54c-.5.13-1,.29-1.49.44a.13.13,0,0,0-.08.08c-.1.21.65.61,1,.72a20.94,20.94,0,0,0,2.2.58c.59.13,1.16.29,1.75.42,1,.22,2,.41,3,.72.22.07.44.11.67.16l1.8.42c.53.13,1,.31,1.58.41,1.14.22,2.3.4,3.45.6.55.1,1.1.23,1.65.35a.44.44,0,0,1-.18.11c-.27.06-.54.11-.8.18a11.38,11.38,0,0,0-1.86.81,8.78,8.78,0,0,0-1.64,1c-.39.31-.82.57-1.23.86-.1.08-.19.19-.29.27L9.74,53.26c-.24.21-.45.45-.7.66a10.82,10.82,0,0,0-1.51,1.44c-.21.26-.47.5-.7.75a7,7,0,0,0-1,1.35,7.33,7.33,0,0,1-.55.82,11.22,11.22,0,0,0-1,1.31,2.07,2.07,0,0,1-.37.47c-.29.28-.61.53-.92.79a.34.34,0,0,0-.17.29c.12.07.19.22.39.17.73-.2,1.46-.4,2.2-.58.45-.11.91-.21,1.36-.28a7.87,7.87,0,0,1,1.08-.09c.63,0,1.25,0,1.88,0,.47,0,1,.08,1.42.11a14.42,14.42,0,0,0,2.08,0,5.73,5.73,0,0,1,.83,0c.46,0,.92.07,1.38.11a5.79,5.79,0,0,0,2-.18A3.74,3.74,0,0,1,18,60.3a7.6,7.6,0,0,0,2-.55,7.37,7.37,0,0,0,1.41-.62l.36-.2,0,0-1.05,1.65c-.19.31-.39.6-.59.91s-.35.59-.54.88-.46.66-.68,1c-.41.62-.8,1.24-1.21,1.86-.28.44-.57.88-.86,1.31l-1.11,1.55c-.24.32-.5.62-.74.94s-.29.44-.44.65c-.4.58-.81,1.15-1.2,1.72-.22.31-.43.63-.62,1a11.1,11.1,0,0,1-.61,1,.91.91,0,0,0-.21.73.2.2,0,0,0,.28,0,2.33,2.33,0,0,1,.34-.2l1.15-.5,1.92-.86L16.87,72c.21-.09.43-.2.64-.31l1.55-.78c.33-.18.66-.38,1-.53.73-.31,1.42-.71,2.13-1.08.87-.44,1.74-.9,2.6-1.36.41-.22.81-.46,1.21-.68l.42-.25L28,66.19l.45-.23c-.08.18-.15.3-.19.42-.23.62-.48,1.24-.67,1.87a11.59,11.59,0,0,0-.25,1.17c-.11.48-.25.94-.33,1.42-.12.69-.21,1.39-.3,2.08a5.58,5.58,0,0,0-.07.91c0,.93,0,1.86,0,2.79,0,.37,0,.74,0,1.11s0,.86,0,1.28a12.82,12.82,0,0,1-.15,1.85c-.06.47-.11.94-.16,1.41,0,0,0,.1,0,.14l-.36,1.79a.92.92,0,0,0,0,.16l.1,0c.24-.09.31-.32.44-.5.4-.59.77-1.2,1.2-1.77a6.61,6.61,0,0,1,1.08-1.28,1.09,1.09,0,0,0,.1-.11c.49-.51,1-1.05,1.47-1.54a12.58,12.58,0,0,1,1.07-.86c.22-.18.43-.38.66-.54.58-.4,1.17-.78,1.76-1.17s1.11-.76,1.68-1.13a8.45,8.45,0,0,0,1.56-1.23c.41-.43.78-.88,1.16-1.33a4.6,4.6,0,0,0,.87-1.46c.15-.46.3-.92.46-1.38a2.09,2.09,0,0,1,.08-.23,5.21,5.21,0,0,1,.34.87c.21.86.4,1.73.6,2.6.12.57.24,1.14.38,1.7s.32,1.23.5,1.84.38,1.33.56,2,.41,1.62.62,2.42c.1.4.22.79.32,1.18.16.63.29,1.26.46,1.88.31,1.07.63,2.13.94,3.2a.35.35,0,0,0,.3.28.67.67,0,0,0,.06-.12c.2-.66.4-1.33.59-2,.12-.41.21-.82.32-1.24s.24-.76.33-1.14c.15-.68.29-1.36.41-2,.09-.47.17-.95.3-1.41.21-.78.38-1.57.57-2.36s.33-1.42.49-2.13c.11-.47.2-.93.31-1.4s.23-.94.37-1.4a1.19,1.19,0,0,1,.18-.53c.28.53.54,1,.83,1.54a7.08,7.08,0,0,0,.65.9,3.87,3.87,0,0,0,.52.47c.29.26.58.52.89.75s.79.65,1.2,1,.61.39.91.59a7.58,7.58,0,0,0,.89.63l.07,0c.28.2.58.38.85.59.51.4,1.06.76,1.54,1.21a10.17,10.17,0,0,1,1.4,1.61c.24.35.44.73.66,1.1l1.38,2.29a.47.47,0,0,0,.15.13,2.58,2.58,0,0,0,.34.12.71.71,0,0,0,0-.25c0-.19-.13-.37-.19-.56a4.37,4.37,0,0,1-.22-.7c-.11-.69-.19-1.38-.28-2.06a5.54,5.54,0,0,0-.07-.57A10.22,10.22,0,0,1,60,78.59c0-.36,0-.72,0-1.08a7.09,7.09,0,0,1,0-1.13c0-.3.05-.59.08-.88a4.81,4.81,0,0,1,.1-.93.91.91,0,0,0,0-.17c0-.45,0-.91.1-1.36a11.23,11.23,0,0,0,.1-1.53c0-.44,0-.87,0-1.31A7.93,7.93,0,0,0,59.5,67a4.2,4.2,0,0,0-.59-1,2.42,2.42,0,0,1-.21-.33l1,.54,1.17.66,1.73,1,1.66,1,1.48.87c.58.35,1.15.75,1.76,1.05.9.45,1.76,1,2.66,1.43a3.91,3.91,0,0,1,.44.26c.34.22.67.46,1,.67.78.48,1.57.95,2.37,1.42a6.31,6.31,0,0,0,.64.31c.3.13.43.11.6-.08-.09-.13-.19-.26-.27-.4-.45-.76-.87-1.53-1.34-2.27s-.72-1.29-1.13-1.91c-.28-.42-.5-.88-.74-1.32l-1-1.8c-.16-.27-.34-.54-.51-.81-.33-.54-.67-1.09-1-1.62s-.55-.86-.83-1.29L68.12,63c-.25-.42-.49-.85-.76-1.27s-.65-1-1-1.44a1,1,0,0,1-.07-.21l.3.13a8,8,0,0,0,1.82.67,7.52,7.52,0,0,0,2,.15c.5,0,1,0,1.51-.08.71-.07,1.41-.16,2.12-.25s1.26-.17,1.89-.26c.18,0,.35-.08.53-.1.47,0,.94-.12,1.42-.14s.79,0,1.19,0a24,24,0,0,1,3.06.23,4.68,4.68,0,0,1,.54.09c.43.12.85.25,1.27.41a2.14,2.14,0,0,0,.76,0,.35.35,0,0,0-.11-.18,7.1,7.1,0,0,1-1.31-1c-.57-.54-1.19-1-1.77-1.57a11.1,11.1,0,0,0-1.92-1.56,1.24,1.24,0,0,1-.22-.18c-.29-.3-.58-.6-.86-.91-.44-.47-.88-.94-1.29-1.44s-.77-1.05-1.17-1.57-.77-1-1.17-1.47a5.57,5.57,0,0,0-1-1c-.37-.29-.76-.56-1.15-.84l-.2-.11-2.23-.78c-.16-.06-.34-.09-.51-.14v-.07c.36-.08.71-.19,1.07-.26s1-.15,1.43-.23l.89-.19.94-.23c.63-.16,1.26-.32,1.88-.5l2.52-.81c.55-.17,1.11-.32,1.66-.47L81.94,45c.59-.14,1.17-.25,1.75-.4s1.15-.31,1.73-.49c.23-.07.46-.16.69-.24a.18.18,0,0,1,.1,0c.12,0,.25,0,.36-.05.27-.09.53-.2.8-.3l.37-.14C87.86,43.31,87.87,43.23,87.82,43.12Zm-16.11-3.5.41.09,1.31.27,1.28.29c.47.11,1,.25,1.43.35.66.15,1.34.27,2,.41l1.64.37.83.2,3.13.8,2.31.56V43l-1.56.06c-1.61,0-3.22.07-4.82.12s-3,.14-4.48.2c-.58,0-1.16,0-1.74,0s-1.15.07-1.73.09-1,0-1.51,0l-1.4.05-.74,0-.88,0c-.33,0-.66,0-1,0h0a12.55,12.55,0,0,1-2.21,0c-.39,0-.78,0-1.16,0s-.76,0-1.17-.05c0-.14,0-.26,0-.39A12.51,12.51,0,0,0,61.36,41c-.13-.72-.25-1.45-.39-2.16a4.84,4.84,0,0,0-.47-1.37c0-.08-.06-.16-.11-.25a.62.62,0,0,1,.16,0,5.51,5.51,0,0,1,1.21.11l2.05.51,1.24.29c.32.08.64.17,1,.24l2.36.51a5.33,5.33,0,0,1,.76.2c.3.11.63.14.94.22ZM53.58,33.83c.1-.28.2-.53.28-.79a1,1,0,0,0-.11-.82c-.1-.15-.16-.33-.26-.48s-.24-.38-.36-.57c-.17.16-.21.48-.3,1.29A4,4,0,0,0,53,33.8l-.32-.13A6.06,6.06,0,0,0,50.57,33l-1.4-.16a12.42,12.42,0,0,0-1.93,0,14.23,14.23,0,0,0-1.79.37.35.35,0,0,1,0-.12,1.62,1.62,0,0,0-.08-1.77c-.1-.16-.16-.37-.45-.28-.06.22-.13.45-.2.68a2.64,2.64,0,0,1-.07.3,1.1,1.1,0,0,0,.16,1.13,1.45,1.45,0,0,1,.1.18c-.14.07-.23,0-.34-.05-.52-.12-1-.27-1.57-.37a4,4,0,0,0-1.42.06,8.38,8.38,0,0,0-1.11.22,12.65,12.65,0,0,0-1.57.65,4.74,4.74,0,0,1-.56.2.24.24,0,0,1-.07-.34,1.34,1.34,0,0,0,.05-1,7.06,7.06,0,0,0-.37-.94.55.55,0,0,0-.38-.39.53.53,0,0,0-.05.15,1.78,1.78,0,0,1-.11.72,1.75,1.75,0,0,0,0,1.33.28.28,0,0,1,0,.09l0,0a5.59,5.59,0,0,0-1.45-.47,6.06,6.06,0,0,0-1.9-.08.91.91,0,0,1-.17,0,1.41,1.41,0,0,0-.87.18c-.25.11-.51.2-.81.32.07-.33.23-.61.1-1a1.39,1.39,0,0,0-.53-.78s-.08.07-.07.09a1.61,1.61,0,0,1-.23.78,1,1,0,0,0,0,.74,5.76,5.76,0,0,1-1.37-.58.39.39,0,0,1,.06-.13,9.07,9.07,0,0,1,1.4-1.23.86.86,0,0,0,.18-.14l1.18-1c.11-.09.19-.2.3-.29.41-.35.82-.71,1.24-1s.71-.47,1.07-.7a5.38,5.38,0,0,1,.66-.38,12.05,12.05,0,0,1,2-.78,1.25,1.25,0,0,0,.34-.12,12,12,0,0,1,1.74-.52,4.07,4.07,0,0,1,.79-.13c.37-.05.75-.08,1.13-.12h.31l.68,0,1.33,0c.1,0,.21,0,.31,0a5.13,5.13,0,0,1,1.35.15l1.52.25c.42.08.85.18,1.27.3s.88.26,1.32.41a4.31,4.31,0,0,1,.49.22,11.12,11.12,0,0,1,1.95,1.13c.48.32,1,.64,1.45.95a10.93,10.93,0,0,1,2,1.68l.71.74A16.92,16.92,0,0,1,53.58,33.83Zm3.55-1.5c.09.12.16.23.24.33l.51.63a.33.33,0,0,1-.14.53c-.28.11-.56.21-.85.3a5.73,5.73,0,0,1-1.65.13c-.33,0-.66,0-1,0a2.68,2.68,0,0,1-.49-.11V34c.24-.1.47-.18.7-.29s.33-.19.5-.27.56-.24.83-.38.72-.41,1.08-.61Zm-4.29,1.8a3.79,3.79,0,0,1-1.25.56,4.57,4.57,0,0,1-1.33.1c-.34,0-.69,0-1,0a2,2,0,0,1-.33-.08A17.61,17.61,0,0,1,46.44,34c-.24-.1-.5-.16-.75-.25l-.26-.11a2,2,0,0,1,.31-.17,4.81,4.81,0,0,1,1.63-.35,11.28,11.28,0,0,0,1.3,0,3.68,3.68,0,0,1,.75.06,15.57,15.57,0,0,1,2,.37h0l1.31.59S52.82,34.1,52.84,34.13Zm-8.11-.47c0,.06,0,.1-.08.12-.33.21-.66.43-1,.63a3.73,3.73,0,0,1-1.93.5,7.88,7.88,0,0,1-2.31-.39,6.06,6.06,0,0,1-.65-.28.14.14,0,0,1,0-.06,8.91,8.91,0,0,1,2.68-1,5.38,5.38,0,0,1,2.64.24Zm-7,.56a6,6,0,0,1-.61.11,10.49,10.49,0,0,1-1.27.17,8.8,8.8,0,0,1-2.38-.36l-.3-.06a1.84,1.84,0,0,1-.79-.22s0,0,0,0a3.34,3.34,0,0,1,1.42-.45c.46,0,.92,0,1.39,0a4.26,4.26,0,0,1,.78.14A4.82,4.82,0,0,1,37.71,34.22Zm-6.13-.35a1.53,1.53,0,0,1-.79.44,4.62,4.62,0,0,1-1.93,0c.17-.23.3-.43.44-.61s.3-.35.44-.53.18-.15.29-.07A7.1,7.1,0,0,0,31.58,33.87Zm-2.68.76c.42,0,.83,0,1.25,0a2.42,2.42,0,0,0,1.34-.4,1,1,0,0,1,.91-.1c.62.19,1.25.32,1.88.47l.47.08a5.81,5.81,0,0,0,1.25,0,5.5,5.5,0,0,0,1.15-.16c.16,0,.32-.06.47-.11a1.31,1.31,0,0,1,.83,0c.5.17,1,.34,1.5.49a4,4,0,0,0,.84.17,4.62,4.62,0,0,0,1.53,0c.28-.06.56-.15.84-.23a4.78,4.78,0,0,0,1.27-.7l.5-.33a.36.36,0,0,1,.35,0l1.27.43a14,14,0,0,0,1.91.56c.45.08.89.18,1.34.22a7.79,7.79,0,0,0,1.08,0,4.58,4.58,0,0,0,1.93-.63.88.88,0,0,1,.64-.09,5.18,5.18,0,0,0,1.71.21c.47-.06,1,0,1.42-.08a2.72,2.72,0,0,0,1.63-.69,6.6,6.6,0,0,1,.91,1.32c.13.28.31.54.44.82a2.3,2.3,0,0,1,.33.84,3.37,3.37,0,0,0,.35.9c.11.31.28.61.36.93.14.51.22,1,.33,1.56.07.37.13.74.2,1.11a1.42,1.42,0,0,1,0,.2c.06.61.12,1.22.16,1.84a5.27,5.27,0,0,1,0,.68c0,.67,0,1.34-.08,2A15.8,15.8,0,0,1,61,47.64c-.09.48-.2,1-.32,1.43a10.93,10.93,0,0,1-.37,1.1c0,.13-.52,1.54-.65,1.85-.05.11-.09.23-.13.34l-.06.09a4.2,4.2,0,0,0-.36.5,12.74,12.74,0,0,1-.79,1.22,9.48,9.48,0,0,1-.72.95c-.39.46-.81.89-1.21,1.32l-.3.31c-.29.28-.56.56-.86.83a4.25,4.25,0,0,1-.47.31c-.11.08-.21.19-.32.27s-.27.2-.4.3l-.36.26-.75.5a14,14,0,0,1-1.31.73c-.31.18-.65.3-.93.5a8.36,8.36,0,0,1-1.77.82,8.22,8.22,0,0,1-1.46.37c-.58.13-1.16.23-1.74.32a5.88,5.88,0,0,1-.94.1,15.1,15.1,0,0,1-2.33,0c-.53-.06-1.07-.07-1.59-.15a11.17,11.17,0,0,1-2.41-.59,3.33,3.33,0,0,1-.86-.44.87.87,0,0,0-.27-.14,7.71,7.71,0,0,1-2.07-1.13q-1-.74-2-1.5l-2-1.55c-.09-.07-1-1-1.08-1.16-.34-.46-.7-.91-1-1.39s-.52-.86-.77-1.3-.4-.62-.57-1a18.05,18.05,0,0,1-.8-1.66,10.18,10.18,0,0,1-.43-1.62c-.12-.67-.22-1.35-.28-2a18.21,18.21,0,0,1-.07-2.56c0-.58,0-1.16.07-1.73s.11-1.31.16-2a6,6,0,0,1,.36-1.52c.13-.37.23-.75.37-1.11.24-.57.47-1.14.74-1.69a11.79,11.79,0,0,1,.67-1.06A.37.37,0,0,1,28.9,34.63Zm54.19-6.06a.59.59,0,0,1-.41.28,1.26,1.26,0,0,0-.46.26l-.47.37-.45.38c-.43.37-.86.73-1.27,1.1a5.45,5.45,0,0,0-.46.5c-.12.12-.23.25-.36.37-.47.45-.94.91-1.43,1.35-.78.71-1.57,1.41-2.36,2.1A21.72,21.72,0,0,1,73.15,37a15.33,15.33,0,0,1-2.36,1.27,11.87,11.87,0,0,1-1.35.45.65.65,0,0,1-.31,0c-.94-.2-1.87-.39-2.81-.61-.56-.13-1.12-.3-1.68-.44l-2-.49-.91-.22a3.35,3.35,0,0,0-.44-.07,10.41,10.41,0,0,1,2.46-.91c.25-.06.5-.16.75-.24.43-.13.86-.26,1.28-.41l1.45-.51.91-.31.62-.22c.38-.13.76-.25,1.13-.39.61-.25,1.22-.53,1.83-.79l1.18-.47c.69-.27,1.39-.52,2.08-.78l1.33-.56c.55-.21,1.1-.41,1.64-.64,1.07-.46,2.16-.87,3.25-1.28C81.83,29.11,82.44,28.84,83.09,28.57Zm-16.66.83a8.86,8.86,0,0,1,.82-.4c.57-.22,1.14-.43,1.72-.61a4.49,4.49,0,0,1,.83-.13l.51-.08c.32,0,.64,0,1-.07a8.47,8.47,0,0,1,1.51,0l1.67.12,1.53.12c.48,0,1,.1,1.42.13l2.17.13,1.82.08h.2l1-.21v.05L81.27,29l-1.85.69-.67.29-2.15.85-3.42,1.35c-.61.24-1.21.5-1.81.75L68.56,34c-.41.16-.83.26-1.24.41s-.78.32-1.17.45c-.6.21-1.21.39-1.82.59-1,.32-2,.57-3,1-.13,0-.24.12-.36.18l-.28.12c0-.15.1-.21.15-.29a3.81,3.81,0,0,0,.46-.78A7.79,7.79,0,0,1,62,34.62s.08-.08.11-.13l1.18-1.85c.34-.53.65-1.07,1-1.59a8.26,8.26,0,0,1,.56-.76.76.76,0,0,1,.22-.17Zm8.36-14.32.12-.07,0,0c-.25.39-.48.79-.76,1.16-.59.81-1.2,1.61-1.82,2.41-.28.37-.6.71-.87,1.08-.38.53-.73,1.07-1.1,1.61-.11.17-.24.33-.35.51l-1.55,2.43c-.4.61-.82,1.21-1.21,1.83-.62,1-1.3,1.92-2,2.86-.52.74-1,1.51-1.49,2.26s-.85,1.36-1.3,2c-.26.37-.46.78-.71,1.16s-.41.52-.59.8a1.74,1.74,0,0,0-.23.45,8.22,8.22,0,0,1-.74,1.14c-.05-.06-.1-.09-.11-.12a4.7,4.7,0,0,0-.54-1.13c-.23-.4-.44-.82-.71-1.2-.48-.68-1-1.34-1.5-2,0,0,0,0,0,0s-.11-.3-.29-.38-.25-.24-.38-.37c0-.05,0-.11.06-.15.23-.25.47-.49.71-.73a1.21,1.21,0,0,1,.16-.16l1.59-1.33a5,5,0,0,1,.46-.34,6,6,0,0,0,.91-.76c.5-.45,1-.88,1.51-1.33s.78-.73,1.18-1.1.66-.59,1-.9.6-.61.9-.91l1.11-1.07.71-.7c.3-.29.6-.58.91-.86l1.33-1.25,1.41-1.31,1.28-1.25c.17-.16.37-.29.55-.45s.58-.52.87-.77.4-.28.6-.43Zm-16.17,7.7c.63-.3,1.23-.67,1.85-1,.35-.19.72-.34,1.08-.52l1.11-.59,1.63-.81c.16-.09.32-.21.48-.3l2.07-1.08,2.43-1.19c1-.5,2.1-1,3.16-1.5.45-.21.91-.37,1.37-.56.15-.06.3-.14.45-.21l0,.08c-.31.25-.62.5-.93.73a21.78,21.78,0,0,0-1.86,1.6c-.53.49-1.06,1-1.58,1.48l-1.7,1.6L67,21.64c-.48.45-1,.9-1.42,1.36s-1.15,1.18-1.75,1.75-1.17,1.05-1.75,1.58c-.14.12-.25.26-.39.38-.43.4-.85.81-1.3,1.19s-.89.73-1.34,1.1l-.71.58c-.27.22-.56.42-.83.65s-.38.37-.57.55l-.46.47c-.18-.17-.35-.35-.53-.51s-.49-.41-.74-.61-.38-.29-.57-.42-.64-.42-.95-.63-.84-.55-1.25-.85a10.88,10.88,0,0,0-1.34-.74,1.76,1.76,0,0,1-.62-.37l.91-.55c.17-.09.34-.17.5-.27.52-.32,1-.66,1.57-1,.22-.12.48-.17.71-.28l1.49-.77.89-.5,0,0A16.75,16.75,0,0,0,58.62,22.78ZM60.4,5.19a1,1,0,0,1,0,.21,8.54,8.54,0,0,0-.18,1.67,3.18,3.18,0,0,1-.07.62,4,4,0,0,0,0,1.14c0,.24,0,.49,0,.73L60,11.16c0,.22,0,.44,0,.65,0,.42,0,.84,0,1.25,0,.18-.07,1.73-.12,2s0,.6-.11.9c-.13.64-.27,1.29-.44,1.92a12.56,12.56,0,0,1-1.06,2.64c-.21.39-.46.76-.68,1.15s-.49.87-.74,1.31a1,1,0,0,1-.51.53c-.52.22-1,.52-1.52.78s-1,.48-1.5.75-.75.48-1.13.71l-.88.53-.64.37-.23.13a1.76,1.76,0,0,1,.06-.3c.17-.45.34-.9.52-1.35s.36-.86.54-1.29.44-1.13.67-1.69c.09-.2.19-.39.28-.59.18-.45.36-.89.55-1.34l.63-1.48c.26-.59.49-1.2.77-1.78s.67-1.29,1-1.94c.25-.49.49-1,.73-1.48s.39-.81.58-1.21.45-1,.69-1.46c.15-.32.33-.61.49-.92.08-.14.12-.3.19-.45s.18-.32.26-.49c.22-.45.43-.91.66-1.36.14-.29.31-.56.46-.85.26-.5.51-1,.77-1.52A.39.39,0,0,1,60.4,5.19ZM48.48,17.76a2.39,2.39,0,0,0,.15-.54c0-.11.07-.22.1-.33s.56-1.36.76-1.79a3.87,3.87,0,0,1,.27-.43,12.89,12.89,0,0,1,1.61-2.14c.42-.47.9-.89,1.36-1.33a2.44,2.44,0,0,0,.47-.34c0-.06.72-.52,1-.7s.46-.29.69-.43a8.25,8.25,0,0,0,1.48-1.08,7.47,7.47,0,0,1,.77-.59c.31-.24.62-.48.92-.74s.55-.46.81-.7a1.12,1.12,0,0,0,.21-.23,4,4,0,0,1,.77-.84,1,1,0,0,1,0,.2c-.26.5-.54,1-.8,1.51s-.47.93-.7,1.4l-.51,1.08L57,11.46c-.28.55-.55,1.1-.82,1.66-.07.13-.12.27-.19.41-.18.38-.34.76-.55,1.13a27.48,27.48,0,0,0-1.33,2.59c-.51,1.17-1.05,2.33-1.48,3.54-.25.71-.59,1.38-.89,2.07-.17.41-.32.83-.49,1.25s-.29.66-.42,1-.27.69-.4,1c-.06.17-.12.33-.19.5h-.06c-.05-.22-.12-.45-.16-.68a3.22,3.22,0,0,0-.25-.78,1.79,1.79,0,0,1-.09-.35c-.14-.51-.29-1-.43-1.53s-.26-1-.39-1.46c-.05-.15-.1-.31-.14-.46l-.51-1.63a1,1,0,0,1,0-.65A7.76,7.76,0,0,1,48.48,17.76ZM42.87,5.82,43,4.43s0,0,0-.08c-.06-.41,0-.82,0-1.24V3a7.77,7.77,0,0,0,0-1.67A.74.74,0,0,1,43,1a4.11,4.11,0,0,1,.3.94,6.52,6.52,0,0,0,.18.63c.12.38.24.76.34,1.14.22.91.43,1.81.64,2.72.13.52.25,1,.38,1.55s.31,1.29.47,1.94c.06.22.15.43.22.64A10.15,10.15,0,0,1,46,12c.1.46.24.92.35,1.38.17.67.32,1.35.48,2s.28,1.34.45,2c.24.93.49,1.85.76,2.77.18.63.42,1.25.6,1.88.27,1,.53,1.92.79,2.89.13.48.25,1,.37,1.46a3.32,3.32,0,0,1,.08.41A27.82,27.82,0,0,0,43.76,26l-.06-.64-.09-1.1c0-.11,0-.23,0-.34,0-.62-.07-1.24-.08-1.85s0-1,0-1.54,0-1.14,0-1.7c0-.71-.08-1.41-.1-2.11,0-.51,0-1-.06-1.54s-.06-1-.09-1.49c0-.68-.07-1.36-.12-2,0-.42-.1-.83-.12-1.25-.05-.67-.07-1.35-.1-2,0-.35-.05-.7-.06-1.05s0-.51,0-.77S42.86,6.07,42.87,5.82ZM38.8,17.76c0-.15,0-.3.07-.45.09-.37.2-.73.29-1.1.16-.62.3-1.25.46-1.88s.26-1,.38-1.52.16-.76.25-1.13.17-.6.25-.9c0,0,.18-.68.23-1s.16-.38.19-.59c.07-.44.24-.85.31-1.29.11-.7.39-1.36.51-2.06.08-.5.27-1,.35-1.48s.22-1,.34-1.47a10,10,0,0,1,.28-1,1.85,1.85,0,0,1,0,.23c0,.56,0,1.12,0,1.68S42.64,5,42.63,5.54c0,.87-.08,1.73,0,2.6s.12,1.78.19,2.67l.12,1.59c.06,1.09.13,2.18.19,3.27s.12,2.33.16,3.5c0,.65,0,1.29,0,1.94s0,1.54.06,2.31c0,.2,0,.4,0,.6s.05.55.08.82a4.71,4.71,0,0,1,0,1.18,15.16,15.16,0,0,0-3.24.32c-1,.27-2.06.63-3.09.95a1.34,1.34,0,0,1-.1-.59c.07-.54.18-1.08.3-1.61s.21-1.17.32-1.76.21-1,.32-1.5a15.22,15.22,0,0,0,.35-1.76,5.74,5.74,0,0,1,.22-.91C38.54,18.69,38.68,18.23,38.8,17.76ZM27.36,5.92c.05.07.11.13.16.19a10.87,10.87,0,0,0,1,1.39c.17.18.31.39.47.58a9.18,9.18,0,0,0,1.57,1.35,20.79,20.79,0,0,0,2.14,1.47c.79.48,1.57,1,2.37,1.46a8.3,8.3,0,0,1,2.25,2.09,5.45,5.45,0,0,1,.79,1.11c.18.36.37.72.54,1.09a.41.41,0,0,1,0,.27c-.23,1-.47,2-.71,3-.13.57-.29,1.13-.41,1.69s-.19,1.11-.3,1.66c-.16.82-.35,1.65-.52,2.47,0,.2-.06.39-.09.59l-.08,0-.22-.42L36,25.2,36,25.13a9.14,9.14,0,0,0-.62-1.52c-.2-.44-.35-.9-.53-1.35,0-.14-.13-.27-.19-.41l-.72-1.63c-.25-.54-.5-1.07-.76-1.6-.12-.24-.27-.47-.4-.71,0,0,0-.09,0-.14L32.2,16.7c-.11-.22-.2-.43-.31-.65-.21-.41-.43-.82-.63-1.23-.12-.24-.22-.5-.34-.75s-.36-.71-.53-1.07-.38-.82-.57-1.23c0,0,0-.09-.05-.13-.09-.2-.18-.4-.28-.59-.25-.55-.52-1.1-.77-1.65-.12-.26-.21-.54-.31-.82a2.77,2.77,0,0,0-.1-.26c-.19-.42-.39-.84-.57-1.26s-.29-.73-.43-1.1Zm1.92,16.22a12.94,12.94,0,0,1-1.21-2.41,12.23,12.23,0,0,1-.31-1.19c-.09-.37-.16-.75-.22-1.13a2.07,2.07,0,0,1,0-.43c0-.34,0-.68,0-1,0-.09,0-1.27,0-1.71,0-.24,0-2.64,0-3.1,0-.25,0-.49,0-.74-.05-.7-.14-1.4-.18-2.1a15.11,15.11,0,0,0-.25-1.91C27,6.27,27,6.14,27,6L27,6a2.92,2.92,0,0,1,.14.31l.57,1.36c.17.42.34.85.52,1.26s.39.88.59,1.32l.92,2.07c.17.37.35.72.53,1.08.29.58.57,1.17.87,1.76.15.31.32.62.48.94.27.56.54,1.13.82,1.69s.5,1,.74,1.5c.34.69.68,1.38,1,2.09s.62,1.45.92,2.18c.23.58.43,1.17.7,1.74a8,8,0,0,0,.72,1.54c0,.05,0,.15,0,.27-.17-.07-.3-.1-.41-.16l-1.79-1.05a1.19,1.19,0,0,0-.15-.09,1.61,1.61,0,0,1-.42-.25c-.32-.21-.66-.37-1-.55s-.34-.21-.5-.32a15,15,0,0,0-1.67-1,5.22,5.22,0,0,1-.48-.34.1.1,0,0,1-.05,0A11.28,11.28,0,0,0,29.28,22.14ZM14.21,13.87l.16.08c.76.46,1.53.91,2.26,1.42.5.35,1,.63,1.56,1l1,.62,1.29.82,1,.64c.52.32,1.06.63,1.58,1s1.19.79,1.79,1.16,1.07.58,1.59.9,1.09.6,1.63.91,1.14.69,1.7,1l.83.51c.6.37,1.19.76,1.78,1.13l.88.52,1.2.73,1.75,1c.12.07.24.12.42.21-.19.09-.57.27-.69.34a17.46,17.46,0,0,0-2.09,1.42c-.52.41-1,.91-1.48,1.32s-.77.64-1.16,1a.77.77,0,0,1-.18-.1c-.44-.37-.88-.74-1.3-1.14S24.5,25,24.21,24.6s-.83-.9-1.22-1.38c-.23-.27-.5-.51-.73-.78s-.65-.71-.94-1.09-.67-.73-1-1.1l-.89-1c-.1-.12-.21-.23-.31-.34-.28-.29-.58-.57-.84-.88s-.6-.53-.87-.81c-.56-.6-1.18-1.13-1.72-1.75-.39-.44-.82-.84-1.23-1.26A3.43,3.43,0,0,1,14.21,13.87Zm6.54,12.4c-.17-.34-.36-.67-.54-1s-.36-.73-.56-1.08a7.24,7.24,0,0,1-.54-.93c-.23-.14-2-3.52-2.16-3.83s-1.76-3.32-2-3.71a1.91,1.91,0,0,1-.16-.32,3.13,3.13,0,0,1-.36-.88l.65.67,1.1,1.12c.71.71,1.44,1.4,2.15,2.11.34.34.63.71.95,1.06s.69.77,1,1.15c.62.67,1.25,1.33,1.86,2,.18.2.34.41.52.61l1.77,2,1.73,1.89c.32.34.62.69.94,1s.64.6,1,.91.37.43.57.63.53.46.78.7c.48.44.95.88,1.43,1.34l-.06.08c-.36.36-.74.71-1.09,1.07a10,10,0,0,0-.75.86c-.29.38-.54.78-.83,1.16a5.61,5.61,0,0,0-.71,1.32c-.1.26-.25.49-.36.74a2.44,2.44,0,0,0-.14.34.27.27,0,0,1-.23-.17c-.32-.6-.63-1.21-1-1.78-.21-.32-.34-.66-.53-1-.41-.67-.79-1.36-1.18-2-.18-.33-.33-.68-.52-1S23,30.42,22.8,30c-.06-.1-.13-.19-.18-.29C22.47,29.44,20.81,26.38,20.75,26.27Zm-16,1.91,1-.08A12.81,12.81,0,0,1,7.22,28a9.78,9.78,0,0,0,1.53-.26c.52-.09,1.05-.11,1.57-.22a9.11,9.11,0,0,1,1.73-.14c.3,0,.6-.05.91-.07s.45,0,.68,0a3,3,0,0,1,.42,0,20.33,20.33,0,0,1,2.91.38c.58.12,1.16.19,1.74.32s.88.24,1.32.36l.82.25a5.52,5.52,0,0,0,.54.16,1.22,1.22,0,0,1,.81.74,5.7,5.7,0,0,0,.3.54c.08.15.15.31.24.45.18.33.38.66.56,1s.23.46.34.69a13.79,13.79,0,0,0,.87,1.54c.25.4.44.85.68,1.27s.62,1,.93,1.57c.1.17.18.35.28.55a2,2,0,0,1-.79-.28c-.46-.21-.9-.44-1.35-.67s-.65-.36-1-.53-.74-.38-1.12-.57l-.74-.35-.53-.28c-.52-.26-1-.52-1.56-.76s-1.13-.51-1.7-.76l-.2-.1L16,32.1l-.8-.34c-.27-.12-.54-.23-.82-.33-.51-.17-1-.32-1.54-.48l-.21-.09a.75.75,0,0,0-.12-.07l-1-.31c-.2-.07-.39-.15-.59-.21-.62-.19-1.25-.36-1.88-.56l-1.46-.47-1.69-.55c-.22-.07-.42-.18-.63-.27l-.53-.19Zm13.85,11c-.59-.16-1.19-.31-1.77-.52A4.08,4.08,0,0,1,16,38.3a11.59,11.59,0,0,1-1.38-1,1.22,1.22,0,0,1-.3-.3A12.37,12.37,0,0,0,12.59,35c-.18-.18-.34-.38-.52-.56-.33-.35-.68-.68-1-1-.06-.06-.1-.12-.15-.18A7.62,7.62,0,0,0,9.61,32c-.26-.21-.51-.45-.77-.67a3.57,3.57,0,0,0-.38-.25c-.63-.43-1.25-.89-1.89-1.31S5.33,29,4.72,28.69l-.13-.1,0-.07.85.32,2,.65c.81.27,1.62.53,2.44.78.64.2,1.3.38,1.94.59s1.24.43,1.85.65l1.69.61.16.06c1.4.64,2.8,1.26,4.18,1.92,1.16.54,2.3,1.13,3.45,1.7.17.08.32.19.49.28l1.78.9.67.32c.17.08.35.13.53.2l.11.06c-.24.11-.44.21-.66.29l-1.16.37c-.25.08-.49.16-.74.22s-.48.09-.72.14l-2,.46a12.17,12.17,0,0,1-1.27.29A4.26,4.26,0,0,1,18.58,39.23ZM.46,44.7l0-.06a1.88,1.88,0,0,1,.3-.12l1.82-.47c.89-.22,1.78-.41,2.66-.65s1.59-.46,2.38-.68l1.68-.45,2.37-.65c.73-.2,1.47-.38,2.21-.57.15,0,.3-.11.46-.14l.89-.19L17,40.39c.16,0,.33-.1.49-.13.78-.17,1.55-.32,2.32-.5.41-.09.82-.22,1.23-.33l1.42-.34c.73-.17,1.46-.32,2.19-.5.52-.13,1-.31,1.53-.47l.48-.11c-.15.73-.32,1.4-.42,2.07s-.14,1.38-.22,2.06a19.87,19.87,0,0,0-.07,2c-.47.06-.9.1-1.33.18a9.42,9.42,0,0,1-1.84.09c-.36,0-.72,0-1.08-.05h-.17l-2.5,0-2.59,0c-.22,0-.44,0-.65,0-.7.06-1.39.08-2.09.08-.33,0-.66,0-1,.05h-.82c-.25,0-.5,0-.75,0a7.73,7.73,0,0,1-1,0,1.67,1.67,0,0,0-.31,0,21.31,21.31,0,0,1-2.26,0c-.13,0-.27.06-.4.05-.48,0-1,0-1.44,0s-.8,0-1.2,0c-.94,0-1.88.07-2.82.08A10.2,10.2,0,0,1,.46,44.7Zm15.7,3.67c-.69-.13-1.36-.28-2.05-.4L12,47.63a4.1,4.1,0,0,1-1.17-.33,1.85,1.85,0,0,0-.49-.12L9.11,46.9c-.45-.1-.89-.19-1.33-.3L7,46.4l-2.44-.59c-.47-.11-.93-.27-1.41-.34a10.39,10.39,0,0,1-1.46-.36l1.54-.06L5.63,45c.72,0,1.45,0,2.17,0l1.77,0L13,44.86c.41,0,.82,0,1.23-.06L16,44.74c.76,0,1.52,0,2.28,0s1.41,0,2.11,0c.33,0,.65,0,1,0l1.34,0c.48,0,1,0,1.45,0s.77-.11,1.16-.16a4.19,4.19,0,0,1,.54,0c0,.46,0,.87.05,1.27,0,.58.14,1.15.17,1.73a12,12,0,0,0,.4,2.15,8.68,8.68,0,0,0,.43,1.17A1.56,1.56,0,0,0,27,51a.31.31,0,0,1-.15,0c-.39-.08-.78-.15-1.16-.25-.56-.14-1.1-.3-1.65-.45s-1.14-.28-1.72-.42-1.46-.33-2.18-.51c-.27-.07-.52-.18-.78-.27a1.06,1.06,0,0,0-.19-.06c-.58-.12-1.14-.29-1.7-.46S16.59,48.46,16.16,48.37ZM3.73,60.68a1.88,1.88,0,0,1,.33-.36,2.69,2.69,0,0,0,.62-.76c.2-.29.41-.57.61-.85s.41-.53.59-.81a13.82,13.82,0,0,1,1.78-2.33c.44-.45.89-.9,1.36-1.33.85-.76,1.68-1.57,2.61-2.25.7-.51,1.43-1,2.17-1.47.33-.21.7-.35,1-.53l.8-.38a3.38,3.38,0,0,1,.72-.24c.43-.09.87-.13,1.3-.19a2.8,2.8,0,0,1,1.18.14c.72.21,1.44.42,2.16.61,1,.25,2,.46,2.94.71.61.15,1.21.34,1.81.51l.55.13v0a2.53,2.53,0,0,1-.23.12l-1.48.43-.61.21-.47.14-1.46.48a18.07,18.07,0,0,0-2.15.84c-.43.2-.88.4-1.32.58L16.5,55c-.21.08-.39.2-.59.28s-.57.21-.85.33l-1,.43-.74.31-1.59.75-.66.29c-.55.26-1.09.56-1.66.78s-1.19.56-1.79.83c-.45.2-.9.41-1.33.65-.24.13-.51.22-.76.33a12.77,12.77,0,0,0-1.69.75A.14.14,0,0,1,3.73,60.68Zm16.93-1.5a3.73,3.73,0,0,1-.4.14,15.4,15.4,0,0,1-1.77.61,5,5,0,0,1-.66.11c-.39.06-.77.14-1.16.18a9.75,9.75,0,0,1-1.08,0l-1,0-1.71,0c-.12,0-.23,0-.34,0l-.45,0-.11,0-1.56-.07c-.23,0-.45,0-.68-.06a11.34,11.34,0,0,0-2.33,0,10.73,10.73,0,0,0-1.88.34c-.13,0-.27.06-.41.09v-.05l.25-.1c.65-.3,1.31-.6,2-.92l2.05-1c.67-.32,1.36-.62,2-.94,1.05-.48,2.09-1,3.15-1.46.8-.34,1.61-.64,2.41-1s1.84-.77,2.77-1.14,1.79-.72,2.7-1.07c.38-.14.78-.23,1.17-.36l1.12-.35c.39-.11.79-.2,1.18-.32a5.68,5.68,0,0,0,.63-.27l.35-.17,0,0a1.77,1.77,0,0,1-.16.34L26,52.94l-.16.24-1,1.37-.65,1c-.14.2-.3.38-.44.58-.33.45-.66.9-1,1.36-.12.17-.2.36-.32.53a1.65,1.65,0,0,1-.6.51ZM12.55,73.26c0-.07.07-.14.11-.2.13-.24.27-.48.41-.71L13.3,72c.53-.75,1-1.52,1.58-2.26s.89-1.16,1.31-1.76.88-1.24,1.31-1.87.92-1.34,1.37-2,.84-1.33,1.26-2c.08-.12.17-.24.24-.36l1.26-2c.2-.32.42-.63.63-1A10.49,10.49,0,0,0,23,57.66a12.17,12.17,0,0,1,1.1-1.56c.36-.48.69-1,1-1.47s.61-.82.9-1.24.78-1.15,1.17-1.73l.1-.15A21.1,21.1,0,0,0,29,54.29a13.2,13.2,0,0,0,2,2.47c-.34.36-.65.7-1,1a6.53,6.53,0,0,1-.63.53c-.41.35-.83.7-1.25,1s-.7.55-1.05.82l-1.63,1.26c-.11.08-.21.19-.32.28-.58.52-1.17,1-1.74,1.55s-.87.89-1.31,1.33-.85.84-1.27,1.27c-.17.16-.33.34-.5.5s-.26.21-.39.32-.21.22-.31.32l-.55.53c-.14.12-.29.23-.43.36s-.57.53-.85.8l-1,.91c-.34.3-.68.61-1,.9s-.51.4-.75.61l-1.33,1.18C13.31,72.61,13,73,12.55,73.26Zm14.93-7.1-1.6.88c-.37.21-.73.43-1.11.63l-2.18,1.1c-.29.15-.56.33-.84.47-.74.38-1.48.74-2.22,1.11-.43.21-.88.4-1.3.64s-1,.5-1.51.77-1,.44-1.46.68-.91.39-1.36.58l-.79.38a.5.5,0,0,1-.28,0,1.79,1.79,0,0,1,.13-.14c.46-.44.91-.89,1.39-1.31s1.21-1,1.82-1.56,1.22-1,1.81-1.52,1-1,1.51-1.44L21.06,66c.29-.26.55-.55.83-.83.55-.56,1.1-1.13,1.67-1.67s1.1-1,1.66-1.47,1.31-1,2-1.58,1.37-1.14,2.06-1.71a6.72,6.72,0,0,1,.73-.56,6,6,0,0,0,1.07-1l.26-.25c.13.11.23.2.34.28l1.08.8.23.17a16.84,16.84,0,0,0,1.52,1.15l1,.7a6.79,6.79,0,0,0,1.38.8l.13.07L37,61l-.21.13c-.39.2-.79.37-1.16.59-.67.39-1.34.77-2,1.21a9.59,9.59,0,0,1-.91.45c-.32.19-.64.37-1,.54l-.67.31-1.29.66-.93.49Zm-.63,16.33c-.1.21-.23.42-.35.63l-.05,0a.43.43,0,0,1,0-.16,9,9,0,0,0,.16-1.27c0-.46.15-.92.19-1.38s.09-1.14.13-1.71c.08-1.12,0-2.24,0-3.36a19.84,19.84,0,0,1,.22-3.61,14.73,14.73,0,0,1,.4-1.84c.15-.53.23-1.09.38-1.63a8.14,8.14,0,0,1,.67-1.78,1.79,1.79,0,0,1,.6-.71c.15-.08.25-.24.39-.32.4-.22.81-.42,1.22-.62a1.23,1.23,0,0,0,.25-.14,4,4,0,0,1,.57-.33l2.21-1.12c.21-.11.41-.26.62-.38a17.31,17.31,0,0,1,2.2-1.23,1,1,0,0,1-.12.45l-1.29,2.48c-.12.24-.22.5-.34.74l-.36.72-.66,1.31c-.24.48-.46,1-.69,1.43L32.48,70c-.21.42-.42.85-.62,1.28a8.08,8.08,0,0,1-.37.85c-.3.49-.45,1-.73,1.53-.13.23-.2.49-.31.72s-.22.38-.3.58c-.2.45-.39.9-.58,1.35a14.69,14.69,0,0,0-.64,1.48c-.13.41-.42.73-.55,1.13s-.34.81-.51,1.21l-.63,1.46C27.11,81.87,27,82.19,26.85,82.49ZM39.32,69.66a4.54,4.54,0,0,1-.18.63,8.13,8.13,0,0,1-.38.85c-.2.39-.41.77-.64,1.14a6.81,6.81,0,0,1-1.55,2c-.43.33-.88.63-1.32.94l-1.93,1.33c-.14.1-.3.16-.44.26-.56.43-1.16.81-1.68,1.29-.33.3-.7.54-1,.82s-.48.48-.72.73l-.28.28-1.09,1.16a5.36,5.36,0,0,0-.34.49c0,.06-.09.11-.13.16l-.07,0c.07-.19.13-.37.21-.55A26.8,26.8,0,0,1,29,78.39c0-.08,1-2.39,1.43-3.32.24-.51.5-1,.74-1.53.14-.3.24-.63.38-.93q.66-1.39,1.35-2.79c.41-.84.84-1.67,1.26-2.5s.76-1.48,1.14-2.23c.16-.32.3-.65.46-1,.26-.5.53-1,.78-1.49.18-.35.34-.72.5-1.08a.74.74,0,0,1,.26-.35.88.88,0,0,1,.12.2c.07.19.13.38.2.56a11.52,11.52,0,0,1,.28,1.16,22.54,22.54,0,0,0,.61,2.28c.15.44.25.89.37,1.34l.23.86c.11.42.23.84.34,1.26A1.72,1.72,0,0,1,39.32,69.66Zm5.41,15.85A5.74,5.74,0,0,1,44.61,87s0,0-.06.06a2.71,2.71,0,0,1-.24-.71A13.11,13.11,0,0,0,43.89,85a12.57,12.57,0,0,1-.34-1.24c-.28-1.09-.55-2.19-.83-3.28-.2-.78-.39-1.55-.59-2.32-.29-1.06-.6-2.11-.87-3.17-.24-.9-.45-1.8-.65-2.71-.07-.31-.1-.62-.16-.93a7.34,7.34,0,0,0-.21-.77c-.12-.38-.26-.77-.38-1.16,0-.15-.4-1.46-.52-1.9-.23-.78-.42-1.58-.65-2.37s-.45-1.48-.61-2.24c0-.09,0-.19,0-.28-.07-.3-.15-.59-.22-.88,0-.13-.07-.25-.12-.41.26.09.48.16.69.25a10.42,10.42,0,0,0,3.07.67l1.56.14c.26,0,.53,0,.83,0,0,.1,0,.19,0,.28,0,.58,0,1.16,0,1.74,0,.9,0,1.79,0,2.68,0,.45,0,.89,0,1.34,0,.69.08,1.38.12,2.08s.06,1.25.1,1.87c0,.44.06.87.1,1.31,0,.63.12,1.26.18,1.9s.11,1.22.16,1.84a4.38,4.38,0,0,1,0,.51c0,.11,0,.23,0,.35,0,.44.05.87.07,1.31,0,.75.07,1.5.09,2.24s0,1.52,0,2.28c0,.3.06.6.07.9S44.71,85.34,44.73,85.51Zm3.69-14.13-.36,1.35c-.07.24-.13.47-.19.71-.1.43-.21.85-.31,1.27s-.15.59-.21.88-.12.69-.19,1c0,.17-.1.34-.14.51-.09.35-.16.7-.24,1s-.15.57-.22.86c-.15.62-.31,1.25-.45,1.88s-.25,1.13-.37,1.7c-.08.38-.13.78-.22,1.16A5,5,0,0,1,45,85.48c0-.22,0-.43,0-.64s0-.33,0-.49l-.06-2.22c0-.65,0-1.29-.06-1.94-.05-1.14-.1-2.29-.18-3.44,0-.75-.13-1.5-.19-2.25,0-.49-.08-1-.12-1.47s-.07-.87-.1-1.31,0-.75-.06-1.13-.09-.9-.11-1.36,0-1.15,0-1.73,0-1.18,0-1.77c0-.37,0-.75,0-1.13,0-.7,0-1.39.05-2.08l0-.14c.43-.05.86-.08,1.28-.14s.77-.12,1.15-.18l.71-.1a7.76,7.76,0,0,0,1.59-.42L50.26,61l.25-.07a1.16,1.16,0,0,1,0,.66c-.07.47-.18.93-.25,1.4,0,.27-.47,2.11-.63,2.71s-.3,1.27-.43,1.92-.21,1.28-.33,1.93c0,.22-.12.43-.18.65ZM59.73,83.13c-.25-.43-.49-.86-.74-1.28a15.17,15.17,0,0,0-.88-1.37,8.86,8.86,0,0,0-1.22-1.23,19.82,19.82,0,0,0-2.27-1.71c-.49-.33-1-.68-1.46-1a26.76,26.76,0,0,1-2.93-2.36,2.88,2.88,0,0,1-.65-.9c-.23-.42-.44-.86-.64-1.3a1.54,1.54,0,0,1-.08-1.06c.12-.5.23-1,.33-1.53s.22-1.13.33-1.7.29-1.39.45-2.09a6.69,6.69,0,0,1,.29-.86,5.77,5.77,0,0,0,.28-1.16c.1-.52.18-1,.27-1.57,0-.1,0-.2.08-.32.27.59.54,1.15.77,1.72.3.75.57,1.51.85,2.27.23.59.44,1.19.68,1.78s.57,1.37.85,2.05.42,1.12.65,1.68.53,1.22.8,1.83c.13.3.27.6.4.91s.21.52.34.78c.28.56.49,1.16.78,1.72.17.34.28.71.43,1s.21.41.31.61.18.34.26.51c.23.49.47,1,.7,1.49s.41.88.59,1.32.4,1,.59,1.58a3.37,3.37,0,0,1,.19.66C60,83.48,59.84,83.31,59.73,83.13Zm-.84-16.64c.14.21.27.41.39.63a5.88,5.88,0,0,1,.33.72,8.36,8.36,0,0,1,.44,1.5,6.88,6.88,0,0,1,.09,1.92c0,.12,0,.23,0,.34A12.47,12.47,0,0,1,60,73.33c0,.25-.05.51-.08.76-.08.8-.16,1.61-.22,2.41,0,.21,0,.42,0,.63,0,.44,0,.89,0,1.33,0,.65,0,1.29.05,1.93,0,.35.1.69.14,1l.09.93h-.07c-.06-.17-.13-.34-.2-.52-.15-.4-.3-.82-.47-1.22s-.41-.87-.62-1.31-.51-1.1-.77-1.65c-.13-.29-.28-.58-.42-.87s-.31-.67-.45-1c-.22-.51-.42-1-.64-1.52s-.6-1.28-.88-1.92c-.2-.43-.37-.87-.55-1.31-.11-.27-.22-.53-.32-.79s-.2-.56-.32-.83-.18-.39-.27-.59c-.14-.36-.27-.73-.42-1.09-.21-.54-.43-1.08-.65-1.62,0-.11-.09-.22-.13-.34-.13-.33-.71-1.88-.82-2.24-.22-.7-.61-1.33-.83-2l0-.11s0,0,.06,0l1.23.71.85.5c.53.31,1,.64,1.58.9.3.14.56.34.86.49.55.27,1.07.6,1.6.91l.32.17a3.56,3.56,0,0,1,1,1C58.72,66.22,58.8,66.35,58.89,66.49Zm15.38,7.9-.41-.24-.56-.33-.25-.15-1.65-1c-.36-.22-.71-.47-1.08-.69q-.9-.54-1.83-1c-.24-.13-.5-.22-.74-.36-.47-.26-.93-.54-1.4-.81L65,68.94c-.24-.14-.48-.27-.71-.42l-1.83-1.11c-.32-.19-.65-.35-1-.53-1.09-.61-2.18-1.21-3.25-1.84-.35-.2-.72-.38-1.07-.58l-1-.59c-.45-.26-.91-.51-1.36-.78l-2.16-1.27c-.4-.24-.79-.5-1.18-.74l-.33-.18c-.12-.07-.14-.14,0-.26a.74.74,0,0,1,.21-.18c.69-.4,1.39-.79,2.07-1.2.31-.19.59-.43.88-.65l1.19-.93c.32-.26.62-.53,1-.81l.71.79.39.42L59,59.67a1.24,1.24,0,0,0,.21.19,14.11,14.11,0,0,1,1.6,1.49l1.85,1.9c.42.43.86.85,1.29,1.27l.93.89c.6.55,1.2,1.1,1.79,1.66.12.12.22.25.35.36.58.5,1.14,1,1.7,1.53s.93.9,1.39,1.34l.8.77,1.72,1.62.89.84.82.8ZM67.09,61.72c.43.67.82,1.37,1.22,2.06l.22.32c.27.4.55.79.81,1.2s.48.81.72,1.22.35.56.52.85l.33.56c.26.43.52.86.77,1.29.16.27.31.55.46.82L73,71.55c.22.38.43.76.64,1.14a3.21,3.21,0,0,0,.29.46,2.78,2.78,0,0,1,.33.67l-.05,0-1-.87-.75-.75c-.56-.55-1.12-1.1-1.69-1.64S69.68,69.53,69.1,69s-1.22-1.14-1.86-1.68-1.18-1.15-1.79-1.7-1.08-1-1.62-1.56c-.34-.32-.68-.63-1-1l-1.25-1.33c-.18-.19-.37-.38-.56-.56-.57-.53-1.15-1.05-1.72-1.59-.23-.22-.44-.46-.67-.69-.41-.42-.83-.82-1.22-1.24s-.59-.7-.89-1a22.38,22.38,0,0,0,3.89-5.55.82.82,0,0,1,.4.38c.33.51.64,1,1,1.55.49.81,1,1.61,1.45,2.42.29.49.54,1,.82,1.49a4,4,0,0,0,.33.47c0,.06.07.12.11.17l.66,1.12.15.24c.07.13.12.26.2.38C66.07,60.08,66.57,60.91,67.09,61.72Zm16.09-1.41-.05,0a5.35,5.35,0,0,0-1.37-.26c-.81-.07-1.62-.17-2.44-.22-.62,0-1.25,0-1.88,0a4.92,4.92,0,0,0-.76.09l-2.43.38c-.72.1-1.45.2-2.18.27s-1.46.1-2.19.12a6.43,6.43,0,0,1-1.24-.11,7.49,7.49,0,0,1-1.12-.32c-.27-.1-.52-.23-.78-.34a2.89,2.89,0,0,1-1-.77,5.37,5.37,0,0,1-.53-.81c-.2-.33-.41-.66-.6-1-.36-.64-.7-1.29-1.06-1.94-.25-.44-.5-.87-.76-1.3s-.37-.62-.56-.93-.54-.8-.79-1.21a4.16,4.16,0,0,0-.65-1s0,0,0-.07A1.4,1.4,0,0,1,61,51a20.08,20.08,0,0,0,2.07.8c.4.14.79.31,1.19.46l.73.25c.29.1.58.18.85.3s.75.37,1.12.55l1.05.52,1.17.53,2.3,1,1.58.73c.4.18.83.31,1.22.52s1,.35,1.46.61a7.89,7.89,0,0,0,1,.39l2.67,1,1.85.72.08,0a15.63,15.63,0,0,1,1.75.71S83.13,60.27,83.18,60.31ZM71.24,48.91c.32.1.66.17,1,.3a3.43,3.43,0,0,1,.7.44c.48.35,1,.72,1.42,1.08l0,0c.2.23.4.47.59.71a5.8,5.8,0,0,0,.62.77,5.9,5.9,0,0,1,.44.58c.18.21.34.44.51.67a1.45,1.45,0,0,1,.17.26,3,3,0,0,0,.52.71c.17.19.32.4.49.59a10.32,10.32,0,0,0,1,1.07,4.48,4.48,0,0,1,.47.5c.13.15,1.21.88,1.52,1.17l.47.42,1.69,1.51a5.47,5.47,0,0,1-1.13-.31l-1.46-.58-1.06-.41-2-.79-1-.37-1.63-.67-1.83-.79-1.06-.5-2.55-1.15-1.83-.86-1.93-.9a4.13,4.13,0,0,0-.45-.17l-1.19-.42c-.47-.16-1-.32-1.42-.51s-.89-.37-1.39-.58a.84.84,0,0,1,.2-.11l1.75-.53q.93-.29,1.86-.54c.44-.13.88-.23,1.32-.35.85-.24,1.7-.51,2.55-.72a2.63,2.63,0,0,1,.84,0A7.13,7.13,0,0,1,71.24,48.91Zm14.83-5.26c-.68.22-1.4.31-2.06.57a7.3,7.3,0,0,1-1,.27c-.9.2-1.8.38-2.7.61-.57.14-1.12.35-1.68.51s-1.07.3-1.6.45l-.78.25-.84.23c-.64.19-1.28.38-1.92.55a11.6,11.6,0,0,1-1.42.31,21,21,0,0,0-3.15.67c-1.13.35-2.26.65-3.4,1-.62.16-1.24.3-1.85.47s-1,.31-1.47.46l-1.31.4-.33.09c0-.15,0-.26.07-.36a18.73,18.73,0,0,0,.63-2.45,19,19,0,0,0,.3-2.91c0-.23,0-.47.05-.74l.49,0,1.77,0c.14,0,.28,0,.43,0a11.29,11.29,0,0,0,1.93,0L68,43.9c.22,0,.44,0,.65,0l2-.09c.54,0,1.08,0,1.62,0l1.2,0c.19,0,.38,0,.56,0,.42,0,.84,0,1.25-.05s.52,0,.77,0,.54,0,.8,0c1-.12,2-.06,3-.13.54,0,1.08,0,1.62-.05l2.62,0,.4,0c.45,0,.9-.06,1.36-.07.3,0,.6,0,.9,0l0,0ZM34.85,45c-.14.14-.29.26-.48.43a.7.7,0,0,1,.09-.46c.15-.19.26-.4.4-.59a2.08,2.08,0,0,1,.3-.25c.14.09.29.17.43.27a2.65,2.65,0,0,0,1.16.58,2.32,2.32,0,0,0,.59,0,10.64,10.64,0,0,0,1.37-.25,3.81,3.81,0,0,0,.79-.43c.08,0,.14-.11.21-.15s.2-.09.32,0l.36.4c.08.1.19.25.1.34s-.22-.05-.32-.13l-.36-.29-.38.24c0,.31.36.56.16.93-.3-.14-.29-.5-.53-.71a3.69,3.69,0,0,0-.42.17s-.07.12-.06.17a2.7,2.7,0,0,0,.09.48.59.59,0,0,1-.05.45c-.13,0-.18,0-.2-.12s-.08-.37-.12-.56,0-.18,0-.3l-.64.08a3.86,3.86,0,0,0,0,.5c0,.19,0,.19-.13.39l-.21-.09c0-.14,0-.27,0-.39,0-.34-.17-.49-.46-.46h-.14l-.12.5a1.36,1.36,0,0,1-.14.33c0,.05-.13,0-.19.06s-.05-.12,0-.18a4.47,4.47,0,0,1,.14-.61.19.19,0,0,0-.14-.28l-.3-.13a2.16,2.16,0,0,0-.34.59c0,.09,0,.19-.19.15a.19.19,0,0,1-.1-.28c.11-.21.23-.4.37-.64l-.43-.31C35.09,44.68,35,44.84,34.85,45ZM47.09,45a3.91,3.91,0,0,0,.62-1.11A.39.39,0,0,1,48,44a4.65,4.65,0,0,0,.93.64,3.23,3.23,0,0,0,1.26.3,2.39,2.39,0,0,0,1.5-.53,1.27,1.27,0,0,0,.46-.46.41.41,0,0,1,.19-.2c.07,0,.22,0,.26,0,.2.23.49.4.57.73,0,.06,0,.12,0,.22-.29-.11-.37-.41-.64-.51l-.25.23a4.64,4.64,0,0,1,.28.45s0,.12,0,.21a.57.57,0,0,1-.19-.08,1.8,1.8,0,0,1-.2-.19c-.21-.19-.26-.18-.47,0a1,1,0,0,1,.17.84.7.7,0,0,1-.29-.3l-.27-.36-.52.2a3,3,0,0,0,0,.43c0,.13.08.26,0,.38a.28.28,0,0,1-.28-.27l-.06-.49H50a1.84,1.84,0,0,0-.07.47.67.67,0,0,1-.18.45.42.42,0,0,1-.19-.6c.06-.12.13-.22.08-.36l-.71-.23c-.09.19-.18.35-.27.52s-.16.2-.37,0c.1-.22.2-.43.33-.69-.29-.1-.44-.38-.75-.44a4.13,4.13,0,0,0-.25.38A.38.38,0,0,1,47.09,45ZM42.77,50.7c.11-.78.21-1.56.31-2.34.13-1,.28-2,.4-3,.05-.38.07-.77.1-1.16,0-.1,0-.17.12-.2a.42.42,0,0,1,.13.4c0,.94-.26,1.84-.36,2.77s-.22,1.79-.35,2.68c-.09.67-.2,1.35-.3,2,0,.25-.09.51-.12.76a2.25,2.25,0,0,0,0,.26.32.32,0,0,0,.23.32,1.86,1.86,0,0,1,.2.1,2,2,0,0,1,.62.49c.21.21.4.17.51-.11a.53.53,0,0,1,.38-.35.35.35,0,0,0,.29-.4c0-.08,0-.16.1-.17s.13.09.15.17a.58.58,0,0,1-.41.67.33.33,0,0,0-.27.22l0,.08a.5.5,0,0,1-.85.17,1,1,0,0,1-.23-.22,1.27,1.27,0,0,0-.66-.43.35.35,0,0,1-.27-.38,3.81,3.81,0,0,1,0-.48C42.57,52,42.68,51.33,42.77,50.7Zm1,7a2,2,0,0,0,1.84-.68,3.41,3.41,0,0,0,.39-.76s-.08-.1-.15-.18a.54.54,0,0,1-.47.29c-.14,0-.29,0-.43,0a3,3,0,0,0-.84.23,1,1,0,0,1-.73.11l-.92-.18s0,0,0,0-.15-.28-.31-.16,0,.24.07.35A2.1,2.1,0,0,0,43.75,57.75ZM42.82,57l.27.07a4.86,4.86,0,0,0,.55.11A.5.5,0,0,0,44,57a.31.31,0,0,1,.14-.09l1-.22s.05,0,.13.05c-.08.13-.13.29-.23.34-.35.15-.67.43-1.09.38a2.14,2.14,0,0,1-1-.31.82.82,0,0,1-.2-.17Zm1.1-4.82c.11,0,.21.12.21.29s-.07.24-.18.24-.31-.15-.3-.26A.45.45,0,0,1,43.92,52.14ZM34.63,35.5c-.09,0-.1-.13,0-.22s.26-.09.39-.12.17.1.2.19A.44.44,0,0,1,34.63,35.5Zm-4.45-.16c0-.14.06-.21.18-.25l.1,0c.14,0,.28.06.3.16s-.08.19-.25.23h-.08C30.32,35.47,30.21,35.46,30.18,35.34Zm12.17.51a.25.25,0,0,1,.2-.24.28.28,0,0,1,.27.23.19.19,0,0,1-.18.21A.26.26,0,0,1,42.35,35.85ZM46.26,35a.31.31,0,0,1,.28-.27.22.22,0,0,1,.21.19.25.25,0,0,1-.23.24C46.35,35.18,46.27,35.12,46.26,35Zm-8.6.06c.07-.18.16-.25.31-.24a.23.23,0,0,1,.22.24C38,35.26,37.92,35.26,37.66,35.08Zm-8.82.38c-.06,0-.12-.08-.17-.11a.28.28,0,0,1,.27-.25c.11,0,.19.06.2.17S29,35.49,28.84,35.46Zm24-.38c0-.11.1-.19.23-.19s.22.07.22.17-.11.17-.28.17S52.83,35.18,52.82,35.08Zm1.82.24s-.06-.17,0-.25.12-.1.18-.1.23.11.23.26S54.77,35.4,54.64,35.32Zm3.09-.25a.23.23,0,0,1,.17-.23.36.36,0,0,1,.28.21c0,.09-.07.16-.24.17S57.75,35.21,57.73,35.07Zm-21.32.48c0-.13,0-.25.11-.32a.16.16,0,0,1,.22.05c.08.11,0,.21-.05.31Zm8.7-.74a.2.2,0,0,1-.13-.12c0-.09.16-.28.31-.28a.39.39,0,0,1,.1.14C45.41,34.66,45.23,34.83,45.11,34.81Zm-11.44.61c-.11,0-.19,0-.2-.13a.22.22,0,0,1,.24-.2c.11,0,.16,0,.16.15A.17.17,0,0,1,33.67,35.42Zm22.51,0a.26.26,0,0,1-.09-.18s.11-.09.15-.08a1.17,1.17,0,0,1,.3.12C56.37,35.5,56.27,35.53,56.18,35.45Zm-8.62-.13c.21-.13.3-.13.37,0a.15.15,0,0,1-.07.23C47.73,35.6,47.66,35.55,47.56,35.32Zm3.77.54-.32,0c0-.1.06-.21.11-.23a.59.59,0,0,1,.29,0s.05.1,0,.15S51.37,35.85,51.33,35.86Zm-12-.45a.31.31,0,0,1,.2-.13c.13,0,.15.11.19.24l-.22.13C39.38,35.59,39.26,35.54,39.31,35.41Zm1.53.5s-.07-.13-.05-.16a.24.24,0,0,1,.17-.09,1.26,1.26,0,0,1,.27.18C41,36,41,36,40.84,35.91Zm3.32-.47c-.06,0-.12-.07-.22-.13.08-.09.13-.17.19-.19s.26.09.24.18A.17.17,0,0,1,44.16,35.44Zm-12.24-.5a.15.15,0,0,1-.11-.2.17.17,0,0,1,.23-.08c.11,0,.13.09.11.34ZM49.5,36c-.16,0-.11-.16-.11-.28.22-.06.22-.06.35.12A.19.19,0,0,1,49.5,36ZM36.87,53.27c-.08.11-.15.18-.3.13s-.19-.21-.18-.39C36.64,53,36.75,53.1,36.87,53.27Zm-3-2.06.31-.25c.13.07.2.15.15.26s-.07.2-.2.21S34,51.33,33.91,51.21Zm1.68.25a.24.24,0,0,1-.23-.25.84.84,0,0,1,0-.1h.39l0,.13C35.7,51.32,35.75,51.47,35.59,51.46Zm-2.73,1.29c0-.19.16-.2.27-.26s.16.21.08.3a.43.43,0,0,1-.25.1S32.86,52.8,32.86,52.75Zm1.72-.19c0,.11,0,.22-.16.23s-.18-.1-.18-.21.1-.18.21-.19S34.59,52.46,34.58,52.56Zm1.36.16a.36.36,0,0,1,.11.13c0,.1-.14.29-.24.25a.24.24,0,0,1-.14-.17C35.65,52.84,35.78,52.73,35.94,52.72Zm-2.1.6s.1.09.12.15a.17.17,0,0,1-.18.2.17.17,0,0,1-.19-.16C33.57,53.42,33.67,53.33,33.84,53.32Zm-.65-1.64a.19.19,0,0,1,.16-.2c.09,0,.16.1.17.27s-.05.14-.13.15S33.19,51.8,33.19,51.68Zm2,1.33c.06,0,.1.08.13.1,0,.19-.08.32-.17.3a.28.28,0,0,1-.15-.17C34.93,53.14,35.06,53,35.15,53Zm.74.64c0,.24,0,.32-.12.32a.18.18,0,0,1-.2-.15C35.58,53.7,35.65,53.65,35.89,53.65Zm-.44-1.3c-.09,0-.19,0-.16-.14s.11-.15.21-.28a1.23,1.23,0,0,1,.13.26C35.65,52.31,35.55,52.34,35.45,52.35Zm-.5-.54c-.1,0-.22,0-.25-.12a.21.21,0,0,1,.18-.28C35,51.6,35,51.6,35,51.81Zm-.11,2.07c.07.22,0,.31-.07.34a.13.13,0,0,1-.19-.11C34.54,54,34.61,53.94,34.84,53.88Zm1.54-2.07c0,.15,0,.28-.19.27a.13.13,0,0,1-.14-.16C36.08,51.78,36.16,51.75,36.38,51.81ZM51.51,53c0,.18,0,.32-.18.39a.23.23,0,0,1-.3-.13C51.15,53.1,51.26,53,51.51,53Zm2-1.79c-.05-.11,0-.19.14-.26l.32.25c-.08.12-.11.24-.26.22S53.57,51.31,53.53,51.22Zm-1.36,0,0-.13h.39a.84.84,0,0,1,0,.1.25.25,0,0,1-.23.25C52.15,51.47,52.19,51.32,52.17,51.23ZM55,52.75s-.07.14-.1.14a.43.43,0,0,1-.25-.1c-.08-.09-.07-.21.08-.3S55,52.56,55,52.75Zm-1.72-.19c0-.1,0-.16.12-.17s.23.1.22.19-.1.22-.18.21S53.32,52.67,53.32,52.56Zm-1.24.54c-.1,0-.26-.15-.23-.25a.36.36,0,0,1,.11-.13c.15,0,.29.12.27.21A.26.26,0,0,1,52.08,53.1Zm1.86.37c0-.06.09-.11.12-.15s.26.1.25.19a.19.19,0,0,1-.37,0Zm.57-1.57c-.08,0-.14,0-.13-.15s.08-.28.17-.27a.19.19,0,0,1,.16.2C54.71,51.8,54.61,51.92,54.51,51.9Zm-1.57,1.34a.28.28,0,0,1-.15.17c-.09,0-.17-.11-.17-.3,0,0,.07-.08.13-.1S53,53.14,52.94,53.24Zm-.62.58a.18.18,0,0,1-.2.15c-.13,0-.15-.08-.11-.32C52.25,53.65,52.32,53.7,52.32,53.82Zm.08-1.89c.1.13.19.2.21.28s-.07.14-.16.14-.2,0-.18-.16A1.23,1.23,0,0,1,52.4,51.93Zm.55-.12c-.05-.21-.05-.21.07-.4.18,0,.2.16.18.28S53.05,51.8,53,51.81Zm.11,2.07c.23.06.29.12.26.23a.13.13,0,0,1-.19.11C53,54.19,53,54.1,53.06,53.88Zm-1.21-2c0,.11-.06.16-.15.16s-.17-.12-.18-.27C51.74,51.75,51.82,51.78,51.85,51.92ZM49.87,34l-.12.17a.29.29,0,0,1-.38.14,1,1,0,0,1-.25-.13c-.1-.08-.23-.17-.18-.32s.19-.14.32-.11.07,0,.11,0C49.65,33.69,49.7,33.71,49.87,34Zm-7.69.2c0,.12-.11.22-.3.24s-.24-.06-.26-.23a.32.32,0,0,1,.3-.32C42.06,33.86,42.16,34,42.18,34.18Zm14.24-.6c0-.09.06-.17.17-.17a.31.31,0,0,0,.13,0s.06,0,.08,0,.16.14.17.23-.09.12-.18.13a1,1,0,0,1-.24,0A.15.15,0,0,1,56.42,33.58Zm-21,.26-.21.24c-.29,0-.29,0-.46-.14C35,33.56,35.12,33.54,35.46,33.84ZM30,33.66s.16,0,.22.06.1.18,0,.23a.53.53,0,0,1-.43,0C29.73,33.79,29.89,33.74,30,33.66Z"/></g></g></svg>