<svg xmlns="http://www.w3.org/2000/svg" viewBox="0 0 50.08 64.57"><defs><style>.cls-1{fill:#1a171b;}.cls-2{stroke:#fff;stroke-width:0.25px;}</style></defs><title>Asset 412</title><g id="Layer_2" data-name="Layer 2"><g id="Layer_1-2" data-name="Layer 1"><path class="cls-1" d="M29.74,63.91a.39.39,0,0,1,.05.2.44.44,0,0,1-.07.26.27.27,0,0,1-.23.11H28.21a.64.64,0,0,1-.51-.32.91.91,0,0,1-.2-.55V60.46a.28.28,0,0,1,.09-.22.36.36,0,0,1,.23-.08.54.54,0,0,1,.32.11.36.36,0,0,1,.14.29v3.08a.18.18,0,0,0,.06.14.22.22,0,0,0,.13,0h1.14A.15.15,0,0,1,29.74,63.91Zm1-3.8a.56.56,0,0,0-.3.08.25.25,0,0,0-.13.23v3.77a.25.25,0,0,0,.15.24.74.74,0,0,0,.34.08.48.48,0,0,0,.22-.05.14.14,0,0,0,.08-.13v-4a.18.18,0,0,0-.11-.16A.49.49,0,0,0,30.75,60.11Zm3.74,2.53a1,1,0,0,1,.32.75,1,1,0,0,1-.49.85,1.91,1.91,0,0,1-1.09.29,2,2,0,0,1-1-.26.73.73,0,0,1-.46-.62V60.81a.66.66,0,0,1,.35-.5,1.33,1.33,0,0,1,.75-.24,2.15,2.15,0,0,1,1.13.3,1,1,0,0,1,.54.85.79.79,0,0,1-.21.55l-.47.41A2.54,2.54,0,0,1,34.49,62.64Zm-.58.8a.69.69,0,0,0-.44-.65c-.3-.14-.45-.26-.45-.37s.11-.21.33-.39a1,1,0,0,0,.32-.83c0-.13-.09-.26-.28-.39a1.16,1.16,0,0,0-.61-.18.23.23,0,0,0-.19.11l-.05.11v2.73a.41.41,0,0,0,.19.36.72.72,0,0,0,.42.13.85.85,0,0,0,.52-.17A.55.55,0,0,0,33.91,63.44ZM37,62.55v-.14a2,2,0,0,0,.67-.48.94.94,0,0,0,.31-.62,1.1,1.1,0,0,0-.51-.81,1.6,1.6,0,0,0-1-.42,1.49,1.49,0,0,0-.87.27.76.76,0,0,0-.39.65v3.27a.18.18,0,0,0,.11.17.54.54,0,0,0,.27.06.51.51,0,0,0,.28-.07.22.22,0,0,0,.12-.19V61a.41.41,0,0,1,.09-.28.24.24,0,0,1,.22-.11.89.89,0,0,1,.85.82c0,.21-.15.42-.45.61s-.45.38-.45.53l.22.33.47.71a5.61,5.61,0,0,1,.39.72.53.53,0,0,0,.17.12.47.47,0,0,0,.17,0,.68.68,0,0,0,.33-.09.25.25,0,0,0,.16-.22,1.5,1.5,0,0,0-.37-.78A7.87,7.87,0,0,0,37,62.55Zm4.33-1.81a.78.78,0,0,0-.31-.45.8.8,0,0,0-.48-.14,1,1,0,0,0-.49.12.7.7,0,0,0-.31.33l-1.17,2.76a.39.39,0,0,0,0,.18.85.85,0,0,0,.43.67,1.48,1.48,0,0,0,.89.31,1,1,0,0,0,.58-.21,4.22,4.22,0,0,0,.71-.71s0,0,0-.07a.21.21,0,0,0-.07-.15.29.29,0,0,0-.16-.09,1.44,1.44,0,0,1-.26.25.85.85,0,0,1-.53.25.86.86,0,0,1-.55-.21.59.59,0,0,1-.25-.46.45.45,0,0,1,0-.18l.88-2a.15.15,0,0,1,.15-.08.09.09,0,0,1,.1.06l1,3.35a.51.51,0,0,0,.16.26.41.41,0,0,0,.24.08.48.48,0,0,0,.33-.13.26.26,0,0,0,.1-.27Z"/><path class="cls-2" d="M49.68,54.05a11.36,11.36,0,0,0-2.86-1A4.7,4.7,0,0,1,44,50.88a31.25,31.25,0,0,1-1.82-6.26s-.71-3.18-2.34-4.61a10.69,10.69,0,0,1-1.67-4.63s-.55-4-1.79-6.12A2.77,2.77,0,0,1,33,31s3.76-.56,3.06-4c0,0-.75-2.15-1.13-2.85a2.6,2.6,0,0,1,.49-1.88s3.25-5.73,2.42-9.32c0,0,1.23,1.65-.26,5.44a3.84,3.84,0,0,0,.09,2.29l-.18,1.38s1.87.28,1.18,4c0,0,.07-3-1-3.32,0,0-.62-.44-.42,2.27V25c.21,2.73.48,3.45.46,4.79v.11a4.43,4.43,0,0,1-.21.9,16.37,16.37,0,0,1,1.08,4.79s.52.56,1.15-1.24l.27-1.33a1.28,1.28,0,0,0-.28-1.27,2.65,2.65,0,0,1-.23-2.36l.59-2.87a15.68,15.68,0,0,0,.13-4.77,8.67,8.67,0,0,1,.31-2,12.44,12.44,0,0,0-.11-4.21s.73-5.43-3.37-6a4.24,4.24,0,0,1-2.54-1.47l-.7-.86c-.91-1-.49-1.49-.49-1.49a7.75,7.75,0,0,0,.37-2.17C33-1.76,27.43.68,27.43.68a1.69,1.69,0,0,0-1,1.61c.12.73.95.23,1.35.19s1.13-.12,1.46.32a.69.69,0,0,1,.11.4c-.14,0-.16-.21-.27-.3a.49.49,0,0,0-.38-.07c-.24,0-.48,0-.73,0s-.54.1-.82.12a1.59,1.59,0,0,0-.43.16c-.08.05-.07.29-.06.38s.07.23.09.35a1,1,0,0,0,.05.38c.07.11.17.07.23.18s0,.27-.06.38-.13.5-.19.75-.17.54-.24.77.26.32.61.28c.1,0,.27-.07.36,0a3.26,3.26,0,0,1,0,.83l.39,1h.77a5.44,5.44,0,0,0-2.93.72s-3.65-.22-3.68,1.65a1.26,1.26,0,0,0,.42,1.08s-1.82-.68-.35-2.34a23.76,23.76,0,0,0-8.06.19l-1,0a11.71,11.71,0,0,0-1.87-.61l-.84.08-.79.55,1.84.22-2.4-.22a1.7,1.7,0,0,0,.35,2,3.75,3.75,0,0,0,1.15.25h0v2.8c-.09,1.44-1.07,1-1.07,1a3.35,3.35,0,0,0-3.23.77c-1.56,1.59-3.8-.5-3.8-.5a3.07,3.07,0,0,0,3.92,2.09c2-1.11,3-.55,3-.55a2.54,2.54,0,0,0,2.95.18c1.17-.78,2.75.37,2.75.37,3.77,1.29,3.53-1.67,3.53-1.67-.84,2.12-3.2.35-3.2.35a2.75,2.75,0,0,0-2.57-1.1,1.09,1.09,0,0,1-1.68-1V12h0a4.59,4.59,0,0,0,.77-.13l.77-.49a9.24,9.24,0,0,1,3.13.3,16.8,16.8,0,0,0,5.61.63,3.47,3.47,0,0,0,2.37.07A16.53,16.53,0,0,0,28.05,12s1.23-.28,1.14,1.46c0,0,.14,2.22,1.33,2.61,0,0-1.33.64-1.85-1.51l-.14-1.22s.24-.8-1-.7l-.64.09s-.41-.12-.27,1.17l.11,1.5a3.63,3.63,0,0,0,.84,1.8l0,1.84a7.76,7.76,0,0,0,.26,2.22A1.9,1.9,0,0,1,27.27,23s-1.78,2-1.78,3.31a3.81,3.81,0,0,0,1.24,2.88s-1.38.23-1.68-2.18c0,0-2.73,4.56-3.15,6.58,0,0-.66,2.08,1.47.09a16.22,16.22,0,0,0,1.23-2s-.55,2.46-1.93,3.23a4.64,4.64,0,0,1-1.18.28s-.74.1-1.47,2a3.73,3.73,0,0,0-.23,1.33s.05.61-1,2.17A17.9,17.9,0,0,0,16.44,46s-.81,3.62-2.85,5L9.67,52.8a2,2,0,0,0-1.45,1.29s-.08.28.51.26h6.64s1-.07,1.14-1.52l.15-1.29s.09-1.29,2.57-3.84c0,0,2.78-2.89,2.8-5.19,0,0-.2-1.54-2.54,1.78,0,0,.35-2.73,2.73-2.94l.16-.05A19,19,0,0,1,24,38.87s2.73-3.06,3.15-3.42a14.58,14.58,0,0,0,3.3-5.53s3-.48,1.54-5.46c0,0,3,3.18-1.19,6.13a12.66,12.66,0,0,0,3.16,5.87s2.55,3.57,3.39,2.46a2.76,2.76,0,0,0,.35-2s1.12,5.52-3.06,1.29c0,0-.26.82,3,4.44,0,0,1.59-1.61,2.54,2.18,0,0-1.09-2.71-2.23-1.53,0,0-.87,1.08.85,3.38l2.67,3.94s1,1.95.65,2.77A2.34,2.34,0,0,0,42.15,55s.14.31,1.28.19L49.91,55S50.1,54.66,49.68,54.05ZM30.52,8.42s-.35,0-.86,0h0a2.37,2.37,0,0,0,1.71-2.91S33,6.93,30.52,8.42ZM.17,27.46a4.13,4.13,0,0,0,3.74,3.05c3.87,0,4.55-2.93,4.55-2.93Zm17.59,3.33a4.14,4.14,0,0,0,3.75-3.06l-8.3.12S13.9,30.79,17.76,30.79Z"/></g></g></svg>