<svg xmlns="http://www.w3.org/2000/svg" viewBox="0 0 94.72 118.44"><defs><style>.cls-1{fill:#1a1a1a;}</style></defs><title>Asset 534</title><g id="Layer_2" data-name="Layer 2"><g id="Layer_1-2" data-name="Layer 1"><path class="cls-1" d="M93.29,35.77A42.78,42.78,0,1,1,59,1.43,47.37,47.37,0,1,0,93.29,35.77Zm-72-26.15a.67.67,0,1,1,0,1A.68.68,0,0,1,21.28,9.62Zm-5.67,4.83a.89.89,0,1,1,0,1.26A.89.89,0,0,1,15.61,14.45Zm-5.08,6a1.13,1.13,0,0,1,1.6,1.6,1.13,1.13,0,1,1-1.6-1.6ZM5.8,27.86l1.27.36L7.48,27l.32,1.28L9.09,28l-.94.92.89,1-1.27-.35-.4,1.25L7,29.48l-1.29.28.94-.92Zm-2,8.57,1.16,1.21,1.25-1.11-.46,1.61,1.59.54-1.63.4L6,40.72,4.85,39.51,3.6,40.62,4.06,39l-1.59-.53,1.63-.4ZM1.88,50a2.64,2.64,0,0,1-.08-.49,2.79,2.79,0,0,1,2.46-3.09,2.94,2.94,0,0,1,2.88,3.19,2.75,2.75,0,0,0-2.81-2.2A2.75,2.75,0,0,0,1.88,50Zm3.89,7.21a3.06,3.06,0,0,0-2.08,3,3,3,0,0,1-.37-.74,3.05,3.05,0,0,1,5.79-1.94,3.32,3.32,0,0,1,.16.81A3,3,0,0,0,5.77,57.21Zm4.74,10.92A3.42,3.42,0,0,0,8.86,71.3a3.47,3.47,0,0,1-1.1-1.12,3.41,3.41,0,1,1,6.32-2A3.42,3.42,0,0,0,10.51,68.13Zm9,11.5a2.88,2.88,0,1,1,0-4.07A2.89,2.89,0,0,1,19.49,79.63Zm10.05,6.48a3.4,3.4,0,0,1-4.67,1.18,3.47,3.47,0,0,1-1.12-1.1A3.4,3.4,0,0,0,26.87,81a3.4,3.4,0,0,1,2.67,5.14Zm9.85,3.69a3.05,3.05,0,0,1-3.86,1.93,3,3,0,0,1-.74-.37,3.06,3.06,0,0,0,1.87-5.58,3.32,3.32,0,0,1,.81.16A3,3,0,0,1,39.39,89.8Zm6.15,3.45a3.85,3.85,0,0,1-.49-.08,2.65,2.65,0,0,0,.39-5.26,2.71,2.71,0,1,1,.1,5.34ZM57,91l-.4,1.63L56,91l-1.61.46,1.11-1.25L54.33,89l1.64.33.4-1.63.54,1.59,1.61-.46-1.11,1.25,1.21,1.16Zm10.22-1.7-1-.89-.92.94L65.57,88l-1.28-.33,1.25-.4L65.19,86l1,.89.92-.94-.28,1.28,1.28.33L66.83,88Zm7.42-4.73a1.13,1.13,0,0,1-1.6-1.6,1.13,1.13,0,0,1,1.6,1.6Zm6-5.08a.89.89,0,1,1,0-1.26A.89.89,0,0,1,80.6,79.44Zm4.83-5.67a.67.67,0,1,1,0-1A.68.68,0,0,1,85.43,73.77Z"/><path class="cls-1" d="M76.35,36.83l.92,2.27L76,37l-.61,3.24L75.06,37l-1.51,1.93,1.13-2.18-3.1,1.1L74.27,36l-2.42-.34,2.44-.11-2.5-2.14,3,1.39-.92-2.27,1.32,2.06.6-3.24.29,3.28,1.51-1.93-1.13,2.18,3.11-1.1-2.7,1.89,2.43.34-2.45.11,2.5,2.14Zm-34.88-14,1.84.1-1.79-.44,2.64-1.33L41.32,22l1-1.54-1.27,1.33.16-2.95-.7,2.87-.83-1.64.51,1.75h0l-2.47-1.61,2.09,2s0,0,0,0L38,22.16l1.71.42v.06l-2.56,1.29,2.76-.81,0,.05-1,1.47,1.24-1.29,0,0-.16,2.89.7-2.87h0L41.66,25l-.52-1.77,2.47,1.62Zm-10,19.09,1-1.52-1.3,1.3.23-3-.77,2.86L29.92,40l.47,1.77h0L28,40.05l2,2.05,0,0L28.21,42l1.7.46v.06l-2.59,1.23L30.09,43l0,.05-1,1.45,1.26-1.26,0,0-.23,2.89L31,43.3h0L31.76,45l-.47-1.78,2.43,1.68-2.09-2.1,1.84.15-1.78-.48,2.67-1.27ZM18.3,52.62l1-1.54L18,52.41l.17-2.95-.7,2.88-.83-1.65.51,1.76h0l-2.46-1.61,2.09,2s0,0,0,0L15,52.78l1.71.42v.06l-2.56,1.29,2.76-.8,0,0-1,1.48L17.22,54l0,0-.16,2.89L17.8,54h0l.83,1.65-.52-1.77,2.48,1.61-2.14-2,1.84.1-1.79-.43,2.64-1.34Zm68.09-7.28.1,1.78.23-1.77,1.63,2.48L87.2,45.09l1.6.81-1.43-1.08,3-.17-2.94-.38,1.5-1L87.24,44l1.33-2.64L86.78,43.7l-.11-1.79-.22,1.78-1.63-2.48L86,43.94l-1.6-.8,1.43,1.08-3,.17,3,.37-1.5,1,1.65-.69L84.6,47.7Zm.54.9c-.13,0,.29,1.43.29,1.43l.07.26s.39,1.32.53,1.28-.27-1.37-.27-1.37l-.08-.25S87.06,46.2,86.93,46.24ZM82.39,41.3l-2.72-2a12.73,12.73,0,0,0-2.16-1.37c-.11.15,1.95,1.66,1.95,1.66l2.73,2s1.92,1.41,2,1.26S82.39,41.3,82.39,41.3ZM68.82,33.22,47.64,25.08a49.89,49.89,0,0,0-4.91-1.69c-.06.16,4.78,2,4.78,2l21.18,8.13A35.27,35.27,0,0,0,73,35,42,42,0,0,0,68.82,33.22ZM38.39,27,32.58,38.55a12.35,12.35,0,0,0-1,2.37,12.36,12.36,0,0,0,1.31-2.21l5.81-11.57a17.28,17.28,0,0,0,1.17-2.72A16.42,16.42,0,0,0,38.39,27ZM29.52,43.46c-.11-.14-1.8,1.25-1.8,1.25l-7.39,6.06S18.86,52,19,52.11,20.56,51,20.56,51L27.94,45S29.63,43.59,29.52,43.46Z"/><path class="cls-1" d="M71.79,15.78l-1,.44.17,1.12-.9-.68-.88.71.14-1.13-1-.4,1-.44-.17-1.12L70,15l.88-.71-.14,1.12Zm1.81-3.14.43-.23a11,11,0,0,1,1.17-.52c.3-.11.61-.19.84-.26s.39-.11.39-.15-.17,0-.42,0a4.2,4.2,0,0,0-.89.19,6.83,6.83,0,0,0-1.23.5c-.15.08-.3.15-.44.24a8.13,8.13,0,0,0-1.14.79,5.54,5.54,0,0,0-.69.66c-.17.19-.27.34-.24.36a10.55,10.55,0,0,0,1.09-.82A12.28,12.28,0,0,1,73.6,12.64Zm1.32.68a7.15,7.15,0,0,0-1.11.26l-.42.15a7.48,7.48,0,0,0-1.07.56,2.86,2.86,0,0,0-.9.79,9,9,0,0,0,1-.61,9.24,9.24,0,0,1,1-.52l.4-.14A8.66,8.66,0,0,1,75,13.53a6,6,0,0,0,1.1-.23A3,3,0,0,0,74.92,13.32Zm-.08,1.62a2.81,2.81,0,0,0-.47-.09,3.32,3.32,0,0,0-.68,0,1.09,1.09,0,0,0-.26,0,4.06,4.06,0,0,0-.7.15c-.35.11-.66.3-.63.35s.35-.07.69-.14.68-.13.68-.13l.24,0s.33,0,.65,0,.64.06.67,0S75,15,74.84,14.94Z"/><path class="cls-1" d="M34.68,53.1a.48.48,0,0,1-1,0,.48.48,0,1,1,1,0ZM31.12,16.89a.59.59,0,0,0-.6.59.6.6,0,0,0,.6.6.59.59,0,0,0,.59-.6A.58.58,0,0,0,31.12,16.89ZM43.3,53l-.09-.84-.52.66-.76-.34.31.78-.68.49.83.12.09.83L43,54l.76.34-.31-.78.68-.49ZM37.48,71.46l-.78.32-.49-.68-.11.83-.84.09.66.51-.33.77.77-.32.5.68.11-.83.83-.09-.66-.51ZM31.26,25.53l-.77.34L30,25.21l-.09.83-.83.12.67.49-.31.77.76-.33.52.66.09-.84.83-.11-.68-.49Zm12,5.76a.59.59,0,0,0,.59-.6.58.58,0,0,0-.59-.59.59.59,0,0,0-.6.59A.6.6,0,0,0,43.29,31.29Zm34.85-5.7a.48.48,0,0,0,0-1,.48.48,0,0,0,0,1ZM46.78,66.32l-.78.31L45.51,66l-.11.83-.84.09.66.51-.33.76.77-.31.5.67.11-.82.83-.09-.66-.52Zm-31.44-30a.89.89,0,1,0,.89.89A.89.89,0,0,0,15.34,36.28Zm2.92,5.64a.48.48,0,1,0,0,.95.48.48,0,0,0,0-.95Zm6.18,22-.08-.83-.52.65-.76-.35.3.78-.68.48.82.13.08.83.52-.65.76.35-.3-.78.69-.48Zm60.41-40a.6.6,0,0,0,0,1.19.6.6,0,1,0,0-1.19Zm-22,29.33a.59.59,0,0,0-.59.59.6.6,0,1,0,1.19,0A.59.59,0,0,0,62.87,53.2ZM60.5,63.09c-.08-.42-.19-1.66-.19-1.66h0s-.1,1.24-.19,1.66a.7.7,0,0,1-.51.55,5,5,0,0,1-1,.17h0a5.48,5.48,0,0,1,.93.16.74.74,0,0,1,.53.56c.09.42.19,1.66.19,1.66h0s.11-1.26.19-1.66A.75.75,0,0,1,61,64a3.12,3.12,0,0,1,.83-.16h0a3.69,3.69,0,0,1-.84-.16A.66.66,0,0,1,60.5,63.09ZM66,42.38a.48.48,0,0,0,0,1,.48.48,0,1,0,0-1ZM79,55.59l-.79.27-.46-.7-.15.82-.84.05.63.55-.37.74.79-.27.46.7.15-.82.84,0-.63-.55ZM73,68.67l-.13-.83-.48.68-.79-.3L72,69l-.66.53.84.07.13.83.48-.69.78.31-.35-.76.65-.53ZM49.42,10.92l.67-.5-.83-.11-.1-.83-.51.67-.77-.33.33.77-.67.5.83.11.09.83.51-.67.77.33ZM50.74,43a.6.6,0,1,0-1.19,0,.6.6,0,0,0,1.19,0Zm6.17-6.55a.48.48,0,1,0,0,.95.48.48,0,0,0,0-.95ZM53.64,59.26c-.13-.71-.32-2.78-.32-2.78a0,0,0,0,0,0,0s-.17,2.08-.31,2.78a1.19,1.19,0,0,1-.86.92,8.35,8.35,0,0,1-1.58.29s0,0,0,0a9.23,9.23,0,0,1,1.55.27,1.22,1.22,0,0,1,.89.93c.14.71.31,2.78.31,2.78a0,0,0,1,0,0,0s.19-2.1.32-2.78a1.27,1.27,0,0,1,.86-.94,5.94,5.94,0,0,1,1.4-.26h0a6.85,6.85,0,0,1-1.42-.28A1.07,1.07,0,0,1,53.64,59.26ZM56.54,72a.6.6,0,0,0-.59.6.6.6,0,0,0,1.19,0A.6.6,0,0,0,56.54,72Z"/><path class="cls-1" d="M50.26,106.69c0-.61.89-1.12,1.58-1.11,1.32,0,.64,1.84-.7,1.83C50.67,107.4,50.26,107.18,50.26,106.69Zm17.17,6.9a3.67,3.67,0,0,1-3,2.54,2.75,2.75,0,0,1-2.78,1.77,2.55,2.55,0,0,1-2.67-2.62c-2.74,3.4-7,3.07-7.08,0-1.86,2.7-5.51,2.88-5-.44-2.39,3.3-5.35,2.83-5.33,1,0-1.28,1.2-2.89,1.21-4,0-.93-.66-1.25-1.19-1.65a38.08,38.08,0,0,1-1.83,3.91c-.88,1.93-2.19,3.23-3.47,3.22-2.22,0-1.72-4-1.27-6.12-1.27-.2-2.31-.34-3.19-.45-1.38,2.49-2.71,5.2-3.81,7.74a1.23,1.23,0,0,1-.72-1.13c0-1.19,1.47-3.87,3.32-6.73-1.47-.13-2.1-.12-3.08-.13.51-1.35,2.4-1.17,3.8-.94a56.56,56.56,0,0,1,6.14-7.81c.85-.79,1.27-.82,2.18.1-1.07.84-5.14,14.51-2.67,14.52,1.73,0,3.66-4.88,4.23-6.5-.84-.86,1-2.95,1-1.46,0,.15-.24.71-.24.79,0,.8,2.19,1.18,2.18,3,0,1.31-1.1,2.73-1.11,3.64,0,1.44,2.63.39,4.1-2.08.55-1.92,1.75-4.33,2.83-4.33a.45.45,0,0,1,.47.48c0,.71-2.26,3.31-2.28,5.34,0,1,.34,1.29,1,1.3S51,115.94,52,114.3c.56-2.44,3.15-5.31,5.42-5.3a1.18,1.18,0,0,1,1.32,1.33c0,2.2-2.92,3.93-5.38,4.15-.77,3.24,2.93,3.67,5.65.08a1.46,1.46,0,0,1,.73-1.11c.1-.19.06-.17.17-.09a1.78,1.78,0,0,0,.45-.24A12.75,12.75,0,0,0,62.49,110v-.26c0-1.72,1.2-1.65,1.2-1.17a7,7,0,0,0-.14.94c0,1.66,1.56,4,1,6.27,1-.17,1.88-.81,2.73-2.42Zm-14,.48c1.54-.53,4.31-2,4.33-3.9,0-.32-.09-.49-.45-.5C55.93,109.66,54,112,53.44,114.07ZM35.18,110.4a45,45,0,0,1,2.64-7.94c-1.34.81-3.39,3.68-5.42,7.25C33.37,109.93,34.36,110.2,35.18,110.4ZM63,116.1a4.23,4.23,0,0,1-2.64-1.81c-.91,0-.56,2.84,1.27,2.86A1.38,1.38,0,0,0,63,116.1Zm-.44-5.27a15.54,15.54,0,0,1-2.11,2.79,3.88,3.88,0,0,0,2.66,2.14C63.45,113.86,62.89,112.55,62.59,110.83Z"/></g></g></svg>