<svg xmlns="http://www.w3.org/2000/svg" viewBox="0 0 17.1 41.88"><title>Asset 478</title><g id="Layer_2" data-name="Layer 2"><g id="Layer_1-2" data-name="Layer 1"><path d="M16.33,22.28a5.56,5.56,0,0,0-.81-1.81c-.38-.49-.71-1-1.06-1.53S13.6,17.65,13.13,17a24.74,24.74,0,0,1-2-3A12.41,12.41,0,0,1,10,11.17c-.09-.37-.24-.72-.33-1.09s-.1-.63-.18-.94C9.3,8.55,9.11,8,8.94,7.39A1.64,1.64,0,0,0,7.76,6.2,2.16,2.16,0,0,1,7.12,6C7,5.45,6.94,5,6.88,4.45a2.52,2.52,0,0,0-.61-1.38c-.24-.29-.5-.57-.71-.88a3.7,3.7,0,0,1-.33-.66,3,3,0,0,1-.11-.32A1.86,1.86,0,0,0,3.79.15C3.55.08,3.3-.08,3,.05a1.29,1.29,0,0,0-.29,1,6.66,6.66,0,0,1-.15,1.4s0,.06-.07.1A1.57,1.57,0,0,1,1.89,2,1.33,1.33,0,0,0,.34,1.58a1.1,1.1,0,0,0-.32,1,1.75,1.75,0,0,0,.12.78.59.59,0,0,1,0,.27c0,.27,0,.54,0,.8C.11,6,0,7.68,0,9.33a9.08,9.08,0,0,0,.23,2.08,4.5,4.5,0,0,1,.15.73,25.49,25.49,0,0,0,.55,3.24,11.45,11.45,0,0,0,.76,2.2,2.66,2.66,0,0,0,.5.75,14.4,14.4,0,0,0,1.63,1.49,1.63,1.63,0,0,1,.68,1,2.51,2.51,0,0,0,.54,1.05l1.86,2.3.08.08a9.79,9.79,0,0,1,1.48,1.79,3.66,3.66,0,0,1,.71,2.23c0,.31,0,.61,0,.91A12.12,12.12,0,0,1,9,31.74c-.21,1-.58,2-.8,3-.13.58-.18,1.17-.33,1.75s-.34,1.15-.49,1.73A16.71,16.71,0,0,0,7,40.43a10.86,10.86,0,0,0-.08,1.28c0,.06.06.12.08.17.24-.06.21-.23.23-.37.09-.72.17-1.43.28-2.14a24.37,24.37,0,0,1,.61-2.66c.28-1,.5-2.06.77-3.09a20.87,20.87,0,0,0,.56-2.49,15.91,15.91,0,0,0-.07-4,1.73,1.73,0,0,0-.11-.32,9.78,9.78,0,0,0-1.44-2.1c-.75-.9-1.54-1.77-2.31-2.66a3.62,3.62,0,0,1-.84-1.71A4.69,4.69,0,0,0,4.25,19c-.22-.44-.43-.88-.62-1.33s-.41-1.1-.65-1.63A7.14,7.14,0,0,1,2.42,14,10.21,10.21,0,0,0,2,12.13a.52.52,0,0,1,0-.44,2.12,2.12,0,0,0,.2-1,2.52,2.52,0,0,1,.17-.94.63.63,0,0,1,.18.06,5.84,5.84,0,0,1,1.85,1.65A11.6,11.6,0,0,1,5.6,13.71a12.21,12.21,0,0,0,1.89,2.82c.2.23.44.42.66.63.65.6,1.31,1.2,1.95,1.81.17.15.29.35.45.52a.17.17,0,0,0,.14,0,.14.14,0,0,0,0-.15,1.3,1.3,0,0,0-.38-.62L8.47,17a7.83,7.83,0,0,1-.78-.74,8.87,8.87,0,0,1-1.08-1.38c-.46-.76-.83-1.57-1.24-2.35A6.41,6.41,0,0,0,3,9.78L2.9,9.71a1.71,1.71,0,0,0-1.19-.43A1.13,1.13,0,0,0,.43,10a.53.53,0,0,0,0,.12,5.19,5.19,0,0,0,.74,1,3.71,3.71,0,0,1,.23.32A4.13,4.13,0,0,1,2,13.17a17.92,17.92,0,0,0,.83,3.3,21,21,0,0,0,1,2.35,3.67,3.67,0,0,1,.36.89c-.16-.11-.28-.17-.37-.25-.48-.46-.95-.93-1.44-1.38a6.84,6.84,0,0,1-.79-1.54,4.67,4.67,0,0,1-.32-.91C1,14.74.88,13.85.73,13c-.09-.51-.16-1-.24-1.52,0-.22-.1-.44-.13-.67A6.66,6.66,0,0,1,.3,8.68c0-.07,0-.15,0-.22,0-.53,0-1.07,0-1.6,0-1.19.13-2.38.15-3.57a.92.92,0,0,0-.1-.54A.81.81,0,0,1,.3,2.14a.42.42,0,0,1,.47-.39.81.81,0,0,1,.58.2c.32.31.66.62,1,1a1,1,0,0,1,.25.62c.08,1,.18,1.92.29,2.88,0,.34.09.67.15,1A5.35,5.35,0,0,0,3.11,8c.06.24.17.47.21.71a2.11,2.11,0,0,0,.33.84c.18.28.37.57.57.84.06.1.16.09.25,0s-.12-.22-.19-.33a6.17,6.17,0,0,1-.53-.93,9.1,9.1,0,0,1-.58-2.42C3.12,6.05,3,5.48,3,4.89a14.58,14.58,0,0,1-.09-2c0-.7.15-1.4.12-2.1A.56.56,0,0,1,3.27.27c.27.1.56.19.83.32a1.53,1.53,0,0,1,.76.8A6.17,6.17,0,0,1,5.27,4c0,.41,0,.83,0,1.24,0,.78,0,1.55,0,2.33a8.24,8.24,0,0,0,.28,1.91,5.75,5.75,0,0,1,.15.72c.07.35.11.71.18,1.06a2.2,2.2,0,0,0,.18.39,2,2,0,0,0,.07-.51,8.13,8.13,0,0,0-.38-1.94,2.18,2.18,0,0,1-.11-.44,26.9,26.9,0,0,1-.19-2.83c0-1,0-2,.06-3a1.08,1.08,0,0,1,.08-.24l.6.75a1.51,1.51,0,0,1,.35.77c.1.75.21,1.5.31,2.25.08.56.12,1.13.22,1.69.13.75.33,1.48.46,2.23a12.79,12.79,0,0,0,.56,1.72.86.86,0,0,0,.2.27.09.09,0,0,0,.1,0s.07-.05.06-.08a.81.81,0,0,0,0-.27c-.16-.45-.34-.89-.49-1.33a8.3,8.3,0,0,1-.22-.82c-.13-.58-.27-1.15-.38-1.72s-.12-.86-.17-1.3a1,1,0,0,1,0-.58l.6.19a1.4,1.4,0,0,1,.9,1,13,13,0,0,1,.61,2.3,1.64,1.64,0,0,0,.1.38c.12.42.23.84.36,1.25a13.35,13.35,0,0,0,.91,2.26c.18.31.36.62.53.93s.45.84.72,1.23c.4.6.84,1.17,1.26,1.76.57.82,1.15,1.64,1.71,2.47a11.73,11.73,0,0,1,.65,1.07,7.82,7.82,0,0,1,.81,2.29,4.94,4.94,0,0,0,.15.55,8,8,0,0,1,.35,2.58,22.89,22.89,0,0,1-.18,2.61c-.14.89-.07,1.81-.25,2.7-.13.61-.07,1.24-.21,1.85A8,8,0,0,0,16,34.88c0,.51,0,1,0,1.54,0,.92,0,1.84-.14,2.77a14.77,14.77,0,0,0,.05,2.1c0,.07.07.14.11.21a.34.34,0,0,0,.17-.42,5.63,5.63,0,0,1,0-1.42c0-1,.1-2,.11-3,0-1.24.21-2.45.34-3.68.05-.55.11-1.09.16-1.64s.08-1.36.16-2a22.59,22.59,0,0,0,.16-3.18,7.69,7.69,0,0,0-.16-1.52C16.77,23.81,16.56,23,16.33,22.28ZM1.58,11.14A2.65,2.65,0,0,1,1,10.35a1.43,1.43,0,0,1-.09-.27.41.41,0,0,1,.33-.5.85.85,0,0,1,.22,0H2a10.78,10.78,0,0,1-.13,1.67C1.71,11.28,1.64,11.21,1.58,11.14Z"/></g></g></svg>