<svg xmlns="http://www.w3.org/2000/svg" viewBox="0 0 17.1 41.88"><title>Asset 475</title><g id="Layer_2" data-name="Layer 2"><g id="Layer_1-2" data-name="Layer 1"><path d="M16.93,4.39c0-.26,0-.53,0-.8,0-.09,0-.2,0-.27a1.9,1.9,0,0,0,.12-.78,1.13,1.13,0,0,0-.32-1A1.33,1.33,0,0,0,15.21,2a1.64,1.64,0,0,1-.62.55s-.07-.07-.08-.1a7.39,7.39,0,0,1-.14-1.4,1.3,1.3,0,0,0-.3-1c-.27-.13-.52,0-.77.1A1.86,1.86,0,0,0,12,1.21a3,3,0,0,1-.11.32,3.7,3.7,0,0,1-.33.66c-.22.31-.47.59-.71.88a2.45,2.45,0,0,0-.61,1.38c-.06.5-.16,1-.25,1.51a2.21,2.21,0,0,1-.63.24A1.62,1.62,0,0,0,8.16,7.39C8,8,7.8,8.55,7.64,9.14c-.08.31-.1.63-.18.94s-.24.72-.34,1.09A12.38,12.38,0,0,1,5.92,14,26,26,0,0,1,4,17c-.47.63-.89,1.28-1.33,1.92S2,20,1.58,20.47a5.38,5.38,0,0,0-.82,1.81C.54,23,.33,23.81.17,24.59A8.52,8.52,0,0,0,0,26.11a24.21,24.21,0,0,0,.17,3.18c.08.68.1,1.36.16,2S.44,32.42.49,33c.12,1.23.31,2.44.33,3.68,0,1,.1,2,.12,3a5.63,5.63,0,0,1,0,1.42.36.36,0,0,0,.17.42c0-.07.12-.14.12-.21a13.41,13.41,0,0,0,0-2.1c-.1-.93-.09-1.85-.13-2.77,0-.51,0-1-.05-1.54A8,8,0,0,0,.9,33.7c-.14-.61-.09-1.24-.21-1.85C.51,31,.58,30,.44,29.15a19.08,19.08,0,0,1-.18-2.61A8,8,0,0,1,.61,24c.05-.18.11-.36.15-.55a7.82,7.82,0,0,1,.81-2.29,11.63,11.63,0,0,1,.64-1.07c.57-.83,1.14-1.65,1.72-2.47.42-.59.86-1.16,1.26-1.76.26-.39.48-.81.71-1.23l.54-.93a14.23,14.23,0,0,0,.91-2.26c.13-.41.24-.83.36-1.25a2.36,2.36,0,0,0,.1-.38,13,13,0,0,1,.61-2.3,1.38,1.38,0,0,1,.9-1l.6-.19a1,1,0,0,1,0,.58c-.06.44-.09.87-.17,1.3s-.25,1.14-.38,1.72c-.07.27-.13.55-.22.82-.16.44-.33.88-.49,1.33a.82.82,0,0,0-.06.27.12.12,0,0,0,.06.08.11.11,0,0,0,.11,0,1.05,1.05,0,0,0,.2-.27,12.79,12.79,0,0,0,.56-1.72C9.7,9.68,9.9,9,10,8.2c.1-.56.14-1.13.21-1.69.11-.75.22-1.5.32-2.25a1.58,1.58,0,0,1,.34-.77c.2-.23.38-.47.61-.75a1.08,1.08,0,0,1,.08.24c0,1,0,2,.05,3a22.42,22.42,0,0,1-.19,2.83,1.65,1.65,0,0,1-.1.44A8.13,8.13,0,0,0,11,11.15a2,2,0,0,0,.07.51,3.35,3.35,0,0,0,.18-.39c.06-.35.11-.71.17-1.06s.09-.49.15-.72a7.75,7.75,0,0,0,.29-1.91c0-.78.1-1.55.05-2.33,0-.41,0-.83-.05-1.24a6,6,0,0,1,.41-2.62A1.49,1.49,0,0,1,13,.59c.27-.13.56-.22.83-.32a.53.53,0,0,1,.28.54c0,.7.1,1.4.13,2.1a18.74,18.74,0,0,1-.09,2c-.05.59-.17,1.16-.22,1.75a9.1,9.1,0,0,1-.58,2.42,5.47,5.47,0,0,1-.54.93l-.18.33c.09.12.18.13.25,0,.2-.27.39-.56.57-.84a2.27,2.27,0,0,0,.33-.84A6.36,6.36,0,0,1,14,8a5.35,5.35,0,0,0,.11-.55c.06-.34.11-.67.15-1,.1-1,.21-1.92.29-2.88a.94.94,0,0,1,.25-.62c.3-.33.64-.64,1-.95a.81.81,0,0,1,.58-.2.42.42,0,0,1,.47.39.81.81,0,0,1-.07.61.85.85,0,0,0-.1.54c0,1.19.12,2.38.15,3.57,0,.53,0,1.07,0,1.6a.81.81,0,0,0,0,.22,6.66,6.66,0,0,1-.06,2.09c0,.23-.1.45-.14.67-.08.51-.14,1-.23,1.52-.16.89-.32,1.78-.5,2.67a5.44,5.44,0,0,1-.32.91,6.93,6.93,0,0,1-.8,1.54c-.48.45-.95.92-1.43,1.38a3.58,3.58,0,0,1-.38.25,3.31,3.31,0,0,1,.37-.89,23,23,0,0,0,1-2.35,17.13,17.13,0,0,0,.82-3.3,4.43,4.43,0,0,1,.59-1.76l.24-.32a4.79,4.79,0,0,0,.73-1,.5.5,0,0,0,0-.12,1.13,1.13,0,0,0-1.28-.69,1.7,1.7,0,0,0-1.19.43l-.09.07a6.41,6.41,0,0,0-2.38,2.75c-.41.78-.78,1.59-1.24,2.35a10.26,10.26,0,0,1-1.08,1.38,7.83,7.83,0,0,1-.78.74L6.75,18.73a1.4,1.4,0,0,0-.39.62.19.19,0,0,0,0,.15.2.2,0,0,0,.15,0A5.59,5.59,0,0,1,7,19c.64-.61,1.3-1.21,1.95-1.81.22-.21.46-.4.66-.63a11.86,11.86,0,0,0,1.88-2.82,12.21,12.21,0,0,1,1.23-2.24,5.84,5.84,0,0,1,1.85-1.65.56.56,0,0,1,.17-.06,2.53,2.53,0,0,1,.18.94,2.11,2.11,0,0,0,.19,1,.49.49,0,0,1,0,.44A11.12,11.12,0,0,0,14.67,14a6.82,6.82,0,0,1-.55,2.07c-.24.53-.42,1.09-.65,1.63s-.4.89-.62,1.33a4.71,4.71,0,0,0-.43,1.28A3.52,3.52,0,0,1,11.59,22c-.77.89-1.56,1.76-2.31,2.66a9.43,9.43,0,0,0-1.44,2.1.94.94,0,0,0-.11.32,15.91,15.91,0,0,0-.07,4,23,23,0,0,0,.55,2.49c.28,1,.5,2.07.78,3.09a24.37,24.37,0,0,1,.61,2.66c.11.71.19,1.42.28,2.14,0,.14,0,.31.22.37,0-.05.09-.11.09-.17,0-.43,0-.86-.08-1.28a16.71,16.71,0,0,0-.42-2.22c-.16-.58-.35-1.15-.5-1.73s-.2-1.17-.32-1.75c-.22-1-.59-2-.81-3a12.82,12.82,0,0,1-.17-2.55c0-.3,0-.6,0-.91a3.73,3.73,0,0,1,.72-2.23,9.4,9.4,0,0,1,1.48-1.79l.07-.08L12,21.88a2.42,2.42,0,0,0,.55-1.05,1.6,1.6,0,0,1,.68-1,13.5,13.5,0,0,0,1.62-1.49,2.49,2.49,0,0,0,.51-.75,10.78,10.78,0,0,0,.75-2.2,27.43,27.43,0,0,0,.56-3.24,4.5,4.5,0,0,1,.15-.73,9.08,9.08,0,0,0,.23-2.08C17.14,7.68,17,6,16.93,4.39Zm-1.8,5.14h.54a.93.93,0,0,1,.23,0,.41.41,0,0,1,.33.5c0,.09-.06.18-.09.27a2.53,2.53,0,0,1-.63.79c-.06.07-.13.14-.25.06A10.78,10.78,0,0,1,15.13,9.53Z"/></g></g></svg>