<svg xmlns="http://www.w3.org/2000/svg" viewBox="0 0 89.17 97.45"><defs><style>.cls-1{fill:#fbb03b;}</style></defs><title>Asset 514</title><g id="Layer_2" data-name="Layer 2"><g id="Layer_1-2" data-name="Layer 1"><path d="M25,14.53c.05,0,0,.11,0,.24s-.18.25-.25.25-.05-.11,0-.25S25,14.53,25,14.53ZM22.43,9a.3.3,0,0,0-.24-.16c-.18,0-.25.63-.08.79S22.5,9.17,22.43,9ZM23.6,11c0-.1-.07-.07-.08.07s0,.21.07.17A.28.28,0,0,0,23.6,11Zm-1.08,5.29c0-.11-.45.2-.69.47s-.16.22.22-.07A2.37,2.37,0,0,0,22.52,16.31Zm10.92-1c.15-.11.27-.26.27-.34a1.66,1.66,0,0,1,.43-.58,16.44,16.44,0,0,0,2.19-3c0-.34-.24-.28-.38.09a12.73,12.73,0,0,1-1.11,1.79s-.22.26-.41.51a8.5,8.5,0,0,1-.9,1,3.11,3.11,0,0,0-.56.64C33,15.57,33.13,15.54,33.44,15.33Zm-8.68-9C25,6.09,25.17,5,24.94,5s-.43,1-.43,1.4C24.51,6.61,24.51,6.61,24.76,6.36ZM26.43,7c.08-.37.08-.37-.11,0a3.13,3.13,0,0,0-.2.5C26.12,7.74,26.37,7.32,26.43,7ZM23.05,17.26c-.23.16-.41.34-.41.4,0,.34.67-.21,1.66-1.37.56-.66.3-.6-.31.07A7.53,7.53,0,0,1,23.05,17.26ZM21,12.19a.42.42,0,0,0,0-.31c0-.08-.06,0-.06.16S21,12.28,21,12.19Zm1.66,4.53a3.83,3.83,0,0,1-.9.66c-.19.07-.34.21-.34.3,0,.29.44.1.9-.4.23-.25.65-.66.92-.9a3.8,3.8,0,0,0,.6-.63C23.94,15.56,23.48,15.93,22.64,16.72ZM19.48,9.16c-.1-.76-.41-1.43-.59-1.26a3,3,0,0,0,.42,1.7C19.55,9.89,19.57,9.85,19.48,9.16Zm8.3-5.11c.18-.15.23-.25.13-.32a.6.6,0,0,1-.19-.27c-.06-.19-.07-.16-.78,1.77a12.47,12.47,0,0,0-.43,1.31,13.59,13.59,0,0,0,.92-2A1.3,1.3,0,0,1,27.78,4.05ZM20.9,9.13c0-.32-.31-.8-.43-.68s0,.31.05.59C20.67,9.57,20.9,9.63,20.9,9.13ZM62.75,21a.37.37,0,0,0,.38-.24c0-.14.13-.25.2-.25s.11-.12.11-.25c0-.3-.27-.32-.69-.05a.65.65,0,0,0-.3.5C62.45,20.93,62.51,21,62.75,21ZM26,4.82a6.82,6.82,0,0,0-.53,1.8c0,.07.17-.23.38-.66C26.23,5.24,26.29,4.82,26,4.82ZM39.12,18.13c.13-.13.2-.25.17-.25a1,1,0,0,0-.29.25c-.13.14-.2.25-.16.25A1,1,0,0,0,39.12,18.13Zm-.11-6a8.12,8.12,0,0,1-.76,1.06c-.31.39-.52.7-.47.7s.66-.37.66-.49a2.61,2.61,0,0,1,.5-.61,1.86,1.86,0,0,0,.5-.76C39.44,11.68,39.22,11.73,39,12.14ZM72.15,44.43c0-.34-.31-.53-.53-.31a.61.61,0,0,1-.35.14c-.25,0-.36.24-.36.77a1.32,1.32,0,0,0,.43.86,1.25,1.25,0,0,1,.44.92,1.08,1.08,0,0,0,.59,1.11c.47.25.71.24,1.41-.09.5-.22.61-.33.61-.59a1.32,1.32,0,0,0-.58-1C72.45,45.4,72.15,45.07,72.15,44.43ZM38.32,11.85C38.18,11.77,37,13,37,13.19a7.83,7.83,0,0,1-1.69,1.71.28.28,0,0,0-.23.23.91.91,0,0,1-.39.39c-.17.09-.31.21-.31.27,0,.23.38.08.71-.28.19-.21,1-1,1.73-1.77C38.39,12.09,38.5,12,38.32,11.85Zm-1,6.41s.09-.06.14-.13a.07.07,0,0,0-.06-.12.13.13,0,0,0-.13.12C37.32,18.2,37.34,18.26,37.37,18.26Zm-2.18-2.12a.25.25,0,0,0,.2-.12c0-.07,0-.13,0-.13a.28.28,0,0,0-.2.13C35.1,16.09,35.12,16.14,35.19,16.14Zm.76-.56c.09-.1.1-.18,0-.18a.51.51,0,0,0-.28.18c-.08.11-.1.19,0,.19A.45.45,0,0,0,36,15.58ZM75.58,44.2c-.5-.17-.74-.2-.83-.1s0,.37.61.71,1,.39,1.07.12S76.35,44.47,75.58,44.2ZM33.65,12.06l.47-.26c.25-.14.46-.21.46-.15a7.76,7.76,0,0,1-1.08,1.51l-.35.43.43-.36a6.31,6.31,0,0,0,1-1.08c.74-1.05,1-1.2,2-1.27a8.79,8.79,0,0,0,1.55-.26,6.46,6.46,0,0,1,1.52-.23,1.8,1.8,0,0,0,.84-.14c0-.16,1.16,0,1.22.16a.3.3,0,0,0,.27.14.87.87,0,0,1,.51.38c.34.48.27.86-.32,1.78a8.34,8.34,0,0,0-.53.91c-.07.2-.06.2.16,0a4.33,4.33,0,0,0,1.43-2.19,2.34,2.34,0,0,0-1.32-1.53A6,6,0,0,0,39,10a10.38,10.38,0,0,1-3.06.53A5.91,5.91,0,0,0,34,11.73Zm4.6-7.59s-.13,0-.22.09-.11.14.07.07S38.29,4.51,38.25,4.47ZM37.12,8.81c-.06,0-.21.14-.34.31-.28.39-.21.39.17,0C37.11,8.94,37.19,8.8,37.12,8.81ZM35.5,5.63c0-.12,0-.17,0-.12a.25.25,0,0,0-.12.19C35.33,5.88,35.42,5.84,35.5,5.63ZM26.29,31.44c-.06.32,0,.4.09.35s.33-1.22.12-1.22-.13.11-.13.24A3.58,3.58,0,0,1,26.29,31.44ZM4.2,44.87a1.91,1.91,0,0,0-.59.51c0,.16.07.15.53-.08A3.94,3.94,0,0,0,5.65,44c.47-.72.4-.75-.27-.11A11.19,11.19,0,0,1,4.2,44.87ZM3.3,47c.07.13.63,0,.93-.28.1-.08.57-.63,1-1.21s1-1.22,1.22-1.41.32-.39.27-.44A9.81,9.81,0,0,0,5.3,45a18.46,18.46,0,0,1-1.73,1.66C3.38,46.78,3.26,46.93,3.3,47ZM11,36.92A7.87,7.87,0,0,0,10,38,10.71,10.71,0,0,1,8.7,39.41c-.2.14-.36.31-.36.38s.18.13.46-.14a1,1,0,0,1,.46-.24c.11,0,.19,0,.19-.11a3.24,3.24,0,0,1,.58-.71C10.86,37.71,11.31,36.92,11,36.92ZM5.68,42.31a6.3,6.3,0,0,1-1.25.81c-.87.45-1,.56-.89.76s2.3-1.14,2.48-1.7C6.09,42,6,42,5.68,42.31Zm.48-5.21c-.26.35-.81,1-1.23,1.47-.62.7-.8.84-1,.78s-.28,0-.28.31,0,.37.27.3a2.85,2.85,0,0,0,.74-.6l1.1-1.19a2.81,2.81,0,0,0,.62-.84.17.17,0,0,1,.17-.16A6.49,6.49,0,0,0,8,35.62s-.1-.07-.22-.07S6.86,36.17,6.16,37.1ZM26.72,32a.74.74,0,0,0,0,.48c.12.2.43-.2.43-.56a6.63,6.63,0,0,1,.08-.73c.05-.3,0-.46-.06-.46s-.17.21-.21.46A5,5,0,0,1,26.72,32ZM5.31,47.43c.91-.75,3.07-3.67,2.86-3.88,0,0-.18.16-.34.42a14,14,0,0,1-3.44,3.66c-.37.21-.66.46-.66.55C3.73,48.59,4.14,48.39,5.31,47.43Zm-1.73-6.1C5.66,40,6.77,39.44,7,39.65s.85-.28,2-1.56c.79-.89,1-1.25.94-1.35s-.23-.07-1.6,1.52a2.77,2.77,0,0,1-.89.77.58.58,0,0,0-.37.19.58.58,0,0,1-.39.19c-.27,0-.31-.32-.06-.42a11.54,11.54,0,0,0,1.61-1.83l.49-.6c.39-.46.43-.64.15-.64s-1,.85-1.61,1.69c-.43.64-1,1.13-1.26,1.07-.07,0-.24.2-.36.48s-.39.59-1,1c-1,.55-1.38.88-1.38,1.2S3.25,41.54,3.58,41.33Zm.71.44c-.79.38-1,.55-.65.65a1.19,1.19,0,0,0,.53-.05l.4-.1a6.57,6.57,0,0,0,.53-.45c.33-.3.5-.56.5-.77v-.31l-.26.32A3.68,3.68,0,0,1,4.29,41.77Zm-.11,43a8.75,8.75,0,0,1,0-1.95,1.44,1.44,0,0,0,0-.88c-.11-.21-.13-.2-.2.08s-.15.31-.35.28-.27,0-.27.15a.47.47,0,0,1-.16.3c-.12.1-.14.37-.07,1.1a39.06,39.06,0,0,1,0,5.53c-.06.51-.18,1.73-.25,2.72s-.17,2.13-.2,2.52,0,.72.07.72.3-.57.2-.72a3.88,3.88,0,0,1,.13-1,4.68,4.68,0,0,0,.11-1.27,14.94,14.94,0,0,1,0-1.87c.07-.84.15-2.11.18-2.83s.1-2,.14-2.8a10.92,10.92,0,0,1,.14-1.58c.09-.16.3-.11.27.06s0,1.08.09,2.21c.08,1.58.12,1.88.18,1.3A16.61,16.61,0,0,0,4.18,84.82Zm.12,3.31s0-.14,0-.23-.06-.07-.07.07S4.26,88.18,4.3,88.13Zm-3.19-6a11.05,11.05,0,0,0,1.09-.86,21.17,21.17,0,0,1,1.68-1.39,3.41,3.41,0,0,0,1-1.2c.08-.2.06-.2-.15,0l-1.11.89L2.31,80.61c-.27.23-.78.62-1.12.88a4.51,4.51,0,0,0-.73.65C.32,82.4.65,82.38,1.11,82.1ZM8.27,33a8.22,8.22,0,0,1,1.37-.21,4.15,4.15,0,0,1,2.61,1.1l1.12,1c.29.25.55.37.7.33a1.94,1.94,0,0,0,.8-1.18c.08-.32.06-.31-.44.17s-.55.48-.72.3-.17-.22.06-.47a4.06,4.06,0,0,0,.46-.66,6.22,6.22,0,0,1,.47-.71c.15-.19.24-.38.2-.42s-.61.12-.77.49-.86,1.08-1.16,1.08c-.12,0,0-.22.37-.6,1-1,1.09-1.58.2-.87-.26.21-.51.36-.54.33s.1-.31.31-.62c.36-.53.47-.86.28-.85s-.19.22-.32.49c-.27.58-1.22,1.4-1.5,1.3s-.24-.34.45-1.05,1.26-1.7,1.13-1.89-.29-.1-.29.12-.3.7-1.31,1.51a3.32,3.32,0,0,1-1.25.76c-.46,0-.36-.28.27-.81s1.73-1.78,1.63-1.89-.2.08-.35.26a18.69,18.69,0,0,1-3,2.3,2.35,2.35,0,0,1-.72.26c-.39,0-.05-.39,1.33-1.54a10.62,10.62,0,0,0,2.31-2.37,5.32,5.32,0,0,0-.84.77A27.61,27.61,0,0,1,8.92,31.3c-.85.66-1.33,1.11-1.33,1.26s-.16.27-.72.39a2.75,2.75,0,0,0-.84.27C5.86,33.38,7.18,33.26,8.27,33Zm-3.4,2.66a4.2,4.2,0,0,1,.75-.49c.12,0,.39-.51.31-.58a6,6,0,0,0-2.07,1.46C3.86,36.29,4.23,36.15,4.87,35.67Zm5.52-6.81c.67-1,.18-.71-1,.65C9,30,8.18,30.82,7.62,31.36a5.31,5.31,0,0,0-1,1.16c0,.28.18.19.88-.44A14.25,14.25,0,0,0,10.39,28.86Zm8,1.43c-.12.21.26.21.39,0s.78-.77,1.62-1.52c1.4-1.25,1.68-1.56,1.43-1.56a16.87,16.87,0,0,0-1.32,1.19,8.22,8.22,0,0,1-1.38,1.18C19,29.58,18.54,30,18.36,30.29Zm2.12-3.5c-1.24,1.43-1.57,1.73-1.69,1.54s-.17-.14-.38.13A5.07,5.07,0,0,0,18,29c-.18.31.28.29.57,0a.7.7,0,0,1,.34-.25,16.86,16.86,0,0,0,2.21-2.26C21.15,26.21,20.84,26.37,20.48,26.79ZM4.3,38c.17-.25.35-.46.41-.46a10.49,10.49,0,0,0,1.55-2.16c-.15-.15-.47.13-1.29,1.18a6.58,6.58,0,0,1-1,1.1,1.74,1.74,0,0,0-.5.79s.12,0,.26,0A1.12,1.12,0,0,0,4.3,38Zm7.58-10a.24.24,0,0,1,.21.22c0,.12,0,0,.07-.19s.16-.48.55-.73.47-.34.44-.37a5,5,0,0,0-1.45,1C11.69,27.92,11.78,28,11.88,28Zm13.37-1.45c-.2,0-.37.13-.37.2s.21.16.84-.19c1.37-.74,2.67-1.66,2.57-1.82s-.55,0-1.62.89A5.85,5.85,0,0,1,25.25,26.51Zm.69-2.28a5.93,5.93,0,0,1-1.2.5c-.24,0-.4.16-.27.29a.24.24,0,0,0,.22,0,19.59,19.59,0,0,0,2.68-1.23C27.37,23.62,26.87,23.75,25.94,24.23Zm.53.45a4.81,4.81,0,0,1-1.06.66.59.59,0,0,0-.38.23c-.1.33.23.19,1.36-.53l.71-.41c.28-.15.52-.34.52-.4C27.62,24,27.16,24.14,26.47,24.68Zm-12.28-.26a6.34,6.34,0,0,1-.88.92c-.29.23-.81.7-1.16,1-.5.48-.6.63-.46.72s.47,0,1.37-1l.94-1a2.29,2.29,0,0,0,.56-.95C14.56,24,14.39,24.15,14.19,24.42Zm1.66.44a9.37,9.37,0,0,1-1.25.94,9.24,9.24,0,0,0-1.18.88c-.17.22,0,.11,1.45-.75a5.43,5.43,0,0,0,1.55-1.21C16.42,24.51,16.09,24.6,15.85,24.86Zm-4,16.57c.36-.33.69-.65.74-.71s.26-.33.49-.6l.82-1c.43-.49.49-.68.28-.82s-.45.14-1.39,1.4a12.54,12.54,0,0,1-1.34,1.56,1.68,1.68,0,0,0-.5.57C11,42.15,11.21,42,11.85,41.43Zm-.47-.79a4.45,4.45,0,0,0,1.44-1.56c.11-.2.27-.48.36-.62a.62.62,0,0,0,.09-.48c-.07-.18-.12-.19-.28-.06a2.41,2.41,0,0,0-.43.61,7.42,7.42,0,0,1-2,2.23c-.37.13-.49.45-.2.54A3.23,3.23,0,0,0,11.38,40.64ZM16.44,32c-.17-.11-.34.21-.65,1.22a3.45,3.45,0,0,1-.94,1.56c-.38.41-.65.8-.61.87s.47,0,1-.65C16.05,34.08,16.79,32.23,16.44,32Zm-2-5.18c-.16,0-.29,0-.29.05a1,1,0,0,1-.08.26c-.07.19,0,.19.4,0a3.23,3.23,0,0,0,.75-.44,1,1,0,0,1,.35-.24,2.11,2.11,0,0,0,.58-.41c.26-.22.64-.52.83-.67s.31-.31.26-.35-.8.36-1.78,1.18A2.67,2.67,0,0,1,14.47,26.84Zm.72,6.07c-.07.13-.09.28,0,.32s.26.09.34-.13S15.35,32.61,15.19,32.91ZM10.7,39.59c0-.07.18-.23.4-.37.51-.32,1.22-1.6,1-1.81s-.26,0-.62.58a7.23,7.23,0,0,1-1.86,2,.28.28,0,0,0-.22.18c0,.12,0,.19.11.19A2.62,2.62,0,0,0,10.7,39.59Zm7.55-14.24c-.21,0-.64.3-1.39,1A4.93,4.93,0,0,1,16,27c-.16.05-.29.16-.29.23s0,.16.56-.06S18.51,25.35,18.25,25.35ZM32.9,13.9c-.12.14-.17.25-.11.25s.19-.11.27-.25.14-.24.11-.24A1.59,1.59,0,0,0,32.9,13.9ZM1.45,75.64a12.26,12.26,0,0,1,1.06-1.26c.24-.17.31-.52.11-.52a1.87,1.87,0,0,0-.52.53c-.23.29-.71.88-1.07,1.31a5.14,5.14,0,0,0-.66.9C.37,76.91.66,76.65,1.45,75.64ZM43.17,26.18c0,.25.06.2.44-.29l.34-.46-.39.29C43.34,25.88,43.17,26.09,43.17,26.18ZM34.46,7.25a.27.27,0,0,0-.13.19c0,.18.09.14.18-.07S34.53,7.2,34.46,7.25Zm.3,7.59A35.76,35.76,0,0,0,37.36,12c.13-.21-.08-.48-.27-.36a3.55,3.55,0,0,0-.46.72,6.28,6.28,0,0,1-1.7,2c-.12,0-.22.14-.22.23s-.16.26-.34.38a3.22,3.22,0,0,0-1,1C33.34,16.21,33.73,15.9,34.76,14.84ZM32.1,8.51s0,0,.12,0a.25.25,0,0,0,.12-.19,5.89,5.89,0,0,1,.36-.89,17.23,17.23,0,0,0,1.08-2.8c.25-.82.41-1.15.57-1.2s.32-.64.06-.89-.19-.13-.31.16a11.23,11.23,0,0,0-.32,1.21,20.29,20.29,0,0,1-1.3,3.71C32.27,8.07,32.1,8.48,32.1,8.51Zm.24,2.74c0,.06.13-.08.27-.31s.23-.44.19-.47S32.34,11.07,32.34,11.25Zm-.26-8.41a7.33,7.33,0,0,1,.7-1.91A.57.57,0,0,0,33,.47c0-.38-.22-.63-.31-.35s-1.13,4-1.28,4.52q-.06.24.06.12A13.11,13.11,0,0,0,32.08,2.84Zm1.2,6.8c.18-.37.22-.52.09-.35a5.19,5.19,0,0,0-.37.65C32.75,10.55,33,10.33,33.28,9.64Zm-7.78,38c0-.29-.36-.55-.75-.55-.23,0-.12.47.16.66S25.5,48,25.5,47.67Zm-1.78,1.27s.11.29.33.56c.54.65.76.63.44-.06C24.36,49.14,23.85,48.81,23.72,48.94Zm.29-.76a2.43,2.43,0,0,0,.34.5c.19.24.41.43.5.43s.2-.48,0-.74S24,48,24,48.18Zm-1,8.73c.11.32.24.35.45.14s.06-.26-.18-.62C22.81,55.69,22.66,55.94,23,56.91Zm2.42-1c-.51,0-.38.31.27.65a1.76,1.76,0,0,0,.68.26C26.76,56.66,26,56,25.45,56ZM23,52.06c-.08.08,0,.28.14.58.29.48.62.6.62.22S23.15,51.9,23,52.06Zm.48-1c-.17,0-.1.41.11.64s.4.29.5,0S23.73,51.11,23.48,51.1Zm0-1.05c-.16.1-.14.25,0,.45a4.68,4.68,0,0,1,.39.51c.18.29.25.33.4.21a.53.53,0,0,0,.18-.25C24.51,50.8,23.61,50,23.5,50.05Zm2.17,7.32c-.18.07-.17.11.08.39s.5.39.5.07A.47.47,0,0,0,25.67,57.37Zm4.44-.82c0-.15-.86-.5-1-.41s-.11.39.29.57S30.11,56.82,30.11,56.55Zm-.6-1.12c.66.42.84,0,.25-.51s-.65-.43-.65,0C29.11,55.08,29.24,55.26,29.51,55.43Zm.65-1c.09-.25-.37-.79-.68-.79s-.37.16,0,.57S30.05,54.65,30.16,54.38Zm-.43,3.26c0-.17-.51-.45-.81-.45s-.22.21.13.48S29.73,57.91,29.73,57.64Zm-1.84-9c0,.38,0,.43-.17.37s-.23,0-.23.18,0,.26-.12.26-.13.29-.15.65c0,.52-.08.66-.25.66-.34,0-.38.14-.16.55s.45.44.6-.07a5.24,5.24,0,0,1,.28-.69,1.42,1.42,0,0,0,.18-.51.3.3,0,0,1,.18-.26.36.36,0,0,0,.19-.31.39.39,0,0,1,.19-.32c.24-.09.14-.55-.17-.79S27.84,48.21,27.89,48.67ZM26.44,59.28l.23.46,0-.35a.68.68,0,0,0-.15-.56C26.26,58.52,26.18,58.78,26.44,59.28Zm-.35-5.94c-.12,0-.21,0-.21.07a2.37,2.37,0,0,0,.53.89c.33.37.59.36.59,0A1.26,1.26,0,0,0,26.09,53.34ZM2.78,72.06c.62-.73.62-.74.1-.25a11.09,11.09,0,0,0-1.16,1.34,3.46,3.46,0,0,1-.69.79,3.93,3.93,0,0,1,.87-1.6,1.22,1.22,0,0,0,.34-.59,8,8,0,0,1,1.41-2,.71.71,0,0,0,.2-.49V69l-.22.27c-.11.16-.36.52-.54.81s-.85,1.18-1.47,2a11.3,11.3,0,0,0-1.2,1.7c-.09.37,0,.58.34.51s.2.11-.38.83a4,4,0,0,0-.38.53c0,.31,1.07-1,1.73-2.07A13.28,13.28,0,0,1,2.78,72.06Zm22.6-32.22c.17-.23.17-.24,0-.08a.58.58,0,0,0-.22.3c0,.07,0,.11,0,.08Zm26.56-9.52c0,.08,0,.27.2.43.41.41.65.4.57,0a.45.45,0,0,1,.13-.48c.17-.12.17-.17,0-.46a.72.72,0,0,0-.7-.33c-.57,0-.68.15-.34.47C51.91,30.07,52,30.24,51.94,30.32Zm0,1c-.28.11-.23.32.11.45a.92.92,0,0,1,.38.25c.12.2.63.11.63-.11S52.18,31.27,51.94,31.36ZM26.7,45.66c.3-.27.31-.32.14-.5s-.47-.12-.47.17-.08.18-.31.12-.31,0-.31.21a.67.67,0,0,0,.07.36C25.94,46.15,26.36,46,26.7,45.66Zm-1.32,1.06c.27.44.43.5.54.2s.09-.58-.12-.5a.4.4,0,0,1-.38-.06C25.14,46.12,25.12,46.29,25.38,46.72Zm-2,8a1.41,1.41,0,0,0-.71-.73c-.25,0-.2.38.1.7S23.39,54.94,23.39,54.69Zm2.39.56c.48.53.84.6.84.15s-.95-1.07-1.17-.71C25.41,54.75,25.56,55,25.78,55.25ZM53.16,34c-.5-.38-.91-.41-.91-.06,0,.14.08.25.18.25.29,0,.36.25.11.44s-.22.19.08.42.27.28.22.33,0,.2.11.32c.4.44.52.29.58-.74C53.56,34.34,53.54,34.27,53.16,34Zm-.82-.8c.62.38,1.09.44,1.09.12a2.68,2.68,0,0,0-1.52-.78C51.63,32.64,51.74,32.81,52.34,33.19ZM57.11,30l-.38-.08c-.5-.1-.51.21,0,.57a1.71,1.71,0,0,1,.51.63c.17.4.22.43.48.26s.14-.16,0-.38a.35.35,0,0,1,.06-.5A.57.57,0,0,0,58,30c-.07-.3-1.33-1.33-1.54-1.25s-.22.29.26.74ZM21.69,47c-.23,0-.21.25,0,.52s.36.29.48.1S21.92,47,21.69,47Zm7.59,11.7c-.35,0-.4.3-.08.49s.5.16.6,0S29.61,58.69,29.28,58.69Zm-6.5-12.57c.06,0,.17-.14.23-.31a.44.44,0,0,1,.37-.31c.31,0,.32-.12,0-.61s-.41-.49-.41-.1-.18.64-.36.53-.13,0-.13.25-.08.35-.25.39-.34.52-.1.76.22.2.36-.23C22.61,46.29,22.72,46.12,22.78,46.12Zm-1.64,2.23c.16.3.08.51-.19.51s-.22,0,0,.57.49.45.4-.14c-.06-.33,0-.42.17-.47.36-.09.3-.56-.09-.71S21,48,21.14,48.35Zm1.38-6.24a1.5,1.5,0,0,0,.24-.42c0-.15-.49.45-.49.61S22.38,42.28,22.52,42.11Zm-1.9,8.13c-.09-.31-.23-.58-.31-.6s-.2.37,0,.57.11.2,0,.41-.13.32.07.68.3.42.38.42c.25,0,.34-.35.17-.66A6.12,6.12,0,0,1,20.62,50.24Zm-.4,3.7c0,.09.11.13.17.09a2.6,2.6,0,0,0-.13-1.49C19.94,52.18,19.91,53.07,20.22,53.94Zm10.54-4.27c-.49-.1-.57.17-.13.47s.58.26.68,0S31.26,49.78,30.76,49.67Zm16.05-10c-.39,0-.36.27.06.52s.48.27.58,0S47.22,39.65,46.81,39.65Zm-.16,31.54c-.27,0-.3.68-.07,1.25s.42.41.33-.5C46.86,71.39,46.79,71.19,46.65,71.19Zm.78-32.41c-.07-.29-.84-.8-1-.68a.94.94,0,0,0,0,.85A1.61,1.61,0,0,0,47,39C47.43,39,47.49,39,47.43,38.78ZM29.86,61.24c-.25-.15-.37.06-.23.38.08.16.19.3.24.3S30,61.33,29.86,61.24ZM48.18,72.07c-.09-1.16-.29-1.67-.53-1.39a6.79,6.79,0,0,0,.29,3c.28.64.51.6.41-.07C48.3,73.29,48.23,72.61,48.18,72.07ZM46.8,37.47c.54.23.8.23.89,0s-.07-.35-.63-.56C46.35,36.64,46.1,37.16,46.8,37.47Zm1-2.53c-.15-.27-.37-.38-.6-.29s-.12.12,0,.29a.52.52,0,0,0,.44.24C47.86,35.18,47.88,35.14,47.78,34.94ZM48,36.12c0-.22-.59-.6-.85-.55s-.23.4.23.62S48,36.39,48,36.12ZM53.94,87.2c.26-.17.3-.53.08-.61a1.32,1.32,0,0,1-.44-.31c-.29-.3-.67-.29-.84,0s0,.55.56.8S53.77,87.32,53.94,87.2Zm1.93-.54a.2.2,0,0,0-.08.26c.13.21.75.11.75-.12S56.12,86.5,55.87,86.66Zm-2.13,2.62a.6.6,0,0,1-.22.41c-.25.17-.43.53-.32.64s.16,0,.27,0,.42-.2.68-.3.46-.26.46-.35a.64.64,0,0,1,.25-.37c.35-.3.33-.72,0-.72S53.74,89,53.74,89.28ZM64,77.47a7.73,7.73,0,0,1-1.08-.8A39.4,39.4,0,0,0,59,73.84c-.17-.08-.35-.1-.4,0s1.38,1.34,4.57,3.38a5.9,5.9,0,0,0,1.23.67c.15,0,.13,0,0-.18A1.23,1.23,0,0,0,64,77.47Zm-13-4.66a.54.54,0,0,0-.09-.5c-.27-.35-.46-.12-.59.7a2.49,2.49,0,0,0,.22,1.56c.37,1,.6,1.21.45.32A5.91,5.91,0,0,1,51.05,72.81ZM41.61,37.74l.4-.05c.47,0,.55-.33.13-.45s-.84-.08-.84.11-.06.19-.12.19c-.23,0-.13.36.15.56s1.17.21,1.12,0-.21-.18-.43-.25Zm13.3,40.54c.65.21,1.73.24,1.67,0s-.5-.33-1.72-.72a10.85,10.85,0,0,1-1.21-.49,2.42,2.42,0,0,0-.71-.27c-.3,0-.36.25-.11.44A10.11,10.11,0,0,0,54.91,78.28ZM51,88.77a1.83,1.83,0,0,1,.16-.65,3.83,3.83,0,0,0,.2-.6,1.76,1.76,0,0,1,.38-.67c.35-.38.44-1.17.13-1.17a4.06,4.06,0,0,0-.94,1.7,2.22,2.22,0,0,1-.38.69,1.71,1.71,0,0,0-.35.78,2.49,2.49,0,0,1-.19.84c-.19.48-.2.63-.08.78a1,1,0,0,1,.09.7,1.67,1.67,0,0,0,.25,1.11,2,2,0,0,0,.41.62s.13.11.16.25.46.34.46.08a.65.65,0,0,1,.24-.38c.24-.22.43-.82.25-.82a1.65,1.65,0,0,0-.46.31,2.11,2.11,0,0,1-.44.31c-.16,0,.1-.53.37-.74s.63-1,.51-1.07-.27.11-.53.31a2.21,2.21,0,0,1-.58.38c-.18,0-.11-.46.12-.76s.43-1,.16-1-.39,0-.18-.32A1.94,1.94,0,0,0,51,88.77ZM41.08,38.66c-.19,0-.2.28,0,.47a.34.34,0,0,0,.54,0C41.71,39,41.34,38.67,41.08,38.66ZM57.25,57.6c0,.26,0,.47.09.47s.18.09.24.21.66,2.16.91,3.21c.06.27.17.7.23.95s.18.45.31.4.23-.34,0-.83a11.81,11.81,0,0,1-.72-2.76C57.91,57.45,57.34,56.53,57.25,57.6ZM30.39,50.35c-.39,0-.36.27.06.53s.51.27.61,0S30.8,50.35,30.39,50.35ZM32,70a1.19,1.19,0,0,0-.12-.5c-.09-.13-.12,0-.13.57a2.85,2.85,0,0,0,.08.84c.14.14.26.09.35-.12a.36.36,0,0,0,0-.34A.75.75,0,0,1,32,70Zm-2.2-17.67c-.43,0-.36.4.12.64s.59.27.59,0A.77.77,0,0,0,29.77,52.34Zm.15,18.16c.1.45.35.44.41,0,0-.21,0-.35-.17-.4C29.86,70,29.82,70.05,29.92,70.5Zm2.66-23.26a1.09,1.09,0,0,0-.48.13c-.17.11-.17.13,0,.24s.62.18.62.08a1.24,1.24,0,0,1,.07-.25C32.85,47.29,32.79,47.24,32.58,47.24Zm-2.66,4c-.28,0-.23.13.21.59s.6.51.6.11A.9.9,0,0,0,29.92,51.22Zm1.67-3c-.25,0-.37.06-.37.19a.31.31,0,0,1-.18.26.24.24,0,0,0,0,.46c.3.13.65,0,.69-.23a.59.59,0,0,1,.23-.35C32.19,48.42,32,48.24,31.59,48.24ZM40,41c0,.11,0,.15.15.13s.21-.1.2-.17S40,40.81,40,41ZM33.11,69c0-.24,0-.42-.11-.45s-.22,1-.08,1.55c0,.15.12.28.18.28s.28-.61.12-.8A1,1,0,0,1,33.11,69Zm5.7-28.58c0,.21,0,.23.19.11s.15-.38-.07-.38S38.81,40.27,38.81,40.42Zm1.81-.63c.09.14.56.15.56,0s-.37-.28-.52-.19A.14.14,0,0,0,40.62,39.79ZM34.16,70.52c.08.12.12,0,.15-.26.06-.61-.09-1.5-.25-1.5S34,70.26,34.16,70.52Zm4.09-29.38c.12.2.29.16.44-.13s.12-.25-.15-.17S38.15,41,38.25,41.14ZM35.17,67.42a10.63,10.63,0,0,0,.2,2.93c.16.21.53.13.47-.1a19.65,19.65,0,0,1-.31-2.53C35.51,67,35.26,66.81,35.17,67.42ZM26.75,52.09c-.42,0-.48.18-.17.52s.54.11.54-.28C27.12,52.15,27,52.09,26.75,52.09ZM4.91,81.22A1,1,0,0,1,5,80.53c.2-.37.13-.74-.15-.8s-.22,0-.22.2c0,.42-.5.83-2.95,2.4a6.93,6.93,0,0,0-1.12.83c-.08.23.45.32.66.1a7.48,7.48,0,0,1,.92-.61,16.09,16.09,0,0,0,1.43-1,3.8,3.8,0,0,1,.83-.57c.06,0,.12.26.11.59a14.36,14.36,0,0,0,.13,1.52c.1.64.12,2.69.07,6.45-.07,5.17-.06,5.51.14,5.47s.37-1.55.31-7.38C5.08,82.77,5.05,81.9,4.91,81.22ZM4.73,59.88c0,.13.06.15.17.09a6.47,6.47,0,0,0,1.24-1.41A4.69,4.69,0,0,0,4.73,59.88Zm-.87,1.45c-.2.23-.33.29-.39.2s-.39,0-.3.23-.2.7-.86,1.34A14.68,14.68,0,0,0,.37,65.52c0,.07,0,.13.1.13s.53-.33.53-.46a.27.27,0,0,1,.18-.2,1.09,1.09,0,0,0,.37-.52c.18-.44.52-.84,2-2.35a2.62,2.62,0,0,0,.68-.94C4.17,61,4.09,61.07,3.86,61.33Zm55.1-.9c.34,0,.53-.92.22-1-.12,0-.12-.11,0-.33s.13-.32,0-.6a3.69,3.69,0,0,1-.26-.75c-.1-.43-.4-.49-.36-.08,0,.13.1.81.18,1.51A6.17,6.17,0,0,0,59,60.43ZM12.74,91.48c0,.11.14.45.21.75.13.5.36.75.36.39a3.31,3.31,0,0,0-.53-1.34C12.71,91.28,12.7,91.37,12.74,91.48ZM15.6,55.75c.07-.18.05-.18-.11,0a.94.94,0,0,0-.19.2C15.3,56,15.54,55.92,15.6,55.75ZM6.16,60.22A11.84,11.84,0,0,1,7,59.28c.27-.26.46-.5.43-.53A10.48,10.48,0,0,0,5.3,60.82C5.4,61,5.77,60.73,6.16,60.22ZM.37,64.48c0,.2.35-.11,1.48-1.31A12.15,12.15,0,0,0,3,61.8,33.63,33.63,0,0,0,.37,64.48Zm3.42.18a1.78,1.78,0,0,0-.36.49c-.1.17-.65.9-1.24,1.62A6.9,6.9,0,0,0,1.12,68.3c0,.35.21.14.94-.93a14.21,14.21,0,0,1,1.45-1.91C4,64.94,4.19,64.33,3.79,64.66ZM2.69,69.2a2.17,2.17,0,0,1,.63-.67c.22-.1.29-.24.28-.54v-.41l-.25.31a5.86,5.86,0,0,0-.45.69,13.91,13.91,0,0,1-2,2.11,9.1,9.1,0,0,1,1.86-2.57A1,1,0,0,0,3,67.74c0-.29-.41.05-1.17,1C.43,70.45.12,71,.56,71c.23,0,.23.12,0,.43s-.23.65,0,.8.21.14,0,.49a2,2,0,0,0-.22.47c0,.06.18-.18.41-.52a8.32,8.32,0,0,1,.69-.93,2.51,2.51,0,0,0,.41-.55c.07-.14-.09,0-.35.28A2.94,2.94,0,0,1,1,72c-.18,0,.33-1,.84-1.59A14.47,14.47,0,0,0,2.69,69.2ZM.75,66.59a.42.42,0,0,1,.36-.31c.17,0,.33-.17.49-.5a11,11,0,0,1,1.78-2.27A5.2,5.2,0,0,0,4,62.73c.11-.31-.15-.33-.31,0a15.59,15.59,0,0,1-1.82,2,1.55,1.55,0,0,0-.41.5,2.2,2.2,0,0,1-.41.64,6,6,0,0,0-.57.79c-.1.18-.1.28,0,.28S.68,66.76.75,66.59Zm11.11,21a2.11,2.11,0,0,0,.15.69c.12.36.24.62.27.59a1.85,1.85,0,0,0-.15-.7C12,87.82,11.89,87.56,11.86,87.59ZM4,63.83c-.18.22-.82.93-1.42,1.56C1.44,66.54,1,67.13,1,67.44a1.25,1.25,0,0,1-.25.49,1.38,1.38,0,0,0-.25.39c0,.21.27,0,.38-.26a1.67,1.67,0,0,1,.34-.53A5,5,0,0,0,2.36,66a6.19,6.19,0,0,1,1.06-1.31,11,11,0,0,0,1.06-1.21C4.48,63.31,4.28,63.43,4,63.83ZM35.09,28.42c.4-.56.48-.76.37-.88s-.22-.05-.45.23c-.41.5-.92,1.4-.83,1.49S34.57,29.14,35.09,28.42Zm-34.3,35A6.44,6.44,0,0,1,1.43,63a3.86,3.86,0,0,0,1.06-1.33c0-.07-.18.08-.4.33a7.1,7.1,0,0,1-1.12,1,2.82,2.82,0,0,0-.72.62C.25,63.72.36,63.69.79,63.38ZM33.28,30.32c.21-.34-.12-.24-1,.29a7.7,7.7,0,0,1-1.34.72c-.49.16-.76.34-.76.5S33,30.75,33.28,30.32ZM7.7,71.4c0-.07-.38.28-.78.79A16.9,16.9,0,0,1,5.21,74a6.7,6.7,0,0,0-1,1c0,.29.39,0,1.33-.92a10.67,10.67,0,0,0,1-1.1A3,3,0,0,1,7,72.44a1.69,1.69,0,0,0,.43-.63.23.23,0,0,1,.15-.21A.15.15,0,0,0,7.7,71.4Zm.07,1.47s.09-.06.13-.13,0-.12-.06-.12a.13.13,0,0,0-.13.12C7.71,72.81,7.74,72.87,7.77,72.87ZM6.5,71.22a25.32,25.32,0,0,1-2.13,2c-.08,0-.14.11-.14.25,0,.46.16.35,2-1.4a6.49,6.49,0,0,0,1-1.23,1.75,1.75,0,0,1,.36-.53,5.38,5.38,0,0,0,.52-.6C8.32,69.44,7.6,70.11,6.5,71.22Zm0-2.84c.67-.75.72-.88.12-.31a3.78,3.78,0,0,0-.65.72.12.12,0,0,0,.13.1.11.11,0,0,0,.12-.1A1.5,1.5,0,0,1,6.5,68.38ZM1.08,80.83A12.47,12.47,0,0,0,3.4,79.05c.34-.29.87-.72,1.2-1a14.38,14.38,0,0,0,2-1.92,8.89,8.89,0,0,0,1-1.51s-.69.62-1.54,1.46S4.29,77.82,4,78s-1.09.85-1.8,1.42L.89,80.53s0,.09,0,.17S1,80.83,1.08,80.83Zm2.47-8c.2.33.72-.12,2.42-2.11.38-.43.85-1,1.06-1.18,1.1-1.15,2.18-2.71,2-2.9a4.62,4.62,0,0,0-.67.75c-.65.83-3.09,3.52-4.23,4.66C3.77,72.45,3.51,72.8,3.55,72.87ZM2.12,78.49a11.2,11.2,0,0,0,.94-.76A20.07,20.07,0,0,1,5.14,76a11.6,11.6,0,0,0,2.44-2.93c0-.06-.08,0-.18.11a27,27,0,0,1-3.1,3c-.27.2-.79.63-1.15,1-.77.68-1.16.8-.54.16s.29-.64-.48.12a9.6,9.6,0,0,1-1.12,1c-.21.14-.39.3-.39.36S1.76,78.71,2.12,78.49ZM3,75.26c0-.25-.23-.17-.52.18-.16.18-.65.72-1.09,1.19a10,10,0,0,0-.85,1c0,.06,0,.11.1.11A13.43,13.43,0,0,0,3,75.26Zm8.47,11.22c0,.13,0,.2.07.16a.28.28,0,0,0,0-.24C11.49,86.3,11.46,86.33,11.45,86.48Zm55-49.75,0-.36a.77.77,0,0,0-.09-.49c-.23-.23-.3,0-.12.44Zm10-6.07c.08.31.22.54.35.57.36.1.4.09.4,0a2.6,2.6,0,0,0-.24-.6,3.73,3.73,0,0,1-.32-.94c-.09-.43-.35-.7-.52-.52a1,1,0,0,0,.06.54ZM75.32,41.14c.09.14.71.17,1.15,0a.34.34,0,0,0,.28-.31c0-.19-.09-.23-.6-.23S75.16,40.88,75.32,41.14Zm.85-7.93c.27.17.33-.09.13-.65a5.47,5.47,0,0,1-.24-1.3c0-.69-.31-1.22-.5-1a10.64,10.64,0,0,0,.35,2.58A.92.92,0,0,0,76.17,33.21Zm-7.68,5.31a.26.26,0,0,0-.06-.28c-.11-.1-.18-.09-.26,0a.63.63,0,0,0-.12.28C68,38.71,68.39,38.68,68.49,38.52Zm7.14-.7c0-.22-.22-.43-.3-.3a.29.29,0,0,0,0,.27C75.41,37.93,75.64,38,75.63,37.82Zm-8.57-.65a.12.12,0,0,0-.13.11,1.18,1.18,0,0,1-.09.33c0,.15,0,.19.1.15S67.25,37.17,67.06,37.17Zm.74.93c0-.17-.06-.31-.12-.31s-.27.2-.18.42S67.8,38.45,67.8,38.1ZM63.69,62.46c.22-.31.34-.62.28-.68s-.9.84-.9,1.1S63.3,63,63.69,62.46ZM57.1,32.57c0,.18.32.14.48,0s.1-.21,0-.33a.49.49,0,0,1-.19-.3c0-.25-.72-.86-.92-.78s-.11.19.24.71A4.44,4.44,0,0,1,57.1,32.57Zm18.41,6.27c-.16-.09-.3.25-.2.5,0,.1.12.19.2.19S75.67,39,75.51,38.84ZM60,58.73a.32.32,0,0,0,0-.44c-.32-.51-.61-.12-.32.42C59.85,58.94,59.86,58.94,60,58.73ZM57.72,34.2a1.8,1.8,0,0,1-.31-.78c0-.38-.55-1-.85-1s.07,1.05.31,1.22a.57.57,0,0,1,.23.39,1.12,1.12,0,0,0,.26.55C57.83,35.2,58.18,34.82,57.72,34.2Zm17.94,6c.44-.09.59-.31.28-.43s-.68.13-.68.35S75.37,40.22,75.66,40.16ZM59.71,69.32a.43.43,0,0,0-.07.39c.06.16.11.17.26.05a.55.55,0,0,0,.19-.32,8.68,8.68,0,0,1,1.87-3c.73-.77.86-1,.86-1.35,0-.53-.12-.54-.6-.06a1.41,1.41,0,0,1-.53.38c-.13,0-.13,0,0-.15a.61.61,0,0,0,.15-.34c0-.12-.13-.07-.39.18-.5.48-.67.79-.51,1s0,.32-.32.71a2.87,2.87,0,0,0-.82,2A.69.69,0,0,1,59.71,69.32Zm8.71-42.48c0-.15-.35-.31-.45-.21a.17.17,0,0,0,0,.2C68.08,27,68.42,27,68.42,26.84ZM64.36,63.13c.6-.89.82-1.33.82-1.62v-.4l-.44.5a6.81,6.81,0,0,0-1.54,2.47C63.2,64.66,63.48,64.43,64.36,63.13ZM21.15,90.92c.15.28.29.48.32.45a2.51,2.51,0,0,0-.52-1A1.45,1.45,0,0,0,21.15,90.92Zm.51.86c.08.17.28.55.45.84a2.51,2.51,0,0,0,.36.53,6.18,6.18,0,0,0-.76-1.44C21.51,91.48,21.51,91.48,21.66,91.78Zm.86,1.63a.41.41,0,0,0,.08.27c.15.16.19,0,.06-.25S22.52,93.24,22.52,93.41Zm.69,1.07c-.19-.33-.38-.57-.41-.54a6.89,6.89,0,0,0,.74,1.54.43.43,0,0,0,.24.15c.16,0,.13-.2-.06-.39A5.94,5.94,0,0,1,23.21,94.48Zm-5.08-9.61a6.73,6.73,0,0,0-.32-.68,15.42,15.42,0,0,1-1-2.16.81.81,0,0,0-.2-.4c-.19-.12-.11.27.2,1,.44,1,2.56,5.22,2.71,5.4a.79.79,0,0,0,.15.16s-.28-.63-.67-1.4S18.24,85.15,18.13,84.87ZM20,88.54c-.08-.15-.17-.24-.21-.21s0,.18.1.32C20.13,89,20.22,88.89,20,88.54Zm.1,1.81s0-.14-.09-.22-.13-.11-.07.07S20.09,90.39,20.13,90.35Zm.47-.42c.1.21.22.35.26.31s-.05-.25-.19-.48C20.36,89.28,20.32,89.38,20.6,89.93Zm35.33-23c.32-.21.38-.59.33-2.21,0-.83,0-.8-.39-.85s-.28,0-.31,1.56a12.71,12.71,0,0,0,0,1.64S55.77,67.05,55.93,66.94ZM67.56,56.2c-.18,0-.75.78-.67.91s.23-.07.42-.29C67.68,56.43,67.77,56.2,67.56,56.2Zm-1.4,4a4.22,4.22,0,0,1,.72-.86,3.46,3.46,0,0,0,.91-1.78c0-.24-.22-.07-.29.21A12.89,12.89,0,0,1,66,60.1a1.4,1.4,0,0,0-.29.46C65.68,60.82,65.9,60.65,66.16,60.18ZM85.34,81.7c.27.28.87.34.86.09a1.26,1.26,0,0,0-1-.9c-.52,0-.78.15-.59.39a.51.51,0,0,0,.32.17A.83.83,0,0,1,85.34,81.7ZM79.11,70.63c-.18,0-.14.41.08.72s.43.31.51.07S79.27,70.63,79.11,70.63Zm6.54,14.16-.47,0,.06-.51c0-.28,0-.5,0-.5a3.52,3.52,0,0,0-1,.92c0,.05.15.07.34.05s.35,0,.38.3.15.42.79.13S86.28,84.74,85.65,84.79Zm3,11.59c-.29,0-1,.58-1,.82a.2.2,0,0,1-.22.18l-1.27.06a3.44,3.44,0,0,1-1.69-.2,14.29,14.29,0,0,1-3.62-3.35c-2.1-2.47-2.3-2.91-2.33-5.1,0-1.38,0-1.45.35-2a1.78,1.78,0,0,1,.45-.53,1.54,1.54,0,0,0,.49-.32c.42-.36.48-.86.1-.86s-.45-.2-.49-.81c0-.44-.09-.55-.25-.52s-.32-.27-.12-1.38c.16-.93.16-1-.07-1.2s-.24-.28-.08-1.07a3.46,3.46,0,0,0-1.56-3.91c-.06,0-.2-.14-.31-.31a.66.66,0,0,0-.51-.31A2.72,2.72,0,0,1,75.11,75c-.54-.37-1-.35-2,.1A15.36,15.36,0,0,0,71,76.48c-.29.25-1.06.45-1.06.27s.13-.21.28-.31l.28-.2h-.34a6.41,6.41,0,0,0-2,.64.59.59,0,0,1-.29.1c-.13,0-.12-.07,0-.3.28-.44.15-.54-.53-.43-.33.05-.67.1-.76.1-.31,0-.13.28.43.61a6.71,6.71,0,0,1,2,1.63c.55.9.44,2.48-.44,6.19a4.84,4.84,0,0,1-1.83,1.43,3.76,3.76,0,0,1-2,.31c-1.77,0-2,.15-3.17,1.33a11,11,0,0,0-2.1,2.72A13.58,13.58,0,0,1,56,94.31l-.68.35-.74-.32a7,7,0,0,1-1.23-.71c-.6-.48-.79-.43-1.56.42-1.08,1.2-1.24,1.36-1.55,1.52a6.42,6.42,0,0,1-2.68.41,5,5,0,0,0-1.66.2c-1,.35-1.61.16-1-.31.33-.26.36-.55,0-.42a2.56,2.56,0,0,1-.59.14c-.32,0-.43,0-.74-.48a2.83,2.83,0,0,1-.45-1.28c0-.41-.15-1-.21-1.19a2.07,2.07,0,0,1-.09-.68c0-.13.07-.79.11-1.47a7.34,7.34,0,0,1,1.43-4.06,7.4,7.4,0,0,1,5.09-3.81c1.37-.37,2.63.14,2.63,1,0,.43.3.79.57.69s.23-.32,0-.51a.35.35,0,0,1-.08-.32c.06-.14.22-.15.74-.08a5.28,5.28,0,0,1,1,.23,1.42,1.42,0,0,0,.63.07.49.49,0,0,1,.51.18c.27.3.44.33.44.07s.22-.23.38.08a2.13,2.13,0,0,0,2.28.49A.44.44,0,0,0,59,84.1a6,6,0,0,1,.69-2.29c.35-.39.12-.6-1.39-1.26-1.06-.47-1.45-.58-1.79-.53s-1.21.15-2.15.24a10.65,10.65,0,0,0-2.77.57,3.88,3.88,0,0,1-1.27.32c-.29-.11-.11-.23,1.12-.77,1-.41,1.07-.49.91-.65a2.76,2.76,0,0,0-1.75-.28c-.91.4-4.79.76-4.79.43,0-.09.34-.17.91-.23,1.92-.18,1.35-.51-.69-.4-1.33.08-1.42,0-.38-.34.36-.12.66-.28.66-.35s-1.27,0-2,.21-1.88.2-1.88-.19a2.93,2.93,0,0,1,.93-.56,3.4,3.4,0,0,0,.94-.53,2.15,2.15,0,0,0-.91-.39c-.05,0-.09.05-.09.12s.13.13.28.13.24,0,.09.11a1.76,1.76,0,0,1-.74.08,2.69,2.69,0,0,0-1.23.28,9.6,9.6,0,0,1-3.4.6,26.46,26.46,0,0,1-9.2-1.71,3.23,3.23,0,0,0-.78-.23A7.89,7.89,0,0,1,27,76a14.91,14.91,0,0,0-3.72-1.1,1.94,1.94,0,0,0-.68.17l-1.18.58c-.94.45-1.22.82-.93,1.28a2.77,2.77,0,0,1,.27.89c.09.6.08.62-.15.42a.5.5,0,0,0-.4-.14c-.09,0-.25-.07-.36-.22l-.19-.28-.15.42a1.16,1.16,0,0,0,0,.73c.07.2,0,.33-.06.4s-.44-.18-.55-.61c0-.16-.15-.28-.25-.28s-.17-.14-.17-.39c0-.46-.43-1.1-.74-1.1-.14,0-.29-.16-.39-.41-.28-.73-2-4.13-2.14-4.38s-.22-.22-.39-.08a.58.58,0,0,0-.19.4c0,.13-.06.24-.12.24a7.8,7.8,0,0,0-1.69,1.81,5.67,5.67,0,0,1-.61.79.59.59,0,0,0-.2.4,20.37,20.37,0,0,0,1.62,3.77l1.18,2.24a14.83,14.83,0,0,0,.74,1.31c.08.1.36.55.63,1s.72,1.18,1,1.64a4.65,4.65,0,0,1,.54,1,.33.33,0,0,0,.2.26c.15.06.17.11.07.22s0,.28.23.67a2.84,2.84,0,0,1,.37.65,19.76,19.76,0,0,0,1.58,2.42c.1.11.23.19.28.15s.25.24.44.6.65,1.17,1,1.81a4.4,4.4,0,0,1,.59,1.24c-.07.08-.18,0-.83-.83-.12-.14-.45-.64-.74-1.1s-.81-1.29-1.17-1.84c-1-1.52-1.23-1.93-1.81-3-.29-.54-.71-1.23-.93-1.54a15.09,15.09,0,0,1-.79-1.31c-.22-.41-.62-1.14-.9-1.61s-1.22-2.3-2.11-4.05a35.34,35.34,0,0,0-1.87-3.42l-.25-.25.09.44a20,20,0,0,0,1.08,2.86c.25.58,1.2,2.47,1.57,3.11s.42,1.37.15,1.37A6.36,6.36,0,0,1,13.31,82c-.84-2.12-2.85-6.19-3-6s.49,2,3.9,9a13.07,13.07,0,0,0,.92,1.67,3,3,0,0,1,.43.94c.11.37.24.78.29.9s0,.22,0,.22a3.69,3.69,0,0,1-.65-1.09c-.29-.6-.72-1.38-.95-1.75a4.83,4.83,0,0,1-.41-.72s-.46-1-1-2.14S11.44,80.14,11,79.21q-2-4.35-.91-.74c.17.56,1.36,3.6,2,5,.49,1.15.59,1.84.11.77a1.87,1.87,0,0,0-.45-.66.27.27,0,0,1-.18-.2c0-.2-2.12-5.48-2.25-5.62s-.1.44.33,1.63,1.5,4.35,2.84,8.48A11.22,11.22,0,0,1,13,89.82c0,.15-.32-.59-1-2.77-.46-1.45-.76-2-.6-1.24,0,.24,0,.39,0,.34s-.31-1.1-.16-1,.1,0,.06-.1a.23.23,0,0,0-.25-.13c-.2,0-.39-.48-.71-1.84a24.43,24.43,0,0,0-1.12-3.36c-.29-.72-.55-1.4-.59-1.52-.13-.41-.38-.22-.65.49A3,3,0,0,1,7,80l-.69.61L6.38,82c0,.76.12,2,.2,2.81s.16,2.27.2,3.3S6.9,90.62,7,91.4c.25,3.28.27,3.71.14,3.79s-.23-.16-.4-2.54c-.09-1.13-.17-2.17-.19-2.3s0-.58,0-1c0-.56-.05-.71-.21-.71s-.18.1-.11.56,0,.56,0,.56a5.26,5.26,0,0,1-.21-1.59,52.15,52.15,0,0,0-.58-6.75c-.06,0,.37-.51,1-1A6.92,6.92,0,0,0,7.55,79,4.64,4.64,0,0,0,8,76.92c-.08-.48.24-1.07.57-1.07s.51-.25.51-.66,0-.35.25-.3.7-.41,1.34-1.67a3.06,3.06,0,0,0,.45-1.57,1.68,1.68,0,0,0-.16-.8c-.17-.17-.18-.59,0-.59A3.32,3.32,0,0,0,11.82,69a.37.37,0,0,1,.18-.28c.47-.26.73-2.51.38-3.33-.2-.49-.26-.51-.77-.25a1.64,1.64,0,0,1-.57.19,2.75,2.75,0,0,0-.81.29A8.14,8.14,0,0,1,9.05,66a2.09,2.09,0,0,0-.73.33c-.16.19-.41.24-.3.06s-.42-.28-.86-.14a1.3,1.3,0,0,0-.68.57c-.24.41-.51.57-.51.31,0-.06-.25-.23-.56-.36s-.57-.33-.57-.42a1.62,1.62,0,0,1,.26-1.15,2.26,2.26,0,0,0,.55-1.45,1.85,1.85,0,0,1,.27-.86.5.5,0,0,0,.18-.32c0-.1.13-.23.29-.29a2.34,2.34,0,0,0,.71-.65l.48-.6a23.31,23.31,0,0,0,2-2.66s-.12-.08-.27-.08c-.3,0-.82.53-2.43,2.46a6.88,6.88,0,0,1-1.24,1.28c-.09,0-.17,0-.17-.07a8.83,8.83,0,0,1,1.18-1.56c1.1-1.24,1.51-1.81,1.35-1.89l-.66-.21a5.11,5.11,0,0,1-.78-.27,1,1,0,0,0-.34-.11A12.61,12.61,0,0,0,3.48,60.2s.09.1.18.1a2.48,2.48,0,0,1,1.07.5,4.65,4.65,0,0,1-1.59-.06.2.2,0,0,0-.22.06c0,.06-.15.08-.24.05-.26-.1-1.21.6-1.62,1.18s-.56.65-.56.39a4.68,4.68,0,0,1,.62-.9c.67-.83,1.88-1.74,2-1.49a.23.23,0,0,0,.19.15c.07,0,.09,0,0-.08s0-.18.2-.28A16.53,16.53,0,0,0,5.6,57.55c0-.4-1.46.54-2.06,1.32-.33.43-.68.58-.68.29a6.16,6.16,0,0,1,1-1.18c1-1,1-1,.86-1.37l-.16-.35-.44.5c-1.29,1.45-1.94,2.05-2.23,2.05H1.6l.25-.34a8.43,8.43,0,0,1,.83-.9c1.11-1.06,1.83-2.12,1.45-2.12a4.62,4.62,0,0,0-.86.69,3.64,3.64,0,0,1-.94.68A.56.56,0,0,0,2,57a.54.54,0,0,1-.34.18c-.31,0,.13-.56,1.23-1.61.76-.73,1-1,1-1.28s0-.34-.28-.2a4.94,4.94,0,0,0-.76.57c-.48.43-1.3.85-1.41.74s.22-.51,1.27-1.31,1.12-.89,1.15-1.3,0-.46-.1-.46a4.65,4.65,0,0,0-1,.77,4.49,4.49,0,0,1-.92.7,17.58,17.58,0,0,1,2.07-2.34,3.61,3.61,0,0,0,.62-.84c.09-.22.22-.4.27-.4a1.63,1.63,0,0,0,.35-.52l.26-.51-.57.09c-.82.12-.75-.16.18-.76a10.11,10.11,0,0,0,2.63-2.87c.51-.79.81-1,.66-.5-.07.22,0,.19.42-.21s.52-.44.52-.37a28.77,28.77,0,0,1-2.43,2.86,4.38,4.38,0,0,0-1,1.27c.15.15,2.11-1.69,3.47-3.25a3.53,3.53,0,0,1,.8-.78s0,.15-.09.25-.1.2,0,.25,0,.41-.61,1.25c-1.2,1.57-1.32,2-.21.75a5.62,5.62,0,0,0,1.55-3.77c.06-1.12.07-1.16.32-1.08.85.27,1,.23,1.52-.39a8.66,8.66,0,0,0,1.38-2.14c.33-.74.6-.8.61-.14a1.82,1.82,0,0,0,.11.65c.12.27-.18.89-.78,1.59-.38.45-.39.49-.16.49s.26,0,.26.07a11.46,11.46,0,0,1-1.27,1.9c-.74.92-.72,1.16,0,.31a13.72,13.72,0,0,0,1.5-2.09,10,10,0,0,1,.58-1,2.77,2.77,0,0,0,.54-2.55c-.11-.55-.11-.84,0-.93s.18,0,.27.13a.46.46,0,0,0,.31.26,9.36,9.36,0,0,0,2.33-1.75c.37-.37,1.11-1.06,1.64-1.52a21.07,21.07,0,0,0,1.82-1.93,22.7,22.7,0,0,0,2.25-3.28c0-.3-.38.06-1,1l-.94,1.36a19.76,19.76,0,0,1-3.11,3.15c-1.32.88-2.65,1.72-2.72,1.72a2,2,0,0,0-.44.26c-.2.14-.36.2-.36.14a18.36,18.36,0,0,1,2.92-2.17,21.3,21.3,0,0,0,3.64-3.59L23,30.37c.94-1.28,1.06-1.5.88-1.61s-.62.43-1.05,1.28c-.67,1.32-4.09,4.37-4.75,4.24-.15,0,0-.14.38-.33a19.05,19.05,0,0,0,4.13-4.12,8.94,8.94,0,0,1,1-1.28c.19-.17.22-.26.12-.36s-.4,0-.94.81c-.83,1.24-3.35,3.56-3.88,3.56-.36,0-.17-.24.39-.49a11.36,11.36,0,0,0,3.2-3.21c.75-1,.92-1.29.76-1.35s-.75.49-2.08,1.87a19.51,19.51,0,0,1-2.05,1.94c-.22,0-.19-.22.07-.36a25.4,25.4,0,0,0,3.63-3.9,3.09,3.09,0,0,0-.57-.53A1.6,1.6,0,0,0,21,26.1c-.42,0-.64.06-.76.21a8.57,8.57,0,0,1-2.48,1.82c-.19-.11.05-.41.44-.54a4.28,4.28,0,0,0,1.05-.7l.66-.58-.25-.25c-.22-.23-.28-.23-.49-.08l-1,.77c-.72.53-1.24.74-1.24.5,0-.06.24-.23.53-.38A8.53,8.53,0,0,0,18.6,26c.61-.54.62-.55.43-.9a2.89,2.89,0,0,0-1.12-.84c-1.09-.58-.9-.77.25-.25a2.86,2.86,0,0,1,1.21.94,2,2,0,0,0,.65.62h.84a2.35,2.35,0,0,1,1.05.19,8,8,0,0,1,2.16,2.13c.36.6.39.61,1,.35a5.71,5.71,0,0,1,.91-.3c.51-.13,1.3-.8,1.13-1a1.37,1.37,0,0,0-.71.13c-.75.27-.93.19-.34-.15a6.68,6.68,0,0,0,2.14-1.73c.21-.42.68-.59.51-.18a1,1,0,0,0-.07.4,21,21,0,0,1-.06,2.6c-.14.15-.22-.2-.22-.92a2,2,0,0,0-.09-.87c-.27-.17-.42.81-.37,2.47,0,.34,0,.46-.15.43s-.14-.21-.12-.44,0-.42-.09-.46-.09-.25-.05-.45c.08-.38,0-.45-.32-.25-.12.07-.2.4-.24.93s-.1.82-.22.82-.17-.11-.17-.24a.39.39,0,0,0-.11-.31c-.15-.09-.39,1.29-.39,2.2,0,.59-.05.73-.31.94a.77.77,0,0,0-.31.46c0,.2,0,.2.3,0s.39-.19.39.57c0,.5,0,.56.2.46.4-.21.33.1-.18.83a9,9,0,0,1-.59.8,7.21,7.21,0,0,0-.95,1.45c.09.1.58-.08.58-.21s.13-.12.29-.12a.87.87,0,0,0,.53-.28,5,5,0,0,0,.8-1.18c0-.27.64-1.4.75-1.33s.09.19,0,.33,0,.24.14.18.2,0,.13.26l-.09.34.38-.41a1.62,1.62,0,0,0,.39-.51c0-.23-.24-.26-.36,0s-.16.19-.2.14a6.33,6.33,0,0,1,.54-1.43,11.45,11.45,0,0,0,1.09-3.71c.23-1.33.15-2.51-.17-2.75s-.19-.19-.07-.31.19-.12.35,0c.33.27.35,0,0-.49a2.63,2.63,0,0,0-.85-.84,7.81,7.81,0,0,1-1-.69c-.52-.45-.67-.43-2.66.37a5.34,5.34,0,0,1-1.55.48c-.11-.11.31-.44.57-.44a5.81,5.81,0,0,0,1.12-.47l.95-.47-.46,0A2.1,2.1,0,0,0,25,23a4.69,4.69,0,0,1-1.56.45c-.38,0-.26-.2.18-.3.19-.05.69-.22,1.11-.39a4.28,4.28,0,0,1,1.16-.3c.21,0,.38-.06.38-.13,0-.31-2.52.15-3.17.58-.27.19-.69.23-.69.07a4,4,0,0,1,1.75-.83l.93-.29H24a5.34,5.34,0,0,0-2.08.31,3.75,3.75,0,0,1-1.07.26c-.13-.13.09-.34.34-.34s1.49-.5,1.42-.62,1-.27,1.37-.17.4,0,.64-.28l.29-.36.15.41c.17.45.6.57.6.15a1.33,1.33,0,0,1,.37-.65c.29-.32.37-.36.37-.18a2.46,2.46,0,0,1-.24.72c-.2.41-.21.51-.06.57s.79-.53.8-.79a1.12,1.12,0,0,1,.24-.43c.23-.27.25-.27.25-.06a.67.67,0,0,1-.17.44c-.23.25-.31,1.27-.12,1.34s.69-.82.91-1.49a1.16,1.16,0,0,1,.45-.59.52.52,0,0,0,.3-.55c0-.32-.08-.42-.47-.59a2.93,2.93,0,0,0-2.42.06,11.1,11.1,0,0,1-1.58.47,2.22,2.22,0,0,0-1,.38.68.68,0,0,1-.39.23.64.64,0,0,0-.53.6c0,.24-.34.48-.47.34s0-.21.08-.38a1.63,1.63,0,0,0,.14-.45c0-.19-.69,0-1.5.41a4,4,0,0,1-.89.35,24.28,24.28,0,0,0-3.32,1.64,9.43,9.43,0,0,1-1.8.75,2.87,2.87,0,0,0-1.65,1,18.23,18.23,0,0,1-2.57,2.32c-.41.27-.46.35-.4.67s0,.43-.4.81a12.29,12.29,0,0,0-1.06,1.23C8,30.2,7.33,30.7,7,30.69c-.13,0-.1-.07.1-.21A7,7,0,0,0,8,29.4c.37-.48.89-1.13,1.15-1.44.47-.57.4-.54-.67.28A7.66,7.66,0,0,1,7.06,29a3.81,3.81,0,0,0-.91.43c-.09.16-.68.15-.68,0a4.81,4.81,0,0,1,1.66-.87,7.73,7.73,0,0,0,2-1.34c.21-.19.69-.58,1.07-.86a9.66,9.66,0,0,0,1.12-1c.23-.26.79-.84,1.24-1.29a4.51,4.51,0,0,0,1.21-1.84A12,12,0,0,0,14.7,19c.06-.52.13-1.08.16-1.25s.05-.44.06-.59c0-.39.44-.37.7,0l.2.31.87-.43a8,8,0,0,0,2.09-1.41.58.58,0,0,0-.15-.25c-.13-.13-.07-.23.28-.53a2.5,2.5,0,0,1,.73-.44c.28-.07.29-.11.2-.77s-.15-1.22-.23-2.38c-.06-.76-.06-.77.06-.25s.37,1.48.68,2.6a.46.46,0,0,0,.3.23c.34.08.31.21-.08.39s-.31.16-.11.39.21.25,0,.45a.51.51,0,0,0-.15.44c.06.25-.87,1.29-1.6,1.78-.21.14-.29.26-.2.29s.36-.11.62-.31a8.21,8.21,0,0,1,.94-.64c.77-.45,1.57-1.15,1.57-1.38a1,1,0,0,1,.31-.51c.17-.16.31-.22.31-.14a.16.16,0,0,0,.18.14.17.17,0,0,1,.19.16,17.8,17.8,0,0,1-3.31,3.15c-.37.09-.79.39-.79.56s.92,0,1.18-.28a1,1,0,0,1,.38-.23,2.06,2.06,0,0,0,.55-.37c.69-.6.7-.43,0,.26a3.55,3.55,0,0,0-.63.74c0,.06.22.23.5.37s.49.33.49.43.21.07.78-.24a10.1,10.1,0,0,1,1.94-.73A5.37,5.37,0,0,0,25.17,18a1.75,1.75,0,0,1,1.38-.53c.47,0,.57,0,.57.23a.57.57,0,0,1-.14.36.23.23,0,0,0-.05.28c.06.1.18.06.39-.13s.39-.61.17-.61,0-.22.41-.29a1.57,1.57,0,0,1,1.41.37c.45.42.23.62-.37.34s-1.07-.1-1.07.32.15.32.41.06.6-.11.55.17,0,.19.22.16a5,5,0,0,1,.74,0,4.23,4.23,0,0,0,1-.12,3.35,3.35,0,0,1,1.11-.05c.56.08.71.17,1.34.83s.72.73.91.54a.41.41,0,0,0-.24-.69c-.21,0-.24-.26,0-.45s0-.48-.51-.78c-.27-.15-.49-.36-.49-.45s-.13-.18-.37-.18-.37-.06-.37-.24a.59.59,0,0,0-.25-.4,1,1,0,0,1-.31-.64c-.17-1.38-.34-1.86-.62-1.76s-.17,0-.11-.36c.09-.55-.14-1-.47-.92s-.23,0-.23-.28-.2-.54-1.11-1-2.23-.38-1.79.06a.66.66,0,0,1,0,.81c-.17.17-.1.69.11.76s.26-.19.41-.52c.22-.51.47-.75.5-.48,0,0,0,.29.05.53a1.47,1.47,0,0,1-.14.74C28,14,28,14,28,13.47l.07-.49-.25.4c-.27.45-.31.65-.12.65s.08.11,0,.32a.62.62,0,0,0,0,.45c.1.17.53-.38.54-.68,0-.12.06-.22.14-.22s0,.64-.27.9A1.85,1.85,0,0,0,27.69,16c.09.15-.13.23-.32.12s-.14-.18,0-.49.13-.43,0-.56a.38.38,0,0,1-.06-.37c.05-.15,0-.2-.19-.2s-.25,0-.13-.27.1-.3-.06-.46-.22-.19-.4,0-.19.23-.11-.15,0-.42-.17-.52a1.59,1.59,0,0,0-1.48.09c-.31.3-.59.4-.73.26s-.26-.07-.49,0a3.94,3.94,0,0,1-.86.18,4.68,4.68,0,0,1-1.55.06c-.13-.09-.24-1.24-.11-1.24s.11.12.11.28c0,.86.51,1.17.78.46.15-.39.34-.5.34-.19s.56.26.71,0a5.33,5.33,0,0,0,.25-.66l.15-.5,0,.53c0,.29,0,.53,0,.53a10.47,10.47,0,0,0,.68-2c0-.19.12-.34.18-.34s0,.21-.07.46a8.43,8.43,0,0,0-.25,1.19c-.07.61-.06.71.11.64s.25-.18.88-2a11.34,11.34,0,0,1,.94-2.42c0,.08-.24.89-.55,1.82a4.89,4.89,0,0,0-.46,2c.06.2.17.36.24.36a5.07,5.07,0,0,0,1.52-1.14c.55-.51.61-.53,1.5-.56l.93,0,.29-.81c.16-.44.5-1.39.75-2.11s.51-1.39.57-1.49.21-.38.33-.62c.53-1.06.05.76-.55,2.11-.17.38-.49,1.22-.7,1.87l-.4,1.17.52.48c.28.27.55.44.6.38s.42-.83.83-1.71a8,8,0,0,1,.77-1.49,7.74,7.74,0,0,1-.54,1.42l-.74,1.68c-.15.35-.14.42.11.78a1.41,1.41,0,0,0,.35.39,3.88,3.88,0,0,0,.55-.81,4.36,4.36,0,0,1,.51-.77,4.83,4.83,0,0,1-.4.88c-.44.87-.51,1.25-.3,1.57.1.16.16.14.37-.12a1.21,1.21,0,0,0,.25-.52,1.24,1.24,0,0,1,.29-.56,2.52,2.52,0,0,0,.38-.6,1.74,1.74,0,0,1,.36-.56,6.36,6.36,0,0,0,.5-.66c.13-.2.26-.33.3-.29a2.68,2.68,0,0,1-.51.87c-.67.93-.74,1.21-.23.89.34-.22.33-.22-.05.2-.57.63-1.14,1.71-.95,1.83s.1.18-.07.46a2.68,2.68,0,0,0-.31.89c-.08.46-.05.55.2.71a4,4,0,0,0,.84.33A2.4,2.4,0,0,1,34.46,18c.19.44.25.44.88,0a1.43,1.43,0,0,1,.63-.27c.07,0-.15.22-.49.44-.69.44-.83.68-.64,1s.24.31,1.07-.24c1.4-.92,1.72-1,.57-.13-.79.6-1.4,1.19-1.4,1.37s.19.11.42.11a7.29,7.29,0,0,0,2.62-1.51c.73-.57.22,0-.6.7a6.15,6.15,0,0,1-2.25,1.31c-.31,0-.22.24.13.32a4.53,4.53,0,0,0,2.67-.75,11.35,11.35,0,0,1,1.09-.56,1.08,1.08,0,0,0,.3-.21c.12-.11.22-.16.22-.09a6.38,6.38,0,0,1-2,1.4c-1.24.66-1.21.63-1.13.75s3.29-.67,4-1.14c.19-.13.37-.22.41-.18a5.77,5.77,0,0,1-1.77,1.08,7.09,7.09,0,0,0-1.1.3,12.52,12.52,0,0,1-1.34.39c-.48.09-.63.34-.28.48a3.41,3.41,0,0,0,1.86-.45c1.29-.53,1.26-.52,1.12-.37a13.11,13.11,0,0,1-2.1,1.07c-.73.3-.43.45.62.32a5.78,5.78,0,0,0,3.61-2.08c1.26-1.39,1.45-1.81,1.49-3.3,0-1.07,0-1.28-.26-1.74a7.53,7.53,0,0,1-.43-1,1.21,1.21,0,0,0-1.08-.83c-.21,0-.21,0,0-.21s.24-.18.42,0a2.73,2.73,0,0,0,.47.31,2.08,2.08,0,0,1,.57.75c.18.35.43.8.56,1s.24.57.23,1.73A3.91,3.91,0,0,1,43,20a1.19,1.19,0,0,0-.11.44,1.37,1.37,0,0,1-.44.63,1.67,1.67,0,0,0-.43.53c0,.06.22.11.5.11,1,0,2.47,1,2.48,1.72a2.69,2.69,0,0,1-.62,1.39l-.26.31.25-.52c.43-.87.36-1.17-.44-1.89-.64-.59-.73-.64-1.33-.63a2.26,2.26,0,0,0-1.27.36A8.13,8.13,0,0,1,38,23.85,4.15,4.15,0,0,0,37,24a1.59,1.59,0,0,0,.19.68A3.89,3.89,0,0,1,37.57,27c-.25.89.34.77,1.86-.38,1.74-1.31,1.59-1.09-.43.63a3.72,3.72,0,0,0-.81.85c0,.31,1.91-.82,2.79-1.65,1.34-1.25,1.15-1-.34.51a12.12,12.12,0,0,0-1.28,1.38c.16.16,1.53-.82,2.65-1.88.34-.32.54-.43.54-.31a.55.55,0,0,1-.15.33c-.22.22-.06.3.31.16.18-.07.33-.09.33-.05a24.88,24.88,0,0,1-2.42,2.72,6.27,6.27,0,0,1-1.84,1.41,5.72,5.72,0,0,1-1,.39.52.52,0,0,0-.33.19.48.48,0,0,1-.28.18c-.38,0-1.22.73-1.52,1.31a4.75,4.75,0,0,1-1.57,1.88c-.52.32-.62.55-.26.55a.57.57,0,0,1,.34.1,22.08,22.08,0,0,0,4.45,1l.73.13,1.08-1.06c1.21-1.18,2.31-1.83,3.12-1.83a2.7,2.7,0,0,0,.69-.08c.18-.07.18-.09,0-.23s-.12-.52.43-.59a5.91,5.91,0,0,0,1.07-.29c.48-.18.56-.26.54-.51s.1-.36,1.15-.83,1.18-.58,1.18-.82.25-.51.74-.95.72-.68.57-.85-.11-.49.84-1.2a4.22,4.22,0,0,0,1-.93A5.58,5.58,0,0,1,53.49,25c.21,0,.26-.25.1-.51s-.12-.29.17-.55.61-.41,2.72-1.12c1.76-.6,1.7-.55,1.52-1.24C57.58,20,58,18.93,59.59,17s2-2.39,2.41-2.57a2.89,2.89,0,0,0,.45-.28,3.38,3.38,0,0,1,.56-.38,5.72,5.72,0,0,0,.74-.51A9.85,9.85,0,0,1,66,12.11c.42-.1.85.2.73.53,0,.11-.5.82-1,1.57s-1,1.59-1.17,1.86-.36.73-.51,1c-.41.71-.5,1.17-.27,1.25s.16.13.12.18.24.75.6,1.09l.3.28.52-.38a1.74,1.74,0,0,1,1.36-.37c.74,0,.85,0,1-.27.23-.51,1.81-.76,2.58-.42a11,11,0,0,0,1.62.37,6.66,6.66,0,0,1,1.44.34.93.93,0,0,0,.75,0c.28-.07.52-.09.52,0a1.87,1.87,0,0,1-.46.49c-.31.28-.54.38-.74.34-.45-.08-.36.15.13.36a4.05,4.05,0,0,0,2.29,0l.87-.45a9,9,0,0,1,3.44-.57l1.27-.06s-.2-.45-.47-1a7.29,7.29,0,0,1-.49-1.15,26.84,26.84,0,0,0-.88-3.29,4,4,0,0,1-.16-2.07c.28-.73,2.17.51,3.23,2.1a8.23,8.23,0,0,0,.72.93,21,21,0,0,1,1.8,2.32A10.15,10.15,0,0,1,85.7,19,4,4,0,0,1,84,22.57,14.38,14.38,0,0,1,80.7,24.4c-.32.11-.26.29.15.43a5.1,5.1,0,0,1,1,.64,5.29,5.29,0,0,0,1.88,1c.42.11.42.17,0,.66a3.74,3.74,0,0,1-2.38.92c-.49,0-.64.05-.79.27s-.31.28-1.16.32c-1.63.06-1.81.16-1.28.73a3.77,3.77,0,0,1,.74,2,2,2,0,0,1-.22.77c-.21.35-.21.37.14.73s.35.37.15.86a11.7,11.7,0,0,0-.39,1.75,12.13,12.13,0,0,0,.2,4.24c.07.44.13,1,.15,1.15s.26.59.75,1.09l.73.75-.1.59a5.48,5.48,0,0,0-.08,1c0,.24,0,1,0,1.78,0,1.28,0,1.35-.33,1.74a1.72,1.72,0,0,1-.85.52c-.44.11-.51.18-.59.57a3.23,3.23,0,0,1-1,2,7.13,7.13,0,0,1-3.17.57,10.15,10.15,0,0,0-2,.18.8.8,0,0,0-.32.59,14.07,14.07,0,0,1-.83,2.46c-.31.76-1,2.86-1.14,3.31a4.11,4.11,0,0,1-.64,1,2.15,2.15,0,0,0-.56,1,5.27,5.27,0,0,1-.25,1.07c-.14.41-.33,1.12-.43,1.58a8.67,8.67,0,0,1-.43,1.4l-.25.56.34.08c.18,0,.87.28,1.52.53a11.4,11.4,0,0,0,1.29.45,10.93,10.93,0,0,1,1.69,1c.06.08,1.23.74,2.44,1.38.6.32.69.33,2,.27,1.62-.07,2,.07,2.75.94.25.31.78.94,1.18,1.4A4.16,4.16,0,0,1,82,73.05a10.83,10.83,0,0,0,1,3.13c.23.49.43.93.43,1a8,8,0,0,0,1.63,2c.56.47,1.87,1.66,2.63,2.39a5.1,5.1,0,0,1,.62,1c.4.89.41,1.2.14,4a2.92,2.92,0,0,0,.31,1.78,3.63,3.63,0,0,1,.25,2.59,7.26,7.26,0,0,0,0,3.32C89.32,95.66,89.23,96.38,88.7,96.38ZM79,44.07c.16.16.41,0,.52-.26.18-.47.15-.89-.08-1a.33.33,0,0,0-.27,0A3.46,3.46,0,0,0,79,44.07ZM80.8,13.78c0-.07,0-.13,0-.13a.27.27,0,0,0-.2.13c0,.07,0,.12,0,.12A.29.29,0,0,0,80.8,13.78ZM63.94,14c0,.22.27.18.34-.05,0-.08,0-.15-.14-.15A.2.2,0,0,0,63.94,14ZM26.75,11.79c-.27,0-.31.05-.42.53s.22.46.48,0S27,11.79,26.75,11.79Zm-6.78,4c0,.07,0,.12.05.12a.12.12,0,0,0,.13-.12c0-.07,0-.12,0-.12S20,15.7,20,15.77ZM16,18.38a3.37,3.37,0,0,0,.74-.34,7.36,7.36,0,0,0,1.06-.75,2.17,2.17,0,0,1,.53-.4,2.55,2.55,0,0,0,.91-1c0-.15-.76.34-1.49,1a11.42,11.42,0,0,1-1.09.76C16,18.11,15.74,18.38,16,18.38Zm-.74.14c0,.26,0,.27.3.16s.26-.54,0-.46A.34.34,0,0,0,15.3,18.52Zm2.32.86c.11,0-.07.24-.43.56a3,3,0,0,0-.71.82,5,5,0,0,1-1.3,1.33c-.45.36-.24.46.33.16s2.22-1.81,1.75-1.64-.37-.06.55-.67c.66-.44.84-.62.71-.7a1.76,1.76,0,0,0-1.51.14,1.21,1.21,0,0,1-.5.25c-.1,0-.22.16-.26.37s-.14.37-.32.37c-.35,0-.42-.2-.18-.56s.2-.34,0-.56-.28-.2-.43-.08a3.73,3.73,0,0,0-.5,1.77,1.37,1.37,0,0,1-.11.52A9.73,9.73,0,0,0,14.06,23c0,.25.52.33.88.13s.29-.33-.14-.27-.51-.19-.18-.47a.49.49,0,0,0,.18-.27A17.65,17.65,0,0,1,17.62,19.38ZM18,20.82c-.11-.11-1.14.66-1.63,1.23s-.48.71.26.23c.28-.19.51-.39.51-.45a1.63,1.63,0,0,1,.46-.54C17.88,21.06,18.06,20.85,18,20.82ZM19,20a3.15,3.15,0,0,1,.61-.42c.19-.07,0-.35-.22-.35a.19.19,0,0,0-.18.19c0,.1-.06.19-.14.19a2,2,0,0,0-1,.82C18,20.67,18.27,20.56,19,20Zm1.17,0a1.53,1.53,0,0,0-.51.12c-.46.16-.89.59-.74.75s.29.07.79-.38A2.34,2.34,0,0,0,20.12,20.05Zm.28-.42c0-.07-.11-.13-.25-.13s-.25.06-.25.13.12.12.25.12S20.4,19.69,20.4,19.63Zm3-.39c0-.13-.09-.14-.47,0s-.34.26.09.19C23.22,19.37,23.39,19.3,23.39,19.24Zm1.49-.73a.63.63,0,0,0-.62.51c0,.2,0,.23.28.16a1.6,1.6,0,0,0,.29-.1C25,19,25,18.51,24.88,18.51Zm1.73-.87c-.19,0-1.12.94-1,1s.27.09.71-.38S26.84,17.64,26.61,17.64Zm.07,5.1c.05-.07,0-.13-.05-.13a.13.13,0,0,0-.13.13c0,.06,0,.12.05.12S26.64,22.8,26.68,22.74Zm-14.11,21c0,.19,0,.19.18,0s.16-.27.13-.3S12.57,43.53,12.57,43.73ZM6.05,86.92c.14.71.33.08.23-.76-.15-1.29-.29-1.53-.3-.53A10,10,0,0,0,6.05,86.92Zm.17,1a.12.12,0,0,0-.12.13.12.12,0,0,0,.24,0A.12.12,0,0,0,6.22,87.92Zm14.31,3.6a.12.12,0,0,0,.12.13c.07,0,.13,0,.13-.05s-.06-.09-.13-.13S20.53,91.45,20.53,91.52Zm23.32-13c0-.07,0-.13-.17-.13a.44.44,0,0,0-.33.13c0,.06,0,.12.18.12A.45.45,0,0,0,43.85,78.47ZM71,67.94a2.33,2.33,0,0,0-.56.8c0,.25.4-.19.84-.93C71.53,67.34,71.52,67.34,71,67.94Zm-4.66,1.49c0,.28.33-.05.88-.88.36-.54.79-1.15,1-1.37.73-.91.88-1.14.77-1.21s-.36.22-.66.58A24,24,0,0,0,66.31,69.43Zm.23-3.62c.82-1.87,1-2.41,1-2.62s-.14.05-.27.41-.4,1-.6,1.4c-.46,1-.73,1.77-.62,1.77A3.78,3.78,0,0,0,66.54,65.81Zm-.29,3.82s-.09.06-.13.13,0,.12,0,.12a.13.13,0,0,0,.14-.12C66.31,69.69,66.28,69.63,66.25,69.63Zm-.57-2.36c-.06,0-.12.08-.12.17a3.78,3.78,0,0,1-.5.92,5.88,5.88,0,0,0-.5.84A19.18,19.18,0,0,1,63.72,71a10.88,10.88,0,0,1-1.43,2.33,4.77,4.77,0,0,0-.59.73s.11.07.25.07.47-.32,1-1.12a19.9,19.9,0,0,0,1.11-1.9C66.05,66.89,65.89,67.27,65.68,67.27ZM64.89,72s-.08.08-.12.18,0,.19,0,.19.12-.08.12-.19S64.91,72,64.89,72Zm.67-1a3.74,3.74,0,0,0,.37-.79c0-.25-.25,0-.5.53C65.05,71.58,65.14,71.77,65.56,71Zm.87-6.59c0-.54-.61.4-1.75,2.7-.36.71-.75,1.45-.88,1.62A14.89,14.89,0,0,0,63,70.58c-.32.81-.77,1.83-1,2.26-.52.93-.53,1-.12.65a1,1,0,0,0,.31-.42.85.85,0,0,1,.23-.38A59.74,59.74,0,0,0,66.43,64.45Zm-5.52,8.94c.13.21.3.07.67-.55.2-.36.47-.88.59-1.15s.63-1.31,1.14-2.3,1.17-2.28,1.46-2.87l1-2c.27-.51.49-1,.49-1a10.46,10.46,0,0,0-.74.74A14.87,14.87,0,0,0,63,68.64a10,10,0,0,1-1.27,2.7A4.6,4.6,0,0,0,60.91,73.39Zm.37-3.19a16.41,16.41,0,0,0,.92-2.08,1.74,1.74,0,0,1,.54-1c.12-.13.19-.27.15-.31s-.6.41-.88.93c-.13.26-.4.72-.58,1a5.38,5.38,0,0,0-.49,1A21.72,21.72,0,0,1,60,72a.4.4,0,0,0,0,.36C60,72.6,60.25,72.27,61.28,70.2ZM67,62.79c.06,0,.15-.09.19-.2s0-.17-.07-.14S66.86,62.79,67,62.79Zm.87-1c0-.19,0-.26-.12-.23a.45.45,0,0,0-.21.34c0,.2,0,.27.12.23A.41.41,0,0,0,67.9,61.8Zm6-12a12.3,12.3,0,0,1-1.41-.21c-1.24-.32-1.33-.31-1.41.08s0,.51.51.6a4.37,4.37,0,0,1,.65.16c.9.36,2.16.53,1.89.25s-.17-.48.24-.65S74.79,49.88,73.94,49.82Zm1.94.81a3.35,3.35,0,0,0-.87.1c-.25.08-.21.1.25.1a3.86,3.86,0,0,0,.87-.1C76.39,50.64,76.34,50.63,75.88,50.63Zm2.62-4.76a.13.13,0,0,0-.13-.12.12.12,0,0,0-.12.12.12.12,0,0,0,.12.13A.13.13,0,0,0,78.5,45.87Zm-.07-1a.39.39,0,0,0-.28.21c0,.1,0,.15.17.12a.37.37,0,0,0,.27-.21C78.63,44.92,78.57,44.87,78.43,44.9Zm-.79-1.32a1.94,1.94,0,0,1-1.79.28,3.8,3.8,0,0,0-1.2-.27,16.16,16.16,0,0,1-1.76-.28c-.81-.18-.86-.18-1.35.07-.28.14-.51.31-.51.38s-.11.12-.25.12-.24.08-.24.17a.52.52,0,0,1-.19.33,1,1,0,0,0-.19.67,1.38,1.38,0,0,1-.25.82,1.43,1.43,0,0,0-.24.87c0,.71.13.93.48.82.18-.06.26,0,.26.1s.22.4.33.29a.35.35,0,0,0-.06-.29,4.15,4.15,0,0,1-.19-.95c-.07-.56,0-.71.09-.71.33,0,.48.34.57,1.27a3.2,3.2,0,0,0,.89,1,1,1,0,0,1,.38.26c.24.24.35.26,1.18.19a4.42,4.42,0,0,0,1.26-.25,4.05,4.05,0,0,1,.93-.26c.67-.09.77-.26.22-.38s-.56-.28,0-.45c.3-.08.47-.17.38-.2-.3-.11-.15-.28.26-.28a1.19,1.19,0,0,0,.65-.19c.23-.17.22-.18-.13-.16s-.68-.09-.68-.33-.22-.16-.86-.15-.91,0-1.14-.23a4.7,4.7,0,0,1-1.17-1.57q.24-.37,1.11.51a1.71,1.71,0,0,0,1.17.69l.77.13c.28.08,1.54-.89,1.56-1.19a1.51,1.51,0,0,1,.23-.57C78.5,43.33,78.21,43.2,77.64,43.58ZM70.21,49c-.08.08.09.46.21.46s.12-.08.12-.18S70.31,48.92,70.21,49Zm2-7.75a.52.52,0,0,0,.24-.44v-.31l-.37.27C71.46,41.21,71.56,41.59,72.16,41.27Zm7.9-15.93a1.25,1.25,0,0,0-.65-.27,7.68,7.68,0,0,0-2.52,1.21,7.71,7.71,0,0,0,.28.93c.25.76.3.81.67.85s.41,0,.41-.15.28-.25.64.05,1.15.35,1.07.09a1.22,1.22,0,0,0-.48-.36c-.23-.11-.43-.28-.43-.37,0-.24.5-.28.72-.06a2.08,2.08,0,0,0,1.71.11,1.16,1.16,0,0,1,.88-.09c.7.09,1.1-.09.85-.39a.51.51,0,0,0-.36-.17c-.3,0-.71-.23-1.37-.75a1.52,1.52,0,0,0-.81-.4A1,1,0,0,1,80.06,25.34Zm4.5-6.41c-.09-.09-.47.08-.47.21s.34.14.44,0S84.59,19,84.56,18.93Zm-.71-.85c0,.29.17.2.4-.21s.28-.73.12-.73S83.85,17.86,83.85,18.08Zm-.94,3.54a.36.36,0,0,0,.26.12c.1,0,.18-.06.18-.12s-.12-.13-.26-.13S82.87,21.55,82.91,21.62Zm-.37-6.46c.11.17.19.14.19-.08s-.06-.16-.13-.12A.15.15,0,0,0,82.54,15.16Zm-1.18-.88c0,.06,0,.12,0,.12s.09-.06.13-.12,0-.13-.05-.13A.13.13,0,0,0,81.36,14.28ZM74.19,22.8a.75.75,0,0,1,.2.54c0,.29.06.39.22.39a.61.61,0,0,0,.35-.11.93.93,0,0,1,.36-.16c.18,0,.25-.14.25-.4s.22-.55.42-.3A4.31,4.31,0,0,0,77.2,24a1.23,1.23,0,0,1,.51.31c.37.32.6.39.72.19s-.1-.2-.3-.31c-.65-.34-1.37-1.77-1-2,.18-.11.53.23.55.53a1,1,0,0,0,.64.84c.43.1.48,0,.26-.39a1.07,1.07,0,0,1-.13-.49c0-.07,0-.21-.14-.29s-.25-.46,0-.58.32.12.56.37c.61.67,1.09.55.6-.14-.18-.26-.17-.29,0-.36a.31.31,0,0,1,.36.12c.21.29.35.26.27-.05s0-.26.3-.19.37,0,.37-.11a.33.33,0,0,0-.13-.25c-.07,0-.12-.22-.12-.39s0-.31.37-.23.37,0,.37,0,.11-.14.25-.14c.41,0,.28-.18-.25-.34a7.16,7.16,0,0,0-2.86,0,5.72,5.72,0,0,0-2.16.69c-1.14.57-1.44.82-1.44,1.21a.46.46,0,0,1-.31.33C74.05,22.39,73.94,22.62,74.19,22.8ZM76,24.29c-.07,0-.13,0-.13.12s.06.19.13.19a.12.12,0,0,0,.12-.12A.25.25,0,0,0,76,24.29Zm-2.12.29a.52.52,0,0,0,.53.52c.22,0,.22,0,0-.37S73.89,24.24,73.89,24.58Zm-3.33-3.51c-.21-.35-.77-.83-.77-.66a2.76,2.76,0,0,0,.72,1.16A2.38,2.38,0,0,1,72,23.35a3,3,0,0,0,.21.62c.15.29.15.29.22-.13a3.25,3.25,0,0,1,.13-.54,1.27,1.27,0,0,0-.3-.58,1.92,1.92,0,0,1-.34-.59,1,1,0,0,0-.1-.36c-.06-.12-.19-.38-.28-.58-.25-.51-.49-.56-.49-.08S70.87,21.59,70.56,21.07ZM70.82,23c-.27-.75-.45-.85-.85-.47s-.39.52.13.79a3.32,3.32,0,0,1,.65.48c.19.22.22.22.26,0A2.52,2.52,0,0,0,70.82,23Zm-1.09-3.21c-.29.11-.32.16-.19.31s.17.17.29,0a.81.81,0,0,1,.39-.23c.21,0,.22-.07.06-.14A.91.91,0,0,0,69.73,19.75ZM69.2,19c.32,0,.59-.05.59-.12s-.75-.16-1,0S68.77,19,69.2,19Zm-.13,4.19a1.39,1.39,0,0,1,.09-.7.35.35,0,0,0-.07-.51.68.68,0,0,0-.38-.24c-.14,0-.15.05,0,.28a1.66,1.66,0,0,1,.12.7c0,.46.07.89.21.89S69.09,23.42,69.07,23.19ZM68.63,21c.11.13.26.21.33.17s0-.15-.11-.25C68.51,20.67,68.39,20.71,68.63,21Zm-3.32-.87c0,.07.09.13.19.13s.16-.06.12-.13a.28.28,0,0,0-.19-.12A.12.12,0,0,0,65.31,20.12Zm-2-5.41c0,.35.18.42.3.12s0-.43-.18-.43S63.32,14.54,63.32,14.71Zm-.76,5.35a3.76,3.76,0,0,1-.93.56.35.35,0,0,0-.25.14c-.06.1,0,.12.23.07.4-.1.7.19.47.47a3.43,3.43,0,0,1-1.52.81,1.08,1.08,0,0,0-.47.14c-.14.09,0,.1.37,0a3.8,3.8,0,0,0,1.82-.69l.27-.26.15.28a.88.88,0,0,1,.06.58A4,4,0,0,1,61,23.81c-.58.3-.68.54-.21.54.31,0,.87-.25.87-.4a2.85,2.85,0,0,1,.56-.64,3.5,3.5,0,0,0,.56-.6,3.72,3.72,0,0,1,.2-.54l.19-.47.22.36c.3.5.13,1-.6,1.79-.43.46-.53.64-.4.69s1-.58,1.22-1.1a3.63,3.63,0,0,0,.27-.86c.1-.6.29-.71.5-.31A2.17,2.17,0,0,1,64,24.16c-.43.63-.45.69-.27.69a3.63,3.63,0,0,0,1.21-1.41,2.82,2.82,0,0,0,.15-.8c0-.49.26-.53.47-.07a2.52,2.52,0,0,1-.51,2,2.41,2.41,0,0,0-.38.62c-.16.52.28.31.78-.37A7.11,7.11,0,0,1,66.1,24a1.83,1.83,0,0,0,.34-.69,2.73,2.73,0,0,1,.27-.67c.19-.23.53.3.48.76,0,.23,0,.33.1.28a.37.37,0,0,0,.13-.27c0-.11.13-.18.31-.18.37,0,.4-.09.1-.31s-.19-.19,0-.5.16-.35-.22-.69a2.64,2.64,0,0,0-.87-.47l-1-.26a3.16,3.16,0,0,1-.89-.41l-1-.68-.57-.41Zm3.88,4.66c-.4.45-.52.77-.19.5a1.94,1.94,0,0,0,.38-.55l.18-.38ZM61.2,18.19c.18.22.69.22.69,0,0-.06-.2-.14-.43-.16C61.08,18,61.05,18,61.2,18.19Zm1.11-3.08a1.31,1.31,0,0,1,.37.3c.26.31.28.3.14-.09a.64.64,0,0,1,0-.43c.09-.16-.22-.14-.45,0S62.17,15.05,62.31,15.11Zm-.51.82a1.05,1.05,0,0,1,.28.44.17.17,0,0,0,.18.15.23.23,0,0,0,.19-.25.43.43,0,0,0-.13-.32,1,1,0,0,1-.26-.4c-.11-.3-.13-.31-.32-.12S61.55,15.66,61.8,15.93Zm-.81.81a.67.67,0,0,1,.34.43.22.22,0,0,0,.25.22c.13,0,.24-.05.24-.1a2.12,2.12,0,0,0-.35-.51c-.27-.32-.41-.41-.59-.34S60.67,16.55,61,16.74Zm-.65.39c-.06.1,0,.25.1.4.26.31.29.29.19-.11S60.47,16.92,60.34,17.13Zm-.67.75c-.06.06,0,.21.11.35.69.8.81.9,1.14.89s.32,0-.4-.67C60.11,18.08,59.72,17.82,59.67,17.88Zm-.05,1.42c-.1.1.22.45.42.45s.17,0,.17-.1S59.7,19.22,59.62,19.3Zm0,4.08c0,.13.49,0,.68-.16s0-.11-.09-.11C59.88,23.11,59.59,23.24,59.59,23.38Zm-.59.35-.2-.28-.22.29a1.16,1.16,0,0,0-.23.4c0,.12.71.11.79,0S59.11,23.89,59,23.73Zm-.21-2.11s.05-.06.05-.13a.12.12,0,0,0-.13-.12c-.07,0-.1.05-.06.12S58.75,21.62,58.79,21.62Zm-.29-1.33c0,.05,0,.15.1.21.3.19.43.13.21-.09S58.56,20.24,58.5,20.29ZM57.35,24c0,.19.29.25.45.1a4.11,4.11,0,0,0,.41-.61c.31-.57.31-.59,0-.59A2.16,2.16,0,0,0,57.35,24Zm-.56-.47-.28.23a.76.76,0,0,0-.28.37c0,.16.36.18.57,0a4,4,0,0,0,.67-1.07c0-.14-.32-.08-.81.17s-.45.25-.18.26Zm-2,.67a3.49,3.49,0,0,0,1.07-.47c0-.05,0-.08-.09-.08A2.42,2.42,0,0,0,54.74,24.16Zm-2.12,2s.09,0,.19,0,.18-.06.18-.12-.08-.09-.18-.05S52.62,26.14,52.62,26.17Zm-5.27,6c0,.11,0,.18.1.18a.53.53,0,0,0,.32-.18c.13-.16.11-.19-.1-.19A.37.37,0,0,0,47.35,32.13Zm-4.06,2.22c0,.23.22.26.5.08.11-.07.12-.12,0-.12a1.27,1.27,0,0,1-.34-.08C43.36,34.18,43.29,34.22,43.29,34.35Zm-1.37.58c0,.2.2.14.44-.13s.18-.25.13-.25S41.92,34.81,41.92,34.93Zm-.82,1.26c.51-.61.62-1,.2-.73a2.26,2.26,0,0,0-.78,1.06C40.42,36.91,40.57,36.83,41.1,36.19Zm-1,1.22a.31.31,0,0,0,.26-.18c0-.1,0-.19,0-.19a.5.5,0,0,0-.26.19C39.93,37.38,39.94,37.41,40.09,37.41Zm-1.21,1.51c.09.15.43.15.43,0a.26.26,0,0,0-.37-.19A.14.14,0,0,0,38.88,38.92Zm-4.24-6.36a2.54,2.54,0,0,1-.44.62,4.2,4.2,0,0,0-.63.55c-1,1-1.08,1.18-.26.65a5.38,5.38,0,0,0,1.85-2C35.27,31.77,35.08,31.85,34.64,32.56Zm.82-2.24a4.2,4.2,0,0,0-.73.69,2.3,2.3,0,0,1-.89.68c-.14,0-.25.06-.25.13s.08.12.18.12c.31,0,.21.37-.18.7a1.07,1.07,0,0,0-.37.49c0,.31.33.2.68-.23C35,31.58,35.75,30.32,35.46,30.32Zm1.8-.62h-.44a1.09,1.09,0,0,0-.6.15c-.4.4.1.48.66.1Zm.18.57c0,.1.29.06.74-.1.63-.21,1.43-.75,1.48-1s-.26,0-1.09.42A10.76,10.76,0,0,0,37.44,30.27Zm-.24-1.69c0,.06.08.09.18.05s.19-.1.19-.12-.09-.05-.19-.05S37.2,28.51,37.2,28.58Zm-.55.23a.15.15,0,0,0,0,.18c.1.1.42,0,.42-.17S36.73,28.67,36.65,28.81ZM34.09,20.5c0,.06.08.12.19.12s.16-.06.12-.12a.28.28,0,0,0-.2-.13A.12.12,0,0,0,34.09,20.5Zm-1.85,1.33c.19-.14.29-.46.43-1.49.1-.65-.16-.6-.33.06-.07.29-.21.77-.3,1.06C31.87,22,31.91,22.09,32.24,21.83Zm-.77-2.14c0,.24.06.43.13.43s.12-.1.12-.24a1.49,1.49,0,0,1,.08-.43c.05-.13,0-.2-.13-.2S31.47,19.37,31.47,19.69Zm-.53.18s0-.08,0-.18a.2.2,0,0,0-.19-.19C30.47,19.5,30.57,19.75,30.94,19.87Zm-1.83,2c0,.26.27-.08.62-.78s.36-.95,0-.52A3.84,3.84,0,0,0,29.11,21.89Zm-.43.62c-.11-.1-.44.24-.44.46s.06.13.25-.1S28.71,22.55,28.68,22.51ZM29,19.88c-.17,0-.53.33-.53.48a3.51,3.51,0,0,1-.31.76,4.6,4.6,0,0,0-.31.7c0,.17.5-.38.86-.95S29.22,19.87,29,19.88Zm1.29,1.88.17-.46-.43.5c-.43.49-1.1,1.68-.95,1.68a2.84,2.84,0,0,0,.55-.63A5.74,5.74,0,0,0,30.31,21.76Zm-.08,1.81a6.81,6.81,0,0,0,1.22-2.33c0-.09-.25.17-.49.57s-.65,1.06-.9,1.45C29.55,24.05,29.65,24.21,30.23,23.57Zm0,6.26c.08,0,.17-.15.22-.32s0-.54-.13-.42S30.09,29.83,30.21,29.83Zm0-3.15a1.16,1.16,0,0,0-.12-.34c-.1-.14-.13-.11-.13.16s.06.34.13.34A.15.15,0,0,0,30.23,26.68Zm-.37,5.39c0,.23,1.17.06,2-.28a8.69,8.69,0,0,0,1-.51.77.77,0,0,1,.56-.16c.16.05.38-.13.84-.69s.77-.92.95-1.12c.84-.89,1.1-1.38,1.11-2a5.9,5.9,0,0,1,.11-1.09,2.84,2.84,0,0,0-.32-1.85A.45.45,0,0,1,36,24a1.24,1.24,0,0,0-.3-.7,2.21,2.21,0,0,1-.38-.68,1.39,1.39,0,0,0-.29-.52c-.29-.36-.41-.37-.85,0s-.42,0-.19-.33,0-.58-.37-.13-.52.33-.31-.14,0-.64-.25-.14a1.61,1.61,0,0,1-1,.88,7.92,7.92,0,0,0-1.45,2.07.12.12,0,0,0,.13.12c.22,0,.12.27-.13.34s-.34.46-.14.58.32-.15.58-.43c.48-.49.73-.59.87-.37s-.12.25-.35.4a3,3,0,0,0-.69.68c-.27.41-.36.92-.17.92a7.46,7.46,0,0,0,1.38-1.59c.16-.3.51-.38.51-.11a1,1,0,0,1-.26.46c-1.15,1.31-1.62,2-1.58,2.31s.1.36.18.39a11,11,0,0,0,2-2.36c.31-.49.54-.61.54-.28s-.53,1-1.47,2a9,9,0,0,0-1,1.15c-.17.31-.2.91,0,.91a9,9,0,0,0,2-2.22c.56-.84.81-1,.93-.67a1.35,1.35,0,0,1-.4.62,2.07,2.07,0,0,0-.44.64,10,10,0,0,1-1.24,1.36c-1.15,1.12-1.44,1.51-1.13,1.51a13,13,0,0,0,2.32-2,4.3,4.3,0,0,0,1-1.62c.13-.32.26-.46.44-.46.34,0,.33.09-.18,1.09a9.49,9.49,0,0,1-3.14,3.21C30.17,31.41,29.86,31.73,29.86,32.07ZM32,33.55a.52.52,0,0,0,.36-.18c.24-.29.09-.32-.26,0S31.83,33.55,32,33.55Zm.23-1.17c.17-.2.09-.23-.34-.11-.16,0-.28.12-.28.18S32.05,32.58,32.22,32.38Zm0,2.17c0,.08.09.07.24,0s.22-.18.19-.2S32.22,34.41,32.22,34.55ZM30,32.87c-.09.11-.1.19,0,.19a.48.48,0,0,0,.28-.19c.09-.1.1-.18,0-.18A.51.51,0,0,0,30,32.87Zm-.12,1.33c0,.21.19.1.78-.45s.67-.82.3-.81A3.79,3.79,0,0,0,29.86,34.2Zm-3.17,1.29c-.06.15,0,.08.29-.19a1.52,1.52,0,0,0,.38-.65c0-.38-.35-.24-.47.18C26.83,35.05,26.73,35.35,26.69,35.49Zm-.88,2c.1,0,.27-.17.38-.37.2-.4.1-.47-.32-.25S25.54,37.54,25.81,37.54Zm-2.43.62c-1.15,1.2-1.49,1.44-1.49,1.07a.31.31,0,0,0-.2-.25c-.11,0-.17-.11-.13-.16s0-.15-.06-.25-.11-.21,0-.31.19-.35,0-.35a12.63,12.63,0,0,0-1.69,2.22A6.23,6.23,0,0,1,17.42,42c-.55.32-1,.61-.91.65a1.76,1.76,0,0,0,1.13,0c.11-.07.48-.24.8-.38a5.09,5.09,0,0,0,2-2.12c.09-.42.44-.51.44-.12s-.36,1-1.14,1.86c-.4.45-.67.83-.59.86s.52-.34,1-1c.29-.42.67-.65.82-.5s-.17.33-.47.65c-.64.66-.3.55.61-.19.48-.39.53-.48.47-.85s0-.57.75-.62A3,3,0,0,0,25,37.51c0-.48,0-.59-.21-.59A6.78,6.78,0,0,0,23.38,38.16Zm-6.72,5c-.06-.1-.12-.15-.12-.12l-.07.34c0,.31.13.39.24.12A.46.46,0,0,0,16.66,43.13Zm5.67-5.84a1,1,0,0,0,.31-.42c0-.06-.14,0-.31.17a1,1,0,0,0-.31.42C22,37.53,22.16,37.45,22.33,37.29Zm.5-.5a4,4,0,0,0,.64-.53,7.26,7.26,0,0,0,1.33-1.71,6.4,6.4,0,0,0-1,.91C22.88,36.44,22.61,36.79,22.83,36.79Zm2.41-2.21a11.59,11.59,0,0,1-1.87,2.13A1.63,1.63,0,0,0,23,37c0,.12.63,0,.75-.1l.44-.51a6.84,6.84,0,0,0,1.24-1.93S25.31,34.46,25.24,34.58Zm-.73-5.67c0,.12.65-.08,1-.3.17-.11.24-.22.16-.24A2.51,2.51,0,0,0,24.51,28.91Zm.43.56a.37.37,0,0,0-.28.21c0,.11,0,.15.16.13a.4.4,0,0,0,.28-.21C25.14,29.49,25.08,29.44,24.94,29.47Zm-1.68,5c0,.2.44-.18.81-.69a8.88,8.88,0,0,0,1.7-3.87c.05-.76-.18-.95-.28-.23a1.86,1.86,0,0,1-.22.71.47.47,0,0,0-.09.41c.08.28-.53,1.07-.63.82s-.47.26-.66.76-.08.41.24-.12c.14-.25.3-.42.34-.38a5.54,5.54,0,0,1-.86,1.94A3.37,3.37,0,0,0,23.26,34.45Zm-.39-1.89a.3.3,0,0,0,.21-.13c.14-.22,0-.26-.19-.06S22.78,32.56,22.87,32.56Zm0,2.58c.26-.31.3-.46.12-.46s-.21.17-.32.37C22.47,35.49,22.57,35.54,22.9,35.14ZM21,36.94c0,.19.19.08.48-.28.16-.2.25-.36.19-.36A1.59,1.59,0,0,0,21,36.94ZM20,36.3c-.13.19.15.14.36-.08a.75.75,0,0,0,.2-.25C20.53,35.88,20.05,36.16,20,36.3Zm-3.16,3c0,.14,0,.13.24,0a1.06,1.06,0,0,0,.35-.37c0-.14,0-.13-.24,0A1,1,0,0,0,16.81,39.29Zm-.79.16c.11.12.21.1.38-.07s.18-.35-.09-.35S15.88,39.31,16,39.45Zm-2.21,4.19c0,.21.21.12.4-.16a8.55,8.55,0,0,0,.82-2c0-.07-.15.09-.29.35s-.4.74-.59,1.06A3.18,3.18,0,0,0,13.81,43.64Zm-1.87.88c0,.19.09.12.32-.23l.22-.34-.27.23A.88.88,0,0,0,11.94,44.52ZM11.07,44s.11,0,.25-.15a.73.73,0,0,0,.25-.33c0-.06-.11,0-.25.14A.93.93,0,0,0,11.07,44ZM6.91,49.85a5.18,5.18,0,0,0,.8-.25,6.59,6.59,0,0,0,1-.48,7.62,7.62,0,0,1,.86-.5c.64-.33,1.66-1.23,1.57-1.39s-.24,0-.43.07c-.49.25-.58.24-.32,0,.12-.13.16-.26.09-.3s-.74.37-1.09.93a5,5,0,0,1-1.45,1.23A6.13,6.13,0,0,0,6.91,49.85Zm-.69.86c.17,0,.24,0,.16-.07a.58.58,0,0,0-.32,0C6,50.68,6.05,50.71,6.22,50.71Zm-.5,5.86a.12.12,0,0,0-.12-.12.12.12,0,0,0-.13.12.13.13,0,0,0,.13.13A.12.12,0,0,0,5.72,56.57Zm5.85-.49a12.8,12.8,0,0,0,2.24-1.15,3.67,3.67,0,0,0,.47-.52c.15-.2.28-.31.28-.25a4.42,4.42,0,0,1-.51.8,4,4,0,0,1-2,1.48,2,2,0,0,0-.66.32,4.32,4.32,0,0,1-.95.5c-.88.37-.78.38.52.07a7.45,7.45,0,0,0,1.68-.66,10.1,10.1,0,0,0,2.52-1.82c.14-.22.21-.26.21-.13A4.31,4.31,0,0,1,14,56.2c-.08,0-.24.14-.36.31s-.15.31-.08.31a3.36,3.36,0,0,0,1.17-.54c.43-.29.56-.19.28.24-.49.74.32.44,1-.36l.38-.47-.23-.42c-.22-.41-.22-.45,0-.75s.26-.31.31-.31a4.77,4.77,0,0,0,1.14-1.67c.06-.21.27-.86.48-1.44.28-.76.34-1.07.24-1.14s-.11-.16,0-.38c.3-.59.53-2.19.29-2a1.15,1.15,0,0,0-.18.54,1.84,1.84,0,0,1-.28.72c-.16.2-.19.21-.13,0a.27.27,0,0,0-.12-.32c-.17-.09-.17-.19,0-.9.35-1.55.42-2.11.27-2.11s-.41.55-.64,1.3a.7.7,0,0,1-.28.42c-.2.06-.16-.16.22-1.26s.45-1.58.28-1.58-.14.17-.14.39c0,.63-.6,1.67-.83,1.43a4.41,4.41,0,0,1,.67-1.94.15.15,0,0,0,.16-.13c0-.07,0-.12-.05-.12a.8.8,0,0,1-.24-.08c-.13,0-.26.06-.39.32-.33.64-.56.49-.56-.38v-.75l-.37.08c-.53.11-.69,0-.45-.38a1.13,1.13,0,0,0,.2-.46,2.88,2.88,0,0,1,1-.65c.56-.27,1.3-.67,1.65-.89a4.69,4.69,0,0,0,1.54-1.65A.13.13,0,0,1,20,39a1.65,1.65,0,0,0,.43-.62,2.11,2.11,0,0,1,.59-.76A29.11,29.11,0,0,0,24.2,34.5c.63-.83.17-.65-.61.24-.42.48-1.29,1.39-1.94,2-.91.9-1.22,1.14-1.36,1s-.82.16-1.32.6c-.14.12-.64.47-1.12.78-1.54,1-1.8,1.19-1.8,1.39s.22.18,1.18-.33a7.35,7.35,0,0,0,1.41-1.13A4,4,0,0,1,20.1,38c.14,0-.16.53-.37.64a7,7,0,0,0-1,.87,5.15,5.15,0,0,1-.8.73.81.81,0,0,0-.32.2,8,8,0,0,1-1,.6c-.75.38-.8.43-1.4,1.59a15.6,15.6,0,0,1-2.37,3.63,18.16,18.16,0,0,1-3.52,2.94L8,50a7.63,7.63,0,0,1-.85.4c-.62.23-.27.28.64.09A12.16,12.16,0,0,0,12,48.34a6.75,6.75,0,0,0,2-2.5,7.4,7.4,0,0,1,.71-1.15c.22-.14.11.25-.28,1l-.62,1.2a11.15,11.15,0,0,1-4.52,3.66,1.66,1.66,0,0,0-.5.17,8.36,8.36,0,0,1-3.08.56,6,6,0,0,0-1.21.07,3.22,3.22,0,0,0,.9.23,6.48,6.48,0,0,0,4.82-.76c2.26-1.21,3.3-2.11,4.14-3.6a4,4,0,0,0,.59-1.48c0-.3,0-.37.11-.25.38.6-.73,2.75-2.06,4a14.32,14.32,0,0,1-4.52,2.62,6.13,6.13,0,0,1-2.37.23,5.36,5.36,0,0,0-1.41,0,2.33,2.33,0,0,0,.57.36,4.85,4.85,0,0,0,3.36-.07,23.78,23.78,0,0,0,4.59-2.31,8,8,0,0,0,2.18-2.52,2.64,2.64,0,0,1,.35-.59c.17,0-.34,1.2-.72,1.72a10.61,10.61,0,0,1-4.38,3.23C8.22,53.33,7.7,53.47,6.1,53.41c-1.19,0-1.27,0-1,.14.85.44,3.2.28,5.37-.36A10.91,10.91,0,0,0,15,50.3a8.06,8.06,0,0,1,1.17-1s-.11.21-.31.4a11.39,11.39,0,0,0-1,1.18,6.77,6.77,0,0,1-1,1,7,7,0,0,0-.63.48,10,10,0,0,1-5.34,1.94,5.25,5.25,0,0,1-3-.3c-.47-.24-.51-.23-.51,0s1.42,1,2.2,1A13.7,13.7,0,0,0,13,52.9a7,7,0,0,1,.68-.39,4.64,4.64,0,0,0,.56-.34c.75-.51,0,.18-.88.87-.49.36-1,.75-1.09.86a3.25,3.25,0,0,1-.79.45c-.33.14-.82.35-1.09.48A11.45,11.45,0,0,1,7,55.64c-.92.07-1.12,0-1.55-.18a2.18,2.18,0,0,0-.63-.25c-.26,0,.45.47,1.24.8l.81.35,1.23-.2a12.22,12.22,0,0,0,4-1.49,5.33,5.33,0,0,0,2.59-2.29c.26-.46.48-.78.51-.71a8,8,0,0,1-1.52,2.59,7.75,7.75,0,0,1-1.53,1c-.6.28-1.4.68-1.78.87a3.9,3.9,0,0,1-.87.36,1.69,1.69,0,0,0-.55.2,2.64,2.64,0,0,1-.9.22c-.57,0-.73.24-.23.3A15.34,15.34,0,0,0,11.57,56.08ZM6.33,63.79a8,8,0,0,0,1.14-1.12A39.73,39.73,0,0,0,11,58.18c0-.31-.39,0-1.15.85L8.33,60.74a14.28,14.28,0,0,0-.93,1.18,11.18,11.18,0,0,1-.73,1C6.24,63.42,6.1,63.79,6.33,63.79ZM6.72,66c0-.06-.11,0-.25.11s-.21.28-.17.35S6.72,66.2,6.72,66Zm8.07-5a6.12,6.12,0,0,0,.76-3c0-1,0-1-.28-.91s-.5.1-.78.15a10,10,0,0,0-3.19,1.1,13.4,13.4,0,0,1-1.16,1.53,8.43,8.43,0,0,0-.71,1A23.62,23.62,0,0,1,6.75,64a3.55,3.55,0,0,0-.93,1.29,1.31,1.31,0,0,1-.31.59c-.24.09-.19.28.06.28a8.2,8.2,0,0,0,1.6-1.34A24.4,24.4,0,0,0,9,62.92,9.45,9.45,0,0,1,10,61.73a13.89,13.89,0,0,0,1.52-1.87,6.58,6.58,0,0,1,1-1.24c.25,0,.17.57-.11.84a8.26,8.26,0,0,0-.87,1.15,8.71,8.71,0,0,1-1.25,1.47,7.12,7.12,0,0,0-1.14,1.27A9.9,9.9,0,0,1,8,64.71c-.76.75-.66.9.22.34A23.7,23.7,0,0,0,12,61.22c.19-.33.51-.83.71-1.1.36-.49.36-.49.28-.13s-.13.58-.18.83c-.14.63-.75,1.44-2.22,2.94s-1.73,2.12-.32,1.05a16.79,16.79,0,0,0,1.61-1.74c1.71-2,1.73-1.43,0,.69-.73.9-.76,1.05-.12.72A16.84,16.84,0,0,0,14.79,61Zm-.88,2.91c0-.11,0-.15-.17-.12a.39.39,0,0,0-.28.21c0,.1,0,.15.17.12A.39.39,0,0,0,13.91,63.93Zm-.34,2.51c-.1-.19-.13-.19-.13,0s.13.4.21.31S13.65,66.57,13.57,66.44Zm-.51-1.91a.12.12,0,0,0,.13-.12c0-.2-.32-.14-.54.09s-.17.25.14.61.35.34.38.27a.32.32,0,0,0-.09-.26C12.9,65,12.89,64.53,13.06,64.53ZM12,71.05c-.13.25-.28.45-.34.45s-.09.08-.09.19c0,.32.16.21,1-.67.5-.5.8-.89.72-.94S12.27,70.56,12,71.05Zm-.6-.36c.12.31.28.21.48-.27.1-.25.16-.49.12-.53S11.32,70.5,11.4,70.69Zm.2,2.68A15,15,0,0,0,13,71.69c.48-.72.62-.81.74-.49,0,.1.13.16.2.11a.38.38,0,0,0-.06-.6c-.28-.11-1.39.76-1.74,1.35a4.65,4.65,0,0,1-.74.93,4.14,4.14,0,0,0-.94,1.29C10.45,74.51,10.76,74.26,11.6,73.37Zm2.56-1.26c.1-.26-.24-.08-.62.33a27.69,27.69,0,0,1-2.28,2.27,7.92,7.92,0,0,1,1-1.08,7.55,7.55,0,0,0,1.6-2.09A15.94,15.94,0,0,0,12.32,73a19.3,19.3,0,0,0-1.5,1.64c0,.09.29.19.61.21a7.21,7.21,0,0,0,1.43-1.3C13.55,72.81,14.14,72.17,14.16,72.11Zm-.06-4.44c-.23-.57-.48-.85-.36-.4s.37,1,.46.92S14.21,67.93,14.1,67.67Zm1.91,2a4,4,0,0,0-.32-1c-.21-.48-.57-1.2-.8-1.6s-.46-.82-.52-1-.11-.24-.16,0a1.88,1.88,0,0,0,.28.87,9,9,0,0,1,.58,1.21C15.33,69,15.9,69.82,16,69.72Zm3.55,5.83c0-.69-.3-1.44-.51-1.44s-.09.61,0,1.37.21.89.36.83S19.58,76,19.56,75.55Zm1.26-.63c-.34-.26-.43-.23-.35.12s0,.34-.11.39a.31.31,0,0,0-.17.3c0,.19.09.16.44-.2S21,75.08,20.82,74.92ZM21,73.19s0-.21-.12-.41-.48-.82-.84-1.4-.8-1.31-1-1.62c-.36-.66-.52-.86-.52-.65a14.82,14.82,0,0,0,1.39,2.69,1.91,1.91,0,0,1,.35.66C20.28,72.64,20.9,73.28,21,73.19Zm1-.07c-.12-.21-.27-.38-.32-.38s-.12.1.1.44S22.2,73.56,21.94,73.12Zm13.92,4.64c.06,0-.16-.36-.5-.71a7,7,0,0,1-1.47-1.94c-.38-.64-.53-.82-.48-.56A2.37,2.37,0,0,0,34,75.62a8.72,8.72,0,0,1,.72,1C35.25,77.5,35.65,77.89,35.86,77.76Zm5.32-.85c-.16-.17-.32-.29-.35-.26s.28.57.46.57S41.38,77.13,41.18,76.91ZM47.3,78c.05-.19,0-.25-.39-.31a2.79,2.79,0,0,0-2.27.43l-.29.24.56-.08a4.43,4.43,0,0,0,.83-.18,1.32,1.32,0,0,1,.68,0C47,78.27,47.23,78.25,47.3,78Zm.91.74.63-.21c1-.33,1-.46-.07-.36a5.61,5.61,0,0,0-1,.15C47.72,78.35,48.11,78.72,48.21,78.72Zm4.92.59c.28-.1-1.06-.71-2-.93s-.89-.19-1.09.06a1.63,1.63,0,0,1-.85.41c-.63.13-.76.22-.57.41s.2.06,1.8-.23a2.59,2.59,0,0,1,1-.06A5.68,5.68,0,0,0,53.13,79.31Zm1,4.92c-.29-.1.81.94,1.14,1.08s.41.14.5,0-1-1-1.25-1A1.29,1.29,0,0,1,54.15,84.23ZM44.06,93.32c.08,0,.08-.12,0-.21s-.32,0-.2.15A.15.15,0,0,0,44.06,93.32Zm2,1-.53.25c-.55.26-.65.37-.35.37a1.21,1.21,0,0,0,.53-.31Zm20.84-8.85c0-.07-.06-.09-.13,0a.25.25,0,0,0-.12.2c0,.07,0,.09.12.05A.27.27,0,0,0,66.93,85.42Zm1.12-1c0-.14-.18-.12-.35,0s-.18.37.1.2S68.05,84.46,68.05,84.41Zm.37-3.09c-.15.37-.06,1,.12.8a1.88,1.88,0,0,0,.19-.64C68.83,80.87,68.65,80.77,68.42,81.32Zm-2-3.92a1.72,1.72,0,0,0-.49-.24,5.61,5.61,0,0,1-.87-.43,10,10,0,0,0-1.19-.57,9.1,9.1,0,0,1-2.57-1.53,30.34,30.34,0,0,1-3.87-3.81A8.93,8.93,0,0,0,55.59,69a1.92,1.92,0,0,1-.58-.36c-.72-.57-1.17-.59-3.54-.18-.38.06-.47,0-.47-.12s.64-.58,1.27-.59a6.71,6.71,0,0,0,1.09-.11,3,3,0,0,1,2.25.6l.56.41.14-.35a6.89,6.89,0,0,0,.16-1.52,5.44,5.44,0,0,1,.15-1.41c.21-.4.42-.18.39.41,0,.3,0,1.09-.06,1.76,0,.86-.08,1.21-.19,1.21s-.16,0-.16.11.62.69.71.59a12.29,12.29,0,0,0,.28-3,2.34,2.34,0,0,1,.13-1.08c.16,0,.38.42.38.74,0,.15,0,.23.1.2a6.64,6.64,0,0,0-.54-2.69,30.13,30.13,0,0,0-1.85-3.92c-.17-.21-.2-.22-.2,0a.35.35,0,0,0,.12.28,2.83,2.83,0,0,1,.13,1.1c0,1.31.07,1.61.39,1.51s.58.14.8.91c.17.57.17.7,0,.79s-.27,0-.54-.67c-.12-.32-.27-.59-.33-.59s-.1,0-.09.09c0,.23,0,.41-.14.41s-.38-.46-.43-1.09A9,9,0,0,0,54.17,58c-.45-.68-.51-.85-.31-1s.67.26,1.15,1.26c.4.81.56,1,.73,1,.33-.08.51.09.86.8s.68,1,.56.28A8.55,8.55,0,0,0,56.32,58c-.17-.24-.21-.39-.12-.48s.34,0,.58.74c.13.39.34,1,.46,1.46a8.71,8.71,0,0,0,.38,1,.7.7,0,0,1,0,.66c-.13.32-.13.42,0,.6a19.46,19.46,0,0,1,1.21,3.32,30,30,0,0,1,0,4.81c-.08,1.29-.07,1.33.2,1.47s.31.11.57-.2a1.62,1.62,0,0,0,.3-.5,25,25,0,0,1,1.49-3c1.17-2.12,2.54-3.79,2.27-2.78-.1.4.19.18.4-.3a6.29,6.29,0,0,1,.77-1.13c.33-.4.69-.85.79-1s.17-.25,0-.17c-.41.15-.22-.11.79-1.1a11.38,11.38,0,0,0,2.1-2.71c0-.05-.08-.08-.18-.08s-.64.54-1,1.24c-.22.4-.65.67-.65.41a21.85,21.85,0,0,1,1.57-2.14s.12,0,.21.17.18.2.42-.13A19.86,19.86,0,0,0,70.09,56c.11-.24.29-.59.4-.78a7.33,7.33,0,0,0,.7-2.13,12.66,12.66,0,0,0-1.78,3.26c-.18.48-.79,1-1.08.84s-.16-.13.13-.39a4.47,4.47,0,0,0,.71-1.07,12.81,12.81,0,0,0,1-2.69c-.08-.09-.43.23-.43.39a3.36,3.36,0,0,1-.5.8,4.56,4.56,0,0,0-.5.75c0,.25-.65,1-.87,1-.37,0-.3-.24.25-1a4,4,0,0,0,.5-.77c0-.19-.21-.13-.52.13s-.65.51-1.1.84a6.78,6.78,0,0,0-.85.68c-.06.14-.77.12-.77,0s.11-.19.24-.28a14.85,14.85,0,0,0,2.25-2.17c0-.15-.07-.14-.37,0-.53.31-.58.13-.14-.53a2.62,2.62,0,0,0,.39-.81,3.85,3.85,0,0,1,.31-.93c.32-.73.38-1,.21-1s-.6.47-.77.86-.23.39-.51.39-.45-.1-.15-.51a3.46,3.46,0,0,0,.65-1.32c.06-.26.18-.7.26-1,.34-1.2.27-1.56-.15-.81-.12.21-.3.37-.41.37s-.23-.09,0-.49a1.59,1.59,0,0,0,.18-.66c0-.27-.09-.38-.48-.58a1.16,1.16,0,0,1-.67-.78c-.17-.53-.18-.54-.7-.49a1,1,0,0,1-1.13-.72A1.11,1.11,0,0,0,64,43.9c-.21-.09-.35-.3-.45-.71s-.22-.6-.43-.68-.55-.75-.55-1.46c0-.32-.07-.43-.3-.52-.46-.17-.57-.5-.57-1.66,0-.79,0-1.07-.17-1.12-.33-.13-.35-.77-.07-1.81l.28-1-.59-.47.24-.71a2.84,2.84,0,0,1,.4-.83c.27-.23.44,0,.37.53s0,.56.47.34.52,0,.16.49A6.55,6.55,0,0,0,62,37c.07.06.25-.19.44-.63.41-.9.38-.86.61-.63s.18.25,0,.73c-.71,1.89-.77,2.25-.56,3,.09.28.1.27.18-.19.15-.81.38-1.37.6-1.41s.33.31.13.89a3.67,3.67,0,0,0-.1,1.79s.21-.08.38-.28c.41-.51.62-.3.44.45s-.16,1.61,0,1.61.12-.12.12-.26c0-.36.22-.74.43-.74a.3.3,0,0,0,.24-.22c0-.12,0,.18,0,.66A8.25,8.25,0,0,1,64.67,43c-.13.41-.06,1,.12,1a1.76,1.76,0,0,0,.28-.72c.15-.56.24-.71.43-.71s.24.08.22.62l0,.62.14-.47c.19-.66.47-.6.47.1,0,.31,0,.56.08.56a2.07,2.07,0,0,0,.5-.4l.41-.4v.5a1.36,1.36,0,0,1-.11.62,1.44,1.44,0,0,0-.06,1.28q.5.7.36-.48l-.09-.75h.43a.9.9,0,0,1,.66.25c.12.14.3.23.39.19s.16,0,.16.3c0,.6.15,1.13.32,1.13s.35-.48.17-.7a1.5,1.5,0,0,1-.08-.93,1.92,1.92,0,0,1,.45-1.24,3,3,0,0,0,.39-.56,5.51,5.51,0,0,1,.49-.83c.67-1,.63-1.15-.1-.43a3.45,3.45,0,0,1-.68.58c-.23,0,0-.39.41-.85a6,6,0,0,0,.74-1,8,8,0,0,1,.46-.75c.4-.57-.06-.26-.7.47a3.11,3.11,0,0,1-.83.74c-.27,0-.19-.14.45-.86a3.52,3.52,0,0,0,.57-.73,1.46,1.46,0,0,0-.49.11c-.25.09-.48.13-.53.08s.19-.46.39-.46a4.73,4.73,0,0,0,1.44-1.27.31.31,0,0,0,0-.41c-.17-.21,0-.58.4-.87s.24-.23-.26-.19c-.31,0-.32-.07-.07-.67.08-.19,0-.22-.17-.14s-.27,0-.27-.18-.06-.25-.12-.25-.18.42-.19,1.55c0,.55,0,.62-.31.68a.52.52,0,0,0-.38.38c-.11.47-.43.44-1-.12a1.77,1.77,0,0,0-.73-.5c-.46,0-1.54-.92-2.18-1.86a1.7,1.7,0,0,1-.43-1.5,4.1,4.1,0,0,1,.27-1.25c.2-.4.2-.44,0-.56-.5-.3-.59-.4-.5-.55s.25-.13.61-.07a10.12,10.12,0,0,0,1.49.07,2.82,2.82,0,0,1,1.66.31,1.41,1.41,0,0,1,.92.91l.33.79c.06.15.15.18.26.11s-.18-1.09-.79-1.82a2.34,2.34,0,0,0-1.91-.87c-.14.05-.26,0-.3-.1a1.22,1.22,0,0,0-.63-.32c-.75-.21-1.39-.61-1.24-.77s.25-.07.48,0a6.43,6.43,0,0,0,1,.25l1,.19c.35.06.34,0-.15-.27s-.63-.47-.41-.61,1.55.76,2,1.33a10.58,10.58,0,0,1,1.57,2.58,3.75,3.75,0,0,0,.33.88,4,4,0,0,1,.36,1.43,6.12,6.12,0,0,0,.07.81,2.31,2.31,0,0,1,.1.84c0,.44,0,.53.26.53.36,0,.31.19-.12.51a.79.79,0,0,0-.37.58c0,.3,0,.31.25.08s.58-.09.39.27-.38,1-.25,1,.18.06.25.16.06.34-.12.72l-.25.52.31-.08c.29-.07.3,0,.27.37s0,.5.19.62c.37.27.13.5-.41.4q-.43-.07-.33,0a7.36,7.36,0,0,0,2.1.4c.4,0,.43-.19.06-.49l-.27-.22.36-.18c.23-.11.35-.25.33-.39s.26-.39.6-.21.36.09.75-.1.6-.23.32.09a1.63,1.63,0,0,0-.26.62c-.08.36-.07.41.11.34s.73.13.62.31,0,.11.22.09.3-.13.39-.85a4.65,4.65,0,0,0-.09-1.62,15.21,15.21,0,0,1-.25-1.76,16.9,16.9,0,0,0-.29-1.87,8.35,8.35,0,0,1-.19-1.35,3.89,3.89,0,0,0,0-.72c0-.23-.09-.26-.23-.15s-.22.08-.39-.18-.09-.66.29-.45.26.08.33-.39a4.88,4.88,0,0,1,.46-1.21l.37-.7-.26-.74a3.74,3.74,0,0,0-.54-1.05,3.2,3.2,0,0,1-.5-.91c-.27-.71-.6-.78-1.23-.22a2.47,2.47,0,0,1-.75.45c-.31.07-.33.13-.33.68a1.25,1.25,0,0,1-.14.69c-.09.05-.12.5-.1,1.28,0,1,0,1.2-.13,1.2s-.48-.71-.5-1.25a4.69,4.69,0,0,0-.32-1.18,5.47,5.47,0,0,1-.31-.95c0-.28.34-.18.61.17s.26.29.26.14c0-.4-.28-.85-.54-.85a.76.76,0,0,1-.7-.77c0-.4-.14-.44-.44-.14a.49.49,0,0,0-.13.49c0,.16.1.44.15.61.09.39-.16.41-.61.06a3.45,3.45,0,0,0-.86-.44c-.3-.11-.9-.37-1.34-.59a6.25,6.25,0,0,0-1.3-.46c-.27,0-.51-.14-.54-.22-.09-.28.46-.37,1.13-.2s1,.21,1,0-.13-.12-.28-.12c-.57,0-.8-.61-.34-.9a.52.52,0,0,0,.25-.31.47.47,0,0,1,.25-.31c.29-.19.33-.54.06-.64s-.22-.33.12-.33c.61,0,.75.82.25,1.54-.36.55-.36.53-.1.63a.48.48,0,0,0,.41-.11c.23-.21.48-.1.53.25s.21.55.48.55.24-.09.24-.51,0-.5.22-.46.23.18.25.44.07.41.1.41a3.62,3.62,0,0,0,.57-.25c.48-.23.52-.23.68,0s.16.2.17,0,.25-.39.62-.12c.19.14.37.23.41.2a1.92,1.92,0,0,0,0-.62c-.07-.55,0-.68.31-.41.11.12.2.1.4-.07s.25-.21.32,0a.65.65,0,0,1,0,.39.23.23,0,0,0,0,.25c.13.07.26-.35.26-.83a.57.57,0,0,1,.13-.41c.08-.05,0-.21-.12-.41-.54-.72-.87-1.07-.94-1s.09.26.28.5c.72.82.56,1.38-.32,1.12L74,25.6c-.35-.1-.5-.25-.73-.71s-.3-.54-.39-.4a1.09,1.09,0,0,0-.12.43.8.8,0,0,1-.25.5c-.22.2-.28.2-.37,0a.73.73,0,0,1-.12-.35C72,25,72,25,71.9,25s-.12.24-.12.44a.63.63,0,0,1-.31.56c-.4.26-.52.17-.62-.49a2.5,2.5,0,0,0-1.14-1.74l-.42-.2-.19.45a2.45,2.45,0,0,0-.18.66c0,.34-1,1.13-1.5,1.13a1.32,1.32,0,0,0-.51.26,2.86,2.86,0,0,1-.7.35c-.19.05-.36.18-.38.29,0,.27.48.4,1,.23s.38-.11.38.17-.29.69-.49.69a1.57,1.57,0,0,0-.36.56c-.19.38-.35.56-.52.56s-.32-.26-.06-.76c.16-.31.16-.36,0-.36a.33.33,0,0,0-.26.25c-.08.25-.56.35-.56.12,0-.07-.14-.19-.32-.25-.36-.14-.39-.33-.1-.64s.15-.27-.45-1c-.9-1-1.5-1.25-3.92-1.4-1-.07-2.43-.14-3.11-.15l-1.25,0,0,.41c0,.54.46,1,1.44,1.5a2,2,0,0,0,1.86.25c.58-.18.7-.09.43.32s-.25.44-.09.44.16-.11.2-.24.31-.33.63-.45c.54-.21.56-.21.73,0s.15.28.11.33,0,.09.14.09.25.17.07.5.08.45.39.17.65-.1.71.39.34.69,1,1.07c.48.25.52.49.08.49-.21,0-.23,0-.11.25s.07.39-.19.93-.38.68-.63.68c-.42,0-.4-.35.07-.93s.46-.69.14-.69-.57.32-1.14,1.48a2.57,2.57,0,0,0-.42,1.33c0,.22,0,.3-.11.3a1.26,1.26,0,0,0-.41.09c-.18.07-.2,0-.13-.27a9.3,9.3,0,0,1,1.53-2.76c.45-.53.55-.71.41-.79a.3.3,0,0,0-.26-.05,9.63,9.63,0,0,0-1.48,2.13.52.52,0,0,1-.52.53c-.5,0-.21-.77.8-2.15a3,3,0,0,0,.55-.91c-.15-.15-.72.43-1,1-.23.45-.42.67-.64.72a.63.63,0,0,1-.37,0c-.11-.11.47-1.18.9-1.68.3-.34.38-.53.28-.59s-.26,0-.84.77a.85.85,0,0,0-.15.36c0,.14-.18.23-.4.26s-.34,0-.31-.29a1.65,1.65,0,0,1,.38-.69c.38-.4.44-.59.17-.59-.09,0-.24.17-.32.37-.28.68-.39.69-1.55.15-.84-.4-1.06-.56-1.06-.76s.06-.26.32-.23c.47.05.5-.21.05-.4-.2-.08-.37-.23-.37-.32s-.24-.32-.53-.51A2.87,2.87,0,0,1,55,25.32c0-.19-.15-.34-.25-.34s-.17.07-.11.27a1.57,1.57,0,0,1-.26.94c-.27.53-.4.65-.65.65-.43,0-.88.13-.88.25s.14.06.31,0,.31,0,.31.13a.25.25,0,0,1-.15.24c-.09,0-.16.22-.16.42,0,.36,0,.36-.65.33s-.65,0-.65.14.18.21.46.26c.59.11.78.27.78.64s-.14.38-.42.06a1.24,1.24,0,0,0-.58-.3c-.22-.05-.37-.16-.37-.27s-.1-.24-.58.13a3.69,3.69,0,0,0-.78,1,2.31,2.31,0,0,1-.88,1c-.67.39-.93.92-.66,1.32s.17.3-.12.41a.68.68,0,0,0-.38.31.37.37,0,0,1-.33.2c-.23,0-.38.24-.16.25a1,1,0,0,1,.34.19c.37.28,0,.47-.45.23s-.54-.39-.35-.62.11-.18-.08-.18a1.12,1.12,0,0,0-.48.19c-.33.25-.56.23-.56,0a.54.54,0,0,1,.34-.38c.19-.09.28-.19.21-.21a2.51,2.51,0,0,0-.87.28c-.71.33-.72.34-.45.52s.36.65-.08.65a1.14,1.14,0,0,0-.59.18c-.21.16-.22.2-.06.31s.16.16-.06.32a1.43,1.43,0,0,1-1,.16c-.55,0-.75,0-.8.13s0,.16.34.1a1,1,0,0,1,.64.05c.23.12.23.15,0,.49s-.24.37-.3.37-.15.11-.19.24c-.18.56-1.56.77-1.56.24,0-.19.06-.22.3-.16s.31,0,.37-.12a.41.41,0,0,1,.38-.2c.51,0,.25-.33-.34-.43s-.53-.05-1,.45a4.1,4.1,0,0,0-.63,1,7.86,7.86,0,0,1-.82,1.49,8.28,8.28,0,0,0-.65,1.08s-.12.12-.26.16-.3,0-.45-.38l-.19-.46-.18.34c-.09.19-.25.34-.34.34a22.87,22.87,0,0,0-1.63,4.79,3.85,3.85,0,0,1-.39,1.17c-.15.16-.17.09-.17-.52a19.43,19.43,0,0,1,2.12-6.77,6.25,6.25,0,0,0,.62-1.32c0-.31-.68-.28-1.33.06s-.76.26-.53-.15c.11-.22.11-.3,0-.39a.84.84,0,0,0-.92.08c-.33.25-.81.25-.72,0s0-.19-.13-.19a2.85,2.85,0,0,0-1.31.68c-.17.2-.63.27-.63.1a2.3,2.3,0,0,1,.5-.59c.46-.45.63-.81.39-.81a.73.73,0,0,0-.33.25.72.72,0,0,1-.38.25,3,3,0,0,0-.84.56c-.44.35-.76.53-.89.48s-.19-.1-.19-.14A4.9,4.9,0,0,1,32.77,36l.51-.28h-.45A5,5,0,0,0,30,37.29c-.84.81-1.4,1.1-1.4.71a6.12,6.12,0,0,1,.95-1.11c.58-.58.85-.93.69-.89a1.24,1.24,0,0,0-.47.31.75.75,0,0,1-.48.23,1.2,1.2,0,0,0-.63.39,3.75,3.75,0,0,1-.74.58,3.07,3.07,0,0,0-.77.64c-.21.25-.43.4-.48.35s0-.22.17-.38a1,1,0,0,0,.27-.43.52.52,0,0,1,.23-.3c.28-.21.44-.6.23-.6a4.49,4.49,0,0,0-1.27,1.29.66.66,0,0,1-.5.33c-.2,0-.38.14-.57.47a17.91,17.91,0,0,1-2.34,2.56c-.11.07,0-.06.17-.27s.33-.42.3-.46a1.41,1.41,0,0,0-.56,0c-.41.09-.5.17-.6.53a4.39,4.39,0,0,1-.84,1.19c-.57.61-.82.78-1.19.84a14.57,14.57,0,0,0-2.41.56c-.05,0,0,.22.16.39s.29.28.49.15c.36-.22.37-.19.11.42s-.21.58-.06.64.32-.08,1-1c.28-.34-.1.37-.51,1-.3.42-.34.56-.23.76A6,6,0,0,1,19,49a16.07,16.07,0,0,1-.89,3.51,1.53,1.53,0,0,0-.26.56,2.46,2.46,0,0,1-.42.77c-.8,1-.91,1.17-.83,1.41a1.75,1.75,0,0,1-.23.91,2,2,0,0,0-.2,1.49,5,5,0,0,0,.2,1,8.69,8.69,0,0,1,.18,1.51,11.69,11.69,0,0,0,.18,1.62c.06.16.05.21,0,.13a4.37,4.37,0,0,1-.47-1.46c0-.26-.12-.47-.17-.47a1.59,1.59,0,0,0-.31.54,1.49,1.49,0,0,0,0,1.27c.25,1,.27,1.23.13,1.29s-.18-.07-.26-.22a2.4,2.4,0,0,0-.2-.33,5.59,5.59,0,0,0,.28,1.63.66.66,0,0,1,.06.4c-.15.15-.37-.26-.57-1.06s-.41-1.09-.64-.6-.1.68,1.34,3.65c.65,1.32,1.21,2.54,1.25,2.71a.79.79,0,0,0,.18.37,6.24,6.24,0,0,1,.59,1.09c.53,1.11,1,1.7,1.4,1.7.13,0,.24,0,.24-.05s-.25-.49-.55-1S18.15,69.7,17.8,69a15.77,15.77,0,0,0-1.51-2.87.31.31,0,0,1-.12-.26c0-.13.1-.17.34-.14s.43.2,1,1.44,1.22,2.21.82,1.27l-.4-1a7.66,7.66,0,0,0-.34-.81,6.86,6.86,0,0,1-.46-1.72c0-.41.19-.21.42.44a4.68,4.68,0,0,0,.46,1,1.15,1.15,0,0,1,.24.4,20.59,20.59,0,0,0,1.62,3.22c.2,0,.14-.18-.39-1.4A10,10,0,0,1,19,67c-.05-.31,0-.26.33.31a4.12,4.12,0,0,0,.54.81,11,11,0,0,1,.81,1.59,15.23,15.23,0,0,0,1.06,2,11.07,11.07,0,0,1,.7,1.18c.33.66.55.89,1,1s.45.1-1.14-2.57a6.28,6.28,0,0,1-.79-1.88,3.22,3.22,0,0,1-.11-.92,3.31,3.31,0,0,1,.5.86c.24.5.69,1.33,1,1.84s.72,1.24.92,1.62c.39.72,1.22,1.7,1.35,1.57A7.35,7.35,0,0,0,24.22,73c-.87-1.29-1.38-2.45-1.16-2.67s.55.34.81.94a8.19,8.19,0,0,0,.6,1.09l.71,1.06A5.55,5.55,0,0,0,26.7,75c.1,0,.07-.15-.09-.46s-.31-.64-.4-.84-.43-.85-.75-1.43c-.59-1.09-.72-1.62-.4-1.62s.82,1.08.82,1.41a.76.76,0,0,0,.25.4,5.2,5.2,0,0,1,.67,1.11c.48,1,1.49,2.3,1.83,2.3.12,0,.23-.06.23-.15a10.59,10.59,0,0,0-1.25-1.9,8.79,8.79,0,0,1-.55-.87,9.74,9.74,0,0,0-.58-.92c-.35-.44-.3-.66.11-.55.19,0,.36.12.38.18s.17.29.33.53a3.36,3.36,0,0,1,.37.66,1.93,1.93,0,0,0,.46.61c.37.35.38.35.3.06s-.29-.66-.52-1.12c-.37-.69-.4-.82-.23-.86.32-.06.63.29,1.19,1.39,1,2,2.54,4.06,3,4.06.14,0,.14,0-.08-.54a3.86,3.86,0,0,0-.53-.85,9.86,9.86,0,0,1-1.57-2.7,8,8,0,0,1-.43-1.19.81.81,0,0,1,.37,0c.25.05.37.19.55.7a11.44,11.44,0,0,0,1.37,2.7c1,1.44,1.33,1.86,1.63,1.94s.29.12.29.19.07.11.14.11-.11-.3-.41-.66a11.12,11.12,0,0,1-.88-1.15c-.18-.27-.56-.83-.85-1.24a8.57,8.57,0,0,1-1.19-2.68l-.05-.31.22.31a3.76,3.76,0,0,0,.5.55c.16.14.29.3.29.37a12.37,12.37,0,0,0,1.36,2.09l.79,1.11c.19.28.38.48.42.44s-.09-.31-.29-.6A21.51,21.51,0,0,1,32,72.44a.85.85,0,0,1,.17-.37c.13-.18.16-.19.16,0a3.69,3.69,0,0,0,.61,1.66c.29.35.3.35.3.08a2.36,2.36,0,0,0-.18-.72,5.27,5.27,0,0,1-.36-2c.06-.15.14-.1.37.21a1.57,1.57,0,0,1,.3.53,17.76,17.76,0,0,0,1.17,2.93c.2.38.54.94.75,1.25.43.64,1.78,1.94,1.89,1.83s0-.19-.17-.34a11.08,11.08,0,0,1-.85-1.16l-.94-1.4A13.4,13.4,0,0,1,34,71.54s.17.12.31.35a3.57,3.57,0,0,0,.45.62,4,4,0,0,1,.48.89,14.79,14.79,0,0,0,1.61,2.73,2.4,2.4,0,0,1,.4.65c.19.45,1,1.19,1.25,1.19a.36.36,0,0,0,.18,0s-.33-.38-.73-.8a10,10,0,0,1-1.84-2.9c-.18-.38-.38-.78-.43-.9a11.3,11.3,0,0,1-.36-2.14c0-.23,0-.23.25,0a.78.78,0,0,1,.25.51,13.42,13.42,0,0,0,1.49,3.41A7.06,7.06,0,0,0,39,77.25c.6.59.83.71.83.47a.12.12,0,0,0-.13-.12,2.23,2.23,0,0,1-.56-.68,4.74,4.74,0,0,0-.54-.75A18.33,18.33,0,0,1,37.28,73a10.55,10.55,0,0,1-.28-1.6c-.07-.69-.15-1-.37-1.21s-.3-.51-.37-1.33a11.94,11.94,0,0,1,.12-2.92,2.42,2.42,0,0,1,.07.88,7.26,7.26,0,0,0,.44,2.66,1.85,1.85,0,0,1,.18.63,5.93,5.93,0,0,0,.57,1.71,3.85,3.85,0,0,1,.28.87,10.79,10.79,0,0,0,1.51,3.48c.26.16.11-.42-.32-1.29a11.34,11.34,0,0,1-1-3.43c-.06-.53-.05-.59.09-.4s.26.35.38.49a1,1,0,0,1,.21.41,25.73,25.73,0,0,0,1,2.73l.41,1c.28.63.58,1,.58.76a13.09,13.09,0,0,0-.71-1.82,2.93,2.93,0,0,1-.27-.63c-.09-.28-.36-1-.59-1.59a6.44,6.44,0,0,1-.42-1.51c0-.47-.19-.68-.4-.47s-.47,0-.47-.29a11.78,11.78,0,0,0-.55-1.45c-.5-1.18-.53-1.3-.32-1.37s.38-.27.17-1.09a2,2,0,0,1-.11-.85c.17-.17.5.2.52.57a5.5,5.5,0,0,0,.83,2.26l.82,1.29a10.52,10.52,0,0,0,.89,1.21A8,8,0,0,1,41.06,72a1.91,1.91,0,0,1,.31,1.49c-.14,1.28-.11,1.44.37,1.86a1.34,1.34,0,0,1,.43.58.36.36,0,0,0,.22.28,10.16,10.16,0,0,0,2.68.31c.06,0-.07-.39-.28-.76l-.49-.86a.92.92,0,0,0-.46-.3c-.53-.15-.71-.26-.77-.44s.09-.14.46-.12.56,0,.62-.13.13-.1.19.1a1,1,0,0,0,.53.45c.47.2.5.48.06.54s-.34.21.21.79.48.55,1.42.17c.16-.07.21,0,.21.16s-.1.27-.31.32c-1.21.31,1.29.77,3,.56.54-.07.49.28-.06.43-.38.1-.41.12-.19.21a4.9,4.9,0,0,0,2.09,0c.56-.16,1-.07.73.16a.47.47,0,0,0-.14.28c0,.17,1.1.56,1.63.56a1.06,1.06,0,0,1,1,.69c0,.21.17.23,1.56.24s1.53,0,1.53-.21.74-.3,1.49,0,.85.24.62,0a4.48,4.48,0,0,0-1.06-.45,9,9,0,0,1-1.37-.56,4,4,0,0,0-.82-.35,4.55,4.55,0,0,1-1-.55,2.82,2.82,0,0,0-.94-.47,1,1,0,0,1-.44-.15,4.5,4.5,0,0,0-1.44-.48,1.08,1.08,0,0,1-.85-.69c-.19-.37-.24-1-.08-1a2.15,2.15,0,0,0,.05-.9c0-.66,0-1,.15-1.15s.19-.24.33.12a.8.8,0,0,1,0,.66,1.86,1.86,0,0,0,0,1.32,5.37,5.37,0,0,1,.19.74c.11.53.37.33.39-.3s.26-1.36.42-1.36.25.41.11.81-.11.47.15.94.8.84.67.34c-.08-.35.14-1,.31-.91a1.1,1.1,0,0,1,.2.53c.14.9.19,1,.37,1a.19.19,0,0,0,.18-.19c0-.41.6,0,1,.64.27.44.29.45.4.19s.42-.34.64.1c.12.23.26.34.37.3s.67.16.87.56a.86.86,0,0,0,.53.43l.61.15c.21.06.26,0,.25-.22,0-.46.35-.36.4.12s.12.44.56.64a6.31,6.31,0,0,0,.91.32.79.79,0,0,1,.6.51c.13.27.29.43.45.43.46,0,.25.78-.59,2.2a6.07,6.07,0,0,0-.54,1c0,.06-.16.1-.37.1s-.36,0-.3-.4L61.1,83l-.32.37a1.54,1.54,0,0,0-.32.47c0,.05-.11.09-.25.09s-.25-.08-.25-.19a3.45,3.45,0,0,1,.67-1.42c.22-.18.45-.08.45.22s0,.18.11,0c.31-.53.27-.72-.23-1.32-.8-1-.9-1-1.43-1.18a4.92,4.92,0,0,1-.69-.23,2.57,2.57,0,0,0-.63-.18c-.39-.08-.37,0,.26.3.37.21.92.51,1.22.65a1.52,1.52,0,0,1,.89,1.11,1.06,1.06,0,0,1-.3.47,2.73,2.73,0,0,0-.5,1.19c-.31,1.34-.56,1.8-1,1.8a5.25,5.25,0,0,0-.9.14c-.42.11-.57.21-.63.44s-.22.37-.68,0-.61-.24-.61.07a.2.2,0,0,1-.19.19.3.3,0,0,0-.26.18c-.19.48-1.26.18-2.12-.6a2.11,2.11,0,0,0-.84-.48c-.28,0-.42-.17-.68-.67-.18-.34-.38-.76-.45-.93s-.21-.31-.91-.34a4.57,4.57,0,0,0-2.39.57A6.54,6.54,0,0,0,45.57,86a7.73,7.73,0,0,0-.54.9,4.68,4.68,0,0,1-.42.73c-.48.72-.72,1.54-.43,1.44a9.75,9.75,0,0,1,1.92-.57c.22.22-.51.7-1.34.89-.37.08-1.06.65-.94.77a2.63,2.63,0,0,0,.94-.19c.88-.26,1.64-.34,1.64-.17s-.25.39-1,.64a8.91,8.91,0,0,0-1.25.5c-.39.21-.4.25-.4,1s.12,1,.36.61c.1-.17.09-.25,0-.33-.49-.3.31-1,1.42-1.27.73-.16.85-.13.72.18-.05.15-.22.21-.56.21s-.48.06-.48.16-.18.26-.4.39c-.61.37-.24.36.76,0s1.31-.33,1.18,0c-.06.15,0,.19.25.19s.32,0,.32.06c0,.19-.26.69-.37.69a4.88,4.88,0,0,0-.78.31c-.36.17-1,.41-1.34.54s-.69.3-.72.5c-.05.36.11.34.95-.11.39-.2,1.28-.58,2-.85l1.28-.49V93c0,.24-.11.32-.66.48-.71.21-1.53.66-1.41.78a6.08,6.08,0,0,0,2.09-.79c.54-.27.86-.37.92-.28s-.54.85-.76.85a5.33,5.33,0,0,0-1.68.89c0,.21.82.11,1.59-.19h0a6.59,6.59,0,0,0,1-.5c.45-.31,1.27-.22,1.14.13s.21.15.56-.36a4.29,4.29,0,0,1,1.31-1.27.69.69,0,0,0,.32-.48c0-.77.15-1,.67-1.24s1.13-.31,1.17-.18c.11.32,0,.47-.32.47s-.64.19-.64.4c0,0,.19.1.43.1s.44,0,.44.11a.48.48,0,0,1-.42.52c-.24,0-.23,0,0,.1s.32.17.33.27a.66.66,0,0,0,.49.67c.17,0,.3.15.3.24,0,.25.33.34.72.19A8.12,8.12,0,0,0,57.86,92c.2-.36-.08-.25-.66.28a2.35,2.35,0,0,1-.68.5c-.34,0-.25-.23.24-.63a17.89,17.89,0,0,0,1.78-1.74c.15-.17.46-.47.69-.68a5.81,5.81,0,0,0,1.27-1.8,2.57,2.57,0,0,0-.64.59c-.52.56-1.17.92-1.34.75s.31-.91.68-1.27a5.93,5.93,0,0,0,.71-.84c.33-.46.61-.6.7-.34s1-.06,1.87-.42a1.39,1.39,0,0,0,.85-.79c.22-.45.32-.54.61-.54a.7.7,0,0,0,.44-.12.27.27,0,0,1,.19-.13c.21,0,.12.35-.19.72s-.39.53,0,.53c.2,0,.47-.23.9-.75a3,3,0,0,1,.76-.74c.28,0,.17.37-.21.76s-.48.6-.22.59a4,4,0,0,0,.9-.93,4.49,4.49,0,0,1,.9-.93c.38,0,.79-1.24.52-1.57A4.18,4.18,0,0,1,68,80.28c.12-.14.08-.26-.23-.61s-.49-.83-.18-.83a1,1,0,0,1,.87.64c.23.44.37.39.25-.08a3.55,3.55,0,0,0-1.55-1.52C66.88,77.7,66.53,77.48,66.43,77.4ZM45.25,92.82c1-.39,1.15-.51.86-.62a3.68,3.68,0,0,0-1.75.79C44.27,93.2,44.28,93.19,45.25,92.82Zm15.1-13a5.12,5.12,0,0,1,1.48,1.5.13.13,0,0,0,.13.13c.07,0,.12,0,.09-.09-.47-1.07-.53-1.14-1.19-1.46a2.15,2.15,0,0,0-.74-.27S60.18,79.75,60.35,79.82ZM40.54,73.9c-.07.12-.18.18-.24.14s-.15.12,0,.3.34.18.42-.17S40.7,73.6,40.54,73.9ZM58.76,28.83c.07,0,.08,0,0-.08s0-.15.05-.24.08-.18,0-.21c-.21-.12-.78-.22-.78-.13A1.56,1.56,0,0,0,58.76,28.83ZM75.5,27.61a.4.4,0,0,0-.22.22c0,.09,0,.14.11.11a.4.4,0,0,0,.22-.22C75.64,27.63,75.59,27.58,75.5,27.61Zm-1.11.23c-.07,0-.12.08-.12.18s0,.19.12.19.13-.09.13-.19S74.46,27.84,74.39,27.84Zm-3.23.31c-.27-.24-1.37-.42-1.37-.22s.89.54,1.52.64a.09.09,0,0,0,.1-.09A.82.82,0,0,0,71.16,28.15Zm.22,5.66a.21.21,0,0,0-.22.22c0,.44.29.53.48.17S71.71,33.81,71.38,33.81Zm-2.4.55c0-.17.09-.44.12-.6.08-.39-.21-.65-.43-.39s.25,2.18.64,2.18a.71.71,0,0,0,.37-.21.68.68,0,0,0,.23-.43c0-.26-.13-.3-.33-.1S68.9,34.72,69,34.36Zm-.41,1.78a1.94,1.94,0,0,0,1.28.36c.31,0,.38-.08.41-.38s0-.35-.31-.25A3.88,3.88,0,0,1,69,36C68.57,36,68.47,36,68.57,36.14Zm1.74-2.08c.07,0,.1-.07.07-.16s-.15-.46-.26-.84a5.64,5.64,0,0,0-.32-.85,2.42,2.42,0,0,0-1.36-.34,3.92,3.92,0,0,0,.75.84,4.65,4.65,0,0,1,.9,1.07C70.14,33.93,70.24,34.06,70.31,34.06ZM68,32.4c-.37-.32-.56-.26-.87.26a2.08,2.08,0,0,0-.11,1.78c.14.27.35.31.41.08s.11-.43.19-.78a2.36,2.36,0,0,1,.39-.87C68.29,32.62,68.29,32.61,68,32.4Zm1.54,15.9c0-.1-.12-.19-.2-.19s-.06.08,0,.19a.77.77,0,0,0,.19.19S69.62,48.4,69.58,48.3Zm-.78-1.59c-.1-.1-.13-.07-.13.11s.17.51.23.23A.41.41,0,0,0,68.8,46.71ZM68,45.94c-.11.19,0,.43.15.43s.14-.09.19-.21S68.15,45.7,68,45.94Zm.29,6.15c-.07,0-.13.13-.13.28s0,.25.13.1a1,1,0,0,0,.12-.28A.12.12,0,0,0,68.3,52.09ZM58.24,67.84c-.13-.08-.17.13-.34,1.7-.07.71.09,1,.24.44A5.23,5.23,0,0,0,58.24,67.84Zm7.3,7.89a.28.28,0,0,0,.2-.12c.05-.07,0-.13,0-.13a.27.27,0,0,0-.2.13C65.45,75.67,65.47,75.73,65.54,75.73Zm1-2.18c-.19,0-.32.68-.2,1s.3.22.42,0S66.77,73.55,66.55,73.55Zm.39-2a16.89,16.89,0,0,1,2.51-4.26c.75-1,.57-1.16-.36-.24C68,68.08,67.8,68.33,67.8,68.49a.3.3,0,0,1-.18.23.54.54,0,0,0-.27.33,5.77,5.77,0,0,1-.55,1,16.36,16.36,0,0,0-1.64,4c0,.23-.1.45-.19.48s-.22.53,0,.53a3,3,0,0,0,.49-.13c.33-.12.4-.2.4-.53a5.63,5.63,0,0,1,.73-2.09A7.06,7.06,0,0,0,66.94,71.5Zm1,1A40.8,40.8,0,0,1,70.23,68c1-1.6.79-1.61-.54,0-.25.31-.58.68-.72.84a7.33,7.33,0,0,0-1,1.92l-.42,1.12C67,73.23,67.37,73.78,68,72.53ZM70,75.42a.19.19,0,0,0-.18-.19.52.52,0,0,0-.32.19c-.13.16-.11.19.17.19S70,75.54,70,75.42Zm4.33-1.49c0-.14,0-.2-.12-.16A.35.35,0,0,0,74,74c0,.14,0,.21.12.17A.39.39,0,0,0,74.37,73.93Zm2.56.32c0-.06-.2-.34-.54-.63-.57-.47-.63-.5-1-.36a4.18,4.18,0,0,0-.4.19c-.09.06.26.79.37.79s.11-.14.11-.31a.54.54,0,0,1,.12-.38c.16-.09.88.43.88.65S76.83,74.42,76.93,74.25Zm8.19,20.92c.62-2,.62-2,.48-2s-.27.22-.79,1.3c-.43.88-.56,2.18-.23,2.18A9.57,9.57,0,0,0,85.12,95.17Zm3.13-6.12a7.42,7.42,0,0,1-.38-1.6c-.07-.69-.11-.77-.35-.77a.62.62,0,0,0-.39.12.53.53,0,0,1-.41,0c-.29-.08-.3-.1-.07-.91.07-.27,0-.24-.4.2s-.91.77-.91.51a2.12,2.12,0,0,1,.55-.9,3.43,3.43,0,0,0,.36-.47c.19-.3.28-.34.59-.27a.73.73,0,0,0,.55-.06.49.49,0,0,1,.43-.07c.23.08.26,0,.26-.61a3.9,3.9,0,0,0-1.56-2.87,4.2,4.2,0,0,0-1-.72c-.06,0-.11,0-.11-.13a.76.76,0,0,0-.25-.4c-.25-.22-.26-.22-.45,0a.52.52,0,0,1-.58.24c-.48,0-.46-.24,0-.41s.57-.28.31-.57-.32-.24-.69-.17c-.54.09-.73-.1-.43-.43s.24-.41-.18-.32c-.64.14-1-.34-.44-.56.21-.08.29-.18.24-.31a.33.33,0,0,0-.59,0,.35.35,0,0,1-.64-.07.48.48,0,0,1,.38-.62c.24,0,.33-.21.24-.5s-.33-.31-.67,0-.24.33-.12.4-.28.3-.54.16-.26-.49.3-1.07.49-.53.26-.53a.47.47,0,0,0-.35.13c-.09.15-.43.15-.66,0s-.07-.24.28-.73a1.74,1.74,0,0,0,.45-1.26c0-.59,0-.7-.55-1.23a7.85,7.85,0,0,1-1-1.38,4.32,4.32,0,0,0-.76-1.08,1,1,0,0,1-.34-.42c0-.26-.55-.41-1.25-.35a2.48,2.48,0,0,1-.9,0c-.28-.16-1.34,0-1.34.22s-.13.17-.32.17-.36.1-.5.45a1.39,1.39,0,0,0-.11.77c.08.33-.09.52-.48.52-.21,0-.23-.06-.15-.59A7.3,7.3,0,0,1,74,69.45a2,2,0,0,0,.17-.67s-.06,0-.06.09S74,69,73.85,69a.72.72,0,0,0-.48.22,7.27,7.27,0,0,0-.44,3c.06.58,0,.67-.17.73-.39.1-.53-.34-.45-1.4a4,4,0,0,1,.87-2.57,1.4,1.4,0,0,1,.53-.3c.1,0,.15-.08.1-.19-.13-.34-.75-.22-1.21.24-1,1-1.35,1.92-1.37,3.89,0,.73,0,.91-.24,1s-.26.12-.35,0c-.29-.46.07-2.92.58-4.08A4.6,4.6,0,0,1,72,68.38c.42-.4.56-.74.31-.74a3.05,3.05,0,0,0-.7.63,4,4,0,0,0-1.16,2.28,6.76,6.76,0,0,1-.19,1.2,6.81,6.81,0,0,0-.17,1.62c0,.74,0,.81-.23.84a.64.64,0,0,1-.66-.7,37,37,0,0,1,1.08-3.92c0-.17,0-.22-.15-.19s-.29.26-.4.64a4.94,4.94,0,0,1-.41,1c-.13.22-.32.58-.43.8s-.23.41-.29.41,0,.32,0,.71c.2,1.33.19,1.46-.11,1.5a.38.38,0,0,1-.42-.23c-.19-.36-.43-.12-.31.32s.1.34.79.27a8.94,8.94,0,0,0,1.33-.27l1.06-.33a4.79,4.79,0,0,0,1-.56c.9-.65,1.29-.52.67.23-.41.47-.39.6,0,.6s.76-.12.76-.38a1,1,0,0,1,.54-.92,3.43,3.43,0,0,1,.72-.07c.6,0,.85-.11.77-.32a.59.59,0,0,1,0-.37c.06-.16.13-.16.51,0s.46.19.85,0c.62-.34.81-.21.4.28s-.35.77-.08.77c.06,0,.26-.22.45-.5s.42-.49.52-.49.21.16-.08.53a1.33,1.33,0,0,0-.25.82c0,.46,0,.51-.31.51s-.31.06-.31.3a.49.49,0,0,0,.67.5c.25-.06.32,0,.32.13s0,.18.26.06c.44-.23.59.05.31.57s-.23.44,0,.68.48.32.31,0,0-.56.28-.29A7,7,0,0,1,81,79.24c0,.39,0,.47-.16.47s-.41-.16-.63-.75a6,6,0,0,0-1-1.69,1.21,1.21,0,0,0,.15.6,3.85,3.85,0,0,1,.21,1.64c0,1,0,1.1.24,1.16s.23.13.17.33c-.2.65-.21.83,0,.83a.85.85,0,0,1,.4.17c.22.17.22.2-.05.81s-.26,1,0,1c.07,0,.18-.17.27-.37.23-.56.42-.67.67-.4s.19.27-.06.82-.18,1,.13.63.79,0,.59.65a4,4,0,0,1-1.69,1.65c-.31,0-.86.53-1,.93a7.56,7.56,0,0,0,.19,2.73.65.65,0,0,0,.45.2c.52,0,.68.12.6.46s0,.35.09.42.11.11-.1.11c-.42,0-.47.24-.12.59l.31.31.15-.27a1,1,0,0,0,.09-.56.53.53,0,0,1,.54-.56c.17,0,.05.57-.27,1.23A3,3,0,0,0,81,93c0,.12.62.57.68.5A8,8,0,0,0,82.48,92c0-.1,0-.18.12-.18s.16.28,0,.44A5.13,5.13,0,0,0,82.1,94a1,1,0,0,0,.31.65l.31.29.54-1.17c.3-.65.58-1.26.61-1.36s.1-.1.2.14.05.5-.3,1.37a6.16,6.16,0,0,0-.42,1.37c0,.3.3.71.43.58s1.29-3,1.38-3.39.3-.45.3-.19c0,.06.09.12.19.12a.21.21,0,0,1,.19.22A.6.6,0,0,0,86,93c.11.11.11.23,0,.49a5.25,5.25,0,0,0-.27,1.16c-.06.44-.16,1.11-.22,1.49-.12.73-.09.87.14.87s.25-.48.39-1.15.28-1.51.33-2c.1-.94.22-1.27.41-1.21a10.56,10.56,0,0,1,.07,3.11c0,.25,0,.47,0,.47a.12.12,0,0,0,.11-.1s.08-.65.18-1.34.18-1.52.19-1.86a2.49,2.49,0,0,1,.18-1c.09-.19.14-.37.09-.4s-.52-.12-1-.21-1-.21-1-.34,0-.14-.18,0-.88,0-.77-.23-.07-.48-.54-.42-.49,0-.56-.19a.58.58,0,0,1,0-.39c0-.06-.1-.21-.3-.31a.76.76,0,0,1-.46-.7.91.91,0,0,0-.31-.62.52.52,0,0,1-.23-.49.86.86,0,0,0-.25-.59c-.28-.23-.32-.47-.11-.6s.86.54.86.78.61,1.55.73,1.47.63.23.63.53.27.37.5.1.19-.15.38,0,.24.21.24.28.13.12.28.09a1.48,1.48,0,0,1,.64.08c.3.12.35.19.3.51s.11.58,1,.69c.76.09.81,0,1-.67A2.16,2.16,0,0,0,88.25,89.05Zm-39-17.47a9.52,9.52,0,0,0,.16,3.18c.07.13.15.22.18.19a8.84,8.84,0,0,0,.12-1.37,3.21,3.21,0,0,0-.13-1.7C49.46,71.66,49.32,71.53,49.24,71.58Z"/><path class="cls-1" d="M78.88,28.52a2.38,2.38,0,0,1-.62-.36,2.55,2.55,0,0,1,.13-.8c.13-.47.15-.71.07-.76a2.41,2.41,0,0,0-.93.41l-.83.48-.89-.34c-.83-.31-.9-.33-.89-.16a.71.71,0,0,1,0,.26,2.59,2.59,0,0,0,.31.66c.31.54.32.6.17.85a3.47,3.47,0,0,1-.64.6,1.89,1.89,0,0,0-.52.5,8,8,0,0,1-1.74,1.53c-.34.26-1.18.92-1.86,1.47L69.14,34c-.13.1-.69.57-1.24,1S66.34,36.39,65.65,37s-1.6,1.28-2,1.61l-1.33,1.07-1.53,1.22c-1.89,1.51-3.9,3.09-4.33,3.41-.05,0-.48.36-.94.73a4.13,4.13,0,0,1-.92.62.37.37,0,0,1-.06-.27c0-.38-.17-.37-.66,0s-.49.36-1,.24-.57-.09-.68,0-.11.2.12.56l.28.43-2.05,1.09c-1.76.93-5.31,2.76-7.62,3.93a5.55,5.55,0,0,1-.79.35c-.06,0-.06-.12,0-.28.11-.38-.19-.49-.5-.17s-.56.4-1.27.19-.67-.17-.74,0,0,.31.16.57.23.43.07.57-.2.15-.23.14a12.5,12.5,0,0,0-1.14.54c-.6.31-1.43.71-1.85.9a3.24,3.24,0,0,0-.93.56l-.17.22-.73-.28c-.7-.28-.73-.28-.79-.09s0,.22.07.24a.55.55,0,0,1,.23.26c.1.21.09.25-.13.48a.94.94,0,0,1-.41.25l-1.21.09a8.15,8.15,0,0,1-1.15.05c-.11,0-.1-.29,0-.58s-.18-.33-.35-.24-.3,0-.1-.52.32-.7.47-.47.41.17.58-.42l.17-.56.51,0c.29,0,.53-.08.55-.14s0-.13,0-.15c-.88-.35-.92-.4-.86-.92a6.2,6.2,0,0,1,.95-2.08c.64-1.14,1-1.65,1.14-1.66a2.51,2.51,0,0,1,.51.78c.55,1.07.63,1.07.84.08s.24-1,1.07-1a2,2,0,0,0,.64-.17.46.46,0,0,1,.29-.08.23.23,0,0,0,.22-.09c.1-.13,0-.26-.51-.6s-.85-.77-.78-.93a3.49,3.49,0,0,0,.14-.66c.07-.5.08-.52,2.1-2.81,1.11-1.27,2.43-2.8,2.93-3.4,1.27-1.53,1.67-2,2.25-2.59a4.29,4.29,0,0,0,.53-.62A15.48,15.48,0,0,1,45.78,35c.58-.63,1.06-1.18,1.07-1.21s.62-.7,1.37-1.49,1.55-1.68,1.79-2c.39-.48,1.65-1.91,3.13-3.57C53.87,26,54.7,25,55,24.65c.13-.16.4-.46.6-.68l.52-.61c.09-.11.22-.25.29-.32s.5-.55.94-1.08l1.11-1.31a3.72,3.72,0,0,0,.31-.4,37.5,37.5,0,0,1,2.57-2.74c.25-.2.5-.33.6-.3s.26.24.37.47c.29.6.54.61.72,0l.13-.45.64-.11a3.22,3.22,0,0,1,.74-.07.65.65,0,0,0,.33-.11c.21-.13.22-.14.08-.32a2,2,0,0,0-.6-.4c-.63-.27-.71-.41-.61-1s.06-.86-.13-.69-.31.26-.53.43c-.39.3-.43.3-.74.15a5.71,5.71,0,0,1-.68-.42c-.34-.23-.55-.28-.6-.12a3.82,3.82,0,0,0,.25.68,2.11,2.11,0,0,1,.24.74,2,2,0,0,1-.53.43,2.35,2.35,0,0,0-.53.41c0,.06.1.14.26.19s.28.11.16.3a13.69,13.69,0,0,1-.9,1.08c-.42.47-1,1.11-1.22,1.43s-.74.89-1.09,1.29l-1,1.08-.68.78c-.19.22-.87,1-1.51,1.7s-1.29,1.46-1.46,1.68-.76.89-1.31,1.5-1.36,1.51-1.78,2c-1,1.16-1.73,2-3.23,3.59-.68.74-1.59,1.77-2,2.28s-1.15,1.35-1.61,1.85c-1,1.16-1.33,1.48-2.86,3.24-3.28,3.77-3.78,4.27-4.61,4.63l-.57.25-.62-.32a3.45,3.45,0,0,1-.81-.54c-.24-.28-.42-.34-.55-.17s-.06.49.26,1.15a1.58,1.58,0,0,1,.23.71,2.38,2.38,0,0,1-.76.57c-1.17.67-1.21,1-.12,1a3.71,3.71,0,0,1,.87.1c.34.1.35.07-.4,1.34l-.68,1.17a5.71,5.71,0,0,1-.88,1.19c-.14.14-.2.13-.7-.12-.73-.35-.87-.21-.44.46l.3.47-.48.51a6.21,6.21,0,0,0-.49.57c0,.12.32.15.67.06s.36-.08.37.06a6.11,6.11,0,0,1-.72,1.79c-.14.15-.45.06-1.29-.39-.37-.19-.41.1-.12.78a2.06,2.06,0,0,1,.2.69c0,.07-.22.19-.44.28a1,1,0,0,0-.43.26A38.64,38.64,0,0,1,24.83,60l-1.76,1.4a7.76,7.76,0,0,1-1.86,1.32s-.06-.11,0-.2c.11-.36-.11-.35-.73,0-1,.63-1.23.44-2.32-2.22-.26-.62-.55-1.3-.65-1.49-.34-.68-1.63-3.94-1.6-4a.77.77,0,0,1,.46-.05c.23,0,.44,0,.45-.07s-.23-.28-.55-.52l-.58-.43.12-.4c.13-.44,0-.71-.21-.38-.06.1-.16.15-.21.11s-.2,0-.34.16-.29.2-.44.11c-.7-.45-.82-.42-.62.14l.1.31-.7.25c-1.33.48-2.87,1.07-3.38,1.29l-1.09.43L8.16,56c-.22.1-.28-.08-.17-.56s0-.67-.23-.38a1.48,1.48,0,0,1-.49.37c-.37.18-.39.17-1.08-.09s-.7-.27-.76-.08a.31.31,0,0,0,.05.29,1.32,1.32,0,0,1,.24.43l.12.35-.35.4a1.34,1.34,0,0,1-.65.45.46.46,0,0,0-.35.21c0,.17.27.23,1.18.23h.6l.29.61a2.45,2.45,0,0,0,.39.63c.19.06.38-.14.49-.5a1.17,1.17,0,0,1,1.45-.88c.57.15.51-.11-.14-.56-.32-.21-.55-.42-.52-.47a6,6,0,0,1,.92-.42l1.69-.71a21.18,21.18,0,0,1,2.95-1.07s-.12.15-.29.27c-.58.38-.52.44.6.55.21,0,.32.13.59.65l.33.63.38-1.25.35.71c.38.77,1.75,3.88,2.39,5.44.32.75.38,1,.31,1.26a.86.86,0,0,0,.05.61c.28.57.27.69-.11,1.09a1.6,1.6,0,0,1-.47.4c-.17,0-.23.39-.08.44a2.52,2.52,0,0,0,.56,0c.23,0,.44,0,.46,0s-1.15,3-2.88,7c-.38.89-.84,2-1,2.54-.32.89-.35.93-.64,1a1.34,1.34,0,0,1-1.17-.34,1.29,1.29,0,0,0-.35-.25c-.2-.06-.2.23,0,.46.39.46.19.47-1.27.11-1.17-.29-1.43-.38-1.63-.57a1.59,1.59,0,0,0-.34-.26c-.25-.08-.67-.55-.66-.74a3.41,3.41,0,0,1,.15-.7c.15-.5.07-.7-.14-.35a2.19,2.19,0,0,1-.65.48l-.54.28-.41-.25a5,5,0,0,1-.63-.45,1.45,1.45,0,0,0-.35-.25c-.21-.06-.26.21-.06.34s.16.15.14.2a2,2,0,0,0,.17.5l.19.42-.38.51c-.51.69-1.46,1.17-1.16.59.22-.42,0-.49-.48-.15s-.87.44-1.27.19-.53-.29-.59-.08,0,.2,0,.21a.67.67,0,0,1,.17.31c.1.34,0,.62-.5.91-.18.12-.31.25-.29.29s.57.22,1,.18a1.83,1.83,0,0,1,.52,0,2.51,2.51,0,0,1,.42,1.13s0,.14.07.23.13,0,.27-.52.19-.69.48-.88.38-.19.58-.09.76.12.81-.06,0-.15-.15-.18-.17-.12-.14-.19-.08-.3-.38-.26-.29,0-.35-.1.61-.52,1.37-.67l.53-.1.37.73c.21.4.43.71.49.7a1.67,1.67,0,0,0,.28-.68c.26-1,.18-1,2.49-.34,2,.53,2.2.63,1.6.81a.92.92,0,0,0-.37.21c-.19.25,0,.34.59.25.8-.11.91-.06,1.13.59a1.33,1.33,0,0,0,.3.59c.06,0,.2-.17.33-.48.36-.86.48-.94,1.15-.89.42,0,.38-.14-.09-.35s-.55-.37-.38-.82a.76.76,0,0,0,0-.57c-.1-.2-.08-.31.23-1,.19-.44.68-1.61,1.09-2.6s.86-2,1-2.34A9.34,9.34,0,0,0,18,68.27a7.87,7.87,0,0,1,.39-1c.13-.23.37-.74.56-1.14.46-1,.51-1,.82-.48a1.84,1.84,0,0,0,.35.49c.06,0,.24-.26.4-.6.34-.73.42-.8,1-.87s.66-.26.09-.64-.59-.48-.38-.61.37-.29.66-.54c.62-.52,1.39-1.13,2.59-2.06.46-.36,1.27-1,1.79-1.44s1.16-.92,1.42-1.08a4,4,0,0,0,.54-.4c.11-.15.23-.16.74,0s.48.14.72.64c.14.32.3.53.39.52s.26-.23.4-.5c.4-.77.41-.77.88-.82,1.12-.11,1.14-.12,1.08-.27A2.84,2.84,0,0,0,32,57c-.2-.19-.32-.36-.27-.39a6.22,6.22,0,0,1,.77-.12c.58-.07.69-.06.85.1s.26.17.79.08l.61-.11.18.43c.14.31.26.45.45.5s.27,0,.25-.1c-.06-.49,0-.71.38-.88a2.1,2.1,0,0,1,.57-.19c.35,0,.32-.15-.12-.44s-.4-.28-.31-.58.23-.38,1.43-1c.94-.46,1.38-.62,1.48-.55a1.64,1.64,0,0,0,.73,0l.58-.08.24.49c.34.65.63.72.75.17s.26-.77,1-.87c.5-.07.7-.14.73-.27s0-.22-.43-.4-.49-.24-.48-.28,2.35-1.33,3.7-2l2.45-1.27C50.86,47.9,51.75,47.5,52,47.6a1.81,1.81,0,0,0,.69,0l.53-.1.27.39c.4.56.55.53.7-.13l.13-.53.49.07c.4.07.51,0,.55-.09s0-.19,0-.2a1,1,0,0,1-.24-.27.77.77,0,0,0-.28-.29.14.14,0,0,1-.08-.19c0-.11.1-.12.28,0s.22.11.15,0,0-.41.78-1l1.72-1.41,1.73-1.39c1.62-1.25,3.16-2.48,3.42-2.73s1.54-1.28,2.87-2.32c.59-.47,1.27-1,1.51-1.23.74-.65,3.72-3.09,4.24-3.47l1.08-.82a19.72,19.72,0,0,1,1.59-1.19,2.05,2.05,0,0,0,.42-.39,1.87,1.87,0,0,1,1.46-.42c.26,0,.34.11.69.79s.43.75.59.71.22-.18.37-.75a3.92,3.92,0,0,1,.32-.88,1.77,1.77,0,0,1,.73-.34c.59-.15.92-.35.85-.49A3,3,0,0,0,78.88,28.52ZM62.11,16c-.12-.18-.35-.81-.28-.79s.2.13.4.28.38.24.43.16a1.47,1.47,0,0,1,.39-.27l.31-.17-.09.48c-.09.44-.07.49.17.62s.22.14.08.16a.31.31,0,0,1-.25-.07c-.1-.1-.39.24-.48.57s-.13.27-.34-.1-.2-.3-.36-.26c-.37.07-.42,0-.14-.24S62.2,16.17,62.11,16Zm-29,31.67a.53.53,0,0,1-.28,0c-.09,0-.16-.08-.14-.12A2.39,2.39,0,0,1,34,47.21c.22,0,.29,0,.32-.14a1.63,1.63,0,0,0,0-1c-.16-.27-.14-.34,0-.22.66.41.76.42,1.43.09l.63-.31-.12.52a1.33,1.33,0,0,1-.27.62c-.2.14-.13.32.17.4a1,1,0,0,1,.4.26c.12.17.1.19-.32.31a2.16,2.16,0,0,0-.53.2,1.5,1.5,0,0,0-.13.57c-.05.75-.16.78-.38.12a2.42,2.42,0,0,0-.48-.83c-.26-.23-.3-.24-.87-.19A4.2,4.2,0,0,0,33.15,47.7ZM31,52.27s.17,0,.29.17a1.15,1.15,0,0,0,.35.25.73.73,0,0,1,.27.22c.13.18.13.19-.16.23s-.31,0-.41-.21a.67.67,0,0,0-.2-.29C31,52.61,30.89,52.32,31,52.27Zm-23.35,5c-.32.06-.42.16-.53.49L7,58.06l-.11-.29c-.25-.64-.3-.71-.58-.73s-.27,0-.15-.3a.56.56,0,0,0,0-.56c-.08-.16-.13-.29-.1-.29l.42.08a.74.74,0,0,0,.63-.11c.31-.24.4-.2.36.18-.05.59,0,.66.21.84S8,57.23,7.64,57.29Zm7.63-2.79c-.46.23-.52.21-.59-.18s-.09-.36.22-.41a.5.5,0,0,1,.5.19l.24.22Zm-10.82,22a1.87,1.87,0,0,0-.13.58c0,.14,0,.22-.08.2s-.09-.11-.09-.22-.23-.42-.4-.33a.37.37,0,0,1-.25,0c-.1,0-.09-.06.06-.19s.15-.19,0-.39h0c-.21-.32-.17-.4.12-.22a1,1,0,0,0,.7.21C4.55,76.18,4.56,76.22,4.45,76.53Zm4.26-1.44a1.15,1.15,0,0,0-.49.23c-.2.17-.24.25-.19.42s0,.23,0,.25-.24-.37-.17-.62,0-.22-.3-.26a1.33,1.33,0,0,0-.48,0,.36.36,0,0,1-.19,0c-.12,0,0-.25.2-.4a.57.57,0,0,0,.22-.37c0-.16.07-.2.19-.17A1.13,1.13,0,0,0,8.09,74l.45-.3-.13.44c-.12.42-.12.44.18.59S9,75.07,8.71,75.09Zm5.62,2.6c0,.13,0,.12-.09,0a.74.74,0,0,1,0-.36l.06-.18,0,.21A1.33,1.33,0,0,1,14.33,77.69Zm-.11-.87c-.15,0-.15-.26,0-.39s.13-.08.17.06S14.38,76.82,14.22,76.82ZM20.7,64.29a.5.5,0,0,0-.61.56.72.72,0,0,1,0,.41c-.08.17-.1.15-.2-.22s-.29-.64-.57-.56-.33,0-.21-.14a1,1,0,0,0,0-.6,2.1,2.1,0,0,1-.06-.5s.22,0,.46.09.48.14.71,0,.39-.21.26.22-.08.39.09.45c.38.13.43.17.43.27S20.86,64.32,20.7,64.29Zm10-7.16c-.39.1-.51.24-.46.52a.35.35,0,0,1-.08.33c-.11.1-.13.1-.19-.06a.72.72,0,0,1,0-.36.28.28,0,0,0-.12-.29c-.11-.07-.12-.14,0-.27a.61.61,0,0,0,0-.47c-.1-.3-.09-.3.11-.18a.58.58,0,0,0,.4.07c.16-.05.23,0,.33.15s.17.23.23.24C31.09,56.88,31,57.05,30.69,57.13Zm4.89-1a.28.28,0,0,0-.21.19c0,.11-.08.16-.11.13l-.33-.27c-.14-.11-.25-.23-.23-.26s.07-.15.13-.26.15-.17.25-.11l.42.24C35.8,56,35.84,56.14,35.58,56.16ZM41.43,53c-.1,0-.19.19-.27.49l-.12.45-.14-.32a.76.76,0,0,0-.39-.4c-.25-.07-.27-.17-.07-.28s.09-.16,0-.37c-.15-.39-.13-.42.19-.32s.31.18.2.39c0,0,0,.08.07.09s.1,0,.12-.09a.37.37,0,0,1,.18-.19c.1-.06.17,0,.25.21S41.55,53,41.43,53Zm11.51-6.7a.09.09,0,0,1-.06-.12c0-.06.06-.06.1,0a.33.33,0,0,1,.07.13S53,46.31,52.94,46.29Zm.76.65a.43.43,0,0,1-.38.1c-.26,0-.27-.06-.17-.35s.42-.48.65-.22c.08.09.12.21.08.25Zm24.42-18c-.37-.12-.53.08-.75.9-.12.46-.22.73-.29.71a1.54,1.54,0,0,1-.27-.54c-.19-.54-.21-.55-1-.58-.36,0-.24-.23.16-.29.25-.05.27-.07.25-.37a1.39,1.39,0,0,0-.25-.63c-.35-.48-.26-.56.31-.31l.49.22.54-.3c.29-.16.55-.27.57-.22a.49.49,0,0,1-.26.54c-.15,0-.14.07,0,.31a1.14,1.14,0,0,0,.47.36c.14,0,.25.12.23.17S78.25,28.94,78.12,28.91Z"/></g></g></svg>