<svg xmlns="http://www.w3.org/2000/svg" viewBox="0 0 106.3 119.11"><defs><style>.cls-1{fill-rule:evenodd;}</style></defs><title>Asset 547</title><g id="Layer_2" data-name="Layer 2"><g id="Layer_1-2" data-name="Layer 1"><path d="M38.56,111.76H35.92v7.15h-.8v-7.15H32.49v-.71h6.07Zm3.75-.71,3.38,7.86H44.8l-.87-2.07H39.87L39,118.91h-.88l3.4-7.86Zm1.32,5.06-1.73-4.18-1.73,4.18Zm22.79-.22a3.59,3.59,0,0,1-.11.93,2.24,2.24,0,0,1-.36.8,1.9,1.9,0,0,1-.66.56,2.43,2.43,0,0,1-2,0,1.73,1.73,0,0,1-.66-.56,2.24,2.24,0,0,1-.36-.8,3.59,3.59,0,0,1-.11-.93v-4.84h-.8V116a5,5,0,0,0,.12,1,3,3,0,0,0,.46,1,2.71,2.71,0,0,0,.9.77,3.57,3.57,0,0,0,2.91,0,2.53,2.53,0,0,0,.9-.77,2.64,2.64,0,0,0,.46-1,4.41,4.41,0,0,0,.13-1v-4.93h-.8Zm7.18,0a2.06,2.06,0,0,0-.54-.63,3.4,3.4,0,0,0-.75-.41l-.83-.29c-.22-.07-.43-.14-.63-.22a2.19,2.19,0,0,1-.55-.28,1.38,1.38,0,0,1-.38-.42,1.16,1.16,0,0,1-.14-.62,1.33,1.33,0,0,1,.15-.65,1.49,1.49,0,0,1,.39-.47,1.76,1.76,0,0,1,.55-.27,2,2,0,0,1,.58-.09,2.07,2.07,0,0,1,1,.22,1.91,1.91,0,0,1,.66.57l.63-.51a2.32,2.32,0,0,0-.86-.67,3,3,0,0,0-1.36-.28,3.39,3.39,0,0,0-.88.12,2.34,2.34,0,0,0-.81.39A1.89,1.89,0,0,0,69,113a2,2,0,0,0,.18.9,1.85,1.85,0,0,0,.48.62,2.71,2.71,0,0,0,.68.4,7.08,7.08,0,0,0,.77.28c.25.08.49.16.72.25a2.67,2.67,0,0,1,.61.3,1.35,1.35,0,0,1,.43.46,1.48,1.48,0,0,1,0,1.34,1.74,1.74,0,0,1-.41.48,2,2,0,0,1-.56.29,2.27,2.27,0,0,1-.62.09,2,2,0,0,1-1.08-.28,2.1,2.1,0,0,1-.71-.71l-.69.51a2.16,2.16,0,0,0,.49.51,2.62,2.62,0,0,0,.6.37,3.09,3.09,0,0,0,.67.22,3.49,3.49,0,0,0,.71.07,3.66,3.66,0,0,0,.93-.13,2.36,2.36,0,0,0,.82-.42,2.09,2.09,0,0,0,.58-.7,2.16,2.16,0,0,0,.23-1A2,2,0,0,0,73.6,115.87Zm-21.72,0a3.59,3.59,0,0,1-.11.93,2.24,2.24,0,0,1-.36.8,1.81,1.81,0,0,1-.66.56,2.43,2.43,0,0,1-2,0,1.9,1.9,0,0,1-.66-.56,2.24,2.24,0,0,1-.36-.8,3.59,3.59,0,0,1-.11-.93v-4.84h-.8V116a5,5,0,0,0,.12,1,2.82,2.82,0,0,0,.47,1,2.53,2.53,0,0,0,.9.77,2.94,2.94,0,0,0,1.45.31,3,3,0,0,0,1.45-.31,2.53,2.53,0,0,0,.9-.77,2.82,2.82,0,0,0,.47-1,5,5,0,0,0,.12-1v-4.93h-.8Zm5.83-.72,2.3,3.74H59l-2.18-3.68H55.53v3.68h-.8v-7.86H57a4.57,4.57,0,0,1,1.07.11,2.25,2.25,0,0,1,.85.36,1.71,1.71,0,0,1,.57.65,2.18,2.18,0,0,1,.2,1,2,2,0,0,1-.16.79,1.79,1.79,0,0,1-.42.62,2.22,2.22,0,0,1-.64.42A2.84,2.84,0,0,1,57.71,115.17Zm-.79-.63a2.57,2.57,0,0,0,1.48-.35,1.17,1.17,0,0,0,.53-1,1.33,1.33,0,0,0-.15-.65,1.18,1.18,0,0,0-.4-.43,1.83,1.83,0,0,0-.62-.25,4.12,4.12,0,0,0-.81-.08H55.53v2.81Z"/><path d="M58.44,4.16H54.07L52.71,0,51.36,4.16H47l3.54,2.57L49.17,10.9l3.54-2.57,3.54,2.57L54.9,6.73ZM52.71,7.29l-2,1.42.75-2.3L49.56,5H52l.74-2.29L53.46,5h2.4L53.92,6.41l.74,2.3Z"/><path d="M58.88,98.11H54.5L53.15,94,51.8,98.11H47.42L51,100.68l-1.35,4.17,3.54-2.58,3.54,2.58-1.35-4.17Zm-5.73,3.13-1.95,1.41.75-2.29L50,99h2.41l.74-2.29L53.89,99H56.3l-1.95,1.41.75,2.29Z"/><path d="M83.93,71.42H80.35L79.24,68l-1.11,3.41H74.55l2.9,2.11-1.11,3.41,2.9-2.11,2.9,2.11L81,73.53ZM79.24,73.8l-1.31,1,.5-1.54-1.31-.95h1.62l.5-1.54.5,1.54h1.62l-1.31.95.5,1.54Z"/><path d="M103.19,35.22H99.6l-1.11-3.41-1.1,3.41H93.8l2.9,2.11-1.1,3.41,2.89-2.11,2.9,2.11-1.1-3.41Zm-4.7,2.37-1.3.95.5-1.53-1.31-.95H98l.5-1.54.5,1.54h1.62L99.3,37l.5,1.53Z"/><path d="M31.75,71.42H28.17L27.06,68,26,71.42H22.37l2.9,2.11-1.11,3.41,2.9-2.11L30,76.94l-1.11-3.41ZM27.06,73.8l-1.31,1,.5-1.54L25,72.26h1.61l.5-1.54.5,1.54h1.62l-1.31.95.5,1.54Z"/><path d="M12.5,35.22H8.91l-1.1-3.41L6.7,35.22H3.11L6,37.33l-1.1,3.41,2.9-2.11,2.9,2.11L9.6,37.33ZM7.81,37.59l-1.31.95L7,37l-1.31-.95H7.31l.5-1.54.5,1.54H9.92L8.61,37l.5,1.53Z"/><path d="M82.84,10.9l-2.28-.85,1.38-2-2.3.82-.22-2.43-1.24,2.1L76.45,6.82l.4,2.41L74.42,9l1.86,1.58-2,1.41,2.44,0-.62,2.36L78,12.84,79,15.05l.44-2.4,2.21,1-1.2-2.12Zm-3.16.92-.83-.38-.17.9-.39-.83-.71.59.23-.89h-.92l.75-.53-.7-.6.92.08-.16-.91.66.65.47-.8.08.92.87-.31-.53.76.86.32-.88.24Z"/><path d="M91.79,87.49l-2.28-.85,1.39-2-2.3.82L88.37,83l-1.23,2.1L85.4,83.41l.41,2.4-2.43-.2,1.85,1.59-2,1.41h2.44L85.07,91l1.87-1.55,1,2.2.44-2.39,2.22,1-1.21-2.12Zm-3.15.92L87.8,88l-.17.91-.39-.83-.71.58.24-.88h-.92l.74-.53-.7-.6.92.08-.15-.91.65.65.47-.8.08.92.87-.31-.52.76.86.32-.89.24Z"/><path d="M103.73,61.28l-2.73-1,1.66-2.4-2.75,1-.27-2.9-1.48,2.51-2.07-2,.49,2.87L93.67,59l2.22,1.89-2.38,1.69,2.92,0-.74,2.82,2.25-1.86,1.24,2.63.53-2.86,2.65,1.21-1.44-2.53Zm-4.65.88-.25,1.37-.6-1.26-1.07.89.35-1.35H96.12L97.25,61l-1.06-.9,1.39.11-.23-1.37,1,1,.71-1.21L99.18,60l1.31-.47-.79,1.15,1.31.49-1.35.37.69,1.21Z"/><path d="M58.82,22.12l-2.73-1,1.66-2.4-2.75,1-.27-2.91L53.25,19.3l-2.07-2.05.49,2.87-2.91-.23L51,21.78,48.6,23.46l2.92,0-.74,2.82L53,24.45l1.24,2.63.53-2.87,2.65,1.22L56,22.89ZM54.17,23l-.25,1.37-.6-1.25L52.25,24l.35-1.35H51.21l1.13-.8-1.06-.91,1.39.12-.23-1.38,1,1,.71-1.2.13,1.39,1.31-.47-.79,1.15L56.1,22l-1.35.37.69,1.22Z"/><path d="M32,12l-2-1.41L31.88,9l-2.43.2.4-2.41L28.12,8.53l-1.24-2.1-.22,2.43L24.36,8l1.39,2-2.29.85,2.35.64-1.2,2.12,2.21-1,.44,2.4,1-2.21,1.88,1.56L29.57,12Zm-3.29.08L28,11.51l-.39.83-.17-.9-.83.38.45-.8-.88-.24.86-.32-.53-.76.87.31.09-.92.46.8.66-.65-.16.91.92-.08-.7.6.75.53h-.92Z"/><path d="M23.06,88.61l-2-1.41,1.85-1.59-2.43.2.41-2.4-1.73,1.71L17.93,83l-.23,2.43-2.29-.82,1.38,2-2.28.85,2.35.64-1.21,2.12,2.22-1,.44,2.39,1.05-2.2L21.23,91l-.61-2.36Zm-3.29.07-.71-.58-.39.83L18.5,88l-.84.39.46-.8-.89-.24.86-.32-.52-.76.87.31.08-.92.47.8.65-.65-.15.91.92-.08-.7.6.74.53h-.91Z"/><path d="M12.79,62.62l-2.38-1.69L12.63,59l-2.91.24.49-2.87-2.07,2L6.66,55.94l-.27,2.9-2.75-1,1.66,2.4-2.73,1,2.81.77L3.94,64.58l2.65-1.21.53,2.86L8.36,63.6l2.25,1.86-.74-2.82Zm-4.72-.35-.6,1.26-.25-1.37L6,62.74l.69-1.21-1.35-.37,1.31-.49-.79-1.15L7.12,60l.13-1.39L8,59.81l1-1L8.72,60.2l1.39-.11L9.05,61l1.13.81H8.79l.35,1.35Z"/><path d="M67.53,23l-3.07-.54,3.07-.55.54-3.07.55,3.07,3.07.55L68.62,23,68.07,26Z"/><path d="M102.57,49.77l-2.75-.49,2.75-.49.49-2.75.49,2.75,2.75.49-2.75.49-.49,2.75Z"/><path d="M100.29,74.84l-2.75.49-.49,2.75-.49-2.75-2.75-.49,2.75-.49.49-2.75.49,2.75Z"/><path d="M78.36,96.56l-3.46.61-.61,3.46-.61-3.46-3.46-.61L73.68,96l.61-3.46L74.9,96Z"/><path d="M41.84,22.43,38.77,23,38.23,26,37.69,23l-3.08-.54,3.08-.55.54-3.07.54,3.07Z"/><path d="M3.24,52.52l-.49-2.75L0,49.28l2.75-.49L3.24,46l.49,2.75,2.75.49-2.75.49Z"/><path d="M9.25,78.08l-.49-2.75L6,74.84l2.75-.49.49-2.75.49,2.75,2.75.49-2.75.49Z"/><path d="M36.08,96.56l-3.46.61L32,100.63l-.61-3.46-3.46-.61L31.4,96,32,92.49,32.62,96Z"/><path d="M67.57,2.71a1.77,1.77,0,1,0,1.77,1.77A1.77,1.77,0,0,0,67.57,2.71Zm0,2.87a1.1,1.1,0,1,1,1.1-1.1A1.1,1.1,0,0,1,67.57,5.58Z"/><path d="M37.86,2.71a1.77,1.77,0,1,0,1.76,1.77A1.77,1.77,0,0,0,37.86,2.71Zm0,2.87A1.1,1.1,0,1,1,39,4.48,1.1,1.1,0,0,1,37.86,5.58Z"/><path d="M96.34,23.37a1.77,1.77,0,1,0,1.77,1.77A1.78,1.78,0,0,0,96.34,23.37Zm0,2.87a1.1,1.1,0,1,1,1.1-1.1A1.1,1.1,0,0,1,96.34,26.24Z"/><path d="M68.82,84.46a1.77,1.77,0,1,0,1.77,1.77A1.77,1.77,0,0,0,68.82,84.46Zm0,2.87a1.1,1.1,0,1,1,1.1-1.1A1.1,1.1,0,0,1,68.82,87.33Z"/><path d="M82.84,57.66a1.77,1.77,0,1,0,1.77,1.77A1.77,1.77,0,0,0,82.84,57.66Zm0,2.87a1.1,1.1,0,1,1,1.1-1.1A1.1,1.1,0,0,1,82.84,60.53Z"/><path d="M10,23.37a1.77,1.77,0,1,0,1.77,1.77A1.77,1.77,0,0,0,10,23.37Zm0,2.87A1.1,1.1,0,0,1,10,24a1.1,1.1,0,0,1,0,2.2Z"/><path d="M37.48,84.46a1.77,1.77,0,1,0,1.77,1.77A1.77,1.77,0,0,0,37.48,84.46Zm0,2.87a1.1,1.1,0,0,1,0-2.2,1.1,1.1,0,0,1,0,2.2Z"/><path d="M21.69,59.43a1.77,1.77,0,1,1,1.77,1.77A1.77,1.77,0,0,1,21.69,59.43Zm.67,0a1.1,1.1,0,1,0,1.1-1.1A1.1,1.1,0,0,0,22.36,59.43Z"/><path class="cls-1" d="M90.61,13.32c-.83-.31-1.83.5-3.55,2.9C84.72,19.5,80.35,25.62,69,31c-.93.44-1.73.83-2.3,1.18l-.15.05-.08,0,0,.06-.22.15a12.81,12.81,0,0,0-4.3-.67,34.72,34.72,0,0,0-6.69.84h-.05c-.84.16-1.56.3-2.09.36h-.11c-.53-.06-1.26-.2-2.1-.36h-.05a34.62,34.62,0,0,0-6.69-.84,12.91,12.91,0,0,0-4.25.65l-.19-.13,0-.06-.08,0-.15-.05c-.57-.35-1.37-.74-2.3-1.18a42.92,42.92,0,0,1-18-14.75c-1.72-2.4-2.72-3.21-3.55-2.9s-1,1.5-.73,3.92c0,.35.09.72.15,1.09a.36.36,0,0,0,0,.11,20.46,20.46,0,0,0,3,7.62l0,0,.06,0a.05.05,0,0,1,0,0h0c3.11,4.78,7.81,8.32,11.24,10.9,2.57,1.94,5,3.77,4.7,4.76a1.28,1.28,0,0,1-.31.42,2.53,2.53,0,0,1-1.63.43,6.75,6.75,0,0,1-2.65-.56,21.57,21.57,0,0,1-2.37-1.36h0c-1.76-1.11-3.43-2.15-5.82-2.15a8.38,8.38,0,0,0-1.1.08l-.93.1c-1.48.14-3,.29-3.69,1.23a.55.55,0,0,0-.11.15l-.11.22c-.86,2.11,1.28,5.95,2,7.08,1.48,2.48,4.3,3.59,6.79,4.57.36.13.71.27,1.05.41a12.08,12.08,0,0,0,3.49.74c2.06.23,3.68.41,4.61,2.92A21.84,21.84,0,0,1,34,58.3l0,.18h0a45,45,0,0,1,1,7.48c.3,3.84,2,6.37,3.91,9.05a31.33,31.33,0,0,1,2.78,4.55,6.17,6.17,0,0,1,.38,2.84c0,1.59-.1,3.24,2.4,3.81a3.37,3.37,0,0,0,1,2.13c1.85,1.87,5.71,1.87,7.56,1.87h.21c1.85,0,5.7,0,7.56-1.87a3.4,3.4,0,0,0,1-2.18c2.29-.61,2.24-2.21,2.2-3.77a6,6,0,0,1,.37-2.83A31.83,31.83,0,0,1,67.23,75c1.86-2.68,3.61-5.2,3.9-9a46,46,0,0,1,1.06-7.56s.51-1.78.7-2.3c.93-2.51,2.55-2.69,4.61-2.92A12.08,12.08,0,0,0,81,52.44c.34-.14.69-.28,1.05-.41,2.49-1,5.31-2.09,6.8-4.57.67-1.13,2.81-5,2-7.08l-.07-.14v0a.89.89,0,0,0-.24-.34c-.73-.82-2.18-1-3.59-1.1l-.93-.1a8.38,8.38,0,0,0-1.1-.08c-2.39,0-4,1-5.82,2.15a22.82,22.82,0,0,1-2.4,1.37,6.75,6.75,0,0,1-2.65.56,2.72,2.72,0,0,1-1.55-.37v-.05h-.08a1.23,1.23,0,0,1-.19-.32c-.48-1,2-2.86,4.65-4.85l0-.07.06.06C80.25,34.49,85,31,88.06,26.17l0,0,.06,0,0,0a20.4,20.4,0,0,0,3-7.62.44.44,0,0,0,0-.1c.07-.39.11-.75.15-1.1C91.6,14.82,91.37,13.61,90.61,13.32ZM16,17.91c0-.25-.07-.51-.1-.77-.28-2.63.14-2.94.14-2.94h0c.1,0,.69.12,2.43,2.57.79,1.09,1.61,2.15,2.45,3.15h-.19C18.94,19.74,16,19.47,16,18v-.09ZM16.43,20a12.69,12.69,0,0,0,4.22.88c.53.05,1,.09,1.19.14a44.53,44.53,0,0,0,4.88,4.66,9.61,9.61,0,0,0-1.1-.06,23.46,23.46,0,0,0-2.61.2,20.84,20.84,0,0,1-2.12.16h0a3.65,3.65,0,0,1-2-.44A19.83,19.83,0,0,1,16.43,20ZM27.27,33.28A3.58,3.58,0,0,1,25.75,33a36.25,36.25,0,0,1-5.93-6.15,7,7,0,0,0,1.07.08,21.74,21.74,0,0,0,2.23-.17,21.05,21.05,0,0,1,2.52-.19,6.85,6.85,0,0,1,3,.59,48.44,48.44,0,0,0,7.69,4.46h-.53A17.06,17.06,0,0,0,32.1,32a17.56,17.56,0,0,0-1.83.57,9.47,9.47,0,0,1-3,.71Zm2.77,3-.06,0c-.82-.61-1.74-1.31-2.67-2.05a10.38,10.38,0,0,0,3.27-.76,16.4,16.4,0,0,1,1.73-.54,15.83,15.83,0,0,1,3.49-.43,10.79,10.79,0,0,1,3,.42,8.15,8.15,0,0,0-4,4.88,8.37,8.37,0,0,0-.27,1.91l0,.45A26.46,26.46,0,0,0,30,36.32ZM28.82,52.25a11.73,11.73,0,0,1-3.24-.68l-1.06-.42c-2.46-1-5-2-6.33-4.17-1.21-2-2.44-4.89-1.88-6.25a.09.09,0,0,1,0-.06h0a1,1,0,0,1,.45-.09c1.44,0,4.63,1.87,7.18,3.37,3.29,1.93,6.4,3.76,8.39,3.76a2.58,2.58,0,0,0,.7-.09,15.91,15.91,0,0,0-.27,2.72,18.71,18.71,0,0,0,.39,3.6C32,52.6,30.46,52.43,28.82,52.25Zm4.52-6a.85.85,0,0,1-.51.49,1.75,1.75,0,0,1-.49.07c-1.7,0-5-1.93-7.89-3.64a36.21,36.21,0,0,0-6.37-3.27c.45-.07.94-.12,1.35-.16l1-.1a8.52,8.52,0,0,1,1-.07c2.12,0,3.6.93,5.31,2l0-.07,0,.08A25.22,25.22,0,0,0,29.18,43a7.78,7.78,0,0,0,3.06.65,4.18,4.18,0,0,0,1.58-.27,28.39,28.39,0,0,1-.47,2.81A.13.13,0,0,0,33.34,46.22ZM60.21,87.67c-1.58,1.6-5.3,1.6-6.9,1.6H53c-1.43,0-5.21,0-6.8-1.6a2.42,2.42,0,0,1-.68-1.29,55,55,0,0,0,6.24.25h2.68a51.39,51.39,0,0,0,6.45-.28A2.36,2.36,0,0,1,60.21,87.67ZM46.41,81a7.38,7.38,0,0,1-1.14-3.28,1.86,1.86,0,0,1,.82-1.55,1.33,1.33,0,0,1,1.32.11c.21.12.47.29.76.49l0-.07,0,.08c1.18.8,3,2,4.92,2h.23c2,0,3.74-1.2,4.93-2,.29-.2.56-.38.77-.5a1.33,1.33,0,0,1,1.32-.11,1.87,1.87,0,0,1,.83,1.55A7.55,7.55,0,0,1,60.05,81c-.79,1.55-1.61,3.15-1.15,4.6-1.19.07-2.68.1-4.45.1H51.77c-1.65,0-3.07,0-4.22-.09C48,84.14,47.2,82.54,46.41,81ZM89.86,40.62l.06.12C90.47,42.09,89.25,45,88,47c-1.32,2.2-3.87,3.2-6.34,4.17l-1,.42a11.73,11.73,0,0,1-3.24.68c-1.6.18-3.1.34-4.26,1.58a18.4,18.4,0,0,0,.37-3.49,15.91,15.91,0,0,0-.27-2.72,2.58,2.58,0,0,0,.7.09c2,0,5.09-1.83,8.39-3.76,2.55-1.5,5.74-3.38,7.18-3.38A1.18,1.18,0,0,1,89.86,40.62ZM74,43.62A7.78,7.78,0,0,0,77,43a25.22,25.22,0,0,0,2.48-1.42l0-.07.06.06c2-1.23,3.63-2.27,6.29-1.93l1,.1c.45,0,.95.09,1.41.17a35.65,35.65,0,0,0-6.35,3.26c-2.9,1.7-6.19,3.64-7.89,3.64a1.75,1.75,0,0,1-.49-.07.81.81,0,0,1-.5-.49l0-.06a27.79,27.79,0,0,1-.47-2.78A4.29,4.29,0,0,0,74,43.62Zm-1.41,6.72a22.15,22.15,0,0,1-.66,4.83c-.15.7-.32,1.5-.45,2.31a43.34,43.34,0,0,0-1.27,8.4c-.27,3.59-2,6-3.74,8.6a32.19,32.19,0,0,0-2.86,4.68,6.83,6.83,0,0,0-.46,3.27c0,1.62.07,2.51-1.79,2.89a13.63,13.63,0,0,1-1.46.2c-.51-1.13.22-2.57,1-4.1a8,8,0,0,0,1.24-3.77,2.72,2.72,0,0,0-1.31-2.31,2,2,0,0,0-.65-.22c.75-2.39,0-4.66-.81-7.05s-1.67-5-.85-7.77c1.8-6.13,5-9.38,11.09-11.21l.08,0-.27-.9-.08,0C62.89,50.13,59.5,53.56,57.59,60c-.9,3.07,0,5.75.87,8.34.79,2.37,1.55,4.61.67,6.84a3,3,0,0,0-.56.24c-.22.13-.48.31-.78.51l0,0c-1.09.73-2.73,1.84-4.41,1.84h-.23c-1.67,0-3.32-1.11-4.41-1.85-.32-.21-.58-.39-.82-.53a3,3,0,0,0-.55-.24c-.88-2.23-.13-4.47.67-6.85.86-2.58,1.76-5.25.86-8.33-1.9-6.47-5.3-9.9-11.72-11.84l-.08,0-.27.9.08,0C43,50.92,46.16,54.17,48,60.3c.82,2.79,0,5.31-.85,7.77s-1.57,4.66-.81,7.05a1.78,1.78,0,0,0-.66.22,2.72,2.72,0,0,0-1.31,2.31,8,8,0,0,0,1.24,3.77c.78,1.53,1.52,3,1,4.12a13.92,13.92,0,0,1-1.69-.22c-1.86-.38-1.83-1.27-1.78-2.9a6.82,6.82,0,0,0-.47-3.26,32.3,32.3,0,0,0-2.86-4.69C38,71.9,36.3,69.47,36,65.88a45.68,45.68,0,0,0-1.1-7.76c-.13-1-.32-1.92-.54-3a22,22,0,0,1-.66-4.82,19,19,0,0,1,.54-4,21.74,21.74,0,0,0,.53-3.74l.13-.2h0l0-.09A.53.53,0,0,0,35,42.2a6.89,6.89,0,0,0,.46-2.45,6.92,6.92,0,0,1,.23-1.66,7.06,7.06,0,0,1,4-4.58l0,0,.1-.08a11.48,11.48,0,0,1,4.37-.75,33.6,33.6,0,0,1,6.51.82h0c.88.18,1.64.33,2.23.39h.25c.58-.06,1.34-.21,2.21-.38h0A33.7,33.7,0,0,1,62,32.71c4.52,0,7.3,1.76,8.5,5.38a7.34,7.34,0,0,1,.22,1.66,5.21,5.21,0,0,0,.78,3A22.47,22.47,0,0,0,72,46.36,19.28,19.28,0,0,1,72.57,50.34Zm3.75-14.07-.06,0a24.56,24.56,0,0,0-4.56,3.93c0-.19,0-.38,0-.56a7.84,7.84,0,0,0-.27-1.9,8.12,8.12,0,0,0-4-4.87,10.8,10.8,0,0,1,3.1-.42,15.78,15.78,0,0,1,3.48.42,17.33,17.33,0,0,1,1.74.54,10.32,10.32,0,0,0,3.26.76C78.06,35,77.14,35.66,76.32,36.27ZM80.55,33a3.58,3.58,0,0,1-1.52.33,9.47,9.47,0,0,1-3-.71A17.56,17.56,0,0,0,74.2,32a17.06,17.06,0,0,0-3.69-.44H70a48.57,48.57,0,0,0,7.68-4.45,6.78,6.78,0,0,1,3-.6,21.21,21.21,0,0,1,2.52.19,21.74,21.74,0,0,0,2.23.17,7.06,7.06,0,0,0,1.07-.08A36.65,36.65,0,0,1,80.55,33Zm6.82-7.45a3.65,3.65,0,0,1-2,.44,20.84,20.84,0,0,1-2.12-.16,23.46,23.46,0,0,0-2.61-.2,9.61,9.61,0,0,0-1.1.06A44.53,44.53,0,0,0,84.46,21c.24-.05.66-.09,1.19-.14A12.69,12.69,0,0,0,89.87,20,19.83,19.83,0,0,1,87.37,25.5Zm3-8.36c0,.26-.06.52-.1.77h0V18c.07,1.47-2.91,1.74-4.71,1.9h-.18c.85-1,1.67-2.07,2.45-3.15,1.74-2.45,2.33-2.57,2.43-2.57h0S90.69,14.5,90.41,17.14ZM67,52.49c-2.29.38-4.65.77-4.25,5.21l0,.3.3,0a6.32,6.32,0,0,0,1.09.09,4.59,4.59,0,0,0,3.41-1.26A4.35,4.35,0,0,0,68.43,53a4.94,4.94,0,0,0,3.16-2L71,50.61C70,52,68.47,52.24,67,52.49Zm0,3.85a4.27,4.27,0,0,1-3.52,1,6.9,6.9,0,0,1,0-1.22,2.15,2.15,0,0,0,3.19-2.77l.42-.08.56-.09A3.62,3.62,0,0,1,67,56.34ZM35.51,50.61l-.64.44A4.9,4.9,0,0,0,38,53a4.38,4.38,0,0,0,.86,3.86,4.61,4.61,0,0,0,3.41,1.26A6.32,6.32,0,0,0,43.39,58l.3,0,0-.3c.39-4.44-2-4.83-4.25-5.21C38,52.24,36.44,52,35.51,50.61Zm3.28,2.55.55.09.43.08A2.15,2.15,0,0,0,43,56.1a6.9,6.9,0,0,1,0,1.22,4.29,4.29,0,0,1-3.52-1A3.62,3.62,0,0,1,38.79,53.16ZM54.63,64.44a1.33,1.33,0,1,1-1.33-1.33A1.33,1.33,0,0,1,54.63,64.44Zm-.28,4.41a1,1,0,1,1-1-1A1,1,0,0,1,54.35,68.85ZM54,72.38a.62.62,0,0,1-1.23,0,.62.62,0,0,1,1.23,0ZM51.39,59.43a.27.27,0,1,1-.27-.27A.27.27,0,0,1,51.39,59.43Zm-.75-1.63a.47.47,0,0,1,0-.94.47.47,0,1,1,0,.94Zm-.29-2.42a.63.63,0,0,1-.63.62.63.63,0,1,1,0-1.25A.63.63,0,0,1,50.35,55.38Zm-1.06-1.82a.75.75,0,1,1-.75-.75A.75.75,0,0,1,49.29,53.56Zm-2-.9a.85.85,0,0,1-.84-.84.84.84,0,0,1,.84-.83.83.83,0,0,1,.83.83A.84.84,0,0,1,47.26,52.66ZM45.94,51a.89.89,0,1,1,.89-.89A.89.89,0,0,1,45.94,51Zm-1.27-1.72a.92.92,0,1,1,.92-.92A.92.92,0,0,1,44.67,49.28Zm-1.15-1.83a.92.92,0,1,1,.92-.92A.92.92,0,0,1,43.52,47.45Zm-.93-2a.9.9,0,1,1,.9-.9A.9.9,0,0,1,42.59,45.48ZM42,43.35a.85.85,0,1,1,.85-.85A.85.85,0,0,1,42,43.35Zm-.9-3a.78.78,0,1,1,.78.77A.77.77,0,0,1,41.11,40.35Zm.49-2.13a.66.66,0,1,1,.66.66A.66.66,0,0,1,41.6,38.22Zm.95-2a.51.51,0,0,1,.51-.51.5.5,0,0,1,.5.51.5.5,0,0,1-.5.5A.5.5,0,0,1,42.55,36.22Zm1.29-1.86a.32.32,0,1,1,.63,0,.32.32,0,0,1-.63,0Zm11.9,25.07a.27.27,0,1,1-.27-.27A.27.27,0,0,1,55.74,59.43Zm.68-2.1a.47.47,0,1,1-.47-.47A.47.47,0,0,1,56.42,57.33Zm1.09-1.95a.63.63,0,0,1-.63.62.63.63,0,1,1,0-1.25A.63.63,0,0,1,57.51,55.38Zm1.29-1.82a.75.75,0,1,1-.75-.75A.76.76,0,0,1,58.8,53.56Zm1.37-1.74a.84.84,0,0,1-.83.84.85.85,0,0,1-.84-.84.84.84,0,0,1,.84-.83A.83.83,0,0,1,60.17,51.82Zm1.37-1.71a.89.89,0,1,1-.89-.89A.89.89,0,0,1,61.54,50.11Zm1.3-1.75a.92.92,0,1,1-.92-.92A.92.92,0,0,1,62.84,48.36ZM64,46.53a.93.93,0,1,1-.93-.92A.93.93,0,0,1,64,46.53Zm.9-2a.9.9,0,1,1-.89-.9A.89.89,0,0,1,64.9,44.58Zm.54-2.08a.85.85,0,1,1-.85-.85A.85.85,0,0,1,65.44,42.5Zm0-2.15a.77.77,0,1,1-.77-.77A.77.77,0,0,1,65.48,40.35Zm-1.15-2.78a.66.66,0,1,1-.65.65A.65.65,0,0,1,64.33,37.57ZM63,36.22a.51.51,0,0,1,1,0,.51.51,0,0,1-1,0Zm-.91-1.86a.32.32,0,1,1,.63,0,.32.32,0,0,1-.63,0ZM48.09,81c-.38-.3-.79-.56-1.36-1a2.18,2.18,0,0,1-.95-1.44,1.45,1.45,0,0,1,.45-1.37,1.33,1.33,0,0,1,1.45-.06,2.25,2.25,0,0,1,1.14,1.51,10.2,10.2,0,0,1,.24,1.85,7.79,7.79,0,0,1,0,.85,2.59,2.59,0,0,1,0,.47L49,82a.61.61,0,0,0-.05.12s-.06.07-.08.11l-.11.09a.5.5,0,0,0,0-.44,1.17,1.17,0,0,0-.19-.35A2.8,2.8,0,0,0,48.09,81Zm9.26.86a2.59,2.59,0,0,1-.05-.47c0-.31,0-.58,0-.85a10.2,10.2,0,0,1,.24-1.85,2.25,2.25,0,0,1,1.14-1.51,1.34,1.34,0,0,1,1.46.06,1.42,1.42,0,0,1,.44,1.37,2.18,2.18,0,0,1-1,1.44c-.56.39-1,.65-1.35,1a2.52,2.52,0,0,0-.51.52,1.17,1.17,0,0,0-.19.35.47.47,0,0,0,0,.44l-.11-.09a.76.76,0,0,1-.08-.11.61.61,0,0,1,0-.12Z"/><path d="M57.91,40.26a4.62,4.62,0,1,0-5,4.6v2.38h-2.4V48h2.4v6h.77V48h2.41v-.77H53.68V44.86A4.62,4.62,0,0,0,57.91,40.26ZM53.3,44.11a3.85,3.85,0,1,1,3.84-3.85A3.86,3.86,0,0,1,53.3,44.11Z"/></g></g></svg>