<svg xmlns="http://www.w3.org/2000/svg" viewBox="0 0 42.1 55.7"><title>Asset 499</title><g id="Layer_2" data-name="Layer 2"><g id="Layer_1-2" data-name="Layer 1"><path d="M41.8,49.89c-.82-.52-1.62-1-2.46-1.53-2.58-1.5-4.35-3.81-6.17-6.08A17.8,17.8,0,0,1,30,35.51a42.05,42.05,0,0,1-1.24-8.73,17.53,17.53,0,0,1,.76-6.08,26,26,0,0,1,4.63-9A52,52,0,0,1,39.47,6,14.69,14.69,0,0,0,40.9,4.51a1,1,0,0,0-.34-1.63,5.64,5.64,0,0,0-1.09-.39L33.9.83,33,.61A31.42,31.42,0,0,0,22.81.23a16.72,16.72,0,0,0-4.39,1,25.78,25.78,0,0,0-9.5,6.54A31.72,31.72,0,0,0,1.78,19C.52,22.45-.39,25.87.17,29.64a46.77,46.77,0,0,0,1.26,6.12A12.08,12.08,0,0,0,3.09,39.7c.85,1.15,1.66,2.33,2.45,3.52a29.1,29.1,0,0,0,4.53,5.43C11,49.51,12,50.34,13,51.12a22,22,0,0,0,2.25,1.44,23.14,23.14,0,0,0,7,2.5,20.15,20.15,0,0,0,8.74.27,22.28,22.28,0,0,0,2.8-.77,26.25,26.25,0,0,0,6.94-3.22c.46-.34.89-.72,1.39-1.12A3.24,3.24,0,0,0,41.8,49.89ZM35.71,2.53c0,.05.14.12.13.14a3.58,3.58,0,0,1-.25.42L35.36,3ZM22.27,1.6l.29.16-.33.51L22,2.18ZM20.45,2l.24.16-.35.43a1.34,1.34,0,0,1-.14-.11C20.28,2.29,20.36,2.14,20.45,2ZM14.52,4.76c.53-.29.94-.78,1.45-1.11A6.25,6.25,0,0,1,17.32,3c.69-.26,1.39-.46,2.14-.7l.6,1.06c.79-.06.76-1,1.38-1.25l.58.73,1.35-1.08c.2.37.34.67.52,1,0,0,.21-.05.33-.07-.14-.38-.29-.76-.47-1.24,3.8-.61,7.37.16,11,.87-.6,1.13-1.16,1.29-2.22.77a3.7,3.7,0,0,0-1.16-.26,10.34,10.34,0,0,0-1.13,0c-.55-.68-.55-.68-1.58.11a4.72,4.72,0,0,0-.33-.53,4.6,4.6,0,0,0-.44-.42l-1,.83c-.11-.21-.22-.4-.47-.84l-.8,1.33-.49-1.7a1.41,1.41,0,0,0-.86,1.09l.65-.4c.14.45.26.86.43,1.44l1-.86.63.83.84-1.41.72,1.25,1.09-.91.65,1L31,3c.27.27.44.6,1,.43s1,.27,1.56.39a1.61,1.61,0,0,0,.59-.11c.2-.05.44-.22.59-.16.73.31,1.19,0,1.59-.71l.7,1.4c.5-.28.95-.74,1.41-.74a6.47,6.47,0,0,1,1.87.62L36.77,7c-.2-.42-.38-.82-.6-1.3l-.78.61c-.08-.39-.16-.74-.26-1.28l-1,1c-.11-.37-.19-.67-.34-1.17-.39.54-.67.93-1,1.4-.13-.43-.24-.78-.36-1.2a1.19,1.19,0,0,0-1,1l-.48.21-.58-.93-.74.94c-.17-.27-.34-.53-.57-.87l-.81,1.19-.56-1.59c-.4.47-.7.83-1.07,1.25l-.63-1.11L24.8,6.59c-.24-.58-.45-1.07-.73-1.72l-.84,1.25-.58-1.21L21.51,6.23c-.18-.55-.31-1-.52-1.65L19.89,6.9c-.29-.59-.49-1-.75-1.48l-.75.8-.53-1.15-1,1.32c-.19-.46-.36-.87-.58-1.44l-.7,1.33c-.24-.41-.46-.81-.74-1.31l-.67.81C14,5.3,14.06,5,14.52,4.76ZM4.69,16.34c.16.3.32.58.52.94l.87-.53.38.88,1-.95.38.63a1.87,1.87,0,0,0,.9-1.1c.15.08.35.13.41.26a5.4,5.4,0,0,1,.25,1l1.51-1.26a6.24,6.24,0,0,0,.2.7,5.31,5.31,0,0,0,.32.53l.92-1,.32,1.08.27.16c.18-.37.36-.74.58-1.21l-.58.36-.41-.93-1,.84-.57-1-1.36,1c-.13-.45-.23-.79-.38-1.33-.26.37-.39.58-.53.78l-.63.31c-.11-.21-.25-.45-.42-.76l-.92,1.13-.46-.94-.85.8-.88-1.3c.13-.35.14-1,1-1,.12,0,.24-.27.37-.41l1-1c.2.58.34,1,.5,1.46a1.37,1.37,0,0,0,.85-1c.18,0,.44-.07.42.32a10.31,10.31,0,0,0,.12,1.38c.77-.36,1.19-1.23,1.32-1.23h.41c.11,0,.23.5.42,1.14.44-.74.74-1.37,1-1.88-.27.23-.55.4-.84.64-.17-.35-.3-.68-.53-1.16-.23.35-.37.56-.51.79l-1,.91c-.07-.62-.13-1.12-.19-1.61l-.28,0-.34.7-.58.29-.46-1.27-.93.39-.12-.14c1-1,1.93-2.09,3-3.22.13.59.24,1.08.39,1.71l1-.88.38,1.07c.59-.1.75-.51.88-.94l.36-.11.42,1.15.26,0c.12-.28.24-.56.35-.84s.46-.38.75-.64c.16.61.29,1.08.41,1.56l.26,0L15,10.6l.55-.44c.14.48.25.88.42,1.49.35-.59.57-1,.79-1.3l-.66.17c-.14-.26-.29-.54-.55-1L15,10.57l-.47.18c-.2-.44-.38-.83-.56-1.24a1.21,1.21,0,0,0-.85,1.07l-.46.17-.28-1.41-.2-.05-.46,1.06-.63.42C11,10.2,11,9.68,10.84,9l-1,1.4a5.4,5.4,0,0,1-.24-1.1,1.16,1.16,0,0,1,.23-.8c1.11-1,2.26-1.88,3.4-2.8a2,2,0,0,1,.52-.2c0,.63.08,1.19.12,1.8.82-.18.43-1.17,1.11-1.42l.42,1.4.8-1.1.65,1.05.89-1.36c.18.35.35.67.56,1.1L19,6.31l1,1.08.92-1.66c.2.39.36.72.6,1.23l1-1.32.69,1.21.8-.91.88,1.36,1-1.36c.17.42.31.75.53,1.26l1-1.25c.2.48.38.91.63,1.54l.88-1.07c.12.23.25.45.43.78l.87-1,.61,1.22c.25-.56.42-.93.58-1.3l.74-.56c.13.56.25,1,.36,1.52h.25l.77-1.21.37,1.41.95-1.39c.13.47.22.84.35,1.33l.76-.54a.82.82,0,0,1,.17,1.19c-.37.45-.79.86-1.19,1.28l-1.58,1.72L32.05,9.56l-.69.45-.44-.61c-.31.37-.58.68-.92,1.1l-.47-1-.71.39c-.07-.21-.15-.46-.27-.8l-.6.4-.4-.91c-.2.27-.31.43-.42.59h0l-.58.24-.35-.87-1.29,1.56-.58-1.2L23.72,10l-.4-1.38-.89,1.11-.59-.52-1.29,1.37c-.21-.46-.36-.81-.6-1.35-.3.44-.51.76-.73,1.07l-.6.32c-.07-.4-.12-.72-.18-1.05l-.21-.07-.41.79L17,9.67c0,.24-.08.41-.11.58l.57,1.07c.17-.42.27-.69.38-1,.2,0,.41-.11.45.25a3.72,3.72,0,0,0,.22.79l.25,0,.47-1.07.59-.32.69,1.43,1.17-1.61.56.94.84-1.3c.11.5.2.88.33,1.42l.84-.91.51,1.1L26,9.22c.13.52.22.83.3,1.14l.22.07.6-1.22.55,1.28.52-.25c.1.25.21.51.35.87l.67-.75c.06,0,.16.05.17.09.09.32.17.64.3,1.14l1-1.46c.13.38.21.63.33,1l.87-1c.34.54.64,1,1,1.51A3.79,3.79,0,0,1,30,13.73l-.41-.84-1,.64c0-.2-.07-.45-.13-.79l-1.29,1c-.06-.29-.12-.57-.21-.95l-.93.61c0-.33-.09-.62-.16-1.11l-1.24,1c-.07-.3-.14-.57-.26-1l-1.35,1.48c-.08-.46-.14-.84-.23-1.39l-1.48,1.15c-.11-.34-.21-.65-.37-1.11l-1.13,1c-.72-.78-.95-.7-2.15.87l-.41-1.24a1.48,1.48,0,0,0-1.11,1.11l-.51-1.19-1,.74c-.08-.37-.14-.65-.22-1l-1.38,1.13c-.06-.36-.09-.58-.14-.8-.15-.58-.45-.54-.82-.19.94.19.29,1.19.9,1.68l1-.94.54,1.06.83-1c.13.4.24.71.4,1.2.19-.3.3-.46.41-.62l.83-.6.61,1.37,1.45-1.74c.2.45.34.74.52,1.14l1.07-1.35c.15.48.28.88.45,1.41l1.27-1.47c.17.54.29,1,.43,1.44.83-.13.77-1.1,1.39-1.45.06.41.12.79.21,1.38L25.56,13l.27,1.45.74-.6c.14.28.29.56.47.93l1-1.22c.16.35.27.61.42,1l.89-1c.19.38.35.69.53,1.06l1-.81L31,14c-.45.87-.87,1.77-1.37,2.61-.13.23-.5.32-.8.49-.14-.33-.25-.6-.38-.94l-.71.21c-.09-.18-.18-.37-.32-.63l-.95.64-.34-.82-1.07.8c0-.38-.07-.69-.11-1-.6-.28-.79.25-1.13.45l.69-.06c.06.46.11.87.19,1.48l1.13-1c.08.38.15.71.25,1.21l1-1.12c.11.35.2.64.3,1l.82-.66c0,.4.06.7.09,1.07l1-.27c-.25.91-.47,1.74-.72,2.64-.25-.08-.47-.23-.63-.18s-.2.31-.37.61c-.32-.73-.82-.44-1.09-.56-.8-.37-.45.62-.9.56l-.42-.93-.73.8-.43-1-.73,1.3-.57-1.2-.79,1.1-.46-1.25c-.24.26-.42.42-.56.61s-.27.45-.44.75c-.17-.41-.29-.73-.42-1l-.26-.19-.63,1.14c-.12-.62-.19-1-.3-1.59-.38.53-.65.92-.92,1.31-.13-.34-.26-.67-.45-1.19l-.95,1.66c-.11-.63-.18-1-.3-1.75l-.83,1.53L15.05,19l-1,1.53c-.16-.57-.28-1-.46-1.6-.33.58-.56,1-.89,1.53l-.43-1.49-.67.74c-.13-.2-.29-.42-.51-.73l-.67,1.19L9.94,19l-.79.89L8.68,18.5l-.83,1.29-.6-1.2-.83,1.33-.75-1c-.21.57-.36,1-.58,1.61-.27-.66-.46-1.15-.77-1.9-.35.74-.59,1.24-.82,1.74C2.68,18.47,2.9,17.71,4.69,16.34ZM2.64,19.91c.11.59.21,1.18.33,1.83.95-.22.79-1.13,1.25-1.67.2.43.4.83.59,1.23.68,0,.56-.72,1-1l.57.77L7.1,20l.55.89.84-1.27c.2.53.36,1,.59,1.62l.68-1.09.63,1.29c.24-.45.4-.73.57-1l.55.5.56-.66.61,1.21.69-1.15L14,21.54l.75-1.23.6,1.46.65-.85c.19.37.35.69.61,1.18.26-.62.45-1.06.68-1.63.19.39.33.7.57,1.22.27-.54.48-.94.73-1.46.15.58.27,1,.45,1.75.35-.56.56-.89.77-1.24L20.43,22c.31-.69.54-1.18.79-1.75l.65,1.6.7-1.36L23,22.06c.72-.11.46-.77.8-1.13.17.29.31.53.51.89l.58-1,.51,1.38.68-.9c.5.45.47-.3.8-.34l.6.65.34-.86.31.19a19.9,19.9,0,0,1-.49,3.87l-1.44-.14-.44-.6-.86.52-.41-1c-.44.55-.78,1-1.16,1.46-.29-.37-.54-.69-.87-1.13l-.47.56-.66.25c-.19-.43.06-1-.55-1.26-.18.34-.34.64-.6,1.11-.31-.88-.8-.44-1.21-.27-.17-.27-.29-.48-.44-.71l-.87.76-.23-.8c-.52.76-.82,1.2-1.15,1.7-.2-.47-.36-.87-.55-1.33l-.77.57c-.15-.35-.27-.62-.46-1.08l-.84,1.14-.48-.73L12.28,25l-.57-1-.86,1.09c-.21-.46-.36-.79-.55-1.19l-.81.56c-.12-.4-.21-.72-.37-1.32l-.41.94h0l-.53.57c-.14-.45-.24-.81-.38-1.28L7,24.21l-.68-.89-.78,1.23c-.14-.44-.26-.8-.45-1.38l-.54,1.38L4.06,23.5l-.75,1.24c-.19-.57-.34-1-.5-1.49l-.24,0-.15.59h0l-1,1.48A18.13,18.13,0,0,1,2.64,19.91ZM1.35,29.28a12.24,12.24,0,0,1-.21-2.73.55.55,0,0,1,.16-.41c.81-.54.91-1.42,1.15-2.24.68.44.25,1.31.74,2,.28-.4.51-.72.74-1.06.15.36.3.68.48,1.1l.6-.67.59.49.7-1.5.57,1.26.71-1.06c.19.55.34,1,.52,1.47a2.1,2.1,0,0,0,.64-1.72l.68,1.55.68-1.05L10.8,26l.81-1.29L12.28,26c.3-.54.53-.93.77-1.36.17.42.31.75.52,1.25.22-.41.35-.63.47-.86s.22-.47.44-.94a6.83,6.83,0,0,0,.15,1,3.66,3.66,0,0,0,.29.63l.65-.94.69,1.56.91-1.71.43,1.05.77-1.17c.13.44.23.78.39,1.3.33-.48.54-.79.81-1.17l.53,1.5.61-1.39L21.28,26,22,24.6a.54.54,0,0,1,.7.37c.14.34.34.65.64,1.23.37-.71.61-1.17.92-1.74l.51,1.27.87-1.05c.19.49.34.91.55,1.44l.72-.79a3.53,3.53,0,0,1,.63,1.07,5.09,5.09,0,0,1-.7,3.61l-1.09-.68-.13.15c-.15-.3-.29-.61-.48-1l-.86.69-.37-.94-.71,1-.5-.91-.68,1L21.5,28l-1,1.13c-.1-.45-.19-.83-.33-1.41l-1,1.41L18.5,28l-.81,1c-.11-.35-.19-.63-.32-1.08l-.94,1.3c-.12-.27-.19-.45-.28-.63s-.17-.33-.32-.61l-.72,1.22-.58-.95-.82,1.32c-.12-.51-.21-.95-.36-1.63l-1,1.34L12,27.81c-.79.13-.61,1-1.22,1.27-.13-.44-.27-.89-.41-1.35-.73.1-.66.79-1,1.1L8.81,28l-.88,1.4c-.17-.48-.32-.86-.53-1.44L6.55,29.4c-.18-.6-.31-1-.51-1.69-.3.5-.48.81-.68,1.13l-.59-1.15c-.24.71-.4,1.2-.59,1.75l-.65-1.56c-.21.61-.35,1-.51,1.46-.21-.59-.38-1.07-.55-1.58C1.63,28,1.9,28.83,1.35,29.28Zm.91,4.89c0-.27.22-.6.44-1.12l.58,1.73L4,33.49l.58,1a3.34,3.34,0,0,0,.7-2l-.6,1-.59-1.27c-.24.45-.42.77-.65,1.19-.21-.41-.38-.73-.6-1.17l-.75,1a4.13,4.13,0,0,1,.28-4.47c.17.74.31,1.36.46,2,.75-.3.45-.95.66-1.54.21.45.37.8.64,1.36.24-.56.4-.92.59-1.35l.54.9.66-1,.53,1.25.76-1.2.74,1.17.72-1.39c.19.3.37.61.67,1.11l.78-1.88L10.58,30l.27,0,.79-1.57c.25.63.11,1.33.79,1.75.2-.42.38-.78.59-1.23l.44,1.5.25,0,.71-1.42.6,1.17c.26-.49.43-.82.64-1.19l.75,1,.68-1.1c.19.36.34.65.55,1.07l.78-1.3.78,1.35c.24-.5.4-.83.61-1.24.24.47.46.87.76,1.45l.76-1.53c.19.56.34,1,.56,1.61l.67-1,.52,1.17.66-1.13.42.94L25,29c.23.57.41,1,.64,1.59l.5-.45.66.82.76-1.2c.8,1.68,0,3-.84,4.5-.19-.72-.33-1.25-.51-2-.4.39-.67.67-1,1l-.37-.86-.63.89-.51-.66c-.25.34-.47.63-.77,1l-.65-1.16-.74.37-.67-1L20,33.29l-.82-1.44-.88,1.33c-.17-.42-.32-.77-.52-1.24l-.72,1-.64-1.24-.94,1.31-.68-1.39-1.08,1.51c-.18-.3-.34-.59-.51-.89-.76.09-.64.93-1.12,1.25l-.45-1.22-.91,1.23-.57-1.15-1,1.91-.73-2.17-1,1.39-.34-1.83-.8,1-.52-1.22-.51.68c.37-.06.59.07.61.48s.08.83.14,1.52c.37-.46.55-.7.8-1,.17.49.33.93.58,1.67l.88-1.87L9.07,35h.31l.67-1.61.7,1.22.7-1.36.61,1.5L13,32.82l.63,1.63,1-2.18.77,1.89c.35-.61.6-1,.89-1.53.23.51.42.95.73,1.66.22-.4.36-.67.52-1l.77,1c.28-.64.51-1.15.79-1.77l.86,2c.34-.62.56-1,.84-1.56l.55,1.15c.25-.35.45-.64.74-1,.25.56.48,1,.8,1.73l.65-1.08.5,1c.22-.42.38-.71.56-1.07.2.34.37.61.61,1,.25-.54.43-.94.65-1.4l.8,1.83c.64-.63.6-1.64,1.62-1.82A25.27,25.27,0,0,1,29,36c.09.72-.49,1.25-.94,1.92l-.7-1.38-.84.78-.44-.63c-.49,0-.53.37-.56.72h0l-.68.87c-.17-.39-.3-.73-.49-1.18l-.77.92-.49-1c-.31.44-.56.78-.84,1.16l-.63-1.34-1,1.1L20,36.75l-.91,1.17L18.42,37c-.08.32-.12.46-.15.6h0l-.71.83-.7-1.34-.64,1.2L15.62,37l-1,1.59L14,37.3c-.17.35-.26.57-.36.77l-.49.3c-.12-.38-.24-.73-.42-1.28l-.87,1.31L11.34,37c-.2.24-.35.4-.47.58s-.21.32-.36.55l-.63-1.32c-.32.55-.57,1-.92,1.55l-.44-1.69c-.79.27-.68,1.06-1.11,1.5-.14-.47-.28-.92-.41-1.37l-.25,0c-.21.42-.43.83-.73,1.41-.19-.58-.34-1-.54-1.58L4.7,37.9l-.52-1.53c-.28.43-.45.71-.69,1.07A8.29,8.29,0,0,1,2.26,34.17ZM4.82,40.3c-.25-.38-.44-.82-.72-1.18a1.14,1.14,0,0,1,.07-1.6L4.42,39c.76-.13.41-1,1-1.29.16.46.33.94.49,1.42l.26,0,.65-1.65c.18.69.31,1.23.45,1.77l.21,0,.73-1.92.2,0c.11.6.23,1.19.39,2.05L9.82,37.6c.16.65.29,1.15.41,1.65l.23.06c.21-.5.43-1,.73-1.7.19.73.33,1.27.55,2.09l.8-1.68c.17.56.31,1,.47,1.5a1.56,1.56,0,0,0,.63-1.41c.19,0,.41,0,.46.34a11,11,0,0,0,.3,1.23h.23a19.75,19.75,0,0,0,.92-2c.17.65.28,1,.45,1.71.35-.57.57-1,.81-1.37l.72,1.38.29,0c.15-.59.31-1.18.46-1.77L19,39.1c.51-.43.28-1.2.9-1.48l.73,1.48c.28-.62.48-1.07.75-1.64.23.69.42,1.25.61,1.8h.24l.7-1.48c.2.48.35.81.54,1.25l.67-.9c.24.39.44.73.78,1.27.24-.85.4-1.43.56-2l.43-.18c.12.41.23.82.42,1.46.29-.59.49-1,.75-1.55l.77,1.78,1.39-2.09c.22.52.35.82.47,1.12a16.39,16.39,0,0,0,1,2.35,2,2,0,0,1-.18,2.38L30.08,42l-.7.62L28.9,41.5l-.76,1.06c-.13-.34-.24-.66-.42-1.13l-.8,1.25c-.18-.59-.33-1.08-.55-1.77l-1,1.31-.5-1c-.61,0-.64.7-1.12,1l-.5-1.1c-.67,0-.57.78-1,1.08L21.67,41a1.09,1.09,0,0,0-.84.85l-.66.62-.63-1.79c-.41.65-.7,1.1-1.08,1.68-.15-.62-.27-1.07-.45-1.81l-1.18,1.81c-.23-.48-.42-.86-.65-1.35l-.94,1.09-.52-1.39-1.16,1.8c-.23-.62-.41-1.1-.65-1.78-.44.63-.75,1.07-1.11,1.6-.18-.57-.32-1-.52-1.65-.41.69-.69,1.18-1,1.75-.17-.53-.28-.91-.4-1.29l-.25,0c-.07.23-.13.46-.2.69h0c-.24.35-.47.71-.73,1.12-.49-.34-.39-.93-.57-1.39-.32-.81-.64-.87-1.21-.21-.22.25-.43.52-.75.92C5.67,41.56,5.23,40.94,4.82,40.3ZM10,46.72a25.1,25.1,0,0,1-3.56-4.07l1-1.35c.41.88.75,1.62,1.16,2.52a3.69,3.69,0,0,0,.81-2c.27.45.54.9.88,1.45l.76-1.52c.26.52.45.91.72,1.44l.95-1.77c.26.66.48,1.2.78,1.94.43-.72.73-1.22,1.06-1.79.32.47.19,1.05.75,1.25.26-.39.49-.75.71-1.1l.78,1.58.91-1.79.73,1.69.86-1.68.94,1.91.59-1.66.56-.32.79,1.86c.3-.72.5-1.18.78-1.82.16.41.24.65.34.87s.25.44.45.78l.86-1.59c.23.59.41,1,.65,1.66l.85-1.4c.24.61.45,1.18.74,2l.62-1.13.56,1,.68-1.11c.2.39.37.72.74,1.41.17-.39.27-.63.38-.91l.79.74c.28-.73.52-1.35.85-2.19.62.88,1.13,1.59,1.62,2.31.24.35.44.73.68,1.08.77,1.1.78,1.12-.2,2.37-.16-.38-.3-.71-.47-1.14-.23,0-.52.22-.68.13s-.29-.41-.44-.65l-1,.75-.36-1-1.06,1.24L29,45.39l-1,1.16c-.19-.41-.34-.74-.55-1.22l-1,.91L26,45.08c-.78.27-.77,1.14-1.32,1.66-.18-.42-.33-.78-.56-1.34l-1,1.49-.5-1.46-.91,1c-.2-.36-.38-.7-.68-1.26l-.88,1.55-.53-1.14-1.07,1c-.22-.5-.42-1-.62-1.45-.45,0-.6.27-.6.63h0l-.57.63-.64-1.19-1.08,1.56c-.26-.56-.46-1-.72-1.6L13.27,46.7c-.16-.51-.29-.91-.48-1.5l-.35.82h0c-.21.33-.43.67-.75,1.15L11,45Zm.35.33c.11-.29.24-.59.45-1.11.3.74.51,1.28.77,1.94a3.38,3.38,0,0,0,.87-1.82l.8,1.64c.34-.67.62-1.22.93-1.81.49.53.24,1.37.92,1.73L16,46c.26.55.44,1,.76,1.62.24-.76.41-1.29.58-1.81.31,0,.55,0,.64.4s.24.87.43,1.53c.35-.58.58-1,.91-1.48l.8,1.67L21,46.12c.24.48.45.9.72,1.46.28-.5.48-.85.72-1.3L23,48l1-1.84.69,1.66,1.09-2.17.6,1.79.89-1.42c.26.52.48,1,.78,1.61.33-.6.56-1,.83-1.54l.73,1.75.83-1.65c.18.53.31.9.49,1.44l.84-1.35.59,1.17.54-.45c.18.42.35.79.54,1.21.9-.32.8-1.29,1.47-1.79.41.4.83.84,1.28,1.22s1,.76,1.5,1.16l-.53,1.08-.1-.14c-.45.26-.91.39-1.39.67-.08-.14-.21.07-.32-.72H33.87c-.11,0-.34.7-.61,1.15-.2-.4-.37-.7-.6-1.16-.33.31-.59.59-.9.88l-.48-1L30.34,51c-.17-.46-.32-.85-.54-1.46l-1.14,1.68-.51-1.12c-.75.13-.6,1-1.13,1.37-.17-.45-.32-.86-.53-1.45l-.81,1.11c-.18-.37-.34-.72-.57-1.19-.31.4-.51.66-.78,1l-.66-1-1,1.2c-.16-.41-.32-.8-.55-1.35l-.9,1.08c-.21-.45-.41-.89-.7-1.49L19.32,50.9l-.53-1.33L17.59,51c-.21-.38-.41-.73-.68-1.19l-1.52,1.51A21.78,21.78,0,0,1,10.37,47.05Zm27.88,4.7a27.76,27.76,0,0,1-3.78,1.71,23.55,23.55,0,0,1-8.73.84,41.71,41.71,0,0,1-8-1.86A13.17,13.17,0,0,1,16,51.66l.81-1.12c.29.49.51.87.81,1.36l1.06-1.68L19.19,52l1.24-2.18c.26.9.44,1.5.69,2.36.32-.63.54-1,.78-1.52.23.59.41,1.09.66,1.75.36-.72.63-1.29,1-2,.24.71.41,1.21.66,2,.29-.61.49-1,.76-1.57.21.56.38,1,.62,1.7.29-.62.49-1,.71-1.53.22.54.41,1,.7,1.73l.9-2,.71,1.61.24,0,.72-1.94.73,1.86.21,0c.16-.5.31-1,.54-1.69.23.55.39.94.63,1.54l.81-1.6c.24.66.43,1.17.73,2L34,50.58l.32,1L35,50.44l.78,1.38c.23-.52.4-.88.61-1.35l.61.68.91-1.91.74,1.2a1.28,1.28,0,0,1,2,0C39.87,50.92,39.07,51.36,38.25,51.75ZM13.55,16.44l0,0,0-.05Zm.68,1.12c-.19-.3-.35-.57-.68-1.12l.4-.25.51.6c.81-.9.81-.9,1.57-.41l.94-.61c.09.38.17.69.27,1.09l1.14-.77.45.64,1.35-1.07c.13.43.2.7.29,1l1.2-.89.33.86.7-.46c.14-.92.81-.18,1.19-.36-.12.34-.24.68-.37,1.08l-.82-.7c-.22.41-.45.81-.77,1.4l-.68-1.3-.85,1.27-.62-1.12-1.05,1L18,16.49l-.83,1.29-.52-1.32-.85.74-.46-.85Z"/></g></g></svg>