<svg xmlns="http://www.w3.org/2000/svg" viewBox="0 0 14.66 41.75"><title>Asset 482</title><g id="Layer_2" data-name="Layer 2"><g id="Layer_1-2" data-name="Layer 1"><path d="M13.76,9.42a2.71,2.71,0,0,0-2.09.16,1.76,1.76,0,0,0-.52.66c-.3.59-.58,1.19-.88,1.79a10.8,10.8,0,0,0-.56,1.66,17.09,17.09,0,0,0-.57,2.24c-.07.39-.14.78-.22,1.17,0,.15-.08.3-.3.27a2.85,2.85,0,0,1,0-.4c0-.7,0-1.4.07-2.1A7.08,7.08,0,0,1,9,13a10.87,10.87,0,0,0,.65-3,5.22,5.22,0,0,0-.21-1.57A.65.65,0,0,0,9.06,8a1.6,1.6,0,0,0-.74-.12c0-.07-.05-.11,0-.14.17-.54.33-1.08.47-1.63a6.91,6.91,0,0,0,.18-1.86c0-.45-.13-.6-.57-.72a3,3,0,0,0-.5-.12c-.18,0-.36,0-.55-.06a.8.8,0,0,1,0-.25c0-.45.08-.9.1-1.36a5.92,5.92,0,0,0,0-.84A.89.89,0,0,0,6.65.17,2.77,2.77,0,0,0,5.54,0a1.37,1.37,0,0,0-.36.11,9.28,9.28,0,0,0-.4,1.74,5.57,5.57,0,0,1-.22,1c-.16.5-.37,1-.56,1.48a2.86,2.86,0,0,1-.16.27c0-.64,0-1.18.05-1.72A5.18,5.18,0,0,0,3.63,1.1,1.17,1.17,0,0,0,2.77.27,2,2,0,0,0,1.42.41c-.08.32-.14.62-.22.91s-.3,2-.35,2.44C.73,4.83.57,5.9.46,7S.29,8.86.22,9.81a10.3,10.3,0,0,0-.06,1.24c0,.65.08,1.29.14,1.93.08.93.17,1.85.27,2.78A22.64,22.64,0,0,0,.9,18.35c.27,1.18.54,2.37.8,3.55.18.81.36,1.63.53,2.44.09.41.18.82.25,1.23.12.63.19,1.28.3,1.91a3.72,3.72,0,0,1,0,1c-.07.62-.08,1.24-.16,1.86A20.54,20.54,0,0,1,2.29,33c-.07.25-.08.52-.13.78s-.11.72-.2,1.06c-.33,1.13-.52,2.3-.9,3.41a19.91,19.91,0,0,1-.65,2A6.69,6.69,0,0,0,0,41.68c.12,0,.22,0,.24-.09a6.8,6.8,0,0,0,.3-.67c.09-.23.14-.47.24-.69a21.64,21.64,0,0,0,.7-2.34c.26-.91.47-1.84.68-2.76.11-.46.18-.93.26-1.39.05-.25.08-.49.13-.73a18.64,18.64,0,0,0,.33-2c.12-1,0-2,.22-2.95a2.62,2.62,0,0,0,0-.28A12.16,12.16,0,0,0,2.86,26c-.07-.45-.23-.89-.31-1.34s-.15-.92-.27-1.37-.15-.79-.23-1.18c0-.24-.06-.48-.13-.71-.14-.4-.13-.84-.31-1.23a.11.11,0,0,1,0-.05c-.11-.63-.3-1.24-.4-1.87S1,17.2.93,16.66A16,16,0,0,0,.79,15C.7,14.4.65,13.83.6,13.27a6.08,6.08,0,0,1,0-.61c0-.28-.1-.57-.12-.85,0-.6,0-1.2,0-1.8A32.61,32.61,0,0,1,.79,6.33a3.35,3.35,0,0,1,.13-.77c.06-.16.34-2.19.34-2.5a1,1,0,0,1,.35-.86c.07-.05.1-.15.15-.23A4.75,4.75,0,0,0,2.26.84.35.35,0,0,1,2.74.58a1,1,0,0,1,.68.78,6.7,6.7,0,0,1,.15,2.71c-.06.43-.1.86-.17,1.29A8.47,8.47,0,0,0,3.39,8c.11.71.26,1.41.41,2.11s.32,1.36.45,2,.2,1.15.31,1.73c0,.07,0,.15.18.12a.85.85,0,0,0,0-.63l-.21-1-.48-2.33A26.34,26.34,0,0,1,3.6,7.16a3.85,3.85,0,0,1,.27-1.78c.19-.47.41-.93.59-1.4S4.81,2.79,5,2.2a1,1,0,0,1,.18-.28A4,4,0,0,0,6,.47a.66.66,0,0,1,.8.23.85.85,0,0,1,.25.56c0,.21,0,.42,0,.62C7.06,2.43,7,3,7,3.52a.54.54,0,0,1-.11.32A3.27,3.27,0,0,0,6.45,5c-.18.67-.33,1.36-.56,2a11.71,11.71,0,0,0-.55,3.47c0,.11,0,.23,0,.34,0,.32.09.64.1,1a1.59,1.59,0,0,0,.15.65c0,.06.1.09.19.17a.78.78,0,0,0,0-.33,10.47,10.47,0,0,1-.18-1.58,8.23,8.23,0,0,1,.41-3.3c.16-.52.32-1,.49-1.57a1,1,0,0,1,.36-.56A1,1,0,0,0,7.18,5a5.91,5.91,0,0,0,.35-.52c.11-.22.2-.45.3-.69l.56.11a.33.33,0,0,1,.25.28,3.26,3.26,0,0,1,0,.62c0,.4-.09.79-.15,1.19a6.14,6.14,0,0,1-.15.72c-.25.81-.53,1.62-.76,2.44a13.3,13.3,0,0,0-.32,1.67c-.11.9-.21,1.8-.28,2.71,0,.57,0,1.14,0,1.71a1.85,1.85,0,0,0,.12.44,1.24,1.24,0,0,0,.19-.35,2.26,2.26,0,0,0,0-.45,5.38,5.38,0,0,1,0-1.7,5.25,5.25,0,0,0,.06-.79,11.18,11.18,0,0,1,.22-1.92A2.39,2.39,0,0,1,8,9.57l.82-1.22c.28,0,.33.06.39.28a4.16,4.16,0,0,1,.18,1.12,9.63,9.63,0,0,1-.57,3.05,11.85,11.85,0,0,0-.51,2.56c-.06.62-.05,1.25-.06,1.87a2.18,2.18,0,0,0,.31,1.08A2,2,0,0,1,8.77,18a1.78,1.78,0,0,0,.48-1.13A8.72,8.72,0,0,1,9.41,16c.2-.79.43-1.57.63-2.36a16.88,16.88,0,0,1,1.21-3,2.21,2.21,0,0,1,.13.29A4.18,4.18,0,0,0,11.85,12a1.1,1.1,0,0,0,.69.55,1.53,1.53,0,0,0,1.3-.21,5.18,5.18,0,0,0,.43-.3A8.92,8.92,0,0,1,14,13.15c-.4,1.12-.81,2.24-1.15,3.38a8.61,8.61,0,0,0-.32,3.6c.06.45.09.9.12,1.36a10.07,10.07,0,0,1-.14,2.26A9.59,9.59,0,0,1,12,25.5c-.27.77-.59,1.52-.88,2.28-.16.4-.29.82-.43,1.23a5.62,5.62,0,0,0-.44,1.27.33.33,0,0,1-.05.16A9.79,9.79,0,0,0,9.73,32,22.68,22.68,0,0,0,9,35.21c-.13.78-.32,1.56-.43,2.34-.14,1-.23,2-.32,3.05a6.32,6.32,0,0,0,.06,1c0,.09,0,.19.17.17s.11-.13.12-.22a.4.4,0,0,0,0-.11,18.13,18.13,0,0,1,.28-4c.15-1,.31-1.91.51-2.85s.42-1.89.7-2.81c.33-1.09.73-2.15,1.08-3.23a20.4,20.4,0,0,1,.95-2.43A8.49,8.49,0,0,0,12.75,24a12.17,12.17,0,0,0,.11-2.89c0-.12-.13-1.38-.14-1.58a8.63,8.63,0,0,1,.41-3.19c.26-.79.54-1.57.81-2.36a18.61,18.61,0,0,0,.6-1.78,2.82,2.82,0,0,0-.25-2.25A1.25,1.25,0,0,0,13.76,9.42ZM1.58,1.57c0-.2-.12-.92.08-1a2.05,2.05,0,0,1,.4,0A1.61,1.61,0,0,1,1.58,1.57Zm3.58-.08A2.75,2.75,0,0,1,5.29.36c.06-.11.33-.06.48,0A2.18,2.18,0,0,1,5.16,1.49ZM6.94,4.72a4.37,4.37,0,0,1,.28-1s.28,0,.28.08S7,4.74,6.94,4.72ZM8.07,9.11a6,6,0,0,1,.12-.85c0-.06.37.1.36.12S8.11,9.06,8.07,9.11Zm6,2.55a1.34,1.34,0,0,1-1.28.56.67.67,0,0,1-.4-.18,2.56,2.56,0,0,1-.73-1.44,1.17,1.17,0,0,1,0-.45.43.43,0,0,1,.28-.34,3.29,3.29,0,0,1,1.21-.24,1,1,0,0,1,1,.67l0,0A1.09,1.09,0,0,1,14,11.66Z"/></g></g></svg>