<svg xmlns="http://www.w3.org/2000/svg" viewBox="0 0 61.16 74.56"><defs><style>.cls-1{fill:#1d1d1b;}</style></defs><title>Asset 433</title><g id="Layer_2" data-name="Layer 2"><g id="Layer_1-2" data-name="Layer 1"><path class="cls-1" d="M13,46.57a1.54,1.54,0,0,1,0-2.19l6.13-6a1,1,0,0,1,1.43,0l5.72,5a.92.92,0,0,0,1.29,0L32.94,38a.72.72,0,0,1,1,0l6.2,5.22a.83.83,0,0,0,1.14-.05L46.37,38a.54.54,0,0,1,.76,0l1,1a.72.72,0,0,1,0,1l-5.52,5.33-1.45,1.39a.83.83,0,0,1-1.14,0l-6-5.14a.73.73,0,0,0-1,0l-4.15,4h0L27.66,47a.93.93,0,0,1-1.3,0l-5.69-5a1,1,0,0,0-1.43,0l-4.63,4.5A1.14,1.14,0,0,1,13,46.57Zm35.4,1.2-1-1a.54.54,0,0,0-.76,0l-5.09,5.11a.83.83,0,0,1-1.15,0l-6.19-5.22a.75.75,0,0,0-1,0l-5.39,5.3a.94.94,0,0,1-1.3,0l-5.72-5a1,1,0,0,0-1.42,0l-6.14,6a1.55,1.55,0,0,0,.05,2.19,1.15,1.15,0,0,0,1.6,0l4.63-4.5a1,1,0,0,1,1.42,0l5.69,5a.94.94,0,0,0,1.31,0l1.27-1.28h0l4.14-4a.74.74,0,0,1,1,0l6,5.13a.82.82,0,0,0,1.14,0l1.45-1.4,5.52-5.33A.71.71,0,0,0,48.41,47.77Z"/><path class="cls-1" d="M30.58,74.56a27.64,27.64,0,1,1,19.54-8.09A27.45,27.45,0,0,1,30.58,74.56Zm0-53.37a25.73,25.73,0,1,0,18.2,7.54A25.58,25.58,0,0,0,30.58,21.19Z"/><path class="cls-1" d="M9.15,10.11,5.92,0H5.57L2.31,8.52C1.28,11.23,1,11.75,0,12v.16c.33,0,.64,0,1.2,0s1.24,0,1.6,0V12a.74.74,0,0,1-.69-.82,7.57,7.57,0,0,1,.66-2.29L3.11,8c.51,0,1,0,1.69,0S6,8,6.65,8l.54,1.7a6.92,6.92,0,0,1,.45,1.71c0,.34-.18.55-.71.62v.16l1.82,0c.56,0,1.26,0,1.61,0V12C9.78,11.88,9.59,11.49,9.15,10.11ZM4.8,7.41c-.62,0-1,0-1.46,0L5,2.88,6.46,7.39C5.85,7.41,5.28,7.41,4.8,7.41Zm13.69,6.82V6.65c0-1.36,0-1.72.52-2L19,4.51a4.83,4.83,0,0,1-1.08.11c-1.08,0-1.56-.33-2.64-.33a4,4,0,0,0-4.15,4.12,3.7,3.7,0,0,0,3.81,3.88,3.68,3.68,0,0,0,2-.59v2.53c0,1.31-.22,1.39-.71,1.49v.16c.36,0,.87,0,1.48,0s1.11,0,1.47,0v-.16C18.7,15.62,18.49,15.54,18.49,14.23Zm-1.54-3a2.57,2.57,0,0,1-1.68.59C14,11.83,12.9,11,12.9,8.36c0-2.18.77-3.67,2.54-3.67,1.34,0,1.51.87,1.51,2.54Zm11.4-.08.08.15a1.67,1.67,0,0,1-1.46,1c-.77,0-1.08-.51-1.19-1.16a2.89,2.89,0,0,1-2.48,1.16c-1.27,0-2.55-.54-2.55-2.74V6.39c0-1.11,0-1.36-.66-1.49V4.74a5.61,5.61,0,0,0,2.2-.45v5c0,1.84.46,2.48,1.62,2.48a2,2,0,0,0,1.84-1,4.87,4.87,0,0,1,0-.54V6.42c0-1.19,0-1.39-.61-1.52V4.74a5.37,5.37,0,0,0,2.15-.45v6.18c0,.61.1,1,.49,1A.8.8,0,0,0,28.35,11.16Zm7.28.35c-.33,0-.45-.22-.45-.94V7.13c0-2.11-1-2.84-2.62-2.84a2.82,2.82,0,0,0-3.13,2.45h1.41c0-1.41.62-2.07,1.56-2.07s1.24.53,1.24,1.79V8.82a3.41,3.41,0,0,0-1.73-.43c-1.56,0-2.79.85-2.79,2.1,0,1.08.92,1.83,2.25,1.83a3.55,3.55,0,0,0,2.34-.9.87.87,0,0,0,1,.86,1.69,1.69,0,0,0,1.44-.79L36,11.34A.63.63,0,0,1,35.63,11.51Zm-2-.41a2.22,2.22,0,0,1-1.5.63,1.28,1.28,0,0,1-1.35-1.42A1.41,1.41,0,0,1,32.33,8.8a2.23,2.23,0,0,1,1.31.38Zm8.71-5H40.84c0-.67-.26-.9-.66-.9a1.36,1.36,0,0,0-1,.57v4.74c0,1.31.22,1.39.71,1.49v.16c-.36,0-.87,0-1.48,0s-1.11,0-1.47,0V12c.49-.1.7-.18.7-1.49V6.08c0-.8,0-1-.51-1.18V4.74a5.24,5.24,0,0,0,2-.45v1a2.87,2.87,0,0,1,1.89-1C41.89,4.29,42.35,4.85,42.35,6.13ZM46.07,12v.16c-.37,0-.87,0-1.48,0s-1.11,0-1.47,0V12c.49-.1.7-.18.7-1.49V6.11c0-.78,0-1.05-.51-1.18V4.77a5.31,5.31,0,0,0,2-.43v6.2C45.36,11.85,45.57,11.93,46.07,12ZM43.85,2.61a.81.81,0,1,1,1.61,0,.81.81,0,0,1-1.61,0Zm11.31,8.55.08.15a1.67,1.67,0,0,1-1.46,1c-.77,0-1.08-.51-1.19-1.16a2.89,2.89,0,0,1-2.48,1.16c-1.28,0-2.55-.54-2.55-2.74V6.39c0-1.11,0-1.36-.66-1.49V4.74a5.61,5.61,0,0,0,2.2-.45v5c0,1.84.46,2.48,1.62,2.48a2,2,0,0,0,1.84-1,4.87,4.87,0,0,1,0-.54V6.42c0-1.19,0-1.39-.61-1.52V4.74a5.37,5.37,0,0,0,2.15-.45v6.18c0,.61.1,1,.49,1A.8.8,0,0,0,55.16,11.16Zm6-1.24a2.45,2.45,0,0,1-2.71,2.37A14.61,14.61,0,0,1,56.21,12c.1-.54,0-1.62.2-2.28h.16c0,1.18.51,2.29,1.77,2.29a1.26,1.26,0,0,0,1.38-1.34c0-2.2-3.54-1.66-3.54-4.13,0-1.43,1.16-2.2,2.62-2.2.67,0,1.33.17,2,.23a3.16,3.16,0,0,0,0,.61c0,.28,0,.69,0,1.21h-.16a1.94,1.94,0,0,0-1.84-1.72A1.19,1.19,0,0,0,57.5,5.83C57.5,7.74,61.16,7.29,61.16,9.92Z"/></g></g></svg>