<svg xmlns="http://www.w3.org/2000/svg" viewBox="0 0 108.84 107.45"><title>Asset 545</title><g id="Layer_2" data-name="Layer 2"><g id="Layer_1-2" data-name="Layer 1"><path d="M57.41,106.84h5.71v.38H56.83V97.37h6l0,.36H57.4v4.34h4.92c0,.14,0,.28,0,.42H57.41Zm-10-3.92,2.6,4.29-.19.2a2.75,2.75,0,0,1-.68-.51c-.51-.76-1-1.55-1.46-2.33-1.06-1.73-1.06-1.73-3.45-1.34v4.12l-.4,0v-10a21.75,21.75,0,0,1,2.91,0A2.57,2.57,0,0,1,49,99.42,3,3,0,0,1,47.36,102.92Zm.7-1.42a2.19,2.19,0,0,0,.07-2.59c-.94-1.42-2.39-1-3.81-1v4.59C45.71,102.42,47.12,102.84,48.06,101.5ZM36.92,96.82l4.2,10.41-.49.22c-.23-.5-.47-1-.68-1.5-1-2.48-.4-2-2.86-2s-2.48,0-3.4,2.26c-.16.41-.4.79-.6,1.19l-.37-.18C34.08,103.86,35.44,100.5,36.92,96.82Zm.13,1.79h-.29c-.62,1.56-1.25,3.12-1.88,4.71h4C38.24,101.63,37.64,100.12,37.05,98.61Zm32.73,3.54c-.82-.41-1.68-.73-2.5-1.14a1.42,1.42,0,0,1-.91-1.78,2.41,2.41,0,0,1,1.35-1.33,7.9,7.9,0,0,1,2.46.1c.25,0,.49.06.73.09l.07-.45a21.81,21.81,0,0,0-2.62-.39A2.46,2.46,0,0,0,65.74,99c-.26,1.22.29,2.13,1.68,2.75.77.35,1.57.63,2.31,1a2,2,0,0,1,1.09,2.2,1.82,1.82,0,0,1-1.59,1.73,12.8,12.8,0,0,1-2.88-.29,4.21,4.21,0,0,1-.93-.35c0,.1-.07.21-.11.31a4.4,4.4,0,0,0,3.3,1,2.79,2.79,0,0,0,2.8-2.11A2.59,2.59,0,0,0,69.78,102.15Zm-17,5.14h.43v-9.9h-.44C52.77,100.69,52.75,104,52.78,107.29Z"/><path d="M25.11,63.51c-.65,2.07-1.41,4-3.22,5.37,1.95,1.44,2.59,3.33,3.11,5.37a9.61,9.61,0,0,1,3-5.31,20.87,20.87,0,0,1-1.86-2.61A18.8,18.8,0,0,1,25.11,63.51ZM25,71.84l-2-3,2-3,2,3Z"/><path d="M83.73,63.52a19.93,19.93,0,0,1-1,2.87A21.26,21.26,0,0,1,80.85,69c1.75,1.26,2.38,3.24,3,5.28A8.85,8.85,0,0,1,87,68.79C85,67.46,84.42,65.52,83.73,63.52Zm.08,8.31-2-3,2-3,2,3Z"/><path d="M43.18,10.71A9.7,9.7,0,0,1,46.33,5.3C44.36,4,43.81,2,43.17,0A8.81,8.81,0,0,1,40,5.41C41.94,6.76,42.63,8.63,43.18,10.71Zm0-8.35,1.95,3-1.95,3-2-3Z"/><path d="M56.4,31.52l1.72-2.66-.27-.26-2.61,1.74c-.22-2.74-.43-5.28-.63-7.83h-.49c-.18,2.57-.37,5.14-.56,7.87l-2.65-1.71-.25.25,1.69,2.64-5.93.65,0,.46,6,.56-1.7,2.65.27.26L53.6,34.4l.61,7.83h.5c.18-2.57.37-5.14.57-7.89l2.63,1.76.26-.31-1.72-2.6,6-.65,0-.46Zm-.84,1.18.19.95-1-.14-.18,2.07-.18,0-.31-2.14L53,33.8l.44-1c-.37-.06-.65-.12-.93-.15a2.4,2.4,0,0,1-.91-.23l1.7-.37-.22-1,1,.27.14-2,.2,0,.31,1.89.81.07V32L57,32.2l0,.22Z"/><path d="M108.48,40.45l-11.36,13c-.09-.53-.12-.71-.14-.9-1.08-7.55-2-15.11-3.27-22.63a31.84,31.84,0,0,0-4.78-13c-3.08-4.55-7.35-6.83-12.94-6.31A27.92,27.92,0,0,0,63.52,15c-.31.19-.63.36-1,.57L54.6,0h-.37L46.28,15.64A30.15,30.15,0,0,0,35.52,11C28.43,9.55,23,11.7,19.35,17.89A35.85,35.85,0,0,0,16,26.05c-2,7-2.46,14.18-3.49,21.31-.28,1.94-.52,3.88-.81,6.13L.34,40.44,0,40.66a9.32,9.32,0,0,0,.23.91c2.5,6.68,4.95,13.37,7.54,20a7.42,7.42,0,0,0,2.22,3,6.87,6.87,0,0,0,10.79-3.31c1.64-4.46,3.23-8.93,4.86-13.4.53-1.46,1.08-2.91,1.58-4.24l4.64.45a6.76,6.76,0,0,1-.33.8c-1.39,2.77-2.76,5.56-4.22,8.3a1.7,1.7,0,0,0,.21,2.22q12.9,15.67,25.72,31.43c.36.43.73.85,1.19,1.38,1.2-1.46,2.32-2.81,3.43-4.17Q69.62,69.64,81.4,55.27a1.47,1.47,0,0,0,.2-1.92c-1.17-2.2-2.26-4.45-3.38-6.67l-1.3-2.6,4.69-.48c.15.38.32.81.47,1.24Q85.05,53,88,61.13a6.95,6.95,0,0,0,13.2.15q3.69-9.8,7.33-19.6c.12-.32.2-.67.29-1Zm-12,13.21a1,1,0,0,1-.36.76,5.55,5.55,0,0,1-4.35,1.19l4.38-4.38C96.26,51.92,96.42,52.79,96.49,53.66Zm-.56-4c0,.27-.28.62-.5.85C94,52,92.57,53.32,91.21,54.78a1.13,1.13,0,0,1-1.7.19c-1.15-.86-2.27-1.78-3.35-2.63l9-9C95.43,45.5,95.71,47.59,95.93,49.69ZM92.47,27.16c.07.23-.2.63-.42.85-2.07,2.1-4.18,4.15-6.24,6.26a1.09,1.09,0,0,1-1.47.21c-1.49-.65-3-1.16-4.48-1.7,3.47-3.45,7.1-7.08,10.93-10.9C91.37,23.65,92,25.39,92.47,27.16Zm-4.9,9.76-.11.29H74.52a1.89,1.89,0,0,1,1.09-2.53,7.65,7.65,0,0,1,6.52-.54C84,34.92,85.77,36,87.57,36.92Zm2.29-16.4a1.2,1.2,0,0,1-.13,1.14q-5.48,5.57-11,11.06a2.18,2.18,0,0,1-.76.48c-1.07.4-2.15.75-3.38,1.17-.21-1.32-.5-2.61-.58-3.9A2.32,2.32,0,0,1,74.73,29c3.65-3.71,7.36-7.36,11-11.08.63-.64,1.14-.73,1.72-.13A31.15,31.15,0,0,1,89.86,20.52Zm-15.2,7.19c1.12-3.56,2.46-7.09,5.55-9.59a5.53,5.53,0,0,1,5.28-1.21Zm2-16.52c4.62-.42,9.76,2.41,11.61,6.2a17.39,17.39,0,0,0-2.63-1.08c-3.06-.7-5.48.52-7.41,2.81-2.5,3-3.72,6.56-4.7,10.25-.12.48-.23,1-.43,1.8-2-.53-4-.93-5.92-1.58a19.72,19.72,0,0,1-9.55-6.88,1.26,1.26,0,0,1,.07-1.88A27.82,27.82,0,0,1,76.69,11.19ZM58.76,71.89C57,74,52.22,74,50,71.94c2.6-1.17,3.42-3.63,4.41-6.29C55.44,68.27,56.17,70.75,58.76,71.89ZM54,62.52c-1.07-1.21-2.31-1.13-3.66-.56s-1.69.37-1.71-1.14a7.77,7.77,0,0,1,.32-2.1c.53,1.65,1.79,1.85,3.17,1.93s1.63.2,2.35,1.74c.43-1.9,1.89-1.66,3.16-1.8a2.28,2.28,0,0,0,2.19-1.91l.39.1a27.87,27.87,0,0,1,0,2.89c0,.21-.56.41-.89.54-.14,0-.36-.1-.54-.17-2.24-.8-2.5-.75-4.24.87A3.07,3.07,0,0,1,54,62.52Zm4.26,8.33a4.71,4.71,0,0,1-1.48-1.57c-.7-1.43-1.27-2.94-1.84-4.44a1.78,1.78,0,0,1,.59-2.07,1.89,1.89,0,0,1,2.21-.46,3.83,3.83,0,0,0,.43.17c2.16.78,2.79.35,2.7-2a8.52,8.52,0,0,0-.53-2.44c-.13-.38-.6-.64-1-1.09-.4,2.73-.46,2.51-2.88,3.2-1.89.54-3.56-.13-5.32-.24a1.36,1.36,0,0,1-1.33-1.57V56.91c-.55.49-1.09.73-1.15,1.06a18.57,18.57,0,0,0-.46,3.92c0,.78.73,1.23,1.63.9.43-.16.88-.27,1.3-.46a2,2,0,0,1,2.31.47A1.86,1.86,0,0,1,53.89,65c-.54,1.38-1,2.79-1.69,4.13a5,5,0,0,1-1.33,1.55c-1.14.94-1.49.83-2.07-.48-1.18-2.63-2.4-5.23-3.51-7.88a2.79,2.79,0,0,1,0-1.93,12.47,12.47,0,0,1,6.23-6.5,2,2,0,0,0,1.19-1.51,58.31,58.31,0,0,1,1.81-6.75c.12.39.25.79.35,1.19.45,1.9.85,3.82,1.38,5.7a2.35,2.35,0,0,0,1,1.3,13.15,13.15,0,0,1,6.37,6.83,2.15,2.15,0,0,1,0,1.5c-1.17,2.75-2.41,5.47-3.63,8.19C59.48,71.47,59.22,71.58,58.22,70.85ZM44.47,60.52c-1.22-2.7-2.29-5.11-3.39-7.5a1.93,1.93,0,0,0-.75-.94c-2.82-1.34-4.51-3.34-4.55-6.65,0-2.44-.37-4.87-.61-7.68,1.71.43,3.23.71,4.67,1.21A12.79,12.79,0,0,1,46.49,44c1.85,2.88,3.39,6,5.13,9.09A14.37,14.37,0,0,0,44.47,60.52Zm12.84-7.34c0-.14-.08-.24-.06-.29C58.79,50,60.13,47,61.92,44.34c2.68-4,6.67-6,11.74-6.44-.24,2.72-.63,5.22-.65,7.73,0,3.26-1.8,5.11-4.48,6.44a2.15,2.15,0,0,0-.82,1c-1.09,2.36-2.13,4.74-3.32,7.38A14.62,14.62,0,0,0,57.31,53.18Zm15.5-15.81a15.77,15.77,0,0,0-9.62,4.43c-2.08,2-3.21,4.56-4.54,7l-1.86,3.5c-.76-3.17-1.45-6-2.14-8.89l-.45,0c-.71,2.94-1.43,5.89-2.22,9.14l-.8-1.4a83.33,83.33,0,0,0-4.53-7.85,14.3,14.3,0,0,0-10.53-5.86c-.84-.09-1.14-.37-1.1-1.19s-.08-1.92,0-2.86c.14-1.63.3-1.72,1.93-2A22.48,22.48,0,0,0,49.27,25.7c.94-.88,1.68-2,2.59-2.91A3,3,0,0,1,53.33,22c2-.34,3.35.28,4.7,2,3.39,4.32,8.17,6.44,13.51,7.37,2.09.37,2.17.36,2.34,2.46a12.37,12.37,0,0,1-.15,2.85A1.24,1.24,0,0,1,72.81,37.37ZM47.12,15.45c2.32-4.66,4.68-9.3,7-13.94,0-.08.16-.14.37-.32,2.5,5,5,9.85,7.22,14.27-1.79,2-3.33,3.76-4.91,5.48a1.68,1.68,0,0,1-1,.42c-2.17.27-4,0-5.44-2.08-.73-1.12-2-1.85-3-2.82A1.15,1.15,0,0,1,47.12,15.45Zm-20-3.56c3.17-1.18,6.35-.79,9.5,0a28.31,28.31,0,0,1,14.32,8.68A1.56,1.56,0,0,1,51,23C47.09,27.8,42,30.13,36,31a.3.3,0,0,1-.18,0,68.67,68.67,0,0,0-2.65-7.4,21.21,21.21,0,0,0-3.73-5.44c-2.39-2.47-5.61-2.6-8.5-.77a.9.9,0,0,1-.53.16A13,13,0,0,1,27.09,11.89Zm7.3,15.81-.27.09C30.53,24.17,27,20.55,23.33,16.91a4.94,4.94,0,0,1,4.74.87,14.4,14.4,0,0,1,3.3,3.58A67,67,0,0,1,34.39,27.7ZM19.13,20.2c.83-.88,1.65-1.78,2.56-2.59a1.19,1.19,0,0,1,1.12.11q5.78,5.69,11.46,11.44a2.4,2.4,0,0,1,.51,2.65,23.27,23.27,0,0,0-.59,2.53C33.07,34,32,33.64,31,33.24a3,3,0,0,1-1-.68C26.4,29,22.87,25.45,19.3,21.93,18.69,21.33,18.52,20.84,19.13,20.2Zm15.18,17h-13l-.07-.2c1.53-.85,3-1.78,4.61-2.54a8,8,0,0,1,7.2.13A2,2,0,0,1,34.31,37.19ZM16.9,25c.46-1,.8-2,1.18-3,3.7,3.74,7.3,7.4,10.74,10.87l-5.5,1.86L19,30.29a7.61,7.61,0,0,0-1.14-1.13C16.29,28.07,16.12,26.7,16.9,25ZM13.66,43.36l8.9,9.11c-1,.77-2.24,1.7-3.46,2.59a.93.93,0,0,1-1.39-.18c-1.43-1.49-2.94-2.91-4.36-4.41a1.68,1.68,0,0,1-.41-1.19C13.13,47.3,13.41,45.34,13.66,43.36Zm-1,7.67,4.56,4.42a5.13,5.13,0,0,1-4.68-1.16,1.47,1.47,0,0,1-.18-.94C12.46,52.56,12.59,51.78,12.69,51Zm10.23,2.51C22,56.1,21.1,58.66,20.13,61.2a6,6,0,0,1-5.88,4.15,6,6,0,0,1-6-4.14Q4.81,52.15,1.43,43.05l.19-.17c.51.56,1,1.11,1.53,1.68q4.08,4.69,8.15,9.38a6.76,6.76,0,0,0,9.5.77c.71-.59,1.4-1.2,2.25-1.94A5.59,5.59,0,0,1,22.92,53.54Zm2.32-6.33c-.47,1.12-.83,2.3-1.26,3.45a13.63,13.63,0,0,1-.71,1.23l-6.65-6.77a6.88,6.88,0,0,0-.9-.89,3.84,3.84,0,0,1-1.59-4.65,37.21,37.21,0,0,0,.62-4c.44.4.72.63,1,.88,3,3,6.07,6.08,9.13,9.1A1.27,1.27,0,0,1,25.24,47.21Zm1.17-3.36a13.18,13.18,0,0,1-.7,1.92c-1-1.06-1.83-2-2.71-2.88-2.46-2.47-4.92-4.94-7.4-7.38A1.73,1.73,0,0,1,15,33.79c.35-1.76.65-3.53,1-5.36l7,6.87-3.77,2.22c-.07.14-.15.27-.23.4a5.16,5.16,0,0,1,.82.39c2.13,1.5,4.25,3,6.35,4.55A1.24,1.24,0,0,1,26.41,43.85ZM25.94,42c-1.8-1.21-3.54-2.53-5.31-3.8l.1-.27c.29,0,.58-.06.87-.06,3.92,0,7.83,0,11.74,0,1,0,1.42.3,1.32,1.3a4.38,4.38,0,0,0,.06.8c.24,2.62.63,2.18-2,3.06A7.47,7.47,0,0,1,25.94,42Zm6.35,18.22C30.86,58.46,29.46,56.68,28,55a1.15,1.15,0,0,1-.12-1.52c1.46-2.83,2.95-5.64,4.26-8.54A3.55,3.55,0,0,1,35,43a23.26,23.26,0,0,1,.32,3.12c-.1,2.92,1.56,4.71,3.85,6,.79.45.88.81.58,1.61-1.33,3.46-2.61,6.94-4,10.66Zm39.27,6.16c-5.45,6.54-10.8,13.15-16.19,19.74-.28.35-.59.68-1,1.11-2.2-2.67-4.33-5.27-6.46-7.87-3.69-4.51-7.35-9-11.07-13.52a1.66,1.66,0,0,1-.31-1.94c1.32-3.42,2.58-6.86,4-10.57.33.67.55,1.1.75,1.54,2.34,5.24,4.73,10.47,7,15.74a5.25,5.25,0,0,0,3.58,3.11,8.56,8.56,0,0,0,5.86-.26,4.91,4.91,0,0,0,2.79-2.72c2.32-5.34,4.73-10.64,7.11-16,.18-.41.41-.79.71-1.38.71,1.84,1.34,3.47,2,5.1s1.07,3.21,1.77,4.73A2.56,2.56,0,0,1,71.56,66.37Zm9.38-13a1.32,1.32,0,0,1-.18,1.72c-2.52,3-5,6.09-7.65,9.35L68.79,52.83c1-.76,2-1.44,2.85-2.21a5.25,5.25,0,0,0,1.88-4.14c0-1.14.2-2.28.31-3.49a3.27,3.27,0,0,1,2.81,1.84C78,47.71,79.46,50.52,80.94,53.34ZM80.72,43a8.17,8.17,0,0,1-6.24-.61,1.12,1.12,0,0,1-.5-.86,19.76,19.76,0,0,1,.26-3,1.11,1.11,0,0,1,.78-.68c4.37,0,8.74,0,13.12,0l.13.3C85.74,39.76,83.66,42,80.72,43Zm2.35,2.46c-1-2.09-1-2.09.74-3.35s3.41-2.46,5.11-3.69c.27-.2.51-.43.94-.79L86,35.34l6.88-6.86c.33,1.93.69,3.87,1,5.81a1.19,1.19,0,0,1-.36.88c-3.34,3.37-6.71,6.72-10.07,10.08A1.73,1.73,0,0,1,83.07,45.48Zm1.41,4.18c-1.49-2.4-.86-4.14,1.26-5.9,2.38-2,4.43-4.34,6.62-6.52.51-.51,1-1,1.75-1.68.3,2.33.59,4.39.83,6.47a1,1,0,0,1-.33.67l-8.77,8.77a2.32,2.32,0,0,1-.49.24A12.63,12.63,0,0,0,84.48,49.66Zm22.73-6.13Q104,52.25,100.7,61a6.35,6.35,0,0,1-12.11,0c-.87-2.33-1.71-4.67-2.55-7-.11-.31-.18-.63-.34-1.21l2,1.74a6.79,6.79,0,0,0,10-.74l8.36-9.64c.35-.4.72-.78,1.27-1.38A6.71,6.71,0,0,1,107.21,43.53Zm-40,1.62a2.25,2.25,0,0,0,2.19-2.31,2.19,2.19,0,0,0-2.24-2.12A2.14,2.14,0,0,0,65,43,2.21,2.21,0,0,0,67.18,45.15Zm0-3.83A1.57,1.57,0,0,1,68.76,43a1.63,1.63,0,0,1-1.52,1.57,1.66,1.66,0,0,1-1.62-1.6A1.61,1.61,0,0,1,67.21,41.32Zm-25.56-.6a2.21,2.21,0,1,0,2.16,2.22A2.18,2.18,0,0,0,41.65,40.72Zm-.12,3.81a1.69,1.69,0,0,1-1.46-1.76,1.62,1.62,0,0,1,1.75-1.44,1.57,1.57,0,0,1,1.38,1.78A1.67,1.67,0,0,1,41.53,44.53Z"/><path d="M54.71,19c2.08,0,4-1.3,4.18-2.9-1.48.73-2.9.92-4-.55a2.34,2.34,0,0,1-.14-2.81c1-1.64,2.53-1.57,4.34-.67A4.7,4.7,0,0,0,53.5,9.21,5,5,0,0,0,54.71,19Zm-3.08-8a4.08,4.08,0,0,1,5.52-.47,7.23,7.23,0,0,0-2.3,1.17,4.16,4.16,0,0,0-1,2.42c-.1,1.68,1,2.6,3.49,3.26a4.14,4.14,0,0,1-5.75-.46A4.29,4.29,0,0,1,51.63,11Z"/></g></g></svg>