<svg xmlns="http://www.w3.org/2000/svg" viewBox="0 0 88.7 152.56"><title>Asset 561</title><g id="Layer_2" data-name="Layer 2"><g id="Layer_1-2" data-name="Layer 1"><path d="M39.15,96.65a1.79,1.79,0,0,0-1.9-.4,2,2,0,0,0-1,1.78,4.1,4.1,0,0,0,2,3.69l.62-1a3.53,3.53,0,0,1-.58-.48,6.46,6.46,0,0,0,1.15.07,2.88,2.88,0,0,1,1.91.42c.23.35.36.58.36.58l1-.56A14.91,14.91,0,0,0,39.15,96.65Zm.21,2.49c-1,0-1.55,0-2-1,0,0,0,0,0-.07,0-.46.2-.73.35-.8s.42,0,.71.25a12.45,12.45,0,0,1,1.64,1.59C39.83,99.14,39.58,99.14,39.36,99.14ZM38.24,74.57l-.58-.08-.59-.08a7.3,7.3,0,0,0-3.38-6.88l.63-1A8.54,8.54,0,0,1,38.24,74.57ZM51.45,96.25a1.79,1.79,0,0,0-1.9.4A15.12,15.12,0,0,0,46,100.76l1,.56s.14-.25.4-.63a2.85,2.85,0,0,1,1.89-.4,6.45,6.45,0,0,0,1.15-.05,3.35,3.35,0,0,1-.6.49l.63,1a4.1,4.1,0,0,0,2-3.69A2,2,0,0,0,51.45,96.25Zm-2.08,2.87c-.22,0-.46,0-.71,0a12.1,12.1,0,0,1,1.62-1.56c.29-.22.54-.32.7-.25s.32.34.36.8v.08C50.9,99.14,50.34,99.14,49.37,99.12Zm5-32.59.63,1a7.42,7.42,0,0,0-3.38,6.88l-1.16.16A8.52,8.52,0,0,1,54.38,66.53ZM88.57.3C88.17-.26,87.43,0,85.4,1c-6.81,3.29-17,9.28-26.89,23.33a79.81,79.81,0,0,0-10,19.37,53.23,53.23,0,0,0-2.17,8,4.13,4.13,0,0,0-.65.22,3.24,3.24,0,0,1-1.31.32h0a3.19,3.19,0,0,1-1.3-.32,3.93,3.93,0,0,0-.66-.22,52.67,52.67,0,0,0-2.16-8,79.55,79.55,0,0,0-10-19.37C20.3,10.23,10.11,4.24,3.31,1,1.27,0,.53-.26.13.3S.34,1.58,2.5,3.7c1,1,2.31,2.27,3.39,3.5,8,9.06,17.67,22.54,22,46.53l-.09,0c-1,.62-.81,1.22-.58,1.75a1.5,1.5,0,0,1,.05,1.32,2.64,2.64,0,0,1-.56,1.07,2.32,2.32,0,0,1-.57-.85c-1.54-3.18-3-5.36-5.75-7.11-1-.62-2.17-1.53-3.41-2.48-2.22-1.71-4.51-3.48-6.44-4.2L10,43.05l-.18.6c-2.69,9,.14,11.69,4.05,15.46l1.45,1.41c2.61,2.62,3.76,2.79,4.79,2.75.44,0,.64,0,1.3.87,1.58,2,1.34,2.59.89,3.7s-1.2,3,.25,6.89v0a10.43,10.43,0,0,0,1.72,2.66c0,1.28.1,8.95,3.53,10.8,2,1.08,2.85,6.14,3,8h0c-.23,1.72-.14,3.18,1.13,4.47a17.71,17.71,0,0,1,3.72,6.18,3.88,3.88,0,0,0,.89,2.81c2.23,2.76,7.77,3.19,7.88,3.19h0c3.88-.39,6.7-1.65,7.93-3.55a4.09,4.09,0,0,0,.69-2.28,18.07,18.07,0,0,1,3.73-6.35c1.28-1.29,1.36-2.75,1.13-4.47h0c.16-1.86,1-6.92,3-8,3.42-1.85,3.53-9.51,3.53-10.8a10.24,10.24,0,0,0,1.71-2.66l0,0c1.45-3.92.75-5.64.25-6.89s-.7-1.72.9-3.72c.65-.88.85-.87,1.28-.85,1,0,2.19-.13,4.8-2.75q.73-.74,1.44-1.41c3.91-3.77,6.74-6.49,4-15.46l-.18-.6-.59.22c-1.93.72-4.22,2.49-6.44,4.2-1.24,1-2.41,1.86-3.41,2.48-2.77,1.75-4.21,3.93-5.75,7.11a2.32,2.32,0,0,1-.57.85,2.87,2.87,0,0,1-.55-1.07,1.5,1.5,0,0,1,0-1.32,1.2,1.2,0,0,0-.57-1.75l-.09,0c4.33-24,14-37.47,22-46.53C83.9,6,85.18,4.71,86.21,3.7,88.37,1.58,89,.94,88.57.3ZM6.77,6.42C5.66,5.16,4.36,3.88,3.32,2.86c-.4-.38-.81-.79-1.17-1.16L2.8,2c6.68,3.23,16.7,9.12,26.43,23a77.9,77.9,0,0,1,9.85,19,54.05,54.05,0,0,1,2.14,7.79A1.18,1.18,0,0,0,41,52c-1,.92-3.87,1.66-6.14,2.26l-.56.15-.41.1A83.56,83.56,0,0,0,14.75,14.33l-.88.78a77.62,77.62,0,0,1,8.06,11,4.63,4.63,0,0,0-.9.18l.37,1.12a4.63,4.63,0,0,1,1.2-.17c.49.83.95,1.65,1.39,2.46a4.76,4.76,0,0,0-1.54.43l.54,1a4,4,0,0,1,1.6-.33c.55,1,1.06,2.08,1.53,3.09a4.56,4.56,0,0,0-2.09.74l.68,1a3.6,3.6,0,0,1,1.94-.56c.41.91.79,1.8,1.15,2.67a7.08,7.08,0,0,0-2.57.61A88.28,88.28,0,0,0,6.77,6.42Zm26,48.24A5.5,5.5,0,0,1,29.4,54l-.29-.14c-.14-.77-.28-1.53-.43-2.27A7.32,7.32,0,0,1,32,50.81C32.41,52.65,32.63,54,32.73,54.66Zm-7.32-15.8.28.55a6.25,6.25,0,0,1,2.58-.53c.37.93.71,1.84,1,2.71a7.16,7.16,0,0,0-2.82.75C26.13,41.15,25.77,40,25.41,38.86Zm1.39,4.65a6,6,0,0,1,2.89-.76c.31.89.58,1.75.83,2.56a8.66,8.66,0,0,0-3.08.69C27.23,45.16,27,44.32,26.8,43.51Zm.93,3.66a7.45,7.45,0,0,1,3.14-.69c.33,1.15.61,2.21.84,3.16a8.71,8.71,0,0,0-3.27.72C28.21,49.28,28,48.21,27.73,47.17Zm3.65,45.57-.09-.39c-.69-2.73-1.69-4.46-3-5.15-2.15-1.16-2.78-5.86-2.9-8.65a10.13,10.13,0,0,0,2.26,1.33l0,.06c2.62,1.16,3.45,2.4,3.9,8.39A19.39,19.39,0,0,1,31.38,92.74Zm20,16c-1,1.58-3.52,2.65-7,3-.53,0-5.49-.61-7.08-3A2.92,2.92,0,0,1,37,106a3.93,3.93,0,0,0,.11-1.82l.12.06.28.12c2.2,2.15,6.53,2.89,6.71,2.92l.1,0h.09c.19,0,4.54-.75,6.77-2.93.09,0,.18-.07.27-.12l0,0A4.22,4.22,0,0,0,51.7,106,3,3,0,0,1,51.37,108.69Zm-10.91-3.77h0a6.24,6.24,0,0,1,3.57.92l.18.09h.28l.17-.08a6.22,6.22,0,0,1,3.56-.92h0a18.1,18.1,0,0,1-3.92,1.21A18.24,18.24,0,0,1,40.46,104.92ZM51,103.2a5.67,5.67,0,0,1-2.74.54,7.38,7.38,0,0,0-3.86.93,7.38,7.38,0,0,0-3.86-.93,5.72,5.72,0,0,1-2.74-.54c-1.46-.7-1.51-1.06-1.66-2.27a13.12,13.12,0,0,0-.48-2.44,4.73,4.73,0,0,1-.15-2.12h0a.19.19,0,0,0,0-.08,3.25,3.25,0,0,1,1.13-2.11.72.72,0,0,1,.39-.13.66.66,0,0,1,.44.19c1.67,1.49,6.28,2,6.8,2.05h.25c.52-.05,5.12-.56,6.8-2.05a.59.59,0,0,1,.82-.06c.79.5,1.59,2.32,1,4.31a14.21,14.21,0,0,0-.49,2.44C52.46,102.14,52.41,102.5,51,103.2Zm9.43-16c-1.27.69-2.27,2.42-3,5.15,0,.13-.07.26-.1.39a20.61,20.61,0,0,1-.18-4.41c.46-6.1,1.22-7.27,3.8-8.41h0a10,10,0,0,0,2.34-1.36C63.16,81.35,62.52,86,60.38,87.2Zm1.54-28.1c.83,0,1.36-.85,1.69-1.53,1.45-3,2.78-5,5.32-6.62,1-.62,2.09-1.47,3.27-2.38-4,3.79-6.68,8.74-6,11,.6,1.83-.27,2.32-.31,2.34l.27.53.25.53c.07,0,1.83-.91.9-3.76-.64-2,3.14-8.86,9.24-12.5L76,45.74A17.12,17.12,0,0,1,78,44.61c1.43,4.8,2,7.9-3.92,13.66l-1.47,1.42c-2.46,2.47-3.3,2.43-3.91,2.41s-1.32,0-2.26,1.31c-1.88,2.34-1.65,3.4-1.06,4.87.46,1.13,1,2.54-.26,6a8.55,8.55,0,0,1-4.62,4.55h0l-.28.13a11.34,11.34,0,0,1-5.38.57h0l-.19,1.16a11.1,11.1,0,0,0,1.55.1,15.12,15.12,0,0,0,1.67-.1c-1.12,1.4-1.57,3.55-1.87,7.53a24.26,24.26,0,0,0,.51,6.55c.41,2.31.69,3.84-.54,5.08a17.57,17.57,0,0,0-3.27,4.95,3.67,3.67,0,0,1,.3-1.57,3.38,3.38,0,0,0,.8-2.17,13.78,13.78,0,0,1,.45-2.25,6.06,6.06,0,0,0,.17-2.75c-.19-2.67-1.45-4.81-3.53-8.35l-.65-1.11c-.17-.29-.33-.62-.49-1,.08-.78.66-5.49,3.75-8.7,1.11-.07,8.24-.8,9.3-6.6l.23,0-.17-1.16c-5.5.83-7.78,2.37-10.1,6.88a15.4,15.4,0,0,0-3.81,7.33,65.46,65.46,0,0,1-1.79-11L46,72.43c0,.43.76,10.55,3.24,14.78l.65,1.12A44,44,0,0,1,52.39,93a1.75,1.75,0,0,0-1.89.34c-1.17,1-4.78,1.62-6.11,1.76h-.07C43,95,39.38,94.4,38.21,93.36A1.78,1.78,0,0,0,36.34,93a51.82,51.82,0,0,1,2.77-5.12l.4-.68C42,83,42.71,72.86,42.74,72.43l-1.17-.08a65.15,65.15,0,0,1-1.74,10.83A15.68,15.68,0,0,0,36,76c-2.33-4.51-4.61-6-10.11-6.88l-.17,1.16.24,0c1.06,5.8,8.18,6.53,9.3,6.61a15.8,15.8,0,0,1,3.83,8.47,10.19,10.19,0,0,1-.57,1.19l-.4.67c-2.22,3.79-3.57,6.11-3.79,8.84a6,6,0,0,0,.17,2.7,11.92,11.92,0,0,1,.45,2.25,4.34,4.34,0,0,0,.48,1.76h0a4.6,4.6,0,0,1,.6,1.79,18.05,18.05,0,0,0-3.23-4.76c-1.23-1.24-1-2.77-.54-5.08a24.72,24.72,0,0,0,.5-6.55c-.29-4-.78-6.13-2-7.55a12.81,12.81,0,0,0,3.32,0l-.2-1.16c-.07,0-7.37,1.17-10.29-5.24-1.28-3.49-.71-4.9-.25-6,.59-1.47.81-2.53-1.05-4.85-.95-1.29-1.52-1.36-2.27-1.33s-1.46.06-3.92-2.41c-.5-.5-1-1-1.46-1.42-3.78-3.65-6.1-5.88-3.92-13.65a16.06,16.06,0,0,1,1.93,1.12l-.56.94c6.1,3.64,9.88,10.52,9.24,12.5-.93,2.85.83,3.72.9,3.76l.51-1.06s-.9-.49-.29-2.34c.45-1.39-.38-3.87-2.23-6.63a25.64,25.64,0,0,0-3.69-4.31c1.17.9,2.27,1.74,3.24,2.35,2.54,1.59,3.87,3.63,5.31,6.62.32.66.84,1.53,1.63,1.53h.06c.85-.05,1.3-1,1.6-1.86A2.64,2.64,0,0,0,28.3,55s0-.09-.05-.14l.14-.1a3.58,3.58,0,0,1,.47.22,7.22,7.22,0,0,0,5.74.48l.56-.14c2.52-.67,5.37-1.42,6.62-2.52.17-.16.24-.17.8.07a4.47,4.47,0,0,0,1.75.4h0a4.43,4.43,0,0,0,1.75-.4c.57-.24.63-.23.81-.07,1.24,1.1,4.1,1.85,6.62,2.52l.55.14A7.21,7.21,0,0,0,59.84,55a3.61,3.61,0,0,1,.48-.22l.14.1L60.4,55a2.64,2.64,0,0,0-.08,2.2C60.63,58.08,61.08,59.05,61.92,59.1ZM54.24,75.69c1.77-3.11,3.55-4.37,7.28-5.12a6.45,6.45,0,0,1-4.26,4.35A12.85,12.85,0,0,1,54.24,75.69Zm-19.78,0a13.09,13.09,0,0,1-3-.77,6.47,6.47,0,0,1-4.26-4.35C30.91,71.32,32.7,72.58,34.46,75.69ZM56,54.66c.1-.68.33-2,.75-3.85a7.26,7.26,0,0,1,3.3.75c-.14.74-.29,1.5-.42,2.27l-.29.14A5.53,5.53,0,0,1,56,54.66Zm4.3-4.3A8.76,8.76,0,0,0,57,49.64c.24-1,.51-2,.85-3.16a7.33,7.33,0,0,1,3.14.69C60.73,48.21,60.49,49.28,60.27,50.36Zm1-4.36a8.66,8.66,0,0,0-3.08-.69c.25-.81.53-1.67.83-2.56a6,6,0,0,1,2.9.76C61.68,44.32,61.47,45.16,61.26,46Zm1-3.66a7.2,7.2,0,0,0-2.83-.75c.32-.87.66-1.78,1-2.71a6.25,6.25,0,0,1,2.58.53l.29-.55C62.93,40,62.58,41.15,62.24,42.34ZM85.39,2.86c-1,1-2.34,2.3-3.46,3.56A88.57,88.57,0,0,0,63.47,38.33a7.08,7.08,0,0,0-2.57-.61c.36-.87.74-1.76,1.15-2.67a3.67,3.67,0,0,1,1.94.56l.68-1a4.48,4.48,0,0,0-2.09-.74c.48-1,1-2,1.53-3.09a4.06,4.06,0,0,1,1.61.33l.53-1a4.49,4.49,0,0,0-1.54-.42c.45-.82.91-1.64,1.39-2.47a4.57,4.57,0,0,1,1.2.17l.37-1.12a4.53,4.53,0,0,0-.89-.18,77.62,77.62,0,0,1,8.06-11L74,14.33A83.62,83.62,0,0,0,54.81,54.47l-.41-.1-.55-.15c-2.28-.6-5.11-1.34-6.14-2.26l-.22-.17A52.09,52.09,0,0,1,49.62,44a77.9,77.9,0,0,1,9.85-19C69.21,11.13,79.22,5.24,85.91,2l.65-.31C86.2,2.07,85.78,2.48,85.39,2.86Z"/><path d="M23,150.71l.59.64a3.23,3.23,0,0,1-2.57,1.21c-2.09,0-3.64-1.61-3.64-4.33s1.58-4.34,3.71-4.34a3.14,3.14,0,0,1,2.31,1l-.59.67a2.32,2.32,0,0,0-1.71-.76c-1.57,0-2.61,1.29-2.61,3.37s1,3.42,2.57,3.42A2.48,2.48,0,0,0,23,150.71ZM28.11,144l2.82,8.37H29.8L29,149.87H26l-.8,2.54H24.07L26.89,144Zm.23,3.7c-.3-.93-.57-1.85-.84-2.82h-.05c-.25,1-.52,1.89-.82,2.82L26.24,149h2.5Zm9.31-1.24c0,1.78-1.26,2.59-3.1,2.59H33.19v3.32H32.12V144H34.5C36.37,144,37.65,144.67,37.65,146.5Zm-1.07,0c0-1.19-.74-1.59-2.21-1.59H33.19v3.32h1.23C35.88,148.23,36.58,147.69,36.58,146.5ZM43,148.76l2.13,3.65H43.93l-2-3.54H40.41v3.54H39.34V144H42c1.7,0,2.93.62,2.93,2.36A2.28,2.28,0,0,1,43,148.76Zm.81-2.36c0-1.09-.72-1.49-2-1.49H40.41V148H41.8C43.1,148,43.82,147.47,43.82,146.4Zm2.79,6h1.07V144H46.61Zm6.55-.79c-1.58,0-2.58-1.32-2.58-3.42s1.05-3.37,2.62-3.37a2.32,2.32,0,0,1,1.71.76l.58-.67a3.12,3.12,0,0,0-2.31-1c-2.12,0-3.7,1.65-3.7,4.34s1.55,4.33,3.64,4.33a3.21,3.21,0,0,0,2.56-1.21l-.58-.64A2.5,2.5,0,0,1,53.16,151.62Zm10.38-3.43c0,2.69-1.48,4.37-3.59,4.37s-3.57-1.68-3.57-4.37,1.47-4.3,3.57-4.3S63.54,145.52,63.54,148.19Zm-1.11,0c0-2.08-1-3.36-2.48-3.36s-2.46,1.28-2.46,3.36,1,3.43,2.46,3.43S62.43,150.28,62.43,148.19ZM70.28,144v4.36c0,.87.07,1.79.14,2.65h0c-.3-.61-.59-1.23-.91-1.79l-3-5.22H65.33v8.37h1V148c0-.87-.08-1.77-.14-2.61h0c.28.61.59,1.23.91,1.79l3,5.22h1.14V144Z"/></g></g></svg>