<svg xmlns="http://www.w3.org/2000/svg" viewBox="0 0 101.55 86.81"><defs><style>.cls-1{fill:#fbb03b;}</style></defs><title>Asset 511</title><g id="Layer_2" data-name="Layer 2"><g id="Layer_1-2" data-name="Layer 1"><path d="M83,81.58c-.21-.11-.38-.29-.38-.4,0-.28.18-.26.72.07a1.88,1.88,0,0,0,.77.27c.17,0,.28.07.23.14S83.45,81.82,83,81.58Zm2.45,3.81c-2.43,0-2.93.08-2.7.31a8.5,8.5,0,0,0,2.27.23,12.56,12.56,0,0,1,2.22.17.64.64,0,0,0,.64,0c0-.05,0-.24-.13-.42C87.55,85.37,87.53,85.36,85.47,85.39ZM86.63,84c-.63-.29-1.59-.39-1.72-.18s-.1.25,1,.56l1.71.47c.38.1.87.21,1.1.25.76.11,1,.1,1,0a1.41,1.41,0,0,0-.66-.22A10.83,10.83,0,0,1,86.63,84Zm6.19,1.66c0,.11.54.16,1.78.18,1.73,0,2.19-.08,1.48-.35C95.09,85.15,92.82,85.27,92.82,85.7Zm-3.37-2.88a3.79,3.79,0,0,1-2.77-1.71c-.41-1-3.29-2.2-3.88-1.62-.26.27-.19.32.49.33a5.69,5.69,0,0,1,2.54,1,.52.52,0,0,1,.16.55c-.08.34.25.87.56.87a2.94,2.94,0,0,1,.74.54,2.31,2.31,0,0,0,1.11.63,13.74,13.74,0,0,1,1.61.47c1.29.46,1.74.51,2,.2s.14-.25-.15-.44A6.53,6.53,0,0,0,89.45,82.82Zm5.8-.2a7.58,7.58,0,0,1-1.45-.14,11.9,11.9,0,0,0-1.93-.16c-1.23,0-1.32,0-1.32.24s.14.28,1.51.37a16,16,0,0,1,2.06.22,9.11,9.11,0,0,0,1.62.15c.87,0,1.06,0,1.06-.2S96.23,82.63,95.25,82.62Zm3.69,2a2.09,2.09,0,0,0-1.1.09c-.39.17-.34.19.89.26l1.69.1c.61.05.43-.21-.21-.29Zm0-1.76c0,.11.22.18.82.22,1.46.09,1.83,0,1.83-.18C101.55,82.43,99.06,82.4,98.9,82.86ZM41.21,66.46A.79.79,0,0,1,41,67c-.18.13-.19.2,0,.38s.1.5-.22.5-.2,0,0,.24a.62.62,0,0,1,.15.49c0,.2-.14.23-.46.16-.49-.11-.55.19-.1.47.26.15.27.2.09.3a.4.4,0,0,0-.15.45c0,.18,0,.37-.09.43a.38.38,0,0,0-.15.29c0,.32.36.22.53-.15.08-.19.21-.34.28-.34.27,0,.86-2.64.89-4,0-.69,0-.9-.17-.9S41.23,65.72,41.21,66.46ZM45,61.93c-.17-.11-.24,0-.35.69l-.09.54.28-.34C45.1,62.45,45.17,62.06,45,61.93ZM15.78,60.76a17.93,17.93,0,0,0-.54,2.16c0,.08.22,0,.4-.09s.21-.48.24-1.27S15.9,60.48,15.78,60.76ZM49.29,16.64c.39.1.54,0,.59-.21s-.1-.25-.46-.31C48.6,16,48.48,16.45,49.29,16.64ZM24.23,80c-.23,0-1.57,1.24-1.48,1.38s.29.15.72-.22a1.58,1.58,0,0,1,.55-.34,1.64,1.64,0,0,0,.51-.3c.35-.28.36-.31.12-.41A2.39,2.39,0,0,0,24.23,80ZM21.44,31.58a5.14,5.14,0,0,0,1.21-.8c0-.1-.46.1-1.09.43a4.35,4.35,0,0,0-1.2.8C20.32,32.11,20.81,31.92,21.44,31.58ZM22.6,12.76c.25-.47.26-.55.07-.55s-.17.15-.21.34-.15.34-.22.34a.14.14,0,0,0-.12.14C22.12,13.31,22.4,13.16,22.6,12.76Zm.55-3.94c.17-.06.18-.13.06-.28-.29-.35-1-.14-.74.23C22.56,8.93,22.82,9,23.15,8.82ZM23,10.15c.15-.1.16-.17,0-.29a.35.35,0,0,0-.59.21C22.4,10.31,22.64,10.34,23,10.15Zm-1,69.94c-.36.06-.49,0-.56-.15s-.19-.22-.49-.15a.5.5,0,0,1-.61-.21c-.18-.26-.22-.27-.61-.06a2,2,0,0,0-.49.33c0,.07-.24.09-.44.06l-.36-.07.39-.31c.22-.18.35-.36.3-.42s-.18,0-.28,0c-.27.21-1.42.47-1.22.27.41-.41-.09-.68-.68-.37a.62.62,0,0,1-.65,0c-.36-.18-1.42-.16-1.4,0,0,.42,2.37,1.4,3.35,1.4a5,5,0,0,0,1.35-.27c.76-.26.76-.26.69,0s0,.27.5.18c.37-.07.57,0,.57,0s.12.19.66,0S22.52,80,21.94,80.09ZM3.69,81.28a.48.48,0,0,0,.09.29c.14.13.33.12.33,0a.55.55,0,0,0-.21-.29C3.73,81.11,3.69,81.12,3.69,81.28Zm12.45-21.9c.07.11.15.12.24,0a.26.26,0,0,0,0-.29q-.11-.16-.24,0A.24.24,0,0,0,16.14,59.38Zm6.82-34a1.57,1.57,0,0,1,.6-.35c.24,0,.54-.37.38-.47s-1.4.77-1.4,1S22.69,25.58,23,25.35ZM17.09,62.06a13.48,13.48,0,0,1-.19,2.69c-.15,1-.28,1.93-.28,2,0,.26.25.21.39-.06a11.13,11.13,0,0,0,.37-3.27c.06-1.38,0-1.7-.14-1.93S17,61.29,17.09,62.06Zm16,4.57a1,1,0,0,0-.05.59c.09.39.4.62.33.24a1.74,1.74,0,0,1,.07-.58,14.37,14.37,0,0,0,.37-3.15c-.21-.21-.4.4-.49,1.58A4.5,4.5,0,0,1,33.1,66.63Zm-11.94-31c0,.08.06.1.14.06a.32.32,0,0,0,.13-.23c0-.07-.06-.1-.13,0A.3.3,0,0,0,21.16,35.6ZM82.28,79.75c0,.07-.2,0-.36-.08s-.34-.16-.47-.06-.29.08-.58-.07c-.52-.27-.58-.27-.48,0A1.55,1.55,0,0,0,81,80c.73.37.94.65.67.91s-.29.16-1-.26a8.11,8.11,0,0,0-1.15-.58,4.56,4.56,0,0,1-.75-.36,1.77,1.77,0,0,0-.66-.26,2,2,0,0,1-.74-.34,2,2,0,0,0-.7-.34,1.43,1.43,0,0,1-.56-.28,7.25,7.25,0,0,0-1.34-.62c-1-.36-1.44-.73-1.44-1.19A3.77,3.77,0,0,0,72,74.5l-.91-.94-.1-1a4.17,4.17,0,0,0-.33-1.38,2.23,2.23,0,0,1-.23-.93,3.19,3.19,0,0,0-1.31-2.89c-.38-.17-.45-.72-.13-.85.15,0,.21-.29.21-.83,0-.89-.18-1.43-.51-1.55a3.6,3.6,0,0,1-.68-.42c-.37-.28-.46-.46-.61-1.28s-.19-1-1.08-1.78c-.49-.46-1-.89-1.06-1a5.84,5.84,0,0,1-.68-2.28.37.37,0,0,1,.33-.2c.19,0,.31.21.5.85a3,3,0,0,0,1,1.58,6.06,6.06,0,0,0,.86.74,8,8,0,0,0-1.2-1.87,3.61,3.61,0,0,1-.34-1.24c-.24-1.62-.56-2.21-1.13-2.15-.28,0-.38,0-.38-.17a5.27,5.27,0,0,0-.55-1.19,9.84,9.84,0,0,1-.55-1.07,3.66,3.66,0,0,0-.39-.71,1.82,1.82,0,0,1-.33-.79c0-.09,0-.17-.08-.17s-.79-1-1-1.62-.12-.61,0-.67.25-1,0-1.35a1.41,1.41,0,0,1-.21-.77,1.08,1.08,0,0,0-.2-.68.53.53,0,0,1-.21-.35c0-.1-.08-.16-.19-.11a.23.23,0,0,1-.28-.08.5.5,0,0,0-.36-.14c-.15,0-.27-.08-.27-.18s-.14-.23-.3-.31a1.88,1.88,0,0,1-.79-1.17c0-.6-.89-1.78-1.3-1.78-.14,0-.24.84-.12,1a5.33,5.33,0,0,1,.45,1.45c0,.09,0,.16-.11.16s-.58-.81-.58-1.09a1.22,1.22,0,0,0-.28-.6,1.25,1.25,0,0,1-.27-.57c0-.15-.13-.21-.41-.21s-.45.09-.63.48-.21.5,0,.82.28.49,0,.39a.32.32,0,0,1-.21-.26c0-.29-.56-.53-1.17-.49s-.8.12-.49.52a.84.84,0,0,1,.2.75c-.05.22,0,.4,0,.4s.6.88.6,1.17c0,.11-.05.2-.11.2a3.49,3.49,0,0,1-1-1.5c0-.36-.14-.7-.29-.7s-.15.94,0,1,.14.13,0,.35-.13.31,0,.44a.58.58,0,0,1,.2.35c0,.25.83.83.94.66s.26-.09.52,0,.45.21.6.72A2.74,2.74,0,0,0,56,48.37c.94.92,1.19,1.31,1.19,1.9a3.34,3.34,0,0,0,.21,1.08c.31.77.87,2,1,2.3s.08.27-.14.32a.43.43,0,0,0-.27.69c.13.15.12.24,0,.41s-.2.29,0,.93a2.57,2.57,0,0,0,.4.85c.24.19.11.33-.3.33s-.37,0-.17.77.46.79.58.17.32-.8.57-.8.18.23.18.72,0,1.66.1,2.8c.12,2.3.06,2.81-.33,2.81s-.48.62-.28,1a2.14,2.14,0,0,1,.13.79,1.1,1.1,0,0,0,.13.63,1.22,1.22,0,0,1,.11.68,2,2,0,0,0,.16,1c.16.31.15.45-.13,1.15a5,5,0,0,1-.53,1,.55.55,0,0,0-.08.61c.18.51.45.55.55.09.18-.87.58-1.77.8-1.81s.22,0,.15.28A8,8,0,0,0,60.14,72a3.87,3.87,0,0,1,.09,1.78c-.16.6-.14,1.72,0,1.72s.1-.23.1-.51a2.15,2.15,0,0,1,.54-1.65c.24-.15.28-.14.28,0a.35.35,0,0,1-.12.28,6,6,0,0,0-.35,2,1.94,1.94,0,0,1-.39.92,3.25,3.25,0,0,0-.51,1.14c-.26,1.08-.51,1.62-.76,1.62a5.51,5.51,0,0,0-1.58,1.5,3.67,3.67,0,0,1-.62.55,2,2,0,0,0-.72.86c-.13.48-.39.51-.35,0s0-.41-.4-.06-.45.28-.32-.13a2.62,2.62,0,0,1,.83-.78c.44-.29.71-.56.67-.67-.12-.29.25-.41.44-.14s.22.22.39.08.19-.21.18-.26.75-1.1,1.11-1.25.42-.31.62-1.07.23-.92,0-1.2a.5.5,0,0,1-.16-.57,9.71,9.71,0,0,0,.26-1.31c.15-1.08,0-2-.24-2-.12,0-.18.48-.23,1.73,0,1.58-.21,2.39-.51,2.61a8.84,8.84,0,0,0-.63,1.31c-.51,1.21-.53,1.23-1.11,1.35-.35.08-.55.19-.52.29a.35.35,0,0,1,0,.3,13.81,13.81,0,0,1-2.78,2c-.58,0-.26-.57,1.17-2A10.28,10.28,0,0,0,56,78.8a1.21,1.21,0,0,0-.13-.43c-.14-.25.2-1.07.78-1.89A5,5,0,0,0,57.4,72c-.28-1.06-.23-1.67.3-3.74l.38-1.47-.32-1.08c-.76-2.51-.8-3.46-.21-5,.27-.7.26-.74-.9-2.87a4.08,4.08,0,0,1-.5-1.79,3.71,3.71,0,0,0-.88-2.34,2.25,2.25,0,0,1-.45-1.45,2.92,2.92,0,0,0-.57-1.71,2.38,2.38,0,0,1-.5-1.3,3.28,3.28,0,0,0-.9-2.19c-.46-.55-.6-.64-1.05-.64a2.92,2.92,0,0,1-2.07-1.07c-.2-.35-.21-.51-.08-1.15.22-1.09.22-1.29,0-1.22s-.86.07-1.65.09a14.19,14.19,0,0,0-2.19.18,3.67,3.67,0,0,1-3-.41,9.5,9.5,0,0,1-2.18-1.63c-1.08-1.05-1.1-1.06-1.24-.74a1.44,1.44,0,0,0-.15.49,2,2,0,0,1-.21.56,5.56,5.56,0,0,0-.35,1,1.75,1.75,0,0,1-.32.71A5.29,5.29,0,0,0,37.47,45a3.91,3.91,0,0,1-.5,1,3.6,3.6,0,0,0-.41.72,1.91,1.91,0,0,1-.32.55,6.3,6.3,0,0,0-.56.94,12.27,12.27,0,0,1-2.49,3c-.4.22-.09.46.72.53a3.75,3.75,0,0,1,.94.2,9.46,9.46,0,0,0,3.12.39,7.45,7.45,0,0,1,2,.21,2.11,2.11,0,0,0,1,.12,2.08,2.08,0,0,1,1.2.21,3.52,3.52,0,0,0,1.16.29c.53,0,.79.14,1.8,1a4.24,4.24,0,0,0,1.17.68c1,.33,1.42.7,1.67,1.45a9.12,9.12,0,0,0,.42,1.08c.43.85.25,2-.71,4.49a15.11,15.11,0,0,0-.63,1.9,4.37,4.37,0,0,1-.2.71c0,.06-.19.88-.34,1.81a25,25,0,0,1-.54,2.59c-.73,2.47-.85,2.86-1,3.3a12.6,12.6,0,0,0-1,3c-.11.64-.25,1.35-.29,1.58a2.65,2.65,0,0,0,.56,2.82A9.34,9.34,0,0,0,48.48,83a2.19,2.19,0,0,1,.68.29c.08.14.8.16,1.26,0a.38.38,0,0,0,.31-.34c0-.19.1-.26.41-.26a.73.73,0,0,0,.48-.12c0-.07.28-.12.54-.11.41,0,.48.07.53.39s0,.38-.64.47a5.78,5.78,0,0,0-.78.14c-.05,0,0,.3,0,.59a.87.87,0,0,1-.09.9c-.43.66-.78.78-2.8.93a8.87,8.87,0,0,1-3-.08,6.28,6.28,0,0,1-1.5-.48,7.48,7.48,0,0,0-1.77-.5c-1.27-.24-1.37-.24-1.83,0-.27.13-.45.17-.4.08s0-.11-.2,0-.34.13-.39.09a4.73,4.73,0,0,0-.77-.15,2.34,2.34,0,0,1-2-1.5c-.46-1-.19-2.28,1-4.49a6.57,6.57,0,0,0,.63-2.13c.07-1,.07-4.35,0-4.47a3.42,3.42,0,0,1-.15-.85c-.08-.94-.18-1.35-.31-1.35a3,3,0,0,0-.52.86,28.48,28.48,0,0,1-2.09,3.54,9.15,9.15,0,0,1-2.08,2c-.16,0-.29.14-.29.2a4.88,4.88,0,0,1-1.89,1.24l-.65.22L30,79.39A15.65,15.65,0,0,0,29.9,82L30,83.31h-.41A6.74,6.74,0,0,0,27,84.63c-1.42.93-1.89,1-3.93.28a18.21,18.21,0,0,0-2.37-.63A9.6,9.6,0,0,1,19.44,84a17.29,17.29,0,0,0-2.82-.49,9.61,9.61,0,0,1-3.16-1,30.23,30.23,0,0,0-5.92-2l-.72-.16c-.17,0-.4.19-.88.94a10.33,10.33,0,0,1-1.31,1.61,3.3,3.3,0,0,0-.66.73c0,.07.17.18.38.26a1.48,1.48,0,0,1,.85,1.25,1.23,1.23,0,0,1-.38.7c-.33.32-.5.37-1.2.37a2.3,2.3,0,0,1-1.3-.29,3.16,3.16,0,0,1-.62-.44,2.93,2.93,0,0,0-.52-.41,1.54,1.54,0,0,1-.52-.6,4.24,4.24,0,0,0-.41-.74C-.23,83.05,0,82,.82,81A6.85,6.85,0,0,0,1.46,80a5.83,5.83,0,0,0,.28-2.71,3.45,3.45,0,0,1,1.33-3.51,2.8,2.8,0,0,1,2.32-.25,2,2,0,0,1,1.3.74,4.76,4.76,0,0,0,2,1.12l1.36.49.78-.22c1.18-.34,1.23-.43,1.53-2.62.15-1,.33-2.13.41-2.39a36.75,36.75,0,0,0,.15-8.54,19.84,19.84,0,0,1,.26-6.31c.52-2.06.57-2.17,2.41-5.71a10.13,10.13,0,0,1,1.6-2.63l.42-.44-.37-.58c-.37-.59-.37-.6-.13-1a6.41,6.41,0,0,1,.64-.87c.4-.47.49-1,.23-1.23s.05-2.57.79-4c.36-.71.36-.77.29-2.7a10.36,10.36,0,0,1,.08-2.46.87.87,0,0,0-.09-.87A3.13,3.13,0,0,1,19,31c.2-.46.15-.95-.08-.95-.08,0-.11-.13-.07-.29a2.15,2.15,0,0,0-.12-.93A8.85,8.85,0,0,1,18.55,27a9.14,9.14,0,0,0-.19-1.85,17.53,17.53,0,0,1-.46-4.75c0-.76.14-2.31.23-3.45A9.25,9.25,0,0,0,18,13.37a10.15,10.15,0,0,1,.15-5,5.08,5.08,0,0,0,.26-1.07c0-.23.22-.46.79-.83s1-.7,1.27-.91a1.86,1.86,0,0,1,.65-.39,5.18,5.18,0,0,0,1-.35A24.7,24.7,0,0,1,25.64,3.4a1.94,1.94,0,0,0,.61-.34A1.65,1.65,0,0,1,27,2.72a3.69,3.69,0,0,0,1.11-.66A4,4,0,0,1,30.35,1a5.31,5.31,0,0,0,1.38-.5A2,2,0,0,1,32.92.15,4.14,4.14,0,0,0,34,.07c.69-.13.71-.13,1.42.41s.84.59,4.35.79A6,6,0,0,1,42.54,2.5a16.55,16.55,0,0,0,2,1.18c1.33.67,1.39.73,1.69,1.67a9.85,9.85,0,0,0,1.94,1.28c2.87,1.62,4.76,3.44,5.3,5.1.1.3.32.92.49,1.37a13.47,13.47,0,0,1,.68,5.23,22.7,22.7,0,0,1-.21,3A36.37,36.37,0,0,0,54.25,26c0,3.31,0,4,.25,4.85s.29,1,.55,1a.91.91,0,0,1,.91.76.48.48,0,0,0,.19.42.64.64,0,0,1,.28.44,1.09,1.09,0,0,0,.49.6c.23.13.41.33.41.45a.2.2,0,0,0,.2.21.77.77,0,0,1,.41.21c.19.19.18.27,0,.73a2.4,2.4,0,0,1-.43.66c-.18.14-.15.24.17.73a2.76,2.76,0,0,0,1.38,1c1.17.53,2,1.33,2,1.91a3.41,3.41,0,0,1-.85,2.23l-.55.62.28.6a7.15,7.15,0,0,0,.84,1.24,7.58,7.58,0,0,1,.72,1,1.55,1.55,0,0,0,.36.45,1.51,1.51,0,0,1,.25.85,3,3,0,0,0,1.07,2.15,2.41,2.41,0,0,1,.91,2,2,2,0,0,0,.41,1.27,2.55,2.55,0,0,1,.42.86,2.18,2.18,0,0,0,.67,1.26.86.86,0,0,1,.29.41,5.68,5.68,0,0,0,.41,1,4.27,4.27,0,0,1,.41,1.2c0,.25.14.4.55.61a2.57,2.57,0,0,1,1.24,1.86,2.87,2.87,0,0,0,.94,1.52,5.08,5.08,0,0,1,.48,2.36c0,.22.09.47.56,1a4.45,4.45,0,0,1,.75,1,11.36,11.36,0,0,1,.22,1.85c.12,1.86.15,2,.55,2s1,.85,1,1.7a1.52,1.52,0,0,0,.19.71,5.89,5.89,0,0,1,.84,1.7A4.4,4.4,0,0,0,75,74.75a6.78,6.78,0,0,1,.81,1,8.57,8.57,0,0,0,1.47.81c.8.39,1.79.92,2.2,1.18a11.53,11.53,0,0,0,1.34.73C81.46,78.79,82.4,79.57,82.28,79.75Zm-33.6,5.09A1.74,1.74,0,0,0,50,84.77c.85-.3.67-.48-.42-.42S48.28,84.58,48.68,84.84Zm8.12-7.6c-.31.33-.57.61-.57.63s.07.23.15.47c.18.5.33.55.54.16a2.55,2.55,0,0,0,.21-.66c0-.2.1-.56.15-.78C57.37,76.64,57.37,76.64,56.8,77.24Zm1.7-5.34c.13.2.35.16.35-.06a.36.36,0,0,0-.13-.28C58.55,71.46,58.39,71.72,58.5,71.9Zm.07-9.49c0,.38.06.68.14.68s.14-.3.14-.68-.07-.69-.14-.69S58.57,62,58.57,62.41Zm-1.35-9.23a1.09,1.09,0,0,0,.19.85c.31.34.46.22.38-.31a2.44,2.44,0,0,0-.3-.79l-.23-.35Zm-.36,2.11c.19.62.28.77.31.53a2.35,2.35,0,0,0-.19-.93C56.64,54,56.56,54.29,56.86,55.29Zm-1.17-2.66c-.12-.31-.13-.31-.14-.05a.8.8,0,0,0,.08.38C55.8,53.13,55.83,53,55.69,52.63ZM56.43,54c.13.34.21.19.21-.33s0-.49-.15-.18A.89.89,0,0,0,56.43,54Zm-2-5.88a3.59,3.59,0,0,0,.79,1.76c.22.06.56,1,.56,1.51a1,1,0,0,0,.24.5c.24.26.24.25.28-.24a2.59,2.59,0,0,0-.1-.94,2.7,2.7,0,0,1-.15-.69C56.09,49.6,54.57,47.8,54.47,48.09Zm2-11.77c.19.19.45.08.73-.31s.35-.65,0-.74S56.17,36,56.46,36.32Zm.46,1.26c-.21-.13-.59,0-.48.21a.35.35,0,0,0,.54,0A.16.16,0,0,0,56.92,37.58ZM56,34.4a1.66,1.66,0,0,0-.54,1c0,.18.1.13.45-.21a1.76,1.76,0,0,1,.62-.44c.24,0,.2-.19-.08-.36A.34.34,0,0,0,56,34.4ZM55,33.93a9.26,9.26,0,0,0-.63.79c-.16.26,1.16-.53,1.33-.81s.11-.28,0-.41S55.44,33.46,55,33.93Zm-1-18.7a.14.14,0,0,0,.28,0,.14.14,0,0,0-.28,0Zm-.41,18.59c0,.27.48.08,1.18-.47s.9-1,.45-1A4.58,4.58,0,0,0,53.62,33.82ZM46.77,7c.2.2.39.22.39,0s-.13-.2-.28-.29C46.58,6.54,46.51,6.69,46.77,7ZM44.59,8.49c-.23,0-.32.08-.32.28s.21.34.77.13c.23-.09.42-.09.5,0s-.06.19-.37.3a1.31,1.31,0,0,0-.5.26,10.28,10.28,0,0,1-.2,1.22c-.09.39,0,.88.22.77s.38.13.06.38-.35.33-.35.4.36.15.56-.08a.9.9,0,0,1,.66-.2h.5l-.32.27a1.21,1.21,0,0,1-.65.27.6.6,0,0,0-.41.14c0,.08-.2.11-.34.07s-.23,0-.18.2.2.35.78,0c1-.53,2.24-.66,2-.21a5.51,5.51,0,0,1-2,.67c-.13-.13-.77.26-1.19.71s-.37.45-.24.7.1.34-.14.59c-.44.48-.71,1.21-.53,1.43s.1.21-.1.27c-.65.21-.84.33-.91.6s.09.4.23.16a1,1,0,0,1,.46-.2,2.12,2.12,0,0,0,.72-.36c.27-.22.31-.3.16-.4s0-.68.5-.78a8.21,8.21,0,0,0,1.34-.55,7.23,7.23,0,0,1,3.17-.7c.34.13.22.36-.2.36a6.53,6.53,0,0,0-2.08.72c-.19.09-.56.24-.82.34-.45.16-.46.17-.07.11l1.15-.21c.77-.16,1-.1.73.17s-.18.39.34.39.53.1-.39.34a6.77,6.77,0,0,0-2.66,1l-.48.38.72.07c.4,0,.72.13.7.2a1.9,1.9,0,0,1-.72.39c-.38.14-.7.32-.7.39s.49,0,.92-.24a1.44,1.44,0,0,1,.6-.19,1.36,1.36,0,0,0,.55-.14c.33-.17,1,0,1,.23s-.16.19-.46.19a4.89,4.89,0,0,0-1.28.28c-.44.16-1,.34-1.33.42a3.65,3.65,0,0,0-1.57.86c-.23.19-.35.23-.48.12s-.31,0-.69.33a1.66,1.66,0,0,0-.52.67c0,.26.4.27.5,0a4.06,4.06,0,0,1,1.15-.76c1.35-.7,2-.76,2.37-.19a7.6,7.6,0,0,0,.84,1c.37.39.6.74.55.86s-.4.1-.79-.34-.4-.36-.66.16a5.22,5.22,0,0,0,0,2.45c.09.14,1.17-.39,1.17-.57s1-.68,1.38-.68a3.94,3.94,0,0,0,1-.22c.76-.25.88-.54.41-1a1.48,1.48,0,0,1-.28-.34,9.26,9.26,0,0,0-1-1.86,1.86,1.86,0,0,0-.29.72c-.27,1-.61,1-.58,0,0-.67,0-.71-.35-.75-.55-.06-.47-.46.09-.44.28,0,.45,0,.45-.15,0-.36.32-.47.86-.3.38.12.51.23.51.46a.55.55,0,0,0,.12.38,2.64,2.64,0,0,1,.37.83c.26.85.56,1.2.75.9a6.25,6.25,0,0,0,.53-1.88c-.08-.39-.39-.39-.39,0s-.07.35-.35.35-.72-.42-.78-1c0-.39,0-.41.58-.48.84-.1.31-.28-.62-.21a1.68,1.68,0,0,1-1.1-.2,1.14,1.14,0,0,0-.79-.18c-.28.05-.38,0-.38-.13s.38-.27,1.65-.45,1.64-.29,1.61-.46,0-.23.11-.24l.59-.12c.41-.1.45-.15.42-.56a1.06,1.06,0,0,1,.15-.67c.17-.21.2-.21.43,0s.54.15.54-.28c0-.23-.09-.34-.3-.37-.37-.06-.51-.39-.16-.39a7.84,7.84,0,0,1,1.28.35c.56.18,1.08.34,1.14.34.23,0-.07-.29-.49-.47a3.52,3.52,0,0,1-.79-.53,2.1,2.1,0,0,0-.66-.44c-.16-.05-.3-.16-.3-.23s.59,0,1.1.22,1.1.37,1.1.16-.4-.59-1.29-.94-1.18-.7-.31-.64c.68.05.86-.14.38-.38a3.73,3.73,0,0,1-.6-.43,1.84,1.84,0,0,0-.75-.38c-.75-.16-.66-.35.16-.35,1.38,0,.81-.65-.78-.88a2.19,2.19,0,0,1-1-.36l-.32-.26h.56a1.73,1.73,0,0,0,.82-.2c.23-.17.16-.21-.73-.44a2.92,2.92,0,0,1-1-.36c0-.05.13-.17.28-.25.42-.22.19-.41-.5-.41s-.73-.09-.44-.39c.13-.12.11-.16-.06-.16a.42.42,0,0,0-.3.12,1,1,0,0,1-.63.06,1.16,1.16,0,0,0-.93.18A2.6,2.6,0,0,1,44.59,8.49Zm6.26,19.34c.2-.12-.32-1.18-.58-1.18a1,1,0,0,0-.48.28c-.25.24-.29.39-.24,1.06.06.86.28,1.13.93,1.13.37,0,.38,0,.3-.6C50.73,28.15,50.76,27.89,50.85,27.83Zm-5.15,6c-.37-.38-.94-1-1.26-1.33-.51-.56-1.41-1.19-1.41-1a9.78,9.78,0,0,0,.46,1.18c.08.19.45.83.82,1.42a6.42,6.42,0,0,1,.74,1.59c.13.94.21,1,.8.62a1.12,1.12,0,0,1,.81-.15,1.06,1.06,0,0,0,.72-.11C47.65,35.87,47.71,36,45.7,33.85Zm1.66,3.25c-.12,0-.18.06-.14.14s.11.14.14.14.09-.07.14-.14S47.48,37.1,47.36,37.1Zm-.58.55c-.17,0-.48.67-.37.84s.33.15.33-.05a3.18,3.18,0,0,1,.09-.48C46.87,37.79,46.85,37.65,46.78,37.65ZM39.14,23.93c.23-.34.45-.4.45-.13a.61.61,0,0,0,.17.35c.14.14.18.08.22-.33a1.94,1.94,0,0,0-.06-.73,2.6,2.6,0,0,1-.13-.59c0-.35-.71-1.35-.92-1.35s-.12-.76.06-.94.1-.16-.11-.16a.69.69,0,0,1-.42-.15c-.11-.11-.19,0-.3.27a.84.84,0,0,1-.4.51,2.89,2.89,0,0,0-.49.21.49.49,0,0,1-.38.05c-.24-.16.21-.75.84-1.09l1.06-.58c.3-.16.45-.34.45-.55a.77.77,0,0,1,.68-.74c.2,0,.25.1.23.45s0,.45.36.49.38.11.38.18.07.12.16.09.15-.58.13-1.83c0-1.81,0-2.26.31-2.26a3.41,3.41,0,0,0,.74-.25c.5-.2.58-.29.58-.65a2.46,2.46,0,0,0-2.24-2.1,2.21,2.21,0,0,0-1.48.36,5.84,5.84,0,0,1-2.25.63c-.08,0-.26.31-.41.67-.23.54-.24.68-.09.78s.15.2.08.37A3.69,3.69,0,0,0,36.52,17a.56.56,0,0,1,.12.52c-.06.18,0,.29.07.29s.13.11.08.3a.62.62,0,0,0,.13.53c.23.25.09.82-.32,1.26s-.77.33-.66,0c.05-.15,0-.28,0-.28-.33,0-.31-.57,0-1s.35-.46.06-.54-.28-.14-.2-.63c.05-.31,0-.55,0-.55A11.43,11.43,0,0,0,34.34,19a.8.8,0,0,0-.1.76,1.27,1.27,0,0,1,0,.67c-.05.21,0,.33.07.33.29,0,.33.42.07.62s-.23.23-.1.36.22.13.39,0,.27-.14.49.15a1.32,1.32,0,0,1,.26.5c0,.21.91.47,1.2.36s.2,0,.15.35,0,.54.27.28.51,0,.32.22-.09.22.06.34.26.14.53,0,.34-.19.63.09l.31.3Zm-.53.89c-.28.05-.35.13-.29.33s.08.25.37,0a3.76,3.76,0,0,0,.29-.33A1.64,1.64,0,0,0,38.61,24.82Zm-2.27,1.43a9.93,9.93,0,0,0,.62-1l.44-.78L37,24.38a1.16,1.16,0,0,0-.68.06c-.45.24-.61.18-.52-.2s.06-.34-.4-.34-.49,0-.4.46-.21,1-.6.88a2.31,2.31,0,0,1-.63-1.5c0-.07,0-.12-.08-.12s-.22-.15-.3-.33-.17-.32-.61-.14-1.3.27-1.3.1a1.37,1.37,0,0,1,.3-.41c.17-.17.28-.34.24-.37a2.94,2.94,0,0,0-1.5.23,3.29,3.29,0,0,0,1.15,1.52,2.25,2.25,0,0,1,.71.4,10.62,10.62,0,0,0,1.23.74c.57.29.85.52.88.72.06.42-.31.5-.76.17s-1.56-.56-1.56-.37c0,.49,2,2.48,2.34,2.33a3.13,3.13,0,0,1,.89-.12A2.05,2.05,0,0,0,37,27.55c.21-.25.33-1.5.13-1.38a.37.37,0,0,0-.12.28c0,.13-.15.2-.42.2C36.11,26.65,36.06,26.57,36.34,26.25Zm-1.17,2.62a15.43,15.43,0,0,0-2,4.09l-.07.6L33.5,33a17.51,17.51,0,0,0,1-2.05C35.32,29.24,35.46,28.78,35.17,28.87ZM27.83,16.05a.91.91,0,0,0,.2.82,1.85,1.85,0,0,1,.28,1.1c0,.54.06.72.27.83a3.3,3.3,0,0,1,.9,2.07,1.65,1.65,0,0,0,.19.86c.25.44.25.44.52.17a.86.86,0,0,1,.53-.2.32.32,0,0,0,.37-.31,5,5,0,0,0-.52-2.07.71.71,0,0,1-.13-.5c0-.07-.08-.29-.27-.48a1.69,1.69,0,0,1,.06-2.16,2.08,2.08,0,0,0,.42-1.11,2.4,2.4,0,0,1,.76-1.79c.53-.59.58-.85.26-1.53a.71.71,0,0,1,0-.89c.3-.59.28-.72-.16-.72a3.53,3.53,0,0,1-.82-.12.7.7,0,0,0-.8.15A1.5,1.5,0,0,1,28.12,10a1.19,1.19,0,0,0-1.62.08l-.5.4a10.21,10.21,0,0,0,1,2.62,2.61,2.61,0,0,1,.39,1.15,2.69,2.69,0,0,0,.35,1.1A.69.69,0,0,1,27.83,16.05Zm5.08,3.13c-.14-.38-.69.43-.79,1.14-.06.48,0,.56.07.34s.29-.49.48-.77A1,1,0,0,0,32.91,19.18Zm-.33,2.62c0,.31.36.18.52-.18.26-.55.19-.67-.18-.32A1.11,1.11,0,0,0,32.58,21.8ZM35,23.22c.08-.08.1-.18.06-.23s-.4.08-.3.24S34.85,23.32,35,23.22Zm.5-8.75a.27.27,0,0,0,.14-.21.13.13,0,0,0-.14-.13c-.07,0-.13.1-.13.22S35.39,14.52,35.46,14.47Zm2.69-2.29c.2-.09.15-.1-.19,0a6.39,6.39,0,0,1-.73.08c-.14,0-.25.06-.25.13S37.68,12.39,38.15,12.18Zm-.07-4.5c0,.19.07.17,1.21-.39.7-.33,1-.52.8-.56a.49.49,0,0,0-.4.1.74.74,0,0,1-.42.15C39,7,38.08,7.49,38.08,7.68ZM39.31,6a.43.43,0,0,0,.34-.13c.07-.11-.58-.29-1.33-.36a3.12,3.12,0,0,1-.93-.32l-.55-.29-.21.33a3.92,3.92,0,0,0-.35,1.16A7,7,0,0,1,36,7.6c-.15.4.12.49.42.14a.52.52,0,0,1,.28-.21,8.32,8.32,0,0,0,1.23-.76A5.58,5.58,0,0,1,39.31,6Zm.55,3.7a.15.15,0,0,0,.14.15c.08,0,.14,0,.14-.06s-.06-.1-.14-.15S39.86,9.64,39.86,9.72Zm2.35-2c.09-.08,0-.31-.35-.64-.6-.61-1-.66-1-.13a.53.53,0,0,1-.37.56c-.21.1-.38.23-.38.3,0,.22.39.26.64.07s.74-.25.74.12.38.61.86.63c.24,0,.24,0,0-.38S42.13,7.8,42.21,7.71Zm-.53,3.51c.24.24.39.2.39-.11a.25.25,0,0,0-.28-.28C41.48,10.83,41.44,11,41.68,11.22Zm0-.66c.16,0,.28-.05.28-.11a1.19,1.19,0,0,0-.2-.4c-.11-.15-.16-.33-.11-.39s0-.07-.15,0-.34,0-.51-.22l-.26-.31v.45c0,.36.07.48.35.58s.34.2.34.27S41.5,10.56,41.65,10.56Zm-1.2.57c.34,0,.44-.07.33-.37a.42.42,0,0,0-.36-.2C40,10.56,40,11.07,40.45,11.13Zm1.67,4.94c-.22.18-.26.4-.07.4s.15-.13.19-.28S42.28,15.93,42.12,16.07Zm-2.53,3.84c-.15.1-.07.13.31.13s.52-.06.52-.13S39.86,19.73,39.59,19.91Zm-.16,5.73a8.82,8.82,0,0,1,1.17.54,1.63,1.63,0,0,0,.71.28,1.14,1.14,0,0,0,.22-.65,1.45,1.45,0,0,0,0-.77.27.27,0,0,1-.05-.3c.13-.22-.23-.84-.49-.84s-.7.52-.59.71a.77.77,0,0,0,.48.11c.33,0,.4.06.4.33,0,.47-.28.64-.87.54-.37-.06-.51-.15-.51-.34S39.8,25,39.73,25s-.14.09-.14.2-.14.21-.38.22S38.92,25.46,39.43,25.64ZM42.79,24a2.34,2.34,0,0,1,.73.38c.21.33.4,0,.43-.84a6,6,0,0,1,.1-1,.24.24,0,0,0-.06-.27c-.08,0-.14-.26-.14-.48,0-.48-.3-.54-.8-.15-.32.24-.32.27-.11.6a.76.76,0,0,1,.14.58,1.19,1.19,0,0,1-.94.49c-.29,0-.37-.58-.12-.86s.2-.24.16-.24a3.78,3.78,0,0,0-1.21.67A4.68,4.68,0,0,0,42.79,24Zm-.3,3a1.67,1.67,0,0,0,.54-.46,2,2,0,0,1,.76-.56c.42-.1.44-.43,0-.64a3.28,3.28,0,0,1-.58-.42c-.31-.29-.87-.48-1-.34S42.18,26.92,42.49,26.92Zm1.15,3.85a.18.18,0,0,0,.24.06c.09-.06.09-.14,0-.24S43.51,30.55,43.64,30.77Zm1.64-3.86c-.24-.27-.25-.27-.49,0s-.33.66-.17.66a2.75,2.75,0,0,0,.49-.22C45.52,27.18,45.52,27.17,45.28,26.91Zm-.08,5c.15.15.37,0,.42-.32s0-.3-.16-.3S45.06,31.79,45.2,31.94Zm-1.11-2.5a3.06,3.06,0,0,1-.17.56c-.08.19-.06.24.08.2a.63.63,0,0,0,.27-.39.56.56,0,0,1,.4-.41c.43-.1.51-.37.15-.48S44.18,29,44.09,29.44Zm3.63,4.46c.15-.28.15-.29-.06-.12a.61.61,0,0,0-.23.31C47.43,34.3,47.55,34.22,47.72,33.9Zm.67-3.76c.62-.32.69-.4.69-.82a2.36,2.36,0,0,0-.83-1.77c-.68-.74-.62-1,.24-.87.51.06.6,0,.56-.15s-1.34-.25-1.62.09a2.06,2.06,0,0,1-.7.45c-.65.26-1.27.77-1.16.95s.34.16.51-.21.43-.35.59.49c.12.65.19.75.53.84s.92.5.92.78,0,.17-.21,0-.21-.12-.21.19v.36ZM46.78,26c.14-.05.21-.13.17-.17s-.15,0-.24.09S46.59,26.1,46.78,26ZM48,31.44c0,.37.06.37,1,0A11.79,11.79,0,0,1,50.15,31c.63-.18.55-.36-.21-.48a1.58,1.58,0,0,0-1.27.25C48.28,31,48,31.26,48,31.44Zm2.49-6.52a1.08,1.08,0,0,1,.64.14c.37.19.43.19.43,0s-.28-.32-2.41-.42a4.92,4.92,0,0,0-2.75.28c-1,.37-1.86.93-1.86,1.18a1.38,1.38,0,0,1-.34.51c-.36.38-.45.72-.21.72a1.64,1.64,0,0,0,.57-.49,1.25,1.25,0,0,1,.75-.48q.33,0,.33-.24c0-.25.74-.65,1.47-.8a.58.58,0,0,1,.68.2c.32.37.42.37.41,0s.07-.32.36-.35.38,0,.38.25.06.28.43.2a5.18,5.18,0,0,1,.9-.09c.46,0,.47,0,.24-.26S50.31,25,50.49,24.92Zm-.31-1.71c-.32.17-.33.19-.06.29a2.37,2.37,0,0,0,.64.11c.32,0,.38-.05.38-.32s0-.37-.12-.41a2,2,0,0,1-.27-.7c-.18-.68-.38-.79-.56-.31-.09.24,0,.37.21.58S50.71,22.93,50.18,23.21Zm1.9-3.59a.12.12,0,0,0,.13-.16c0-.09-.23-.19-.43-.21a.59.59,0,0,1-.45-.25c-.09-.22-.61-.26-.81-.07a1.09,1.09,0,0,1-.48.19c-.19,0,0,.07.35.08a1.92,1.92,0,0,1,.83.15A1.74,1.74,0,0,0,52.08,19.62Zm-.17,8.76a1.52,1.52,0,0,1,.33-.08c.17,0,.28-.38.19-.62s-.56-.25-.74.08S51.63,28.49,51.91,28.38Zm.54-4.48c.11,0,.21,0,.21-.06a1.35,1.35,0,0,0-.09-.28c-.12-.3-.33-.26-.33.06C52.24,23.77,52.34,23.9,52.45,23.9ZM35.66,3.62c.08.22.1.22.33,0a.94.94,0,0,1,.4-.23.53.53,0,0,0,.31-.2c.27-.32.42-.1.33.47s0,.56.21.69.29.11.29,0c0-.28.42-.13.57.2s.47.45.57,0,.12-.27.29-.13a.37.37,0,0,1,.13.37c-.09.23.24.26.46,0s.23-.07.44.14a1.1,1.1,0,0,0,.68.29c.28,0,.62.21,1.22.75A3.61,3.61,0,0,1,43.17,8c.22.61.41.25.32-.58-.07-.54-.16-.77-.38-.88-.44-.24-1-.89-1-1.13s.33-.25,1,.33A1.77,1.77,0,0,1,44,7c.21,1,.51,1.22.37.34-.06-.33-.11-.81-.13-1.06A1.83,1.83,0,0,0,43,5.05c-.41-.11-.38-.63,0-.58a3,3,0,0,1,2.09,2.31c0,.57.24.38.31-.25s0-.64-.43-1.1a2.71,2.71,0,0,0-.73-.59,1,1,0,0,1-.42-.44,1.15,1.15,0,0,0-.59-.51,1.47,1.47,0,0,1-.57-.36A4.53,4.53,0,0,0,42,2.92a1.45,1.45,0,0,0-1.11-.37,1.12,1.12,0,0,1-.66-.11.89.89,0,0,0-.58-.14c-.41,0-.46,0-.32-.2.29-.35-.21-.41-.63-.08s-.79.36-1,0l-.2-.29L37,2.19c-.24.28-.53.61-.63.75s-.19.25-.29,0a.67.67,0,0,1,.07-.53c.21-.34.07-.5-.2-.23A2,2,0,0,0,35.66,3.62Zm-.27,6.21h.47c.27,0,.49.06.53.15s0,.17-.15.17a6.81,6.81,0,0,0-1.71.86.47.47,0,0,0-.17.28c0,.18,1,0,1.24-.24a2,2,0,0,1,.79-.27c.45-.08.59-.16.59-.36a.24.24,0,0,1,.27-.27c.15,0,.28.08.28.18,0,.63.62.59.76-.06s.53-.48.58.11.51.72.72.32.17-.59-.07-.5-.21,0-.21-.38-.07-.48-.26-.53a.47.47,0,0,0-.41.08c-.11.11-.28,0-.61-.29l-.45-.45L37,8.85a1.76,1.76,0,0,0-.65.42,1.44,1.44,0,0,1-.55.38Zm-.52-5.54c.07.46.1.49.29.3a.39.39,0,0,0,.07-.53,1.92,1.92,0,0,1-.12-.69c0-.21,0-.38-.07-.38S34.79,3.76,34.87,4.29Zm-.92-1c0,.34.1.25.48-.39s.42-.8.14-.68A1.61,1.61,0,0,0,34,3.33Zm-.32,1.73c.16,0,.18-.11.11-.45-.16-.84-.22-1-.37-.82S33.38,5.06,33.63,5.06Zm-.37,6.13c0,.24.2.25.4,0s.12-.22.07-.27S33.26,11,33.26,11.19Zm0,2c0,.1.19.13.56.08s.57,0,.68.18a.79.79,0,0,0,.52.31l.48.08c.06,0,.1-.1.1-.24a.66.66,0,0,1,.1-.35c.18-.17.16-.93,0-.86l-.95.22a2.37,2.37,0,0,0-.86.29.47.47,0,0,1-.35.13C33.38,13,33.26,13.1,33.26,13.19Zm.83,1.49c-.15.23-.18.55-.06.55a.66.66,0,0,0,.26-.18.28.28,0,0,0,.06-.38C34.24,14.5,34.21,14.51,34.09,14.68Zm-1.35-.22a1.57,1.57,0,0,0-.3.74,1.29,1.29,0,0,1-.52.82c-.51.46-.51.47-.13.39a1.6,1.6,0,0,0,.65-.36c.33-.33.8-.35.92,0s-.3.6-.75.6c-.18,0-.29.05-.25.13a.15.15,0,0,1-.06.21,2.25,2.25,0,0,0-.42.63c-.24.48-.25.56-.06.63s.79-.36.7-.7,0-.34.47-.54c.88-.43,1.26-.1.62.55-.34.33-.45.73-.25.92s.62-.31,1-.73a.67.67,0,0,0,.08-.53.41.41,0,0,1,.11-.44c.15-.09.13-.14-.08-.22a3.08,3.08,0,0,1-1.11-1.08c-.18-.27-.18-.38,0-.88C33.6,13.72,33.35,13.68,32.74,14.46Zm-.44-2.94c.08,0,.14-.1.14-.21s-.06-.18-.14-.13a.27.27,0,0,0-.14.21A.13.13,0,0,0,32.3,11.52Zm.43-6.1c0-.28-.48-1.31-.58-1.25s-.15.45.1,1S32.73,5.72,32.73,5.42Zm-4.33.35c.16,0,.32.29.42.67.16.58,1,2,1.07,1.9a1.6,1.6,0,0,0-.05-.6c-.11-.67-.05-1.17.15-1.17s.1.1.05.22,0,.34.23.52a7.22,7.22,0,0,1,.6.71c.4.54.53.37.24-.3a5,5,0,0,1-.25-1.91,4.94,4.94,0,0,1,.47-2.54,12.42,12.42,0,0,1,.81-1.69c.19-.29.3-.56.25-.61s-.34.09-.65.31a4.74,4.74,0,0,0-1.47,2.88,1.65,1.65,0,0,1-.56,1.25c-.34.37-.5.13-.55-.83a2.71,2.71,0,0,1,.22-1.43,4.1,4.1,0,0,0,.35-.95c.08-.41.06-.44-.16-.32a5.91,5.91,0,0,0-1.35,3C28.15,5.6,28.17,5.71,28.4,5.77ZM19.27,27.4a2.83,2.83,0,0,0,.28,1.27,2.2,2.2,0,0,0,1,.28c.74.07.78.09.78.45s-.06.39-.66.5S20,30,19.7,32c-.08.66-.07.72.19.72a1.8,1.8,0,0,1,.66.2c.44.23.61.18.52-.17,0-.15.06-.29.26-.39a5.08,5.08,0,0,0,1.91-1.26,14.19,14.19,0,0,0,2.11-3.26c.44-.84.9-1.67,1-1.86A15.63,15.63,0,0,0,28,22.08c0-.06-.12-.11-.25-.11-.36,0-.45-.13-.29-.43a4.49,4.49,0,0,0,.1-1.32l-.05-1.07-.42.85a7.79,7.79,0,0,0-.52,1.2,2.32,2.32,0,0,1-.5.79c-.5.55-.53.35-.15-.81a21.68,21.68,0,0,0,1-3.89c0-1.06-.49-1-.81,0-.19.63-.38.93-.59.93s-.12-.15.3-1.24a8,8,0,0,0,.59-2.91c-.07-.07-.27.2-.45.6s-.56,1.1-.83,1.55a16.38,16.38,0,0,0-.89,1.83,3.21,3.21,0,0,1-.62,1.14.74.74,0,0,0-.32.45c-.08.31-.46.59-.6.45a2.71,2.71,0,0,1,.41-.8c.81-1.28,1-1.74,2-5a6,6,0,0,0,.28-2.92c-.19-.19-.49.34-.76,1.4a12.22,12.22,0,0,0-.3,1.37,1.31,1.31,0,0,1-.5.69l-.49.41.07-.41c0-.22.23-.93.42-1.57.59-2,.62-3.34.08-2.68-.11.11-.26.3-.36.4a.7.7,0,0,0-.17.29,1.65,1.65,0,0,1-.27.44c-.4.49-.37.06.05-.76a7.3,7.3,0,0,0,.7-2.13c.1-.62.42-.68.91-.16s1,.76,1.23.6S26,9,25.46,8.52a2.63,2.63,0,0,1-.72-.88c0-.12-.16-.26-.35-.3-.46-.12-.45-.5,0-.5a.65.65,0,0,1,.58.4c.19.33.46.48,1.5.83l1.33.42s.09-.12.13-.27c.09-.35.44-.35.89,0s.54.26.22-.22a8.43,8.43,0,0,1-.6-1.35c-.22-.62-.42-1-.55-1s-.22-.24-.28-1.1l-.07-1.1-.18.62c-.11.34-.21.7-.24.79-.1.36-.33.17-.26-.2.23-1.06.23-1-.09-1a1,1,0,0,0-.55.53c-.3.55-.71.64-.78.17s-.06-.37-.59-.1c-.22.12-.37.28-.33.35s-.44.67-.65.67c-.06,0-.11-.14-.11-.33s0-.33-.37-.14c-.21.11-.75.36-1.2.57-1.66.77-3,2.12-3.27,3.24-.45,2.07-.47,4.23,0,4.23a.19.19,0,0,0,.2-.19c0-.31.28-.41.51-.18s.06.67-.47,1.14c-.3.26-.31.31-.17,1.09a11.71,11.71,0,0,1-.23,4,9.45,9.45,0,0,0-.13,2.49c.09,1.19.11,1.25.51,1.49s.37.27.24.43a.6.6,0,0,1-.41.2c-.41,0-.42.2-.07,1s.52,1,1.35,1.22c.52.13.7.13.86,0,.42-.34.33,0-.13.47s-.5.51-1.12.42l-.65-.1Zm5.1-18c-.14.14.07.51.29.51s.21-.06.21-.12S24.47,9.26,24.37,9.36ZM14.07,59.22s.08-.74.12-1.59c.08-1.46,0-2-.25-1.17C13.77,57.13,13.88,59.45,14.07,59.22ZM12.85,75.37c-.13.65.4,1,.93.62.21-.16.24-.58.29-4a31.73,31.73,0,0,1,.29-4.87,3.93,3.93,0,0,0,0-2.22c-.22-.23-.51,1.9-.56,4.1a11.8,11.8,0,0,1-.27,2.66,12.56,12.56,0,0,0-.32,2,3.53,3.53,0,0,1-.18,1.2S12.9,75.12,12.85,75.37ZM28.44,82a3.6,3.6,0,0,0-.9-2.21c-.79-1-2.56-1.9-2.87-1.4a3.07,3.07,0,0,1-1.21.06,4.72,4.72,0,0,1-2.09-.53,9.48,9.48,0,0,0-3.92-1c-1.35-.13-1.61-.12-1.9.07s-.37.18-.51,0-.23-.09-.37.13a.64.64,0,0,1-.47.29c-.36,0-.5.3-.38.79.07.28,0,.34-.12.27a.39.39,0,0,0-.35.06c-.16.17-.58-.36-.58-.74s-.39-.45-.73,0c-.51.59-1,.47-.78-.2.14-.49.13-.49-.56-.1-.46.26-.57.28-.67.12A.69.69,0,0,1,10,77c.18-.45.17-.47-.18-.42A.66.66,0,0,0,9.4,77c-.16.37-.41.4-.54.07-.24-.67-.52-1-.74-.92a3.26,3.26,0,0,1-.61.17c-.31,0-.4,0-.51-.31s-.19-.35-.6-.28-.51,0-.65-.14-.16-.26,0-.41c.53-.38.07-.76-.93-.76-.59,0-.65,0-1.11.68a3.3,3.3,0,0,1-.66.74C3,75.82,3,75.9,3,76s.22,0,.35-.12c.36-.32.72-.29.72,0,0,.17-.18.38-.46.55s-.88.91-.73,1.06.19,0,.34-.12.33-.14.43,0,.05.54-.34.74-.5.59-.32,1.11c.12.36.09.47-.28.93s-.37.59-.3.71.26,0,.7-.39C4.26,79.35,4,80,2,82.64a2,2,0,0,0-.48,1,1.27,1.27,0,0,0,.49.43,1.46,1.46,0,0,1,.54.57c.2.54,1.36,1,1.58.64s-.19-.62-.81-.81-.73-.27-.4-.89c.47-.91.47-.9.18-1.06S3,82,3.47,82.12s.91-.16.91-.49a.78.78,0,0,1,.26-.43.61.61,0,0,0,.19-.57c0-.2,0-.34.08-.34s.16-.1.16-.21a.25.25,0,0,1,.27-.21.73.73,0,0,0,.5-.34c.19-.3.3-.34.63-.27s.42,0,.48-.2.41-.37.77,0a1.47,1.47,0,0,0,1,.23c.67,0,.81,0,.92.28s.39.33.87.2c.12,0,.27.09.35.26.19.42.46.49.87.22s.36-.21.52,0a.63.63,0,0,1,.09.5c-.07.28.29.39.45.13s.48-.17.48,0,.13.17.41.13.42,0,.42.36,0,.5.57.21c.3-.15.46-.17.57-.07a.71.71,0,0,0,.47.15c.32,0,.42.2.17.35a.3.3,0,0,0-.13.23c0,.14.49.09,1-.1.19-.08.27,0,.33.21s.15.28.44.22a3.91,3.91,0,0,1,1.53-.09.59.59,0,0,1-.17.26c-.22.22,0,.21.72,0s1-.1.86.35.47.36.88,0,.59-.27.25.07-.2.28.26.07a.83.83,0,0,1,.56-.07c.18.07.19.13.05.35-.27.44,0,.51.61.18s1-.23.67.26c-.11.18-.13.34-.05.42s1-.73,1-1,.37-.17.48,0a1.31,1.31,0,0,1,0,.62c-.13.45-.12.48.18.48s.39-.14.6-.58a6.77,6.77,0,0,0,.38-1c.15-.62.53-.43.58.3s.05.59.31.35.34-.84.06-1.76a1.77,1.77,0,0,1-.12-.8c.13-.22.69.41.88,1S28.45,82.64,28.44,82ZM15.05,75c.07.56.28.77.4.41,0-.1.09-1.47.13-3.06.09-3.29-.06-4.79-.44-4.41A66.44,66.44,0,0,0,15.05,75Zm1.41-.35c0,.7.23.86.42.35a13.78,13.78,0,0,0,.43-3,4.17,4.17,0,0,0-.47-2.07C16.46,69.85,16.35,71.24,16.46,74.68Zm1.46,1.76a.34.34,0,0,0,.27-.13c0-.07,0-.09-.19,0C17.68,76.34,17.64,76.44,17.92,76.44ZM18,74.51c0,.92.12,1.1.52,1.1s.35,0,.26-.79a5.22,5.22,0,0,0-.65-2.17C18,72.57,18,73.26,18,74.51Zm2.74-.79c0-.84,0-.89-.15-.49s0,1.42.1,1.42A3.14,3.14,0,0,0,20.73,73.72ZM47.39,84.56c.09.33.21.34.48,0,.53-.61.33-1.11-.23-.58A.61.61,0,0,0,47.39,84.56Zm-1.2-1.06a.81.81,0,0,1-.27.43.84.84,0,0,0-.28.45c0,.33.85.07,1.28-.4.21-.22.34-.46.3-.53S46.19,83.28,46.19,83.5Zm-.27-.8c-.13-.09-1,.32-1,.47a1.17,1.17,0,0,1-.49.92c-.33.26-.35.31-.13.32A1.64,1.64,0,0,0,45,84l.74-.62C46.07,83.16,46.14,82.83,45.92,82.7ZM45,55.12a2.63,2.63,0,0,0-.91.31c-1.69.92-2.94,2.74-3.77,5.5-.13.42.16.26,1-.52l.78-.77.14.39c.19.49.09.64-.89,1.34a5.41,5.41,0,0,0-2.1,2.91,16,16,0,0,0-.52,4.14c0,.51.09,1.52.13,2.23A4.82,4.82,0,0,0,39,72.09a.83.83,0,0,1,.14.48,1,1,0,0,0,.21.58,1.07,1.07,0,0,1,.17.83c0,.57-.11.56-.31-.09a.2.2,0,0,0-.27-.12c-.16.06-.22.3-.22.93A24.09,24.09,0,0,1,38.42,78l-.09.41.26-.32a7.62,7.62,0,0,0,.62-2.83c0-.3.11-.57.21-.6s.17.18.17.83A7,7,0,0,1,39,78.6a2.25,2.25,0,0,0-.28.83s.24,0,.43-.08.34-.12.34.09.92.78,1.19.56.25-.12.33,0a.39.39,0,0,1-.26.61c-1.38.08-1.42.07-1.54-.25S39,80,38.94,80s-.73.43-.73.58A.74.74,0,0,1,38,81a3.16,3.16,0,0,0-.48,1.61c.08.37.49.26.9-.23.64-.76.8-.39.25.58s-.42,1,.28.33c.37-.36.71-.58.83-.53a.44.44,0,0,0,.4-.1c.22-.18.41-.09.41.19s.49.22,1-.25a1.77,1.77,0,0,1,.85-.49c.33,0,.33,0-.09.49s-.49.59-.3.89.19.15.51-.14l.46-.42a9,9,0,0,1,1.17-.68c.21,0,0,.31-.27.41a.81.81,0,0,0-.54.95.77.77,0,0,0,.13.29,9.23,9.23,0,0,0,1.85-1.6c0-.1-.25-.24-.55-.32a1.68,1.68,0,0,1-.91-.63,1,1,0,0,0-.69-.47c-.38,0-.42-.17-.12-.41a.69.69,0,0,0,.2-.44c0-.2-.08-.25-.36-.22s-.39,0-.42-.14,0-.17.15-.17c.3,0,.28-.54,0-.77s-.22-.2,0-.33.17-.17-.06-.35-.27-.2,0-.39.24-.22.07-.42-.16-.3.07-.71.23-.53.08-.77-.15-.31,0-.42.21-.23.14-.48a.64.64,0,0,1,.22-.66.68.68,0,0,0,.22-.52.63.63,0,0,1,.19-.51c.32-.37.32-.33,0-.62s-.2-.26.24-.61.44-.41.27-.62-.15-.28.27-.61.42-.44.36-.55-.17-.11-.37.07-.29.21-.33.17.36-1,.66-1.23a.42.42,0,0,0,.19-.46c-.09-.23-.12-.23-.45,0l-.34.23.28-.55a1.8,1.8,0,0,1,.52-.69c.13-.08.19-.15.12-.15s0-.1.05-.21a.36.36,0,0,0-.2-.62c-.32,0-.26-.18.2-.62s.51-.6.14-1.07a1.4,1.4,0,0,1-.27-.46,3.1,3.1,0,0,1,1.11-.76,2.91,2.91,0,0,0,.62-1.59s-.14.08-.21.27a.8.8,0,0,1-.45.45c-.9.26-.84.28-.73-.37.15-.91.37-1.19.93-1.12s.48,0,.9-.9a4.45,4.45,0,0,1,.57-1,2.42,2.42,0,0,0,0-1.56c-.17-.27-.43-.07-.43.34s-.06.33-.24.3a.39.39,0,0,1-.28-.32.8.8,0,0,0-.26-.43c-.3-.24-.11-.94.31-1.13.18-.08.33-.2.33-.26C47.13,56,45.71,55.12,45,55.12Zm-6.65,24a.37.37,0,0,0,.14-.29c0-.12-.06-.17-.14-.12a.37.37,0,0,0-.14.29C38.21,79.11,38.28,79.16,38.35,79.12Zm1-19.33a2.81,2.81,0,0,0,.41-.6,3.13,3.13,0,0,0,.36-.76c0-.25-.26-.16-.46.16S39.26,59.79,39.37,59.79Zm-6.94-5.1c-.16.43-.35.88-.42,1a1.08,1.08,0,0,0-.12.43q0,.19-.36.12c-.34-.07-.35-.1-.26-.7a4.27,4.27,0,0,1,1-2.13l.37-.4-.44.22A4.12,4.12,0,0,0,30.79,55c0,.34-.67,1-.84.81s.23-1.4.65-2c.28-.42.16-.56-.3-.35a2.14,2.14,0,0,1-.69.15,1.39,1.39,0,0,0-.59.16c-.32.2-.83.05-.61-.18a1.54,1.54,0,0,1,.58-.23c.24-.05.44-.15.44-.23a.91.91,0,0,1,.22-.38c.21-.23.2-.24-.31-.21a12.58,12.58,0,0,1-1.69-.08c-.94-.1-1.13-.16-1.09-.34s.47-.27,1.17,0c.38.12.47.11.54-.07s-.19-.45-.72-.46c-.68,0-1-.16-1.17-.49s-.78-.69-2.26-1.16a14.34,14.34,0,0,1-4.41-2c-.59-.52-.75-.44-.27.14a6.12,6.12,0,0,0,2.38,1.4.7.7,0,0,1,.45.21c.14.18.14.25,0,.42-.48.48-1.75-.12-3.78-1.79-.49-.4-.6-.43-.6-.18a2.77,2.77,0,0,1-.59.81,4.89,4.89,0,0,0-.91,1.44A8.9,8.9,0,0,0,15.52,53a5,5,0,0,1-.29,1.24c-.38,1.1-.46,1.57-.27,1.57s.56-.83.56-1.27.73-1.81.9-1.74.14.11-.2.94c-.68,1.65-1.47,10.15-1,10.64.11.11.56-.86.56-1.22s.4-.22.49.15a6.92,6.92,0,0,1-.06,1.56c-.31,2.38-.1,3.58.62,3.59.25,0,.62-1.46.68-2.67,0-1,.2-1.5.42-1.28a19.3,19.3,0,0,1,0,4.31c-.13,2.37-.07,2.94.28,2.94a.57.57,0,0,1,.4.24c.1.13.22.2.28.14a9.64,9.64,0,0,0,.42-1.44A7.14,7.14,0,0,0,19.56,68q-.09-1.32.06-1.41a.17.17,0,0,1,.24.07,25.3,25.3,0,0,1-.14,5.56c-.24,1.79-.24,2,0,2.67s.7,1.49.86,1.33a1.52,1.52,0,0,0-.19-.74,2.7,2.7,0,0,1-.24-2.27c.26-.78.48-1.13.48-.75,0,.13.06.23.14.23s.17-.37,0-.49-.11-.22-.06-.38a6.54,6.54,0,0,0,.07-1.29c0-.56,0-1,.11-1s.3.36.3,1a1.35,1.35,0,0,0,.14.71A8.08,8.08,0,0,1,21.59,73a5.27,5.27,0,0,0,1.19,3.36,2,2,0,0,0,1.93.33c.61-.18,1.31-.07,1.23.19a4.23,4.23,0,0,1-2.17.36c-.74,0-.95-.07-1.89-.76-.3-.22-.31-.21-.31.12a1,1,0,0,0,.42.7,1.16,1.16,0,0,1,.41.56c0,.12.06.22.14.22a.13.13,0,0,0,.13-.14c0-.07.14-.13.31-.12a3.83,3.83,0,0,0,.89-.12,4.52,4.52,0,0,1,3.58,1.14c.72.66,1,.76,1,.35a.77.77,0,0,0-.23-.49,3.21,3.21,0,0,1-.91-1.7c0-.45,0-.5.29-.47s1.26.73,1.26,1,.27.42.42,0a2.29,2.29,0,0,0-.42-2.08,1.85,1.85,0,0,1-.41-.62,2.12,2.12,0,0,0-.56-.68c-.5-.46-.62-.81-.27-.81a3.67,3.67,0,0,1,.77.68c.36.38.7.66.77.62.37-.24-.17-2.28-.81-3.06s-.52-1,0-.46c.17.16.35.26.39.22a3.1,3.1,0,0,0-.5-1.44,3.71,3.71,0,0,1-.42-.69,5.26,5.26,0,0,0-.71-1,2.2,2.2,0,0,1-.46-.68,1.75,1.75,0,0,0-.34-.61c-.4-.51-.44-.74-.13-.74.11,0,.31.19.44.44a5.24,5.24,0,0,0,.75,1,2.19,2.19,0,0,1,.52.67c0,.17.5.69.68.69s-.31-1.61-.65-1.83a.45.45,0,0,1-.17-.33A5,5,0,0,0,26.71,65a1.89,1.89,0,0,1-.41-.81,3,3,0,0,0-.42-1c-.17-.27-.29-.51-.26-.55s.48.17.77.89a4.44,4.44,0,0,0,.71,1.19,1.57,1.57,0,0,1,.39.52c0,.07.09.12.19.12s.18-.65-.06-1.37c-.06-.19-.15-.53-.2-.76a5,5,0,0,0-.28-.82c-.41-.9-.59-1.43-.52-1.5s.57.22.65.67a.85.85,0,0,0,.33.59,1.63,1.63,0,0,1,.48.37c.24.27.24.26.16-.48a5.32,5.32,0,0,1,0-1.78c.12-1,.23-1.19.53-.86s.26.71.36,2.45c.07,1.2.15,2.37.17,2.6s0,.41-.33.39-.38,0-.36.41a9.42,9.42,0,0,1-.09,1.25c-.09.65-.08.79.07.74a.78.78,0,0,0,.31-.46c.07-.22.39-1.09.72-1.92a7.17,7.17,0,0,0,.66-3l.07-1.52-.21.83c-.25.94-.25.95-.43.84s-.09-.25,0-.53.19-.81.27-1.25c.13-.65.19-.77.34-.64s.27,0,.6-.67a5.09,5.09,0,0,1,.54-.9c.19-.12.06.93-.26,2.22a12.92,12.92,0,0,0-.32,2.48,4.66,4.66,0,0,1-.26,1.75A15.32,15.32,0,0,0,29.55,67c0,.36.32.11.67-.52A16.6,16.6,0,0,0,31,64.7c.36-1,.46-1.18.6-1,.26.32-.3,1.59-1.84,4.15a2.36,2.36,0,0,0-.34.93c0,.73.37.4,1.16-1a3.74,3.74,0,0,1,.61-.93,3.75,3.75,0,0,0,.72-1.43,24.23,24.23,0,0,0,.5-5.63l0-2,.42-.7a2.59,2.59,0,0,1,.59-.76c.23-.07.22.46,0,.83a3,3,0,0,0-.28,2.23,17.19,17.19,0,0,1-.62,6.38c-.07.12-.38.84-.69,1.6S31.07,68.82,31,69a9.76,9.76,0,0,0-1,2.06.88.88,0,0,0,.11.39c.16.24,1.24-1.27,1.58-2.19a2.73,2.73,0,0,1,.54-.91c.32-.29,1-.52.85-.3a1.94,1.94,0,0,0-.14.51,7.39,7.39,0,0,1-.79,1.88,13.81,13.81,0,0,1-1.33,2.34A1.91,1.91,0,0,0,30.24,74c0,.77.36.38,1.44-1.55a7.61,7.61,0,0,1,1.07-1.58,4,4,0,0,0,.73-1.15,5.74,5.74,0,0,1,.61-1.08c.23-.14.15.5-.12,1a4.84,4.84,0,0,0-.43,1,3.61,3.61,0,0,1-.43.88,1.23,1.23,0,0,0-.26.49,7.93,7.93,0,0,1-.76,1.38,7.85,7.85,0,0,0-.75,1.39c0,.11-.06.19-.13.19s-.21.13-.29.29-.13.27.12.14a3.8,3.8,0,0,0,.77-.74l1-1.23a23.64,23.64,0,0,0,2.49-4.86c0-.44.32-.68.55-.4s0,1.37-1,3.3a17.34,17.34,0,0,0-.88,2,8,8,0,0,1-1.4,1.68,9,9,0,0,0-1.19,1.33,8.36,8.36,0,0,0,2.17-1.72,12.15,12.15,0,0,0,2.45-3.81c.18-.48.43-1.12.56-1.42a32.29,32.29,0,0,0,1.43-4.95c.09-.44.07-.59,0-.51a1.13,1.13,0,0,1-.47.1c-.31,0-.32,0-.24-.66a12.68,12.68,0,0,1,.51-1.87c.22-.65.48-1.4.55-1.66a4.1,4.1,0,0,1,.48-1l.69-1a8.66,8.66,0,0,1,2.25-2.18,10.5,10.5,0,0,0,1-.58,1.85,1.85,0,0,1,.76-.34c.33,0,.77-.3.77-.52s-.57-.47-1.05-.39c-.73.11-3.77,2.39-3.77,2.82a2.49,2.49,0,0,1-.35.67c-.26.38-.44.51-.65.47-.44-.07-.45-.11-.07-.6.18-.25.49-.73.69-1.07a7.62,7.62,0,0,1,2.27-2.13c.66-.43.72-.56.3-.7-.77-.24-2.07.53-2.84,1.67a3,3,0,0,1-.54.65,2.22,2.22,0,0,0-.48.72c-.33.72-.53.7-.4,0A4.43,4.43,0,0,1,38.81,54c.56-.55.76-.84.65-.91a10.35,10.35,0,0,0-2-.13l-1.78,0-.82.63c-1,.76-1.4.82-.57.09.34-.29.54-.57.47-.61a3,3,0,0,0-1.11.41C32.78,53.9,32.71,54,32.43,54.69Zm-4,14.73c-.08,0-.11.06-.06.14s.11.14.15.14.06-.06.06-.14A.15.15,0,0,0,28.44,69.42ZM28.28,51a1,1,0,0,0,.45-.05c0-.13-.54-.18-.71-.07S28,51,28.28,51Zm2.66,1.31.47-.2-.48,0c-.25,0-.49.11-.52.21S30.38,52.55,30.94,52.3Zm3.49-3.62a2.14,2.14,0,0,0-.68.37,3.9,3.9,0,0,1-.73.43,1.36,1.36,0,0,0-.37.21c-.23.18-.24.23-.09.33.32.19.87-.08,1.42-.71C34.26,49,34.47,48.71,34.43,48.68Zm3.9-15.16c.08-.22.1-.41,0-.41s-.43.61-.43.84S38.19,33.94,38.33,33.52ZM38,35.73a.14.14,0,0,0-.15.13c0,.08,0,.14.06.14s.1-.06.15-.14S38,35.73,38,35.73Zm.53-7.06c0-.24-.07-.18-.29.25a2.33,2.33,0,0,1-.47.66.37.37,0,0,0-.19.3.39.39,0,0,1-.18.3,2.73,2.73,0,0,0-.51.77c-.48.92-1.31,1.8-1.6,1.69s-.21-.1,0-.33a2.35,2.35,0,0,0,.37-.69c.09-.24.21-.43.28-.43a.12.12,0,0,0,.12-.13,2.92,2.92,0,0,1,.4-.73,5.48,5.48,0,0,0,.93-2.12c0-.05-.14.07-.21.26a.79.79,0,0,1-.34.42,3.12,3.12,0,0,0-.91,1.35.78.78,0,0,1-.19.39,3.91,3.91,0,0,0-.42,1,5.8,5.8,0,0,1-.62,1.3,3.59,3.59,0,0,0-.48,1,.76.76,0,0,1-.34.51.88.88,0,0,0-.4.39l-1,2.17a19.35,19.35,0,0,0-.91,2,5.51,5.51,0,0,1-.4,1c-.33.69-.51.91-.92,1.09-.62.28-.72.23-.35-.18a11.92,11.92,0,0,0,1-2.1c.39-1,1-2.39,1.31-3.1s.6-1.32.6-1.34-.15,0-.34,0c-.43.11-.43,0,0-.69a7.7,7.7,0,0,0,.56-1.32c.13-.41.29-.88.35-1A20.42,20.42,0,0,0,34,29.23c.06-.28,0-.41-.2-.52-.37-.2-.55-.07-.55.39a.91.91,0,0,1-.12.51,11.61,11.61,0,0,0-.43,1.83c-.32,1.68-.57,2.25-.87,2-.1-.1-.05-.41.17-1a4.28,4.28,0,0,0,.27-1.27c-.05-.39-.05-.39-.41.22-.2.34-.53.93-.74,1.31a12,12,0,0,1-.7,1.1,10.49,10.49,0,0,0-.67,1.1c-.2.38-.41.78-.48.9a2.38,2.38,0,0,0-.21.58c-.08.38-.88,1.41-1,1.28a1.32,1.32,0,0,1,.26-.58,5.6,5.6,0,0,0,.81-1.82,1.18,1.18,0,0,1,.2-.52,6.41,6.41,0,0,0,.47-1c.14-.37.57-1.33,1-2.13A8,8,0,0,0,31.82,28c.12-1.78-.35-1.16-.56.74-.15,1.35-.41,2.2-.68,2.25s-.22,0-.14-.35a13.3,13.3,0,0,0,.42-2.22c-.26-.25-1,1.35-1.25,2.77a1.41,1.41,0,0,1-.19.57,12.41,12.41,0,0,0-.84,1.55c-.88,1.77-1.55,2.86-1.84,3-.12,0-.21.06-.21,0s.24-.55.54-1.16A12.12,12.12,0,0,0,27.62,34a10.3,10.3,0,0,1,.6-1,7.67,7.67,0,0,0,1.25-3.26,8.4,8.4,0,0,0,.44-3c-.12-.46-.3-.33-.43.31a5.22,5.22,0,0,1-.36,1.1,6.37,6.37,0,0,0-.37,1.42c-.12.81-.33,1.25-.53,1.05,0-.05,0-.3.07-.55a3,3,0,0,0,.16-.83,1.58,1.58,0,0,1,.13-.62.46.46,0,0,0,0-.41c-.1-.15-.35.4-1.36,2.94a8,8,0,0,1-1.69,2.27L25,34l.32-.55a6,6,0,0,1,.54-.83,5.72,5.72,0,0,0,.59-1A27,27,0,0,0,28,27.43c0-.09-.18.17-.32.57A2.29,2.29,0,0,1,27,29c-.56.4-.5.06.24-1.37a14.58,14.58,0,0,0,.89-2.09c.15-.49.43-1.36.62-1.92.35-1,.37-1.66.08-1.66-.13,0-.42.85-.42,1.21a18.49,18.49,0,0,1-1.23,2.57c-.06.08-.53.95-1,1.93s-1.13,2.1-1.38,2.47a6.27,6.27,0,0,1-2.46,2.21,1.7,1.7,0,0,0-.9.68.79.79,0,0,1-.77.46,1.46,1.46,0,0,0-.67.17,9.75,9.75,0,0,0-.1,2.88,3.19,3.19,0,0,0,.56-.41c.69-.59.72-.36,0,.28-.52.49-.77,1.09-.46,1.09a8.36,8.36,0,0,0,1.47-1.38c.08-.11.39-.56.68-1,.58-.87.85-.86.32,0-.18.29-.44.77-.59,1.06a4.53,4.53,0,0,1-.62.91,24.78,24.78,0,0,0-1.84,2.55,1.66,1.66,0,0,0-.34.76c.07.21,1.46-.89,1.75-1.4s.56-.54.56-.28A17.76,17.76,0,0,1,19,41.23a.13.13,0,0,0-.13.14c0,.17.34.55.5.55a26.93,26.93,0,0,0,2.62-2.72.69.69,0,0,1,.41-.31c.39,0,.15.51-.65,1.37a11.12,11.12,0,0,0-1,1.26,7.8,7.8,0,0,1-.9,1.1A4,4,0,0,0,19,43.7a4.75,4.75,0,0,1-.54,1c-.77,1.17-.56,1.57.44.85.35-.25,1-.65,1.35-.9a5.64,5.64,0,0,0,1-.79c.18-.21.33-.29.39-.2s-.44.82-.66.82c-.38,0-2.29,1.57-2.12,1.74s1.44-.45,1.72-.84c.16-.23.3-.34.3-.25a.15.15,0,0,0,.14.17A12.1,12.1,0,0,0,23.31,43c.11-.21.26-.38.34-.38s.07.17-.55,1c-.28.34-.56.71-.63.81a21.45,21.45,0,0,1-2.41,2.39c-.34.11-.08.25.63.33a2.4,2.4,0,0,0,1.47-.28c.9-.4.93-.41.93-.22a.15.15,0,0,1-.15.14c-.26,0-1.12,1-1,1.18s.45.36,1.12.07.89-.35.89-.08a.24.24,0,0,1-.26.2.62.62,0,0,0-.42.2c-.25.31.11.75.75.92a8.54,8.54,0,0,1,1.26.48c.87.4,1.15.41,1.15.06s.17-.38,1.68-.5c.85-.06,1.2,0,1.2.06s-.11.16-.26.16a3.15,3.15,0,0,0-.86.27,3.35,3.35,0,0,1-1,.28c-.51,0-.65.12-.45.37s.14.23,1.12,0a2.26,2.26,0,0,1,1.49-.05c.86.22,1.42.1,1.32-.28s.25-.54.75-.54,3.57-1.95,3.36-2.17a3.51,3.51,0,0,0-1.49.63c-.21.18-.24.18-.24,0s.33-.37.73-.58a4.82,4.82,0,0,0,1.13-.77c.28-.3.47-.39.7-.33s.35,0,.52-.34a2.75,2.75,0,0,0,.22-.49c0-.22-.47,0-1.12.5A6.74,6.74,0,0,1,33,47.14a3.67,3.67,0,0,0-.86.48c-.72.5-1.12.61-1.11.31s.39-.66,1.59-1.28c2.24-1.15,3.28-1.85,3.77-2.53l.26-.38-.37.07a1.63,1.63,0,0,0-.74.43,4.53,4.53,0,0,1-.86.63c-.27.15-.49.32-.49.38s-.1.1-.21.1c-.4,0-.2-.27.4-.56A4.42,4.42,0,0,0,35.53,44a2.32,2.32,0,0,1,.69-.51,8.3,8.3,0,0,0,2-2.35c.44-.95.32-1.15-.26-.41a23.05,23.05,0,0,1-3.41,3.54c-.22.13-.77.51-1.21.83s-.91.58-1.14.54-.32-.11-.32-.17a3.08,3.08,0,0,1,.79-.64,26.07,26.07,0,0,0,3.71-3.54,8.41,8.41,0,0,0,1.52-2.85c0-.08-.29.2-.59.62a2.71,2.71,0,0,1-.7.77c-.09,0-.33.25-.54.55a2.12,2.12,0,0,1-.47.55s-.2.19-.33.41-.36.42-.51.42c-.34,0-.34-.17,0-.48a.83.83,0,0,0,.27-.42,2.86,2.86,0,0,1,.48-.79,3.71,3.71,0,0,0,.48-.73,2.24,2.24,0,0,1,.32-.53c.68-.93.73-1.55.07-.95-.29.27-.5.15-.26-.15a.34.34,0,0,0,.08-.36c-.06-.09-.33.23-.65.78C35,39.19,34.27,40,34,40s-.15-.62.69-2c.49-.81,1.17-2.06,1.54-2.77a15.4,15.4,0,0,1,.84-1.53.74.74,0,0,0,.19-.31,7.65,7.65,0,0,1,.42-1,3,3,0,0,0,.36-1c-.15-.16-1.6,2.32-1.61,2.75,0,.23-1.08,1.44-1.09,1.22a1.44,1.44,0,0,1,.3-.58c.16-.23.25-.45.21-.5s-.48.2-.57.58a.38.38,0,0,1-.36.34c-.15,0-.27,0-.27-.06a5.3,5.3,0,0,1,1-1.65,2.71,2.71,0,0,0,.58-.65l.53-.8c.12-.19.52-.92.86-1.62a9.06,9.06,0,0,1,.77-1.35A.48.48,0,0,0,38.48,28.67Zm-1.34,6.78s-.17.16-.25.34-.12.35-.06.35.17-.16.26-.35S37.2,35.45,37.14,35.45Zm-8.68-9.57c0,.15,0,.23.07.18s0-.16,0-.26S28.47,25.72,28.46,25.88Zm11.37.79-.72-.42c-.7-.43-1.07.28-.48.92.33.36.49.38.77.1a.77.77,0,0,1,.48-.21C40.23,27.06,40.21,26.87,39.83,26.67Zm.42.36.31.42a.87.87,0,0,1,.22.73.61.61,0,0,0,.16.57c.22.26.23.26.28,0a2.86,2.86,0,0,1,.46-.77l.41-.52-.39-.15a5.18,5.18,0,0,0-.92-.22Zm.49,9.54a1.63,1.63,0,0,0,.41-.68,2.42,2.42,0,0,1,.54-.88,10.87,10.87,0,0,0,.8-1c.18-.27.41-.5.5-.5s.22-.12.06-.37-.39.1-1.07.77a4.32,4.32,0,0,0-1.49,2.48l-.08.48Zm.57.77a2.63,2.63,0,0,1,.63-.82,3.83,3.83,0,0,0,.76-.9c.5-.78.84-1,1-.71s.29.05.12-.34-.36-.44-.74-.11a7.28,7.28,0,0,0-1.31,1.63,2.06,2.06,0,0,1-.32.6,2.9,2.9,0,0,0-.41.89C41,37.91,41,37.86,41.31,37.34Zm.88,1.34c-.29-.18-.06-.55,1.12-1.86s1.2-1.37.93-1.37a3.82,3.82,0,0,0-1.49,1.17,7.82,7.82,0,0,1-.47.8,10.54,10.54,0,0,0-1.18,2.66c0,.25.3.87.42.87s.14-.23.2-.51a5.8,5.8,0,0,1,.35-1.1C42.21,39,42.27,38.72,42.19,38.68Zm1-.75c-.08,0-.14.12-.14.28s.06.24.14.2a.4.4,0,0,0,.13-.29C43.3,38,43.24,37.93,43.17,37.93ZM43,39.06c.06-.18,0-.31-.05-.31s-.15,0-.15.11a4.39,4.39,0,0,1-.08.44C42.56,39.73,42.81,39.52,43,39.06Zm6.41.53a4.25,4.25,0,0,0-.83-1.8,4.13,4.13,0,0,0-1.36.87,1.32,1.32,0,0,1-.65.31,1.11,1.11,0,0,0-.64.33,1.35,1.35,0,0,1-.58.37c-.34.1-.44.24-.54.71s-.43.76-.58.36a3.76,3.76,0,0,1,.72-2.24c.27-.41.45-.78.4-.82s-1.15,1.07-1.25,1.44a.65.65,0,0,1-.33.39c-.38.12-.58.42-.7,1.07-.17.88,0,1.52.4,1.79a2.29,2.29,0,0,0,1.9,0,1.15,1.15,0,0,0,.37-.61c.1-.52.66-1.4.85-1.34s.22.75-.07,1.31-.25.74.38.48.66-.52.87-1.88c.16-1,.39-1.44.66-1.27a.6.6,0,0,1,.16.46,3.25,3.25,0,0,1-.27,1.88c-.19.4-.23.6-.12.73s.19.13.33,0a4.31,4.31,0,0,0,.6-1.93c0-.21.06-.39.14-.39S49.36,39.73,49.36,39.59Zm.4,2.36c0-.36,0-.37-.2-.12s-.16.5.08.5C49.71,42.33,49.77,42.16,49.76,42Zm1-6.22c.13,0,.07.53-.07.61a.4.4,0,0,0-.14.31c0,.18,0,.19.17.07s.66-.22.66,0a2,2,0,0,1-.43.63c-.24.27-.4.52-.37.56s.52-.09.52-.23.16-.13.35-.13c.39,0,.42.12.14.49s-.25.51.2.45c.63-.09.52.22-.34,1a3.15,3.15,0,0,0-.76.9c0,.23.26,0,1-.7.5-.52,1.15-.78,1.32-.52.05.09,0,.3-.23.48-.4.43-.36.43.78-.08L54.79,39c.15-.07.37-.15.48-.19s.14-.07,0-.08c-.43,0-.21-.46.28-.59s.55-.26.27-.5-.34-.11-.71,0-.57.1-.68,0-.07-.18.16-.24.31-.12.31-.18a3.18,3.18,0,0,0-1.45-.45c-.4,0-.41,0-.42-.78s-.05-.76-.38-.87c-.54-.18-.54-.75,0-1.38.38-.45.42-.65.12-.65-.11,0-.2,0-.2-.11s.32-.44.58-.44.24-.06.24-.14-.12-.13-.26-.13a.5.5,0,0,0-.36.13c-.11.19-.89.18-.89,0s.09-.18.21-.22c.36-.14.22-.27-.48-.45a3.33,3.33,0,0,0-2.12.16c-.43.22-1.52,1.32-1.42,1.43s.21,0,.35-.14.57-.3.57-.12-.11.17-.24.26c-.28.17-.68,1.23-.53,1.39s.35-.16.65-.48a2.5,2.5,0,0,1,.69-.59c.28,0,0,.7-.5,1.19s-.63.88-.37.88a2.39,2.39,0,0,0,.58-.5c.67-.69.92-.81,1.09-.49s0,.36-.34.79c-.62.72-.84,1.13-.67,1.29s.37-.09.78-.48A4.89,4.89,0,0,1,50.8,35.73ZM57,40.82a.4.4,0,0,0-.32.13c-.1.18.08.18.35,0S57.23,40.82,57,40.82ZM59.83,42a2.88,2.88,0,0,0,.56-1.61c0-.47-.06-.6-.51-1a2.35,2.35,0,0,0-2.11-.54c-.35,0-.91.11-1.23.14A7.25,7.25,0,0,0,53,40.81l-.86.69c-.23.19-.43.41-.43.48a1.62,1.62,0,0,1-.42.55,4.3,4.3,0,0,0-1,2.15c-.07.48,0,.54.38.8s1.63.4,1.63.1c0-.13-.22-.23-.6-.29S51,45.11,51,45a2.4,2.4,0,0,1,.17-1.72,6,6,0,0,0,.49-.77,1.87,1.87,0,0,1,.67-.67,4,4,0,0,0,.79-.53,7.82,7.82,0,0,1,2.1-1.17,2.08,2.08,0,0,0,.58-.23,5.22,5.22,0,0,1,2.36-.52c.77,0,.9,0,1.28.39s.54,1,.14,1.4a.63.63,0,0,0-.2.66C59.44,42.25,59.55,42.28,59.83,42Zm2.84,8.62a1.09,1.09,0,0,0-.18-.63c-.15-.23-.28-.31-.37-.22s0,.31.19.63S62.63,50.81,62.67,50.57ZM70.23,67.1a.88.88,0,0,0-.18-.49c-.25-.37-.48-.46-.48-.19S70.18,67.27,70.23,67.1ZM71.71,70a.14.14,0,0,0,.21,0,.15.15,0,0,0,0-.21.16.16,0,0,0-.21,0A.16.16,0,0,0,71.71,70Zm7.2,8.43a3.46,3.46,0,0,0-.88-.55c-.38-.17-.84-.41-1-.52a9.89,9.89,0,0,0-1-.5A3.89,3.89,0,0,1,75,76.12a14.53,14.53,0,0,1-1.54-1.8,2.53,2.53,0,0,0-.38-.61,7.06,7.06,0,0,1-1-2.15c0-.17-.43-.63-.59-.63s-.11.45-.07,1.13c.07,1.22,0,1.19,1.5,2.33a4.12,4.12,0,0,1,.92,1.31c.25.52.5,1,.56,1.15a1.6,1.6,0,0,0,.72.41c.33.12.67.26.76.31a6.66,6.66,0,0,0,1,.31,2.7,2.7,0,0,1,1.21.61c.22.23.44.39.48.37l.34-.13C79.06,78.65,79.07,78.6,78.91,78.41Zm-60-12c-.15,0-.22.35-.29,1.61A18.17,18.17,0,0,1,18.45,70c-.06.24,0,.31.11.26s.19-.24.17-.47a5.91,5.91,0,0,1,.1-1c.06-.3.14-1,.19-1.47C19.1,66.57,19.08,66.4,18.92,66.4Zm.16-2.07c-.15,0,0,.43.27.73s.43.31.43.07A1.62,1.62,0,0,0,19.08,64.33Zm-.26-.51c0-.2-.41-.63-.5-.54s0,.21.16.37S18.82,64,18.82,63.82Zm18.33-1.56A17.3,17.3,0,0,1,38,59.73c.16-.18.15-.62,0-.62a.15.15,0,0,0-.14.16,4.4,4.4,0,0,1-.34.88,9.88,9.88,0,0,0-.76,2.5C36.7,63,37,62.72,37.15,62.26Zm-2.87,5.79c.33,0,.64-2.1.35-2.28s-.37.11-.45,1.21C34.11,67.84,34.13,68.05,34.28,68.05Zm0-5.76c.1-.44,0-1.12-.21-1.12s-.31.88-.2,1.23S34.19,62.75,34.29,62.29Zm2.91-7.53a1.39,1.39,0,0,1,.42-.56.33.33,0,0,0,.18-.29c0-.17-.08-.14-.36.12a2.88,2.88,0,0,0-.74,1.15C36.7,55.43,37,55.18,37.2,54.76Zm-10.32,0a3,3,0,0,1-.4-.59c-.25-.49-.59-.8-.69-.64a1.58,1.58,0,0,0,.19.71,3.07,3.07,0,0,1,.27.81,5.92,5.92,0,0,0,.32,1c.18.46.37.94.41,1.08s.37.33.37.1.1-.14.22-.14.2-.08.13-.35A8.13,8.13,0,0,0,26.88,54.8ZM43.24,25.41c0-.25-.09-.36-.32-.39s-.53.25-.39.61a.35.35,0,0,0,.39.17C43.15,25.77,43.24,25.66,43.24,25.41Zm5.39,3.41c0-.32-.13-.6-.23-.63s-.14.08-.07.47a3,3,0,0,0,.16.64C48.63,29.54,48.68,29.36,48.63,28.82ZM38.53,13.66a2.22,2.22,0,0,1,1.31.52c.77.58,1,.61,1,.16s-.31-.59-1.28-.77c-1.48-.27-1.89-.3-1.89-.14s.05.16.11.16Zm7.28.79a7.21,7.21,0,0,1-.72.44l-1,.54c-.28.15-.5.32-.5.38s.6.14.76,0a21.76,21.76,0,0,1,3.37-1.39c.4,0,.45-.26.08-.36A3.85,3.85,0,0,0,45.81,14.45Zm-1.39.28c.16-.19.15-.21-.08-.17a.43.43,0,0,0-.31.23C43.94,15,44.2,15,44.42,14.73Zm.26-.3c0,.16.15.15.84-.09a6.34,6.34,0,0,0,1.9-.93c0-.19-.81-.1-1.52.17S44.68,14.21,44.68,14.43Zm-7.09.86c.12.65.52.9,1.68,1l1,.13c.12,0,.25-.35.25-.73s-.69-1.18-1-1.18-.19.07-.09.36a2.12,2.12,0,0,1,.14.42,2.63,2.63,0,0,1-.76,0c-.64,0-.75-.08-.75-.3a.86.86,0,0,0-.71-.77c-.3,0-.35.35-.07.46C37.41,14.77,37.53,15,37.59,15.29ZM35.38,27.34a.19.19,0,0,0-.19.2c0,.13.13.21.36.21s.33,0,.19-.21A.6.6,0,0,0,35.38,27.34ZM25.84,24.7c0-.31-.32,0-1.2,1.16A8.53,8.53,0,0,0,23.23,28,17.31,17.31,0,0,0,25.84,24.7ZM27.62,7.4c0-.33-.28-.83-.47-.83s-.28.31-.07.69S27.62,7.64,27.62,7.4Zm-4.37,8.11c-.07,0-.17.1-.22.21s0,.2.08.17S23.43,15.51,23.25,15.51ZM7.57,77.12a2,2,0,0,1-.83-.53c-.55-.5-.61-.52-1-.38a4.58,4.58,0,0,0-.62.27c-.23.15-.21.71,0,1.2s.51.52.84-.08a.66.66,0,0,1,1-.16c.48.41,1.7.66,1.88.38S8,77.12,7.57,77.12ZM60.74,66.89a2.42,2.42,0,0,0-.1-1.09c-.17-.18-.19.65,0,1.49C60.69,67.8,60.71,67.76,60.74,66.89ZM59.9,47.11l-.48-.37.21.42a1.12,1.12,0,0,0,.39.48.87.87,0,0,1,.26.55,4.15,4.15,0,0,0,.24.81c.09.19.21.3.27.26C61.15,49,60.57,47.65,59.9,47.11Zm.65,5.08c-.11-.7-.84-2.2-1-2.09s.33,1,.56,1.1a1.8,1.8,0,0,1,.21.72,4.78,4.78,0,0,0,.15.76C60.59,52.92,60.63,52.74,60.55,52.19Zm-5.92-6.85a4.56,4.56,0,0,1,.5,1c0,.09,0,.15.08.15.22,0-.5-1.83-.79-2S54.17,44.59,54.63,45.34Zm3.8-.13a3.46,3.46,0,0,0,.44.76,3.65,3.65,0,0,0,.5.62c.13,0-.15-.76-.41-1.13S58.43,45,58.43,45.21Zm2.19,20.24c.13-.21,0-1.12-.14-1.12s-.15.22,0,.82C60.49,65.4,60.58,65.53,60.62,65.45ZM63,75.82a1.68,1.68,0,0,0-.12.48c0,.18,0,.18.12,0a1.07,1.07,0,0,0,.13-.48v-.28Zm.32-.77c.05-.18,0-.26-.09-.23s-.18.2-.21.37C62.94,75.57,63.18,75.46,63.29,75.05Zm-2.38-5.89a1.26,1.26,0,0,0,.1.6c.17.16.21-.58.05-.85S60.92,68.75,60.91,69.16Zm1-16.88a.2.2,0,0,0-.21-.19c-.11,0-.2.06-.2.12a.58.58,0,0,0,.2.3.53.53,0,0,1,.21.35,1.61,1.61,0,0,0,.34.58,1.5,1.5,0,0,1,.35.77c0,.2.06.36.14.36.29,0,.11-.69-.35-1.38A3.32,3.32,0,0,1,61.87,52.28Zm.91,3c.12,0,.19-.07.16-.16-.09-.25-.38-.29-.38-.05A.21.21,0,0,0,62.78,55.25Zm.81,18.13c-.08,0-.14.31-.15.65,0,.51,0,.59.18.46S63.81,73.32,63.59,73.38Zm.75,7.44a1.73,1.73,0,0,1-.48.79,1.62,1.62,0,0,0-.61,1.1c0,.31.33.15.38-.19a1.52,1.52,0,0,1,.36-.61,2.4,2.4,0,0,0,.73-1.48C64.79,79.82,64.6,80,64.34,80.82Zm.54-19.59a.46.46,0,0,1-.12-.33c0-.26-.37-.65-.5-.52a2,2,0,0,0,.18.78,1.89,1.89,0,0,0,.34.7C64.92,61.86,65,61.31,64.88,61.23ZM59,85c-1.09,0-1.64.24-1.46.53,0,.07.24.09.44,0s.69-.14,1.09-.2a2.19,2.19,0,0,0,.89-.26C60.1,85,59.86,85,59,85Zm3.67-20.14a2.25,2.25,0,0,1-.21-.9,8.65,8.65,0,0,0-.55-2.61,2.29,2.29,0,0,1-.2-.61,2.45,2.45,0,0,0-.48-1.28c-.14,0-.14.07,0,.6a5,5,0,0,0,.26.79,18.82,18.82,0,0,1,.58,2,11.27,11.27,0,0,1,.14,1.23,4.79,4.79,0,0,0,.2,1.19,13.44,13.44,0,0,1,.41,1.7c.27,1.4.26,2.32,0,2.49a.49.49,0,0,0-.12.37c0,.42.19.14.4-.56A7.5,7.5,0,0,0,62.69,64.87Zm-3.6,16.52a1.23,1.23,0,0,0-.61.47,1.64,1.64,0,0,1-.8.57,1.17,1.17,0,0,0-.59.34,2.42,2.42,0,0,1-2,.74c-1,0-1.51.24-1.51.6,0,.21.15.23,1.2.21l1.35,0a2.08,2.08,0,0,0,1-1.06.59.59,0,0,1,.54-.61C58.05,82.61,59.39,81.39,59.09,81.39ZM45.26,86.54s0,.11,0,.19a12.52,12.52,0,0,0,3.25-.07c.47-.08.48-.08.14-.21A14.14,14.14,0,0,0,45.26,86.54Zm7.13-.41a.35.35,0,0,0-.09.33c.06.09.25.08.53,0A5.35,5.35,0,0,1,54,86.26c.92,0,1-.07.62-.2A3.78,3.78,0,0,0,52.39,86.13Zm9.08-14.45a.36.36,0,0,0,0,.35c.1.38.18.35.18-.07C61.6,71.76,61.54,71.64,61.47,71.68ZM62,79.81c-.08,0-.14.25-.14.46a1.78,1.78,0,0,1-1.25,1.87,2.78,2.78,0,0,0-.89.63c-.34.35-.45.54-.32.54A1.1,1.1,0,0,0,60,83a4.48,4.48,0,0,1,.95-.67,1.87,1.87,0,0,0,.81-.71l.3-.63C62.19,80.61,62.18,79.7,62,79.81Zm-.68-8.54c0,.14,0,.22.07.18a.25.25,0,0,0,0-.27C61.37,71.07,61.34,71.11,61.33,71.27Zm3.51-8.9a.26.26,0,0,0,0-.26c0-.11-.07-.08-.08.08S64.8,62.42,64.84,62.37Zm15,19.77c.47.21.77.21.82,0a3,3,0,0,0-1.39-.56C79.12,81.7,79.37,82,79.8,82.14ZM67.1,71.21c0,.08,0,.14.06.14s.1-.06.14-.14,0-.14-.06-.14A.14.14,0,0,0,67.1,71.21ZM45,23.7c0,.12.13.2.34.2.38,0,.44-.16.14-.41S45,23.41,45,23.7Zm23.9,51.69c-.17-.17-.19-.13-.19.29s.15.64.29.19A.5.5,0,0,0,68.86,75.39Zm.3,7.79c-.34,0-.34,0,.12.41s.71.51.71.19S69.58,83.19,69.16,83.18Zm.2-11.39c.07.5.15.66.34.66s.24-.1.18-.72c-.07-.78-.36-1.48-.6-1.48s-.13-.2-.08-.56,0-.53-.13-.39a.71.71,0,0,0-.18.52c0,.54,0,.57-.34.43s-.37-.07-.49.07c-.24.29,0,.52.41.43S69.24,71,69.36,71.79ZM66.78,68a1,1,0,0,1-.24-.69c.13-1.56-.22-2.41-1.1-2.67-.52-.16-.53-.17-.58-.93l0-.77,0,.92,0,.92.48.23a1.57,1.57,0,0,1,1,1.85,2.07,2.07,0,0,0,.48,1.75,2.72,2.72,0,0,1,.57,1.89l0,.28.21-.28a.67.67,0,0,0,.12-.55c0-.15-.11-.43-.15-.62A3,3,0,0,0,66.78,68Zm5.68,11.68a.48.48,0,0,0,.09.29c.13.13.32.11.32,0a.56.56,0,0,0-.2-.29C72.5,79.46,72.46,79.47,72.46,79.63Zm3.71.43c0-.29-1.18-1.17-3.18-2.37a1.41,1.41,0,0,1-.66-.76A8.33,8.33,0,0,0,71,74.79a2.76,2.76,0,0,1-.46-.74c-.17-.45-.54-.45-.71,0-.09.25,0,.43.46,1a6.35,6.35,0,0,1,.82,1.22,5,5,0,0,0,.76,1.13,14.86,14.86,0,0,0,2.94,2.09,4.26,4.26,0,0,1,1.36,1.31.29.29,0,0,0,.18.25c.35.12.43-.18.13-.5A1.15,1.15,0,0,1,76.17,80.06Zm-4.65,0c-.15-.6-.49-1-.66-.88s0,.2.11.33a5.28,5.28,0,0,1,.52.9c.17.36.36.65.43.65s.15-.24-.06-.32S71.61,80.45,71.52,80.11ZM77,82.29c-.53-.16-.34.15.28.46s.74.34.86.15S77.78,82.52,77,82.29Zm-11.92-5.1C65,77,65,77,64.93,77.11a4,4,0,0,0,.52,1.34,5,5,0,0,0,.7,1.15c.15,0-.24-1-.63-1.65A5.49,5.49,0,0,1,65.11,77.19Zm-17-54.14c.1-.38,0-.53-.32-.53a.5.5,0,0,0-.34.69A.38.38,0,0,0,48.16,23.05Z"/><path class="cls-1" d="M58.45,78.07a3.1,3.1,0,0,0-.43-.59c-.24-.09.13-.42.76-.68a2.3,2.3,0,0,0,.76-.44c.08-.21-.36-.32-1-.28a3.24,3.24,0,0,1-.7,0,.93.93,0,0,1-.18-.44,1.24,1.24,0,0,0-.21-.52c-.17-.16-.47.08-.62.49-.07.19-.17.36-.22.37A51.89,51.89,0,0,1,53,72.21c-.44-.5-.93-1-1.08-1.15a3.25,3.25,0,0,1-.47-.53,1.35,1.35,0,0,0-.33-.32.41.41,0,0,1-.21-.25c-.06-.17,0-.23.47-.42.79-.33.88-.74.13-.65a2.89,2.89,0,0,1-.75,0c-.4-.09-.44-.12-.59-.52-.23-.62-.31-.69-.53-.45s-.21.19-.34,0-.14-.21-.12-.24a1.51,1.51,0,0,0-.32-.46,1.4,1.4,0,0,1-.32-.46,3.8,3.8,0,0,1,.65-.39c.59-.31.72-.5.43-.61a.76.76,0,0,0-.34,0,6.26,6.26,0,0,1-.69,0l-.48,0-.24-.59c-.32-.8-.53-.81-.74,0l-.14.58-.37,0a34.55,34.55,0,0,1-4.87-.38c-3.86-.45-3.89-.46-3.91-.55s.18-.17.42-.27c.66-.26.7-.65.06-.59a4.54,4.54,0,0,1-.79,0L37,63.85l-.26-.54c-.33-.73-.53-.73-.79,0l-.2.53-.68.07c-.9.1-.95.29-.2.79.47.32.53.39.42.54l-.77,1.18c-.36.55-.9,1.32-1.2,1.71l-1.16,1.52a9.68,9.68,0,0,1-1.27,1.47s-.13-.16-.21-.39c-.17-.49-.44-.57-.6-.16l-.1.27-.17-.44c-.14-.4-.48-1.79-1.19-5-.25-1.11-1.4-6.69-2.05-9.93-.17-.81-.36-1.73-.43-2.05s-.25-1.28-.4-2.11-.36-1.75-.45-2c-.27-.92,0-1.11.81-.61.46.28.48.28.56.06s0-.24,0-.25-.63-.8-.56-.89a2.36,2.36,0,0,1,.48-.28c.61-.29,1-.6.92-.8s-.08-.17-.41-.13c-.9.1-.94,0-.28-.58s.79-.51.68-.08.18.5.66,0,.45-.44.83-.3a4.09,4.09,0,0,1,.89.56,2.06,2.06,0,0,0,.57.39c.15-.07.08-.49-.11-.71a3,3,0,0,1-.53-1,8,8,0,0,1,.73-.4c.6-.29.72-.39.7-.56a.25.25,0,0,0-.26-.24c-.13,0-.53,0-.9-.08l-.66-.07-.24-.58A2,2,0,0,1,29,41.65c.05-.31.1-.92.13-1.35s.11-1.29.17-1.89.13-1.4.15-1.76c.06-.86.1-.95.41-.95a3.5,3.5,0,0,1,1.46.85c.07.08.39.38.7.66s.92.89,1.37,1.34.82.83.84.84.66.62,1.63,1.6a15.38,15.38,0,0,0,1.29,1.19,5.65,5.65,0,0,1,.69.63,8.73,8.73,0,0,0,.63.72c.31.33.52.65.48.7a.73.73,0,0,1-.44.08c-.37,0-.64.2-.43.36l.73.61.63.52-.19.69a3.15,3.15,0,0,0-.16.77c0,.09.72-.2,1.14-.49a1.08,1.08,0,0,1,.49-.23,2.59,2.59,0,0,1,.74.44,3.06,3.06,0,0,0,.68.41c.19,0,.11-.43-.17-.88a1.19,1.19,0,0,1-.25-.63A4.82,4.82,0,0,1,44.13,45c1.51-.2,2.1-.29,4.07-.59,3.29-.51,3.58-.54,3.63-.36a2.12,2.12,0,0,1-.25.77c-.22.47-.27.65-.2.78s.16.1.46-.17a3.89,3.89,0,0,1,.81-.56l.46-.22.65.49c.36.27.71.54.78.61a.17.17,0,0,0,.26,0c.08-.09.06-.29-.07-.6-.34-.82-.47-1.28-.4-1.46s.34-.27.75-.4.7-.27.75-.42,0-.29-.58-.31a9.56,9.56,0,0,1-1-.09c-.54-.07-.56-.08-.65-.36a2.61,2.61,0,0,1-.08-.64c0-.22-.05-.37-.16-.41s-.21,0-.44.55-.32.63-.69.77a1.16,1.16,0,0,1-.63.08,2.66,2.66,0,0,0-.68-.1,2.62,2.62,0,0,1-.71-.1L50,42.16l.24.23a1.55,1.55,0,0,1,.31.44.71.71,0,0,0,.44.35c.2.07.35.18.33.23a14.52,14.52,0,0,1-2,.4c-1.09.17-2.3.38-2.69.46-2.22.45-5,.52-5.47.13a.82.82,0,0,1-.17-.44c-.06-.47-.46-.58-.54-.15,0,.24-.35.59-.48.54a4.4,4.4,0,0,1-.66-.57,4.54,4.54,0,0,0-.6-.55s-.48-.45-1-1-.93-.94-.95-1-.34-.32-.7-.68-.74-.74-.85-.83a8,8,0,0,1-.61-.56c-.22-.22-.58-.56-.8-.76a19.27,19.27,0,0,1-2-2.14,2,2,0,0,0-.33-.43,3.41,3.41,0,0,1-.5-.69l-.23-.41.93-.38a3.92,3.92,0,0,0,1-.48c.06-.16-.35-.3-.79-.27-.23,0-.44,0-.45,0a3.61,3.61,0,0,1,.83-1.08c.67-.7.81-.85,1.08-1.16s.91-1,1.69-1.86,1.93-2.09,2.55-2.78c.85-.94,1.2-1.26,1.38-1.27a.57.57,0,0,0,.34-.13,5.46,5.46,0,0,1,1.38-.91,2.09,2.09,0,0,1,.87.33l.83.44a.18.18,0,0,0,.27-.09c.07-.13,0-.35-.44-.9l-.54-.73.83-.39c.85-.39,1.12-.67.76-.77a7.53,7.53,0,0,0-1-.09,2.05,2.05,0,0,1-.8-.13,12.89,12.89,0,0,1,1.23-2.38l1.6-2.82,2.16-3.74c.56-.94,1.07-1.87,1.14-2s.27-.4,1-.75c1-.46.87-.48,2.07.32a2.35,2.35,0,0,0,.6.34c.19-.08,0-.47-.42-.89a3.25,3.25,0,0,1-.59-.74c-.13-.34,0-.42.93-.6a4.34,4.34,0,0,0,.7-.16c.15-.4-.45-.68-1.15-.54a1.59,1.59,0,0,1-.73,0c-.24-.08-.25-.13-.14-.43a2.52,2.52,0,0,1,1-1.28l.31-.12.57.48a4.89,4.89,0,0,0,.66.51c.18.07.16-.42-.05-.9s-.16-.65.79-1c.54-.21.62-.27.57-.44s-.13-.19-.85-.13a4.58,4.58,0,0,1-.9,0,2.36,2.36,0,0,1-.4-.71c-.38-.84-.59-.89-.76-.16l-.11.49-.54,0c-1,.06-1.1.08-1.15.22s0,.21.15.29l.6.44.38.29-.16.64c-.21.81-.31,1-.48.64a.5.5,0,0,0-.3-.26c-.16,0-.22.06-.41.59-.25.69-.36.77-1,.67s-1,0-1.05.18.06.25.55.55c.81.49.89.62.63.94A10.75,10.75,0,0,0,47.19,11c-.59,1.22-1,2-1.46,2.76-.18.29-.64,1.09-1,1.78s-.82,1.46-1,1.7-.42.73-.6,1.08-.67,1.2-1.09,1.89-.77,1.31-.79,1.36-.29,0-.39-.37c-.17-.62-.39-.54-.76.26s-.4.82-1.66.66a2.31,2.31,0,0,0-.75,0,.1.1,0,0,0,.07.11s.07.1,0,.18,0,.18.22.25a4.27,4.27,0,0,1,.82.52c.74.57.72.71-.24,1.72a12.62,12.62,0,0,0-.86,1c-.07.09-.51.61-1,1.15s-1.07,1.24-1.35,1.55-.9,1-1.39,1.54-1,1.06-1.06,1.18a30,30,0,0,1-2.39,2.45c-.16.08-.2.06-.31-.16a3,3,0,0,1-.21-.64c-.07-.39-.35-.61-.51-.42a3.22,3.22,0,0,0-.25.7c-.19.65-.23.67-1.13.61-.69-.05-1,0-1.12.23s0,.21.19.29a7,7,0,0,1,.74.41c.56.36.58.58.11,1.25-.6.85-.51,1,.33.55.3-.16.56-.24.59-.18a1.42,1.42,0,0,1,0,.52c0,.23-.07.82-.1,1.32s-.12,1.49-.2,2.2a5.54,5.54,0,0,1-.52,2.18l-.39.88-.42,0c-.79,0-.8,0-.91.25s-.08.28.27.42a2.17,2.17,0,0,1,.59.32l.21.19-.66.59A12.17,12.17,0,0,1,26,46c-.26.19-.28.19-.36,0a1.79,1.79,0,0,1-.11-.47.34.34,0,0,0-.21-.28c-.14,0-.23.08-.49.66a3.58,3.58,0,0,1-.39.73,2.07,2.07,0,0,1-.5,0,4.38,4.38,0,0,0-1.29.13,2.19,2.19,0,0,0,.49.35,5.88,5.88,0,0,1,.81.6l.31.29-.25.59c-.29.66-.29.92,0,.83a.4.4,0,0,0,.22-.17.91.91,0,0,1,.3-.27l.26-.16.37,1.72c.94,4.35,1.22,5.71,1.26,6.07a6.18,6.18,0,0,0,.17.91c.08.28.26,1.06.39,1.74s.42,2,.64,3,.41,2,.43,2.25a7.44,7.44,0,0,0,.22,1.11c.1.37.25,1,.33,1.36s.2.87.27,1.09.18.76.26,1.19a6.41,6.41,0,0,0,.29,1.13,1.54,1.54,0,0,1,.17,1c0,.07-.29.12-.58.12-.59,0-.9.11-.81.31a2.12,2.12,0,0,0,.58.44c1,.56.94.52.8.92s-.19.85-.07.94a1.74,1.74,0,0,0,.72-.35,1.72,1.72,0,0,1,.8-.35,6.7,6.7,0,0,1,.76.49c.34.25.63.41.68.37s-.06-.44-.46-1.06a1.61,1.61,0,0,1-.22-.47,3.72,3.72,0,0,1,.65-.42c.86-.48.79-.63-.33-.73-1-.08-1-.09-.42-.77.16-.2.52-.69.8-1.09s.67-.94.88-1.19l1.14-1.45c.72-.94.77-1,.88-.78s.12.2.31.1a3.32,3.32,0,0,0,.5-.43l.31-.3.71.32a5.5,5.5,0,0,1,.86.46c.11.1.15.08.22-.1s0-.3-.31-.61-.39-.42-.37-.46a2.57,2.57,0,0,1,.92,0c.49.08,1.45.16,2.13.19a20.92,20.92,0,0,1,5.3.81,2.55,2.55,0,0,1,.75.45,1.27,1.27,0,0,1-.15.68c-.18.45-.19.53,0,.59a1.17,1.17,0,0,0,.64-.24.87.87,0,0,1,.88-.19c.81.21,1.52.87,1.17,1.07a.47.47,0,0,1-.35,0c-.2-.08-.64,0-.69.19s0,.1.11.13a2.2,2.2,0,0,1,.46.35c.31.28.32.32.17.71s-.19,1,0,1a1.43,1.43,0,0,0,.53-.44l.39-.44.4.18a2.34,2.34,0,0,1,.63.44,1.08,1.08,0,0,0,.51.3,8.41,8.41,0,0,1,2,2l.81.89c2.09,2.24,2.06,2.2,1.23,2.19-.26,0-.5.06-.53.13s.23.33.63.64a7.83,7.83,0,0,1,.7.56,3,3,0,0,1-.22.66c-.34.81-.14.92.48.29.33-.34.47-.42.58-.33a10.37,10.37,0,0,0,1.78.88c.13,0,.21-.29.09-.33A2.6,2.6,0,0,1,58.45,78.07ZM52,42.9a1,1,0,0,0,1-.1c.12-.18.16-.18.27,0a.31.31,0,0,0,.38.14.84.84,0,0,1,.39,0c.15.06.14.07-.07.18s-.22.15-.21.51c0,.59,0,.62-.46.37a.88.88,0,0,0-.59-.15c-.16.05-.18,0-.14-.08s-.16-.46-.57-.62c-.19-.07-.33-.17-.31-.22S51.83,42.85,52,42.9ZM40.19,45.39c.08-.1.21-.29.3-.42.19-.33.3-.23.38.38A2,2,0,0,0,41,46c.13.17-.67-.05-.83-.23A.23.23,0,0,1,40.19,45.39Zm-.44,1c0-.09.11-.15.16-.13s.11.05-.07.19S39.7,46.57,39.75,46.43Zm11-40.92A.54.54,0,0,1,51,5.18a.38.38,0,0,0,.17-.3c0-.12,0-.2.09-.19a1.55,1.55,0,0,1,.26.45c.15.33.15.45,0,.56a.35.35,0,0,1-.32.06.53.53,0,0,0-.33,0c-.08,0-.15.05-.14,0A2.43,2.43,0,0,1,50.8,5.51Zm-2.08,3a.81.81,0,0,0,.39-.3c.09-.23.25.1.31.63s.07.57-.26.48a.48.48,0,0,0-.33.1c-.17.11-.2.1-.16,0a.7.7,0,0,0-.12-.45l-.16-.31Zm-.26,1.42c.07,0,.1,0,.09.07a.2.2,0,0,1-.16.12c-.06,0-.1,0-.08-.07A.23.23,0,0,1,48.46,9.88ZM41,23.93c-.13,0-.18-.09-.1-.09a.44.44,0,0,1,.24.09C41.22,24,41.16,24,41,23.93ZM39.72,22.7a.66.66,0,0,0,.77-.47l.16-.32.08.44.07.43h.44a1.39,1.39,0,0,1,.53.07c.14.12-.3.3-.52.22a.47.47,0,0,0-.55.27.31.31,0,0,1-.36.11c-.2,0-.27-.12-.28-.34s-.07-.28-.35-.34l-.33-.08Zm-10.82,12c-.52-.32-.49-.43.08-.32.36.08.4.06.61-.3l.21-.38.14.36c.07.2.09.39,0,.42a.42.42,0,0,0-.05.3c0,.2,0,.22-.2.14s-.27,0-.3,0S29.18,34.84,28.9,34.67Zm-.54,9.25a.65.65,0,0,0,.29-.47l.06-.32.22.46c.21.42.26.75.09.52s-.15.07,0,.26a.5.5,0,0,1,.07.25c-.06.15-.22,0-.34-.24a.44.44,0,0,0-.35-.27C28.14,44.08,28.14,44.08,28.36,43.92ZM25,47.82c-.16.15-.28.06-.2-.15a.41.41,0,0,0-.09-.37l-.16-.19.3-.13a.59.59,0,0,1,.6,0c.34.19.33.21-.05.5Zm6.33,24.29c.42-.09.46,0,.06.2a.59.59,0,0,0-.29.2.65.65,0,0,0,.16.38l.19.27L31,72.94c-.33-.17-.46-.2-.56-.11s-.18.07-.41-.26a1.53,1.53,0,0,0-.41-.43c-.12,0-.11-.07,0-.15a.37.37,0,0,1,.3,0c.14,0,.2,0,.31-.4s.26-.22.29.12S30.83,72.2,31.29,72.11Zm5.26-7.19c-.31.21-.4.24-.42.11s-.17-.24-.37-.32c-.41-.17-.57-.41-.26-.39.62,0,.72,0,.76-.26s.19-.34.37.09c.09.21.21.37.26.36S36.93,64.65,36.55,64.92Zm11.11,1.91c-.19.12-.21.11-.27-.07a.94.94,0,0,0-.26-.35l-.19-.15.32-.13c.28-.12.35-.11.53.07S48,66.64,47.66,66.83ZM49.9,69.6a.59.59,0,0,1-.5-.15c-.14-.16-.14-.17.07-.23a1.09,1.09,0,0,1,.54.07C50.4,69.46,50.36,69.58,49.9,69.6Zm7.82,7.14c-.4.51-.42.59-.23.72s.12.32-.26.1c-1.09-.63-1.51-1.11-.81-.92.23.06.35,0,.42-.09.22-.38.28-.42.38-.24a.52.52,0,0,0,.38.2C57.85,76.54,57.86,76.56,57.72,76.74Z"/></g></g></svg>