<svg xmlns="http://www.w3.org/2000/svg" viewBox="0 0 119.41 108.59"><defs><style>.cls-1{fill:#1d1d1b;}</style></defs><title>Asset 442</title><g id="Layer_2" data-name="Layer 2"><g id="Layer_1-2" data-name="Layer 1"><path class="cls-1" d="M6.78,78.89a.59.59,0,0,1-.26-.07.54.54,0,0,1-.21-.73l8.37-15a.54.54,0,0,1,.94.53l-8.37,15A.53.53,0,0,1,6.78,78.89ZM26.25,92.44a.53.53,0,0,0-.28-.7L7,83.52a.54.54,0,0,0-.42,1l19,8.21a.52.52,0,0,0,.71-.28Zm12.8-.58L51.92,80a.54.54,0,0,0-.73-.79L38.32,91.07a.55.55,0,0,0,0,.76.56.56,0,0,0,.4.17A.54.54,0,0,0,39.05,91.86ZM51.88,74.57a.52.52,0,0,0,.09-.75L42.26,61.51a.53.53,0,0,0-.75-.08.52.52,0,0,0-.09.75l9.71,12.3a.53.53,0,0,0,.42.21A.5.5,0,0,0,51.88,74.57ZM43.1,57.32,61.61,46.07a.54.54,0,0,0,.18-.74.54.54,0,0,0-.74-.18L42.54,56.4a.54.54,0,0,0,.28,1A.6.6,0,0,0,43.1,57.32ZM69,41.74l8.46-4.29a.54.54,0,0,0,.23-.73.53.53,0,0,0-.72-.23l-8.45,4.3a.53.53,0,0,0-.24.72.55.55,0,0,0,.48.29A.53.53,0,0,0,69,41.74Zm17.12-13.5,3.74-13.52a.53.53,0,0,0-.37-.66.54.54,0,0,0-.66.37L85.08,28a.53.53,0,0,0,.37.66.36.36,0,0,0,.14,0A.53.53,0,0,0,86.11,28.24ZM102.28,33a.54.54,0,0,0-.51-.56l-12.41-.55a.53.53,0,0,0-.56.51.54.54,0,0,0,.51.56l12.41.55h0A.53.53,0,0,0,102.28,33ZM89.66,29.91l17.06-13.17a.54.54,0,0,0-.66-.85L89,29.06a.53.53,0,0,0-.1.75.54.54,0,0,0,.43.21A.54.54,0,0,0,89.66,29.91ZM17.11,55.3c-1.14.29-.53-2-2.08-1.18L16.2,56.7c-1.21,0-2.29,0-3.36,0s-2.06-.71-3.13-.11c.22.8.78.75,1.28.75h4.7c.33,0,.66,0,1.11.08-.83,1.26-2.42,1.7-2.7,3.48,1.4-.31,1.79-1.8,3.08-2,0,.66,0,1.22,0,1.78s-.11,1.35-.07,2c.06,1,.26,1.94.3,2.92.07,1.35,0,2.71.1,4.06a3.93,3.93,0,0,0,.31,1l.44,0a9.66,9.66,0,0,0,.16-1.41c-.07-2.81-.16-5.62-.25-8.43,0-.6-.07-1.23.57-1.66,1,.67,1.27,2,2.38,2.38.63-.42.45-.85.13-1.23s-.8-.83-1.18-1.25-1.1-.83-1-1.79a4.87,4.87,0,0,1,1.34-.19,32.89,32.89,0,0,1,3.68.63c.64.15,1.1.2,1.42-.7a41.44,41.44,0,0,0-6.07-.72c.65-1,1.19-1.85,1.87-2.89-1.61-.08-1.53,1.52-2.58,1.86.06-.71.12-1.37.21-2.35l-1.29,1.22c0-2.61,0-4.89,0-7.17,0-.48.32-1-.72-1.38A62.73,62.73,0,0,0,17.11,55.3ZM30.73,93.19c-1.14.28-.53-2-2.08-1.19l1.18,2.59c-1.22,0-2.29,0-3.37,0s-2.05-.7-3.13-.1c.22.79.78.74,1.29.74,1.56,0,3.13,0,4.69,0,.33,0,.66.05,1.12.08C29.59,96.58,28,97,27.72,98.8c1.4-.3,1.79-1.8,3.08-2,0,.66,0,1.22,0,1.79s-.11,1.35-.07,2c.06,1,.26,2,.31,2.92.07,1.35,0,2.71.09,4.07a4.17,4.17,0,0,0,.31,1l.44,0a9.69,9.69,0,0,0,.17-1.41c-.07-2.81-.17-5.62-.26-8.43,0-.61-.07-1.24.57-1.67,1,.67,1.27,2,2.38,2.38.64-.42.45-.85.13-1.23s-.79-.83-1.18-1.25-1.09-.83-1-1.78A4.77,4.77,0,0,1,34,95a32.89,32.89,0,0,1,3.68.63c.65.16,1.1.21,1.43-.7a44.69,44.69,0,0,0-6.08-.72l1.87-2.89c-1.61-.07-1.52,1.52-2.58,1.86l.22-2.34L31.27,92c0-2.62,0-4.89,0-7.17,0-.49.32-1-.72-1.39A62.88,62.88,0,0,0,30.73,93.19ZM82.78,31.94c-1.14.29-.53-2-2.09-1.18.38.82.73,1.6,1.18,2.58-1.21,0-2.29,0-3.36,0s-2.06-.7-3.14-.1c.23.8.78.74,1.29.75h4.69c.33,0,.66,0,1.12.09-.83,1.25-2.42,1.7-2.7,3.48,1.4-.31,1.78-1.8,3.08-2,0,.67,0,1.23,0,1.79s-.1,1.35-.06,2c.06,1,.25,1.94.3,2.91.07,1.36,0,2.72.09,4.07a4.38,4.38,0,0,0,.32,1l.43,0a9.69,9.69,0,0,0,.17-1.41c-.07-2.81-.17-5.62-.25-8.43,0-.61-.07-1.23.56-1.67,1,.68,1.28,2,2.39,2.39.63-.42.45-.85.12-1.24s-.79-.82-1.18-1.24-1.09-.83-1-1.79a5.17,5.17,0,0,1,1.33-.2,35.12,35.12,0,0,1,3.69.64c.64.15,1.1.2,1.42-.7a43,43,0,0,0-6.08-.73c.66-1,1.2-1.85,1.87-2.89-1.61-.07-1.52,1.53-2.58,1.87l.22-2.35-1.3,1.22c0-2.61,0-4.89,0-7.17,0-.48.33-1-.71-1.38A60.38,60.38,0,0,0,82.78,31.94ZM111,9.73c-1.14.28-.53-2-2.09-1.19.38.82.74,1.61,1.18,2.58-1.21,0-2.29,0-3.36,0s-2.06-.7-3.14-.1c.23.79.78.74,1.29.74h4.7c.32,0,.65.05,1.11.08-.83,1.26-2.42,1.7-2.7,3.48,1.4-.31,1.79-1.8,3.08-2,0,.66,0,1.22,0,1.78s-.11,1.35-.07,2c.06,1,.25,1.94.3,2.92.07,1.35,0,2.71.09,4.06a4.38,4.38,0,0,0,.32,1l.43,0a9.69,9.69,0,0,0,.17-1.41c-.07-2.81-.17-5.62-.25-8.43,0-.6-.07-1.23.56-1.66,1,.67,1.28,1.95,2.39,2.38.63-.42.45-.85.12-1.23s-.79-.83-1.17-1.25-1.1-.83-1-1.79a4.8,4.8,0,0,1,1.33-.19,32.68,32.68,0,0,1,3.69.63c.64.15,1.1.2,1.42-.7a41.44,41.44,0,0,0-6.07-.72l1.86-2.89c-1.61-.08-1.52,1.52-2.58,1.86l.22-2.35-1.29,1.23c0-2.62,0-4.9,0-7.18,0-.48.32-1-.72-1.38A61.66,61.66,0,0,0,111,9.73ZM60.58,42.86c.27.11.54.24.82.33a18.82,18.82,0,0,1,2,.63c1.44.66,1.15.43,1.1,1.87,0,.69,0,1.38,0,2.2,0,.52.4-.2.44-.29a12,12,0,0,0,.47-1.31c.22-.81.46-1.5,1.46-1.72a14.43,14.43,0,0,0,2.66-.65c.63-.22-.92-.67-1.15-.77-.4-.17-.82-.31-1.23-.45a2,2,0,0,1-1.41-2c0-.75.07-1.5.13-2.25,0-.27.1-.56-.37-.66-.06.18-.14.33-.18.5-.2.92-.46,1.82-.58,2.75S64,42.28,63.24,42.4c-.37.06-.76,0-1.13.06l-1.46.11C60.42,42.59,60.2,42.68,60.58,42.86ZM35.17,58.37c.27.11.53.25.81.34a16.11,16.11,0,0,1,2,.62c1.44.66,1.15.43,1.1,1.88,0,.68,0,1.37.05,2.19.06.53.4-.2.44-.28A12.81,12.81,0,0,0,40,61.81c.22-.81.47-1.51,1.46-1.73a13.67,13.67,0,0,0,2.66-.65c.63-.21-.91-.67-1.15-.77-.4-.17-.82-.31-1.23-.45a2,2,0,0,1-1.41-2c0-.75.08-1.5.13-2.24,0-.28.11-.57-.36-.67a4.55,4.55,0,0,0-.19.5c-.2.92-.45,1.83-.58,2.75s-.73,1.24-1.52,1.36a10.55,10.55,0,0,1-1.13.06l-1.46.11C35,58.1,34.79,58.19,35.17,58.37Zm52.26-47c.27.11.54.24.82.33a18.78,18.78,0,0,1,2,.62c1.44.66,1.15.44,1.1,1.88,0,.69,0,1.37.05,2.19,0,.53.4-.19.43-.28a12.06,12.06,0,0,0,.48-1.31c.22-.81.46-1.51,1.46-1.72a14.63,14.63,0,0,0,2.66-.65c.62-.22-.92-.67-1.15-.77-.4-.17-.82-.31-1.24-.45a2,2,0,0,1-1.41-2c0-.75.08-1.5.13-2.25,0-.27.11-.56-.36-.66a5,5,0,0,0-.18.5c-.21.91-.46,1.82-.58,2.75s-.74,1.23-1.53,1.36c-.37.06-.75,0-1.12.06l-1.46.1C87.27,11.09,87.05,11.18,87.43,11.36Zm15.75,21.71a8.33,8.33,0,0,0,.82.34,18.78,18.78,0,0,1,2,.62c1.44.66,1.15.43,1.1,1.88,0,.68,0,1.37.05,2.19,0,.53.4-.2.43-.28a10.28,10.28,0,0,0,.48-1.31c.22-.81.46-1.51,1.46-1.73a13.67,13.67,0,0,0,2.66-.65c.62-.21-.92-.67-1.15-.76a13.12,13.12,0,0,0-1.24-.46,1.94,1.94,0,0,1-1.4-2c0-.74.07-1.49.13-2.24,0-.28.1-.56-.37-.67-.06.18-.14.34-.18.51-.2.91-.46,1.82-.58,2.75s-.74,1.23-1.53,1.36c-.36.05-.75,0-1.12.05l-1.46.11C103,32.8,102.8,32.9,103.18,33.07ZM50.35,76.77c.27.11.53.24.81.33a18.1,18.1,0,0,1,2,.63c1.44.66,1.16.43,1.11,1.87,0,.69,0,1.38,0,2.2.06.53.4-.2.44-.29a10.09,10.09,0,0,0,.47-1.3c.22-.81.47-1.51,1.47-1.73a14.54,14.54,0,0,0,2.65-.65c.63-.22-.91-.67-1.14-.77-.41-.17-.82-.31-1.24-.45a2,2,0,0,1-1.41-2c0-.75.08-1.5.13-2.25,0-.27.11-.56-.36-.66a3.9,3.9,0,0,0-.19.5c-.2.92-.45,1.83-.57,2.75s-.74,1.24-1.53,1.36c-.37.06-.75,0-1.13.06l-1.46.11C50.19,76.5,50,76.59,50.35,76.77Zm-50.14,4c.27.11.53.25.81.34a16.11,16.11,0,0,1,2,.62c1.44.66,1.15.43,1.1,1.88,0,.68,0,1.37,0,2.19.06.53.4-.2.44-.28a12.81,12.81,0,0,0,.47-1.31c.22-.81.47-1.51,1.46-1.73a13.67,13.67,0,0,0,2.66-.65c.63-.21-.91-.67-1.15-.77-.4-.17-.82-.31-1.23-.45a2,2,0,0,1-1.41-2c0-.75.08-1.49.13-2.24,0-.28.1-.57-.36-.67a4.55,4.55,0,0,0-.19.5c-.2.92-.45,1.83-.58,2.75s-.73,1.24-1.52,1.36a10.55,10.55,0,0,1-1.13.06l-1.46.11C.05,80.46-.17,80.56.21,80.73Z"/><path class="cls-1" d="M70.18,63.72A3,3,0,0,1,67,66.86c-.91,0-1.44-.27-2.1-.27a1.13,1.13,0,0,0-.41,0s0-.22,0-.44c0-.42-.06-.87-.06-1.31a2.89,2.89,0,0,1,.16-1h.14a4.34,4.34,0,0,0,.06.63,2.13,2.13,0,0,0,2.22,2,1.81,1.81,0,0,0,2-1.9c0-2.82-4.5-2.56-4.5-5.79A2.78,2.78,0,0,1,67.4,55.9c.77,0,1.27.24,1.89.24a1.31,1.31,0,0,0,.51-.09c0,.36,0,.82,0,1.27,0,.23,0,.65,0,1.07h-.16c-.32-1.52-1.16-2.09-2.18-2.09a1.57,1.57,0,0,0-1.76,1.64C65.67,60.65,70.18,60.26,70.18,63.72ZM74.84,60c.92,0,1.19.61,1.24,1.4h1.41a2.33,2.33,0,0,0-2.55-1.69,3.48,3.48,0,0,0-3.62,3.58,3.39,3.39,0,0,0,3.46,3.56,2.93,2.93,0,0,0,2.55-1.33l-.1-.1a2.42,2.42,0,0,1-1.84.8c-1.51,0-2.56-1.19-2.56-3.25C72.83,61.39,73.46,60,74.84,60ZM85.5,63.27a3.47,3.47,0,0,1-3.61,3.53,3.41,3.41,0,0,1-3.57-3.48,3.59,3.59,0,0,1,7.18,0Zm-1.62,0c0-2-.4-3.31-2-3.31s-2,1.53-2,3.29.35,3.21,2,3.21S83.88,65.06,83.88,63.32Zm6.25-3.6a2.52,2.52,0,0,0-1.67.93v-.93a4.77,4.77,0,0,1-1.83.39v.15c.44.12.46.33.46,1.05v4c0,1.16-.19,1.24-.63,1.32v.15c.32,0,.77,0,1.31,0s1,0,1.31,0v-.15c-.44-.08-.62-.16-.62-1.32V61.06a1.18,1.18,0,0,1,.88-.51c.35,0,.59.2.59.8h1.34C91.27,60.21,90.86,59.72,90.13,59.72Zm9,3.52a3.43,3.43,0,0,1-3.48,3.56,3.07,3.07,0,0,1-1.75-.51v2.26c0,1.16.19,1.23.62,1.32V70c-.32,0-.77,0-1.31,0s-1,0-1.31,0v-.15c.44-.09.63-.16.63-1.32V61.31c0-.72,0-1-.54-1.05v-.15a4.76,4.76,0,0,0,1.91-.39v.67a3.14,3.14,0,0,1,2-.67A3.31,3.31,0,0,1,99.09,63.24Zm-1.62.11c0-2-.71-3.21-2.08-3.21a2.14,2.14,0,0,0-1.53.67v5a2.2,2.2,0,0,0,1.56.61C96.51,66.42,97.47,65.65,97.47,63.35Zm4.6,1.92V59.76a4.55,4.55,0,0,1-1.82.38v.15c.44.11.45.35.45,1.05v3.93c0,1.16-.19,1.24-.62,1.32v.15c.32,0,.77,0,1.31,0s1,0,1.31,0v-.15C102.26,66.51,102.07,66.43,102.07,65.27Zm-.64-6.37a.69.69,0,0,0,.73-.68.72.72,0,1,0-1.43,0A.69.69,0,0,0,101.43,58.9Zm9.36,4.37a3.47,3.47,0,0,1-3.61,3.53,3.41,3.41,0,0,1-3.57-3.48,3.59,3.59,0,0,1,7.18,0Zm-1.61,0c0-2-.41-3.31-2-3.31s-2,1.53-2,3.29.35,3.21,2,3.21S109.18,65.06,109.18,63.32Z"/></g></g></svg>