<svg xmlns="http://www.w3.org/2000/svg" viewBox="0 0 92.75 65.41"><defs><style>.cls-1{fill:#1d1d1b;}</style></defs><title>Asset 403</title><g id="Layer_2" data-name="Layer 2"><g id="Layer_1-2" data-name="Layer 1"><path class="cls-1" d="M25.21,38.88a.4.4,0,0,1-.08.57L16.8,45.82a.4.4,0,0,1-.25.09.42.42,0,0,1-.32-.16.41.41,0,0,1,.07-.57l8.34-6.37A.4.4,0,0,1,25.21,38.88ZM8.82,23.8a.39.39,0,0,0,.11.56L24.66,35.15a.48.48,0,0,0,.23.07.39.39,0,0,0,.33-.18.4.4,0,0,0-.1-.56L9.39,23.69A.41.41,0,0,0,8.82,23.8ZM40.26,7.52,10.37,17.11a.41.41,0,0,0-.26.51.4.4,0,0,0,.38.28h.13l29.89-9.6a.41.41,0,0,0,.26-.51A.4.4,0,0,0,40.26,7.52ZM58.88,22.37a.44.44,0,0,0,.22.07.43.43,0,0,0,.34-.18l4.72-7a.41.41,0,0,0-.11-.57.41.41,0,0,0-.56.11l-4.72,7A.41.41,0,0,0,58.88,22.37Zm.19,4.56a.4.4,0,0,0-.37.44l.79,8.34a.39.39,0,0,0,.4.36h0a.4.4,0,0,0,.36-.44l-.78-8.34A.4.4,0,0,0,59.07,26.93Zm16.39-7.26a.4.4,0,0,0,.25-.09.4.4,0,0,0,.08-.56l-4.25-5.7a.41.41,0,1,0-.65.49l4.25,5.69A.4.4,0,0,0,75.46,19.67Zm11.8,16.4a.46.46,0,0,0,.23-.06.41.41,0,0,0,.11-.57L80.29,24.32a.41.41,0,0,0-.57-.11.4.4,0,0,0-.11.56l7.31,11.12A.41.41,0,0,0,87.26,36.07ZM49.35,11.17a.39.39,0,0,0,.3-.13.41.41,0,0,0,0-.58L46.48,7.6a.41.41,0,0,0-.58,0,.4.4,0,0,0,0,.57l3.15,2.87A.38.38,0,0,0,49.35,11.17ZM55,13.49a.41.41,0,0,0,.4.32h.08l7.32-1.58a.4.4,0,0,0,.31-.48.4.4,0,0,0-.48-.31L55.32,13A.4.4,0,0,0,55,13.49ZM69.34,10.2c-.33-.37-.83-.63-.75-1.35a3.53,3.53,0,0,1,1-.15,26,26,0,0,1,2.78.47c.49.12.83.16,1.08-.52a32.68,32.68,0,0,0-4.6-.55c.5-.76.91-1.4,1.42-2.19-1.22,0-1.15,1.15-2,1.41,0-.53.09-1,.16-1.77l-1,.92c0-2,0-3.7,0-5.42,0-.37.24-.78-.55-1a47.36,47.36,0,0,0,.13,7.36c-.86.21-.4-1.53-1.57-.9l.89,2c-.92,0-1.74,0-2.55,0s-1.55-.53-2.37-.07c.17.6.59.56,1,.56H66c.25,0,.49,0,.84.06-.63.95-1.83,1.29-2.05,2.63,1.06-.23,1.36-1.36,2.34-1.53,0,.5,0,.92,0,1.35s-.08,1-.05,1.52c.05.74.2,1.47.23,2.21,0,1,0,2,.07,3.08a3.33,3.33,0,0,0,.24.78L68,19a10.06,10.06,0,0,0,.13-1.07c-.06-2.13-.13-4.25-.2-6.38,0-.46-.05-.93.43-1.26.73.51,1,1.48,1.81,1.8.48-.32.34-.64.09-.93S69.63,10.52,69.34,10.2ZM64.52,37.62c-1.22-.06-1.15,1.15-1.95,1.41,0-.54.1-1,.16-1.78l-1,.93c0-2,0-3.7,0-5.43,0-.36.25-.78-.54-1a47.21,47.21,0,0,0,.13,7.35c-.86.22-.4-1.52-1.58-.9l.89,2c-.92,0-1.73,0-2.54,0s-1.56-.53-2.37-.08c.17.6.59.56,1,.57h3.55c.25,0,.5,0,.85.06-.64,1-1.84,1.28-2,2.63,1.06-.23,1.35-1.36,2.33-1.54,0,.5,0,.93,0,1.35s-.08,1,0,1.53c0,.74.19,1.47.23,2.21.05,1,0,2,.07,3.07a3.16,3.16,0,0,0,.23.78l.33,0a6.38,6.38,0,0,0,.13-1.07c-.05-2.12-.13-4.25-.19-6.37,0-.46,0-.94.43-1.26.72.51,1,1.48,1.8,1.8.48-.32.34-.64.1-.93s-.6-.63-.9-1-.82-.63-.75-1.35a4.05,4.05,0,0,1,1-.15,26.22,26.22,0,0,1,2.79.48c.48.12.83.16,1.08-.53a33,33,0,0,0-4.6-.54ZM15.79,45.93c-1.22,0-1.15,1.15-1.95,1.41L14,45.57l-1,.92c0-2,0-3.7,0-5.42,0-.37.25-.78-.54-1a47.36,47.36,0,0,0,.13,7.36c-.86.21-.4-1.53-1.58-.9.29.62.55,1.22.89,2-.92,0-1.73,0-2.54,0S7.83,47.91,7,48.37c.17.6.59.56,1,.56h3.55c.25,0,.5,0,.85.06-.64.95-1.84,1.29-2.05,2.63,1.06-.23,1.35-1.36,2.33-1.53,0,.5,0,.92,0,1.35s-.08,1-.05,1.53c0,.73.19,1.46.23,2.2.05,1,0,2,.07,3.08a3.29,3.29,0,0,0,.23.78l.33,0a6.65,6.65,0,0,0,.13-1.07c0-2.13-.13-4.25-.19-6.38,0-.46-.05-.93.43-1.26.72.51,1,1.48,1.8,1.8.48-.32.34-.64.1-.93s-.6-.62-.9-.94-.82-.63-.75-1.35a3.64,3.64,0,0,1,1-.15,23.92,23.92,0,0,1,2.79.48c.48.11.83.15,1.08-.53a33,33,0,0,0-4.6-.55ZM8.63,23.14c.48-.32.34-.64.1-.93s-.6-.63-.89-.95-.83-.62-.76-1.34a3.64,3.64,0,0,1,1-.15,26.2,26.2,0,0,1,2.79.47c.49.12.83.16,1.08-.52a32.85,32.85,0,0,0-4.6-.55L8.78,17c-1.22-.05-1.16,1.15-2,1.41,0-.53.1-1,.17-1.77l-1,.92c0-2,0-3.7,0-5.42,0-.37.25-.78-.54-1a47.36,47.36,0,0,0,.13,7.36c-.86.21-.4-1.53-1.58-.9.29.62.56,1.21.89,1.95-.91,0-1.73,0-2.54,0S.81,19,0,19.42c.17.6.59.56,1,.56,1.19,0,2.37,0,3.55,0,.25,0,.5,0,.85.06-.63.95-1.83,1.29-2.05,2.63,1.06-.23,1.36-1.36,2.33-1.54,0,.51,0,.93,0,1.36s-.08,1-.05,1.52c.05.74.19,1.47.23,2.21,0,1,0,2.05.07,3.08a2.92,2.92,0,0,0,.24.78l.33,0A8,8,0,0,0,6.59,29c0-2.13-.12-4.25-.19-6.38,0-.46-.05-.93.43-1.26C7.56,21.85,7.79,22.82,8.63,23.14ZM45.84,5.89c-.31-.13-.63-.24-.94-.34A1.5,1.5,0,0,1,43.83,4c0-.56.06-1.13.1-1.69,0-.21.08-.43-.27-.51,0,.14-.11.26-.14.38-.15.69-.35,1.38-.44,2.08s-.56.94-1.15,1a8.11,8.11,0,0,1-.86,0L40,5.45c-.17,0-.34.09,0,.22s.41.18.62.25A15.16,15.16,0,0,1,42,6.39c1.09.5.87.33.83,1.42,0,.52,0,1,0,1.66,0,.4.3-.15.33-.21.13-.33.26-.65.36-1,.16-.61.35-1.14,1.1-1.31a10.83,10.83,0,0,0,2-.49C47.18,6.31,46,6,45.84,5.89ZM29.35,37.16c-.3-.13-.62-.23-.93-.34a1.49,1.49,0,0,1-1.07-1.52c0-.56.06-1.13.1-1.69,0-.21.08-.43-.27-.51-.05.14-.11.26-.14.38-.16.7-.35,1.38-.44,2.08s-.56.94-1.15,1a8.11,8.11,0,0,1-.86,0l-1.1.08c-.17,0-.34.09,0,.22s.4.18.61.25a14.54,14.54,0,0,1,1.5.47c1.09.5.87.33.83,1.42,0,.52,0,1,0,1.66,0,.4.3-.15.33-.21a9,9,0,0,0,.35-1c.17-.61.36-1.14,1.11-1.31a10.09,10.09,0,0,0,2-.49C30.7,37.58,29.53,37.24,29.35,37.16ZM54,11.88c-.33-.05-.66-.07-1-.1a1.48,1.48,0,0,1-1.42-1.19c-.14-.55-.23-1.11-.33-1.67,0-.21,0-.43-.39-.42,0,.14,0,.27,0,.4,0,.71,0,1.42.1,2.13s-.31,1-.86,1.28a7.63,7.63,0,0,1-.81.26l-1,.35c-.16.06-.31.17,0,.23s.44.08.66.09a13.47,13.47,0,0,1,1.56.08c1.18.21.92.1,1.16,1.17.12.5.28,1,.46,1.59.14.38.25-.22.26-.29a8.93,8.93,0,0,0,.1-1c0-.64,0-1.2.74-1.55a9.92,9.92,0,0,0,1.82-1C55.43,12,54.22,11.91,54,11.88ZM57.09,26.6c0,.52,0,1,0,1.66,0,.4.3-.15.33-.21a7.35,7.35,0,0,0,.36-1c.18-.61.36-1.14,1.12-1.3a11,11,0,0,0,2-.48c.47-.16-.69-.51-.87-.58s-.62-.24-.93-.35a1.49,1.49,0,0,1-1.06-1.52c0-.57.07-1.14.12-1.7,0-.21.08-.43-.27-.51a2.7,2.7,0,0,0-.15.38c-.16.69-.35,1.38-.45,2.08s-.57.93-1.16,1c-.28,0-.57,0-.86,0l-1.1.07c-.17,0-.34.09,0,.22a6.57,6.57,0,0,0,.61.26,12.33,12.33,0,0,1,1.49.48C57.36,25.68,57.14,25.51,57.09,26.6Zm23.32-5.18c-.3-.13-.62-.23-.93-.34a1.47,1.47,0,0,1-1.07-1.51c0-.57.06-1.13.1-1.7,0-.21.08-.42-.27-.5a1.46,1.46,0,0,0-.14.38c-.16.69-.35,1.38-.44,2.08s-.56.93-1.16,1c-.28,0-.57,0-.85,0l-1.1.08c-.17,0-.34.09,0,.22a6.57,6.57,0,0,0,.61.26,12.45,12.45,0,0,1,1.5.47c1.08.5.87.33.83,1.42,0,.52,0,1,0,1.66,0,.4.3-.15.32-.22a6.88,6.88,0,0,0,.36-1c.17-.61.35-1.14,1.11-1.3a10.83,10.83,0,0,0,2-.49C81.75,21.84,80.59,21.5,80.41,21.42ZM91.76,37.9c-.3-.13-.62-.23-.93-.34a1.49,1.49,0,0,1-1.07-1.51c0-.57.06-1.14.1-1.7,0-.21.08-.43-.27-.5a2.92,2.92,0,0,0-.14.38A20.76,20.76,0,0,0,89,36.31c-.09.71-.56.93-1.15,1a8.11,8.11,0,0,1-.86.05l-1.1.08c-.17,0-.34.09-.05.22a5.36,5.36,0,0,0,.62.25c.49.17,1,.26,1.49.47,1.09.51.87.33.83,1.42,0,.52,0,1,0,1.66,0,.4.3-.14.33-.21.13-.32.26-.65.36-1,.16-.61.35-1.14,1.1-1.31a10.09,10.09,0,0,0,2-.49C93.11,38.32,91.94,38,91.76,37.9Z"/><path class="cls-1" d="M33.78,61.53l-2.17-6.8h-.23l-2.19,5.73c-.7,1.82-.92,2.17-1.56,2.36v.11l.81,0,1.08,0v-.11a.5.5,0,0,1-.46-.55,5.07,5.07,0,0,1,.44-1.54l.23-.62h2.38l.36,1.14a4.72,4.72,0,0,1,.3,1.15c0,.23-.12.37-.48.42v.11l1.23,0,1.08,0v-.11C34.21,62.72,34.08,62.46,33.78,61.53Zm-2.92-1.82h-1l1.14-3,.95,3Zm9.2,4.59V59.21c0-.92,0-1.16.35-1.35l0-.1a3,3,0,0,1-.73.08c-.72,0-1-.22-1.77-.22a2.65,2.65,0,0,0-2.79,2.76A2.57,2.57,0,0,0,39,62.6v1.7c0,.88-.15.93-.48,1v.11l1,0,1,0V65.3C40.2,65.23,40.06,65.18,40.06,64.3Zm-1-2a1.78,1.78,0,0,1-1.13.4c-.85,0-1.6-.58-1.6-2.34,0-1.46.52-2.47,1.71-2.47.9,0,1,.59,1,1.71Zm7.66-.06.06.1a1.13,1.13,0,0,1-1,.67c-.52,0-.73-.35-.81-.79A1.92,1.92,0,0,1,43.3,63c-.86,0-1.72-.37-1.72-1.84V59c0-.75,0-.92-.44-1v-.11a3.76,3.76,0,0,0,1.48-.3V61c0,1.23.3,1.66,1.09,1.66A1.36,1.36,0,0,0,44.94,62c0-.12,0-.24,0-.36V59.05c0-.8,0-.94-.41-1v-.11a3.61,3.61,0,0,0,1.45-.3v4.15c0,.41.06.69.33.69A.53.53,0,0,0,46.69,62.23Zm4.89.24c-.22,0-.29-.15-.29-.63V59.52c0-1.42-.7-1.9-1.77-1.9a1.89,1.89,0,0,0-2.1,1.64h.95c0-.95.41-1.39,1-1.39s.84.35.84,1.2v1.59a2.31,2.31,0,0,0-1.17-.29c-1,0-1.87.58-1.87,1.41S47.83,63,48.72,63a2.38,2.38,0,0,0,1.57-.61.58.58,0,0,0,.65.57,1.13,1.13,0,0,0,1-.52l0-.1A.46.46,0,0,1,51.58,62.47Zm-1.33-.28a1.48,1.48,0,0,1-1,.43.86.86,0,0,1-.91-1,1,1,0,0,1,1-1,1.57,1.57,0,0,1,.88.25Zm5.85-3.34h-1c0-.45-.18-.6-.44-.6a.9.9,0,0,0-.68.38v3.19c0,.88.15.93.48,1v.11l-1,0-1,0v-.11c.33-.07.48-.12.48-1v-3c0-.54,0-.71-.34-.79v-.11a3.49,3.49,0,0,0,1.37-.3v.7a1.93,1.93,0,0,1,1.27-.7C55.79,57.62,56.1,58,56.1,58.85Zm1-2.37a.54.54,0,1,1,.53.52A.52.52,0,0,1,57.11,56.48Zm1.49,6.34v.11l-1,0-1,0v-.11c.33-.07.47-.12.47-1v-3c0-.53,0-.7-.34-.79v-.11a3.58,3.58,0,0,0,1.38-.29v4.17C58.13,62.7,58.27,62.75,58.6,62.82Zm6.11-.59.06.1a1.13,1.13,0,0,1-1,.67c-.52,0-.73-.35-.81-.79a1.92,1.92,0,0,1-1.66.79c-.86,0-1.72-.37-1.72-1.84V59c0-.75,0-.92-.44-1v-.11a3.72,3.72,0,0,0,1.48-.3V61c0,1.23.31,1.66,1.09,1.66A1.35,1.35,0,0,0,63,62c0-.12,0-.24,0-.36V59.05c0-.8,0-.94-.41-1v-.11a3.61,3.61,0,0,0,1.45-.3v4.15c0,.41.06.69.33.69A.53.53,0,0,0,64.71,62.23Zm4-.83A1.65,1.65,0,0,1,66.93,63a9.8,9.8,0,0,1-1.51-.24c.06-.36,0-1.09.13-1.53h.11c0,.8.34,1.54,1.19,1.54a.85.85,0,0,0,.93-.9c0-1.47-2.38-1.11-2.38-2.77,0-1,.78-1.48,1.76-1.48.45,0,.89.11,1.37.15a1.48,1.48,0,0,0,0,.41c0,.19,0,.46,0,.82H68.4a1.29,1.29,0,0,0-1.23-1.16.8.8,0,0,0-.88.81C66.29,59.93,68.75,59.63,68.75,61.4Z"/></g></g></svg>