<svg xmlns="http://www.w3.org/2000/svg" viewBox="0 0 56.47 64.86"><defs><style>.cls-1{fill:#1a171b;}.cls-2{stroke:#fff;stroke-width:0.25px;}</style></defs><title>Asset 418</title><g id="Layer_2" data-name="Layer 2"><g id="Layer_1-2" data-name="Layer 1"><path class="cls-1" d="M9.09,55a.45.45,0,0,0-.13.34.56.56,0,0,0,.08.26,3.1,3.1,0,0,1,.45.31,4.9,4.9,0,0,1,.84.74,1.39,1.39,0,0,1,.46.88c0,.36-.24.65-.73.87a2.48,2.48,0,0,1-1,.26,1.4,1.4,0,0,1-.89-.31.73.73,0,0,1-.37-.55.34.34,0,0,1,.08-.18.32.32,0,0,1,.27-.16,1.6,1.6,0,0,1,.62.36,1.4,1.4,0,0,0,.71.36.52.52,0,0,0,.33-.11.38.38,0,0,0,.13-.32A1.13,1.13,0,0,0,9.45,57l-.85-.67a1.11,1.11,0,0,1-.47-.78c0-.25.19-.5.56-.75a1.94,1.94,0,0,1,1-.37,3.59,3.59,0,0,1,.53.11c.36.12.54.31.54.56a.27.27,0,0,1-.07.2.43.43,0,0,1-.34.12,1.17,1.17,0,0,1-.48-.25,1.22,1.22,0,0,0-.47-.24A.46.46,0,0,0,9.09,55Zm4.57-.54a.85.85,0,0,0-.48-.15,1,1,0,0,0-.5.13.68.68,0,0,0-.31.32L11.2,57.54a.63.63,0,0,0,0,.19.86.86,0,0,0,.42.67,1.57,1.57,0,0,0,.89.31,1,1,0,0,0,.58-.21,4.23,4.23,0,0,0,.71-.71.15.15,0,0,0,0-.07.21.21,0,0,0-.07-.16.31.31,0,0,0-.15-.08l-.26.25a.91.91,0,0,1-.53.24.83.83,0,0,1-.55-.2.6.6,0,0,1-.26-.46.39.39,0,0,1,0-.18l.89-2.05A.14.14,0,0,1,13,55c.06,0,.09,0,.1.07l1,3.35a.48.48,0,0,0,.16.26.38.38,0,0,0,.23.08.49.49,0,0,0,.33-.13.25.25,0,0,0,.1-.27l-1-3.44A.76.76,0,0,0,13.66,54.48ZM18,56.34c-.22,0-.33.33-.35,1s-.18,1-.49,1a.82.82,0,0,1-.76-.5,2.65,2.65,0,0,1-.26-1.28,2.37,2.37,0,0,1,.3-1.29.74.74,0,0,1,.63-.39.67.67,0,0,1,.38.13,1.46,1.46,0,0,0,.61.29.25.25,0,0,0,.24-.11.41.41,0,0,0,.05-.23c0-.15-.1-.29-.3-.43a.9.9,0,0,0-.49-.19h-.19l-.18,0a6.35,6.35,0,0,0-1.34.75,2,2,0,0,0-.41.71,2.41,2.41,0,0,0-.14.85,2.29,2.29,0,0,0,.48,1.48,1.62,1.62,0,0,0,2.28.24,1.33,1.33,0,0,0,.39-1,4.07,4.07,0,0,1,0-.5C18.37,56.51,18.23,56.34,18,56.34Zm1.42-2a.48.48,0,0,0-.3.08.26.26,0,0,0-.13.22v3.78a.25.25,0,0,0,.15.23.64.64,0,0,0,.34.09.48.48,0,0,0,.22-.05.14.14,0,0,0,.08-.13v-4a.19.19,0,0,0-.1-.17A.71.71,0,0,0,19.41,54.3Zm3.71.58a.33.33,0,0,0,.06-.21.46.46,0,0,0-.05-.21.16.16,0,0,0-.14-.09H20.53a.19.19,0,0,0-.16.08.39.39,0,0,0-.05.2.32.32,0,0,0,.06.2.16.16,0,0,0,.15.09h.67a.16.16,0,0,1,.11,0,.09.09,0,0,1,0,.07v3.33a.25.25,0,0,0,.12.22.42.42,0,0,0,.52,0,.26.26,0,0,0,.1-.23V55.14l.07-.1s.05-.07.08-.07h.7A.21.21,0,0,0,23.12,54.88Zm2.29-.4a.81.81,0,0,0-.48-.15.92.92,0,0,0-.49.13.64.64,0,0,0-.31.32L23,57.54a.43.43,0,0,0,0,.19.85.85,0,0,0,.43.67,1.55,1.55,0,0,0,.89.31,1,1,0,0,0,.58-.21,4.65,4.65,0,0,0,.71-.71.15.15,0,0,0,0-.07.21.21,0,0,0-.07-.16.35.35,0,0,0-.16-.08,2.81,2.81,0,0,1-.26.25.88.88,0,0,1-.53.24.85.85,0,0,1-.55-.2.59.59,0,0,1-.25-.46.39.39,0,0,1,0-.18l.88-2.05a.16.16,0,0,1,.15-.08.09.09,0,0,1,.1.07l1,3.35a.55.55,0,0,0,.16.26.41.41,0,0,0,.24.08.53.53,0,0,0,.33-.13.26.26,0,0,0,.1-.27l-1-3.44A.73.73,0,0,0,25.41,54.48Zm3.49,2.26v-.15a1.82,1.82,0,0,0,.67-.47,1,1,0,0,0,.31-.62,1.13,1.13,0,0,0-.51-.82,1.64,1.64,0,0,0-1-.41,1.56,1.56,0,0,0-.87.26.79.79,0,0,0-.39.66v3.26a.2.2,0,0,0,.11.18.54.54,0,0,0,.27.06.51.51,0,0,0,.28-.07.22.22,0,0,0,.12-.2V55.2a.45.45,0,0,1,.09-.28.28.28,0,0,1,.22-.11.91.91,0,0,1,.85.83c0,.21-.15.41-.45.61s-.45.37-.45.53l.22.33.47.71a5,5,0,0,1,.39.71.53.53,0,0,0,.17.12.33.33,0,0,0,.17,0,.68.68,0,0,0,.33-.09.25.25,0,0,0,.16-.22,1.47,1.47,0,0,0-.37-.78A7,7,0,0,0,28.9,56.74ZM31,54.3a.48.48,0,0,0-.3.08.24.24,0,0,0-.13.22v3.78a.25.25,0,0,0,.15.23.64.64,0,0,0,.34.09.48.48,0,0,0,.22-.05.16.16,0,0,0,.08-.13v-4a.2.2,0,0,0-.11-.17A.62.62,0,0,0,31,54.3Zm4.46,2.19A2.2,2.2,0,0,1,34.9,58a1.84,1.84,0,0,1-1.41.65,1.35,1.35,0,0,1-1.14-.63,2.84,2.84,0,0,1-.43-1.64,2.07,2.07,0,0,1,.66-1.58,1.72,1.72,0,0,1,1.17-.53,1.52,1.52,0,0,1,1.27.62A2.46,2.46,0,0,1,35.5,56.49Zm-.88.09a2.78,2.78,0,0,0-.24-1.19c-.18-.4-.43-.6-.74-.6a.74.74,0,0,0-.71.57,3.13,3.13,0,0,0-.16,1.12A2.82,2.82,0,0,0,33,57.64c.17.38.4.57.7.57a.77.77,0,0,0,.73-.54A2.65,2.65,0,0,0,34.62,56.58Z"/><path class="cls-1" d="M8.69,61.12a.48.48,0,0,0-.13.34.56.56,0,0,0,.08.26,4.62,4.62,0,0,1,.45.31,5.37,5.37,0,0,1,.84.74,1.42,1.42,0,0,1,.46.88c0,.36-.24.66-.73.88a2.46,2.46,0,0,1-1,.25,1.45,1.45,0,0,1-.89-.3.74.74,0,0,1-.37-.56.4.4,0,0,1,.35-.33,1.52,1.52,0,0,1,.62.35,1.44,1.44,0,0,0,.71.36.52.52,0,0,0,.33-.1.39.39,0,0,0,.13-.33,1.11,1.11,0,0,0-.46-.81l-.85-.68a1.07,1.07,0,0,1-.47-.78c0-.25.19-.49.56-.74a1.86,1.86,0,0,1,1-.37,2.78,2.78,0,0,1,.53.1c.36.12.54.31.54.56a.27.27,0,0,1-.07.2.43.43,0,0,1-.34.12,1.24,1.24,0,0,1-.48-.24A1.22,1.22,0,0,0,9,61,.45.45,0,0,0,8.69,61.12Zm4.57-.54a.87.87,0,0,0-.48-.14,1.06,1.06,0,0,0-.5.12.75.75,0,0,0-.31.33L10.8,63.65a.57.57,0,0,0,0,.18.86.86,0,0,0,.42.67,1.5,1.5,0,0,0,.89.31,1,1,0,0,0,.58-.21,3.88,3.88,0,0,0,.71-.71s0,0,0-.07a.21.21,0,0,0-.07-.15.21.21,0,0,0-.15-.08l-.26.24a.87.87,0,0,1-.53.25.84.84,0,0,1-.55-.21.6.6,0,0,1-.26-.46.38.38,0,0,1,0-.17l.89-2.05c0-.06.07-.08.14-.08a.11.11,0,0,1,.11.06l1,3.35a.45.45,0,0,0,.16.26.38.38,0,0,0,.23.08.44.44,0,0,0,.33-.13.25.25,0,0,0,.1-.27l-1-3.43A.82.82,0,0,0,13.26,60.58Zm4.33,1.87c-.22,0-.33.32-.35,1s-.18,1-.49,1a.83.83,0,0,1-.76-.49,2.69,2.69,0,0,1-.26-1.29,2.31,2.31,0,0,1,.3-1.28.73.73,0,0,1,.63-.4.69.69,0,0,1,.38.14,1.4,1.4,0,0,0,.61.28.25.25,0,0,0,.24-.1.44.44,0,0,0,.05-.23.57.57,0,0,0-.3-.44.9.9,0,0,0-.48-.18H17l-.18,0a6.61,6.61,0,0,0-1.34.75,2,2,0,0,0-.41.71,2.45,2.45,0,0,0-.14.85,2.32,2.32,0,0,0,.48,1.49,1.65,1.65,0,0,0,2.28.24,1.33,1.33,0,0,0,.39-1,4.19,4.19,0,0,1,0-.5C18,62.61,17.83,62.45,17.59,62.45ZM19,60.4a.56.56,0,0,0-.3.08.26.26,0,0,0-.13.23v3.77a.25.25,0,0,0,.15.24.74.74,0,0,0,.34.08.45.45,0,0,0,.22,0,.13.13,0,0,0,.08-.13v-4a.17.17,0,0,0-.1-.16A.53.53,0,0,0,19,60.4Zm6.16.07H22.71s-.05,0-.07,0,0,0-.05,0H20.13a.19.19,0,0,0-.16.08.46.46,0,0,0,0,.21A.34.34,0,0,0,20,61a.18.18,0,0,0,.15.08h.67a.16.16,0,0,1,.11,0,.09.09,0,0,1,0,.07v3.33a.27.27,0,0,0,.12.23.46.46,0,0,0,.27.08.46.46,0,0,0,.25-.08.3.3,0,0,0,.1-.24V61.24l.07-.1s.06-.07.08-.07h.7a.25.25,0,0,0,.13,0l.05,0h.66a.14.14,0,0,1,.11,0,.09.09,0,0,1,0,.07v3.33a.27.27,0,0,0,.12.23.5.5,0,0,0,.27.08.41.41,0,0,0,.25-.08.3.3,0,0,0,.11-.24V61.24l.06-.1s.06-.07.08-.07h.71a.22.22,0,0,0,.18-.08.31.31,0,0,0,.07-.21.38.38,0,0,0-.06-.22A.15.15,0,0,0,25.17,60.47Zm3,.11a.87.87,0,0,0-.48-.14,1.06,1.06,0,0,0-.5.12.75.75,0,0,0-.31.33l-1.17,2.76a.57.57,0,0,0,0,.18.86.86,0,0,0,.42.67,1.51,1.51,0,0,0,.9.31,1,1,0,0,0,.57-.21,3.88,3.88,0,0,0,.71-.71.12.12,0,0,0,0-.07.22.22,0,0,0-.08-.15.21.21,0,0,0-.15-.08l-.26.24a.87.87,0,0,1-.53.25.84.84,0,0,1-.55-.21.6.6,0,0,1-.26-.46.38.38,0,0,1,0-.17l.89-2.05c0-.06.07-.08.14-.08a.11.11,0,0,1,.11.06l1,3.35a.45.45,0,0,0,.16.26.38.38,0,0,0,.23.08.44.44,0,0,0,.33-.13.25.25,0,0,0,.1-.27l-1-3.43A.82.82,0,0,0,28.17,60.58Zm3.49,2.26V62.7a1.93,1.93,0,0,0,.66-.48,1,1,0,0,0,.32-.62,1.1,1.1,0,0,0-.51-.81,1.59,1.59,0,0,0-1-.41,1.48,1.48,0,0,0-.87.26.76.76,0,0,0-.39.65v3.27a.18.18,0,0,0,.11.17.61.61,0,0,0,.28.06.53.53,0,0,0,.28-.07.22.22,0,0,0,.12-.19V61.31a.49.49,0,0,1,.08-.28.25.25,0,0,1,.22-.11.84.84,0,0,1,.6.26.81.81,0,0,1,.25.56.79.79,0,0,1-.44.61c-.3.2-.45.38-.45.53l.22.33.47.71a7.25,7.25,0,0,1,.39.72.44.44,0,0,0,.17.12.45.45,0,0,0,.16,0,.68.68,0,0,0,.33-.09c.11-.06.17-.13.17-.22a1.58,1.58,0,0,0-.38-.78A8.79,8.79,0,0,0,31.66,62.84Zm2.13-2.44a.58.58,0,0,0-.3.08.26.26,0,0,0-.12.23v3.77a.26.26,0,0,0,.14.24.77.77,0,0,0,.34.08.45.45,0,0,0,.22,0,.13.13,0,0,0,.08-.13v-4a.17.17,0,0,0-.1-.16A.53.53,0,0,0,33.79,60.4Zm3.72-.07a.35.35,0,0,0-.24.08.27.27,0,0,0-.1.22l0,1.21v.52a4.67,4.67,0,0,1-.13,1.29q-.2.66-.72.66a.79.79,0,0,1-.53-.2.57.57,0,0,1-.24-.46c0-.23,0-.41-.06-.55s0-.39,0-.75c0-.12,0-.37,0-.76s0-.67,0-.84a.34.34,0,0,0-.11-.29.46.46,0,0,0-.27-.08.45.45,0,0,0-.26.08.36.36,0,0,0-.13.24v.68c0,.3,0,.68,0,1.13s0,.9.1,1.38a1.46,1.46,0,0,0,.53.65,1.59,1.59,0,0,0,.88.24,1.56,1.56,0,0,0,1-.5,1.89,1.89,0,0,0,.64-1.44V60.65a.26.26,0,0,0-.12-.23A.45.45,0,0,0,37.51,60.33ZM40,62a4.62,4.62,0,0,0-.45-.31.46.46,0,0,1-.08-.26.48.48,0,0,1,.13-.34A.45.45,0,0,1,40,61a1.29,1.29,0,0,1,.47.24,1.18,1.18,0,0,0,.48.24.43.43,0,0,0,.34-.12.27.27,0,0,0,.07-.2c0-.25-.18-.44-.54-.56a2.78,2.78,0,0,0-.53-.1,1.86,1.86,0,0,0-1,.37c-.37.25-.56.49-.56.74a1.09,1.09,0,0,0,.46.78l.86.68a1.14,1.14,0,0,1,.46.81.39.39,0,0,1-.14.33.48.48,0,0,1-.33.1,1.42,1.42,0,0,1-.7-.36,1.59,1.59,0,0,0-.62-.35.32.32,0,0,0-.27.15.34.34,0,0,0-.08.18.74.74,0,0,0,.37.56,1.45,1.45,0,0,0,.89.3,2.46,2.46,0,0,0,1-.25c.49-.22.73-.52.73-.88a1.42,1.42,0,0,0-.46-.88A5.37,5.37,0,0,0,40,62Z"/><path class="cls-2" d="M2.85,32.42A4.25,4.25,0,0,1,.14,28s2.47,3.56,3.92-1c0,0,1.78-8.6,5.07-9,0,0,4.52-.82,3.89,3.91a3,3,0,0,0,0,1.7,3.29,3.29,0,0,0-1,1s-2.63-3.07-4.44,3C7.54,27.57,6.57,33.57,2.85,32.42ZM27.23,12.05c.55,2.13,2.29.72,2.29.72-.36-.58.74-1.55.74-1.55A3.37,3.37,0,0,0,31.16,9C30.69,6.39,31,6.7,31,6.7c.88-1.41,3.43-1.56,3.43-1.56,1.07-.61-.38-1.66-.38-1.66-1.55-.93-3.9-.27-3.9-.27C26.54,4.19,27.47,9,27.47,9A1.42,1.42,0,0,1,26,10.54C25.71,12.64,27.23,12.05,27.23,12.05ZM21.5,21.68a3.67,3.67,0,0,1,1.21.45s2.52.76,7.12-1.93c0,0,2.09-.9,2.38-.95a13.93,13.93,0,0,1,1.85.19s.8.55,2-1.09a3.41,3.41,0,0,0-.9-2.57.6.6,0,0,0-.71.36A1.28,1.28,0,0,1,33.23,16s-.57-.78-1.69,1.19a13.29,13.29,0,0,1-3.5.69s-3.76-.09-4.54.91c0,0,1.07-1.47,4.76-1.21,0,0,2.59,0,2.13-1.15,0,0,0-.5-1.56-1.52,0,0,2.21.38,2,2A2.25,2.25,0,0,0,32.21,14s-.43-1.77-3.19-.71a5.38,5.38,0,0,0-2.43,1.88s-3.07.52-3.69,2.36c0,0-1.52.73-1.78,1.88a6.1,6.1,0,0,1-.43.88S20.26,21.06,21.5,21.68Zm13-9.09a2,2,0,0,1,1.31.67c.67.19.67-.69.67-.69-.24-1.34-2.24-1.1-2.24-1.1A3.2,3.2,0,0,1,31.3,9.62a3,3,0,0,1-.24,1c-.55,1.62,1.65,1.95,1.65,1.95A5.94,5.94,0,0,0,34.49,12.59Zm.12-7S31.87,5.71,31.3,7c0,0,.05,3.17,1.66,3.88a4.27,4.27,0,0,0,2.15.29s-.1-.79.4-.93V9.88s-.26-.62-.16-.76,0-.17.21-.21c0,0,1-.08.24-.84l-1-.91.16-.57A1.47,1.47,0,0,0,34.61,5.57Zm-3.95,5.76c-.45.12-.95.86-.95.86l.21.52a7.86,7.86,0,0,0,1.86,0A2.12,2.12,0,0,1,30.66,11.33ZM14.88,36.2a7.07,7.07,0,0,1-1.67,3.45,1.41,1.41,0,0,0-.4,1.42,6.45,6.45,0,0,1,0,2.67c-.29,2.88-.83,3.42-.83,3.42a.91.91,0,0,0-.2.84.47.47,0,0,0,.7.38l.59,1.09a2.75,2.75,0,0,0-.28,2h3c0-1.45-1.6-2.23-1.6-2.23l-.57-1.12a1.76,1.76,0,0,1,0-.88,35.52,35.52,0,0,1,.9-5.17,3.19,3.19,0,0,1,1.12-1.66,7.69,7.69,0,0,0,3.91-3.09A5.38,5.38,0,0,0,14.88,36.2Zm25.2-13.43s.1,1,1.29.39c0,0,.76-.21.62-1.57,0,0-.16-1.85-.62-1.62a3.15,3.15,0,0,1-1.22.43s-.42,0-.26.57A17.55,17.55,0,0,1,40.08,22.77Zm15-7V16l-11.92.66A1.88,1.88,0,0,0,42,15.44a3.51,3.51,0,0,1-.55,1.31l-.68,0a.61.61,0,0,0-.66-.14l-.63.21-1.39.08a.36.36,0,0,0,0-.35,5.6,5.6,0,0,0-1.23-2.11l.3-.4a1.55,1.55,0,0,0,.22.32A6.84,6.84,0,0,1,38.35,16a.77.77,0,0,0,.92.61l.48-.19c.76-.21.5-.83.5-.83a3.15,3.15,0,0,0-1.24-2,2.51,2.51,0,0,0-1.32-.15l.27-.37c.93-.15,2.22.35,3.12,3.55,0,0,1.62-2-1-4.06a2.89,2.89,0,0,0-1.36-.46l7.43-10a14.62,14.62,0,0,0,3.54,8.23c2.18,2.25,1.57,5.7,1.57,5.7a13.46,13.46,0,0,0,1.42,0,2.58,2.58,0,0,1-.19-1.66,5.93,5.93,0,0,0-1.21-4.64,15.46,15.46,0,0,1-4.56-8.38l0,0c.23.48.7,0,.7,0A.71.71,0,0,0,47.12.16C46-.12,46.05,1.24,46.05,1.24a4.93,4.93,0,0,0,0,.55l-7.67,10.3c-.58.07-1.2.44-1.61,1.52a2.49,2.49,0,0,1,.84-.48l-.89,1.2a5.52,5.52,0,0,0-4.54-1.26,2.82,2.82,0,0,1,.45,2.25,1.67,1.67,0,0,0,1.76.36.87.87,0,0,1,1.32,0l-.18.23.11.21.17-.23c.12.28.28.75.41,1.14H36l.07.26h.27c.08.22.13.38.13.38.38.12,1.14-.31,1.14-.31a1.52,1.52,0,0,0,.23-.16L39,17.14a.58.58,0,0,0,.11.56,5.2,5.2,0,0,1,.47,1.8s.23.66.78.42l1-.42s.36-.17.17-1.05A8.73,8.73,0,0,0,41,17l.29,0a11.43,11.43,0,0,1,1,5c.05,1.65.92,1.34.92,1.34.77-.19,1.4-.31,1.4-.31,1.71-.44,5-2.94,5-2.94a2.07,2.07,0,0,1,1.7-.46,3.47,3.47,0,0,0,1.17.13c1-.23,1.08-.79,1.08-.79l0-1.87c0-.78-1.44-.65-1.44-.65a2.23,2.23,0,0,0-1.51.82C50.07,18,48,18.53,48,18.53c-3.51.32-4.21,1.53-4.21,1.53a1.5,1.5,0,0,0-.13,1.71s-1.21-.7.11-2.63a9.37,9.37,0,0,0-.5-2.24l11.83-.69,0,.23,1-.41ZM7.46,37.27a2.32,2.32,0,0,1-1,.78,1.26,1.26,0,0,0-.52,1.4,6.49,6.49,0,0,1,0,2.24C5.08,47.28,4.65,47,4.65,47a.83.83,0,0,0-.07,1.14.93.93,0,0,0,.62.05l.38,1.19a3.82,3.82,0,0,0-.14,2H8.27c.05-1.09-1.38-2.26-1.38-2.26L6.46,48A24.29,24.29,0,0,1,7,43.83c.5-3,1.1-3.59,1.1-3.59a6.6,6.6,0,0,0,1.74-2C7.53,39,7.46,37.27,7.46,37.27ZM51.51,19.93s.63,3.78-1.55,6a14.7,14.7,0,0,0-3.56,8.39l-2.15-3.07a6.79,6.79,0,0,0-.88-4.06,14.35,14.35,0,0,0-.92,1.5l-.31-.44.11-.2c1.31-1.59.81-2.4.81-2.4a5.93,5.93,0,0,1-.69-1.43c-.29-1.24-.55-.91-.55-.91-.1.25-.89.43-.89.43a.69.69,0,0,0-.65.48,3.52,3.52,0,0,0,0,1.33l-.37-.53a5.36,5.36,0,0,1-.18-.6c-.07-.76-.56-.46-.56-.46h0l-.36-.52c.41-.17.73-.44.72-.81,0,0,.21-2.15-.35-2.17,0,0-.89.32-2,.66l-.24-.35A9.47,9.47,0,0,0,39,20s.42,0-.46-2.42c0,0-.14-.46-.93.11,0,0-.89.33-.95.34s-.21.12-.23.28a3.07,3.07,0,0,1-.69.88l-.11-.15-.19.2.09.12a2.89,2.89,0,0,1-.94.5,12.71,12.71,0,0,0-2.42-.19s-.38.07-.15.55l.31.76s.38.81,1.05.55c0,0,1.62-.25,3.21-.66l.25.35a12.37,12.37,0,0,1-3.75.71s-.3.5,1,1.57c0,0,.77.79,3,.34a6.74,6.74,0,0,0,1.4-.28l.35.49a12.16,12.16,0,0,1-3.32.38c-3.16-.24-4.14-4.31-4.14-4.31-.64-.09-2.78,1.15-2.78,1.15a6.74,6.74,0,0,0,1.95,2.23,1.4,1.4,0,0,1,.62,1.41c-1,2.89-7.9-.15-7.9-.15C16.62,21.61,13.22,24,13.22,24c-3.83,2.23-3.4,7.52-3.4,7.52-.53,3.57-1.19,4.14-1.19,4.14-1.17,1.47-.5,2-.5,2,1.09,1.14,4.09-.84,4.09-.84A12.43,12.43,0,0,0,17,28.44c1.22,2.54-2.8,7.26-2.8,7.26a6.35,6.35,0,0,1,6.49,2c2.59,3.72,8.83,2.65,8.83,2.65-1.36-3.07.74-4.55.74-4.55A5.05,5.05,0,0,0,29.85,40c1.36,3,3.69,3.21,3.69,3.21a11.24,11.24,0,0,1,3.21,1.36c.86.57-.07,1.26-.07,1.26.38-.64,0-.81,0-.81a14.16,14.16,0,0,0-3.6,2.38c-1.71,1.26-1.92,1-1.92,1L30,47.83c-.05-.57-.88-1.09-.88-1.09l-2.5,1.52A2.2,2.2,0,0,0,29.3,49l1.07.55a1,1,0,0,0,1.41.47,2.78,2.78,0,0,1,1.07-.85l5-3c1.4-.14,1.55-.95,1.55-.95.4-1.24-1.1-1.76-1.1-1.76A3.63,3.63,0,0,1,36.23,41a3.26,3.26,0,0,0-.74-2.12c.71,0,1,1,1,1A8.39,8.39,0,0,0,40,34.22C40.87,29,35.56,26,35.56,26c4.07.93,4.88,5.1,4.88,5.1a10,10,0,0,0,.05-4.12c.85,1.52.44,4.26.44,4.26A13.77,13.77,0,0,1,42,28.52l.31.43a13.43,13.43,0,0,0-1.2,3.18s-.86,6.54-4.38,8c0,0,3.76-.24,6.7-5.79a9,9,0,0,0,.76-2.69l2.17,3.07c0,.12,0,.24,0,.36s0,1.37,1.07,1.08a.71.71,0,0,0,.28-1.19s-.52-.48-.73.11a15.42,15.42,0,0,1,4.56-8.46A5.94,5.94,0,0,0,52.76,22s-.22-1.47.19-2A3.73,3.73,0,0,1,51.51,19.93ZM46.08,41.79s-2.55-.86-3.36-1.91a15.19,15.19,0,0,0-2.12-1.17s-2.52,1.93-3.78,1.84c0,0,0,1.45,4.86,1.93,0,0,4.33.43,3.49,2,0,0,0-.62-.45-.69,0,0-1.16.5-2.64,2.83l-1.74,2a.55.55,0,0,0-.33,0l-.74-.1s-.85-.59-1.33-.5l-1.38,2.84s1.12.61,2.52-.81l.93-.22s.67.55,1.43-.5a7.49,7.49,0,0,1,1.12-1.21l3.35-3.14s1-.86,1.24-1a1.31,1.31,0,0,0,.17-1.69A1.83,1.83,0,0,0,46.08,41.79Z"/></g></g></svg>