<svg xmlns="http://www.w3.org/2000/svg" viewBox="0 0 91.24 108.93"><title>Asset 537</title><g id="Layer_2" data-name="Layer 2"><g id="Layer_1-2" data-name="Layer 1"><path d="M35.39,104.26c0,1.24,0,2.34,0,3.43a.81.81,0,0,1-.44.57,5.43,5.43,0,0,1-5.48-.33,4.6,4.6,0,0,1-2-4.62A4.7,4.7,0,0,1,31,99.1a4.56,4.56,0,0,1,3.91.49l-.08.4c-.36-.11-.71-.23-1.07-.33a4.43,4.43,0,0,0-4.11,7.69,4.65,4.65,0,0,0,4.48.58,1.14,1.14,0,0,0,.6-.8,17.09,17.09,0,0,0,0-2.17l-2-.14c0-.14,0-.27,0-.41Zm27.31.23c.79,1.33,1.61,2.69,2.42,4l-.21.21a3.24,3.24,0,0,1-.65-.56c-.62-1-1.18-2-1.83-2.91a1.6,1.6,0,0,0-1-.66c-1.71-.24-1.82-.12-1.82,1.61v2.36l-.42,0a5.76,5.76,0,0,1-.11-.82c0-2.61,0-5.21,0-7.81,0-.79.31-1,1-1,.27,0,.54,0,.81,0,1.38,0,2.62.3,3.22,1.7S64.2,103.28,62.7,104.49Zm.87-1.88a2.14,2.14,0,0,0-.51-2.43A3.8,3.8,0,0,0,60,99.62a.68.68,0,0,0-.33.53c0,1.25,0,2.5,0,3.86h1.53A2.18,2.18,0,0,0,63.57,102.61ZM77.8,99.07a8.59,8.59,0,0,0-.14,1c0,1.73,0,3.45,0,5.18,0,1.9-1,3-2.71,3s-2.72-1.08-2.74-3c0-1.73,0-3.45,0-5.17a9.28,9.28,0,0,0-.11-1.06l-.37,0a6,6,0,0,0-.1.84c0,1.84,0,3.68,0,5.52a3.11,3.11,0,0,0,3.17,3.34,3.14,3.14,0,0,0,3.46-3.28c0-1.92,0-3.83,0-5.75a3.38,3.38,0,0,0-.14-.69ZM22,98.77c1.35,3.37,2.65,6.6,3.95,9.83l-.43.2a9.78,9.78,0,0,1-.82-1.81c-.29-1.22-1-1.43-2.2-1.55-2.18-.22-3.49.41-3.88,2.64a2.36,2.36,0,0,1-.34.61C18,108.11,20.67,100.87,22,98.77Zm1.85,6.12c-.66-1.65-1.24-3.13-2-4.94-.73,1.85-1.33,3.35-2,4.94Zm28.74-6.31,4,10-.33.21a6.5,6.5,0,0,1-.6-1c-.94-2.27-.93-2.27-3.38-2.27a7.3,7.3,0,0,1-.81,0,1.26,1.26,0,0,0-1.59,1,18.14,18.14,0,0,1-.92,2.19l-.42-.19Zm1.93,6.31c-.66-1.67-1.24-3.16-2-4.94-.73,1.83-1.33,3.34-2,4.94Zm30.69-1.15a16.71,16.71,0,0,1-2.38-1.11,2.2,2.2,0,0,1-.94-1.61A2.25,2.25,0,0,1,83.2,99.6a6.32,6.32,0,0,1,2.24.08c.26,0,.52.08.77.12l.06-.47a15.83,15.83,0,0,0-3-.29,2.08,2.08,0,0,0-2,1.89,2.13,2.13,0,0,0,1.46,2.34c.73.33,1.48.61,2.21.94a2,2,0,0,1,1.27,2,2.34,2.34,0,0,1-3,2,23.53,23.53,0,0,1-2.3-.75,3.35,3.35,0,0,0,3.23,1.29,2.79,2.79,0,0,0,2.62-2A2.57,2.57,0,0,0,85.19,103.74ZM14,103.52a10.94,10.94,0,0,1-2.26-1.08,1.89,1.89,0,0,1-.64-1.54,1.91,1.91,0,0,1,1.11-1.26,5.85,5.85,0,0,1,2.13,0,6.47,6.47,0,0,1,1.06.23c0-.1,0-.21,0-.32A4.25,4.25,0,0,0,12,99.16a2.15,2.15,0,0,0-1.57,1.92,2,2,0,0,0,1.21,2c.78.4,1.64.66,2.4,1.09.47.27,1.06.7,1.16,1.16a3,3,0,0,1-.26,2,2.15,2.15,0,0,1-2.43.9,20.15,20.15,0,0,1-2.33-.72l-.11.28a4.53,4.53,0,0,0,2.8,1c1.65,0,2.76-.72,3-2C16.19,105.28,15.58,104.23,14,103.52Zm27.3-4.35v.36h2.9v9h.5v-9l2.9-.17,0-.3Zm-2.55,9.76V99C38.09,99.69,38.05,107.82,38.73,108.93ZM68,108.59h.26V99.13H68Z"/><path d="M90.24,38.78a6.49,6.49,0,0,1-5.59,1c-3.54-.94-6.1-3.25-8.36-6a9.29,9.29,0,0,0-2.28-2c-3-1.78-6-3.38-8.94-5.22a31.87,31.87,0,0,0-6.91-3.81A37.26,37.26,0,0,0,47,20.84c-.93,0-1.23-.33-1.16-1.21a10.25,10.25,0,0,0-.11-1.46h-.34a5.89,5.89,0,0,0-.07,1.18c.13,1.06-.2,1.52-1.36,1.5a25.35,25.35,0,0,0-3.89.27,28.32,28.32,0,0,0-11.51,3.69c-3.69,2.27-7.44,4.43-11.1,6.72a12.09,12.09,0,0,0-2.72,2.38,17.65,17.65,0,0,1-7.12,5.47,6.8,6.8,0,0,1-6.87-.74A3.45,3.45,0,0,0,0,38.36,5.74,5.74,0,0,0,4.29,42,5,5,0,0,1,6,42.78q10.64,8,21.23,16.16c2.47,1.87,4.93,3.76,7.46,5.69L28.3,73.88c.28.25.49.46.73.64,3.37,2.53,6.74,5.07,10.14,7.56a2,2,0,0,1,.9,1.83c0,2,0,3.91,0,5.86a10.45,10.45,0,0,0,.17,1.14l5.33-6,5.17,5.8.35-.14c0-1.09,0-2.17,0-3.26,0-1.49-.38-3.21.23-4.41s2.21-1.91,3.4-2.81l8.16-6.13-6.45-9.28c.33-.27.53-.45.74-.61Q71.07,53.45,85,42.87A5.17,5.17,0,0,1,86.82,42a6.86,6.86,0,0,0,4.1-2.76,3.29,3.29,0,0,0,.32-.77A1.36,1.36,0,0,0,90.24,38.78ZM45.88,22a.87.87,0,0,1,.64-.58c5.94.24,11.73,1.07,16.76,4.65.19.13.36.28.58.45-.53,1.08-1,2.07-1.5,3.09-1.89-.59-3.7-1.15-5.51-1.74a1.33,1.33,0,0,1-.61-.47c-2.42-3.29-6.1-3.79-9.54-1.14-.17.14-.37.25-.85.56C45.85,25,45.83,23.49,45.88,22ZM33.47,23.19A41.54,41.54,0,0,1,44.2,21.35c.74,0,1.14.15,1.11,1-.05,1.4,0,2.8,0,4.45-.84-.55-1.39-1-2-1.31a5.88,5.88,0,0,0-7.94,1.36,3.84,3.84,0,0,1-2,1.32c-1.47.4-2.92.91-4.51,1.43-.49-1-1-2-1.52-3.07A18.18,18.18,0,0,1,33.47,23.19ZM4.25,41.36A4,4,0,0,1,2.6,40.5a21.87,21.87,0,0,0,3,0c4-.56,6.87-2.9,9.26-5.91a10.92,10.92,0,0,1,3.38-2.83c2.48-1.38,4.93-2.81,7.4-4.22.32-.18.66-.34,1.12-.58l1.46,3L21.1,34.08c-3.38,2-6.76,3.93-10.16,5.86C8.87,41.11,6.7,42,4.25,41.36Zm2.06.84c4.32-.72,7.39-3.27,10.79-5.13,3.76-2.06,7.39-4.38,11.18-6.38a52.67,52.67,0,0,1,6-2.22,2.55,2.55,0,0,0,1.07-.71c2.76-3.6,6.34-3.27,9.51-.33a1.71,1.71,0,0,1,.4,1.13q0,10.13,0,20.25A2.2,2.2,0,0,1,44.94,50q-4.74,6.85-9.53,13.68A2.44,2.44,0,0,1,35,64Zm38.87,9V71.8l-9.6-7.3L45,51.09ZM40,79.59c.07.67,0,1.36,0,2.41l-11-8.2L35.24,65c3.24,2.47,6.38,4.87,9.52,7.25.61.47.62.86.06,1.38-1.32,1.23-2.57,2.53-3.9,3.74A2.39,2.39,0,0,0,40,79.59Zm10.2,9.61c-1-1.15-2.06-2.29-3.07-3.45-1.58-1.83-1.57-1.84-3.16,0l-3.23,3.64c-.06-.53-.12-.83-.13-1.14q0-4.42,0-8.86a1.51,1.51,0,0,1,.21-1c1.35-1.38,2.75-2.71,4.32-4.23.53,3-2.48,3.36-3.2,5.19l.2.27c.46-.39.94-.77,1.39-1.17s1-.87,1.56-1.42c.25,1.42.43,2.6-.71,3.59-.66.58-1.21,1.28-1.81,1.92l.25.26,1.84-2.45,3.6,2.42c-.72-1.88-3.44-2.86-2.22-5.67l2.82,2.55.28-.29a2.85,2.85,0,0,0-.35-.55c-.72-.69-1.42-1.41-2.21-2A2,2,0,0,1,46,74.22c1.5,1.47,2.91,2.84,4.3,4.23a.66.66,0,0,1,.13.42C50.48,82.27,50.48,85.68,50.24,89.2ZM45.91,71.85V51.17l.24-.11,9.4,13.44Zm16.14,1.94L51.09,82c.59-3.25-1-5.08-3-6.71a10.4,10.4,0,0,1-1.79-1.78,1.14,1.14,0,0,1,0-1.09c3.16-2.48,6.37-4.9,9.66-7.41Zm-6-9.67c-1.57-2.23-3.07-4.35-4.55-6.48-1.72-2.45-3.44-4.89-5.11-7.38a3.27,3.27,0,0,1-.53-1.68c0-6.6,0-13.2,0-19.8a3.39,3.39,0,0,1,.82-1.72,4.14,4.14,0,0,1,1.2-.88c2.87-1.76,5.64-1.24,7.73,1.4a2.36,2.36,0,0,0,1.11.86,36.77,36.77,0,0,1,10.15,4.5q6.72,4,13.55,7.8a29.71,29.71,0,0,0,4.17,1.61ZM85,41.53a10.08,10.08,0,0,1-3.61-1c-6.15-3.43-12.24-7-18.48-10.55l1.46-3c.38.18.69.31,1,.47,3,1.73,6.06,3.45,9.07,5.21a3.94,3.94,0,0,1,1.14,1.09,19.2,19.2,0,0,0,6.42,5.63,9.61,9.61,0,0,0,6.92,1A4.69,4.69,0,0,1,85,41.53Z"/><path d="M45.35,3.18q-2.91,8.33-5.81,16.65l.3.2c.33-.18.67-.33,1-.53,1.26-.79,2.56-1.54,3.76-2.43a1.44,1.44,0,0,1,2,0c1.21.88,2.5,1.65,3.77,2.44a14,14,0,0,0,1.35.62l-5.94-17ZM50.3,18.76c-1.28-.82-2.59-1.6-3.83-2.48a1.39,1.39,0,0,0-1.84,0,22,22,0,0,1-4,2.27L45.4,4.87l.31,0,4.8,13.71Z"/><path d="M36,7.86a9.74,9.74,0,0,1,19.07-.24c.81,3.51-.55,7.72-3.16,9.16,4.1-5.78,4.14-11-2-15A8.44,8.44,0,0,0,39.5,3c-4.32,4.32-4,8.92-.14,13.8C37.19,15.94,35.21,11.86,36,7.86Z"/><path d="M64.24,61.08c-.6,2.26-1.4,4.28-3.37,5.76,2.08,1.45,2.74,3.58,3.33,5.76.47-1.08.7-2.17,1.19-3.13a23.84,23.84,0,0,1,2-2.8C65.57,65.32,64.83,63.28,64.24,61.08Zm0,9-2.17-3.31,2.16-3.31,2.16,3.3Z"/><path d="M26.47,64.19a25.27,25.27,0,0,1-1.18-3.3,24,24,0,0,1-1.17,3.3,22.53,22.53,0,0,1-2,2.75,9.24,9.24,0,0,1,3.16,5.69c.63-2.26,1.34-4.36,3.2-5.68A24.12,24.12,0,0,1,26.47,64.19Zm-1.18,5.92c-.7-1.09-1.45-2.23-2.16-3.32l2.16-3.26,2.16,3.29Z"/><path d="M59.65,39.27A5.42,5.42,0,1,0,65,44.68,5.3,5.3,0,0,0,59.65,39.27Zm0,10.29a4.87,4.87,0,0,1-.09-9.73,4.87,4.87,0,1,1,.09,9.73Zm.16-10.91h-.3V32.48h.3Zm-.34,12.1c.59.4.74,5,0,6.12Zm6.43-6.22H72v.31H65.88Zm-12,.34H47.29C48.05,44.25,52.69,44.21,53.84,44.87Zm1.48,4L51,53.46l-.24-.24A31.86,31.86,0,0,1,55.32,48.91Zm8.67.24,4.52,4.25-.24.23L63.85,49.2Zm-.07-8.77,0,0,4.23-4.52a3.19,3.19,0,0,1,.26.26Zm-8.58.09L51.1,35.91l.1-.1L55.83,40ZM62,39.14,61.6,39c.5-1.26,1-2.51,1.51-3.77l.49.2A15.31,15.31,0,0,1,62,39.14Zm-4.8,11.09.5.21c-.51,1.24-1,2.48-1.51,3.73l-.53-.23C56.14,52.7,56.66,51.46,57.17,50.23Zm5.13-.13c.53,1.25,1.07,2.5,1.61,3.75l-.54.24-1.62-3.76Zm3-3.53,4.18,1.68C68.47,48.69,65.84,47.67,65.27,46.57ZM54,42.66a22.27,22.27,0,0,1-3.79-1.45c0-.17.11-.34.16-.5l3.79,1.49C54.08,42.36,54,42.51,54,42.66Zm.29,4.66-3.73,1.62-.24-.54L54,46.79ZM65,42,69,40.36C68.55,41.34,66.1,42.44,65,42ZM57,39.28c-.54-1.25-1.07-2.49-1.61-3.73l.52-.22c.55,1.24,1.1,2.48,1.64,3.73Z"/><path d="M39.18,47.65c-2.59,1.46-5,1.51-7-.93A4.45,4.45,0,0,1,32,41.35c1.91-2.76,4.45-2.88,7.48-1.15a8.2,8.2,0,0,0-9.55-4.47,8.44,8.44,0,0,0-6.12,9.53,8.35,8.35,0,0,0,8.78,7C35.6,52.08,39,49.79,39.18,47.65Zm-8.76,3.84a7.8,7.8,0,0,1-6.11-7,7.71,7.71,0,0,1,5.53-8.06c2.84-.87,6.41.13,7.64,2.13-4.37-.09-6.86,1.85-6.87,5.35s2.51,5.41,6.8,5.31C36.55,51,33.22,52.06,30.42,51.49Z"/></g></g></svg>