<svg xmlns="http://www.w3.org/2000/svg" viewBox="0 0 33.9 55.7"><title>Asset 502</title><g id="Layer_2" data-name="Layer 2"><g id="Layer_1-2" data-name="Layer 1"><path d="M33.72,53.87c-.52-.38-1.06-.74-1.56-1.14a32.45,32.45,0,0,1-2.88-2.46,48,48,0,0,1-4.44-5C24,44.05,23,42.89,22.2,41.62a22.29,22.29,0,0,1-2.28-4.25c-.13-.33-.28-.65-.39-1a33.41,33.41,0,0,1-.89-3.68,21,21,0,0,1-.45-4.47c0-.85,0-1.7.1-2.55s.21-1.74.34-2.61a14.36,14.36,0,0,1,.6-2.75c.33-.94.65-1.89,1-2.83a22.62,22.62,0,0,1,2.47-5.24c.57-.89,1.16-1.77,1.78-2.62a37.46,37.46,0,0,1,3.43-4.12c.5-.5,1-1,1.48-1.51a19.54,19.54,0,0,1,2.79-2.42,2.57,2.57,0,0,0,.39-.35.35.35,0,0,0-.09-.47L32.28.7a2.11,2.11,0,0,0-.5-.17C30.94.39,30.1.25,29.26.14A17.26,17.26,0,0,0,25.39.08a29.26,29.26,0,0,0-4.27.6,21.88,21.88,0,0,0-4.65,1.61,14.8,14.8,0,0,0-1.3.88c-.69.45-1.45.78-2.15,1.22a12.1,12.1,0,0,0-1.85,1.34c-1,.92-1.95,1.88-2.85,2.88s-1.78,2.11-2.64,3.2c-.63.81-1.24,1.63-1.79,2.5S3,16,2.51,16.87a15.61,15.61,0,0,0-1.2,2.83,25.45,25.45,0,0,0-.87,3.77A23,23,0,0,0,0,29.08C.07,30,.17,31,.2,31.9a11.06,11.06,0,0,0,.61,3.27,14.8,14.8,0,0,1,.57,1.66,4.41,4.41,0,0,0,.74,1.65,15.84,15.84,0,0,1,1,1.55A55.74,55.74,0,0,0,6.33,45a24.41,24.41,0,0,0,3.32,3.64,26.81,26.81,0,0,0,3.9,3.14,15.29,15.29,0,0,0,1.8,1.11c.69.32,1.38.64,2.1.9a53.78,53.78,0,0,0,5.41,1.55,13.79,13.79,0,0,0,1.57.22c.5.05,1,0,1.49.1a19.7,19.7,0,0,0,3.52-.08,2.59,2.59,0,0,0,.79-.08,7.3,7.3,0,0,1,2.07-.35,3.21,3.21,0,0,0,1.4-.51A.46.46,0,0,0,33.72,53.87Zm-1.39.89a9.9,9.9,0,0,0-2.16.39,5.14,5.14,0,0,1-1.05.08,23.22,23.22,0,0,1-4.49,0,19.44,19.44,0,0,1-3-.6c-1.36-.36-2.71-.76-4.05-1.21a11.38,11.38,0,0,1-2.07-1,25.38,25.38,0,0,1-3.36-2.27,31.83,31.83,0,0,1-5.4-5.42,46.3,46.3,0,0,1-3.2-4.86,5.72,5.72,0,0,0-.41-.67A17.31,17.31,0,0,1,1.66,36.5a13,13,0,0,1-.92-3.21,33.38,33.38,0,0,1-.35-4.47,18.47,18.47,0,0,1,.49-5.24c.23-.91.47-1.82.77-2.71.12-.35.35-.69.17-1.09a13.84,13.84,0,0,1,.45-1.33,23.65,23.65,0,0,1,2.55-4.72c.5-.65.94-1.35,1.43-2,.25-.33.57-.6.82-.93A23,23,0,0,1,9.93,7.58a3.24,3.24,0,0,0,.36-.38,12.06,12.06,0,0,1,3.65-2.86c.8-.43,1.61-.84,2.41-1.26.06,0,.13,0,.16-.08.71-.8,1.76-.88,2.66-1.27.38-.16.79-.25,1.18-.37a27.22,27.22,0,0,1,3.7-.74A30.18,30.18,0,0,1,27.48.46,9.21,9.21,0,0,1,30.43.8a6.83,6.83,0,0,0,.79.11c.22,0,.46.08.56.36-.34.32-.67.66-1,1-1.08.87-2,1.91-3,2.86a28,28,0,0,0-2.47,2.86c-.24.3-.49.59-.72.89a36,36,0,0,0-3.33,5,25.73,25.73,0,0,0-2,5.08,28.94,28.94,0,0,0-1,3.39c-.17,1.08-.34,2.15-.52,3.22,0,.06-.05.12,0,.17a21.7,21.7,0,0,1,0,3.42,47.89,47.89,0,0,0,.7,5.05,24.26,24.26,0,0,0,1.27,4.12,10.18,10.18,0,0,0,.92,1.8,30.6,30.6,0,0,0,1.89,3c1.46,1.91,3,3.78,4.52,5.63A29.38,29.38,0,0,0,29.42,51c.6.56,1.24,1.09,1.88,1.6s1.17.89,1.75,1.34l.41.34A1.71,1.71,0,0,1,32.33,54.76Zm-19.54-39c0-.2.21-.42.45-.42s.34.17.36.49c-.07.07-.16.24-.29.27A.47.47,0,0,1,12.79,15.76ZM29,1.94a1.37,1.37,0,0,1,.26-.33.39.39,0,0,1,.49,0,.29.29,0,0,1,.08.22.67.67,0,0,1-.46.49C29.25,2.36,29,2.21,29,1.94Zm-8.6,8.93c-.12-.1-.22-.23-.13-.37a2.12,2.12,0,0,1,.37-.36c.12.09.26.13.29.22a1,1,0,0,1,.07.49.25.25,0,0,1-.39.17A1.13,1.13,0,0,1,20.43,10.87ZM11.9,40.75a.3.3,0,0,1-.23.07.47.47,0,0,1-.41-.48c0-.24.17-.34.44-.35a2.68,2.68,0,0,1,.29.47A.37.37,0,0,1,11.9,40.75ZM10.83,17.5a2,2,0,0,1,.36-.29c.13.17.27.28.31.42s.05.39-.16.43a.71.71,0,0,1-.44-.19A.25.25,0,0,1,10.83,17.5Zm2.58,5.24c-.19,0-.39,0-.73,0a4.77,4.77,0,0,1,.36-.55.35.35,0,0,1,.47-.07.65.65,0,0,1,.15.37A.25.25,0,0,1,13.41,22.74Zm1.88,18.37a.77.77,0,0,1,.55.48.33.33,0,0,1-.06.3.35.35,0,0,1-.31,0C15.16,41.81,15.12,41.6,15.29,41.11Zm-.7-6.59c-.14,0-.27-.22-.25-.39s.2-.31.53-.27c.05.06.19.15.19.25A.5.5,0,0,1,14.59,34.52Zm-.86,9.17c0-.06.06-.16.13-.2a.39.39,0,0,1,.24,0,.59.59,0,0,1,.2.15c.2.24.23.53.07.6A.49.49,0,0,1,13.8,44,1.38,1.38,0,0,1,13.73,43.69ZM10.21,16.26a1.12,1.12,0,0,1-.23-.34c-.05-.18.25-.42.4-.33a.53.53,0,0,1,.21.34C10.63,16.12,10.46,16.28,10.21,16.26ZM16,12.93a.31.31,0,0,1,.2-.14.42.42,0,0,1,.28.14.81.81,0,0,1,0,.74C16,13.53,15.85,13.24,16,12.93Zm-.15,18.73c-.32-.16-.34-.33-.13-.78.33,0,.42.25.51.5a.23.23,0,0,1-.08.22A.42.42,0,0,1,15.82,31.66ZM8.71,12.88a1.27,1.27,0,0,1,.23-.16c.09.06.23.1.26.18a1.61,1.61,0,0,1,.06.49.25.25,0,0,1-.33.17C8.6,13.42,8.51,13.16,8.71,12.88Zm3.4-1.51a.39.39,0,0,1,.36-.46c.16,0,.39.12.4.25a.24.24,0,0,1,0,.16.46.46,0,0,1-.51.22C12.23,11.52,12.16,11.41,12.11,11.37ZM2.84,30.6c-.11-.15-.19-.33-.3-.51a1,1,0,0,1,.26-.25s.16,0,.21.08a.56.56,0,0,1,.1.63C3.07,30.65,2.9,30.69,2.84,30.6ZM17.57,14.86a.64.64,0,0,1,.26-.6.25.25,0,0,1,.36.08.5.5,0,0,1-.16.55A.3.3,0,0,1,17.57,14.86Zm-7.92-4.3a.43.43,0,0,1,.44-.33.43.43,0,0,1,.3.45c0,.15-.21.24-.43.21S9.61,10.71,9.65,10.56Zm3.53,19.3c-.2,0-.32-.3-.23-.59a.31.31,0,0,1,.24-.19.44.44,0,0,1,.44.44A.46.46,0,0,1,13.18,29.86Zm3.55,10.08c0-.12.11-.23.16-.31a.43.43,0,0,1,.5.42.26.26,0,0,1-.28.26A.35.35,0,0,1,16.73,39.94ZM8,43.26a.31.31,0,0,1-.32.33.34.34,0,0,1-.35-.4.89.89,0,0,1,.18-.3A.47.47,0,0,1,8,43.26ZM26.21,1.41A.44.44,0,0,1,26.62,1a.3.3,0,0,1,.26.38.36.36,0,0,1-.34.33A.33.33,0,0,1,26.21,1.41ZM26,4.72a.88.88,0,0,1,.31.25c0,.3-.17.45-.39.43a.34.34,0,0,1-.31-.34A.32.32,0,0,1,26,4.72ZM11.12,23.39a4.71,4.71,0,0,1-.54,0,2.07,2.07,0,0,1,.13-.49.32.32,0,0,1,.56,0A.28.28,0,0,1,11.12,23.39Zm7.07,21a.25.25,0,0,1,.22-.06.44.44,0,0,1,.28.52.66.66,0,0,1-.22.16c-.06,0-.15,0-.23-.08s0,0,0-.07S18.05,44.5,18.19,44.35Zm3.06,2.22a.37.37,0,0,1,.22.5.26.26,0,0,1-.2.14.35.35,0,0,1-.37-.3c0-.09,0-.17-.07-.35C21,46.56,21.16,46.52,21.25,46.57Zm1-39c-.32-.33-.37-.46-.18-.6a.41.41,0,0,1,.54.06C22.69,7.13,22.58,7.3,22.23,7.52Zm-14.94,9a.38.38,0,0,1,.38-.4c.12,0,.22.12.3.17,0,.31-.13.47-.36.46S7.31,16.71,7.29,16.53Zm9.33-5.6a.44.44,0,0,1,.4-.53,1,1,0,0,1,.16.21.4.4,0,0,1,0,.24c0,.17-.13.34-.34.31S16.63,11,16.62,10.93ZM12.81,38.2a.39.39,0,0,1,.5-.2c.15,0,.26.16.2.31a.33.33,0,0,1-.24.19A.4.4,0,0,1,12.81,38.2ZM3.38,35.27a.31.31,0,0,1-.36.29c-.21,0-.33-.21-.31-.52.07,0,.18-.18.29-.18A.41.41,0,0,1,3.38,35.27ZM2.07,26a.56.56,0,0,1,.05.75.33.33,0,0,1-.28.11c-.08,0-.16-.15-.18-.25A.53.53,0,0,1,2.07,26ZM16.3,23.18a.3.3,0,0,1-.3-.07.32.32,0,0,1,0-.3,1.21,1.21,0,0,1,.28-.22c.21,0,.35.18.28.3A.61.61,0,0,1,16.3,23.18Zm0,25.84a.71.71,0,0,1,.18.37c0,.08-.1.19-.19.25a.24.24,0,0,1-.21-.08,3.2,3.2,0,0,1-.19-.37c.08-.09.12-.18.18-.21A.29.29,0,0,1,16.34,49Zm9.5-45.75a.47.47,0,0,1-.28-.16c-.09-.08,0-.26.18-.32s.28-.07.47-.12c0,.12.12.22.1.29A.43.43,0,0,1,25.84,3.27ZM8.64,25.78c-.11,0-.21-.13-.28-.18,0-.31.1-.5.28-.55s.31.12.33.33A.32.32,0,0,1,8.64,25.78ZM19.9,13.13a1,1,0,0,1,.23-.26c.27,0,.4.13.41.32a.28.28,0,0,1-.25.31C20.08,13.51,19.84,13.3,19.9,13.13ZM15.1,38.78c0,.11-.17.19-.22.25-.28,0-.47-.18-.43-.4a.49.49,0,0,1,.26-.3C14.91,38.25,15.15,38.52,15.1,38.78Zm3.18,12.8a.9.9,0,0,1,0,.16c0,.14-.25.22-.44.18a.32.32,0,0,1-.25-.39.28.28,0,0,1,.38-.24A1.59,1.59,0,0,1,18.28,51.58ZM13.34,40.46a.94.94,0,0,1,.31-.18.35.35,0,0,1,.35.4.29.29,0,0,1-.34.2A.37.37,0,0,1,13.34,40.46Zm.42-13.65a1.58,1.58,0,0,1,.34-.25c.08.11.18.18.17.23a1.22,1.22,0,0,1-.2.45s-.22,0-.3,0A.26.26,0,0,1,13.76,26.81Zm.3-2.18c0-.19.24-.47.37-.41s.19.19.32.32c-.11.13-.18.27-.29.32A.33.33,0,0,1,14.06,24.63Zm.52,12c0-.15.11-.31.26-.27s.23.18.42.33c-.21.12-.34.25-.48.25S14.56,36.82,14.58,36.66Zm0-29c-.08-.14.11-.4.3-.44s.31.12.33.32,0,.3-.2.33A.38.38,0,0,1,14.59,7.68Zm2,8.87c.05.07.17.16.19.27a.31.31,0,0,1-.28.37A.29.29,0,0,1,16.2,17C16.17,16.76,16.33,16.57,16.62,16.55ZM16.69,8a2.25,2.25,0,0,1,.35-.4c.11.17.22.27.24.39a.31.31,0,0,1-.3.34C16.8,8.36,16.62,8.18,16.69,8ZM17.55,47c-.18.13-.35.11-.45,0s-.1-.3.18-.59a4,4,0,0,1,.31.27A.21.21,0,0,1,17.55,47Zm1.29-30.54a.44.44,0,0,1,0,.56,3.19,3.19,0,0,1-.46.41,3.63,3.63,0,0,1,0-.64C18.51,16.48,18.71,16.33,18.84,16.43Zm.79,30.14c0,.17-.2.38-.41.34s-.19-.17-.34-.3c.16-.15.26-.29.39-.34S19.6,46.41,19.63,46.57Zm2.82-1c-.14,0-.3-.15-.29-.34s.11-.3.26-.27a1.9,1.9,0,0,1,.48.29A2.14,2.14,0,0,1,22.45,45.6ZM1.71,24.12a.25.25,0,0,1-.14-.35c.1-.2.23-.4.52-.31a.5.5,0,0,1,0,.57A.28.28,0,0,1,1.71,24.12Zm1.68,8.26a.19.19,0,0,1-.07.14.35.35,0,0,1-.51-.11c-.11-.14,0-.27.07-.38A.45.45,0,0,1,3,32,.43.43,0,0,1,3.39,32.38Zm.71-6.15h0c0,.16-.08.29-.25.3s-.33-.23-.3-.38a.87.87,0,0,1,.16-.3.28.28,0,0,1,.23-.07.33.33,0,0,1,.15.19S4.1,26.09,4.1,26.23Zm.54-6.37a.41.41,0,0,1,.45-.39,1.05,1.05,0,0,1,.15.32.34.34,0,0,1-.37.38A.27.27,0,0,1,4.64,19.86Zm.87,18.33a.31.31,0,0,1-.25-.39c0-.14.14-.26.31-.24a.4.4,0,0,1,.3.47C5.81,38.2,5.66,38.22,5.51,38.19Zm.86-5a.29.29,0,0,1-.29.27.36.36,0,0,1-.35-.41c0-.12.16-.21.21-.28C6.22,32.81,6.41,33,6.37,33.2ZM8.5,28.4a.26.26,0,0,1-.22-.06A.85.85,0,0,1,8.11,28c0-.08.09-.18.15-.28s.24.06.26.12a.84.84,0,0,1,.11.41A.23.23,0,0,1,8.5,28.4Zm2.07,10.32c0-.15.1-.31.23-.3s.36.17.39.46c-.06,0-.14.19-.25.22S10.59,39,10.57,38.72Zm3.3-7s-.12.14-.21.16a.34.34,0,0,1-.43-.37.38.38,0,0,1,.19-.24C13.62,31.22,13.85,31.43,13.87,31.74ZM13.5,6.64l-.43-.46a1.91,1.91,0,0,1,.4-.23.27.27,0,0,1,.22.08C13.85,6.27,13.75,6.46,13.5,6.64Zm10.78-4.3A2,2,0,0,1,24,1.82c0-.15.2-.28.38-.24s.25.16.19.31A2.14,2.14,0,0,1,24.28,2.34Zm-21,25.5c.17.05.24.21.17.43s-.13.26-.31.24a.34.34,0,0,1-.24-.4A.32.32,0,0,1,3.26,27.84Zm18-25.13a.29.29,0,0,1,.11-.22c.06-.05.16-.05.29-.1s.21.11.22.19a.37.37,0,0,1-.14.28.52.52,0,0,1-.33,0A.25.25,0,0,1,21.22,2.71ZM14.75,49.87a.37.37,0,0,1-.21.23c-.2,0-.35-.14-.34-.46,0,0,.11-.15.2-.17S14.78,49.67,14.75,49.87ZM8.48,18.3A1,1,0,0,1,8.62,18a.37.37,0,0,1,.39.42.4.4,0,0,1-.22.22C8.64,18.67,8.48,18.51,8.48,18.3Zm.69,23.24a.39.39,0,0,1-.26.19.28.28,0,0,1-.32-.31,1.09,1.09,0,0,1,.18-.3C9,41.13,9.24,41.39,9.17,41.54Zm-8-13c.05-.22.11-.44.18-.65,0,0,.1,0,.15,0a.23.23,0,0,1,.11.11c0,.05,0,.12,0,.26s-.11.24-.19.38-.1,0-.15,0S1.19,28.59,1.19,28.56ZM14.8,20.94a.33.33,0,0,1,.33-.31c.18,0,.32.12.31.38-.07,0-.16.17-.27.19A.33.33,0,0,1,14.8,20.94Zm.59-6.1c0,.08.16.17.19.29a.26.26,0,0,1-.24.37.33.33,0,0,1-.35-.21C14.93,15.1,15.1,14.88,15.39,14.84Zm-3,30.49a.67.67,0,0,1-.06.15.4.4,0,0,1-.53-.07.72.72,0,0,1,0-.39.19.19,0,0,1,.14-.07A.42.42,0,0,1,12.38,45.33ZM15.06,9.1a1.36,1.36,0,0,1,.23-.34c.11.08.21.12.24.18a.44.44,0,0,1-.09.49.29.29,0,0,1-.24,0A.26.26,0,0,1,15.06,9.1ZM12.48,35.92c0,.09,0,.13,0,.14s-.18.16-.26.16a.35.35,0,0,1-.31-.49c0-.07.22-.15.28-.11A1.54,1.54,0,0,1,12.48,35.92Zm-.05-15.87c-.07-.17.11-.39.38-.42,0,.05.14.12.17.21a.28.28,0,0,1-.3.39A.34.34,0,0,1,12.43,20.05Zm-5.7,7.71c0,.06.13.15.12.23a.35.35,0,0,1-.37.3.34.34,0,0,1-.23-.21C6.21,27.89,6.41,27.74,6.73,27.76Zm8.84,17.59c0-.16.16-.3.29-.23a2.22,2.22,0,0,1,.31.28c0,.25-.24.43-.36.37A.4.4,0,0,1,15.57,45.35ZM4.38,21.94c0,.13-.14.26-.2.35A.33.33,0,0,1,3.79,22a.29.29,0,0,1,.29-.26A.26.26,0,0,1,4.38,21.94ZM20.3,8.34c-.06-.22.1-.41.38-.44,0,0,.15.13.16.21a.33.33,0,0,1-.36.39A.26.26,0,0,1,20.3,8.34ZM16.92,43.88c.06.1-.11.25-.26.24s-.35-.14-.31-.31.11-.17.2-.29A2.13,2.13,0,0,1,16.92,43.88Zm3.33.34a.3.3,0,0,1,.29,0,1.47,1.47,0,0,1,.25.37c-.13.08-.24.18-.31.16a.57.57,0,0,1-.31-.24A.32.32,0,0,1,20.25,44.22Zm-.09,4.43c-.15,0-.17-.22-.13-.37a.23.23,0,0,1,.36-.1,3.49,3.49,0,0,1,.36.45A2,2,0,0,1,20.16,48.65ZM9.71,36a.4.4,0,0,1,.35.47,2,2,0,0,1-.49,0c-.06,0-.11-.19-.11-.29A.19.19,0,0,1,9.71,36Zm3.77,6.43c-.13,0-.25-.16-.43-.28.15-.12.22-.22.31-.24s.48.17.42.3S13.57,42.43,13.48,42.41Zm4.23-4.55c.17,0,.31.12.32.38-.05,0-.12.15-.2.16a.27.27,0,0,1-.31-.31A.34.34,0,0,1,17.71,37.86ZM18.65,7s0,0,0-.06a.34.34,0,0,1,.27-.37.27.27,0,0,1,.35.14.63.63,0,0,1,0,.13c-.06.05-.13.16-.22.18A1,1,0,0,1,18.65,7ZM8.51,39.27a.14.14,0,0,1-.15,0,.35.35,0,0,1-.21-.59.56.56,0,0,1,.2-.11l.1,0A.46.46,0,0,1,8.51,39.27ZM13.77,9a.4.4,0,0,1-.17.26,1.93,1.93,0,0,1-.5.06,2.27,2.27,0,0,1,.23-.51c.05-.05.21,0,.31,0S13.79,8.94,13.77,9ZM4.92,16.52c0-.15.13-.3.39-.31.05.05.17.14.2.24a.23.23,0,0,1-.2.31A.33.33,0,0,1,4.92,16.52Zm3,4.15c0-.26.13-.43.28-.42s.24.13.24.28-.13.4-.27.35A.77.77,0,0,1,7.91,20.67Zm-1-7a1.56,1.56,0,0,1,.21.4.26.26,0,0,1-.24.3c-.17,0-.4-.17-.34-.29S6.74,13.81,6.91,13.63Zm12.19-4c.06.16-.11.4-.24.37a.45.45,0,0,1-.23-.22c-.08-.18,0-.36.25-.41C18.94,9.45,19.06,9.53,19.1,9.64Zm-.85,3a.3.3,0,0,1-.2-.21.31.31,0,0,1,.33-.33c.1,0,.19.08.26.11A.37.37,0,0,1,18.25,12.61ZM8,23.59a.36.36,0,0,1-.29-.38c0-.13.22-.27.34-.21s.18.19.23.24C8.22,23.5,8.1,23.62,8,23.59Zm-.18,6.05a.31.31,0,0,1,.37.27.3.3,0,0,1-.18.35c-.18,0-.36-.15-.4-.44C7.62,29.77,7.69,29.67,7.78,29.64Zm2.31-9.42a1.49,1.49,0,0,1,.42-.18.25.25,0,0,1,.29.26c0,.08,0,.2-.09.22a.5.5,0,0,1-.32,0C10.3,20.46,10.23,20.35,10.09,20.22Zm17.52,31.9a.34.34,0,0,1-.42-.33c0-.07.09-.14.13-.19.23,0,.49.14.49.31A.3.3,0,0,1,27.61,52.12ZM2.43,21.63c-.21,0-.39-.16-.32-.29s.19-.17.33-.29a1.41,1.41,0,0,1,.27.34C2.76,21.51,2.58,21.64,2.43,21.63Zm4.23,8.68A2.52,2.52,0,0,1,6.21,30s0-.21.06-.3.17-.06.22,0S6.83,29.93,6.66,30.31ZM13.19,47.4a2.81,2.81,0,0,1,.28.45s-.13.17-.22.19a.25.25,0,0,1-.28-.32C13,47.63,13.08,47.55,13.19,47.4ZM14,12.86c.18,0,.21.18.18.33a.36.36,0,0,1-.18.24.26.26,0,0,1-.32-.22A.34.34,0,0,1,14,12.86Zm1.57,34.63c0,.09-.15.27-.28.25a.26.26,0,0,1-.24-.29,1.59,1.59,0,0,1,.14-.36A2.66,2.66,0,0,1,15.56,47.49ZM5.1,27.52a.31.31,0,0,1,.32-.38.57.57,0,0,1,.15.23c0,.22-.08.42-.23.37A.37.37,0,0,1,5.1,27.52ZM15.91,51c.11,0,.19.15.38.3a1.67,1.67,0,0,1-.54.17c-.16,0-.21-.17-.17-.33S15.78,50.94,15.91,51Zm-.2-46.42a.2.2,0,0,1,0-.08.67.67,0,0,1,.06-.15c.11-.15.24-.28.42-.17s.12.24,0,.37S16,4.73,15.71,4.57ZM4.31,29.24c.14-.11.23-.25.33-.26s.22.15.22.31-.15.35-.24.29A1.79,1.79,0,0,1,4.31,29.24Zm5.36,3.24a.34.34,0,0,1-.18-.24c0-.08.13-.16.21-.24s.25.11.35.17a.16.16,0,0,1,0,.28A.58.58,0,0,1,9.67,32.48ZM6.29,21.57a.48.48,0,0,1-.23-.3c0-.1.14-.2.28-.37a1.68,1.68,0,0,1,.2.42C6.56,21.47,6.39,21.64,6.29,21.57ZM16.46,34.88c0-.05.18-.1.22-.07a2.46,2.46,0,0,1,.33.36c-.17.09-.29.21-.39.19A.29.29,0,0,1,16.46,34.88Zm-8-3.49a1.33,1.33,0,0,1,.18.42c0,.07-.16.16-.26.18s-.24-.15-.18-.31A1.8,1.8,0,0,1,8.41,31.39ZM4.17,36.73a.27.27,0,0,1-.3.25c-.09,0-.16-.13-.28-.24.13-.12.21-.25.32-.29S4.19,36.59,4.17,36.73ZM18,42a3.15,3.15,0,0,1,.35.43c.06.12-.09.3-.22.31a.31.31,0,0,1-.34-.31C17.81,42.31,17.91,42.2,18,42ZM3.5,33.73c0-.09.1-.18.14-.24.25,0,.45.24.4.42s-.13.15-.2.14A.33.33,0,0,1,3.5,33.73ZM19.17,52.19a2.92,2.92,0,0,1,.36.4s-.08.2-.16.23-.39,0-.38-.2A1.27,1.27,0,0,1,19.17,52.19ZM3.61,18.86c-.13,0-.23-.06-.24-.19s.12-.32.38-.35c0,.05.14.12.15.2A.27.27,0,0,1,3.61,18.86Zm17.26,34.3a.85.85,0,0,1,.13.27c-.06.07-.12.18-.2.22s-.17,0-.22-.08a.31.31,0,0,1-.09-.23.42.42,0,0,1,.16-.25S20.82,53.11,20.87,53.16ZM20.7,5.37c-.18,0-.2-.19-.16-.33s.13-.15.21-.23l.32.32C20.9,5.24,20.8,5.37,20.7,5.37ZM1.82,32.84a2.21,2.21,0,0,1,.3.46s-.13.18-.22.19a.27.27,0,0,1-.3-.33C1.61,33.07,1.71,33,1.82,32.84Zm23.93,20.9a3.45,3.45,0,0,1,.43.3c-.14.11-.21.21-.3.23a.27.27,0,0,1-.32-.3C25.57,53.88,25.72,53.73,25.75,53.74ZM11.92,26.9c-.15,0-.26-.24-.17-.34s.21-.16.39-.29a1.51,1.51,0,0,1,.12.45A.25.25,0,0,1,11.92,26.9Zm-10.44,4c-.19,0-.38-.09-.35-.26s.13-.22.23-.39c.16.15.32.24.37.37S1.63,30.82,1.48,30.85Zm27.7,22.38a.24.24,0,0,1-.3.21.29.29,0,0,1-.26-.36c0-.08.14-.13.18-.17C29.08,52.94,29.2,53.06,29.18,53.23ZM12.83,48.8a2.18,2.18,0,0,1,.47.27c-.15.15-.24.27-.35.31s-.31-.11-.35-.3S12.7,48.76,12.83,48.8ZM10.29,34.29c0,.1-.15.19-.29.35a1.41,1.41,0,0,1-.21-.4A.32.32,0,0,1,10,34,.25.25,0,0,1,10.29,34.29ZM3.86,23.47c.09,0,.17.11.32.2-.14.14-.21.27-.32.31a.31.31,0,0,1-.26-.15A.28.28,0,0,1,3.86,23.47ZM19.09,3.21c0-.09.12-.16.16-.2.24,0,.41.16.36.32a.28.28,0,0,1-.17.15C19.25,3.51,19.05,3.35,19.09,3.21Zm-3,2.91a1.34,1.34,0,0,1,.2-.4c.13.12.24.18.27.27a.22.22,0,0,1-.22.29C16.26,6.28,16.1,6.17,16.11,6.12Zm2.42,42.64c.07.09-.12.29-.26.25s-.19-.15-.35-.27c.14-.1.24-.23.3-.21A.55.55,0,0,1,18.53,48.76Zm1.6-6.37a.26.26,0,0,1-.31-.3.7.7,0,0,1,.14-.23c.24,0,.43.15.38.31A.35.35,0,0,1,20.13,42.39Zm-15.42-12c.13.16.25.25.29.36s-.11.2-.2.23a.24.24,0,0,1-.29-.24A1.75,1.75,0,0,1,4.71,30.42ZM16.65,19.31c0-.16.19-.3.43-.24,0,.08.1.21.08.32s-.18.21-.32.15A.39.39,0,0,1,16.65,19.31Zm9.07,31.8a.54.54,0,0,1,0-.31s.07-.07.12-.1a.4.4,0,0,1,.32.42s-.07.12-.1.11A.54.54,0,0,1,25.72,51.11ZM14.15,46.37c-.05,0-.12.13-.21.15a.26.26,0,0,1-.32-.29.31.31,0,0,1,.2-.2C14,46,14.15,46.14,14.15,46.37ZM21,51.64c.14.15.28.24.29.34s-.15.24-.31.2-.24-.15-.23-.18A1.82,1.82,0,0,1,21,51.64ZM8.07,34.3c0,.15-.12.27-.28.26s-.17-.11-.3-.2c.13-.13.2-.26.3-.31S8.09,34.18,8.07,34.3ZM25.2,49.36c-.1,0-.17-.18-.31-.32.15-.1.24-.19.33-.2s.3.2.25.37S25.31,49.42,25.2,49.36ZM7.3,36.46c0-.08.1-.16.13-.22.25,0,.42.2.36.34a.36.36,0,0,1-.25.17A.24.24,0,0,1,7.3,36.46Zm3.8,5.65a2.25,2.25,0,0,1,.27.48s-.14.13-.22.19a1.26,1.26,0,0,1-.25-.32C10.88,42.4,11,42.29,11.1,42.11Zm.45-28.21a.85.85,0,0,1-.33-.1.34.34,0,0,1,.32-.4c.13,0,.21.06.23.19A.26.26,0,0,1,11.55,13.9Zm-.16,18.47c0-.09.15-.15.2-.2.22,0,.37.25.3.4a.38.38,0,0,1-.25.18A.28.28,0,0,1,11.39,32.37Zm0-3.82a2.84,2.84,0,0,1,.31-.47c.1.16.19.24.21.34s0,.29-.2.32S11.32,28.66,11.36,28.55Zm11.22-19c0,.16-.11.3-.26.28s-.17-.16-.29-.29c.14-.13.21-.25.32-.29S22.6,9.42,22.58,9.56ZM11.81,8a.34.34,0,0,1-.13-.27c0-.1.16-.18.3-.32a1.22,1.22,0,0,1,.18.32C12.16,7.91,11.94,8.08,11.81,8ZM6.38,25.5a.24.24,0,0,1-.24.29c-.08,0-.16-.12-.21-.16,0-.23.1-.36.25-.36S6.36,25.4,6.38,25.5ZM5.52,24a.68.68,0,0,1,.07-.32c0-.06.15-.14.19-.12s.15.14.23.22a1.19,1.19,0,0,1-.16.32.38.38,0,0,1-.24,0A.16.16,0,0,1,5.52,24ZM5.41,35.58a.22.22,0,0,1-.29-.22,1.28,1.28,0,0,1,.2-.38c.14.13.29.2.32.3S5.55,35.53,5.41,35.58ZM24.57,47.49a.72.72,0,0,1-.21.16c-.17,0-.31-.09-.31-.29s0-.23.18-.24S24.55,47.25,24.57,47.49ZM10.26,43.72c.06.1-.11.33-.22.32a.29.29,0,0,1-.27-.29c0-.1.08-.19.15-.36C10.08,43.54,10.2,43.61,10.26,43.72ZM23.93,6.49a.44.44,0,0,1,.18-.24,2.1,2.1,0,0,1,.37.27c-.12.11-.2.22-.28.23A.23.23,0,0,1,23.93,6.49Zm-.18,43.65c0-.08.13-.15.26-.28a1.44,1.44,0,0,1,.17.43c0,.06-.16.18-.23.17A.24.24,0,0,1,23.75,50.14ZM5.56,40.42a2,2,0,0,1,.35.3c-.14.1-.22.2-.31.21a.24.24,0,0,1-.29-.24C5.29,40.54,5.44,40.37,5.56,40.42Zm8.62-21.55a1,1,0,0,1,.21-.27.26.26,0,0,1,.23,0s.08.1.08.14a.81.81,0,0,1-.13.3.22.22,0,0,1-.22,0C14.28,19.06,14.25,19,14.18,18.87Zm14.37,32.8a.32.32,0,0,1-.21-.4c0-.06.12-.09.24-.18a4.61,4.61,0,0,1,.17.47A.29.29,0,0,1,28.55,51.67Zm2.89,2.14a.23.23,0,0,1-.33.16c-.09,0-.14-.14-.26-.27.15-.09.25-.19.33-.18S31.46,53.62,31.44,53.81ZM11.2,47.08c-.14.09-.23.19-.32.19s-.23-.15-.23-.31.1-.24.21-.2S11.06,46.93,11.2,47.08Zm.54-25.35c-.16,0-.31-.06-.29-.24s.13-.25.18-.24a1.29,1.29,0,0,1,.39.23C11.89,21.6,11.82,21.71,11.74,21.73ZM6,18.25A3.29,3.29,0,0,1,6.41,18a.51.51,0,0,1,.15.25.28.28,0,0,1-.38.22C6.11,18.45,6.08,18.36,6,18.25ZM10.2,29.82a1.57,1.57,0,0,1-.4.14.2.2,0,0,1-.19-.3c0-.06.14-.14.18-.12A2.73,2.73,0,0,1,10.2,29.82ZM9.23,22c0-.25.09-.41.27-.38a.25.25,0,0,1,.18.15.28.28,0,0,1-.28.34C9.33,22.07,9.27,22,9.23,22Zm8.45-1a.77.77,0,0,1-.24-.12c0-.25.11-.42.29-.4a.26.26,0,0,1,.17.14C18,20.8,17.84,21,17.68,21ZM19,40.43c0-.08.08-.17.16-.34.14.17.26.25.29.36s-.1.21-.18.23A.24.24,0,0,1,19,40.43ZM10.41,27.16a.24.24,0,0,1-.23.3c-.09,0-.18-.11-.33-.2.14-.14.23-.26.34-.3S10.39,27.07,10.41,27.16ZM22.77,53.74a.27.27,0,0,1-.15.18c-.17.06-.32-.08-.33-.29s.07-.13.1-.18A.31.31,0,0,1,22.77,53.74Zm0-1.72a.24.24,0,0,1-.14.17.23.23,0,0,1-.32-.19,1.07,1.07,0,0,1,.06-.27A.32.32,0,0,1,22.78,52Zm.37-3.71a.28.28,0,0,1-.17.15c-.16,0-.3-.16-.27-.37.05,0,.11-.1.18-.1A.25.25,0,0,1,23.15,48.31Zm0-1.52c0,.1-.16.28-.27.26a.28.28,0,0,1-.24-.3c0-.08.12-.15.22-.27C23,46.61,23.14,46.68,23.19,46.79ZM23.06,4.34A1.53,1.53,0,0,1,23.27,4c.11.12.22.19.23.27a.32.32,0,0,1-.16.25A.21.21,0,0,1,23.06,4.34Zm1.11,48.83a.22.22,0,0,1-.21.11.24.24,0,0,1-.23-.29.44.44,0,0,1,.08-.15H24C24.13,52.9,24.24,53,24.17,53.17Zm-.45-1.43c.23-.26.33-.3.43-.14s.07.25,0,.29C24,52.09,23.83,51.92,23.72,51.74Zm1.65.28c.09.16.19.26.17.34s-.14.12-.22.18-.15-.16-.16-.24S25.27,52.16,25.37,52Zm1.57.76a1.93,1.93,0,0,1,.24.33s-.15.18-.22.18a.24.24,0,0,1-.22-.3C26.76,52.92,26.84,52.88,26.94,52.78Zm-6.36-2.23a.15.15,0,0,1-.22-.16,1.19,1.19,0,0,1,.16-.33c.13.13.25.2.25.27S20.66,50.51,20.58,50.55Zm-4.76-21.9a1.92,1.92,0,0,1-.28-.29s.06-.12.14-.25c.12.12.24.19.28.29S15.87,28.56,15.82,28.65Zm2.23-23.6c0-.12.09-.23.18-.44.12.17.23.26.22.34a.35.35,0,0,1-.16.25A.16.16,0,0,1,18.05,5.05ZM11,30.26c.07,0,.15.13.28.25-.13.08-.21.16-.3.17a.16.16,0,0,1-.19-.21C10.85,30.38,11,30.26,11,30.26Zm-.39-5.34a1.24,1.24,0,0,1-.26-.19l.27-.3a1.36,1.36,0,0,1,.16.34C10.81,24.82,10.67,24.93,10.64,24.92Zm12,24.94c.11.14.22.23.22.32s-.13.14-.2.22c-.07-.08-.19-.15-.2-.23S22.5,50,22.59,49.86Zm5-46.44c0-.09.18-.21.24-.2s.19.17.32.28c-.11.09-.16.18-.22.19S27.55,3.56,27.61,3.42ZM9.76,45.56a1.3,1.3,0,0,1-.38.13c-.14,0-.17-.13-.15-.25s.12-.21.24-.15S9.62,45.43,9.76,45.56Zm19.71,8.6.33.31c-.16.08-.27.18-.33.15a.33.33,0,0,1-.19-.23C29.28,54.31,29.41,54.24,29.47,54.16Zm.6-1.9c.09,0,.15.13.27.23-.13.09-.22.2-.3.2a.38.38,0,0,1-.24-.19C29.76,52.39,29.93,52.22,30.07,52.26ZM16.16,26.06c-.13,0-.33-.11-.3-.22s.12-.18.22-.32a.94.94,0,0,1,.22.28A.18.18,0,0,1,16.16,26.06Zm-1.8-15.35c0-.15.1-.26.26-.26s.12.08.24.16a2.63,2.63,0,0,1-.29.29C14.49,11,14.34,10.81,14.36,10.71ZM6.27,31.39c.06,0,.11.08.21.17-.11.09-.18.2-.27.22S6,31.69,6,31.56A.18.18,0,0,1,6.27,31.39ZM19.06,50.63c0,.08-.13.14-.21.22s-.18-.1-.21-.16.1-.3.23-.26S19.06,50.56,19.06,50.63Zm2.23-1.45a1.67,1.67,0,0,1,.13.33c0,.11-.18.24-.24.17a.54.54,0,0,1-.1-.3C21.07,49.33,21.18,49.28,21.29,49.18ZM4.57,39a1.26,1.26,0,0,1,.18.27s-.09.13-.15.15-.3-.12-.24-.24A1.44,1.44,0,0,1,4.57,39Zm6-29.62c-.08,0-.18-.07-.34-.14.14-.13.21-.23.29-.25s.25,0,.23.16A.31.31,0,0,1,10.61,9.39ZM26.78,50.25c-.09,0-.22-.09-.25-.16s0-.2.07-.38c.13.12.25.18.27.26S26.81,50.16,26.78,50.25ZM12.68,25.08c-.08,0-.21-.09-.24-.17s.06-.17.08-.23c.23,0,.27.08.27.19S12.72,25,12.68,25.08Zm15.2,29.17c.09,0,.18.11.28.19-.07.1-.11.21-.17.22s-.24,0-.25-.16S27.74,54.24,27.88,54.25Zm-3.33.24s-.07.11-.11.17l-.29-.19c.13-.07.2-.14.24-.13A.26.26,0,0,1,24.55,54.49Z"/></g></g></svg>