<svg xmlns="http://www.w3.org/2000/svg" viewBox="0 0 102.25 118.85"><title>Asset 552</title><g id="Layer_2" data-name="Layer 2"><g id="Layer_1-2" data-name="Layer 1"><path d="M38,118.14h3.66v.71H37.16V111H38Zm4.86.71h.8V111h-.8Zm7.64-3.55a1.89,1.89,0,0,1,.5,1.37,2,2,0,0,1-.2.9,2,2,0,0,1-.58.69,3,3,0,0,1-.92.44,4.63,4.63,0,0,1-1.22.15H45.71V111h2.34a4.58,4.58,0,0,1,.9.09,2.38,2.38,0,0,1,.82.32,1.85,1.85,0,0,1,.59.62,2,2,0,0,1,.22,1,1.67,1.67,0,0,1-.37,1.08,1.84,1.84,0,0,1-1,.61v0A2.12,2.12,0,0,1,50.46,115.3Zm-4-.87h1.61a2.3,2.3,0,0,0,.58-.07,1.62,1.62,0,0,0,.54-.22,1.28,1.28,0,0,0,.55-1.09,1.19,1.19,0,0,0-.16-.64,1.24,1.24,0,0,0-.4-.42,1.8,1.8,0,0,0-.6-.24,3.41,3.41,0,0,0-.73-.07H46.51Zm3.65,2.2a1.31,1.31,0,0,0-.53-1.16,2.45,2.45,0,0,0-1.49-.38H46.51v3.07H48a4.3,4.3,0,0,0,.82-.08,2.16,2.16,0,0,0,.69-.27,1.32,1.32,0,0,0,.47-.47A1.36,1.36,0,0,0,50.16,116.63Zm5.6-1.52,2.3,3.74h-1l-2.18-3.68H53.57v3.68h-.8V111h2.31a4.45,4.45,0,0,1,1.07.11,2.3,2.3,0,0,1,.86.36,1.68,1.68,0,0,1,.56.65,2.22,2.22,0,0,1,.2,1,1.83,1.83,0,0,1-.58,1.4,2,2,0,0,1-.63.42A2.84,2.84,0,0,1,55.76,115.11Zm-.8-.62a2.71,2.71,0,0,0,1.49-.35,1.19,1.19,0,0,0,.52-1,1.46,1.46,0,0,0-.14-.66,1.18,1.18,0,0,0-.4-.43,2,2,0,0,0-.63-.25,4,4,0,0,0-.81-.07H53.57v2.81Zm11.09,4.36h-.89l-.87-2.06H60.23l-.86,2.06h-.88l3.4-7.86h.78ZM64,116.05l-1.73-4.17-1.73,4.17Z"/><path d="M48.16,52.36a3.43,3.43,0,0,0,3,3.41v1.5H49.59v.79H51.2v4.22H52V58.06h1.61v-.79H52v-1.5a3.44,3.44,0,1,0-3.84-3.41Zm6.09,0a2.65,2.65,0,1,1-2.65-2.64A2.65,2.65,0,0,1,54.25,52.36Z"/><path d="M100.2,47.75a1.56,1.56,0,0,0-1.08.41,5,5,0,0,1-3.37,1.52c-2.69,0-5.67-2.7-9.44-6.11a75,75,0,0,0-13.37-10.2,46.68,46.68,0,0,0-21.07-6v0h-.06l3-5.65-3.18-6-3.09,5.79-.1.19,3,5.64h-.13v0a46.72,46.72,0,0,0-21.07,6A74.5,74.5,0,0,0,16.9,43.57c-3.78,3.41-6.76,6.11-9.45,6.11a5,5,0,0,1-3.37-1.52A1.56,1.56,0,0,0,3,47.75a2.14,2.14,0,0,0-2,2.16c0,3.39,3.79,4.9,7.54,4.9a10.8,10.8,0,0,0,2.38-.25c3-.72,5.89-3.31,9.52-6.58,1.76-1.58,3.69-3.32,5.87-5L19.71,72.18H14.92v.4a11.56,11.56,0,1,0,23.12,0v-.4h-4.8L26.67,42.85l0-.19a43.24,43.24,0,0,1,24.6-9.58V46a9.65,9.65,0,0,0-3.31.77l-2.16-4.48-.72.34,2.16,4.5a9.52,9.52,0,0,0-2.68,2.08l-3.87-3.09-.5.62L44,49.83a9.69,9.69,0,0,0-1.54,3.06l-4.78-1.1-.18.78,4.73,1.08a9.63,9.63,0,0,0-.2,2,9.31,9.31,0,0,0,.15,1.51l-4.69,1.07.17.78,4.68-1.07a9.5,9.5,0,0,0,1.43,3.19L40.1,64l.5.62,3.69-2.94A9.51,9.51,0,0,0,47,64l-2,4.2.72.34,2-4.15a9.53,9.53,0,0,0,3.53.85V89.77H34.75c-1,0-2.11.32-2.11,1v.76c0,.7,1.06,1,2.11,1H68.89c1,0,2.11-.31,2.11-1v-.76c0-.7-1.06-1-2.11-1H52V65.2a9.56,9.56,0,0,0,3.42-.79l2,4.13.72-.35-2-4.15a9.79,9.79,0,0,0,2.77-2.22l3.62,2.89.5-.63-3.62-2.89a9.6,9.6,0,0,0,1.5-3.2l4.57,1,.18-.78-4.57-1a9.45,9.45,0,0,0,.16-1.61,9.87,9.87,0,0,0-.19-1.9l4.62-1.05-.18-.78-4.68,1.06a9.46,9.46,0,0,0-1.55-3.09l3.81-3-.49-.63-3.82,3a9.27,9.27,0,0,0-2.71-2.1l2.15-4.45-.72-.35-2.14,4.44A9.81,9.81,0,0,0,52,46V33.08a43.29,43.29,0,0,1,24.6,9.62l0,.21L70,72.18h-4.8v.4a11.56,11.56,0,0,0,23.12,0v-.4h-4.8L77,43c2.15,1.69,4,3.41,5.79,5,3.64,3.27,6.51,5.86,9.52,6.58a10.87,10.87,0,0,0,2.38.25c3.75,0,7.54-1.51,7.54-4.9A2.14,2.14,0,0,0,100.2,47.75ZM52,18.12l1.88,3.53L52,25.19Zm-.8,7.06-1.88-3.52,1.88-3.53ZM26.48,83.35A10.78,10.78,0,0,1,16,75.08H37A10.78,10.78,0,0,1,26.48,83.35ZM37.24,73a11.23,11.23,0,0,1-.14,1.3H15.85a11.22,11.22,0,0,1-.13-1.3Zm-4.82-.8H20.53l5.95-26.55ZM68.89,90.57a2.36,2.36,0,0,1,1.31.28v.64a2.36,2.36,0,0,1-1.31.28H34.75a2.36,2.36,0,0,1-1.31-.28v-.64a2.36,2.36,0,0,1,1.31-.28Zm-8.42-35a8.82,8.82,0,1,1-8.81-8.81A8.82,8.82,0,0,1,60.47,55.6ZM76.79,83.35a10.78,10.78,0,0,1-10.47-8.27H87.26A10.78,10.78,0,0,1,76.79,83.35ZM87.55,73c0,.44-.07.87-.13,1.3H66.16A11.22,11.22,0,0,1,66,73Zm-4.82-.8H70.84l6-26.55ZM94.71,54a9.69,9.69,0,0,1-2.19-.23c-2.82-.67-5.63-3.2-9.17-6.39-6.63-6-15.67-14.11-31.33-15.11h-.83c-15.66,1-24.71,9.15-31.33,15.11-3.55,3.19-6.36,5.72-9.18,6.39A9.69,9.69,0,0,1,8.49,54c-4.63,0-6.74-2.12-6.74-4.1A1.35,1.35,0,0,1,3,48.54a.76.76,0,0,1,.54.21,5.74,5.74,0,0,0,3.91,1.73c3,0,6.08-2.79,10-6.32,7.11-6.43,16.85-15.23,34.17-16,17.32.82,27.06,9.62,34.17,16,3.9,3.53,7,6.32,10,6.32a5.7,5.7,0,0,0,3.91-1.73.76.76,0,0,1,.54-.21,1.35,1.35,0,0,1,1.25,1.37C101.45,51.89,99.34,54,94.71,54Z"/><path d="M25,39.63a.66.66,0,1,0,.66.66A.65.65,0,0,0,25,39.63Z"/><path d="M23.24,41.11a.62.62,0,1,0,.61.61A.61.61,0,0,0,23.24,41.11Z"/><path d="M21.56,42.64a.56.56,0,1,0,0,1.11.56.56,0,0,0,0-1.11Z"/><circle cx="19.9" cy="44.69" r="0.5"/><circle cx="18.24" cy="46.19" r="0.43"/><path d="M32.29,34.39a.82.82,0,0,0,0,1.64.82.82,0,0,0,0-1.64Z"/><path d="M30.37,35.57a.79.79,0,1,0,.79.79A.78.78,0,0,0,30.37,35.57Z"/><path d="M26.71,38.2a.71.71,0,0,0-.71.71.71.71,0,1,0,.71-.71Z"/><path d="M28.51,36.85a.75.75,0,0,0,0,1.49.75.75,0,1,0,0-1.49Z"/><circle cx="76.86" cy="81.54" r="1.05"/><circle cx="26.37" cy="76.99" r="1.37"/><path d="M34.26,33.31a.85.85,0,1,0,.85.84A.85.85,0,0,0,34.26,33.31Z"/><circle cx="76.9" cy="76.99" r="1.37"/><circle cx="26.4" cy="81.54" r="1.05"/><circle cx="12.94" cy="50.26" r="0.2"/><path d="M14.81,48.76a.28.28,0,0,0-.29.28.29.29,0,1,0,.57,0A.28.28,0,0,0,14.81,48.76Z"/><path d="M10.79,51.15a.11.11,0,0,0,.1.11.11.11,0,0,0,.11-.11.1.1,0,0,0-.11-.1A.1.1,0,0,0,10.79,51.15Z"/><path d="M16.56,47.29a.37.37,0,1,0,.36.37A.37.37,0,0,0,16.56,47.29Z"/><path d="M90,49.91a.19.19,0,0,0-.19.2.19.19,0,1,0,.38,0A.19.19,0,0,0,90,49.91Z"/><path d="M74.43,36.67a.74.74,0,1,0,.74.74A.74.74,0,0,0,74.43,36.67Z"/><path d="M79.72,40.91a.61.61,0,1,0,.61.61A.61.61,0,0,0,79.72,40.91Z"/><path d="M78,39.42a.67.67,0,0,0,0,1.33.67.67,0,0,0,0-1.33Z"/><path d="M76.24,38a.71.71,0,1,0,.7.7A.7.7,0,0,0,76.24,38Z"/><path d="M68.66,33.16a.85.85,0,1,0,.85.85A.85.85,0,0,0,68.66,33.16Z"/><path d="M70.63,34.23a.82.82,0,1,0,.82.82A.82.82,0,0,0,70.63,34.23Z"/><path d="M72.56,35.4a.79.79,0,1,0,.78.78A.78.78,0,0,0,72.56,35.4Z"/><path d="M86.4,47.09a.36.36,0,1,0,.36.36A.36.36,0,0,0,86.4,47.09Z"/><path d="M36.28,32.33a.88.88,0,1,0,0,1.75.88.88,0,0,0,0-1.75Z"/><path d="M91.91,51.06a.1.1,0,0,0,.1.1.11.11,0,0,0,.1-.1A.1.1,0,0,0,92,51,.09.09,0,0,0,91.91,51.06Z"/><path d="M66.63,32.2a.88.88,0,1,0,.87.88A.87.87,0,0,0,66.63,32.2Z"/><path d="M84.72,45.55a.43.43,0,1,0,0,.85.43.43,0,1,0,0-.85Z"/><path d="M81.4,42.43A.56.56,0,1,0,82,43,.55.55,0,0,0,81.4,42.43Z"/><circle cx="83.07" cy="44.48" r="0.5"/><path d="M88.14,48.57a.29.29,0,0,0-.28.28.28.28,0,0,0,.28.28.27.27,0,0,0,.28-.28A.28.28,0,0,0,88.14,48.57Z"/><path d="M44.79,29.6a.94.94,0,1,0,.94.94A.94.94,0,0,0,44.79,29.6Z"/><path d="M49.21,28.94a1,1,0,1,0,.95.95A.95.95,0,0,0,49.21,28.94Z"/><path d="M42.61,30.11a.93.93,0,1,0,.93.93A.93.93,0,0,0,42.61,30.11Z"/><path d="M47,29.21a1,1,0,0,0,0,1.9,1,1,0,0,0,0-1.9Z"/><circle cx="40.46" cy="31.64" r="0.92"/><path d="M38.35,31.47a.9.9,0,1,0,.9.9A.9.9,0,0,0,38.35,31.47Z"/><path d="M60.27,30a.93.93,0,1,0,.93.93A.93.93,0,0,0,60.27,30Z"/><path d="M64.55,31.36a.9.9,0,1,0,.89.9A.9.9,0,0,0,64.55,31.36Z"/><circle cx="58.09" cy="30.48" r="0.94"/><circle cx="51.44" cy="29.73" r="0.96"/><path d="M62.43,30.63a.92.92,0,0,0,0,1.84.92.92,0,1,0,0-1.84Z"/><path d="M55.89,29.17a.95.95,0,1,0,1,.95A.94.94,0,0,0,55.89,29.17Z"/><path d="M53.67,28.91a.95.95,0,1,0,.95.95A1,1,0,0,0,53.67,28.91Z"/><path d="M100.09,31.88,97.8,31l1.39-2-2.3.82-.23-2.43-1.23,2.1L93.69,27.8l.41,2.41L91.67,30l1.86,1.58-2,1.41L94,33l-.61,2.36,1.88-1.56,1,2.21.44-2.4,2.22,1-1.21-2.12Zm-3.16.92-.84-.38-.16.9-.4-.83-.71.59.24-.89h-.92l.75-.53-.7-.6.91.08L95,30.22l.66.65.46-.8.09.92.86-.31-.52.76.86.32-.89.24Z"/><path d="M75.18,8.61l-2.73-1L74.1,5.2l-2.74,1-.27-2.9L69.61,5.79l-2.07-2L68,6.61l-2.9-.23,2.22,1.89L65,10l2.91,0-.73,2.82,2.24-1.85,1.25,2.63.53-2.87,2.65,1.22L72.37,9.38Zm-4.65.88-.25,1.38-.6-1.26-1.08.88L69,9.14h-1.4l1.14-.81-1.06-.91L69,7.54,68.8,6.16l1,1,.71-1.2.12,1.39,1.32-.47L71.15,8l1.3.48-1.34.37.69,1.22Z"/><path d="M102.05,64.5l-2.73-1L101,61.09l-2.75,1L98,59.16l-1.48,2.52-2.07-2,.48,2.87L92,62.26l2.22,1.89-2.38,1.69,2.92,0L94,68.68l2.24-1.86,1.25,2.64L98,66.59l2.65,1.21-1.44-2.53Zm-4.65.88-.25,1.37-.6-1.26-1.07.89L95.83,65h-1.4l1.14-.81-1.06-.9,1.39.11-.23-1.37,1,1,.71-1.21.13,1.39,1.31-.46L98,63.89l1.3.49L98,64.75,98.67,66Z"/><path d="M10.22,65.2l-2.73-1,1.65-2.39-2.74,1-.27-2.9L4.65,62.38,2.58,60.33l.48,2.87L.16,63l2.22,1.88L0,66.54l2.91,0-.73,2.82,2.24-1.86,1.25,2.64.53-2.87,2.65,1.22L7.41,66Zm-4.65.88-.25,1.37-.6-1.26-1.08.89L4,65.73H2.6l1.14-.81L2.68,64l1.39.11-.23-1.37,1,1,.71-1.21.12,1.39L7,63.45l-.8,1.14,1.31.49-1.34.37.69,1.21Z"/><path d="M35.6,11.06l-2.73-1,1.66-2.4-2.75,1-.27-2.9L30,8.23,28,6.18l.49,2.88-2.9-.24,2.21,1.89-2.37,1.68,2.91,0-.74,2.82,2.25-1.86L31.06,16l.52-2.86,2.65,1.21-1.44-2.53ZM31,11.94l-.25,1.37-.59-1.26L29,12.94l.35-1.35H28l1.14-.81-1.07-.9,1.39.11L29.22,8.6l1,1,.71-1.2.13,1.39,1.31-.47-.79,1.15,1.31.49-1.35.36.69,1.22Z"/><path d="M10.93,33l-2-1.41L10.8,30l-2.43.2.41-2.41L7,29.51l-1.23-2.1-.23,2.43L3.28,29l1.39,2-2.29.85,2.36.64L3.53,34.64l2.22-1L6.19,36l1-2.21,1.88,1.56L8.5,33Zm-3.29.08-.7-.59-.4.83-.16-.9-.84.38L6,32l-.88-.24L6,31.44l-.52-.76.86.31.09-.92.46.8.66-.65-.16.91.92-.08-.7.6.75.53H7.41Z"/><path d="M57.33,98.42H53L51.6,94.25l-1.35,4.17H45.87L49.41,101l-1.35,4.16,3.54-2.57,3.54,2.57L53.79,101Zm-5.73,3.12-2,1.42.75-2.29-1.95-1.42h2.41L51.6,97l.74,2.29h2.41l-1.94,1.42.74,2.29Z"/><path d="M57.71,4.16H53.34L52,0,50.63,4.16H46.25l3.54,2.58L48.44,10.9,52,8.33l3.54,2.57L54.17,6.74ZM52,7.29,50,8.71l.75-2.29L48.83,5h2.41L52,2.71,52.73,5h2.4L53.19,6.42l.74,2.29Z"/><path d="M84.87,28.11H81.28L80.17,24.7l-1.1,3.41H75.48l2.9,2.11-1.1,3.41,2.89-2.11,2.91,2.11L82,30.22Zm-4.7,2.38-1.3,1,.5-1.54L78.06,29h1.62l.49-1.54.5,1.54h1.62L81,29.9l.5,1.54Z"/><path d="M27,28.11H23.4L22.29,24.7l-1.1,3.41H17.6l2.9,2.11-1.11,3.41,2.9-2.11,2.9,2.11-1.1-3.41Zm-4.7,2.38-1.3,1,.5-1.54L20.18,29H21.8l.49-1.54.5,1.54h1.62l-1.31.95.5,1.54Z"/><path d="M85.38,16.91l-2.75-.49,2.75-.49.49-2.75.49,2.75,2.75.49-2.75.49-.49,2.75Z"/><path d="M82.64,90.4l-2.75-.49,2.75-.48.49-2.76.49,2.76,2.75.48-2.75.49-.49,2.75Z"/><path d="M16.6,19.66l-.49-2.75-2.75-.49,2.75-.49.49-2.75.49,2.75,2.75.49-2.75.49Z"/><path d="M19.34,93.15l-.49-2.75-2.75-.49,2.75-.48.49-2.76.49,2.76,2.75.48-2.75.49Z"/><path d="M95.27,42.19A1.77,1.77,0,1,0,97,44,1.77,1.77,0,0,0,95.27,42.19Zm0,2.87A1.1,1.1,0,1,1,96.36,44,1.1,1.1,0,0,1,95.27,45.06Z"/><path d="M93,77.21A1.77,1.77,0,1,0,94.81,79,1.77,1.77,0,0,0,93,77.21Zm0,2.87a1.1,1.1,0,1,1,1.1-1.1A1.1,1.1,0,0,1,93,80.08Z"/><path d="M70.2,96.63A1.77,1.77,0,1,0,72,98.4,1.77,1.77,0,0,0,70.2,96.63Zm0,2.87a1.1,1.1,0,1,1,1.1-1.1A1.09,1.09,0,0,1,70.2,99.5Z"/><path d="M65.23,21.69A1.77,1.77,0,1,0,67,23.46,1.77,1.77,0,0,0,65.23,21.69Zm0,2.87a1.1,1.1,0,1,1,0-2.2,1.1,1.1,0,0,1,0,2.2Z"/><path d="M7.2,42.19A1.77,1.77,0,1,0,9,44,1.77,1.77,0,0,0,7.2,42.19Zm0,2.87a1.1,1.1,0,1,1,0-2.2,1.1,1.1,0,0,1,0,2.2Z"/><path d="M9.43,77.21A1.77,1.77,0,1,0,11.2,79,1.77,1.77,0,0,0,9.43,77.21Zm0,2.87a1.1,1.1,0,1,1,1.1-1.1A1.1,1.1,0,0,1,9.43,80.08Z"/><path d="M32.26,96.63A1.77,1.77,0,1,0,34,98.4,1.77,1.77,0,0,0,32.26,96.63Zm0,2.87a1.1,1.1,0,1,1,1.1-1.1A1.09,1.09,0,0,1,32.26,99.5Z"/><path d="M37.24,21.69A1.77,1.77,0,1,0,39,23.46,1.78,1.78,0,0,0,37.24,21.69Zm0,2.87a1.1,1.1,0,1,1,1.1-1.1A1.1,1.1,0,0,1,37.24,24.56Z"/></g></g></svg>