<svg xmlns="http://www.w3.org/2000/svg" viewBox="0 0 94.72 118.47"><defs><style>.cls-1{fill:#1a1a1a;}</style></defs><title>Asset 532</title><g id="Layer_2" data-name="Layer 2"><g id="Layer_1-2" data-name="Layer 1"><path class="cls-1" d="M93.29,35.77A42.78,42.78,0,1,1,59,1.43,47.37,47.37,0,1,0,93.29,35.77Zm-72-26.15a.67.67,0,1,1,0,1A.68.68,0,0,1,21.28,9.62Zm-5.67,4.83a.89.89,0,1,1,0,1.26A.89.89,0,0,1,15.61,14.45Zm-5.08,6a1.13,1.13,0,0,1,1.6,1.6,1.13,1.13,0,1,1-1.6-1.6ZM5.8,27.86l1.27.36L7.48,27l.32,1.28L9.09,28l-.94.92.89,1-1.27-.35-.4,1.25L7,29.48l-1.29.28.94-.92Zm-2,8.57,1.16,1.21,1.25-1.11-.46,1.61,1.59.54-1.63.4L6,40.72,4.85,39.51,3.6,40.62,4.06,39l-1.59-.53,1.63-.4ZM1.88,50a2.64,2.64,0,0,1-.08-.49,2.79,2.79,0,0,1,2.46-3.09,2.94,2.94,0,0,1,2.88,3.19,2.75,2.75,0,0,0-2.81-2.2A2.75,2.75,0,0,0,1.88,50Zm3.89,7.21a3.06,3.06,0,0,0-2.08,3,3,3,0,0,1-.37-.74,3.05,3.05,0,0,1,5.79-1.94,3.32,3.32,0,0,1,.16.81A3,3,0,0,0,5.77,57.21Zm4.74,10.92A3.42,3.42,0,0,0,8.86,71.3a3.47,3.47,0,0,1-1.1-1.12,3.41,3.41,0,1,1,6.32-2A3.42,3.42,0,0,0,10.51,68.13Zm9,11.5a2.88,2.88,0,1,1,0-4.07A2.89,2.89,0,0,1,19.49,79.63Zm10.05,6.48a3.41,3.41,0,0,1-4.67,1.18,3.47,3.47,0,0,1-1.12-1.1A3.4,3.4,0,0,0,26.87,81a3.4,3.4,0,0,1,2.67,5.14Zm9.85,3.69a3.05,3.05,0,0,1-3.86,1.93,3,3,0,0,1-.74-.37,3.06,3.06,0,0,0,1.87-5.58,3.32,3.32,0,0,1,.81.16A3,3,0,0,1,39.39,89.8Zm6.15,3.45a3.85,3.85,0,0,1-.49-.08,2.65,2.65,0,0,0,.39-5.26,2.71,2.71,0,1,1,.1,5.34ZM57,91l-.4,1.63L56,91l-1.61.46,1.11-1.25L54.33,89l1.64.33.4-1.63.54,1.59,1.61-.46-1.11,1.25,1.21,1.16Zm10.22-1.7-1-.89-.92.94L65.57,88l-1.28-.33,1.25-.4L65.19,86l1,.89.92-.94-.28,1.28,1.28.33L66.83,88Zm7.42-4.73a1.13,1.13,0,0,1-1.6-1.6,1.12,1.12,0,0,1,1.6,0A1.13,1.13,0,0,1,74.61,84.52Zm6-5.08a.89.89,0,1,1,0-1.26A.89.89,0,0,1,80.6,79.44Zm4.83-5.67a.67.67,0,1,1,0-1A.68.68,0,0,1,85.43,73.77Z"/><path class="cls-1" d="M51.41,51.76l-3-1.39.92,2.27L48,50.58l-.6,3.24-.29-3.28-1.51,1.92,1.13-2.17-3.11,1.1,2.7-1.89-2.43-.34,2.45-.11-2.5-2.14,3,1.38L45.93,46l1.31,2.07.61-3.24.29,3.28,1.5-1.93-1.13,2.17,3.11-1.09-2.69,1.89,2.42.34-2.45.11ZM26.86,27.94l-1.81,1.45,2.12-1-.33,3,1.06-2.79,1.45,1.81-1-2.12,3,.33-2.79-1.05,1.81-1.46-2.12,1,.33-3L27.53,26.9l-1.45-1.81,1,2.12-3-.33ZM23.18,42l2.17-.87-2.32.3,1.18-2.76-1.83,2.38-.87-2.16.31,2.31L19.05,40l2.39,1.83-2.17.87,2.32-.3-1.18,2.76,1.83-2.38L23.11,45l-.31-2.31,2.77,1.18ZM68.51,54.45l-2.12.94.36-3L65.66,55.2l-1.43-1.82.93,2.12-3-.36L65,56.23l-1.83,1.43,2.13-.93-.36,3L66,56.91l1.44,1.83-.94-2.13,3,.36-2.79-1.08Zm11.1-.69,1.09-1-1.4.45L79,51.78l-.31,1.44-1.41-.45,1.09,1-1.09,1,1.41-.45L79,55.75l.32-1.44,1.4.45Zm3.78,5L81.94,59l-.15-1.47L81.32,59,80,58.37l1,1.11-1.19.86,1.45-.28.15,1.46.47-1.39,1.35.6-1-1.11ZM66.26,68.16l.68-1.31-1.17.9L65,66.51l.2,1.46L63.71,68l1.37.55L64.4,69.9l1.16-.9.79,1.24-.2-1.46,1.47-.07Zm-9-17.34.85-1.2-1.28.74L56.26,49v1.48l-1.47-.14,1.28.74-.86,1.2,1.28-.73.61,1.34V51.42l1.46.14Zm-3-.6-1,.17-.07-1-.36,1-.92-.45.65.79-.86.57,1-.16.06,1,.37-1,.92.45-.65-.8Zm.46-2.46-.69.63.89-.29.2.92.2-.92.89.29-.69-.63.69-.63-.89.28-.2-.91-.2.91-.89-.28Zm-3-2.79-.92,1.15,1.31-.66.54,1.37.08-1.47,1.46.22L53,44.77l.92-1.15-1.32.66L52,42.91l-.08,1.47-1.46-.22ZM44,38.28l1.41.43-.56,1.37,1.08-1,.9,1.16-.33-1.43L48,38.6l-1.41-.43.56-1.37-1.08,1-.91-1.17.34,1.44ZM60.39,63.19l1-1.08L60,62.67l-.43-1.41-.2,1.46L58,62.38l1.16.91-1,1.07,1.37-.55.42,1.41.21-1.46,1.43.33Zm-29.15-33,11.23,6.4a17.28,17.28,0,0,0,2.66,1.31,16,16,0,0,0-2.48-1.62l-11.24-6.4a12.07,12.07,0,0,0-2.32-1.11A13.11,13.11,0,0,0,31.24,30.17ZM45.35,48.58a19,19,0,0,0-2.9-1L27.61,43.08a25.18,25.18,0,0,0-3.45-.85,23.84,23.84,0,0,0,3.35,1.19l14.84,4.46A17,17,0,0,0,45.35,48.58Zm2.89-7.85,1.95,2.05s1.37,1.44,1.51,1.31-1.26-1.57-1.26-1.57l-1.94-2S47,38.94,46.9,39.06,48.24,40.73,48.24,40.73Zm5.69,5.48s-.83-.73-.91-.63.74.83.74.83l.15.13s.78.69.87.58-.7-.78-.7-.78Zm1.65,2.27c-.14,0,.06.83.06.83l0,.15s.18.76.31.72-.05-.79-.05-.79l0-.14S55.71,48.45,55.58,48.48Zm.05,2.61c0-.13-.75-.2-.75-.2l-.14,0s-.8-.07-.82.06.8.21.8.21h.14S55.62,51.23,55.63,51.09Zm6.91,3.28s2,1,2.13.88-2-1.21-2-1.21l-2.9-1.47a11.9,11.9,0,0,0-2.26-1c-.08.17,2.11,1.28,2.11,1.28Zm12.31-.14-4.3.78a20.8,20.8,0,0,0-3.21.76,20.13,20.13,0,0,0,3.29-.41l4.3-.78a17.63,17.63,0,0,0,3-.74A18.79,18.79,0,0,0,74.85,54.23Zm-13,6.57,1.92-2.1S65.1,57.22,65,57.09s-1.49,1.38-1.49,1.38l-1.92,2.1s-1.45,1.58-1.32,1.7S61.82,60.8,61.82,60.8Zm18.41-3.86s.77,1.74.94,1.67-.62-1.83-.62-1.83l-.15-.33s-.81-1.85-1-1.78.65,1.93.65,1.93Zm-16.51,9.6-1.83-1.49s-1.38-1.12-1.49-1,1.27,1.27,1.27,1.27l1.84,1.49s1.29,1.05,1.41.91S63.72,66.54,63.72,66.54ZM50.94,50.11s-1-.31-1.09-.18,1,.44,1,.44l.19.06s1,.29,1,.16-1-.42-1-.42Z"/><path class="cls-1" d="M43.2,21.08a.89.89,0,1,1-.89-.89A.89.89,0,0,1,43.2,21.08ZM64,19.56a.6.6,0,0,0-.6.6.59.59,0,0,0,.6.59.58.58,0,0,0,.59-.59A.59.59,0,0,0,64,19.56ZM57,76.05a.6.6,0,1,0,0,1.19.6.6,0,0,0,0-1.19ZM35,53.94a.6.6,0,0,0-.6.6.6.6,0,0,0,1.19,0A.6.6,0,0,0,35,53.94ZM68.83,46.4a.6.6,0,1,0,.59.59A.6.6,0,0,0,68.83,46.4ZM39.37,26.48a.48.48,0,1,0,.48.48A.47.47,0,0,0,39.37,26.48Zm-9.23,7a.49.49,0,0,0-.48.48.48.48,0,0,0,.48.47.47.47,0,0,0,.47-.47A.48.48,0,0,0,30.14,33.5ZM50,80.22a.48.48,0,1,0,.48.48A.48.48,0,0,0,50,80.22Zm6.65-40.38a.48.48,0,1,0-.47.48A.47.47,0,0,0,56.61,39.84ZM41,43.91a.48.48,0,0,0-.47.48.47.47,0,0,0,.47.47.48.48,0,0,0,.48-.47A.49.49,0,0,0,41,43.91ZM55,56.44a.48.48,0,0,0-.47.48.48.48,0,0,0,.95,0A.48.48,0,0,0,55,56.44ZM29,51.43a.48.48,0,1,0,.48.48A.47.47,0,0,0,29,51.43Zm23-36.85.77-.34.51.66.09-.84.83-.11-.67-.49.31-.78L53,13l-.52-.66-.09.83-.83.12.68.49ZM21.16,32.13l-.26-.65-.27.65-.7-.09.44.55-.44.56.7-.1.27.66.26-.66.7.1-.43-.56.43-.55ZM47.81,68.06l-.27-.66-.26.66-.7-.1.43.56-.43.55.7-.1.26.66.27-.66.7.1-.44-.55.44-.56ZM33.63,70l-.1-.83-.5.67-.77-.33.32.77-.67.5.83.11.1.83.5-.67.77.33-.32-.77.67-.5ZM19.5,54.14l-.08-.84L18.9,54l-.76-.35.3.78-.68.48.82.13.08.84.52-.65.76.35-.3-.78.69-.48ZM54,28.4l-.78.31L52.68,28l-.12.82-.83.09.66.52-.34.76.78-.31.49.67.12-.83.83-.09-.66-.51ZM35.26,15.45c-.13-.71-.31-2.78-.31-2.78a0,0,0,0,0,0,0s-.17,2.08-.31,2.78a1.18,1.18,0,0,1-.86.92,7.72,7.72,0,0,1-1.58.28h0a9,9,0,0,1,1.55.28,1.21,1.21,0,0,1,.89.93c.15.7.31,2.78.31,2.78a0,0,0,0,0,0,0s.18-2.11.31-2.78a1.29,1.29,0,0,1,.86-.94,6,6,0,0,1,1.4-.27s0,0,0,0a6.31,6.31,0,0,1-1.41-.27A1.08,1.08,0,0,1,35.26,15.45ZM73.46,33.7c-.12-.7-.31-2.78-.31-2.78a0,0,0,0,0,0,0S72.94,33,72.8,33.7a1.16,1.16,0,0,1-.86.92,8.35,8.35,0,0,1-1.58.29h0a9.23,9.23,0,0,1,1.55.27,1.22,1.22,0,0,1,.89.93c.15.71.32,2.78.32,2.78a0,0,0,0,0,0,0s.18-2.1.31-2.78a1.29,1.29,0,0,1,.86-.94,6,6,0,0,1,1.4-.26s0,0,0,0a6.88,6.88,0,0,1-1.41-.28A1.1,1.1,0,0,1,73.46,33.7Zm6.74,4a.64.64,0,0,1-.51-.55c-.07-.42-.19-1.67-.19-1.67s0,0,0,0-.11,1.25-.19,1.67a.73.73,0,0,1-.52.55,5,5,0,0,1-.94.17h0a6.46,6.46,0,0,1,.92.17.72.72,0,0,1,.54.56c.08.42.19,1.66.19,1.66h0s.11-1.26.19-1.66a.79.79,0,0,1,.52-.57,4.18,4.18,0,0,1,.84-.16h0A3.64,3.64,0,0,1,80.2,37.71Z"/><path class="cls-1" d="M76.27,22.08l-1.06.45.17,1.13L74.47,23l-.9.72.14-1.14-1.07-.42,1.06-.44-.18-1.14.92.69.9-.72-.15,1.14Zm1.84-3.19a3.75,3.75,0,0,1,.44-.24,9.47,9.47,0,0,1,1.19-.53c.3-.11.61-.2.85-.27s.39-.1.39-.14-.17-.05-.43,0a5.21,5.21,0,0,0-.9.19,7.52,7.52,0,0,0-1.25.51l-.45.25a8.94,8.94,0,0,0-1.16.8,6.57,6.57,0,0,0-.7.67c-.18.2-.27.35-.25.37A8.62,8.62,0,0,0,77,19.64,13.58,13.58,0,0,1,78.11,18.89Zm1.34.68a8.54,8.54,0,0,0-1.14.27l-.42.16a6,6,0,0,0-1.08.57,2.65,2.65,0,0,0-.92.8,9.55,9.55,0,0,0,1-.62A8.43,8.43,0,0,1,78,20.22l.4-.15a10.41,10.41,0,0,1,1.09-.29,5,5,0,0,0,1.12-.23A3.24,3.24,0,0,0,79.45,19.57Zm-.09,1.66a1.94,1.94,0,0,0-.47-.1,4.69,4.69,0,0,0-.7,0l-.26,0a3.78,3.78,0,0,0-.71.16c-.36.1-.67.3-.64.35s.35-.07.7-.15A6.85,6.85,0,0,1,78,21.4l.25,0s.33,0,.66,0,.65.06.67,0S79.49,21.27,79.36,21.23Z"/><path class="cls-1" d="M28.59,102.53c-1,2.48-4.8,13.43-4.44,15.94-2.51,0-1.72-2.33-.91-4.68,1-2.82,2.87-8,4.4-11.26a33.5,33.5,0,0,0-6,.43c.24-3.12,10.18-1.44,12.21-1.42C32.42,102.78,30.44,102.53,28.59,102.53Zm44.53,10.81a3.7,3.7,0,0,1-3,2.57,2.75,2.75,0,0,1-2.76,1.79,2.52,2.52,0,0,1-2.68-2.49c-2,2.63-5.48,3-4.61-.64-2.57,4.58-4.68,2.39-4.42,0-2.36,3.44-5.4,3-5.4,1.17,0-1.28,1.19-2.89,1.19-4,0-.93-.67-1.25-1.21-1.64a35.34,35.34,0,0,1-1.75,3.83c-1,2-2.66,3.33-4.05,3.33s-1.71-1.2-1.36-2.67c-.8,1.42-1.75,2.67-2.83,2.67-.88,0-1.8-.94-1.58-2.71-2.2,3.7-5.67,3.35-5.17.58-1.25,1.66-2.2,2.5-3.26,2.5a1.57,1.57,0,0,1-1.6-1.79c0-2.57,3.18-6.62,6-6.62a1.74,1.74,0,0,1,2,1.62c0,.71-.43.92-1,.92.26-1,.07-2-1-2-2.77,0-5.75,7-3.86,7,1.33,0,3.47-3.15,4.53-4.71.25,0,.86.22.86.54,0,.5-1.25,2-1.25,3,0,1.75,2.07,1.13,4.05-2.23.4-1.53,1.16-3.16,1.62-3.16a1.47,1.47,0,0,1,.8.43,10.27,10.27,0,0,0-1.45,4.34c0,.36.07,1.44.78,1.44,1.34,0,3.11-4,3.93-5.63.23,0,1,.2,1,.56s-2.68,5.29-.73,5.29c.9,0,2.54-1.28,3.6-3.5a26.88,26.88,0,0,0,1.38-3.34c-.84-.84,1-3,1-1.47,0,.15-.23.71-.23.8,0,.8,2.2,1.16,2.2,3,0,1.31-1.08,2.74-1.08,3.64,0,1.46,2.66.37,4.09-2.12.38-1.61,1.21-3.44,1.69-3.44a1.47,1.47,0,0,1,.8.43,10.27,10.27,0,0,0-1.45,4.34c0,.36.07,1.44.78,1.44,1.34,0,3.11-4,3.93-5.63.23,0,1,.2,1,.56s-2.68,5.29-.73,5.29c.7,0,1.84-.77,2.81-2.14a1.48,1.48,0,0,1,.71-1.19l.08-.17.1.07a1.88,1.88,0,0,0,.46-.24,12.51,12.51,0,0,0,2.14-3.13v-.26c0-1.72,1.18-1.66,1.18-1.18a6.46,6.46,0,0,0-.12,1c0,1.65,1.59,4,1,6.25,1-.17,1.87-.82,2.72-2.44Zm-4.38,2.55a4.2,4.2,0,0,1-2.65-1.8c-.92.06-.54,2.85,1.29,2.85A1.37,1.37,0,0,0,68.74,115.89Zm-.47-5.27a16.14,16.14,0,0,1-2.1,2.81,3.86,3.86,0,0,0,2.68,2.11C69.14,113.64,68.58,112.33,68.27,110.62Z"/></g></g></svg>