<svg xmlns="http://www.w3.org/2000/svg" viewBox="0 0 64.66 73.45"><defs><style>.cls-1{fill:#1d1d1b;}</style></defs><title>Asset 421</title><g id="Layer_2" data-name="Layer 2"><g id="Layer_1-2" data-name="Layer 1"><path class="cls-1" d="M47.7,32V46.65a1,1,0,0,1-1,1h-.31a1,1,0,0,1-1-1V35.37L30.64,50.11,35,54.49a1,1,0,0,1,0,1.39l-.21.22a1,1,0,0,1-1.4,0L29,51.71l-8.17,8.14a.44.44,0,0,1-.62,0l-1-1a.43.43,0,0,1,0-.63l8.16-8.14-4.36-4.36a1,1,0,0,1,0-1.39l.21-.22a1,1,0,0,1,1.39,0L29,48.5,44.41,33.17H32.05a1,1,0,0,1-1-1v-.31a1,1,0,0,1,1-1H46.7a1,1,0,0,1,1,.88A.83.83,0,0,1,47.7,32Z"/><path class="cls-1" d="M34.09,73.45a27.62,27.62,0,1,1,19.55-8.09A27.45,27.45,0,0,1,34.09,73.45Zm0-53.37a25.74,25.74,0,1,0,18.2,7.54A25.56,25.56,0,0,0,34.09,20.08Z"/><path class="cls-1" d="M6,8.16a3.14,3.14,0,0,1-3.38,3.27c-.94,0-1.5-.27-2.19-.27a1.43,1.43,0,0,0-.42,0s0-.22,0-.45c0-.44-.06-.91-.06-1.37A2.9,2.9,0,0,1,.17,8.32H.32A4.62,4.62,0,0,0,.38,9a2.21,2.21,0,0,0,2.31,2A1.89,1.89,0,0,0,4.76,9c0-2.95-4.7-2.68-4.7-6A2.9,2.9,0,0,1,3.13,0c.81,0,1.32.24,2,.24A1.24,1.24,0,0,0,5.64.15c0,.38,0,.85,0,1.32,0,.25,0,.69,0,1.13H5.44C5.11,1,4.23.41,3.16.41A1.65,1.65,0,0,0,1.32,2.13C1.32,5,6,4.55,6,8.16Zm7.42,2.36.07.14a1.55,1.55,0,0,1-1.34.73.8.8,0,0,1-.89-.79,3.35,3.35,0,0,1-2.18.83c-1.23,0-2.08-.7-2.08-1.7C7,8.57,8.18,7.78,9.62,7.78a3.21,3.21,0,0,1,1.62.4V6c0-1.17-.38-1.66-1.16-1.66s-1.43.61-1.44,1.92H7.33A2.61,2.61,0,0,1,10.23,4c1.48,0,2.43.67,2.43,2.63v3.2c0,.67.11.86.41.86A.59.59,0,0,0,13.46,10.52Zm-2.22-2A2.21,2.21,0,0,0,10,8.16a1.31,1.31,0,0,0-1.43,1.4,1.19,1.19,0,0,0,1.25,1.33,2.1,2.1,0,0,0,1.4-.6ZM20.11,5a.61.61,0,0,0-.33.12,2.35,2.35,0,0,1,.49,1.45C20.27,8.1,18.87,9,17.32,9a4.41,4.41,0,0,1-.54,0,.83.83,0,0,0-.62.84c0,.72.67.79,1.84.91,1.55.17,2.87.63,2.87,1.87s-1.06,2.13-3.45,2.13c-1.88,0-3.48-.62-3.48-1.94,0-.67.41-1.4,1.83-1.83-.58-.15-1-.45-1-1s.63-1,1.23-1.14a2.34,2.34,0,0,1-1.64-2.24A2.71,2.71,0,0,1,17.27,4a3.27,3.27,0,0,1,2.25.84,1.66,1.66,0,0,1,1.11-.7,1.14,1.14,0,0,1,.75.36L20.8,5.55C20.6,5.15,20.36,5,20.11,5Zm-4.62,7.71a1.67,1.67,0,0,0,1.9,1.73c1,0,1.83-.48,1.83-1.65,0-1.45-1.2-1.62-2.36-1.66A1.45,1.45,0,0,0,15.49,12.68Zm3.1-6.13c0-1.41-.35-2.28-1.32-2.28S16,5.06,16,6.51s.37,2.19,1.3,2.19S18.59,8,18.59,6.55Zm5.32,3.23V4a4.91,4.91,0,0,1-1.9.39v.16c.46.12.48.36.48,1.09V9.78c0,1.21-.2,1.29-.66,1.38v.15c.34,0,.81,0,1.37,0s1,0,1.37,0v-.15C24.11,11.07,23.91,11,23.91,9.78Zm-.66-6.65A.73.73,0,0,0,24,2.42a.75.75,0,1,0-1.49,0A.72.72,0,0,0,23.25,3.13Zm5,1.58a2.19,2.19,0,0,1,.88.11,5.74,5.74,0,0,1,.59-1l-.12-.14c-.27.37-.62.37-1.26.37h-.85a17.63,17.63,0,0,1,.16-2.17l-.22,0a3.47,3.47,0,0,1-2.12,2.61v.16c.6.09.75.13.75.65V9.44c0,1.54.82,2,1.78,2a1.75,1.75,0,0,0,1.81-1.3l-.13-.1a1.05,1.05,0,0,1-1,.78c-.7,0-1-.43-1-1.51V4.71Zm4.77,0a2.19,2.19,0,0,1,.88.11,5.72,5.72,0,0,1,.6-1l-.13-.14c-.27.37-.62.37-1.26.37h-.85a15.68,15.68,0,0,1,.17-2.17l-.23,0a3.46,3.46,0,0,1-2.11,2.61v.16c.59.09.74.13.74.65V9.44c0,1.54.82,2,1.78,2a1.73,1.73,0,0,0,1.81-1.3l-.12-.1a1.07,1.07,0,0,1-1.05.78c-.7,0-1-.43-1-1.51V4.71Zm8.36,5.81.08.14a1.56,1.56,0,0,1-1.34.73.8.8,0,0,1-.9-.79,3.3,3.3,0,0,1-2.17.83c-1.23,0-2.08-.7-2.08-1.7,0-1.16,1.14-1.95,2.58-1.95a3.18,3.18,0,0,1,1.61.4V6c0-1.17-.38-1.66-1.15-1.66s-1.43.61-1.45,1.92h-1.3A2.61,2.61,0,0,1,38.13,4c1.47,0,2.43.67,2.43,2.63v3.2c0,.67.11.86.41.86A.56.56,0,0,0,41.35,10.52Zm-2.22-2a2.16,2.16,0,0,0-1.21-.35,1.31,1.31,0,0,0-1.43,1.4,1.19,1.19,0,0,0,1.24,1.33,2.06,2.06,0,0,0,1.4-.6ZM46,4a2.64,2.64,0,0,0-1.75,1V4a4.77,4.77,0,0,1-1.9.41v.16c.46.12.47.35.47,1.09V9.78c0,1.21-.2,1.29-.65,1.38v.15c.33,0,.8,0,1.37,0s1,0,1.37,0v-.15c-.46-.09-.66-.17-.66-1.38V5.38a1.26,1.26,0,0,1,.93-.53c.36,0,.61.21.61.84h1.4C47.21,4.5,46.78,4,46,4Zm3.31-.85a.72.72,0,0,0,.76-.71.75.75,0,1,0-1.49,0A.72.72,0,0,0,49.33,3.13ZM50,9.78V4a4.91,4.91,0,0,1-1.9.39v.16c.46.12.47.36.47,1.09V9.78c0,1.21-.19,1.29-.65,1.38v.15c.33,0,.81,0,1.37,0s1,0,1.37,0v-.15C50.2,11.07,50,11,50,9.78Zm8.55.88c-.37,0-.46-.38-.46-.95V4a4.82,4.82,0,0,1-2,.41v.16c.56.12.56.3.56,1.41v3.5a4.26,4.26,0,0,0,0,.5,1.87,1.87,0,0,1-1.71.91c-1.07,0-1.5-.59-1.5-2.3V4a5,5,0,0,1-2,.41v.16c.61.12.61.35.61,1.38V8.86c0,2,1.19,2.54,2.37,2.54a2.67,2.67,0,0,0,2.3-1.08c.1.61.39,1.08,1.11,1.08a1.54,1.54,0,0,0,1.35-.91l-.08-.14A.72.72,0,0,1,58.55,10.66Zm2.72-5.25a1.1,1.1,0,0,1,1.22-1.12,1.8,1.8,0,0,1,1.7,1.59h.15c0-.48,0-.86,0-1.12a2.73,2.73,0,0,1,0-.56C63.7,4.14,63.09,4,62.47,4,61.12,4,60,4.7,60,6c0,2.3,3.28,1.79,3.28,3.83A1.17,1.17,0,0,1,62,11.1c-1.17,0-1.68-1-1.64-2.13h-.15c-.14.61-.09,1.61-.18,2.11a12.34,12.34,0,0,0,2.08.32,2.27,2.27,0,0,0,2.51-2.2C64.66,6.77,61.27,7.18,61.27,5.41Z"/></g></g></svg>