<svg xmlns="http://www.w3.org/2000/svg" viewBox="0 0 50.16 67.99"><defs><style>.cls-1{fill:#1a171b;}.cls-2{stroke:#fff;stroke-width:0.25px;}</style></defs><title>Asset 413</title><g id="Layer_2" data-name="Layer 2"><g id="Layer_1-2" data-name="Layer 1"><path class="cls-1" d="M9.18,66.11l0,.5a1.36,1.36,0,0,1-.38,1A1.49,1.49,0,0,1,7.77,68a1.5,1.5,0,0,1-1.23-.59,2.32,2.32,0,0,1-.48-1.49,2.7,2.7,0,0,1,.14-.85,1.89,1.89,0,0,1,.42-.71A6.28,6.28,0,0,1,8,63.6l.18,0h.2a.9.9,0,0,1,.48.18.57.57,0,0,1,.3.44.45.45,0,0,1,0,.23.28.28,0,0,1-.25.1,1.43,1.43,0,0,1-.6-.28.74.74,0,0,0-.39-.14.73.73,0,0,0-.63.4,2.34,2.34,0,0,0-.3,1.29,2.8,2.8,0,0,0,.26,1.28.84.84,0,0,0,.76.5c.31,0,.48-.33.5-1s.13-1,.34-1S9.15,65.78,9.18,66.11Zm3.31,1-.57.32a.93.93,0,0,1-.47.14.84.84,0,0,1-.69-.43,1.27,1.27,0,0,1-.27-.73c0-.17.06-.26.18-.26h1.5a.28.28,0,0,0,.24-.1.44.44,0,0,0,.08-.25.41.41,0,0,0-.05-.19.16.16,0,0,0-.13-.08H10.62s-.07,0-.1-.11a1,1,0,0,1,0-.27,1.23,1.23,0,0,1,.17-.68.69.69,0,0,1,.63-.35.87.87,0,0,1,.49.21,1,1,0,0,0,.53.2.19.19,0,0,0,.18-.13.61.61,0,0,0,0-.28c0-.12-.1-.24-.3-.35a1.22,1.22,0,0,0-.59-.16,2,2,0,0,0-1.31.59A2.3,2.3,0,0,0,9.56,66a2.09,2.09,0,0,0,.49,1.49,1.61,1.61,0,0,0,1.26.5,2.09,2.09,0,0,0,.86-.23q.48-.24.48-.42a.23.23,0,0,0,0-.14A.17.17,0,0,0,12.49,67.1Zm3.71-3.47a.16.16,0,0,0-.14.08L15,65.25s-.05,0-.1,0-.08,0-.1,0l-.88-1.48a.38.38,0,0,0-.35-.15.59.59,0,0,0-.32.09.26.26,0,0,0-.14.22v3.88a.14.14,0,0,0,.08.13.48.48,0,0,0,.22,0,.54.54,0,0,0,.22,0,.16.16,0,0,0,.1-.14V65.28a.09.09,0,0,1,0-.06,0,0,0,0,1,0,0l.7,1.1a.18.18,0,0,0,.18.09.29.29,0,0,0,.22-.1l.78-1.06a.06.06,0,0,1,.06,0s0,0,0,0v2.36a.29.29,0,0,0,.08.23.32.32,0,0,0,.22.07.58.58,0,0,0,.3-.09.29.29,0,0,0,.16-.21V64a.33.33,0,0,0-.1-.25A.34.34,0,0,0,16.2,63.63Zm1.35-.06a.56.56,0,0,0-.3.08.25.25,0,0,0-.13.23v3.78a.25.25,0,0,0,.15.23.74.74,0,0,0,.34.08.48.48,0,0,0,.22,0,.14.14,0,0,0,.08-.13v-4a.18.18,0,0,0-.11-.16A.49.49,0,0,0,17.55,63.57Zm3.94,0a.52.52,0,0,0-.31.1.31.31,0,0,0-.15.25v1l-.08,0c-.28-.25-.51-.45-.71-.6a5.08,5.08,0,0,0-.74-.5,1.49,1.49,0,0,0-.68-.21.34.34,0,0,0-.24.11.39.39,0,0,0-.1.25v3.74a.17.17,0,0,0,.09.16.37.37,0,0,0,.21.06.48.48,0,0,0,.24-.06.16.16,0,0,0,.1-.14V64.85a.18.18,0,0,1,.05-.11.17.17,0,0,1,.11,0,1.77,1.77,0,0,1,.47.26,4.4,4.4,0,0,1,.77.62,1.1,1.1,0,0,1,.4.72v1.33a.32.32,0,0,0,.12.27.36.36,0,0,0,.25.08.39.39,0,0,0,.26-.09.28.28,0,0,0,.12-.23V63.74a.17.17,0,0,0-.05-.13A.18.18,0,0,0,21.49,63.57Zm1.21,0a.56.56,0,0,0-.3.08.25.25,0,0,0-.13.23v3.78a.25.25,0,0,0,.15.23.74.74,0,0,0,.34.08.48.48,0,0,0,.22,0,.14.14,0,0,0,.08-.13v-4a.17.17,0,0,0-.11-.16A.49.49,0,0,0,22.7,63.57Zm2.6,1.63a3.5,3.5,0,0,0-.45-.3.63.63,0,0,1-.08-.27.45.45,0,0,1,.14-.33.4.4,0,0,1,.33-.14,1.16,1.16,0,0,1,.47.24,1.19,1.19,0,0,0,.49.24.48.48,0,0,0,.34-.11.37.37,0,0,0,.06-.21c0-.25-.17-.43-.53-.56a4.25,4.25,0,0,0-.53-.1,1.88,1.88,0,0,0-1,.37c-.37.25-.55.5-.55.74a1.09,1.09,0,0,0,.46.79l.86.67a1.13,1.13,0,0,1,.45.82.38.38,0,0,1-.13.32.52.52,0,0,1-.33.1,1.44,1.44,0,0,1-.71-.36,1.66,1.66,0,0,0-.61-.35.35.35,0,0,0-.28.15.37.37,0,0,0-.08.19.76.76,0,0,0,.37.55,1.47,1.47,0,0,0,.89.3,2.5,2.5,0,0,0,1-.25c.48-.22.72-.51.72-.88a1.45,1.45,0,0,0-.45-.88A6.72,6.72,0,0,0,25.3,65.2Z"/><path class="cls-1" d="M34.87,66l0,.5a1.36,1.36,0,0,1-.38,1,1.63,1.63,0,0,1-2.29-.24,2.3,2.3,0,0,1-.48-1.49,2.75,2.75,0,0,1,.14-.85,1.85,1.85,0,0,1,.42-.7,5.92,5.92,0,0,1,1.33-.76H34a.9.9,0,0,1,.48.18.57.57,0,0,1,.3.44.45.45,0,0,1,0,.23.28.28,0,0,1-.25.1,1.43,1.43,0,0,1-.6-.28.72.72,0,0,0-.39-.13.75.75,0,0,0-.63.39,2.37,2.37,0,0,0-.3,1.29A2.67,2.67,0,0,0,32.86,67a.82.82,0,0,0,.75.5c.32,0,.48-.33.5-1s.13-1,.34-1S34.84,65.68,34.87,66Zm3.31,1-.57.32a1,1,0,0,1-.47.15.85.85,0,0,1-.69-.44,1.25,1.25,0,0,1-.27-.73c0-.17.06-.26.18-.26h1.51a.26.26,0,0,0,.23-.1.41.41,0,0,0,.08-.25.35.35,0,0,0,0-.18.14.14,0,0,0-.13-.08H36.31s-.07,0-.1-.11a1.14,1.14,0,0,1,0-.28,1.19,1.19,0,0,1,.17-.67A.68.68,0,0,1,37,64a.85.85,0,0,1,.49.2,1,1,0,0,0,.53.2.19.19,0,0,0,.18-.12.66.66,0,0,0,0-.28c0-.13-.1-.24-.3-.36a1.22,1.22,0,0,0-.59-.16,1.94,1.94,0,0,0-1.31.6,2.28,2.28,0,0,0-.78,1.76,2.09,2.09,0,0,0,.49,1.49,1.61,1.61,0,0,0,1.26.5,2,2,0,0,0,.86-.23c.32-.16.49-.29.49-.41a.22.22,0,0,0-.05-.14A.15.15,0,0,0,38.18,67Zm3.71-3.47a.16.16,0,0,0-.14.08l-1.09,1.55s0,0-.1,0a.11.11,0,0,1-.1,0l-.88-1.48a.36.36,0,0,0-.35-.16.59.59,0,0,0-.32.09.28.28,0,0,0-.14.23v3.87a.14.14,0,0,0,.09.13.33.33,0,0,0,.21,0,.51.51,0,0,0,.22,0,.16.16,0,0,0,.1-.14V65.18a.09.09,0,0,1,0-.06,0,0,0,0,1,0,0l.7,1.1a.18.18,0,0,0,.18.09.27.27,0,0,0,.22-.1l.78-1a.07.07,0,0,1,.06,0s0,0,0,0v2.36a.29.29,0,0,0,.08.23.33.33,0,0,0,.22.08.6.6,0,0,0,.3-.1.34.34,0,0,0,.17-.21V63.88a.32.32,0,0,0-.11-.24A.29.29,0,0,0,41.89,63.53Zm1.35-.06a.56.56,0,0,0-.3.08.26.26,0,0,0-.13.23v3.78a.25.25,0,0,0,.15.23.63.63,0,0,0,.34.08.48.48,0,0,0,.22,0,.16.16,0,0,0,.08-.14v-4a.18.18,0,0,0-.11-.17A.49.49,0,0,0,43.24,63.47Zm3.94,0a.47.47,0,0,0-.31.11.28.28,0,0,0-.14.24v1l-.08,0q-.42-.37-.72-.6a6,6,0,0,0-.74-.5,1.49,1.49,0,0,0-.68-.21.34.34,0,0,0-.24.11.42.42,0,0,0-.1.26v3.73a.2.2,0,0,0,.09.17.48.48,0,0,0,.22,0,.59.59,0,0,0,.23,0,.17.17,0,0,0,.1-.15V64.75a.14.14,0,0,1,0-.1A.18.18,0,0,1,45,64.6a1.84,1.84,0,0,1,.46.27,4,4,0,0,1,.77.61,1.14,1.14,0,0,1,.4.73v1.32a.32.32,0,0,0,.12.27.36.36,0,0,0,.25.08.43.43,0,0,0,.27-.08.3.3,0,0,0,.11-.24V63.64a.17.17,0,0,0,0-.13A.18.18,0,0,0,47.18,63.47Zm1.47.06a.6.6,0,0,0-.56,0,.28.28,0,0,0-.13.23v3.78a.25.25,0,0,0,.15.23.63.63,0,0,0,.34.08.48.48,0,0,0,.22,0,.16.16,0,0,0,.08-.14v-4A.19.19,0,0,0,48.65,63.53Z"/><path class="cls-2" d="M29.51,17.44a5.43,5.43,0,0,0,.94-1.33c.68-1.12.74-.63.74-.63a3,3,0,0,0,0,1.57,7.78,7.78,0,0,1-1.85.6ZM17.09,3.06c-.33.41-.45.2-.45.2C18.08,2.32,16,1.67,16,1.67,10.85.37,8.61,4.14,8.61,4.14,7.34,6,2.2,11.45,2.2,11.45a8.56,8.56,0,0,0-1.64,7c.51,3-.28,4.22-.28,4.22-.46.71.25.48.25.48,2-1,.85-5.47.85-5.47C1,13.55,4.25,10.54,4.25,10.54c1.53-1.24,5.64-6.8,5.64-6.8A5.23,5.23,0,0,1,16,2.58c1,.82-.29,1.16-.29,1.16-1.76.16-2.95,4.54-2.95,4.54-1.92,4.22-4.67,5.53-4.67,5.53.79,1.24,3.26,1.5,3.26,1.5a4.25,4.25,0,0,0,4.18-1.93c-2.87-.31-1.49-2.5-1.49-2.5-1.28-1.19-.65-2-.65-2,0,2,2.24,2.27,2.24,2.27.82.06.79-1,.79-1l.34-.31.06-.26-.4-.19L17,9a.58.58,0,0,1,.45-.82c.64-.06.3-.57.3-.57a1.85,1.85,0,0,1-.27-1.92,2.35,2.35,0,0,0-.34-2.64M13,6.07S11.29,11.48,8.23,13A6.57,6.57,0,0,0,6,14.45s-.08-.68,2.21-1.9A13.81,13.81,0,0,0,13,6.07m1-1.9A13.29,13.29,0,0,0,11,8.31a11.36,11.36,0,0,1-4.22,4.56S3.5,15,4.18,18.33a6.1,6.1,0,0,1-.09,1.87S4,18.73,3.84,18.33c0,0-1.08-2.77,1.81-5.38A18.68,18.68,0,0,0,10.2,8.08S11.46,5,14,4.17m1.05-.82A7.21,7.21,0,0,0,9.8,7.21a18.46,18.46,0,0,1-5.19,5.63s-2,1.47-1.22,6.2c0,0,.93,3.84-1.39,4.16,0,0-1.75.25-.05-.6,0,0,1.35-.56.45-4.24a6.73,6.73,0,0,1,2.54-6.91A15,15,0,0,0,9.73,6.07s2.21-3.8,5.36-2.72M7.55,14s4.76,4.55,8.61-.84c0,0,.54-.75,1.05-.24a5.74,5.74,0,0,1-5.41,3.83s-4,.14-5.41-2A1.52,1.52,0,0,1,7.55,14ZM6,15s1.8,2.9,7,2.13c0,0,3.9-.69,4.58-4.41,0,0,.17-.37.63,0,0,0-.2,4.94-6.26,5.56,0,0-4.56.4-6.74-2.55,0,0-.17-.82.76-.73M4.83,16.15S7.24,19.69,12.68,19a6.92,6.92,0,0,0,5.79-6.24s.32-.32.49,0c0,0-.62,7-7.47,7.6a10,10,0,0,1-7-2.66A1.4,1.4,0,0,1,4.83,16.15Zm-.25,2.46s1.92,1.65,2.91,1.74c0,0,.12,5.26-1.1,4.86,0,0-1.27-.42-1.17-2.49,0,0-.73,2.78,1.42,3-.21,1.29-.08,2.3,0,1.73A22.17,22.17,0,0,1,5,33.56a8.65,8.65,0,0,0-.34,3.57,1.37,1.37,0,0,0,.51,1s.57.28.34,1.41c0,0,.65.94-.06,1,0,0-.7-.4-.7-.88a2,2,0,0,0,1.07,1.5s1,.82-.42.93c0,0-2.38-.42-2.18-4.13,0,0,.14-.14.11-3.43,0,0-.48-4.53.2-5.89,0,0,1.3-1.64.9,2.66,0,0,.88-4.13-.7-3.37a7.85,7.85,0,0,1,.39-1.21A6,6,0,0,0,4.4,25a34,34,0,0,1,.18-6.35m21.07-1.26a13.16,13.16,0,0,0-1.82-.41,21.57,21.57,0,0,1-3.9-1c-1.39,0-1.28,1.16-1.28,1.16.21,4.19-3.09,3.43-3.09,3.43a1.88,1.88,0,0,0,2.41,0c-.59,3.17.5,3.68.5,3.68-1.57,5.49-7.61,9.32-7.61,9.32-.48-1.19,1.59-5.5,1.59-5.5,1.1-2.26-2.18-4.39-2.18-4.39,1.3.43,2.6-1.07,2.6-1.07-4.1,2.32-4.78-2.13-4.78-2.13,2.91,1.7,6.14,0,6.14,0a9.28,9.28,0,0,0,5-7.77,4.92,4.92,0,0,1,2.35.69c-1.19,1.73,1.41,2,1.41,2-2-1-1.1-1.74-1.1-1.74.88-.31,3.58,1,3.58,1a7.52,7.52,0,0,1,1.14.56A5,5,0,0,0,25.65,17.35Zm-6.77,6.81c.25-.14.76.57.76.57,0,.68.46.77.46.77a.91.91,0,0,1,.28,1.07C18.2,31.64,11.29,36,11.29,36c-1.08.48-.67-.54-.67-.54.27-.39.13-.48.13-.48-.28-.65,0-.71,0-.71,8.52-6.31,8.13-10.14,8.13-10.14m2.06,2.52a3.83,3.83,0,0,0,.17.46,1,1,0,0,1,.15.91A21.61,21.61,0,0,1,11.06,38.1c-.56.31-.51-.6-.51-.6,0-.93.2-.82.2-.82a11.89,11.89,0,0,0,4-2.35c4.93-3.85,6.06-7.65,6.06-7.65S20.94,26.68,20.94,26.68Zm1.39,2.41a1.06,1.06,0,0,0,.26.85.49.49,0,0,1,.39.65C21,36,11.29,40.36,11.29,40.36c-.82.37-.74-.31-.74-.31a1.18,1.18,0,0,0,0-.71c-.23-.59.2-.7.2-.7A15,15,0,0,0,15.5,36c6-5.32,6-7.95,6-7.95A1.17,1.17,0,0,1,22.33,29.09Zm-8,16a10.83,10.83,0,0,0-.7,2.95c-1.84-.57-2.38,3.48-2.38,3.48.76-2.8,1.87-2.92,1.87-2.92C15,49.06,12.08,54,12.08,54c-2.29,3.57-1.81,4.45-1.81,4.45a1.35,1.35,0,0,1-.82,1.9,3.06,3.06,0,0,0-1.62.45,3.08,3.08,0,0,1-2.49,1C4.24,61.57,5,60.5,5,60.5c.12-.74,1.65-1.39,1.65-1.39,1.64-.94,2.29-3.77,2.29-3.77a53.86,53.86,0,0,1,1.44-6.65c.51-1.36.31-1.87.31-1.87A4.08,4.08,0,0,1,10.75,45c2.8-.14,2.66-3.71,2.66-3.71-1.31,3.86-2.29,3.11-2.29,3.11C10.38,44,10.75,41,10.75,41a20.49,20.49,0,0,0,5.41-2.8C16.35,40.74,14.37,45.09,14.37,45.09ZM19.13,36s3.26-2.18,4.11-4.67c0,0,4.19,8.55,2.86,9.23,0,0-1.33.95-2.78-3,0,0,1.19,5,3.37,3.51a5.8,5.8,0,0,1,1,3.12A39.27,39.27,0,0,1,31.25,53s1.67,4.82,3.17,5.21l1.7.74s.77.28,1,.65c0,0,.22.31-.48.31H32.13s-1.33,0-1.13-1.21l.05-1a12.11,12.11,0,0,0-1.69-3.31s-4.73-5.18-3.18-6.51c0,0,1.11-.51,2.72,2.43,0,0-1.5-4.39-3.28-2.69a6.8,6.8,0,0,0-.85-2.46,7.18,7.18,0,0,1-.71-1.59,17.64,17.64,0,0,0-1.36-1.89S19.33,37.16,19.13,36Z"/><path class="cls-2" d="M33.07,1.79c.32.41.45.2.45.2-1.45-.94.65-1.59.65-1.59,5.13-1.3,7.37,2.47,7.37,2.47C42.82,4.77,48,10.18,48,10.18a8.51,8.51,0,0,1,1.65,7c-.51,3,.28,4.23.28,4.23.45.71-.25.48-.25.48-2-1-.86-5.47-.86-5.47.43-4.14-2.86-7.15-2.86-7.15-1.53-1.24-5.64-6.8-5.64-6.8A5.61,5.61,0,0,0,34.2,1.31c-1.05.82.28,1.16.28,1.16,1.77.16,3,4.54,3,4.54,1.93,4.22,4.68,5.52,4.68,5.52C41.32,13.78,38.85,14,38.85,14a4.27,4.27,0,0,1-4.19-1.93c2.88-.31,1.5-2.5,1.5-2.5,1.27-1.19.65-2,.65-2,0,2-2.24,2.27-2.24,2.27-.82.06-.79-1-.79-1l-.34-.31-.06-.26.4-.2-.57-.31a.58.58,0,0,0-.45-.82c-.64-.06-.3-.57-.3-.57a1.85,1.85,0,0,0,.27-1.92,2.35,2.35,0,0,1,.34-2.64m4.07,3s1.73,5.41,4.79,6.91a6.56,6.56,0,0,1,2.23,1.47s.09-.68-2.2-1.9A13.81,13.81,0,0,1,37.14,4.8m-1-1.9A13.45,13.45,0,0,1,39.21,7a11.3,11.3,0,0,0,4.22,4.55s3.23,2.16,2.55,5.47a5.79,5.79,0,0,0,.09,1.87,17.52,17.52,0,0,1,.25-1.87s1.07-2.78-1.82-5.38A18.73,18.73,0,0,1,40,6.81S38.7,3.72,36.12,2.9m-.82-.62a7,7,0,0,1,5.05,3.87,19.67,19.67,0,0,0,5.2,5.42s2,1.47,1.22,6.2c0,0-.93,3.84,1.39,4.16,0,0,1.74.25,0-.6,0,0-1.35-.56-.44-4.24a6.72,6.72,0,0,0-2.55-6.91,12.4,12.4,0,0,1-4.67-5S38.06,1.22,35.3,2.28m7.31,10.45s-4.76,4.55-8.61-.84c0,0-.54-.75-1-.24a5.71,5.71,0,0,0,5.41,3.82s4,.15,5.41-2A1.55,1.55,0,0,0,42.61,12.73Zm1.55,1s-1.79,2.9-7,2.13c0,0-3.91-.69-4.59-4.41,0,0-.17-.37-.62,0,0,0,.2,4.94,6.26,5.56,0,0,4.56.39,6.74-2.55,0,0,.17-.82-.77-.73m1.17,1.13s-2.41,3.54-7.85,2.83a6.92,6.92,0,0,1-5.79-6.24s-.33-.32-.5,0c0,0,.63,7,7.48,7.6a10,10,0,0,0,7-2.66A1.42,1.42,0,0,0,45.33,14.88Zm.25,2.46S43.65,19,42.66,19.07c0,0-.11,5.27,1.11,4.87,0,0,1.27-.42,1.17-2.49,0,0,.73,2.77-1.43,3,.21,1.29.09,2.3.06,1.73a22.17,22.17,0,0,0,1.56,6.08,8.65,8.65,0,0,1,.34,3.57,1.37,1.37,0,0,1-.51,1s-.57.28-.34,1.41c0,0-.65.94.05,1,0,0,.71-.39.71-.87a2,2,0,0,1-1.07,1.5s-1,.82.42.93c0,0,2.38-.42,2.18-4.13,0,0-.14-.14-.11-3.43,0,0,.48-4.53-.2-5.89,0,0-1.3-1.64-.91,2.66,0,0-.87-4.13.71-3.37a7.24,7.24,0,0,0-.4-1.21,6.33,6.33,0,0,1-.24-1.7,34.87,34.87,0,0,0-.18-6.35M31,11.8a3,3,0,0,0-1.2.12c-1.06.33-1.74,1.65-2.07,2.63l-.05.06A6.35,6.35,0,0,0,26,17.84c-.13.46.36.3.34,1,0,1.05-1,1.21-1.67,1.5l-.07,0c.63-.34,1.25-.66,1.33-1.37a.59.59,0,0,0-.46-.68,1.67,1.67,0,0,0-1.07.34,15.64,15.64,0,0,0-1.44,1.26,9.93,9.93,0,0,1-1.62,1.19c-.95.51-2.3.29-3.08,1.13,0,0-.11,1.2.43,1.49a1.37,1.37,0,0,1,1,.51l.06,0A5.74,5.74,0,0,0,21,22.83c.2-.24.66-.26,1-.32a5.63,5.63,0,0,0,1-.28c.66-.24,1.32-.5,2-.77a9.62,9.62,0,0,0,1.81-.84,3.47,3.47,0,0,0,1.23-1.35,7.66,7.66,0,0,1,1-1.53,6.89,6.89,0,0,0,1.22-1.58c.71-1.5,1.16-1.31,1.21-1.3h0c.3.22.14,1.09.19,1.62A3.32,3.32,0,0,0,32,18a2.43,2.43,0,0,0,2.62,1,1.85,1.85,0,0,1-2.41,0,7.79,7.79,0,0,1,.11,2.65,1.35,1.35,0,0,1-.52.91.38.38,0,0,0-.07.26,12.46,12.46,0,0,0,1.11,2.54,18.61,18.61,0,0,0,1.63,2.35,29.81,29.81,0,0,0,2.41,2.48c.72.58,1.43,1.1,2.15,1.69.07.07.2.07.25.09l0,0c.36-1.42-.48-2.79-1-4.09-.45-1.11-1.1-2.29-.58-3.46a5.2,5.2,0,0,1,2.18-2.34A2.67,2.67,0,0,1,37.29,21a3.74,3.74,0,0,0,2.87.53,3.21,3.21,0,0,0,1.91-2.66,6.78,6.78,0,0,1-7.23-.63,11.17,11.17,0,0,1-2.52-2.7A8,8,0,0,1,31,12.07a2.51,2.51,0,0,1,0-.27m.3,11.09c-.26-.14-.77.57-.77.57,0,.68-.45.76-.45.76a.92.92,0,0,0-.28,1.08c2.18,5.07,9.09,9.46,9.09,9.46,1.07.48.66-.54.66-.54-.27-.4-.12-.48-.12-.48.28-.65,0-.71,0-.71-8.53-6.31-8.13-10.14-8.13-10.14m-2.07,2.52a3.83,3.83,0,0,1-.17.46,1,1,0,0,0-.14.91,21.56,21.56,0,0,0,10.2,10c.56.31.51-.6.51-.6,0-.93-.2-.82-.2-.82a12,12,0,0,1-4-2.35c-4.93-3.85-6.06-7.65-6.06-7.65S29.21,25.41,29.21,25.41Zm-1.38,2.41a1.06,1.06,0,0,1-.26.85.49.49,0,0,0-.4.65c2,5.35,11.7,9.77,11.7,9.77.82.37.74-.31.74-.31a1.1,1.1,0,0,1,0-.71c.23-.59-.2-.71-.2-.71a14.76,14.76,0,0,1-4.75-2.63c-6-5.32-6-7.95-6-7.95A1.15,1.15,0,0,0,27.83,27.82Zm8,16a10.6,10.6,0,0,1,.71,3c1.84-.57,2.38,3.48,2.38,3.48C38.1,47.45,37,47.33,37,47.33c-1.81.46,1.08,5.41,1.08,5.41,2.29,3.57,1.81,4.45,1.81,4.45a1.34,1.34,0,0,0,.82,1.89,3.08,3.08,0,0,1,1.61.46c1.48,1.22,2.49,1,2.49,1,1.11-.2.37-1.27.37-1.27-.11-.74-1.64-1.39-1.64-1.39-1.64-.94-2.29-3.77-2.29-3.77a52.35,52.35,0,0,0-1.45-6.65c-.51-1.36-.3-1.87-.3-1.87a4.08,4.08,0,0,0-.09-1.84C36.6,43.57,36.75,40,36.75,40c1.3,3.86,2.29,3.11,2.29,3.11.73-.34.37-3.42.37-3.42A20.49,20.49,0,0,1,34,36.89C33.8,39.47,35.78,43.82,35.78,43.82Zm-12.07,0A15.52,15.52,0,0,1,22.48,42a2.74,2.74,0,0,0-.06.94,39.19,39.19,0,0,0-3.52,8.78s-1.67,4.82-3.17,5.21l-1.7.74s-.76.28-1,.65c0,0-.23.31.48.31H18s1.33,0,1.13-1.21l-.06-1a12.36,12.36,0,0,1,1.7-3.31S25.53,47.93,24,46.6c0,0-1.1-.51-2.72,2.43,0,0,1.51-4.39,3.29-2.69,0,0,0-.2.09-.52A13.39,13.39,0,0,1,24,44.53C23.87,44.34,23.71,43.82,23.71,43.82Zm1.7-9.16a13.48,13.48,0,0,1,.86,2.48c.16-.33.58-1,.74-1.48a16.92,16.92,0,0,1-.57,2.15l.08.32c.21.87.36,1.74.64,2.62a4.07,4.07,0,0,1,.3-.36s3.37-4.5,3.56-5.63c0,0-3.25-2.18-4.1-4.67,0,0-.9,1.8-1.76,3.93C25.26,34.29,25.35,34.51,25.41,34.66Z"/></g></g></svg>