<svg xmlns="http://www.w3.org/2000/svg" viewBox="0 0 67.57 92.3"><defs><style>.cls-1,.cls-2{fill-rule:evenodd;}.cls-2{fill:#c6262f;}.cls-3{fill:#fff;}</style></defs><title>Asset 467</title><g id="Layer_2" data-name="Layer 2"><g id="Layer_1-2" data-name="Layer 1"><path d="M11.37,25.31a3.46,3.46,0,0,1,1.2-2.94c-.74,1.33-.88,2.14-.43,2.63a2.29,2.29,0,0,0,.64-1.78,1.83,1.83,0,0,1-.35,2.07c.57,0,.87-.6.89-1.31a1.89,1.89,0,0,1-.37,1.7c.76.05,1.24-1.64.81-3.15a3.6,3.6,0,0,1,.21,3.3A1.34,1.34,0,0,1,11.37,25.31ZM38.1,60.73c-3,4.43-.78,8.7,3.61,9-7.65,1-11-5.13-10.51-11.57a8.43,8.43,0,0,0,.78.55c.85,3.23,5,2.68,5.53-.78,1.06.36,3.41-.06,3.12-4.26,1.8.92,4.11-.95,3.59-4.29,1.93.52,4.32-1.74,3-5.9,1.26.63,4.29-.7,2.31-5.2,2.7.66,2.93-4.61-1.85-6.92,1,5.64-7.1,12.61-10.2,21.44a15.77,15.77,0,0,0-.57,5.63c0,1.66-1.92,1.59-1.75-.18s1.31-3.65,1.94-5.43c2.34-6.67,7-11.68,9.3-17.37-2.06,3.34-7.45,4.4-9.82,3.42,3.29,0,6.88-3,5.65-6.45-1-2.87-6-3.86-6.79,1.05l0,0A15,15,0,0,0,32.64,28C32.54,22,40,17.83,46.21,21.47c6.8,4,7.85,12.84,5.44,19.88C48.81,49.7,42.81,53.84,38.1,60.73Zm6.6-35.29c1.74.14,2.65,1.3,3.78,2.07s2-.45.81-1.26A6.4,6.4,0,0,0,44.7,25.44ZM42.15,24a7.7,7.7,0,0,1,4.07.38c1.15.27,1.5-1,.28-1.3A6.43,6.43,0,0,0,42.15,24Zm-2.38-.24c1-.95,2.1-.86,3.15-1.13s.78-1.41-.31-1.15A4.9,4.9,0,0,0,39.77,23.75Zm-2.83.93c.63-1.5,1.53-1.45,2.36-2s.43-1.56-.57-1.11A3.74,3.74,0,0,0,36.94,24.68Zm-2.6,2.17a4.14,4.14,0,0,0,1.91-2.93c0-1.19-1.38-1.1-1.38,0C34.87,24.94,35.13,25.75,34.34,26.85Zm11.53,2.94c-.38-4.16-5-6.11-8.51-4.42a6.07,6.07,0,0,0-3.15,4c5.23-2.36,11,.55,8.95,6.26A6.93,6.93,0,0,0,45.87,29.79Zm4.57.5a6.41,6.41,0,0,0-4.11-2.52c1.46.79,2.22,2.34,2.92,3.45S51.15,31.45,50.44,30.29ZM16.73,18.89a1.49,1.49,0,0,0,2.33,1.8A3.81,3.81,0,0,0,20,17c0,1.69-.77,3-1.7,3a1.85,1.85,0,0,0,.51-2.19,1.79,1.79,0,0,1-1.05,1.28c-.28-.61,1.41-2.05,1.22-4.24C18.78,16.67,17.17,17.63,16.73,18.89Zm.27,5.2a.64.64,0,0,0-.18-.47,1,1,0,0,1-.55.51,1.6,1.6,0,0,1,.33-2.41,2.66,2.66,0,0,0-1.33,2.52,1.18,1.18,0,0,0,1.83.82c.94-.57.83-1.91.44-2.86A2,2,0,0,1,17,24.09Zm1.84-2.47A.93.93,0,0,0,20,23.06,2.4,2.4,0,0,0,21.1,21c-.27,1-.93,1.71-1.48,1.54a1.17,1.17,0,0,0,.64-1.25,1.12,1.12,0,0,1-.84.61c-.07-.41,1.17-1,1.39-2.39C20.42,20.58,19.3,20.92,18.84,21.62Zm-4.33-3.35a2.65,2.65,0,0,0-2.12,2.08A1.58,1.58,0,0,0,15,21.85,2.74,2.74,0,0,0,15.63,19c-.13,1.42-.48,2.07-1.16,2.08A1.8,1.8,0,0,1,15,19.43a1.39,1.39,0,0,0-.9,1.65,1,1,0,0,1,0-1.52A1.42,1.42,0,0,0,13.37,21C12.67,20.47,13.24,19,14.51,18.27Zm-.13,9.2A1.36,1.36,0,0,0,13.86,29c-.61-.32-.56-1.44.08-2.51a2.83,2.83,0,0,0-.83,2.64A1.1,1.1,0,0,0,15.27,29c.2-1-.43-2.19.15-3.4-1,1.3-.46,2.85-.87,3.13A1.34,1.34,0,0,1,14.38,27.47ZM43.3,50.61c-.06-2.49-.6-4.65.75-7.58-1.68,2-3.34,5.08-3.24,7.8S43.36,53,43.3,50.61ZM16.19,17.81a2.82,2.82,0,0,0,1.51-2.35c-.41,1.19-1.25,1.94-1.88,1.68a1.37,1.37,0,0,0,.87-1.41,1.35,1.35,0,0,1-1.05.65c-.05-.5,1.48-1.11,1.87-2.7C16.94,14.92,15.59,15.21,15,16A1.11,1.11,0,0,0,16.19,17.81Zm21.65,30.8c.88-1.8,1.28-3.59,3.38-5-2,.61-4.4,2.06-5.34,4S37,50.36,37.84,48.61Zm11-7a9.28,9.28,0,0,0-1.28-6c.58,2.28-.1,3.76-.48,5.55S48.45,43.42,48.86,41.57ZM50.63,36A6.69,6.69,0,0,0,48,32.3c1,1.38.93,2.94,1.18,4.26S50.89,37.63,50.63,36ZM44,46c-.72,2,1.26,3,2.06.86s.28-5.38-.61-7.52C45.77,42.21,44.72,43.9,44,46ZM40.28,43c2-.79,3.66-3.08,4.43-5-1.61,2-3.42,2.25-5.28,3S38.34,43.7,40.28,43ZM34,53.89c-.57,1.83,1.36,2.37,1.91.66s.7-3.42,2.43-5C36.58,50.35,34.58,52,34,53.89Zm6.15,1c-.28-1.64-.88-3-.17-5a7.4,7.4,0,0,0-1.63,5.3C38.65,56.87,40.41,56.49,40.13,54.9ZM37,26.07c2-.13,2.41.79,2.79,1.94s1.63.47,1.17-.58A3,3,0,0,0,37,26.07Zm-1.65,1.54a1.77,1.77,0,0,1,2.51.38c.46.54,1.19-.18.69-.76A2.18,2.18,0,0,0,35.38,27.61Zm7-1.9c1.58,1.28,1.51,3.23,1.19,4.85s1.58,1.81,1.87.32A5.37,5.37,0,0,0,42.36,25.71ZM17.13,34.88A4.75,4.75,0,0,0,18,37.37a1.58,1.58,0,0,1-2.47.4c.52,1.23-1.28,2-2.13.64A1.5,1.5,0,1,1,10.42,38a1.07,1.07,0,0,1-1.93-.91A1.35,1.35,0,0,1,7.1,34.83c-1.21.2-1.57-1.69-.43-2.13-.89-.21-.79-1.23-.21-1.68l.08,0a13.69,13.69,0,0,0,4.22.71,1.33,1.33,0,0,1,.32-.57,14.22,14.22,0,0,1-3.14-.65,6,6,0,0,1,2.75.2,2.37,2.37,0,0,1,2.45-.83,2.49,2.49,0,0,1,1.69,1.24l-.86.08a1.41,1.41,0,0,1,.56,1.13,4,4,0,0,1,3.32,1.21C18.44,34.21,18,35,17.13,34.88ZM11.57,31.5a1,1,0,0,0,.81,1.07,1,1,0,0,0,1.18-.64,1,1,0,0,0-.81-1.07A1,1,0,0,0,11.57,31.5ZM8.1,32.71a2.59,2.59,0,0,1,2.3-.56c0-.18-.05-.09,0-.27A3.35,3.35,0,0,0,7.77,32C7.07,32.41,7.39,33.34,8.1,32.71ZM9,34.46c.69-.75.85-1.26,1.91-1.38a1.19,1.19,0,0,1-.15-.18,2.31,2.31,0,0,0-2.57.94C7.91,34.44,8.47,34.91,9,34.46Zm2.34-1a1.84,1.84,0,0,1-.22-.17c-.55.87-1.34,1.1-2.1,1.59-.92.6-.35,1.66.64,1A4.53,4.53,0,0,0,11.35,33.44Zm.32,2.77a5.66,5.66,0,0,1,.17-2.51l-.12-.05a3.85,3.85,0,0,0-1.14,2.49C10.58,37.23,11.66,37.23,11.67,36.21Zm.91-2.32a2,2,0,0,1-.57-.13,3.52,3.52,0,0,1-.25,2.84c-.37,1.14,1,1.53,1.29.37A4.2,4.2,0,0,0,12.58,33.89Zm2.5,1.76a6.26,6.26,0,0,1-1.8-1.79l-.22,0a4.41,4.41,0,0,0,1.28,2.41C15.19,37,15.86,36.3,15.08,35.65Zm1.65-.3a4.08,4.08,0,0,0-2.49-1.87,2.38,2.38,0,0,1-.5.26c1.28.61,1.2,1.37,1.79,2.12S17.07,36.17,16.73,35.35Zm.61-1.74a3.49,3.49,0,0,0-2.4-1,1.74,1.74,0,0,1-.18.33,2.3,2.3,0,0,1,2.09,1.28C17.16,34.88,18,34.24,17.34,33.61ZM14.93,15.16a3,3,0,0,0,1.41-2.48c-.2,1-.78,1.7-1.76,1.67a1.13,1.13,0,0,1,.16-.72.6.6,0,0,0-.45.14,2.27,2.27,0,0,1,1.25-1.52c-.93.27-2,1-2.07,2A.94.94,0,0,0,14.93,15.16ZM31.24,57.6c0,.19,0,.39,0,.58A8.48,8.48,0,0,1,28,52.57c-.34-2.49.67-4,.16-6.29.06,2.58-1.67,2.45-.74,5.67-6.05-5.61-2.68-7.94-4-12.19a5.55,5.55,0,0,1-1,3.2c-.33-1.94-3.1-3.4-4.53-5.59a1.85,1.85,0,0,0-.31-2.13,1,1,0,0,0,.92-1.58,4.86,4.86,0,0,0-3.51-1.86,1.9,1.9,0,0,0-.23-.72l.54,0a7.93,7.93,0,0,1,6.86-8c.7-11.18-8.57-13.85-14.51-9.72a11.4,11.4,0,0,0-4.6,12.3,7,7,0,0,0,4.82,4.81,3.27,3.27,0,0,0-1.4.51,9.88,9.88,0,0,1-1.65-.74l.7,1.44-.85.91.88.88L5,34.58l.92.5L5.55,36l.89.42-.08.94,1.1.14.22,1.08,1-.11.31,1,1.14-.15.59,1,.89-.2.77.42.83-.6,1.07.24.61-.72,1.13.13.58-.84,1.22,0c1.72,1.81,4.16,2.75,4.56,5.91a5.46,5.46,0,0,0,.82-1.89c-.42,3.81.16,5.36,1.23,6.71,1.26,1.59,3,2.52,3.63,4.88-.81,3.13-4.47,4.68-.79,10.3-1.28-.18-2-2.39-2.67-.9-.22,2-1.27,3.94-1.31,6,0,1.06.5,1.15,1.54,1.05s1.93-.53,2.86-.71a2,2,0,0,1,2.51,1,2.19,2.19,0,0,1,2.55,1.79,2,2,0,0,0-2.71-.5c-.92.77-2.2.54-4.13,0a13.1,13.1,0,0,0-7.64-.21c-1.63.54-3,1.27-4.5.1-.75-.6-2.82-.69-3.4.61,0-1.37,1.25-2.51,3.34-2.31.44-1.21,2.11-1.21,3.14-1,.86.21,1.71.68,2.46.87a1.5,1.5,0,0,0,1.83-.85c.87-1.62.86-4.06.75-5.83a.92.92,0,0,1-.63-.61C23,58.5,20,56.62,19.55,53.65c-1.91-1.43-4.94-3.58-5.32-6.08C10.72,46.24,8,44.19,7.41,40.13a12.19,12.19,0,0,1-5-11.71C.22,22.92,1.39,16.34,6.06,12.51A17.86,17.86,0,0,1,17.33,8.83C13.07,6.71,15,1.57,19.19,3.55c2.67,1.27,3.69,4.57,8.47,2.83a5.24,5.24,0,0,1-.84-4.27,4.2,4.2,0,0,0,2.4,2.15A17.39,17.39,0,0,0,25.47,0a6.41,6.41,0,0,1,7.1,4.37A4.46,4.46,0,0,1,34,4.47C33.93,1,36.63-.39,39.39,1.15A6.74,6.74,0,0,1,42.9,7.68c3.23-.09,3.41,4.81.12,4.51.81,1.06,2.48.34,3.78.46,3.08.28,3,4.31.37,5.17-3.64,1.21-7.44-1.29-8-4.16A3.36,3.36,0,0,1,35.63,17a4.84,4.84,0,0,1-2.23,5.4,3.84,3.84,0,0,1-2.52,3.8A14.58,14.58,0,0,1,32.64,28a5.09,5.09,0,0,0,0,.55l2.72,4.87a20.56,20.56,0,0,1,.49,2.23c.86,5.65-.84,10.57-2,16-.62,3-1,6,1.43,8.35A9.6,9.6,0,0,1,32,58.73a4.64,4.64,0,0,1-.18-1.18ZM26.1,54.77c-.1.71.7.86.82.1a3.33,3.33,0,0,0-.8-2.36A3.77,3.77,0,0,1,26.1,54.77Zm-9.43-7a4.57,4.57,0,0,1-1.07-2.42,3.93,3.93,0,0,0,.24,2.9C16.33,49.06,17.12,48.53,16.67,47.81Zm2.86,3.08c-.7-.51-1.44-.82-1.9-1.83A4,4,0,0,0,19,51.66C19.69,52.18,20.22,51.4,19.53,50.89Zm.63-3.28c.56.7,1.29.09.76-.58a4.5,4.5,0,0,1-1.33-2.28A3.91,3.91,0,0,0,20.16,47.61Zm-.31.66a3.87,3.87,0,0,0,1.32,2.59c.74.53,1.27-.26.58-.76A4.44,4.44,0,0,1,19.85,48.27ZM22.5,53.8c-.69-.53-1.42-.86-1.86-1.88a3.94,3.94,0,0,0,1.26,2.63C22.62,55.09,23.17,54.32,22.5,53.8Zm.09,8.62c-.15.65.57.85.74.15a3.09,3.09,0,0,0-.56-2.22A3.55,3.55,0,0,1,22.59,62.42ZM23.37,58a3.88,3.88,0,0,0-.93-2.76,4.5,4.5,0,0,1,0,2.65C22.3,58.76,23.23,58.93,23.37,58Zm1,5.81a7,7,0,0,1-2.19,0,5.51,5.51,0,0,1,0,.7C23.45,64.66,24.25,64.49,24.36,63.84ZM24,57.74a4,4,0,0,1-.21,2.33c-.17.74.64,1,.83.18A3.47,3.47,0,0,0,24,57.74Zm.57-3.59a4.58,4.58,0,0,1,0,2.65c-.13.84.81,1,1,.12A4,4,0,0,0,24.6,54.15Zm-1.89-3.56A3.92,3.92,0,0,0,24,53.22c.73.54,1.28-.23.6-.75S23.14,51.61,22.71,50.59Zm-.95-3.19A4,4,0,0,0,23.08,50c.74.52,1.27-.27.58-.77S22.22,48.41,21.76,47.4ZM21,44.3A3.88,3.88,0,0,0,22,47c.69.6,1.29-.14.65-.7A4.47,4.47,0,0,1,21,44.3ZM19,40.91a4,4,0,0,0,1.08,2.71c.69.59,1.29-.15.65-.71A4.51,4.51,0,0,1,19,40.91Zm-.19,6.55a4.5,4.5,0,0,1-1.33-2.28A3.9,3.9,0,0,0,18.08,48C18.65,48.75,19.37,48.13,18.84,47.46ZM18,44.41c.57.71,1.29.09.76-.57a4.53,4.53,0,0,1-1.33-2.29A3.89,3.89,0,0,0,18,44.41ZM16,44.74c.57.71,1.29.09.77-.57a4.53,4.53,0,0,1-1.33-2.29A3.93,3.93,0,0,0,16,44.74Zm-2.22.13c.49.77,1.28.24.83-.48A4.57,4.57,0,0,1,13.51,42,3.89,3.89,0,0,0,13.75,44.87ZM11,41.42c.18,2.71,1.81,5.34,3.47,5.7-1.42-1-2.34-3.36-2.5-5.55C11.62,41.53,11.3,41.48,11,41.42Zm-2.3-.65c.28,2,1.22,3.67,2.39,4.15a6.58,6.58,0,0,1-1.49-3.84C9.27,41,9,40.88,8.68,40.77Zm24.92-4c.43,3.32-.93,3.46-1.4,5.19a3.71,3.71,0,0,1-.31-2.53c-.62.92-1.12,1.73-.89,2.55-1.58-1.63,0-3.62-1.9-5.63,1.42,3.6-1.16,6.2,2.74,9.16C32,42.44,35.54,42.75,33.6,36.77Zm-3.15-2.31c-.49,1.57,1.14,2.27,1.68.73.44-1.26-.32-3.8-2.37-5.29A4.47,4.47,0,0,1,30.45,34.46Zm2.33-11.7a4.08,4.08,0,0,1-1.22.42c0,1.31-.93,2-2.54,2A2.73,2.73,0,0,0,32.78,22.76ZM35.22,17a3.07,3.07,0,0,1-1.33-.44c.5,3.47-2.7,6.55-6.69,5.85C31.27,24,35.33,22.14,35.22,17ZM26,18c.71,1.73,3.63,2.53,6,.43C29.66,19.65,27.37,19.29,26,18Zm7.1-2.1a1.8,1.8,0,0,1-.48-1.26,3,3,0,0,1-.78,1,3.92,3.92,0,0,1-4.41,2.63C29.22,19.06,32.48,19,33.13,15.89Zm8.61-4.2c-.91-1.74-1.88-3.39-3.68-3.9a2.75,2.75,0,0,1,.25.7C39.58,8.89,40.67,10.16,41.74,11.69Zm-7-7a5.37,5.37,0,0,1,1.48.82c.94-.74,2.64-.28,4.06,1.44C38.89,4,35.71,3.41,34.74,4.64Zm5.08.49c.63,1.16,2,.54,1.41-.64-.47-1-2.39-1.9-4.46-1.44A3.39,3.39,0,0,1,39.82,5.13ZM37.64,6.48a2.08,2.08,0,0,1,1.72,1.31c.36.69,1.13.39.81-.31A2.54,2.54,0,0,0,37.64,6.48ZM40.26,13c1,2.33,3.29,3.64,4.62,3.49,1.62-.18,1.31-1.93-.33-1.81A4.42,4.42,0,0,1,40.26,13Zm2.28-4.28a2,2,0,0,1-1,1.07,3.77,3.77,0,0,0,.85,1.58C43.29,10.64,43.33,9.16,42.54,8.73Zm-1.49-1a6.82,6.82,0,0,1,.38,1.34,3.52,3.52,0,0,0,.85-3.79C42.24,6.69,42,7.6,41.05,7.78ZM34.42,4.26c.62-2.75,3.8-3.59,7.21-.62C37.53-.89,34.3,1.34,34.42,4.26Zm-14,4.25c-1.55-.28-2.66-1.16-2.46-2a1.73,1.73,0,0,0,1.93.8,1.69,1.69,0,0,1-1-1.17c.61-.16,1.67,1.61,3.72,1.77-1.65-.45-2.29-2.07-3.38-2.68a1.4,1.4,0,0,0-2,1.88A3.58,3.58,0,0,0,20.41,8.51Zm.35,5.31c1.64,1.25,3.6,1.16,4.71-.85-1.37,4.65,3.69,6.15,5.53,3-4.29.45-5.37-3.68-1.09-8.48-1.35,2.6-1.67,4.67-1.05,6.28a6.62,6.62,0,0,0,.87-3,5.18,5.18,0,0,1,.07,3.06,5.2,5.2,0,0,0,1.28-3,8.16,8.16,0,0,1,.07,2.73,4,4,0,0,0,.69-3.6c1.84,1.29.77,3.68,2.83,4.74a4.89,4.89,0,0,1-.44-2.54A4.71,4.71,0,0,0,36,14.69a5.46,5.46,0,0,0-.37-2.83,3.49,3.49,0,0,1,1.21,2,7.58,7.58,0,0,0-1-4.65A5.85,5.85,0,0,1,38,12.76c.86-4-.92-6.51-3.23-7.52-3.15-1.4-7.29,0-6.92,4.28-6.45,2.51-9.13-.89-14.15.74C17.52,9.89,18.3,12,20.76,13.82Zm4.07.62a2.71,2.71,0,0,1-3.77.47A7.49,7.49,0,0,1,22,16.58,2.14,2.14,0,0,0,24.83,14.44Zm-3,10.46C28.14,26,33.27,30.8,35.18,38,33.68,28.67,27.44,24.7,21.85,24.9Zm-.79,4.71c.38.86,1.21,2.18.27,3.85a2.22,2.22,0,0,0-1.16-2.31c.4,1,.06,1.73,0,2.68-1.39-1.29-2.24-3.35-1-7a6.52,6.52,0,0,0,2.93,9.79C21.55,34.13,23.46,32.37,21.06,29.61Zm4-.38c.79,1.75,2.84,1,2.12-.79-.59-1.46-3.29-3-6.33-2.55A4.91,4.91,0,0,1,25,29.23Zm2,8.49a4.83,4.83,0,0,1-.22,4.89,5.47,5.47,0,0,0-1.41-5.18,5.27,5.27,0,0,1,.44,4.87c.49-4.26-3-3.22-2.88-10.06C22.37,37,24.05,39,24.76,40.51c1,2.23-.6,3.74,1.52,6.36C26.27,43.55,29.82,41.47,27.06,37.72Zm-.3-5.67a5,5,0,0,1,.37,2.51c-.15-.73-.64-.77-1-1.16a1.6,1.6,0,0,0,.12.83,4.15,4.15,0,0,1-2.23-3c.22,2.5.84,4.72,3.85,5.2C28.34,34.8,28.26,33.27,26.76,32.05Zm3,1c.64-2.16-1-4.46-2.69-5.34,1.42,1.45,1.35,2.95,1,4.74C27.71,34,29.35,34.43,29.76,33Zm2.13,22.75c-.54-2.8,1.56-4.23,1.1-7.72a7.62,7.62,0,0,1,.51-3.31c-1.51,2.48-.5,5.66-1.58,7a2.66,2.66,0,0,0-.52-2.81A6.12,6.12,0,0,1,31,51.8c-1.93-2.3.27-5-2.14-9C31,47.47,26.51,50.59,31.89,55.77ZM25.7,28.84c.35.83,1.22.42.92-.31a3.56,3.56,0,0,0-2.52-1.82A3.48,3.48,0,0,1,25.7,28.84ZM34.49,9.08a2.74,2.74,0,0,1-1.38-2.66c0-1.07-1.22-1.15-1.26-.08A3.43,3.43,0,0,0,34.49,9.08ZM29.33,32.35a2.82,2.82,0,0,0-.76-2.65A2.51,2.51,0,0,1,28.66,32C28.39,32.72,29,33.1,29.33,32.35Zm9.89-7.06c2.15.44,2.28,2,2.56,3.12A.8.8,0,1,0,43.31,28,4,4,0,0,0,39.22,25.29ZM6.32,23.54a2.92,2.92,0,0,0-.19-3.4c.52,1.48.15,2.81-.85,3a1.45,1.45,0,0,0-.16-2,1.45,1.45,0,0,1-.71,1.36c-.49-.47.84-2.11-.06-4,.38,1.64-1,2.85-1.09,4.05C3.16,24.21,5.38,24.69,6.32,23.54ZM7.83,18.8a4.42,4.42,0,0,0,1.86-3.55c-.49,1.8-2.08,3.31-2.85,2.85a2.49,2.49,0,0,0,1.48-1.57c-.47.73-1.17,1.17-1.77.88a2.37,2.37,0,0,0,1.68-2A3.1,3.1,0,0,1,6.43,17c-.17-.75.49-1.52,2.12-2.5a4.61,4.61,0,0,0-3.13,2.4C4.55,18.68,6.18,19.9,7.83,18.8Zm23.9,15.58A3.17,3.17,0,0,0,31,31.62a3.16,3.16,0,0,1,0,2.48C30.69,34.91,31.46,35.11,31.73,34.38ZM11.33,15.54c1.23-.17,1.93-1.58,2.12-2.72a2.76,2.76,0,0,1-1.63,1.69.73.73,0,0,0,.1-.56,1.31,1.31,0,0,1-.83.29,2.11,2.11,0,0,1,1.75-2.3,3.57,3.57,0,0,0-2.75,2A1.12,1.12,0,0,0,11.33,15.54ZM11,20.68c1.33-.57,1.67-2.36,1.54-3.69a3.15,3.15,0,0,1-1.31,2.39.91.91,0,0,0-.05-.66,1.49,1.49,0,0,1-.84.57c-.54-1.24.08-2.34,1.25-3.1a4.18,4.18,0,0,0-2.47,3.06A1.29,1.29,0,0,0,11,20.68ZM6.57,27.87a1.46,1.46,0,0,1-.6-.72.8.8,0,0,0-.21.57,3,3,0,0,1-.57-2.45c-.45,1.15-.59,2.83.45,3.67a1.2,1.2,0,0,0,2-.81,3.85,3.85,0,0,0-1.44-3.34A2.24,2.24,0,0,1,6.57,27.87Zm5,1.29a4,4,0,0,0-1-3.81c.86,1.56.86,3.15,0,3.58a2,2,0,0,0-.67-2.26,1.92,1.92,0,0,1-.3,1.72c-.58-.42-.64-1.32-.23-2.92a4.15,4.15,0,0,0-.4,3.87A1.4,1.4,0,0,0,11.53,29.16Zm-1.2-4.45a2.93,2.93,0,0,0,.13-3.25C10.81,23,10,24.57,9.1,24.38a1.57,1.57,0,0,0,.66-1.59c-.11.69-.55,1.2-1.24,1.11A1.52,1.52,0,0,0,9.19,22a2,2,0,0,1-1,1.6C7.71,23,8,22.25,9,21.1a3,3,0,0,0-1.81,2.62A1.73,1.73,0,0,0,10.33,24.71Z"/><path class="cls-1" d="M57.89,63.32a17.21,17.21,0,0,0,1.24-2.51,3.34,3.34,0,0,0,0-1.72.47.47,0,0,1,.58-.54,2.22,2.22,0,0,1,1.67,1.24c.18.5,0,.64-.43.91a13.15,13.15,0,0,0-2.25,2.48,35.91,35.91,0,0,0,4.21-1.07c.51-.16,1.66.66,1.75,1.21,0,.37-.49.92-1,1,.28,1.79-.2,4.82-1.61,6.09-.43.39-.93.35-1.06-.25a1.75,1.75,0,0,0-1.28-1.51c.74-.17,1.3.28,1.77.38s.46-.39.53-.68a14,14,0,0,0,.3-4.53c-.05-.54-.35-.53-1.15-.43a16.19,16.19,0,0,1-3.58.38,46.57,46.57,0,0,1,0,7.74c0,.49-.09.67.37.58,2.22-.38,4.46-.62,6.65-1.16a2.47,2.47,0,0,1,2.88,1.46.6.6,0,0,1-.54.7c-.44,3.56-1.12,6.21-2.53,7.51-.63.58-1.08.53-1.6-.1s-1-1.65-1.53-2.22c.84-.09,2.1,1,2.65.39s1.61-2.34,1.46-5.67c0-.46,0-1-.64-1a30,30,0,0,0-7.45,1.31c-1.06.38-1.75.13-1.28-1a13.71,13.71,0,0,0,0-8.86,12.9,12.9,0,0,0,1.79-.12Zm-9.58,4a21.92,21.92,0,0,1,2.52,2.47,20.1,20.1,0,0,1-4.82,7c2.8-1.19,4.45-3.58,5.61-6A11.35,11.35,0,0,1,53,73.2c.19.47,2.2.41,1.58-.54a28.48,28.48,0,0,0-2.44-3c.69-1.64,1.21-3.21,1.75-4.37.19-.41.73-.08.77-.71A1.94,1.94,0,0,0,53.33,63a.67.67,0,0,0-.93.24c-1,1.32-5.28,1.69-6,1.69.52.49,3.34.55,5.16,0,.44-.12.88-.28.77.21a26.75,26.75,0,0,1-1.13,3.64,10.45,10.45,0,0,0-2.8-2.14c-.33-.13-.22.57-.13.64Zm3.39,8.77a41.4,41.4,0,0,0,9.85-1.75c.63-.2,3.06,1.17,1.52,1.32-2,.2-8.81,1.5-11.37,1.06-.54-.09-.51-.59,0-.63ZM61,66.72c0-.64-.93-1.22-1.91-1.42-.16,0-.23.12-.18.34a4.74,4.74,0,0,0,.91,1.52c.6.65,1.2.18,1.18-.44Z"/><path class="cls-2" d="M6.37,79.55H43.63A6.4,6.4,0,0,1,50,85.93h0a6.4,6.4,0,0,1-6.38,6.37H6.37A6.39,6.39,0,0,1,0,85.93H0a6.4,6.4,0,0,1,6.37-6.38Z"/><path class="cls-3" d="M13.43,86.79v.89a.69.69,0,0,1-.15.48.53.53,0,0,1-.38.16.49.49,0,0,1-.38-.17.65.65,0,0,1-.14-.47V84.74c0-.47.17-.71.51-.71a.45.45,0,0,1,.38.17.9.9,0,0,1,.13.49,1.7,1.7,0,0,1,.38-.49.82.82,0,0,1,.53-.17,1.37,1.37,0,0,1,.65.17.48.48,0,0,1,.31.44.39.39,0,0,1-.13.31.41.41,0,0,1-.29.13,1.16,1.16,0,0,1-.28-.07,1.24,1.24,0,0,0-.39-.07.58.58,0,0,0-.38.12.8.8,0,0,0-.23.36,2.75,2.75,0,0,0-.11.57c0,.22,0,.49,0,.8Zm6.06-.62a2.41,2.41,0,0,1-.15.87,1.86,1.86,0,0,1-.42.69,1.93,1.93,0,0,1-.66.43,2.45,2.45,0,0,1-1.74,0,2,2,0,0,1-.66-.44,2,2,0,0,1-.42-.68,2.41,2.41,0,0,1-.15-.87,2.45,2.45,0,0,1,.15-.87,2,2,0,0,1,.42-.68,2,2,0,0,1,.66-.44,2.45,2.45,0,0,1,.87-.15,2.25,2.25,0,0,1,.87.16,1.78,1.78,0,0,1,.66.44,1.84,1.84,0,0,1,.43.68,2.63,2.63,0,0,1,.14.86Zm-1.06,0a1.57,1.57,0,0,0-.28-1,.92.92,0,0,0-.76-.36,1,1,0,0,0-.55.16,1.08,1.08,0,0,0-.36.47,1.86,1.86,0,0,0-.13.73,1.83,1.83,0,0,0,.13.73,1,1,0,0,0,.36.47,1,1,0,0,0,1.31-.2,1.57,1.57,0,0,0,.28-1Zm5.84,0a2.41,2.41,0,0,1-.15.87,1.88,1.88,0,0,1-.43.69,1.76,1.76,0,0,1-.66.43,2.21,2.21,0,0,1-.87.16,2.16,2.16,0,0,1-.86-.16,2,2,0,0,1-.66-.44,1.77,1.77,0,0,1-.42-.68,2.41,2.41,0,0,1-.15-.87,2.45,2.45,0,0,1,.15-.87,1.82,1.82,0,0,1,.42-.68,1.91,1.91,0,0,1,.66-.44,2.39,2.39,0,0,1,.86-.15,2.21,2.21,0,0,1,.87.16,1.91,1.91,0,0,1,.67.44,1.82,1.82,0,0,1,.42.68,2.39,2.39,0,0,1,.15.86Zm-1.06,0a1.63,1.63,0,0,0-.28-1,.93.93,0,0,0-.77-.36.93.93,0,0,0-.9.63,1.86,1.86,0,0,0-.13.73,2,2,0,0,0,.12.73,1.16,1.16,0,0,0,.36.47,1,1,0,0,0,1.32-.2,1.63,1.63,0,0,0,.28-1Zm5.28.77a1.32,1.32,0,0,1-.21.75,1.35,1.35,0,0,1-.63.47,3,3,0,0,1-1,.16,2.37,2.37,0,0,1-1-.18,1.41,1.41,0,0,1-.6-.43.86.86,0,0,1-.19-.53.43.43,0,0,1,.43-.42.36.36,0,0,1,.26.09.84.84,0,0,1,.17.22,1.12,1.12,0,0,0,.38.42,1.14,1.14,0,0,0,.62.14.84.84,0,0,0,.52-.14.37.37,0,0,0,.2-.32.45.45,0,0,0-.21-.41,2.93,2.93,0,0,0-.69-.24,5.93,5.93,0,0,1-.89-.28,1.48,1.48,0,0,1-.54-.39.91.91,0,0,1-.21-.6,1.12,1.12,0,0,1,.19-.6,1.27,1.27,0,0,1,.56-.45,2.17,2.17,0,0,1,.89-.17,3.2,3.2,0,0,1,.73.08,2.17,2.17,0,0,1,.55.23,1,1,0,0,1,.33.32.61.61,0,0,1,.12.34.41.41,0,0,1-.12.3.54.54,0,0,1-.35.11.45.45,0,0,1-.28-.09,1.86,1.86,0,0,1-.26-.28A.92.92,0,0,0,27,84.8a.8.8,0,0,0-.44-.1.9.9,0,0,0-.48.12.38.38,0,0,0-.18.31.31.31,0,0,0,.14.27,1.16,1.16,0,0,0,.37.18l.65.17a3.23,3.23,0,0,1,.8.28,1.33,1.33,0,0,1,.47.39.85.85,0,0,1,.16.52Zm1-2.82h.12v-.63c0-.17,0-.3,0-.4a.61.61,0,0,1,.07-.25.58.58,0,0,1,.18-.17.48.48,0,0,1,.26-.07.49.49,0,0,1,.36.15.43.43,0,0,1,.14.24,2.26,2.26,0,0,1,0,.42v.71H31a.5.5,0,0,1,.34.11.34.34,0,0,1,.12.27.32.32,0,0,1-.17.3,1,1,0,0,1-.48.08h-.2v1.94a3.32,3.32,0,0,0,0,.38.4.4,0,0,0,.09.22.34.34,0,0,0,.25.08l.25,0,.24,0a.29.29,0,0,1,.23.1.34.34,0,0,1,.11.25.43.43,0,0,1-.28.39,1.88,1.88,0,0,1-.8.14,1.39,1.39,0,0,1-.75-.17.74.74,0,0,1-.33-.46,2.78,2.78,0,0,1-.08-.78v-2h-.14a.52.52,0,0,1-.35-.1A.38.38,0,0,1,29,84.5a.32.32,0,0,1,.13-.27.53.53,0,0,1,.36-.11Zm5.68,2.31H33.06a1.34,1.34,0,0,0,.15.64,1,1,0,0,0,.37.41,1,1,0,0,0,.52.14,1.21,1.21,0,0,0,.34-.05,1,1,0,0,0,.31-.14l.27-.2.32-.29a.32.32,0,0,1,.23-.07.37.37,0,0,1,.26.09.3.3,0,0,1,.1.25.71.71,0,0,1-.11.33,1.45,1.45,0,0,1-.34.37,1.9,1.9,0,0,1-.57.29,2.32,2.32,0,0,1-.78.12,2.11,2.11,0,0,1-1.58-.58A2.15,2.15,0,0,1,32,86.17a2.74,2.74,0,0,1,.14-.87,2,2,0,0,1,.41-.69,1.68,1.68,0,0,1,.66-.43,2.16,2.16,0,0,1,.86-.16,2.08,2.08,0,0,1,1.06.26,1.66,1.66,0,0,1,.66.68,1.7,1.7,0,0,1,.22.84c0,.26-.07.44-.22.51a1.45,1.45,0,0,1-.65.12Zm-2.06-.6H35a1.2,1.2,0,0,0-.29-.8.87.87,0,0,0-.66-.27.85.85,0,0,0-.65.27,1.37,1.37,0,0,0-.31.8Zm4.87,1v.89a.69.69,0,0,1-.15.48.53.53,0,0,1-.39.16.48.48,0,0,1-.37-.17.65.65,0,0,1-.15-.47V84.74c0-.47.17-.71.52-.71a.41.41,0,0,1,.37.17.9.9,0,0,1,.13.49,1.9,1.9,0,0,1,.39-.49.8.8,0,0,1,.53-.17,1.4,1.4,0,0,1,.65.17.5.5,0,0,1,.31.44.4.4,0,0,1-.14.31.37.37,0,0,1-.28.13,1.16,1.16,0,0,1-.28-.07,1.24,1.24,0,0,0-.39-.07.56.56,0,0,0-.38.12.73.73,0,0,0-.23.36A2.75,2.75,0,0,0,38,86c0,.22,0,.49,0,.8Z"/></g></g></svg>