<svg xmlns="http://www.w3.org/2000/svg" viewBox="0 0 55.27 75.17"><defs><style>.cls-1{fill:#1d1d1b;}</style></defs><title>Asset 429</title><g id="Layer_2" data-name="Layer 2"><g id="Layer_1-2" data-name="Layer 1"><path class="cls-1" d="M37.33,40.45A5.2,5.2,0,0,0,35,42.25V38.1h0s-.06-6.82-5.86-6.15a5.1,5.1,0,0,0-4.07,2.7A4.56,4.56,0,0,0,20,32a5,5,0,0,0-3.45,1.8,4,4,0,0,0-1-1.85c-1.3-1.34-3-.71-2.25.19,0,0,1.14,1.47,1.23,4.82a2.71,2.71,0,0,0,0,.29V58.56a1.1,1.1,0,0,0,2.19,0V40.72c0-1.41.42-6.47,3.66-6.57s3.26,4,3.26,4V59a.69.69,0,0,0,.69.69h.8a.69.69,0,0,0,.69-.69V41.08h0s-.09-6.81,3.67-6.93c3.2-.1,3.25,4,3.25,4h0V58.61a5.58,5.58,0,0,0,0,1.29c0,.16,0,.39.07.67A24.62,24.62,0,0,1,28.06,65s-.94,1.44,1.41.56a14.69,14.69,0,0,0,4-3,4.3,4.3,0,0,0,3.82,2.73.69.69,0,0,0,.55-.19c.17-.17.27-.43-.07-.81-.56-.62-2.11-1.12-2.61-3.58A32.1,32.1,0,0,0,40.85,50.3C44.23,40.23,40,39.57,37.33,40.45ZM35,57.79V47.92c.19-1.73.93-5.7,3.82-5.41C41.43,42.77,39.69,50.83,35,57.79Z"/><path class="cls-1" d="M47.18,28a27.65,27.65,0,1,0,8.09,19.55A27.45,27.45,0,0,0,47.18,28ZM45.83,65.73a25.72,25.72,0,1,1,7.54-18.19A25.56,25.56,0,0,1,45.83,65.73Z"/><path class="cls-1" d="M20,.16c-.89.28-1.23.74-2.17,3.38l-3.11,8.75h-.3l-4-10.54C10,.59,9.71.34,9.2.16V0C9.54,0,10.41,0,11,0s1.52,0,1.88,0V.16c-.57.09-.77.3-.77.66a3.36,3.36,0,0,0,.25,1.06l2.8,7.61L17.3,3.23A8.12,8.12,0,0,0,17.84,1,.8.8,0,0,0,17.1.16V0c.36,0,1.11,0,1.72,0S19.7,0,20,0Zm1.91,10.15V4.11a5.24,5.24,0,0,1-2.05.43V4.7c.5.13.51.4.51,1.18v4.43c0,1.31-.21,1.39-.7,1.49V12c.36,0,.87,0,1.47,0s1.12,0,1.48,0V11.8C22.15,11.7,21.93,11.62,21.93,10.31Zm-.72-7.16A.78.78,0,0,0,22,2.38a.79.79,0,0,0-.82-.84.78.78,0,0,0-.78.84A.77.77,0,0,0,21.21,3.15Zm6.61.91a2.87,2.87,0,0,0-1.89,1.05V4.06a5.32,5.32,0,0,1-2.05.45v.16c.49.13.51.38.51,1.18v4.46c0,1.31-.21,1.39-.7,1.49V12c.36,0,.86,0,1.47,0s1.12,0,1.48,0V11.8c-.5-.1-.71-.18-.71-1.49V5.57a1.34,1.34,0,0,1,1-.57c.39,0,.66.23.66.9h1.5C29.09,4.62,28.64,4.06,27.82,4.06Zm8.34,1.07a.61.61,0,0,0-.36.13,2.54,2.54,0,0,1,.52,1.56c0,1.69-1.51,2.64-3.18,2.64a4.93,4.93,0,0,1-.57,0,.9.9,0,0,0-.67.91c0,.77.72.85,2,1,1.67.18,3.1.67,3.1,2s-1.15,2.3-3.72,2.3c-2,0-3.76-.67-3.76-2.1,0-.72.45-1.51,2-2-.62-.16-1.11-.49-1.11-1.11S31,9.36,31.68,9.21A2.51,2.51,0,0,1,29.91,6.8a2.92,2.92,0,0,1,3.18-2.74A3.51,3.51,0,0,1,35.52,5a1.77,1.77,0,0,1,1.19-.76,1.18,1.18,0,0,1,.81.4L36.9,5.75C36.68,5.33,36.42,5.13,36.16,5.13Zm-5,8.31a1.81,1.81,0,0,0,2,1.87,1.73,1.73,0,0,0,2-1.79c0-1.56-1.29-1.74-2.54-1.79A1.56,1.56,0,0,0,31.18,13.44Zm3.34-6.61c0-1.52-.38-2.45-1.43-2.45s-1.37.85-1.37,2.41.39,2.36,1.39,2.36S34.52,8.38,34.52,6.83ZM46.07,8.06A3.9,3.9,0,0,1,42,12a3.83,3.83,0,0,1-4-3.92,4,4,0,0,1,8.08,0Zm-1.82,0c0-2.23-.46-3.72-2.21-3.72S39.81,6.11,39.81,8.1s.39,3.6,2.2,3.6S44.25,10.08,44.25,8.11Z"/></g></g></svg>