<svg xmlns="http://www.w3.org/2000/svg" viewBox="0 0 140.44 81.98"><defs><style>.cls-1{fill:#1d1d1b;}</style></defs><title>Asset 430</title><g id="Layer_2" data-name="Layer 2"><g id="Layer_1-2" data-name="Layer 1"><path class="cls-1" d="M18.69,33.78a.55.55,0,0,1-.5-.34.54.54,0,0,1,.3-.7l15.76-6.39a.54.54,0,0,1,.7.29.53.53,0,0,1-.3.7l-15.76,6.4A.71.71,0,0,1,18.69,33.78Zm37.68-3.6a.55.55,0,0,0-.39-.66L42.88,26a.53.53,0,1,0-.27,1l13.1,3.49.14,0A.55.55,0,0,0,56.37,30.18ZM13.7,72.63l12.93-1.52a.54.54,0,0,0,.47-.6.52.52,0,0,0-.59-.47L13.57,71.56a.55.55,0,0,0-.47.6.53.53,0,0,0,.53.47Zm23,.86a.54.54,0,0,0,0-.76l-2.29-2.52a.54.54,0,0,0-.76,0,.55.55,0,0,0,0,.76l2.29,2.52a.53.53,0,0,0,.4.18A.54.54,0,0,0,36.66,73.49Zm5.92.7,13-9.56a.54.54,0,0,0,.12-.75.55.55,0,0,0-.76-.12l-13,9.57a.53.53,0,0,0-.11.75.54.54,0,0,0,.43.22A.56.56,0,0,0,42.58,74.19ZM59.09,54,60,41A.54.54,0,0,0,59,40.88l-.94,13a.54.54,0,0,0,.5.57h0A.54.54,0,0,0,59.09,54Zm23-20.72a.54.54,0,0,0-.54-.54H71.65a.54.54,0,1,0,0,1.08h9.88A.54.54,0,0,0,82.07,33.24ZM92.32,50a.54.54,0,0,0,.41-.64L90,36.18a.54.54,0,0,0-.64-.42.53.53,0,0,0-.41.64l2.77,13.21a.55.55,0,0,0,.53.43ZM88.41,64.52A.54.54,0,0,0,87.9,64L60.55,62.63a.54.54,0,0,0-.56.52.54.54,0,0,0,.51.56L87.85,65h0A.54.54,0,0,0,88.41,64.52Zm3.34-34.93,10.37-8.48a.54.54,0,0,0-.68-.83L91.07,28.76a.53.53,0,0,0-.08.75.54.54,0,0,0,.76.08Zm23.66,40.67a.53.53,0,0,0-.33-.68L99,64a.53.53,0,1,0-.35,1l16,5.59a.57.57,0,0,0,.18,0A.51.51,0,0,0,115.41,70.26Zm9.61-.59,8.81-7.4a.54.54,0,0,0,.06-.75.53.53,0,0,0-.75-.07l-8.81,7.39a.55.55,0,0,0-.06.76.52.52,0,0,0,.41.19A.54.54,0,0,0,125,69.67ZM107,13.67c-1.14.29-.53-2-2.08-1.18.38.82.73,1.6,1.18,2.58-1.22,0-2.3,0-3.37,0s-2.06-.7-3.13-.1c.22.8.78.75,1.29.75h4.69c.33,0,.66,0,1.12.08-.84,1.25-2.43,1.7-2.71,3.48,1.4-.31,1.79-1.8,3.08-2,0,.67,0,1.23,0,1.79s-.11,1.35-.07,2c.06,1,.26,1.94.31,2.92.07,1.35,0,2.71.09,4.06a3.93,3.93,0,0,0,.31,1l.44,0a8.46,8.46,0,0,0,.16-1.41c-.06-2.81-.16-5.62-.25-8.43,0-.61-.07-1.23.57-1.66,1,.67,1.27,1.95,2.38,2.38.64-.42.45-.85.13-1.24s-.79-.82-1.18-1.24-1.09-.83-1-1.79a5.31,5.31,0,0,1,1.34-.2,35.39,35.39,0,0,1,3.68.64c.65.15,1.1.2,1.43-.7a41.74,41.74,0,0,0-6.08-.72l1.87-2.9c-1.61-.07-1.52,1.53-2.58,1.87l.22-2.35-1.3,1.22c0-2.61,0-4.89,0-7.17,0-.48.32-1-.72-1.38A62.77,62.77,0,0,0,107,13.67ZM61.51,32.07c-1.14.28-.53-2-2.08-1.19.37.83.73,1.61,1.18,2.59-1.22,0-2.3,0-3.37,0s-2.06-.7-3.13-.1c.22.79.78.74,1.28.74,1.57,0,3.13,0,4.7,0,.33,0,.66.05,1.12.08-.84,1.26-2.43,1.7-2.71,3.48,1.4-.3,1.79-1.8,3.08-2,0,.66,0,1.22,0,1.79s-.11,1.35-.07,2c.06,1,.26,1.95.31,2.92.06,1.35,0,2.71.09,4.07a4.17,4.17,0,0,0,.31,1l.44,0A9.82,9.82,0,0,0,62.82,46c-.06-2.81-.16-5.62-.25-8.43,0-.61-.07-1.24.57-1.67,1,.67,1.27,2,2.38,2.38.64-.42.45-.85.13-1.23s-.79-.83-1.18-1.25-1.1-.83-1-1.78a4.89,4.89,0,0,1,1.34-.2,32.89,32.89,0,0,1,3.68.63c.64.15,1.1.21,1.43-.7a44.69,44.69,0,0,0-6.08-.72l1.87-2.89c-1.61-.08-1.53,1.52-2.58,1.86l.21-2.34L62.05,30.9c0-2.62,0-4.9,0-7.17,0-.49.32-1-.72-1.39A62.88,62.88,0,0,0,61.51,32.07ZM8.57,72.39c1.08-.45.82,1.92,2.23.86L9.25,70.87c1.2-.18,2.27-.3,3.33-.51s2.14.38,3.11-.37c-.34-.76-.88-.62-1.38-.55l-4.65.71c-.32,0-.65,0-1.11.08.63-1.36,2.14-2,2.15-3.84-1.34.51-1.5,2-2.74,2.47-.1-.65-.2-1.21-.27-1.77s-.09-1.35-.23-2c-.21-1-.55-1.88-.74-2.84-.27-1.33-.44-2.67-.7-4a4.55,4.55,0,0,0-.47-1l-.42.11a9.58,9.58,0,0,0,0,1.42c.49,2.77,1,5.53,1.51,8.29a1.68,1.68,0,0,1-.31,1.74c-1-.52-1.55-1.75-2.72-2-.56.51-.31.9.07,1.24s.9.69,1.35,1.05,1.21.66,1.25,1.62A4.89,4.89,0,0,1,5,71.13a31.13,31.13,0,0,1-3.74-.07C.64,71,.19,71,0,72a42,42,0,0,0,6.12-.19c-.5,1.09-.91,2-1.42,3.14C6.31,74.74,6,73.17,7,72.68L7.11,75l1.1-1.4c.39,2.58.75,4.83,1.06,7.09.07.48-.16,1.07.92,1.26A62.93,62.93,0,0,0,8.57,72.39ZM93.45,57c-1.17.15-.29-2.06-1.93-1.43.28.87.54,1.69.86,2.71-1.2-.14-2.27-.31-3.34-.39s-2-.94-3.1-.47c.13.82.69.83,1.19.89,1.55.2,3.11.37,4.66.56.33,0,.65.13,1.1.22-1,1.14-2.61,1.39-3.1,3.13,1.43-.14,2-1.58,3.3-1.65-.08.65-.13,1.21-.21,1.77s-.27,1.33-.31,2c-.06,1,0,2,0,2.93-.09,1.35-.28,2.69-.39,4a4.09,4.09,0,0,0,.19,1.07h.44A9.87,9.87,0,0,0,93.09,71c.27-2.8.5-5.6.75-8.4.06-.61.08-1.24.76-1.59.88.78,1,2.1,2.09,2.65.68-.34.55-.79.27-1.21s-.69-.91-1-1.38-1-1-.78-1.89a5.13,5.13,0,0,1,1.35,0,33.54,33.54,0,0,1,3.58,1.07c.62.23,1.07.33,1.5-.52a43.8,43.8,0,0,0-6-1.45l2.2-2.64c-1.59-.27-1.69,1.33-2.78,1.54l.5-2.31-1.44,1.06c.31-2.59.57-4.86.87-7.11.06-.49.44-1-.55-1.46A62.07,62.07,0,0,0,93.45,57Zm22.77,13.63A8.16,8.16,0,0,0,117,71a18.06,18.06,0,0,1,2,.62c1.44.66,1.15.44,1.1,1.88,0,.69,0,1.37.05,2.19.06.53.4-.19.44-.28a12,12,0,0,0,.47-1.31c.22-.81.46-1.51,1.46-1.72a15.29,15.29,0,0,0,2.66-.65c.63-.22-.91-.67-1.15-.77-.4-.17-.82-.31-1.23-.46a1.94,1.94,0,0,1-1.41-2c0-.74.07-1.49.13-2.24,0-.27.1-.56-.36-.66a3.41,3.41,0,0,0-.19.5c-.2.91-.45,1.82-.58,2.75s-.74,1.23-1.52,1.36a10.56,10.56,0,0,1-1.13,0l-1.46.11C116.05,70.35,115.83,70.45,116.22,70.62ZM82.79,31.18c.27.11.53.24.81.33a18.1,18.1,0,0,1,2,.63c1.44.66,1.15.43,1.1,1.87,0,.69,0,1.38,0,2.2.06.53.4-.2.44-.29a11.84,11.84,0,0,0,.47-1.3c.22-.81.47-1.51,1.46-1.73a13.67,13.67,0,0,0,2.66-.65c.63-.22-.91-.67-1.15-.77-.4-.17-.82-.31-1.23-.45A2,2,0,0,1,88,29c0-.75.08-1.5.13-2.24,0-.28.11-.57-.36-.67a4.55,4.55,0,0,0-.19.5c-.2.92-.45,1.83-.58,2.75s-.73,1.24-1.52,1.36a10.55,10.55,0,0,1-1.13.06l-1.46.11C82.63,30.91,82.41,31,82.79,31.18ZM52.77,60a8.16,8.16,0,0,0,.81.34,18.06,18.06,0,0,1,2,.62c1.44.66,1.15.44,1.1,1.88,0,.68,0,1.37.05,2.19.06.53.4-.19.44-.28a12,12,0,0,0,.47-1.31c.22-.81.47-1.51,1.46-1.73A13.67,13.67,0,0,0,61.73,61c.63-.21-.91-.66-1.15-.76-.4-.18-.82-.31-1.23-.46a2,2,0,0,1-1.41-2c0-.74.07-1.49.13-2.24,0-.27.1-.56-.36-.66a3.41,3.41,0,0,0-.19.5c-.2.91-.45,1.82-.58,2.75s-.74,1.23-1.52,1.36a10.56,10.56,0,0,1-1.13,0l-1.46.11C52.61,59.71,52.38,59.81,52.77,60ZM33.72,24.15c.27.12.54.25.81.34a19,19,0,0,1,2,.62c1.44.66,1.15.43,1.1,1.88,0,.68,0,1.37,0,2.19.05.53.4-.19.43-.28a10.22,10.22,0,0,0,.47-1.31c.22-.81.47-1.51,1.47-1.73a14,14,0,0,0,2.66-.65c.62-.21-.92-.66-1.15-.76-.41-.18-.82-.31-1.24-.46a2,2,0,0,1-1.41-2c0-.74.08-1.49.13-2.24,0-.27.11-.56-.36-.67a2.84,2.84,0,0,0-.18.51c-.21.91-.46,1.82-.58,2.75s-.74,1.23-1.53,1.36a10.56,10.56,0,0,1-1.13.05l-1.45.11C33.56,23.88,33.34,24,33.72,24.15ZM11,34.84c.27.12.54.25.81.34a16.27,16.27,0,0,1,2,.62c1.44.66,1.15.43,1.1,1.88,0,.68,0,1.37.05,2.19.05.53.4-.2.43-.28a10.22,10.22,0,0,0,.47-1.31c.23-.81.47-1.51,1.47-1.73A14,14,0,0,0,20,35.9c.62-.21-.92-.67-1.15-.77-.4-.17-.82-.31-1.24-.45a2,2,0,0,1-1.41-2c0-.75.08-1.49.13-2.24,0-.28.11-.56-.36-.67a2.84,2.84,0,0,0-.18.51c-.21.91-.46,1.82-.58,2.75s-.74,1.23-1.53,1.36c-.37,0-.75,0-1.13,0l-1.45.11C10.82,34.57,10.6,34.67,11,34.84ZM25.7,67.94a8.16,8.16,0,0,0,.81.34,18.06,18.06,0,0,1,2,.62c1.44.66,1.15.44,1.1,1.88,0,.69,0,1.37.05,2.19.06.53.4-.19.44-.28a12,12,0,0,0,.47-1.31c.22-.81.47-1.51,1.46-1.72A14.43,14.43,0,0,0,34.66,69c.63-.22-.91-.67-1.15-.77-.4-.17-.82-.31-1.23-.45a2,2,0,0,1-1.41-2c0-.74.08-1.49.13-2.24,0-.27.11-.56-.36-.66a3.41,3.41,0,0,0-.19.5c-.2.91-.45,1.82-.58,2.75s-.73,1.23-1.52,1.36a10.56,10.56,0,0,1-1.13.05l-1.46.11C25.54,67.67,25.32,67.77,25.7,67.94ZM33.8,76a8.33,8.33,0,0,0,.82.34,18.78,18.78,0,0,1,2,.62c1.44.66,1.15.44,1.1,1.88,0,.69,0,1.37.05,2.19,0,.53.4-.19.43-.28a12.06,12.06,0,0,0,.48-1.31c.22-.81.46-1.51,1.46-1.72a14.63,14.63,0,0,0,2.66-.65c.62-.22-.92-.67-1.15-.77-.4-.17-.82-.31-1.24-.45a2,2,0,0,1-1.41-2c0-.74.08-1.49.13-2.24,0-.27.11-.56-.36-.66a5,5,0,0,0-.18.5c-.21.91-.46,1.82-.58,2.75s-.74,1.23-1.53,1.36a10.49,10.49,0,0,1-1.12,0l-1.46.11C33.64,75.76,33.42,75.86,33.8,76Zm97.52-16.78c.27.11.54.24.82.33a18.78,18.78,0,0,1,2,.62c1.44.66,1.15.44,1.1,1.88,0,.69,0,1.37,0,2.19.05.53.4-.19.43-.28a12.06,12.06,0,0,0,.48-1.31c.22-.81.46-1.51,1.46-1.72a14.63,14.63,0,0,0,2.66-.65c.62-.22-.92-.67-1.15-.77-.4-.17-.82-.31-1.24-.45a2,2,0,0,1-1.4-2c0-.75.07-1.5.13-2.25,0-.27.1-.56-.37-.66a5,5,0,0,0-.18.5c-.21.91-.46,1.82-.58,2.75s-.74,1.23-1.53,1.36a10.49,10.49,0,0,1-1.12.05l-1.46.11C131.16,59,130.94,59.07,131.32,59.25Z"/><path class="cls-1" d="M59,.15c-.78.24-1.09.65-1.92,3l-2.77,7.77h-.26L50.51,1.56c-.39-1-.67-1.25-1.12-1.41V0L51,0l1.68,0V.15c-.51.07-.68.26-.68.58a2.92,2.92,0,0,0,.21.94l2.49,6.76,1.93-5.56A7.05,7.05,0,0,0,57.07.92a.7.7,0,0,0-.66-.77V0c.32,0,1,0,1.53,0S58.73,0,59,0Zm1.71,9V3.66A4.76,4.76,0,0,1,58.89,4v.15c.43.12.45.35.45,1.05V9.16c0,1.17-.19,1.24-.63,1.33v.14c.32,0,.77,0,1.31,0s1,0,1.31,0v-.14C60.9,10.4,60.71,10.33,60.71,9.16ZM60.07,2.8a.69.69,0,0,0,.72-.69.71.71,0,1,0-1.42,0A.69.69,0,0,0,60.07,2.8Zm5.86.81a2.52,2.52,0,0,0-1.67.93V3.61a5,5,0,0,1-1.82.4v.14c.44.12.45.34.45,1v4c0,1.17-.19,1.24-.63,1.33v.14c.33,0,.78,0,1.32,0s1,0,1.31,0v-.14c-.44-.09-.63-.16-.63-1.33V5a1.21,1.21,0,0,1,.89-.51c.35,0,.58.21.58.8h1.34C67.07,4.11,66.66,3.61,65.93,3.61Zm7.42.95a.54.54,0,0,0-.32.11,2.23,2.23,0,0,1,.46,1.39c0,1.5-1.34,2.34-2.82,2.34a4,4,0,0,1-.51,0,.79.79,0,0,0-.6.81c0,.68.64.75,1.76.87,1.49.16,2.76.6,2.76,1.79s-1,2-3.31,2c-1.81,0-3.34-.6-3.34-1.87,0-.64.4-1.33,1.75-1.74-.55-.15-1-.44-1-1s.6-1,1.18-1.1A2.22,2.22,0,0,1,67.8,6a2.58,2.58,0,0,1,2.82-2.43,3.12,3.12,0,0,1,2.16.8,1.57,1.57,0,0,1,1.06-.67,1.08,1.08,0,0,1,.72.35l-.56,1C73.81,4.73,73.58,4.56,73.35,4.56Zm-4.43,7.38a1.6,1.6,0,0,0,1.82,1.66c1,0,1.75-.46,1.75-1.59,0-1.38-1.15-1.54-2.26-1.58A1.38,1.38,0,0,0,68.92,11.94Zm3-5.87c0-1.35-.33-2.18-1.27-2.18S69.4,4.65,69.4,6s.35,2.1,1.24,2.1S71.89,7.44,71.89,6.07Zm10.27,1.1a3.47,3.47,0,0,1-3.61,3.52A3.4,3.4,0,0,1,75,7.21a3.59,3.59,0,0,1,7.18,0Zm-1.62,0c0-2-.41-3.31-2-3.31s-2,1.53-2,3.29.35,3.21,2,3.21S80.54,9,80.54,7.21Z"/></g></g></svg>