<svg xmlns="http://www.w3.org/2000/svg" viewBox="0 0 103.27 117.74"><title>Asset 558</title><g id="Layer_2" data-name="Layer 2"><g id="Layer_1-2" data-name="Layer 1"><path d="M70.6,2.88A2.15,2.15,0,1,0,72.75,5,2.14,2.14,0,0,0,70.6,2.88Zm0,3.45a1.31,1.31,0,0,1,0-2.61,1.31,1.31,0,1,1,0,2.61Z"/><path d="M83.34,83.17a2.06,2.06,0,1,0,2.06,2A2.05,2.05,0,0,0,83.34,83.17Zm0,3.27a1.22,1.22,0,1,1,1.22-1.22A1.22,1.22,0,0,1,83.34,86.44Z"/><path d="M32.67,2.88A2.15,2.15,0,1,0,34.82,5,2.14,2.14,0,0,0,32.67,2.88Zm0,3.45a1.31,1.31,0,0,1,0-2.61,1.31,1.31,0,1,1,0,2.61Z"/><path d="M19.94,83.17a2.06,2.06,0,1,0,2,2A2.05,2.05,0,0,0,19.94,83.17Zm0,3.27a1.22,1.22,0,1,1,1.21-1.22A1.21,1.21,0,0,1,19.94,86.44Z"/><path d="M57.87,97.76H53.49L52.14,93.6l-1.35,4.16H46.41L50,100.34,48.6,104.5l3.54-2.58,3.54,2.58-1.35-4.16Zm-5.73,3.13-2,1.41.75-2.28L49,98.6H51.4l.74-2.29.74,2.29h2.41L53.34,100l.75,2.28Z"/><path d="M57.52,4.16H53.14L51.79,0,50.43,4.16H46.06L49.6,6.74,48.25,10.9l3.54-2.57,3.54,2.57L54,6.74ZM51.79,7.29,49.84,8.71l.74-2.29L48.64,5H51l.75-2.29L52.53,5h2.41L53,6.42l.75,2.29Z"/><path d="M103.27,47.74H98.9l-1.35-4.16-1.36,4.16H91.82l3.54,2.57L94,54.47l3.54-2.57,3.54,2.57-1.36-4.16Zm-5.72,3.13-2,1.41L96.34,50l-2-1.41H96.8l.75-2.29.74,2.29h2.41l-2,1.41.74,2.29Z"/><path d="M97.09,71l-2.73-1L96,67.55l-2.75,1L93,65.63l-1.48,2.51-2.07-2L89.93,69,87,68.73l2.22,1.89-2.38,1.69,2.92,0-.74,2.82,2.24-1.86,1.25,2.63.53-2.86,2.65,1.21-1.44-2.53Zm-4.65.88-.25,1.37L91.59,72l-1.07.89.35-1.35h-1.4l1.14-.81-1.06-.9,1.39.11-.23-1.37,1,1,.71-1.21.13,1.39,1.31-.47-.79,1.15,1.3.49L93,71.22l.69,1.21Z"/><path d="M99.47,29.55l-2.73-1,1.66-2.4-2.75,1-.27-2.9-1.47,2.51-2.08-2,.49,2.88-2.91-.24,2.22,1.89-2.37,1.69,2.91,0-.74,2.82,2.25-1.86,1.25,2.63.52-2.86,2.65,1.21-1.44-2.53Zm-4.65.88-.25,1.37L94,30.54l-1.08.89.35-1.35H91.86L93,29.26l-1.07-.9,1.39.11-.23-1.38,1,1,.71-1.2.13,1.39,1.31-.47-.79,1.15,1.31.49-1.35.37L96.09,31Z"/><path d="M11.46,47.74H7.08L5.73,43.58,4.38,47.74H0l3.54,2.57L2.19,54.47,5.73,51.9l3.54,2.57L7.92,50.31ZM5.73,50.87l-2,1.41L4.53,50,2.58,48.58H5l.74-2.29.74,2.29H8.88L6.93,50l.75,2.29Z"/><path d="M16.4,72.31,14,70.62l2.22-1.89-2.9.24.49-2.87-2.08,2-1.47-2.51L10,68.53l-2.75-1L8.92,70,6.19,71,9,71.74,7.56,74.27l2.64-1.21.53,2.86L12,73.29l2.25,1.86-.74-2.82ZM11.68,72l-.59,1.26-.26-1.37-1.26.58.68-1.21-1.34-.37,1.31-.49-.8-1.15,1.32.47.13-1.39.7,1.21,1-1-.24,1.37,1.4-.11-1.07.9,1.14.81H12.41l.35,1.35Z"/><path d="M14,30.89,11.64,29.2l2.22-1.89-2.9.24.48-2.88-2.07,2L7.89,24.21l-.27,2.9-2.75-1,1.66,2.4-2.73,1,2.81.77L5.17,32.85l2.65-1.21.53,2.86L9.6,31.87l2.24,1.86-.74-2.82ZM9.3,30.54,8.7,31.8l-.25-1.37L7.18,31l.69-1.21-1.34-.37,1.3-.49L7,27.79l1.31.47.13-1.39.71,1.2,1-1L10,28.47l1.39-.11-1.06.9,1.14.81H10l.35,1.35Z"/><path d="M87,14.68l-3.08.54-.54,3.08-.54-3.08-3.08-.54,3.08-.54.54-3.08.54,3.08Z"/><path d="M73.93,93.11l-3.46.61-.61,3.46-.61-3.46-3.46-.61,3.46-.61L69.86,89l.61,3.46Z"/><path d="M23.55,14.68l-3.07.54-.54,3.08-.55-3.08-3.07-.54,3.07-.54.55-3.08.54,3.08Z"/><path d="M37.48,93.11,34,93.72l-.61,3.46-.62-3.46-3.45-.61,3.45-.61L33.42,89,34,92.5Z"/><path d="M51.79,33.21a4.34,4.34,0,1,0,4.33,4.34A4.35,4.35,0,0,0,51.79,33.21Zm0,7.85a3.51,3.51,0,1,1,3.51-3.51A3.51,3.51,0,0,1,51.79,41.06Zm.71-3.51a.71.71,0,1,1-.71-.71A.71.71,0,0,1,52.5,37.55Z"/><path d="M85,45.14a23.06,23.06,0,0,0-4-6.21,14.07,14.07,0,0,1,4.48,3.94L86.23,44V42.64c0-3.94-3.39-23.92-19.49-23.92a23.34,23.34,0,0,0-5.17.62c1-1.8,4.25-3,8.1-3a16.22,16.22,0,0,1,4,.5l2.19.57-1.85-1.31c-3.55-2.51-7-3.78-10.34-3.78-6.49,0-10.58,4.93-11.91,6.82a9,9,0,0,0-4.64-4.45,19.12,19.12,0,0,0-8.26-1.78c-4.11,0-7.66,1.18-9.75,3.24l-1.09,1.08,1.49-.39a16.08,16.08,0,0,1,4-.5c3.85,0,7.07,1.24,8.11,3a23.41,23.41,0,0,0-5.17-.62c-16.11,0-19.5,20-19.5,23.92V44l.76-1.13a13.94,13.94,0,0,1,4.47-3.94,23.06,23.06,0,0,0-3.95,6.21c-2,4.64-3,12,3.29,20.66l1,1.31-.22-1.61c-.3-2.33-.23-6.32,3.25-8.43a21.39,21.39,0,0,0-1.23,7.71,36.26,36.26,0,0,0,4.1,16.11l1,2-.22-2.21c0-.24,0-.48-.05-.71h0l0-.07a8.17,8.17,0,0,1,2.6-6.64c-.27,6.76,3,12.12,9.42,15.55a29.56,29.56,0,0,0,4.78,2l.09.07,0,0A30.9,30.9,0,0,0,51.6,92h.08a31.3,31.3,0,0,0,5.48-1.22l0,0,.08-.07a29.56,29.56,0,0,0,4.78-2c6.46-3.43,9.7-8.79,9.43-15.55A8.42,8.42,0,0,1,74,80.67l-.22,2.21,1-2a36.12,36.12,0,0,0,4.1-16.11,21,21,0,0,0-1.23-7.71c3.49,2.11,3.56,6.1,3.25,8.43l-.21,1.61,1-1.31C88,57.13,86.92,49.78,85,45.14Zm-66.87-5C19,33.75,23.3,19.54,36.54,19.54a23.2,23.2,0,0,1,5.75.79l.67.18-.17-.67c-.74-3-5.28-4.37-9.19-4.37a17.9,17.9,0,0,0-2.55.19,14.78,14.78,0,0,1,7.86-2c5.29,0,11.25,2.22,12.39,6.44l.26,1,.49-.87c0-.07,4.16-7.13,11.67-7.13a16,16,0,0,1,8.13,2.51,17.36,17.36,0,0,0-2.18-.14c-3.9,0-8.45,1.37-9.19,4.37l-.16.67.67-.18a23.14,23.14,0,0,1,5.75-.79c13,0,17.34,13.69,18.39,20.28-3.78-8.45-11.22-14.73-18.68-15.54a12.09,12.09,0,0,0-11.86,5.57,13.53,13.53,0,0,0-2.68-.32h-.54a13.62,13.62,0,0,0-2.69.32,12,12,0,0,0-11.8-5.56C29.35,25.11,21.82,31.55,18.09,40.18Zm47-3.28C69,42,70.21,46.13,69.39,51.33a13.29,13.29,0,0,1-2.59,5.14l-.44.63a13.44,13.44,0,0,0-2,4.77c-.15.57-.3,1.16-.51,1.81a10.55,10.55,0,0,1-2,3.23,16.77,16.77,0,0,0-1.47,2,1.62,1.62,0,0,1-.1.18h0a6.64,6.64,0,0,1-7.84-3.84c-.45-2.16-.56-3.56,1.59-4.59,1.52-.74,3.62-2,4.23-4.54.39-1.59,0-3.76-.35-5.66-.09-.5-.18-1-.24-1.39a12.32,12.32,0,0,1,.15-5.44A5.1,5.1,0,0,0,61.37,45h.25a4.25,4.25,0,0,0,4.07-3,6.08,6.08,0,0,1,.76.82l.65-.51a5.74,5.74,0,0,0-5-2.46,6,6,0,0,0-4.59,2.53c-1.14,1.83-1,4.74-.67,6.86.07.44.16.92.25,1.42.33,1.82.71,3.89.36,5.32A4.77,4.77,0,0,1,56.41,58c-1.18-1.53-3-1.59-4.67-1.59h-.21a10.07,10.07,0,0,0-2.51.22A3.76,3.76,0,0,0,46.87,58,4.79,4.79,0,0,1,45.79,56a14.85,14.85,0,0,1,.37-5.32c.09-.5.18-1,.24-1.42.33-2.12.47-5-.66-6.86a6,6,0,0,0-4.6-2.53,5.72,5.72,0,0,0-5,2.46l.65.51a6,6,0,0,1,.75-.82,4.26,4.26,0,0,0,4.07,3h.25a5.08,5.08,0,0,0,3.53-1.28,12.32,12.32,0,0,1,.16,5.44c-.07.43-.15.89-.24,1.39A15.23,15.23,0,0,0,45,56.17a7.13,7.13,0,0,0,4.24,4.54c2.14,1,2,2.43,1.58,4.59A6.64,6.64,0,0,1,43,69.14h0a1.62,1.62,0,0,0-.1-.18,16.68,16.68,0,0,0-1.46-2,10.78,10.78,0,0,1-2-3.23c-.2-.65-.36-1.24-.51-1.81a13.26,13.26,0,0,0-2-4.77l-.43-.63a13.18,13.18,0,0,1-2.6-5.14c-.81-5.2.44-9.38,4.32-14.43,3.43-4.47,9.89-6.55,13.17-6.55h.54C55.19,30.35,61.64,32.43,65.08,36.9Zm-5.39-5.26c3.05-2.66,5.82-2.12,7.3-.79,2.24,2,1.83,5.27.24,7.66-.45-.69-1-1.4-1.5-2.12A17.38,17.38,0,0,0,59.69,31.64Zm-8,30.3a3.82,3.82,0,0,0-2.06-2,9.82,9.82,0,0,1-2.12-1.36c1-1.34,2.56-1.35,4.24-1.35s3.17,0,4.12,1.35A9.9,9.9,0,0,1,53.69,60,3.8,3.8,0,0,0,51.64,61.94Zm7.57-20.12a2.4,2.4,0,0,0,4.7-.81l0-.09a4.59,4.59,0,0,1,1.13.53,3.45,3.45,0,0,1-3.41,2.68,4,4,0,0,1-3.36-1.29s0,0,0,0A4.12,4.12,0,0,1,59.21,41.82ZM41.36,43.53a2.27,2.27,0,0,0,2.71-1.71,4.32,4.32,0,0,1,1,1v0a4,4,0,0,1-3.36,1.29,3.47,3.47,0,0,1-3.42-2.68,5.26,5.26,0,0,1,1.13-.54.54.54,0,0,0,0,.1A2.27,2.27,0,0,0,41.36,43.53ZM36.2,38.27c-1.47-2.35-1.78-5.46.39-7.42,1.46-1.31,4.18-1.86,7.19.7a17.44,17.44,0,0,0-6.23,4.84C37.06,37,36.61,37.66,36.2,38.27ZM17.7,54.19a17.73,17.73,0,0,1,1.36-8.7,21.91,21.91,0,0,1,5.61-7.77l2-1.66-2.46,1a19.35,19.35,0,0,0-5.35,3.33A28.68,28.68,0,0,1,26.2,30.28,20.16,20.16,0,0,1,37,25.11a11.22,11.22,0,0,1,10.86,4.94,22.21,22.21,0,0,0-3.23,1.12A8,8,0,0,0,40,29a5.12,5.12,0,0,0-4,1.29,5.68,5.68,0,0,0-1.83,4.06A7.69,7.69,0,0,0,35.71,39q-.51.82-.93,1.62c-2.56-.74-6.07.4-8.84,2.89-4.74,4.28-6.57,11.32-5.13,19.55A21.48,21.48,0,0,1,17.7,54.19Zm9.18,2.18.78-1.14-1.27.53a7.72,7.72,0,0,0-4.89,6.45c-1.16-7.62.61-14.11,5-18.06,2.51-2.26,5.64-3.33,7.92-2.74a16.54,16.54,0,0,0-1.34,10.05,13.8,13.8,0,0,0,2.73,5.48l.11.16c-2.48.78-4.59,2.73-6.15,5.68a23.8,23.8,0,0,0-2.18,14.07C23.58,66.48,25.53,58.36,26.88,56.37ZM41.61,88.06A17.77,17.77,0,0,1,35,82.39a15.12,15.12,0,0,1-2.35-10l.06-.82-.69.43a8,8,0,0,0-3.51,5.53,22.91,22.91,0,0,1,1.95-14.42c1.06-2,2.93-4.52,5.9-5.35a12.7,12.7,0,0,1,1.72,4.27c.15.58.31,1.18.52,1.85a11.42,11.42,0,0,0,2.13,3.49,15.36,15.36,0,0,1,1.39,2,10.89,10.89,0,0,1,.77,1.78c.08.21.15.42.23.62a7.9,7.9,0,0,0-3.78,6.14,12.79,12.79,0,0,0,1.78,7,20.72,20.72,0,0,0,3.33,4.47A25.79,25.79,0,0,1,41.61,88.06Zm9.62,3.09A32,32,0,0,1,46.4,90c-4.62-3.92-6.45-8.86-6.21-12a7,7,0,0,1,3.3-5.45A4.48,4.48,0,0,0,46,74.8a20.4,20.4,0,0,0,5.23.5Zm.41-16.67A21,21,0,0,1,46.31,74c-1.72-.69-2.11-1.78-2.61-3.16-.1-.26-.19-.52-.3-.8a7.16,7.16,0,0,0,1.3.13,7.53,7.53,0,0,0,6.89-4.61l0-.08,0-.13c0,.05,0,.09,0,.13l0,.08a7.51,7.51,0,0,0,6.89,4.61,7.25,7.25,0,0,0,1.3-.13c-.11.28-.21.54-.3.8-.5,1.38-.89,2.47-2.61,3.16A21,21,0,0,1,51.64,74.48ZM56.88,90a32.3,32.3,0,0,1-4.83,1.12V75.3a20.51,20.51,0,0,0,5.23-.5,4.51,4.51,0,0,0,2.51-2.27A7,7,0,0,1,63.08,78C63.33,81.17,61.5,86.11,56.88,90Zm17.9-12.15a8.07,8.07,0,0,0-3.55-5.83l-.7-.43.07.82a15.09,15.09,0,0,1-2.35,9.94,17.69,17.69,0,0,1-6.56,5.67,27,27,0,0,1-2.89,1.31,21,21,0,0,0,3.33-4.47,12.77,12.77,0,0,0,1.77-7,7.87,7.87,0,0,0-3.78-6.14c.08-.2.16-.41.23-.62a10.89,10.89,0,0,1,.77-1.78,16.44,16.44,0,0,1,1.39-2,11.25,11.25,0,0,0,2.14-3.49c.21-.67.36-1.27.52-1.85a12.88,12.88,0,0,1,1.71-4.27c3,.85,5,3.42,6,5.46A22.49,22.49,0,0,1,74.78,77.88Zm7-15.67a7.72,7.72,0,0,0-4.88-6.45l-1.27-.53.77,1.14c1.33,2,3.24,9.81-.48,19.91a23.15,23.15,0,0,0-2.27-13.39c-1.59-3-3.75-5-6.27-5.79l.11-.16a13.77,13.77,0,0,0,2.72-5.48,16.39,16.39,0,0,0-1.34-10.05c2.28-.59,5.41.48,7.92,2.74C81.17,48.1,82.93,54.59,81.77,62.21Zm.69.88c1.44-8.23-.38-15.27-5.13-19.55-2.76-2.49-6.28-3.63-8.84-2.89-.23-.46-.5-.92-.78-1.39,2.57-3.51,1.88-7.17-.17-9a5.18,5.18,0,0,0-4-1.29,8.13,8.13,0,0,0-4.68,2.31,23.19,23.19,0,0,0-3.43-1.21,11.3,11.3,0,0,1,10.91-5,20.25,20.25,0,0,1,10.79,5.17,28.73,28.73,0,0,1,7.39,10.25A19.32,19.32,0,0,0,79,37l-2.46-1,2,1.66a22.09,22.09,0,0,1,5.6,7.77,17.73,17.73,0,0,1,1.36,8.7A21.34,21.34,0,0,1,82.46,63.09ZM52.31,54.73a.61.61,0,1,1-1.21,0,.61.61,0,1,1,1.21,0Zm-.64-9.23a1.33,1.33,0,1,1-1.33,1.33A1.32,1.32,0,0,1,51.67,45.5Zm1,5.71a1,1,0,1,1-1-1A1,1,0,0,1,52.72,51.21ZM39.93,53a1,1,0,1,1-1,1A1,1,0,0,1,39.93,53Zm1.54,1.69a1,1,0,1,1-1,1A1,1,0,0,1,41.47,54.71Zm-3-3.42a.9.9,0,1,1-.89.9A.9.9,0,0,1,38.49,51.29Zm-2.25-3.71a.6.6,0,0,1,.6.6.6.6,0,0,1-1.2,0A.6.6,0,0,1,36.24,47.58Zm6.46,9.11a1,1,0,1,1-1,1A1,1,0,0,1,42.7,56.69ZM35.6,46.32a.35.35,0,0,1-.35-.35.34.34,0,0,1,.35-.35A.35.35,0,0,1,36,46,.35.35,0,0,1,35.6,46.32Zm7.92,12.59a.89.89,0,1,1-.89.89A.89.89,0,0,1,43.52,58.91Zm-6.28-9.43a.77.77,0,0,1,.78.77.78.78,0,0,1-.78.78.77.77,0,0,1-.77-.78A.76.76,0,0,1,37.24,49.48Zm7.4,17.17a.31.31,0,1,1-.31-.31A.31.31,0,0,1,44.64,66.65Zm.19-2.3a.58.58,0,0,1-1.16,0,.58.58,0,1,1,1.16,0ZM44,61.29a.77.77,0,0,1,0,1.53.77.77,0,1,1,0-1.53Zm22.8-11a.78.78,0,1,1-1.55,0,.78.78,0,0,1,1.55,0ZM64.3,54a1,1,0,1,1-1-1A1,1,0,0,1,64.3,54Zm1.38-1.8a.9.9,0,1,1-.9-.9A.89.89,0,0,1,65.68,52.19Zm1.95-4a.58.58,0,0,1-.59.59.59.59,0,0,1-.6-.59.6.6,0,0,1,.6-.6A.59.59,0,0,1,67.63,48.18ZM62.79,55.7a1,1,0,0,1-2,0,1,1,0,0,1,2,0ZM67.33,46a.35.35,0,1,1,.7,0,.35.35,0,1,1-.7,0ZM61.54,57.65a1,1,0,1,1-1-1A1,1,0,0,1,61.54,57.65Zm-2.28,9a.32.32,0,1,1-.31-.31A.31.31,0,0,1,59.26,66.65Zm.77-4.6a.77.77,0,1,1-.76-.76A.76.76,0,0,1,60,62.05Zm-.43,2.3a.58.58,0,0,1-1.15,0,.58.58,0,1,1,1.15,0Zm1-4.55a.9.9,0,1,1-.89-.89A.89.89,0,0,1,60.65,59.8Z"/><path d="M42.43,116.83H46.1v.71H41.63v-7.86h.8Zm5.66-3H51.9v-.71H48.09v-2.7h4.08v-.71H47.29v7.86h5v-.71H48.09Zm13.55-.19a4.22,4.22,0,0,1-.31,1.65,3.78,3.78,0,0,1-.86,1.31,3.88,3.88,0,0,1-1.3.86,4.41,4.41,0,0,1-3.25,0,4,4,0,0,1-1.3-.86,3.93,3.93,0,0,1-.86-1.31,4.22,4.22,0,0,1-.31-1.65,4.3,4.3,0,0,1,.31-1.66,3.9,3.9,0,0,1,2.16-2.16,4.41,4.41,0,0,1,3.25,0,3.88,3.88,0,0,1,1.3.86,3.83,3.83,0,0,1,.86,1.3A4.3,4.3,0,0,1,61.64,113.61Zm-.84,0a3.79,3.79,0,0,0-.22-1.31,3.21,3.21,0,0,0-.65-1.1,3,3,0,0,0-1-.74,3.18,3.18,0,0,0-1.36-.28,3.12,3.12,0,0,0-1.36.28,3,3,0,0,0-1,.74,3.37,3.37,0,0,0-.65,1.1,4,4,0,0,0,0,2.61,3.23,3.23,0,0,0,.65,1.09,3,3,0,0,0,1,.74,3.12,3.12,0,0,0,1.36.28,3.18,3.18,0,0,0,1.36-.28,3.14,3.14,0,0,0,1.67-1.83A3.78,3.78,0,0,0,60.8,113.62Z"/></g></g></svg>