<svg xmlns="http://www.w3.org/2000/svg" viewBox="0 0 72.37 80.13"><defs><style>.cls-1,.cls-2{fill-rule:evenodd;}.cls-2{fill:#c6262f;}.cls-3{fill:#fff;}</style></defs><title>Asset 466</title><g id="Layer_2" data-name="Layer 2"><g id="Layer_1-2" data-name="Layer 1"><path d="M20.32,23.26a7.44,7.44,0,0,0-1.2-4.69,6.3,6.3,0,0,1,2.49,4.23C21.89,24.58,20.32,24.58,20.32,23.26Zm3-1.06a4.74,4.74,0,0,0-2.21-2.72,5.39,5.39,0,0,1,1.09,3C22.39,23.46,23.51,23.27,23.29,22.2Zm-5.74-6.59c.66,1,1.84,0,.92-.93a4.6,4.6,0,0,0-3.76-1A3.86,3.86,0,0,1,17.55,15.61Zm.71,7.91c-.21,1.39,1.45,1.65,1.44-.28a6.81,6.81,0,0,0-1.94-4.88A7.92,7.92,0,0,1,18.26,23.52Zm23.53,14c-.33-1.15-1.63-.8-1.34.27A5.09,5.09,0,0,1,40,42.29C41.44,40.94,42.13,38.71,41.79,37.51ZM47,19.2c-.34-.86-1.44-.47-1.15.44a2.51,2.51,0,0,1-1.12,3.28C47.12,22.07,47.37,20.08,47,19.2Zm-.85,18.35c-1.35-.06-3.51,1.22-4.56,3.06A5.51,5.51,0,0,1,46.2,39C47.4,39.05,47.44,37.6,46.16,37.55ZM38.51,5.61c-.26.46.34.85.77.21.55-.81,1.26-.9,2.22-1.08C40,4.62,38.8,5.1,38.51,5.61Zm6.64-.27c-1.83-1-4.23-.54-4.67.23s.51,1.23,1,.49C41.81,5.57,43.06,4.68,45.15,5.34Zm2.09,29.52c-1.34,0-3.12,1.69-3.68,3.17a4.86,4.86,0,0,1,3.62-1.86C48.39,36.06,48.27,34.86,47.24,34.86Zm-1.8.29a3.32,3.32,0,0,1,2.79-2.3c1.08,0,.9-1.67-.43-1.31S45.65,33.68,45.44,35.15ZM49.2,7.82C47,5.05,44,5.27,43.2,6.07s.17,1.7,1.06,1C44.85,6.56,47,5.71,49.2,7.82ZM60.64,21.19A3.36,3.36,0,0,1,56.3,22.9a3.59,3.59,0,0,0-2.23-2.45,2.84,2.84,0,0,0-3.31,1.09,2.35,2.35,0,0,0,1,3.43c1.17.47,2.62-.29,2.15-1.79a1.21,1.21,0,0,1-1.31,1.19,1.46,1.46,0,0,1-.85-2.29A1.88,1.88,0,0,1,54.71,22c1.6,1.63.81,4.18-1.64,5.09a8.84,8.84,0,0,1-4.3.23c3.06,4.33,2.43,10.82-.73,15.5-2.75,4.1-6.5,5.92-9.37,8.56A13.44,13.44,0,0,0,34.4,61.71H26c-2.44-2.18-.37-6.41,4.82-3.6,3.09-6.29,4.55-16-.19-22-3.28-4.13-9.35-5-13.09-.84-1.45,1.63-2.85,4.32-1.32,5.71a1.85,1.85,0,0,0,2.66-.2c.89-1.19,0-2.48-1.1-3.13,5.44.42,4.36,10.48-2.2,10.06,1.05,1.71,5.74,1.61,5.36-2.13,2.76,3.1.44,6.81-3.35,6.63.46,2.68,4.5,2.31,4.63-.45A3.3,3.3,0,0,1,19.51,57c2.38,2.19.54,4.62-.76,4.74H11.39c-2.38-1.57-.68-6.18,4-3.72A88.65,88.65,0,0,1,8,45.83a8.31,8.31,0,0,0-3.3-1.38c-1-.17-1.37.2-1.15,1.28A22.81,22.81,0,0,0,4.85,49.2c2.31-.08,3.53,1.15,3.73,2.54.46,3-2.1,4.93-4.36,2.82C1.54,52.05-.35,45.81.05,42.43c.19-1.52.77-2.25,2.1-2.23A9.75,9.75,0,0,1,6,41.36,56,56,0,0,1,2,26c-.64-6.17-.59-13.37,5.63-16.79C9.81,8,11.51,6.6,11.35,2.85a5.64,5.64,0,0,1,2.24,3.51,5.65,5.65,0,0,1,3.9-2.21C15.31,6,18.83,9.36,16.15,11.21c5.74.53,2.63,4.78,5.55,4.84a22.72,22.72,0,0,1,4.51.13c1.63.34,2.33,1.46,1.47,2.92-.61,1-1.72,1.52-2.53,2.34s-.66,1.28-1,2.28c-.9,3.11-9.82,2.83-12.53,1.81,17.79,9.93,17.08-2.28,28.92-3.35C46.88,19.25,47.32,10.5,42,7.93c-4.69-2.27-9.56.8-10.25,6C29.35,6.13,37.78.41,44.05.48a2.76,2.76,0,0,0-.66,2.16A1.83,1.83,0,0,0,45.62,4.1a1.61,1.61,0,0,0,1-2,.94.94,0,0,0-1.82.18.69.69,0,0,1,1.25,0,1,1,0,0,1-.84,1.4A1.21,1.21,0,0,1,44,2.4,2.3,2.3,0,0,1,46,.1,4.49,4.49,0,0,1,49.77,1a3.67,3.67,0,0,0-1.35,1,2.29,2.29,0,0,0,.82,3.51,2,2,0,0,0,2.55-1.18A1.18,1.18,0,0,0,49.86,3,.86.86,0,0,1,51.13,4a1.29,1.29,0,0,1-1.93.71c-1-.64-.64-2.13.16-2.77,1.48-1.19,4.64-.66,5,1.76a3.22,3.22,0,0,0-2.56,1.67,2.65,2.65,0,0,0,.54,3.11,2.23,2.23,0,0,0,3.13-.16A1.45,1.45,0,0,0,54.1,6a1.05,1.05,0,0,1,.72,1.8,1.52,1.52,0,0,1-2.25-.19,2.07,2.07,0,0,1,.56-2.92,4.17,4.17,0,0,1,4-.13,5.3,5.3,0,0,1,2.77,4.27,6.07,6.07,0,0,0-3.15.07A3.45,3.45,0,0,0,55,14a3,3,0,0,0,4.19.54,1.77,1.77,0,0,0-1.46-3.12,1.28,1.28,0,0,1,.87,2.19,1.92,1.92,0,0,1-3-.63A2.31,2.31,0,0,1,57,9.77a3.91,3.91,0,0,1,4,.73,4.38,4.38,0,0,1-.36,6.19,3.62,3.62,0,0,0-5.11,0,3,3,0,0,0-.71,2.81A2.58,2.58,0,0,0,58.57,21,1.64,1.64,0,0,0,58,18.11a1.2,1.2,0,0,1,.32,1.74A1.46,1.46,0,0,1,56,19.36a1.88,1.88,0,0,1,1.44-2.56C60.16,16.18,61.63,19,60.64,21.19ZM6.89,53.92a2.43,2.43,0,0,0-.58-3.11c.69.87.14,1.57-.37,2.52S6.4,54.6,6.89,53.92ZM13,27.12a5.38,5.38,0,0,1,1,3c.2,1,1.31.81,1.11-.25A4.61,4.61,0,0,0,13,27.12Zm.25,14.7c-.2.76.65,1,.87.2a3.64,3.64,0,0,0-.58-2.64A4.1,4.1,0,0,1,13.22,41.82Zm1.26-3.75a3.64,3.64,0,0,0-1.16-2.44,4.22,4.22,0,0,1,.27,2.44C13.56,38.85,14.44,38.92,14.48,38.07Zm.38-4a4.36,4.36,0,0,0-1.17-3A5.13,5.13,0,0,1,13.8,34C13.7,34.9,14.75,35.05,14.86,34Zm-3.28,4.37c-.12.88.87,1.06,1,.11a4.12,4.12,0,0,0-1-2.9A4.73,4.73,0,0,1,11.58,38.41Zm-.37-4.28c-.21.92.81,1.19,1,.21a4.33,4.33,0,0,0-.78-3.15A5,5,0,0,1,11.21,34.13Zm2-3.75a4.44,4.44,0,0,0-1.62-2.86,5,5,0,0,1,.54,2.93C12.14,31.4,13.2,31.4,13.17,30.38Zm-3-5.14.25,1.35a12.89,12.89,0,0,0,1.8.33ZM14,19.88a5.45,5.45,0,0,0-2.62,2.45,1,1,0,0,1,.15.24,8.56,8.56,0,0,1,3-1.34C15.68,20.79,15.24,19.42,14,19.88Zm.22,1.66a6,6,0,0,1-2.61,1.19l0,.12a4.51,4.51,0,0,0,3.12-.3C15.66,22,15.05,21,14.17,21.54Zm-2.26-2.8a8,8,0,0,1-1,3.11l.1.08a5.15,5.15,0,0,0,2-2.79C13.3,17.9,12.19,17.59,11.91,18.74Zm-1.24-1.25a6,6,0,0,0-.09,4.16l.15.09c0-1.53.76-2.46,1.33-3.61S11.32,16.19,10.67,17.49Zm-1.13,5a1.27,1.27,0,0,0-1.28,1.09,18,18,0,0,0,2.32.91,1.23,1.23,0,0,0,.25-.75A1.27,1.27,0,0,0,9.54,22.52Zm0-1.16a5,5,0,0,0-.89-3.09c-.78-1-1.72-.34-1,.6a9.17,9.17,0,0,1,1.68,2.49h.22Zm-2.28-3c-.57-1.23-2-.65-1.37.67A5.64,5.64,0,0,0,8.6,21.51,2.59,2.59,0,0,1,9,21.4,9.06,9.06,0,0,1,7.3,18.37ZM5.42,22.52,5.2,24a15.2,15.2,0,0,0,1.71,1.17,14.9,14.9,0,0,0,1.55.77L7,23.62,6.89,25.1ZM8.6,30a5,5,0,0,0-.93-3.61,5.8,5.8,0,0,1-.27,3.37C7.17,30.83,8.34,31.14,8.6,30Zm1.64-3.46-1.75-2,0,1.46A13.64,13.64,0,0,0,10.24,26.55Zm5.24-2.28a6.72,6.72,0,0,0-5.22.61,7.92,7.92,0,0,1,5.11.84C16.67,26.29,17.35,24.75,15.48,24.27ZM12.9,11a13.42,13.42,0,0,0,2.5.19c-1.71-.67-1.86-3.78.57-6.13a4,4,0,0,0-2.26,2.46C13.94,9,13.68,10.5,12.9,11ZM3.42,19.2c.15-.5.7-.85,1.66-.64a1.88,1.88,0,0,1,3.1-2.14,1.31,1.31,0,0,1,2.58-.4,2.08,2.08,0,0,1,4,.78c1-.51,2,.22,1.54,1.68,1.51.15,2.18,2.09.92,3.47a1.5,1.5,0,0,1-.28,2.63,1.2,1.2,0,0,1,.42.91c3.74,0,5.48-.92,6.27-2.36.4-.75.42-1.45,1.12-2a14.43,14.43,0,0,0,2-1.6c.71-.88-1.17-1.8-.47-2.56-1.16-.55-3.12-.36-4.52-.23-2,.18-2.22-.25-2.49-1.79-.75-4.23-4.62-2.75-7.35-3.39-1.74-.4-1.85-2-1-3.24s2.16-2.53.93-4A5,5,0,0,1,9,9.26C6.1,10.54,3.13,13.61,3.42,19.2Zm.64,2.1-.22,1.41A11,11,0,0,0,5.15,24Zm-1.4.13a13.63,13.63,0,0,0,1.15,1.25L2.72,19.91Zm1.83,7.32a5,5,0,0,0-.77-3.65,5.8,5.8,0,0,1-.42,3.36C3,29.51,4.17,29.87,4.49,28.75Zm.25,1.53a5,5,0,0,1-.6,2.89c-.31.88.66,1.28,1,.33A4.32,4.32,0,0,0,4.74,30.28Zm1.94-.85a5,5,0,0,0-.93-3.61,5.72,5.72,0,0,1-.27,3.37C5.25,30.25,6.42,30.56,6.68,29.43Zm-.06,8.81A3.63,3.63,0,0,0,6,35.61a4.2,4.2,0,0,1-.22,2.44C5.57,38.82,6.42,39.06,6.62,38.24ZM2.13,44.05a3.62,3.62,0,0,0-.24-2.7,4.14,4.14,0,0,1-.59,2.38C1,44.46,1.8,44.83,2.13,44.05Zm.22,1.36a4.16,4.16,0,0,1-.59,2.38c-.3.73.51,1.09.83.31A3.6,3.6,0,0,0,2.35,45.41Zm.76,5.66c-.28.73.53,1.08.84.29a3.65,3.65,0,0,0-.29-2.69A4.21,4.21,0,0,1,3.11,51.07ZM6.7,43.3a3,3,0,0,0-2.83-1.43c-.82.16-.69,1,.09.92A3.51,3.51,0,0,1,6.7,43.3Zm.49-9.25a4.37,4.37,0,0,0-.42-3.22,5,5,0,0,1-.59,2.88C5.86,34.6,6.84,35,7.19,34.05Zm.19,5.79a3,3,0,0,1-.21,1.79c-.15.56.47.74.63.15A2.62,2.62,0,0,0,7.38,39.84Zm.42-4a4.14,4.14,0,0,1-.22,2.45c-.17.77.68,1,.87.18A3.63,3.63,0,0,0,7.8,35.83Zm1.78-1.54a4.35,4.35,0,0,0-.78-3.14,5.08,5.08,0,0,1-.26,2.93C8.32,35,9.34,35.28,9.58,34.29Zm-.11,4.14c-.2.88.77,1.14,1,.21a4.07,4.07,0,0,0-.74-3A4.71,4.71,0,0,1,9.47,38.43Zm-.14,1.29A4.09,4.09,0,0,1,9,42.16c-.2.76.64,1,.87.21A3.67,3.67,0,0,0,9.33,39.72Zm1,3.49A4.25,4.25,0,0,1,10,45.65c-.2.77.64,1,.86.21A3.62,3.62,0,0,0,10.33,43.21ZM11,30.65a5,5,0,0,0-1.32-3.49,5.77,5.77,0,0,1,.1,3.38C9.69,31.62,10.89,31.8,11,30.65ZM12,42.47a3.67,3.67,0,0,0-.57-2.65,4.25,4.25,0,0,1-.29,2.44C10.89,43,11.73,43.28,12,42.47Zm.24,6.81a3.64,3.64,0,0,0-.85-2.57,4.15,4.15,0,0,1,0,2.45C11.19,49.94,12.06,50.11,12.19,49.28Zm1-4.06a3.59,3.59,0,0,0-.57-2.64A4.26,4.26,0,0,1,12.34,45C12.14,45.78,13,46,13.2,45.22Zm1.1,7A3.58,3.58,0,0,0,12.85,50a4.22,4.22,0,0,1,.57,2.39C13.5,53.14,14.38,53.09,14.3,52.25Zm.34-3.59a3.65,3.65,0,0,0-1-2.52,4.15,4.15,0,0,1,.11,2.45C13.68,49.38,14.55,49.5,14.64,48.66Zm3.42,10.77a3.43,3.43,0,0,0-1.37-2.13,3.82,3.82,0,0,1,.54,2.23C17.3,60.26,18.13,60.21,18.06,59.43Zm.34-2.15a3.87,3.87,0,0,1,.29,2.28c0,.73.81.77.83,0A3.37,3.37,0,0,0,18.4,57.28Zm-1.75-3.51a4.22,4.22,0,0,1,.57,2.39c.08.79,1,.73.88-.11A3.61,3.61,0,0,0,16.65,53.77Zm-.22,2.07A3.58,3.58,0,0,0,15,53.56,4.22,4.22,0,0,1,15.55,56C15.63,56.73,16.51,56.68,16.43,55.84ZM14.81,49.5a4.13,4.13,0,0,1,.58,2.39c.07.78.95.73.88-.11A3.64,3.64,0,0,0,14.81,49.5Zm2.73-16.16a4.31,4.31,0,0,0-1.85-2.66,5,5,0,0,1,.8,2.83C16.62,34.44,17.67,34.34,17.54,33.34Zm1.56-2.46a4.43,4.43,0,0,0-2.81-1.41,4.94,4.94,0,0,1,1.91,2.24C18.71,32.5,19.77,31.81,19.1,30.88Zm3.68-.35A3.14,3.14,0,0,0,20,30.38c1,0,1.54.66,2.28,1.14S23.62,31.13,22.78,30.53Zm20.8-2.81a5.08,5.08,0,0,1-1.92,2,4.51,4.51,0,0,0,2.55-2.12,3.16,3.16,0,0,0-.35-3.36A4,4,0,0,0,40.72,23a4.21,4.21,0,0,1,2.36,1.14A3.19,3.19,0,0,1,43.58,27.72Zm-6.5-2.46c1.94-1,4.32-.55,4.39.75a2.17,2.17,0,0,0-2.36-.3A1.58,1.58,0,0,1,41.05,27a2.09,2.09,0,0,0-2.85-.2,2.74,2.74,0,0,1,2.51.74c-.57.87-1.68.78-3.6-.22,1.15,1.35,3.55,2.3,5.08,1a2.44,2.44,0,0,0-1-4.23A4.54,4.54,0,0,0,37.08,25.26ZM36,30.14a3.73,3.73,0,0,1,3.13,3.29,2.92,2.92,0,0,0-2-1.39,3.59,3.59,0,0,1,1.3,2.09,4.29,4.29,0,0,0-2.1-1.23,2.77,2.77,0,0,0,1.24,1.61,2.58,2.58,0,0,1-2.74-1c.46,1.94,1.69,2.58,2.84,2.53,2.11-.1,2.91-2,2.15-3.84A3.49,3.49,0,0,0,36,30.14Zm-1.55-1.25c.13.84-.76,2.43-3.93,2.51a5.08,5.08,0,0,0,4.82-1.47c.92-1.23.3-3-1.46-2.76a3.21,3.21,0,0,0-2.82,2.68A3.28,3.28,0,0,1,33.22,28c.83-.17,1.35.29.55,1.11a5.11,5.11,0,0,1-1,.76A1.51,1.51,0,0,0,34.47,28.89Zm-5.73,3.34c1.19-.36,1.2-1.51.34-1.87a2.72,2.72,0,0,0-2.1.33c.68-.2,1.29,0,1.44.33a1,1,0,0,0-.87.22c1,.48.34,1.4-2,.21A3.38,3.38,0,0,0,28.74,32.23Zm3.41,2.58c1.31-.15,1.64-1.47.86-2.08a2.49,2.49,0,0,0-2.22-.11c.75-.08,1.32.26,1.37.71a1,1,0,0,0-.95.06c.9.79,0,1.68-2.12-.25A3.23,3.23,0,0,0,32.15,34.81Zm4.1,3.85c.25-.8,0-1.9-1.15-3.17.69,1.27.53,2.39-.32,2.93a2,2,0,0,0-.87-2.06c.42,1,.07,2-.65,1.45s-.77-1.92-.7-2.74c-.48,2.21-.12,3.56.53,4.25A1.87,1.87,0,0,0,36.25,38.66Zm11.68-8.1a6.63,6.63,0,0,0-4.88-7.47c3.33,1.19,2.67,7.23-2.23,7.37,2.16,3.48.5,5.75-1.94,7.67-2.18,1.71-4.19,3.43-4.61,6.37A27.22,27.22,0,0,1,33.58,52c-.37,2,1.15,2.59,2.43,1,2.87-3.49,7.23-5.29,5.3-7.7,2.13,1,3.9-1.27,2.56-2.77a1.38,1.38,0,0,0,1.29-2.43c3.22.45,3.41-2.91,1.9-3.11,2.11-.18,2.13-2.45.84-2.63C50.08,32.91,49.46,30.27,47.93,30.56Zm-4.17-26A10.84,10.84,0,0,0,34,8.05,9,9,0,0,1,42,7.15c6.21,2.34,6.58,11.83-.25,15.22a12,12,0,0,1,3.51,1.13,11.2,11.2,0,0,0,6.54-7.3C53.42,10.34,49.55,5.36,43.76,4.59Zm2,3.18c-1.27.51-.7,2.13.64,1.71.87-.28,3.49-1.1,5,2.27C50.37,7.81,47.09,7.25,45.78,7.77ZM49,13.19c-1.17-.7-2.13.73-1,1.54a3.72,3.72,0,0,1,1.59,4.87C51.62,16.49,50.15,13.91,49,13.19Zm-1.12-3c-1.37,0-1.47,1.69-.07,1.82.92.08,3.65.33,3.76,4C52.05,12,49.24,10.22,47.83,10.2Zm-.77,7a3.73,3.73,0,0,1-.5,5.1c3.13-2,2.82-5,2-6.12S46.33,16,47.06,17.19ZM6.39,15a5.74,5.74,0,0,1,3.23-.8c1.07-.11,1-1.3-.15-1.19A4.93,4.93,0,0,0,6.39,15ZM44.77,30.4a2.47,2.47,0,0,1,1,3c.92-1.29.8-3.53-.22-4.13S43.94,29.78,44.77,30.4Zm-.66,5.79c1.14-.77,1.79-3.08,1.06-4S43.35,32,44,33A2.74,2.74,0,0,1,44.11,36.19ZM8.35,12.57c1.36-1.09.21-2.66-1.26-1.51S4.75,14.65,4.6,16.51C5.46,14.39,6.94,13.69,8.35,12.57ZM46.73,31.33c.82-1.59.68-4.16-.21-4.84s-1.6.44-.76,1.19A3.73,3.73,0,0,1,46.73,31.33ZM42.19,39a4,4,0,0,0,1.35-4.23c-.43-1.07-1.73-.68-1.34.62C42.48,36.3,43.21,37.47,42.19,39Zm.08,3.69A7,7,0,0,0,38,46.72a7.3,7.3,0,0,1,4.61-2.58C43.93,43.87,43.69,42.37,42.27,42.65ZM39.14,46.4a13.4,13.4,0,0,0-3.68,6.34,14,14,0,0,1,4.83-5.17C41.73,46.62,40.89,44.82,39.14,46.4Zm-.7-1.34c.89-1.14,1.72-3.75,1.36-5.06s-1.63-.85-1.33.32A8.1,8.1,0,0,1,38.44,45.06Zm5.19-4.67a6.48,6.48,0,0,0-4.3,3.46,6.06,6.06,0,0,1,4.47-2.1C45,41.62,44.92,40.27,43.63,40.39ZM36.46,46c-.53-1.5-2.2-.88-1.72.53a10.84,10.84,0,0,1,.19,6C35.77,51.35,37,47.55,36.46,46Zm.34,2.18c.9-1.34,1.64-4.31,1.14-5.74s-1.89-.83-1.46.45A9.07,9.07,0,0,1,36.8,48.15Z"/><path class="cls-1" d="M57.14,52.88a21.82,21.82,0,0,1-.55,14c-.52,1.1-1,1.52-1.79.43-.88-1.25-1.47-2.77-2.86-3.58,1.65-.24,3.16,2.34,3.72.92a37.1,37.1,0,0,0,.78-6,20.63,20.63,0,0,1-6.12,4.23,24.68,24.68,0,0,0,6.09-6.89,16.61,16.61,0,0,0-.33-2.39,10.62,10.62,0,0,1-5,1.89,18.7,18.7,0,0,0,4.66-3.09A7.47,7.47,0,0,0,52.48,48,6.24,6.24,0,0,1,56.6,51.6c1.31-1.42,2.15-3,1.77-4.28-.23-.78,0-1,.4-.69a4.49,4.49,0,0,1,1.63,1.92,1.47,1.47,0,0,1-.32,1.21A15.5,15.5,0,0,1,57.14,52.88Zm15.22,1.46c-.13-.91-2.31-2.18-3.16-1.91a26.94,26.94,0,0,1-5.89,1.15A15.31,15.31,0,0,0,66,48.71a1.44,1.44,0,0,0,0-1.25,4.52,4.52,0,0,0-2.12-1.37c-.47-.15-.63.1-.18.78,1.64,2.54-2,7.77-4.57,10A10.45,10.45,0,0,0,62.93,54c2,.48,4,0,5.82-.31.73-.11.81,1,.84,1.66a39.66,39.66,0,0,1-1,10.34c-.6,1.52-2.23-1.26-4-1,1.49.87,2.13,2.5,3.08,3.84.82,1.18,1.36.73,1.92-.45,1.25-2.65,2-7.82,1.3-12.31C71.68,55.63,72.46,55,72.36,54.34ZM61.21,62c0,.12,0,.25,0,.36-.09.68-.59,1.47-.76.12s-.26-3.58-1-4.42c-.24-.28-.71-.63,0-.71a2.67,2.67,0,0,1,.88.06,1,1,0,0,1,.57.4c1.1-.25,2.34-.76,3.37-1.09.75-.24,2.15.82,2.27,1.63.08.56-.58,1.26-1.29,1.41a4.66,4.66,0,0,1-.48,1.54h.16c.71,0,1,.66.45.71C64.08,62.1,62.47,62,61.21,62Zm0-.59c.89,0,1.72-.06,2.56-.09a5.87,5.87,0,0,0,.35-2.08c0-.52-.06-1.1-.59-1-.77.12-1.6.27-2.45.37A18.9,18.9,0,0,1,61.22,61.41Z"/><path class="cls-2" d="M11.54,67.39H48.8a6.39,6.39,0,0,1,6.38,6.37h0a6.4,6.4,0,0,1-6.38,6.37H11.54a6.39,6.39,0,0,1-6.37-6.37h0a6.39,6.39,0,0,1,6.37-6.37Z"/><path class="cls-3" d="M26.07,75.44v-.1a3.76,3.76,0,0,1-.4.4,1.88,1.88,0,0,1-.44.24,2.09,2.09,0,0,1-.52.09,1.58,1.58,0,0,1-.69-.14,1.62,1.62,0,0,1-.57-.44,2.33,2.33,0,0,1-.37-.68,3.22,3.22,0,0,1-.14-.85,2.2,2.2,0,0,1,.44-1.53,1.58,1.58,0,0,1,1.24-.58,1.76,1.76,0,0,1,.76.13,2.08,2.08,0,0,1,.61.46l0-1.53a.82.82,0,0,1,.12-.49.42.42,0,0,1,.36-.17.41.41,0,0,1,.36.14.63.63,0,0,1,.14.44l.12,4.58a.61.61,0,0,1-.12.45.46.46,0,0,1-.35.16.49.49,0,0,1-.36-.15.67.67,0,0,1-.15-.43ZM24,74a1.52,1.52,0,0,0,.15.71,1,1,0,0,0,.37.44.88.88,0,0,0,.5.14,1,1,0,0,0,.5-.16,1,1,0,0,0,.35-.45,1.81,1.81,0,0,0,.11-.74,1.58,1.58,0,0,0-.15-.71,1,1,0,0,0-.38-.44.83.83,0,0,0-.51-.15.8.8,0,0,0-.5.18,1,1,0,0,0-.34.47A1.75,1.75,0,0,0,24,74Zm8-.21a2.39,2.39,0,0,1-.12.86,2.05,2.05,0,0,1-.4.69,2,2,0,0,1-.65.45,2.47,2.47,0,0,1-.85.17,2.11,2.11,0,0,1-.85-.13,1.73,1.73,0,0,1-.67-.42,1.76,1.76,0,0,1-.43-.66,2.52,2.52,0,0,1-.17-.85,2.48,2.48,0,0,1,.12-.87,2,2,0,0,1,.4-.68,1.79,1.79,0,0,1,.64-.44,2.34,2.34,0,0,1,.85-.18,2.39,2.39,0,0,1,.86.13,2,2,0,0,1,.67.42,1.76,1.76,0,0,1,.43.66,2.34,2.34,0,0,1,.17.85Zm-1,0a1.57,1.57,0,0,0-.31-1,.91.91,0,0,0-.76-.34,1,1,0,0,0-.53.18,1,1,0,0,0-.35.47,1.82,1.82,0,0,0-.1.72,1.7,1.7,0,0,0,.14.71,1.06,1.06,0,0,0,.36.46,1,1,0,0,0,.55.15.91.91,0,0,0,.74-.38,1.55,1.55,0,0,0,.26-1Zm5.65-1.5.08,3a3,3,0,0,1-.09.89,1.48,1.48,0,0,1-.34.63,1.52,1.52,0,0,1-.63.38,3.63,3.63,0,0,1-1,.14,3,3,0,0,1-1-.12,1.74,1.74,0,0,1-.66-.38.66.66,0,0,1-.24-.48.41.41,0,0,1,.12-.31.46.46,0,0,1,.31-.13.51.51,0,0,1,.4.19l.18.2a.91.91,0,0,0,.21.18.88.88,0,0,0,.26.1,1.83,1.83,0,0,0,.35,0,1.4,1.4,0,0,0,.62-.13.68.68,0,0,0,.31-.32,1.12,1.12,0,0,0,.09-.44c0-.15,0-.4,0-.74a1.69,1.69,0,0,1-.55.52,1.43,1.43,0,0,1-.74.2,1.59,1.59,0,0,1-.92-.24,1.78,1.78,0,0,1-.62-.73,2.9,2.9,0,0,1-.13-2,1.69,1.69,0,0,1,.35-.65,1.61,1.61,0,0,1,.53-.41,1.64,1.64,0,0,1,.67-.14,1.66,1.66,0,0,1,.77.14,1.85,1.85,0,0,1,.62.52v-.14a.56.56,0,0,1,.12-.42.43.43,0,0,1,.34-.16.4.4,0,0,1,.4.18,1.35,1.35,0,0,1,.12.57Zm-3,1.4a1.41,1.41,0,0,0,.3.94.89.89,0,0,0,.72.31,1,1,0,0,0,.49-.15,1,1,0,0,0,.36-.43,1.47,1.47,0,0,0,.13-.69,1.51,1.51,0,0,0-.31-1,.88.88,0,0,0-.74-.33.84.84,0,0,0-.71.36,1.52,1.52,0,0,0-.24,1Z"/></g></g></svg>