<svg xmlns="http://www.w3.org/2000/svg" viewBox="0 0 34.97 56.67"><defs><style>.cls-1{stroke:#fff;stroke-width:0.25px;}.cls-2{fill:#1a171b;}</style></defs><title>Asset 420</title><g id="Layer_2" data-name="Layer 2"><g id="Layer_1-2" data-name="Layer 1"><path class="cls-1" d="M.19,6.05s-.9-4.31,4-5.92c0,0,.71.06,0,.58,0,0-2.77,1.73-1.74,3.92A3.87,3.87,0,0,0,3.73,8S1.06,10.07.19,6.05ZM3.44,3C1.9,6.69,4.76,8.17,4.76,8.17a8,8,0,0,0,.57-2.12,4.37,4.37,0,0,1,.49-1.71A3.73,3.73,0,0,1,8.27,2.25,3.11,3.11,0,0,0,3.44,3ZM7.11,13.45a4.78,4.78,0,0,0,4.76-3.28S10.2,9,11.33,5.5a3.5,3.5,0,0,1-.94-3.6s-4,.42-4.63,3.76c0,0-.29,3.86-2.45,5.28a1.45,1.45,0,0,1,0,2s-1,.55-1.22.19a1.43,1.43,0,0,0,2,1.1A4.62,4.62,0,0,1,7.11,13.45ZM3.47,11.94a1,1,0,1,0-1,1A1,1,0,0,0,3.47,11.94ZM15.19,1.58a3.24,3.24,0,0,0-4.25.32S10.36,4,11.68,5C11.68,5,12,3,15.19,1.58ZM11.68,6.24s-1,4.6,3.51,4.38A3.55,3.55,0,0,0,17.41,9.2c.92-1.29,1.33-3.7-.52-6.24a3.49,3.49,0,0,0-2.38,2.41s1.32,1.84.1,2.58c0,0-1.61.22-.87-2a6,6,0,0,1,4.51-4s.75-.38-.3-.53C18,1.37,12.87,1.54,11.68,6.24Zm.77,4.39a5.89,5.89,0,0,1-5.89,3.46,11.7,11.7,0,0,1-1.8,4.35,6.08,6.08,0,0,0,.61,6.63s1.22,1.47,2.29-1.28c0,0,2.8-6.44,7.14-9.4a5.7,5.7,0,0,0,.65-3.29S14.71,11.6,12.45,10.63Zm.07,9.1S15,16.06,15.8,15.09c0,0-.4-.63-.76-.29,0,0-5,4.67-6.77,9.34,0,0-1.68,4.18-3.64,1A5,5,0,0,1,4,23.4s-1,6.27,6.71,8.17C10.75,31.57,7.79,27.39,12.52,19.73Zm21.59,1.45S32,18,28.54,18.47a9.34,9.34,0,0,1-7.78-1.41s-3.61-2-4.51-1.71c0,0-5.73,7-5.7,11.84a10.89,10.89,0,0,0,1.68,5.86s.9,1.29.8,4.31l0,4.77a4,4,0,0,1-1.32,3,2.62,2.62,0,0,0-1.13,1.9s.2.55,1.13,0c0,0-.06-1,.48-1.13a1.45,1.45,0,0,0-.25,1.37,2.49,2.49,0,0,0,1.73-.24s.32-.42-.09-1.7L14,43.86s1.25.49.8-1.44c0,0-.67-.84.42-4.67a3.69,3.69,0,0,0,.25-2.41,6.83,6.83,0,0,1,0-1.77,13.06,13.06,0,0,0,.3-2.22,3.88,3.88,0,0,1,.45-1.65s1.54-3.12-1.48-6.56c0,0,3.35,1.09,2.35,6.44a6,6,0,0,1-.58,1.09,2.93,2.93,0,0,0-.13.9,4.78,4.78,0,0,1-.1,1.09s2,.84,5.09-1.09c0,0,3.48-1.8,4.67-1.64,0,0-.68-4.84,2.22-6.14a8.44,8.44,0,0,0-1.52,5.85A19.13,19.13,0,0,0,28.83,35a4.78,4.78,0,0,1,.49,2.64s-1.32,4-2.67,5.28a5.66,5.66,0,0,1-1.49,1.19,2.25,2.25,0,0,0-1.51,1.86s.74.33,1.16.1c0,0,0-1.19.87-1.35a2,2,0,0,0-.58,1.45,2.16,2.16,0,0,0,1.71,0,2.48,2.48,0,0,0,.48-1.58l.93-1.25s1,.87,1.15-1.29a22.41,22.41,0,0,1,1.88-4.51s1.06-.74,0-2.73a8.36,8.36,0,0,1,1.83-5.89A7.11,7.11,0,0,0,34.11,21.18ZM10.85,43.1c1.28.57,1-1.24,1-1.24-.35-1,.14-3.9.14-3.9a9.12,9.12,0,0,0,.13-1.62,3.37,3.37,0,0,1-.17-1,3.25,3.25,0,0,0-.06-1.68,9.89,9.89,0,0,1-1.1-1.57C8.43,31.84,7.69,31,7.69,31a8.2,8.2,0,0,0,1.76,3.13,6.68,6.68,0,0,1,.75,2.8,16.46,16.46,0,0,1-.55,5.65,4.07,4.07,0,0,1-1.8,2,1.89,1.89,0,0,0-1.06,1.62c.19.57,1.06.23,1.06.23a1.11,1.11,0,0,1,1-1.31c-.81.38-.71,1.47-.71,1.47a1.79,1.79,0,0,0,2.06-.5c.25-1.14,0-1.51,0-1.51Zm13.31-1.83a11.23,11.23,0,0,1,2.13-4.73c1.07-1.16-.2-2.6,0-2.38a11.82,11.82,0,0,1-.16-3.71,6.19,6.19,0,0,0-3.25,1,7.43,7.43,0,0,0,1.25,3.3,5.23,5.23,0,0,1-.06,2.13L22.43,41A4.72,4.72,0,0,1,20.21,43c-1.47.77-1.39,1.66-1.39,1.66.23.47.91.35.91.35.29-1.34,1-1.21,1-1.21-.58.26-.68,1.3-.68,1.3a1.8,1.8,0,0,0,1.8,0A2.18,2.18,0,0,0,22,43.8l.84-1.4C24.13,43.36,24.16,41.27,24.16,41.27Z"/><path class="cls-2" d="M2.8,52.84l1,3.43a.24.24,0,0,1-.1.27.44.44,0,0,1-.33.13.38.38,0,0,1-.23-.08A.51.51,0,0,1,3,56.33L2,53s0-.06-.1-.06a.14.14,0,0,0-.14.08l-.89,2a.38.38,0,0,0,0,.17.58.58,0,0,0,.26.46.84.84,0,0,0,.55.21.87.87,0,0,0,.53-.25l.26-.24a.21.21,0,0,1,.15.08.21.21,0,0,1,.07.15s0,.06,0,.07a4.38,4.38,0,0,1-.71.72,1,1,0,0,1-.58.2,1.5,1.5,0,0,1-.89-.31A.86.86,0,0,1,0,55.64a.57.57,0,0,1,0-.18L1.21,52.7a.75.75,0,0,1,.31-.33,1.06,1.06,0,0,1,.5-.12.92.92,0,0,1,.48.14A.82.82,0,0,1,2.8,52.84ZM6,54.65v-.14A1.93,1.93,0,0,0,6.65,54,1,1,0,0,0,7,53.41a1.11,1.11,0,0,0-.51-.81,1.59,1.59,0,0,0-1-.41,1.48,1.48,0,0,0-.87.26.76.76,0,0,0-.39.65v3.27a.2.2,0,0,0,.11.18.76.76,0,0,0,.27.05.54.54,0,0,0,.29-.07A.21.21,0,0,0,5,56.34V53.12a.42.42,0,0,1,.08-.28.28.28,0,0,1,.22-.11.84.84,0,0,1,.6.26.81.81,0,0,1,.25.56c0,.21-.15.42-.45.61s-.45.38-.45.53l.23.33c.21.31.36.55.46.72a6.75,6.75,0,0,1,.4.71.44.44,0,0,0,.17.12.41.41,0,0,0,.16,0A.68.68,0,0,0,7,56.51a.24.24,0,0,0,.16-.21,1.52,1.52,0,0,0-.37-.79A8.79,8.79,0,0,0,6,54.65Zm2.13-2.44a.56.56,0,0,0-.3.08.26.26,0,0,0-.13.23V56.3a.25.25,0,0,0,.15.23.74.74,0,0,0,.34.08.48.48,0,0,0,.22,0,.13.13,0,0,0,.08-.13v-4a.17.17,0,0,0-.1-.16A.53.53,0,0,0,8.12,52.21ZM12,55.74l-.56.32a.93.93,0,0,1-.48.14.87.87,0,0,1-.69-.43A1.27,1.27,0,0,1,10,55c0-.17.06-.26.19-.26h1.5a.26.26,0,0,0,.23-.1.38.38,0,0,0,.08-.25.41.41,0,0,0,0-.19.17.17,0,0,0-.13-.08H10.1s-.08,0-.1-.11a.7.7,0,0,1,0-.27,1.32,1.32,0,0,1,.17-.68.72.72,0,0,1,.63-.35.9.9,0,0,1,.5.21,1,1,0,0,0,.53.2A.17.17,0,0,0,12,53a.61.61,0,0,0,.06-.28c0-.12-.1-.24-.3-.35a1.25,1.25,0,0,0-.59-.16,2,2,0,0,0-1.32.59A2.32,2.32,0,0,0,9,54.6a2.14,2.14,0,0,0,.48,1.49,1.61,1.61,0,0,0,1.26.5,2.13,2.13,0,0,0,.87-.23q.48-.24.48-.42a.24.24,0,0,0-.05-.14A.14.14,0,0,0,12,55.74Zm2.24-1.9a3.5,3.5,0,0,0-.45-.3.63.63,0,0,1-.08-.27.53.53,0,0,1,.13-.34.45.45,0,0,1,.34-.13,1.22,1.22,0,0,1,.47.24,1.24,1.24,0,0,0,.48.24.46.46,0,0,0,.34-.11A.31.31,0,0,0,15.5,53c0-.25-.18-.43-.53-.56a3.14,3.14,0,0,0-.53-.1,1.88,1.88,0,0,0-1,.37c-.37.25-.55.5-.55.74a1.06,1.06,0,0,0,.46.78l.85.68a1.11,1.11,0,0,1,.46.82.38.38,0,0,1-.13.32.52.52,0,0,1-.33.1,1.44,1.44,0,0,1-.71-.36,1.67,1.67,0,0,0-.62-.35.34.34,0,0,0-.27.15.37.37,0,0,0-.08.19c0,.18.13.36.37.55a1.45,1.45,0,0,0,.89.3,2.46,2.46,0,0,0,1-.25c.49-.22.73-.51.73-.88a1.45,1.45,0,0,0-.45-.88A6,6,0,0,0,14.2,53.84Z"/></g></g></svg>