<svg xmlns="http://www.w3.org/2000/svg" viewBox="0 0 41.13 55.7"><title>Asset 501</title><g id="Layer_2" data-name="Layer 2"><g id="Layer_1-2" data-name="Layer 1"><path d="M8.11,22.75l0,0h0ZM40.39,50.34a3.53,3.53,0,0,1,.67.25,2.84,2.84,0,0,1-1.39,1.5,26.52,26.52,0,0,1-9.19,3.26A21.59,21.59,0,0,1,21.11,55,23.25,23.25,0,0,1,9.93,49.1a31.71,31.71,0,0,1-6.08-7.77,31.17,31.17,0,0,1-3-8.56C.66,31.6.34,30.45.15,29.28a12.33,12.33,0,0,1,.22-4.91c.38-1.52.67-3.07,1-4.61a19.59,19.59,0,0,1,2.94-6.7c1.08-1.59,1.91-3.38,3.39-4.64C9.46,7,11.28,5.61,13.09,4.24a16.54,16.54,0,0,1,5-2.55A28.92,28.92,0,0,1,25.7,0,36.8,36.8,0,0,1,35.94,1.38a15.6,15.6,0,0,1,4.4,1.69,1.3,1.3,0,0,1,.79,1.21l-1.87.16c-3.48.29-6.49,1.87-9.39,3.61-2.44,1.46-4.77,3.1-7.07,4.77a17.57,17.57,0,0,0-2.53,2.5,1.42,1.42,0,0,0-.35,1,9.78,9.78,0,0,1-1.78,7c-.18.24-.32.5-.56.87l1.43.25a7.74,7.74,0,0,1,4,1.8c.91.79,1.84,1.52,3.18,1.23.13,0,.32.16.5.26-.09.14-.13.28-.22.31-1.13.47-2.26,1-3.41,1.39a5.57,5.57,0,0,1-4.32.15,1.73,1.73,0,0,0-.07.53,23.45,23.45,0,0,1,.43,6.2,2.43,2.43,0,0,0,.56,1.81A48.15,48.15,0,0,0,25,43.92a27.44,27.44,0,0,0,6.35,3.95A35.8,35.8,0,0,0,40.39,50.34ZM16.65,25.19a4.85,4.85,0,0,1,2.48.74c-.86.27-1.76-.47-2.5.42a12.78,12.78,0,0,1,1.53.19c1,.25,1.91.54,2.85.86.17.05.26.33.38.51-1.54,0-2.76-1.05-4.37-.78,1.55,3,5.18,2.53,7.38.92L22.72,26.7a8,8,0,0,0-5-1.83A3.34,3.34,0,0,0,16.65,25.19Zm-.29,7.06c0,.15-.11.35-.22.69A24.7,24.7,0,0,1,15,30.75a24.28,24.28,0,0,1-.68-2.34,3.7,3.7,0,0,0,.59,4.9c1.06,1,2.14,2,3.21,3a2.29,2.29,0,0,0,.49.23,15.36,15.36,0,0,0-.42-6.25,5.19,5.19,0,0,0-.81-1.52,3.34,3.34,0,0,0-1.77-1.34,10,10,0,0,1,1.49,4.16c-.91-1-.78-2.51-2-3.45a5.77,5.77,0,0,0,.83,3.12A3.93,3.93,0,0,1,16.36,32.25Zm2.55-17.69c-1.14,1.2-2.25,2.35-3.34,3.52a8.39,8.39,0,0,0-.78,1,5.35,5.35,0,0,0-1,3.79,2.74,2.74,0,0,0,.83,1.79c.08-1,.14-1.94.22-2.85a8.58,8.58,0,0,1,1.47-3.71c.08-.12.35-.13.66-.23-.45.91-.87,1.63-1.19,2.4a3,3,0,0,0-.3,2.54l1.84-3.38c.33.81-.11,1.18-.3,1.59-.49,1-1,2.07-1.5,3.11a1.34,1.34,0,0,0-.08,1.29A9.23,9.23,0,0,0,18.91,14.56Zm20.34,36.9a7.64,7.64,0,0,0-.8-.25c-.41-.08-.84-.09-1.24-.21-1.37-.39-2.75-.75-4.07-1.25a23.32,23.32,0,0,1-7-3.9c-1.58-1.34-3.11-2.74-4.64-4.15a9.43,9.43,0,0,1-1.12-1.31c-1-1.27-1.89-2.61-3-3.81a30.48,30.48,0,0,0-2.74-2.45,3.8,3.8,0,0,1-1.58-3.29,2.78,2.78,0,0,0-.12-.45c-2.14,1.83-4.75,1.17-7.33,1.9C6.94,29.93,8.23,28,10.6,26.67,9,26.2,8.4,25,7.83,23.83,7.38,22.9,7,22,6.51,21c-.08-.19-.14-.38-.25-.67a4.85,4.85,0,0,1,1,.09,6.11,6.11,0,0,0,2.62.21c1.12-.08,2.27-.22,3.26.7a8.62,8.62,0,0,1,2.59-4.3c.28-.26.51-.58.77-.86l2.52-2.73.59,1.22c3.85-3.92,8.57-6.49,13.2-9.21a5.28,5.28,0,0,0-1.33.32L27.92,7.07c-.28.09-.62.32-1-.17a19.29,19.29,0,0,1,4.12-1.5c1.34-.44,2.7-.82,4.06-1.22A2.92,2.92,0,0,0,33.82,4c-1.74.26-3.49.54-5.23.82a1.19,1.19,0,0,1-1.24-.16,19.33,19.33,0,0,1,5.39-1c1.8-.18,3.63-.17,5.46-.23a1.08,1.08,0,0,0-.31-.2,15.47,15.47,0,0,0-5.7-.61c-1.29.13-2.59.29-3.89.44-.28,0-.61.13-.73-.41A32,32,0,0,1,34,2V1.75L32.54,1.4a23,23,0,0,0-9.28-.27A28.49,28.49,0,0,0,10.41,7.3,22.19,22.19,0,0,0,3.8,16.17,27.9,27.9,0,0,0,1.51,27.62a27.34,27.34,0,0,0,.62,5A23.65,23.65,0,0,0,4.9,40.29c.62,1,1.22,2,1.89,3a28.83,28.83,0,0,0,5.2,6,25.92,25.92,0,0,0,4.2,2.59,23.31,23.31,0,0,0,7.53,2.43,25.14,25.14,0,0,0,11.64-.93A10.43,10.43,0,0,0,39.25,51.46ZM11.43,22.86l.17-.15,1.88,1.87a8.77,8.77,0,0,0-.27-1.64,1.63,1.63,0,0,0-1.73-1.6c-1.37-.08-2.75-.1-4.19-.14.22.53.26,1.14.79,1.51.26.63.51,1.27.8,1.88A2.68,2.68,0,0,0,11,26.07a4.45,4.45,0,0,0,2.29-.2,3.72,3.72,0,0,0-2-.83,2.4,2.4,0,0,1-2-1.9c.85,1.38,2.26,1.35,3.73,1.68ZM7,31.4c.75,0,1.4-.1,2-.13a6.49,6.49,0,0,0,3-.91,2.87,2.87,0,0,0,1.57-2.31c-.6.45-1,1-1.79.69-.13-.06-.39.21-.59.32-.57.31-1.13.64-1.72.93a3,3,0,0,1-.81.05c1.47-1.16,3.09-1.73,3.91-3.29C10.36,26.79,8,29.16,7,31.4Zm.75,11.25a.28.28,0,0,0-.23.19c-.07.44.25.58.59.69l.19,0C8.28,43.06,8.25,42.68,7.74,42.65Zm-.18-7.79c.09,0,.3-.1.46-.17l.17-.28a2.24,2.24,0,0,0-.59-.27c-.14,0-.29.16-.44.24C7.29,34.55,7.39,34.77,7.56,34.86Zm2.9,11.39c0,.41.22.6.63.55a.31.31,0,0,0,.16-.26C11.12,46.16,10.88,46,10.46,46.25Zm16,1.27c-.06-.06-.19-.05-.38-.1,0,.32,0,.59.07,1C26.75,48.09,26.79,47.82,26.47,47.52ZM4.33,37.25,4.57,37,4,36.29C3.69,37,3.9,37.2,4.33,37.25Zm17.93,15.2c-.18.42-.05.68.37.77a.33.33,0,0,0,.24-.19C22.93,52.57,22.66,52.45,22.26,52.45Zm1-1.67c-.06,0-.15.2-.12.27.12.37.38.39.77.22C23.81,50.81,23.58,50.68,23.24,50.78Zm-6,.09c.34.45.48.81,1,.53C18.17,50.9,17.92,50.75,17.24,50.87ZM5.14,37.45c.11.43.19.71.26,1l.32-.08C5.92,38,5.87,37.68,5.14,37.45ZM20.52,51c.05-.48-.23-.6-.95-.62l.7.85Zm-4.71-4.29c0,.36.19.57.57.51a.34.34,0,0,0,.15-.27C16.39,46.59,16.18,46.4,15.81,46.66Zm4.43,5.74s0,.13-.07.3l.91.18C20.79,52.26,20.55,52.2,20.24,52.4ZM22.52,2.91l-.39,0-.06.65.36,0ZM3,28.15c.21.16.33.3.48.34s.27-.18.25-.24a1.34,1.34,0,0,0-.25-.43ZM22.07,49.33,21.25,49C21.31,49.53,21.46,49.89,22.07,49.33ZM9.69,41.21a.3.3,0,0,0-.2.21c0,.39.22.52.68.48C10.19,41.47,10.08,41.22,9.69,41.21ZM26.16,53.08c-.15.32-.15.59.24.69a.4.4,0,0,0,.32-.22C26.76,53.17,26.53,53,26.16,53.08ZM6.79,26.5c.17-.37.08-.62-.58-.81l.27.92ZM14.27,7.14A.4.4,0,0,0,14,6.86c-.09,0-.22.11-.43.23l.47.37C14.13,7.35,14.28,7.24,14.27,7.14ZM8.08,40.28c-.18-.23-.25-.56-.65-.39a.37.37,0,0,0-.1.37C7.51,40.6,7.76,40.6,8.08,40.28ZM26.39,51.47a.76.76,0,0,0,.32.37s.3-.18.29-.24a1.74,1.74,0,0,0-.3-.49C26.55,51.27,26.37,51.41,26.39,51.47ZM13.65,38.9l-.74-.7C13.1,39,13.1,39,13.65,38.9ZM2.54,33.17l.92,1C3.36,33.37,3.36,33.37,2.54,33.17Zm32.1,18.68s-.2.14-.38.28c.16.13.26.27.36.27s.23-.13.34-.21A1.3,1.3,0,0,0,34.64,51.85ZM20.48,10.29c0,.14.21.24.32.36.09-.09.24-.18.25-.28s-.12-.24-.37-.67C20.57,10,20.45,10.17,20.48,10.29ZM32.6,52.59l.49.35c0-.1.17-.23.14-.28a2.38,2.38,0,0,0-.39-.39ZM20.47,47.87l.31.23.39-.55-.34-.22Zm12.46,2.39c0,.22-.14.37-.1.46s.21.14.32.21c.07-.11.2-.24.18-.33S33.13,50.42,32.93,50.26ZM24.16,7a2.79,2.79,0,0,0,.44-.4,2.92,2.92,0,0,0-.32-.37,4.2,4.2,0,0,0-.33.58S24.14,7,24.16,7ZM28.62,50.4c-.07,0-.16.21-.13.26.17.34.43.36.74.16C29.18,50.45,29,50.31,28.62,50.4Zm-18-40.57c.1-.12.25-.24.28-.38s-.14-.21-.29-.4a1.94,1.94,0,0,0-.28.52C10.28,9.64,10.48,9.74,10.58,9.83ZM31.71,53.45l-1.14-.18C31.21,53.86,31.21,53.86,31.71,53.45Zm-20-20.88a2.3,2.3,0,0,0-.34-.51c-.11.23-.24.36-.21.46a.46.46,0,0,0,.28.28C11.53,32.82,11.75,32.63,11.73,32.57Zm0,12.24s-.1.18-.16.27l.55.32.17-.28C12.12,45,11.94,44.9,11.75,44.81Zm.07-6a.39.39,0,0,0,.26.28c.09,0,.21-.14.38-.26-.17-.15-.28-.31-.38-.31S11.82,38.74,11.82,38.85Zm1.87,7.47c.13.11.24.27.38.32s.26-.09.56-.21c-.41-.24-.54-.37-.68-.38S13.78,46.23,13.69,46.32Zm2.85,2.88a.82.82,0,0,0,.34.35s.28-.19.27-.26-.17-.28-.32-.5C16.69,49,16.52,49.13,16.54,49.2ZM18,43.54s.23-.15.21-.17a1.44,1.44,0,0,0-.28-.44s-.22.13-.42.26A3.65,3.65,0,0,0,18,43.54ZM7.86,26.76c.09-.1.23-.19.25-.31S8,26.24,7.89,26c-.15.22-.29.34-.28.45S7.77,26.67,7.86,26.76ZM5.74,40.26l.48.51.23-.22-.52-.48ZM5.66,19c.08-.12.21-.23.21-.34s-.14-.2-.31-.43c-.09.25-.2.39-.17.49S5.57,18.85,5.66,19Zm7.74-8.39c-.1-.08-.2-.23-.3-.23s-.2.16-.35.28c.15.1.26.21.32.19A1.85,1.85,0,0,0,13.4,10.56ZM20,46c.09,0,.19-.15.35-.29-.19-.12-.32-.27-.42-.24a.41.41,0,0,0-.22.3C19.73,45.9,19.91,46,20,46Zm-1.15-4.88-.36.34c.18.11.28.23.39.23s.19-.14.29-.21Zm10.2,11.38c.06.19.14.37.21.56l.32-.16a3.56,3.56,0,0,0-.27-.51A.85.85,0,0,0,29.06,52.54Zm.55-3.4-.33-.78C28.8,48.86,29,49,29.61,49.14ZM5.41,28.4c.09-.1.25-.19.27-.29s-.14-.22-.28-.4c-.13.18-.28.3-.27.39S5.31,28.3,5.41,28.4ZM12.8,17.83a.38.38,0,0,0-.22-.3c-.08,0-.21.1-.66.33a2.07,2.07,0,0,0,.6.2C12.62,18.05,12.79,17.92,12.8,17.83ZM20.7,7.17A1.57,1.57,0,0,0,21,6.76s-.18-.17-.36-.32c-.09.19-.21.32-.19.41S20.6,7.07,20.7,7.17ZM12.29,47.79a.46.46,0,0,0,.28.3c.1,0,.24-.07.49-.17a2.36,2.36,0,0,0-.51-.39C12.5,47.51,12.28,47.71,12.29,47.79ZM9.48,37c0-.1-.05-.25-.1-.47-.2.12-.42.19-.42.26a1.09,1.09,0,0,0,.19.43C9.26,37.13,9.43,37.08,9.48,37Zm2.37-1.48s.2-.14.36-.27c-.16-.14-.25-.3-.35-.3s-.22.14-.33.22A1.8,1.8,0,0,0,11.85,35.5Zm6.41,11.78a.43.43,0,0,0,.32.22c.09,0,.19-.17.28-.26l-.47-.45C18.31,47,18.22,47.19,18.26,47.28ZM10.4,13.61c0-.08,0-.24-.07-.47-.21.13-.39.17-.42.27a.34.34,0,0,0,.14.34A.41.41,0,0,0,10.4,13.61Zm7.45,27.61a.62.62,0,0,0-.29-.34c-.1,0-.26.09-.48.18.3.25.4.4.5.4S17.86,41.27,17.85,41.22ZM17.29,8l0-.31-.54-.06a1.69,1.69,0,0,0,0,.3A4.51,4.51,0,0,0,17.29,8ZM17,10.57l-.45.57h.91Zm8.42-6.69a1.41,1.41,0,0,0,.4-.29,2.11,2.11,0,0,0-.27-.4,3.08,3.08,0,0,0-.3.49S25.42,3.89,25.44,3.88ZM16.17,42.75a2.51,2.51,0,0,0,.29-.09c-.06-.17-.12-.35-.17-.52l-.32.09A5.55,5.55,0,0,0,16.17,42.75Zm10.3,7a1.7,1.7,0,0,0-.3-.46c-.12.13-.26.24-.24.28a3.48,3.48,0,0,0,.27.44C26.3,49.89,26.49,49.77,26.47,49.72ZM10,32.77l-.27-.13a2.84,2.84,0,0,0-.28.51s.2.15.31.22Zm4.5,3.51c0,.07.25.21.32.18a.5.5,0,0,0,.21-.35c0-.1-.15-.2-.32-.41A2.07,2.07,0,0,0,14.48,36.28ZM14.08,49c0,.11.14.22.22.33.1-.09.28-.16.3-.26s-.11-.23-.24-.46C14.22,48.79,14.08,48.89,14.08,49Zm-5-4.37c0,.13.07.32.16.35s.26-.07.52-.15c-.21-.17-.3-.28-.42-.32A.38.38,0,0,0,9.07,44.62ZM23.26,8.92c0-.06-.15-.19-.3-.35-.11.18-.24.3-.23.4s.15.2.23.3A1.22,1.22,0,0,0,23.26,8.92ZM14.58,44.1a3.23,3.23,0,0,0-.54,0s0,.18,0,.28l.58,0ZM4.83,22.75c-.1,0-.23.08-.46.18.2.16.29.3.39.3s.21-.14.31-.21C5,22.92,4.92,22.77,4.83,22.75ZM23.45,45.83c.09,0,.21-.13.39-.24-.18-.16-.29-.34-.39-.32a.4.4,0,0,0-.27.29C23.17,45.64,23.34,45.81,23.45,45.83ZM5.38,25.11a.5.5,0,0,0,.26-.28,1.14,1.14,0,0,0-.11-.42l-.27.17c0,.12-.12.24-.1.35S5.35,25.13,5.38,25.11ZM3.42,22c-.07.19-.18.32-.16.43s.19.15.29.22a1.17,1.17,0,0,0,.15-.39C3.71,22.17,3.57,22.1,3.42,22ZM19.19,49.11c-.1,0-.2.15-.27.26s.11.13.21.25l.32-.27C19.36,49.26,19.26,49.1,19.19,49.11ZM18.59,9.6a1.09,1.09,0,0,0,.35-.19L18.64,9a1.63,1.63,0,0,0-.26.41C18.37,9.46,18.53,9.61,18.59,9.6ZM31.45,52.27c.06-.09.15-.18.15-.27s-.09-.16-.18-.28c-.1.12-.23.23-.21.27S31.37,52.18,31.45,52.27ZM16.1,39.14c0-.11.15-.22.14-.32s-.14-.2-.29-.4c-.09.25-.19.39-.15.48S16,39.06,16.1,39.14ZM15.46,14l-.28-.12-.15.55.19.07Zm3.36-1.88.5.21c0-.1.07-.19.11-.29l-.55-.1ZM23.41,47.2h-.64v.21l.62.1ZM25.28,8.92s-.14-.12-.29-.24a1.18,1.18,0,0,0-.13.43c0,.06.15.11.24.16A1.66,1.66,0,0,0,25.28,8.92ZM20.83,44.08c-.07-.12-.16-.26-.27-.29s-.2.13-.42.29a1.69,1.69,0,0,0,.49.2C20.7,44.29,20.84,44.11,20.83,44.08Zm-7.38-2.51s-.16.11-.33.23c.16.11.26.22.38.24s.16-.12.24-.19A1.1,1.1,0,0,0,13.45,41.57ZM10.17,17.64c0-.05-.18-.17-.21-.15a1.79,1.79,0,0,0-.33.34l.42.2A1.17,1.17,0,0,0,10.17,17.64ZM26,2.05a.71.71,0,0,0,.22-.32s-.14-.16-.22-.16a1.65,1.65,0,0,0-.43.09l.2.26C25.82,2,26,2.07,26,2.05ZM24.28,5.14c.09-.09.26-.18.26-.28s-.14-.21-.3-.43a1.87,1.87,0,0,0-.16.49C24.09,5,24.21,5.07,24.28,5.14ZM10.13,15.67c0-.09-.08-.23-.18-.44-.16.19-.31.28-.32.39s.14.21.21.32C9.94,15.85,10.09,15.78,10.13,15.67ZM9.37,43.24a1.64,1.64,0,0,0,.42.2c.07,0,.15-.12.22-.19a1.26,1.26,0,0,0-.3-.23C9.65,43,9.55,43.12,9.37,43.24Zm.24-31.72c-.08-.06-.19-.2-.24-.18s-.21.16-.35.28c.16.11.29.23.33.21A1.34,1.34,0,0,0,9.61,11.52Zm3.22,3.59a1.09,1.09,0,0,0,.16.35c.08-.06.21-.11.22-.17a1.57,1.57,0,0,0-.08-.45C13,15,12.82,15.05,12.83,15.11Zm-2.29,4.42c-.08,0-.27.14-.27.23a.42.42,0,0,0,.23.31c.06,0,.2-.11.37-.21C10.72,19.7,10.64,19.54,10.54,19.53Zm7.4-2.24a1.59,1.59,0,0,0-.49.31c.16.15.3.32.35.3a.77.77,0,0,0,.37-.32S18,17.27,17.94,17.29ZM17.34,34c0-.28-.09-.56-.16-1C16.78,33.5,16.56,33.8,17.34,34Zm5.15-5.62c.09-.11.23-.21.23-.32s-.15-.2-.32-.4c-.09.23-.19.36-.17.46S22.4,28.3,22.49,28.38ZM8.07,22.71l0,0V22.7ZM8.22,22c0,.33-.07.55-.1.75L9,22.61C8.66,22.31,8.48,22.17,8.22,22Zm-.15,8.37c-.07,0-.14.23-.1.29.17.31.42.37.78.1C8.59,30.35,8.42,30.12,8.07,30.32Z"/></g></g></svg>