<svg xmlns="http://www.w3.org/2000/svg" viewBox="0 0 89.54 74.9"><defs><style>.cls-1,.cls-2{fill-rule:evenodd;}.cls-2{fill:#c6262f;}.cls-3{fill:#fff;}</style></defs><title>Asset 462</title><g id="Layer_2" data-name="Layer 2"><g id="Layer_1-2" data-name="Layer 1"><path class="cls-1" d="M51.64,42.54a2.79,2.79,0,0,1,0,3.35,3.09,3.09,0,0,0-1.29-2.77C51.55,43.91,51.93,43.66,51.64,42.54Zm.54,3.87c-.8.81-1.22.62-1.15-.8a3,3,0,0,1-1.72,2.52A2.77,2.77,0,0,0,52.18,46.41ZM47,48.81a1.8,1.8,0,0,0,2.41,1c-.9-.06-.94-.49,0-1.37A2.15,2.15,0,0,1,47,48.81Zm8.3-1.21c.35.06.68-.39.75-1a.28.28,0,0,0,0-.09c-.54.87-1.19,0-1.1-.69a2.13,2.13,0,0,0-.15.54C54.75,47,55,47.53,55.31,47.6Zm-2.62.84-.1.08c-.66.6-.91,1.37-.55,1.71s1.19.13,1.86-.47a2.84,2.84,0,0,0,.51-.62C53.71,49.79,52.14,49.79,52.69,48.44Zm-1.25,1.3a1.54,1.54,0,0,0-.37.14c-.4.22-.63.58-.53.81s.51.23.9,0l.06,0C50.77,50.71,51,50,51.44,49.74Zm4.86-3.6s0,.1,0,.15c-.25,1,0,1.79.61,1.88s1.26-.62,1.51-1.57a2.77,2.77,0,0,0,.09-.68C58.09,47,56.72,47.67,56.3,46.14Zm-1.11,1.65-.09.09c-.6.58-.77,1.3-.39,1.62s1.18.11,1.78-.47a2,2,0,0,0,.36-.44C56.09,49.23,54.82,49.08,55.19,47.79Zm-.39-.1s0-.1.05-.15c-1.1,1-1.66-.31-1.3-1.44a3.35,3.35,0,0,0-.3.6c-.36.92-.3,1.89.13,2.16S54.44,48.61,54.8,47.69Zm-.56-1.52c.49.12.92-.58,1-1.57v-.16c-.71,1.31-1.67.24-1.69-.95a3.37,3.37,0,0,0-.1.67C53.38,45.15,53.75,46.05,54.24,46.17Zm3.07-2.33a1.16,1.16,0,0,1,0-.18c0,.61-.25,1.05-.57,1.11-.48.1-1-.68-1.24-1.72a3.18,3.18,0,0,1-.06-.43,3.51,3.51,0,0,0,0,1.59c.22,1.15.83,2,1.36,1.9S57.53,45,57.31,43.84Zm1,.4a.79.79,0,0,1-.66-.59,1.85,1.85,0,0,0-.11.42c-.08.67.24,1.25.72,1.28s1-.48,1-1.15a1.54,1.54,0,0,0-.06-.69A1,1,0,0,1,58.3,44.24Zm-4-.47c.49,0,.81-.61.72-1.29a1.3,1.3,0,0,0-.11-.41.78.78,0,0,1-.66.59,1,1,0,0,1-.92-.74,1.55,1.55,0,0,0-.07.69C53.3,43.29,53.77,43.8,54.25,43.77Zm3.07-28.05a7.52,7.52,0,0,0-4,3.88c1.47-1.55,3-1.64,4.6-2.13S59,15.23,57.32,15.72ZM51,38.24a2.27,2.27,0,0,0-1.88-1.37c-1.65-.21-2.57,1.06-4.12.89,1.56.55,2.92-.41,3.31-.09-.27.31-.49.79-1,.8.3.34,1.19.22,1.58-.24-.13.68-1.18,1.13-2.41.82a2.63,2.63,0,0,0,3.1-.43A1.26,1.26,0,0,1,51,38.24Zm-7-1.86a4.37,4.37,0,0,0,2.59-.46,3.35,3.35,0,0,1-1.61,1.41,5.09,5.09,0,0,0,4.73-5.07c-1.86.56-2.79,3.38-8.7,2.41a6.34,6.34,0,0,0,4.19,1.15A3.56,3.56,0,0,1,44,36.38Zm5.84-1.92a11.29,11.29,0,0,0,1-5.63,11.19,11.19,0,0,1-1.72,3.24,4.73,4.73,0,0,0,1-.69A11.6,11.6,0,0,1,49.8,34.46Zm-4.74,3.76C43.74,38,43.89,36.5,42.48,36c1.45.82-.16,2.55-1.46-.26A3.18,3.18,0,0,0,45.06,38.22Zm-.92.33c1.69.34.63,2.48-1.52.19a3.33,3.33,0,0,0,4.75,1.14C46,40.11,45.68,38.6,44.14,38.55Zm7.66,3.94a2.7,2.7,0,0,0-3.58-2.86c3.5.4,2.26,2.35.73,1.23C49.88,42,51.19,41.35,51.8,42.49Zm-2.62-5.75a2,2,0,0,0,1.58-2.22,2.8,2.8,0,0,0-2.51,1.87,2.52,2.52,0,0,1,.91-.67C49.85,35.46,50.2,36.18,49.18,36.74ZM46.31,16.35a3.4,3.4,0,0,1-.86,2.56,9.7,9.7,0,0,1,4.12,4.4,2.94,2.94,0,0,0-1.08-2.93A2.16,2.16,0,0,1,50,20.5a3.16,3.16,0,0,0-2.29-1.84,6.32,6.32,0,0,1,2.53.46,8.54,8.54,0,0,0-2.48-1.3,9.63,9.63,0,0,0,2.92-.4A10.89,10.89,0,0,1,46.31,16.35Zm7,16.9c.66.24,1.41-.59,1.68-1.84l0-.2c-.32.56-.76.86-1.17.71-.59-.21-.88-1.31-.64-2.44a3.45,3.45,0,0,1,.12-.46,3.18,3.18,0,0,0-.74,1.53C52.31,31.8,52.63,33,53.29,33.25Zm2.23,6.32c0,.67.29,1.3.72,1.39s.79-.37.82-1.05c0,0,0-.07,0-.11-.14.31-.38.49-.64.44s-.68-.66-.65-1.27a1,1,0,0,1,0-.25A1.33,1.33,0,0,0,55.52,39.57Zm-2.09-3.08c.83.09,1.46-.88,1.41-2.16,0-.07,0-.14,0-.2-.21.61-.64,1-1.15.95-.74-.08-1.39-1.08-1.43-2.24a3.76,3.76,0,0,1,0-.48A2.68,2.68,0,0,0,51.85,34C51.9,35.3,52.61,36.41,53.43,36.49Zm1,3.07c.83-.13,1.21-1.43.86-2.89a1.6,1.6,0,0,0-.05-.21c-.52,2.4-2.7.89-3-.65a4.48,4.48,0,0,0,.12,1.33C52.61,38.6,53.56,39.69,54.38,39.56Zm2.69,1.06c.13,1-.89,2.47-1.75,1.09,0,0,0,.1,0,.15.11,1,.65,1.7,1.19,1.6s.89-1,.77-2A2.78,2.78,0,0,0,57.07,40.62ZM54.55,42c.63-.09.93-.93.66-1.88,0,0,0-.1,0-.15-.45,1.53-2,.9-2.35-.22a2.77,2.77,0,0,0,.09.68C53.18,41.34,53.91,42,54.55,42Zm2.85-.42v.15c0,1,.47,1.69,1,1.57s.86-1,.83-2a3.27,3.27,0,0,0-.1-.66C59.07,41.77,58.11,42.85,57.4,41.54ZM56.05,30.31a1.45,1.45,0,0,1,.11-.29,1.81,1.81,0,0,0-.63,1c-.23.78,0,1.53.61,1.68s1.2-.37,1.42-1.15a.56.56,0,0,0,0-.12,1,1,0,0,1-1,.44C56.09,31.7,55.84,31,56.05,30.31Zm.34,3.45A1.6,1.6,0,0,1,55,32.25a2.62,2.62,0,0,0-.07.57c0,1.08.64,2,1.43,2s1.42-.89,1.42-2a3.14,3.14,0,0,0,0-.45A1.58,1.58,0,0,1,56.39,33.76ZM57.63,35a3.11,3.11,0,0,0-.08-.44c-.06.82-.47,1.44-1,1.48s-1.13-.55-1.35-1.41a3.66,3.66,0,0,0,0,.57c.12,1.08.75,1.92,1.43,1.86S57.75,36.1,57.63,35Zm-.43,3.13c-.6.07-1.21-.51-1.49-1.35a2.83,2.83,0,0,0,0,.57c.18,1.07.9,1.88,1.6,1.8s1.12-1,.93-2.1a2.28,2.28,0,0,0-.11-.45C58.15,37.43,57.77,38.07,57.2,38.14Zm-1-8.6a2,2,0,0,0,.34-.62c-.5.51-1.15.69-1.52.39s-.32-1,.09-1.56a1.91,1.91,0,0,0-.54.45,1.3,1.3,0,0,0-.1,1.78A1.3,1.3,0,0,0,56.19,29.54Zm1.08,10a1.59,1.59,0,0,0,0,.43c.13.66.61,1.11,1.08,1A1.17,1.17,0,0,0,59,39.55a1.39,1.39,0,0,0-.27-.63,1,1,0,0,1-.65,1A.78.78,0,0,1,57.27,39.56ZM71.41,11.11c-.15.9-1.25,1.08-1.44,2,.09,1.54-.8,2.48-2.32,3a2.6,2.6,0,0,0-.11,2A2.36,2.36,0,0,1,69,20.64c-.13,1.59-1.36,2.39-2.35,3.47-.6.66-1.07,1.68-1.06,3.95a5.51,5.51,0,0,1-.07-3.54,5.71,5.71,0,0,0,.12,6.66c-1-.39-1.65-1.66-2-3.74A5.86,5.86,0,0,1,62,30.81c1-2.09.46-3.1.68-4.66-1.85,2.15-3.88,4.25-1.1,7.42a3.61,3.61,0,0,1-2.18-3.4c-1.33,3.19.37,6.46,1.23,9.14,1.67,5.28,0,11.4-5.87,13.11a15.74,15.74,0,0,1-10.17-.82,7.29,7.29,0,0,0,5,2.56c2.72.28,5.62-.62,8.26.26a4.64,4.64,0,0,1,3.32,3,1.55,1.55,0,0,1-.1,1.2c.3,1.47-1.09,2.83-2.73,3.67,1.36-1,2.21-2.12,1.88-3.29l-.13,0a1,1,0,0,1-.39.31c0,1.3-1.3,2.47-2.77,3.21,1.26-.94,2.08-1.95,1.93-3a.78.78,0,0,1-.39-.11,1.45,1.45,0,0,1-.43.23c0,1.46-1.56,2.55-3.28,3.1,1.52-.8,2.54-1.75,2.38-3a1.07,1.07,0,0,1-1-.86c-.36-1.67-2.62-1.81-3.82-1-.76.54-1.09,1.48-.25,2.68-1.33.14-2.65-.79-2.32-1.81-5.3-.21-10.39-2.85-10.17-9.07-7.09-3.3-13.57-9.51-19.87-12-5-2-11-.57-12.88,5-.53,1.59-.15,2.87,1.56,3.2,2.26.44,4.58-.29,6,2a2,2,0,0,1,.25,1.82A5.15,5.15,0,0,1,13,54.39a4.93,4.93,0,0,0,1-3.84.82.82,0,0,1-.5.07,1,1,0,0,1-.25.38,7.33,7.33,0,0,1-2.07,4.36,7.08,7.08,0,0,0,1.37-4,.74.74,0,0,1-.4,0,1.17,1.17,0,0,1-.44.47,5.72,5.72,0,0,1-2.49,4.07A5.28,5.28,0,0,0,10.91,52l-.13,0a1.3,1.3,0,0,1-.82.81A5,5,0,0,1,7.08,56c1.23-1,2.07-2,2.08-3.23a1,1,0,0,1-.73-.69c-1-3-3.37-.86-5-1.55-.75.72-2.2.17-2.26,2.15-1.5-1.54-.65-2.86-.3-4.22C1.52,46,1.1,44,.65,41.68-.88,33.9-.06,27.9,7,22.2c1.8-1.47,1.28-3.56-.35-5.34-1.25-1.37-3-2.27-3.65-4.13a4.33,4.33,0,0,1,.69-4.17,2.89,2.89,0,0,1,3.76-.47,2.7,2.7,0,0,0-2.55,1.3A3,3,0,0,0,5,12.1c1.07,1.72,3.29.3,3-1.58C7.73,8.17,6.89,5,8.7,3a2.41,2.41,0,0,1,3.18-.32A3.11,3.11,0,0,0,9.11,6.11c.09,1.92,2.15,1.68,2.12.31A6.62,6.62,0,0,1,12,2.84c1.07-1.67,4.12-2.53,5.28-.5-3.13-1-4.39,1.47-3.72,3a1.87,1.87,0,0,0,3,.45c.92-1,.88-3,1.68-4.41A2.6,2.6,0,0,1,22,.42a2.06,2.06,0,0,1,.84,2.29,2.36,2.36,0,0,1-2.65,1.66,2.14,2.14,0,0,0,1.26-1c.37-.85-.31-1.65-1.65-1.12a1.78,1.78,0,0,0-1,2,1.84,1.84,0,0,0,2.82,1.22C22.79,4.6,23.34,3,24.63,2.22c1.95-1.12,4.53.41,3.1,2.43,0-1.55-1.65-1.73-2.91-1a2.81,2.81,0,0,0-1.56,2,1.14,1.14,0,0,0,1.49,1.27c1.05-.19,1.86-1.51,3.11-1.71,2.27-.38,4,2,2.09,3.46a1.36,1.36,0,0,0-1.11-1.95c-1.33-.22-3.31,1.22-2,2.45.66.61,1.74,0,2.5-.07a3.64,3.64,0,0,1,2.31.3,1.84,1.84,0,0,1-.2,3.37c.85-1,.26-1.91-.57-2.1a1.43,1.43,0,0,0-1.66.91c-.55,1.91,2.35,1.45,3.25,1.55a2.25,2.25,0,0,1,2.09,2.1,2.24,2.24,0,0,1-1.31,1.9,1.7,1.7,0,0,0-.06-2.58,1.52,1.52,0,0,0-2.43,1.12c.05,1.47,1.73,2.22,2.88,2.42,2.15.38,4.58.33,5.72,2.51a7.34,7.34,0,0,1,.2,5.2C39,21.39,36.77,20.43,34.36,20c-3.57-.72-5.47-1.76-7.14-4.57-2.4-4-5.7-8.29-10.95-7.65-3.11.39-6.19,2.95-4.41,6.59a7.72,7.72,0,0,0,4.2,3.5,20.48,20.48,0,0,1,12.75,3.41c5.62,3.57,6.37,9.07,11.77,11.41,4.38,1.9,9.42-.77,8.58-5.7a6.46,6.46,0,0,0-.8-2.17,10.4,10.4,0,0,1-4.25-1,10.74,10.74,0,0,0,3.93.44,17.49,17.49,0,0,0-5.39-4.75C31.72,19,34,8.24,41.05,9.42c-1.92,0-4.15,1.26-3.81,3.45a3.88,3.88,0,0,0,5.45,2.62c1-.59.42-2.39-2.31-1.29a5.3,5.3,0,0,1,5-.76c1.71.66,3,2.38,5.05,1.82.89-.24.77-1.3-.38-1.17-2.56.27-3.19-1.42-5.27-1.88a2.84,2.84,0,0,0-2.9.86,2.77,2.77,0,0,1,2.81-1.64c2,0,3.68,1.55,5.59,1.5.69,0,1.33-.37,1.28-1.11-1.89.13-2.54-1.25-5.67-.7a5.52,5.52,0,0,1,4.39-.76c1.1.19,1.93.47,3.06.72,1.84.4,1.77-2-1.79-1.27,1.28-1.49,5-1.69,6.28,0,.1-2-1.62-2.33-3.3-2.3-2,0-4.68.65-6.62-.07-3.34-1.24-2.67-5.73,1.15-6.18-3,2-1.4,4.88,1.37,5.06,2.14.14,4.48-.62,6.68-.39,3.06.32,4.43,3,2.85,5.62.35.45-.06.94-.24,1.38s.16,1.19.75.88a1.08,1.08,0,0,1,.89-.21,2,2,0,0,1,1.7-.94c.17-.82,1.12-1.49,2.82-1.55,1.18-1.2,2.54-1.93,3.16-1.53A1.51,1.51,0,0,1,71.41,11.11ZM48.05,57.71a10.08,10.08,0,0,0,2.55.53c.71-1.37,5-2.32,5.94.5.21.64,1.45.45,1.48-.12.09-1.34-1-2.22-2.27-2.74a3.2,3.2,0,0,1,2.81,2.86c2-.08.51-2.56-1.36-3.2A3.74,3.74,0,0,1,59.87,58c.23.49,1.2.12,1-.44a4.21,4.21,0,0,0-3-2.8c-2.49-.83-5.31,0-7.86,0C49.05,54.65,47.61,56.37,48.05,57.71Zm-.76-3.23,1.89.11-1.46-.34A2.86,2.86,0,0,0,47.29,54.48Zm-.87,1.22a4,4,0,0,0-.15,1.38l1.24-.36-1.09-1h0l1.5-.13-.63-1.08a2.14,2.14,0,0,0-.87,1.21h0ZM33.06,36.92c.62-.11,1.26.58,1.44,1.55a3.44,3.44,0,0,1,0,.45,2.82,2.82,0,0,0,0-1.16c-.2-1.11-.94-1.91-1.65-1.77s-1.12,1.13-.92,2.24a3,3,0,0,0,.35,1,2.63,2.63,0,0,1-.08-.3C32.08,37.91,32.44,37,33.06,36.92Zm-2.89-3.51a2.33,2.33,0,0,1,3,1,3.06,3.06,0,0,1,.29.53,3.1,3.1,0,0,0-.55-1.44,2.67,2.67,0,0,0-3.39-1.14c-1,.61-1.16,2.12-.31,3.36a3.47,3.47,0,0,0,1,1,2.91,2.91,0,0,1-.26-.33A2,2,0,0,1,30.17,33.41ZM33.55,31a1.17,1.17,0,0,1-1,.62c-.75,0-1.35-.95-1.35-2.12a3.22,3.22,0,0,1,.11-.84,2.87,2.87,0,0,0-.39,1.5c0,1.17.6,2.12,1.35,2.12C32.86,32.23,33.34,31.7,33.55,31Zm-3.14-2.84a1.24,1.24,0,0,0,1.89-1.26,4,4,0,0,0-2.18-3.09c1.08.8,1.61,1.9,1,3.06a1.44,1.44,0,0,1-.77-.6.85.85,0,0,0-.09.63,3,3,0,0,1-1.11-2.38C29,25.74,29.17,27.49,30.41,28.11Zm-4.3.26L26,28.21a3.38,3.38,0,0,0,.4,2c.66,1.3,1.88,2,2.71,1.59s1-1.71.39-3A1.48,1.48,0,0,1,28.83,30C28,30.39,26.78,29.68,26.11,28.37Zm-.48,3.48c.81.26,1.3,1.14,1.66,2.28-.1-1.52-.74-3.41-2.1-3.66-1.19-.22-1.85.92-1.55,2.13a3.81,3.81,0,0,0,2.88,2.69,2.59,2.59,0,0,1-1.73-3.09,1.21,1.21,0,0,1,.9.4A1.14,1.14,0,0,0,25.63,31.85Zm.15-1.66.11.15a3.56,3.56,0,0,0-.73-1.87c-.88-1.17-2.2-1.66-2.95-1.1s-.65,1.85.13,3a1.42,1.42,0,0,1,.5-1.28C23.59,28.52,24.9,29,25.78,30.19Zm1.67-5.81a4.51,4.51,0,0,0-1.21-.79,2.88,2.88,0,0,1,.34.27c1,.89,1.14,2,.35,2.4a3.15,3.15,0,0,1-3.21-.82,3.35,3.35,0,0,1-.41-.44,3.07,3.07,0,0,0,.87,1.19c1.12,1,2.77,1.44,3.67.94S28.58,25.39,27.45,24.38Zm-3.93-2.7c-.43.79.18,1.95,1.36,2.66A1.43,1.43,0,0,1,24.8,23c.45-.82,1.85-.92,3.14-.22l.16.09a3.5,3.5,0,0,0-1.44-1.38C25.37,20.76,24,20.85,23.52,21.68Zm-7.85-1.13a4.67,4.67,0,0,1,.1.75A3,3,0,0,1,19,20.88c.86.41,1.14-.9,0-1A4.36,4.36,0,0,0,15.67,20.55ZM15.38,23c1.81-.43,2.35.4,3.58.68s1.83-1,.8-1.51a5.3,5.3,0,0,0-4.09.16A3,3,0,0,1,15.38,23Zm-.58.71a5.79,5.79,0,0,0,3.31,1.4c1.43,0,1.55-1.25.22-1.27A8.22,8.22,0,0,1,15,23.45C14.94,23.52,14.88,23.59,14.8,23.66Zm-1,.65-.21.09A9,9,0,0,1,15.94,28c.61,1.39,2.16.75,1.47-.72A6.69,6.69,0,0,0,13.84,24.31Zm1.45,3.15a8.87,8.87,0,0,1-1.89-3l-.16,0a5.8,5.8,0,0,0,.95,3.75C15.09,29.39,16.12,28.51,15.29,27.46Zm-4-5a1.25,1.25,0,0,0,1.72.43,1.17,1.17,0,1,0-1-2.06A1.26,1.26,0,0,0,11.31,22.45Zm1.38,2.17h-.36a10.59,10.59,0,0,1-.89,3.4C11,29.41,12.51,30,13,28.5A5.94,5.94,0,0,0,12.69,24.62ZM9.82,27.56c0,.94,1.13,1,1.33,0,.26-1.26,0-1.93.8-3a1.59,1.59,0,0,1-.3-.06A3.59,3.59,0,0,0,9.82,27.56ZM8.6,26.39a2.5,2.5,0,0,1,2.06-2.31,2.11,2.11,0,0,1-.49-.5,3.72,3.72,0,0,0-2.69,2.57A.58.58,0,1,0,8.6,26.39ZM3.63,35c.81.59,2.19.09,3.15-1.11a1.66,1.66,0,0,1-1.53-.11C4.07,33,4.32,31,5.16,30,3.65,30.53,1.86,33.75,3.63,35ZM7,30.51a1.53,1.53,0,0,0-.86,2.15,1.44,1.44,0,0,0,1.79.69,1.61,1.61,0,0,0,1.16-1.78,1.39,1.39,0,0,1-1.31.89,1.05,1.05,0,0,1,0-.7c-.38-.08-.75.46-.7.64A1.26,1.26,0,0,1,7,30.51ZM2.5,40.33c.64.37,1.64-.15,2.22-1.15a2.86,2.86,0,0,0,.36-1l-.14.29c-.51.87-1.37,1.32-1.93,1s-.61-1.3-.1-2.18a2.81,2.81,0,0,1,.26-.38,3,3,0,0,0-.78.9C1.81,38.84,1.86,40,2.5,40.33ZM2,45.07l.56-2.81.9,1.82.75-2.41L5,43.78,6.11,41.7h0l.08.61a2.32,2.32,0,0,1,.28-.57l-.36,0h0a7.13,7.13,0,0,0-1.95,0,4.19,4.19,0,0,0-1.65.59,4.24,4.24,0,0,0-.74.56A8.7,8.7,0,0,0,2,45.07ZM6,44.57a4,4,0,0,0-3.91,1,4,4,0,0,1,0,1.54c-.2,1.51.31,2.88,2.09,3s3.77-1,4.56,1.64a.56.56,0,0,0,.31.41A2.44,2.44,0,0,1,9.05,52c-.13-.68,1-.94.95.16.67-.36.82-2.93-2.16-3.39,2.31,0,2.61,1.24,2.9,2.22.23-.56.8-.41.92.13a1.27,1.27,0,0,0-.05-1c-.31-.92-.78-2.08-3.2-2.27,2.12,0,3,.74,3.52,2.35.09.27.13.46.46.51-.12-.35-.45-1.28.38-1.19-.4-1-1-2.08-3.5-2.38a3.86,3.86,0,0,1,3.73,2c.14.27.31.68.68.6l0-.06c-.16-.39.17-1.08.66-.67a1.33,1.33,0,0,0-.18-.67c-1.13-2.23-3.42-2-5.36-2.13A2.91,2.91,0,0,1,6,44.57Zm.81-4.22c.11-.49-.41-.82-1.15-.74A2.64,2.64,0,0,0,5,39.8l.21,0c.65-.08,1.09.21,1,.64a1.56,1.56,0,0,1-1.34.92H4.59a1.47,1.47,0,0,0,.71.06A1.76,1.76,0,0,0,6.84,40.35Zm.58-4.87a1.18,1.18,0,0,0-2,.74,3.82,3.82,0,0,0,1.32,3.33c-.81-1-1.06-2.11-.25-3a1.38,1.38,0,0,1,.58.72.81.81,0,0,0,.22-.55,2.9,2.9,0,0,1,.5,2.43C8.24,38,8.42,36.33,7.42,35.48Zm5.46-1.07a3.11,3.11,0,0,1-.31.32C11.21,36,9.52,35.88,9.41,35c-.06-.55.33-1.46,2.06-1.59A2.54,2.54,0,0,0,8.4,34.88a1.45,1.45,0,0,0,1.5,1.93A3.58,3.58,0,0,0,12.88,34.41Zm2.41-2.51A3,3,0,0,0,20,28.77c1.47-.09,2.12-1.05,1.88-2.66,1.9-1.16,1.53-3.54.37-4.87a2.49,2.49,0,0,0,1.26-1,24,24,0,0,0-2.42-.57,1.36,1.36,0,0,1-.49,1.53,2.19,2.19,0,0,1-.12,4.37c1.55.83.5,3.32-1.52,2.6,1.69,2.26-2.34,5.14-4.06,2.36.33,1.16-1.94,2-2.09.17A1.77,1.77,0,0,1,9.5,29.55c-1.07,1.2-3-.43-2.19-1.82a1.11,1.11,0,0,1-1.61-.85c-1.22,1-.61,2.73.93,2.09a1.83,1.83,0,0,0,2.43,1.57c.19,1.53,1.71,2.15,3.74,1.94C13.08,33.51,15.23,33.11,15.29,31.9Zm2.53,1.35a4,4,0,0,0-3.78.09c1.27-.45,2.47-.28,3.1.87a1.46,1.46,0,0,1-.93.3.88.88,0,0,0,.47.43,3.06,3.06,0,0,1-2.58-.41c.94.88,2.5,1.67,3.71,1A1.24,1.24,0,0,0,17.82,33.25Zm3.89-1.39a.9.9,0,0,0-1.28-1A2.91,2.91,0,0,0,18.79,33a1.7,1.7,0,0,1,1.88-1.37,1.11,1.11,0,0,1-.25.67.65.65,0,0,0,.45-.08,2.18,2.18,0,0,1-1.38,1.28C20.4,33.37,21.55,32.84,21.71,31.86ZM24,37c.59-.67.27-1.94-.72-2.91A1.44,1.44,0,0,1,23,35.41c-.63.69-2,.47-3.11-.51l-.13-.12a3.48,3.48,0,0,0,1.08,1.68C22,37.43,23.34,37.66,24,37Zm1.83.21a2.91,2.91,0,0,0-.85-.56,2.31,2.31,0,0,1,.24.2c.72.67,1,1.58.53,2s-1.36.29-2.08-.37a3.17,3.17,0,0,1-.3-.34,2.91,2.91,0,0,0,.68.94c.83.77,1.89,1,2.38.43S26.62,37.93,25.8,37.17Zm4.65,2.47a1.25,1.25,0,0,0,.65-2.18,4,4,0,0,0-3.66-1c1.34-.07,2.45.43,2.74,1.7a1.44,1.44,0,0,1-1,0,.84.84,0,0,0,.33.54,3,3,0,0,1-2.37-1.11C27.81,38.75,29.1,40,30.45,39.64Zm2.34,3.15c.59-.67.27-1.94-.72-2.91a1.45,1.45,0,0,1-.23,1.35c-.63.7-2,.48-3.11-.5l-.13-.12a3.48,3.48,0,0,0,1.08,1.68C30.77,43.26,32.16,43.49,32.79,42.79Zm1.83.21a2.91,2.91,0,0,0-.85-.56,2.12,2.12,0,0,1,.24.2c.72.67,1,1.58.53,2s-1.36.29-2.08-.38a3.19,3.19,0,0,1-.31-.33,3.11,3.11,0,0,0,.69.94c.83.77,1.89,1,2.38.43S35.44,43.76,34.62,43Zm1.21-1a1.81,1.81,0,0,0-.63-2.52c-.92-.47-1.81-.08-1.94.63-.15.86.65,1.75,1.58,2.26-.88-.64-1.22-1.41-.49-2.11a1.16,1.16,0,0,1,.62.47.47.47,0,0,0,.18-.4A1.68,1.68,0,0,1,35.83,42.05Zm3.52,4.84c0-.55-.85-1.12-2-1.28a3.28,3.28,0,0,0-1,0l.31,0c1,.14,1.73.64,1.71,1.12s-.83.76-1.8.63a3.12,3.12,0,0,1-.44-.09,3.81,3.81,0,0,0,1.11.33C38.4,47.77,39.33,47.45,39.35,46.89Zm.57-3.6a4,4,0,0,0-3.66-1c1.34-.07,2.45.43,2.74,1.7a1.44,1.44,0,0,1-1,0,.84.84,0,0,0,.33.54A3,3,0,0,1,36,43.47c.65,1.11,1.93,2.31,3.29,2A1.25,1.25,0,0,0,39.92,43.29Zm1.19-.85A7.68,7.68,0,0,1,35.6,36.2c-.45-2.59-.15-5.43-1.6-7.69-.35-.39-.73-.78-1.13-1.15,1.74,2.86,1,7.09,2.24,10.31C36.08,40.2,37.88,42.41,41.11,42.44Zm.72-.91a7.58,7.58,0,0,1-3-4.91c-.21-1.23-.26-2.51-.4-3.76a11.3,11.3,0,0,1-2.25-1.93h0c.94,1.58.89,3.47,1.25,5.26S39,40.72,41.83,41.53Zm4.7,9.29c8.22-1.21,5.86-8.26,5.56-9.6-.39-1.69-.78-3.2-1-4.59-.89-5.6.45-8.91,3.09-10.65l.07,0a3.88,3.88,0,0,0-.94-.11,3.28,3.28,0,0,0-2.69,1.38A3.85,3.85,0,0,1,54,24.75a3.16,3.16,0,0,0-2.63-.52c-.59.09-1.2.27-1.86.41a7,7,0,0,1,.65,3.67c-.5,4.2-5,7.11-10,5.38.18,1,.25,2,.44,2.91.39,2,1,3.7,4.22,4.43a4.78,4.78,0,0,1,1.65-.3,3.9,3.9,0,0,1,3.82,3.16,4.07,4.07,0,0,1-3.53,4.73,2,2,0,0,1-2.08-1.13A1.8,1.8,0,0,1,45,45.64a4.06,4.06,0,0,0-1.22,3.74A5.73,5.73,0,0,0,46.53,50.82ZM59.82,26.4c-2.51.41-2.81,3-1.6,5.49a5.15,5.15,0,0,1-1-5.22c-4.37,1-5.82,3.92-5.79,7.9a34.7,34.7,0,0,0,1.11,6.1c1,4.62,1,8.95-4.61,10.4,3.09.33,6.78-.45,8.7-1.82,2.92-2.08,3.31-5.84,2.42-10.42-.71-3.65-1.76-7.23.18-9.5A6.3,6.3,0,0,1,59.82,26.4Zm6.39-14.75c-.35.43-.82.49-.95,1.09-.08.41,0,.73-.29,1.08a1.15,1.15,0,0,1-1.4.33,1.77,1.77,0,0,1-1.83.82,2.64,2.64,0,0,1-3.41-.16,3.66,3.66,0,0,1-4.89-.64,1.46,1.46,0,0,1,.31-2.11,2.12,2.12,0,0,1,2,0c.61.36.67,1.08.11,1.32a.79.79,0,0,0-.24-.91,1.26,1.26,0,0,0-1.63.25,1,1,0,0,0,.43,1.15,3,3,0,0,0,2.84.11A2.07,2.07,0,0,0,58,10.65a4.56,4.56,0,0,0-2.65-1.39c1.25,1.94-.65,2.82-2.41,2.5A2.33,2.33,0,0,1,52,13.52c.72,1.64,0,2.64-1,3-1.65.66-4.22-.39-5.57-1.31A3,3,0,0,1,44,18.81,15.28,15.28,0,0,1,49.15,24c1.87-.71,2.68-1.94,5.26-1.9-.18-1.78.71-3.21,3.16-4.13-1.6,1.16-2.38,2.58-1.83,4.38a1.51,1.51,0,0,1,1.16,1.95,2.36,2.36,0,0,1,1.63.26,5,5,0,0,1,2.36-.85,3.84,3.84,0,0,1,1.75-1,1.67,1.67,0,0,1,1.67-.9,1.65,1.65,0,0,1,1.16-1,1.85,1.85,0,0,1,1.42-2.67,3.13,3.13,0,0,1,0-1.86c-1.78.61-2,4.41-4.89,6.45-3.08,2.18-7,.61-4.93-3s7.55-5.6,11.1-6.17c-2.07-.38-.17-3.31,1.63-1.69C70.21,9.85,67.89,9.28,66.21,11.65Zm-6.31,7.7c-.81,1.68,1,3,2.49,1.52,1.07-1.1,1.34-3.34,2.75-4.59C63.33,16.67,60.79,17.52,59.9,19.35Z"/><path class="cls-1" d="M63.9,72a19.33,19.33,0,0,0,9.46-13,16.37,16.37,0,0,1-4.76.22c-.5-.18,0-.32.21-.34,1.59-.21,3.19-.48,4.74-.81a27,27,0,0,0,.37-6.83c-.06-.82,0-1.37.75-1S76.76,51.46,76.5,53c-.2,1.24-.5,2.86-1,4.63A32,32,0,0,0,80.44,56c.71-.31,3.28.93,1.14,1.5-1.81.48-4.16,1-6.37,1.3C73.61,64.19,70.43,70.53,63.9,72ZM83.47,52.25c-.52-.7-1.58-.73-2.84-.59-.72.09-1.09.31-.59,1a6.86,6.86,0,0,0,3.27,2c.72.18.88-.17.86-.61a4,4,0,0,0-.7-1.79Zm-7,9a58.45,58.45,0,0,0,0,6.18,21.62,21.62,0,0,1-4.62,3,12,12,0,0,0,4.73-1.82,7.24,7.24,0,0,0,.31,1.47c1.61,4.73,7.76,2.07,11.47,2.28.84,0,1.36-.07,1.18-1.17a51.22,51.22,0,0,1-.81-5.94c-1.72,3.15-.8,4.61-2.11,5.19-2.39,1.06-8.34,2-8.68-2,0-.21,0-.45,0-.7a50.41,50.41,0,0,0,5.84-5.23c.3-.3.55-.69.37-1.07a3,3,0,0,0-1.49-1.27c-.45-.17-.81,0-.77.62a2.11,2.11,0,0,1-.41,1.61,21,21,0,0,1-3.58,3.91c0-1.3,0-2.76.15-4a9,9,0,0,1,.27-1.71c.11-.36.19-.57,0-.87a2.71,2.71,0,0,0-1.31-.77c-.47-.14-.82,0-.7.54a3.91,3.91,0,0,1,.3,1.83Z"/><path class="cls-2" d="M11.63,62.15H48.89a6.39,6.39,0,0,1,6.37,6.37h0a6.39,6.39,0,0,1-6.37,6.38H11.63a6.4,6.4,0,0,1-6.37-6.38h0a6.39,6.39,0,0,1,6.37-6.37Z"/><path class="cls-3" d="M19.93,70v-.1a2.49,2.49,0,0,1-.42.39,1.6,1.6,0,0,1-.45.23,1.46,1.46,0,0,1-.52.08,1.5,1.5,0,0,1-.7-.16,1.56,1.56,0,0,1-.56-.46,2,2,0,0,1-.36-.69,3,3,0,0,1-.12-.87,2.25,2.25,0,0,1,.48-1.54,1.61,1.61,0,0,1,1.27-.56,1.76,1.76,0,0,1,.77.16,2,2,0,0,1,.61.48V65.41a.8.8,0,0,1,.13-.5.44.44,0,0,1,.37-.16.47.47,0,0,1,.37.15.71.71,0,0,1,.13.45V70a.65.65,0,0,1-.14.45.46.46,0,0,1-.36.15.49.49,0,0,1-.36-.15.69.69,0,0,1-.14-.45Zm-2.07-1.55a1.77,1.77,0,0,0,.13.73,1,1,0,0,0,.37.45.83.83,0,0,0,.5.16.9.9,0,0,0,.51-.15,1,1,0,0,0,.37-.44,1.83,1.83,0,0,0,.13-.75,1.75,1.75,0,0,0-.13-.72,1.27,1.27,0,0,0-.37-.47,1,1,0,0,0-.52-.16.85.85,0,0,0-.51.17,1.08,1.08,0,0,0-.36.47,1.92,1.92,0,0,0-.12.71Zm5.17.63V70a.69.69,0,0,1-.15.48.53.53,0,0,1-.76,0A.74.74,0,0,1,22,70V67c0-.48.17-.71.51-.71a.43.43,0,0,1,.38.16A.92.92,0,0,1,23,67a1.68,1.68,0,0,1,.39-.49.8.8,0,0,1,.53-.16,1.35,1.35,0,0,1,.64.16.49.49,0,0,1,.31.44.41.41,0,0,1-.13.32.42.42,0,0,1-.29.12,1.16,1.16,0,0,1-.28-.07,1.61,1.61,0,0,0-.39-.07.6.6,0,0,0-.38.12.9.9,0,0,0-.23.37,2.5,2.5,0,0,0-.11.57c0,.22,0,.48,0,.8Zm4.89.93a3.68,3.68,0,0,1-.74.44,2.07,2.07,0,0,1-.8.15,1.53,1.53,0,0,1-.72-.16,1.22,1.22,0,0,1-.47-.43,1.15,1.15,0,0,1-.16-.6,1,1,0,0,1,.27-.73,1.26,1.26,0,0,1,.75-.41l.5-.11.68-.15.62-.16a1.06,1.06,0,0,0-.17-.61.75.75,0,0,0-.62-.2,1.33,1.33,0,0,0-.6.11,1,1,0,0,0-.35.34,3,3,0,0,1-.2.3.38.38,0,0,1-.26.07.45.45,0,0,1-.31-.12.38.38,0,0,1-.13-.29.93.93,0,0,1,.2-.54,1.42,1.42,0,0,1,.62-.43,2.58,2.58,0,0,1,1-.17,3,3,0,0,1,1.1.16,1,1,0,0,1,.56.52,2.27,2.27,0,0,1,.16.94v.63c0,.18,0,.37,0,.58a2.35,2.35,0,0,0,.1.62,1.68,1.68,0,0,1,.1.41.4.4,0,0,1-.15.3.51.51,0,0,1-.35.13.49.49,0,0,1-.32-.15,2.63,2.63,0,0,1-.33-.44Zm-.07-1.53a4.52,4.52,0,0,1-.68.18l-.61.14a.79.79,0,0,0-.32.18.41.41,0,0,0-.16.36.5.5,0,0,0,.19.4.62.62,0,0,0,.47.17,1.27,1.27,0,0,0,.58-.14,1,1,0,0,0,.39-.35,1.68,1.68,0,0,0,.14-.79v-.15Zm5.87-1.39v3.06a3,3,0,0,1-.11.9,1.31,1.31,0,0,1-.36.63,1.55,1.55,0,0,1-.64.37,3.55,3.55,0,0,1-1,.12,2.67,2.67,0,0,1-1-.16,1.61,1.61,0,0,1-.66-.39.7.7,0,0,1-.23-.5.39.39,0,0,1,.13-.31.45.45,0,0,1,.32-.12.54.54,0,0,1,.4.2l.18.21a.86.86,0,0,0,.2.18.89.89,0,0,0,.26.12,1.94,1.94,0,0,0,.36,0,1.52,1.52,0,0,0,.63-.11.66.66,0,0,0,.32-.32,1.29,1.29,0,0,0,.1-.44c0-.15,0-.41,0-.75a1.72,1.72,0,0,1-.56.52,1.55,1.55,0,0,1-.76.18,1.62,1.62,0,0,1-.93-.27,1.86,1.86,0,0,1-.61-.76,2.85,2.85,0,0,1-.21-1.13,2.81,2.81,0,0,1,.13-.85,1.87,1.87,0,0,1,.37-.65,1.5,1.5,0,0,1,.55-.39,1.82,1.82,0,0,1,1.47,0,2.16,2.16,0,0,1,.61.54v-.14a.6.6,0,0,1,.13-.42.45.45,0,0,1,.35-.15.4.4,0,0,1,.4.19,1.31,1.31,0,0,1,.1.58Zm-3,1.33a1.44,1.44,0,0,0,.28,1,.91.91,0,0,0,.72.33,1,1,0,0,0,.5-.14,1,1,0,0,0,.38-.42,1.47,1.47,0,0,0,.15-.69,1.6,1.6,0,0,0-.29-1,.89.89,0,0,0-.74-.36.88.88,0,0,0-.73.35,1.53,1.53,0,0,0-.27,1Zm7.87,0a2.49,2.49,0,0,1-.15.87A2,2,0,0,1,38,70a1.91,1.91,0,0,1-.67.44,2.31,2.31,0,0,1-.86.15,2.41,2.41,0,0,1-.87-.15,1.94,1.94,0,0,1-1.08-1.12,2.45,2.45,0,0,1-.15-.87,2.5,2.5,0,0,1,.15-.88,2,2,0,0,1,.42-.68,1.89,1.89,0,0,1,.66-.43,2.45,2.45,0,0,1,.87-.15,2.35,2.35,0,0,1,.86.15,1.82,1.82,0,0,1,.67.44,1.77,1.77,0,0,1,.42.68,2.41,2.41,0,0,1,.15.87Zm-1.06,0a1.6,1.6,0,0,0-.28-1,1,1,0,0,0-1.31-.19.92.92,0,0,0-.36.47,2.09,2.09,0,0,0,0,1.45,1,1,0,0,0,1.67.28,1.58,1.58,0,0,0,.28-1Zm2.85-1.56V67a1.7,1.7,0,0,1,.61-.54,1.55,1.55,0,0,1,.76-.17,1.53,1.53,0,0,1,.74.18,1.15,1.15,0,0,1,.49.51,1.48,1.48,0,0,1,.14.42,4.45,4.45,0,0,1,0,.57v2a.69.69,0,0,1-.15.48.48.48,0,0,1-.38.16.49.49,0,0,1-.38-.16.69.69,0,0,1-.14-.48V68.2a1.68,1.68,0,0,0-.15-.79.58.58,0,0,0-.57-.28.87.87,0,0,0-.52.17,1,1,0,0,0-.34.46,3.34,3.34,0,0,0-.08.88V70a.74.74,0,0,1-.14.48.5.5,0,0,1-.39.16.47.47,0,0,1-.37-.16.69.69,0,0,1-.15-.48v-3a.65.65,0,0,1,.13-.45.49.49,0,0,1,.36-.14.51.51,0,0,1,.25.06.44.44,0,0,1,.18.2.63.63,0,0,1,.07.32Z"/></g></g></svg>