<svg xmlns="http://www.w3.org/2000/svg" viewBox="0 0 94.72 118.47"><defs><style>.cls-1{fill:#1a1a1a;}</style></defs><title>Asset 533</title><g id="Layer_2" data-name="Layer 2"><g id="Layer_1-2" data-name="Layer 1"><path class="cls-1" d="M93.29,35.77A42.78,42.78,0,1,1,59,1.43,47.37,47.37,0,1,0,93.29,35.77Zm-72-26.15a.67.67,0,1,1,0,1A.68.68,0,0,1,21.28,9.62Zm-5.67,4.83a.89.89,0,1,1,0,1.26A.89.89,0,0,1,15.61,14.45Zm-5.08,6a1.13,1.13,0,0,1,1.6,1.6,1.13,1.13,0,1,1-1.6-1.6ZM5.8,27.86l1.27.36L7.48,27l.32,1.28L9.09,28l-.94.92.89,1-1.27-.35-.4,1.25L7,29.48l-1.29.28.94-.92Zm-2,8.57,1.16,1.21,1.25-1.11-.46,1.61,1.59.54-1.63.4L6,40.72,4.85,39.51,3.6,40.62,4.06,39l-1.59-.53,1.63-.4ZM1.88,50a2.64,2.64,0,0,1-.08-.49,2.79,2.79,0,0,1,2.46-3.09,2.94,2.94,0,0,1,2.88,3.19,2.75,2.75,0,0,0-2.81-2.2A2.75,2.75,0,0,0,1.88,50Zm3.89,7.21a3.06,3.06,0,0,0-2.08,3,3,3,0,0,1-.37-.74,3.05,3.05,0,0,1,5.79-1.94,3.32,3.32,0,0,1,.16.81A3,3,0,0,0,5.77,57.21Zm4.74,10.92A3.42,3.42,0,0,0,8.86,71.3a3.47,3.47,0,0,1-1.1-1.12,3.41,3.41,0,1,1,6.32-2A3.42,3.42,0,0,0,10.51,68.13Zm9,11.5a2.88,2.88,0,1,1,0-4.07A2.89,2.89,0,0,1,19.49,79.63Zm10.05,6.48a3.4,3.4,0,0,1-4.67,1.18,3.47,3.47,0,0,1-1.12-1.1A3.4,3.4,0,0,0,26.87,81a3.4,3.4,0,0,1,2.67,5.14Zm9.85,3.69a3.05,3.05,0,0,1-3.86,1.93,3,3,0,0,1-.74-.37,3.06,3.06,0,0,0,1.87-5.58,3.32,3.32,0,0,1,.81.16A3,3,0,0,1,39.39,89.8Zm6.15,3.45a3.85,3.85,0,0,1-.49-.08,2.65,2.65,0,0,0,.39-5.26,2.71,2.71,0,1,1,.1,5.34ZM57,91l-.4,1.63L56,91l-1.61.46,1.11-1.25L54.33,89l1.64.33.4-1.63.54,1.59,1.61-.46-1.11,1.25,1.21,1.16Zm10.22-1.7-1-.89-.92.94L65.57,88l-1.28-.33,1.25-.4L65.19,86l1,.89.92-.94-.28,1.28,1.28.33L66.83,88Zm7.42-4.73a1.13,1.13,0,0,1-1.6-1.6,1.13,1.13,0,0,1,1.6,1.6Zm6-5.08a.89.89,0,1,1,0-1.26A.89.89,0,0,1,80.6,79.44Zm4.83-5.67a.67.67,0,1,1,0-1A.68.68,0,0,1,85.43,73.77Z"/><path class="cls-1" d="M75.83,20.55,74.77,21,75,22.13,74,21.44l-.9.72L73.28,21,72.2,20.6l1.06-.44L73.09,19l.91.69.9-.72-.14,1.14Zm1.84-3.2.44-.24a11.35,11.35,0,0,1,1.19-.52c.3-.11.62-.2.85-.27s.4-.11.39-.15-.17,0-.42,0a4.49,4.49,0,0,0-.91.19,7.52,7.52,0,0,0-1.25.51l-.45.25a9.77,9.77,0,0,0-1.16.8,6.57,6.57,0,0,0-.7.67c-.17.2-.27.35-.24.37a9.47,9.47,0,0,0,1.11-.84C77.07,17.7,77.67,17.35,77.67,17.35ZM79,18a6.79,6.79,0,0,0-1.13.27l-.42.16a6.23,6.23,0,0,0-1.09.56,2.86,2.86,0,0,0-.92.81,9.36,9.36,0,0,0,1-.63,8.68,8.68,0,0,1,1.07-.52c.13-.05.27-.11.41-.15a9.65,9.65,0,0,1,1.09-.29A5.33,5.33,0,0,0,80.18,18,3.3,3.3,0,0,0,79,18Zm-.08,1.65a2.75,2.75,0,0,0-.48-.09,3.4,3.4,0,0,0-.69,0,1.24,1.24,0,0,0-.27,0,4.28,4.28,0,0,0-.71.15c-.35.11-.67.31-.64.36s.36-.08.7-.15a6.85,6.85,0,0,1,.69-.12l.25,0s.33,0,.66,0,.65.06.68,0S79.05,19.74,78.93,19.69Z"/><path class="cls-1" d="M23.13,33.63l2.73-1.08-2-.8,2.15.42-1.72-2.38,2.3,1.83-.32-2.16.7,2.06,1.21-2.67-.44,2.9,1.71-1.35L28,32l2.92-.3-2.74,1.08,2,.8-2.14-.42,1.72,2.38-2.3-1.83.32,2.16-.71-2.06-1.2,2.67.44-2.9L24.62,35l1.43-1.65Zm47.29,31.8,2.13-.51L70.37,65l2-2.12-2.53,1.49.62-2.09-1,1.94-.81-2.82,0,2.94-1.5-1.59,1.19,1.83-2.86-.7,2.56,1.45L66,65.88l2.18-.12-2,2.12,2.53-1.49L68,68.48l1-1.94.82,2.82,0-2.94L71.32,68l-1.19-1.83,2.85.71ZM32.87,22.11l-2.17.21,2.17.19-2.3,1.82,2.71-1.14-.9,2,1.25-1.79.42,2.91.38-2.91,1.27,1.77-.93-2,2.73,1.09-2.33-1.78,2.17-.22-2.18-.18,2.31-1.82L34.76,21.4l.89-2L34.41,21.2,34,18.29l-.38,2.92-1.27-1.77.93,2-2.73-1.09ZM61.31,40.89l2.56.77-1.53,1.4,1.83-1-.12,2.67.77-2.55,1.41,1.52-1-1.82,2.66.11-2.55-.77,1.53-1.4-1.83,1,.11-2.66L64.4,40.7,63,39.18,64,41Zm-19.78,10,.46,2,.06-2.07,2.25,1.43-1.82-1.95,2-.45-2.07-.06,1.43-2.25-2,1.82-.45-2-.06,2.07L39.14,48,41,49.91l-2,.45,2.07.06-1.43,2.25Zm10.06,4.09.1,2.66.57-2.6,1.52,1.41-1.12-1.74,2.66-.1L52.72,54l1.41-1.52L52.38,53.6l-.09-2.66-.57,2.6L50.2,52.13l1.12,1.74-2.66.1,2.6.57-1.41,1.52ZM46.74,66l-2.52-.86,1.58-1.35-1.86.91L44.15,62l-.87,2.52-1.34-1.58.91,1.86-2.66-.21,2.52.87L41.14,66.8,43,65.89l-.21,2.66L43.65,66,45,67.6l-.91-1.86Zm18.52,9.13,1.53-1.4-1.83,1L65.08,72l-.78,2.56L62.9,73l1,1.83-2.66-.12,2.55.77-1.53,1.41,1.83-1L64,78.59,64.73,76l1.4,1.53-1-1.83,2.66.11ZM27.47,42.56l1.75-1.1-2,.63.6-2.6-1.23,2.37L25.53,40.1l.62,2-2.6-.6,2.37,1.23-1.76,1.1,2-.63-.6,2.6,1.22-2.37,1.1,1.76-.62-2,2.59.61ZM40,34.28l1.81-1-2,.53.72-2.56-1.33,2.31-1-1.81.54,2L36.09,33l2.31,1.33-1.81,1,2-.54-.72,2.57,1.33-2.31,1,1.8-.54-2,2.57.72Zm18.24-16.4-.6,2,1.07-1.78,1.27,2.35-.65-2.59,2,.59-1.78-1.06,2.35-1.27-2.59.64.59-2-1.06,1.78L57.51,14.2l.64,2.59-2-.59,1.77,1.06L55.6,18.53ZM78.92,48l1.52-1.41-1.82,1,.11-2.66L78,47.48,76.56,46l1,1.83-2.66-.11,2.55.77-1.52,1.4,1.82-1-.11,2.67L78.38,49l1.4,1.52-1-1.83,2.66.12Zm8.29.41-2.48-1,1.63-1.28-1.9.83.32-2.64-1,2.48-1.28-1.63.84,1.9-2.65-.32,2.48,1-1.62,1.28,1.89-.84-.32,2.65,1-2.48L85.4,50l-.83-1.89Zm-50.39-25,1.31.15-.26,1.29.77-1.07,1,.88-.53-1.21,1.25-.41L39,23l.26-1.29-.78,1.07-1-.88.53,1.21Zm9.37,4.2,1.3.25-.36,1.26.85-1,.92.95-.44-1.24,1.28-.32-1.3-.25.36-1.26-.85,1L47,26.11l.44,1.24ZM33,36.21l.9-1-1.22.49-.38-1.25-.18,1.3-1.28-.3,1,.81-.9,1,1.22-.5L32.56,38l.17-1.31L34,37Zm42.1,18L74.78,53l-.28,1.28-1.25-.39,1,.88-1,.89,1.25-.4.28,1.28.29-1.28,1.25.4-1-.89,1-.88ZM37.74,23c0-.11-.79-.25-.79-.25l-.16,0s-.85-.14-.87,0,.84.27.84.27l.15,0S37.72,23.08,37.74,23Zm1.72.69a13.89,13.89,0,0,0,2.31,1.24l3.15,1.44a12.15,12.15,0,0,0,2.29.87A12.93,12.93,0,0,0,45,26l-3.15-1.45A14.89,14.89,0,0,0,39.46,23.64ZM55.22,21a24,24,0,0,0,2.39-2.55A29.16,29.16,0,0,0,55,20.74l-3.55,3.44a31.15,31.15,0,0,0-2.56,2.7,27.66,27.66,0,0,0,2.8-2.49ZM61.34,39a14.15,14.15,0,0,0,2.14,1.62,16.23,16.23,0,0,0-1.94-1.86L51.3,30a20.55,20.55,0,0,0-2.45-1.9,20.56,20.56,0,0,0,2.24,2.14Zm8,4.86L73.7,46a25.19,25.19,0,0,0,3.15,1.37,25.34,25.34,0,0,0-3-1.66L69.48,43.6a28.57,28.57,0,0,0-3.35-1.47A26.44,26.44,0,0,0,69.35,43.89Zm11.94,3.89h-.24s-1.29,0-1.29.1,1.3.14,1.3.14h.23s1.23,0,1.23-.11S81.29,47.78,81.29,47.78ZM68.56,45.89a40.15,40.15,0,0,0-2.65-3.32,35.34,35.34,0,0,0,2.4,3.53l3.35,4.53a32.27,32.27,0,0,0,2.5,3.1,35.51,35.51,0,0,0-2.25-3.3Zm-3.23,17a16.39,16.39,0,0,0,2.38,1.35,15.86,15.86,0,0,0-2.21-1.62l-10-6.47A11.37,11.37,0,0,0,53.38,55a13.07,13.07,0,0,0,1.91,1.41ZM60.3,73l-13-5.83a16.38,16.38,0,0,0-2.66-1,17.78,17.78,0,0,0,2.53,1.3l13,5.84a23,23,0,0,0,3,1.19A22.3,22.3,0,0,0,60.3,73ZM42.21,51.2a29.14,29.14,0,0,0,.15,3.62l.42,5.08a30.89,30.89,0,0,0,.47,3.82,31.07,31.07,0,0,0-.16-3.86l-.42-5.09A25.26,25.26,0,0,0,42.21,51.2Zm.93-.78a13.24,13.24,0,0,0,2.27,1.11l3.08,1.27a11.56,11.56,0,0,0,2.24.75,12.39,12.39,0,0,0-2.13-1l-3.08-1.27A13.9,13.9,0,0,0,43.14,50.42Zm-2.07-1.73a10.78,10.78,0,0,0-1.15-1.94l-5.61-8.07s-1.11-1.6-1.25-1.51,1,1.69,1,1.69l5.61,8.07S41,48.78,41.07,48.69ZM29.93,39l-.36.38a17.36,17.36,0,0,0-1.89,2.21,17.56,17.56,0,0,0,2.13-2l.36-.38A15,15,0,0,0,32,37.09,17.24,17.24,0,0,0,29.93,39Zm.3-4.66a8,8,0,0,0-1.47-.78c-.07.1,1.35,1,1.35,1l.25.16s1.33.84,1.4.73-1.28-.94-1.28-.94Zm5.58.74-.36.14a13.48,13.48,0,0,0-2,.89,13.17,13.17,0,0,0,2.07-.67l.37-.15a11.56,11.56,0,0,0,1.86-.85A12.14,12.14,0,0,0,35.81,35.06Zm9.5-5.29s2-1.48,1.89-1.62a13.93,13.93,0,0,0-2.09,1.37l-2.83,2.11a15,15,0,0,0-2,1.71,14.51,14.51,0,0,0,2.23-1.46Z"/><path class="cls-1" d="M17.28,31.31a.9.9,0,1,1-.89-.89A.89.89,0,0,1,17.28,31.31Zm9.21-13.43a.6.6,0,0,0-.6.6.6.6,0,0,0,1.19,0A.6.6,0,0,0,26.49,17.88ZM81,61.1a.59.59,0,0,0-.6.59.6.6,0,1,0,1.19,0A.59.59,0,0,0,81,61.1ZM65.91,25.19a.59.59,0,0,0-.59.6.58.58,0,0,0,.59.59.59.59,0,0,0,.6-.59A.6.6,0,0,0,65.91,25.19ZM19.39,43.9a.59.59,0,0,0,.6-.59.6.6,0,0,0-.6-.6.59.59,0,0,0-.59.6A.58.58,0,0,0,19.39,43.9ZM54.56,7.66a.48.48,0,1,0,.48.48A.49.49,0,0,0,54.56,7.66Zm1,29.17a.48.48,0,1,0,.48.48A.48.48,0,0,0,55.53,36.83ZM28.13,54.72a.48.48,0,0,0-.59.33.47.47,0,0,0,.33.58.47.47,0,0,0,.59-.32A.47.47,0,0,0,28.13,54.72Zm34.49-4a.47.47,0,0,0-.58.33.46.46,0,0,0,.32.58.47.47,0,0,0,.59-.32A.47.47,0,0,0,62.62,50.72ZM50.74,74.29a.48.48,0,1,0,.47.47A.47.47,0,0,0,50.74,74.29ZM84.11,34.83,84,34l-.49.68-.78-.3.36.76-.66.52.84.08.13.83.48-.69.78.3-.35-.76.65-.52ZM32.67,69.91l.15-.83-.68.5L31.5,69l.09.83-.79.29.76.34-.14.82.68-.49.64.54-.09-.84.79-.28ZM82.78,26.23l.79-.28.46.7.16-.82.83,0-.63-.55.38-.75-.79.28-.46-.71-.16.83-.84,0,.64.55ZM45.42,9.71l-.08-.84-.52.65-.76-.35.3.78-.69.49.83.12.08.84.52-.65.76.35-.3-.78.68-.48ZM20.2,58.54l-.29-.79-.34.77-.82-.14.49.67-.53.65.83-.09.29.78.34-.76.82.14-.49-.68.53-.64Z"/><path class="cls-1" d="M31.11,110.83l-.16.69c-1.69,4.42-1.29,5.22-1.22,7-1.16-.46-1.37-1.35-1-2.55-3.19,4.45-8.11,2.78-8.11-2.8s4.77-12,8.87-12c3.56,0,2.26,5.59.34,5.59a.75.75,0,0,1-.67-.5c1.06-.76,3-4.44.39-4.44-3.11,0-7.2,7-7.2,11.82,0,2.61,1.23,4.18,2.89,4.18,2.26,0,4.1-3.71,4.31-6.53a11.45,11.45,0,0,0-3.54-.26C26.53,108.67,29.65,110.47,31.11,110.83Zm26.06-3.56c1.34,0,2-1.83.69-1.83-.69,0-1.58.51-1.58,1.12S56.69,107.27,57.17,107.27Zm17,6c-1.57,4.64-6.4,5.06-5.85,1.43-.81,1.37-1.81,2.28-3.06,2.28a1.33,1.33,0,0,1-1.51-1.38c0-.88.63-2,.63-3,0-.8-.37-1.06-.86-1.06-1.79,0-3.78,3.43-4.9,5.33a1.4,1.4,0,0,1-1.14-.47,11,11,0,0,1,.46-1.25c-1.8,2.54-5.3,2.79-5-.26-1.89,3.26-4.45,2.73-4.45.75,0-1.05.65-2.22.65-3.06,0-.56-.3-.78-.62-.78-.72,0-1.49,1.17-2.83,3.22a16.89,16.89,0,0,0-1,2c-.34,0-1.1-.13-1.1-.43,0-.5,2.41-5.78.82-5.78-1.25,0-3.84,3.41-4.89,6.32-.41,0-1.17-.24-1.17-.45s.33-1,.67-2.09c-2.7,3.94-7.42,3.69-7.42.41,0-2.57,2.93-6.22,5.48-6.22a1.19,1.19,0,0,1,1.34,1.32c0,2.2-2.89,4-5.35,4.18-.85,3.67,3.84,3.59,6.37-1.09a10.17,10.17,0,0,0,.4-2.27c.48-.54,1.57-.71,1.57.11a12.14,12.14,0,0,1-.56,2.46c4-6.29,7.23-4.76,5,.58.91-1.64,2.12-3.32,3.58-3.32.91,0,1.23.64,1.23,1.38,0,1.57-1.69,4.33-.15,4.33,1.13,0,2.11-1.74,2.78-3.17,1.33-4.35,3.2-4.55,3.2-3.58,0,.71-2.25,3.32-2.25,5.35,0,1,.35,1.3,1.06,1.3.95,0,2-.82,3.26-3.18a8.26,8.26,0,0,0,.39-2.09c.47-.53,1.57-.71,1.57.11a13.43,13.43,0,0,1-.69,2.85c3.44-5.25,6.09-4.24,6.09-1.86,0,1.34-.89,2.35-.89,3.41s1.51,1.66,3.58-2.36c1.34-4.33,3.17-4.48,3.17-3.53,0,.71-2.24,3.32-2.24,5.35,0,1,.34,1.3,1.06,1.3,1,0,2.09-.85,3.32-3.31Zm-41,.6c1.54-.54,4.3-2.07,4.3-3.92,0-.33-.09-.5-.46-.5C35.59,109.49,33.72,111.86,33.13,113.91Zm39.33-6.64c1.34,0,2-1.83.69-1.83-.69,0-1.57.51-1.57,1.12S72,107.27,72.46,107.27Z"/></g></g></svg>