<svg xmlns="http://www.w3.org/2000/svg" viewBox="0 0 97.14 77.48"><defs><style>.cls-1{fill:#1d1d1b;}</style></defs><title>Asset 440</title><g id="Layer_2" data-name="Layer 2"><g id="Layer_1-2" data-name="Layer 1"><path class="cls-1" d="M11.35,14.77a.46.46,0,0,1-.44-.35.46.46,0,0,1,.33-.56l7.81-2a.46.46,0,1,1,.22.89l-7.81,2Z"/><path class="cls-1" d="M14.81,28.7a.46.46,0,0,1-.41-.25L9.57,18.82a.45.45,0,0,1,.2-.62.47.47,0,0,1,.62.21L15.22,28a.44.44,0,0,1-.2.61A.41.41,0,0,1,14.81,28.7Z"/><path class="cls-1" d="M19.7,29.46a.46.46,0,0,1-.16-.89L30,24.71a.44.44,0,0,1,.58.27.46.46,0,0,1-.27.59L19.85,29.43A.4.4,0,0,1,19.7,29.46Z"/><path class="cls-1" d="M30.35,21.11a.47.47,0,0,1-.43-.28l-2.48-5.94a.46.46,0,0,1,.84-.36l2.49,6a.46.46,0,0,1-.25.6A.47.47,0,0,1,30.35,21.11Z"/><path class="cls-1" d="M8.05,61.93H7.94a.46.46,0,0,1-.34-.56l6.77-27.24a.46.46,0,0,1,.89.23L8.49,61.58A.46.46,0,0,1,8.05,61.93Z"/><path class="cls-1" d="M10.78,64.84A.46.46,0,0,1,10.6,64L38.65,52.44a.46.46,0,0,1,.6.25.47.47,0,0,1-.25.6L11,64.81Z"/><path class="cls-1" d="M58.35,52.36H58.3L46.68,51.19a.45.45,0,0,1-.41-.5.45.45,0,0,1,.5-.41l11.62,1.16a.47.47,0,0,1,.42.5A.47.47,0,0,1,58.35,52.36Z"/><path class="cls-1" d="M73.49,61.93a.5.5,0,0,1-.3-.11l-6.78-5.75a.45.45,0,0,1-.06-.64.46.46,0,0,1,.65-.06l6.79,5.75a.47.47,0,0,1,0,.65A.48.48,0,0,1,73.49,61.93Z"/><path class="cls-1" d="M80.21,63.5a.45.45,0,0,1-.4-.22.46.46,0,0,1,.16-.63l10.32-6.23a.46.46,0,0,1,.63.16.47.47,0,0,1-.15.63L80.44,63.44A.46.46,0,0,1,80.21,63.5Z"/><path class="cls-1" d="M91.46,51.19a.47.47,0,0,1-.39-.2L84,40.54a.46.46,0,1,1,.76-.52l7,10.46a.45.45,0,0,1-.13.63A.41.41,0,0,1,91.46,51.19Z"/><path class="cls-1" d="M66.7,50.57a.48.48,0,0,1-.3-.11.46.46,0,0,1,0-.65l8.12-9.3a.45.45,0,0,1,.64,0,.46.46,0,0,1,0,.64l-8.12,9.3A.44.44,0,0,1,66.7,50.57Z"/><path class="cls-1" d="M23.37,0c.89.3.62.77.61,1.18,0,2,0,3.89,0,6.12l1.11-1-.19,2c.91-.29.83-1.65,2.21-1.59L25.5,9.14a36.62,36.62,0,0,1,5.19.62c-.28.77-.67.72-1.22.59a30.29,30.29,0,0,0-3.14-.54,4.56,4.56,0,0,0-1.14.17c-.09.82.48,1.12.85,1.52s.69.7,1,1.07.43.69-.11,1c-1-.36-1.22-1.46-2-2-.54.37-.5.9-.48,1.42.07,2.4.16,4.8.21,7.2a8.17,8.17,0,0,1-.14,1.2l-.37,0a3.85,3.85,0,0,1-.27-.88c-.05-1.16,0-2.32-.08-3.47,0-.84-.21-1.66-.26-2.49,0-.57,0-1.15.06-1.73s0-1,0-1.52c-1.1.2-1.43,1.47-2.63,1.73.24-1.51,1.6-1.89,2.31-3-.39,0-.67-.07-.95-.07h-4c-.43,0-.9,0-1.1-.64.92-.51,1.8.13,2.68.09s1.83,0,2.87,0l-1-2.21c1.32-.71.8,1.25,1.77,1A54.46,54.46,0,0,1,23.37,0Z"/><path class="cls-1" d="M78.69,26.54c.89.31.62.77.62,1.18,0,2,0,3.89,0,6.13l1.1-1.05-.18,2c.9-.3.83-1.66,2.2-1.59l-1.59,2.46A38,38,0,0,1,86,36.3c-.27.77-.66.73-1.21.6a28,28,0,0,0-3.15-.54,3.89,3.89,0,0,0-1.14.17c-.08.81.48,1.11.85,1.52s.7.69,1,1.06.43.7-.11,1.06c-1-.37-1.21-1.46-2-2-.54.37-.5.91-.49,1.43.08,2.39.16,4.79.22,7.19A8.47,8.47,0,0,1,79.82,48l-.37,0a3.19,3.19,0,0,1-.27-.88c-.05-1.16,0-2.32-.08-3.47,0-.83-.21-1.66-.26-2.49,0-.57,0-1.15.06-1.72s0-1,0-1.53c-1.1.2-1.44,1.48-2.63,1.74.24-1.52,1.6-1.9,2.31-3-.39,0-.67-.07-1-.07h-4c-.43,0-.91,0-1.1-.64.92-.51,1.8.13,2.67.09s1.84,0,2.88,0l-1-2.21c1.33-.71.81,1.26,1.78,1A53.19,53.19,0,0,1,78.69,26.54Z"/><path class="cls-1" d="M6.17,56c.89.3.62.77.62,1.18,0,1.95,0,3.89,0,6.12l1.1-1-.18,2c.9-.29.83-1.65,2.2-1.59L8.31,65.17a36.48,36.48,0,0,1,5.18.62c-.27.77-.66.72-1.21.59a30.48,30.48,0,0,0-3.15-.54A4.63,4.63,0,0,0,8,66c-.08.82.48,1.12.85,1.52s.7.7,1,1.07.43.69-.11,1.05c-1-.36-1.21-1.46-2-2-.54.37-.5.9-.49,1.42.08,2.4.16,4.8.22,7.2a8.17,8.17,0,0,1-.14,1.2l-.37,0a3.41,3.41,0,0,1-.27-.88c0-1.16,0-2.32-.08-3.48,0-.83-.21-1.65-.26-2.48,0-.58,0-1.15.06-1.73s0-1,0-1.52c-1.1.2-1.44,1.47-2.63,1.73.24-1.52,1.6-1.89,2.31-3-.39,0-.67-.07-.95-.07-1.34,0-2.68,0-4,0-.43,0-.91,0-1.1-.63.92-.51,1.8.13,2.67.09s1.84,0,2.88,0l-1-2.21c1.33-.71.81,1.25,1.78,1A53.19,53.19,0,0,1,6.17,56Z"/><path class="cls-1" d="M28.41,22.42c.42,0,.83-.07,1.25-.09s.64,0,1,0c.67-.11,1.19-.36,1.3-1.16s.32-1.57.5-2.35a4.43,4.43,0,0,1,.15-.43c.4.09.33.34.31.57,0,.64-.11,1.28-.11,1.92a1.67,1.67,0,0,0,1.2,1.7c.36.12.71.24,1.06.39.2.08,1.51.47,1,.66a12.39,12.39,0,0,1-2.27.55c-.85.19-1.06.78-1.25,1.47a8.26,8.26,0,0,1-.4,1.12c0,.07-.33.69-.38.24,0-.7-.06-1.28,0-1.87,0-1.23.29-1-.94-1.6A13.66,13.66,0,0,0,29.05,23c-.24-.08-.46-.19-.69-.29S28.22,22.44,28.41,22.42Z"/><path class="cls-1" d="M60,50.08l1.22.28c.31.08.62.19.94.24a1.3,1.3,0,0,0,1.58-.73c.33-.72.77-1.4,1.16-2.1.08-.12.18-.23.28-.36.36.2.21.41.13.63-.23.6-.49,1.19-.67,1.8a1.67,1.67,0,0,0,.65,2c.3.22.61.43.89.68s1.31.89.75.91a11.46,11.46,0,0,1-2.34-.14c-.87-.07-1.24.44-1.62,1a9.36,9.36,0,0,1-.72.94c0,.07-.51.57-.42.13.19-.68.32-1.25.51-1.81.4-1.16.58-.9-.43-1.8a16.3,16.3,0,0,0-1.45-1,6.61,6.61,0,0,1-.58-.47C59.59,50.07,59.79,50.05,60,50.08Z"/><path class="cls-1" d="M38.12,50.62l1.24-.09c.32,0,.65,0,1-.05.68-.1,1.2-.35,1.31-1.16s.32-1.57.49-2.35a3.32,3.32,0,0,1,.16-.43c.4.09.32.34.31.57-.05.64-.12,1.28-.11,1.92a1.67,1.67,0,0,0,1.2,1.71c.35.12.71.24,1,.38s1.52.47,1,.66a11.54,11.54,0,0,1-2.26.55c-.86.19-1.07.78-1.25,1.48a10.51,10.51,0,0,1-.41,1.11c0,.08-.32.7-.37.24,0-.69-.06-1.28,0-1.87,0-1.23.29-1-.94-1.6a15.63,15.63,0,0,0-1.68-.53c-.24-.08-.47-.19-.7-.29S37.92,50.64,38.12,50.62Z"/><path class="cls-1" d="M72.75,63.88,74,63.79c.32,0,.64,0,1,0,.67-.1,1.2-.35,1.3-1.16s.32-1.56.5-2.35a4.29,4.29,0,0,1,.15-.42c.4.08.33.33.31.56,0,.64-.11,1.28-.11,1.92A1.68,1.68,0,0,0,78.32,64c.35.12.71.24,1.05.38s1.51.48,1,.66a11.46,11.46,0,0,1-2.27.55c-.85.19-1.06.79-1.25,1.48a8.63,8.63,0,0,1-.4,1.11c0,.08-.33.7-.37.25,0-.7-.07-1.29,0-1.88,0-1.23.29-1-.94-1.6a15.63,15.63,0,0,0-1.68-.53c-.24-.08-.46-.19-.69-.29S72.56,63.9,72.75,63.88Z"/><path class="cls-1" d="M89.42,53.45l1.24-.1c.32,0,.65,0,1-.05.67-.1,1.19-.35,1.3-1.16s.32-1.56.49-2.34a2.5,2.5,0,0,1,.16-.43c.4.08.32.33.31.57,0,.63-.12,1.27-.11,1.91A1.66,1.66,0,0,0,95,53.56c.35.12.71.24,1,.38s1.52.48,1,.66a12.38,12.38,0,0,1-2.26.56c-.86.18-1.07.78-1.25,1.47a11.57,11.57,0,0,1-.41,1.12c0,.07-.32.69-.37.24,0-.7-.06-1.29,0-1.87,0-1.24.29-1-.94-1.61A15.63,15.63,0,0,0,90.06,54c-.24-.08-.47-.19-.7-.28S89.22,53.46,89.42,53.45Z"/><path class="cls-1" d="M5.36,15c.42,0,.83-.07,1.25-.09s.64,0,1-.05c.67-.11,1.2-.36,1.3-1.16s.32-1.57.5-2.35a4.43,4.43,0,0,1,.15-.43c.4.09.33.33.31.57,0,.64-.11,1.28-.11,1.91a1.68,1.68,0,0,0,1.2,1.71c.36.12.71.24,1.06.39.2.08,1.51.47,1,.65a12.28,12.28,0,0,1-2.27.56c-.85.18-1.06.78-1.25,1.47A9.35,9.35,0,0,1,9,19.29c0,.07-.33.69-.37.24,0-.7-.07-1.29-.05-1.87.05-1.23.29-1-.94-1.6A15.67,15.67,0,0,0,6,15.52c-.24-.07-.46-.19-.69-.28S5.17,15,5.36,15Z"/><path class="cls-1" d="M13,29.93l1.24-.09c.32,0,.65,0,1-.05.67-.11,1.19-.36,1.3-1.16s.32-1.57.49-2.35a2.85,2.85,0,0,1,.16-.43c.4.09.33.33.31.57-.05.64-.12,1.28-.11,1.91A1.66,1.66,0,0,0,18.59,30c.36.12.71.24,1.06.39s1.51.47,1,.65a12.68,12.68,0,0,1-2.27.56c-.86.19-1.06.78-1.25,1.47a11.57,11.57,0,0,1-.41,1.12c0,.07-.32.69-.37.24,0-.7-.06-1.29,0-1.87,0-1.23.29-1-.94-1.6a15.67,15.67,0,0,0-1.68-.54,6,6,0,0,1-.7-.28C12.65,30,12.84,30,13,29.93Z"/><path class="cls-1" d="M50.67,15.68a2.43,2.43,0,0,1-2.6,2.45,2,2,0,0,1-1.13-.29l.08-.12a1.76,1.76,0,0,0,.76.16c1,0,1.49-.88,1.49-2.06,0-1.43-.66-2.27-1.84-2.27a2.5,2.5,0,0,0-.74.11v7.07c0,1.19.12,1.35.63,1.44v.12l-1.27,0-1.27,0v-.12c.52-.09.62-.25.62-1.44v-6c0-1.19-.12-1.35-.64-1.44v-.12l1.24,0,1.47,0C49.68,13.22,50.67,14.34,50.67,15.68ZM52.88,21v-4.7a4,4,0,0,1-1.55.32v.13c.37.09.39.29.39.89V21c0,1-.17,1.05-.54,1.13v.12l1.12,0,1.12,0v-.12C53.05,22.09,52.88,22,52.88,21Zm-.54-5.44A.59.59,0,0,0,53,15a.61.61,0,1,0-1.22,0A.59.59,0,0,0,52.34,15.6Zm3,1.87a.91.91,0,0,1,1-.92,1.47,1.47,0,0,1,1.39,1.3h.12c0-.39,0-.7,0-.92a1.91,1.91,0,0,1,0-.46c-.54,0-1-.17-1.54-.17-1.11,0-2,.58-2,1.67,0,1.87,2.68,1.46,2.68,3.13a1,1,0,0,1-1,1c-1,0-1.38-.85-1.35-1.74H54.5c-.11.5-.07,1.32-.15,1.73a11.26,11.26,0,0,0,1.7.26,1.87,1.87,0,0,0,2.06-1.81C58.11,18.58,55.33,18.91,55.33,17.47ZM62,16.55c.78,0,1,.52,1,1.19h1.21a2,2,0,0,0-2.18-1.44A3,3,0,0,0,59,19.36a2.89,2.89,0,0,0,3,3,2.5,2.5,0,0,0,2.17-1.13L64,21.17a2,2,0,0,1-1.57.69c-1.29,0-2.19-1-2.19-2.78C60.28,17.73,60.82,16.55,62,16.55Zm8,4.55.09.11a2.62,2.62,0,0,1-2.25,1.18,2.91,2.91,0,0,1-3-3.06,2.88,2.88,0,0,1,2.82-3,2.23,2.23,0,0,1,2.35,2.34H66.17s0,.11,0,.31c0,1.75,1,2.83,2.28,2.83A2.14,2.14,0,0,0,70,21.1Zm-3.79-2.79H68.8c0-1.18-.46-1.76-1.14-1.76S66.36,17.33,66.21,18.31ZM72,17.47a.9.9,0,0,1,1-.92,1.46,1.46,0,0,1,1.39,1.3h.13c0-.39,0-.7,0-.92a2.61,2.61,0,0,1,0-.46c-.53,0-1-.17-1.54-.17-1.11,0-2,.58-2,1.67,0,1.87,2.69,1.46,2.69,3.13a1,1,0,0,1-1,1c-1,0-1.38-.85-1.34-1.74h-.13c-.11.5-.07,1.32-.14,1.73a11.26,11.26,0,0,0,1.7.26,1.86,1.86,0,0,0,2-1.81C74.8,18.58,72,18.91,72,17.47Z"/></g></g></svg>