<svg xmlns="http://www.w3.org/2000/svg" viewBox="0 0 111.69 128.59"><title>Asset 567</title><g id="Layer_2" data-name="Layer 2"><g id="Layer_1-2" data-name="Layer 1"><path d="M110.62,48.13c-.7-1.51-1.26-2.17-1.87-2.19a1.27,1.27,0,0,0-.13-.19,1.6,1.6,0,0,0-2.28-.13A63.66,63.66,0,0,0,101.2,50a2.3,2.3,0,0,0-1.19.08,77.69,77.69,0,0,1-8.1.78,3,3,0,0,0-.55-.46,16.72,16.72,0,0,0-3.28-1,34.63,34.63,0,0,1-6.25-2,3.75,3.75,0,0,0,.88-2.08c0-.11,0-.21,0-.31a13.55,13.55,0,0,1,4.12-.78c.68,0,1.5.06,2.37.11,2.48.17,4.18.23,5.09-.25,2.75-.63,8.67-4.74,10.48-6.56a3.13,3.13,0,0,0,.74-1.13c3.69-4.37,1.14-8.23.58-9l-1,.66c.42.7-.35,2.25-1.31,3.48a3.75,3.75,0,0,0-.7,2.33,2,2,0,0,0-.77.43c-.94.83-6.3,3.52-8.64,4.66-.68-.21-2.24-.31-6.25.1-2.09.22-4.14.51-5.11.65v0c.06-.59.12-1.17.21-1.79.84-.76,6.13-2.05,7.75-1.72a2.67,2.67,0,0,0,2.47-.72,1.15,1.15,0,0,0,.3-.68A26,26,0,0,0,98.77,32c3.3-2.11,2.61-6,2.11-8.79a12,12,0,0,1-.29-2.46c.1-1.74-.11-2.55-.74-2.8l-.18-.05c-2.35-7.49-6.33-12-12.48-14.13a5.42,5.42,0,0,0-3.63-.1A25.34,25.34,0,0,0,78.24,1c-4.32-1.53-8-1.26-10.78.77l-1,.74,1.19.3C71.89,3.86,77.44,6,80,10.38a.28.28,0,0,1,0,.09,3.16,3.16,0,0,0-2.68.11l-.21.08s0-.08,0-.12a1.18,1.18,0,0,0-.42-.95,1.48,1.48,0,0,0-1.19-.1c-.84.21-3.17-.74-5.22-1.59l-1.4-.57-1.22-.49.45,1.24c3.35,9.09,10.55,10.72,12,11A8.57,8.57,0,0,0,82,20.74c2.23,1.5,6.3,4.56,7.52,5.48a3.4,3.4,0,0,1-.79,1.28h0a2,2,0,0,0-2,1.33,13.48,13.48,0,0,1-3.17,3A1.75,1.75,0,0,0,82,31.7c-1.12.28-3-1.24-5.2-3-1.21-1-2.57-2.07-4.08-3.1a6.42,6.42,0,0,0-4.84-1.35,4,4,0,0,0-1.24.46,3.53,3.53,0,0,0-.31-1.61,1.75,1.75,0,0,0-1.09-.92,3.11,3.11,0,0,0-3.27,1c-1.14-2-4.81-2.73-6.12-3l0,.28-.05-.28c-1.31.22-5,1-6.11,3a3.13,3.13,0,0,0-3.28-1,1.77,1.77,0,0,0-1.09.92A3.53,3.53,0,0,0,45,24.72a4,4,0,0,0-1.23-.46,6.41,6.41,0,0,0-4.84,1.35c-1.51,1-2.88,2.13-4.09,3.1-2.19,1.75-4.08,3.26-5.19,3a1.77,1.77,0,0,0-1.5.09,13.41,13.41,0,0,1-3.16-3,2,2,0,0,0-2-1.33h0a3.53,3.53,0,0,1-.79-1.28c1.23-.92,5.3-4,7.53-5.48A9.07,9.07,0,0,0,31.56,19c1.47-.24,8.67-1.87,12-11L44,6.84l-1.22.49-1.4.57c-2,.85-4.37,1.8-5.22,1.59a1.48,1.48,0,0,0-1.19.1,1.17,1.17,0,0,0-.41.95s0,.08,0,.12l-.21-.08a3.16,3.16,0,0,0-2.68-.11v-.09C34.25,6,39.81,3.86,44,2.79l1.2-.3-1-.74C41.5-.28,37.77-.55,33.46,1a24.82,24.82,0,0,0-5.32,2.67,5.45,5.45,0,0,0-3.64.1C18.36,5.88,14.38,10.39,12,17.88l-.18.05c-.63.25-.84,1.06-.73,2.8a12.88,12.88,0,0,1-.3,2.46C10.31,26,9.62,29.87,12.92,32a25.8,25.8,0,0,0,5.72,2.93,1.14,1.14,0,0,0,.29.68,2.69,2.69,0,0,0,2.48.72c1.61-.33,6.9,1,7.74,1.72.09.62.15,1.2.21,1.79v0c-1-.14-3-.43-5.12-.65-4-.41-5.57-.31-6.25-.1-2.33-1.14-7.7-3.83-8.64-4.66A2.09,2.09,0,0,0,8.6,34a3.84,3.84,0,0,0-.71-2.33c-.95-1.23-1.73-2.78-1.31-3.48l-1-.66c-.55.73-3.11,4.59.58,9a3.13,3.13,0,0,0,.74,1.13c1.82,1.82,7.73,5.93,10.49,6.56.9.48,2.61.42,5.09.25.86,0,1.68-.11,2.36-.11a13.55,13.55,0,0,1,4.12.78c0,.1,0,.2,0,.31a3.82,3.82,0,0,0,.88,2.08,34.76,34.76,0,0,1-6.24,2,16.47,16.47,0,0,0-3.28,1,2.75,2.75,0,0,0-.56.46,78,78,0,0,1-8.1-.78A2.29,2.29,0,0,0,10.49,50a62,62,0,0,0-5.14-4.41,1.6,1.6,0,0,0-2.28.13,1.27,1.27,0,0,0-.13.19c-.61,0-1.17.68-1.87,2.19a10.56,10.56,0,0,0-1,5.62v.13c0,.24,0,.79.56.88H.72c.43,0,.6-.43.79-.91a6.35,6.35,0,0,1,1.16-2.09,6.05,6.05,0,0,1,1.25-.89,6.76,6.76,0,0,0,.79-.53,36.45,36.45,0,0,0,4.91,3.76c.34.41,1.06.53,2.58.44a33.88,33.88,0,0,1,4.11.14c1,.08,1.86.14,2.62.14a4.46,4.46,0,0,0,2.15-.38,2.5,2.5,0,0,0,.8.11A14.32,14.32,0,0,0,24,54.3c.84-.14,1.9-.32,3.18-.45,3.13-.3,7.11-.76,8.73-1-.67.61-1.5,1.5-1.26,2.43a16.66,16.66,0,0,1-7.58,1.36c-2.69-.21-4.12,0-4.76.72A2,2,0,0,0,22,59.23c0,.06,0,.14.05.22-1.05.74-4.76,3.56-5,6.59a7.53,7.53,0,0,0,.21,2.39,7.41,7.41,0,0,0-1.1,5.88c.56,3,2.16,5,3.3,5h0a.84.84,0,0,0,.84-.75,5,5,0,0,0-.22-1.64c-.39-1.73-1-4.61.2-6.77a3.8,3.8,0,0,0,1-1.13,12.55,12.55,0,0,0,1.26-2.84,4.89,4.89,0,0,1,1.61-2.66,1.25,1.25,0,0,0,.41.18,1,1,0,0,0,.25,0,4.59,4.59,0,0,0,2-.89,10.62,10.62,0,0,1,4.41-1.77c.91-.09,1.59-.11,2.13-.13,1.22,0,1.84-.06,2.49-.78a2.21,2.21,0,0,0,.33-.05,14.89,14.89,0,0,0,4.37-2.37A4.55,4.55,0,0,0,40.39,59c-.84.55-4.12,2.68-5.36,3.29a1,1,0,0,0-.71.88s0,.06,0,.1a5.88,5.88,0,0,0-2.21,5.15,3.94,3.94,0,0,0,.37,1.5A6.3,6.3,0,0,0,33.06,73c.74,1.62,2.51,3.83,6.81,5.22l1.73.55-1.08-1.46c-1.87-2.54-1.78-3.71-1.67-5.06a8.17,8.17,0,0,0-.11-2.51h0c.57-.84.31-2.39-.17-3.65a9.73,9.73,0,0,0,6-4.65,6.16,6.16,0,0,0,4-2.59,7,7,0,0,1,2.59-.13c1.91.35,4.18,2.36,4.61,2.76l.35-.37.12.15a11,11,0,0,1,4.45-2.54,7,7,0,0,1,2.6.13,6.11,6.11,0,0,0,3.94,2.59,9.74,9.74,0,0,0,6,4.65c-.49,1.26-.75,2.81-.18,3.65h0a8.13,8.13,0,0,0-.1,2.51c.1,1.35.19,2.52-1.68,5.06L70.09,78.8l1.73-.55c7.46-2.4,7.47-7.32,7.38-8.36a3.76,3.76,0,0,0,.37-1.5,5.86,5.86,0,0,0-2.21-5.15.38.38,0,0,0,0-.1c0-.36-.24-.66-.71-.88-1.24-.61-4.52-2.74-5.35-3.29a5,5,0,0,0-.17-1.22,14.64,14.64,0,0,0,4.37,2.37,1.92,1.92,0,0,0,.32.05c.66.72,1.27.75,2.49.78.54,0,1.22,0,2.14.13a10.58,10.58,0,0,1,4.4,1.77,4.59,4.59,0,0,0,2,.89,1.15,1.15,0,0,0,.26,0,1.47,1.47,0,0,0,.41-.18,4.94,4.94,0,0,1,1.6,2.66A13,13,0,0,0,90.4,69a3.8,3.8,0,0,0,1,1.13c1.23,2.16.59,5,.21,6.77a5,5,0,0,0-.23,1.64.84.84,0,0,0,.85.75h0c1.14,0,2.73-2,3.29-5a7.41,7.41,0,0,0-1.1-5.88A7.25,7.25,0,0,0,94.61,66c-.2-3-3.92-5.85-5-6.59,0-.08,0-.16,0-.22a2,2,0,0,0-.32-1.83c-.64-.71-2.06-.93-4.76-.72A16.66,16.66,0,0,1,77,55.32c.25-.93-.59-1.82-1.26-2.43,1.63.2,5.6.66,8.74,1,1.28.13,2.33.31,3.18.45a14.17,14.17,0,0,0,2.13.26,2.43,2.43,0,0,0,.79-.11,4.48,4.48,0,0,0,2.15.38c.77,0,1.66-.06,2.62-.14a33.88,33.88,0,0,1,4.11-.14c1.52.09,2.24,0,2.58-.44A35.83,35.83,0,0,0,107,50.35a7.73,7.73,0,0,0,.79.53,6.4,6.4,0,0,1,1.26.89,6.53,6.53,0,0,1,1.16,2.09c.19.48.35.91.78.91h.12c.52-.09.55-.64.56-.88v-.13A10.58,10.58,0,0,0,110.62,48.13ZM107,46.59c.5-.35.67-.15.72-.09a1.52,1.52,0,0,1-.22,1.77,44.76,44.76,0,0,1-5.48,4.5l-.12-.21a2.87,2.87,0,0,1-.29-.53,1.27,1.27,0,0,1,.07-.68c0-.06,0-.13,0-.19A67.46,67.46,0,0,1,107,46.59ZM104.73,32.4a10.08,10.08,0,0,0,1.34-2.25,5.66,5.66,0,0,1-.76,4.64,1.55,1.55,0,0,0-.19-.24,2.08,2.08,0,0,0-.85-.53A2.62,2.62,0,0,1,104.73,32.4Zm-1.62,2.91a.84.84,0,0,1,1.16,0c.33.35.21.89-.34,1.44a37.46,37.46,0,0,1-8.71,5.83A4.29,4.29,0,0,0,94.58,40C96.58,39,102,36.29,103.11,35.31Zm-9.77,4.92c.66.87,1,2.17.47,2.86-.35.46-3.08.28-4.55.18-.88-.05-1.72-.11-2.44-.11a15,15,0,0,0-4.83,1,6,6,0,0,1,.09-2.18l.09-.66c0-.08,0-.15,0-.23C87,40.33,92.51,39.82,93.34,40.23ZM98.14,31a22.86,22.86,0,0,1-5.84,2.92l-.25-.06c-.46-.21-1.64-2.62-2-4.52a3,3,0,0,0-.42-1.16,4.48,4.48,0,0,0,1.13-3.68c0-.21-.06-.43-.1-.65-.17-1.12-.39-2.52.07-2.92.24-.22.81-.21,1.59,0,2.95.84,5.12.38,6.65-1.41a2.56,2.56,0,0,1,.36-.37,5.86,5.86,0,0,1,0,1.5,12.84,12.84,0,0,0,.3,2.73C100.19,26,100.78,29.31,98.14,31ZM69.26,2c4.72-2.36,10.87.9,13.1,2.27a4.66,4.66,0,0,0-.78.7,7.14,7.14,0,0,0-1.64,3.27C77.24,5,73,3.08,69.26,2Zm6.89,14.28a15.52,15.52,0,0,1-6.42-7.35l.11.05c2.53,1,4.72,1.94,5.94,1.64l.16,0v0a1.89,1.89,0,0,0,.25.9c.4.6,1.1.32,1.57.14a2.24,2.24,0,0,1,1.54-.22l-.07.08A3.42,3.42,0,0,0,78,13.78a8.45,8.45,0,0,0,1.16,3.82A14.15,14.15,0,0,1,76.15,16.29Zm3-2.51c0-.47.47-1,.92-1.44.65-.69,1.45-1.53,1-2.6a5.26,5.26,0,0,1,1.39-4,3.78,3.78,0,0,1,4.36-.92c3.67,1.28,8.84,4.06,11.78,13.45a3.9,3.9,0,0,0-.46.47c-.82,1-2.19,2-5.43,1a2.77,2.77,0,0,0-2.69.24c-.94.83-.69,2.43-.44,4l.09.62c0,.08,0,.15,0,.22-1.62-1.22-5-3.77-7-5.11A8.31,8.31,0,0,1,79.16,13.78Zm3.79,22a13.09,13.09,0,0,1,.55-1.76,9.09,9.09,0,0,0,.33-1c.76-.54,3.24-2.38,3.91-3.68.28-.55.62-.72.75-.7s.36.31.45.87c.24,1.49,1.44,5,2.75,5.45a1.67,1.67,0,0,1-1.17.19c-1.29-.26-5.54.45-7.73,1.4C82.84,36.32,82.89,36.07,83,35.81Zm-53.58-3c1.68.43,3.58-1.1,6.22-3.21,1.19-1,2.54-2,4-3a5.35,5.35,0,0,1,3.92-1.18,2.82,2.82,0,0,1,1.65,1A45,45,0,0,0,47,32.76l.17.5,1.11-.38-.17-.5c-1-3.09-2.47-7.33-1.75-8.73a.6.6,0,0,1,.39-.34c1.51-.45,2.42,1,2.62,1.4v.06c.41,3,1.09,6.54,1.1,6.57l1.15-.22s-.68-3.55-1.09-6.51c-.24-1.74,3.16-2.82,5.32-3.21,2.15.39,5.55,1.47,5.31,3.21-.4,3-1.08,6.48-1.08,6.51l1.15.22s.69-3.58,1.09-6.57a.13.13,0,0,0,0-.06c.19-.37,1.1-1.85,2.62-1.4a.6.6,0,0,1,.38.34c.73,1.4-.7,5.64-1.75,8.73l-.17.5,1.11.38.17-.5a46.46,46.46,0,0,0,1.84-6.4,2.75,2.75,0,0,1,1.64-1,5.38,5.38,0,0,1,3.93,1.18c1.47,1,2.82,2.08,4,3,2.63,2.11,4.53,3.64,6.21,3.21l.37-.07c-.06.24-.19.6-.29.89a13.84,13.84,0,0,0-.6,1.9,34.41,34.41,0,0,0-.64,4.15c0,.46-.09.93-.16,1.43,0,.22-.06.44-.08.64-.23,1.62-.42,3,.61,3.44a1.91,1.91,0,0,1-.25,1,1.93,1.93,0,0,1-1.19,1.08c-.37.08-.73.13-1.09.18-1.23.19-2.5.38-3.13,1.53-.62.8-7.17,1.34-9,.53-.49-.21-1.29-.63-2.22-1.12C61.9,47,58.13,45,55.87,44.68l0,.14,0-.14c-2.26.35-6,2.31-8.78,3.74-.93.49-1.74.91-2.22,1.12-1.83.81-8.38.27-9-.51-.63-1.17-1.91-1.36-3.14-1.55-.35,0-.72-.1-1.08-.18a2,2,0,0,1-1.2-1.08,1.91,1.91,0,0,1-.25-1c1-.43.84-1.82.62-3.43l-.09-.65c-.06-.5-.11-1-.16-1.43a30.82,30.82,0,0,0-.64-4.15,15.47,15.47,0,0,0-.59-1.9,9.34,9.34,0,0,1-.3-.89Zm4.56-21.16c.47.18,1.17.46,1.57-.14a1.79,1.79,0,0,0,.25-.9v0l.15,0c1.22.3,3.41-.6,6-1.64l.1-.05a15.5,15.5,0,0,1-6.41,7.35,14.41,14.41,0,0,1-3,1.31,8.49,8.49,0,0,0,1.17-3.82,3.39,3.39,0,0,0-1.25-2.25l-.07-.08A2.23,2.23,0,0,1,33.93,11.67ZM42.43,2c-3.68,1.07-8,3-10.68,6.24A7.22,7.22,0,0,0,30.12,5a5.15,5.15,0,0,0-.79-.7C31.56,2.91,37.71-.36,42.43,2ZM24.89,4.85a3.79,3.79,0,0,1,4.36.92,5.26,5.26,0,0,1,1.39,4c-.48,1.07.32,1.91,1,2.6.45.47.92,1,.92,1.44a8.31,8.31,0,0,1-3.47,6c-2,1.34-5.41,3.89-7,5.11,0-.07,0-.14,0-.22s.06-.41.1-.62c.24-1.56.49-3.16-.45-4A2.75,2.75,0,0,0,19,19.81c-3.25.93-4.61-.07-5.44-1a4.73,4.73,0,0,0-.46-.48C16.06,8.91,21.22,6.13,24.89,4.85Zm-5.22,29-.27.07A22.82,22.82,0,0,1,13.55,31c-2.64-1.69-2.05-5-1.58-7.61a12.93,12.93,0,0,0,.31-2.73,6.07,6.07,0,0,1,0-1.5,3.13,3.13,0,0,1,.37.37c1.52,1.79,3.69,2.25,6.65,1.41.78-.22,1.34-.22,1.59,0,.45.4.23,1.8.06,2.93,0,.21-.07.43-.1.64A4.52,4.52,0,0,0,22,28.18a2.83,2.83,0,0,0-.41,1.16C21.29,31.24,20.1,33.65,19.67,33.85Zm1.5,1.31A1.63,1.63,0,0,1,20,35c1.3-.44,2.5-4,2.75-5.45.09-.56.29-.84.44-.87s.47.15.75.7c.67,1.3,3.15,3.14,3.91,3.68a9.34,9.34,0,0,0,.34,1,14.71,14.71,0,0,1,.55,1.76q.09.39.15.75C26.72,35.61,22.47,34.9,21.17,35.16Zm-15.55-5A9.69,9.69,0,0,0,7,32.4,2.62,2.62,0,0,1,7.42,34a2.15,2.15,0,0,0-.85.53,1.55,1.55,0,0,0-.19.24A5.66,5.66,0,0,1,5.62,30.16Zm1.8,5.2a.84.84,0,0,1,1.16,0c1.1,1,6.53,3.68,8.53,4.66a4.35,4.35,0,0,0-.64,2.66A37.46,37.46,0,0,1,7.76,36.8C7.22,36.25,7.09,35.71,7.42,35.36Zm15,7.91c-1.47.1-4.19.28-4.55-.18-.54-.69-.19-2,.47-2.86.83-.41,6.34.1,11.15.82l0,.23.09.66a5.72,5.72,0,0,1,.08,2.18,14.86,14.86,0,0,0-4.83-1C24.15,43.16,23.31,43.22,22.43,43.27ZM4,46.5c.06-.06.22-.26.72.09,1.53,1,4.76,4.08,5.28,4.56,0,.07,0,.14,0,.2a1.36,1.36,0,0,1,.06.68,3.47,3.47,0,0,1-.28.53l-.13.21a43.86,43.86,0,0,1-5.47-4.5A1.51,1.51,0,0,1,4,46.5Zm-.65,3.37a7.23,7.23,0,0,0-1.48,1.07,3.82,3.82,0,0,0-.61.78,9.85,9.85,0,0,1,.91-3.1,8,8,0,0,1,.51-1,2.6,2.6,0,0,0,.72,1.45l.46.45ZM16.4,53.52a35.67,35.67,0,0,0-4.26-.14,6.57,6.57,0,0,1-1.46,0l.11-.18a3.68,3.68,0,0,0,.41-.79,2.16,2.16,0,0,0,0-1.19l.21,0a70.89,70.89,0,0,0,8,.8,4.5,4.5,0,0,0,.66,1.53A17.89,17.89,0,0,1,16.4,53.52Zm10.67-.83c-1.32.13-2.39.31-3.26.45-1.8.3-2.4.37-2.64,0-.78-1.32-.7-1.36-.21-1.67a19.6,19.6,0,0,1,2.94-.84c2.46-.61,5.44-1.35,7-2.32a2.21,2.21,0,0,0,.51.18c.4.08.78.14,1.16.19,1.19.18,1.94.32,2.28.94a1,1,0,0,0,.32.35,11.47,11.47,0,0,0,.63,1.8C34.11,51.93,30.18,52.38,27.07,52.69ZM17.34,74.1a6.65,6.65,0,0,1,.53-4.38,1.92,1.92,0,0,0,1,.75h.05c-.87,2.36-.28,5,.09,6.71.05.23.11.48.15.7A7,7,0,0,1,17.34,74.1Zm4.1-8.28a11.67,11.67,0,0,1-1.15,2.6c-.4.66-.83,1-1.11.93-.47-.15-1.05-1.35-.92-3.23.15-2.25,2.92-4.56,4.14-5.47a9.12,9.12,0,0,0,.94,2A6,6,0,0,0,21.44,65.82Zm11.9-6c-.53,0-1.26,0-2.21.13a11.52,11.52,0,0,0-4.91,1.94,6.15,6.15,0,0,1-1.39.72h0c-.43-.1-1.38-2-1.67-3.55-.09-.47-.08-.7,0-.83s1-.56,3.8-.34a17.77,17.77,0,0,0,8-1.38c0,.34-.12.74-.17,1a3.51,3.51,0,0,0-.05,2.12A3.09,3.09,0,0,1,33.34,59.78Zm2.59-.8-.15,0A5.28,5.28,0,0,1,36,57.7c.19-.94.39-1.92-.09-2.54-.27-.34.31-.93,1-1.52a10.17,10.17,0,0,0,3.35,2.92A15.47,15.47,0,0,1,35.93,59ZM43,60.23c-1.74-.45-1.55-1.21-1.26-2.36.05-.18.09-.35.13-.53.43.18.83.33,1.2.46a7.31,7.31,0,0,1,1.64.73,2.91,2.91,0,0,0,2,.6A3.92,3.92,0,0,1,43,60.23Zm-7.91,3.91.47.27a4.67,4.67,0,0,1,1.28.88h0l.12.17a.19.19,0,0,1,0,.08,1.28,1.28,0,0,0,.19.31c.56,1.08.95,2.74.6,3.26,0,0-.11.17-.56,0a4.9,4.9,0,0,0-2.72.14,2.15,2.15,0,0,1-.9.13s-.22-.2-.3-1.14A4.7,4.7,0,0,1,35.08,64.14Zm-1.44,6.48h.07a4.63,4.63,0,0,0,1.08-.19,3.77,3.77,0,0,1,2.1-.14,2.5,2.5,0,0,0,.77.09,7.87,7.87,0,0,1,0,1.81,6.48,6.48,0,0,0,.9,4.31C34.37,74.63,33.71,71.9,33.64,70.62ZM38.05,65,38,64.9a4.2,4.2,0,0,0-1.86-1.52l-.33-.19c1.3-.68,3.85-2.33,4.94-3a3.12,3.12,0,0,0,2,1.22l.51.09C41.91,63.57,38.85,65.08,38.05,65ZM60.4,57.6a11.17,11.17,0,0,0-4.6,2.46,11.21,11.21,0,0,0-4.51-2.46,8.42,8.42,0,0,0-3.25.17c-1.21.22-2,.34-2.61-.16a7.7,7.7,0,0,0-2-.91c-2.2-.8-5.42-2-6.93-6.16a20.1,20.1,0,0,0,4.93.55,11.19,11.19,0,0,0,3.82-.48c.52-.23,1.3-.63,2.29-1.15,2.47-1.28,6.17-3.2,8.27-3.59,2.1.39,5.8,2.31,8.27,3.59,1,.52,1.76.92,2.28,1.15a11.19,11.19,0,0,0,3.82.48,20.1,20.1,0,0,0,4.93-.55c-1.5,4.16-4.73,5.36-6.92,6.16a7.62,7.62,0,0,0-2,.91c-.62.5-1.4.38-2.61.16A8.41,8.41,0,0,0,60.4,57.6Zm9.56.27c.29,1.15.49,1.91-1.26,2.36A3.92,3.92,0,0,1,65,59.13a2.91,2.91,0,0,0,2-.6,7.31,7.31,0,0,1,1.64-.73c.37-.13.78-.28,1.21-.46A5,5,0,0,0,70,57.87ZM73.12,76.5a6.54,6.54,0,0,0,.9-4.31,7.32,7.32,0,0,1,0-1.81,2.5,2.5,0,0,0,.77-.09,3.81,3.81,0,0,1,2.11.14,4.46,4.46,0,0,0,1.07.19h.07C78,71.9,77.28,74.63,73.12,76.5Zm3.49-12.36a4.72,4.72,0,0,1,1.79,4.15c-.08.94-.26,1.11-.3,1.14a2.1,2.1,0,0,1-.89-.13,4.94,4.94,0,0,0-2.73-.14c-.44.12-.53,0-.56,0-.35-.52,0-2.18.6-3.26a1,1,0,0,0,.19-.31l0-.08c0-.06.07-.12.11-.17h0a4.67,4.67,0,0,1,1.28-.88Zm-1-.76a4.26,4.26,0,0,0-1.86,1.52l-.08.12c-.8.06-3.86-1.45-5.16-3.56l.51-.09a3.12,3.12,0,0,0,2-1.22c1.09.71,3.65,2.36,5,3ZM94.35,74.1a7,7,0,0,1-1.78,3.79c0-.22.1-.47.15-.7.38-1.68,1-4.35.1-6.71h.05a2,2,0,0,0,1-.75A6.66,6.66,0,0,1,94.35,74.1Zm-.91-8c.12,1.88-.46,3.08-.93,3.23-.28.09-.71-.27-1.11-.93a11.43,11.43,0,0,1-1.14-2.61,6.07,6.07,0,0,0-1.91-3.13,9.15,9.15,0,0,0,1-2C90.51,61.56,93.29,63.87,93.44,66.12ZM84.7,57.85c2.84-.22,3.6.12,3.8.34s.12.36,0,.83c-.3,1.56-1.25,3.45-1.66,3.54h0a5.84,5.84,0,0,1-1.4-.71,11.52,11.52,0,0,0-4.91-1.94c-1-.09-1.67-.11-2.2-.13a3.11,3.11,0,0,1-1.43-.19,3.5,3.5,0,0,0,0-2.12c0-.26-.14-.66-.17-1A17.72,17.72,0,0,0,84.7,57.85Zm-9-.15a5.72,5.72,0,0,1,.17,1.3l-.14,0a15,15,0,0,1-4.27-2.42,10.26,10.26,0,0,0,3.35-2.92c.66.59,1.24,1.18,1,1.52C75.34,55.78,75.54,56.76,75.74,57.7Zm12.14-4.56c-.86-.14-1.94-.32-3.26-.45-3.1-.31-7-.76-8.68-1a11.47,11.47,0,0,0,.64-1.8,1,1,0,0,0,.31-.35c.34-.62,1.09-.76,2.29-.94.37,0,.75-.11,1.15-.19a2.21,2.21,0,0,0,.51-.18c1.51,1,4.5,1.71,7,2.32a20.24,20.24,0,0,1,2.95.84c.49.31.56.35-.22,1.68C90.28,53.51,89.68,53.44,87.88,53.14Zm11.68.24a35.54,35.54,0,0,0-4.26.14,18,18,0,0,1-3.7.06,4.5,4.5,0,0,0,.66-1.53,71.06,71.06,0,0,0,8-.8l.2,0a2.17,2.17,0,0,0,0,1.19,3.25,3.25,0,0,0,.4.79s.08.12.11.18A6.47,6.47,0,0,1,99.56,53.38Zm10.3-2.44a7.52,7.52,0,0,0-1.48-1.07l-.52-.32.47-.45a2.74,2.74,0,0,0,.72-1.45,10,10,0,0,1,.5,1,9.91,9.91,0,0,1,.92,3.1A4.67,4.67,0,0,0,109.86,50.94Z"/><path d="M40.1,126.75l.59.63a3.21,3.21,0,0,1-2.56,1.21c-2.09,0-3.65-1.6-3.65-4.33s1.58-4.33,3.71-4.33a3.1,3.1,0,0,1,2.31,1l-.59.66a2.27,2.27,0,0,0-1.7-.75c-1.57,0-2.62,1.29-2.62,3.37s1,3.41,2.58,3.41A2.48,2.48,0,0,0,40.1,126.75Zm5.08-6.67L48,128.44H46.86l-.79-2.53H43l-.8,2.53H41.14L44,120.08Zm.23,3.7c-.31-.93-.58-1.85-.84-2.82h0c-.26,1-.53,1.89-.82,2.82L43.3,125h2.5Zm8.72.66c0,.87.07,1.78.14,2.65h-.06c-.29-.61-.58-1.24-.9-1.8l-3-5.21H49.18v8.36h1V124c0-.86-.08-1.77-.14-2.61h.05c.28.61.58,1.24.9,1.8l3,5.21h1.14v-8.36h-1Zm6.48,3.21c-1.58,0-2.57-1.31-2.57-3.41s1-3.37,2.61-3.37a2.29,2.29,0,0,1,1.71.75L63,121a3.1,3.1,0,0,0-2.31-1c-2.13,0-3.71,1.64-3.71,4.33s1.56,4.33,3.65,4.33a3.23,3.23,0,0,0,2.56-1.21l-.59-.63A2.49,2.49,0,0,1,60.61,127.65Zm5.15-3.15h3.16v-.9H65.76V121h3.75v-.91H64.69v8.36h5v-.9H65.76Zm11.45,3.94H76l-2-3.53h-1.5v3.53H71.41v-8.36H74c1.71,0,2.93.61,2.93,2.36a2.28,2.28,0,0,1-1.87,2.36Zm-1.33-6c0-1.1-.71-1.49-2-1.49H72.48V124h1.39C75.17,124,75.88,123.51,75.88,122.44Z"/></g></g></svg>