<svg xmlns="http://www.w3.org/2000/svg" viewBox="0 0 101.58 117.91"><title>Asset 551</title><g id="Layer_2" data-name="Layer 2"><g id="Layer_1-2" data-name="Layer 1"><path d="M39.51,109.84l-3.4,7.87H37l.85-2.07h4.07l.86,2.07h.89l-3.38-7.87Zm-1.37,5.07,1.73-4.18,1.74,4.18Zm10.46-1.15a2,2,0,0,0,.64-.41,2.26,2.26,0,0,0,.42-.62,2,2,0,0,0,.15-.79,2.12,2.12,0,0,0-.2-1,1.75,1.75,0,0,0-.56-.65,2.63,2.63,0,0,0-.85-.36,5.17,5.17,0,0,0-1.07-.11H44.82v7.87h.8V114H47l2.18,3.68h1L47.8,114A2.54,2.54,0,0,0,48.6,113.76Zm-3-.42v-2.81H47a4.12,4.12,0,0,1,.81.08,1.82,1.82,0,0,1,.62.24,1.21,1.21,0,0,1,.4.44,1.28,1.28,0,0,1,.14.65,1.17,1.17,0,0,1-.52,1,2.69,2.69,0,0,1-1.49.35Zm5.85-3.5h.8v7.87h-.8ZM55.16,117h4.21v.71h-5v-7.87h4.87v.71H55.16v2.7H59V114H55.16Zm10.31-1.36a2.19,2.19,0,0,1-.22,1,2.09,2.09,0,0,1-.58.7,2.43,2.43,0,0,1-.82.41,3.33,3.33,0,0,1-.93.14,3.43,3.43,0,0,1-.71-.08,2.81,2.81,0,0,1-1.28-.58,3,3,0,0,1-.49-.51l.69-.51a2.11,2.11,0,0,0,1.8,1,1.9,1.9,0,0,0,.61-.1,1.57,1.57,0,0,0,.56-.29,1.42,1.42,0,0,0,.41-.47,1.29,1.29,0,0,0,.16-.66,1.31,1.31,0,0,0-.16-.69,1.39,1.39,0,0,0-.42-.45,2.5,2.5,0,0,0-.61-.31l-.73-.24c-.26-.08-.51-.18-.76-.28a2.47,2.47,0,0,1-.68-.41,1.81,1.81,0,0,1-.48-.61,1.93,1.93,0,0,1-.19-.9,2,2,0,0,1,.23-1,2.15,2.15,0,0,1,.59-.68,3,3,0,0,1,.82-.39,3.26,3.26,0,0,1,.87-.12,3,3,0,0,1,1.37.29,2.19,2.19,0,0,1,.85.67l-.63.51a1.88,1.88,0,0,0-.65-.57,2,2,0,0,0-1-.22,2.06,2.06,0,0,0-.59.09,1.71,1.71,0,0,0-.54.27,1.36,1.36,0,0,0-.4.46,1.4,1.4,0,0,0-.15.66,1.16,1.16,0,0,0,.15.62,1.37,1.37,0,0,0,.38.42,2.74,2.74,0,0,0,.54.28l.64.22.82.29a2.72,2.72,0,0,1,.75.41,1.85,1.85,0,0,1,.54.63A2,2,0,0,1,65.47,115.64Z"/><path d="M63.84,47.9c-2.09,1.4-4,4.15-3.66,6.7l.82-.11a4.73,4.73,0,0,1,.31-2.21,7.31,7.31,0,0,0,4,1.2,5.28,5.28,0,0,0,3-.84c1-.65,2.42-2.26,1.53-5.75a3.77,3.77,0,0,0,1.58-1.23l-.67-.49c-.74,1-2.06,1.27-3.45,1.55A9.19,9.19,0,0,0,63.84,47.9ZM67.78,52c-1.57,1.07-4.23.87-6.12-.45a7.61,7.61,0,0,1,1.26-1.73s0,.07,0,.1A2.14,2.14,0,0,0,66,51.09a3,3,0,0,0,1.7-3.42,1,1,0,0,0-.09-.18c.46-.09.91-.19,1.35-.32C69.53,49.39,69.12,51,67.78,52Zm32.84-15.8a22.11,22.11,0,0,0-.8-2.42h0a21.72,21.72,0,0,0-4.29-6.84,24.68,24.68,0,0,0-9.87-6.37,23.23,23.23,0,0,0-9.17-1.4C70.13,19.64,59.59,23.82,57,30a11.46,11.46,0,0,0-5.68-1.75l-.51,0H50.6a11.91,11.91,0,0,0-6,1.61c-2.7-6.13-13.15-10.25-19.46-10.78a23.21,23.21,0,0,0-9.16,1.4,24.65,24.65,0,0,0-9.88,6.37,21.9,21.9,0,0,0-4.29,6.84h0A24.53,24.53,0,0,0,1,36.15,32.29,32.29,0,0,0,.52,49.87c.49,3,2.15,10.36,7,13.31a8.2,8.2,0,0,0,4.35,1.21,10.78,10.78,0,0,0,3.39-.58L17.77,63H15.11A6.06,6.06,0,0,1,10,60.39C8.28,58,7.73,54.69,7.58,52.3a24.34,24.34,0,0,1,.78-8.07c1.59-5.12,5.53-9.06,10.05-10a8.66,8.66,0,0,1,5.93.66,21.39,21.39,0,0,1,2.74,1.87A20.55,20.55,0,0,0,31,39.28,7,7,0,0,0,27,43.89a6,6,0,0,1-1.77-.3,10.31,10.31,0,0,0-1.87-.38l-.46,0a33.66,33.66,0,0,0-5-.19c-.09,0-9.27.66-9.08,3.8s6,6.09,6,6.12a27,27,0,0,0,9,2.72,11.84,11.84,0,0,0,1.25.09c1,0,2.23.09,2.53.6l.07,0c.09.37.18.74.26,1.1.15.62.29,1.21.41,1.76A24.79,24.79,0,0,0,32,66.94,36.33,36.33,0,0,1,36,74.64c.56,1.63,3.33,6,7.25,6.94A10.58,10.58,0,0,0,50.79,85h0c3.61,0,5-.82,7.35-3.44,3.93-.9,6.68-5.31,7.25-6.94a36.33,36.33,0,0,1,3.92-7.7A24.79,24.79,0,0,0,73,59.13c.12-.55.26-1.14.41-1.76.08-.35.16-.71.25-1.08l0,0c.3-.51,1.54-.56,2.53-.6a11.64,11.64,0,0,0,1.25-.09,27,27,0,0,0,9-2.72c.06,0,5.85-3.07,6-6.12s-9-3.79-9.08-3.8a33.77,33.77,0,0,0-5,.19l-.46,0a10.48,10.48,0,0,0-1.87.38,6.33,6.33,0,0,1-1.73.31,6.93,6.93,0,0,0-4-4.58,19.48,19.48,0,0,0,4.05-2.6,21.37,21.37,0,0,1,2.73-1.87,8.68,8.68,0,0,1,5.94-.66c4.51,1,8.45,4.92,10,10A24.34,24.34,0,0,1,94,52.3a18.88,18.88,0,0,1-1.34,6.17,2.43,2.43,0,0,0-.14.2l0,0a9.56,9.56,0,0,1-1,1.7A6.05,6.05,0,0,1,86.48,63H83.81l2.52.82a10.83,10.83,0,0,0,3.39.58,8.27,8.27,0,0,0,4.35-1.21c4.84-3,6.5-10.29,7-13.31A32.29,32.29,0,0,0,100.62,36.15ZM1.3,49.4a31.18,31.18,0,0,1,.44-12.92,4.18,4.18,0,0,0,.38,1.24,9.66,9.66,0,0,0,1.52,2.1,13.59,13.59,0,0,1,1.08,1.35,12,12,0,0,1,1.57,3.61,6.86,6.86,0,0,1,.13,1.7,5.65,5.65,0,0,0,.32,2.38,25.31,25.31,0,0,0,.67,7.74,26.82,26.82,0,0,0-2.19-2L4.47,54a8.17,8.17,0,0,1-3.16-4.6Zm6.91,9.51a10.89,10.89,0,0,0,1.14,2,7,7,0,0,0,3.5,2.61,7.57,7.57,0,0,1-4.9-1C4.58,60.41,2.84,56,2,52.69a13.86,13.86,0,0,0,2,1.94l.76.64A16.77,16.77,0,0,1,8.21,58.91ZM7.56,44c-.12.41-.24.84-.34,1.31a4.53,4.53,0,0,0-.11-.71,13.29,13.29,0,0,0-1.69-3.87,13.69,13.69,0,0,0-1.15-1.44,9.2,9.2,0,0,1-1.39-1.92,4.6,4.6,0,0,1-.32-2.57c0-.28,0-.57,0-.88a20.93,20.93,0,0,1,4.07-6.45,23.09,23.09,0,0,1,6.74-5,17.23,17.23,0,0,1-1.84,3.25A17,17,0,0,0,9.5,29.49a12.78,12.78,0,0,0,.75,9.23A17.22,17.22,0,0,0,7.56,44ZM18,33.44A13.74,13.74,0,0,0,10.83,38a11.92,11.92,0,0,1-.54-8.24,16.2,16.2,0,0,1,2-3.58A15.23,15.23,0,0,0,14.46,22c.57-.25,1.16-.48,1.75-.69A22.27,22.27,0,0,1,25,20a22.25,22.25,0,0,1,2.28.32c-.4,2.2-3.55,4.39-5.3,5.61l-.16.11C19.71,27.48,17.34,30.77,18,33.44Zm8.46,1.75a13.22,13.22,0,0,0-1.71-1.09,9.42,9.42,0,0,0-5.93-.83,4.9,4.9,0,0,1,.71-3.39,10.15,10.15,0,0,1,2.84-3.21l.16-.11c2-1.37,5.18-3.59,5.65-6.12a34,34,0,0,1,7.77,2.76c.59.3,1.15.61,1.69.92-.12,2.83-2.57,4-5.17,5.15S26.85,31.83,26.42,35.19Zm1.16.86-.37-.28c.15-3.25,2.78-4.46,5.57-5.74,2.59-1.19,5.26-2.42,5.62-5.42a13.87,13.87,0,0,1,5.43,5.69,45,45,0,0,0-5.66,4.26,28.81,28.81,0,0,1-5.92,4.23C30.89,38.55,29.14,37.23,27.58,36.05ZM18,43.82a32.31,32.31,0,0,1,4.83.18l.46,0A10.27,10.27,0,0,1,25,44.4a8.07,8.07,0,0,0,1.78.33,17.31,17.31,0,0,0-.17,5.16c-2.68.84-5.53-.52-8.27-1.83s-5.73-2.75-8.53-1.78C10.57,44.93,15.21,44,18,43.82Zm7.22,11c-.43,0-.84,0-1.18-.07a26.42,26.42,0,0,1-8.76-2.64,20.53,20.53,0,0,1-3.41-2.31,6.47,6.47,0,0,1-2.08-2.66c2.56-1.08,5.3.23,8.19,1.62C20.18,49.89,22.49,51,24.81,51a6.61,6.61,0,0,0,1.86-.25c.19,1.51.49,3,.81,4.44A8.17,8.17,0,0,0,25.17,54.87ZM50.82,84.19h0a9.66,9.66,0,0,1-6.21-2.45h0A6.89,6.89,0,0,0,47.68,81a11.35,11.35,0,0,0,3-2.26c2,2,4,3,6.08,3h.12C55.08,83.61,53.79,84.19,50.82,84.19Zm-2.94-7c-.27-.19-.66-.42-1.12-.68-.91-.51-2.42-1.36-2.61-1.88a1.26,1.26,0,0,1,.1-1.24,3.39,3.39,0,0,1,2.56-1.07H47a12,12,0,0,1,3.35,1.2l.06,0a.94.94,0,0,0,.3,0,2.23,2.23,0,0,0,.74-.17c.28-.11.58-.25.91-.4a6.72,6.72,0,0,1,2-.71h.19a3.39,3.39,0,0,1,2.56,1.07,1.28,1.28,0,0,1,.1,1.24c-.2.52-1.71,1.37-2.61,1.88-.46.26-.85.49-1.12.68a5.43,5.43,0,0,1-2.81.63A5.41,5.41,0,0,1,47.88,77.17ZM76.37,44.4A10.39,10.39,0,0,1,78.1,44l.45,0a32.31,32.31,0,0,1,4.83-.18c2.74.16,7.38,1.11,8.18,2.46-2.79-1-5.7.43-8.52,1.78s-5.56,2.66-8.24,1.85a17.11,17.11,0,0,0-.16-5.18A8.24,8.24,0,0,0,76.37,44.4Zm-1.66,6.35a6.57,6.57,0,0,0,1.81.24c2.32,0,4.63-1.1,6.88-2.18,2.9-1.39,5.64-2.7,8.19-1.62-.55,1.82-3.56,4-5.49,5a26.42,26.42,0,0,1-8.76,2.64c-.34,0-.75.06-1.18.07a7.93,7.93,0,0,0-2.26.3C74.22,53.75,74.51,52.25,74.71,50.75ZM74.07,47c.14,3.32-.77,7.13-1.5,10.19-.15.62-.29,1.21-.41,1.77a24,24,0,0,1-3.53,7.55,37.09,37.09,0,0,0-4,7.86,12.57,12.57,0,0,1-2.55,3.85,8.31,8.31,0,0,1-4.32,2.6h0a5,5,0,0,1-1,.09,7.48,7.48,0,0,1-5-2.32A5.05,5.05,0,0,0,54,77.85c.23-.16.63-.39,1.05-.63,1.52-.86,2.7-1.57,3-2.31a2.26,2.26,0,0,0,.12-1.27c2.17-5.48.66-10.92,0-13.25-.07-.22-.12-.42-.16-.58-1.21-4.64-.36-9.75,2.18-13a10.3,10.3,0,0,1,8.49-3.94h.06V42h-.07a11.1,11.1,0,0,0-9.15,4.26C56.82,49.74,55.9,55.14,57.18,60c0,.17.1.37.16.59.65,2.33,2,7.06.27,12a4.38,4.38,0,0,0-3-1.17h-.25a7.1,7.1,0,0,0-2.31.78,4.82,4.82,0,0,1-1.3.49h0a11.88,11.88,0,0,0-3.63-1.27h-.25a4.38,4.38,0,0,0-3,1.17c-1.69-5-.38-9.7.27-12,.06-.22.12-.42.16-.59,1.28-4.88.36-10.28-2.33-13.74A11.12,11.12,0,0,0,32.65,42v.83h.06a10.33,10.33,0,0,1,8.49,3.94c2.54,3.27,3.39,8.38,2.18,13,0,.16-.1.36-.16.58-.64,2.33-2.15,7.77,0,13.25a2.27,2.27,0,0,0,.13,1.27c.27.74,1.46,1.45,3,2.31.43.24.83.47,1.06.63a5,5,0,0,0,2.23.73,7.48,7.48,0,0,1-5,2.32,5,5,0,0,1-1-.09h0a8.31,8.31,0,0,1-4.32-2.6,12.38,12.38,0,0,1-2.55-3.85,37.09,37.09,0,0,0-4-7.86A24,24,0,0,1,29.22,59c-.12-.56-.26-1.15-.41-1.77-.73-3.06-1.64-6.87-1.5-10.19.16-3.78,1.64-6.12,4.54-7.14l.52-.2h0a28,28,0,0,0,6.31-4.44c3.56-3,7.25-6.09,11.59-6.09h.52l.47,0c3.88,0,7.57,3,11.14,6,2.47,2,4.81,4,7.09,4.77C72.42,40.87,73.91,43.21,74.07,47ZM74,36.05c-1.61,1.22-3.44,2.6-4.82,2.76A30.72,30.72,0,0,1,63,34.44a52.15,52.15,0,0,0-5.27-4c.83-2.05,2.74-4.07,5.49-5.84.36,3,3,4.23,5.63,5.42,2.78,1.28,5.42,2.49,5.56,5.74Zm8.8-2.78a9.42,9.42,0,0,0-5.93.83,13.22,13.22,0,0,0-1.71,1.09c-.43-3.36-3.38-4.72-6-5.92S64.1,27,64,24.12c.54-.31,1.1-.62,1.69-.92a34.18,34.18,0,0,1,7.77-2.76c.48,2.53,3.68,4.75,5.65,6.12l.16.11a10.3,10.3,0,0,1,2.85,3.21A4.9,4.9,0,0,1,82.8,33.27Zm.82.17c.62-2.67-1.75-6-3.89-7.45l-.17-.11c-1.74-1.22-4.89-3.41-5.3-5.61A22.43,22.43,0,0,1,76.55,20a22.23,22.23,0,0,1,8.82,1.35c.59.21,1.18.44,1.75.69a15.26,15.26,0,0,0,2.2,4.2,16.58,16.58,0,0,1,2,3.58A11.87,11.87,0,0,1,90.75,38,13.74,13.74,0,0,0,83.62,33.44ZM94,44a17.22,17.22,0,0,0-2.69-5.26,12.78,12.78,0,0,0,.75-9.23A17,17,0,0,0,90,25.73a17.23,17.23,0,0,1-1.84-3.25,23.09,23.09,0,0,1,6.74,5A20.93,20.93,0,0,1,99,33.9c0,.31,0,.6,0,.88a4.69,4.69,0,0,1-.32,2.57,8.9,8.9,0,0,1-1.4,1.92,15.12,15.12,0,0,0-1.15,1.44,13,13,0,0,0-1.68,3.87,4.58,4.58,0,0,0-.12.71C94.26,44.82,94.14,44.39,94,44Zm-.38,18.48a7.58,7.58,0,0,1-4.9,1,7,7,0,0,0,3.49-2.61,10.33,10.33,0,0,0,1.14-2,16.57,16.57,0,0,1,3.53-3.64l.75-.64a13.86,13.86,0,0,0,2-1.94C98.74,56,97,60.41,93.64,62.46Zm6.64-13.06h0A8.07,8.07,0,0,1,97.11,54l-.75.62a28.63,28.63,0,0,0-2.19,2,25.22,25.22,0,0,0,.67-7.73,5.5,5.5,0,0,0,.33-2.38,6.41,6.41,0,0,1,.12-1.7,12.3,12.3,0,0,1,1.57-3.61,13.59,13.59,0,0,1,1.08-1.35,9.66,9.66,0,0,0,1.52-2.1,4.18,4.18,0,0,0,.38-1.24A31.18,31.18,0,0,1,100.28,49.4ZM30,45.66a3.77,3.77,0,0,0,1.58,1.23c-.89,3.49.53,5.08,1.47,5.71a5,5,0,0,0,2.86.8A7.33,7.33,0,0,0,40,52.12a4.65,4.65,0,0,1,.37,2.37l.83.11c.36-2.55-1.57-5.3-3.66-6.7a9.19,9.19,0,0,0-3.4-1.18c-1.4-.28-2.71-.55-3.45-1.55Zm2.37,1.51c.44.13.9.23,1.36.32a1,1,0,0,0-.09.18,3,3,0,0,0,1.7,3.42,2.14,2.14,0,0,0,3.08-1.22s0-.06,0-.09a7.68,7.68,0,0,1,1.18,1.57c-1.92,1.39-4.54,1.63-6.1.56C32.24,51,31.85,49.39,32.39,47.17Zm20,11a1.65,1.65,0,1,1-1.65-1.65A1.64,1.64,0,0,1,52.44,58.17ZM51.59,68a.74.74,0,0,1-.75.75.75.75,0,0,1-.76-.75.76.76,0,0,1,.76-.76A.75.75,0,0,1,51.59,68Zm.5-4.37a1.26,1.26,0,1,1-1.25-1.26A1.26,1.26,0,0,1,52.09,63.61Zm-16.3-4.9a.79.79,0,1,1,.79-.79A.79.79,0,0,1,35.79,58.71ZM34.94,56a.62.62,0,0,1-.61.61.61.61,0,0,1-.61-.61.61.61,0,0,1,.61-.61A.61.61,0,0,1,34.94,56Zm2.54,7.32a1,1,0,1,1,1-1A1,1,0,0,1,37.48,63.35Zm-4.65-8.83a.36.36,0,1,1-.35-.35A.36.36,0,0,1,32.83,54.52Zm4,6.47a.91.91,0,0,1,0-1.82.91.91,0,0,1,0,1.82ZM40.38,74.1a.61.61,0,1,1-.61-.61A.6.6,0,0,1,40.38,74.1Zm-1.29-1.51a.79.79,0,1,1,.79-.78A.78.78,0,0,1,39.09,72.59Zm-1.16-6.86a1,1,0,1,1,1-1A1,1,0,0,1,37.93,65.73Zm3.2,10.54a.36.36,0,1,1-.71,0,.36.36,0,0,1,.71,0Zm-2.5-5.9a.91.91,0,1,1,.91-.91A.91.91,0,0,1,38.63,70.37Zm-.35-2.3a1,1,0,1,1,1-1A1,1,0,0,1,38.28,68.07Zm26.59-5.7a1,1,0,1,1-1-1A1,1,0,0,1,64.87,62.37Zm-.79,4.72a1,1,0,1,1-1-1A1,1,0,0,1,64.08,67.09Zm.37-2.37a1,1,0,1,1-1-1A1,1,0,0,1,64.45,64.72Zm4.81-10.2a.36.36,0,1,1-.71,0,.36.36,0,0,1,.71,0Zm-2.88,3.4a.79.79,0,1,1-.79-.79A.79.79,0,0,1,66.38,57.92ZM67.66,56a.61.61,0,1,1-1.22,0,.61.61,0,1,1,1.22,0Zm-2.18,4a.92.92,0,1,1-.91-.91A.91.91,0,0,1,65.48,60.08ZM61,76.27a.36.36,0,1,1-.71,0,.36.36,0,0,1,.71,0Zm1.25-2.17a.61.61,0,1,1-.6-.61A.6.6,0,0,1,62.21,74.1Zm1.45-4.64a.91.91,0,1,1-.91-.91A.91.91,0,0,1,63.66,69.46Zm-.59,2.35a.79.79,0,1,1-.78-.79A.78.78,0,0,1,63.07,71.81ZM48.72,75.74c.07.11,0,.34,0,.34l-.19,0L48.28,76,48,75.89l-.7-.21c-.25-.08-.51-.18-.77-.28l-.41-.1a1.46,1.46,0,0,1-.37-.12,1,1,0,0,1-.26-.24,3.07,3.07,0,0,1-.17-.31,1.28,1.28,0,0,1-.11-.31c0-.1-.05-.21-.07-.29l-.06-.31.07-.19.08-.06.21-.11a1.34,1.34,0,0,1,.32-.1,2.2,2.2,0,0,1,.37-.05,1.81,1.81,0,0,1,.4,0,.91.91,0,0,1,.37.15,1.21,1.21,0,0,1,.28.31c.09.12.17.24.27.35s.38.42.55.64.31.42.43.6a2.79,2.79,0,0,1,.17.25Zm5.36-.06-.7.21-.29.08-.22.06-.2,0s-.08-.23,0-.34l.12-.19A2.79,2.79,0,0,1,53,75.3c.12-.18.27-.39.43-.6s.36-.43.55-.64.18-.23.27-.35a1.05,1.05,0,0,1,.28-.31.85.85,0,0,1,.37-.15,1.72,1.72,0,0,1,.39,0,2.18,2.18,0,0,1,.38.05,1.34,1.34,0,0,1,.32.1l.21.11.08.06.06.19,0,.31c0,.08,0,.19-.07.29s-.07.21-.11.31a1.92,1.92,0,0,1-.18.31,1,1,0,0,1-.25.24,1.41,1.41,0,0,1-.38.12c-.13,0-.28.06-.4.1S54.33,75.6,54.08,75.68Z"/><path d="M55.34,35.47l.3.78,2-.77-3.56,4.35a5.54,5.54,0,1,0,.6.58L58.33,36,58,38.16l.82.14.72-4.41Zm-.06,8.58a4.62,4.62,0,1,1-4.61-4.62A4.62,4.62,0,0,1,55.28,44.05Z"/><path d="M56.52,18.76H52.14L50.79,14.6l-1.35,4.16H45.06l3.54,2.58L47.25,25.5l3.54-2.57,3.54,2.57L53,21.34Zm-5.73,3.13-1.95,1.42L49.59,21l-2-1.42h2.41l.74-2.29.74,2.29h2.41L52,21l.74,2.29Z"/><path d="M78,7.79l-2.29-.85,1.39-2-2.3.81-.22-2.42-1.24,2.1L71.61,3.72l.4,2.4-2.43-.2L71.44,7.5l-2,1.41,2.44,0-.62,2.36,1.88-1.55,1,2.2.44-2.4,2.21,1-1.2-2.12Zm-3.16.92L74,8.33l-.17.91-.39-.84L72.74,9,73,8.1h-.92l.75-.54L72.1,7,73,7l-.16-.9.66.64L74,6l.09.91.87-.3-.53.75.86.32-.88.25Z"/><path d="M69.18,15.29l-3.07.54-.54,3.07L65,15.83,62,15.29,65,14.74l.55-3.07.54,3.07Z"/><path d="M40.72,0a1.77,1.77,0,1,0,1.77,1.77A1.77,1.77,0,0,0,40.72,0Zm0,2.87a1.1,1.1,0,1,1,1.1-1.1A1.1,1.1,0,0,1,40.72,2.87Z"/><path d="M16.1,13a1.77,1.77,0,1,0,1.76,1.76A1.76,1.76,0,0,0,16.1,13Zm0,2.86a1.1,1.1,0,1,1,1.09-1.1A1.1,1.1,0,0,1,16.1,15.88Z"/><path d="M32.13,8.91l-2-1.41L32,5.92l-2.43.2L30,3.72,28.24,5.43,27,3.33l-.23,2.42-2.3-.81,1.39,2-2.29.85,2.35.65-1.2,2.12,2.22-1,.44,2.4,1-2.2,1.88,1.55-.62-2.36ZM28.84,9l-.7-.59-.4.84-.16-.91-.84.38.45-.79-.88-.25.86-.32-.52-.75.86.3L27.6,6l.46.79.66-.64-.15.9L29.48,7l-.7.59.75.54h-.92Z"/><path d="M39.63,15.29l-3.07.54L36,18.9l-.55-3.07-3.07-.54,3.07-.55L36,11.67l.54,3.07Z"/><path d="M56.2,5.42l-2.74-1L55.12,2,52.38,3,52.1.08,50.63,2.59l-2.07-2L49,3.42l-2.9-.24,2.22,1.89L46,6.76l2.91,0L48.15,9.6,50.4,7.74l1.25,2.64.53-2.87,2.64,1.21L53.39,6.19Zm-4.65.88L51.3,7.67l-.6-1.26-1.08.89L50,6h-1.4l1.14-.81-1.06-.9,1.39.11L49.81,3l1,1,.7-1.21.13,1.39L53,3.66l-.8,1.15,1.31.49-1.34.37.68,1.21Z"/><path d="M60.87,0a1.77,1.77,0,1,0,1.76,1.77A1.77,1.77,0,0,0,60.87,0Zm0,2.87A1.1,1.1,0,1,1,62,1.77,1.1,1.1,0,0,1,60.87,2.87Z"/><path d="M85.49,13a1.77,1.77,0,1,0,1.77,1.76A1.76,1.76,0,0,0,85.49,13Zm0,2.86a1.1,1.1,0,1,1,1.1-1.1A1.1,1.1,0,0,1,85.49,15.88Z"/><path d="M56.52,95.6H52.14l-1.35-4.16L49.44,95.6H45.06l3.54,2.58-1.35,4.16,3.54-2.57,3.54,2.57L53,98.18Zm-5.73,3.13-1.95,1.42.75-2.29-2-1.42h2.41l.74-2.29.74,2.29h2.41L52,97.86l.74,2.29Z"/><path d="M79.16,77H75.58l-1.11-3.41L73.36,77H69.77l2.9,2.11-1.1,3.41,2.9-2.11,2.9,2.11-1.11-3.41Zm-4.69,2.38-1.31.94.5-1.53-1.31-.95H74l.5-1.54.5,1.54h1.61l-1.3.95.49,1.53Z"/><path d="M96.23,73.7l-2.73-1,1.66-2.4-2.75,1-.27-2.9-1.47,2.51-2.08-2.05.49,2.88-2.91-.24,2.22,1.89L86,75l2.92,0-.74,2.82L90.44,76l1.24,2.63.53-2.86L94.86,77l-1.44-2.53Zm-4.65.88L91.33,76l-.6-1.26-1.07.89L90,74.23H88.62l1.13-.81-1.06-.9,1.39.11-.23-1.38,1,1,.71-1.2.13,1.39L93,71.94l-.79,1.15,1.31.49-1.35.36.69,1.22Z"/><path d="M81.07,64.67l-2.75.49-.49,2.75-.49-2.75-2.75-.49,2.75-.49.49-2.75.49,2.75Z"/><path d="M73.36,95.79l-3.46.61-.61,3.46-.61-3.46-3.46-.61,3.46-.61.61-3.46.61,3.46Z"/><path d="M18.69,86.38a1.77,1.77,0,1,0,1.77,1.77A1.78,1.78,0,0,0,18.69,86.38Zm0,2.87a1.1,1.1,0,1,1,1.1-1.1A1.1,1.1,0,0,1,18.69,89.25Z"/><path d="M42.3,87.15a1.77,1.77,0,1,0,1.77,1.77A1.77,1.77,0,0,0,42.3,87.15Zm0,2.86a1.1,1.1,0,1,1,1.1-1.09A1.09,1.09,0,0,1,42.3,90Z"/><path d="M82.89,86.38a1.77,1.77,0,1,0,1.77,1.77A1.77,1.77,0,0,0,82.89,86.38Zm0,2.87a1.1,1.1,0,1,1,1.1-1.1A1.1,1.1,0,0,1,82.89,89.25Z"/><path d="M59.29,87.15a1.77,1.77,0,1,0,1.76,1.77A1.77,1.77,0,0,0,59.29,87.15Zm0,2.86a1.1,1.1,0,1,1,1.09-1.09A1.09,1.09,0,0,1,59.29,90Z"/><path d="M32.14,77H28.56l-1.11-3.41L26.34,77H22.76l2.9,2.11-1.11,3.41,2.9-2.11,2.9,2.11-1.11-3.41Zm-4.69,2.38-1.31.94.5-1.53-1.3-.95H27l.5-1.54.5,1.54h1.62l-1.31.95.5,1.53Z"/><path d="M15.57,75l-2.38-1.68,2.22-1.89-2.9.24L13,68.82l-2.07,2.05L9.44,68.36l-.27,2.9-2.75-1,1.66,2.4-2.73,1,2.81.77L6.72,77l2.65-1.21.53,2.86L11.15,76l2.24,1.86-.74-2.82Zm-4.72-.34L10.25,76,10,74.58l-1.27.58.69-1.22-1.34-.36,1.3-.49-.79-1.15,1.31.47L10,71l.71,1.2,1-1-.23,1.38,1.39-.11-1.06.9,1.14.81h-1.4l.35,1.35Z"/><path d="M27,64.67l-2.75.49-.49,2.75-.49-2.75-2.75-.49,2.75-.49.49-2.75.49,2.75Z"/><path d="M36.36,95.79l-3.45.61-.62,3.46-.61-3.46-3.45-.61,3.45-.61.61-3.46.62,3.46Z"/></g></g></svg>