<svg xmlns="http://www.w3.org/2000/svg" viewBox="0 0 93.86 89.03"><defs><style>.cls-1{fill:#fbb03b;}</style></defs><title>Asset 515</title><g id="Layer_2" data-name="Layer 2"><g id="Layer_1-2" data-name="Layer 1"><path d="M49.76,60.73c.08,0,.14.12.14.28s-.06.28-.14.28-.14-.12-.14-.28S49.68,60.73,49.76,60.73ZM17.91,35c-.09-.22-.16-.18-.61.26s-.47.58-.41.68C17.15,36.33,18.1,35.47,17.91,35Zm-1.56-5.91c.17.08.47-.24.47-.49a.39.39,0,0,0-.65-.34c-.25.2-.26.65,0,.75Zm.76,8.24c0,.26.42.23.74,0s.37-.76.18-.76A2,2,0,0,0,17.11,37.3ZM15.63,23.54a6.84,6.84,0,0,1-.73.65c-.36.26-.39.34-.22.46a1,1,0,0,0,.27.14,7.69,7.69,0,0,0,1.45-1.28C16.4,23.22,15.91,23.25,15.63,23.54ZM14.21,38.08c.3-.06.34-.1.14-.14A.5.5,0,0,0,14,38C13.86,38.11,14,38.13,14.21,38.08ZM22.64,44c-.1,0,0,.07.17.07s.28,0,.18-.07A.53.53,0,0,0,22.64,44Zm2.17-9.67c0,.12.05.21.12.21s.32-.37.2-.48S24.81,34.06,24.81,34.28ZM26.72,23.8a1.9,1.9,0,0,0-.56.35c-.36.29-.38.33-.11.27S27,23.8,26.72,23.8Zm-.49,1.13c-.17.32,0,.39.26.12s.24-.14.46,0,.3.14.37-.07a5.77,5.77,0,0,1,.23-.58c.09-.17.12-.36.06-.41S26.42,24.59,26.23,24.93Zm-1.37,7.33c-.05,0,0,.14,0,.22s.37.21.37,0S25,32.15,24.86,32.26Zm0,11.61c.24,0,.35,0,.25-.06a.88.88,0,0,0-.43,0C24.57,43.84,24.64,43.87,24.88,43.87Zm-.14-7.18c-.63.1-.83.27-.47.41a1.12,1.12,0,0,0,1-.1C25.72,36.7,25.49,36.58,24.74,36.69Zm4.63-3.63c0-.07,0-.14-.06-.14s-.11.07-.15.14,0,.15.06.15A.15.15,0,0,0,29.37,33.06ZM20.65,6.6c-.17-.41-.17-.41-.23-.07a.51.51,0,0,0,.13.46C20.82,7.15,20.85,7.06,20.65,6.6Zm-2.31,5.79c-.3,0-.29.11.05.68s.67.61.8.26S18.65,12.39,18.34,12.39Zm5-2.26c-.43.2-.65.06-.36-.23A5,5,0,0,1,24.81,9a7.37,7.37,0,0,1,1.37.37c.79.29,1.05.44,1.05.64s-.07.25-.46.18a3.7,3.7,0,0,1-.85-.29,1.73,1.73,0,0,0-1.51,0c-.13.13-.07.21.27.36a2.51,2.51,0,0,0,.75.18.66.66,0,0,1,.58.77.25.25,0,0,0,.07.3c.34.2.15.66-.34.87a2.11,2.11,0,0,1-1.74,0c-.5-.22-.7-.65-.49-1.05a.9.9,0,0,0,.07-.56c-.06-.22,0-.32.24-.4s.29-.12.09-.23A.69.69,0,0,0,23.32,10.13ZM25,12c0,.22.37.17.56-.06s.1-.51-.14-.51c-.07,0-.13.1-.13.22s-.07.21-.15.21A.14.14,0,0,0,25,12Zm-.78-.13c.15.24.32.14.39-.22s0-.36-.11-.36S24.06,11.64,24.17,11.83Zm-1.93,4.24c0-.19-.42-.68-.59-.68s-.15.48.05.68S22.24,16.29,22.24,16.07Zm1,9.23c.42.24.43.24.43.1s-1.12-.75-1.22-.6,0,.18.18.22A5.06,5.06,0,0,1,23.24,25.3ZM27,14.24a.23.23,0,0,0-.23.23c0,.25.31.21.4-.06C27.23,14.32,27.15,14.24,27,14.24ZM24.59,28.78a.26.26,0,0,0,.31.09,1.79,1.79,0,0,1,.56-.08c.53,0,.41-.24-.17-.35S24.42,28.5,24.59,28.78Zm1.07-1.08c0-.32-.42-.52-.95-.43s-.84.28-.7.49S25.66,27.9,25.66,27.7Zm1.5-10.37a1.91,1.91,0,0,1,1.71-.15c.27.17.34.18.48,0s-.42-.87-.86-.72a1.3,1.3,0,0,1-.5.08,3.58,3.58,0,0,0-1.61.83C26.38,17.59,26.84,17.56,27.16,17.33Zm-2.3,13.36c-.05,0,0,.14,0,.23s.37.2.37,0S25,30.59,24.86,30.69Zm.25-1.19c-.31,0-.44.07-.44.22s.11.21.38.18C25.6,29.84,25.65,29.5,25.11,29.5Zm.13,5.84c-.16,0-.29.07-.29.15s.13.14.29.14.28-.06.28-.14S25.39,35.34,25.24,35.34Zm2.57-17.28c0,.1.12.18.28.18s.4-.48.12-.65S27.81,17.76,27.81,18.06ZM24.88,45.9c.2-.09,0-.13-.76-.14s-1,.05-.95.14A2.89,2.89,0,0,0,24.88,45.9Zm20-16.83c.44,0,.49,0,.34-.21a.75.75,0,0,0-.52-.21c-.21,0-.34.08-.34.21S44.49,29.07,44.86,29.07Zm-1.3,12.61c-.56.26-.44.27.35,0,.36-.11.52-.21.36-.21A2.29,2.29,0,0,0,43.56,41.68Zm-.13-3c-.64.26-1.36.42-1.08.24s0-.19-.59,0-1.27.68-1.27.84a5.63,5.63,0,0,0,2.34,0A2.66,2.66,0,0,0,44,39.35a2.65,2.65,0,0,1,.73-.45l.43-.18-.63-.11A1.8,1.8,0,0,0,43.43,38.68Zm3.35-5.33c-.18,0-.3.09-.3.22a.18.18,0,0,0,.24.18C47.07,33.68,47.12,33.35,46.78,33.35Zm.35-.92c.25-.19.22-.21-.47-.22s-.75,0-.75.21S46.76,32.71,47.13,32.43Zm-.41-7.92a.61.61,0,0,0,.35-.25c.18-.23.17-.23-.09,0l-.35.25S46.64,24.51,46.72,24.51Zm.9,4.33s-.1-.05-.21-.05-.22.06-.22.14.1.1.22.05S47.62,28.87,47.62,28.84ZM46.9,15.55c0-.2,0-.2-.21,0a1,1,0,0,0-.21.46c0,.11.06.19.13.19S46.91,15.89,46.9,15.55ZM45.12,30.34a3.3,3.3,0,0,0,2,0c.37-.16.31-.18-.74-.27S44.93,30,45.12,30.34Zm1.22,7.32c0,.09.18.11.45.05.48-.09.64-.18.52-.3S46.34,37.51,46.34,37.66Zm.14-1.17a.14.14,0,0,0,.28,0,.14.14,0,1,0-.28,0Zm2.85,1.78c0-.15-.14-.21-.43-.21-.5,0-.54.1-.1.28S49.33,38.51,49.33,38.27ZM52,43.62a.4.4,0,0,0-.3-.15c-.12,0-.18.07-.13.15a.43.43,0,0,0,.3.14C52,43.76,52,43.69,52,43.62Zm-2.53-2.51c-.57-.21-1.37-.28-1.19-.1a3.18,3.18,0,0,0,.84.27,8.24,8.24,0,0,0,1.1.16c.27,0,.28,0,.07-.06A5.45,5.45,0,0,1,49.44,41.11Zm3.31.67c0-.07-.19-.21-.43-.31s-.48-.14-.61,0-.12.2,0,.31S52.75,41.94,52.75,41.78ZM41.63,44.4c.19-.2.3-.36.24-.36a3.19,3.19,0,0,0-1.24.59C40.63,44.9,41.31,44.74,41.63,44.4Zm5.25-19.25c-.85.71-1.21,1.23-1,1.51a11.1,11.1,0,0,0,2.2-2.15C48.05,24.24,47.82,24.37,46.88,25.15Zm-.33,5.78c-1,0-1.22.08-1,.33a4.79,4.79,0,0,0,1.82,0C47.91,31.07,47.55,30.93,46.55,30.93ZM35.5,64a.15.15,0,0,0,.14.15.15.15,0,1,0,0-.29A.14.14,0,0,0,35.5,64Zm5-5c-.85-.35-.89-.54-.08-.35a4,4,0,0,0,2.23-.08L44.34,58c.67-.2.92-.33.89-.49s.43-.56.72-.44c.13,0,.29-.1.45-.43a1.55,1.55,0,0,1,.51-.65c.16-.09.28-.21.28-.29s-.47-.15-.92.15a12.85,12.85,0,0,1-5.78,1.78c-1.06.09-1.42.28-1.42.74,0,.1-.1.14-.21.1s-.86.22-.7.38a4.78,4.78,0,0,0,1.16.34,6.35,6.35,0,0,1,3,1.46,3.22,3.22,0,0,0,1,.63c.55.14.58.14.58,0C43.91,60.94,41.84,59.48,40.54,59Zm3.8,3.42c0,.07.23.17.53.22s.67.1.82.11.28,0,0-.18S44.35,62.17,44.34,62.37Zm3.73-5.8a11.69,11.69,0,0,1-3,1.51,2.86,2.86,0,0,0-.81.35c-.12.2.14.42.56.47l.43.06-.39.16c-.47.2-.53.38-.09.24l.31-.09-.31.42c-.16.23-.26.46-.22.51s.53-.08,1-.56c.28-.25.84-.71,1.26-1a5.07,5.07,0,0,0,1.82-2.1C48.79,56.06,48.7,56.07,48.07,56.57Zm-12.91,8.5a.36.36,0,0,0,.28.22c.28,0,.25-.11-.08-.29S35.1,64.89,35.16,65.07Zm15.51-25c.21,0,.37-.06.37-.14s-.09-.14-.21-.14l-.32,0a.18.18,0,0,0-.15.15C50.33,40,50.47,40.05,50.67,40.05ZM44.44,82.16c.16.16.33.1.33-.12a.21.21,0,0,0-.21-.21C44.33,81.83,44.27,82,44.44,82.16ZM41.77,15.39a.14.14,0,1,0-.28,0,.14.14,0,0,0,.28,0Zm8-6.84a.12.12,0,0,0,.12.13A8.82,8.82,0,0,0,51.47,7a3.14,3.14,0,0,1,.22-.57,1.9,1.9,0,0,0,.18-.91c0-.41-.09-.35-.53.66a5.87,5.87,0,0,1-1,1.65A2.8,2.8,0,0,0,49.76,8.55ZM40.38,19.27c0,.19,0,.25.38.25s.63-.14.45-.41S40.43,19,40.38,19.27Zm4.65-8c.71.73.49,1-1.22,1.32-.37.07-.52,0-1-.43s-.51-.54-.34-.64.17-.18,0-.35-.08-.26.48-.51,1-.28.85,0c-.05.07,0,.13.2.13s.27-.06.21-.21,0-.22.06-.22a.58.58,0,0,1,.32.22c.09.12.12.21.06.21S44.78,11,45,11.3ZM43.7,12a.91.91,0,0,1-.46-.3c-.1-.13-.18-.16-.18-.09,0,.25.33.49.63.47S44,12.07,43.7,12Zm1-.18c.09-.14-.46-.51-.58-.4a.42.42,0,0,0,0,.3A.31.31,0,0,0,44.69,11.83ZM43,9.4a3.07,3.07,0,0,1-.69.28c-.18,0-.66.44-.66.61s1,0,1.59-.35a2,2,0,0,1,1.32-.23c.58,0,.81,0,.86-.13s0-.28-1.07-.38A2,2,0,0,0,43,9.4ZM41.12,18c-.12.11-.27.09-.48,0-.37-.23-.77,0-.84.47,0,.28,0,.3.16.16a2,2,0,0,1,1.76-.07c.33.21.77.17.77-.08S41.32,17.8,41.12,18Zm9-10.78c.18.05.32-.12.58-.71.41-1,.35-1.12-.13-.35-.19.32-.46.57-.6.57-.33,0-.32-.1.11-.67.28-.36.33-.53.22-.72s-.15-.23-.15,0a2.86,2.86,0,0,1-.81,1c-.63.59-.75.77-.57.84a.37.37,0,0,1,.24.29c0,.28.23.24.57-.1A.63.63,0,0,1,50.16,7.18ZM39.07,39c0,.09,0,.16.1.16s.93-1,.84-1.1S39.07,38.84,39.07,39ZM11.14,54.44A2.37,2.37,0,0,1,12,55c.43.46.56.32.18-.18a7.37,7.37,0,0,0-2.71-1.32c-.27,0-.22.29.07.38.13,0,.44.16.67.26S10.85,54.35,11.14,54.44ZM4.46,76.66c-.09.24.13.22.47,0s.26-.22-.07-.18S4.49,76.56,4.46,76.66ZM3.81,60.71c-.13.13-.13.2,0,.3s.35.08.23-.23S3.94,60.57,3.81,60.71Zm22.42,4.86a.15.15,0,0,0,.15.14.14.14,0,1,0,0-.28A.15.15,0,0,0,26.23,65.57Zm1.92-3.71a2.23,2.23,0,0,0-1-.12c-.8,0-.87,0-.39.11C27.68,62,28.24,62,28.15,61.86Zm.79,22a.14.14,0,1,0-.14.14A.14.14,0,0,0,28.94,83.82ZM2.83,59.87c-.16,0,0,.76.19,1.19.13.24.17.24.35.06s.17-.27-.1-.73C3.11,60.1,2.9,59.87,2.83,59.87Zm47-19.49c-.14.14,0,.26.55.39.69.16,1.19.16,1,0A3.17,3.17,0,0,0,49.81,40.38Zm-13.6,9.71c0-.12-.06-.18-.14-.13a.3.3,0,0,0-.14.22.14.14,0,0,0,.14.14C36.15,50.32,36.21,50.22,36.21,50.09ZM93.86,29a5.9,5.9,0,0,1-1.31,1.61,9.74,9.74,0,0,0-2,2.55c-.46.89-.67,1.16-1,1.26a3.9,3.9,0,0,0-2.22,1.37c-.25.35-.81,1.06-1.24,1.57-1.21,1.41-1.5,1.86-1.31,2a.61.61,0,0,1,.15.39,3.45,3.45,0,0,0,.36.91,1.82,1.82,0,0,1,.13,1.91,4.83,4.83,0,0,0-.31,2.2,1.69,1.69,0,0,1-.49,1.34,3.34,3.34,0,0,1-.9.7c-.37.16-.47.31-.6.89a13.5,13.5,0,0,1-3,5.19,10.39,10.39,0,0,0-.71.86c-.12.18-.59.73-1,1.22a7,7,0,0,0-1.91,3.76c-.11,1.07.12,2,.5,2s.74-.48,1.06-1.11.32-.53.64-.33c.16.1.22.62.25,2.35l0,2.22-.46.29a1.91,1.91,0,0,1-2.07.13,5.55,5.55,0,0,1-2.32-2.38A5,5,0,0,1,74.06,59a2.15,2.15,0,0,0,.16-1,.88.88,0,0,1,.17-.6,8.92,8.92,0,0,0,.48-.88c.12-.27.31-.67.41-.88a6.72,6.72,0,0,0,.31-2.44c0-.59.06-.82.2-.82a.21.21,0,0,0,.2-.22q0-.23-.21-.15c-.22.08-.3-.2-.12-.39a2.42,2.42,0,0,0,.12-.88c0-.87-.18-1-.57-.4-.13.2-.75.94-1.37,1.62s-1.13,1.29-1.13,1.33a.83.83,0,0,0,.36.15c.2.05.36.17.36.26A9.77,9.77,0,0,1,72,55.33a27.21,27.21,0,0,1-3.27,2.79.38.38,0,0,1-.44,0c-.17-.11-.11-.33.41-1.31a15.73,15.73,0,0,1,.87-1.51,8.36,8.36,0,0,0,.7-1.44A5.46,5.46,0,0,1,71,52.5c.27-.25.29-.25.49,0a.83.83,0,0,1,.13.61c-.07.26,0,.31.12.22a43.4,43.4,0,0,0,3.94-4.8c.16-.23.21-.73.21-2.15V44.55l-.5-.1L72.93,44a17.8,17.8,0,0,1-3-.72,8.2,8.2,0,0,0-1.19-.41,13.18,13.18,0,0,1-1.7-.78,10.33,10.33,0,0,0-1.81-.79,10.29,10.29,0,0,1-2.6-1.71,3.19,3.19,0,0,0-1-.49.78.78,0,0,1-.59-.44c-.09-.19-.23-.35-.3-.35A15.54,15.54,0,0,1,59,36.75c-1.47-1.47-1.61-1.57-1.79-1.33A1.24,1.24,0,0,0,57,36a4,4,0,0,1-.9,2c-.57.73-.62.93-.81,2.89a13,13,0,0,1-.22,1.67c-.06.16.15.38.76.8A2.74,2.74,0,0,1,57.38,46a3.33,3.33,0,0,1-.53,2l-.53,1.05.39.42a5.62,5.62,0,0,0,.85.71,2.39,2.39,0,0,1,1.06,1.64c0,.29.29.68.91,1.34,1.59,1.67,1.86,2.44,1.81,5.17a4.55,4.55,0,0,1-.5,2.64,11.29,11.29,0,0,0-.73,2.1,13.78,13.78,0,0,1-.47,1.66,1.43,1.43,0,0,0-.13.78,3.74,3.74,0,0,1-.27,1.31,8.32,8.32,0,0,0-.36,1.25,8,8,0,0,1-.36,1.24,18.19,18.19,0,0,0-.86,3.38c-.3,1.64-.26,2.3.15,2.87.2.26.47.67.61.9a8.1,8.1,0,0,0,.82,1c.64.68,1.12,1.23,2,2.32A1.88,1.88,0,0,1,61.72,82c-.48,1.51-.66,1.84-1.12,2.07-.24.13-.43.27-.43.33a1.74,1.74,0,0,1-1,.57c-.06,0-.26.11-.43.28a1.92,1.92,0,0,1-2,.13,2.41,2.41,0,0,1-1.08-1.72,5.13,5.13,0,0,0-1.47-2.44,3.79,3.79,0,0,0-.82-.64c-.27,0-1-1-1.28-1.68-.34-.9-.35-1.39-.07-3.25a9.24,9.24,0,0,0,.08-3.46c-.07-.29-.24-1.06-.37-1.73-.32-1.66-.33-1.71-.63-1.71a3.4,3.4,0,0,1-.93-.29c-.8-.34-1.12-.35-1.36-.07a4.39,4.39,0,0,1-2.46.66c-.61,0-.67,0-.67.27a4.27,4.27,0,0,0,.46,1.19,16,16,0,0,0,3.24,3.58,5,5,0,0,1,1.11,1.5,3.06,3.06,0,0,1,.27,1.93,16.64,16.64,0,0,1-.38,2.39A4,4,0,0,0,50.34,82a10.31,10.31,0,0,1-.23,3.83,2.25,2.25,0,0,1-1.26,1.42,2.06,2.06,0,0,1-2-.1,3.24,3.24,0,0,0-1.14-.35,2.28,2.28,0,0,1-1.51-.74,2.82,2.82,0,0,1-1-2.43,10.13,10.13,0,0,1,.71-3.4l.31-1-.31-1a3.45,3.45,0,0,0-1.53-2.32c-.45-.35-1.2-1-1.67-1.46A18.08,18.08,0,0,0,38.92,73a15.17,15.17,0,0,1-2.46-1.9,2.94,2.94,0,0,0-.73-.58,7.93,7.93,0,0,0-1.27,1.16l-1.13,1.16-1-.07a3.67,3.67,0,0,1-1.5-.38c-.61-.36-.92-.31-.92.16,0,.18-.2,1.29-.44,2.46-1,4.91-.93,5.69.72,8.22,1.13,1.74.87,3-.83,4.21a3.93,3.93,0,0,1-1.2.62,4.63,4.63,0,0,0-1.16.42c-1.44.69-1.65.69-2.42,0a2.2,2.2,0,0,1-.87-1.61,12.54,12.54,0,0,1-.21-2.2,8.6,8.6,0,0,0-.74-3.46,4.6,4.6,0,0,1-.06-2.86,5.32,5.32,0,0,0,.18-3.05,9.73,9.73,0,0,1-.3-1.38,10.84,10.84,0,0,0-.3-1.46c-.18-.6-.29-.78-.51-.78a.4.4,0,0,0-.36.22c-.05.11-.15.21-.23.21a1.18,1.18,0,0,0-.47.35,1.75,1.75,0,0,1-.87.43,3.66,3.66,0,0,0-.8.22,3.09,3.09,0,0,1-2.47-.06,3,3,0,0,1-2.11-1.61,6.52,6.52,0,0,0-.72-.95,1.21,1.21,0,0,1-.37-.63c0-.29-.3-.59-.85-.86a11.7,11.7,0,0,1-1.47-.86,1.51,1.51,0,0,0-.58-.29,27.35,27.35,0,0,0-.52,3,9.2,9.2,0,0,1-.26,1.43A11.23,11.23,0,0,0,9.48,74a6.11,6.11,0,0,0,.5,3.29,6,6,0,0,1,.49,2.31,9.84,9.84,0,0,1-1.68,3,12.15,12.15,0,0,0-1.22,1.87c-.58,1.16-.65,1.26-1.44,1.8a4.13,4.13,0,0,1-2.64.77c-1.21,0-1.38-.08-1.9-.84a8,8,0,0,0-1-1.21C.07,84.58,0,84.43,0,83.89c0-.92.13-1.16,2.33-4.34a5.18,5.18,0,0,0,.81-5A46.88,46.88,0,0,1,1.2,63.08a8.52,8.52,0,0,0-.6-3.56,4.12,4.12,0,0,1-.39-2.15,2.56,2.56,0,0,1,.6-2.15,5.88,5.88,0,0,1,1-1.1A3.88,3.88,0,0,0,2.59,53,3.28,3.28,0,0,1,4,51.52a5.91,5.91,0,0,1,1.39-.7c.37-.08.63-.33,1.33-1.3s1-1.2,1.16-1.2a1.66,1.66,0,0,0,.78-.43,1.72,1.72,0,0,1,.76-.42c.42,0,.35-.25-.27-1.06-.8-1-1-1.59-1.22-3.68A14,14,0,0,1,8,37.56c.16-.79.38-2,.5-2.64,1.38-7.66,1.89-9,3.67-9.76.48-.2.53-.28.53-.77a1.28,1.28,0,0,0-.15-.68A6.71,6.71,0,0,1,12,20.79c0-1.73.51-2.55,1.82-2.93a4.17,4.17,0,0,1,3.38.61A4.68,4.68,0,0,0,18,19c.18,0,.61.37,1.17,1l.47.54V20c0-.29-.09-.52-.21-.57a.54.54,0,0,1-.25-.4c0-.26-.18-.37-.69-.48-1.4-.33-1.79-.59-2.22-1.5-.22-.47-.49-.85-.59-.85-.38,0-.75-.56-.75-1.15a1.15,1.15,0,0,0-.35-.93c-.56-.55-.62-.77-.61-2,0-1.06,0-1.22-.39-1.75s-.4-.6-.17-1.08a2.91,2.91,0,0,0,.24-1,3.65,3.65,0,0,1,.14-1c.07-.24.17-.61.21-.82a4.85,4.85,0,0,1,.86-1.31,3,3,0,0,0,.78-1.28c0-.48.74-1.09,1.33-1.09a.68.68,0,0,0,.7-.43c.29-.51.75-.71,1.62-.71q.65,0,.72-.21a1.2,1.2,0,0,1,.42-.43c.29-.19.45-.2,1-.07s.61.14.85-.19.27-.36,2-.29c1,0,1.95.07,2.21.06a1.46,1.46,0,0,1,.78.2,1.91,1.91,0,0,0,.91.21c.49,0,.66.08.86.38.47.67.75.91,1.09.91s.67.48.67,1.07a.74.74,0,0,0,.28.54,2.61,2.61,0,0,1,.44,2.05,5,5,0,0,1-.37.9c-.2.39-.21.54-.07.75a5.9,5.9,0,0,1,.24,1.58,10,10,0,0,0,.35,2.12,5.37,5.37,0,0,1,.27,1.3,17.55,17.55,0,0,1-1.16,5.09c-.15.24-.57,1.13-1,2.07a1.48,1.48,0,0,1-.94.93A4.27,4.27,0,0,1,28,21a.85.85,0,0,0-.38.14c-.18.11-.17.16.07.35a10.4,10.4,0,0,0,2.46,1.28,1.2,1.2,0,0,1,.54.23,4.11,4.11,0,0,0,1.4.13,8.7,8.7,0,0,1,2.38.3,18.82,18.82,0,0,0,2.46.44,3.37,3.37,0,0,0,2.28-.21,8.62,8.62,0,0,1,1.33-.45c.48-.1,1.1-.59,1-.78a2.09,2.09,0,0,0-.82-.19,1.56,1.56,0,0,1-1.34-.72,3.29,3.29,0,0,1-.68-1,7.11,7.11,0,0,0-.58-1.15,8.43,8.43,0,0,1-.81-6.43,1.81,1.81,0,0,0,0-1.79,8,8,0,0,1-.15-3.3c.29-.36.3-.8,0-1.56A3.87,3.87,0,0,1,37,4.55c.1-1.22.29-1.7.73-1.8a3.75,3.75,0,0,0,1-.72c.59-.51.77-.6,1.09-.53a3.14,3.14,0,0,1,.45.14A2.41,2.41,0,0,0,41,1.13a1.62,1.62,0,0,1,1-.57A2.06,2.06,0,0,0,43,.27,1.09,1.09,0,0,1,44.3.2.63.63,0,0,0,45,.26,5.15,5.15,0,0,1,46.73.2c1.19.09,1.35.13,1.55.44a.74.74,0,0,0,.61.35,2.35,2.35,0,0,1,.94.34c.31.2.76.44,1,.56a2,2,0,0,1,1.24,1.58c0,.46,0,.51.4.51.54,0,.7.24.67,1a1.16,1.16,0,0,0,.36,1.07c.43.44.48.8.24,1.66a1.33,1.33,0,0,0,0,.86c.46,1,.49,1.19.22,1.6a2.87,2.87,0,0,0-.27,1.54c0,1.23,0,1.21-1.63,3.79a4.08,4.08,0,0,0-.43.85,7,7,0,0,1-.55,1.22c-.47.86-.6,1-1,1a.62.62,0,0,0-.61.46c-.15.36-.13.53.13,1.17a3,3,0,0,0,2.33,1.84c.57.16,1.25.38,1.51.49a1.62,1.62,0,0,0,1.55,0,2.31,2.31,0,0,1,1.79-.1,1.27,1.27,0,0,0,.7.17,2,2,0,0,1,1.06.35,2.17,2.17,0,0,0,.71.36A4.77,4.77,0,0,1,61,25.21c-.18.66-.23,1.15-.11,1.15a2,2,0,0,1,.39.87,7.44,7.44,0,0,0,.66,1.5,5.17,5.17,0,0,1,.5,1c.15.64.79,1.46,2.21,2.82.74.7,1.75,1.76,2.25,2.35,1,1.23,1.12,1.28,2.07,1.63a30.47,30.47,0,0,1,4.08,2,3,3,0,0,0,.56.37l1.28.67A6.21,6.21,0,0,0,76,40c.12,0,.18-.24.2-.74s0-1,0-1.24c.06-1,.23-4.37.29-5.71,0-.74.13-2.12.2-3.06.18-2.1.1-4.85-.14-5.15a5.2,5.2,0,0,1,.25-2.86,6.2,6.2,0,0,1,2.27-2.62,2.23,2.23,0,0,1,1.42,0,2.24,2.24,0,0,1,.31.82c.09.39.27,1.11.4,1.6a3,3,0,0,1,.15,1.1c-.15.41-.93.26-1.62-.29-.34-.29-.67-.48-.72-.42a5,5,0,0,0,0,2.53,29.92,29.92,0,0,0,3.39,4,6.13,6.13,0,0,1,.9,1.36c.57,1.14.6,1.55.43,6.16a17,17,0,0,0,0,3.25c.16,0,.31-.18,1.77-2s1.79-2.42,2-3.85l.17-1.21,1.12-1.14a19.27,19.27,0,0,0,2.67-3.2c.48-.75.5-.77.63-.43A2.73,2.73,0,0,1,92,28.26c-.35,1.44,0,1.72,1.17.87C93.73,28.73,93.76,28.72,93.86,29ZM71.17,54.84a1.33,1.33,0,0,1-.08-.9l.1-.7-.29.36a2.38,2.38,0,0,0-.39.71,9.91,9.91,0,0,1-.59,1.25,9,9,0,0,0-.49,1c0,.17.84-.4,1.35-.92S71.3,55,71.17,54.84Zm7.25-30.22c0-.14-.56-.48-1-.6-.72-.22-.36.31,1.85,2.69,1.49,1.62,2.72,5.09,2.39,6.8-.18.94,0,1.27.44.76s.08-2.45-.42-3.56-.52-1.21-.25-1.21c.51,0,1.12,1.4,1.31,3s.39.52.27-1.13a3.2,3.2,0,0,0-.74-2.28,19.62,19.62,0,0,0-1.53-1.87A21.43,21.43,0,0,1,78.42,24.62Zm4,12.51c-.32,0-.36-.07-.4-.68,0-.37-.11-.68-.19-.68s-.14.44-.1,1.23c0,1,.1,1.26.32,1.42.44.32.63.24.73-.28C82.91,37.4,82.81,37.13,82.41,37.13Zm-1-1.69c0-.61,0-1.07-.1-1a8.77,8.77,0,0,0-.21,2.83C81.24,37.5,81.37,36.74,81.39,35.44Zm-.27,2.19c-.09,0-.11.06-.06.14s.11.14.15.14.06-.06.06-.14A.15.15,0,0,0,81.12,37.63ZM78.27,20.72c.26.26.3.27.55,0s.5-.31.9.11.69.46.59-.17c-.13-.9-.42-1.46-.74-1.46s-.75.32-1.32.91C78,20.43,78,20.44,78.27,20.72Zm-.92.81c.11.17.5.17.5,0a.29.29,0,0,0-.43-.22A.18.18,0,0,0,77.35,21.53Zm0,.83c.15,0,.23,0,.18-.08a.31.31,0,0,0-.27,0Q77.09,22.35,77.34,22.36Zm.11.86a1.43,1.43,0,0,0,.54,0c0-.12-.71-.18-.88-.07S77.11,23.22,77.45,23.22Zm-.63,15.33c.06,2.21.13,2.4.79,2.05a11.09,11.09,0,0,0,2.71-2.16,52.71,52.71,0,0,0,.11-7.34,6,6,0,0,0-1.7-4c-.92-1.07-1.21-1.28-1.37-1,0,.07-.12,1.78-.16,3.81s-.11,3.72-.14,3.77A29.69,29.69,0,0,0,76.82,38.55Zm-.12,8.63a4.13,4.13,0,0,0,.84-.82c.4-.45.67-.87.6-.94a1.82,1.82,0,0,0-.68-.19c-.55-.08-.56-.07-.73.49S76.51,47.18,76.7,47.18ZM56.48,24.89c-.59.82-.44,1.1.37.69,1-.51,1-.51.93-.13s0,.34.16.34a.22.22,0,0,1,.23.22c0,.28.56.27,1,0s.82-1.06.6-1.06a.28.28,0,0,0-.23.21.42.42,0,0,1-.37.21c-.24,0-.27-.05-.18-.39.17-.61.15-.92,0-1s-.18,0-.18.16-.49.8-.72.8-.11-.26-.05-.71c.09-.66.07-.72-.2-.72a.85.85,0,0,0-.55.37C57.07,24.08,56.75,24.54,56.48,24.89Zm2.83,1.72c0,.26.2.22.48-.08.13-.14.2-.3.15-.35S59.31,26.4,59.31,26.61ZM49.76,12.68c.08,0,.14-.1.14-.23s-.06-.18-.14-.13a.3.3,0,0,0-.14.22A.14.14,0,0,0,49.76,12.68Zm.14,1.94c0,.42.11.42.53,0s.44-.83.16-.83A.92.92,0,0,0,49.9,14.62ZM51,15c0-.17-.06-.32-.14-.32s-.14.12-.14.26a1,1,0,0,1-.43.57.88.88,0,0,0-.43.76c0,.5.33.5.4,0a.33.33,0,0,1,.31-.32C50.87,16,51,15.59,51,15ZM53.4,9.44c-.11-.3-.33-.1-.48.43-.08.25-.18.57-.24.7-.2.51.2.23.49-.34A1.43,1.43,0,0,0,53.4,9.44Zm-.64-1.93a6.75,6.75,0,0,1-1.41,2.26l-.5.43.28.42a2.22,2.22,0,0,1,.06,2c-.18.53-.09,1.29.12,1.15a1.18,1.18,0,0,0,.22-.59h0c.07-.42.14-.5.37-.44s.31,0,.35-.06c.18-.28.38-.11.31.26s-.06.37.13.12S53,12,52.66,12a.92.92,0,0,0-.5.24c-.36.32-.34,0,0-.38s.41-.85.07-.57-.42,0-.09-.42.38-.58.1-.58a.36.36,0,0,1-.28-.13,2,2,0,0,1,.49-1.22,3.34,3.34,0,0,0,.71-1.49C53.18,7,53,7.05,52.76,7.51ZM51.28,9.3a6.3,6.3,0,0,0-1.89,1c-.08.12,0,.14.17.06a3.37,3.37,0,0,1,.67-.19C50.62,10.08,51.41,9.44,51.28,9.3ZM39.85,3.92a1,1,0,0,0,.21-.4c0-.2-.25-.12-.34.11C39.57,4,39.64,4.2,39.85,3.92Zm-.28.34c-.22,0-.31.58-.13.76s.34.08.34-.33S39.71,4.26,39.57,4.26Zm-.93-.59c0,.6,0,.63.19.38s.34-.59.52-1a1.69,1.69,0,0,0,.26-.75s-.27.1-.52.31A1,1,0,0,0,38.64,3.67ZM36.32,25c.33-.13.61-.28.61-.34a2.75,2.75,0,0,0-1.45-.17,1.91,1.91,0,0,0-.19.42C35.17,25.3,35.44,25.32,36.32,25ZM30.44,10c.2,0,.36-.07.36-.15s-.16-.14-.36-.14-.36.07-.36.14S30.24,10,30.44,10ZM30,11.1c-.18-.07-.33-.2-.33-.28s-.07-.11-.16-.05.25.49.58.47C30.21,11.24,30.18,11.18,30,11.1Zm.1-7.89c0,.38.2.58.27.27a.5.5,0,0,0-.11-.4C30.13,3,30.08,3,30.08,3.21Zm-1.23.55c0-.11-.14-.21-.23-.21s-.07.09,0,.21a.83.83,0,0,0,.22.22S28.9,3.88,28.85,3.76Zm-.94-.07c-.17,0-.13.2.2,1.06s.55,1,.55.43C28.66,4.81,28.1,3.7,27.91,3.69Zm.14-1.5c.3.6.37.62.59.13.15-.33.13-.42-.14-.71C27.87.94,27.6,1.28,28.05,2.19ZM24.51,1.13l0,.39a.74.74,0,0,0,.46.59c.38.18.4.21.17.38s-.23.19,0,.37.34.32.47.47c.66.77,1,1.09,1.16,1A.32.32,0,0,0,27,4.11a3.55,3.55,0,0,0-.72-.8c-.75-.71-.89-1-.42-1a.26.26,0,0,0,.28-.22c0-.52.78,0,1,.63s.63.82.93.52.17-.25-.29-.52-.59-.41-.35-.66S27,1.5,26.3,1.54a3.83,3.83,0,0,1-1.18-.19Zm2.44,2c-.31-.44-.43-.53-.43-.31s.59.9.67.82S27.12,3.37,27,3.13Zm-.43,1.42c-.06,0-.14.13-.18.28s0,.29,0,.29.15-.13.19-.29S26.58,4.55,26.52,4.55ZM22,2.13c.26,0,.3,0,.17-.18s-.21-.13-.34,0S21.69,2.13,22,2.13ZM15.85,15.07c-.13-.13-.17-.09-.17.17s0,.31.17.17S16,15.2,15.85,15.07Zm3,2.24c0-.2-.07-.36-.14-.36s-.15.16-.15.36.07.36.15.36S18.82,17.51,18.82,17.31Zm-.68-2.86c-1-.93-1.29-1.47-1.05-2a1.87,1.87,0,0,0,.16-.64,1.08,1.08,0,0,1,.3-.58c.25-.25.41-.28.93-.21.68.09.79-.06.47-.64-.1-.21-.1-.34,0-.47s.08-.25-.13-.44a.87.87,0,0,1-.29-.38c0-.2,1.06-.13,1.35.1.5.37.69.27.59-.33-.23-1.31-.2-1.27-.84-1.41s-.85-.57-.1-.5a1.53,1.53,0,0,1,.68.2.57.57,0,0,0,.45.07.84.84,0,0,1,.58.13c.28.2.29.19.29-.29s.16-.73.7-.45c.27.14.46.17.51.08s-.16-.45-1-.83-.82-.69-.08-.63a1.31,1.31,0,0,1,.89.48c.32.35.43.41.53.25A.62.62,0,0,0,23,5.12a.56.56,0,0,1-.22-.33c0-.08.12,0,.26.09a1,1,0,0,0,.5.24,1.38,1.38,0,0,1,1.17.81c.12.26.29.44.36.4s-.26-1.11-.76-1.52-.44-.39-.2-.66.24-.29-.11-.57a.89.89,0,0,1-.36-.51c0-.45.41-.22.87.48s.65.85.79.49c.06-.14-.12-.42-.5-.78s-.55-.65-.5-.77-.08-.29-.36-.42a1.21,1.21,0,0,1-.52-.51.42.42,0,0,0-.37-.29c-.23,0-.27.06-.19.32a1.72,1.72,0,0,0,.24.49c.09.12,0,.21-.49.33a7.22,7.22,0,0,0-.94.29c-.36.15-.56-.1-.4-.5C21.36,2,21.28,2,21,2s-.36.08-.36.22-.05.19-.12.15-.24,0-.39.13a2.09,2.09,0,0,1-1,.21c-.74,0-.77,0-.68.35.12.49-.15.61-1.55.7-.41,0-.43.06-.39.56s0,.56-.17.62a.22.22,0,0,0-.13.28c0,.12,0,.21-.12.21a3,3,0,0,0-1.26,1c0,.08.15.13.33.13s.31,0-.21.58-.75,1.33-.23,1.47c.31.08.31.1-.16.57l-.47.49.3.31a.59.59,0,0,0,.59.22c.32-.1.38.14.06.27a.4.4,0,0,0-.21.37c0,.23.09.29.48.29h.48l-.47.49c-.59.62-.88,1.42-.63,1.72s.51.26.77-.11.26-.3.23.5c0,.61.1,1.11.29,1.11s.24-.25.38-.54.36-.55.57-.58c.43-.06.59.35.23.61-.19.14-.27.4-.29.92,0,.73.14,1,.31.45a.62.62,0,0,1,.79-.36c.09,0,0,.26-.15.57-.29.47-.28.78,0,.78.07,0,.17-.1.22-.23h0c.06-.15.19-.19.42-.13.39.09.41,0,.16-.37-.15-.24-.14-.32.09-.49S19,15.21,18.14,14.45Zm1.63,1.76a3,3,0,0,0,.47.72c.16.14.18.2,0,.26-.3.12-.2.29.25.38s.57.46.14.6-.35.35.07.35.55.2.16.62l-.34.36.44.37a1.54,1.54,0,0,0,.7.36c.32,0,.34.37,0,.49a3.17,3.17,0,0,1-.74.08c-.81,0-.36.26.54.32l.78,0-.45.25a2,2,0,0,1-.75.25c-.16,0-.29.06-.29.14s.27.15.6.15H22l-.63.28c-.48.22-.6.33-.55.55s0,.29-.25.35c-.44.11-.49.46-.44,2.72a6.78,6.78,0,0,0,.29,2.43,6.91,6.91,0,0,1,.3,2.49,21.65,21.65,0,0,0,.56,4.6,12.22,12.22,0,0,1,.22,1.4c0,.26.07.3.47.25s.65.18.35.56.31.24.82,0c.27-.12.4-.12.53,0s0,.24-.54.46a5.22,5.22,0,0,1-1.06.33c-.35,0-.36,0-.36,1.16v1.14l.5.08c.45.07.47.09.22.23a.68.68,0,0,1-.45.09.25.25,0,0,0-.27.1c-.07.11.12.13.65.06.9-.12.95.15.08.44s-1,.56-.37.44l.5-.1-.47.4c-.54.47-.59.76-.14.76s.3,0,.07.2-.34.8-.1.8c.09,0,.12.05.07.13a2.93,2.93,0,0,0,0,.94c.09.75.11.8.43.74l.35-.07-.32.34c-.5.53-.19.7,1.2.68.64,0,1,0,.85,0-.51.1-.38.27.43.59a4.86,4.86,0,0,0,2.92.14,1.76,1.76,0,0,0,.75-.28c0-.17-.51-.4-.89-.41h-.32l.34-.14c.33-.13.33-.14.08-.42s-.44-.28-1.05-.28a2.88,2.88,0,0,1-1-.14c-.16-.1,0-.14.59-.14.91,0,1.12-.17.76-.58-.2-.22-.37-.25-.87-.18s-.63,0-.63-.08.26-.16.64-.16c.71,0,.81-.08.63-.54a.72.72,0,0,0-.55-.41c-.65-.13-.7-.37-.07-.31s.79-.17.51-.5c-.11-.14-.07-.33.14-.72.31-.58.26-.8-.16-.8-.16,0-.28-.06-.28-.13s.25-.32.35-.16a.33.33,0,0,0,.24.15c.18,0,.09-.5-.09-.51-.44,0-.93-.26-.88-.4s.24-.18.81,0c.36.1.37.08.67-1.44s.29-1.9-.22-1.63-1.24.09-.89-.33c.18-.22.06-.65-.19-.65a1,1,0,0,1-.44-.2c-.32-.23-.16-.57.18-.4s1,.32,1,.13c0-.75.48-1,1.12-.61a1.08,1.08,0,0,0,.41.2,6.69,6.69,0,0,0,.51-1c0-.05-.18-.07-.38,0-.63.07-.55-.28.08-.38s.6-.15,1.16-1.26a19.85,19.85,0,0,1,1-1.74A3.73,3.73,0,0,0,31.45,30a6.83,6.83,0,0,1,2.88-4c.65-.5.74-.63.74-1.08s-.2-.85-.59-.85c-.19,0-.28.15-.35.57-.13.79-.38.74-.28-.06,0-.37,0-.67-.06-.72-.28-.18-.68.08-.76.5s-.31.54-.31,0c0-.41,0-.47-.42-.51a.62.62,0,0,0-.61.21c-.17.23-.18.23-.18-.06s-.09-.32-.35-.32a.9.9,0,0,0-.56.22c-.29.29-.41.27-.3-.07s-.6-.59-.86-.24a.61.61,0,0,1-.43.24c-.24,0-.24,0,0-.29s.25-.29,0-.49-.76-.27-.88,0a.51.51,0,0,1-.42.26c-.4,0-.41,0,0-.47s.11-.41-.88.14c-.78.43-.86.44-1.08.22s-.15-.54.32-.54,1.19-.38,1.19-.57-.19-.07-.46,0a4.64,4.64,0,0,1-1,.13,2,2,0,0,0-.82.17c-.21.14-.32.14-.44,0s-.18-.17.94-.61c.6-.23.44-.48-.26-.38a2.85,2.85,0,0,1-.93,0c-.43-.11-.39-.47,0-.47s.45-.21-.14-.67-.64-.8-.37-1a2.84,2.84,0,0,1,1,.38,3.78,3.78,0,0,0,2.35.47c1.34,0,1.48,0,1.82-.34s.32-.4.22-.52-.06-.23.1-.37c.85-.7,2.33-5.49,2.11-6.86-.11-.66-.23-.74-.82-.52a2.63,2.63,0,0,1-1.14.07c-.61-.09-.67-.14-.67-.5a1.47,1.47,0,0,1,.29-.77c.35-.44.36-.55,0-.42-.67.25-.87,1.25-.48,2.43A9.87,9.87,0,0,1,29,13.84c.09.59.07.68-.2.76-.46.15-.73-.17-.63-.73a1.28,1.28,0,0,0-.21-1,3.2,3.2,0,0,1,.43-3.33,4,4,0,0,1,1.37-1c.68-.31.89-.48.89-.71,0-.45-.4-1.14-.68-1.16l-.78-.06a1.81,1.81,0,0,1-1.07-.5l-.53-.47-.1.66c-.15,1.09-.38,1.22-1,.57-.25-.25-.42-.33-.46-.23-.12.34-.64.9-.82.9s-.88-.73-1-1.14-.42-.22-.37.47c.08,1.13-.45,1.61-1.05.92l-.28-.32-.05.75c0,.79-.18.9-.75.6-.23-.12-.28-.1-.3.18s0,.42,0,.54a1.52,1.52,0,0,1-.18.5c-.14.25-.22.26-.58.12-.65-.24-.75-.09-.67,1.06.08.94.06,1-.23,1.18s-.35.12-.54-.13a1.31,1.31,0,0,0-.69-.39c-.45-.09-.46-.08-.46.41,0,.81.24,1.26,1.11,2.05s.79.76.63,1S19.56,15.77,19.77,16.21Zm8.44,19.6a.31.31,0,0,0-.18.3c0,.14-.08.23-.23.23-.32,0-.49.24-.25.34s.3.1.49,0a1.08,1.08,0,0,0,.27-.51C28.39,35.83,28.37,35.75,28.21,35.81Zm-2,12.89c.14-.14.09-.16-1.38-.59-2.37-.7-2.88-.64-1.33.13a4.52,4.52,0,0,1,.82.49A4.47,4.47,0,0,0,26.19,48.7ZM25,49.78c-.17.17.09,1.11.31,1.11a4.64,4.64,0,0,1,1.64,1,8.49,8.49,0,0,1,1,1.37c.53.92.87,1.27.87.9a5.74,5.74,0,0,0-.9-1.82,3.12,3.12,0,0,1-.56-.69C26.75,50.74,25.26,49.53,25,49.78Zm-4-2.26c.18,0,.37,0,.41,0,.15-.24-.1-.76-.43-.89S20.57,46,21,46s.35-.37-.14-.49-.5-.65-.13-.65.21-.78-.19-.83-.36-.51.09-.57.32-.38-.13-.38-.54-.44-.07-.56.47-.48,0-.66-.46-.53,0-.7a1.1,1.1,0,0,0,.43-.28c.14-.22-.2-.34-.44-.14a4.45,4.45,0,0,1-1.91.62c-.25-.08-.83.29-.69.43s.22,0,.38-.08a.67.67,0,0,1,.55-.07c.24.09.22.14-.21.52-.6.55-.56.93.09.88a1,1,0,0,1,.71.19c.21.22.21.25,0,.43a1,1,0,0,1-.37.2c-.05,0-.13.09-.18.21s.06.19.66.14c.41,0,.65,0,.53,0a1.07,1.07,0,0,0-.71.86c0,.27.08.34.35.34s.47.27.13.79c-.22.34-.22.35.14.35s.37.07.37.36a1.26,1.26,0,0,1-.34.72c-.43.42-.21.45.37.05A1,1,0,0,1,21,47.52Zm-.63,1.33c-.11-.12-.15-.05-.15.26s0,.39.16.16S20.52,49,20.4,48.85Zm-2.32-8.23c.29-.39.3-.43.07-.42s-1,.49-.84.69S17.75,41.07,18.08,40.62Zm1.2-.22a1.63,1.63,0,0,0,.6-.36c.26-.25.26-.26-.12-.36a.54.54,0,0,0-.75.52C19,40.45,19,40.48,19.28,40.4Zm-6.5-18.6a5,5,0,0,0,.8-.71,4.81,4.81,0,0,1,.84-.72c.33,0,.23.37-.22.82a3.53,3.53,0,0,0-.51.6c0,.05-.2.2-.43.34-.46.28-.49.34-.29.67.11.17.23.13.68-.3.73-.68,1.26-1,1.53-.89s.3.33.09.33-.17.1-.21.23,0,.2.2.13.28,0,.28.08.13.13.36.07.35,0,.35.06a.15.15,0,0,1-.15.15,3.3,3.3,0,0,0-.86.51c-.78.57-1.2.57-1.09,0l.06-.35-.4.3a1.52,1.52,0,0,0-.41.38.39.39,0,0,0,.48.36c.31-.12.32.44,0,1.22s-.17.92.14.5.41,0,.16.56-.17,1.08.08,1.08c.07,0,.23-.2.36-.44.44-.84,1.45-1.69,1.78-1.48s-.56.92-.94.92-.34.14-.47.61a8.62,8.62,0,0,1-.33.91c-.12.25-.09.45.17,1,.42.88.38.85.69.56s.54-.1.39.28.32.26.69,0,.65-.27.65,0-1,.95-1.51.9-.42,0-.46.29c-.06.43.21.75.34.4a.42.42,0,0,1,.37-.23,1.28,1.28,0,0,0,.66-.36,1.24,1.24,0,0,1,.67-.35c.24,0,.23,0-.07.15s-.83.7-.56.7a1.25,1.25,0,0,0,.44-.16.4.4,0,0,1,.49,0c.24.21.26.42.05.42a1.64,1.64,0,0,0-.57.3c-.43.3-.7.27-.7-.09,0-.11-.07-.21-.14-.21a2.87,2.87,0,0,0-.86,1.35c0,.4.29.38.53-.05s.61-.59.61-.21c0,.17.17.09.64-.29.76-.63,1.09-.56.57.12s-.44.63,0,.54c.21,0,.36,0,.36.1a.18.18,0,0,1-.19.15,1.11,1.11,0,0,0-.53.36c-.37.4-.29.46.19.15.29-.18.34-.17.57.15s.22.34,0,.34a1.79,1.79,0,0,0-.71.5c-.5.49-.68.61-.63.39a1.56,1.56,0,0,0-.13-.46l-.15-.36-.14.37a1.77,1.77,0,0,1-.37.55c-.26.21-.32.87-.09.87.08,0,.22-.16.31-.36.17-.37.4-.48.4-.19a8.74,8.74,0,0,1-.31,1.14c-.24.76-.28,1-.14,1.15s.2.13.34,0c.46-.46.52,0,.11.75-.19.38-.24.6-.14.71s.18.05.23-.14a2.17,2.17,0,0,1,1.51-1.11c.31.06.29.1-.36.79a7.16,7.16,0,0,0-.82,1c-.23.42.16.32.78-.2A1.32,1.32,0,0,1,19,39c.53,0,1-.25.8-.53s.09-.59.58-.59.48-.06.44-.18-.26-.16-.53-.14c-.48,0-.92-.18-.78-.41,0-.07.23-.12.42-.12.51,0,.78-.15.78-.44s-.12-.27-.53-.3-.54-.11-.54-.33.11-.3.47-.33.52-.07.32-.45A.37.37,0,0,0,20,35c-.35.09-.67-.15-.56-.42a.41.41,0,0,1,.37-.23c.43,0,.36-.41-.1-.59l-.39-.14.36-.28.35-.28-.35-.27c-.32-.25-.33-.29-.11-.37s.32-.39,0-.6a.54.54,0,0,1-.12-.85.27.27,0,0,0-.21-.47c-.09,0-.25-.14-.36-.3s-.14-.35.15-.66l.33-.36L19,29a.71.71,0,0,1-.32-.48c0-.15-.07-.27-.15-.27-.33,0-.1-.42.29-.5.56-.13.57-.5,0-.5a.74.74,0,0,1-.51-.14c-.16-.27-.6-.15-1.35.36a2,2,0,0,1-1.12.47c-.56-.07-.5-.52.12-.84a7.74,7.74,0,0,1,2.86-.63c.24.07.28,0,.28-.41s-.07-.51-.36-.58-.36-.19-.36-.37.06-.28.14-.28.22-.2.34-.43c.2-.41.2-.43-.13-.52a1.17,1.17,0,0,0-.56,0c-.21.08-.64-.25-.64-.49s.58-.43,1.07-.34.5.05.5-.13-.43-.52-.93-.52-.93-.24-.93-.58.53-.58,1-.52c.17,0,.33,0,.36-.13s-.57-.34-1.24-.34a.8.8,0,0,1-.56-.21A.37.37,0,0,1,17,20c.12,0,.19-.07.13-.15a.23.23,0,0,0-.28-.09c-.27.11-.7-.26-.6-.51a.22.22,0,0,0-.15-.3,2.45,2.45,0,0,1-.5-.27c-.21-.15-.38-.11-1.1.29s-.86.47-1,.17-.12-.29-.34,0-.5,1.18-.34,1.18a3.42,3.42,0,0,0,.59-.35c.53-.36.78-.36.78,0S13.1,21.33,13,21.12s-.13-.14-.2-.1S12.64,21.8,12.78,21.8ZM15.4,39.63a4.37,4.37,0,0,1-.3.8c-.54,1.19-.52,1.51.12,2.15a7.82,7.82,0,0,1,1,1.29,2.51,2.51,0,0,0,.45.68,3,3,0,0,0,.18-.6,7,7,0,0,0-.76-3.64C15.67,39.54,15.4,39.27,15.4,39.63ZM16.15,34c.17-.35.34-.5.56-.5s.3,0,0-.21a1.14,1.14,0,0,0-.38-.21,3.38,3.38,0,0,0-.68,1.27C15.68,34.65,15.92,34.47,16.15,34ZM11.9,47.75c2.16,1.42,4.6,2.9,5.66,3.43s1.21.68,1.44,1.36.53.83.53.43.28-.4.45,0,.41.47.41.08c0-.16.09-.29.2-.29s.23.13.27.29a.36.36,0,0,0,.29.28c.13,0,.19-.09.14-.27-.09-.35.16-.5.38-.23a.41.41,0,0,0,.71,0c.25-.29.43-.27.43.06,0,.17.26.43.68.7a7,7,0,0,0,.73.44s0-.21,0-.47,0-.53.05-.58.18-.82-.06-1.41C24,51.23,24,51,24.1,51s.17-1.26,0-1.47-.85-.22-.82,0,0,.55-.15.46a1.15,1.15,0,0,1-.15-.69v-.59l-.23.5c-.37.83-.41.9-.6,1s-.17-.11-.15-.5,0-.64,0-.76c0-.42-.33.29-.33.81s-.28.56-.41-.08c-.17-.83-.39-.8-.48.07,0,.31-.07.59-.08.63s-.11-.13-.21-.36l-.2-.43-.24.61c-.13.33-.29.6-.35.6s-.1-.38-.1-.85c0-.81-.14-1.28-.28-.89a.33.33,0,0,1-.28.18.14.14,0,0,1-.14-.21c.13-.35-.29-.57-.71-.38s-.35.14-.27-.13a.55.55,0,0,0-.59-.71c-.29,0-.34,0-.26-.28s0-.86-.25-.86a1,1,0,0,0-.45.25c-.26.23-.26.21,0-.16s.28-.47.17-.67c-.23-.43-.39-.45-.65-.06-.36.55-.4.32,0-.27.25-.43.27-.56.12-.74s-.21-.18-.44,0-.53.13-.22-.21c.45-.49.19-1.09-.3-.72-.23.17-.23.17,0-.08s.21-.3-.39-.91L14,42.43l-.62.24a3.35,3.35,0,0,1-.88.23c-.25,0-.25,0,0-.26a.9.9,0,0,0,.24-.43c0-.1.29-.3.64-.45s.64-.35.64-.44-.1-.12-.25-.06c-.58.24-.78.26-.72.07a.89.89,0,0,1,.55-.32c.81-.21,1-.82.25-.82-.55,0-.46-.13.11-.16s.77-.22.77-.64-.15-.41-.78-.34c-.16,0-.23,0-.17-.08a1.1,1.1,0,0,1,.57-.13c.36,0,.48-.08.59-.4s.09-.43-.07-.54-.15-.13,0-.13.18-.14.18-.3-.06-.29-.5-.21c-.62.12-.67-.14-.06-.28s.68-.42.45-.77a.44.44,0,0,1,0-.44.34.34,0,0,0,.05-.31,3.71,3.71,0,0,1-.13-.86,1.65,1.65,0,0,0-.2-.8c-.08,0-.09-.17,0-.38a2.83,2.83,0,0,0,.06-1c0-.38-.09-1.18-.12-1.77A3.33,3.33,0,0,0,14,28.74a11.56,11.56,0,0,1-.76-1.84c-.25-.82-.38-1-.62-1.08-.46-.07-1.25.72-1.58,1.58a32.79,32.79,0,0,0-1.6,6.73c-.15.79-.39,2-.55,2.78a13.78,13.78,0,0,0-.31,5c.18,1.63.52,3.1.73,3.1s.16.14.21.31C9.72,46.08,10.41,46.77,11.9,47.75Zm11,11c-.14.21-.13.32,0,.49s.38.29.48-.07a5.12,5.12,0,0,0-.25-1.81c-.14-.13-.64.15-.73.41s0,.56.37.56S23.16,58.35,22.93,58.72ZM22,56.29c.11.31.15.32.37.13a1.9,1.9,0,0,1,.5-.3c.27-.1.31-.34.12-.66s-.21-.17-.56,0C21.9,55.65,21.81,55.83,22,56.29Zm.09-1.12a3.37,3.37,0,0,1,.49-.2c.3-.1.33-.38,0-.38s-.93.33-.93.53S21.73,55.35,22.07,55.17Zm.17,1.94c0,.25.08.24.51,0s.47-.62.18-.62A1,1,0,0,0,22.24,57.11ZM16.49,66c-.12,0-.1.17,0,.44s.23.33.32.2.12-.13.13-.07a2.84,2.84,0,0,0,.38.91c.26.5.42.66.71.75,0,0,0-.17-.05-.38a13.76,13.76,0,0,0-.76-1.82c-.37-.78-.74-1.59-.83-1.78-.15-.35-.16-.34-.16.14a3.85,3.85,0,0,0,.18,1C16.59,65.84,16.6,66,16.49,66Zm-.32,3.45c-.84-.82-1.55-1.49-1.58-1.49a6.35,6.35,0,0,0,1.06,1.82c.65.93,1,1.15,1.65,1.16C17.67,71,17.57,70.86,16.17,69.49Zm1.8.1c.65.34,1.14.34,1.14,0s-.73-.67-1.05-.54c-.11,0-.5-.21-.89-.56a2.53,2.53,0,0,0-.75-.56C16.29,68.05,17.46,69.32,18,69.59Zm1.54-2.41a.64.64,0,0,0-.37-.39c-.18-.08-.32-.24-.32-.36a7.38,7.38,0,0,0-1.43-1.68,5.54,5.54,0,0,0,1.26,2C19.38,67.46,19.58,67.56,19.51,67.18Zm-.26-9.32a.25.25,0,0,0-.22-.27c-.21,0-.3.44-.12.61S19.25,58.16,19.25,57.86ZM19,62.93c-.32-.38-.43-.22-.19.25s.26.41.3.21A.58.58,0,0,0,19,62.93Zm.72-7.63.55-.64-.35-.11c-.19-.07-.35-.18-.35-.25s-.22-.16-.5-.21-.5-.18-.5-.28a.57.57,0,0,0-.21-.36c-.16-.13-.21-.13-.21,0a1.45,1.45,0,0,0,.51.89,1,1,0,0,1,.27.57C19.11,56,19.1,56,19.68,55.3Zm-1.15.93c.1.12.25.17.33.12s.05-.16-.11-.28C18.42,55.84,18.29,55.94,18.53,56.23Zm-.35,4.24c-.44,0-.46.27-.06.91.26.42.56.64.56.41a2.86,2.86,0,0,0-.24-.53c-.16-.31-.18-.47-.07-.5C18.67,60.66,18.54,60.47,18.18,60.47Zm-.74,1c-.13.12.09,1.09.25,1.09s.21.16.3.35.4.5.4.29A6.78,6.78,0,0,0,17.44,61.49Zm1.88,9.36c-.05.08,0,.14.05.14a.29.29,0,0,0,.23-.14c0-.08,0-.15-.05-.15A.32.32,0,0,0,19.32,70.85Zm.8-14.15a4.43,4.43,0,0,1,.52-.62c.16-.11.16-.22,0-.52s-.26-.34-.36-.3a3.66,3.66,0,0,0-.7,1.58C19.47,57.31,19.75,57.23,20.12,56.7Zm-.16,2c0,.29.17.23.67-.24s.45-.5.38-.89c-.11-.55-.13-.59-.32-.47A4.44,4.44,0,0,0,20,58.68Zm.54,1.76a8,8,0,0,0,.76-1c.2-.37.1-.55-.21-.37a3.8,3.8,0,0,0-1,1.58C19.93,61.05,20,61,20.5,60.44ZM18,52.6c-.09-.17-.19-.28-.23-.24s0,.21.09.38.2.28.24.24S18.06,52.77,18,52.6Zm-2.68-1.74c-.1-.11-.17-.12-.17,0s.17.35.27.26S15.37,51,15.28,50.86ZM9.46,48.22c-.05.06.27.1.72.1s.78,0,.72-.15A2.17,2.17,0,0,0,9.46,48.22Zm-2,1.87A5.23,5.23,0,0,0,8.59,50a3.79,3.79,0,0,1,2.46.21c1.43.41,1.74.58,1.57.85-.07.12-.15.12-.29,0s-.49-.26-2.19-.72c-1-.28-1.09-.28-1.78-.05a7.83,7.83,0,0,0-.85.31c-.25.13.17.33,1,.46a5.26,5.26,0,0,1,1.48.5,3,3,0,0,0,.81.35,4.13,4.13,0,0,1,1,.5,3.92,3.92,0,0,0,1,.51c.2,0,.63.29,1.63,1a4.33,4.33,0,0,1,1.47,1.81,2.23,2.23,0,0,0,.47.68A12.69,12.69,0,0,1,18.05,59c.29.69.45.59.33-.2-.34-2.22-.55-3.06-.83-3.24s-.18-.36.12-.36a.8.8,0,0,1,.52.33c.23.31.23.31.15-.16a2.73,2.73,0,0,0-.43-.92,5.38,5.38,0,0,1-.59-1.06c-.24-.6-.5-.81-.5-.4s-.23.22-1.37-1-1.18-1.22-1.67-1.22-.53,0-.49-.38-.07-.47-.65-.86A2.3,2.3,0,0,0,11.43,49a6.16,6.16,0,0,1-1.15-.15c-.43-.1-.68-.1-.78,0a1,1,0,0,1-.56.14c-.54,0-1.24.42-1.24.75,0,.14-.08.25-.17.25S7.39,50.06,7.43,50.09ZM3.5,53.31A5.87,5.87,0,0,0,4.26,53,2.82,2.82,0,0,1,6,52.64c.79,0,1.07,0,1.29-.22A2.9,2.9,0,0,1,8.4,52c.67-.12.84-.2.73-.33-.37-.44-3.24-.33-4.18.15C4.21,52.22,3.13,53.31,3.5,53.31Zm6.26,11c0-.29-.07-.35-.41-.35-.56,0-.63-.29-.09-.4s.61-.59.12-.72c-.29-.07-.3-.09-.07-.34s.31-.46,0-.46-.28-.17-.05-.4,0-1.18-.47-1.76c-.28-.41-.35-.84-.13-.84s.27.21.45.46c.39.54.54.3.18-.27A5.43,5.43,0,0,0,8,57.66a1.59,1.59,0,0,1-.54-.61,4,4,0,0,0-1.2-1.15c-.87-.58-1.31-.72-1.48-.46a1.47,1.47,0,0,1-.83.05c-.69-.07-.77,0-1.16.37s-.41.55.11.28c.29-.15.29-.14,0,.21a1.75,1.75,0,0,1-.6.46c-.29.09-.37.31-.54,1.37-.1.64-.08.81.15,1.1a1.22,1.22,0,0,1,.27.54,5.41,5.41,0,0,0,.27,1l.28.78H2.34c-.39,0-.47.34-.12.54.19.11.2.14,0,.29s-.15.73.18,1,.2.18,0,.18a.22.22,0,1,0,0,.43c.19,0,.21,0,.07.17A.79.79,0,0,0,2.6,65.3l.31.17-.31.12a.52.52,0,0,0,0,1c.31.12.31.12,0,.28s-.28.25-.23.59.15.43.29.43.17,0-.05.2-.24.25-.09.59.25.35.38.3.24,0,.28,0-.05.17-.21.22A.39.39,0,0,0,3.1,70c.39,0,.4.14.08.38s-.22.24-.08.55.29.38.43.38.24,0,0,.15-.34,1,0,1.09.39.32.09.32,0,.78.32.83.38.14.09.46-.19.33-.07.63.21.34.29.29c.3-.19.44.11.15.32s-.3.29-.21,1.09.25,1.13.65,1,.34.17-.25.42-.65.34-.77.81a1.4,1.4,0,0,1-.29.63c-.14.09-2,2.64-2.46,3.4-.37.59-.27,1,.29,1.12s.56.24.3.5-.05.9.16.9.15-.18.17-.39.14-.41.3-.44.24,0,.17.32-.06.35.13.28.23,0,.23.06.24.17.52.19c.72.07.74.3.06.63-.32.15-.58.32-.58.38s1,.11,1.5-.12c.74-.35,1-.68.87-1.25-.07-.34-.19-.51-.41-.57-.52-.14-.15-.28.78-.29s.89,0,.86-.3.11-.37.4-.53.43-.3.35-.79-.06-.48.07-.28a.57.57,0,0,0,.39.25c.18,0,.21-.13.14-.75s-.07-.72.11-.48a2.21,2.21,0,0,1,.26.43c0,.1.13.09.29,0s.3-.5,0-.73a.66.66,0,0,1-.21-.4c0-.19,0-.19.26,0a.86.86,0,0,0,.41.23c.27,0,.34-.46.12-.79s-.28-.53.06-.42.27,0,.24-.67a3.12,3.12,0,0,0-.21-1,4.78,4.78,0,0,1-.36-1.14c-.12-.53-.26-.86-.39-.87l-.35,0c-.07,0,0-.13.18-.27s.32-.42.34-1,0-.8-.15-.88-.12-.18.12-.42c.4-.4.36-.73-.13-.9-.15,0-.1-.12.18-.26A.55.55,0,0,0,9,71.4c0-.38,0-.41-.53-.42H7.91l.57-.21c.61-.22.78-.4.79-.82,0-.23-.08-.25-.5-.17-.69.13-.63-.12.07-.33.5-.15.57-.22.57-.61s0-.44-.43-.36c-.57.12-.55-.09,0-.34a.75.75,0,0,0,.51-.55c0-.32,0-.33-.47-.26s-.51,0-.47-.08.25-.2.47-.24.42-.14.42-.5,0-.42-.39-.38-.39,0-.39-.11.12-.15.27-.15c.46,0,.73-.16.73-.44s-.11-.28-.43-.28c-.57,0-.55-.21,0-.37C9.67,64.66,9.76,64.56,9.76,64.28ZM22,60c-.09-.06-.34.1-.57.36-1,1.13-1.39,2.65-1.24,5.37a13.31,13.31,0,0,0,.23,2.1,6.07,6.07,0,0,1-.18,2.87,3.24,3.24,0,0,1-1.84,1.41,3.11,3.11,0,0,1-2.15-.64,1.28,1.28,0,0,0-.39-.29,5,5,0,0,1-.71-1,9,9,0,0,0-.73-1,4.11,4.11,0,0,1-.62-1.59c0-.07.2-.06.35,0,.37.2.37,0,0-.55-.14-.21-.5-.86-.8-1.44-.48-1-.51-1.1-.37-1.57a8.78,8.78,0,0,0,.21-.86c0-.24.06-.19.07.17a1,1,0,0,0,.16.61.49.49,0,0,1,.15.37c0,.4.41,1.15.57,1s.09-.18,0-.35a2.08,2.08,0,0,1-.15-.81,4.8,4.8,0,0,0-.16-1.11c-.08-.32-.21-1.06-.28-1.64-.22-1.75-1.12-3.32-3.2-5.56-.52-.56-.88-1.14-.72-1.14a10.29,10.29,0,0,1,2.17,2.13A8.2,8.2,0,0,0,12.83,58c.07,0,.19.17.27.39s.35.71.58,1.1c.47.8.56,1.25.22,1.12s-.27.07,0,.75a15.1,15.1,0,0,1,.77,3.39,3.87,3.87,0,0,0,1.13,2.37c.37.47.38.18,0-.93a16,16,0,0,1-.49-2.52,8.38,8.38,0,0,0-.43-2,3.41,3.41,0,0,1-.3-1.05,6.06,6.06,0,0,0-.29-1.14c-.9-2-1.07-2.63-.73-2.63.13,0,.33.23.46.53a15,15,0,0,1,1,3.36,1.12,1.12,0,0,0,.43.88,1.22,1.22,0,0,1,.44.85,2.15,2.15,0,0,0,.13.72c.22.52.16-1-.07-1.64s-.17-.94.08-.78a.47.47,0,0,1,.13.35.47.47,0,0,0,.17.37c.24.15,0-.78-.24-1.08A.78.78,0,0,1,16,60c0-.34.36-.15.82.43l.47.58-.06-.64a2.54,2.54,0,0,0-.32-1L16.61,59l.53.4c.3.23.54.48.54.56s0,.12.07.08a4.62,4.62,0,0,0-.3-1.18A3.4,3.4,0,0,0,16.36,57a6.77,6.77,0,0,1-1.1-1.45,4.8,4.8,0,0,0-1.35-1.54,3.07,3.07,0,0,0-1.07-.67.18.18,0,0,1-.22-.06,8.51,8.51,0,0,0-1.68-.66,5.05,5.05,0,0,0-2.22-.43c-.85.11-1.06.28-.46.37s.73.4.05.4a10.74,10.74,0,0,0-2.95.33,2.44,2.44,0,0,0,.68.38,9.49,9.49,0,0,1,4,3.81,17,17,0,0,1,2.42,6.82,19.69,19.69,0,0,0,2.22,6.87,4.1,4.1,0,0,0,2.23,1.64A3.67,3.67,0,0,0,19,72.79c1.5-.64,1.83-1.84,1.89-6.93.05-3.71.22-4.76.86-5.43C22,60.18,22.07,60,22,60Zm5.66,27.28a.19.19,0,0,0-.37,0c0,.09.06.16.19.16S27.66,87.32,27.63,87.23Zm1.08-18.1c-.44-.17-.43-.53,0-.65s.49-.63,0-.63-.4-.33.05-.4.42-.28.1-.4a.33.33,0,0,1-.21-.28.2.2,0,0,1,.21-.2c.29,0,.27-.42,0-.85-.17-.24-.19-.36-.07-.4s.21-.47-.08-.69-.23-.19,0-.38.18-.53-.34-.53c-.33,0-.46.1-.65.5-.27.56-.77.94-.77.58a.73.73,0,0,1,.21-.42,1.09,1.09,0,0,0,.21-.67v-.46l.79.07c.74.06.79,0,.75-.23s-.17-.32-.54-.37c-.72-.1-.69-.52,0-.45.29,0,.53,0,.53-.09s-.63-.72-1.07-.82a2.38,2.38,0,0,1-.6-.24,5.8,5.8,0,0,0-1.56-.21,3.27,3.27,0,0,0-2.37.39,3.51,3.51,0,0,0-1.11.73c-.18.34,0,.33.36,0s.94-.52.94-.33-.15.2-.33.3A4.71,4.71,0,0,0,22,63.72c0,.08.17.14.39.15h.39l-.32.22c-.41.28-.4.42,0,.53s.58.44.42.7-.13.8.07.88.17.12,0,.34-.3.67-.09.8.07.22,0,.45-.13.39.1.51.25.16,0,.34-.21.24-.09.47.25.26.37.21c.31-.12.26.13-.06.34a.44.44,0,0,0,.18.81c.29.08.29.1.06.28s-.32.45,0,.81.26.34.14.48a.63.63,0,0,0,.24.84c.13.08.15.17.06.29a3.65,3.65,0,0,0,.22,2.19c.12,0,.15.13.07.23a4.21,4.21,0,0,0-.21,1.16,7.65,7.65,0,0,1-.31,1.62,4.54,4.54,0,0,0-.07,2.48c.17.59.18.6.57.39s.38.08,0,.45c-.2.22-.19.27.09.56s.27.35.15.46-.19.72.06.62.42.16.21.42-.13.3,0,.6a1.86,1.86,0,0,1,.13.75c0,.29,0,.34.28.31.43-.06.4.09,0,.26s-.37.18-.32,1.06A2,2,0,0,0,25,88c.31.34.76.38.88.07.05-.13-.07-.32-.29-.5-.71-.56-.36-1.12.39-.63.31.2.34.19.52-.14s.49-.47.65-.21c0,.09.24.12.42.08s.36,0,.5.34.25.49.55.3c.14-.09.15-.19,0-.42s0-.53.34-.4.52-.26.53-1c0-1.55-.35-2.46-1-2.46-.34,0-.39-.36-.07-.49s.17-.43-.3-.53-.4-.1-.1-.2.41-.35,0-.84c-.23-.29-.26-.42-.13-.58a.4.4,0,0,0,0-.46,4.48,4.48,0,0,1,0-2,3.22,3.22,0,0,0,.12-1c0-.56.07-.86.2-.91.3-.12.22-.67-.1-.76s-.28-.38.19-.44.38-.11.38-.51-.07-.5-.3-.56-.23-.38.17-.38.36-.26.06-.38-.26-.33.07-.33.34-.38-.14-.55c-.24-.08-.43-.22-.43-.3s.19-.15.43-.15c.61,0,.6-.5,0-.62-.33-.07-.42-.15-.35-.32a1.78,1.78,0,0,0,.08-.47c0-.14.19-.31.44-.4C29.3,69.56,29.26,69.34,28.71,69.13Zm.16,1.1c-.12,0-.21.1-.21.13s.09.06.21.06.22-.06.22-.14S29,70.18,28.87,70.23ZM26.66,57.82c0-.19-1.09-.66-1.5-.66-1,0-.47.53.58.61.39,0,.76.06.81.08S26.66,57.85,26.66,57.82Zm-.31.58a14.59,14.59,0,0,0-1.53.13c-.13.12.34.47.75.56a5.34,5.34,0,0,1,2.35,1c.51.45.88.59.88.35a5,5,0,0,0-.66-1.61l-.33-.52Zm3.16.68a1.24,1.24,0,0,0-.13-.46c-.08-.14-.31-.61-.51-1.06a3.48,3.48,0,0,0-.8-1.14l-.81-.65-.39-.31h.59a1.06,1.06,0,0,1,.84.28c.32.36.67.38.54,0a3.67,3.67,0,0,0-.53-.76l-.8-.94a2.08,2.08,0,0,0-.57-.52c-.15-.07-.16-.12,0-.18.31-.14.2-.36-.6-1.15a3.94,3.94,0,0,1-.79-.91.13.13,0,0,0-.13-.14c-.07,0-.13.34-.14.75-.08,3.24-.19,4.3-.45,4.46-.06,0-.18,0-.26-.18s-.15-.22-.16.06c0,.46.18.5,1.1.29s1.32-.18,1.32.12.1.24.66.27a3.46,3.46,0,0,1,1.48,1.59c0,.3.27.77.44.77S29.51,59.2,29.51,59.08Zm-.16-6.35c0-.09-.05-.26-.18-.39s-.23-.2-.23,0S29.28,53,29.35,52.73Zm0,2.09c.1.26.11.26.16,0a.43.43,0,0,0,0-.34C29.3,54.33,29.22,54.55,29.33,54.82Zm.44-5.14c.05-.06-.05-.22-.24-.37A1.79,1.79,0,0,0,28.28,49c-1.17,0-2.27.26-2.05.48A7.74,7.74,0,0,0,29.77,49.68Zm0-1.19c0-.19-1-.6-1.43-.6s-.57.26-.11.34,1.44.33,1.5.36S29.8,48.55,29.8,48.49Zm.92-.74c.16-.13.18-.1.11.16s.29.73.6.61a.22.22,0,0,1,.27.15c.1.26.53.29.81,0s.17-.14,0,.08-.16.29,0,.49.27.19.44,0,.74,0,.86.5c.08.3.16.36.44.31s.37,0,.42.13.13.19.21.19.11-.09.07-.2a.27.27,0,0,1,.07-.3c.09-.05.16,0,.16.2s.09.3.39.3c.68,0,1.44.28,1.53.56a.61.61,0,0,0,.29.35c.12,0,.21.26.21.5a.76.76,0,0,0,.15.52,1.18,1.18,0,0,1,.29.44c.17.46.44.29.33-.21a1.75,1.75,0,0,0-.36-.67,1.07,1.07,0,0,1-.27-.56.9.9,0,0,0-.23-.52c-.12-.14-.18-.32-.13-.4.19-.31.63-.14.93.34.17.28.36.51.42.51s.15.33.2.73c.09.74.28,1.12.48.93a.91.91,0,0,0-.07-.57,3.39,3.39,0,0,1-.17-.9,2.67,2.67,0,0,0-.29-1c-.31-.61-.28-1,0-.84a.25.25,0,0,0,.3-.08c.19-.3.49-.13,1.08.64a1.89,1.89,0,0,1,.6,1.57c0,.54,0,.78.16.74a4.15,4.15,0,0,0,.1-2.31,1.24,1.24,0,0,1-.22-.52.88.88,0,0,0-.18-.4c-.85-.58-1.2-.74-1.36-.62a1.67,1.67,0,0,1-.67.22c-.78.12-1.28.36-1.28.61s-.48.2-.55-.12c0-.13,0-.24.13-.24a2.34,2.34,0,0,0,.72-.5c.38-.34.48-.5.32-.5a.82.82,0,0,0-.47.2,1.75,1.75,0,0,1-.58.29c-.35.1-.34.09.06-.25s.42-.35.11-.45a1.14,1.14,0,0,0-.58,0c-.19.06-.29,0-.34-.21s-.2-.28-.46-.28c-.5,0-.93-.25-.93-.52a9.45,9.45,0,0,0-.79-1.64c-.64-1.13-.87-1.42-1.18-1.49s-.64-.13-1-.21-.62-.07-.78.07a2.08,2.08,0,0,1-.86.29,1.66,1.66,0,0,0-1.4.88c-.53.76-.37.95.26.29s.58-.59.79-.32.21.68-.23.89a2.36,2.36,0,0,0-.61.45c-.22.24-.22.28,0,.45s.3.1.71-.34.79-.66.79-.38c0,.08-.15.24-.33.36a1.57,1.57,0,0,0-.49.57c-.26.56.09.62.53.1.2-.25.45-.45.56-.45s0,.2-.25.5a2.12,2.12,0,0,0-.44.63C30.23,47.83,30.52,47.92,30.72,47.75Zm3.66-3.69c.88,1.26.95,1.21.7-.47-.27-1.83-.41-2-.79-.77C34.05,43.58,34.05,43.59,34.38,44.06ZM52.91,45a5.68,5.68,0,0,0-2.17,1.63,26.27,26.27,0,0,1-3.63,4.27,7.51,7.51,0,0,1-2.6,1.89,5.87,5.87,0,0,1-2,.5,5.69,5.69,0,0,0-1.26.2,8.15,8.15,0,0,1-1.39.23,5.62,5.62,0,0,0-1.41.28c-.63.32-.81.25-1-.4s-.53-1.26-.76-1.26a3.9,3.9,0,0,1-.87-.36c-.86-.42-1.07-.44-1.07-.08,0,1,1,1.93,2.51,2.46a5,5,0,0,0,2.55.31,15.63,15.63,0,0,0,2.5-.36,18.24,18.24,0,0,0,3.59-1.63,21,21,0,0,0,3.59-3.76,10.31,10.31,0,0,1,2.6-2.51A3.79,3.79,0,0,1,54.82,46c.14.11.21.12.21,0s-.17-.27-.39-.41a2.24,2.24,0,0,1-.46-.35A1.82,1.82,0,0,0,52.91,45Zm1.41-3.78c0-.08-.11-.19-.25-.24a3.39,3.39,0,0,1-.64-.38c-.21-.16-.44-.23-.5-.17s0,.14,0,.17a5.43,5.43,0,0,1,.63.41C54.13,41.36,54.32,41.42,54.32,41.19Zm.07,5.56c-.22,0-.28.17-.12.33s.34,0,.34-.19S54.51,46.75,54.39,46.75Zm-5.34,4.14a.15.15,0,0,0-.15.14c0,.08,0,.14.07.14s.1-.06.15-.14S49.14,50.89,49.05,50.89Zm-1,1c-.16.19-.25.4-.2.47s.48-.16.48-.5S48.32,51.53,48.05,51.86ZM47,53c-.13.35-.1.51.1.45a.51.51,0,0,0,.22-.37C47.36,52.69,47.12,52.63,47,53Zm-.84.48c-.21,0-.56.64-.42.77s.25.11.44-.08S46.38,53.45,46.15,53.45Zm-1.34.74c-.23.05-.36.45-.22.73s.39,0,.44-.39S45,54.15,44.81,54.19Zm-.71.36c-.12-.13-.76.22-.76.41a1.73,1.73,0,0,1-.08.41c-.1.23.18.3.44.11S44.2,54.64,44.1,54.55Zm-1.46.62c-.12-.18-.17-.18-.4,0s-.4.82-.21.82a2.28,2.28,0,0,0,.42-.09C42.79,55.84,42.86,55.53,42.64,55.17Zm-1.5.14c-.52,0-.79.14-.79.42s.13.43.52.43a.48.48,0,0,0,.48-.36C41.54,55.3,41.54,55.31,41.14,55.31Zm-1.8.19c-.58.12-.68.21-.41.38s.77.1.83-.2S39.75,55.42,39.34,55.5Zm-1.75-.22a9.81,9.81,0,0,1-1-.19c-.53-.16-.17.11.5.38s1.18.28,1.13.05S37.94,55.33,37.59,55.28ZM32.5,53c-1,.22-1.28.39-1.28.8s.37.47,1.07,0a1.41,1.41,0,0,1,1-.22c.45.07.49,0,.49-.27,0-.54-.33-1.63-.49-1.62a2.13,2.13,0,0,0-1,.68c0,.12.09.16.4.13C33.42,52.5,33.31,52.84,32.5,53Zm1.15-1.83c.17-.11.17-.17,0-.32s-.21-.15-.32,0C33.1,51.3,33.24,51.44,33.65,51.18Zm-3,4.8c0,.28.24.22.47-.12s1-.53,2.61-.45l1.4.07-.57-.62c-.31-.34-.63-.66-.71-.73a2.22,2.22,0,0,0-1.61.11A7.2,7.2,0,0,0,30.66,56Zm5.52-1s-.19-.24-.53-.53c-.79-.69-1.06-.85-1-.59A5.49,5.49,0,0,0,36.18,55ZM40.06,52c0,.23.08.36.22.36s.21-.13.21-.34a.59.59,0,0,0-.14-.44.28.28,0,0,1-.13-.26c.09-.51-.38-1.24-.79-1.24-.2,0,0,.55.28,1A2.12,2.12,0,0,1,40.06,52Zm1.7-4.63a.3.3,0,0,0,.23-.14c0-.08,0-.14-.05-.14a.32.32,0,0,0-.24.14C41.65,47.26,41.68,47.32,41.76,47.32Zm2.76-.1c.56-.46,1.08-.87,1.16-.92s.12-.14.08-.18A18.7,18.7,0,0,0,42,48.72C41.87,49,43.42,48.1,44.52,47.22Zm-2.26,2.16c-.23.18-.23.22,0,.22a.61.61,0,0,0,.41-.21C42.86,49.12,42.63,49.11,42.26,49.38Zm8.41-4.18c0-.07-.12-.2-.38-.3l-1-.39c-.85-.36-.75-.13.15.35S50.56,45.39,50.67,45.2ZM48,47.73a14.08,14.08,0,0,1-1.15.9c-.37.26-1,.73-1.39,1s-1,.76-1.31,1c-.85.55-1.61,1.35-1.61,1.69s.06.29.46.21A8.85,8.85,0,0,0,44.41,52a13.2,13.2,0,0,0,4-3.47,7.93,7.93,0,0,0,1.35-1.89A7.5,7.5,0,0,0,48,47.73Zm.74-1.59-.41.1a3.24,3.24,0,0,0-.93.49l-1.44,1.09a31.42,31.42,0,0,0-3.56,2.93c0,.22.14.16.87-.36a4.29,4.29,0,0,1,.79-.5,45.14,45.14,0,0,0,4.25-3.29ZM48,44c-.15-.12-.31-.17-.36-.13s.28.34.49.34S48.14,44.08,48,44Zm-.83,2a8.71,8.71,0,0,0-2.53,2c0,.25.07.23.6-.23.26-.22,1-.77,1.65-1.21C48,45.8,48.15,45.47,47.16,46Zm-.76-4.74c-.25-.33-.36-.19-.8,1-.29.78-.41.93-1.79,2.12a6.65,6.65,0,0,1-2.53,1.41,11.3,11.3,0,0,0-3,1.18l-.44.31.42.09A2.16,2.16,0,0,0,40.06,47a2.64,2.64,0,0,1,.72-.36,13.61,13.61,0,0,0,2.72-1.22c.35-.22,1-.59,1.41-.82,1.24-.67,1.57-1,1.57-1.29a.77.77,0,0,1,.16-.48C46.83,42.61,46.68,41.61,46.4,41.24ZM33.93,69.87a3.08,3.08,0,0,0-.57-1.73c-.41-.48-.5-.27-.31.76.25,1.32.22,1.55-.26,2.07-.31.34-.5.44-.68.37a3.56,3.56,0,0,0-.72-.18c-.44-.06-.47,0-.34.2a2.13,2.13,0,0,0,1.39.62,1.37,1.37,0,0,0,.62-.22A3.18,3.18,0,0,0,33.93,69.87ZM32,68.61a2.29,2.29,0,0,0-.37-.73l-.27-.35.05.41c.06.52.33,1,.54,1S32.07,68.85,32,68.61ZM31.87,70c-.28-.1-.43,0-.3.23a.24.24,0,0,0,.44,0C32.06,70.2,32,70.09,31.87,70Zm1.76-3.4s0-.15-.1-.24-.17-.11-.17,0S33.53,66.73,33.63,66.64Zm12.08,4.64c-.05-.3-.17-.58-.26-.61s-.14-.11,0-.26.09-.62-.54-1.59a10.56,10.56,0,0,1-.7-1.17c-.1-.2-.23-.37-.3-.37-.22,0-.67-.62-.68-.92s-.2-.67-.45-.57-.6-.29-.51-.63-.25-.87-.53-.87c-.11,0-.26.19-.34.43-.22.62-.31.52-.21-.26.07-.62.05-.69-.3-.88s-.41-.16-.54,0-.36.21-.43-.1-.26-.28-.76-.35c-.75-.11-1.06-.29-1.07-.65a3.23,3.23,0,0,0-.73-1c-.61-.65-.74-.73-.86-.53a.4.4,0,0,1-.44.17l-.85-.15c-.41-.07-.53-.15-.53-.37s-.1-.27-.45-.27-.63.18-1.44,1-1,1.11-1.07,1.57a2.45,2.45,0,0,0,.7,2.12,1.06,1.06,0,0,1,.47.55.38.38,0,0,0,.43.32,1.41,1.41,0,0,1,.76.4,3.19,3.19,0,0,0,.67.51c.24.09.24.1,0,.38s-.09.63.45.35.77-.27.77,0-.19.28-.43.38-.43.24-.43.3.49.12.78-.11a1.28,1.28,0,0,1,.64-.21c.33,0,.3.05-.31.47s-.79.65-.53.91.85,0,1.17-.39.63-.43.48-.06a.19.19,0,0,0,.08.25c.08,0-.12.22-.44.44s-.56.45-.51.52.45.05.75-.18.36,0,.11.36-.2.37,0,.53.33.15.82,0l.59-.23-.38.4c-.4.42-.38.6.07.6a.24.24,0,0,1,.26.21c0,.25.41.49.79.45.19,0,.28.07.28.26a.53.53,0,0,0,.32.43c.17.08.32.25.32.37a3.49,3.49,0,0,0,1.39,1.27,1.35,1.35,0,0,1,.47.37.74.74,0,0,0,.67.3c.26,0,.31,0,.25.18-.11.35.41.77.84.69s.34,0,.22.19a.54.54,0,0,0,0,.55c.15.28.32.29,1.14.06.12,0,0,.07-.14.22a1.51,1.51,0,0,1-.47.29c-.06,0-.1.16-.1.36s0,.34.46.27a5.7,5.7,0,0,0,.86-.23c.72-.27.59,0-.16.35s-.94.54-.54.54.39.41.08.57a.52.52,0,0,0,0,.94c.31.1.3.11-.17.31l-.5.21.32.21c.46.31.4.5-.14.44s-.48,0-.65.52A4.94,4.94,0,0,0,44,84c.07.38.18.52.46.59s.33.13.2.28,0,.42.39.31a.5.5,0,0,1,.66.43c.06.39.48.43.54,0s.4-.53.4-.14.15.38.38.15a.4.4,0,0,1,.63.27c0,.13.06.07.12-.12a.49.49,0,0,1,.86-.22c.22.25,0,.59-.49.8-.26.1-.25.11.08.12a.81.81,0,0,0,.59-.24c.88-1,.45-2.25-.69-2-.26.07-.35,0-.3-.09s.32-.19.76-.2c1.12,0,1.13,0,.84-.34a.84.84,0,0,0-.52-.29c-.14,0-.26-.06-.26-.15s.18-.11.48,0c.66.12.77-.14.23-.53l-.43-.32.35-.19c.3-.16.33-.24.22-.6a2.72,2.72,0,0,0-.21-.58.34.34,0,0,1,.07-.35.39.39,0,0,0,0-.49c-.2-.38-.2-.4.13-.49s.38-.41.07-.67-.27-.56.06-.47.42-.19.38-1.09-.06-1-.36-1-.28-.09-.26-.71,0-.78-.22-1-.27-.23-.55.11-.27.26-.23.14c.25-.72.25-.81,0-1.06s-.33-.23-.5-.08-.22.13-.22-.13c0-.42-.56-1.15-.88-1.15a.25.25,0,0,1-.26-.27c0-.31-.35-.65-.55-.53S45.76,71.59,45.71,71.28Zm-6.87-9c.12,0,.23-.06.23-.14a.14.14,0,0,0-.14-.14.3.3,0,0,0-.22.14C38.66,62.23,38.72,62.29,38.84,62.29Zm7.32,2.76c1,0,2-.75,2-1.4,0-.43-.1-.45-.49-.09a4.58,4.58,0,0,1-2.48.92,4.41,4.41,0,0,1-1.33-.82c-1.06-.87-2.2-1.62-2-1.35a2,2,0,0,0,.41.43,6.51,6.51,0,0,1,.93,1.41,4.91,4.91,0,0,0,.85,1.25,3.51,3.51,0,0,1,.71.5,1.13,1.13,0,0,0,1.12.35,2.46,2.46,0,0,0,1-.35c.45-.34,1-1,.85-1.12s-.32.09-.61.28a2,2,0,0,1-1.1.37C45.25,65.43,45.38,65.08,46.16,65.05Zm2.24,2.24-.49.14a4.33,4.33,0,0,1-2.45-.09c-.61-.31-.64-.17-.1.44s.52.52,1,.45a5.88,5.88,0,0,1,.8-.09,1.72,1.72,0,0,0,.78-.42Zm3.81-10.51c.27-.29.27-.3-.13-.37s-.9.21-.9.55a.94.94,0,0,1-.36.47c-.21.16-.33.36-.28.44s-.06.2-.24.27a1.22,1.22,0,0,0-.48.32,17.78,17.78,0,0,0-1.34,5.4,4.74,4.74,0,0,1-.57,1.62c-.32.62-.57,1.14-.57,1.17s.3.06.58-.08a2,2,0,0,0,.54-.68A25.28,25.28,0,0,0,49.62,62a.41.41,0,0,1,.16-.33c.31-.2-.2,3.63-.59,4.35s0,.48.35-.12a5.1,5.1,0,0,0,.69-3.17c-.08-.92-.06-1,.15-.94s.23,0,.23-.19-.06-.25-.14-.2-.14-.12-.14-.41c0-.47.27-.91.3-.49,0,.1.07,0,.13-.32s.06-.52,0-.59a.17.17,0,0,1,0-.25.17.17,0,0,1,.24-.07c.08,0,.13,0,.11-.1s0-.3,0-.42A7.6,7.6,0,0,1,52.21,56.78ZM57.86,84a.66.66,0,0,1-.4.18c-.12,0-.24.14-.26.32s0,.32.31.32a.89.89,0,0,0,.58-.23C58.49,84.2,58.27,83.62,57.86,84Zm1-21.87c0-.07.1-.12.22-.12s.21-.21.21-1c0-1-.09-1.2-.66-1.34A.59.59,0,0,0,58,60c-.33.38-.87.45-.87.12a.21.21,0,0,1,.22-.21c.11,0,.43-.31.7-.68.44-.61.47-.7.28-.91-.4-.43,0-.41.65,0,.33.24.64.4.68.36.32-.31-1.19-1.92-2-2.15-1.33-.38-2.64-.39-2.64,0a3.46,3.46,0,0,1-.81.9c-.8.71-.93,1-.36.85a2.2,2.2,0,0,0,.68-.49c.84-.79,1.48-1.2,1.67-1a5,5,0,0,0,.94.38c.9.3.88.48,0,.23a2.19,2.19,0,0,0-2.23.65,4,4,0,0,1-1.27.71c-.62.18-.72.26-.72.56s.06.35.46.35h.46l-.6.3c-.7.35-.84.49-1,1s0,.5.55,0,1-.38.56.09a.8.8,0,0,1-.43.28.35.35,0,0,0-.27.22.3.3,0,0,1-.23.21c-.2,0-.52.45-.53.75s.16.33.33.15a2.78,2.78,0,0,1,1.22-.39s-.2.29-.53.57c-.73.62-.8,1-.17,1s.54,0-.07.33c-.44.21-.5.3-.5.77s0,.53.47.46l.46-.06-.29.34a7.55,7.55,0,0,1-.53.57c-.37.34-.32.6.11.52s.57.1.14.38-.48.79,0,.79.45.08,0,.48-.35.34-.14.55a.55.55,0,0,0,.51.15c.42-.1.36.23-.06.39a.48.48,0,0,0-.17.84,1,1,0,0,1,.08.94.68.68,0,0,0,.11.43A3.09,3.09,0,0,1,53,73.56a.74.74,0,0,0,0,.72,1.46,1.46,0,0,1,0,1.08c-.14.53-.13.69,0,.79s.13.15-.07.27-.32.41,0,.41c.12,0,.21.07.21.15a.3.3,0,0,1-.21.23c-.28.11-.29.77,0,.77s.43.31.16.51-.18.48.24.48c.24,0,.27,0,.14.17s.17.69.56.69a.25.25,0,0,1,.26.21c0,.13.13.22.34.22s.39.11.5.42.23.43.33.43a.77.77,0,0,1,.43.28.54.54,0,0,0,.51.2c.24-.06.28,0,.38.9.06.54.11,1.12.11,1.3,0,.41.31.34.37-.09,0-.17.15-.31.27-.31a1,1,0,0,0,.5-.24,1.44,1.44,0,0,1,.75-.28c.47,0,.47,0,.4.53s.07.71.53.42c.17-.1.17-.16,0-.31s-.21-.69.11-.69.31.13.37.36.18.36.29.36.45-.47.22-.54a.36.36,0,0,1-.17-.33c0-.2.1-.27.36-.27s.36-.08.36-.29-.07-.28-.14-.28-.18-.54,0-.61-.06-.26-.38-.55a4.26,4.26,0,0,1-1.37-2.08c0-.22-.08-.33-.25-.33-.32,0-1-.75-1.36-1.43a12.63,12.63,0,0,0-.67-1.24c-.08-.14-.24-.48-.36-.75s-.27-.6-.34-.72a.46.46,0,0,1,.07-.48.9.9,0,0,0,.11-.66c0-.21,0-.43.08-.48a.44.44,0,0,0,.08-.43c-.06-.23,0-.36.15-.42s.21-.19.14-.5,0-.46.07-.51a.49.49,0,0,0,.15-.37.51.51,0,0,1,.24-.4c.2-.12.22-.19.07-.51s-.13-.37.19-.45a.41.41,0,0,0,.19-.73c-.11-.11-.07-.2.15-.32s.39-.51.07-.63c-.12,0-.18-.15-.13-.23a.23.23,0,0,1,.27-.06c.21.08.42-.31.29-.52a.33.33,0,0,0-.28-.13c-.12,0-.21-.07-.21-.15s.13-.14.29-.14.28-.1.28-.42-.08-.45-.18-.48-.06-.17.17-.35.32-.37.25-.62a.64.64,0,0,1,.15-.59c.21-.23.21-.29,0-.41s-.16-.16,0-.22a.3.3,0,0,0,0-.56C59,62.3,58.88,62.21,58.88,62.13Zm.72-2.66a1.16,1.16,0,0,0-.32-.45c-.23-.26-.32-.29-.37-.14a.74.74,0,0,1-.26.32c-.11.06-.16.18-.12.25S59.6,59.63,59.6,59.47Zm.28.82a.14.14,0,0,0-.14-.14c-.08,0-.14.1-.14.23s.06.18.14.13A.3.3,0,0,0,59.88,60.29Zm-4.2-6.22a10.22,10.22,0,0,0-3.5,1A8.23,8.23,0,0,0,50.09,57q-.26.39.57-.36c.47-.45.88-.72,1-.66a1.46,1.46,0,0,0,.46.15,5.3,5.3,0,0,1,.62.13c.23.07.32,0,.32-.12,0-.34,1.1-1.21,1.84-1.44a5.85,5.85,0,0,1,3.29-.15,4,4,0,0,1,1.39.53c.39.36.49.29.35-.26-.1-.35-.25-.47-.89-.69A5.9,5.9,0,0,0,55.68,54.07Zm.41-4.21-.53.22a1.37,1.37,0,0,0-.62.45A6.47,6.47,0,0,1,53,51.88a2,2,0,0,0-.63.43,2.26,2.26,0,0,1-.6.43,3.77,3.77,0,0,0-.67.72,5.12,5.12,0,0,1-1.21,1.1,4.3,4.3,0,0,0-.89.69,1.41,1.41,0,0,1-.63.41,2.47,2.47,0,0,0-.8.44,1.59,1.59,0,0,1-.56.35c-.18,0,0-.29,1.34-1.64A9.68,9.68,0,0,0,50.48,52c.87-1.65,2.38-3.23,3.27-3.43,1.12-.24,2.18-.89,1.83-1.11a.38.38,0,0,0-.42.1c-.19.18-.45.2-1.25.12l-1-.1-.93,1A5.42,5.42,0,0,0,51,49.7a.23.23,0,0,1-.11.21A10,10,0,0,0,50.16,51a15.4,15.4,0,0,1-2.08,2.54,9.16,9.16,0,0,1-2.86,2.09,10.56,10.56,0,0,1-5,1.43,12,12,0,0,1-4.15-.72c-.29-.15-.55-.25-.58-.21a21.93,21.93,0,0,1-2.83.06,2,2,0,0,0-1.6.6c-.47.43-.75,1-.43.81a5.49,5.49,0,0,1,3-.91c.22.08.13.15-.46.36a6,6,0,0,0-2.19,1.47c0,.07.37-.07.82-.3a7.06,7.06,0,0,1,3.92-.79c1.37.11,1.94.28,1.71.5s-.47.1-1.27,0c-1.69-.27-2.25-.22-3,.28a3.56,3.56,0,0,1-.82.44c-.29,0-1.22,1-1.49,1.67-.41,1-.32,1.2.16.37a3.3,3.3,0,0,1,1.71-1.55,3.56,3.56,0,0,0,.78-.36,4.52,4.52,0,0,1,4.26.42c.65.45.8.65,1.4,1.89a1.86,1.86,0,0,0,1.44,1.11c.1,0,0-.07-.15-.14s-.32-.23-.32-.36.13-.23.79,0c.22.08.19,0-.15-.38l-.78-.89-.35-.4.42.1a6.72,6.72,0,0,1,2.55,1.57,9.52,9.52,0,0,0,2.82,1.81c.88.17,1.08.11,1.62-.48a2.33,2.33,0,0,1,.76-.62c.17,0,.33-.37.55-1.23.17-.66.31-1.31.32-1.45,0-.49-.44-.3-2.09.87a2.78,2.78,0,0,1-1,.38c-.79.13-.67,0,.17-.24.5-.11.78-.32,1.54-1.15a11.22,11.22,0,0,0,2-2.6,6.62,6.62,0,0,1,1.28-1.36,9.16,9.16,0,0,1,4.31-1.94,8.94,8.94,0,0,0,1.16-.27,8.19,8.19,0,0,1,1.4-.09c1.22,0,1.28,0,1.12-.28s-.43-.42-1-.26a5.83,5.83,0,0,1-1.71,0,3.57,3.57,0,0,0-2.55.47.8.8,0,0,1-.38.18c-.09,0-.32.2-.51.43-.4.47-.52.53-.52.23a5.54,5.54,0,0,1,1.88-1.81A2.82,2.82,0,0,1,54.72,52c.31,0,1.05,0,1.65-.1,1-.08,1.09-.12,1.09-.36a2.63,2.63,0,0,0-.69-1Zm-1.45-.93a3.69,3.69,0,0,0-2.18,1.27,5.22,5.22,0,0,0-.92,1.68s.62-.33,1.29-.73a6.24,6.24,0,0,0,1.71-1.37C55.14,49,55.16,48.83,54.64,48.93Zm.42-5-.07.38c-.05.28,0,.47.33.77a1.88,1.88,0,0,1,.48,1c.13.77.17.83.52.74s.28-.19.28-.76a1.9,1.9,0,0,0-1-1.82Zm21.07-1.83v-.91l-.61-.28A11.58,11.58,0,0,1,74.15,40,3,3,0,0,0,73,39.48c-.22,0-.31-.06-.25-.16s-.19-.41-.61-.41c-.18,0-.32-.06-.32-.14a2.32,2.32,0,0,0-.82-.51c-.45-.2-1-.47-1.22-.59a1.15,1.15,0,0,0-.68-.14c-.18,0-.28,0-.28-.15s-.11-.2-.43-.15-.47,0-.58-.21a.41.41,0,0,0-.5-.21c-.28,0-.33,0-.27-.18s-.42-1-.82-1c-.21,0-.32-.15-.32-.34a.32.32,0,0,0-.32-.33.32.32,0,0,1-.32-.36c0-.46-.34-.87-.62-.76s-.24,0-.24-.14a.93.93,0,0,0-.23-.5c-.23-.25-.25-.25-.52,0s-.29.24-.2-.11-.08-.77-.46-.67-.29,0-.23-.18-.06-.38-.4-.66a2.16,2.16,0,0,1-.7-1.12c-.17-.58-.27-.71-.52-.71s-.39-.16-.06-.34.22-.16,0-.51-.31-.37-.4-.37-.11-.12-.06-.27,0-.32-.07-.37a1,1,0,0,1-.28-.43c-.13-.33-.15-.33-.56-.12s-.5.19-1.27-.08a5.25,5.25,0,0,0-1.2-.3.65.65,0,0,1-.51-.22,1,1,0,0,0-.61-.33c-.41-.08-.49-.17-.53-.53a1.63,1.63,0,0,1,.32-1A3.79,3.79,0,0,0,56.4,24c.07-.3,0-.33-.29-.27s-.36.13-.36.2-.1,0-.23-.08a.6.6,0,0,0-1,.09l-.23.33.08-.42.09-.41-.72.1c-.49.06-.72,0-.72-.06s-.12-.12-.29-.07-.31,0-.43-.29-.15-.37-.49-.15-.53.29-.48-.1-.65-.54-.87-.11a.6.6,0,0,1-.46.29c-.24,0-.28,0-.2-.32.17-.56.16-.7-.09-.86s-.34,0-.82.44c-.95,1-1.08.75-.23-.39.72-1,.27-1.18-.76-.36-.67.53-.87.6-.87.31s.87-1.07,1.31-1.17a.74.74,0,0,0,.46-.3c.09-.23-.11-.26-.49-.05a4.49,4.49,0,0,1-.93.27l-.65.12.32-.3a3.89,3.89,0,0,1,.9-.59c.59-.29.7-.56.25-.59s-.62-.06-.56-.23.27-.21.54-.25.49-.13.49-.43S48.6,18,48.48,18c-.5,0-.57-.07-.57-.26s.19-.25.42-.3c.5-.11.68-.32.37-.44s-.27-.47.13-.57.46-.32.18-.62c-.14-.15-.14-.2,0-.25.33-.12.18-.45-.26-.54s-.54-.54-.06-.61a1.26,1.26,0,0,0,.6-.52l.31-.48-.35-.09c-.47-.12-.44-.38.14-1.07.41-.49.51-.54.66-.36s.13.3,0,.64c-.24.58-.09.68.26.17.62-.86.59-1.89-.06-1.89a1.76,1.76,0,0,0-.83.36,1.83,1.83,0,0,1-.61.36.3.3,0,0,0-.23.21.42.42,0,0,1-.37.21c-.25,0-.29-.09-.29-.6,0-.92.13-1.29.37-1.09s.32,0,.78-.37a5.13,5.13,0,0,1,2.12-1.13,2,2,0,0,0,.71-.4c.42-.32.46-.41.3-.6s-.13-.32.1-.77c.35-.66.37-2.1,0-2.31s-.85-.16-.94.07a.41.41,0,0,1-.72,0,1.14,1.14,0,0,1,.29-.7,1.86,1.86,0,0,0,.38-.69c0-.33-1.14-.74-2.07-.74-.7,0-.86,0-.9-.26s.08-.29.34-.39c.64-.24.27-.33-.63-.16C47,2,46.71,1.93,46.82,1.4c.07-.38.06-.39-.38-.26-.6.17-1.35.17-1.46,0s-.38,0-.85.15A2.18,2.18,0,0,1,43,1.47c-.31-.07-.39,0-.61.43-.29.6-.68.67-.86.14-.12-.36-.13-.36-.42-.11a4,4,0,0,0-.57.69c-.24.38-.24.41,0,.33s.47.14.2.44A1.31,1.31,0,0,0,40.8,5c.41.38.58.2.41-.41a1,1,0,0,1,0-.75,3.79,3.79,0,0,1,1.49-1.12c.39,0,.28.39-.24.84A1.11,1.11,0,0,0,42.06,5c.18.48.52.46.63,0,.18-.73.44-1.17.68-1.17a.5.5,0,0,0,.39-.27c.18-.33.58-.5.76-.33s-.06.41-.33.81c-.38.56-.44.74-.33,1,.21.61.65.55,1-.13a1.83,1.83,0,0,1,1-.86c.78-.34.75-.34.75,0a.78.78,0,0,1-.35.51c-.48.31-.31.53.33.44,1.32-.2,1.23-.23,1.18.46s.18,1,.68.57.74-.12.35.41a2.67,2.67,0,0,0-.38.78c-.09.35-.06.4.25.4a.57.57,0,0,1,.5.27c.13.23.08.37-.26.76-.65.73-1.58.55-1.58-.31a1,1,0,0,0-.36-.7.56.56,0,0,1,0-1,.49.49,0,0,0-.15-.81c-.21-.13-.3-.11-.43.1-.44.7-.45.71-.77.51A1,1,0,0,1,45.28,6c-.09-.46-.51-.56-.51-.11s-.39.5-.83.19-.61-.27-1.59-.26-1.27,0-1.53-.26c-.43-.39-1-.24-1,.25s-.2.55-.5.21-.64-.35-.64.06a8.78,8.78,0,0,1-1.13,2.58.41.41,0,0,0-.16.34c0,.21.22.29,1.15.45.72.12,1.14.26,1.14.37s.22.29.5.42a1.1,1.1,0,0,1,.58.57,10.31,10.31,0,0,1,0,3.08,2.23,2.23,0,0,0,0,1.14c.16.57-.09.92-.56.77s-.53-.71-.32-1.46a4.94,4.94,0,0,0,.16-1c0-.32-.06-.36-.55-.36a1.5,1.5,0,0,1-.94-.31c-.48-.37-.57-.26-.77.94a7.51,7.51,0,0,0,.27,3.65A11.46,11.46,0,0,0,39.38,20a.21.21,0,0,1,.09.21c-.06.19.31.8.64,1.07s.57.22,1.61.2a5.55,5.55,0,0,0,1.51-.16,3.63,3.63,0,0,1,.83-.34,8.56,8.56,0,0,0,1.13-.46c.6-.3.9-.12.51.32a.83.83,0,0,1-.44.29.63.63,0,0,0-.35.21c-.15.18-.13.22.13.22.43,0,.38.4-.07.51-.29.07-.35.15-.28.41s0,.35-.56.5c-.35.1-.62.25-.6.34s-.25.19-.62.23c-.76.09-.45.29.45.29.35,0,.54.05.48.14a.61.61,0,0,1-.45.14c-.57,0-.31.4.42.63.38.12.3.51-.11.51-.2,0-.36.06-.36.13s-.6.31-.79.15-.2-.09-.25,0-.53-.23-.53-.47.49-.25,1,0c.24.12.47.19.51.15s-.37-.8-.57-.8a2.83,2.83,0,0,1-.73-.28c-.66-.34-1.59-.23-1.56.18s-.24.32-.48.08a.42.42,0,0,0-.41-.07c-.22.09-.22.11,0,.35s.3.49,0,.31-1.29-.19-1.29.06a.47.47,0,0,0,.25.35c.42.23.09.34-.45.14a1,1,0,0,0-1,.06,2.56,2.56,0,0,1-.72.24.91.91,0,0,0-.48.27,1.78,1.78,0,0,1-.61.38c-.43.13-.83.48-.83.73,0,.1-.12.19-.27.19-.33,0-.62.33-.51.59s-.08.26-.36.36-.43.27-.43.39a1.33,1.33,0,0,1-.35.6c-.47.5-.46.77,0,.77s.36,0-.18.4a3.07,3.07,0,0,0-.76.79c-.11.21-.25.38-.32.38s-.12.15-.12.33a.92.92,0,0,1-.29.6c-.16.14-.26.33-.23.41a4,4,0,0,1-.41,1.08,14.73,14.73,0,0,0-.64,1.5,6.29,6.29,0,0,1-.37.95,1.79,1.79,0,0,0-.2.67.5.5,0,0,1-.14.38c-.08,0-.14.24-.14.44a1.58,1.58,0,0,1-.15.63,3.09,3.09,0,0,0-.22.81c0,.3-.1.81-.15,1.15-.08.56-.06.6.25.6h.32l-.38.4c-.38.39-.52,1-.24,1a.14.14,0,0,0,.14-.13c0-.07.21-.2.46-.29l.47-.15-.36.29c-.9.72-1.14,1-1.14,1.34s.1.45.55.14.49-.18,0,.48c-.29.39-.38.6-.25.6s.38-.28.6-.63c.4-.63.89-.91,1.15-.65s.65.17.74-.06.46-.23,1.42-.31c1.14-.08,1.37-.14,1.5-.38s.11-.32,0-.39-.11-.13.05-.19c.37-.15.26-.51-.16-.56l-.4-.06.43-.12c.71-.2.86-.59.25-.68l-.39-.06.45-.17c.51-.2.7-.53.47-.81s-.08-.26.14-.48.38-.58.07-.58c-.13,0-.2-.08-.17-.18a.28.28,0,0,1,.31-.14c.25,0,.68-.77.87-1.66.09-.44.07-.48-.17-.38a3.07,3.07,0,0,1-.62.17l-.35.05.36-.12c.74-.25,1-.46,1-.82s0-.35-.32-.27a2.75,2.75,0,0,0-.65.31c-.19.11-.37.18-.41.13s.13-.36.82-.59c.53-.18.71-.3.67-.47a.23.23,0,0,0-.26-.19,6.55,6.55,0,0,1-.7.11c-.45.05-.42,0,.21-.2s.72-.31.8-.82.1-.52.19-.24.17.32.23.32.2.17.31.39a.51.51,0,0,0,.59.36l.4,0-.37.35c-.35.32-.48.64-.27.64a1,1,0,0,0,.35-.24c.15-.13.31-.19.37-.13s0,.18-.12.27-.46.86-.32,1,.31,0,.58-.21.52-.26.57-.21,0,.12-.16.17a1.35,1.35,0,0,0-.59,1.17c.07.18.17.12.5-.26.5-.61.72-.47.31.19a2,2,0,0,0-.3.79c0,.31.25.41.5.19.08-.07.38-.26.67-.44.46-.27.54-.28.54-.09a.39.39,0,0,1-.25.32c-.36.12-.89.63-.89.84s-.19.24-.41.31-.43.1-.54-.08-.19-.19-.55.08a1.57,1.57,0,0,1-.53.32,3.09,3.09,0,0,0-1.25,1.09c0,.28,0,.26,1.08-.52a5.36,5.36,0,0,1,1.11-.71c.09,0,0,.14-.23.3s-.36.35-.32.41-.09.24-.3.38c-1.7,1.2-1.15,1.17.64,0,1.35-.91,1.72-1.08,1.72-.79a.15.15,0,0,1-.14.15,3.38,3.38,0,0,0-1.41,1.1l-.15.33.53-.28c1-.5,2-1.24,1.92-1.42a5.27,5.27,0,0,1,1.91-1.31c.34-.13.36-.12.19.08a3.72,3.72,0,0,1-.8.59,2,2,0,0,0-.69.59,6.26,6.26,0,0,1-1.48,1.14,15.53,15.53,0,0,0-1.67,1.18c-.53.59.26.28,1.66-.65.77-.51,1.43-.93,1.48-.93s.06.3-.17.39A34.77,34.77,0,0,0,36,43.42c-.14.37.06.36.69-.06a14.57,14.57,0,0,1,3.45-1.8c.64-.15.4.22-.27.42a10.05,10.05,0,0,0-3.06,1.91c-1,.87-.78.94.29.13a25.25,25.25,0,0,1,4.38-2.26c.54,0-.18.63-.91.8a9.8,9.8,0,0,0-3.44,2.06c-.86.83-1.28,1.55-.49.83a28.64,28.64,0,0,1,5.31-2.9,1.93,1.93,0,0,0,.6-.33c.14-.12.25-.15.25-.07,0,.28-.53.61-2.81,1.73-1,.5-1.19.81-.32.66.7-.12.73,0,.06.3a1.19,1.19,0,0,0-.58.42.42.42,0,0,1-.35.21c-.15,0-.27.05-.27.11s-.53.36-1.09.52c-.34.1-1,.79-.8.79s.24-.12.35-.26a1.44,1.44,0,0,1,.68-.42,47.76,47.76,0,0,0,4.94-1.83,8.69,8.69,0,0,0,2.32-2.56c.8-1.67.82-1.7,1.25-1.67a1.13,1.13,0,0,1,.72.43,3.33,3.33,0,0,1,.67,1.8c-.13.34.49.9,1.61,1.44l1.56.77c.42.2.48.2.72,0a3.32,3.32,0,0,1,2.15-.48c.77.1.78-.23,0-.35-1-.16-1.06-.46-.21-.62a.89.89,0,0,0,.57-.3c.06-.17-.05-.21-.49-.21s-.78-.26-.3-.39a.23.23,0,0,0,.2-.33c-.09-.35-.55-.64-1.21-.76s-.7-.33-.15-.46.64-.2.46-.43a.46.46,0,0,1-.09-.4c.09-.22-.09-.28-1.35-.45-.41-.06-.71-.18-.76-.31-.15-.4.15-.51.88-.32a4.91,4.91,0,0,0,1.66.08c1-.11,1.24-.32.52-.46-.23,0-.42-.15-.42-.23s.13-.09.32,0a2.21,2.21,0,0,0,.6.1l.71,0c.81,0,1-.56.22-.56-.52,0-1.18-.25-1.08-.41a3.63,3.63,0,0,1,1.67.19c.16.07.29,0,.4-.19.24-.46.18-.55-.41-.64s-.84-.31-.67-.48a1.41,1.41,0,0,1,.68.17c.58.23.62.23.8,0a1.08,1.08,0,0,0,.15-.62c0-.31-.13-.36-.76-.43s-.64-.11-.45-.2a1.83,1.83,0,0,1,.81,0c.47.06.57,0,.65-.21s0-.44-.86-.51-1-.2-.66-.38a2.28,2.28,0,0,1,.79,0c.48.09.65.08.61,0s-.32-.18-.66-.21-.58-.1-.54-.21.2-.16.36-.14.31,0,.31-.22a1.1,1.1,0,0,1,.19-.52c.19-.26.21-.25.46.15a12.63,12.63,0,0,0,1.78,2.06c.06,0,.14-.14.18-.3.13-.49.43-.16.34.37s.2,1.07.5,1.07a.69.69,0,0,0,.35-.25c.18-.24.19-.24.11,0-.24.68.4,1.41.65.74.2-.5.29-.44.26.2s.12.92.53.81.34,0,.38.31.62.65.72.23c0-.17.1-.06.17.27.1.5.64,1.11,1,1.11.07,0,.19-.16.26-.36.2-.52.32-.43.21.14s-.07.52.38.71.49.18.62-.11.14-.25.18.22.11.55.58.68a4.2,4.2,0,0,1,1,.43l.47.29-.1-.54c-.12-.66.12-.49.36.27.14.45.65,1,.95,1,.05,0,.05-.26,0-.57s0-.57.05-.57.15.18.15.41a1.17,1.17,0,0,0,.83,1.08c.31.09.32.07.23-.41-.13-.7,0-.65.35.13.21.48.36.64.59.64s.31-.06.24-.53l-.08-.54.26.58c.25.57.5.77.94.77.11,0,.2-.12.2-.28,0-.43.28-.34.45.14s.84.63.84.14.26-.35.45.09.25.35.56.29a.74.74,0,0,1,.47,0,1.54,1.54,0,0,0,.58.13C76.05,43.6,76.13,43.43,76.13,42.08Zm-39,3.68c.33-.27.33-.28,0-.2a1.13,1.13,0,0,0-.48.28C36.38,46.14,36.7,46.08,37.09,45.76Zm-1.46-6.53c-.18.33,0,.32.4,0a1.32,1.32,0,0,1,.55-.29c.11,0,.26-.13.35-.29s.1-.3-.08-.37S35.89,38.74,35.63,39.23Zm.68-1.34a.35.35,0,0,0,.26-.34c0-.4-.42-.35-.47.05S36.11,37.93,36.31,37.89Zm2.52-27.13c-.36-.14-.76.05-.76.36s.29.35.72.13S39.14,10.88,38.83,10.76Zm-.12,1.05c-.09.15.36.45.52.35s.07-.16,0-.27A.32.32,0,0,0,38.71,11.81Zm9.19-4a.15.15,0,0,0,.15-.14c0-.08,0-.15-.07-.15s-.1.07-.15.15S47.81,7.83,47.9,7.83ZM75.21,57.45c.4.17.64.16.64,0s-.38-.33-.68-.21S75,57.34,75.21,57.45Zm-.22,2c0,.08.13.14.29.14s.28-.06.28-.14-.12-.14-.28-.14S75,59.36,75,59.44Zm.19,1.27c.21-.09.38-.23.38-.29,0-.21-.23-.13-.51.17S74.79,60.89,75.18,60.71Zm1.24.87a2.6,2.6,0,0,0-.55-.57,1.51,1.51,0,0,0-.43.27l-.34.26.25.65a2.58,2.58,0,0,0,2,1.67,1.36,1.36,0,0,0,.25-.22c.16-.16.23-.5.23-1.14v-.92l-.29.28C77.15,62.28,77,62.22,76.42,61.58Zm1.36-7.5c-.25-.1-.74.38-1.45,1.4-.37.53-.38,1,0,1a3.9,3.9,0,0,0,.9-1C78.08,54.14,78.06,54.19,77.78,54.08Zm1.57-2.6c-.1-.09-.46.38-.55.71s.26.16.46-.26C79.35,51.73,79.39,51.53,79.35,51.48Zm0-5.72c-.17-.13-.28-.06-.61.38s-.83,1-1.35,1.61a4.85,4.85,0,0,0-1.09,1.64c-.22.89-.2,4.92,0,4.83a12.62,12.62,0,0,0,1.21-2.16,17,17,0,0,0,1.71-4.37C79.61,46.35,79.63,46,79.36,45.76Zm.36,3.06.21-.48c.12-.26.18-.51.14-.55s-.37.16-.36.57Zm.41,1.48c0-.08-.07-.1-.14,0a.3.3,0,0,0-.15.23c0,.07.07.1.15.05A.33.33,0,0,0,80.13,50.3Zm.66-7.9c.31-.28.57-1.21.35-1.21s-.2.2-.3.44a2.09,2.09,0,0,1-2.13,1.2c-.69-.15-.64-.45.11-.71a2.14,2.14,0,0,0,1.44-1.55c.09-.45.09-.45,1.09-.49,1.69-.06,1.79-.34.2-.53-.86-.1-1.1,0-2.78,1-.31.19-.84.48-1.17.64a1.91,1.91,0,0,0-.72.53,2.44,2.44,0,0,0-.06,1.53c.42.91.55,1.11.91,1.3s.4.26.4.34c0,.3.39.12.87-.39.28-.3.73-.83,1-1.18A9,9,0,0,1,80.79,42.4Zm1.44-1.75c0-.1,0-.17-.11-.17a.78.78,0,0,0-.57.58C81.55,41.26,82.15,40.9,82.23,40.65Zm-.18,2c0,.07,0,.14.21.14s.29-.07.29-.14-.09-.15-.2-.15A.38.38,0,0,0,82.05,42.62ZM81,48.73c0-.25-.28-.4-.28-.16a3.31,3.31,0,0,1-.1.46c-.09.32-.07.34.14.16A.64.64,0,0,0,81,48.73Zm.75-1.67c-.67,0-.75,0-.75.25a.51.51,0,0,0,.24.41c.18.11.21.29.15,1a10,10,0,0,1-.17,1.2c-.09.35-.09.35.14.07A9.1,9.1,0,0,0,82,48.81a4.79,4.79,0,0,0,.46-1.28C82.48,47.12,82.46,47.11,81.73,47.06Zm.14-.61c.06,0,.11-.07.11-.17,0-.28-.12-.36-.43-.28C81.07,46.12,81.24,46.35,81.87,46.45ZM82.53,45c-.16-.17-.36-.2-.74-.13-.59.11-.69.44-.2.64s.57.16.88-.08S82.73,45.16,82.53,45Zm-.66-.52c.43.2.6.14.66-.24s0-.32-.42-.27C81.55,44,81.43,44.23,81.87,44.44Zm.83-1.13c-.4-.33-1.37-.36-1.48-.05-.06.14,0,.23.23.28a3.28,3.28,0,0,0,1.3.09C83,43.57,83,43.56,82.7,43.31ZM83.2,42c.09-.16-.17-.56-.37-.56a.8.8,0,0,0-.35.23c-.19.19-.2.26,0,.36S83.09,42.22,83.2,42ZM84,45.6c-.33-.2-.42-.16-.42.22s.16.46.44.14S84.14,45.71,84,45.6Zm-.06-1.78c-.44.2-.49.28-.36.52s.21.25.43.13a1.21,1.21,0,0,0,.43-.44C84.64,43.61,84.49,43.54,83.91,43.82Zm.7-2.63c-.19,0-.22.1-.15.47s0,.51-.42.86-.54.67-.15.67a1,1,0,0,0,.47-.32C85,42.17,85.13,41.19,84.61,41.19Zm3.59-8a.76.76,0,0,0,0-.47c-.09-.22-.12-.2-.3.11a1.75,1.75,0,0,0-.2.46C87.68,33.44,88.12,33.35,88.2,33.14Zm.91-1.48c0-.28,0-.33.17-.19s.36.21.52-.26c.08-.23.21-.43.28-.43a4.6,4.6,0,0,0,1.17-1.85c.37-.93.09-1-.56-.06-.26.35-.61.79-.77,1-1.15,1.17-1.52,1.71-1.43,2.08a3,3,0,0,0,.16.5C88.77,32.61,89.11,32.05,89.11,31.66Zm.83,1.61c-.16-.15-.79,0-.88.29s.32.29.7,0C89.91,33.46,90,33.33,89.94,33.27Zm.57-.67c0-.26-.2-.32-.53-.12a.22.22,0,0,0-.09.29C90,33,90.45,32.89,90.51,32.6Zm.73-1.25c-.2-.12-.71.2-.71.45s.53.13.73-.1S91.41,31.45,91.24,31.35Zm1.17-1.11-.32-.1c-.24-.08-.39,0-.58.21a1.3,1.3,0,0,0-.26.45c0,.25.53.12.84-.22Z"/><path class="cls-1" d="M62,33.06c-.57-.68-.64-1-.28-1.49s.15-.85-.15-.59a5.82,5.82,0,0,1-.68.36c-.45.21-.57.2-.8-.08-.64-.76-1.06-.66-1,.24s-.51,1.26-1.84,1.21c-1.1,0-2.34-.06-3.84-.07-.49,0-1.82,0-2.95-.07a14,14,0,0,0-2.46.06c-.37.13-.43.1-.87-.48l-.47-.63L47,31c.31-.39.37-.56.22-.73s-.24-.22-1,.48c-.43.39-.56.44-.69.28A11.64,11.64,0,0,1,45,28.86c-.19-1.1-.43-2.45-.54-3a33.7,33.7,0,0,1-.54-4.54,1.74,1.74,0,0,1,.51-.14c.69-.13.73-.26.28-.88s-.41-.61-.16-1.25.21-1-.2-.66a4.35,4.35,0,0,1-.69.46c-.36.2-.46.19-.71-.13a3.47,3.47,0,0,1-.66-2c.08-.22.28-.26,1.07-.17a3.36,3.36,0,0,0,1.09,0c.17-.14-.12-.81-.61-1.41A1.44,1.44,0,0,1,43.42,14a1.12,1.12,0,0,1,.15-.66,1.21,1.21,0,0,0,.16-.95c0-.05-.28.06-.52.26a2.34,2.34,0,0,1-.84.46c-.37.09-.46,0-1-.64-.78-.92-.88-.84-1.08.82-.1.76-.24,1.24-.38,1.29a7.89,7.89,0,0,0-1.08.68c-.7.5-.8.61-.61.68a1.89,1.89,0,0,0,.55.06,5,5,0,0,1,1.06.12c.72.14.75.17.86.64a1.82,1.82,0,0,1,0,.72,1.27,1.27,0,0,0,0,.58c.09.44.35.44.67,0,.18-.26.25-.26.43,0a3.41,3.41,0,0,1,.4,1c.18.71.17.74-.39,1.27-.32.29-.53.59-.48.65a1.46,1.46,0,0,0,1.05.08c.22-.18.39.23.3.7s0,.8.23.62.41.29.73,2c.93,5,1,5.48.54,5.57-.26.05-.33.17-.37.6a2,2,0,0,0,.18.93c.12.23.16.46.09.53s-.94,0-1.88-.32c-.45-.17-1.84-.65-3.08-1.06a27.45,27.45,0,0,1-4.43-1.7c0-.06,0-.35.15-.64.2-.45.19-.56-.09-.76s-.42-.31-.57.06a.87.87,0,0,1-1.52.33,1.25,1.25,0,0,0-.58-.38c-.31-.08-.33,0-.31.55l0,.62-.56-.39c-.31-.22-.72-.49-.91-.6s-.82-.54-1.41-1c-2.8-2-3.55-2.55-4-2.62-.17,0-.31-.09-.3-.14s.13-.42.29-.85c.29-.8.28-.92-.07-.95s-.12-1.37.25-4.23a5.33,5.33,0,0,1,1.67-3.1,5.59,5.59,0,0,1,1.43-.2,3,3,0,0,0,1.14-.18,3.27,3.27,0,0,0-.74-.92l-.78-.8.22-.52a3.2,3.2,0,0,0,.23-.81,1.5,1.5,0,0,1,.28-.61l.33-.44c.13-.18-1.3.21-1.92.52l-.58.29-.57-.67c-1.12-1.33-1.66-1.15-1.65.54,0,.62,0,1.14,0,1.15a14.9,14.9,0,0,1-1.27.93,13.66,13.66,0,0,0-1.29,1c0,.24,1.12.59,1.89.58h.89l0,.55c0,.31-.1,2.12-.26,4-.27,3.21-.32,3.49-.66,3.62s-.45.07-.92-.43C22.32,22.17,22,22,22,22a1.36,1.36,0,0,0,0,.66,1.07,1.07,0,0,1,0,.69,42.66,42.66,0,0,1-4.77.5l-1.68.1c-1.92.14-2.64.13-2.76,0s0-.34.22-.58a1.1,1.1,0,0,0,.28-.61c0-.08-.47,0-1,.23l-.9.38-.5-.51c-.55-.58-.79-.54-.57.09a2.8,2.8,0,0,1,.13.86c0,.4-.11.51-.93,1.1s-1,.95-.27.86,1.11.19,1.21.82a2,2,0,0,0,.23.72c.18.21.51-.07.62-.53a1.24,1.24,0,0,1,1.33-.91c.6,0,.8-.18.5-.54a.5.5,0,0,1-.13-.39c.06-.17.91-.35,1.59-.32a5.55,5.55,0,0,0,1-.06c.6-.08,4-.29,5.16-.32.81,0,.94.17.42.61-.34.28-.33.3.07.63s.4.37.17.82a4.65,4.65,0,0,0-.34.94c-.09.45-1.7,5.28-3.3,9.92-.4,1.18-.88,2.63-1.06,3.23a3,3,0,0,1-.49,1.11c-.09,0-.29-.13-.44-.31-.42-.5-.63-.27-.64.72A5.89,5.89,0,0,1,15.08,43a5.24,5.24,0,0,1-.92,1,4.54,4.54,0,0,0-.79.81,3.87,3.87,0,0,0,1,.1c1.1.06,1.57.45,1.41,1.2-.1.51,0,.78.41.81.17,0,.4.76.86,2.7,1.2,5.08,1.66,7.49,1.5,7.78a.49.49,0,0,0,.1.59,1.21,1.21,0,0,1,.24.78c0,.42-.13.57-.88,1.2l-.85.72.62.14c.34.08.62.19.61.26s-1.08,2.53-2,4.51c-.43.9-.84,1.81-.91,2a14.39,14.39,0,0,1-.7,1.5c-.31.6-1.11,2.22-1.78,3.6-3.27,6.75-3.2,6.62-3.62,6.65-.22,0-.4-.11-.66-.49s-.4-.49-.55-.36A.43.43,0,0,0,8,79a2.31,2.31,0,0,1,.12,1c0,.62-.06.66-.93,1.34-.52.41-.83.73-.74.76a.34.34,0,0,0,.3-.07,1.81,1.81,0,0,1,.91,0l.76.15.11.85a2.87,2.87,0,0,0,.31,1.08c.18.22.23.16.67-.85.57-1.3.87-1.5,1.83-1.2.68.22,1.13.19,1.15-.07,0-.08-.1-.15-.24-.16a2.55,2.55,0,0,1-.91-.8l-.66-.78.51-.43c.63-.53.62-.69,0-.73-.28,0-.52-.11-.53-.21s.37-1.07,2-4.38c1.12-2.32,1.92-4,2.32-4.91a4.47,4.47,0,0,1,.35-.68s.5-1,1-2.13,1-2.1,1-2.13a3.13,3.13,0,0,0,.27-.54,12.86,12.86,0,0,1,1.22-2.26,12.35,12.35,0,0,1,.88,3.28c.08.67.27,2.08.41,3.13.68,5.09,1,7.83.81,7.74-.34-.21-.48.19-.43,1.2l.06,1-1.19.88c-1.16.84-1.19.88-1,1.11a2.9,2.9,0,0,0,1.27.34,3.9,3.9,0,0,1,1.18.23A6,6,0,0,1,21.13,82c.12.6.29,1,.38,1s.39-.34,1.14-1.59c.37-.62.55-.71,1.66-.77.92-.05,1.12-.25.82-.8a4.36,4.36,0,0,0-.69-.89c-.42-.38-.44-.45-.25-1.06a10.56,10.56,0,0,1,.4-1.08c.17-.35.16-.43-.08-.47s-.6.08-1.9.72c-.93.46-.92.5-1.62-5-.27-2.13-.31-2.48-.83-6.12s-.51-3.46-.21-3.81a8.63,8.63,0,0,0,.61-.83c.36-.55.38-.56,1.06-.51s1.12-.12.7-.41c-.84-.56-.92-.67-.92-1.29A2.62,2.62,0,0,1,21.67,58c.33-.57.17-.84-.35-.57-1.19.62-1.41.69-1.68.52s-.6-1.53-1.52-5.32c-.68-2.84-1.28-5.47-1.33-5.87a1.69,1.69,0,0,1,1.87-2.07c.67.08.74-.16.22-.77S18.35,43,18.8,42c.28-.65.16-1.14-.19-.84a5.27,5.27,0,0,1-1.8.75s0-.14.08-.21A7.94,7.94,0,0,0,17.48,40c.23-.84.5-1.76.6-2.05a30.6,30.6,0,0,0,1-3.49,1,1,0,0,1,.2-.46,21.08,21.08,0,0,0,1-2.78c.41-1.35.89-2.83,1.07-3.28a4.42,4.42,0,0,0,.31-1,.5.5,0,0,1,.18-.34.64.64,0,0,0,.21-.46.69.69,0,0,1,.15-.43c.24-.2.52.22.54.81s0,.52.34.55.34,0,.51-.65a2.25,2.25,0,0,1,.48-.91,2.67,2.67,0,0,1,2.25.2c.19.14,1.24.87,2.34,1.61,3,2,2.84,1.91,2.41,2.32a9.06,9.06,0,0,1-.76.63c-.42.31-.37.61.07.43a4.13,4.13,0,0,1,1.46-.39l.46,0-.07.77c-.1,1.2.2,1.32.7.28.3-.62.36-.67.85-.8a2.48,2.48,0,0,0,.67-.26.61.61,0,0,1,.47,0,.38.38,0,0,0,.44-.09c.07-.14,1,.09,2.83.71,5.15,1.71,5.29,1.77,4.77,2.21s-.23.45.51.38a1.35,1.35,0,0,1,.75.06A13.47,13.47,0,0,1,44.08,37c-.14,1.25-.18,1.57-.57,4.28S42.67,47.49,42,52.59c-.24,1.87-.55,4.16-.69,5.08s-.29,1.85-.32,2.07c-.09.62-.58.75-1.44.39a3.78,3.78,0,0,0-.91-.29c-.1,0-.15.45-.11,1l.06,1-.64.47c-.58.43-.61.49-.41.72s.47.23,1,.17a2.21,2.21,0,0,1,.92,0c.34.41.11,1.42-1.34,5.73-.4,1.19-1.07,3.17-1.48,4.41-.64,1.92-.79,2.23-1,2.19s-.37,0-.58,1a2,2,0,0,1-.85,1.31,5.51,5.51,0,0,1-1.08.8l-.36.15.55.07a3.3,3.3,0,0,0,1,0c.46-.1.88.18.76.52a1.83,1.83,0,0,0,.12.73c.23.73.52.75.83.06s.83-1.11,1.32-1,.61,0,.35-.52a1,1,0,0,1,0-.9,1.86,1.86,0,0,0,.15-1.39,1.4,1.4,0,0,0-.83,0l-.72.13.11-.56c.05-.31.19-.87.3-1.26s.24-.92.3-1.2a11,11,0,0,1,.51-1.49,11.1,11.1,0,0,0,.54-1.52,7.26,7.26,0,0,1,.42-1.24,6.79,6.79,0,0,0,.36-1.09A9.16,9.16,0,0,1,40,65a2.52,2.52,0,0,0,.64-.64c.22-.28.43-.48.46-.44a37.77,37.77,0,0,1,.88,3.7l.73,3.31c.51,2.33.59,3,.37,3s-.07.13,0,.25a4,4,0,0,1,.27,1.36c.07,1,0,1.17-.36,1.5-.72.62-1.17,1.22-1,1.39a.18.18,0,0,0,.25,0c.06,0,.22,0,.36.05a2.7,2.7,0,0,0,.8.2l.56.07.18.73c.3,1.15.71,1.4,1,.57s.46-.72,1.53.61l1,1.2-.68.54c-.83.66-.73.91.3.76a2.24,2.24,0,0,1,.76,0,1.8,1.8,0,0,1,.1,1.27.44.44,0,0,0,0,.48c.24.29.85,0,1-.52s.64-.93,1.08-.72c.21.1,1.28.42,2.39.71a16.45,16.45,0,0,1,2.12.64.51.51,0,0,1,0,.41c-.1.26,0,.29.54.29.74,0,.87.11.79.65,0,.31,0,.42.26.52s.41,0,1.06-.86c.25-.34.77-.38,1.57-.12.27.09.24,0-.24-.57-.7-.85-.73-1.28-.12-1.79.43-.36.59-.93.25-.88a7.81,7.81,0,0,0-1,.37c-.82.35-.85.34-1.25-.06-.64-.64-.79-.55-.85.55,0,.82-.11,1-.35,1a9.22,9.22,0,0,1-1.91-.42l-1.62-.46-.61-.87c-.66-1-.71-1.47-.2-1.91s0-.46-.8-.09l-.73.34L49,80.64c-.26-.31-.53-.51-.59-.46a1.91,1.91,0,0,0-.17.79l0,.68-.37-.28A10,10,0,0,1,46,79.22c-.08-.23,0-.27.87-.37,1.27-.14,1.34-.3.5-1.3-.63-.74-.67-.83-.58-1.37a1,1,0,0,1,.36-.69c.28-.14.36-.74.1-.76a5.23,5.23,0,0,0-1,.3c-.81.29-.86.29-1.47-.14a6.43,6.43,0,0,1-.81-.65A79.66,79.66,0,0,1,41.6,63.65c0-.36,0-.37.46-.43a4.1,4.1,0,0,0,.74-.17c.13-.06.29-.06.33,0a.14.14,0,0,0,.2,0c.07,0-.16-.35-.56-.75l-.67-.66.2-.81a3.48,3.48,0,0,1,.33-.91c.07-.06,0-.21-.07-.34s-.27-.16-.54.06-.38.25-.42.2.38-4.29.64-5.86c.07-.43.23-1.67.36-2.75s.29-2.4.37-2.92.22-1.51.29-2.19.23-1.95.36-2.82.31-2.33.42-3.23.25-2,.3-2.32.16-1.06.22-1.53a5.28,5.28,0,0,1,.6-1.72c.46-.79.54-.87,1-1a3.49,3.49,0,0,1,.89-.09,1.07,1.07,0,0,0,.63-.16c.11-.1.24-.13.29-.07a9,9,0,0,0,1.8.09c1.46,0,6.5.08,8.77.14.6,0,.71.07.92.45a2.32,2.32,0,0,1,.2,1c0,.78.29.73.78-.12s.41-.7,1.07-.83C62.42,33.74,62.46,33.65,62,33.06Zm-20.3-16.8c-.32.41-.37.38-.45-.21s-.3-.63-.61-.37a.77.77,0,0,1-.63.05c-.68-.2-.68-.2.22-.7.52-.3.56-.35.58-1s.25-.83.71-.29c.31.36.8.54,1,.36s.35,0,.15.43a.57.57,0,0,0,.12.72c.33.39.21.57-.41.63A.93.93,0,0,0,41.66,16.26Zm1.83,4.24c-.14.12-.6-.26-.54-.45s.44-.16.54.13C43.54,20.31,43.54,20.46,43.49,20.5ZM12.06,24.3a.42.42,0,0,0-.05.43c.13.31,0,.56-.2.35s-.21,0-.34.16-.29.25-.35.18a.89.89,0,0,0-.46-.16c-.35-.05-.35-.07,0-.34a1,1,0,0,0,.36-.51c0-.17.16-.27.53-.35C12.05,23.94,12.34,24.06,12.06,24.3ZM9.39,81.48h0c-.24,0-.64,0-.91,0H8l.44-.37c.34-.29.41-.44.3-.65-.18-.4.12-.39.45,0,.16.18.37.29.47.26s.18,0,.17.3S9.79,81.45,9.39,81.48Zm11.72-4,.36.42c.36.41.39.41,1.16.08a2.06,2.06,0,0,1,.87-.24c.05,0,0,.31-.1.58a1.06,1.06,0,0,0,.22,1.17c.28.23.21.31-.35.39a1.34,1.34,0,0,0-1.16,1c-.08.37-.19.28-.51-.39s-.3-.61-.92-.6a2,2,0,0,1-.7-.08s.21-.3.54-.58c.54-.46.6-.58.6-1.15ZM19.9,59.3c.33-.27.46-.2.43.25a1,1,0,0,1-.1.45s-.16-.08-.29-.24S19.76,59.43,19.9,59.3Zm-2.25-17c.59-.2.58.22,0,.65-.4.29-.4.32-.1.75l.32.44-.54,0a.87.87,0,0,0-.63.21c-.08.14-.23.08-.53-.22s-.39-.46-.28-.65a.39.39,0,0,0,.09-.32,1.55,1.55,0,0,1-.08-.55l0-.48.24.41c.21.39.26.4.67.15A5.69,5.69,0,0,1,17.65,42.34Zm6.23-18.22c-.29.66-.34.7-.75.76s-.72-.1-.41-.36a.5.5,0,0,0,.19-.37c0-.19.82-.75,1.11-.73C24.11,23.42,24.05,23.74,23.88,24.12ZM24.19,14a1.24,1.24,0,0,1-.65.06L23,14l1.73-1.46,0-.92c.05-1.07.17-1.25.49-.71l.48.78c.27.45.65.43,1.27-.09.22-.19.47-.32.56-.29s-.17,1-.46,1.06-.14.2.4.84.6.8.5.87a2.89,2.89,0,0,1-1.05.12c-.87,0-.94,0-1.25.48-.18.26-.37.47-.43.47s-.17-.27-.25-.59-.21-.58-.44-.62A.64.64,0,0,0,24.19,14Zm9.32,15.79c-.1.08-.29,0-.47-.16s-.24-.33-.07-.43S33.75,29.62,33.51,29.83Zm7.7,31.87c-.13.64-.35.79-1,.72a1.74,1.74,0,0,1-.6-.13s-.1-.36-.18-.72l-.15-.66.37.35a1.18,1.18,0,0,0,1.46.17C41.29,61.25,41.3,61.28,41.21,61.7ZM56.7,84.55a.22.22,0,1,1,.29.34.22.22,0,0,1-.32,0A.22.22,0,0,1,56.7,84.55Zm-8-2.31a.72.72,0,0,1,.65-.28c.5,0,.52.07.36.47s-.22.33-.63.31C48.43,82.71,48.37,82.62,48.68,82.24Zm-4.68-5a2.84,2.84,0,0,0,.09-1.66.16.16,0,0,1,0-.22c.09-.07.23.07.45.42.34.57.84.85,1.11.62s.17,0,.2.4a1,1,0,0,0,.4.84c.43.33.32.54-.17.34-.28-.11-.42,0-.81.34a4.59,4.59,0,0,1-.48.45,1.52,1.52,0,0,1,0-.28.7.7,0,0,0-.51-.85C44,77.59,43.79,77.39,44,77.22ZM45.87,32.8a3.89,3.89,0,0,1-.6,0c-.4-.07-.48-.21-.24-.41s.55-.22.86.11S46.13,32.78,45.87,32.8Zm13.88.08c-.5-.06-.58-.1-.43-.24a.41.41,0,0,1,.44,0,1.26,1.26,0,0,0,.55.12c.16,0,.24,0,.17.09A1.53,1.53,0,0,1,59.75,32.88Z"/></g></g></svg>