<svg xmlns="http://www.w3.org/2000/svg" viewBox="0 0 63.32 53.18"><defs><style>.cls-1{fill:#1a171b;}.cls-2{stroke:#fff;stroke-width:0.25px;}</style></defs><title>Asset 410</title><g id="Layer_2" data-name="Layer 2"><g id="Layer_1-2" data-name="Layer 1"><path class="cls-1" d="M28.78,49.7a2.46,2.46,0,0,0-.25,1.23,2.5,2.5,0,0,0,.3,1.26.88.88,0,0,0,.77.52,1,1,0,0,0,.44-.12l.52-.27a.14.14,0,0,1,.12.06.25.25,0,0,1,.05.15c0,.11-.16.25-.47.4a2.07,2.07,0,0,1-.9.23,1.55,1.55,0,0,1-1.2-.51,2.27,2.27,0,0,1-.51-1.58,2.78,2.78,0,0,1,.1-.73.94.94,0,0,1,.2-.46,2.64,2.64,0,0,1,.69-.61,3.24,3.24,0,0,1,.75-.47.23.23,0,0,1,.12,0,.65.65,0,0,1,.2,0,.9.9,0,0,1,.23,0,1.36,1.36,0,0,1,.56.21.47.47,0,0,1,.26.38.29.29,0,0,1-.12.24.39.39,0,0,1-.27.1.9.9,0,0,1-.58-.29.53.53,0,0,0-.33-.14A.77.77,0,0,0,28.78,49.7Zm4.86-.8a.87.87,0,0,0-.48-.14.92.92,0,0,0-.49.13.64.64,0,0,0-.31.32L31.19,52a.39.39,0,0,0,0,.18.84.84,0,0,0,.43.67,1.46,1.46,0,0,0,.89.31,1,1,0,0,0,.57-.2,4.64,4.64,0,0,0,.72-.71s0,0,0-.08A.26.26,0,0,0,33.7,52a.27.27,0,0,0-.16-.08,2.41,2.41,0,0,1-.26.24.87.87,0,0,1-.53.25.84.84,0,0,1-.55-.21.49.49,0,0,1-.22-.63l.89-2.05a.15.15,0,0,1,.14-.08c.06,0,.1,0,.11.06l1,3.35a.51.51,0,0,0,.16.26.34.34,0,0,0,.23.08.48.48,0,0,0,.34-.13.27.27,0,0,0,.1-.27l-1-3.43A.73.73,0,0,0,33.64,48.9Zm4.68-.18a.52.52,0,0,0-.31.1.34.34,0,0,0-.14.25v1l-.08,0q-.42-.37-.72-.6a4.59,4.59,0,0,0-.74-.5,1.49,1.49,0,0,0-.68-.21.34.34,0,0,0-.24.11.42.42,0,0,0-.1.25v3.74a.2.2,0,0,0,.09.17.48.48,0,0,0,.22.05.59.59,0,0,0,.23-.05.17.17,0,0,0,.1-.15V50a.14.14,0,0,1,0-.1.18.18,0,0,1,.12,0,2,2,0,0,1,.46.26,4.4,4.4,0,0,1,.77.62,1.13,1.13,0,0,1,.4.72v1.33a.32.32,0,0,0,.12.27.36.36,0,0,0,.25.08.44.44,0,0,0,.27-.09.28.28,0,0,0,.11-.23V48.89a.17.17,0,0,0,0-.13A.17.17,0,0,0,38.32,48.72Zm2.39.53a.53.53,0,0,1,.33.14.9.9,0,0,0,.58.29.39.39,0,0,0,.27-.1.29.29,0,0,0,.12-.24.47.47,0,0,0-.26-.38,1.31,1.31,0,0,0-.56-.21.86.86,0,0,0-.22,0,.68.68,0,0,0-.21,0,.27.27,0,0,0-.12,0,3.24,3.24,0,0,0-.75.47,2.64,2.64,0,0,0-.69.61.94.94,0,0,0-.2.46,2.78,2.78,0,0,0-.1.73,2.27,2.27,0,0,0,.51,1.58,1.55,1.55,0,0,0,1.2.51,2.07,2.07,0,0,0,.9-.23c.32-.15.47-.29.47-.4a.2.2,0,0,0,0-.15.14.14,0,0,0-.12-.06l-.52.27a1,1,0,0,1-.44.12.88.88,0,0,1-.77-.52,2.5,2.5,0,0,1-.3-1.26A2.46,2.46,0,0,1,40,49.7.77.77,0,0,1,40.71,49.25Zm4.6,3-.57.32a.93.93,0,0,1-.47.14.84.84,0,0,1-.69-.43,1.27,1.27,0,0,1-.27-.73c0-.17.06-.26.18-.26H45a.27.27,0,0,0,.24-.1.44.44,0,0,0,.08-.25.35.35,0,0,0-.05-.18.14.14,0,0,0-.13-.08H43.44s-.07,0-.1-.12a1,1,0,0,1,0-.27,1.17,1.17,0,0,1,.17-.67.68.68,0,0,1,.63-.36.87.87,0,0,1,.49.21,1,1,0,0,0,.53.2.19.19,0,0,0,.18-.13.61.61,0,0,0,0-.28c0-.12-.1-.24-.3-.35a1.22,1.22,0,0,0-.59-.16,2,2,0,0,0-1.31.59,2.3,2.3,0,0,0-.78,1.77,2.09,2.09,0,0,0,.49,1.49,1.61,1.61,0,0,0,1.26.5,2.09,2.09,0,0,0,.86-.23c.32-.16.49-.29.49-.41a.27.27,0,0,0,0-.15A.17.17,0,0,0,45.31,52.25ZM48.47,52a9.06,9.06,0,0,0-.78-.86V51a1.94,1.94,0,0,0,.67-.47,1,1,0,0,0,.31-.63,1.13,1.13,0,0,0-.51-.81,1.65,1.65,0,0,0-1-.41,1.5,1.5,0,0,0-.86.26.77.77,0,0,0-.39.65v3.27a.18.18,0,0,0,.11.18.54.54,0,0,0,.27.06.51.51,0,0,0,.28-.08.21.21,0,0,0,.12-.19V49.63a.45.45,0,0,1,.09-.28.27.27,0,0,1,.22-.11.82.82,0,0,1,.59.26.83.83,0,0,1,.26.57c0,.2-.15.41-.45.61s-.45.37-.45.53l.22.32c.21.31.37.55.47.72A5,5,0,0,1,48,53a.53.53,0,0,0,.17.12.47.47,0,0,0,.17,0,.68.68,0,0,0,.33-.09.28.28,0,0,0,.16-.22A1.61,1.61,0,0,0,48.47,52Z"/><path class="cls-2" d="M26.46.41s-1.83-.74-5.07.8c0,0-5.49,2.44-6.67,2.91,0,0-1.87.9-1.13,2.58,0,0,1.1,2.14,3.73.49A15.39,15.39,0,0,0,21,4S23.42.93,25.7.79a2.26,2.26,0,0,0,.51-.08c.26-.08.44-.23.25-.3m-6,4.84c.26,1,1.68.44,1.68.44a7.44,7.44,0,0,1,2.74-.8C28.93,4,29,1.59,29,1.59c.07-.81-.69-.25-.69-.25-2.68,1.9-4.46,1.84-5.56,1.51Zm-7.59.11c-2.08.22-2.56,3-2.56,3-.37,2.62,1.22,3.49,1.22,3.49a4.69,4.69,0,0,1,3.14-3V8.52c-2.71-.91-1.8-3.16-1.8-3.16m-1,7.09c-.1.93,4.88,2.42,4.88,2.42,2,.81,2.68-.07,2.68-.07l2-2.43C21.63,11,20,11.05,20,11.05a5.57,5.57,0,0,1-2.87-.79,5.9,5.9,0,0,0-1.22-.71c-2.63-.71-4,2.9-4,2.9M2.24,8.22c-.29.45,2.27,3.61,2.27,3.61.77,1.26,1.39.58,1.39.58.55-.78-.5-1.53-.5-1.53-.63-.51-1.73-1.65-1.73-1.65-1.31-1.45-1.43-1-1.43-1M.13,15.46C0,16,3.46,17.73,3.46,17.73c1.15.8,1.49,0,1.49,0,.23-.87-1-1.13-1-1.13-.75-.2-2.15-.78-2.15-.78C.09,15,.13,15.46.13,15.46m5.5-2.38c.82.84,4,2,4,2,1.3.42,1.38-.29,1.38-.29.1-.86-.9-1.09-.9-1.09a11.49,11.49,0,0,1-3.53-1.73c-.23,1.13-.92,1-.92,1Zm-.54,5.36c1,.57,4.1.77,4.1.77,1.27.05,1.15-.64,1.15-.64-.15-.83-1.11-.78-1.11-.78a10.59,10.59,0,0,1-3.64-.67c.11,1.12-.53,1.21-.53,1.21Zm6-2.81c3.24,2,3.47.56,3.47.56.36-1.08-3.07-1.88-3.07-1.88a1,1,0,0,1-.4,1.32m-.37,3.83c3.62,1.17,3.5-.28,3.5-.28.09-1.14-3.43-1.1-3.43-1.1a1,1,0,0,1-.07,1.38M14.84,17c4.14,1.46,3.83-.21,3.83-.21-.13-1-3.45-1-3.45-1A1.3,1.3,0,0,1,14.84,17m-.25,3c5.35,1.36,4.95-.2,4.95-.2-.16-.94-4.46-.92-4.46-.92A1.1,1.1,0,0,1,14.59,20m4.73,2s-.05-.81-1.37-.66l-3.06.23a2,2,0,0,1,.4,1.19,20.21,20.21,0,0,0,3.59-.09.62.62,0,0,0,.44-.67m.16-.75a1.28,1.28,0,0,1,.21,1.27,20.67,20.67,0,0,0,3.35.05s1-.23.1-1a3.19,3.19,0,0,0-1.71-.51,8.87,8.87,0,0,0-1.95.15m-5.7.62c-1.35.49-4.64,4.42-4.64,4.42a1.17,1.17,0,0,1,1.06.55,46,46,0,0,0,4.45-3.69.93.93,0,0,0,.12-1.09.86.86,0,0,0-1-.19M9.42,26.75s-.85-.23-.9,1.18l-.08,3.53s.11.81.4-.1l.93-3.23s.35-1.1-.35-1.38m14.7-4.32c-.75,1.86,3.16,2.4,3.16,2.4-.35-.36.07-1.28.07-1.28l-.92-.67c-1.78-1.39-2.31-.45-2.31-.45m-1.06,3.5a1.71,1.71,0,0,0,1.46-.11c.54-1-.2-1.41-.2-1.41-1.22-.27-1.26.15-1.26.15Zm-2.63-1.54a2.29,2.29,0,0,0,.49,2,1.4,1.4,0,0,0,1.6-.47l-.11-1.6a1.57,1.57,0,0,0-2,.08M18.36,26.2c-.73,1.39.26,1.67.26,1.67a1.62,1.62,0,0,0,1.56-.34c.63-.63.27-1,.27-1L20,25.62c-.76-1-1.35.12-1.35.12Zm-.47,1.87c-1.12,1.21-.56,3.67-.56,3.67.56,1.14,2.09.74,2.09.74a9.05,9.05,0,0,0,1-4.25,2.22,2.22,0,0,1-2.49-.16m-.7,4.3a3.25,3.25,0,0,0-.6,2.38c.51,2.81,1.83,2,1.83,2a2.91,2.91,0,0,0,1.24-2.52c0-1.32-.34-1.23-.34-1.23a2.48,2.48,0,0,1-2.13-.67M36.86.3c-.19.07,0,.22.25.3a2.6,2.6,0,0,0,.51.09c2.28.14,4.73,3.23,4.73,3.23A15.13,15.13,0,0,0,46,7.08c2.63,1.65,3.73-.49,3.73-.49C50.47,4.92,48.61,4,48.61,4c-1.19-.47-6.68-2.91-6.68-2.91C38.7-.44,36.86.3,36.86.3m3.72,2.44c-1.1.33-2.88.39-5.56-1.5,0,0-.76-.57-.69.24,0,0,.06,2.41,4.11,3.3a7.44,7.44,0,0,1,2.74.8s1.42.55,1.68-.43Zm9.88,2.52s.9,2.24-1.81,3.16v.32a4.72,4.72,0,0,1,3.15,3s1.58-.88,1.21-3.49c0,0-.48-2.76-2.55-3m.95,7.08s-1.35-3.61-4-2.9a6.8,6.8,0,0,0-1.22.71,5.54,5.54,0,0,1-2.87.8s-1.65-.06-1.52,1.31l2,2.43s.71.88,2.68.07c0,0,5-1.49,4.88-2.42m9.67-4.22s-.12-.44-1.43,1c0,0-1.1,1.13-1.73,1.64,0,0-1.05.75-.5,1.53,0,0,.62.68,1.39-.57,0,0,2.56-3.16,2.27-3.61m2.11,7.23s0-.42-1.67.34c0,0-1.4.58-2.15.78,0,0-1.23.26-1,1.14,0,0,.33.82,1.48,0,0,0,3.44-1.78,3.33-2.28m-5.5-2.5s-.69.1-.92-1a11.67,11.67,0,0,1-3.53,1.74s-1,.23-.9,1.08c0,0,.09.72,1.38.3,0,0,3.15-1.13,4-2Zm.58,5.37s-.65-.09-.54-1.21a10.76,10.76,0,0,1-3.64.68s-1-.06-1.11.77c0,0-.12.69,1.15.65a15.13,15.13,0,0,0,4.1-.77Zm-6-2.7a1,1,0,0,1-.4-1.31s-3.43.79-3.07,1.88c0,0,.23,1.44,3.47-.57m.37,3.83A1,1,0,0,1,52.54,18s-3.52-.05-3.43,1.09c0,0-.12,1.46,3.5.28M48.48,16.9a1.3,1.3,0,0,1-.38-1.19s-3.32,0-3.45,1c0,0-.31,1.67,3.83.21m.25,3a1.07,1.07,0,0,1-.48-1.11s-4.3,0-4.47.91c0,0-.4,1.57,4.95.2m-4.73,2a.62.62,0,0,0,.44.67,20.61,20.61,0,0,0,3.59.1,2,2,0,0,1,.41-1.19l-3.07-.23c-1.32-.16-1.37.65-1.37.65m-.16-.74a8.25,8.25,0,0,0-2-.15,3.09,3.09,0,0,0-1.71.51c-.9.72.1,1,.1,1a20.35,20.35,0,0,0,3.35-.06,1.26,1.26,0,0,1,.21-1.26m5.7.62a.84.84,0,0,0-1,.19.93.93,0,0,0,.12,1.09,48,48,0,0,0,4.46,3.69,1.15,1.15,0,0,1,1-.56s-3.29-3.93-4.64-4.41m4.36,4.88c-.69.27-.35,1.37-.35,1.37l.93,3.23c.29.92.4.1.4.1l-.08-3.53c0-1.4-.9-1.17-.9-1.17M39.2,22.32s-.52-.93-2.31.45l-.92.67s.42.92.08,1.28c0,0,3.9-.54,3.15-2.4m1.06,2.13s0-.41-1.26-.14c0,0-.74.41-.2,1.4a1.71,1.71,0,0,0,1.46.11Zm2.63-.16a1.56,1.56,0,0,0-2-.08L40.8,25.8a1.38,1.38,0,0,0,1.6.47,2.26,2.26,0,0,0,.49-2m1.81,1.35s-.59-1.08-1.35-.13l-.48.88s-.36.4.27,1a1.62,1.62,0,0,0,1.56.34s1-.28.26-1.66ZM45.43,28a2.22,2.22,0,0,1-2.49.16,9.1,9.1,0,0,0,1,4.26s1.53.39,2.09-.74c0,0,.56-2.47-.56-3.68m.7,4.31a2.49,2.49,0,0,1-2.13.66s-.35-.09-.34,1.23a2.9,2.9,0,0,0,1.24,2.52s1.32.78,1.83-2a3.24,3.24,0,0,0-.6-2.38M36.33,7c-.19-.17-.39.09-.39.09L34.47,8.79c-.45.44-.75,0-.75,0a2,2,0,0,0-2.25-.46,1.85,1.85,0,0,0-2.35.46.37.37,0,0,1-.65,0L27.13,7.25c-.42-.53-.59-.26-.59-.26s-.23.23.15.61L28,9.16l.49.53s.47,2,2.91,1.43c0,0,2.77.87,3.13-1.56l1.76-2.11S36.48,7.17,36.33,7ZM28.24,9.77c-3.52.25-8.1,6.61-8.1,6.61-1.4,1.65,0,2.63,0,2.63a37.43,37.43,0,0,0,9.6,3.48,3.27,3.27,0,0,0,3.5-.07,56.43,56.43,0,0,0,9.38-3A1.71,1.71,0,0,0,43.11,17c-4.44-6.88-8.28-7.25-8.28-7.25-.44,2.63-3.39,1.7-3.39,1.7a2.51,2.51,0,0,1-3.2-1.7m1.43,13.8c-1.34-.54-1.69-.1-1.69-.1-.56.91,0,1.36,0,1.36.66.79,3.49.51,3.49.51a8,8,0,0,0,3.79-.46,1,1,0,0,0,.11-1.34s-.39-.58-1.8-.07m-3.9.1a6.52,6.52,0,0,0,3.9-.1"/></g></g></svg>