<svg xmlns="http://www.w3.org/2000/svg" viewBox="0 0 40.34 55.7"><title>Asset 503</title><g id="Layer_2" data-name="Layer 2"><g id="Layer_1-2" data-name="Layer 1"><path d="M38.46,1.21C37.57,1,36.67.91,35.77.83A43.55,43.55,0,0,0,30.06.61a36.27,36.27,0,0,0-5,.44A8.35,8.35,0,0,0,22.35,2a4.22,4.22,0,0,1-.72.31c-.33.12-.67.22-1,.36a21.47,21.47,0,0,0-4.47,2.6A33.4,33.4,0,0,0,12,8.86c-.34.35-.74.64-1.23,1.06,0-.29.08-.43.1-.56a10.11,10.11,0,0,0,.33-2.25.67.67,0,0,1,.22-.45c.32-.26.67-.48,1-.72.52-.38,1.06-.73,1.55-1.15a2.83,2.83,0,0,0,1-1.89c.07-.7.18-1.39.26-2.09a1.82,1.82,0,0,0,0-.52c0-.14-.07-.29-.26-.29-.59.61-1.2,1.2-1.76,1.83a20.69,20.69,0,0,0-1.35,1.62,3.91,3.91,0,0,0-1,2.55,11.27,11.27,0,0,1-.28,3,7.27,7.27,0,0,1-.93,2.54,22.4,22.4,0,0,0-1.7,3.07c-.28.64-.62,1.26-.9,1.9a8.73,8.73,0,0,1-.65,1.43,3.37,3.37,0,0,0-.31.91c-.11.39-.19.8-.3,1.19a30.34,30.34,0,0,0-1,4.71,18.27,18.27,0,0,0,0,5.17,7.51,7.51,0,0,1,0,.95,6.58,6.58,0,0,0-2-2.53,5.4,5.4,0,0,1,0-1.75,11.68,11.68,0,0,0,.17-1.66,5.33,5.33,0,0,0-.72-2.95c-.42-.63-.89-1.23-1.35-1.83a2.49,2.49,0,0,0-.46-.4.19.19,0,0,0-.16,0,.59.59,0,0,0-.15.2A.19.19,0,0,0,0,20a56.33,56.33,0,0,0,.94,6.34,3,3,0,0,0,.94,1.74c.37.33.73.67,1.13,1a2.89,2.89,0,0,1,.76.84,4.46,4.46,0,0,1,.59,1.36,2.89,2.89,0,0,0,.34.89,1.73,1.73,0,0,1,.3.72,10.29,10.29,0,0,0,.94,2.82c.27.58.55,1.17.85,1.73.58,1.09,1.1,2.21,1.78,3.23A38.38,38.38,0,0,0,12.74,46c.18.19.36.39.52.59a3.69,3.69,0,0,1,.29.44l-1.33-.16-1.56-.24c-.32-.42-.65-.82-1-1.25a9.34,9.34,0,0,0-3.65-3.09,7.82,7.82,0,0,0-2.29-.55,1,1,0,0,0-1,.35c.11.12.2.24.3.33s.39.28.54.45a21.34,21.34,0,0,0,4,3.43,4,4,0,0,0,1.11.5,12.26,12.26,0,0,0,1.21.22,15.12,15.12,0,0,0,1.65.17c.52,0,1,.14,1.57.18a3,3,0,0,1,1.81.78c.78.71,1.59,1.39,2.39,2.07a9.54,9.54,0,0,0,3.52,1.92c.65.19,1.3.36,2,.5l4.42.93c-.26.1-.39.14-.52.2a2.32,2.32,0,0,1-1.93,0,6.29,6.29,0,0,0-3-.44,21.7,21.7,0,0,0-4.35,1,1.35,1.35,0,0,0-.46.24c-.08.08-.07.24-.11.35.67.15,1.26.29,1.86.4a8.62,8.62,0,0,0,2.53.22A11.88,11.88,0,0,0,25,54.82a13.33,13.33,0,0,1,2.35-.72A15.53,15.53,0,0,1,31,53.85c.2,0,.41,0,.61,0,1-.13,2-.32,3-.41a18.53,18.53,0,0,0,4.14-1.13c.14,0,.23-.23.37-.37-.14-.14-.24-.24-.35-.33-.78-.7-1.61-1.37-2.35-2.11-1.25-1.24-2.44-2.53-3.66-3.79-.59-.61-1.2-1.2-1.79-1.81-.18-.18-.33-.38-.5-.57a10.72,10.72,0,0,1,1.82.57c.59.25,1.21.4,1.81.59a4.4,4.4,0,0,1,.23.52,6.33,6.33,0,0,0,1.67,2.23,1.09,1.09,0,0,0,.38.21l2.55,1a.77.77,0,0,0,.71-.07c-.26-.31-.5-.55-.7-.83-.34-.48-.64-1-1-1.46a3.51,3.51,0,0,0-2.41-1.6,16.47,16.47,0,0,1-4.27-1.3,4.75,4.75,0,0,1-1.59-1.07A4,4,0,0,0,28.61,41c-.1,0-.15-.18-.22-.28-.53-.77-1.09-1.52-1.58-2.32a22.12,22.12,0,0,1-1.49-2.58c-.73-1.57-1.37-3.17-2-4.77a7.93,7.93,0,0,1-.61-2.55,14.35,14.35,0,0,1,.12-3.07A8.36,8.36,0,0,0,23,24.23a5.66,5.66,0,0,1,.69-2.52c.31-.63.63-1.26,1-1.88.4-.78.8-1.56,1.22-2.34,0-.08.14-.14.31-.3,0,.29,0,.46,0,.62a14.84,14.84,0,0,0,0,3.33,3.52,3.52,0,0,1-.28,1.95,4,4,0,0,0-.24,1.19,8,8,0,0,0,.27,2.18,1.1,1.1,0,0,0,.17.4c.49.62,1,1.24,1.48,1.85a.75.75,0,0,0,.68.33c0-.06.06-.12,0-.17a12.8,12.8,0,0,1-.18-3.15A3,3,0,0,0,27.61,24,10.82,10.82,0,0,1,27,22.82a7.33,7.33,0,0,1-.54-3.52c0-.88.17-1.75.24-2.62a3.21,3.21,0,0,1,.49-1.48c.36-.57.68-1.17,1.05-1.73a17.28,17.28,0,0,1,1.53-2.14c.91-1,1.91-1.9,2.91-2.8C34.21,7.11,36,6,37.58,4.57c.74-.66,1.54-1.26,2.31-1.89A1,1,0,0,0,40.34,2,3.65,3.65,0,0,0,38.46,1.21ZM11.29,5.3a6.55,6.55,0,0,1,.53-1.1A14.35,14.35,0,0,1,14.63,1a5.65,5.65,0,0,1-.4,2.81,4.11,4.11,0,0,1-1.44,1.49c-.48.32-1,.59-1.51.89A1,1,0,0,1,11.29,5.3Zm-8.77,20c0,.46-.14.92-.2,1.39s-.08.68-.12,1.12c-.19-.16-.36-.25-.42-.38A12.18,12.18,0,0,1,1.3,26c-.19-.74-.36-1.48-.5-2.22a9.08,9.08,0,0,1-.13-1.38,4.38,4.38,0,0,0-.11-1.3,1.65,1.65,0,0,1,0-.46A6,6,0,0,1,2.32,23.2,4.88,4.88,0,0,1,2.52,25.28ZM7.18,45.56c-.63-.46-1.22-1-1.85-1.44a11.21,11.21,0,0,1-1.47-1.6s0-.11,0-.17a2.17,2.17,0,0,1,1.33.08,7.8,7.8,0,0,1,3.37,2.13,20.33,20.33,0,0,1,1.3,1.64,4.08,4.08,0,0,1,.21.42A4.8,4.8,0,0,1,7.18,45.56ZM24,54.83a9.59,9.59,0,0,1-2.25.35,1.61,1.61,0,0,0-.44,0,5,5,0,0,1-2.9-.35s0-.05-.06-.13a6.94,6.94,0,0,1,2.62-.8,5.78,5.78,0,0,1,3.94.42A2.27,2.27,0,0,1,24,54.83Zm12.63-9.67a4.5,4.5,0,0,1,1,.89c.4.49.75,1,1.12,1.56a1.31,1.31,0,0,1,.11.31c-.18,0-.27,0-.34,0-.6-.23-1.2-.45-1.79-.7a2.21,2.21,0,0,1-1-.76,6.32,6.32,0,0,1-.92-1.37c-.05-.13-.07-.27-.13-.47A3.6,3.6,0,0,1,36.65,45.16ZM26.45,22.7c.13.22.26.41.37.6l.57,1a2.23,2.23,0,0,1,.31,1.26,10.53,10.53,0,0,0,0,2.1,1.05,1.05,0,0,1-.06.33A4.34,4.34,0,0,1,26,25.54,3.55,3.55,0,0,1,26.45,22.7ZM39.53,2.56c-.38.32-.75.65-1.15.95a19.35,19.35,0,0,1-3.84,2.6,16.58,16.58,0,0,0-1.82,1.06L30.41,8.58a15.64,15.64,0,0,0-2.63,2,3.61,3.61,0,0,1-1.5.87A6.37,6.37,0,0,0,23,13.76a9,9,0,0,0-1.33,2c-.14.31-.14.31.17.72a7.61,7.61,0,0,0,.82-.48,12.39,12.39,0,0,0,2.47-1.8c.36-.42.76-.81,1.09-1.25a17.17,17.17,0,0,1,3.43-3.38c.78-.58,1.62-1,2.44-1.55A2.31,2.31,0,0,1,33,7.65a4.09,4.09,0,0,1-.46.47,32.72,32.72,0,0,0-3.27,3.07,2.88,2.88,0,0,0-.41.56c-1,1.5-1.93,3-2.87,4.52-.35.57-.63,1.19-1,1.78a1,1,0,0,1-.26.33c-.45.33-.9.65-1.36,1a2,2,0,0,1-1.9.33,3.79,3.79,0,0,0-1.3-.19,2.25,2.25,0,0,1-1.3-.45c-.51-.34-1-.66-1.56-1a3.48,3.48,0,0,0-2-.51,11.4,11.4,0,0,0-1.31.14c-.09,0-.17.12-.24.17s0,.12.05.13c.77.44,1.44,1,2.16,1.51a3.16,3.16,0,0,0,1.75.48,11.33,11.33,0,0,0,2.1-.1,3.9,3.9,0,0,1,1.53.14c0,.22-.17.26-.3.3-1.12.35-2.23.73-3.36,1a34.13,34.13,0,0,0-3.66,1.22,8.89,8.89,0,0,1-.92.26c-.43.09-.86.19-1.29.26a4.47,4.47,0,0,0-2.22,1.17A20.42,20.42,0,0,0,7.93,26a2.54,2.54,0,0,0-.3.51c.09,0,.15.1.18.09.88-.4,1.74-.83,2.63-1.21a4.68,4.68,0,0,0,1.49-1.07,6,6,0,0,1,1.87-1.27A23.27,23.27,0,0,1,17,21.92l1.23-.36c.17.22,0,.33-.06.41a22.85,22.85,0,0,0-1.67,2.36,6.4,6.4,0,0,0-.57,1.36l-.46.24a4.37,4.37,0,0,0-2,2.27,14,14,0,0,0-.65,2.18,2.63,2.63,0,0,0,0,.58c.21-.11.36-.15.44-.25a6.09,6.09,0,0,1,1.23-1,4.37,4.37,0,0,0,1.85-2.87,4.32,4.32,0,0,0,0-.88,2.79,2.79,0,0,1,.57-1.8c.32-.42.58-.88.88-1.32a4.08,4.08,0,0,1,.5-.6A5.45,5.45,0,0,1,21,20.74a11.36,11.36,0,0,0,3.23-1.34,1.4,1.4,0,0,1,0,.45,6.09,6.09,0,0,1-.32.62c-.34.68-.7,1.35-1,2.05a4.63,4.63,0,0,0-.22,1.12c-.07.52-.11,1-.16,1.57s-.11,1.34-.17,2-.1,1.46-.22,2.18a8.37,8.37,0,0,0,.41,4.06,2.09,2.09,0,0,1,0,1.11,12.68,12.68,0,0,1-.69,2.35,2.43,2.43,0,0,0,0,2.12c.47.91.92,1.83,1.39,2.74.08.15.16.33.44.25a9.11,9.11,0,0,1,.07-3.21,8.31,8.31,0,0,0-.44-4,17.76,17.76,0,0,1-.85-3.14,2.79,2.79,0,0,1,0-1.22c.3,0,.29.27.36.43.63,1.48,1.29,2.95,1.87,4.45a17.28,17.28,0,0,0,2,3.5l1.23,1.8a23.88,23.88,0,0,0,2.67,3.26c1.12,1.12,2.17,2.3,3.27,3.43a35.5,35.5,0,0,0,3.46,3.37,7.46,7.46,0,0,1,.79.7,2.25,2.25,0,0,1,.29.42,3.84,3.84,0,0,1-.61,0l-3-.59a3.42,3.42,0,0,0-.78-.12,2.28,2.28,0,0,1-1.33-.36c-.9-.55-1.8-1.1-2.68-1.68a1.72,1.72,0,0,1-.48-.61,6.43,6.43,0,0,1-.66-2.25,4.1,4.1,0,0,0-2.19-3.21.39.39,0,0,0-.55.05c.21.78.42,1.57.64,2.35a8.64,8.64,0,0,0,.88,1.9,3.94,3.94,0,0,0,.65.71,20.15,20.15,0,0,0,3.51,2.73c-.06.23-.18.12-.27.1a7.55,7.55,0,0,1-2.07-.7.49.49,0,0,0-.17-.06A13.51,13.51,0,0,1,26,48.56c-.43-.23-.81-.57-1.22-.84a13.48,13.48,0,0,1-3.07-2.86,19.37,19.37,0,0,1-1.5-2.27c-.45-.72-.87-1.45-1.32-2.17a3.23,3.23,0,0,0-.46-.52,2.56,2.56,0,0,1-.85-1.69,2,2,0,0,0-.15-.59,7.32,7.32,0,0,0-1.38-2,1.88,1.88,0,0,0-.9-.51c-.62-.16-1.23-.39-1.85-.57a3.53,3.53,0,0,0-.58-.08c0,.11,0,.18,0,.21.3.47.62.92.92,1.38a5,5,0,0,0,1.73,1.83,12.8,12.8,0,0,1,1.45,1,8.47,8.47,0,0,1,.8.68,11.38,11.38,0,0,1,2.19,2.95c.37.69.78,1.37,1.22,2a14.93,14.93,0,0,0,2.87,3.07,2.6,2.6,0,0,1,.75.73c-.45.24-.6.26-.79-.05a1.72,1.72,0,0,0-.82-.62,6.44,6.44,0,0,0-2.88-.7,1,1,0,0,0-.83.26c.11.34.4.51.62.72s.73.59,1.09.89a1.53,1.53,0,0,0,1.14.35c.29,0,.58-.07.88-.09.64,0,1.28-.09,1.92-.1a3.58,3.58,0,0,1,1.53.36c.75.33,1.53.59,2.29.89a10.47,10.47,0,0,1,1,.38,8.16,8.16,0,0,0,3.4.8,30,30,0,0,1,4.87.82,3.45,3.45,0,0,1-.45.27,19,19,0,0,1-3.94.89,19.61,19.61,0,0,1-7.32-.29c-.85-.21-1.73-.34-2.58-.52-.63-.13-1.26-.28-1.88-.45a2.23,2.23,0,0,1-1-.69c-.41-.42-.79-.87-1.19-1.3s-.6-.64-.92-.93a1.36,1.36,0,0,1-.52-1,25.22,25.22,0,0,0-.37-2.61,10.41,10.41,0,0,0-.42-1.52,3.56,3.56,0,0,0-1.95-2,1.12,1.12,0,0,0-.91-.07c0,.06,0,.09,0,.11A18.66,18.66,0,0,1,15.7,45a20.33,20.33,0,0,0,1.87,3.47,2,2,0,0,0,.4.46c.84.7,1.46,1.59,2.23,2.36a.34.34,0,0,1,.05.16c-.17.13-.33,0-.48,0a10.48,10.48,0,0,1-2.26-1.48c-.6-.57-1.26-1-1.88-1.59A32.62,32.62,0,0,1,11,43.34c-.33-.44-.7-.86-1-1.29-.14-.19-.27-.38-.39-.58a6,6,0,0,0-.35-.61,5.22,5.22,0,0,1-.87-3.16c0-.58,0-1.17,0-1.76a1.38,1.38,0,0,1,.28-.9c.18-.23.34-.48.53-.7a4.19,4.19,0,0,0,1.19-3.53A11.13,11.13,0,0,0,10,29a.54.54,0,0,0-.41-.4C8.73,31,8,32.1,8,38.39c-.15.07-.21,0-.26-.15a34.22,34.22,0,0,1-2-4.2,12.68,12.68,0,0,1-.48-2.5,21.56,21.56,0,0,1-.32-3.93,19.06,19.06,0,0,1,.35-3.84,2.51,2.51,0,0,1,.38-.87c.44-.66.85-1.33,1.28-2s.69-1,1-1.47c1-.51,2-1,2.94-1.48a3.23,3.23,0,0,0,1.55-1.72c.29-.74.62-1.46.92-2.19a1,1,0,0,0,.05-1,5.87,5.87,0,0,0-1.06.77c-.65.5-1.29,1-1.92,1.54a13,13,0,0,0-2.13,2.32,3.27,3.27,0,0,0-.42.86,5.41,5.41,0,0,1-.67,1.23c-.5.72-1,1.46-1.55,2.16a4.32,4.32,0,0,1,.11-.72c.12-.48.27-1,.43-1.42a2,2,0,0,1,.44-1,.67.67,0,0,0,.15-.4,10.07,10.07,0,0,1,1-2.88,14.44,14.44,0,0,1,.72-1.6c.32-.59.69-1.16,1.05-1.73A12,12,0,0,1,11.93,9.4c.76-.64,1.44-1.37,2.2-2S16,5.91,16.87,5.19a3.56,3.56,0,0,1,1.42-.62c.88-.22,1.74-.52,2.6-.8a1.91,1.91,0,0,1,1.68.14c.48.28,1,.51,1.47.78a6.58,6.58,0,0,0,2.07.7,2.15,2.15,0,0,0,1.28-.13,6.92,6.92,0,0,1,2.17-.67,1.44,1.44,0,0,0,.37-.19c0-.09,0-.19-.07-.19a12.06,12.06,0,0,1-2.43-.7A9.2,9.2,0,0,0,24.59,3c-.46,0-.93,0-1.4,0a7.12,7.12,0,0,0-2.25.32,1.19,1.19,0,0,1-.72.08,3.09,3.09,0,0,1,1.14-.55l1.17-.4a1.09,1.09,0,0,0,.48-.2,2.75,2.75,0,0,1,1.65-.72,18.46,18.46,0,0,1,3.14-.39c1.26,0,2.51-.13,3.77-.17.53,0,1,0,1.58.06,1.46.07,2.91.24,4.36.42a3.11,3.11,0,0,1,1.27.37,8.1,8.1,0,0,0-2.35.75c-.74.35-1.46.73-2.19,1.1L31.88,4.86,31,5.33a7.66,7.66,0,0,0-2.29,1.61,1.06,1.06,0,0,1-1.19.27c-.74-.2-1.48-.35-2.23-.49a5.52,5.52,0,0,0-2.18,0c-.72.16-1.44.28-2.16.39a2.27,2.27,0,0,1-.69,0,9,9,0,0,1-1-.23,3.61,3.61,0,0,0-3.2.79,2.93,2.93,0,0,0-.46.4s0,.11,0,.17.16.14.27.16a7.81,7.81,0,0,0,3.4-.05,3.14,3.14,0,0,0,1.12-.45,2.61,2.61,0,0,1,1.14-.44c.66-.11,1.32-.27,2-.4A2.06,2.06,0,0,1,24,7a11.27,11.27,0,0,1,3.35.67l.18.13a4.73,4.73,0,0,1-1.11.83,21.24,21.24,0,0,1-4.13,1.7,4.4,4.4,0,0,0-1.06.41,2.7,2.7,0,0,1-1.16.35l-.88,0A2.23,2.23,0,0,0,17.5,12a5.17,5.17,0,0,0-1,2.84s0,0,.08.1a1.92,1.92,0,0,0,.29-.14l.82-.5a7.84,7.84,0,0,0,2.5-2.16,4.31,4.31,0,0,1,2.11-1.49c1.23-.48,2.47-.94,3.68-1.44a10.34,10.34,0,0,0,2-1.27,12.41,12.41,0,0,0,1.45-1.15,10.46,10.46,0,0,1,2.22-1.39C33,4.62,34.47,4,35.86,3.2a10.16,10.16,0,0,1,2.81-1,5.8,5.8,0,0,1,1,0A1.24,1.24,0,0,1,39.53,2.56Zm-13,9.29a8.82,8.82,0,0,1-2.33,2.65,5.88,5.88,0,0,1-1.86,1.06,4.4,4.4,0,0,1,.89-1.47c.37-.41.76-.81,1.16-1.19A3.75,3.75,0,0,1,26.5,11.85Zm-7.62,7.71A3.88,3.88,0,0,1,15,18.05c.11-.05.21-.14.31-.14a3.4,3.4,0,0,1,2.14.6C17.86,18.84,18.31,19.15,18.88,19.56Zm-6.64,3.91A6.55,6.55,0,0,1,8.85,25.7C9.47,24.52,11.15,23.27,12.24,23.47ZM16,26.84a3.71,3.71,0,0,1-.8,1.82A4.47,4.47,0,0,1,13.36,30a4.36,4.36,0,0,1,.73-2.25A3.57,3.57,0,0,1,15.94,26C16.14,26.28,16,26.56,16,26.84Zm6.69,8.71c.05-.13.13-.24.23-.44a3.88,3.88,0,0,1,.23.45,6.73,6.73,0,0,1,.3,2.6c-.09.81-.19,1.63-.29,2.53-.11-.13-.2-.19-.24-.28-.3-.67-.59-1.34-.88-2a1.5,1.5,0,0,1,0-1.12C22.29,36.71,22.49,36.13,22.7,35.55Zm5.9,12a2.08,2.08,0,0,1-.47-.32,6.93,6.93,0,0,1-.66-1,7.18,7.18,0,0,1-.74-2.7,1.87,1.87,0,0,1,1.16,1,4.39,4.39,0,0,1,.64,2.15C28.53,47,28.57,47.22,28.6,47.58ZM17.19,38.64c-1.58-.86-3-1.73-3.61-3.54a5.37,5.37,0,0,1,2.07.55A5.47,5.47,0,0,1,17.18,38,2.84,2.84,0,0,1,17.19,38.64Zm6.38,10c-.81,0-1.4.31-2.06,0s-.89-.74-1.34-1.19c.32,0,.63-.09.81,0a3.92,3.92,0,0,0,1.32.35A2.66,2.66,0,0,1,23.57,48.6Zm-5.81-.86c-.1,0-.17-.05-.19-.09A12.48,12.48,0,0,1,15.77,44c-.13-.47-.34-.91-.52-1.4a2.42,2.42,0,0,1,1.81,1.49,7.72,7.72,0,0,1,.58,2.1C17.69,46.69,17.72,47.21,17.76,47.74ZM8.49,34a8.84,8.84,0,0,1,.39-2.23,7.33,7.33,0,0,1,.8-2c.07.09.12.12.14.16A5.05,5.05,0,0,1,9.74,33a3.12,3.12,0,0,1-1.07,1.36C8.48,34.3,8.49,34.15,8.49,34ZM8.22,18.87a1.32,1.32,0,0,1,.09-.41,7.82,7.82,0,0,1,.69-1,16.91,16.91,0,0,1,1.8-1.79c.51-.42,1-.89,1.54-1.27l.41-.23a1.56,1.56,0,0,1,0,.31,14.71,14.71,0,0,1-1.13,2.37,2.33,2.33,0,0,1-1,.86C9.87,18.09,9.09,18.45,8.22,18.87ZM23.13,3.6c.12-.25.32-.17.47-.18a11,11,0,0,1,4.3.6c.18.07.41.07.49.36a3.21,3.21,0,0,1-3.58.25l-1.44-.82C23.28,3.75,23.21,3.66,23.13,3.6ZM19.79,7.71a1.18,1.18,0,0,1-.39.19,7.31,7.31,0,0,1-2.59.26A3,3,0,0,1,16.28,8a2.77,2.77,0,0,1,2.16-.89,12.41,12.41,0,0,1,1.47.27A.24.24,0,0,1,19.79,7.71Zm.13,3.88A5.17,5.17,0,0,1,17,14.14a1.45,1.45,0,0,1,0-.4,9.58,9.58,0,0,1,.39-1.06A1.94,1.94,0,0,1,19.92,11.59Z"/></g></g></svg>