<svg xmlns="http://www.w3.org/2000/svg" viewBox="0 0 276.02 41.38"><title>Asset 469</title><g id="Layer_2" data-name="Layer 2"><g id="Layer_1-2" data-name="Layer 1"><path d="M184.85,15.73c1.59,1.31,2.63,1.81,3.14,2.65a4,4,0,0,0,4,2c10.34-.08,20.69-.09,31-.09,5.28,0,10.55.09,15.83.11.2,0,.39-.27.5-.35-3-4.93-6-9.85-9-14.8-.15-.24.13-.74.31-1.59A15.64,15.64,0,0,1,234,4.1q14.13,5.3,28.22,10.74c3.21,1.24,6.39,2.56,9.58,3.85,1.44.58,2.88,1.18,4.19,1.72.2,2.73-1.68,3.2-3.19,3.86-3.65,1.58-7.34,3.06-11,4.53q-13.48,5.35-27,10.64c-.37.15-.75.26-1.12.42-1.16.51-2.54.88-3.13-.44a4.31,4.31,0,0,1,.07-3.36c1.28-2.44,3-4.65,4.39-7,1.22-2,2.29-4.14,3.76-6.84-3.66-.25-6.8-.91-9.83-.58-10.21,1.11-20.41.43-30.62.41-2.39,0-4.78.19-7.16.39a3.89,3.89,0,0,0-2.1.74c-2.2,1.93-4.23,1.5-6.49,0-2.63-1.7-5-1.35-7.31.78-1.63,1.47-2.66,1.43-4.91-.17-3.71-2.65-4.27-2.67-8.18-.28a4.5,4.5,0,0,1-5.8-1A4.33,4.33,0,0,0,153,21.1c-3.72-.12-7.43-.3-11.15-.39a10.09,10.09,0,0,0-2.73.36q-9.21,2.38-18.4,4.86c-4.82,1.3-9.63,2.63-14.93,4.08-1.21-2.74.23-6.13-.47-9.22-2-.34-2-.34-3.3,2.13-1-.9-1.83-2.14-3-2.48-.5-.15-1.55,1.52-2.56,2.57L94.62,20.4l-2.54,2.09c-.73-2.16-2.1-2.56-4.23-2.45-4.9.25-9.82.08-14.73-.07A5.29,5.29,0,0,0,69,21.81c-6,5.59-12.2,11-18.4,16.45-1.35,1.17-2.78,2.63-5.21,1.58-.83-3.89-1.05-7.5,3-10.39A92.24,92.24,0,0,0,56.68,22a21.52,21.52,0,0,0,1.63-1.91c-3.6-.91-6-.29-8.36,2.45-5.34,6.33-12,11.22-18.69,16-2.2,1.59-4.84,3.23-8.38,2.65a63,63,0,0,1,.28-7.95c.17-1.08,1.41-2.16,2.4-2.93,3.67-2.83,7.45-5.52,11.16-8.3A24.38,24.38,0,0,0,39,19.84c-1.16-.15-1.76-.28-2.37-.3L21.11,19a5,5,0,0,0-4.61,2.41C13.08,26,8.05,28,2.58,29c-.2,0-.45-.22-.92-.48,1.22-5.23,4.84-8.13,10.21-10C7.1,14.76,2.51,11.35,0,5.28,4.07,6.93,7.59,8,10.71,9.74a26.41,26.41,0,0,1,6.58,5.64,4.9,4.9,0,0,0,4,2c6.1.09,12.2.25,18.45,0C34.9,14.1,29.65,11.64,24.44,9,24.23,6,24,3.19,23.8,0c3.79.39,6.2,2.59,8.77,4.23C38.15,7.8,43.51,11.71,49,15.42c3.62,2.44,3.76,2.41,9.28,1.88-4-3.55-8.21-5.76-12.57-8.61.32-2.54.67-5.22,1.1-8.62,5.77,4.4,11,8.39,16.23,12.4a6,6,0,0,1,.55.57c3.73,4,8.06,6.11,13.75,5.51,4.56-.49,9.2-.34,14-.49l1.21-3.23,2.22,3.9c.59-1.61,1-2.63,1.67-4.51.72,1.88,1.14,3,1.54,4,2.3,1,1.86-1.53,2.86-2.4,1.55.61,1.48,4.59,4.43,2.08.1-2.61-1.12-5.47,1-8.28,3,.7,6.24,1.33,9.39,2.22,6.11,1.73,12.26,3.4,18.26,5.52,4.11,1.45,8.29,1.39,12.49,1.65,1.85.12,3.72,0,5.57.13a6,6,0,0,0,4.74-1.44c2.1-1.85,4-1.56,6,.33s4.7,2.54,6.63,1.06c2.19-1.7,3.82-1.56,6,.09,2.72,2.07,6,1.34,8.25-1.4A19.56,19.56,0,0,0,184.85,15.73Zm-48.8,4.78c-9.43-3.77-18.72-7-29-8.55.11,5.38.21,10.16.32,15.27ZM25.3,39.1c5.56-1,9.06-4.8,13-7.78s7.27-6.9,11.18-11a33,33,0,0,0-5.16-.55,7.11,7.11,0,0,0-3.58,1.1c-4.17,3.07-8.1,6.46-12.31,9.45C25.3,32.59,24.37,35.33,25.3,39.1Zm22.06-.93c7.84-5.08,14.16-11.31,20.65-18-3-.64-5.63-1.62-7.68.17-4,3.47-7.55,7.42-11.43,11C46.89,33.18,46.59,35.21,47.36,38.17Zm-21-35.81c-.21,3-1,5.34,1.93,6.83,4.83,2.45,9.53,5.16,14.29,7.74a7.94,7.94,0,0,0,6.54.46C41.22,12.36,34.33,6.91,26.36,2.36Zm22.3,1.52c-1.2,3.61-1,4.45,1.31,6.05,3.15,2.17,6.39,4.2,9.51,6.41,1.84,1.3,3.67,1.56,6.29.85A113.15,113.15,0,0,0,48.66,3.88ZM236.32,36.37c2.84-.24,4.67-.78,5.88-2.85s2.78-4.15,4-6.33c.78-1.39,1.66-2.85,1.26-4.76C243.05,26.3,239.87,31.06,236.32,36.37Zm8.19-2.61c6.5-.93,7.3-5.92,8.83-10.3.06-.16-.19-.43-.36-.78a7.92,7.92,0,0,0-1.44-.21,4.33,4.33,0,0,0-1.12.2ZM243,9.3c6,10.83,6,10.83,9.12,10.94-2.34-3.57-4.52-6.95-6.81-10.26C245,9.59,244.12,9.62,243,9.3Zm5.81,2.06c1.33,3.9,4,6.28,6.28,8.91.26.3,1.27-.06,2.42-.15-1.52-2-3.29-3.44-3.74-5.19C253,12.19,251.2,12,248.77,11.36Zm-14.91-5c1.33,4.89,5.06,10.25,8.72,12.62C239.22,14.43,238.14,9.32,233.86,6.37Zm11.77,14.38.76-.53C244,13,241.32,8.83,238.11,8.11Zm16.9-.86c-1.55-2.78-2.9-5.57-6.64-5.67C258.06,19.55,259,20.39,262.53,19.89Zm-9.63,9.49c2.84-.09,3.78-1.37,5.36-6.93C253.8,23,255.12,27.33,252.9,29.38Zm5.21-1.49C263,26.4,263,26.4,263,22.38,259.05,21.85,259.37,25.15,258.11,27.89Zm-14.06-5.37c-3.66.2-5.46,2.5-5.89,7.42Zm20.72,2.58c2.68-.47,4.71-.89,6.74-2.48C266.31,21.74,266.31,21.74,264.77,25.1ZM264,17.43c1.59,3.53,4,2.61,6.19,2.25Z"/></g></g></svg>