<svg xmlns="http://www.w3.org/2000/svg" viewBox="0 0 57.54 66.53"><defs><style>.cls-1{fill:#1a171b;}.cls-2{stroke:#fff;stroke-width:0.25px;}</style></defs><title>Asset 414</title><g id="Layer_2" data-name="Layer 2"><g id="Layer_1-2" data-name="Layer 1"><path class="cls-1" d="M2.79,61.62l1,3.43a.27.27,0,0,1-.1.27.48.48,0,0,1-.34.13.34.34,0,0,1-.23-.08A.52.52,0,0,1,3,65.12L2,61.76s-.05-.06-.11-.06a.15.15,0,0,0-.14.08l-.89,2a.58.58,0,0,0,0,.18.6.6,0,0,0,.26.46.89.89,0,0,0,.55.2.91.91,0,0,0,.53-.24l.26-.25a.27.27,0,0,1,.16.08.21.21,0,0,1,.07.15s0,.06,0,.08a4.64,4.64,0,0,1-.72.71.94.94,0,0,1-.57.2,1.46,1.46,0,0,1-.89-.31A.83.83,0,0,1,0,64.43a.41.41,0,0,1,0-.19l1.17-2.76a.64.64,0,0,1,.31-.32A.92.92,0,0,1,2,61a.81.81,0,0,1,.48.15A.68.68,0,0,1,2.79,61.62ZM6,61.52a.53.53,0,0,1,.33.14.9.9,0,0,0,.58.29.44.44,0,0,0,.27-.09.32.32,0,0,0,.12-.25A.47.47,0,0,0,7,61.23,1.36,1.36,0,0,0,6.43,61L6.2,61,6,61a.23.23,0,0,0-.12,0,3.24,3.24,0,0,0-.75.47,2.64,2.64,0,0,0-.69.61.94.94,0,0,0-.2.46,2.78,2.78,0,0,0-.1.73,2.27,2.27,0,0,0,.51,1.58,1.55,1.55,0,0,0,1.2.51,2.07,2.07,0,0,0,.9-.23c.32-.15.47-.29.47-.4a.27.27,0,0,0,0-.15.14.14,0,0,0-.12-.06l-.52.27a1.07,1.07,0,0,1-.44.13.89.89,0,0,1-.77-.53A2.5,2.5,0,0,1,5,63.2,2.46,2.46,0,0,1,5.27,62,.77.77,0,0,1,6,61.52Zm4.48-.6a.37.37,0,0,0-.25.09.24.24,0,0,0-.1.21l0,1.21V63A5.1,5.1,0,0,1,10,64.24c-.14.44-.38.66-.73.66a.79.79,0,0,1-.53-.2.57.57,0,0,1-.24-.45c0-.23-.05-.42-.06-.55s0-.39,0-.76c0-.11,0-.37,0-.76s0-.67,0-.84a.34.34,0,0,0-.1-.28A.45.45,0,0,0,8.05,61a.41.41,0,0,0-.26.09.38.38,0,0,0-.13.23V62c0,.31,0,.68,0,1.13s0,.91.1,1.38a1.41,1.41,0,0,0,.53.65,1.59,1.59,0,0,0,.88.24,1.54,1.54,0,0,0,1-.49,1.93,1.93,0,0,0,.65-1.44v-2.2A.28.28,0,0,0,10.7,61,.44.44,0,0,0,10.43,60.92Zm3.31.26a.81.81,0,0,0-.48-.15.92.92,0,0,0-.49.13.64.64,0,0,0-.31.32l-1.17,2.76a.41.41,0,0,0,0,.19.83.83,0,0,0,.43.66,1.46,1.46,0,0,0,.89.31,1,1,0,0,0,.58-.2,5.17,5.17,0,0,0,.71-.71.17.17,0,0,0,0-.08.21.21,0,0,0-.07-.15.27.27,0,0,0-.16-.08l-.26.25a.77.77,0,0,1-1.08,0,.59.59,0,0,1-.25-.46.57.57,0,0,1,0-.18l.89-2a.16.16,0,0,1,.15-.08.09.09,0,0,1,.1.06l1,3.36a.52.52,0,0,0,.16.25.34.34,0,0,0,.23.08.48.48,0,0,0,.34-.13.27.27,0,0,0,.1-.27l-1-3.43A.73.73,0,0,0,13.74,61.18Zm3.49,2.25v-.14a1.94,1.94,0,0,0,.67-.47,1,1,0,0,0,.31-.63,1.13,1.13,0,0,0-.51-.81,1.64,1.64,0,0,0-1-.41,1.54,1.54,0,0,0-.87.26.77.77,0,0,0-.39.65v3.27a.18.18,0,0,0,.11.18.54.54,0,0,0,.27.06.61.61,0,0,0,.28-.07.23.23,0,0,0,.12-.2V61.9a.45.45,0,0,1,.09-.28.27.27,0,0,1,.22-.11.91.91,0,0,1,.85.83c0,.21-.15.41-.45.61s-.45.37-.45.53l.22.32c.21.32.37.55.47.72a5,5,0,0,1,.39.71.53.53,0,0,0,.17.12.33.33,0,0,0,.17,0,.68.68,0,0,0,.33-.09.28.28,0,0,0,.16-.22A1.55,1.55,0,0,0,18,64.3,8,8,0,0,0,17.23,63.43ZM19.37,61a.56.56,0,0,0-.3.08.26.26,0,0,0-.13.23v3.78a.25.25,0,0,0,.15.23.63.63,0,0,0,.34.08.48.48,0,0,0,.22,0,.16.16,0,0,0,.08-.14v-4a.2.2,0,0,0-.11-.17A.49.49,0,0,0,19.37,61Zm4.46,2.2a2.22,2.22,0,0,1-.6,1.55,1.84,1.84,0,0,1-1.41.65,1.35,1.35,0,0,1-1.14-.63,2.85,2.85,0,0,1-.43-1.65,2.06,2.06,0,0,1,.66-1.57A1.72,1.72,0,0,1,22.08,61a1.54,1.54,0,0,1,1.27.61A2.47,2.47,0,0,1,23.83,63.19Zm-.89.09a2.78,2.78,0,0,0-.23-1.19c-.18-.4-.43-.6-.74-.6a.74.74,0,0,0-.71.57,3.13,3.13,0,0,0-.16,1.12,2.74,2.74,0,0,0,.22,1.15c.17.39.4.58.69.58a.78.78,0,0,0,.74-.54A2.66,2.66,0,0,0,22.94,63.28Z"/><path class="cls-1" d="M32.37,61.91l1,3.44a.26.26,0,0,1-.1.27.53.53,0,0,1-.33.13.41.41,0,0,1-.24-.08.55.55,0,0,1-.16-.26l-1-3.35a.1.1,0,0,0-.1-.07.14.14,0,0,0-.14.08l-.89,2.05a.39.39,0,0,0,0,.18.59.59,0,0,0,.25.46.85.85,0,0,0,.55.2.88.88,0,0,0,.53-.24,2.81,2.81,0,0,0,.26-.25.35.35,0,0,1,.16.08.21.21,0,0,1,.07.16.15.15,0,0,1,0,.07,4.23,4.23,0,0,1-.71.71,1,1,0,0,1-.58.21,1.55,1.55,0,0,1-.89-.31.88.88,0,0,1-.43-.67.43.43,0,0,1,0-.19l1.17-2.76a.68.68,0,0,1,.31-.32,1,1,0,0,1,.49-.13.86.86,0,0,1,.49.15A.76.76,0,0,1,32.37,61.91Zm4.47.27a2.06,2.06,0,0,1,.46,1.29A3.14,3.14,0,0,1,37,65a2.08,2.08,0,0,1-1,.8v0a.82.82,0,0,1,.42.1.34.34,0,0,1,.21.31.19.19,0,0,1-.1.19.72.72,0,0,1-.29,0,1.68,1.68,0,0,1-.83-.32,4.5,4.5,0,0,1-.44-.33,1.72,1.72,0,0,1-.93-.79,2.44,2.44,0,0,1-.3-1.23,2.6,2.6,0,0,1,.54-1.61,1.6,1.6,0,0,1,1.3-.7A1.58,1.58,0,0,1,36.84,62.18ZM36.48,64a3.43,3.43,0,0,0-.23-1.3q-.27-.66-.75-.66a.73.73,0,0,0-.68.38,2.17,2.17,0,0,0-.23,1.08A3.17,3.17,0,0,0,34.86,65a.79.79,0,0,0,.73.52.74.74,0,0,0,.68-.42A2.2,2.2,0,0,0,36.48,64Zm3.93-2.81a.36.36,0,0,0-.24.09.26.26,0,0,0-.1.21l0,1.22v.52A4.54,4.54,0,0,1,40,64.53c-.13.44-.37.66-.73.66A.82.82,0,0,1,38.7,65a.62.62,0,0,1-.23-.46c0-.23,0-.41-.06-.55s0-.39,0-.76c0-.11,0-.36,0-.75s0-.67,0-.84a.37.37,0,0,0-.11-.29.4.4,0,0,0-.27-.09.39.39,0,0,0-.26.09.36.36,0,0,0-.13.23v.69c0,.3,0,.68,0,1.12s0,.91.09,1.38a1.37,1.37,0,0,0,.54.65,1.37,1.37,0,0,0,1.85-.25,1.87,1.87,0,0,0,.65-1.44v-2.2a.28.28,0,0,0-.12-.23A.47.47,0,0,0,40.41,61.21Zm3.32.26a.85.85,0,0,0-.48-.15,1.06,1.06,0,0,0-.5.13.68.68,0,0,0-.31.32l-1.17,2.76a.63.63,0,0,0,0,.19.86.86,0,0,0,.42.67,1.57,1.57,0,0,0,.89.31,1,1,0,0,0,.58-.21,4.23,4.23,0,0,0,.71-.71.15.15,0,0,0,0-.07.21.21,0,0,0-.07-.16.31.31,0,0,0-.15-.08l-.26.25a.91.91,0,0,1-.53.24.83.83,0,0,1-.55-.2A.6.6,0,0,1,42,64.3a.39.39,0,0,1,0-.18L43,62.07A.14.14,0,0,1,43.1,62a.09.09,0,0,1,.1.07l1,3.35a.48.48,0,0,0,.16.26.38.38,0,0,0,.23.08.49.49,0,0,0,.33-.13.25.25,0,0,0,.1-.27l-1-3.44A.76.76,0,0,0,43.73,61.47Zm3.49,2.26v-.15a1.78,1.78,0,0,0,.66-.47,1,1,0,0,0,.32-.62,1.13,1.13,0,0,0-.51-.82,1.65,1.65,0,0,0-1-.41,1.56,1.56,0,0,0-.87.26.79.79,0,0,0-.39.66v3.26a.2.2,0,0,0,.11.18.61.61,0,0,0,.28.06.53.53,0,0,0,.28-.07.22.22,0,0,0,.12-.2V62.19a.4.4,0,0,1,.08-.27.26.26,0,0,1,.22-.12.82.82,0,0,1,.6.27.8.8,0,0,1,.25.56c0,.21-.15.41-.45.61s-.45.37-.45.53l.23.33c.21.31.36.55.46.71a5.85,5.85,0,0,1,.4.72.88.88,0,0,0,.17.12.41.41,0,0,0,.16,0,.68.68,0,0,0,.33-.09.25.25,0,0,0,.16-.22,1.47,1.47,0,0,0-.37-.78A7.77,7.77,0,0,0,47.22,63.73Zm2.13-2.44a.48.48,0,0,0-.3.08.25.25,0,0,0-.12.22v3.78a.26.26,0,0,0,.14.24.74.74,0,0,0,.34.08.45.45,0,0,0,.22,0,.14.14,0,0,0,.08-.13v-4a.19.19,0,0,0-.1-.17A.67.67,0,0,0,49.35,61.29Zm3.72-.08a.36.36,0,0,0-.24.09.26.26,0,0,0-.1.21l0,1.22v.52a4.54,4.54,0,0,1-.13,1.28c-.13.44-.37.66-.73.66a.78.78,0,0,1-.52-.19.6.6,0,0,1-.24-.46c0-.23-.05-.41-.06-.55s0-.39,0-.76c0-.11,0-.36,0-.75s0-.67,0-.84a.34.34,0,0,0-.11-.29.4.4,0,0,0-.27-.09.39.39,0,0,0-.26.09.36.36,0,0,0-.13.23v.69c0,.3,0,.68,0,1.12s0,.91.09,1.38a1.43,1.43,0,0,0,.54.65,1.52,1.52,0,0,0,.88.25,1.56,1.56,0,0,0,1-.5,1.89,1.89,0,0,0,.64-1.44v-2.2a.28.28,0,0,0-.12-.23A.47.47,0,0,0,53.07,61.21Zm2.5,1.71a3.1,3.1,0,0,0-.45-.31.46.46,0,0,1-.08-.26.45.45,0,0,1,.13-.34.46.46,0,0,1,.34-.14,1.22,1.22,0,0,1,.47.25,1.12,1.12,0,0,0,.48.24.43.43,0,0,0,.34-.12.32.32,0,0,0,.07-.2c0-.25-.18-.44-.54-.56a3.59,3.59,0,0,0-.53-.11,1.88,1.88,0,0,0-1,.38c-.37.24-.56.49-.56.74a1.13,1.13,0,0,0,.46.78l.86.67a1.16,1.16,0,0,1,.46.82.36.36,0,0,1-.14.32.49.49,0,0,1-.33.11,1.42,1.42,0,0,1-.7-.36,1.67,1.67,0,0,0-.62-.36.31.31,0,0,0-.27.16.28.28,0,0,0-.08.18.74.74,0,0,0,.37.56,1.43,1.43,0,0,0,.89.3,2.48,2.48,0,0,0,1-.26c.48-.22.73-.51.73-.87a1.42,1.42,0,0,0-.46-.88A4.9,4.9,0,0,0,55.57,62.92Z"/><path class="cls-2" d="M35.45,33.38a4.79,4.79,0,0,0,5.62-3,13.22,13.22,0,0,1,2.82,7.64A5.63,5.63,0,0,0,46,41.32s2.21,1.62,3.84,7.7c0,0,1.15,3.15,3.69,3.78l2.69.71A2.56,2.56,0,0,1,57,54s.84.72,0,.9l-6.26.67A1,1,0,0,1,50,54.5a2.86,2.86,0,0,0-.45-1.91l-1.87-2.07A23.54,23.54,0,0,0,45,48s-3.27-2.43-1.79-4.82c0,0,1.22-1.5,3.27,1.1,0,0-1.18-2.9-3.33-2a1.31,1.31,0,0,0-.75,1.16,12.43,12.43,0,0,0-1.18-1.37,5.36,5.36,0,0,1-1.15-1.44s4.35.55,2.2-4.47c0,0,1,3.63-1.45,3.81,0,0-2.6.51-5.38-6.59M36.56,8.87c1.08-.86.34-2.41.34-2.41,1.59,1.49.24,2.1.24,2.1-.75.39-1.63.9-1.63.9a4.32,4.32,0,0,1-1.57,1,3.91,3.91,0,0,0-2.87,2.43,10.58,10.58,0,0,0-3.57,1.47c-3.2,2.27-.27,3.05-.27,3.05-3.33.33-1.12-2.81-1.12-2.81-.88-3.27-3-3-3-3a9.09,9.09,0,0,0,0,3.95,7.07,7.07,0,0,1,.12,2.1c0,2.7,2.26,1.62,2.26,1.62a8.81,8.81,0,0,1,2.36-.42c4.63-.57,5.29-2.37,5.29-2.37.79,2.43,2.54,2.28,2.54,2.28C34.15,19.92,33,17.64,33,17.64a8,8,0,0,1-2.23,1.11v1.77a2.37,2.37,0,0,0,.36,1.89c1.9,1.77.72,3.11.72,3.11a1.74,1.74,0,0,0,0-1.13c-1.18-1.47-1.39.23-1.39.23a4.64,4.64,0,0,0-.87,1.56,9.46,9.46,0,0,1-1.3,2.11,48.46,48.46,0,0,0-3.9,5c-1.79,3.29-.43,3.32-.43,3.32,1.12.36,3-2.4,3-2.4-2.06,5.25-4.09,2.31-4.09,2.31A6.59,6.59,0,0,0,21,39.82a12.87,12.87,0,0,1-.45,1.89l-.64.93c-1,1.43-2.93,5.12-2.93,5.12a19.53,19.53,0,0,1-2.51,4.05c-1.66,2.06-4.93,2.6-4.93,2.6L9,54.77c-.7.66,0,.82,0,.82h6.59a1.78,1.78,0,0,0,1-.15A1.77,1.77,0,0,0,16.92,54c-.18-.9.85-2.33.85-2.33a51.58,51.58,0,0,1,3.9-3.54c3-3.12,1.69-4.5,1.69-4.5-.61-.86-2.57.24-2.57.24,1.81-2.48,3.54-.5,3.54-.5a10.31,10.31,0,0,0,1.24-2.55,11,11,0,0,1,2.35-2.46A12.23,12.23,0,0,0,32,33.92c-3.18-.78-2.88-3-2.88-3A3.84,3.84,0,0,0,33,33.17c3.33-.63,3.33-5.58,3.33-5.58.85,3.57-.94,5.13-.94,5.13,3.06,1.14,4.9-1.83,4.9-1.83,1.27-2-.79-5.28-.79-5.28-.75-1.13.94-2.81.94-2.81a11.09,11.09,0,0,0,2.81-4.11C44.67,17,44.37,14,44.37,14c1.51,2.24-.3,4.73-.3,4.73,0,.27.81.57.81.57.4.12,1,1,1,1,.27.66,1.27,1,1.27,1,1.79,1.11,2-.27,2-.27.87-1.92,0-3,0-3-.67-.3-1-1.68-1-1.68a10.11,10.11,0,0,0-1.36-2.6A3.19,3.19,0,0,1,46,11.83c-.09-2.88-3.29-2.7-3.29-2.7-1.69-.18-1.94-1-1.94-1l-.36-.78a2.33,2.33,0,0,1,.36-1.88c1.27-3-2.11-4.92-2.11-4.92-5.48-1.8-6.41,2.55-6.41,2.55-.21,1.17.81,1,.81,1,.15-.4,1.24,0,1.24,0s.73.34.73.34c.72,0,.54.38.54.38-.3.48-1.12,0-1.12,0C34,4.22,33,4.47,33,4.47v.82s0,.44.2.55c0,0,.32.16,0,.78l-.33.82s-.23.52.43.41l.42,0a.19.19,0,0,1,.16.24l0,.09a3.36,3.36,0,0,0-.06.36.42.42,0,0,0,.18.41.42.42,0,0,1,.1.45s-.25.77.45.82M23.57,5s1.34,2,3.07.94c0,0,1.14-1.07,3.72-.19l2.09.84-.24,1.16s.1.57.49.53h.41s.31,0,.15.43a1.09,1.09,0,0,0,.23.53s-.11.53,0,.63a5.27,5.27,0,0,0-2.77,2.36,8,8,0,0,0-3.41,1.54s-.67.46-2.09-1.94a2.8,2.8,0,0,0-3.15-.66m2.51-5.93,1.15-1.34s.09-.38,1.06-.3l1.3.11,1.32.57s.81.66-.08.72a9.38,9.38,0,0,0-1.69,0,2.76,2.76,0,0,0-1.35.67,1.63,1.63,0,0,1-1.71-.43M21.3,11.41a5.41,5.41,0,0,0,.32,3,7.34,7.34,0,0,1,.45,3.51,5,5,0,0,0,.23,1.8,2.79,2.79,0,0,1,0,2s-.31.39-.33-.33a5,5,0,0,0-.11-1.64,4.85,4.85,0,0,1-.64-1.93s0-2.66-.63-3.17a12.51,12.51,0,0,1,.12,2.64,5.76,5.76,0,0,0,.8,2.67s.93,1.3.23,4.57c0,0-.93,5.08-1.28,6.06,0,0-1,4.16.81,7,0,0-1,1.75-.77,2.54A5.33,5.33,0,0,1,19.08,36a10.18,10.18,0,0,0-.23-3.56s-.08,1.61-.27,3.23c0,0-.35,3.36,1.7,5.09a7.65,7.65,0,0,1-1,1.9s-1.82-1-1.88-4.49a52.11,52.11,0,0,1,.23-5.69s-1.28,4.79-.7,7a8.82,8.82,0,0,0,2,3.64l-1.1,2S13.47,41.08,16,33a10.74,10.74,0,0,0,1.49,12.6,17.46,17.46,0,0,0-1.27,2.32,12.44,12.44,0,0,1-3.59-11,15.27,15.27,0,0,1,2-5.12,9.21,9.21,0,0,0,.58-6.29,17.26,17.26,0,0,1-.62-7.69s1-9,8.37-10m2.26,35c1.26,6.17-.11,8.12-.11,8.12.54-4.28-1-5.23-1-5.23a15.7,15.7,0,0,0,1.14-2.89m.53,6.87c-.39,2.58.58,3.56.58,3.56.81.89-.18,1-.18,1-1.43-.21-1.1-2.87-1.1-2.87a3.16,3.16,0,0,0,.7-1.7m-1.88-3.42c1.31,1.31.81,4.12.81,4.12a10.67,10.67,0,0,0-.19,2.7,3.39,3.39,0,0,0-1.19-2.15c.26-2.06-.56-2.79-.56-2.79l1.13-1.88m-.62,5.08a3.46,3.46,0,0,1,1.2,2.17s0,.88-.7,1c0,0-.91,0-.79-1.12a6.65,6.65,0,0,0,.29-2m-1-2.46S23.36,51.76,22,54c0,0-.52.89-1.28.43,0,0-.58-.59.31-1.57a5.33,5.33,0,0,0,1.3-4m-.18-.1c-.13,3-1.31,3.85-1.31,3.85.62-1,.11-2.85.11-2.85a3.45,3.45,0,0,0,1.2-1m-3.62,2.66s1.47,1,1,2.4a1,1,0,0,1-1,.65s-1.06-.08-.29-1.23a2.13,2.13,0,0,0,.29-1.82m.26-.18c1.42-1.14,1.74-1.36,1.74-1.36a4.18,4.18,0,0,1-.58,3.41,2.53,2.53,0,0,0-1.16-2M21.3,11.62a2.79,2.79,0,0,1,.64-1.77,3.41,3.41,0,0,0,1-1.92c.52-2.83-.87-2.88-.87-2.88C20.1,4.93,20,8.29,20,8.29a4.15,4.15,0,0,0-.9.63S19,5.74,20.89,4.35c0,0,2.29-1.65,2.95,1.54,0,0,.82,4.26-2.54,5.73"/></g></g></svg>