<svg xmlns="http://www.w3.org/2000/svg" viewBox="0 0 25.87 41.84"><title>Asset 480</title><g id="Layer_2" data-name="Layer 2"><g id="Layer_1-2" data-name="Layer 1"><path d="M25.85,20.22c0,.89-.06,1.78-.1,2.67a5.1,5.1,0,0,1-.16.95c-.17.62-.41,1.22-.56,1.85a15.29,15.29,0,0,1-.57,1.65c-.27.69-.54,1.37-.83,2.05-.18.45-.4.89-.6,1.34s-.5,1.14-.8,1.69a5.83,5.83,0,0,0-.65,2.15,3.5,3.5,0,0,0,.1.84l.09.73s0,.08,0,.12c.14,1,.26,1.91.42,2.86s.3,1.6.44,2.4c0,.18-.05.35-.13.32a.27.27,0,0,1-.17-.27c-.11-.65-.18-1.31-.33-2-.2-.81-.25-1.64-.39-2.46s-.18-1.47-.28-2.2a4.15,4.15,0,0,1,.3-1.84,7.63,7.63,0,0,1,.41-.87c.2-.44.41-.89.61-1.34.4-.94.8-1.88,1.19-2.83.26-.65.52-1.3.75-2s.41-1.34.6-2a2.7,2.7,0,0,0,.08-.39c0-.4.11-.79.14-1.18s.07-1.06.08-1.59c0-1.12,0-2.24,0-3.36,0-.39-.08-.79-.11-1.18s-.05-.57-.06-.85c0-.47,0-1,0-1.42a2.09,2.09,0,0,0-.08-.5,3.47,3.47,0,0,1-.08-.79c0-.49-.11-1-.19-1.46s-.18-.77-.26-1.16a1.8,1.8,0,0,0-.55-.85.83.83,0,0,0-.45-.19,3.64,3.64,0,0,0-.65,0,7.36,7.36,0,0,0-.11,1c-.05.85-.1,1.7-.13,2.55,0,.57,0,1.14,0,1.71,0,1-.06,2-.1,3,0,.12,0,.27-.21.31a.7.7,0,0,1-.06-.19,5.42,5.42,0,0,1,0-.57l.12-4.72c0-.77.08-1.55.08-2.33s.07-1.66.12-2.49a12.15,12.15,0,0,0-.11-2.89,2.17,2.17,0,0,0-1.07-1.54,1.15,1.15,0,0,0-1.26.1c0,.39-.09.8-.13,1.21-.05.68-.09,1.36-.14,2L20,7.68c-.06,1-.13,2-.19,2.94,0,.33,0,.65,0,1,0,.78-.07,1.55-.11,2.33a.82.82,0,0,1-.06.27,1.07,1.07,0,0,1-.24.21,1.68,1.68,0,0,1-.06-.26c0-.8.07-1.59.11-2.39,0-.32.09-.63.11-.95,0-.55.09-1.1.09-1.65,0-.91.12-1.81.22-2.72a1,1,0,0,0,0-.17c.07-.92.15-1.85.21-2.77a6,6,0,0,0-.19-2.3.85.85,0,0,0,0-.17c-.1-.24-.12-.55-.44-.61a1.22,1.22,0,0,0-1,.13,3.6,3.6,0,0,0-1.15,1.72.91.91,0,0,0,0,.33c0,1.43.08,2.85.09,4.27s0,2.61,0,3.92c0,1-.07,2-.12,3a.75.75,0,0,1-.07.33c0,.05-.1.07-.21.13a2.76,2.76,0,0,1,0-.38l.09-1.76c0-.74.08-1.48.1-2.22s0-1.59,0-2.38c0-.55,0-1.1-.07-1.65,0-.74-.05-1.48-.08-2.21,0-.44,0-.87,0-1.31a.66.66,0,0,0-.55-.69,1,1,0,0,0-1,.16,2.8,2.8,0,0,0-1,1.59,19.59,19.59,0,0,0-.49,3.82c0,.51-.1,1-.13,1.53-.05.83-.09,1.66-.13,2.49,0,.11,0,.23,0,.34a12.4,12.4,0,0,0-.08,1.36,16.32,16.32,0,0,1-.25,2A7.55,7.55,0,0,1,12.91,16a13.42,13.42,0,0,1-1.64,4.45,2.8,2.8,0,0,1-.47.56,1.27,1.27,0,0,1-1.87,0,5.63,5.63,0,0,1-1-1.24c-.53-.89-1.05-1.8-1.62-2.66A14.71,14.71,0,0,0,5,15.44a8.14,8.14,0,0,0-1-.8c-.07-.06-.18-.08-.24-.15a2.12,2.12,0,0,0-1.32-.58A2.82,2.82,0,0,0,1.08,14a.91.91,0,0,0-.53.39,1.66,1.66,0,0,0,.06,1.87A8.11,8.11,0,0,0,2,18.08a.08.08,0,0,0,0,0,4.39,4.39,0,0,1,1.06,1.46,19.56,19.56,0,0,1,1,2.48c.17.58.31,1.17.5,1.74a16.83,16.83,0,0,0,.72,1.77c.25.53.55,1,.84,1.53.19.33.45.61.67.92a18.78,18.78,0,0,0,1.9,2.18c.35.35.76.63,1.13.95s.81.74,1.23,1.09a1.88,1.88,0,0,1,.51.87,8.73,8.73,0,0,1,.3,1c.09.41.18.82.24,1.23a14.21,14.21,0,0,1,.13,3.06c-.08.94-.09,1.89-.13,2.84,0,.12,0,.22-.2.24a.79.79,0,0,1-.09-.58c.05-1.31.11-2.61.16-3.92a3.62,3.62,0,0,0-.11-1.18,1.86,1.86,0,0,1-.05-.34,11,11,0,0,0-.45-2.11,2.88,2.88,0,0,0-1-1.36c-.32-.27-.63-.54-1-.8A12.17,12.17,0,0,1,7.9,29.79,19.86,19.86,0,0,1,6,27.35a11.78,11.78,0,0,1-1.81-4,18.67,18.67,0,0,0-.66-2.17,13.38,13.38,0,0,0-.54-1.31,4.87,4.87,0,0,0-1-1.44,11,11,0,0,1-1.57-2A2.25,2.25,0,0,1,0,15.4,1.94,1.94,0,0,1,.5,14a.87.87,0,0,1,.64-.34,5.9,5.9,0,0,1,1.92.07,1.54,1.54,0,0,1,.66.31c.33.28.69.53,1,.8A8,8,0,0,1,5.9,16a23.11,23.11,0,0,1,1.69,2.56c.33.55.68,1.09,1,1.62a1.84,1.84,0,0,0,.5.54,1,1,0,0,0,1.49,0,1.34,1.34,0,0,0,.34-.37,9.7,9.7,0,0,0,1.11-2.29,14.22,14.22,0,0,0,.42-1.41c.13-.51.2-1,.29-1.56a3.34,3.34,0,0,1,.1-.62,5.6,5.6,0,0,0,.19-1.68c0-.57,0-1.14,0-1.7a6.84,6.84,0,0,1,.08-.91c.12-.71.09-1.43.16-2.15.12-1.24.21-2.49.34-3.73A4.5,4.5,0,0,1,14.55,2a2.12,2.12,0,0,1,.68-.59,1.1,1.1,0,0,1,1-.08l.78.37a6.76,6.76,0,0,1,.38-.61A4.52,4.52,0,0,1,18.1.34a1.23,1.23,0,0,1,1.57-.1.57.57,0,0,1,.19.19,3,3,0,0,1,.39,1.12c0,.36.05.72.08,1.1a1.28,1.28,0,0,0,.34,0,1.45,1.45,0,0,1,1.45.42A3,3,0,0,1,23.05,5a16.84,16.84,0,0,1,0,2.56c0,.3,0,.6,0,.91a1.78,1.78,0,0,0,0,.3,1.87,1.87,0,0,0,.4,0,1.24,1.24,0,0,1,1.28.76,4.1,4.1,0,0,1,.32.91,17.18,17.18,0,0,1,.45,3c.08,1.09.13,2.19.26,3.28A24.28,24.28,0,0,1,25.85,20.22Z"/></g></g></svg>