<svg xmlns="http://www.w3.org/2000/svg" viewBox="0 0 39.02 55.7"><title>Asset 498</title><g id="Layer_2" data-name="Layer 2"><g id="Layer_1-2" data-name="Layer 1"><path d="M37.29,52.47a25.56,25.56,0,0,1-10.37-8.41A25.66,25.66,0,0,1,22.2,32.85a23.92,23.92,0,0,1,.08-9.12,26.08,26.08,0,0,1,1.25-4.9A29.34,29.34,0,0,1,29.8,8.62,67.15,67.15,0,0,1,35,4.17a9.75,9.75,0,0,1,4-2.09c-.27-.2-.37-.35-.5-.38C37.07,1.32,35.64.91,34.19.61A28.43,28.43,0,0,0,23.39.43a34.21,34.21,0,0,0-9.65,3.68A19.38,19.38,0,0,0,10.55,6,25,25,0,0,0,5,12.16,29.88,29.88,0,0,0,.66,22.31a42.43,42.43,0,0,0-.58,4.78A25.44,25.44,0,0,0,2,38.87c.33.81.83,1.56,1.22,2.35A20.38,20.38,0,0,0,10.18,49a37.53,37.53,0,0,0,14.66,6.23,20.38,20.38,0,0,0,7,.34,40.35,40.35,0,0,0,5-1.29c.75-.21,1.47-.55,2.21-.83v-.25Zm-1.6,1.6a21.37,21.37,0,0,1-11.52.53,39.67,39.67,0,0,1-12.06-5,22.84,22.84,0,0,1-10-12.26A27.22,27.22,0,0,1,.78,25.41,28.86,28.86,0,0,1,5.83,12a23.37,23.37,0,0,1,10.46-8.6c1.47-.64,2.94-1.28,4.45-1.81a24,24,0,0,1,5.05-1C28.92.22,32,.81,35,1.23a20.14,20.14,0,0,1,2.43.67l-1.54,1A33.8,33.8,0,0,0,27,11.14a31.46,31.46,0,0,0-2.76,4.65A28.75,28.75,0,0,0,21.38,26.2a22.51,22.51,0,0,0,1,10,44,44,0,0,0,2.27,5.44,27.06,27.06,0,0,0,6.4,7.64A21.75,21.75,0,0,0,37.22,53a3.11,3.11,0,0,1,.41.3C36.92,53.61,36.31,53.86,35.69,54.07ZM21.83,52.52c2.12.52,4.23,1.06,6.54,1.64-.68.58-1.18.23-1.63.13-1.59-.36-3.18-.78-4.77-1.19a2.61,2.61,0,0,1-.53-.27C21.66,52.65,21.76,52.5,21.83,52.52ZM14.07,7.46s-.13-.06-.31-.14A20.71,20.71,0,0,1,20.56,3,58.91,58.91,0,0,0,14.07,7.46ZM31.75,53.22l1.94.24c0,.13,0,.26,0,.39a18.68,18.68,0,0,1-6-.93c.9-.45,1.5,0,2.11,0ZM27.26,1.87a49.66,49.66,0,0,0-6.51,2.66,15.5,15.5,0,0,1,7.06-3A2.48,2.48,0,0,1,27.26,1.87ZM27.39,3a10.25,10.25,0,0,1,5.75-1.27c-.67.64-1.39.37-2,.57s-1.24.29-1.86.44S28.12,3.34,27.39,3Zm6.79-.49C32.73,3.93,30,5.86,29.29,6,29.73,5,33,2.75,34.18,2.51ZM19.51,51.61c.11.07.16.23.23.35s-.11.12-.16.19a21.19,21.19,0,0,1-4.8-3.21c.19,0,.44-.08.58,0Q17.46,50.26,19.51,51.61ZM5,38.78l3.15,4.78C7,43,5.28,40.48,4.82,38.92ZM3.89,34.59c.42.2.42.2,1.14,1.46.32.55.62,1.12,1,1.67s.75,1.13,1.13,1.69C6,38.87,4.17,35.93,3.89,34.59Zm16.93,8.65.24-.17c.47.83.9,1.7,1.43,2.49s1.14,1.51,1.77,2.34C23.14,47.39,21.23,44.75,20.82,43.24ZM14.29,15.08c-.82,1.38-1.65,2.75-2.48,4.13L11.52,19a12.93,12.93,0,0,1,2.88-4.33A1.38,1.38,0,0,1,14.29,15.08ZM25.28,46l.22-.21c.5.58,1,1.18,1.5,1.73s1.14,1.09,1.76,1.68C27.77,49.26,26,47.59,25.28,46Zm7.32,5.72a16.25,16.25,0,0,1,2.47,1.39,10.14,10.14,0,0,1-4.83-2.72C31.25,50.42,31.76,51.36,32.6,51.72ZM9.14,32a6.1,6.1,0,0,1,0-5.12ZM28.41,51.06l1.26.74a6.32,6.32,0,0,1-3.79-2.08c.63-.18.92.26,1.3.57A11,11,0,0,0,28.41,51.06ZM6.13,13.42c-.52,1.34-1,2.68-1.63,4.25A6,6,0,0,1,6.13,13.42Zm5.15,33.24c.57.48,1.11,1,1.71,1.53-.87,0-2.82-1.69-3.45-3C10.53,45.26,10.71,46.2,11.28,46.66Zm5.17-11.19c.38,1.44.76,2.87,1.14,4.28C16.91,39.26,16.24,37.19,16.45,35.47Zm4.33-20.95c-.25.72-.51,1.44-.75,2.17s-.45,1.52-.76,2.56A7.55,7.55,0,0,1,20.78,14.52Zm-7.49,9.35A5.6,5.6,0,0,1,13.87,20c.57.73-.16,1.27-.21,1.88A19.11,19.11,0,0,1,13.29,23.87Zm5.45,4.91-.29-4.1C19,25.63,19.23,28.19,18.74,28.78ZM2.61,26.35l.75,4.17L3,30.58a18.41,18.41,0,0,1-.73-4.17Zm3,0a12.13,12.13,0,0,1,.08-3.78A6.44,6.44,0,0,1,5.61,26.34ZM21.07,12.46A5.4,5.4,0,0,1,22.76,9l.22.12Zm-8.72,1.25c-.24-.84.38-1.3.68-1.89s.78-1.18,1.17-1.78l.28.19ZM19.75,34a8.92,8.92,0,0,1,.86,3.7A8,8,0,0,1,19.75,34Zm-12.91.71a9.35,9.35,0,0,1-1.27-3.9C6.36,32,6.42,33.41,6.84,34.71ZM22,17c-.47,1.26-.56,2.65-1.32,3.82A7.82,7.82,0,0,1,22,17ZM8.36,37.62l2,3.73A6.47,6.47,0,0,1,8.36,37.62ZM28.55,4c-1.17.82-2.11,2-3.36,2.68A8.6,8.6,0,0,1,28.55,4Zm-8,42a7,7,0,0,1-2.69-2.57A10,10,0,0,1,20.57,46ZM18.9,7.31l-2.17,2.76A3.78,3.78,0,0,1,18.9,7.31ZM13.41,32a8.18,8.18,0,0,1,0-3.49ZM9.87,10.86l0,0,0,0S9.87,10.84,9.87,10.86Zm0,0c.22-1.16,1.23-1.72,1.87-2.56A4.75,4.75,0,0,1,9.88,10.81Zm5.73,34.48a4.49,4.49,0,0,1,2.43,2A6.82,6.82,0,0,1,15.61,45.29Zm7.87,5.32c.57.34,1.17.62,1.83,1-.87.13-2.38-.68-3.74-1.94l.17-.18C22.32,49.85,22.88,50.26,23.48,50.61ZM17.6,12.71l.24.11c-.33,1.15-.65,2.3-1,3.44l-.23-.07A8.48,8.48,0,0,1,17.6,12.71ZM24,5c-.93,1-1.73,1.85-2.54,2.7,0,0-.15,0-.22-.05A5.93,5.93,0,0,1,24,5Zm-12.85,28a8,8,0,0,1,.72,3.37A5.28,5.28,0,0,1,11.1,33.05Zm5.08-10.47c0,.47,0,1,0,1.43s0,.89,0,1.33h-.29v-4a1.57,1.57,0,0,1,.29,0C16.47,21.72,16.15,22.17,16.18,22.58ZM7.94,19a3,3,0,0,1,.41-2.71A5.21,5.21,0,0,1,7.94,19Zm2.81,2.12A5.14,5.14,0,0,1,10.32,24,3.69,3.69,0,0,1,10.75,21.09ZM4,20.19l-.56,2.93A3,3,0,0,1,4,20.19Zm15.26,19.6-.66-2.68A2.35,2.35,0,0,1,19.23,39.79ZM13.9,45.87a11.61,11.61,0,0,1-1.79-2.75A5.74,5.74,0,0,1,13.9,45.87Zm-4-35,0,0s0,0,0-.06Zm0,0a6.23,6.23,0,0,1-1.76,2.42A4.41,4.41,0,0,1,9.82,10.9Zm13.7,32.65a4.51,4.51,0,0,1-1.18-2.74c.47.81.95,1.62,1.41,2.43C23.77,43.27,23.67,43.36,23.52,43.55ZM13.41,40c.42.47.84.94,1.25,1.42A3.28,3.28,0,0,1,15,42C14,41.47,13.46,40.92,13.41,40ZM24.12,11.51a2.9,2.9,0,0,1,1.06-2.33A4.56,4.56,0,0,1,24.12,11.51Zm-6.8,20.23a4.45,4.45,0,0,1-.31-3C17,29.73,17.66,30.67,17.32,31.74Zm1.21,17.55c1,0,1.23.84,2,1.11C19.65,50.55,19.65,50.55,18.53,49.29Z"/></g></g></svg>