<svg xmlns="http://www.w3.org/2000/svg" viewBox="0 0 213.33 39.76"><title>Asset 473</title><g id="Layer_2" data-name="Layer 2"><g id="Layer_1-2" data-name="Layer 1"><path d="M210.65,16.4c-6.83-4.25-13.33-9-20-13.56L186.58,0l-1.27.93c.58,7.57.44,14.63-.36,17.29a11.23,11.23,0,0,1-3.37-.1c-.83-.07-1.66-.19-2.49-.18-3.75,0-7.5.07-11.25.12-4.7.07-9.4.17-14.11.22-5.22.06-10.44.06-15.66.12-1.14,0-2.28.25-3.42.29-2.71.11-5.42.2-8.13.24-3,0-6,0-9.08,0a3.39,3.39,0,0,1-.92-.38c.62-1.58,1.93-2.51,2.89-3.7a41.14,41.14,0,0,0,2.9-3.6c-.46-.7-.93-.71-1.36-.28-1.68,1.72-3.31,3.48-5,5.19a7.73,7.73,0,0,1-1.42.85c.06-1.47.13-2.62.15-3.76,0-1.57.1-3.14,0-4.7a9.24,9.24,0,0,0-.59-2.41c0-.14-.52-.15-1-.27,0,.64,0,1.15,0,1.65,0,2.83,0,5.65,0,8.47a8.84,8.84,0,0,1-.56,2c-2.52-2-4.8-3.73-7.1-5.48-.08-.06-.34.12-.7.26a5.42,5.42,0,0,0,.7,1.26c1.36,1.3,2.77,2.54,4.17,3.81.29.27.69.51.19,1.2-5.26.11-10.67.32-16.07.31-7.21,0-14.43-.19-21.64-.31-2.5,0-5-.2-7.51-.17a15.91,15.91,0,0,1-5.27-.5,4.19,4.19,0,0,0-2.14-.05A8.94,8.94,0,0,1,50.87,17c-.82-.45-1.55-1.07-2.38-1.5-2.45-1.28-3.5-3.38-4-6a3.12,3.12,0,0,1,2.93-4A17.35,17.35,0,0,1,52.09,6a2.42,2.42,0,0,1,1.83,2,2.58,2.58,0,0,1-.12,1.51,3.06,3.06,0,0,1-3.28,1.25A1.74,1.74,0,0,1,49,8.41c0-.13-.19-.32-.3-.48-1.42.46-1.71.6-1.81,1a2.21,2.21,0,0,0,.62,2,4.91,4.91,0,0,0,7.44-.06,4,4,0,0,0-.11-4.94c-1.88-2-7-3-9.41-1.74-1.89,1-3.42,2.54-2.68,5.67a10.63,10.63,0,0,0,4.53,6.86c.39.25,1,.4.89,1.23-1,.35-2-.08-3,0-2.68.34-4.82-.75-7-2.17a25.85,25.85,0,0,0-6.87-3.68,23.4,23.4,0,0,0-11.09-1A144.57,144.57,0,0,0,6,14.8,56.43,56.43,0,0,0,.33,17.09c-.65,1.45-.33,2.45.88,3.08,2,1,3.89,2,5.91,2.87,2.22.9,4.59,1.46,6.8,2.38a23.4,23.4,0,0,0,12.61,1.52c5.25-.8,10.14-2.5,14-6.32a3.28,3.28,0,0,1,2.55-1c2.7.16,5.41.35,8.11.56.11,0,.2.28.42.61-1.14.86-2.31,1.7-3.43,2.61a27.14,27.14,0,0,0-3.06,2.69,8.45,8.45,0,0,0-2,8.16,6.36,6.36,0,0,0,2.63,4.14,8.51,8.51,0,0,0,8.39.44,6,6,0,0,0,2.65-2.59,3.28,3.28,0,0,0-.07-3.85,5.54,5.54,0,0,0-5-2.19,2.44,2.44,0,0,0-2.18,2.61,1.07,1.07,0,0,0,.5.72,1,1,0,0,0,.86,0,10.2,10.2,0,0,0,.93-1.21,1.59,1.59,0,0,1,2.45-.29,2.57,2.57,0,0,1,.39,3.86c-1.55,2-3.68,2.12-6,1.86a4,4,0,0,1-3.26-2.16,6.73,6.73,0,0,1-.69-5.71,8.17,8.17,0,0,1,2.86-4q2.87-2.19,5.82-4.26a6.07,6.07,0,0,1,3.53-1.14c3.65,0,7.31-.15,11-.09,3.34.06,6.68.41,10,.44,9.08.09,18.18.3,27.26-.13,1.46-.07,2.93-.06,4.39,0a1,1,0,0,1,.8,1.79c-.56.75-1.2,1.44-1.82,2.15-.9,1-1.84,2-2.7,3.05-.2.24-.16.69-.27,1.3a6.29,6.29,0,0,0,3.55-2.24,16.08,16.08,0,0,1,3.44-3.23c-.11,2.61-.19,4.58-.27,6.55,0,.94-.12,1.88-.09,2.81a.86.86,0,0,0,.56.61.81.81,0,0,0,.67-.42,14.12,14.12,0,0,0,.32-2.15c.22-2.47.41-4.94.64-7.76a16.08,16.08,0,0,1,3.21,2.42c1.05,1,2.1,2,3.19,3a.87.87,0,0,0,.83,0,1,1,0,0,0,.24-.8,1.54,1.54,0,0,0-.4-.83c-.64-.7-1.31-1.35-2-2A30.65,30.65,0,0,1,116,21.25c.66-.91,1.43-.68,2.13-.62a39.26,39.26,0,0,0,9.38-.21,26.37,26.37,0,0,1,3.44-.21c5.44-.13,10.87-.28,16.3-.36,3.45,0,6.9,0,10.35,0,3.86,0,7.74.35,11.58.07a122.62,122.62,0,0,1,14.09.08c.61,0,1.21.13,1.91.2a10.7,10.7,0,0,1,.27,1.64c0,5.12.08,10.24,0,15.36A2.26,2.26,0,0,0,187,39.76a7.34,7.34,0,0,0,1.3-.63c1.17-.86,2.3-1.78,3.45-2.67,6.13-4.71,12.26-9.4,18.37-14.13,1.14-.88,2.18-1.9,3.25-2.84A4.93,4.93,0,0,0,210.65,16.4ZM38.11,17.57c-2.34,1-3.09,1-4.32-.27-.79-.81-1.48-1.71-2.22-2.57C34.26,14.68,36.07,16.18,38.11,17.57Zm-13-5.19a3.92,3.92,0,0,1,3.73,1.81,41.46,41.46,0,0,0,2.77,3.36c-1.81,1.27-3.29,1.5-4.63.39-1.68-1.38-3.14-3-4.68-4.55-.11-.12-.07-.39-.17-1C23.26,12.42,24.19,12.42,25.11,12.38Zm-6.44.73a1.8,1.8,0,0,1,1.1.49,53.16,53.16,0,0,1,4.69,4.47,12.05,12.05,0,0,1-6.68.2c-1.46-.36-3-1.55-4.66-3.61A11,11,0,0,1,18.67,13.11Zm-8.21,2.24A10.66,10.66,0,0,1,13.66,18c-3.51.69-6.72.11-10.31.48C5.39,16.44,5.44,16.42,10.46,15.35ZM9.25,21.92c-.79-.25-1.6-.44-2.35-.75a7,7,0,0,1-1.25-.91,14.1,14.1,0,0,1,8.12,0C12.05,22.56,11.64,22.71,9.25,21.92ZM20.3,24.45a2.23,2.23,0,0,1-1.69.51,14.45,14.45,0,0,1-4.74-1.76l4-3.31,5.55.23c.09,0,.18.09.33.18,0,.26,0,.65-.12.82A43,43,0,0,1,20.3,24.45Zm2.26.62a40.21,40.21,0,0,1,4.22-4.49,2.1,2.1,0,0,1,1.12-.46c1.31-.11,2.63-.59,4,0A7.23,7.23,0,0,1,22.56,25.07ZM33,23.56c.17-1.43,1.34-3.38,2.34-3.61a11.39,11.39,0,0,1,2.74,0c.08,0,.14.33.24.57C36.84,22,34.92,22.77,33,23.56Z"/></g></g></svg>