<svg xmlns="http://www.w3.org/2000/svg" viewBox="0 0 78.51 69.69"><defs><style>.cls-1{fill:#1d1d1b;}</style></defs><title>Asset 398</title><g id="Layer_2" data-name="Layer 2"><g id="Layer_1-2" data-name="Layer 1"><path class="cls-1" d="M69,11.82a.39.39,0,0,1-.23-.07L61,6.32a.4.4,0,0,1-.1-.56.39.39,0,0,1,.56-.1l7.79,5.42a.41.41,0,0,1-.23.74ZM42.23,10.5,55,5.9a.4.4,0,1,0-.27-.76L42,9.74a.4.4,0,0,0-.24.52.41.41,0,0,0,.38.27A.35.35,0,0,0,42.23,10.5Zm0,16.62a.41.41,0,0,0,.21-.53L38.93,18.1a.43.43,0,0,0-.54-.22.42.42,0,0,0-.21.54l3.53,8.48a.41.41,0,0,0,.38.25A.45.45,0,0,0,42.25,27.12Zm10.21,7.32a.42.42,0,0,0-.25-.52l-5-1.77a.41.41,0,0,0-.27.77l5,1.77.13,0A.41.41,0,0,0,52.46,34.44Zm5.94,16.2a.41.41,0,0,0,.37-.44l-.7-9.44a.41.41,0,0,0-.81.06l.7,9.44a.41.41,0,0,0,.41.38ZM22.31,41.17l19.07-8.26a.41.41,0,0,0-.32-.75L22,40.42a.4.4,0,0,0-.21.53.39.39,0,0,0,.37.25A.41.41,0,0,0,22.31,41.17ZM9.87,57.41l7.55-12.27a.4.4,0,0,0-.13-.56.41.41,0,0,0-.56.13L9.18,57a.41.41,0,0,0,.13.56.43.43,0,0,0,.22.06A.4.4,0,0,0,9.87,57.41Zm2.6,3.6,6.85-.79a.4.4,0,0,0-.1-.8l-6.84.78a.42.42,0,0,0-.36.45.41.41,0,0,0,.41.36Zm41.62.76a.41.41,0,0,0-.38-.43L27.59,59.77a.42.42,0,0,0-.43.38.41.41,0,0,0,.38.43l26.12,1.57h0A.4.4,0,0,0,54.09,61.77ZM72.15,13c-.86.22-.4-1.52-1.58-.89l.9,1.95c-.92,0-1.74,0-2.55,0s-1.56-.53-2.37-.08c.17.61.59.57,1,.57h3.56c.24,0,.49,0,.84.06-.63.95-1.83,1.28-2,2.63,1.06-.23,1.36-1.36,2.33-1.54,0,.5,0,.93,0,1.35s-.08,1,0,1.53c0,.74.19,1.47.23,2.21.05,1,0,2,.07,3.07a3.19,3.19,0,0,0,.24.78l.33,0a7.64,7.64,0,0,0,.12-1.06c0-2.13-.12-4.26-.19-6.38,0-.46,0-.94.43-1.26.73.51,1,1.48,1.81,1.8.47-.32.33-.64.09-.93s-.6-.63-.89-.95-.83-.62-.76-1.35a4.05,4.05,0,0,1,1-.15,26.22,26.22,0,0,1,2.79.48c.49.12.83.16,1.08-.53a32.85,32.85,0,0,0-4.6-.54l1.42-2.19c-1.22-.06-1.16,1.15-2,1.41l.17-1.78-1,.93c0-2,0-3.7,0-5.43,0-.36.25-.78-.54-1A47.21,47.21,0,0,0,72.15,13ZM56.29,55.78c-.86.21-.4-1.53-1.58-.9l.9,1.95c-.92,0-1.74,0-2.55,0s-1.56-.53-2.37-.07c.17.6.59.56,1,.56h3.56c.24,0,.49,0,.84.06-.63,1-1.83,1.29-2.05,2.63,1.06-.23,1.36-1.36,2.33-1.54,0,.51,0,.93,0,1.36s-.08,1-.05,1.52c.05.74.19,1.47.23,2.21,0,1,0,2.05.07,3.07a3.19,3.19,0,0,0,.24.78l.33,0a7.64,7.64,0,0,0,.12-1.06c-.05-2.13-.12-4.25-.19-6.38,0-.46-.05-.93.43-1.26.73.51,1,1.48,1.81,1.8.47-.32.33-.64.09-.93s-.6-.63-.89-1-.83-.62-.76-1.35a4,4,0,0,1,1-.14,23.54,23.54,0,0,1,2.79.47c.49.12.83.16,1.08-.52a32.85,32.85,0,0,0-4.6-.55l1.42-2.19c-1.22,0-1.16,1.15-2,1.41L57.68,54l-1,.92c0-2,0-3.7,0-5.42,0-.37.25-.78-.54-1A47.36,47.36,0,0,0,56.29,55.78ZM5.6,58c-.86.21-.4-1.53-1.58-.9.29.63.56,1.22.89,2-.91,0-1.73,0-2.54,0S.81,58.58,0,59c.17.6.59.56,1,.56H4.52c.25,0,.5,0,.85.06-.63,1-1.83,1.29-2.05,2.64,1.06-.24,1.36-1.36,2.33-1.54,0,.5,0,.93,0,1.35s-.08,1-.05,1.53c.05.73.19,1.47.23,2.2,0,1,0,2,.07,3.08a2.92,2.92,0,0,0,.24.78l.33,0a7.79,7.79,0,0,0,.12-1.07c0-2.12-.12-4.25-.19-6.38,0-.46-.05-.93.43-1.26.73.51,1,1.48,1.8,1.8.48-.31.34-.64.1-.93s-.6-.62-.89-.94-.83-.63-.76-1.35a3.64,3.64,0,0,1,1-.15,23.92,23.92,0,0,1,2.79.48c.49.11.83.15,1.08-.53a32.85,32.85,0,0,0-4.6-.55L8.78,56.6c-1.22-.06-1.16,1.15-2,1.41L7,56.23l-1,.92c0-2,0-3.7,0-5.42,0-.37.25-.78-.54-1A47.34,47.34,0,0,0,5.6,58ZM37.26,11.51c-.88.11-.22-1.56-1.46-1.08l.66,2.05c-.92-.11-1.72-.23-2.53-.29s-1.49-.71-2.35-.35c.1.62.52.63.9.67,1.18.15,2.36.27,3.53.42.25,0,.49.09.83.16-.73.87-2,1.06-2.34,2.37,1.08-.1,1.51-1.19,2.5-1.25-.06.49-.1.92-.16,1.34s-.2,1-.23,1.51c0,.74,0,1.48,0,2.22-.07,1-.21,2-.29,3.06a2.89,2.89,0,0,0,.15.8h.33a9.81,9.81,0,0,0,.25-1q.28-3.18.55-6.36c0-.46.06-.93.57-1.2.66.59.79,1.58,1.59,2,.51-.26.41-.6.2-.92s-.52-.69-.78-1-.75-.72-.59-1.43a3.9,3.9,0,0,1,1,0,27.27,27.27,0,0,1,2.71.8c.47.17.81.25,1.14-.4a34.11,34.11,0,0,0-4.51-1.08l1.66-2c-1.2-.2-1.28,1-2.1,1.17l.37-1.75-1.08.81c.23-2,.42-3.68.64-5.39.05-.36.33-.74-.42-1.1A47.52,47.52,0,0,0,37.26,11.51ZM54.75,3.83a6.57,6.57,0,0,0,.61.26,12.29,12.29,0,0,1,1.49.47c1.09.5.88.33.84,1.42,0,.52,0,1,0,1.66.05.4.31-.15.33-.22a6.88,6.88,0,0,0,.36-1c.17-.61.35-1.14,1.11-1.3a11,11,0,0,0,2-.49c.47-.17-.69-.51-.87-.58s-.62-.24-.93-.35A1.46,1.46,0,0,1,58.66,2.2c0-.56.06-1.13.1-1.7,0-.2.08-.42-.28-.5a2.92,2.92,0,0,0-.14.38c-.15.69-.34,1.38-.43,2.08s-.56.93-1.16,1c-.28,0-.57,0-.85,0l-1.1.08C54.62,3.63,54.46,3.7,54.75,3.83ZM40.16,30.09a5.36,5.36,0,0,0,.62.25c.49.17,1,.26,1.49.47,1.09.51.87.33.83,1.42,0,.52,0,1,0,1.66,0,.4.3-.14.33-.21a8.29,8.29,0,0,0,.35-1c.17-.61.36-1.14,1.11-1.31a10.09,10.09,0,0,0,2-.49c.48-.16-.69-.5-.87-.58s-.62-.23-.93-.34a1.49,1.49,0,0,1-1.07-1.51c0-.57.06-1.14.1-1.7,0-.21.08-.43-.27-.5a2.92,2.92,0,0,0-.14.38,20.76,20.76,0,0,0-.44,2.08c-.09.71-.56.93-1.15,1a8.11,8.11,0,0,1-.86.05l-1.1.08C40,29.89,39.87,30,40.16,30.09ZM16.21,42.28c.21.08.41.18.62.25a14.36,14.36,0,0,1,1.49.47c1.09.5.87.33.83,1.42,0,.52,0,1,0,1.66,0,.4.3-.15.33-.21a9,9,0,0,0,.36-1c.16-.61.35-1.14,1.11-1.31a11,11,0,0,0,2-.49c.47-.16-.7-.51-.87-.58s-.62-.24-.94-.34a1.48,1.48,0,0,1-1.06-1.52c0-.56.05-1.13.09-1.69,0-.21.08-.43-.27-.51-.05.14-.11.26-.14.38-.15.69-.34,1.38-.44,2.08s-.56.94-1.15,1a6,6,0,0,1-.85,0l-1.11.09C16.09,42.07,15.92,42.14,16.21,42.28Zm3.41,16.28c.2.08.4.18.61.25a14.54,14.54,0,0,1,1.5.47c1.08.5.87.33.83,1.42,0,.52,0,1,0,1.66,0,.4.3-.15.33-.21a9,9,0,0,0,.35-1c.17-.61.35-1.14,1.11-1.31a10.83,10.83,0,0,0,2-.49c.47-.16-.69-.51-.87-.58s-.62-.24-.93-.34a1.49,1.49,0,0,1-1.07-1.52c0-.56.06-1.13.1-1.69,0-.21.08-.43-.27-.51a2.57,2.57,0,0,0-.14.38c-.16.69-.35,1.38-.44,2.08s-.56.94-1.16,1a6,6,0,0,1-.85,0l-1.1.09C19.5,58.35,19.33,58.42,19.62,58.56ZM52.39,37c.2.08.4.18.61.25a14.36,14.36,0,0,1,1.49.47c1.09.5.88.33.84,1.42,0,.52,0,1,0,1.66,0,.4.31-.15.33-.21a7.88,7.88,0,0,0,.36-1c.17-.62.35-1.14,1.11-1.31a10.83,10.83,0,0,0,2-.49c.47-.16-.69-.51-.87-.58s-.62-.24-.93-.34a1.49,1.49,0,0,1-1.07-1.52c0-.56.06-1.13.1-1.69,0-.21.08-.43-.28-.51a2.45,2.45,0,0,0-.13.38c-.16.69-.35,1.38-.44,2.08s-.56.94-1.16,1a6,6,0,0,1-.85,0l-1.1.09C52.27,36.82,52.1,36.89,52.39,37Z"/><path class="cls-1" d="M14,24.83c0,.65,0,1.15,0,1.74-.93,0-1.87,0-3.05,0l-1.75,0v-.11c.51-.09.59-.29.59-1.28V19.9c0-1-.1-1.2-.55-1.27v-.11l1.11,0,1.14,0v.11c-.47.07-.55.22-.55,1.27v6.22a8,8,0,0,0,1.05.05c1.36,0,1.73-.14,1.95-1.34Z"/><path class="cls-1" d="M19.13,25.6a2.31,2.31,0,0,1-2,1,2.58,2.58,0,0,1-2.61-2.71A2.55,2.55,0,0,1,17,21.25a2,2,0,0,1,2.08,2.07H15.66s0,.1,0,.28c0,1.55.84,2.51,2,2.51a1.94,1.94,0,0,0,1.39-.61ZM18,23c0-1-.41-1.56-1-1.56s-1.15.69-1.28,1.56Z"/><path class="cls-1" d="M22.54,26.6A2.57,2.57,0,0,1,19.84,24a2.72,2.72,0,0,1,5.43,0A2.62,2.62,0,0,1,22.54,26.6ZM24.05,24c0-1.5-.31-2.5-1.49-2.5s-1.5,1.16-1.5,2.49.26,2.42,1.48,2.42S24.05,25.29,24.05,24Z"/></g></g></svg>