<svg xmlns="http://www.w3.org/2000/svg" viewBox="0 0 211.61 39.31"><title>Asset 470</title><g id="Layer_2" data-name="Layer 2"><g id="Layer_1-2" data-name="Layer 1"><path d="M211.51,18.71A4.08,4.08,0,0,0,210.27,17c-1.6-1.17-3.29-2.21-5-3.27-1.5-1-3-1.83-4.53-2.79-.82-.52-1.53-1.13-1.24-2.3.06-.25-.17-.57-.28-.88a5.69,5.69,0,0,0-3.08-.35A2.74,2.74,0,0,1,194.42,7c-2.58-1.84-5.76-3-7.26-6.14-.42-.88-1.91-1.06-2.82-.58a1.77,1.77,0,0,0-.91,2.12c1.15,3,.61,6.2.71,9.3a25.73,25.73,0,0,1-.48,3.82c-1.77.22-2.19,1.68-2.75,3.15-3.86-.11-7.65.07-11.36-.4-4.58-.6-9.16-.73-13.75-1-2.08-.14-4.18-.08-6.26-.17-4.07-.17-8.12.1-12.2-.13a137,137,0,0,0-18.46.12c-1.24.1-2.5.06-3.77.08a3.82,3.82,0,0,1-.48-.34c-.15-.15-.24-.35-.38-.5-1.42-1.39-2.5-1.5-4.16-.42-.34.23-.66.51-1,.77a4.36,4.36,0,0,1-2.93.84c-4.9,0-9.8-.07-14.7,0-6.27,0-12.54.21-18.81.21-4.59,0-9.19-.25-13.78-.25a5.71,5.71,0,0,1-3.73-1.26c-4.57-3.5-8.69-7.52-13-11.35a2.27,2.27,0,0,1-.79-1.94c0-1.17-.71-1.65-1.72-1.89a2.33,2.33,0,0,0-3,1.55,1.94,1.94,0,0,0,1.1,2.59,3.06,3.06,0,0,0,1.75.43,2.62,2.62,0,0,1,2.25.8c1.85,1.68,3.77,3.31,5.65,5,1.72,1.52,3.44,3,5.15,4.58.35.32.9.62.36,1.45l-12.68-.06a1.47,1.47,0,0,1-.89-.24c-1.73-1.51-4-1.67-6-2.51-3.18-1.33-6.46-2.43-9.68-3.65a5.2,5.2,0,0,1-3-2.06,2.24,2.24,0,0,0-3.09-.52,4.1,4.1,0,0,0-1.63,1.41A5.2,5.2,0,0,1,13.44,12c-3.79,2-7.51,4.11-11.72,5.1a2.89,2.89,0,0,0-.58.22A1.83,1.83,0,0,0,0,19a2.14,2.14,0,0,0,1.25,1.69,1.56,1.56,0,0,0,.91.18c1.29-.29,2.16.49,3.13,1.09,3.3,2,6.59,4.05,9.94,6,1.09.63,2.19,1.05,2.84,2.29a1.9,1.9,0,0,0,2.7.8A3.11,3.11,0,0,0,22.27,30c.72-1.43,2-2,3.27-2.81a36.86,36.86,0,0,0,3.79-2.78,41,41,0,0,1,8.19-5.42c2.58,1,5.27-.07,8,.09s5.54-.43,8.46.24a11.45,11.45,0,0,1-3,3.42c-.67.65-1.34,1.31-2.06,1.9q-4.34,3.6-8.73,7.14a5.18,5.18,0,0,1-1.16.45,3.82,3.82,0,0,0-2.1,2.93,1.35,1.35,0,0,0,1,1.44c1.64.39,4-.5,3.68-2.6a2.42,2.42,0,0,1,1-2.44c1.25-1.1,2.56-2.12,3.85-3.17,1.54-1.25,3.15-2.42,4.62-3.75,1.85-1.68,3.59-3.49,5.61-5.46.71,0,1.64,0,2.58,0l18.49.06c2.2,0,4.4,0,6.59,0,5.43,0,10.86-.1,16.29-.13,2.39,0,4.79-.31,7.08.23l.41.6c1,1.63,1.69,1.91,3.27,1.21a6.61,6.61,0,0,0,1.87-1.14,5,5,0,0,1,3.44-1.24c.94,0,1.88-.21,2.82-.21q6.25,0,12.52.07c4.29,0,8.58.3,12.86.12a151.85,151.85,0,0,1,17.85.5c5.73.44,11.43,1.39,17.19,1.05a3.86,3.86,0,0,1,3.68,1.73c.05,3.1.11,6.12.14,9.15a12.48,12.48,0,0,1-.08,3.12,17.26,17.26,0,0,1-1.33,3.08,3.81,3.81,0,0,0,.43.83,4.57,4.57,0,0,0,.93.83,1.71,1.71,0,0,0,2.65-.61,3.57,3.57,0,0,0,.56-1.12,3.33,3.33,0,0,1,2.13-2.5,27.59,27.59,0,0,0,5.67-3.87c1-.8,2-1.46,3.4-1.09a1.32,1.32,0,0,0,1.69-1.36,2.34,2.34,0,0,1,1.38-2.22c.79-.49,1.46-1.18,2.24-1.7,2.24-1.47,4.17-3.51,7.07-3.81A1.42,1.42,0,0,0,211.51,18.71ZM34.82,18.48l-6.27,4.66c-1.6,1.18-3.2,2.36-4.81,3.52a2.7,2.7,0,0,1-2.34.55,4.5,4.5,0,0,0-2.46-.09,3.39,3.39,0,0,1-3.22-.47C13,25,10.3,23.52,7.61,21.92a26.83,26.83,0,0,1-2.24-1.69c.06-1,.11-2,.17-3.06l1.84-1c2.5-1.28,5-2.52,7.5-3.88a9.65,9.65,0,0,1,3.23-1,12.53,12.53,0,0,1,7.26,1.22c2,.89,4.08,1.61,6.1,2.46,1.53.63,3,1.34,4.87,2.16C35.66,17.76,35.26,18.15,34.82,18.48Zm171.79,1A2.37,2.37,0,0,1,205,21.9a18.75,18.75,0,0,0-4.16,2.72c-1.1.95-2.27,1.77-3.93,1.47-.76-.14-1.32.5-1.47,1.33-.08.4-.2.8-.28,1.13-3.3,2.09-6.1,4.79-9.81,6.48a19.45,19.45,0,0,1-.24-4.6c0-2.08-.06-4.16,0-6.25,0-1.43-.16-2.88.78-4.22a2.91,2.91,0,0,0,.07-2.09c-1.07-4.14-.37-8.28-.12-12.42,0-.54.1-.53,1.57-1.45,1.76,1.17,3.33,2.19,4.86,3.26.68.47,1.57.92,1.86,1.6.71,1.62,2.08,1.89,3.5,2.25a6.23,6.23,0,0,1,1.76.54c2.74,1.7,5.44,3.45,8.16,5.19A8.59,8.59,0,0,0,206.61,19.52Zm-7.45-2.12a2,2,0,0,1,2.25-.3,2.16,2.16,0,0,1,1.49,1.84,1.38,1.38,0,0,1-.54,1,1.88,1.88,0,0,1-2.32.23c-1.9-1.26-3.6-.07-5.32.45a2.37,2.37,0,0,0-1.13,1.41,33,33,0,0,0-1.26,4.47c-.17.87-.27,1.65-1.24,1.94a2.3,2.3,0,0,1-2.52-.81,2.22,2.22,0,0,1-.16-2.93l2.19,0a2.41,2.41,0,0,0,.46-.65c.52-1.46,1.37-2.8,1.4-4.44,0-2.87-1.25-5.16-3-7.3-.32-.4-.82-.73-1-1.18a2,2,0,0,1,.19-1.43,1.24,1.24,0,0,1,1.68-.26,2.13,2.13,0,0,1,1.15,1.75c.13,2.05,1.35,3.69,2.08,5.52S197,19.18,199.16,17.4Zm-177.43,2a4,4,0,0,1-2.52,1.06,1.67,1.67,0,0,1-2-1.49A1.6,1.6,0,0,1,18.38,17c.49-.17,1-.25,1.54-.39a12.47,12.47,0,0,1,1.47.45A1.34,1.34,0,0,1,21.73,19.4Z"/></g></g></svg>