<svg xmlns="http://www.w3.org/2000/svg" viewBox="0 0 90.22 78.72"><defs><style>.cls-1,.cls-2{fill-rule:evenodd;}.cls-2{fill:#c6262f;}.cls-3{fill:#fff;}</style></defs><title>Asset 461</title><g id="Layer_2" data-name="Layer 2"><g id="Layer_1-2" data-name="Layer 1"><path d="M8.71,43.44a4.09,4.09,0,0,0,.74,1.89,5.09,5.09,0,0,1-3.82-.42,4.2,4.2,0,0,1-2.17-3.59,3.93,3.93,0,0,0,2.18-.19,2.55,2.55,0,0,0,.6,1.65,2.4,2.4,0,0,0,3.1.19,1.61,1.61,0,0,0,.53-2.06,1.12,1.12,0,0,0-1.09-.52,1.2,1.2,0,0,0-1,1.32,2,2,0,0,1,2-3A2.61,2.61,0,0,1,11.92,40a3.78,3.78,0,0,1-.65,4.17,2.94,2.94,0,0,1-.58-1.05Zm5.77-2.07h-.21A1.71,1.71,0,0,0,12.87,44a1,1,0,0,1,.84-1.13.94.94,0,0,1,1,.54,1.2,1.2,0,0,1-.26,1.28,1.82,1.82,0,0,1-2,.39,2.64,2.64,0,0,1-1.16-.85,4.17,4.17,0,0,1-1,.84,5.32,5.32,0,0,1-.79.29,4.43,4.43,0,0,0,5.17,1.61,3.32,3.32,0,0,0,2.09-2.89,2.82,2.82,0,0,0-.17-1.17A3.21,3.21,0,0,1,15,42.07,3.07,3.07,0,0,1,14.48,41.37ZM55.09,25a1.83,1.83,0,0,1-.61,2.23,1.37,1.37,0,0,1-2-.62A1.31,1.31,0,0,1,53,25.09,1.56,1.56,0,0,0,52,27.64a2.9,2.9,0,0,0,3.48.43c1.59-.81,1.76-2.83,1.2-4.26-.77-2-3.13-2.76-5.22-2.31a5.82,5.82,0,0,1,.31,2.14A2.69,2.69,0,0,1,55.09,25ZM5.75,33.39l-1-.59a5.31,5.31,0,0,0,.39,1.43l.27,0Zm39,25.42A8.78,8.78,0,0,1,38.58,62a24.85,24.85,0,0,1-.71-3A6.2,6.2,0,0,0,41,57.64a8,8,0,0,0-3.3-.47,13.28,13.28,0,0,1,.46-4,9.18,9.18,0,0,1,6.48,1.64A11.86,11.86,0,0,0,50,51.77a6.65,6.65,0,0,1-2.17-.54h0c.87.07,1.4-.29,1.45-.78a6.37,6.37,0,0,0,1.88.46c5.71-10.65-2.57-18.24-10.6-16.64A5.5,5.5,0,0,0,40.25,36a1.28,1.28,0,0,0-.74,1c-.64-4,2.77-7.15,1.67-11.25,1.38,3.06,7.08,4.42,9.79,1.71.71,2.28,5,2.95,6.23.11.26,1.49,2.78,2,4,1.15-1.07,3.76,3.86,6.8,7.65,3.51C75.68,41.35,70.05,60.58,44.72,58.81ZM67.8,35.43c.57,1.17,1.32,2.08,1.22,3.74a5.77,5.77,0,0,0,.07-4.34C68.48,33.62,67.24,34.29,67.8,35.43Zm-3.15,8.25a7.68,7.68,0,0,0,2.4-5.2c-.09-1.78-1.94-1.63-1.88,0S65.65,41.73,64.65,43.68Zm-1.85,2c-.61,1.61-.81,3.16-2.49,4.56a7.65,7.65,0,0,0,4.23-3.85C65.16,44.69,63.39,44.11,62.8,45.66Zm-.1-9.82c.58,1.17,1.33,2.08,1.23,3.74A5.87,5.87,0,0,0,64,35.24C63.39,34,62.15,34.71,62.7,35.84Zm-2.15,4.5c.42,1.67,1.14,3,.55,5.16a7.69,7.69,0,0,0,1.29-5.57C61.94,38.21,60.15,38.73,60.55,40.34Zm-1.62-4.53a2.24,2.24,0,0,1-1.2-.34,2.3,2.3,0,0,0,4.18-1.33,2.33,2.33,0,0,0-1.11-2,2.3,2.3,0,0,1-1.87,3.64Zm.8,10.67c.65-1.65-1.09-2.29-1.72-.75s-.9,3.13-2.61,4.48A7.7,7.7,0,0,0,59.73,46.48Zm-2,4.19c-1.15,1.18-1.92,2.43-3.9,3.12a8.09,8.09,0,0,0,5.11-2C60.13,50.53,58.85,49.53,57.74,50.67Zm-1-8.15A1.8,1.8,0,0,1,55,44.31a1.76,1.76,0,0,1-.93-.26,1.8,1.8,0,1,0,2.4-2.57A1.84,1.84,0,0,1,56.77,42.52ZM60,39a1.81,1.81,0,0,0-.87-1.54,1.82,1.82,0,0,1,.34,1,1.8,1.8,0,0,1-1.8,1.8,1.83,1.83,0,0,1-.93-.26A1.8,1.8,0,0,0,60,39Zm-5.73-6.13a2.3,2.3,0,0,0,4.17-1.33,2.32,2.32,0,0,0-1.1-2,2.37,2.37,0,0,1,.42,1.34,2.3,2.3,0,0,1-2.3,2.3A2.23,2.23,0,0,1,54.25,32.87ZM48,31.7a2.33,2.33,0,0,0-1.11-2A2.3,2.3,0,0,1,45,33.37a2.24,2.24,0,0,1-1.2-.34A2.3,2.3,0,0,0,48,31.7Zm2.9,3.1a2.3,2.3,0,0,0,1.19-4.27,2.24,2.24,0,0,1,.42,1.33,2.3,2.3,0,0,1-3.49,2A2.32,2.32,0,0,0,50.92,34.8Zm3,4.13a2.3,2.3,0,0,0,1.19-4.27,2.3,2.3,0,0,1-1.88,3.63A2.31,2.31,0,0,1,52.08,38,2.29,2.29,0,0,0,54,38.93ZM50.2,53.7a5.82,5.82,0,0,0,4.1-1.48c.91-1-.16-1.92-1-1S51.79,53.21,50.2,53.7Zm-.91,1.22A9.64,9.64,0,0,1,45,56.69a7.74,7.74,0,0,0,4.87-.48C51.11,55.45,50.46,54.22,49.29,54.92Zm5.37.06c-1.18.88-2,1.91-3.89,2.15a6.56,6.56,0,0,0,4.82-.84C56.8,55.37,55.8,54.13,54.66,55Zm6.27-1.71c-1,.88-1.72,1.87-3.38,2.21a6,6,0,0,0,4.32-1.09C62.9,53.47,61.91,52.42,60.93,53.27Zm4.89-4.72c-.9,1.27-1.42,2.58-3.2,3.43a6.86,6.86,0,0,0,4.56-2.43C68.1,48.23,66.68,47.32,65.82,48.55Zm3.58-6.17c.2-1.82-1.71-2-1.91-.27s0,3.35-1.34,5.16A7.85,7.85,0,0,0,69.4,42.38ZM50.29,14.45a2.16,2.16,0,0,1,2,1.2,1.31,1.31,0,0,1-.14,1.4,1.16,1.16,0,0,1-1.74.05,1.13,1.13,0,0,1,0-1.37A1.16,1.16,0,0,0,50,17.56a2.27,2.27,0,0,0,2.93.3,2.57,2.57,0,0,0,.45-3.18,3.09,3.09,0,0,0-.79-.86,6.8,6.8,0,0,0-4,1A3.44,3.44,0,0,1,50.29,14.45Zm-1.82,6.87c1.12,1.55.77,4.17-1.32,4.82a2.45,2.45,0,0,1-2.78-.76,1.49,1.49,0,0,1,.83-2.27,1.76,1.76,0,0,1,1.93.63c-.12-1.46-2-1.89-3.17-1.14s-1.31,2.67-.64,3.92c1,1.83,3.5,2.08,5.31,1.49a4.71,4.71,0,0,0,3.17-4.37,3.06,3.06,0,0,0-1,.42V21.68a5.09,5.09,0,0,1,.67-.18A5.65,5.65,0,0,0,51,20.36a5.09,5.09,0,0,0-2.8-2.05A3.62,3.62,0,0,1,47,20.2,3.78,3.78,0,0,1,48.47,21.32ZM37.82,27.94c1.32-5.41.13-9.3-1.75-12.16a6.63,6.63,0,0,1-1.65,3C37.63,20.21,38.25,23.66,37.82,27.94ZM27.51,33.7c1.58.36,3.63.11,4.51-1.47a1.05,1.05,0,0,0-1.42-1.5A1.13,1.13,0,0,0,29,29.16a1.18,1.18,0,0,0-1.93-1.29,1.09,1.09,0,0,0-1.34-1.61,8.65,8.65,0,0,1-2.66,3.44C23.57,31.92,25.72,33.29,27.51,33.7Zm6.42-5.57c0,2,2.31,2.11,2.3-.08s-1.64-4.73-3.26-6.2C34.32,24.16,33.9,26,33.93,28.13Zm6,15.9a12.06,12.06,0,0,1-1.59-4.47c-.15,3.27-7.92,4-8.62.85-.64-2.93-1.83-3.58-3.52-4.18S22.3,35,20.93,31.52a9.74,9.74,0,0,1-3,.93,3.51,3.51,0,0,1,.4,4c4.71.21,4.55,8.07-.69,7.67-.23,2.3-1.83,4-5.52,3.72,8.4.66,9.57,3,14.36,4.46-2-4.84,4.87-11.08,15.05-5.71l0-.07A2.14,2.14,0,0,1,39.92,44ZM42.18,8.09c1.5-.74,4.18-1.07,5.32.55a2.11,2.11,0,0,1-.34,2.9,1.28,1.28,0,0,1-2-.52,1.5,1.5,0,0,1,.38-1.69c-1.22.22-1.44,1.87-.71,2.77a2.16,2.16,0,0,0,.43.37,6.57,6.57,0,0,0-4.48-.22A4.22,4.22,0,0,0,38,15.3a18.05,18.05,0,0,1,1.14,2.44l.07.09a3.12,3.12,0,0,1,3.15-3.22A3.57,3.57,0,0,1,46.17,17c.33,1.28-.26,3.06-1.91,2.83A1.41,1.41,0,0,1,43,18.31a1.77,1.77,0,0,1,1.16-1.67A2,2,0,0,0,42.28,19c.23,2.15,2.78,2.46,4.26,1.56A2.64,2.64,0,0,0,47,20.2,3.84,3.84,0,0,0,46.6,20l.85-1.91c.24.05.47.13.7.2A5.06,5.06,0,0,0,48,15.38c-.12.1-.25.18-.36.29l-1.16-2.34.09-.05a5.65,5.65,0,0,0-.61-.45,2,2,0,0,0,.38.14,2.36,2.36,0,0,0,.88,0c.43-.22.86-.41,1.26-.58A3.73,3.73,0,0,0,49.84,10a4,4,0,0,0-.28-2.05,4.33,4.33,0,0,0-.79.65l-.92-2a3.91,3.91,0,0,1,.44-.37C48.19,6.13,48.11,6,48,6,45.68,4.36,42.26,4.8,40,6.4a8.68,8.68,0,0,0-3.29,6.89,17.45,17.45,0,0,1,1.24,1.88C38.2,10.48,40.31,9,42.18,8.09Zm8.68-.78a2.8,2.8,0,0,1,3,1,2.12,2.12,0,0,1-.34,2.89,1.27,1.27,0,0,1-2-.52A1.49,1.49,0,0,1,51.92,9c-1.2.22-1.42,1.8-.76,2.71a6.74,6.74,0,0,1,1-.09,7.74,7.74,0,0,1,2.7.43,3.83,3.83,0,0,0,1.33-2.21,3.62,3.62,0,0,0-.82.56V7.94A5.25,5.25,0,0,1,56,7.63a4.47,4.47,0,0,0-4.76-2.72,6.39,6.39,0,0,0-2.93,1.3,4.19,4.19,0,0,1,1.27,1.72A4.64,4.64,0,0,1,50.86,7.31Zm-12,19.45c-.39,1.87-1.16,3.52-1.44,5.26a4.86,4.86,0,0,0-4.1.45c-.61.48-.24,1.26.57,1a4,4,0,0,1,3.49.6v.12c.12,1.78-.38,2-1.24,3.21A2.49,2.49,0,0,0,36,39.85c-.37.63-3.25,1.27-3.36-.33-.23-3.56-2.33-4.29-5.13-5.12-2.15-.64-4.33-1.56-5.1-4.8a10.91,10.91,0,0,1-1.22.77c1.93,4.1,4.54,4.66,6.59,5.25,1.71.48,2.68,1,3,3.64.38,3.3,5.74,2,6.91.15.93-1.47.37-3.79.46-5.44.17-3,1-4.49,1.67-6.69a14.81,14.81,0,0,0-.69-9.54L37.8,16a4,4,0,0,1,.16-.7l-.06-.13c0,.13,0,.23,0,.36l-1.12-1.2a7.17,7.17,0,0,1-.08-1c-.22-.29-.47-.54-.7-.81a9.89,9.89,0,0,1-.13,2A15.85,15.85,0,0,1,38.87,26.76Zm9.6,23.36-.66,1.11a3.29,3.29,0,0,1-.63-.12A10.58,10.58,0,0,1,42,46.73a3.66,3.66,0,0,1-.46-.18l-.82-1.5a7.72,7.72,0,0,1-.76-1,2.26,2.26,0,0,1,.35-1l.24-.29a9.78,9.78,0,0,1-1-5.77l.78,0a5.62,5.62,0,0,1,0-.92c.48-.19,1,0,1.26.76.24-2.3,3.71-2.09,3.91.54a1.39,1.39,0,0,1,2.52,1.18c1.6-1.37,4.56.8,3.06,3.06,1.22.16,1.59,1.35.36,2.4a2,2,0,0,1-.9,3.5,1.39,1.39,0,0,1-1.35,2.42,1,1,0,0,1,.15.59A5.78,5.78,0,0,1,48.47,50.12Zm0-6.34a5.75,5.75,0,0,0-3.76.6,1.51,1.51,0,0,1,0,.3,9.29,9.29,0,0,1,3.44.6C49.45,45.6,49.87,44.14,48.46,43.78Zm-1.12-2.22a8.44,8.44,0,0,1-2.75,2.13.65.65,0,0,0,0,.13,5.42,5.42,0,0,0,3.44-1.25C49.06,41.64,48.26,40.71,47.34,41.56Zm-2.9,1.77a1.42,1.42,0,0,1,.08.18c.93-1.34,2.13-1.72,3.31-2.4s.5-2.14-.84-1.39A6.37,6.37,0,0,0,44.44,43.33ZM42.78,42a2,2,0,0,1,.39.13,9.7,9.7,0,0,1,.32-3.67c.23-1.42-1.35-1.74-1.6-.22A6,6,0,0,0,42.78,42ZM43,43.49a1.33,1.33,0,1,0,.39,1.87A1.34,1.34,0,0,0,43,43.49Zm.72-1a5.34,5.34,0,0,0,1.05-3.26c-.1-1.35-1.32-1.32-1.25-.06a9.69,9.69,0,0,1,0,3.18l.07,0Zm3.23,5a3.4,3.4,0,0,1-2.66-1.61,1.56,1.56,0,0,1-.41.56,5.22,5.22,0,0,0,2.68,2.14C47.64,48.86,47.88,47.7,47,47.47Zm.71-2.1a6.58,6.58,0,0,1-3-.49l0,.13a4.82,4.82,0,0,0,2.94,1.58C48.73,46.65,48.75,45.44,47.67,45.37ZM4.53,24.63a2.91,2.91,0,0,0-.31,0,17.67,17.67,0,0,1-1.86-8C2.47,6.72,11-.31,20.43,0c5.28.18,11.11,2.21,13.83,6.72A12,12,0,0,1,36,12.48a9.83,9.83,0,0,0-.67-.76v2c.2.21.36.45.54.68a8.17,8.17,0,0,1-1,2.76c-2.25,3.91-8.54,3.33-8.93-1.2a2.49,2.49,0,0,1-4.14-2.16c.13-2.23,1.26-4.2-2.89-7.38a8.48,8.48,0,0,1,3.29,2.8c.66,1,.49,2.46.68,3.58.41,2.47,3.44,2.36,3.89-.13.6-3.3-1.64-5.62-5.46-6.71-1.33-.38-2.72-.67-4-1.11-1.94,6.6,0,10.45,2.64,11.31.68.21.6.86-.13.75-2.81-.43-4.81-3.44-4.23-8.17A10,10,0,0,0,9.8,15.36a8.77,8.77,0,0,0,1.14,7.76,7.34,7.34,0,0,0,9.41,1.93A5.68,5.68,0,0,0,22,17c4.69,1.84,4.74,6.74,2.86,9.93a9.13,9.13,0,0,1-2.43,2.66c0-.19-.1-.36-.13-.56L21,29.93c.07.16.15.28.22.44C16.25,33,9.05,31.55,5.59,26.92c0-.07-.08-.15-.13-.22h.22l-.91-2.07ZM9,12.1c.06-1.17-1.24-1.28-1.31,0A5.37,5.37,0,0,0,9.3,15.72C8.62,14.35,8.92,13.3,9,12.1ZM6.5,14.88a5.37,5.37,0,0,0,2.09,3.41c-.86-1.27-.69-2.35-.78-3.55S6.41,13.63,6.5,14.88ZM6,18.45a5.38,5.38,0,0,0,3.25,2.34c-1.28-.84-1.54-1.9-2.09-3S5.48,17.33,6,18.45Zm1.35,9C6.77,26,7.11,25,7.22,23.84s-1.16-1.31-1.29-.09A5.3,5.3,0,0,0,7.38,27.4Zm3.12,2.21c-1-1.07-1-2.11-1.26-3.23S7.76,25.53,8,26.7A5.12,5.12,0,0,0,10.5,29.61Zm3.88,1.19C13,30.2,12.64,29.23,12,28.3s-1.69-.21-1,.77A5.12,5.12,0,0,0,14.38,30.8Zm4.3-.52c-1.57,0-2.4-.75-3.48-1.35s-1.75.56-.64,1.2A5.54,5.54,0,0,0,18.68,30.28Zm3.15-1.47a5,5,0,0,1-3-.12c-.95-.17-1.18.88-.17,1.07A4.4,4.4,0,0,0,21.83,28.81Zm2-4.12a4.43,4.43,0,0,0,.17-3.3,5.14,5.14,0,0,1-1.12,2.78C22.37,25,23.28,25.58,23.8,24.69Zm-.62,2.7a4.43,4.43,0,0,0,1.61-2.89c-.56,1.13-1.41,1.44-2.23,2S22.32,28,23.18,27.39Zm-1.73.15a4.24,4.24,0,0,0,.51-3.1A4.79,4.79,0,0,1,20.6,27C20.06,27.69,20.85,28.33,21.45,27.54Zm-3.88,0c-1,.44-.52,1.54.52,1.08a4.94,4.94,0,0,0,2.26-2.85A5.65,5.65,0,0,1,17.57,27.52Zm-3.22-.31c-1,.11-1,1.28.15,1.18a4.81,4.81,0,0,0,3-1.95A5.48,5.48,0,0,1,14.35,27.21Zm-3.21-1.06c-1-.2-1.3,1-.19,1.17a4.84,4.84,0,0,0,3.47-1A5.63,5.63,0,0,1,11.14,26.15Zm-2-2.33c-.88-.59-1.57.37-.64,1a4.87,4.87,0,0,0,3.59.41A5.64,5.64,0,0,1,9.18,23.82Zm-1.8-2.91c-.86-.79-1.78.14-.87,1A5.38,5.38,0,0,0,10.37,23C8.88,22.62,8.26,21.72,7.38,20.91ZM9.49,9.36a5.4,5.4,0,0,0,.69,3.94c-.33-1.49.23-2.43.58-3.58S9.87,8.17,9.49,9.36Zm2.74-3a5.36,5.36,0,0,0-.36,4c.07-1.53.85-2.3,1.49-3.32S12.9,5.33,12.23,6.38ZM15.3,5.12A5.38,5.38,0,0,0,14,8.91c.43-1.47,1.38-2,2.24-2.86S16.21,4.27,15.3,5.12Zm3.4-2a5.36,5.36,0,0,0-3.62,1.71c1.35-.71,2.41-.43,3.61-.4S19.94,3.15,18.7,3.1Zm4.64,1.72c1.16.08,1.31-1.21.07-1.32A5.42,5.42,0,0,0,19.71,5C21.1,4.39,22.14,4.73,23.34,4.82Zm3.58,1.75c1.11.38,1.58-.84.4-1.25a5.33,5.33,0,0,0-4,.57C24.86,5.61,25.79,6.19,26.92,6.57Zm3.42,10.1a6.74,6.74,0,0,0-3.13-3.92c1.26,1.45,1.22,2.82,1.52,4.29S30.63,18.21,30.34,16.67ZM30.81,13a6.23,6.23,0,0,0-3.5-3.11c1.39,1.12,1.57,2.39,2.08,3.7S31.33,14.32,30.81,13Zm.38,3.38c-.4,1.68,1.37,2.05,1.76.48s.43-3.13,1.89-4.67A7.49,7.49,0,0,0,31.19,16.34Zm-.1-4.26c-.25,1.47,1.3,1.69,1.55.32S32.83,9.67,34,8.26A6.47,6.47,0,0,0,31.09,12.08Zm-.53-7.5c.65,1.56.24,2.71.08,4s1.28,1.51,1.46.14A6,6,0,0,0,30.56,4.58ZM30,8.41a6.3,6.3,0,0,0-4.54-1.12C27.22,7.65,28,8.68,29,9.6S31.11,9.38,30,8.41ZM26.78,2.68c1.31,1.07,1.48,2.26,2,3.5s1.83.72,1.34-.57A6,6,0,0,0,26.78,2.68Zm-4.55-1.6c1.54.71,2,1.83,2.77,2.9s1.95.25,1.16-.88A6,6,0,0,0,22.23,1.08Zm-5.89.15c1.68.1,2.52,1,3.63,1.7s1.91-.48.76-1.24A6,6,0,0,0,16.34,1.23Zm-4.9,2.61c1.52-.73,2.68-.37,4-.27s1.44-1.34.07-1.45A5.9,5.9,0,0,0,11.44,3.84ZM8.4,5.7c1.52-.72,2.68-.36,4-.27S13.84,4.1,12.47,4A6,6,0,0,0,8.4,5.7ZM6,8.62c1.36-1,2.56-.86,3.88-1S11.07,6,9.7,6.17A5.92,5.92,0,0,0,6,8.62ZM4.31,12c1.1-1.29,2.3-1.43,3.54-1.88s.77-1.81-.53-1.36A5.94,5.94,0,0,0,4.31,12ZM3.7,15.75c.73-1.52,1.86-2,2.94-2.72s.28-1.95-.86-1.18A6,6,0,0,0,3.7,15.75Zm2,.38c.72-.89-.24-1.74-1-.8a5.33,5.33,0,0,0-.83,3.85C4.12,17.7,5,17,5.72,16.13Zm-.46,7.3c-.34-1.46.2-2.4.53-3.53s-.88-1.51-1.24-.34A5.27,5.27,0,0,0,5.26,23.43Zm51-13.82c0,.06,0,.12,0,.18a4.28,4.28,0,0,1,2.32-.43,2.8,2.8,0,0,1,2.48,2,2.11,2.11,0,0,1-1.33,2.59A1.28,1.28,0,0,1,58,12.73a1.49,1.49,0,0,1,.94-1.45c-1.11-.2-1.85,1-1.69,2.05A5.63,5.63,0,0,1,58.54,15a2.58,2.58,0,0,0,1.32.26,5.1,5.1,0,0,1,1.9-.8,3.84,3.84,0,0,0,.94-1.11,4.33,4.33,0,0,0-3-6.15A6.35,6.35,0,0,0,56,7.63,3.86,3.86,0,0,1,56.21,9.61Zm-21,45.91a22.27,22.27,0,0,1-.07,3.06c-2.67.41-5.38-.78-7.44-1.68-2.63-1.15-5.11-.22-7.54.63-4.3,1.51-9.4,2.31-13.6.15-4.78-2.44-4.1-7.09.3-8.66,3.58-1.28,7.93-.17,11.42.85,3.14.92,6.09,3.16,9.39,3.34a8.52,8.52,0,0,1,6-3.31A13,13,0,0,1,35,53.67a13.18,13.18,0,0,0-2.84,1.17A5.24,5.24,0,0,0,35.25,55.52ZM16,52a5.07,5.07,0,0,0,3.74-.34,5.81,5.81,0,0,1-3.31-.82C15.45,50.41,15,51.53,16,52Zm-4,.8c-1.33-.34-1.82,1-.4,1.35a7,7,0,0,0,4.66-.8C14.52,53.7,13.39,53.13,12,52.78Zm-1.65-2a5.08,5.08,0,0,0,3.72.57,5.82,5.82,0,0,1-3-1.59C10.19,49.17,9.44,50.13,10.38,50.83Zm-4,1.57a6,6,0,0,0,4.31-.18C9.3,52.49,8,51.6,7,51.15,5.73,50.6,5.28,52,6.37,52.4Zm4.08,2.67a7.08,7.08,0,0,1-3.64-.84c-1-.4-1.51.72-.43,1.16A6,6,0,0,0,10.45,55.07Zm4,1.53A5.56,5.56,0,0,1,11,56.11c-1.28-.4-1.44.86-.32,1.2A5,5,0,0,0,14.4,56.6Zm5-1.39A5.75,5.75,0,0,1,16,55c-1.07-.23-1.37,1-.23,1.21A5,5,0,0,0,19.43,55.21Zm5.5-1.49c-1.77.38-2.89-.19-4.26-.55s-1.81,1-.4,1.35A7,7,0,0,0,24.93,53.72ZM3.43,40.88l2.16-.22a3.56,3.56,0,0,0,0,.47,2.66,2.66,0,0,0,1-.73,2.87,2.87,0,0,0,.66-2.51,2.07,2.07,0,0,0-1.81-1.62,1.64,1.64,0,0,0-1.85,1.62,1.14,1.14,0,0,1,1.14-.54,1,1,0,0,1,.47,1.59,1.76,1.76,0,0,1-1.9.18,2.45,2.45,0,0,1-.91-3.66,2.82,2.82,0,0,1,2.83-.9v0c0-.1-.09-.2-.14-.31A4.85,4.85,0,0,1,2,33.35l-.16-.16a4.73,4.73,0,0,0-.15,7.38,4,4,0,0,0,1.76.75A3.37,3.37,0,0,1,3.43,40.88Zm1.88-6.34a4.82,4.82,0,0,0,.91,1.3,4.72,4.72,0,0,0,5.25,1s-.08,0-.11-.07l.32-2.67,1-.13a1.4,1.4,0,0,0,.32,1,2.81,2.81,0,0,0-.82-3.19c-1.23-.9-3.23-.51-3.22,1.31a1.22,1.22,0,0,1,1.66-.33,1.12,1.12,0,0,1,.07,1.81,2,2,0,0,1-2.24-.09,2.42,2.42,0,0,1-.89-1.19,3.2,3.2,0,0,1-2.08,1Zm6.16,2.26a4.51,4.51,0,0,0,3.22.93,2.87,2.87,0,0,1,.4-.46l.93.12,0,0a3,3,0,0,0,1.69-3.62,2.14,2.14,0,0,0-2.17-1.54A1.63,1.63,0,0,0,13.79,34a1.17,1.17,0,0,1,1.34-.59,1.12,1.12,0,0,1,.4,2A2,2,0,0,1,13,34.88a3.63,3.63,0,0,1-.68,1.29A2.73,2.73,0,0,1,11.47,36.8ZM4.26,32.48l.52.32a.19.19,0,0,0,0-.08H7.33a4.14,4.14,0,0,0,.19.49s0,0,0,0c1-1.22,1.15-3.36-.44-4.18-1.12-.58-2.94-.13-3,1.48A1.12,1.12,0,0,1,5.59,30a1,1,0,0,1,.27,1.63,1.85,1.85,0,0,1-2,.18,2.59,2.59,0,0,1-1.4-2.59,2.8,2.8,0,0,1,3-2.49,15.5,15.5,0,0,1-1.24-2,4.61,4.61,0,0,0-4,4.76,5,5,0,0,0,1.67,3.76A3.78,3.78,0,0,1,4,32.47Zm58.9-6.57a3.54,3.54,0,0,1,3.07.81,2.7,2.7,0,0,1,0,3.77,2.11,2.11,0,0,1-2,.55,1.36,1.36,0,0,1-.91-2A1.62,1.62,0,0,1,65,28.22c-1-.87-2.53.07-2.79,1.27a2.69,2.69,0,0,0,.29,1.83c.94,1.71,3.3,1.83,4.84.9a4.62,4.62,0,0,0,.55-7.31,5.4,5.4,0,0,0-4.6-1A4.25,4.25,0,0,1,63.16,25.91ZM59,16.19c0,.14.1.27.13.42A5.34,5.34,0,0,1,59,19.13v0a4.15,4.15,0,0,1,4.33-2.44A3,3,0,0,1,66,18.82a2.27,2.27,0,0,1-1.42,2.77,1.36,1.36,0,0,1-1.8-1.26,1.6,1.6,0,0,1,1-1.55c-1.31-.24-2.14,1.34-1.75,2.51a2,2,0,0,0,.18.32,5,5,0,0,0-2.27-1.38l-1.34-.17a3.9,3.9,0,0,1-1.8,1.61c-.12,0-.25.08-.38.12h0A4.68,4.68,0,0,1,60.75,23a2.76,2.76,0,0,1,.07,3.57,2,2,0,0,1-2,.47A1.42,1.42,0,1,1,60,24.46a1.63,1.63,0,0,0-2.47.28,2.31,2.31,0,0,0-.22,2.08,2.68,2.68,0,0,0,3.23,1.52,3.61,3.61,0,0,0,2.63-2.43,1.89,1.89,0,0,0-.86.39l.07-2.18a4.81,4.81,0,0,1,.94-.25,4.4,4.4,0,0,0-.46-1.38l-.1-.15a2.67,2.67,0,0,0,.44.38c1.68,1,3.77-.1,4.63-1.69a4.62,4.62,0,0,0-3.24-6.57,7.08,7.08,0,0,0-2.82,0,3.43,3.43,0,0,1-1.9.8A3.55,3.55,0,0,0,59,16.19ZM14.69,37.73a3.2,3.2,0,0,0-.21,3.64,2.23,2.23,0,0,1,2.06,1.51A3.24,3.24,0,0,0,20,41.62a2.63,2.63,0,0,0-1-3.87c-1.12-.41-2.67-.08-2.47,1.72a1.15,1.15,0,0,1,2-.29,1.18,1.18,0,0,1-.4,1.56,1.84,1.84,0,0,1-2.39-.62,2.49,2.49,0,0,1,.22-2.7,2.17,2.17,0,0,1-.42.17A4.35,4.35,0,0,1,14.69,37.73Zm43.9-17.67a4.25,4.25,0,0,0,.41-.93l-.15-2.78c0-.06.09-.1.13-.16A5.84,5.84,0,0,0,58.54,15a1.42,1.42,0,0,1-.18-.08,2.44,2.44,0,0,1-1.09-1.33,1.07,1.07,0,0,1-.06-.3A7,7,0,0,0,54.84,12a2.6,2.6,0,0,1-2.14.6,2.51,2.51,0,0,1-1.5-.87.25.25,0,0,0,0-.07,11.51,11.51,0,0,0-2.69.72,2.75,2.75,0,0,1-1.26.58c-.22.11-.43.2-.65.32a4.8,4.8,0,0,1,1,1.09,5.13,5.13,0,0,1,.46,1,6.22,6.22,0,0,1,.64-.51,2.75,2.75,0,0,0-.64.46l1.65-2.42a4.73,4.73,0,0,1,3,.91h.22a4.88,4.88,0,0,1,4.33,2.74,3,3,0,0,1-.38,3.07,1.7,1.7,0,0,1-1.71.54,1.42,1.42,0,0,1,.65-2.75,1.67,1.67,0,0,0-2.09-.1,2.38,2.38,0,0,0-.74,2.87,3,3,0,0,0,3.52,1.6L58.08,20Z"/><path class="cls-1" d="M79.25,62.26c-.09-2.23.12-6.25.2-9.78-2.35.13-4.77.35-7.17.59A3.4,3.4,0,0,1,71,53a6.42,6.42,0,0,1-1.76-.73c-.53-.38.08-.49.36-.48.8,0,1.57.07,2.38,0,2.17,0,4.82-.21,7.48-.48,0-.9,0-1.74,0-2.5a14.32,14.32,0,0,1-5.11-.39c-.39-.15.27-.65.41-.65a25.2,25.2,0,0,0,4.65-.14c0-.33,0-.63-.08-.9A3.24,3.24,0,0,0,78.68,45,19.37,19.37,0,0,1,74,45c-.56-.11-.52-.63,0-.65A44.07,44.07,0,0,0,84.39,42.8c.67-.2,3.2,1.32,1.56,1.43-1,.07-3,.36-5.24.59A1.16,1.16,0,0,1,81,45c.33.33.17.9.12,1.56,0,.28,0,.56,0,.83a13.27,13.27,0,0,0,2.49-.85c.54-.26,2.22,1.42.91,1.74a28.39,28.39,0,0,1-3.48.48c0,.82-.07,1.65-.11,2.46,2.24-.25,4.43-.56,6.28-.9,3.1-.57,4.29,2.65,1.68,2.3a46.48,46.48,0,0,0-8-.23c-.2,3.9-.49,7.53-1.52,9.85Zm-1-21.17c-.19-1-1.87-1.75-3.54-1.82-.26,0-.34.25-.2.6a8.49,8.49,0,0,0,1.9,2.27c1.16.91,2,0,1.84-1Zm2.28.79c1.29-1.11,2.5-1.89,2.5-3.65,0-.33.38-.52.7-.51.65,0,2.34.92,2.4,1.67,0,.33-.49.52-1,.72-1.18.52-3.07,1.69-4.33,2.37-.44.23-.7-.25-.3-.6Z"/><path class="cls-2" d="M14.19,66H51.45a6.4,6.4,0,0,1,6.38,6.38h0a6.4,6.4,0,0,1-6.38,6.37H14.19a6.39,6.39,0,0,1-6.37-6.37h0A6.4,6.4,0,0,1,14.19,66Z"/><path class="cls-3" d="M29.27,70.59v3a3.25,3.25,0,0,1-.11.88,1.46,1.46,0,0,1-.35.61,1.6,1.6,0,0,1-.64.36,3.33,3.33,0,0,1-1,.12,2.85,2.85,0,0,1-1-.15A1.66,1.66,0,0,1,25.6,75a.7.7,0,0,1-.23-.48.39.39,0,0,1,.13-.31.45.45,0,0,1,.31-.12.54.54,0,0,1,.4.2l.17.21a.82.82,0,0,0,.2.17.62.62,0,0,0,.26.11,1.18,1.18,0,0,0,.34,0,1.43,1.43,0,0,0,.62-.11.62.62,0,0,0,.31-.31,1.3,1.3,0,0,0,.11-.43c0-.16,0-.4,0-.74a1.77,1.77,0,0,1-.55.51,1.56,1.56,0,0,1-.74.17,1.62,1.62,0,0,1-.91-.26,1.74,1.74,0,0,1-.59-.74A3,3,0,0,1,25.36,71a1.92,1.92,0,0,1,.37-.64,1.36,1.36,0,0,1,.54-.38,1.84,1.84,0,0,1,1.43,0,2.08,2.08,0,0,1,.6.53V70.4a.6.6,0,0,1,.13-.42.46.46,0,0,1,.34-.14.41.41,0,0,1,.4.19,1.37,1.37,0,0,1,.1.56Zm-3,1.31a1.44,1.44,0,0,0,.28.95.87.87,0,0,0,.71.32.91.91,0,0,0,.48-.13,1.11,1.11,0,0,0,.38-.42,1.55,1.55,0,0,0,.14-.68A1.52,1.52,0,0,0,28,71a.89.89,0,0,0-.73-.35.86.86,0,0,0-.71.34,1.47,1.47,0,0,0-.27,1Zm7.71,0a2.37,2.37,0,0,1-.14.85,1.86,1.86,0,0,1-1.07,1.1,2.46,2.46,0,0,1-1.69,0,2,2,0,0,1-.65-.44,2.06,2.06,0,0,1-.42-.66,2.57,2.57,0,0,1-.14-.85,2.35,2.35,0,0,1,.15-.86A1.76,1.76,0,0,1,31.08,70a2.46,2.46,0,0,1,1.69,0,1.76,1.76,0,0,1,.66.43,1.84,1.84,0,0,1,.41.67,2.3,2.3,0,0,1,.14.85Zm-1,0a1.62,1.62,0,0,0-.28-1,.92.92,0,0,0-.75-.35.88.88,0,0,0-.53.16,1.06,1.06,0,0,0-.36.46,2,2,0,0,0-.12.72,1.86,1.86,0,0,0,.12.7,1,1,0,0,0,.35.47.93.93,0,0,0,.54.16.9.9,0,0,0,.75-.36,1.55,1.55,0,0,0,.28-1Zm4.46,1.51a3,3,0,0,1-.73.44,1.94,1.94,0,0,1-.78.15,1.54,1.54,0,0,1-.7-.16,1.13,1.13,0,0,1-.46-.43,1.09,1.09,0,0,1-.17-.58,1,1,0,0,1,.27-.72,1.37,1.37,0,0,1,.74-.4l.49-.1.67-.15.6-.16a1.13,1.13,0,0,0-.16-.6.74.74,0,0,0-.61-.19,1.29,1.29,0,0,0-.59.11.89.89,0,0,0-.34.33l-.2.29a.37.37,0,0,1-.25.07.44.44,0,0,1-.3-.11.36.36,0,0,1-.13-.29.86.86,0,0,1,.19-.53,1.4,1.4,0,0,1,.6-.42,2.75,2.75,0,0,1,1-.17,2.8,2.8,0,0,1,1.07.16,1,1,0,0,1,.55.51,2.17,2.17,0,0,1,.16.92V72c0,.17,0,.36,0,.56a2.22,2.22,0,0,0,.1.61,1.68,1.68,0,0,1,.1.41.4.4,0,0,1-.15.29.53.53,0,0,1-.34.13.43.43,0,0,1-.31-.15,1.86,1.86,0,0,1-.33-.44ZM37.34,72a5.61,5.61,0,0,1-.66.18l-.6.13a.9.9,0,0,0-.32.17.45.45,0,0,0-.15.36.53.53,0,0,0,.18.4.65.65,0,0,0,.46.16,1.33,1.33,0,0,0,.57-.13.93.93,0,0,0,.38-.35,1.62,1.62,0,0,0,.14-.77V72Zm1.92-2h.12v-.62c0-.17,0-.3,0-.39a.61.61,0,0,1,.07-.25.59.59,0,0,1,.18-.17.52.52,0,0,1,.25-.07.53.53,0,0,1,.36.15.47.47,0,0,1,.13.24,2.15,2.15,0,0,1,0,.41v.7h.38a.47.47,0,0,1,.33.1.34.34,0,0,1,.12.27.29.29,0,0,1-.17.29,1,1,0,0,1-.47.08h-.19v1.9a3.47,3.47,0,0,0,0,.38.4.4,0,0,0,.09.21.33.33,0,0,0,.24.08l.24,0a1,1,0,0,1,.25,0,.34.34,0,0,1,.22.1.33.33,0,0,1,.1.25.4.4,0,0,1-.27.38,1.78,1.78,0,0,1-.78.14,1.35,1.35,0,0,1-.74-.17.8.8,0,0,1-.33-.45,3.11,3.11,0,0,1-.07-.76v-2h-.14a.49.49,0,0,1-.34-.1.34.34,0,0,1-.12-.27.32.32,0,0,1,.13-.27.52.52,0,0,1,.35-.1Z"/></g></g></svg>