<svg xmlns="http://www.w3.org/2000/svg" viewBox="0 0 113.59 113.59"><defs><style>.cls-1{fill:#1a1a1a;}</style></defs><title>Asset 451</title><g id="Layer_2" data-name="Layer 2"><g id="Layer_1-2" data-name="Layer 1"><path class="cls-1" d="M69.36,50.47A8.32,8.32,0,0,0,64.5,65.55a33.91,33.91,0,0,1-8.12,1c-6,0-11-2.1-14.66-3.63L41,62.64a2,2,0,0,0-1.5,3.6l.73.31c4,1.67,9.39,3.94,16.18,3.94,5.84,0,12.8-1.73,16.22-4a8.32,8.32,0,0,0-3.24-16Zm0,12.74a4.42,4.42,0,1,1,4.41-4.42A4.42,4.42,0,0,1,69.36,63.21Zm7.89-18.52c-5.53-2.31-10.4-4.24-16.91-4.24-5.84,0-12.79,1.73-16.22,4a8.32,8.32,0,1,0,8.1.9,33.91,33.91,0,0,1,8.12-1c6,0,11,2.1,14.66,3.63l.75.31a1.94,1.94,0,0,0,2.55-1A2,2,0,0,0,77.25,44.69ZM47.36,56.56a4.42,4.42,0,1,1,4.42-4.41A4.42,4.42,0,0,1,47.36,56.56Z"/><path class="cls-1" d="M45.25,82.3a2.16,2.16,0,0,0-.32.36.48.48,0,0,0,0,.4.51.51,0,0,0,.24.3,1.17,1.17,0,0,0,.54.1.93.93,0,0,0,.58-.18,2.66,2.66,0,0,0,.5-.69,1.26,1.26,0,0,0,.1-1,1.61,1.61,0,0,0-.79-.93,4.36,4.36,0,0,0-2.61-.45,7.67,7.67,0,0,0-3,1,5.22,5.22,0,0,0-2,1.85A2.07,2.07,0,0,0,38.19,85a3,3,0,0,0,1.27,1.42,4.59,4.59,0,0,0,2.33.55c.92,0,1.45-.15,1.61-.42s.07-.39-.17-.53a1.76,1.76,0,0,0-.81,0,5,5,0,0,1-1.28-.08,3.75,3.75,0,0,1-1-.33,1.34,1.34,0,0,1-.71-.88,1.45,1.45,0,0,1,.18-1.05,4.26,4.26,0,0,1,1.62-1.45,7.28,7.28,0,0,1,2.4-.88,2.93,2.93,0,0,1,1.91.19c.14.08.16.22,0,.43A2.11,2.11,0,0,1,45.25,82.3Z"/><path class="cls-1" d="M50.7,85.18a.83.83,0,0,0-.65-.85,3.45,3.45,0,0,0-2.9.71,4.66,4.66,0,0,0-2,2.39,1.29,1.29,0,0,0,.06,1,1.17,1.17,0,0,0,.7.59,3.84,3.84,0,0,0,3.13-.9c-.44,1.21-.33,1.91.31,2.11a1.26,1.26,0,0,0,.61,0,.51.51,0,0,0,.39-.34.31.31,0,0,0-.13-.32.49.49,0,0,1-.19-.24A1.41,1.41,0,0,1,50,89a3.22,3.22,0,0,1,.17-.91,8.93,8.93,0,0,1,.7-1.54,5.49,5.49,0,0,0,.34-.71C51.24,85.5,51.09,85.3,50.7,85.18Zm-1,.77a3,3,0,0,1-1.43,1.52,2.51,2.51,0,0,1-1.81.57c-.12,0-.14-.19,0-.46A3.49,3.49,0,0,1,47.82,86c.78-.56,1.34-.78,1.69-.68a.39.39,0,0,1,.22.23A.67.67,0,0,1,49.72,86Z"/><path class="cls-1" d="M58.64,89.77a1.38,1.38,0,0,0-.31,0l-.29,0c-.19,0-.31-.66-.35-1.93s-.49-1.91-1.32-2-1.89.72-2.8,2.39A12.11,12.11,0,0,0,54,86.48a1.2,1.2,0,0,0-.11-.8.66.66,0,0,0-.47-.18.58.58,0,0,0-.48.23.84.84,0,0,0-.26.5,14.13,14.13,0,0,1-.42,2.67A7.52,7.52,0,0,0,52,90c0,.47.22.73.76.77a.39.39,0,0,0,.27-.11.62.62,0,0,0,.21-.31,9.7,9.7,0,0,1,1.32-1.91q1-1.29,1.44-1.26c.27,0,.42.47.43,1.35a4.67,4.67,0,0,0,.25,1.74h0a.94.94,0,0,0,.85.58,1.4,1.4,0,0,0,.92-.23c.25-.18.38-.35.39-.52S58.81,89.78,58.64,89.77Z"/><path class="cls-1" d="M64.32,88.8a1.32,1.32,0,0,0-.62.36A3.14,3.14,0,0,1,62,90c-.52.07-.81-.13-.86-.58a3.91,3.91,0,0,1,.44-2.06q.54-1.22,1-1.26c.13,0,.24.14.32.46s.35.65.69.61a.62.62,0,0,0,.35-.22.88.88,0,0,0,.11-.68,1.72,1.72,0,0,0-.49-1,1.06,1.06,0,0,0-.92-.37c-.7.09-1.36.67-2,1.75a4.75,4.75,0,0,0-.75,2.9,1.72,1.72,0,0,0,.62,1.21,1.83,1.83,0,0,0,1.4.29,3.63,3.63,0,0,0,1.9-.87c.58-.5.85-.88.82-1.14A.26.26,0,0,0,64.32,88.8Z"/><path class="cls-1" d="M70.29,86.68A.56.56,0,0,0,70,87a3.11,3.11,0,0,1-1.75,1.65.9.9,0,0,1-.65,0,.67.67,0,0,1-.35-.38.18.18,0,0,1,.1-.23,4.94,4.94,0,0,0,1.87-1.74,2.25,2.25,0,0,0,.36-1.88,1.16,1.16,0,0,0-.6-.72,1.3,1.3,0,0,0-1-.06,3,3,0,0,0-1.81,1.87,4,4,0,0,0-.23,2.88,2.06,2.06,0,0,0,.94,1.29,1.91,1.91,0,0,0,1.53.1,3.4,3.4,0,0,0,1.82-1.34c.46-.65.63-1.15.53-1.49A.3.3,0,0,0,70.29,86.68Zm-3-1.11a1.55,1.55,0,0,1,.8-.94.35.35,0,0,1,.28,0,.4.4,0,0,1,.17.24,1.35,1.35,0,0,1-.33,1.1A3.38,3.38,0,0,1,67,87.12,3.22,3.22,0,0,1,67.29,85.57Z"/><path class="cls-1" d="M75.62,81.34A.86.86,0,0,0,75,80.9a1.39,1.39,0,0,0-.93.16,2.09,2.09,0,0,0-.94,1.36,8.39,8.39,0,0,0-.32,2.44v.19l-.25-.76a5.73,5.73,0,0,1-.16-.62,4.56,4.56,0,0,0-.24-1,.53.53,0,0,0-.3-.24.6.6,0,0,0-.46.06.9.9,0,0,0-.37.38.77.77,0,0,0-.09.44,3.48,3.48,0,0,0,.22.67q0,.1.12.33.31.81.57,1.35c.18.38.33.68.44.9A3.82,3.82,0,0,0,73,87.65a.53.53,0,0,0,.65.11.78.78,0,0,0,.41-.41.88.88,0,0,0,0-.65,5.3,5.3,0,0,1-.22-2.9c.19-1,.41-1.56.65-1.68a.52.52,0,0,1,.35,0,.88.88,0,0,0,.66,0,.41.41,0,0,0,.21-.31A.69.69,0,0,0,75.62,81.34Z"/><path class="cls-1" d="M40.16,73.53,39.1,75l1,1.5L38.41,76l-1.1,1.45,0-1.82L35.57,75l1.72-.58,0-1.82,1.08,1.47Zm43-3.21-1.3-3.41L80.75,70.4l-3.64.17,3,2.09-1,3.52L82.05,74l3,2-1.19-3.45,2.84-2.28ZM47,28.87l-1.42-2.33-.3,2.72-2.66.63L45.09,31l-.22,2.73,1.84-2,2.52,1.05L47.88,30.4l1.78-2.08Zm23.33,0-2.38-4.23-.7,4.81-4.77.95,4.36,2.16-.57,4.82,3.4-3.47,4.41,2-2.25-4.31,3.29-3.57ZM34,42.59,35.75,42l1.12,1.44V41.64L38.58,41l-1.74-.56-.05-1.82-1.07,1.48L34,39.61,35,41.08ZM91.1,49.51l-2.66-.62-.32-2.71-1.41,2.34L84,48l1.8,2.06-1.34,2.38L87,51.36l1.86,2-.24-2.72ZM59.6,76.11l-.44-2.7-1.3,2.4-2.71-.41,1.89,2-1.23,2.44,2.46-1.18,1.95,1.92-.37-2.71,2.44-1.25ZM35.89,57l-4.77-1-.71-4.81L28,55.47l-4.8-.81,3.3,3.57-2.25,4.31,4.42-2L32.11,64l-.57-4.83Z"/><path class="cls-1" d="M56.79,113.59a56.8,56.8,0,1,1,56.8-56.8A56.86,56.86,0,0,1,56.79,113.59Zm0-112.34a55.55,55.55,0,1,0,55.55,55.54A55.61,55.61,0,0,0,56.79,1.25Z"/><path class="cls-1" d="M55.72,95.91A38.79,38.79,0,1,1,94.5,57.13,38.83,38.83,0,0,1,55.72,95.91Zm0-76.32A37.54,37.54,0,1,0,93.25,57.13,37.58,37.58,0,0,0,55.72,19.59Z"/><path class="cls-1" d="M73.56,11.16a4.69,4.69,0,0,1-1.12,2l-.06.07-1.19-.28.18-.2a4.14,4.14,0,0,0,1-1.8,2,2,0,0,0,0-1.16.83.83,0,0,0-.62-.56c-.67-.16-1.51.49-2.5,1.93a16.94,16.94,0,0,0-1.58,3,22.54,22.54,0,0,0-1.19,3.6l-.16.67L65.2,18.2l.16-.7a22,22,0,0,0,.51-3.57,17.86,17.86,0,0,0,0-3.32c-.24-1.85-.71-2.87-1.41-3a.84.84,0,0,0-.8.22,1.86,1.86,0,0,0-.55,1,3.81,3.81,0,0,0,.15,2l.09.26-1.2-.28,0-.09A4.56,4.56,0,0,1,62,8.46a2.7,2.7,0,0,1,1-1.6,2,2,0,0,1,1.7-.34c1,.23,1.67,1.08,2,2.52a12.53,12.53,0,0,1,.17,4.46A12.14,12.14,0,0,1,69,9.61C70,8.46,71,8,72,8.23a2,2,0,0,1,1.38,1.06A2.63,2.63,0,0,1,73.56,11.16Z"/><path class="cls-1" d="M95.31,24.78a2.68,2.68,0,0,0-2.66-.53l-.91.19a3,3,0,0,1-1.4,0,2.29,2.29,0,0,1-1-.73,2.36,2.36,0,0,1-.6-1.13,3,3,0,0,1,.2-1.39l.3-.88A2.68,2.68,0,0,0,89,17.61l-.37-.43-.72.63.21.23a1.63,1.63,0,0,1,.06,1.64l-.23.65a5.23,5.23,0,0,0-.33,1.36,2.37,2.37,0,0,0,.09.82,4.2,4.2,0,0,0-1.82-.13,3.63,3.63,0,0,0-3.05,3.46,3.7,3.7,0,0,0,3.51,4l.3,0a3.58,3.58,0,0,0,2.43-.91,3.64,3.64,0,0,0,1.09-1.69,4.1,4.1,0,0,0,.1-1.82,2.82,2.82,0,0,0,.81.2,5.1,5.1,0,0,0,1.38-.15l.68-.15c.77-.16,1.32-.07,1.62.28l.2.23.72-.63Zm-7,3.3a2.48,2.48,0,0,1-1.88.63A2.67,2.67,0,0,1,84,25.91a2.57,2.57,0,0,1,2.55-2.43h.21a2.57,2.57,0,0,1,1.81.91,2.61,2.61,0,0,1-.23,3.69Z"/><path class="cls-1" d="M106.43,49.63a17.54,17.54,0,0,1-1.54-4.39,17.71,17.71,0,0,1-.51-4.62v-.2l-1,.23v.11a12.43,12.43,0,0,0,.06,2.12l-6.85,1.55a14.41,14.41,0,0,0-.87-1.92l0-.11-1,.23.09.18a19.37,19.37,0,0,1,2,9V52l1-.23v-.12a17.91,17.91,0,0,0,0-2.11L104.6,48a12.4,12.4,0,0,0,.87,1.94l0,.1,1-.23Zm-8.84-1.22c-.06-.44-.15-.93-.27-1.45s-.25-1-.39-1.42L103.61,44c.07.41.17.89.29,1.44s.25,1,.36,1.43Z"/><path class="cls-1" d="M105,68.77a2.88,2.88,0,0,0-1.61-2.62,2.3,2.3,0,0,0-3,3,2.21,2.21,0,0,0,1.24,1.25,2.29,2.29,0,0,0,1.3.17,2.43,2.43,0,0,0,.94-.41,7.59,7.59,0,0,1-.59,2.22,12.21,12.21,0,0,1-3.06,4.23l-.17.17,1.16.48.07-.07a11.48,11.48,0,0,0,2.92-4A9.19,9.19,0,0,0,105,68.77Zm-1.16,0a1.42,1.42,0,0,1-.78.78,1.42,1.42,0,0,1-1.86-1.87,1.31,1.31,0,0,1,.77-.76A1.43,1.43,0,0,1,103,67a1.32,1.32,0,0,1,.76.76A1.38,1.38,0,0,1,103.8,68.82Zm-3.44,3.86a2.26,2.26,0,0,0-1.25-1.25,2.17,2.17,0,0,0-1.29-.16,2.41,2.41,0,0,0-.94.4,7.67,7.67,0,0,1,.59-2.22,12.3,12.3,0,0,1,3-4.23l.18-.17-1.17-.48-.07.07a11.77,11.77,0,0,0-2.91,4,9.21,9.21,0,0,0-.8,4.44,2.87,2.87,0,0,0,1.6,2.62,2.21,2.21,0,0,0,.74.17,2.16,2.16,0,0,0,1-.17,2.24,2.24,0,0,0,1.25-1.24A2.29,2.29,0,0,0,100.36,72.68Zm-.81,1.44a1.43,1.43,0,0,1-1.88.76,1.34,1.34,0,0,1-.77-.76,1.38,1.38,0,0,1,0-1.09,1.36,1.36,0,0,1,.78-.78,1.48,1.48,0,0,1,.64-.12,1.19,1.19,0,0,1,.44.11,1.35,1.35,0,0,1,.78.77A1.43,1.43,0,0,1,99.55,74.12Z"/><path class="cls-1" d="M91.2,92a4.49,4.49,0,0,0-1.69-.91,2.12,2.12,0,0,0,.31-.28,2.19,2.19,0,0,0,.6-1.68,2.38,2.38,0,0,0-4.75.18A2.21,2.21,0,0,0,86.39,91a4.44,4.44,0,0,0,1.68.78l.49.15a4.63,4.63,0,0,1,1.81,1A1.81,1.81,0,0,1,91,94.22a2,2,0,0,1-.59,1.43,2,2,0,0,1-1.5.72,2.23,2.23,0,0,1-1.58-.67,5.48,5.48,0,0,1-1.14-1.91l-.48-1.19A9.24,9.24,0,0,0,84,89.5,1.93,1.93,0,0,0,82.58,89a2,2,0,0,0-1.39.67,3.06,3.06,0,0,0-.67,2.12v.15h1v-.15A2.13,2.13,0,0,1,82,90.4a.81.81,0,0,1,.63-.29,1,1,0,0,1,.69.3,10,10,0,0,1,1.41,2.72l.36.87a13.23,13.23,0,0,0,.75,1.63,4.75,4.75,0,0,0,.8,1,3.07,3.07,0,0,0,2.32.91h.15a3.33,3.33,0,0,0,2.12-1.14,3.19,3.19,0,0,0,.92-2.21A2.72,2.72,0,0,0,91.2,92Zm-2.08-1.82a1.33,1.33,0,0,1-1,.45,1.4,1.4,0,0,1-1-.4,1.38,1.38,0,0,1-.46-1,1.31,1.31,0,0,1,.36-1,1.33,1.33,0,0,1,.86-.44H88a1.4,1.4,0,0,1,1,.4,1.38,1.38,0,0,1,.46,1A1.33,1.33,0,0,1,89.12,90.22Z"/><path class="cls-1" d="M72.93,107a4,4,0,0,1-1.34-1.91l-2-6-1.11.36,1.7,5.17a6.72,6.72,0,0,1-.37,2.51,5.67,5.67,0,0,1-.83-1.73l-1.81-5.52-1.11.37,1.64,5a6.13,6.13,0,0,1-.31,2.7,4.35,4.35,0,0,1-.74-1.47l-1.6-4.89a8.62,8.62,0,0,0-.39-1,6,6,0,0,1,1.38-1l.11-.06-.32-1-.16.08a6.06,6.06,0,0,0-1.57,1.11,4.58,4.58,0,0,0-.91-.84l-.07,0-1.33.44.28.18a3.55,3.55,0,0,1,1.26,1.19,6.8,6.8,0,0,0-.89,2.39,5.29,5.29,0,0,0,.21,2.43,5.53,5.53,0,0,0,1.83,2.59l.1.08.72-.57v0a4.82,4.82,0,0,0,.17-.9l.25.76a3.7,3.7,0,0,0,1.37,1.87l.08.06.86-.47,0-.06a5.59,5.59,0,0,0,.41-1.51,3.65,3.65,0,0,0,1.08,1.18l.08.06.87-.48,0,0a5.6,5.6,0,0,0,.39-1.47,3.72,3.72,0,0,0,.94,1l.07,0,1.2-.4Zm-8.32-.45a4.31,4.31,0,0,1-.83-1.49,4.44,4.44,0,0,1-.22-1.8,5,5,0,0,1,.37-1.47l.92,2.79A6.52,6.52,0,0,1,64.61,106.58Z"/><path class="cls-1" d="M42.08,103.93l.05.07a1.64,1.64,0,0,1,.32,1.65,1.61,1.61,0,0,1-.87,1,1.66,1.66,0,0,1-1.31.07,1.63,1.63,0,0,1-1-.87,1.59,1.59,0,0,1-.09-1.28,1.65,1.65,0,0,1,1.28-1.1l.08,0,.34-1-3.69-1.29-.38,1.1L39,103a2.26,2.26,0,0,0-.94,1.18,2.7,2.7,0,0,0,.15,2.15,2.81,2.81,0,0,0,1.64,1.44,3.08,3.08,0,0,0,.82.17,2.85,2.85,0,0,0,1.36-.28,2.69,2.69,0,0,0,1.46-1.59,2.3,2.3,0,0,0,0-1.51l2.21.77.38-1.1L42.42,103Z"/><rect class="cls-1" x="41.73" y="96.13" width="1.16" height="9.42" transform="translate(-66.84 107.65) rotate(-70.81)"/><path class="cls-1" d="M26.45,91.61,22,95.92A3.7,3.7,0,0,0,20.79,98l0,.31-.92-.94,0-.08A4.45,4.45,0,0,1,20.36,96a5.6,5.6,0,0,1-1.49.29h-.06l-.8-.55v-.09a3.28,3.28,0,0,1,.58-1.5,6.42,6.42,0,0,1-1.51.29H17l-.82-.58v-.1a3.77,3.77,0,0,1,1.15-2.09l3.8-3.66a9.53,9.53,0,0,0,.75-.8.94.94,0,0,0,.16-.46,1.49,1.49,0,0,0-.53-1l-.25-.27-.75.73-.08-2.33,2.29.2-.73.7.43.45a2.16,2.16,0,0,1,.75,1.68,3,3,0,0,1-1,1.76l-3.68,3.54a4.2,4.2,0,0,0-1,1.27,6.11,6.11,0,0,0,2.57-.9L23.89,89l.8.84-4.21,4.06a5.24,5.24,0,0,0-1.18,1.48,6.3,6.3,0,0,0,2.44-.77l3.91-3.78Z"/><path class="cls-1" d="M14.66,72.36l-.57,1-3.21-1.89L9.59,73.63l-1-.58,1.29-2.19-4.25-2.5L6,71.26l-1.15.11-.52-4.45L8.44,65.2l.46,1.06L6.21,67.38l4.25,2.5,1.29-2.2,1,.6-1.28,2.18Z"/><path class="cls-1" d="M14.34,44.48a2.18,2.18,0,0,0,.13-1.75,2.29,2.29,0,0,0-1.18-1.34,2.12,2.12,0,0,0-1.69-.13,2.18,2.18,0,0,0-1.3,1.12,2.52,2.52,0,0,0,.17,2.56c-.27-.07-.6-.18-1-.32l-.74-.26-1-.34a11.42,11.42,0,0,0-2.85-.67H4.79l-.36,1.27,0,0a7.69,7.69,0,0,0,1.88,2.6,9.65,9.65,0,0,0-2.18-.41,1.39,1.39,0,0,0-1.32.86l-.36.7.9.46.15-.28A1,1,0,0,1,4.47,48a8.06,8.06,0,0,1,2,.41,13.56,13.56,0,0,1,2.18.79l.4.21.52-1L9,48.11a7.49,7.49,0,0,1-2-1.62,7.74,7.74,0,0,1-1.35-1.88,10.72,10.72,0,0,1,1.88.53L9,45.69c.74.26,1.21.42,1.44.47a4.43,4.43,0,0,0,.88.05,7.61,7.61,0,0,1,1.5,1.88,1.85,1.85,0,0,1-.28,1.4L12.3,50l.91.47.42-.82A2.48,2.48,0,0,0,14,47.82a6.11,6.11,0,0,0-1.28-1.88A3,3,0,0,0,14.34,44.48Zm-.87-.37a2.39,2.39,0,0,1-1.57,1.08c-.83-.92-1.08-1.72-.75-2.38a1.16,1.16,0,0,1,.72-.6,1.21,1.21,0,0,1,.62,0,1.66,1.66,0,0,1,.35.13,1.34,1.34,0,0,1,.71.79A1.26,1.26,0,0,1,13.47,44.11Z"/><path class="cls-1" d="M19.13,26.11l-1.62-.7-.66,2.85-1-.23.93-4,1.62.69.66-2.87,1.62.7.66-2.88,2.7,1.17-.39.95-1.59-.69-.67,2.88-1.62-.7Zm5.24-3.3-.66,2.87L22.09,25l-.66,2.87-1.63-.69-.92,4.05,1,.22.66-2.85,1.62.69.65-2.86,1.62.7.66-2.88,1.59.69.4-1Z"/><path class="cls-1" d="M47.05,16.15l-1.31.35-.06,0a7.51,7.51,0,0,1-1.84-1.72,6,6,0,0,1-1-1.91l-1.4.37a6,6,0,0,1,.08,2.17,7.93,7.93,0,0,1-.73,2.41l0,.07-1.31.35.17-.32a6,6,0,0,0,.71-4.38L38.57,14l-.25-.92,1.73-.46a6.35,6.35,0,0,0-2.7-3.09l-.3-.19L38.3,9l.06,0a6.8,6.8,0,0,1,2.8,3.28l1.42-.38a6.85,6.85,0,0,1,.79-4.25l0-.06,1.25-.34-.16.32a6.43,6.43,0,0,0-.8,4l1.73-.47.25.92-1.74.47A6.08,6.08,0,0,0,46.74,16Z"/></g></g></svg>