<svg xmlns="http://www.w3.org/2000/svg" viewBox="0 0 94.72 120.56"><defs><style>.cls-1{fill:#1a1a1a;}</style></defs><title>Asset 523</title><g id="Layer_2" data-name="Layer 2"><g id="Layer_1-2" data-name="Layer 1"><path class="cls-1" d="M93.29,35.77A42.78,42.78,0,1,1,59,1.43,47.37,47.37,0,1,0,93.29,35.77Zm-72-26.15a.67.67,0,1,1,0,1A.68.68,0,0,1,21.28,9.62Zm-5.67,4.83a.89.89,0,1,1,0,1.26A.89.89,0,0,1,15.61,14.45Zm-5.08,6a1.13,1.13,0,0,1,1.6,1.6,1.13,1.13,0,1,1-1.6-1.6ZM5.8,27.86l1.27.36L7.48,27l.32,1.28L9.09,28l-.94.92.89,1-1.27-.35-.4,1.25L7,29.48l-1.29.28.94-.92Zm-2,8.57,1.16,1.21,1.25-1.11-.46,1.61,1.59.54-1.63.4L6,40.72,4.85,39.51,3.6,40.62,4.06,39l-1.59-.53,1.63-.4ZM1.88,50a2.64,2.64,0,0,1-.08-.49,2.79,2.79,0,0,1,2.46-3.09,2.94,2.94,0,0,1,2.88,3.19,2.75,2.75,0,0,0-2.81-2.2A2.75,2.75,0,0,0,1.88,50Zm3.89,7.21a3.06,3.06,0,0,0-2.08,3,3,3,0,0,1-.37-.74,3.05,3.05,0,0,1,5.79-1.94,3.32,3.32,0,0,1,.16.81A3,3,0,0,0,5.77,57.21Zm4.74,10.92A3.42,3.42,0,0,0,8.86,71.3a3.47,3.47,0,0,1-1.1-1.12,3.41,3.41,0,1,1,6.32-2A3.42,3.42,0,0,0,10.51,68.13Zm9,11.5a2.88,2.88,0,1,1,0-4.07A2.89,2.89,0,0,1,19.49,79.63Zm10.05,6.48a3.4,3.4,0,0,1-4.67,1.18,3.47,3.47,0,0,1-1.12-1.1A3.4,3.4,0,0,0,26.87,81a3.4,3.4,0,0,1,2.67,5.14Zm9.85,3.69a3.05,3.05,0,0,1-3.86,1.93,3,3,0,0,1-.74-.37,3.06,3.06,0,0,0,1.87-5.58,3.32,3.32,0,0,1,.81.16A3,3,0,0,1,39.39,89.8Zm6.15,3.45a3.85,3.85,0,0,1-.49-.08,2.65,2.65,0,0,0,.39-5.26,2.71,2.71,0,1,1,.1,5.34ZM57,91l-.4,1.63L56,91l-1.61.46,1.11-1.25L54.33,89l1.64.33.4-1.63.54,1.59,1.61-.46-1.11,1.25,1.21,1.16Zm10.22-1.7-1-.89-.92.94L65.57,88l-1.28-.33,1.25-.4L65.19,86l1,.89.92-.94-.28,1.28,1.28.33L66.83,88Zm7.42-4.73a1.13,1.13,0,0,1-1.6-1.6,1.13,1.13,0,0,1,1.6,1.6Zm6-5.08a.89.89,0,1,1,0-1.26A.89.89,0,0,1,80.6,79.44Zm4.83-5.67a.67.67,0,1,1,0-1A.68.68,0,0,1,85.43,73.77Z"/><path class="cls-1" d="M30.46,68.78l-3,1.28,2.29.83-2.4-.4,2,2.6-2.62-2,.42,2.4-.85-2.28-1.26,3,.4-3.25-1.87,1.56,1.55-1.87-3.25.42,3-1.28L22.57,69l2.4.4-2-2.6,2.62,2-.42-2.4L26,68.65l1.26-3-.4,3.25,1.87-1.56L27.21,69.2ZM51.28,32.33l-3.28.2,3.21.69-2.09,1.25,2.28-.85-1.46,2.94,2.2-2.43,0,2.43.4-2.4,1.81,2.73-1-3.12L55.51,35l-1.87-1.55,3.27-.2-3.2-.69,2.09-1.26-2.29.85L55,29.18l-2.2,2.43,0-2.44-.41,2.41-1.81-2.74,1,3.12L49.4,30.78Zm13.85-1.17-2.76,1.12,2.95-.4L64.41,34l1.41-1.84,1.11,2.76L66.54,32l2.13.9-1.84-1.4,2.76-1.11-3,.39.9-2.13-1.4,1.84L65,27.71l.4,2.95-2.13-.9ZM52.71,75.66l.14-2.31-.71,2.2-2-2.22L51.53,76l-2.31-.14,2.2.71-2.22,2,2.64-1.36-.13,2.3.7-2.2,2,2.23L53,76.84l2.31.14-2.2-.71,2.22-2ZM68.31,55.1,69,52.9l-1.24,2-1.35-2.65.65,2.9-2.2-.71,2,1.24L64.19,57l2.9-.65-.72,2.2,1.24-2L69,59.23l-.65-2.9,2.2.71-2-1.24,2.65-1.35ZM65,46.38l1.17.89L65.49,46l1.35-.57-1.47,0,.19-1.46-.78,1.25-1.17-.89.69,1.3L63,46.13l1.47,0-.18,1.46ZM74.3,9.77l-1.45-.21.34-1.43-.91,1.15-1.06-1,.55,1.36-1.41.42,1.45.21-.35,1.42.91-1.15,1.07,1-.55-1.37ZM70.84,22.08l-1.29.7L69,21.43l0,1.47-1.46-.17,1.26.76-.88,1.18,1.29-.7.58,1.34,0-1.46,1.45.17L70,23.25Zm-30,5.09,1.29-.71.58,1.35,0-1.47,1.46.17L43,25.75l.87-1.18-1.29.7L42,23.93l0,1.46-1.46-.17,1.25.77ZM38.3,51.76,37,52.42l-.54-1.37-.08,1.47-1.45-.22,1.22.8-.91,1.15,1.31-.66L37.08,55l.08-1.46,1.45.22-1.23-.81Zm10.09-3.25.88-1.17L48,48l-.58-1.35,0,1.47L45.91,48l1.25.76-.88,1.18,1.29-.7.58,1.35,0-1.47,1.46.17ZM61.22,66.74,59.77,67l-.11-1.47-.51,1.38-1.32-.64.94,1.13-1.22.83L59,68l.11,1.47.51-1.38L61,68.7,60,67.57Zm3,2-.14-1.46-.49,1.38L62.23,68l1,1.11L62,70l1.44-.27.13,1.46.49-1.38,1.33.62-.95-1.12,1.2-.85ZM33.55,58l-3.69,5.73s-2.77,4.33-2.63,4.42A47.12,47.12,0,0,0,30.17,64l3.69-5.74a43,43,0,0,0,2.45-4.15A47,47,0,0,0,33.55,58Zm33,2.34-1.31,4.5a23.72,23.72,0,0,0-.82,3.45A23.83,23.83,0,0,0,65.55,65l1.32-4.51a20.75,20.75,0,0,0,.75-3.23A21,21,0,0,0,66.52,60.38ZM57,70.21l-2.28,2.7a14,14,0,0,0-1.58,2.15c.14.12,1.86-1.93,1.86-1.93l2.28-2.7s1.61-1.91,1.47-2S57,70.21,57,70.21Zm9.83-18.34a11,11,0,0,0,1,2.15,10.38,10.38,0,0,0-.65-2.29L66.1,48.8s-.77-2.08-.94-2a9.72,9.72,0,0,0,.61,2.14ZM65.72,36.26a21.65,21.65,0,0,0,.14-3.42,23.37,23.37,0,0,0-.5,3.41l-.46,4.81a26.1,26.1,0,0,0-.17,3.65,23.71,23.71,0,0,0,.53-3.63Zm1.92-9,.23-.43a15.49,15.49,0,0,0,1.06-2.3,16.9,16.9,0,0,0-1.31,2.19l-.22.42a17.75,17.75,0,0,0-1.13,2.42A17.88,17.88,0,0,0,67.64,27.28ZM45.25,28.6l2.83,2s2,1.44,2.11,1.29-1.91-1.59-1.91-1.59l-2.83-2a13.44,13.44,0,0,0-2.23-1.39C43.11,27.06,45.25,28.6,45.25,28.6ZM59.07,32l.86-.11a36.64,36.64,0,0,0,4.41-.77,39.65,39.65,0,0,0-4.49.42l-.85.11a40.87,40.87,0,0,0-4.66.8A41.59,41.59,0,0,0,59.07,32Zm12.4-17.9-1.08,4.57a24,24,0,0,0-.64,3.48,23,23,0,0,0,1-3.42l1.08-4.57a20,20,0,0,0,.59-3.27A21.42,21.42,0,0,0,71.47,14.12ZM61.76,68.29l-.2-.11s-1.11-.65-1.18-.53,1,.76,1,.76l.2.12s1,.61,1.12.49S61.76,68.29,61.76,68.29ZM51.91,34.73a28.25,28.25,0,0,0-1.26,3.66l-1.53,5.22a31.67,31.67,0,0,0-1,4,32,32,0,0,0,1.33-3.9L51,38.47A27.93,27.93,0,0,0,51.91,34.73ZM53.47,48l6.14-.81a33.54,33.54,0,0,0,4.31-.76,37.52,37.52,0,0,0-4.38.41l-6.13.81a42.51,42.51,0,0,0-4.6.79A40.36,40.36,0,0,0,53.47,48Zm-6.85.83a15.52,15.52,0,0,0-2.59,1l-3.55,1.59a16.6,16.6,0,0,0-2.61,1.36,15.52,15.52,0,0,0,2.76-1l3.56-1.59A13.87,13.87,0,0,0,46.62,48.86Z"/><path class="cls-1" d="M38.41,40.63a.89.89,0,1,1-1.52-.92.88.88,0,0,1,1.21-.3A.89.89,0,0,1,38.41,40.63ZM68.23,74.1a.59.59,0,1,0,.81-.2A.59.59,0,0,0,68.23,74.1Zm3.28-36.49a.59.59,0,1,0,.81-.21A.59.59,0,0,0,71.51,37.61ZM28.32,27.06a.59.59,0,1,0,.81-.2A.59.59,0,0,0,28.32,27.06ZM50.63,59.19a.59.59,0,1,0,1,.61.59.59,0,1,0-1-.61Zm26,10.26a.47.47,0,1,0,.65-.17A.47.47,0,0,0,76.61,69.45ZM46.18,67.8a.47.47,0,0,0,.17.65.47.47,0,0,0,.65-.16.48.48,0,0,0-.17-.65A.48.48,0,0,0,46.18,67.8ZM34.91,64.24a.46.46,0,0,0,.16.65.47.47,0,1,0,.48-.81A.47.47,0,0,0,34.91,64.24ZM23.69,41.37a.47.47,0,0,0-.16-.65.47.47,0,0,0-.49.81A.46.46,0,0,0,23.69,41.37ZM24.18,29a.47.47,0,0,0-.81-.49.48.48,0,0,0,.16.65A.47.47,0,0,0,24.18,29ZM53.7,43.8a.47.47,0,0,0,.81.49.47.47,0,0,0-.81-.49Zm6,31.7a.47.47,0,0,0,.17.65.47.47,0,0,0,.65-.16.48.48,0,0,0-.17-.65A.48.48,0,0,0,59.75,75.5ZM37,16l.83-.1-.66-.5.32-.77L36.7,15l-.5-.66-.11.82-.82.11.66.5-.33.76.77-.32.5.67ZM85.12,40.23l-.83-.14-.07-.83-.52.65-.76-.35.3.78-.68.47.82.14.07.83.53-.65.75.35-.3-.78ZM60.69,9.73,59.9,10l-.45-.71-.17.82-.83,0,.62.56-.39.73.79-.26.45.71.17-.82.83,0-.62-.55ZM24.87,52.41l-.06-.83-.53.63-.75-.36.28.78-.69.47.82.14.06.83.54-.63.75.36L25,53l.69-.47Zm53.79,2.42a.47.47,0,1,0,0,.94.47.47,0,0,0,0-.94Zm5.11-1.66-.27-.65-.26.65-.7-.09.44.55-.44.56.7-.1.26.65.27-.65.69.1L84,53.63l.43-.55ZM17.48,36.85l-.26-.65-.26.65-.7-.1.43.56-.43.55.7-.1.26.66.26-.66.7.1-.43-.55.43-.56Zm32.09-21c-.12-.71-.31-2.77-.31-2.77a0,0,0,0,0,0,0s-.18,2.07-.32,2.77a1.16,1.16,0,0,1-.85.91,7.73,7.73,0,0,1-1.57.28s0,0,0,0a8.85,8.85,0,0,1,1.54.28,1.2,1.2,0,0,1,.88.92c.15.71.32,2.77.32,2.77a0,0,0,1,0,0,0s.18-2.09.31-2.77a1.3,1.3,0,0,1,.86-.93,5.88,5.88,0,0,1,1.39-.27s0,0,0,0a6.31,6.31,0,0,1-1.41-.27A1.1,1.1,0,0,1,49.57,15.85Zm5.26,4.23c-.07-.43-.18-1.66-.18-1.66s0,0,0,0-.11,1.24-.19,1.66a.67.67,0,0,1-.51.54,4.43,4.43,0,0,1-.94.17h0a5.51,5.51,0,0,1,.92.16.74.74,0,0,1,.53.56c.09.42.19,1.65.19,1.65h0s.11-1.25.18-1.65a.76.76,0,0,1,.52-.56,3.12,3.12,0,0,1,.83-.16h0a3.58,3.58,0,0,1-.84-.16A.65.65,0,0,1,54.83,20.08Z"/><polygon class="cls-1" points="81.91 25.63 81.77 26.78 82.85 27.2 81.78 27.65 81.96 28.8 81.03 28.1 80.13 28.83 80.27 27.67 79.19 27.25 80.26 26.8 80.08 25.65 81.01 26.36 81.91 25.63"/><path class="cls-1" d="M85.16,23.73l-.45.24a13.8,13.8,0,0,0-1.16.77,9.5,9.5,0,0,1-1.13.85s.07-.18.25-.38a6.76,6.76,0,0,1,.71-.68,10.22,10.22,0,0,1,1.17-.81l.46-.25A7.41,7.41,0,0,1,86.27,23a5.41,5.41,0,0,1,.91-.2c.26,0,.43,0,.43,0s-.15.09-.39.15-.56.16-.86.27A10,10,0,0,0,85.16,23.73Z"/><path class="cls-1" d="M85,25.17c-.14,0-.27.1-.41.15a8.43,8.43,0,0,0-1.08.53,9,9,0,0,1-1,.63,2.83,2.83,0,0,1,.93-.81,6.22,6.22,0,0,1,1.1-.58l.42-.15a7,7,0,0,1,1.15-.27,2.91,2.91,0,0,1,1.18,0,6.37,6.37,0,0,1-1.14.23A10.19,10.19,0,0,0,85,25.17Z"/><path class="cls-1" d="M84.83,26.48l-.26,0s-.35,0-.7.13-.67.2-.7.15.29-.25.64-.36a3.79,3.79,0,0,1,.72-.16,2.48,2.48,0,0,1,.27,0,3.52,3.52,0,0,1,.7,0,2,2,0,0,1,.48.1c.13,0,.2.09.19.12s-.34,0-.68,0S84.83,26.48,84.83,26.48Z"/><path class="cls-1" d="M39.31,102c0,4.72-5.84,14.45-9.4,14.45a1.71,1.71,0,0,1-1.86-1.73c0-2.11,2.72-7.74,2.72-12.06,0-1.59,0-3-1.29-3-2,0-2.58,3.51-2,4.79a1.4,1.4,0,0,1-1.53-1.55c0-3.61,6.6-6.45,6.6,0,0,5-4.37,12.9-2.18,12.9,3.4,0,10.42-14,6.41-15.19C37.88,98.63,39.31,99.71,39.31,102Zm3,3.25c1.34,0,2-1.83.69-1.83-.69,0-1.58.52-1.58,1.12S41.88,105.2,42.36,105.2Zm26.45,6.09c-1.15,2.64-3.39,2.18-4.19.34-2.12,5-5.93,4.25-5.45,1.15A9.5,9.5,0,0,1,56,115.3c-1.21,2.91-2.59,5.26-4.21,5.26a1.17,1.17,0,0,1-1.25-1.25c0-1.75,2.4-2.89,4.21-3.79a29.47,29.47,0,0,0,1.1-3.56c-2.75,3.93-5,3.11-5.12.93-2.36,3-5.13,2.55-5.13.79,0-1.27,1.19-2.89,1.19-4,0-.93-.67-1.25-1.21-1.64a32.63,32.63,0,0,1-1.92,4.14c-1.75,3.62-5.54,3.77-5.54,1.12,0-1.64,1.64-6.06,3.1-6.06a.45.45,0,0,1,.48.47c0,.72-2.25,3.33-2.25,5.35,0,1,.35,1.3,1.06,1.3,2.22,0,4-4.54,4.7-6.65-.85-.85,1-3,1-1.46,0,.15-.24.71-.24.8,0,.79,2.2,1.16,2.2,3,0,1.32-1.08,2.74-1.08,3.65,0,1.3,2.11.6,3.65-1.46.3-2.82,3.47-5.16,5.69-5.16,1.45,0,1.28,1,.91,1.12a1,1,0,0,0-.86-.32c-3.29,0-5.61,6-3.59,6,.82,0,2.1-1.27,3.2-2.85.3-1.36.41-2.53,1.81-2.18a26.1,26.1,0,0,1-1.66,5.91,7.33,7.33,0,0,0,3.27-3.12c1.65-4.32,5.18-5.34,5.77-4.17a.32.32,0,0,1,.15,0c.54,0,.73.58.73.84,0,.54-.84,1.58-.84,2.72a1.65,1.65,0,0,0,1.51,1.79c.6,0,1.14-.45,1.7-1.64ZM54.5,116.1c-1.7.86-3.3,1.79-3.3,3S52.66,120.55,54.5,116.1Zm10.18-8.33c-2.43,0-4.18,3.78-4.18,5.42,0,1.94,2.41,1.35,3.9-2.23A5,5,0,0,1,64.68,107.77Z"/></g></g></svg>