<svg xmlns="http://www.w3.org/2000/svg" viewBox="0 0 86.46 87.78"><title>Asset 491</title><g id="Layer_2" data-name="Layer 2"><g id="Layer_1-2" data-name="Layer 1"><path d="M86.17,43.43a6.68,6.68,0,0,1-.78-.13c-.44-.11-.87-.26-1.31-.4L81.27,42c-.22-.07-.44-.11-.65-.19l-1.9-.77-4.66-1.8c-.88-.34-1.76-.7-2.63-1l-2.46-1c-.53-.22-1-.44-1.59-.63-1.19-.43-2.41-.78-3.63-1.12a1.82,1.82,0,0,1-.75-.32c.07-.16.13-.31.19-.47s.15-.3.22-.46c.17-.4.33-.81.52-1.19.44-.89.9-1.76,1.34-2.64.28-.56.52-1.13.8-1.69.18-.38.42-.72.59-1.1.75-1.72,1.62-3.38,2.52-5,.42-.76.87-1.51,1.27-2.28.77-1.5,1.53-3,2.29-4.51.15-.29.32-.56.45-.85.27-.66.53-1.33.79-2a.71.71,0,0,0-.88,0,13.9,13.9,0,0,1-2.24,1c-.43.16-.85.32-1.26.51-1,.45-2,.91-2.93,1.39-.78.38-1.57.76-2.33,1.19-.92.51-1.86,1-2.82,1.46-.61.3-1.2.63-1.8,1s-1.5.88-2.25,1.31l-1.84,1c-.59.32-1.19.66-1.8.95s-1.48.77-2.19,1.2c-.08,0-.16.12-.29,0-.17-.46-.35-.93-.5-1.42-.1-.3-.12-.63-.21-.94-.29-1-.58-2-.91-3-.43-1.28-.9-2.54-1.34-3.8-.08-.23-.15-.47-.22-.71-.37-1.23-.73-2.46-1.11-3.69-.24-.78-.53-1.54-.79-2.31-.35-1-.69-2.08-1-3.13,0-.16-.11-.32-.16-.48a15,15,0,0,0-.75-2.26A1,1,0,0,1,44.26,2c-.15-.49-.31-1-.43-1.47A.67.67,0,0,0,43.2,0c-.05.09-.09.15-.12.22-.18.42-.33.85-.54,1.25A17,17,0,0,0,41.43,4.2c-.4,1.19-.82,2.36-1.2,3.55-.32,1-.6,2.08-.89,3.12-.07.25-.12.51-.18.77-.24.9-.45,1.8-.72,2.69-.34,1.1-.72,2.19-1.1,3.28-.32.93-.66,1.85-1,2.78a8.75,8.75,0,0,0-.27.87c-.26,1-.5,2.06-.75,3.08a.84.84,0,0,1-.14.24l-.34-.14c-1.19-.58-2.4-1.13-3.57-1.74-1.41-.74-2.79-1.53-4.19-2.29-.83-.44-1.68-.86-2.53-1.29-1.17-.58-2.35-1.15-3.51-1.75-1-.52-2-1.08-3-1.62l-3.21-1.7c-.42-.22-.82-.47-1.24-.69a.2.2,0,0,0-.32.23,9.64,9.64,0,0,0,.44,1c.25.5.55,1,.81,1.49s.46.95.69,1.43.61,1.22.89,1.84.5,1.27.78,1.89.59,1.19.91,1.77c.5.93,1,1.88,1.39,2.86.58,1.33,1.19,2.66,1.87,3.95.36.71.74,1.41,1.09,2.12.13.25.23.52.34.78.22.5.41,1,.66,1.51s.5.89.76,1.32a.62.62,0,0,1,.13.56l-1.1.36-1.07.38c-1.75.58-3.49,1.17-5.24,1.72-1.57.5-3.15,1-4.72,1.44-1.11.34-2.22.66-3.32,1-1.58.52-3.19.94-4.73,1.6a2.14,2.14,0,0,1-.27.09c-.58.18-1.16.36-1.73.56s-1,.39-1.53.6A.57.57,0,0,0,.11,44a.28.28,0,0,0,.1.5c.28.12.57.22.85.31l2.11.67L6,46.38l2.66.81,2.82.88c.58.17,1.16.34,1.74.49s1.22.28,1.81.49,1.23.37,1.82.63l.26.11,2.24.8a15.12,15.12,0,0,0,1.72.58,3.06,3.06,0,0,1,.43.13c.5.18,1,.35,1.5.55s.79.34,1.19.51a1.09,1.09,0,0,1-.05.25c-.22.48-.43,1-.69,1.44-.62,1.1-1.28,2.19-1.79,3.35s-1.06,2.05-1.55,3.1-1.06,2.18-1.57,3.27c-.39.83-.73,1.67-1.11,2.5s-.78,1.64-1.16,2.46c-.57,1.26-1.12,2.53-1.7,3.78-.35.76-.74,1.5-1.11,2.24-.06.13-.21.27-.05.41s.26,0,.37-.06.29-.18.44-.27a4.8,4.8,0,0,1,.48-.3c.66-.33,1.32-.64,2-1,1.36-.66,2.74-1.3,4.09-2s2.59-1.34,3.88-2,2.77-1.42,4.13-2.16c.62-.33,1.25-.63,1.87-1s1.49-.82,2.22-1.25,1.59-1,2.38-1.45a1.39,1.39,0,0,1,.57-.24c0,.07.08.11.09.16.38,1.19.84,2.36,1.13,3.58,0,.14.09.28.13.43.32,1.13.73,2.23,1,3.37s.61,2.24,1,3.33c.31.91.61,1.83.91,2.74.15.47.28.94.43,1.41.23.72.48,1.44.71,2.16.16.48.3,1,.46,1.46s.34.93.45,1.41a29.87,29.87,0,0,0,1.2,3.72.81.81,0,0,0,.37.48.49.49,0,0,0,.4-.36l.15-.6a2,2,0,0,1,.09-.44c.25-.56.39-1.15.6-1.72.32-.83.53-1.7.83-2.53s.46-1.64.72-2.45.54-1.61.87-2.4.76-1.69,1.15-2.53c.48-1.06.88-2.14,1.25-3.23.18-.5.36-1,.5-1.51.46-1.64.91-3.29,1.37-4.93a4.52,4.52,0,0,1,.49-1.26l1.58.8,2.93,1.52.65.35c1.14.58,2.3,1.15,3.44,1.74,1,.49,1.91,1,2.87,1.5l2.74,1.37,2.14,1.06c.87.42,1.75.81,2.61,1.25a23.05,23.05,0,0,0,2.5,1.09.16.16,0,0,0,.23,0,1.28,1.28,0,0,0-.08-.29c-.08-.19-.22-.36-.28-.55a6.72,6.72,0,0,0-.73-1.47s-.1-.08-.15-.12c-.08-.21-.15-.42-.25-.62-.46-1-1-1.9-1.38-2.87s-1-2.11-1.54-3.16l-1.14-2.22c-.29-.6-.58-1.19-.88-1.78-.18-.35-.4-.69-.57-1-.36-.71-.7-1.43-1-2.15s-.61-1.35-.88-2c-.41-1-.79-2.09-1.18-3.13a2.4,2.4,0,0,1-.19-.71,2.5,2.5,0,0,1,.37-.18l1-.32,1.4-.46c.58-.19,1.16-.36,1.72-.57,1.14-.43,2.26-.88,3.39-1.32.35-.14.72-.24,1.07-.37l3-1.11,3.14-1.17c.42-.16.85-.31,1.27-.48s.89-.4,1.34-.6a18.41,18.41,0,0,1,1.9-.77c.72-.21,1.43-.47,2.14-.74.42-.15.82-.36,1.23-.55C86.46,43.49,86.33,43.45,86.17,43.43ZM51.85,24c1-.54,2.09-1.07,3.12-1.62,1.35-.72,2.7-1.46,4-2.2.71-.4,1.4-.84,2.11-1.23,1-.52,1.91-1,2.87-1.5l2-1A44.72,44.72,0,0,1,71.28,14c.73-.25,1.44-.56,2.14-.86.12.09.06.18,0,.26a21.07,21.07,0,0,1-1.32,3c-.55,1-1,2.1-1.59,3.14-.28.54-.58,1.07-.86,1.6s-.51,1-.76,1.46c-.11.2-.24.39-.35.58-.58,1-1.07,2-1.56,3-.36.76-.75,1.52-1.12,2.29s-.77,1.65-1.17,2.46-.83,1.58-1.23,2.37c-.13.25-.21.53-.32.79a2.12,2.12,0,0,1-.31.65,1.06,1.06,0,0,1-.18-.24c-.15-.32-.29-.65-.44-1a.44.44,0,0,1,0-.43c.3-.53.59-1.06.87-1.6.75-1.42,1.49-2.85,2.25-4.27.39-.74.81-1.46,1.18-2.2A28.06,28.06,0,0,1,68,22.51a11.67,11.67,0,0,0,.65-1.27c.35-.71.73-1.4,1.12-2.1a30.64,30.64,0,0,0,1.78-3.41A8,8,0,0,1,72,15l-.15-.36s-.09,0-.12,0a23.82,23.82,0,0,0-3.49,1.77c-.72.42-1.46.81-2.19,1.22L64,18.76c-.92.52-1.85,1-2.81,1.48s-1.66.9-2.5,1.36l-1.74.94-1.47.75L52.9,24.56a.66.66,0,0,1-.7,0c-.18-.12-.43-.14-.6-.36A1.64,1.64,0,0,1,51.85,24Zm8.43,4.37c.42-.81.83-1.62,1.27-2.41.32-.58.68-1.14,1-1.7a2.13,2.13,0,0,1,.61-.66c.15-.1.2-.26.12-.52a9,9,0,0,0-1,.57c-.68.38-1.35.76-2,1.12s-1.51.71-2.24,1.09c-.54.28-1,.62-1.59.95l-.63-.43a.5.5,0,0,1-.12-.13.43.43,0,0,1,.09-.13c.66-.38,1.3-.77,2-1.14,1-.57,2.05-1.12,3.08-1.67l2-1.06c.82-.42,1.65-.83,2.48-1.24l.5-.23c.14.12,0,.21,0,.27a10.51,10.51,0,0,1-.6,1,18.39,18.39,0,0,0-1,1.6c-.2.3-.37.62-.55.93C62.82,26,61.94,27.5,61.07,29c-.21.36-.38.74-.58,1.1a2.43,2.43,0,0,1-.24.32c-.32-.14-.44-.42-.66-.66C59.83,29.27,60.05,28.82,60.28,28.37Zm-.84,1a.16.16,0,0,1-.1.05l-2.52-2.31a.66.66,0,0,1,.35-.38,19.63,19.63,0,0,1,1.75-.94c.87-.4,1.72-.86,2.58-1.3l.85-.43c0,.07,0,.12,0,.14C61.33,25.84,60.35,27.57,59.44,29.33Zm1.09,1.32c.09-.18.21-.35.3-.54.68-1.47,1.6-2.79,2.41-4.18.57-1,1.13-2,1.69-3,.13-.23.28-.45.42-.68l1.07-1.74c0-.05,0-.11,0-.18a.39.39,0,0,0-.51-.06c-.85.45-1.72.87-2.57,1.32s-1.91,1-2.86,1.53l-2.8,1.5-1.34.75-1.1.63a2.48,2.48,0,0,1-.89-.54c.16-.11.29-.22.43-.3,1.23-.66,2.47-1.31,3.7-2,.74-.39,1.46-.81,2.19-1.21l1.74-1c.33-.18.66-.37,1-.53.7-.33,1.34-.78,2-1.16l2-1.1c.43-.24.87-.46,1.31-.68a1.17,1.17,0,0,1,.2-.06l.08.09c-.22.44-.42.88-.65,1.32s-.64,1.16-1,1.73c-.51.91-1,1.8-1.55,2.71s-1.15,2.05-1.72,3.07c-.17.3-.33.6-.52.88a10.65,10.65,0,0,0-.57,1.05c-.53,1-1.06,2-1.6,2.94a3.68,3.68,0,0,1-.28.39,1.81,1.81,0,0,1-.19-.15c-.16-.21-.33-.42-.47-.64A.32.32,0,0,1,60.53,30.65Zm1,1.14c.38-.68.74-1.36,1.13-2,.55-1,1-2,1.61-2.93s.93-1.65,1.39-2.48l.82-1.43c.31-.54.62-1.08.94-1.62l1-1.67a12.14,12.14,0,0,0,1.09-2.45c-.08-.15-.16-.17-.26-.11l-3,1.61c-.24.14-.48.3-.73.44l-2.15,1.16c-.54.3-1.08.62-1.63.92L58.46,23c-.25.14-.52.24-.77.37L54.59,25c-.18.1-.35.22-.52.33l-1-.49a15.8,15.8,0,0,1,1.68-.93A20.38,20.38,0,0,0,56.65,23c.31-.15.58-.35.88-.52.65-.38,1.31-.75,2-1.11.5-.27,1-.54,1.52-.78.77-.36,1.52-.76,2.26-1.18l2.22-1.25c.63-.34,1.27-.67,1.89-1l1.67-1A20.22,20.22,0,0,1,71.4,15s.1,0,.15,0,0,.09,0,.12c-.15.34-.3.69-.47,1-.24.5-.48,1-.74,1.47s-.65,1.11-1,1.67-.69,1.26-1,1.9c-.09.18-.14.39-.23.58a7,7,0,0,1-.78,1.31,8.44,8.44,0,0,0-.89,1.51c-.34.7-.74,1.37-1.1,2.06-.5,1-1,2-1.5,2.93s-1.14,2.09-1.72,3.14c0,.05-.07.08-.15.19-.26-.3-.39-.61-.6-.9C61.43,32,61.46,31.87,61.5,31.79ZM35.65,24.36c.19-.79.38-1.57.58-2.36l.06-.28a6.49,6.49,0,0,1,.39-1.3,2.34,2.34,0,0,0,.19-.6,21.29,21.29,0,0,1,1-2.78c.22-.6.4-1.22.59-1.83,0-.07,0-.15,0-.22a27.65,27.65,0,0,0,.85-3.05c.21-.75.41-1.5.62-2.24.15-.53.31-1.06.47-1.58.08-.27.17-.54.26-.81.34-1.07.66-2.13,1-3.18a14.32,14.32,0,0,1,.93-2.26c.19-.32.32-.68.48-1a3.64,3.64,0,0,1,.23-.39s.07,0,.14-.07a.92.92,0,0,1,.13.21c.25,1,.66,2,1,3,.19.58.34,1.16.53,1.74C45.57,6.67,46,8,46.46,9.29c.06.2.12.4.17.6a8.87,8.87,0,0,0,.44,1.35,5.82,5.82,0,0,1,.3.92c.53,1.94,1.16,3.84,1.87,5.72.22.6.38,1.23.56,1.85s.36,1.15.53,1.73a.58.58,0,0,1,.05.16A15.85,15.85,0,0,0,51,23.86a1.31,1.31,0,0,1,0,.2,1.24,1.24,0,0,1-.27,0l-.86-.24L49.4,22.4c-.2-.58-.4-1.15-.58-1.73-.25-.79-.5-1.58-.7-2.39-.27-1.12-.6-2.23-.94-3.33s-.64-2.1-.9-3.16c-.22-.89-.46-1.76-.75-2.62S45,7.5,44.78,6.66a15.94,15.94,0,0,0-.92-2.5c-.1-.2-.15-.42-.24-.63a3.65,3.65,0,0,0-.18-.34c-.26,0-.34.16-.4.35-.14.41-.27.83-.42,1.24a24.65,24.65,0,0,0-.8,2.66c-.18.66-.37,1.31-.55,2-.28,1-.53,2-.82,3-.34,1.16-.71,2.32-1.07,3.47-.21.71-.42,1.42-.64,2.13-.28.92-.51,1.86-.86,2.76-.24.62-.41,1.26-.63,1.88a14.1,14.1,0,0,0-.59,1.65.4.4,0,0,1-.21.25,1.88,1.88,0,0,1-.83.19A2.06,2.06,0,0,1,35.65,24.36Zm8.72-5c-.12-.55-.31-1.09-.47-1.63l-.27-.92-.14-.38a1.33,1.33,0,0,0-.19.33,12.41,12.41,0,0,1-.46,1.58c-.19.67-.33,1.36-.53,2-.27,1-.57,1.92-.86,2.88,0,.09-.08.17-.11.25a1.47,1.47,0,0,1-1,.09,3.79,3.79,0,0,1,.23-1.1c.26-1,.56-1.92.81-2.89.42-1.63.89-3.25,1.36-4.87.23-.79.48-1.58.73-2.38a.87.87,0,0,1,.11-.18h.11c.18.66.37,1.31.52,2,.23,1,.42,2.08.64,3.11.16.72.32,1.44.49,2.16s.31,1.4.47,2.1c.07.31.17.62.25.93a4.32,4.32,0,0,1,.2.91,1.93,1.93,0,0,1-1,0,.93.93,0,0,1-.24-.64C44.84,21.58,44.63,20.45,44.37,19.32Zm.47,3.88a.78.78,0,0,1-.6.16,17.12,17.12,0,0,0-2.15.14,2.8,2.8,0,0,1-.41,0c-.08-.18,0-.33.06-.49.29-1,.59-2.07.88-3.11.11-.36.18-.74.27-1.1a3.79,3.79,0,0,1,.61-1.33c.09.21.18.42.26.63A10.87,10.87,0,0,1,44.22,20c.12.61.24,1.22.38,1.83A11.38,11.38,0,0,1,44.84,23.2Zm1.06-2.79c-.06-.37-.18-.73-.26-1.1-.35-1.61-.71-3.22-1-4.83-.14-.69-.3-1.37-.5-2-.09-.3-.2-.61-.31-.91a.19.19,0,0,0-.21-.15.28.28,0,0,0-.14.16c-.22.74-.44,1.49-.65,2.23q-.54,1.89-1,3.78c-.25.95-.47,1.91-.72,2.86-.14.53-.32,1.06-.47,1.58s-.32,1.05-.5,1.62a3.5,3.5,0,0,1-1.26.27c-.1-.15,0-.28,0-.4a2.36,2.36,0,0,1,.1-.38,3.5,3.5,0,0,0,.21-1.05.47.47,0,0,1,0-.17c.17-.44.34-.88.49-1.33.1-.28.18-.57.26-.86.11-.5.26-1,.4-1.48l1-3.43c.28-.95.57-1.88.81-2.84.18-.69.32-1.4.55-2.08s.43-1.17.65-1.76l.26-.7a1.45,1.45,0,0,1,.32.69q.4,1.37.78,2.73c.13.51.25,1,.33,1.55a16.69,16.69,0,0,0,.74,2.86,21.6,21.6,0,0,1,.81,2.71,4.52,4.52,0,0,1,.12.62,14.69,14.69,0,0,0,.81,3.06c.2.59.24,1.22.43,1.87l-.56,0-.45,0a.3.3,0,0,1-.25-.22A28.61,28.61,0,0,1,45.9,20.41Zm2,1.54c-.21-.78-.45-1.56-.66-2.34-.11-.4-.2-.81-.29-1.22a26,26,0,0,0-1-3.55A18.53,18.53,0,0,1,45.4,13c-.26-1.25-.5-2.52-.85-3.76-.18-.65-.43-1.29-.65-1.93a1.43,1.43,0,0,0-.16-.3c-.07-.11-.15-.21-.25-.34a1.51,1.51,0,0,0-.13.22c-.23,1-.62,1.87-.92,2.81-.14.47-.26.95-.39,1.42l-.66,2.29-.24.88c-.48,1.71-.95,3.42-1.44,5.13-.2.71-.42,1.42-.63,2.12s-.39,1.35-.58,2l-.1.37c-.43.18-.91.25-1.44.43a4.93,4.93,0,0,1,.11-.49c.3-.92.58-1.85.92-2.75S38.62,19,39,18c.09-.25.14-.51.22-.77.25-.83.45-1.68.76-2.49s.55-1.65.8-2.48.35-1.43.54-2.14c.4-1.48.8-3,1.23-4.44a19.71,19.71,0,0,1,.75-2.07h.13c.2.53.41,1,.61,1.58,0,.14.08.29.14.43.29.76.49,1.55.72,2.33s.44,1.49.65,2.24.43,1.53.64,2.29.41,1.58.64,2.36.51,1.66.77,2.49c0,.16.1.33.14.49.36,1.5.85,2.95,1.33,4.41.13.41.24.83.36,1.25a1.23,1.23,0,0,1,0,.26,8.49,8.49,0,0,1-1.14-.21C48.14,23,48,22.46,47.87,22ZM23.7,34.6c-.25-.48-.52-1-.72-1.47-.53-1.28-1.2-2.5-1.79-3.74-.5-1.05-1-2.09-1.48-3.13C19,24.81,18.35,23.38,17.58,22a6.74,6.74,0,0,1-.67-1.56,4.49,4.49,0,0,0-.34-.78C16,18.42,15.39,17.19,14.79,16c-.22-.46-.48-.91-.71-1.36-.09-.18-.17-.37-.25-.54.09-.12.16-.08.21,0a.57.57,0,0,0,.45.19.85.85,0,0,1,.37.12l1.86,1,2.51,1.32c.1.05.21.09.31.15l1.59.87c1,.52,2,1,3,1.56.65.33,1.34.62,2,.94s1.38.71,2.06,1.08c.48.26,1,.55,1.43.81s1.19.66,1.79,1l1.14.63L34,24.4l.92.47a.65.65,0,0,1,0,.1l0,0-1.14.69-.34-.18L31.2,24.28c-1-.58-2-1.19-3-1.77-.75-.43-1.53-.84-2.28-1.27-.38-.21-.74-.46-1.12-.67l-2.52-1.32-1-.52a33,33,0,0,1-3-1.67,4.36,4.36,0,0,0-.59-.35,10.39,10.39,0,0,0-1.18-.65c-.13,0-.25-.1-.38-.13a.33.33,0,0,0-.36.1.3.3,0,0,0,0,.37c.06.11.09.24.15.36.57,1.2,1.14,2.39,1.72,3.58.69,1.43,1.39,2.86,2.17,4.25,0,.05.06.1.08.15.47,1.14,1.11,2.19,1.67,3.29s1.16,2.17,1.76,3.24,1.12,2,1.68,3l.11.27-.6,1.2c-.22-.19-.26-.42-.4-.6A5.57,5.57,0,0,1,23.7,34.6Zm6.09-6.41c-.43-.28-.85-.57-1.28-.84s-.9-.56-1.37-.8c-.76-.4-1.47-.86-2.2-1.3l-1-.61a.71.71,0,0,0-.22-.05.18.18,0,0,0-.16.19,1.19,1.19,0,0,0,.11.26c.42.7.83,1.4,1.27,2.08s.86,1.3,1.3,1.93.75,1.05,1.13,1.57c.09.12.17.25.25.38a2,2,0,0,1-.5.6c-.18,0-.25-.11-.32-.22-.27-.45-.53-.91-.81-1.36a20.54,20.54,0,0,0-1.63-2.39l-.1-.14c-.44-.82-.86-1.64-1.32-2.45s-.78-1.34-1.17-2l-.52-1c.08-.11.14-.09.21-.05l2.78,1.67c.14.09.3.16.44.24.78.44,1.57.85,2.33,1.31s1.75,1.12,2.62,1.69l.86.56a3.18,3.18,0,0,1,.34.31,2.29,2.29,0,0,1-.67.57A2.21,2.21,0,0,1,29.79,28.19Zm0,.44a19.42,19.42,0,0,1-2,2.07c-.16-.18-.34-.35-.49-.54a36.74,36.74,0,0,1-3.08-4.62,1.64,1.64,0,0,1-.07-.25.8.8,0,0,1,.22,0c.23.11.44.23.66.35,1,.59,2,1.17,3,1.78.57.34,1.11.72,1.66,1.09A.58.58,0,0,1,29.8,28.63Zm-.71-2.41c-.65-.39-1.28-.82-1.93-1.2-.86-.52-1.74-1-2.61-1.49-.24-.14-.46-.33-.71-.47-.67-.39-1.34-.78-2-1.16-.26-.14-.55-.25-.83-.37a1.07,1.07,0,0,0-.25,0,.24.24,0,0,0,0,.33c.21.38.44.75.66,1.13.67,1.17,1.37,2.32,2,3.5.5.94,1.13,1.8,1.69,2.69l.58,1,.45.72L26.81,32l-.7,1c-.23,0-.29-.16-.37-.28l-.84-1.48c-.36-.6-.72-1.2-1.07-1.81S23,28,22.67,27.3s-.68-1.23-1-1.83c-.1-.19-.22-.36-.31-.54-.62-1.22-1.25-2.43-1.84-3.65-.38-.78-.7-1.59-1.05-2.39a3.25,3.25,0,0,1-.11-.42c.12-.09.19,0,.27,0l1.18.79c.48.33.95.7,1.45,1,1.14.68,2.24,1.42,3.44,2a24.82,24.82,0,0,1,3,1.73c.37.26.78.46,1.17.7.24.15.48.31.7.48.58.44,1.23.76,1.83,1.15a2.46,2.46,0,0,1,.66.49l-.41.31-.4.33A16.92,16.92,0,0,1,29.09,26.22Zm1.58-.61L28,23.89c-1.08-.67-2.16-1.33-3.3-1.89a21.24,21.24,0,0,1-2.31-1.33c-.51-.33-1-.62-1.55-.94S19.7,19,19.13,18.6c-.28-.19-.58-.36-.87-.53l-.15.11a.3.3,0,0,0-.12.4c.14.29.26.59.39.88s.27.63.41.93c.29.62.58,1.24.88,1.85s.76,1.48,1.15,2.22l1.12,2c.41.72.81,1.45,1.22,2.18.11.18.24.34.34.52.48.84,1,1.68,1.42,2.52.29.53.56,1.07.86,1.63a4.18,4.18,0,0,1-.54.88c-.15-.25-.29-.46-.41-.67-.32-.57-.66-1.14-1-1.73-.87-1.68-1.83-3.31-2.64-5-.25-.53-.57-1-.84-1.55-.14-.25-.24-.51-.37-.76-.24-.45-.51-.89-.73-1.34-.45-.9-.87-1.81-1.31-2.71l-1.15-2.4c-.21-.45-.42-.89-.62-1.34a1.47,1.47,0,0,1,0-.36.46.46,0,0,1,.46.08l1.62.93c.94.54,1.87,1.08,2.82,1.59,1.55.84,3.15,1.58,4.65,2.5.64.38,1.3.7,1.94,1.07,1.61.92,3.21,1.86,4.82,2.79.3.17.56.37.86.57a1.26,1.26,0,0,1-.45.39l-.47.33C31.81,26.29,31.23,26,30.67,25.61Zm-6.88,26.3c-.27-.1-.54-.19-.8-.3-.75-.32-1.53-.54-2.31-.79s-1.56-.57-2.35-.85c-.51-.19-1-.36-1.55-.54S16,49.14,15.54,49l-3.86-1.15-2.5-.77-4-1.19c-1.32-.39-2.64-.8-3.94-1.29a2,2,0,0,1-.81-.34.82.82,0,0,1,.18-.19c.29-.14.58-.28.88-.4.53-.21,1.06-.4,1.61-.56a14.17,14.17,0,0,0,1.54-.56c1-.38,1.94-.66,2.9-1,.63-.2,1.27-.37,1.91-.57l3.3-1c.87-.26,1.75-.5,2.62-.77.68-.21,1.37-.44,2-.67L20,37.7l2.75-.91,1-.31c.15,0,.15,0,.46.05a3.83,3.83,0,0,1-.43,1,.65.65,0,0,1-.35.28,30.23,30.23,0,0,1-3.33,1.11l-3.13.82c-1,.29-2.07.6-3.1.91-.29.09-.57.21-.85.32l-1.6.59c-.73.28-1.44.57-2.18.82-1,.36-2.13.68-3.19,1-.65.21-1.29.44-1.93.66a.38.38,0,0,0-.12.09c0,.14.07.18.16.21,1.37.37,2.7.85,4,1.33.55.2,1.13.32,1.69.49l3.87,1.13c.8.24,1.6.44,2.4.7,1.17.37,2.33.79,3.49,1.18l1.56.52,2.31.87L24,51.94A1.19,1.19,0,0,1,23.79,51.91ZM23.42,39c-.58.2-1.06.39-1.55.53-.73.21-1.46.39-2.19.59-1,.27-2,.56-3,.89-.84.28-1.69.53-2.55.78-1.12.32-2.26.61-3.38.95-1,.29-1.91.62-2.87.93l-.29.14c.09.09.13.18.2.2.23.09.47.15.71.23l3.12,1.05c1.3.42,2.59.86,3.89,1.26.81.25,1.65.42,2.47.64,1.12.3,2.27.46,3.36.83l1.3.44a2.53,2.53,0,0,1,.36.19,11.45,11.45,0,0,1,.34,1.53c-.16,0-.28-.05-.4-.09l-5.43-1.87-1-.33c-1.19-.37-2.39-.72-3.6-1.06-1.71-.48-3.41-1-5.11-1.52-1-.31-2-.66-3-1l-.34-.13c0-.06.07-.12.1-.13l1.52-.48c.68-.21,1.38-.41,2.06-.63s1.32-.46,2-.7l3.26-1.18c1.49-.52,3-1,4.51-1.37.84-.24,1.69-.44,2.53-.67.49-.13,1-.29,1.46-.44l1.34-.47.23,0C23.61,38.44,23.28,38.69,23.42,39Zm-1.56,3c-1,.31-2,.62-3,.91-.56.16-1.13.28-1.7.43a4.41,4.41,0,0,0-1.28.44,2.43,2.43,0,0,0-.23.23l.47.16a39.6,39.6,0,0,1,4.61,1.43c.51.19,1,.33,1.57.5l.33.1a1.26,1.26,0,0,1,.09.68s-.05.07-.06.07h-.06l-.33-.07c-3.2-.85-6.4-1.71-9.5-2.87a.93.93,0,0,1-.16-.11c.07-.06.09-.09.12-.1l2.83-1a1.41,1.41,0,0,1,.22-.06,21.32,21.32,0,0,0,3.38-1c.37-.12.76-.21,1.14-.32l2.24-.65.27-.06c.09.34.09.34-.05,1Zm.85.38a1.93,1.93,0,0,1,0,.34,27.16,27.16,0,0,0-.1,3.14,7.87,7.87,0,0,1-1.52-.4c-.77-.27-1.53-.54-2.31-.8s-1.54-.5-2.32-.75c.07-.17.24-.18.37-.21.5-.13,1-.23,1.49-.37,1.1-.3,2.18-.63,3.27-1l.71-.19a3.22,3.22,0,0,1,.37,0C22.68,42.32,22.71,42.37,22.71,42.43Zm-.42-1.83-2.06.63-3.69,1.13c-.26.08-.52.1-.78.18-.72.23-1.43.47-2.15.72l-1.12.41c-.22.08-.21.09-.5.39.37.14.68.28,1,.39l3.55,1.19c1,.35,2.11.62,3.17.89q1.26.33,2.52.69a4.74,4.74,0,0,1,.58.24q.06.33.09.63s0,.06-.06.12l-.2,0c-.58-.17-1.16-.34-1.74-.54a21.15,21.15,0,0,0-2.26-.51,32.63,32.63,0,0,1-3.39-.93c-1.1-.36-2.2-.69-3.3-1l-2.7-.89c-.25-.09-.51-.15-.76-.24a1.19,1.19,0,0,1-.23-.13,1.06,1.06,0,0,1,.21-.14c.54-.18,1.08-.35,1.61-.54.74-.24,1.51-.38,2.26-.59,1.11-.31,2.21-.64,3.32-1,.9-.28,1.8-.59,2.7-.86.67-.2,1.36-.35,2-.54l2.52-.71a2.27,2.27,0,0,1,.25-.06.45.45,0,0,1,.06.13c0,.24-.11.48-.17.73ZM35.38,63.39c-.29.18-.58.36-.88.52-.6.32-1.14.74-1.71,1.11a24,24,0,0,1-2.63,1.45c-.55.27-1.08.54-1.62.83l-3.41,1.81-1.85,1c-.4.21-.81.41-1.22.61-1.44.72-2.87,1.45-4.31,2.16-1,.46-1.93.89-2.89,1.33l-.88.42c-.08-.19,0-.32.08-.45l.78-1.7c.27-.57.54-1.13.79-1.71.6-1.37,1.24-2.71,1.91-4.05.47-.93.85-1.89,1.28-2.84.35-.77.71-1.55,1.09-2.31.64-1.33,1.3-2.65,1.94-4A24,24,0,0,1,23.3,55a15.59,15.59,0,0,0,.93-1.82c.07-.15.15-.3.28-.53a4.52,4.52,0,0,1,.51,1c-.5.84-.81,1.78-1.28,2.65-.23.42-.39.89-.61,1.33-.56,1.12-1.11,2.24-1.66,3.37-.16.32-.29.65-.44,1q-.9,1.9-2,3.72c-.39.69-.74,1.41-1.12,2.11-.16.3-.32.6-.51.89a29.81,29.81,0,0,0-1.57,2.82c-.11.24-.2.49-.29.74a.66.66,0,0,0,0,.5.57.57,0,0,0,.59,0l2.9-1.56.16-.07c1.07-.64,2.22-1.14,3.32-1.72.68-.37,1.37-.74,2-1.13a18.39,18.39,0,0,1,2.36-1.25c.33-.14.65-.31,1-.47a39.33,39.33,0,0,0,3.47-1.94c.85-.53,1.72-1,2.59-1.52a2.32,2.32,0,0,1,.36-.16.84.84,0,0,1,.77,0,5.9,5.9,0,0,0,.53.3A2.79,2.79,0,0,1,35.38,63.39Zm-7.67-4.86c-.81,1.27-1.7,2.5-2.6,3.72-.47.63-.89,1.31-1.33,2a1.1,1.1,0,0,0-.09.23,1,1,0,0,0,.6-.22c1.12-.75,2.23-1.51,3.35-2.24.78-.51,1.57-1,2.36-1.48l.6-.35a4.1,4.1,0,0,1,.86.75c-.08.08-.13.17-.21.21-2.81,1.81-5.59,3.68-8.5,5.33a11.8,11.8,0,0,1-1.89,1c-.12-.11-.05-.2,0-.27.36-.58.69-1.18,1.09-1.73A26.91,26.91,0,0,0,24,62,27.15,27.15,0,0,1,26,58.65l1.09-1.52.16-.22a2.39,2.39,0,0,1,.78.9A2.85,2.85,0,0,1,27.71,58.53Zm.63-.36a12.11,12.11,0,0,1,2,1.8c-.11.09-.22.19-.34.27L27.53,61.7l-.62.41c-.74.52-1.47,1-2.25,1.5-.13-.14,0-.23,0-.3l1.2-1.73,1.66-2.3C27.83,58.92,28.08,58.54,28.34,58.17Zm-2.11-.24c-.37.55-.75,1.09-1.14,1.63a23.32,23.32,0,0,0-1.82,3.14c-.17.32-.33.64-.52.94-.55.91-1.12,1.8-1.68,2.7-.26.42-.52.84-.79,1.25a.31.31,0,0,0,.06.47,1.21,1.21,0,0,0,.48-.24c.15-.07.31-.13.46-.21.83-.46,1.66-.92,2.47-1.4,1-.59,2-1.2,3-1.83s2-1.36,3.07-2l.2-.11a11.61,11.61,0,0,0,1.53-1c.09-.06.2-.11.31-.17l.86.52a4.72,4.72,0,0,1-.82.63l-2.33,1.5c-.08.05-.16.11-.24.15-1.35.66-2.6,1.47-3.92,2.18q-1.5.81-3,1.65c-.82.47-1.62,1-2.45,1.44a19,19,0,0,1-2.06,1c-.1-.13,0-.2,0-.27a1.23,1.23,0,0,1,.12-.26l1.14-1.83c.32-.51.64-1,1-1.55.58-1,1.14-1.91,1.71-2.87l1.62-2.74c.11-.18.22-.36.32-.54l1.15-2L26.18,56c.06-.1.13-.18.21-.3a2.88,2.88,0,0,1,.65.83A7.58,7.58,0,0,1,26.23,57.93Zm-.88-1c-.5.89-1,1.77-1.52,2.66L22.2,62.34c-.62,1.09-1.22,2.18-1.85,3.26-.32.54-.67,1.05-1,1.58L18.22,69l-.55.92a4.39,4.39,0,0,0-.26.63c0,.07,0,.16,0,.27l.2-.06,1-.57.79-.46,2.17-1.23L24.37,67c.53-.29,1.07-.56,1.59-.86l2.3-1.36c.38-.22.77-.4,1.14-.64,1-.63,2-1.28,3-1.92.23-.15.45-.28.7-.42l1.1.69c-.11.08-.17.14-.25.19-.56.32-1.13.62-1.68,1s-1.28.8-1.92,1.2c-.37.22-.75.45-1.14.64-.6.31-1.23.58-1.84.88s-1.51.7-2.24,1.1c-.46.26-.89.58-1.34.86-.64.4-1.31.75-2,1.09s-1.23.67-1.88.94c-.82.35-1.56.84-2.34,1.26-.5.27-1,.51-1.52.76l-.2,0a1.22,1.22,0,0,1,0-.27,3.75,3.75,0,0,1,.25-.63c.4-.75.8-1.51,1.24-2.23.66-1.08,1.29-2.18,1.86-3.32.32-.64.7-1.25,1.05-1.88.18-.31.34-.63.49-.95.59-1.23,1.16-2.47,1.75-3.69.33-.67.69-1.31,1-2,.07-.15.13-.31.2-.47l1.16-2.46a1.32,1.32,0,0,1,.36-.48,7.55,7.55,0,0,1,.9,1.3C25.88,55.89,25.63,56.4,25.35,56.89Zm26.28,7.44c-.27,1-.55,2-.83,3q-.7,2.55-1.56,5a16,16,0,0,1-.66,1.69c-.55,1.2-1.09,2.41-1.57,3.64a25.42,25.42,0,0,0-1.16,3.62c-.08.38-.25.75-.37,1.13s-.31,1-.48,1.46l-.94,2.73c-.07.21-.13.42-.2.63a.39.39,0,0,1-.33-.24A10.66,10.66,0,0,1,43,85.5a2.76,2.76,0,0,0-.08-.27c-.2-.63-.4-1.26-.56-1.9s-.4-1.23-.59-1.84-.44-1.49-.68-2.23-.48-1.47-.67-2.22a4,4,0,0,0-.17-.49c-.43-1.25-.88-2.49-1.28-3.76-.25-.75-.42-1.53-.62-2.3a22.67,22.67,0,0,0-.66-2.17,15.78,15.78,0,0,1-.44-1.53,28.23,28.23,0,0,0-.86-2.7,1.5,1.5,0,0,1-.13-.58,3.65,3.65,0,0,1,1.06.24,1.16,1.16,0,0,1,.21.58,18.38,18.38,0,0,0,1,3.14c.15.43.38.82.57,1.24A9.81,9.81,0,0,1,39.8,71c.43,2,1,3.94,1.48,5.89.12.42.25.84.38,1.26.27.92.55,1.85.81,2.78.22.76.4,1.53.64,2.29a2.62,2.62,0,0,0,.62,1.11.88.88,0,0,0,.14-.17c.25-.86.65-1.66,1-2.49a13.44,13.44,0,0,0,.61-1.89c.14-.6.35-1.19.53-1.79s.26-1,.41-1.47.31-.9.49-1.33c.46-1.09.75-2.23,1.1-3.35.18-.54.32-1.09.45-1.64s.35-1.08.52-1.62c.34-1.07.76-2.11,1.2-3.13a2.58,2.58,0,0,0,.19-.53.6.6,0,0,1,.38-.46L51.6,64C51.76,64.12,51.65,64.24,51.63,64.33ZM42.2,67.44c.07.25.17.5.25.75s.24.64.33,1c.25.89.53,1.78.69,2.69a.38.38,0,0,0,.05.16.16.16,0,0,0,.14.07s.08-.06.12-.09a.14.14,0,0,0,0-.06,19.07,19.07,0,0,1,.68-2.57c.09-.35.16-.7.26-1,.23-.84.48-1.67.72-2.51a2,2,0,0,1,.1-.22c.13,0,.26,0,.39,0s.53,0,.81,0a.7.7,0,0,1,0,.43c-.22.86-.41,1.74-.7,2.58s-.53,1.73-.76,2.61c-.16.62-.32,1.25-.5,1.86-.09.33-.22.65-.33,1-.2.57-.39,1.14-.61,1.78a2.39,2.39,0,0,1-.14-.31c-.25-.88-.51-1.75-.74-2.62S42.51,71,42.22,70c-.4-1.24-.72-2.51-1.06-3.77-.06-.26-.15-.51-.22-.76a.9.9,0,0,1,0-.28.24.24,0,0,1,.05-.1s.08,0,.11,0l.47.12c0,.13.12.26.17.4C41.87,66.23,42,66.84,42.2,67.44ZM42,65.56a.42.42,0,0,1,0-.19l3.17.29a1.2,1.2,0,0,1-.09.59,24.68,24.68,0,0,0-.79,2.83c-.12.48-.28.94-.43,1.41-.05.14-.12.27-.18.41,0,0-.09-.05-.1-.08Zm-.75,1.89c.17.58.33,1.16.49,1.74l.57,2.14,1,4,.21.77.09.32c0,.1.1.19.2.16s.11-.09.15-.14,0,0,0-.06c.2-.69.44-1.37.69-2s.39-1.38.59-2.08c.29-1,.57-2.07.87-3.11.14-.47.33-.93.47-1.4s.24-1,.35-1.49a2.49,2.49,0,0,1,.22-.77,3.26,3.26,0,0,1,.92-.14c.12.11.07.22,0,.33-.22.82-.45,1.64-.69,2.45-.34,1.18-.6,2.39-1,3.54-.14.38-.21.77-.32,1.15a9.9,9.9,0,0,1-.58,1.66,6.19,6.19,0,0,0-.39,1.12c-.32,1.21-.68,2.4-1.09,3.58-.06.18-.07.37-.12.55a.35.35,0,0,1-.07.15s-.06,0-.1.06a.94.94,0,0,1-.26-.49c-.18-.65-.39-1.3-.52-2-.29-1.45-.72-2.86-1.14-4.28s-.75-2.66-1.12-4l-1-3.61-.24-.87a.92.92,0,0,1,1.07.59C40.8,66,41,66.72,41.22,67.45Zm-.86,1.41c.28,1.06.58,2.12.88,3.18.21.76.42,1.53.66,2.29a33.88,33.88,0,0,1,.83,3.3,15.93,15.93,0,0,0,.77,2.61,1.86,1.86,0,0,0,.19.34.17.17,0,0,0,.31-.07c.11-.34.21-.68.31-1,.3-1,.59-2,.89-3A18.09,18.09,0,0,1,46,74.29a10.45,10.45,0,0,0,.35-1.08c.21-.69.39-1.38.63-2.06s.38-1.43.58-2.14.31-1.13.48-1.7.31-1.09.48-1.63a2.84,2.84,0,0,1,.13-.38.39.39,0,0,1,.28-.25l1-.26s.05,0,.1.07a3.31,3.31,0,0,1-.14.41c-.3.76-.63,1.5-.89,2.27-.32.93-.58,1.88-.87,2.82C47.7,71.57,47.41,72.81,47,74c-.34.92-.66,1.86-1,2.79s-.59,2-.87,3a10.7,10.7,0,0,1-.48,1.45c-.27.65-.53,1.3-.8,1.94a2.19,2.19,0,0,1-.17.29.39.39,0,0,1-.29-.32c-.13-.38-.26-.76-.36-1.14-.27-1-.5-2-.77-3-.17-.62-.39-1.23-.56-1.85-.57-2-1.09-3.9-1.51-5.89a14.27,14.27,0,0,0-.9-2.75A22,22,0,0,1,37.93,65a7.74,7.74,0,0,1-.17-.93,12,12,0,0,1,1.28.39l.18.47C39.69,66.18,40,67.53,40.36,68.86Zm10.77-5c-.15.08-1.64.64-2.09.9a2,2,0,0,1-.5.09,15.3,15.3,0,0,1-3.09.4l-1.25,0a14.2,14.2,0,0,1-3.3-.53,9.68,9.68,0,0,1-1.18-.41c-.34-.12-.68-.22-1-.35a1.78,1.78,0,0,1-.66-.33,1.11,1.11,0,0,0-.59-.28l-1.11-.25a.86.86,0,0,1-.21-.07,17.56,17.56,0,0,1-2.85-1.41,23.52,23.52,0,0,1-2.72-1.83,8.27,8.27,0,0,1-.64-.56c-.55-.54-1.13-1.06-1.64-1.64s-1.05-1.3-1.55-2a2.77,2.77,0,0,1-.26-.55c-.23,0-.34-.24-.45-.41a8.57,8.57,0,0,1-.58-1,6.73,6.73,0,0,1-.71-1.42.31.31,0,0,0-.08-.15,4.64,4.64,0,0,1-.95-2c-.11-.36-.19-.73-.29-1.09a6.38,6.38,0,0,1-.27-1.51,1.66,1.66,0,0,0,0-.22,12.41,12.41,0,0,1-.24-3.1q0-.51,0-1a16.85,16.85,0,0,1,.62-3.8,2.76,2.76,0,0,0,.08-.27,8.57,8.57,0,0,1,1-2.82c.1-.23.17-.46.26-.69.18-.44.24-.48.72-.47a1.84,1.84,0,0,1,.36.05c0,.06.07.09.07.12,0,.63,0,1.25,0,1.87,0,.18-.12.27-.2.39a.58.58,0,0,0,.07.78.43.43,0,0,0,.71-.13.56.56,0,0,0-.07-.68.6.6,0,0,1-.15-.4,6.42,6.42,0,0,1-.07-1.58,2.44,2.44,0,0,1,.06-.31c.28-.15.55,0,.81,0a1.37,1.37,0,0,1,.77,0,1.72,1.72,0,0,1,.11.46c0,.4,0,.8,0,1.19a.49.49,0,0,1-.17.35,1.06,1.06,0,0,0-.1,1.07.53.53,0,0,0,.16.23.35.35,0,0,0,.57-.1.69.69,0,0,0,.07-.65,3.45,3.45,0,0,1-.23-1.55c0-.21,0-.42,0-.63s0-.26,0-.42a8.82,8.82,0,0,1,1.84-.13,2.73,2.73,0,0,1,.08.34c0,.27,0,.53,0,.8a1.59,1.59,0,0,1-.31,1.17.58.58,0,0,0-.11.54.53.53,0,0,0,.55.4.56.56,0,0,0,.48-.49.81.81,0,0,0-.14-.59.75.75,0,0,1-.17-.53c0-.32,0-.64,0-1a1.08,1.08,0,0,1,.14-.69c.61,0,1.23,0,1.86,0a1.28,1.28,0,0,1,.08.29c0,.45,0,.91,0,1.36a1,1,0,0,1-.26.79.74.74,0,0,0-.18.58.57.57,0,0,0,.2.39.4.4,0,0,0,.69-.15.91.91,0,0,0-.12-1,.19.19,0,0,1-.07-.14c0-.68,0-1.36,0-2a3.73,3.73,0,0,1,1.87,0,.47.47,0,0,1,.06.15c0,.59,0,1.18,0,1.76a.6.6,0,0,1-.1.25,2.14,2.14,0,0,0-.13.19.51.51,0,0,0,.36.82H35c.54.09.76-.12.67-.66-.06-.37-.06-.37-.51-.62a7.3,7.3,0,0,1,0-1.93c.72-.1,1.41,0,2.13,0a7.4,7.4,0,0,1,0,1.94,1.4,1.4,0,0,1-.21.4.78.78,0,0,0-.07.6.54.54,0,0,0,.32.37.38.38,0,0,0,.43-.06.74.74,0,0,0,.1-1.06.76.76,0,0,1-.22-.5c0-.47,0-1,0-1.42a1.07,1.07,0,0,1,.09-.27,6,6,0,0,1,1,0,2.9,2.9,0,0,0,.51,0s.09-.09.17-.17a.75.75,0,0,0-.25-.1l-2.72,0-1,0-3-.09-1,0c-.45,0-.91,0-1.36,0-.68,0-1.36.12-2,.13s-1.29,0-1.93-.06l-.85-.05c0-.23.11-.37.2-.52a.37.37,0,0,1,.34-.17c1.36-.05,2.72-.12,4.09-.16.5,0,1,0,1.52,0,1.65,0,3.3.11,4.95,0,.45,0,.9,0,1.36,0a4.78,4.78,0,0,0,.73-.11s0-.09.06-.14c-.18-.11-.35,0-.51,0-1.42,0-2.84.16-4.26.07-1.69-.1-3.38,0-5.06,0-.64,0-1.29,0-1.93.09a3.07,3.07,0,0,1-.85,0,.56.56,0,0,1,.05-.19c.14-.22.29-.43.45-.66h.75c1.84,0,3.67-.11,5.51-.13,1.38,0,2.77,0,4.15,0l2.09,0a1.32,1.32,0,0,0,.34,0s.08-.1.16-.2a2.32,2.32,0,0,0-.76-.08H33.9c-1.9,0-3.79,0-5.69,0a7,7,0,0,0-.79.06,1.21,1.21,0,0,1-.67-.08,1.56,1.56,0,0,1,.34-.54c.89-1,1.73-2.05,2.72-3,.13-.13.23-.31.45-.33a.13.13,0,0,0,.09-.06,5.18,5.18,0,0,1,1.44-1.32,15.4,15.4,0,0,1,1.58-1.1c.33-.22.67-.44,1-.64a5.26,5.26,0,0,1,.71-.36c.42-.16.86-.29,1.28-.46A19.44,19.44,0,0,1,39.53,24a5.08,5.08,0,0,1,1.4-.18,7.92,7.92,0,0,0,1.19-.07,24.59,24.59,0,0,1,4.54,0c.6.06,1.21.07,1.81.15a11.1,11.1,0,0,1,2.54.56l.16.05a10.58,10.58,0,0,1,3.27,1.42l1.35.83A17.38,17.38,0,0,1,58,28.5a12.77,12.77,0,0,1,1.64,1.73l1.56,2a1.42,1.42,0,0,1,.14.23c0,.15-.15.12-.24.11a5.65,5.65,0,0,0-1.36,0c-.5.06-1,0-1.53,0a10.31,10.31,0,0,1-1.47,0,2.67,2.67,0,0,0-.4,0,16.73,16.73,0,0,1-2.83.07c-1.13-.05-2.27,0-3.4-.07-.51,0-1-.06-1.53-.08a1.44,1.44,0,0,0-.76.15c.08,0,.13.12.19.12l4.15,0,2.38.06c.26,0,.53,0,.79,0h1.53l3.18,0,.68,0,.91.08a1,1,0,0,1,.26.56,1.38,1.38,0,0,1-.84.1,20.32,20.32,0,0,0-2.21,0c-.76,0-1.52,0-2.28,0l-4.83,0c-.45,0-.91,0-1.36,0H49c-.14,0-.3,0-.45.14a1.67,1.67,0,0,0,.61.13l1.19,0,1.36,0c.91,0,1.81.06,2.72.07,1.1,0,2.2,0,3.3,0s2-.05,3.06-.06H62a1.13,1.13,0,0,1,.33.67c-.09,0-.19.11-.29.11h-.85c-.91,0-1.81-.09-2.72-.09-.7,0-1.4,0-2.1,0l-2.72,0c-.44,0-.87,0-1.31.05l-2.1.07c-.79,0-1.58.06-2.38.1,0,0-.06,0-.1,0s0,.19.13.19.41,0,.62,0a.93.93,0,0,1,.63.07c0,.14,0,.29,0,.43,0,.4,0,.8,0,1.2a.61.61,0,0,1-.18.46,1.9,1.9,0,0,0-.22.33.56.56,0,0,0,.06.64.38.38,0,0,0,.44.18,2.81,2.81,0,0,0,.31-.1.8.8,0,0,0,0-1,.74.74,0,0,1-.12-.31c-.06-.61,0-1.21,0-1.82a1.21,1.21,0,0,1,.36-.11,6.76,6.76,0,0,1,1.62,0c0,.05.07.08.08.11.05.52.1,1.05.14,1.58a.46.46,0,0,1-.23.48,1,1,0,0,0-.18.22c-.25.35-.16.85.48.92a.39.39,0,0,0,.44-.34,1.05,1.05,0,0,0-.08-.72,1.1,1.1,0,0,1-.14-.42,8.84,8.84,0,0,0-.15-1.36,3.38,3.38,0,0,1,0-.45c.26-.18.56-.09.83-.13a1.59,1.59,0,0,1,.81,0,4.18,4.18,0,0,1,.09,1.06c0,.36,0,.72,0,1.09-.07.09-.16.19-.23.3a.68.68,0,0,0,.07.79.45.45,0,0,0,.47.13.32.32,0,0,0,.26-.26c.08-.32.15-.64-.17-.88-.11-.08-.1-.19-.11-.3,0-.42,0-.84,0-1.25a4.28,4.28,0,0,1,0-.62s0-.07.06-.11l.54,0,.57,0c.19,0,.38-.07.58.07A5.4,5.4,0,0,1,55.73,36c0,.13,0,.27,0,.4a.91.91,0,0,1-.22.88.78.78,0,0,0,0,.91.48.48,0,0,0,.52.13.36.36,0,0,0,.24-.36,1.71,1.71,0,0,0-.15-.77.93.93,0,0,1-.1-.38l-.12-1.7c0-.09,0-.18,0-.3a16.28,16.28,0,0,1,2.32,0,10.29,10.29,0,0,1,.1,1.91c-.08.08-.15.17-.23.24a.71.71,0,0,0-.18.69.51.51,0,0,0,.5.39.4.4,0,0,0,.4-.26c.2-.48.18-.56-.2-.89,0-.59,0-1.17-.07-1.76,0-.25.09-.36.33-.35a15.45,15.45,0,0,1,1.89.14c0,.25.07.49.09.73s0,.49,0,.74a.88.88,0,0,1-.2.68.62.62,0,0,0-.14.25.68.68,0,0,0,.55.89.42.42,0,0,0,.4-.25.72.72,0,0,0,0-.61c-.09-.17-.2-.32-.35-.58V35.05a2.13,2.13,0,0,1,1.33,0,9.07,9.07,0,0,1,.7,1.51s0,0,0,.06c.25.65.5,1.3.7,2a7.82,7.82,0,0,1,.38,1.71,25.68,25.68,0,0,1,.23,4c0,.41,0,.83-.1,1.24-.17,1.17-.3,2.33-.58,3.48-.13.53-.31,1-.43,1.58s-.2.8-.32,1.2a14.15,14.15,0,0,1-.84,2.1A21.84,21.84,0,0,1,61,56.06a13.9,13.9,0,0,1-1.71,2c-.48.48-1,1-1.46,1.42a6.51,6.51,0,0,1-.58.46,30.71,30.71,0,0,1-4,2.73C52.56,63.12,51.85,63.52,51.13,63.9Zm-25-26.11a.48.48,0,0,1,.19.37C26,38.18,26,38.15,26.1,37.79Zm2.12,0a3.45,3.45,0,0,1,.2.32,2.22,2.22,0,0,1-.11.22.16.16,0,0,1-.15,0,.44.44,0,0,1-.13-.51C28.05,37.8,28.18,37.76,28.22,37.82Zm2.18-.26a1.51,1.51,0,0,1,.15.28.2.2,0,0,1-.17.25.25.25,0,0,1-.26-.17C30.07,37.78,30.14,37.69,30.4,37.56Zm2.48.26a1.89,1.89,0,0,1,.06.21v.11c0,.17-.12.29-.23.28a.33.33,0,0,1-.26-.26.46.46,0,0,1,.15-.41A.17.17,0,0,1,32.88,37.82Zm1.9.06a.34.34,0,0,1,.11-.18.24.24,0,0,1,.31,0,1.54,1.54,0,0,1,.23.29.34.34,0,0,1-.46.14C34.86,38.09,34.76,38,34.78,37.88Zm2.67-.26c.27.27.29.35.15.56a.18.18,0,0,1-.29,0C37.13,38,37.16,37.85,37.45,37.62Zm23.72-.26c.06.07.14.14.15.23a.32.32,0,0,1,0,.25.18.18,0,0,1-.25,0c-.18-.16-.2-.3-.05-.42a.16.16,0,0,1,.09,0S61.15,37.34,61.17,37.36Zm-2.49,0a.21.21,0,0,1,.06.25.23.23,0,0,1-.27.15.33.33,0,0,1-.21-.15.3.3,0,0,1,.17-.43C58.5,37.23,58.6,37.28,58.68,37.35Zm-4.88,0a.19.19,0,0,1,.12.1.78.78,0,0,1,0,.22,1.62,1.62,0,0,1,0,.2c-.36-.06-.45-.23-.27-.46A.16.16,0,0,1,53.8,37.36Zm-4.48,0c.13,0,.25.24.23.41a.29.29,0,0,1-.34.22.29.29,0,0,1-.2-.35C49,37.51,49.2,37.37,49.32,37.39Zm2.4,0c.17,0,.3.18.29.4a.2.2,0,0,1-.2.21.32.32,0,0,1-.34-.29A.34.34,0,0,1,51.72,37.35Zm4.07.07a.37.37,0,0,1,.25.45s-.06.09-.11.1-.1,0-.13-.07A.4.4,0,0,1,55.79,37.42Zm9,4.45a1,1,0,0,1,.64.08c1,.36,2,.67,3,1l.91.31,1.53.43c.14,0,.28.11.48.19-.14.06-.22.12-.31.15-.42.13-.84.24-1.25.38-1,.33-1.93.66-2.89,1-.55.2-1.09.44-1.63.66a.69.69,0,0,1-.51.09,7.31,7.31,0,0,1,.08-1.4c0-.49,0-1,0-1.47S64.81,42.33,64.8,41.87ZM65,46.45a30,30,0,0,1,2.91-1.11,5.78,5.78,0,0,0,.7-.24,21.32,21.32,0,0,1,2.81-.89,1.47,1.47,0,0,0,.83-.42c-.06,0-.1-.12-.16-.14l-1.15-.31-3.59-1.06c-.72-.22-1.44-.47-2.15-.71a3.79,3.79,0,0,1-.42-.18,2.51,2.51,0,0,1,0-1.09.81.81,0,0,1,.22,0c.69.21,1.37.42,2.06.65a4,4,0,0,1,.67.29,5.75,5.75,0,0,0,1.11.42c.79.21,1.57.45,2.35.68l3.37,1c.23.07.47.15.69.24a2.72,2.72,0,0,1,.34.24,6.76,6.76,0,0,1-1.54.69c-1.28.45-2.57.88-3.89,1.23-.74.21-1.47.49-2.2.74-.35.11-.69.21-1,.33l-1.59.59-.73.24a2,2,0,0,1,.08-.92A.57.57,0,0,1,65,46.45Zm.57,1.17c.54-.18,1.07-.36,1.6-.58A18.69,18.69,0,0,1,69,46.43c.94-.28,1.88-.55,2.82-.85a33.4,33.4,0,0,0,4.39-1.69l.06-.07a1.26,1.26,0,0,0-.59-.37l-1.25-.4L72,42.3c-1.26-.39-2.53-.78-3.79-1.19-.35-.1-.67-.26-1-.37-.59-.21-1.19-.4-1.78-.59l-.27-.09a.8.8,0,0,1-.64-.76,3.2,3.2,0,0,0-.13-.56,1,1,0,0,1,.58.09c.43.15.85.33,1.28.48l1.92.66,1.23.43,2.4.87,1.67.55c.92.34,1.88.55,2.81.87.75.25,1.49.55,2.23.82l.79.31A1.06,1.06,0,0,1,79,44c-.7.24-1.39.5-2.1.69a46.42,46.42,0,0,0-5.15,1.59l-2.37.95c-1.35.54-2.73,1-4.13,1.44l-.93.3a1.62,1.62,0,0,1,.1-1C64.77,47.91,65.15,47.75,65.54,47.62Zm2.35.48c.91-.32,1.81-.67,2.71-1,1.15-.47,2.34-.88,3.52-1.27.56-.19,1.12-.35,1.69-.49a27.84,27.84,0,0,0,3.26-1l.22-.07c.34-.1.34-.1.59-.49a3,3,0,0,0-.85-.4c-.8-.29-1.6-.58-2.41-.85l-1.47-.45-1.81-.65-.33-.1c-.45-.15-.91-.26-1.35-.45-.85-.37-1.75-.61-2.62-.93l-3-1.08c-.43-.15-.87-.28-1.3-.41l-.56-.18c-.08-.19-.16-.38-.22-.57s-.1-.36-.15-.52c.12-.12.2-.06.29,0,.87.36,1.73.75,2.62,1.09s2.07.73,3.1,1.08,2,.71,3,1,1.82.63,2.74.93l.25.11a6,6,0,0,0,1.48.57,30.91,30.91,0,0,1,3.85,1.37c.38.16.75.32,1.11.51,0,.16-.14.16-.22.19-.59.21-1.18.41-1.77.63l-2.11.83-.69.27c-1.3.53-2.59,1.07-3.93,1.48a12.22,12.22,0,0,0-1.26.5q-.73.3-1.5.54c-1.53.47-3.06,1-4.6,1.46-.56.17-1.11.36-1.67.55-.19.07-.39.11-.65.19a3.36,3.36,0,0,1,.17-1.06C65.35,49,66.63,48.55,67.89,48.1Zm-9,13.43c.65.31,1.28.65,1.92,1a18.61,18.61,0,0,0,1.88,1l.1-.14c-.09-.16-.16-.33-.26-.48a21.64,21.64,0,0,1-1.61-3c-.32-.66-.65-1.32-1-2a2.37,2.37,0,0,1,.59-.64c.1.13.21.23.29.35.39.67.78,1.34,1.16,2,.64,1.14,1.25,2.29,1.92,3.41a15.38,15.38,0,0,1,.88,1.65c.14.32.26.66.38,1-.14.11-.25,0-.33,0l-1-.52c-.56-.32-1.11-.64-1.68-.95-.73-.41-1.46-.8-2.19-1.2l-2.4-1.29c-.38-.21-.75-.43-1.1-.64,0-.17.11-.18.18-.23l.26-.16C57.58,60.93,58.24,61.21,58.88,61.53ZM57.25,60.4c.2-.39.58-.52.83-.79a8.57,8.57,0,0,1,.82-.77c.28-.25.47-.6.87-.75.88,1.57,1.46,3.28,2.45,4.81A5.54,5.54,0,0,1,61,62.28c-.4-.21-.79-.44-1.19-.64L58.49,61Zm1.28,2.08a13.64,13.64,0,0,1,1.24.7c.92.57,1.89,1,2.84,1.54.21.1.4.22.6.33l2,1.09a.39.39,0,0,0,.45,0s0-.07,0-.08c-.33-.74-.64-1.5-1-2.22s-.94-1.65-1.4-2.47-.88-1.59-1.33-2.38c-.32-.58-.66-1.15-1-1.73-.06-.1-.1-.2-.16-.32a3,3,0,0,1,.6-.87.91.91,0,0,1,.39.44c.52.9,1,1.82,1.51,2.73s.93,1.55,1.39,2.34a17.8,17.8,0,0,1,1.13,2.22c.23.56.49,1.11.75,1.65L67.25,67c.12.26.26.51.38.76s.16.38.24.56a.21.21,0,0,1-.28,0c-1.12-.6-2.26-1.15-3.35-1.81A23.08,23.08,0,0,0,62,65.4c-.71-.33-1.44-.59-2.14-.92a35.87,35.87,0,0,1-3.49-1.79L55.07,62a1.11,1.11,0,0,1,.2-.22c.26-.19.52-.36.8-.55A22.19,22.19,0,0,0,58.53,62.48ZM56,62.81c.71.39,1.41.82,2.14,1.19s1.41.63,2.12,1c1,.45,2,.89,3.06,1.36s2.16,1.26,3.3,1.77l1.44.66a2.07,2.07,0,0,0,.26.06,1.21,1.21,0,0,0,0-.23c-.38-.79-.77-1.57-1.14-2.36s-.85-1.86-1.25-2.79A32.74,32.74,0,0,0,64,59.91c-.48-.79-1-1.57-1.39-2.41-.23-.46-.48-.9-.69-1.36a5.81,5.81,0,0,0-.31-.51c.11-.33.36-.58.51-1a2.23,2.23,0,0,1,.23.24c.16.28.32.56.46.85.23.5.43,1,.68,1.5.47.91,1,1.8,1.46,2.69l.47.91c.71,1.38,1.43,2.76,2.13,4.14.36.71.69,1.43,1.06,2.14.47.88.88,1.79,1.31,2.7.2.41.43.8.6,1.22,0,.12.13.23,0,.4a4.28,4.28,0,0,1-.44-.2C69,70.63,67.88,70,66.75,69.37c-.45-.24-.92-.45-1.39-.65s-1-.44-1.43-.68c-1.43-.71-2.87-1.37-4.29-2.08-.92-.46-1.81-1-2.7-1.47s-1.62-1-2.43-1.47L54,62.71a.89.89,0,0,1,.2-.22c.17-.12.35-.22.55-.34Zm8-8.34a38.68,38.68,0,0,0,1.59,3.89c.6,1.16,1.16,2.34,1.78,3.49.77,1.41,1.45,2.87,2.18,4.31.29.58.59,1.15.87,1.72s.45,1,.68,1.5.51,1.11.78,1.65a3.76,3.76,0,0,0,.68,1A9.35,9.35,0,0,0,73,73.12c.11.29.25.58.34.88-.06,0-.1.06-.13,0a5.45,5.45,0,0,1-1.34-.46c-.85-.44-1.7-.89-2.57-1.33s-1.67-.8-2.49-1.22c-1.34-.68-2.66-1.38-4-2.07-.64-.33-1.29-.63-1.92-1-1.11-.62-2.26-1.14-3.39-1.72l-3.9-2c-.3-.15-.62-.26-.93-.41a1.93,1.93,0,0,1-.34-.25,1.26,1.26,0,0,1,.24-.2l.75-.4a.53.53,0,0,1,.54,0c1,.52,2,1.09,2.9,1.67.59.37,1.21.7,1.83,1s1.31.66,2,1,1.28.65,1.93,1,1.59.79,2.4,1.17c.53.25,1.09.45,1.61.71s1.18.69,1.78,1,1.38.71,2.06,1.07a.46.46,0,0,0,.59-.1c-.06-.16-.11-.32-.18-.47-.28-.6-.58-1.19-.86-1.79s-.43-.93-.65-1.39-.53-1.09-.8-1.63c-.56-1.16-1.13-2.31-1.7-3.47l-.12-.25c-1-1.77-2-3.6-2.91-5.41-.23-.43-.4-.9-.61-1.34s-.31-.61-.47-.91-.21-.35-.33-.55l.83-1.67c.08.08.15.12.17.18C63.57,53.38,63.79,53.92,64,54.47ZM84.48,44.31l-2.36.8c-.29.1-.56.23-.84.35-1.33.55-2.65,1.12-4,1.64-1.05.41-2.14.75-3.2,1.13-.41.15-.8.34-1.21.49s-1.08.37-1.61.56l-2.65,1a24.94,24.94,0,0,1-2.51.89c-.68.19-1.33.45-2,.67a1,1,0,0,1-.64.12,1,1,0,0,1,0-.25c.06-.28.14-.55.21-.82a1.43,1.43,0,0,1,.21-.11c1.64-.54,3.27-1.09,4.92-1.59S72.25,48,74,47.37c.84-.3,1.68-.59,2.51-.91,1.32-.51,2.64-1.05,4-1.56.54-.21,1.1-.4,1.65-.59l.32-.12c.27-.08.36-.26.31-.57l-1.28-.51-1.48-.6c-.24-.1-.49-.19-.74-.27-1-.33-2-.65-3-1-.58-.2-1.13-.44-1.7-.64l-2.25-.8-3.6-1.22-.16-.06c-1-.37-2-.72-2.93-1.1-.51-.19-1-.42-1.52-.63l-.49-.21-.42-1s.09-.06.12,0c1.26.34,2.53.65,3.76,1.1.88.33,1.78.64,2.64,1.05.37.17.77.3,1.16.46.71.3,1.41.63,2.14.9s1.71.7,2.59,1,1.92.73,2.86,1.12A26.35,26.35,0,0,0,82,42.44c.55.14,1.09.34,1.63.51l1.94.65s0,0,.13.12A3.68,3.68,0,0,1,84.48,44.31Zm-38-11.86.62-.32c.06,0,.12-.09.06-.18-.36-.12-.6.3-.95.21l-.53-.68c.24-.32.62-.45.89-.73-.11-.2-.22-.15-.31-.09l-.89.59a5.13,5.13,0,0,1-.77-.56c.16-.34.31-.64.45-1,0-.1,0-.18-.15-.19l-.15.22-.42.61a.36.36,0,0,1-.5.11l-.18-.1c0-.15,0-.32,0-.49v-.63c-.11.08-.2.11-.21.15,0,.2-.07.41-.1.61s0,.26-.05.39l-.35.1c-.4.08-.44.05-.69-.31-.1-.15-.15-.34-.37-.44-.13.44.19.73.31,1.08a2.66,2.66,0,0,1-.71.45l-.3-.21-.44-.35a.19.19,0,0,0-.15,0,.16.16,0,0,0,0,.15,3.76,3.76,0,0,0,.25.31l.33.33c-.2.23-.32.5-.61.58a5.53,5.53,0,0,0-.55-.21c-.11,0-.18,0-.19.16.16.2.49.19.61.47l-.34,1.08c-.17,0-.34,0-.5.06s-.14,0-.1.18l.67.1c.06.3.13.59.19.89a.36.36,0,0,1-.17.39l-.34.28c.06,0,.1.09.12.08l.59-.17c.16.21.33.41.51.62-.13.18-.25.34-.36.51,0,0,0,.07,0,.12.32.07.39-.34.69-.35a1.56,1.56,0,0,1,.88.73c0,.11-.08.24-.12.36s0,.25-.09.41c.43-.07.39-.46.58-.69a2.78,2.78,0,0,1,.79.11V38c.25-.08.25-.08.42-.77a1.47,1.47,0,0,1,.69-.21c.12.18.21.34.33.49s.13.15.24,0l-.31-.68a7.86,7.86,0,0,1,.73-.44c.24.06.33.34.61.26l-.33-.46a1.23,1.23,0,0,1,.34-.48c.12-.14.23-.29.34-.43.18.1.32.19.48.26s.18,0,.19-.14L46.59,35c0-.2.08-.37.11-.54s0-.32.08-.52a4.07,4.07,0,0,0,.52,0c.07,0,.13-.09.26-.19l-.75-.11A2.42,2.42,0,0,1,46.51,32.45Zm-.22,2.25a3,3,0,0,1-1.63,1.85,5.57,5.57,0,0,1-1.35.38.6.6,0,0,1-.39-.08,10.5,10.5,0,0,1-1.42-.8,2.14,2.14,0,0,1-.79-1.14,4.31,4.31,0,0,1-.22-1.35,2.74,2.74,0,0,1,1-1.87c.18-.14.36-.28.55-.4a2,2,0,0,1,.45-.24,6.64,6.64,0,0,1,1-.23,1.87,1.87,0,0,1,1.15.26,3.27,3.27,0,0,1,1.42,1.43A2.83,2.83,0,0,1,46.29,34.7Zm-6.95,9.79c.14.1.16.23,0,.4l-.66-.51a4.74,4.74,0,0,0-.5.73.4.4,0,0,0,.23.37l.29.17a.46.46,0,0,1,.19.42c-.42-.07-.63-.38-.91-.62-.25,0-.37.21-.56.34.11.44.52.71.58,1.15a.12.12,0,0,1-.2,0c-.13-.19-.25-.38-.37-.57L37.18,46a4.36,4.36,0,0,0-.46.12.35.35,0,0,0-.25.45c0,.22.11.44.15.66,0,0,0,.11-.08.11a.16.16,0,0,1-.13-.07c0-.11,0-.23-.07-.33s-.13-.4-.19-.61l-1.08.1a1.45,1.45,0,0,0-.17.74.52.52,0,0,1-.06.16.13.13,0,0,1-.09,0s-.08,0-.08-.06,0-.22,0-.33a1.22,1.22,0,0,0,0-.65,3.75,3.75,0,0,0-1.11-.26,1.37,1.37,0,0,0-.24.71c0,.11-.06.23-.26.14.07-.33.15-.67.24-1a2.17,2.17,0,0,0-.75-.56c-.17.16-.18.37-.26.56a1.09,1.09,0,0,1-.1.25s-.09,0-.15,0c-.1-.19,0-.35.09-.49a.86.86,0,0,0-.24-1.07c-.09-.1-.16-.21-.25-.32-.53.29-.58.87-.94,1.27,0-.11-.09-.17-.08-.21a.85.85,0,0,1,.11-.26c.23-.4.48-.81.74-1.24a.82.82,0,0,1,.23.14,5.08,5.08,0,0,1,.38.43,3.94,3.94,0,0,0,1.4,1.14,3.54,3.54,0,0,0,3.43.11.75.75,0,0,1,.2-.1,2,2,0,0,0,1.18-1.08.93.93,0,0,0,.07-.44.5.5,0,0,1,.21-.39.65.65,0,0,1,.15.1A2.92,2.92,0,0,0,39.34,44.49ZM54,45.8l-1.21.39c-.21.4.05.85-.22,1.25-.33-.38,0-.8-.16-1.2a6.47,6.47,0,0,0-1.29-.18c0,.17-.09.33-.14.48a1.08,1.08,0,0,1-.18.29s-.06,0-.1,0a.09.09,0,0,1,0,0,1.64,1.64,0,0,1,0-.22q.08-.35.15-.72l-1.21-.68c-.2.11-.21.32-.32.47a1.22,1.22,0,0,1-.12.19.16.16,0,0,1-.15,0A.19.19,0,0,1,49,45.7a1.86,1.86,0,0,1,.1-.2l.25-.52c-.22-.28-.39-.58-.75-.69a2.94,2.94,0,0,0-.54.74l-.22-.13c.13-.22.25-.43.38-.63a2.67,2.67,0,0,1,.24-.32q.2-.23.39,0c.14.13.26.28.39.42a4.94,4.94,0,0,0,1.43,1.09,3.9,3.9,0,0,0,1.74.44,2.68,2.68,0,0,0,2.35-1.24c.18-.27.35-.54.52-.81a.6.6,0,0,1,.62.17l.5.47c.06.06.06.07,0,.33-.37-.14-.55-.52-.91-.71a1.4,1.4,0,0,0-.38.52c.16.34.61.42.66.82a.13.13,0,0,1-.2,0L55,44.92l-.58.61c.05.46.54.74.4,1.28-.07-.05-.15-.08-.17-.12A3.68,3.68,0,0,0,54,45.8ZM43,47.41a11.06,11.06,0,0,0,.34-3.09V44c.1-.05.17,0,.19.06a1.59,1.59,0,0,1,.07.38c0,.44,0,.88,0,1.31a8.21,8.21,0,0,1-.27,1.56c-.2.64-.27,1.29-.41,1.94s-.26,1.33-.41,2A5.36,5.36,0,0,1,42,52.58a2.87,2.87,0,0,0-.12.44l1.61.74.83-.48c.25-.14.48-.29.49-.63,0,0,.12-.12.16-.1a.21.21,0,0,1,.11.16.56.56,0,0,1-.22.5c-.18.13-.38.26-.57.37a1.3,1.3,0,0,0-.49.38.29.29,0,0,1-.4.11l-1.59-.76a.35.35,0,0,1-.21-.41,1.57,1.57,0,0,1,.15-.43,4.88,4.88,0,0,0,.45-1.28c.18-.81.34-1.63.51-2.44C42.82,48.3,42.88,47.85,43,47.41ZM46.9,57.55a.28.28,0,0,1,.05.2s-.06.09-.1.13a12.19,12.19,0,0,1-.9.86,3.4,3.4,0,0,1-2.48.78A4.49,4.49,0,0,1,40.9,58.3l-.55-.48c-.1-.08-.1-.1,0-.41.27.23.51.42.72.63a4,4,0,0,0,1.41.93,2.93,2.93,0,0,0,3.27-.52l.77-.76a.79.79,0,0,1,.18-.14S46.89,57.52,46.9,57.55ZM43.47,34a.3.3,0,0,1-.36-.18.23.23,0,0,1,.2-.28.33.33,0,0,1,.4.22.11.11,0,0,0,0,.05s0,.08-.06.09A.57.57,0,0,1,43.47,34Zm1.32.77s0,.07,0,.1a.28.28,0,0,1-.43.18A.42.42,0,0,1,44.3,35a.27.27,0,0,1,.26-.26A.58.58,0,0,1,44.79,34.8Zm-1.6-2.72c0-.07.12-.11.15-.15.22,0,.33.14.31.3a.2.2,0,0,1-.18.19A.28.28,0,0,1,43.19,32.08Zm-1.12,1.76a.25.25,0,0,1-.25.24c-.14,0-.29-.12-.25-.23s.12-.15.16-.2C41.94,33.64,42.06,33.72,42.07,33.84Zm1.76,1.8a.34.34,0,0,1-.43,0,.21.21,0,0,1-.08-.18c0-.06.09-.14.14-.14A.29.29,0,0,1,43.83,35.64Zm1.34-2.08a.85.85,0,0,1,.23.24c0,.07-.09.2-.2.22s-.31-.11-.27-.21S45.07,33.66,45.17,33.56Zm-2.64-.91a1.34,1.34,0,0,1,.28.21c-.11.08-.17.15-.25.17s-.28-.09-.26-.2S42.43,32.62,42.53,32.65Zm-.06,2.09a.3.3,0,0,1,.1.14.18.18,0,0,1-.22.18.2.2,0,0,1-.14-.14C42.18,34.83,42.32,34.73,42.47,34.74Zm2.21-2.33a.87.87,0,0,1,.2.15.16.16,0,0,1,0,.15.24.24,0,0,1-.15,0,.26.26,0,0,1-.13-.1.19.19,0,0,1,0-.15S44.62,32.44,44.68,32.41Z"/></g></g></svg>