<svg xmlns="http://www.w3.org/2000/svg" viewBox="0 0 157.79 136.2"><defs><style>.cls-1{fill:#1d1d1b;}</style></defs><title>Asset 422</title><g id="Layer_2" data-name="Layer 2"><g id="Layer_1-2" data-name="Layer 1"><path class="cls-1" d="M131.13,29.37a.53.53,0,0,1-.24-.06.55.55,0,0,1-.24-.72L136.52,17a.54.54,0,1,1,1,.48l-5.87,11.61A.53.53,0,0,1,131.13,29.37ZM148,40.21a.52.52,0,0,0-.4-.64l-15.73-3.68a.54.54,0,0,0-.24,1l15.73,3.67.12,0A.54.54,0,0,0,148,40.21Zm-1,19.65L150.55,48a.54.54,0,0,0-.37-.67.53.53,0,0,0-.66.36L146,59.55a.54.54,0,0,0,.36.67.41.41,0,0,0,.16,0A.53.53,0,0,0,147,59.86ZM22.53,88.24l1.54-8.56a.54.54,0,0,0-.43-.63.53.53,0,0,0-.62.44l-1.55,8.56a.53.53,0,0,0,.43.62H22A.54.54,0,0,0,22.53,88.24ZM18.45,74.6a.53.53,0,0,0-.53-.53H9.2a.54.54,0,1,0,0,1.07h8.72A.54.54,0,0,0,18.45,74.6Zm15.3-7.83L44,57.16a.53.53,0,0,0,0-.76.53.53,0,0,0-.75,0L33,66a.54.54,0,0,0,0,.76.55.55,0,0,0,.4.16A.5.5,0,0,0,33.75,66.77Zm42.1-5a.53.53,0,0,0-.37-.66L53,54.87a.53.53,0,0,0-.66.38.54.54,0,0,0,.37.66l22.47,6.18a.39.39,0,0,0,.15,0A.53.53,0,0,0,75.85,61.72Zm-8.09,19,9.36-9.34a.54.54,0,0,0,0-.76.55.55,0,0,0-.76,0L67,80a.54.54,0,0,0,.38.92A.51.51,0,0,0,67.76,80.72Zm9.52,31.74L78.68,73a.54.54,0,1,0-1.07,0L76.2,112.42a.55.55,0,0,0,.52.56h0A.54.54,0,0,0,77.28,112.46Zm4.17.44,9-5.27a.53.53,0,1,0-.54-.92l-9,5.27a.54.54,0,0,0-.19.73.54.54,0,0,0,.46.27A.57.57,0,0,0,81.45,112.9Zm9.45-12.62a.54.54,0,0,0,.4-.65L84.91,71.88a.54.54,0,0,0-.65-.4.53.53,0,0,0-.4.64l6.39,27.75a.54.54,0,0,0,.53.42Zm10.84,4,25.58-2.34a.54.54,0,1,0-.1-1.07l-25.58,2.34a.54.54,0,0,0-.48.59.53.53,0,0,0,.53.48Zm32.4,9.69.65-8a.54.54,0,0,0-.49-.57.53.53,0,0,0-.58.49l-.65,8a.54.54,0,0,0,.49.58h0A.54.54,0,0,0,134.14,114Zm-2.82-18.33a.54.54,0,0,0,.32-.69l-9.26-25.38a.53.53,0,1,0-1,.37l9.25,25.38a.53.53,0,0,0,.5.35A.63.63,0,0,0,131.32,95.63ZM113.1,66.41a.54.54,0,0,0-.5-.57L92,64.61a.54.54,0,0,0-.57.51.53.53,0,0,0,.51.56l20.58,1.23h0A.54.54,0,0,0,113.1,66.41Zm24.43,2.41a.54.54,0,0,0-.5-.57l-12.16-.64a.53.53,0,0,0-.56.5.54.54,0,0,0,.5.57l12.16.64h0A.53.53,0,0,0,137.53,68.82Zm3.72-59.09c-1.14.28-.53-2-2.08-1.19l1.17,2.58c-1.21,0-2.29,0-3.36,0s-2.06-.7-3.13-.1c.22.79.78.74,1.28.74h4.7c.33,0,.65.05,1.11.08-.83,1.26-2.42,1.7-2.7,3.48,1.4-.31,1.79-1.8,3.08-2,0,.66,0,1.22,0,1.78s-.11,1.35-.07,2c.06,1,.25,1.94.3,2.92.07,1.35,0,2.71.09,4.06a4.38,4.38,0,0,0,.32,1l.44,0a11.27,11.27,0,0,0,.16-1.41c-.07-2.81-.17-5.62-.25-8.43,0-.6-.07-1.23.56-1.66,1,.67,1.28,1.95,2.39,2.38.63-.42.45-.85.13-1.23s-.8-.83-1.18-1.25-1.1-.83-1-1.79a4.8,4.8,0,0,1,1.33-.19,32.68,32.68,0,0,1,3.69.63c.64.15,1.1.2,1.42-.7a41.44,41.44,0,0,0-6.07-.72l1.87-2.89c-1.62-.08-1.53,1.52-2.59,1.86l.22-2.35-1.29,1.23c0-2.62,0-4.9,0-7.18,0-.48.32-1-.72-1.38A62.88,62.88,0,0,0,141.25,9.73Zm1.55,54.63c-1.14.28-.53-2-2.09-1.19.38.83.74,1.61,1.18,2.59-1.21,0-2.29,0-3.36,0s-2.06-.7-3.13-.1c.22.79.78.74,1.28.74,1.57,0,3.13,0,4.7,0,.32,0,.65,0,1.11.08-.83,1.26-2.42,1.7-2.7,3.48,1.4-.31,1.79-1.8,3.08-2,0,.66,0,1.22,0,1.78s-.11,1.35-.07,2c.06,1,.25,1.94.3,2.92.07,1.35,0,2.71.09,4.06a4.6,4.6,0,0,0,.32,1l.43,0a9.82,9.82,0,0,0,.17-1.42c-.07-2.81-.17-5.62-.25-8.42,0-.61-.07-1.24.56-1.67,1,.67,1.28,2,2.39,2.38.63-.42.45-.85.12-1.23s-.79-.83-1.17-1.25-1.1-.83-1-1.78a4.47,4.47,0,0,1,1.33-.2,32.68,32.68,0,0,1,3.69.63c.64.15,1.1.21,1.42-.7a44.36,44.36,0,0,0-6.07-.72c.65-1,1.19-1.85,1.87-2.89-1.62-.08-1.53,1.52-2.59,1.86.07-.71.13-1.36.22-2.35l-1.29,1.23c0-2.62,0-4.9,0-7.17,0-.49.32-1-.72-1.39A61.66,61.66,0,0,0,142.8,64.36ZM130.48,120.8c-1.14.29-.53-2-2.08-1.18.37.82.73,1.61,1.18,2.58-1.22,0-2.3,0-3.37,0s-2.06-.71-3.13-.11c.22.8.78.75,1.28.75,1.57,0,3.13,0,4.7,0,.33,0,.66,0,1.12.08-.84,1.26-2.43,1.7-2.71,3.48,1.4-.31,1.79-1.8,3.08-2,0,.66,0,1.22,0,1.78s-.11,1.35-.07,2c.06,1,.26,1.94.31,2.92.06,1.35,0,2.71.09,4.06a3.93,3.93,0,0,0,.31,1l.44,0a8.46,8.46,0,0,0,.16-1.41c-.06-2.81-.16-5.62-.25-8.43,0-.6-.07-1.23.57-1.66,1,.67,1.27,2,2.38,2.38.64-.42.45-.85.13-1.23s-.79-.83-1.18-1.25-1.1-.83-1-1.79a4.87,4.87,0,0,1,1.34-.19,32.89,32.89,0,0,1,3.68.63c.64.15,1.1.2,1.43-.7a41.74,41.74,0,0,0-6.08-.72l1.87-2.89c-1.61-.08-1.52,1.52-2.58,1.86.06-.71.12-1.37.21-2.35L131,119.63c0-2.61,0-4.89,0-7.17,0-.48.32-1-.72-1.38A62.73,62.73,0,0,0,130.48,120.8ZM83.15,58.1c-1.17,0-.11-2.09-1.8-1.59.2.89.39,1.73.63,2.77-1.19-.24-2.23-.5-3.3-.67s-1.87-1.1-3-.73c.06.82.61.88,1.11,1l4.59,1c.33.07.64.18,1.08.31C81.35,61.19,79.7,61.3,79.07,63c1.43,0,2.11-1.39,3.43-1.36-.14.65-.24,1.2-.37,1.75s-.38,1.3-.48,2c-.14,1-.14,2-.29,2.92-.21,1.34-.52,2.66-.73,4a4.38,4.38,0,0,0,.09,1.07l.44.05A11.25,11.25,0,0,0,81.61,72c.5-2.76,1-5.53,1.46-8.3.11-.6.18-1.23.89-1.52.81.85.85,2.17,1.86,2.81.7-.28.61-.73.37-1.18s-.61-1-.9-1.46-.91-1-.62-1.95A5,5,0,0,1,86,60.5a33.5,33.5,0,0,1,3.48,1.37c.6.28,1,.42,1.54-.4a43.51,43.51,0,0,0-5.81-1.94l2.42-2.45c-1.56-.4-1.8,1.18-2.9,1.3l.68-2.25-1.51.93c.53-2.56,1-4.79,1.46-7,.1-.47.53-.94-.42-1.5A61.79,61.79,0,0,0,83.15,58.1Zm-59,11.17c-1.07.48-.87-1.89-2.25-.8l1.61,2.34c-1.2.21-2.27.36-3.32.59s-2.14-.33-3.1.45c.36.74.9.59,1.4.51l4.62-.82c.32-.05.66-.07,1.11-.11-.6,1.38-2.09,2.09-2.06,3.89,1.33-.54,1.45-2.08,2.69-2.53.11.65.22,1.2.3,1.76s.13,1.35.29,2c.22,1,.58,1.87.8,2.82.3,1.32.51,2.66.8,4a4,4,0,0,0,.49,1L28,84.2a11.16,11.16,0,0,0-.08-1.42c-.56-2.75-1.14-5.5-1.71-8.25-.13-.6-.29-1.21.26-1.74,1.07.49,1.6,1.7,2.77,1.93.55-.53.29-.91-.09-1.24s-.93-.67-1.38-1-1.22-.63-1.29-1.59a4.92,4.92,0,0,1,1.28-.42,33.32,33.32,0,0,1,3.74,0c.66,0,1.11,0,1.28-.93a42.12,42.12,0,0,0-6.11.34c.46-1.11.86-2,1.34-3.17-1.6.2-1.24,1.76-2.22,2.28l-.19-2.35L24.48,68c-.45-2.58-.86-4.82-1.23-7.07-.08-.47.14-1.07-.95-1.23A63.39,63.39,0,0,0,24.15,69.27ZM148.67,43c.27.11.54.24.82.33a18.82,18.82,0,0,1,2,.63c1.44.66,1.15.43,1.1,1.87,0,.69,0,1.38.05,2.2,0,.53.4-.2.43-.29a11.9,11.9,0,0,0,.48-1.3c.22-.81.46-1.51,1.46-1.73a13.85,13.85,0,0,0,2.66-.65c.62-.22-.92-.67-1.15-.77-.4-.17-.82-.31-1.24-.45a2,2,0,0,1-1.41-2c0-.75.08-1.5.13-2.24,0-.28.11-.57-.36-.67-.06.18-.14.34-.18.5-.21.92-.46,1.83-.58,2.75s-.74,1.24-1.53,1.36a10.51,10.51,0,0,1-1.12.06l-1.46.11C148.51,42.75,148.29,42.84,148.67,43ZM122.92,31.68a8.16,8.16,0,0,0,.81.34,18.06,18.06,0,0,1,2,.62c1.44.66,1.16.44,1.1,1.88,0,.69,0,1.37,0,2.19.06.53.4-.19.44-.28a10.22,10.22,0,0,0,.47-1.31c.22-.81.47-1.51,1.47-1.72a15.42,15.42,0,0,0,2.65-.65c.63-.22-.91-.67-1.15-.77-.4-.17-.82-.31-1.23-.46a2,2,0,0,1-1.41-2c0-.74.08-1.49.13-2.24,0-.27.11-.56-.36-.66a3.41,3.41,0,0,0-.19.5c-.2.91-.45,1.82-.57,2.75s-.74,1.23-1.53,1.36a10.56,10.56,0,0,1-1.13.05l-1.46.11C122.76,31.41,122.54,31.51,122.92,31.68Zm-8.45,33.18c.28.11.54.24.82.33a18.82,18.82,0,0,1,2,.63c1.44.66,1.15.43,1.1,1.87,0,.69,0,1.38,0,2.2.06.52.4-.2.44-.29a12,12,0,0,0,.47-1.31c.22-.81.46-1.5,1.46-1.72a14.43,14.43,0,0,0,2.66-.65c.63-.22-.91-.67-1.15-.77-.4-.17-.82-.31-1.23-.45a2,2,0,0,1-1.41-2c0-.75.07-1.5.13-2.25,0-.27.1-.56-.36-.66a3.9,3.9,0,0,0-.19.5c-.2.92-.46,1.82-.58,2.75s-.74,1.24-1.52,1.36c-.37.06-.76,0-1.13.06l-1.46.11C114.31,64.59,114.09,64.68,114.47,64.86Zm-24.64,39.3c.27.11.53.25.81.34a16.11,16.11,0,0,1,2,.62c1.44.66,1.15.43,1.1,1.88,0,.68,0,1.37.05,2.19.06.53.4-.2.44-.28a12.81,12.81,0,0,0,.47-1.31c.22-.81.47-1.51,1.46-1.73a13.67,13.67,0,0,0,2.66-.65c.63-.21-.91-.67-1.15-.77-.4-.17-.82-.31-1.23-.45A2,2,0,0,1,95,102c0-.75.07-1.5.13-2.24,0-.28.1-.57-.36-.67a4.55,4.55,0,0,0-.19.5c-.2.92-.45,1.83-.58,2.75s-.74,1.24-1.52,1.36a10.55,10.55,0,0,1-1.13.06l-1.46.11C89.67,103.89,89.44,104,89.83,104.16ZM60.36,82.06c.27.11.53.24.81.33a18.1,18.1,0,0,1,2,.63c1.44.66,1.16.43,1.11,1.87,0,.69,0,1.38,0,2.2.06.53.4-.2.44-.28a10.8,10.8,0,0,0,.47-1.31c.22-.81.47-1.51,1.47-1.73a13.76,13.76,0,0,0,2.65-.65c.63-.21-.91-.67-1.14-.77-.41-.17-.82-.31-1.24-.45a2,2,0,0,1-1.41-2c0-.75.08-1.5.13-2.24,0-.28.11-.57-.36-.67a4.55,4.55,0,0,0-.19.5c-.2.92-.45,1.83-.57,2.75S63.8,81.48,63,81.6a10.55,10.55,0,0,1-1.13.06l-1.46.11C60.2,81.79,60,81.88,60.36,82.06ZM42.15,54c.27.11.53.25.81.34a16.11,16.11,0,0,1,2,.62c1.44.66,1.16.43,1.11,1.88,0,.68,0,1.37,0,2.19.06.53.4-.2.44-.28A10.8,10.8,0,0,0,47,57.44c.22-.81.47-1.51,1.47-1.73a13.76,13.76,0,0,0,2.65-.65c.63-.21-.91-.67-1.14-.77-.41-.17-.82-.31-1.24-.45a2,2,0,0,1-1.41-2c0-.75.08-1.5.13-2.24,0-.28.11-.57-.36-.67a4.55,4.55,0,0,0-.19.5c-.2.92-.45,1.83-.57,2.75s-.74,1.24-1.53,1.36a10.55,10.55,0,0,1-1.13.06l-1.46.11C42,53.73,41.77,53.83,42.15,54ZM14.6,91.26c.27.11.54.24.82.33a18.78,18.78,0,0,1,2,.62c1.44.66,1.15.44,1.1,1.88,0,.69,0,1.37.05,2.19.05.53.4-.19.43-.28a12.06,12.06,0,0,0,.48-1.31c.22-.81.46-1.51,1.46-1.72a14.43,14.43,0,0,0,2.66-.65c.62-.22-.92-.67-1.15-.77-.4-.17-.82-.31-1.24-.45a2,2,0,0,1-1.4-2c0-.75.07-1.5.13-2.25,0-.27.1-.56-.37-.66a5,5,0,0,0-.18.5c-.2.91-.46,1.82-.58,2.75S18,90.67,17.25,90.8a10.49,10.49,0,0,1-1.12,0L14.67,91C14.44,91,14.22,91.08,14.6,91.26ZM.21,75.68A8.16,8.16,0,0,0,1,76a18.06,18.06,0,0,1,2,.62c1.44.66,1.15.44,1.1,1.88,0,.68,0,1.37,0,2.19.06.53.4-.19.44-.28a12,12,0,0,0,.47-1.31c.22-.81.47-1.51,1.46-1.73a14.36,14.36,0,0,0,2.66-.64c.63-.22-.91-.67-1.15-.77-.4-.17-.82-.31-1.23-.46a2,2,0,0,1-1.41-2c0-.74.08-1.49.13-2.24,0-.27.1-.56-.36-.66a3.41,3.41,0,0,0-.19.5c-.2.91-.45,1.82-.58,2.75s-.73,1.23-1.52,1.36a10.56,10.56,0,0,1-1.13,0l-1.46.11C.05,75.41-.17,75.51.21,75.68ZM74.07,116c.27.12.54.25.81.34a19,19,0,0,1,2,.62c1.43.66,1.15.43,1.1,1.88,0,.68,0,1.37.05,2.19,0,.53.4-.19.43-.28a10.22,10.22,0,0,0,.47-1.31c.22-.81.47-1.51,1.47-1.73A14,14,0,0,0,83,117c.62-.21-.92-.66-1.15-.76-.41-.18-.82-.31-1.24-.46a2,2,0,0,1-1.41-2c0-.74.08-1.49.13-2.24,0-.28.11-.56-.36-.67a2.84,2.84,0,0,0-.18.51c-.21.91-.46,1.82-.58,2.75s-.74,1.23-1.53,1.36c-.37,0-.75,0-1.13,0l-1.45.11C73.91,115.69,73.69,115.79,74.07,116Zm54.7-16a8.33,8.33,0,0,0,.82.34,18.78,18.78,0,0,1,2,.62c1.44.66,1.15.43,1.1,1.88,0,.68,0,1.37.05,2.19,0,.53.4-.19.43-.28a12.06,12.06,0,0,0,.48-1.31c.22-.81.46-1.51,1.46-1.73a13.85,13.85,0,0,0,2.66-.65c.62-.21-.92-.66-1.15-.76-.4-.18-.82-.31-1.24-.46a1.94,1.94,0,0,1-1.4-2c0-.74.07-1.49.13-2.24,0-.28.1-.56-.37-.67-.06.18-.14.34-.18.51-.21.91-.46,1.82-.58,2.75s-.74,1.23-1.53,1.36c-.37,0-.75,0-1.12,0l-1.46.11C128.61,99.7,128.39,99.8,128.77,100Z"/><path class="cls-1" d="M51.44,33.56a2.89,2.89,0,0,1-3.11,3c-.86,0-1.38-.25-2-.25a1.26,1.26,0,0,0-.39,0s0-.21,0-.42c0-.41,0-.84,0-1.26a2.66,2.66,0,0,1,.15-1h.14a3.81,3.81,0,0,0,.06.6,2,2,0,0,0,2.12,1.88,1.73,1.73,0,0,0,1.9-1.82c0-2.71-4.32-2.46-4.32-5.56a2.67,2.67,0,0,1,2.83-2.74c.74,0,1.21.22,1.81.22a1.18,1.18,0,0,0,.49-.08c0,.35,0,.78,0,1.21,0,.23,0,.63,0,1h-.15c-.31-1.47-1.12-2-2.1-2A1.52,1.52,0,0,0,47.1,28C47.1,30.61,51.44,30.24,51.44,33.56Zm6.82,2.17.07.13a1.44,1.44,0,0,1-1.23.67.74.74,0,0,1-.83-.73,3,3,0,0,1-2,.77c-1.13,0-1.91-.64-1.91-1.57s1-1.79,2.38-1.79a2.93,2.93,0,0,1,1.48.37v-2c0-1.07-.35-1.52-1.07-1.52s-1.31.56-1.32,1.76H52.62a2.42,2.42,0,0,1,2.67-2.08c1.36,0,2.24.61,2.24,2.42v2.93c0,.62.1.8.38.8A.53.53,0,0,0,58.26,35.73Zm-2-1.85a2,2,0,0,0-1.12-.32,1.21,1.21,0,0,0-1.32,1.29,1.1,1.1,0,0,0,1.15,1.22,1.9,1.9,0,0,0,1.29-.55Zm8.16-3.25a.53.53,0,0,0-.31.11,2.11,2.11,0,0,1,.45,1.33c0,1.44-1.28,2.25-2.71,2.25-.18,0-.34,0-.49,0a.75.75,0,0,0-.57.77c0,.66.61.73,1.69.84,1.42.15,2.64.57,2.64,1.72s-1,2-3.17,2c-1.74,0-3.2-.57-3.2-1.79,0-.61.37-1.28,1.67-1.67-.53-.14-1-.42-1-1s.58-.93,1.14-1a2.14,2.14,0,0,1-1.51-2.06,2.48,2.48,0,0,1,2.71-2.33,3,3,0,0,1,2.07.77,1.5,1.5,0,0,1,1-.65,1,1,0,0,1,.68.34l-.53,1C64.83,30.79,64.61,30.63,64.38,30.63Zm-4.25,7.08a1.54,1.54,0,0,0,1.75,1.6,1.47,1.47,0,0,0,1.68-1.53c0-1.32-1.11-1.48-2.17-1.52A1.33,1.33,0,0,0,60.13,37.71ZM63,32.08c0-1.3-.32-2.1-1.21-2.1s-1.18.73-1.18,2.06.34,2,1.19,2S63,33.4,63,32.08Zm4.28-3.14a.69.69,0,1,0-.67-.66A.66.66,0,0,0,67.26,28.94Zm.62,6.1V29.76a4.63,4.63,0,0,1-1.75.36v.14c.42.12.43.34.43,1V35c0,1.12-.18,1.19-.6,1.28v.14c.31,0,.74,0,1.26,0s1,0,1.26,0v-.14C68.06,36.23,67.88,36.16,67.88,35Zm4-4.65a2,2,0,0,1,.81.1,5.18,5.18,0,0,1,.55-.91l-.11-.13c-.26.34-.58.34-1.16.34h-.79a15,15,0,0,1,.16-2l-.21,0a3.21,3.21,0,0,1-2,2.4v.14c.55.09.69.13.69.6v3.85c0,1.41.75,1.8,1.63,1.8a1.6,1.6,0,0,0,1.67-1.2L73,35.25A1,1,0,0,1,72,36c-.64,0-.91-.39-.91-1.39V30.39Zm4.39,0a2,2,0,0,1,.81.1,5.18,5.18,0,0,1,.55-.91l-.11-.13c-.26.34-.58.34-1.16.34h-.79a15,15,0,0,1,.16-2l-.21,0a3.21,3.21,0,0,1-2,2.4v.14c.55.09.69.13.69.6v3.85c0,1.41.75,1.8,1.63,1.8a1.6,1.6,0,0,0,1.67-1.2l-.11-.09a1,1,0,0,1-1,.72c-.64,0-.91-.39-.91-1.39V30.39Zm7.69,5.34.07.13a1.44,1.44,0,0,1-1.23.67.73.73,0,0,1-.82-.73,3.07,3.07,0,0,1-2,.77C78.79,36.57,78,35.93,78,35s1-1.79,2.38-1.79a2.93,2.93,0,0,1,1.48.37v-2c0-1.07-.35-1.52-1.06-1.52s-1.32.56-1.33,1.76h-1.2A2.4,2.4,0,0,1,81,29.72c1.35,0,2.23.61,2.23,2.42v2.93c0,.62.1.8.38.8A.53.53,0,0,0,83.91,35.73Zm-2-1.85a1.94,1.94,0,0,0-1.12-.32,1.2,1.2,0,0,0-1.31,1.29,1.09,1.09,0,0,0,1.14,1.22,1.9,1.9,0,0,0,1.29-.55Zm6.33-4.16a2.46,2.46,0,0,0-1.61.89v-.89a4.73,4.73,0,0,1-1.74.38v.14c.42.11.43.32.43,1V35c0,1.12-.18,1.19-.6,1.28v.14c.31,0,.74,0,1.26,0s1,0,1.26,0v-.14c-.42-.09-.61-.16-.61-1.28V31a1.17,1.17,0,0,1,.86-.48c.33,0,.56.19.56.76h1.28C89.29,30.19,88.9,29.72,88.2,29.72ZM91.86,35V29.76a4.53,4.53,0,0,1-1.74.36v.14c.42.12.43.34.43,1V35c0,1.12-.18,1.19-.6,1.28v.14c.31,0,.74,0,1.26,0s1,0,1.26,0v-.14C92.05,36.23,91.86,36.16,91.86,35Zm-.61-6.1a.69.69,0,1,0,0-1.37.69.69,0,0,0,0,1.37Zm8.47,6.92c-.33,0-.42-.35-.42-.87V29.72a4.75,4.75,0,0,1-1.83.38v.14c.52.11.52.28.52,1.3v3.21c0,.15,0,.31,0,.46a1.7,1.7,0,0,1-1.56.84c-1,0-1.39-.54-1.39-2.11V29.72a4.91,4.91,0,0,1-1.87.38v.14c.56.11.56.32.56,1.27v2.7c0,1.87,1.09,2.33,2.18,2.33a2.47,2.47,0,0,0,2.11-1c.1.56.36,1,1,1a1.41,1.41,0,0,0,1.24-.84l-.07-.12A.7.7,0,0,1,99.72,35.86Zm2.5-4.83a1,1,0,0,1,1.12-1,1.66,1.66,0,0,1,1.57,1.47h.14c0-.45,0-.8,0-1a2.37,2.37,0,0,1,0-.52c-.6-.05-1.16-.19-1.73-.19-1.25,0-2.24.66-2.24,1.87,0,2.11,3,1.65,3,3.52a1.07,1.07,0,0,1-1.17,1.15c-1.08,0-1.56-.95-1.51-2h-.14c-.13.56-.09,1.49-.17,2a12,12,0,0,0,1.91.29,2.09,2.09,0,0,0,2.31-2C105.34,32.28,102.22,32.65,102.22,31Z"/></g></g></svg>