<svg xmlns="http://www.w3.org/2000/svg" viewBox="0 0 41.09 68.75"><defs><style>.cls-1{fill:#1a171b;}.cls-2{stroke:#fff;stroke-width:0.25px;}</style></defs><title>Asset 409</title><g id="Layer_2" data-name="Layer 2"><g id="Layer_1-2" data-name="Layer 1"><path class="cls-1" d="M20.09,65a.48.48,0,0,0-.13.34.56.56,0,0,0,.08.26,4.62,4.62,0,0,1,.45.31,5.37,5.37,0,0,1,.84.74,1.42,1.42,0,0,1,.46.88c0,.36-.24.66-.73.88a2.46,2.46,0,0,1-1,.25,1.45,1.45,0,0,1-.89-.3.74.74,0,0,1-.37-.56.38.38,0,0,1,.08-.18.33.33,0,0,1,.27-.15,1.52,1.52,0,0,1,.62.35,1.4,1.4,0,0,0,.71.36.52.52,0,0,0,.33-.1.41.41,0,0,0,.13-.32,1.11,1.11,0,0,0-.46-.82l-.85-.68a1.07,1.07,0,0,1-.47-.78c0-.25.19-.49.56-.74a1.86,1.86,0,0,1,1-.37,2.78,2.78,0,0,1,.53.1c.36.12.54.31.54.56a.27.27,0,0,1-.07.2.43.43,0,0,1-.34.12,1.24,1.24,0,0,1-.48-.24,1.22,1.22,0,0,0-.47-.24A.45.45,0,0,0,20.09,65ZM24,64.84a.53.53,0,0,1,.33.14,1,1,0,0,0,.58.29.39.39,0,0,0,.27-.1.3.3,0,0,0,.12-.24.47.47,0,0,0-.26-.38,1.46,1.46,0,0,0-.56-.22H24a.48.48,0,0,0-.12,0,3.91,3.91,0,0,0-.75.48,2.47,2.47,0,0,0-.69.61,1,1,0,0,0-.2.46,2.76,2.76,0,0,0-.1.72,2.26,2.26,0,0,0,.51,1.58,1.53,1.53,0,0,0,1.2.52,2.07,2.07,0,0,0,.9-.23c.32-.16.47-.29.47-.4a.2.2,0,0,0,0-.15.14.14,0,0,0-.12-.06l-.52.26a.94.94,0,0,1-.44.13.88.88,0,0,1-.77-.52,3,3,0,0,1-.05-2.5A.78.78,0,0,1,24,64.84Zm4.74.1a2.45,2.45,0,0,1,.47,1.56,2.19,2.19,0,0,1-.59,1.55,1.84,1.84,0,0,1-1.41.65A1.33,1.33,0,0,1,26,68.07a2.79,2.79,0,0,1-.43-1.64,2.08,2.08,0,0,1,.66-1.58,1.68,1.68,0,0,1,1.16-.52A1.53,1.53,0,0,1,28.69,64.94Zm-.41,1.66a2.75,2.75,0,0,0-.23-1.19c-.19-.4-.43-.6-.75-.6a.74.74,0,0,0-.7.57,3.13,3.13,0,0,0-.16,1.12,2.78,2.78,0,0,0,.22,1.15c.17.39.4.58.69.58a.78.78,0,0,0,.74-.54A2.66,2.66,0,0,0,28.28,66.6Zm3.07.15v-.14a1.93,1.93,0,0,0,.66-.48,1,1,0,0,0,.32-.62,1.08,1.08,0,0,0-.52-.81,1.59,1.59,0,0,0-1-.41,1.48,1.48,0,0,0-.87.26.76.76,0,0,0-.39.65v3.27a.18.18,0,0,0,.11.17.6.6,0,0,0,.27.06.51.51,0,0,0,.28-.07.22.22,0,0,0,.12-.19V65.22a.43.43,0,0,1,.09-.28.25.25,0,0,1,.22-.11.82.82,0,0,1,.59.26.79.79,0,0,1,.26.56c0,.21-.15.42-.45.61s-.45.38-.45.53.15.22.22.33l.47.71a7.83,7.83,0,0,1,.4.72.42.42,0,0,0,.16.12.51.51,0,0,0,.17,0,.68.68,0,0,0,.33-.09.25.25,0,0,0,.16-.22,1.54,1.54,0,0,0-.37-.78A8.79,8.79,0,0,0,31.35,66.75Zm3.71-2.13a1.85,1.85,0,0,0-1-.38h-.17l-.11,0-.58.25a.54.54,0,0,0-.25.22.67.67,0,0,0-.08.35v3.29a.23.23,0,0,0,.11.22.44.44,0,0,0,.26.07.62.62,0,0,0,.31-.08.26.26,0,0,0,.13-.23V64.94a.24.24,0,0,1,.09-.08.44.44,0,0,1,.19,0,.93.93,0,0,1,.62.21.69.69,0,0,1,.24.53.71.71,0,0,1-.43.59c-.29.17-.43.28-.43.33a.16.16,0,0,0,.06.14.29.29,0,0,0,.17.05,3,3,0,0,0,.39-.16,4.39,4.39,0,0,0,.73-.44.87.87,0,0,0,.38-.62C35.68,65.18,35.48,64.9,35.06,64.62Zm1.43-.31a.58.58,0,0,0-.3.08.26.26,0,0,0-.12.23v3.77a.24.24,0,0,0,.14.24.77.77,0,0,0,.34.08.45.45,0,0,0,.22,0,.13.13,0,0,0,.08-.13v-4a.17.17,0,0,0-.1-.16A.53.53,0,0,0,36.49,64.31ZM41,66.5a2.24,2.24,0,0,1-.59,1.55A1.84,1.84,0,0,1,39,68.7a1.33,1.33,0,0,1-1.14-.63,2.79,2.79,0,0,1-.44-1.64A2.06,2.06,0,0,1,38,64.85a1.68,1.68,0,0,1,1.16-.52,1.53,1.53,0,0,1,1.28.61A2.52,2.52,0,0,1,41,66.5Zm-.88.1a2.9,2.9,0,0,0-.23-1.19q-.29-.6-.75-.6a.75.75,0,0,0-.71.57,3.37,3.37,0,0,0-.16,1.12,3,3,0,0,0,.22,1.15c.18.39.41.58.7.58a.79.79,0,0,0,.74-.54A2.66,2.66,0,0,0,40.07,66.6Z"/><path class="cls-2" d="M19.22,18.48a1.23,1.23,0,0,0,1.62.11,1.13,1.13,0,0,0,1.59-.11s3,4,2.3,6.36a7.24,7.24,0,0,1-8.15,0s-.81-2.11,2.64-6.35m.75-3c-3.25.84-1.75,4-1.75,4l.83-1.09A2.33,2.33,0,0,1,20,15.46m.12,1.9a.63.63,0,1,0,.63.63A.63.63,0,0,0,20.09,17.36Zm1.42,0a.63.63,0,1,0,.63.63A.63.63,0,0,0,21.51,17.36Zm.15-1.9a2.31,2.31,0,0,1,.91,2.88l.84,1.09s1.5-3.13-1.75-4m-5.25,10a3.37,3.37,0,0,0-.4,3c5.63,3,9.09,0,9.09,0a3.26,3.26,0,0,0-.26-3c-4,2.87-8.43,0-8.43,0m-.36,3.64a2.87,2.87,0,0,0-.05,3c5.63,3,9.25,0,9.25,0a3.68,3.68,0,0,0,0-3c-4,2.86-9.16,0-9.16,0m-.12,3.68c-1,1.29.09,3,.09,3,5.63,3.06,9.26,0,9.26,0a3.71,3.71,0,0,0-.05-3c-4,2.87-9.3,0-9.3,0M16,36.43c-.68,4.91,3.85,4.89,3.85,4.89,4.65.26,5.32-4.89,5.32-4.89-4,2.94-9.17,0-9.17,0m.86,4.65A4.1,4.1,0,0,0,18,43.55a9.1,9.1,0,0,1,1.44,2c1,2.06,3.38,1.28,3.38,1.28A1.67,1.67,0,0,0,24,44.62,3.72,3.72,0,0,1,23.79,43c.54-2,.24-2.64.24-2.64-3,3.45-7.17.76-7.17.76m4.06,6.2c.22.6,1.45.84,1.45.84a6.53,6.53,0,0,1,2,1.78c1.36,2.52,2.84.73,2.84.73,1.13-2-.7-2.41-.7-2.41-1.71-.07-2.26-2.1-2.26-2.1-1,1.81-3.34,1.16-3.34,1.16m5.52,4.42c.86.37.93,1.71.93,1.71a1.42,1.42,0,0,0,2.09,1.45,1.5,1.5,0,0,0,.22-2.41A8.85,8.85,0,0,1,28,50a2,2,0,0,1-1.59,1.72m1.15,3.37A1.9,1.9,0,0,1,26,56.62c-1.47.33-1.25,1.32-1.25,1.32.12,1.26,1.39.93,1.39.93,2.47-.68,3.78-3.8,3.78-3.8a2,2,0,0,1-2.36,0m-3.24,2.17a2.88,2.88,0,0,1-2.72.31c-2.16-1-2.21.71-2.21.71-.09,1.94,2.52,1.35,2.52,1.35a11,11,0,0,1,2.55-.7,1.65,1.65,0,0,1-.14-1.67m-5.25.22a2.66,2.66,0,0,1-2.17-.68c-1.63-1.52-2.27-.22-2.27-.22C13.84,59,19,58.91,19,58.91a1.73,1.73,0,0,1,.11-1.45M14.71,55.9c-2.48-.89-.92-1.8-.92-1.8a1.25,1.25,0,0,0,.5-2c-1.39-1.25,1.13-2.9,1.13-2.9a4.85,4.85,0,0,0-3.55,2.62c-1.33,3.32,2.42,5.07,2.42,5.07-.15-.47.42-1,.42-1M5.36,7.44C2.22,4.53,4,.37,4,.37c-4.27,3.16-1.39,9.78-1.39,9.78,0-2.06,2.79-2.71,2.79-2.71M7.48.37S8.82,4.63,5.85,7.84c0,0-2.88.6-2.9,2.78,0,0,.3,1.42,2.69,1.33,0,0,4-.23,3.65-7.22,0,0-.15-3.17-1.81-4.36M3.4,12.17a2,2,0,0,0,.49,1.71,7.13,7.13,0,0,1,1.32,2.17A2.47,2.47,0,0,0,6.9,17.84a3.34,3.34,0,0,1,1.89-1.27,3,3,0,0,1-.72-2.06c.23-2.29-.17-2.82-.17-2.82a4,4,0,0,1-4.5.48m4.73,7a9.78,9.78,0,0,0,3.56,1.52,1.33,1.33,0,0,1,.72-1.52A3.88,3.88,0,0,1,10,17.84a1.41,1.41,0,0,0-2-.4c-1.57.8.13,1.77.13,1.77m9.18.93a5.78,5.78,0,0,1-2.82-.3,4.05,4.05,0,0,0-1.09-.44,1.07,1.07,0,0,0-1.29.54c-.8,2,4.45,1.74,4.45,1.74a6,6,0,0,1,.75-1.54M1.54,19.27c.43,3.43,4.63,5,4.63,5a1,1,0,0,1,.22-1.43,19.58,19.58,0,0,1-4.85-3.6m4.85,4.27a.75.75,0,0,0,.25.76c1.07,1.09,4.81,1.06,4.81,1.06a1.49,1.49,0,0,1,0-1.51,9.63,9.63,0,0,1-4.18-.72c-.78-.28-.88.41-.88.41m9.87-1.24a2.81,2.81,0,0,0-1.37.45,9.51,9.51,0,0,1-2.77,1.09.75.75,0,0,0-.5.82c0,1.67,4.31-.07,4.31-.07a3,3,0,0,1,.33-2.29M.83,23.06c.43,3.43,4.63,5,4.63,5a1,1,0,0,1,.22-1.44A19.64,19.64,0,0,1,.83,23.06m4.85,4.26a.74.74,0,0,0,.25.77c1.07,1.09,4.81,1.05,4.81,1.05a1.48,1.48,0,0,1,0-1.5,9.63,9.63,0,0,1-4.18-.72c-.78-.28-.88.4-.88.4m9.86-1.24a2.78,2.78,0,0,0-1.36.46,9.51,9.51,0,0,1-2.77,1.09.74.74,0,0,0-.5.81c0,1.67,4.31-.07,4.31-.07a3.06,3.06,0,0,1,.32-2.29M.31,27.91c.73,3.38,5.05,4.61,5.05,4.61a1,1,0,0,1,.09-1.45A19.49,19.49,0,0,1,.31,27.91m5.2,3.83a.75.75,0,0,0,.31.74c1.16,1,4.89.63,4.89.63a1.5,1.5,0,0,1-.13-1.5,9.58,9.58,0,0,1-4.22-.35c-.81-.21-.85.48-.85.48m9.72-2.1a2.82,2.82,0,0,0-1.32.57,9.36,9.36,0,0,1-2.67,1.33.74.74,0,0,0-.42.86c.12,1.66,4.29-.44,4.29-.44a3.1,3.1,0,0,1,.12-2.32M.12,33c1,3.29,5.45,4.12,5.45,4.12a1,1,0,0,1,0-1.45A19.77,19.77,0,0,1,.12,33m5.53,3.33a.75.75,0,0,0,.38.71c1.25.88,4.93.18,4.93.18a1.49,1.49,0,0,1-.27-1.48,9.63,9.63,0,0,1-4.24,0c-.82-.14-.8.56-.8.56m9.49-3a2.81,2.81,0,0,0-1.26.69,9.81,9.81,0,0,1-2.54,1.57.75.75,0,0,0-.35.89c.29,1.65,4.24-.84,4.24-.84a3,3,0,0,1-.09-2.31M36.2,7.44S39,8.09,39,10.15c0,0,2.88-6.62-1.39-9.78,0,0,1.74,4.16-1.4,7.07M34.08.37c-1.66,1.19-1.81,4.36-1.81,4.36-.38,7,3.65,7.22,3.65,7.22,2.39.09,2.69-1.33,2.69-1.33,0-2.18-2.89-2.78-2.89-2.78A8.11,8.11,0,0,1,34.08.37m4.08,11.8a4,4,0,0,1-4.5-.48s-.4.53-.17,2.82a3,3,0,0,1-.71,2.06,3.33,3.33,0,0,1,1.88,1.27,2.47,2.47,0,0,0,1.69-1.79,7.13,7.13,0,0,1,1.32-2.17,2,2,0,0,0,.49-1.71m-4.73,7s1.7-1,.13-1.77a1.4,1.4,0,0,0-2,.4,3.88,3.88,0,0,1-2.41,1.37,1.32,1.32,0,0,1,.72,1.52,9.78,9.78,0,0,0,3.56-1.52m-9.18.93A6,6,0,0,1,25,21.68s5.25.23,4.45-1.74a1.06,1.06,0,0,0-1.29-.54,3.91,3.91,0,0,0-1.08.44,5.83,5.83,0,0,1-2.83.3m15.64-.43A19.58,19.58,0,0,1,35,23.31a1,1,0,0,1,.22,1.44s4.2-1.61,4.63-5M35,24s-.1-.69-.88-.4a9.72,9.72,0,0,1-4.18.71,1.52,1.52,0,0,1,0,1.51s3.74,0,4.81-1.05A.78.78,0,0,0,35,24m-9.87-1.24A3,3,0,0,1,25.5,25s4.33,1.74,4.31.07a.75.75,0,0,0-.5-.82,9.51,9.51,0,0,1-2.77-1.09,2.81,2.81,0,0,0-1.37-.45m15.33.77a19.59,19.59,0,0,1-5,3.36,1,1,0,0,1,.15,1.45s4.27-1.41,4.86-4.81m-5,4s-.08-.69-.87-.45a9.55,9.55,0,0,1-4.2.53,1.49,1.49,0,0,1-.08,1.5s3.74.21,4.86-.83a.76.76,0,0,0,.29-.75m-9.8-1.7a3.06,3.06,0,0,1,.22,2.3s4.24,1.94,4.3.27a.75.75,0,0,0-.46-.84A9.4,9.4,0,0,1,27,26.35a2.78,2.78,0,0,0-1.34-.51m15.15,2.48a19.56,19.56,0,0,1-5.23,3,1,1,0,0,1,0,1.45s4.36-1.1,5.19-4.45M35.5,32s0-.69-.84-.5a9.82,9.82,0,0,1-4.23.22,1.49,1.49,0,0,1-.18,1.49s3.72.48,4.91-.48A.77.77,0,0,0,35.5,32m-9.66-2.4a3,3,0,0,1,.06,2.32s4.09,2.23,4.27.57a.75.75,0,0,0-.4-.87,9.41,9.41,0,0,1-2.63-1.41,2.85,2.85,0,0,0-1.3-.61M41,33a19.69,19.69,0,0,1-5.41,2.68,1,1,0,0,1,0,1.45S39.93,36.29,41,33m-5.53,3.33s0-.69-.8-.55a9.63,9.63,0,0,1-4.24,0,1.49,1.49,0,0,1-.27,1.48s3.68.7,4.93-.18a.77.77,0,0,0,.38-.72m-9.49-3a3,3,0,0,1-.09,2.31s3.95,2.48,4.23.84a.75.75,0,0,0-.34-.9A9.69,9.69,0,0,1,27.21,34,2.81,2.81,0,0,0,26,33.35"/></g></g></svg>