<svg xmlns="http://www.w3.org/2000/svg" viewBox="0 0 90.27 72.74"><defs><style>.cls-1,.cls-2{fill-rule:evenodd;}.cls-2{fill:#c6262f;}.cls-3{fill:#fff;}</style></defs><title>Asset 465</title><g id="Layer_2" data-name="Layer 2"><g id="Layer_1-2" data-name="Layer 1"><path d="M62.3,18.63a2.69,2.69,0,0,1,2.6,1.61,2.23,2.23,0,0,0-2.41-.83C61.7,19.66,61.28,18.73,62.3,18.63Zm1.25,2.64c-.88.09-.58.92.06.83a3,3,0,0,1,2.7.67A3.5,3.5,0,0,0,63.55,21.27Zm1.91.18A3.48,3.48,0,0,0,62.69,20c-.88.09-.57.92.07.82A3,3,0,0,1,65.46,21.45ZM72.53,31c-1.55,1.83-4.7,2-6.42,1.49-2,3.07-4,3.82-7.43,4a6.24,6.24,0,0,0-3,.7c-1.63,1.18-2.09,2.39-2.87,4-.94,2-2.87,3.34-3.71,5.16a8,8,0,0,0-.55,4.32,7.15,7.15,0,0,0,1,2.54,2.19,2.19,0,0,1-2.23-.74c-.45-.47-.57-.31-.86,0s-1,1-3,.76c2.49-3.09,2.17-6.81-.93-8.23-5.47,1.12-15-3-19.16-7.46A7.7,7.7,0,0,0,24.58,34a8.83,8.83,0,0,1-5.5,5.4c-.91.33-1.56.4-1.31,2.12.44,3,1.33,6,1,10.72a1.93,1.93,0,0,1-1-.46,2.14,2.14,0,0,0-2.18-.2,5.56,5.56,0,0,1-2.46.66A15.21,15.21,0,0,0,13,39.88c-1.36-2.92-4.18-4.57-6.15-7A15,15,0,0,1,3.35,22.61,14,14,0,0,1,4,19.25H4c.71-2.72-.5-3.78-1.73-4.94C-1.5,10.75-.47,4.55,4.57,4,6.16,1.72,9.47.27,14,0,10.24.64,7.44,1.91,5.84,4c2.24.24,4.42,1.79,4.89,3.85.63,2.72-1.55,4.56-4.23,3.53A4.73,4.73,0,0,1,3.73,5.78,4.94,4.94,0,0,0,1.78,8.51,4.12,4.12,0,0,0,3.35,13a4.32,4.32,0,0,0,4.72-.08h0a23,23,0,0,1,8.23-5C26.06,4.29,38.61,6,45.57,12.26c.32-1.72,1.12-3.27,1.17-5a7.79,7.79,0,0,1,4.91,4.51,14.49,14.49,0,0,1,9.33.58,7.49,7.49,0,0,1,7.21-2.57c-1,2.11-.7,4.5-2,6.64l0,0c1.35,1.84,1.86,5.36,3.41,7.13A5.33,5.33,0,0,1,73,26.29,4.3,4.3,0,0,1,72.53,31ZM7.21,9.7A1.37,1.37,0,0,0,8.87,8,3.35,3.35,0,0,0,5,5.48,3.16,3.16,0,0,0,7.21,9.7Zm59,3.7c.68-1,.54-2.1,1-3.11a3.1,3.1,0,0,0-3.13,2C63.66,13.83,65.34,14.78,66.24,13.4Zm-3.71,3.78a1.06,1.06,0,0,0,1.75-.67.73.73,0,0,1-1.06.22.89.89,0,0,1,.26-1.47l.21-.08c-.17-.14-.35-.27-.54-.4A1.36,1.36,0,0,0,62.53,17.18ZM57.2,14.73a1.6,1.6,0,0,0,2.42,1.52,1.24,1.24,0,0,1-1.37-1.2,1.5,1.5,0,0,1,2.24-1.14,1.88,1.88,0,0,1,.82.78,2.71,2.71,0,0,1,.5-.73,13.3,13.3,0,0,0-2.18-.89A1.91,1.91,0,0,0,57.2,14.73Zm-4-.68a1,1,0,0,0,1.34,1,.73.73,0,0,1-.75-.78.88.88,0,0,1,1.38-.56,1.17,1.17,0,0,1,.45.51,3.1,3.1,0,0,1,1.19-1.73c-.41,0-.83-.07-1.25-.07C54.38,12.48,53.23,12.93,53.17,14.05Zm-6.39-2.68c.17,1.64,2.09,1.57,2.39,0a3.08,3.08,0,0,0-1.83-3.25C47.27,9.25,46.65,10.15,46.78,11.37ZM42.92,14c.36.87,1.26.47.93-.35A4.72,4.72,0,0,1,43.19,11,4.06,4.06,0,0,0,42.92,14Zm-.4.42a4.68,4.68,0,0,1,.77,2.65c.12.87,1.1.77,1-.17A4.06,4.06,0,0,0,42.52,14.41Zm1.1,4.48.86.23a8,8,0,0,1,2.73-.8A8,8,0,0,0,43.62,18.89Zm-1.52.87,1.14.18.38-1.05A6.9,6.9,0,0,0,42.1,19.76ZM41.88,15a4.65,4.65,0,0,1-.66,2.68c-.32.82.58,1.22.94.34A4.12,4.12,0,0,0,41.88,15ZM30.71,25.26a5.82,5.82,0,0,0-1.7,4c.11,1.34,1.5,1.19,1.42-.06S30,26.75,30.71,25.26Zm-2.52,3c.23-1.19.18-2.29,1.17-3.47A5.44,5.44,0,0,0,26.89,28C26.67,29.2,28,29.39,28.19,28.24Zm-1.5-2.74a4.27,4.27,0,0,0-3-1A4.9,4.9,0,0,1,26,26.25C26.6,26.92,27.37,26.23,26.69,25.5Zm3.95,7.28c.4,1.32,1.77.86,1.4-.38s-1-2.32-.6-4A5.91,5.91,0,0,0,30.64,32.78Zm1.66-6.22a5.1,5.1,0,0,1,.76-2.88,4.39,4.39,0,0,0-1.83,2.72C31.12,27.42,32.19,27.5,32.3,26.56Zm5.16-1a4.38,4.38,0,0,0-.71,3.2c.26,1,1.28.68,1-.25A5,5,0,0,1,37.46,25.57ZM40.77,24l-.68-2A9,9,0,0,0,39,25.29ZM39,25.29a10.34,10.34,0,0,0,0,3.14l1.56-1.67Zm1-6a4.61,4.61,0,0,1-1.8,2.09c-.66.58,0,1.35.68.73A4.06,4.06,0,0,0,39.92,19.28Zm-2.13,11a4.89,4.89,0,0,0,.68,3.58c.71.88,1.61.12,1-.72A5.55,5.55,0,0,1,37.79,30.25Zm-3,1.91a6.89,6.89,0,0,0,1,5c1,1.24,2.26.17,1.35-1S35.11,34.09,34.83,32.16Zm2.52-9.65A4.08,4.08,0,0,0,35.66,25c-.1.94.88,1,1,.14A4.65,4.65,0,0,1,37.35,22.51Zm-1.78,9.73c.58,1.22,1.83.57,1.3-.57s-1.29-2.1-1.16-3.74A5.79,5.79,0,0,0,35.57,32.24Zm-.24-9.5a4.06,4.06,0,0,0-1.68,2.52c-.11.94.88,1,1,.14A4.75,4.75,0,0,1,35.33,22.74ZM32.8,30.51c.25,1.31,1.62,1,1.39-.23s-.71-2.34-.18-3.89A5.74,5.74,0,0,0,32.8,30.51Zm.05,4.89c.42.82,1.26.36.88-.41a4.53,4.53,0,0,1-.83-2.55A4,4,0,0,0,32.85,35.4Zm.89,1.08A6.82,6.82,0,0,0,36.13,41c1.31.89,2.2-.5,1-1.34S34.58,38.23,33.74,36.48Zm6.56,2.58c1.52.88,2.39-.74,1-1.58s-2.92-1.32-4-3.19A7.57,7.57,0,0,0,40.3,39.06Zm1.85-2c.83.4,1.22-.48.45-.86a4.46,4.46,0,0,1-2.22-1.51A3.93,3.93,0,0,0,42.15,37.1Zm.56.9a6.62,6.62,0,0,0,4.16,2.66c1.54.13,1.63-1.47.2-1.61S44.25,39.09,42.71,38Zm7.15.69L49.58,36l-2.44,1.81h0L47,35.17l-2.4,1.4a15.87,15.87,0,0,0,2.51,1.25h0A19.72,19.72,0,0,0,49.86,38.69Zm-5.14-4.81-2.63.67a14,14,0,0,0,2.53,2ZM42.64,32l-2.55-.15a11.84,11.84,0,0,0,2,2.74Zm-1.56-2.63L39,28.43a10.84,10.84,0,0,0,1.12,3.38Zm.77-7.84.07-1.59A7.72,7.72,0,0,0,40.09,22Zm-10.72-13a3.73,3.73,0,0,1,3.8,1.32c.73.94,1.78-.38.58-1.17a5.75,5.75,0,0,0-4.22-.75A2.94,2.94,0,0,1,31.13,8.51Zm-1.38,1.63c2.28.53,2.42,1.78,3.64,2.79s2.59-.06,1.75-1.26-3-2-4.68-2.12A3.71,3.71,0,0,1,29.75,10.14Zm-.7.36-.34.12a7.3,7.3,0,0,0,2.92,3.43c1.61.81,2.45-.53,1-1.3A10.79,10.79,0,0,1,29.05,10.5Zm-1.5,5.6c-.09,1.91,2,2.06,2.06,0a8.42,8.42,0,0,0-2.35-5.31l-.28,0C27.83,12.72,27.57,14.3,27.55,16.1Zm-.87-5.36-.22,0a7.38,7.38,0,0,0-1,4.75c.38,1.76,2,1.35,1.7-.29A10.82,10.82,0,0,1,26.68,10.74ZM25.46,7.29a1.7,1.7,0,0,0,3.37,0,1.53,1.53,0,0,0,0-.3,27.74,27.74,0,0,0-3.33.19A.41.41,0,0,0,25.46,7.29Zm-.08,3a13.4,13.4,0,0,1-2.92,3.33c-1.27,1.29.12,2.77,1.5,1.4A7.58,7.58,0,0,0,25.8,10.5,2.68,2.68,0,0,1,25.38,10.31Zm-.72-.48a4.51,4.51,0,0,0-3.75,2.36c-.47,1.08.73,1.74,1.48.78,1-1.28,1.06-2.19,2.58-2.9Zm-4.46.37a3.15,3.15,0,0,1,3.61-1.45,3,3,0,0,1-.27-.84,4.75,4.75,0,0,0-4.46,1.38A.73.73,0,1,0,20.2,10.2ZM15,10.79c.53.56,1.13,1,1.55,1-1.83,2.08-.41,4.65,1.8,3.46-.83,2.84,1.58,4.33,3.39,3.57,0,2,2.07,2.69,3.13,1.45,1.21,2.58,6,2.49,6.58-.61,1.13.75,3.73.85,3.76-2.33,2.09.31,5-2.21,2.92-6a2.06,2.06,0,0,0,1.05-2q-.68-.31-1.38-.6a1.66,1.66,0,0,1-1.23,2.42c3,1.86.56,6.39-2.59,4.84,1.27,1.8-1.31,4-3.17,2.06.62,3.49-5.52,4.46-5.89.37-.29,1.48-3.31,1.16-2.45-1a2.23,2.23,0,0,1-3.06-3.21C17.56,15,16.32,12.08,18,11A1.3,1.3,0,0,1,16.64,9.9C16.08,10.18,15.54,10.48,15,10.79Zm9.25,25.66c2.64-3.15,2.25-7.41.79-9.16s-4.17-1.6-4.52.59c-4.53-.16-5.95-5.9-3.66-9.51,3.38,7,14.6,6.51,20,2.43,2.5-1.89,4.42-4.85,5-10l-.62-.37A2.12,2.12,0,0,1,40,12.23c1.11,3.79-1,6.14-3.26,5.92A3.22,3.22,0,0,1,31.93,21c-1.26,2.82-5.85,2.63-7.06.57-1.2,1.3-3.53.9-3.54-1.22A2.74,2.74,0,0,1,17.63,17C15.13,18.3,13,15.16,15.07,13a1.59,1.59,0,0,1-.75-.13,8.36,8.36,0,0,0-.66.67s0-.07.05-.1a3.14,3.14,0,0,0-.7.84,11.77,11.77,0,0,0-1.46,2.34h0a3.44,3.44,0,0,0-.65,1.7,12.19,12.19,0,0,0-.48,2.28c0-.05,0-.1,0-.15a3.54,3.54,0,0,0-.07,2.14,12.51,12.51,0,0,0,.21,1.95c0-.07-.06-.13-.08-.2a2.34,2.34,0,0,0,.38,1.49,11.57,11.57,0,0,0,.81,2.14l0-.05a2.33,2.33,0,0,0,.78,1.26,7.83,7.83,0,0,1-.74-1.21,3,3,0,0,0,4.4.89c1-1.06,2.41,0,1.32,1.11-1.25,1.27-3.56.51-4.84-.63a7.31,7.31,0,0,0,2.62,1.92,3.45,3.45,0,0,1-.78-.37c.49.79,2,1.21,3.46,1.05a3.87,3.87,0,0,0,3.23-1,4.21,4.21,0,0,0,.59-2.49c.16-2.4,2.7-1.92,2.18.24-1.27,5.31-9.15,5.39-12.48.55-2.08-3-2.26-7.6-1.12-11a13.94,13.94,0,0,1,3.57-5.63,2.67,2.67,0,0,1-.5-.56A17.05,17.05,0,0,0,8.26,18C6,22.65,5.48,27.54,8.08,31.94c1.64,2.79,4.21,4.93,5.74,7.76A14.43,14.43,0,0,1,14.45,51a1.79,1.79,0,0,0,1.91-1.46c.09-1.43.6-1.87,1.18,1.33.27-4.28-.53-6.25-1.13-9.34-.35-1.81-.18-3.11,1.9-3.47,4.57-.77,6.81-4.76,5.78-9.17A6.83,6.83,0,0,1,24.27,36.45Zm-7-11.93a4,4,0,0,0,2.19,2c.9.24,1.12-.7.29-.94A4.63,4.63,0,0,1,17.29,24.52Zm.95-.52c.86.76,1.63-.15.84-.88A5.67,5.67,0,0,1,17,20.55,5,5,0,0,0,18.24,24Zm4,1.24c.9.24,1.12-.7.29-.94a4.59,4.59,0,0,1-2.48-1.08A4,4,0,0,0,22.27,25.24ZM27.83,38a5.71,5.71,0,0,1-1.5-3,4.94,4.94,0,0,0,.49,3.65C27.48,39.61,28.44,38.89,27.83,38Zm1.09-3.55c-.43-1.47-1.13-2.68-.69-4.58a6.85,6.85,0,0,0-.92,5C27.77,36.41,29.34,35.88,28.92,34.46Zm1.9,5.81a5.61,5.61,0,0,1-1.89-2.76,4.92,4.92,0,0,0,1,3.56C30.69,41.91,31.54,41.06,30.82,40.27Zm1.1-3.51c-1-1.24-2.08-2.13-2.37-4.1a7,7,0,0,0,1,5.12C31.56,39.05,32.85,38,31.92,36.76Zm2.14,4.91c-.84-.76-1.74-1.25-2.19-2.62a5.11,5.11,0,0,0,1.33,3.52C34.08,43.34,34.86,42.41,34.06,41.67Zm3.82.93a5.75,5.75,0,0,1-2.8-1.82,4.94,4.94,0,0,0,2.26,2.9C38.39,44.16,38.85,43.05,37.88,42.6Zm1.17-3.37a6.65,6.65,0,0,0,4,3c1.53.26,1.75-1.35.32-1.6S40.52,40.43,39.05,39.23Zm2.25,4a4.64,4.64,0,0,1-2.22-1.51,4,4,0,0,0,1.77,2.37C41.68,44.47,42.07,43.59,41.3,43.21ZM45.39,45c1.19.22,1.39-1,.28-1.24s-2.2-.19-3.33-1.15A5.19,5.19,0,0,0,45.39,45Zm2.53,1.78a3.13,3.13,0,0,1-2.36.28,5.55,5.55,0,0,1-.38,5.25,3.08,3.08,0,0,0,1.53-2.55c.13,1.31.55,2,1.19,2.29C47.12,50.7,47.22,48.9,47.92,46.82Zm.84-4.34c-1.35-.23-2.6-.18-3.93-1.15a6,6,0,0,0,3.6,2.39C49.84,43.94,50.06,42.7,48.76,42.48Zm2.39-2.17a4.55,4.55,0,0,1-2.67.21,4,4,0,0,0,2.86.75C52.24,41.06,52,40.13,51.15,40.31Zm1.21-1.18-.45-2.76-2,2.32C50.65,38.87,51.48,39,52.36,39.13Zm14.52-12.2c-.62-.86-2.84-1.15-4.34-.16,1.11-.24,2.11,0,2.42,1C65.37,29,67.87,28.3,66.88,26.93Zm1.38-3.7a16.18,16.18,0,0,1-1.15-2.64l0,0a2.44,2.44,0,0,0-.59,2.15,2.81,2.81,0,0,1,0-2.52A.49.49,0,0,1,66.9,20c-.13-.38-.27-.75-.41-1.11a.43.43,0,0,1-.09.33,2.4,2.4,0,0,0-.54,2.16,2.78,2.78,0,0,1,0-2.52c.22-.32.46-.31.58-.16a7.52,7.52,0,0,0-.86-1.63l-.18-.22s0,.06,0,.08A2.22,2.22,0,0,1,63,18.46a2.17,2.17,0,0,1-1.83-1.17,2.44,2.44,0,0,1-1,.86,3.37,3.37,0,0,1-4.65-2.53,1.43,1.43,0,0,1-.76.6A2.18,2.18,0,0,1,52.17,15a2.12,2.12,0,0,1,.47-2.32l-.69.15a4.87,4.87,0,0,1,0,1.66,3.37,3.37,0,0,1-5.19,2.16,3.69,3.69,0,0,1-1.29-3.15,2.91,2.91,0,0,0,1.26,4.13c2.84,1.37,5.17,1,7.51,5.53-4-6-11.87-5.05-12.88,1.22-.95,5.85,3.49,10.45,8.89,10.88,3.57.28,6.76-1.1,7.43-5a9.39,9.39,0,0,0-3.49-8.82c5.62,3.07,5.86,9.6,3.23,13.7.58,0,1.19,0,1.82-.05,1.89,0,4.67-.18,6.1-2.8-2-.16-4.45-1.38-5-3.68a4,4,0,0,1,1.29-4,8,8,0,0,1,5.43-1.57A11.61,11.61,0,0,1,68.26,23.23Zm4.3,4.93c-1.07-1.27-3-1.41-3.76-.7-1.16,1.15.84,2.31,1.46,1.16C70.76,27.72,71.66,27.7,72.56,28.16Zm-23.27-.48c-2.49.47-3.84.27-4.37-.71a3.88,3.88,0,0,1,3.15-.07,3.07,3.07,0,0,0-3.46-.54c.32-.88,1.41-1.06,2.54-.71a3.2,3.2,0,0,0-2.89-.32c.32-1.22,3.26-1.09,5.41.4a6,6,0,0,0-5.1-2.09C41.94,24,41.49,26.87,44,28A5.74,5.74,0,0,0,49.29,27.68Zm-2.68-8.07c-1.73.38-2.26,2.54-.21,3.46,1.52.69,3.78.08,5.59,1.48-1.82-2.07-4.58-1.79-4.89-2.57a2.27,2.27,0,0,1,2.07.15,2.33,2.33,0,0,0-2.41-1.43c.74-.88,4-.31,5.55,1.55A5.66,5.66,0,0,0,46.61,19.61ZM50.19,34a1.56,1.56,0,0,0,.75-1.72,1.49,1.49,0,0,1-1.06.89c-.14-.54,1.47-1.47,1.65-3.3-.43,1.47-1.9,2-2.46,3a1.25,1.25,0,0,0,1.65,1.84A3.2,3.2,0,0,0,52,31.79C51.76,33.17,50.94,34.15,50.19,34Zm.16-3.4c-1.05,1.26-2.42,1.73-3.79.66a1.63,1.63,0,0,1,.79-.9,1.09,1.09,0,0,0-.76-.27,3.17,3.17,0,0,1,3-.95c-1.53-.56-3.66-.67-4.5.86a1.86,1.86,0,0,0,1.39,2.83A4.18,4.18,0,0,0,50.35,30.56Zm3.26,3.23a1.27,1.27,0,0,0-.29-1.52,1.25,1.25,0,0,1-.3,1.1c-.35-.31.31-1.69-.42-3,.39,1.2-.36,2.26-.28,3.18a1,1,0,0,0,2,.48,2.63,2.63,0,0,0-.44-2.56C54.31,32.52,54.21,33.56,53.61,33.79Zm1.73-1.22a.82.82,0,0,0,1.14-1,2.65,2.65,0,0,0-1.67-1.85,1.55,1.55,0,0,1,.9,1.93,1,1,0,0,1-.55-.34.56.56,0,0,0,0,.42,2,2,0,0,1-.91-1.47A2.26,2.26,0,0,0,55.34,32.57ZM58.53,20a7.68,7.68,0,0,0-5.72-.62c2.2.14,3.28,1.28,4.72,2.22S60,21,58.53,20ZM56.44,30.21a.68.68,0,0,0,.76-1.06,2,2,0,0,0-1.72-.85c.78.25,1.14.51,1.16.86a1,1,0,0,1-.8-.32,1,1,0,0,0,.78.87c-.41.25-1.08-.17-1.51-.93A2,2,0,0,0,56.44,30.21Zm9.18-12c.48-.45,0-1.11-.48-.45a2.15,2.15,0,0,0,.08,2.45A1.77,1.77,0,0,1,65.62,18.23ZM13.53,22.34c1.55.16,1.51-1.58.05-1.73a2.93,2.93,0,0,1-2-4,12.58,12.58,0,0,0-.6,1.47c0,.07,0,.15,0,.22C10.67,20.1,11.68,22.15,13.53,22.34Zm6.91,7.88c.51-1.47-1.19-1.83-1.67-.45a2.84,2.84,0,0,1-3.61,1.44,7,7,0,0,0,2,.63,5.06,5.06,0,0,0,.68.05A2.87,2.87,0,0,0,20.44,30.22ZM9.7,19.25c-.27.33-.55.49-.75.41-.38-.15-.36-1.11,0-2.15l0-.09a4.38,4.38,0,0,0-.67,1.19c-.4,1-.42,2,0,2.15S9.3,20.23,9.7,19.25Zm1.22-3c-.23.22-.46.32-.6.24s-.17-.87.24-1.61l0-.07a3.88,3.88,0,0,0-.61.83c-.41.74-.51,1.46-.24,1.61S10.53,17,10.92,16.25ZM9.36,22.83c-.29.59-.65.93-1,.88-.61-.09-.92-1.52-.68-3.2,0-.05,0-.1,0-.15a7.14,7.14,0,0,0-.58,2c-.23,1.68.07,3.11.69,3.2S9.1,24.43,9.36,22.83Zm4.54,2.6c1.54-.27,1-1.94-.42-1.68a3,3,0,0,1-3.06-3.2,12.09,12.09,0,0,0-.08,2C10.75,24.24,12.19,25.73,13.9,25.43Zm-3.23,6.62c.83-.45,1-1.77.35-2.95a3.41,3.41,0,0,0-.53-.74,2,2,0,0,1-.4,2.64,1.93,1.93,0,0,1-2.38-1.06,3,3,0,0,0,.3.78C8.65,31.9,9.84,32.5,10.67,32.05Zm3.58-12.58c1.47.53,1.85-1.17.46-1.66a2.93,2.93,0,0,1-1.05-4.31,9.05,9.05,0,0,0-.65.74C11.92,16,12.27,18.76,14.25,19.47Zm1.13,8.46c1.37-.75.35-2.16-.93-1.45a2.94,2.94,0,0,1-3.9-2c0,.09,0,.19,0,.28.08.34.17.68.26,1C11.7,27.3,13.77,28.81,15.38,27.93Zm-.09,16.18a2.09,2.09,0,0,0,.05.42c.13.66.56,1.11,1,1s.59-.75.46-1.42a2,2,0,0,0-.15-.43c.11.59-.08,1.15-.44,1.25S15.44,44.67,15.29,44.11ZM16.11,41c.11.59-.09,1.14-.45,1.25s-.73-.26-.87-.83a2.15,2.15,0,0,0,0,.43c.14.66.57,1.11,1,1s.6-.75.46-1.41A1.81,1.81,0,0,0,16.11,41Zm-3-6.62c.77-.7.58-2.16-.41-3.25a3.79,3.79,0,0,0-.77-.64c.85,1,1,2.28.28,2.92a2.13,2.13,0,0,1-2.82-.49,3.67,3.67,0,0,0,.53.75C10.92,34.75,12.35,35.07,13.12,34.37Zm2-1.76A4.51,4.51,0,0,0,14,32.05c1.32,1,1.86,2.49,1.19,3.47s-2.22,1-3.58.23a4.54,4.54,0,0,0,.86.76c1.54,1,3.37,1,4.1-.07S16.68,33.65,15.15,32.61Zm5.75.13a2.78,2.78,0,0,0-1.37.3c2.48-.3,2.7,2.51.76,3.65C23,36.17,23.39,32.85,20.9,32.74Zm-3.81.19a2.44,2.44,0,0,1,.33,4.67c1.59-.2,2.79-1.18,2.78-2.35S18.82,33,17.09,32.93Zm-.95,5.17a2.52,2.52,0,0,0-.26-.65,1.51,1.51,0,0,1-.8,1.88c-.63.15-1.31-.4-1.56-1.24a2.3,2.3,0,0,0,.07.63c.25,1,1,1.67,1.72,1.5S16.38,39.1,16.14,38.1Zm5.78-6.21a1.92,1.92,0,0,0-.36.46,1.24,1.24,0,0,1,1.68-.21A1.22,1.22,0,0,1,23,33.77a2.45,2.45,0,0,0,.43-.31c.61-.6.77-1.43.35-1.86A1.37,1.37,0,0,0,21.92,31.89ZM16.36,47.28c-.35.1-.73-.27-.87-.83a2,2,0,0,0,0,.42c.14.67.57,1.12,1,1s.6-.75.46-1.41a1.67,1.67,0,0,0-.14-.43C16.92,46.62,16.72,47.17,16.36,47.28Z"/><path class="cls-1" d="M66.91,40.93a18.13,18.13,0,0,0,4.57-3,7.24,7.24,0,0,0-3.21-4.29,6.11,6.11,0,0,1,4,3.47c1.27-1.38,2.07-2.87,1.7-4.16-.22-.76,0-.95.39-.67A4.33,4.33,0,0,1,76,34.11a1.44,1.44,0,0,1-.32,1.18,15.08,15.08,0,0,1-2.84,3A21.27,21.27,0,0,1,72.28,52c-.51,1.07-1,1.48-1.75.42-.85-1.22-1.43-2.7-2.79-3.49,1.61-.23,3.34,2.57,3.89,1.19a19.84,19.84,0,0,0,.54-7.06,10,10,0,0,1-6,4.24C68.26,46,71,43.75,72.1,41.09a18.57,18.57,0,0,0-.3-2,10.48,10.48,0,0,1-4.89,1.85Zm22.31-.43c2,.12.93-2.27-1.41-1.66-1.09.28-2.34.56-3.65.82.67-.93,1.29-1.86,1.88-2.75a1.74,1.74,0,0,0-.89-2.51c-.33-.15-.58,0-.55.4s.14.7.13,1a1.74,1.74,0,0,1-.26.74c-.74,1.19-1.5,2.38-2.29,3.54l-1.43.25c0-.9,0-1.82.07-2.75a18.69,18.69,0,0,0,2.58-.48c.85-.24-.31-1.29-.66-1.11a8.81,8.81,0,0,1-1.9.73c0-.94,0-1.89.07-2.82,0-.57.13-1.06-.12-1.33a2.38,2.38,0,0,0-1.67-.66c-.36,0-.21.4,0,.7a4.14,4.14,0,0,1,.58,2c.06.65.09,1.45.11,2.35a17,17,0,0,1-2.74.2c-.09,0-.51.35-.25.44a8.5,8.5,0,0,0,3,.12c0,.88,0,1.83,0,2.78-1.23.18-2.4.33-3.44.42-.61,0-1.2.07-1.81.09-.21,0-.67.13-.25.38a4.87,4.87,0,0,0,1.38.47,2.62,2.62,0,0,0,1-.05c1.63-.28,3.28-.55,4.88-.77-.68,1-1.39,1.89-2.14,2.76-.23-.44-1-.4-1.28-.38s-.06.54,0,.72.13.56.18.84a15.66,15.66,0,0,1-4.63,3.31,13,13,0,0,0,4.74-2.32c.14,1.93-.19,3.84,0,5.66.06.72.84.9,1,0,0-.28.07-.62.1-1,.84,0,2.32-.62,3.43.25a4.75,4.75,0,0,1,1.16,2c.37.8.71.53,1.17-.41.82-1.66.33-4.73-.06-7.19a1,1,0,0,0,.76-1c-.09-.58-1.31-1.45-1.85-1.28a23.73,23.73,0,0,1-3.11.71,33.33,33.33,0,0,0,2.43-2.88,34.73,34.73,0,0,1,5.85-.23Zm-9.73,6.27a7.74,7.74,0,0,0,2.58-.51c.63-.28,1.36.93.43,1.07a23.38,23.38,0,0,1-3,.14c0,.9,0,1.81,0,2.6,1.59-.09,1.78-.7,2.66-.7.69,0,1,.46,1.46.91s.59.12.66-.23a15.09,15.09,0,0,0-.09-4.83c-.11-1-.26-1.27-1.3-1.13a17.57,17.57,0,0,1-2.53.15c-.28.27-.56.53-.85.78,0,.51,0,1.11,0,1.75Z"/><path class="cls-2" d="M14.53,60H51.79a6.39,6.39,0,0,1,6.38,6.37h0a6.4,6.4,0,0,1-6.38,6.37H14.53a6.39,6.39,0,0,1-6.37-6.37h0A6.39,6.39,0,0,1,14.53,60Z"/><path class="cls-3" d="M28.14,64.84V65a1.91,1.91,0,0,1,.62-.54,1.43,1.43,0,0,1,.72-.18,1.66,1.66,0,0,1,.9.26,1.72,1.72,0,0,1,.65.73,2.52,2.52,0,0,1,.23,1.14,2.88,2.88,0,0,1-.13.9,2,2,0,0,1-.38.68,1.76,1.76,0,0,1-.56.42,1.71,1.71,0,0,1-.71.15,1.5,1.5,0,0,1-.76-.18,2.35,2.35,0,0,1-.58-.53V69.4c0,.46-.17.7-.51.7a.4.4,0,0,1-.39-.18,1.09,1.09,0,0,1-.1-.53V64.84a.61.61,0,0,1,.14-.44.43.43,0,0,1,.35-.15.48.48,0,0,1,.37.15.64.64,0,0,1,.14.44Zm2.07,1.53a1.93,1.93,0,0,0-.13-.72,1,1,0,0,0-.36-.45.8.8,0,0,0-.49-.16.93.93,0,0,0-.74.34,1.49,1.49,0,0,0-.3,1,1.45,1.45,0,0,0,.3,1,.92.92,0,0,0,.74.35.85.85,0,0,0,.48-.15,1.12,1.12,0,0,0,.36-.46,1.84,1.84,0,0,0,.14-.74Zm2.95-1.53v3a.69.69,0,0,1-.15.48.53.53,0,0,1-.76,0,.74.74,0,0,1-.14-.48v-3a.74.74,0,0,1,.14-.48.56.56,0,0,1,.76,0,.63.63,0,0,1,.15.44Zm-.52-1.08a.55.55,0,0,1-.37-.14.46.46,0,0,1-.16-.38.47.47,0,0,1,.16-.37.57.57,0,0,1,.37-.14.52.52,0,0,1,.36.13.45.45,0,0,1,.16.38.49.49,0,0,1-.15.38.55.55,0,0,1-.37.14ZM38.13,65v3.06A3.35,3.35,0,0,1,38,69a1.49,1.49,0,0,1-.36.63A1.59,1.59,0,0,1,37,70a3.53,3.53,0,0,1-1,.12,2.72,2.72,0,0,1-1-.16,1.75,1.75,0,0,1-.66-.39.74.74,0,0,1-.23-.5.4.4,0,0,1,.13-.31.47.47,0,0,1,.32-.12.52.52,0,0,1,.4.2l.18.21a1.12,1.12,0,0,0,.2.18.85.85,0,0,0,.27.12,1.83,1.83,0,0,0,.35,0,1.57,1.57,0,0,0,.64-.11.64.64,0,0,0,.31-.32,1.29,1.29,0,0,0,.11-.44c0-.15,0-.4,0-.75a1.72,1.72,0,0,1-.56.52,1.53,1.53,0,0,1-.76.18,1.58,1.58,0,0,1-.92-.27,1.71,1.71,0,0,1-.61-.76,3.11,3.11,0,0,1-.09-2,1.87,1.87,0,0,1,.37-.65,1.71,1.71,0,0,1,1.24-.53,1.61,1.61,0,0,1,.78.18,1.79,1.79,0,0,1,.61.54v-.15a.6.6,0,0,1,.13-.42.45.45,0,0,1,.35-.15.4.4,0,0,1,.41.2,1.39,1.39,0,0,1,.1.57Zm-3.06,1.34a1.48,1.48,0,0,0,.28,1,.92.92,0,0,0,.73.33,1,1,0,0,0,.49-.14.92.92,0,0,0,.38-.42,1.47,1.47,0,0,0,.15-.69,1.6,1.6,0,0,0-.28-1,.9.9,0,0,0-.75-.35.86.86,0,0,0-.72.34,1.49,1.49,0,0,0-.28,1Z"/></g></g></svg>