<svg xmlns="http://www.w3.org/2000/svg" viewBox="0 0 86.46 87.78"><title>Asset 492</title><g id="Layer_2" data-name="Layer 2"><g id="Layer_1-2" data-name="Layer 1"><path d="M86.22,43.61a6.37,6.37,0,0,1-1.71-.46c-.71-.28-1.42-.55-2.14-.81a15.9,15.9,0,0,1-2-.9c-.63-.33-1.22-.71-1.84-1.06a7.13,7.13,0,0,0-.67-.3,1.63,1.63,0,0,0-.29-.23c-.68-.43-1.39-.81-2-1.27a16.26,16.26,0,0,0-3-1.54,8.78,8.78,0,0,0-1-.37A15.87,15.87,0,0,0,68.24,36a8.3,8.3,0,0,0-2.28.05,2.2,2.2,0,0,1-.3,0l.51-.4c.26-.19.54-.37.78-.58a26.58,26.58,0,0,0,3.36-3.35,19.07,19.07,0,0,1,1.51-1.47l.14-.11a7.36,7.36,0,0,1,1.57-.63,8.71,8.71,0,0,1,1.23-.27,18.14,18.14,0,0,0,3.39-1A7.29,7.29,0,0,0,80.23,27a7.71,7.71,0,0,0,1.51-1.66,4.37,4.37,0,0,1,.49-.47c.06-.06.14-.14,0-.25l-.23.14a8.3,8.3,0,0,1-2.21,1,11.12,11.12,0,0,1-3.34.44c-.7,0-1.41,0-2.11,0l-2.64-.1a11.26,11.26,0,0,0-3,.21c-.3.07-.6.15-.9.2a8.43,8.43,0,0,0-2.68,1.12,14.64,14.64,0,0,0-1.55,1.06,7.59,7.59,0,0,0-1.42,1.41L60.69,32s-.07,0-.11,0a.61.61,0,0,1,0-.11A3.94,3.94,0,0,1,61,30.39a2.23,2.23,0,0,0,.22-.47,17.21,17.21,0,0,1,1.69-3.24c.18-.27.38-.52.56-.8a6.56,6.56,0,0,1,2.11-2.05c.47-.29.93-.6,1.4-.88s1-.62,1.53-.9A10.8,10.8,0,0,0,70.28,21c.33-.26.66-.53,1-.76a7.38,7.38,0,0,0,1-.93c.07-.07,1.11-1.51,1.21-1.71a10.9,10.9,0,0,0,.89-2.41,4.34,4.34,0,0,0,0-1.14c0-.1-.09-.2-.15-.3a.17.17,0,0,0-.25,0l-.08.15A3.48,3.48,0,0,1,72.8,15a22.57,22.57,0,0,1-2.33,1.11,15.47,15.47,0,0,1-2.51.76c-.42.08-.83.14-1.24.23l-2.52.55a11.35,11.35,0,0,0-2.66.87c-.19.1-.38.17-.57.26a11.91,11.91,0,0,0-2.1,1.28,10.51,10.51,0,0,0-2.36,2.78,6.76,6.76,0,0,0-.36.71l-1,2.26c0,.07,0,.19-.2.18a1.6,1.6,0,0,1-.1-.31c0-.4-.1-.8-.12-1.2,0-.57-.06-1.14-.08-1.71A10.8,10.8,0,0,1,55.1,19c.23-.71.54-1.39.77-2.09a.71.71,0,0,1,.08-.15c.43-.56.78-1.17,1.24-1.71.75-.86,1.53-1.7,2.27-2.57a7.84,7.84,0,0,0,.82-1.16,11.84,11.84,0,0,0,1.15-2.92,1.86,1.86,0,0,0,.07-.34c0-.57.11-1.14.12-1.71s-.06-1-.1-1.42a1,1,0,0,0-.3-.61.24.24,0,0,0-.35,0c-.12.29-.21.58-.35.85A10.35,10.35,0,0,1,58.7,7.6,12.62,12.62,0,0,1,56,9.74c-1.21.72-2.37,1.53-3.55,2.3a11.52,11.52,0,0,0-2.34,2,7.07,7.07,0,0,0-1,1.51c-.24.47-.5.94-.75,1.41a4.9,4.9,0,0,0-.24.52c-.12.34-.23.69-.35,1a12.61,12.61,0,0,0-.84,4.42c0,.13,0,.25,0,.42-.09-.06-.15-.07-.18-.11-.4-.58-.83-1.15-1.17-1.76-.77-1.34-1.47-2.72-2.12-4.12-.19-.42-.36-.85-.51-1.28s-.14-.67-.26-1a4.8,4.8,0,0,1-.27-1.28,4.8,4.8,0,0,1,.06-1.77c.14-.53.26-1.07.35-1.62a20.06,20.06,0,0,1,.58-2.15A11.17,11.17,0,0,0,44,6.08q.08-.75.21-1.47a4.77,4.77,0,0,0,0-2c-.14-.71-.35-1.41-.54-2.1a1.62,1.62,0,0,0-.2-.42S43.38,0,43.28,0s-.05.07-.05.1a2.21,2.21,0,0,1,0,.85c-.08.37-.14.75-.23,1.12a7,7,0,0,1-.79,2A26.18,26.18,0,0,1,40.11,7a13.57,13.57,0,0,0-.87,1.13C38.61,9,38,10,37.39,10.93a28.34,28.34,0,0,0-1.58,2.78,7.65,7.65,0,0,0-.88,4c0,.13,0,.27,0,.4a6.4,6.4,0,0,0,.37,2.13c.13.44.31.86.46,1.3a1.5,1.5,0,0,1,0,.22c-.15-.12-.26-.18-.35-.27-.4-.41-.77-.86-1.2-1.22-.74-.61-1.36-1.34-2.06-2A1.54,1.54,0,0,1,31.9,18,6.13,6.13,0,0,1,31,15a14,14,0,0,1,0-2.51c.07-1.24.07-2.48.08-3.72A13.08,13.08,0,0,0,31,7a9.63,9.63,0,0,0-.57-2.44,3.88,3.88,0,0,0-1.26-1.68,1.06,1.06,0,0,0-.33-.08c0,.26,0,.47,0,.67a6.13,6.13,0,0,1-.1,1,18.63,18.63,0,0,1-1,3C27.5,8,27.23,8.51,27,9.05a16.77,16.77,0,0,0-1.59,4.52,9.23,9.23,0,0,0,.52,5.61,8.49,8.49,0,0,0,2.26,3.26c.11.1.21.22.31.33a16.13,16.13,0,0,0,2.31,2.06l1.3.92c.09.07.21.11.21.27a2.43,2.43,0,0,1-.89-.17c-1.06-.33-2.11-.67-3.16-1a9.3,9.3,0,0,1-2.43-1.24c-.26-.26-.88-.74-1.1-.95-.05-.05-.49-.47-.57-.56a15.08,15.08,0,0,1-2-2.67c-.21-.36-.46-.7-.65-1.07a27.37,27.37,0,0,0-1.68-2.46,10,10,0,0,0-.83-1c-.3-.34-.63-.66-.95-1a7.85,7.85,0,0,0-1.41-1.16l-1.85-1.14a1.68,1.68,0,0,0-.42-.17c-.12,0-.23,0-.25.09.4.68.88,1.27,1.21,2a21.76,21.76,0,0,1,.93,2.09c.13.38.31.74.43,1.12a21.57,21.57,0,0,1,.84,3.44c.23,1.36.45,2.71.69,4.07A15.61,15.61,0,0,0,19,26.92a20.46,20.46,0,0,0,1,2,7.57,7.57,0,0,0,1.61,2,7.43,7.43,0,0,0,1.17.82c.12.07.29.11.31.3,0,0-.08,0-.11,0l-2-.26-3.47-.38c-.55-.06-1.1-.09-1.65-.13l-.28-.05a9.07,9.07,0,0,1-1.54-.45,5.36,5.36,0,0,1-1.87-1.07c-.63-.55-1.28-1.09-1.9-1.66a10.38,10.38,0,0,0-3-2,9.08,9.08,0,0,0-1.74-.57c-.43-.07-.87-.1-1.3-.15-.07,0-.16,0-.21.12a3.08,3.08,0,0,0,.59.55A6.34,6.34,0,0,1,5.9,27.1a22.68,22.68,0,0,1,2.54,3.16c.61.88,1.17,1.79,1.75,2.69.12.19.22.4.33.6.3.49.57,1,.9,1.46.54.74,1.1,1.46,1.7,2.16a8.23,8.23,0,0,0,2.55,2c.53.27,1.08.49,1.62.73a19.6,19.6,0,0,0,3.2.85c.13,0,.27,0,.4,0a3.75,3.75,0,0,1,.79.14s-.05.06-.07.06a12,12,0,0,0-3.31,1,8.65,8.65,0,0,1-.93.43,7.17,7.17,0,0,0-1.34.64c-1,.52-1.93,1.08-2.89,1.61a8,8,0,0,1-3.89,1.05,12.84,12.84,0,0,1-2.62-.24c-.94-.22-1.91-.37-2.84-.66-1.15-.36-2.34-.52-3.5-.82a.33.33,0,0,0-.17,0s-.11.06-.12.11a.15.15,0,0,0,.07.13,1.51,1.51,0,0,0,.37.15,9.46,9.46,0,0,1,1.82.79c.41.21.81.44,1.21.66.58.32,1.18.63,1.75,1,1.26.76,2.5,1.54,3.76,2.29a18.91,18.91,0,0,0,1.73.9c.52.23,1.07.41,1.61.59a9.43,9.43,0,0,0,4.62.47c.25,0,.5,0,.74,0A4.39,4.39,0,0,0,19,50.84a3.86,3.86,0,0,1,.66-.2,4.45,4.45,0,0,0,1.13-.39l2-.91c.08,0,.17-.09.26,0a2.6,2.6,0,0,1-.1.25c-.34.62-.69,1.23-1,1.84a2.12,2.12,0,0,1-.35.53,3.62,3.62,0,0,0-.44.59,9.09,9.09,0,0,1-1,1.32,4.35,4.35,0,0,0-.61.75,2.42,2.42,0,0,1-.45.51,1.09,1.09,0,0,0-.24.24c-.31.47-.79.77-1.12,1.22a1.31,1.31,0,0,1-.31.25c-.18.13-.38.26-.55.4a7.25,7.25,0,0,1-1.67,1,12.58,12.58,0,0,1-2.63.76c-.9.18-1.79.39-2.69.56a15.64,15.64,0,0,0-1.93.51c-.57.18-1.13.37-1.67.6-.28.11-.52.32-.79.45a1.67,1.67,0,0,0-.62.49c-.3.4-.59.8-.87,1.21a.75.75,0,0,0-.13.25.21.21,0,0,0,.15.27,1.1,1.1,0,0,0,.62-.07,6.51,6.51,0,0,1,2.48-.34c.69,0,1.37,0,2.06.07s1.41.06,2.11.15a29.55,29.55,0,0,0,3.25.32A14,14,0,0,0,18,63.26c.55-.13,1.11-.28,1.67-.39a5.06,5.06,0,0,0,1.25-.4c.36-.17.73-.33,1.09-.51a8.51,8.51,0,0,0,2.52-1.85,10.54,10.54,0,0,0,1.79-2.51A5.15,5.15,0,0,1,26.7,57c0-.05.1-.07.19-.13a11.55,11.55,0,0,1-.26,3.24,15.61,15.61,0,0,1-.92,2.47,5.85,5.85,0,0,1-.28.56,14.58,14.58,0,0,1-2,2.59,10.45,10.45,0,0,1-1.61,1.36c-.67.44-1.38.81-2.08,1.21s-1.17.64-1.72,1a21.22,21.22,0,0,0-1.75,1.38A7.81,7.81,0,0,0,14.49,73a5,5,0,0,1-.27.51,6.41,6.41,0,0,0-.66,1.63,2.78,2.78,0,0,0-.11.5.16.16,0,0,0,.13.21s.08,0,.1,0a5.13,5.13,0,0,1,2.07-1.39c.62-.28,1.29-.47,1.91-.75A17.31,17.31,0,0,1,20,72.82c.58-.18,1.16-.37,1.76-.52a40.57,40.57,0,0,0,4-1.17,11.77,11.77,0,0,0,2.87-1.41,7.64,7.64,0,0,0,2.46-2.81,14.16,14.16,0,0,0,1.18-3.1c.1-.39.21-.77.32-1.16a3.05,3.05,0,0,1,.11-.29l.18.22a6.86,6.86,0,0,1,.77,1.78c.25.8.43,1.62.64,2.43a5,5,0,0,1,.1.56,8.71,8.71,0,0,1-.07,2.28,5,5,0,0,1-.19,1,11.58,11.58,0,0,1-1.28,2.68l-2.41,3.55A15.77,15.77,0,0,0,29,79.35a6.68,6.68,0,0,0-.55,2.85c0,.74.1,1.48.17,2.22a.85.85,0,0,0,.12.38.64.64,0,0,0,.3.24c.09,0,.21,0,.33,0a1.87,1.87,0,0,0,.09-.42,2.94,2.94,0,0,1,.65-1.5,17.6,17.6,0,0,1,1.25-1.49A16.28,16.28,0,0,1,35,78.68c.51-.33,1-.66,1.52-1s1.25-.94,1.87-1.42a6.92,6.92,0,0,0,1.58-1.79,13.19,13.19,0,0,0,1.34-2.78,7.38,7.38,0,0,0,.49-2.46c0-.55,0-1.11,0-1.66a2,2,0,0,0,0-.34c-.16-.71-.33-1.41-.49-2.12a1.23,1.23,0,0,1,0-.29l.2.08a1.24,1.24,0,0,1,.23.17,5.56,5.56,0,0,1,1.42,2c.45,1.2.87,2.4,1.27,3.62.17.52.26,1.07.38,1.61a1.32,1.32,0,0,1,0,.28c0,.29,0,.57,0,.86a8.72,8.72,0,0,1-.08,1.53c-.1.62-.08,1.26-.22,1.87v.12a2.73,2.73,0,0,1-.14.9,4.05,4.05,0,0,0-.12.5c-.13.5-.25,1-.4,1.49s-.32.9-.47,1.35-.25.76-.36,1.15a10,10,0,0,0-.35,2.31,6.3,6.3,0,0,0,.72,3.11c.18,0,.33.1.49-.06a4.79,4.79,0,0,1,.47-1.9,7,7,0,0,0,.3-.68,16,16,0,0,1,1.25-2.57c.44-.78.89-1.55,1.32-2.33.26-.45.5-.91.74-1.36s.48-.83.68-1.26c.44-1,.85-2,1.27-3l.06-.17c.16-.58.34-1.17.48-1.76a9.69,9.69,0,0,0,.34-2.2,11.38,11.38,0,0,0-.18-1.94,10,10,0,0,0-.31-1.34c-.27-.81-.6-1.6-.9-2.41,0,0,0,0,0-.09s.93.56,1.1.65l0,0a30.2,30.2,0,0,1,2.87,2.1,10.89,10.89,0,0,1,1.94,3.45c.11.29.43,1,.45,1,.28.86.56,1.72.86,2.57a10.54,10.54,0,0,0,.51,1.2c.13.28.59,1.49.77,1.79a6.81,6.81,0,0,1,.45.73,9,9,0,0,0,1.89,2.27,1,1,0,0,0,.2.12,2.75,2.75,0,0,1,.28.19,7.6,7.6,0,0,0,1.68,1.07,2.27,2.27,0,0,0,1.37.26.21.21,0,0,0,0-.32l-.54-.52a7.14,7.14,0,0,1-.92-1.37,10,10,0,0,1-.9-2.16c-.18-.63-.27-1.27-.43-1.89A21.91,21.91,0,0,1,60.45,72c-.1-1.39-.19-2.78-.41-4.16a9.5,9.5,0,0,0-.3-1.28A14.67,14.67,0,0,0,59.16,65a8.09,8.09,0,0,0-.83-1.5,10,10,0,0,0-1.95-2,3.1,3.1,0,0,1-.56-.58,1.12,1.12,0,0,1,.18-.08,11.44,11.44,0,0,1,2.11,0c.42,0,.83.11,1.25.18s.67.16,1,.19a6.68,6.68,0,0,1,1.4.28,7.67,7.67,0,0,1,4.56,3.58c.39.66.75,1.33,1.13,2l.81,1.43a16.29,16.29,0,0,0,1.4,2,6.77,6.77,0,0,0,1,1c.2.17.43.32.64.48a6.73,6.73,0,0,0,3.57,1.41.14.14,0,0,0,.18-.12l-.14-.14a2.76,2.76,0,0,1-.57-.56c-.21-.34-.48-.63-.69-1s-.58-.94-.88-1.4a6.35,6.35,0,0,1-.67-1.39c-.24-.68-.45-1.38-.67-2.07l-.72-2.23c-.22-.69-.44-1.38-.67-2.07a17.29,17.29,0,0,0-1.62-3.84,22.66,22.66,0,0,0-2.32-3.26A5.83,5.83,0,0,0,64.47,54a9.86,9.86,0,0,0-1.72-.78,3.82,3.82,0,0,1-.36-.17.51.51,0,0,1,.12-.09,7.14,7.14,0,0,1,2.25-.34,11.41,11.41,0,0,0,1.54.07,3.85,3.85,0,0,1,1.18.12,7.58,7.58,0,0,0,.77.24,9.17,9.17,0,0,1,2,.71c.19.08.39.15.58.25.38.2.76.42,1.14.65l1.56,1c.61.38,1.22.77,1.84,1.14.41.25.81.51,1.24.72a16.8,16.8,0,0,0,3,1.06,3.26,3.26,0,0,0,.45.09,6.52,6.52,0,0,0,2.33,0c.41-.1.83-.14,1.24-.23.23-.06.46-.16.7-.24,0,0,.05-.05.08-.09l-.12-.36a3,3,0,0,1-1.42-.34,12.74,12.74,0,0,1-1.47-.63,12.59,12.59,0,0,1-3.49-2.84c-.51-.59-1-1.2-1.5-1.8s-1.09-1.34-1.66-2a7.72,7.72,0,0,0-1.82-1.55l-1.14-.67a7.81,7.81,0,0,0-2.57-1.06l-.85-.17a8.23,8.23,0,0,0-3-.15c-.43.07-.87.12-1.31.17-.08,0-.19.05-.23-.11l1.62-1.43a8.76,8.76,0,0,1,1.91-1.34c.65-.33,1.3-.66,1.94-1a5.53,5.53,0,0,1,3-.69,8.56,8.56,0,0,1,2.75.44c.21.09.44.13.66.2l1.08.35a2.2,2.2,0,0,0,.54.2,7.86,7.86,0,0,1,1.06.38c.47.15.94.3,1.42.43a7.22,7.22,0,0,0,.79.13l1.19.18c.45.08.91,0,1.36.1a6.09,6.09,0,0,0,1.76-.08,4.63,4.63,0,0,0,1.49-.56s0-.09.06-.16A1.14,1.14,0,0,0,86.22,43.61Zm-19.07-7.4a11.74,11.74,0,0,1,3.28.39c.38.11.78.18,1.16.28L72,37l1.11.44a8.75,8.75,0,0,1,1,.46c.6.35,1.19.74,1.8,1.1s1,.59,1.47.88l.76.44c.46.28.92.54,1.38.8l.7.4L81,42l0,0a23.36,23.36,0,0,0,2.55,1,1.68,1.68,0,0,1,.7.43,3.06,3.06,0,0,1-.4-.08,33.28,33.28,0,0,1-4.3-1.73c-1-.5-2-1-3.08-1.52a24.62,24.62,0,0,0-2.36-1c-.67-.24-1.31-.52-2-.73a16.79,16.79,0,0,0-3.28-.76,8.93,8.93,0,0,0-2.73.07l-.34,0a4.85,4.85,0,0,0-2.14.77c-.22.14-.45.26-.7.39a2.55,2.55,0,0,1-.42-1.15,6.06,6.06,0,0,1,.95-.54A7.63,7.63,0,0,1,67.15,36.21ZM80.9,42.78c-.9-.34-1.78-.7-2.66-1.05-1.25-.49-2.48-1-3.73-1.46a13.58,13.58,0,0,0-2.59-.7c-.66-.1-1.32-.23-2-.27a10,10,0,0,0-2.84.17c-.88.2-1.72.52-2.56.8a5.41,5.41,0,0,0-.71.38c-.13.08-.25.16-.42.25A10.09,10.09,0,0,1,63,39.2a2.85,2.85,0,0,1,1-.65,6.4,6.4,0,0,1,1.77-.61,12.65,12.65,0,0,1,2.68-.14,10.39,10.39,0,0,1,2.47.42,6.56,6.56,0,0,1,1.14.36.75.75,0,0,0,.32.1c.42,0,.76.26,1.15.33a.2.2,0,0,1,.11,0,10.65,10.65,0,0,0,1.82.82c.48.22,1,.46,1.44.7.66.33,1.31.71,2,1,.43.2.83.45,1.28.62l1.26.54c.23.1.46.18.68.29a1.29,1.29,0,0,1,.24.23h0v0C81.83,43.09,81.36,43,80.9,42.78Zm.15.3a23.74,23.74,0,0,1-3.16-.92,23,23,0,0,0-2.66-.88A14.43,14.43,0,0,0,72,40.7l-.34,0a9.1,9.1,0,0,0-2.5.07,5.56,5.56,0,0,0-1.4.25c-.25.1-.5.2-.74.32-.69.35-1.39.71-2.08,1.08a5.12,5.12,0,0,0-.55.4,3.44,3.44,0,0,1-.62.46,4.64,4.64,0,0,1-.17-1c-.08-.34-.13-.68-.19-1a6.06,6.06,0,0,1,1.4-.79c.4-.16.82-.3,1.23-.44a8.62,8.62,0,0,1,2.3-.46,9.15,9.15,0,0,1,1.48,0A14.76,14.76,0,0,1,72.5,40c.72.2,1.43.42,2.14.64,1.15.34,2.23.88,3.36,1.29C78.53,42.1,80.54,42.84,81.05,43.08Zm-.48-16.93s.07,0,.19,0a2.36,2.36,0,0,1-.71.73,8.34,8.34,0,0,1-2.26,1.21,22,22,0,0,1-3.74,1,9.64,9.64,0,0,0-1.06.26,4.19,4.19,0,0,0-1.76,1,35.11,35.11,0,0,0-2.48,2.69,3.78,3.78,0,0,1-.39.41,16.7,16.7,0,0,1-2.47,2.05c-.56.35-1.15.67-1.73,1-.4.22-.81.42-1.22.62-.15.08-.31.13-.46.2-.21-.18-.19-.41-.28-.61l.22-.33c.36-.46.72-.93,1.09-1.39a15.7,15.7,0,0,1,2.3-2.31A11.84,11.84,0,0,1,68,31.24c.44-.23.83-.54,1.29-.75S70,30.14,70.4,30c.84-.29,1.68-.63,2.52-.94l1.66-.61a1.17,1.17,0,0,1,.27-.05,15.84,15.84,0,0,0,2.89-.71,3.94,3.94,0,0,0,1.33-.62.46.46,0,0,1,.15-.09A5.33,5.33,0,0,0,80.57,26.15ZM61.72,34.91c.24-.34.47-.7.74-1a18.42,18.42,0,0,1,1.94-2,14.66,14.66,0,0,1,5.86-3.1,25,25,0,0,1,2.58-.51L74.19,28l3.07-.65c.2-.05,1.68-.55,2-.59-.15.11-1.49.66-1.56.68-.77.21-1.54.43-2.32.61a13.06,13.06,0,0,0-1.76.48c-1.34.5-2.69,1-4,1.51a7.12,7.12,0,0,0-1.16.61q-.81.48-1.59,1a14.07,14.07,0,0,0-2.13,1.72,16.93,16.93,0,0,0-1.85,2.12c-.22.3-.47.59-.75.94a6,6,0,0,1-.5-1.13A.45.45,0,0,1,61.72,34.91Zm-.36-.06c-.16-.35-.3-.64-.43-.94a7.43,7.43,0,0,1,1.37-1.76c.43-.38.87-.76,1.28-1.15a12.16,12.16,0,0,1,3-2A18.47,18.47,0,0,1,69,28.14a9,9,0,0,1,1.46-.28c.94-.15,1.88-.28,2.83-.41l.62-.07a9.59,9.59,0,0,1,1.7-.14,3.7,3.7,0,0,0,.78-.15c.08,0,2-.32,2.16-.31-.09.08-1.94.46-2,.47l-3.2.65c-.48.1-1,.18-1.46.25a15.18,15.18,0,0,0-3.62,1.05,14.21,14.21,0,0,0-2.59,1.43A15.79,15.79,0,0,0,62,34.17,1.84,1.84,0,0,1,61.36,34.85Zm0-3.31c.16-.21.33-.42.5-.62.32-.38.66-.74,1-1.12a8.19,8.19,0,0,1,1.38-1.19,13.88,13.88,0,0,1,1.62-1c.54-.27,1.12-.49,1.68-.72.1,0,2.85-.42,3.28-.42H72l3.2,0a38.62,38.62,0,0,0,4.42-.41c0,.05-1.26.38-1.31.39-.22.06-.45.09-.68.13-1.2.21-2.41.33-3.63.46-1,.11-2,.24-3.06.43-.63.12-1.27.21-1.9.37a13.91,13.91,0,0,0-2,.73A19.91,19.91,0,0,0,64.55,30a6.87,6.87,0,0,0-.94.75c-.45.41-.89.83-1.36,1.22a8,8,0,0,0-.73.8,5.15,5.15,0,0,1-.7.79,1,1,0,0,1-.34-.46A3.35,3.35,0,0,1,61.32,31.54ZM74.21,14.72a1.21,1.21,0,0,1,0,.25,7.38,7.38,0,0,1-.68,2c-.08.13-.12.28-.19.42s-1,1.52-1,1.55a12,12,0,0,1-1.4,1.26,26,26,0,0,1-3.57,2.27c-.69.4-1.37.82-2,1.24A5.77,5.77,0,0,0,63.85,25a17.32,17.32,0,0,0-1.46,2.05c-.38.68-.76,1.37-1.11,2.06a12,12,0,0,0-1,3,2.47,2.47,0,0,1-.14.34c-.36-.5-.72-.91-1-1.41.26-.84.47-1.69.79-2.5a7,7,0,0,1,1.06-2c.07-.09.09-.21.16-.3a2.9,2.9,0,0,1,.45-.58c.66-.56,1.26-1.17,1.86-1.78a11,11,0,0,1,2.09-1.58c.38-.23.74-.48,1.11-.72a1.67,1.67,0,0,1,.28-.18,22.6,22.6,0,0,0,3-1.73,8.34,8.34,0,0,0,2.31-1.92c.36-.47.77-.9,1.09-1.39S73.91,15.29,74.21,14.72Zm-.8.83.08.08a3.25,3.25,0,0,1-.28.56c-.48.59-.9,1.23-1.44,1.78a10.3,10.3,0,0,1-1.88,1.48c-.89.55-1.81,1.07-2.71,1.6-.65.39-1.31.77-2,1.19a13.49,13.49,0,0,0-1.8,1.39c-.67.6-1.31,1.22-1.94,1.86a5.05,5.05,0,0,0-.53.6,12.65,12.65,0,0,0-1.3,2.47c-.26.63-.44,1.3-.64,2,0,.07-.05.14-.08.22a.87.87,0,0,1-.17-.09L58,29.86a.42.42,0,0,1-.13-.41,6.52,6.52,0,0,1,.92-2.56.76.76,0,0,0,.12-.19,7.8,7.8,0,0,1,1.37-2c.46-.6,1.06-1.09,1.58-1.65a11.13,11.13,0,0,1,1.38-1.28,13.25,13.25,0,0,1,1.32-.89,23.88,23.88,0,0,1,2.13-1.11c1.19-.56,2.36-1.15,3.54-1.74.2-.1.37-.26.57-.38a7.29,7.29,0,0,0,.92-.56c.48-.39.93-.83,1.4-1.25ZM57.77,28.86c0,.14-.1.28-.16.46a1.6,1.6,0,0,1-.21-.13l-.93-.93a.34.34,0,0,1-.09-.41,3.55,3.55,0,0,1,.21-.54c.41-.83.83-1.67,1.27-2.49a9.49,9.49,0,0,1,1.69-2.29,9.24,9.24,0,0,1,1.29-1.13,5.27,5.27,0,0,1,1.29-.83.78.78,0,0,0,.2-.11A20.77,20.77,0,0,1,65.24,19a9,9,0,0,1,.92-.31l1.14-.36a5.94,5.94,0,0,0,.79-.32c.34-.17.71-.27,1.07-.41.56-.22,1.14-.42,1.7-.67a6.13,6.13,0,0,0,.72-.45c.11-.06.68-.44.85-.33-.08.21-.69.61-.86.72a23.08,23.08,0,0,1-3.31,1.81c-1,.46-2,.94-3,1.46a10.6,10.6,0,0,0-2.34,1.53c-.29.27-.57.56-.86.84s-.45.41-.66.63a15.34,15.34,0,0,0-2.59,3.19A11.4,11.4,0,0,0,57.77,28.86Zm-2.45-2.8c.42-1,.82-2,1.32-3A8.51,8.51,0,0,1,59.33,20,8.18,8.18,0,0,1,61.22,19c.29-.11.55-.26.83-.38A9.24,9.24,0,0,1,63.9,18c.81-.16,1.6-.37,2.4-.54l2-.4a5.9,5.9,0,0,0,.6-.17c.22-.06.45-.11.66-.19A5.75,5.75,0,0,0,71,16.16a.33.33,0,0,1,.1-.06,15.34,15.34,0,0,0,1.55-.7,1.49,1.49,0,0,1,.22,0,4.73,4.73,0,0,1-.9.73,22,22,0,0,1-2.77,1.23c-1,.38-2,.74-3,1.06a17.27,17.27,0,0,0-2.29.9,15.26,15.26,0,0,0-3.44,2.12l-.83.69a5.9,5.9,0,0,0-1.28,1.53,2.33,2.33,0,0,1-.26.38,4.7,4.7,0,0,0-.46.78c-.38.77-.79,1.53-1.18,2.29-.12.23-.25.46-.37.7a5.18,5.18,0,0,1-1-.6A3.1,3.1,0,0,1,55.32,26.06Zm6-19.6a6.64,6.64,0,0,1-.38,2.93A9.51,9.51,0,0,1,59,12.59L56.9,15.05A9.64,9.64,0,0,0,55,18.6c-.15.45-.26.92-.38,1.38a2.72,2.72,0,0,0-.08.51c0,.59,0,1.18,0,1.77,0,.15,0,.3,0,.45a24.8,24.8,0,0,0,.16,2.86,2.63,2.63,0,0,0,.1.56,2.36,2.36,0,0,1,.07.79c-.05,0-.1,0-.12,0-.49-.3-1-.62-1.46-.91a.71.71,0,0,1-.36-.55,6.42,6.42,0,0,1-.14-1.64.49.49,0,0,0,0-.12,6.05,6.05,0,0,1,0-1.59A6.65,6.65,0,0,1,53,20.9c.17-.7.39-1.39.57-2.09a10.19,10.19,0,0,1,.85-2c.35-.68.79-1.31,1.2-2,.08-.13.2-.22.29-.34.53-.67,1.09-1.32,1.64-2,.3-.35.62-.67.94-1a9.62,9.62,0,0,0,2-3,20,20,0,0,0,.71-1.87A1.63,1.63,0,0,1,61.27,6.46Zm-.63.22c.13-.29.29-.57.43-.86l.07,0a1,1,0,0,1,0,.25c-.11.4-.21.81-.35,1.2a9.82,9.82,0,0,1-.5,1.09c-.23.48-.48.95-.72,1.43a.88.88,0,0,1-.12.19A18.44,18.44,0,0,1,58,11.63a2.43,2.43,0,0,0-.47.49c-.6.74-1.26,1.43-1.81,2.21-.38.55-.8,1.07-1.13,1.65a16.27,16.27,0,0,0-1.33,3.16,16.71,16.71,0,0,0-.61,2.31,5.46,5.46,0,0,0-.08.68,17.43,17.43,0,0,0,.09,3.31.45.45,0,0,1,0,.16s0,0-.07,0l-1.63-.67a.48.48,0,0,1-.31-.5,11.91,11.91,0,0,1,.09-1.19,13.49,13.49,0,0,1,1-3.69,16.64,16.64,0,0,1,2.05-3.69,19.84,19.84,0,0,1,1.39-1.67c.75-.88,1.5-1.77,2.29-2.62a27.93,27.93,0,0,0,2-2.68A12.38,12.38,0,0,0,60.64,6.68Zm-.49.21c.08,0,0,.31-.09.46a10.44,10.44,0,0,1-1.35,2.12,6,6,0,0,0-.37.51,13.7,13.7,0,0,1-1.2,1.53c-.8.9-1.57,1.82-2.35,2.73-.24.27-.46.56-.71.82a15.88,15.88,0,0,0-1.76,2.53,3.92,3.92,0,0,0-.16.36A24.23,24.23,0,0,0,51,20.64,9.75,9.75,0,0,0,50.5,23c0,.44-.07.87-.11,1.31a2,2,0,0,1-.06.26,5,5,0,0,1-1.6-.52,2.72,2.72,0,0,1,0-.31c0-.37,0-.73,0-1.09a1.31,1.31,0,0,1,0-.28,12.22,12.22,0,0,1,1.34-4c.16-.3.29-.62.45-.92.28-.51.54-1,.85-1.49a6.09,6.09,0,0,1,.73-.88c.46-.51.91-1,1.4-1.51s.76-.63,1.13-.95.81-.68,1.24-1a4.12,4.12,0,0,0,.4-.33c.51-.48,1-.95,1.53-1.45A10.15,10.15,0,0,0,58.53,9c.35-.45.69-.91,1-1.37ZM47.29,21.24a16.68,16.68,0,0,1,1-3.46,21.26,21.26,0,0,1,1.1-2.25,9.27,9.27,0,0,1,2.7-2.91c.46-.34,1-.63,1.43-.94L54.57,11c.61-.39,1.24-.76,1.84-1.16a14,14,0,0,0,2.8-2.42,1.8,1.8,0,0,1,.2-.19l.05,0a2.43,2.43,0,0,1-.28.53,23.6,23.6,0,0,1-2.64,2.92c-.9.8-1.85,1.53-2.75,2.33A11.63,11.63,0,0,0,52,14.93c-.12.17-.28.31-.41.47a14,14,0,0,0-1.72,3,13.82,13.82,0,0,0-1.06,2.59,9.21,9.21,0,0,0-.3,2.15c0,.3,0,.61,0,.92a5.7,5.7,0,0,1-1.12-.22,3,3,0,0,1-.09-.38A9.26,9.26,0,0,1,47.29,21.24Zm1.93,3.34a27.39,27.39,0,0,1,2.62,1,13.1,13.1,0,0,1,1.16.64,26.23,26.23,0,0,1,2.8,1.87,11.22,11.22,0,0,1,1.4,1.26,24.25,24.25,0,0,1,1.8,2,19.14,19.14,0,0,1,1.36,2,27.37,27.37,0,0,1,1.44,3.11,10.34,10.34,0,0,1,.61,1.72s0,.11,0,.24l-1.35-.77-.15-.08A27.33,27.33,0,0,0,57,36a7.3,7.3,0,0,0-1.53-.2,22,22,0,0,0-2.81-.07c-.64,0-1.29.11-1.93.19a8.62,8.62,0,0,0-1,.21,9.34,9.34,0,0,0-2.87,1.26,4.44,4.44,0,0,0-1.41,1.32,3.74,3.74,0,0,1-.36.45A5.68,5.68,0,0,0,44.2,41a19,19,0,0,0-.49,2.24,1.74,1.74,0,0,1-.05.22A3.64,3.64,0,0,0,43.5,45a16.88,16.88,0,0,0,.35,3.47,4.1,4.1,0,0,0,.19.66,6.34,6.34,0,0,1,.35,1.2,2.44,2.44,0,0,0,.3.8,6.17,6.17,0,0,1,.37.83.93.93,0,0,1,0,.6,8.59,8.59,0,0,0-.81.48c-.26.18-.42.49-.69.64a.66.66,0,0,1-.49-.29.81.81,0,0,0-.7-.33.85.85,0,0,1-.22,0,.59.59,0,0,1-.51-.75.94.94,0,0,1,0-.16,16.55,16.55,0,0,0,.8-3.39c.14-.94.26-1.89.49-2.82A5.41,5.41,0,0,0,43.09,44a6.06,6.06,0,0,0-.44-1.41q-.34-.91-.72-1.8a2.29,2.29,0,0,0-.31-.55,7.14,7.14,0,0,0-4-2.54c-.48-.11-1-.26-1.44-.36a18.83,18.83,0,0,0-4.42-.54,9,9,0,0,0-.91.11c-.38,0-.76.08-1.13.16-.54.11-1.08.26-1.61.41a8.7,8.7,0,0,0-2.57,1.23,12.2,12.2,0,0,0-1.89,1.48s-.06,0-.14.06a1.19,1.19,0,0,1,.06-.6,22.66,22.66,0,0,1,.71-2.3c.19-.45.32-.94.52-1.39a20,20,0,0,1,3.76-5.5c.66-.69,1.31-1.39,2-2a13.67,13.67,0,0,1,1.52-1.21,14.59,14.59,0,0,1,1.5-1,20.4,20.4,0,0,1,3.63-1.54,13.15,13.15,0,0,1,1.85-.56,17.25,17.25,0,0,1,3.12-.36c.86,0,1.72,0,2.58,0a12.15,12.15,0,0,1,1.48.14A15.63,15.63,0,0,1,49.22,24.58ZM28,29.39a25.61,25.61,0,0,1-3.16-2c-.42-.32-.87-.6-1.28-.95a8,8,0,0,1-.9-.94,11.31,11.31,0,0,1-2-3.45c-.26-.76-.5-1.52-.75-2.28-.14-.41-.24-.84-.42-1.24-.31-.7-.65-1.37-1-2.06-.22-.46-.46-.92-.68-1.38a9.41,9.41,0,0,1-.9-1.39s.86,1,.87,1.06a9.39,9.39,0,0,1,1.12,1.65c.37.78.76,1.54,1.16,2.3.31.57.67,1.11.95,1.69a20.64,20.64,0,0,0,2,3.08l.11.13c.43.48.87,1,1.32,1.43a10,10,0,0,0,2.21,1.61c.44.26.9.5,1.36.73a7.93,7.93,0,0,0,1.89.63c.15,0,.29.08.49.14l-1.58,1.54A3.35,3.35,0,0,1,28,29.39ZM44,3.33c.14.07,0,1.39,0,1.5a14.22,14.22,0,0,1-.69,2.88c-.08.22-.12.44-.19.66l-.33,1.09a21.06,21.06,0,0,0-.64,3.14,2.6,2.6,0,0,0,0,.4,8.09,8.09,0,0,0,.33,2.13c.11.33.17.67.26,1a3.35,3.35,0,0,0,.19.53c.35.73.69,1.45,1,2.17s.79,1.52,1.17,2.29a21.39,21.39,0,0,0,1.28,2.1l.22.37c-.08.15-.18.1-.27.09-.59-.06-1.17-.13-1.76-.18a.89.89,0,0,1-.41-.18A5.87,5.87,0,0,1,43,22a13.14,13.14,0,0,1-1.21-2.13A23,23,0,0,1,41,17.38a10.92,10.92,0,0,1-.1-2.62,4.77,4.77,0,0,1,.21-1.29c.09-.25.66-2.56.93-3.46s.69-1.65,1-2.48a12.72,12.72,0,0,0,.83-2.78C43.86,4.68,44,3.41,44,3.33ZM43.8,3a3.82,3.82,0,0,1-.09,1.39A12.24,12.24,0,0,1,42.61,8c-.36.9-.71,1.81-1,2.72a8.93,8.93,0,0,0-.5,1.82c-.11.81-.35,1.6-.4,2.42a7,7,0,0,0,0,1.65A9.17,9.17,0,0,0,41,18c.08.24.38,1.15.41,1.23.22.48.46,1,.69,1.44.06.14.14.27.21.4A9.77,9.77,0,0,0,43.58,23c.11.12.24.23.35.33-.09.16-.21.13-.32.13-.55,0-1.11,0-1.66,0a.89.89,0,0,1-.9-.47,8,8,0,0,1-.79-1.64,24.11,24.11,0,0,1-.9-3.14,20.82,20.82,0,0,1,.32-4.7A25.75,25.75,0,0,1,41,10.05c.27-.59.56-1.17.84-1.75.52-1.11,1-2.22,1.48-3.35A11.5,11.5,0,0,0,43.8,3Zm-.55.44a5,5,0,0,0,.14-.67,1.51,1.51,0,0,1,.23-.63.76.76,0,0,1,0,.21,12.65,12.65,0,0,1-.43,2.12c-.23.57-.46,1.14-.71,1.69-.67,1.5-1.37,3-2,4.49A19,19,0,0,0,39.62,13a12.26,12.26,0,0,0-.47,2.76c0,.55,0,1.1,0,1.66a12.42,12.42,0,0,0,.37,2.24,5.84,5.84,0,0,0,.4,1.29,12.18,12.18,0,0,0,1,2.23,1.91,1.91,0,0,1,.15.32,12.88,12.88,0,0,1-1.61.27,2.73,2.73,0,0,1-.23-.25,8.37,8.37,0,0,1-1.71-3.5,6.3,6.3,0,0,1-.18-.84,11.38,11.38,0,0,1-.08-1.31c0-.51,0-1,0-1.54a9.94,9.94,0,0,1,.13-1.08c.08-.39.18-.78.28-1.16a14.56,14.56,0,0,1,1.77-3.89c.52-.89,1.1-1.73,1.68-2.58a14.87,14.87,0,0,0,1.1-1.94A13.56,13.56,0,0,0,43.25,3.47ZM35.66,20.74a10.37,10.37,0,0,1-.49-2,8,8,0,0,1,.6-4.42c.36-.71.71-1.43,1.12-2.12.63-1.07,1.37-2.06,2-3.14a12.82,12.82,0,0,1,1.58-2.1,6.51,6.51,0,0,0,.46-.58c.25-.34.5-.67.73-1A8.72,8.72,0,0,0,43,2.9c0-.06.09-.11.2-.24a2,2,0,0,1,0,.35c0,.18-.1.37-.16.55A20.61,20.61,0,0,1,41.9,6c-.48.87-1,1.72-1.54,2.55-.26.39-.57.76-.8,1.18-.39.67-.73,1.38-1.11,2.06a7.55,7.55,0,0,0-.67,1.51,12.94,12.94,0,0,0-.6,2.73,20.29,20.29,0,0,0-.1,2.06A8.93,8.93,0,0,0,38,21.8c.11.24.2.5.32.73s.33.51.49.77a1.12,1.12,0,0,1,.29.56,5.07,5.07,0,0,1-1,.29,4.27,4.27,0,0,1-1.1-1.06,2.83,2.83,0,0,0-.2-.28A6.71,6.71,0,0,1,35.66,20.74ZM29.89,3.91a5.12,5.12,0,0,1,.51,1,12.7,12.7,0,0,1,.47,2.81,4.3,4.3,0,0,1,0,.8c0,.8,0,1.6-.05,2.4s-.07,1.83-.1,2.74a11.43,11.43,0,0,0,.24,2.55,4.59,4.59,0,0,0,1.52,2.63c.46.4.86.86,1.31,1.27.68.62,1.32,1.27,2,1.92a14.83,14.83,0,0,1,1,1.13,5.68,5.68,0,0,0,.78.91,1,1,0,0,1,.09.2,3.37,3.37,0,0,1-1,.35c-.22-.21-.45-.44-.69-.65a5.17,5.17,0,0,0-.56-.49A10.58,10.58,0,0,1,34,22.39a19.85,19.85,0,0,1-1.51-1.79A12.66,12.66,0,0,1,30.65,17c-.18-.46-.26-.95-.41-1.42,0-.14-.23-1.25-.28-1.55a10,10,0,0,1,0-2.56c.14-1.29.28-2.58.3-3.88a16.57,16.57,0,0,0-.39-3.22,5.52,5.52,0,0,0-.18-.53C29.81,3.73,29.85,3.84,29.89,3.91Zm-.22,1.46s-.06-.69-.05-.78A14.07,14.07,0,0,1,30,7.43a29.77,29.77,0,0,1-.3,3.77,8.08,8.08,0,0,0,.05,2.9c.08.35.12.71.18,1.07a12.88,12.88,0,0,0,1.29,3.71,14.94,14.94,0,0,0,2.45,3.44c.45.48,1,.89,1.49,1.33.33.29.65.59,1,.89,0,0,.07.12.12.21a6.43,6.43,0,0,1-1.07.49l-1.21-1a21.4,21.4,0,0,1-2-2,5.86,5.86,0,0,1-.52-.75c-.08-.12-.86-1.53-.92-1.69a18.48,18.48,0,0,1-.78-1.9A9.66,9.66,0,0,1,29.2,16c-.06-.57-.2-1.13-.27-1.7,0-.31,0-.64,0-1a17.53,17.53,0,0,1,.28-3.07c.08-.57.18-1.13.29-1.69A20.56,20.56,0,0,0,29.67,5.37Zm-.37.17a5.39,5.39,0,0,1,.11-.84c0,.21,0,1.08,0,1.25a17.27,17.27,0,0,1-.28,3.13,33.07,33.07,0,0,0-.43,3.28,14.72,14.72,0,0,0,.23,3.31,6,6,0,0,0,.17.84,14.13,14.13,0,0,0,.82,2.37c.21.39.37.79.56,1.19,0,.07.92,1.8,1.16,2.08.51.59,1,1.18,1.56,1.73a14.94,14.94,0,0,0,1.21,1c.14.12.31.23.34.46a3.37,3.37,0,0,1-1,.4,2.33,2.33,0,0,0-.36-.4,12.71,12.71,0,0,1-2.79-3.15A7,7,0,0,1,30,21a3.44,3.44,0,0,0-.42-.75,7.32,7.32,0,0,1-.75-1.41,8.34,8.34,0,0,1-.74-3.26c0-.75,0-1.49,0-2.24a12.36,12.36,0,0,1,.28-2.26c.21-.93.37-1.87.59-2.8A17.23,17.23,0,0,0,29.3,5.54Zm2.63,19.92c-.17-.13-.32-.28-.49-.39a13.08,13.08,0,0,1-2.08-1.7c-.53-.53-1.09-1-1.6-1.55a5.4,5.4,0,0,1-1.06-1.49c-.21-.43-.44-.85-.64-1.27a5.38,5.38,0,0,1-.51-1.7c0-.24-.08-.49-.12-.73a6.89,6.89,0,0,1,0-2.22A16.91,16.91,0,0,1,27,9.51l.93-1.9a14.78,14.78,0,0,0,.74-1.91,8.19,8.19,0,0,1,.45-1.63c.14,0-.07,1-.07,1.06a25.06,25.06,0,0,1-.76,5,15.51,15.51,0,0,0-.46,4.94c0,.46,0,.91.07,1.37a7.25,7.25,0,0,0,.87,2.76c.27.53.59,1,.88,1.54.13.24.24.48.36.71s.12.24.19.36a24.14,24.14,0,0,0,1.62,2.28,9.34,9.34,0,0,0,.89.89c.19.18.41.34.61.51a1,1,0,0,0,.46.26,2,2,0,0,1-.71.46A9.73,9.73,0,0,1,31.93,25.46ZM17.2,13.32a15.54,15.54,0,0,1,2.09,2.2c.61.8,1.21,1.61,1.79,2.44.37.53.7,1.09,1,1.65a12.72,12.72,0,0,0,1.95,2.6s1.44,1.33,1.5,1.37a11.44,11.44,0,0,0,1.11.69A22.32,22.32,0,0,0,30,25.62c.71.23,1.42.45,2.15.61.16,0,.32.09.54.15a1.51,1.51,0,0,1-.19.22c-.12.09-.26.16-.38.25l-.88.64-.4.32a.41.41,0,0,1-.37.08l-1.17-.25a9.85,9.85,0,0,1-2.59-1.2,15.23,15.23,0,0,1-1.43-.93,4.76,4.76,0,0,1-1.09-1c-.13-.18-.3-.34-.45-.51a19.54,19.54,0,0,1-2-2.72c-.25-.4-.45-.83-.67-1.25-.14-.25-.27-.51-.4-.76-.26-.49-.55-1-.78-1.45a23.5,23.5,0,0,0-1.29-2.29,10.85,10.85,0,0,0-.81-1.11c-.33-.43-.67-.86-1-1.28C17.07,13.2,17.07,13.2,17.2,13.32Zm-.13,1.11a10.94,10.94,0,0,1,.69,1.25c.43.83.89,1.65,1.28,2.49a10.41,10.41,0,0,1,.6,1.73,21.06,21.06,0,0,0,1.21,3.33c.28.61.69,1.13,1,1.72a3.4,3.4,0,0,0,.53.67,14.16,14.16,0,0,0,3.66,2.88c.55.32,1.08.65,1.63,1,.28.16.57.3.88.45-.12.39-.44.59-.65.87a2.67,2.67,0,0,1-.71.75,11.61,11.61,0,0,1-2.63-1.27,14.14,14.14,0,0,1-2.74-2.56,14.68,14.68,0,0,1-1-1.26,6.23,6.23,0,0,1-.6-1.11,21.28,21.28,0,0,1-.93-2.45c-.31-1-.5-2.07-.78-3.1s-.65-2.16-1-3.23c-.44-.68-.56-1.5-1-2.17a4.88,4.88,0,0,1-.29-.66A2.07,2.07,0,0,1,17.07,14.43Zm4.25,15.92a6.15,6.15,0,0,1-1-1.2,13,13,0,0,1-2-5.2c0-.19-.08-.37-.11-.56s-.06-.45-.1-.68-.09-.52-.13-.79c-.12-.69-.23-1.39-.37-2.08-.11-.5-.16-1-.3-1.51s-.21-.81-.33-1.22a12.24,12.24,0,0,0-.67-1.87c-.13-.28-.28-.55-.39-.83a8.35,8.35,0,0,1-.56-1.35c.13,0,.17.11.23.2.29.52.58,1,.86,1.55.11.22.2.45.3.68s.3.65.44,1,.24.64.34,1c.38,1.28.77,2.55,1.06,3.86A27.24,27.24,0,0,0,19.39,24a10.42,10.42,0,0,0,1.9,3.43,16.1,16.1,0,0,0,1.5,1.71,12,12,0,0,0,3.34,2.27l.57.27a2.38,2.38,0,0,1,.27.22c-.22.34-.42.66-.63,1a.32.32,0,0,1-.45.14,16.55,16.55,0,0,1-2.76-1.22A13,13,0,0,1,21.32,30.35ZM5.73,25.73a15.93,15.93,0,0,1,2.4.94,8.58,8.58,0,0,1,1.44,1c.93.79,1.88,1.56,2.8,2.37a6,6,0,0,0,2.39,1.16,7.78,7.78,0,0,0,1.35.23c1.16.13,2.32.26,3.48.34a26.71,26.71,0,0,1,2.95.37l1.18.23.22.06,1.89.67a.71.71,0,0,1,.15.12,10.39,10.39,0,0,1-.78,1.32c-.51,0-1,0-1.49-.06l-2.06-.17a2,2,0,0,1-.34-.05A10.16,10.16,0,0,0,19.4,34a6.71,6.71,0,0,1-.89-.19l-.9-.21c-.11,0-.22,0-.33-.08a27.57,27.57,0,0,1-2.61-1,7.25,7.25,0,0,1-1.08-.63,3.84,3.84,0,0,0-.76-.5,2.1,2.1,0,0,1-.46-.34c-.34-.31-.66-.63-1-.93-1.08-.91-2.14-1.84-3.25-2.71a14.85,14.85,0,0,0-1.8-1.09c-.27-.16-.55-.27-.83-.41,0,0-.07-.08-.2-.21A3.09,3.09,0,0,1,5.73,25.73Zm-.4.32c.12.08.77.39.9.44a12,12,0,0,1,2.88,1.94c.8.68,1.62,1.35,2.42,2,.36.31.71.63,1.06,1a7.52,7.52,0,0,0,1.74,1.1,17.17,17.17,0,0,0,2.87,1.1l.72.18.72.19a1.28,1.28,0,0,0,.28.07l1.69.3c.5.08,1,.19,1.52.24.77.08,1.56.12,2.33.18l.54,0c-.17.69-.58,1.23-.74,1.89-.24,0-.43,0-.61,0a14,14,0,0,1-2.5-.27,6.19,6.19,0,0,0-1-.15,14.9,14.9,0,0,1-2.79-.59.76.76,0,0,1-.21-.08,16.33,16.33,0,0,1-2.34-1.32c-.44-.33-.89-.65-1.33-1-.1-.08-.17-.2-.27-.29l-1.57-1.57L10.29,30a5.77,5.77,0,0,0-1-.85A2.75,2.75,0,0,1,9,29c-.24-.2-.48-.38-.71-.58L7.89,28C7.81,28,5.32,26.1,5.33,26.05ZM8,28.43a20.69,20.69,0,0,1,2.28,1.9c.94.92,1.82,1.9,2.74,2.84a11.87,11.87,0,0,0,1.22,1,14.47,14.47,0,0,0,2.34,1.45,7.83,7.83,0,0,0,.85.32,17.15,17.15,0,0,0,3.07.66,16.59,16.59,0,0,0,2.1.3l.91,0,.55,0a6.49,6.49,0,0,1-.57,1.75,3.1,3.1,0,0,1-1,0c-.61-.12-1.23-.22-1.85-.37-.81-.19-1.6-.46-2.4-.71a17.63,17.63,0,0,1-1.7-.67c-.53-.23-1-.52-1.52-.77A6.54,6.54,0,0,1,14,35.49a13,13,0,0,1-2.27-2.23c-.47-.58-1-1.13-1.42-1.72s-1-1.32-1.55-2c-.13-.17-.28-.31-.42-.47S7,27.79,6.8,27.52C6.92,27.41,7.94,28.38,8,28.43ZM20.6,40.54A23.5,23.5,0,0,1,18.14,40a15.14,15.14,0,0,1-3.07-1.39,8.69,8.69,0,0,1-2.79-2.74c-.15-.22-.32-.42-.47-.64-.48-.66-.86-1.39-1.28-2.1-.2-.34-.44-.66-.65-1s-.3-.49-.45-.73c-.34-.53-.68-1.06-1-1.58A6,6,0,0,0,8,29.35c-.12-.14-.69-.78-.66-1,.07,0,.59.57.64.62.4.49.79,1,1.18,1.48.85,1.07,1.68,2.16,2.56,3.22a11.83,11.83,0,0,0,3.53,2.87c.52.28,1,.57,1.57.8s1.25.46,1.89.66,1.13.33,1.7.49a11.94,11.94,0,0,0,2.29.47,1.64,1.64,0,0,1,.76.17l-.27,1.34a1.22,1.22,0,0,1-.76.19A9.24,9.24,0,0,1,20.6,40.54ZM6.36,45.72a17.4,17.4,0,0,0,3.3.31,3.42,3.42,0,0,0,.45,0A10.51,10.51,0,0,0,14,44.59c1-.56,1.91-1.12,2.89-1.64a17.86,17.86,0,0,1,4.42-1.66c.36-.08.72-.12,1.08-.17a1.61,1.61,0,0,1,.73.08c-.05.42-.09.8-.14,1.18a.61.61,0,0,1-.3.46,19.66,19.66,0,0,1-3.38,1.9c-.32.12-.65.23-1,.33-.63.18-1.25.37-1.87.53-.87.21-1.75.39-2.63.58a11.72,11.72,0,0,1-2.44.22H10a14.35,14.35,0,0,1-2.27-.26,13.82,13.82,0,0,1-1.68-.32c-.13,0-2.21-.51-2.33-.63ZM8,47.09c.29.1.6.15.89.22s.49.08.73.14a12.83,12.83,0,0,0,4.31.42c.93-.08,1.86-.06,2.79-.21a6,6,0,0,0,.61-.12l1.58-.5.27-.08a4.24,4.24,0,0,0,.61-.17c.7-.29,1.4-.58,2.1-.89a4.9,4.9,0,0,0,.48-.31l.43-.23A15.13,15.13,0,0,1,23,47.22a1.14,1.14,0,0,1-.16.15,13.71,13.71,0,0,1-2.44,1.1,9.75,9.75,0,0,1-1.39.35l-.44.09a2.42,2.42,0,0,0-.46.06,10.84,10.84,0,0,1-1.51.27,7,7,0,0,1-1.37.09c-.89,0-1.79-.07-2.68-.17A9,9,0,0,1,10,48.45c-.88-.4-1.78-.77-2.68-1.15a.69.69,0,0,1-.15-.07,3.94,3.94,0,0,0-.89-.51c-.1,0-1.08-.63-1.17-.69S7.49,46.92,8,47.09ZM4.49,45.61a39.85,39.85,0,0,0,6.4,1c.84,0,1.68-.07,2.51-.14A14.05,14.05,0,0,0,15,46.18l.66-.16c.17,0,.34-.07.5-.12.91-.3,1.82-.56,2.75-.77a2.13,2.13,0,0,0,.33-.11,14.53,14.53,0,0,0,2.19-1.11c.33-.22.66-.44,1-.65a1.64,1.64,0,0,1,.39-.12c.1.62,0,1.21.07,1.79a8.42,8.42,0,0,1-2,1.19,17.59,17.59,0,0,1-2.65.9c-.25.07-.49.19-.75.27a11,11,0,0,1-2.14.35,16.81,16.81,0,0,1-1.88,0c-.32,0-.64,0-1,0a10.52,10.52,0,0,1-2.09-.29c-.8-.16-1.6-.33-2.39-.55-.54-.16-1-.41-1.58-.62C6.44,46.21,4.49,45.64,4.49,45.61Zm18,3.62c-.54.25-1.07.51-1.61.75a1.69,1.69,0,0,1-.37.15,17.19,17.19,0,0,1-2.84.65c-.7.06-1.4.18-2.11.22a6.83,6.83,0,0,1-1.81-.19,15.09,15.09,0,0,1-3.67-1.28c-.87-.43-1.68-1-2.51-1.46-.56-.34-1.09-.7-1.64-1a16.73,16.73,0,0,1-1.65-1c.06.06,1.38.65,1.45.7.55.3,1.1.61,1.67.88s1.26.55,1.89.82a2.78,2.78,0,0,1,.48.18,6.77,6.77,0,0,0,1.84.62,11.41,11.41,0,0,0,2.09.28,9.26,9.26,0,0,0,1.66.06,15,15,0,0,0,2.21-.28c.55-.14,1.12-.22,1.69-.31a9.29,9.29,0,0,0,2.18-.66l1.6-.7a.78.78,0,0,1,.15.22c.06.26.1.52.15.79A3.21,3.21,0,0,1,22.49,49.23ZM5.53,61.3a5.28,5.28,0,0,1,1.29-.62,15.74,15.74,0,0,1,3.65-.91,4.23,4.23,0,0,0,.62-.11l3.05-.79a8.45,8.45,0,0,0,2.53-1.17,5.56,5.56,0,0,0,1.25-.91l.6-.68c.72-.84,1.46-1.67,2.18-2.5a15.81,15.81,0,0,0,1.5-2.23c.38-.64.76-1.28,1.15-1.91a.69.69,0,0,1,.15-.14,5.27,5.27,0,0,1,.43,1.05c.15.33.27.67.4,1-.12.21-.23.43-.36.65s-.41.73-.63,1.08-.39.61-.59.91c-.33.49-.69,1-1,1.46a6.59,6.59,0,0,1-1.32,1.42,27.25,27.25,0,0,1-4,2.28c-.37.15-2.95.87-3.33.92-.88.13-1.78.21-2.65.39a15.91,15.91,0,0,0-2.7.75c-.31.13-.67.15-1,.26a6.11,6.11,0,0,0-2.23,1.06A3,3,0,0,1,5.53,61.3Zm18.84-9.45s.06,0,.13,0c.36.68.66,1.39,1,2.09a6.46,6.46,0,0,1-1.11,1.47c-.46.45-.9.93-1.35,1.39l-.46.43c-.32.3-.63.6-1,.88-.5.41-1,.82-1.53,1.19a9,9,0,0,1-1.06.56l-.82.4a2.73,2.73,0,0,1-.31.14c-.51.17-1,.35-1.53.47a14,14,0,0,1-2.64.49c-1.15,0-2.3.28-3.46.24a10.37,10.37,0,0,0-1.36.1L7,61.87,6.14,62a2.24,2.24,0,0,1,.32-.21L9,61,9.25,61c1.36-.23,2.71-.45,4.06-.69.6-.11,1.19-.28,1.78-.42.07,0,3.23-1.21,3.34-1.27A11.09,11.09,0,0,0,21,56.65a15.76,15.76,0,0,0,1.79-2.36,16.46,16.46,0,0,0,1.14-1.79A5.51,5.51,0,0,1,24.37,51.85ZM6.81,62.57a1,1,0,0,1-.33.08A8.13,8.13,0,0,0,4.79,63a.73.73,0,0,1-.23,0,.93.93,0,0,1,.25-.2,6.27,6.27,0,0,1,1.67-.59,15,15,0,0,1,2.21-.3l3.38-.16a19,19,0,0,0,4.83-.88,21.15,21.15,0,0,0,2.71-1.06,2.18,2.18,0,0,0,.4-.22A16.54,16.54,0,0,0,22,58c.69-.71,1.42-1.39,2.13-2.08a2.75,2.75,0,0,1,.26-.22,5.26,5.26,0,0,0,.8-.9,1.74,1.74,0,0,1,.49-.54,4.12,4.12,0,0,1,.59,1l-.78,1.13a11.46,11.46,0,0,1-.81,1c-.65.73-1.37,1.38-2.05,2.08a4.61,4.61,0,0,1-.81.63,13.89,13.89,0,0,1-2.43,1.39,6.46,6.46,0,0,1-1.36.41l-1,.2a12.44,12.44,0,0,1-2.28.1,10.85,10.85,0,0,0-1.89,0,4.47,4.47,0,0,1-.63,0l-2.91.08h-.4a2.67,2.67,0,0,0-.4,0A9.54,9.54,0,0,0,6.81,62.57Zm17.93-3a8.61,8.61,0,0,1-1.93,1.68,15.8,15.8,0,0,1-2.27,1.19,5.5,5.5,0,0,1-.81.27c-.55.13-1.11.27-1.67.37a7.61,7.61,0,0,1-1.64.22c-.85,0-3.83-.24-4.38-.22a1.87,1.87,0,0,1-.4,0,17.26,17.26,0,0,0-3.13-.18,4.68,4.68,0,0,1-1.13-.14,20.87,20.87,0,0,1,2.93-.27l5.49,0A9,9,0,0,0,18.28,62a10.62,10.62,0,0,0,2.62-1.12A14.3,14.3,0,0,0,24,58.35c.22-.24.45-.47.68-.7a17,17,0,0,0,1.43-1.86c.06-.09.14-.17.21-.26.26.18.26.18.49.67A18.54,18.54,0,0,1,24.74,59.54ZM14.77,73a8,8,0,0,1,1.16-1.55,16,16,0,0,1,4.15-3,14.29,14.29,0,0,0,3.15-2.07A13.58,13.58,0,0,0,24.44,65a10.09,10.09,0,0,0,1.67-2.78c.2-.52.45-1,.62-1.54a11.17,11.17,0,0,0,.45-3.45,3.88,3.88,0,0,1,0-.43,1.51,1.51,0,0,1,.44.43,7.68,7.68,0,0,0,.47.65.66.66,0,0,1,.17.52A12.61,12.61,0,0,1,28,60.34c-.07.32-.16.63-.23.95a5.06,5.06,0,0,1-.56,1.55A20.46,20.46,0,0,1,25.81,65,12.56,12.56,0,0,1,24,67a16.42,16.42,0,0,1-2.82,1.94c-.8.44-1.65.8-2.46,1.22a9.43,9.43,0,0,0-1.19.69c-.42.29-.8.64-1.2,1l-.35.29a5.14,5.14,0,0,0-.42.38l-.75.78s0,0-.1,0S14.73,73,14.77,73Zm-.43,1.32A5.47,5.47,0,0,1,15.27,73a13.72,13.72,0,0,1,3.27-2.55c.9-.5,1.82-1,2.74-1.42a13.22,13.22,0,0,0,3.3-2.35c.3-.3.61-.58.89-.9a13.2,13.2,0,0,0,2-2.93,3.44,3.44,0,0,0,.28-.69,23.75,23.75,0,0,0,.78-3.46.83.83,0,0,1,.08-.18,1.08,1.08,0,0,1,.24.13c.25.2.49.43.75.62a.72.72,0,0,1,.3.64,4.9,4.9,0,0,1-.14,1.48,8.34,8.34,0,0,1-.94,2.44,13,13,0,0,1-1.34,1.78c-.3.3-.59.6-.87.91-.14.14-.79.7-1,.88a7.5,7.5,0,0,1-1.34,1,20.38,20.38,0,0,1-2.11,1.14c-.93.44-1.86.87-2.8,1.28a11.86,11.86,0,0,0-1.41.75,15.42,15.42,0,0,0-1.43.95,10,10,0,0,0-1,.87l-1.21,1.21C14.22,74.43,14.3,74.35,14.34,74.28Zm14.23-9.74a7.46,7.46,0,0,0,1.07-2.15c.12-.38.24-.76.33-1.15s.09-.6.14-.9.05-.29.09-.48a5.5,5.5,0,0,1,1.1.91c-.05.28-.1.56-.17.84l-.43,1.6a1.8,1.8,0,0,1-.06.22c-.29.58-.59,1.15-.87,1.73a8.05,8.05,0,0,1-.93,1.37,4.51,4.51,0,0,1-.71.74c-.49.37-.95.77-1.43,1.14a12.11,12.11,0,0,1-2.09,1.29,7,7,0,0,1-.91.33l-2.8,1c-.49.16-1,.3-1.46.49s-1.09.46-1.63.7c-.37.16-.72.34-1.08.51,0,0,0,0,0,0a.07.07,0,0,1,0,0c.23-.17.45-.34.69-.5a19.58,19.58,0,0,1,3.13-1.67c.65-.31,1.31-.63,2-.92A13.64,13.64,0,0,0,26.29,67h0A15.76,15.76,0,0,0,28.57,64.54Zm3.71-1.73c-.21.73-.34,1.48-.62,2.2a12.31,12.31,0,0,1-1.49,2.88,8,8,0,0,1-3.37,2.56,29.86,29.86,0,0,1-3.18,1.1c-.94.27-1.87.53-2.81.77-.74.19-1.46.42-2.19.64a4.19,4.19,0,0,0-.69.29,7.31,7.31,0,0,1-1,.4c-.46.17-.91.36-1.37.55l-.31.14-.08-.09c.29-.24.54-.53.85-.75a14.91,14.91,0,0,1,4-2l3.58-1.2A11.68,11.68,0,0,0,26.17,69,14,14,0,0,0,29,66.67a4.47,4.47,0,0,0,.29-.35,13.58,13.58,0,0,0,1.81-3.56c.13-.39.21-.81.33-1.21a4,4,0,0,1,.15-.46,2,2,0,0,1,.78.46A2.34,2.34,0,0,1,32.28,62.81Zm-1.11-2.5c-.71-.64-1.46-1.23-2.18-1.86a9.82,9.82,0,0,1-1.26-1.39c-.52-.66-.95-1.39-1.4-2.09a17.38,17.38,0,0,1-.94-1.82c-.21-.41-.38-.84-.56-1.26s-.31-.74-.46-1.11-.19-.45-.28-.68a2.08,2.08,0,0,1-.12-.32c-.15-.53-.28-1.06-.47-1.59a6.61,6.61,0,0,1-.25-1.34c-.06-.53-.08-1.07-.16-1.6a11.06,11.06,0,0,1,0-1.41,13.58,13.58,0,0,1,.23-2.62,1,1,0,0,1,.21-.52,5.31,5.31,0,0,1,1-1,12.11,12.11,0,0,1,2.31-1.48,13,13,0,0,1,2.19-.8c.79-.16,1.57-.34,2.36-.44A7.59,7.59,0,0,1,33,37a35.83,35.83,0,0,1,4.11.77,7.12,7.12,0,0,1,2.33.89,8.23,8.23,0,0,1,1.66,1.39,5,5,0,0,1,.9,1.45c.16.41.33.82.47,1.23a5.88,5.88,0,0,1,.2,3.22c-.13.59-.24,1.19-.32,1.8a24.16,24.16,0,0,1-.58,2.91c-.06.24-.08.49-.15.73a5.73,5.73,0,0,1-.23.7.83.83,0,0,0,.19.9.66.66,0,0,0,.55.27.88.88,0,0,1,.74.35l.22.19a.57.57,0,0,0,.86-.06l.07-.08a2.47,2.47,0,0,1,1.06-.86.44.44,0,0,0,.26-.51,6.68,6.68,0,0,0-.46-1.6,19.26,19.26,0,0,1-.74-2.22,16.46,16.46,0,0,1-.34-1.86c-.06-.47-.08-1-.1-1.42a5.65,5.65,0,0,1,.15-1.59c.08-.35.11-.72.16-1.08a8.81,8.81,0,0,1,.52-1.87,4.85,4.85,0,0,1,1.12-1.77c.22-.21.39-.47.6-.69a2.82,2.82,0,0,1,.53-.44,10.2,10.2,0,0,1,2.94-1.35A15.23,15.23,0,0,1,54,36c.59,0,1.18.07,1.77.11a6.81,6.81,0,0,1,1.89.42c.42.17.87.28,1.3.44s.91.38,1.38.56a12.88,12.88,0,0,1,1.54.86,3.37,3.37,0,0,1,.84.76,1.48,1.48,0,0,1,.22.64,22.42,22.42,0,0,1,.58,3.83,10.83,10.83,0,0,1-.21,2.67c-.12.6-.18,1.21-.31,1.8a8.36,8.36,0,0,1-.69,2.23c-.23.46-.43.94-.62,1.41A15,15,0,0,1,60.38,54c-.47.76-1,1.51-1.49,2.23s-1,1.2-1.44,1.78c-.25.31-.54.59-.81.88a5.22,5.22,0,0,1-1.12,1,1,1,0,0,0-.23.17A5.39,5.39,0,0,1,54,61a12.65,12.65,0,0,1-2.48,1.28c-.58.23-1.14.54-1.72.78a11,11,0,0,1-2.19.62,23.15,23.15,0,0,1-3,.39c-.62,0-1.25,0-1.88.08a25.32,25.32,0,0,1-3.58-.41l-.17,0A19.22,19.22,0,0,1,35,62.52c-.42-.19-.85-.35-1.26-.55A11.2,11.2,0,0,1,31.17,60.31ZM62.92,49.68a2.27,2.27,0,0,1,.52,0l2.17.09c.42,0,.83.06,1.25.11a10.37,10.37,0,0,1,3.48,1c.58.28,1.17.55,1.75.85a7.11,7.11,0,0,1,.77.49l1,.61L74,53a20.81,20.81,0,0,0,3.12,2.31,9.69,9.69,0,0,0,.85.57c.57.29,1.06.74,1.67,1a2.09,2.09,0,0,1,.37.26,5.18,5.18,0,0,0,1.62.69.58.58,0,0,1,.28.18,2.44,2.44,0,0,1-.39,0c-.67-.22-1.35-.42-2-.68a18.32,18.32,0,0,1-3-1.61c-1.07-.67-2.13-1.35-3.19-2a19.56,19.56,0,0,0-3.48-1.83,21.25,21.25,0,0,0-2.18-.7,3.94,3.94,0,0,0-1.08-.13c-1,0-2,0-3,.06a2.36,2.36,0,0,0-.45.08,3.94,3.94,0,0,1-1,.14c.2-.51.36-1,.55-1.39A.31.31,0,0,1,62.92,49.68ZM52.23,62.42c.08,0,.17.09.25.15.56.45,1.14.89,1.67,1.39a11.56,11.56,0,0,1,1.4,1.57,8.33,8.33,0,0,1,1.14,1.9c.23.57.51,1.11.7,1.69.24.75.47,1.49.64,2.26.12.53.26,1.07.39,1.6.24,1,.62,2,.87,3.07a8.3,8.3,0,0,0,.81,1.83,10.81,10.81,0,0,0,1.2,1.87c.11.14.83,1,.92,1.09-.09.1-.78-.62-.84-.67-.32-.3-.64-.6-1-.91a1.89,1.89,0,0,1-.25-.31c-.31-.55-.64-1.09-.93-1.64a6.61,6.61,0,0,1-.38-1c-.36-1.14-.73-2.28-1.06-3.44a20.59,20.59,0,0,0-1-2.78c-.28-.63-.64-1.22-1-1.82,0-.06-.24-.44-.32-.56a12.62,12.62,0,0,0-3-3.39c-.37-.27-.76-.5-1.15-.75l-.86-.53c.1-.1.16-.2.25-.24.37-.16.75-.3,1.11-.45A.49.49,0,0,1,52.23,62.42ZM28.68,81.79a11.59,11.59,0,0,1,.94-3.17A15.76,15.76,0,0,1,31.18,76c.57-.81,1.14-1.63,1.69-2.45a17.18,17.18,0,0,0,1.49-2.77,2.22,2.22,0,0,0,.17-.66c0-.68.08-1.37.13-2.05a4,4,0,0,0-.15-1.25A13.55,13.55,0,0,0,34,65.1a4.94,4.94,0,0,1-.15-.55,9.21,9.21,0,0,0-.8-2.14.67.67,0,0,1-.15-.49c.32,0,.56.19.84.29s.59.26.89.39l.86.35c.13.49.25,1,.37,1.45,0,.16.08.33.13.49a2,2,0,0,1,.13.84c0,.06,0,1.35.08,1.94A4.61,4.61,0,0,1,36,69.14a5.2,5.2,0,0,0-.11.67,8,8,0,0,1-.67,2,7.46,7.46,0,0,1-1.05,1.76c-.45.6-.84,1.23-1.28,1.83-.3.42-.64.81-1,1.21s-.48.54-.69.84c-.41.59-.8,1.2-1.21,1.8a13.33,13.33,0,0,0-1,1.91C29,81.27,28.84,81.79,28.68,81.79ZM29,83.08a2.29,2.29,0,0,1-.11.23,3.93,3.93,0,0,1,.2-1.76,8.25,8.25,0,0,1,1.12-2.24.31.31,0,0,0,.05-.1,15,15,0,0,1,1.88-2.58c.54-.69,1.1-1.37,1.6-2.09s1-1.56,1.51-2.36A4.9,4.9,0,0,0,35.77,71c.19-.68.35-1.37.49-2.06a3.74,3.74,0,0,0,.08-1.25c0-.14,0-.3,0-.45,0-.32,0-.65,0-1s0-.34,0-.51,0-.5-.1-.74c-.12-.58-.26-1.15-.39-1.73a.41.41,0,0,1,0-.17,1.69,1.69,0,0,1,.25,0c.42.12.84.27,1.26.38a.62.62,0,0,1,.5.55c0,.25.07.49.09.74a24.56,24.56,0,0,1-.05,3.93,3.47,3.47,0,0,1-.11.56c-.12.48-.26,1-.4,1.43a3.39,3.39,0,0,1-.2.53c-.23.48-.53.94-.71,1.43a8.87,8.87,0,0,1-1.12,1.91,20.27,20.27,0,0,1-1.54,1.9,1.43,1.43,0,0,1-.26.23,1.38,1.38,0,0,0-.48.48.15.15,0,0,1-.06.09,12.6,12.6,0,0,0-1.37,1.46,10.59,10.59,0,0,0-1.58,2A8.6,8.6,0,0,0,29,83.08Zm.42,0a3.31,3.31,0,0,1-.3.48A8.64,8.64,0,0,1,30,81.4a10.52,10.52,0,0,1,1.53-2.27c.21-.25.44-.48.67-.71.59-.59,1.2-1.17,1.78-1.78a15.09,15.09,0,0,0,3-4.32c.21-.49.44-1,.63-1.47a11.24,11.24,0,0,0,.67-4.1c0-.93-.1-1.86-.15-2.8,0,0,0-.07,0-.17a4.89,4.89,0,0,1,1.37.26c.12.93.39,1.83.42,2.76a8.4,8.4,0,0,1,.08.85A8.24,8.24,0,0,1,39.66,70c-.1.33-.14.67-.22,1a7.33,7.33,0,0,1-1.5,2.92,18.23,18.23,0,0,1-2,2.11l-2.12,1.91c-.21.19-.4.41-.61.6l-1.4,1.25A5.85,5.85,0,0,0,30.72,81L30,82.16a3.88,3.88,0,0,0-.24.45C29.63,82.78,29.56,83,29.46,83.12Zm12-15.9,0,.56a2,2,0,0,0,0,.34,5.42,5.42,0,0,1,0,1.14A9.48,9.48,0,0,1,40.87,72a9,9,0,0,1-1,2,12.79,12.79,0,0,1-1.17,1.47,7.25,7.25,0,0,1-1.64,1.33c-.4.25-.76.56-1.15.84L33,79.78c-.29.21-.54.48-.81.72-.11.1-.21.23-.32.32a11.63,11.63,0,0,0-1.5,1.64c-.11.13-.23.24-.35.36s-.48.65-.11-.06a1.83,1.83,0,0,1,.14-.35,15.07,15.07,0,0,1,1.35-1.92c.32-.35.65-.69,1-1,1.15-1,2.32-2,3.45-3.1.69-.63,1.36-1.29,2-2a8.85,8.85,0,0,0,1.73-3.08,3.67,3.67,0,0,0,.11-.5c.09-.41.19-.81.28-1.22a6.81,6.81,0,0,0,.12-2.34c0-.17,0-.34,0-.51a9.87,9.87,0,0,0-.24-1.87,2.54,2.54,0,0,1,0-.73,1.7,1.7,0,0,1,.68,0A2.5,2.5,0,0,1,41,65.27,10.23,10.23,0,0,1,41.49,67.22Zm1.32,18.3a6.07,6.07,0,0,1,.09-1.59,1.83,1.83,0,0,0,.05-.4,4.5,4.5,0,0,1,.3-1.4c.18-.58.4-1.15.62-1.72a17,17,0,0,0,.56-2.09c.23-1,.28-2.08.44-3.12a10.9,10.9,0,0,0,0-2.91,10.22,10.22,0,0,0-.47-2.18c-.21-.57-.4-1.15-.59-1.73a7.88,7.88,0,0,0-1-2.28c-.32-.44-.72-.84-1.08-1.25a2.22,2.22,0,0,1-.47-.53.93.93,0,0,1,.24-.06l1.54.08a.7.7,0,0,1,.61.35,10.91,10.91,0,0,1,.8,1.31,15.87,15.87,0,0,1,1.08,2.83,17.68,17.68,0,0,1,.41,1.78,15.78,15.78,0,0,1,.16,4.5c0,.2-.07.41-.12.61s-.15.59-.24.88a5.54,5.54,0,0,1-.45,1.17,7.84,7.84,0,0,0-.5,1.15c-.17.45-.31.9-.47,1.35s-.3.71-.42,1.07c-.2.59-.38,1.2-.57,1.8a3.25,3.25,0,0,0-.07.45c0,.32-.09.64-.12,1a4,4,0,0,0,0,.69c0,.54.12,1.09.19,1.7A2.7,2.7,0,0,1,42.81,85.52Zm.74-.5a1.82,1.82,0,0,1-.06.46,3.87,3.87,0,0,1-.15.4,2.75,2.75,0,0,1-.07-1.16,2.6,2.6,0,0,0,.07-.56A8.63,8.63,0,0,1,44,81.51c.26-.73.52-1.47.8-2.2.14-.39.3-.78.48-1.16a14.45,14.45,0,0,0,.83-2.31,7.9,7.9,0,0,0,.23-2.27c0-.72-.06-1.45-.12-2.17A10.59,10.59,0,0,0,46,70.28c-.11-.54-.22-1.08-.36-1.62a16.59,16.59,0,0,0-1.37-3.32A3.14,3.14,0,0,0,44,65l-.28-.52a9.85,9.85,0,0,1,1.71-.2,7,7,0,0,1,.84,1.53,10.39,10.39,0,0,1,.47,1.53c.16.67.27,1.34.42,2a16.25,16.25,0,0,1,.36,3.41A3.47,3.47,0,0,1,47.45,74a.23.23,0,0,0,0,.11,12.21,12.21,0,0,1-.83,3.08c-.26.38-.32.85-.59,1.23a5.11,5.11,0,0,0-.31.67c-.08.17-.17.34-.24.51a24.27,24.27,0,0,0-1.17,2.67c-.13.4-.29.79-.42,1.19A4.91,4.91,0,0,0,43.55,85Zm.23.28a1.63,1.63,0,0,1,0-.73,15.63,15.63,0,0,1,1-3.14c.18-.4.34-.81.51-1.21l0-.11c.36-.7.73-1.39,1.07-2.09a9.26,9.26,0,0,0,1-2.78,3.38,3.38,0,0,1,.08-.34,9.2,9.2,0,0,0,.18-3.18c0-.38,0-.76-.07-1.14a12.92,12.92,0,0,0-.3-1.74,15.88,15.88,0,0,0-.39-1.79,8.92,8.92,0,0,0-.71-1.86c-.16-.3-.27-.62-.42-1A6.61,6.61,0,0,1,47.19,64c.17.26.35.51.5.77a11.69,11.69,0,0,1,1.19,3,12.59,12.59,0,0,1,.28,3.46,15.81,15.81,0,0,1-.58,3.2,17.64,17.64,0,0,1-.9,2.46c-.28.65-.63,1.26-1,1.88-.23.44-.49.86-.72,1.3a7.35,7.35,0,0,0-.58,1.24c-.22.68-.57,1.29-.83,1.94A8.5,8.5,0,0,0,44,84.77a1.69,1.69,0,0,1-.15.43S43.83,85.25,43.78,85.3ZM49.61,66c.18.47.34.93.51,1.4a2.13,2.13,0,0,1,.08.27,12.11,12.11,0,0,1,.28,3.23,9.46,9.46,0,0,1-.35,1.91c-.22.75-.49,1.48-.74,2.22a25.29,25.29,0,0,1-2.33,4.83c-.38.64-.69,1.31-1,2-.08.15-.19.28-.28.43l-.85,1.49c-.06.11-.09.25-.14.37-.19.49-.39,1-.59,1.48,0,0-.06,0-.21.12.27-.74.37-1.42.65-2s.49-1.08.73-1.62c.1-.23.17-.47.27-.69a18.51,18.51,0,0,1,1.24-2.38,19.63,19.63,0,0,0,1-2c.32-.73.59-1.49.85-2.24A7.67,7.67,0,0,0,49,73.6c.13-.62.24-1.24.34-1.86,0-.26,0-.53.06-.8a11.2,11.2,0,0,0-.6-4.22,13.25,13.25,0,0,0-1-2.25L47.54,64a2.76,2.76,0,0,1,.37-.16.49.49,0,0,1,.51.15A4.58,4.58,0,0,1,49.61,66ZM62.86,81.86a3.23,3.23,0,0,1-1-.52,8.56,8.56,0,0,1-1.31-.92,8.4,8.4,0,0,1-2-2.36c-.26-.49-.9-1.69-.93-1.77-.22-.56-.46-1.12-.68-1.68q-.22-.56-.42-1.11c-.18-.5-.34-1-.52-1.5,0-.09-.29-.77-.38-1-.17-.45-.38-.88-.56-1.32a6.76,6.76,0,0,0-2.09-2.86c-.07-.06-.4-.32-.5-.38-.67-.44-1.36-.86-2-1.29,0,0-1.07-.74-1.26-.91l-.54-.48a1.35,1.35,0,0,1,.27-.16c.22-.09.46-.16.69-.27a1,1,0,0,1,.87,0,9.83,9.83,0,0,1,1.34.76,13.61,13.61,0,0,1,1.82,1.47,7.58,7.58,0,0,1,.76.84c.36.47.68,1,1,1.44.08.12.5.93.66,1.2a9.13,9.13,0,0,1,.69,1.57c.06.14.11.28.18.42.37.67.51,1.43.82,2.13a7.76,7.76,0,0,0,.38,1.49c.18.6.34,1.21.57,1.8a7.55,7.55,0,0,0,.91,1.9,5.89,5.89,0,0,1,.32.54,3.1,3.1,0,0,0,.6.75,27.85,27.85,0,0,0,2.31,1.88l.29.25C63.06,81.93,62.94,81.88,62.86,81.86ZM61,77.94a4,4,0,0,1,.17.36,7.11,7.11,0,0,0,1,1.88,11.14,11.14,0,0,1,.73.87c-.08,0-.81-.72-.83-.75-.37-.47-.75-.92-1.08-1.41s-.46-.84-.69-1.25a10.66,10.66,0,0,1-1.08-2.88,2.29,2.29,0,0,0-.08-.28,33.21,33.21,0,0,1-.85-3.26,18.56,18.56,0,0,0-1.6-4.46,12.07,12.07,0,0,0-2.47-3.13c-.44-.4-.91-.75-1.37-1.13l-.42-.33,1.28-.68a.36.36,0,0,1,.43,0c.22.15.44.3.65.47a16.09,16.09,0,0,1,1.35,1.39,1.24,1.24,0,0,1,.17.23c.57.95,1.15,1.89,1.71,2.84a3.52,3.52,0,0,1,.27.63c.23.69.47,1.37.66,2.07a10.22,10.22,0,0,1,.22,1.23c.07.4.16.79.22,1.18s.11.87.19,1.3c.13.64.24,1.28.42,1.9a15.32,15.32,0,0,0,.53,1.62c.13.31.18.66.28,1S60.92,77.74,61,77.94ZM56.21,61.61a18.18,18.18,0,0,1,1.7,1.7,1,1,0,0,1,.17.23,9.78,9.78,0,0,1,1.23,2.24,8.5,8.5,0,0,1,.36,1.38,26.28,26.28,0,0,1,.49,4.14,18.58,18.58,0,0,0,.19,2.11c.15,1,.34,2.1.56,3.15v.2a2.16,2.16,0,0,1-.17-.3,15.38,15.38,0,0,1-1-3.64c-.25-1.54-.5-3.09-.88-4.6a6.45,6.45,0,0,0-.61-1.6c-.53-1-1-1.91-1.63-2.82a9.93,9.93,0,0,0-1.05-1.28c-.23-.25-.49-.49-.74-.72s-.27-.2-.41-.3l-.28-.24s0-.08,0-.09c.43-.48.73-.5,1.3-.14C55.76,61.2,56,61.42,56.21,61.61ZM73,72.67a7.29,7.29,0,0,1-1.62-1,9.25,9.25,0,0,1-2.79-3.14c-.69-1.18-1.36-2.38-2-3.58a8,8,0,0,0-2.8-2.88,9.47,9.47,0,0,0-2.2-.94A7.71,7.71,0,0,0,60.51,61a6.86,6.86,0,0,1-.79-.14,12.61,12.61,0,0,0-3.06-.29l-1.21,0a1.64,1.64,0,0,1-.21-.07l2.28-2.13.36,0c.38,0,.76.11,1.13.14a9.27,9.27,0,0,1,1.38.34c.1,0,.18.09.27.11a8.44,8.44,0,0,1,2.25,1c.31.15.58.36.88.53A7.6,7.6,0,0,1,65.68,62a18.81,18.81,0,0,1,1.65,2.12,12.35,12.35,0,0,1,.94,1.76c.3.66.62,1.31.93,2,.08.17.16.34.25.51a18.39,18.39,0,0,0,1,1.7,8.17,8.17,0,0,0,.81.94,8.5,8.5,0,0,0,1.13,1l.77.57C73.15,72.75,73.07,72.69,73,72.67Zm.38-.35a3.77,3.77,0,0,1-.57-.28,4.21,4.21,0,0,1-1-.85,1.27,1.27,0,0,0-.35-.38,4.26,4.26,0,0,1-1.07-1.32A21.93,21.93,0,0,1,68.58,66a11.83,11.83,0,0,0-1-1.87A13.55,13.55,0,0,0,66,62.07c-.27-.27-.53-.55-.81-.81a11.69,11.69,0,0,0-3.29-2,12.4,12.4,0,0,0-2.67-.85c-.39-.08-.79-.11-1.18-.17a1.17,1.17,0,0,1-.3-.13l.31-.43c.31-.39.63-.77.92-1.17a.65.65,0,0,1,.78-.3c.23.06.45.1.67.17.66.24,1.32.49,2,.75a5.72,5.72,0,0,1,1.86,1.2l.13.11a11.72,11.72,0,0,1,3.2,3.9c.18.33.31.69.46,1,.26.6.5,1.2.76,1.79.09.23.21.45.31.68.34.74.65,1.5,1,2.24.2.43.44.85.67,1.26a4.56,4.56,0,0,0,.81.89c.49.53,1,1.06,1.47,1.59A3.69,3.69,0,0,1,73.4,72.32Zm-.91-1.94a3.77,3.77,0,0,1,.45.78c-.14.08-.19,0-.25-.08-.27-.3-.52-.62-.81-.89a7.46,7.46,0,0,1-1.77-2.7c-.31-.72-.63-1.44-.94-2.15s-.49-1.12-.72-1.69a14.66,14.66,0,0,0-2.34-3.91,10.45,10.45,0,0,0-2-1.86,6.31,6.31,0,0,0-1.19-.79c-.47-.2-.93-.42-1.42-.6-.64-.24-1.29-.44-2-.67,0,0,0-.12,0-.17l.78-1.12c0-.05.09-.08.14-.13l.27,0a9.5,9.5,0,0,1,3,1.33c.12.08,1,.72,1.14.81a16.32,16.32,0,0,1,2.77,3.48,6.29,6.29,0,0,1,.6,1.29c.52,1.46,1.11,2.89,1.72,4.3.35.79.74,1.55,1.12,2.32.25.51.5,1,.79,1.51C72.08,69.79,72.3,70.07,72.49,70.38ZM63.15,53.56a8.27,8.27,0,0,1,1.8,1,6.74,6.74,0,0,1,.94.91,21.47,21.47,0,0,1,2,2.59,16.83,16.83,0,0,1,1.75,3.78c.11.32.16.66.24,1a4.25,4.25,0,0,0,.35,1,8,8,0,0,1,.39,1.07c.09.25.17.5.25.75l.66,2c.08.27.17.54.26.81-.15,0-.19-.09-.24-.19-.33-.64-.67-1.28-1-1.94-.72-1.64-1.42-3.28-2-5A11.13,11.13,0,0,0,67.17,59a19,19,0,0,0-1.7-2.08,16.25,16.25,0,0,0-1.36-1,9.76,9.76,0,0,0-1.93-1.11l-1.24-.44a2.68,2.68,0,0,1-.31-.18c.09-.2.18-.37.24-.54a.5.5,0,0,1,.55-.33A5.11,5.11,0,0,1,63.15,53.56ZM80.2,58.39a13.54,13.54,0,0,1-2.69-.78,10.51,10.51,0,0,1-1.42-.72c-1.06-.65-2.1-1.32-3.15-2a18.86,18.86,0,0,0-4.28-2,8.1,8.1,0,0,0-2.53-.43c-.3,0-.61,0-.91-.06a8.62,8.62,0,0,0-2.94.38,2.47,2.47,0,0,1-.9.16.42.42,0,0,1,0-.19c.14-.31.3-.62.44-.93a.43.43,0,0,1,.3-.24,9.24,9.24,0,0,1,2-.38,7.9,7.9,0,0,1,1.19,0,11,11,0,0,1,2.44.24l1.15.34a6.73,6.73,0,0,1,.77.21c.38.16.76.35,1.13.53s1,.49,1.42.74l.19.13c.53.4,1.11.73,1.68,1.08.74.44,1.45.92,2.17,1.38l.5.29c.59.33,1.18.68,1.79,1a8.56,8.56,0,0,0,1.42.61c.67.17,1.32.43,2,.66A3.92,3.92,0,0,1,80.2,58.39ZM81,57.11c.57.23,1.13.44,1.7.64a2.74,2.74,0,0,1-.5-.07,7.51,7.51,0,0,1-1.66-.61c-1.11-.61-2.18-1.26-3.23-2s-2.08-1.5-3.08-2.29a16.12,16.12,0,0,0-3.48-2.08l-.67-.32a13.07,13.07,0,0,0-3.32-.85c-.22,0-.45,0-.68,0l-3-.19s-.06,0-.11-.05a2.42,2.42,0,0,1,.27-1,3.73,3.73,0,0,1,1.14-.15,15.8,15.8,0,0,1,2.28.17l1.08.12a1.37,1.37,0,0,1,.28.05c.82.31,1.69.45,2.5.8A15.63,15.63,0,0,1,72,50a17.89,17.89,0,0,1,2.78,2c.49.43.94.89,1.42,1.33.82.73,1.58,1.54,2.45,2.23a.71.71,0,0,0,.09.07c.55.37,1.11.73,1.67,1.09A3.39,3.39,0,0,0,81,57.11ZM64,46.88c.74-.09,1.48-.18,2.22-.25a7.57,7.57,0,0,1,2.27.24c.16,0,.33.09.5.12a7.41,7.41,0,0,1,2.15.74,11.51,11.51,0,0,1,2.88,2c.34.34.67.68,1,1,.6.69,1.18,1.39,1.77,2.09.29.35.56.72.86,1.07a6.88,6.88,0,0,0,.59.62l1.25,1.17c.11.11.2.23.3.34A6.83,6.83,0,0,1,78,54.75c-1-.94-2-1.9-3-2.83A14.78,14.78,0,0,0,70.53,49a16.8,16.8,0,0,0-3-.87c-.47-.09-1-.1-1.42-.18a9.46,9.46,0,0,0-2-.1,8.07,8.07,0,0,0-.81.07,1.88,1.88,0,0,1,.12-.91A4.5,4.5,0,0,1,64,46.88Zm20.87-2.69a7.12,7.12,0,0,1-1.53.1c-.63-.08-1.26-.09-1.88-.18A11.37,11.37,0,0,1,79,43.56c-1-.39-2.09-.73-3.14-1.07A14.46,14.46,0,0,0,74.23,42,8,8,0,0,0,70.76,42a5.29,5.29,0,0,0-1.09.34c-.87.42-1.75.85-2.6,1.31A9.18,9.18,0,0,0,65.2,45c-.45.41-.94.77-1.42,1.15a.44.44,0,0,1-.18,0c0-.16,0-.31,0-.45,0-.4.07-.8.11-1.2a1.62,1.62,0,0,0,0-.22,1.3,1.3,0,0,1,.48-1,6.2,6.2,0,0,1,1.41-1c.46-.22.89-.51,1.35-.73a4.14,4.14,0,0,1,1.5-.53c.49,0,1-.15,1.47-.21a4,4,0,0,1,.69,0,19.34,19.34,0,0,1,3.79.46,23.29,23.29,0,0,1,2.47.72c.81.26,1.6.62,2.41.9s1.49.46,2.24.69a3.62,3.62,0,0,0,.53.17,8,8,0,0,0,1.19.14c.4,0,.8,0,1.2,0a1.86,1.86,0,0,1,.84.13A2.86,2.86,0,0,1,84.88,44.19Zm-53.6.43a.55.55,0,0,0-.16-.1c-.36.28-.41.76-.75,1.1-.05-.08-.13-.14-.12-.19a1.21,1.21,0,0,1,.11-.32c.13-.28.27-.55.41-.82a.31.31,0,0,1,.47-.17,1.55,1.55,0,0,1,.41.3,4.52,4.52,0,0,0,1.37.92,2.18,2.18,0,0,1,.27.11,3.09,3.09,0,0,0,2.53.32,3.61,3.61,0,0,0,2.06-1.15c.16-.19.34-.36.55-.57a5.85,5.85,0,0,1,.92,1.09s0,.06-.07.11c-.3-.18-.47-.54-.83-.7-.4.35-.8.7-1.2,1,0,.41.31.73.29,1.23-.38-.33-.32-.76-.57-1l-1.8.48a1.58,1.58,0,0,0,0,.65c0,.15.05.3.05.45s0,.24-.21.24c-.2-.42,0-.94-.29-1.39a6.91,6.91,0,0,1-1.86-.41.83.83,0,0,0-.38.55c0,.18-.12.36-.19.54a.1.1,0,0,1-.09,0s-.1-.07-.1-.11a.6.6,0,0,1,0-.22c.07-.21.16-.43.23-.65a.39.39,0,0,0-.19-.53A3.76,3.76,0,0,1,31.28,44.62Zm15.12.83c0-.09,0-.18,0-.23a2.49,2.49,0,0,1,.25-.38c.22-.31.44-.61.69-.94.12,0,.2.09.29.18a5.62,5.62,0,0,0,2,1.18,4.45,4.45,0,0,0,2.2.28A3.91,3.91,0,0,0,54.46,44c.3-.38.5-.42.84,0,.16.19.35.36.5.56s.06.19.11.38c-.44-.26-.62-.68-1-.87-.25.23-.48.48-.74.69s-.53.38-.81.58c0,.25.17.44.24.68s.26.39.07.72c-.25-.41-.35-.81-.55-1.16-.31-.07-.56.12-.84.16s-.55.1-.79.15c-.2.22-.14.44-.16.64s0,.38-.18.51S51,47,51,46.87a2.46,2.46,0,0,0,0-.94l-.92-.23-.87-.26a2.28,2.28,0,0,0-.43.63,4,4,0,0,1-.2.35s-.12.07-.19.08-.11-.13-.05-.23a2.91,2.91,0,0,1,.17-.3,2.24,2.24,0,0,0,.34-.62c-.16-.33-.5-.3-.72-.48s-.46-.34-.69-.51c-.24.15-.35.38-.53.55S46.72,45.37,46.4,45.45ZM40.54,58.27a2,2,0,0,1-.95-.59c.23-.16.29-.19.45,0a3.56,3.56,0,0,0,.89.5,5.38,5.38,0,0,0,3,.36,4.77,4.77,0,0,0,2-.76c.16-.1.32-.2.49-.29a1,1,0,0,1,.3,0,3.49,3.49,0,0,1-.26.3,6.58,6.58,0,0,1-2.67,1.08A6,6,0,0,1,40.54,58.27Zm-7.26-5.43L31.4,55.51h-.11s0-.08,0-.1a10.77,10.77,0,0,1,1.16-1.69,7.59,7.59,0,0,0,.46-.65l.2-.21Zm-1.94,1.57s-.09,0-.17,0,.07-.16.11-.22L32.5,52.6s.06,0,.1,0,0,.08,0,.09c-.3.44-.59.88-.9,1.31A5,5,0,0,1,31.34,54.41Zm2.13-.75A10.48,10.48,0,0,1,32.58,55a.66.66,0,0,1-.18.14c0-.06-.06-.1,0-.12A4.2,4.2,0,0,1,33.47,53.66Zm.29.66a2.86,2.86,0,0,1-.54.88c0-.07-.09-.11-.09-.12a2.75,2.75,0,0,1,.51-.79S33.71,54.31,33.76,54.32Zm-2.56-1a2.66,2.66,0,0,1,.61-.85C31.77,52.85,31.69,53,31.2,53.31ZM53,53.72a10.77,10.77,0,0,1,1.16,1.69s0,.07,0,.1H54l-1.88-2.67.19,0a1.8,1.8,0,0,1,.19.21C52.7,53.29,52.84,53.52,53,53.72Zm1.14.45a1.45,1.45,0,0,1,.12.22c-.08,0-.15,0-.17,0a5,5,0,0,1-.38-.42c-.31-.43-.6-.87-.9-1.31,0,0,0-.06,0-.09s.09,0,.1,0C53.35,53.12,53.75,53.65,54.15,54.17ZM52,53.66a4.11,4.11,0,0,1,1.13,1.4s0,.06-.06.12a.79.79,0,0,1-.17-.14A11.68,11.68,0,0,1,52,53.66Zm-.16.63a2.75,2.75,0,0,1,.51.79s0,.05-.09.12a2.86,2.86,0,0,1-.54-.88S51.78,54.28,51.8,54.29Zm2.44-1c-.5-.36-.57-.46-.61-.85A2.66,2.66,0,0,1,54.24,53.31ZM43,32.74a1.53,1.53,0,0,0-1.2,1.36,5.24,5.24,0,0,0,0,1,10.81,10.81,0,0,0,.38,2.59c.23.7.43,1.42.65,2.13a3,3,0,0,0,.29.65.67.67,0,0,0,.29-.53,12.37,12.37,0,0,1,.26-1.35c.24-.86.46-1.73.62-2.6a8.89,8.89,0,0,0,.13-1.54,1.89,1.89,0,0,0-.81-1.56A.65.65,0,0,0,43,32.74ZM44,36c-.25,1.21-.57,2.4-.89,3.61-.07,0-.13-.06-.15-.1a2.76,2.76,0,0,1-.2-.47c-.19-.66-.38-1.32-.56-2a1.41,1.41,0,0,1-.06-.22c0-.7-.12-1.4-.15-2.1a3.43,3.43,0,0,1,.13-.9A1,1,0,0,1,43,33a.49.49,0,0,1,.43.11,1.71,1.71,0,0,1,.7,1.31A6.55,6.55,0,0,1,44,36Zm1.9-4.42a7.29,7.29,0,0,1,1.33,2.12c.11.4.24.79.36,1.2a.19.19,0,0,1-.18.26c-.11-.35-.25-.71-.35-1.07a5.5,5.5,0,0,0-1.15-2,4.41,4.41,0,0,0-1.84-1.22,2.55,2.55,0,0,0-.78-.13,3.49,3.49,0,0,0-.79,0,3.56,3.56,0,0,0-2.08,1,5.94,5.94,0,0,0-1.53,2.11c-.25.59-.51,1.18-.79,1.85a.88.88,0,0,1,0-.65,8.15,8.15,0,0,1,1.15-2.35,6.64,6.64,0,0,1,1.07-1.18,4.75,4.75,0,0,1,1.73-1,1.43,1.43,0,0,1,.5-.09,7.93,7.93,0,0,1,1.09,0,2.57,2.57,0,0,1,.66.17,6.83,6.83,0,0,1,1.5.93Zm.93,3.18c0,.13,0,.27-.18.3a1.49,1.49,0,0,1-.24-.56,5.66,5.66,0,0,0-.85-1.61,4.91,4.91,0,0,0-1.21-1.11,1.93,1.93,0,0,0-1.2-.3,3.07,3.07,0,0,0-1.48.55,5.77,5.77,0,0,0-1.45,1.59,12.81,12.81,0,0,0-1.11,1.8c0,.06-.09.09-.23.21a1.65,1.65,0,0,1,.08-.36A7.23,7.23,0,0,1,40,33.48a9.89,9.89,0,0,0,.64-.81,5.45,5.45,0,0,1,1.18-1.07,2.61,2.61,0,0,1,1.79-.45,2,2,0,0,1,1.06.41,5.53,5.53,0,0,1,1.83,2.36C46.65,34.18,46.76,34.45,46.85,34.72ZM39.42,31a.19.19,0,0,1-.14-.29.41.41,0,0,1,.39-.24c0,.07.13.15.13.24A.3.3,0,0,1,39.42,31ZM45,29.55a.18.18,0,0,1-.16-.2.26.26,0,0,1,.29-.27c.14,0,.24.09.23.19A.32.32,0,0,1,45,29.55Zm1.43.88a.28.28,0,0,1,.27-.24c.16,0,.29.1.29.21a.27.27,0,0,1-.29.27A.26.26,0,0,1,46.38,30.43ZM34.65,35.2c.1,0,.13.23,0,.28a1.12,1.12,0,0,1-.35.12.17.17,0,0,1-.19-.17.3.3,0,0,1,.13-.22s.14,0,.2-.05Zm4.94,1.16c0,.16-.2.31-.31.26s-.15-.14-.2-.19a.3.3,0,0,1,.31-.3C39.5,36.14,39.61,36.27,39.59,36.36Zm19-1a.18.18,0,0,1-.09-.17,2,2,0,0,1,.2-.31l.14,0a.27.27,0,0,1,.14.29A.33.33,0,0,1,58.58,35.33Zm-20.25-3a.19.19,0,0,1-.19-.18c0-.17.15-.31.38-.29,0,.06.12.14.12.23A.28.28,0,0,1,38.33,32.32ZM48.44,33.5a.64.64,0,0,1-.19-.13c0-.21.14-.33.3-.32s.25.12.23.21A.32.32,0,0,1,48.44,33.5Zm-7.66-4.21c-.07-.16.07-.32.32-.3a.56.56,0,0,1,.15.08.1.1,0,0,1,0,.1c0,.16-.16.19-.28.22A.17.17,0,0,1,40.78,29.29Zm15.83,5.35a1.85,1.85,0,0,1,.28-.28c.09.09.17.14.2.21s0,.14-.09.17a.8.8,0,0,1-.26.09C56.65,34.84,56.56,34.71,56.61,34.64Zm-13.78-5.7a.18.18,0,0,1-.06-.28,1,1,0,0,1,.23-.18l.14.05c.09,0,.08.24,0,.35A.23.23,0,0,1,42.83,28.94Zm9.63,5.81c-.1,0-.19,0-.2-.14s.13-.34.25-.31.15.12.2.16A.25.25,0,0,1,52.46,34.75ZM26.21,37a.27.27,0,0,1,.11.18.19.19,0,0,1-.12.14,1,1,0,0,1-.34,0s-.07-.08-.11-.12a.68.68,0,0,1,.08-.15A.34.34,0,0,1,26.21,37Zm11.45-3.39a.24.24,0,0,1-.29.21.18.18,0,0,1-.17-.2.24.24,0,0,1,.26-.24A.23.23,0,0,1,37.66,33.62Zm16.71,1.12a.61.61,0,0,1-.11-.16c.06-.06.11-.15.19-.18a.54.54,0,0,1,.25,0s0,.07,0,.09a.52.52,0,0,1-.12.22A.18.18,0,0,1,54.37,34.74Zm-9.1,2.89a.26.26,0,0,1-.25.31.16.16,0,0,1-.14,0,.19.19,0,0,1,0-.15C44.92,37.59,45,37.57,45.27,37.63Zm1.55-1.45a.32.32,0,0,1-.36.2.2.2,0,0,1-.08-.14A.3.3,0,0,1,46.7,36,.15.15,0,0,1,46.82,36.18Zm-9.88-.67a.25.25,0,0,1-.26.23c-.06,0-.11-.06-.15-.08,0-.19.08-.29.23-.32A.16.16,0,0,1,36.94,35.51ZM41,37.35a.15.15,0,0,1,.13.07.18.18,0,0,1,0,.16.32.32,0,0,1-.32.16.2.2,0,0,1,0-.31A.36.36,0,0,1,41,37.35ZM28.16,36.13c0,.07-.11.12-.19.21a1.37,1.37,0,0,1-.21-.21c0-.07.1-.17.21-.16S28.17,36,28.16,36.13ZM47.62,32c-.06,0-.11-.08-.15-.11a.29.29,0,0,1,.25-.29.16.16,0,0,1,.15.18A.22.22,0,0,1,47.62,32ZM30,35.65a.26.26,0,0,1-.17.11c-.09,0-.21,0-.21-.13s.08-.13.12-.18S30.06,35.56,30,35.65ZM48.83,35a.3.3,0,0,1,.07.15c0,.14-.17.25-.27.19a.23.23,0,0,1-.07-.18A.21.21,0,0,1,48.83,35Zm1.52-.22s-.06-.07-.05-.09.06-.16.12-.17a.44.44,0,0,1,.25,0s0,.07,0,.1A.24.24,0,0,1,50.35,34.77Zm10.3,1.53c-.06,0-.11-.07-.2-.13.09-.09.14-.17.21-.2s.18.08.17.16S60.76,36.31,60.65,36.3ZM32.11,35.22c.07.11.14.17.15.24s-.07.12-.13.13a.14.14,0,0,1-.19-.14C32,35.38,32,35.32,32.11,35.22Zm11.22-.79a1.79,1.79,0,0,1,.13.6,8.76,8.76,0,0,1-.08,1c-.05.57-.12,1.13-.18,1.7,0,.18,0,.36-.09.68-.11-.17-.16-.21-.16-.26-.15-.9-.31-1.8-.43-2.7a3.49,3.49,0,0,1,0-.79.87.87,0,0,1,0-.22.45.45,0,0,1,.38-.3A.38.38,0,0,1,43.33,34.43Z"/></g></g></svg>