<svg xmlns="http://www.w3.org/2000/svg" viewBox="0 0 93 120.56"><defs><style>.cls-1{fill:#1a1a1a;}</style></defs><title>Asset 525</title><g id="Layer_2" data-name="Layer 2"><g id="Layer_1-2" data-name="Layer 1"><path class="cls-1" d="M91.59,35.12A42,42,0,1,1,57.88,1.41,46.5,46.5,0,1,0,91.59,35.12ZM20.89,9.45a.65.65,0,0,1,.93,0,.64.64,0,0,1,0,.92.65.65,0,1,1-.93-.92Zm-5.56,4.74a.87.87,0,1,1,1.23,1.23.87.87,0,0,1-1.23-1.23Zm-5,5.88a1.11,1.11,0,0,1,1.57,1.57,1.12,1.12,0,0,1-1.57,0A1.1,1.1,0,0,1,10.34,20.07ZM5.7,27.36l1.24.34.4-1.23.32,1.25,1.27-.27L8,28.36l.87.95L7.63,29l-.4,1.23L6.91,29l-1.27.27.93-.91Zm-2,8.41L4.84,37l1.23-1.09-.46,1.58L7.18,38l-1.6.39L5.9,40,4.76,38.79,3.53,39.88,4,38.3l-1.56-.52,1.6-.4ZM1.85,49.09a2.67,2.67,0,0,1-.08-.48,2.73,2.73,0,0,1,2.41-3A2.73,2.73,0,0,1,7,48.22a2.67,2.67,0,0,1,0,.49,2.69,2.69,0,0,0-2.76-2.16A2.68,2.68,0,0,0,1.85,49.09Zm3.81,7.08a3,3,0,0,0-2,3,3.13,3.13,0,0,1-.37-.73A3,3,0,0,1,9,56.53a3.14,3.14,0,0,1,.15.8A3,3,0,0,0,5.66,56.17Zm4.66,10.72A3.35,3.35,0,0,0,8.7,70,3.28,3.28,0,0,1,7.62,68.9a3.34,3.34,0,1,1,6.21-2A3.36,3.36,0,0,0,10.32,66.89Zm8.81,11.29a2.82,2.82,0,1,1,0-4A2.82,2.82,0,0,1,19.13,78.18ZM29,84.54a3.34,3.34,0,0,1-4.58,1.16,3.38,3.38,0,0,1-1.11-1.08,3.34,3.34,0,0,0,3.07-5.13A3.35,3.35,0,0,1,29,84.54Zm9.68,3.63a3,3,0,0,1-3.8,1.89,3,3,0,0,1-.73-.37A3,3,0,0,0,36,84.22a3.14,3.14,0,0,1,.8.15A3,3,0,0,1,38.68,88.17Zm6,3.38a2.67,2.67,0,0,1-.48-.08,2.6,2.6,0,0,0,.38-5.16,2.67,2.67,0,0,1,.49,0,2.64,2.64,0,1,1-.39,5.24Zm11.23-2.26-.4,1.6L55,89.33l-1.58.46,1.09-1.23-1.19-1.15,1.61.33.4-1.6.52,1.57,1.58-.46-1.09,1.23,1.19,1.14Zm10-1.67L65,86.75l-.91.93.27-1.27-1.25-.32,1.23-.4L64,84.45l.95.86.91-.92-.27,1.27,1.25.32-1.23.4ZM73.25,83a1.1,1.1,0,0,1-1.57,0,1.12,1.12,0,0,1,0-1.57A1.11,1.11,0,1,1,73.25,83Zm5.88-5a.87.87,0,1,1-1.24-1.23A.87.87,0,0,1,79.13,78Zm4.74-5.57a.65.65,0,1,1,0-.92A.64.64,0,0,1,83.87,72.42Z"/><path class="cls-1" d="M70,17.72l-1.18.5L69,19.49l-1-.78-1,.81.16-1.27L66,17.78l1.18-.49L66.94,16l1,.77,1-.8-.16,1.27ZM72,14.17l.48-.27a10.8,10.8,0,0,1,1.33-.58c.33-.13.68-.22.94-.3s.45-.12.44-.16-.19,0-.47,0a5.7,5.7,0,0,0-1,.21,9.31,9.31,0,0,0-1.39.57l-.5.27a10.67,10.67,0,0,0-1.29.9,7.12,7.12,0,0,0-.78.74c-.2.23-.3.39-.27.42A12.14,12.14,0,0,0,70.75,15,14.4,14.4,0,0,1,72,14.17Zm1.49.77a8.24,8.24,0,0,0-1.27.3l-.46.17a7.24,7.24,0,0,0-1.21.63,3.44,3.44,0,0,0-1,.89,8.22,8.22,0,0,0,1.16-.69,9.85,9.85,0,0,1,1.19-.59l.45-.16a11.07,11.07,0,0,1,1.22-.32,5.15,5.15,0,0,0,1.24-.26A3.33,3.33,0,0,0,73.53,14.94Zm-.1,1.83a2.4,2.4,0,0,0-.52-.1,4.37,4.37,0,0,0-.78,0,1.36,1.36,0,0,0-.29,0,4.69,4.69,0,0,0-.8.18c-.39.11-.74.33-.71.39s.4-.08.78-.17.77-.13.77-.13l.28,0s.37,0,.74,0,.72.07.75,0S73.57,16.82,73.43,16.77Z"/><path class="cls-1" d="M69.79,32.48l-2.35-1.31.61,1.91-1-1.76-.68,2.6,0-2.69L65,32.71l1-1.7-2.59.71,2.3-1.39-2-.42,2,.06-1.91-1.89,2.35,1.31-.61-1.91.94,1.76.69-2.6,0,2.69,1.34-1.48-1.05,1.7,2.6-.71-2.31,1.38,2,.43-2-.06ZM49.86,20.06l-2,.2,2,.17L47.75,22.1l2.49-1-.83,1.82,1.14-1.64.39,2.66.35-2.67,1.16,1.63-.85-1.81,2.5,1L52,20.41l2-.2-2-.16,2.11-1.67-2.48,1,.82-1.83-1.14,1.65-.39-2.67-.34,2.67-1.17-1.62.85,1.81-2.5-1ZM29.57,49.52l1.87-.71-2,.36L31.08,47,29,48.65l.32-2-.67,1.88-1.07-2.47.36,2.67-1.54-1.27L27.64,49,25,48.71l2.49,1-1.87.71,2-.36L26,52.24l2.13-1.65-.32,2,.67-1.88,1.07,2.47-.36-2.67,1.54,1.26-1.29-1.52,2.67.31ZM28.48,33.68l-2.56.84,2.69-.12-1.39,1.43,1.63-1.16-.55,2.64,1.24-2.39.54,1.92-.18-2,2,1.79-1.46-2.26,1.94.49L30.58,34l2.55-.84-2.69.12,1.4-1.43L30.21,33l.54-2.63-1.23,2.39L29,30.87l.19,2-2-1.79,1.45,2.26-1.94-.49Zm61.71,5.07-2.44-.15L88.82,37,87.4,38.29l-.46-2.4-.15,2.44-1.57-1.07,1.25,1.42-2.39.46,2.43.15-1.06,1.57,1.42-1.25L87.33,42l.15-2.43,1.57,1.06-1.26-1.42ZM50.8,45l.65-1.79-1.07,1.57-1-2.21.45,2.4L48,44.31l1.57,1.07-2.22,1,2.4-.45-.65,1.79,1.08-1.57,1,2.21L50.77,46l1.78.65L51,45.57l2.21-1Zm-2.28-10.6-2.35-.69,1.39-1.29-1.67.91L46,30.88l-.68,2.34L44,31.84l.91,1.66-2.43-.08,2.34.68-1.39,1.3,1.67-.91L45,36.93l.68-2.34L47,36l-.91-1.66Zm-11.2-15,2,.63L38.1,21l1.43-.74-.12,2.07.63-2,1.07,1.2-.74-1.43,2.07.12-2-.63,1.2-1.07-1.43.74.12-2.07-.63,2L38.65,18l.74,1.43ZM44,22.07l1.23-1.25-1.5.9,0-2.25-.54,2.19-1.25-1.23.91,1.5-2.25,0,2.18.54L41.5,23.74l1.5-.91,0,2.25.53-2.18,1.25,1.22-.9-1.49,2.25,0Zm-25.48,10-.88,1.68,1.27-1.41.74,2.33-.14-2.44,1.69.87-1.42-1.26,2.33-.74-2.44.14.88-1.69L19.24,31l-.73-2.33.13,2.44L17,30.18l1.41,1.27L16,32.18Zm-3,6.7,1.83-.51-.63,2.35,1.2-2.12.95,1.64-.51-1.83,2.35.63-2.12-1.2,1.64-1-1.83.52L19,34.92l-1.2,2.13-.95-1.65.52,1.83L15,36.6l2.13,1.2Zm1.38,18.74.61-1.8-1,1.59L15.35,55.1l.51,2.38-1.8-.6,1.59,1L13.46,59l2.39-.51-.6,1.8,1-1.59,1.09,2.18-.51-2.39,1.8.61-1.6-1L19.25,57Zm6.18,2,1.51-1.15-1.75.74.32-2.42-.91,2.26L21.06,57.4l.74,1.75-2.42-.33,2.26.92-1.51,1.15,1.75-.74-.33,2.42.92-2.26,1.15,1.51-.74-1.75,2.42.32Zm61-21.83,1.1-.5H84L84.08,36l-.61,1-1-.7.6,1-1.1.49H83.2L83.08,39l.61-1,1,.7Zm-43-20.74-.62,1,1-.67.57,1.05L42,17.12l1.2,0-1.08-.53.63-1-1,.68-.57-1.06.08,1.2-1.21,0Zm-6.34,4,1.1-.49.38,1.14.13-1.19,1.18.23-1-.7.79-.91-1.1.49-.38-1.14-.13,1.2-1.18-.24,1,.71Zm-3.4,23.8,0-1.2-.47,1.11-1.06-.57.73,1-1,.64,1.2-.15,0,1.2.47-1.11,1.06.57-.73-1,1-.64ZM16.6,51.28s-.34,5.23-.2,5.24.49-5.24.49-5.24l.46-6.94s.32-4.9.17-4.91-.46,4.91-.46,4.91Zm2.74-6.75S18.15,39.06,18,39.09s1,5.53,1,5.53l1.69,7.76s1.27,5.83,1.41,5.8S21,52.29,21,52.29Zm8.26,3.66a36.09,36.09,0,0,0-2.49-2.89l-3.65-3.94a37,37,0,0,0-2.86-2.88,37.32,37.32,0,0,0,2.66,3.09l3.65,3.94A29.58,29.58,0,0,0,27.6,48.19ZM30,47.1l.1-.21s.56-1,.46-1.11-.65,1-.65,1l-.11.2s-.59,1.11-.49,1.16S30,47.1,30,47.1Zm-.51-11.57a15.75,15.75,0,0,0,.24,2.57l.52,3.6a17.8,17.8,0,0,0,.54,2.69,16.62,16.62,0,0,0-.25-2.74L30,38.05A14.65,14.65,0,0,0,29.44,35.53Zm-11.29-.75a12.9,12.9,0,0,0-.36,2,12.21,12.21,0,0,0,.58-1.93l.08-.36a10.66,10.66,0,0,0,.33-1.86,11.53,11.53,0,0,0-.54,1.82Zm1.89-3a13.41,13.41,0,0,0,2.39.72l3.2.76a11.76,11.76,0,0,0,2.3.39A12.83,12.83,0,0,0,25.69,33l-3.21-.76A14.33,14.33,0,0,0,20,31.82ZM40.54,34l-5.47-.06A40.48,40.48,0,0,0,31,34a38.24,38.24,0,0,0,4.14.19l5.47.06a33.17,33.17,0,0,0,3.86-.1A35.87,35.87,0,0,0,40.54,34Zm8.76-9a26.2,26.2,0,0,0,1.11-3.27A28.81,28.81,0,0,0,49,24.93l-1.76,4.56A30.36,30.36,0,0,0,46.08,33a30.64,30.64,0,0,0,1.46-3.39ZM38,19.89h-.18s-1-.06-1,.05,1,.17,1,.17H38s.93.05.94-.07S38,19.89,38,19.89Zm2.74-1.63s-.42.65-.33.71.51-.59.51-.59l.08-.12s.4-.61.3-.68-.49.56-.49.56Zm1.49-1a12.36,12.36,0,0,0,2.15.93l2.9,1.05a10.75,10.75,0,0,0,2.1.6,10.85,10.85,0,0,0-2-.88L44.47,18A12.25,12.25,0,0,0,42.23,17.3ZM41.71,21l-.14-.11s-.79-.62-.86-.54.73.72.73.72l.14.11s.75.59.82.5S41.71,21,41.71,21Zm5,.49.42-.11a11.56,11.56,0,0,0,2.19-.75,13.37,13.37,0,0,0-2.28.47l-.42.12a13.61,13.61,0,0,0-2.31.77A13.82,13.82,0,0,0,46.74,21.49ZM56,24.09l5.33,3.33a43.18,43.18,0,0,0,3.85,2.22c.07-.12-3.71-2.48-3.71-2.48l-5.33-3.33s-4-2.5-4.09-2.38S56,24.09,56,24.09Zm5.24,11-5.84,5.4S51,44.58,51.14,44.69s4.51-4,4.51-4l5.83-5.39s4.13-3.81,4-3.92S61.27,35.12,61.27,35.12Zm17.36.09L73,32.73S68.67,30.86,68.61,31s4.24,2,4.24,2l5.69,2.48s4,1.75,4.07,1.62S78.63,35.21,78.63,35.21Zm6.52,3,.15.07s.77.36.82.26-.74-.46-.74-.46L85.23,38s-.81-.38-.86-.28S85.15,38.22,85.15,38.22Z"/><path class="cls-1" d="M77,45a.88.88,0,1,1-.87-.87A.87.87,0,0,1,77,45ZM50.26,62.19a.59.59,0,0,0,0,1.17.59.59,0,1,0,0-1.17Zm3.41-23.77a.59.59,0,0,0-.59-.58.58.58,0,0,0,0,1.16A.59.59,0,0,0,53.67,38.42ZM34.86,42.37a.58.58,0,0,0-.58.58.59.59,0,0,0,.58.59.6.6,0,0,0,.59-.59A.59.59,0,0,0,34.86,42.37Zm32.91-3.46a.59.59,0,1,0-.59.58A.58.58,0,0,0,67.77,38.91ZM40.56,9.3a.47.47,0,0,0-.47.47.47.47,0,0,0,.93,0A.47.47,0,0,0,40.56,9.3Zm19.89.11a.47.47,0,0,0,.47-.47.47.47,0,0,0-.94,0A.47.47,0,0,0,60.45,9.41ZM74.29,58.86a.47.47,0,1,0,.47.47A.47.47,0,0,0,74.29,58.86Zm7.45-33.63a.47.47,0,1,0,.47.47A.47.47,0,0,0,81.74,25.23ZM32.9,68.88l-.13-.81-.47.67-.76-.3.34.75-.64.51.82.08.13.81.47-.67.77.29-.35-.74.64-.52Zm36.28-.83-.75.33-.5-.65-.09.82-.81.11.66.48-.31.77.75-.34.51.65.08-.82.82-.11-.67-.48Zm-22,0-.26-.65-.26.65L46,68l.43.55-.43.54.69-.09.26.64L47.2,69l.69.09-.43-.54.43-.55ZM37.59,54.18l-.26-.64-.26.64-.69-.1.43.55-.43.55.69-.1.26.65.26-.65.68.1-.42-.55.42-.55ZM80,55l-.09-.82-.5.65-.75-.34.3.76-.66.49.81.11.09.82.5-.65.75.34-.3-.77.66-.48ZM25.88,22l-.1-.82-.49.66-.76-.33.32.76-.66.49.81.1.1.82.5-.65.75.32L26,22.54l.66-.49Zm27,51.1-.07-.82-.52.64-.74-.35.29.77-.67.47.81.13.08.82.51-.64.75.34-.3-.76.67-.48Zm.61-67.34L52.71,6l-.48-.66-.12.81-.81.09.65.51-.34.75.77-.31.48.66L53,7.06,53.79,7l-.65-.5Zm4.56,46c-.12-.7-.3-2.73-.3-2.73a0,0,0,0,0,0,0s-.17,2-.31,2.73a1.15,1.15,0,0,1-.84.9,8.08,8.08,0,0,1-1.55.28s0,0,0,0a8.75,8.75,0,0,1,1.52.27,1.19,1.19,0,0,1,.87.91c.15.69.31,2.73.31,2.73a0,0,0,0,0,0,0s.17-2.07.3-2.73a1.25,1.25,0,0,1,.85-.92,5.75,5.75,0,0,1,1.37-.26s0,0,0,0a6.23,6.23,0,0,1-1.39-.27A1.09,1.09,0,0,1,58,51.71Zm4.06,4.65c-.07-.41-.18-1.63-.18-1.63h0s-.1,1.22-.19,1.63a.66.66,0,0,1-.5.54,4.89,4.89,0,0,1-.93.17h0a4.64,4.64,0,0,1,.91.16.7.7,0,0,1,.52.54c.09.42.19,1.64.19,1.64h0s.11-1.24.18-1.64a.78.78,0,0,1,.51-.55,4.09,4.09,0,0,1,.82-.16h0a4.08,4.08,0,0,1-.83-.16A.65.65,0,0,1,62.09,56.36Z"/><path class="cls-1" d="M61.71,104.78c0-.59.87-1.1,1.54-1.1,1.3,0,.64,1.8-.67,1.8C62.11,105.48,61.71,105.27,61.71,104.78Zm19.12,6.65a3.6,3.6,0,0,1-3,2.52,2.71,2.71,0,0,1-2.71,1.76,2.48,2.48,0,0,1-2.63-2.44,4.49,4.49,0,0,1-3.2,2c-1.47,0-1.67-1.18-1.33-2.62-.79,1.4-1.72,2.62-2.78,2.62s-1.71-1.28-1.56-2.61c-1.72,3.12-5.75,3.6-5.2.11-2.32,3.27-5.23,2.82-5.23,1,0-1.25,1.17-2.83,1.17-4,0-.91-.66-1.23-1.19-1.61-1,2.63-2.85,7-5.67,7-1,0-1.72-.69-1.46-2.09-1.23,1.63-2.17,2.46-3.2,2.46s-1.74-.74-1.54-2.22a4.36,4.36,0,0,1-3.08,1.85c-1.47,0-1.67-1.18-1.33-2.62-.79,1.4-1.72,2.62-2.78,2.62-.88,0-1.78-.93-1.54-2.74a4.44,4.44,0,0,1-3.25,2c.87,2.75.06,6-1.2,6-1.69,0-.06-6.41.5-8-1.12,1.61-2.3,2.71-3.34,2.71s-1.65-.7-1.58-2a3.65,3.65,0,0,1-2.74,2c-2.19,0-1.72-3.86-1.29-6-1.25-.19-2.27-.32-3.14-.42-1.33,2.45-2.63,5.12-3.68,7.62a1.21,1.21,0,0,1-.72-1.1c0-1.16,1.41-3.81,3.21-6.63a28.85,28.85,0,0,0-3-.1c.49-1.34,2.35-1.17,3.72-1a54.51,54.51,0,0,1,6-7.71c.82-.78,1.24-.81,2.14.09-1.05.83-4.94,14.27-2.52,14.27.64,0,1.42-.74,2.33-2.33.83-2.3,3.33-4.93,5.65-4.93s1.9,1.82,1,1.82a1.09,1.09,0,0,0-1.2-1.17c-2.95,0-5.5,6.53-3.48,6.53,1.13,0,2.65-2.4,4-4.49.57-.91,1.36-.76,1.36-.28,0,.7-1.29,2-1.86,4.54,1.16-.11,2.37-.71,3.43-2.61.39-1.5,1.14-3.09,1.59-3.09a1.47,1.47,0,0,1,.78.42A10.13,10.13,0,0,0,33.79,113c0,.36.06,1.42.76,1.42,1.32,0,3.05-3.94,3.86-5.53.23,0,1,.19,1,.55s-2.63,5.19-.72,5.19c.73,0,1.95-.84,2.94-2.35.86-2.33,3.32-4.92,5.54-4.92A1.71,1.71,0,0,1,49.1,109c0,.7-.42.91-1,.91.26-1,.07-1.92-.94-1.92-2.71,0-5.64,6.82-3.79,6.82,1.32,0,3.41-3.1,4.45-4.62.26,0,.85.21.85.53,0,.49-1.23,1.93-1.23,2.94,0,1.74,2.08,1.1,4-2.28a29.3,29.3,0,0,0,1.41-3.41c-.83-.84,1-2.91,1-1.45,0,.15-.24.7-.24.79,0,.78,2.16,1.14,2.16,2.94,0,1.29-1,2.69-1,3.58,0,1.42,2.58.37,4-2.06.53-1.89,1.69-4.27,2.75-4.27a.45.45,0,0,1,.47.47c0,.69-2.2,3.26-2.2,5.25,0,1,.33,1.27,1,1.27.93,0,2-.78,3.16-3,.4-1.5,1.14-3.08,1.59-3.08a1.44,1.44,0,0,1,.78.42A10.27,10.27,0,0,0,64.86,113c0,.36.07,1.42.77,1.42,1.31,0,3-3.94,3.85-5.53.23,0,1,.19,1,.55s-2.64,5.19-.72,5.19c.68,0,1.8-.75,2.76-2.1a1.47,1.47,0,0,1,.69-1.17,1.19,1.19,0,0,0,.08-.16l.1.06a1.65,1.65,0,0,0,.45-.23A12.49,12.49,0,0,0,76,108v-.26c0-1.69,1.17-1.63,1.17-1.16a5.8,5.8,0,0,0-.13.93c0,1.62,1.56,3.94,1,6.14,1-.17,1.85-.8,2.67-2.39Zm-61-2.9a44.89,44.89,0,0,1,2.55-7.82c-1.32.81-3.31,3.65-5.28,7.16C18.07,108.08,19.05,108.34,19.85,108.53Zm9.26,6.61c-.19.79-.87,4.26-.38,4.26S29.44,116.73,29.11,115.14Zm47.42-1.21a4.13,4.13,0,0,1-2.6-1.76c-.9.06-.53,2.8,1.27,2.8A1.35,1.35,0,0,0,76.53,113.93Zm-.46-5.17A15.94,15.94,0,0,1,74,111.52a3.79,3.79,0,0,0,2.63,2.07C76.93,111.73,76.37,110.44,76.07,108.76Z"/></g></g></svg>