<svg xmlns="http://www.w3.org/2000/svg" viewBox="0 0 54.67 57.29"><defs><style>.cls-1{fill:#1a171b;}.cls-2{stroke:#fff;stroke-width:0.25px;}</style></defs><title>Asset 417</title><g id="Layer_2" data-name="Layer 2"><g id="Layer_1-2" data-name="Layer 1"><path class="cls-1" d="M1.76,53.8A2.51,2.51,0,0,0,1.51,55a2.54,2.54,0,0,0,.3,1.27.9.9,0,0,0,.78.52A.94.94,0,0,0,3,56.69l.52-.27a.15.15,0,0,1,.12.07.2.2,0,0,1,0,.15c0,.11-.15.24-.47.39a1.94,1.94,0,0,1-.9.23,1.56,1.56,0,0,1-1.2-.51,2.26,2.26,0,0,1-.51-1.58,3.27,3.27,0,0,1,.1-.73A.93.93,0,0,1,.93,54a2.8,2.8,0,0,1,.69-.62,3.67,3.67,0,0,1,.75-.47.27.27,0,0,1,.13,0l.2,0,.22,0a1.32,1.32,0,0,1,.56.22.46.46,0,0,1,.26.37.32.32,0,0,1-.12.25.45.45,0,0,1-.27.1,1,1,0,0,1-.58-.29.48.48,0,0,0-.33-.14A.76.76,0,0,0,1.76,53.8ZM6.62,53a.81.81,0,0,0-.48-.15,1,1,0,0,0-.49.13.64.64,0,0,0-.31.32L4.17,56.07a.43.43,0,0,0,0,.19.85.85,0,0,0,.43.67,1.55,1.55,0,0,0,.89.31A1,1,0,0,0,6,57a4.65,4.65,0,0,0,.71-.71.15.15,0,0,0,0-.07.21.21,0,0,0-.07-.16A.35.35,0,0,0,6.52,56a2.81,2.81,0,0,1-.26.25.88.88,0,0,1-.53.24.85.85,0,0,1-.55-.2.59.59,0,0,1-.25-.46.39.39,0,0,1,0-.18l.88-2A.16.16,0,0,1,6,53.53a.1.1,0,0,1,.1.07l1,3.35a.55.55,0,0,0,.16.26.41.41,0,0,0,.24.08.53.53,0,0,0,.33-.13.26.26,0,0,0,.1-.27l-1-3.44A.73.73,0,0,0,6.62,53Zm3.86.12a1.9,1.9,0,0,0-1-.38H9.31a.21.21,0,0,0-.12,0L8.62,53a.48.48,0,0,0-.26.22.65.65,0,0,0-.08.35V56.9a.24.24,0,0,0,.11.21.45.45,0,0,0,.26.08A.59.59,0,0,0,9,57.11a.27.27,0,0,0,.13-.24V53.45a.36.36,0,0,1,.09-.08.47.47,0,0,1,.19,0,.92.92,0,0,1,.62.22.68.68,0,0,1,.24.53c0,.22-.14.41-.43.58s-.43.29-.43.34a.17.17,0,0,0,.06.14.31.31,0,0,0,.17,0A1.69,1.69,0,0,0,10,55a3.28,3.28,0,0,0,.72-.44.82.82,0,0,0,.39-.62Q11.11,53.55,10.48,53.13Zm2.65,2.14v-.15a1.78,1.78,0,0,0,.66-.47,1,1,0,0,0,.32-.62,1.13,1.13,0,0,0-.51-.82,1.67,1.67,0,0,0-1-.41,1.56,1.56,0,0,0-.87.26.79.79,0,0,0-.39.66V57a.2.2,0,0,0,.11.18.6.6,0,0,0,.27.06.51.51,0,0,0,.28-.07.22.22,0,0,0,.12-.2V53.73a.4.4,0,0,1,.09-.27.26.26,0,0,1,.22-.12.79.79,0,0,1,.59.27.77.77,0,0,1,.26.56c0,.21-.15.41-.45.61s-.45.37-.45.53l.23.33.46.71a5.85,5.85,0,0,1,.4.72l.16.12a.51.51,0,0,0,.17,0,.68.68,0,0,0,.33-.09.25.25,0,0,0,.16-.22,1.47,1.47,0,0,0-.37-.78A7.77,7.77,0,0,0,13.13,55.27Zm2.13-2.44a.48.48,0,0,0-.3.08.26.26,0,0,0-.13.22v3.78a.27.27,0,0,0,.15.24.74.74,0,0,0,.34.08.48.48,0,0,0,.22,0,.16.16,0,0,0,.08-.13v-4a.19.19,0,0,0-.1-.17A.71.71,0,0,0,15.26,52.83Zm2.72.53a.48.48,0,0,1,.33.14,1,1,0,0,0,.58.29.45.45,0,0,0,.27-.1.32.32,0,0,0,.12-.25.46.46,0,0,0-.26-.37,1.32,1.32,0,0,0-.56-.22l-.23,0-.2,0a.27.27,0,0,0-.12,0,3.67,3.67,0,0,0-.75.47,2.45,2.45,0,0,0-.69.62.93.93,0,0,0-.2.45,2.78,2.78,0,0,0-.1.73,2.26,2.26,0,0,0,.51,1.58,1.55,1.55,0,0,0,1.2.51,1.94,1.94,0,0,0,.9-.23c.32-.15.47-.28.47-.39a.2.2,0,0,0-.05-.15.15.15,0,0,0-.12-.07l-.52.27a.94.94,0,0,1-.44.13.9.9,0,0,1-.77-.52,2.54,2.54,0,0,1-.3-1.27,2.51,2.51,0,0,1,.25-1.23A.76.76,0,0,1,18,53.36Zm4.74.1A2.45,2.45,0,0,1,23.19,55a2.19,2.19,0,0,1-.59,1.55,1.87,1.87,0,0,1-1.41.65,1.33,1.33,0,0,1-1.14-.63A2.84,2.84,0,0,1,19.62,55a2.07,2.07,0,0,1,.66-1.58,1.7,1.7,0,0,1,1.17-.53A1.53,1.53,0,0,1,22.72,53.46Zm-.41,1.65a2.78,2.78,0,0,0-.23-1.19c-.19-.4-.43-.59-.75-.59a.73.73,0,0,0-.7.56A3.16,3.16,0,0,0,20.47,55a2.82,2.82,0,0,0,.22,1.16q.25.57.69.57a.78.78,0,0,0,.74-.54A2.63,2.63,0,0,0,22.31,55.11Zm3.07.16v-.15a1.78,1.78,0,0,0,.66-.47,1,1,0,0,0,.32-.62,1.11,1.11,0,0,0-.52-.82,1.64,1.64,0,0,0-1-.41,1.56,1.56,0,0,0-.87.26.79.79,0,0,0-.39.66V57a.2.2,0,0,0,.11.18.6.6,0,0,0,.27.06.51.51,0,0,0,.28-.07.22.22,0,0,0,.12-.2V53.73a.4.4,0,0,1,.09-.27.26.26,0,0,1,.22-.12.79.79,0,0,1,.59.27.77.77,0,0,1,.26.56c0,.21-.15.41-.45.61s-.45.37-.45.53.15.22.22.33l.47.71a5.85,5.85,0,0,1,.4.72.83.83,0,0,0,.16.12.51.51,0,0,0,.17,0,.68.68,0,0,0,.33-.09.25.25,0,0,0,.16-.22,1.47,1.47,0,0,0-.37-.78A7.77,7.77,0,0,0,25.38,55.27Zm4.53-2.45a.53.53,0,0,0-.31.11.3.3,0,0,0-.15.25v1l-.08,0c-.27-.24-.51-.44-.71-.6a6,6,0,0,0-.74-.5,1.6,1.6,0,0,0-.68-.2A.3.3,0,0,0,27,53a.37.37,0,0,0-.1.25V57a.19.19,0,0,0,.09.17.38.38,0,0,0,.22,0,.46.46,0,0,0,.23,0,.19.19,0,0,0,.1-.15V54.11a.16.16,0,0,1,.05-.11.18.18,0,0,1,.11,0,1.65,1.65,0,0,1,.47.27,4.4,4.4,0,0,1,.77.61,1.14,1.14,0,0,1,.4.73v1.33a.34.34,0,0,0,.12.27.41.41,0,0,0,.25.08.44.44,0,0,0,.27-.09.3.3,0,0,0,.11-.24V53a.19.19,0,0,0-.05-.13A.18.18,0,0,0,29.91,52.82Zm1.21,0a.48.48,0,0,0-.3.08.26.26,0,0,0-.13.22v3.78a.27.27,0,0,0,.15.24.74.74,0,0,0,.34.08.48.48,0,0,0,.22,0,.16.16,0,0,0,.08-.13v-4a.18.18,0,0,0-.11-.17A.62.62,0,0,0,31.12,52.83ZM35.58,55a2.2,2.2,0,0,1-.6,1.55,1.84,1.84,0,0,1-1.4.65,1.33,1.33,0,0,1-1.14-.63A2.84,2.84,0,0,1,32,55a2.07,2.07,0,0,1,.66-1.58,1.73,1.73,0,0,1,1.17-.53,1.52,1.52,0,0,1,1.27.62A2.46,2.46,0,0,1,35.58,55Zm-.88.09a2.78,2.78,0,0,0-.24-1.19c-.18-.4-.43-.59-.74-.59a.73.73,0,0,0-.71.56A3.16,3.16,0,0,0,32.85,55a2.82,2.82,0,0,0,.22,1.16c.17.38.41.57.7.57a.79.79,0,0,0,.74-.54A2.8,2.8,0,0,0,34.7,55.11Z"/><path class="cls-1" d="M1.13,47.84a2.87,2.87,0,0,0,.05,2.49.89.89,0,0,0,.77.53.94.94,0,0,0,.44-.13l.52-.27a.13.13,0,0,1,.12.07.25.25,0,0,1,.05.15c0,.11-.16.24-.47.39a1.94,1.94,0,0,1-.9.23,1.55,1.55,0,0,1-1.2-.51A2.26,2.26,0,0,1,0,49.21a2.78,2.78,0,0,1,.1-.73c.07-.26.13-.41.2-.45A2.45,2.45,0,0,1,1,47.41a3.67,3.67,0,0,1,.75-.47.23.23,0,0,1,.12,0l.2,0,.23,0a1.37,1.37,0,0,1,.56.22.46.46,0,0,1,.26.37.32.32,0,0,1-.12.25.45.45,0,0,1-.27.1,1,1,0,0,1-.58-.29.48.48,0,0,0-.33-.14A.76.76,0,0,0,1.13,47.84ZM6,47.05a.81.81,0,0,0-.48-.15A.92.92,0,0,0,5,47a.64.64,0,0,0-.31.32L3.54,50.11a.43.43,0,0,0,0,.19.85.85,0,0,0,.43.67,1.53,1.53,0,0,0,.89.31,1,1,0,0,0,.57-.21,4.22,4.22,0,0,0,.72-.71s0,0,0-.07a.26.26,0,0,0-.07-.16.35.35,0,0,0-.16-.08l-.26.25a.91.91,0,0,1-.53.24.83.83,0,0,1-.55-.2.6.6,0,0,1-.26-.46.58.58,0,0,1,0-.18l.89-2.05a.15.15,0,0,1,.14-.08.1.1,0,0,1,.11.07l1,3.35a.55.55,0,0,0,.16.26.4.4,0,0,0,.23.08.53.53,0,0,0,.34-.13.26.26,0,0,0,.09-.27l-1-3.44A.68.68,0,0,0,6,47.05Zm3.86.12a1.93,1.93,0,0,0-1-.38H8.68a.21.21,0,0,0-.12,0L8,47.08a.48.48,0,0,0-.26.22.65.65,0,0,0-.08.35v3.29a.23.23,0,0,0,.11.21.45.45,0,0,0,.26.08.54.54,0,0,0,.31-.09.25.25,0,0,0,.13-.23V47.49a.24.24,0,0,1,.09-.08.44.44,0,0,1,.19,0,.94.94,0,0,1,.62.22.68.68,0,0,1,.24.53c0,.22-.14.41-.43.58s-.43.29-.43.34a.17.17,0,0,0,.06.14.29.29,0,0,0,.17,0,1.88,1.88,0,0,0,.4-.16,3.53,3.53,0,0,0,.72-.44.85.85,0,0,0,.38-.62C10.47,47.73,10.27,47.45,9.85,47.17Zm2.65,2.14v-.15a1.78,1.78,0,0,0,.66-.47,1,1,0,0,0,.31-.62,1.13,1.13,0,0,0-.51-.82,1.64,1.64,0,0,0-1-.41,1.56,1.56,0,0,0-.87.26.79.79,0,0,0-.39.66V51a.2.2,0,0,0,.11.18.57.57,0,0,0,.27.06.51.51,0,0,0,.28-.07.22.22,0,0,0,.12-.2V47.77a.45.45,0,0,1,.09-.28.28.28,0,0,1,.22-.11.91.91,0,0,1,.85.83c0,.21-.15.41-.45.61s-.45.37-.45.53l.22.33.47.71a6.75,6.75,0,0,1,.4.71.42.42,0,0,0,.16.12.35.35,0,0,0,.17,0,.68.68,0,0,0,.33-.09.25.25,0,0,0,.16-.22,1.47,1.47,0,0,0-.37-.78A7.77,7.77,0,0,0,12.5,49.31Zm2.13-2.44a.48.48,0,0,0-.3.08.24.24,0,0,0-.13.22V51a.25.25,0,0,0,.15.23.64.64,0,0,0,.34.09.48.48,0,0,0,.22-.05.16.16,0,0,0,.08-.13v-4a.2.2,0,0,0-.11-.17A.62.62,0,0,0,14.63,46.87Zm2.71.53a.48.48,0,0,1,.34.14,1,1,0,0,0,.58.29.45.45,0,0,0,.27-.1.31.31,0,0,0,.11-.25.45.45,0,0,0-.25-.37,1.41,1.41,0,0,0-.57-.22l-.22,0-.2,0a.23.23,0,0,0-.12,0,3.92,3.92,0,0,0-.76.47,2.8,2.8,0,0,0-.69.62,1,1,0,0,0-.19.45,2.78,2.78,0,0,0-.1.73,2.26,2.26,0,0,0,.51,1.58,1.55,1.55,0,0,0,1.2.51,1.94,1.94,0,0,0,.9-.23c.31-.15.47-.28.47-.39a.25.25,0,0,0-.05-.15.13.13,0,0,0-.12-.07l-.52.27a.94.94,0,0,1-.44.13.89.89,0,0,1-.77-.53,2.38,2.38,0,0,1-.31-1.26,2.5,2.5,0,0,1,.26-1.23A.74.74,0,0,1,17.34,47.4Zm4.75.1a2.52,2.52,0,0,1,.47,1.56A2.24,2.24,0,0,1,22,50.61a1.87,1.87,0,0,1-1.41.65,1.33,1.33,0,0,1-1.14-.63A2.84,2.84,0,0,1,19,49a2,2,0,0,1,.67-1.58,1.69,1.69,0,0,1,1.16-.53A1.54,1.54,0,0,1,22.09,47.5Zm-.41,1.65A2.94,2.94,0,0,0,21.45,48q-.28-.6-.75-.6a.75.75,0,0,0-.71.57,3.37,3.37,0,0,0-.16,1.12,2.82,2.82,0,0,0,.23,1.16q.26.57.69.57a.79.79,0,0,0,.74-.54A2.66,2.66,0,0,0,21.68,49.15Zm3.06.16v-.15a1.82,1.82,0,0,0,.67-.47,1,1,0,0,0,.31-.62,1.13,1.13,0,0,0-.51-.82,1.64,1.64,0,0,0-1-.41,1.56,1.56,0,0,0-.87.26.79.79,0,0,0-.39.66V51a.2.2,0,0,0,.11.18.54.54,0,0,0,.27.06.51.51,0,0,0,.28-.07.22.22,0,0,0,.12-.2V47.77a.45.45,0,0,1,.09-.28.27.27,0,0,1,.22-.11.91.91,0,0,1,.85.83c0,.21-.15.41-.45.61s-.45.37-.45.53l.22.33.47.71a5,5,0,0,1,.39.71.53.53,0,0,0,.17.12.33.33,0,0,0,.17,0,.68.68,0,0,0,.33-.09.25.25,0,0,0,.16-.22,1.47,1.47,0,0,0-.37-.78A7,7,0,0,0,24.74,49.31Zm4.67-2.41a.18.18,0,0,0-.13,0A.53.53,0,0,0,29,47a.3.3,0,0,0-.15.25v1l-.08,0-.71-.6a6,6,0,0,0-.74-.5,1.47,1.47,0,0,0-.68-.2.3.3,0,0,0-.24.11.33.33,0,0,0-.1.25V51a.19.19,0,0,0,.09.17.36.36,0,0,0,.21,0,.47.47,0,0,0,.24,0,.19.19,0,0,0,.1-.15V48.15A.13.13,0,0,1,27,48a.16.16,0,0,1,.11,0,1.8,1.8,0,0,1,.47.27,4.81,4.81,0,0,1,.77.61,1.14,1.14,0,0,1,.4.73v1.33a.34.34,0,0,0,.12.27.43.43,0,0,0,.51,0,.29.29,0,0,0,.12-.24V47A.17.17,0,0,0,29.41,46.9Z"/><path class="cls-2" d="M8.09,6.1S7.91-1.26,18.51.36a39.27,39.27,0,0,0,8.85.94A21.21,21.21,0,0,0,34,.18s.86-.11.43.69c0,0-2.13,1.51-7.21,1.91,0,0-5.34-.25-9-.75,0,0-5.08-.81-6.86,2.07a3.87,3.87,0,0,0-1.24,2.34S8.64,6.75,8.09,6.1Zm.19,5a3.31,3.31,0,0,0,.25,2.78c1.12,1.37.54,4.65.54,4.65-.54,2.53.5,3.29.5,3.29a1.56,1.56,0,0,0,2-.47,6.25,6.25,0,0,1,2.23-2.71c4.62-2.6,4.8-6.42,4.8-6.42.33-3.46-2.09-3.07-2.09-3.07-1,.22-.14-.39-.14-.39,3.06-1.45,2.92-2.92,2.92-2.92a1.5,1.5,0,0,0-2.17.1c-1.22,1.45-2,.76-2,.76-.29-1.12,1-1.65,1-1.65,1.84-.73,9,.28,9,.28C37.1,6.47,41.57,2.6,41.57,2.6,42,1.8,41,1.88,41,1.88,36.31,5.05,27.18,4,27.18,4c-1.12-.22-9.89-1.44-9.89-1.44-6.45-.36-7,3.94-7,3.94.65.91,3.39.53,3.39.53-2.45,1.19-3.45-.12-3.45-.12-.8.5-2.11-.13-2.11-.13C8.53,7.54,8.28,11.11,8.28,11.11Zm5.19,12.25s1.53-1.49.17-4A3.82,3.82,0,0,0,12,21.47a1.87,1.87,0,0,1-.06,1.76,1.44,1.44,0,0,0,1.18,2.05A1.37,1.37,0,0,1,13.47,23.36ZM41,27.49S34.18,24.69,30.64,15L30,15a2.19,2.19,0,0,0-.36-2.2l-.27.75a2.74,2.74,0,0,0-.4-1.61l-.43.74a2.49,2.49,0,0,0-.39-1.77l-.32,1a1.11,1.11,0,0,0,0-.21A4.65,4.65,0,0,0,27.21,10L27,11.2a4.36,4.36,0,0,0-.59-2L26,10.57a3.22,3.22,0,0,0-1-2.36A4.53,4.53,0,0,1,24.89,10s-.12.23-.27-.79a2,2,0,0,0-1.18-1.73s.63,1.26.07,1.81c0,0-.27,0-.23-.55A2.26,2.26,0,0,0,22,6.87a4,4,0,0,1,.39,1.69s-.15.59-.39-.39c0,0-.47-1.39-1.46-1.66a3.41,3.41,0,0,1,.56,1.93s-.2.36-.48-.71a1.94,1.94,0,0,0-1-1.22s0,1.11-1.77,2.13a2.25,2.25,0,0,1,.79.71s6.72-1.54,11.29,9.8c0,0-5-9.64-10.86-8.9a6.51,6.51,0,0,1-2.28,6.69s1.14,4.41-1.11,7.87c0,0-2.51,4.06,1.76,8.82,0,0-1.6-11.21,8-11.29,0,0-7.91,1.33-7.28,10.3a1.76,1.76,0,0,1-.7,2,10.08,10.08,0,0,0-2.92,3.7,8.39,8.39,0,0,1-2.69,2.95s-1.4.83-.85,2.05c0,0,.63,1.3,2.76.35,0,0,.74.32,4.88-.24a4.9,4.9,0,0,0,5.23-.59s-.71-1.52-1.93-1.69c0,0-1.81,2.09-1.89.47,0,0-.47-.9-1.26.16a1.39,1.39,0,0,1-.86.32l-3.69-.16a14.39,14.39,0,0,1,3.92-3.07,10.93,10.93,0,0,0,3.62-3.31s3-.35,3.66-4.13a4,4,0,0,1-2.12,4.17,14,14,0,0,0,8.83.23s3-8,10.47-4.26c0,0,3.54,2.11,2,6.79a4.58,4.58,0,0,1-5,2.7,3.52,3.52,0,0,1-2.64-1.76S35.3,36,38.51,34.53c0,0,2.08-.59,2.71,1.26a2.44,2.44,0,0,0-3.66.39s-1.68,3,2.28,4.14c0,0,3.55.55,4.37-3.51a4.83,4.83,0,0,0-5-5.55,6.61,6.61,0,0,0-6.49,4.86,8.52,8.52,0,0,0-.14,4.23s1,5,7,5.16c0,0,7.48.35,8.22-9C47.83,36.5,48.31,30.56,41,27.49Zm9.16-4.68s-3.3-.52-2.51-2.64a34.64,34.64,0,0,0-3,4.84s1.77-4.09,1.77-5.23c0,0-1.29,2-3.22-.24,0,0-2.8-2.52-5.12-1.26,0,0,5.55,3.07,3.27,8.62a12.67,12.67,0,0,1,3.42,2s3.74-5.79,9.68-2.44C54.52,26.43,54.25,24,50.19,22.81ZM7.81,38.07c1-.55.28-1.22.28-1.22-.38,0-.35-.9-.35-.9l-.24-4.8,1.1.35A15.5,15.5,0,0,0,17,34.06a9.06,9.06,0,0,1-2.56-4.76,8.54,8.54,0,0,0-2.61-.12c-3.95.32-4.43,0-4.43,0a3.54,3.54,0,0,0-.86-.27c-2-.08-1,2.12-1,2.12a2.09,2.09,0,0,1,.21.91L6.24,36a1.61,1.61,0,0,1-.16.94c-1.52,3.7,2.27,6.09,2.27,6.09a5.2,5.2,0,0,0,.76-3.29C6.83,39.18,7.81,38.07,7.81,38.07Z"/></g></g></svg>