<svg xmlns="http://www.w3.org/2000/svg" viewBox="0 0 113.59 113.59"><defs><style>.cls-1{fill:#1a1a1a;}</style></defs><title>Asset 447</title><g id="Layer_2" data-name="Layer 2"><g id="Layer_1-2" data-name="Layer 1"><path class="cls-1" d="M80.52,56a2.51,2.51,0,1,1-5-.48l1.14-11.79L58.31,54.94l5.3,8.82a2.51,2.51,0,0,1-4.3,2.58L54,57.56l-13,8a2.46,2.46,0,0,1-1.89.3,2.51,2.51,0,0,1-.73-4.57l13-8L46.13,44.4a2.5,2.5,0,1,1,4.29-2.58l5.31,8.83L74,39.43,62.9,35.17a2.51,2.51,0,0,1,1.79-4.68c16.94,6.49,16,6.1,16.22,6.25a2.52,2.52,0,0,1,1.17,1.57C82.23,38.91,82.29,37.61,80.52,56Z"/><path class="cls-1" d="M35.1,77.85A1.19,1.19,0,0,1,34.7,79c-.51.42-1.31.38-2.41-.1a7.1,7.1,0,0,1-2.71-2.05,1.67,1.67,0,0,1-.39-.84.67.67,0,0,1,.21-.6.8.8,0,0,1,.47-.18.42.42,0,0,1,.4.14,1.13,1.13,0,0,1,.12.21,2.75,2.75,0,0,0,.48,1,5,5,0,0,0,1.54,1.2q1,.54,1.35.27a.46.46,0,0,0,.1-.43,5.38,5.38,0,0,0-.34-1.09c-.31-.76-.52-1.35-.64-1.75a2.1,2.1,0,0,1-.09-1.09,1.4,1.4,0,0,1,.53-.81,2.26,2.26,0,0,1,2.13-.21,4.79,4.79,0,0,1,2.38,1.64,2.73,2.73,0,0,1,.64,1.34,1,1,0,0,1-.28.9c-.47.38-.93.3-1.36-.24a.8.8,0,0,0,.37-.66,1.39,1.39,0,0,0-.35-.76,3.53,3.53,0,0,0-1.4-1c-.54-.23-1-.24-1.21,0a.67.67,0,0,0-.24.58,5.21,5.21,0,0,0,.51,1.54A6.81,6.81,0,0,1,35.1,77.85Zm3.92,7a.51.51,0,0,1-.49.17,1.17,1.17,0,0,1-.56-.23c-.53-.42-.37-1.12.49-2.08a3.81,3.81,0,0,1-3.25-.33,1.09,1.09,0,0,1-.43-.81,1.28,1.28,0,0,1,.3-.94,4.69,4.69,0,0,1,2.81-1.47,3.53,3.53,0,0,1,3,.42.83.83,0,0,1,.28,1c.33.26.39.51.21.74a4.56,4.56,0,0,1-.59.53,8.72,8.72,0,0,0-1.22,1.19,3.05,3.05,0,0,0-.5.78,2.87,2.87,0,0,0-.11.35.59.59,0,0,0,.09.3A.32.32,0,0,1,39,84.84ZM40,81a.71.71,0,0,0,.16-.4.36.36,0,0,0-.12-.29c-.29-.22-.89-.22-1.83,0a3.46,3.46,0,0,0-1.89,1q-.27.33-.12.45a2.5,2.5,0,0,0,1.89.14A3.1,3.1,0,0,0,40,81Zm6.92,4.23a5,5,0,0,0-.74.81c-.21.28-.7,1-1.47,2.14A4.27,4.27,0,0,1,42.54,90a2.58,2.58,0,0,1-2-.1A3.66,3.66,0,0,1,39,88.35c-.39-.71-.52-1.2-.39-1.46a.36.36,0,0,1,.54-.16,1.73,1.73,0,0,1,.43.55,4.21,4.21,0,0,0,1.54,1.65,1.33,1.33,0,0,0,1.36-.2,8.86,8.86,0,0,0,2-2.28,5,5,0,0,1-1.73.3,3.07,3.07,0,0,1-1.41-.25,1.21,1.21,0,0,1-.65-.69,1.22,1.22,0,0,1,.11-.92,3.31,3.31,0,0,1,1.37-1.29,5.68,5.68,0,0,1,2.34-.71,3.8,3.8,0,0,1,2.14.28,1.43,1.43,0,0,1,.65.61.76.76,0,0,0,.09.16.9.9,0,0,1,.07.4,1,1,0,0,1-.07.39A5,5,0,0,1,46.87,85.19Zm-.88-1a.32.32,0,0,0-.15-.2,2,2,0,0,0-1.15-.07,5,5,0,0,0-1.62.54,2.38,2.38,0,0,0-1.07.89q-.12.24.06.33a2.27,2.27,0,0,0,1.48.15,4.67,4.67,0,0,0,1.55-.59,2.48,2.48,0,0,0,.86-.75A.47.47,0,0,0,46,84.17Zm5.5-.84a.8.8,0,0,0,.53-.5A.63.63,0,0,0,52,82.3a.82.82,0,0,0-.49-.37,1,1,0,0,0-.75,0,.76.76,0,0,0-.43.49.73.73,0,0,0,.08.56.78.78,0,0,0,.46.43A1.07,1.07,0,0,0,51.49,83.33Zm-1.87,1.08a.58.58,0,0,0-.54.09,1.1,1.1,0,0,0-.37.55c0,.08-.2.4-.5,1h0l-.26.47A10.88,10.88,0,0,0,47,88.4c-.21.65-.1,1,.35,1.2a.75.75,0,0,0,.55,0c.19-.08.3-.15.32-.23a.54.54,0,0,0,0-.15,4.16,4.16,0,0,1,.15-.83c.08-.24.21-.55.38-.94A9,9,0,0,1,49.67,86l.06-.09a3.41,3.41,0,0,0,.46-.74.45.45,0,0,0-.08-.42A.88.88,0,0,0,49.62,84.41ZM60.75,86c-.11,0-.74,0-1.89.08.34-1,.51-1.51.51-1.57a.48.48,0,0,0-.15-.38.63.63,0,0,0-.46-.19c-.36,0-.59.19-.71.6-.19.67-.37,1.2-.53,1.61H56.36a.76.76,0,0,0-.25.06.36.36,0,0,0,0-.24.64.64,0,0,0-.35-.15l-1.88-.22c.49-.93.74-1.41.76-1.47a.57.57,0,0,0-.1-.41.57.57,0,0,0-.42-.25.68.68,0,0,0-.79.48c-.3.62-.56,1.12-.79,1.5l-1.14-.19c-.34-.06-.54,0-.59.33a.53.53,0,0,0,.15.53,1,1,0,0,0,.47.25l.11,0,.48.06A13.86,13.86,0,0,0,50.92,89a1.62,1.62,0,0,0,.15,1.2,1.39,1.39,0,0,0,1,.6,2.63,2.63,0,0,0,1.7-.25c.58-.27.9-.56,1-.85a.3.3,0,0,0-.06-.22.4.4,0,0,0-.23-.13.87.87,0,0,0-.51.13,3,3,0,0,1-.81.3,2,2,0,0,1-.59,0,.33.33,0,0,1-.27-.22,1.38,1.38,0,0,1,0-.6,11.76,11.76,0,0,1,.52-1.31,6.23,6.23,0,0,1,.52-1.06l1.89.07a1.63,1.63,0,0,0,.64-.08.54.54,0,0,0,.23.45,1,1,0,0,0,.5.17h.11c.09,0,.25,0,.49,0a13.41,13.41,0,0,0-.64,2.75,1.58,1.58,0,0,0,.34,1.16,1.41,1.41,0,0,0,1.07.43A2.62,2.62,0,0,0,59.58,91c.53-.36.79-.69.8-1a.23.23,0,0,0-.08-.2.4.4,0,0,0-.25-.1.93.93,0,0,0-.49.21,3.14,3.14,0,0,1-.74.42,1.68,1.68,0,0,1-.59.08.32.32,0,0,1-.3-.17,1.27,1.27,0,0,1-.08-.59,12.23,12.23,0,0,1,.3-1.38,5.68,5.68,0,0,1,.35-1.13l1.87-.24c.55-.06.83-.24.84-.55a.43.43,0,0,0-.08-.31A.71.71,0,0,0,60.75,86Zm6.51,3.89a.31.31,0,0,1,.26.23.54.54,0,0,1-.21.48,1.12,1.12,0,0,1-.55.26q-1,.15-1.2-1.77c-.76,1.31-1.57,2-2.44,2.17a1.11,1.11,0,0,1-.89-.23,1.27,1.27,0,0,1-.49-.86,4.73,4.73,0,0,1,.82-3.06,3.51,3.51,0,0,1,2.32-1.91.85.85,0,0,1,1,.49c.41-.06.64.06.68.36a4.81,4.81,0,0,1,0,.78,9.75,9.75,0,0,0,0,1.7,3,3,0,0,0,.24.9,2.74,2.74,0,0,0,.19.33S67.11,89.81,67.26,89.85Zm-2-3.07a.6.6,0,0,0-.18-.39.35.35,0,0,0-.29-.11q-.54.09-1.23,1.35A3.5,3.5,0,0,0,63,89.69c0,.27.13.4.25.39.42-.07.88-.5,1.39-1.31A3,3,0,0,0,65.28,86.78Zm7.24-3.53a1.34,1.34,0,0,0-.94,0,2.09,2.09,0,0,0-1.12,1.23,8.72,8.72,0,0,0-.64,2.39l0,.18-.14-.79a4.17,4.17,0,0,1-.08-.63,4.15,4.15,0,0,0-.11-1,.46.46,0,0,0-.26-.27.55.55,0,0,0-.47,0,.8.8,0,0,0-.42.33.77.77,0,0,0-.15.43,3.56,3.56,0,0,0,.13.68l.09.35c.13.56.26,1,.38,1.42s.24.72.33,1a3.79,3.79,0,0,0,.59,1.19.55.55,0,0,0,.64.19.83.83,0,0,0,.47-.35,1,1,0,0,0,0-.66A5.25,5.25,0,0,1,71,86c.32-1,.61-1.5.86-1.59a.54.54,0,0,1,.35,0,.85.85,0,0,0,.66,0,.36.36,0,0,0,.25-.28.68.68,0,0,0,0-.44A.88.88,0,0,0,72.52,83.25Zm3.39,2.55c-.12-.23-.27-.53-.43-.92A9,9,0,0,1,75,83.29l0-.11a3.78,3.78,0,0,0-.22-.84.49.49,0,0,0-.36-.23.87.87,0,0,0-.58.13.56.56,0,0,0-.31.46,1.1,1.1,0,0,0,.15.64q.06.12.36,1h0c0,.16.1.33.16.5a10.67,10.67,0,0,0,.79,2c.33.6.7.79,1.12.56a.73.73,0,0,0,.34-.42q.12-.28.06-.39l-.09-.13A4.08,4.08,0,0,1,75.91,85.8Zm-2-5.14a1,1,0,0,0,.39-.53.76.76,0,0,0,0-.72.65.65,0,0,0-.43-.32.86.86,0,0,0-.61.11,1.08,1.08,0,0,0-.52.54.77.77,0,0,0,.07.64.75.75,0,0,0,.47.33A.76.76,0,0,0,73.91,80.66ZM81.3,81a6.25,6.25,0,0,1-1-1.81,2.08,2.08,0,0,0-.14-.33.51.51,0,0,0-.81-.11.6.6,0,0,0-.26.54,4.59,4.59,0,0,0,.38,1.17,4.32,4.32,0,0,1,.27,2c-.07.78-.22,1.27-.47,1.46s-.37,0-.66-.35a5.17,5.17,0,0,1-.43-.84,8.54,8.54,0,0,1-.44-1.1,3.17,3.17,0,0,0-.43-1,.61.61,0,0,0-.39-.2.75.75,0,0,0-.78.92,6.15,6.15,0,0,1,.73,1.38,8.18,8.18,0,0,0,.89,1.65,1.76,1.76,0,0,0,1.13.74,1.26,1.26,0,0,0,.92-.2,2.32,2.32,0,0,0,.76-1.27,4.82,4.82,0,0,0,.06-1.87,4,4,0,0,0,1.13,1.06.72.72,0,0,0,.87,0,1,1,0,0,0,.31-.45.44.44,0,0,0,0-.45.27.27,0,0,0-.26-.07C82.31,82,81.85,81.66,81.3,81ZM86,76.82a1.11,1.11,0,0,0-.76-.25,3.92,3.92,0,0,0-1.38.46,3.65,3.65,0,0,1-.9.34.55.55,0,0,1-.43-.1.88.88,0,0,1-.17-.9,2.36,2.36,0,0,1,.44-1,.63.63,0,0,1,.21-.13.78.78,0,0,0,.19-.12.58.58,0,0,0,.1-.37.41.41,0,0,0-.14-.39c-.38-.32-.77-.25-1.16.21a3.81,3.81,0,0,0-.77,2,1.9,1.9,0,0,0,.53,1.84,1.22,1.22,0,0,0,.8.28,4.5,4.5,0,0,0,1.59-.53c.59-.29,1-.39,1.12-.28a1.53,1.53,0,0,1-.19.81,4.25,4.25,0,0,1-.56.91,1.21,1.21,0,0,1-.32.26,1.11,1.11,0,0,0-.26.2.68.68,0,0,0-.16.46.51.51,0,0,0,.19.43c.34.29.72.18,1.14-.32a5.57,5.57,0,0,0,1.16-2.16Q86.52,77.3,86,76.82Z"/><path class="cls-1" d="M40.43,43.53l-3.31,3.58,2.26,4.33L35,49.4l-3.41,3.49L32.11,48l-4.38-2.16,4.79-1,.7-4.83,2.39,4.26Zm-13.19,19-.06-1.83-1.07,1.48-1.76-.51,1.08,1.48-1,1.51,1.74-.57,1.12,1.45V63.74L29,63.12ZM48.46,32.13l2.63,2.55-.53-3.63,3.23-1.72-3.61-.61-.64-3.6-1.7,3.24-3.62-.51,2.56,2.62-1.6,3.29Zm24.31-1.86,1.11-1.46,1.74.55-1-1.5,1.06-1.49-1.75.53L72.8,25.43l0,1.83L71,27.84l1.73.6ZM93.48,56.33l-2.69.56-1.42-2.35-.31,2.73-2.67.63L88.9,59l-.23,2.74,1.85-2,2.53,1.06-1.36-2.39ZM76,65.76,75.45,62l-1.86,3.32-3.76-.63,2.59,2.79-1.77,3.38,3.46-1.59L76.78,72l-.45-3.78,3.42-1.7ZM63.91,77.1l-1.09-1.47,0,1.83-1.74.59,1.73.59,0,1.84L63.9,79l1.75.54-1.05-1.5,1.07-1.49ZM51.89,72l-.44-2.71-1.3,2.41-2.72-.42,1.9,2-1.24,2.45,2.48-1.18,2,1.93-.37-2.72,2.44-1.26Z"/><path class="cls-1" d="M56.79,0a56.8,56.8,0,1,0,56.8,56.79A56.86,56.86,0,0,0,56.79,0Zm0,112.34a55.55,55.55,0,1,1,55.55-55.55A55.61,55.61,0,0,1,56.79,112.34Z"/><path class="cls-1" d="M75.06,10a4.66,4.66,0,0,1-1.11,2l-.06.07-1.19-.28.17-.2a4.07,4.07,0,0,0,1-1.79,1.91,1.91,0,0,0,0-1.17A.87.87,0,0,0,73.26,8c-.67-.16-1.51.49-2.49,1.93A16.74,16.74,0,0,0,69.19,13,22.22,22.22,0,0,0,68,16.59l-.16.67L66.71,17l.16-.7a21.71,21.71,0,0,0,.51-3.57,17.75,17.75,0,0,0,0-3.31c-.24-1.86-.72-2.88-1.41-3a.84.84,0,0,0-.8.22,1.8,1.8,0,0,0-.55,1,3.77,3.77,0,0,0,.15,2l.08.26L63.63,9.6l0-.09a4.67,4.67,0,0,1-.12-2.26,2.59,2.59,0,0,1,1-1.59,2,2,0,0,1,1.71-.35c1,.23,1.66,1.08,2,2.53a12.47,12.47,0,0,1,.17,4.45,12.08,12.08,0,0,1,2.12-3.88c1-1.15,2-1.62,3-1.39a2,2,0,0,1,1.38,1.06A2.58,2.58,0,0,1,75.06,10Z"/><path class="cls-1" d="M96.81,23.58a2.63,2.63,0,0,0-2.65-.53l-.91.18a3,3,0,0,1-1.41,0,2.24,2.24,0,0,1-1-.73,2.36,2.36,0,0,1-.6-1.13,3,3,0,0,1,.2-1.39l.3-.88a2.66,2.66,0,0,0-.19-2.7L90.14,16l-.71.62.21.23a1.63,1.63,0,0,1,.06,1.64l-.24.66a5.17,5.17,0,0,0-.33,1.35,2.67,2.67,0,0,0,.1.82,4,4,0,0,0-1.82-.12,3.63,3.63,0,0,0-3,3.45,3.65,3.65,0,0,0,.91,2.74,3.7,3.7,0,0,0,2.6,1.26h.3A3.61,3.61,0,0,0,91.68,26a4.06,4.06,0,0,0,.11-1.81,2.79,2.79,0,0,0,.81.19A4.76,4.76,0,0,0,94,24.27l.68-.14q1.16-.25,1.62.27l.2.23.71-.62Zm-7,3.3a2.62,2.62,0,0,1-3.68-.28,2.55,2.55,0,0,1-.66-1.9A2.57,2.57,0,0,1,88,22.27h.21a2.48,2.48,0,0,1,1.8.9,2.58,2.58,0,0,1,.66,1.9A2.52,2.52,0,0,1,89.82,26.88Z"/><path class="cls-1" d="M107.93,48.42A17.42,17.42,0,0,1,106.4,44a17.26,17.26,0,0,1-.51-4.61v-.21l-1,.23v.12a11.37,11.37,0,0,0,0,2.11L98.1,43.22a16.53,16.53,0,0,0-.87-1.92l-.06-.11-1,.23.1.18A18.42,18.42,0,0,1,97.84,46a18.84,18.84,0,0,1,.48,4.63v.2l1-.22v-.12a18.16,18.16,0,0,0,0-2.12l6.84-1.56a11.48,11.48,0,0,0,.86,1.94l.06.1,1-.23ZM99.09,47.2a13.19,13.19,0,0,0-.26-1.45c-.12-.51-.25-1-.39-1.41l6.68-1.52c.07.4.16.88.29,1.44s.25,1,.36,1.42Z"/><path class="cls-1" d="M106.47,67.57A2.87,2.87,0,0,0,104.86,65a2.2,2.2,0,0,0-1.76,0,2.33,2.33,0,0,0-1.25,3,2.27,2.27,0,0,0,1.25,1.26,2.37,2.37,0,0,0,1.3.16,2.5,2.5,0,0,0,.94-.41,7.34,7.34,0,0,1-.6,2.22,12.21,12.21,0,0,1-3,4.23l-.18.17,1.17.48.07-.06a11.52,11.52,0,0,0,2.92-4A9.17,9.17,0,0,0,106.47,67.57Zm-1.17,0a1.39,1.39,0,0,1-.77.79,1.38,1.38,0,0,1-1.09,0,1.44,1.44,0,0,1-.78-1.88,1.44,1.44,0,0,1,1.89-.76,1.35,1.35,0,0,1,.76.76A1.31,1.31,0,0,1,105.3,67.61Zm-3.44,3.86a2.21,2.21,0,0,0-1.24-1.25,2.28,2.28,0,0,0-1.3-.16,2.5,2.5,0,0,0-.94.41,7.88,7.88,0,0,1,.6-2.22A12.34,12.34,0,0,1,102,64l.18-.16L101,63.36l-.07.07a11.61,11.61,0,0,0-2.92,4,9.17,9.17,0,0,0-.8,4.43,2.89,2.89,0,0,0,1.61,2.62,2.43,2.43,0,0,0,.74.18,2.3,2.3,0,0,0,1-.18,2.31,2.31,0,0,0,1.24-3Zm-.81,1.44a1.33,1.33,0,0,1-.77.77,1.38,1.38,0,0,1-1.11,0,1.35,1.35,0,0,1-.76-.76,1.34,1.34,0,0,1,0-1.09,1.37,1.37,0,0,1,.77-.78,1.31,1.31,0,0,1,1.09,0,1.39,1.39,0,0,1,.78.78A1.36,1.36,0,0,1,101.05,72.91Z"/><path class="cls-1" d="M92.71,90.84a4.54,4.54,0,0,0-1.7-.92,1.75,1.75,0,0,0,.32-.27,2.24,2.24,0,0,0,.6-1.68,2.32,2.32,0,0,0-.75-1.64,2.34,2.34,0,0,0-1.72-.64,2.36,2.36,0,0,0-2.28,2.45,2.21,2.21,0,0,0,.71,1.64,4.78,4.78,0,0,0,1.68.78l.49.15a4.75,4.75,0,0,1,1.82.94A1.87,1.87,0,0,1,92.54,93a2.26,2.26,0,0,1-2.09,2.16,2.23,2.23,0,0,1-1.58-.68,5.19,5.19,0,0,1-1.14-1.9l-.49-1.2a9.09,9.09,0,0,0-1.73-3.09,1.85,1.85,0,0,0-1.42-.53,2,2,0,0,0-1.39.66A3,3,0,0,0,82,90.55v.15h1v-.15a2.07,2.07,0,0,1,.39-1.37.8.8,0,0,1,.63-.28.93.93,0,0,1,.69.29,9.93,9.93,0,0,1,1.4,2.72l.36.87a14.9,14.9,0,0,0,.76,1.64,4.66,4.66,0,0,0,.8.94,3.12,3.12,0,0,0,2.32.92l.15,0a3.33,3.33,0,0,0,2.11-1.14,3.18,3.18,0,0,0,.93-2.21A2.72,2.72,0,0,0,92.71,90.84ZM90.63,89a1.33,1.33,0,0,1-1,.45,1.47,1.47,0,0,1-1.49-1.38,1.38,1.38,0,0,1,1.22-1.45h.12A1.47,1.47,0,0,1,91,88,1.31,1.31,0,0,1,90.63,89Z"/><path class="cls-1" d="M74.43,105.83a4,4,0,0,1-1.33-1.91l-2-6-1.1.37,1.7,5.17a6.84,6.84,0,0,1-.37,2.5,5.44,5.44,0,0,1-.83-1.73l-1.81-5.51-1.11.36,1.64,5a6.26,6.26,0,0,1-.31,2.7,4.2,4.2,0,0,1-.74-1.46l-1.61-4.9a6.37,6.37,0,0,0-.38-.94,5.47,5.47,0,0,1,1.38-1l.11-.07-.32-1-.17.08a6.19,6.19,0,0,0-1.57,1.12,4.16,4.16,0,0,0-.91-.85l-.06,0-1.33.43.28.18a3.73,3.73,0,0,1,1.26,1.19,6.85,6.85,0,0,0-.89,2.4,5.24,5.24,0,0,0,.21,2.42A5.48,5.48,0,0,0,66,106.88l.09.08.72-.57,0,0a5.89,5.89,0,0,0,.17-.89l.25.76a3.74,3.74,0,0,0,1.36,1.87l.09.06.86-.48,0,0a6,6,0,0,0,.41-1.52,3.68,3.68,0,0,0,1.08,1.19l.08,0,.86-.48,0,0a5.79,5.79,0,0,0,.39-1.48,3.57,3.57,0,0,0,.94,1l.06.05,1.2-.39Zm-8.32-.46a4.47,4.47,0,0,1-1-3.28,4.8,4.8,0,0,1,.37-1.48l.92,2.79A6.42,6.42,0,0,1,66.11,105.37Z"/><path class="cls-1" d="M43.58,102.72l.06.07a1.65,1.65,0,0,1,.31,1.66,1.58,1.58,0,0,1-.86,1,1.69,1.69,0,0,1-2.28-.79,1.58,1.58,0,0,1-.1-1.29,1.68,1.68,0,0,1,1.29-1.1l.08,0,.34-1-3.7-1.28-.38,1.1,2.2.76a2.28,2.28,0,0,0-.93,1.18,2.65,2.65,0,0,0,.15,2.15,2.83,2.83,0,0,0,1.64,1.45,3,3,0,0,0,.82.16,2.87,2.87,0,0,0,1.36-.28A2.7,2.7,0,0,0,45,104.87a2.3,2.3,0,0,0,0-1.51l2.21.77.38-1.1-3.7-1.29Z"/><rect class="cls-1" x="43.23" y="94.93" width="1.16" height="9.42" transform="translate(-64.68 108.27) rotate(-70.81)"/><path class="cls-1" d="M28,90.41l-4.46,4.3a3.65,3.65,0,0,0-1.2,2.11l-.05.32-.91-1,0-.08a4.51,4.51,0,0,1,.51-1.28,5.56,5.56,0,0,1-1.5.28h-.05l-.8-.56v-.09a3.43,3.43,0,0,1,.59-1.5,6.41,6.41,0,0,1-1.52.29h-.05l-.83-.58,0-.09a3.7,3.7,0,0,1,1.15-2.1l3.79-3.66a6.26,6.26,0,0,0,.75-.8.85.85,0,0,0,.16-.46,1.45,1.45,0,0,0-.52-1l-.25-.26-.75.72L22,82.69l2.29.2-.73.7L24,84a2.12,2.12,0,0,1,.74,1.69,2.94,2.94,0,0,1-1,1.75L20,91a4,4,0,0,0-1,1.26,6,6,0,0,0,2.57-.9l3.78-3.65.81.84L22,92.64a5.5,5.5,0,0,0-1.17,1.48,6.25,6.25,0,0,0,2.43-.77l3.92-3.78Z"/><path class="cls-1" d="M16.17,71.15l-.58,1-3.2-1.89L11.1,72.43l-1-.58,1.29-2.19-4.25-2.5.33,2.89-1.15.11L5.8,65.71,9.94,64l.47,1.07-2.7,1.12L12,68.67l1.29-2.19,1,.59L13,69.26Z"/><path class="cls-1" d="M15.85,43.28A2.21,2.21,0,0,0,16,41.52a2.31,2.31,0,0,0-1.17-1.34,2.12,2.12,0,0,0-1.69-.13,2.18,2.18,0,0,0-1.3,1.12A2.55,2.55,0,0,0,12,43.73a8.31,8.31,0,0,1-1-.32l-.74-.26-1-.33a11.63,11.63,0,0,0-2.85-.68H6.3L5.93,43.4l0,.05a7.6,7.6,0,0,0,1.88,2.6,9.65,9.65,0,0,0-2.18-.41,1.41,1.41,0,0,0-1.33.86L4,47.2l.91.47L5,47.39a1,1,0,0,1,1-.59,8.76,8.76,0,0,1,2,.42A12.17,12.17,0,0,1,10.1,48l.41.2.52-1-.55-.28a7.91,7.91,0,0,1-2-1.63A8,8,0,0,1,7.09,43.4,10.26,10.26,0,0,1,9,43.93l1.54.55A12.47,12.47,0,0,0,12,45a3.78,3.78,0,0,0,.88,0,7.61,7.61,0,0,1,1.5,1.88A1.89,1.89,0,0,1,14,48.29l-.23.46.9.46.42-.82a2.44,2.44,0,0,0,.34-1.78,6,6,0,0,0-1.29-1.88A3,3,0,0,0,15.85,43.28ZM15,42.9A2.35,2.35,0,0,1,13.41,44c-.83-.93-1.09-1.73-.75-2.38a1.15,1.15,0,0,1,.72-.61A1.1,1.1,0,0,1,14,41a1.06,1.06,0,0,1,.34.12,1.36,1.36,0,0,1,.72.79A1.22,1.22,0,0,1,15,42.9Z"/><path class="cls-1" d="M20.64,24.9,19,24.2l-.66,2.85-1-.22.92-4,1.63.69.66-2.87,1.62.7.66-2.87,2.7,1.16-.4.95-1.59-.69-.67,2.89L21.29,22Zm5.23-3.3-.66,2.87-1.61-.7-.66,2.88L21.31,26,20.39,30l1,.22L22,27.37l1.63.7.65-2.87,1.61.7L26.59,23l1.59.7.39-1Z"/><path class="cls-1" d="M48.56,14.94l-1.31.35-.06,0a7.75,7.75,0,0,1-1.84-1.73,5.84,5.84,0,0,1-1-1.91l-1.4.37A6,6,0,0,1,43,14.16a7.78,7.78,0,0,1-.72,2.42l0,.06-1.3.35.17-.32a6.09,6.09,0,0,0,.71-4.38l-1.74.47-.25-.91,1.73-.47a6.32,6.32,0,0,0-2.71-3.09l-.29-.19,1.25-.34.06,0a6.85,6.85,0,0,1,2.8,3.28l1.42-.38a6.93,6.93,0,0,1,.78-4.25l0-.06,1.26-.33L46,6.37a6.43,6.43,0,0,0-.79,4l1.73-.46.25.91-1.74.47a6,6,0,0,0,2.81,3.43Z"/><path class="cls-1" d="M55.72,18.34A38.79,38.79,0,1,0,94.5,57.13,38.83,38.83,0,0,0,55.72,18.34Zm0,76.32A37.54,37.54,0,1,1,93.25,57.13,37.58,37.58,0,0,1,55.72,94.66Z"/></g></g></svg>