<svg xmlns="http://www.w3.org/2000/svg" viewBox="0 0 51.1 51.02"><title>Asset 510</title><g id="Layer_2" data-name="Layer 2"><g id="Layer_1-2" data-name="Layer 1"><path d="M49.32,16.33a32.83,32.83,0,0,0-3.22-5.65,19.35,19.35,0,0,0-6.23-6.21c-.93-.55-1.87-1.1-2.75-1.73A14.69,14.69,0,0,0,31.7.67,38.19,38.19,0,0,0,27,.09a6.73,6.73,0,0,0-1.9,0c-2.54.46-5.08.94-7.6,1.53a15.85,15.85,0,0,0-7.18,4A27.32,27.32,0,0,1,8,7.73a15.56,15.56,0,0,0-5.05,6C1.41,16.93,0,20.11,0,23.7c0,.92,0,1.84,0,2.76a16.31,16.31,0,0,0,.78,5.43,51.38,51.38,0,0,0,2.41,5.8,24.23,24.23,0,0,0,2.36,4.07,22,22,0,0,0,6.62,5.61,26.63,26.63,0,0,0,8.08,3,21.61,21.61,0,0,0,6,.65,22.28,22.28,0,0,0,7.61-1.34,28.92,28.92,0,0,0,2.84-1.3l.83-.34a4,4,0,0,0,.93-.36c1.39-1.08,2.81-2.13,4.12-3.3a22.37,22.37,0,0,0,4-5.21,22.24,22.24,0,0,0,2.83-6.07c.48-1.93,1-3.85,1.39-5.79a12.64,12.64,0,0,0,.31-2.45A22,22,0,0,0,49.32,16.33Zm.75,11.24C49.59,29.72,49,31.85,48.4,34a20.32,20.32,0,0,1-2.93,5.54,24.18,24.18,0,0,1-3.23,4.15,31.33,31.33,0,0,1-4.44,3.41A20.86,20.86,0,0,1,29.59,50,23.66,23.66,0,0,1,19,49.31a4.26,4.26,0,0,1-1.49-.65h8c.16-.56,0-.74-.52-.71-1.39.07-2.78.13-4.16.17s-2.93,0-4.38.08a6.24,6.24,0,0,1-3.75-1.46c4.2-.11,8.39.32,12.66.08-.19-.68-.65-.57-1-.58-1.84,0-3.67,0-5.51-.07-2.24-.05-4.49-.15-6.73-.23-1,0-1,0-2.05-1,2.59,0,5.07,0,7.54-.11s4.88.49,7.3,0l0-.32a3.41,3.41,0,0,0-.75-.18c-2.51-.05-5-.1-7.52-.12-2.18,0-4.35,0-6.52.05a3.43,3.43,0,0,1-2.94-1.72c3.19,0,6.2,0,9.21,0s6,0,9,0l0-.32a2.41,2.41,0,0,0-.54-.21c-.94-.07-1.87-.18-2.81-.17-3,0-5.91.17-8.87.19-2,0-4-.08-5.95-.17-.94,0-1-.1-1.48-1.19,6.5-.06,13-.32,19.52.13-.19-.69-.53-.73-.86-.73-3.86,0-7.72-.09-11.58-.1-2,0-4,.06-6.05.09A5.05,5.05,0,0,1,6.09,40a1.43,1.43,0,0,1-1.36-1.3c3.38-.1,6.72-.26,10.06-.26s6.44.16,9.66.24h1.06c0-.53-.2-.68-.56-.69s-.9-.07-1.35-.08c-2.17-.08-4.34-.17-6.52-.2-1.16,0-2.32.09-3.48.12-2.13,0-4.27.06-6.4.08-.64,0-1.28,0-1.91,0-1.24,0-1.43-.13-1.79-1.51a202.68,202.68,0,0,1,21.63,0c.12-.5,0-.73-.38-.72-.6,0-1.2.1-1.79.08-2.18-.06-4.35-.19-6.52-.23a58.15,58.15,0,0,0-6.73.05,49.63,49.63,0,0,1-5.85,0c-.81,0-1.28-.41-1.33-1.6,7.54,0,15.08,0,22.62.32.05-.73-.36-.74-.73-.74-1,0-2,0-2.93,0-3.63-.07-7.27-.18-10.9-.23-2.55,0-5.1,0-7.65,0-.93,0-.93,0-1.15-1.22L9.73,32c2.62,0,5.24-.13,7.87-.13s5.26.09,7.93.14a.54.54,0,0,0-.58-.61,51.83,51.83,0,0,0-8-.16c-2,.2-4,.14-5.95.17-2.78,0-5.55.07-8.33.09-1.32,0-1.33,0-1.49-1.43,4-.32,8-.4,12-.34s8,.17,12,.08c-.19-.1-.38-.29-.58-.3-6.25-.41-12.5-.47-18.76-.37-1.13,0-2.25.13-3.37.22-1.67.14-1.82,0-1.44-1.84,1.58,0,3.18-.05,4.78-.05s3.22,0,4.83.07,3.22.06,4.83.11,3.22.24,4.82.22a46.43,46.43,0,0,0,4.72,0l0-.35a4.75,4.75,0,0,0-.89-.2c-3.63-.1-7.27-.21-10.9-.27-3.9-.07-7.79-.09-11.69-.14-.21,0-.43,0-.72-.07V25.5c1-.07,2-.16,3.05-.2,1.91-.08,3.82-.16,5.73-.17,1.61,0,3.21.09,4.82.12,2.66.05,5.32.1,8,.1,1,0,2-.11,3.06-.17,0-.42-.21-.55-.54-.57a13.93,13.93,0,0,0-1.58,0,103.61,103.61,0,0,1-12.46-.08c-2.34-.13-4.71.14-7.07.21a9.5,9.5,0,0,1-3.09-.09c.06-.39.11-.75.16-1.15a7.28,7.28,0,0,1,.91-.18C7.08,23,12.32,22.91,17.57,23c2.17,0,4.34.13,6.51.19a3.25,3.25,0,0,0,1.07-.11c-.61-.62-1.38-.29-2.07-.37s-1.42-.09-2.13-.12-1.49-.07-2.24-.09l-2.25-.05-2.14-.1c-.75,0-1.5-.05-2.25,0s-1.42.1-2.13.13l-2.25,0c-.75,0-1.5,0-2.25,0s-1.41.15-2.13.18-1.48,0-2.25,0c0-.33-.05-.51,0-.69.08-1.1.17-1.23,1.25-1.28,1.65-.07,3.3-.1,4.95-.1,2.89,0,5.77,0,8.66.06s5.84.17,8.76.24a5.2,5.2,0,0,0,.78-.1,7.58,7.58,0,0,0-3.36-.55c-1.12,0-2.25,0-3.37-.05s-2.32-.09-3.49-.1-2.25,0-3.37,0-2.32,0-3.48,0L5,20.18H1.52c-.25-1.12,0-1.55,1.12-1.6,2.84-.12,5.69-.08,8.54.05,3.22.16,6.45.09,9.67.11,1.42,0,2.83,0,4.25,0a2.25,2.25,0,0,0,.48-.19c-.26-.2-.43-.42-.6-.43-.82-.05-1.65-.06-2.47,0-2.93.05-5.85.17-8.77.15-1.72,0-3.43-.25-5.15-.34-1.23-.06-2.47-.05-3.71,0-.93,0-1.86.08-3,.13a8.21,8.21,0,0,1,.58-1.53,1.2,1.2,0,0,1,.85-.37C4.85,16,6.39,16,7.92,15.9a59.73,59.73,0,0,1,6.28.28c2.43.12,4.87.08,7.31.06,1.21,0,2.42-.12,3.92-.2-.39-.25-.57-.45-.75-.46-.67,0-1.35,0-2,0a94.09,94.09,0,0,1-12-.19,38.12,38.12,0,0,0-4.27.08H3.05c.26-1.22.4-1.42,1.25-1.45,2.17-.08,4.34-.19,6.51-.19,3.45,0,6.9.1,10.35.12.69,0,1.39-.17,2.08-.22s1.3,0,2,0l0-.27a2.7,2.7,0,0,0-.75-.23c-1.12,0-2.23.08-3.35.09-2.74,0-5.47,0-8.2,0s-5.23.09-7.84.13h-1c.11-1.14.46-1.57,1.42-1.61,1.76-.09,3.52-.18,5.28-.15,3.15.06,6.3.21,9.45.31,1.53,0,3.07,0,4.6,0a2.22,2.22,0,0,0,.49-.13v-.35a35.19,35.19,0,0,0-4.82-.15l-4.94-.23c-1.64-.06-3.29-.13-4.94-.16s-3.28,0-5,0A1.28,1.28,0,0,1,6.94,10l3.71-.17,1.9-.11c1.83-.09,3.67-.18,5.5-.23,1.39,0,2.77,0,4.16,0,.64,0,1.27.05,1.91.07h1.13c-.1-.63-.49-.55-.79-.56-1.2,0-2.4,0-3.6,0-2.38,0-4.77,0-7.16.06-1.94.07-3.88.3-5.83.45-.21,0-.42,0-.68,0a3.46,3.46,0,0,1,2.88-1.78l13.27.19c.53,0,1.05,0,1.58,0a8.08,8.08,0,0,0,1-.1c-.36-.3-.52-.44-.69-.57,0,0-.07,0-.11,0-3.33,0-6.65,0-10,0-1.5,0-3-.07-4.49-.11a4.92,4.92,0,0,1-.51-.11,14.33,14.33,0,0,1,1.4-1.67,1.7,1.7,0,0,1,1-.25c2.65,0,5.31,0,8,0h4.61c-.31-.33-.43-.55-.61-.62a2.1,2.1,0,0,0-.67,0c-1.87-.06-3.74-.16-5.61-.17-1.42,0-2.85.11-4.27.17a4.06,4.06,0,0,1-1.13-.1,4.15,4.15,0,0,1,3-1.34c2.74.18,5.47.23,8.21.33.29,0,.59,0,.9,0,.06-.48-.18-.62-.5-.63-.64,0-1.28,0-1.92,0l-4.83-.16a.55.55,0,0,1-.43-.24c.84-.22,1.68-.51,2.54-.66A40.78,40.78,0,0,1,25.5.79a23.84,23.84,0,0,1,9.8,1.64,3.32,3.32,0,0,1,.51.23C39.47,4.87,43,7.13,45.53,10.8a30.56,30.56,0,0,1,4.31,9A16,16,0,0,1,50.07,27.57ZM34.92,34.05a5,5,0,0,0-.77-.43c-.32-.12-.69-.17-.85.26s.25.72.64.76A.77.77,0,0,0,34.92,34.05Zm2.39-15c0,.32.21.6.58.5a3.94,3.94,0,0,0,.77-.43v-.28a2.24,2.24,0,0,0-.7-.33C37.61,18.5,37.26,18.61,37.31,19.07ZM43.86,33c.09.22.46.53.6.48s.51-.41.89-.74c-.32-.25-.49-.47-.68-.49C44.3,32.16,43.74,32.69,43.86,33Zm-2,2.92c-.34,0-.66.14-.7.72a2.46,2.46,0,0,0,.81.3.5.5,0,0,0,.48-.7C42.38,36.05,42,35.89,41.83,35.89ZM28.44,5.32c.14-.08.29-.39.23-.51a.6.6,0,0,0-.5-.31c-.54,0-.87.34-.77,1.15A5.58,5.58,0,0,0,28.44,5.32Zm9,8.59c.44.23.75.5.9.44a1.48,1.48,0,0,0,.54-.72c0-.06-.39-.44-.52-.4S37.85,13.57,37.42,13.91Zm2.77,27.22a1.56,1.56,0,0,0-.14.6c.23.05.52.21.68.12a4.12,4.12,0,0,0,.82-.7C40.93,40.75,40.53,40.74,40.19,41.13Zm4.32-19.79c-.19-.1-.44-.33-.66-.3s-.4.33-.6.52c.17.16.33.42.52.45S44.45,21.94,44.51,21.34Zm-15-5.28a2.3,2.3,0,0,0-.72.12c.15.29.2.59.37.68a.94.94,0,0,0,.7,0c.12,0,.26-.37.22-.42A1.22,1.22,0,0,0,29.49,16.06Zm12.86-3.5a3.14,3.14,0,0,0,.81-.53l-.09-.29a4.6,4.6,0,0,0-1,0c-.13,0-.32.39-.27.48S42.22,12.61,42.35,12.56ZM38.85,32c-.24.07-.42.32-.63.49.17.14.36.42.51.4a2.66,2.66,0,0,0,.77-.39l0-.27C39.26,32.11,39,31.92,38.85,32ZM30.72,43.61c-.35-.08-.63.17-.63.71l1,.21.23-.3C31.11,44,31,43.66,30.72,43.61Zm15.76-18.2a.56.56,0,0,0,.26.48c.53.09.85-.16.9-.82C47.12,24.85,46.71,24.91,46.48,25.41Zm-3.41,2.36c-.41,0-.71.17-.85.88a6.25,6.25,0,0,0,1-.14.5.5,0,0,0,.2-.45A.52.52,0,0,0,43.07,27.77Zm-5-18.51c.35,0,.54-.31.37-.62a.75.75,0,0,0-.64-.18c-.21,0-.38.28-.57.43l0,.29A3.53,3.53,0,0,0,38.11,9.26Zm-.32,17.6c.21,0,.41-.29.8-.59a4.86,4.86,0,0,0-.83-.33c-.34-.05-.64.16-.57.48A.76.76,0,0,0,37.79,26.86ZM33.52,11.93c-.16.1-.21.36-.45.8l1.67-.35C34.05,11.8,33.84,11.72,33.52,11.93Zm-4.1,9.26a4.6,4.6,0,0,0-1,.38c.35.27.49.47.66.49.34,0,.72,0,.71-.48C29.81,21.44,29.54,21.18,29.42,21.19ZM44.9,16c-.1.11,0,.45.09.77.52-.22,1.08-.16,1.13-.87A1,1,0,0,0,44.9,16Zm-5.49,6.81a1.7,1.7,0,0,0-.53.47s.14.33.2.33a1.65,1.65,0,0,0,.7-.18c.11-.07.13-.31.21-.54C39.75,22.8,39.54,22.7,39.41,22.76Zm3-5.8a1.9,1.9,0,0,0-.66,0c-.16,0-.29.24-.43.38.18.13.36.39.53.38S42.57,17.58,42.44,17ZM30.31,8.54c.17.16.33.42.5.43s.46-.19.87-.39c-.36-.23-.54-.44-.67-.41A2.62,2.62,0,0,0,30.31,8.54ZM28.67,46.76a.47.47,0,0,0,.2.43c.49.17.62-.18.76-.58C29.21,46.41,28.87,46.32,28.67,46.76ZM28.28,27c-.17-.16-.32-.38-.53-.45s-.32.16-.65.34c.32.23.5.45.7.47S28.12,27.13,28.28,27Zm.37,5.71c-.41-.2-.75-.3-1,.12a.41.41,0,0,0,.13.37C28.22,33.44,28.48,33.25,28.65,32.71Zm1.72-2a.5.5,0,0,0,0,.49c.34.21.7.24.93-.34C31,30.59,30.71,30.29,30.37,30.72Zm7.35,8.5c.13,0,.15-.35.23-.54l-1-.19C37.09,39.2,37.37,39.34,37.72,39.22ZM34.84,5.8c-.45-.25-.78-.34-1,.11a.42.42,0,0,0,.14.37C34.42,6.52,34.64,6.26,34.84,5.8Zm-.71,37c.49.44.77.06,1.31-.32C34.62,42.4,34.62,42.4,34.13,42.78Zm-5.67-1.54c-.21-.19-.49-.3-.61,0-.05.12.11.41.25.5s.39,0,.74,0A4.49,4.49,0,0,0,28.46,41.24ZM33,39.43a1.73,1.73,0,0,0-.49.34l.57.62a1.9,1.9,0,0,0,.22-.61C33.25,39.65,33,39.41,33,39.43Zm2.92-10.38a1.24,1.24,0,0,0-.51.42c0,.1.12.32.23.59a3.84,3.84,0,0,0,.58-.69C36.2,29.3,35.92,29,35.88,29.05Zm-2.76-2.64c-.09-.1-.18-.28-.27-.28a1.68,1.68,0,0,0-.55.15l-.16.27c.17.07.34.22.49.19S33,26.53,33.12,26.41Zm1.74-4.08c-.57-.24-.57-.24-.9.18C34.33,22.79,34.61,22.72,34.86,22.33ZM28.28,12.17c.41.18.7.14.8-.37C28.49,11.7,28.49,11.7,28.28,12.17Zm6.33,5.29c0-.07-.15-.2-.24-.31l-.44.38.32.36C34.41,17.71,34.56,17.6,34.61,17.46Zm-5.36,19.8a5.4,5.4,0,0,0-.42-.41s-.16.11-.25.17l.37.51Z"/></g></g></svg>