<svg xmlns="http://www.w3.org/2000/svg" viewBox="0 0 55.27 73.48"><defs><style>.cls-1{fill:#1d1d1b;}</style></defs><title>Asset 427</title><g id="Layer_2" data-name="Layer 2"><g id="Layer_1-2" data-name="Layer 1"><path class="cls-1" d="M43.26,36.39a32.55,32.55,0,0,0-13.43-3h-.61A33.51,33.51,0,0,0,16.87,35.9a6.46,6.46,0,0,0-1.61.77,6.66,6.66,0,1,0,7.62.25h0a42.72,42.72,0,0,1,6.66-.54,55.21,55.21,0,0,1,12.53,1.69,1.53,1.53,0,0,0,1.68-.58h0A.8.8,0,0,0,43.26,36.39ZM23.34,42.25a4.46,4.46,0,1,1-4.46-4.44A4.46,4.46,0,0,1,23.34,42.25Zm13.05.51a6.67,6.67,0,0,0-4,12,43.28,43.28,0,0,1-6.75.56A54.34,54.34,0,0,1,13.2,53.62a1.53,1.53,0,0,0-1.67.58h0A.8.8,0,0,0,12,55.29a32.06,32.06,0,0,0,13.32,3h.61A33.16,33.16,0,0,0,37.8,55.94,6.5,6.5,0,0,0,40,55.05a6.67,6.67,0,0,0-3.58-12.29Zm0,11.12a4.46,4.46,0,1,1,4.45-4.45A4.45,4.45,0,0,1,36.39,53.88Z"/><path class="cls-1" d="M47.18,26.3a27.64,27.64,0,1,0,8.09,19.54A27.46,27.46,0,0,0,47.18,26.3ZM45.83,64a25.74,25.74,0,1,1,7.54-18.2A25.55,25.55,0,0,1,45.83,64Z"/><path class="cls-1" d="M13.22,8.88l.16,0a22.91,22.91,0,0,0-.12,2.34,9.62,9.62,0,0,1-4,.9A6.06,6.06,0,0,1,3,6.05,6,6,0,0,1,9.32,0a18.82,18.82,0,0,1,3.94.59c0,.46,0,1.11,0,1.62s0,.85,0,1.13h-.17A3.5,3.5,0,0,0,9.45.44C7,.44,4.91,2.34,4.91,6.05c0,3.88,2.29,5.65,4.47,5.65A4.05,4.05,0,0,0,13.22,8.88Zm8.16,2.3.08.15a1.69,1.69,0,0,1-1.44.78.86.86,0,0,1-1-.85,3.6,3.6,0,0,1-2.34.9c-1.33,0-2.25-.75-2.25-1.83,0-1.25,1.23-2.1,2.79-2.1A3.52,3.52,0,0,1,19,8.65V6.29c0-1.26-.41-1.78-1.24-1.78s-1.54.65-1.56,2.06H14.77A2.82,2.82,0,0,1,17.9,4.13c1.59,0,2.62.72,2.62,2.84v3.44c0,.72.12.93.45.93A.61.61,0,0,0,21.38,11.18ZM19,9a2.3,2.3,0,0,0-1.31-.37,1.4,1.4,0,0,0-1.54,1.5,1.28,1.28,0,0,0,1.35,1.43,2.19,2.19,0,0,0,1.5-.64Zm10.57,1.36V6.8c0-2.33-1.47-2.67-2.57-2.67a4,4,0,0,0-2.46.8v-.8a5.28,5.28,0,0,1-2.05.44v.17c.5.13.51.37.51,1.18v4.45c0,1.32-.21,1.4-.7,1.5V12c.36,0,.87,0,1.47,0s1.12,0,1.48,0v-.16c-.49-.1-.71-.18-.71-1.5v-5a2.79,2.79,0,0,1,1.81-.71c.93,0,1.68.5,1.68,2.2v3.52c0,1.32-.21,1.4-.7,1.5V12c.36,0,.87,0,1.47,0s1.12,0,1.48,0v-.16C29.77,11.77,29.55,11.69,29.55,10.37Zm5.61-5.91c1,0,1.34.69,1.39,1.57h1.59c-.23-1.23-1.39-1.9-2.87-1.9a3.92,3.92,0,0,0-4.08,4,3.81,3.81,0,0,0,3.9,4A3.3,3.3,0,0,0,38,10.67l-.11-.12a2.7,2.7,0,0,1-2.07.91c-1.7,0-2.88-1.35-2.88-3.66C32.9,6,33.6,4.46,35.16,4.46Zm10.57,6,.11.14a3.43,3.43,0,0,1-3,1.56,3.83,3.83,0,0,1-3.89-4,3.8,3.8,0,0,1,3.72-4,2.94,2.94,0,0,1,3.1,3.08H40.68a3.44,3.44,0,0,0,0,.41c0,2.31,1.25,3.74,3,3.74A2.86,2.86,0,0,0,45.73,10.46Zm-5-3.67h3.41c0-1.56-.61-2.33-1.49-2.33C41.61,4.46,40.93,5.49,40.73,6.79ZM51,4.13a2.83,2.83,0,0,0-1.89,1v-1a5.24,5.24,0,0,1-2,.44v.17c.5.13.51.37.51,1.18v4.45c0,1.32-.21,1.4-.7,1.5V12c.36,0,.87,0,1.47,0s1.12,0,1.48,0v-.16c-.49-.1-.71-.18-.71-1.5V5.64a1.38,1.38,0,0,1,1-.58c.4,0,.66.23.66.91h1.51C52.32,4.69,51.86,4.13,51,4.13Z"/></g></g></svg>