<svg xmlns="http://www.w3.org/2000/svg" viewBox="0 0 53.42 53.79"><title>Asset 495</title><g id="Layer_2" data-name="Layer 2"><g id="Layer_1-2" data-name="Layer 1"><path d="M46.52,8.66A22,22,0,0,0,40.93,4,18.61,18.61,0,0,1,38.07,2.2a5.65,5.65,0,0,0-2.53-1.09C33.43.74,31.32.38,29.2.11A13.34,13.34,0,0,0,26,.09c-2.8.35-5.61.73-8.39,1.27a15,15,0,0,0-3.81,1.39A28.28,28.28,0,0,0,8.51,6.69c-4,3.46-6.16,8-7.76,12.87C-.18,22.42,0,25.35.06,28.28A22.67,22.67,0,0,0,4.11,40.66c1.2,1.54,2.34,3.14,3.62,4.61a31.54,31.54,0,0,0,3.09,2.91A22.88,22.88,0,0,0,20,53a24.21,24.21,0,0,0,9.89.53,19.72,19.72,0,0,0,7.52-2.22,11.7,11.7,0,0,1,1.36-.55A7.64,7.64,0,0,0,40.29,50a32.52,32.52,0,0,0,5.87-5.5,29,29,0,0,0,6.66-12.7A27.68,27.68,0,0,0,51,14.94,21.65,21.65,0,0,0,46.52,8.66ZM50.78,17a1.93,1.93,0,0,0,.18.56c2,4,1.78,8.19,1.21,12.48a24.47,24.47,0,0,1-4.28,10.65,39.13,39.13,0,0,1-4.75,5.55,23.88,23.88,0,0,1-12.5,6.27,22.17,22.17,0,0,1-11.12-.67,22.08,22.08,0,0,1-9.75-6c-1-1.07-2-2.16-2.9-3.3s-1.48-2.06-2.22-3.1C2,36.2,1.11,32.41.85,28.3A27.13,27.13,0,0,1,2.54,17.07C4.25,12.4,7.42,8.94,11.22,5.84S19.31,2,23.86,1.42c3.71-.47,7.34.1,11,.65a15.31,15.31,0,0,1,4.84,2c3.58,2,6.29,4.94,8.78,8.11A11,11,0,0,1,50.78,17ZM23.33,6.34a4.51,4.51,0,0,0-1,.28c-2.69,1.47-7.22,5-7.62,5.85C15.86,12.33,22.73,7.75,23.33,6.34Zm1.31,4.85,3.49-2.41a4.73,4.73,0,0,0,1.56-1.64,2,2,0,0,0-1.25.12,52.7,52.7,0,0,0-6.15,4.34A2.35,2.35,0,0,0,24.64,11.19Zm-20.45,24c2.19-1.53,4.36-3.07,6.53-4.62a4.15,4.15,0,0,0,.54-.72c-1.78.09-6.84,3.67-7.62,5.25C3.84,35.14,4.08,35.26,4.19,35.19ZM11,15.49c.19-.13.21-.52.35-.91a21.68,21.68,0,0,0-7.09,4.93,2.65,2.65,0,0,0,.89-.17C7.12,18.08,9.08,16.8,11,15.49Zm3.1,3.66c.27,0,.57.09.72,0,2.13-1.48,4.24-3,6.35-4.5C19.06,14.52,15,17.28,14.11,19.15Zm-3.76,3.58c.14-.11.12-.4.17-.61C8,23.68,5.13,24.77,3.36,27.31A37.43,37.43,0,0,0,10.35,22.73ZM35.52,46.27a1.92,1.92,0,0,0,.8,0,21.71,21.71,0,0,0,5-4.53C40,41.74,36.41,44.49,35.52,46.27ZM11.1,40.14c.65.18.72.3,2.93-1,1.13-.67,2.57-1.16,3.31-2.78C15.86,36.5,11.74,39.09,11.1,40.14ZM31.6,27.65c.54-.46,1.26-.84,1.45-1.82-.32.06-.53,0-.66.12q-2.55,1.85-5.07,3.73a2.1,2.1,0,0,0-.39.58c.62.7,1,.12,1.4-.14C29.45,29.33,30.56,28.53,31.6,27.65Zm9.89-4.44c-1.45,1.05-2.81,2.2-4.21,3.31l.16.4c.86.24,1.34-.59,2-1a20.1,20.1,0,0,0,2-1.43c.6-.46,1.47-.67,1.9-1.81A5.88,5.88,0,0,0,41.49,23.21ZM23.56,28.49c1.29-.87,2.59-1.74,3.86-2.64.44-.32.83-.71,1.25-1.07-.36-.27-.64-.37-.8-.27-1.83,1.18-3.65,2.4-5.52,3.64C22.78,29,23.18,28.75,23.56,28.49Zm1.35,7.16a3.14,3.14,0,0,0,.41-.52c-1.9-.06-5.36,2.3-5.95,3.84.2,0,.43.1.55,0C21.59,37.89,23.26,36.77,24.91,35.65Zm-.83,8.09c-1.5,0-5.39,2.55-6.56,4.06.58.39,1,.07,1.45-.22q2.1-1.47,4.18-3A11.07,11.07,0,0,0,24.08,43.74ZM19.58,32.1c-.9-.73-.9-.73-1.52-.33-1.22.8-2.44,1.59-3.64,2.4-.42.29-.78.64-1.17,1l.33.51C15.68,34.69,17.42,33,19.58,32.1ZM42.94,17.76c-1.94,1.57-3.63,2.93-5.38,4.41.56.54.87.5,1.23.2,1-.81,2-1.55,2.9-2.43A2.68,2.68,0,0,0,42.94,17.76ZM20.27,23.29l-.11-.38c-.25,0-.57-.15-.74,0a20.59,20.59,0,0,0-5.08,4.32C16.68,26.41,18.19,24.44,20.27,23.29Zm11.17-9.41c-.19.21-.38.67-.27.83.23.4.58.13.85-.09.83-.67,1.66-1.34,2.47-2a9.29,9.29,0,0,0,1.14-1.12c.28-.34.28-.71-.36-1l-2.63,2.33A13.46,13.46,0,0,0,31.44,13.88ZM30.7,44.83a5.53,5.53,0,0,0-1.11.35,23.93,23.93,0,0,0-4.35,3.18c.89.27.9.3,1.22.09a17.11,17.11,0,0,0,4.43-3.25ZM42.26,30.34c-1,.83-1.8,1.5-2.59,2.19-1.92,1.68-1.92,1.68-1.94,2.55a16.72,16.72,0,0,0,4.6-3.81C42.43,31.15,42.31,30.85,42.26,30.34Zm6.39,2.19c-1.29.94-2.57,1.91-3.81,2.92-.16.12-.14.47-.25.93a12.59,12.59,0,0,0,4.66-3.56C49,32.71,48.73,32.47,48.65,32.53Zm-14-3.34c-1-.09-4.28,2-5.29,3.43.37.48.65.44,1,.14,1.11-.87,2.27-1.67,3.39-2.52C34.14,30,34.68,29.81,34.63,29.19ZM46.51,29c.34.62.73.41,1,.17,1.3-1.06,2.57-2.16,3.85-3.24l-.08-.29c-.26,0-.6-.13-.77,0C49.11,26.61,47.51,27.46,46.51,29Zm-15-7.28a3.81,3.81,0,0,0,1.16-.52c1.24-1,2.73-1.8,3.87-3.22-.35-.11-.59-.26-.68-.2-1.62,1.15-3.21,2.33-5,3.6C31.27,21.55,31.42,21.7,31.51,21.67ZM16.59,40.43l-.21-.33a6.25,6.25,0,0,0-1.12.41c-1.28.79-2.54,1.6-3.78,2.45-.21.14-.26.53-.38.8.3,0,.66.11.88,0,1.33-.81,2.63-1.66,3.92-2.53A4.26,4.26,0,0,0,16.59,40.43ZM27.83,16.82c-1.2,1.07-2.84,1.66-3.7,3.42a3.34,3.34,0,0,0,1-.12,17.15,17.15,0,0,0,3.71-3.36C28.4,16.78,28,16.67,27.83,16.82ZM43.12,11c-1,.77-2,1.56-3,2.38a7.9,7.9,0,0,0-.9,1.07c.44.07.68.19.78.12,1.49-1.16,3-2.34,4.55-3.61A1,1,0,0,0,43.12,11ZM35.51,41.49c.81-.63,1.61-1.28,2.41-1.92.12-.09.28-.18.31-.3a5.39,5.39,0,0,0,.12-.79c-.27,0-.63-.13-.78,0-1.12.93-2.2,1.91-3.34,2.91C34.81,42.08,35.17,41.76,35.51,41.49ZM47.56,18c-1.09.85-2.16,1.75-3.44,2.81.55.19.73.31.8.27,1.12-.77,2.24-1.55,3.33-2.36.1-.07.07-.51,0-.63A.65.65,0,0,0,47.56,18ZM24.22,32c-.22,0-.5-.11-.65,0-1,.66-2,1.35-3,2.07a.63.63,0,0,0,0,.61.66.66,0,0,0,.62.13c1.07-.8,2.11-1.64,3.16-2.47Zm6.72,6.39c-1.3.16-2.11,1.23-3.13,1.91-.16.11-.14.48-.21.73.3,0,.67.09.89,0,.73-.47,1.43-1,2.11-1.55a3.92,3.92,0,0,0,.59-.74ZM16.36,7.25c1.17-.59,2.35-1.19,3.49-1.84.13-.08,0-.54.06-.91a8.88,8.88,0,0,0-4,2.56C16.11,7.16,16.28,7.29,16.36,7.25ZM10.29,37.42c-.43-.26-.69-.51-.8-.46a5.25,5.25,0,0,0-2.84,2.38C8.16,39.38,9,38.14,10.29,37.42ZM27.67,13.05a.78.78,0,0,0-1.11-.4A1,1,0,0,0,26.14,14c.21.37.49.61.83.45C27.62,14.11,27.89,13.48,27.67,13.05ZM8.85,20.52A.69.69,0,0,0,10,20.7c.25-.29.25-.81.43-1.51A5.49,5.49,0,0,0,9,19.28C8.51,19.45,8.49,20,8.85,20.52Zm3-9.48a1.18,1.18,0,0,0,.21-1c-.28-.54-.78-.44-1.43,0L11,11.36C11.33,11.26,11.74,11.24,11.88,11Zm34,3.53c-1.13-.43-1.6-.34-1.64.25s.34,1,1.14,1ZM34.49,5.82c.1-.55-.3-.85-1.39-1-.29.72-.41,1.37.42,1.64A.73.73,0,0,0,34.49,5.82ZM15.37,29.9a.88.88,0,0,0-.84-.17,6.79,6.79,0,0,0-.85,1.41c.69,0,1.09.15,1.36,0A.85.85,0,0,0,15.37,29.9ZM43,26c-.24.09-.56.71-.47.84.2.29.63.42,1.19.73.11-.59.33-1,.2-1.22A1,1,0,0,0,43,26Zm-8.3,9.49a.57.57,0,0,0-.23-.47,1.47,1.47,0,0,0-.94.09c-.26.19-.36.59-.62,1a3.4,3.4,0,0,0,1.2,0A1.42,1.42,0,0,0,34.72,35.51ZM39.21,8.58c.4-.28.62-.71.27-1.09S38.8,7.23,38.14,7a4.58,4.58,0,0,0,.13,1.28A.59.59,0,0,0,39.21,8.58Zm-21,12.59c.26.47.77.36,1.08,0a5.28,5.28,0,0,0,.53-1.26c-.68.14-1.11.11-1.32.31A1.09,1.09,0,0,0,18.22,21.17Zm-5.85,3c.18.14.67.19.75.07a4.69,4.69,0,0,0,.5-1.21c-.5,0-.79-.17-1-.08A.79.79,0,0,0,12.37,24.2ZM33.12,46.62a1,1,0,0,0-1,1.34,1.09,1.09,0,0,0,1.36-1C33.5,46.88,33.23,46.61,33.12,46.62ZM7.17,28.12a7.22,7.22,0,0,0,1,.4c.15,0,.34-.11.56-.18a2.56,2.56,0,0,0-.15-.58.59.59,0,0,0-.94-.29C7.4,27.6,7.31,27.9,7.17,28.12ZM42.79,39a.65.65,0,0,0,.05.63c.57.51.92,0,1.46-.47C43.7,38.67,43.25,38.51,42.79,39ZM23.58,23.22a3.34,3.34,0,0,0-.37.81l.74.26.24-1C24,23.27,23.65,23.13,23.58,23.22Z"/></g></g></svg>