<svg xmlns="http://www.w3.org/2000/svg" viewBox="0 0 55.27 73.14"><defs><style>.cls-1{fill:#1d1d1b;}</style></defs><title>Asset 423</title><g id="Layer_2" data-name="Layer 2"><g id="Layer_1-2" data-name="Layer 1"><path class="cls-1" d="M38.16,58.17a.7.7,0,0,0-.52.22c-2.13,2.29-3.92,2.36-5.11,1.78a3.28,3.28,0,0,1-1.68-2.1,14.05,14.05,0,0,1,.85-8.55c3-7.6,5.86-13.86,2-19.19s-13-5-15,1.73c-1,3.58.15,5.66,1.64,8.61A6.53,6.53,0,0,0,18,40.25a6.82,6.82,0,1,0,6.32,4.23c-1.23-4.81-4.56-8.64-2.39-12,3.35-5.25,10.52-1.35,10.52,5,0,7.32-4.46,13.07-4.46,19.21,0,5.91,3.92,6.46,5.55,6.46,4.65,0,5.5-3.62,5.5-3.62A1.13,1.13,0,0,0,38.16,58.17ZM18,51.65a4.57,4.57,0,1,1,4.34-6,2.5,2.5,0,0,1,.07.26s0,0,0,0a4,4,0,0,1,.15,1.11A4.57,4.57,0,0,1,18,51.65Z"/><path class="cls-1" d="M27.64,73.14A27.64,27.64,0,1,1,47.18,65,27.47,27.47,0,0,1,27.64,73.14Zm0-53.37a25.74,25.74,0,1,0,18.19,7.54A25.57,25.57,0,0,0,27.64,19.77Z"/><path class="cls-1" d="M22.74,9.39h.16c0,1-.08,1.71-.08,2.59-1.38-.05-2.79-.05-4.54-.05-.92,0-2.25,0-2.61,0V11.8c.77-.13.89-.43.89-1.9V2.07c0-1.58-.15-1.79-.82-1.91V0c.36,0,1.06,0,1.65,0s1.33,0,1.69,0V.16c-.69.12-.82.33-.82,1.91v9.24a12,12,0,0,0,1.58.08C21.85,11.39,22.41,11.18,22.74,9.39Zm7.62,1,.11.15a3.44,3.44,0,0,1-3,1.56,3.83,3.83,0,0,1-3.88-4,3.8,3.8,0,0,1,3.72-4,3,3,0,0,1,3.1,3.09H25.31a3.24,3.24,0,0,0,0,.41c0,2.31,1.25,3.73,3,3.73A2.86,2.86,0,0,0,30.36,10.39Zm-5-3.67h3.41c0-1.56-.61-2.33-1.49-2.33C26.24,4.39,25.55,5.42,25.36,6.72ZM39.6,8.06a3.91,3.91,0,0,1-4.07,4,3.83,3.83,0,0,1-4-3.92,4,4,0,0,1,8.08,0Zm-1.82,0c0-2.23-.46-3.72-2.21-3.72S33.34,6.11,33.34,8.1s.39,3.6,2.19,3.6S37.78,10.08,37.78,8.11Z"/></g></g></svg>