<svg xmlns="http://www.w3.org/2000/svg" viewBox="0 0 73.37 38.2"><defs><style>.cls-1{fill:#1d1d1b;}</style></defs><title>Asset 402</title><g id="Layer_2" data-name="Layer 2"><g id="Layer_1-2" data-name="Layer 1"><path class="cls-1" d="M10.09,10.88a.41.41,0,0,1,0-.81L42.2,9a.4.4,0,0,1,.42.39.4.4,0,0,1-.39.42L10.1,10.88Zm44.66,5.34a.41.41,0,0,0,0-.58l-5.66-5.19a.41.41,0,0,0-.55.6l5.66,5.19a.41.41,0,0,0,.58,0ZM64.43,25a.41.41,0,0,0,0-.58l-5.78-5a.41.41,0,0,0-.58,0,.42.42,0,0,0,0,.58l5.78,4.95a.39.39,0,0,0,.26.1A.41.41,0,0,0,64.43,25ZM67,26.55c-.87.21-.41-1.53-1.58-.9.28.63.55,1.22.89,2-.92,0-1.73,0-2.55,0s-1.55-.53-2.36-.08c.16.6.59.56,1,.56h3.55c.25,0,.5,0,.84.07-.63.95-1.83,1.28-2,2.63,1.06-.23,1.35-1.36,2.33-1.54,0,.5,0,.93,0,1.35s-.08,1,0,1.53c0,.74.19,1.47.23,2.2,0,1,0,2.06.07,3.08a3.29,3.29,0,0,0,.23.78l.33,0A6.51,6.51,0,0,0,68,37.1c-.05-2.12-.13-4.25-.19-6.37,0-.47,0-.94.43-1.27.72.51,1,1.49,1.8,1.81.48-.32.34-.65.1-.94s-.6-.62-.9-.94-.82-.63-.75-1.35a3.58,3.58,0,0,1,1-.15,26.67,26.67,0,0,1,2.79.48c.48.11.83.15,1.07-.53a32.71,32.71,0,0,0-4.59-.55l1.41-2.18c-1.22-.06-1.15,1.15-2,1.41l.16-1.78-1,.93c0-2,0-3.71,0-5.43,0-.37.24-.78-.54-1A47.32,47.32,0,0,0,67,26.55ZM5.6,7.36c-.86.21-.4-1.53-1.58-.9l.89,2c-.91,0-1.73,0-2.54,0S.81,7.89,0,8.35c.17.6.59.56,1,.56H4.52c.25,0,.5,0,.85.06-.63.95-1.83,1.29-2.05,2.63,1.06-.23,1.36-1.36,2.33-1.53,0,.5,0,.92,0,1.35s-.08,1-.05,1.52c.05.74.19,1.47.23,2.21,0,1,0,2,.07,3.08a2.92,2.92,0,0,0,.24.78l.33,0a8,8,0,0,0,.12-1.07c0-2.13-.12-4.25-.19-6.38,0-.46-.05-.93.43-1.26.73.51,1,1.48,1.8,1.8.48-.32.34-.64.1-.93s-.6-.62-.89-.94S7,9.57,7.08,8.85a3.64,3.64,0,0,1,1-.15,26.2,26.2,0,0,1,2.79.47c.49.12.83.16,1.08-.52a32.85,32.85,0,0,0-4.6-.55L8.78,5.91c-1.22,0-1.16,1.15-2,1.41L7,5.55,6,6.47c0-2,0-3.7,0-5.42,0-.37.25-.78-.54-1A47.36,47.36,0,0,0,5.6,7.36Zm37.21,0c.21.08.41.18.62.25a15.16,15.16,0,0,1,1.49.47c1.09.5.87.33.83,1.42,0,.52,0,1,0,1.66,0,.4.3-.15.33-.21.13-.33.26-.65.36-1,.16-.61.35-1.14,1.1-1.31a10.83,10.83,0,0,0,2-.49c.48-.16-.69-.51-.87-.58s-.62-.24-.93-.34a1.5,1.5,0,0,1-1.07-1.52c0-.56.06-1.13.1-1.69,0-.21.08-.43-.27-.51,0,.14-.11.26-.14.38-.16.69-.35,1.38-.44,2.08s-.56.94-1.15,1a6.12,6.12,0,0,1-.86,0l-1.1.09C42.69,7.2,42.52,7.27,42.81,7.41ZM60.93,18.08c-.15-.16-.3-.33-.46-.48a13.12,13.12,0,0,1-1.19-1c-.8-.89-.67-.64-.2-1.63.23-.47.4-1,.63-1.54.12-.38-.34,0-.39.07a8.62,8.62,0,0,0-.72.76c-.4.5-.78.91-1.53.76a11.52,11.52,0,0,0-2-.35c-.5,0,.43.74.56.88s.48.47.72.69A1.47,1.47,0,0,1,56.69,18c-.22.52-.5,1-.77,1.52-.09.18-.24.36.06.57a2.38,2.38,0,0,0,.27-.29c.42-.58.87-1.13,1.23-1.74A1.15,1.15,0,0,1,59,17.6a7.71,7.71,0,0,1,.8.3l1,.36C61,18.31,61.14,18.31,60.93,18.08Z"/><path class="cls-1" d="M22.42,30.86l-2.17-6.8H20l-2.19,5.73c-.69,1.82-.91,2.17-1.55,2.36v.11l.8,0,1.08,0v-.11a.5.5,0,0,1-.46-.55,5.07,5.07,0,0,1,.44-1.54l.23-.62h2.38l.37,1.15a4.88,4.88,0,0,1,.29,1.14c0,.23-.12.38-.47.42v.11l1.22,0,1.08,0v-.11C22.85,32.05,22.71,31.79,22.42,30.86ZM19.5,29h-1l1.13-3,1,3Zm7.86-.86h-1c0-.45-.18-.6-.44-.6a.9.9,0,0,0-.67.38v3.19c0,.88.14.93.47,1v.11l-1,0-1,0v-.11c.33-.07.47-.12.47-1v-3c0-.54,0-.7-.34-.79v-.11a3.58,3.58,0,0,0,1.38-.3v.7A1.91,1.91,0,0,1,26.5,27C27.05,27,27.36,27.32,27.36,28.18Zm1-2.37a.53.53,0,0,1,.52-.56.54.54,0,0,1,.56.56.53.53,0,0,1-.56.52A.52.52,0,0,1,28.38,25.81Zm1.48,6.34v.11l-1,0-1,0v-.11c.33-.07.47-.12.47-1v-3c0-.53,0-.7-.34-.79v-.11A3.54,3.54,0,0,0,29.39,27v4.17C29.39,32,29.53,32.08,29.86,32.15Zm3.79-.34c-1.18,0-2-1-2-2.51,0-.18,0-.28,0-.28H35.1A2,2,0,0,0,33,27a2.7,2.7,0,0,0,.11,5.4,2.34,2.34,0,0,0,2-1.05L35,31.2A1.91,1.91,0,0,1,33.65,31.81ZM33,27.17c.59,0,1,.52,1,1.56H31.68C31.81,27.86,32.28,27.17,33,27.17Zm6.32,3.56a1.65,1.65,0,0,1-1.82,1.6,9.52,9.52,0,0,1-1.5-.24c.06-.36,0-1.09.13-1.53h.11c0,.8.34,1.55,1.19,1.55a.85.85,0,0,0,.92-.91c0-1.47-2.38-1.11-2.38-2.77,0-1,.79-1.48,1.77-1.48.45,0,.89.11,1.36.15a2.15,2.15,0,0,0,0,.41c0,.19,0,.46,0,.82H39a1.29,1.29,0,0,0-1.23-1.16.8.8,0,0,0-.88.82C36.84,29.26,39.29,29,39.29,30.73Z"/></g></g></svg>