<svg xmlns="http://www.w3.org/2000/svg" viewBox="0 0 86.01 87.78"><title>Asset 494</title><g id="Layer_2" data-name="Layer 2"><g id="Layer_1-2" data-name="Layer 1"><path d="M81.65,29.09a16.27,16.27,0,0,0-3.85-3,7.66,7.66,0,0,0-1.41-.6A15.76,15.76,0,0,0,71.81,25a6.91,6.91,0,0,0-3.3.77,18.93,18.93,0,0,1-1.77.82A13.5,13.5,0,0,0,63,28.69c-.43.34-.92.62-1.45,1a1.82,1.82,0,0,1,0-.44,33.18,33.18,0,0,0,.64-5.06,3.1,3.1,0,0,1,.39-1.31A9.9,9.9,0,0,1,64.88,20a24.28,24.28,0,0,1,3.94-2.73,11.64,11.64,0,0,0,3.53-2.83,7.58,7.58,0,0,0,2-4.86c0-.45.08-.91.1-1.37a4.69,4.69,0,0,0,0-.62l-.17.07A4,4,0,0,0,74,8a12.12,12.12,0,0,1-4.17,4.13,45.43,45.43,0,0,1-7.21,3.36,21.62,21.62,0,0,0-5.72,2.87c-.05,0-.14,0-.16,0V15.81c0-1.13,0-2.27,0-3.41,0-.94.12-1.88.19-2.82L57,9.09a12.61,12.61,0,0,1,1-3.33c.15-.33.43-.7.14-1.12-.36.3-.71.56-1,.86a12.34,12.34,0,0,1-1,1c-.79.61-1.65,1.13-2.46,1.73A24.78,24.78,0,0,0,51,10.37a13.21,13.21,0,0,0-3.64,7.21c-.19,1-.21,2-.32,3.09-.07-.3-.14-.55-.19-.81-.27-1.27-.56-2.54-.81-3.82-.56-2.81-1.09-5.63-1.64-8.45C44,5.28,43.52,3,43.05.67A2.66,2.66,0,0,0,42.67,0a3.22,3.22,0,0,0-.38.57c-.13.44-.23.89-.32,1.34-.49,2.25-1,4.49-1.43,6.76s-.73,4.71-1,7.07c-.21,1.64-.34,3.28-.52,4.93-.07.68-.19,1.36-.29,2-.73-1.18-1.39-2.33-2.12-3.43a6.74,6.74,0,0,1-1.09-4,14.28,14.28,0,0,1,.83-4.38,11.35,11.35,0,0,0,.79-5.5,4.43,4.43,0,0,0-1-2.46A6.28,6.28,0,0,0,34,1.58c-.12-.06-.29,0-.58,0a3.4,3.4,0,0,1,.71,3.21,15.07,15.07,0,0,1-.43,1.73,18.18,18.18,0,0,1-2.37,4.15c-.76,1.18-1.5,2.38-2.19,3.6a7.07,7.07,0,0,0-1.06,4.43,13,13,0,0,0,1.79,5.69,10.12,10.12,0,0,1,.64,1.32,1,1,0,0,1-.22,0c-1.53-.75-3.06-1.5-4.59-2.27a6.17,6.17,0,0,1-2.43-1.86,10,10,0,0,1-1.76-4.15,12.64,12.64,0,0,0-1.86-5.24,7.82,7.82,0,0,0-3.46-3.08l-1.89-.77c-.06.15-.12.35-.18.51a11.11,11.11,0,0,1,.93.83,9.77,9.77,0,0,1,2.28,4.95,29.6,29.6,0,0,1,.4,7,15.55,15.55,0,0,0,.89,5.5,8.53,8.53,0,0,0,.86,1.74c.29.52.64,1,1,1.57a12.85,12.85,0,0,0-1.53,0A7.52,7.52,0,0,1,15.87,30a10.87,10.87,0,0,1-4.75-3.17C10.22,25.93,9.34,25,8.44,24a9,9,0,0,0-5-2.67,1.26,1.26,0,0,0-1.11.22,10,10,0,0,1,1.39,1.36c.86,1.28,1.65,2.61,2.42,3.95.44.78.76,1.62,1.15,2.42a38.64,38.64,0,0,0,2.3,4.48,18.61,18.61,0,0,0,3.82,4.29,7.76,7.76,0,0,0,2.74,1.55c.55.15,1.08.34,1.76.56-3.1.75-6,1.5-9,2.16S3,43.58,0,44.19c-.09.53.1.79.55.89l1.35.3c2.4.53,4.79,1.1,7.2,1.6,1.35.28,2.72.45,4.08.68l5.36.94c.49.09,1,.15,1.58.24a16.21,16.21,0,0,0-4.31,4.09c-.6.79-1.14,1.65-1.8,2.4-1.71,1.91-3.91,2.18-6.26,1.62-1.19-.28-2.33-.73-3.52-1A11.2,11.2,0,0,0,2,55.8a.74.74,0,0,0-.81.57,1.17,1.17,0,0,0,.3.12,6.79,6.79,0,0,1,3.16,1.42,37.7,37.7,0,0,0,4,2.56,15.48,15.48,0,0,0,5,1.8,7,7,0,0,0,3.9-.48,14,14,0,0,0,4.77-3.16s.09,0,.2-.06a8.75,8.75,0,0,0-.13,3.49c.08.78.1,1.56.14,2.35a5,5,0,0,1-3.05,5.1,34,34,0,0,1-4.64,1.73,23.31,23.31,0,0,0-4.85,2.05,1.62,1.62,0,0,0-.94,1.27c.36-.1.63-.16.9-.26s.65-.28,1-.38A23.54,23.54,0,0,1,17.17,73a29.8,29.8,0,0,0,5.58-.44,9.79,9.79,0,0,0,3.73-1.51,7.77,7.77,0,0,0,3-3.53,5.7,5.7,0,0,1,.33-.58.81.81,0,0,1,.1.54,5.77,5.77,0,0,0,.15,2.41c.17.79.23,1.61.4,2.4a4.45,4.45,0,0,1-.7,3.18c-.48.87-1,1.74-1.48,2.61a10.29,10.29,0,0,0-1.16,4.44c0,.31,0,.65.41.75.09-.41.17-.8.28-1.18a5.36,5.36,0,0,1,1.73-2.41,26.81,26.81,0,0,1,4.63-3.29,10.68,10.68,0,0,0,4.56-5.13,12.27,12.27,0,0,0,.45-1.4,171.37,171.37,0,0,1,3.69,17.87c.7,0,.73,0,.83-.49.15-.85.25-1.71.39-2.57.5-3.18,1-6.37,1.51-9.55.23-1.39.56-2.76.8-4.15.26-1.55.46-3.1.69-4.66.06-.37.15-.74.26-1.27A11.8,11.8,0,0,0,50.07,69c.92.88,1.89,1.71,2.85,2.55a4.86,4.86,0,0,1,1.64,3.74,6.91,6.91,0,0,1-.47,2.55c-.47,1.27-1,2.53-1.51,3.77a5.51,5.51,0,0,0-.18,3.58c.08.34.13.76.55.93.08-.08.17-.12.19-.19a8.69,8.69,0,0,1,1.49-2.86,30.46,30.46,0,0,1,2-2.88,16,16,0,0,0,2.8-4.73,12.23,12.23,0,0,0,.45-6.17,8.93,8.93,0,0,0-2-4.15c-.23-.29-.45-.6-.77-1,.4.1.63.15.86.22a12.8,12.8,0,0,0,3.69.52,5.58,5.58,0,0,1,3,.72,5,5,0,0,1,2.06,2A17.53,17.53,0,0,1,68.07,72a13.67,13.67,0,0,0,1.5,4.27,5.22,5.22,0,0,0,2.56,2.45,1.17,1.17,0,0,0-.06-.42,6.38,6.38,0,0,1-.65-3.24c0-1.43-.08-2.87,0-4.31a23,23,0,0,0-.1-4.62,9.46,9.46,0,0,0-2.14-4.83,12.81,12.81,0,0,0-2.55-2.15c-.72-.46-1.41-1-2.19-1.5a3.21,3.21,0,0,1,.44-.19c1-.27,2.09-.55,3.15-.81a5,5,0,0,1,3.49.27,10.25,10.25,0,0,1,1.48,1,21,21,0,0,0,3.56,2.4,9.38,9.38,0,0,0,4.93.68c.09,0,.17-.09.33-.18a4.05,4.05,0,0,0-.45-.29A6,6,0,0,1,79.21,59a25.51,25.51,0,0,1-3-4.79,13.28,13.28,0,0,0-2.78-3.68,12.27,12.27,0,0,0-3.67-2.38c-.41-.17-.84-.3-1.44-.51L70.91,47a37.33,37.33,0,0,1,7-1.23,17.94,17.94,0,0,0,2.82-.34c1.32-.28,2.62-.68,3.93-1a1.43,1.43,0,0,0,.44-.19.43.43,0,0,0-.11-.72,2.35,2.35,0,0,0-.4-.09c-1.76-.32-3.52-.62-5.27-1-4.2-.84-8.37-1.79-12.63-2.25-1.19-.13-2.37-.41-3.55-.61A1.45,1.45,0,0,1,63.8,39a10.84,10.84,0,0,0,2.68-1.82,14.85,14.85,0,0,0,3.14-3.91,7,7,0,0,1,2.51-2.62,6.82,6.82,0,0,1,6.07-.58c1.59.6,3.14,1.31,4.7,2a7,7,0,0,0,2.41.65c.33,0,.57,0,.7-.39A16.22,16.22,0,0,1,81.65,29.09Zm-17.31-.8c.87-.54,1.81-1,2.73-1.42.43-.21.89-.4,1.33-.6a7.94,7.94,0,0,1,4.34-.79l2.58.31a7.72,7.72,0,0,1,3,1.27A11.07,11.07,0,0,1,81.59,30c-.78-.31-3.51-1.39-4.08-1.6a7.83,7.83,0,0,0-6.54.37c-1.54.79-3,1.74-4.47,2.64a3.06,3.06,0,0,0-.6.54,31.29,31.29,0,0,1-5.4,4.45L59.25,33.8c.58-1,1.12-2,1.67-2.95a1.53,1.53,0,0,1,.42-.46C62.33,29.67,63.3,28.93,64.34,28.29Zm9.37-17a8.73,8.73,0,0,1-2.91,4.13,32.49,32.49,0,0,1-3.24,2.15,17.17,17.17,0,0,0-4.45,3.74,6.54,6.54,0,0,0-1.47,3.95,13.71,13.71,0,0,1-2.1,7.24c-.14.22-.29.44-.48.71L56.58,29.9c.86-1.59,1.1-3.44,1.93-5.1a12.7,12.7,0,0,1,3.94-5.05c1.37-1,2.8-1.85,4.16-2.82A46.44,46.44,0,0,0,70.48,14a13.68,13.68,0,0,0,3.28-4.21A2.29,2.29,0,0,1,73.71,11.32Zm-14,5.86c1.62-.74,3.27-1.43,4.94-2a37.81,37.81,0,0,0,5.87-2.93,11.34,11.34,0,0,0,1.45-1.16c.33-.27.64-.56,1-.8A32,32,0,0,1,70,13.75a2.42,2.42,0,0,1-.32.32,42,42,0,0,1-5,3.5A15.44,15.44,0,0,0,59.68,22a19.39,19.39,0,0,0-2.31,4.73c-.24.72-.5,1.43-.77,2.14-.09.25-.22.48-.37.79-.25-.27-.43-.47-.62-.66a4.39,4.39,0,0,0-.94-.89,1.58,1.58,0,0,1-.86-1.8,14.58,14.58,0,0,1,.72-3.41,11.84,11.84,0,0,1,.75-2A9,9,0,0,1,59.67,17.18Zm-6.34,9.88-1.94-.75a.65.65,0,0,1-.49-.58,19.06,19.06,0,0,1,.78-7.94,31.05,31.05,0,0,1,2.81-5.73c.67-1.11,1.26-2.27,1.89-3.4,0-.06.11-.09.23-.19-.06.84-.12,1.61-.15,2.38-.07,1.51-.12,3-.16,4.54,0,.7,0,1.41,0,2.11a5.72,5.72,0,0,1-1.16,2.9,5.15,5.15,0,0,0-.55,1.07A17.92,17.92,0,0,0,53.33,27.06ZM48.2,15.84a11.24,11.24,0,0,1,3.25-5.35c1.06-.91,2.26-1.66,3.4-2.49a11.18,11.18,0,0,1,1.86-1.15c-.18.41-.9,2-1,2.15-1.09,2-2.21,4-3.27,6a16.67,16.67,0,0,0-1.9,6.57,20.23,20.23,0,0,0,0,3.65,4.72,4.72,0,0,1-.05.73L48,25.39a6,6,0,0,1-.37-2.16,4.53,4.53,0,0,0,0-1.22A13.17,13.17,0,0,1,48.2,15.84Zm-1.75,4c.34,1.86.67,3.59,1,5.43h-.71a3.29,3.29,0,0,1-.37-.1A17.59,17.59,0,0,1,46.45,19.87Zm-1.18-5.32a12.17,12.17,0,0,1,.6,3.47c0,2.14,0,4.28,0,6.42,0,.21,0,.43-.05.71h-.53A79.68,79.68,0,0,1,45.27,14.55ZM43.88,7.1c.09.42.19.85.28,1.28.21,1,.42,2.07.61,3.11a3.49,3.49,0,0,1,0,.65l-.09,8.37c0,1.3,0,2.61,0,3.91a5.52,5.52,0,0,1-.09.68l-.17,0a1.4,1.4,0,0,1-.18-.42c-.08-1.05-.18-2.1-.2-3.16-.06-2.24-.08-4.49-.11-6.74,0-1.27,0-2.55-.05-3.82S43.88,8.4,43.88,7.1ZM42.76,2.42A3.56,3.56,0,0,1,42.81,2a10.71,10.71,0,0,1,.67,4.17c0,2.46,0,4.91,0,7.37,0,2.25.08,4.49.12,6.74,0,1.38.06,2.76.08,4.13a4.68,4.68,0,0,1,0,.64c-.65.1-.53-.39-.54-.68,0-.64,0-1.29,0-1.94,0-2.22-.16-4.44-.12-6.66.06-2.46,0-4.92-.2-7.38-.09-1.23,0-2.48,0-3.73C42.77,3.88,42.76,3.15,42.76,2.42Zm-.91,3.05a7.81,7.81,0,0,1,.37-2.79,11.46,11.46,0,0,1,.13,3.25c.06,1.65.17,3.29.22,5s0,3.09,0,4.63c0,2.66.09,5.31.12,8,0,.48-.06.95-.1,1.48l-.71,0a1.05,1.05,0,0,1-.09-.27c-.06-2.95-.18-5.9-.16-8.86C41.67,12.35,41.83,8.91,41.85,5.47Zm-.94,3.16c.17-.7.29-1.42.44-2.13-.13,6.13-.21,12.24.07,18.38l-.67.17a.81.81,0,0,1-.09-.24c-.06-1.67-.11-3.35-.15-5l-.15-5.44A22.41,22.41,0,0,1,40.91,8.63Zm-1.5,11.68c.16-1.61.3-3.22.45-4.82H40a8.25,8.25,0,0,1,.13,1.1c0,2.68,0,5.36.05,8.05,0,.13,0,.26,0,.49l-1.3.12A36.09,36.09,0,0,1,39.41,20.31ZM36.47,4.44a9.15,9.15,0,0,1-.12,5.21c-.38,1.27-.8,2.54-1.08,3.83A7.91,7.91,0,0,0,36.47,20,26.06,26.06,0,0,1,38,22.67a3,3,0,0,1,.24,2.59l-3.11.87c-.26-.64-.58-1.27-.78-1.94-.44-1.5-.86-3-1.2-4.54a10.12,10.12,0,0,1,0-4.28c.27-1.29.55-2.59.92-3.86.31-1.09.78-2.14,1.14-3.21a7.44,7.44,0,0,0,.2-5,1.2,1.2,0,0,1,0-.27A2.25,2.25,0,0,1,36.47,4.44Zm-7.4,17.11c-.54-2.15-.91-4.32.15-6.42.59-1.16,1.27-2.27,2-3.37s1.47-2.14,2.14-3.25a8.86,8.86,0,0,0,1.33-5.19,2.88,2.88,0,0,1,0-.41c.8.54.69,3.49.54,4-.42,1.37-.89,2.73-1.36,4.09a18.36,18.36,0,0,0-1.29,7.3,14.18,14.18,0,0,0,.82,4c.44,1.16.78,2.36,1.16,3.55.05.15.07.31.12.53l-2.31,1.19a5.49,5.49,0,0,1-1.27-1.71A22.32,22.32,0,0,1,29.07,21.55ZM16,9.71l.12-.15a7.76,7.76,0,0,1,1,.54,8.91,8.91,0,0,1,3.41,4.8,12.9,12.9,0,0,1,.35,1.75,12.48,12.48,0,0,0,1.7,4.7A7.08,7.08,0,0,0,25.86,24c1.22.59,2.44,1.18,3.65,1.79a7,7,0,0,1,2.37,1.91L29,30.06a24.47,24.47,0,0,1-4.31-2.68,18.62,18.62,0,0,1-2.59-3c-1.43-1.91-1.88-4.16-2.43-6.39-.16-.63-.31-1.27-.52-1.88-.51-1.42-1-2.85-1.62-4.24a9.33,9.33,0,0,0-1.1-1.58C16.28,10.09,16.15,9.9,16,9.71ZM19,26.91A15.62,15.62,0,0,1,18.1,23a21.19,21.19,0,0,1,0-2.52,26.87,26.87,0,0,0-.3-5.74c-.12-.79-.38-1.56-.48-2.38.13.3.29.59.39.9.46,1.35.93,2.7,1.35,4.07.27.88.49,1.77.69,2.66a13.85,13.85,0,0,0,2.49,5.41,15.36,15.36,0,0,0,4.53,4.12c.55.33,1.16.57,1.81.89l-2,2.27c-.67-.16-1.37-.28-2-.5a12.09,12.09,0,0,1-1.68-.77,10.21,10.21,0,0,1-1.44-.9A7,7,0,0,1,19,26.91ZM3.92,22A7.59,7.59,0,0,1,5,22.24a9.84,9.84,0,0,1,3.73,2.54c.78.86,1.55,1.74,2.36,2.58a10.61,10.61,0,0,0,6.68,3.54,12.88,12.88,0,0,0,1.86,0,4,4,0,0,1,2.83.8,4.74,4.74,0,0,0,2.45,1,8.39,8.39,0,0,1,1.37.38L24.56,36c-1.59-.3-3.2-.55-4.77-.92a19.1,19.1,0,0,1-4.45-1.93c-.29-.15-.55-.35-.85-.47a12.36,12.36,0,0,1-3.89-3,26,26,0,0,1-1.67-2.2c-.75-1-1.46-2-2.27-3a12.4,12.4,0,0,0-1.59-1.38c-.4-.34-.82-.66-1.23-1ZM17.75,39.64a8.79,8.79,0,0,1-3.23-1.28,15.7,15.7,0,0,1-4.8-5.23c-1-1.75-1.82-3.57-2.68-5.37a22.82,22.82,0,0,0-2-3.69,3.36,3.36,0,0,1-.22-.42A2.43,2.43,0,0,1,6.29,24.7c1.12,1.5,2.2,3,3.33,4.52a11.48,11.48,0,0,0,3.43,3.08c1.66,1,3.39,1.81,5.1,2.7a7.81,7.81,0,0,0,2.48.73c1.26.19,2.5.43,3.78.65-.28.88-.53,1.73-.83,2.56a.71.71,0,0,1-.49.34,27.26,27.26,0,0,1-3,.49A8.62,8.62,0,0,1,17.75,39.64Zm5.6,9.09-2.28-.29v-.12l2.17-.25C23.29,48.3,23.31,48.47,23.35,48.73Zm-.46-8.34a9,9,0,0,1-2.59-.06,6.61,6.61,0,0,1,3-.56C23.41,40.14,23.27,40.36,22.89,40.39Zm.21.5,0,.17c-.1.06-.2.16-.3.16-2,0-3.95,0-5.93,0a1.67,1.67,0,0,1-.44-.11C18.69,40.52,20.9,41,23.1,40.89Zm-11,1a19.67,19.67,0,0,1,5.73-.3c1.24.06,2.49,0,3.73.09a4.08,4.08,0,0,1,1.48.14c-.93.4-7.36.56-11.52.33A4.7,4.7,0,0,1,12.13,41.9Zm-1.55.63H22.27c.25,0,.52-.08.8.21-.17.08-.26.17-.37.18-.8.08-1.61.19-2.42.22-1.6,0-3.19.07-4.79.09-.72,0-1.45,0-2.18,0-1.75,0-3.51.07-5.26.1a2.35,2.35,0,0,1-.37,0v-.18A10.12,10.12,0,0,1,10.58,42.53ZM1.72,44.15a27.68,27.68,0,0,1,3.1-.48c1.59-.07,3.2,0,4.79,0q6,0,12-.13a5.51,5.51,0,0,0,.89-.1c.24,0,.53-.1.56.25s-.24.31-.46.31l-1.94.08c-1.27,0-2.55.09-3.82.12-1.87,0-3.74.08-5.61.1-2.95,0-5.91,0-8.86.05a5.65,5.65,0,0,1-.59,0Zm.1.86,0-.18c.81,0,1.62-.1,2.44-.11,2.19,0,4.39-.07,6.58,0,3.88.11,7.74-.27,11.62-.21a3.82,3.82,0,0,1,.43,0c.05.53-.26.48-.53.48l-5,.12L11,45.33a70.29,70.29,0,0,1-7.95-.08A8.76,8.76,0,0,1,1.82,45Zm3.68.81a.87.87,0,0,1,.22,0c2.71,0,5.41,0,8.12,0,2.05,0,4.11-.14,6.16-.21.81,0,1.63,0,2.44,0,.22,0,.45,0,.39.42l-.68.08c-1.6.08-3.19.18-4.79.24-1.11,0-2.22,0-3.32,0a29.47,29.47,0,0,0-4.21.16C8.29,46.68,6.93,46.1,5.5,45.82Zm5.3,1c4-.24,8.08-.14,12.11-.37l0,.27c-.59.07-1.18.16-1.77.21-1.35.11-2.69.22-4,.31-.62,0-1.25,0-1.86.06A11.81,11.81,0,0,1,10.8,46.81Zm5.21.94a41.37,41.37,0,0,1,7-.33C20.73,47.91,18.4,48.53,16,47.75ZM2.88,56.36l0-.24a8.6,8.6,0,0,1,1.15.16c1.17.33,2.33.7,3.51,1a6.35,6.35,0,0,0,6.73-1.62,17.56,17.56,0,0,0,1.49-1.92A20.13,20.13,0,0,1,19.32,50a4.11,4.11,0,0,1,4.29-.7c.23.65.48,1.33.71,2-1.15,1.22-2.28,2.39-3.38,3.57a13.62,13.62,0,0,0-1.11,1.3,5.49,5.49,0,0,1-2.46,1.82,13.59,13.59,0,0,1-6.94.85,10.82,10.82,0,0,1-2-.6C7.26,57.8,6.12,57.38,5,57,4.28,56.76,3.58,56.57,2.88,56.36Zm12.75,5.48A7.7,7.7,0,0,1,11,61c-1.38-.68-2.73-1.41-4.08-2.16A4.45,4.45,0,0,1,5.65,57.8c.41.11.82.21,1.22.35a16.75,16.75,0,0,0,4.07,1.08,15.82,15.82,0,0,0,5-.45,13.4,13.4,0,0,0,1.84-.65A6.84,6.84,0,0,0,20.36,56c1-1.23,2.14-2.37,3.23-3.53a6.29,6.29,0,0,1,.85-.64l1.19,2-.65.61a7.82,7.82,0,0,0-2,2.65,1.61,1.61,0,0,1-.23.43A11.69,11.69,0,0,1,15.63,61.84Zm-.35,10.78v-.05l.4,0v.08ZM12,72.91c-.1,0-.21,0-.49.09a9.15,9.15,0,0,1,2.33-1c1.74-.6,3.49-1.2,5.21-1.85a9.77,9.77,0,0,0,1.72-.91A4.85,4.85,0,0,0,23,65.48a22,22,0,0,0-.15-4.29,7.84,7.84,0,0,1,1.13-5,5.91,5.91,0,0,1,1.86-1.83c.73,1,1.45,1.9,2.1,2.86a1.51,1.51,0,0,1,.09.93c-.2,1.47-.4,2.95-.66,4.41a12.06,12.06,0,0,1-2,5.16,8.6,8.6,0,0,1-2.92,2.4,18.9,18.9,0,0,1-6.65,2A36.83,36.83,0,0,0,12,72.91Zm16.84-5a8.09,8.09,0,0,1-2.55,2.78A10.71,10.71,0,0,1,21,72.41c-1.42.15-2.86.14-4.29.2a1.55,1.55,0,0,1-.35-.07,31.54,31.54,0,0,0,4.79-1.42,11.72,11.72,0,0,0,3.76-2.38,9.28,9.28,0,0,0,2.31-4A26.2,26.2,0,0,0,28,60.31c.09-.8.29-1.59.46-2.47l2.67,2.25c-.07.52-.15,1.16-.23,1.8A17.65,17.65,0,0,1,28.88,67.92Zm-.45,10.9c.57-1.11,1.17-2.19,1.76-3.28A4.64,4.64,0,0,0,31,72.3c-.19-.93-.35-1.86-.46-2.8-.09-.69-.1-1.39-.14-2.09,0-.11,0-.22,0-.32a7,7,0,0,1,.39-2.75,22.11,22.11,0,0,0,.55-2.69c.09-.45.18-.89.27-1.38l3.18,1.39a15.08,15.08,0,0,1,.72,4.13,13.13,13.13,0,0,1-1.42,5.95,16.23,16.23,0,0,1-2.87,4A24.57,24.57,0,0,0,28,80.09,9.22,9.22,0,0,1,28.43,78.82Zm9.09-6a11.37,11.37,0,0,1-3.68,3.35c-1.47.9-2.82,2-4.22,3-.23.17-.44.36-.67.54a11.71,11.71,0,0,1,2.46-3.5A16.21,16.21,0,0,0,35.22,70a13.27,13.27,0,0,0,.32-7c-.07-.34-.15-.68-.24-1.13.8.24,1.51.43,2.21.68a.75.75,0,0,1,.36.48,43.73,43.73,0,0,1,1,5A7.28,7.28,0,0,1,37.52,72.8Zm2.24-2.3c-.5-2.54-1-5.07-1.51-7.71l1.22.2c.14,2.52.29,5,.43,7.51Zm1,4a4.32,4.32,0,0,1-.44-1.84c-.14-2.29-.28-4.58-.39-6.88,0-.86,0-1.72,0-2.62.44-.08.7,0,.72.38.11,2.24.28,4.48.33,6.72C41,71.62,40.85,73,40.77,74.5Zm1,4.24A6.7,6.7,0,0,1,41.15,76c.08-2.68.17-5.36.18-8,0-1.27-.19-2.54-.28-3.8,0-.27,0-.54,0-1,.27.16.44.21.5.31a1.47,1.47,0,0,1,.12.55c.05,1.71.23,3.4.13,5.11-.09,1.51,0,3,0,4.55C41.81,75.37,41.8,77.07,41.8,78.74Zm.49,2.59c0-1.92,0-3.84,0-5.77,0-2.65,0-5.31-.08-8,0-.78-.08-1.57-.1-2.35,0-.62,0-1.24,0-1.92.38-.15.56,0,.57.33,0,.6,0,1.19,0,1.79,0,1.79,0,3.57,0,5.36,0,2.19.12,4.39.2,6.58.09,2.51.19,5,.29,7.69A11,11,0,0,1,42.29,81.33Zm1.48,2.76a3.71,3.71,0,0,1-.23.73c-.21-7.23-.7-14.36-.44-21.68.25.2.42.28.43.37.06.54.08,1.08.1,1.62.09,2.54.2,5.08.25,7.63s0,5.41.12,8.11A24.53,24.53,0,0,1,43.77,84.09Zm.91-5.91a6.45,6.45,0,0,0-.16,1c-.1-.19-.19-.28-.19-.37-.13-5.16-.25-10.32-.37-15.54.52.08.49.41.49.69,0,1,0,2.06,0,3.09.11,2.24.26,4.48.4,6.72A12.45,12.45,0,0,1,44.68,78.18Zm.83-5a4.45,4.45,0,0,1-.2.73c-.09-.9-.22-1.8-.27-2.71-.1-1.62-.16-3.24-.23-4.86,0-.81,0-1.62,0-2.44,0-.39,0-.39.68-.49,0,1,.1,1.9.14,2.82.06,1.43.1,2.87.18,4.3A7.4,7.4,0,0,1,45.51,73.2Zm.71-3.89h-.11c-.09-2-.19-3.91-.29-5.94L47.29,63C46.92,65.18,46.57,67.25,46.22,69.31Zm-.67-6.44a11.41,11.41,0,0,1-2.18-.07c-1.11,0-2.22-.06-3.32-.16a17.05,17.05,0,0,1-4.76-1.29,37.58,37.58,0,0,1-3.55-1.58,13.06,13.06,0,0,1-4.38-4.05,21.28,21.28,0,0,1-2.06-3.39A24,24,0,0,1,24,48.84a14.9,14.9,0,0,1-.54-2.45,9.76,9.76,0,0,1,0-1.53c0-.57,0-1.14,0-1.7a17.27,17.27,0,0,1,1.3-6.23,17.73,17.73,0,0,1,5.88-7.62c.46-.31.81-.78,1.27-1.06a17.71,17.71,0,0,1,7.92-2.65,34.24,34.24,0,0,1,9.48.55,16.11,16.11,0,0,1,4.07,1.6c1.89,1,3.07,2.67,4.31,4.28a19,19,0,0,1,2.79,5.47c.33,1,.66,2,.89,2.94a19,19,0,0,1,.24,2.19c-.06,1.07,0,2-.17,2.92a22,22,0,0,1-.59,2.77A14.76,14.76,0,0,1,60,51c-.64,1.37-1.4,2.68-2.16,4a9.36,9.36,0,0,1-1,1.33.91.91,0,0,0-.34.59,1,1,0,0,1-.44.55c-1,.73-1.92,1.5-2.95,2.14s-2.4,1.34-3.62,2A12,12,0,0,1,45.55,62.87ZM62,47.71l2.64.07,0,.19-3.36.62C61.32,48,61.53,47.7,62,47.71ZM53.08,84.16c0,.22-.09.44-.13.66a3.44,3.44,0,0,1-.07-2.94c.22-.61.46-1.21.74-1.8a14.71,14.71,0,0,0,1.25-3.76,5.45,5.45,0,0,0-1.63-5.19c-.56-.54-1.18-1-1.79-1.52a13.76,13.76,0,0,1-3-3.46,3.79,3.79,0,0,1-.69-2.92.68.68,0,0,1,.53-.62A5.69,5.69,0,0,0,49.59,62a.77.77,0,0,1,1.2.17c1,1.1,1.91,2.2,2.83,3.34a15.5,15.5,0,0,1,2.68,5.24A10.44,10.44,0,0,1,56,77.7a28.46,28.46,0,0,1-2,4.24,10.81,10.81,0,0,0-.65,1.21A5.51,5.51,0,0,0,53.08,84.16Zm6.24-15.29a4.2,4.2,0,0,1,.17.7,12.07,12.07,0,0,1-1.29,7.71A17.15,17.15,0,0,1,57,79c-1,1.39-2.06,2.77-3.12,4.2a4.82,4.82,0,0,1,.37-1,21.18,21.18,0,0,0,2-4.15,11.07,11.07,0,0,0,.87-4.92,14.92,14.92,0,0,0-.44-2.15,17.79,17.79,0,0,0-3.78-7c-.69-.86-1.43-1.68-2.22-2.59l1.89-1c.54.56,1,1.11,1.58,1.64a7.75,7.75,0,0,0,.91.81A11.27,11.27,0,0,1,59.32,68.87ZM69.05,74c-.34-1.25-.63-2.52-1-3.77-.14-.55-.33-1.09-.48-1.64a6.06,6.06,0,0,0-6-4.27,12.88,12.88,0,0,1-4.92-.88,5.49,5.49,0,0,1-1.12-.66A12.42,12.42,0,0,1,53,60.2l2.75-1.88A20.08,20.08,0,0,1,61,59.6a14.89,14.89,0,0,1,5.3,3.51,11.26,11.26,0,0,1,3.14,6.44c.28,2,.68,3.94,1,5.92a11.69,11.69,0,0,1,.08,1.19A5.77,5.77,0,0,1,69.05,74ZM66.76,59.77a9,9,0,0,1,3.63,4.65A13.33,13.33,0,0,1,71,68.81c-.05,2.4,0,4.81-.11,7.22-.41-2.48-.73-5-1.25-7.43a11.09,11.09,0,0,0-3.54-6.17,16.85,16.85,0,0,0-8.19-4.07c-.51-.1-1-.26-1.49-.39,0,0,0,0-.07-.07l1.78-2.41a16.09,16.09,0,0,1,4.7,1.84C64.11,58.19,65.5,58.88,66.76,59.77Zm13.44.79a5.68,5.68,0,0,1-2.93-.4A14.21,14.21,0,0,1,73.67,58c-.24-.18-.48-.36-.7-.55a5.76,5.76,0,0,0-5.51-1.06L64.94,57a3.2,3.2,0,0,1-2.47-.39,23.69,23.69,0,0,0-3.32-1.27c-.23-.09-.46-.15-.76-.24L60,52.06l.55.12c1.62.41,3.23.88,4.87,1.22,1.24.25,2.52.3,3.77.53a11.81,11.81,0,0,1,6.39,3.27,20.72,20.72,0,0,0,3.14,2.55C79.14,60,79.6,60.23,80.2,60.56ZM69.36,48.44a19.72,19.72,0,0,1,2.41,1.35c2.09,1.27,3.28,3.28,4.37,5.39.67,1.29,1.52,2.48,2.4,3.89a7,7,0,0,1-.68-.46L75,56.17a11.77,11.77,0,0,0-5.53-2.59c-1.46-.29-3-.4-4.42-.67-1.25-.24-2.48-.59-3.72-.91a11.73,11.73,0,0,1-1.11-.4l.81-2.46c1-.21,1.93-.43,2.9-.63.69-.14,1.41-.2,2.07-.4A4.74,4.74,0,0,1,69.36,48.44Zm-4.44-1a23,23,0,0,0-2.35,0h-.93V46.6a41,41,0,0,1,8.09.2A12.69,12.69,0,0,1,64.92,47.39Zm11.41-1.93c-.8.13-1.62.2-2.4.4a14.23,14.23,0,0,1-4.26.38c-2.38-.1-4.77-.14-7.15-.21h-.66c-.1-.5,0-.71.43-.71h2.1c1.46,0,2.92,0,4.37,0,1.79,0,3.57-.14,5.36-.17a18.15,18.15,0,0,1,2.84.19Zm2.34-.5c-2-.09-4-.15-5.92-.15-2.49,0-5,.11-7.47.13-1.08,0-2.15-.06-3.21-.09-.14-.48.11-.61.45-.61.59,0,1.19,0,1.79,0,1.83,0,3.67,0,5.51-.1,3-.09,6-.23,9-.27,1.56,0,3.12.12,4.68.19A10.73,10.73,0,0,1,78.67,45Zm.25-2.28c1.16.23,2.31.47,3.45.75H79.55c-2,0-4,0-6,.1-2.16.06-4.33.18-6.5.24-1.4,0-2.81,0-4.22,0h-.77c0-.24,0-.42,0-.68.45,0,.87-.1,1.3-.11,1.6,0,3.2,0,4.8-.08s3.45-.33,5.18-.33c1.33,0,2.64,0,4-.14A5.55,5.55,0,0,1,78.92,42.68Zm-3.26-.59-13.54.58C62,42.25,62,42,62.37,42l.48,0c1.53-.15,3.06-.32,4.6-.44,1.15-.1,2.32-.1,3.48-.19C72.58,41.19,74.09,41.79,75.66,42.09Zm-6.51-1.16A43.88,43.88,0,0,1,62,41.5c-.12-.27-.14-.47.15-.55a3.57,3.57,0,0,1,.55-.11,15.64,15.64,0,0,0,2.18-.18A10.2,10.2,0,0,1,69.15,40.93Zm-4.53-.59-2.82.19c-.06-.32-.11-.55-.16-.79A6.25,6.25,0,0,1,64.62,40.34Zm19.55-8.23-1-.41c-1.65-.7-3.28-1.43-4.94-2.08a7.07,7.07,0,0,0-5.45.26,7.31,7.31,0,0,0-3.59,3.28,13.72,13.72,0,0,1-5.33,5.33,6.94,6.94,0,0,1-1.59.6c-.58.17-.78,0-1-.52s-.41-1.17-.64-1.82c.31-.21.62-.4.92-.63A48.26,48.26,0,0,0,66.35,32a9.55,9.55,0,0,1,2-1.38c1.08-.62,2.18-1.23,3.31-1.74a7.37,7.37,0,0,1,5.63-.14c1.25.45,2.43,1.06,3.66,1.56a13.33,13.33,0,0,1,3,1.45l.3.24ZM42.65,45.32c0,.81-.1,1.62-.21,2.43-.23,1.77-.49,3.53-.77,5.3-.06.39-.07.7.3.9a1.83,1.83,0,0,0,2.11-.34.64.64,0,0,0,.2-.71c-.18-.79-.35-1.59-.46-2.39-.23-1.61-.36-3.23-.63-4.83a5.29,5.29,0,0,1,.31-3.1c.32-.74.65-1.48,1-2.21a.93.93,0,0,0,0-1c-.58-.73-1.23-1.41-1.91-2.18-.63,1-1.21,2-1.83,3,.43.81.82,1.62,1.27,2.39A4.72,4.72,0,0,1,42.65,45.32Zm1.15,7.9a1.39,1.39,0,0,1-1.3.39c-.43,0-.56-.21-.49-.65.18-1.23.39-2.45.56-3.68.12-.8.21-1.59.4-2.39C43.24,49,43.51,51,43.8,53.22ZM42.72,42.75s.06-.1.11-.18.17.13.16.14-.1.14-.15.22A.47.47,0,0,1,42.72,42.75ZM42.3,42c.38-.31.38-.31,1-.23C43.06,42.15,43,42.16,42.3,42Zm.42-4,.08.13-.33.2-.06-.13Zm.6.85c-.4.05-.81.39-1.38,0Zm.7.76a6.62,6.62,0,0,1-2.35.08A3.78,3.78,0,0,1,44,39.63Zm-2.71.72a8.6,8.6,0,0,1,2.82-.12c-.08.18-.13.38-.18.39-.81,0-1.61,0-2.42,0C41.47,40.58,41.42,40.47,41.31,40.35Zm2.29.8c-.9.24-1.49.24-1.77,0A2.75,2.75,0,0,1,43.6,41.15Zm6,6.79c0-.59-.06-1.19-.1-1.84l-.71,0c-.14.55-.26,1-.38,1.53,0,0-.1,0-.23,0,0-.55.08-1.09.11-1.67l-.7-.13L47,47.24c-.31-.68.14-1.11,0-1.6l-.89-.42c-.34.22-.23.79-.8.81.1-.36.2-.69.3-1l-.47-.43-.76.37a1.7,1.7,0,0,1,.76-1,6.08,6.08,0,0,0,2.27,1.34,5.43,5.43,0,0,0,5.6-1.13c.66-.52,1-.54,1.36.1a1.08,1.08,0,0,1,0,.21c-.35-.07-.74-.48-1,.06l.31.59-.08.12-.72-.35-.62.41L53,46.44c-.22,0-.39,0-.47-.07a2.81,2.81,0,0,1-.52-.62c-.19-.34-.4-.28-.71-.07v1.69l-.18,0c-.09-.5-.17-1-.27-1.57L50,46C49.7,46.65,50.11,47.36,49.57,47.94ZM37.32,45.46c-.21.5.5,1,0,1.63-.21-.57-.38-1-.56-1.56H36c0,.37,0,.71,0,1s.12.69-.42,1c0-.44,0-.74,0-1.05s-.06-.63-.08-1H34.24c-.05.3-.12.61-.16.93s0,.62-.49.71c.07-.62.13-1.17.19-1.75l-.9-.28c-.44.18-.28.82-.91.89l.31-1-.58-.43-.62.79-.14-.11a2.1,2.1,0,0,1,.71-1.22c2.22,1.48,6.41,1.28,8.27-.16l.91,1.28c-.35.07-.35.07-1.14-.64l-1,.5c-.11.42.42.74.08,1.23a4.57,4.57,0,0,1-.3-.4C38.1,45.26,38.11,45.26,37.32,45.46ZM47.5,55.12a.48.48,0,0,1-.14.71,7.45,7.45,0,0,1-1,.74,6.26,6.26,0,0,1-6.1.62,12,12,0,0,1-2-1.39c-.06,0-.07-.19-.1-.28l.13-.14c.15.08.31.14.46.23.7.4,1.39.83,2.11,1.2a4.11,4.11,0,0,0,2.68.3,6.31,6.31,0,0,0,3.12-1.26C47,55.63,47.22,55.39,47.5,55.12ZM42.73,35.49c.53,0,1.31-.7,1.3-1.14a1.36,1.36,0,0,0-1.3-1.21,1.47,1.47,0,0,0-1.29,1.33A1.35,1.35,0,0,0,42.73,35.49Zm0-1.9a.7.7,0,0,1,.76.66,1,1,0,0,1-.88.8.76.76,0,0,1-.71-.64A.84.84,0,0,1,42.77,33.59Zm-6.38,2.29,1-1.42a2.09,2.09,0,0,0-1.09-1.08c-.26.38-.51.75-.78,1.17ZM36.31,34c.62.39.62.42,0,1.07A.66.66,0,0,1,36.31,34Zm12.95,1.51c1-1.15.92-1.75-.33-2.19l-.77,1.13Zm-.09-1.65c.37.46.37.46.07,1C48.69,34.24,48.69,34.24,49.17,33.84Zm3.59.79a5.08,5.08,0,0,1,2.9-.18A5.15,5.15,0,0,1,52.76,34.63Zm-14.6-.09a3.82,3.82,0,0,1,2.5,0A3.3,3.3,0,0,1,38.16,34.54ZM29.5,49.66A10.74,10.74,0,0,1,33,51.36,11.16,11.16,0,0,1,29.5,49.66Zm-.38.77a8.64,8.64,0,0,1,2.81,1.37A8.85,8.85,0,0,1,29.12,50.43Zm-.05.69a6.54,6.54,0,0,1,2.17,1.06A7,7,0,0,1,29.07,51.12Zm.46-2.49a14.47,14.47,0,0,1,4.66,2.29A14.89,14.89,0,0,1,29.53,48.63ZM52.45,51a10.74,10.74,0,0,1,3.67-1.26A11.11,11.11,0,0,1,52.45,51Zm.28.81a8.76,8.76,0,0,1,3-1A8.9,8.9,0,0,1,52.73,51.77Zm.46.51a6.85,6.85,0,0,1,2.28-.78A6.71,6.71,0,0,1,53.19,52.28Zm-1.43-2.07a14.33,14.33,0,0,1,4.91-1.69A14.92,14.92,0,0,1,51.76,50.21ZM30.68,34.56a7.24,7.24,0,0,1,2.45-.05A2.17,2.17,0,0,1,30.68,34.56Zm-2,.43a.54.54,0,0,1,0-.43c.15-.22.36-.43.67-.27.15.08.32.14.32.38a.52.52,0,0,1-.34.44A.42.42,0,0,1,28.69,35Zm28-.7c.14-.22.36-.43.66-.27s.32.13.32.37a.54.54,0,0,1-.34.45c-.23.13-.48.14-.62-.12A.47.47,0,0,1,56.71,34.29ZM27,36.73a.33.33,0,0,1-.21.28c-.15.08-.31.09-.4-.08a.32.32,0,0,1,0-.27c.09-.14.23-.27.42-.17S27,36.58,27,36.73Zm2.08,0a.33.33,0,0,1-.21.28c-.15.08-.31.09-.4-.08a.32.32,0,0,1,0-.27c.09-.14.23-.27.42-.17S29.09,36.58,29.09,36.73Zm1.47.2a.32.32,0,0,1,0-.27c.09-.14.23-.27.42-.17s.2.09.2.24A.32.32,0,0,1,31,37C30.81,37.09,30.65,37.1,30.56,36.93Zm2.49-.44c.1,0,.2.09.2.24A.32.32,0,0,1,33,37c-.15.08-.3.09-.39-.08a.29.29,0,0,1,0-.27C32.72,36.52,32.86,36.39,33.05,36.49Zm1.68.44a.32.32,0,0,1,0-.27c.1-.14.23-.27.42-.17s.21.09.21.24a.33.33,0,0,1-.22.28C35,37.09,34.82,37.1,34.73,36.93Zm2.69-.2a.33.33,0,0,1-.22.28.26.26,0,0,1-.39-.08.32.32,0,0,1,0-.27c.1-.14.23-.27.43-.17S37.42,36.58,37.42,36.73Zm1.88-.24c.09,0,.2.09.2.24a.33.33,0,0,1-.22.28.26.26,0,0,1-.39-.08.29.29,0,0,1,0-.27C39,36.52,39.1,36.39,39.3,36.49Zm1.67.44a.32.32,0,0,1,0-.27c.09-.14.22-.27.42-.17s.2.09.2.24a.33.33,0,0,1-.22.28A.26.26,0,0,1,41,36.93Zm2.49-.44c.1,0,.2.09.2.24a.33.33,0,0,1-.22.28.26.26,0,0,1-.39-.08.32.32,0,0,1,0-.27C43.13,36.52,43.27,36.39,43.46,36.49Zm2.08,0c.1,0,.2.09.2.24a.33.33,0,0,1-.21.28c-.15.08-.31.09-.4-.08a.32.32,0,0,1,0-.27C45.21,36.52,45.35,36.39,45.54,36.49Zm1.67.44a.32.32,0,0,1,0-.27c.09-.14.23-.27.42-.17s.2.09.2.24a.33.33,0,0,1-.21.28C47.46,37.09,47.3,37.1,47.21,36.93Zm2.49-.44c.1,0,.2.09.2.24a.33.33,0,0,1-.21.28c-.15.08-.31.09-.4-.08a.32.32,0,0,1,0-.27C49.37,36.52,49.51,36.39,49.7,36.49Zm1.67.44a.32.32,0,0,1,0-.27c.09-.14.23-.27.42-.17s.2.09.2.24a.32.32,0,0,1-.21.28C51.62,37.09,51.47,37.1,51.37,36.93Zm2.49-.44c.1,0,.21.09.21.24a.33.33,0,0,1-.22.28c-.15.08-.3.09-.39-.08a.32.32,0,0,1,0-.27C53.54,36.52,53.67,36.39,53.86,36.49Zm1.66.17c.1-.14.23-.27.42-.17s.21.09.21.24a.33.33,0,0,1-.22.28.26.26,0,0,1-.39-.08A.32.32,0,0,1,55.52,36.66Zm2.09,0c.09-.14.22-.27.42-.17s.2.09.2.24A.33.33,0,0,1,58,37a.26.26,0,0,1-.39-.08A.29.29,0,0,1,57.61,36.66ZM29,32.4a.32.32,0,0,1,0-.27c.09-.14.23-.27.42-.17s.2.09.2.24a.33.33,0,0,1-.22.28A.26.26,0,0,1,29,32.4Zm2.08,0a.32.32,0,0,1,0-.27c.09-.14.23-.27.42-.17s.2.09.2.24a.33.33,0,0,1-.22.28A.26.26,0,0,1,31.1,32.4Zm2.08,0a.32.32,0,0,1,0-.27c.09-.14.23-.27.42-.17s.2.09.2.24a.33.33,0,0,1-.21.28C33.43,32.56,33.27,32.57,33.18,32.4Zm2.08,0a.32.32,0,0,1,0-.27c.09-.14.23-.27.42-.17s.2.09.2.24a.33.33,0,0,1-.21.28C35.51,32.56,35.35,32.57,35.26,32.4Zm2.08,0a.32.32,0,0,1,0-.27c.09-.14.23-.27.42-.17s.2.09.2.24a.32.32,0,0,1-.21.28C37.59,32.56,37.43,32.57,37.34,32.4Zm2.09,0a.29.29,0,0,1,0-.27c.09-.14.23-.27.42-.17s.2.09.2.24a.32.32,0,0,1-.21.28C39.67,32.56,39.52,32.57,39.43,32.4Zm2.08,0a.32.32,0,0,1,0-.27c.1-.14.23-.27.42-.17s.21.09.21.24a.33.33,0,0,1-.22.28C41.75,32.56,41.6,32.57,41.51,32.4Zm2.08,0a.32.32,0,0,1,0-.27c.1-.14.23-.27.43-.17s.2.09.2.24a.33.33,0,0,1-.22.28A.26.26,0,0,1,43.59,32.4Zm2.08,0a.29.29,0,0,1,0-.27c.09-.14.22-.27.42-.17s.2.09.2.24a.33.33,0,0,1-.22.28A.26.26,0,0,1,45.67,32.4Zm2.08,0a.32.32,0,0,1,0-.27c.09-.14.22-.27.42-.17s.2.09.2.24a.33.33,0,0,1-.22.28A.26.26,0,0,1,47.75,32.4Zm2.08,0a.32.32,0,0,1,0-.27c.09-.14.23-.27.42-.17s.2.09.2.24a.33.33,0,0,1-.22.28A.26.26,0,0,1,49.83,32.4Zm2.08,0a.32.32,0,0,1,0-.27c.09-.14.23-.27.42-.17s.2.09.2.24a.33.33,0,0,1-.21.28C52.16,32.56,52,32.57,51.91,32.4Zm2.08,0a.32.32,0,0,1,0-.27c.09-.14.23-.27.42-.17s.2.09.2.24a.33.33,0,0,1-.21.28C54.24,32.56,54.08,32.57,54,32.4Zm2.08,0a.32.32,0,0,1,0-.27c.09-.14.23-.27.42-.17s.2.09.2.24a.33.33,0,0,1-.21.28C56.32,32.56,56.16,32.57,56.07,32.4Zm-8.92,2.07a5.32,5.32,0,0,1-2.24.24A2.61,2.61,0,0,1,47.15,34.47ZM35,35.46a1.34,1.34,0,0,1,0-1.68A2.37,2.37,0,0,1,35,35.46Zm16.75-.38c-.51-.51-.55-.78-.17-1.39A2.09,2.09,0,0,1,51.79,35.08ZM34,33.84c.49.55.49.55.29,1.21C34,34.79,34,34.77,34,33.84ZM51,35c-.45-.41-.29-.86-.15-1.31A1.43,1.43,0,0,1,51,35Zm-8.25-.42c-.06,0-.17-.14-.32-.27.19-.11.3-.22.43-.23s.22.21.2.24A.5.5,0,0,1,42.73,34.57Z"/></g></g></svg>