<svg xmlns="http://www.w3.org/2000/svg" viewBox="0 0 103.11 80.29"><defs><style>.cls-1,.cls-2{fill-rule:evenodd;}.cls-2{fill:#c6262f;}.cls-3{fill:#fff;}</style></defs><title>Asset 463</title><g id="Layer_2" data-name="Layer 2"><g id="Layer_1-2" data-name="Layer 1"><path d="M7.4,7.67C5,7,3.9,8.38,3.1,9.23s-2.21,1.06-1-1.73C2.57,9.3,5.68,5.7,7.4,7.67ZM5.05,4.05C2.29,5.83,3.73,6,4.49,5.51a3,3,0,0,1,3.29,0C6.93,3.92,5.09,5.3,5.05,4.05Zm5.23,15.39c.91-1.15.68-2.43,1-3.64-.58,1-.64,2.35-1.73,3.07,1-1.71.7-3.24,1-4.86-.81,1.65-.44,2.74-2,4.58A1.46,1.46,0,0,0,10.17,21c1.54-.54,1.52-2.95,1.85-4.21C11.48,17.59,11.52,19,10.28,19.44Zm-6.92-6.7a2.83,2.83,0,0,0,1.77-2.6,2.43,2.43,0,0,1-2.28,1.52c-2.19.42-.86,2.93,1.07,2.27,1.6-.55,2-3,3.84-3.61C5.28,10.89,5.15,13.06,3.36,12.74Zm2.18,3.85A3.91,3.91,0,0,0,7.21,14a4.14,4.14,0,0,1-2.06,2.14c-2.35,1.31-.41,2.55,1.17,1.56,1.43-.9,2.14-3.8,3.51-4.68C7.62,13.92,7.35,16.55,5.54,16.59Zm47.85-9A3.54,3.54,0,0,1,56,9.06a2.42,2.42,0,0,0-1.4-2.65A3.81,3.81,0,0,1,57.1,8.08a2.39,2.39,0,0,0-1-2.69,8.89,8.89,0,0,1,5.72,4.88c-2.72-.3-3.48-2.69-6.4-.3,3.41-1.51,3.53.74,6.67,1v0a9.32,9.32,0,0,1,.55,2.44c0,1.26-1,1.29-1.64.37a3.66,3.66,0,0,0-2.62-2,2.75,2.75,0,0,0-2.52.88c4.41-2.16,4.24,3,6.71,3a5.19,5.19,0,0,1-.74,2.33,2,2,0,0,1-3.1.18c-1-.9-1.5-3.41-2.93-3.65,1.81,1.4,1.3,5.43,4.76,5.53a2.41,2.41,0,0,1-4.41,1.32c-.68-1.34-1.34-3.41-2.54-3.84a12.21,12.21,0,0,0,1.75,4.06,2.07,2.07,0,1,1-3.69,1.85,7.84,7.84,0,0,1-.6-4.08C49.73,21,52.75,25,46.91,26.26a7.65,7.65,0,0,1-3-.17v.08c0,.2,0,.4-.07.6,5.76.63,12.48-.24,16.73-4.58a10.59,10.59,0,0,0-.21-15.36C55.78,2.54,46.79,1.91,41.78,3.28,53,3.78,57,12.46,51.31,15.92a7.88,7.88,0,0,1-.08,1.38C54.5,15.48,56.31,10.89,53.39,7.62ZM30.7,38.13c.68-1.12,2.26-.7,2,.67s.41,1.9,1.62,2.12a10.07,10.07,0,0,0,6.47-1.05,4,4,0,0,0-.06-7.07c-5-2.86-16.63-3.2-21.43-.4C17,33.76,16.15,37,18.78,38.89a8.94,8.94,0,0,0,7.07,1.21c.82-.27,1.33-.7,1.21-1.67a1,1,0,0,1,1.8-.56,3.17,3.17,0,0,1-.15,2.51,3.48,3.48,0,0,0,2,.16A2.79,2.79,0,0,1,30.7,38.13Zm-4-12.52a7.66,7.66,0,0,0-5.6,1.13c2.12-.52,3.49.23,5.14.69S28.45,26.1,26.74,25.61Zm57.6,33.32c-4.83-2.22-6-5.35-5.94-8.07.13-3.15,2-4.5,3.21-7.14A8.36,8.36,0,0,0,82.09,40a10.57,10.57,0,0,0-3.2-7c4.33,17-8.79,29-23.35,27.17C60,59,61.92,53.72,60.31,49.74c2.53-.06,6.4-1.19,8.15-3.16,1.21-1.36.88-3.65-1.26-3.67,2.18-1.46.62-5-1.83-4,2.17-3.11-1.51-5.88-3.82-3.71.84-2.64-2.21-3.52-3.21-1.52-.47-5.34-8.29-4-7.48.59-2.43-2.55-5.56.05-3.91,2.41a3.43,3.43,0,0,0-3.05-.1A8.18,8.18,0,0,0,42.46,33c0-1.49.86-3.42,1.24-5.46,7.68.46,16.7-.94,19.59-7.47,4.74,1.11,8.76,2.76,12.1,5.78,4.23,3.84,7.25,9.23,7.32,15a5.23,5.23,0,0,0,1.05,3.5c1.82,2.59,1.36,4.84.35,7.63C83.17,54.6,82.37,56.61,84.34,58.93ZM76.48,32.14c-1.48.41-3.11,2.94-3,6.22.53-3.21,2.37-4.17,3.38-4.38C78.51,33.63,78.27,31.65,76.48,32.14Zm-2.24-3.55a7.4,7.4,0,0,1-.59,5.63,7,7,0,0,0,2.15-6.1C75.34,26.22,73.45,26.86,74.24,28.59Zm-3.15-2c.86.34,2.59,1.43,2.5,4.36.82-2.56-.58-5.58-2.14-6S69.77,26.09,71.09,26.6Zm-5-2c1.4.39,2.73.43,4,1.74A6.52,6.52,0,0,0,66.53,23C65.06,22.65,64.71,24.18,66.07,24.56Zm1.37,1a6.48,6.48,0,0,0-4.81-.69c-1.42.51-.85,2,.49,1.52S65.62,25.22,67.44,25.56Zm4.41,2.56a5.79,5.79,0,0,0-5.52-1.95c-1.64.49-1.14,2.31.33,1.72A5.69,5.69,0,0,1,71.85,28.12ZM69.23,30c1.67.06,3.74.54,4,3.3.47-2.81-1.11-4.86-3.68-5.08C67.64,28,67.61,29.89,69.23,30ZM71.4,45.57c1.35-2.45,1.25-5.76,0-7.09s-2.66-.2-1.69,1.39C71,42,72.17,42.67,71.4,45.57Zm1.39-4c.64-2.81-.28-5.8-1.76-6.89s-2.45.55-1.1,1.63S72.89,38.36,72.79,41.6Zm.41-4.18c.38-2.64-.8-5.57-2.59-6.34s-2.5,1.28-.6,2.2A4.76,4.76,0,0,1,73.2,37.42Zm-4.12,12c1.71-1.78,2.56-5.19,1.83-7s-2.6-1-2,.58A8,8,0,0,1,69.08,49.39Zm-5,7.35c2.33-2.2,3.75-4.46,4.13-6.81s-2.28-2-2.19-.27A11.38,11.38,0,0,1,64.12,56.74Zm7.5-6.13c-2.38.59-5.81,4.33-6.61,6.6,2-2.48,5.29-3.64,7.29-4.22S74,50,71.62,50.61Zm3-4.31c-2,.26-5.23,2.89-6.32,5.29,2-2.52,4.67-2.42,6.53-2.8C77.09,48.33,77,46,74.66,46.3Zm1.47-4.12A8.44,8.44,0,0,0,71,47.53c1.92-2.46,4.35-2.77,5.94-3.37S78.1,41.62,76.13,42.18ZM76.57,38c-1.61.57-3.54,3.1-3.91,5.75,1.1-2.71,3.15-3.18,4.62-3.72S78.3,37.42,76.57,38Zm.26-3.14c-2,.64-3.21,3.15-3.49,5.53,1.16-3.09,2.81-3.12,4-3.65C79.08,36,78.31,34.39,76.83,34.88Zm5.5,21.6c-.55-3.18,1.71-5.22,1.54-7.76-.27,1-1.47,1-1.64,1.73a1.53,1.53,0,0,1-.52-1,2.63,2.63,0,0,0-.68,1.9,4.67,4.67,0,0,1-.89-2.89A6.2,6.2,0,0,0,82.33,56.48ZM33.88,26.22c-1.65.48-1.1,2.19.45,1.76s2.91-1.17,5-.66A7.4,7.4,0,0,0,33.88,26.22ZM60.81,13c.85,1.06,2.12,1.25,1.13-1.64-.61,1.76-3.42-2.08-5.29-.26C59.06,10.57,60.08,12.07,60.81,13ZM59.73,9.17c.71.57,2.17.5-.44-1.51-.15,1.25-1.87-.28-2.84,1.2A3,3,0,0,1,59.73,9.17ZM42.22,32.59c.09.13.16.25.24.38s0,.12,0,.17c-5.37-4-18.86-4.57-24.67-.91.49-2.71-.33-4.77,0-7.68C12.6,24.34,4.65,22.22,1.5,16.84A10.39,10.39,0,0,1,4.73,2.73c5.75-3.82,14.59-3,18.84-1.23C12.14.33,7.78,7.53,11.17,11.83a16.81,16.81,0,0,1,.35-4,5.67,5.67,0,0,0,3.28,3.14c2.75,1.25,4.07,1.52,4.91,4.76.41,1.58,1.1,2.66,2.91,2.8A4.22,4.22,0,0,0,25,18a6.74,6.74,0,0,1,3.38-.91,2,2,0,0,0,1.43-.56.7.7,0,0,0-.18-1.05.86.86,0,0,0-1,.1.47.47,0,0,0,.33.83c-1.5.29-1.72-1.27-.93-1.95a2.05,2.05,0,0,1,2.69.13,2.08,2.08,0,0,1,0,2.74,3.14,3.14,0,0,1-2.15.9,3.16,3.16,0,0,0,3.07-.94,3.11,3.11,0,0,0,.19-3.08,3.74,3.74,0,0,0-2.77-1.8,4,4,0,0,0-3.13.54,1,1,0,0,0,0,1.74,1,1,0,0,0,1.15-1.51c.58-.05,1.1.55.93,1a1.43,1.43,0,0,0-.53,2,3.3,3.3,0,0,1-4.15.2c-1.52-1.1-1.3-3.21,0-4.65,3.18-3.47,11.46-2.74,14.16.68-4.54-.19-6,6.45-2.36,7.77A4.11,4.11,0,0,1,33.74,17a4.48,4.48,0,0,1,8.95,0,4.13,4.13,0,0,1-1.78,3.36,4.69,4.69,0,0,1,1.15.4c.72-.57.88-1.62,1.32-2.4,1.07-1.93,2.87-2.46,4.66-3.45a5.39,5.39,0,0,0,2.46-2.73,11.82,11.82,0,0,1,.81,3.77c-.18.11-.34.23-.54.33a14.39,14.39,0,0,1-.41,1.46,6.9,6.9,0,0,0,.87-.41c-.35,2.42-1.91,4.56-5.39,6-1.5.63-1.88,1-2,2.76L43.56,26a6.87,6.87,0,0,0,.07.73h.17c0,.25-.06.49-.1.74l-.41,0C43.1,29.19,42.13,30.87,42.22,32.59Zm2.53-9a2.51,2.51,0,0,0-1,1.1Zm-8-7.36a2,2,0,0,1,2.1,2,2,2,0,0,1-1.41,1.87q.72,0,1.41,0a2.78,2.78,0,0,0,1-2.18,2.58,2.58,0,0,0-2.45-2.7A2.48,2.48,0,0,0,35.11,17,2.15,2.15,0,0,1,36.76,16.22ZM17.84,23.83c0-.1,0-.2,0-.31l0-.14C15,23.09,12.59,21.79,13.05,18a5.35,5.35,0,0,0,1.76,3.44,1.1,1.1,0,0,1,.32-1.38c.13,1.29,2.08,1.71,3,2A1.94,1.94,0,0,0,17,19.78c-3.24-1.49-4.92-3.45-5.55-6a6.22,6.22,0,0,1-.52-9.32A3.52,3.52,0,0,0,8.25,5.71,2.44,2.44,0,0,1,9.87,3.18,3.87,3.87,0,0,0,7.19,4.64,2.39,2.39,0,0,1,8.45,2.05a8.89,8.89,0,0,0-6.1,4.39C5.09,6.37,6,4,8.76,6.67,5.48,4.89,5.17,7.12,2,7.08l0,0A9.19,9.19,0,0,0,1.27,9.5c-.1,1.26.89,1.37,1.6.51A3.69,3.69,0,0,1,5.65,8.24a2.74,2.74,0,0,1,2.43,1.1C3.87,6.82,3.61,12,1.15,11.81a5.13,5.13,0,0,0,.54,2.38,2,2,0,0,0,3.08.44c1.09-.82,1.77-3.27,3.22-3.4-1.92,1.25-1.74,5.31-5.2,5.12A2.4,2.4,0,0,0,7.07,18c.8-1.28,1.63-3.29,2.85-3.62a12.3,12.3,0,0,1-2.07,3.9,2.07,2.07,0,1,0,3.52,2.15,8,8,0,0,0,.94-4c1.07,1.57-1.77,4.89,2.35,6.73A8.7,8.7,0,0,0,17.84,23.83Zm23.86,8c-.08-1.62,1.31-3.24,1.41-5.55.1-2.13-.15-2.12,1.63-3.19a12.1,12.1,0,0,0,4.16-3.5,3.21,3.21,0,0,1-1.7.74,3.64,3.64,0,0,0,1.24-2.18,4.54,4.54,0,0,1-2.71,2,5.69,5.69,0,0,0,1.6-2.72c-1.66,1-3.3,1.49-4.18,5.58-.69-2-3.37-2-5.76-2.09-4.93-.17-10-.28-14.87-1.38-2.81-.64-2.95-1.58-3.5-3.55-.8-2.88-2.55-3.3-4.09-4a5.7,5.7,0,0,0,2.3,3.12,4.54,4.54,0,0,1-3-1.5,3.64,3.64,0,0,0,1.58,1.94,3.91,3.91,0,0,1-3.23-1.71c.34,2,1.8,3.64,4,4.85C19,19.94,19.53,20.9,19,23.58c-.57,3,.14,4.6-.33,7.26C23.85,28,36.77,28.64,41.7,31.82ZM55.33,51.13A4.4,4.4,0,0,1,51,48.31a9.39,9.39,0,0,1-7-1.83,1.91,1.91,0,0,1,.87-3.41c-3.35-2.12-.63-7.25,2.94-5.49-1.44-2,1.49-4.54,3.6-2.33-.71-3.95,6.26-5.05,6.67-.41.33-1.68,3.76-1.31,2.77,1.12a2.53,2.53,0,0,1,3.46,3.64c2.13-.85,3.54,2.46,1.63,3.72,1.86,0,2,2.31.79,3.23a12.39,12.39,0,0,1-7.31,2.09A4.45,4.45,0,0,1,55.33,51.13Zm8.18-6.94a3.56,3.56,0,0,1-4.1,1.63,3.21,3.21,0,0,1,.31,1,5.27,5.27,0,0,0,5-1.55C65.69,44.11,64.16,43.21,63.51,44.19Zm-7.83-5.64a12.45,12.45,0,0,1,.49,5l.25,0a8.44,8.44,0,0,0,1.19-5.38C57.17,36.23,55.29,36.69,55.68,38.55Zm-2.83-1.07a9.47,9.47,0,0,0,2.66,6l.32,0c-1-2.19-.67-4-.65-6S52.91,35.15,52.85,37.48Zm-1.73,8.61a4.25,4.25,0,0,1-4.3-1.5c-.83-1.06-2,.42-.67,1.32a6.52,6.52,0,0,0,4.79.85A3.9,3.9,0,0,1,51.12,46.09Zm1.57-1.85c-2.58-.61-2.75-2-4.13-3.16s-2.94.05-2,1.42,3.45,2.25,5.3,2.41A4.38,4.38,0,0,1,52.69,44.24Zm.79-.4.39-.14a8.24,8.24,0,0,0-3.31-3.9c-1.82-.91-2.78.61-1.09,1.48A12,12,0,0,1,53.48,43.84Zm4.06,3.63a1.93,1.93,0,1,0-1.9,1.64A1.78,1.78,0,0,0,57.54,47.47Zm.1-3.42c.83-1.65,2.12-2.55,3.31-3.76,1.44-1.47-.13-3.15-1.69-1.6a8.51,8.51,0,0,0-2.09,5.14Zm.81.55a5.14,5.14,0,0,0,4.26-2.67c.53-1.23-.82-2-1.68-.88-1.14,1.44-1.2,2.48-2.93,3.28A3,3,0,0,1,58.45,44.6Zm1.15-27c1.87.82,3.41-1.57,1.25-2.17-1.08-.3-1.5-.32-2.15-1.7a2.86,2.86,0,0,0,1.56,2.73c-1.81.18-1.76-2-4.18-2.76C57.82,14.48,58.06,16.92,59.6,17.6Zm-9.43,3.34a5.35,5.35,0,0,1-2,3.29,1.09,1.09,0,0,0-.21-1.4c-.25,1.36-1.54,1.48-2.36,1.68-1.21.3-1.69,1.3-.19,1.39C47.3,26,50.33,25,50.17,20.94Zm4.32,39.27c-14.17,1.3-24.73-7.35-24.44-18.66,4.75.92,10,.21,11.62-1a3.48,3.48,0,0,0,1.67,2.51,2.39,2.39,0,0,0-1,4.19c1.54,1.38,4.31,2.14,6.9,2.14C47.29,53.05,49.23,59.43,54.49,60.21Zm-9.58-7.92c-.7-.38-1.15.39-.4.8a3.63,3.63,0,0,0,2.73,0A4.26,4.26,0,0,1,44.91,52.29Zm-4-1.6a5,5,0,0,0,3.65.77,5.71,5.71,0,0,1-2.9-1.74C40.84,49,40,50,40.94,50.69ZM37.88,44.1a5,5,0,0,0,1.25,3.52,5.68,5.68,0,0,1,0-3.39C39.24,43.16,38,43,37.88,44.1Zm-1,4.55a5,5,0,0,0,2.79,2.48,5.74,5.74,0,0,1-1.66-3C37.67,47.16,36.52,47.56,36.93,48.65Zm-2.28-4.43a5,5,0,0,0,1.54,3.4,5.82,5.82,0,0,1-.32-3.38C35.92,43.16,34.71,43.06,34.65,44.22ZM33,48.31c-.68-1.25-.42-2.24-.4-3.36s-1.19-1.16-1.23,0A5,5,0,0,0,33,48.31Zm4.24,4.63c-1.3-1.14-1.43-2.38-1.88-3.66s-1.85-.82-1.39.52A6.06,6.06,0,0,0,37.2,52.94ZM41,56.53a5.81,5.81,0,0,1-2.68-2.06c-.77-.78-1.66,0-.86.88A5.05,5.05,0,0,0,41,56.53Zm2.27-2.31a5.75,5.75,0,0,1-2.91-1.74c-.85-.68-1.65.24-.75,1A5.06,5.06,0,0,0,43.29,54.22Zm4.11,3.45a5.71,5.71,0,0,1-3.28-.82c-1-.4-1.51.7-.43,1.15A5,5,0,0,0,47.4,57.67Zm.09-2.13a4.9,4.9,0,0,1-2.74-.76c-.84-.36-1.28.56-.38.95A4.17,4.17,0,0,0,47.49,55.54ZM56.9,21.11c1.5,1.12,3.54,0,1.3-1.45a4.16,4.16,0,0,1-1.88-2.3,3.87,3.87,0,0,0,1.45,2.76c-1.8-.18-1.85-2.83-4-3.95C55.09,17.16,55.55,20.1,56.9,21.11Zm-5.6-1.36c.23,1.29,0,3.69,1.5,4.35a1.45,1.45,0,0,0,1.78-2.23c-1.44-2-1-3-1.65-4.74.21,1.65-.26,3.15.63,4.94-1-.81-1-2.14-1.46-3.21.24,1.24-.1,2.49.71,3.71C51.61,22,51.76,20.63,51.3,19.75Z"/><path class="cls-1" d="M85.24,67.37c1.3-1.77,3.69-5.27,2.92-6.9-.29-.63,0-1,.46-.87.67.17,1.84,1,1.68,1.76a7.71,7.71,0,0,1-.92,2.34,31.62,31.62,0,0,0,3.5-.28c0-1.35-.07-2.53-.17-3.41a4.69,4.69,0,0,0-.77-2.35c-.29-.48-.41-.74.15-.79a3.11,3.11,0,0,1,2.45.77c.38.43.2,1.18.15,2-.06,1.14-.11,2.3-.15,3.45a16.08,16.08,0,0,0,3.19-1c.58-.25,2.53,1.19,1.1,1.54a43,43,0,0,1-4.33.65c0,1.25-.09,2.48-.14,3.7,2-.25,4-.54,5.71-.86,3-.56,4.18,2.57,1.64,2.24a43.44,43.44,0,0,0-7.4-.22c-.21,4.41-.58,8.42-1.59,11.1-.1-2.55,0-6.88.12-11-2.36.14-4.79.37-7.21.61a3.69,3.69,0,0,1-1.24,0,6.51,6.51,0,0,1-1.71-.71c-.52-.37.07-.48.35-.47.78,0,1.53.06,2.31,0,2.19,0,4.86-.24,7.52-.52,0-1.3,0-2.56,0-3.72a26.16,26.16,0,0,1-4,0c-1.14,1.58-2.64,2.77-3.61,2.86Z"/><path class="cls-2" d="M32.49,63.49H69.75a6.4,6.4,0,0,1,6.38,6.37h0a6.4,6.4,0,0,1-6.38,6.38H32.49a6.4,6.4,0,0,1-6.37-6.38h0a6.39,6.39,0,0,1,6.37-6.37Z"/><path class="cls-3" d="M51.16,69.71a2.74,2.74,0,0,1-.14.87,1.92,1.92,0,0,1-.43.68,1.87,1.87,0,0,1-.66.44,2.41,2.41,0,0,1-.87.15,2.31,2.31,0,0,1-.86-.15,1.93,1.93,0,0,1-.67-.45,2,2,0,0,1-.42-.67,2.63,2.63,0,0,1,0-1.75,2,2,0,0,1,.42-.68,1.88,1.88,0,0,1,.67-.43,2.35,2.35,0,0,1,.86-.16,2.41,2.41,0,0,1,.87.16,1.78,1.78,0,0,1,.66.44,1.92,1.92,0,0,1,.43.68,2.65,2.65,0,0,1,.14.87Zm-1.06,0a1.6,1.6,0,0,0-.28-1,.92.92,0,0,0-.76-.36.94.94,0,0,0-.55.17,1,1,0,0,0-.36.47,2.09,2.09,0,0,0,0,1.45,1,1,0,0,0,.36.47,1,1,0,0,0,1.31-.19,1.58,1.58,0,0,0,.28-1Zm4,1.7-.76-1.12-.79,1.12a2.4,2.4,0,0,1-.28.34.44.44,0,0,1-.3.1.53.53,0,0,1-.35-.12.4.4,0,0,1-.14-.29,1.05,1.05,0,0,1,.22-.48l1-1.36-.84-1.14a.86.86,0,0,1-.22-.49.37.37,0,0,1,.13-.29.49.49,0,0,1,.34-.12.45.45,0,0,1,.31.11,1.69,1.69,0,0,1,.28.33l.69.93L54,68a1.84,1.84,0,0,1,.29-.34.49.49,0,0,1,.3-.1.51.51,0,0,1,.35.12.38.38,0,0,1,.14.29.49.49,0,0,1-.06.23,1.86,1.86,0,0,1-.17.26L54,69.6l1,1.36a1.12,1.12,0,0,1,.22.49.37.37,0,0,1-.14.28.5.5,0,0,1-.34.12.46.46,0,0,1-.31-.1,1.84,1.84,0,0,1-.29-.34Z"/></g></g></svg>