<svg xmlns="http://www.w3.org/2000/svg" viewBox="0 0 86.09 74.41"><defs><style>.cls-1{fill:#1d1d1b;}</style></defs><title>Asset 406</title><g id="Layer_2" data-name="Layer 2"><g id="Layer_1-2" data-name="Layer 1"><path class="cls-1" d="M9.67,18.54A.41.41,0,0,1,10,18l6.92-1.75a.42.42,0,0,1,.5.3.4.4,0,0,1-.3.49l-6.92,1.75h-.1A.4.4,0,0,1,9.67,18.54Zm3.46,12.65a.39.39,0,0,0,.18,0,.41.41,0,0,0,.18-.55L9.2,22.07a.4.4,0,1,0-.72.36L12.76,31A.42.42,0,0,0,13.13,31.19Zm13.95-3.3a.4.4,0,0,0-.52-.24l-9.25,3.42a.41.41,0,0,0-.24.52.4.4,0,0,0,.53.24l9.24-3.42A.4.4,0,0,0,27.08,27.89Zm-2.55-9.48a.42.42,0,0,0-.21.54l2.2,5.27a.4.4,0,0,0,.37.25.29.29,0,0,0,.16,0,.41.41,0,0,0,.22-.53l-2.2-5.27A.43.43,0,0,0,24.53,18.41ZM7,60.63h.1a.42.42,0,0,0,.4-.31l6-24.14a.4.4,0,0,0-.29-.49.42.42,0,0,0-.5.3l-6,24.13A.41.41,0,0,0,7,60.63Zm27.22-8.4L9.39,62.44a.41.41,0,0,0-.22.53.43.43,0,0,0,.38.25.4.4,0,0,0,.15,0L34.56,53a.41.41,0,1,0-.31-.75Zm17.5-.89-10.3-1a.41.41,0,0,0-.45.37.4.4,0,0,0,.36.44l10.31,1h0a.39.39,0,0,0,.4-.36A.41.41,0,0,0,51.75,51.34Zm13.38,9.3a.4.4,0,0,0,.31-.15.41.41,0,0,0,0-.57l-6-5.09a.4.4,0,0,0-.57,0,.42.42,0,0,0,.05.58l6,5.09A.37.37,0,0,0,65.13,60.64ZM80,55.76l-9.15,5.52a.41.41,0,0,0-.14.56.41.41,0,0,0,.56.13l9.15-5.52a.41.41,0,0,0,.14-.56A.41.41,0,0,0,80,55.76ZM74.58,41.11a.41.41,0,0,0-.11.57l6.24,9.26a.41.41,0,0,0,.34.18.39.39,0,0,0,.23-.07.41.41,0,0,0,.11-.56l-6.25-9.27A.41.41,0,0,0,74.58,41.11ZM59.11,50.57a.43.43,0,0,0,.31-.14l7.19-8.24a.4.4,0,1,0-.61-.53L58.81,49.9a.4.4,0,0,0,0,.57A.41.41,0,0,0,59.11,50.57Zm-42.9-35.9h3.55c.25,0,.5,0,.85.07-.63.95-1.84,1.28-2.05,2.63,1.06-.23,1.35-1.36,2.33-1.54,0,.5,0,.93,0,1.35s-.08,1-.05,1.53c0,.74.19,1.47.23,2.2.05,1,0,2.06.07,3.08a2.92,2.92,0,0,0,.24.78l.33,0a7.79,7.79,0,0,0,.12-1.07c0-2.12-.13-4.25-.19-6.37,0-.46-.05-.94.43-1.26.72.5,1,1.48,1.8,1.8.48-.32.34-.64.1-.93s-.6-.63-.89-.95-.83-.63-.76-1.35a4.05,4.05,0,0,1,1-.15,26.22,26.22,0,0,1,2.79.48c.49.12.83.16,1.08-.53a33,33,0,0,0-4.6-.55L24,11.67c-1.22-.06-1.15,1.15-2,1.41.05-.54.1-1,.17-1.78l-1,.93c0-2,0-3.7,0-5.43,0-.36.25-.78-.54-1a47.32,47.32,0,0,0,.13,7.36c-.86.22-.4-1.52-1.58-.9.29.63.56,1.22.89,2-.92,0-1.73,0-2.54,0s-1.56-.53-2.37-.08C15.41,14.7,15.83,14.66,16.21,14.67Zm49,23.52h3.55c.25,0,.5,0,.85.06-.63,1-1.84,1.29-2,2.63,1.06-.23,1.35-1.36,2.33-1.54,0,.51,0,.93,0,1.35s-.08,1,0,1.53c0,.74.19,1.47.23,2.21.05,1,0,2,.07,3.07a2.81,2.81,0,0,0,.24.78l.33,0a7.64,7.64,0,0,0,.12-1.06c0-2.13-.13-4.26-.19-6.38,0-.46,0-.93.43-1.26.72.51,1,1.48,1.8,1.8.48-.32.34-.64.1-.93s-.6-.63-.89-1-.83-.62-.76-1.35a4.05,4.05,0,0,1,1-.15,26.22,26.22,0,0,1,2.79.48c.49.12.83.16,1.08-.52a31.59,31.59,0,0,0-4.6-.55L73,35.19c-1.22-.06-1.15,1.15-2,1.41,0-.54.1-1,.17-1.78l-1,.93c0-2,0-3.7,0-5.43,0-.36.25-.77-.54-1a47.21,47.21,0,0,0,.13,7.35c-.86.22-.4-1.52-1.58-.89.29.62.56,1.21.89,1.95-.92,0-1.73,0-2.54,0s-1.56-.53-2.37-.07C64.44,38.23,64.86,38.19,65.24,38.19ZM8.78,61.32c-1.22-.06-1.16,1.15-2,1.41,0-.54.1-1,.17-1.77l-1,.92c0-2,0-3.7,0-5.42,0-.37.25-.78-.54-1.05a47.21,47.21,0,0,0,.13,7.35c-.86.22-.4-1.52-1.58-.89.29.62.56,1.21.89,2-.91,0-1.73,0-2.54,0S.81,63.3,0,63.76c.17.6.59.56,1,.56H4.52c.25,0,.5,0,.85.06-.63,1-1.83,1.29-2.05,2.63,1.06-.23,1.36-1.36,2.33-1.54,0,.51,0,.93,0,1.36s-.08,1-.05,1.52c.05.74.19,1.47.23,2.21,0,1,0,2,.07,3.07a2.81,2.81,0,0,0,.24.78l.33,0a7.64,7.64,0,0,0,.12-1.06c0-2.13-.12-4.25-.19-6.38,0-.46-.05-.93.43-1.26.73.51,1,1.48,1.8,1.8.48-.32.34-.64.1-.93s-.6-.63-.89-1S7,65,7.08,64.25a4.05,4.05,0,0,1,1-.15,26.22,26.22,0,0,1,2.79.48c.49.12.83.16,1.08-.52a31.43,31.43,0,0,0-4.6-.55Zm17.5-35.78-1.1.08c-.17,0-.34.09-.05.23s.4.18.61.25a12.45,12.45,0,0,1,1.5.47c1.08.5.87.33.83,1.42,0,.52,0,1,0,1.66,0,.4.3-.15.33-.21a9.75,9.75,0,0,0,.35-1c.17-.62.36-1.15,1.11-1.31a10.83,10.83,0,0,0,2-.49c.47-.17-.69-.51-.87-.58s-.62-.24-.93-.35A1.47,1.47,0,0,1,29,24.21c0-.56.06-1.13.1-1.7,0-.2.08-.42-.27-.5a2,2,0,0,0-.14.38c-.16.69-.35,1.38-.44,2.08s-.56.94-1.16,1C26.85,25.54,26.57,25.52,26.28,25.54ZM58.63,52.29c-.25-.22-.52-.41-.79-.61a1.47,1.47,0,0,1-.57-1.76c.16-.54.38-1.06.59-1.59.07-.19.2-.38-.12-.56a3.33,3.33,0,0,0-.24.32c-.35.62-.74,1.22-1,1.86a1.16,1.16,0,0,1-1.41.65c-.28,0-.55-.15-.82-.21l-1.08-.25c-.17,0-.35,0-.11.2s.33.29.51.42a12.83,12.83,0,0,1,1.29.89c.89.8.73.57.38,1.6-.17.49-.29,1-.46,1.6-.07.39.34-.06.38-.11a8.36,8.36,0,0,0,.63-.84c.34-.54.68-1,1.45-.92a12,12,0,0,0,2.06.12C59.79,53.08,58.78,52.41,58.63,52.29Zm-19-1.23c-.3-.13-.62-.24-.93-.34a1.5,1.5,0,0,1-1.07-1.52c0-.56.06-1.13.1-1.69,0-.21.08-.43-.27-.51,0,.14-.11.26-.14.38-.16.69-.35,1.38-.44,2.08s-.56.94-1.15,1a6.12,6.12,0,0,1-.86,0l-1.1.09c-.17,0-.34.08-.05.22s.41.18.62.25a15.16,15.16,0,0,1,1.49.47c1.09.5.87.33.83,1.42,0,.52,0,1,0,1.66,0,.4.3-.15.33-.21a9,9,0,0,0,.35-1c.17-.61.36-1.14,1.11-1.31a10.83,10.83,0,0,0,2-.49C41,51.48,39.82,51.13,39.64,51.06Zm30.7,11.75c-.31-.13-.62-.23-.94-.34A1.47,1.47,0,0,1,68.34,61a16,16,0,0,1,.1-1.7c0-.21.08-.43-.28-.5a3.44,3.44,0,0,0-.14.37c-.15.7-.34,1.38-.44,2.09s-.55.93-1.15,1a8.08,8.08,0,0,1-.85,0l-1.11.08c-.17,0-.33.09,0,.22a5.36,5.36,0,0,0,.62.25c.5.17,1,.26,1.49.47,1.09.51.87.33.83,1.42,0,.52,0,1,0,1.66,0,.4.3-.14.33-.21a8.33,8.33,0,0,0,.36-1c.17-.61.35-1.14,1.11-1.31a10.25,10.25,0,0,0,2-.49C71.68,63.23,70.52,62.89,70.34,62.81Zm14.77-9.25c-.31-.13-.62-.23-.94-.34a1.47,1.47,0,0,1-1.06-1.51c0-.57,0-1.14.09-1.7,0-.21.08-.43-.27-.51-.05.14-.11.26-.14.38-.15.7-.34,1.38-.44,2.08s-.56.94-1.15,1a8.08,8.08,0,0,1-.85,0l-1.11.08c-.17,0-.34.09,0,.22s.41.18.62.25a15.16,15.16,0,0,1,1.49.47c1.09.5.87.33.83,1.42,0,.52,0,1,0,1.66,0,.4.3-.15.33-.21.13-.32.26-.65.36-1,.16-.61.35-1.14,1.1-1.31a10.17,10.17,0,0,0,2-.49C86.45,54,85.28,53.64,85.11,53.56ZM4.7,19.26c.21.08.41.18.62.25A15.16,15.16,0,0,1,6.81,20c1.09.5.87.33.83,1.42,0,.52,0,1,0,1.66,0,.4.3-.15.33-.21.13-.33.26-.65.36-1,.16-.61.35-1.14,1.1-1.31a9.92,9.92,0,0,0,2-.49c.48-.16-.69-.5-.86-.58s-.62-.23-.94-.34a1.48,1.48,0,0,1-1.06-1.52c0-.56.05-1.13.09-1.69,0-.21.08-.43-.27-.51,0,.14-.11.26-.14.38-.15.7-.34,1.38-.44,2.08s-.56.94-1.15,1a8.11,8.11,0,0,1-.86.05L4.75,19C4.58,19.05,4.41,19.13,4.7,19.26Zm9.77,17c0,.4.31-.15.33-.21a7.35,7.35,0,0,0,.36-1c.17-.61.35-1.14,1.11-1.31a10.25,10.25,0,0,0,2-.49c.47-.16-.69-.5-.87-.58s-.62-.23-.93-.34a1.47,1.47,0,0,1-1.07-1.51c0-.57.06-1.14.1-1.7,0-.21.08-.43-.28-.51-.05.14-.11.26-.14.38-.15.7-.34,1.38-.43,2.08s-.56.94-1.16,1a8.08,8.08,0,0,1-.85.05l-1.1.08c-.18,0-.34.09-.05.22s.4.18.61.25a14.36,14.36,0,0,1,1.49.47c1.09.5.87.33.84,1.42C14.42,35.16,14.46,35.68,14.47,36.3Z"/><path class="cls-1" d="M49.41,2.18a2.15,2.15,0,0,1-2.3,2.17,1.82,1.82,0,0,1-1-.25L46.17,4a1.52,1.52,0,0,0,.67.14c.93,0,1.32-.78,1.32-1.83,0-1.26-.58-2-1.63-2a1.93,1.93,0,0,0-.65.1V6.65c0,1.06.1,1.21.55,1.28V8L45.31,8,44.19,8V7.93c.46-.07.55-.22.55-1.28V1.39c0-1.06-.11-1.2-.58-1.28V0l1.11,0,1.3,0C48.53,0,49.41,1,49.41,2.18Zm1.47-.06a.54.54,0,1,0,0-1.08.53.53,0,0,0-.52.56A.52.52,0,0,0,50.88,2.12Zm.49,4.81V2.77A3.73,3.73,0,0,1,50,3.05v.11c.33.09.34.27.34.8v3c0,.88-.14.94-.47,1V8l1,0,1,0V7.93C51.51,7.87,51.37,7.81,51.37,6.93Zm2.17-3.16A.8.8,0,0,1,54.42,3a1.3,1.3,0,0,1,1.23,1.16h.12c0-.35,0-.63,0-.82a1.45,1.45,0,0,1,0-.4,13.74,13.74,0,0,0-1.37-.16c-1,0-1.76.52-1.76,1.48C52.65,5.87,55,5.51,55,7a.85.85,0,0,1-.93.91c-.85,0-1.22-.75-1.19-1.54H52.8c-.1.44-.06,1.16-.13,1.53a9.62,9.62,0,0,0,1.51.23A1.65,1.65,0,0,0,56,6.51C56,4.75,53.54,5.05,53.54,3.77ZM59.44,3c.7,0,.91.47.94,1.06h1.07a1.76,1.76,0,0,0-1.93-1.28,2.64,2.64,0,0,0-2.74,2.71A2.56,2.56,0,0,0,59.4,8.13a2.22,2.22,0,0,0,1.93-1l-.08-.08a1.81,1.81,0,0,1-1.39.61c-1.14,0-1.94-.91-1.94-2.46C57.92,4,58.4,3,59.44,3Zm7.1,4,.08.1a2.32,2.32,0,0,1-2,1.05A2.58,2.58,0,0,1,62,5.42a2.55,2.55,0,0,1,2.5-2.69A2,2,0,0,1,66.59,4.8H63.15a1.58,1.58,0,0,0,0,.28c0,1.55.84,2.51,2,2.51A1.89,1.89,0,0,0,66.54,7ZM63.18,4.52h2.29c0-1-.41-1.57-1-1.57S63.31,3.65,63.18,4.52Zm5.15-.75A.81.81,0,0,1,69.22,3a1.32,1.32,0,0,1,1.23,1.16h.11c0-.35,0-.63,0-.82a2.1,2.1,0,0,1,0-.4,13.08,13.08,0,0,0-1.37-.16c-1,0-1.76.52-1.76,1.48,0,1.66,2.38,1.3,2.38,2.77a.84.84,0,0,1-.92.91c-.85,0-1.23-.75-1.19-1.54H67.6c-.1.44-.07,1.16-.14,1.53A9.62,9.62,0,0,0,69,8.11a1.65,1.65,0,0,0,1.82-1.6C70.79,4.75,68.33,5.05,68.33,3.77Z"/></g></g></svg>