<svg xmlns="http://www.w3.org/2000/svg" viewBox="0 0 112.04 78.08"><defs><style>.cls-1{fill:#fbb03b;}</style></defs><title>Asset 518</title><g id="Layer_2" data-name="Layer 2"><g id="Layer_1-2" data-name="Layer 1"><path d="M34.9,34c.1,0,0,.17-.27.32a1.3,1.3,0,0,0-.53.51,3.93,3.93,0,0,1-.65.84c-.32.33-1,1.06-1.5,1.62q-1.29,1.41-1.29.87a5.29,5.29,0,0,1,.88-1.08c.48-.52,1-1.1,1.16-1.3A8.05,8.05,0,0,1,34.9,34Zm29.83,9.18c-.35,0-.34.19,0,.61s.66.48.66.32S65,43.22,64.73,43.22Zm-.17-.38a.79.79,0,0,0,.43.1c.46,0,.33-.34-.15-.4S64.35,42.64,64.56,42.84ZM55.83,29.07c-.19.12-.23,1.35-.06,1.35a.48.48,0,0,0,.26-.14c.1-.1.22-.06.4.14.33.37.63.36.63,0S56,28.94,55.83,29.07ZM52,41.29c0,.08.55.14,1.42.14,1.55,0,1.64-.14.22-.35C52.82,41,52.1,41.05,52,41.29Zm12.71,4.05c0,.07.16.12.36.13s.47-.2.22-.35S64.74,45.17,64.73,45.34Zm.44-3.94c0-.16-.67-.36-.79-.24s0,.14,0,.22S65.17,41.58,65.17,41.4ZM31.35,52.84c.12.35.36.52.4.28a5.62,5.62,0,0,0,0-1.72C31.51,51.4,31.22,52.45,31.35,52.84Zm1-1.28c-.28,0-.32,0-.23.21s.13.38.17.51c.11.39.39.2.39-.26S32.58,51.6,32.32,51.56ZM30.09,53.3c0,1.23.1,1.33.61,1,.22-.16.29-.37.31-1s0-.81-.31-1.08C30.17,51.75,30.05,52,30.09,53.3Zm41.15-9.87c.16-.16-.2-.47-.55-.47s-.47.34-.16.46A.83.83,0,0,0,71.24,43.43Zm0,1.45c-.15-.48-.27-.54-.56-.31s-.28.21,0,.42C71.11,45.31,71.37,45.26,71.26,44.88ZM71,49.09c-.09.09-.06.22.1.38s.78.25.86,0S71.2,48.91,71,49.09ZM71.67,48c0-.06,0-.26-.18-.43s-.33-.29-.57-.22c-.41.13-.33.52.12.65S71.58,48.16,71.67,48Zm-.14-1.45c-.16-.53-.43-.74-.68-.53s-.28.38.16.62S71.64,46.94,71.53,46.57Zm-3.15-.17a.5.5,0,0,0-.43-.51.24.24,0,0,0-.09.47C68.08,46.45,68.38,46.47,68.38,46.4ZM68,44c-.21,0-.31,0-.31.19s.09.21.31.18.32-.1.32-.18S68.18,44,68,44Zm.25-.58c0-.21-.09-.28-.35-.28s-.45.13-.18.39S68.25,43.68,68.25,43.37Zm-.07,1.54a.51.51,0,0,0-.46-.07c-.23.08-.23.1,0,.29C68.25,45.5,68.64,45.3,68.18,44.91ZM68,47.08c-.23.14-.18.33.09.39s.51,0,.28-.28A.36.36,0,0,0,68,47.08Zm-38.72,6c-.19,0-.26.21-.3.64s0,.6.25.6.29-.09.29-.64S29.45,53.06,29.25,53.1Zm75-31.41a5.28,5.28,0,0,0,1.39-.09c1.9-.27,2.91-.33,2.91-.17s-.34.31-.75.3c-.17,0-1,.18-1.91.4-1.49.36-1.63.42-1.92.87a2.11,2.11,0,0,0-.33,1.08,21.13,21.13,0,0,1-.32,2.24,17.43,17.43,0,0,0-.29,1.93,29.81,29.81,0,0,1-.49,4.68,3.14,3.14,0,0,0-.2,1c0,.33-.07.54-.18.54-.32,0-.92.62-1.16,1.19a6.65,6.65,0,0,0-.33,1.59l-.1,1-.66.2a1.62,1.62,0,0,0-.69.29,2.85,2.85,0,0,0,0,1.27,1.33,1.33,0,0,1-.52,1.45c-.21.18-.29.41-.29.91A5.16,5.16,0,0,1,98.1,44a7.6,7.6,0,0,0-.46,1.82c-.24,2.47-1,3.9-2.13,4.26-.19.06-.42.36-.62.82-.37.84-.38.83,1,1.54a15.52,15.52,0,0,1,3.58,2.28,16.14,16.14,0,0,0,2.87,1.84,7.57,7.57,0,0,1,2.53,1.78,6.06,6.06,0,0,0,1.36,1.12,5.62,5.62,0,0,1,1.91,1.2,1.5,1.5,0,0,0,.4.52,3.86,3.86,0,0,1,.71,1.21,2,2,0,0,0,.64,1,1,1,0,0,1,.36,1.24,1.37,1.37,0,0,1-.56.44c-.34.13-.47.32-.63.86a5.54,5.54,0,0,1-.74,1.39c-.44.56-.62.7-.9.66s-.35-.09-.31-.65,0-.6-.21-.51l-.49.17a.4.4,0,0,0-.25.41,2,2,0,0,1-.6,1.27c-.23.25-.33.27-.54.14a.65.65,0,0,1-.27-.49c0-.26-.07-.32-.44-.32a2.43,2.43,0,0,1-2-1.22A3,3,0,0,1,102,66a.35.35,0,0,0-.24-.28c-1.06-.36-1.39-.63-1.69-1.36s-.37-1.11-.18-1.48a3.74,3.74,0,0,0,.21-.7c.08-.42.06-.46-.23-.42s-.3,0-.27-.2-.09-.3-.31-.39-.36-.19-.36-.26a2,2,0,0,0-.39-.57,1.46,1.46,0,0,0-1.89-.4c-.42.22-.57.24-.73.1s-.3-.11-.67.11a3.85,3.85,0,0,1-1,.38,4,4,0,0,0-.88.3c-.44.22-1.09.11-1.08-.19s-.09-.16-.52,0a3.52,3.52,0,0,0-.79.45.43.43,0,0,1-.74-.33c0-.15,0-.33,0-.4s-.22.06-.47.3c-.7.65-1,.75-1.33.5s-.29-.29-.23-.61,0-.43-.14-.5c-.32-.12-.93.05-.94.26a4,4,0,0,1-.35.88,3.25,3.25,0,0,0-.2,2.47,29.36,29.36,0,0,1,.19,3.28c0,3.09.17,3.7.87,4.28a4.78,4.78,0,0,0,1.26.9c.59.31.86.29,1.68-.13a2.94,2.94,0,0,1,2.86,0c.28.19.84.54,1.23.78,1.53.9,1.83,1.18,1.82,1.71s0,.49-.28.41l-.56-.17c-.5-.16-.33.44.28,1s.56.49.47,1.14-.15.66-.36.66a.59.59,0,0,1-.42-.35c-.2-.45-.45-.44-1,0A4.07,4.07,0,0,1,92,78a2.82,2.82,0,0,1-1.8-.22c-1.15-.53-1.42-.57-2-.35a3.54,3.54,0,0,1-.85.2c-.23,0-.26-.07-.18-.39.3-1.23.31-1.2-.29-1.12a8.7,8.7,0,0,0-1.14.25c-.86.26-1.39,0-1.33-.53,0-.33,0-.45-.23-.5s-.26-.17-.2-1a1.92,1.92,0,0,0-.22-1.36c-.33-.51-.69-.71-.84-.47s-1.76-.63-2-1.14l-.2-.44-.4.52c-.29.38-.49.51-.79.51s-.41,0-.42-.6c0-.33,0-.64,0-.69s.06-.35.11-.67c.09-.52.07-.57-.22-.57s-.32,0-.23-1a8.88,8.88,0,0,1,.44-2,2.25,2.25,0,0,0,.24-1,.9.9,0,0,0-.47,0c-.47.08-.8-.28-.56-.62a6.19,6.19,0,0,0,1.38-3.48c-.09-.45-.09-.45-.89-.43s-1.2-.1-1.1-.48c0-.14,0-.26,0-.26a5.43,5.43,0,0,0-1.5.64c-.25.22-.83.16-.83-.09a1.7,1.7,0,0,1,.36-.48,1.27,1.27,0,0,0,.35-.49c0-.22-1-.18-1.67.06s-1,.12-.73-.33,0-.49-.67-.23c-1.07.43-1.61,0-1-.8a2.73,2.73,0,0,0,.3-.44s-.79,0-1.75,0c-1.49,0-1.79,0-2-.24s-.22-.3-.08-.52.13-.3.07-.34a18.67,18.67,0,0,0-2.6-.12.49.49,0,0,1-.55-.35c-.15-.33-.12-.4.23-.7.51-.43.37-.61-.48-.61-.53,0-.69.05-.69.21s-.14.21-.88.12c-1-.11-1.4-.36-1.28-.89a1.49,1.49,0,0,1,.21-.5c.26-.27.12-.49-.29-.49a3.13,3.13,0,0,1-1.91-1c-.26-.26-.53-.43-.6-.39a13.27,13.27,0,0,0-.91,1.24,18.42,18.42,0,0,1-3.4,3.71c-.47.39-1.26,1.09-1.76,1.56a9.57,9.57,0,0,1-2.6,1.69,9.37,9.37,0,0,0-3.68,2.72c-.52.69-.53.72-.53,2a21.28,21.28,0,0,0,.72,5.31c.29,1,.42,1.27.69,1.37a2.92,2.92,0,0,0,2.21-.27A15.76,15.76,0,0,1,52.27,71c.69-.17.74-.16,1.19.18a2.64,2.64,0,0,0,1.22.44,2.24,2.24,0,0,1,1,.32,3.08,3.08,0,0,0,.93.4c.66.17.69.2,1,1,.33,1,.21,1.18-.53.87s-.8-.27-.8,0c0,.11.05.21.12.21.25,0,.62.93.52,1.32s-.14.37-.51.29-.48,0-.94.46a1.62,1.62,0,0,1-1.37.63,7.83,7.83,0,0,1-2.41-.13,2.92,2.92,0,0,0-1.31.14,1.65,1.65,0,0,1-.81.15,1.25,1.25,0,0,1-.1-.54c0-.42,0-.45-.47-.41a4.27,4.27,0,0,0-1.12.33q-1.44.64-1.89.15c-.22-.25-.23-.3,0-.46s.27-.54-.07-1.09c-.2-.33-.36-.45-.52-.4-.33.1-.49,0-.87-.71a3.19,3.19,0,0,0-.74-.89c-.36-.27-.44-.29-.64-.11-.65.55-.9.38-1.08-.72-.09-.58-.12-.61-.49-.53-.53.1-.57,0-.46-1.84.09-1.43.08-1.48-.17-1.38-1,.43-1.31.14-.89-1A2.91,2.91,0,0,0,38.87,64c-.57-.25-.62-.34-.77-1.24a2.09,2.09,0,0,1,1.07-2A4.36,4.36,0,0,0,40.92,59c.92-1.79,1.21-4.63.56-5.42a4,4,0,0,0-.76.5,38,38,0,0,1-5.84,3.07,23.34,23.34,0,0,0-2.41,1c-1.75.85-2.49,1.09-2.36.75.08-.19,0-.18-.52,0a9.77,9.77,0,0,1-2,.32c-2.57.19-4.86.91-5.64,1.78a13.18,13.18,0,0,0-1.87,3.08A22.73,22.73,0,0,0,18.71,68c-.36,1.7-.32,1.91.44,2.46,1.27.93,2,1,5,.72a3.84,3.84,0,0,1,1.57.15c.7.21.82.3.95.7s1.06,1.49,1.37,1.49c.61,0,1.18,1.45.85,2.17-.21.45-.32.45-.86,0l-.44-.37-.25.31a3.5,3.5,0,0,0-.54,1.57c0,.36-.27.45-.54.2s-.48-.29-.86.12a.84.84,0,0,1-1.24.13.74.74,0,0,0-.76-.09,2.87,2.87,0,0,1-1.86.12,5,5,0,0,0-1.72-.15,4.47,4.47,0,0,1-1.83-.18,2.06,2.06,0,0,0-.81-.2c-.77,0-1.34-.28-1.3-.62s.13-.29.51-.25c.67.06.58-.29-.23-.8a3.35,3.35,0,0,0-.83-.44c-.29,0-.47-.58-.47-1.49a2.25,2.25,0,0,0-.13-1c-.06,0-.23.15-.36.43s-.3.5-.67.46-.48-.15-.34-1.3c0-.3,0-.42-.15-.44-.6,0-.6,0-.51-.59a11.89,11.89,0,0,1,.43-1.58,6.41,6.41,0,0,0,.3-1.09c-.12-.12-.78.46-.78.69s-.46.58-.88.52c-.24,0-.3-.13-.28-.43a9.45,9.45,0,0,1,1.63-3.16C13.5,65.67,14.24,64,14,64a.36.36,0,0,0-.23.19.87.87,0,0,1-.51.26c-.37.07-.39,0-.32-.3s.19-.87.31-1.49a6.72,6.72,0,0,1,1.28-2.92,1.39,1.39,0,0,0,.34-.91A5.88,5.88,0,0,1,16.2,55.4a2.38,2.38,0,0,1,.68-.17,2.55,2.55,0,0,1,1.86.6c.1.17,1.48-.44,1.48-.66a.86.86,0,0,0-.28-.37.84.84,0,0,1-.28-.43c0-.17.4-.37.66-.33.5.1,1-.1,1.88-.81s1-.8.62-.85a1.27,1.27,0,0,1-.53-.16c-.06-.06.29-.51.78-1a8.45,8.45,0,0,0,1.48-2.05L25.14,48l-.34-.15c-.74-.35-.55-.76.78-1.66a8.33,8.33,0,0,0,1.2-1c.39-.41.4-.45.17-.62s-.3-.46.11-.72a.78.78,0,0,0,.35-.52.88.88,0,0,1,.2-.51,1.31,1.31,0,0,0,.25-1c0-.1-.15-.18-.3-.18s-.27-.06-.2-.59a2.58,2.58,0,0,1,.34-1c.75-1.08,1.22-2.52.81-2.52a.35.35,0,0,1-.28-.11,9.8,9.8,0,0,1,.95-3.18c.63-1.28.71-1.57.47-1.66a2.26,2.26,0,0,1-.51-.94A4.16,4.16,0,0,0,27.9,30c-.5-.47-1.08-1-1.28-1.23a7.68,7.68,0,0,0-2.36-1.53c-.29-.08-1.09-.21-1.79-.3a4.88,4.88,0,0,0-3.13.41A14.12,14.12,0,0,0,16.51,30c0,.09-.12.19-.26.23a2,2,0,0,0-.73,1.32.61.61,0,0,1-.12.38A5.09,5.09,0,0,0,15,33c-.21.79-.24,1.37-.17,4.28.06,3.27.06,3.39-.28,4.59-.56,1.95-1.49,3-3.11,3.37a2.17,2.17,0,0,1-1.75-.06,6.38,6.38,0,0,0-1-.28,10.44,10.44,0,0,1-2.53-2.21,11.66,11.66,0,0,1-2.08-5,9.89,9.89,0,0,0-.21-1.07,28.86,28.86,0,0,1-.51-3.29c0-.42-.45-1.08-1.37-1.94A4.34,4.34,0,0,1,.5,27.78,6.09,6.09,0,0,0,.17,25.9c-.24-.46-.24-.48.07-.72s.31-.34.23-1.2a10.59,10.59,0,0,1,0-1.79c.1-.79.13-.84.46-.81a.72.72,0,0,1,.49.27c.07.12.33.5.56.85s.49.76.59.93.17.26.17-.28a3.66,3.66,0,0,0-.46-1.55,14.81,14.81,0,0,1-.65-1.51,2.84,2.84,0,0,0-.29-.7A.65.65,0,0,1,1.24,19c0-.18.11-.25.43-.25a2.65,2.65,0,0,1,1.83,1l.57.59L4,19.81a7.69,7.69,0,0,0-.17-.88c-.15-.56.43-.36,1.54.54A4,4,0,0,1,7.07,22c.07.33.19.48.47.55a3.25,3.25,0,0,1,1.54,1.33c.54.89.32,2.09-.91,4.85A7.78,7.78,0,0,0,7.67,30a9.52,9.52,0,0,1-.59,1.31,4.41,4.41,0,0,0-.66,2.4,5.14,5.14,0,0,0,.16,2,3.13,3.13,0,0,1,.2.83,6.4,6.4,0,0,0,.46,2,.39.39,0,0,1,.12.31,6,6,0,0,0,1.42,2.45,1.68,1.68,0,0,0,2,.49,1.68,1.68,0,0,1,.66-.23c.14,0,.36-.18.5-.39A5.74,5.74,0,0,0,12,37.91a33.17,33.17,0,0,1,0-6.38,11.62,11.62,0,0,1,2.32-4.81C16.39,24,18,23.29,22,23.31A7.63,7.63,0,0,1,27.52,25a9,9,0,0,0,4.85,2,8.76,8.76,0,0,0,4.78-.41,21.53,21.53,0,0,1,6.78-1.4A17.7,17.7,0,0,0,46,25.13c.29-.18,3.22.44,5.12,1.09l2.1.71,2.95-.1c1.62-.06,3.94-.09,5.15-.06a36.86,36.86,0,0,0,8-.68A.71.71,0,0,0,69.63,25c-.24-.27,0-.55.43-.55a5.8,5.8,0,0,0,2.2-.8c.83-.54,1.49-1.69,1.11-1.93s-.16-.57.15-.85.29-.37.22-.87A3.49,3.49,0,0,1,75,17.05a4.4,4.4,0,0,1,.92-.74c.26,0,.12-.38-.29-.78s-.52-.66-.1-.95c1.13-.78,2.9-3,2.17-2.68-.31.12-.94-.2-.93-.47A7.35,7.35,0,0,1,79.13,9c.69-.36.74-.51.19-.63A.58.58,0,0,1,78.84,8c-.06-.23.13-.44,1-1,1.36-1,1.48-1.17,1.14-1.42a1,1,0,0,0-.44-.19c-.21,0-.34-.33-.22-.53a4.53,4.53,0,0,1,1.15-.57c.86-.34,1-.46,1-.69s.34-.64,1.48-1.21a2,2,0,0,0,.74-.5,4.64,4.64,0,0,1,1.2-.71A5.8,5.8,0,0,1,88.2.49c.64-.06,1.22-.12,1.3-.15a1.73,1.73,0,0,1,.58.06.94.94,0,0,0,.78-.09,1.94,1.94,0,0,1,1.92-.1,2.21,2.21,0,0,1,.64.43,1.83,1.83,0,0,0,.86.13,1.6,1.6,0,0,1,1.21.33l.45.35.47-.28a1,1,0,0,1,1-.1,2.73,2.73,0,0,1,1,.67c.43.48.47.49,1.21.4a1.94,1.94,0,0,1,2,.84,1.47,1.47,0,0,0,.69.56c.43.11.84.53,1.5,1.57a4.68,4.68,0,0,0,.88,1,3.25,3.25,0,0,1,1,2.19c0,.35.08.64.13.64a2.31,2.31,0,0,1,.54.65,1.58,1.58,0,0,1,.36,1.49,3.4,3.4,0,0,1-.24,1c-.11.13-.09.3.06.6a1.52,1.52,0,0,1-.08,1.66,1.46,1.46,0,0,0-.2,1.1c.09.62-.12,1.09-.93,2.07-.38.46-.61,1.08-.41,1.08a10,10,0,0,0,1.08-.43c.84-.39,2.71-.73,2.71-.51a2.15,2.15,0,0,1-.66.31,20.64,20.64,0,0,0-2.78,1.23c-.39.21-.94.48-1.23.61-.45.2-.52.29-.5.63s.1.4.18.4.74-.23,1.48-.5c3.2-1.19,4.38-1.43,5.89-1.18l.78.13h-.92a11.39,11.39,0,0,0-4.14.83,11,11,0,0,1-1.41.64C104.8,21.08,104.14,21.53,104.29,21.69ZM27.74,74.54c0,.08,0,.14.06.14s.1-.06.15-.14,0-.14-.06-.14A.15.15,0,0,0,27.74,74.54Zm76.37-55.63a.14.14,0,0,0-.14-.13c-.08,0-.14.09-.14.21s.06.18.14.14A.34.34,0,0,0,104.11,18.91Zm.44-3.51c-.34.36-.93,1.55-.77,1.55a4,4,0,0,0,.61-.28c.6-.3.73-.45.79-.89a2.67,2.67,0,0,1,.13-.54C105.48,14.83,105,14.94,104.55,15.4Zm.31-1.25a1.35,1.35,0,0,0,.42-.55c.07-.24,0-.25-.37-.12s-.93.58-.93.82S104.49,14.43,104.86,14.15Zm.58-2.66c-.49,0-1.69.69-1.45.83a.29.29,0,0,1,.13.22c-.11.55.21.44,1-.35l.72-.7Zm-2.08,0c.11.19.16.18.6-.1a5,5,0,0,0,.62-.45l.46-.4c.25-.21.29-.59.06-.59C104.5,9.94,103.15,11.13,103.36,11.48ZM102.79,17c.11.19.43-.33.63-1,.07-.22.09-.4.06-.4A3,3,0,0,0,102.79,17Zm.07-4.21c0-.35-.27-.53-.43-.28s-.14.55.15.55S102.86,12.93,102.86,12.75Zm-5-10.1c0,.14.46.52.8.66,0,0,0-.08,0-.19C98.48,2.82,97.84,2.42,97.84,2.65Zm-.26.89c-.15-.09-.16,0-.09.57a4.79,4.79,0,0,0,.29,1.06,1.76,1.76,0,0,1,.19.67c0,.43.13.35.36-.21A1.63,1.63,0,0,0,97.58,3.54Zm-1-1.41c0,.07.09.21.26.29.36.17.86,0,.77-.27S96.69,1.93,96.63,2.13ZM86.4,2.47c.28.13.32.23.26.56l-.08.4.47-.19A5.86,5.86,0,0,1,88.33,3a2,2,0,0,1,1.48.25,7.84,7.84,0,0,1,1.71,1.23,2.55,2.55,0,0,1,.43.88c.19.67.36.81.5.44a3.51,3.51,0,0,0,0-1,1.82,1.82,0,0,0-.57-1.26A1.66,1.66,0,0,0,91.1,3a.49.49,0,0,1-.42-.35.46.46,0,0,0-.49-.35c-.6,0-.92-.25-.87-.68s0-.37-.32-.34a.6.6,0,0,0-.39.15c0,.07-.34.09-.71.05a2,2,0,0,0-1.26.23C86,2.07,85.91,2.24,86.4,2.47ZM83.87,3.92c.2.13.35.31.35.41s.15.25.33.34.41.15.76,0c.54-.27,1.3-.07,1.3.36,0,.14.06.26.13.26.23,0,.32-.28.15-.49s-.06-.54.16-.41.22,0,.34-.08a1,1,0,0,1,.73-.07,7,7,0,0,1,2.72,1.53c.15.3.16.3.27,0a2,2,0,0,0,.12-.52h0c0-.23-.26-.45-1.6-1.32a1.21,1.21,0,0,0-1.26-.22c-1.41.3-2.32.21-2.32-.22,0-.15-.07-.18-.25-.11l-.66.24a1.44,1.44,0,0,0-.53.3c-.07.11-.1.11-.1,0s.22-.3.49-.47c1-.58.37-.7-1-.18C83.43,3.49,83.4,3.61,83.87,3.92Zm5.26,2.49a6.49,6.49,0,0,1,.69.43c.43.33.62.15.5-.49s-.88-1.08-2-1.18l-.8-.08.63.57A7.14,7.14,0,0,0,89.13,6.41Zm-1,1.66a1.69,1.69,0,0,0-.66-.15c-.38,0-.36,0,.51.84s1.12,1,1.12.76A4,4,0,0,0,88.15,8.07ZM83,5.8a1.17,1.17,0,0,0,.53-.25,3.43,3.43,0,0,1,.61-.36c.39-.14.09-.36-.38-.27S82.64,5.8,83,5.8ZM82.26,5c0,.21.5.17.69-.06s.12-.22,0-.28S82.26,4.77,82.26,5ZM80.32,7.81c.05.13.4.28.81.36a1.74,1.74,0,0,0,.38-.51c.18-.29.49-.75.7-1s.29-.4.11-.26a2,2,0,0,1-.66.31C81.2,6.8,80.25,7.59,80.32,7.81ZM79,10.47c.19.2,1.24-.08,1.55-.41s.39-.3.52-.25a.89.89,0,0,0,.63-.21.91.91,0,0,1,.78-.21c.5.13,1-.35,1.11-1.05.07-.45.22-.63.8-1s1.43-.65,1.61-.35a.59.59,0,0,0,.82-.07c.06-.14.27-.21.64-.21.88,0,.82-.25-.17-.71-.83-.39-1-.42-1.48-.28a1.28,1.28,0,0,0-.72.42,3.12,3.12,0,0,1-1,.71,2,2,0,0,0-.93.7.39.39,0,0,1-.39.27c-.35,0-.81.43-.74.71,0,.13-.12.21-.38.24a1.07,1.07,0,0,0-.85.79c0,.08-.21.13-.46.11C79.47,9.55,78.6,10.1,79,10.47Zm3.76-.32c-.12,0-.18.06-.14.14s.11.14.14.14.1-.06.14-.14S82.86,10.15,82.73,10.15Zm-3.32,1.43c-.22.07-.33.39-.15.39s.18-.1.22-.23S79.51,11.54,79.41,11.58Zm-.93,3.47c.17,0,.28-.09,1.44-1.21A8.64,8.64,0,0,1,82,12.11c.7-.26.63-.13-.35.72-.69.59-1,.95-1,1.17a.73.73,0,0,1-.22.5,2.77,2.77,0,0,0-.44.65,5.53,5.53,0,0,1-1,1.2,7.21,7.21,0,0,0-1,1.11c-.1.21-.23.38-.28.37-.29,0-.43.09-.72.67a4.33,4.33,0,0,1-.66.94c-.36.35-.43,1-.11,1.13s.39-.2.55-.89a4.48,4.48,0,0,1,1.79-1.82,1,1,0,0,0,.54-.28,1.67,1.67,0,0,1,.35-.28c.21,0,0,.33-.76,1.11a4.94,4.94,0,0,0-1.22,1.88,4.17,4.17,0,0,1-1.28,1.87,5.77,5.77,0,0,1-1.14.91c-.15,0-.26.2-.29.43s0,.38.42.39.45,0,.18.22a6.49,6.49,0,0,0-1,.93l-.62.72c-.25.28-.42.55-.37.59s1-.44,1.49-1c.29-.33.5-.47.54-.36a4,4,0,0,1-.92,1.66,1,1,0,0,0-.25.84c0,.3,0,.92,0,1.37s.07.78.16.72a.34.34,0,0,0,.14-.26,2.24,2.24,0,0,1,.47-.73c.59-.68.72-1.07.49-1.45a.43.43,0,0,1,0-.57,1.57,1.57,0,0,0,.18-.73,4.7,4.7,0,0,1,1.05-2.75,3.36,3.36,0,0,0,.65-1.17,2.65,2.65,0,0,1,.49-1,3.15,3.15,0,0,0,.49-.86c0-.51,1.32-1.54,1.75-1.37s.26.31-.34.68-.85.73-.85,1.13.58.08,1.5-.84c.66-.65.89-1,1-1.38s.13-.75.17-1A4.35,4.35,0,0,1,84,14.85c.43-.08.76-.31,1.51-1.08,1-1,1-1,1.55-.88a2.24,2.24,0,0,1,.78.24.32.32,0,0,1-.25.55.57.57,0,0,0-.43.34c-.09.2-.27.36-.39.36s-.71.67-.71,1a2.75,2.75,0,0,1-1.11,1.27,1,1,0,0,0-.41.52c-.14.37-.14.49,0,.66s.24.11.51-.42A8.09,8.09,0,0,1,86,16.15a4.25,4.25,0,0,0,.62-.79c0-.14.75-.49,1.45-.68.49-.13.57-.11.89.2s.31.63-.28.59c-.43,0-.45,0-.4.45a2.27,2.27,0,0,0,.09.54,1.36,1.36,0,0,0,.55-.13c.45-.16.54-.15.88.11.57.42.51.69-.13.63a1.27,1.27,0,0,0-1.39.93,1.85,1.85,0,0,1-.35.66,2.74,2.74,0,0,0-.4.51c-.29.45-.06.69.32.35a3.26,3.26,0,0,1,2-.65c.77,0,.77,0,.77.44s0,.43-.35.35a1.61,1.61,0,0,0-1.39.6c-.36.4-.23.48.38.23s1-.27,1.29.07.24.28-.26.28-1.07.38-1.08.77c0,.15.18.22.67.24l1,0,.73.05a1,1,0,0,1,.63.3.91.91,0,0,0,.6.28,1.4,1.4,0,0,1,.69.24l.33.23-.1-.55c-.11-.61-.32-.94-.55-.85s-.79-.16-.79-.34.19-.21.42-.29a.69.69,0,0,0,.5-.55l.09-.41.51.55c.76.81,2.11,1,1.6.21a4.83,4.83,0,0,0-1.85-.9,7.42,7.42,0,0,1-2-.91,1.35,1.35,0,0,0-.09-.28c-.12-.31.5-.29.73,0s.86.29,2.22.1c.76-.1,1.35.12,1.35.5a1.11,1.11,0,0,0,.19.5c.18.24.24.25.55.08.46-.24.8-.11.8.32,0,.25.15.44.52.66s.48.34.27.38a1.42,1.42,0,0,1-.68-.12c-.35-.14-.44-.14-.55,0-.2.32-.07.47.65.74s1.27.69,1.13.92-.35.05-.86-.15-.82-.26-.87-.2.48.86,1,1.06a3.35,3.35,0,0,0,2.43-.24,2.28,2.28,0,0,0,.5-.76c.21-.51.21-.54-.12-.84a5.68,5.68,0,0,1-.72-1.09,3.85,3.85,0,0,0-.54-.88,1.92,1.92,0,0,0-.82,0c-.62.08-.68.06-.8-.28s-.21-.36-.29-.36c-.4,0,.2-1.24.66-1.35s.72.16.35.55-.44.8-.1.53,1.91.39,2.43,1.25l.25.41.67-.64c.74-.71.77-.89.23-2.14a11.08,11.08,0,0,1-.41-1.23c-.08-.33-.21-.6-.28-.6a5.19,5.19,0,0,1-1-2.19,3.55,3.55,0,0,1,.64-1.32,8.19,8.19,0,0,0,.83-1.48c.15-.42.27-.55.52-.56a4.62,4.62,0,0,0,1.81-.89c.45-.36.27-.37-.32,0s-.88.36-1,.12.24-.52.93-1c.3-.21.64-1.22.41-1.22-.07,0-.28.24-.47.54a2.4,2.4,0,0,1-1.47,1c-.19,0-.21-.52,0-.63a4.57,4.57,0,0,0,.58-.73c.54-.8.67-1.45.35-1.72-.12-.1-.24-.16-.25-.13-.37.63-.57,1-.82,1.47a1.8,1.8,0,0,1-1.39,1c-.4,0-.37-.41.07-.82a1.11,1.11,0,0,0,.35-.64.53.53,0,0,1,.37-.48c.36-.17.36-.2.27-1S101.83,4,101.58,4c-.09,0-.31-.25-.48-.56-.34-.59-.82-.82-1.23-.6-.2.12-.18.18.18.54a3.47,3.47,0,0,1,.87,2.38,1.39,1.39,0,0,1-.4,1.2c-.35.39-.43.43-.7.28s-.29-.19-.11-.55A4,4,0,0,0,100,5.65c.06-.55,0-.74-.2-1a5.48,5.48,0,0,1-.46-.57c-.17-.24-.19-.15-.14.71.1,1.64-.45,2.29-1.51,1.79-.32-.15-.41-.14-.65.11s-.33.26-.59.09-.53-.74-.33-1a3.78,3.78,0,0,0,.23-1.16c.1-1.07.08-1.12-.87-2.29a1.75,1.75,0,0,0-.67-.59,6,6,0,0,1-1-.28,4.8,4.8,0,0,0-1.28-.29A1.33,1.33,0,0,1,91.79,1c-.2-.19-.3-.2-.46-.06s-.17.23,0,.42.41.28,1.13.35a3.18,3.18,0,0,1,2,.76c1.27.87,1.42,1.22,1.28,3.05-.09,1.12-.14,1.33-.34,1.33-.58,0-1.13-.8-.72-1.05.18-.11.19-1,0-1.6a4.1,4.1,0,0,0-2.36-2c-.51,0-.32.42.4.84A2.91,2.91,0,0,1,93.72,6.4c-.16.68-.22.77-.56.81s-.38,0-.38-.1c0-.26-.56-.48-.78-.3a.56.56,0,0,1-.48.07c-.34-.11-.37,0-.08.45s0,.55-.45.18l-.38-.3-.11.3c-.06.17-.17.26-.25.21s-.14,0-.14,0c0,.23,1.13,1.13,1.33,1.06.42-.16.32.25-.2.81s-.62.59-1.14.57-.6,0-.73.32-.53.45-.53.06A3.15,3.15,0,0,0,88,9.47c-.76-.75-.92-.85-1.41-.85a1,1,0,0,1-.9-.37c-.31-.33-.39-.36-.7-.22a.86.86,0,0,0-.43.41c0,.13-.17.43-.28.67a3.44,3.44,0,0,0-.17,1.25c0,.76.07.85.45,1.06a1.32,1.32,0,0,1,.58.71,1.14,1.14,0,0,0,.45.61c.62.28.3.53-.75.58a3.22,3.22,0,0,0-1.08.22.92.92,0,0,1-.44.15c-.07,0-.15.09-.2.25s-.6.42-.6.17A9,9,0,0,1,84,12.83a.21.21,0,0,0,.09-.29c-.15-.24-.87-.06-1.42.35s-.79.16-.18-.36a3.19,3.19,0,0,1,.56-.41,1.36,1.36,0,0,0,.08-.63c0-.52,0-.63-.26-.63a.37.37,0,0,0-.34.19c-.1.28-.61.39-.61.13,0-.11-.06-.17-.13-.12s-.2,0-.27-.16-.17-.22-.36-.06a.45.45,0,0,0-.16.43.51.51,0,0,1-.21.49c-.3.27-.37.63-.13.63.08,0,.1.07,0,.16s-.34.12-.67.09a1.13,1.13,0,0,0-1.3,1.07,1.29,1.29,0,0,1-.35.71C78.17,14.66,78.2,15.05,78.48,15.05Zm23.69-1c0,.15,0,.23.07.18s.05-.16,0-.27S102.17,13.9,102.17,14.06ZM97.49,25c0-.18.71-.1,1.53.18a1.78,1.78,0,0,0,1.49.07c1-.3,1.34-.55,1.34-1.05s0-.43-.46-.34a2,2,0,0,0-.6.22,6.86,6.86,0,0,1-2.85.13,2.93,2.93,0,0,1-1.79-1.58.84.84,0,0,0-.66-.63c-.69-.24-.85-.14-.58.37a2.17,2.17,0,0,1,.2.87c0,.64.3,1.17.64,1.13s1,.26,1,.49-.07.18-.24.1c-.91-.38-1.14-.18-.84.71.17.49.25.55.57.52s.63.28.37.6a.5.5,0,0,0-.09.45c.08.19.16.16.49-.24s.43-.45.63-.29.23.42.23.9v.7l.67-.65a2.23,2.23,0,0,1,1-.65c.31,0,.54-.34.4-.57a1.1,1.1,0,0,0-.63-.13c-.46,0-.66-.1-1.18-.61A4.2,4.2,0,0,1,97.49,25ZM87.42,16.92a1.19,1.19,0,0,0,.28-.51.38.38,0,0,0-.14-.28c-.15-.09-.43.49-.42.89C87.14,17.21,87.2,17.19,87.42,16.92ZM84.8,21.09c-.07.14-.28.52-.46.84-.32.59-.25.77.15.33.25-.27.69-1.43.54-1.44S84.88,20.94,84.8,21.09Zm.33-.55a2.93,2.93,0,0,0,.59-.9c.45-.85.5-1.21.16-1-.14.09-.3.4-.7,1.39C85,20.49,85,20.54,85.13,20.54Zm-.4,3.1c0,.05.26.07.59,0a1.69,1.69,0,0,0,1.2-.7c.52-.55.6-.71.6-1.25,0-.73-.18-.79-.75-.23A12.11,12.11,0,0,0,84.73,23.64Zm-5.92,3a6,6,0,0,1,.62-1,3.24,3.24,0,0,0,.55-1,1.47,1.47,0,0,1,.65-.73c.51-.34.6-.46.53-.74a1,1,0,0,1,.06-.61,3.75,3.75,0,0,0,.23-.94,3.76,3.76,0,0,1,.26-1,5.78,5.78,0,0,0,.35-1.12,12,12,0,0,1,1.77-3.36c.68-.92.33-1.13-.7-.43a1.86,1.86,0,0,0-1,2,2.81,2.81,0,0,1-1.27,2.53,5.32,5.32,0,0,0-.68.66.32.32,0,0,1-.25.1.37.37,0,0,0-.29.21c-.09.25-.84.28-.92,0a.14.14,0,0,0-.22-.06c-.21.12-.23.65,0,.65s.13.38-.28.74a3.6,3.6,0,0,0-.65.83,4.13,4.13,0,0,1-.49.74,3.14,3.14,0,0,0-.4,1.33,6.55,6.55,0,0,1-.65,2.6c-.37.57-.18.54.52-.07a4,4,0,0,1,.72-.56A4.32,4.32,0,0,1,76.3,29c-.26.23-.27.33-.06.89s.21.71.28,2.87a9.19,9.19,0,0,1-.1,2.63c-.19.44-.11.92.13.78a.43.43,0,0,0,.14-.33,3.15,3.15,0,0,1,.36-.92c.42-.83.43-.94.09-1.23s-.24-.33-.13-1.33c.15-1.27.31-1.75.72-2.11.2-.18.3-.21.35-.08.09.29.4.2.65-.18a.84.84,0,0,0,.09-.87A5.94,5.94,0,0,1,78.81,26.67Zm-3.89,3.47c-.57.14-.6.17-.6.72v.51l.49-.47a1.75,1.75,0,0,0,.49-.66C75.31,30.11,75.19,30.08,74.92,30.14ZM75,21.88c.13-.13.19-.27.15-.32s-.39.07-.39.33S74.79,22.1,75,21.88Zm3.56-5.7a.32.32,0,0,0,.22-.15c0-.07,0-.14-.14-.14a.21.21,0,0,0-.22.14A.15.15,0,0,0,78.57,16.18ZM74.7,19.34c.12.32.37.1,1.41-1.18A7.79,7.79,0,0,1,77.22,17l.53-.13c.29-.07.36-.15.3-.37a.67.67,0,0,0-.19-.35,14.17,14.17,0,0,0-2.63,2C74.87,18.57,74.62,19.14,74.7,19.34Zm-1.34,5c0,.45.31.21.8-.6s.54-1,.33-1A3.67,3.67,0,0,0,73.36,24.33Zm-1.69,1.84c0,.09.13,0,.29-.17a1.16,1.16,0,0,0,.27-.49c0-.09-.13,0-.28.17A1.1,1.1,0,0,0,71.67,26.17Zm-.61,1.73c0-.11-.26,0-.61.35a3.43,3.43,0,0,1-.65.53,2.41,2.41,0,0,0-.56.28l-.46.28h.79a4,4,0,0,0,1.27-.2A4.71,4.71,0,0,0,72,28.32c.64-.58.66-.62.32-.62a.75.75,0,0,0-.52.19C71.59,28.13,71.15,28.14,71.06,27.9ZM5.16,21.28a2.81,2.81,0,0,1,.49,1,4.06,4.06,0,0,0,.25.88c.12.28.18.31.27.15a.34.34,0,0,1,.41-.13c.3.08.3.05.21-.72a3,3,0,0,0-1.15-2.23c-.73-.68-1-.87-1.13-.75S4.77,20.77,5.16,21.28Zm.33,9.27c-.13.76.12.73.42-.06l.25-.62-.42-.68c-.22-.37-.47-.67-.54-.66a1.72,1.72,0,0,0-.46.64,1.49,1.49,0,0,0-.25,1.14c.13.67.37.54.37-.19,0-.37.06-.55.19-.55C5.42,29.57,5.59,30,5.49,30.55Zm-.07-4.28c.32.19.49-.59.33-1.5s-.45-1.4-.45-.63a3.07,3.07,0,0,1-.24,1.05,2.49,2.49,0,0,0-.24,1.47c.12.19.3.1.38-.19S5.34,26.22,5.42,26.27ZM2.78,21.46a.36.36,0,0,0,.6.26.59.59,0,0,1,.26-.16c.22,0,.68,1.34.69,2l0,.71.19-.77A1.91,1.91,0,0,0,4.45,22,6.54,6.54,0,0,0,2.5,19.39c-.51-.17-.54.07-.13.95A5.16,5.16,0,0,1,2.78,21.46Zm1.4,3.33a.29.29,0,0,0-.22.43c.15.23.35.15.35-.14S4.25,24.79,4.18,24.79Zm-.55-2c-.25-.26-.3,0-.12.47l.17.48,0-.4A.79.79,0,0,0,3.63,22.79ZM1.38,24.6a4.31,4.31,0,0,0,.72,1c.5.55.6.61.64.37a4.37,4.37,0,0,0-.32-1.24,4.51,4.51,0,0,0-.63-1.22.8.8,0,0,1-.28-.4c0-.09-.08-.12-.17-.09S1.17,24.05,1.38,24.6Zm27.11,19,.07.38.52-.28A12,12,0,0,0,30.17,43a5.46,5.46,0,0,0,1.6-1.69c0-.08-.21,0-.46.15s-.64.41-.87.54a4.56,4.56,0,0,0-.81.63c-.26.27-.49.38-.67.33C28.6,42.84,28.4,43.09,28.49,43.56Zm.68-4.46c.12-.05.22-.15.22-.22s-.32-.07-.39.14S29,39.15,29.17,39.1ZM27,46.05a.81.81,0,0,0,.48-.28c.39-.43.11-.52-.32-.1S26.84,46.05,27,46.05ZM27,47.66a.74.74,0,0,0,.31-.64c0-.51-.32-.49-.4,0a1.24,1.24,0,0,1-.27.58C26.32,47.93,26.53,48,27,47.66Zm-2.34,2.87c0,.1,0,.16.12.12a.4.4,0,0,0,.25-.24c0-.11,0-.16-.12-.13A.51.51,0,0,0,24.61,50.53Zm-3.83,4.22c0,.19.45.15.85-.08a1.75,1.75,0,0,1,.74-.21,1.17,1.17,0,0,0,.77-.39l.38-.38-.32,0a2,2,0,0,0-1,.38,4.11,4.11,0,0,1-1,.51C21,54.58,20.78,54.68,20.78,54.75ZM24.57,73.1c-1.23.11-1.43.33-.42.47.68.1,1.35.44,1.35.69s.53.7.76.7.28-.24.38-.56c.19-.63.08-.86-.59-1.2A2.71,2.71,0,0,0,24.57,73.1Zm11-17.22c0-.07-.13-.06-.28,0s-.29.17-.29.2.13,0,.28,0S35.52,56,35.52,55.88Zm6.23,3.69a1.39,1.39,0,0,0,.39-.2,7.62,7.62,0,0,1,1.46-.49c.63-.16,1.68-.47,2.33-.7a17.21,17.21,0,0,1,4.49-.89c.69,0,.86-.06,1.17-.39l.35-.39h-.46a6.3,6.3,0,0,0-1.23.2c-2.11.53-3.07.75-3.62.84a1.46,1.46,0,0,0-.67.22.51.51,0,0,1-.37.13,22.3,22.3,0,0,0-3.72,1.26C41.68,59.32,41.61,59.57,41.75,59.57Zm.93-6.08c0,.26.28.24,1.19-.1.65-.24,1.21-.73,1-.9A6.44,6.44,0,0,0,42.68,53.49Zm1.14-1.36a.52.52,0,0,0,.27-.35c0-.17-.05-.18-.28,0s-.5.53-.34.53A1.5,1.5,0,0,0,43.82,52.13Zm-1.2,2.53c-.19.18.06.45.31.35l1.57-.58c.73-.27,1.67-.6,2.07-.73.85-.27,1.07-.43.59-.43a5.15,5.15,0,0,0-2,.55,8.33,8.33,0,0,1-1.47.49A6.31,6.31,0,0,0,42.62,54.66Zm2.85-2.29c-.33.3-.34.53,0,.4l1.38-.49c.62-.22,1.32-.5,1.55-.62a2.07,2.07,0,0,1,.58-.21.31.31,0,0,0,.24-.13C49.44,50.94,46,51.92,45.47,52.37ZM46.21,50a.41.41,0,0,0,.24-.24c0-.11,0-.16-.12-.13a.51.51,0,0,0-.25.25C46.05,50,46.1,50.05,46.21,50Zm.33,1.15s.1-.06.15-.14,0-.14-.07-.14a.14.14,0,0,0-.14.14C46.48,51.1,46.5,51.16,46.54,51.16Zm1.4-.44c.3-.13.5-.39.31-.39a1.88,1.88,0,0,0-.93.43C47.32,50.93,47.51,50.92,47.94,50.72Zm2.26-3c0-.08,0-.15-.12-.15a.43.43,0,0,0-.3.14c0,.08,0,.14.13.14A.38.38,0,0,0,50.2,47.67Zm-.29,1.13c-.08.14.74,0,1.1-.17s.33-.4.09-.4A3.13,3.13,0,0,0,49.91,48.8Zm-1.19,1.54c0,.14.45.1,1.16-.1a.77.77,0,0,0,.4-.36c.15-.28.13-.29-.36-.21S48.72,50.11,48.72,50.34Zm-4.09,7.12,2.6-.49c.62-.11,1.75-.35,2.53-.54a15.84,15.84,0,0,1,1.75-.35c.41,0,.69-.19,1-.71s.12-.57-.52-.37c-.23.07-1,.27-1.76.45s-1.81.49-2.39.68a18.24,18.24,0,0,1-1.82.49,7.81,7.81,0,0,0-1.59.49,4.61,4.61,0,0,1-1,.36.35.35,0,0,0-.28.14C43.05,57.78,42.91,57.8,44.63,57.46Zm3.19,4c.06-.39-.25-.43-.58-.07s-.16.48.25.42A.37.37,0,0,0,47.82,61.45Zm1-1.16c-.3,0-.71.36-.6.54s.22.2.53-.07S49.05,60.29,48.79,60.29Zm1-.42c0-.07,0-.14-.13-.14s-.22.06-.22.14a.13.13,0,0,0,.13.14A.3.3,0,0,0,49.75,59.87Zm1.42-1.76a.64.64,0,0,0-.52.06c-.22.13-.27.12-.27-.05s-.88-.29-1.12,0a.89.89,0,0,1-.57.21,15.23,15.23,0,0,0-3.43.75,16.55,16.55,0,0,0-4.19,1.44,4.87,4.87,0,0,1-.83.52c-1.08.54-1.44,2-.6,2.45a2.64,2.64,0,0,1,.7.94c.19.41.44.75.55.75s.29.54.22,1.42a1.07,1.07,0,0,0,.41.81c.43.43.44.47.34,1.3l-.1.85.36-.24c.68-.44.84-.21.72,1.06s0,1.32.39.84.74-.17.87.44a.67.67,0,0,0,.36.51c.15,0,.27.12.27.18s.12.14.26.17a9.34,9.34,0,0,1,1.81,2.55l.17.4,1.23-.09c1.27-.09,2,0,2.35.41a2.43,2.43,0,0,0,1.94.06,4,4,0,0,0,1-.44c.38-.26.42-.26.58,0,.37.5,1,.12,1.05-.6a1.26,1.26,0,0,0-.37-.74,1.1,1.1,0,0,0-.95-.39,1.49,1.49,0,0,0-.71.12,3.65,3.65,0,0,1-1.74.46A.65.65,0,0,0,51,74c-.14,0,0-.16.35-.31s.86-.38,1.22-.57a2,2,0,0,1,2.29,0c.6.4.84.31.69-.28s-1.13-.83-2.52-.37a10.07,10.07,0,0,0-1,.41,3.91,3.91,0,0,1-.7.22,4.65,4.65,0,0,0-.89.3c-.4.21-1.5.14-1.49-.09s1.59-.77,3.75-1.38c.18,0,.3-.15.29-.23s-.91-.13-1.55.18a5,5,0,0,1-2.4.74c-.49,0-.6,0-.72.29-.24.54-.52.37-.78-.46-.16-.52-.31-.75-.45-.73s-1-.91-.89-1.05.25,0,.44.08c.47.21.46.22.38-.19a1.44,1.44,0,0,0-.6-.74c-.61-.43-.71-.74-.23-.74.22,0,.11-.09-.36-.3l-.67-.3-.57.45c-.31.25-.6.42-.64.38s.24-.5.9-.89.66-.34.95-.18a.82.82,0,0,0,.57.09c.23-.09.23-.11,0-.37a.8.8,0,0,0-.43-.28.7.7,0,0,1-.4-.23c-.21-.21-.28-.2-.91.14a4.25,4.25,0,0,1-.79.36c-.17,0,.67-.84.84-.84a1.32,1.32,0,0,0,.51-.27,1.29,1.29,0,0,1,.59-.28c.26,0,.47-.25.33-.39s-.22,0-.38.08-.29.15-.36-.09-.4-.26-1.5.31c-.77.4-1.2.48-1,.17a8.74,8.74,0,0,1,2.09-1c.37-.16.46-.27.46-.6s.08-.43.36-.49.36-.17.34-.61c0-.06-.23-.11-.52-.11s-.52-.07-.52-.17a.43.43,0,0,0-.1-.25,3.74,3.74,0,0,0-1.66.53c-.4.32-1.15.68-1.22.6-.25-.25.93-1,2.32-1.41.55-.18.8-.2.91-.09.27.28.37.17.28-.28s0-.49.91-.19c.22.08.31,0,.31-.1,0-.84-1.73-.82-3.61,0-1.32.61-1.3.6-1.3.35s.41-.57,1.16-.85a3.1,3.1,0,0,0,.91-.48c.19-.19.46-.22,1.48-.18,1.25.06,1.26.06,1.72-.39a4.11,4.11,0,0,1,.78-.61,1.58,1.58,0,0,0,.52-.48c.21-.31.21-.31-.59-.31a5.88,5.88,0,0,0-1.52.23l-.73.24.62.15c1,.24.85.44-.24.38a8,8,0,0,0-4,.95c-.83.5-1,.51-1,.06,0-.19.07-.35.16-.35a1.59,1.59,0,0,0,.57-.45c.35-.36.76-.55,2.2-1a18.47,18.47,0,0,1,5.26-1c1.17,0,1.43-.08,1.76-.34S51.42,58.21,51.17,58.11Zm1.46-1.59c0-.13-.19,0-.52.28s-.59.53-.67.59-.06.16.07.25.32,0,.66-.39A2,2,0,0,0,52.63,56.52Zm.17-2.11c.37,0,.82-.31.83-.57s-2.77,0-3.51.31a5.15,5.15,0,0,1-1.72.53.6.6,0,0,0-.46.14,5.43,5.43,0,0,1-1.1.62c-1.07.51-1,.62.12.29A43.3,43.3,0,0,1,52.8,54.41Zm.87.84a1.27,1.27,0,0,0-.61.58c0,.19.34,0,.53-.3S53.72,55.25,53.67,55.25Zm.66-1.41c0-.08-.07-.11-.14-.06a.3.3,0,0,0-.14.23c0,.07.06.1.13.05A.32.32,0,0,0,54.33,53.84Zm.25-1.52c.06-.15,0-.17-.48-.09s-.89.16-1.31.22-1.16.21-1.62.33-1.09.26-1.4.3a3.15,3.15,0,0,0-1.73.6,2.43,2.43,0,0,1-.94.43,9.26,9.26,0,0,0-1.26.44,2.94,2.94,0,0,1-.73.26,3.79,3.79,0,0,0-.85.35c-.77.41-1.11.7-.67.58.15-.05.69-.17,1.2-.29a17.61,17.61,0,0,0,3.61-1.28,8.4,8.4,0,0,1,1.14-.47,8.15,8.15,0,0,0,1-.35,10.47,10.47,0,0,1,3.12-.74C54.2,52.55,54.54,52.45,54.58,52.32Zm.25-.85c.36,0,.73-.37.54-.55a2.42,2.42,0,0,0-1.11.06,11.37,11.37,0,0,1-1.5.2.94.94,0,0,0-.6.14.7.7,0,0,1-.49.14,3.31,3.31,0,0,0-2.33.78c-.48.52-.62.58-.62.25s-.56-.18-1.12.18c-.33.21-.34.23-.07.33.44.18.66.15,1.69-.2A31.66,31.66,0,0,1,54.83,51.47Zm.4,4.35c.05-.08,0-.14-.06-.14a.15.15,0,0,0-.15.14c0,.08,0,.14.06.14S55.18,55.9,55.23,55.82ZM55.62,52a.92.92,0,0,0-.59.58c0,.23.31.07.53-.27C55.68,52.16,55.71,52,55.62,52Zm.26-2.29c0-.21-1.5,0-3.38.52-1.7.44-2.37.69-2.38.86s.1.05.23,0,.83-.21,1.58-.36A18,18,0,0,0,55.88,49.74Zm-4.54-.25c-.21.21.28.18,1.12-.05.37-.1,1.32-.3,2.09-.43a7.11,7.11,0,0,0,1.54-.37c.19-.17-.24-.14-1.47.09A14.55,14.55,0,0,0,51.34,49.49ZM54,48.08A2.19,2.19,0,0,1,54.7,48c.54,0,.4-.24-.18-.32-.81-.11-2.42.29-2.42.6S53.45,48.29,54,48.08Zm2.08,6.69c0-.05-.12,0-.17.17s-.07.21.07.08S56.16,54.81,56.12,54.77ZM56.41,51s-.12,0-.17.17-.06.22.08.08S56.46,51,56.41,51Zm1.15.36a.14.14,0,0,0-.14-.14.13.13,0,0,0-.14.13.14.14,0,0,0,.14.14A.13.13,0,0,0,57.56,51.34ZM62.81,53a.87.87,0,0,0,.57-.13c0-.09-.14-.15-.48-.15s-.57.07-.57.14S62.54,53,62.81,53Zm5.86,3c0-.08,0-.17-.12-.2-.33-.07-1.18.11-1.18.25C67.37,56.43,68.46,56.39,68.67,56.08ZM75.46,59c-.23,0-.36.06-.31.14s.22.17.49,0S75.76,59,75.46,59Zm1.1-.84c.1-.17-.18-.17-.57,0s-.24.12.1.13A.71.71,0,0,0,76.56,58.13Zm2.18-3.05a.93.93,0,0,0-.18-.37c-.17-.22-.26-.17-1.16.68a11.29,11.29,0,0,1-1.71,1.35c-.41.23-.74.51-.74.62,0,.29.06.27,1.39-.39C77.41,56.44,78.74,55.39,78.74,55.08Zm.92,5.23a.4.4,0,0,0,0-.31c-.12-.12-.79.2-.79.38S79.57,60.54,79.66,60.31Zm-.58-1.61c.26,0,.35-.08.35-.28s-.05-.28-.11-.28a.84.84,0,0,0-.35.28C78.74,58.68,78.75,58.7,79.08,58.7Zm1.52,6.74c-.21,0-.39.34-.58,1.07-.08.33-.07.35.22.2a1.13,1.13,0,0,0,.44-.52C80.87,65.69,80.85,65.44,80.6,65.44Zm8.46,10.81c0-.22-.43-.53-.73-.54s-.31.21.06.48S89.06,76.47,89.06,76.25Zm2.67-2.45a6.46,6.46,0,0,0,1.2,0c.81,0,1.19-.07,1.19-.18a.83.83,0,0,0-.63-.61A7,7,0,0,0,91.73,73.8ZM87.66,53.11c-.4,0-.42-.06-.19-.69.13-.38.12-.48-.09-.63s-.21-.24-.09-.46.11-.33,0-.43,0-.22.22-.39c.43-.28.47-.63.12-.95s-.29-.17-.92.54-.77.76-1.09.76c-.48,0-.5-.13-.19-1a7,7,0,0,0,.25-2.92c-.13-.34-.13-.34-.54.21-.22.3-.54.7-.71.9a5.5,5.5,0,0,0-.58.83c-.19.35-.36.48-.64.49s-.38,0-.38-.37a8.74,8.74,0,0,0-.42-1.64A9.59,9.59,0,0,1,82,45.81c0-.56-.45-.29-.77.45-.12.29-.28.49-.36.44a.31.31,0,0,0-.33.07c-.11.09-.23.11-.26,0a24.44,24.44,0,0,1-1.07-5.53V40.8l-.67.73c-.5.55-.76.72-1,.72a1.2,1.2,0,0,1-.39,0s.11-.31.23-.65a10,10,0,0,0,.31-2.37l.07-1.76-.37-.17a1.36,1.36,0,0,0-1.54.14c-.42.41-1.07.47-1.07.1a10.67,10.67,0,0,1,.59-1.7,4.2,4.2,0,0,0,.5-2.74,7.73,7.73,0,0,0-.17-1.47c0-.08-.27,0-.53.28-.85.82-2.62,1.37-2.62.82a7.42,7.42,0,0,1,.5-1.17,3.57,3.57,0,0,0,.49-1.94,2.9,2.9,0,0,0-.06-.92,5.15,5.15,0,0,0-1.39.72,5,5,0,0,1-2.87.76c-2.74.1-2.76-.91,0-1.93a2,2,0,0,0,1.18-.79c.15-.25.35-.45.46-.45s.43-.53.3-.66a2.83,2.83,0,0,0-1,.21,11.36,11.36,0,0,1-1.45.35l-2,.28a41.12,41.12,0,0,1-4.15.27c-1.51,0-2.84.1-2.94.14s-1.06.09-2.1.13l-2.07.07c-.09,0-.13.09-.09.2s-.18.78-.39.78a3.86,3.86,0,0,1-.85-.35,4.52,4.52,0,0,0-.83-.35,4.66,4.66,0,0,1-.87-.34,15.24,15.24,0,0,0-2.62-1c-.26-.06-.93-.24-1.47-.41-.9-.29-1.16-.3-3.22-.23a21.64,21.64,0,0,0-6,1,19.66,19.66,0,0,1-6.53.94,8.52,8.52,0,0,1-3.06-.86A34.42,34.42,0,0,0,25,24.34,4.83,4.83,0,0,0,22.7,24a10,10,0,0,0-3.13.42,8.28,8.28,0,0,0-2.24,1,.89.89,0,0,1-.65.18c-.19-.06-.44.12-.95.67A13.12,13.12,0,0,0,13.12,30c-.39.78-.57,2-.65,4.49a15.38,15.38,0,0,0,.14,3.38c.49,2.6.13,4-1.23,4.89a1.28,1.28,0,0,1-1.43.26A2.81,2.81,0,0,1,8,41.58c-1.1-1.6-1.81-3.84-2.48-7.71-.14-.84,0-1.29.37-1.53a14.19,14.19,0,0,0,1.83-3.6c.35-.89.77-1.93.94-2.32.59-1.41.46-2.21-.49-2.94a3.31,3.31,0,0,0-.53-.36,8.66,8.66,0,0,0-.06,1.4,4.84,4.84,0,0,0,.1,1.41c.06,0,.12-.11.13-.25,0-.71,0-.69.56-.61.3,0,0,1.1-.7,2.43-.38.72-.72,1.4-.76,1.51-.17.47-.29,0-.15-.64l.15-.64-.32.3c-.35.33-.57.19-.42-.28A4.38,4.38,0,0,0,6.4,26c-.07,0-.16.09-.21.29s-.17.35-.27.35-.38.63-.3,1.06a3.35,3.35,0,0,0,.77,1.53c.38.34.37.69,0,1.56S5.61,32,5,31.84c-.4-.09-.55-.22-.81-.73-.38-.75-.33-1.16.26-2.43.39-.82.4-.88.17-1.25s-.47-.49-.68-.22c-.38.51-.77,3.09-.48,3.26s.17.36-.12.36-.37-.11-.58-1.49c-.27-1.78-.39-2.15-.92-2.74a2.46,2.46,0,0,0-.61-.55,9.66,9.66,0,0,0,.23,3.27c.21.74.35.93,1.31,1.81,1.31,1.2,1.57,1.75,1.8,3.81a21.87,21.87,0,0,0,.5,2.73,10,10,0,0,1,.33,1.68.86.86,0,0,0,.12.52.9.9,0,0,1,.2.48c.25,1.25,3,3.89,4.39,4.17.36.08.45,0,.51-.19s.3-.37.64,0,.72.23.72-.21.13-.52.44-.35.38-.12.11-.39,0-.46.53-.46.5,0,.42-.33a.48.48,0,0,1,.13-.51.52.52,0,0,0,.13-.57c-.05-.27,0-.42.15-.51A2.28,2.28,0,0,0,14,39c-.22-.24-.21-.27,0-.45s.24-.25.1-.67A4.17,4.17,0,0,1,14,36.48,2.46,2.46,0,0,0,14,35.4c-.1-.12-.09-.26,0-.45s.14-.35,0-.65-.15-.4,0-.53a1,1,0,0,0,.17-.63,1.75,1.75,0,0,1,.3-.87,1.11,1.11,0,0,0,.21-1.05c-.09-.6-.07-.65.26-.78s.82-.86.7-1.18c-.05-.14,0-.25.18-.31a1,1,0,0,0,.75-.86c0-.3,0-.34.43-.28s.65-.07.72-.59c0-.28.12-.34.4-.32a.84.84,0,0,0,.89-.57c.07-.19.18-.24.41-.16a1,1,0,0,0,1.08-.12c.19-.18.32-.19.74-.06s.55.12.74-.07.25-.21.58,0a.52.52,0,0,0,.71,0c.33-.18.38-.16.66.19s.53.48.79.18.32-.27.61.21c.13.24.3.4.36.36.23-.14,1,.25,1.13.56a.72.72,0,0,0,.58.42c.76.15,1,.23,1,.35s-.14.15-.31.17a.45.45,0,0,0-.36.24c-.06.15.05.18.51.1.64-.1.7,0,.34.37-.21.23-.22.28,0,.39s.5.17.7-.07a.57.57,0,0,1,.37-.21c.26,0,.24.41,0,.73s0,.34.42,0c.28-.18.35-.19.5,0s.08.29-.21.63l-.37.44.33.27a1.37,1.37,0,0,0,.43.28c.23,0,.09.26-.19.33s-.26.12-.13.37a3.79,3.79,0,0,1-.73,2.43,3.06,3.06,0,0,0-.4.89c0,.39.3.13.5-.42a4,4,0,0,1,1.23-1.68.28.28,0,0,1,.41,0c.15.15.13.23-.1.42a3.49,3.49,0,0,0-.52.56.52.52,0,0,0,0,.69c.18.34.16.41-.3.91s-.61.75-.24.54a4.75,4.75,0,0,0,1.37-1.38c.6-.79.7-.85.84-.5s-.46,1.12-1.38,1.91c-.56.48-.78.77-.83,1.11s0,.5.12.58.24.59,0,1-.2.34,0,.42a.52.52,0,0,0,.39,0,17.09,17.09,0,0,0,3-2.73c1-1.12,1.12-1.23,1.18-1s-.12.53-.8,1.24a9,9,0,0,0-1,1.14c-.07.2-.51.58-2.09,1.82a3.31,3.31,0,0,1-1,.59c-.23,0-.31.16-.34.58L29.5,42l.42-.25c.5-.29,2.6-1.85,4.28-3.18a6.9,6.9,0,0,1,1.32-.91.77.77,0,0,1,.14.43c0,.31,0,.39-.25.39-.5,0-3.36,2.17-3.36,2.55a.12.12,0,0,0,.12.11c.07,0,.09.16,0,.35A8,8,0,0,1,30,43.72a3.76,3.76,0,0,0-.74.79c-.19.27-.55.73-.81,1-.44.48-.43.77,0,.35.11-.1.6-.48,1.11-.83a11.84,11.84,0,0,0,1.18-.94c.33-.36.5-.37.5,0s-.83,1.08-2,1.91c-.45.31-.8.67-.8.8,0,.42.36.28,1.16-.45.42-.38.8-.65.85-.6.24.24,0,.62-.58,1.07-2.74,2-3.46,2.62-3.95,3.41A8.31,8.31,0,0,1,25,51.35c-.45.44-.43.76,0,.59s.91-.17.9.15a.43.43,0,0,1-.22.37.77.77,0,0,0-.35.41c-.13.34-.47.45-.62.19s-.34-.14-.58.36c-.38.79-.95,1.32-1.44,1.32a1.1,1.1,0,0,0-.65.22,7.3,7.3,0,0,1-1.17.72,11.45,11.45,0,0,0-1.15.66,1.13,1.13,0,0,1-1.49,0,1.48,1.48,0,0,0-1.76-.11,2.06,2.06,0,0,0-.5,1.5.81.81,0,0,1-.13.58,1.93,1.93,0,0,0-.2.92c0,.58-.09.76-.78,1.62s-1,1.46-.7,1.46a5.8,5.8,0,0,0,.83-.77c.84-.84,1.07-.94,1.06-.42a.87.87,0,0,1-.41.65c-.35.26-.4.37-.33.78a5.14,5.14,0,0,1-.69,2.35c-.14.15-.17.78,0,.78a1.89,1.89,0,0,0,.62-.74,5.25,5.25,0,0,1,.86-1.64c.28,0,.29.45,0,1a10.49,10.49,0,0,1-1.52,2.11c-.22.19-.23.17-.14-.2l.1-.4-.64.52c-.66.53-.93.93-.64.93a1,1,0,0,0,.43-.24c.26-.23.28-.23.46,0s.24.5.07,1.23c-.1.43-.08.56.16.77a1.84,1.84,0,0,1,.4.57c.12.31.4.44.41.17a.14.14,0,0,1,.14-.14c.2,0,.17.38-.08.85a.68.68,0,0,0,0,.82c.12.22.18.44.14.48a2.2,2.2,0,0,0,.12.83,3.71,3.71,0,0,1,.13,1.2c-.07.49.12.65,1,.81.63.12.81.41.92,1.47.09.87.38,1.08.81.58a.8.8,0,0,1,.5-.29c.2,0,.23.07.16.37l-.1.38.83-.08a3.59,3.59,0,0,1,1.11,0A4.75,4.75,0,0,0,23.34,77a3.75,3.75,0,0,1,1.26-.12c.42.08.44.07.54-.49a2.45,2.45,0,0,0-.32-1.88,3.76,3.76,0,0,0-2.41-.24c-1.19.3-1.33.27-1.38-.33,0-.3-.13-.57-.24-.61a.33.33,0,0,1-.2-.27c0-.12.3-.21.95-.26s1.23-.14,1.58-.21l1.43-.3c1.16-.24.87-.46-.43-.34a17.16,17.16,0,0,1-3.85,0c-.42-.09-.58-.07-.8.13-.38.35-.74.18-.62-.29s.07-.36-.19-.22c-.5.27-.63.19-.54-.26,0-.23,0-.42-.05-.42s-.55-.78-.47-1.1a.35.35,0,0,0-.21-.44c-.39-.21-.37-.35.05-.55s.48-.64.15-.77-.26-.52.07-.51.63-.61.44-1c-.09-.16,0-.34.15-.6s.26-.42.09-.69-.15-.34.13-.53a.7.7,0,0,0,.32-.65.67.67,0,0,1,.29-.62c.22-.14.28-.3.25-.63s0-.46.24-.5c.38-.07.63-.29.63-.56A6.16,6.16,0,0,1,22.09,60c1-.62,5-1.65,5.44-1.4s5-1.15,5.21-1.69a.84.84,0,0,1,.5-.4A4.26,4.26,0,0,0,35,55.3c.09-.3.48-.32.48,0s.34.21.83-.44.5-.59.57-.39.13.19.4-.15.4-.32,0,.31-.29.69.3.39c.34-.17.41-.26.26-.35s-.21-.12.3-.44a7,7,0,0,0,1.13-1.36,6.86,6.86,0,0,1,.87-1.13c.23,0,.09.4-.31.92a10.2,10.2,0,0,0-1.22,1.74,3.66,3.66,0,0,0,1.39-1,12.46,12.46,0,0,0,1.39-2.69c.2-.6.36-.87.47-.76a4.87,4.87,0,0,1-.56,1.9,1.05,1.05,0,0,0-.18.61c0,.25.09.24.67-.15s1-.83.72-.83c-.08,0,0-.34.2-.76s.44-1.11.57-1.54.28-.78.36-.78.15.67-.1,1.24A13.26,13.26,0,0,0,43,51.08a6,6,0,0,0,1.37-.94A6.62,6.62,0,0,0,45,47.79c.21-1.4.45-1.25.4.25,0,1.15.08,1.43.38.88a.87.87,0,0,0,.12-.39,2.17,2.17,0,0,1,.21-.66,6,6,0,0,0,.35-1.46c.06-.58.17-.93.3-1s.18.16.12,1.14,0,1.18.16,1.08c.62-.33.78-.7.8-1.88,0-1.67,0-1.77.28-1.77s.2.16.12,1c-.11,1.1,0,1.44.46,1a4,4,0,0,0,.2-2.4c-.07-.27-.08-.53,0-.57s.45.32.52.91.22.71.55.21a3.53,3.53,0,0,1,2.44-1.09c1.12-.19,1.58-.36,1-.38a11.13,11.13,0,0,1-1.86-.21s0-.16,0-.29.23-.22,1.1-.14c2.07.2,3.8.74,3.87,1.21,0,.28-.17.41-.31.19s-2.53,0-3.88.36L51,44.26a2.33,2.33,0,0,0-1,.42c-.08.24.17.22,1.61-.11a11.39,11.39,0,0,1,2.7-.27c1.65,0,1.56,0,3.79,0,1.33,0,1.51,0,1,.1a2.6,2.6,0,0,0-.77.26.88.88,0,0,1-.5.13.81.81,0,0,0-.5.14,2.57,2.57,0,0,1-1.2,0,13.3,13.3,0,0,0-3.84.24,1.5,1.5,0,0,1-.75,0c-.19-.11-1.12.29-1.77.77-.34.25-.56.28,1.81-.22a7.66,7.66,0,0,1,2.53-.21l1.47.09c.64,0,3.86-.25,4.25-.35s.38-.05.38.11c0,.43-.45.56-2.73.78l-1,.09.64.3c.94.45,1.05.47,2.94.35,1-.06,1.78-.09,1.81-.07s0,.14-.11.25a3.18,3.18,0,0,1-1.44.29c-1.19.09-2,.28-1.94.48a1.54,1.54,0,0,0,.27.4l.26.32,1.38-.21L62.24,48c.32-.06.52,0,.52.05s-.23.18-.52.24a9.1,9.1,0,0,0-1.27.36,4.66,4.66,0,0,1-1.28.27c-.69,0-1.07.27-.94.67s.36.4.36,0,.47-.4.64-.13c0,.08.26.11.46.07s1.94-.19,3.35-.26c.25,0,.46,0,.46.12s-.45.18-1,.22a6,6,0,0,0-1.58.33,2.53,2.53,0,0,1-2,.07c-.12-.1-.22-.11-.22,0s.36.3.81.5l.8.35,2-.17a18.33,18.33,0,0,0,2.43-.33c.67-.26.83-.16.48.31a4.79,4.79,0,0,1-2,.52c-2,.31-2.46.48-2.21.72s.26.1.54,0A13.54,13.54,0,0,1,65,51.36,5.41,5.41,0,0,0,67,50.85c.54-.23.64-.18.51.22s-.5.49-1.16.49c-.25,0-.46.07-.48.15s-.21.25-.44.39c-.7.43-.33.42.76,0,1.61-.63,2-.68,1.7-.22a20.36,20.36,0,0,1-4.07,2.22c-.48.11-.77.34-.67.51s.63.13,1.16-.23A2.49,2.49,0,0,1,64.9,54,14.17,14.17,0,0,0,68,52.3c1.24-.84,1.65-1,1.65-.86s-.42.78-1,1.1a2.84,2.84,0,0,0-.83.62,3.57,3.57,0,0,1-1,.72c-1,.61-1,.56-.76.7s1.17-.23,3.05-1.56a5,5,0,0,1,1.11-.66c.34,0,0,.53-.5.91a2,2,0,0,0-.61.56,1.49,1.49,0,0,1-.61.46c-.65.33-1.1.8-.9.93a7.78,7.78,0,0,0,2.19-1A.61.61,0,0,1,70.2,54c.13,0,.44-.28.7-.61.51-.65,1-.82,1.15-.36.08.28-.82,1.18-1.84,1.87a5.44,5.44,0,0,0-.68.52c-.18.3,1.71-.6,2.84-1.34.43-.29.82-.48.88-.42s0,.17-.16.27-.24.22-.24.27a3.91,3.91,0,0,1-1.11,1.07.55.55,0,0,0-.3.21c-.14.17-.14.21,0,.21a16.79,16.79,0,0,0,3.5-1.8,5.59,5.59,0,0,1,1.1-.65c.17.17-.21.68-.69.92-.3.15-.55.33-.55.39s-.2.22-.46.35a8.59,8.59,0,0,0-1,.66,13.06,13.06,0,0,1-1.34.84l-.77.42.6-.06a8.06,8.06,0,0,0,3-1.76c.24-.2.62-.48.85-.63a1.75,1.75,0,0,0,.54-.45c.12-.2.38-.25.38-.06a12.51,12.51,0,0,1-2,2.08q-1.62,1.53.52.29c2.25-1.31,3.16-2.18,3-2.86-.06-.26,0-.52.34-1a3.25,3.25,0,0,0,.43-.76,2.9,2.9,0,0,1,.33-.64,3.23,3.23,0,0,0,.42-1.58c.1-1.14.42-2.1.7-2.09a.73.73,0,0,1,.36.12c.15.09.12.13-.1.19s-.37.39-.07,1a1.26,1.26,0,0,1,.14.71.81.81,0,0,0,.08.53c.12.19.1.37-.08.74a1.75,1.75,0,0,1-.35.55,5.43,5.43,0,0,0-.69,1c-.47.77-.56,1-.44,1.24a.37.37,0,0,1,0,.45c-.12.15-.11.3.06.63s.41.54.57.28c.06-.09.2,0,.36.29.25.41.25.49.06,1-.25.73-.12,1.44.25,1.38s.27,0,.1.63a2.45,2.45,0,0,0,.2,1.49,8,8,0,0,1,.35,1.73,4.65,4.65,0,0,0,.16,1c.44,1.23.42,2.08-.12,5.12-.13.71-.15,1.15-.07,1.2a3,3,0,0,1,.41,1.84c0,.72,0,.83.44,1.17a1.2,1.2,0,0,0,1,.34,1.63,1.63,0,0,1,1.58,1.09c.14.3.29.47.32.37a1.17,1.17,0,0,0-.14-.63c-.27-.56-.43-1.23-.32-1.23a1.71,1.71,0,0,1,.94.82A2.43,2.43,0,0,1,85,74c-.21.42-.14.83.15.91s.48.47.18.68-.1.36.94.11a2.26,2.26,0,0,0,1.1-.45c.18-.5.78-.49,1.71,0a4.35,4.35,0,0,0,1.29.35,3,3,0,0,1,1.06.29c.22.17.19.19-.31.19s-.55,0-.29.22c.65.49,3.16,0,3.16-.64a.66.66,0,0,1,.29-.45c.32-.22.23-.38-.23-.38a.52.52,0,0,1-.41-.16c-.07-.1-.35-.13-.77-.08-.74.08-1.26.34-1.26.62s-.26.22-.54,0c-.13-.09-.16-.26-.09-.56.12-.53,0-.55-1-.17-.68.26-.76.26-1.18,0-.57-.29-.37-.5.7-.73.87-.18,2.59-1.08,2.46-1.28s-.71-.15-1.08.14a1.92,1.92,0,0,1-1.91.41,2.15,2.15,0,0,1-1.21-.61,6.89,6.89,0,0,1-1.33-1.72,1.69,1.69,0,0,0-.45-.61c-.41-.4-.43-.46-.21-.58s.3-.53-.1-.71-.47-.54-.07-.54c.15,0,.29-.06.3-.14.07-.56,0-.63-.37-.7s-.56-.48,0-.54c.32,0,.38-.11.38-.45s0-.42-.41-.42c-.62,0-.66-.26-.08-.5.4-.16.5-.28.47-.51s-.14-.3-.6-.31c-.77,0-.8-.41,0-.48.58,0,.61-.13.44-1.18-.07-.42-.14-.53-.4-.53s-.57-.36-.29-.52a2.2,2.2,0,0,0,.45-.51c.22-.36.26-.71.28-2.53,0-2.64,0-2.61.29-2.61s.48.57.48,1.28c0,.3,0,.55.11.55A12.58,12.58,0,0,0,87.65,55C88.1,53.26,88.11,53.11,87.66,53.11Zm-23.44-.5a1.08,1.08,0,0,0,.49-.13c.19-.12.19-.14,0-.13a1.56,1.56,0,0,0-.49.13l-.28.12Zm1.2-.83c.17-.11.15-.14-.1-.14a.5.5,0,0,0-.39.14C64.82,52,65.14,52,65.42,51.78ZM78.23,36.42a.92.92,0,0,0-.13-.32c-.16-.25-.35-.09-.24.2S78.24,36.61,78.23,36.42Zm1.42-.17-.36-.31a.94.94,0,0,1-.35-.72c0-.36,0-.39-.23-.23s-.2.33-.12.9a9.65,9.65,0,0,1,.11,1.16c0,.59.15.53.6-.21Zm-.19,2.49a.74.74,0,0,1-.49.17c-.27,0-.32.07-.32.47s.08.65.23.65a4,4,0,0,0,.4-.56C79.66,38.88,79.77,38.44,79.46,38.74ZM81,43.84a11.13,11.13,0,0,1,.36-1.15c.72-2,.59-2.66-.34-1.75a2,2,0,0,1-.7.5c-.16,0-.17.28-.1,1.44.09,1.4.31,2.49.49,2.49a2.78,2.78,0,0,0,.59-.52A5.12,5.12,0,0,0,82,44c.09-.18.25-.32.35-.32a.55.55,0,0,0,.36-.21c.3-.36-.26-.26-.78.14S81,44.08,81,43.84Zm2.41,1.29c-.2,0-.31,0-.36-.19-.11-.44-.37-.3-.37.2a5.87,5.87,0,0,0,.48,1.92,1.34,1.34,0,0,0,.2-.52C83.73,45.18,83.73,45.05,83.43,45.13Zm.06,2.1c-.16,0-.21,0-.15.17s.53.31.44.05A.38.38,0,0,0,83.49,47.23Zm-2.91-9.44a1.68,1.68,0,0,0-.81.72c0,.07.09.12.2.12.33,0,.43.3.38,1.2s0,.82.2.6a1.59,1.59,0,0,0,.3-1C80.91,38.52,80.79,37.79,80.58,37.79Zm8.2,20.73a8.18,8.18,0,0,0,.55-.92c.48-.92,2.24-2.66,2.69-2.65a2.43,2.43,0,0,0,1-.42,7.87,7.87,0,0,1,1.11-.63c.54-.22.67-.57.17-.45A12.56,12.56,0,0,0,90,56a6.39,6.39,0,0,0-1.4,2.51C88.56,58.79,88.56,58.79,88.78,58.52ZM90.2,51.4c.21,0,.26-.15.23-.53s-.31-1-.31-.54A4.72,4.72,0,0,1,90,51C90,51.4,90,51.45,90.2,51.4Zm-.57,1.21c-.2,0-.36.19-.36.3s.08.2.32.13a1.28,1.28,0,0,0,.44-.22C90.24,52.63,90,52.51,89.63,52.61Zm.92-4.67c0,.15.06.27.14.27s.18-.71,0-1.79l-.08-.73-.29.38c-.16.21-.53.65-.84,1s-.52.67-.44.91c.33,1.09.48,1.15.76.32a1.2,1.2,0,0,0,.08-.62c-.14-.22.2-.34.42-.15A.64.64,0,0,1,90.55,47.94Zm-1.7,6.68c0,.18.11.11.42-.22a3.21,3.21,0,0,0,.42-.52c0-.15-.25,0-.53.22A.94.94,0,0,0,88.85,54.62Zm.72.6a.6.6,0,0,0-.59.52c0,.24.15.23.53,0S89.92,55.22,89.57,55.22Zm2.67-4.17a1.84,1.84,0,0,1,.24-.63,3,3,0,0,0,.19-1c0-.81,0-.87-.26-.93s-.32,0-.32.4-.24.77-.42.48-.16-.14-.34,0-.21.36-.09,1.1a2.17,2.17,0,0,0,.31,1C91.88,51.67,92.14,51.51,92.24,51.05Zm-.78.93a3.63,3.63,0,0,0-.19,1.28,2.53,2.53,0,0,0,.45-.55c.21-.31.35-.62.3-.7A.37.37,0,0,0,91.46,52Zm-2.08,7.69c-.45.26-.61.86-.17.62a2.7,2.7,0,0,0,.59-.5C90.19,59.38,90,59.31,89.38,59.67ZM91,57.2c.62-.88.38-.93-.44-.08-.66.68-.78,1.05-.33,1.05.15,0,.28-.06.28-.12A4.18,4.18,0,0,1,91,57.2Zm.11,1.46c-.19-.14-.28-.15-.35,0-.23.35-.09.46.37.29C91.35,58.85,91.34,58.82,91.12,58.66Zm3.61-2-.57.38a3.2,3.2,0,0,1-.69.38c-.24,0-.87.93-.81,1.18s-.24.65-.67.73a.45.45,0,0,0-.33.31c0,.23,0,.21.69-.14a2.71,2.71,0,0,0,1.1-1,13.15,13.15,0,0,1,.83-1.22Zm-.28,1.22c0,.31.53.18.87-.21a6.61,6.61,0,0,1,.89-.8c.31-.23.68-.52.82-.65s.24-.24-.21-.13a3.5,3.5,0,0,0-2,1.15A1.91,1.91,0,0,0,94.45,57.87Zm.43,1a.46.46,0,0,0-.58.34c0,.19.52.13.69-.08S95.1,58.9,94.88,58.85Zm12.47,2.39c.5.37.7.43.7.22s-.58-.57-.9-.57S107,61,107.35,61.24ZM96.6,55c-1.11.82-1.15,1.1-.07.56s1.36-.53,1.26-.13c-.06.21,0,.28.28.31s.64.4.32.4a12.88,12.88,0,0,0-2.07,1.24,1.49,1.49,0,0,1-.49.23,1.18,1.18,0,0,0-.57.41c-.21.28-.22.35,0,.49s.32.07.86-.4a6.76,6.76,0,0,1,2.34-1.27c.25,0-.35.56-.84.79-.26.12-.46.31-.47.41s-.15.2-.4.2-.44.08-.57.44c-.2.57-.11.64.35.27a1.45,1.45,0,0,1,.55-.29.76.76,0,0,0,.4-.25,6.54,6.54,0,0,1,2.15-1.1c.17.16-1,1.07-1.41,1.07a.24.24,0,0,0-.22.25c0,.32,1.44,1.31,1.68,1.16a.43.43,0,0,1,.56.63c-.1.12-.07.24.12.41s.52.08.3-.32-.18-.44.06-.44.28.24.37.57.25.56.36.56c.29,0,.22.42-.16.92a1.23,1.23,0,0,0-.27,1.17c.06.51.17.79.38.93.4.28.46.26.57-.15s.17-.35.4-.32.48.49.59,1.73a1.82,1.82,0,0,0,.92,1.58c.55.29.68.22.69-.32a2.19,2.19,0,0,1,.66-1.56c.38-.14.17-.64-.6-1.42-1.09-1.1-1.63-1.87-1.46-2.05s.28,0,.57.27.42.38.42.11c0-.53.52-.49,1.21.12a2.25,2.25,0,0,0,.92.55c.25,0,.27.06.19.48l-.09.47.57-.07c.67-.09.73.1.19.6l-.37.34.44-.08c.36-.07.44,0,.44.15a.87.87,0,0,1-.35.52.9.9,0,0,0-.35.55c0,.28,0,.28.43,0a1.23,1.23,0,0,0,.64-1.34,6.54,6.54,0,0,0-1.38-2.54c-.31-.32-.89-1-1.28-1.43s-.8-.94-.92-1.06-.45-.52-.73-.87A4.7,4.7,0,0,0,101.29,57a6.48,6.48,0,0,1-1.66-1.16,11.37,11.37,0,0,0-2.83-2c-.09,0-.08.06,0,.17C97.09,54.28,97,54.64,96.6,55Zm8.11,7.84c-.28-.17-.2.23.14.65s.53.49.53.13S105.12,63,104.71,62.79Zm-9-8.2a1.49,1.49,0,0,1-.51.23c-.16,0-.54.28-1.72,1.29a5.31,5.31,0,0,0-1.37,1.8A32.93,32.93,0,0,0,95.63,55C96.21,54.48,96.23,54.22,95.66,54.59Zm-.44-1.33c.15,0,.24,0,.19-.07a.28.28,0,0,0-.27,0C95,53.22,95.06,53.25,95.22,53.26Zm-3,2.6a1.43,1.43,0,0,1-.39.59,3.35,3.35,0,0,0-.74,1.49,5,5,0,0,0,.83-.92,18.51,18.51,0,0,1,1.37-1.53,10.84,10.84,0,0,1,1.37-1c.45-.29.78-.55.74-.59C95.1,53.58,92.21,55.39,92.21,55.86Zm3-7.57c0-1.29-.3-1.61-.57-.6a2.81,2.81,0,0,1-.56,1,.87.87,0,0,0-.32,1l.08.54.28-.37c.14-.2.35-.37.46-.37C95,49.48,95.18,49.05,95.18,48.29Zm1.33-.86c.1-.46-.13-.69-.48-.48-.14.09-.14.22,0,.64S96.36,48.11,96.51,47.43Zm.92-5.18a.51.51,0,0,1-.19-.5c.12-.38-.3-.33-.57.06s-.14,1.23.23,1.33.33.34,0,.56a.66.66,0,0,0-.29.54c0,.3,0,.35-.27.3-.38-.1-.75.19-.63.49s.21.31.88-.26C97.49,44,97.93,42.71,97.43,42.25Zm-1.3-1.73c.08.15.12.15.16,0a.26.26,0,0,0,0-.26h0C96.13,40.12,96,40.33,96.13,40.52Zm1.64-3.09c-.49.44-.58.69-.24.69s.42.38.2.64-.13.25,0,.4.12.23,0,.29c-.39.24,0,1.44.45,1.31a2.6,2.6,0,0,0,.21-1.1C98.55,37,98.49,36.79,97.77,37.43Zm1.33-6.28c-.07-.24,0-.47.68-1.35.21-.3.23-.41.09-.58s-.47-.27-.77.07a.83.83,0,0,1-.51.27.44.44,0,0,0-.34.15c-.23.38-1.33,0-1.33-.48,0-.13-.18-.27-.45-.34a1,1,0,0,1-.63-.46c-.09-.19-.25-.35-.35-.36l-.35,0c-.1,0-.18-.32-.21-.76s-.08-.72-.25-.68c-.73.19-.77.15-.77-1V24.57h-1L93,24c0-.54,0-.6-.2-.5a2.38,2.38,0,0,1-.74.12c-.41,0-.5,0-.54-.31s-.14-.31-.3-.31a5.35,5.35,0,0,0-2,1.65c-.18.32-.22.34-.3.13s-.35-.3-.35.1c0,.23-.23.59-.68,1-1,1-1.47,2.53-.93,3a1.28,1.28,0,0,1,.4,1.33c-.07.4-.17.62-.3.62s-.19-.16-.17-.67a1.09,1.09,0,0,0-.34-1.05c-.47-.46-.46-1,0-2a3.06,3.06,0,0,0,.33-1,.55.55,0,0,1,.38-.53c.43-.2.63-.81.26-.81s-.28-.11.21-.66.47-.82,0-.41a1,1,0,0,1-.49.23c-.32,0-.52.44-.52,1.15s-.28,1.17-.88,1.29-1,.62-1,1.54c-.07.67-.05.78.21.94s.42.88.15,1a.54.54,0,0,0-.1.46c0,.26,0,.39-.19.42-.32.06-.45-.39-.19-.67a.68.68,0,0,0-.09-1c-.26-.22-.29-.36-.22-1.05s.58-2.12.81-2.12c.07,0,.19.1.26.23s.15.19.35-.11A2.55,2.55,0,0,0,86,25l0-.63-.53-.05c-.46,0-.56,0-.77.38s-.32.43-.41.43-.21.13-.26.28a.4.4,0,0,1-.36.28c-.33,0-.34-.12,0-.52a2.87,2.87,0,0,0,.47-1.74c-.09-.15-.23-.08-.58.31a7.46,7.46,0,0,1-2,1.43,1.63,1.63,0,0,1-.55.24c-.29,0,.29-.53.91-.83a8,8,0,0,0,.9-.53,4.2,4.2,0,0,0,.88-2.32,9.39,9.39,0,0,1,.52-2.48,1.69,1.69,0,0,0,.12-.69,3.67,3.67,0,0,0-1.42.59,6.37,6.37,0,0,0-.7,2.26,12.13,12.13,0,0,1-.55,2.28s-.37.27-.73.5a3.51,3.51,0,0,0-.82.71c-.08.16-.29.52-.47.81a5.8,5.8,0,0,0-.52,2.57,5.49,5.49,0,0,0,.2.84c.16.49.15.54-.3,1s-.54.46-.85.39-.41,0-.46.07a7.75,7.75,0,0,0-.28,1.29c-.18,1.08-.17,1.16.09,1.42s.31.23.42.12a.66.66,0,0,1,.42-.16c.14,0,.31-.15.4-.38s.25-.58.36-.81a3.05,3.05,0,0,0,.24-.77,4.28,4.28,0,0,1,.28-.87,2.69,2.69,0,0,0,.24-.86,1.42,1.42,0,0,1,.28-.69,1,1,0,0,0,.2-.92c-.08-.53,0-.58.8-1.43.53-.54.91-.82,1-.71s-.49.86-.7.86a1.07,1.07,0,0,0-.4.24c-.31.26-.37.67-.13.82s0,.84-.3,1.28a1.48,1.48,0,0,0-.28.73,1.35,1.35,0,0,1-.23.69,1.3,1.3,0,0,0-.14,1c.08.62.06.69-.18.69a.4.4,0,0,0-.36.23c-.14.36,0,.4.37.1s.81-.29.81,0c0,.1-.14.21-.31.24-.44.06-.83.81-.92,1.77-.07.79-.06.84.37,1.23s.43.49.37.68-.06.28.17,0l.54-.7c.25-.34.33-.37.51-.22a.68.68,0,0,0,.57.1c.5-.13.59.16.13.41s-.8.58-.59.72a1,1,0,0,1,.12.67c-.06,1.15,0,1.18.43.65s.44-.46.56-.25.19.22.53,0c.78-.4,1-.15.52.48a5,5,0,0,0-.78,2.45,1.58,1.58,0,0,1-.28.8c-.44.55-.34.77.15.36a1.93,1.93,0,0,1,.55-.36,3.43,3.43,0,0,0,.72-.71c.53-.64.58-.75.42-1s-.14-.3,0-.4.37-.15.68.16.35.81-.48,1.56a2.66,2.66,0,0,0-1,2.63c.13.94.19,1,.57.21a2,2,0,0,0,.27-1.35c0-.55,0-.69.2-.81s.39-.1.4,1A4.08,4.08,0,0,0,85.16,44c.17.17.35-.34.28-.77a3.46,3.46,0,0,1,.66-2,2.49,2.49,0,0,1,1-.64l.74-.28.15.3c.2.38,0,.82-.33.72a1.15,1.15,0,0,0-.69.2c-.44.26-.45.28-.43,1.29a2.94,2.94,0,0,1-1.23,2.7,2.12,2.12,0,0,0-.64.75c0,.11.31-.08.7-.45a3.69,3.69,0,0,1,.83-.65c.24,0,.44,1.26.36,2.28-.07.86,0,1,.1.76l.57-.8a1.57,1.57,0,0,1,.84-.65c.25-.07.45-.2.44-.29s0-.42,0-.74c0-.68-.22-.61-.46.17-.13.43-.23.55-.45.51s-.33-.24-.49-.81a4.1,4.1,0,0,1,.07-2.62c.19-.49.3-.61.54-.58s.29.14.28.46a2.68,2.68,0,0,1-.11.74c-.19.53.14.37.68-.35s.81-.83.84-.24a1.07,1.07,0,0,1-.33.81c-.36.39-.33.7,0,.39s.43.14.23.71-.2.69,0,.69a4,4,0,0,0,.52-1.09c.49-1.29.56-1.4.85-1.16s.2.36.13,1.05l-.1.88.44.08c.38.08.45.17.52.66,0,.31.14.57.2.57s.26-.7.2-1.4.12-.92.53-.69c.2.11.25.31.25,1s0,.81.14.76a.53.53,0,0,0,.14-.4,1.18,1.18,0,0,1,.19-.58c.19-.25.2-.25.45,0s.28.28.53.1c.44-.3.68,0,.57.66s.16.78.3.21A8.81,8.81,0,0,0,95,43.59c-.13-.21.19-.56.51-.56s.34-.23.13-.56c-.11-.17-.22-.13-.63.27s-.55.46-.74.34c-.37-.24-.35-.37.22-1.12a2.86,2.86,0,0,0,.64-1.38c.22-1.58.6-2.21,1-1.67.19.25.2.24.21-.12a2,2,0,0,1,.45-1.25c.11-.06.09-.29-.06-.72-.27-.81-.13-1.09.39-.75.21.14.39.23.41.2a6.05,6.05,0,0,0,.36-.67,2.94,2.94,0,0,1,.46-.72c.09-.05.07-.2,0-.4a1.74,1.74,0,0,1-.08-.92,3.12,3.12,0,0,0,0-1l-.09-.38-.41.6A5.12,5.12,0,0,0,97.18,34c-.11.39-.22.53-.39.49-.41-.08-.35-.54.18-1.3a6.17,6.17,0,0,0,.74-1.56c.37-1.32.57-1.29.47.06,0,.37,0,.45.26.45A.87.87,0,0,0,99.1,31.15Zm1.17,3.24c0-.28-.34-.38-.69-.2a.51.51,0,0,1-.58,0c-.43-.23-.51,0-.14.35.21.23.29.43.22.62a7,7,0,0,0,.29,2.16c.14.23.3.09.39-.33a7.44,7.44,0,0,0,.09-1,2.62,2.62,0,0,1,.21-1A1.72,1.72,0,0,0,100.27,34.39Zm0-3.76a1.81,1.81,0,0,0-1,1.41.62.62,0,0,1-.12.42c-.19.11-.15.62,0,.62s.38-.34.63-.76a3.79,3.79,0,0,0,.46-.93.88.88,0,0,1,.24-.44C100.81,30.63,100.71,30.51,100.23,30.63Zm.48-2.32q.42,0,.42.21c0,.27.34.28.55,0s0-1.62-.2-1.62a4,4,0,0,0-1.19,1.31C100.29,28.27,100.48,28.31,100.71,28.31Zm1.11,4.06c0-.29,0-.29-.29.07-.45.56-.48.33-.07-.4s.46-1.22.16-1.48-.21-.13-.21.13a2.41,2.41,0,0,1-.27.82,1.83,1.83,0,0,0-.12,1.65c.24.27.32.25.57-.14A1.38,1.38,0,0,0,101.82,32.37Zm.08-2.79c0-.08,0-.14-.06-.15a.15.15,0,0,0-.15.15c0,.07,0,.14.06.14S101.85,29.65,101.9,29.58Zm.93-5.48c-.08,0-.14.18-.14.39a4.23,4.23,0,0,1-.29,1.13c-.3.79-.35,1.15-.16,1.15s.22-.33.34-.74C102.89,25,103,24.11,102.83,24.1Zm.14-3.58c-.17-.11-.69.32-.69.57a.6.6,0,0,1-.21.35.81.81,0,0,0-.22.57c0,.6.7,1.21,1,.89,0,0,0-.2-.07-.34a.33.33,0,0,1,0-.48C103.07,21.79,103.18,20.65,103,20.52Zm.86-2.58c0-.07-.12-.21-.28-.29s-.33-.14-.2.2S103.83,18.16,103.83,17.94ZM29.35,48.44c.18-.53-.12-.58-.51-.09a10.06,10.06,0,0,1-1.46,1.19c-1.35,1-1.74,1.34-1.61,1.55s.24.19,1.27-.77a8.37,8.37,0,0,1,1.58-1.19A1.34,1.34,0,0,0,29.35,48.44Zm-1.3,5.36c-.2,0-.25.05-.25.44s-.17.65-.65.65c-.13,0-.19-.1-.16-.3s0-.33-.13-.36-.24.09-.54.92c-.06.16-.11.16-.29,0s-.26-.15-.42.08a1,1,0,0,0-.2.39c0,.08-.1,0-.22-.05s-.28-.14-.55.21-.4.37-.58.3-.32,0-.47.2a1.54,1.54,0,0,1-1,.4c-1.06.14-2.38.87-2.38,1.32a2.17,2.17,0,0,1-1,1.11c-.22.06-.32,0-.37-.18-.1-.39-.47-.48-.56-.14s-.33.36-.57.12a.35.35,0,0,0-.6.27,1,1,0,0,0,1,.91c.45,0,.51,0,.51.32,0,.55.5.44.79-.16a2.2,2.2,0,0,1,.56-.71,3.42,3.42,0,0,0,.75-.89,2.19,2.19,0,0,1,2-1.16A6.58,6.58,0,0,0,24.39,57,16.6,16.6,0,0,1,26,56.42c.43-.14.73-.25.67-.26s0-.11.11-.25.34-.4.49-.59.3-.33.54-.19.61-.06.56-.75C28.31,54,28.22,53.83,28.05,53.8ZM15,67.45a12.42,12.42,0,0,0-.45,1.21s.06.09.14.09.14-.09.14-.21.05-.21.12-.21a6.36,6.36,0,0,0,1-2.06C15.72,66.06,15.42,66.44,15,67.45ZM18.27,61c-.39,0-1.72,3-1.72,3.9,0,.29.06.45.19.45.29,0,.48-.29.64-1a12.48,12.48,0,0,1,.65-1.8C18.5,61.53,18.57,61,18.27,61ZM73.9,49.14c-.31,0-.45.26-.24.47s.75.13.75,0A.51.51,0,0,0,73.9,49.14Zm.34-.6a.39.39,0,0,0-.36-.36c-.34,0-.42.23-.14.51S74.29,48.89,74.24,48.54Zm25.37-26c.16,0,.26-.06.21-.14a.37.37,0,0,0-.29-.14c-.11,0-.2.06-.2.14S99.46,22.55,99.61,22.55ZM90.68,38.86a2.86,2.86,0,0,0-.15,1.54c0,.59.14,1.07.22,1.07s.11-.33.07-.81A2.16,2.16,0,0,1,91,39.34c.24-.48.24-1,0-1C91,38.38,90.81,38.6,90.68,38.86Zm4.12-2.43c-.64,0-1.11.29-.83.52a1.69,1.69,0,0,0,.54.22c.58.11.62.1.9-.11S95.47,36.43,94.8,36.43Zm-2,2.94c-.3,0-.39.22-.15.42s.26.4-.23.81-.44.4-.37,1.25A3,3,0,0,0,92.25,43c.3.35.43,0,.29-.72A1.5,1.5,0,0,1,93,40.63c.31-.32.31-.38.14-.8C93.06,39.58,92.88,39.37,92.76,39.37Zm1-3.9c-.24,0-.34.25-.15.45a.24.24,0,0,0,.39-.2C94,35.61,93.91,35.5,93.78,35.47Zm-1.19,1.9c.28.32.51.41.52.21a7.85,7.85,0,0,0-1-1.86c-.16,0-.12.68,0,1A3.46,3.46,0,0,0,92.59,37.37Zm-.4-21.12c0,.2.44.06.61-.2s.11-.28,0-.34S92.19,16.05,92.19,16.25ZM94,40.61c0,.45.19.28.54-.44s.37-1,.12-.9A2.18,2.18,0,0,0,94,40.61ZM96.16,35c-.55.45-.71.71-.61,1s.48.2.85-.44C96.85,34.71,96.75,34.49,96.16,35Zm-16-13.14c.52-.51.56-.61.26-.61-.12,0-.31.18-.44.39s-.41.63-.62.94a7.09,7.09,0,0,0-.62,1.19A10.55,10.55,0,0,1,78.19,25a2.39,2.39,0,0,0-.35,1.33,8.28,8.28,0,0,1-.5,3,1.28,1.28,0,0,0-.21.4c0,.22.38.11.67-.2s.34-.67.53-2.26A10.86,10.86,0,0,1,78.75,25a9.72,9.72,0,0,0,.59-1.49A4.34,4.34,0,0,1,80.2,21.84Zm11.56-6.69c-.13-.15-.22-.17-.33-.06s-.08.22.13.37S92,15.48,91.76,15.15ZM87.39,73.6a.14.14,0,0,0-.14-.14.14.14,0,0,0-.14.14.14.14,0,0,0,.13.14A.15.15,0,0,0,87.39,73.6ZM86.22,11.65a1.67,1.67,0,0,1,.66.42c.43.46.67.43.9-.13a2.28,2.28,0,0,0-1.59-2.67c-.72-.25-1-.18-1.15.29s-.18.55.36.86c.39.23.49.38.49.72S86,11.58,86.22,11.65Zm7,5.41c.15.25.34.15.63-.31s.35-.67.11-.66S93.13,16.89,93.24,17.06Zm-8.6,46.75c.3.12.67.11.67,0s-.38-.44-.61-.35S84.4,63.71,84.64,63.81ZM74.44,50.47c-.21.08-.21.11,0,.22s.55.17.56,0S74.69,50.37,74.44,50.47Zm8.43,8.1c-.12,0-.21-.06-.21-.13a.53.53,0,0,1,.21-.29c.33-.27.25-.54-.17-.59l-.38-.05.38-.37c.47-.47.49-.68.06-.68-.27,0-.33-.07-.33-.42s-.22-.79-.43-.65a1.45,1.45,0,0,0-.18,1.28A7.89,7.89,0,0,1,82,59,23.72,23.72,0,0,0,82,61.58a6.24,6.24,0,0,1,.08,1.16c0,.41,0,.74.12.74s.32-.69.23-1.68c-.07-.82,0-1,.19-1.31s.36-.61.14-.69-.07-.19.07-.46C83.13,58.81,83.14,58.57,82.87,58.57ZM81.81,14c-.2-.06-.41,0-.71.3a2.39,2.39,0,0,0-.84,2.22c0,.94,0,1.07.24,1s.59-.63.6-1.25a2.07,2.07,0,0,1,.5-1.19C82.16,14.33,82.2,14.14,81.81,14ZM97.7,15.5c-.32.58-.34,1.15,0,1.15s.15.27-.17.7c-.16.22-.26.47-.2.55.17.28.42.16,1-.47s.6-1.14.09-1c-.31.08-.34-.17,0-.54a1.36,1.36,0,0,0,.21-.67C98.51,14.62,98.11,14.77,97.7,15.5Zm1.52-4c0,.15.12.23.36.23.44,0,.39-.33-.06-.4C99.32,11.32,99.22,11.38,99.22,11.52Zm-4.71,5.57c.14.22.35.12.49-.24.2-.54.17-.79-.1-.74S94.38,16.87,94.51,17.09Zm5.72-1.41c0,.15,0,.32-.06.36s-.07.16,0,.28.11.2,0,.2-.22.45-.06.61.16,0,.24-.05a.72.72,0,0,1,.41-.14c.2,0,.24-.06.16-.24a4.79,4.79,0,0,1-.16-.91c0-.38-.16-.69-.27-.73S100.13,15.29,100.23,15.68Zm-1.09-2.52c0-.27-.4-.49-.7-.38s-.23.11,0,.38S99.14,13.47,99.14,13.16Zm-6.84-.55c-.57-.48-.64-.67-.3-.8.15-.05.46.12.86.47s.69.53.76.49a1.12,1.12,0,0,0,.12-.64c0-.55,0-.56-.4-.48s-1.14,0-1.14-.27.41-.52,1.19-.54c.43,0,.78-.07.78-.13s-.09-.1-.2-.1a1.29,1.29,0,0,1-.52-.27c-.3-.25-.31-.28-.08-.37a4.17,4.17,0,0,1,2.11.53c.3.15.58.24.62.2s-.42-.66-.91-.87-.58-.45-.08-.57c.25-.06.42,0,.52.11a1.41,1.41,0,0,0,.39.34,9.84,9.84,0,0,1,1.7,2.13c.29.56.29.74,0,.74a.21.21,0,0,0-.21.21.25.25,0,0,0,.26.22c.37,0,.49.57.23,1.07a1.76,1.76,0,0,0-.21.57.2.2,0,0,1-.22.18.22.22,0,0,1-.22-.18c0-.1,0-.33,0-.51,0-.49-.26-.5-.85,0s-.56.43-2,.2a2.14,2.14,0,0,1-1.06-.66C93.08,13.32,92.59,12.86,92.3,12.61Zm3.41-1.12c0,.26.88,1.31,1,1.12a1.3,1.3,0,0,0-.17-.58C96.24,11.55,95.71,11.18,95.71,11.49Zm-.33,1.27c-.28.15-.33.23-.2.36a.36.36,0,0,0,.64-.23C95.88,12.52,95.85,12.52,95.38,12.76Zm-.75-1.12a.35.35,0,0,0,0,.29c.09.23.52.16.52-.07S94.74,11.53,94.63,11.64Zm4.52-.89c.36.22.45.23.63.06s.34-.29.49-.4.27-.21,0-.35a.6.6,0,0,1-.24-.48c0-.33-.3-.49-.95-.5-.22,0-.32.08-.32.28s.12.31.45.38l.46.09-.49.16C98.62,10.19,98.6,10.4,99.15,10.75ZM84.43,34c.29-.17,0-1-.36-1.23a.53.53,0,0,1-.35-.42c0-.3-.32-.64-.47-.49s0,.65.47,1.15l.55.55-.2.68c-.33,1.08-.29,1.55.16,1.8.64.34.84.21.35-.22C84.27,35.56,84.16,34.17,84.43,34ZM44.65,70.38c.33-.12.53-.56.26-.56s-.74.43-.74.57S44.21,70.55,44.65,70.38Zm.44,1.07a1.73,1.73,0,0,1,.34-.08c.14,0,.33-.71.22-.81s-.78.54-.78.78S45,71.51,45.09,71.45ZM86.5,35.62a1.81,1.81,0,0,1-.18-.75c0-.7-.25-1-.57-.72s-.29.57-.09.57.2.19.3.43a.81.81,0,0,1,0,.8c-.47,1-.45,1.54.1,2.17.37.43.44.12.1-.47l-.32-.58.41-.64C86.55,36,86.61,35.75,86.5,35.62ZM43.28,65.35c1.28-.56,1.32-.59.63-.51s-1.42.45-1.52.75c0,.1,0,.16.06.13ZM88.72,27.86a1.12,1.12,0,0,1,.13-.7c.27-.51.27-.57,0-.57s-.54,1-.42,1.35S88.81,28.17,88.72,27.86Zm-7.21.82a1.81,1.81,0,0,0,.2,1.6c.27.41.23.61-.17,1a2,2,0,0,0-.28,2.17,2.46,2.46,0,0,0,.46.84c.35.28.37.09,0-.52a1.89,1.89,0,0,1,.13-2.21c.42-.57.42-.58.22-1.18a2.14,2.14,0,0,1,.16-1.9c.18-.13.16-.19-.11-.38S81.71,27.86,81.51,28.68ZM99.32,58.32c.34-.16.59-.32.55-.36a3.38,3.38,0,0,0-1.35.58C98.52,58.67,98.69,58.63,99.32,58.32Zm-9.57-25.2a1.35,1.35,0,0,0-.28-.49A1.34,1.34,0,0,1,89.2,32a.83.83,0,0,0-.23-.53c-.24-.24-.76-.3-.76-.08s.09.14.2.14c.3,0,.41.26.22.5s-.09.28.26.61a1.43,1.43,0,0,1,.44.59,1.4,1.4,0,0,0,.38.58,1.29,1.29,0,0,0,.55.39c.27,0,.24-.1-.16-.53A1.46,1.46,0,0,1,89.75,33.12Zm-1.2,4.46c-.22-.07-.78.83-.78,1.25a1,1,0,0,0,.44.73c.51.44.72.36.28-.11s-.38-.86,0-1.12S88.81,37.67,88.55,37.58ZM87.09,32c-.07-.55-.32-.82-.46-.47A2.83,2.83,0,0,0,87,33.27c.14.17.34.27.45.23s.24-.19,0-.6A2.28,2.28,0,0,1,87.09,32Zm2.39-1.89c0-.17-.27-.35-.37-.24s0,.14,0,.22S89.48,30.29,89.48,30.11ZM40.61,61.67c-.2,0-.62.52-.62.77a4.6,4.6,0,0,0,.71,1c.75.86,1,1,1.18.53a1,1,0,0,0-.56-1.07,1.09,1.09,0,0,1-.43-.7C40.84,61.89,40.72,61.67,40.61,61.67Zm61.81-2.73c.85.56,1.14.65,1.15.34,0-.54-1.65-1.73-2-1.41S101.57,58.38,102.42,58.94Z"/><path class="cls-1" d="M107.12,17c-.62,0-.69,0-.81-.38-.42-1.22-.94-1.44-1.11-.47-.13.81-.18.85-.93.85-.51,0-.69.05-.8.25s-.06.34.33.68c.67.59.65,1.11-.15,2.71-.34.69-.67,1.42-.73,1.62a29.85,29.85,0,0,1-1.5,3.33l-.3.52-.33-.49c-.19-.27-.41-.47-.5-.44a1.67,1.67,0,0,0-.24.84c-.09.86-.24,1-.89,1a1,1,0,0,0-.69.27c-.28.3,0,.35-3.5-.69-2.29-.69-2.4-.77-1.82-1.35.35-.35.32-.37-.41-.47s-1-.26-1.13-.71-.5-1-.6-.75c-.18.45-.56-.14-.86-1.32-.08-.34-.24-.93-.36-1.31-.21-.68-.21-.72.08-1.12a2.92,2.92,0,0,1,.54-.59.92.92,0,0,0,.31-.46c.07-.27,0-.3-.79-.39S89,18,88.86,17.64c-.38-.74-1-.78-1-.07,0,.52-.22.69-.94.69a1.24,1.24,0,0,0-.92.24c-.23.24-.22.26.21.63s.61.39-1.61,1.53l-2,1-1.43.68-2.22,1a7.1,7.1,0,0,1-2.55.89c-.41,0-.44-.05-.92-1.26-.16-.42-.42-.5-.43-.13a3.35,3.35,0,0,1-.31.85c-.29.58-.32.61-.9.61-.83,0-.89.33-.15.82s.69.72.35,1.7c-.27.75-.09,1,.46.57.21-.16.42-.26.46-.23a8.08,8.08,0,0,1-.25,1.52c-.8,3.67-.89,3.84-1.29,2.47q-.43-1.56-.78.21a7,7,0,0,1-.25,1,6.58,6.58,0,0,1-1.18.13l-1.11.07,0,.42c0,.34,0,.44.24.5.38.1.35.39,0,.31-.17,0-.7-.1-1.19-.14-1.47-.14-5.15-.6-6.45-.82-.67-.11-2-.26-2.85-.34a74.7,74.7,0,0,1-8.52-1.2c-.06-.06.14-.43.44-.83.62-.84.7-1.17.24-1a5.54,5.54,0,0,1-1.24.11c-1,0-1.31-.19-1.31-.89a1.41,1.41,0,0,0-.29-.73l-.29-.37L48.5,28a1.86,1.86,0,0,0-.41.86c-.14.92-.22,1-1.27,1-.52,0-.94.05-.94.12,0,.33.21.59.67.82.8.41.91.62.52,1s-1.74,1.37-3.36,2.55c-.82.6-7.52,5.61-8.7,6.51-.48.38-1.43,1.08-2.1,1.56s-1.39,1-1.58,1.16c-.55.42-.77.35-.94-.3-.4-1.45-.72-1.75-.88-.82-.23,1.34-.31,1.5-.81,1.59a4.4,4.4,0,0,1-1.15,0c-.67-.09-.68-.08-.68.25s.19.52.7,1l.7.6-.39,1.2c-.26.83-.33,1.22-.22,1.26a.27.27,0,0,1,.16.24c0,.37.34.19,1.06-.55s.73-.74,1.1-.55a2.81,2.81,0,0,1,1.18,1.37c.08.35.39.45.49.16a6.55,6.55,0,0,0-.08-1.29c-.09-.74-.09-1.17,0-1.26s3.53-.68,9.42-1.37c3-.36,3.88-.39,3.83-.14,0,.09,0,.58-.07,1.08a3.11,3.11,0,0,1-.46,1.66c-.22.41-.83,1.54-1.33,2.51s-1.09,2-1.31,2.39a6.6,6.6,0,0,0-.54,1c-.17.48-.39.57-.39.16s-.47-.35-.74,0a1.49,1.49,0,0,0-.21.74c0,.54-.17.65-1,.66s-1.14.22-1,.6c0,.18.25.29.7.37.71.13.7.09.51,1.65-.1.84-.1.85.19.7a2.75,2.75,0,0,0,.57-.43l.28-.29.31.67c.25.54,1,2.53,2.31,6,.3.78.25,1-.2.86a.48.48,0,0,0-.62.27c-.29.43-.2.59.49.86l.54.22-.09,1h0c-.11,1.22,0,1.3.9.43l.55-.57.34.43c.37.47.86.58.88.2,0-.13,0-.56,0-1,0-.63,0-.76.36-1.09a5.21,5.21,0,0,1,.65-.52c.46-.26.1-.46-.81-.46h-.86l-.22-.75c-.26-.87-.52-1-.81-.27-.19.45-.49.65-.49.33a7,7,0,0,0-.41-1.12c-.4-.92-.5-1.16-.8-1.89a32.1,32.1,0,0,1-1.3-4.16c.05,0,.33.17.63.49a2.65,2.65,0,0,0,.65.58,3.31,3.31,0,0,0,0-1.2c-.06-1.17-.06-1.2.29-1.43a1.72,1.72,0,0,0,.5-.51c.2-.37,0-.52-.72-.53-.28,0-.51,0-.51-.08,0-.2,1.54-3.35,2.79-5.69l1.39-2.61.59-1.13.37.19a2.84,2.84,0,0,1,.67.55,1,1,0,0,0,.44.35c.18,0,.17-.36,0-.7a.65.65,0,0,1-.08-.45c.08-.22.34-.17,4.71.94,4,1,3.78.94,5.56,1.49.86.26,2,.57,2.45.68.9.21,2.1.54,3.67,1,.48.15,1.46.43,2.17.63,1.48.41,3,.83,3.73,1.08.3.1,1,.31,1.57.47s1.9.57,3,.91l2.14.67c.26.08.21.26-.18.65s-.33.39-.19.57a.37.37,0,0,0,.37.14,4.61,4.61,0,0,1,1.92.92,6.86,6.86,0,0,1,.1,2.78c-.11.29-.08.32.2.27s.43-.23.63-.58a7,7,0,0,1,.68-1l.38-.45,1.23.75c1.74,1.07,2,1,1.35-.25s-.45-1.34.75-1c.88.28,6.14,2.22,8.69,3.21.56.22,1.7.62,2.55.89a16.23,16.23,0,0,1,3.6,1.52,5,5,0,0,1-.54,2.32c-.19.32-.31.61-.27.65s1.18-1,1.18-1.19.52-.84.72-.76a3.43,3.43,0,0,1,.62.9c.3.58.52.83.7.83s.32,0,.06-.64a3.57,3.57,0,0,1-.2-1.14c0-.63,0-.67.6-1s.88-.6,1-1,0-.34-1.34-.51c-.58-.08-.68-.15-.85-.55a2.54,2.54,0,0,1-.19-.73c0-.51-.36-.28-.73.48l-.36.75-.92-.09-.91-.09.26.29c.34.38.13.37-.91,0S93,58.58,91.92,58.17L89,57.11c-3.22-1.17-4.13-1.51-5.33-2l-1.13-.46.9-.9c.49-.5.84-.94.77-1a6.16,6.16,0,0,0-1.39.06,4.2,4.2,0,0,1-1.39,0,4.18,4.18,0,0,1,0-1.39c.08-.7.2-1.89.28-2.64s.19-1.77.26-2.28a11.39,11.39,0,0,0,.14-1.38c0-.58.17-.69.68-.43.22.11.44.15.48.08a3.38,3.38,0,0,0-.15-1l-.23-.91.57-.51.58-.52-.46-.07-.86-.11c-.32,0-.42-.11-.44-.37-.11-1-.19-1.23-.43-1.23s-.42.26-.42.69c0,.15,0,.26-.08.26a62.07,62.07,0,0,1-6.3-6.11c-.25-.59-.07-1,.61-1.52.33-.25.6-.52.6-.61,0-.29-.44-.43-1.13-.35l-.67.08L74.6,32c.05-.26.15-.71.2-1,.22-1.13.84-3.65,1-3.89s.25-.31.64,0,.54.13.26-.35a1.57,1.57,0,0,1-.24-.58,6.77,6.77,0,0,1,1.9-1.87c.12,0,4.12-2,6.89-3.37a10.72,10.72,0,0,1,1.55-.7c.11,0,.13.21.06.74s-.06.76.14.84.38,0,1-.88c.25-.34.27-.35.62-.12s1,1.5,1.79,3.77c0,.16-.12.25-.79.39-.47.1-.78.21-.68.24a.34.34,0,0,1,.17.31,1.26,1.26,0,0,0,.47.63c.45.37.46.41.34.93-.22.92-.18,1.13.19,1.06a1.78,1.78,0,0,0,.71-.46,1.28,1.28,0,0,1,.52-.39c.09,0,.31.24.49.54.32.52.67.72.67.37a4.3,4.3,0,0,0-.23-.81c-.12-.35-.19-.68-.13-.74a15.71,15.71,0,0,1,3.15.65l1.83.54,1.86.55c.57.17.61.26.61,1.28,0,.48,0,.88.12.88s.53-.37.84-.81.79-.3,1.33.3.76.34.33-.62l-.36-.77.27-.58a3.16,3.16,0,0,1,.62-.91c.53-.49.46-.69-.26-.69-.39,0-.61-.06-.61-.17A52.63,52.63,0,0,1,104,21.36c.6-1.23,1.27-2.09,1.62-2.09a1.79,1.79,0,0,1,.64.48c.57.59.69.6.58,0-.31-1.51-.21-1.92.6-2.34C108,17.13,107.9,17,107.12,17ZM43.28,67.33a7.49,7.49,0,0,1,.78-1.47c.22,0,.7.46.64.61a.69.69,0,0,0,.09.46c.19.36,0,.37-.34,0s-.72-.35-.77.17c0,.29-.13.46-.28.49S43.18,67.59,43.28,67.33ZM43,66c.12,0,.21.06.21.14a.13.13,0,0,1-.13.13.3.3,0,0,1-.21-.13C42.77,66.05,42.83,66,43,66Zm-1.8-10.16a.67.67,0,0,0-.16.41c0,.2-.11.25-.59.25s-.62-.06-.77-.34-.16-.36-.12-.39c.2-.15,1.08-.32,1.15-.21a.51.51,0,0,0,.36.12C41.25,55.67,41.28,55.71,41.15,55.83ZM99.6,60.5c.19-.26.2-.26.48,0a.63.63,0,0,0,.68.23c.5-.1.51.15,0,.34-.21.08-.54.24-.75.35-.36.18-.37.18-.37-.13a.78.78,0,0,0-.13-.45C99.45,60.81,99.48,60.66,99.6,60.5ZM81.8,42l.16-.4.22.44a1.07,1.07,0,0,1,.14.63.34.34,0,0,1-.62,0A1.28,1.28,0,0,1,81.8,42ZM47.73,30.55c.36,0,.59-.26.6-.68s.33-.88.53-.76a.83.83,0,0,1,.15.53,1.31,1.31,0,0,0,.2.69c.16.22.25.24.5.11S51,30.15,51,30.26a2,2,0,0,1-.35.43c-.29.3-.34.49-.35,1.19s0,.83-.26.7a1.21,1.21,0,0,1-.4-.41c-.22-.4-.56-.32-1.19.28a2.44,2.44,0,0,1-.71.54c-.17,0-.07-.77.16-1.4.13-.32.1-.43-.17-.71S47.47,30.55,47.73,30.55ZM31.24,45.37c-.47.45-.67.74-.6.84a1.93,1.93,0,0,1,.21.6c.1.52-.14.59-.52.17s-.39-.35-1.12.2c-1.05.8-1.24.61-.58-.58.34-.64.41-1.12.15-1.12s-.85-.67-.77-.8,1-.19,1,0,.09.14.2.14.48-.42.48-.82.32-.22.59.52.42.87.53.43c.06-.21.19-.27.59-.27H32Zm15.65-1.46a.64.64,0,0,0-.13.5c.08.11,0,.13-.34.06s-.49,0-.71.22l-.26.32.08-.37c.06-.3,0-.42-.32-.67s-.43-.52.06-.52c.19,0,.34-.06.34-.14a.14.14,0,0,1,.15-.13.61.61,0,0,0,.34-.24c.17-.23.18-.23.18,0s.17.31.38.4l.42.19A.89.89,0,0,1,46.89,43.91Zm35.19,9.52a2,2,0,0,1,.87-.14c.2.13-.13.57-.73,1s-.55.28.18,1.84c.23.5.42.94.42,1,0,.23-.42,0-1.09-.59a3.18,3.18,0,0,0-1-.68,1.76,1.76,0,0,0-.7.54,2.28,2.28,0,0,1-.63.54c-.07,0-.1-.34-.06-.79l.07-.78-.76-.47c-.42-.25-.76-.53-.76-.62A2.84,2.84,0,0,1,79,53.68c1.08-.38,1.09-.39,1-.82-.07-.66.1-.81.43-.36a2.17,2.17,0,0,1,.32.73C80.86,53.66,81.18,53.72,82.08,53.43ZM75.6,36.67c.2-.11.65.28,2.81,2.44s2.52,2.57,2.21,2.57a.5.5,0,0,0-.52.56c0,.06.21.21.48.32.54.23.63.65.25,1.29s-.16.87.29.79.34,0,.34.69a8.05,8.05,0,0,1-.13,1.31c-.07.3-.19,1.24-.27,2.1-.27,2.77-.37,3.06-.67,2-.22-.73-.53-.72-1,0a2.18,2.18,0,0,0-.24,1.11,4.61,4.61,0,0,1-.08,1c-.09.23-.28.26-.6.09-.11-.06-.78-.27-1.49-.47s-2.15-.61-3.19-.92c-2.91-.85-4.1-1.19-5.44-1.56-2-.54-2.53-.69-3.46-1-.48-.16-1.62-.47-2.52-.7s-2-.53-2.4-.68c-.74-.26-2-.61-5.88-1.65-1.12-.3-2.86-.78-3.87-1.07-2.83-.8-3-.88-2.17-1.33s.46-.85-.51-.82c-.58,0-.76-.15-1-1-.13-.51-.24-.68-.42-.68s-.33.13-.47,1c-.11.63-.26.75-1.08.85a2.61,2.61,0,0,0-.74.15s.07.31.23.59l.29.53-.44.08c-.24,0-1.39.15-2.55.23s-2.19.17-2.3.2c-.44.12-4.09.61-5.56.75s-1.93.1-1.44-.17a3.63,3.63,0,0,0,1.16-1.18c0-.08-.25-.15-.56-.15s-.53-.06-.5-.14a19.9,19.9,0,0,1,3-2.32c1.21-.84,3.48-2.53,3.87-2.88.15-.14.82-.62,1.49-1.08,1.33-.9,2.43-1.72,4-3A11.49,11.49,0,0,1,47,32.85c.08,0,.15.22.15.48,0,.43,0,.48.39.48a1.49,1.49,0,0,0,.95-.55,2.3,2.3,0,0,1,.73-.54,2.73,2.73,0,0,1,.77.54,2,2,0,0,0,.92.55c.37,0,.37,0,.12-.89-.21-.7-.11-1,.33-.81.28.08,2.22.3,5,.54,2.54.23,3.84.38,8.75,1,3.22.4,6,.79,6.61.93.28.06.29.11.22,1.28-.07,1,0,1.2.1,1.2s.8-.54.73-.73.12-.33.34-.55c.38-.36.43-.37.85-.2a4,4,0,0,1,1,.7C75.25,36.7,75.4,36.77,75.6,36.67Zm-.39-3.41c0,.07-.24.29-.53.47-.6.38-.79.61-.59.73a.94.94,0,0,1,.2.47l.07.38L74.05,35c-.28-.26-.34-.27-.59-.1a3.69,3.69,0,0,0-.56.56c-.43.54-.56.45-.46-.31a1.2,1.2,0,0,0-.21-1.08c-.16-.23-.37-.42-.47-.42s-.57-.37-.47-.47a2.82,2.82,0,0,1,.56-.15c.42-.07.51,0,.51.13s.06.22.14.22.4-.59.4-1,.22-.3.47.27a4,4,0,0,0,.37.67c.17.23.22.23.59,0S75.21,33.06,75.21,33.26Zm.39-7.43a6.71,6.71,0,0,1-.84.64c-.14,0-.1-.18.11-.45a.56.56,0,0,0,.06-.6c-.1-.26-.09-.38,0-.46a.57.57,0,0,0,.17-.42c0-.48.27-.44.34.06s.14.46.47.51l.4.07Zm13.19-6c0,.07-.12.13-.26.13a.44.44,0,0,0-.35.14,1.15,1.15,0,0,1-.36.28c-.26.14-.27.12-.19-.26s-.11-1-.4-1c-.11,0-.2-.05-.2-.11a2.85,2.85,0,0,1,1-.06c.78,0,1.08,0,1.24-.17a.73.73,0,0,1,.42-.21c.15,0,0,.19-.35.55A2.84,2.84,0,0,0,88.79,19.82Zm1.56,7.33c-.16.14-.2.13-.2,0s.22-.42.33-.25S90.46,27.06,90.35,27.15Zm.63-.71c-.4.21-.42.21-.42,0a.48.48,0,0,0-.27-.34c-.6-.32-.15-.81.48-.52.26.12.38.12.5,0s.92-.21.92,0A3.94,3.94,0,0,1,91,26.44Zm10.44,1.18c-.21.2-.25.35-.18.79s.06.53-.18.45a.71.71,0,0,0-.53.12c-.39.3-.47.26-.47-.27a.92.92,0,0,0-.4-.83c-.48-.4-.43-.59.14-.59a.52.52,0,0,0,.56-.34c.19-.42.28-.43.46,0,.09.23.23.3.5.28C101.76,27.16,101.79,27.29,101.42,27.62Zm4.64-9.52a3.94,3.94,0,0,1-.69.54l-.42.24v-.41a.76.76,0,0,0-.13-.49.36.36,0,0,1-.14-.3c0-.19,0-.19.26,0s.32.21.55.08a.87.87,0,0,1,.57-.06l.28.09Z"/></g></g></svg>