<svg xmlns="http://www.w3.org/2000/svg" viewBox="0 0 87.11 87.78"><title>Asset 490</title><g id="Layer_2" data-name="Layer 2"><g id="Layer_1-2" data-name="Layer 1"><path d="M87.07,43.6a23.07,23.07,0,0,1-3.37-1.15c-.48-.19-1-.37-1.46-.53-1-.32-1.9-.71-2.83-1.12-.6-.26-1.21-.5-1.81-.75l-.74-.31L74,38.45,72.9,38c.1-.09.17-.16.24-.21.55-.39,1-.84,1.55-1.27.71-.59,1.32-1.27,2-1.92.87-.86,1.53-1.9,2.31-2.84.43-.52.76-1.11,1.17-1.64.58-.76,1.19-1.5,1.8-2.23a2.77,2.77,0,0,1,1.58-1.1.52.52,0,0,0,.16-.06.31.31,0,0,0,.09-.07.26.26,0,0,0,0-.15.16.16,0,0,0-.12-.09.35.35,0,0,0-.17,0A23.28,23.28,0,0,1,80.2,27c-.93.13-1.87.15-2.81.2s-1.61,0-2.41,0c-1.15,0-2.3.1-3.45.15a11.36,11.36,0,0,0-1.83.19,3,3,0,0,1-.52,0,.47.47,0,0,1,0-.17,4.91,4.91,0,0,1,.28-.5c.26-.47.55-.92.79-1.4.4-.78.8-1.57,1.23-2.34s.82-1.56,1.31-2.29c.16-.24.29-.5.44-.74s.41-.69.64-1,.55-.79.84-1.17.65-.85,1-1.26.69-.78,1-1.16a.6.6,0,0,0,.09-.15c0-.08,0-.15-.07-.17a5.3,5.3,0,0,1-.7.38c-.51.2-1,.38-1.57.55-.29.1-.6.12-.89.23a9.83,9.83,0,0,1-1.77.47c-.83.16-1.66.31-2.5.43s-1.68.15-2.51.28c-1,.17-2.09.3-3.11.57a13.93,13.93,0,0,0-3.11,1.18c-.26.14-.54.27-.81.4a.45.45,0,0,1-.06-.13,12.22,12.22,0,0,0,.31-1.81c.07-.69.15-1.37.16-2.06,0-.46,0-.92,0-1.38a10,10,0,0,0-.18-2.18c-.12-.54-.29-1.07-.41-1.61-.07-.32-.09-.64-.13-1s-.05-.65-.08-1a14.68,14.68,0,0,1-.06-2.81,16.4,16.4,0,0,1,.4-2.09c.09-.34,0-.55-.27-.69-.05,0-.1,0-.11.07A13.15,13.15,0,0,1,58.12,5.5c-.57.93-1.2,1.82-1.82,2.73a9.71,9.71,0,0,1-.73,1c-.71.78-1.35,1.61-2.12,2.35s-1.78,1.73-2.72,2.55c-.6.54-1.21,1.06-1.82,1.59a1.07,1.07,0,0,1-.17.06c-.05-.2-.09-.38-.13-.57-.09-.41-.16-.82-.29-1.22-.29-.93-.59-1.86-.92-2.78-.23-.65-.48-1.3-.77-1.92s-.54-1-.82-1.45-.37-.68-.58-1a11.44,11.44,0,0,1-1.51-3.15A6.89,6.89,0,0,1,43.39.37a.22.22,0,0,0,0-.11A1.34,1.34,0,0,0,43.31,0c-.16.19-.31,1.7-.5,2.3-.28.86-.56,1.71-.85,2.57A8.87,8.87,0,0,1,41.54,6C41,7.13,40.4,8.25,39.83,9.38c-.12.24-.2.49-.32.73-.31.66-.62,1.32-.94,2-.08.17-.14.35-.23.52a7.17,7.17,0,0,0-.62,1.55c0,.14-.09.27-.16.47a4.12,4.12,0,0,1-.36-.35,7.92,7.92,0,0,0-1.68-1.64l-2.33-1.7c-.46-.33-.93-.66-1.38-1s-1-.9-1.59-1.33-1.39-1-2-1.61a3.7,3.7,0,0,1-.92-1,1,1,0,0,0-.18-.22,6.33,6.33,0,0,1-1.31-1.94.17.17,0,0,0-.06-.1.31.31,0,0,0-.14-.09.25.25,0,0,0-.15,0,.1.1,0,0,0,0,.1.79.79,0,0,0,.06.22,11.16,11.16,0,0,1,.79,2.76c.18,1,.29,2,.42,3a7,7,0,0,1,.1.91,23.6,23.6,0,0,1-.26,3.56c-.18,1.1-.28,2.2-.37,3.31,0,.38,0,.77-.05,1.15,0,.07,0,.16-.11.2a1.79,1.79,0,0,1-.32-.19,12.16,12.16,0,0,0-2.73-1.68,6.06,6.06,0,0,0-2.17-.73l-.11,0-2.72-.91c-.29-.1-.58-.2-.87-.32-.87-.35-1.74-.69-2.64-1a3.25,3.25,0,0,1-1.48-.85L12.77,13c-.14-.08-.26-.07-.33.07l.93,1.16c.47.58,1,1.15,1.4,1.75.3.4.57.82.83,1.24a6.8,6.8,0,0,1,.71,1.69c.22.78.5,1.53.69,2.31a28.88,28.88,0,0,0,1.35,4.45c0,.12.14.24,0,.39h-.16A3.45,3.45,0,0,0,17,26,7,7,0,0,1,16,26a7.77,7.77,0,0,0-2,.17,2.57,2.57,0,0,1-.4.08l-3.95.36a9.68,9.68,0,0,1-2.52-.09,7.3,7.3,0,0,1-2.76-.9,1.27,1.27,0,0,0-.32-.13,1,1,0,0,0-.2,0,1,1,0,0,0,.16.24c.26.23.55.43.79.68A26.25,26.25,0,0,1,7.49,29.9c.24.37.46.75.72,1.11a22.57,22.57,0,0,1,1.37,2.33l.21.4a13.22,13.22,0,0,0,1.12,1.74,10.24,10.24,0,0,0,1.41,1.81s0,.07,0,.12c-.28.12-.57.23-.83.37-1,.55-2.07,1.1-3.09,1.68-.61.35-1.21.73-1.8,1.12s-1.06.77-1.62,1.1c-.82.49-1.67.93-2.52,1.38a3.81,3.81,0,0,1-1,.43,5.52,5.52,0,0,1-.9.18.72.72,0,0,0-.57.22.18.18,0,0,0,0,.16c0,.05.09.11.12.1a1.8,1.8,0,0,1,.8,0,6.64,6.64,0,0,1,2.39.57c.68.3,1.37.59,2.05.9s1.33.6,2,.91C8.24,47,9,47.53,9.92,48s1.79,1,2.68,1.46l.51.31a2.38,2.38,0,0,1-.19.17,8.82,8.82,0,0,0-1.4,1.19c-.69.7-1.38,1.39-2,2.1a13,13,0,0,0-1.51,2,6.85,6.85,0,0,1-1.22,1.52,11.22,11.22,0,0,0-1,1c-.5.58-1,1.17-1.46,1.77a1.52,1.52,0,0,1-.87.61.88.88,0,0,0-.68.8.64.64,0,0,0,.25,0,4.75,4.75,0,0,0,.78-.47A1.58,1.58,0,0,1,4.52,60l1.24-.27a14.45,14.45,0,0,1,3.59-.36,11,11,0,0,1,1.15,0c1.39.17,2.77.37,4.16.54a16.17,16.17,0,0,0,1.83.17A17.09,17.09,0,0,0,19.07,60s.06,0,.12.08-.07.2-.12.3c-.19.36-.37.72-.57,1.07a19.42,19.42,0,0,0-1.26,3.14c-.31.82-.58,1.66-.85,2.5s-.57,1.79-.85,2.69a6.65,6.65,0,0,1-1.13,2.37,1.27,1.27,0,0,0-.13.19,4.65,4.65,0,0,1-.78,1.13c-.34.32-.48.78-.86,1.07-.1.08-.1.2,0,.32l.19-.1,2.43-1.84c.29-.22.58-.44.89-.63a15.87,15.87,0,0,1,2.54-1.19c.62-.26,1.27-.44,1.91-.65.43-.14.87-.29,1.32-.39a33.7,33.7,0,0,0,3.27-.91A2,2,0,0,1,26,69l-.12.91A7.39,7.39,0,0,0,25.73,71c0,.86.08,1.72.13,2.59,0,.59.06,1.18.08,1.77,0,.79,0,1.58,0,2.36,0,.54,0,1.08,0,1.61s-.08,1.34-.09,2a8.33,8.33,0,0,1-.28,1.93,4.5,4.5,0,0,0-.08.51c0,.08,0,.15.15.17s.1-.13.14-.2a11.87,11.87,0,0,1,.66-1c.55-.69,1.13-1.35,1.69-2a16.21,16.21,0,0,1,2.32-2c.69-.57,1.52-1,2.22-1.52a3,3,0,0,1,.3-.18l.61-.43c.49-.4,1-.79,1.47-1.2a10,10,0,0,0,1.93-2c.26-.41.53-.81.79-1.21l.25-.36a3.43,3.43,0,0,1,.1.33c.13.5.27,1,.38,1.5a7.7,7.7,0,0,0,1.31,2.79,13,13,0,0,1,.81,1.32c.3.56.54,1.15.83,1.71A8.9,8.9,0,0,1,42.18,81c.19.65.39,1.29.58,1.93s.39,1.2.55,1.81a2.84,2.84,0,0,1,.07,1.2,4.48,4.48,0,0,0,0,1.71s.1.09.15.13.09-.09.08-.13a7.28,7.28,0,0,1,0-1.32,5.53,5.53,0,0,1,.26-1.46c0-.15.06-.3.1-.45.15-.59.27-1.2.47-1.78s.51-1.32.78-2,.64-1.51.95-2.28.69-1.66,1-2.49c.23-.53.49-1,.68-1.58.27-.78.48-1.58.73-2.37a1.24,1.24,0,0,1,.25-.55c.25.38.48.73.7,1.09a20.33,20.33,0,0,0,1.5,2,9.91,9.91,0,0,0,1.23,1.28c.72.61,1.46,1.18,2.22,1.73a34.62,34.62,0,0,1,3.78,3.27c.18.17.35.36.53.53a12.42,12.42,0,0,1,1.46,1.62c.3.4.62.78.94,1.16a.18.18,0,0,0,.19,0,.2.2,0,0,0,.08-.19,1.19,1.19,0,0,0-.1-.32c-.08-.24-.18-.47-.24-.71-.22-1-.41-2-.65-3a13,13,0,0,1-.29-2.91c0-.61,0-1.23-.05-1.84a16.5,16.5,0,0,1,0-1.72A18.55,18.55,0,0,0,60.1,71a19.42,19.42,0,0,0-.32-2c0-.09-.06-.19.07-.28l.76.35,2,.79A28.54,28.54,0,0,0,66.07,71c.62.19,1.25.37,1.87.57.43.14.86.31,1.3.44a6.77,6.77,0,0,1,2.17,1c.33.23.67.44,1,.68s.46.4.69.6.35.3.53.43.17.09.25-.06a1.65,1.65,0,0,0-.32-.44,2.65,2.65,0,0,1-.47-.59A14.73,14.73,0,0,1,71.79,71c-.1-.31-.24-.61-.36-.91C71,69,70.5,67.87,70.05,66.75l-1.59-4-.3-.74c-.09-.23-.2-.45-.29-.68a.61.61,0,0,1,.53,0,16.1,16.1,0,0,0,2.83.48,10.14,10.14,0,0,0,2.06,0l1.26-.13c.88-.09,1.76-.16,2.63-.26a28.05,28.05,0,0,1,3-.21c.38,0,.77,0,1.15,0a2.66,2.66,0,0,1,1.44.3,3.24,3.24,0,0,0,.55.19c.11,0,.22-.12.16-.23a.42.42,0,0,0-.17-.2,7,7,0,0,0-.88-.29,1.54,1.54,0,0,1-.61-.28c-.64-.47-1.28-.92-1.92-1.37a7.66,7.66,0,0,1-1.4-1.19c-1.53-1.75-3-3.52-4.54-5.28-.19-.22-.35-.46-.55-.67a18.63,18.63,0,0,0-2.33-2.37c-.08-.07-.21-.13-.16-.29l.15,0c.74-.09,1.49-.16,2.23-.27A11,11,0,0,0,74.86,49a12.81,12.81,0,0,0,3.21-1.25,1.48,1.48,0,0,1,.31-.15,22.57,22.57,0,0,0,2.46-1.23,12.88,12.88,0,0,1,1.26-.69c.69-.3,1.33-.68,2-1a8.22,8.22,0,0,1,1.69-.69,1.54,1.54,0,0,1,1.12-.1.16.16,0,0,0,.21-.18S87.08,43.6,87.07,43.6ZM69.54,27.94l2.92-.29c.36,0,.73,0,1.09-.07a22.38,22.38,0,0,1,2.59,0h.8c.4,0,.81,0,1.21-.06.95-.07,1.91-.13,2.86-.22a4.6,4.6,0,0,1,1.08-.11.9.9,0,0,1-.09.21c-.5.6-1,1.19-1.51,1.8a10.85,10.85,0,0,0-.81,1.11,13.77,13.77,0,0,1-2,2.41,9.28,9.28,0,0,0-.67.85,21.26,21.26,0,0,1-2.81,3c-.36.31-.74.6-1.12.89l-.28.2a1.19,1.19,0,0,1-1,.17,9.16,9.16,0,0,0-2.34-.23c-.28,0-.57,0-.86,0l-1.6.1a2.73,2.73,0,0,0-.4,0,25,25,0,0,0-2.93.83,5.61,5.61,0,0,0-1.4.77l-.73.57a1.92,1.92,0,0,1-.25.12c-.22-.78-.43-1.54-.66-2.28a9.64,9.64,0,0,0-.92-2.11c-.39-.67-.81-1.33-1.24-2a.91.91,0,0,1,.25,0,6.21,6.21,0,0,0,1.43,0l1-.12a6.1,6.1,0,0,0,2.09-.63c.58-.28,1.16-.57,1.73-.89a4.64,4.64,0,0,0,.9-.62,14.33,14.33,0,0,0,2.45-2.65A1.5,1.5,0,0,1,69.54,27.94ZM61.28,43.36h0c0,.41,0,.81,0,1.21a10.8,10.8,0,0,1-.3,2c-.07.3-.12.6-.16.9a3,3,0,0,1-.4,1.19,2.27,2.27,0,0,0-.21.41A17.71,17.71,0,0,1,58.9,52c-.12.24-.24.48-.37.71a16.75,16.75,0,0,1-3.15,3.87c-.55.5-1.15.94-1.75,1.4a19.53,19.53,0,0,1-2.92,1.82,14.21,14.21,0,0,1-2.38,1,16.3,16.3,0,0,1-4.65.63,20.18,20.18,0,0,1-3.1-.2,6,6,0,0,1-1.49-.39,2.81,2.81,0,0,0-.49-.16,15.52,15.52,0,0,1-2.63-1c-.48-.22-1-.45-1.44-.7a7.15,7.15,0,0,1-.88-.54A21.19,21.19,0,0,1,30.81,56a18.54,18.54,0,0,1-2.32-2.76,11,11,0,0,1-1.26-2.31c-.24-.64-.51-1.28-.71-1.94a17.45,17.45,0,0,1-.84-3.92,22.88,22.88,0,0,1,.1-4.3,5.88,5.88,0,0,1,.54-2.17,1.29,1.29,0,0,0,.07-.21A19.82,19.82,0,0,1,28,34.76a7.68,7.68,0,0,1,.66-.95c.58-.76,1.16-1.52,1.76-2.26a10,10,0,0,1,1.18-1.25c.51-.46,1-1,1.54-1.38a16.24,16.24,0,0,1,2.11-1.28c.69-.35,1.43-.55,2.13-.84l.17-.05c.95-.22,1.89-.47,2.86-.6.74-.11,1.48-.24,2.23-.29a19.43,19.43,0,0,1,2.29,0c.93,0,1.81.33,2.73.41a.87.87,0,0,1,.22,0,12.14,12.14,0,0,0,1.94.7,14.34,14.34,0,0,1,3.5,1.86c.63.44,1.23.91,1.82,1.39A11,11,0,0,1,56.81,32a1.24,1.24,0,0,0,.17.23,19.8,19.8,0,0,1,1.7,2.17A10.35,10.35,0,0,1,60.09,37c.15.41.34.81.49,1.23a10.35,10.35,0,0,1,.51,2.52C61.18,41.64,61.22,42.5,61.28,43.36ZM60.06,20a11,11,0,0,1,3.25-1.41c1.29-.31,2.59-.51,3.9-.73.54-.1,1.09-.18,1.64-.25.25,0,.5,0,.74-.07.6-.11,1.2-.29,1.8-.34a26.42,26.42,0,0,0,2.8-.64c.35-.07.7-.18,1-.28a3,3,0,0,0,.35-.19l.35-.16c-.63.84-1.21,1.67-1.82,2.48a16.39,16.39,0,0,0-1,1.65,13.12,13.12,0,0,1-.69,1.13,22.66,22.66,0,0,0-1.22,2.14c-.51.92-1,1.87-1.49,2.79-.38.68-.79,1.36-1.22,2a12.34,12.34,0,0,1-1.1,1.48,12.07,12.07,0,0,1-1.88,1.76,6.89,6.89,0,0,1-.73.46c-.47.25-1,.46-1.44.7a4.94,4.94,0,0,1-1.58.5l-1.94.25h-.46l-1.13-.07a21.23,21.23,0,0,0-4.32-4.25,6.71,6.71,0,0,1,.42-2.11,12.31,12.31,0,0,1,1.48-3,12.49,12.49,0,0,1,2.37-2.5C58.77,20.87,59.4,20.39,60.06,20Zm-11.27-.23a15,15,0,0,0,.07-2.12c0-.14,0-.27,0-.4a1.72,1.72,0,0,1,.66-1.62c.85-.75,1.71-1.48,2.54-2.24.67-.61,1.31-1.24,1.94-1.88.3-.3.57-.62.85-.94s.6-.64.87-1,.76-1,1.11-1.53.62-1,1-1.48a18.22,18.22,0,0,0,1.38-2.18,1.11,1.11,0,0,1,.3-.36c0,.12,0,.24,0,.36l-.06.4a2,2,0,0,0-.08.33,6.4,6.4,0,0,0-.19,1.24c.06.43,0,.88,0,1.32s.08.83.09,1.25a12.12,12.12,0,0,0,.4,2.61c.07.26.11.53.16.79a1.5,1.5,0,0,1,0,.56,1.77,1.77,0,0,0,.05.51,7.28,7.28,0,0,1,.1.8,21.15,21.15,0,0,1-.18,3.73c0,.34-.08.68-.14,1a4.29,4.29,0,0,1-.42,1.13,1.4,1.4,0,0,1-.47.5,14.79,14.79,0,0,0-3.15,3.07,6.63,6.63,0,0,0-.59,1,12.71,12.71,0,0,0-1.26,3.32,3.17,3.17,0,0,1-.12.44.23.23,0,0,1-.37.12,10.27,10.27,0,0,0-2.12-1.25,7.78,7.78,0,0,0-1.88-.72c-.13,0-.25-.08-.38-.12l-1.71-.62c.36-1,.71-2,1.05-3.06.09-.27.13-.56.2-.84s.16-.67.23-1A10.6,10.6,0,0,0,48.79,19.74ZM37.93,14.27c.22-.57.44-1.15.67-1.71s.43-.94.66-1.4.4-.79.6-1.18a.33.33,0,0,0,.06-.1c.49-1.23,1.17-2.37,1.74-3.56a12.37,12.37,0,0,0,.64-1.66c.22-.73.49-1.44.77-2.25.08.23.14.37.18.52A12.54,12.54,0,0,0,45,7c.29.43.51.91.77,1.35a14.24,14.24,0,0,1,1.38,3.09c.27.86.59,1.7.85,2.56a9.13,9.13,0,0,1,.42,2.31,7.24,7.24,0,0,0,.12.92,9.25,9.25,0,0,1,0,2.35c0,.21,0,.42-.07.63a3.27,3.27,0,0,1,0,.45,19.37,19.37,0,0,1-1,3.43c-.08.2-.15.4-.22.59a1.68,1.68,0,0,1-.74,1.08,16.49,16.49,0,0,0-3.3-.17,28.14,28.14,0,0,0-3.21.38c-.16-.21-.27-.39-.41-.55a10.65,10.65,0,0,1-1.9-3.77,12.74,12.74,0,0,1-.5-3A20.3,20.3,0,0,1,37.93,14.27ZM26.45,17.16c.11-.67.15-1.34.23-2s.19-1.49.28-2.23c0-.3.06-.61.07-.91,0-.46,0-.92,0-1.38q0-.41-.06-.81c-.08-.61-.17-1.21-.25-1.82,0-.3,0-.61-.08-.91A4.31,4.31,0,0,0,26.42,6a4.19,4.19,0,0,1-.17-.66c.22.07.25.26.36.37a2.52,2.52,0,0,1,.33.39A6.33,6.33,0,0,0,28.35,7.5c.86.66,1.77,1.27,2.59,2a19.61,19.61,0,0,0,2.61,2,21.77,21.77,0,0,1,2.58,2,5,5,0,0,1,1.3,1.62,7.75,7.75,0,0,0-.33,1.47A9.28,9.28,0,0,0,37,19.1c.05.57.13,1.14.23,1.71a5.2,5.2,0,0,0,.22.77,12.91,12.91,0,0,0,1,2.53,11.86,11.86,0,0,0,1,1.52c.05.08.11.15.22.3l-1,.23-.94.23a13.3,13.3,0,0,0-3.23,1.35A7.46,7.46,0,0,0,32.63,29a4.73,4.73,0,0,1-.46.32.56.56,0,0,1-.21-.47,13.33,13.33,0,0,0-.39-2,12.39,12.39,0,0,0-1.07-2.52c-.37-.68-.88-1.25-1.27-1.91A11.52,11.52,0,0,0,26.8,19.6a1.11,1.11,0,0,1-.41-.9A9.87,9.87,0,0,1,26.45,17.16ZM18,24c-.22-.82-.45-1.62-.67-2.44-.09-.33-.14-.67-.23-1a3.3,3.3,0,0,0-.35-1,1.27,1.27,0,0,1-.13-.32,8.5,8.5,0,0,0-1-2.53,9.19,9.19,0,0,0-.76-1c-.35-.45-.72-.89-1.07-1.34a1.75,1.75,0,0,1-.17-.36,2.19,2.19,0,0,1,.29,0,24.26,24.26,0,0,1,2.58,1c.73.33,1.52.53,2.28.8l1,.36a4.6,4.6,0,0,0,.77.25,9.35,9.35,0,0,1,2.43.85,10,10,0,0,1,2.58,1.6c.45.41,1,.75,1.4,1.18a12,12,0,0,1,2,2.41,11.37,11.37,0,0,0,.77,1.14,6.18,6.18,0,0,1,.61,1,12.2,12.2,0,0,1,1.28,4.09c0,.25.09.49.14.73a.46.46,0,0,1-.17.51,15.06,15.06,0,0,0-2.06,2.31c-.32.43-.67.84-1,1.28a3.51,3.51,0,0,1-1.77-.37,13.5,13.5,0,0,0-1.86-.72,5.88,5.88,0,0,1-1.3-.6,8.29,8.29,0,0,1-1.65-1.24,11.48,11.48,0,0,1-.78-.92,26.27,26.27,0,0,1-1.66-2.4,6.65,6.65,0,0,0-.41-.74,2.9,2.9,0,0,1-.42-.75A11.29,11.29,0,0,1,18,24ZM11.6,36a2,2,0,0,0-.21-.28A8.43,8.43,0,0,1,10,33.56a34.57,34.57,0,0,0-1.89-3.29,31.52,31.52,0,0,0-2.07-2.83,6,6,0,0,1-.73-.9,1,1,0,0,1,.62.11,2.59,2.59,0,0,0,.61.15c.48.06.94.17,1.42.24s4.23-.22,5.08-.28c.2,0,2.47-.4,3.41-.41.59,0,1.18,0,1.78.06a.8.8,0,0,1,.7.42,7.84,7.84,0,0,0,.41.69c.58.86,1.15,1.73,1.74,2.57a6.93,6.93,0,0,0,1.41,1.35A7.77,7.77,0,0,0,25,32.71a9.5,9.5,0,0,1,1.32.56,4.86,4.86,0,0,0,1.62.55,1.16,1.16,0,0,1,.2.08c-.2.38-.4.73-.58,1.09-.32.61-.63,1.22-.94,1.84a7.77,7.77,0,0,0-.31.8c-.25.76-.49,1.53-.74,2.3a1.84,1.84,0,0,1-.1.16l-.34-.21-1.44-1.05a8,8,0,0,0-2.37-1.15c-.31-.1-.62-.21-.93-.29a9,9,0,0,0-2.72-.4,15,15,0,0,0-2,.06,13.94,13.94,0,0,0-2.58.18h-.27A3.86,3.86,0,0,1,11.6,36Zm1.22,13.26c-.87-.49-1.75-.94-2.62-1.44s-1.91-1.05-2.88-1.54S5.53,45.37,4.62,45c-.63-.28-1.28-.53-1.92-.77a3.18,3.18,0,0,0-.61-.14l-.63-.14a1.38,1.38,0,0,1,.28-.2A25.88,25.88,0,0,0,4.08,42.5,21.25,21.25,0,0,0,6.54,41a25,25,0,0,1,3.14-1.91,2.33,2.33,0,0,0,.34-.2,9,9,0,0,1,2.78-1.34,5.1,5.1,0,0,1,.68-.13,26.14,26.14,0,0,1,4-.19,11.57,11.57,0,0,1,4.52,1,10.58,10.58,0,0,1,1.86,1q.42.28.84.6a6.57,6.57,0,0,1,.57.48.92.92,0,0,1,.29.88,16.56,16.56,0,0,0,0,5.21c0,.15,0,.3.07.49a2.42,2.42,0,0,0-.71.63,6.12,6.12,0,0,1-1.38,1.21,9.66,9.66,0,0,1-2.18,1.15,8,8,0,0,1-2.47.5h-.34a9.48,9.48,0,0,1-3.14-.2A8.85,8.85,0,0,1,12.82,49.22Zm6.29,10.41a6.41,6.41,0,0,1-1,.16c-.69,0-1.38,0-2.07,0a14,14,0,0,1-1.44-.12l-2.45-.33c-.57-.08-1.14-.17-1.71-.23a6.91,6.91,0,0,0-.91,0c-.69,0-1.38,0-2.07,0a3.26,3.26,0,0,0-.69.09l-2.19.46a.41.41,0,0,1-.12,0s0-.11,0-.15c.6-.64,1.15-1.33,1.77-2s1-1.18,1.54-1.79c.2-.25.35-.55.53-.81A23,23,0,0,1,9.93,53.1c.6-.67,1.26-1.28,1.9-1.92a7.43,7.43,0,0,1,1-.87,2.64,2.64,0,0,1,.72-.34.48.48,0,0,1,.33.05l1.27.37a7.56,7.56,0,0,0,2.16.3,13.11,13.11,0,0,0,2.8-.2A10.79,10.79,0,0,0,23,49.36a8.93,8.93,0,0,0,2.1-1.67,2.44,2.44,0,0,1,.4-.32.22.22,0,0,1,.35.16,25.06,25.06,0,0,0,.9,2.91c.18.48.37,1,.58,1.43a6,6,0,0,0,.41.69l.85,1.34a3.23,3.23,0,0,1-.8.2,11.07,11.07,0,0,0-3.55,1.08,4.43,4.43,0,0,0-.59.36,12.18,12.18,0,0,0-2.26,1.85c-.53.56-1,1.14-1.52,1.73A1.41,1.41,0,0,1,19.11,59.63Zm6.38,9.13c-.37.1-.72.26-1.09.36-.86.24-1.74.46-2.6.69-1.32.36-2.61.78-3.89,1.25-.48.18-.94.42-1.41.64a11,11,0,0,0-1.65,1.14l-.69.51-.09-.08c.18-.27.34-.55.54-.8a5.17,5.17,0,0,0,.75-1.41c.51-1.37,1-2.74,1.46-4.12.29-.87.54-1.76.79-2.64a12.84,12.84,0,0,1,.82-2.08c.35-.73.75-1.43,1.12-2.14a7.85,7.85,0,0,1,1.2-1.61c.45-.5.91-1,1.38-1.46a5.62,5.62,0,0,1,.53-.44A9.47,9.47,0,0,1,25.55,55a14.42,14.42,0,0,1,3-.63.66.66,0,0,1,.64.27c.85,1,1.72,1.9,2.65,2.79.18.17.39.32.58.48l.44.38c-.06.55-.1,1.08-.19,1.61s-.22,1.13-.32,1.69c-.07.38-.14.75-.19,1.13a4.16,4.16,0,0,1-.39,1.14A7.89,7.89,0,0,1,31,65c-.27.28-.49.59-.74.88a7.33,7.33,0,0,1-1.79,1.5A11.53,11.53,0,0,1,25.49,68.76ZM38,70.38a1.69,1.69,0,0,1-.12.94,10.78,10.78,0,0,1-.42,1.07,12.11,12.11,0,0,1-1.66,2A20.07,20.07,0,0,1,34,76c-.47.36-.94.72-1.43,1.06-.72.51-1.48,1-2.18,1.49a13.79,13.79,0,0,0-2.8,2.54c-.36.47-.81.86-1.14,1.36,0,.06-.11.09-.15.13s-.12-.13-.12-.2a3.54,3.54,0,0,1,0-.46c.14-1.22.06-2.45.09-3.68,0-.34,0-.68,0-1,0-1,0-2.06-.07-3.1,0-.47-.1-1-.15-1.43a11.48,11.48,0,0,1,.2-3.2,1.2,1.2,0,0,1,.73-1,14.78,14.78,0,0,0,1.42-.75,8.21,8.21,0,0,0,2.33-1.94l.85-1.08a4.58,4.58,0,0,0,.86-2.1c.17-1.12.41-2.23.64-3.34a1.21,1.21,0,0,1,.2-.7L34,59a25.59,25.59,0,0,0,3.81,1.73c.58.21,1.17.38,1.75.56l.23.1c-.22.47-.44.92-.64,1.37a10.84,10.84,0,0,0-.7,1.93,22.08,22.08,0,0,0-.49,2.89,10.76,10.76,0,0,0,0,1.14C37.88,69.27,37.93,69.83,38,70.38Zm10.56,1.08a25.92,25.92,0,0,1-.83,2.63c-.22.53-.45,1.06-.68,1.59l-.3.74L46,78.06c0,.07-1.07,2.23-1.21,2.77S44,83.64,44,83.69c-.12.36-.24.72-.37,1.13-.18-.5-.36-1-.51-1.44-.29-.95-.53-1.92-.85-2.86a15.26,15.26,0,0,0-1.61-3.36,26.8,26.8,0,0,1-1.4-2.37,8.07,8.07,0,0,1-.71-2.11,16.35,16.35,0,0,1-.35-2.5,8.45,8.45,0,0,1,0-2,5.46,5.46,0,0,0,0-.57,14.31,14.31,0,0,1,.88-4.09c.19-.52.44-1,.67-1.53a3.36,3.36,0,0,1,.29-.44,1.27,1.27,0,0,1,.67,0l.91.1c.46,0,.92.07,1.38.08.28,0,.57,0,.86,0,.69,0,1.38-.07,2.07-.12a.47.47,0,0,1,.36.13,9.86,9.86,0,0,1,1,1c.3.4.53.85.79,1.27.12.2.24.39.37.58A4.66,4.66,0,0,1,49,66.41a15.62,15.62,0,0,1,0,3A8.65,8.65,0,0,1,48.53,71.46Zm11.28-.14c0,.19,0,.38,0,.57,0,.52,0,1,0,1.55s0,.85,0,1.27c0,1.15.08,2.3.14,3.44a16.45,16.45,0,0,0,.58,3.34c.07.29.17.58.24.88A5.91,5.91,0,0,1,61,83a1.16,1.16,0,0,1-.22-.17,23.19,23.19,0,0,0-3.24-3.33c-.21-.18-.4-.37-.59-.55a21.13,21.13,0,0,0-2.15-1.73c-.61-.43-1.2-.89-1.79-1.35a10,10,0,0,1-1.29-1.23,23.06,23.06,0,0,1-1.59-2,6.46,6.46,0,0,1-.92-1.59.88.88,0,0,0-.14-.23c.09-.69.2-1.37.27-2.06a11.29,11.29,0,0,0-.2-3.43,4.46,4.46,0,0,0-.49-1.22,17.09,17.09,0,0,0-.94-1.45c-.2-.28-.43-.53-.65-.8l-.26-.35a7.33,7.33,0,0,1,1.32-.39,6.19,6.19,0,0,0,1.78-.63c.87-.44,1.73-.9,2.6-1.35a2.69,2.69,0,0,0,.27-.2l.33-.19A8.66,8.66,0,0,1,53.41,60a5.09,5.09,0,0,0,.14.56c.27.7.54,1.39.83,2.08a3.56,3.56,0,0,0,.27.51,2.29,2.29,0,0,1,.18.29A11.52,11.52,0,0,0,55.9,65.3a8.28,8.28,0,0,0,1.72,1.92,8.51,8.51,0,0,0,1.26.9,1.19,1.19,0,0,1,.57.82A11.22,11.22,0,0,1,59.81,71.32Zm8.11-9.17c.19.46.41.91.56,1.38.35,1.1,1.55,4,1.6,4.16.18.44,1.69,4.25,2.19,5.12a1.12,1.12,0,0,1,.21.61l-.25-.15-1.16-.76A4.73,4.73,0,0,0,69.94,72c-.2-.06-.39-.15-.59-.23a27.49,27.49,0,0,0-3-.9,21.92,21.92,0,0,1-2.85-.9c-.46-.19-1-.32-1.41-.5-.69-.28-1.39-.56-2.06-.89a10.2,10.2,0,0,1-2.83-2.05,10,10,0,0,1-1.58-2.18c-.3-.53-.61-1.06-.9-1.6a5.93,5.93,0,0,1-.31-.68c-.22-.53-.43-1.07-.61-1.61s-.28-1-.42-1.56a.36.36,0,0,1,.14-.4c.36-.29.71-.59,1.08-.86a15.15,15.15,0,0,0,1.83-1.66c.34-.34.65-.7,1-1.08.24,0,.51,0,.77.08.68.12,1.36.26,2,.37a6.17,6.17,0,0,1,1.47.48,9.39,9.39,0,0,1,1.84.94,9.74,9.74,0,0,1,2.7,2.46,19.75,19.75,0,0,1,1.28,2.11C67.7,61.57,67.8,61.86,67.92,62.15ZM72,51.07c.51.52,1,1.11,1.48,1.6s.67.88,1,1.29.73.84,1.1,1.25l1.65,1.91c.33.38.62.77,1,1.14a9.07,9.07,0,0,0,1.53,1.3l1.54,1.11a1,1,0,0,1,.15.14c-.06.14-.17.11-.26.11-1.72,0-3.44.19-5.16.4l-2.17.25a14.31,14.31,0,0,1-3.27-.06,16.36,16.36,0,0,1-2.41-.5,1.25,1.25,0,0,1-.83-.64,14.84,14.84,0,0,0-1.08-1.63,11.06,11.06,0,0,0-2.67-2.33c-.54-.3-1.1-.55-1.66-.8a9.36,9.36,0,0,0-2.75-.8c-.34,0-.68-.1-1-.17a3.35,3.35,0,0,1-.4-.12c.38-.62.75-1.2,1.08-1.79s.64-1.18.93-1.79.5-1.28.82-1.89.36-1.29.71-1.91a1,1,0,0,1,.29,0,9,9,0,0,1,.89.41c.79.44,1.66.68,2.48,1.05a4.16,4.16,0,0,0,1,.28c.53.1,1.06.17,1.59.25l.4.06,1.19.16c.32,0,.64.08,1,.14.1,0,.16.15.26.2A6.42,6.42,0,0,1,72,51.07Zm13.48-7.31a15.85,15.85,0,0,0-2.29,1.06l-2.55,1.32c-.19.1-.37.21-.56.3-1.1.54-2.18,1.11-3.3,1.61a11,11,0,0,1-3,.86l-1.42.23a10.65,10.65,0,0,1-3.38,0c-.89-.14-1.78-.26-2.66-.42a9.12,9.12,0,0,1-1.44-.42,14.84,14.84,0,0,1-2.05-.9c-.46-.26-1-.47-1.47-.72a1.52,1.52,0,0,1,0-.37,10.36,10.36,0,0,0,.21-3.14c0-.8-.1-1.6-.15-2.41a2.43,2.43,0,0,1,0-.27c.31-.26.62-.48.9-.74a5.77,5.77,0,0,1,1.75-1,12.65,12.65,0,0,1,2.77-.7,17,17,0,0,1,3.54-.21,5.8,5.8,0,0,1,1.75.31l.22.05a6.64,6.64,0,0,1,1.84.61l1.11.46a11.87,11.87,0,0,1,1.14.54,11.85,11.85,0,0,0,1.68.73c.36.13.71.29,1.06.44a32.32,32.32,0,0,0,3.26,1.27c.64.21,1.25.47,1.88.71.36.13.71.28,1.07.42l.41.2A1.7,1.7,0,0,1,85.47,43.76ZM41,43.74c-.15.1-.26,0-.37-.07a4.54,4.54,0,0,0-1.53-.47,2.64,2.64,0,0,1-.28,0,2.7,2.7,0,0,0-1.83.3,2.06,2.06,0,0,0-.26.12,1.7,1.7,0,0,1-1.49.14,10.44,10.44,0,0,1-1-.37l-.74-.31c-.34-.13-.38-.29-.15-.6,0,0,.06,0,.12-.08a2.62,2.62,0,0,1,.81.35,6.16,6.16,0,0,0,1.43.59,1.86,1.86,0,0,0,.4,0c-.57-.37-1.19-.42-1.52-.91,0-.15.11-.23.25-.16l1,.52a1.5,1.5,0,0,0,1.06.1,2.83,2.83,0,0,0,.5-.13,3.07,3.07,0,0,1,1.53-.13,3.83,3.83,0,0,1,1.83.61l.15.1C41,43.5,41.08,43.68,41,43.74Zm3.55,11.72a.59.59,0,0,0-.56.19,1.63,1.63,0,0,1-.38.24l-.22-.13a1.2,1.2,0,0,0-1.4,0A1.26,1.26,0,0,1,41,56s0,0,0,0a.33.33,0,0,0,.19.32c.49.33,1,.69,1.49,1a1.52,1.52,0,0,0,1.59-.08c.38-.25.8-.45,1.19-.69a3.58,3.58,0,0,0,.56-.4,1.25,1.25,0,0,0,.15-.28.83.83,0,0,1-.66-.15A3.07,3.07,0,0,0,44.55,55.46Zm-1.36,1.67a.88.88,0,0,1-.75-.44l.84.09c.24,0,.48-.11.76,0A1,1,0,0,1,43.19,57.13Zm1.46-.81a5.3,5.3,0,0,1-1.25.17A2.62,2.62,0,0,1,42,56.18c.52-.4.76-.43,1.23-.11a.6.6,0,0,0,.74,0l.43-.31a3.18,3.18,0,0,1,1,.27A1.32,1.32,0,0,1,44.65,56.32Zm7.66-12.48a4.79,4.79,0,0,1-2.3-.37,6.46,6.46,0,0,0-1.17-.29h-.23a2.34,2.34,0,0,0-1.94.48,1.91,1.91,0,0,1-.53.22s-.1,0-.24-.09a3.86,3.86,0,0,1,1.43-.87,4.69,4.69,0,0,1,2.87,0,1.79,1.79,0,0,0,1.49-.12,5.57,5.57,0,0,0,.78-.47c.09-.06.17-.11.26,0s.05.21-.07.29L52,43l-.57.26a.49.49,0,0,0,.43.28,2.08,2.08,0,0,0,1.38-.29,2.43,2.43,0,0,1,.28-.14c.16.08.2.17.09.28A1.84,1.84,0,0,1,52.31,43.84Zm-10,5c.26-1.24.5-2.48.73-3.72a8.88,8.88,0,0,0,0-1V43.8a1.79,1.79,0,0,1,.19,1.41c-.18.94-.37,1.88-.55,2.82s-.41,2.18-.71,3.25a5.49,5.49,0,0,0-.17.9.34.34,0,0,0,.24.41,1.94,1.94,0,0,1,1,.74.27.27,0,0,0,.41.05l.26-.23a1.78,1.78,0,0,1,.7-.46c.25,0,.31-.26.2-.5a.59.59,0,0,1,0-.58c.06,0,.14.06.17.11a1,1,0,0,1,.17.65c0,.3-.15.52-.46.57a.78.78,0,0,0-.43.27,6.25,6.25,0,0,1-.45.44.44.44,0,0,1-.66,0,1.24,1.24,0,0,1-.14-.18,1.43,1.43,0,0,0-.78-.56.56.56,0,0,1-.44-.59,3.57,3.57,0,0,1,.09-.8C41.86,50.6,42.1,49.71,42.3,48.81Zm.64-15.35a2.87,2.87,0,0,1-.13-2c.13-.38.22-.77.34-1.19.07,0,.19,0,.23.1a6.17,6.17,0,0,1,.7,1.75A1.79,1.79,0,0,1,44,33a3.66,3.66,0,0,1-.57,1.11A1.19,1.19,0,0,1,42.94,33.46Zm-3.73,1.8s-.05-.09-.07-.13.06-.09.08-.09a1.53,1.53,0,0,0,.81-.23,2.43,2.43,0,0,1,1.21-.32,1.51,1.51,0,0,1,1.33.63,1.71,1.71,0,0,1,.07.18,2.07,2.07,0,0,1-1.89.56A4.84,4.84,0,0,1,39.21,35.26Zm2.23,2.88c-.36.16-.71.34-1.08.52a.23.23,0,0,1-.11-.28,2.43,2.43,0,0,1,.16-.37c.09-.21.2-.42.29-.62a1.69,1.69,0,0,1,1.18-1,6,6,0,0,0,.63-.22.82.82,0,0,1,0,.75A2.06,2.06,0,0,1,41.44,38.14Zm1.7-2.1a.2.2,0,0,1,.09-.07l.13,0a2.49,2.49,0,0,1,0,3.29c-.11,0-.1-.09-.13-.15s-.13-.4-.2-.6-.19-.62-.29-.92A1.72,1.72,0,0,1,43.14,36ZM40.8,33.39A5.23,5.23,0,0,0,40,32.28a1.53,1.53,0,0,1,.44,0,12,12,0,0,1,1.21.35,1.31,1.31,0,0,1,.81,1c.06.24.1.48.17.77a1.11,1.11,0,0,1-.27.12,1.08,1.08,0,0,1-.8-.26A4.32,4.32,0,0,1,40.8,33.39Zm3.44.39a1.35,1.35,0,0,1,.56-1c.28-.2.58-.38.87-.55l.9-.47a3.71,3.71,0,0,1-.41,1.48,1.19,1.19,0,0,1-.85.62,6.31,6.31,0,0,0-.72.18C44.31,34.17,44.21,34.08,44.24,33.78Zm.95,1.78a3.82,3.82,0,0,1-1.1-.42c0-.08,0-.19.09-.24a1.74,1.74,0,0,1,1.73-.53c.4.1.8.24,1.29.39a3.08,3.08,0,0,1-.35.29c-.29.16-.59.29-.88.44A1.05,1.05,0,0,1,45.19,35.56Zm.17.83a1.86,1.86,0,0,1,1,1.46.74.74,0,0,1,0,.22c-.3-.12-.53-.23-.76-.3a1.59,1.59,0,0,1-1.17-1.22c-.06-.24-.17-.46-.25-.7,0,0,0-.1.08-.14s.07,0,.1,0,0,0,0,0A4.13,4.13,0,0,0,45.36,36.39Zm-2.12-1a.35.35,0,0,1,0-.5.43.43,0,0,1,.15-.09.67.67,0,0,1,.15.06.37.37,0,0,1,0,.5A.22.22,0,0,1,43.24,35.42Zm3.64-1.78a.33.33,0,0,1,.3-.34c.12,0,.23.13.23.27a.32.32,0,0,1-.27.31A.26.26,0,0,1,46.88,33.64Zm9,2.58a.3.3,0,0,1-.38.24c-.09,0-.15-.13-.2-.19a.34.34,0,0,1,.32-.31C55.76,36,55.9,36.11,55.89,36.22ZM50.36,33.5a.26.26,0,0,1,.25-.26.27.27,0,0,1,.27.29.25.25,0,0,1-.24.26A.28.28,0,0,1,50.36,33.5Zm3.33-.08c0-.09.11-.16.15-.22a.31.31,0,0,1,.37.24.24.24,0,0,1-.23.26A.28.28,0,0,1,53.69,33.42Zm-15.81.16a.4.4,0,0,1,.36-.35.76.76,0,0,1,.17.22.31.31,0,0,1-.3.33A.24.24,0,0,1,37.88,33.58ZM28.79,37a.26.26,0,0,1-.26.25.28.28,0,0,1-.25-.26.26.26,0,0,1,.26-.25A.24.24,0,0,1,28.79,37Zm28.3-.68a.28.28,0,0,1-.24.26.24.24,0,0,1-.23-.27,1,1,0,0,1,.16-.22C57,36.1,57.1,36.22,57.09,36.34Zm-8.43-2.72a.22.22,0,0,1,.07-.3l.17,0c.2,0,.29.15.21.27a.5.5,0,0,1-.15.17A.23.23,0,0,1,48.66,33.62Zm-18.89.05c-.07-.1-.18-.22-.07-.36a.16.16,0,0,1,.1-.05.37.37,0,0,1,.37.33s-.09.15-.17.16A.25.25,0,0,1,29.77,33.67ZM53.7,35.1a1.6,1.6,0,0,1-.16-.27,1.09,1.09,0,0,1,.31-.15.3.3,0,0,1,.23.11c.08.11,0,.22-.07.31A.22.22,0,0,1,53.7,35.1Zm-19.51.34a.31.31,0,0,1,.31-.32s.13.1.15.17a.32.32,0,0,1-.18.38A.25.25,0,0,1,34.19,35.44Zm-1.83-.08a.29.29,0,0,1,.26-.31c.09,0,.17.1.23.13a.26.26,0,0,1-.22.32C32.51,35.53,32.37,35.46,32.36,35.36Zm21.51.58c.05.05.15.11.18.2a.22.22,0,0,1-.2.28.26.26,0,0,1-.24-.2C53.57,36.11,53.69,36,53.87,35.94Zm-23.56,1a.29.29,0,0,1-.19.25.26.26,0,0,1-.27-.28c0-.09.11-.16.15-.22A.29.29,0,0,1,30.31,36.92ZM31,35.65A.28.28,0,0,1,31,35.4a.28.28,0,0,1,.26-.26c.11,0,.23.12.18.23a.79.79,0,0,1-.14.23C31.21,35.67,31.1,35.73,31,35.65Zm25-2.22c0,.12-.13.28-.24.28s-.25-.15-.26-.32a1,1,0,0,1,.22-.18A.25.25,0,0,1,56.05,33.43ZM52,35a.26.26,0,0,1,.28-.22.22.22,0,1,1-.07.43C52.07,35.22,52,35.13,52,35ZM34.54,36.65a.21.21,0,0,1,.25.21c0,.16-.1.28-.22.27a.25.25,0,0,1-.19-.29C34.4,36.76,34.5,36.69,34.54,36.65ZM49.17,35c0-.14.09-.22.3-.23,0,0,.13.09.15.15a.25.25,0,0,1-.21.33A.23.23,0,0,1,49.17,35ZM51,34.91a.23.23,0,0,1-.26.23.19.19,0,0,1-.19-.22.26.26,0,0,1,.32-.22A.17.17,0,0,1,51,34.91Zm7.83,1.25a.22.22,0,0,1-.2.23.26.26,0,0,1-.28-.22c0-.12.12-.23.27-.23A.21.21,0,0,1,58.82,36.16Zm-1.58-2.94a.6.6,0,0,1,.24.12.29.29,0,0,1-.21.33.25.25,0,0,1-.25-.24A.22.22,0,0,1,57.24,33.22ZM35.72,37.05a.28.28,0,0,1,.12-.16.62.62,0,0,1,.27,0c.12,0,.19.11.18.28a.7.7,0,0,1-.18.13.45.45,0,0,1-.22,0C35.8,37.21,35.7,37.17,35.72,37.05ZM29.88,35.6a.21.21,0,0,1-.2,0,.26.26,0,0,1-.11-.17.39.39,0,0,1,.06-.2c.05-.09.14-.15.23-.1s.11.12.17.19A1.09,1.09,0,0,1,29.88,35.6Zm22,.56c0-.13.14-.26.27-.22a.3.3,0,0,1,.17.18c0,.13-.1.25-.24.26A.21.21,0,0,1,51.92,36.16Zm.36-2.58a.37.37,0,0,1,.1-.24c0-.05.14-.06.2,0a.22.22,0,0,1,.11.17,3.58,3.58,0,0,1-.11.35C52.39,33.81,52.28,33.74,52.28,33.58Zm-3,2.79a.2.2,0,0,1-.17-.2.27.27,0,0,1,.3-.25s.11.08.11.14S49.46,36.4,49.33,36.37ZM56.69,35a.2.2,0,0,1-.17-.24.24.24,0,0,1,.25-.24.2.2,0,0,1,.17.24A.25.25,0,0,1,56.69,35ZM39.48,33.87a.2.2,0,0,1-.19-.19c0-.14.08-.26.27-.27,0,.05.13.11.14.18A.26.26,0,0,1,39.48,33.87Zm-2.9,0a.34.34,0,0,1-.08-.36s.06-.07.08-.06.18,0,.2.05a1.4,1.4,0,0,1,.13.34A.22.22,0,0,1,36.58,33.83Zm11.21,1.29c0-.13.08-.2.26-.21s.12.11.12.17,0,.23-.18.25A.2.2,0,0,1,47.79,35.12Zm-8.3,1.57c.09,0,.17.11.3.19a1.17,1.17,0,0,1-.27.23c-.1,0-.21-.08-.23-.2A.19.19,0,0,1,39.49,36.69ZM28.24,35.4c0-.12.12-.23.33-.24a.28.28,0,0,1,.05.1.32.32,0,0,1-.18.31A.21.21,0,0,1,28.24,35.4Zm4.62,1.43s.08.09.08.15-.12.3-.22.27a.2.2,0,0,1-.13-.23C32.59,36.88,32.69,36.8,32.86,36.83ZM50.74,36c.08,0,.13.1.22.18-.09.1-.14.2-.23.24s-.19-.09-.18-.21S50.64,35.94,50.74,36ZM31,33.45c0-.08.09-.21.16-.18a1.34,1.34,0,0,1,.28.21c-.09.07-.14.13-.2.14A.2.2,0,0,1,31,33.45Zm3,.28a.19.19,0,0,1-.17-.19.18.18,0,0,1,.21-.19c.08,0,.13.09.18.13S34.13,33.75,34,33.73Zm13,2.13s.11,0,.22.09a1.75,1.75,0,0,1-.23.27c0,.05-.17-.08-.16-.18A.17.17,0,0,1,47,35.86ZM32.65,33.63a.22.22,0,0,1-.13-.15c0-.08.15-.21.24-.17s.12.11.17.15A.21.21,0,0,1,32.65,33.63Zm4.83,1.64c0-.07.13-.12.22-.2.08.1.17.16.18.23a.16.16,0,0,1-.18.17C37.57,35.47,37.44,35.37,37.48,35.27Zm-6.09,1.47s.11.06.13.11-.06.26-.2.28a.18.18,0,0,1-.21-.14C31.08,36.86,31.2,36.75,31.39,36.74Zm6.34.1A.18.18,0,0,1,38,37a.22.22,0,0,1-.18.24c-.11,0-.2-.07-.21-.25A.45.45,0,0,1,37.73,36.84ZM48,36a.23.23,0,0,1,.21.25.17.17,0,0,1-.19.15c-.11,0-.17-.11-.14-.21A.52.52,0,0,1,48,36Zm-12.08-.61a3.12,3.12,0,0,1,.26-.26,1.12,1.12,0,0,1,.08.25c0,.14-.1.23-.2.21S35.9,35.45,35.94,35.37Zm22.4-.62c-.07.09-.11.18-.18.21s-.21-.1-.2-.2a.16.16,0,0,1,.2-.14C58.21,34.63,58.26,34.69,58.34,34.75Zm-23.16-1a.46.46,0,0,1-.19-.13c0-.16.07-.28.19-.27a.17.17,0,0,1,.19.17C35.38,33.65,35.28,33.79,35.18,33.77Zm20.38,1.41c-.11,0-.2-.08-.17-.19s.11-.15.21-.28a1.41,1.41,0,0,1,.16.26A.19.19,0,0,1,55.56,35.18ZM54.13,48.81a1,1,0,0,0-.34,0c-.26,0-.53.06-.79.1A1.64,1.64,0,0,0,51.57,50a4.62,4.62,0,0,0-.19.6,1.43,1.43,0,0,0,.47,1.5,4.94,4.94,0,0,0,.45.35,2.25,2.25,0,0,0,1.82.28.87.87,0,0,0,.38-.23,2.65,2.65,0,0,0,.82-1.74c-.07-.31-.11-.64-.2-.94A1.5,1.5,0,0,0,54.13,48.81Zm.63,2.9-.38.51a.75.75,0,0,1-.44.25,2.23,2.23,0,0,1-2.16-.9.58.58,0,0,1-.09-.27,2.2,2.2,0,0,1,.54-1.75,1.21,1.21,0,0,1,.91-.42c.22,0,.45-.06.75-.1l.09,0a1.43,1.43,0,0,1,.93,1A1.69,1.69,0,0,1,54.76,51.71Zm-1.21-2.07a1.22,1.22,0,0,0-1.19,1.81,1.17,1.17,0,0,0,1.35.63L54,52a.88.88,0,0,0,.53-.49,1.39,1.39,0,0,0-.06-1.21C54.27,49.85,54,49.55,53.55,49.64Zm.73,1.74a.82.82,0,0,1-.86.44,1,1,0,0,1-.9-1,1,1,0,0,1,1.25-.88.46.46,0,0,1,.22.17,4,4,0,0,1,.32.66A.73.73,0,0,1,54.28,51.38Zm-.88-1.12a.64.64,0,0,0-.62.5.67.67,0,0,0,.59.6.64.64,0,0,0,.62-.62A.52.52,0,0,0,53.4,50.26Zm0,.82a.3.3,0,0,1-.27-.3c0-.14.13-.22.34-.21a.2.2,0,0,1,.21.21A.31.31,0,0,1,53.4,51.08ZM35.74,49.76a1.66,1.66,0,0,0-1.44-1.14l-.79-.11a1,1,0,0,0-.34.05,1.47,1.47,0,0,0-1,1c-.09.31-.13.63-.19,1a2.57,2.57,0,0,0,.81,1.73.71.71,0,0,0,.38.23A2.24,2.24,0,0,0,35,52.22c.16-.11.3-.24.45-.36a1.39,1.39,0,0,0,.47-1.49A6.13,6.13,0,0,0,35.74,49.76Zm-.13,1.29a.66.66,0,0,1-.09.27,2.25,2.25,0,0,1-2.16.9.72.72,0,0,1-.44-.26l-.38-.51a1.69,1.69,0,0,1-.15-1.64,1.45,1.45,0,0,1,.93-1l.09,0a6.52,6.52,0,0,0,.75.1,1.28,1.28,0,0,1,.91.42A2.19,2.19,0,0,1,35.61,51.05Zm-1.86-1.66c-.44-.09-.72.2-.9.66a1.39,1.39,0,0,0-.06,1.21.89.89,0,0,0,.53.48l.28.08a1.15,1.15,0,0,0,1.34-.62,1.21,1.21,0,0,0-.14-1.39A1.16,1.16,0,0,0,33.75,49.39Zm.13,2.17a.82.82,0,0,1-.86-.43.73.73,0,0,1,0-.61,3.39,3.39,0,0,1,.33-.66.35.35,0,0,1,.21-.17,1,1,0,0,1,1.25.87A1,1,0,0,1,33.88,51.56Zm0-1.56a.53.53,0,0,0-.59.49.64.64,0,0,0,.62.62.67.67,0,0,0,.59-.6A.65.65,0,0,0,33.9,50Zm0,.83a.31.31,0,0,1-.28-.3.21.21,0,0,1,.21-.22c.21,0,.34.08.34.21A.31.31,0,0,1,33.9,50.83Z"/></g></g></svg>