<svg xmlns="http://www.w3.org/2000/svg" viewBox="0 0 61.04 90.18"><defs><style>.cls-1,.cls-2{fill-rule:evenodd;}.cls-2{fill:#c6262f;}.cls-3{fill:#fff;}</style></defs><title>Asset 468</title><g id="Layer_2" data-name="Layer 2"><g id="Layer_1-2" data-name="Layer 1"><path d="M28,28.47l.57-.36c.12.3.28.58.42.87a18.69,18.69,0,0,0,4.17-4.31,20,20,0,0,0-.36-2.3l-1.07-.09-.41-1.35c.39,0,.77.05,1.15.06-.09-.34-.19-.68-.3-1-.38,0-.77,0-1.16-.07l-.3-1-.17.15-.61-1c.36-.3.74-.58,1.13-.85-2.52-5-7.08-8.78-13.14-8.78a11,11,0,0,0-11,11.06c0,4.42,2.9,8.36,6.63,10.52a14,14,0,0,0,6.7,1.82l.18-.17C20.41,31.88,28,28.47,28,28.47ZM16.13,29.55c-.15.14-.28.31-.43.45a9.19,9.19,0,0,1-5.35-3.24c.09-.1.18-.23.27-.34a11.45,11.45,0,0,1-1.41-1.63c-.1.08-.19.2-.29.27a10.06,10.06,0,0,1,1.63-13,3.88,3.88,0,0,1,.52.55,10.09,10.09,0,0,1,2-1.23c-.1-.21-.19-.43-.3-.62a8.39,8.39,0,0,1,8-.45c.09.24.16.5.24.76C26.54,12.78,30,18.27,30.6,24,26.37,29.65,20.61,30.72,16.13,29.55ZM26.92,57.44c2.37-2.09.17-5.23-2.22-4.09,1.35-1.87-1.24-3.25-2.05-1.81.67-4.42-6.08-4.73-6.33-.88-1.46-2.54-4.74-1.14-3.86,1.09-2.93-2.45-6.63,1.71-4,4.44a1.83,1.83,0,0,0-1.59,3A9,9,0,0,0,13,62.46a4.2,4.2,0,0,0,3.35,3.61,4.26,4.26,0,0,0,4.44-1.37c2.07.47,4.66.43,6.42-.9a1.9,1.9,0,0,0,.12-3.07C29.35,60,29.09,57.13,26.92,57.44Zm-5.55-2.87A8,8,0,0,1,19,59.31l-.22-.1a11.88,11.88,0,0,0,.68-4.78C19.56,52.61,21.42,52.61,21.37,54.57Zm-4.26-1.78c.58-2.16,2.76-1.45,2.17.54s-1.17,3.49-.77,5.76L18.22,59A9.19,9.19,0,0,1,17.11,52.79Zm-2.66,1.64a7.86,7.86,0,0,1,2.19,4.39l-.39,0a11.43,11.43,0,0,0-3.15-3.3C11.72,54.37,13,53.17,14.45,54.43ZM13.21,61A6.27,6.27,0,0,1,9,59.12C7.89,58,9.34,56.86,9.87,58a4.06,4.06,0,0,0,3.67,2.38A3.33,3.33,0,0,0,13.21,61Zm1.31-1.51c-1.69-.57-3.76-1.82-4.4-3.46-.57-1.48,1.07-2.36,2.18-.86s.85,2.73,3.12,3.88A3.76,3.76,0,0,0,14.52,59.49Zm4.69,3.68a1.72,1.72,0,0,1-2.15,1.09,1.59,1.59,0,1,1,2.15-1.09Zm.48-3.48a8.16,8.16,0,0,1,3.11-4.31c1.81-1.09,2.9.83,1.22,1.87-1.39.86-2.79,1.4-3.94,2.75Zm1,1a2.16,2.16,0,0,0-.27-.33c1.8-.36,2.09-1.31,3.48-2.4,1-.81,2.14.19,1.36,1.21A4.91,4.91,0,0,1,20.71,60.7Zm5.49,2.08a4.57,4.57,0,0,1-4.8.23,3.46,3.46,0,0,0-.07-1,3.4,3.4,0,0,0,4.18-.58C26.35,60.71,27.31,62,26.2,62.78ZM49.22,39c0-.21,0-.41,0-.61a12.6,12.6,0,0,1,7-1.09A17,17,0,0,0,49.22,39Zm-.68.3c.23-.12.45-.2.68-.3l0,.75-.45.13c-.46.15-.35.64.13.5l.3-.07a44.75,44.75,0,0,1-.6,6.44c-1.67-.25-4.14-1.52-6.8-3.3.31-.19.67-.35,1-.52.71.44,1.41.85,2.11,1.2a3.18,3.18,0,0,1,3.42-1.94c.06-.91.09-1.87.11-2.86A.35.35,0,0,0,48.54,39.27Zm-7.33,3.78.56.37A22.77,22.77,0,0,0,36.27,48,17.55,17.55,0,0,1,41.21,43.05ZM11.07,12.57a9,9,0,0,0-3.56,7.1,8.9,8.9,0,0,0,1.7,5.12,9.39,9.39,0,0,0,2.63-4.56C12.68,17.19,12.31,14.16,11.07,12.57ZM9.63,14.13a4.09,4.09,0,0,1,1.7.45A3.54,3.54,0,0,1,8.49,16,7,7,0,0,1,9.63,14.13Zm-1.34,8a9.81,9.81,0,0,1-.41-1.92,3.6,3.6,0,0,1,2.79,1.95A4.2,4.2,0,0,1,8.29,22.12ZM7.86,20A8.83,8.83,0,0,1,7.92,18a6.38,6.38,0,0,1,3.59,1.62A5.77,5.77,0,0,1,7.86,20ZM8,17.7a7.52,7.52,0,0,1,.44-1.54,6.42,6.42,0,0,1,3.43.6A4.83,4.83,0,0,1,8,17.7Zm12.35,8.58c.36-.7.7-1.44,1-2.2a12.74,12.74,0,0,0,7.44.4v0A11.93,11.93,0,0,1,20.31,26.28Zm8.57-1.22c-2.45,3.43-6.77,4.78-10.69,4.53a19.46,19.46,0,0,0,1.41-2.05A11.58,11.58,0,0,0,28.88,25.06Zm-7.09-2.3c.05-.14.09-.28.14-.42.1-.34.2-.68.29-1a16.13,16.13,0,0,1,6.41,2.42A13.7,13.7,0,0,1,21.79,22.76ZM40.58,41.43c-.34.14-.68.29-1,.45a61.9,61.9,0,0,1-5.89-5c-.05-.22-.07-.42-.13-.64l-5-7L29,29c.11.23.2.47.32.69C31.38,33.34,35.89,38.05,40.58,41.43Zm18.9-25.57c1.62-3.7,1.62-8.29-.84-11.62A10.34,10.34,0,0,0,44.18,2C40,5.08,38.51,9.85,39,14.62A15.18,15.18,0,0,0,31,17.25,21.67,21.67,0,0,1,32.15,20a19.64,19.64,0,0,0,11.3-2.63,5.38,5.38,0,0,1,.78.65c-2.85,2.12-7.29,3.19-11.78,3q.19.69.33,1.38l1.1.08a1.08,1.08,0,0,0,0-.18c0,.05,0,.12.07.18.35,0,.71,0,1.06,0,0-.05,0-.09,0-.14l.06.14c.37,0,.73,0,1.1-.06,0,0,0-.05,0-.08a.56.56,0,0,0,0,.08c.32,0,.65,0,1-.08,0,0,0,0,0-.08l.06.08c.42,0,.83-.13,1.24-.2a.38.38,0,0,1,0-.1l.07.09c.4-.07.79-.15,1.18-.25,0,0,0,0,0-.06l.06.05c.37-.09.73-.18,1.09-.3,0,0,0,0,0-.06l.07.06c.35-.12.68-.25,1-.39l0-.07a.47.47,0,0,1,.09.06c.29-.12.59-.23.87-.37l0,0a.05.05,0,0,0,0,0,8.86,8.86,0,0,0,1-.54l0,0,.06,0a9.08,9.08,0,0,0,.88-.6h0c.18-.13.37-.25.54-.39a10,10,0,0,1,.59,1.23,2.08,2.08,0,0,1,.4.64.51.51,0,0,1,0,.21,21.72,21.72,0,0,1,.66,2.22,30.19,30.19,0,0,1,.7,4.05,4.43,4.43,0,0,1-2.47.22c-2-.14-2.07,1.74-.31,1.75a4.58,4.58,0,0,0,2.88-1,66.7,66.7,0,0,1,.75,10.29c.27-.16.54-.3.81-.43a107.24,107.24,0,0,0-.76-13.79c0-.32-.09-.64-.15-.95A13.12,13.12,0,0,0,59.48,15.86ZM48.31,10.27a5.61,5.61,0,0,1,4,1.13c-1.5-.5-2.53,0-3.75.21S47,10.53,48.31,10.27Zm-1.77-.89c-1.21.06-1.33-1.28,0-1.36a5.57,5.57,0,0,1,3.78,1.7C48.86,9,47.78,9.32,46.54,9.38Zm6.82,2.47a5.7,5.7,0,0,1-2.61-3.33c-.23-1.3,1.12-1.5,1.36-.3S52.31,10.62,53.36,11.85Zm1.11-1.93c.48,1.23.65,2.41,2,3.47a5.87,5.87,0,0,1-3.28-2.91C52.66,9.2,54,8.74,54.47,9.92Zm-4,2.27a5.49,5.49,0,0,1,4.1.53c-1.56-.27-2.51.34-3.68.76S49.21,12.63,50.42,12.19Zm2.24,1.24a5.43,5.43,0,0,1,4,.42c-1.53-.23-2.45.4-3.58.83S51.49,13.89,52.66,13.43ZM55,14.87a4.75,4.75,0,0,1,3.51-.38,5.4,5.4,0,0,0-2.89,1.37C54.75,16.42,54.08,15.48,55,14.87Zm.85-3.14c-.44-1.14.77-1.56,1.18-.5s.58,2.16,1.75,3.1A5.21,5.21,0,0,1,55.84,11.73ZM59,7a3.88,3.88,0,0,1-1.78,1.34,3.36,3.36,0,0,1,1-3A8.77,8.77,0,0,1,59,7Zm-.85-1.84a5.43,5.43,0,0,1-3,1.7A5.91,5.91,0,0,1,57,3.61,8.07,8.07,0,0,1,58.18,5.13ZM56.83,3.44a4.5,4.5,0,0,1-3.45,1.44,6,6,0,0,1,2.25-2.35A7.58,7.58,0,0,1,56.83,3.44ZM53.58,1.67a6.91,6.91,0,0,1,1.87.75A3.35,3.35,0,0,1,52.54,3,4,4,0,0,1,53.58,1.67Zm-2-.41C51.55,3.15,53,5.67,55.3,7.51a8.87,8.87,0,0,0,4.52,2,9.78,9.78,0,0,1-.15,2,13.6,13.6,0,0,1-5.21-2.64,13.6,13.6,0,0,1-5.07-7.42A9.37,9.37,0,0,1,51.62,1.26ZM50.21,5.87c0,1.27-.31,2.39.45,3.81a5.72,5.72,0,0,1-1.84-3.81C48.86,4.56,50.24,4.64,50.21,5.87Zm-2-2.43a5.27,5.27,0,0,0,.23,3.13,4.64,4.64,0,0,1-1.36-3.19C47.14,2.31,48.26,2.43,48.19,3.44ZM45.38,5.08a5.22,5.22,0,0,1,3.06,2.41c-1.13-1-2.19-.93-3.34-1.16S44.18,4.85,45.38,5.08Zm2.39,16.37c0-.13-.08-.25-.13-.37a12.12,12.12,0,0,0,8.07-3,20,20,0,0,1-2.21-.77,11.37,11.37,0,0,1-6.07,3.21c-.1-.25-.21-.48-.32-.72a11.88,11.88,0,0,0,5.16-3,21.75,21.75,0,0,1-2-1.1,12.4,12.4,0,0,1-3.54,3.49c-.16-.27-.33-.54-.51-.79A14.21,14.21,0,0,0,49.19,15l-.33-.24-.79-.61a17.7,17.7,0,0,0-2.57,3.36c-.24-.26-.5-.51-.77-.75a15.08,15.08,0,0,1,2.19-3.59c-.31-.28-.61-.56-.89-.85a15.81,15.81,0,0,0-1.73,4.1,7.94,7.94,0,0,0-.91-.6A14.77,14.77,0,0,1,45,11.1c-.38-.45-.74-.9-1.07-1.36a15.62,15.62,0,0,0-1.45,5.56,8.74,8.74,0,0,0-1.28-.43h0a12.62,12.62,0,0,1,2.13-9.22,17.76,17.76,0,0,0,6.3,8A17.5,17.5,0,0,0,57.22,17,12.16,12.16,0,0,1,47.77,21.45Zm1.4,18.83c0-.19,0-.37,0-.56a12.87,12.87,0,0,1,7.92.24A17.64,17.64,0,0,0,49.17,40.28Zm-9.58,1.6.52.38a23.12,23.12,0,0,0-4.89,2.85A18.43,18.43,0,0,1,39.59,41.88ZM28.46,30.83c-.23-.36-.39-.74-.58-1.11a14.12,14.12,0,0,1-7.65,2.15c-7.54,7-18.83,20.2-14.18,31.62C-1.18,59.67.76,48,5.94,41.52c1.5-1.89,3.24-3.68,3.72-6.13A6.65,6.65,0,0,0,9,30.55c-1.78-2.63-6-3-7.85-.1a7.71,7.71,0,0,0,1.3,9.12c-1.64-2.74-2.7-6.42-.46-9a4.08,4.08,0,0,1,6.4.28A5,5,0,0,1,9,35.22a15.05,15.05,0,0,1-3.31,5.44C-1.52,49-3.21,63.44,8.56,67.28c2.46,2.44,6.7,3.46,10,3.46h7.85c6.45,0,12.16-3.06,10.83-10.49a3.54,3.54,0,0,1,1.65-2.52c.35-.23-.06-.61-.42-.41A3.41,3.41,0,0,0,37,59.52a3.87,3.87,0,0,1,.74-2.69c.24-.33-.27-.54-.54-.23a3.65,3.65,0,0,0-.68,3.15,3.29,3.29,0,0,1-.27-2.46c.1-.38-.45-.36-.58,0a3.43,3.43,0,0,0,.81,3.32c-.31,4.62-5,6-7.25,4.51,5.31-6.41,7.21-16.06,4.51-28.25A36.32,36.32,0,0,1,28.46,30.83Zm-.7,8.22a2.63,2.63,0,0,0,.52-1.93,2.09,2.09,0,0,1-.22,2.22c.55-.05.82-.69.79-1.45a2.14,2.14,0,0,1-.26,1.83c.75,0,1.13-1.82.6-3.4a4.09,4.09,0,0,1,.42,3.49c-.61,1.56-2.33,1.37-2.6-.38a3.82,3.82,0,0,1,1-3.19C27.37,37.69,27.28,38.56,27.76,39.05Zm1-7c.31,1.22-.63,2.15-.4,2.47a1,1,0,0,0,.55-.8A1,1,0,0,1,28.81,35c.59,0,.94-.83.81-1.78a2,2,0,0,1-.27,2.12.93.93,0,0,1-1.61-.83C27.91,33.76,28.84,33.1,28.8,32.07Zm-1.18-1.88c.19.86-.4,1.51-.26,1.74a.73.73,0,0,0,.35-.56.75.75,0,0,1-.09.89c.37,0,.59-.59.52-1.25A1.54,1.54,0,0,1,28,32.49a.6.6,0,0,1-1-.59C27.06,31.38,27.64,30.92,27.62,30.19ZM25.91,45.75c.81.1,1.37-.67,1.56-1.68a2.75,2.75,0,0,1-.91,2.35c1.07.24,2.14-2.07,1.84-4.32A5.17,5.17,0,0,1,28,46.85c-1.32,1.89-3.71,1.09-3.6-1.31a5,5,0,0,1,2.36-3.92c-1.35,1.73-1.73,2.85-1.19,3.65a3.36,3.36,0,0,0,1.31-2.39A2.65,2.65,0,0,1,25.91,45.75Zm-1-12.09c.25-.71,1.16-1.26,1.26-2.29.11,1.24-.84,2.05-.69,2.4a1,1,0,0,0,.6-.72,1,1,0,0,1-.29,1.23c.53,0,.95-.71,1-1.67a2.14,2.14,0,0,1-.52,2.06A.84.84,0,0,1,24.9,33.66Zm-.93,5a1.52,1.52,0,0,0,.69-.77.81.81,0,0,1,.24.61,3,3,0,0,0,.67-2.62c.5,1.24.66,3-.54,3.93a1.39,1.39,0,0,1-2.32-.87,4,4,0,0,1,1.66-3.57C23.39,36.38,23.07,37.59,24,38.64Zm-.79-6.85A1.81,1.81,0,0,0,22.13,34a1.22,1.22,0,0,0,.65-.39.69.69,0,0,1,0,.49,2.4,2.4,0,0,0,1.07-1.72c0,1-.29,2.31-1.3,2.67A1,1,0,0,1,21.23,34,3.07,3.07,0,0,1,23.18,31.79Zm-1.5,9.93a1.83,1.83,0,0,1-.39,2c1.1,0,1.65-2,.88-3.66a3.4,3.4,0,0,1,.61,3.75A2,2,0,0,1,19,43.38,3.47,3.47,0,0,1,20.46,40c-.95,1.56-1.08,2.49-.39,3a2.32,2.32,0,0,0,.77-2.07,1.76,1.76,0,0,1-.33,2.38C21.32,43.23,21.71,42.54,21.68,41.72ZM17.5,37.5c.65-1.14,2.37-1.78,2.87-3.5-.2,2.15-2.08,3.23-1.93,3.87a1.76,1.76,0,0,0,1.25-1,1.84,1.84,0,0,1-.88,2c.88.22,1.83-.92,2.15-2.55a3.75,3.75,0,0,1-1.53,3.35A1.46,1.46,0,0,1,17.5,37.5Zm-5.36,6c.9-1.56,3.27-2.44,4-4.81-.28,3-2.87,4.45-2.65,5.33a2.45,2.45,0,0,0,1.71-1.44A2.5,2.5,0,0,1,14,45.33c1.21.31,2.52-1.26,3-3.5.09,1.6-.58,3.74-2.11,4.61C13,47.47,10.88,45.68,12.14,43.49ZM28.57,61.13a2.65,2.65,0,0,1-.09,3.19c-1.6,2.2-5.15,2.36-7.55,1.81-2.29,3-8.52,1.29-8.78-2.74-2.56-.31-5.84-2-6.43-4.78-.29-1.32.17-2.86,1.9-2.8-3-3.08.64-7.86,4.25-5.16-1-2.52,2.49-4.5,4.13-1.63.23-4.69,7.89-4.16,7.18,1.12a1.76,1.76,0,0,1,2.62,2.32c2.68-1.28,5,2,2.58,4.62C30.47,56.72,31.17,60.29,28.57,61.13ZM32.88,52A2,2,0,0,1,29,51.56a6,6,0,0,1,1.52-5.43c-1,2.19-1.11,3.49-.4,4.23A2.75,2.75,0,0,0,31,48a2.84,2.84,0,0,1,.4,3.4c1.35-.39,1.74-2.67.9-5.11C33.32,47.77,33.88,50.24,32.88,52Zm.35-8.1a1.61,1.61,0,0,1-2.73-.22,3.59,3.59,0,0,1,.56-3.86c-.69,1.25-.63,2.5.67,3.26a1.38,1.38,0,0,0,.47-.92,1,1,0,0,1,.46.52A2.71,2.71,0,0,0,32.48,40C33.42,41,34.19,42.7,33.23,43.87Zm-.67-5.72a.85.85,0,0,1-1.66-.22c-.14-.75.38-1.68,0-2.63.72,1,.29,2.21.61,2.44a1,1,0,0,0,.15-.93A1.05,1.05,0,0,1,32,38c.47-.24.47-1.1,0-1.94A2.2,2.2,0,0,1,32.56,38.15ZM28,28.47l.59.81c-.23.16-.46.3-.69.44-.15-.3-.34-.59-.47-.89l.57-.36Zm14.19,14c-.33.17-.66.35-1,.54l-1.1-.79c.35-.14.69-.31,1-.44C41.49,42.06,41.83,42.29,42.17,42.51Zm.46-34.74c.22.39.45.78.7,1.16a18.73,18.73,0,0,0-1.44,6A16.66,16.66,0,0,1,42.63,7.77ZM37.16,22.31h0a2.85,2.85,0,0,1,.7,2c-.09.68-.8.57-.72-.07A3.55,3.55,0,0,0,37.16,22.31ZM33.4,24.16a3.55,3.55,0,0,0,.48-1.71H34a2.77,2.77,0,0,1,.11,2C33.8,25,33.17,24.74,33.4,24.16ZM35,22.45h.05a2.76,2.76,0,0,1,.3,2c-.21.64-.87.4-.68-.19A3.61,3.61,0,0,0,35,22.45Zm1.15-.06h0a2.9,2.9,0,0,1,.48,2c-.16.65-.83.47-.7-.14A3.5,3.5,0,0,0,36.16,22.39Zm2.28-.28h0a2.85,2.85,0,0,1,.75,1.9c-.06.66-.76.58-.71,0A3.56,3.56,0,0,0,38.44,22.11Zm-9-1c-.11.24-.23.5-.34.78A15.8,15.8,0,0,0,23,16.76c.05-.62.06-1.23.06-1.83A15.68,15.68,0,0,1,29.42,21.14Zm10.24.71h0a2.88,2.88,0,0,1,.93,1.86c0,.67-.71.64-.71,0A3.45,3.45,0,0,0,39.66,21.85Zm-10.87,1a15.72,15.72,0,0,0-6.2-3.14c.09-.44.16-.87.23-1.3a15.52,15.52,0,0,1,6,4.35ZM21,11a12.59,12.59,0,0,0-3.79-.58,10,10,0,0,0-4.1.89,14.44,14.44,0,0,1,.34,9.55,14.25,14.25,0,0,1-2.81,5.53,12.07,12.07,0,0,0,5.51,3.13,18.69,18.69,0,0,0,4.51-7.68A18.89,18.89,0,0,0,21,11Zm-2.16.83c.89-.94,1.85,0,1,.9s-1.78,1.57-2.13,3.12A5.6,5.6,0,0,1,18.82,11.86Zm.9,3.24c1.15-.74,1.9.48.83,1.19s-2.23,1.16-3,2.66A6,6,0,0,1,19.72,15.1Zm-3.41-3.63a4.92,4.92,0,0,1,.84,3.59,5.73,5.73,0,0,0-1.78-2.83C14.67,11.41,15.56,10.6,16.31,11.47Zm.06,3.26a6,6,0,0,1,.83,4.43c-.25-1.71-1.2-2.48-2-3.56S15.5,13.62,16.37,14.73Zm-.12,8c.13-1.71-.64-2.67-1.22-3.9s.74-1.86,1.35-.6A6,6,0,0,1,16.25,22.72Zm-.68-1.3a6.28,6.28,0,0,1-1,4.57c.44-1.73-.16-2.85-.52-4.21S15.18,20,15.57,21.42Zm-2.39,6.86c.4-1.55-.14-2.55-.47-3.76s1-1.58,1.34-.32A5.62,5.62,0,0,1,13.18,28.28Zm3.68-.69c-1.13.07-2.14-.12-3.35.66a5,5,0,0,1,3.25-1.89C17.93,26.31,18,27.53,16.86,27.59ZM18.26,25c-1.25.35-2.43.39-3.6,1.56a5.78,5.78,0,0,1,3.19-2.92C19.15,23.3,19.47,24.67,18.26,25Zm1.18-2.46c-1.27.38-2.47.45-3.64,1.67A6,6,0,0,1,19,21.16C20.31,20.77,20.67,22.17,19.44,22.54Zm.8-3.07c-1.2.57-2.38.82-3.35,2.2a5.91,5.91,0,0,1,2.7-3.49C20.84,17.6,21.4,18.92,20.24,19.47ZM23,13.88c0-.49-.07-1-.14-1.44A17.7,17.7,0,0,1,28,18.11,19.81,19.81,0,0,0,23,13.88Zm12.13,16.4c2,.28,3.23-.51,4.73-1.06s2.15,1,.6,1.57A7.56,7.56,0,0,1,35.15,30.28Zm6-6.9a3.49,3.49,0,0,0-.39-1.84h0a2.85,2.85,0,0,1,1.06,1.77C41.92,24,41.22,24,41.17,23.38Zm4.37-2a3.36,3.36,0,0,0-.87-1.73h0a3.44,3.44,0,0,1,1.13.84c.13.29.3.55.41.85S45.72,21.85,45.54,21.34ZM44,42.26c-.44.19-.83.42-1.25.64-.2-.12-.4-.26-.6-.39a16.52,16.52,0,0,1,1.63-.77C44.32,41.53,44.55,42,44,42.26Zm-.44-1.15a20,20,0,0,0-2.42.71c-.19-.13-.39-.25-.58-.39a15.3,15.3,0,0,1,2.9-.85C44,40.48,44.13,41,43.58,41.11Zm4.75-2.28.09,0c0,.17,0,.34,0,.51C48.09,39.37,48,39,48.33,38.83ZM42.42,23a3.59,3.59,0,0,0-.59-1.82h0a2.9,2.9,0,0,1,1.26,1.68C43.25,23.49,42.54,23.6,42.42,23Zm2.2-1a3.47,3.47,0,0,0-.85-1.7h0a2.87,2.87,0,0,1,1.49,1.46C45.49,22.3,44.82,22.51,44.62,21.92Zm-1,.56a3.39,3.39,0,0,0-.86-1.71h0a2.84,2.84,0,0,1,1.5,1.47C44.48,22.87,43.81,23.07,43.6,22.48Z"/><path class="cls-1" d="M52.75,58.45a21.47,21.47,0,0,0-7,.87c-.07.51-.27.82-.62.92-.88-2.5-1.8-5.58-3.15-7.44.19-.58,1.51-.79,2.16-.09a4.39,4.39,0,0,0,3.31-3.27,1.93,1.93,0,0,1,2.45,1.26,9.76,9.76,0,0,1-5.54,2.63,21.05,21.05,0,0,1,1.25,5.11,20.72,20.72,0,0,1,7.13-.58A18.78,18.78,0,0,1,53.14,55a.7.7,0,0,1-.41.2,8.12,8.12,0,0,1-2.44.23c-.73-.08-.84-.81,0-.92a8.19,8.19,0,0,1,2.48.16c.27.08.37.17.38.25a24.56,24.56,0,0,1,.78-2.63A9.84,9.84,0,0,1,49,52.19,14.58,14.58,0,0,0,53.86,51c.66-.32,3,.88,2.65,2.05a21.56,21.56,0,0,0-3.25,5.73A.46.46,0,0,1,52.75,58.45Zm-7.36-3.08c-.54.32-.35.53.13.57a6.37,6.37,0,0,0,2.23-.15c.65-.2.61-1-.16-1A6.66,6.66,0,0,0,45.39,55.37ZM43.25,68.28c.58-1.23.81-5.22.71-6.63a1.49,1.49,0,0,0-1.61-1.44c-.75-.05-1,.44-.4.93s.41,1.78.41,2.49c0,3.14-.39,5.27-1.47,6.11-.49.37.32,1.06.62,1.08,1.08.08,3.56-2.69,5.59-3.91A11.39,11.39,0,0,0,43.25,68.28Zm5.55-7.19c0-.86-.57-1.16-1.4-1.21s-.85.28-.28.77c.33.28.34.93.36,1.48.05,1.64.45,5.59-.9,6.68-.47.39.36,1.46.66,1.48,1.08.08,2.5-2.32,4.53-3.54a6.57,6.57,0,0,0-3.17,1C49,66.51,48.88,62.91,48.8,61.09ZM61,70.85c-.18-1.14-1.38-3.21-1.15-5.18-.93.77-1,3.46-.72,4.15-2.36-.17-5.35-4.56-4.32-8.65.15-.6-.83-1.74-1.47-2s-.46.44-.45.79c.25,8.11,3.12,11.49,7.23,11.72C60.76,71.76,61.15,71.68,61,70.85ZM44.43,64.66a4.78,4.78,0,0,0,1.45,1.07c.8.35,1.09-.47.8-1.1s-1.33-.74-2.25-.42C44.29,64.27,44.29,64.46,44.43,64.66Zm4.89-1.23c-.18,0-.17.25,0,.44A5.73,5.73,0,0,0,51.09,65c1,.34,1.34-.47,1-1.11S50.44,63.1,49.32,63.43ZM46,62.86c.8.34,1.09-.47.8-1.11s-1.33-.74-2.25-.41c-.14,0-.14.25,0,.44A4.62,4.62,0,0,0,46,62.86Zm3.46-2.31c-.17.05-.17.25,0,.45a5.89,5.89,0,0,0,1.78,1.07c1,.35,1.33-.47,1-1.1S50.57,60.22,49.44,60.55Z"/><path class="cls-2" d="M10,77.44H47.28a6.39,6.39,0,0,1,6.38,6.37h0a6.39,6.39,0,0,1-6.38,6.37H10a6.39,6.39,0,0,1-6.37-6.37h0A6.39,6.39,0,0,1,10,77.44Z"/><path class="cls-3" d="M24.83,84.79v.86a.68.68,0,0,1-.14.46.51.51,0,0,1-.74,0,.68.68,0,0,1-.14-.46V82.8c0-.46.17-.69.5-.69a.42.42,0,0,1,.37.16.92.92,0,0,1,.12.47,1.58,1.58,0,0,1,.38-.47.76.76,0,0,1,.51-.16,1.28,1.28,0,0,1,.63.16.47.47,0,0,1,.3.42.39.39,0,0,1-.13.31.36.36,0,0,1-.28.12l-.27-.06a1.14,1.14,0,0,0-.38-.07.62.62,0,0,0-.37.11.81.81,0,0,0-.22.35,2.64,2.64,0,0,0-.11.56q0,.31,0,.78Zm4.75.9a3.1,3.1,0,0,1-.72.43,1.94,1.94,0,0,1-.78.15,1.41,1.41,0,0,1-.69-.16,1.1,1.1,0,0,1-.46-.42,1.08,1.08,0,0,1-.16-.58A1.05,1.05,0,0,1,27,84.4a1.37,1.37,0,0,1,.74-.4l.48-.1.66-.15a5.39,5.39,0,0,0,.6-.16,1.12,1.12,0,0,0-.16-.59.73.73,0,0,0-.6-.19,1.29,1.29,0,0,0-.59.11,1,1,0,0,0-.34.33l-.19.28a.33.33,0,0,1-.25.07.4.4,0,0,1-.3-.11.34.34,0,0,1-.13-.28.93.93,0,0,1,.19-.53,1.4,1.4,0,0,1,.6-.42,2.71,2.71,0,0,1,1-.16,2.78,2.78,0,0,1,1.06.16,1,1,0,0,1,.55.5,2.34,2.34,0,0,1,.16.92c0,.24,0,.44,0,.61v.56a2.18,2.18,0,0,0,.09.6,1.65,1.65,0,0,1,.1.4.38.38,0,0,1-.15.29.45.45,0,0,1-.65,0,2.08,2.08,0,0,1-.32-.43Zm-.07-1.48a4.49,4.49,0,0,1-.65.17l-.6.14a.74.74,0,0,0-.31.17.43.43,0,0,0-.15.35.56.56,0,0,0,.17.4.69.69,0,0,0,.46.16,1.28,1.28,0,0,0,.56-.13.87.87,0,0,0,.38-.35,1.57,1.57,0,0,0,.14-.76v-.15Zm1.91-2h.11v-.62c0-.16,0-.29,0-.39a.62.62,0,0,1,.08-.24.46.46,0,0,1,.17-.17.55.55,0,0,1,.25-.07.49.49,0,0,1,.35.15.43.43,0,0,1,.14.24,2,2,0,0,1,0,.4v.7h.37a.45.45,0,0,1,.33.1.34.34,0,0,1,.12.26.29.29,0,0,1-.17.29.94.94,0,0,1-.46.09h-.19v1.88c0,.16,0,.28,0,.37a.4.4,0,0,0,.09.21.33.33,0,0,0,.24.08l.24,0a1,1,0,0,1,.24,0,.34.34,0,0,1,.23.1.37.37,0,0,1,.1.25.41.41,0,0,1-.27.38,1.8,1.8,0,0,1-.78.13,1.34,1.34,0,0,1-.73-.16.77.77,0,0,1-.32-.45,3,3,0,0,1-.08-.76v-2H31.4a.5.5,0,0,1-.34-.11.34.34,0,0,1-.12-.27.34.34,0,0,1,.12-.26.55.55,0,0,1,.36-.1Z"/></g></g></svg>