<svg xmlns="http://www.w3.org/2000/svg" viewBox="0 0 103.88 116.66"><title>Asset 553</title><g id="Layer_2" data-name="Layer 2"><g id="Layer_1-2" data-name="Layer 1"><path d="M26.54,108.59l-3.4,7.87H24l.85-2.07h4.07l.87,2.07h.88l-3.37-7.87Zm-1.37,5.07,1.74-4.18,1.73,4.18Zm12.16,2a3.54,3.54,0,0,0,1.38-1.39,3.93,3.93,0,0,0,.46-1.9,4.2,4.2,0,0,0-.3-1.61,3.76,3.76,0,0,0-2.09-2.12,4.31,4.31,0,0,0-3.16,0,3.87,3.87,0,0,0-1.26.84,4,4,0,0,0-.83,1.28,4.5,4.5,0,0,0,0,3.23,4,4,0,0,0,.83,1.28,3.87,3.87,0,0,0,1.26.84,4.12,4.12,0,0,0,1.58.3h4.5v-.73H37.33Zm-2.13,0a3,3,0,0,1-1.31-.28,2.9,2.9,0,0,1-1-.73,3.22,3.22,0,0,1-.61-1,3.75,3.75,0,0,1,0-2.53,3.22,3.22,0,0,1,.61-1,2.9,2.9,0,0,1,1-.73,3,3,0,0,1,1.31-.28,3,3,0,0,1,2.3,1,3.27,3.27,0,0,1,.63,1,3.75,3.75,0,0,1,0,2.53,3.27,3.27,0,0,1-.63,1,3,3,0,0,1-2.3,1Zm10.86-7.16h.8v4.93a4.85,4.85,0,0,1-.13,1,2.94,2.94,0,0,1-.46,1,2.65,2.65,0,0,1-.91.77,3.55,3.55,0,0,1-2.9,0,2.53,2.53,0,0,1-.9-.77,2.62,2.62,0,0,1-.46-1,4.29,4.29,0,0,1-.13-1v-4.93h.8v4.85a4.06,4.06,0,0,0,.11.92,2.16,2.16,0,0,0,.36.8,1.92,1.92,0,0,0,.66.57,2.43,2.43,0,0,0,2,0,1.76,1.76,0,0,0,.66-.57,2.16,2.16,0,0,0,.36-.8,3.57,3.57,0,0,0,.12-.92Zm5.17,0-3.4,7.87h.88l.86-2.07h4.06l.87,2.07h.89L52,108.59Zm-1.37,5.07,1.74-4.18,1.73,4.18Zm10.47-1.15a2.08,2.08,0,0,0,.63-.41,1.89,1.89,0,0,0,.42-.62,1.86,1.86,0,0,0,.16-.79,2.25,2.25,0,0,0-.2-1,1.65,1.65,0,0,0-.56-.64,2.49,2.49,0,0,0-.86-.37,5.1,5.1,0,0,0-1.07-.11H56.54v7.87h.8v-3.68h1.33l2.18,3.68h1l-2.3-3.75A2.61,2.61,0,0,0,60.33,112.51Zm-3-.42v-2.81h1.42a4,4,0,0,1,.81.08,1.75,1.75,0,0,1,.62.24,1.13,1.13,0,0,1,.4.44,1.28,1.28,0,0,1,.15.65,1.19,1.19,0,0,1-.52,1,2.63,2.63,0,0,1-1.49.35Zm5.85-3.5H64v7.87h-.8Zm7.93,0h.8v4.93a4.82,4.82,0,0,1-.12,1,2.79,2.79,0,0,1-.47,1,2.53,2.53,0,0,1-.9.77,3.57,3.57,0,0,1-2.91,0,2.58,2.58,0,0,1-.89-.77,2.79,2.79,0,0,1-.47-1,4.82,4.82,0,0,1-.12-1v-4.93h.8v4.85a3.56,3.56,0,0,0,.11.92,2.16,2.16,0,0,0,.36.8,1.84,1.84,0,0,0,.66.57,2.43,2.43,0,0,0,2,0,1.92,1.92,0,0,0,.66-.57,2.16,2.16,0,0,0,.36-.8,3.56,3.56,0,0,0,.11-.92Zm7.39,5.8a2.32,2.32,0,0,1-.22,1,2.12,2.12,0,0,1-.59.7,2.34,2.34,0,0,1-.82.41,3.21,3.21,0,0,1-.92.14,3.53,3.53,0,0,1-.72-.08,3.07,3.07,0,0,1-.67-.21,2.8,2.8,0,0,1-1.09-.88l.69-.51a2.07,2.07,0,0,0,.71.7A2,2,0,0,0,76,116a1.9,1.9,0,0,0,.61-.1,1.76,1.76,0,0,0,.56-.29,1.56,1.56,0,0,0,.41-.47,1.29,1.29,0,0,0,.16-.66,1.31,1.31,0,0,0-.16-.69,1.42,1.42,0,0,0-.43-.45,2.69,2.69,0,0,0-.61-.31l-.72-.24c-.26-.08-.52-.18-.77-.28a2.47,2.47,0,0,1-.68-.41,1.81,1.81,0,0,1-.48-.61,2.06,2.06,0,0,1-.18-.9,1.92,1.92,0,0,1,.23-1,2.15,2.15,0,0,1,.59-.68,2.51,2.51,0,0,1,.81-.38,3,3,0,0,1,.88-.13,3,3,0,0,1,1.36.29,2.23,2.23,0,0,1,.86.67l-.63.51a1.82,1.82,0,0,0-.66-.57,2,2,0,0,0-1-.22,2,2,0,0,0-.59.09,1.76,1.76,0,0,0-.55.27,1.45,1.45,0,0,0-.39.46,1.4,1.4,0,0,0-.15.66,1.26,1.26,0,0,0,.14.62,1.69,1.69,0,0,0,.38.42,2.19,2.19,0,0,0,.55.28l.63.22.83.29a2.87,2.87,0,0,1,.75.41,1.85,1.85,0,0,1,.54.63A2,2,0,0,1,78.51,114.39Z"/><path d="M100.27,64.65a16.45,16.45,0,0,1-1.44-1.41,11,11,0,0,1-2.13-4.82,38.09,38.09,0,0,1-.55-5.59c-.24-4.59-.49-9.65-4.41-14h0c-2-2.54-2.9-5.59-3.91-8.83s-2-6.34-4-9c-3.36-4.55-8.38-5.3-11.61-3.68A6.46,6.46,0,0,0,69,20.91a8.84,8.84,0,0,0-.3,4.62,13.93,13.93,0,0,1-3.31-8.24.7.7,0,0,0,0-.74.71.71,0,0,0-.59-.25c-1.5,0-6.67,3.35-10.84,6.46A80.05,80.05,0,0,0,47.1,28.4C44.39,31,44.46,31.57,44.74,32a.7.7,0,0,0,.58.25h.11c8.72,3.51,9.29,10.52,9.89,17.94a49.9,49.9,0,0,0,1,7.85c2.33,9.52,8.73,11.79,14.39,13.78,4.28,1.52,8.33,3,10.17,7.31h0a1.78,1.78,0,0,0,1.53.61,8.73,8.73,0,0,0,3-.72,33.79,33.79,0,0,0,7.26-4.25C97.42,71.23,101.66,66.51,100.27,64.65ZM72.63,18c2.93-1.46,7.5-.75,10.59,3.44,1.91,2.58,2.89,5.74,3.84,8.79a40.51,40.51,0,0,0,2.43,6.52A21.94,21.94,0,0,0,87,35.11c-.71-.42-1.46-.8-2.22-1.16-.5-4.94-1.4-10.39-5.43-13.19a5.26,5.26,0,0,0-4.87-.71,5.09,5.09,0,0,0-3.16,3.56,8,8,0,0,0,.41,4.5,14.9,14.9,0,0,1-1.94-1.49C68.13,20.8,71.54,18.57,72.63,18ZM84,33.56c-1.37-.61-2.77-1.15-4.15-1.69a51.88,51.88,0,0,1-6.91-3.06,8.3,8.3,0,0,1-.77-5,4.3,4.3,0,0,1,2.66-3,4.51,4.51,0,0,1,4.13.61C82.54,23.94,83.46,28.93,84,33.56ZM48,28.69c1.69-1.56,4-3.43,6.45-5.28,5-3.71,8.93-6,10.16-6.28a12.94,12.94,0,0,1-2.45,2.68,83.13,83.13,0,0,1-6.45,5.28c-5,3.71-8.93,6-10.16,6.28A12.94,12.94,0,0,1,48,28.69Zm-1.35,3.14a61,61,0,0,0,9.54-6.09A81.65,81.65,0,0,0,63,20.1a22.93,22.93,0,0,0,1.71-1.77c.92,6.44,4.64,9.65,9.1,11.89a46.86,46.86,0,0,1-8.27,8.11,46.45,46.45,0,0,1-10.12,5.61C54.56,39,52.54,34.55,46.63,31.83Zm8.94,12.94A48.38,48.38,0,0,0,66.05,39a49,49,0,0,0,8.53-8.4l.88.4a49.55,49.55,0,0,1-8.82,8.79,49.64,49.64,0,0,1-10.93,5.95C55.66,45.4,55.62,45.08,55.57,44.77Zm.56,5.31c-.1-1.18-.19-2.36-.32-3.53a50.67,50.67,0,0,0,11.31-6.13,50.44,50.44,0,0,0,9.11-9.11c1.08.46,2.19.89,3.28,1.32s2.48,1,3.69,1.48C81.8,37,78.06,41.9,71.74,46.61S59.7,53.52,56.5,54C56.34,52.72,56.24,51.39,56.13,50.08Zm1,7.71a27.48,27.48,0,0,1-.55-2.95c4.2-.65,10.27-3.59,15.62-7.58s9.89-9,11.71-12.82a28.07,28.07,0,0,1,2.68,1.37l.42.25c-.08,1.47-1.23,3.62-3.27,6.11a52.7,52.7,0,0,1-9,8.39,53,53,0,0,1-10.61,6.27c-3,1.27-5.44,1.76-6.86,1.38C57.23,58.07,57.19,57.94,57.16,57.79ZM80.68,76.92C78.47,73.64,74.84,72.35,71,71,65.58,69.08,60,67.1,57.51,59.09a5.53,5.53,0,0,0,.83,0c3.75,0,10.31-3,16.88-7.93,7-5.25,12-11.1,12.58-14.66a17.45,17.45,0,0,1,3.28,2.77l0,0h0c3.76,4.1,4,8.87,4.24,13.53.2,4,.39,7.82,2.86,10.87l0,.06c-.23,1.54-2.84,4.87-7.47,8.33S82.25,77.13,80.68,76.92Zm17.54-8.44a32.18,32.18,0,0,1-6,5.6,32,32,0,0,1-7.07,4.14c-2,.81-3.15.78-3.53.46a9.1,9.1,0,0,0-.46-.94c2.23-.12,6.16-2,10.09-5s6.88-6.16,7.62-8.26c.25.25.51.48.78.71C99.87,65.69,99.59,66.74,98.22,68.48Z"/><path d="M10.55,72.84V72a3.25,3.25,0,0,1,2.58,1.44,2.5,2.5,0,0,0,2,1.16,2.5,2.5,0,0,0,2-1.16A3.23,3.23,0,0,1,19.64,72a3.25,3.25,0,0,1,2.58,1.44,2.5,2.5,0,0,0,2,1.16,2.5,2.5,0,0,0,2-1.16,3,3,0,0,1,5.15,0,2.25,2.25,0,0,0,3.94,0,3,3,0,0,1,5.15,0,2.25,2.25,0,0,0,3.94,0,3,3,0,0,1,5.15,0,2.25,2.25,0,0,0,3.94,0,3,3,0,0,1,5.16,0,2.47,2.47,0,0,0,2,1.16v.81A3.21,3.21,0,0,1,58,74,2.25,2.25,0,0,0,54,74a3,3,0,0,1-5.16,0A2.24,2.24,0,0,0,45,74a3,3,0,0,1-5.16,0,2.24,2.24,0,0,0-3.93,0,3,3,0,0,1-5.16,0,2.24,2.24,0,0,0-3.93,0,3,3,0,0,1-5.16,0,2.47,2.47,0,0,0-2-1.16,2.47,2.47,0,0,0-2,1.16,3.23,3.23,0,0,1-2.58,1.44A3.23,3.23,0,0,1,12.52,74,2.47,2.47,0,0,0,10.55,72.84Zm2,5.81a3.25,3.25,0,0,0,2.58,1.44,3.25,3.25,0,0,0,2.58-1.44,2.47,2.47,0,0,1,2-1.16,2.47,2.47,0,0,1,2,1.16,3.25,3.25,0,0,0,2.58,1.44,3.25,3.25,0,0,0,2.58-1.44,2.24,2.24,0,0,1,3.93,0,3,3,0,0,0,5.16,0,2.24,2.24,0,0,1,3.93,0,3,3,0,0,0,5.16,0,2.24,2.24,0,0,1,3.93,0,3,3,0,0,0,5.16,0,2.25,2.25,0,0,1,3.94,0,3.24,3.24,0,0,0,2.58,1.44v-.81a2.47,2.47,0,0,1-2-1.16,3,3,0,0,0-5.16,0,2.25,2.25,0,0,1-3.94,0,3,3,0,0,0-5.15,0,2.25,2.25,0,0,1-3.94,0,3,3,0,0,0-5.15,0,2.25,2.25,0,0,1-3.94,0,3,3,0,0,0-5.15,0,2.5,2.5,0,0,1-2,1.16,2.5,2.5,0,0,1-2-1.16,3.23,3.23,0,0,0-2.58-1.44,3.21,3.21,0,0,0-2.57,1.44,2.5,2.5,0,0,1-2,1.16,2.5,2.5,0,0,1-2-1.16,3.23,3.23,0,0,0-2.58-1.44v.81A2.47,2.47,0,0,1,12.52,78.65ZM58.67,83a3,3,0,0,0-5.16,0,2.24,2.24,0,0,1-3.93,0,3,3,0,0,0-5.16,0,2.24,2.24,0,0,1-3.93,0,3,3,0,0,0-5.16,0,2.25,2.25,0,0,1-3.94,0,3.19,3.19,0,0,0-2.57-1.44A3.23,3.23,0,0,0,26.24,83a2.5,2.5,0,0,1-2,1.16,2.5,2.5,0,0,1-2-1.16,3.19,3.19,0,0,0-2.57-1.44A3.23,3.23,0,0,0,17.15,83a2.5,2.5,0,0,1-2,1.16,2.5,2.5,0,0,1-2-1.16,3.21,3.21,0,0,0-2.57-1.44v.81a2.47,2.47,0,0,1,2,1.16A3.23,3.23,0,0,0,15.18,85a3.23,3.23,0,0,0,2.58-1.44,2.47,2.47,0,0,1,2-1.16,2.47,2.47,0,0,1,2,1.16A3.25,3.25,0,0,0,24.27,85a3.25,3.25,0,0,0,2.58-1.44,2.24,2.24,0,0,1,3.93,0,3,3,0,0,0,5.16,0,2.24,2.24,0,0,1,3.93,0,3,3,0,0,0,5.16,0,2.25,2.25,0,0,1,3.94,0,3,3,0,0,0,5.15,0,2.25,2.25,0,0,1,3.94,0A3.23,3.23,0,0,0,60.64,85V84.2A2.49,2.49,0,0,1,58.67,83Z"/><path d="M56.13,21.41l-.27.76c-5.39-2-9.86-2-13.67,0-8.26,4.2-11.94,17-15.5,29.35-2.47,8.58-4.8,16.67-8.55,22L17.47,73c3.68-5.23,6-13.26,8.44-21.77,3.61-12.54,7.34-25.5,15.91-29.85C45.84,19.36,50.52,19.36,56.13,21.41ZM42.29,24c-7.53,4.95-9.83,17.3-12,29.24C28.63,61.83,27.11,70,23.72,74.58l.65.48c3.5-4.73,5-13,6.66-21.72,2.19-11.77,4.46-24,11.71-28.71,3.21-2.11,7.12-2.6,11.95-1.5l.18-.79C49.81,21.19,45.7,21.71,42.29,24Zm1.64,1.83c-6.06,4.78-7.39,16.27-8.68,27.38-.88,7.57-1.78,15.4-4.2,20.71l.74.33c2.47-5.42,3.38-13.31,4.27-21C37.33,42.31,38.64,31,44.43,26.42a10.94,10.94,0,0,1,8.51-2l.1-.81A11.92,11.92,0,0,0,43.93,25.78ZM39.56,55.34c-.34,6.83-.67,13.28-2.09,17l.76.29c1.47-3.89,1.79-10.41,2.14-17.3.68-13.5,1.45-28.8,10.79-29.57L51.1,25C41.05,25.82,40.26,41.5,39.56,55.34Z"/><path d="M63.57,54.86a1,1,0,0,1-.52,1.27,1,1,0,0,1-.38.08,1,1,0,0,1-.89-.6,1,1,0,0,1,1.79-.75Zm.74-1.44a1,1,0,0,0,.43,1.85,1.08,1.08,0,0,0,.43-.1,1,1,0,0,0,.44-1.31A1,1,0,0,0,64.31,53.42Zm3.9-2.16h0a1,1,0,0,0,.51,1.8.93.93,0,0,0,.5-.14h0a1,1,0,1,0-1-1.66Zm-1.93,1.13a1,1,0,0,0,.47,1.82,1,1,0,0,0,.48-.12,1,1,0,0,0,.37-1.33A1,1,0,0,0,66.28,52.39Zm-6,2.71a1,1,0,0,0,.29,1.9,1,1,0,0,0,.3,0,1,1,0,0,0-.59-1.85Zm9.84-5a1,1,0,1,0,1.35.27A1,1,0,0,0,70.09,50.06ZM58.19,55.6a1,1,0,0,0-.81,1.11,1,1,0,0,0,1,.83h.15a1,1,0,0,0,.81-1.12A1,1,0,0,0,58.19,55.6Zm19.66-9.28a1,1,0,0,0,.64-.24A1,1,0,1,0,77.11,46,1,1,0,0,0,77.85,46.32Zm4.8-4.82a1,1,0,0,0,.74-.35,1,1,0,1,0-1.37.11A1,1,0,0,0,82.65,41.5Zm1.41-1.79A1,1,0,0,0,84.63,38a1,1,0,0,0-1.14,1.58A1,1,0,0,0,84.06,39.71Zm.75-2a1,1,0,0,0,1.33-.39,1,1,0,1,0-1.33.39ZM71.94,48.79a1,1,0,0,0-.23,1.36,1,1,0,0,0,.79.41.93.93,0,0,0,.57-.19A1,1,0,0,0,73.3,49,1,1,0,0,0,71.94,48.79Zm1.8-1.33a1,1,0,0,0-.18,1.36,1,1,0,0,0,.77.39.93.93,0,0,0,.59-.21,1,1,0,1,0-1.18-1.54Zm3.13-1.26a1,1,0,1,0-.76,1.59,1,1,0,0,0,.76-1.59Zm3.59-3.29a1,1,0,0,0,1.37,0,1,1,0,1,0-1.41-1.34h0A1,1,0,0,0,80.46,42.91Zm-.94,1.88a1,1,0,1,0-.67-1.68h0a1,1,0,0,0,0,1.38A1,1,0,0,0,79.52,44.79Zm6.16,21.39.21-.15a7.79,7.79,0,0,0,3.52-4.8A3.83,3.83,0,0,0,86,56.74a7.09,7.09,0,0,0-5,1.57L79.25,55.9l1.31-1-.49-.65-1.31,1L77.6,53.69l-.65.48,1.16,1.57-1.28.95.49.65,1.28-1,2.27,3,.32-.22.06,0a6.45,6.45,0,0,1,4.69-1.62,3,3,0,0,1,2.67,3.56,7,7,0,0,1-3.2,4.26l-.22.16A3,3,0,0,0,84.06,67a1.7,1.7,0,0,0,.25,1.55,1.73,1.73,0,0,0,1.42.69h0a3,3,0,0,0,1.76-.66L87,68a2.26,2.26,0,0,1-1.28.5h0a.9.9,0,0,1-.9-1.2A2.29,2.29,0,0,1,85.68,66.18Z"/><path d="M76.32,8.9,73.94,7.22l2.22-1.89-2.91.24.49-2.88L71.66,4.74,70.19,2.23l-.27,2.9-2.75-1,1.66,2.4-2.73,1,2.81.78-1.44,2.53,2.65-1.21.52,2.86,1.25-2.63,2.25,1.86L73.4,8.92ZM71.6,8.56,71,9.82l-.25-1.38L69.48,9l.69-1.22-1.35-.37L70.13,7l-.79-1.15,1.31.47.13-1.39.71,1.2,1-1-.23,1.38,1.39-.12-1.06.91,1.13.81H72.32l.35,1.35Z"/><path d="M38.13,7.56l-2.73-1,1.66-2.4-2.75,1L34,2.23,32.56,4.74,30.49,2.69,31,5.57l-2.91-.24,2.22,1.89L27.91,8.9l2.92,0-.74,2.83,2.25-1.86,1.24,2.63.53-2.86,2.65,1.21L35.32,8.34Zm-4.65.88-.25,1.38-.6-1.26-1.07.88.35-1.35H30.52l1.13-.81-1.06-.91L32,6.49l-.23-1.38,1,1,.71-1.2.13,1.39,1.31-.47L34.1,7l1.31.48-1.35.37L34.75,9Z"/><path d="M16,65.24l-2.73-1,1.66-2.4-2.75,1-.27-2.9-1.47,2.51-2.08-2,.49,2.88L5.94,63l2.21,1.89L5.78,66.57l2.91,0L8,69.42l2.25-1.86,1.25,2.63L12,67.33l2.65,1.21L13.18,66Zm-4.65.88-.25,1.37-.59-1.26-1.08.89.35-1.35H8.38L9.52,65l-1.07-.9,1.39.11-.23-1.38,1,1,.71-1.2L11.44,64l1.32-.47L12,64.63l1.31.49-1.35.36.69,1.22Z"/><path d="M57.22,96l-2.73-1,1.66-2.4-2.75,1-.27-2.9-1.47,2.51-2.08-2L50.07,94l-2.91-.24,2.22,1.89L47,97.33l2.91,0-.74,2.82,2.25-1.86L52.68,101l.52-2.86,2.65,1.21-1.44-2.53Zm-4.65.88-.25,1.37L51.72,97l-1.07.89L51,96.53H49.61l1.14-.81-1.07-.9,1.39.11-.23-1.38,1,1,.71-1.2.13,1.39L54,94.24l-.79,1.15,1.31.49-1.35.36.69,1.22Z"/><path d="M10,35.76l-2.29-.85,1.39-2-2.3.81L6.59,31.3,5.36,33.4,3.62,31.69,4,34.09l-2.43-.2,1.86,1.58-2,1.41,2.43,0-.61,2.36,1.88-1.55,1,2.2.44-2.4,2.22,1L7.66,36.41Zm-3.16.92L6,36.3l-.16.91-.4-.84L4.75,37,5,36.07H4.07l.75-.53-.7-.59L5,35l-.15-.9.66.64L6,34l.09.91.86-.3-.52.75.86.32-.89.25Z"/><path d="M99.06,38.63,95.6,38l3.46-.61L99.67,34l.61,3.46,3.46.61-3.46.61-.61,3.46Z"/><path d="M29.9,23.46l-3.45-.62,3.45-.61.62-3.45.61,3.45,3.45.61-3.45.62-.61,3.45Z"/><path d="M3.46,51.55,0,50.94l3.46-.61.61-3.46.61,3.46,3.46.61-3.46.61L4.07,55Z"/><path d="M68.72,80.7l-3.46-.61,3.46-.61L69.33,76l.61,3.46,3.46.61-3.46.61-.61,3.46Z"/><path d="M46.73,45.73l-3.46-.62,3.46-.61.61-3.45L48,44.5l3.46.61L48,45.73l-.61,3.45Z"/><path d="M39.29,92.39a1.77,1.77,0,1,0,1.77,1.77A1.77,1.77,0,0,0,39.29,92.39Zm0,2.87a1.1,1.1,0,1,1,0-2.2,1.1,1.1,0,1,1,0,2.2Z"/><path d="M65,92.39a1.77,1.77,0,1,0,1.77,1.77A1.77,1.77,0,0,0,65,92.39Zm0,2.87a1.1,1.1,0,1,1,0-2.2,1.1,1.1,0,1,1,0,2.2Z"/><path d="M102.11,53.56a1.77,1.77,0,1,0,1.77,1.77A1.77,1.77,0,0,0,102.11,53.56Zm0,2.87a1.1,1.1,0,1,1,1.1-1.1A1.1,1.1,0,0,1,102.11,56.43Z"/><path d="M85.28,10.75a1.77,1.77,0,1,0,1.77,1.77A1.77,1.77,0,0,0,85.28,10.75Zm0,2.87a1.1,1.1,0,1,1,1.1-1.1A1.1,1.1,0,0,1,85.28,13.62Z"/><path d="M49,59.71a1.77,1.77,0,1,0,1.77,1.77A1.78,1.78,0,0,0,49,59.71Zm0,2.87a1.1,1.1,0,1,1,1.1-1.1A1.1,1.1,0,0,1,49,62.58Z"/><path d="M20.37,34.78a1.77,1.77,0,1,0,1.77,1.77A1.77,1.77,0,0,0,20.37,34.78Zm0,2.87a1.1,1.1,0,1,1,0-2.2,1.1,1.1,0,1,1,0,2.2Z"/><path d="M21.08,18.32H16.7l-1.35-4.16L14,18.32H9.62l3.54,2.57-1.35,4.16,3.54-2.57,3.54,2.57-1.35-4.16Zm-5.73,3.13L13.4,22.86l.75-2.29-2-1.42h2.41l.74-2.28.74,2.28H18.5l-1.95,1.42.75,2.29Z"/><path d="M97.25,21.39H93.67L92.56,18l-1.11,3.41H87.87l2.9,2.1L89.66,26.9l2.9-2.1,2.9,2.1-1.11-3.41Zm-4.69,2.37-1.31.95.5-1.53-1.31-1h1.62l.5-1.53.5,1.53h1.62l-1.31,1,.5,1.53Z"/><path d="M31,89.14H27.4l-1.11-3.41-1.1,3.41H21.6l2.9,2.11-1.11,3.41,2.9-2.11,2.9,2.11-1.1-3.41Zm-4.7,2.38-1.3,1,.5-1.54-1.31-1H25.8l.49-1.54.5,1.54h1.62l-1.31,1,.5,1.54Z"/><path d="M82.11,88.3H78.52l-1.11-3.4-1.1,3.4H72.72l2.9,2.11-1.11,3.41,2.9-2.11,2.9,2.11-1.1-3.41Zm-4.7,2.38-1.3.95.5-1.54-1.31-1h1.61l.5-1.53.5,1.53h1.62l-1.31,1,.5,1.54Z"/><path d="M23.3,48.15H19.71L18.6,44.74l-1.1,3.41H13.91l2.9,2.11-1.1,3.41,2.89-2.11,2.91,2.11L20.4,50.26Zm-4.7,2.38-1.3.95.5-1.54L16.49,49h1.62l.49-1.54L19.1,49h1.62l-1.31.95.5,1.54Z"/><path d="M58.34,4.16H54L52.61,0,51.26,4.16H46.88l3.54,2.58L49.07,10.9l3.54-2.57,3.54,2.57L54.8,6.74ZM52.61,7.29l-2,1.42.75-2.29L49.46,5h2.41l.74-2.29L53.35,5h2.41L53.82,6.42l.74,2.29Z"/></g></g></svg>