<svg xmlns="http://www.w3.org/2000/svg" viewBox="0 0 55.27 74.56"><defs><style>.cls-1{fill:#1d1d1b;}</style></defs><title>Asset 441</title><g id="Layer_2" data-name="Layer 2"><g id="Layer_1-2" data-name="Layer 1"><path class="cls-1" d="M46,62.85l-1.9,1.23A.68.68,0,0,1,43,63.51v-.42c-1.83,0-5.91-.62-6.38-5.43a.32.32,0,0,1,0-.14V36.32a.11.11,0,0,1,0,0c-.09-.92-.56-3.7-3.2-3.61-3.14.09-3.56,4.93-3.61,6.41a.29.29,0,0,1,0,.09v18a.67.67,0,0,1-.66.66h-.84a.67.67,0,0,1-.66-.66V36.34a.19.19,0,0,1,0-.07c-.08-.92-.55-3.7-3.2-3.61-3.14.09-3.56,4.93-3.61,6.41V57.18a.66.66,0,0,1-.65.66h-.85a.66.66,0,0,1-.65-.66V35.66a2.46,2.46,0,0,1,0-.28c-.08-3.31-1.21-4.76-1.21-4.76-.73-.89.94-1.52,2.22-.19a4.11,4.11,0,0,1,1,1.83A5,5,0,0,1,24,30.48a4.51,4.51,0,0,1,5,2.67,5,5,0,0,1,4-2.67c5-.57,5.66,4.37,5.76,5.73h0a.53.53,0,0,1,0,.12V57.47a.08.08,0,0,1,0,0,4,4,0,0,0,4.25,4v-.41a.68.68,0,0,1,1-.58L46,61.7A.68.68,0,0,1,46,62.85Z"/><path class="cls-1" d="M27.64,74.56a27.62,27.62,0,1,1,19.54-8.09A27.46,27.46,0,0,1,27.64,74.56Zm0-53.37a25.74,25.74,0,1,0,18.19,7.54A25.57,25.57,0,0,0,27.64,21.19Z"/><path class="cls-1" d="M8,8.8A3.38,3.38,0,0,1,4.4,12.32c-1,0-1.62-.29-2.36-.29a1.38,1.38,0,0,0-.46.05s0-.25,0-.49c0-.48-.07-1-.07-1.48A3.2,3.2,0,0,1,1.71,9h.16a5.34,5.34,0,0,0,.07.71,2.39,2.39,0,0,0,2.49,2.2A2,2,0,0,0,6.66,9.74c0-3.18-5.06-2.89-5.06-6.53A3.12,3.12,0,0,1,4.91,0C5.77,0,6.33.26,7,.26a1.28,1.28,0,0,0,.57-.1c0,.41-.05.92-.05,1.43,0,.26,0,.74,0,1.21H7.4C7,1.08,6.09.44,4.94.44A1.77,1.77,0,0,0,3,2.29C3,5.34,8,4.9,8,8.8Zm5.24-4.18c1,0,1.34.69,1.39,1.58h1.59C16,5,14.87,4.29,13.4,4.29a3.93,3.93,0,0,0-4.09,4,3.81,3.81,0,0,0,3.9,4,3.29,3.29,0,0,0,2.87-1.49L16,10.72a2.73,2.73,0,0,1-2.07.9C12.2,11.62,11,10.28,11,8,11,6.18,11.72,4.62,13.28,4.62Zm12,3.67a3.91,3.91,0,0,1-4.07,4,3.83,3.83,0,0,1-4-3.92,4,4,0,0,1,8.08-.05Zm-1.82.05c0-2.23-.46-3.72-2.22-3.72S19,6.34,19,8.33s.39,3.6,2.19,3.6S23.46,10.31,23.46,8.34Zm7-4a2.87,2.87,0,0,0-1.89,1v-1a5.24,5.24,0,0,1-2.05.45V4.9c.5.13.51.38.51,1.18v4.46c0,1.31-.21,1.39-.7,1.49v.16c.36,0,.87,0,1.47,0s1.12,0,1.48,0V12c-.49-.1-.71-.18-.71-1.49V5.8a1.36,1.36,0,0,1,1-.57c.4,0,.66.23.66.9h1.51C31.77,4.85,31.31,4.29,30.49,4.29Zm10.08,4a3.85,3.85,0,0,1-3.92,4,3.45,3.45,0,0,1-2-.57v2.54c0,1.31.22,1.39.71,1.49v.16c-.36,0-.87,0-1.48,0s-1.11,0-1.47,0v-.16c.49-.1.7-.18.7-1.49V6.08c0-.8,0-1.06-.6-1.18V4.74a5.35,5.35,0,0,0,2.14-.45v.76a3.58,3.58,0,0,1,2.21-.76A3.73,3.73,0,0,1,40.57,8.26Zm-1.82.11c0-2.22-.81-3.6-2.35-3.6a2.42,2.42,0,0,0-1.72.75v5.62a2.45,2.45,0,0,0,1.76.69C37.67,11.83,38.75,11,38.75,8.37Zm4.45-5A.78.78,0,0,0,44,2.61a.79.79,0,0,0-.82-.84.78.78,0,0,0-.78.84A.77.77,0,0,0,43.2,3.38Zm.72,7.16V4.34a5.22,5.22,0,0,1-2,.43v.16c.49.13.5.4.5,1.18v4.43c0,1.31-.21,1.39-.7,1.49v.16c.36,0,.87,0,1.47,0s1.12,0,1.48,0V12C44.14,11.93,43.92,11.85,43.92,10.54Zm9.82-2.25a3.9,3.9,0,0,1-4.06,4,3.83,3.83,0,0,1-4-3.92,4,4,0,0,1,8.08-.05Zm-1.82.05c0-2.23-.46-3.72-2.21-3.72s-2.23,1.72-2.23,3.71.39,3.6,2.2,3.6S51.92,10.31,51.92,8.34Z"/></g></g></svg>