<svg xmlns="http://www.w3.org/2000/svg" viewBox="0 0 31.13 41.43"><title>Asset 484</title><g id="Layer_2" data-name="Layer 2"><g id="Layer_1-2" data-name="Layer 1"><path d="M31.09,11.7a4.48,4.48,0,0,1-.28,2.23,10.27,10.27,0,0,1-1.36,2.15c-.44.6-.89,1.19-1.33,1.78-.31.43-.63.85-.95,1.28a16.24,16.24,0,0,0-1.3,2.06c-.26.5-.56,1-.81,1.5-.57,1.14-1.12,2.28-1.68,3.42-.44.92-.86,1.85-1.22,2.81-.23.62-.44,1.25-.65,1.88a8.22,8.22,0,0,0-.35,2.75c0,.24,0,.49,0,.74,0,1.42.17,2.83.28,4.25.07.81.09,1.63.13,2.44,0,.15,0,.32-.13.41a.25.25,0,0,1-.21,0s-.08-.1-.06-.14a3.06,3.06,0,0,0,0-1.38,9.64,9.64,0,0,1-.06-1.42,1.35,1.35,0,0,0,0-.45A3.46,3.46,0,0,1,21,36.92c0-1.19-.07-2.39-.08-3.58A13.06,13.06,0,0,1,21,31.69a8,8,0,0,1,.51-1.78c.34-.89.68-1.77,1.06-2.64s.74-1.58,1.12-2.36.76-1.57,1.16-2.34a27.65,27.65,0,0,1,1.64-3c.31-.46.66-.88,1-1.32l1-1.37c.26-.35.5-.71.77-1.05a12.6,12.6,0,0,0,1.14-1.76,4.18,4.18,0,0,0,.42-2.25.74.74,0,0,0-.71-.61,1.48,1.48,0,0,0-.94.48c-.5.57-1,1.14-1.47,1.73a20.07,20.07,0,0,0-1.39,1.8A15.43,15.43,0,0,1,24,17.94a.44.44,0,0,1-.72,0,1.69,1.69,0,0,1-.3-.48c-.07-.18-.06-.41-.2-.58,0,0,0-.07,0-.11,0-.37,0-.75.06-1.12s.09-.56.14-.84L23,14c0-.19.06-.38.08-.56s.09-.56.14-.84a1.4,1.4,0,0,0,.06-.28,12.87,12.87,0,0,1,.26-1.85c.08-.66.13-1.32.2-2s.13-1.21.22-1.81a8.59,8.59,0,0,0,.06-2.09,1.73,1.73,0,0,0-.52-1.11.91.91,0,0,0-1.37.21,4.39,4.39,0,0,0-.49,1.51c-.05.28-.11.55-.16.83a1,1,0,0,0-.06.22A14.58,14.58,0,0,1,21.2,8a2.79,2.79,0,0,1-.1.39c0,.16-.07.33-.11.49l-.12.67c0,.21-.08.41-.11.62l-.12.55-.06.33c-.08.75-.17,1.51-.25,2.26a1.52,1.52,0,0,1-.37,1l-.42-.09a2.85,2.85,0,0,1-.06-.76l.06-1.93A13.06,13.06,0,0,1,19.61,10a10.46,10.46,0,0,0,.07-1.59,16.85,16.85,0,0,1,.23-3c.05-.26.06-.52.09-.79s.09-.6.13-.9a6.58,6.58,0,0,0,.05-2,1.63,1.63,0,0,0-.48-1,1.33,1.33,0,0,0-.59-.33.75.75,0,0,0-.92.36,4.42,4.42,0,0,0-.65,1.62c-.17,1.05-.19,2.11-.33,3.17s-.22,1.84-.3,2.76c-.05.53,0,1.06,0,1.59,0,.74,0,1.48,0,2.22,0,.32,0,.65.05,1a1,1,0,0,1-.35.8.16.16,0,0,1-.25,0,1.27,1.27,0,0,1-.18-.29,6.44,6.44,0,0,1-.29-1c-.1-.77-.16-1.55-.23-2.32,0-.34-.08-.68-.1-1,0-.85-.09-1.7-.11-2.55s-.15-1.78-.23-2.66a5.36,5.36,0,0,1-.06-.68,3.78,3.78,0,0,0-.23-1.34,2.34,2.34,0,0,0-.33-.65,1,1,0,0,0-1.67.09,2.75,2.75,0,0,0-.34,1.25c0,.27,0,.54,0,.8.09,1.25.08,2.5.06,3.75,0,.09,0,.19,0,.28,0,.85.1,1.7.14,2.55,0,.46,0,.92,0,1.37a23.68,23.68,0,0,1-.07,3.86,10.84,10.84,0,0,1-.38,1.95,7.16,7.16,0,0,0-.37,1.6,4,4,0,0,1-.48,1.44c-.28.23-.46.63-.84.67s-1.19-.76-1.51-1.06A4.41,4.41,0,0,1,8.52,19c-.29-.47-.62-.91-.94-1.35a13.92,13.92,0,0,0-1.77-1.91,11.51,11.51,0,0,0-1.29-1.12,5.1,5.1,0,0,0-1.7-.76A3.46,3.46,0,0,0,1.19,14a1.49,1.49,0,0,0-.71.45A.54.54,0,0,0,.35,15,3.45,3.45,0,0,0,.8,16.11a18.79,18.79,0,0,0,1.73,2.26A9.17,9.17,0,0,1,3.61,19.9a17.49,17.49,0,0,1,1,2.09c.49,1.13,1,2.25,1.49,3.38a6.13,6.13,0,0,0,.49.82,25.31,25.31,0,0,0,1.86,2.5c.74.87,1.42,1.78,2.08,2.7a4.28,4.28,0,0,1,.45.91,5.43,5.43,0,0,1,.43,1.87c0,.41.1.82.15,1.24a15.86,15.86,0,0,1,.16,2.49c0,.21,0,.41,0,.62a2.54,2.54,0,0,0,0,.39,11.65,11.65,0,0,1,0,2.21s0,0,0,.05-.17,0-.19-.14a.82.82,0,0,1,0-.22,17.26,17.26,0,0,1,.06-2.49,8.33,8.33,0,0,0-.13-2.49,7.63,7.63,0,0,1-.13-1.07,8,8,0,0,0-.35-2,5.81,5.81,0,0,0-1.05-1.94c-.76-1-1.57-1.95-2.32-2.94A22.93,22.93,0,0,1,6.05,25.8a12.54,12.54,0,0,1-.7-1.48c-.62-1.4-1.22-2.82-1.93-4.18a8.34,8.34,0,0,0-1.24-1.76A13.47,13.47,0,0,1,.32,15.81a2.35,2.35,0,0,1-.32-1,1.12,1.12,0,0,1,.49-.91c.27,0,.45-.29.77-.26s.75-.09,1.13-.09a3.92,3.92,0,0,1,2.05.76,13.22,13.22,0,0,1,1.87,1.56,9.81,9.81,0,0,1,.73.71c.29.33.57.66.83,1s.63,1,1,1.45A13.63,13.63,0,0,0,10,20.28a2.67,2.67,0,0,0,.56.33c.2-.14.42-.26.6-.41a1,1,0,0,0,.24-.38,5.34,5.34,0,0,0,.36-1.48A3.08,3.08,0,0,1,12,17.4a3.32,3.32,0,0,0,.21-.88,4.34,4.34,0,0,1,.14-.6,1.42,1.42,0,0,0,.05-.22c0-.45,0-.91,0-1.36a3.38,3.38,0,0,1,0-.45c0-.72,0-1.44,0-2.16,0-.43,0-.87,0-1.3,0-1.52,0-3-.08-4.55,0-.93-.06-1.85-.1-2.78,0-.15,0-.31,0-.46A3,3,0,0,1,12.81.93a.17.17,0,0,1,.06-.1,2,2,0,0,1,.94-.35,1,1,0,0,1,.8.37,2.43,2.43,0,0,1,.43.73,3.25,3.25,0,0,1,.31,1.54,1.44,1.44,0,0,0,0,.46A6.51,6.51,0,0,1,15.53,5c0,.57.1,1.13.14,1.7a4.17,4.17,0,0,1,0,.79,4.64,4.64,0,0,0,.15,1.74,3,3,0,0,1,.07.51c0,.58,0,1.17.1,1.76s.22,1,.34,1.55a.94.94,0,0,0,.15.21c.05-.1.1-.16.1-.23a8.69,8.69,0,0,0,0-1c-.07-.81,0-1.63,0-2.44a30.8,30.8,0,0,1,.26-3.46c.09-1.15.22-2.3.34-3.45a4.51,4.51,0,0,1,.37-1.54A5.25,5.25,0,0,1,18.1.35.79.79,0,0,1,19,0a1.72,1.72,0,0,1,1.38,1.32,7.64,7.64,0,0,1,0,2.82c-.13.73-.21,1.46-.3,2.2a50.08,50.08,0,0,0-.12,5.05c0,.49,0,1,0,1.48,0,.12,0,.25,0,.42.09-.08.15-.11.16-.15a2.16,2.16,0,0,0,.1-.44,20,20,0,0,1,.45-3.09c.15-.82.33-1.64.48-2.46s.29-1.72.45-2.57a3.59,3.59,0,0,1,.6-1.39.54.54,0,0,1,.58-.27h.22A1.25,1.25,0,0,1,24.19,4a4.69,4.69,0,0,1,.1,1.9c-.06.45-.08.91-.12,1.36a.37.37,0,0,1,0,.11c-.31,1.78-.38,3.58-.67,5.36-.13.78-.23,1.57-.34,2.36a7.91,7.91,0,0,0,0,1.82.91.91,0,0,0,.53.85,1.66,1.66,0,0,0,.3-.19,15.89,15.89,0,0,0,2.09-2.47,16.33,16.33,0,0,1,1.81-2.33c.45-.49.88-1,1.32-1.48a1.23,1.23,0,0,1,1-.39A.87.87,0,0,1,31.09,11.7Z"/></g></g></svg>