<svg xmlns="http://www.w3.org/2000/svg" viewBox="0 0 81.3 84.67"><defs><style>.cls-1,.cls-2{fill-rule:evenodd;}.cls-2{fill:#c6262f;}.cls-3{fill:#fff;}</style></defs><title>Asset 464</title><g id="Layer_2" data-name="Layer 2"><g id="Layer_1-2" data-name="Layer 1"><path d="M41.5,62.65c-1.39-.21-2.58-.7-4.26-.07a6.32,6.32,0,0,1,4.46-1.46C43.14,61.36,42.85,62.86,41.5,62.65ZM44.88,59a7.06,7.06,0,0,0-5,1.64c1.88-.71,3.21-.17,4.77.07S46.5,59.26,44.88,59Zm-27.71-.67a6.79,6.79,0,0,0-4.81-1.58c-1.56.26-1.24,1.87.21,1.65S15.36,57.64,17.17,58.32ZM14,56.45A4.19,4.19,0,0,0,11.17,55c-1,0-.93,1,0,1A4.8,4.8,0,0,1,14,56.45Zm1.18.42a4.78,4.78,0,0,1-1.25-2.55c-.28-.87-1.26-.59-1,.34A4.21,4.21,0,0,0,15.14,56.87Zm2.3,1.23c-.81-1.21-.64-2.24-.72-3.38s-1.31-1.07-1.24.11A5.06,5.06,0,0,0,17.44,58.1Zm8,5.81a4.71,4.71,0,0,0-1,3h1.11A4.93,4.93,0,0,1,25.46,63.91Zm-2.83,3h1a4.08,4.08,0,0,1,0-2.52A5.05,5.05,0,0,0,22.63,66.87Zm3.82,0h1.08a5,5,0,0,0-1-2.73A4.5,4.5,0,0,1,26.45,66.87Zm8.51,0h1.12a4.83,4.83,0,0,0-1-3A4.92,4.92,0,0,1,35,66.87Zm1.89,0h1a5,5,0,0,0-1-2.52A4.15,4.15,0,0,1,36.85,66.87ZM34,64.14a5,5,0,0,0-1,2.73h1.07A4.5,4.5,0,0,1,34,64.14Zm14.14-7.4a6.77,6.77,0,0,0-4.81,1.58c1.81-.68,3.09-.16,4.59.07S49.71,57,48.15,56.74Zm1.21-.68c.91,0,1-1,0-1a4.19,4.19,0,0,0-2.79,1.42A4.84,4.84,0,0,1,49.36,56.06Zm-1.78-1.4c.29-.93-.69-1.21-1-.34a4.83,4.83,0,0,1-1.24,2.55A4.19,4.19,0,0,0,47.58,54.66ZM45,54.83c.07-1.18-1.17-1.22-1.25-.11s.09,2.17-.71,3.38A5.1,5.1,0,0,0,45,54.83ZM42.22,57c.19-1.28-1.15-1.45-1.35-.25s-.12,2.37-1.12,3.61A5.6,5.6,0,0,0,42.22,57Zm-4.35,1.42c0,1.27.17,2.4-.67,3.78a5.75,5.75,0,0,0,2.06-3.7C39.29,57.18,37.92,57.18,37.87,58.41ZM57.28,43A25.71,25.71,0,0,0,40.89,39.7a4.45,4.45,0,0,1-1.72,4.76c-.37-.69.16-1-.08-1.66-1.11,1.19,0,2.67-3,3.94a2.85,2.85,0,0,1,.71-1.51c.4-.64-.16-1.23-.87-.56a8.54,8.54,0,0,1-11.32,0c-.71-.67-1.27-.08-.87.56a2.85,2.85,0,0,1,.71,1.51c-3.06-1.27-1.9-2.75-3-3.94-.24.64.29,1-.08,1.66a4.45,4.45,0,0,1-1.72-4.76h0l-.68.41.12.08h-.28l-1.34.8c-.32,0-.64,0-1,0-3.94,2-5.53,4.42-5.88,7.08a4.92,4.92,0,0,0,2.79-.91c-.49-2.12.72-3.21,2.4-3.5a7.6,7.6,0,0,1,5.81,2.06c1.43,1.48.86,3.62-1.56,4.69a27.53,27.53,0,0,1-9.25,1.62c.07.35.14.71.23,1.07A11.2,11.2,0,0,1,19.83,53c4.38-7,16.48-7,20.86,0a11.2,11.2,0,0,1,8.81.19c.09-.36.16-.72.23-1.07a27.53,27.53,0,0,1-9.25-1.62c-2.42-1.07-3-3.21-1.56-4.69a7.6,7.6,0,0,1,5.81-2.06c1.68.29,2.89,1.38,2.4,3.5a4.92,4.92,0,0,0,2.79.91C49.57,45.45,48,43,44,41c4.66.18,9.45,2.25,11.53,4.45,1.26,1.33.8,2.05-.17,2.48-2.18,1-7.32,1.36-9.2,0a3,3,0,0,0-.85-3c-.85-.65-1.92-.53-2.25.41a2.6,2.6,0,0,0,.37,2.17,2.62,2.62,0,0,1-1.39-2.83,2.19,2.19,0,0,0-.63,2.83,2.35,2.35,0,0,1-1-2.28A2.66,2.66,0,0,0,40,47.89a1.46,1.46,0,0,1-.78-1.83,2.43,2.43,0,0,0,.48,3.38c3.51,3,15.5,2.71,19.39.06C61.75,47.72,60.4,45.06,57.28,43ZM30.2,39.35a2.62,2.62,0,0,1-1.7,1.57c.93-.16,1.58-.38,1.69-1.05.09.71.75.89,1.7,1.05A2.58,2.58,0,0,1,30.2,39.35Zm6-15.69a3.87,3.87,0,0,0,1.21-2.93,2.47,2.47,0,0,0,2.59.06,2,2,0,0,0-.84,1.2,1.07,1.07,0,0,0,1.42,1.18,1.15,1.15,0,0,0,.73-.63A2.63,2.63,0,0,1,41,26.12a1.83,1.83,0,0,1,1.84,1.71c-3.27-.63-5.43,3.56-4.83,7.08a11.15,11.15,0,0,0,1.78,4,3.47,3.47,0,0,1,.68,2.16,1.9,1.9,0,0,1-1.06,1.77c.59-.57,0-1.53-.55-.83-1,1.14-.12,2.63-1.73,3.37A3,3,0,0,0,37.32,44c-.1-.59-.67-.49-1-.21a9,9,0,0,1-3.51,2,11.63,11.63,0,0,1-5.05,0,8.88,8.88,0,0,1-3.51-2c-.36-.28-.92-.38-1,.21a2.82,2.82,0,0,0,.23,1.35c-1.61-.74-.77-2.23-1.72-3.37-.59-.7-1.15.26-.56.83a1.9,1.9,0,0,1-1.06-1.77,3.47,3.47,0,0,1,.68-2.16,10.81,10.81,0,0,0,1.78-4c.6-3.52-1.56-7.71-4.83-7.08a1.83,1.83,0,0,1,1.84-1.71,2.63,2.63,0,0,1-.39-3.58,1.15,1.15,0,0,0,.74.63A1.06,1.06,0,0,0,21.33,22a1.94,1.94,0,0,0-.83-1.2,2.46,2.46,0,0,0,2.58-.06,3.87,3.87,0,0,0,1.21,2.93A5.45,5.45,0,0,0,26.63,25c2.7.93,4,1,7.06,0A6,6,0,0,0,36.23,23.66Zm-1.64,1.47a21.66,21.66,0,0,1-3.66,1,1.63,1.63,0,0,0-1.63,1.49.86.86,0,0,0,1.48.71,1,1,0,0,0-.09-1.41,1.44,1.44,0,0,1,.56,1.89,1.65,1.65,0,0,1-2.06.79c-1-.29-1.67-1.33-.85-3.05A3.74,3.74,0,0,0,25.93,25c-2.47-.48-3.43,1.89-3.13,4a13.45,13.45,0,0,0,.62,2.7,7.48,7.48,0,0,1,.1,5c-.62,2.1-1.62,3.68-.27,5.06,2.8,2.87,11.23,2.87,14,0,1.35-1.38.34-3-.27-5.06a7.41,7.41,0,0,1,.09-5,13.45,13.45,0,0,0,.62-2.7C38.13,26.15,36.66,24.45,34.59,25.13ZM28.37,31.6a5.68,5.68,0,0,0-3.44-2.48c1.36.89,1.64,2,2.22,3.15S29,32.78,28.37,31.6ZM32.26,35c-.8,0-1.14.34-2,.34s-1.46-.41-2-.34-.77.85-.06,1a1.6,1.6,0,0,1,1,.44c.89.81,1.14.81,2,0a1.6,1.6,0,0,1,1.05-.44A.48.48,0,1,0,32.26,35Zm-.35-3.36c-.59,1.18.66,1.76,1.23.67S34,30,35.36,29.12A5.71,5.71,0,0,0,31.91,31.6ZM18.3,40.22l.49,0,.16-.09-.13-.1Zm4.34,18.19c-.05-1.23-1.43-1.23-1.39.08a5.7,5.7,0,0,0,2.06,3.7C22.46,60.81,22.69,59.68,22.64,58.41Zm-2,2.22a7.06,7.06,0,0,0-5-1.64c-1.61.27-1.28,1.94.23,1.71S18.73,59.92,20.61,60.63Zm.14-.28c-1-1.24-.91-2.38-1.12-3.61s-1.54-1-1.34.25A5.54,5.54,0,0,0,20.75,60.35Zm-1.94.77c-1.45.24-1.15,1.74.2,1.53s2.58-.7,4.25-.07A6.29,6.29,0,0,0,18.81,61.12ZM49.69,59c-1.63,2.35-5.22,4.44-9.95,6.35A5.88,5.88,0,0,1,40.19,68H20.32a5.75,5.75,0,0,1,.45-2.65c-4.73-1.91-8.33-4-10-6.35C7.3,53.91,13,51.78,17.47,52.9s11.92,8.29,12.78,13.48C31.21,61.12,38.5,54,43,52.9S53.21,53.91,49.69,59ZM22.14,63.61a4.86,4.86,0,0,1,1.93-.92c.58-5.55-2.9-7.23-3.41-4.45,0-3.91-2.89-3.63-3.12-2.2.3-3.31-2.43-3.37-3-1.86-.94-1.61-2.62-.71-2.5.37-1.8-.48-2.75,1.47-1.18,2.26-.89,1.55.48,3.1,3.21,2-1.31,1.66.27,3.59,3.09,2.12C16.33,62.85,18.49,64.1,22.14,63.61ZM29,67.07a3.68,3.68,0,0,0-7.35,0Zm9.94,0a3.68,3.68,0,0,0-7.36,0Zm9.53-12.52c.12-1.08-1.56-2-2.5-.37-.54-1.51-3.26-1.45-3,1.86-.22-1.43-3.07-1.71-3.11,2.2-.51-2.78-4-1.1-3.41,4.45a4.92,4.92,0,0,1,1.93.92c3.65.49,5.8-.76,4.94-2.69,2.81,1.47,4.4-.46,3.09-2.12,2.73,1.11,4.1-.44,3.2-2C51.18,56,50.23,54.07,48.43,54.55Zm-15.54-36a13.87,13.87,0,0,1,4,1.76c.63.49.2,1.55-.55,1.14,1,1.09-.69,3.26-2.45,1.94.64,1.14-1.43,2.11-1.93.71,0,1.51-2.85,2.1-3.45.32a1,1,0,0,1-1.8-.77c-1.32.84-2.65-.34-2.06-1.56a1.07,1.07,0,0,1-.89-1.82A6.45,6.45,0,0,1,26,19,10.56,10.56,0,0,1,32.89,18.53Zm-4,.26a1.2,1.2,0,0,0,1.35,1.08c.82,0,1.23-.53,1.12-1.15A4.45,4.45,0,0,0,28.93,18.79Zm-1.8,2.76a5.33,5.33,0,0,1,1.93-1.42L29,20.06a3.09,3.09,0,0,0-2.45.81C25.94,21.48,26.57,22.1,27.13,21.55Zm2.25-1.21-.2-.12a6.15,6.15,0,0,1-1.88,1.55c-.85.59-.21,1.44.71.82A3.61,3.61,0,0,0,29.38,20.34Zm.53.19-.11,0a3.33,3.33,0,0,0-.91,2.41c.16.88,1.14.7,1-.12A4.34,4.34,0,0,1,29.91,20.53Zm1.53,2.61a3.28,3.28,0,0,0-1.22-2.55l-.16,0c.47,1,.12,1.63,0,2.53A.68.68,0,1,0,31.44,23.14Zm1.69-1.66a4.7,4.7,0,0,1-1.81-1l-.07,0-.12,0a3.94,3.94,0,0,0,1.68,1.93C33.78,22.9,34.18,21.91,33.13,21.48Zm1.58-.56a4.58,4.58,0,0,0-2.62-1,2.85,2.85,0,0,1-.32.27c1.23.39,1.46,1.1,2.21,1.66S35.62,21.63,34.71,20.92ZM19.63,39.7h0c-.46-.06-.92-.08-1.39-.12l.58.43C19.1,39.91,19.34,39.8,19.63,39.7ZM15,39.53C9.37,33.6,11.53,23.3,17,18.45,21,14.87,27.75,14,31,9.68c1.18-1.6,2.3-5.28.45-6.72a1.26,1.26,0,0,0-2.07.48,2,2,0,0,0,.33,1.47c1.32,2.26-1.9,3.21-3.48,2-2.25-1.67-1.5-4.78.43-6.08a5.66,5.66,0,0,1,6.48.32c3.07,2.39,2.39,7.57.35,10.5-3.66,5.25-10.53,5-15.12,8.83-5.76,4.86-7.08,13.77-.09,19.06A25.14,25.14,0,0,0,15,39.53ZM29.12,1.14a3.32,3.32,0,0,0-2.51,4.37c.57,1.35,2.45.67,1.76-.71S27.14,2.14,29.12,1.14Zm1.14,63c-2-3.84-5.67-8.46-9.84-10.84,4.61-6.5,15-6.5,19.69,0C35.13,56.71,32.11,60.25,30.26,64.11Zm1.28-5.77A3.55,3.55,0,0,0,31,60.92a4.12,4.12,0,0,1,1.22-2.06C32.71,58.26,32.06,57.7,31.54,58.34Zm2.6-3.68a3.54,3.54,0,0,0-.75,2.53,4.11,4.11,0,0,1,1.4-1.95C35.31,54.68,34.71,54.07,34.14,54.66Zm1.68-.1a4.26,4.26,0,0,1,2-1.57c.69-.41.26-1.2-.48-.77A3.72,3.72,0,0,0,35.82,54.56Zm-.39-3.81a3.78,3.78,0,0,0-1.17,2.55A4.45,4.45,0,0,1,36,51.45C36.66,51,36.12,50.21,35.43,50.75ZM33,53.25a4.93,4.93,0,0,1,1.25-2.6c.5-.77-.33-1.37-.89-.55A4.26,4.26,0,0,0,33,53.25Zm-1.19,1.08A3.5,3.5,0,0,0,31.87,57a4,4,0,0,1,.68-2.3C32.87,54,32.11,53.59,31.76,54.33Zm-.42-1.39a4.87,4.87,0,0,1,.65-2.8c.33-.87-.62-1.27-1-.35A4.27,4.27,0,0,0,31.34,52.94Zm-6.6,1.62a3.76,3.76,0,0,0-1.47-2.34c-.75-.43-1.18.36-.49.77A4.33,4.33,0,0,1,24.74,54.56Zm1.55-1.26a3.77,3.77,0,0,0-1.16-2.55c-.69-.54-1.23.2-.6.7S25.89,52.31,26.29,53.3Zm.87,3.89a3.54,3.54,0,0,0-.75-2.53c-.57-.59-1.17,0-.64.58A4.09,4.09,0,0,1,27.16,57.19Zm.08-7.09c-.55-.82-1.39-.22-.88.55a4.92,4.92,0,0,1,1.24,2.6A4.26,4.26,0,0,0,27.24,50.1ZM28,54.67a4.12,4.12,0,0,1,.69,2.3,3.6,3.6,0,0,0,.11-2.64C28.45,53.59,27.68,54,28,54.67Zm1,3.67c-.52-.64-1.17-.08-.69.52a4.07,4.07,0,0,1,1.23,2.06A3.56,3.56,0,0,0,29,58.34Zm.54-8.55c-.36-.92-1.31-.52-1,.35a5,5,0,0,1,.64,2.8A4.22,4.22,0,0,0,29.55,49.79Zm1,7.32a4.69,4.69,0,0,1,.22-2.71c.2-.86-.75-1.11-1-.2A4,4,0,0,0,30.59,57.11Zm-.44,3.24a2.69,2.69,0,0,0,.51-2c-.14-.63-.79-.45-.66.13A3.11,3.11,0,0,1,30.15,60.35ZM15.77,40.3c-.28-.24-.52-.51-.77-.77A25.07,25.07,0,0,0,3.24,43c-3.12,2-4.47,4.68-1.85,6.46,3.89,2.65,15.88,3,19.39-.06a2.43,2.43,0,0,0,.48-3.38,1.46,1.46,0,0,1-.78,1.83,2.64,2.64,0,0,0-.38-2.64,2.33,2.33,0,0,1-1,2.28,2.19,2.19,0,0,0-.63-2.83,2.64,2.64,0,0,1-1.39,2.83,2.6,2.6,0,0,0,.37-2.17c-.33-.94-1.4-1.06-2.25-.41a3,3,0,0,0-.85,3c-1.88,1.34-7,1-9.2,0-1-.43-1.43-1.15-.17-2.48C7,43.28,11.82,41.21,16.48,41c.56-.28,1.16-.55,1.82-.81Z"/><path class="cls-1" d="M57,68.91A17.29,17.29,0,0,0,61.43,66a6.21,6.21,0,0,0-2.93-3.71,5.31,5.31,0,0,1,3.78,2.86c1.19-1.3,1.93-2.72,1.58-3.93-.21-.74,0-.92.38-.65a4.18,4.18,0,0,1,1.52,1.8,1.36,1.36,0,0,1-.3,1.13,14.51,14.51,0,0,1-2.64,2.84c1.54,4.17.64,11.06-.71,13.91-.49,1-1,1.39-1.73.36s-1.24-3.23-2.54-4c1.72-.35,3.21,2.47,3.73,1.14A19.2,19.2,0,0,0,62.09,71,9.6,9.6,0,0,1,56.34,75c2-1.26,4.64-3.42,5.68-6a16.72,16.72,0,0,0-.28-1.94A9.9,9.9,0,0,1,57,68.91Zm8.68,10.72c.41-3.08,1.06-7.46.81-10.58,0-.39-.09-.76-.13-1.14-.91,1.12-1.82,1.9-2.54,1.93,1.39-1.82,4.74-6.9,4.14-8.73-.25-.73-.14-1.06.38-.92.74.19,1.81,1,1.47,1.84a27.72,27.72,0,0,1-3,5.23l0,0a8.84,8.84,0,0,1,.37.81A4.72,4.72,0,0,1,67.61,70c-.09,3-.23,6.89-.25,10.19,0,2.44-1.88,1.2-1.65-.56ZM78.88,66.77c1.31.18.19-2-1.37-1.65L75,65.66a2.78,2.78,0,0,1,1.07-1.78c.53-.37,1.18-.82.66-1.4a3.48,3.48,0,0,0-1.77-1c-.49-.1-.68-.08-1,.37-.83,1.21-2.67,1-3.84.92,1,1,2.55.87,3.92.48.53-.15.45.29.22.73a5,5,0,0,0-.51,1.93,44.56,44.56,0,0,1-5,.73c-.23,0-.83,0-.35.41a2.31,2.31,0,0,0,.53.31,1.79,1.79,0,0,0,.87.07c2.94-.41,6-1.09,9.09-.66Zm.19,7.35c1.52.18.8-1.69-1-1.33-1.34.27-3,.52-4.6.71.13-.61.21-1.16.29-1.6a.86.86,0,0,0-.41-.91,18.74,18.74,0,0,0,3.07-.48c.34-.08.72-.21.52-.61s-1-1.23-1.45-.9a9.35,9.35,0,0,1-4.44,1.38c.22-.33.42-.66.59-.93a.84.84,0,0,0,.13-.8,2.05,2.05,0,0,0-1-.73c-.26-.07-.5,0-.43.35.33,1.29-1,3.15-1.87,4.28A3.86,3.86,0,0,0,70.6,71c.55,0,1.1,0,1.66,0,0,.08,0,.17,0,.24a13.05,13.05,0,0,1,0,2.34c-1.08.11-2.12.19-3,.21-.42,0-.66,0-1,0s-.55.2-.19.42a2.29,2.29,0,0,0,.67.26,1.74,1.74,0,0,0,.6,0c1-.09,1.94-.21,2.91-.3-.46,3-1.32,5-3.89,6.55,3.32-.7,4-3.22,4.75-5.67.75,1.5,1.67,3,2.54,4.35a2.1,2.1,0,0,0,1.47,1.17,8.93,8.93,0,0,0,3.76-.15c1-.44.21-.86-.39-1-3.14-.51-5-2.58-6.68-5.1a1.38,1.38,0,0,0-.4-.3,30.25,30.25,0,0,1,5.71,0Z"/><path class="cls-2" d="M12.59,71.92H49.85a6.39,6.39,0,0,1,6.37,6.37h0a6.39,6.39,0,0,1-6.37,6.38H12.59a6.39,6.39,0,0,1-6.37-6.38h0a6.39,6.39,0,0,1,6.37-6.37Z"/><path class="cls-3" d="M22.06,79v1.4a.7.7,0,0,1-.15.49.54.54,0,0,1-.4.17.51.51,0,0,1-.39-.17.7.7,0,0,1-.15-.49V78.73c0-.26,0-.47,0-.61a.66.66,0,0,0-.15-.36.46.46,0,0,0-.38-.14.67.67,0,0,0-.68.35,2.5,2.5,0,0,0-.16,1v1.42a.7.7,0,0,1-.15.49.53.53,0,0,1-.78,0,.7.7,0,0,1-.15-.49v-3a.65.65,0,0,1,.13-.45A.48.48,0,0,1,19,76.8a.45.45,0,0,1,.36.14.54.54,0,0,1,.15.4v.1a1.81,1.81,0,0,1,.58-.48,1.6,1.6,0,0,1,.7-.16,1.45,1.45,0,0,1,.68.16,1.35,1.35,0,0,1,.47.48A1.68,1.68,0,0,1,22.5,77a1.5,1.5,0,0,1,.67-.16,1.53,1.53,0,0,1,.74.17,1.11,1.11,0,0,1,.47.49,2.25,2.25,0,0,1,.13.9v2a.7.7,0,0,1-.15.49.53.53,0,0,1-.78,0,.7.7,0,0,1-.16-.49V78.64a4,4,0,0,0,0-.54.71.71,0,0,0-.16-.35.49.49,0,0,0-.38-.13.72.72,0,0,0-.4.12.85.85,0,0,0-.29.33,2.6,2.6,0,0,0-.11.94Zm7.41-.08a2.45,2.45,0,0,1-.15.87,2,2,0,0,1-.42.68,2,2,0,0,1-.66.44,2.41,2.41,0,0,1-.87.15,2.35,2.35,0,0,1-.86-.15,1.94,1.94,0,0,1-1.08-1.12,2.6,2.6,0,0,1,0-1.74,2,2,0,0,1,.42-.68,1.76,1.76,0,0,1,.66-.43,2.57,2.57,0,0,1,1.73,0,1.87,1.87,0,0,1,1.08,1.12,2.39,2.39,0,0,1,.15.86Zm-1.06,0a1.57,1.57,0,0,0-.28-1,.92.92,0,0,0-.76-.36,1,1,0,0,0-.54.16,1,1,0,0,0-.36.47,1.86,1.86,0,0,0-.13.73,1.94,1.94,0,0,0,.12.72,1,1,0,0,0,.36.47.94.94,0,0,0,.55.17.92.92,0,0,0,.76-.36,1.57,1.57,0,0,0,.28-1Zm2.84-1.55v.12a1.86,1.86,0,0,1,.61-.53,1.69,1.69,0,0,1,1.5,0,1.13,1.13,0,0,1,.48.51,1.23,1.23,0,0,1,.14.42,4.17,4.17,0,0,1,0,.56v2a.74.74,0,0,1-.14.48.53.53,0,0,1-.38.16.49.49,0,0,1-.38-.17.68.68,0,0,1-.15-.47V78.68a1.88,1.88,0,0,0-.14-.8.6.6,0,0,0-.58-.27.88.88,0,0,0-.51.16,1,1,0,0,0-.34.47,3.33,3.33,0,0,0-.07.87v1.32a.69.69,0,0,1-.15.48.53.53,0,0,1-.38.16.49.49,0,0,1-.38-.17.68.68,0,0,1-.14-.47v-3a.65.65,0,0,1,.13-.45.45.45,0,0,1,.35-.14.55.55,0,0,1,.26.06.48.48,0,0,1,.17.2.63.63,0,0,1,.07.32Zm6.43,3.21-.93-1.53-.57.54v.84a.68.68,0,0,1-.16.47.54.54,0,0,1-.37.16.5.5,0,0,1-.38-.16.74.74,0,0,1-.14-.48V76a.88.88,0,0,1,.14-.53.41.41,0,0,1,.38-.19.51.51,0,0,1,.39.17.75.75,0,0,1,.14.49v2.55l1.18-1.24a4.19,4.19,0,0,1,.33-.32A.45.45,0,0,1,38,76.8a.44.44,0,0,1,.32.12.42.42,0,0,1,.13.31c0,.16-.14.36-.42.62l-.56.51,1.08,1.7c.08.12.13.22.17.28a.49.49,0,0,1,0,.19.53.53,0,0,1-.14.39.46.46,0,0,1-.36.15A.4.4,0,0,1,38,81a2.18,2.18,0,0,1-.28-.38Zm4.53-1.4H40.15a1.28,1.28,0,0,0,.15.63.93.93,0,0,0,.37.41.91.91,0,0,0,.51.14,1.29,1.29,0,0,0,.35,0,1.35,1.35,0,0,0,.3-.14,1.89,1.89,0,0,0,.27-.2l.32-.3a.37.37,0,0,1,.23-.07.41.41,0,0,1,.26.09A.32.32,0,0,1,43,80a.74.74,0,0,1-.11.34,1.26,1.26,0,0,1-.34.36A1.74,1.74,0,0,1,42,81a2.39,2.39,0,0,1-.79.12,2.07,2.07,0,0,1-1.57-.58,2.17,2.17,0,0,1-.56-1.57,2.43,2.43,0,0,1,.14-.86,1.77,1.77,0,0,1,1.06-1.12,2.31,2.31,0,0,1,.86-.15,2,2,0,0,1,1,.26,1.63,1.63,0,0,1,.66.67,1.7,1.7,0,0,1,.22.84c0,.26-.07.43-.22.51a1.4,1.4,0,0,1-.64.12Zm-2.06-.6h1.91a1.33,1.33,0,0,0-.29-.8.87.87,0,0,0-.67-.27.84.84,0,0,0-.64.27,1.37,1.37,0,0,0-.31.8Zm4.57,2.61.1-.23-1.29-3.26a1.27,1.27,0,0,1-.12-.41.45.45,0,0,1,.07-.25.41.41,0,0,1,.19-.18.45.45,0,0,1,.25-.07.39.39,0,0,1,.34.14,1.3,1.3,0,0,1,.21.41l.89,2.59.84-2.4c.07-.2.13-.35.18-.46a.55.55,0,0,1,.17-.23.6.6,0,0,1,.26,0,.49.49,0,0,1,.23.06.46.46,0,0,1,.23.4,1.65,1.65,0,0,0-.05.21l-.09.27-1.37,3.59a4,4,0,0,1-.35.74,1,1,0,0,1-.45.41,1.56,1.56,0,0,1-.75.15,1.73,1.73,0,0,1-.69-.1.41.41,0,0,1-.12-.65.49.49,0,0,1,.32-.09.5.5,0,0,1,.17,0l.17,0a.76.76,0,0,0,.29,0,.47.47,0,0,0,.18-.19,2.37,2.37,0,0,0,.19-.39Z"/></g></g></svg>