<svg xmlns="http://www.w3.org/2000/svg" viewBox="0 0 95.05 74.69"><defs><style>.cls-1,.cls-2{fill-rule:evenodd;}.cls-2{fill:#c6262f;}.cls-3{fill:#fff;}</style></defs><title>Asset 457</title><g id="Layer_2" data-name="Layer 2"><g id="Layer_1-2" data-name="Layer 1"><path class="cls-1" d="M88.83,32.42c1.22-.62,1.2.66.18,1a11.83,11.83,0,0,1-3.94.57c-.08.81-.12,1.64-.24,2.44a27.59,27.59,0,0,0,5.36-1.3c.42-.15.81-.23,1.14.09a6.6,6.6,0,0,1,.72,1,4.91,4.91,0,0,1,.48.71c.27.8-2.06.79-2.7,1.83-.19-.72.22-1.24.39-1.9.08-.31,0-.62-.63-.41a42.81,42.81,0,0,1-5.68.93,2.4,2.4,0,0,1,.75.5c.29.32,0,.37-.1.85s-.12,1-.14,1.46a31.61,31.61,0,0,0,3.74-1.44c.5-.24.64.64.32.77A35.45,35.45,0,0,1,84.41,41a1.31,1.31,0,0,0,.93,1.67,7.75,7.75,0,0,0,4.17-.22c.94-.3-.32-1.44.88-2.67-.1,1,.35,1.37.64,2.2a1,1,0,0,1-.51,1.36,11.54,11.54,0,0,1-5.86.33,1.33,1.33,0,0,1-1.31-1.3,5.53,5.53,0,0,1-.06-1.07l-2.42.6c-.87.21-.74-.25-.12-.45.84-.26,1.71-.52,2.58-.8a8,8,0,0,0,0-2.63,1.1,1.1,0,0,1,0-.45,32.62,32.62,0,0,1-3.72.22v.06c-.11,3.69.32,13.71-7.27,15.41,4.53-2.34,6.44-9.26,5-16.06-.08-.33-.23-.87.32-.89s1.61.14,1.9,1c1.2-.14,2.77-.37,4.35-.62,0-1.48.51-4-.71-5.22-.5-.49-.56-1.21.29-1a5.26,5.26,0,0,1,1.7.7c.46.32.1,1.69.07,2.34a9.22,9.22,0,0,0,3.69-1ZM83.56,45.88a2.72,2.72,0,0,0,2.11-.83c.23-.33.35-.47.71-.4a3.39,3.39,0,0,1,1.58.72c.39.42-.12.81-.37,1.12A4.79,4.79,0,0,0,87,50.8c.55,1.46,4.23,1.5,6,.67,1-.46-.17-2.67,1.17-4.46a7.29,7.29,0,0,0,.74,4c.41,1.09-.2,1.83-1.37,2-1.68.22-5.48.56-7.09-.5a2.76,2.76,0,0,1-1-1.93A8.34,8.34,0,0,1,86,46.65c.12-.33.11-.61-.28-.51a8.45,8.45,0,0,1-2.08.28c-.27,2.18-1.91,7-6.57,6.79a6.7,6.7,0,0,0,4.79-7.72c0-.16-.09-.51.26-.52a1.68,1.68,0,0,1,1.46.91Z"/><path d="M36.66,41.38a5.43,5.43,0,0,0,0,3.24c.12,1-1,1.22-1.17.12A4.78,4.78,0,0,1,36.66,41.38Zm2.94,3.8c.15,1.12,1.31.93,1.19-.11a5.56,5.56,0,0,1,.05-3.3A4.85,4.85,0,0,0,39.6,45.18ZM25.47,36.29a4.75,4.75,0,0,1-.93-2.6,4.09,4.09,0,0,0,0,3C25,37.57,25.88,37.08,25.47,36.29ZM40.58,50c.07-1.23-.13-2.34.72-3.66a5.53,5.53,0,0,0-2.07,3.55C39.17,51.17,40.51,51.19,40.58,50ZM70.1,36.67a6.93,6.93,0,0,0-.53-4.86c.28,1.84-.43,2.95-.92,4.33S69.58,38.09,70.1,36.67ZM31.78,41.16c0,.82.86.79.87,0A4,4,0,0,1,33,38.82,3.55,3.55,0,0,0,31.78,41.16Zm1,4.17a4.87,4.87,0,0,0,1.05,3.47c.79.81,1.61,0,.88-.8A5.71,5.71,0,0,1,32.79,45.33Zm5.5,3.82c-.93-.81-1.93-1.34-2.45-2.82a5.53,5.53,0,0,0,1.53,3.82C38.35,51,39.19,49.94,38.29,49.15Zm12.26-2.34c.45.58,1.05.09.63-.46a3.6,3.6,0,0,1-1.06-1.87A3.17,3.17,0,0,0,50.55,46.81Zm-1.78-.47c.27.91,1.22.6,1-.26a4.76,4.76,0,0,1-.39-2.75A4.1,4.1,0,0,0,48.77,46.34ZM18.19,26.06a1.39,1.39,0,0,1,1.12,2.55c2.34-.14,1.81,3.39-.07,3.41,1.34.83.52,3.26-1,2.7a1.68,1.68,0,0,1-2.6,2.13c.85,1.86-1.79,2.14-2,1C13.14,40.76,8.6,39.56,9.1,37c-1.48,1.46-3.59.17-2.58-1.17C4,37,2.39,33.32,4.29,32.06a1.84,1.84,0,1,1,.51-3.65C2.6,27,4.67,23.67,7,24.82c-.94-1.34,1-3,2.37-1.53-.57-2.18,4-2.94,4.38-.27.21-1.1,2.47-.86,1.82.74A1.76,1.76,0,0,1,18.19,26.06Zm-2.54,1c-.67.85-.77,1.48-1.6,2l.35.29a3.23,3.23,0,0,0,2.35-1.69C17.1,26.87,16.22,26.38,15.65,27.1Zm-3.51-1.64a9.18,9.18,0,0,1,.36,3l.26.05a5.23,5.23,0,0,0,.64-3.28C13.12,23.94,11.88,24.24,12.14,25.46Zm-1.86-.71a6,6,0,0,0,1.5,3.67h.34a9.27,9.27,0,0,1-.31-3.67C11.88,23.34,10.32,23.23,10.28,24.75Zm-2.22,2.5a9.62,9.62,0,0,1,2.38,1.42l.37-.11a5.14,5.14,0,0,0-2-2.28C7.58,25.68,7,26.68,8.06,27.25Zm-2.58,3A3,3,0,0,0,8.43,31a2.42,2.42,0,0,1,.13-.53,2.78,2.78,0,0,1-2.25-1.06C5.8,28.77,4.76,29.53,5.48,30.26Zm1.29,3.18c.57-.44.84-1,1.72-1.51a2.32,2.32,0,0,1-.06-.38,3.06,3.06,0,0,0-2.82,1C4.94,33.46,5.73,34.26,6.77,33.44Zm2.79,0a2.88,2.88,0,0,1-.67-.68l-1.25.58c-1.19.57-.52,1.57.76,1A3.76,3.76,0,0,0,9.56,33.46Zm.14-4.4c-1.25-.45-1.42-1.27-2.24-1.94-1-.81-1.93,0-1.3.93a4.6,4.6,0,0,0,2.95,1.52A3.23,3.23,0,0,1,9.7,29.06Zm1.94,6.79c0-.57,0-1.12,0-1.66A4.2,4.2,0,0,1,10.46,34,4.28,4.28,0,0,0,10,35.86C10.05,37.39,11.72,37.27,11.64,35.85Zm.47-3.45a1.18,1.18,0,0,0,1.25-1.08,1,1,0,0,0-.23-.63,1.46,1.46,0,0,0-1.46-.38,1.09,1.09,0,0,0-.81,1A1.18,1.18,0,0,0,12.11,32.4Zm1.23,1.51a4.08,4.08,0,0,1-1.12.27c-.07.32-.15.63-.23,1-.27,1.23,1,1.53,1.35.22A3.42,3.42,0,0,0,13.34,33.91Zm.23-5.1a11.26,11.26,0,0,1,2-2.21c1-1-.09-2.07-1.11-1.05a5.42,5.42,0,0,0-1.34,3.08A2.65,2.65,0,0,1,13.57,28.81ZM15.69,34c-.36-.34-.73-.64-1.09-1a3.37,3.37,0,0,1-1,.75,4,4,0,0,0,.89,1.27C15.6,36.08,16.7,35,15.69,34Zm1.7-2.35a20.58,20.58,0,0,0-2.1-.31A2.4,2.4,0,0,1,15,32.5a3.87,3.87,0,0,0,1.44,1C17.92,34,18.54,32.05,17.39,31.66Zm-.11-2.5a2.37,2.37,0,0,1-2.19,1.17,2.48,2.48,0,0,1,.17.59A3,3,0,0,0,18.11,30C18.72,29.28,17.71,28.52,17.28,29.16ZM41.81,47.1a4.9,4.9,0,0,0,.25,3.63c.59,1,1.58.31,1-.59A5.66,5.66,0,0,1,41.81,47.1Zm2.65,1.31A3.27,3.27,0,0,1,43.21,47,2.84,2.84,0,0,0,44,48.92C44.49,49.34,44.92,48.81,44.46,48.41Zm-1.08-2.83c-.24,1.11.92,1.32,1.15.29a5.65,5.65,0,0,1,1.18-3.08A4.87,4.87,0,0,0,43.38,45.58Zm2.81,1.52A4.66,4.66,0,0,1,46,44.35a4.08,4.08,0,0,0-.77,2.94C45.41,48.21,46.37,48,46.19,47.1Zm-2.36,5.18-.37-.06c.73-2.89,3-5,5.63-5,3.25,0,5.9,3.14,5.9,7,0,.25,0,.49,0,.73h-2.6l-.2.52-.4,1-.4-1-.2-.52H49.56l-.2.52-.4,1-.4-1L48.35,55H46.82l-.2.52-.4,1-.4-1-.2-.52h-2.4c0-.24,0-.48,0-.73a9,9,0,0,1,.11-1.38l.37,0,.61,0v-.5Zm6.54,2.39H51L51,54.44h1.6l-.08.23h.68l-.7-1.6-.69-1.6-.7,1.6Zm-2.79,0h.66l-.09-.23h1.61l-.09.23h.69l-.7-1.6L49,51.47l-.7,1.6Zm-2.8,0h.73l-.09-.23H47l-.09.23h.62l-.7-1.6-.69-1.6-.7,1.6ZM25.42,28.11a3.18,3.18,0,0,1,1.22-1.46,2.85,2.85,0,0,0-1.8,1.08C24.5,28.29,25.09,28.63,25.42,28.11ZM23.2,23.47c.06.52.6.44.55,0a2.65,2.65,0,0,1,.05-1.52A2.28,2.28,0,0,0,23.2,23.47Zm8.6,22.76c-1-.78-2-1.27-2.55-2.74a5.55,5.55,0,0,0,1.67,3.77C31.93,48.05,32.73,47,31.8,46.23Zm-10-24.18c.06.52.6.44.55,0a2.65,2.65,0,0,1,.05-1.52A2.26,2.26,0,0,0,21.84,22.05Zm-1.28-1.62a2.29,2.29,0,0,1,.3-1.28,1.94,1.94,0,0,0-.78,1.23C20.05,20.83,20.52,20.85,20.56,20.43ZM29.77,37a5.69,5.69,0,0,1,1.36-3,4.87,4.87,0,0,0-2.49,2.64C28.33,37.74,29.47,38,29.77,37ZM64.09,51.64l.76-.26a8,8,0,0,1,.52,2.85c0,.25,0,.49,0,.73H63.89l-.2.52-.41,1-.4-1-.2-.52H61.1l-.2.52-.41,1-.4-1-.2-.52H58.36l-.2.52-.4,1-.4-1L57.15,55H55.8c0-.24,0-.48,0-.73A7.92,7.92,0,0,0,54.7,50.1a5.66,5.66,0,0,1,4.77-2.89,5.8,5.8,0,0,1,5.11,3.57c-.18.09-.36.19-.55.27Zm-5,3-.7-1.6-.69-1.6-.7,1.6-.69,1.6H57L57,54.44h1.61l-.09.23Zm2.79,0-.69-1.6-.7-1.6-.69,1.6-.7,1.6h.67l-.09-.23H61.3l-.09.23Zm2.79,0L64,53.07l-.7-1.6-.69,1.6-.7,1.6h.67l-.09-.23h1.61l-.09.23Zm-38-16a5.43,5.43,0,0,1,0-3.24,4.79,4.79,0,0,0-1.21,3.36C25.69,39.86,26.83,39.67,26.71,38.64Zm.08-4.92a3.21,3.21,0,0,1,.35-1.87,2.79,2.79,0,0,0-1,1.82C26.08,34.32,26.76,34.33,26.79,33.72ZM24.27,40.3c.62,1,1.59.29,1-.61a5.64,5.64,0,0,1-1.36-3A4.86,4.86,0,0,0,24.27,40.3Zm-.39-15.45c-.23.61.41.83.64.26a3.22,3.22,0,0,1,.93-1.65A2.82,2.82,0,0,0,23.88,24.85Zm5.39,16.92A4,4,0,0,1,27.71,40a3.47,3.47,0,0,0,1,2.44C29.31,42.94,29.85,42.28,29.27,41.77ZM61.08,22.71a3.23,3.23,0,0,0-1.65,1.74,3.68,3.68,0,0,1,1.93-1C62,23.21,61.78,22.47,61.08,22.71ZM19.9,39.83c7.06,8.1,14.82,12.67,23.4,13,0-.22.11-.42.16-.63-8.31-1.32-15.95-4.68-21.39-14.65A12.22,12.22,0,0,1,19.9,39.83Zm8.36,3c-.93-.81-1.92-1.33-2.45-2.81a5.54,5.54,0,0,0,1.54,3.81C28.33,44.64,29.16,43.6,28.26,42.81Zm10.37,4.66a4.14,4.14,0,0,1-1.57-1.81,3.54,3.54,0,0,0,1,2.45C38.67,48.64,39.21,48,38.63,47.47ZM54,45.08a4.29,4.29,0,0,0,1.9,2.53c.89.42,1.31-.52.48-.93A4.79,4.79,0,0,1,54,45.08Zm-.71,3.39c.87,1.2,2.09.26,1.29-.87s-1.8-2-2-3.82A6.39,6.39,0,0,0,53.27,48.47Zm16-8.32c-.18,1.61,1.25,1.72,1.43.22s.07-3,1.09-4.58A7.45,7.45,0,0,0,69.23,40.15ZM59,45.28c-.94-.93-2-1.56-2.44-3.18a5.9,5.9,0,0,0,1.4,4.19C58.94,47.25,59.9,46.18,59,45.28ZM74.09,31c1.72,2.31,1.72,5.06,1.22,7.92a5.84,5.84,0,0,0-2.07-4.1c2.73,7.66-.8,14-8.39,16.56a4.59,4.59,0,0,0-.27-.6c7-3.29,10.8-11.13,5.78-18.73A4.88,4.88,0,0,1,74,33.68c-.49-2.93-2.69-3.72-2.85-6.2a1.31,1.31,0,0,0,1.06.38,6,6,0,0,1-.48-2.32c0-2.22.37-4.89-6.06-8.8a4.81,4.81,0,0,1-3.82-.1,6.07,6.07,0,0,0,3.1-.28c.82-.44.58-.92-.85-.61,1.88-.53,1.25-1.85.08-1.19a10.18,10.18,0,0,1-2.94,1.54A12.12,12.12,0,0,0,63,14.72c.71-.78.19-1.05-.29-.75-.93.58-1.52,1.74-3.58,2.31A3.28,3.28,0,0,0,60.44,14c-2.32,1.76-5.75,1.35-8.21,3.11-3.15,2.25.52,4.14-1.08,6.49,0-1.92-1.51-1.36-2.26-2,.16.9,1.57,1.24.48,2.7a1.82,1.82,0,0,0-2.14-1.67,1.62,1.62,0,0,1,.6,2,2.26,2.26,0,0,0-1.25-1.2c-.66-.25-.74.08-.7.64,0,.71.3,1.8-.24,2.53,3.14,1.28,4.43-1.77,7-2.41,3-.76,5,1.84,4.09,4.11C56,30,53.84,30.89,52,31.1a11.79,11.79,0,0,0-3.56.72c.64.38.15,1.64,1.52,1.18,2.65-.9,3.93-1.63,6.79-1A5,5,0,0,0,60.07,32c3.49-1.39,5.16-6.36,1-10.23A7.93,7.93,0,0,1,65.65,31a6.17,6.17,0,0,0-.59-7.67,5.78,5.78,0,0,1,3.27,5.85c1.17-2,.46-4.71-1.2-5.49a2.9,2.9,0,0,1,2.86,2A6.47,6.47,0,0,0,69.05,22c6.08,5.29-1.34,14.25-9.7,11.91,1.44.92,1.17,3.21,2.55,4.2.76.54,1.94.65,2.73-1-.13,4-4,3.32-5.28,1.61-.78,3.09-.06,5.08,3.11,5.3-3,.33-5-.78-5.83-3.49-1.4,1.5-1.61,3.22-.08,5.27-2-.59-3.42-1.77-3.26-4.41a4.71,4.71,0,0,0-1.15,5.51,5.32,5.32,0,0,1-1.82-4.84c-2.1,1.29-2.91,2.9-2.43,4.81-1.72-1.27-2.19-3-.64-5.56C43.52,42.73,42,45,42.7,48a8.84,8.84,0,0,1-1-7.92,7.52,7.52,0,0,0-3.17,6.51c-1.33-2.61-1.94-5.15-.41-7.49-3.38,2.48-4.28,5.55-2.48,9.25-4.06-4.09-3.39-8.14-.46-12.17-3.94,1.84-4.41,5-3.09,8.92-3.87-4.34-3.16-8.61,1.33-12.81-4.4,1-5.85,3.83-5.09,7.92-1.72-4-2-7.87,2.07-11.56-4.07,1.52-5.24,3.94-4.71,6.89-2-4.36-1.08-7.63,3.07-9.63-1.46-.12-2.85,0-3.86,1.3-.56-1.9.39-3.9,2.48-4a2.43,2.43,0,0,0-3.17.67,2.07,2.07,0,0,1,.89-2.69,1.68,1.68,0,0,0-1.94,1.1,1.49,1.49,0,0,1,.29-2.38c-1,0-1.65.35-1.9,1.12a1.29,1.29,0,0,1,.2-2.07,2.87,2.87,0,0,0-2.85,1.11,12.09,12.09,0,0,0-6.67-2,12.29,12.29,0,0,0-4.43.84c-1.19-1.23-3.38-2.08-4.92-4A8,8,0,0,1,.93,8.72C1.5,4.54,5.28,1.23,9.78.35,19.2-1.51,28.54,4.49,36.16,9c4.28,2.56,6.73,1.48,9.59-1.8C49,3.48,54,6.4,52,10.86,49.28,17,41.25,17,36.22,14.6,28.6,11,22,2.81,12.45,4.63c-5.37,1-7.35,7.48-2.06,9.77C13,15.53,16.84,15.59,20.75,17a17,17,0,0,1,8.05,5.44,32.33,32.33,0,0,1,1.9,2.77c2,3.24,3.62,6.69,6.51,9.44,4.35,4.13,14.24,8.26,19.57,4.33,2.32-1.72,2.38-4.53-.09-6-2.09-1.26-4.25-.22-6.23.66-.8.35-1.64.38-2-.6a2.12,2.12,0,0,0-.57-1.11,1.24,1.24,0,0,1-.34-2.31c1,1.71,4.3,1.42,5.34.05a2.09,2.09,0,0,0-1.58-3.47c-1.47,0-2.13,1.26-3.28.93a1.66,1.66,0,0,0-.53,2.21c-2.21-.76-1.45-1.73-2.17-2.6-1.76.68-2.73-2.05-1.48-3.48s4.15-2.54,5.74-3.12c-.69-3.53,4.24-5.74,7.58-6,1.38-.13,2.75-.27,3.61-2a2.51,2.51,0,0,1,.51,2.32,6.09,6.09,0,0,1,4.29-2.58c1.69-.09,3.17,1.26,2.39,3.06a3.4,3.4,0,0,1-1.68,1.6,12.78,12.78,0,0,1,5.82,5.29c1.17,2.2.74,4.61,1.52,6.66.64,1.66,2.07,2.06,3.76,1.73A2.77,2.77,0,0,1,74.09,31ZM48.27,13.75c1.62-.77,3.5-3.31,2.4-5.89-.88-2.09-2.89-.91-1.82.64A4,4,0,0,1,48.27,13.75Zm-6.78,1.5c3.32.35,7.42-1.56,6.36-5.76-.56-2.25-2.84-1-2.14.46C46.68,12,45.68,15,41.49,15.25Zm-4.61-1.18c2.92.67,5.68-.22,6.79-1.36,1.35-1.4-.33-2.37-1.28-1.31A6.61,6.61,0,0,1,36.88,14.07Zm-3.07-1.83a6.23,6.23,0,0,0,4.64.32c1.33-.58.69-1.94-.56-1.42S35.58,12.44,33.81,12.24Zm.87-2.68c-1.36.33-2.49.9-4.2.41A6.24,6.24,0,0,0,35,11.06C36.41,10.7,36,9.25,34.68,9.56ZM27.11,7.73c1.78-.08,2.75.74,4,1.37s1.94-.71.65-1.38A6.23,6.23,0,0,0,27.11,7.73ZM23.18,5.68c1.74-.38,2.83.26,4.17.67s1.79-1,.41-1.47A6.25,6.25,0,0,0,23.18,5.68ZM19.29,4.32c1.69-.56,2.85,0,4.22.23s1.68-1.22.26-1.51A6.3,6.3,0,0,0,19.29,4.32Zm-.93-2.56c-1.13.83-1.95,1.8-3.72,2A6.24,6.24,0,0,0,19.23,3C20.39,2.14,19.45,1,18.36,1.76ZM11.55,4.41a6.26,6.26,0,0,0,4-2.31c.78-1.22-.51-2-1.26-.87S13.13,3.59,11.55,4.41ZM9,5.56A6.42,6.42,0,0,0,12,1.86C12.31.4,10.77.13,10.47,1.49S10.18,4.2,9,5.56Zm-2,1.88c.1-2,1.12-3,2-4.31S8.31.88,7.42,2.24A7,7,0,0,0,6.93,7.44Zm0,4.67C4.69,10.17,5.54,8,6,5.71S4,3.09,3.59,5.39,4.48,11.11,6.94,12.11Zm3,3.08a7.51,7.51,0,0,1-2.66-2.28C4.47,12.24,3,10.7,2.42,8.63,2.54,13.27,6,14.52,10,15.19Zm45.6,13.18a2.26,2.26,0,0,0-1.48.77,2.53,2.53,0,0,1,1.5-.22C56.06,28.91,56.07,28.37,55.55,28.37Zm.31-1.53A2.82,2.82,0,0,0,54.08,28a3.29,3.29,0,0,1,1.88-.5C56.59,27.46,56.53,26.77,55.86,26.84Zm-.28-1.29A3.16,3.16,0,0,0,53.74,27a3.68,3.68,0,0,1,2-.7C56.42,26.16,56.3,25.41,55.58,25.55Zm-2.32.54a3.32,3.32,0,0,1,1.67-.8c.58-.19.38-.78-.24-.59A2.67,2.67,0,0,0,53.26,26.09Zm-1.48-.36A3.09,3.09,0,0,1,53.35,25c.53-.17.34-.72-.23-.54A2.46,2.46,0,0,0,51.78,25.73Zm19,18.39a6,6,0,0,0,.65-4.42c-.18,1.7-1.09,2.5-1.87,3.6S70,45.24,70.81,44.12ZM65.5,49.39c1.88-.51,3.87-2.56,3.79-4.69-.67,2.29-2.56,2.41-4.37,2.81S63.7,49.88,65.5,49.39Zm-.17-4.65c-1.21.78-.4,2.18.91,1.36a6.64,6.64,0,0,0,2.51-4.28C67.87,43.49,66.58,43.94,65.33,44.74Zm-1.18.14a5.57,5.57,0,0,0-.66-4.1c.32,1.56-.27,2.53-.65,3.72S63.75,46.11,64.15,44.88Zm1.9-7.8c.33,1.1,1.46.73,1.17-.3a5.64,5.64,0,0,1-.47-3.29A4.9,4.9,0,0,0,66.05,37.08Zm2.32-1.42a4.07,4.07,0,0,0-.58-3,4.74,4.74,0,0,1-.39,2.74C67.16,36.26,68.1,36.57,68.37,35.66Zm-.12,5.59a5.55,5.55,0,0,0-.42-4.13c.23,1.57-.41,2.51-.86,3.67S67.77,42.46,68.25,41.25ZM62.36,42a5.58,5.58,0,0,1-2.6-2,4.86,4.86,0,0,0,2,3C62.74,43.58,63.28,42.53,62.36,42Zm2.28.25c.43,1.45,1.94,1,1.55-.4s-1-2.56-.62-4.37A6.54,6.54,0,0,0,64.64,42.27Zm.7-6.5a4.91,4.91,0,0,0-3.48-1.13,5.67,5.67,0,0,1,2.65,2C65.27,37.4,66.14,36.59,65.34,35.77Zm-4.14-.93a4,4,0,0,0,1.3,2.63c.74.53,1.27-.25.59-.76S61.65,35.87,61.2,34.84Zm11.27-3.59c-.6-.45-1.22-.72-1.61-1.59A3.43,3.43,0,0,0,72,31.9C72.59,32.36,73.05,31.69,72.47,31.25ZM62.11,28.63a4.48,4.48,0,0,0-3.06.25,5,5,0,0,1,2.7.62C62.58,29.8,63,29,62.11,28.63Zm-8.26-8.9c-1.35,1.18-.07,2.55,1.2,1.46s2.22-2.4,4.38-2.83A7.72,7.72,0,0,0,53.85,19.73ZM61.3,30.07a3.79,3.79,0,0,0-2.8-.37,4.29,4.29,0,0,1,2.29,1.14C61.47,31.3,62,30.57,61.3,30.07Zm.9-4.65a4.81,4.81,0,0,0-2.75,1.64,5.73,5.73,0,0,1,2.85-.71C63.23,26.23,63.2,25.31,62.2,25.42Zm-.49-1.51a3.78,3.78,0,0,0-2.21,1.75,4.27,4.27,0,0,1,2.41-.84C62.72,24.66,62.58,23.75,61.71,23.91Zm-2.39,7.7c.59.57,1.26-.06.63-.68a3.79,3.79,0,0,0-2.69-.82A4.32,4.32,0,0,1,59.32,31.61Zm3.17-4.46A4.76,4.76,0,0,0,59.4,28a5.7,5.7,0,0,1,2.94,0C63.27,28.19,63.48,27.3,62.49,27.15Zm-4.83,4.73c.55.53,1.18-.06.59-.64a3.5,3.5,0,0,0-2.53-.77A4,4,0,0,1,57.66,31.88Zm8.93-10.1A5.3,5.3,0,0,0,63.84,19c1.1,1,1.17,2.11,1.53,3.23S66.94,23,66.59,21.78Zm-2.19,0a5.29,5.29,0,0,0-1.55-3.62c.65,1.36.34,2.38.26,3.56S64.3,23.05,64.4,21.83ZM18.56,20.49a4.78,4.78,0,0,1,.34-.42,12.19,12.19,0,0,1,3.17,17.5c-.09-.17-.19-.34-.29-.51l-2.23,2.38c.11.14.23.25.35.39a12.3,12.3,0,0,1-1,.74c-1.69,1.1-4.46,1.62-5.64,3.29-1.31,1.85.14,3.29,2.18,3a4.65,4.65,0,0,1,4.63-3.18c3.72,0,5.8,3.67,5.28,7h-2.3l-.31.81-.32-.81h-2l-.31.81-.31-.81H17.91l-.31.81-.32-.81h-10c-2.58-1.15-1.45-2.28-.54-3.48C8.29,45.11,7.92,42.92,6,41,2.72,37.82,0,35.44,0,30.31A12.23,12.23,0,0,1,7.8,18.92a5,5,0,0,1,.42.52l4-.26Zm2.89,29.26h.62L22,49.54h1.5l-.09.21H24l-.65-1.49-.65-1.49-.64,1.49Zm-2.59,0h.61l-.08-.21h1.5l-.08.21h.63l-.64-1.49-.65-1.49-.65,1.49Zm-2.61,0h.68l-.08-.21h1.49l-.08.21h.58l-.65-1.49-.64-1.49-.65,1.49Zm1.56-26.44-.4-1.23-1.21.69-.36-1.57-1.45.54-.49-1.13-.93.57-.72-.8-.78.7-1.24-.59L9.17,21.8l-1.09-.54L7.71,22.4,6,22.38,6.19,24l-1.75-.11-.16,1.2-.77.1.13,1.85-1.44,0,1,1-1.06.68.23.89-.59.67.67.43L2,31.59l1.14.67-.78,1.06.89.49-.34.81.81.45-.14,1,1.55.07-.2,1.45,1.43-.38.07,1.53,1.89-.44.41,1.45L10,39.42l.93.88L12,39.79l.89.62.83-1,1,.63.56-.84,1.1.36L16.88,38l1.77.09.16-1.42,1.06-.14-.75-1.32,1.7-.09-.44-1.29,1.17-.7-1.14-1L22,31.46l-.77-.88.92-.78-1-.58.44-.84-1-.07.71-1.2-.9-.49.49-1.33-1.92,0,0-1.92Zm50.25-3a5.33,5.33,0,0,0-3.62-1.54c1.4.53,1.89,1.49,2.65,2.39S68.83,21.24,68.06,20.3Zm-5.6,27.2c1.22.42,1.63-.87.49-1.28s-2.31-.54-3.35-1.74A5.6,5.6,0,0,0,62.46,47.5ZM56.13,31.73c.36.34.76,0,.38-.42a2.27,2.27,0,0,0-1.63-.5A2.67,2.67,0,0,1,56.13,31.73ZM67,17.8a4.61,4.61,0,0,0-3.48.1,5.41,5.41,0,0,1,3,.94C67.41,19.28,67.93,18.27,67,17.8Z"/><path class="cls-2" d="M14.58,61.94H51.84a6.4,6.4,0,0,1,6.38,6.37h0a6.4,6.4,0,0,1-6.38,6.38H14.58a6.4,6.4,0,0,1-6.37-6.38h0a6.39,6.39,0,0,1,6.37-6.37Z"/><path class="cls-3" d="M26.36,66.6h.11V66a3.68,3.68,0,0,1,0-.39.61.61,0,0,1,.07-.25.52.52,0,0,1,.18-.18.55.55,0,0,1,.26-.06.53.53,0,0,1,.36.15.41.41,0,0,1,.13.24,2.15,2.15,0,0,1,0,.41v.72h.39a.49.49,0,0,1,.34.1.33.33,0,0,1,.11.27.31.31,0,0,1-.16.3,1.19,1.19,0,0,1-.48.08h-.2v1.93a3.47,3.47,0,0,0,0,.38.34.34,0,0,0,.09.21.3.3,0,0,0,.25.09,1,1,0,0,0,.25,0l.24,0a.34.34,0,0,1,.23.1.34.34,0,0,1,.1.26.42.42,0,0,1-.27.38,1.88,1.88,0,0,1-.8.14,1.39,1.39,0,0,1-.75-.17.78.78,0,0,1-.33-.46,3.13,3.13,0,0,1-.08-.77v-2h-.13a.46.46,0,0,1-.35-.11.36.36,0,0,1,0-.54.58.58,0,0,1,.37-.1Zm3.78.5v3a.69.69,0,0,1-.15.48.53.53,0,0,1-.38.16.49.49,0,0,1-.38-.17.68.68,0,0,1-.14-.47v-3a.65.65,0,0,1,.14-.47.48.48,0,0,1,.38-.16.49.49,0,0,1,.38.16.6.6,0,0,1,.15.44ZM29.62,66a.57.57,0,0,1-.38-.13.49.49,0,0,1-.15-.38.47.47,0,0,1,.16-.37.56.56,0,0,1,.73,0,.48.48,0,0,1,.16.38.5.5,0,0,1-.16.38.52.52,0,0,1-.36.13Zm5.46,1.26v3a3,3,0,0,1-.12.9,1.4,1.4,0,0,1-.35.62,1.47,1.47,0,0,1-.65.36,3.43,3.43,0,0,1-1,.12,2.85,2.85,0,0,1-1-.15,1.61,1.61,0,0,1-.66-.39.72.72,0,0,1-.23-.49.41.41,0,0,1,.13-.32.45.45,0,0,1,.31-.12.52.52,0,0,1,.41.21l.17.21a1.06,1.06,0,0,0,.2.17,1,1,0,0,0,.27.12,1.83,1.83,0,0,0,.35,0,1.37,1.37,0,0,0,.63-.11.66.66,0,0,0,.32-.32,1.23,1.23,0,0,0,.1-.43c0-.16,0-.41,0-.75a1.65,1.65,0,0,1-.55.51,1.55,1.55,0,0,1-.76.18,1.58,1.58,0,0,1-.92-.27,1.73,1.73,0,0,1-.6-.75A2.63,2.63,0,0,1,31,68.53a2.81,2.81,0,0,1,.13-.85,1.74,1.74,0,0,1,.37-.64,1.53,1.53,0,0,1,.55-.4,1.68,1.68,0,0,1,.68-.13,1.65,1.65,0,0,1,.77.17,1.7,1.7,0,0,1,.61.54v-.15a.61.61,0,0,1,.14-.42.43.43,0,0,1,.34-.15.42.42,0,0,1,.41.2,1.39,1.39,0,0,1,.1.57ZM32,68.6a1.45,1.45,0,0,0,.27,1,.92.92,0,0,0,.73.33,1,1,0,0,0,.49-.14,1,1,0,0,0,.38-.42,1.47,1.47,0,0,0,.14-.69,1.57,1.57,0,0,0-.28-1,.91.91,0,0,0-.74-.35.86.86,0,0,0-.72.34,1.53,1.53,0,0,0-.27,1Zm6.83.29h-2a1.39,1.39,0,0,0,.14.63,1.06,1.06,0,0,0,.37.41,1,1,0,0,0,.52.14,1.22,1.22,0,0,0,.34,0,1.17,1.17,0,0,0,.3-.14,1.89,1.89,0,0,0,.27-.2l.32-.29a.32.32,0,0,1,.23-.07.36.36,0,0,1,.26.09.28.28,0,0,1,.1.24.74.74,0,0,1-.11.34,1.14,1.14,0,0,1-.34.36,1.64,1.64,0,0,1-.56.29,2.37,2.37,0,0,1-.78.12,2.05,2.05,0,0,1-1.57-.58,2.12,2.12,0,0,1-.57-1.56,2.74,2.74,0,0,1,.14-.87,2,2,0,0,1,.41-.68,1.65,1.65,0,0,1,.65-.43,2.2,2.2,0,0,1,.86-.16,2.11,2.11,0,0,1,1.06.26,1.84,1.84,0,0,1,.66.67,1.86,1.86,0,0,1,.21.84c0,.27-.07.44-.22.51a1.4,1.4,0,0,1-.64.12Zm-2-.59h1.9a1.3,1.3,0,0,0-.29-.81.87.87,0,0,0-.66-.27.88.88,0,0,0-.65.27,1.4,1.4,0,0,0-.3.81Zm4.84,1v.88a.69.69,0,0,1-.15.48.53.53,0,0,1-.76,0,.74.74,0,0,1-.14-.48V67.21c0-.47.17-.71.51-.71a.43.43,0,0,1,.38.17.89.89,0,0,1,.12.48,2,2,0,0,1,.39-.48.8.8,0,0,1,.53-.17,1.36,1.36,0,0,1,.64.17.48.48,0,0,1,.31.44.4.4,0,0,1-.13.31.41.41,0,0,1-.29.13,2.08,2.08,0,0,1-.28-.07,1.18,1.18,0,0,0-.39-.08.51.51,0,0,0-.37.13.74.74,0,0,0-.23.35,2.75,2.75,0,0,0-.11.57c0,.22,0,.49,0,.8Z"/></g></g></svg>