<svg xmlns="http://www.w3.org/2000/svg" viewBox="0 0 103.53 104.91"><defs><style>.cls-1{fill:#1d1d1b;}</style></defs><title>Asset 428</title><g id="Layer_2" data-name="Layer 2"><g id="Layer_1-2" data-name="Layer 1"><path class="cls-1" d="M38.08,64.81H13.65a.54.54,0,0,1,0-1.08H38.08a.54.54,0,1,1,0,1.08Zm4.48,15.43L44,68.33a.54.54,0,0,0-.47-.6.55.55,0,0,0-.6.47L41.5,80.11a.53.53,0,0,0,.47.6H42A.52.52,0,0,0,42.56,80.24Zm-11.1,17.7L37.28,89a.54.54,0,1,0-.9-.58l-5.82,8.89a.55.55,0,0,0,.16.75.6.6,0,0,0,.29.08A.53.53,0,0,0,31.46,97.94ZM47.4,58.81,57,49.37a.53.53,0,0,0,0-.76.54.54,0,0,0-.76,0L46.64,58a.54.54,0,0,0,0,.76A.51.51,0,0,0,47,59,.55.55,0,0,0,47.4,58.81ZM64.94,42.52l26.59-26.2a.54.54,0,1,0-.76-.76L64.19,41.76a.55.55,0,0,0,0,.76.59.59,0,0,0,.39.16A.5.5,0,0,0,64.94,42.52ZM95.12,9.73C94,10,94.59,7.71,93,8.54c.38.82.73,1.61,1.18,2.58-1.22,0-2.29,0-3.37,0s-2-.7-3.13-.1c.23.79.78.74,1.29.74H93.7c.33,0,.66.05,1.12.08-.84,1.26-2.42,1.7-2.71,3.48,1.4-.31,1.79-1.8,3.09-2,0,.66,0,1.22,0,1.78s-.11,1.35-.07,2c.06,1,.26,1.94.31,2.92.07,1.35,0,2.71.09,4.06a4.35,4.35,0,0,0,.31,1l.44,0a9.69,9.69,0,0,0,.17-1.41c-.07-2.81-.17-5.62-.26-8.43,0-.6-.06-1.23.57-1.66,1,.67,1.27,1.95,2.39,2.38.63-.42.44-.85.12-1.23s-.79-.83-1.18-1.25-1.09-.83-1-1.79a4.75,4.75,0,0,1,1.33-.19,32.51,32.51,0,0,1,3.68.63c.65.15,1.1.2,1.43-.7a41.74,41.74,0,0,0-6.08-.72l1.87-2.89c-1.61-.08-1.52,1.52-2.58,1.86L97,7.33l-1.3,1.23c0-2.62,0-4.9,0-7.18C95.68.9,96,.35,95,0A62.88,62.88,0,0,0,95.12,9.73ZM7.4,59.86c-1.14.28-.53-2-2.08-1.19.38.82.73,1.61,1.18,2.58-1.22,0-2.29,0-3.37,0s-2-.71-3.13-.1c.22.79.78.74,1.29.74,1.56,0,3.13,0,4.69,0,.33,0,.66,0,1.12.08-.84,1.26-2.43,1.7-2.71,3.48,1.4-.31,1.79-1.8,3.08-2,0,.66,0,1.22,0,1.78s-.11,1.35-.07,2c.06,1,.26,1.94.31,2.92.07,1.35,0,2.71.09,4.06a3.93,3.93,0,0,0,.31,1l.44,0a9.69,9.69,0,0,0,.17-1.41c-.07-2.81-.17-5.62-.26-8.43,0-.6-.07-1.23.57-1.66,1,.67,1.27,1.95,2.38,2.38.64-.42.45-.85.13-1.23s-.79-.83-1.18-1.25-1.09-.83-1-1.79a4.87,4.87,0,0,1,1.34-.19,32.89,32.89,0,0,1,3.68.63c.65.15,1.1.2,1.43-.7a41.74,41.74,0,0,0-6.08-.72L11.6,58C10,57.87,10.08,59.47,9,59.81l.22-2.35-1.3,1.22c0-2.61,0-4.89,0-7.17,0-.48.32-1-.72-1.38A62.88,62.88,0,0,0,7.4,59.86ZM55.78,44.75a8.16,8.16,0,0,0,.81.34,16.11,16.11,0,0,1,2,.62c1.44.66,1.16.43,1.11,1.88,0,.68,0,1.37,0,2.19.06.53.4-.2.44-.28a10.22,10.22,0,0,0,.47-1.31c.22-.81.47-1.51,1.47-1.73a13.76,13.76,0,0,0,2.65-.65c.63-.21-.91-.67-1.14-.77-.41-.17-.82-.31-1.24-.45a2,2,0,0,1-1.41-2c0-.75.08-1.49.13-2.24,0-.28.11-.56-.36-.67a4,4,0,0,0-.19.51c-.2.91-.45,1.82-.57,2.74s-.74,1.24-1.53,1.37c-.37.05-.75,0-1.13.05l-1.46.11C55.62,44.48,55.4,44.58,55.78,44.75Zm-18,17c.27.11.54.24.82.34a16.68,16.68,0,0,1,2,.62c1.44.66,1.15.43,1.1,1.87,0,.69,0,1.38,0,2.2,0,.53.4-.2.43-.28a10.86,10.86,0,0,0,.48-1.31c.22-.81.46-1.51,1.46-1.73a13.67,13.67,0,0,0,2.66-.65c.62-.21-.92-.67-1.15-.77-.4-.17-.82-.31-1.24-.45a2,2,0,0,1-1.4-2c0-.75.07-1.5.13-2.24,0-.28.1-.57-.37-.67-.06.18-.14.34-.18.5-.2.92-.46,1.83-.58,2.75s-.74,1.24-1.53,1.36a10.37,10.37,0,0,1-1.12.06l-1.46.11C37.58,61.47,37.36,61.56,37.74,61.74ZM35,84.88a8.16,8.16,0,0,0,.81.34,18.06,18.06,0,0,1,2,.62c1.44.66,1.16.44,1.1,1.88,0,.69,0,1.37,0,2.19.06.53.4-.19.44-.28a10.22,10.22,0,0,0,.47-1.31c.22-.81.47-1.51,1.47-1.72A15.42,15.42,0,0,0,44,86c.63-.22-.91-.67-1.15-.77-.4-.17-.82-.31-1.23-.46a2,2,0,0,1-1.41-2c0-.74.08-1.49.13-2.24,0-.27.11-.56-.36-.66a3.41,3.41,0,0,0-.19.5c-.2.91-.45,1.82-.57,2.75s-.74,1.23-1.53,1.36a10.56,10.56,0,0,1-1.13,0l-1.46.11C34.88,84.61,34.66,84.71,35,84.88ZM23.59,99.69c.27.11.54.25.81.34a16.84,16.84,0,0,1,2,.62c1.43.66,1.15.43,1.1,1.88,0,.68,0,1.37.05,2.19,0,.53.4-.2.43-.28a10.8,10.8,0,0,0,.47-1.31c.22-.81.47-1.51,1.47-1.73a13.76,13.76,0,0,0,2.65-.65c.63-.21-.91-.67-1.14-.77-.41-.17-.82-.31-1.24-.45a2,2,0,0,1-1.41-2c0-.75.08-1.49.13-2.24,0-.28.11-.57-.36-.67a3,3,0,0,0-.18.5c-.21.92-.46,1.83-.58,2.75s-.74,1.24-1.53,1.36a10.55,10.55,0,0,1-1.13.06l-1.45.11C23.43,99.42,23.21,99.52,23.59,99.69Z"/><path class="cls-1" d="M62.84,75.61l.14,0c-.06.54-.1,1.39-.1,2.08a8.54,8.54,0,0,1-3.54.81,5.39,5.39,0,0,1-5.62-5.44,5.31,5.31,0,0,1,5.65-5.37,17.26,17.26,0,0,1,3.51.52c0,.41,0,1,0,1.45s0,.75,0,1h-.15a3.11,3.11,0,0,0-3.23-2.58c-2.19,0-4,1.69-4,5,0,3.46,2,5,4,5A3.61,3.61,0,0,0,62.84,75.61Zm7.25,2,.07.13a1.47,1.47,0,0,1-1.28.7.76.76,0,0,1-.86-.76,3.19,3.19,0,0,1-2.08.81c-1.18,0-2-.67-2-1.64S65,75,66.42,75a3,3,0,0,1,1.54.38v-2.1c0-1.12-.36-1.59-1.11-1.59s-1.36.59-1.38,1.84H64.22A2.5,2.5,0,0,1,67,71.39c1.41,0,2.33.64,2.33,2.52V77c0,.64.1.83.39.83A.54.54,0,0,0,70.09,77.65ZM68,75.73a2,2,0,0,0-1.16-.34,1.25,1.25,0,0,0-1.37,1.34A1.14,1.14,0,0,0,66.62,78,1.93,1.93,0,0,0,68,77.43Zm9.39,1.21V73.76c0-2.06-1.31-2.37-2.28-2.37a3.53,3.53,0,0,0-2.19.71v-.71a4.72,4.72,0,0,1-1.82.39v.15c.44.12.45.33.45,1v4c0,1.16-.19,1.24-.62,1.32v.15c.32,0,.77,0,1.31,0s1,0,1.31,0v-.15c-.44-.08-.63-.16-.63-1.32V72.48a2.46,2.46,0,0,1,1.61-.62c.83,0,1.5.43,1.5,2v3.13c0,1.16-.19,1.24-.63,1.32v.15c.32,0,.77,0,1.31,0s1,0,1.31,0v-.15C77.54,78.18,77.35,78.1,77.35,76.94Zm5-5.26c.92,0,1.2.61,1.24,1.4H85a2.31,2.31,0,0,0-2.54-1.69A3.49,3.49,0,0,0,78.81,75a3.39,3.39,0,0,0,3.47,3.56,2.91,2.91,0,0,0,2.54-1.33l-.1-.1a2.4,2.4,0,0,1-1.83.8c-1.52,0-2.57-1.19-2.57-3.25C80.32,73.06,81,71.68,82.33,71.68ZM91.73,77l.1.13a3.06,3.06,0,0,1-2.64,1.39,3.58,3.58,0,0,1-.14-7.14,2.61,2.61,0,0,1,2.75,2.74H87.24s0,.13,0,.36c0,2.06,1.1,3.32,2.66,3.32A2.52,2.52,0,0,0,91.73,77Zm-4.45-3.26h3c0-1.38-.53-2.07-1.32-2.07S87.46,72.6,87.28,73.75Zm9.16-2.36a2.52,2.52,0,0,0-1.67.93v-.93a4.76,4.76,0,0,1-1.82.39v.15c.44.12.45.33.45,1v4c0,1.16-.19,1.24-.63,1.32v.15c.32,0,.78,0,1.32,0s1,0,1.31,0v-.15c-.44-.08-.63-.16-.63-1.32V72.73a1.21,1.21,0,0,1,.89-.51c.35,0,.58.2.58.8h1.34C97.58,71.88,97.17,71.39,96.44,71.39Z"/></g></g></svg>