<svg xmlns="http://www.w3.org/2000/svg" viewBox="0 0 60.94 63.78"><title>Asset 487</title><g id="Layer_2" data-name="Layer 2"><g id="Layer_1-2" data-name="Layer 1"><path d="M60.94,34.3,53.61,29c1.5-1.95,2.87-3.77,4.27-5.57A3.28,3.28,0,0,0,58.72,21l-8.19-1c1.34-3.12,3.57-5.66,3.77-9.24L43.63,13c-.73-3.39-.71-6.93-1.79-10.57-1.44,1.14-2.73,2-3.87,3.11S35.9,7.81,34.85,9C32.7,6.18,32,2.77,29.61,0a55.56,55.56,0,0,0-4.15,9.19C24,8.77,22.62,8.3,21.25,8q-4.07-.84-8.15-1.49c-.91-.15-1.91-.52-3,.27,1.1,3.05,2.2,6.09,3.33,9.25a17,17,0,0,1-2.14.41c-2.27.15-4.55.22-6.83.37-.71.05-1.51-.11-2.15.53,1.35,3,3.63,5.28,5.37,8.05-.75.38-1.36.73-2,1-1.26.51-2.55.94-3.8,1.47-.67.28-1.45.48-1.76,1.47L6.67,34.3c-1,1.2-2.17,2.45-3.25,3.73S.79,40.1,0,42l9.11,1c-.11.65-.2,1.28-.34,1.9-.47,2.22-1,4.43-1.42,6.66a11.15,11.15,0,0,0,.18,2.39l8.31-2.49c.21,2.87-.61,5.69.55,8.66l7.91-4.75c1.84,2.8,2.95,6,5.69,8.44,1.63-2.94,3.13-5.68,4.67-8.46,2.5,1.58,4.58,3.89,7.63,5.19,0-.86.1-1.49.07-2.12-.07-1.87-.17-3.74-.07-5.59L51.46,55c.52.12,1,.41,1.58-.46l-3.69-8c3.1-.52,6.3-.6,9.48-2a41.31,41.31,0,0,0-5.94-6.15c1.44-.66,2.78-1.24,4.08-1.87S59.87,35.72,60.94,34.3Zm-2.53-.94c0,.1,0,.21,0,.31-1.58-.23-3.56-.46-4.77-.71V30C54.85,31,56.91,32.07,58.41,33.36Zm-5.5-4.69L52,24.78a11.71,11.71,0,0,1,5.62-2.18C56,24.61,54.57,26.5,52.91,28.67Zm-2.15-7.93c2,.2,3.93.45,5.89.69l0,.41-5.21,2-1.68-2.65C50.2,21,50.49,20.72,50.76,20.74ZM49.61,20a6.6,6.6,0,0,1-2.45-2.66L53,12.41C52.63,15.37,50.8,17.47,49.61,20Zm2.13-7.6L49.2,14.56c-.87.72-1.75,1.42-2.69,2.18l-2.89-2.53A26.8,26.8,0,0,1,51.74,12.41ZM42,5.34c.27,2.52.54,5,.79,7.55,0,.14-.11.29-.22.57l-2.93-1.64c-.07-2.47,1.19-4.43,2-6.56Zm-.62-1.63-3,7.45-3.37-1.09C36.77,7.68,38.41,5.31,41.33,3.71Zm-11.49-1a3.24,3.24,0,0,1,.46-.07c1.1,2.33,2.09,4.66,3.32,7.27-1.34-.14-2.32-.25-3.78-.38Zm-.76.12a18.15,18.15,0,0,1,.28,6.42l-3.26.53C27,7.22,27.53,4.88,29.08,2.78ZM11.57,8.52a10.24,10.24,0,0,1,3.66,2.28c.57.51,1.12,1,1.7,1.51.29.24.32.2,1.16-.28a24,24,0,0,0-5.71-4.49c1.06-.47,2,.09,2.9.24s2,.38,3,.58,1.92.38,2.86.61a17.25,17.25,0,0,1,2.94.94c-3.83.95-6.8,3.23-9.8,6C13.38,13.37,12.54,11.11,11.57,8.52ZM5,17.69l7.88-.39A7.92,7.92,0,0,1,11,20.12a1,1,0,0,1-.9.09C8.38,19.5,6.67,18.74,5,18Zm-.88,1.37c.1-.11.21-.22.31-.34l5.79,2.76c-.62,1-1.21,2-1.9,3.22C6.9,22.75,5.53,20.9,4.16,19.06Zm4.16,7.26c-.18,1.14-.32,2-.49,3.06a13.2,13.2,0,0,1-5.65-.7Zm-5.53,3.6,5,.61c0,1-.08,1.87-.13,2.87A10.22,10.22,0,0,1,2.79,29.92Zm4.86,4.66c.33,1.41.59,2.49.88,3.71A25.49,25.49,0,0,1,2.32,40.2C4,38.4,5.71,36.61,7.65,34.58ZM2.81,41.17l5.82-1.94c.36.89.67,1.64,1,2.53A16.75,16.75,0,0,1,2.81,41.17ZM8.2,51.6a37.44,37.44,0,0,1,2-8.62l3,3.79-4.63,5Zm1.48.72L9.44,52l4.29-4.5L16,50A19.55,19.55,0,0,1,9.68,52.32Zm7.43-1.16,2.49,1.72a37.64,37.64,0,0,1-2.86,4.36A13.8,13.8,0,0,1,17.11,51.16Zm-.06,7.46a26.14,26.14,0,0,1,3.44-5.4l3,1.38A24.15,24.15,0,0,1,17.05,58.62ZM25.53,55l3.86-.17c.31,2.34-.07,4.6.19,6.93C28.18,60.87,26.29,57.7,25.53,55Zm4.94,5.52c-.41-2.25-.15-3.64-.14-6.31h3.35A16.85,16.85,0,0,1,30.47,60.52ZM39.9,58l-4.76-3.58,2.92-1.16c.76,1.65,1.42,3.09,2.09,4.53Zm1.52.54L39,53.24l2.34-1.11c.48,2.16.11,4.24.47,6.27Zm-3.69-6.89a35.57,35.57,0,0,1-10.08,1.61,19.38,19.38,0,0,1-4.74-.92c-.37-.08-.69-.35-1.06-.42-2.07-.38-3.34-1.89-4.69-3.29A40,40,0,0,1,12,41.72a16.81,16.81,0,0,1-2.58-7.6,35.75,35.75,0,0,1,.27-5.84,27.27,27.27,0,0,1,1.54-6,2.29,2.29,0,0,1,.41-.69c1.57-1.87,3.08-3.8,4.74-5.57a13,13,0,0,1,5.41-3.22c2.1-.73,4.13-1.69,6.41-1.78L30.79,11a12.68,12.68,0,0,1,9.14,3.19,47.93,47.93,0,0,1,7.48,7A12.21,12.21,0,0,1,50.27,27c.31,2,.59,4.08.74,6.14a14.41,14.41,0,0,1-1.38,6.47,37.49,37.49,0,0,1-3.05,5.73C44.53,48.68,41.27,50.41,37.73,51.62Zm4.57,0c.68-.5,1.15-.9,1.66-1.22s1.13-.63,1.81-1l5,4.27A22.92,22.92,0,0,1,42.3,51.63ZM51.13,53l-4.75-4.23,1.5-2.44A13.15,13.15,0,0,1,51.13,53Zm-2.61-7.44,1.8-3.48a23,23,0,0,1,6.53,2.4A30.27,30.27,0,0,1,48.52,45.54Zm8.36-2.21-6.13-2.07.94-2.35C53.9,39.77,55.13,41.55,56.88,43.33Zm-4.7-5.62c.27-1.37.49-2.46.74-3.68a15.33,15.33,0,0,1,5.93,1Zm-4.52-.22a23.27,23.27,0,0,0,1.14-6.87,4.51,4.51,0,0,0-.86-2.79l-.46.07c0,1.75.14,3.52,0,5.26s-.65,3.44-1,5.15C47.25,38.51,47.49,38.06,47.66,37.49Zm-35.38-4.7A8,8,0,0,1,12,31.38,13,13,0,0,1,14.49,23a1,1,0,0,0,0-1.49,12.2,12.2,0,0,0-.92,1.23,18.5,18.5,0,0,0-2.24,5.88,8.72,8.72,0,0,0,.29,4.8,2.68,2.68,0,0,0,.55.63A1.92,1.92,0,0,0,12.28,32.79Zm17-19.63c-2.94-.68-8.65,1.62-10.2,4.2a2.66,2.66,0,0,0,.8-.13c.33-.18.6-.46.92-.67a14.59,14.59,0,0,1,7.39-2.66C28.64,13.88,29.35,14.07,29.26,13.16ZM23.17,50.81l-.07.44c2.19,1.12,4.57.9,6.9.67,1.19-.11,2.56-.15,3.42-1.39-1.7.1-3.35.5-5,.57A51.27,51.27,0,0,1,23.17,50.81ZM44,21.13l.5-.19c-1.2-2.46-4.43-5-7.86-6.28a3,3,0,0,0-.94,0l-.11.42a35.66,35.66,0,0,1,4.49,2.28A28.84,28.84,0,0,1,44,21.13ZM37.61,48a1,1,0,0,0,1.47.1c.36-.31.81-.53,1.17-.85,1.18-1.09,2.36-2.18,3.51-3.31.2-.2.23-.58.34-.87l-.26-.15ZM13.1,40.45a27.68,27.68,0,0,0,5.71,7.1c.13.13.45.08.76.12-2-2.51-3.87-4.91-5.77-7.29C13.75,40.32,13.51,40.4,13.1,40.45Zm33.2.27c-.95-.26-1.66-.51-2.1.29-.32.57.1,1.05,1.48,1.75C45.87,42.11,46.06,41.49,46.3,40.72Zm1-14.72c0-.75.14-1.24,0-1.55a2.06,2.06,0,0,0-1-.76c-.19-.07-.72.24-.72.38a1.77,1.77,0,0,0,.34,1.14A5.75,5.75,0,0,0,47.34,26ZM17.19,20.16c.35,0,.69-.58,1.19-1.05-.45-.47-.7-.95-1-1-.53-.11-.85.32-.88.88S16.53,20.18,17.19,20.16Zm17.92,28.5c.59,1.23,1,1.58,1.5,1.13A1.5,1.5,0,0,0,37,48.54C36.79,47.93,36,48,35.11,48.66ZM31.63,14.74c1.06.46,1.3.38,2.43-.83C32.59,13,32.16,13.16,31.63,14.74ZM12.55,35.53c-.64.64-.75,1.17-.28,1.7s.87.62,1.61-.1Zm8.1,13c-.11.08-.09.55,0,.66.48.43.93.3,1.45-.31C21.6,48.41,21.16,48.18,20.65,48.56Z"/></g></g></svg>