<svg xmlns="http://www.w3.org/2000/svg" viewBox="0 0 104.3 119.84"><title>Asset 554</title><g id="Layer_2" data-name="Layer 2"><g id="Layer_1-2" data-name="Layer 1"><path d="M31.7,111.78l-3.39,7.86h.87l.86-2.07H34.1l.87,2.07h.89l-3.38-7.86Zm-1.36,5.06,1.73-4.18,1.73,4.18Zm10.82-4.55a2.51,2.51,0,0,0-.84-.39,4.55,4.55,0,0,0-1.09-.12H37v7.86h.8V116h1.4a4.19,4.19,0,0,0,1.1-.14,2.51,2.51,0,0,0,.84-.39,1.73,1.73,0,0,0,.54-.66,2.29,2.29,0,0,0,0-1.85A1.73,1.73,0,0,0,41.16,112.29Zm-.56,2.65a2.32,2.32,0,0,1-1.43.37H37.81v-2.85h1.36a2.55,2.55,0,0,1,1.41.34,1.21,1.21,0,0,1,.51,1.07A1.24,1.24,0,0,1,40.6,114.94Zm-13.36,3,.62.4a3.16,3.16,0,0,1-.48.57,3.26,3.26,0,0,1-.66.47,4,4,0,0,1-.82.32,3.81,3.81,0,0,1-1,.12,4.29,4.29,0,0,1-1.65-.31,4.15,4.15,0,0,1-1.3-.86,4.06,4.06,0,0,1-.85-1.31,4.4,4.4,0,0,1-.3-1.65,4.3,4.3,0,0,1,.31-1.66,3.88,3.88,0,0,1,.86-1.3,3.83,3.83,0,0,1,1.3-.86,4.15,4.15,0,0,1,1.63-.31,4,4,0,0,1,.85.09,3.75,3.75,0,0,1,.78.25,3.67,3.67,0,0,1,.67.39,2.72,2.72,0,0,1,.5.52l-.67.49a1.87,1.87,0,0,0-.33-.38,2.53,2.53,0,0,0-.48-.33,2.48,2.48,0,0,0-.61-.23,2.58,2.58,0,0,0-.7-.09,3.32,3.32,0,0,0-1.37.27,3.11,3.11,0,0,0-1.67,1.84,3.82,3.82,0,0,0,0,2.61,3.23,3.23,0,0,0,.65,1.09,2.89,2.89,0,0,0,1,.75,3.15,3.15,0,0,0,1.36.28,3,3,0,0,0,1.29-.28A2.41,2.41,0,0,0,27.24,118Zm40.36-5.21a3.83,3.83,0,0,0-1.3-.86,4.44,4.44,0,0,0-3.26,0,3.83,3.83,0,0,0-1.3.86,4,4,0,0,0-.86,1.3,4.3,4.3,0,0,0-.31,1.66,4.22,4.22,0,0,0,.31,1.65,4.08,4.08,0,0,0,.86,1.31,4.21,4.21,0,0,0,5.86,0,4.08,4.08,0,0,0,.86-1.31,4.41,4.41,0,0,0,.31-1.65,4.5,4.5,0,0,0-.31-1.66A4,4,0,0,0,67.6,112.75Zm.1,4.27a3.2,3.2,0,0,1-.64,1.09,3.09,3.09,0,0,1-1,.74,3.44,3.44,0,0,1-2.72,0,3,3,0,0,1-1-.74,3.05,3.05,0,0,1-.64-1.09,3.8,3.8,0,0,1-.23-1.31,3.84,3.84,0,0,1,.23-1.31,3.23,3.23,0,0,1,.64-1.09,3.15,3.15,0,0,1,1-.75,3.56,3.56,0,0,1,2.72,0,3.26,3.26,0,0,1,1,.75,3.41,3.41,0,0,1,.64,1.09,3.83,3.83,0,0,1,.22,1.31A3.79,3.79,0,0,1,67.7,117Zm15.78-5.24v7.86h-1l-4.57-6.76h0v6.76h-.8v-7.86h1l4.57,6.69h0v-6.69ZM47.24,115.7a2.22,2.22,0,0,0,.64-.42,2.12,2.12,0,0,0,.42-.62,2,2,0,0,0,.15-.79,2,2,0,0,0-.2-1,1.61,1.61,0,0,0-.56-.65,2.25,2.25,0,0,0-.85-.36,4.57,4.57,0,0,0-1.07-.11H43.45v7.86h.8V116h1.34l2.17,3.68h1l-2.3-3.74A2.84,2.84,0,0,0,47.24,115.7Zm-3-.43v-2.81h1.43a4.12,4.12,0,0,1,.81.08,1.83,1.83,0,0,1,.62.25,1.18,1.18,0,0,1,.4.43,1.33,1.33,0,0,1,.14.65,1.17,1.17,0,0,1-.52,1,2.61,2.61,0,0,1-1.49.35Zm30,.43a2,2,0,0,0,.63-.42,2,2,0,0,0,.43-.62,2,2,0,0,0,.15-.79,2.18,2.18,0,0,0-.2-1,1.61,1.61,0,0,0-.56-.65,2.33,2.33,0,0,0-.85-.36,4.6,4.6,0,0,0-1.08-.11H70.43v7.86h.8V116h1.34l2.17,3.68h1l-2.3-3.74A2.84,2.84,0,0,0,74.22,115.7Zm-3-.43v-2.81h1.42a4.15,4.15,0,0,1,.82.08,1.83,1.83,0,0,1,.62.25,1.18,1.18,0,0,1,.4.43,1.45,1.45,0,0,1,.14.65,1.17,1.17,0,0,1-.52,1,2.61,2.61,0,0,1-1.49.35Zm-21.12-3.49h.8v7.86h-.8ZM59,118l.63.4a3.7,3.7,0,0,1-.49.57,3.49,3.49,0,0,1-.65.47,4.24,4.24,0,0,1-.82.32,3.84,3.84,0,0,1-1,.12,4.2,4.2,0,0,1-1.64-.31,3.82,3.82,0,0,1-2.15-2.17,4.41,4.41,0,0,1-.31-1.65,4.5,4.5,0,0,1,.31-1.66,3.91,3.91,0,0,1,.87-1.3,3.79,3.79,0,0,1,1.29-.86,4.19,4.19,0,0,1,1.63-.31,4,4,0,0,1,.85.09,3.75,3.75,0,0,1,.78.25,3.36,3.36,0,0,1,.67.39,2.45,2.45,0,0,1,.5.52l-.67.49a2.15,2.15,0,0,0-.32-.38,2.62,2.62,0,0,0-.49-.33,2.27,2.27,0,0,0-.6-.23,2.71,2.71,0,0,0-.71-.09,3.1,3.1,0,0,0-2.4,1,3.3,3.3,0,0,0-.64,1.09,3.79,3.79,0,0,0-.22,1.31,3.56,3.56,0,0,0,.23,1.3,3.07,3.07,0,0,0,.65,1.09,2.94,2.94,0,0,0,1,.75,3.18,3.18,0,0,0,1.36.28,3,3,0,0,0,1.29-.28A2.35,2.35,0,0,0,59,118Z"/><path d="M61.82,62.67l.83-.07c0-.3,0-.58,0-.86a5.73,5.73,0,0,0,4.65-2.3,5.26,5.26,0,0,0,.3-4.8,11.13,11.13,0,0,1,1.26-.28l-.14-.82C63.76,54.33,61.38,57.49,61.82,62.67ZM66.56,59a4.89,4.89,0,0,1-3.94,1.93,8.46,8.46,0,0,1,.28-1.66c.05,0,.08.11.14.14a2.24,2.24,0,0,0,2.37-3.74,6.57,6.57,0,0,1,1.36-.74A4.47,4.47,0,0,1,66.56,59Zm-7.47,4.52.59.59c-3,3-4.73,9.81-2.33,17l-.8.26C54.65,75.66,54.91,67.7,59.09,63.49ZM75.47,25.58a24,24,0,0,1,7.69-2.38c3.12-.59,6.34-1.2,9-3.24l.94-.7L92,19.21a15.67,15.67,0,0,1-5.11-1.38,19,19,0,0,0-5.19-1.5,19.33,19.33,0,0,0-11.22,2.13C62.78,22.26,58.06,27,55.62,33.29a29.06,29.06,0,0,0-3.37-.17h-.36a28.7,28.7,0,0,0-3.21.17c-2.44-6.31-7.16-11-14.83-14.83a19.32,19.32,0,0,0-11.22-2.13,19,19,0,0,0-5.19,1.5,15.67,15.67,0,0,1-5.11,1.38l-1.17.05.94.7c2.71,2,5.93,2.65,9,3.24a24,24,0,0,1,7.7,2.38C33,28,36,32.81,37.54,39.86l-.14.25c-1.24-.83-2.55-.48-4.29,0a22.24,22.24,0,0,1-7.32.91c-2.61-.12-5,1.22-7.36,2.51a21.65,21.65,0,0,1-4.67,2.13l-.62.17.4.5c2.37,2.95,4.68,5.11,8.3,6.1a21.18,21.18,0,0,0,4.91.4c2.64,0,5.37.07,6.93,1.1a17.54,17.54,0,0,0,.84,9.66,29.13,29.13,0,0,0,3.64,6.18c.84,1.19,1.71,2.42,2.45,3.72,1.14,2,1.59,4.8,2.07,7.77s1,6.16,2.32,8.47a7.46,7.46,0,0,0,1.4,1.79l0,0a1.14,1.14,0,0,0,.23.15,7.47,7.47,0,0,0,5.55,1.63l.67,0A7.22,7.22,0,0,0,57.7,91.7l.24-.16,0,0a7.43,7.43,0,0,0,1.39-1.79c1.32-2.31,1.83-5.44,2.32-8.47s.93-5.77,2.07-7.77a43.52,43.52,0,0,1,2.46-3.72,29.1,29.1,0,0,0,3.63-6.18,17.45,17.45,0,0,0,.84-9.66c1.56-1,4.29-1.06,6.93-1.1a21.13,21.13,0,0,0,4.91-.4c3.62-1,5.93-3.15,8.3-6.1l.4-.5-.62-.17a21.87,21.87,0,0,1-4.67-2.13c-2.34-1.29-4.75-2.63-7.36-2.51a22.24,22.24,0,0,1-7.32-.91c-1.74-.46-3-.81-4.29,0a2,2,0,0,0-.14-.25C68.35,32.81,71.27,28,75.47,25.58Zm11.09-7a19.86,19.86,0,0,0,4.21,1.33c-2.34,1.42-5,1.92-7.76,2.45a35.43,35.43,0,0,0-5.49,1.34c.75-3.16,3.53-5.12,7.92-5.55ZM59.43,28.11a9.44,9.44,0,0,0-.1,3.09,8.08,8.08,0,0,0,1.2,3.3,17.28,17.28,0,0,0-4.05-1.09A22.53,22.53,0,0,1,59.43,28.11Zm-11.6,5.3a17.37,17.37,0,0,0-4.06,1.09A7.93,7.93,0,0,0,45,31.2a9.72,9.72,0,0,0-.09-3.09A22.89,22.89,0,0,1,47.83,33.41Zm-26.53-11c-2.78-.53-5.43-1-7.76-2.45a20,20,0,0,0,4.21-1.33l1.12-.43c4.38.43,7.17,2.39,7.91,5.55A35.31,35.31,0,0,0,21.3,22.38Zm8,2.47a17.17,17.17,0,0,0-1.55-.77c-.34-2.06-1.73-5.42-7.1-6.5a13.23,13.23,0,0,1,2.1-.42,18.29,18.29,0,0,1,6.8.51v0a13.83,13.83,0,0,1,6.37,7.65,9,9,0,0,1-.3,6.41A16.77,16.77,0,0,0,29.26,24.85ZM36,32.71a10,10,0,0,0,.63-7.6,14.49,14.49,0,0,0-4.25-6.39l1.06.49a33.1,33.1,0,0,1,9.94,7.14,8.38,8.38,0,0,1,.72,4.74,6.67,6.67,0,0,1-2.7,4.64h0a13.69,13.69,0,0,0-2.74,2.46c-.19.22-.36.45-.53.68A32.89,32.89,0,0,0,36,32.71ZM18.84,44.24c2.33-1.29,4.54-2.5,6.92-2.4a23,23,0,0,0,7.57-.94c1.72-.46,2.73-.72,3.69,0a33.83,33.83,0,0,0-2,7c0,.22-.09.43-.13.64-1,.42-2.5.05-3.69-.25l-.53-.13A22.76,22.76,0,0,1,27.55,47a17.08,17.08,0,0,0-4.92-1.37,9.58,9.58,0,0,0-2.57.26,12.27,12.27,0,0,1-1.82.26l-.48,0a8.24,8.24,0,0,1-2.67-.12A29.56,29.56,0,0,0,18.84,44.24ZM26.77,52a21.43,21.43,0,0,1-4.71-.38A13.46,13.46,0,0,1,15.19,47a10.06,10.06,0,0,0,2.62.06l.47,0a12.94,12.94,0,0,0,1.94-.28,8.77,8.77,0,0,1,2.35-.24,16.14,16.14,0,0,1,4.67,1.31,23.92,23.92,0,0,0,3.25,1.1L31,49a11.63,11.63,0,0,0,2.79.46,3.82,3.82,0,0,0,.9-.09c-.11.51-.23,1-.35,1.47Q34.05,52,33.84,53C32.06,52.05,29.38,52,26.77,52ZM52.32,92.49v0H52v0h-.5a7.94,7.94,0,0,1-2.1-.26,3.48,3.48,0,0,0,.69-.17,4.29,4.29,0,0,0,2.07-1.48,4.32,4.32,0,0,0,2.08,1.48,4,4,0,0,0,.68.17A8.35,8.35,0,0,1,52.32,92.49Zm-2.43-3.8a8.94,8.94,0,0,0-2.49-1.61L47,86.89a2.31,2.31,0,0,1-1.25-1.35,1.15,1.15,0,0,1,.23-1A1.19,1.19,0,0,1,47,84a2.67,2.67,0,0,1,1.48.65,5.33,5.33,0,0,0,3.3,1.53,2.42,2.42,0,0,0,.38,0h0a2.48,2.48,0,0,0,.38,0,5.33,5.33,0,0,0,3.3-1.53A2.7,2.7,0,0,1,57.32,84a1.2,1.2,0,0,1,1,.57,1.17,1.17,0,0,1,.22,1,2.32,2.32,0,0,1-1.24,1.35l-.39.19a8.94,8.94,0,0,0-2.49,1.61,2.62,2.62,0,0,1-2.26.69A2.63,2.63,0,0,1,49.89,88.69ZM82.24,51.6a21.39,21.39,0,0,1-4.7.38c-2.61,0-5.3.07-7.08,1.05-.14-.7-.3-1.42-.5-2.16-.13-.47-.24-1-.35-1.47a3.79,3.79,0,0,0,.89.09A11.54,11.54,0,0,0,73.29,49l.53-.13a24.27,24.27,0,0,0,3.24-1.1,16.23,16.23,0,0,1,4.67-1.31,8.85,8.85,0,0,1,2.36.24A12.62,12.62,0,0,0,86,47l.47,0A10.15,10.15,0,0,0,89.12,47,13.45,13.45,0,0,1,82.24,51.6ZM71,40.9a23.31,23.31,0,0,0,7.58.94c2.38-.1,4.58,1.11,6.91,2.4a29.56,29.56,0,0,0,3.75,1.84,8.24,8.24,0,0,1-2.67.12l-.48,0a12,12,0,0,1-1.81-.26,9.62,9.62,0,0,0-2.57-.26A16.91,16.91,0,0,0,76.76,47a23.7,23.7,0,0,1-3.13,1.07l-.54.13c-1.19.3-2.67.67-3.69.25,0-.21-.08-.42-.13-.64a33.83,33.83,0,0,0-2-7C68.24,40.18,69.25,40.44,71,40.9ZM68.45,48c.23,1.09.44,2.13.7,3.08,1.3,4.92,1.26,8.57-.15,12.19a27.69,27.69,0,0,1-3.54,6c-.85,1.21-1.74,2.46-2.5,3.8-1.21,2.13-1.7,5.14-2.17,8-.64,4-1.27,7.85-3.56,9.9a3.29,3.29,0,0,1-2.74.28A3.69,3.69,0,0,1,52.9,90.2,3,3,0,0,0,55,89.3a8.24,8.24,0,0,1,2.3-1.47l.38-.2a3.08,3.08,0,0,0,1.69-1.9A2,2,0,0,0,59,84.06a2,2,0,0,0-1.66-.91,3.44,3.44,0,0,0-2,.83,4.6,4.6,0,0,1-2.78,1.35l-.33,0h-.1l-.33,0A4.62,4.62,0,0,1,49,84a3.44,3.44,0,0,0-2-.83,2,2,0,0,0-1.67.91A2,2,0,0,0,45,85.73a3.07,3.07,0,0,0,1.68,1.9l.39.2a8.19,8.19,0,0,1,2.29,1.47,3,3,0,0,0,2.08.9,3.58,3.58,0,0,1-1.59,1.08A3.3,3.3,0,0,1,47.07,91c-2.29-2-2.91-5.9-3.56-9.9-.47-2.9-1-5.91-2.17-8-.76-1.34-1.65-2.59-2.5-3.8a27.69,27.69,0,0,1-3.54-6c-1.41-3.62-1.45-7.27-.15-12.19.26-.95.47-2,.7-3.08.68-3.24,1.45-6.92,3.48-9.26a12.33,12.33,0,0,1,2.59-2.34h0l0,0C43.9,35.12,47,34,51.9,34h.51c5,0,8,1.16,9.92,2.41l.05,0h0A11.83,11.83,0,0,1,65,38.74C67,41.08,67.77,44.76,68.45,48Zm-2.31-9.13c-.17-.23-.35-.46-.54-.68a13.69,13.69,0,0,0-2.74-2.46h0a6.71,6.71,0,0,1-2.7-4.64,8.38,8.38,0,0,1,.73-4.74,33,33,0,0,1,9.93-7.14l1.06-.49a14.47,14.47,0,0,0-4.24,6.39,9.91,9.91,0,0,0,.62,7.6A32.89,32.89,0,0,0,66.14,38.87Zm2.6-7.11a8.94,8.94,0,0,1-.3-6.41A13.81,13.81,0,0,1,74.8,17.7v0a18.3,18.3,0,0,1,6.8-.51,13,13,0,0,1,2.1.42c-5.37,1.08-6.76,4.44-7.09,6.5a14.9,14.9,0,0,0-1.55.77A16.64,16.64,0,0,0,68.74,31.76ZM45.22,63.49c4.17,4.21,4.43,12.17,2.53,17.87L47,81.1c2.41-7.21.65-14-2.33-17Zm-9.6-10-.13.82a11.45,11.45,0,0,1,1.25.28,5.22,5.22,0,0,0,.31,4.8,5.73,5.73,0,0,0,4.65,2.3c0,.28,0,.56-.05.86l.84.07C42.92,57.49,40.55,54.33,35.62,53.54ZM37.75,59a4.44,4.44,0,0,1-.22-4.07,6.32,6.32,0,0,1,1.36.74,2.24,2.24,0,0,0,2.37,3.74c.06,0,.09-.1.14-.14a8.46,8.46,0,0,1,.28,1.66A4.87,4.87,0,0,1,37.75,59Zm7.67,2.54a.29.29,0,1,1-.29.29A.29.29,0,0,1,45.42,61.51ZM45.58,60a.51.51,0,1,1,.51-.51A.51.51,0,0,1,45.58,60Zm-.53-2.11a.68.68,0,1,1,.68-.68A.68.68,0,0,1,45.05,57.88Zm-.87-2a.82.82,0,0,1,0-1.64.82.82,0,0,1,0,1.64ZM43,53.91A.93.93,0,1,1,44,53,.92.92,0,0,1,43,53.91Zm-2.11-3a1,1,0,1,1,1,1A1,1,0,0,1,40.91,50.93Zm.33-1.24a1,1,0,1,1,1-1A1,1,0,0,1,41.24,49.69Zm-1.18-3.34a1,1,0,1,1,1,1A1,1,0,0,1,40.06,46.35ZM40.34,44a.93.93,0,1,1,.92.92A.93.93,0,0,1,40.34,44Zm.7-2.26a.83.83,0,1,1,.83.82A.83.83,0,0,1,41,41.76Zm1.12-2.13a.69.69,0,1,1,.69.69A.69.69,0,0,1,42.16,39.63Zm1.55-1.91a.5.5,0,0,1,.5-.5.51.51,0,0,1,.5.5.5.5,0,0,1-.5.5A.5.5,0,0,1,43.71,37.72Zm2-1.59a.25.25,0,0,1,.49,0,.25.25,0,1,1-.49,0Zm4.48,51.61.08.19-.1.08L50,87.88l-.19-.14-.25-.18-.3-.21-.34-.22-.35-.23-.37-.24a3.49,3.49,0,0,0-.39-.19,3.18,3.18,0,0,1-.37-.18,1.35,1.35,0,0,1-.28-.25,2.85,2.85,0,0,1-.23-.26,1.54,1.54,0,0,1-.17-.24,2.1,2.1,0,0,0-.15-.22l-.1-.17,0-.06,0-.13.07,0a.84.84,0,0,1,.18-.07,1.09,1.09,0,0,1,.3,0,2.55,2.55,0,0,1,.38,0,2.19,2.19,0,0,1,.4.11,1.25,1.25,0,0,1,.4.2,2.06,2.06,0,0,1,.33.33l.32.37a9.15,9.15,0,0,1,.58.72c.18.24.32.47.45.67S50.1,87.61,50.16,87.74ZM64.24,46.35a1,1,0,1,1-1-1A1,1,0,0,1,64.24,46.35ZM58.89,61.51a.29.29,0,1,1-.29.29A.29.29,0,0,1,58.89,61.51Zm1-4.31a.68.68,0,1,1-.68-.68A.68.68,0,0,1,59.94,57.2ZM58.13,36.13a.25.25,0,1,1,.25.25A.25.25,0,0,1,58.13,36.13Zm4.93,13.56a1,1,0,1,1,1-1A1,1,0,0,1,63.06,49.69Zm-1.78,4.22a.93.93,0,1,1,.93-.93A.93.93,0,0,1,61.28,53.91ZM60.94,55a.82.82,0,1,1-.82-.82A.82.82,0,0,1,60.94,55Zm-1.7,4.46a.51.51,0,0,1-.51.51.51.51,0,0,1,0-1A.51.51,0,0,1,59.24,59.48Zm.36-21.76a.5.5,0,1,1,.49.5A.49.49,0,0,1,59.6,37.72ZM63,43.09a.93.93,0,1,1,0,1.85.93.93,0,0,1,0-1.85Zm-.64,6.85a1,1,0,1,1-1,1A1,1,0,0,1,62.4,49.94Zm0-9a.83.83,0,1,1-.83.83A.83.83,0,0,1,62.44,40.93Zm-1.68-1.3a.69.69,0,1,1,.69.69A.69.69,0,0,1,60.76,39.63ZM54.52,87.74l-.19.14-.16.13-.11-.08.09-.19q.09-.19.27-.51c.12-.2.27-.43.44-.67s.38-.48.59-.72.21-.24.31-.37a2.06,2.06,0,0,1,.33-.33,1.36,1.36,0,0,1,.4-.2,2.08,2.08,0,0,1,.41-.11,2.36,2.36,0,0,1,.37,0,1.09,1.09,0,0,1,.3,0l.19.07.06,0,0,.13,0,.06-.11.17a1.18,1.18,0,0,0-.14.22,3,3,0,0,1-.18.24,1.86,1.86,0,0,1-.23.26,1.35,1.35,0,0,1-.28.25,3,3,0,0,1-.36.18,2.35,2.35,0,0,0-.39.19l-.37.24-.36.23-.34.22-.3.21ZM53.37,64.08a1.25,1.25,0,1,1-1.25-1.25A1.25,1.25,0,0,1,53.37,64.08Zm-.26,4.14a1,1,0,1,1-1.91,0,1,1,0,0,1,1.91,0Zm-.38,3.33a.58.58,0,1,1-1.15,0,.58.58,0,0,1,1.15,0Z"/><path d="M57.3,50.8a7.8,7.8,0,0,1-5.7,1.74h-.26c-1,0-1.71.45-1.71,1.1s.7,1.1,1.71,1.1v.84c-1.5,0-2.55-.8-2.55-1.94s1.05-1.94,2.55-1.94h.28a7,7,0,0,0,5.1-1.5,3,3,0,0,0,0-4.44A6.46,6.46,0,0,0,52,44.27h0l-.47,0V40.45H49.93v-.84h1.58V37.67h.84v1.94H54v.84H52.35v3a7.08,7.08,0,0,1,4.94,1.73,3.84,3.84,0,0,1,0,5.64Z"/><path d="M57.88,4.16H53.5L52.15,0,50.8,4.16H46.42L50,6.73,48.61,10.9l3.54-2.57,3.54,2.57L54.34,6.73ZM52.15,7.29,50.2,8.71,51,6.41,49,5h2.41l.74-2.29L52.9,5h2.4L53.36,6.41l.74,2.3Z"/><path d="M57.88,99.08H53.5l-1.35-4.16L50.8,99.08H46.42L50,101.66l-1.35,4.16,3.54-2.57,3.54,2.57-1.35-4.16Zm-5.73,3.13-1.95,1.42.75-2.29-2-1.42h2.41l.74-2.29.75,2.29h2.4l-1.94,1.42.74,2.29Z"/><path d="M82.21,71.84H78.63l-1.11-3.41-1.1,3.41H72.83L75.73,74l-1.11,3.4,2.9-2.1,2.9,2.1L79.32,74Zm-4.69,2.37-1.3,1,.49-1.53-1.3-1H77l.5-1.53.5,1.53h1.62l-1.31,1,.5,1.53Z"/><path d="M102.66,36.4H99.08L98,33,96.86,36.4H93.28l2.9,2.11-1.11,3.41L98,39.81l2.9,2.11-1.11-3.41ZM98,38.78l-1.31.95.5-1.54-1.31-.95h1.62L98,35.7l.5,1.54h1.61l-1.3.95.5,1.54Z"/><path d="M31.47,71.84H27.89l-1.11-3.41-1.11,3.41H22.09L25,74l-1.11,3.4,2.9-2.1,2.9,2.1L28.57,74Zm-4.69,2.37-1.31,1,.5-1.53-1.3-1h1.61l.5-1.53.5,1.53H28.9l-1.31,1,.5,1.53Z"/><path d="M11,36.4H7.44L6.33,33,5.23,36.4H1.64l2.9,2.11L3.43,41.92l2.9-2.11,2.9,2.11-1.1-3.41Zm-4.7,2.38L5,39.73l.5-1.54-1.31-.95H5.84l.49-1.54.5,1.54H8.45l-1.31.95.5,1.54Z"/><path d="M82.31,10.44,80,9.59l1.39-2-2.3.82L78.89,6l-1.23,2.1L75.92,6.36l.41,2.4-2.43-.2,1.85,1.59-2,1.41H76.2l-.61,2.36,1.88-1.55,1,2.2L79,12.19l2.22,1L80,11.08Zm-3.15.92L78.32,11l-.16.91-.4-.83-.71.58.24-.89h-.92l.75-.53-.7-.6.91.07-.15-.9.65.65.47-.8.09.92.86-.31-.52.75.86.33-.89.24Z"/><path d="M87.85,87.82l1.39-2-2.3.82-.23-2.43-1.23,2.1-1.74-1.71L84.15,87l-2.43-.2,1.85,1.58-2,1.41,2.43,0-.61,2.36,1.88-1.56,1,2.21.44-2.4,2.22,1-1.21-2.12,2.35-.64ZM87,89.59l-.84-.38-.16.9-.4-.83-.71.59.24-.89h-.92l.75-.53-.7-.6.91.08L85,87l.65.65.47-.8.09.92.86-.31-.52.76.86.32-.89.24Z"/><path d="M103.21,62.46l-2.74-1,1.66-2.39-2.74,1-.28-2.9-1.47,2.52-2.07-2,.48,2.87-2.9-.24,2.22,1.89L93,63.8l2.91,0-.73,2.82,2.24-1.86,1.25,2.64.53-2.87,2.64,1.22-1.43-2.54Zm-4.65.88-.25,1.37-.6-1.26-1.08.89L97,63h-1.4l1.14-.81-1.06-.9,1.39.11L96.82,60l1,1,.7-1.21.13,1.39,1.32-.46-.8,1.14,1.31.49-1.34.37.68,1.21Z"/><path d="M54.78,21l1.66-2.4-2.75,1-.27-2.9L52,19.14l-2.08-2.05L50.36,20l-2.91-.23,2.22,1.89L47.29,23.3l2.92,0-.74,2.82,2.25-1.85L53,26.92l.52-2.87,2.65,1.22L54.7,22.73,57.51,22Zm-.65,2.48-1.27-.59-.25,1.38L52,23l-1.07.88.35-1.35H49.9L51,21.68,50,20.77l1.39.12-.23-1.38,1,1,.71-1.2L53,20.68l1.31-.47-.79,1.15,1.31.48-1.35.37Z"/><path d="M28.55,10.15l1.86-1.59L28,8.76l.4-2.4L26.65,8.07,25.41,6,25.18,8.4l-2.29-.82,1.38,2L22,10.44l2.35.64-1.2,2.12,2.21-1,.44,2.39,1.05-2.2,1.88,1.55-.62-2.36h2.44Zm-1.3,1.48-.71-.58-.39.83L26,11l-.83.39.45-.8-.89-.24.86-.33-.52-.75.87.31L26,8.63l.47.8.65-.65-.15.9.92-.07-.7.6.75.53H27Z"/><path d="M20.73,88.38l1.86-1.58-2.43.2.4-2.41L18.83,86.3l-1.24-2.1-.23,2.43-2.29-.82,1.38,2-2.28.85,2.35.64-1.2,2.12,2.21-1,.44,2.4L19,90.61l1.88,1.56-.62-2.36,2.44,0Zm-1.3,1.49-.71-.59-.39.83-.17-.9-.83.38.45-.8-.89-.24.86-.32-.52-.76.87.31.08-.92.47.8L19.3,87l-.15.91.92-.08-.7.6.75.53H19.2Z"/><path d="M8.94,62.11l2.22-1.89-2.91.24.49-2.87-2.08,2L5.19,57.12,4.92,60l-2.75-1,1.66,2.39-2.73,1,2.81.77L2.47,65.77l2.65-1.22.52,2.87,1.25-2.64,2.25,1.86L8.4,63.82l2.92,0ZM7.32,63l.35,1.35L6.6,63.45,6,64.71l-.25-1.37-1.27.58.69-1.21-1.35-.37,1.31-.49-.79-1.14,1.31.46.13-1.39L6.49,61l1-1-.23,1.37,1.39-.11-1.06.9L8.71,63Z"/><path d="M66.61,6.45l-3.07-.54,3.07-.55.54-3.07.55,3.07,3.07.55-3.07.54-.55,3.07Z"/><path d="M79.68,33.51,76.61,33l3.07-.55.54-3.07.55,3.07,3.07.55-3.07.54-.55,3.07Z"/><path d="M100.58,50.24l-2.75-.49,2.75-.49.48-2.75.49,2.75,2.75.49-2.75.49L101.06,53Z"/><path d="M94.34,76.79l-2.75-.49,2.75-.49.48-2.75.49,2.75,2.75.49-2.75.49-.49,2.75Z"/><path d="M71.27,98.35l-3.46-.61,3.46-.61.61-3.46.61,3.46,3.46.61-3.46.61-.61,3.46Z"/><path d="M37.15,9.52l-.54-3.07-3.08-.54,3.08-.55.54-3.07.54,3.07,3.08.55-3.08.54Z"/><path d="M24.08,36.58l-.54-3.07L20.47,33l3.07-.55.54-3.07.55,3.07L27.7,33l-3.07.54Z"/><path d="M3.24,53l-.49-2.75L0,49.75l2.75-.49.49-2.75.49,2.75,2.75.49-2.75.49Z"/><path d="M9.48,79.54,9,76.79,6.24,76.3,9,75.81l.49-2.75L10,75.81l2.75.49L10,76.79Z"/><path d="M32.42,101.81l-.61-3.46-3.46-.61,3.46-.61.61-3.46L33,97.13l3.46.61L33,98.35Z"/><path d="M64.07,15.73a1.77,1.77,0,1,0,1.77,1.77A1.77,1.77,0,0,0,64.07,15.73Zm0,2.87a1.1,1.1,0,1,1,1.1-1.1A1.1,1.1,0,0,1,64.07,18.6Z"/><path d="M95.82,24.56a1.77,1.77,0,1,0,1.77,1.77A1.77,1.77,0,0,0,95.82,24.56Zm0,2.87a1.1,1.1,0,1,1,1.1-1.1A1.1,1.1,0,0,1,95.82,27.43Z"/><path d="M68.29,85.64a1.77,1.77,0,1,0,1.77,1.77A1.77,1.77,0,0,0,68.29,85.64Zm0,2.87a1.1,1.1,0,1,1,1.1-1.1A1.1,1.1,0,0,1,68.29,88.51Z"/><path d="M82.31,58.84a1.77,1.77,0,1,0,1.77,1.77A1.77,1.77,0,0,0,82.31,58.84Zm0,2.87a1.1,1.1,0,1,1,1.1-1.1A1.1,1.1,0,0,1,82.31,61.71Z"/><path d="M40.24,15.73A1.77,1.77,0,1,0,42,17.5,1.77,1.77,0,0,0,40.24,15.73Zm0,2.87a1.1,1.1,0,1,1,1.1-1.1A1.1,1.1,0,0,1,40.24,18.6Z"/><path d="M8.49,24.56a1.77,1.77,0,1,0,1.77,1.77A1.77,1.77,0,0,0,8.49,24.56Zm0,2.87a1.1,1.1,0,1,1,1.1-1.1A1.1,1.1,0,0,1,8.49,27.43Z"/><path d="M36,85.64a1.77,1.77,0,1,0,1.77,1.77A1.77,1.77,0,0,0,36,85.64Zm0,2.87a1.1,1.1,0,1,1,1.1-1.1A1.1,1.1,0,0,1,36,88.51Z"/><path d="M22,58.84a1.77,1.77,0,1,0,1.77,1.77A1.77,1.77,0,0,0,22,58.84Zm0,2.87a1.1,1.1,0,1,1,1.1-1.1A1.1,1.1,0,0,1,22,61.71Z"/></g></g></svg>