<svg xmlns="http://www.w3.org/2000/svg" viewBox="0 0 113.59 113.59"><defs><style>.cls-1{fill:#1a1a1a;}</style></defs><title>Asset 450</title><g id="Layer_2" data-name="Layer 2"><g id="Layer_1-2" data-name="Layer 1"><path class="cls-1" d="M76.78,67.75a2,2,0,0,0-1.24-1,48.1,48.1,0,0,0-7.93-1.38V40.52a49.76,49.76,0,0,0,7.93-1.37,2.09,2.09,0,0,0-1.18-4c-.06,0-6,1.68-16.23,1.68a71.52,71.52,0,0,1-16.28-1.7,2.09,2.09,0,1,0-1.07,4,59.28,59.28,0,0,0,7.87,1.33V65.4a58.49,58.49,0,0,0-7.87,1.33,2.09,2.09,0,0,0,1.07,4,70.77,70.77,0,0,1,16.28-1.7c2.62,0,6.43.22,7.43.3a52.11,52.11,0,0,1,8.8,1.38A2.09,2.09,0,0,0,76.78,67.75ZM63.43,65a93.75,93.75,0,0,0-10.6,0V40.84a91.47,91.47,0,0,0,10.6,0Z"/><path class="cls-1" d="M46.19,81.38a.38.38,0,0,1-.19-.19.67.67,0,0,1,0-.31.78.78,0,0,0,0-.39.71.71,0,0,0-.28-.26A3.3,3.3,0,0,0,43.7,80a6.09,6.09,0,0,0-2.29.72,3.62,3.62,0,0,0-1.5,1.38.82.82,0,0,0,.3,1.27,3.09,3.09,0,0,0,1,.33,5.75,5.75,0,0,0,1.52,0A2.08,2.08,0,0,0,44,83.41a4.7,4.7,0,0,0,.61-.64.45.45,0,0,1,.36-.22.92.92,0,0,1,.46.15c.4.22.53.46.38.72a1.54,1.54,0,0,1-.43.4,5.81,5.81,0,0,0-.57.5h0a10.32,10.32,0,0,0-.75.83,6.12,6.12,0,0,0-.59.8c-.18.33-.31.56-.39.68a.62.62,0,0,1-.26.27.63.63,0,0,1-.3.07.76.76,0,0,1-.32-.08.88.88,0,0,1-.36-.42.55.55,0,0,1,0-.5,4.16,4.16,0,0,1,.48-.56c.26-.29.48-.54.65-.75a5.63,5.63,0,0,1-3.33-.45,2.1,2.1,0,0,1-1-1.18,1.79,1.79,0,0,1,.2-1.49,4.7,4.7,0,0,1,2.11-1.94h0a7.38,7.38,0,0,1,3-.77,5.06,5.06,0,0,1,2.65.58,2,2,0,0,1,.81.73.69.69,0,0,1,.06.71,1.26,1.26,0,0,1-.56.45A.71.71,0,0,1,46.19,81.38Zm5.19,2.11a1.14,1.14,0,0,1,.11.9,2.22,2.22,0,0,1-1.28,1.34,4.81,4.81,0,0,1-2.44.42c-.11,0-.18,0-.2.13a.59.59,0,0,0,.09.5.79.79,0,0,0,.51.36,2.94,2.94,0,0,0,2.28-.41.58.58,0,0,1,.42-.09.29.29,0,0,1,.22.41c-.1.33-.5.64-1.22.93a3.33,3.33,0,0,1-2.18.13,1.88,1.88,0,0,1-1.19-.89,2,2,0,0,1-.08-1.55,3.89,3.89,0,0,1,1.7-2.21,2.93,2.93,0,0,1,2.45-.57A1.28,1.28,0,0,1,51.38,83.49Zm-1,.8a.41.41,0,0,0,0-.29.37.37,0,0,0-.21-.18,1.51,1.51,0,0,0-1.14.33A3.29,3.29,0,0,0,48,85.25,3.16,3.16,0,0,0,49.54,85C50,84.79,50.32,84.55,50.39,84.29Zm11.88,4a.92.92,0,0,1-.45-.61,7.4,7.4,0,0,1-.2-1.35,4.38,4.38,0,0,0-.35-1.6.91.91,0,0,0-.83-.48,1.39,1.39,0,0,0-.93.39,5.79,5.79,0,0,0-1.08,1.62,4.29,4.29,0,0,1-.66,1.1c-.08,0-.12-.38-.12-1.15a2.9,2.9,0,0,0-.28-1.62,1,1,0,0,0-.78-.38c-.8,0-1.71,1-2.72,3.08a5.29,5.29,0,0,1,.17-1,8.52,8.52,0,0,0,.29-1.49c0-.59-.25-.9-.77-.9a.51.51,0,0,0-.36.12.45.45,0,0,0-.14.33A9.35,9.35,0,0,1,52.91,86a16.71,16.71,0,0,0-.2,2.58c0,.62.22.94.68.94A.53.53,0,0,0,54,89a13.64,13.64,0,0,1,1.28-2.18c.56-.81.92-1.22,1.07-1.22s.16.46.17,1.38.11,1.63.31,1.8a1,1,0,0,0,.61.25,1,1,0,0,0,.73-.36A6.25,6.25,0,0,0,59,87.34c.37-.7.63-1.17.77-1.4s.27-.35.34-.35.15.08.2.24a7.51,7.51,0,0,1,.11,1,5.22,5.22,0,0,0,.38,2,.92.92,0,0,0,.83.51,1.07,1.07,0,0,0,.61-.21q.3-.21.3-.42A.39.39,0,0,0,62.27,88.3Zm2.95-1c0-.25-.1-.57-.14-1a8.46,8.46,0,0,1,0-1.59v-.12a3.4,3.4,0,0,0,0-.83.46.46,0,0,0-.27-.31.82.82,0,0,0-.57,0,.51.51,0,0,0-.41.34,1,1,0,0,0,0,.63c0,.09,0,.43.05,1h0c0,.16,0,.33,0,.51A9.9,9.9,0,0,0,64.07,88c.14.64.43.92.88.82a.78.78,0,0,0,.44-.29c.12-.16.17-.27.15-.35a.63.63,0,0,0,0-.14A5,5,0,0,1,65.22,87.3Zm-1-5.43a.75.75,0,0,0,.59.13,1,1,0,0,0,.51-.38.77.77,0,0,0,.2-.67.63.63,0,0,0-.31-.41.82.82,0,0,0-.59-.07,1,1,0,0,0-.63.36.75.75,0,0,0-.11.61A.66.66,0,0,0,64.2,81.87Zm9,2.6a.84.84,0,0,0-.25.16,1.14,1.14,0,0,1-.24.15c-.17.06-.54-.45-1.12-1.54s-1.23-1.46-2-1.16-1.34,1.42-1.44,3.26a10.74,10.74,0,0,0-.38-1.8c-.15-.39-.3-.6-.43-.65a.71.71,0,0,0-.49,0,.63.63,0,0,0-.32.41.81.81,0,0,0,0,.55,13.37,13.37,0,0,1,.76,2.5,7.42,7.42,0,0,0,.25,1c.16.43.49.55,1,.35a.34.34,0,0,0,.19-.2.62.62,0,0,0,.05-.36A9.45,9.45,0,0,1,69.11,85c.25-1,.5-1.6.73-1.7s.56.24.94,1a5,5,0,0,0,.94,1.41h0a.89.89,0,0,0,1,.15,1.32,1.32,0,0,0,.7-.58.8.8,0,0,0,.13-.63A.24.24,0,0,0,73.2,84.47ZM76,83.76a3.68,3.68,0,0,1-.51-.64c-.13-.21-.28-.5-.46-.86a9.68,9.68,0,0,1-.51-1.51l0-.11a3.41,3.41,0,0,0-.25-.8.47.47,0,0,0-.35-.21.9.9,0,0,0-.56.15.59.59,0,0,0-.28.46,1.11,1.11,0,0,0,.17.61,9.17,9.17,0,0,1,.39,1h0l.18.48a10.28,10.28,0,0,0,.84,1.88c.34.56.71.73,1.1.49a.73.73,0,0,0,.32-.42.52.52,0,0,0,0-.38Zm-3.26-5.43a.73.73,0,0,0,.6-.07,1,1,0,0,0,.36-.53.78.78,0,0,0,0-.7.6.6,0,0,0-.42-.28.81.81,0,0,0-.59.12,1,1,0,0,0-.47.55.67.67,0,0,0,.09.61A.65.65,0,0,0,72.78,78.33Z"/><path class="cls-1" d="M77.7,57.84l-1,1.44,1,1.44L76,60.2l-1.06,1.4,0-1.76-1.67-.58,1.68-.56,0-1.77L76,58.35ZM32.64,74.06l-1.05-1.42,0,1.76L29.89,75l1.66.58,0,1.77,1.06-1.41,1.69.53-1-1.45,1-1.44ZM63.55,26.15,61.8,23.09l-.48,3.49-3.46.72L61,28.84l-.38,3.51,2.45-2.54,3.21,1.45-1.66-3.11L67,25.53Zm23,42.64-.71-2.55-1,2.45-2.64-.12,2,1.71-.93,2.48,2.25-1.4L87.63,73,87,70.44,89.21,69Zm-54-15.1-2.3-4.1-.68,4.66-4.62.92,4.22,2.09-.55,4.67,3.29-3.36,4.28,2L34,56.36l3.19-3.46ZM41,46.08l0-1.76-1,1.43-1.7-.49,1,1.42-1,1.46L40,47.59,41,49V47.22l1.66-.6ZM45.54,28.3l-.19-1.64-.85,1.42-1.63-.33L44,29l-.81,1.45,1.52-.65L45.8,31l-.15-1.65,1.51-.69ZM56.81,74.67l-.42-2.61-1.26,2.33L52.51,74l1.83,1.91-1.19,2.37,2.39-1.15L57.42,79l-.36-2.63,2.36-1.21ZM83.48,48.58l3.3,3.36-.56-4.67,4.22-2.1-4.62-.92-.68-4.65-2.3,4.1-4.64-.78,3.19,3.46-2.18,4.17Z"/><path class="cls-1" d="M56.79,113.59a56.8,56.8,0,1,1,56.8-56.8A56.86,56.86,0,0,1,56.79,113.59Zm0-112.34a55.55,55.55,0,1,0,55.55,55.54A55.61,55.61,0,0,0,56.79,1.25Z"/><path class="cls-1" d="M55.72,95.91A38.79,38.79,0,1,1,94.5,57.13,38.83,38.83,0,0,1,55.72,95.91Zm0-76.32A37.54,37.54,0,1,0,93.25,57.13,37.58,37.58,0,0,0,55.72,19.59Z"/><path class="cls-1" d="M76.16,10.38a4.66,4.66,0,0,1-1.11,2l-.07.07-1.19-.28L74,12a4.26,4.26,0,0,0,1-1.8A1.91,1.91,0,0,0,75,9a.89.89,0,0,0-.63-.56c-.67-.15-1.51.5-2.5,1.93a18.5,18.5,0,0,0-1.58,3.06A23.14,23.14,0,0,0,69.09,17l-.16.67-1.13-.26.17-.71a22.91,22.91,0,0,0,.5-3.57,17.75,17.75,0,0,0,0-3.31C68.21,8,67.73,7,67,6.8a.89.89,0,0,0-.81.22,1.86,1.86,0,0,0-.54,1,3.77,3.77,0,0,0,.15,2l.08.26L64.73,10l0-.09a4.43,4.43,0,0,1-.12-2.26,2.62,2.62,0,0,1,1-1.59,2.05,2.05,0,0,1,1.71-.35c1,.23,1.66,1.08,2,2.53a12.75,12.75,0,0,1,.17,4.46,12.33,12.33,0,0,1,2.11-3.89c1-1.15,2-1.61,3-1.39A2,2,0,0,1,76,8.51,2.59,2.59,0,0,1,76.16,10.38Z"/><path class="cls-1" d="M97.91,24a2.64,2.64,0,0,0-2.65-.53l-.92.18a2.86,2.86,0,0,1-1.4,0,2.32,2.32,0,0,1-1-.73,2.23,2.23,0,0,1-.59-1.12,2.94,2.94,0,0,1,.19-1.39l.3-.89a2.64,2.64,0,0,0-.18-2.7l-.38-.43-.71.62.2.24c.31.34.33.89.06,1.64l-.23.65a5.17,5.17,0,0,0-.33,1.35,3.06,3.06,0,0,0,.09.83,4,4,0,0,0-1.81-.13,3.58,3.58,0,0,0-1.82.86,3.62,3.62,0,0,0-1.24,2.59,3.73,3.73,0,0,0,3.51,4h.31a3.64,3.64,0,0,0,3.51-2.59,4.11,4.11,0,0,0,.11-1.82,2.84,2.84,0,0,0,.8.2,5.25,5.25,0,0,0,1.39-.16l.68-.14a1.62,1.62,0,0,1,1.62.27l.2.23.71-.62Zm-7,3.3a2.46,2.46,0,0,1-1.89.62A2.54,2.54,0,0,1,87.24,27a2.59,2.59,0,0,1-.66-1.91,2.44,2.44,0,0,1,.86-1.78,2.5,2.5,0,0,1,1.69-.65h.21a2.64,2.64,0,0,1,1.58,4.6Z"/><path class="cls-1" d="M109,48.86a17.71,17.71,0,0,1-1.53-4.39,17.85,17.85,0,0,1-.52-4.62v-.21l-1,.23V40A12.29,12.29,0,0,0,106,42.1L99.2,43.66a17.62,17.62,0,0,0-.87-1.93l-.06-.1-1,.22.09.18a19,19,0,0,1,2,9v.21l1-.23V50.9a16.1,16.1,0,0,0,0-2.12l6.84-1.55a12.72,12.72,0,0,0,.87,1.93l.06.1,1-.22Zm-8.84-1.23c-.06-.44-.15-.93-.26-1.44s-.25-1-.39-1.42l6.68-1.52c.06.4.16.89.29,1.44s.24,1,.36,1.43Z"/><path class="cls-1" d="M107.57,68A2.88,2.88,0,0,0,106,65.38a2.3,2.3,0,0,0-3,1.24,2.27,2.27,0,0,0,0,1.77,2.2,2.2,0,0,0,1.24,1.26,2.29,2.29,0,0,0,1.3.16,2.43,2.43,0,0,0,.94-.41,7.51,7.51,0,0,1-.59,2.22,12.34,12.34,0,0,1-3,4.24l-.18.16,1.16.49.08-.07a11.61,11.61,0,0,0,2.91-4A9.08,9.08,0,0,0,107.57,68Zm-1.17,0a1.41,1.41,0,0,1-.78.79,1.31,1.31,0,0,1-1.08,0,1.36,1.36,0,0,1-.78-.78,1.4,1.4,0,0,1,0-1.1,1.35,1.35,0,0,1,.78-.77,1.36,1.36,0,0,1,1.1,0A1.39,1.39,0,0,1,106.4,68ZM103,71.91a2.2,2.2,0,0,0-1.24-1.26,2.28,2.28,0,0,0-1.3-.16,2.5,2.5,0,0,0-.94.41,7.34,7.34,0,0,1,.6-2.22,12.21,12.21,0,0,1,3-4.24l.17-.16-1.16-.48-.08.06a11.7,11.7,0,0,0-2.91,4,9.17,9.17,0,0,0-.8,4.43A2.86,2.86,0,0,0,100,74.92a2.17,2.17,0,0,0,.73.18,2.34,2.34,0,0,0,1-.18A2.22,2.22,0,0,0,103,73.68,2.27,2.27,0,0,0,103,71.91Zm-.81,1.43a1.36,1.36,0,0,1-.77.77,1.38,1.38,0,0,1-1.11,0,1.34,1.34,0,0,1-.77-.76,1.4,1.4,0,0,1,0-1.08,1.44,1.44,0,0,1,.78-.79,1.32,1.32,0,0,1,1.09,0,1.37,1.37,0,0,1,.77.78A1.36,1.36,0,0,1,102.15,73.34Z"/><path class="cls-1" d="M93.8,91.27a4.35,4.35,0,0,0-1.69-.91,3,3,0,0,0,.32-.28A2.24,2.24,0,0,0,93,88.4a2.31,2.31,0,0,0-.75-1.63,2.38,2.38,0,0,0-4,1.81A2.25,2.25,0,0,0,89,90.21a4.78,4.78,0,0,0,1.68.78l.49.15a4.75,4.75,0,0,1,1.82.94,1.87,1.87,0,0,1,.66,1.37,2,2,0,0,1-.6,1.43,2,2,0,0,1-1.49.72A2.27,2.27,0,0,1,90,94.92,5.48,5.48,0,0,1,88.82,93l-.48-1.2a9.09,9.09,0,0,0-1.73-3.09,1.88,1.88,0,0,0-1.43-.53,2,2,0,0,0-1.39.66A3,3,0,0,0,83.13,91v.16h1V91a2.11,2.11,0,0,1,.4-1.37.79.79,0,0,1,.63-.28,1,1,0,0,1,.69.29,9.93,9.93,0,0,1,1.4,2.72l.36.87a13.2,13.2,0,0,0,.76,1.64,4.13,4.13,0,0,0,.8.94,3.12,3.12,0,0,0,2.31.92h.16a3.38,3.38,0,0,0,2.11-1.14,3.27,3.27,0,0,0,.93-2.22A2.72,2.72,0,0,0,93.8,91.27Zm-2.07-1.83a1.37,1.37,0,0,1-1,.45,1.41,1.41,0,0,1-1-.39,1.37,1.37,0,0,1-.47-1,1.39,1.39,0,0,1,.37-1,1.33,1.33,0,0,1,.86-.44h.12a1.43,1.43,0,0,1,1,.41,1.38,1.38,0,0,1,.46,1A1.31,1.31,0,0,1,91.73,89.44Z"/><path class="cls-1" d="M75.53,106.26a3.92,3.92,0,0,1-1.33-1.91l-2-6-1.1.36,1.7,5.17a6.64,6.64,0,0,1-.38,2.5,5.25,5.25,0,0,1-.82-1.73l-1.81-5.51-1.11.36,1.64,5a6.24,6.24,0,0,1-.31,2.69,4.2,4.2,0,0,1-.74-1.46l-1.61-4.89a7.27,7.27,0,0,0-.39-1,5.54,5.54,0,0,1,1.39-1l.11-.06-.33-1-.16.08A6.08,6.08,0,0,0,66.74,99a4.4,4.4,0,0,0-.91-.85l-.06,0-1.33.44.27.17A3.7,3.7,0,0,1,66,99.91a6.57,6.57,0,0,0-.9,2.39,5.24,5.24,0,0,0,.21,2.42,5.5,5.5,0,0,0,1.83,2.59l.1.08.72-.57v0a4.37,4.37,0,0,0,.17-.9l.25.76a3.7,3.7,0,0,0,1.37,1.87l.08.06.87-.48,0,0a5.62,5.62,0,0,0,.4-1.52,3.69,3.69,0,0,0,1.08,1.19l.08.05.87-.47,0-.05a5,5,0,0,0,.39-1.48,3.8,3.8,0,0,0,1,1l.06,0,1.2-.39Zm-8.32-.46a4.51,4.51,0,0,1-.83-1.48,4.43,4.43,0,0,1-.21-1.8,4.8,4.8,0,0,1,.37-1.48l.91,2.79A6.44,6.44,0,0,1,67.21,105.8Z"/><path class="cls-1" d="M45,102.18l3.7,1.28-.39,1.1-2.2-.77a2.3,2.3,0,0,1,0,1.51,2.67,2.67,0,0,1-1.45,1.59,2.87,2.87,0,0,1-1.36.28,3,3,0,0,1-.82-.16,2.79,2.79,0,0,1-1.64-1.45,2.65,2.65,0,0,1-.16-2.15,2.35,2.35,0,0,1,.94-1.18l-2.2-.76.38-1.1,3.7,1.28-.34,1-.09,0a1.65,1.65,0,0,0-1.28,1.1A1.62,1.62,0,0,0,41.9,105a1.68,1.68,0,0,0,1,.87,1.64,1.64,0,0,0,1.3-.08,1.54,1.54,0,0,0,.87-1,1.66,1.66,0,0,0-.32-1.66l0-.06ZM40.66,98l-.39,1.1,8.9,3.09.38-1.1Z"/><path class="cls-1" d="M29.06,90.84l-4.46,4.3a3.72,3.72,0,0,0-1.21,2.11l0,.32-.91-.95,0-.08A4.51,4.51,0,0,1,23,95.26a5.59,5.59,0,0,1-1.5.29h0L20.61,95V94.9a3.31,3.31,0,0,1,.59-1.5,6.4,6.4,0,0,1-1.52.3h-.05l-.83-.57,0-.1A3.74,3.74,0,0,1,20,90.93l3.79-3.66a6.26,6.26,0,0,0,.75-.8.85.85,0,0,0,.16-.46,1.49,1.49,0,0,0-.52-1l-.26-.26-.74.72-.08-2.33,2.28.2-.72.7.43.45a2.2,2.2,0,0,1,.74,1.69,3,3,0,0,1-1,1.76L21.1,91.46a3.79,3.79,0,0,0-1,1.27,6.35,6.35,0,0,0,2.57-.9l3.78-3.65.8.83-4.21,4.07a5.16,5.16,0,0,0-1.17,1.48,6.11,6.11,0,0,0,2.43-.78L28.25,90Z"/><path class="cls-1" d="M17.27,71.58l-.58,1-3.2-1.89L12.2,72.86l-1-.58,1.29-2.19-4.25-2.5.33,2.89-1.16.11L6.9,66.14,11,64.43l.46,1.06L8.81,66.61l4.26,2.49,1.28-2.19,1,.59-1.29,2.19Z"/><path class="cls-1" d="M16.94,43.71A2.18,2.18,0,0,0,17.07,42a2.31,2.31,0,0,0-1.18-1.35,2.12,2.12,0,0,0-1.69-.13,2.2,2.2,0,0,0-1.29,1.12,2.54,2.54,0,0,0,.16,2.57,8.61,8.61,0,0,1-1-.33l-.74-.26-1-.33a11.08,11.08,0,0,0-2.85-.67H7.4L7,43.83l0,.06a8,8,0,0,0,1.88,2.6,9.06,9.06,0,0,0-2.18-.42,1.4,1.4,0,0,0-1.32.86l-.36.71.9.46.15-.28a1,1,0,0,1,1-.59A8.71,8.71,0,0,1,9,47.65a13.56,13.56,0,0,1,2.18.79l.4.21.53-1-.55-.28a7.74,7.74,0,0,1-2-1.63,7.74,7.74,0,0,1-1.35-1.88,11.42,11.42,0,0,1,1.88.53l1.54.55a13.25,13.25,0,0,0,1.43.47,3.75,3.75,0,0,0,.89.06,7.32,7.32,0,0,1,1.49,1.87,1.88,1.88,0,0,1-.28,1.41l-.23.46.9.46.42-.82A2.47,2.47,0,0,0,16.56,47a5.86,5.86,0,0,0-1.28-1.88A3,3,0,0,0,16.94,43.71Zm-.87-.38a2.37,2.37,0,0,1-1.56,1.09c-.84-.92-1.09-1.73-.75-2.38a1.13,1.13,0,0,1,.72-.61,1.31,1.31,0,0,1,.62,0,1.16,1.16,0,0,1,.34.12,1.34,1.34,0,0,1,.71.79A1.22,1.22,0,0,1,16.07,43.33Z"/><path class="cls-1" d="M21.73,25.33l-1.62-.7-.66,2.85-1-.22.93-4.05,1.63.7L21.68,21l1.61.7L24,18.86,26.65,20l-.39,1-1.59-.7L24,23.17l-1.62-.7ZM27,22l-.66,2.87-1.62-.7L24,27.08l-1.62-.7-.93,4.05,1,.22.66-2.85,1.62.7.65-2.87,1.62.7.67-2.88,1.59.7.39-1Z"/><path class="cls-1" d="M49.65,15.37l-1.31.36-.05,0A7.91,7.91,0,0,1,46.45,14a6.12,6.12,0,0,1-1-1.92L44,12.43a6.21,6.21,0,0,1,.07,2.17A7.74,7.74,0,0,1,43.37,17l0,.06L42,17.42l.18-.32a6.08,6.08,0,0,0,.7-4.38l-1.73.47-.25-.91,1.73-.47A6.42,6.42,0,0,0,40,8.72l-.3-.19,1.26-.33.05,0a6.87,6.87,0,0,1,2.81,3.28l1.42-.38A6.83,6.83,0,0,1,46,6.89l0-.06,1.25-.34-.16.31a6.36,6.36,0,0,0-.79,4L48,10.37l.24.91-1.74.47a6.09,6.09,0,0,0,2.81,3.43Z"/></g></g></svg>