<svg xmlns="http://www.w3.org/2000/svg" viewBox="0 0 113.59 113.59"><defs><style>.cls-1{fill:#1a1a1a;}</style></defs><title>Asset 453</title><g id="Layer_2" data-name="Layer 2"><g id="Layer_1-2" data-name="Layer 1"><path class="cls-1" d="M70.46,44.38a5.87,5.87,0,0,0-5,2c0-4.84-1-8.52-2.85-10.41a4.8,4.8,0,0,0-3.48-1.52,5.78,5.78,0,0,0-5,2.76,5.16,5.16,0,0,0-4.43-2.79,5.81,5.81,0,0,0-5.08,3,5.52,5.52,0,0,0-4.63-2.91,1.83,1.83,0,1,0,0,3.66,1.43,1.43,0,0,1,1,.51c1.3,1.32,2,4.56,2,8.46-.09,4.41,0,8,0,16a1.83,1.83,0,0,0,3.66,0c0-2.86,0-5.14,0-7.15,0-9.73.1-9,0-11,0-3,.59-5.29,1.61-6.31a2,2,0,0,1,1.5-.6,1.13,1.13,0,0,1,.85.41c1.66,1.7,1.86,6.21,1.81,8.57-.09,4.47,0,8,0,16.05a1.83,1.83,0,1,0,3.65,0c0-2.85,0-5.13,0-7.16,0-9.67.11-9,0-11.09,0-2.91.6-5.15,1.6-6.14a2,2,0,0,1,1.5-.62,1.16,1.16,0,0,1,.87.42c1.22,1.25,1.89,4.45,1.81,8.57-.07,3.36,0,8.44,0,11.47a34.28,34.28,0,0,0,.53,7.51,32.8,32.8,0,0,1-4.87,2.13,1.83,1.83,0,1,0,1.2,3.45,37.32,37.32,0,0,0,4.92-2.1A9,9,0,0,0,69,74a1.83,1.83,0,0,0,1.11-3.48,5.48,5.48,0,0,1-3.39-2.81C79.47,59,76.8,45,70.46,44.38ZM65.67,63.91c-.21-1.59-.19-2.19-.22-8.74.22-1,1.67-7.43,4.67-7.15.73.07,1.66,1.4,1.91,3.44C72.49,55.26,70.65,60.09,65.67,63.91Z"/><path class="cls-1" d="M52.39,82.78s0,0,0,0l0,0A.5.5,0,0,0,52,82c-.25-.08-.64.06-1.18.44a18.62,18.62,0,0,0-2.11,1.81c-.48.45-1.06,1-1.73,1.5l-.12.1c-.27.24-.45.39-.52.44-.07-.53-.16-1.34-.25-2.43a14.42,14.42,0,0,1-.07-2.22,2,2,0,0,0-.06-1,.68.68,0,0,0-.38-.31.57.57,0,0,0-.58.13,1,1,0,0,0-.31.4c0,.07.06,1.12.25,3.17.09,1,.15,1.77.19,2.36a7.51,7.51,0,0,0,.11,1,.44.44,0,0,0,.24.34,1.35,1.35,0,0,0,.68.06.66.66,0,0,0,.46-.26,3.78,3.78,0,0,1,.88-.82l1.1-.9c.92-.79,1.56-1.32,1.89-1.59s.78-.61,1.33-1A3.25,3.25,0,0,0,52.39,82.78Z"/><path class="cls-1" d="M54.06,81.38a.92.92,0,0,0-.7.13.72.72,0,0,0-.31.54.68.68,0,0,0,.17.51.75.75,0,0,0,.52.32,1,1,0,0,0,.61-.19.76.76,0,0,0,.4-.57.59.59,0,0,0-.15-.48A.82.82,0,0,0,54.06,81.38Z"/><path class="cls-1" d="M52.79,84.06a.55.55,0,0,0-.5.19,1.06,1.06,0,0,0-.24.58,9.89,9.89,0,0,1-.3,1h0c0,.15-.1.32-.15.49a9.88,9.88,0,0,0-.51,2c-.08.65.1,1,.56,1.06a.72.72,0,0,0,.5-.13q.26-.17.27-.27v-.15a4.46,4.46,0,0,1,0-.81q0-.36.18-1a8.46,8.46,0,0,1,.54-1.49l0-.1a3.87,3.87,0,0,0,.3-.79.46.46,0,0,0-.16-.37A.84.84,0,0,0,52.79,84.06Z"/><path class="cls-1" d="M59.9,85a.83.83,0,0,0-.34-.65,1.36,1.36,0,0,0-.87-.26,2,2,0,0,0-1.4.77,8.07,8.07,0,0,0-1.33,2l-.09.16.12-.76a5.29,5.29,0,0,1,.13-.61,3.58,3.58,0,0,0,.22-1,.46.46,0,0,0-.15-.33.55.55,0,0,0-.42-.15.76.76,0,0,0-.48.17.68.68,0,0,0-.28.34,3,3,0,0,0-.09.66c0,.08,0,.2,0,.34-.05.56-.09,1-.1,1.41s0,.73,0,1A3.7,3.7,0,0,0,55,89.32a.52.52,0,0,0,.51.38.78.78,0,0,0,.53-.17.87.87,0,0,0,.25-.58,5.19,5.19,0,0,1,1.06-2.6q.9-1.16,1.29-1.17a.62.62,0,0,1,.3.16.83.83,0,0,0,.59.25.37.37,0,0,0,.31-.18A.68.68,0,0,0,59.9,85Z"/><path class="cls-1" d="M65,84.62a3.2,3.2,0,0,0,.07-.63.86.86,0,0,0-.17-.33.84.84,0,0,0-.29-.26l-.16-.07a1.39,1.39,0,0,0-.86-.07,3.73,3.73,0,0,0-1.78,1.06,5.59,5.59,0,0,0-1.33,1.93A3.08,3.08,0,0,0,60.2,88a1.05,1.05,0,0,0,1.36.89,2.89,2.89,0,0,0,1.21-.65A5,5,0,0,0,63.89,87a8.58,8.58,0,0,1-.12,2.89,1.25,1.25,0,0,1-.91,1,3.94,3.94,0,0,1-2.14-.32,1.75,1.75,0,0,0-.65-.16.35.35,0,0,0-.31.45c.06.27.45.56,1.16.86A3.55,3.55,0,0,0,63,92a2.48,2.48,0,0,0,1.58-1.13,4.15,4.15,0,0,0,.5-2.66c-.11-1.33-.17-2.15-.18-2.49A4.83,4.83,0,0,1,65,84.62ZM63.65,85.7a4.47,4.47,0,0,1-.81,1.37,2.11,2.11,0,0,1-1.2.77c-.13,0-.21,0-.25-.21a2.35,2.35,0,0,1,.28-1.31,5,5,0,0,1,.9-1.38,2,2,0,0,1,.9-.62.25.25,0,0,1,.23.06.34.34,0,0,1,.15.25A2.17,2.17,0,0,1,63.65,85.7Z"/><path class="cls-1" d="M71,83.45a3.58,3.58,0,0,0-.2-.71,2.16,2.16,0,0,0-1.08-1.16,1.81,1.81,0,0,0-1.56,0,2.67,2.67,0,0,0-1.58,2,4.12,4.12,0,0,0,.11,2.66,1.85,1.85,0,0,0,1,1,1.66,1.66,0,0,0,1.38,0,3.15,3.15,0,0,0,1.49-1.47,3.91,3.91,0,0,0,.48-2.3Zm-1.33,1.62a1.91,1.91,0,0,1-1,1.18.46.46,0,0,1-.49-.09,1.29,1.29,0,0,1-.4-.56,2.93,2.93,0,0,1-.2-1.37,3.22,3.22,0,0,1,.29-1.18h0a1.05,1.05,0,0,1,.55-.49.68.68,0,0,1,.7.06,1.38,1.38,0,0,1,.53.68A2.31,2.31,0,0,1,69.69,85.07Z"/><path class="cls-1" d="M88.74,49.84l1,1.44-1.67-.52L87,52.16l0-1.76-1.66-.58L87,49.27l0-1.76,1,1.41,1.68-.51ZM82.23,68.09l-1.74-3L80,68.52l-3.44.71,3.16,1.54-.38,3.49,2.44-2.53L85,73.18l-1.65-3.1,2.36-2.6ZM75.82,34.74l2.62-2.85-3.81.65-1.9-3.37L72.17,33l-3.79.76,3.47,1.71-.45,3.85,2.7-2.77,3.52,1.62Zm-27.3-7.38-.05-1.76-1,1.43-1.69-.49,1,1.41-1,1.46,1.67-.55,1.08,1.39V28.49l1.66-.59ZM60.58,77.53l0-1.75-1,1.42-1.69-.49,1,1.42-1,1.45L59.53,79l1.07,1.39V78.67l1.65-.6ZM35.33,71.31l-1.42-2.66-.51,3-3,.53,2.67,1.4-.42,3,2.16-2.1,2.71,1.32-1.34-2.7,2.1-2.17ZM33.12,55.54l4.2-2.08-4.6-.92L32,47.91,29.75,52l-4.62-.78,3.18,3.44-2.17,4.16,4.25-2,3.28,3.35Z"/><path class="cls-1" d="M56.79,113.59a56.8,56.8,0,1,1,56.8-56.8A56.86,56.86,0,0,1,56.79,113.59Zm0-112.34a55.55,55.55,0,1,0,55.55,55.54A55.61,55.61,0,0,0,56.79,1.25Z"/><path class="cls-1" d="M55.72,95.91A38.79,38.79,0,1,1,94.5,57.13,38.83,38.83,0,0,1,55.72,95.91Zm0-76.32A37.54,37.54,0,1,0,93.25,57.13,37.58,37.58,0,0,0,55.72,19.59Z"/><path class="cls-1" d="M75.86,10.38a4.69,4.69,0,0,1-1.12,2l-.06.07-1.19-.28.18-.19a4.26,4.26,0,0,0,1-1.8,2,2,0,0,0,0-1.17.87.87,0,0,0-.62-.56c-.67-.15-1.52.5-2.5,1.93A17.08,17.08,0,0,0,70,13.43,23.25,23.25,0,0,0,68.78,17l-.15.67-1.13-.26.16-.71a21.71,21.71,0,0,0,.51-3.57,17.75,17.75,0,0,0,0-3.31C67.9,8,67.43,7,66.73,6.8a.84.84,0,0,0-.8.22,1.93,1.93,0,0,0-.55,1,3.77,3.77,0,0,0,.15,2l.09.26L64.42,10l0-.09a4.56,4.56,0,0,1-.13-2.26,2.67,2.67,0,0,1,1-1.59A2,2,0,0,1,67,5.74c1,.23,1.67,1.08,2,2.53a12.52,12.52,0,0,1,.17,4.46,12.14,12.14,0,0,1,2.12-3.89c1-1.15,2-1.62,3-1.39a2.07,2.07,0,0,1,1.38,1.06A2.64,2.64,0,0,1,75.86,10.38Z"/><path class="cls-1" d="M97.61,24A2.66,2.66,0,0,0,95,23.48l-.91.18a2.9,2.9,0,0,1-1.41,0,2.24,2.24,0,0,1-1-.73,2.34,2.34,0,0,1-.6-1.12,3,3,0,0,1,.2-1.39l.3-.89a2.66,2.66,0,0,0-.19-2.7l-.37-.43-.72.62.21.24c.3.34.32.89.06,1.64l-.23.65a5.17,5.17,0,0,0-.33,1.35,2.43,2.43,0,0,0,.09.83,4.05,4.05,0,0,0-1.82-.13,3.63,3.63,0,0,0-3,3.45,3.71,3.71,0,0,0,3.51,4H89a3.57,3.57,0,0,0,2.43-.9,3.64,3.64,0,0,0,1.09-1.69,4.11,4.11,0,0,0,.1-1.82,2.82,2.82,0,0,0,.81.2,5.18,5.18,0,0,0,1.38-.16l.68-.14a1.62,1.62,0,0,1,1.62.27l.2.23.72-.62Zm-7,3.3a2.44,2.44,0,0,1-1.88.62,2.57,2.57,0,0,1-1.8-.89,2.63,2.63,0,0,1-.66-1.91,2.59,2.59,0,0,1,2.55-2.43H89a2.56,2.56,0,0,1,1.81.9,2.62,2.62,0,0,1-.23,3.7Z"/><path class="cls-1" d="M108.73,48.86a17.69,17.69,0,0,1-1.54-4.39,17.79,17.79,0,0,1-.51-4.62v-.21l-1,.23V40a12.29,12.29,0,0,0,.06,2.11l-6.85,1.56A14.5,14.5,0,0,0,98,41.73l0-.1-1,.22.09.18a19.37,19.37,0,0,1,2,9v.21l1-.23V50.9a18,18,0,0,0,0-2.12l6.84-1.55a12.72,12.72,0,0,0,.87,1.93l0,.1,1-.22Zm-8.84-1.23c-.06-.44-.15-.93-.27-1.44s-.25-1-.39-1.42l6.68-1.52c.07.4.17.89.29,1.44s.25,1,.36,1.42Z"/><path class="cls-1" d="M107.26,68a2.86,2.86,0,0,0-1.61-2.62,2.3,2.3,0,0,0-3,3,2.2,2.2,0,0,0,1.24,1.26,2.28,2.28,0,0,0,1.3.16,2.43,2.43,0,0,0,.94-.41,7.51,7.51,0,0,1-.59,2.22,12.37,12.37,0,0,1-3.06,4.24l-.18.16,1.17.48.07-.06a11.52,11.52,0,0,0,2.92-4A9.17,9.17,0,0,0,107.26,68Zm-1.16,0a1.44,1.44,0,0,1-.78.79,1.4,1.4,0,0,1-1.86-.77,1.43,1.43,0,0,1,.77-1.87,1.38,1.38,0,0,1,1.11,0,1.3,1.3,0,0,1,.76.76A1.35,1.35,0,0,1,106.1,68Zm-3.44,3.87a2.35,2.35,0,0,0-2.54-1.42,2.43,2.43,0,0,0-.94.41,7.59,7.59,0,0,1,.59-2.22,12.34,12.34,0,0,1,3-4.24l.18-.16-1.17-.48-.07.06a11.7,11.7,0,0,0-2.91,4,9.17,9.17,0,0,0-.8,4.43,2.87,2.87,0,0,0,1.6,2.62,2.23,2.23,0,0,0,.74.18,2.3,2.3,0,0,0,1-.18,2.21,2.21,0,0,0,1.25-1.24A2.27,2.27,0,0,0,102.66,71.91Zm-.81,1.43a1.37,1.37,0,0,1-.78.77,1.36,1.36,0,0,1-1.1,0,1.39,1.39,0,0,1-.76-1.84,1.41,1.41,0,0,1,.78-.79,1.46,1.46,0,0,1,.64-.12,1.42,1.42,0,0,1,.44.11,1.44,1.44,0,0,1,.78,1.88Z"/><path class="cls-1" d="M93.5,91.27a4.35,4.35,0,0,0-1.69-.91,2.89,2.89,0,0,0,.31-.28,2.2,2.2,0,0,0,.6-1.68A2.27,2.27,0,0,0,92,86.77a2.37,2.37,0,0,0-3.37.11,2.3,2.3,0,0,0-.63,1.7,2.25,2.25,0,0,0,.72,1.63,4.6,4.6,0,0,0,1.68.78l.49.15a4.63,4.63,0,0,1,1.81.94,1.83,1.83,0,0,1,.66,1.37,2,2,0,0,1-.59,1.43,2,2,0,0,1-1.5.72,2.24,2.24,0,0,1-1.58-.68A5.33,5.33,0,0,1,88.52,93L88,91.82a9.06,9.06,0,0,0-1.74-3.09,1.85,1.85,0,0,0-1.42-.53,2,2,0,0,0-1.39.66A3.09,3.09,0,0,0,82.82,91v.16h1.05V91a2.17,2.17,0,0,1,.39-1.37.8.8,0,0,1,.63-.28,1,1,0,0,1,.69.29A10.14,10.14,0,0,1,87,92.35l.36.87a13.57,13.57,0,0,0,.75,1.64,4.71,4.71,0,0,0,.8.94,3.12,3.12,0,0,0,2.32.92h.15a3.37,3.37,0,0,0,2.12-1.14,3.21,3.21,0,0,0,.92-2.22A2.68,2.68,0,0,0,93.5,91.27Zm-2.08-1.83a1.33,1.33,0,0,1-1,.45,1.43,1.43,0,0,1-1-.39,1.4,1.4,0,0,1-.46-1,1.34,1.34,0,0,1,.36-1,1.38,1.38,0,0,1,.86-.44h.12a1.41,1.41,0,0,1,1,.41,1.38,1.38,0,0,1,.46,1A1.31,1.31,0,0,1,91.42,89.44Z"/><path class="cls-1" d="M75.23,106.26a4,4,0,0,1-1.34-1.91l-2-6-1.1.36,1.7,5.17a6.64,6.64,0,0,1-.37,2.5,5.44,5.44,0,0,1-.83-1.73l-1.81-5.51-1.11.36,1.64,5a6.09,6.09,0,0,1-.31,2.69,4.2,4.2,0,0,1-.74-1.46l-1.61-4.89a6.07,6.07,0,0,0-.38-1,5.47,5.47,0,0,1,1.38-1l.11-.06-.32-1-.16.08A6.32,6.32,0,0,0,66.43,99a4.37,4.37,0,0,0-.9-.85l-.07,0-1.33.44.28.17a3.65,3.65,0,0,1,1.26,1.2,6.73,6.73,0,0,0-.89,2.39,5.24,5.24,0,0,0,.21,2.42,5.43,5.43,0,0,0,1.83,2.59l.1.08.71-.57,0,0a5.16,5.16,0,0,0,.17-.9l.25.76a3.7,3.7,0,0,0,1.37,1.87l.08.06.86-.48,0,0a5.65,5.65,0,0,0,.41-1.52,3.69,3.69,0,0,0,1.08,1.19l.08.05.87-.47,0-.05a5.68,5.68,0,0,0,.39-1.48,3.77,3.77,0,0,0,.94,1l.07,0,1.2-.39Zm-8.32-.46a4.18,4.18,0,0,1-.83-1.48,4.44,4.44,0,0,1-.22-1.8,5.1,5.1,0,0,1,.37-1.48l.92,2.79A6.44,6.44,0,0,1,66.91,105.8Z"/><path class="cls-1" d="M44.38,103.16l0,.06a1.66,1.66,0,0,1,.32,1.66,1.57,1.57,0,0,1-.87,1A1.69,1.69,0,0,1,41.6,105a1.62,1.62,0,0,1-.09-1.29,1.65,1.65,0,0,1,1.28-1.1l.08,0,.34-1-3.69-1.28-.38,1.1,2.2.76a2.3,2.3,0,0,0-.94,1.18,2.69,2.69,0,0,0,.15,2.15A2.82,2.82,0,0,0,42.19,107a3.05,3.05,0,0,0,.82.16,2.85,2.85,0,0,0,1.36-.28,2.66,2.66,0,0,0,1.46-1.59,2.3,2.3,0,0,0,0-1.51l2.21.77.38-1.1-3.69-1.28Z"/><rect class="cls-1" x="44.03" y="95.36" width="1.16" height="9.42" transform="translate(-64.56 109.31) rotate(-70.81)"/><path class="cls-1" d="M28.75,90.84l-4.46,4.3a3.7,3.7,0,0,0-1.2,2.11l0,.32-.92-.95,0-.08a4.51,4.51,0,0,1,.51-1.28,5.6,5.6,0,0,1-1.49.29h-.06l-.8-.56V94.9a3.28,3.28,0,0,1,.58-1.5,6.42,6.42,0,0,1-1.51.3h-.06l-.82-.57V93a3.8,3.8,0,0,1,1.15-2.1l3.8-3.66a7.12,7.12,0,0,0,.75-.8.94.94,0,0,0,.16-.46,1.51,1.51,0,0,0-.53-1l-.25-.26-.75.72-.08-2.33,2.29.2-.73.7.43.45a2.18,2.18,0,0,1,.75,1.69,3,3,0,0,1-1,1.76l-3.68,3.54a4.08,4.08,0,0,0-1,1.27,6.25,6.25,0,0,0,2.57-.9l3.79-3.65L27,89l-4.21,4.07a5.24,5.24,0,0,0-1.18,1.48A6.15,6.15,0,0,0,24,93.78L28,90Z"/><path class="cls-1" d="M17,71.58l-.57,1-3.21-1.89-1.29,2.19-1-.58,1.29-2.19-4.25-2.5.33,2.89-1.15.11-.52-4.45,4.15-1.71.46,1.06L8.51,66.61l4.25,2.49,1.29-2.19,1,.59-1.28,2.19Z"/><path class="cls-1" d="M16.64,43.71A2.18,2.18,0,0,0,16.77,42a2.34,2.34,0,0,0-1.18-1.35,2.12,2.12,0,0,0-1.69-.13,2.22,2.22,0,0,0-1.3,1.12,2.54,2.54,0,0,0,.17,2.57,8.68,8.68,0,0,1-1-.33l-.74-.26-1-.33a11,11,0,0,0-2.85-.67H7.09l-.36,1.26,0,.06a7.69,7.69,0,0,0,1.88,2.6,9.24,9.24,0,0,0-2.18-.42,1.39,1.39,0,0,0-1.32.86l-.36.71.9.46.14-.28a1,1,0,0,1,1-.59,8.83,8.83,0,0,1,2,.42,13,13,0,0,1,2.17.79l.41.21.52-1-.54-.28a7.74,7.74,0,0,1-2-1.63,7.74,7.74,0,0,1-1.35-1.88,11.69,11.69,0,0,1,1.88.53l1.53.55a13.15,13.15,0,0,0,1.44.47,3.7,3.7,0,0,0,.88.06,7.44,7.44,0,0,1,1.5,1.87,1.88,1.88,0,0,1-.28,1.41l-.24.46.91.46.42-.82A2.47,2.47,0,0,0,16.26,47,6.23,6.23,0,0,0,15,45.16,3,3,0,0,0,16.64,43.71Zm-.87-.38a2.4,2.4,0,0,1-1.57,1.09c-.83-.92-1.08-1.73-.75-2.38a1.15,1.15,0,0,1,.72-.61,1.32,1.32,0,0,1,.62,0,1.21,1.21,0,0,1,.35.12,1.34,1.34,0,0,1,.71.79A1.26,1.26,0,0,1,15.77,43.33Z"/><path class="cls-1" d="M21.43,25.33l-1.62-.7-.66,2.85-1-.22.93-4.05,1.62.7L21.37,21l1.62.7.66-2.87L26.35,20,26,21l-1.59-.7-.67,2.89-1.62-.7ZM26.67,22,26,24.9l-1.62-.7-.66,2.88-1.63-.7-.92,4.05,1,.22.66-2.85,1.62.7.65-2.87,1.62.7.66-2.88,1.59.7.4-1Z"/><path class="cls-1" d="M49.35,15.37,48,15.73l-.06,0A7.91,7.91,0,0,1,46.14,14a6.08,6.08,0,0,1-1-1.92l-1.4.38a6,6,0,0,1,.08,2.17A8,8,0,0,1,43.07,17l0,.06-1.31.35.17-.32a6,6,0,0,0,.71-4.38l-1.74.47-.25-.91,1.73-.47a6.35,6.35,0,0,0-2.7-3.09l-.3-.19L40.6,8.2l.06,0a6.85,6.85,0,0,1,2.8,3.28l1.42-.38a6.84,6.84,0,0,1,.79-4.24l0-.06L47,6.49l-.16.31a6.44,6.44,0,0,0-.8,4l1.73-.46.25.91-1.74.47A6.05,6.05,0,0,0,49,15.18Z"/></g></g></svg>