<svg xmlns="http://www.w3.org/2000/svg" viewBox="0 0 50.71 51.02"><title>Asset 507</title><g id="Layer_2" data-name="Layer 2"><g id="Layer_1-2" data-name="Layer 1"><path d="M50.59,22.6a20.89,20.89,0,0,0-1.32-6.47A24.69,24.69,0,0,0,46,10.48a24.73,24.73,0,0,0-3.16-3.79A25.18,25.18,0,0,0,37,2.79,23.66,23.66,0,0,0,32,.84,32,32,0,0,0,25,0,23.76,23.76,0,0,0,14.69,1.84,19.23,19.23,0,0,0,7.86,6.61,31.43,31.43,0,0,0,1.43,17.55C.23,21.31-.5,25,.41,29A29.18,29.18,0,0,0,3,36.46a28,28,0,0,0,4.56,6.33A25.87,25.87,0,0,0,17.65,49a31.48,31.48,0,0,0,3.23,1.38,17.71,17.71,0,0,0,5.7.53,29.25,29.25,0,0,0,4.28-.75,32.63,32.63,0,0,0,5.25-1.74,26.32,26.32,0,0,0,8-5.91,21.47,21.47,0,0,0,4.82-7.42,25.74,25.74,0,0,0,1.31-4.25A31.89,31.89,0,0,0,50.59,22.6Zm-1.7,11.08a24.17,24.17,0,0,1-6.57,9.86,23.65,23.65,0,0,1-9.88,5.62,22.45,22.45,0,0,1-7.08,1.21c-1.12-.06-2.23-.26-3.34-.39a.85.85,0,0,1-.19-.06,23.22,23.22,0,0,1-3.69-1.34,24.73,24.73,0,0,1-4.85-2.21,27.92,27.92,0,0,1-4.2-2.93,26.34,26.34,0,0,1-6.58-9.29A32.76,32.76,0,0,1,1,29.05a18.07,18.07,0,0,1-.54-4,17.32,17.32,0,0,1,.92-5.45c.44-1.55,1-3.05,1.62-4.56a20.52,20.52,0,0,1,2.84-5c1-1.4,2.21-2.71,3.37-4a14.69,14.69,0,0,1,4.27-3.16A22.64,22.64,0,0,1,19.94.81a27.21,27.21,0,0,1,5-.34A32.2,32.2,0,0,1,29,.8,18.18,18.18,0,0,1,34.6,2.35a29.77,29.77,0,0,1,5.91,3.18,26.86,26.86,0,0,1,8.16,10.28A19.76,19.76,0,0,1,50.05,22c.14,1.51.16,3,.23,4.55A25.74,25.74,0,0,1,48.89,33.68ZM27.51,39.25c-1.52.34-2.24,1.25-2.45,3.06a1.81,1.81,0,0,0,1.19,2.23,4,4,0,0,0,1.12.36c1.71.24,2.71-.66,2.77-2.41-.15-.67-.28-1.35-.47-2A1.57,1.57,0,0,0,27.51,39.25Zm2.09,3.91a1.2,1.2,0,0,1-.51.77,6.91,6.91,0,0,1-1.29.51A11.71,11.71,0,0,1,26.39,44a1.43,1.43,0,0,1-.88-1.51,2.55,2.55,0,0,1,1.78-2.67,1.46,1.46,0,0,1,2,.94A4.28,4.28,0,0,1,29.6,43.16Zm7.59-7.77c.11-1.25-1.14-2.9-2.35-2.72a4.09,4.09,0,0,0-1.49.43,2.67,2.67,0,0,0-1.11,3.8,2.57,2.57,0,0,0,2.94,1.31A2.91,2.91,0,0,0,37.19,35.39Zm-4.79,0a2.28,2.28,0,0,1,2.41-2.2,2.18,2.18,0,0,1,2,2.15,2.33,2.33,0,0,1-2.25,2.38A2.17,2.17,0,0,1,32.4,35.38Zm-10-5.85a3.12,3.12,0,0,0-2.64-3.09,2.65,2.65,0,0,0-2.44,2.63,3,3,0,0,0,2.89,2.71A2.38,2.38,0,0,0,22.44,29.53ZM17.81,29A2.09,2.09,0,0,1,19.75,27,2.31,2.31,0,0,1,22,29.31a2,2,0,0,1-1.53,1.81A2.62,2.62,0,0,1,17.81,29ZM28,14.26a5.38,5.38,0,0,0-1.54.19,1.79,1.79,0,0,0-.91,2.86q.42.54.9,1.05a2.15,2.15,0,0,0,2.53.56,2.11,2.11,0,0,0,1.23-2.08A2.46,2.46,0,0,0,28,14.26Zm1.34,3.79A1.87,1.87,0,0,1,27,18a6.44,6.44,0,0,1-1-1.11,1.25,1.25,0,0,1,.69-2c.31-.1.63-.15,1-.23a2.09,2.09,0,0,1,1.95,1.16A1.87,1.87,0,0,1,29.38,18.05ZM46.28,31.3a1.35,1.35,0,0,0-1.07-1.12c-1.5,0-2.38.11-3.28,1.68a2.46,2.46,0,0,0,.76,3.24A2.35,2.35,0,0,0,46,33.92a10.51,10.51,0,0,0,.39-1.72h-.11C46.28,31.89,46.3,31.59,46.28,31.3ZM45.85,33a2,2,0,0,1-2.21,1.77,1.8,1.8,0,0,1-1.2-2.93,2.34,2.34,0,0,1,3.43-.49A13,13,0,0,1,45.85,33Zm-31-6.08c0-.55-.27-1.09-.32-1.64a1.17,1.17,0,0,0-1-1.09,2.42,2.42,0,0,0-2.54.62,2.44,2.44,0,0,0-.29,2.61A2.54,2.54,0,0,0,13,29,2,2,0,0,0,14.86,26.9Zm-3.58.34a1.77,1.77,0,0,1,0-2A1.84,1.84,0,0,1,13,24.62,1.09,1.09,0,0,1,14,25.5a5.89,5.89,0,0,1,.38,1.41c.06.81-.6,1.45-1.63,1.47A1.87,1.87,0,0,1,11.28,27.24Zm2.56-11.81a3.79,3.79,0,0,0,.51-3.8,1.89,1.89,0,0,0-1.59-1,2.5,2.5,0,0,0-2.56,2.26,3.16,3.16,0,0,0,1,2.62A1.77,1.77,0,0,0,13.84,15.43Zm-3-3.17a2.07,2.07,0,0,1,2-1.09,1.89,1.89,0,0,1,1.32,1.43c0,.2,0,.4,0,.59a2.38,2.38,0,0,1-.75,2,1.19,1.19,0,0,1-1.36.19A2.42,2.42,0,0,1,10.85,12.26Zm9.57,8.24a2.14,2.14,0,0,0,.32,2.65,2.75,2.75,0,0,0,2.62.78,1.44,1.44,0,0,0,1.08-1.16,5.16,5.16,0,0,0,.11-.88,3.31,3.31,0,0,0-.71-2.21,1.36,1.36,0,0,0-1.16-.63A2.35,2.35,0,0,0,20.42,20.5ZM24,21a1.35,1.35,0,0,1,.06.49c.07,1.22-.33,1.85-1.21,1.86a2.14,2.14,0,0,1-2.29-1.95,2.08,2.08,0,0,1,1.91-1.79C23.22,19.5,23.66,20.19,24,21Zm.76-11.78a2.22,2.22,0,0,0,2.27,2.35,2.18,2.18,0,0,0,2-2c0-1.54-.91-2.79-2.07-2.76A2.34,2.34,0,0,0,24.79,9.26ZM27,7.4c.85,0,1.66,1,1.69,2.08a1.79,1.79,0,0,1-1.49,1.57,1.9,1.9,0,0,1-1.85-1.83A2,2,0,0,1,27,7.4ZM19.81,8.71A2.11,2.11,0,0,0,22,7.25a2.47,2.47,0,0,0-.7-2.54,1.54,1.54,0,0,0-2.13-.26,2.34,2.34,0,0,0-1.09,2c0,.13,0,.27,0,.4A2.05,2.05,0,0,0,19.81,8.71Zm.41-3.93a1.86,1.86,0,0,1,1.41,1.68A1.49,1.49,0,0,1,20.07,8a1.53,1.53,0,0,1-1.46-1.65A1.69,1.69,0,0,1,20.22,4.78ZM8.12,23.68a1.81,1.81,0,0,0,1.94-1.47,3.92,3.92,0,0,0-.44-2.56c-.07-.18-.33-.32-.52-.42a2.11,2.11,0,0,0-2.4.28,2.38,2.38,0,0,0-.57,2.8A2.17,2.17,0,0,0,8.12,23.68ZM8,19.55a1.89,1.89,0,0,1,1.7,2c0,1-.58,1.52-1.67,1.52a1.79,1.79,0,0,1-1.64-2A1.56,1.56,0,0,1,8,19.55Zm8.31,20.53a2,2,0,0,0-1.66,2.06c-.18.79.39,1.26.83,1.78,1.09,1.29,2.06,1.14,3.14.19a3.27,3.27,0,0,0,.28-3.32A2.33,2.33,0,0,0,16.35,40.08Zm1.81,3.8a1.41,1.41,0,0,1-2.1-.18,2.47,2.47,0,0,1-.28-.28,1.67,1.67,0,0,1,1.35-3,1.6,1.6,0,0,1,1.58.94C19,42.54,19,43.34,18.16,43.88ZM45,23.28c.12-1.71-1.24-2.22-2.47-2.2a2.2,2.2,0,0,0-2,2.3,2.32,2.32,0,0,0,2.19,2.23A2.16,2.16,0,0,0,45,23.28Zm-4-.06a1.66,1.66,0,0,1,1.86-1.59,1.64,1.64,0,0,1,1.81,1.62,1.56,1.56,0,0,1-1.74,1.69A1.92,1.92,0,0,1,41,23.22ZM37.53,39.93a2.75,2.75,0,0,0-2.74,2,1.66,1.66,0,0,0,.3,1.76,1.72,1.72,0,0,0,1.87.58,2.86,2.86,0,0,0,1.91-1.48C39.47,41.44,39.33,39.94,37.53,39.93Zm1.19,2a2.47,2.47,0,0,1-2.26,1.75,1.2,1.2,0,0,1-1.27-1.31,2.18,2.18,0,0,1,2.89-1.82A1.12,1.12,0,0,1,38.72,42Zm-17-7.44a2.56,2.56,0,0,0-2.36,2.13A2.18,2.18,0,0,0,21.4,39a2.47,2.47,0,0,0,2.44-2.25A2.22,2.22,0,0,0,21.68,34.53Zm1.77,1.86a3.87,3.87,0,0,1-.38,1.29,1.92,1.92,0,0,1-2.39.5,1.45,1.45,0,0,1-.8-1.37A1.6,1.6,0,0,1,21,35.2a1.45,1.45,0,0,1,1.8.35C23,35.83,23.55,35.87,23.45,36.39ZM13.94,20.05a8.34,8.34,0,0,0,.16.87A2.22,2.22,0,0,0,16,22.44a1.92,1.92,0,0,0,1.91-1.55,5.57,5.57,0,0,0-.23-2,1.11,1.11,0,0,0-1.24-.78,7,7,0,0,0-1.42.36A1.41,1.41,0,0,0,13.94,20.05Zm3.59.3A1.51,1.51,0,0,1,16,21.81a1.79,1.79,0,0,1-1.53-1.88c0-.65,1.05-1.33,1.95-1.31C17,18.64,17.55,19.46,17.53,20.35Zm-1.76,14.3c0-.42-.08-.85-.14-1.27a1,1,0,0,0-1-1,2.57,2.57,0,0,0-2.5.83,2.06,2.06,0,0,0-.51,2.27,2.52,2.52,0,0,0,1.93,1.65,1.29,1.29,0,0,0,.67-.09A2.83,2.83,0,0,0,15.77,34.65Zm-1.89,1.84a2.12,2.12,0,0,1-1.78-1.2,1.53,1.53,0,0,1,.27-1.73,2.27,2.27,0,0,1,2.48-.63c.17.44.34.83.46,1.23A2,2,0,0,1,13.88,36.49ZM36.11,26.3A4.22,4.22,0,0,0,35.05,26a4.87,4.87,0,0,0-.76.15,2.58,2.58,0,0,0-1.54,2.44,2.54,2.54,0,0,0,2.13,1.95,1.83,1.83,0,0,0,2.09-2,6.42,6.42,0,0,0-.19-1.46A1.59,1.59,0,0,0,36.11,26.3ZM35,30a1.91,1.91,0,0,1-1.8-1.77A1.74,1.74,0,0,1,35,26.56c1.09,0,1.62.72,1.62,2.2C36.59,29.55,36,30,35,30ZM21.25,16a8.33,8.33,0,0,0,.66-1.29c0-1.85-1.35-2.84-2.75-2.36a1.39,1.39,0,0,0-.95,1,2.82,2.82,0,0,0,1.48,2.88A1.41,1.41,0,0,0,21.25,16Zm-2.52-2.1a1,1,0,0,1,1.06-1,1.55,1.55,0,0,1,1.67,1.44c0,.83-.51,1.44-1.17,1.42A1.81,1.81,0,0,1,18.73,13.9ZM35.11,18a1.89,1.89,0,0,0-2,2c0,1.31.67,2.15,1.81,2.11,1.77-.07,2-.81,2.16-2.34C37.2,18.93,36.1,18,35.11,18Zm.06,3.52c-1,0-1.46-.48-1.51-1.54A1.33,1.33,0,0,1,35,18.51c.71,0,1.68.72,1.68,1.26C36.72,20.88,36.18,21.49,35.17,21.53ZM32.41,12a1.91,1.91,0,0,0,2,1.75,1.94,1.94,0,0,0,1.8-2.06c0-1.13-.52-1.67-1.59-1.67A2.31,2.31,0,0,0,32.41,12Zm1.18-1.09a3.71,3.71,0,0,1,.85-.35c1,0,1.39.4,1.41,1.16a1.42,1.42,0,0,1-1.2,1.45,1.94,1.94,0,0,1-.59,0,1.36,1.36,0,0,1-1.11-1C32.8,11.48,33.19,11.14,33.59,10.86ZM27.05,32.93a1.89,1.89,0,0,0,1.44-2.07c-.17-.63,0-1.52-1-1.87a2.15,2.15,0,0,0-1.54.07,1.91,1.91,0,0,0-1.07,2.3A2.11,2.11,0,0,0,27.05,32.93Zm-.3-3.53c.88,0,1.34.61,1.32,1.69a1.14,1.14,0,0,1-1.18,1.27,1.71,1.71,0,0,1-1.55-1.5A1.45,1.45,0,0,1,26.75,29.4ZM28.2,22a1.82,1.82,0,0,0-1.72,1.81A1.79,1.79,0,1,0,30,24.2,2,2,0,0,0,28.2,22Zm.06,3.39A1.42,1.42,0,0,1,27,23.91a1.16,1.16,0,0,1,1.11-1.34A1.54,1.54,0,0,1,29.61,24,1.44,1.44,0,0,1,28.26,25.42ZM5.46,28.3a1.3,1.3,0,0,0-1.2,1,6,6,0,0,0-.19.82A2.54,2.54,0,0,0,4.81,32a1.37,1.37,0,0,0,2.37-.3,2.33,2.33,0,0,0,0-2.44A1.57,1.57,0,0,0,5.46,28.3Zm1.43,3.06a1,1,0,0,1-1.65.27,2,2,0,0,1-.68-1.49,1.33,1.33,0,0,1,.69-1.32,1.43,1.43,0,0,1,1.57.69A1.6,1.6,0,0,1,6.89,31.36ZM34.06,6.24a2.75,2.75,0,0,0-.16-2.58,7.67,7.67,0,0,0-1-.2,1.75,1.75,0,0,0-.85.12,1.84,1.84,0,0,0-.41,3.09A1.42,1.42,0,0,0,34.06,6.24Zm-2.55-1a1.1,1.1,0,0,1,1-1.22A1.53,1.53,0,0,1,34,5.26a1.28,1.28,0,0,1-1.2,1.32A1.42,1.42,0,0,1,31.51,5.2Zm8.09,8.08A1.64,1.64,0,0,0,41,11.45,1.55,1.55,0,0,0,40.35,10a1.56,1.56,0,0,0-1.67.19,1.32,1.32,0,0,0-.75,1.64A1.93,1.93,0,0,0,39.6,13.28Zm-1.17-2.21a1.66,1.66,0,0,1,1.79-.65c.51,1,.52,1.66,0,2.05a1.13,1.13,0,0,1-1.28,0A1.23,1.23,0,0,1,38.43,11.07Zm2.42,4.84c.46-.59,1.16-.56,1.75.17L41.89,16c-.53-.05-.8.19-.8.71A1.44,1.44,0,0,0,42.24,18a.86.86,0,0,0,.86-1.26,5.42,5.42,0,0,1-.35-1,1.31,1.31,0,0,1,.81,1.47,1.27,1.27,0,0,1-.81,1.24,1.41,1.41,0,0,1-1.58-.5C40.48,17.25,40.36,16.55,40.85,15.91Zm-26-7.39c.6,0,1.18-.77,1.17-1.59a1.29,1.29,0,0,0-1.42-1.3,1.19,1.19,0,0,0-1.2,1.28A1.74,1.74,0,0,0,14.81,8.52Zm-.6-2.24c.6-.33,1,.11,1.34.47,0,.53,0,1-.61,1.22-.3.09-.79-.3-.94-.73S13.82,6.5,14.21,6.28ZM9.81,33.44A3,3,0,0,0,9.75,31a1.73,1.73,0,0,0-2,2.35,1.21,1.21,0,0,0,1.06.92C9.4,34.31,9.62,33.86,9.81,33.44Zm-1.72-.77c0-.65.36-1,1.2-1.25a1.43,1.43,0,0,1,.25,1.64c-.14.34-.29.71-.77.62A1.18,1.18,0,0,1,8.09,32.67Zm30.75,4.48c.22.36.53.69,1,.55a1.39,1.39,0,0,0,.73-.7,2.06,2.06,0,0,0-.35-2.2A1.46,1.46,0,0,0,38.84,37.15Zm.92-.06c-.26.19-.66-.4-.67-1s.23-.8.64-.79.54.39.62,1A2.58,2.58,0,0,1,39.76,37.09ZM9.76,37c-.6,0-1.17.41-1.1.88a2,2,0,0,0,1.09,1.65A.82.82,0,0,0,11,39.09,1.53,1.53,0,0,0,9.76,37Zm.88,1.54a1.48,1.48,0,0,1-.31.51c-.61,0-1.26-.79-1.09-1.19a.77.77,0,0,1,.62-.29A.91.91,0,0,1,10.64,38.54ZM25.2,5c.44,0,.91-.7.89-1.33a.93.93,0,0,0-1-.89.91.91,0,0,0-1,1A1.31,1.31,0,0,0,25.2,5Zm.21-1.77a6.18,6.18,0,0,1,.07.85c0,.09-.07.17-.13.28a.6.6,0,0,1-.63-.7C24.74,3.55,25.08,3.45,25.41,3.25ZM33.09,25a.83.83,0,0,0,.36-.44c.15-.42.25-.86.37-1.27A1.46,1.46,0,0,0,32.08,23a.94.94,0,0,0-.26,1.3C32.07,24.8,32.74,25.19,33.09,25Zm-.66-1.59a.46.46,0,0,1,.71.26,2.4,2.4,0,0,1,0,.71l-.25.12a3.11,3.11,0,0,1-.56-.44C32.18,23.85,32.11,23.57,32.43,23.41ZM22.34,41.1c-.44,0-.83.54-.84,1.42a5,5,0,0,0,.6,1,.55.55,0,0,0,1-.16,2.88,2.88,0,0,0,.21-1.23A1,1,0,0,0,22.34,41.1Zm.27,2.12c-.72-.64-.74-.72-.36-1.74.26.21.55.32.6.5A1.17,1.17,0,0,1,22.61,43.22ZM45.81,26a1,1,0,0,0-.46,1.35,1.22,1.22,0,0,0,1.23.78A1,1,0,0,0,47.27,27a7.61,7.61,0,0,0-.41-1.22A6,6,0,0,0,45.81,26Zm.63,1.77a4.49,4.49,0,0,1-.66-.86c0-.08.28-.41.48-.46a.49.49,0,0,1,.6.57A3,3,0,0,1,46.44,27.76ZM37.28,17.52a.87.87,0,0,0,.87-.88A1.54,1.54,0,0,0,37,15.37a.91.91,0,0,0-.92.84A1.46,1.46,0,0,0,37.28,17.52Zm.44-.84c-.63.29-.63.29-1.16-.53C37.31,15.91,37.31,15.91,37.72,16.68ZM7,16.23c.2,0,.42-.33.63-.52a.36.36,0,0,0,.07-.18c.12-.48.6-.95,0-1.44s-.93.22-1.38.36c-.18.05-.27.38-.39.57a2.58,2.58,0,0,0,.29.71A1.45,1.45,0,0,0,7,16.23ZM6.53,15c.16-.43.56-.29,1.08-.17l-.45.94C6.66,15.65,6.39,15.39,6.53,15ZM17.32,34.57a1.34,1.34,0,0,0-.9,1.16c0,.2.09.39.13.58a.7.7,0,0,0,.64.64.71.71,0,0,0,.81-.56,5.12,5.12,0,0,0,.19-1.15A.71.71,0,0,0,17.32,34.57Zm-.06,1.74c-.14,0-.3-.45-.3-.7a.52.52,0,0,1,.63-.55c.14,0,.23.3.3.4C17.74,35.91,17.76,36.39,17.26,36.31Zm4.31-25.72a2,2,0,0,0,.56.89c.36.34.7.25,1-.18a1.42,1.42,0,0,0-.24-1.76C21.75,9.63,21.38,9.92,21.57,10.59Zm.57-.35c0-.1.39-.18.49-.12.4.28.4.63,0,1C22.19,11,22,10.7,22.14,10.24ZM39.23,26.85a.65.65,0,0,0-.52.74,2.45,2.45,0,0,0,.27.83c.17.33.49.67.85.5s.49-.54.7-.8a10.21,10.21,0,0,0-.36-1A.71.71,0,0,0,39.23,26.85Zm.6,1.54c-.15-.06-.22-.07-.26-.11-.26-.22-.49-.47-.3-.83a.44.44,0,0,1,.4-.09C39.91,27.64,40.23,28,39.83,28.39ZM24.36,25.64a.74.74,0,0,0-.87.72,1.34,1.34,0,0,0,.9,1.26c.38,0,.95-.8.94-1.35C25.32,25.91,24.93,25.66,24.36,25.64Zm-.1,1.52-.32-1c.36.11.62.11.71.23S24.79,26.93,24.26,27.16Zm6.18-16.23a.75.75,0,0,0-.78.61,3.23,3.23,0,0,0-.08.58c.05.13.11.35.19.56a.65.65,0,0,0,.84.47,1.19,1.19,0,0,0,.61-1.23C31.18,11.39,30.83,10.94,30.44,10.93Zm0,1.73c-.29-.37-.59-.69-.2-1.17C30.94,11.92,30.94,11.94,30.45,12.66Zm-12.87,11a.87.87,0,0,0-.94.4,1.09,1.09,0,0,0,.07,1.37c.5.57,1,.47,1.22-.25.07-.22.12-.44.16-.61C18.06,24.14,18,23.76,17.58,23.66Zm-.19,1.69c-.18-.2-.3-.28-.34-.39-.12-.28-.21-.58.13-.78a.51.51,0,0,1,.35,0,2.82,2.82,0,0,1,.09.71C17.62,25,17.51,25.11,17.39,25.35Zm11,8.48c-.17.05-.26.4-.31.49a1.43,1.43,0,0,0,.81,1.33.42.42,0,0,0,.64-.23,1.09,1.09,0,0,0-.36-1.4A1,1,0,0,0,28.37,33.83Zm.31.45.57.7C28.75,35,28.62,34.83,28.68,34.28Z"/></g></g></svg>