<svg xmlns="http://www.w3.org/2000/svg" viewBox="0 0 47.27 20.1"><title>Asset 486</title><g id="Layer_2" data-name="Layer 2"><g id="Layer_1-2" data-name="Layer 1"><path d="M46,5.11a3.57,3.57,0,0,1-1.14-1c-.12-.21-.26-.41-.44-.69a15.16,15.16,0,0,0-2.21-1.09c-.35-.13-.72-.2-1.07-.33-.65-.25-1.35-.36-2-.55a.94.94,0,0,0-.16,0c-.58-.08-1.16-.17-1.74-.24A6.51,6.51,0,0,0,35.84,1l-1.92.19a.87.87,0,0,0-.22.05,19,19,0,0,1-2.2.52,8.2,8.2,0,0,1-2,.09l-1.25,0a9.73,9.73,0,0,0-1.08,0c-.83.08-1.65.21-2.48.32-.17,0-.33.08-.5.09a14.39,14.39,0,0,0-2.05.44c-.51.13-1,.31-1.53.42a17.68,17.68,0,0,0-2.37.76c-.48.18-1,.34-1.45.5a2.56,2.56,0,0,0-.74.28c-.09.07-.25,0-.38,0s-.09-.07-.1-.11,0-.13.06-.14a5,5,0,0,1,.89-.33,10.06,10.06,0,0,0,1.95-.62,17.09,17.09,0,0,1,2.88-.88c.64-.13,1.28-.32,1.93-.46s1.32-.3,2-.43c.19,0,.38,0,.57-.06a8.13,8.13,0,0,0,.84-.13,5.64,5.64,0,0,1,1.3,0l1.25,0s.05,0,.08-.05,0-.08,0-.09a3.28,3.28,0,0,1-.86-.26,3.27,3.27,0,0,0-.56-.1C27.39,1,26.93.79,26.44.72A8.54,8.54,0,0,0,24.55.36a2.41,2.41,0,0,1-.44-.08A3.39,3.39,0,0,0,22.6.5c-1.15.38-2.29.78-3.43,1.17L18.08,2c-.66.2-1.31.48-2,.68s-1.11.37-1.66.57l-1.17.41c-.27.09-.53.19-.8.27l-1.64.46c-.74.21-1.49.45-2.24.63a26.36,26.36,0,0,1-2.77.62,2.2,2.2,0,0,0-.44.12,11.49,11.49,0,0,1-1.83.4,2.72,2.72,0,0,1-.57,0,7.55,7.55,0,0,0-2.37.13,1,1,0,0,1-.59,0,4.76,4.76,0,0,1,1.79-.41,6.12,6.12,0,0,1,.74,0,7.33,7.33,0,0,0,2.79-.37c.29-.09.59-.15.89-.22l1.43-.35L9.1,4.58A52,52,0,0,0,14.26,3L17,2c.36-.12.73-.2,1.09-.32L20.87.78c.78-.25,1.56-.48,2.34-.7A3.19,3.19,0,0,1,24.28,0a22.15,22.15,0,0,1,2.9.56A17.59,17.59,0,0,1,30,1.39a2.52,2.52,0,0,0,1.28.15c.71-.1,1.4-.29,2.1-.45.48-.11,1-.16,1.45-.25a7.45,7.45,0,0,1,1.7-.07c.19,0,.37,0,.56.06A22.18,22.18,0,0,1,40,1.35,17.2,17.2,0,0,1,44.1,2.86a2,2,0,0,0,.85.27,5.54,5.54,0,0,1,1.68.51,6.49,6.49,0,0,1,.59.28c.12.28,0,.47-.11.68a1.4,1.4,0,0,1-.56.62,5.7,5.7,0,0,0-.54.3A2.55,2.55,0,0,1,44.4,6l-2-.05a1.49,1.49,0,0,0-.49.06,1.7,1.7,0,0,0,.75.43L44,6.91a1.46,1.46,0,0,1,.31.14.37.37,0,0,1,.19.2,2,2,0,0,1,0,1.54.9.9,0,0,1-.58.5,3,3,0,0,1-2.28-.08A3.13,3.13,0,0,0,39.93,9,9.81,9.81,0,0,1,38.85,9a1.24,1.24,0,0,1-.5-.07c-.42-.14-.85-.3-1.27-.48S36,8,35.44,7.7a11.81,11.81,0,0,0-3.67-1.11.87.87,0,0,0-.28,0c-.71.12-1.42.23-2.13.38A10.07,10.07,0,0,0,25.92,8.4a3.34,3.34,0,0,0-.87.89,1.44,1.44,0,0,0-.26.74.86.86,0,0,0,0,.28c.06.26.15.51.23.79l.52.54a2.57,2.57,0,0,0,.87.62,26.2,26.2,0,0,0,2.59,1c.76.27,1.52.56,2.28.86s1.36.57,2,.89a8.58,8.58,0,0,1,2.78,2.11,1.79,1.79,0,0,1,.35,1.6,3,3,0,0,1-.31.85.79.79,0,0,1-1,.49,3.08,3.08,0,0,1-.66-.18c-.65-.29-1.3-.6-1.95-.91A17.09,17.09,0,0,0,30,18.07a5.61,5.61,0,0,0-.92-.22,11.51,11.51,0,0,1-1.55-.32,9.79,9.79,0,0,0-1.87-.18l-1.6,0-3-.09H21l-2-.18c-.32,0-.64-.07-1-.07a11.38,11.38,0,0,1-1.74-.24c-1.16-.18-2.29-.49-3.43-.75-.59-.13-1.17-.28-1.76-.42a2,2,0,0,0-.34,0,12.32,12.32,0,0,0-2.5.1,11,11,0,0,0-2.3.59c-.36.16-.75.25-1.12.39a5,5,0,0,0-1.71,1,.94.94,0,0,1-.23.16,12.16,12.16,0,0,0-1.68,1.15c-.23.17-.42.38-.63.57a3.44,3.44,0,0,1-.36.28s-.09,0-.15-.06a1.19,1.19,0,0,1,.08-.16c.28-.26.55-.53.85-.76a11.44,11.44,0,0,1,1.58-1.1,2.42,2.42,0,0,0,.36-.27,5.63,5.63,0,0,1,1.57-.92c.42-.16.85-.31,1.26-.49a10,10,0,0,1,3-.7l.39,0a6.28,6.28,0,0,1,2.48.18l3.59.87c.22.05.45.07.67.11a2.44,2.44,0,0,1,.39,0,3.57,3.57,0,0,0,1.06.18l1.42.09H19a33.58,33.58,0,0,0,4.14.23c.88,0,1.77,0,2.66.11a1.62,1.62,0,0,0,.22,0,8.05,8.05,0,0,1,2.08.24l1.56.34a14.2,14.2,0,0,1,3.09,1.09l.54.24a4.89,4.89,0,0,1,.06-.59,2.31,2.31,0,0,1,.22-.64.89.89,0,0,1,.8-.46,8.2,8.2,0,0,1,.85.1,1.62,1.62,0,0,0,.7,0,1.27,1.27,0,0,0-.11-.26,6,6,0,0,0-1.54-1.33,14.51,14.51,0,0,0-2.59-1.28c-.69-.27-1.38-.53-2-.86a9.86,9.86,0,0,0-1-.33c-.8-.3-1.6-.58-2.39-.92a1.8,1.8,0,0,1-.83-.57,1.9,1.9,0,0,0-.25-.24,1.89,1.89,0,0,1-.72-1.23,1.09,1.09,0,0,1,0-.67A3.14,3.14,0,0,1,25.9,8.07a9.89,9.89,0,0,1,3.31-1.31l1.67-.31a2.33,2.33,0,0,0,.28,0C32,6.14,33,6.15,33.84,6c.42-.09.86-.1,1.29-.15a30.92,30.92,0,0,1,5-.25c.66,0,1.32.09,2,.13l2.1.07a3.87,3.87,0,0,0,1.12-.19A2.12,2.12,0,0,0,46,5.11ZM44.2,8.45l-.32-.18A2,2,0,0,1,42.78,7a.45.45,0,0,0-.34-.35,4.26,4.26,0,0,1-1.1-.57,1,1,0,0,0-.63-.2c-.42,0-.84,0-1.25,0-1,0-1.89,0-2.84.05a1.76,1.76,0,0,0-1,.24.91.91,0,0,0,.1.1A27,27,0,0,1,38.4,7.55a3,3,0,0,0,.51.25c.66.28,1.34.53,2,.84a5.32,5.32,0,0,0,1.91.48A2.32,2.32,0,0,0,44,8.93.38.38,0,0,0,44.2,8.45Zm-11-2.09,0,.1.34.18.54.16A25.65,25.65,0,0,1,36.62,8c.49.23,1,.45,1.51.63a2.24,2.24,0,0,0,.78.12c.33,0,.67,0,1-.05,0,0,0,0,.1-.11l-.87-.4c-.7-.32-1.41-.62-2.08-1a10.65,10.65,0,0,0-2.64-1,.55.55,0,0,0-.22,0Zm2.88,11.58a1.17,1.17,0,0,0-.31-.12c-.41-.07-.82-.14-1.23-.17a.77.77,0,0,0-.91.88,5.16,5.16,0,0,0,.1.75c.4.16.78.34,1.17.46s.71.06,1-.4A1.24,1.24,0,0,0,36,19,2.78,2.78,0,0,0,36.09,17.94ZM44.92,3.48a2.85,2.85,0,0,0,.68.95,1.24,1.24,0,0,0,.55.27c.52.1.69,0,.74-.58A4,4,0,0,0,44.92,3.48ZM44.26,8.1a.81.81,0,0,0,0-.68c-.06-.18-.23-.24-.39-.3l-.48-.19a.74.74,0,0,0-.21,0,.36.36,0,0,0,.09.38A1.78,1.78,0,0,0,44.26,8.1Z"/></g></g></svg>