<svg xmlns="http://www.w3.org/2000/svg" viewBox="0 0 80.86 100.24"><title>Asset 546</title><g id="Layer_2" data-name="Layer 2"><g id="Layer_1-2" data-name="Layer 1"><path d="M36.74,77.65a11.08,11.08,0,0,1,.89.8l-.18.28a3.82,3.82,0,0,1-.68-.31C33,75.8,29,76.16,25.88,79.41a8.53,8.53,0,0,1-12.5-.09,7.87,7.87,0,0,0-11.24-.51c-.23.21-.49.39-.74.58L1.08,79a18.24,18.24,0,0,1,1.47-1.32,8.48,8.48,0,0,1,11.12,1c3,3,6.74,3.62,10,1.65a12.42,12.42,0,0,0,2.19-1.85A8.55,8.55,0,0,1,36.74,77.65Z"/><path d="M79.38,36.66A8,8,0,0,0,66.1,34.44a34.48,34.48,0,0,0-2.25,3,14.69,14.69,0,0,0-3-1.62c-1.24-.35-1.58-.41-1.23-1.68.69-2.54,1.53-5,2.33-7.55.06-.21.21-.53.36-.55,1.1-.16,1.09-1.13,1.42-1.85.19-.41.36-1.1.63-1.15,1.85-.36,1.55-2.12,2.36-3.13l-.19-.41H62.66c-6.56,0-13.12,0-19.68,0a1.37,1.37,0,0,1-1.46-.94,11.52,11.52,0,0,0-8.87-6.74,38.47,38.47,0,0,0-6.08-.23,18.05,18.05,0,0,0-17.87,18c0,12.28,0,24.55,0,36.83,0,.91-.2,1.28-1.2,1.28A7.76,7.76,0,0,0,1.89,70.2a2.58,2.58,0,0,0-.33.59,1.17,1.17,0,0,0,.87-.29c3.71-3.14,8-3,11.4.48a10.34,10.34,0,0,0,1.11,1,8.46,8.46,0,0,0,11.21-.89C29.46,67.76,33.2,67.37,37,70a4.53,4.53,0,0,0,.74.34l.23-.36a16.3,16.3,0,0,0-2.08-1.38c-3-1.41-5.94-1-8.89.73V67.93q0-19.91,0-39.82a11.86,11.86,0,0,1,.18-2.06,7.11,7.11,0,0,1,6.12-5.86,1.42,1.42,0,0,1,1.06.53c.63.82.6,2.22,2.08,2.27,0,0,.11.1.14.17.52,1.16.66,2.58,2.08,3.15C39.81,29,41,31.6,41.14,34.54c0,.89-.25,1.33-1.16,1.17a5.12,5.12,0,0,0-4.63,1.74c-.55.53-1.17,1-1.67,1.58-5.55,6.39-5.88,10.26-2.61,16.09l.16.3a73.5,73.5,0,0,0,8.49,11.72c1.52,1.77,3.12,3.48,4.69,5.21,1.06,1.17.79,2.2-.69,2.57-.89.23-1.78.44-2.68.66a3.1,3.1,0,0,0-2.39,3.17H60.4c-.6-1.72-1.17-3.18-3.23-3.34a19.11,19.11,0,0,1-3.11-.77,2.67,2.67,0,0,1,.77-2.7c2.71-3,5.3-6.16,8-9.2a2.42,2.42,0,0,1,1.55-.69c6.59-.42,11.42-3.56,14.27-9.49C81.13,47.42,81.73,42,79.38,36.66ZM26.44,28.13q0,20,0,39.93c0,2.23-1,3.56-3.56,4.32v-13h-.41c0,.39-.07.78-.07,1.17,0,3.64,0,7.29,0,10.93A1.86,1.86,0,0,1,19.75,73c-.24-.16-.3-.73-.3-1.12,0-6.17,0-12.35,0-18.53V52L19.16,52a.17.17,0,0,0-.1,0c-.07.13-.2.26-.2.38q0,10.19,0,20.34c-2,.21-3.06-.67-3.06-2.52,0-3.11,0-6.21,0-9.32,0-.44-.05-.87-.07-1.31h-.4v11.5l-.39.08c-1.18-1.34-2.9-2-2.81-4.56.25-6.74.09-13.5.08-20.25a10.82,10.82,0,0,0-.15-1.26l-.35,0V68.43a9.47,9.47,0,0,0-1.24-.34c-.92-.12-1.2-.57-1.2-1.53.06-6.68,0-13.35,0-20V29.84A17.43,17.43,0,0,1,27,12.21a32.64,32.64,0,0,1,6.18.35,11,11,0,0,1,7.7,6,2.52,2.52,0,0,1,.21.54c0,.06,0,.14,0,.39H35C29.69,19.49,26.44,22.77,26.44,28.13Zm8.64-7.95H65.64c-.14,1.78-.57,2.19-2.22,2.18l-26-.09C35.68,22.26,35.44,22.05,35.08,20.18ZM37.42,23H63.33c-.14,2.05-.49,2.41-2.34,2.41l-21.27-.09C37.86,25.26,37.67,25.07,37.42,23Zm1.85,3h22.2c-1.18,3.18-2.62,6.14-2.45,9.65H41.78C41.85,32.16,40.52,29.1,39.27,26ZM37.76,36.45A2.46,2.46,0,0,1,39,36.27c6.67,0,13.34,0,20,0a5.25,5.25,0,0,1,4,1.54c1,1,2.08,2.08,3.33,3.33H32.75A18.31,18.31,0,0,1,37.76,36.45Zm-7.5,15.36c-1.29-2.72-.55-5.27.6-7.84a3.41,3.41,0,0,1,3.65-2.29c10.28.14,20.56.11,30.84.08A2.16,2.16,0,0,1,67.53,43c1.49,2.77,2.58,5.57,1.24,8.75-.29.69-.6,1-1.45.69V44.62H59.94c0,2,0,4,0,5.93,0,.21.39.55.63.58a7.55,7.55,0,0,0,2.07,0,1.11,1.11,0,0,0,.69-.75,20.56,20.56,0,0,0,0-2.35c1-.31,1.42,0,1.39.93,0,1.18,0,2.36,0,3.59H58.14v-8c-2.41,0-4.66,0-6.9,0-.16,0-.44.49-.45.75,0,1.68,0,3.37,0,5.06,0,.58.22.79.81.83,2.59.16,2.58.18,2.63-2.33,0-.26,0-.53,0-.8,1-.37,1.38-.08,1.34.94s0,1.84,0,2.76c0,.29-.41.79-.64.8-2,.07-3.89,0-6,0V45.93c0-1.46,0-1.46-1.52-1.46s-3.15,0-4.72,0c-.87,0-1.13.29-1.09,1.14.06,1.53,0,3.07,0,4.6,0,.71.24,1,.94.92s1.58,0,2.47,0v-3c1.28-.31,1.39-.26,1.38.88s.33,2.68-.26,3.3-2.14.27-3.27.31-2,0-3.1,0c0-2,0-3.85,0-5.71-.05-2.77.48-2.37-2.32-2.4-1.61,0-3.22,0-5,0,0,2.11,0,4.13,0,6.15a.72.72,0,0,0,.52.45c.91,0,1.82,0,2.88,0a23.82,23.82,0,0,1,0-2.57c0-.25.39-.48.61-.72.23.23.65.45.67.69a24.67,24.67,0,0,1,0,3.33,1.06,1.06,0,0,1-.72.73c-1.73.06-3.46.07-5.18,0A1.38,1.38,0,0,1,30.26,51.81Zm2.79,5.41c-.77-1.22-1.46-2.49-2.35-4h4.24c2.74,0,2.74,0,2.74-2.71,0-.81,0-1.61,0-2.42s-.59-.84-1.17-.81S35.18,47,35.2,48c0,.76,0,1.52,0,2.48-.58,0-1,0-1.46,0-.61,0-.81-.25-.8-.82,0-1.27,0-2.53.05-3.8,0-.29.31-.82.5-.82,1.82-.06,3.65,0,5.57,0,0,2.33.06,4.51,0,6.69-.05,1.15.27,1.55,1.47,1.48,1.79-.11,3.6-.05,5.4,0,.74,0,1-.26,1-1,0-1.57,0-3.13,0-4.8H44.44l-.14,3.05c-.36,0-.69,0-1,.09-.81.1-1.2-.15-1.14-1.06.07-1.19,0-2.38,0-3.56,0-.3.39-.82.61-.83,1.76-.07,3.51,0,5.43,0v8.16h4.82c3.05,0,3.05,0,3.05-3.1v-.8c0-2.24,0-2.26-2.52-1.85v3h-2.2c0-1.62,0-3.21,0-4.81a.9.9,0,0,1,.59-.62c1.79,0,3.58,0,5.47,0v8.21h5.35c2.5,0,2.5,0,2.5-2.47,0-.85,0-1.69,0-2.54.07-1.15-.74-.9-1.4-.93s-1.25-.06-1.16.91c.07.72,0,1.45,0,2.26H60.59V45.18H66.7v7.93l1.45.24c-.81,1.41-1.56,2.75-2.37,4-.12.19-.53.26-.81.26q-15.48,0-30.95,0A1.3,1.3,0,0,1,33.05,57.22ZM58.3,76.42c.53.18.83,1,1.36,1.77H39.44a2.45,2.45,0,0,1,1.78-2.08c4-1.3,8-1.08,12.08-.91A17.42,17.42,0,0,1,58.3,76.42Zm-12-3.37c2.26,0,4.52,0,6.88,0,.05.29.09.44.1.58s0,.46,0,.9H51.39c-1.69,0-3.38,0-5.07,0a1.1,1.1,0,0,1-.77-.67C45.39,73.26,45.76,73,46.34,73.05ZM62.4,62.19c-2.74,3.24-5.53,6.45-8.34,9.63a2.09,2.09,0,0,1-1.35.61c-2.22.06-4.45,0-6.67,0a1.56,1.56,0,0,1-1.1-.43c-3.63-4.35-7.22-8.73-10.81-13.11a3.46,3.46,0,0,1-.27-.55H65.25C64.21,59.76,63.38,61,62.4,62.19Zm16-10.43a15.48,15.48,0,0,1-13.84,9.66H64c1.37-2.22,2.66-4.29,3.94-6.37.1-.16.19-.33.28-.5C71,49.28,70.74,45.83,66,39.85c-1.7-2.13-1.8-2.07-.11-4.24a7.19,7.19,0,0,1,7-3.08,7.37,7.37,0,0,1,6.25,4.93A18.18,18.18,0,0,1,78.36,51.76Z"/><path d="M52.08,17.71c3.36-.08,7.25-2.57,7.36-4.82C56.61,14.47,54,14.37,52,11.68a4.82,4.82,0,0,1-.08-5.61c2-2.75,4.63-2.91,7.69-1.22C58.63,1.56,54-.63,50.19.16a8.9,8.9,0,0,0-7,9.8A9,9,0,0,0,52.08,17.71ZM49.25,1.06A7.83,7.83,0,0,1,57.9,3.32C55.59,2.92,53.55,3.25,52,5A5.49,5.49,0,0,0,50.5,9.1c.16,3.56,2.57,5.32,7.3,5.33-1.34,2.1-5,3.17-7.95,2.36a8.25,8.25,0,0,1-.6-15.73Z"/><path d="M36.67,73.31c.35.25.66.56,1,.84l-.2.29a5.43,5.43,0,0,1-.8-.4c-3.74-2.55-7.55-2.17-10.8,1.07A8.45,8.45,0,0,1,14.49,76a10.94,10.94,0,0,1-1.17-1.09A7.88,7.88,0,0,0,2,74.65a6.51,6.51,0,0,1-.58.46l-.26-.24a7.86,7.86,0,0,1,.92-1.07,8.57,8.57,0,0,1,11.66.64c3.47,3.67,8.38,3.7,11.85.08A8.51,8.51,0,0,1,36.67,73.31Z"/><path d="M3.65,65.47c.53-1.2.78-2.4,1.33-3.45a24,24,0,0,1,2.14-3A24,24,0,0,1,5,56.14a25.11,25.11,0,0,1-1.22-3.48C3.13,55.17,2.2,57.44,0,59.11,2.24,60.74,3.11,63,3.65,65.47Zm.06-10.23,2.45,3.83L3.71,62.9,1.27,59.08C2.08,57.81,2.92,56.5,3.71,55.24Z"/><path d="M71.79,27.92c.59-2.52,1.48-4.82,3.75-6.46-2.26-1.65-3.17-3.92-3.75-6.48a10.44,10.44,0,0,1-3.67,6.5A10.18,10.18,0,0,1,71.79,27.92Zm0-10.32,2.44,3.87L71.8,25.28l-2.46-3.82Z"/><path d="M20,99.61c.59-.67,1-1,1.27-1.46a5.15,5.15,0,0,0-6.42-7.7,5.31,5.31,0,0,0-2.73,6,5.11,5.11,0,0,0,5.05,3.75c1.49,0,3,0,4.48-.08a5.4,5.4,0,0,0,.95-.21l-.06-.32Zm-2.87,0a4.55,4.55,0,0,1-.1-9.1A4.63,4.63,0,0,1,21.76,95,4.56,4.56,0,0,1,17.17,99.63Zm32.88-4.47A3,3,0,0,0,50.91,92a2.41,2.41,0,0,0-2.14-1.84,26.09,26.09,0,0,0-3.21,0,87.89,87.89,0,0,0,.32,9.9,7,7,0,0,0,.27-2.34c0-2,0-2,1.93-1.84a1.4,1.4,0,0,1,.88.54c.63.91,1.17,1.89,1.77,2.82a11,11,0,0,0,.8,1l.34-.24-2.54-4.26C49.63,95.48,49.85,95.33,50.05,95.16Zm-1.29,0c-2.14.59-2.61.19-2.61-2.21a1.35,1.35,0,0,1,0-.45c.2-.63-.58-1.65.65-1.87,1.68-.3,3.08.34,3.48,1.52A2.39,2.39,0,0,1,49.18,95,3.61,3.61,0,0,1,48.76,95.15ZM2,100l.43.2c.23-.5.47-1,.68-1.51.79-1.93.78-1.93,2.81-1.93,2.51,0,2.5,0,3.46,2.34a8.76,8.76,0,0,0,.63,1.11l.39-.21C9,96.61,7.64,93.24,6.16,89.59Zm6.18-3.89h-4L6.16,91C6.88,92.87,7.49,94.41,8.14,96.09ZM34.6,100l.32.17c.15-.22.4-.41.44-.65.43-2.53,2-3,4.34-2.8,1,.1,1.58.35,1.87,1.33a22.83,22.83,0,0,0,.89,2.19L43,100c-1.36-3.34-2.72-6.69-4.2-10.35C37.3,93.3,36,96.64,34.6,100Zm2.14-3.88c.67-1.66,1.29-3.19,2-5l2,5Zm28.6-6a7.09,7.09,0,0,1,.12.91c0,1.91,0,3.83,0,5.75a3.45,3.45,0,0,1-6.89.09c0-2,0-3.91,0-5.87a4.69,4.69,0,0,1,.14-.82H59c0,.38.09.76.1,1.14,0,2,0,3.91.12,5.86A2.51,2.51,0,0,0,62,99.63a2.66,2.66,0,0,0,2.86-2.77c0-1.92,0-3.84,0-5.75a8.27,8.27,0,0,1,.11-1ZM32,90.19a7.48,7.48,0,0,1,.12.92c0,1.92,0,3.84,0,5.75a3.14,3.14,0,0,1-3.06,3.35c-2.09.14-3.65-1-3.79-3-.15-2.26,0-4.52,0-6.78,0-.12.12-.24.19-.35l.32,0c0,.35.07.7.08,1.06,0,1.8,0,3.6,0,5.4s1.09,3,2.86,3,2.82-1,2.87-3c0-1.76,0-3.53,0-5.29a11.45,11.45,0,0,1,.11-1.15ZM74.4,97.71a2.62,2.62,0,0,1-2.15,2.4,4.47,4.47,0,0,1-4-.89l.1-.34a4.39,4.39,0,0,0,1.05.41,10.23,10.23,0,0,0,2.68.25,1.94,1.94,0,0,0,1.66-1.83,2,2,0,0,0-1.18-2.17c-.72-.36-1.48-.63-2.22-1-1.43-.62-2-1.56-1.74-2.72A2.65,2.65,0,0,1,71.45,90a21.68,21.68,0,0,1,2.5.5l-.09.41c-.81-.12-1.61-.29-2.41-.34A1.85,1.85,0,0,0,69.25,92c-.25,1.1.52,1.67,1.41,2.08.73.33,1.49.6,2.21,1A2.56,2.56,0,0,1,74.4,97.71ZM55.27,90.17q0,4.93,0,9.87h-.46V90.17Z"/></g></g></svg>