<svg xmlns="http://www.w3.org/2000/svg" viewBox="0 0 20.73 41.43"><title>Asset 477</title><g id="Layer_2" data-name="Layer 2"><g id="Layer_1-2" data-name="Layer 1"><path d="M20.43,17.36c0-.26-.08-.52-.11-.78A29,29,0,0,0,19.48,12a9.15,9.15,0,0,0-.3-1,1,1,0,0,0-1-.77,1.57,1.57,0,0,0-.77.16,1.68,1.68,0,0,1-.35.1c0-.27,0-.49,0-.7a37.53,37.53,0,0,0-.05-4,4.16,4.16,0,0,0-.62-1.79,1.13,1.13,0,0,0-.7-.56,1.93,1.93,0,0,0-1.34,0c-.11,0-.23.14-.41,0,0-.07-.05-.17-.07-.27-.12-.63-.23-1.26-.37-1.88A2.11,2.11,0,0,0,12.7.21a.74.74,0,0,0-.8-.15,2.31,2.31,0,0,0-1.33,1A8.73,8.73,0,0,0,10,2.61c0,.1,0,.23-.2.25a2.09,2.09,0,0,0-.19-.4C9.4,2.17,9.2,1.88,9,1.6a1.15,1.15,0,0,0-1.13-.4,3,3,0,0,0-.58.12,1.42,1.42,0,0,0-1,1.13,11.46,11.46,0,0,0-.21,1.43C6,4.94,6,6,5.93,7.06a11.78,11.78,0,0,1-.1,1.45,8.06,8.06,0,0,0-.1,1.9c0,.58.12,1.15.13,1.72,0,1.47,0,2.95,0,4.43a19.34,19.34,0,0,1-.23,2.52,3.93,3.93,0,0,1-.16-.83A10.82,10.82,0,0,0,4.73,15a3,3,0,0,0-1.17-1.55,3.41,3.41,0,0,1-.43-.37H2.76A1.7,1.7,0,0,0,1,14.26,17.88,17.88,0,0,0,.45,16,18,18,0,0,0,.08,19.3,15.24,15.24,0,0,0,0,21.54c0,.73,0,1.46.08,2.18.09,1.21.24,2.41.32,3.62a15.31,15.31,0,0,0,.35,2.35c.14.65.25,1.3.39,1.94.22,1,.59,2,.86,3a16,16,0,0,0,2,3.71c.06.06.09.16.14.22.19.22.37.44.57.65a8.4,8.4,0,0,0,1.9,1.4,6.41,6.41,0,0,0,2.69.83,12.19,12.19,0,0,0,2.49-.19,6.41,6.41,0,0,0,2.66-1.13,6.35,6.35,0,0,0,2-2.08,2.3,2.3,0,0,1,.35-.47A6.81,6.81,0,0,0,17.84,36a6.38,6.38,0,0,0,.71-1.34c.19-.62.45-1.22.68-1.83a12.93,12.93,0,0,0,.83-3.39,1.19,1.19,0,0,1,.05-.26c.06-.44.13-.87.2-1.3.13-.76.17-1.53.24-2.3a28.32,28.32,0,0,0,.16-4.22c0-.42-.05-.84-.08-1.26C20.56,19.21,20.5,18.29,20.43,17.36Zm-.08,6.78c-.07.95-.15,1.89-.23,2.83s-.29,2-.4,3a13.69,13.69,0,0,1-1.16,3.57c0,.14-.12.28-.17.43a9.62,9.62,0,0,1-1,2,28.21,28.21,0,0,1-2.08,2.89,3.53,3.53,0,0,1-.82.77,6.49,6.49,0,0,1-2,1A10.22,10.22,0,0,1,9.69,41a7.13,7.13,0,0,1-2.06-.43,3.08,3.08,0,0,1-1.27-.68,3.5,3.5,0,0,0-.72-.45A6,6,0,0,1,4.2,38a15.26,15.26,0,0,1-2-4.13,20.05,20.05,0,0,1-.88-3.32c-.08-.36-.16-.73-.22-1.1a32.14,32.14,0,0,1-.5-4.26c0-.77-.19-1.54-.2-2.31,0-1.3,0-2.6,0-3.9a2.63,2.63,0,0,1,.06-.39c0-.31.09-.61.11-.92a8,8,0,0,1,.47-2.52c.09-.23.13-.47.22-.69a1.62,1.62,0,0,1,1-1.05.82.82,0,0,1,.65,0,2.89,2.89,0,0,1,1.35,1.39,9.79,9.79,0,0,1,.82,3.45,7,7,0,0,0,.13,1.12A24.45,24.45,0,0,1,5.39,22c0,.26,0,.53.07.79,0,.07.08.13.11.18s.18-.1.19-.18,0-.44,0-.66a6.79,6.79,0,0,1,.07-1.19,43.25,43.25,0,0,0,.36-5.33c0-.77,0-1.54,0-2.31s0-1.5-.08-2.25a16.81,16.81,0,0,1,.1-3.09,5.85,5.85,0,0,0,.07-.72c.05-1.17.09-2.34.15-3.5a5.29,5.29,0,0,1,.22-1.24,1.18,1.18,0,0,1,.69-.74,1.16,1.16,0,0,1,1-.11,1.5,1.5,0,0,1,.87.86,6.85,6.85,0,0,1,.32,1s0,0,0,.07A2.37,2.37,0,0,1,9.75,4.6a9.68,9.68,0,0,0,.09,1.06c0,.37,0,.75,0,1.12,0,1.15,0,2.29,0,3.44,0,.53,0,1.06,0,1.59s-.06,1.36-.06,2,0,1.5,0,2.25a5.93,5.93,0,0,0,.1.72.14.14,0,0,0,.1.07.42.42,0,0,0,.16-.09.3.3,0,0,0,0-.18,11.93,11.93,0,0,1-.08-2c0-.91,0-1.82,0-2.72,0-.73,0-1.45,0-2.18,0-1.4,0-2.81,0-4.22,0-.55,0-1.1,0-1.66a1.13,1.13,0,0,1,0-.26,7.34,7.34,0,0,1,.65-2.26A2,2,0,0,1,12,.44a.62.62,0,0,1,.65.22,1.71,1.71,0,0,1,.49.85,16.16,16.16,0,0,1,.41,3.6c0,1.3,0,2.61,0,3.91s0,2.73,0,4.09c0,.16,0,.31,0,.47a8.58,8.58,0,0,1-.1,1.51,10.33,10.33,0,0,0-.07,1.58.31.31,0,0,0,.1.23c.05,0,.2,0,.22,0a.68.68,0,0,0,.08-.31c.09-1.5.09-3,.07-4.5,0-2.29,0-4.58,0-6.88,0-.35,0-.7,0-1a1.46,1.46,0,0,1,2.36.62,4.31,4.31,0,0,1,.37,1.74c0,1.58,0,3.17,0,4.76,0,1.41,0,2.82.08,4.23s.13,2.81.16,4.22a3,3,0,0,0,.09.59.18.18,0,0,0,.16.08.18.18,0,0,0,.13-.11.44.44,0,0,0,0-.2c0-.84-.09-1.67-.13-2.51,0-.51,0-1,0-1.52,0-1.44-.06-2.87-.14-4.3a1.11,1.11,0,0,1,.82-1.13.82.82,0,0,1,1,.43c.19.63.36,1.27.55,1.9a19.28,19.28,0,0,1,.52,2.79,31.51,31.51,0,0,1,.36,3.49c0,.61,0,1.23.11,1.84A15.44,15.44,0,0,1,20.35,24.14Z"/></g></g></svg>