<svg xmlns="http://www.w3.org/2000/svg" viewBox="0 0 112.96 143.59"><title>Asset 564</title><g id="Layer_2" data-name="Layer 2"><g id="Layer_1-2" data-name="Layer 1"><path d="M111.57,49.09,96.05,19.37a4.86,4.86,0,0,0,1.19-.61,3.49,3.49,0,0,0,2-3,2.73,2.73,0,0,0-2.58-2.61,2.37,2.37,0,0,0-2.33,1.31,3.07,3.07,0,0,0-.15,2c-1.18.48-5.58,1.36-17.2-4.17-3.06-1.45-10.09-3-15.17-.55L57.12,1.57l.5-1.09L56.55,0l-.07.15L56.41,0,55.34.48l.5,1.09L51.2,11.8c-5.08-2.49-12.12-.9-15.17.55C24.38,17.89,20,17,18.82,16.53a3,3,0,0,0-.14-2.06,2.37,2.37,0,0,0-2.33-1.31,2.72,2.72,0,0,0-2.58,2.61,3.5,3.5,0,0,0,1.94,3,4.81,4.81,0,0,0,1.2.61L1.39,49.09A1.56,1.56,0,0,0,0,50.64v.24A1.56,1.56,0,0,0,.52,52c.33,3.1,3.34,5.54,7,5.54H31.19c3.67,0,6.68-2.44,7-5.54a1.56,1.56,0,0,0,.52-1.16v-.24a1.57,1.57,0,0,0-1.57-1.57h0L21,20.13l1,0c3.71,0,9.3-.91,17.4-4.22,4.07-1.66,8.33-.43,13,3.75A4.76,4.76,0,0,0,53.3,21l.2,63.76h-15A4.53,4.53,0,0,0,34,88.64H30c-4.63,0-7.5,2.31-7.5,6v.58h68v-.58c0-3.72-2.87-6-7.5-6H79a4.53,4.53,0,0,0-4.5-3.88h-15L59.66,21a4.76,4.76,0,0,0,.88-1.32c4.69-4.18,8.95-5.41,13-3.75,8.1,3.31,13.69,4.22,17.4,4.22l1,0L75.85,49.07h0a1.56,1.56,0,0,0-1.56,1.57v.24A1.56,1.56,0,0,0,74.76,52c.33,3.1,3.34,5.54,7,5.54h23.67c3.67,0,6.68-2.44,7-5.54a1.56,1.56,0,0,0,.52-1.16v-.24A1.56,1.56,0,0,0,111.57,49.09ZM94.08,18.71l.15-.28.12.22Zm5,30.36L95.4,20.67l14.83,28.4Zm-1.18,0H90.51l3.77-28ZM95.36,14.92a1.28,1.28,0,0,1,1.25-.59A1.56,1.56,0,0,1,98,15.77c0,.51-.16,1.21-1.42,2l0,0a4.42,4.42,0,0,1-1,.5L95,17.4l.26-.19.41-.38-.35-.42A1.88,1.88,0,0,1,95.36,14.92ZM56.48,3l4.25,9.39A9.44,9.44,0,0,0,58.85,14a4.72,4.72,0,0,0-2.09-.77v0l-.28,0-.29,0v0a4.72,4.72,0,0,0-2.08.77,9.23,9.23,0,0,0-1.89-1.6Zm0,18.32a3.48,3.48,0,1,1,3.27-3.48A3.53,3.53,0,0,1,56.48,21.31ZM2.72,49.07l14.83-28.4-3.71,28.4Zm16-28,3.77,28H15Zm-.06-2.45.11-.2.14.25Zm-2.21-.81,0,0c-1.26-.81-1.43-1.51-1.43-2a1.57,1.57,0,0,1,1.41-1.44,1.25,1.25,0,0,1,1.24.59,1.87,1.87,0,0,1,0,1.48l-.36.43.41.38.26.19-.48.91A4.43,4.43,0,0,1,16.41,17.82ZM31.19,56.4H7.52c-2.83,0-5.21-1.7-5.75-3.95H37C36.4,54.7,34,56.4,31.19,56.4Zm6.35-5.76v.24a.39.39,0,0,1-.39.4H1.56a.4.4,0,0,1-.39-.4v-.24a.39.39,0,0,1,.39-.39H37.15A.38.38,0,0,1,37.54,50.64ZM23.63,49.07,19.76,20.29l16,28.78ZM39,14.85c-9.36,3.82-15.23,4.34-18.63,4l-.49-.9c2.45.34,7.36-.14,16.7-4.58a20.89,20.89,0,0,1,8.34-1.75h0c2.56,0,6,.56,8.32,3.09A4.61,4.61,0,0,0,52,17.82C47.46,14.17,43.06,13.17,39,14.85ZM89.26,94.08H23.7c.18-1.49,1.21-4.26,6.29-4.26H83C88.05,89.82,89.08,92.59,89.26,94.08ZM77.78,88.64H35.17a3.36,3.36,0,0,1,3.32-2.7h36A3.35,3.35,0,0,1,77.78,88.64Zm-21-3.88H54.67l-.19-62.85a4.77,4.77,0,0,0,1.71.55v0h.57v0a4.76,4.76,0,0,0,1.72-.55l-.19,62.85ZM74,14.85c-4.12-1.68-8.51-.68-13.08,3a4.62,4.62,0,0,0-1.2-3.07c2.3-2.53,5.77-3.08,8.33-3.09h0a20.89,20.89,0,0,1,8.34,1.75c9.33,4.44,14.25,4.92,16.7,4.58l-.51.92C89.24,19.22,83.4,18.68,74,14.85ZM93.2,20.29,89.33,49.07H77.19ZM75.41,50.64a.39.39,0,0,1,.39-.39h35.59a.39.39,0,0,1,.4.39v.24a.4.4,0,0,1-.4.4H75.8a.4.4,0,0,1-.39-.4Zm30,5.76H81.76c-2.83,0-5.21-1.7-5.75-3.95h35.18C110.64,54.7,108.27,56.4,105.43,56.4Z"/><path d="M42.55,142.69h3.64v.9H41.48v-8.36h1.07Zm5.12.9h1.07v-8.36H47.67Zm9.19-2.44c0,1.64-1.3,2.44-3.16,2.44H51v-8.36h2.49c1.69,0,2.88.58,2.88,2a1.84,1.84,0,0,1-1.22,1.82v.06A1.92,1.92,0,0,1,56.86,141.15Zm-4.77-2.36h1.24c1.42,0,2-.52,2-1.38s-.66-1.32-2-1.32H52.09Zm3.71,2.32c0-1-.8-1.51-2.25-1.51H52.09v3.14h1.46C55,142.74,55.8,142.23,55.8,141.11ZM62.19,140l2.13,3.64H63.11l-2-3.53h-1.5v3.53H58.52v-8.36h2.61c1.71,0,2.93.61,2.93,2.36A2.29,2.29,0,0,1,62.19,140Zm.8-2.36c0-1.1-.71-1.49-2-1.49H59.59v3.1H61C62.28,139.2,63,138.66,63,137.59Zm8.49,6H70.35l-.79-2.53h-3l-.8,2.53H64.62l2.82-8.36h1.22Zm-2.19-3.4-.4-1.26c-.3-.93-.57-1.85-.84-2.82h0c-.25,1-.52,1.89-.81,2.82l-.4,1.26Z"/></g></g></svg>