<svg xmlns="http://www.w3.org/2000/svg" viewBox="0 0 20.88 41.55"><title>Asset 483</title><g id="Layer_2" data-name="Layer 2"><g id="Layer_1-2" data-name="Layer 1"><path d="M19.44,10.26A2,2,0,0,0,17.9,11a6.23,6.23,0,0,0-1.12,2.28c0,.11,0,.22-.08.33-.21.64-.43,1.29-.66,1.93a1.07,1.07,0,0,1-.14.22c-.06-.1-.12-.16-.12-.22,0-.42-.18-2.39-.18-2.76a21.23,21.23,0,0,1,.3-4.36c.14-.67.23-1.34.31-2s.09-1.36.17-2a13.13,13.13,0,0,0-.14-2.26A1.41,1.41,0,0,0,15.56,1a1.55,1.55,0,0,0-.92-.24.88.88,0,0,0-.7.32s-.12.07-.2.12a1.33,1.33,0,0,1-.1-.23A1.37,1.37,0,0,0,12,.05a1.83,1.83,0,0,0-.76.47.55.55,0,0,0-.2.39c0,.46-.1.91-.1,1.36a3.87,3.87,0,0,1-.24,1.16c-.22-.07-.24-.25-.32-.4s-.25-.39-.51-.41a1.8,1.8,0,0,0-1.1.12.44.44,0,0,0-.16.17,4,4,0,0,0-.49.82,8.43,8.43,0,0,0-.49,2c0,.4-.07.79-.12,1.19C7.37,7.65,7.23,8.34,7.2,9a13.24,13.24,0,0,0,0,2.67,13,13,0,0,1,.14,1.87,2.1,2.1,0,0,1,0,.5,1.36,1.36,0,0,1-.76,1A.44.44,0,0,1,6,15c-.27-.26-.55-.52-.8-.81a7.64,7.64,0,0,1-1-1.54,5.58,5.58,0,0,0-.35-.58c-.35-.52-.71-1-1.07-1.54s-.74-.91-1.1-1.37A.58.58,0,0,0,1.27,9C.74,8.91.09,9.69.46,10.24a1.27,1.27,0,0,0,.22.33.64.64,0,0,1,.18.62,2.69,2.69,0,0,0,0,1c.15.53.33,1,.48,1.58a3,3,0,0,0,.46.91c.31.42.61.86.91,1.29l2,2.84a3,3,0,0,0,.32.39A4.08,4.08,0,0,1,6.11,22a16.41,16.41,0,0,0,.15,2.21,20.53,20.53,0,0,1,.25,2.71,2.65,2.65,0,0,1-.1.84A9.49,9.49,0,0,1,6,28.86a2.53,2.53,0,0,1-.42.73,6.4,6.4,0,0,0-.85,1.27,8.12,8.12,0,0,0-1,2.64,8.27,8.27,0,0,1-.58,2c-.06.13-.13.27-.18.41a10.83,10.83,0,0,1-.87,2c-.3.56-.62,1.12-1,1.65a10.58,10.58,0,0,1-.95,1.35,1.22,1.22,0,0,0-.18.4.12.12,0,0,0,0,.1.24.24,0,0,0,.15,0c.12-.17.22-.36.35-.51A15.36,15.36,0,0,0,2,38.58a22.26,22.26,0,0,0,1.13-2.3,11,11,0,0,0,.95-3.14A3.77,3.77,0,0,1,4.6,31.7a10.42,10.42,0,0,1,1.31-2,1.25,1.25,0,0,0,.16-.24,8.3,8.3,0,0,0,.68-1.86.9.9,0,0,0,0-.28,19.76,19.76,0,0,0-.1-2,22.77,22.77,0,0,1-.34-3.39,4.39,4.39,0,0,0-1.16-3,3.37,3.37,0,0,1-.29-.35c-.53-.76-1.14-1.46-1.6-2.27,0-.08-.11-.15-.17-.23-.32-.44-.66-.88-1-1.33a4.08,4.08,0,0,1-.6-1.22c-.11-.4-.19-.82-.33-1.2A2.39,2.39,0,0,1,1.17,11a.89.89,0,0,0,.9-.83,3.61,3.61,0,0,1,.33.3c.38.54.76,1.07,1.12,1.63s.82,1.36,1.23,2a4.78,4.78,0,0,0,1,1.19.8.8,0,0,0,.9.15A1.24,1.24,0,0,0,7.31,15a2.51,2.51,0,0,0,.37-1.46,7.28,7.28,0,0,0-.16-1.86,2.15,2.15,0,0,1,0-.51c0-.41,0-.83,0-1.25,0-.85.34-3.72.41-4.22a2.42,2.42,0,0,1,.29-1.15,1.14,1.14,0,0,0,.08-.33c0-.08,0-.21.12-.27.11.27.2.52.32.75a.65.65,0,0,0,1,.24,2.5,2.5,0,0,0,.41-.39,2.37,2.37,0,0,0,.2-.27.51.51,0,0,1-.08.52,8.55,8.55,0,0,0-.81,2.18,7.72,7.72,0,0,0-.36,2.29,18.8,18.8,0,0,0,.35,3.27c0,.18.07.37.12.55,0,0,.06,0,.09,0s.08,0,.09-.06a.3.3,0,0,0,0-.16,9.79,9.79,0,0,1-.23-1.52c-.05-.43-.13-.86-.15-1.3a19.88,19.88,0,0,1,.88-4.5c.16-.33.3-.66.43-1a7.18,7.18,0,0,0,.5-2.37c0-.14,0-.3.11-.46.08.11.15.22.23.31a.68.68,0,0,0,1.08,0,4.26,4.26,0,0,0,.35-.38c.11-.14.21-.3.34-.49a1.4,1.4,0,0,1,.18,1l-.21,1.11c-.08.44-.24.87-.34,1.31-.29,1.22-.63,2.42-.85,3.65a7.4,7.4,0,0,0-.15,2.2,6.1,6.1,0,0,1,0,.74c0,.44,0,.87,0,1.31a2.86,2.86,0,0,0,.27,1.07c.18-.08.12-.2.1-.3a15,15,0,0,1-.19-2.84c0-.24,0-.49,0-.73a7.53,7.53,0,0,1,.3-1.89,1.36,1.36,0,0,0,.06-.45,2.08,2.08,0,0,1,.13-.6,40,40,0,0,0,.94-4,.51.51,0,0,1,.06-.21.81.81,0,0,1,.16-.17c.06.1.09.17.13.23.25.48.46.52,1,.3a1.94,1.94,0,0,0,.7-.64L15.84,2c.06,0,.1.07.11.1a.46.46,0,0,1,.07.16,8.59,8.59,0,0,1,.1,2.21c-.07.73-.27,2.5-.29,2.65L15.68,8c0,.32-.1.64-.14,1s-.1.6-.12.9a32.3,32.3,0,0,0-.06,3.81,13.5,13.5,0,0,0,.23,2.37c.21.92.35,1.86.65,2.77.22.66.43,1.33.64,2A1,1,0,0,0,17,21c0,.08.11.17.21.11s.06-.13.07-.2,0-.1-.06-.16c-.26-.88-.67-1.72-.86-2.63-.14-.68-.45-1.34-.1-2,0,0,0-.08,0-.12.08-.29.16-.58.25-.87.21-.67.47-1.32.64-2a5.49,5.49,0,0,1,.94-1.85c.07-.1.15-.18.22-.27a1,1,0,0,1,.76-.3,1.83,1.83,0,0,1-.15.6,5.11,5.11,0,0,0-.23.76,1.09,1.09,0,0,0,.95,1.26l.31.05c-.11.36-.21.68-.29,1-.18.69-.39,1.38-.52,2.09a10,10,0,0,0-.24,2,2.08,2.08,0,0,1,0,.23c-.08.57-.15,1.15-.22,1.73l-.06.4a4,4,0,0,0-.08.5,14.73,14.73,0,0,1-.48,3,31.81,31.81,0,0,1-1,3.13c-.45,1.16-1,2.29-1.39,3.46a1.17,1.17,0,0,1-.05.11c-.33.59-.53,1.25-.81,1.87-.12.27-.26.55-.4.81-.31.56-.65,1.11-.95,1.67-.48.92-.94,1.85-1.41,2.78l-1.33,2.57c-.11.2-.21.4-.3.61a.65.65,0,0,0,0,.2.21.21,0,0,0,.29-.15,12.61,12.61,0,0,0,.89-1.9l1.34-2.57c.38-.7.79-1.38,1.14-2.09.46-.94,1-1.84,1.37-2.81.16-.4.38-.78.55-1.18q.71-1.74,1.38-3.48c.3-.8.59-1.6.81-2.42a16.45,16.45,0,0,0,.48-2.05c.18-1.24.32-2.48.47-3.72.1-.77.19-1.54.3-2.31a9.91,9.91,0,0,1,.22-1.11c.18-.7.36-1.39.57-2.08s.46-1.36.71-2a.71.71,0,0,0-.07-.65A1.39,1.39,0,0,0,19.44,10.26ZM1.75,10.17c0,.25-.18.35-.4.41a.29.29,0,0,1-.16,0A1,1,0,0,1,.65,9.9a.82.82,0,0,1,.51-.68.32.32,0,0,1,.25.07c.15.15.26.32.41.5C1.79,10,1.76,10.06,1.75,10.17Zm8.3-6.29c-.1.2-.21.4-.32.59a.46.46,0,0,1-.85,0A1.79,1.79,0,0,1,8.7,3.6V3.55c0-.43.06-.66.71-.61h.11A.6.6,0,0,1,10.05,3.88Zm2.34-2a.32.32,0,0,1-.49,0,1.36,1.36,0,0,1-.53-1,.36.36,0,0,1,.1-.25,1.18,1.18,0,0,1,.95-.41c.29,0,.46.22.65.42A3,3,0,0,1,12.39,1.89Zm2.76.41a.89.89,0,0,1-.5.35.34.34,0,0,1-.45-.24,4.77,4.77,0,0,1-.15-.54.53.53,0,0,1,.43-.68,1,1,0,0,1,1.12.43Zm5.1,10.24a.58.58,0,0,1-.92.3.63.63,0,0,1-.37-.59,4.54,4.54,0,0,1,.57-1.76c.26.11.46.17.64.26a.61.61,0,0,1,.35.75A7.57,7.57,0,0,1,20.25,12.54Z"/></g></g></svg>