<svg xmlns="http://www.w3.org/2000/svg" viewBox="0 0 113.59 113.59"><defs><style>.cls-1{fill:#1a1a1a;}</style></defs><title>Asset 448</title><g id="Layer_2" data-name="Layer 2"><g id="Layer_1-2" data-name="Layer 1"><path class="cls-1" d="M74.84,51.55A1.94,1.94,0,1,1,71.92,49c2.29-2.6,3.13-5.21,2.39-7.33a4.68,4.68,0,0,0-3.45-3,4.53,4.53,0,0,0-3.78,1.21c-2.22,1.85-4.12,5.47-5.5,10.46a82,82,0,0,0-2.4,21.38,1.95,1.95,0,0,1-3.89,0,82,82,0,0,0-2.4-21.38c-1.38-5-3.29-8.61-5.5-10.46a4.54,4.54,0,0,0-3.78-1.21,4.68,4.68,0,0,0-3.45,3c-.74,2.12.1,4.73,2.39,7.33a1.94,1.94,0,1,1-2.92,2.56c-4.38-5-3.84-9.14-3.13-11.17a8.55,8.55,0,0,1,6.42-5.56,8.36,8.36,0,0,1,7,2c4,3.35,6.2,9.77,7.35,14.83,1.16-5.06,3.36-11.48,7.36-14.83a8.36,8.36,0,0,1,7-2A8.55,8.55,0,0,1,78,40.38C78.68,42.41,79.22,46.55,74.84,51.55Z"/><path class="cls-1" d="M49.73,86.61a39.81,39.81,0,0,1-.34-4.17,1.7,1.7,0,0,0,.12-.29c.05-.17.05-.28,0-.34a.82.82,0,0,0-.56-.39.68.68,0,0,0-.61.17c-.23.16-.92.79-2.06,1.87-.57.54-1.18,1.08-1.83,1.6a12,12,0,0,0-1.84,1.64.54.54,0,0,0,.14.46.79.79,0,0,0,.38.31.67.67,0,0,0,.32,0,2.56,2.56,0,0,0,.83-.58,8.78,8.78,0,0,0,.79-.73.41.41,0,0,0,.27.17.7.7,0,0,0,.27,0,14.7,14.7,0,0,1,1.6.08,8.59,8.59,0,0,1,1.26.18s0,0,0,0a4.84,4.84,0,0,0,.11.93A4.68,4.68,0,0,0,49,89a1.17,1.17,0,0,0,.65.65.74.74,0,0,0,.53,0,.59.59,0,0,0,.33-.38.43.43,0,0,0,0-.25,3,3,0,0,0-.22-.42A5.65,5.65,0,0,1,49.73,86.61Zm-1.82-1.1c-.63-.06-1-.1-1.18-.13l-.67-.09,2.17-2.15a1.81,1.81,0,0,1,0,.22c.06,1.26.1,2,.13,2.2Zm9.58-.79a.86.86,0,0,1,.3.68.77.77,0,0,1-.14.4.35.35,0,0,1-.33.15.82.82,0,0,1-.57-.28.5.5,0,0,0-.29-.18c-.26,0-.72.34-1.37,1.08a5.21,5.21,0,0,0-1.25,2.53.9.9,0,0,1-.28.57.85.85,0,0,1-.55.13.53.53,0,0,1-.49-.41,3.82,3.82,0,0,1-.08-1.28c0-.24,0-.56.07-1s.1-.85.2-1.41c0-.14,0-.25,0-.34a3.29,3.29,0,0,1,.15-.66.71.71,0,0,1,.29-.32.8.8,0,0,1,.5-.13.59.59,0,0,1,.42.18.45.45,0,0,1,.12.34,4.34,4.34,0,0,1-.28,1,3.09,3.09,0,0,0-.18.6l-.17.75.1-.15a8.23,8.23,0,0,1,1.46-1.88,2,2,0,0,1,1.46-.67A1.33,1.33,0,0,1,57.49,84.72Zm8.27,1.53a.53.53,0,0,0-.34.28A3,3,0,0,1,63.63,88a.84.84,0,0,1-.63-.08.64.64,0,0,1-.32-.39.18.18,0,0,1,.12-.21,4.81,4.81,0,0,0,1.93-1.55A2.26,2.26,0,0,0,65.2,84a1.12,1.12,0,0,0-.53-.73,1.26,1.26,0,0,0-1-.13,2.92,2.92,0,0,0-1.87,1.68,3.94,3.94,0,0,0-.42,2.77,2,2,0,0,0,.83,1.31,1.83,1.83,0,0,0,1.47.2,3.27,3.27,0,0,0,1.85-1.17c.48-.6.68-1.07.61-1.4S66,86.2,65.76,86.25ZM62.93,85c.26-.5.54-.78.84-.85a.29.29,0,0,1,.26,0,.39.39,0,0,1,.16.25,1.36,1.36,0,0,1-.4,1,3.21,3.21,0,0,1-1.26,1A3.13,3.13,0,0,1,62.93,85Zm7.45,1.51a5.22,5.22,0,0,1-2,1.32c-.58.24-1,.16-1.12-.24a.51.51,0,0,1,0-.45.68.68,0,0,1,.35-.32.93.93,0,0,1,.31-.06,1.13,1.13,0,0,0,.39-.07,3.94,3.94,0,0,0,.89-.53,1.34,1.34,0,0,0,.52-.61c-.08-.16-.44-.25-1.08-.26A4.3,4.3,0,0,1,67.12,85a1.27,1.27,0,0,1-.57-.6,1.86,1.86,0,0,1,.38-1.81,3.59,3.59,0,0,1,1.54-1.34c.55-.23.91-.11,1.09.34a.4.4,0,0,1,0,.39.56.56,0,0,1-.26.27.53.53,0,0,1-.21,0,.54.54,0,0,0-.24,0A2.32,2.32,0,0,0,68,83c-.27.33-.35.61-.25.85a.47.47,0,0,0,.32.27,3.26,3.26,0,0,0,.92.12,3.67,3.67,0,0,1,1.38.22,1.09,1.09,0,0,1,.54.56C71.06,85.42,70.9,85.92,70.38,86.48Zm-10.7-.76a8.55,8.55,0,0,0-.2,1.58c0,.41,0,.73,0,1a4.38,4.38,0,0,0,.18.79.49.49,0,0,1,0,.15c0,.07-.06.18-.2.32a.72.72,0,0,1-.47.24c-.45,0-.71-.27-.77-.92a10.72,10.72,0,0,1,.06-2.07c0-.18,0-.35,0-.51h0c.06-.61.08-1,.08-1a1.07,1.07,0,0,1,.11-.63.56.56,0,0,1,.45-.29.87.87,0,0,1,.56.11.43.43,0,0,1,.23.34,3.07,3.07,0,0,1-.11.83Zm.6-4.16a.62.62,0,0,1,.26.44.78.78,0,0,1-.28.65,1,1,0,0,1-.55.31.76.76,0,0,1-.58-.19.72.72,0,0,1-.28-.47.74.74,0,0,1,.18-.6,1,1,0,0,1,.67-.28A.84.84,0,0,1,60.28,81.56Z"/><path class="cls-1" d="M79.69,77.21l1.62.72-1.72.41L79.4,80.1l-.92-1.5L76.75,79l1.14-1.34L77,76.09l1.63.67,1.19-1.31Zm-10.46-49-.4-1.72-.73,1.61-1.76-.15,1.3,1.19L67,30.72l1.53-.87L69.83,31l-.35-1.73L71,28.36ZM67.5,68l-1-1.42,0,1.76-1.68.56,1.67.58v1.77l1.07-1.41,1.69.53-1-1.45,1-1.43ZM30.6,50.48,28.91,51l-1.05-1.42,0,1.76-1.68.56,1.67.58v1.77l1.07-1.41,1.68.53-1-1.45Zm16.48,7.85-.43-1.71L46,58.24l-1.76-.13,1.32,1.18-.66,1.64,1.52-.9,1.36,1.13-.38-1.72,1.49-.94Zm7.6-31.84L53,23.4l-.53,3.49L49,27.56l3.16,1.59-.43,3.5,2.48-2.51,3.2,1.5L55.76,28.5l2.41-2.59ZM38.12,69.25l-.4-4.69-2.55,4-4.59-1.08,3,3.65-2.44,4,4.4-1.7L38.6,77l-.27-4.71,4.34-1.82ZM88.6,58,84,58.79l-2.29-4.12L81,59.33l-4.62.91,4.22,2.1L80,67l3.3-3.36,4.27,2-2.18-4.18Z"/><path class="cls-1" d="M56.79,113.59a56.8,56.8,0,1,1,56.8-56.8A56.86,56.86,0,0,1,56.79,113.59Zm0-112.34a55.55,55.55,0,1,0,55.55,55.54A55.61,55.61,0,0,0,56.79,1.25Z"/><path class="cls-1" d="M55.72,95.91A38.79,38.79,0,1,1,94.5,57.13,38.83,38.83,0,0,1,55.72,95.91Zm0-76.32A37.54,37.54,0,1,0,93.25,57.13,37.58,37.58,0,0,0,55.72,19.59Z"/><path class="cls-1" d="M75.86,12.53a4.6,4.6,0,0,1-1.12,2l-.06.07-1.19-.28.18-.19a4.2,4.2,0,0,0,1-1.8,2,2,0,0,0,0-1.17.84.84,0,0,0-.62-.55c-.67-.16-1.52.49-2.5,1.93A16.94,16.94,0,0,0,70,15.57a24,24,0,0,0-1.2,3.59l-.15.67-1.13-.26.16-.7a22,22,0,0,0,.51-3.57,17.86,17.86,0,0,0,0-3.32c-.24-1.85-.71-2.87-1.41-3a.86.86,0,0,0-.8.21,1.93,1.93,0,0,0-.55,1,3.77,3.77,0,0,0,.15,2l.09.27-1.2-.28,0-.09a4.6,4.6,0,0,1-.13-2.27,2.71,2.71,0,0,1,1-1.59A2,2,0,0,1,67,7.89c1,.23,1.67,1.08,2,2.52a12.53,12.53,0,0,1,.17,4.46A12.14,12.14,0,0,1,71.31,11c1-1.15,2-1.61,3-1.38a2,2,0,0,1,1.38,1.06A2.63,2.63,0,0,1,75.86,12.53Z"/><path class="cls-1" d="M97.61,26.15A2.66,2.66,0,0,0,95,25.62l-.91.19a3.18,3.18,0,0,1-1.41,0,2.27,2.27,0,0,1-1-.74A2.29,2.29,0,0,1,91,24a3,3,0,0,1,.2-1.39l.3-.88A2.67,2.67,0,0,0,91.31,19l-.37-.43-.72.63.21.23a1.63,1.63,0,0,1,.06,1.64l-.23.65a5.23,5.23,0,0,0-.33,1.36,2.4,2.4,0,0,0,.09.82,4.05,4.05,0,0,0-1.82-.13,3.63,3.63,0,0,0-3,3.45,3.71,3.71,0,0,0,3.51,4H89a3.57,3.57,0,0,0,2.43-.9,3.64,3.64,0,0,0,1.09-1.69,4.1,4.1,0,0,0,.1-1.82,2.82,2.82,0,0,0,.81.2,5.54,5.54,0,0,0,1.38-.15l.68-.15c.77-.16,1.32-.07,1.62.28l.2.23.72-.63Zm-7,3.3a2.48,2.48,0,0,1-1.88.63,2.67,2.67,0,0,1-2.46-2.8,2.57,2.57,0,0,1,2.55-2.43H89a2.65,2.65,0,0,1,2.46,2.81A2.5,2.5,0,0,1,90.61,29.45Z"/><path class="cls-1" d="M108.73,51a17.69,17.69,0,0,1-1.54-4.39,17.75,17.75,0,0,1-.51-4.62v-.2l-1,.22v.12a12.29,12.29,0,0,0,.06,2.11L98.89,45.8A15.1,15.1,0,0,0,98,43.87l0-.1L97,44l.09.18a19.29,19.29,0,0,1,2,9v.2l1-.23V53a17.91,17.91,0,0,0,0-2.11l6.84-1.56a12.4,12.4,0,0,0,.87,1.94l0,.1,1-.23Zm-8.84-1.22c-.06-.45-.15-.93-.27-1.45s-.25-1-.39-1.42l6.68-1.52c.07.4.17.89.29,1.44s.25,1,.36,1.43Z"/><path class="cls-1" d="M107.26,70.14a2.87,2.87,0,0,0-1.61-2.62,2.3,2.3,0,0,0-3,3A2.35,2.35,0,0,0,105.19,72a2.41,2.41,0,0,0,.94-.4,7.59,7.59,0,0,1-.59,2.22A12.34,12.34,0,0,1,102.48,78l-.18.17,1.17.48.07-.07a11.48,11.48,0,0,0,2.92-4A9.19,9.19,0,0,0,107.26,70.14Zm-1.16,0a1.44,1.44,0,0,1-.78.79,1.43,1.43,0,0,1-1.09-2.64,1.43,1.43,0,0,1,1.11,0,1.3,1.3,0,0,1,.76.76A1.35,1.35,0,0,1,106.1,70.18Zm-3.44,3.87a2.31,2.31,0,0,0-1.25-1.26,2.27,2.27,0,0,0-2.23.25,7.59,7.59,0,0,1,.59-2.22,12.3,12.3,0,0,1,3-4.23l.18-.17-1.17-.48-.07.07a11.67,11.67,0,0,0-2.91,4,9.21,9.21,0,0,0-.8,4.44,2.88,2.88,0,0,0,1.6,2.62,2.21,2.21,0,0,0,.74.17,2,2,0,0,0,1-.18,2.19,2.19,0,0,0,1.25-1.23A2.29,2.29,0,0,0,102.66,74.05Zm-.81,1.43a1.37,1.37,0,0,1-.78.77,1.4,1.4,0,0,1-1.1,0,1.39,1.39,0,0,1-.77-.77,1.44,1.44,0,0,1,.79-1.86,1.22,1.22,0,0,1,.64-.12,1.43,1.43,0,0,1,1.22,2Z"/><path class="cls-1" d="M93.5,93.41a4.49,4.49,0,0,0-1.69-.91,2.12,2.12,0,0,0,.31-.28,2.19,2.19,0,0,0,.6-1.68A2.27,2.27,0,0,0,92,88.91a2.33,2.33,0,0,0-1.71-.65A2.28,2.28,0,0,0,88.6,89,2.26,2.26,0,0,0,88,90.72a2.21,2.21,0,0,0,.72,1.63,4.44,4.44,0,0,0,1.68.78l.49.15a4.77,4.77,0,0,1,1.81.94,1.85,1.85,0,0,1,.66,1.37A2,2,0,0,1,92.74,97a2,2,0,0,1-1.5.72,2.27,2.27,0,0,1-1.58-.67,5.48,5.48,0,0,1-1.14-1.91L88,94a9.14,9.14,0,0,0-1.74-3.1,1.89,1.89,0,0,0-1.42-.53,2,2,0,0,0-1.39.67,3,3,0,0,0-.67,2.11v.16h1.05v-.16a2.12,2.12,0,0,1,.39-1.36.81.81,0,0,1,.63-.29,1,1,0,0,1,.69.29A10.32,10.32,0,0,1,87,94.49l.36.88A13.23,13.23,0,0,0,88.1,97a4.75,4.75,0,0,0,.8,1,3.07,3.07,0,0,0,2.32.91h.15a3.33,3.33,0,0,0,2.12-1.14,3.2,3.2,0,0,0,.92-2.22A2.71,2.71,0,0,0,93.5,93.41Zm-2.08-1.82a1.33,1.33,0,0,1-1,.45A1.47,1.47,0,0,1,89,90.65a1.31,1.31,0,0,1,.36-1,1.29,1.29,0,0,1,.86-.44h.12a1.4,1.4,0,0,1,1,.4,1.38,1.38,0,0,1,.46,1A1.34,1.34,0,0,1,91.42,91.59Z"/><path class="cls-1" d="M75.23,108.4a4,4,0,0,1-1.34-1.91l-2-6-1.1.36,1.7,5.17a6.64,6.64,0,0,1-.37,2.5,5.47,5.47,0,0,1-.83-1.72l-1.81-5.52-1.11.37,1.64,5a6.07,6.07,0,0,1-.31,2.69,4.2,4.2,0,0,1-.74-1.46L67.38,103a6.49,6.49,0,0,0-.38-1,6,6,0,0,1,1.38-1l.11-.06-.32-1L68,100a6.31,6.31,0,0,0-1.58,1.11,4.66,4.66,0,0,0-.9-.85l-.07,0-1.33.44.28.18a3.55,3.55,0,0,1,1.26,1.19,6.8,6.8,0,0,0-.89,2.39,5.29,5.29,0,0,0,.21,2.43,5.53,5.53,0,0,0,1.83,2.59l.1.08.71-.57,0,0a5.16,5.16,0,0,0,.17-.9l.25.76a3.7,3.7,0,0,0,1.37,1.87l.08.06.86-.48,0,0a5.69,5.69,0,0,0,.41-1.51,3.65,3.65,0,0,0,1.08,1.18l.08.05.87-.47,0-.05a5.6,5.6,0,0,0,.39-1.47,3.72,3.72,0,0,0,.94,1l.07,0,1.2-.4Zm-8.32-.46a4.18,4.18,0,0,1-.83-1.48,4.44,4.44,0,0,1-.22-1.8,5,5,0,0,1,.37-1.47l.92,2.79A6.41,6.41,0,0,1,66.91,107.94Z"/><path class="cls-1" d="M44.72,104.32l3.69,1.28L48,106.7l-2.21-.76a2.27,2.27,0,0,1,0,1.5A2.66,2.66,0,0,1,44.37,109a2.83,2.83,0,0,1-2.18.12,2.81,2.81,0,0,1-1.64-1.44,2.7,2.7,0,0,1-.15-2.15,2.26,2.26,0,0,1,.94-1.18l-2.2-.77.38-1.1,3.69,1.29-.34,1-.08,0a1.65,1.65,0,0,0-1.28,1.1,1.6,1.6,0,0,0,.09,1.28,1.63,1.63,0,0,0,1,.87,1.66,1.66,0,0,0,1.31-.07,1.61,1.61,0,0,0,.87-1,1.64,1.64,0,0,0-.32-1.65l0-.07Zm-4.37-4.21-.38,1.1,8.89,3.09.39-1.1Z"/><path class="cls-1" d="M28.75,93l-4.46,4.31a3.7,3.7,0,0,0-1.2,2.11l0,.31-.92-.94,0-.09a4.51,4.51,0,0,1,.51-1.28,5.6,5.6,0,0,1-1.49.29h-.06l-.8-.55V97a3.33,3.33,0,0,1,.58-1.5,6,6,0,0,1-1.51.3h-.06l-.82-.57v-.1a3.83,3.83,0,0,1,1.15-2.1l3.8-3.65a9.53,9.53,0,0,0,.75-.8,1,1,0,0,0,.16-.46,1.53,1.53,0,0,0-.53-1l-.25-.26-.75.72-.08-2.32,2.29.19-.73.71.43.44a2.19,2.19,0,0,1,.75,1.69,3,3,0,0,1-1,1.76L20.79,93.6a4.2,4.2,0,0,0-1,1.27A6.11,6.11,0,0,0,22.4,94l3.79-3.65.8.83-4.21,4.07A5.24,5.24,0,0,0,21.6,96.7,6.3,6.3,0,0,0,24,95.93L28,92.15Z"/><path class="cls-1" d="M17,73.72l-.57,1-3.21-1.89L11.89,75l-1-.58,1.29-2.19-4.25-2.5.33,2.89-1.15.12-.52-4.45,4.15-1.72.46,1.06L8.51,68.75l4.25,2.49,1.29-2.19,1,.59-1.28,2.19Z"/><path class="cls-1" d="M16.64,45.85a2.18,2.18,0,0,0,.13-1.75,2.34,2.34,0,0,0-1.18-1.35,2.12,2.12,0,0,0-1.69-.12,2.18,2.18,0,0,0-1.3,1.12,2.52,2.52,0,0,0,.17,2.56c-.27-.07-.6-.18-1-.32-.14-.06-.39-.14-.74-.26l-1-.34a11,11,0,0,0-2.85-.67H7.09L6.73,46l0,.05a7.69,7.69,0,0,0,1.88,2.6,9.24,9.24,0,0,0-2.18-.42,1.38,1.38,0,0,0-1.32.87l-.36.7.9.46L5.81,50a1,1,0,0,1,1-.59,8.83,8.83,0,0,1,2,.42,13,13,0,0,1,2.17.79l.41.21.52-1-.54-.28a7.69,7.69,0,0,1-2-1.62A7.74,7.74,0,0,1,7.89,46a10.72,10.72,0,0,1,1.88.53l1.53.55c.74.26,1.2.41,1.44.47a4.43,4.43,0,0,0,.88,0,7.83,7.83,0,0,1,1.5,1.87,1.87,1.87,0,0,1-.28,1.41l-.24.46.91.47.42-.83a2.45,2.45,0,0,0,.33-1.77A6.11,6.11,0,0,0,15,47.31,3,3,0,0,0,16.64,45.85Zm-.87-.37a2.39,2.39,0,0,1-1.57,1.08c-.83-.92-1.08-1.72-.75-2.38a1.16,1.16,0,0,1,.72-.6,1.21,1.21,0,0,1,.62,0,1.61,1.61,0,0,1,.35.12,1.39,1.39,0,0,1,.71.8A1.26,1.26,0,0,1,15.77,45.48Z"/><path class="cls-1" d="M21.43,27.48l-1.62-.71-.66,2.85-1-.22.93-4,1.62.69.66-2.88,1.62.71L23.65,21l2.7,1.16-.39,1-1.59-.69-.67,2.88-1.62-.7Zm5.24-3.31L26,27.05l-1.62-.7-.66,2.87-1.63-.69-.92,4,1,.23.66-2.86,1.62.7.65-2.86,1.62.7.66-2.88,1.59.69.4-.95Z"/><path class="cls-1" d="M49.35,17.52,48,17.87l-.06,0a7.7,7.7,0,0,1-1.84-1.72,6,6,0,0,1-1-1.92l-1.4.38a6,6,0,0,1,.08,2.17,7.93,7.93,0,0,1-.73,2.41l0,.06-1.31.36.17-.32a6.05,6.05,0,0,0,.71-4.38l-1.74.47-.25-.92L42.35,14a6.26,6.26,0,0,0-2.7-3.09l-.3-.19,1.25-.34.06,0a6.83,6.83,0,0,1,2.8,3.29l1.42-.38A6.85,6.85,0,0,1,45.67,9l0-.06L47,8.63,46.79,9a6.43,6.43,0,0,0-.8,4l1.73-.47.25.92-1.74.46A6.07,6.07,0,0,0,49,17.33Z"/></g></g></svg>