<svg xmlns="http://www.w3.org/2000/svg" viewBox="0 0 64.12 122.11"><title>Asset 542</title><g id="Layer_2" data-name="Layer 2"><g id="Layer_1-2" data-name="Layer 1"><path d="M56.6,111.88v9.93c-.52-.34-.52-.34-.52-3.1v-6.87Zm-26.76,3.28-2.38-3.32c-.43,2.47-.21,9.52.43,10.12V113.9a14.43,14.43,0,0,1,2.19,2.58l2.08,2.86c.73-1,1.38-1.9,2-2.8l2-2.75.35.09v8h.39v-10l-4.71,6.61C31.33,117.28,30.59,116.22,29.84,115.16Zm22.34,5-.3,0-7.43-8.38v10.09h.39v-8.3l.31-.08,7.46,8.36v-10h-.43ZM18.77,117h4.95v-.4c-.35,0-.69-.1-1-.1-1.08,0-2.15,0-3.22,0-.26,0-.72-.29-.73-.47-.07-1.16,0-2.34,0-3.52,2-.21,3.8.12,5.56-.2l0-.38h-6v9.88h6.22l0-.47H18.77Zm-6.49.78,2.22.27c0,.79,0,1.55,0,2.31a1,1,0,0,1-.5.66c-2.24.9-5.46.29-6.33-2.77a4.44,4.44,0,0,1,1.14-4.67,4.51,4.51,0,0,1,4.69-1.08c.36.11.72.19,1.08.28,0-.09.07-.19.11-.29a3.41,3.41,0,0,0-.48-.37A5.27,5.27,0,0,0,8,113.56a5.36,5.36,0,0,0,.15,6.79,5.74,5.74,0,0,0,6.49,1.05.93.93,0,0,0,.42-.6c0-1.14,0-2.27,0-3.37H12.32C12.31,117.54,12.29,117.65,12.28,117.76Zm28.21,4.35c.64-1.19.57-9.63,0-10.31Z"/><path d="M64,44.45C61,38.71,57.9,33,54.85,27.3c-.34-.64-.74-.82-1.37-.53l-5.42,2.5a8.27,8.27,0,0,0-4.65,5.94,19.54,19.54,0,0,0-.52,3.4c-.09,1.43,0,2.86,0,4.46-1.85-1.15-3.36-2.28-5-3.1s-3.52-1.34-5.53-2.08V2L32,2l-.63,1.07c-2.37,4.25-4.76,8.5-7.11,12.76a3,3,0,0,1-1.74,1.5c-6.25,2.19-10.07,6.61-11.83,12.91a38.56,38.56,0,0,0-1,10.27A5.2,5.2,0,0,1,9,42.88Q4.73,50.74.27,58.53a1.58,1.58,0,0,0,0,1.78c3,5.52,6,11,8.93,16.61.52,1,1.08,1.15,2,.72l5.38-2.59a7.52,7.52,0,0,0,3.77-4.29,20.53,20.53,0,0,0,1.11-8V61.5c3.38,2,6.25,4.64,10.48,4.7v36.29l.34.06c.21-.35.43-.69.63-1,2.43-4.34,4.85-8.7,7.32-13a2.67,2.67,0,0,1,1.33-1.1,18.23,18.23,0,0,0,12-12.82A37.88,37.88,0,0,0,54.6,63.84a4.43,4.43,0,0,1,.53-2.05C58,56.55,61,51.35,63.84,46.11A2.08,2.08,0,0,0,64,44.45ZM9.56,75.8l-.2.08q-2.28-4.23-4.57-8.47C3.5,65,2.2,62.63,1,60.21a1.68,1.68,0,0,1-.1-1.36c2.77-5,5.59-10,8.41-15.05,0-.06.11-.09.29-.23ZM31.51,4l.2,0V15.77l-7.16.68ZM12.28,27.36c.24-.75.76-.79,1.42-.82,4.48-.19,8.86-.9,12.81-3.13a61.34,61.34,0,0,0,5.34-3.79,7.22,7.22,0,0,1-.3,1.72A15.57,15.57,0,0,1,24,28.89a30.22,30.22,0,0,1-12.39,3,8,8,0,0,1-.83-.07C11.3,30.24,11.82,28.81,12.28,27.36Zm-2,49.86c0-.52-.06-.93-.06-1.33q0-19,0-38c0-1.45.26-2.9.33-4.35,0-.78.36-1,1.12-1a32.2,32.2,0,0,0,10.86-2.28c4-1.67,5.79-3.14,9.29-7.71A10,10,0,0,1,31.67,24a13.12,13.12,0,0,1-5.81,7.31,24.2,24.2,0,0,1-7.77,3.35A1.19,1.19,0,0,0,17,35.86c-.14,1.44-.34,2.88-.54,4.5l-1.08-1a2.24,2.24,0,0,0-2.62-.63A3.48,3.48,0,0,0,11.4,40.8a11.42,11.42,0,0,0,.74,6.64,7.75,7.75,0,0,1,.56,2.64c0,8.09,0,16.19,0,24.28C12.72,76.56,12.71,76.56,10.29,77.22ZM17.5,50.15c0,.26,0,.52.05.92a4.76,4.76,0,0,1-3.88-2.22A10.36,10.36,0,0,1,12,40.64c.34-1.56,1.68-2,2.8-.9a6,6,0,0,1,1.57,2.8C16.9,45.05,17.15,47.61,17.5,50.15ZM13.42,76.08V49.76a20.07,20.07,0,0,1,1.78,1.32,1.39,1.39,0,0,1,.3.91c0,7.4,0,14.8,0,22.2C15.51,75.55,14.24,75.36,13.42,76.08Zm5-8.8c0,1.38,0,2.76,0,4.14,0,1.76-.32,2.21-2.24,3V51.66c1.05-.17,1.49.11,1.71,1.29C18.78,57.71,18.29,62.5,18.42,67.28Zm1.51,2.79c-.18.49-.41,1-.62,1.44l-.26-.07V58.34c1,1.33,1.83,2.33,1.81,3.92A23.39,23.39,0,0,1,19.93,70.07Zm11.81-4.42A11.73,11.73,0,0,1,28.63,65a46.27,46.27,0,0,1-6.65-4c-2.57-2-3.2-5-3.54-8.09s-1-6.3-1.21-9.46a51.6,51.6,0,0,1,.42-7.54c0-.26.63-.58,1-.68a22.79,22.79,0,0,0,9.27-4.67,48.4,48.4,0,0,0,3.8-4.18V51.89a15.13,15.13,0,0,1-1.85-.38c-1.39-.47-1.64-1.14-1-2.47a11.16,11.16,0,0,0,.37-9.35c-1.63-4-5.93-5.49-9.21-3.19a4.26,4.26,0,0,0-1.94,2.43l.28.21c.22-.26.46-.52.67-.8a5.24,5.24,0,0,1,8.76.08C30,41.7,30,45.18,28.37,48.7c-.84,1.84-.4,2.88,1.55,3.46,2.14.64,2.16.68,1.76,3.28a12.9,12.9,0,0,1-1.42-.64,2.71,2.71,0,0,0-3.39.3,29.57,29.57,0,0,1-2.67,1.67,4.16,4.16,0,0,0,1.21,0c.58-.18,1-.18,1.15.48.42,2.19,2.07,2.4,3.84,2.43h1.34Zm0-6.74c-2.68.68-3.75.09-5-2.8,1.39-1.32,1.87-1.45,3.06-.85C32.08,56.43,32.08,56.43,31.72,58.91ZM31.11,19c-2.63,3.27-6.25,5-10.23,5.93-2.47.59-5,.84-7.8,1.29C15.29,20.28,26,15,32,16.78A8.94,8.94,0,0,1,31.11,19Zm19.71,9.51v26.3A18.77,18.77,0,0,1,49.1,53.5a1.5,1.5,0,0,1-.41-1c0-7.35,0-14.71,0-22.06C48.66,29,49.94,29.18,50.82,28.49ZM51,56.43a10.47,10.47,0,0,1,1.25,6.86,3,3,0,0,1-1.19,2c-.92.49-1.73-.27-2.31-1a3.66,3.66,0,0,1-.86-1.46c-.48-3-.88-6.11-1.33-9.33A5.22,5.22,0,0,1,51,56.43Zm-5.2-24.31c0-.85.83-1.53,2.2-1.92V52.86c-1.19.24-1.58-.24-1.74-1.35C45.37,45.06,46,38.58,45.84,32.12Zm-1.41,2c.11-.28.24-.56.36-.84.05-.1.12-.18.33-.5V46.05a5.85,5.85,0,0,1-1.8-4.28A21.8,21.8,0,0,1,44.43,34.08Zm-12,11.38c.75,0,1.32,0,1.89,0,1.94.12,2.76.85,3.07,2.71.12.67-1.42,1.68-2.26,1.4a18.31,18.31,0,0,1-2.41-1,.71.71,0,0,1-.27-.56C32.42,47.17,32.43,46.37,32.43,45.46Zm0,4.53c0-.22,0-.45.07-.86a8.57,8.57,0,0,1,1.38.57,2.7,2.7,0,0,0,3.48-.28A25.92,25.92,0,0,1,40,47.81a8.11,8.11,0,0,1-1.21-.08c-.37-.07-1-.19-1-.39-.49-2.38-2.31-2.46-4.16-2.52h-1V39a7.37,7.37,0,0,1,4.19,1q2.37,1.3,4.61,2.82c2.72,1.86,3.9,4.6,4.3,7.79.49,3.88,1.22,7.73,1.51,11.62a31.87,31.87,0,0,1-.62,6.5c0,.26-.66.53-1.05.65a22.65,22.65,0,0,0-9.85,5.22,44.72,44.72,0,0,0-3.14,3.71V52.67a13.85,13.85,0,0,1,1.63.27c1.56.46,1.88,1.19,1.19,2.63a11,11,0,0,0-.21,9.57c2,4.53,7.62,5.36,10.47,1.58a10.44,10.44,0,0,0,.58-1l-.24-.19a1.88,1.88,0,0,0-.51.41c-2.17,3.55-7.48,3.65-9.64-.84a10.33,10.33,0,0,1,0-9.12c.91-2,.4-3.09-1.7-3.66C32.37,51.82,32.37,51.82,32.43,50Zm.3,50.54-.24-.08V88.81l7.2-.74C37.34,92.27,35,96.4,32.73,100.53Zm13.18-16a22.29,22.29,0,0,1-12.15,3.57c-.42,0-1.2-.17-1.21-.29A2.8,2.8,0,0,1,32.83,86a19.61,19.61,0,0,1,3.48-3.28c4.33-2.92,9.25-3.9,14.38-4.07a1.47,1.47,0,0,1,.4.15A15.54,15.54,0,0,1,45.91,84.48Zm5.76-6.87c-.09.23-.7.33-1.08.35-4.43.25-8.79.9-12.72,3.09a62,62,0,0,0-5.47,3.82,7.35,7.35,0,0,1,.34-1.79,15.78,15.78,0,0,1,8-7.69,30.84,30.84,0,0,1,11.53-2.75,10.1,10.1,0,0,1,1.19.06C52.87,74.42,52.33,76,51.67,77.61ZM54,28.74q0,19,0,38c0,1.38-.17,2.76-.26,4.13,0,.79-.33,1.17-1.25,1.21-5,.26-9.74,1.25-14,3.93a20,20,0,0,0-3.23,2.58,37.66,37.66,0,0,0-2.57,3.05l-.28,0a13.79,13.79,0,0,1,.47-1.92c1.55-3.82,4.55-6.2,8.14-7.89a42.66,42.66,0,0,1,5.28-1.92,1.16,1.16,0,0,0,1-1.17c.12-1.45.33-2.89.52-4.53.45.41.78.74,1.13,1,1.61,1.43,3.44.9,3.9-1.18A11.72,11.72,0,0,0,52,56.85,5.24,5.24,0,0,1,51.54,55q0-12.5,0-25c0-2.11.1-2.22,2.42-2.62Zm9.43,16.92c-2.77,5-5.59,10-8.4,15.06a.3.3,0,0,1-.33.19V28.7l.19-.06q2.67,5,5.33,9.89c1,2,2.12,3.9,3.13,5.88A1.61,1.61,0,0,1,63.39,45.66Zm-38,38.21c-.69-2.36-3.56-3.81-6.1-3.33a5.9,5.9,0,0,0-4.75,6.6,5.81,5.81,0,0,0,5.88,5.06c2.35,0,4.67-1.56,4.79-3.17-2.86.64-3.83.47-4.74-.84a3,3,0,0,1,0-3.64C21.75,82.8,23.44,82.86,25.41,83.87Zm-6.16,2.55c.07,2.19,1.57,3.5,4.34,3.78-.71,1.12-2.69,1.7-4.39,1.28a5.26,5.26,0,0,1-.83-10,4.64,4.64,0,0,1,5.24.94C20.59,83,19.18,84.27,19.25,86.42ZM40.7,14.35a5.88,5.88,0,1,0,11.75.17,5.88,5.88,0,0,0-11.75-.17Zm6-5.21a5.39,5.39,0,0,1,5.17,5.41,5.29,5.29,0,1,1-5.17-5.41Zm6.43,5.15H59.8v.3H53.12ZM40,14.74c-2.24,0-4.47,0-6.71,0v-.45H40Zm3.51-6.3-5-4.59C39.55,4.09,43.19,7.8,43.52,8.44Zm7.82,10.73c.6,0,4.2,3.5,4.45,4.68ZM52.81,8.56l4.68-4.51C57.13,4.57,53.52,8.31,52.81,8.56ZM37.44,23.94l-.25-.25L41.88,19l.18.17ZM48.09,6.59h-.28V0h.28ZM46.7,20.71v6.93C46.17,27,46.09,22,46.7,20.71Zm2.74-.39c.57,1.33,1.14,2.66,1.79,4.16C50.22,24.06,49,21.43,49.44,20.32Zm-7.12,4.12,1.59-4.07.5.19-1.58,4.08ZM43.9,3.1l1.83,4.16C44.73,6.86,43.52,4.15,43.9,3.1ZM40.46,16.76l.23.51-4,1.77-.24-.55Zm16,1.95-4-1.6.22-.54,4,1.62C56.7,18.36,56.6,18.53,56.51,18.71ZM35.76,8.15l.12-.31L40,9.5C39.08,9.87,36.51,9,35.76,8.15Zm14.9-1L50.12,7l1.59-4,.53.21C51.71,4.54,51.19,5.87,50.66,7.19Zm3.2,3.15,4-1.7.24.52-4,1.73C54,10.71,53.94,10.53,53.86,10.34Zm-26.71,31c-1.21,1.76-6.65,2.19-7.93,0C21.88,42.81,24.51,42.43,27.15,41.34ZM37,63.18c1.8-2,6.75-2,8,.08C42.35,61.6,39.67,62.24,37,63.18Z"/></g></g></svg>