<svg xmlns="http://www.w3.org/2000/svg" viewBox="0 0 83.87 68.02"><title>Asset 509</title><g id="Layer_2" data-name="Layer 2"><g id="Layer_1-2" data-name="Layer 1"><path d="M82.85,29.84a8,8,0,0,0-5-2.93c-1.49-.26-3-.55-4.34-.8-.82-2.19-1.52-4.31-2.41-6.36a33.44,33.44,0,0,0-4.93-8.18C62.87,7.58,59,4.32,54,2.68a45.57,45.57,0,0,0-7.47-2A41.15,41.15,0,0,0,39.29,0,26.09,26.09,0,0,0,30.55,2a33.15,33.15,0,0,0-6.26,3.24c-.88.59-1.79,1.12-2.65,1.74a25.91,25.91,0,0,0-3.5,2.71,30,30,0,0,0-4.42,5.17c-1,1.65-2.16,3.21-3.12,4.89A12.12,12.12,0,0,0,9.21,23c-.41,1.77-.55,3.6-.82,5.48a11.68,11.68,0,0,0-6.65,3A4.24,4.24,0,0,0,0,34.74a2.93,2.93,0,0,0,1.92,3c.82.3,1.66.55,2.49.8C5.7,39,7,39.33,8.3,39.71a4,4,0,0,1,.13.43A41,41,0,0,0,13.2,53a28.89,28.89,0,0,0,6.7,7.68,34.86,34.86,0,0,0,7.77,4.53A33.71,33.71,0,0,0,41.44,68a18.8,18.8,0,0,0,6.85-1c2.2-.83,4.51-1.39,6.66-2.34a28.54,28.54,0,0,0,8-5.46,33.25,33.25,0,0,0,7.54-9.81c1-2.06,1.87-4.16,2.71-6.27a2,2,0,0,1,1.33-1.24,30.58,30.58,0,0,0,4.79-2.09,9,9,0,0,0,4.34-5.38A4.88,4.88,0,0,0,82.85,29.84Zm-75.29,9c-1.86-.54-3.74-1-5.56-1.67C.69,36.65.4,35.23,1,33.74a5.77,5.77,0,0,1,1.7-2.1,12.38,12.38,0,0,1,4.62-2.4,3.48,3.48,0,0,1,.81,0v1.45c-.64.3-1.33.6-2,.94A5.47,5.47,0,0,0,5,32.35a1.91,1.91,0,0,0,.36,3.09A5.64,5.64,0,0,0,6.83,36a1.46,1.46,0,0,1,1.3,1.6c0,.37,0,.74.07,1.16A2.08,2.08,0,0,1,7.56,38.79Zm.44-7v4a23.15,23.15,0,0,1-2.3-.93,1.36,1.36,0,0,1-.28-2.06A4.33,4.33,0,0,1,8,31.75ZM72.06,44.33a34.83,34.83,0,0,1-8.52,13.36,34.29,34.29,0,0,1-9.07,6.46A38.37,38.37,0,0,1,46,67a26.31,26.31,0,0,1-9.53.06A23.4,23.4,0,0,1,29.1,65c-.53-.27-1-.88-1.53-.86-.87,0-1.38-.53-2-.83A16,16,0,0,1,21,60.33a18.24,18.24,0,0,0-2.73-2A11.81,11.81,0,0,1,15,54.79a42.17,42.17,0,0,1-3.69-6.68A38.23,38.23,0,0,1,9.14,41a7.26,7.26,0,0,1-.06-1c1,.22,1.91.4,2.82.62,2.25.55,4.48,1.21,6.76,1.66a80.76,80.76,0,0,0,14.12,1.93c1.86,0,3.72.27,5.58.31,2.74.06,5.48,0,8.22,0,2.47,0,5,0,7.42-.06,3.08-.13,6.16-.33,9.22-.62,2.38-.22,4.75-.61,7.12-1,.77-.11,1.53-.31,2.51-.52C72.53,43.16,72.27,43.74,72.06,44.33Zm1-2.93c0,.19-.39.36-.63.4-2.17.39-4.34.77-6.52,1.1-1.31.21-2.64.4-4,.48-3.31.18-6.62.34-9.93.42-3.69.09-7.39.18-11.08.07-4.37-.13-8.75-.42-13.11-.75-1.85-.14-3.68-.54-5.52-.83-.79-.12-1.59-.21-2.36-.39-1.44-.34-2.87-.74-4.31-1.11L9.5,39.22a7.33,7.33,0,0,1-.72-.28V36.87a1.4,1.4,0,0,1,.41-.06L17.43,38c2.78.41,5.58.8,8.36,1.22,2.11.31,4.2.71,6.31,1,1.55.2,3.11.29,4.67.39,3.3.21,6.61.44,9.92.59,1.78.08,3.57.05,5.36,0,2.82-.09,5.63-.14,8.44-.38,2.3-.19,4.59-.64,6.89-1,.72-.1,1.44-.12,2.16-.2l4.12-.54A5.4,5.4,0,0,1,73.09,41.4Zm-1-2.72c-2.75.37-5.51.7-8.27,1.06l-4.3.59a78.16,78.16,0,0,1-9.92.27,160.17,160.17,0,0,1-17.1-.92c-2.08-.2-4.13-.64-6.2-1-2.67-.41-5.34-.82-8-1.21L8.72,36.09c0-1.41,0-2.62,0-3.83a36,36,0,0,1,1-7.79c.13-.55.11-1.13.22-1.69a12.6,12.6,0,0,1,2.1-4.4,55.22,55.22,0,0,1,5.53-7.24A28.68,28.68,0,0,1,23.24,6.7c1.67-1,3.39-2,5.1-3a21.06,21.06,0,0,1,5.15-2.05A28.75,28.75,0,0,1,43.22.84,34,34,0,0,1,53,3.07c.78.31,1.55.64,2.33.93a22.26,22.26,0,0,1,8.32,5.63A34.05,34.05,0,0,1,68.45,16a37.25,37.25,0,0,1,4.08,9.25c.57,2.16.89,4.4,1.29,6.6.2,1.12.31,2.25.44,3.37a6.08,6.08,0,0,1-.34,3.15C73.35,38.44,72.73,38.6,72.1,38.68Zm2.21-8.81c1.6.67,3.09,1.25,4.54,1.93a1.43,1.43,0,0,1,.76,1.63,3.86,3.86,0,0,1-.74,1.75A9.37,9.37,0,0,1,75,38C74.74,35.31,74.53,32.68,74.31,29.87Zm8.34,5.48a7,7,0,0,1-3.53,3.71c-1.47.63-2.89,1.36-4.33,2a5.91,5.91,0,0,1-.8.24c0-.19-.06-.22-.06-.25A3.61,3.61,0,0,1,76.16,38a10.69,10.69,0,0,0,3-2.26,3.16,3.16,0,0,0,1-3.51,2.52,2.52,0,0,0-1-1.22,15.79,15.79,0,0,0-3.89-1.57c-.42-.16-.85-.3-1.32-.47-.13-.68-.25-1.33-.4-2.13,2.83.43,5.55.64,7.81,2.45A5.05,5.05,0,0,1,82.65,35.35Zm-24-8.6-.93.28c-.3-.48-.17-.81.26-1.2ZM57.25,38.39a.64.64,0,0,1-.56.15c-.42-.38-.09-.73.13-1.18C57.45,37.62,57.53,38,57.25,38.39Zm-3.16-9.7c-.49-.37-.31-.67-.06-.92s.54-.27.89.23C54.61,28.25,54.34,28.47,54.09,28.69Zm12.23,6.06c.1.46-.19.66-.76.7,0-.42.08-.7.13-1.18C66,34.49,66.29,34.59,66.32,34.75ZM48,38a.58.58,0,0,1-.29.82s-.07,0-.2,0-.12-.17-.11-.22c.07-.26.15-.51.23-.77C47.71,37.93,47.92,37.94,48,38Zm3.13-4.68c.23.53-.11.7-.48.89C50.3,33.63,50.3,33.63,51.08,33.34Zm9.32,4.54c0,.14-.24.4-.29.38a3.5,3.5,0,0,1-.68-.42c.24-.21.35-.39.5-.42A.38.38,0,0,1,60.4,37.88Zm.24-15.61c0,.16-.2.34-.39.64a2.47,2.47,0,0,1-.31-.68c0-.13.19-.26.29-.39C60.38,22,60.62,22.12,60.64,22.27ZM51.22,38h.9C51.69,38.58,51.69,38.58,51.22,38Zm11.86-9.46-.48.34a3,3,0,0,1-.37-.56c0-.05.32-.3.38-.26A2.14,2.14,0,0,1,63.08,28.54Zm-2.86,5.22c-.92-.2-.92-.2-.53-1C59.87,33.07,60,33.34,60.22,33.76Zm6-17.24-.37-.06.19-1C66.71,15.94,66.36,16.23,66.24,16.52ZM62.05,34.8c0-.26,0-.52,0-.83C62.67,34.23,62.67,34.23,62.05,34.8ZM55,32.49c.08.14.26.32.22.41a.76.76,0,0,1-.41.4c-.07,0-.24-.18-.47-.37Zm12.15,4.29c.25.68.25.68-.72.62Zm-9.89-2.87.33.4-.46.36-.32-.35Zm-2.65,2.76-.45.43a3.57,3.57,0,0,1-.31-.63s.26-.23.32-.2A2.07,2.07,0,0,1,54.58,36.67Zm11.88-7.62c-.07-.29-.14-.43-.11-.54a1,1,0,0,1,.25-.42s.28,0,.28.06a1.4,1.4,0,0,1-.06.5C66.78,28.74,66.68,28.81,66.46,29.05ZM63.62,31c-.17.37-.26.56-.34.75H63l-.16-.62Zm2.36.1c.13,0,.25.19.45.37-.22.13-.39.3-.5.26s-.21-.24-.32-.37C65.73,31.23,65.87,31.05,66,31.06Zm-2.14,6.38c.07.11.24.25.22.32a3.34,3.34,0,0,1-.42.57c-.12-.24-.27-.41-.23-.47A2.45,2.45,0,0,1,63.84,37.44Zm5.5-5.75c0,.13-.15.27-.33.55-.12-.29-.24-.44-.23-.59s.16-.2.25-.3C69.14,31.46,69.33,31.57,69.34,31.69Zm1.32-3.83c0,.26-.06.52-.1.95C70,28.33,70.05,28.07,70.66,27.86Zm-13.27,1.8a1.45,1.45,0,0,1,.26.42c0,.09-.13.21-.26.4-.16-.23-.33-.36-.34-.51S57.27,29.76,57.39,29.66Zm2.57.78c-.16-.2-.31-.31-.35-.45s.21-.29.26-.27a.65.65,0,0,1,.34.31C60.24,30.1,60.09,30.24,60,30.44Zm-1,4.39a2.36,2.36,0,0,1,.27.69c0,.1-.19.3-.26.28a.63.63,0,0,1-.36-.28C58.54,35.45,58.69,35.29,58.93,34.83Zm4-11.49a3.36,3.36,0,0,1-.25-.55s.2-.19.22-.17a1,1,0,0,1,.36.36S63.13,23.16,63,23.34Zm5.8.41c0,.06-.17.19-.33.36-.12-.21-.25-.34-.27-.49s.25-.26.29-.23A.69.69,0,0,1,68.76,23.75ZM50.43,35.81a4.72,4.72,0,0,1,.35.52l-.27.16L50.16,36C50.25,35.9,50.42,35.79,50.43,35.81Zm22-4.73c-.08-.18-.17-.36-.25-.55l.27-.13a4.53,4.53,0,0,1,.27.54Zm.11,2.24c.14,0,.25.18.38.28-.1.1-.19.26-.3.28s-.23-.12-.35-.18l-.16-.26C72.25,33.39,72.41,33.29,72.54,33.32ZM54.08,30.51c-.45.28-.59.42-.67.39a.38.38,0,0,1-.2-.32c0-.08.17-.21.28-.22S53.76,30.42,54.08,30.51Zm17.29,5.67a1.28,1.28,0,0,1,.3.36c0,.05-.16.18-.3.34-.11-.18-.24-.3-.23-.4S71.29,36.28,71.37,36.18ZM69.68,25.34a.43.43,0,0,1,.2-.33c.08,0,.32.11.32.18s-.1.3-.21.58C69.82,25.55,69.69,25.45,69.68,25.34ZM70,35.51c0,.05-.16.25-.26.26s-.19-.14-.34-.27l.29-.34A1.28,1.28,0,0,1,70,35.51Zm-.29-14.93a1.73,1.73,0,0,1-.39.29s-.23-.12-.22-.17.1-.3.18-.33S69.54,20.48,69.74,20.58Zm-2.23-2c0,.06-.12.22-.24.42-.15-.19-.28-.29-.29-.4s.11-.23.18-.34C67.28,18.34,67.44,18.42,67.51,18.56Zm-1.13,2.7a1.42,1.42,0,0,1,.31.37c-.11.07-.23.2-.34.2s-.21-.16-.36-.29C66.17,21.41,66.34,21.23,66.38,21.26Zm-.68,4.67a1.15,1.15,0,0,1-.28-.41s.17-.2.21-.19a4.1,4.1,0,0,1,.49.34C65.92,25.8,65.73,26,65.7,25.93Zm-.55-2.36a.42.42,0,0,1-.23.31c-.08,0-.21-.1-.33-.16l-.14-.25c.13,0,.28-.15.41-.13S65.14,23.48,65.15,23.57Zm-3.36,2.29a.36.36,0,0,1-.26.26c-.08,0-.19-.15-.35-.29.16-.12.28-.27.35-.25S61.79,25.76,61.79,25.86ZM58,24.48c-.12-.15-.25-.26-.23-.3a1.33,1.33,0,0,1,.25-.29c.07.07.21.15.2.21A1.29,1.29,0,0,1,58,24.48Zm5.41-5.62-.11-.56.29-.05a5.12,5.12,0,0,1,.1.54A1.78,1.78,0,0,1,63.44,18.86Zm-30,44.28c.12,0,.21.19.37.33-.11.23-.17.37-.25.5-.19.29-.45.6-.79.33-.16-.13-.16-.55-.11-.81A.5.5,0,0,1,33.48,63.14ZM55,53.8c.09.64-.36.81-1,.88-.25-.56-.18-1,.34-1.17C54.52,53.45,55,53.67,55,53.8Zm-2.14,4.92c.13.17.39.39.35.51a1.44,1.44,0,0,1-.5.63c-.07.07-.27,0-.54-.06,0-.26,0-.45.08-.55A4.46,4.46,0,0,1,52.84,58.72Zm-7.41-8.5c0,.09-.3.37-.44.36s-.27-.28-.47-.51l.51-.43A2,2,0,0,1,45.43,50.22Zm6.21,12.7c0,.16-.22.43-.36.44s-.32-.22-.57-.42c.23-.17.38-.39.53-.38S51.65,62.8,51.64,62.92Zm-26.13-3c0,.09-.09.28-.22.6a4,4,0,0,1-.52-.67c0-.06.25-.35.29-.33A1,1,0,0,1,25.51,59.88ZM56.2,51.21c.3-.2.56-.38,1-.67C57,51.69,56.94,51.7,56.2,51.21Zm-8.9,12.4c.47.55.39.81.06,1-.09,0-.26-.08-.4-.12C47.06,64.22,47.16,64,47.3,63.61Zm4-15.83c-.09-.61.09-.84.52-.72.15,0,.23.31.33.48ZM30.6,58.33c0,.15-.24.33-.41.4s-.35-.19-.35-.3.16-.34.3-.61C30.36,58.05,30.61,58.2,30.6,58.33Zm8.32,6.38c.1,0,.27,0,.4.06-.09.26-.18.53-.35,1C38.47,65.16,38.56,64.89,38.92,64.71Zm8.66-15.64c-.08-.2-.19-.33-.17-.44.08-.62.41-.47,1-.16Zm8.88-1.36c-.24.09-.48.16-.72.23,0-.13-.07-.27-.1-.41.23-.06.47-.13.71-.17A1.3,1.3,0,0,1,56.46,47.71Zm-6.28,4.14c.15.71,0,1-.89.79Zm-3.4,3.91-.4.86C45.92,56.07,45.92,56.07,46.78,55.76Zm-5.23-8.92c-.69-.1-.69-.1-.67-.69C41.24,46.25,41.59,46.33,41.55,46.84ZM39.3,57.2c-.14-.34-.26-.51-.25-.67s.16-.36.24-.36a.49.49,0,0,1,.4.25C39.72,56.54,39.56,56.71,39.3,57.2ZM36,60.4l-.41.37c-.11-.12-.31-.27-.29-.37s.22-.3.34-.45ZM63.15,48.53c0,.11-.17.25-.34.49a2.27,2.27,0,0,1-.35-.62c0-.07.27-.28.38-.25A.55.55,0,0,1,63.15,48.53Zm-.38,3.14c.18.43-.17.46-.7.73.18-.46.26-.69.35-.91C62.54,51.55,62.73,51.58,62.77,51.67ZM50.33,57.84c-.09-.48,0-.76.41-.82.06,0,.21.11.23.19C51.06,57.65,50.79,57.78,50.33,57.84ZM37.55,51.68c.07.34,0,.57-.79.65.26-.4.39-.61.54-.81C37.31,51.51,37.54,51.61,37.55,51.68Zm16-.33c-.26.12-.42.25-.56.23s-.24-.2-.36-.32c.16-.1.3-.27.47-.3S53.34,51.16,53.55,51.35Zm11.34-1.88c-.07,0-.28-.07-.28-.09,0-.22.11-.44.23-.86C65.24,49,65.26,49.3,64.89,49.47Zm-4.21-2.31c-.19.46-.3.71-.41,1L60.05,48C60,47.54,60,47.54,60.68,47.16ZM59.62,57.31c-.13.24-.18.46-.29.51a1.35,1.35,0,0,1-.56,0,1.92,1.92,0,0,1,.31-.47C59.16,57.26,59.35,57.31,59.62,57.31Zm-.4-2.61a2,2,0,0,1-.3-.5c0-.08.24-.21.36-.31l.24.66ZM47.14,52.27c.06,0,.28.21.26.27s-.19.25-.35.43c-.13-.18-.3-.34-.28-.4A.78.78,0,0,1,47.14,52.27Zm-18.93,5c-.06,0-.22-.13-.42-.26.2-.16.31-.31.44-.34s.3.19.28.23A.79.79,0,0,1,28.21,57.28Zm33.67-2.4c.59.57.42.82-.25,1.17ZM46,62.23a3.29,3.29,0,0,1-.44.69c-.1-.28-.22-.45-.18-.55a1.59,1.59,0,0,1,.36-.43C45.87,62,46.05,62.15,46,62.23ZM60.54,51l.06.65-.24.07c-.11-.19-.21-.38-.31-.58Zm-16.8-4.47-.09.65-.39,0a3.3,3.3,0,0,1,.09-.63S43.6,46.56,43.74,46.57Zm-2.92,3.55-.48.34c-.09-.13-.28-.31-.24-.39a.6.6,0,0,1,.4-.28C40.56,49.78,40.67,50,40.82,50.12Zm-1.56,8.62a2.12,2.12,0,0,1,.62.19c-.26.2-.38.35-.53.38s-.27-.15-.29-.26A.38.38,0,0,1,39.26,58.74Zm-1.42-9.89c0,.07-.12.23-.24.44-.16-.22-.3-.33-.34-.48s.15-.2.23-.3C37.61,48.62,37.77,48.71,37.84,48.85Zm27.07-3.19s-.23-.06-.25-.13c-.13-.35,0-.53.4-.56C65.25,45.26,65.25,45.5,64.91,45.66ZM41.26,53a.89.89,0,0,1,.28,0c0,.26,0,.51-.07.77l-.41-.08C41.12,53.51,41.18,53.26,41.26,53Zm15.29,5.56.34.24-.44.47-.24-.18ZM42.2,57.15c-.1-.27-.21-.43-.19-.57s.21-.16.33-.24a1.29,1.29,0,0,1,.2.43C42.55,56.86,42.38,57,42.2,57.15ZM29,63.35a4,4,0,0,1-.59-.31s.07-.34.14-.35C28.91,62.62,29,62.84,29,63.35ZM46.74,46.63c-.14-.18-.3-.31-.28-.39a.62.62,0,0,1,.3-.36s.31.18.29.23A1.67,1.67,0,0,1,46.74,46.63ZM64.87,52a5.29,5.29,0,0,1,.5.32,1.34,1.34,0,0,1-.15.27l-.52-.31Zm-26,1.87-.31-.08c0-.19.08-.39.14-.58a2.14,2.14,0,0,1,.29,0ZM39.72,62a1.34,1.34,0,0,1-.32.39,2.85,2.85,0,0,1-.3-.22,3.1,3.1,0,0,1,.41-.36S39.73,61.93,39.72,62Zm16.74-6.16a3.13,3.13,0,0,1-.44.35S55.8,56,55.81,56a1.94,1.94,0,0,1,.22-.43Zm-20,.09c.06,0,.22.08.45.17-.18.17-.26.31-.37.32s-.25-.07-.37-.11A1.24,1.24,0,0,1,36.49,55.88Zm-.23,9.31c.05,0,.21.14.41.28a2.94,2.94,0,0,1-.53.27s-.21-.17-.2-.18A1.06,1.06,0,0,1,36.26,65.19Zm-2.61-8.44h-.41c0-.2,0-.41.06-.61a.49.49,0,0,1,.2,0C33.56,56.32,33.61,56.53,33.65,56.75Zm-2.26-2.1c0,.11-.13.23-.27.45-.12-.22-.25-.34-.24-.45s.16-.2.25-.3C31.23,54.45,31.38,54.55,31.39,54.65ZM31.26,62c0,.1-.19.26-.29.25s-.18-.18-.35-.36c.2-.1.33-.22.42-.19S31.28,61.92,31.26,62Zm11.47,2.87a3,3,0,0,1-.14.6c-.2-.21-.38-.33-.36-.39a1.28,1.28,0,0,1,.28-.39C42.59,64.76,42.73,64.82,42.73,64.88Zm5.58-6.34c.07.1.21.21.21.31s-.16.2-.32.39c-.11-.21-.23-.35-.2-.44S48.2,58.62,48.31,58.54Zm3.87-3.13a4.23,4.23,0,0,1-.23.48s-.17-.08-.26-.11c.07-.17.15-.34.23-.51ZM43.6,59.33l-.33.28L43,59.33a1.14,1.14,0,0,1,.31-.23S43.48,59.22,43.6,59.33ZM68.46,44.92c-.1,0-.23.17-.27.14a1.28,1.28,0,0,1-.24-.31c.08,0,.18-.17.24-.15S68.32,44.74,68.46,44.92ZM49.61,50.11a.42.42,0,0,1,.28-.25c.12,0,.26.08.52.18-.37.24-.49.39-.57.36A.38.38,0,0,1,49.61,50.11Zm-15.7,1.45s.18.08.27.12l-.35.53L33.57,52A2.74,2.74,0,0,1,33.91,51.56ZM58,45.46c.1.06.26.12.27.2s-.08.23-.27.67a2.05,2.05,0,0,1-.14-.51A1.78,1.78,0,0,1,58,45.46Zm-13.5,7.65s-.13.2-.2.19a1.47,1.47,0,0,1-.46-.19c.2-.14.31-.28.4-.27S44.48,53,44.54,53.11Z"/></g></g></svg>