<svg xmlns="http://www.w3.org/2000/svg" viewBox="0 0 93 120.56"><defs><style>.cls-1{fill:#1a1a1a;}</style></defs><title>Asset 527</title><g id="Layer_2" data-name="Layer 2"><g id="Layer_1-2" data-name="Layer 1"><path class="cls-1" d="M91.59,35.12A42,42,0,1,1,57.88,1.41,46.5,46.5,0,1,0,91.59,35.12ZM20.89,9.45a.65.65,0,0,1,.93,0,.64.64,0,0,1,0,.92.65.65,0,1,1-.93-.92Zm-5.56,4.74a.87.87,0,1,1,1.23,1.23.87.87,0,0,1-1.23-1.23Zm-5,5.88a1.11,1.11,0,0,1,1.57,1.57,1.12,1.12,0,0,1-1.57,0A1.1,1.1,0,0,1,10.34,20.07ZM5.7,27.36l1.24.34.4-1.23.32,1.25,1.27-.27L8,28.36l.87.95L7.63,29l-.4,1.23L6.91,29l-1.27.27.93-.91Zm-2,8.41L4.84,37l1.23-1.09-.46,1.58L7.18,38l-1.6.39L5.9,40,4.76,38.79,3.53,39.88,4,38.3l-1.56-.52,1.6-.4ZM1.85,49.09a2.67,2.67,0,0,1-.08-.48,2.73,2.73,0,0,1,2.41-3A2.73,2.73,0,0,1,7,48.22a2.67,2.67,0,0,1,0,.49,2.69,2.69,0,0,0-2.76-2.16A2.68,2.68,0,0,0,1.85,49.09Zm3.81,7.08a3,3,0,0,0-2,3,3.13,3.13,0,0,1-.37-.73A3,3,0,0,1,9,56.53a3.14,3.14,0,0,1,.15.8A3,3,0,0,0,5.66,56.17Zm4.66,10.72A3.35,3.35,0,0,0,8.7,70,3.28,3.28,0,0,1,7.62,68.9a3.34,3.34,0,1,1,6.21-2A3.36,3.36,0,0,0,10.32,66.89Zm8.81,11.29a2.82,2.82,0,1,1,0-4A2.82,2.82,0,0,1,19.13,78.18ZM29,84.54a3.34,3.34,0,0,1-4.58,1.16,3.38,3.38,0,0,1-1.11-1.08,3.34,3.34,0,0,0,3.07-5.13A3.35,3.35,0,0,1,29,84.54Zm9.68,3.63a3,3,0,0,1-3.8,1.89,3,3,0,0,1-.73-.37A3,3,0,0,0,36,84.22a3.14,3.14,0,0,1,.8.15A3,3,0,0,1,38.68,88.17Zm6,3.38a2.67,2.67,0,0,1-.48-.08,2.6,2.6,0,0,0,.38-5.16,2.67,2.67,0,0,1,.49,0,2.64,2.64,0,1,1-.39,5.24Zm11.23-2.26-.4,1.6L55,89.33l-1.58.46,1.09-1.23-1.19-1.15,1.61.33.4-1.6.52,1.57,1.58-.46-1.09,1.23,1.19,1.14Zm10-1.67L65,86.75l-.91.93.27-1.27-1.25-.32,1.23-.4L64,84.45l.95.86.91-.92-.27,1.27,1.25.32-1.23.4ZM73.25,83a1.1,1.1,0,0,1-1.57,0,1.12,1.12,0,0,1,0-1.57A1.11,1.11,0,1,1,73.25,83Zm5.88-5a.87.87,0,1,1,0-1.23A.86.86,0,0,1,79.13,78Zm4.74-5.57a.65.65,0,1,1,0-.92A.64.64,0,0,1,83.87,72.42Z"/><path class="cls-1" d="M67.52,12.47l-1.18.5.2,1.26-1-.77-1,.8L64.68,13l-1.19-.46,1.18-.5-.2-1.26,1,.77,1-.8L66.33,12Zm2-3.55c.16-.1.33-.18.49-.27a11.09,11.09,0,0,1,1.32-.58,9.94,9.94,0,0,1,1-.3c.26-.07.44-.12.43-.17s-.19,0-.47,0a5.81,5.81,0,0,0-1,.22,8.24,8.24,0,0,0-1.39.57l-.5.27a10.23,10.23,0,0,0-1.29.9,8.16,8.16,0,0,0-.78.74c-.19.22-.3.39-.27.41a10.5,10.5,0,0,0,1.24-.93A13.49,13.49,0,0,1,69.57,8.92Zm1.49.76a8,8,0,0,0-1.26.3l-.47.17a7.24,7.24,0,0,0-1.21.63,3.16,3.16,0,0,0-1,.9A9.8,9.8,0,0,0,68.25,11a8.79,8.79,0,0,1,1.2-.59,4,4,0,0,1,.45-.16,10.54,10.54,0,0,1,1.21-.32,7,7,0,0,0,1.25-.26A3.49,3.49,0,0,0,71.06,9.68ZM71,11.52a2.47,2.47,0,0,0-.53-.11,4.37,4.37,0,0,0-.78,0l-.29,0a4.68,4.68,0,0,0-.79.18c-.39.12-.75.34-.71.4s.39-.09.78-.17.77-.14.77-.14l.28,0s.36,0,.73,0,.72.07.75,0S71.11,11.57,71,11.52Z"/><path class="cls-1" d="M58.63,27.93,57.1,29.78l3.21-.41-3,1.26,2.26.83-2.37-.4,2,2.57-2.59-2L57,34.05l-.84-2.25-1.25,3,.39-3.21-1.84,1.54L55,31.27l-3.2.41,3-1.26-2.26-.83,2.37.4-2-2.57,2.58,1.95L55.1,27l.84,2.25,1.24-3-.39,3.21ZM52.86,40.4l2.36.47L53,40l3-1.17-3.22.32,1.59-1.81L52.48,38.8,53,35.6l-1.33,2.95-.77-2.28.34,2.38-2.52-2,1.88,2.62-2.36-.47,2.24.9-3,1.17,3.22-.32-1.59,1.81L51,40.85l-.49,3.2L51.8,41.1l.77,2.28L52.22,41l2.53,2Zm-29,16L26.7,58,24.44,55.7l2.4.11-2.34-.55,2.8-1.61-3.13.79,1.29-2-1.64,1.75V50.94L23,54.05l-1.11-2.13.7,2.3-2.8-1.62L22,54.91l-2.4-.11,2.34.55L19.14,57l3.13-.8-1.29,2,1.64-1.75v3.23l.87-3.11,1.11,2.13ZM44.57,75.92,47,75.65l-2.4-.17,2.51-2-3,1.29,1-2.2-1.34,2-.51-3.19-.37,3.21-1.43-1.93,1.06,2.16-3-1.15L42,75.54l-2.38.28,2.39.16-2.51,2,3-1.29-1,2.21,1.35-2,.51,3.2.37-3.22,1.43,1.93-1.06-2.16,3,1.16Zm1.6-59.38-2.87-.63,2.6,1.39-2.12.56L46,17.69l-2,2.17,2.5-1.55-.57,2.11.94-2,.9,2.81-.11-2.94,1.55,1.54L48,18.05l2.87.63L48.23,17.3l2.11-.57-2.18.17,2-2.17-2.5,1.56.57-2.12-.94,2-.89-2.8.1,2.94-1.55-1.55ZM39,11,37.88,13.1l1.48-1.9.29,3.22.59-3.17,1.3,2L40.63,11l2.94,1.37L41.11,10.3l2.4-.1-2.38-.34L43.78,8,40.73,9.08,41.84,7,40.36,8.84l-.29-3.22L39.48,8.8l-1.29-2L39.09,9,36.16,7.64l2.45,2.1-2.4.11,2.38.33L35.94,12Zm33.87,41.9,2.94,1.36-2.46-2.1,2.4-.1-2.38-.34L76,49.83,73,50.91l1.11-2.13-1.48,1.89-.29-3.22-.59,3.18-1.29-2,.9,2.23-2.94-1.36,2.46,2.1-2.4.11,2.38.33-2.65,1.86,3-1.08-1.11,2.13L71.59,53l.29,3.22.59-3.18,1.29,2Zm12.49-7.58-2.57-1.43.06,2.29L82.22,44l-2,2.13,1.34-2.42a28,28,0,0,1-2.09,2l-3.25,2.8a19.16,19.16,0,0,1-2.57,2A20.52,20.52,0,0,1,76,48.18l3.25-2.81a19.24,19.24,0,0,1,2.4-1.85l-2.26.06L81.54,43l-2.13-2L82,42.36l-.06-2.28.63,2.19,2-2.13-1.43,2.57,2.28-.06-2.19.62Zm-3.72-1.77h0s0,0,0,.06Zm-7.34.6.43-2.9,1.77,1.43-1.36-1.83,2.92-.3-2.9-.43,1.43-1.78-1.83,1.36-.3-2.91L74,39.66l-1.77-1.44,1.36,1.83-2.92.31,2.9.43-1.44,1.77L74,41.2ZM21.76,33.66l-.56,2.22,1.09-2,1.51,2.52L23,33.58l2.22.55-2-1.09,2.52-1.51-2.82.84.56-2.21-1.09,2-1.51-2.52.84,2.82-2.21-.56,2,1.09L18.94,34.5Zm48.61-4-1.68,1.54,2-1.08-.12,2.94.85-2.81L73,32l-1.08-2,2.93.12L72,29.22l1.68-1.54-2,1.07.13-2.93L71,28.63,69.42,27l1.07,2-2.93-.12Zm8.69-10.28L77.38,21l2-1.08-.13,2.93L80.11,20l1.54,1.68-1.07-2,2.93.13L80.7,19l1.68-1.55-2,1.08.13-2.93-.85,2.81L78.1,16.68l1.08,2-2.93-.13ZM74.74,57.3l0-1.44-.58,1.32-1.26-.7.86,1.17-1.24.75,1.44-.17,0,1.45.58-1.33,1.27.7-.86-1.16,1.24-.75ZM50.39,20,49,20.43l1.44.16L50.15,22,51,20.85l1.08,1-.57-1.33L52.89,20l-1.43-.17.3-1.41-.87,1.16-1.07-1Zm4,2.34,1.4.35L55.31,24l1-1,.93,1.11-.39-1.4,1.43-.26-1.41-.36.49-1.36-1,1-.94-1.11.39,1.4Zm6.17,10.46L59.14,33l1.4.38L60,34.75l1-1L62,34.85l-.37-1.4L63,33.21l-1.4-.38.51-1.36-1,1-.92-1.11ZM49.78,34.05l.91-1.12-1.3.64-.51-1.35-.1,1.44-1.43-.23,1.21.81-.92,1.12,1.3-.64.52,1.35.1-1.44,1.43.23ZM42.46,66.61l.77-1.23L42,66.17l-.68-1.28.09,1.45-1.45,0,1.29.65-.76,1.23,1.21-.8.68,1.28-.09-1.45,1.45,0Zm3-50.53C45.6,16,43.75,14,43.75,14l-.35-.37a16,16,0,0,0-2.07-1.95c-.13.13,1.82,2.2,1.82,2.2l.36.38S45.34,16.2,45.47,16.08Zm4.06,3.11-.1-.1s-.6-.56-.69-.47.51.66.51.66l.11.1s.56.53.66.43S49.53,19.19,49.53,19.19Zm2.54,1.49c0,.13,1.57.68,1.57.68l.29.1s1.53.53,1.57.4A7.56,7.56,0,0,0,54,21.21l-.29-.1A7.16,7.16,0,0,0,52.07,20.68Zm4.29,5.11a10.11,10.11,0,0,0,0-2.33,10.18,10.18,0,0,0-.3,2.32l0,.43a9,9,0,0,0,.06,2.2,10.29,10.29,0,0,0,.29-2.2ZM59.3,32l-.19-.09s-1.06-.53-1.12-.42,1,.66,1,.66l.19.09s1,.51,1.07.39S59.3,32,59.3,32Zm-6.71.76a10.31,10.31,0,0,0,1.69-1.19,11.53,11.53,0,0,0-1.84,1l-.34.2A12.16,12.16,0,0,0,50.31,34a11.56,11.56,0,0,0,1.94-1Zm-2.82,2.3c-.13,0,.36,1.38.36,1.38l.09.25s.45,1.26.58,1.21-.34-1.31-.34-1.31l-.09-.24S49.89,35,49.77,35.06Zm7.33.69-.56.43a30.93,30.93,0,0,0-3,2.5,27.62,27.62,0,0,0,3.22-2.24l.56-.43a24.58,24.58,0,0,0,2.82-2.39A28.19,28.19,0,0,0,57.1,35.75Zm8.74-4.28.66-.24a25.14,25.14,0,0,0,3.41-1.39,26.77,26.77,0,0,0-3.54,1.07l-.67.23a29.48,29.48,0,0,0-3.6,1.46A28.29,28.29,0,0,0,65.84,31.47Zm4.21,6.41-4.53-2.53A30.07,30.07,0,0,0,62,33.6a28.1,28.1,0,0,0,3.34,2.07l4.54,2.52a25.8,25.8,0,0,0,3.29,1.63A26.8,26.8,0,0,0,70.05,37.88Zm2.58-2.28a27.72,27.72,0,0,0,1.18,3.65A30.07,30.07,0,0,0,73,35.49l-.19-.71a32.52,32.52,0,0,0-1.23-3.85,29.82,29.82,0,0,0,.89,4Zm-4.8,14.17L56.31,42.45a18.65,18.65,0,0,0-2.73-1.52,18.7,18.7,0,0,0,2.54,1.82l11.52,7.31A14.06,14.06,0,0,0,70,51.36,14.72,14.72,0,0,0,67.83,49.77Zm5.09-2.25a9.64,9.64,0,0,0-.06,2.28,10.33,10.33,0,0,0,.41-2.26l.34-3.2a11.68,11.68,0,0,0,.09-2.44,11.09,11.09,0,0,0-.43,2.41Zm-49-14.44a29.5,29.5,0,0,0,3.86.38l17,.87a21.19,21.19,0,0,0,3.38,0A22.53,22.53,0,0,0,44.71,34l-16.95-.87A29.54,29.54,0,0,0,23.88,33.08Zm-1.51,1.55a16.31,16.31,0,0,0-.09,3l.41,12.92A12.29,12.29,0,0,0,23,53.07,13,13,0,0,0,23,50.5l-.41-12.92A17.29,17.29,0,0,0,22.37,34.63Zm3.94,31.72-1.48-5.09a30.07,30.07,0,0,0-1.29-3.78,30.41,30.41,0,0,0,1,3.9L26,66.46A25.22,25.22,0,0,0,27.2,70,28.3,28.3,0,0,0,26.31,66.35Zm11.11,1.57-4.78,1.51a26.9,26.9,0,0,0-3.54,1.31,27,27,0,0,0,3.66-1l4.78-1.52A22.53,22.53,0,0,0,40.86,67,25.27,25.27,0,0,0,37.42,67.92Zm4,7.44A30.45,30.45,0,0,0,37.71,74l-5.25-1.63s-2.56-.79-3.58-1l1,.12-1.24-.75.86-1.17-1.27.7L27.66,69l0,1.44-1.44-.16,1.24.75-.86,1.17,1.27-.71.58,1.33,0-1.45h0a32.19,32.19,0,0,0,3.92,1.4l5.25,1.63A28.59,28.59,0,0,0,41.39,75.36ZM78.57,42.15a11,11,0,0,0,2.36.6,12,12,0,0,0-2.26-.94l-.44-.15A13.22,13.22,0,0,0,75.74,41a12.43,12.43,0,0,0,2.39,1Zm-5.16,13s-.59-1.3-.71-1.24.47,1.35.47,1.35l.11.24s.55,1.22.68,1.16-.45-1.28-.45-1.28Zm.91-29.23,2.88-3.16a16.77,16.77,0,0,0,1.9-2.36,19,19,0,0,0-2.17,2.13L74.05,25.7a20.32,20.32,0,0,0-2,2.49A19.05,19.05,0,0,0,74.32,25.92Z"/><path class="cls-1" d="M33.44,57.05a.88.88,0,1,1-.88-.87A.87.87,0,0,1,33.44,57.05Zm31.5-35.6a.47.47,0,0,0-.47.47.47.47,0,0,0,.93,0A.47.47,0,0,0,64.94,21.45ZM52.61,63.94a.47.47,0,1,0,.46.47A.47.47,0,0,0,52.61,63.94ZM56.08,11.4a.47.47,0,1,0-.94,0,.47.47,0,0,0,.94,0ZM17,42.81a.47.47,0,1,0,.47.47A.47.47,0,0,0,17,42.81Zm11.28-7.08a.45.45,0,0,0-.26.6.47.47,0,0,0,.6.27.48.48,0,0,0,.27-.61A.47.47,0,0,0,28.24,35.73Zm56.12-4.15-.69.1L83.41,31l-.26.64-.69-.1.43.55-.43.55.69-.1.26.64.26-.64.69.1-.43-.55ZM36,24.78l-.76.31-.48-.67-.12.82-.81.09.65.5-.34.75.77-.31.48.67.11-.82.82-.09-.65-.5Zm16.52,29a7.29,7.29,0,0,1-1.62-.31,1.26,1.26,0,0,1-1-1.07c-.15-.81-.36-3.19-.36-3.19s0,0,0,0-.2,2.39-.36,3.19a1.36,1.36,0,0,1-1,1,8.94,8.94,0,0,1-1.82.33h0a10.43,10.43,0,0,1,1.78.32,1.39,1.39,0,0,1,1,1.06c.17.81.36,3.19.36,3.19s0,0,0,0,.21-2.41.36-3.19a1.49,1.49,0,0,1,1-1.08,6.81,6.81,0,0,1,1.6-.3S52.55,53.76,52.54,53.76Zm5.22,2.31c-.09-.48-.21-1.9-.21-1.9s0,0,0,0-.12,1.42-.21,1.9a.83.83,0,0,1-.59.64,5.46,5.46,0,0,1-1.09.19h0a5.71,5.71,0,0,1,1.07.19.83.83,0,0,1,.61.63c.1.49.21,1.91.21,1.91s0,0,0,0,.12-1.44.21-1.91a.88.88,0,0,1,.59-.64,4,4,0,0,1,1-.18h0a4.06,4.06,0,0,1-1-.19A.75.75,0,0,1,57.76,56.07Z"/><path class="cls-1" d="M12.1,99.89c-2.67,0-4.66,2.9-4.66,4.66,0,3.16,6.34,3.09,6.34,7.41,0,5.39-10,6.33-10,.72a2.59,2.59,0,0,1,2.71-2.84c-2.06,2.24-1.41,5.81,2.08,5.81,1.9,0,3.94-1.06,3.94-3.09,0-3.65-6.44-3.73-6.44-7.52a6.14,6.14,0,0,1,6-5.66c3.39,0,2.36,4,.6,6.78C10.21,105.63,15.52,99.89,12.1,99.89ZM37,105.48c1.32,0,2-1.8.68-1.8-.68,0-1.55.51-1.55,1.1S36.57,105.48,37,105.48Zm33.89,0c1.32,0,2-1.8.68-1.8-.68,0-1.55.51-1.55,1.1S70.45,105.48,70.92,105.48Zm18.26,6a3.61,3.61,0,0,1-3,2.52,2.7,2.7,0,0,1-2.71,1.76,2.48,2.48,0,0,1-2.63-2.44,4.47,4.47,0,0,1-3.19,2c-1.47,0-1.68-1.18-1.34-2.63-.78,1.4-1.71,2.63-2.77,2.63S71.86,114,72,112.65c-1.73,3.13-5.76,3.59-5.2.12-2.32,3.26-5.23,2.81-5.23,1,0-1.25,1.16-2.84,1.16-4,0-.91-.65-1.22-1.18-1.6-1,2.63-2.86,7-5.68,7-1,0-1.71-.7-1.46-2.1-1.23,1.63-2.16,2.46-3.2,2.46s-1.72-.73-1.53-2.2A5,5,0,0,1,46,115.61c-1.67,0-2-1.25-1.83-2.88-1.08,1.71-2.63,2.88-4.23,2.88s-2-1.22-1.83-2.85c-1.82,3.15-5.72,3.38-5.13-.07a9,9,0,0,1-3.29,2.7c-1.19,2.86-2.54,5.17-4.13,5.17a1.15,1.15,0,0,1-1.23-1.23c0-1.71,2.35-2.83,4.13-3.72a28.5,28.5,0,0,0,1.08-3.5c-2.69,3.86-4.87,3.07-5,.92-2.2,3.18-5.27,2.73-4.8.14-1.23,1.63-2.16,2.46-3.2,2.46a1.54,1.54,0,0,1-1.56-1.76c0-2.52,3.11-6.5,5.86-6.5,1.11,0,1.93.63,1.93,1.59,0,.69-.42.91-1,.91.27-1,.07-1.93-.93-1.93-2.71,0-5.64,6.82-3.79,6.82,1.31,0,3.41-3.09,4.45-4.62.25,0,.85.21.85.53,0,.49-1.23,1.93-1.23,2.94,0,.43.21.94.72.94s1.7-.78,2.77-2.36a6.39,6.39,0,0,1,5.57-4.91c1.42,0,1.26,1,.89,1.1a1,1,0,0,0-.84-.31c-3.23,0-5.51,5.84-3.52,5.84.8,0,2.05-1.25,3.13-2.79.29-1.26.39-2.49,1.78-2.14a25.23,25.23,0,0,1-1.63,5.8,7.15,7.15,0,0,0,3.4-3.46c1.33-4.2,3.1-4.33,3.1-3.4,0,.7-2.2,3.26-2.2,5.25,0,1,.34,1.27,1,1.27.9,0,1.92-.73,3-2.82a26.22,26.22,0,0,1,1-3.22,4.25,4.25,0,0,1-.76-.16v-.39c.21,0,.53.07.93.09,1.19-3,2.82-6,3.69-6,1.4,0-.78,2.64-2.37,6a19.48,19.48,0,0,0,3.81-.15c.21,0,.53.07.93.09,1.19-3,2.82-6,3.69-6,1.4,0-.79,2.64-2.38,6,1.28,0,2.46,0,3.82-.12v.38a33.32,33.32,0,0,1-4.05.25,11.88,11.88,0,0,0-1.16,4.62c0,1.23.34,1.69,1.18,1.69,1.2,0,2.41-.94,3.41-2.51.85-2.33,3.32-4.94,5.55-4.94,1.1,0,1.93.63,1.93,1.59,0,.69-.42.91-1,.91.26-1,.07-1.93-.93-1.93-2.71,0-5.65,6.82-3.79,6.82,1.31,0,3.41-3.09,4.45-4.62.25,0,.84.21.84.53,0,.49-1.23,1.93-1.23,2.94,0,1.75,2.1,1.07,4-2.28a33.3,33.3,0,0,0,1.41-3.41c-.83-.83,1-2.91,1-1.44,0,.15-.23.7-.23.78,0,.78,2.16,1.14,2.16,2.94,0,1.3-1.06,2.69-1.06,3.58,0,1.43,2.59.37,4-2.06.53-1.89,1.69-4.27,2.76-4.27a.44.44,0,0,1,.46.47c0,.7-2.2,3.26-2.2,5.25,0,1,.34,1.27,1,1.27.92,0,2-.78,3.16-3,.4-1.5,1.14-3.08,1.58-3.08a1.49,1.49,0,0,1,.79.42A10.13,10.13,0,0,0,73.21,113c0,.36.06,1.42.76,1.42,1.31,0,3-3.94,3.85-5.53.24,0,1,.19,1,.55s-2.64,5.19-.72,5.19a4.35,4.35,0,0,0,2.76-2.1,1.5,1.5,0,0,1,.7-1.17s0-.1.08-.16l.09.07a1.71,1.71,0,0,0,.46-.24,12.49,12.49,0,0,0,2.1-3.07v-.25c0-1.7,1.16-1.64,1.16-1.17a6,6,0,0,0-.13.93c0,1.61,1.56,4,1,6.14,1-.16,1.84-.8,2.67-2.39Zm-61,4.75c-1.68.84-3.24,1.76-3.24,3S26.37,120.55,28.18,116.18Zm17.11-7.78c-.82-.12-.76-.2-.76-.14a33.32,33.32,0,0,1-4.05.25,12.06,12.06,0,0,0-1.16,4.62c0,1.23.34,1.69,1.18,1.69,1.37,0,2.75-1.22,3.81-3.19A24.71,24.71,0,0,1,45.29,108.4Zm39.59,5.53a4.16,4.16,0,0,1-2.61-1.76c-.89.06-.53,2.8,1.27,2.8A1.36,1.36,0,0,0,84.88,113.93Zm-.47-5.17a15.94,15.94,0,0,1-2,2.76A3.75,3.75,0,0,0,85,113.59C85.27,111.73,84.72,110.45,84.41,108.76Z"/></g></g></svg>