<svg xmlns="http://www.w3.org/2000/svg" viewBox="0 0 113.41 153.11"><title>Asset 560</title><g id="Layer_2" data-name="Layer 2"><g id="Layer_1-2" data-name="Layer 1"><path d="M100.89,17.92A53.7,53.7,0,0,0,88.36,6.34L86,4.89l1.61,2.29C91,12,90.83,15,90.7,17.68l0,.61c-.22,5.4.29,8.42,3.88,12l.79.76c-5,5.55-.4,12.1,1.81,14.68l3,3.51c-2.92,1.87-3.78,4.31-2.86,8a20.26,20.26,0,0,0,1,2.68c1.34,3.06,3.17,7.24,1.72,10.69-1.2,2.85-3.18,3.57-5.11,4.26a7.93,7.93,0,0,0-3.48,2c-2.3,2.58-2,5.56-1.67,9.33a52,52,0,0,0-9.08.16,18.65,18.65,0,0,0-10.82,4.3,17.32,17.32,0,0,0-2,1.9c-2.13-3.14-4.89-5.28-10.88-5.64a20.63,20.63,0,0,0-11.51,2.58C44.13,85,42.62,84,40.19,82.3l-.09-.06c-1.44-1-4.08-1.69-7.14-2.48l-2-.52c-7.63-2-12.12-5-16-10.66-.21-.29-.4-.6-.6-.91-2.46-11.89-.74-23,4.51-28.91a11.53,11.53,0,0,1,8.63-4.16l-2.84,2.84,2.49,2.48,3.43-3.42.24.22c1.23,1.11,3.52,3.19,3.57,5.22a3,3,0,0,1-1,2.2l-2.56,2.51-3,10.2L43.06,71.37l0,0A20.52,20.52,0,0,0,56.34,76a22.63,22.63,0,0,0,6-.76L64.1,76.9l3.46-3.42.14.13C69,74.85,71.6,77.43,71.62,80a3.78,3.78,0,0,1-1.24,2.75L66,87.14l2.49,2.49L80.69,77.37l.08-.07L93,65l-2.49-2.49L86.1,67a3.72,3.72,0,0,1-2.73,1.24h0c-2.52,0-5.1-2.65-6.34-3.92l-.14-.14L80.3,60.7l-1.71-1.77c.32-1.14,2.9-11.1-3.8-19.24L60.25,24.44l-10.2,3L47.53,30a3,3,0,0,1-2.19,1c-2-.05-4.11-2.34-5.23-3.57l-.22-.25,3.43-3.43-2.49-2.49-3,3a5.56,5.56,0,0,1,.26-4.51,8.61,8.61,0,0,1,1.55-2.37,16.27,16.27,0,0,0,2.19-3.19c.87-1.68.94-3.3.19-4.44a2.61,2.61,0,0,0-2.38-1.18,4.15,4.15,0,0,0-3.27,2.7,11.35,11.35,0,0,0-.49,1.16c-.38.95-.58,1.48-1.34,1.84a13,13,0,0,1-3.73.45h-.4a3.22,3.22,0,0,0-2.85,2c-.49.85-.73,1.28-1.86,1s-1.15-1-1.16-2.35c0-1.14,0-2.56-1.39-3.35-2.3-1.32-4.87-.5-7.66,2.44a56.71,56.71,0,1,0,97.9,39A56,56,0,0,0,100.89,17.92ZM18,38c-4.91,5.56-6.89,15.32-5.43,26.09a31.25,31.25,0,0,1-.83-20.65c2.9-8.66,11.19-13.87,19.13-12.19l-2.22,2.21A12.62,12.62,0,0,0,18,38ZM33.76,60.88l3-3,7,7.07L41,67.78ZM63.62,45.13l-2.93,2.92L53.62,41l2.92-2.91Zm-6.25-7.88,3.06-3,7.08,7.06-3.06,3Zm2.49,11.62-3.44,3.44-7.08-7.06,3.45-3.43Zm-4.27,4.27-3.32,3.33-7.06-7.08,3.3-3.31ZM51.44,57.3l-2.91,2.92-7.06-7.07,2.92-2.93ZM47.7,61.05l-3.05,3.06L37.6,57l3-3.05Zm42.83,3.16.83.83L79.94,76.47l-.08.07L68.44,88l-.83-.83L79,75.71l.08-.07ZM83.35,69.4h0l.34,0-5.43,5.43-.08.07-5.43,5.43c0-.12,0-.24,0-.36,0-3-2.89-5.83-4.27-7.18l-.13-.12,3.81-3.78h0l0,0,0,0h0L76,65l.13.12C77.52,66.5,80.33,69.38,83.35,69.4Zm-4.69-8.71L71.4,68l-7.31,7.25-.85-.81,7.3-7.24h0l0,0,0,0h0l7.23-7.3ZM73.9,40.46c6.13,7.46,3.9,16.86,3.57,18.09l-7.72,7.8L62,74.08c-1.23.33-10.63,2.55-18.1-3.58l-2-1.91,15-15.1L72,38.45ZM71.17,37.6l-2.83,2.83-7.08-7.06,3-3Zm-7.7-8.08L48.2,44.74h0l0,0,0,0h0L32.91,60.07l-3.47-3.31L44.81,41.48h0l0,0,0,0h0L60.15,26Zm-15.11,1.3,0,0h0l2.29-2.33,7.64-2.24L44,40.62,29.63,54.92l2.24-7.64L34.2,45h0l0,0L41.3,38h0l.06-.07.06-.06h0Zm-3,1.33h.11l-4.89,5-5,4.9a.48.48,0,0,0,0-.12c-.06-2.53-2.59-4.83-3.95-6.06l-.2-.18,3.8-3.81,0,0,0,0L39.06,28l.18.2C40.48,29.55,42.78,32.09,45.31,32.15ZM40.83,22.9l.83.83L34.39,31l-7.26,7.27-.83-.83,7.23-7.24.07-.06Zm15.88,86A55.53,55.53,0,0,1,16.36,15.21c2.37-2.5,4.46-3.25,6.22-2.24.76.44.8,1.18.81,2.35s0,2.91,2,3.47,2.7-.63,3.2-1.5.79-1.38,1.88-1.42l.38,0a12.55,12.55,0,0,0,4.21-.56A3.83,3.83,0,0,0,37,12.82a11.73,11.73,0,0,1,.46-1.09,3.06,3.06,0,0,1,2.29-2,1.41,1.41,0,0,1,1.32.66,3.33,3.33,0,0,1-.25,3.25,15.51,15.51,0,0,1-2.05,3A9.62,9.62,0,0,0,37,19.26,6.74,6.74,0,0,0,37,25.13l-4.18,4.18-.07.06-.89.9c-8.74-2.29-18,3.3-21.22,12.79C7.8,51.39,9.22,62.4,14,69.25c4,5.8,8.86,9,16.69,11.12l2,.53c2.82.73,5.49,1.42,6.76,2.31l.09.05c2.42,1.69,3.67,2.57,5,6.85-.75.46-1.4.91-1.94,1.28s-.83.58-1.13.76a14.88,14.88,0,0,1-11.34,1.77A14.21,14.21,0,0,1,21.35,87l-1,.59a15.51,15.51,0,0,0,9.48,7.43,14.92,14.92,0,0,0,3.81.49,16.54,16.54,0,0,0,8.42-2.38c.35-.2.75-.48,1.21-.81A20.25,20.25,0,0,1,57,88.08c5.68.34,8.12,2.3,10.13,5.35l0,0c-4.25,4.65-10.06,11-25,6.45L41.74,101a33.31,33.31,0,0,0,9.72,1.63,19.47,19.47,0,0,0,7.63-1.45c4.08-1.71,6.74-4.62,8.87-7a25.15,25.15,0,0,1,2.7-2.69,17.37,17.37,0,0,1,10.21-4A52.36,52.36,0,0,1,91,87.44c2.91.22,4.67.35,6.73-1.22,1.28-1,2.15-3.62,3-6.18a21.63,21.63,0,0,1,1.67-4.2,16.06,16.06,0,0,1,3.29-3.31,27.21,27.21,0,0,0,4.63-4.62A55.62,55.62,0,0,1,56.71,108.9Zm48.21-37.27a17,17,0,0,0-3.52,3.57,22.11,22.11,0,0,0-1.8,4.47C98.84,82,98,84.54,97,85.29c-1.71,1.3-3.12,1.19-5.93,1h0l0-.15c-.34-3.64-.59-6.27,1.38-8.48a7,7,0,0,1,3-1.65c2.06-.74,4.39-1.58,5.79-4.91,1.65-3.91-.38-8.54-1.72-11.61a17.69,17.69,0,0,1-1-2.49c-.71-2.83-.52-5,2.51-6.85l.28.29.22.27.34.43.39.46c1.57,1.81,5.74,6.61,2.36,13l1,.54a10.93,10.93,0,0,0,.76-9.16,16.83,16.83,0,0,0-3.27-5.18l-.36-.42L102.4,50a2.32,2.32,0,0,0-.34-.4c-.35-.34-2.38-2.68-4-4.59-5.71-6.65-3.7-11-1.84-13.12l.8.74c4.53,4.12,11.37,10.35,9.89,16.54l1.14.27c1.64-6.86-5.51-13.37-10.24-17.68-.9-.82-1.75-1.59-2.41-2.25-2.7-2.71-3.79-4.85-3.54-11.13l0-.61A14.84,14.84,0,0,0,90.07,9,57.41,57.41,0,0,1,100,18.69a55.3,55.3,0,0,1,11.13,45.66A22.18,22.18,0,0,1,104.92,71.63ZM32.33,11.85a1.91,1.91,0,0,0,.76.16,1.73,1.73,0,0,0,1.08-.36,9.13,9.13,0,0,0,1.94-2.44A10.4,10.4,0,0,1,37,7.94,8.84,8.84,0,0,1,38.55,6.5c.21-.15.41-.31.61-.47a5.42,5.42,0,0,0,2-2.7A2.67,2.67,0,0,0,39.62.11a3,3,0,0,0-2.06.18,7.63,7.63,0,0,0-3.5,3.06c-.8,1.23-2.67,4.35-2.67,6.85A1.71,1.71,0,0,0,32.33,11.85ZM35,4a6.71,6.71,0,0,1,3-2.62,1.86,1.86,0,0,1,1.25-.14A1.5,1.5,0,0,1,40,3a4.23,4.23,0,0,1-1.59,2.08l-.58.45A9.87,9.87,0,0,0,36,7.2a16.32,16.32,0,0,0-.94,1.4,7.94,7.94,0,0,1-1.68,2.15.64.64,0,0,1-.59,0c-.07,0-.26-.12-.26-.58C32.57,8,34.46,4.88,35,4Z"/><path d="M31.9,142.64,29.08,151h1.09l.8-2.53H34l.79,2.53h1.13l-2.82-8.36Zm1.85,5h-2.5l.4-1.26c.29-.93.56-1.85.81-2.82h0c.27,1,.54,1.89.84,2.82Zm9,4.62a2.18,2.18,0,0,1-2-1.11c1.76-.31,2.94-1.92,2.94-4.32,0-2.67-1.47-4.3-3.58-4.3s-3.57,1.62-3.57,4.3c0,2.46,1.23,4.07,3.05,4.33a3.2,3.2,0,0,0,3.09,2,2.91,2.91,0,0,0,1.19-.21l-.2-.8A3.27,3.27,0,0,1,42.76,152.22Zm-5.14-5.43c0-2.08,1-3.36,2.46-3.36s2.48,1.28,2.48,3.36-1,3.47-2.48,3.47S37.62,148.91,37.62,146.79Zm12.79-4.15h1v4.91c0,2.68-1.3,3.61-3,3.61s-3-.93-3-3.61v-4.91h1.07v4.94c0,2,.85,2.63,1.94,2.63s2-.63,2-2.63Zm4.79,0L52.38,151h1.09l.8-2.53h3l.79,2.53h1.13l-2.82-8.36Zm1.85,5h-2.5l.4-1.26c.29-.93.56-1.85.81-2.82h.05c.27,1,.54,1.89.84,2.82ZM66,145c0-1.75-1.22-2.36-2.93-2.36H60.43V151H61.5v-3.53H63L65,151h1.21l-2.13-3.64A2.28,2.28,0,0,0,66,145Zm-3.08,1.61H61.5v-3.1h1.39c1.3,0,2,.39,2,1.49S64.19,146.61,62.89,146.61Zm4.8-4h1.07V151H67.69Zm8.3,0h1v4.91c0,2.68-1.3,3.61-3,3.61s-3-.93-3-3.61v-4.91h1.07v4.94c0,2,.84,2.63,1.93,2.63s2-.63,2-2.63Zm8.34,6.13c0,1.33-1.1,2.39-2.86,2.39a3.92,3.92,0,0,1-2.93-1.25l.6-.7a3.32,3.32,0,0,0,2.34,1c1.1,0,1.75-.54,1.75-1.35s-.61-1.12-1.39-1.46l-1.21-.54A2.34,2.34,0,0,1,79,144.71a2.37,2.37,0,0,1,2.62-2.22,3.5,3.5,0,0,1,2.48,1l-.59.71a2.74,2.74,0,0,0-1.89-.78c-.93,0-1.54.47-1.54,1.21s.73,1.11,1.38,1.38l1.19.52A2.33,2.33,0,0,1,84.33,148.77Z"/></g></g></svg>