<svg xmlns="http://www.w3.org/2000/svg" viewBox="0 0 111.22 145.48"><title>Asset 568</title><g id="Layer_2" data-name="Layer 2"><g id="Layer_1-2" data-name="Layer 1"><path d="M27.55,30.38l-.11,1.17a17.5,17.5,0,0,0-5.87.68,6.91,6.91,0,0,1-1.52.3h0a.9.9,0,0,1-.83-.4,1.29,1.29,0,0,1,.16-1.28,2,2,0,0,0,.24-.67L20.75,30a2.21,2.21,0,0,1-.31,1.34l.84-.2A18.22,18.22,0,0,1,27.55,30.38ZM17.16,27.27l.92.72a7,7,0,0,1,9.34-1.32l.69-1C24.08,22.79,19.16,24.73,17.16,27.27Zm74.46,2.91L90.47,30a2.21,2.21,0,0,0,.31,1.34l-.84-.2a18.19,18.19,0,0,0-6.27-.72l.11,1.17a17.25,17.25,0,0,1,5.87.68,6.87,6.87,0,0,0,1.53.3h0a.89.89,0,0,0,.83-.4,1.29,1.29,0,0,0-.16-1.28A2,2,0,0,1,91.62,30.18ZM93.14,28l.92-.72c-2-2.54-6.92-4.48-11-1.55l.69,1A7,7,0,0,1,93.14,28Zm18.08,67-2.59.48a11.25,11.25,0,0,1-2,.19c-6.92,0-12.14-6.63-14.22-13.35-1.72-5.54-8.6-8.08-13.63-9.93a24.46,24.46,0,0,1-4.37-1.88c0,.13-.07.25-.1.38.57.32,1.19.65,1.91,1,8,3.77,13.15,8.9,15.22,15.25,3,9.2-1.5,17.53-1.7,17.88L87.52,109l1.09-4.37a19.34,19.34,0,0,0-.81-9.81C85.36,87.54,79,81.54,69.38,77.43c-9.38-4-10.49-7.14-9.51-13.05.49-2.95-.51-8.75-1.88-14.84a47,47,0,0,0-.51,13c1.16,10.54,6.23,17.51,15.06,20.71,5.2,1.89,8.35,4.82,9.37,8.72,2.13,8.14-5.8,17.47-6.13,17.86L73,113.08l1.79-3.84c0-.09,4.12-8.95,1.89-14.25A5.89,5.89,0,0,0,73,91.63c-4.41-1.55-12.43-5.08-17.46-11.47-2.75,3.5-7.93,8.14-17.4,11.47A5.89,5.89,0,0,0,34.53,95c-2.23,5.3,1.85,14.16,1.89,14.25l1.79,3.84-2.77-3.21c-.33-.39-8.26-9.72-6.13-17.86,1-3.9,4.17-6.83,9.37-8.72,8.83-3.2,13.9-10.17,15.06-20.71a47.45,47.45,0,0,0-.49-12.94c-1.39,6-2.39,11.8-1.9,14.74,1,5.91-.13,9-9.51,13.05-9.61,4.11-16,10.11-18.42,17.35a19.34,19.34,0,0,0-.81,9.81l1.07,4.33L21.53,105c-.2-.35-4.69-8.68-1.7-17.88C21.9,80.79,27,75.66,35.05,71.89c.72-.33,1.34-.66,1.91-1,0-.13-.06-.25-.1-.38a24.46,24.46,0,0,1-4.37,1.88c-5,1.85-11.91,4.39-13.63,9.93-2.08,6.72-7.3,13.35-14.22,13.35a11.25,11.25,0,0,1-2-.19L0,95l2.55-.66c5.93-1.54,8.94-5.65,8.94-12.22,0-9.47,7.76-12.42,14.61-15a34.06,34.06,0,0,0,7.77-3.66,38.3,38.3,0,0,0-3.5-5c-3.61,1.88-6.64,3.27-8.9,3.27a3.82,3.82,0,0,1-2-.49c-1.29-.77-1.91-2.38-1.91-4.92,0-2.16-.6-3-.95-3.09a2.46,2.46,0,0,1-1.68-2.32,1.66,1.66,0,0,1,.2-.63,2,2,0,0,1-1-.65,1.35,1.35,0,0,1-.06-1.48l.3-.57a5.67,5.67,0,0,0,.87-3.74c-1.52-.08-3.09-.18-3.45-1.83a3.43,3.43,0,0,1,.77-2.89,14.41,14.41,0,0,0,2.22-5.55h0c-.12-.62-.36-1.51-.64-2.53-1.59-5.85-4.55-16.72,2.94-21.4,1.51-3,5.39-6.1,10.06-7.16l0,0a31.2,31.2,0,0,1,11-2.35V0c.12,0,.23,0,.35.06a29.59,29.59,0,0,1,17,5.05,30.71,30.71,0,0,1,10-4.25,29.29,29.29,0,0,1,7.28-.8c.12,0,.23,0,.35-.06V.06a31.2,31.2,0,0,1,11,2.35l0,0c4.67,1.06,8.55,4.12,10.06,7.16,7.49,4.68,4.53,15.55,2.94,21.4-.28,1-.52,1.91-.64,2.53h0a14.48,14.48,0,0,0,2.22,5.55A3.43,3.43,0,0,1,99.39,42c-.36,1.65-1.93,1.75-3.45,1.83a5.67,5.67,0,0,0,.87,3.74l.3.57a1.35,1.35,0,0,1-.06,1.48,2,2,0,0,1-1,.65,1.66,1.66,0,0,1,.2.63A2.46,2.46,0,0,1,94.6,53.2c-.35.13-.95.93-.95,3.09,0,2.54-.62,4.15-1.91,4.92a3.82,3.82,0,0,1-2,.49c-2.26,0-5.29-1.39-8.9-3.27a38.3,38.3,0,0,0-3.5,5,34.06,34.06,0,0,0,7.77,3.66c6.85,2.6,14.61,5.55,14.61,15,0,6.57,3,10.68,8.94,12.22ZM93.62,15.36c3.16,4.79,2.44,10.29,2.17,12.41,0,.25-.07.53-.07.6.06.83.13,1.59.21,2.3,1.42-5.19,3.92-14.45-1.17-19.11A4.47,4.47,0,0,1,93.62,15.36ZM87.34,4.88C83.27,5,76.27,9.55,72.18,16.34c-2.63,4.34-4.94,11-1.33,18.35-.06-10.57,5.37-16.63,10.24-19.94A32.34,32.34,0,0,1,93,9.91,13,13,0,0,0,87.34,4.88Zm-6.2-1.64a15.64,15.64,0,0,0-9.49,3.82c-8,6.89-10.16,15.54-8.78,21.05a21.37,21.37,0,0,0,2,4.68c1.62,3.1,3.29,6.31.8,10.46-3.08,5.15-2,9.23-.93,13.17.7,2.6,1.36,5.06.78,7.64a20.66,20.66,0,0,1-2.33,5.63l1.64-1.27.07,0a18.27,18.27,0,0,0,3.76-3.79.87.87,0,0,1,0-.12h0c2.21-3.17,2.17-6.08,2.13-8.55a13.79,13.79,0,0,1,.24-3.58c.29-1.11,1.54-2.42,2.74-3.69a12.68,12.68,0,0,0,2.08-2.53c.78-1.73.48-3.63.17-5.63a21.73,21.73,0,0,1-.34-3.33c0-14.4,11.14-19.48,14.8-21.15.48-.22.85-.39,1-.51a3.56,3.56,0,0,0,1.93-4.23c0-.09-.05-.17-.07-.25a31.3,31.3,0,0,0-11.73,4.73C74.21,20.86,71,28.51,72.27,38.49l-.16,0c.2,2.54-.87,4.8-2,7.16-1.61,3.36-3.27,6.85-1.93,12l-1.14.3c-1.44-5.55.39-9.4,2-12.79,1.52-3.19,2.84-5.94,1-9.44-3.29-6.25-2.9-13.35,1.11-20C75,9.44,80.91,5.17,85.28,4A14.45,14.45,0,0,0,81.14,3.24ZM42.85,1.5c6.55,3.34,12,11.4,12.66,19.67a16.92,16.92,0,0,1-1.51,7,58.3,58.3,0,0,0,1.66,7.24,53.4,53.4,0,0,0,1.64-7c-1-2.53-1.77-4.95-1.59-7.23C56.36,12.9,61.82,4.84,68.37,1.5c-.89.13-1.77.29-2.65.5A28.92,28.92,0,0,0,55.46,6.53h0A28,28,0,0,0,45.5,2C44.62,1.79,43.74,1.63,42.85,1.5ZM18.26,9.91a32.34,32.34,0,0,1,11.87,4.84c4.87,3.31,10.3,9.37,10.24,19.94,3.61-7.33,1.3-14-1.33-18.35C35,9.55,28,5,23.88,4.88A13,13,0,0,0,18.26,9.91Zm1.38,5.59c.2.12.57.29,1.05.51,3.66,1.67,14.8,6.75,14.8,21.15a21.73,21.73,0,0,1-.34,3.33c-.31,2-.61,3.9.17,5.63a12.68,12.68,0,0,0,2.08,2.53c1.2,1.27,2.45,2.58,2.74,3.69a13.79,13.79,0,0,1,.24,3.58c0,2.47-.08,5.38,2.13,8.55h0a.87.87,0,0,1,0,.12,18.27,18.27,0,0,0,3.76,3.79l.07,0,1.64,1.27a20.66,20.66,0,0,1-2.33-5.63c-.58-2.58.08-5,.78-7.64,1.06-3.94,2.15-8-.93-13.17-2.49-4.15-.82-7.36.8-10.46a21.37,21.37,0,0,0,2-4.68c1.38-5.51-.8-14.16-8.78-21a15.64,15.64,0,0,0-9.49-3.82A14.45,14.45,0,0,0,25.94,4c4.37,1.15,10.31,5.42,14.11,11.71,4,6.64,4.4,13.74,1.11,20-1.84,3.5-.52,6.25,1,9.44,1.62,3.39,3.45,7.24,2,12.79L43,57.65c1.34-5.13-.32-8.61-1.93-12-1.12-2.35-2.19-4.62-2-7.16l-.16,0c1.24-10-1.94-17.63-9.44-22.74A31.36,31.36,0,0,0,17.78,11c0,.08-.05.16-.07.25A3.56,3.56,0,0,0,19.64,15.5ZM15.29,30.67c.08-.71.15-1.47.21-2.3,0-.07,0-.35-.07-.6-.27-2.12-1-7.62,2.17-12.41a4.47,4.47,0,0,1-1.14-3.8C11.37,16.22,13.87,25.48,15.29,30.67ZM36.51,69.35a30.05,30.05,0,0,0-2.07-4.86,35.39,35.39,0,0,1-7.93,3.73c-6.81,2.59-13.85,5.26-13.85,13.92,0,6-2.32,10.14-6.9,12.31,5.77-.68,10.15-6.54,12-12.46,1.89-6.09,9.38-8.85,14.34-10.68A19.76,19.76,0,0,0,36.51,69.35Zm1.5.93c2.24-1.46,3.13-2.75,3.45-3.66a2.34,2.34,0,0,0,.08-1.49c-2.42-3.49-2.37-6.7-2.33-9.23A12.81,12.81,0,0,0,39,52.63c-.21-.81-1.4-2.07-2.45-3.17a12.9,12.9,0,0,1-2.3-2.86c-.92-2.05-.58-4.21-.26-6.29a21.18,21.18,0,0,0,.33-3.15c0-13.65-10.25-18.32-14.11-20.08-.54-.25-.92-.42-1.18-.57s-.37-.24-.54-.37c-2.81,4.4-2.15,9.51-1.89,11.48a6.2,6.2,0,0,1,.07.83c-.51,7.29-2.12,9.79-3.08,11.28-.54.83-.78,1.21-.61,2s.78.82,2.39.91a10.23,10.23,0,0,1,3.13.51.73.73,0,0,0,.47.06c.15-.07.27-.5.35-.78l1.13.33a2.22,2.22,0,0,1-.95,1.5,1.44,1.44,0,0,1-.62.14,2.33,2.33,0,0,1-.78-.15,6.67,6.67,0,0,0-1.64-.35,6.8,6.8,0,0,1-1,4.19l-.29.56c-.1.19-.06.24,0,.26.31.43,2.44.84,6.81.12l.19,1.15a28.31,28.31,0,0,1-4.37.42c-.38,0-.74,0-1.09-.05v0c-.34.06-.53.2-.55.42A1.3,1.3,0,0,0,17,52.1c.51.2,1.7,1,1.7,4.19,0,2.06.45,3.38,1.34,3.91,2.15,1.28,7.23-1.45,12.62-4.34,1.54-.84,3.14-1.7,4.78-2.53L38,54.38c-1.63.82-3.22,1.68-4.76,2.51l-1.82,1A34.15,34.15,0,0,1,38,70.28Zm10.88,1.48c-.15-.09-.31-.21-.48-.33-.58-.42-1.43-1.08-2.72-2.08l-.07,0a22,22,0,0,1-2.94-2.72c0,.11,0,.22-.09.35-.7,2.14-3.07,4.17-7,6C27.82,76.58,22.91,81.47,21,87.5a22.27,22.27,0,0,0,.19,13.42,21.88,21.88,0,0,1,1.15-6.45c3.2-9.59,12.15-15.15,19.08-18.12C45.23,74.7,47.55,73.26,48.89,71.76Zm3.67-24.32c-4.66-6.77-2.28-12.9-.17-18.33,1.1-2.82,2.13-5.49,2-7.85-.75-9.52-8.14-18.74-15.93-20a29.22,29.22,0,0,0-7,1,16.31,16.31,0,0,1,8.9,4C48.69,13.39,51,22.54,49.49,28.4a22.2,22.2,0,0,1-2.08,4.93c-1.6,3.07-3,5.73-.83,9.32,3.33,5.57,2.12,10.09,1.05,14.07-.66,2.46-1.28,4.78-.77,7.08A21.71,21.71,0,0,0,49.61,70c.08.13.16.25.22.36.84-1.66.75-3.49.36-5.83C49.62,61.14,50.93,54.28,52.56,47.44Zm2.49-9.71c-.06-.26-.13-.51-.2-.75-.83-3.2-1.37-5.28-1.68-6.65C51.36,35,49.62,40.27,53,45.87,53.65,43,54.39,40.22,55.05,37.73Zm2.4,9.49c-.58-2.45-1.21-4.9-1.8-7.18-.6,2.27-1.23,4.71-1.82,7.17l.11,0a47.6,47.6,0,0,1,1,15.49c-1.19,10.89-6.66,18.4-15.83,21.72-4.81,1.75-7.72,4.41-8.64,7.91-1.21,4.64,1.27,9.9,3.37,13.28-1-3.22-1.77-7.68-.36-11a7,7,0,0,1,4.34-4c9.72-3.42,14.77-8.22,17.29-11.64l.18-.25h.65l.17.24c2.06,2.79,7.06,8,17.35,11.64a7,7,0,0,1,4.34,4c1.41,3.36.6,7.82-.36,11,2.1-3.38,4.58-8.64,3.37-13.28-.92-3.5-3.83-6.16-8.64-7.91C63,81.07,57.5,73.56,56.31,62.67a47.28,47.28,0,0,1,1-15.49Zm.86-1.42c3.22-5.5,1.59-10.64-.19-15.27-.31,1.36-.85,3.42-1.69,6.59-.06.2-.11.4-.17.61C56.91,40.21,57.63,43,58.31,45.8Zm6,18c.51-2.3-.11-4.62-.77-7.08-1.07-4-2.28-8.5,1-14.07,2.15-3.59.77-6.25-.83-9.32a22.2,22.2,0,0,1-2.08-4.93c-1.46-5.86.8-15,9.15-22.23a16.31,16.31,0,0,1,8.9-4,29.15,29.15,0,0,0-7-1C65,2.52,57.63,11.74,56.88,21.26c-.18,2.36.86,5,1.95,7.85,2.11,5.41,4.48,11.53-.14,18.28C60.31,54.26,61.6,61.15,61,64.57c-.39,2.34-.48,4.17.36,5.83.06-.11.14-.23.22-.36A21.71,21.71,0,0,0,64.36,63.8Zm4.27,3.13c0-.13-.06-.24-.09-.35A22,22,0,0,1,65.6,69.3l-.07,0c-1.29,1-2.14,1.66-2.72,2.08-.17.12-.33.24-.48.33,1.34,1.5,3.66,2.94,7.52,4.59,6.93,3,15.88,8.53,19.08,18.12a21.83,21.83,0,0,1,1.15,6.44,22.27,22.27,0,0,0,.19-13.42c-2-6-6.88-10.91-14.6-14.53C71.7,71.1,69.33,69.07,68.63,66.93Zm11.16-9.06-1.82-1c-1.54-.83-3.13-1.69-4.76-2.51l.53-1.05c1.64.83,3.24,1.69,4.78,2.53C83.9,58.75,89,61.48,91.14,60.2c.89-.53,1.34-1.85,1.34-3.91,0-3.2,1.19-4,1.7-4.19A1.3,1.3,0,0,0,95.11,51c0-.22-.21-.36-.55-.42v0c-.35,0-.71.05-1.09.05a28.31,28.31,0,0,1-4.37-.42L89.29,49c4.37.72,6.5.31,6.81-.12,0,0,.06-.07,0-.26l-.29-.56a6.8,6.8,0,0,1-1-4.19,6.67,6.67,0,0,0-1.64.35,2.33,2.33,0,0,1-.78.15,1.44,1.44,0,0,1-.62-.14,2.22,2.22,0,0,1-1-1.5l1.13-.33c.08.28.2.71.35.78a.73.73,0,0,0,.47-.06,10.23,10.23,0,0,1,3.13-.51c1.61-.09,2.23-.19,2.39-.91s-.07-1.17-.61-2c-1-1.49-2.57-4-3.08-11.28a6.2,6.2,0,0,1,.07-.83c.26-2,.92-7.08-1.89-11.48-.17.13-.35.25-.54.37s-.64.32-1.18.57C87.15,18.84,76.9,23.51,76.9,37.16a21.18,21.18,0,0,0,.33,3.15c.32,2.08.66,4.24-.26,6.29a12.9,12.9,0,0,1-2.3,2.86c-1,1.1-2.24,2.36-2.45,3.17A12.81,12.81,0,0,0,72,55.9c0,2.53.09,5.74-2.33,9.23a2.34,2.34,0,0,0,.08,1.49c.32.91,1.21,2.2,3.45,3.66A34.15,34.15,0,0,1,79.79,57.87Zm25.67,36.58c-4.58-2.17-6.9-6.3-6.9-12.31,0-8.66-7-11.33-13.85-13.92a35.39,35.39,0,0,1-7.93-3.73,30.05,30.05,0,0,0-2.07,4.86,19.76,19.76,0,0,0,4.43,2c5,1.83,12.45,4.59,14.34,10.68C95.31,87.91,99.69,93.77,105.46,94.45Z"/><path d="M40.72,141h2.76v3.52a3.63,3.63,0,0,1-2.59,1c-2.21,0-3.77-1.61-3.77-4.34s1.61-4.33,3.83-4.33a3.17,3.17,0,0,1,2.41,1l-.59.66a2.34,2.34,0,0,0-1.79-.75c-1.69,0-2.76,1.29-2.76,3.37s1,3.41,2.77,3.41a2.3,2.3,0,0,0,1.5-.48v-2.18H40.72Zm5.81.39H49.7v-.9H46.53v-2.61h3.75V137H45.46v8.36h4.95v-.9H46.53Zm9.72.06c-.21.58-.36,1.12-.55,1.74h-.05c-.18-.62-.36-1.16-.56-1.74L53.51,137H52.17v8.36h1v-4.61c0-.74-.09-1.77-.15-2.5h0l.66,1.95,1.56,4.32H56l1.57-4.32.65-1.95h.05c-.06.73-.15,1.76-.15,2.5v4.61h1V137H57.83Zm5.2,3.88h1.07V137H61.45Zm8.3-4c0,.87.07,1.79.14,2.65h-.06c-.29-.61-.58-1.23-.9-1.8L66,137H64.8v8.36h1v-4.39c0-.87-.08-1.78-.14-2.62h0c.28.61.58,1.24.9,1.8l3,5.21h1.14V137h-1ZM73,137v8.36H74.1V137Z"/></g></g></svg>