<svg xmlns="http://www.w3.org/2000/svg" viewBox="0 0 115.19 85.57"><defs><style>.cls-1{fill:#fbb03b;}</style></defs><title>Asset 522</title><g id="Layer_2" data-name="Layer 2"><g id="Layer_1-2" data-name="Layer 1"><path d="M101.26,37.15a.27.27,0,0,1-.18.12c-.18,0-.27-.23-.13-.31S101.35,37,101.26,37.15ZM73.07,12.81c.89.69,1.21.78,1.53.46s.14-.45-.24-.35c-.2.05-.43,0-.76-.28a2.12,2.12,0,0,1-.52-.47,2.16,2.16,0,0,0-.33-.37,1.56,1.56,0,0,1-.36-.53c-.12-.38-.44-.37-.44,0S72.19,12.14,73.07,12.81ZM67.89,3.22c.32-.17.59-.38.59-.48s-.06-.23-.77,0-.8.44-.65.67S67.21,3.57,67.89,3.22Zm3.69,7.46c0,.19.14.24.28.1s.1-.29-.1-.29A.18.18,0,0,0,71.58,10.68Zm-5.85-.59c.2-.61.22-1,.07-1.05s-.42.51-.42,1S65.57,10.62,65.73,10.09Zm3.74-5.93a.16.16,0,0,0,.15.14,1.71,1.71,0,0,1,.59.37,2.21,2.21,0,0,0,.5.36,1.69,1.69,0,0,0,.42-.36c.19-.2.32-.43.3-.52s-.11-.08-.21.11c-.19.35-.4.35-1,0a3.87,3.87,0,0,0-1.48-.53s.12.11.33.18S69.47,4.09,69.47,4.16ZM38.06,74c.16,0,.18-.11.1-.65a3.1,3.1,0,0,0-.2-.87c-.18-.36-.37-.25-.3.18,0,.23.1.62.14.87S37.94,74,38.06,74Zm63.46,5.66c-.1.48.06.77.27.51a1.77,1.77,0,0,0,.2-.49,2,2,0,0,1,.46-.73c.38-.4.41-.74.07-.74S101.61,79.1,101.52,79.62ZM64.64,20.53c-.22,0-.14.35.1.43a1.18,1.18,0,0,1,.45.32c.24.25.5.32.61.14S65,20.53,64.64,20.53Zm-.17.6c-.4-.22-.57.1-.2.35a7,7,0,0,1,.7.63c.34.35.42.39.49.22S64.92,21.38,64.47,21.13Zm-1.1.54c-.3-.22-.29,0,0,.32a8,8,0,0,0,1.91,1.39.09.09,0,0,0,.09-.1A14.3,14.3,0,0,0,63.37,21.67ZM69,15.81c0,.61.06,1,.17,1s.35.13.41,0,.14-.42.24-.75a9.16,9.16,0,0,1,.45-1.09,1.11,1.11,0,0,0,.18-.61c-.11-.17-.41-.15-.46,0-.14.41-.33-.14-.41-1.19s-.21-1.47-.36-.86a5.51,5.51,0,0,0,.38,2.42c.23.26,0,.47-.27.21a5.37,5.37,0,0,1-.75-2.49c.08-.54-.12-.63-.3-.14s-.15.76.29,1.7A3.3,3.3,0,0,1,69,15.81Zm1.16,24.28c0,.15-.09.27-.16.27s-.59.75-.79,1.46-.23.67-1.09,1.14a8,8,0,0,0-1.24.82c-.24.22-.42.29-.59.24-.52-.17-1.67.88-1.58,1.45,0,.36.3.43.41.11a2,2,0,0,1,1-.88c.19,0,.18.24,0,.65-.12.23-.13.31,0,.27A1.79,1.79,0,0,0,66.5,45a1.08,1.08,0,0,1,.86-.72c.92-.25,1.26-.42,1.33-.68s.15-.24.45-.22.39,0,.46-.4a14.68,14.68,0,0,1,1.12-2.77c.14-.26.22-.51.18-.55S70.15,39.82,70.11,40.09ZM35.42,77.59c.12-.12.1-.78,0-.78a.83.83,0,0,0-.33.24c-.19.22-.2.26,0,.43S35.3,77.71,35.42,77.59Zm38.76-20c-.18.94-.07,1.54.3,1.61.18,0,.2,0,.12-.25a2.1,2.1,0,0,1,.09-1.31c.14-.45,0-.9-.19-.9S74.28,57.06,74.18,57.58ZM52,41a.86.86,0,0,0-.1-.53c-.19-.12-.35.33-.29.8.1.81.17,1,.36,1s.17-.08.1-.4A4,4,0,0,1,52,41Zm-9.49,7c.32.27.58.44.58.38s-.6-.75-1.15-1.11c-.35-.23-.5-.28-.61-.18s0,.18.23.28A4.76,4.76,0,0,1,42.48,47.94Zm13.08-6.62c-.26.29-.33.8-.13.87s.24-.14.35-.41C56,41.26,55.86,41,55.56,41.32Zm-4.89-.93a.52.52,0,0,0-.1.51c.1.39.25.42.42.09C51.26,40.49,51,40,50.67,40.39Zm23.47-7c.12.12.91.1.91,0s-.2-.13-.45-.16C74.18,33.1,74,33.18,74.14,33.34Zm-30.71,22s-.59-.5-1.23-1.11c-1.07-1-1.49-1.31-1.49-1,0,.06.21.25.47.41a6.6,6.6,0,0,1,1.58,1.62c.11.18.28.32.36.32a1.74,1.74,0,0,1,.57.44c.36.37.86.58.86.35A5.84,5.84,0,0,0,43.43,55.36Zm29.76,2.51c0,.23.39.07.49-.2s0-.82-.13-.82A2.26,2.26,0,0,0,73.19,57.87Zm.93-25.06c0-.06,0-.14.15-.19s.2-.09,0-.24A.47.47,0,0,1,74.1,32c0-.19-.07-.25-.39-.28s-.45-.12-.6-.46-.34-.54-.48-.31a3.59,3.59,0,0,0,.9,1.69C73.83,32.91,74.27,33.05,74.12,32.81Zm-2.3,23.86a5.61,5.61,0,0,0,.53,1l.19-.07c.24-.1.18-.47-.14-.77S71.82,56.51,71.82,56.67ZM46.1,41.17a3,3,0,0,1-.93-.44,1,1,0,0,0-.45-.24c-.26,0-.2.12.13.24s.29.18.24.37,0,.26.29.33a3.83,3.83,0,0,1,1.44.75c.4.33.58.37.58.12S46.76,41.36,46.1,41.17Zm-1.24.91c-.86,0-.93.34-.09.46a6.76,6.76,0,0,1,.81.14c.15,0,.21,0,.21-.19S45.48,42.08,44.86,42.08ZM42.51,56a2.66,2.66,0,0,1-.88-.55c-.68-.59-.84-.67-.78-.4A8.47,8.47,0,0,0,43,56.85a.61.61,0,0,1,.37.15c.12.11.15.11.15,0S42.79,56,42.51,56Zm5.13-14.92a.52.52,0,0,0,.08-.44,8.49,8.49,0,0,0-1.82-1.74c-.24,0-.09.5.17.61a3.46,3.46,0,0,1,.77.58c.41.38.46.48.28.52a1.74,1.74,0,0,1-.79-.34,3.2,3.2,0,0,0-.69-.38c-.25,0,.37.77.83,1.05a3.15,3.15,0,0,1,.74.55c.23.25.57.35.57.16a.43.43,0,0,0-.15-.24C47.52,41.28,47.52,41.2,47.64,41.06ZM41.36,52c-.22-.21-.44-.35-.48-.31s1.51,1.92,2.4,2.54c.44.31.45.31.57.19a.31.31,0,0,0,.08-.22,2.56,2.56,0,0,0-1.1-1.06C42.64,53.13,42.17,52.77,41.36,52Zm.21-2.58c-.21,0-.12.36.11.43a3.6,3.6,0,0,1,.81.75c.58.67.95.86.95.5A7.53,7.53,0,0,0,41.57,49.41Zm1.11,2.74A5.75,5.75,0,0,0,44,53.38s.08-.08.08-.17A23.3,23.3,0,0,0,41,50c-.25,0-.12.2.7,1A9.6,9.6,0,0,1,42.68,52.15Zm-.9-3.75c-.63-.32-.55,0,.13.42a3.72,3.72,0,0,1,.84.84c.38.55.5.6.61.29S42.5,48.77,41.78,48.4ZM9.72,45.7a1.28,1.28,0,0,0,.24-.47c0-.3-.37-.15-.62.25s-.25.53-.19,1.28a9.13,9.13,0,0,0,.32,1.67c.29.93.28.89.13.8a7.74,7.74,0,0,1-1.18-3.41A3.31,3.31,0,0,1,9.52,44c.19-.11.35-.26.35-.32,0-.25-.43-.2-.88.1a2.74,2.74,0,0,0-1,2.32,10.15,10.15,0,0,0,1.8,4.11,4.35,4.35,0,0,1,.5.77,7.18,7.18,0,0,0,.57,1c.46.74.56,1,.52,1.35s0,.43.11.43.16-.15.16-.38a1.73,1.73,0,0,0-.18-.71C11.15,52,10.22,50,10,49.41,9.43,47.78,9.3,46.23,9.72,45.7ZM31.18,59.83c-.27,0-.14.29.32.71a3.19,3.19,0,0,1,.59.69.6.6,0,0,0,.5.31l.37,0-.25-.28A7.64,7.64,0,0,0,31.18,59.83ZM9,50.87a1.82,1.82,0,0,0,.34.49,6.83,6.83,0,0,1,1.17,1.83l.34.75v-.46c0-.37-.15-.66-.83-1.58S9,50.62,9,50.87ZM30.44,39.39l0,.42.1-.46a1.31,1.31,0,0,1,.4-.7,1.33,1.33,0,0,0,.38-.57c.07-.29.05-.34-.14-.3S30.39,38.88,30.44,39.39Zm6.63-2.73a2.91,2.91,0,0,0-.82.51c0,.12,0,.12.91-.16s1.06-.42.86-.62S37.65,36.38,37.07,36.66ZM7.27,47.29A4,4,0,0,1,7.68,45c.19-.22.24-.52.1-.66s-.53.32-.73,1c-.11.35-.23.72-.26.83s-.09.13-.21-.07a7.43,7.43,0,0,1,.09-3.2c.4-1,.14-1.32-.32-.42a3.34,3.34,0,0,0-.27,1.77,5.09,5.09,0,0,0,.34,2.23,6.75,6.75,0,0,0,.52,1.18.76.76,0,0,1,.18.28,8.77,8.77,0,0,0,.52,1c.3.5.6,1.06.68,1.24.17.39.41.46.41.13a2.28,2.28,0,0,0-.38-.78A8.31,8.31,0,0,1,7.27,47.29ZM32.4,60.17a2,2,0,0,0,1.13,1.14c.24,0,.25,0,.1-.21C32.65,59.84,32.4,59.66,32.4,60.17ZM32,38a1.2,1.2,0,0,0,0,.56s.07,0,.07-.11a2.59,2.59,0,0,1,.5-.78c.51-.62.57-.75.38-.87S32.05,37.54,32,38Zm4.85-1.84c0-.2-.08-.23-.48-.2a4.39,4.39,0,0,0-.9.22c-.3.13-.5.15-.65.06s-.31,0-.62.28a1.74,1.74,0,0,0-.39.52.81.81,0,0,1-.2.32.67.67,0,0,0-.14.51c0,.15.06.19.07.08a1.56,1.56,0,0,1,1-.85,1.38,1.38,0,0,0,.52-.15,6.5,6.5,0,0,1,1-.35C36.64,36.48,36.81,36.38,36.81,36.2ZM26.08,39.9c0,.45.48.22,1-.47s.57-1,.25-1A4.37,4.37,0,0,0,26.08,39.9Zm89.1-16c.09.25-.6.43-1.33.34s-1.22-.13-3.67-.25a5.24,5.24,0,0,0-2,.08c-.28.13-.37.12-.54-.06s-.19-.27-.07-.58.12-.37-.19-.45l-1-.24c-.55-.14-.71-.14-.81,0a.36.36,0,0,1-.33.12c-.39-.08-.35.2.08.47a1.29,1.29,0,0,1,.61.84c.1.32.25.76.34,1s.12.48-.07,1a5.93,5.93,0,0,0-.25,1.52c0,.88,0,1-.4,1.28a2.77,2.77,0,0,1-.54.39c-.11,0-.19.47-.26,1.35a15.34,15.34,0,0,1-.34,2.22,8.57,8.57,0,0,0-.26,1.16,8,8,0,0,1-1,2.11.9.9,0,0,0-.21.44,5.53,5.53,0,0,1-2,2c-.36.23-1.32.75-2.14,1.15a12.61,12.61,0,0,0-3.07,1.88c-.21.23-.2.27.15.94.43.86.59,1.63.37,1.89s-.62.16-1.46-.09c-.34-.11-.47-.25-.7-.77a6.21,6.21,0,0,1-.37-1.5A2.31,2.31,0,0,0,93.54,41c-.12-.1-.57-.6-1-1.1s-1-1.11-1.3-1.36c-1.24-1.1-3.08-2.92-4.1-4s-3.26-3.41-3.34-3.41a1.39,1.39,0,0,0-.25.43,1,1,0,0,1-.37.51c-.23.09-.24.28,0,.53a25.87,25.87,0,0,1,1.3,4c.28,1.11.22,1.87-.17,2.3-.21.23-.21.29,0,1.11a3.21,3.21,0,0,1-.13,2.28c-.15.3-.15.37,0,.55a2.62,2.62,0,0,1,.26,1,16.11,16.11,0,0,0,.32,1.76,10.66,10.66,0,0,1,.2,3.26,21.61,21.61,0,0,1-.13,2.55c-.09.21,0,.22.63.14.4,0,1.48-.09,2.4-.1a7.1,7.1,0,0,0,2.73-.38,14.45,14.45,0,0,0,1.82-.77,5,5,0,0,1,3-.81l1,0,1.26,1.2a10.47,10.47,0,0,1,1.43,1.58,5.14,5.14,0,0,1-.16,2.91,11.06,11.06,0,0,0-.37,1.63l-.06.68,1,.66a3.33,3.33,0,0,1,1.75,2.51,15.25,15.25,0,0,0,1.22,2.89,33.31,33.31,0,0,0,2.92,4.91c1.79,2.62,2.11,3.17,2.29,3.9l.16.7-.59,1.14c-.76,1.45-.82,1.66-.68,2.59A2.75,2.75,0,0,1,106,79.2,3.89,3.89,0,0,0,105,81a2.72,2.72,0,0,1-.83,1.87,2.09,2.09,0,0,1-.78.6c-.42,0-1.64-1.39-2.23-2.55a7.12,7.12,0,0,1-.55-1.67,8.41,8.41,0,0,0-.3-1.26,2.36,2.36,0,0,1,.68-2.14c1.18-1,1.54-1.4,1.54-1.72s-.24-.42-.68-.13a1,1,0,0,1-.59.15c-.25,0-.28-.09-.24-.58a1.15,1.15,0,0,0-.14-.74,1.78,1.78,0,0,1-.19-.82c0-.45-.09-.68-.26-.82s-.34-.66-.21-1.74a2.58,2.58,0,0,0-.28-1.75c-.5-1.26-1.64-2.91-1.89-2.75a.43.43,0,0,0-.11.32,3,3,0,0,1-.79,1A4.15,4.15,0,0,0,96.06,68a3.69,3.69,0,0,1-2.47,2.38,3.33,3.33,0,0,1-1,.19,2.74,2.74,0,0,1-.38-.65c-.26-.53-.28-.75-.28-2.75s0-2.22.28-2.77c.15-.34.28-.64.28-.67a6.56,6.56,0,0,0-2.11.27,16.16,16.16,0,0,1-6.64.69c-.59-.13-1.63-.29-3-.45a4,4,0,0,0-1.38.13,6.15,6.15,0,0,1-1.07.2c-.34,0-1.33-.67-1.33-.9s-.59-.84-.83-.84a8.75,8.75,0,0,0-1.28.35,14.27,14.27,0,0,1-2.17.51c-.61.08-1.74.26-2.51.39a18.38,18.38,0,0,1-3.91.23,25.48,25.48,0,0,1-3.12-.15A11,11,0,0,0,61.85,64a13.77,13.77,0,0,1-1.93-.3c-.65-.15-1.37-.29-1.61-.33a3.05,3.05,0,0,1-.68-.17c-.14-.06-.75-.26-1.36-.43a16.38,16.38,0,0,1-2.92-1.07,5.94,5.94,0,0,0-1.05-.35,6.92,6.92,0,0,1-1.36-.5,18.23,18.23,0,0,0-2.82-1.12,2.36,2.36,0,0,1-.7-.36c-.62-.41-.73-.4-1.07.12a5.88,5.88,0,0,1-1.18,1c-.51.34-1.37.92-1.92,1.31-1.74,1.21-2.55,1.48-5.58,1.85l-2.35.3a4.25,4.25,0,0,1-1,.06,12.24,12.24,0,0,0-2.62.52c-.32.1-.59.26-.59.34a11.44,11.44,0,0,0,1.35,2,6.8,6.8,0,0,1,.43.54,19.19,19.19,0,0,0,3.51,2.2,25.82,25.82,0,0,1,2.4,1.53s.11.32.23.68c.2.61.28.69,1,1.08a12.21,12.21,0,0,1,4.69,4.41c.26.44.26.46,0,.83s-.42.43-1,.63a2.81,2.81,0,0,1-1.65.15,9.57,9.57,0,0,1-4-1.42,7.32,7.32,0,0,0-.81-.58s-.06.16-.06.34c0,.37.12.59,1,1.78a8.19,8.19,0,0,1,.83,1.32,7.26,7.26,0,0,1,.59,2.71l0,.59-.66.15a2.9,2.9,0,0,0-.74.23.3.3,0,0,1-.27,0,5.74,5.74,0,0,0-.69-.17,10.69,10.69,0,0,1-1.72-.65,5.78,5.78,0,0,1-2-1.33,6.9,6.9,0,0,1-1.08-1.37,1.74,1.74,0,0,1-.19-1.31,8.21,8.21,0,0,1,.18-1c.07-.22,0-.28-.14-.29-.74,0-.73,0-.77-.54s-.2-.81-.53-.81c-.15,0-.25-.13-.3-.4s-.17-.7-.27-1.06c-.18-.65-.2-.66-.6-.63a1.23,1.23,0,0,1-.48,0,15.41,15.41,0,0,1-.31-1.58,7.93,7.93,0,0,0-1-3,3.49,3.49,0,0,1-.48-.6,5.66,5.66,0,0,0-.8-.87c-.23-.18-.67-.56-1-.84s-.87-.77-1.25-1.09A5.21,5.21,0,0,1,22.66,64a2.34,2.34,0,0,1-.17-1.78l.16-.85-.7-.76a2.84,2.84,0,0,1-.7-1,1.85,1.85,0,0,1,.4-.76c.22-.28.57-.75.76-1a3.57,3.57,0,0,1,2.2-1.39c.62-.09.72-.17,1.66-1.15a9.42,9.42,0,0,1,1.64-1.41,2.69,2.69,0,0,0,.65-.43,3.85,3.85,0,0,0-.44-.55,4.74,4.74,0,0,1-.7-1,15.64,15.64,0,0,1-.93-2.54,3.56,3.56,0,0,0-.22-.68,12,12,0,0,1-.54-2.74,8.86,8.86,0,0,0-.22-1.8s-.28,0-.57,0a22.47,22.47,0,0,1-2.27.22c-1,.06-2.28.17-3,.24a16.93,16.93,0,0,1-3,0c-2.11-.13-2.79-.05-3.65.42a1.42,1.42,0,0,0-.85.89,2.08,2.08,0,0,0,.16,1.84,13.37,13.37,0,0,0,1.76,2.53A2.28,2.28,0,0,1,15,52.45a4.6,4.6,0,0,1-1.06,2.33c-.32.49-.93.77-1.2.55-.11-.08-.26,0-.47.09a.6.6,0,0,1-.45.12.15.15,0,0,0-.21,0A7.77,7.77,0,0,1,10,56.73a1.13,1.13,0,0,0-.48.32,3.3,3.3,0,0,1-2.27.88c-.9.07-1,0-1.11-.22s-.12-.31.07-.45a.86.86,0,0,1,.37-.16,3.38,3.38,0,0,0,.82-.66c1.21-1.16,1.26-2.29.17-3.94a23.2,23.2,0,0,0-4.39-4.3A12.94,12.94,0,0,1,.88,45.45a7.47,7.47,0,0,1-.17-6.7c.44-1,1.37-1.86,1.93-1.86a1.75,1.75,0,0,0,.67-.21,9.21,9.21,0,0,1,4,0,16.94,16.94,0,0,1,4.11,1.62c4.45,2.7,8.15,3.51,10.93,2.41a8.85,8.85,0,0,0,3.48-2.36,16.55,16.55,0,0,1,2-1.67c.32-.18.94-.58,1.37-.88,1.56-1.08,2.67-1.5,5.6-2.1a14.06,14.06,0,0,1,4.81.15,24.9,24.9,0,0,1,4.58,1.67,16.73,16.73,0,0,1,2.16,1.27l1.14.91c.28.21.73.59,1,.83a1.54,1.54,0,0,0,.82.45,11.41,11.41,0,0,1,1.51.3c.65.17,1.46.34,1.78.39s1.38.24,2.33.45,2.1.41,2.54.47c1.24.16,2.44.37,3.66.63a19.24,19.24,0,0,0,4.4.51c.4-.09.43-.13.4-.49a5.88,5.88,0,0,1,1.21-2.8,2.39,2.39,0,0,0,.5-.78,1,1,0,0,1,.3-.48l.3-.3-.3-.59c-.15-.33-.52-1.1-.81-1.71s-.62-1.25-.73-1.43a8.8,8.8,0,0,1-.73-2.26,6.94,6.94,0,0,1-.14-1.36v-.78l-.79-.68A5.23,5.23,0,0,1,63.23,26l-.7-1.39-.52.19a7.42,7.42,0,0,1-3,.05c-.2-.07-.62-.19-.93-.26a20.89,20.89,0,0,1-3.47-1.42,2.6,2.6,0,0,0-.82-.31c-.34,0-1.07-.7-1.33-1.23-.8-1.73-1.05-3.07-.67-3.65a8.1,8.1,0,0,1,2.44-1.32,2.43,2.43,0,0,0,.64-.28L56,15.73a12.25,12.25,0,0,1,3.26-1,25.59,25.59,0,0,1,2.65-.17,20.48,20.48,0,0,0,2.2-.13c0-.05-.07-.35-.78-1.8a3.45,3.45,0,0,1-.24-.83,2.3,2.3,0,0,0-.49-1,5.92,5.92,0,0,1-.55-.75,2.09,2.09,0,0,1,.11-1.71,1.75,1.75,0,0,0,.17-1.05,4.28,4.28,0,0,1,1.1-3,4.37,4.37,0,0,0,.76-1.46c.1-.34.35-.55,1.21-1A7.58,7.58,0,0,0,67.11.72c.41-.39.61-.46,1.87-.63a5.79,5.79,0,0,1,1.65,0,6,6,0,0,0,1.6,0,2.82,2.82,0,0,1,1.55.08c.29.11.52.25.52.3a1.4,1.4,0,0,0,.31.43c.38.41.39.62.06,1.24a1.71,1.71,0,0,0-.22.5l.38.19c.19.09.34.24.34.33s.13.25.3.36a2.26,2.26,0,0,1,1,1.7,3,3,0,0,0,1,2.4c1,1.14,1.27,1.5,1.34,2s0,.48-.38.63-.57.35-.14.75.37.86-.23,1.14l-.47.23.27.36c.14.21.3.37.35.37a1.78,1.78,0,0,1,.43.62l.34.61,1.2-.61c.66-.33,2-1,3.07-1.48s2.11-1,2.41-1.18.85-.4,1.19-.54,1.28-.55,2-.93C90.7,8.69,92.16,8,92.22,8s.74-.33,1.57-.74a9.27,9.27,0,0,1,1.84-.75c.28,0,.31,0,.34-.56a2.39,2.39,0,0,1,1.28-2c.64-.43.86-.51,1.28-.48l.5,0,0,.59a3.14,3.14,0,0,1-.69,2.09c-.5.55-.13,1,1.17,1.3a13.5,13.5,0,0,1,6.31,4.44,6.35,6.35,0,0,1,1,3.85,5.51,5.51,0,0,1-.4,2.53,9.11,9.11,0,0,0-.39,1.24,1.35,1.35,0,0,1-.17.52,4.1,4.1,0,0,0-.25,1.09c-.09.71-.08.76.2.86a6.43,6.43,0,0,0,1,.19,14.16,14.16,0,0,1,1.4.22c.66.15,1,.06.62-.16s-1-.76-.89-.87.23-.09.42,0,.38,0,.44-.06.36-.1,2.16.77c.86.41,2.14.95,2.85,1.2A5.16,5.16,0,0,1,115.18,23.85Zm-101,28.2c0,.12.05.21.12.21s.11-.23.11-.52c0-.45,0-.48-.11-.22A2.6,2.6,0,0,0,14.19,52.05ZM97,5.59c.65.33.92.25,1.22-.37a2.8,2.8,0,0,0,.28-.82c0-.21-.06-.25-.31-.18A2.36,2.36,0,0,0,97,4.83C96.52,5.23,96.53,5.36,97,5.59Zm0,1.33c-.19,0-.33.09-.32.16,0,.24.66.17.66-.08C97.36,6.93,97.21,6.9,97,6.92Zm-.53-.7a.19.19,0,0,0,.19.18c.1,0,.18-.05.18-.11s-.08-.14-.18-.18S96.49,6.11,96.49,6.22Zm-19,10.32a1.75,1.75,0,0,0-.64.35,2.27,2.27,0,0,0,1,.34,6.73,6.73,0,0,1,2.33.83,4.08,4.08,0,0,0,1.11.34c.77.13,1.54.28,3.72.71.52.1,1.52.27,2.23.37L90,19.9c.82.14,1.91.31,2.42.37,2.49.32,4.8.63,5,.69s.9.12,1.68.19l1.78.18,1.13.13.75.09.16-.6c.09-.33.33-1.11.53-1.72a7.71,7.71,0,0,0,.59-3.41,3.71,3.71,0,0,0-.45-2.23,8.44,8.44,0,0,0-3.55-3.47c-2.28-1.15-3.8-2.24-4-2.84,0-.17-.15-.22-.29-.18-.69.25-2.7,1.17-5.14,2.37-1.14.56-2.11,1-2.14,1-.19,0-4.75,2.14-7.74,3.64-1.58.79-1.81.95-1.93,1.29S78.25,16.23,77.46,16.54Zm26.53,5a.4.4,0,0,0-.32-.12c-.13,0-.24.05-.24.12s.15.13.32.13S104,21.59,104,21.52Zm.06,1c.25.16.5.16.5,0s-.15-.12-.34-.12S103.91,22.42,104.05,22.51Zm-1.78.27c-.2,0-.39.11-.42.2s.23.19.53-.05S102.61,22.75,102.27,22.78Zm-1.53-.12c-.6-.07-2.9-.49-4.41-.82a26.52,26.52,0,0,0-4-.63A15.31,15.31,0,0,1,90.73,21a33.2,33.2,0,0,0-4.5-.45c0,.05.11.24.34.42a9,9,0,0,1,1.62,1.62,5.63,5.63,0,0,0,1,.95c.19.1.34.26.34.36,0,.27.14.21.61-.26a2.18,2.18,0,0,1,.85-.5,20.87,20.87,0,0,1,5.3.42,8.42,8.42,0,0,0,2.75.29c1-.08,1-.08,1.53-.63l.5-.56ZM82,19.17c-.24-.16-.37-.16-.37,0s.12.12.28.12S82.14,19.26,82,19.17ZM72.48.67c0,.08,0,.15.12.15a3.18,3.18,0,0,1,.78.31c.82.41.81.41.8-.15,0-.06-.1-.1-.22-.1a1.14,1.14,0,0,1-.47-.14C73.12.52,72.54.49,72.48.67Zm-.68.62c.24,0,.4.11.4.21a1.31,1.31,0,0,0,.4.55c.45.43.48.44.69.23a.42.42,0,0,0-.07-.67A3.69,3.69,0,0,0,71.52.9C71.2,1,71.37,1.25,71.8,1.29ZM65.07,2.8c-.1.16.08.15.25,0a3.68,3.68,0,0,1,.37-.31c.21-.16.19-.16-.15,0A1.37,1.37,0,0,0,65.07,2.8Zm0,6.33c.17,0,.11.34-.16.79a.82.82,0,0,0-.1.91,2.82,2.82,0,0,0,.37.7c.21.22.21.22.3-.07s.43-.74.57-.65,0,.23-.07.42a1.9,1.9,0,0,0-.19.77v.41l-.25-.3C65.1,11.64,65,12,65,13.53a17.91,17.91,0,0,1-.07,1.82c-.06.31,0,.47,0,.47s.14-.17.14-.38a1.59,1.59,0,0,1,.14-.64,4.35,4.35,0,0,0,.15-1.2c0-.88,0-.94.3-1s.28,0,.28.71a1.76,1.76,0,0,0,.12.82c.08,0,.09-.14,0-.49-.07-.51-.06-.57.16-.57.39,0,.42-.12.15-.64s-.24-.84.06-.84.33.26.33.72a.87.87,0,0,0,.1.46A1.89,1.89,0,0,1,67.28,14c-.08.32-.29.4-.29.11,0-.11-.06-.19-.14-.19s-.1.09-.06.2a1.12,1.12,0,0,1,.08.3c0,.06.09.12.21.14s.24.14.28,1.5a7.72,7.72,0,0,1-.79,2.76c-.26.49-.25.64,0,.39s.63-.27.73,0c.16.42.29.14.27-.6a1.62,1.62,0,0,1,.23-1.15,2.19,2.19,0,0,0,.33-1.56,2.42,2.42,0,0,1-.34-1.11c.27-.45.64.35.75,1.66a1.47,1.47,0,0,1-.21,1.14,1.68,1.68,0,0,0-.24,1c0,.82,0,.83-.33,1.27s-.25.73.22.34a2.81,2.81,0,0,0,1-1.87c.08-.68.27-1,.5-.87a2,2,0,0,1,.1.83,1.91,1.91,0,0,1-.25,1.14q-.45.68,0,.45a1.18,1.18,0,0,0,.34-.6c.1-.36.21-.48.44-.52.42,0,.6-.24.37-.38s-.19-.37-.2-.9-.05-.92-.07-1.09c0-.37.36-.51.59-.19s.29.09.27-.58a1.44,1.44,0,0,1,.14-.76c.19-.23,0-.91-.38-1.46a1.46,1.46,0,0,1-.23-.5c0-.23-.33-.8-.42-.74-.42.24-1.07-1.08-1.11-2.23A1.36,1.36,0,0,0,69,9.37c-.1,0-.34.5-.38.8s-.32.36-.42-.06a.82.82,0,0,1,.19-.76c.26-.35.26-.37,0-.54s-.49-.23-.59-.06a.28.28,0,0,1-.2.13c-.18,0-.14-.41.08-.73a.93.93,0,0,0,.14-.71,1.1,1.1,0,0,1,.88-1.19c.63-.07.34-.29-.45-.32s-.78-.07-.74-.25.2-.21,1.12-.21H69.7l-.55-.35c-.52-.34-.68-.61-.45-.75.06,0,.39.13.74.36a4,4,0,0,0,.72.43,2.71,2.71,0,0,1,1,.84c0,.21-.22.19-.83-.09-.29-.13-.53-.19-.53-.13A.27.27,0,0,0,70,6a.23.23,0,0,1-.13.44c-.26,0-.26,0,0,.23a1,1,0,0,0,.83.17c.49-.06.54,0,.5.17a.37.37,0,0,1-.32.27c-.34,0-.36.35,0,.46a.91.91,0,0,1,.4.36l.44.8.28.51-.25.22a.68.68,0,0,0-.25.42.33.33,0,0,1-.18.28c-.38.14,0,1.14.71,1.84a1.12,1.12,0,0,1,.34.65,2.44,2.44,0,0,0,.18.76,2.47,2.47,0,0,1,.19.82c0,.31,0,.35.18.22s.44-.07.44.19c0,.1.11.18.26.18a1,1,0,0,1,.55.33c.17.18.32.31.34.28l.17-.3c.15-.28.54-.4.54-.17a.82.82,0,0,1-.2.38c-.2.21-.19.23.1.23a1.3,1.3,0,0,0,.71-.39c.46-.43.64-.4.33.07-.11.17-.19.32-.17.33l.5,0c.41,0,.5,0,.84-.44S78,14.67,78,15a1.72,1.72,0,0,1-.46.61c-.57.6-.48.71.19.23.46-.33.52-.43.52-.87a2.82,2.82,0,0,0-.17-.9c-.24-.56-.87-1.13-1.17-1.05s-.59-.09-.35-.46a1.25,1.25,0,0,1,.4-.4.26.26,0,0,0,.17-.22c0-.08.16-.22.34-.31s.33-.16.11-.32-.35-.12-1.48,1c-.59.59-.7.63-.7.28a1.45,1.45,0,0,1,.75-1.16c.27-.19.49-.39.49-.46s-.27-.29-.62-.3-.33-.09-.43-.48a1,1,0,0,1,0-.68c.21-.33.46-.24.57.2s.21.48.41.28a2.19,2.19,0,0,1,.68-.22c.91-.17.83-.58-.37-1.89a5.25,5.25,0,0,1-.7-1c-.17-.32-.37-.57-.46-.54s-.2.73,0,1,.17.24,0,.39a2.43,2.43,0,0,1-2.09-.41.48.48,0,0,1-.14-.53c.08-.4,0-.45-.4-.18s-.51.24-.59,0,.09-.46.41-.48a1.94,1.94,0,0,0,.79-.53,4.94,4.94,0,0,1,.78-.66,1,1,0,0,1,1.21.13c.16.23.2.24.26.06s-.43-1.2-.74-1.21c-.14,0-.19,0-.1-.07.27-.11.16-.32-.13-.27s-.45-.08-.84-.41-.56-.46-.79-.29-.48.29-.76.44c-.45.23-.55.24-.81.1a4.47,4.47,0,0,0-1.34-.48c-.3,0,.06.28.39.31s.48.43.18.43a4.8,4.8,0,0,1-.88-.26c-.68-.26-.93-.61-.44-.61.13,0,.24-.08.24-.17s.17-.17.9-.11a3.45,3.45,0,0,1,1.19.25c.46.28.48.07,0-.37a3.19,3.19,0,0,0-3.26-.46,2.24,2.24,0,0,1-.79.24c-.32,0-.32,0,.23-.55a1.3,1.3,0,0,1,1.32-.56c.53,0,.76-.05.76-.16s-.25-.15-1-.12c-1.41,0-1.58.1-1.58.46a.63.63,0,0,1-.31.51c-.23.16-.29.27-.23.5s0,.32-.4.49L66,3.06l-.31.13.29.15c.36.18.37.35,0,.53a3.62,3.62,0,0,0-.62.47,1.14,1.14,0,0,1-.49.32,1.16,1.16,0,0,0-.46.21c-.22.14-.27.24-.18.35s0,.53-.29.63-.95.67-.95.88.12.21.36,0A7.42,7.42,0,0,1,64,6.29c.69-.42.61,0-.09.45-.3.22-.55.48-.55.57a.54.54,0,0,1-.19.33c-.27.22-.23.41.06.33s.36.21.12.35-.51.81-.37.81.22-.2.34-.44.27-.43.35-.43a2.36,2.36,0,0,0,.8-1.08,1.72,1.72,0,0,1,.79-.66c.17,0,.06.37-.13.48a1.42,1.42,0,0,0-.4.53,1.24,1.24,0,0,1-.49.54c-.25.11-.28.19-.23.59a.78.78,0,0,1,0,.54,2.18,2.18,0,0,0-.52,1.09c.14.14.27.08.35-.18A3,3,0,0,1,65,9.13ZM75.24,5.41c-.14-.12-.26-.1-.54.06a1.86,1.86,0,0,0-.5.45c-.18.28-.19.28.94,0C75.46,5.89,75.5,5.63,75.24,5.41ZM76,16.69a.5.5,0,0,0-.34.18c-.13.16-.12.19,0,.19a.52.52,0,0,0,.34-.19C76.16,16.72,76.16,16.69,76,16.69Zm-3.22-1.12c-.12,0-.22.08-.22.16s.35.7.38.59a3.6,3.6,0,0,0,0-.41C73,15.66,73,15.57,72.79,15.57Zm-2.1-6.94a.54.54,0,0,0,.39-.19c.13-.15.08-.18-.39-.16a1.65,1.65,0,0,0-.7.14c-.26.21-.77-.1-.77-.47s.07-.31.25-.31.25-.06.25-.13a.13.13,0,0,0-.12-.12,1.54,1.54,0,0,1-.49-.32c-.31-.26-.42-.29-.63-.18s-.31.45-.17,1a1.76,1.76,0,0,0,.77.67,4.72,4.72,0,0,1,.91.65c.22.28.2.3.4-.36A.32.32,0,0,1,70.69,8.63Zm-.06,2.57a.42.42,0,0,0,0,.31c0,.09.06,0,.06-.15S70.66,11.12,70.63,11.2Zm-.76-.84c-.32,0-.32,0-.15.64.22.79.43.8.43,0S70.13,10.36,69.87,10.36Zm1,2.36c0,.07.11.12.14.12s0-.05,0-.12A.12.12,0,0,0,71,12.6C70.88,12.6,70.85,12.65,70.89,12.72Zm.28-2.88c.22.07.19-.2,0-.43s-.19-.17-.15.09A.45.45,0,0,0,71.17,9.84Zm-1.7,11.37a.88.88,0,0,1-.51.19c-.48,0-.66.17-.49.48a1.07,1.07,0,0,0,.17.26A3.55,3.55,0,0,0,70,21.38C70.08,21.09,69.73,21,69.47,21.21Zm-3-3.72.2-.48c.36-.84.17-1.34-.22-.59a.94.94,0,0,0-.08.71Zm-.15-2.74-.08-.35-.24.31a1.23,1.23,0,0,0-.24.64,2.1,2.1,0,0,1-.14.65.59.59,0,0,0,0,.59c.13.28.13.28.14,0a.64.64,0,0,1,.2-.42A1.89,1.89,0,0,0,66.31,14.75ZM65,17.31c-.24,0-.26,0-.18.51a2.89,2.89,0,0,0,.14.62c.12.19.31.11.44-.18S65.34,17.31,65,17.31ZM63.21,15l.39.33c.42.35.6.4.73.19s-.1-.36-.64-.45Zm-1,0s.09.22.29.39l.65.55c.33.29.41.3.32.06S62.28,14.91,62.18,15Zm-2.32.06a6.53,6.53,0,0,0,1.67,1.74c.26,0,.11-.27-.44-.8s-.65-.93,0-.61a5.6,5.6,0,0,1,1,.81c.57.58.82.72.82.5a3,3,0,0,0-1.13-1.31c-.2-.07-.36-.2-.36-.29S60,14.88,59.86,15.07Zm-2.48.62a4.47,4.47,0,0,0,1,1,7.44,7.44,0,0,1,1,1c0,.15.34.14.43,0s-.3-.72-.92-1.28c-.46-.42-.66-.83-.4-.83A5.65,5.65,0,0,1,60,16.73c.68.71.86.56.31-.25-.83-1.23-1.26-1.43-2.29-1.1A3,3,0,0,0,57.38,15.69Zm-.19,1.13c1.14.78,1.12.77,1.12.6a1.62,1.62,0,0,0-.37-.57,1.92,1.92,0,0,1-.37-.53c0-.06-.2-.17-.44-.25s-.48-.11-.62,0S56.47,16.32,57.19,16.82Zm-3.59,5a5.78,5.78,0,0,0-.69-1.51,1.43,1.43,0,0,0,.07.48C53.11,21.24,53.6,22.05,53.6,21.82Zm2.47.45c.14,0-.42-1-.67-1.25s-.22.18.19.73A1.74,1.74,0,0,0,56.07,22.27Zm1.25,1.39a3.59,3.59,0,0,0-.5-.65c-.28-.31-.44-.44-.37-.29a1.52,1.52,0,0,1,.13.53.46.46,0,0,0,.24.37C57.1,23.78,57.32,23.79,57.32,23.66ZM68.67,34.48c.37.17.67.4.67.5s-.28.23-.75,0-.42-.2-.22.24c.12.26.23.32.61.32.58,0,.86.1.86.32s-.41.34-.71.25-.22,0-.23.67c0,.86.16,1,.48.31a1.09,1.09,0,0,1,.43-.51c.43-.13.58-.26.69-.59s.06-.38-.12-.52-.19-.2-.08-.28.1-.21-.08-.57a5.3,5.3,0,0,0-.42-.68,7.07,7.07,0,0,1-.9-3.22c0-.45-.12-1.09-.18-1.42a6.15,6.15,0,0,1-.12-1.08c0-.27-.06-.49-.12-.49s-.13,0-.13.09c0,.27-.27.43-.79.49s-.57,0-.57-.25a.68.68,0,0,1,.24-.49,1.72,1.72,0,0,0,.45-.65,10.21,10.21,0,0,0,.18-3.65,6.11,6.11,0,0,1,0-1.39c.07-.55.11-.6.49-.67.54-.1.78-.37.43-.48a.93.93,0,0,0-.69.18c-.52.33-.85.25-1.05-.25s-.3-.46-.44-.24a.63.63,0,0,1-.75,0,2.33,2.33,0,0,1-.07-.74c0-.6,0-.61-.26-.43-.42.26-.77.05-1.12-.69L64,17.88l-.2.4c-.26.5-.63.54-.53,0,.16-.79.15-.84-.09-.84s-.28.16-.41.62c-.29,1-.74,1.07-.6.11s-.27-.62-.48.36c-.09.38-.28.44-.5.13s-.16-.17-.24.13-.13.33-.19.33-.26-.37-.18-.69,0-.3-.12-.3-.33.14-.58.86-.53.75-.59.29c0-.24-.08-.26-.35-.16-.56.22-.77.14-.39-.14.19-.14.34-.33.34-.42,0-.45-1.57-.61-3.18-.32-1.17.21-1.58-.08-.66-.47.46-.19.65-.39.37-.39s-.15-.34,0-.41a1.32,1.32,0,0,1,.66.23c.33.19.56.25.68.18s.09-.19-.25-.49-.76-.47-1-.19a3.22,3.22,0,0,1-.94.43c-1.44.44-2.41,1.05-2.41,1.52a.34.34,0,0,0,.18.3.39.39,0,0,1,.19.36c0,.34.19.5.29.24s.7,0,.7.32A6.2,6.2,0,0,0,55,22.45a4.79,4.79,0,0,0,.73.68s-.11-.26-.34-.58a7.4,7.4,0,0,1-1.21-2.43c.06-.31.29-.2.58.26s.41.49.51.09c0-.17.12-.31.17-.31a2.25,2.25,0,0,1,.48.68,13.7,13.7,0,0,0,1.86,2.42,3.76,3.76,0,0,1,.66.55,2.78,2.78,0,0,0,.71.56c.3,0,.2-.25-.3-.79a9.23,9.23,0,0,1-1.67-2.49c0-.3.32-.22.48.14.36.8,2.5,3.14,2.87,3.14.1,0,.06-.1-.11-.28a1.06,1.06,0,0,1-.27-.39,3.41,3.41,0,0,0-.49-.68c-.5-.6-.77-1.25-.52-1.25.08,0,.27.21.44.47.46.73,2.38,2.41,2,1.73a11.55,11.55,0,0,0-1.16-1.52.35.35,0,0,1-.12-.28c0-.13.35.14.92.72s.93.84.93.72-.51-.78-1-1.13c-.36-.24-.38-.31-.22-.57s.8-.05,1.42.49a2.51,2.51,0,0,0,.69.49,8.26,8.26,0,0,1,2.11,1.58c0,.31-.49.13-1.12-.41a2.5,2.5,0,0,0-.71-.49c-.18.17.77,1.18,1.66,1.77a7.49,7.49,0,0,1,1,.77c.07.23-.29.12-.84-.25s-.75-.45-.75-.32c0,.32.35.76.92,1.12.77.49.86.63.32.52-.21,0-.38,0-.38,0a3.05,3.05,0,0,0,.65.67c.47.42.64.66.65.9s.08.36.41.44.72.5.58.74-.41.1-.83-.08-.21.19.24.4a1.18,1.18,0,0,1,.5.37c.06.19-.41.22-.52,0s-.34-.11-.26.22a1.12,1.12,0,0,0,.85.85c.55.19.61.55.1.55s-.43,0-.27.4a.93.93,0,0,0,.63.46c.8.27.82.8,0,.65-.29-.06-.31,0-.16.14A3.66,3.66,0,0,0,68.67,34.48Zm-1.53,6c-.07.22.16.19.36-.05s.13-.19-.07-.15A.38.38,0,0,0,67.14,40.46ZM5.85,48.73a21.57,21.57,0,0,1-3.11-2.46A13,13,0,0,1,1.54,44c-.22-.59-.27-.27-.06.38.38,1.17,1.37,2.77,1.72,2.77a2,2,0,0,1,.6.54,8.37,8.37,0,0,0,1.25,1.12,7.46,7.46,0,0,0,.85.56l.26-.07C6.49,49.24,6.42,49.1,5.85,48.73ZM3.44,46.58c.7.69,1,.81.5.18a14.81,14.81,0,0,1-1.4-1.85c-.16-.26-.31-.44-.35-.41S2.89,46,3.44,46.58ZM7.49,51a.19.19,0,0,0-.2-.18c-.17,0-.18,0,0,.18s.17.19.2.19S7.49,51.07,7.49,51Zm.59.68a.38.38,0,0,0-.21-.22c-.1,0-.14,0-.11.11a.4.4,0,0,0,.22.22C8.07,51.78,8.11,51.73,8.08,51.64Zm5.05-.92c.4,1,.44,2.28.06,2.38-.14,0-.3.24-.38.51a3,3,0,0,1-.5.86A1.57,1.57,0,0,0,12,55c0,.17.27.14.63-.09a5.36,5.36,0,0,0,1.21-2.52,2.31,2.31,0,0,0-.59-2.28C12.81,49.75,12.79,49.91,13.13,50.72Zm-.56.5a4.31,4.31,0,0,0,.3.89c.14.14.07-.73-.1-1.14C12.46,50.24,12.35,50.39,12.57,51.22Zm-.5-1.87c-.15-.33-.23-.41-.23-.25a1.81,1.81,0,0,0,.23.68C12.38,50.34,12.38,50,12.07,49.35Zm1.45-5.89c-1.43,0-1.86.15-2.29.78A3.08,3.08,0,0,0,10.59,46a2.61,2.61,0,0,0,0,1.35,4.07,4.07,0,0,0,.38.85l.21.29-.08-.37a4.12,4.12,0,0,0-.21-.6,4,4,0,0,1,.24-2.06c.28-.93.51-1.28.82-1.2a.78.78,0,0,0,.53-.12,3.91,3.91,0,0,1,1.53-.26C16,43.76,15.54,43.46,13.52,43.46Zm-2.15,3.45a.28.28,0,0,0,0,.24s.07,0,.06-.16S11.41,46.81,11.37,46.91ZM24.27,42c-.45,0-.6.11-.62.46v.27l.26-.11a1.58,1.58,0,0,0,.49-.36C24.63,42,24.63,42,24.27,42Zm3.18,12.87a6.91,6.91,0,0,0,.88,1L29.54,57a3.54,3.54,0,0,0,.59.46,1.05,1.05,0,0,0,.88.06c.13,0,.13-.1,0-.24a.49.49,0,0,0-.29-.17A4.06,4.06,0,0,1,29.49,56c-.68-.77-1.52-1.39-1.8-1.3S27.45,54.8,27.45,54.85Zm1.68-.23s.05-.06.05-.12a.13.13,0,0,0-.13-.13c-.07,0-.1.06-.06.13S29.1,54.62,29.13,54.62Zm1.66,1.92a.53.53,0,0,0,.28.19c.07,0,.06-.09,0-.19a.5.5,0,0,0-.28-.19C30.69,56.35,30.71,56.44,30.79,56.54Zm-3.33.1c.36.36.85.81,1.08,1,.47.38.48.38.86.17l.28-.16-.47-.5a7.07,7.07,0,0,0-1.05-.91,2.25,2.25,0,0,1-.59-.51c0-.06-.11-.16-.25-.23s-.27-.09-.39.18S26.83,56,27.46,56.64Zm-1.25.09a4.14,4.14,0,0,0,.77,1c1,1,1.12,1.09,1.38.8s.27-.33-.29-.83C26.93,56.62,26.21,56.26,26.21,56.73Zm-1,.36A5.85,5.85,0,0,0,26.8,59c.45.36.82.44,1,.2s-.29-.5-2-2C25.36,56.79,25.21,56.77,25.21,57.09Zm-.43,1.53c.31.36.74.83.95,1.05.43.43.7.5.95.26s.17-.43-.32-.8a3.18,3.18,0,0,1-.58-.54,4.25,4.25,0,0,0-1.42-1.24C23.84,57.35,23.93,57.62,24.78,58.62Zm-.06,1.48c.19.24,1.11.46,1.11.27A5.8,5.8,0,0,0,24.36,59c-.07,0-.14-.09-.14-.19a.3.3,0,0,0-.18-.26.53.53,0,0,1-.25-.31.33.33,0,0,0-.26-.23C23.14,58,23.45,58.52,24.72,60.1ZM23,59.39l.87.77a2.19,2.19,0,0,0,.59.41c.25,0,.11-.25-.34-.58a6.48,6.48,0,0,1-.81-.75c-.34-.38-.71-.54-.71-.3A1.42,1.42,0,0,0,23,59.39Zm0,.67c-.19-.16-.2-.15,0,0a.86.86,0,0,0,.21.22C23.29,60.32,23.22,60.22,23,60.06Zm6.17,10c0-.14-.06-.22-.12-.18a.33.33,0,0,0-.13.26c0,.09.06.17.13.17S29.18,70.25,29.18,70.11Zm.13.5a.13.13,0,0,0-.14-.12c-.07,0-.09.05-.05.12s.1.13.13.13S29.31,70.68,29.31,70.61Zm2.91,5.08c-.25-.27-.38-.24-.27.06a.34.34,0,0,0,.28.19C32.43,75.94,32.42,75.92,32.22,75.69ZM34,80.61c0-.35-.15-1-.25-1s-.25.62-.11.87S34,80.86,34,80.61Zm.61-1c0-.17,0-.24-.07-.16a.54.54,0,0,0,0,.31C34.59,79.9,34.62,79.83,34.62,79.66Zm3.71-2.85a1.82,1.82,0,0,0-.26-.53c-.17-.29-.33-.51-.36-.49s-.19,0-.37-.08-.22,0,.3.49A6.9,6.9,0,0,0,38.33,76.81Zm3,1c0-.51-.35-1.12-.64-1.12s.05,1,.24,1.2S41.33,78.09,41.33,77.81Zm.87.2c0-.24-.33-.64-.41-.5a.62.62,0,0,0,0,.39C41.86,78.19,42.2,78.28,42.2,78ZM37.68,71.7a2.35,2.35,0,0,1-.77.51c-.94.33-1.28.53-1.28.77s.31.3.65,0,.66-.27.63,0a.18.18,0,0,0,.2.21c.23,0,.5.48.5.87,0,.2.06.23.36.17s.39,0,.44.08.17.07.36-.1a1.19,1.19,0,0,1,.57-.29c.35,0,.5.23.17.34a8.84,8.84,0,0,0-1.18.5,2.26,2.26,0,0,1-.86.17c-.64,0-.51.19.2.3.49.08,1-.1,1.89-.68.24-.15.3-.15.48,0s.18.21-.06.34-.24.18-.11.38a.34.34,0,0,0,.43.17c.16,0,.29,0,.29.06s.16.21.37.31.37.16.37,0a.19.19,0,0,1,.19-.18c.21,0,.64.85.75,1.51a4.8,4.8,0,0,0,.2.75c.1.28.2.35.52.34a3.17,3.17,0,0,0,1.29-.42,1.85,1.85,0,0,0-.33-.63,2.82,2.82,0,0,1-.39-.67,3.32,3.32,0,0,0-.62-.64c-.34-.3-.92-.84-1.29-1.2a6.29,6.29,0,0,0-1.72-1.15c-1.1-.51-1.33-.57-1.33-.37a.12.12,0,0,1-.12.13c-.07,0-.13-.22-.13-.49s-.05-.52-.12-.56a.82.82,0,0,1-.12-.51C38.11,71.27,38.05,71.25,37.68,71.7Zm-1.57,2.51c-.07,0-.09.05,0,.12s.1.12.13.12.06,0,.06-.12A.13.13,0,0,0,36.11,74.21Zm-.22-.5a.28.28,0,0,0-.2.12c0,.07,0,.13.05.13a.28.28,0,0,0,.2-.13C36,73.77,36,73.71,35.89,73.71ZM36,71.17c-.27.18-.46.39-.43.45s0,.15.61-.22c.38-.26.52-.3.7-.19s.61.07.61-.12a2.13,2.13,0,0,0-.9-.6c-.05,0-.1.07-.1.16S36.27,71,36,71.17Zm-1.07-.38a4,4,0,0,0-.72.33c-.07.07,0,.1.12.09a1.85,1.85,0,0,0,1.33-.55l.46-.42-.36-.18c-.46-.24-.63-.25-.32,0S35.6,70.54,34.93,70.79Zm-.39,1.1a.24.24,0,0,0-.24,0s0,.07.16.06S34.63,71.93,34.54,71.89ZM34,69.44a2.77,2.77,0,0,1-.87.2c-.52,0-.66.16-.44.42a.33.33,0,0,0,.61-.07c.11-.21.25-.25.67-.23s.82-.07.82-.26S34.35,69.25,34,69.44Zm-1.48-.57c-.13,0-.21.07-.18.15s.33.22.8,0,.66-.36.1-.28A5.15,5.15,0,0,1,32.49,68.87Zm-.09-.51c.17,0,.24,0,.16-.06a.42.42,0,0,0-.31,0C32.16,68.33,32.23,68.36,32.4,68.36Zm14.88-9.9a.12.12,0,0,0-.12-.12.25.25,0,0,0-.19.12c0,.07,0,.13.12.13S47.28,58.53,47.28,58.46Zm.47-.39c-.07-.19-.35-.29-.35-.13s.09.16.2.2S47.78,58.16,47.75,58.07Zm.33-1.86a5.07,5.07,0,0,0-.25-.78c-.09-.21-.2-.49-.25-.63-.18-.45-.21.42,0,1a1.41,1.41,0,0,0,.4.68C48.15,56.61,48.16,56.59,48.08,56.21ZM49,57.47c0-.07-.1-.12-.13-.12s0,0,0,.12a.13.13,0,0,0,.13.13C49,57.6,49,57.54,49,57.47Zm.37,1c-.33-.63-.43-.35-.1.33a1.79,1.79,0,0,0,.31.49C49.72,59.4,49.63,59,49.32,58.46Zm1.37,1.37a.28.28,0,0,0-.2-.13c-.07,0-.09.06-.05.13a.25.25,0,0,0,.2.12C50.71,60,50.73,59.9,50.69,59.83Zm2.85,1a.27.27,0,0,0-.2-.13c-.07,0-.09.06-.05.13a.25.25,0,0,0,.2.12C53.56,60.94,53.58,60.89,53.54,60.82ZM74,60.94c-.1,0-.18.06-.18.13a5.13,5.13,0,0,1-1,1.51c-.26.21-.26.24,0,.16.07,0,.33-.08.58-.12s.48-.15.65-.57C74.23,61.42,74.24,60.94,74,60.94Zm5.91-.6c-.17-.26-.29.18-.19.68a1,1,0,0,0,.18.49C80,61.59,80,60.56,79.9,60.34Zm-.09-.42s.07,0,.06-.17,0-.17-.07-.07A.25.25,0,0,0,79.81,59.92Zm10.63,3.29a.28.28,0,0,0-.24,0s0,.07.17.07S90.54,63.25,90.44,63.21Zm3,5.47c-.32.11-.49.25-.49.39,0,.35.22.33.68-.06S94.1,68.46,93.45,68.68Zm.89-1.13a4.72,4.72,0,0,0-1.5.48.14.14,0,0,0,0,.22c.07.07.39,0,.83-.27S94.37,67.58,94.34,67.55Zm-.93-1,.29-.25-.43,0c-.3,0-.45.1-.47.25S93.05,66.83,93.41,66.52ZM94.63,69c0-.07,0-.09-.12,0s-.12.1-.12.13,0,.05.12.05A.12.12,0,0,0,94.63,69Zm1.48-3s-.2-.31-.51-.6c-.69-.66-.89-1-.69-1.17s.23-.06.49.17c.63.52.79.38.33-.29-.23-.32-.42-.61-.43-.63a1.12,1.12,0,0,0-.4.16,1.58,1.58,0,0,1-.6.17,3.53,3.53,0,0,0-.46,0c-.19,0-.2,0-.07.21a1.41,1.41,0,0,1,.19.59c0,.22.05.51.07.64s0,.27-.27.33-.22.09-.1.1a1,1,0,0,1,.49.41,8.93,8.93,0,0,0,.78.94,2.29,2.29,0,0,0,.61.52c.18,0,0-.64-.39-1.17a5.37,5.37,0,0,1-.73-1.68c0-.22,0-.13.36.31S96,66.11,96.11,66Zm.89-1.9a1.32,1.32,0,0,0-.82-.65,1.69,1.69,0,0,0-.67-.17,3.37,3.37,0,0,0,.72.81C97.24,65,97.51,65,97,64.06Zm5,13a.35.35,0,0,0,.1-.58c-.07,0-.18,0-.26.19C101.65,77,101.7,77.14,102,77.08Zm-1-.27c.07.18.23,0,.23-.23s0-.16-.14,0A.34.34,0,0,0,101,76.81Zm-.08,1.24c0,.07.1.12.13.12s.06,0,.06-.12a.13.13,0,0,0-.13-.13C100.87,77.92,100.85,78,100.89,78.05Zm3.6,2.47a3,3,0,0,0-.69-.94,2.29,2.29,0,0,1-.61-.8,2,2,0,0,0-.38-.71c-.37-.52-.38-.52-.73-.34a1.06,1.06,0,0,0-.45.47,2.78,2.78,0,0,1-.39.69.85.85,0,0,0-.24.7,3.56,3.56,0,0,0,.69,1.43c.07,0,.25-.24.39-.55.24-.5.64-.82.83-.64a1.53,1.53,0,0,1-.26.68c-.33.6-.44,1.3-.22,1.43.06,0,.25-.15.43-.42s.41-.5.51-.5.24,0-.13.8c-.26.56-.29.74-.18.88s.45.22.85-.28A2.69,2.69,0,0,0,104.49,80.52ZM90.79,51.7a13,13,0,0,0,1.35,3c.27.32.4.39.64.33.55-.14.75-.38.84-1s.13-.62.33-.62.26.1.29.31l0,.3.22-.29c.43-.57.61-.1.32.83-.13.4.09.34.35-.1s.57-.45.67-.16a1.37,1.37,0,0,1-.4.64c-.55.62-.38.8.37.39.49-.26.93-.27.93,0a1.62,1.62,0,0,1-.62.4,3.27,3.27,0,0,0-.77.46c-.13.15-.06.16.44.09a1,1,0,0,1,.76.06c.28.23.14.33-.55.43-.86.11-.94.34-.11.29.52,0,.66,0,.66.15s-.2.22-.65.29-.65.16-.65.22.32.11.71.09c.86,0,2.13-.27,2-.38a5.41,5.41,0,0,1,.43-2.5,3.89,3.89,0,0,0,.06-2.58,3.63,3.63,0,0,0-.77-.87c-.32-.25-.81-.68-1.1-.94a2.22,2.22,0,0,0-2.2-.52c-.91.21-1.08.33-1,.72a2,2,0,0,0,.25.58c.25.37.2.56-.14.56-.19,0-.32-.07-.32-.18a1.15,1.15,0,0,0-.3-.52l-.31-.35v.37a3.31,3.31,0,0,0,.31,1c.37.79.38.93.09.78a2.79,2.79,0,0,1-.59-.85c-.33-.64-.38-.68-.41-.39a4.14,4.14,0,0,0,.76,1.87c.3.4.24.5-.17.3a3.27,3.27,0,0,1-.86-1.29C91.15,51.63,90.79,51.23,90.79,51.7Zm3.39,4a1.17,1.17,0,0,0-.64-.26A8.85,8.85,0,0,0,91,56.84c-.19.25.16.43,1.41.68a4.32,4.32,0,0,0,2.06.12,3,3,0,0,0,.08-.86C94.51,56.09,94.47,56,94.18,55.75Zm-4.3-3.33a8.24,8.24,0,0,0,1.5,2.85c.35.37.47.41.59.21s-.08-.31-.28-.53a3.21,3.21,0,0,1-.51-.83,4.65,4.65,0,0,0-.35-.74c-.09-.17-.28-.55-.41-.84C90.12,51.9,89.77,51.81,89.88,52.42Zm.09,3c.57.82.67.88,1,.65s.2-.2-.21-.78a6.67,6.67,0,0,1-1.33-2.8c0-.4,0-.48-.22-.45C88.66,52.15,89.12,54.22,90,55.42Zm-2-3a2.53,2.53,0,0,0,.3,1.59c.12.27.38.86.58,1.29a6.3,6.3,0,0,0,.58,1.09c.24.32.31.34.56.18s.11-.19-.12-.53a2.09,2.09,0,0,0-.4-.46,3.47,3.47,0,0,1-.44-.74,8.12,8.12,0,0,1-.71-2.47C88.29,52,88.11,52.07,88,52.47ZM87,53.71a9.47,9.47,0,0,0,1.22,2.64,1.24,1.24,0,0,1,.32.08c.27.11.24-.13-.11-.73a8.92,8.92,0,0,1-.95-3c0-.53-.16-.84-.43-.74S86.66,52.82,87,53.71Zm-.87-.29a5.62,5.62,0,0,0,.12.79c.06.33.15.85.19,1.17s.14.6.38.71c.67.3.73.16.3-.8A12.92,12.92,0,0,1,86.56,54C86.4,53.46,86.08,53.08,86.08,53.42Zm-.12-1a1.3,1.3,0,0,0,.12.59c.09.13.12,0,.12-.4s0-.59-.12-.59S86,52.2,86,52.42Zm-.41,2.91c.19.54.5.76.35.25-.05-.15-.19-1-.32-1.81a11.94,11.94,0,0,0-.31-1.61s-.13,0-.21.08A8.63,8.63,0,0,0,85.55,55.33Zm-.84-.15c.12.58.36.9.53.73A3.31,3.31,0,0,0,85,55C84.62,54.13,84.49,54.2,84.71,55.18Zm-.6.06a.66.66,0,0,0,.11.37c.15.23.15,0,0-.31C84.15,55.14,84.11,55.12,84.11,55.24Zm10.64-13c-.36-.27-.36-.27-.36,0a3.57,3.57,0,0,0,.3.93c.22.5.37.68.54.68a1.57,1.57,0,0,1,.45.08C96.22,44.12,95.48,42.78,94.75,42.24Zm-.12-1.07c.09.1.2.19.26.19s.07-.09,0-.19a.32.32,0,0,0-.26-.19C94.51,41,94.51,41,94.63,41.17Zm.56-.56c.4.45.62.18.26-.32-.14-.19-.21-.2-.33-.08S95,40.41,95.19,40.61ZM96.25,39c.37-.21,1-.52,1.48-.71a5,5,0,0,0,3.39-3.12,6.05,6.05,0,0,0,.82-2.27,6.66,6.66,0,0,0-.1-3c-.29-1.13-.46-1.43-.8-1.43a2.43,2.43,0,0,1-.77-.23,1.46,1.46,0,0,0-1.55.18,4,4,0,0,1-1,.42,8.29,8.29,0,0,0-1,.36,14.28,14.28,0,0,1-3.12.51,7.69,7.69,0,0,1-1.25-.13c-.61-.13-.66-.12-1.28.26a1.63,1.63,0,0,1-1.32.34,2.61,2.61,0,0,1-1.31-.45,3.76,3.76,0,0,0-1.86-.55,4.65,4.65,0,0,1-2.07-.62l-.84-.47v1.86l1,1.09,1.48,1.59,1.37,1.48c.5.55,1.43,1.5,2.07,2.11,1.75,1.68,2.74,2.68,3.36,3.4a4.6,4.6,0,0,0,.74.75c.26.14,1.33-.75,1.18-1s0-.14.27-.09S95.75,39.26,96.25,39Zm7.9-8.42c0-.61-.06-.65-.51-.82s-.48-.18-.77.09-.38.5-.06.58.34.34.13.47-.16.6,0,.77.06.24-.15.53-.29.4,0,.58.24.19-.09.46-.44.71-.16,1,.24.33-.11.42-.3.15-.28.41,0,.35-.26.38-.35.13-.07.33.11.44-.27.44c-.21,0-.4.16-.67.54a4.43,4.43,0,0,1-2,1.58c-.34.13-1.18.52-1.86.86l-1.24.62.22.3c.28.39.46.38,1.15-.06.31-.19,1.09-.61,1.74-.93,2-1,3.24-2,3.84-3.05a11.09,11.09,0,0,0,1.12-2.55A12.79,12.79,0,0,0,104.15,30.56Zm-.66-1.64c-.54-.23-.57-.23-.8,0s-.2.53.07.3a.67.67,0,0,1,.52-.06l.56.14C104.29,29.42,104,29.13,103.49,28.92Zm.58-1c.07,0,.09-.06.05-.13a.29.29,0,0,0-.21-.12c-.06,0-.08.05,0,.12A.27.27,0,0,0,104.07,28Zm-1.41.17s-.13,0-.22.14-.1.18,0,.18S102.74,28.23,102.66,28.14Zm1.64.13c0-.11,0-.16-.12-.12a.28.28,0,0,0-.13.2.12.12,0,0,0,.13.11C104.25,28.46,104.3,28.38,104.3,28.27Zm-.22-5a1.61,1.61,0,0,0-1.32.07,3.87,3.87,0,0,1-.86.37c-.64.18-1.52.68-1.22.68a2.37,2.37,0,0,0,.63-.24c.49-.25.81-.16.68.18a.21.21,0,0,0,.07.24c.22.14.15.42-.12.57s-.3.1-.43,0a1.08,1.08,0,0,0-.65-.09c-.39.05-.51,0-.72-.25s-.33-.32-1.68-.34a10.29,10.29,0,0,1-2.15-.22A13.89,13.89,0,0,0,92,23.69c-1.06.09-1.28.17-1.49.57-.09.15-.05.3.14.54s.23.4.19.5-.15.15-.62,0a2.13,2.13,0,0,1-.71-.37.51.51,0,0,0-.3-.18,1.56,1.56,0,0,1-.51-.18,1.75,1.75,0,0,0-.56-.19.8.8,0,0,1-.42-.24c-.17-.2-.19-.29-.07-.43s0-.72-.48-1.12c-.22-.2-.31-.22-.51-.09a1,1,0,0,1-.44.15c-.19,0-.19,0,0-.59.1-.24-.31-.33-.53-.11a.62.62,0,0,1-.37.2c-.21,0-.24-.33,0-.4s-.13-.54-.61-.77-.44-.18-.82.05a3.85,3.85,0,0,0-.63.5c-.45.5-.6.21-.19-.37s.14-.53-.57-.27l-.51.19-.5-.52C81,20,81,20,80.3,20.06s-1.06-.06-1-.35,0-.18-.34-.15-.43,0-.45-.09.64-.43,1-.43.48-.26.16-.51-.47-.29-.52,0a2,2,0,0,1-1.37.46c-.2-.12-.08-.28.4-.55a1.6,1.6,0,0,0,.5-.37c0-.21-.38-.2-.63,0-.44.38-1.36.47-1.36.13,0-.06.14-.16.31-.24s.31-.2.31-.27-.73-.13-1,.12a1,1,0,0,1-.82.25,4.29,4.29,0,0,0-2.33,1.11c-.22.24-.69.34-.85.18s1.38-1.78,1.83-1.78c.21,0,.36-.28.28-.52s-.17-.05-.39.18-.94.46-.94.17a.73.73,0,0,1,.26-.4,2.24,2.24,0,0,0,.38-.47c.11-.21.1-.21-.19,0a1.13,1.13,0,0,0-.38.38.3.3,0,0,1-.26.18.18.18,0,0,0-.18.17.54.54,0,0,1-.2.33c-.18.15-.17.18.07.27l.27.1-.28.38c-.25.36-.3.38-.87.3-.39-.06-.61,0-.61,0s.13.14.28.17.28.12.28.22-.12.18-.46.15-.47,0-.47.09.08.13.19.13.27.37.09.39a1,1,0,0,0-.64.21.64.64,0,0,1-.38.17c-.37.05-.51.47-.16.47a1.9,1.9,0,0,0,.69-.31c.58-.4,1.24-.39,1.3,0,0,.19-.08.33-.38.51a1.11,1.11,0,0,0-.57.85,10.62,10.62,0,0,1-.34,1,6.45,6.45,0,0,0-.3,1.53c-.1.91-.09,1.17.07,1.5S71.28,27,71.46,27a2.74,2.74,0,0,1,.64.57A4.08,4.08,0,0,0,74.49,29c.47,0,.8.13.8.34s-.42.49-.86.49-1.21-.41-3-1.95c-1.2-1-1.62-1.19-1.6-.75,0,.12,0,.53,0,.9,0,.58.06.68.25.68s.56.29.43.42a1,1,0,0,1-.44.08c-.3,0-.35,0-.32.28a.33.33,0,0,0,.32.31c.15,0,.28.12.28.21s-.13.19-.28.21a.36.36,0,0,0-.32.29c0,.21.07.28.54.41s.56.18.42.34a.42.42,0,0,1-.46.12c-.49-.12-.29.31.28.61s.67.64.09.6-.47.39.5.88c.26.13.47.28.47.34s-.27.24-.53,0a1.16,1.16,0,0,0-.5-.19c-.2,0-.19,0,.1.44a1.7,1.7,0,0,0,.63.51c.31.07.6.44.46.58a.58.58,0,0,1-.34.08c-.23,0-.2,0,.16.36s.43.7-.12.59c-.32-.07-.39,0-.69.51a7.19,7.19,0,0,1-.5.75.56.56,0,0,0-.16.34c0,.26-.42,1-.56,1a.83.83,0,0,1-.62-.59c0-.31-.51-.34-.68,0s-.09.26.21.33c.71.15.79.2.75.4s-.28.23-1,.08c-.36-.08-.42-.05-.53.25s-.19.44.39.44.5,0,.45.31a.47.47,0,0,0,0,.38c.29.18-.4.93-1.62,1.75-.74.5-.85.54-1.31.45a8.94,8.94,0,0,0-1.3-.1c-.75,0-.81,0-.84.28s-.43.29-.58-.19-.47-.6-.67-.36a2,2,0,0,0-.26.49c-.18.5-.44.35-.42-.24s-.1-.66-.6-.67c-.28,0-.35.08-.5.53-.25.74-.54.7-.5-.06,0-.33,0-.59-.06-.59s-.51.45-.68.81c-.07.17-.18.3-.24.3-.23,0-.25-.41,0-.83.11-.24.19-.45.16-.48a3.35,3.35,0,0,0-.53-.12l-.5-.08L57.7,42c-.27.56-.32.61-.49.45s-.16-.27,0-.65a1.2,1.2,0,0,0,.09-.52,6.08,6.08,0,0,0-.84-.21l-.9-.18c-.4-.1-.68,0-.74.31s-.09.45-.13.62-.14.31-.32.31-.26-.05-.2-.59c0-.33.09-.68.11-.78s-.09-.19-.42-.22-.47,0-.47.26c0,.48-.25,1.08-.46,1.08s-.17-.28,0-1.19c.05-.24,0-.28-.73-.41a10.38,10.38,0,0,0-1.12-.13.54.54,0,0,1-.4-.13.52.52,0,0,0-.38-.12c-.22,0-.3.07-.3.24s-.19.42-.49.26a21.67,21.67,0,0,1-1.64-1.44,15,15,0,0,0-5.61-3.55,13.54,13.54,0,0,0-3-.81c-.07,0,0,.19.23.38s.3.33.23.33A.71.71,0,0,1,39.4,35a3,3,0,0,0-2.1-.68,13.89,13.89,0,0,0-4,.45,9.38,9.38,0,0,0-3.72,1.53,31.39,31.39,0,0,0-3.07,2.43,4.59,4.59,0,0,0-.9,1.09,1.19,1.19,0,0,1-.76.66,14.14,14.14,0,0,0-1.65.79,4.46,4.46,0,0,1-3.1.75,9.55,9.55,0,0,1-2-.23c-.73-.24-1.26-.26-1.38-.07s-.3.11-.72.06a28.86,28.86,0,0,1-4.1-1.22c-.21-.1-.76-.34-1.23-.53s-.79-.38-.71-.4a4.72,4.72,0,0,1,1.23.38,25.06,25.06,0,0,0,4.45,1.32c.46,0,.24-.13-.94-.54A12.76,12.76,0,0,1,13,40.07a8,8,0,0,0-1.26-.57,15.2,15.2,0,0,1-1.47-.65,12.62,12.62,0,0,0-4-1.34c-.95-.14-1.17-.13-1.44,0L4,38c-.53.29-.68.18-.31-.23.11-.12.16-.28.12-.34s-.35-.06-1.15.24a3.6,3.6,0,0,0-1.36,2c0,.24-.07.9-.11,1.45a4.17,4.17,0,0,0,.48,2.58c.15.21.17,0,.11-1.27-.07-1.85.07-2.47.76-3.21.48-.53.83-.68.83-.37a1.9,1.9,0,0,1-.48.67c-.6.63-.76,1.25-.76,2.9a2.87,2.87,0,0,0,.39,2,13,13,0,0,0,2,2.72c.91.94,1.46,1.29.79.5a14.81,14.81,0,0,1-2.18-3.17,5,5,0,0,1-.48-2.31c-.07-1.42-.07-1.44.26-1.88.63-.82,1-.41.37.46-.32.45-.33.51-.27,1.8a4.88,4.88,0,0,0,.33,1.9,21.83,21.83,0,0,0,2.05,3A18.38,18.38,0,0,1,7.12,49.5a2.29,2.29,0,0,0,.37.53A14.86,14.86,0,0,1,9.36,54,3.72,3.72,0,0,1,9.42,55a6.3,6.3,0,0,1-1.76,2c-.16.09-.3.21-.3.28s.56.12,1.18-.2a4.48,4.48,0,0,0,2.27-2.78c.09-.32.13-.36.14-.15,0,.39.31.47.62.19A2.67,2.67,0,0,0,12,52.66c0-.16,0-.27.07-.27s.14.11.14.24a.43.43,0,0,0,.12.32c.25.15.12-.92-.18-1.53a3.38,3.38,0,0,1-.32-.79,2.58,2.58,0,0,0-.24-.66,2.8,2.8,0,0,1-.24-.61,2.29,2.29,0,0,0-.29-.49,3.29,3.29,0,0,1-.83-2.36c0-1.66.38-2.63,1.28-3.19.35-.22.55-.24,2.12-.18,2.14.07,5,.27,5.42.39a2.3,2.3,0,0,0,1.18-.25c1-.4,1.21-.56.74-.56s-.44-.19-.05-.29c.15,0,.6-.15,1-.27.55-.15.76-.16.89-.06s.49.1.49-.18.17-.27.47-.37a5.6,5.6,0,0,0,.77-.36c.59-.4,1.19-.11.79.37-.13.16-.13.22,0,.26.28.1.16.38-.28.65s-.54.37-.12.37.92-.52,1.25-1.06c.12-.19.19-.21.37-.1s.27,1,0,1.24-.24.54,0,.54a.78.78,0,0,1,.46.26,4,4,0,0,0,.63.5c.4.25.58.73.26.73a3.32,3.32,0,0,1-.81-.36c-.35-.2-.65-.32-.65-.26a15.31,15.31,0,0,0,2.14,2.16,2.29,2.29,0,0,1,.59.58c0,.22-.28.1-.78-.32a3.23,3.23,0,0,0-.88-.55l-.6-.2c-.15-.06-.22,0-.22.11a.19.19,0,0,0,.17.2,1,1,0,0,1,.46.33,8.16,8.16,0,0,0,1,.8c1.77,1.25,1.8,1.54.06.69-.65-.32-1.2-.58-1.24-.58s-.06.1-.06.22,1.08,1.14,2.16,1.77a2.67,2.67,0,0,1,.79.61c.05.13,0,.15-.17.07a5.55,5.55,0,0,0-.67-.18,3.53,3.53,0,0,1-1.06-.54,2.07,2.07,0,0,0-.7-.39.62.62,0,0,0,0,.4.43.43,0,0,0,.38.38,2.45,2.45,0,0,1,.85.53,6.74,6.74,0,0,0,1.34.87,2.38,2.38,0,0,1,.78.5c0,.37-1.56-.13-2.24-.72a.72.72,0,0,0-.34-.17c-.22,0,.06.49.33.58a1.78,1.78,0,0,1,.39.24A18.7,18.7,0,0,0,31.13,53c.87.44,1.12.68.7.68a9.46,9.46,0,0,1-2.08-1,.45.45,0,0,0-.22-.11c-.27,0,0,.26,1,1a13,13,0,0,1,1.18.9c.16.26-.34.07-1-.39a2.89,2.89,0,0,0-.77-.44,2.17,2.17,0,0,0,.26.63c.25.51.34.59.72.61a2.19,2.19,0,0,1,.87.33l.68.44c.17.1.2.18.09.29s-.25.09-.6-.06a1.24,1.24,0,0,0-.53-.13c-.12.11.28.47.72.66.72.3,1.14.65,1,.82s.23.57,1.09,1c.36.18.63.4.61.48s-.23.15-1.93-.05a6.44,6.44,0,0,0-3.44.35l-1.1.73c-.41.26-1,.64-1.21.83a4.88,4.88,0,0,1-2.52.69c-.73,0-.91.2-1.06,1.11a4.09,4.09,0,0,1-.24,1,1.71,1.71,0,0,0,.33,1.35c.24.4.42.49.42.21,0-.09.18-.31.4-.5.37-.3.41-.31.56-.11a.89.89,0,0,1,.15.43.21.21,0,0,0,.19.23c.11,0,.19-.12.19-.31s.08-.37.42-.24.25.75-.05,1a1.06,1.06,0,0,1-.62.24c-.46,0-.48.23-.07.62.22.21.35.25.47.16a1.74,1.74,0,0,1,.73-.14c.65,0,1.07.31.91.69-.23.57-.28,1-.11,1.16s.46,0,.38-.46.06-.53.6,0a1.09,1.09,0,0,1,.32,1.32c-.17.42,0,.52.29.13s.57-.4.57-.06a.46.46,0,0,0,.19.35c.18.1.18.15,0,.58s-.19.46,0,.37c.78-.32.87-.11.2.5-.42.39-.44.43-.35,1s.18.73.47.62.18-.19.12-.6,0-.57.14-.73.46-.16.43.14.3,1,.52,1,.36.24.36.75c0,.29-.06.36-.27.36a.61.61,0,0,1-.42-.21c-.09-.12-.2-.19-.24-.15a3.43,3.43,0,0,0,.46,1.48c.05,0,.17-.16.27-.36a1,1,0,0,1,.37-.43.44.44,0,0,0,.22-.35.37.37,0,0,1,.24-.32c.16,0,.23.08.29.45a.93.93,0,0,0,.26.56.35.35,0,0,1,.18.32c0,.28.19.34.28.1s.62.34.75.69-.12.39-.34.22a.2.2,0,0,0-.24-.06s-.08,0-.08-.1-.22-.31-.49-.46-.5-.37-.5-.52a.22.22,0,0,0-.19-.24c-.1,0-.18,0-.18.06A11.78,11.78,0,0,0,33,75.6a1.09,1.09,0,0,1,.19.28,5.48,5.48,0,0,0,.77,1.1c.27.3.28.49,0,.69s-.25,0-.55-.37S33,76.82,33,77a1.59,1.59,0,0,0,1.12,1.68c.11,0,.26.14.34.3s.18.28.37.18.25-.06.35.2a3.77,3.77,0,0,1,.13,1c0,.71.21,1.58.34,1.44a1.66,1.66,0,0,0,.08-.59c0-.38.06-.53.19-.53s.2.14.22.31c.1.84.18,1.12.35,1.12a.18.18,0,0,0,.18-.19c0-.26.2-.23.42.08.11.16.26.24.37.19s.37.09.58.69.26.56.77.49.52-.24.34-1.23A4.94,4.94,0,0,0,38,79.85c-.31-.28-.35,0-.06.36s.16.26,0,.33-.61-.19-1.3-.84c-.23-.22-.18-.41.11-.41a1.18,1.18,0,0,0,.41-.12c.22-.12.22-.15,0-.62s-.29-.47-.41-.31-.18.17-.4,0-.33-.3-.14-.42a.33.33,0,0,0,.13-.25c0-.15,0-.16-.25,0s-.43.07-.28-.36c.08-.24.2-.35.39-.34s.26-.06.26-.47a1.24,1.24,0,0,0-.41-.93c-.23-.26-.56-.67-.75-.92a4.17,4.17,0,0,0-.83-.79,9.51,9.51,0,0,1-2.24-2.66,7.61,7.61,0,0,0-.48-1.06c-.62-1.14-1.46-2.85-1.55-3.16a8.62,8.62,0,0,0-.45-1A3,3,0,0,1,29.3,65c0-.29-.23-.47-.74-.55s-.74-.34-.74-.57.65-.25,1.54-.17c1.17.11,2.37,0,2.19-.24s-.08-.24.06-.43c.26-.37.42-.34.42.1s0,.37.4.37a7.09,7.09,0,0,0,1.15-.17,21.18,21.18,0,0,1,2.11-.32c4.72-.49,4.66-.48,5.58-.92a8.75,8.75,0,0,0,1.36-.85,12.85,12.85,0,0,1,2.45-1.7c.25,0,.83-.48.83-.68a3.35,3.35,0,0,1,.45-.82l.44-.67-.07-1.18c-.23-3.84-.23-3.67,0-4.46s.81-1.49,1.09-1.49.32.53.23.79a.58.58,0,0,1-.24.25,5.07,5.07,0,0,0-.93,1.89.79.79,0,0,0,.24.48c.24.21.25.21.37-.11s.21-.32.31-.32.22.06.25,1a4.93,4.93,0,0,0,.74,2.35c.09,0,.26.14.37.31.5.76.53,0,.06-1.24-.35-.92-.28-1.65.1-1.14a10,10,0,0,1,.91,2.26c.3,1.26,1,2.61,1.17,2.4a8.06,8.06,0,0,0-.37-1.36,10,10,0,0,1-.62-2.94s.09,0,.13.18.18.46.3.73.38.94.57,1.48a10,10,0,0,0,1.49,3c.14,0,.16,0,0-.18a14.08,14.08,0,0,1-.45-1.51A11.25,11.25,0,0,0,52,56.94c-.22-.39-.12-.68.15-.45A12.07,12.07,0,0,1,53.44,59a8.7,8.7,0,0,0,1.62,2.47c.21,0,.21,0-.28-1a5.75,5.75,0,0,1-.44-1,5.52,5.52,0,0,0-.42-1c-.66-1.42-.66-1.6,0-.71a8.12,8.12,0,0,1,.9,1.55,4.38,4.38,0,0,0,.59,1,7.2,7.2,0,0,1,1.15,1.46c0,.16.34.3.42.17a3.45,3.45,0,0,0-.41-1.08,9.93,9.93,0,0,1-1.1-3.17c0-.28,0-.28.2.08s1.22,2.51,1.6,3.21c.18.35.5.63.6.54a1.29,1.29,0,0,0-.08-.6c-.14-.53-.07-1.35.12-1.35s.14.26.19.59a4.51,4.51,0,0,0,.4,1.17c.53,1,1,.93.79-.08-.14-.59-.1-.81.14-.81s.46.42.47.89a.81.81,0,0,0,.13.53.55.55,0,0,1,.12.38c0,.34.18.41.3.11a.29.29,0,0,1,.35-.15c.23,0,.27,0,.24-.26-.06-.43.08-.88.29-.88s.24.26.35,1.11c0,.33.32.2.55-.25.12-.24.32-.45.45-.47s.22,0,.15.4-.05.45.11.45.19.11.19.29c0,.48.26.44.83-.13s.9-.69.9-.45a2.61,2.61,0,0,1-.46.56c-.41.42-.43.47-.19.47a1.57,1.57,0,0,1,.45.07c.11.05.3-.06.47-.26.59-.68,1-1,1.1-1s.1.49-.25.79-.49.57-.33.57a5.85,5.85,0,0,0,2.11-1.27c.15-.15.27-.19.35-.11s0,.55-.48.92-.42.39.25.34a4.81,4.81,0,0,0,2-1.28c.32-.34.59-.36.59,0A3.92,3.92,0,0,1,69.33,63l-.3.21h.38a3.21,3.21,0,0,1,.65.08c.24.06.28,0,.28-.25s.1-.38.42-.53a1.39,1.39,0,0,0,.64-.67,2.42,2.42,0,0,1,.44-.69c.35-.32.43.07.12.59a1.61,1.61,0,0,0-.26.6,1,1,0,0,1-.27.46c-.22.23-.23.29-.07.29a1.07,1.07,0,0,0,.52-.4,2.89,2.89,0,0,1,.65-.59,3.09,3.09,0,0,0,.9-1.36c0-.06-.12-.15-.27-.2a2.16,2.16,0,0,1-.66-.41,10.72,10.72,0,0,0-2-1.44c-.94-.51-.87-.74.16-.54s1,.19,1-.14.33-.45.79,0a.9.9,0,0,1,.4.81c0,.58.28.87,1.39,1.46a7.5,7.5,0,0,1,3.37,2.95c.26.52.7.73,1.12.54s.66-.64.38-.64-.49-.92-.38-1.42c0-.21.13-.9.19-1.53.1-1.13.37-1.85.62-1.7.07,0,.12.24.12.44,0,.37.18.5.29.21s.58.46.77,1.35.48,1.17.51.41c0-.24,0-.52,0-.64,0-.48.26-.18.4.52s.21.74.44.81.29.13.29.22c0,.3.44.71.85.79l.42.08-.22-.33c-.15-.23-.18-.38-.1-.46s.2,0,.36.22c.33.52.5.66.79.66s.32-.2,0-.45a.62.62,0,0,1-.31-.42c0-.44.34-.35.94.26s1.16.83,1,.39c-.37-.89-.07-1.11.46-.35.37.52.68.69.89.48,0,0,0-.17-.08-.27-.28-.33-.35-.64-.16-.71s1.6,1.32,1.44,1.49a27.17,27.17,0,0,1-5.52,0,4.49,4.49,0,0,0-2.47,0c-.21.15-.09.19.93.32a21.28,21.28,0,0,1,2.16.41,8.44,8.44,0,0,0,4.56-.08,5.17,5.17,0,0,0,1.45-.48c0-.19-.34-.46-.59-.46s-.39-.29-.4-.65c0-.17.34-.09.66.16s.42.24,1,.16c.36,0,.56-.11.45-.13s-.64-.61-.5-.7.89.4.89.55.5.15.72,0,.12-.13,0-.26a.49.49,0,0,1-.19-.27c0-.19.35-.11.52.12s.32.22,1.34.2a3.14,3.14,0,0,1,1.62.2c.42.21.46.21.65,0s.25-.18.45-.06a1,1,0,0,0,.62.08c.37-.08.43,0,.39.39,0,.24.94.93,1.25.89s.29,0,.29.33a.47.47,0,0,0,.28.49c.21.09.27.23.27.58a1,1,0,0,0,.19.62c.1.08.18.11.18.06s.09,0,.19.06a.77.77,0,0,1,.19.51c0,.23.07.37.25.42s.24.19.24.45.22.56.48.46a5,5,0,0,0-.85-1.91c-.29-.51-.29-.51-.07-1.09.15-.42.28-.57.42-.54s.19.13.17.28-.07.41-.11.62c-.06.4.23.82.39.56a.37.37,0,0,1,.27-.13c.15,0,.17.11.1.54s0,.58.08.64.18,0,.21,0a.23.23,0,0,1,.18-.15c.08,0,.11.21.07.55-.08.64,0,.81.34.78s.24,0,.2.5c0,.66,0,.82.36.62s.27-.11.38,0,.13.2-.2.76-.1.69.28.39.35-.22.48-.11.21.53-.08.79-.32.54,0,.64c.59.21.89.92.46,1.08a.53.53,0,0,1-.68-.42c0-.14-.07-.25-.15-.25a7.28,7.28,0,0,1-1.16-2.29,4.28,4.28,0,0,0-.34-.87c-.47-.88-.67-.84-.79.18-.07.66-.07.66.24.58s.67.18.52.43a5.61,5.61,0,0,0-.33,1.69c0,.09.18.12.41.08s.36,0,.36.16a1.09,1.09,0,0,1-.18.5,2.16,2.16,0,0,0-.26.77c-.08.46-.06.51.18.51s.26,0,.26-.1a.93.93,0,0,1,.16-.32c.16-.21.18-.21.62,0s.55.37.29.73a2.74,2.74,0,0,0-.25.83c-.08.56-.07.6.24.72s.33.17.27.56,0,.43.08.42c.34-.05.45,0,.45.3a2.31,2.31,0,0,1-.52,1.28c-.1.07,0,.12.27.16.51.08.67.45.26.6-.25.09-.25.11.14.62.22.29.47.52.55.52.24,0,1-1.14,1.13-1.74a6.17,6.17,0,0,0,.07-1.57l-.07-1,.56-.94a7.56,7.56,0,0,0,.65-1.29,3.93,3.93,0,0,0-.88-2.31c-.62-.81-3-4.41-3-4.53s-.09-.16-.19-.24a24.66,24.66,0,0,1-2.33-4.72c-.52-1.77-.64-2-1.72-2.64l-.68-.43-1.54.12a9.82,9.82,0,0,1-2.59.06,36.82,36.82,0,0,1-5.09-1.2l-1.54-.42c-1.47-.36-4.73-.49-5.07-.21-.12.1-.27.11-.51,0a3.22,3.22,0,0,0-.92-.13,1.86,1.86,0,0,1-.67-.08,3.68,3.68,0,0,1,.73-1.4c.14-.15.18-.15.25,0a.82.82,0,0,1-.09.55L81,56c-.11.23.6.06.78-.19.34-.5.23-1.07-.55-2.63-.55-1.09-.71-1.52-.61-1.63a.29.29,0,0,0,0-.29c0-.07,0-.13.11-.13s.2,0,.2.09a4.43,4.43,0,0,0,1.17,1.25s-.15-.33-.42-.65c-.54-.62-.62-.81-.32-.81A5.77,5.77,0,0,1,83,52.51l.22.31-.07-.41A4,4,0,0,0,82,50.6c-.37-.35-.5-.69-.27-.69a6.65,6.65,0,0,1,1,.94c.61.66.9.89,1,.76.15-.39-1.22-2.2-1.67-2.2a.13.13,0,0,1-.14-.12.12.12,0,0,1,.12-.12,4.65,4.65,0,0,1,1.54,1.13c.27.33.36.38.45.24s0-.5-.57-1.12c-.4-.44-.55-.87-.31-.87.06,0,.08-.14,0-.31s0-.31.2-.31a.42.42,0,0,1,.33.12c.11.17.44.16.44,0a2.26,2.26,0,0,0-.56-.66,1.81,1.81,0,0,1-.56-.73c0-.21,0-.21.37,0,.53.31.63.09.16-.33s-.55-.81-.16-.7.35-.3.06-.54-.25-.62-.06-.62.07-.53-.53-1.19A4.31,4.31,0,0,0,81,41.78c-.72-.33-.89-.49-.78-.76s-.21-.53-1.08-1c-1.2-.57-.61-.54,1.07.06a8.16,8.16,0,0,1,2.18,1.06c.65.49,1,.64,1,.47a12.43,12.43,0,0,0-1.43-1.35c-.17-.14-.19-.19-.06-.19a.87.87,0,0,1,.43.23,4.94,4.94,0,0,0,.6.45c.34.21.34.21.34-.11s-.23-.55-.8-1.12a5.51,5.51,0,0,0-1.05-.88.36.36,0,0,1-.26-.31,5.79,5.79,0,0,0-2-1.49,3,3,0,0,1-.82-.62c-.69-.64-.71-.8-.06-.37a1.35,1.35,0,0,0,.56.25c.19,0,.39.1,1.38.65.76.43,1.47.57,1.47.3s.08-.18.38-.12l.38.07-.19-.38a.81.81,0,0,0-.47-.42c-.35,0-.46-.35-.12-.35a.48.48,0,0,1,.33.12.36.36,0,0,0,.29.13,2,2,0,0,1,.76.56,2.82,2.82,0,0,0,.66.56c.27,0-.07-.47-1.2-1.61a7.23,7.23,0,0,1-1.11-1.25.55.55,0,0,1,.29.19.56.56,0,0,0,.37.19,2.2,2.2,0,0,1,.78.55c.5.48,1,.72,1,.49s-.41-.8-.59-.8-1.54-1.28-1.45-1.52-.14-.71-.37-.71-.36-.2-.2-.3a2.72,2.72,0,0,1,.94.62,3.59,3.59,0,0,0,.88.64c.13-.13-.21-1.08-.45-1.25a5.14,5.14,0,0,1-.82-1,12,12,0,0,0-1.13-1.44c-.32-.32-.53-.63-.49-.68s.09,0,.09.06.18.22.4.33a6.14,6.14,0,0,1,1.09.87c.65.65,1.18,1,.65.41a5.6,5.6,0,0,1-.51-.72,12.53,12.53,0,0,0-1.22-1.39,4.77,4.77,0,0,1-.88-1,3,3,0,0,1,.86.65,18.36,18.36,0,0,0,2.14,1.77c.13,0-.18-.65-.49-1A11.24,11.24,0,0,0,80,27.22a1.18,1.18,0,0,0-.52.38c-.28.33-.37.36-.59.24-.42-.22-.43-.48,0-.88A5.57,5.57,0,0,1,81,25.74c.22,0,.26-.06.19-.3s.15-.55.39-.31a1.48,1.48,0,0,1,.29.85s.07,0,.15-.08.1-.21,0-.38A.75.75,0,0,1,82,25c.07-.29.39-.36.46-.11,0,.08.11.39.19.68a2.54,2.54,0,0,0,.65,1c.91.89,1,.52.27-.7-.42-.65-.52-1-.29-1,.07,0,.18.15.25.33a12.37,12.37,0,0,0,1.62,2.4c.06,0-.09-.4-.33-.89-.61-1.21-.39-1.41.34-.3a2.56,2.56,0,0,0,.69.81c.09,0,.19-.17.24-.37.1-.5.33-.4.42.18a1.47,1.47,0,0,0,.4.76,5.12,5.12,0,0,1,.51.57c.1.15.23.24.28.19s0-.16-.06-.24a1.84,1.84,0,0,1-.07-1.24c.16-.17.42.08.42.4a2.05,2.05,0,0,0,.2.74c.18.36.24.39.59.33s.43,0,.82.48.63.66.87.37a2.32,2.32,0,0,1,.82-.38A3,3,0,0,1,92.8,29,6.59,6.59,0,0,0,95,28.9a8.83,8.83,0,0,0,1.68-.36,3.88,3.88,0,0,1,.75-.26,6.59,6.59,0,0,0,1.31-.61c1.21-.71,1.79-1,2-.89a.41.41,0,0,1,0,.63c-.25.15,0,.31.53.31a2.92,2.92,0,0,0,1.14-.31,3,3,0,0,1,1-.3A2.68,2.68,0,0,1,105,28c.09.11.22.17.28.14s-.18-.72-.52-1.06-.3-.48.13-.57a1,1,0,0,0,.37-.11,2.29,2.29,0,0,0-.31-.35c-.36-.37-.39-.64-.09-.75s.3,0,.47.23c.3.37.55.42.55.09a.81.81,0,0,0-.59-.64c-.17,0-.33-.55-.22-.73S104.5,23.41,104.08,23.25ZM82.73,27.61a2.17,2.17,0,0,0-1.1-1c-.14,0-.26,0-.26,0a4.55,4.55,0,0,0,.68.56C82.43,27.5,82.73,27.67,82.73,27.61ZM81,26.79c-.27-.18-.7-.14-.7.05a2,2,0,0,0,.47.53,8.34,8.34,0,0,0,1.89,1.37A10,10,0,0,0,81,26.79ZM83,37.53c-.61-.58-.76-.54-.18,0a1.71,1.71,0,0,0,.55.43C83.48,38,83.31,37.79,83,37.53ZM84,49.1c-.41-.54-.62-.68-.62-.44,0,.07.18.24.4.4S84.13,49.31,84,49.1Zm-2.3,13.09a.14.14,0,0,0,0-.19c-.07,0-.13,0-.13.11S81.57,62.36,81.67,62.19Zm23.81-42.9a16.66,16.66,0,0,0,.74-2.91,8.52,8.52,0,0,0-.51-3.35,3.89,3.89,0,0,0-1.16-1.8,10.72,10.72,0,0,0-5.08-3.16,8.06,8.06,0,0,1-1.2-.39c-.42-.2-.8-.19-.87,0a9.27,9.27,0,0,0,2.8,1.81,8.05,8.05,0,0,1,2.37,1.74,9,9,0,0,1,1.35,1.58,1.58,1.58,0,0,0,.45.59.42.42,0,0,1,.18.37c0,.18.07.29.19.29s.25.32.06.44-.15.45.08.7.19.25,0,.47-.19.28-.06.44.11.25-.06.51-.2.33,0,.55.17.61-.13.61-.25.57,0,.67.22.31-.12.4-.42.35-.13.47.22.45-.12.45c-.17,0-.31.05-.31.12s.08.13.18.13a.49.49,0,0,1,.34.24h0a.54.54,0,0,0,.42.25c.22,0,.3-.09.36-.46A4,4,0,0,1,105.48,19.29ZM109,23.05a.25.25,0,0,0-.24,0s0,.07.16.06S109.13,23.09,109,23.05Zm3.57.33c0-.15-.3-.35-.66-.44-.18,0-.33-.16-.33-.25s-.13-.18-.28-.18a1.58,1.58,0,0,1-.6-.16,5.23,5.23,0,0,0-.71-.3l-.41-.15.26.37a.89.89,0,0,0,.49.37c.28,0,.66.34.56.5a.4.4,0,0,1-.32.12c-.14,0-.21,0-.17.12A5.46,5.46,0,0,0,112.61,23.38ZM4.29,42.41c0-1.32,0-1.39.34-2.07.55-1,.13-1.16-.49-.15a2.35,2.35,0,0,0-.26,1.44,5,5,0,0,0,.56,2.75c.3.51.44.68.44.51a5.1,5.1,0,0,0-.27-.59A3.74,3.74,0,0,1,4.29,42.41ZM7.72,38.3c.27.25.47.27.27,0a3.9,3.9,0,0,0-1.93-.6c-.59,0-1.31.39-1,.55a1.33,1.33,0,0,0,.76-.09A2.33,2.33,0,0,1,7.72,38.3ZM7,39.13c-.82,0-1.62.45-1.62.93s.19.47.43.11a1.92,1.92,0,0,1,1.68-.81C8.39,39.35,8,39.15,7,39.13ZM25.52,62.75c0,.31.39.37.55.08a.46.46,0,0,0,0-.41C25.93,62.18,25.52,62.42,25.52,62.75Zm1.59.61c-.6,0-.72.06-.72.25s.2.36.38.19a1.21,1.21,0,0,1,.54-.15C28.06,63.58,27.89,63.34,27.11,63.36Zm1.55-.21c-.27.26-.27.27,0,.27a.93.93,0,0,0,.43-.12c.14-.09.15-.15,0-.27S28.88,62.93,28.66,63.15Zm.4-1.44c0-.18-.44-.52-.66-.52s-.2.09-.17.28.14.29.44.32S29.06,61.78,29.06,61.71Zm-1.92.11c0,.06,0,.15-.12.19-.27.1-.24.38,0,.54a.26.26,0,0,0,.38-.06.29.29,0,0,0,.06-.31c-.06-.11,0-.11.19,0a.71.71,0,0,0,.45.08c.32-.13.18-.39-.28-.53S27,61.63,27.14,61.82Zm2.31-1.13c-.21,0-.18.37.05.46a.22.22,0,0,1,.11.3c-.06.19,0,.23.24.23s.32-.06.32-.22A1.16,1.16,0,0,0,29.45,60.69Zm1.34,2.05c-.1,0-.18.07-.17.15s0,.27,0,.39.3.44.42.31S31,62.74,30.79,62.74Zm-1.11,0c-.19.11-.15.43.05.43A.29.29,0,0,0,30,63C30.05,62.78,29.86,62.62,29.68,62.74Zm-2,3.31c.38.4.58.43.74.13s-.85-1.44-1.15-1.32S27.09,65.44,27.68,66.05Zm2.55-5.68c-.2.08-.2.1,0,.36a1.25,1.25,0,0,1,.29.52c.06.3.85.45.85.16S30.46,60.28,30.23,60.37Zm50-5.38a.57.57,0,0,1-.14.35c-.08.08-.12.18-.08.21s.27-.16.52-.45.41-.57.33-.65S80.25,54.7,80.25,55Zm-5.16,3.56c0,.67,0,1,.11,1.05s.31.12.39-.36a2.43,2.43,0,0,0-.1-1.59C75.23,57.29,75.14,57.49,75.09,58.55Zm22-31.28c-.25,0-.56.07-.67.08s-.74.48-.65.64.2.11.76,0,1-.45,1-.64S97.45,27.22,97.14,27.27Zm-2-2.53c-.24,0-.22.17.08.55s.49.42.49.19S95.35,24.74,95.18,24.74Zm-.3.71c0-.23-.4-.58-.66-.58s-.19,0,0,.28C94.42,25.61,94.88,25.8,94.88,25.45Zm-.74,2.6c0,.18.22.25.62.2.7-.09.88-.17.84-.36C95.52,27.48,94.14,27.63,94.14,28.05Zm2.57-2.52a.34.34,0,0,0,.15-.3c0-.13-.07-.24-.15-.24-.28,0-.5.22-.43.42S96.44,25.64,96.71,25.53ZM75.79,34.22c0-.31-.24-.67-.44-.67s-.24.5,0,.72S75.79,34.45,75.79,34.22Zm6.94,10.12c0-.37-.3-.77-.89-1.16a8.13,8.13,0,0,1-1-.75,2.53,2.53,0,0,0-.92-.58c-.28,0,.1.5,1.11,1.47S82.73,44.71,82.73,44.34Zm-3.87,8.83a.34.34,0,0,0,.15-.3c0-.35-.42-.25-.47.11S78.56,53.29,78.86,53.17Zm1.91-8.24c-.22-.21-.43-.35-.47-.31s.06.32.6.71.72.45.72.25-.1-.15-.23-.19A2.52,2.52,0,0,1,80.77,44.93Zm0,1.34a.66.66,0,0,0,.18.34.56.56,0,0,1,.19.31.28.28,0,0,0,.12.2c.07,0,.13,0,.13-.11S80.76,46.06,80.75,46.27Zm.2,2.06c.1.06.17.05.17,0a6.77,6.77,0,0,0-1.62-1.38A7.23,7.23,0,0,0,81,48.33Zm-1.44,5.11c.23-.24.26-.34.14-.46s-.22-.08-.47.17-.28.39-.24.46S79.19,53.78,79.51,53.44ZM77.58,60c-.28-.26-.34-.28-.5-.11s-.24.48-.2,1.18a.57.57,0,0,0,.37.56,1,1,0,0,1,.46.44c.12.27.48.37.61.17a2.09,2.09,0,0,0-.18-.83,5.13,5.13,0,0,1-.24-.91A1.08,1.08,0,0,0,77.58,60Zm-1.53-.2c.12.53.21.69.38.69s.22-.09.22-.28a4.85,4.85,0,0,0-.45-1.8C76,58.29,75.89,59,76.05,59.76ZM75,21c.64.33.83.36,1,.16s-.21-.46-1-.67a8.23,8.23,0,0,0-.9-.19c-.26,0-.18.27.11.34A6.25,6.25,0,0,1,75,21Zm.51,17.88c-.89-.12-1-.11-1.21.06-.34.34,0,.45,1.53.6,1.12.11,1.54.2,1.74.37s.38.28.48.1-.48-.68-1-.85C76.78,39.07,76.1,38.94,75.54,38.86ZM73.7,22.76c-1-.37-1-.25-.09.28.73.43,1.44.6,1.44.37S74.78,23.19,73.7,22.76Zm-.52.83c-.48,0-.63.23-.2.33l.49.15a.24.24,0,0,0,.28-.07C73.88,23.79,73.64,23.61,73.18,23.59ZM75.64,22a2.71,2.71,0,0,0-1-.44,5,5,0,0,1-1-.42c-.15-.14-.44-.15-.44,0a7.84,7.84,0,0,0,2.25,1C75.58,22.14,75.67,22.08,75.64,22Zm-.72.76A5.41,5.41,0,0,0,73,21.84c-.24-.05,0,.12.61.48C74.6,22.89,74.92,23,74.92,22.76Zm5.2,31.05c-.16-.1-.61.28-.61.52s.29.19.53-.14S80.21,53.86,80.12,53.81ZM93.3,24.75c-.44-.2-.46-.1-.1.48s.5.62.6.35S93.64,24.91,93.3,24.75ZM93,28.12c0,.24.2.28.53.09s.29-.43.09-.55S93,27.88,93,28.12ZM80.1,43.63a2.94,2.94,0,0,1,.64.51c.27.32.63.48.63.28s-.42-.6-1.15-1S79.42,43.2,80.1,43.63ZM97.53,61.41c.13-.48.09-.87-.08-.81s-.6.84-.51,1S97.46,61.68,97.53,61.41Zm-5.39-36.7c-.12.12-.08.26.2.65s.68.66.68.28a1.65,1.65,0,0,0-.37-.65C92.37,24.65,92.26,24.59,92.14,24.71Zm2.62,36.48c0-.21,0-.25.23-.19s.61-.3.59-.7-.26-.38-.51.11-.24.44-.29.18-.35-.49-.53-.31,0,.9.27,1S94.76,61.4,94.76,61.19Zm9.48,12.29a1.36,1.36,0,0,0-.54.46l-.32.42.45,0c.43,0,.44,0,.33.24s0,.52.34.52c.16,0,.3.06.3.13,0,.27.45.09.71-.29.42-.62.31-1-.22-.7a.31.31,0,0,1-.44,0,.38.38,0,0,0-.37-.12c-.15.06-.17,0-.11-.27S104.42,73.45,104.24,73.48ZM98.86,61.8c.42-.42.1-.59-.43-.23-.29.2-.39.33-.29.39C98.39,62.12,98.59,62.07,98.86,61.8ZM79.82,22c-.13,0-.19.13-.19.43s.11.54.29.35S80,22,79.82,22ZM92,27.47c-.15,0-.3.56-.19.74a.32.32,0,0,0,.49,0C92.43,28.07,92.19,27.47,92,27.47ZM84.12,22c0,.16.09.13.32-.1s.38-.72.18-.72S84.08,21.77,84.12,22Z"/><path class="cls-1" d="M95.77,51c.09-.35-.06-.45-.7-.45-.37,0-.43,0-.67-.56-.39-.82-.67-.95-.8-.38,0,.16-.15.29-.24.29s-.18.1-.19.24c0,.72,0,.71-.72.93l-.84.26c-.24.07-.1.33.2.4.6.14.23.31-1.17.55l-2.54.45c-1.2.22-1.49.17-1.49-.22a2.42,2.42,0,0,0-1-1.13,1.32,1.32,0,0,0-.18.56,1.1,1.1,0,0,1-.51.83c-.8.53-1.16.38-3.2-1.26l-1.11-.9.4-.33c.33-.27.37-.36.27-.53a1.13,1.13,0,0,0-.65-.3,1.26,1.26,0,0,1-1-1.15,5.64,5.64,0,0,0-.12-.89c-.32-1.52-.85-4.75-.82-5s.23-.43.57-.13.36.27.64.16.23-.29-.22-.94a2.92,2.92,0,0,1-.42-.72c0-.08.25-.34.54-.59.51-.41.54-.48.48-.86s0-.52.53-1.25C81.58,37,83.07,34.85,84,33.4a15.12,15.12,0,0,1,1.17-1.54,6.09,6.09,0,0,0,.76-.92c.18-.28.4-.5.49-.5s.29.21.46.47c.35.55.49.59.66.16a1.4,1.4,0,0,0,0-.89l-.17-.58.4-.31a.81.81,0,0,0,.4-.58c0-.26-.05-.29-.56-.29H87l-.4-.82c-.51-1.08-.84-1.09-.85,0,0,.81-.13,1.33-.34,1.32s-.16,0,0-.1c.28-.17,0-.24-.57-.12-1,.24-1.16.5-.38.89s.85.53.85.86a7.91,7.91,0,0,1-1.1,2c-2.47,3.71-3.42,5.1-4.37,6.32-.55.71-1.1.89-1.42.46-.56-.74-.72-.92-.82-.92s-.13,0-.4,1c-.2.74-.34.85-1.29,1-.25,0-.45.13-.46.19s.2.24.45.38.41.28.29.32a41.9,41.9,0,0,1-6.11.76s0-.21.13-.37.18-.31,0-.43a1.12,1.12,0,0,0-.44-.12,1.31,1.31,0,0,1-.58-.44c-.41-.47-.59-.46-.78,0-.06.16-.15.27-.2.24l-1.11-.53c-1.4-.67-1.42-.7-.76-1.44s.74-1-.4-.9L65,38l-.32-.58a14.15,14.15,0,0,1-1.14-2.52.63.63,0,0,0-.1-.31,9.81,9.81,0,0,1-.55-1.23c-.24-.62-.51-1.29-.6-1.48s-.38-.91-.64-1.57c-.41-1-.46-1.26-.33-1.45s.1-.3-.06-.58-.2-.36.09-.7c.44-.54.4-.83-.15-.88s-.47-.09-.71-.6c-.32-.67-.62-.75-.62-.16a1,1,0,0,1-.08.46,4.06,4.06,0,0,1-1.55-.77c-.19-.22.07-.6.69-1,.46-.29.62-.69.32-.8a2.66,2.66,0,0,0-.71,0c-.87.1-1.1,0-1.41-.65S56.43,22,56.29,22s-.14.26-.18.57c-.11.85-.24,1-.56.57-.15-.19-.46-.57-.71-.83a33.52,33.52,0,0,1-3.64-5.16,2.32,2.32,0,0,1,.59-.78c.68-.67.78-1,.27-.82a4.08,4.08,0,0,1-.9.11h-.57L50.35,15c-.4-1.2-.71-1.14-1,.19l-.21.93-1,0c-1.17,0-1.23.21-.28.78l.67.39.08.81c.08.72.11.81.34.81s.4-.19.65-.52.48-.52.6-.52a9.22,9.22,0,0,1,2.15,2.17c.22.31.57.77.77,1s.62.81.94,1.25L55,23.44a1.32,1.32,0,0,1,.27.47c0,.13-.19.17-1,.18s-.7.33,0,.66a6.54,6.54,0,0,1,.8.47l.3.23-.2.92c-.11.51-.21,1-.23,1.1s.06.19.19.22.42-.15.91-.7c.64-.71.68-.74,1-.59a1.39,1.39,0,0,1,.48.55c.2.43.71.83.9.71a1.32,1.32,0,0,1,.67.16c.54.24.54.25.46.72a1.59,1.59,0,0,0,0,.58c.12.18.52,0,.59-.25.13-.49.39,0,1.32,2.28.3.75.59,1.46.65,1.6s.38.92.72,1.77a5.38,5.38,0,0,1,.63,2.8v1.26l-.59.13c-.33.07-.73.15-.89.16-.55.06-.43.41.23.65a2,2,0,0,1,.6.27,22,22,0,0,1-2.57,1.12c-.14,0-.29,0-.34-.06s-.63-.08-1.05.08c-.17.07-1-1-1-1.27a3.17,3.17,0,0,0-.57-.84,11.26,11.26,0,0,1-1.06-1.54,11,11,0,0,0-1-1.51,2.76,2.76,0,0,1-.54-.84.88.88,0,0,1,.3-.47c.41-.38.35-.76-.12-.79l-.57,0a.23.23,0,0,1-.21-.21,1.42,1.42,0,0,0-.33-.61c-.3-.35-.36-.38-.59-.26a.52.52,0,0,0-.27.51c0,.82-.13,1-.76,1.09a26.84,26.84,0,0,1-4.8,0c-.48-.06-1.66-.17-2.6-.24-2-.15-2.72-.3-2.72-.58a.44.44,0,0,1,.22-.33c.16-.1.2-.23.16-.46s-.09-.31-.52-.24-.48.05-.67-.3c-.33-.62-.7-1-.83-.87a2,2,0,0,0-.18.73,3.56,3.56,0,0,1-.12.72,2.79,2.79,0,0,1-.92.13,5.52,5.52,0,0,0-1,.09c-.2.13-.07.38.27.52a1.3,1.3,0,0,1,.41.24,17.75,17.75,0,0,1-2.84,1.77c-.2.1-.63.34-.95.54s-.85.48-1.16.63L32.64,37a11,11,0,0,0-1,.51,17.6,17.6,0,0,1-3.85,1.82c-.26,0-.58,0-.7.05s-.28-.11-.48-.68-.29-.71-.47-.71-.26.12-.36.62c-.14.72-.24.81-1,.92-.59.08-.67.15-.43.39s.09.26-.46.38c-.85.2-1,.16-1.23-.42s-.63-.87-.78-.73a2.85,2.85,0,0,0-.14.63l-.08.57-.82,0a2,2,0,0,0-.86.12,2.21,2.21,0,0,0,.69.56c.72.46.72.46.65.92,0,.25-.11.67-.15.93s0,.48.12.48.27-.16.37-.35.5-.56.6-.45a5,5,0,0,1,.24,1.27c0,.29.16,1.07.29,1.71.59,3.06.83,4.39,1.06,5.87.27,1.72.65,3.93.9,5.27a28.75,28.75,0,0,1,.59,5c-.1.68-.47,1-1.26,1.24s-.73.41,0,.69l.53.19v.65a2.32,2.32,0,0,0,.09.78c.09.14.56.09.57-.06a2.23,2.23,0,0,1,.35-.48c.34-.4.35-.4.59-.19a.72.72,0,0,1,.24.38.81.81,0,0,0,.25.41c.32.32.6,1.06,1.1,2.94.22.82.48,1.75.58,2.08s.37,1.26.59,2.07.56,2,.73,2.61a9.09,9.09,0,0,1,.58,2.75c0,.73-.17.9-.91.94s-.85.29,0,.79l.65.4v.64c0,.55,0,.63.23.63a.93.93,0,0,0,.53-.38l.3-.39.36.4c.46.5.77.44.65-.13,0-.21-.09-.44-.1-.5,0-.25.58-.18,2,.24,2.66.79,3.68,1.1,6.9,2.11,1.76.55,3.4,1,3.64,1.08a1.08,1.08,0,0,1,.51.19,3.1,3.1,0,0,1-.08.88c-.12.65-.12.8,0,.89s.49-.06,1.27-.68a2.85,2.85,0,0,1,.58-.39,4.11,4.11,0,0,1,.71.48c.61.47,1.35.79,1.35.58a10.12,10.12,0,0,0-.29-1,6.55,6.55,0,0,1-.3-1.11,1.74,1.74,0,0,1,.47-.66,1.37,1.37,0,0,0,.48-.73c0-.26,0-.27-.74-.28a3,3,0,0,1-.89-.09,2.64,2.64,0,0,1-.42-.8c-.21-.55-.34-.71-.55-.74s-.48.14-.48.61c0,.66-.17.79-1,.79s-1.44.19-1.44.43a1.29,1.29,0,0,0,.3.5,1.7,1.7,0,0,1,.29.42c0,.27-2.25-.35-8.76-2.42l-2.88-.91c-.32-.1-.2-.52.24-.81s2.16-1,6.78-2.72a44.3,44.3,0,0,1,5.55-1.89,4.89,4.89,0,0,1-.29,1.45c-.13.46.28.31,1-.38l.72-.64.43.23c.23.13.65.4.93.6s.59.34.8.29c.37-.1.36-.16-.06-.79a8.07,8.07,0,0,1-.55-1l-.2-.51.55-.5c.59-.54.77-1,.37-.93L48,72l-.65.07L47,71.34c-.26-.5-.43-.71-.62-.74s-.27,0-.27.18a1.38,1.38,0,0,1-.16.52,3.17,3.17,0,0,0-.24.62c-.08.31-.11.32-.84.32a3.87,3.87,0,0,0-1.07.12c-.26.1-.29.15-.18.35a1.65,1.65,0,0,0,.6.48c.51.26.58.4.26.53l-1.63.61c-1.8.68-3.58,1.37-5.07,2a9.58,9.58,0,0,1-1.31.46,1.53,1.53,0,0,0-.45.17c-.18.09-.9.36-1.6.6s-1.37.49-1.48.54a3.4,3.4,0,0,1-.83.18l-.63.08-.21-.46c-.12-.25-.31-.64-.43-.87a51.81,51.81,0,0,1-1.61-5.27c-.22-.78-.56-2-.76-2.67s-.61-2.09-.89-3.13-.55-2-.59-2.09.05-.3.35-.55c.6-.49.53-.81-.15-.76-.49,0-.5,0-.8-.58a10.48,10.48,0,0,1-.95-3.78c-.17-1.14-.38-2.45-.47-2.9-.18-.91-1.11-6.16-1.25-7.11,0-.32-.23-1.34-.41-2.25-.36-2-.49-3.14-.33-3.14a.55.55,0,0,1,.26.15c.12.12.18.1.31-.07s.13-.28-.07-.65c-.28-.53-.28-.64,0-.87a5.63,5.63,0,0,1,2-.75c.08,0,.1.3.05.66-.07.53-.06.59.15.59s.28-.14.38-.42c.19-.53.47-.53.83,0s.34.47.6.3.15-.17,0-.51c-.26-.73-.21-.84.66-1.28.44-.23,1.7-.92,2.81-1.54,2.1-1.19,2.85-1.59,5.84-3.17,1-.53,1.94-1,2.11-1.16.45-.3.61-.06.36.57a1.65,1.65,0,0,0-.16.54c.1.1.88-.34,1.2-.67a1.28,1.28,0,0,1,.47-.36,2,2,0,0,1,.55.42c.39.38.46.41.68.28s.21-.19.1-.36-.09-.25,0-.29a9.53,9.53,0,0,1,2.7.07c.55.06,1.73.17,2.63.23a42.5,42.5,0,0,1,4.83.54c.11.06.13.32.08.89-.06.74-.05.79.16.74a.5.5,0,0,0,.29-.26,1.7,1.7,0,0,1,.43-.47l.35-.28.44.49a1.91,1.91,0,0,0,.57.48c.14,0,.61.48.8.82s1.29,2,1.64,2.38.31.45.18.87-.43.67-1.1.67-.57.4,0,.61.57.32.35,1.05a1.43,1.43,0,0,0-.1.71c.08.14.46,0,.84-.38.54-.49,1.07,0,1.89,1.94.57,1.3.56,1.38-.13,1.42l-1,.08c-.37.05-.08.39.63.75l.79.39-.08.72c0,.39-.11.85-.15,1-.08.43.15.38.79-.16a2.87,2.87,0,0,1,.86-.52c.31-.06.42,0,.85.41a1.33,1.33,0,0,0,.82.49c.35,0,.39-.12.17-.51a4.23,4.23,0,0,1-.44-1.28c0-.11.12-.23.28-.27.36-.09,1-.7,1-.94s-.14-.2-.45-.22-.39-.07,1.81-1.53c2.86-1.89,3-2,3-1.6s.46.09.67-.24.37-.35,1,.08c.44.32.52.35.73.21s.2-.19.06-.39c-.37-.49-.23-.62.87-.82.57-.1,1.65-.26,2.39-.36l2.24-.3a3.81,3.81,0,0,1,1-.06.74.74,0,0,1,.11.46c0,.35,0,.39.29.34a1.05,1.05,0,0,0,.49-.28c.4-.44.46-.32.71,1.38.09.61.26,1.64.36,2.27.32,1.93.33,2.13.11,2.35a.76.76,0,0,0-.18.51c0,.74.06.72-.83.72-1.06,0-1.08.14-.15.75.28.18.5.38.5.45a6.65,6.65,0,0,1-.35.94c-.42.94-.42,1-.15.9a.5.5,0,0,1,.38,0c.15.09.14.19-.08.68-.14.31-.58,1.37-1,2.34s-.88,2.07-1.06,2.43c-.28.56-.34.62-.42.42a3.29,3.29,0,0,0-.33-.58L75,57.4l-.22.27a1,1,0,0,0-.22.46,4.22,4.22,0,0,1-.12.65c-.15.52-.49.71-1.5.85a1.53,1.53,0,0,0-.75.24c-.12.14,0,.21.38.4a4.87,4.87,0,0,1,1,.63c.44.38.46.42.33.81a8.41,8.41,0,0,0-.21,1c-.1.82.08.82.91,0a3.83,3.83,0,0,1,.75-.65,3.59,3.59,0,0,1,.71.5l.82.68a3.09,3.09,0,0,1,.5.72,2.76,2.76,0,0,0,.47.7c.24.2.93,1.54.8,1.56l-.62,0c-.77,0-.75.29.07.78l.67.4-.07.75c-.06.67,0,.74.13.67a1.35,1.35,0,0,0,.32-.18l.54-.4L80,68l.25.29c.14.16.34.41.43.54s.25.22.37.17.24-.19,0-.76-.3-.64,0-1.1a2.46,2.46,0,0,0,.36-.7c.08-.33.07-.33-.52-.31a2.2,2.2,0,0,1-.64,0,4.54,4.54,0,0,1-.33-.63c-.34-.71-.53-.79-.73-.31l-.15.37-.24-.27a16.91,16.91,0,0,1-1.13-1.61,19.32,19.32,0,0,1-1.16-2.39c-.13-.41-.12-.42.58-1.07a2.75,2.75,0,0,0,.77-1c.08-.34.08-.34-.37-.26l-.91.15-.47.07.07-.42c.07-.43,2.71-6.66,3-7.18l.18-.28.61.66c.58.62.63.65.81.45a.76.76,0,0,0,.19-.35c0-.33.59,0,1.89,1a7.16,7.16,0,0,0,1.15.75c.67.32.75.49.6,1.26-.09.47-.09.66,0,.77s.17.09.26-.07a.45.45,0,0,1,.35-.21c.12,0,.23,0,.23-.09a2.26,2.26,0,0,1,.29-.44l.29-.35.53.52c.44.43.56.49.71.37s.13-.21-.17-.69a2.44,2.44,0,0,1-.35-.73c0-.32.73-.68,1.89-1l1.49-.36c.33-.1,2.34-.48,2.55-.48,0,0,.07.27,0,.6s0,.59,0,.59a.92.92,0,0,1,.3.07c.11,0,.21,0,.26-.17a1.93,1.93,0,0,1,.36-.54l.29-.31.43.47c.34.38.5.47.74.44s.34-.05.15-1c-.12-.57-.11-.67.09-.89A1.43,1.43,0,0,0,95.77,51ZM85.9,29.21a.59.59,0,0,0,.36-.5c0-.16,0-.29.12-.29s.11.11.11.23a.71.71,0,0,0,.2.43c.15.15.17.21,0,.29a.55.55,0,0,1-.36,0,.28.28,0,0,0-.29.08c-.1.15-.19.16-.39,0S85.66,29.35,85.9,29.21Zm-35.77-12c-.12,0-.32.19-.45.42-.33.56-.52.53-.47-.08,0-.44,0-.5-.35-.68s-.4-.37,0-.37a.48.48,0,0,0,.4-.24A.41.41,0,0,1,49.6,16a.28.28,0,0,0,.23-.15c.05-.12.09-.11.14,0,.16.35.51.59.75.53s.24,0,.24,0A1.63,1.63,0,0,1,50.13,17.17Zm6.64,8.43h0a1.29,1.29,0,0,0-.7.44l-.39.43.07-.39c0-.21.09-.53.13-.71s0-.36-.24-.5-.39-.36,0-.36.76-.2.76-.59.19-.44.48.12.35.52.92.48c.14,0,.26,0,.26.06A2.81,2.81,0,0,1,56.77,25.6Zm1.58,1.22a.29.29,0,0,1,0-.26c.12-.11.69.19.61.32A.39.39,0,0,1,58.35,26.82Zm1.09.67c0-.07-.06-.14,0-.14l.32-.06a.64.64,0,0,0,.37-.18c0-.07.13-.05.23.07s.13.21.09.24A1.28,1.28,0,0,1,59.44,27.49ZM44.12,81.89a.2.2,0,0,1,.21,0,5.6,5.6,0,0,0,1.8.12.67.67,0,0,0,.27-.48c.09-.51.3-.48.48.07s.29.55.92.65.56.21.09.49-.42.26-.18,1c.29.94.22,1-.44.36a1.64,1.64,0,0,0-.61-.41c-.09,0-.36.24-.6.53-.65.79-.75.73-.54-.29l.1-.54-.79-.73C44.4,82.3,44.08,81.93,44.12,81.89Zm1.22-9.07c.52,0,.89-.17.89-.35a.66.66,0,0,1,.21-.32c.21-.21.22-.21.42,0a.67.67,0,0,0,.55.28c.49,0,.53.17.12.52l-.37.3.27.47c.15.26.23.51.18.56s-.34,0-.63-.19l-.55-.29-.27.32c-.38.44-.44.41-.36-.19l.08-.5-.55-.27c-.31-.15-.53-.29-.5-.32A1.84,1.84,0,0,1,45.34,72.82ZM30.6,78.89c.25-.33.27-.34.47-.13a.5.5,0,0,0,.46.15c.31-.08.32.09,0,.35a.65.65,0,0,0-.24.38c0,.13-.12.18-.4.18C30.37,79.82,30.23,79.39,30.6,78.89ZM25.74,62.41c0-.44.21-.46.31,0a1.28,1.28,0,0,0,.36.58l.3.25-.32.25a1.19,1.19,0,0,1-.54.26.39.39,0,0,0-.29.11c-.11.18-.29.15-.29,0a.31.31,0,0,0-.18-.24c-.31-.12-.19-.43.23-.61S25.74,62.7,25.74,62.41Zm-2.95-21a.38.38,0,0,1-.38.12c-.16,0-.26,0-.36.24s-.18.3-.24.3-.07-1,.08-1.09a.81.81,0,0,1,.83.07C22.91,41.16,22.92,41.22,22.79,41.38Zm4-1.09a1.43,1.43,0,0,1-1-.38c0-.07.05-.12.22-.12a.47.47,0,0,1,.37.13.79.79,0,0,0,.33.22C26.9,40.2,26.92,40.24,26.79,40.29Zm13.81-7c-.16,0-.29.12-.29.19s-.31.13-.52-.1-.17-.23.22-.38a.92.92,0,0,0,.47-.33c.06-.15.1-.14.24,0S40.94,33.24,40.6,33.33ZM54,34.64a1.16,1.16,0,0,1-.5.3.41.41,0,0,0-.3.23h0c-.17.31-.4.31-.3,0a.53.53,0,0,0-.07-.43c-.12-.14-.12-.25,0-.55a2.41,2.41,0,0,0,.23-.62.26.26,0,0,1,.21-.23.25.25,0,0,1,.21.23c.11.7.15.77.48.77h.32Zm4.08,7.28c-.56.51-.81.55-.91.16-.06-.22,0-.36.08-.45a1.13,1.13,0,0,0,.29-.48c.13-.4.43-.47.49-.11a.71.71,0,0,0,.23.38C58.45,41.56,58.44,41.61,58.1,41.92Zm5.3-2.84c.32,0,.36,0,.36-.38a2.09,2.09,0,0,1,.16-.74l.14-.35.36.53c.33.48.4.52.79.49s.44,0,.44.06a2.61,2.61,0,0,1-1,1c-.1,0-.32.22-.48.48a2,2,0,0,1-.35.47c-.14,0-.19-.28-.12-.6s-.09-.7-.43-.7c-.13,0-.23-.06-.23-.12S63.2,39.08,63.4,39.08Zm-1.57,8.47c-.43.21-.58.55-.32.71a.27.27,0,0,1,.11.19c0,.07-.11,0-.26-.06-.38-.27-.52-.24-.8.23s-.66.72-.75.56a1.72,1.72,0,0,1,.17-1c.16-.2-.16-.76-.43-.76-.1,0-.18,0-.18-.11s.44-.28.6-.18.68-.06.81-.44.19-.4.47.16a.7.7,0,0,0,.61.46l.41.07Zm1.08-1.71a3.38,3.38,0,0,0-.76.54c-.24.26-.28.27-.45.11a1.35,1.35,0,0,1-.25-.51,2,2,0,0,0-.36-.68c-.29-.35-.3-.35-.47-.13a.92.92,0,0,0-.18.48.85.85,0,0,1-.11.4c-.12.19-.21.08-.44-.52-.07-.19-.36-.84-.62-1.45-.41-.92-.48-1.18-.41-1.58a.9.9,0,0,1,.35-.65,23.26,23.26,0,0,1,3.92-1.53c.12,0,.15.17.1.42-.21,1.12-.22,1,.06,1s.43-.25.73-.65a3.12,3.12,0,0,1,.63-.7,2,2,0,0,1,.83.42c.57.41.7.46.89.34a.31.31,0,0,0,.16-.35c-.09-.27,0-.26.51,0s.49.42.15.53-.28.38.25.72c.26.16.46.34.44.4S63.51,45.53,62.91,45.84Zm6.27-3.7a.53.53,0,0,1-.74,0c-.17-.17-.15-.22.18-.53s.41-.32.54-.22A.62.62,0,0,1,69.18,42.14ZM78.36,41a1.18,1.18,0,0,0-.54.31c-.3.29-.33.3-.33.09s-.37-.64-.59-.64-.1-.22.24-.34a.68.68,0,0,0,.42-.34c0-.11.12-.34.19-.5l.12-.3.23.44c.18.34.3.45.54.45s.3,0,.12.21a.77.77,0,0,0-.2.42A.2.2,0,0,1,78.36,41ZM80,66.61a.72.72,0,0,0,.41.18c.17,0,.19,0,.06.18a.45.45,0,0,1-.25.18,1.55,1.55,0,0,0-.51.3c-.44.34-.56.37-.46.11a.51.51,0,0,0-.14-.42c-.12-.12-.19-.24-.16-.26C79.6,66.48,79.78,66.44,80,66.61Zm-6.31-6.1c-.29-.17-.25-.31.11-.4s.56,0,.45.33S74,60.68,73.67,60.51Zm2.52-.79c.63-.08.63.16,0,.69s-.57.58-.22,1.06.2.57-.35.19a2,2,0,0,0-.59-.31c-.08,0-.23.19-.35.43-.27.56-.57.7-.45.2a1,1,0,0,1,.23-.46,3.43,3.43,0,0,0,.31-1.18c.19-1.41.24-1.48.63-1S75.75,59.78,76.19,59.72Zm4-9.44a.33.33,0,0,0-.12.4c.1.31.06.31-.26,0s-.29-.24-.45-.1-.21.12-.36-.07-.22-.33.16-.74.34-.34.47-.13a.5.5,0,0,0,.37.23C80.3,49.86,80.41,50.1,80.16,50.28Zm6,3.6h0a.67.67,0,0,0-.33.22c-.19.21-.21.21-.52-.09s-.41-.48,0-.48a.64.64,0,0,0,.46-.27l.18-.26.26.27C86.39,53.54,86.39,53.88,86.13,53.88Zm7.93-2.13c-.19,0-.34.06-.34.12s-.23.13-.58-.06l-.29-.16.45-.18c.57-.24,1.48-.26,1.48,0S94.53,51.75,94.06,51.75Z"/></g></g></svg>