<svg xmlns="http://www.w3.org/2000/svg" viewBox="0 0 104.96 117.86"><title>Asset 548</title><g id="Layer_2" data-name="Layer 2"><g id="Layer_1-2" data-name="Layer 1"><path d="M41.72,109.8h.85l-3,7.86h-.84l-3-7.86h.87l2.55,6.83h0Zm1.93,7.86h.8V109.8h-.8Zm5.87-3.74,2.3,3.74h-1L48.67,114H47.34v3.67h-.8V109.8h2.31a5.17,5.17,0,0,1,1.07.11,2.25,2.25,0,0,1,.85.36,1.79,1.79,0,0,1,.57.65,2.22,2.22,0,0,1,.2,1,2,2,0,0,1-.16.79,1.85,1.85,0,0,1-.42.61,1.87,1.87,0,0,1-.64.42A2.84,2.84,0,0,1,49.52,113.92Zm-.79-.62a2.65,2.65,0,0,0,1.48-.35,1.17,1.17,0,0,0,.53-1,1.34,1.34,0,0,0-.15-.66,1.27,1.27,0,0,0-.4-.43,1.82,1.82,0,0,0-.62-.24,3.48,3.48,0,0,0-.81-.08H47.34v2.81Zm8.44,1H59v2.39a3.17,3.17,0,0,1-.9.37,5.17,5.17,0,0,1-1.22.14,3.27,3.27,0,0,1-1.36-.27,3.15,3.15,0,0,1-1-.75,3.28,3.28,0,0,1-.65-1.08,3.84,3.84,0,0,1-.23-1.31,3.8,3.8,0,0,1,.23-1.31,3.23,3.23,0,0,1,.65-1.09,2.89,2.89,0,0,1,1-.75,3.12,3.12,0,0,1,1.36-.28,3.31,3.31,0,0,1,1.3.24,2.86,2.86,0,0,1,1,.67l.56-.55a3.44,3.44,0,0,0-1.2-.79,4.33,4.33,0,0,0-1.64-.28,4.15,4.15,0,0,0-1.63.31,4,4,0,0,0-1.3.86,3.93,3.93,0,0,0-.86,1.31,4.22,4.22,0,0,0-.31,1.65,4.49,4.49,0,0,0,.3,1.66,4.12,4.12,0,0,0,.85,1.3,3.83,3.83,0,0,0,1.3.86,4.25,4.25,0,0,0,1.65.31,6.07,6.07,0,0,0,1.54-.19,4.87,4.87,0,0,0,1.39-.58v-3.55H57.17Zm12.45-.52a4.5,4.5,0,0,1-.31,1.66,4.15,4.15,0,0,1-.86,1.3,3.83,3.83,0,0,1-1.3.86,4.44,4.44,0,0,1-3.26,0,3.83,3.83,0,0,1-1.3-.86,4.15,4.15,0,0,1-.86-1.3,4.3,4.3,0,0,1-.31-1.66,4.22,4.22,0,0,1,.31-1.65,4.08,4.08,0,0,1,.86-1.31,4,4,0,0,1,1.3-.86,4.44,4.44,0,0,1,3.26,0,4,4,0,0,1,1.3.86,4.08,4.08,0,0,1,.86,1.31A4.41,4.41,0,0,1,69.62,113.73Zm-.85,0a3.79,3.79,0,0,0-.22-1.31,3.2,3.2,0,0,0-.64-1.09,3,3,0,0,0-1-.75,3.44,3.44,0,0,0-2.72,0,2.89,2.89,0,0,0-1,.75,3.05,3.05,0,0,0-.64,1.09,3.8,3.8,0,0,0-.23,1.31,3.84,3.84,0,0,0,.23,1.31,3.1,3.1,0,0,0,.64,1.08,3.15,3.15,0,0,0,1,.75,3.27,3.27,0,0,0,1.36.27,3.3,3.3,0,0,0,1.36-.27,3.13,3.13,0,0,0,1.67-1.83A3.83,3.83,0,0,0,68.77,113.74Z"/><path d="M55.9,76.53a3.76,3.76,0,0,0-2.09-3.36,3.17,3.17,0,0,0,1.72-2.34l-.82-.12a2.61,2.61,0,0,1-5.1,0l-.83.12a3.22,3.22,0,0,0,1.72,2.34,3.75,3.75,0,0,0,1.24,7.08v2.14H50v.84h1.76v2.24h.84V83.23h1.76v-.84H52.58V80.25A3.75,3.75,0,0,0,55.9,76.53Zm-6.65,0a2.91,2.91,0,1,1,2.91,2.91A2.92,2.92,0,0,1,49.25,76.53Z"/><path d="M71.9,87.77c-4-5.17-3.05-12-2-19.84.66-4.79,1.37-10,.94-15.23,6.44-13.39,4.17-22.53.86-28A24.16,24.16,0,0,0,62.42,16a19.9,19.9,0,0,0-9.9-2.57,20.68,20.68,0,0,0-11.87,4.18,28.31,28.31,0,0,0-7.29,8.87c-2.62,3.95-3.54,9-2.7,15.18a46.72,46.72,0,0,0,3,11A76.49,76.49,0,0,0,34.81,67.9C36,76.14,37,83.27,32.8,87.57l-.45.32.52.33a55.39,55.39,0,0,0,6.31,3.42C45.3,94.48,49.51,95.07,52,95.07h.44c2.46,0,6.67-.6,12.79-3.43a56.13,56.13,0,0,0,6.32-3.42l.52-.33-.15-.11Zm-2.8-20c-.94,6.84-1.83,13.34.88,18.52-.61-.53-1.2-1.09-1.77-1.69a24.35,24.35,0,0,1-3.56-15.72,28.89,28.89,0,0,1,3.63-11.41c.67-1.13,1.29-2.24,1.85-3.31A76.12,76.12,0,0,1,69.1,67.81ZM39.22,53.23l-.16-.35a50.85,50.85,0,0,1-2.66-9c.1-.26.21-.52.33-.79,1.94-4.36,6.07-8,9.2-10.36a50,50,0,0,1,6.24-3.94,50.41,50.41,0,0,1,6.26,3.94c3.14,2.32,7.29,6,9.23,10.36q.28.66.54,1.32a47.34,47.34,0,0,1-2.6,8.47l-.15.33a21.43,21.43,0,0,1-5.7,8.25l-.37.31c-2.11,1.72-4.5,3.67-6.94,3.62h-.23c-2.46,0-4.88-1.93-7-3.69l-.34-.28A21.33,21.33,0,0,1,39.22,53.23Zm5.27,9a35.23,35.23,0,0,1-4.75,17.54C42.53,68,38.91,61.26,36.68,57.1c-.41-.77-1.24-2.4-2.13-4.58a29.4,29.4,0,0,1,1.32-7.19,46.86,46.86,0,0,0,2.43,7.89l.15.35a22.08,22.08,0,0,0,5.87,8.49Zm15.42.21.37-.3a22.21,22.21,0,0,0,5.94-8.56l.14-.33a42.94,42.94,0,0,0,2.35-7.33A30.69,30.69,0,0,1,70,52.54q-1.06,2.2-2.46,4.54a29.87,29.87,0,0,0-3.74,11.76,25.46,25.46,0,0,0,1.73,12.47,30.58,30.58,0,0,1-2.78-5.16A36.46,36.46,0,0,1,59.9,62.42ZM41.16,18.26a19.82,19.82,0,0,1,11.4-4A19,19,0,0,1,62,16.72a23.18,23.18,0,0,1,9,8.39c2.92,4.83,5,12.61.6,23.81A26.44,26.44,0,0,0,58.42,21.7a23.62,23.62,0,0,0-12-3.23,16.13,16.13,0,0,0-7.72,2A20.91,20.91,0,0,1,41.16,18.26ZM58,22.42A26.18,26.18,0,0,1,68.64,33.8a26.59,26.59,0,0,1,1.93,16.32,29.23,29.23,0,0,0-2.15-7.37C64.77,34.53,54,28.79,52.51,28a8.08,8.08,0,0,0-5-6.83,11.4,11.4,0,0,0-9,.44C43.64,18.3,51.15,18.53,58,22.42ZM31.49,41.53c-.8-5.91.06-10.79,2.55-14.57h0a16.44,16.44,0,0,1,3.28-3.61A10.43,10.43,0,0,1,47.18,22a7.14,7.14,0,0,1,4.5,6.13c-1.93,1-12.17,6.66-15.72,14.65a27.42,27.42,0,0,0-2.1,8A44.68,44.68,0,0,1,31.49,41.53Zm4.14,26.25a87.49,87.49,0,0,1-1.16-13.31c.62,1.4,1.16,2.45,1.47,3,2.33,4.33,6.2,11.56,2.32,24.51a25.9,25.9,0,0,1-3,3.52C37.49,81,36.62,74.78,35.63,67.78ZM52.41,94.23H52c-7.18,0-15.93-5-18.13-6.38A23.86,23.86,0,0,0,39,82.52h0a36.94,36.94,0,0,0,6.33-19.65c2,1.67,4.33,3.36,6.79,3.36h.45c2.36,0,4.54-1.55,6.52-3.13A37.43,37.43,0,0,0,62,76.47a27.41,27.41,0,0,0,8.54,11.38C68.34,89.19,59.6,94.23,52.41,94.23Zm-1.5-62.57A1.35,1.35,0,1,1,52.26,33,1.35,1.35,0,0,1,50.91,31.66Zm1.39,5.49a1,1,0,1,1,1-1A1,1,0,0,1,52.3,37.15Zm0,1.94a.62.62,0,1,1-.62.61A.61.61,0,0,1,52.3,39.09Zm-5,17.09.5.62a5.08,5.08,0,0,1,.61,1,7.63,7.63,0,0,0,.68,1.15,4.25,4.25,0,0,0,3,1.48h.14a4.21,4.21,0,0,0,3-1.48A7.76,7.76,0,0,0,56,57.79a4.59,4.59,0,0,1,.6-1l.51-.62-.8-.06a3.93,3.93,0,0,1-2-.69,1.27,1.27,0,0,0-.74-.23,1.88,1.88,0,0,0-.59.11,3.17,3.17,0,0,0-.36.16.78.78,0,0,1-.35.11h-.11a.82.82,0,0,1-.34-.11,1.93,1.93,0,0,0-.35-.15,1.73,1.73,0,0,0-.6-.12,1.29,1.29,0,0,0-.74.23,3.93,3.93,0,0,1-2,.69Zm3.25,0a.43.43,0,0,1,.27-.1,1.17,1.17,0,0,1,.33.08l.26.11a1.54,1.54,0,0,0,.71.19h.12a1.52,1.52,0,0,0,.69-.2,2.18,2.18,0,0,1,.27-.11,1,1,0,0,1,.32-.08.45.45,0,0,1,.28.1,4.68,4.68,0,0,0,1.69.72c-.11.19-.21.37-.3.56a7,7,0,0,1-.61,1,3.32,3.32,0,0,1-2.35,1.15h-.11a3.37,3.37,0,0,1-2.36-1.15,7,7,0,0,1-.61-1c-.09-.19-.19-.37-.3-.56A4.65,4.65,0,0,0,50.57,56.13Zm1.53,2.3a3.6,3.6,0,0,1-2.55-1.18l.59-.6c1.27,1.27,2.64,1.27,4,0l.56.62A4,4,0,0,1,52.1,58.43ZM40.76,42.17l-.65-.54a6.44,6.44,0,0,1,4.24-2.16A6.17,6.17,0,0,1,49,41.6l-.59.59a5.39,5.39,0,0,0-4-1.88A5.62,5.62,0,0,0,40.76,42.17Zm8,2.32a5.4,5.4,0,0,1-3.89,1.92h-.06a5.66,5.66,0,0,1-3-1,2.87,2.87,0,0,1-2.25,1,3.6,3.6,0,0,1-.9-.12l.21-.81A2.18,2.18,0,0,0,41.07,45l-.28-.25.6-.59a5.34,5.34,0,0,0,3.44,1.46,4.58,4.58,0,0,0,3.28-1.65Zm2.44,8.07-.68-.06.36-.58c.88-1.44,1-5.43.18-7.36l.78-.32a12.41,12.41,0,0,1,0,7.53,2.12,2.12,0,0,1,1.64.73l-.7.46c-.19-.3-.9-.35-1.37-.38ZM67.93,86.78a.28.28,0,1,1-.28-.28A.27.27,0,0,1,67.93,86.78Zm-1.89,1a.5.5,0,1,1-.49-.49A.49.49,0,0,1,66,87.81Zm-2,1a.66.66,0,0,1-.67.66.66.66,0,1,1,0-1.32A.66.66,0,0,1,64.07,88.76ZM62,89.6a.79.79,0,0,1-.8.79.79.79,0,1,1,0-1.58A.79.79,0,0,1,62,89.6Zm-2.14.71a.89.89,0,1,1-.89-.89A.89.89,0,0,1,59.87,90.31Zm-2.21.55a1,1,0,1,1-1-1A1,1,0,0,1,57.66,90.86Zm-2.29.35a1,1,0,1,1-1-1A1,1,0,0,1,55.37,91.21ZM53,91.28a1,1,0,1,1-1-1A1,1,0,0,1,53,91.28Zm-2.35-.19a1,1,0,1,1-1-1A1,1,0,0,1,50.69,91.09Zm-2.35-.44a.95.95,0,1,1-.94-.94A.94.94,0,0,1,48.34,90.65ZM46,90a.87.87,0,1,1-.87-.87A.87.87,0,0,1,46,90Zm-2.31-.77a.78.78,0,1,1-.78-.77A.77.77,0,0,1,43.7,89.25Zm-2.32-.88a.63.63,0,0,1-.63.63.64.64,0,0,1-.63-.63.63.63,0,0,1,.63-.63A.63.63,0,0,1,41.38,88.37Zm-2.3-1a.45.45,0,0,1-.45.45.45.45,0,1,1,0-.9A.45.45,0,0,1,39.08,87.38Zm-2.31-1.07a.23.23,0,0,1-.23.22.22.22,0,0,1-.22-.22.23.23,0,0,1,.22-.23A.24.24,0,0,1,36.77,86.31ZM63.84,42.17h0l.32-.27Zm-7.64,0-.6-.59a6.19,6.19,0,0,1,4.65-2.13,6.4,6.4,0,0,1,4.23,2.16l-.64.54a5.66,5.66,0,0,0-3.64-1.86A5.37,5.37,0,0,0,56.2,42.19Zm7.64,0Zm1.94,3.36.22.81a3.67,3.67,0,0,1-.91.12,2.91,2.91,0,0,1-2.25-1,5.6,5.6,0,0,1-3,1h-.06a5.38,5.38,0,0,1-3.88-1.92l.61-.57a4.56,4.56,0,0,0,3.28,1.65h0a5.4,5.4,0,0,0,3.39-1.46l.6.59-.29.25A2.19,2.19,0,0,0,65.78,45.53Z"/><path d="M73,9.6,76.53,7H72.16L70.81,2.86,69.45,7H65.08L68.62,9.6l-1.36,4.16,3.55-2.57,3.54,2.57Zm-2.18.55-2,1.42.74-2.29L67.65,7.86h2.41l.75-2.29.74,2.29H74L72,9.28l.74,2.29Z"/><path d="M78.85,70.73l-1.11-3.41-1.11,3.41H73l2.9,2.11-1.1,3.4,2.9-2.1,2.9,2.1-1.11-3.4,2.9-2.11ZM79,74.05l-1.3-1-1.31,1,.5-1.53-1.31-1h1.62l.5-1.53.5,1.53h1.61l-1.3,1Z"/><path d="M98.09,25H94.5l-1.1-3.41L92.29,25H88.7l2.9,2.1-1.1,3.41,2.9-2.1,2.9,2.1-1.11-3.41ZM93.4,27.35l-1.31.95.5-1.54-1.31-1H92.9l.5-1.53.5,1.53h1.61l-1.3,1,.49,1.54Z"/><path d="M33.86,7,32.5,2.86,31.15,7H26.77L30.31,9.6,29,13.76l3.54-2.57L36,13.76,34.69,9.6,38.23,7Zm.59,4.55-2-1.42-1.94,1.42.74-2.29L29.35,7.86h2.41l.74-2.29.75,2.29h2.41L33.71,9.28Z"/><path d="M12.68,25l-1.11-3.41L10.46,25H6.88l2.89,2.1-1.1,3.41,2.9-2.1,2.9,2.1-1.11-3.41,2.9-2.1Zm.19,3.32-1.3-.95-1.31.95.5-1.54-1.31-1h1.62l.5-1.53.5,1.53h1.61l-1.3,1Z"/><path d="M26.68,70.73l-1.11-3.41-1.11,3.41H20.88l2.9,2.11-1.11,3.4,2.9-2.1,2.9,2.1-1.11-3.4,2.9-2.11Zm.2,3.32-1.31-1-1.31,1,.5-1.53-1.3-1h1.61l.5-1.53.5,1.53h1.62l-1.31,1Z"/><path d="M54.66,99.5l1.39-2-2.3.82-.23-2.43L52.29,98l-1.74-1.71.41,2.4-2.43-.2,1.85,1.58-2,1.42h2.44l-.61,2.36,1.87-1.55,1,2.2.44-2.4,2.22,1L54.59,101l2.35-.65Zm-.87,1.78-.84-.39-.17.91-.39-.83-.71.58.24-.89H51l.74-.54-.7-.59.92.07-.15-.9.65.64.47-.79.08.92.87-.31-.52.75.86.32-.89.25Z"/><path d="M87.21,85.94l1.38-2-2.29.82-.23-2.43-1.24,2.11L83.1,82.71l.4,2.41-2.43-.2,1.86,1.58-2,1.41,2.44,0-.62,2.36,1.88-1.56,1,2.21.44-2.4,2.21,1-1.2-2.12,2.35-.65Zm-.88,1.77-.83-.38-.17.9-.39-.83-.71.59.23-.89h-.92l.75-.53-.7-.59.92.07-.15-.91.65.65.47-.79.08.91.87-.31-.52.76.86.32-.89.24Z"/><path d="M101.89,62.86,99.6,62,101,60l-2.3.82-.23-2.43-1.23,2.1-1.74-1.71.41,2.4L93.47,61l1.86,1.59-2,1.41h2.44l-.62,2.36L97,64.8l1,2.2.44-2.39,2.22,1-1.2-2.12Zm-3.16.92-.84-.39-.16.91-.4-.83-.7.58.23-.88h-.92l.75-.53L96,62l.92.08-.16-.91.66.65.46-.8L98,62l.86-.31-.52.76.86.32-.88.24Z"/><path d="M89.32,40.57l-2.75,1-.27-2.9-1.47,2.51-2.08-2L83.24,42l-2.91-.24,2.22,1.89-2.38,1.69,2.92,0-.74,2.82,2.25-1.86,1.25,2.63.52-2.86L89,47.29l-1.44-2.53L90.39,44l-2.73-1Zm-1.65,3.3-1.35.37L87,45.45l-1.27-.58-.25,1.37L84.89,45l-1.07.89.35-1.35H82.78l1.13-.81-1.06-.9,1.39.11L84,41.53l1,1,.71-1.2.13,1.39,1.31-.47-.79,1.15Z"/><path d="M49.48,6.7l-.73,2.82L51,7.66l1.25,2.63.53-2.86,2.65,1.21L54,6.11l2.81-.77-2.73-1,1.65-2.4L53,2.9,52.7,0,51.22,2.51l-2.07-2,.48,2.87-2.9-.24L49,5,46.57,6.68Zm-.23-2.55,1.39.11-.23-1.37,1,1,.71-1.21.12,1.39,1.32-.47-.79,1.15,1.3.49-1.34.37.69,1.21-1.27-.58-.25,1.37-.6-1.26-1.07.89.35-1.35h-1.4l1.14-.81Z"/><path d="M21.2,86.5l1.86-1.58-2.43.2L21,82.71,19.3,84.43l-1.23-2.11-.23,2.43-2.3-.82,1.39,2-2.29.85,2.36.65-1.21,2.12,2.22-1,.44,2.4,1-2.21,1.88,1.56-.61-2.36,2.43,0ZM19.91,88l-.71-.59-.4.83-.16-.9-.84.38.46-.8-.89-.24.86-.32-.52-.76.86.31.09-.91.46.79.66-.65-.15.91.91-.07-.7.59.75.53h-.92Z"/><path d="M8,62.57,9.84,61l-2.43.2.4-2.4L6.08,60.49l-1.23-2.1-.23,2.43L2.32,60l1.39,2-2.29.85,2.35.64-1.2,2.12,2.21-1L5.23,67l1-2.2,1.88,1.55L7.53,64H10Zm-1.3,1.48L6,63.47l-.39.83-.17-.91-.83.39L5,63l-.88-.24L5,62.42l-.52-.76.86.31.09-.92.46.8.66-.65-.16.91L7.32,62l-.7.6.75.53H6.45Z"/><path d="M16.94,46.08l.52,2.86,1.25-2.63L21,48.17l-.74-2.82,2.91,0-2.37-1.69L23,41.75l-2.9.24.49-2.88-2.08,2L17,38.65l-.27,2.9-2.75-1L15.65,43l-2.73,1,2.81.77-1.44,2.53Zm-1.3-2.21L17,43.38l-.79-1.15,1.31.47.13-1.39.71,1.2,1-1-.23,1.38,1.39-.11-1.07.9,1.14.81H19.14l.35,1.35L18.41,45l-.59,1.26-.25-1.37-1.27.58L17,44.24Z"/><path d="M105,49.42l-2.75.49-.48,2.75-.49-2.75-2.75-.49,2.75-.49.49-2.75.48,2.75Z"/><path d="M84.89,15.54l2.75.49-2.75.48-.49,2.76-.49-2.76L81.16,16l2.75-.49.49-2.75Z"/><path d="M96,75.5l2.75.49L96,76.47l-.48,2.76-.49-2.76L92.31,76l2.75-.49.49-2.75Z"/><path d="M71.56,95.25l3.45.61-3.45.61-.62,3.46-.61-3.46-3.45-.61,3.45-.61.61-3.46Z"/><path d="M6.48,49.42l-2.75.49-.49,2.75-.49-2.75L0,49.42l2.75-.49.49-2.75.49,2.75Z"/><path d="M19.4,15.54l2.75.49-2.75.48-.49,2.76-.49-2.76L15.67,16l2.75-.49.49-2.75Z"/><path d="M9.91,75.5l2.75.49-2.75.48-.49,2.76-.49-2.76L6.18,76l2.75-.49.49-2.75Z"/><path d="M33,95.25l3.45.61L33,96.47l-.62,3.46-.61-3.46-3.45-.61,3.45-.61.61-3.46Z"/><path d="M98.94,36a1.77,1.77,0,1,0,1.77,1.77A1.77,1.77,0,0,0,98.94,36Zm0,2.87a1.1,1.1,0,1,1,1.1-1.1A1.1,1.1,0,0,1,98.94,38.91Z"/><path d="M81.34,57a1.77,1.77,0,1,0,1.77,1.77A1.77,1.77,0,0,0,81.34,57Zm0,2.87a1.1,1.1,0,0,1,0-2.2,1.1,1.1,0,1,1,0,2.2Z"/><path d="M80.19,28a1.77,1.77,0,1,0-1.77,1.77A1.76,1.76,0,0,0,80.19,28Zm-1.77,1.1a1.1,1.1,0,1,1,1.1-1.1A1.1,1.1,0,0,1,78.42,29.05Z"/><path d="M4.37,36a1.77,1.77,0,1,0,1.77,1.77A1.77,1.77,0,0,0,4.37,36Zm0,2.87a1.1,1.1,0,1,1,1.1-1.1A1.1,1.1,0,0,1,4.37,38.91Z"/><path d="M22,57a1.77,1.77,0,1,0,1.77,1.77A1.78,1.78,0,0,0,22,57Zm0,2.87a1.1,1.1,0,1,1,1.1-1.1A1.1,1.1,0,0,1,22,59.83Z"/><path d="M24.89,26.19A1.77,1.77,0,1,0,26.66,28,1.76,1.76,0,0,0,24.89,26.19Zm0,2.86a1.1,1.1,0,0,1,0-2.2,1.1,1.1,0,0,1,0,2.2Z"/></g></g></svg>