<svg xmlns="http://www.w3.org/2000/svg" viewBox="0 0 60.54 108.28"><title>Asset 538</title><g id="Layer_2" data-name="Layer 2"><g id="Layer_1-2" data-name="Layer 1"><path d="M44.81,97.7a5.23,5.23,0,0,0-5.13,5.12,5.16,5.16,0,1,0,10.32,0A5.1,5.1,0,0,0,44.81,97.7Zm-.06,9.7a4.58,4.58,0,0,1-4.45-4.5,4.51,4.51,0,0,1,4.55-4.6,4.55,4.55,0,1,1-.1,9.1ZM25.18,103A2.86,2.86,0,0,0,24.26,98a17.57,17.57,0,0,0-3.38-.31v10h.38v-4c2.35-.44,2.35-.44,3.42,1.27.43.68.83,1.37,1.27,2a7.91,7.91,0,0,0,.66.77l.33-.25-2.49-4.2C24.75,103.25,25,103.12,25.18,103Zm-3.81.08V98.44c1.32,0,2.64-.42,3.65.77a2.21,2.21,0,0,1,.21,2.67C24.35,103.4,22.86,103,21.37,103Zm13.1.44h2.8c0,1.08,0,2.18,0,3.28a.9.9,0,0,1-.46.67A5.43,5.43,0,0,1,31,107a5.23,5.23,0,0,1,2.14-9.18c1.26-.25,2.61-.3,3.57.86a18.26,18.26,0,0,0-3-.29,4,4,0,0,0-3.79,3,4.36,4.36,0,0,0,1.25,4.93,4.63,4.63,0,0,0,5,.72c.27-.1.5-.7.52-1.09.1-1.88.07-1.88-1.73-2C34.77,103.88,34.61,103.79,34.47,103.47ZM13.7,97.7l.54.23-4.19,10.35c-1.48-3.62-2.84-7-4.2-10.33l.36-.23a5.65,5.65,0,0,1,.62.94c1,2.34,1.87,4.7,2.8,7,.11.27.23.54.47,1.07C11.37,103.56,12.54,100.63,13.7,97.7Zm3.17.22h.27v9.81h-.27Z"/><path d="M60.16,88q-4.45-15.81-8.9-31.63a2.23,2.23,0,0,1,.07-1.4,16.16,16.16,0,0,0,1.3-8.42,3.66,3.66,0,0,0-1.08-2.26,1.72,1.72,0,0,1-.69-1.5,52.34,52.34,0,0,0-.28-6.75,22.64,22.64,0,0,0-7.3-13.73,8.17,8.17,0,0,0-1.08-.73l-.28.27C48.59,27.71,51,35.09,50.24,44c-10.85-2.53-17.69-8.76-20-19.72-2.39,11-9.21,17.22-20,19.7-.87-8.88,1.66-16.25,8.09-22.27A12.48,12.48,0,0,0,15.54,24c-4.81,5.42-6.51,11.85-6,19A1.16,1.16,0,0,1,9,44.23,3,3,0,0,0,7.89,46,16.11,16.11,0,0,0,9,54.66a3.49,3.49,0,0,1,.15,2Q4.75,72.24.33,87.77c-.14.49-.22,1-.33,1.5a2.83,2.83,0,0,0,.46.15c.23,0,.46,0,.69,0a24.23,24.23,0,0,0,10.11-2.78,14.16,14.16,0,0,0,8.2-11.57c.13-1.15.11-2.32.17-3.73,7.12,7.43,14.12,7.41,21.2,0,0,.79,0,1.28,0,1.77.18,4.61,1.56,8.68,5.35,11.6a22.66,22.66,0,0,0,10.59,4.44c1.19.18,2.4.23,3.77.36C60.37,88.83,60.28,88.43,60.16,88ZM30.23,26.35c2.76,9.94,9.3,15.47,18.73,18l0,.39a6.56,6.56,0,0,1-1.91.49,15.81,15.81,0,0,1-12.34-7.05,67.09,67.09,0,0,1-4-7.32c-.14-.25-.23-.53-.5-1.13-.26.63-.42,1-.55,1.33-1.92,4.94-4.67,9.23-9.32,12a14.31,14.31,0,0,1-7.07,2.12,3.48,3.48,0,0,1-1.8-.7C20.92,41.81,27.46,36.25,30.23,26.35ZM2.92,88.68c-.67,0-1.35.08-2.24.14L9.82,56.47l2.64,1.85c-.29,1.12-.61,2.4-1,3.68C9.2,70.4,6.87,78.8,4.6,87.22,4.34,88.18,3.89,88.65,2.92,88.68Zm3.87-.85c-.55.09-1.08.26-1.89.47,2.8-10.22,5.53-20.15,8.26-30.08l.32,0c.19.95.37,1.89.56,2.84,0,0,0,.08,0,.12,1.59,3.36.06,6.48-.78,9.63C12,75.64,10.55,80.41,9.35,85.24A2.92,2.92,0,0,1,6.79,87.83Zm7-3.57c-1.29.86-2.62,1.67-3.94,2.5l-.27-.22,5.73-20.92c.91,1.32,1.69,2.41,2.4,3.54a1.46,1.46,0,0,1,.12,1q-1.77,6.65-3.61,13.28A1.34,1.34,0,0,1,13.8,84.26ZM15,83l3.52-12.85C19.78,74.19,18,80.82,15,83ZM39.18,72c-.31.29-.65.54-.94.85-3.09,3.34-7,3.62-11.14,3a4.31,4.31,0,0,1-1.72-.6c-4.28-2.91-8.15-6.32-9.88-11.33-1-2.89-1.25-6-1.69-9.12-.24-1.7-.19-3.44-.28-5.16a1,1,0,0,0-.33-.7c-.48,2.83.12,5.65.17,8.53a2.8,2.8,0,0,1-2.69-1.27,13.23,13.23,0,0,1-2.11-10.5,1.31,1.31,0,0,1,2.19-.9c1.55,1.53,3.24,1,4.92.69,5.36-1.08,9.09-4.42,11.9-8.9,1-1.57,1.77-3.27,2.58-4.79,1.27,2.15,2.4,4.46,3.9,6.52,3.27,4.5,7.64,7.25,13.34,7.5A5,5,0,0,0,49,45.26c.65-.23,1.39-.72,1.93-.56a2.13,2.13,0,0,1,1,1.58,14.32,14.32,0,0,1-1.5,8.92,3.76,3.76,0,0,1-3.38,2.33c.15-2.87.29-5.7.43-8.52l-.44,0c-.06.4-.13.8-.17,1.21-.38,3.69-.6,7.41-1.17,11.07C45.06,65.69,42.37,69.05,39.18,72Zm2.72-1.92c1.22,4.41,2.36,8.56,3.55,12.89C42.45,80.83,40.51,73.89,41.9,70.12Zm8.67,16.66c-1.34-.85-2.69-1.69-4-2.58-.24-.17-.32-.59-.41-.92C45,79,43.79,74.73,42.65,70.45a2,2,0,0,1,.15-1.38c.66-1.11,1.44-2.16,2.31-3.45,2,7.08,3.84,14,5.74,20.9Zm1.46.46a1.24,1.24,0,0,1-.55-.78q-3-10.62-5.85-21.26a1.62,1.62,0,0,1-.09-.68,57.31,57.31,0,0,1,1.74-6.3c2.73,10,5.46,19.89,8.29,30.17C54.18,88,53.09,87.64,52,87.24ZM59.3,88.8c-3,0-3,0-3.79-2.86q-3.66-13.34-7.3-26.68c-.09-.33-.15-.67-.22-1l2.64-1.78c3,10.72,6.06,21.43,9.1,32.21C59.44,88.77,59.37,88.8,59.3,88.8ZM3.75,22.68a27,27,0,0,1,52-5c2.9,7.83,1.23,21-3.14,24.06C59.77,27.25,58.2,14.49,44.62,5c-8.87-6.23-18.95-6.37-27.95-.34C2.67,14,.9,26.89,8.06,41.51,5.25,40.25,2.69,29.2,3.75,22.68ZM3.66,50a10.08,10.08,0,0,1,3.39-5.76c-2-1.49-2.75-3.5-3.32-5.72A9.72,9.72,0,0,1,.61,44.09a24,24,0,0,1,2,2.79A22.76,22.76,0,0,1,3.66,50Zm.09-9,2.09,3.31c-.68,1.07-1.4,2.19-2.1,3.3L1.59,44.2Zm50.13,3.17a23.61,23.61,0,0,1,2,2.81,21.1,21.1,0,0,1,1,3h.3a8.56,8.56,0,0,1,3.1-5.78c-2-1.42-2.69-3.51-3.35-5.68A9.14,9.14,0,0,1,53.88,44.08Zm5.28.13c-.67,1-1.38,2.13-2.13,3.29-.7-1.07-1.43-2.2-2.14-3.31L57,41C57.69,42,58.41,43.08,59.16,44.21ZM26.59,19.42a1.91,1.91,0,0,1-.08-2.05,2,2,0,0,0-2.37-2.83,1.91,1.91,0,0,1-2-.43c-.81-.79-1.9-.53-2.05.35-.35,2-.64,4-1,6-.14.75.13,1,.83,1,1,0,1.92,0,2.87,0h2.65C26.71,21.39,27.3,20.52,26.59,19.42Zm-7,1.38,1.12-6.7c.59.33,1.13.46,1.36.8.46.67.92.5,1.57.39s1.7-.1,2,.3a2.45,2.45,0,0,1,0,2.07,1.34,1.34,0,0,0,.18,1.71,1.46,1.46,0,0,1,.26,1.14c0,.16-.64.27-1,.28C23.34,20.82,21.56,20.8,19.61,20.8ZM12.38,31.32a5.39,5.39,0,0,0,7.82-.95C18.25,28.24,13.88,28.77,12.38,31.32Zm1-.13a4.47,4.47,0,0,1,5.93-.77A4.49,4.49,0,0,1,13.39,31.19ZM8,23c-1.32,2.94.06,6.49,2.87,7.4C12.35,28.26,11.06,24,8,23Zm2.6,6.49c-1.9-.65-3-3.23-2.22-5.6A4.64,4.64,0,0,1,10.55,29.47ZM23,26.34c-2.41-2.18-6.6-1.87-8,.53C17.58,29,21.22,28.75,23,26.34Zm-7,.38a4.6,4.6,0,0,1,6-.33C20.63,28,18.12,28.19,16,26.72ZM13,17.9a5.55,5.55,0,0,0,.06,8C15.5,23.84,15.43,19.43,13,17.9Zm.12,1a4.63,4.63,0,0,1,.06,6C11.51,23.75,11.66,20.14,13.16,18.88Zm27.32-3.76c-.09-.48-.34-1.3-.57-1.32a2.49,2.49,0,0,0-1.77.47c-.56.54-1,.34-1.63.35a4.16,4.16,0,0,0-2.29.53A1.78,1.78,0,0,0,34,17.47a1.72,1.72,0,0,1-.08,1.88c-.75,1.26-.24,2,1.17,2h6.39c-.05-.61-.06-1-.13-1.43C41.06,18.35,40.8,16.73,40.48,15.12Zm-6.3,5.59c.17-.53.18-1.12.48-1.43a1,1,0,0,0,.14-1.48c-.43-.68-.81-1.48-.18-2.23a1.74,1.74,0,0,1,2.22-.27,1,1,0,0,0,1.47-.36c.27-.35.78-.5,1.4-.87.41,2.4.75,4.47,1.11,6.64Zm18.24,2.22c-3,1.26-4.31,5.06-2.79,7.47A5.43,5.43,0,0,0,52.42,22.93Zm-.31.94c.67,2.52-.33,5-2.22,5.59A4.65,4.65,0,0,1,52.11,23.87Zm-4.79,2a5.46,5.46,0,0,0,0-8A5.44,5.44,0,0,0,47.32,25.85Zm0-.93c-1.53-1.35-1.4-4.63,0-6C48.72,20.1,48.88,23.54,47.3,24.92Zm.81,6.39c-1.93-2.57-5.84-3-7.88-1C41.64,32.81,45.62,33.33,48.11,31.31Zm-1-.14a4.43,4.43,0,0,1-5.95-.78A4.67,4.67,0,0,1,47.08,31.17ZM38,25.85c-.5.36-.54.64-.11,1.09a5.64,5.64,0,0,0,7.55-.2A5.68,5.68,0,0,0,38,25.85Zm6.43.79c-1.4,1.5-4.08,1.46-6-.18C40.21,25,42.35,25.08,44.39,26.64Zm-.24,22.17-.23.35c-.28-.2-.58-.39-.84-.61a6.62,6.62,0,0,0-4.55-1.63,5.41,5.41,0,0,0-5.18,5.33A22.93,22.93,0,0,0,34.28,61a1.31,1.31,0,0,1-.78,1.83,7.21,7.21,0,0,1-6.54,0A1.34,1.34,0,0,1,26.19,61a22.86,22.86,0,0,0,.84-9.2c-.63-4.73-5.75-6.19-9.21-3.59l-1.22,1L16.37,49a2,2,0,0,1,.3-.59,6.7,6.7,0,0,1,7-1.7,5.81,5.81,0,0,1,4,5.16,23.31,23.31,0,0,1-.8,9c-.26,1,0,1.41.9,1.71a7,7,0,0,0,5,0c.81-.32,1.06-.75.8-1.67A21.1,21.1,0,0,1,33,50.94a5.61,5.61,0,0,1,4.78-4.53A6.79,6.79,0,0,1,44.15,48.81ZM25.8,66.33a16,16,0,0,0-2.22,1.22,3.87,3.87,0,0,0,3,.81c2.39,0,4.79,0,7.18,0a10.74,10.74,0,0,0,2.25-.28c.31-.08.56-.44.94-.75-.6-.08-1.06,0-1.31-.18C32.54,64.76,29.19,65.14,25.8,66.33Zm-.36,1.34c1-2.12,8.07-2.17,9.65,0Zm0-16.47c-1.86,2.15-7.27,2-8.15-.05C20,52.74,22.74,52.42,25.45,51.2ZM43.24,51a3.48,3.48,0,0,1-3.12,1.75A6.74,6.74,0,0,1,35,51.31C37.73,52.39,40.43,52.71,43.24,51ZM33.85,69.18c-.36,1.34-1.53,2-3.32,2.17a3.85,3.85,0,0,1-4-2C29,71.18,31.38,71.34,33.85,69.18Z"/></g></g></svg>