<svg xmlns="http://www.w3.org/2000/svg" viewBox="0 0 68.89 68.02"><title>Asset 506</title><g id="Layer_2" data-name="Layer 2"><g id="Layer_1-2" data-name="Layer 1"><path d="M67.11,22.94a20.14,20.14,0,0,0-2.61-5.15c-1.33-1.94-2.34-4.08-3.87-5.91A34.25,34.25,0,0,0,55,6.57,33,33,0,0,0,43.92,1.33,23.54,23.54,0,0,0,35,.07c-.72,0-1.44,0-2.15,0a9.34,9.34,0,0,0-4,.35,9.34,9.34,0,0,1-1.75.44,21.64,21.64,0,0,0-6,2.21,41.76,41.76,0,0,0-10.09,7.21,33.12,33.12,0,0,0-6,7.07C4.06,18.85,3,20.28,2.33,21.85A24.94,24.94,0,0,0,.42,29.07,20.55,20.55,0,0,0,0,33.25a68.36,68.36,0,0,0,1.19,8.88,19.33,19.33,0,0,0,2,5.52c1,1.73,2.08,3.43,3.14,5.13a29.64,29.64,0,0,0,1.86,2.85c3.93,4.95,9.17,8,14.93,10.37a34.49,34.49,0,0,0,6.93,1.74,17.85,17.85,0,0,0,5.65.11,31.2,31.2,0,0,1,4.06-.48,13.34,13.34,0,0,0,4.53-.91c.89-.33,1.79-.64,2.69-.93a32,32,0,0,0,11.32-7,28,28,0,0,0,4.87-6c1.46-2.33,3.15-4.54,3.62-7.37.21-1.19.6-2.34.88-3.52a36.77,36.77,0,0,0,1.2-8.07A33.93,33.93,0,0,0,67.11,22.94ZM19.29,4.78a34.59,34.59,0,0,1,9.14-3.59c.22-.05,3.94-.33,5.57-.4a32.45,32.45,0,0,1,4.41,0,29,29,0,0,1,9.8,2.69c1,.5,2.12,1,3.17,1.49a4.54,4.54,0,0,1,.62.42,8.42,8.42,0,0,1-3.13,1.16A85.53,85.53,0,0,1,35.73,8.39c-1.47.12-2.94.3-4.41.36a20.38,20.38,0,0,1-9.47-1.89L18.51,5.37A6.12,6.12,0,0,1,19.29,4.78Zm-1.54.94c.82.42,1.61.86,2.42,1.24A23.73,23.73,0,0,0,33.09,9.27C37,8.88,40.86,8.5,44.73,8a35.33,35.33,0,0,0,7.48-1.81,1.49,1.49,0,0,1,1.93.58,3.92,3.92,0,0,1-2,1.16,45.08,45.08,0,0,1-9,1.87c-1.69.21-3.39.34-5.08.5a14.11,14.11,0,0,1-1.59.08c-2.61-.06-5.22-.07-7.83-.23A34.65,34.65,0,0,1,22,8.9a15.93,15.93,0,0,1-4.87-2.08,5.56,5.56,0,0,1-.49-.38ZM15.9,6.92c1.63.73,3.07,1.49,4.59,2a28,28,0,0,0,8.19,1.71q3.91.22,7.83.23a37.8,37.8,0,0,0,5-.34c2.55-.34,5.08-.83,7.62-1.24a17.84,17.84,0,0,0,5.88-2L56.87,8.8c-.82.34-1.45.65-2.12.88a58.24,58.24,0,0,1-6.33,2.15,72.18,72.18,0,0,1-8.29,1.3,67.75,67.75,0,0,1-9.87,0,50.45,50.45,0,0,1-8.16-1.4,18.46,18.46,0,0,1-5.79-2.23,17.73,17.73,0,0,1-1.77-1.42ZM14.06,8.31c1.94,2.21,4.54,3.09,7.15,3.82a39.71,39.71,0,0,0,6.56,1.59c.51,0,1-.11,1.54,0a53.49,53.49,0,0,0,8.58.24,36,36,0,0,0,10.42-1.42c3-.94,6-2,9.27-3.13l2.48,2.67a7.14,7.14,0,0,1-2.53,1.78,53,53,0,0,1-8.12,3.5c-1.6.46-3.22.86-4.82,1.29-1,.27-2,.57-3,.83a25.42,25.42,0,0,1-11.92.21c-2.22-.45-4.43-1-6.65-1.46-1-.22-2-.35-3-.58a16.6,16.6,0,0,1-4.46-2L9.72,12.35A42.07,42.07,0,0,1,14.06,8.31ZM9.3,12.91c.16-.35,5,2.83,6.7,3.74a18.76,18.76,0,0,0,6.1,2c1.79.28,3.54.79,5.31,1.19a35.91,35.91,0,0,0,8.07,1,25,25,0,0,0,5.73-.66c1.32-.3,2.61-.77,3.92-1.14,1.75-.5,3.54-.86,5.24-1.47,2-.72,3.84-1.61,5.72-2.5,1.46-.69,2.87-1.5,4.33-2.28.62.58.67.76.06,1.25a14.43,14.43,0,0,1-2.08,1.38c-3,1.65-10.93,5.27-11.5,5.37a49.24,49.24,0,0,1-17.5.33,85.26,85.26,0,0,1-9.2-2.43,40.83,40.83,0,0,1-7.28-2.84c-.83-.43-4.18-2.44-4.16-2.52Zm-.85.7a20.56,20.56,0,0,0,5.4,3.24c1.94.83,3.94,1.54,5.94,2.22,1.5.52,3.05.88,4.56,1.36a39.44,39.44,0,0,0,8.81,1.63,48.74,48.74,0,0,0,14.35-.94,22.87,22.87,0,0,0,3.55-1.61A53.56,53.56,0,0,0,60.46,15a6.63,6.63,0,0,1,1.31-.5l1.32,2.09c-2.34,1.1-4.63,2.15-6.89,3.25-1.4.68-2.75,1.45-4.14,2.13a29.86,29.86,0,0,1-4.14,1.84,10.88,10.88,0,0,1-3.38.28c-3.94-.09-7.87-.19-11.8-.42a47.77,47.77,0,0,1-9.15-1.72c-1.68-.42-3.38-.81-5.05-1.32a47.5,47.5,0,0,1-4.89-1.76c-1.72-.75-3.36-1.69-5.06-2.49-.54-.26-1.25-.19-1.57-1ZM3.29,21.88a4.57,4.57,0,0,0,.6-1.09c.74-1.4,1.47-2.81,2.22-4.21.13-.22.3-.42.42-.59,2.16,1,4.26,2.06,6.38,3A51.72,51.72,0,0,0,21.75,22a75.66,75.66,0,0,0,10.44,2.2c1.39.16,2.79.24,4.19.28a102.5,102.5,0,0,0,11.36,0,6.3,6.3,0,0,0,2.84-.89C51.71,22.82,61.84,18,63.35,17a21.62,21.62,0,0,1,4.07,9.52c-.62.37-1.29.84-2,1.19-1.57.73-3.2,1.36-4.75,2.11a22.91,22.91,0,0,1-5.08,1.61q-3,.68-6.13,1.14a27.47,27.47,0,0,1-3.85.27c-2.53,0-5.06-.06-7.6-.12-1.47,0-3-.11-4.43-.17-3-.12-6-.19-9-.38A46.25,46.25,0,0,1,15,30.72c-2.44-.67-5-1.11-7.37-1.85a42,42,0,0,1-4.9-2.06,6.05,6.05,0,0,1-1.1-.89C2.12,24.52,2.16,23,3.29,21.88ZM1.44,26.82C5.07,29,9,30,13,30.86c2.37.52,4.74,1.07,7.14,1.4,2.58.35,5.2.49,7.8.64,4,.23,8,.48,12,.56a52.31,52.31,0,0,0,13.78-1.11,41.12,41.12,0,0,0,7-1.93l6.87-3.06c.08.44.15.85.24,1.36-.58.29-1.13.61-1.72.84-1.72.69-3.48,1.28-5.18,2a27.39,27.39,0,0,1-8.27,1.88c-.82.08-1.63.28-2.45.42-3.25.55-6.49,1.13-9.74,1.66a17.79,17.79,0,0,1-2.83.2c-1.63,0-3.25-.09-4.88-.15a41.27,41.27,0,0,1-7.09-.88c-3.08-.61-6.19-1.07-9.25-1.76A63.14,63.14,0,0,1,5.68,29.71c-1-.44-2.15-.71-3.23-1.07-.42-.13-.84-.28-1.3-.45Zm-.38,2.27a15.9,15.9,0,0,1,4.31,1.12c1.64.57,3.25,1.26,4.92,1.73,2.51.72,5,1.37,7.59,1.91,2.71.58,5.45.94,8.16,1.5a44.27,44.27,0,0,0,7.88.83,33.31,33.31,0,0,0,5.65,0c2.06-.28,4.14-.49,6.19-.82,3.66-.57,7.32-1.17,11-1.83a15.37,15.37,0,0,0,2.93-.87c2.57-1,5.12-2.05,7.69-3.08.14-.06.28-.1.43-.15.41.56.06.85-.36,1.07-.91.47-1.82.93-2.75,1.35-1.65.75-3.29,1.56-5,2.17s-3.41,1-5.13,1.46a48,48,0,0,1-7.78,1.6c-1.88.15-3.77.32-5.66.38-2.12.07-4.24,0-6.36,0A48.21,48.21,0,0,1,25,36.25c-3.45-.72-6.86-1.6-10.32-2.26a71.81,71.81,0,0,1-9.27-2.21A14.67,14.67,0,0,1,.86,30ZM51.9,62.63a37.15,37.15,0,0,1-10,3.86c-.6.15-1.26,0-1.87.11a31.64,31.64,0,0,1-7.31.77,28.5,28.5,0,0,1-11.79-3c-2-1-3.86-2-5.76-3.14A147.22,147.22,0,0,0,53,61.86,11.6,11.6,0,0,1,51.9,62.63Zm2.86-2.23A37.22,37.22,0,0,1,44.13,62c-4.73.08-9.46.08-14.19.06-1.47,0-2.94-.33-4.4-.29a44.19,44.19,0,0,1-10.31-1.37,11.71,11.71,0,0,1-2.31-.92,5.4,5.4,0,0,1-.87-.7,3.64,3.64,0,0,1,2.13-.07c2.84.44,5.67,1,8.53,1.3,3.83.41,7.69.71,11.54.88,2.57.12,5.15-.06,7.72-.14,2.23-.07,4.46-.15,6.69-.3,1.35-.09,2.7-.33,4.05-.53,1.11-.16,2.22-.37,3.47-.58A2.46,2.46,0,0,1,54.76,60.4ZM58,57.85a5,5,0,0,1-2.2.77,56.41,56.41,0,0,1-8.2,1.16c-3,0-6,.4-9.07.49a75.76,75.76,0,0,1-10.43-.43c-2-.22-4-.24-6-.49-2.67-.33-5.31-.8-8-1.19A15.63,15.63,0,0,0,12.26,58a2.42,2.42,0,0,1-2-.9c-.49-.62-1-1.2-1.72-2a6,6,0,0,1,1.08,0c3.71.85,7.41,1.78,11.15,2.55a42.33,42.33,0,0,0,5.3.6c3.17.24,6.34.46,9.52.6a79.14,79.14,0,0,0,10.33-.1,38.94,38.94,0,0,0,8.86-1.86c1.85-.61,3.74-1.12,5.61-1.67l.13.22A23,23,0,0,1,58,57.85Zm6.33-8.22c-.67,1.1-1.41,2.15-2.08,3.25a3.54,3.54,0,0,1-1.86,1.58c-1.35.49-2.72.93-4.1,1.32a57.8,57.8,0,0,1-8.57,2.16c-1.81.23-3.62.37-5.44.46-1.58.07-3.18.06-4.76,0-2.92-.13-5.83-.32-8.74-.51-2.3-.15-4.63-.2-6.9-.55-2.42-.38-4.8-1.07-7.19-1.63-.78-.17-1.56-.32-2.32-.55-1.52-.47-3-1-4.52-1.48a1.14,1.14,0,0,1-.49-.41,52.13,52.13,0,0,1-4.26-7.1,1.46,1.46,0,0,1,0-.31,2.51,2.51,0,0,1,1.24.31,42.6,42.6,0,0,0,6.59,2.74c1.49.43,3,.73,4.51,1.16a36.58,36.58,0,0,0,5.11,1c4.76.67,9.52,1.33,14.35.86,2.08-.2,4.17-.21,6.24-.43,3.16-.34,6.32-.72,9.46-1.19,2.5-.37,5-.84,7.46-1.38a31,31,0,0,0,3.32-1.15c1.26-.42,2.52-.82,3.78-1.22a2.37,2.37,0,0,1,.49-.08A7.72,7.72,0,0,1,64.37,49.63Zm1.24-4.29c-2.09.77-4.15,1.64-6.23,2.42-4.33,1.61-8.89,2.07-13.44,2.55-1.8.2-3.6.53-5.4.64-3.44.23-6.88.38-10.33.49a26.89,26.89,0,0,1-7.2-.71,20.31,20.31,0,0,0-2.59-.28A59.13,59.13,0,0,1,9.83,47.93a41.3,41.3,0,0,1-5-2.16,6.32,6.32,0,0,0-1.15-.47,1.69,1.69,0,0,1-1.44-1.88,6.87,6.87,0,0,1,1.08.22A32.7,32.7,0,0,1,6.81,45a29,29,0,0,0,5.85,2.11c2.17.54,4.32,1.12,6.5,1.6,1.07.23,2.17.28,3.26.41l1.13.12c2.13.31,4.26.74,6.4.89A44.75,44.75,0,0,0,35.5,50q3.22-.16,6.45-.48c3.09-.3,6.18-.58,9.25-1a61.39,61.39,0,0,0,6.54-1.4c1.38-.36,2.7-1,4.06-1.42s2.93-1,4.52-1.46C66.25,44.86,66.09,45.16,65.61,45.34ZM65.18,44c-2.4.7-4.74,1.59-7.12,2.34a52,52,0,0,1-10.78,2.09q-3.8.36-7.58.67c-2.52.22-5,.46-7.56.6A17.64,17.64,0,0,1,29,49.51c-2.63-.33-5.25-.66-7.87-1.09-1.93-.32-3.86-.74-5.77-1.21-1.76-.43-3.51-.94-5.24-1.5a18.64,18.64,0,0,1-2.82-1.17,20,20,0,0,0-4.36-1.6c-1-.24-1-.31-1.16-1.57a8.54,8.54,0,0,1,2.66.79,33.37,33.37,0,0,0,7.65,2.48,23.6,23.6,0,0,1,2.6.79,58.27,58.27,0,0,0,7,1.76c3.81.67,7.63.36,11.44.35,3.21,0,6.43-.24,9.64-.5,2.48-.21,5-.61,7.43-.94,2-.27,4-.53,6.07-.86,1.12-.18,2.21-.47,3.32-.73a1.39,1.39,0,0,0,.52-.21c1.47-1.1,3.29-1.31,4.93-1.95.6-.23,1.19-.49,1.87-.77A2.09,2.09,0,0,1,65.18,44Zm2.24-3.87a1.09,1.09,0,0,1-.82.94c-2,.68-4.07,1.42-6.1,2.13-.35.12-.72.1-.9.57-.07.19-.49.28-.77.37a47.55,47.55,0,0,1-7.6,1.31c-2.82.35-5.63.74-8.46,1-3.32.27-6.65.41-10,.55-2,.08-3.94,0-5.9,0a31.44,31.44,0,0,1-8.31-1.09c-2.68-.69-5.36-1.34-8-2.11C8.68,43.26,6.85,42.55,5,41.88c-.86-.3-1.68-.69-2.53-1a1.34,1.34,0,0,1-1-1.35c-.05-.89-.31-1.77-.41-2.67C.9,35.16.77,33.47.64,31.77a4,4,0,0,1,.15-.88c1.57.47,3.07.95,4.58,1.37,2.85.78,5.7,1.55,8.56,2.27,2.42.61,4.85,1.15,7.28,1.67,1.4.31,2.83.5,4.25.75A66.31,66.31,0,0,0,34.12,38a88.63,88.63,0,0,0,12.93-.44,87.05,87.05,0,0,0,10.2-2.22c3.49-.81,6.65-2.48,9.91-3.88l.89-.35a23,23,0,0,1,0,5.17C67.94,37.59,67.65,38.85,67.42,40.12ZM51,38.9a.63.63,0,0,0,.79.59c.29-.06.54-.35,1-.68-.46-.28-.7-.52-1-.56C51.4,38.18,51,38.55,51,38.9Zm-4.45.53c-.36,0-.85,0-.88.52,0,.19.32.4.58.7.38-.3.79-.47.89-.74S46.89,39.38,46.57,39.43Zm-10.94,1c.19.19.4.56.56.54a3.07,3.07,0,0,0,.91-.48l-.74-.72Zm21-3.31c-.38,0-.79.09-.87.53,0,.16.23.37.3.49.59,0,1.13-.35,1-.67A.64.64,0,0,0,56.63,37.13Zm9.78-3.73c-.33,0-.58.12-.62.49s.16.62.76.67c.08-.1.37-.28.4-.49A.54.54,0,0,0,66.41,33.4ZM63,34.9a.42.42,0,0,0,.47.57A4.65,4.65,0,0,0,64.5,35c-.47-.29-.7-.55-.91-.54A.87.87,0,0,0,63,34.9ZM40.85,40.23c.49.64.49.64,1.35.17C41.68,39.53,41.57,39.52,40.85,40.23Zm-9.57.12c.16.17.34.5.47.48a3.12,3.12,0,0,0,.92-.46c-.3-.27-.5-.54-.59-.5A3.86,3.86,0,0,0,31.28,40.35Zm29.08-4.58c-.21.36-.57.73,0,1a.8.8,0,0,0,.72-.24C61.29,36,60.82,35.88,60.36,35.77ZM18.18,38.5a.49.49,0,0,0,.12.47.69.69,0,0,0,1.06-.16,1.51,1.51,0,0,0,.1-.29c-.13-.11-.2-.21-.29-.24C18.8,38.18,18.41,38.11,18.18,38.5Zm-4.37-.61c.38.24.62.51.77.47s.4-.35.6-.54c-.18-.14-.37-.41-.53-.39S14.19,37.67,13.81,37.89ZM26.9,39.56c-.14,0-.34.27-.32.37.1.52.52.44.89.39a2,2,0,0,0,.41-.14C27.58,39.54,27.35,39.38,26.9,39.56ZM9.5,37c.21.19.41.47.65.53s.65-.1.64-.69l-1.17-.12Zm13.26,2c-.12,0-.27.18-.45.32.14.16.22.33.33.36a2.45,2.45,0,0,0,.81.07s.13-.43.08-.46A1.81,1.81,0,0,0,22.76,39ZM6.38,36.3a.6.6,0,0,0,.31.5c.5.11.61-.26.73-.79C6.92,35.93,6.53,35.81,6.38,36.3ZM3.12,34.51a.39.39,0,0,0-.05.38c.27.38.54.32.81-.06C3.72,34.48,3.52,34.23,3.12,34.51Zm57-11.87a.84.84,0,0,0,.44-.59c.12-.7-.57-.65-.93-1l-.75,1A1,1,0,0,0,60.13,22.64ZM34.36,27.7a.92.92,0,0,0,.83-.89.63.63,0,0,0-.64-.65,1,1,0,0,0-1,.77A.77.77,0,0,0,34.36,27.7Zm15.71-1.34a.78.78,0,0,0,.76-.81.61.61,0,0,0-.71-.57c-.49,0-.91.3-.92.66A.88.88,0,0,0,50.07,26.36Zm12.28-5.12A.84.84,0,0,0,63.53,21c.24-.49,0-.88-1.06-1.32C62.5,20.3,61.61,20.68,62.35,21.24ZM19.51,25.72a1.92,1.92,0,0,0,1-.22c.2-.14.24-.53.37-.83-.91-.17-1.27-.17-1.55.07a.83.83,0,0,0-.3.55C19.1,25.46,19.35,25.72,19.51,25.72Zm5.4.9a.79.79,0,0,0,.76-.8.75.75,0,0,0-.86-.69c-.38,0-.75.12-.77.57A1,1,0,0,0,24.91,26.62Zm-9.62-2.15c.62,0,1-.35,1-.76s-.27-.58-.66-.55c-.56,0-1.06.42-.92.77S15.16,24.36,15.29,24.47Zm13.69,3c.65,0,1.13-.38,1.11-.8a.5.5,0,0,0-.58-.52c-.51,0-1,.33-1,.71S28.88,27.31,29,27.45Zm26-2.9c.37-.08.86-.07.93-.64a.72.72,0,0,0-.79-.63.67.67,0,0,0-.75.66C54.38,24.29,54.57,24.64,55,24.55ZM44.17,27.49c.34-.32.73-.52.8-.8s-.26-.58-.67-.57-.94.42-.82.74S43.87,27.22,44.17,27.49ZM12.06,22.75c.66,0,1.13-.35,1-.68a.77.77,0,0,0-.53-.45c-.43-.07-.93.35-.86.69S12,22.66,12.06,22.75Zm27.73,4.9A5.49,5.49,0,0,0,40.84,27,3.67,3.67,0,0,0,40,26.6c-.4,0-.78.12-.71.61C39.32,27.38,39.67,27.68,39.79,27.65ZM8.31,20.51c.12-.09,0-.5,0-.84-.65.13-1.12.25-1.07,1.12A3.14,3.14,0,0,0,8.31,20.51Zm44.8,31.33c-.11.36.23.53.55.48a4,4,0,0,0,1-.46c-.45-.25-.67-.46-.84-.43S53.16,51.65,53.11,51.84ZM43.83,53c-.2,0-.41.28-.78.56.4.22.63.46.78.41s.42-.33.62-.51C44.25,53.32,44.05,53,43.83,53Zm14.61-2.87a.86.86,0,0,0-1.16.53,8.92,8.92,0,0,0,1.13.12c.08,0,.22-.2.23-.31A.43.43,0,0,0,58.44,50.15ZM25.2,53.2a1.2,1.2,0,0,0-.64.47s.23.34.45.66c.29-.3.53-.46.61-.68S25.31,53.18,25.2,53.2Zm5.07.57c-.18,0-.36.23-.54.35l.47.65.58-.61C30.61,54,30.44,53.78,30.27,53.77Zm9.19-.46a5.14,5.14,0,0,0-1,.37c.55.62,1,.47,1.41.09C39.71,53.59,39.56,53.29,39.46,53.31Zm-19.27-.6a.47.47,0,0,0-.1.46c.27.35.6.17.9,0,.09,0,.13-.17.22-.28C20.94,52.41,20.56,52.46,20.19,52.71Zm14.63,1.12a1.53,1.53,0,0,0-.62.35c-.05,0,0,.36.07.37a1.83,1.83,0,0,0,.7,0c.15,0,.27-.22.55-.48C35.14,53.92,35,53.79,34.82,53.83ZM16.76,52a1.36,1.36,0,0,0-.53.45c0,.06.21.29.43.58a2.76,2.76,0,0,0,.43-.68C17.11,52.21,16.81,51.93,16.76,52Zm31.9.61c0,.47.2.69.67.56.1,0,.25-.23.22-.3C49.41,52.32,49.07,52.35,48.66,52.56ZM61.43,49.8c.29.16.46.34.62.33s.31-.23.47-.35a1.8,1.8,0,0,0-.55-.39C61.85,49.37,61.68,49.6,61.43,49.8ZM8.8,50.13c-.34-.09-.56,0-.56.54.37.17.66.18.79-.24C9.05,50.35,8.9,50.15,8.8,50.13Zm3.41,1.68c.22.11.38.26.5.23s.25-.21.37-.33a1.57,1.57,0,0,0-.47-.32C12.52,51.37,12.39,51.61,12.21,51.81Zm43.28-38.9a2.51,2.51,0,0,0,1-.78.49.49,0,0,0-.5-.74c-.64.07-1.28.18-1.57,1A.74.74,0,0,0,55.49,12.91Zm-14.14,3.6a6.11,6.11,0,0,0,1.3,0c.06-.56.2-1.08-.26-1.22a1.73,1.73,0,0,0-1.22.22A.51.51,0,0,0,41.35,16.51Zm9.84-2c.55,0,1-.35.91-.78s-.22-.64-.66-.58c-.73,0-1.25.31-1.21.75S50.7,14.52,51.19,14.51ZM32,16.85a.65.65,0,0,0,.3-.94.59.59,0,0,0-.93-.25,6.57,6.57,0,0,0-.73.75C31,17,31.44,17.1,32,16.85ZM16.26,12.41a.83.83,0,0,0-.69-.86c-.45,0-.92.41-.85.84,0,.26.31.48.4.61C15.85,13,16.23,12.79,16.26,12.41Zm20.25,4.64c.77,0,1.27-.31,1.18-.68a.9.9,0,0,0-.55-.56c-.48-.11-1.13.39-1,.77C36.15,16.8,36.43,17,36.51,17.05Zm-8.95.17c.52,0,.6-.31.41-1.41-.91.18-1.23.45-1.17,1S27.22,17.25,27.56,17.22Zm19.33-1.3c.6.05.75-.16.68-1.14a6.71,6.71,0,0,0-.72,0c-.36,0-.73.06-.72.52S46.46,15.89,46.89,15.92Zm-26.76-1a.55.55,0,0,0,.08-.88.94.94,0,0,0-.79,0c-.42.18-.59.55-.3,1.25A3.87,3.87,0,0,0,20.13,14.93ZM23.9,16a.55.55,0,0,0-.6-.63.84.84,0,0,0-.86.87,1.94,1.94,0,0,0,.63.29C23.45,16.61,23.86,16.5,23.9,16ZM22.55,5.45a.74.74,0,0,0,.67-.09.64.64,0,0,0,0-.67,5.44,5.44,0,0,0-1.08-.5C21.9,4.94,22.16,5.27,22.55,5.45ZM40.91,6c.27-.37.08-.62-.45-.92l-.75,1C40.27,6.49,40.62,6.38,40.91,6ZM37.1,7c.34.07.79-.44.73-.83a.57.57,0,0,0-.33-.39c-.32-.09-.73.42-.72,1C36.85,6.76,37,7,37.1,7ZM34,6.65c.26-.27.19-.62-.3-.9l-.83,1,.24.35A3,3,0,0,0,34,6.65ZM26.12,5.09c-.9.34-.9.35-.46,1.15C26.42,5.87,26.42,5.87,26.12,5.09Zm4.43,1.15a.5.5,0,0,0,0-.49.46.46,0,0,0-.48,0,6.4,6.4,0,0,0-.63.86A.76.76,0,0,0,30.55,6.24ZM43.84,4.67a1,1,0,0,0-.69,1.19C44.23,5.62,44.3,5.48,43.84,4.67Zm3.46.48c.38-.12.53-.37.28-.87-.37.14-.71.23-.6.68A.41.41,0,0,0,47.3,5.15Zm-5.7,59.6a2.92,2.92,0,0,0,.82-.27c-.37-.53-.6-.66-.93-.5-.14.06-.32.3-.29.38S41.47,64.76,41.6,64.75ZM34,64a1.77,1.77,0,0,0-.49.35c.14.13.28.35.41.35s.32-.21.57-.39C34.3,64.16,34.14,64,34,64Zm3.8.43s-.29-.31-.37-.28a.86.86,0,0,0-.42.42c0,.07.16.25.34.51A4.58,4.58,0,0,0,37.84,64.43Zm8.8-.37c-.13-.11-.27-.35-.37-.33s-.33.22-.5.34l.38.48Zm-16.12.62.42.4.33-.46c-.14-.09-.28-.26-.4-.25S30.63,64.57,30.52,64.68Zm-6.46-.92c-.13,0-.27.19-.34.34s.13.2.25.36l.44-.39C24.29,64,24.16,63.75,24.06,63.76Zm3.34.39a1.29,1.29,0,0,0-.25.39c0,.07.17.17.34.34.09-.21.2-.34.18-.44S27.49,64.25,27.4,64.15Z"/></g></g></svg>