<svg xmlns="http://www.w3.org/2000/svg" viewBox="0 0 81.62 85.48"><title>Asset 536</title><g id="Layer_2" data-name="Layer 2"><g id="Layer_1-2" data-name="Layer 1"><path d="M47.38,84.78h5.86c-.74.66-4.35.83-6.47.47V75.42h6c0,.11,0,.23,0,.34h-5.4v4.32h5c0,.15,0,.3,0,.45h-5ZM21.93,78a2.86,2.86,0,0,1-2.61,3.09c-.71.09-1.75-.08-2,.3s-.14,1.47-.18,2.23L17,85.31h-.35v-10c.87,0,1.71,0,2.54,0A2.61,2.61,0,0,1,21.93,78Zm-1.56-1.67a11.34,11.34,0,0,0-3-.37c-.08,0-.25.29-.25.45,0,1.33,0,2.65,0,4.13a16.18,16.18,0,0,0,2.61-.16,2.12,2.12,0,0,0,1.58-1.91A1.82,1.82,0,0,0,20.37,76.29Zm23.62,0c-1.59-1.67-4.65-1.41-6.38.31a5.35,5.35,0,0,0,.11,7.54c1.77,1.62,4.82,1.82,6.22.22-3.69,1.06-6.9.57-7.07-3.69C36.69,76.1,39.79,75.08,44,76.29ZM32.48,80.24c-.78-.41-1.61-.71-2.41-1.08s-1.41-1-1.18-2a1.77,1.77,0,0,1,2-1.39c.86,0,1.71.21,2.56.32l.11-.42a16.65,16.65,0,0,0-2.77-.45,2.47,2.47,0,0,0-2.49,1.83c-.25,1.29.23,2.08,1.7,2.74.77.35,1.56.63,2.31,1A2,2,0,0,1,33.36,83a1.84,1.84,0,0,1-1.59,1.73A11,11,0,0,1,29,84.5a5,5,0,0,1-1-.37l-.09.33a4.59,4.59,0,0,0,4.11.85,2.5,2.5,0,0,0,2-2.26A2.47,2.47,0,0,0,32.48,80.24Zm27.44,0a17.85,17.85,0,0,0-1.68-.74c-1.58-.66-2.18-1.43-1.89-2.45s1.48-1.51,3-1.25c.22,0,.44.13.66.19s.59.12.88.18l.07-.32a4.48,4.48,0,0,0-3.07-.56,2.44,2.44,0,0,0-2.22,2,2.23,2.23,0,0,0,1.54,2.42c.8.37,1.63.68,2.42,1.06a2,2,0,0,1,1.22,2.15,1.88,1.88,0,0,1-1.61,1.85,10.55,10.55,0,0,1-2.78-.25,4.85,4.85,0,0,1-1.06-.39l-.12.35a4.93,4.93,0,0,0,3.75,1,2.64,2.64,0,0,0,2.37-2.16A2.52,2.52,0,0,0,59.92,80.23Zm-35.23,5h.25v-9.8h-.25Z"/><path d="M48.67,36.84c-2.43,1.39-4.66,1.35-6.42-1a4.13,4.13,0,0,1,.11-5.12c1.37-1.79,3.09-2,6.39-.84-.2-2-3.89-4.61-7.32-4.15a7.69,7.69,0,0,0,1,15.34C45.38,41,48.61,38.88,48.67,36.84Zm-8.32,3.41a7.14,7.14,0,0,1-5.24-6.42,7.06,7.06,0,0,1,4.74-7.12c2.71-.94,5.79-.19,7.28,1.78-3.63-.2-6,1.44-6.23,4.38-.29,3.33,1.52,5,6.06,5.52C45.85,40.08,42.78,41,40.35,40.25Z"/><path d="M51.8,27.88a10,10,0,0,1,3.53-6.11c-2.19-1.5-2.87-3.73-3.57-6.06a9.71,9.71,0,0,1-3.42,6.13A9.54,9.54,0,0,1,51.8,27.88Zm0-9.61,2.27,3.55-2.28,3.5-2.28-3.53Z"/><path d="M31.52,40.68a9.75,9.75,0,0,1-3.46,6.08c2.08,1.56,2.89,3.69,3.48,6.05a9.88,9.88,0,0,1,3.54-6.06C32.91,45.2,32.14,43,31.52,40.68Zm0,9.61-2.26-3.52,2.27-3.56,2.26,3.57Z"/><path d="M41.49,13V0C42.13.81,42.15,12.13,41.49,13Z"/><path d="M41.5,54.39c.56.61.7,11.62,0,12.75Z"/><path d="M41.62,24.36a3,3,0,0,0,.11-6,3,3,0,0,0-.11,6Zm0-5.42a2.51,2.51,0,0,1,2.43,2.42,2.4,2.4,0,0,1-4.79.07A2.48,2.48,0,0,1,41.65,18.94Z"/><path d="M41.77,42.91a3,3,0,0,0-3.08,2.91,2.93,2.93,0,0,0,2.89,3.07A2.85,2.85,0,0,0,44.63,46,3,3,0,0,0,41.77,42.91Zm0,5.43A2.41,2.41,0,1,1,44.08,46,2.47,2.47,0,0,1,41.73,48.34Z"/><path d="M41.61,49.79A1.61,1.61,0,1,0,41.74,53a1.61,1.61,0,1,0-.13-3.22Zm.06,2.54c-.37,0-.68-.61-1-.95.34-.32.67-.87,1.05-.91s.77.47,1.46.94C42.46,51.88,42,52.37,41.67,52.33Z"/><path d="M41.78,17.52a1.69,1.69,0,0,0,1.56-1.67,1.62,1.62,0,0,0-1.76-1.56A1.6,1.6,0,0,0,40,15.93,1.66,1.66,0,0,0,41.78,17.52Zm-.1-2.6c.36,0,.78.49,1.46,1-.67.46-1.08,1-1.45.93s-.69-.6-1-.93C41,15.55,41.31,15,41.68,14.92Z"/><path d="M24.06,48a1.19,1.19,0,0,0-.93-.41c-.88,0-1.75.2-2.63.3l-5.69.62c-.23-1.78-.54-3.26,1.25-4.39a4,4,0,0,0,1.85-4.76,26.24,26.24,0,0,1-.77-3.83,4.7,4.7,0,0,1,.16-2.18,41.78,41.78,0,0,1,6.53-11c.29-.36.6-.7.91-1l.16.13L19.76,32.92a4.38,4.38,0,0,0,.84.23c2.67.18,5.36.3,8,.53,1,.08,1.22-.3,1.2-1.22-.1-4.52,0-9.06-.27-13.57-.11-2.22.5-3.6,2.62-4.44a4.37,4.37,0,0,0,2.74-2.93,37.89,37.89,0,0,0,.86-3.94C36.3,4,32.41.3,28.78.9a37.94,37.94,0,0,1-4.67.8c-1.84.08-2.88,1.54-3.83,3a6.13,6.13,0,0,1-3.79,2.89C13.72,8.22,11,8.88,8.21,9.54L0,11.52c1.28,3.55,2.51,7,3.82,10.63L11.72,15a.76.76,0,0,1-.05.67A47.19,47.19,0,0,0,7.19,29.43c-.33,1.95-.49,3.94-.9,5.89C5.94,37,5.35,38.71,4.87,40.4a2.25,2.25,0,0,0,1,2.86,5.89,5.89,0,0,0,1,.62C8.11,44.3,8.52,45.31,9,46.4,13.3,56.59,20.43,63.58,31.54,66c1.11.23,2.24.33,3.45.51,0-.36,0-.45,0-.51Q29.54,57,24.06,48Zm-1.13.2c.21,0,.55,0,.63.14.88,1.4,1.73,2.83,2.66,4.37a17.15,17.15,0,0,1-10.68-2c-.39-.22-.57-.85-1-1.49C17.62,48.81,20.27,48.48,22.93,48.18ZM14.6,44c.51-2.68,1-5.37,1.56-8.23A5.37,5.37,0,0,1,14.6,44Zm6-11.61,6.18-13.77.42.17c-.71,2.25-1.43,4.5-2.14,6.75q-.84,2.68-1.69,5.37C22.81,32.83,22.81,32.83,20.64,32.42ZM27.1,32c0,.76-.32,1-1.06.9s-1.59-.16-2.54-.24c1.37-4.35,2.71-8.58,4.05-12.81l.31,0c-.2,3.16-.41,6.32-.61,9.48C27.2,30.28,27.11,31.15,27.1,32Zm1.95,1L27.62,33c.34-5.33.68-10.57,1-15.81h.4ZM.79,12l14-3.35.08.21L2,15.12Zm1.36,3.76L13.83,10l.16.23L3.18,18.54C2.81,17.51,2.5,16.66,2.15,15.71Zm2.06,5.18c-1-1.44-1-1.63.32-2.62l9.94-7.62C13.77,12.42,7.79,18.24,4.21,20.89Zm1.43,19c.27-1.06.58-2.11.87-3.16l.17.06c.39,2.27.78,4.55,1.18,6.82C5.58,42.85,5.08,42,5.64,39.85ZM15,55.35a33.13,33.13,0,0,1-5.74-9.79C6.3,37.67,7,29.84,9.67,22a36.28,36.28,0,0,1,8.91-14.7,39.51,39.51,0,0,0,2.76-3.16c1.16-1.42,2.48-2.34,4.46-1.92a2.61,2.61,0,0,0,1.4-.34c3.09-1.33,7.18.54,7.87,3.84.47,2.24-.64,4.37-1.24,6.5-.16.56-.9,1.07-1.49,1.37-3.12,1.59-5.42,4.12-7.66,6.69a41.42,41.42,0,0,0-10.11,20.2A34.37,34.37,0,0,0,15,54.44c0,.15.07.3.09.45A2.94,2.94,0,0,1,15,55.35Zm3.84-2.65a16.08,16.08,0,0,0,7,.64c.26,0,.7,0,.81.19,1.24,1.95,2.44,3.94,3.76,6.11a20.67,20.67,0,0,1-8.53-2A65.48,65.48,0,0,1,16.25,54a2.83,2.83,0,0,1-1.12-2.71C16.41,51.79,17.62,52.31,18.87,52.7Zm15,13.09c-1.21-.25-2.44-.45-3.64-.76a26.88,26.88,0,0,1-13.11-7.44,12.17,12.17,0,0,1-1.54-2.66l.35-.24c.26.18.53.36.78.55a23.3,23.3,0,0,0,12.56,4.89,2.65,2.65,0,0,1,2.48,1.58c.66,1.32,1.51,2.54,2.28,3.8Zm-2-53a1.46,1.46,0,0,0,1.6-1.53A1.43,1.43,0,0,0,32,9.69a1.56,1.56,0,0,0-1.64,1.53A1.58,1.58,0,0,0,31.91,12.74ZM32,9.9c.44.61.92,1,.88,1.31s-.57.9-.88.89a1.27,1.27,0,0,1-.9-.88C31,10.89,31.52,10.51,32,9.9Zm-8.5-3.61A1.44,1.44,0,0,0,25,4.8a1.53,1.53,0,0,0-1.61-1.55,1.45,1.45,0,0,0-1.51,1.52A1.48,1.48,0,0,0,23.46,6.29Zm-.07-2.86c.45.62.93,1,.9,1.32a1.26,1.26,0,0,1-.87.9,1.26,1.26,0,0,1-.9-.86C22.48,4.46,23,4.07,23.39,3.43Z"/><path d="M81.48,54.7c-1.08-2.9-2.11-5.83-3.16-8.74a5.13,5.13,0,0,0-.43-.7l-7.63,6.89c1.18-3.48,2.51-7,3.58-10.64,1.32-4.47,1.27-9.23,2.86-13.68,1-2.7.59-3.13-2.06-4.6a3.3,3.3,0,0,1-1.58-1.82C68.83,11,61.68,3.82,50.41,1.35,49.25,1.1,48.06,1,46.68.79A6.15,6.15,0,0,0,47,1.7c3.54,5.83,7.07,11.66,10.66,17.47a1.51,1.51,0,0,0,1.19.52c1.53-.11,3-.35,4.57-.52,1.19-.13,2.4-.23,3.58-.35.31,1.9.34,3.43-1.46,4.55a3.68,3.68,0,0,0-1.68,4.29c.36,1.41.61,2.84.88,4.27a2.47,2.47,0,0,1,.09,1.22A37.8,37.8,0,0,1,57,45.88c1.7-3.84,3.4-7.67,5.17-11.68-3.16-.2-6-.34-8.88-.58-1-.08-1.26.16-1.24,1.15.11,4.76,0,9.51.25,14.26a3.21,3.21,0,0,1-2.15,3.55A5.07,5.07,0,0,0,47,55.49a20.9,20.9,0,0,0-1,4.62c-.33,4.08,4.6,7.45,8.54,5.93A3.14,3.14,0,0,1,56,65.66c2.68.36,4.3-1,5.62-3.14a6,6,0,0,1,3.84-2.85c5.11-1.18,10.2-2.45,15.31-3.62C81.65,55.84,81.77,55.5,81.48,54.7Zm-2.83-5.94c.36,1,.68,1.84,1,2.82-4,2-7.9,3.86-11.78,5.74l-.13-.21ZM76.27,27.17c-.28,1.07-.59,2.13-.89,3.2,0,.06-.1.11-.21.23-.4-2.33-.78-4.58-1.17-6.81C76,24.17,76.76,25.27,76.27,27.17ZM47.68,1.54c.93.13,1.58.2,2.21.33A27.6,27.6,0,0,1,64.71,9.66a12.21,12.21,0,0,1,1.55,2.66l-.3.12c-1.85-1.08-3.65-2.23-5.54-3.21A25,25,0,0,0,51.79,7a1.92,1.92,0,0,1-1.24-.76C49.6,4.81,48.75,3.31,47.68,1.54Zm4,6c1.45.25,2.92.42,4.34.76a22.26,22.26,0,0,1,9.71,5,3,3,0,0,1,1,2.47c-2.13-.6-4.11-1.32-6.16-1.7A31.53,31.53,0,0,0,56,13.91c-.32,0-.78,0-.9-.23A52,52,0,0,1,51.63,7.55ZM58.81,19.1a.87.87,0,0,1-.65-.33c-.83-1.31-1.63-2.65-2.55-4.16a16.91,16.91,0,0,1,10.86,2.11c.34.18.43.81.73,1.42C64.2,18.49,61.51,18.81,58.81,19.1ZM67.29,23l-1.65,8.6C63.46,28,64.08,24.58,67.29,23Zm-6.1,11.87Q58.1,41.78,55,48.59l-.39-.16c.28-.93.55-1.88.84-2.81q1.48-4.71,3-9.41C59.05,34.38,59,34.38,61.19,34.91Zm-5.49-.56c.83.09,1.66.16,2.66.25C57,39,55.61,43.24,54.26,47.5l-.28,0c.08-1.24.17-2.48.24-3.71.18-2.83.37-5.65.52-8.48C54.77,34.58,55,34.26,55.7,34.35Zm-2.85-.15,1.38.13c-.35,5.34-.69,10.58-1,15.83h-.34ZM63.09,60.12A25,25,0,0,0,60.57,63C59.4,64.52,58,65.44,56,65a2.25,2.25,0,0,0-1.2.24,5.88,5.88,0,0,1-7.94-3.33c-.25-.69-.5-1.72-.17-2.22,1-1.61.06-3.79,1.63-5.16a5.72,5.72,0,0,1,1.17-.92c3.73-2,6.4-5.09,9-8.28A40.55,40.55,0,0,0,67.23,27,34.41,34.41,0,0,0,66.86,13c-.06-.29-.11-.59-.17-.88a26.87,26.87,0,0,1,5.53,8.71c3,7.35,2.84,14.8.61,22.29C70.92,49.58,68,55.42,63.09,60.12ZM77.62,46.23c1,1.82,1,1.81-.41,2.87-3.28,2.51-6.56,5-9.95,7.41C70.11,52.52,74.18,49.77,77.62,46.23ZM67.39,58.6l-.1-.28,12.62-6.15c.39,1.09.73,2,1.14,3.17ZM50,54.49a1.63,1.63,0,0,0-1.65,1.44,1.51,1.51,0,0,0,1.48,1.66,1.43,1.43,0,0,0,1.64-1.38A1.59,1.59,0,0,0,50,54.49Zm0,2.43c-.35,0-.67-.53-1-.82.31-.33.58-.88.93-.94s.72.42,1.39.85C50.62,56.47,50.25,57,49.93,56.92Zm8.43,4a1.63,1.63,0,0,0-1.51,1.58A1.56,1.56,0,0,0,58.5,64,1.49,1.49,0,0,0,60,62.5,1.59,1.59,0,0,0,58.36,60.94Zm0,2.44c-.35-.06-.87-.63-.84-.91a1.28,1.28,0,0,1,.93-.86c.32,0,.69.49,1.3,1C59.12,63,58.71,63.43,58.39,63.38Z"/></g></g></svg>