<svg xmlns="http://www.w3.org/2000/svg" viewBox="0 0 105.47 154.18"><title>Asset 559</title><g id="Layer_2" data-name="Layer 2"><g id="Layer_1-2" data-name="Layer 1"><path d="M105.47,77.88a.68.68,0,0,0-.35-.54,5.39,5.39,0,0,0-.48-.25c-.84-.42-1.26-.63-.82-2s.12-2.32-.26-2.73a2.25,2.25,0,0,0-2.22-.5c-1,.22-2.31-2.34-2.81-3.3a7.73,7.73,0,0,1-.55-2c-.21-1.14-.39-2.13-1.19-2.43a2.08,2.08,0,0,0-1.89.58c-2.65,2.09-1.54,7.24.32,14.29.71,2.68-.06,5.77-2.29,9.16a36.73,36.73,0,0,1-13,9.08,6.62,6.62,0,0,1,.67-3.52c.17-.42.35-.85-.08-1.13a.62.62,0,0,0-.82.13,37.16,37.16,0,0,1-10.06,6.94h0a31.1,31.1,0,0,1-7.74-.43A28.7,28.7,0,0,1,44.68,89.05c2.14-.5,4.06-3.75,5.11-5.91.66-1.34,2.15-1.77,3.35-2.11.91-.26,1.62-.47,1.81-1.1a1.35,1.35,0,0,0-.41-1.22c-1.64-1.86-6-2.33-11-1.21a6,6,0,0,1-6.18-2c-.4-1.23-.66-2.26-.83-3-2.4-10.29-5.58-16.36-9.43-18.06a6.21,6.21,0,0,0-5.75.51c-7.81,4.41-5.25,19.14-2.51,27.16.49,1.42,1,2.78,1.63,4.1h-.06a12,12,0,0,1-.9,6.08,16.23,16.23,0,0,1-1.32,2.12A10.37,10.37,0,0,0,16,103.15c.14.89.43,2.11,1.38,2.43a1.41,1.41,0,0,0,.45.07c1,0,2.14-1.06,3.31-2.18a16.72,16.72,0,0,1,1.83-1.6c1.1-.75,2.9-.91,4.48-1.06s2.63-.24,3.25-.78a44.46,44.46,0,0,0,4.5,3.39c7.87,5.17,15.74,7.76,23.46,7.76a34.21,34.21,0,0,0,7.66-.86A36.64,36.64,0,0,0,73.21,108c1.49-.13,8-.72,10.07-2l1.45-.9L83,104.9c-1.31-.14-1.72-.56-1.89-1,5.5-3.4,9.3-9.78,9.5-10.12C92,92.12,93.09,90.49,94,89l.14-.13c.21-.18,2.92-2.46,5.59-4.84C105.56,78.88,105.5,78.31,105.47,77.88ZM78.89,95.08a5.12,5.12,0,0,0,0,2.58,33.29,33.29,0,0,1-5.91,1.6A37.75,37.75,0,0,0,78.89,95.08ZM43.74,87.87h0c-.52-.68-1-1.35-1.46-2l2.93.5.2-1.16c-1.89-.31-3.44-.59-4-.68-.36-.59-.69-1.17-1-1.74a10.68,10.68,0,0,0,3.75.28c2.81-.26,3.85.47,3.85.47l.71-.89C46.93,86.33,45,88.34,43.74,87.87Zm0-9.22c4.5-1,8.56-.66,9.88.83l.09.11a7.4,7.4,0,0,1-.94.31c-1.26.36-3.16.91-4.05,2.69-.16-.12-1.43-1-4.7-.7a8.79,8.79,0,0,1-4.41-.64c-.2-.41-.4-.83-.58-1.23a7.94,7.94,0,0,0,3.16.66,8.84,8.84,0,0,0,1.71-.17c3.73-.76,4.82-.88,6-.39L50.38,79c-1.51-.63-3-.43-6.68.32a6.62,6.62,0,0,1-5.38-1.11c-.07-.16-.13-.32-.19-.48A7.31,7.31,0,0,0,43.78,78.65ZM19.93,81.78c-2.44-7.15-5.18-21.72,2-25.76a5,5,0,0,1,4.7-.45c3.45,1.51,6.48,7.47,8.76,17.24a42.64,42.64,0,0,0,2.36,7.07c-.83-.24-2.35-1.28-4.07-3.67-2.06-2.86-4-4.9-8.66-3.11A6.55,6.55,0,0,0,21.18,77a9.18,9.18,0,0,0,.55,7.37c.86,1.66.87,2.68.68,3.29A43.91,43.91,0,0,1,19.93,81.78Zm7.38,17.86c-1.73.16-3.69.33-5,1.27a16.69,16.69,0,0,0-2,1.71c-.83.8-2.1,2-2.57,1.85-.07,0-.4-.2-.6-1.49a9.19,9.19,0,0,1,2-7.84,17.62,17.62,0,0,0,1.42-2.28,11.8,11.8,0,0,0,1.05-4.22l.6,1.09C22,91.19,21,93.29,18.72,96.51a8.06,8.06,0,0,0-1.13,6.86L18.7,103a6.91,6.91,0,0,1,1-5.8,26.08,26.08,0,0,0,3.37-6l.63,1a25.52,25.52,0,0,0-2.66,8l1.16.18a25.33,25.33,0,0,1,2.24-7.1l.5.69a17.64,17.64,0,0,0-.18,5l1.17-.13a20.26,20.26,0,0,1,0-3.6,39.38,39.38,0,0,0,3.87,4.1A9.83,9.83,0,0,1,27.31,99.64Zm53.85,5.94a36.4,36.4,0,0,1-5,.91c.54-.3,1.08-.61,1.6-.94l.16-.06.92-.39a12,12,0,0,0,1.26-.59A2.29,2.29,0,0,0,81.16,105.58Zm-4-1C68.9,108,57.72,112.4,43.19,99a69.09,69.09,0,0,1-5.91-6.16C43.44,98.57,53.72,106,65.21,105a43.1,43.1,0,0,0,18.48-5.42A44,44,0,0,1,77.12,104.56ZM89.68,93.17h0c-.06.09-6.78,9.24-24.55,10.71s-32.71-18-32.86-18.18l-1,.62c.13.25,3.18,6.18,11.13,13.52,7.78,7.18,14.74,9.4,20.78,9.4a25.31,25.31,0,0,0,3.84-.3l-1,.24c-9.83,2.24-20,0-30.22-6.73A38.35,38.35,0,0,1,23.07,88.86c.57-.72,1.15-2.26-.3-5.06a8.16,8.16,0,0,1-.5-6.41,5.37,5.37,0,0,1,3.15-3.19c3.6-1.39,5.1-.34,7.29,2.7,2,2.77,4.13,4.35,5.57,4.2A39.62,39.62,0,0,0,43,88.84a30,30,0,0,0,18.71,11.54,33.1,33.1,0,0,0,5.85.52,35.93,35.93,0,0,0,22.89-8.75C90.2,92.5,89.94,92.83,89.68,93.17Zm8.41-16.82c0,.37-.09.77-.16,1.19a26.69,26.69,0,0,0-.87-3.74c-.09-.33-.19-.67-.28-1-1.07-3.9-.26-5.26-.25-5.27L96,67.18l-.48-.34c-.12.17-1.14,1.79.08,6.25.1.35.2.69.29,1,.67,2.33,1.27,4.46.72,7.13a9.21,9.21,0,0,0-.29-2.58c-1.69-6.39-2.82-11.41-.74-13.06.55-.43.75-.4.75-.41a4.21,4.21,0,0,1,.46,1.55,8.75,8.75,0,0,0,.66,2.35,20.05,20.05,0,0,0,1.3,2.23l-.87.21A15.89,15.89,0,0,1,98.09,76.35Zm2.86,5c1.28-1.53,2-2.43,2-2.45l-.94-.69s-1,1.32-2.82,3.45a21.56,21.56,0,0,0,2.8-7.07l-1.16-.16a19.84,19.84,0,0,1-2.28,6,20.1,20.1,0,0,0,.66-8.6A2.47,2.47,0,0,0,101.61,73a1.16,1.16,0,0,1,1.09.15c.24.26.24.84,0,1.58-.74,2.34.56,3,1.42,3.41h0A32.24,32.24,0,0,1,101,81.39ZM31.7,69.28l.41-.19a1.92,1.92,0,0,0,1.07-1.3,1.86,1.86,0,0,0-.72-1.65,1.17,1.17,0,0,1-.35-1.08.59.59,0,0,0-1.14-.3,6.24,6.24,0,0,0-.38,1.81A3.92,3.92,0,0,0,31.41,69ZM32,67.6s0,0,0,.06a2.34,2.34,0,0,1-.16-.47A.64.64,0,0,1,32,67.6Z"/><path d="M85,24.93h.06a11.9,11.9,0,0,1,.9-6.08,13.84,13.84,0,0,1,1.32-2.12A10.44,10.44,0,0,0,89.51,8c-.14-.89-.43-2.1-1.38-2.43-1.15-.39-2.42.83-3.76,2.11a15.67,15.67,0,0,1-1.82,1.6c-1.11.76-2.9.92-4.49,1.06-1.44.13-2.62.24-3.25.79a41.54,41.54,0,0,0-4.49-3.39C59.82.88,49.34-1.44,39.19.86A36.9,36.9,0,0,0,32.26,3.2c-1.48.12-8,.72-10.06,2l-1.45.9,1.69.18c1.32.14,1.73.56,1.89,1-5.5,3.41-9.3,9.78-9.5,10.12-1.32,1.69-2.45,3.31-3.39,4.77l-.14.13c-.21.18-2.92,2.46-5.59,4.84C-.08,32.3,0,32.88,0,33.3a.7.7,0,0,0,.34.55l.48.25c.84.41,1.26.62.82,2s-.12,2.31.26,2.73a2.23,2.23,0,0,0,2.22.49c1-.22,2.31,2.34,2.81,3.3a7.84,7.84,0,0,1,.55,2c.21,1.14.4,2.13,1.19,2.43a1.12,1.12,0,0,0,.43.08,2.56,2.56,0,0,0,1.46-.66c2.66-2.09,1.54-7.23-.32-14.28-.71-2.69.06-5.77,2.29-9.17a37,37,0,0,1,13-9.08,6.66,6.66,0,0,1-.67,3.53c-.17.41-.34.84.08,1.13a.73.73,0,0,0,.33.09.67.67,0,0,0,.49-.23,36.89,36.89,0,0,1,10.06-6.93v0a31.5,31.5,0,0,1,7.73.43A28.68,28.68,0,0,1,60.79,22.13c-2.14.5-4.06,3.76-5.11,5.91-.65,1.35-2.15,1.77-3.34,2.12-.91.26-1.63.46-1.82,1.1a1.37,1.37,0,0,0,.41,1.22c1.64,1.85,6,2.32,11,1.2a6,6,0,0,1,6.18,2c.4,1.24.67,2.26.83,3,2.41,10.28,5.58,16.36,9.43,18a5.62,5.62,0,0,0,2.29.49,7,7,0,0,0,3.46-1C92,51.77,89.4,37,86.65,29,86.17,27.61,85.62,26.24,85,24.93ZM4.27,38.13a2,2,0,0,0-.41,0A1.17,1.17,0,0,1,2.77,38c-.23-.26-.23-.83,0-1.58.75-2.33-.56-3-1.42-3.41h0A30.18,30.18,0,0,1,4.52,29.8c-1.28,1.52-1.94,2.42-2,2.44l.95.69s1-1.32,2.81-3.44a21.56,21.56,0,0,0-2.8,7.06l1.16.16A20.41,20.41,0,0,1,7,30.76a20.27,20.27,0,0,0-.66,8.6A2.77,2.77,0,0,0,4.27,38.13Zm5.58,7.44C9.3,46,9.1,46,9.1,46a4.18,4.18,0,0,1-.45-1.55A8.26,8.26,0,0,0,8,42.09a18.38,18.38,0,0,0-1.3-2.23l.87-.22a16.13,16.13,0,0,1-.16-4.81c0-.37.08-.77.15-1.19a26.37,26.37,0,0,0,.87,3.74c.1.34.19.68.29,1,1.07,3.9.25,5.26.25,5.28l.48.32.48.34c.12-.17,1.14-1.78-.08-6.25-.1-.35-.19-.69-.29-1-.66-2.33-1.27-4.46-.71-7.12a8.82,8.82,0,0,0,.29,2.57C10.81,38.9,11.94,43.93,9.85,45.57Zm68.32-34c1.73-.16,3.69-.33,5-1.26a16.82,16.82,0,0,0,2-1.72c.84-.8,2.1-2,2.58-1.84.06,0,.39.19.59,1.49a9.18,9.18,0,0,1-2,7.83,15.27,15.27,0,0,0-1.42,2.29,11.74,11.74,0,0,0-1.06,4.22c-.19-.37-.4-.73-.6-1.09.18-1.46,1.26-3.57,3.48-6.79a8.06,8.06,0,0,0,1.13-6.86l-1.11.39a6.91,6.91,0,0,1-1,5.8,26.08,26.08,0,0,0-3.37,6c-.2-.32-.41-.65-.63-1a25.29,25.29,0,0,0,2.67-8l-1.16-.17A26,26,0,0,1,81,18l-.5-.69a17.64,17.64,0,0,0,.18-5l-1.17.13a19.25,19.25,0,0,1,0,3.6,39.28,39.28,0,0,0-3.86-4.1A9.75,9.75,0,0,1,78.17,11.54ZM24.32,5.6a37.68,37.68,0,0,1,5-.91c-.55.3-1.08.61-1.61.94l-.15.06-.93.39c-.43.18-.85.38-1.26.59A2.31,2.31,0,0,0,24.32,5.6Zm4,1c8.22-3.43,19.4-7.83,33.94,5.59a68.76,68.76,0,0,1,5.9,6.16C62.4,13,52.94,6.06,42.28,6.06c-.67,0-1.34,0-2,.09a43.11,43.11,0,0,0-18.48,5.41A45.27,45.27,0,0,1,28.35,6.62Zm-1.77,9.49a5.12,5.12,0,0,0,.06-2.58,33,33,0,0,1,5.9-1.61A37.23,37.23,0,0,0,26.58,16.11Zm35.16,7.2h0c.51.67,1,1.35,1.45,2l-2.93-.5L60.07,26l4,.69c.36.58.69,1.16,1,1.73a10.64,10.64,0,0,0-3.74-.28c-2.82.27-3.86-.46-3.86-.46l-.7.88C58.54,24.86,60.46,22.85,61.74,23.31Zm0,9.23c-4.5,1-8.57.65-9.89-.84l-.09-.11a7.4,7.4,0,0,1,.94-.31c1.26-.36,3.16-.9,4.06-2.69.15.12,1.42,1,4.69.71a8.68,8.68,0,0,1,4.41.63c.21.42.4.83.58,1.23a8,8,0,0,0-4.86-.48c-3.74.75-4.83.88-6,.39l-.45,1.08c1.52.64,3,.43,6.68-.32A6.63,6.63,0,0,1,67.16,33l.18.48A7.25,7.25,0,0,0,61.7,32.54Zm5.5-2.46a41.25,41.25,0,0,0-4.72-7.74A30.08,30.08,0,0,0,43.76,10.81a33.1,33.1,0,0,0-5.84-.53A35.94,35.94,0,0,0,15,19l.78-1h0c.07-.1,6.78-9.25,24.55-10.71s32.71,18,32.86,18.17l1-.62c-.13-.25-3.18-6.18-11.13-13.52C53.61,2.61,45.34,1.22,38.5,2.24l1-.23c9.83-2.24,20,0,30.22,6.74A38.15,38.15,0,0,1,82.4,22.32c-.57.73-1.15,2.26.3,5.07a8.09,8.09,0,0,1,.5,6.4A5.35,5.35,0,0,1,80.06,37c-3.61,1.39-5.1.34-7.29-2.69C70.77,31.51,68.63,29.93,67.2,30.08ZM83.56,55.16a5,5,0,0,1-4.69.46c-3.45-1.52-6.48-7.48-8.76-17.25a42.56,42.56,0,0,0-2.37-7.07c.83.24,2.35,1.28,4.08,3.67,1.52,2.11,3,3.78,5.52,3.78a9,9,0,0,0,3.14-.67,6.49,6.49,0,0,0,3.82-3.87,9.2,9.2,0,0,0-.56-7.36c-.86-1.66-.86-2.69-.67-3.29a43.33,43.33,0,0,1,2.47,5.85C88,36.55,90.72,51.12,83.56,55.16ZM73.77,41.9l-.4.19a1.9,1.9,0,0,0-1.07,1.3A1.87,1.87,0,0,0,73,45a1.15,1.15,0,0,1,.35,1.08.59.59,0,0,0,.42.69l.16,0a.6.6,0,0,0,.57-.41,6.59,6.59,0,0,0,.38-1.81,3.92,3.92,0,0,0-.83-2.37Zm-.31,1.68a.13.13,0,0,1,0-.06,2.34,2.34,0,0,1,.16.47A.57.57,0,0,1,73.46,43.58Z"/><path d="M36.09,140.83H32.35v13.11H34v-5.19h2.14c2.88,0,4.86-1.28,4.86-4.06S39,140.83,36.09,140.83ZM36,147.39H34v-5.2h1.86c2.3,0,3.46.62,3.46,2.5S38.25,147.39,36,147.39Zm7.71-6.56h1.68v13.11H43.68Zm13.38,9.62c0,2.07-1.72,3.73-4.48,3.73a6.16,6.16,0,0,1-4.6-2l.94-1.1a5.21,5.21,0,0,0,3.68,1.58c1.72,0,2.74-.86,2.74-2.12s-1-1.75-2.18-2.29l-1.9-.84a3.67,3.67,0,0,1-2.64-3.38c0-2,1.74-3.48,4.12-3.48a5.47,5.47,0,0,1,3.88,1.58l-.92,1.12a4.26,4.26,0,0,0-3-1.22c-1.46,0-2.42.74-2.42,1.9s1.14,1.74,2.16,2.16l1.88.82C55.88,147.59,57.06,148.51,57.06,150.45Zm10.61.83.92,1a5.07,5.07,0,0,1-4,1.9c-3.27,0-5.71-2.52-5.71-6.79s2.48-6.8,5.81-6.8a4.87,4.87,0,0,1,3.62,1.62l-.92,1a3.6,3.6,0,0,0-2.68-1.18c-2.45,0-4.09,2-4.09,5.28s1.56,5.35,4,5.35A3.9,3.9,0,0,0,67.67,151.28Zm5,1.24h6.08v1.42H71V140.83h7.56v1.42H72.71v4.1h5v1.42h-5Zm17-2.07c0,2.07-1.72,3.73-4.48,3.73a6.15,6.15,0,0,1-4.59-2l.94-1.1a5.19,5.19,0,0,0,3.67,1.58c1.72,0,2.74-.86,2.74-2.12s-1-1.75-2.18-2.29l-1.9-.84a3.68,3.68,0,0,1-2.63-3.38c0-2,1.74-3.48,4.11-3.48a5.47,5.47,0,0,1,3.88,1.58l-.92,1.12a4.26,4.26,0,0,0-3-1.22c-1.46,0-2.41.74-2.41,1.9s1.14,1.74,2.15,2.16L87,147C88.5,147.59,89.68,148.51,89.68,150.45Z"/></g></g></svg>