<svg xmlns="http://www.w3.org/2000/svg" viewBox="0 0 119.36 103.04"><defs><style>.cls-1{fill:#1d1d1b;}</style></defs><title>Asset 397</title><g id="Layer_2" data-name="Layer 2"><g id="Layer_1-2" data-name="Layer 1"><path class="cls-1" d="M99.2,22.22a.41.41,0,0,1-.18,0,.4.4,0,0,1-.18-.54l4.44-8.79a.4.4,0,0,1,.54-.18.42.42,0,0,1,.18.55L99.56,22A.41.41,0,0,1,99.2,22.22ZM112,30.42a.41.41,0,0,0-.31-.49L99.75,27.15a.41.41,0,0,0-.49.31.4.4,0,0,0,.3.48l11.9,2.78h.09A.41.41,0,0,0,112,30.42Zm-.74,14.86,2.68-9a.41.41,0,0,0-.28-.51.41.41,0,0,0-.5.27l-2.68,9a.41.41,0,0,0,.28.51h.11A.4.4,0,0,0,111.21,45.28ZM17,66.75l1.17-6.47a.41.41,0,1,0-.8-.15l-1.17,6.48a.41.41,0,0,0,.33.47h.07A.4.4,0,0,0,17,66.75ZM14,56.44a.41.41,0,0,0-.41-.41H7a.41.41,0,1,0,0,.81h6.59A.4.4,0,0,0,14,56.44Zm11.57-5.93,7.74-7.27a.41.41,0,0,0,0-.57.42.42,0,0,0-.58,0L25,49.92a.4.4,0,0,0,0,.57.39.39,0,0,0,.3.13A.39.39,0,0,0,25.53,50.51Zm31.85-3.82a.4.4,0,0,0-.28-.5l-17-4.68a.41.41,0,0,0-.5.29.4.4,0,0,0,.29.49l17,4.68L57,47A.41.41,0,0,0,57.38,46.69ZM51.26,61.07,58.34,54a.4.4,0,0,0-.57-.57l-7.08,7.06a.41.41,0,0,0,0,.58.4.4,0,0,0,.29.12A.39.39,0,0,0,51.26,61.07Zm7.2,24,1.06-29.85a.41.41,0,1,0-.81,0L57.65,85a.41.41,0,0,0,.39.43h0A.42.42,0,0,0,58.46,85.07Zm3.15.34,6.8-4a.41.41,0,0,0-.42-.7l-6.79,4a.4.4,0,0,0-.14.56.42.42,0,0,0,.35.2A.36.36,0,0,0,61.61,85.41Zm7.15-9.55a.41.41,0,0,0,.31-.49l-4.84-21a.41.41,0,1,0-.79.18l4.84,21a.4.4,0,0,0,.39.32Zm8.21,3,19.35-1.77a.41.41,0,0,0-.08-.81L76.89,78.07a.41.41,0,0,0,0,.81Zm24.5,7.33.5-6a.41.41,0,0,0-.38-.44.4.4,0,0,0-.43.37l-.5,6a.42.42,0,0,0,.38.44h0A.4.4,0,0,0,101.47,86.21ZM99.34,72.34a.4.4,0,0,0,.24-.52l-7-19.2a.4.4,0,0,0-.76.28l7,19.2a.41.41,0,0,0,.38.27A.32.32,0,0,0,99.34,72.34ZM85.56,50.24a.4.4,0,0,0-.38-.43L69.6,48.88a.42.42,0,0,0-.43.38.41.41,0,0,0,.39.43l15.57.93h0A.41.41,0,0,0,85.56,50.24ZM104,52.06a.4.4,0,0,0-.38-.43l-9.2-.49a.4.4,0,0,0-.42.39.42.42,0,0,0,.38.43l9.2.48h0A.4.4,0,0,0,104,52.06Zm2.81-44.7c-.86.21-.4-1.53-1.57-.9l.89,2c-.92,0-1.74,0-2.55,0s-1.55-.53-2.37-.07c.17.6.59.56,1,.56h3.55c.25,0,.5,0,.84.06-.63.95-1.83,1.29-2,2.63,1-.23,1.35-1.36,2.33-1.53,0,.5,0,.92,0,1.35s-.09,1-.06,1.52c.05.74.2,1.47.23,2.21.06,1,0,2,.07,3.08a3.33,3.33,0,0,0,.24.78l.33,0a6.65,6.65,0,0,0,.13-1.07c0-2.13-.13-4.25-.19-6.38,0-.46-.06-.93.42-1.26.73.51,1,1.48,1.81,1.8.48-.32.34-.64.09-.93s-.6-.62-.89-.94-.83-.63-.75-1.35a3.58,3.58,0,0,1,1-.15,26,26,0,0,1,2.78.47c.49.12.84.16,1.08-.52a32.71,32.71,0,0,0-4.59-.55L110,5.91c-1.22,0-1.15,1.15-2,1.41l.16-1.77-1,.92c0-2,0-3.7,0-5.42,0-.37.24-.78-.55-1A47.36,47.36,0,0,0,106.85,7.36ZM108,48.69c-.87.21-.41-1.53-1.58-.9l.89,2c-.92,0-1.73,0-2.54,0s-1.56-.53-2.37-.07c.16.6.59.56,1,.56,1.18,0,2.37,0,3.55,0,.25,0,.5,0,.84.06-.63,1-1.83,1.29-2,2.63,1.06-.23,1.35-1.36,2.33-1.54,0,.51,0,.93,0,1.36s-.08,1,0,1.52c0,.74.19,1.47.23,2.21,0,1,0,2.05.07,3.07a3.16,3.16,0,0,0,.23.78l.33,0a6.39,6.39,0,0,0,.13-1.06c0-2.13-.13-4.25-.19-6.38,0-.46,0-.93.43-1.26.72.51,1,1.48,1.8,1.8.48-.32.34-.64.1-.93s-.6-.63-.9-.95-.82-.62-.75-1.35a3.57,3.57,0,0,1,1-.14,24.25,24.25,0,0,1,2.79.47c.48.12.83.16,1.07-.52a32.71,32.71,0,0,0-4.59-.55l1.41-2.19c-1.22-.05-1.15,1.15-2,1.41l.16-1.77-1,.92c0-2,0-3.7,0-5.42,0-.37.24-.78-.54-1.05A47.36,47.36,0,0,0,108,48.69Zm-9.32,42.7c-.86.21-.4-1.53-1.58-.9.29.63.56,1.22.89,2-.92,0-1.73,0-2.54,0s-1.56-.53-2.37-.08c.17.6.59.56,1,.56,1.19,0,2.37,0,3.55,0,.25,0,.5,0,.85.06-.63,1-1.84,1.29-2,2.63,1.06-.23,1.35-1.35,2.33-1.53,0,.5,0,.92,0,1.35s-.08,1-.05,1.53c0,.73.19,1.46.23,2.2,0,1,0,2,.07,3.08a2.92,2.92,0,0,0,.24.78l.33,0a8,8,0,0,0,.12-1.07c0-2.13-.13-4.25-.19-6.38,0-.46-.05-.93.43-1.26.72.51,1,1.48,1.8,1.8.48-.31.34-.64.1-.93s-.6-.62-.89-.94-.83-.63-.76-1.35a3.64,3.64,0,0,1,1-.15,23.92,23.92,0,0,1,2.79.48c.49.11.83.15,1.08-.53a33,33,0,0,0-4.6-.55l1.41-2.19c-1.22,0-1.15,1.16-1.95,1.41l.17-1.77-1,.92c0-2,0-3.7,0-5.42,0-.37.25-.78-.54-1A47.34,47.34,0,0,0,98.71,91.39ZM62.9,44c-.88,0-.08-1.57-1.36-1.2l.48,2.1c-.9-.19-1.69-.38-2.5-.51s-1.41-.84-2.3-.56c0,.63.46.67.84.75l3.48.72c.24,0,.48.14.81.24-.81.8-2.06.88-2.54,2.16,1.09,0,1.6-1.06,2.6-1-.1.5-.18.91-.28,1.33s-.29,1-.36,1.48c-.1.73-.11,1.48-.22,2.21-.16,1-.39,2-.56,3a3.31,3.31,0,0,0,.08.82l.33,0a9.38,9.38,0,0,0,.34-1c.38-2.09.73-4.18,1.1-6.28.08-.45.14-.92.68-1.15.61.65.64,1.65,1.4,2.13.53-.21.46-.56.28-.89s-.46-.73-.68-1.11-.68-.78-.46-1.47a3.38,3.38,0,0,1,1,.06,24.87,24.87,0,0,1,2.64,1c.45.21.78.32,1.16-.3A32.74,32.74,0,0,0,64.48,45l1.83-1.86c-1.19-.3-1.37.89-2.2,1l.52-1.71-1.15.71c.4-1.94.74-3.63,1.11-5.31.08-.36.4-.72-.32-1.14A48.1,48.1,0,0,0,62.9,44ZM18.27,52.41c-.81.36-.66-1.44-1.7-.62l1.21,1.78c-.9.16-1.71.27-2.5.45s-1.63-.26-2.35.33c.27.56.68.45,1.06.39l3.49-.62c.25,0,.5,0,.85-.08-.46,1-1.59,1.58-1.56,2.94,1-.41,1.09-1.57,2-1.92.08.5.16.92.23,1.34a15.23,15.23,0,0,0,.21,1.51c.17.72.45,1.41.61,2.13.23,1,.38,2,.6,3a3.86,3.86,0,0,0,.37.73l.32-.09a7.51,7.51,0,0,0-.06-1.07c-.42-2.09-.86-4.17-1.29-6.25-.1-.45-.22-.91.2-1.32.8.38,1.21,1.29,2.09,1.46.42-.39.22-.69-.07-.93s-.7-.51-1-.78-.93-.47-1-1.2a4.08,4.08,0,0,1,1-.32,24.29,24.29,0,0,1,2.83,0c.5,0,.84,0,1-.71a32.87,32.87,0,0,0-4.62.26l1-2.4c-1.21.16-.94,1.34-1.68,1.73l-.14-1.78-.81,1.08c-.34-1.94-.65-3.64-.93-5.34-.06-.36.1-.81-.72-.94A47.67,47.67,0,0,0,18.27,52.41Zm94.2-19.87a5.76,5.76,0,0,0,.62.26,12.88,12.88,0,0,1,1.49.47c1.09.5.87.33.83,1.42,0,.52,0,1,0,1.66,0,.4.3-.15.33-.22a8.29,8.29,0,0,0,.35-1c.17-.61.36-1.14,1.11-1.3a10.83,10.83,0,0,0,2-.49c.48-.17-.69-.51-.87-.58s-.62-.24-.93-.35a1.49,1.49,0,0,1-1.07-1.51c0-.57.06-1.13.1-1.7,0-.21.08-.42-.27-.5a2.92,2.92,0,0,0-.14.38c-.16.69-.35,1.38-.44,2.08s-.56.93-1.15,1c-.28,0-.57,0-.86,0l-1.1.08C112.35,32.34,112.18,32.41,112.47,32.54ZM93,24c.2.08.4.18.61.25a14.36,14.36,0,0,1,1.49.47c1.09.5.88.33.84,1.42,0,.52,0,1,0,1.66.05.4.31-.15.33-.21a7.35,7.35,0,0,0,.36-1c.17-.61.35-1.14,1.11-1.31a10.25,10.25,0,0,0,2-.49c.47-.16-.69-.5-.87-.58s-.62-.23-.93-.34a1.47,1.47,0,0,1-1.07-1.51c0-.57.06-1.14.1-1.7,0-.21.08-.43-.28-.51,0,.14-.11.26-.14.38-.15.7-.34,1.38-.43,2.08s-.56.94-1.16,1a8.08,8.08,0,0,1-.85.05l-1.1.08C92.87,23.76,92.7,23.84,93,24ZM86.6,49.06a5.76,5.76,0,0,0,.62.26,12.88,12.88,0,0,1,1.49.47c1.09.5.87.33.83,1.42,0,.52,0,1,0,1.66,0,.4.3-.15.33-.22a8.29,8.29,0,0,0,.35-1c.17-.61.36-1.14,1.11-1.3a10.83,10.83,0,0,0,2-.49c.48-.17-.69-.51-.87-.58s-.62-.24-.93-.35a1.49,1.49,0,0,1-1.07-1.51c0-.56.06-1.13.1-1.7,0-.2.08-.42-.27-.5a2.92,2.92,0,0,0-.14.38c-.16.69-.35,1.38-.44,2.08s-.56.93-1.15,1c-.28,0-.57,0-.86,0l-1.1.08C86.48,48.86,86.31,48.93,86.6,49.06ZM68,78.8c.21.08.41.18.62.25a15.16,15.16,0,0,1,1.49.47c1.09.5.87.33.83,1.42,0,.52,0,1,0,1.66,0,.4.3-.15.33-.21a9,9,0,0,0,.36-1c.16-.62.35-1.14,1.1-1.31a10.92,10.92,0,0,0,2-.49c.47-.16-.7-.51-.87-.58s-.62-.24-.94-.34a1.48,1.48,0,0,1-1.06-1.52c0-.56,0-1.13.09-1.69,0-.21.08-.43-.27-.51,0,.14-.11.26-.14.38-.15.69-.34,1.38-.44,2.08s-.56.94-1.15,1a6,6,0,0,1-.85,0L68,78.58C67.83,78.59,67.66,78.66,68,78.8ZM45.66,62.08c.21.08.41.18.62.25a15.16,15.16,0,0,1,1.49.47c1.09.5.87.33.83,1.42,0,.52,0,1,0,1.66,0,.4.3-.15.33-.21.13-.33.26-.65.36-1,.16-.61.35-1.14,1.1-1.31a10.83,10.83,0,0,0,2-.49c.48-.16-.69-.51-.87-.58s-.62-.24-.93-.34a1.5,1.5,0,0,1-1.07-1.52c0-.56.06-1.13.1-1.69,0-.21.08-.43-.27-.51,0,.14-.11.26-.14.38-.16.69-.35,1.38-.44,2.08s-.56.94-1.15,1a6.12,6.12,0,0,1-.86,0l-1.1.09C45.54,61.87,45.37,61.94,45.66,62.08ZM31.89,40.85a6.57,6.57,0,0,0,.61.26,12.29,12.29,0,0,1,1.49.47c1.09.5.87.32.84,1.42,0,.52,0,1,0,1.66,0,.4.31-.15.33-.22a6.88,6.88,0,0,0,.36-1c.17-.61.35-1.14,1.11-1.3a11.1,11.1,0,0,0,2-.5c.47-.16-.69-.5-.87-.58s-.62-.23-.94-.34a1.47,1.47,0,0,1-1.06-1.51c0-.57.06-1.13.1-1.7,0-.21.08-.43-.28-.5a2.92,2.92,0,0,0-.14.38c-.15.69-.34,1.38-.43,2.08s-.56.93-1.16,1c-.28,0-.57,0-.85,0l-1.11.08C31.76,40.65,31.6,40.72,31.89,40.85ZM11.05,69a6.57,6.57,0,0,0,.61.26,12.29,12.29,0,0,1,1.49.47c1.09.5.88.33.84,1.42,0,.52,0,1,0,1.66.05.4.31-.15.33-.22a6.88,6.88,0,0,0,.36-1c.17-.61.35-1.14,1.11-1.3a11,11,0,0,0,2-.49c.47-.17-.69-.51-.87-.58s-.62-.24-.93-.35A1.46,1.46,0,0,1,15,67.4c0-.57.06-1.13.1-1.7,0-.21.08-.42-.28-.5a1.9,1.9,0,0,0-.13.38c-.16.69-.35,1.38-.44,2.08s-.56.93-1.16,1c-.28,0-.57,0-.85,0l-1.1.08C10.93,68.83,10.76,68.9,11.05,69ZM.16,57.25a6.57,6.57,0,0,0,.61.26A12.29,12.29,0,0,1,2.26,58c1.09.5.88.33.84,1.42,0,.52,0,1,0,1.66.05.4.31-.15.33-.22a6.88,6.88,0,0,0,.36-1c.17-.61.35-1.14,1.11-1.3a11,11,0,0,0,2-.49c.47-.17-.69-.51-.87-.58s-.62-.24-.93-.35a1.46,1.46,0,0,1-1.07-1.51c0-.56.06-1.13.1-1.7,0-.2.08-.42-.28-.5a2.92,2.92,0,0,0-.14.38c-.15.69-.34,1.38-.43,2.08s-.56.93-1.16,1c-.28,0-.57,0-.85,0L.21,57C0,57.05-.13,57.12.16,57.25ZM56,87.73c.21.08.41.18.62.25a12.29,12.29,0,0,1,1.49.47c1.09.5.87.33.83,1.42,0,.52,0,1,0,1.66,0,.4.3-.15.33-.21a9.85,9.85,0,0,0,.36-1c.16-.62.35-1.15,1.11-1.31a11,11,0,0,0,2-.49c.47-.16-.7-.51-.87-.58s-.62-.24-.94-.35A1.47,1.47,0,0,1,60,86.09c0-.56,0-1.13.09-1.7,0-.2.08-.42-.27-.5a3.57,3.57,0,0,0-.14.38c-.15.69-.34,1.38-.44,2.08s-.56.94-1.15,1c-.28,0-.57,0-.85,0l-1.11.08C55.91,87.52,55.74,87.59,56,87.73Zm41.39-12.1a6.5,6.5,0,0,0,.61.25,14.36,14.36,0,0,1,1.49.47c1.09.5.87.33.84,1.42,0,.52,0,1,0,1.66,0,.4.31-.15.33-.21a7.35,7.35,0,0,0,.36-1c.17-.61.35-1.14,1.11-1.31a10.25,10.25,0,0,0,2-.49c.47-.16-.69-.5-.87-.58s-.62-.23-.94-.34A1.47,1.47,0,0,1,101.33,74c0-.57.06-1.14.1-1.7,0-.21.08-.43-.28-.51-.05.14-.11.26-.14.38-.15.7-.34,1.38-.43,2.08s-.56.94-1.16,1a8.08,8.08,0,0,1-.85,0l-1.1.08C97.29,75.43,97.13,75.5,97.42,75.63Z"/><path class="cls-1" d="M38.91,25.39a2.18,2.18,0,0,1-2.35,2.27c-.65,0-1-.19-1.52-.19a.75.75,0,0,0-.3,0,3,3,0,0,0,0-.32c0-.31,0-.64,0-1a2,2,0,0,1,.12-.74h.11A3.42,3.42,0,0,0,35,26a1.53,1.53,0,0,0,1.6,1.42A1.31,1.31,0,0,0,38,26c0-2-3.26-1.86-3.26-4.21a2,2,0,0,1,2.13-2.07c.56,0,.92.17,1.38.17a1,1,0,0,0,.37-.06c0,.26,0,.59,0,.92,0,.17,0,.47,0,.78H38.5c-.23-1.11-.85-1.52-1.59-1.52a1.14,1.14,0,0,0-1.28,1.19C35.63,23.16,38.91,22.87,38.91,25.39ZM44.07,27l.06.09a1.09,1.09,0,0,1-.94.51.56.56,0,0,1-.62-.55,2.3,2.3,0,0,1-1.51.58c-.86,0-1.45-.48-1.45-1.18s.79-1.35,1.8-1.35a2.24,2.24,0,0,1,1.12.27V23.88c0-.82-.27-1.15-.81-1.15s-1,.42-1,1.33h-.91a1.83,1.83,0,0,1,2-1.58c1,0,1.69.47,1.69,1.83v2.22c0,.47.08.61.29.61A.41.41,0,0,0,44.07,27Zm-1.54-1.4a1.47,1.47,0,0,0-.85-.24.9.9,0,0,0-1,1,.83.83,0,0,0,.87.92,1.42,1.42,0,0,0,1-.41Zm6.17-2.46a.43.43,0,0,0-.23.08,1.64,1.64,0,0,1,.34,1A1.83,1.83,0,0,1,46.76,26l-.37,0a.57.57,0,0,0-.44.58c0,.5.47.55,1.28.64,1.08.11,2,.43,2,1.3s-.74,1.48-2.4,1.48c-1.31,0-2.42-.44-2.42-1.36,0-.46.29-1,1.27-1.27-.4-.1-.72-.31-.72-.71s.43-.7.86-.8a1.62,1.62,0,0,1-1.15-1.55,1.89,1.89,0,0,1,2.06-1.77,2.26,2.26,0,0,1,1.56.58,1.15,1.15,0,0,1,.77-.48.77.77,0,0,1,.52.25l-.4.74C49,23.3,48.87,23.17,48.7,23.17Zm-3.21,5.36a1.16,1.16,0,0,0,1.32,1.21,1.11,1.11,0,0,0,1.27-1.16c0-1-.84-1.12-1.64-1.15A1,1,0,0,0,45.49,28.53Zm2.16-4.26c0-1-.25-1.59-.92-1.59s-.89.55-.89,1.56.25,1.52.9,1.52S47.65,25.26,47.65,24.27Zm3.7,2.24v-4a3.45,3.45,0,0,1-1.32.28v.1c.31.09.32.26.32.77v2.85c0,.85-.13.9-.45,1v.11l1,0,.95,0v-.11C51.49,27.41,51.35,27.36,51.35,26.51Zm-.47-4.62a.5.5,0,0,0,.53-.5.52.52,0,0,0-.53-.54.51.51,0,0,0-.5.54A.5.5,0,0,0,50.88,21.89ZM54.34,23a1.6,1.6,0,0,1,.61.07,3.67,3.67,0,0,1,.42-.68l-.09-.1c-.19.25-.43.25-.88.25h-.59A12,12,0,0,1,53.93,21l-.16,0a2.4,2.4,0,0,1-1.47,1.82v.11c.41.06.52.09.52.45v2.91c0,1.07.57,1.36,1.24,1.36a1.2,1.2,0,0,0,1.25-.91l-.08-.06a.74.74,0,0,1-.73.54c-.49,0-.69-.3-.69-1.05V23Zm3.32,0a1.6,1.6,0,0,1,.61.07,3.67,3.67,0,0,1,.42-.68l-.09-.1c-.19.25-.43.25-.88.25h-.59A12,12,0,0,1,57.25,21l-.16,0a2.4,2.4,0,0,1-1.47,1.82v.11c.41.06.52.09.52.45v2.91c0,1.07.57,1.36,1.24,1.36a1.2,1.2,0,0,0,1.25-.91l-.08-.06a.74.74,0,0,1-.73.54c-.49,0-.69-.3-.69-1.05V23Zm5.82,4,.05.09a1.08,1.08,0,0,1-.93.51.55.55,0,0,1-.62-.55,2.34,2.34,0,0,1-1.52.58c-.85,0-1.45-.48-1.45-1.18s.8-1.35,1.8-1.35a2.19,2.19,0,0,1,1.12.27V23.88c0-.82-.26-1.15-.8-1.15s-1,.42-1,1.33h-.91a1.82,1.82,0,0,1,2-1.58c1,0,1.69.47,1.69,1.83v2.22c0,.47.07.61.28.61A.43.43,0,0,0,63.48,27Zm-1.55-1.4a1.46,1.46,0,0,0-.84-.24.91.91,0,0,0-1,1,.83.83,0,0,0,.87.92,1.39,1.39,0,0,0,1-.41Zm4.79-3.15a1.83,1.83,0,0,0-1.21.68v-.68a3.45,3.45,0,0,1-1.32.29v.1c.31.09.32.25.32.76v2.88c0,.85-.13.9-.45,1v.11l1,0,.95,0v-.11c-.31-.06-.45-.11-.45-1V23.45a.87.87,0,0,1,.64-.37c.26,0,.43.15.43.59h1C67.55,22.84,67.25,22.48,66.72,22.48Zm2.78,4v-4a3.46,3.46,0,0,1-1.33.28v.1c.32.09.33.26.33.77v2.85c0,.85-.14.9-.45,1v.11l1,0,1,0v-.11C69.63,27.41,69.5,27.36,69.5,26.51ZM69,21.89a.5.5,0,0,0,.53-.5.52.52,0,1,0-1,0A.5.5,0,0,0,69,21.89Zm6.41,5.23c-.26,0-.32-.26-.32-.65v-4a3.48,3.48,0,0,1-1.38.29v.1c.39.09.39.21.39,1v2.43c0,.12,0,.23,0,.35a1.31,1.31,0,0,1-1.19.63c-.75,0-1-.41-1-1.59v-3.2a3.64,3.64,0,0,1-1.42.29v.1c.42.09.42.25.42,1v2c0,1.41.83,1.76,1.65,1.76a1.85,1.85,0,0,0,1.6-.75c.07.42.27.75.77.75a1.08,1.08,0,0,0,.94-.63l-.05-.1A.51.51,0,0,1,75.44,27.12Zm1.89-3.64a.77.77,0,0,1,.85-.79,1.25,1.25,0,0,1,1.18,1.11h.11c0-.33,0-.6,0-.78a2,2,0,0,1,0-.39c-.46,0-.88-.15-1.31-.15-.94,0-1.7.5-1.7,1.42,0,1.6,2.29,1.25,2.29,2.66a.81.81,0,0,1-.89.87c-.81,0-1.17-.72-1.14-1.48h-.11c-.09.42-.06,1.12-.12,1.47a8.6,8.6,0,0,0,1.44.22,1.59,1.59,0,0,0,1.75-1.53C79.69,24.42,77.33,24.7,77.33,23.48Z"/></g></g></svg>