<svg xmlns="http://www.w3.org/2000/svg" viewBox="0 0 69.8 74.95"><defs><style>.cls-1{fill:#1d1d1b;}</style></defs><title>Asset 443</title><g id="Layer_2" data-name="Layer 2"><g id="Layer_1-2" data-name="Layer 1"><path class="cls-1" d="M42.23,49.23a5.76,5.76,0,0,0-3.83,1.44V38.22s.42-8.22-8.12-7.66a6.53,6.53,0,0,0-5.48,3.6v-.63a4.56,4.56,0,0,0-1-3c-1.09-1.13-2.51-.59-1.89.16a7.25,7.25,0,0,1,1,4A2.09,2.09,0,0,1,23,35V54a.93.93,0,0,0,1.86,0V51.76a.77.77,0,0,0,0-.15V44.68c.12-2.8.89-12.1,6.06-12.26,5.66-.19,5.61,5.8,5.61,5.8V53.5l0,0s-.71,9.2-13.4,9l.15,2.22s9.37.56,13.49-6.11a5.5,5.5,0,0,0,.44-.86h0a5.8,5.8,0,1,0,5.11-8.55ZM42,58.89a3.87,3.87,0,1,1,4.08-4.06A3.88,3.88,0,0,1,42,58.89Z"/><path class="cls-1" d="M34.9,75a27.62,27.62,0,1,1,19.54-8.09A27.49,27.49,0,0,1,34.9,75Zm0-53.37a25.74,25.74,0,1,0,18.19,7.54A25.57,25.57,0,0,0,34.9,21.58Z"/><path class="cls-1" d="M10.26,8.88l.16,0c-.06.6-.11,1.55-.11,2.34a9.65,9.65,0,0,1-4,.9A6.06,6.06,0,0,1,0,6.05,6,6,0,0,1,6.36,0a18.82,18.82,0,0,1,4,.59c0,.46-.05,1.11-.05,1.62s0,.85,0,1.13h-.16A3.51,3.51,0,0,0,6.49.44C4,.44,2,2.34,2,6.05,2,9.93,4.24,11.7,6.42,11.7A4,4,0,0,0,10.26,8.88Zm8.16,2.3.08.15a1.67,1.67,0,0,1-1.44.78.87.87,0,0,1-1-.85,3.58,3.58,0,0,1-2.34.9c-1.33,0-2.25-.75-2.25-1.83,0-1.25,1.23-2.1,2.79-2.1A3.55,3.55,0,0,1,16,8.65V6.29c0-1.26-.41-1.78-1.25-1.78s-1.54.65-1.55,2.06H11.82A2.82,2.82,0,0,1,15,4.13c1.59,0,2.62.72,2.62,2.84v3.44c0,.72.11.93.44.93A.6.6,0,0,0,18.42,11.18ZM16,9a2.34,2.34,0,0,0-1.31-.37,1.4,1.4,0,0,0-1.54,1.5,1.28,1.28,0,0,0,1.34,1.43A2.21,2.21,0,0,0,16,10.93ZM27.3,8.1a3.84,3.84,0,0,1-3.91,4,3.45,3.45,0,0,1-2-.58v2.54c0,1.31.21,1.4.7,1.49v.17c-.36,0-.86,0-1.47,0s-1.12,0-1.48,0v-.17c.5-.09.71-.18.71-1.49V5.92c0-.81,0-1.07-.61-1.18V4.57a5.2,5.2,0,0,0,2.15-.44v.75a3.59,3.59,0,0,1,2.21-.75A3.72,3.72,0,0,1,27.3,8.1Zm-1.82.11c0-2.23-.8-3.6-2.34-3.6a2.37,2.37,0,0,0-1.72.75V11a2.48,2.48,0,0,0,1.75.69C24.4,11.67,25.48,10.8,25.48,8.21Zm7.08-4.08a2.83,2.83,0,0,0-1.88,1v-1a5.32,5.32,0,0,1-2.05.44v.17c.49.13.51.37.51,1.18v4.45c0,1.32-.22,1.4-.71,1.5V12c.36,0,.87,0,1.48,0s1.11,0,1.47,0v-.16c-.49-.1-.7-.18-.7-1.5V5.64a1.35,1.35,0,0,1,1-.58c.39,0,.65.23.65.91h1.51C33.84,4.69,33.38,4.13,32.56,4.13Zm3.57-.92A.78.78,0,0,0,37,2.44a.79.79,0,0,0-.82-.83.78.78,0,0,0-.78.83A.77.77,0,0,0,36.13,3.21Zm.73,7.16V4.18a5.5,5.5,0,0,1-2,.43v.16c.49.13.51.39.51,1.18v4.42c0,1.32-.22,1.4-.71,1.5V12c.36,0,.87,0,1.48,0s1.11,0,1.47,0v-.16C37.07,11.77,36.86,11.69,36.86,10.37Zm5.7-5.91c1,0,1.34.69,1.39,1.57h1.59c-.23-1.23-1.39-1.9-2.87-1.9a3.92,3.92,0,0,0-4.08,4,3.81,3.81,0,0,0,3.9,4,3.29,3.29,0,0,0,2.87-1.49l-.11-.12a2.7,2.7,0,0,1-2.07.91c-1.7,0-2.88-1.35-2.88-3.66C40.3,6,41,4.46,42.56,4.46Zm12,3.67a3.91,3.91,0,0,1-4.07,4,3.83,3.83,0,0,1-4-3.92,4,4,0,0,1,8.08,0Zm-1.82,0c0-2.23-.46-3.72-2.21-3.72s-2.23,1.72-2.23,3.7.39,3.61,2.19,3.61S52.72,10.14,52.72,8.18Zm7.05-4a2.83,2.83,0,0,0-1.89,1v-1a5.32,5.32,0,0,1-2.05.44v.17c.49.13.51.37.51,1.18v4.45c0,1.32-.21,1.4-.7,1.5V12c.36,0,.86,0,1.47,0s1.12,0,1.48,0v-.16c-.5-.1-.71-.18-.71-1.5V5.64a1.36,1.36,0,0,1,1-.58c.39,0,.66.23.66.91H61C61,4.69,60.59,4.13,59.77,4.13Zm9.32,6.24V6.8c0-2.33-1.47-2.67-2.57-2.67a4,4,0,0,0-2.46.8v-.8A5.32,5.32,0,0,1,62,4.57v.17c.49.13.51.37.51,1.18v4.45c0,1.32-.21,1.4-.71,1.5V12c.36,0,.87,0,1.48,0s1.11,0,1.47,0v-.16c-.49-.1-.7-.18-.7-1.5v-5a2.76,2.76,0,0,1,1.8-.71c.94,0,1.69.5,1.69,2.2v3.52c0,1.32-.21,1.4-.7,1.5V12c.36,0,.86,0,1.47,0s1.12,0,1.48,0v-.16C69.3,11.77,69.09,11.69,69.09,10.37Z"/></g></g></svg>