<svg xmlns="http://www.w3.org/2000/svg" viewBox="0 0 104 145.26"><title>Asset 565</title><g id="Layer_2" data-name="Layer 2"><g id="Layer_1-2" data-name="Layer 1"><path d="M37.6,35.34l-.4-1.1a9.45,9.45,0,0,1,11.37,3.23l-.49.32-.49.32C47.45,37.9,44.13,33,37.6,35.34Zm8,6.56a1,1,0,0,0-.69-.26,1.77,1.77,0,0,0-.85.37,5.27,5.27,0,0,1-3,1,6,6,0,0,1-.72,0,4.56,4.56,0,0,1-3.28-2.28,5,5,0,0,0-.72-.86l-.7-.54.76-.44c2.1-1.18,3.88-1.55,5.3-1.1a7.57,7.57,0,0,1,4.91,3.57,1.22,1.22,0,0,1,.19.38l-1.1.4Zm-1.09-1.4a6.53,6.53,0,0,0-3.11-1.66h-.06a5.05,5.05,0,0,0-3.71.64l.36.47c.63.85,1.28,1.74,2.43,1.82a4.18,4.18,0,0,0,3-.75A3.88,3.88,0,0,1,44.52,40.5Zm4,9.32c-1,2.52-1.66,4.18-1,5.16a1.52,1.52,0,0,0,1.25.69,2,2,0,0,1,1.56.71,2,2,0,0,0,1.66.77H52a2,2,0,0,0,1.66-.77,2,2,0,0,1,1.57-.71A1.48,1.48,0,0,0,56.51,55c.61-1,0-2.64-1-5.16-.11-.3-.23-.6-.36-.92-2-5-.26-8.33-.18-8.46l-1-.56c-.22.39-2,4,.12,9.45.12.32.25.62.36.92.71,1.79,1.44,3.63,1.14,4.12,0,.09-.22.12-.35.13a3.17,3.17,0,0,0-2.3,1.07,1.12,1.12,0,0,1-1.72,0,3.13,3.13,0,0,0-2.3-1.07c-.13,0-.3,0-.35-.13-.3-.49.43-2.33,1.14-4.12.11-.3.24-.6.36-.92,2.13-5.46.34-9.06.13-9.45l-1,.56c.08.13,1.79,3.41-.18,8.46C48.77,49.22,48.65,49.52,48.54,49.82ZM66.4,35.34l.4-1.1a9.53,9.53,0,0,0-11.37,3.23l1,.64C56.55,37.9,59.87,33,66.4,35.34Zm2,3.9-.7.54a5,5,0,0,0-.72.86,4.6,4.6,0,0,1-3.3,2.29l-.71,0a5.29,5.29,0,0,1-3-1,1.73,1.73,0,0,0-.85-.37.92.92,0,0,0-.69.27l-.08.14-1.1-.4a1.22,1.22,0,0,1,.19-.38,7.63,7.63,0,0,1,4.91-3.57c1.42-.45,3.2-.08,5.3,1.1Zm-2,.23a5.05,5.05,0,0,0-3.71-.64h-.06a6.53,6.53,0,0,0-3.11,1.66,3.88,3.88,0,0,1,1.07.51,4.15,4.15,0,0,0,3,.75c1.17-.08,1.82-1,2.45-1.82Zm-11.12,22a2.5,2.5,0,0,0-2,.06,9.84,9.84,0,0,1-1.21.58,9.84,9.84,0,0,1-1.21-.58,2.48,2.48,0,0,0-2-.06,10.45,10.45,0,0,1-3.4.31L45.29,63A11.37,11.37,0,0,0,49,62.63c.63-.15.94-.21,1.13-.09a12.86,12.86,0,0,0,1.74.81l0,.07.07,0,.07,0,0-.07a12.86,12.86,0,0,0,1.74-.81c.19-.12.5-.06,1.13.09a11.41,11.41,0,0,0,3.74.34l-.08-1.17A10.38,10.38,0,0,1,55.24,61.49ZM52,65a11.51,11.51,0,0,1-3.23-.78l-.44,1.09a12.16,12.16,0,0,0,3.63.86H52a12.16,12.16,0,0,0,3.63-.86l-.44-1.09A11.51,11.51,0,0,1,52,65ZM104,97l-.09.41-.83.1-.19-.38c-.5-1-2-4.17-5.18-4.85-1.26-.28-2.29-.46-3.11-.61-2.79-.5-3.86-.69-6-2.8-1.49,2.42-2,4.4-1.57,5.91.68,2.28,3.6,3.25,5.73,3.95l4.59,1.53L92.77,100c-4.47-.3-7.68-1.63-9.37-3.86-1.36,5.29.2,9.64,4.95,14L90,111.62l-2.19-.52c-2.09-.5-8.34-3-9.95-6.7a14.68,14.68,0,0,1-1.35-7.23,26,26,0,0,1-5,4c-4.11,2.59-4.43,4.07-2.1,9.91l.62,1.53-1.44-.8c-2.42-1.34-4.93-3.06-5.3-5.59-.27-1.84.62-3.79,2.73-6,5.08-5.22,5.32-6.86,4.29-12.9a13.77,13.77,0,0,1-.19-1.81c-.79-.32-3.2-1.58-5.45-5.75-2-3.68-2.07-8.85-2-11.36a33.76,33.76,0,0,1-10.18,6.06H51.47a33.66,33.66,0,0,1-10.19-6.06c.1,2.51,0,7.68-2,11.36-2.25,4.17-4.66,5.43-5.45,5.75a13.77,13.77,0,0,1-.19,1.81c-1,6-.79,7.68,4.29,12.9,2.11,2.16,3,4.11,2.73,6-.37,2.54-2.88,4.25-5.29,5.59l-1.45.8.62-1.53c2.33-5.84,2-7.32-2.1-9.91a26,26,0,0,1-5-4,14.68,14.68,0,0,1-1.35,7.23c-1.61,3.69-7.86,6.2-9.95,6.7l-2.19.52,1.66-1.53c4.75-4.36,6.31-8.71,5-14-1.69,2.23-4.9,3.56-9.37,3.86l-4.61.32,4.59-1.53c2.13-.7,5.05-1.67,5.73-3.95.45-1.51-.08-3.49-1.57-5.91-2.09,2.11-3.16,2.3-5.95,2.8-.82.15-1.85.33-3.11.61-3.16.68-4.68,3.82-5.18,4.85L1,97.52l-.84-.1L0,97c-.18-.8.35-6,6.8-9.91,4.28-2.6,3.74-4.92,3.63-5.26A20.13,20.13,0,0,1,9.53,80C6.1,76.09,4.55,72.13,5,68.19c.54-5.21,4.3-8.68,5.44-9.62A10.14,10.14,0,0,1,10.17,54,8.67,8.67,0,0,1,11.42,51c-3-1.29-4.73-3.47-4.69-5.93,0-3.45,3.32-6.56,8.75-8.32C25,33.61,25,26.38,25,26.08h0c.4-8.86,3-15.59,7.87-20.08C40.57-1.13,51,0,52,.14,53,0,63.43-1.14,71.13,6,76,10.49,78.6,17.22,79,26.08h0c0,.3,0,7.53,9.51,10.63,5.43,1.76,8.7,4.87,8.75,8.32,0,2.46-1.7,4.64-4.69,5.93A8.67,8.67,0,0,1,93.83,54a10.14,10.14,0,0,1-.23,4.53c1.14.94,4.9,4.41,5.44,9.62.41,3.94-1.13,7.9-4.57,11.79a16.86,16.86,0,0,1-.93,1.85c-.12.38-.63,2.69,3.63,5.27C103.62,91,104.15,96.21,104,97ZM93.22,59.8a19.26,19.26,0,0,1-1.86,3.73c1.14,1.15,4.75,5.22,3.52,9.88h0A7.56,7.56,0,0,1,95.32,77a13,13,0,0,0,2.56-8.67A14,14,0,0,0,93.22,59.8ZM90.7,64.53q-.54.8-1.2,1.62A37.4,37.4,0,0,1,94,71.54C94,68.35,91.69,65.58,90.7,64.53ZM78.41,38.64a23,23,0,0,1,4.54,1,14.43,14.43,0,0,1,7.82,5.58l-1,.63c-2.82-4.43-8.86-5.69-11-6,.77,1.94,2.72,3.91,7.18,5.91A16.35,16.35,0,0,1,91.87,50c2.72-1.1,4.26-2.88,4.23-5,0-2.87-3.08-5.64-7.94-7.22-5.39-1.76-7.91-4.84-9.07-7.12L79,30.55c0,.66-.05,1.32-.09,2a19.77,19.77,0,0,1-.29,2.09A12.27,12.27,0,0,0,78.41,38.64ZM52.59,5.09V6.85c1.87-.35,7-1,11.54,1.21C66.54,9.23,78.43,16,76.71,34.78c.44,1,.06,2.22-.37,3.58-.09.26-.17.54-.26.81h0c0,.33-.81,8.17,8.65,12.4a6.76,6.76,0,0,1,3.71,4c1.26,3.42.29,7.88-.62,10.75,4.78-5.61,5.31-9.61,4.84-12.06-.59-3-3-5.51-7.23-7.41-9.36-4.21-8.59-8.76-8-12.41a19.06,19.06,0,0,0,.27-2C78.51,20.75,76,12.14,70.34,6.87,63.77.77,54.8,1.08,52.6,1.26ZM87.35,63.68c.57-2.51.85-5.44,0-7.71a5.6,5.6,0,0,0-3.09-3.32,20.39,20.39,0,0,1-3.53-2A42.42,42.42,0,0,0,87.35,63.68ZM79.14,49.27a13.89,13.89,0,0,1-3.33-4.89c.23,5.07,3,10.24,5.8,15.27a56.24,56.24,0,0,1,4.2,8.81A25.51,25.51,0,0,0,87,65.1,43,43,0,0,1,79.14,49.27ZM74,33.27a2.3,2.3,0,0,1,1.63.34c1.12-17.21-9.76-23.41-12-24.49C59.24,7,54.1,7.75,52.6,8l0,5.16c1.77-.85,5.49-1.71,11.55,1.23C71.76,18.11,74.89,24.11,74,33.27ZM52.71,18.36a.86.86,0,0,1-.06.25c.5.78,2.19,2.48,7.75,3.58,7,1.38,10.49,2.5,11.73,12.26a5.06,5.06,0,0,1,.62-.6c1.09-9.11-1.72-14.79-9.09-18.37-6.47-3.13-9.91-1.67-11-1l0,3.82ZM12.13,50a16.35,16.35,0,0,1,5.94-4.21c4.46-2,6.41-4,7.18-5.91-2.17.32-8.21,1.58-11,6l-1-.63a14.43,14.43,0,0,1,7.82-5.58,23.16,23.16,0,0,1,4.54-1,12.27,12.27,0,0,0-.22-4,19.77,19.77,0,0,1-.29-2.09c0-.69-.07-1.37-.1-2-1.25,2.56-3.82,5.59-9.14,7.32C11,39.4,7.94,42.17,7.9,45,7.87,47.11,9.41,48.89,12.13,50Zm4,16.33c-.91-2.87-1.88-7.33-.62-10.75a6.76,6.76,0,0,1,3.71-4c9.46-4.23,8.68-12.07,8.65-12.4h0c-.09-.27-.17-.55-.26-.81-.43-1.36-.81-2.58-.37-3.58C25.57,16,37.46,9.23,39.87,8.06c4.55-2.2,9.68-1.56,11.54-1.21V1.26C49.2,1.08,40.23.77,33.66,6.87,28,12.14,25.49,20.75,26.25,32.46c0,.63.16,1.28.27,2,.62,3.65,1.39,8.2-8,12.41-4.21,1.9-6.64,4.39-7.23,7.41C10.85,56.71,11.38,60.71,16.16,66.32Zm35.13-48h.07l0-3.82c-1.13-.72-4.57-2.18-11,1C33,19.06,30.16,24.74,31.25,33.85a5.06,5.06,0,0,1,.62.6c1.24-9.76,4.7-10.88,11.73-12.26,5.56-1.1,7.25-2.8,7.75-3.58A.86.86,0,0,1,51.29,18.36Zm.09-5.16L51.4,8c-1.5-.29-6.64-1-11,1.08-2.24,1.08-13.12,7.28-12,24.49A2.3,2.3,0,0,1,30,33.27c-.9-9.16,2.23-15.16,9.82-18.84C45.89,11.49,49.61,12.35,51.38,13.2ZM17,65.1a25.51,25.51,0,0,0,1.18,3.36,56.24,56.24,0,0,1,4.2-8.81c2.76-5,5.6-10.25,5.8-15.35a13.59,13.59,0,0,1-3.33,5A43,43,0,0,1,17,65.1Zm6.25-14.49a18.63,18.63,0,0,1-3.53,2A5.6,5.6,0,0,0,16.64,56c-.84,2.27-.56,5.2,0,7.71A42.56,42.56,0,0,0,23.26,50.61Zm-10,13.93c-1,1-3.27,3.82-3.25,7a37.4,37.4,0,0,1,4.45-5.39C14.06,65.6,13.66,65.06,13.3,64.54Zm-.66-1a19.26,19.26,0,0,1-1.86-3.73,14,14,0,0,0-4.65,8.53A12.88,12.88,0,0,0,8.68,77a7.56,7.56,0,0,1,.44-3.59h0C7.89,68.75,11.5,64.68,12.64,63.53Zm2.07,24.35c-.36-.52-.75-1-1.18-1.59-.76-1-1.42-1.86-2-2.71-.36,1.25-1.4,2.88-4.1,4.52a13.63,13.63,0,0,0-5.32,5.39,7.46,7.46,0,0,1,3.94-2.35c1.28-.28,2.32-.46,3.16-.61C12,90,12.77,89.89,14.71,87.88ZM18.29,85c-3.93-6.13-1.54-10.26-.84-11.25a12.18,12.18,0,0,1,.62-4.87l-.78.47A2.65,2.65,0,0,0,17,69c-.64-.67-1.22-1.32-1.76-1.94-4.88,5.26-7.29,8.1-3.74,14.26h0a.16.16,0,0,1,0,.06,36.24,36.24,0,0,0,2.9,4.17c3.16,4,4.34,7.13,3.61,9.56a5.23,5.23,0,0,1-2,2.73,7.13,7.13,0,0,0,4.17-3.32C21.42,92.13,20.75,88.82,18.29,85ZM25.77,95a8.16,8.16,0,0,1-1.4-6c.84-4.36.45-6.15-3.74-9.66a8.76,8.76,0,0,1-2.8-3.91c-.67,1.59-1.25,4.68,1.44,8.89,2.59,4,3.33,7.61,2.15,10.36,1.74,5.43.72,10.08-3.2,14.47,2.48-1,5.81-2.9,6.83-5.23C27.18,99.07,26.12,95.84,25.77,95Zm6.74-7.8c.68-4-.73-6-1.65-6.83l-.31-.11c-4.87-1.74-7.42-3.53-8.26-5.8-1.18-3.18,1-7,4.27-12.72,2.48-4.34,3.9-12.1,4.32-14.68a1.24,1.24,0,0,1-.45-.09,2.42,2.42,0,0,1-1.16-1.39c-.57,4.95-3.24,9.84-5.85,14.62-4,7.34-7.47,13.68-2,18.24,4.55,3.8,5,6.13,4.15,10.78a6.89,6.89,0,0,0,1.16,5h0l.06.12a21.81,21.81,0,0,0,6.34,5.88c4.19,2.64,5,4.63,3.15,9.76,1.63-1,3-2.31,3.28-3.89s-.6-3.1-2.41-5C31.73,95.59,31.43,93.54,32.51,87.21ZM27.58,62.33c-3.12,5.46-5.17,9.07-4.19,11.73.63,1.71,2.56,3.15,6.17,4.59-2.68-5.45-3.23-6.89.76-12.7a17.7,17.7,0,0,0,3.25-9.35,32.4,32.4,0,0,1-2.07-6.35C30.79,53.79,29.51,59,27.58,62.33Zm9.28,19.19c-1.35-1.68-5.06-7.67.23-17.75A21.55,21.55,0,0,1,35,59.91q-.23-.54-.48-1.11a19.88,19.88,0,0,1-3.24,7.82c-3.7,5.37-3.27,6.24-.48,11.9l.26.53a6.78,6.78,0,0,1,2.76,5.26A9.78,9.78,0,0,0,36.86,81.52ZM40,67.31a23.78,23.78,0,0,1-2.17-2.48c-4.33,8.68-1.59,13.92-.3,15.68.24-.38.48-.78.72-1.22C40.56,75.08,40.12,68.45,40,67.31Zm27.88-7.85c.24-.59.51-1.21.8-1.85,1.6-3.64,3.6-8.18,2.88-13.88l1.16-.14a19,19,0,0,1,.16,2.22.27.27,0,0,0,.22.08c.51-.2,1.07-2.18,1.17-3.66A17.47,17.47,0,0,1,75.22,38c.63-2,.77-2.75-.12-3.35a1.2,1.2,0,0,0-1-.21c-.79.23-1.46,1.3-1.73,1.83.11,1.14.19,2.39.25,3.75l-1.17,0c-.6-14-3.18-15.16-11.23-16.74-5.06-1-7.24-2.52-8.18-3.62-.94,1.1-3.12,2.62-8.18,3.62-8,1.58-10.63,2.75-11.23,16.74l-1.17,0c.06-1.36.14-2.61.25-3.75-.27-.53-.94-1.6-1.73-1.83a1.2,1.2,0,0,0-1,.21c-.89.6-.75,1.35-.12,3.35a17.47,17.47,0,0,1,.92,4.22c.1,1.48.66,3.46,1.17,3.66a.27.27,0,0,0,.22-.08,19,19,0,0,1,.16-2.22l1.16.14c-.72,5.7,1.28,10.24,2.88,13.88.29.64.56,1.26.8,1.85,3.67,8.89,13.14,13,15.91,14C54.77,72.46,64.25,68.34,67.91,59.46Zm4.59-9.21a32.4,32.4,0,0,1-2.07,6.35A17.73,17.73,0,0,0,73.68,66c4,5.81,3.44,7.25.76,12.7,3.61-1.44,5.54-2.88,6.17-4.59,1-2.66-1.07-6.27-4.19-11.73C74.49,59,73.21,53.79,72.5,50.25ZM66.44,80.51c1.29-1.76,4-7-.3-15.68A23.78,23.78,0,0,1,64,67.31c-.09,1.14-.52,7.77,1.75,12C66,79.73,66.2,80.13,66.44,80.51Zm6.49-1.46.26-.53c3.22-6.53,2.73-7.25-.48-11.9a19.88,19.88,0,0,1-3.24-7.82q-.25.57-.48,1.11a21.55,21.55,0,0,1-2.08,3.86c5.29,10.08,1.58,16.07.23,17.75a9.78,9.78,0,0,0,3,2.79A6.78,6.78,0,0,1,72.93,79.05Zm4.38,15.18a6.89,6.89,0,0,0,1.17-5c-.9-4.65-.41-7,4.14-10.78a7.32,7.32,0,0,0,2.65-7.38l-1.69,2.08,1.48-3.1c-.74-3-2.55-6.3-4.48-9.84C78,55.43,75.3,50.54,74.73,45.59A2.42,2.42,0,0,1,73.57,47a1.24,1.24,0,0,1-.45.09c.42,2.58,1.84,10.34,4.32,14.68,3.28,5.75,5.45,9.54,4.27,12.72-.84,2.27-3.38,4.06-8.26,5.8l-.33.12c-.92.84-2.31,2.83-1.63,6.82,1.08,6.33.78,8.38-4.61,13.91-1.81,1.87-2.62,3.54-2.41,5s1.65,2.84,3.28,3.89c-1.81-5.13-1-7.12,3.15-9.76a21.9,21.9,0,0,0,6.34-5.87l.06-.13Zm7.42-9.9c2.69-4.21,2.11-7.3,1.44-8.89a8.76,8.76,0,0,1-2.8,3.91c-4.19,3.51-4.58,5.3-3.74,9.66a8.16,8.16,0,0,1-1.4,6c-.35.83-1.41,4.06.72,8.92,1,2.33,4.35,4.2,6.83,5.23-3.92-4.39-4.94-9-3.2-14.47C81.41,91.94,82.14,88.37,84.73,84.33Zm4.82,1.23a36.24,36.24,0,0,0,2.9-4.17.16.16,0,0,1,0-.06h0c3.55-6.16,1.14-9-3.74-14.26-.54.62-1.12,1.27-1.76,1.94l-.29.3-.47.59a11.65,11.65,0,0,1,.32,3.81c.7,1,3.09,5.12-.84,11.25-2.46,3.86-3.13,7.17-1.92,9.57A7.13,7.13,0,0,0,88,97.85a5.19,5.19,0,0,1-2-2.73C85.21,92.69,86.39,89.56,89.55,85.56Zm12.33,7.93a13.63,13.63,0,0,0-5.32-5.39c-2.7-1.64-3.74-3.27-4.1-4.52-.57.85-1.23,1.75-2,2.71-.43.54-.82,1.07-1.18,1.59,1.94,2,2.7,2.15,5.49,2.65.84.15,1.88.33,3.16.61A7.46,7.46,0,0,1,101.88,93.49Z"/><path d="M41,136.74h1.1l-2.71,8.37H38.19l-2.63-8.37H36.7l1.3,4.52c.28,1,.5,1.78.8,2.75h.05c.31-1,.51-1.77.81-2.75Zm2.25,8.37h1.07v-8.37H43.29Zm7-3.65,2.13,3.65H51.23l-2-3.54H47.71v3.54H46.64v-8.37h2.61c1.71,0,2.93.62,2.93,2.36A2.27,2.27,0,0,1,50.31,141.46Zm.8-2.36c0-1.09-.71-1.49-2-1.49H47.71v3.1H49.1C50.4,140.71,51.11,140.17,51.11,139.1ZM57,141.65H58.8v2.18a2.25,2.25,0,0,1-1.5.48c-1.79,0-2.77-1.31-2.77-3.41s1.07-3.37,2.75-3.37a2.33,2.33,0,0,1,1.8.76l.59-.67a3.19,3.19,0,0,0-2.41-1c-2.22,0-3.84,1.65-3.84,4.33s1.57,4.34,3.77,4.34a3.61,3.61,0,0,0,2.59-1v-3.52H57Zm11.41-.76c0,2.69-1.48,4.37-3.59,4.37s-3.56-1.68-3.56-4.37,1.46-4.3,3.56-4.3S68.44,138.22,68.44,140.89Zm-1.11,0c0-2.08-1-3.36-2.48-3.36s-2.46,1.28-2.46,3.36,1,3.42,2.46,3.42S67.33,143,67.33,140.89Z"/></g></g></svg>