<svg xmlns="http://www.w3.org/2000/svg" viewBox="0 0 205.26 41.97"><title>Asset 472</title><g id="Layer_2" data-name="Layer 2"><g id="Layer_1-2" data-name="Layer 1"><path d="M198.76,15.82c-2.45-1.38-4.94-2.7-7.32-4.2-2.92-1.83-5.72-3.86-8.61-5.73a36.55,36.55,0,0,0-6.42-3.39c-1.06,1.86-.31,9.51-.33,11.49s.5,3.72,0,5.76a14.33,14.33,0,0,1-2.08.35c-3.75.11-7.51.24-11.27.25-5.53,0-11.06-.1-16.59-.1s-10.87.08-16.3.1c-2.08,0-4.14.07-5.88-1.5-1-1-2.35-.68-3.48.14-.58.42-1.11,1.14-1.75,1.24a8.83,8.83,0,0,1-4.59-.07,25,25,0,0,0-.86-4c-1.72-4.46-8.43-8.94-14.58-5.06a7.84,7.84,0,0,0-4.08,6.62,19.21,19.21,0,0,1-.31,2.13l-4,.06a20.44,20.44,0,0,0-2-1.8,2.72,2.72,0,0,0-3.48.12,2.12,2.12,0,0,0-.48.41,3.88,3.88,0,0,1-3.63,1.32c-2.5-.11-5-.12-7.52-.17-3.34-.06-6.68,0-10-.2a55.65,55.65,0,0,0-8.76.19c-.83.08-1.67.14-2.51.14-5.32,0-10.65,0-16,0-.92,0-1.84-.17-2.84-.27-.4-1.72-.71-3.36-1.16-5-.4-1.39-.93-2.75-1.45-4.11-1-2.63-3.08-4.43-4.91-6.42A7.85,7.85,0,0,0,20.68,1.5c-3.31-.44-6.6-1-9.91-1.47A9.54,9.54,0,0,0,9.26,0c-1,2.12.79,3.65.82,5.48s1.05,3.52.76,5.73L8.12,9.82A25.27,25.27,0,0,0,6.49,6.61a2.28,2.28,0,0,0-3.33-.27A3.32,3.32,0,0,0,2.4,9.56a2.54,2.54,0,0,0,2.33,1.81,2.56,2.56,0,0,0,.62,0c2.53-.22,4.25,1.24,6.2,2.87-.68.42-1.17.78-1.7,1a27.86,27.86,0,0,1-8.57,2.91c-.54.07-1.34,0-1.28,1.18,2,1,4.2,2.05,6.28,3.21s4.45,1.79,6.44,3.46c-1.89,1.47-3.78,2.41-6.12,2.1a4,4,0,0,0-1.54,0A2.22,2.22,0,0,0,3.84,29c-.56.88-.5,2.45.12,2.94,1.06.83,2.2,1.72,3.68,1.19A2.08,2.08,0,0,0,8.55,32a13.83,13.83,0,0,0,.52-2c1-.45,1.91-1,2.9-.72-.42,2.55-.82,4.92-1.19,7.29a10.55,10.55,0,0,0,.5,4.63,1,1,0,0,0,1.47.64c1.66-1.32,3.7-2,5.43-3a42.25,42.25,0,0,1,7.06-3.29c3.4-1.34,5.8-3.63,6.45-7.43.37-2.13.84-4.24,1.3-6.53,2.64.07,5.15,0,7.63.23a99.22,99.22,0,0,0,13.46.36c3.24-.11,6.46-.61,9.7-.64,5.74-.06,11.49.11,17.23.18a4.93,4.93,0,0,1,2.9.95c1.56,1.08,3.26,1.32,4.85-.14A1.77,1.77,0,0,1,89.85,22c1.65,0,3.32-.46,5,.07a12.3,12.3,0,0,1,.72,1.74c1.1,4.72,8.17,7.92,13.13,5.75,2.29-1,4.5-2.31,4.81-5.27a7.36,7.36,0,0,1,.63-1.75,5,5,0,0,1,.93-.26c1.86-.19,3.64-.4,5.3,1a2.78,2.78,0,0,0,3.52-.1c1.37-1,2.91-1,4.49-1l16.91.25c5,.07,10-.54,15-.06a47.28,47.28,0,0,0,5.94-.15c2.61-.09,5.22-.2,7.83-.23a8.76,8.76,0,0,1,1.95.38,3.41,3.41,0,0,1,.31.77c.09,4.7.73,16.36.52,17.15A6.65,6.65,0,0,0,180.75,39c.73-.58,1.41-1.23,2.16-1.77,5.19-3.69,10.41-7.34,15.57-11.06a54.78,54.78,0,0,0,6.78-5.37A24,24,0,0,0,198.76,15.82ZM30.1,17.7c-.72-.4-1.16-.65-1.61-.88a30.3,30.3,0,0,0-9.17-3.05A17.4,17.4,0,0,1,16,12.92a4.1,4.1,0,0,1-2.75-2.81c-.58-2.3-1-4.65-1.43-6.95C21.78.23,30.63,8.56,30.1,17.7ZM5.4,20.1c-.15-.08-.22-.31-.52-.75,2.81-1.17,5.4-2.26,8-3.32a5.87,5.87,0,0,1,1.79-.51,21.84,21.84,0,0,1,13.16,3.17,5.16,5.16,0,0,1,.92.83,7.32,7.32,0,0,1,.53.75c.16,1.11-.53,1.75-1.2,2.42-3,3-9.33,4-13.5,2C11.49,23.22,8.45,21.64,5.4,20.1ZM29,30.34a6.74,6.74,0,0,1-3.84,3.51,59.27,59.27,0,0,0-10.79,5,11.27,11.27,0,0,1-1.61.58c-.08-3.11-.12-5.81.84-8.38a9.78,9.78,0,0,1,1.7-2.58A2.91,2.91,0,0,1,17.8,27.4a19.3,19.3,0,0,0,5.91-.46c2-.55,4-1.11,5.6-2.63a2.11,2.11,0,0,1,.84-.35c.08,0,.18.06.49.17A15.76,15.76,0,0,1,29,30.34ZM96.78,16.92a4.22,4.22,0,0,1,1.34-2.74,9.46,9.46,0,0,1,8.11-2.34c1.9.27,3.34,1.74,4.43,3.25a5.51,5.51,0,0,1,1,5.26c-.9,0-1.63,0-2.35,0a2.73,2.73,0,0,1-2.85-1.47,3.44,3.44,0,0,0-.54-.77,1.92,1.92,0,0,0-2.8-.15,15.41,15.41,0,0,0-1.53,1.8l-4.23.07C96.35,19,96.68,17.92,96.78,16.92Zm14,9A8.5,8.5,0,0,1,103,28.07c-3.18-.77-4.73-2.41-5.57-6.14,1.82-.25,3.17-.31,4.45,1.09,1.1,1.19,2.72.92,4,0a5.65,5.65,0,0,1,6.09-.44A3.19,3.19,0,0,1,110.74,26Zm70.69,9.35c-.48.35-1,.63-1.7,1a7.77,7.77,0,0,1-.41-3.73c3.25-1.92,6.64-3.72,9.94-5.69s6.92-3.31,10-6.11c-2.35-1.74-5-2.44-7.23-3.9s-4.59-2.46-6.9-3.67l-7.22-3.82c0-1.17,0-2.31,0-3.45,1-.47,6.29,3.31,8.36,4.52,2.43,1.42,15.48,9.25,16.26,9.84C200.78,22.48,182.7,34.39,181.43,35.31Z"/></g></g></svg>