<svg xmlns="http://www.w3.org/2000/svg" viewBox="0 0 65.83 86.29"><defs><style>.cls-1,.cls-2{fill-rule:evenodd;}.cls-2{fill:#c6262f;}.cls-3{fill:#fff;}</style></defs><title>Asset 458</title><g id="Layer_2" data-name="Layer 2"><g id="Layer_1-2" data-name="Layer 1"><path d="M20.58,44.43a2.82,2.82,0,0,1-2.38,1.25c.94-.16,1.63-.68,1.63-1.61a1,1,0,0,0-.68.14.63.63,0,0,1,.14-.43,2.18,2.18,0,0,0-1.47,1.14c.28-.87,1-1.9,2-1.9A.89.89,0,0,1,20.58,44.43Zm5.39-4c-.84-.12-1.57.67-1.91,1.37A1.86,1.86,0,0,1,25.45,41a.51.51,0,0,0-.18.34.89.89,0,0,1,.6,0c-.11.79-.77,1.15-1.59,1.17a2.45,2.45,0,0,0,2.19-.77A.77.77,0,0,0,26,40.41ZM23,39a3.29,3.29,0,0,0-2.62,1.9c.94-1.1,2.16-1.57,2.74-1a1.61,1.61,0,0,0-1.54,1.16A1.56,1.56,0,0,1,23,40.79c-.16.56-2.07.57-3.15,2.13,1.13-1.1,2.72-.85,3.71-1.43A1.29,1.29,0,0,0,23,39Zm1.39.22c.44-.44,1.08-.35,1.47-.59a.51.51,0,0,0-.23-1,1.3,1.3,0,0,0-1,.77c.37-.45.86-.64,1.09-.42a.64.64,0,0,0-.61.47.6.6,0,0,1,.56-.11C25.55,38.59,24.79,38.61,24.37,39.23Zm-6.75,4.19c.53-.76,1.48-.79,2-1.24A.76.76,0,0,0,19,40.81a1.92,1.92,0,0,0-1.31,1.38c.43-.74,1.09-1.14,1.48-.88a1,1,0,0,0-.77.84.91.91,0,0,1,.79-.31C19.18,42.18,18.08,42.4,17.62,43.42ZM24,37.92c1-.41,2.08-.79,3.14-1.17a1.13,1.13,0,0,1,0-.63l-2.27.73.19.09c-.13,0-.23,0-.35,0s-.58.18-.82.27a31.59,31.59,0,0,0-3.19,1.25c.18.09.37.17.53.27a4.6,4.6,0,0,0-.87-.11,28.62,28.62,0,0,0-3.19,1.78c.28.13.55.26.79.4a4.87,4.87,0,0,0-1.15-.14,23.08,23.08,0,0,0-2.06,1.55c.25,0,.52.1.75.16a5.63,5.63,0,0,0-1.07.15,20.17,20.17,0,0,0-2.23,2.39,6,6,0,0,1,.87.07,5.3,5.3,0,0,0-1.16.31,20.05,20.05,0,0,0-1.52,2.38c.24,0,.49-.1.72-.13a4.66,4.66,0,0,0-.94.55A21.87,21.87,0,0,0,8.9,51.13a6.4,6.4,0,0,1,.8-.38A4.25,4.25,0,0,0,8.53,52.2c-.25.91-.44,1.89-.61,2.88a10.45,10.45,0,0,1,.68,1.77C10.08,48.09,14.85,41.53,24,37.92ZM8.53,52.2c.11-.37.25-.71.37-1.07A5.34,5.34,0,0,0,6.71,53.2a6.69,6.69,0,0,1,.65.86c.08.11.13.24.2.36A1.13,1.13,0,0,0,7.8,54C8.06,53.41,8.24,52.79,8.53,52.2Zm8.16-5.78c-1,.19-1.42,1.33-1.52,2.23a2.16,2.16,0,0,1,1.19-1.4.59.59,0,0,0-.05.44,1,1,0,0,1,.63-.26,1.64,1.64,0,0,1-1.25,1.88,2.8,2.8,0,0,0,2-1.69A.87.87,0,0,0,16.69,46.42Zm-.39-2.17a1.45,1.45,0,0,0-.94,1.49,1.41,1.41,0,0,1,1.12-.68c.05.53-1.59,1.16-2,2.85.61-1.31,2.06-1.61,2.72-2.44a1.18,1.18,0,0,0-1.29-1.94A3,3,0,0,0,14.28,46C14.73,44.76,15.62,44,16.3,44.25Zm-1.5,6.18a2,2,0,0,0-1.07,1.49c.32-.68.85-1.12,1.4-.89a1.91,1.91,0,0,0-1.2,1.84,2.48,2.48,0,0,1,1.36-1.45c.23.66-.24,1.38-1.51,2.35a3.62,3.62,0,0,0,2.38-2.32c.53-1.67-1-2.66-2.28-1.58a3.75,3.75,0,0,0-1.17,3.26C12.92,51.5,14.09,50.07,14.8,50.43Zm-4.39.83a3.52,3.52,0,0,0-.25,3c-.16-1.4.45-2.86,1.07-2.72A1.8,1.8,0,0,0,10.71,53c.1-.63.43-1.12.89-1.06a1.78,1.78,0,0,0-.55,1.81,2.21,2.21,0,0,1,.75-1.51c.31.49.09,1.2-.68,2.29a3.23,3.23,0,0,0,1.36-2.47C12.55,50.55,11.18,50.07,10.41,51.26Zm5.22,2.28a2.15,2.15,0,0,0-1.9.9c.74-.59,1.57-.74,1.88-.32a1,1,0,0,0-1.12.56,1,1,0,0,1,.93,0c-.17.34-1.39.13-2.27,1,.85-.57,1.84-.23,2.55-.49A.83.83,0,0,0,15.63,53.54Zm-1.51-5.32c.26-1.29-.88-1.86-1.71-.93a3,3,0,0,0-.61,2.52c0-1.22.77-2.4,1.29-2.2a1.61,1.61,0,0,0-.65,1.2c.18-.53.53-.9.93-.8a1.55,1.55,0,0,0-.73,1.49,2,2,0,0,1,.86-1.21c.21.46-.08,1-.9,1.89A2.91,2.91,0,0,0,14.12,48.22Zm-3.93,6.42c-1,.26-1.29,1.51-1.2,2.49a1.88,1.88,0,0,1,1-1.57A.63.63,0,0,0,10,56a1,1,0,0,1,.65-.32,1.53,1.53,0,0,1-1,2.1,2.5,2.5,0,0,0,1.9-1.93A1.12,1.12,0,0,0,10.19,54.64ZM36.74,33.4a5.47,5.47,0,0,0,4.78,3.85c-2.75-1.2-4.22-4.16-2.9-5.34a3,3,0,0,0,1.67,2.79c-.92-.94-1.2-2.19-.29-3.13a2.85,2.85,0,0,0,2.2,3.21,3.73,3.73,0,0,1-1.33-3.32c1.4-.12,2.25,1.14,2.81,4a5.65,5.65,0,0,0-2-5.71A3.26,3.26,0,0,0,36.74,33.4ZM49.37,19.29a3.75,3.75,0,0,0-2.3,1.59,4.33,4.33,0,0,1,2.45-.68C50.32,20.1,50.24,19.19,49.37,19.29Zm-7.19,4.17c.11-.65-.57-.75-.69-.14a3.25,3.25,0,0,1-.59,1.82A2.84,2.84,0,0,0,42.18,23.46Zm5.36-2.53a3.26,3.26,0,0,0-1.81,1.63,3.69,3.69,0,0,1,2-.86C48.45,21.52,48.28,20.74,47.54,20.93ZM45.05,34.5c0,1.07,1.22,1.09,1.21,0a4.94,4.94,0,0,0-1.73-3.25A5.62,5.62,0,0,1,45.05,34.5Zm0-12.29a3.38,3.38,0,0,0,.79-2.39c-.13-.77-.93-.62-.82.11A3.91,3.91,0,0,1,45,22.21Zm-1.37.31c.12-.72-.64-.83-.76-.16a3.64,3.64,0,0,1-.67,2A3.17,3.17,0,0,0,43.66,22.52Zm2.45-1.43a3.79,3.79,0,0,0,.56-2.74c-.24-.84-1.11-.56-.9.22A4.27,4.27,0,0,1,46.11,21.09Zm-1.25.08c0-.79-.82-.76-.83,0a3.9,3.9,0,0,1-.33,2.26A3.41,3.41,0,0,0,44.86,21.17ZM55,11a5.92,5.92,0,0,0-3.42,2.79c1.26-1.12,2.46-1.1,3.76-1.38S56.37,10.71,55,11Zm2.3-5.89A3.55,3.55,0,0,1,56,6.74a3.19,3.19,0,0,0,2-1.22C58.35,4.9,57.69,4.52,57.33,5.1Zm-.54,1.75a4.7,4.7,0,0,0-2.6,2.36A5.44,5.44,0,0,1,57.12,8C58.1,7.69,57.85,6.58,56.79,6.85ZM56.12,8.7a5.92,5.92,0,0,0-3.42,2.79c1.26-1.12,2.46-1.1,3.76-1.38S57.46,8.42,56.12,8.7Zm9.71-3.11c-4.31,4.08-4,7.86-6.64,11.44C56,21.34,51.2,22.4,46.45,24c-1.68.55-3.74,1.38-2,3,2.11,1.89,4.48,4.2,3.31,7.78-.89,2.71-.39,2.88-.33,5,.06,1.79-2.56,2.58-3.54,1.41-.37-.44-.44-.92-1.07-1.26-1.09-.6-3.3-.63-3.17,1.21,3.17,8.49-6.52,17.4-3.32,22.34,3.58-.76,4.08,3.12,1.21,3.37H34.24c-2.66-1.32.08-8.9-.87-14.32-.66-3.74-4.56-3.45-5.69-.53-.76,2-.06,4.43.84,6.27h0A3.53,3.53,0,0,1,28.33,63a8.45,8.45,0,0,1-4.55,2c2.57,0,4-1.21,6.07-1.62,2.42-.5,3.09,1.77,1.31,2.82a5.23,5.23,0,0,1-2.45.61H10.78c-2.44-.92-4.16-2.32-4.69-4A3.93,3.93,0,0,0,8.71,60a6.12,6.12,0,0,0,.09-1,20.6,20.6,0,0,1,9.12-4.18c-3.44-3.61.61-11.2,8.59-12.19a3.42,3.42,0,0,0,4.63,2.64c-.37,1.55,2.75,2.36,3.67.85,1.51,2.07,6.33.55,3.31-5.81a8.61,8.61,0,0,1-2-1.45,1.77,1.77,0,0,0,.15-.51c.37.34.73.67,1.12,1s.49.37.75.55l.08-1.07-.83.52-.18-1.58-1,.24A2.28,2.28,0,0,0,36,37l0-.63h-.48l-.05-.07a2.83,2.83,0,0,0-.89-.56l.31-1.27-1.7-.43a12.37,12.37,0,0,0,.8,1.54,2.42,2.42,0,0,0-.66,0,12.76,12.76,0,0,1-1.56-3.36,48.1,48.1,0,0,1-5.53,2.26,3.93,3.93,0,0,0-1.61.07c-.54.15-.78.47-.81.77-.53.18-1.07.39-1.61.59a4,4,0,0,0-1.58.08c-.6.17-.83.54-.81.87-.55.25-1.11.5-1.65.77a3.9,3.9,0,0,0-1.37.11c-.73.21-.92.71-.75,1.08-.46.28-.91.56-1.34.86a3.79,3.79,0,0,0-1.17.13c-.86.25-1,.9-.66,1.26-.42.35-.82.72-1.21,1.09a4,4,0,0,0-1,.42c-.68.41-.77,1-.53,1.31-.39.49-.76,1-1.11,1.52a4.52,4.52,0,0,0-.71.41c-.66.52-.63,1.12-.29,1.41a16.69,16.69,0,0,0-.79,1.89,5.35,5.35,0,0,0-.48.47c-.45.62-.35,1.15,0,1.39a18.3,18.3,0,0,0-.29,1.85,10.33,10.33,0,0,0-1.78-1.43C6.07,44,12.65,39,19.33,36c2.9-1.27,6.07-2.19,8.88-3.41a15.94,15.94,0,0,0,5.93-4c1.91-2.23,2-3.56,4.53-5.05s5.08-2.32,6.21-5.37c.6-1.64.92-3.6,1.82-5.67a18,18,0,0,1,5.74-6.85c2-1.61,5.13-3.51,6.5-5.73a16.9,16.9,0,0,1,.14,8.17A14.53,14.53,0,0,1,65.83,5.59ZM24.07,48.25c.56-1.18.8-2.35,2.16-3.3a5.82,5.82,0,0,0-3.44,2.66C22.22,48.84,23.53,49.39,24.07,48.25Zm-.66,1.11C23.41,51,22.6,51.89,22,53s.59,1.85,1.26.68A5.84,5.84,0,0,0,23.41,49.36Zm-.55-3.64a5.68,5.68,0,0,1,2.7-2A4.92,4.92,0,0,0,22,44.83C21.23,45.63,22.09,46.46,22.86,45.72Zm-3.62,6.91c-.13,1.42,1.35,1.51,1.49.19s0-2.6,1-4A6.18,6.18,0,0,0,19.24,52.63Zm.17-2.88c.49-1.12.69-2.21,1.94-3.14a5.46,5.46,0,0,0-3.16,2.57C17.7,50.35,18.93,50.83,19.41,49.75Zm-2.95,5.94a18.91,18.91,0,0,1,9.37.91,4.85,4.85,0,0,1,0-.66A16.35,16.35,0,0,0,16.46,55.69Zm3.59,2.91a6.59,6.59,0,0,0-4.44,2.08c1.66-.87,3-.52,4.42-.47S21.57,58.66,20.05,58.6Zm-.51,2.76c-1.22.45-2.21,1.11-3.86.84a5.84,5.84,0,0,0,4.33.51C21.28,62.23,20.73,60.92,19.54,61.36ZM22,57.53c1.07,0,1.13-1.19,0-1.21A5,5,0,0,0,18.71,58,5.69,5.69,0,0,1,22,57.53Zm-.57,4.15a5,5,0,0,0,3.6-.76c.89-.73.1-1.63-.73-1A5.71,5.71,0,0,1,21.45,61.68Zm4-3.06c1.07,0,1.12-1.19,0-1.21a4.94,4.94,0,0,0-3.29,1.65A5.76,5.76,0,0,1,25.46,58.62Zm.6-7.92a4.67,4.67,0,0,1-1,2.59c-.44.78.41,1.3.89.47A4.1,4.1,0,0,0,26.06,50.7ZM12.75,58c1.55-.6,2.66-.16,3.95,0s1.52-1.2.18-1.42A5.83,5.83,0,0,0,12.75,58Zm-3,2.56c1.55-.59,2.66-.15,4,0s1.52-1.21.18-1.42A5.87,5.87,0,0,0,9.76,60.56Zm-.88,1.16A5.77,5.77,0,0,0,13,63.1c1.34-.21,1.08-1.6-.17-1.42S10.43,62.32,8.88,61.72ZM11,64a5.77,5.77,0,0,1-3.14-1.15,5,5,0,0,0,2.85,2.32C11.87,65.38,12.07,64.2,11,64Zm5.37.39c-1.22.06-2.29.37-3.68-.33a5.44,5.44,0,0,0,3.72,1.67C17.7,65.63,17.59,64.31,16.4,64.36Zm5.23-.73c-1.15.32-2.11.85-3.59.48a5.41,5.41,0,0,0,3.91.8C23.14,64.56,22.75,63.33,21.63,63.63Zm4.3-1.43a5.05,5.05,0,0,1-2.65,1.39,4.41,4.41,0,0,0,3.26-.49C27.37,62.49,26.71,61.64,25.93,62.2Zm1.33-2.28a3.7,3.7,0,0,1-1.75,1.33,3.28,3.28,0,0,0,2.3-.75C28.34,60,27.76,59.43,27.26,59.92Zm.14-14.37c-.36,1.62-1.35,2.29-2.22,3.26s.15,1.93,1.08.94A5.83,5.83,0,0,0,27.4,45.55Zm3.25.81a4.32,4.32,0,0,0-2.58,1.92c-.44.9.52,1.33.93.49A5,5,0,0,1,30.65,46.36Zm3.56,1.54A4.29,4.29,0,0,0,31,48c-.87.5-.32,1.39.49.93A5,5,0,0,1,34.21,47.9Zm1,8.65a3.49,3.49,0,0,1-.76,1.93c-.32.58.31,1,.66.35A3.1,3.1,0,0,0,35.22,56.55Zm.57-4.37a4.75,4.75,0,0,1-1,2.59c-.44.78.41,1.3.89.48A4.18,4.18,0,0,0,35.79,52.18Zm.46-3.78a4.33,4.33,0,0,0-1.8,2.66c-.12,1,.92,1.09,1,.16A5,5,0,0,1,36.25,48.4Zm1.69.26a4.75,4.75,0,0,1-1,2.59c-.44.78.41,1.3.89.48A4.18,4.18,0,0,0,37.94,48.66ZM33.9,32l-1.45-.08a14,14,0,0,0,.74,2.16ZM58.33,2.36c-.72,2.37-2.36,4-3.9,5.87-2.87,3.5-3.74,6.89-5.74,10.12a22.24,22.24,0,0,1-7.63,7.3c-.35.21-.68-.17-.13-.42a18.12,18.12,0,0,0,7.36-6.93c2.22-3.46,3.09-6.82,5.76-10.13,1.59-2,3.08-3.18,3.94-5.6C56.24,4,54.38,5.23,52.84,6.34a16.15,16.15,0,0,0-5.08,6.21c-1,2.09-1.45,4.42-2.54,6.47-1.5,2.82-3.51,3.8-6.08,5.32S35.93,28.56,34,30.65a12.08,12.08,0,0,0,5.48,8.57c1-.77,3.7-.86,4.69.84.63,1.06,2.6.52,2.32-.61-.51-2,.21-3.08.55-4.49,1-4.16-1.91-7.36-6.39-6.9.26-2.66,5.09-4.51,9.63-8a21.72,21.72,0,0,0,5.56-6.1A17.33,17.33,0,0,0,58.33,2.36Zm-4.44,11a6,6,0,0,0-3.42,2.8c1.26-1.13,2.47-1.1,3.76-1.39S55.24,13.09,53.89,13.37Zm-6.81,6.36a4.27,4.27,0,0,0,.47-3.18c-.33-1-1.31-.58-1,.31A5,5,0,0,1,47.08,19.73Zm5.56-4.12a5.11,5.11,0,0,0-3.18,2.07c1.18-.85,2.21-.71,3.34-.84S53.82,15.5,52.64,15.61ZM51.1,17.48a4.28,4.28,0,0,0-2.7,1.76,4.91,4.91,0,0,1,2.84-.71C52.17,18.43,52.1,17.38,51.1,17.48Zm.17-5.42a5.47,5.47,0,0,0,1.28-3.85c-.2-1.25-1.5-1-1.32.17S51.82,10.61,51.27,12.06ZM21,37.48a7.71,7.71,0,0,1,3.73-.58l.16,0A7.13,7.13,0,0,0,22.21,36c-.38.14-.75.27-1.15.43s-.83.34-1.24.52C19.85,37.33,20.29,37.68,21,37.48ZM25,36a11.28,11.28,0,0,1,2.89-.68,1,1,0,0,1,.56-.06,1.15,1.15,0,0,1-.14-.19,6.66,6.66,0,0,0-2.06-.58l-2.42.84C23.77,35.83,24.23,36.25,25,36Zm-7.82,3.19a9.46,9.46,0,0,1,3.21-.65l.34-.16a7.16,7.16,0,0,0-2.55-.74c-.73.37-1.43.77-2.12,1.19A.88.88,0,0,0,17.17,39.23ZM13.9,41.3a11.07,11.07,0,0,1,2.93-.68l.36-.26a6.63,6.63,0,0,0-2.48-.63c-.63.44-1.25.9-1.83,1.39A1,1,0,0,0,13.9,41.3Zm19-5.58a1.7,1.7,0,0,1,.39-.09q.36.55.75,1.08a.85.85,0,0,0-.84.19,1,1,0,0,0,1.46,1.43.83.83,0,0,0,.22-.6,14.27,14.27,0,0,0,1.16,1.17s0,.08,0,.12a5.76,5.76,0,0,1,2.35,4.42c-.09,2.84-2.9,2.91-3.76,1.39-.22,1.55-3.26,1.23-3-.59-1.85,1.6-4.93-.8-3.34-2.74-.76.53-1.94-.91-.64-1.47a1.35,1.35,0,0,1,0-2.69.88.88,0,0,1-.53-.59l.41-.16L27.48,36l-.32.1a1.23,1.23,0,0,1,.72-.76,4.69,4.69,0,0,1,1.19.14,6.92,6.92,0,0,0-.77-.39c-.4-.67.32-1.43,1.05-1.34A6.65,6.65,0,0,1,32.94,35.72Zm-3.21.19a1.91,1.91,0,0,1,2.18.92,1.44,1.44,0,0,1,.24-.48A2.85,2.85,0,0,0,29.63,35,.45.45,0,1,0,29.73,35.91Zm-.24,2.14c1-.13,1.39-.5,2.36-.16a1,1,0,0,1,0-.23,2.75,2.75,0,0,0-2.63-.58C28.52,37.35,28.76,38.14,29.49,38.05Zm-.2,1.56A4.54,4.54,0,0,0,32,38.43a2,2,0,0,1-.1-.26,8.16,8.16,0,0,1-2.68.2C28.14,38.39,28.11,39.62,29.29,39.61ZM30.61,41a6.61,6.61,0,0,1,1.69-2.1l-.08-.11a4.48,4.48,0,0,0-2.47,1.61C29.16,41.34,30.06,41.87,30.61,41Zm1.92-1.83-.12-.13a6.8,6.8,0,0,1-2,2.55c-.86.79,0,1.75.88.88A5.09,5.09,0,0,0,32.53,39.18Zm2.65.66A2.27,2.27,0,0,1,36.27,42c-.09.72.93.6.75-.26a3.56,3.56,0,0,0-1.51-2.12A2.79,2.79,0,0,1,35.18,39.84ZM33.89,40c.76,1.2.29,1.8.39,2.76s1.14,1.08,1.29.2A4,4,0,0,0,34.45,40,2.65,2.65,0,0,1,33.89,40ZM33,42.46c.35,1,1.29.81,1-.16a6.44,6.44,0,0,1-.58-2.48l-.2-.1A4.36,4.36,0,0,0,33,42.46Zm3.19-4.07a1.54,1.54,0,0,0,0-.37l-.31.08C36,38.21,36.13,38.29,36.23,38.39ZM11.41,44a10.79,10.79,0,0,1,3-1.56c.11-.1.2-.21.32-.31a7.2,7.2,0,0,0-3.1,0,19.76,19.76,0,0,0-1.57,1.73A1,1,0,0,0,11.41,44Zm24.5-5.94L36,37a3,3,0,0,0-.45-.62l-1,0A13,13,0,0,0,35.91,38.1Zm-1.33-2.33a2.59,2.59,0,0,0-.59-.16c.15.25.29.5.45.73ZM53.11,6.68a5.17,5.17,0,0,1-.46,3,4.49,4.49,0,0,0,1.56-3C54.22,5.67,53.13,5.7,53.11,6.68ZM48.25,18.19a5.06,5.06,0,0,0,.25-3.78c-.47-1.08-1.59-.56-1.15.46S48.41,16.75,48.25,18.19Zm2-3.86A5.92,5.92,0,0,0,51,10c-.41-1.31-1.77-.84-1.4.39S50.63,12.69,50.27,14.33ZM34.08,36.71q.41.54.84,1a1.07,1.07,0,0,0-.33-.74A1.12,1.12,0,0,0,34.08,36.71ZM9.24,47.16a11.49,11.49,0,0,1,2.69-1.91c.1-.12.19-.26.29-.38A6.63,6.63,0,0,0,9,45.46a16.84,16.84,0,0,0-1,1.82A1,1,0,0,0,9.24,47.16ZM49,16.57a5.93,5.93,0,0,0,.78-4.34c-.41-1.31-1.77-.84-1.4.39S49.39,14.93,49,16.57ZM55.93,5.3c.13-.76-.66-.88-.8-.18a3.8,3.8,0,0,1-.72,2.12A3.34,3.34,0,0,0,55.93,5.3ZM8,50.65a10.68,10.68,0,0,1,2.21-2.6c.07-.14.14-.28.22-.42A6.73,6.73,0,0,0,7.2,49.17,18.13,18.13,0,0,0,6.69,51C7,51.27,7.55,51.21,8,50.65ZM5.91,61.84a3.53,3.53,0,0,0,.18,1,4,4,0,0,1-4.15-1c-2.22-2.23-.91-5.36-.69-8A5.21,5.21,0,0,0,0,49.68a13,13,0,0,1,4.62,1.77c0,.13-.06.25-.08.37l1.75,2.3c0-.43.06-.83.11-1.24l.31.32c0,.1-.13.19-.17.29-.41,1,.47,1.51,1,.93.12.21.25.43.36.66,0,.32-.14.61-.18.93l.81,1.07a1.89,1.89,0,0,1,0-.23A7.75,7.75,0,0,1,8.8,59,17.88,17.88,0,0,0,5.91,61.84Zm.43-3.68c1-2.62-.34-5.73-4.08-6.93a7.65,7.65,0,0,1-.19,4.42c-.48,1.87.19,3.83,2.52,4.05-2.33-.86-2.12-3.82-.63-5.21-1,2.59.78,2.84,1.18,4.52-.55-1.38.12-2.46,0-3A2,2,0,0,1,6.34,58.16Z"/><path class="cls-1" d="M47.78,50c1.51-1.5,4.32-4.49,3.83-6.17-.19-.65.13-1,.57-.77.62.27,1.61,1.21,1.35,1.94a6.76,6.76,0,0,1-.68,1.34,5.51,5.51,0,0,0,2.58-.64c.57-.34,2.88.69,1.69,1.33a19.28,19.28,0,0,0-4.44,3.58c1.22-.23,2.4-.49,3.46-.77s3.19.44,3.37,1.42c.13.68-.37,1.47-1.58,1.54a11.12,11.12,0,0,1-.82,2c1,.24.92.95-.09.92a41.09,41.09,0,0,0-4.76.14c-1.48,3.65-4.26,8.26-10.15,8.26a13.86,13.86,0,0,0,8.35-8.09l-1.78.22c-.07.81-.89,1.24-1.08-.11-.23-1.71-.25-3.35-1.56-4.46-.33-.27-.88-.86.06-.89,1.3,0,1.51.21,1.54.5,1.44-.12,3.06-.35,4.66-.65a10,10,0,0,1,2.29-3.37c.24-.22.07-.36-.45-.32a7.79,7.79,0,0,1-1.74,0c-1.4,1.79-3.5,3.11-4.62,3Zm8.09,4.68a8.88,8.88,0,0,0,.69-2.95c0-.64-.75-.82-1.51-.64s-1.36.29-2,.39a1.28,1.28,0,0,1,.34,1.4c-.2.58-.43,1.31-.73,2.11,1.1-.13,2.22-.24,3.26-.31Zm-4.45-3a21.6,21.6,0,0,1-3.17.07,20.6,20.6,0,0,1,.44,3.79l2.05-.3a17.29,17.29,0,0,0,.68-3.56Zm7.36,7.86c0-.91-1.34-1.74-2.75-2-.22,0-.33.17-.26.49a7.68,7.68,0,0,0,1.32,2.18c.85.92,1.71.25,1.69-.64Zm-5.48-3A2.35,2.35,0,0,1,53.49,58c0,1.72-.56,4.29.34,5.89,1.44,2.58,5.56.88,8.25,1,.63,0,1.24-.14,1.1-.88-.18-1-1-2.42-1-4.37-1.32,1.92-.26,3.24-1.26,3.63-1.82.71-5.56,1-6.07-.45a9,9,0,0,1,.24-5.35c.47-.93-.24-1.26-1.37-1.57-.44-.12-.73,0-.4.64Z"/><path class="cls-2" d="M8.32,73.54H45.58A6.39,6.39,0,0,1,52,79.91h0a6.4,6.4,0,0,1-6.37,6.38H8.32A6.39,6.39,0,0,1,2,79.91H2a6.39,6.39,0,0,1,6.37-6.37Z"/><path class="cls-3" d="M17.16,81v.88a.66.66,0,0,1-.15.48.53.53,0,0,1-.76,0,.74.74,0,0,1-.14-.48V79c0-.47.17-.7.51-.7a.43.43,0,0,1,.38.16.92.92,0,0,1,.13.49,1.85,1.85,0,0,1,.38-.49.82.82,0,0,1,.53-.16,1.39,1.39,0,0,1,.65.16.51.51,0,0,1,.31.44.42.42,0,0,1-.14.32.39.39,0,0,1-.28.12,1.16,1.16,0,0,1-.28-.07,1.24,1.24,0,0,0-.39-.07.58.58,0,0,0-.38.12.8.8,0,0,0-.23.36,2.75,2.75,0,0,0-.11.57c0,.22,0,.49,0,.8ZM22,82a3.5,3.5,0,0,1-.74.44,2.07,2.07,0,0,1-.8.15,1.46,1.46,0,0,1-.71-.16,1.18,1.18,0,0,1-.48-.43,1.11,1.11,0,0,1-.16-.59,1.07,1.07,0,0,1,.27-.74,1.45,1.45,0,0,1,.75-.41l.5-.1.68-.15.62-.16a1.18,1.18,0,0,0-.17-.62.76.76,0,0,0-.62-.19,1.37,1.37,0,0,0-.6.11,1.13,1.13,0,0,0-.35.34,2.51,2.51,0,0,1-.2.29s-.13.07-.26.07a.41.41,0,0,1-.3-.11.36.36,0,0,1-.13-.29.87.87,0,0,1,.19-.54,1.4,1.4,0,0,1,.62-.43,2.58,2.58,0,0,1,1-.17,2.88,2.88,0,0,1,1.09.16,1,1,0,0,1,.56.52,2.26,2.26,0,0,1,.17.94v.63c0,.17,0,.36,0,.57a2,2,0,0,0,.1.62,2.24,2.24,0,0,1,.1.42.38.38,0,0,1-.16.29.48.48,0,0,1-.34.13.47.47,0,0,1-.32-.15A1.86,1.86,0,0,1,22,82ZM22,80.45l-.68.18-.61.14a.67.67,0,0,0-.32.17.44.44,0,0,0-.16.36.56.56,0,0,0,.19.41.67.67,0,0,0,.47.16,1.27,1.27,0,0,0,.58-.13.88.88,0,0,0,.38-.36A1.51,1.51,0,0,0,22,80.6v-.15Zm3-3.13v1.61a2.33,2.33,0,0,1,.61-.47,1.58,1.58,0,0,1,.76-.17,1.73,1.73,0,0,1,.92.25,1.66,1.66,0,0,1,.61.72,2.6,2.6,0,0,1,.22,1.12,3.07,3.07,0,0,1-.12.88,2.14,2.14,0,0,1-.35.69,1.54,1.54,0,0,1-.57.45,1.58,1.58,0,0,1-.72.16,1.7,1.7,0,0,1-.46-.06,1,1,0,0,1-.36-.15,2,2,0,0,1-.26-.19l-.28-.3V82a.65.65,0,0,1-.14.45.49.49,0,0,1-.36.15.46.46,0,0,1-.36-.15.65.65,0,0,1-.13-.45V77.37a.72.72,0,0,1,.13-.48.42.42,0,0,1,.36-.17.47.47,0,0,1,.37.16.64.64,0,0,1,.13.44ZM25,80.45a1.43,1.43,0,0,0,.29,1,.92.92,0,0,0,.75.34.87.87,0,0,0,.69-.34,1.52,1.52,0,0,0,.28-1,1.94,1.94,0,0,0-.12-.72,1,1,0,0,0-.34-.46.8.8,0,0,0-.51-.17.88.88,0,0,0-.53.17,1,1,0,0,0-.37.47,1.84,1.84,0,0,0-.14.74Zm4.78-3.13v1.61a2.47,2.47,0,0,1,.6-.47,1.62,1.62,0,0,1,.77-.17,1.76,1.76,0,0,1,.92.25,1.73,1.73,0,0,1,.61.72,2.76,2.76,0,0,1,.22,1.12,3.07,3.07,0,0,1-.12.88,2.15,2.15,0,0,1-.36.69,1.44,1.44,0,0,1-.56.45,1.58,1.58,0,0,1-.72.16,1.65,1.65,0,0,1-.46-.06,1.11,1.11,0,0,1-.37-.15,1.81,1.81,0,0,1-.25-.19c-.07-.07-.17-.17-.28-.3V82a.65.65,0,0,1-.14.45.5.5,0,0,1-.37.15.45.45,0,0,1-.35-.15.65.65,0,0,1-.14-.45V77.37a.79.79,0,0,1,.13-.48.45.45,0,0,1,.36-.17.48.48,0,0,1,.38.16.64.64,0,0,1,.13.44Zm0,3.13a1.38,1.38,0,0,0,.29,1,.92.92,0,0,0,.75.34.86.86,0,0,0,.68-.34,1.52,1.52,0,0,0,.29-1,1.94,1.94,0,0,0-.12-.72,1,1,0,0,0-.34-.46.82.82,0,0,0-.51-.17.94.94,0,0,0-.54.17,1.05,1.05,0,0,0-.37.47,1.85,1.85,0,0,0-.13.74Zm5-1.57v3a.69.69,0,0,1-.15.48.53.53,0,0,1-.76,0,.74.74,0,0,1-.14-.48v-3a.73.73,0,0,1,.14-.47.56.56,0,0,1,.76,0,.63.63,0,0,1,.15.44Zm-.52-1.08a.53.53,0,0,1-.37-.14.46.46,0,0,1-.16-.38.47.47,0,0,1,.16-.37.57.57,0,0,1,.37-.14.52.52,0,0,1,.36.13.45.45,0,0,1,.16.38.49.49,0,0,1-.15.38.55.55,0,0,1-.37.14Zm1.67.58H36v-.63c0-.17,0-.31,0-.4a.61.61,0,0,1,.08-.25.52.52,0,0,1,.18-.18.54.54,0,0,1,.62.09.41.41,0,0,1,.13.24,2.15,2.15,0,0,1,0,.41v.72h.39a.45.45,0,0,1,.34.11.34.34,0,0,1,.12.27.29.29,0,0,1-.17.29,1,1,0,0,1-.48.09h-.2v1.93a3.32,3.32,0,0,0,0,.38.4.4,0,0,0,.09.22.36.36,0,0,0,.25.08l.25,0a.9.9,0,0,1,.24,0,.3.3,0,0,1,.23.11.33.33,0,0,1,.11.25.43.43,0,0,1-.28.39,1.9,1.9,0,0,1-.8.13,1.39,1.39,0,0,1-.75-.16.77.77,0,0,1-.33-.46,3.28,3.28,0,0,1-.08-.78v-2h-.14a.5.5,0,0,1-.34-.11.36.36,0,0,1,0-.54.53.53,0,0,1,.37-.11Z"/></g></g></svg>