<svg xmlns="http://www.w3.org/2000/svg" viewBox="0 0 55.27 73.23"><defs><style>.cls-1{fill:#1d1d1b;}</style></defs><title>Asset 425</title><g id="Layer_2" data-name="Layer 2"><g id="Layer_1-2" data-name="Layer 1"><path class="cls-1" d="M43.94,47.94v1.49a.63.63,0,0,1-.63.63H36.84A1.31,1.31,0,0,1,35.75,48c.16-.23.3-.47.43-.7a6,6,0,0,0,.76-2.51,9.2,9.2,0,0,0-9.37-9.95,9.16,9.16,0,0,0-9.36,9.95,5.66,5.66,0,0,0,.73,2.51,7.29,7.29,0,0,0,.42.67,1.31,1.31,0,0,1-1.07,2.08H12a.63.63,0,0,1-.63-.63V47.94a.63.63,0,0,1,.63-.63h3.41a.63.63,0,0,0,.6-.83,7.24,7.24,0,0,1-.33-1.68A11.64,11.64,0,0,1,27.57,32.12c6.59,0,12.3,4.84,11.93,12.68a6.28,6.28,0,0,1-.34,1.67.63.63,0,0,0,.6.84h3.55A.63.63,0,0,1,43.94,47.94Zm-1.12,7.91H12.45a1.09,1.09,0,0,0-1.08,1.08v1a1.09,1.09,0,0,0,1.08,1.09H42.82A1.08,1.08,0,0,0,43.9,58v-1A1.08,1.08,0,0,0,42.82,55.85Z"/><path class="cls-1" d="M47.18,26.05a27.64,27.64,0,1,0,8.09,19.54A27.46,27.46,0,0,0,47.18,26.05ZM45.83,63.79a25.74,25.74,0,1,1,7.54-18.2A25.55,25.55,0,0,1,45.83,63.79Z"/><path class="cls-1" d="M16.36,10h.17c0,1-.09,1.7-.09,2.59-1.37,0-2.78,0-4.54,0-.91,0-2.24,0-2.6,0v-.16c.77-.13.88-.43.88-1.9V2.62c0-1.57-.14-1.78-.82-1.9V.56c.36,0,1.07,0,1.66,0s1.33,0,1.69,0V.72c-.69.12-.82.33-.82,1.9v9.25a11.85,11.85,0,0,0,1.57.08C15.48,12,16,11.73,16.36,10ZM18.87,3.7a.78.78,0,0,0,.82-.77.81.81,0,1,0-1.61,0A.77.77,0,0,0,18.87,3.7Zm.72,7.17V4.67a5.5,5.5,0,0,1-2.05.43v.16c.49.13.51.39.51,1.18v4.43c0,1.31-.21,1.39-.71,1.49v.16c.37,0,.87,0,1.48,0s1.11,0,1.47,0v-.16C19.8,12.26,19.59,12.18,19.59,10.87ZM29,8.41a4,4,0,0,1-4,4.21c-1.29,0-1.75-.59-2.83-.59a2.38,2.38,0,0,0-.69.1l-.07-.1c.36-.28.36-.49.36-2.28v-8c0-.81,0-1.07-.62-1.18V.44A5.33,5.33,0,0,0,23.38,0V5.28a3.25,3.25,0,0,1,2-.66A3.59,3.59,0,0,1,29,8.41Zm-1.82.29c0-2.41-.75-3.62-2.24-3.62a2.28,2.28,0,0,0-1.57.61v4.36c0,1.55.54,2.16,1.6,2.16C26.69,12.21,27.19,10.69,27.19,8.7Zm7.07-4.08a2.83,2.83,0,0,0-1.89,1v-1a5.32,5.32,0,0,1-2,.44v.17c.5.13.51.38.51,1.18v4.46c0,1.31-.21,1.39-.7,1.49v.16c.36,0,.87,0,1.47,0s1.12,0,1.48,0v-.16c-.49-.1-.71-.18-.71-1.49V6.13a1.36,1.36,0,0,1,1-.57c.4,0,.66.23.66.9h1.51C35.54,5.18,35.08,4.62,34.26,4.62Zm8.86,7.2a1.67,1.67,0,0,1-1.44.78.87.87,0,0,1-1-.85,3.58,3.58,0,0,1-2.34.9c-1.33,0-2.25-.75-2.25-1.83,0-1.25,1.23-2.1,2.79-2.1a3.45,3.45,0,0,1,1.74.43V6.79C40.65,5.52,40.24,5,39.4,5s-1.54.65-1.55,2.06H36.44a2.82,2.82,0,0,1,3.13-2.44c1.59,0,2.62.72,2.62,2.84V10.9c0,.72.11.93.44.93a.6.6,0,0,0,.41-.16ZM40.65,9.51a2.27,2.27,0,0,0-1.31-.38,1.41,1.41,0,0,0-1.54,1.51,1.27,1.27,0,0,0,1.34,1.42,2.21,2.21,0,0,0,1.51-.64Z"/></g></g></svg>