<svg xmlns="http://www.w3.org/2000/svg" viewBox="0 0 18.59 42"><title>Asset 479</title><g id="Layer_2" data-name="Layer 2"><g id="Layer_1-2" data-name="Layer 1"><path d="M18.14,19.42A12.45,12.45,0,0,1,18.59,23c-.16.59-.11,1.21-.32,1.79-.14.39-.2.8-.31,1.2a35.11,35.11,0,0,1-1.73,4.69c-.47,1-.91,2.09-1.37,3.13-.09.21-.17.42-.28.62a19.68,19.68,0,0,0-.8,1.82,2.15,2.15,0,0,0-.17.82c0,1.08-.06,2.16,0,3.24a10.46,10.46,0,0,1,0,1.25,1.79,1.79,0,0,1-.12.43,2.45,2.45,0,0,1-.12-.92c0-.32,0-.64,0-1l0-2c0-.17,0-.35,0-.51a3.07,3.07,0,0,1,.21-1.34,10.65,10.65,0,0,1,.73-1.9c.43-.78.71-1.61,1.11-2.4s.63-1.42.93-2.14.59-1.39.82-2.11.48-1.23.62-1.88c.09-.44.26-.86.36-1.3s.08-.72.12-1.07a2.27,2.27,0,0,1,.11-.73.76.76,0,0,0,0-.34c0-.49-.09-1-.17-1.46-.13-.75-.31-1.49-.45-2.23a8.48,8.48,0,0,1-.15-1c-.09-1.06-.2-2.12-.23-3.18,0-.87-.18-1.73-.27-2.6a5.49,5.49,0,0,0-.69-2.09,1.09,1.09,0,0,0-.66-.58.61.61,0,0,0-.71.2,1.08,1.08,0,0,0-.23.63c0,.46,0,.91,0,1.37s0,1,0,1.47c0,.26.21,3.3.23,4.15,0,.22,0,.45-.11.64-.15,0-.15-.11-.16-.2-.06-.91-.14-1.82-.17-2.73,0-1.4,0-2.8-.1-4.2a3.28,3.28,0,0,1,.09-1.21,2.19,2.19,0,0,0,.05-.68c0-.79.07-1.59.08-2.38A7.87,7.87,0,0,0,14.37,4a1.85,1.85,0,0,0-.43-.79,1,1,0,0,0-1.52.15,1.45,1.45,0,0,0-.19.69c-.06.85,0,1.7-.08,2.55-.06.64,0,1.29,0,1.94,0,.81,0,1.62-.07,2.44,0,.64-.06,1.29-.07,1.93,0,.43,0,.87,0,1.31,0,.15,0,.3-.17.39a.94.94,0,0,1-.09-.12s0-.08,0-.11c0-1-.1-2,0-3,0-.38.1-.76.12-1.13,0-.82,0-1.63.06-2.45,0-1.23,0-2.46,0-3.69,0-.53,0-1.07,0-1.6A3.13,3.13,0,0,0,11.47.93a1.45,1.45,0,0,0-.3-.39.71.71,0,0,0-1.1.06,3,3,0,0,0-.74,1.52,12.13,12.13,0,0,0-.21,1.23,3.57,3.57,0,0,0,0,.73c0,.32.06.64.06,1,0,1.24.06,2.47,0,3.7,0,.51,0,1,0,1.53,0,.83,0,1.67,0,2.5,0,.42,0,.83,0,1.25a3.43,3.43,0,0,1,0,.56c0,.05-.08.1-.11.13s-.13-.12-.14-.19c0-.32,0-.65,0-1l0-5.12c0-1.06,0-2.12,0-3.18,0-.32-.06-.64-.09-1a5.29,5.29,0,0,0-.08-.79A3.33,3.33,0,0,0,8,1.68c-.11-.1-.24-.18-.35-.29a.8.8,0,0,0-1.17.28A3.68,3.68,0,0,0,6.06,2.8a33.14,33.14,0,0,0-.33,3.85c0,1.4,0,2.8.14,4.2,0,.36,0,.72,0,1.08,0,1,.11,2,.11,3,0,.77-.09,1.55-.14,2.32,0,.36-.06.72-.1,1.08a3.13,3.13,0,0,1-.16.6c-.09.27-.2.53-.33.84A2.68,2.68,0,0,1,5,19a2.92,2.92,0,0,1-.09-.5L4.68,17.1a12.18,12.18,0,0,1-.18-2.49,5.05,5.05,0,0,0-.23-1.68,1.83,1.83,0,0,0-2.13-1.35,1.06,1.06,0,0,0-.89.85c0,.17-.09.33-.12.5a1.35,1.35,0,0,0,0,.45,19.77,19.77,0,0,1,.13,2.88c0,.7,0,1.4,0,2.1A9.41,9.41,0,0,1,1,20.73c-.2,1-.41,1.93-.6,2.89a6.11,6.11,0,0,0-.08.85,9.9,9.9,0,0,0,.15,2.66A6.12,6.12,0,0,0,.81,28.2,19.39,19.39,0,0,0,2.35,31a23,23,0,0,1,1.46,2.43c.07.14.31.7.34.81a6.91,6.91,0,0,1,.14,2,9.49,9.49,0,0,1-.14,1.18,20.62,20.62,0,0,1-.52,2.33c-.09.33-.14.67-.22,1s-.14.51-.22.76c0,0-.11.07-.2.11,0-.17,0-.3,0-.43a7.43,7.43,0,0,1,.36-1.55c.06-.18.09-.36.14-.55a.78.78,0,0,1,0-.22,6.93,6.93,0,0,0,.34-1.55,8.15,8.15,0,0,0,.06-2.83,3.27,3.27,0,0,0-.4-1c-.22-.43-.49-.85-.75-1.27A28.25,28.25,0,0,1,.61,28.5,7.22,7.22,0,0,1,0,26.08,12.32,12.32,0,0,1,.1,23.81c.11-.88.32-1.75.47-2.62a10,10,0,0,0,.34-2c0-.57-.06-1.14-.06-1.7,0-.85,0-1.7,0-2.55a7.71,7.71,0,0,0,0-1.36A3,3,0,0,1,1.06,12a1.05,1.05,0,0,1,.69-.63A2,2,0,0,1,4,11.89a2.34,2.34,0,0,1,.7,1.63,12.36,12.36,0,0,0,.14,1.35,6,6,0,0,1,0,.85c0,.35.28,2.06.3,2.47,0,.1.1.19.21.4a2.41,2.41,0,0,0,.17-.5c.06-.58.1-1.17.14-1.76.1-1.45,0-2.91,0-4.37a13,13,0,0,0-.14-1.87c0-.47,0-.95,0-1.42,0-.89,0-1.78,0-2.67a20.17,20.17,0,0,1,.32-3.39,6.07,6.07,0,0,1,.36-1,1.37,1.37,0,0,1,.26-.37A1,1,0,0,1,7.63,1a2.06,2.06,0,0,1,.9.85c.11.2.21.4.3.59C9,2.5,9,2.42,9,2.34A4.11,4.11,0,0,1,9.46,1a2,2,0,0,1,.8-.86.74.74,0,0,1,.6,0,1.43,1.43,0,0,1,.85.71,4.16,4.16,0,0,1,.44,1.69c0,.19,0,.37,0,.61A.87.87,0,0,0,12.38,3a1.76,1.76,0,0,1,1.23-.34.56.56,0,0,1,.45.2c.25.3.57.57.56,1a12.77,12.77,0,0,1,.29,4c0,.35-.05.71-.08,1.07a.81.81,0,0,0,0,.19l.55-.13A.7.7,0,0,1,16,9a1.74,1.74,0,0,1,.8.91,9.31,9.31,0,0,1,.71,3c0,.59.12,1.17.17,1.75,0,.25,0,.5,0,.74a3.15,3.15,0,0,0,.15,1.18,1.24,1.24,0,0,1,0,.39,5,5,0,0,0,.05,1C18,18.5,18,19,18.14,19.42Z"/></g></g></svg>