<svg xmlns="http://www.w3.org/2000/svg" viewBox="0 0 90.62 92.04"><defs><style>.cls-1{fill:#fbb03b;}</style></defs><title>Asset 513</title><g id="Layer_2" data-name="Layer 2"><g id="Layer_1-2" data-name="Layer 1"><path d="M64.83,70.17c-.39.15-.38.15-.49,0a.85.85,0,0,1-.11-.27,1.22,1.22,0,0,0-.1-.34c-.07-.15,0-.26.12-.38s.19-.18,0-.18a1,1,0,0,1-.41-.16c-.2-.15-.18-.19.34-.55s.81-.78.26-.43c-.3.2-.54.16-.54-.11a1.51,1.51,0,0,1,.4-.54c.33-.31.47-.37.73-.31s.31.1.14.36-.16.29,0,.42a.34.34,0,0,1,0,.59,1.26,1.26,0,0,0-.25.58,1.56,1.56,0,0,1-.21.6c-.09.11-.06.15.13.15C65.26,69.57,65.22,70,64.83,70.17Zm.75,1.92c-.55,0-.92.39-.7.74s.13.28,0,.45-.16.23,0,.41a2,2,0,0,1,0,1.38.54.54,0,0,0,.12.46c.2.31.2.32-.09.54s-.29.22,0,.46.44.31.61.13A14.48,14.48,0,0,0,65.37,73c-.06-.06,0-.19.25-.32C66.11,72.38,66.09,72.09,65.58,72.09ZM19.34,65c0-.21,0-.27-.11-.16s-.21.13-.41.07c-.43-.1-.42.13,0,.35S19.34,65.43,19.34,65Zm2.28-2.84c0-.13-.37-.06-.66.13s-.38.14-.05-.33.24-.71,0-.71a15.32,15.32,0,0,0-1.69,2.11s.1.06.23.06a.39.39,0,0,1,.31.12h0c.12.19.54,0,1.12-.46S21.62,62.38,21.62,62.18Zm43.74,8.37c0-.2,0-.26-.22-.26s-.46.34-.23.49S65.31,70.85,65.36,70.55Zm-.12-4.78c-.08-.41-.45-.32-1,.24s-.66.85-.38.95S65.31,66.11,65.24,65.77Zm-.06-1.67c-.1-.27-.23-.22-.78.27s-1.11,1.31-1,1.48a.34.34,0,0,0,.48,0A5.85,5.85,0,0,0,65.18,64.1Zm-.24,7.46c.09.22.49.22.68,0s0-.43-.3-.43S64.85,71.3,64.94,71.56Zm1-12.2a.14.14,0,0,0,0-.19c-.06,0-.12,0-.12.11S65.81,59.53,65.91,59.36Zm-47.29,20a.17.17,0,0,0,.16.17c.2,0,.35-.33.25-.5S18.62,79.16,18.62,79.38Zm.17-12.46c.22,0,.22,0-.08-.32s-.36-.3-.48-.17-.11.18.08.32A.9.9,0,0,0,18.79,66.92Zm.59,4.62c0-.87,0-.93-.35-1.24a3.44,3.44,0,0,1-.48-.55c-.37-.64-.57-.11-.22.57a2.48,2.48,0,0,1,.22.89,1.5,1.5,0,0,0,.17.69c.11.13.13.5.07,1.43a5.86,5.86,0,0,0,0,1.4c.14.22.33,0,.27-.32s0-.32.11-.36.15-.19.09-.52,0-.48.24-.59.41-.32.09-.42S19.37,72.33,19.38,71.54ZM19.52,64c-.3,0-.42,0-.42.15s.13.17.42.17C20.08,64.28,20.08,64,19.52,64Zm-.78,4.55c0-.17-.28-.38-.51-.38s-.28.13-.07.33S18.74,68.66,18.74,68.51Zm-.32-1.1c-.23,0-.2.24,0,.43s.51.22.51.09S18.58,67.41,18.42,67.41Zm3.44,15.86c0-.31-.16-.3-.54,0s-.39.57-.22.74S21.86,83.85,21.86,83.27Zm-1.27-.37a.22.22,0,0,0,.26,0c.14,0,.15-.1,0-.24S20.46,82.69,20.59,82.9ZM66.74,52.2a.53.53,0,0,0-.57-.07c-.45.18-.38.29.32.51s.77.25,1.15,0,1.17-1.13,1.07-1.23-.28.15-.54.43C67.66,52.43,67.2,52.52,66.74,52.2Zm.87-11.86c-.07,0,.22.11.66.14.66.05,1.2,0,1.2-.17A7.31,7.31,0,0,0,67.61,40.34Zm1.31.56c-.16.2-.31.24-1,.22-1,0-1.08.16-.28.4.63.19.66.19,1.06,0a1.64,1.64,0,0,1,.62-.18.47.47,0,0,0,.36-.12c0-.07,0-.12-.11-.12a.45.45,0,0,1-.31-.21C69.11,40.67,69.09,40.67,68.92,40.9Zm2-2.71a.76.76,0,0,1,.49-.24.73.73,0,0,0,.53-.34,1.14,1.14,0,0,1,.59-.41c.34-.07.37-.13.72-1.2.13-.4-.19-.21-.4.24s-.47.74-.65.75-.12-.14-.16-.3c-.11-.43-.31-.37-.31.1s-.12.64-.75,1.1c-.25.18-.45.38-.45.44S70.73,38.45,70.94,38.19Zm-.15,2.59c0,.22.49.24.7,0s.18-.69,0-.69a.3.3,0,0,0-.25.12c-.12.2-.28.13-.37-.15-.14-.45-.68-1.19-.79-1.08a2.85,2.85,0,0,0,.59,1.5A.39.39,0,0,1,70.79,40.78Zm-1.23-5.91-.87.14a.89.89,0,0,1-.51,0,5.59,5.59,0,0,1-.64-1.51c0-.27.84.07,1.57.64a2.53,2.53,0,0,0,.75.42C70.3,34.64,70.18,34.78,69.56,34.87ZM69,34.59c0-.07-.18-.23-.39-.37s-.4-.21-.44,0a.5.5,0,0,0,.11.36C68.43,34.73,69,34.77,69,34.59Zm.82-5.4c.22.16.33.33.29.46s0,.21.59.16a1.56,1.56,0,0,0,.88-.29c.23-.22.23-.22-.28-.22s-.5,0-.48-.21,0-.2-.17-.18a1,1,0,0,1-.56-.22c-.36-.27-.61-.24-.61.07C69.47,28.85,69.62,29,69.81,29.19Zm-1.17,1a2.82,2.82,0,0,1,.54.61c.16.24.37.43.47.43s.23-.14,0-.34-.11-.17,0-.28.18-.31-.1-.4-.47-.51-.53-1.14S68.85,28,68.66,28s-.16.1-.1.46.11.54.14.66a.21.21,0,0,1-.13.28C68.3,29.47,68.34,30,68.64,30.18Zm3.62-1.33.51.17-.39.23c-.21.13-.39.3-.39.38,0,.28.31.15,1.12-.47s1-.93.53-.76a3.1,3.1,0,0,1-1.64.06c-.2-.11-.25-.1-.25,0S72,28.75,72.26,28.85Zm-1.59,4.54c0-.2,0-.21-.36-.09a1.2,1.2,0,0,1-1-.08,1.51,1.51,0,0,0-.67-.15c-.22.22.68.68,1.33.68a.83.83,0,0,1,.56.18.33.33,0,0,0,.33.12,1.26,1.26,0,0,1,.28-.07c.24,0,.09-.21-.19-.28S70.67,33.53,70.67,33.39Zm3.73-5.92c0-.25-1.49.16-1.54.43s0,.2.2.2A2.94,2.94,0,0,0,74.4,27.47Zm-3.13,4.05a3.2,3.2,0,0,1-1.11.1c-.48-.08-.62.1-.24.31s.17.17,1.25-.12a2.62,2.62,0,0,0,.94-.36C72.11,31.31,72.05,31.31,71.27,31.52ZM74,38.85c-.06,0-.11,0-.11-.18s0-.26-.4,0a3.59,3.59,0,0,1-.79.5c-.22.1-.37.25-.34.33s.66.14.92-.09.52-.23.44.15,0,.28.4-.21.59-1,.22-1.06c-.15,0-.21,0-.21.2A.39.39,0,0,1,74,38.85Zm-7.74,1.41c.09.29.29.28.21,0a1,1,0,0,0-.9-.71c-.26,0-.24.07.17.27A1.2,1.2,0,0,1,66.29,40.26ZM62.37,53.34c0,.06.25,0,.55-.2.51-.29.69-.52.4-.52A2.19,2.19,0,0,0,62.37,53.34Zm4.48-11.25c-.2-.06-.27,0-.27.11s.15.22.45.26l.57.12a1.67,1.67,0,0,0,1.27-.38l.3-.3-.52.21A2.76,2.76,0,0,1,66.85,42.09Zm-.39,5.5c0,.15.22.12.67-.09s.65-.53.4-.53A2.63,2.63,0,0,0,66.46,47.59ZM66,43.34s0-.06,0-.16-.11-.18-.27-.18a2,2,0,0,1-1-.56c-.1-.08-.37-.28-.6-.43a2.1,2.1,0,0,1-.86-1.23c-.11-.29-.15-.32-.19-.14a2.17,2.17,0,0,0,.57,1.54c1.11.85,1.46,1,1.88,1.09ZM64.69,40.6c-.31,0-.13.35.36.71s.52.35.55.17S65,40.61,64.69,40.6Zm5.94,6.72c-.24.15-.42.31-.38.36s.63,0,.85-.24a.69.69,0,0,1,.34-.23,1.58,1.58,0,0,0,.47-.29c.26-.21.33-.34.27-.54-.12-.35-.22-.32-.69.21A5.14,5.14,0,0,1,70.63,47.32Zm1.06-8.4c.06.09.28.12.63.08a1.46,1.46,0,0,0,1-.51c.46-.45.66-.85.47-1s-.2.07-.32.23a2.46,2.46,0,0,1-1.3.8C71.83,38.56,71.58,38.74,71.69,38.92Zm-.44,5.53c0-.12-.09-.07-.35.13a6.72,6.72,0,0,1-.81.51c-.21.11-.36.26-.32.32s.11.12.15.12A4.9,4.9,0,0,0,71.25,44.45ZM67.75,51c-.12.12-.1.13.07.07S68,51,68,51,67.83,51,67.75,51Zm3.3-2.5c-.44.13-.51.21-.74.84s-.34.74-.73.93-.43.27-.39.31c.25.25,1-.28,1.29-.95a1.33,1.33,0,0,1,.65-.63C71.94,48.66,71.88,48.29,71.05,48.54Zm-5.54-1.81c-.56,0-.82.11-.65.28s.22.1.79,0S66.21,46.73,65.51,46.73Zm1.55-.27h.42l-.36-.12a4,4,0,0,0-.85-.16A6.1,6.1,0,0,1,65,45.84c-.84-.34-1.46-.41-1.39-.16s1,.62,2,.7Zm4.38-29.21c.09-.49.23-.58.41-.26s.56.13.47-.11c-.2-.53-.22-.69-.07-.66s.17-.06.2-.18-.28-.81-.49-.81a2.21,2.21,0,0,0-.44,1,2.56,2.56,0,0,1-.45,1c-.09,0-.16.23-.16.43C70.91,18.29,71.3,18,71.44,17.25ZM55.16,43.33a3.37,3.37,0,0,0,.41.53c.12.09.43-.17.43-.34a2.86,2.86,0,0,0-1.09-1.12c-.28,0-.66-.41-.92-1s-.51-.6-.51-.13a1.91,1.91,0,0,0,1,1.47A1.62,1.62,0,0,1,55.16,43.33Zm-2.92-5s-.12,0-.2.18-.09.25,0,.25S52.34,38.46,52.24,38.36Zm3.19,1.88c.11,0,.21,0,.21-.06a4.81,4.81,0,0,0-.81-1.44c-.36-.14-.36.09,0,.78C55.08,40,55.28,40.24,55.43,40.24Zm15-20.65c-.19.19-.18.23.09.51s.22.3.14.3-.21-.11-.29-.24c-.18-.29-.55-.31-.66,0s-.13.12-.4-.21-.37-.38-.48-.27-.06.28.24.75c.41.64.64.75.83.4.1-.17.15-.18.28-.06s.57.19.66,0a.92.92,0,0,1,.36-.34l.28-.15-.42-.41C70.69,19.42,70.65,19.4,70.46,19.59ZM68.21,30.71l-.14-.36c-.1-.28-.53-.28-.53,0a.61.61,0,0,0,.15.36C67.88,30.91,68.31,30.9,68.21,30.71ZM50,40.24a3.19,3.19,0,0,0,0,2.38c.38.72.57.36.37-.67a2.89,2.89,0,0,1,0-.93c.06-.43.13-.54.31-.54s.21,0,.13-.27S50.25,39.86,50,40.24ZM72.07,13a.61.61,0,0,0,0,.4c.28.29.72-.31.56-.78a1.24,1.24,0,0,1-.06-.48c.07-.5-.67-.41-1,.12s-.27.53.16.47S72.13,12.65,72.07,13Zm.16,5a3.06,3.06,0,0,0,.42.61,3.24,3.24,0,0,1,.42.63.68.68,0,0,0,.19.28c.57.57.31-.65-.27-1.26C72.68,17.91,72.23,17.75,72.23,18ZM57.75,54.3a1.68,1.68,0,0,1-.66.36,1.21,1.21,0,0,0-.47.19.42.42,0,0,0-.2.53c.07.29,0,.4-.45.77a2.78,2.78,0,0,1-.88.51c-.44.09-1.07.58-1,.75s.6.16.76-.1a.52.52,0,0,1,.39-.24.84.84,0,0,0,.48-.24.79.79,0,0,1,.33-.24,1.4,1.4,0,0,0,.43-.31.9.9,0,0,0,.32-.73c0-.34.06-.44.34-.56a4.53,4.53,0,0,0,1.34-1C58.53,53.84,58.18,54,57.75,54.3ZM49,58.87c-.08.12-.61.8-.87,1.11a.93.93,0,0,0-.21.35c0,.25.26.06.66-.46a2.53,2.53,0,0,1,.8-.72c.42-.18.4-.48,0-.42A.69.69,0,0,0,49,58.87Zm3.68-16.65c.06-.14-.05-.33-.36-.61-.48-.44-.54-.74-.23-1.27.15-.24.17-.38.09-.44a.7.7,0,0,1-.21-.3c-.11-.3-.28-.17-.39.31a6.28,6.28,0,0,0,0,2.3.21.21,0,0,0,.06-.24c-.07-.18,0-.21.34-.1a.47.47,0,0,1,.19.43,1.69,1.69,0,0,0,.2.71c.22.37.27.4.57.28s.16-.12,0-.47A.9.9,0,0,1,52.71,42.22Zm11-5.71c.31.12.46.1.53-.1s-.09-.19-.25-.25-.3-.18-.28-.71c0-1-.26-1-.41-.05C63.23,36,63.35,36.35,63.74,36.51Zm-.13,1.59c.52,0,.57,0,.57.25a.59.59,0,0,0,.08.36c.18.18.28.06.21-.25-.14-.63-.15-.65-.66-.61l-.5,0,0-.47c-.08-.82-.31-.83-.27,0l0,.72Zm.67-4.19c-.4-.36-.72-.86-.59-.94s.26.07.45.24.34.28.38.13.08-.2.13-.2.25.51.17,1a1.68,1.68,0,0,0,0,.64c.07.18.1.18.35,0s.59-.25.51.09.08.57.43,1.23c.63,1.17.56,1.09.85.91s.53,0,.37.42c-.07.19-.13.27-.14.19s-.37-.2-.37,0,.12.18.27.25a6.19,6.19,0,0,1,.69.37.88.88,0,0,0,.93.1c.69-.2.78-.08.17.24s-.74.3-.92.15a4.26,4.26,0,0,0-.66-.33,2.14,2.14,0,0,1-.73-.46c-.19-.23-.22-.23-.62,0a2.37,2.37,0,0,1-.55.2c-.21,0-.74-.73-.74-1a1.83,1.83,0,0,0-.12-.59c-.07-.2-.07-.33,0-.38s.23,0,.37.57.41,1.06.76,1.06.37,0,0-.52a2.36,2.36,0,0,1-.37-.95c0-.31-.14-.57-.2-.57s-.58-.77-.58-1.16A.83.83,0,0,0,64.28,33.91ZM65.92,37c0,.07.1.12.13.12s0,0,0-.12a.13.13,0,0,0-.13-.12C65.9,36.87,65.88,36.93,65.92,37Zm-3.21-2.14c.11-.07.06-.14-.16-.24s-.31-.21-.26-.39-.07-.31-.27-.06a.61.61,0,0,0-.08.49C62,35,62.39,35.05,62.71,34.85Zm5.52-3.1c.34-.09.24-.29-.14-.29s-.67-.12-.67-.31-.1-.17-.24-.17c-.29,0-.31.32,0,.62A1.09,1.09,0,0,0,68.23,31.75Zm-7.93,6.5a1.19,1.19,0,0,0,1.23,0c.22-.27,0-.44-.41-.36a1.6,1.6,0,0,1-.84-.12c-.58-.24-.59-.24-.43,0A1.31,1.31,0,0,0,60.3,38.25Zm-1.54,3.1c-.06-.15-.19-.27-.29-.27s-.23.11.05.73a1.35,1.35,0,0,1,.17.62s.07.2.22.33.28.2.32,0a1.79,1.79,0,0,0-.16-.68C59,41.84,58.81,41.5,58.76,41.35Zm-1.38-.18c-.1-.57-.3-.59-.3,0a1.68,1.68,0,0,0,.52,1.22.77.77,0,0,0,.62.26c.33,0,.34,0,.11-.11A2.17,2.17,0,0,1,57.38,41.17Zm1.94-4.1a1.67,1.67,0,0,1-.31-.54.16.16,0,0,0-.18-.14c-.29,0-.21.35.17.73S59.69,37.57,59.32,37.07Zm2.82.53a8.13,8.13,0,0,0,.5,1.29,3.57,3.57,0,0,0,.81.46,3.87,3.87,0,0,1,1.1.77,1.91,1.91,0,0,0,.57.48c.29,0,.22-.22-.17-.59a2.06,2.06,0,0,1-.41-.49,1.29,1.29,0,0,0-.54-.3c-.3-.11-.54-.28-.54-.36s-.14-.19-.3-.23c-.33-.09-.46-.39-.45-1.07,0-.38,0-.45-.18-.39s-.39-.13-.39-.49-.56-.86-.69-.73,0,.18.13.31A5.75,5.75,0,0,1,62.14,37.6ZM56.4,39.34c-.06.17.07.22.46.18.1,0,.28.12.39.29s.82.43,1,.19c0-.07-.06-.12-.21-.12s-.34-.12-.49-.42-.37-.53-.51-.31-.36.12-.53-.27-.16-.38-.22-.09,0,.32.08.34S56.44,39.25,56.4,39.34Zm3.36,3a5.33,5.33,0,0,1,.68.85c.2.38.31.24.15-.2a4.16,4.16,0,0,0-1.15-1.54C59.17,41.56,59.27,41.83,59.76,42.37ZM72,42.52c-.23,0-.36.11-.49.39a1.1,1.1,0,0,1-.63.56c-.54.2-.74.08-.38-.21s.58-.73.48-.83-.55.33-.74.71a.66.66,0,0,1-.59.37c-.28,0-.42,0-.42-.1,0-.28-.22-.29-.69,0a8.11,8.11,0,0,1-.79.35c-.18.07-.33.18-.33.25s.13.15.58-.12,1-.32,1-.15a.9.9,0,0,1-.17.32c-.1.13-.15.28-.11.33s.38.11.56-.18.79-.49,1-.31,1.48-.13,1.72-.66c.08-.17.22-.31.32-.31s.31-.24.31-.51c0-.1,0-.09-.14,0A.73.73,0,0,1,72,42.52ZM64.57,19.08c-.23,0-.32.33-.15.54s.56.23.65,0S64.87,19.08,64.57,19.08ZM61.07,22c0,.17,0,.2.29.17s.66-.37.52-.51S61.11,21.81,61.07,22Zm1.27-2.65a.21.21,0,0,0,.34-.17c0-.09-.1-.18-.21-.21S62.17,19.2,62.34,19.36Zm.51-1.05c0,.34.21.34.41,0,.09-.14.09-.24,0-.33S62.85,18,62.85,18.31Zm-1,1.6a.33.33,0,0,1-.24.29.31.31,0,0,0-.24.25c0,.34.45.21.65-.19s.24-.58,0-.58A.21.21,0,0,0,61.89,19.91ZM64.46,12a1.93,1.93,0,0,1,.42-.62c.34-.31.34-.58,0-.53s-.81.83-.81,1.27S64.27,12.41,64.46,12Zm.26,1.91c.25.09.1.28-.24.28s-.48.17-.36.36a.88.88,0,0,0,.82,0,3.57,3.57,0,0,0,.14-.6c.08-.49.07-.51-.23-.51S64.41,13.75,64.72,13.87Zm-.62,6.31c-.15.12-.14.17,0,.34s.17.22-.06.28-.29.42.15.54.56.09.54-.31a1.56,1.56,0,0,1,.07-.52C64.94,20.25,64.35,20,64.1,20.18Zm-2.33.94c0-.26,0-.27-.29-.16a.23.23,0,0,0,0,.44C61.66,21.48,61.77,21.38,61.77,21.12Zm1.93.48c-.22,0-.13.33.15.53s.7.21.78,0S64,21.6,63.7,21.6ZM18.56,53.06c-.18.06-.26.65-.1.8s.28,0,.28-.4S18.7,53,18.56,53.06ZM19.7,41.55a1.18,1.18,0,0,1-.24.58,1.18,1.18,0,0,0-.24.42c0,.25.31,0,.57-.47s.25-.51.09-.64S19.7,41.33,19.7,41.55Zm-.72,9A12.38,12.38,0,0,1,18.46,52a2.09,2.09,0,0,0-.2.47s.1,0,.24-.13a.73.73,0,0,0,.24-.43.47.47,0,0,1,.17-.34,1,1,0,0,0,.24-.47,5.33,5.33,0,0,1,.27-.71c.18-.39.18-.79,0-.81A3.17,3.17,0,0,0,19,50.57Zm-.48-.69c.39-1,.28-1.46-.19-.72a4.93,4.93,0,0,0-.69,2.24l-.07.76.36-.33a1,1,0,0,0,.35-.83A3.71,3.71,0,0,1,18.5,49.88Zm-.37-3.51c.13-.7.26-1.36.31-1.48s0-.2-.05-.2c-.27,0-.5.74-.65,2.09a5.3,5.3,0,0,0-.07,1.39C17.79,48.17,17.83,48,18.13,46.37ZM59.25,57.53s.13-.12.3-.37c.31-.45.4-.77.18-.63A2.73,2.73,0,0,0,59.25,57.53ZM75.84,30.14c-.07,0-.12,0-.12.1a1.39,1.39,0,0,1-.48.37c-.27.15-.46.32-.42.38s.18.14.68-.21S76.11,30.14,75.84,30.14ZM60.59,54.75c.09-.17-.07-.08-.45.27a4.78,4.78,0,0,0-.63.63c-.07.17.18.1.49-.15a1.21,1.21,0,0,1,.44-.24c.22,0,.15.43-.11.66a.82.82,0,0,0-.24.32c0,.26.36.06.65-.36s.32-.86-.06-.86C60.47,55,60.46,55,60.59,54.75ZM19.7,40.66c0,.06.07,0,.14-.12a2,2,0,0,1,.34-.42,5.63,5.63,0,0,0,.48-.6l.3-.42-.36.28A3,3,0,0,0,19.7,40.66ZM63.94,55.87c0,.41.17.26.38-.34l.21-.57-.3.34A1.18,1.18,0,0,0,63.94,55.87Zm10.7-24.15c0,.16.29,0,.45-.26s.11-.24.07-.24A1.05,1.05,0,0,0,74.64,31.72ZM66.46,18.78c-.2.24-.35.23-.44,0a.94.94,0,0,0-.27-.35c-.16-.12-.17-.21,0-.66A8.91,8.91,0,0,0,66,16.43c.21-1.74.46-2.19,1.44-2.69.52-.26.58-.26,1.29-.1.93.21,1.43.69,1.3,1.28a3.63,3.63,0,0,0-.07.71,2.54,2.54,0,0,1-.9,1.51c-.35.27-.64.23-.4-.06s0-.32-.38-.1a3.59,3.59,0,0,1-1,.26c-.58.06-.67.11-.89.48s-.3.64-.06.64S66.63,18.58,66.46,18.78Zm.92-3.27c.16.15.39.09.52-.15.25-.47,0-1.31-.24-1-.1.1-.09.2,0,.39s.13.29-.11.47S67.33,15.46,67.38,15.51Zm.74.88c.53-.27,1.11-.87,1.11-1.15,0-.06-.09-.17-.2-.23a.28.28,0,0,1-.13-.36c0-.17,0-.26-.09-.26s-.15.16-.16.36a1.64,1.64,0,0,1-.42,1.17.7.7,0,0,1-.94.15C67.1,16,67,16,67,16.22,66.76,16.74,67.27,16.82,68.12,16.39ZM62.37,42.58c-.12-.15-.1-.18.14-.18a1,1,0,0,0,.47-.12c.13-.09.09-.12-.19-.12a1,1,0,0,1-.72-.36,1.21,1.21,0,0,0-.48-.36c-.15,0-.67-.72-.81-1.12-.09-.22-.41-.4-.52-.29s0,.23.12.42.17.36,0,.34c-.4,0-.28.3.31.86.42.41.64.55.73.47s.12-.08.12,0a1.84,1.84,0,0,0,.24.5c.24.39.52.5.67.27A.3.3,0,0,0,62.37,42.58ZM26.06,33.19c.16-.14.15-.17,0-.17a3.51,3.51,0,0,0-1.26.56C24.75,33.75,25.79,33.44,26.06,33.19ZM6.55,47.47c.07-.27-.26-.72-.41-.56a5.12,5.12,0,0,0-.2,1.36c-.06,1-.05,1.24.07,1.2a1,1,0,0,0,.3-.46c.14-.41.15-.41.15-.08a1.86,1.86,0,0,1-.23.8,2.34,2.34,0,0,0-.24.66c0,.32.17.19.64-.49a1.68,1.68,0,0,0,.42-1.27c0-.47-.09-.65-.29-.78A.39.39,0,0,1,6.55,47.47Zm-1.86,2c-.26,0-.41.35-.56,1.26a3.43,3.43,0,0,1-.37,1,1.24,1.24,0,0,0-.22.69c0,.1.09.19.11.19.43,0,1.08-1.29,1.2-2.38C4.93,49.54,4.92,49.49,4.69,49.49ZM89.81,12.68c-.21,0-.34-.12-.75-.93s-.73-1.16-.79-.66a3.77,3.77,0,0,1-.17.66c-.09.23-.17.47-.2.54-.33.93-1.9,2.7-2.42,2.71a.9.9,0,0,0-.44.18c-.19.14-.44.17-1.16.1-.94-.08-1.34,0-1.63.42-.11.16-.19.16-.62,0s-1-.1-.76.16-.27.43-.65.06c-.23-.21-.31-.22-.53-.11a.44.44,0,0,1-.55-.05,1.21,1.21,0,0,0-.5-.19.89.89,0,0,1-.45-.18c-.29-.22-.63-.23-.7,0a1.75,1.75,0,0,0,.42.77,2.86,2.86,0,0,1,.69,1.76,1.39,1.39,0,0,0,.17.6,2.76,2.76,0,0,1,.26.69,2.43,2.43,0,0,0,.38.82,2.46,2.46,0,0,1,.4,1.23,4.89,4.89,0,0,0,.29,1.19c.24.46.23.63-.06,1.57a1.68,1.68,0,0,0,.13,1.78,2.27,2.27,0,0,1,.32,1,1.86,1.86,0,0,1-.31,1.4c-.45.88-.46,1-.07,1.81a2.78,2.78,0,0,1,.32,1.3A2.53,2.53,0,0,1,80,33.09c-.32.54-.33.62-.2,1.1a4.85,4.85,0,0,1,.14.84,7.33,7.33,0,0,1-.51,2,3.38,3.38,0,0,0-.08,1.11,2.63,2.63,0,0,1-.12,1.14c-.11.13-.11.3,0,.73s.1.68-.19,1.72c-.18.65-.47,1.58-.64,2.07a4.78,4.78,0,0,0-.29,1.88,2.48,2.48,0,0,1-.53,1.93A5.12,5.12,0,0,0,77,49.07a5.72,5.72,0,0,1-.76,2.17,1.62,1.62,0,0,0-.32,1,1.4,1.4,0,0,1-.07.66c-.1.23-.08.31.13.46.44.3.46,1.05.07,3.45a1,1,0,0,0,0,.6,4.29,4.29,0,0,1,.31.77,12.07,12.07,0,0,0,1.84,2.89,6.42,6.42,0,0,0,1.48,1.12,2.16,2.16,0,0,1,.58.73c.24.48.26.64.2,1.67a5.81,5.81,0,0,1-1,3.39,3.83,3.83,0,0,1-.8.53A21.41,21.41,0,0,0,74.83,71a.76.76,0,0,1-.35.25,19,19,0,0,0-2.79,3.07,7.46,7.46,0,0,1-2.94,2.89l-.7.3-.4.17.08.84a19.07,19.07,0,0,1,.06,1.91c0,.94,0,1.11.27,1.5,1,1.51,1.11,2,.7,3.21a2.78,2.78,0,0,0,0,2.31c1,3.3,1,3.43.22,4a3.24,3.24,0,0,1-1.29.51L67,92l-.56-.22a7.31,7.31,0,0,1-3.23-2.57,2.8,2.8,0,0,1-.54-1.57,8.8,8.8,0,0,1-.05-1.11c0-.39,0-.45-.18-.29s-.43,0-.43-.42-.24-.67-.61-.57c-.19,0-.23,0-.25-.41-.07-1.31.18-2.12,1.41-4.47l.56-1.08-.22-1.51c-.22-1.5-.22-1.51,0-2.33.14-.44.29-1,.33-1.18a6.08,6.08,0,0,0-.54-2.79l-.36-.87.08-1.74c.07-1.54,0-1.8-.14-2.23s-.44-.6-.61-.33c-.06.1-.13.05-.22-.15A4.23,4.23,0,0,0,60.7,65a1.49,1.49,0,0,0-.41.46c-.32.45-.42,1-.21,1.16a1.09,1.09,0,0,1,.19.55c.09.52-.09.9-.38.79-.09,0-.16,0-.16.09a.93.93,0,0,1-.17.38c-.15.21-.18.19-.31-.31a4.74,4.74,0,0,0-.76-1.67c-.05,0-.05.33,0,.75.09.87-.06,1.11-.6,1-.37-.09-.36-.05-.15-.49a1.39,1.39,0,0,0,.08-.88c-.07-.44-.1-.5-.18-.31a6,6,0,0,1-1,1.84c-.53.65-.72.76-.72.45s-.23-.22-.34.08a4,4,0,0,0-.13.93c0,.76,0,.7-.31.75s-.24,0-.19-.92a2.26,2.26,0,0,1,.19-1.08,13.68,13.68,0,0,0,1.45-2.24.46.46,0,0,0,0-.31c-.1-.1-.56.32-.56.5s-.13.21-.3.28a.75.75,0,0,0-.37.32.33.33,0,0,1-.29.18c-.23,0-.4.58-.42,1.51,0,1.24,0,1.26-.36,1.26s-.34,0-.18-.6a11.11,11.11,0,0,0,.12-2.89c-.06,0-.12.13-.14.27a.39.39,0,0,1-.27.32c-.2,0-.22,0-.16-.39s0-.44-.09-.44-.36.3-.54,1.32c-.13.76-.21.94-.52,1.2a9.45,9.45,0,0,0-.73.7c-.61.67-.91.42-.44-.36a2.36,2.36,0,0,0,.25-1.35v-1l-.36.43a1.73,1.73,0,0,1-.66.51.79.79,0,0,0-.43.32.47.47,0,0,1-.35.24c-.23,0-.37.22-.37.6,0,.54-.71,1.68-1,1.68s-.2-.17.08-.72a2.22,2.22,0,0,0,.24-.68c0-.18,0-.18-.22,0a.77.77,0,0,1-.43.2c-.19,0-.17-.07.12-.57s.69-1.92.52-2-.71.68-.71.9a.57.57,0,0,1-.17.31,2,2,0,0,0-.25.83c-.05.46-.15.7-.3.79-.31.16-.34.07-.22-.63s.05-1.41-.1-1.41a1.66,1.66,0,0,0-.42.25c-.2.14-.38.23-.41.2a1.45,1.45,0,0,1,.18-.59,2.93,2.93,0,0,0,.24-.68c0-.3-.32-.13-.54.27a1.24,1.24,0,0,1-.31.43,1.66,1.66,0,0,0-.35.51c-.28.55-.58.93-.73.93a1.37,1.37,0,0,1-.31-.61c-.21-.57-.24-.6-.56-.52l-.35.07.08-.53c.06-.41,0-.57-.1-.69-.3-.25-.47,0-.39.54.05.39,0,.55-.12.67a1.75,1.75,0,0,0-.36.53c-.14.34-.15.3-.16-.56,0-.7,0-.94-.18-1a.29.29,0,0,1-.18-.25.19.19,0,0,0-.17-.19c-.09,0-.31-.21-.49-.48a3.82,3.82,0,0,0-.38-.48,2.66,2.66,0,0,0-.3.54,1.68,1.68,0,0,0-.17,1.12c.07.48,0,.63-.18.9s-.72.45-.72.19a4.42,4.42,0,0,1,.21-.78c.19-.63.19-.65-.07-.92a1,1,0,0,1-.26-.45,1.45,1.45,0,0,0-.24-.54,1.42,1.42,0,0,1-.24-.57c0-.12,0-.21-.12-.21s-.12.14-.12.31a1.54,1.54,0,0,1-.36.75,2.58,2.58,0,0,0-.43.84c-.06.28-.14.38-.28.36s-.18-.16-.15-.56a2.45,2.45,0,0,0-.1-.86,1.48,1.48,0,0,1,0-1c.09-.42.1-.67,0-.75s-.37.38-.37.85a1.61,1.61,0,0,1-.33.74,1.33,1.33,0,0,0-.3,1.15c0,.89-.05,1.27-.26,1.27S36,67.63,36,66.67a3,3,0,0,0-.12-1.32c-.09-.08-.11-.25,0-.51.23-.91.25-1.28.08-1.28s-.21.12-.24.27-.15.56-.23.92a1.38,1.38,0,0,1-.33.71c-.15.05-.15,0,0-.79a.71.71,0,0,1,.12-.23A.41.41,0,0,0,35,63.8c-.25-.09-.31-.2-.31-.54,0-.68-.24-.51-.71.51-.07.15-.18.27-.25.27s-.07-.12,0-.33a9.76,9.76,0,0,0,.45-1.18,1.88,1.88,0,0,0,.12-1.42c-.09-.31-.21-.55-.28-.53a1.6,1.6,0,0,0-.15.78A3,3,0,0,1,33.41,63c-.36.64-.57.91-.74.91a.22.22,0,0,1-.11-.42.45.45,0,0,0,.12-.34c0-.21-.07-.15-.36.27a3.67,3.67,0,0,0-.42.86,1.76,1.76,0,0,1-.9,1,1.17,1.17,0,0,1-.46-.07c-.25-.08-.27-.14-.2-.55a1.29,1.29,0,0,0-.12-.83,2.93,2.93,0,0,1-.19-.43,3.54,3.54,0,0,0-.1-1.45,1.64,1.64,0,0,0-.31.49c-.18.39-.19.46,0,.64a1.78,1.78,0,0,1,.17,1.31.69.69,0,0,0,0,.44c.09.32-.26,1-.49,1a.72.72,0,0,0-.36.24c-.33.37-.39.29-.25-.36s.1-.63-.15-.87l-.27-.27.08.32c.08.37-.11.55-.37.34s-.71.34-1.23,1.44A7.57,7.57,0,0,1,25.93,68a1.79,1.79,0,0,0-.34.53,3.69,3.69,0,0,1-.32.72c-.29.59-.31.69-.24,1.88A19.42,19.42,0,0,0,25.47,74c.2.89.45,2.11.54,2.7.28,1.77.39,2.07,1,2.56a2.12,2.12,0,0,1,.65.87,10,10,0,0,1,.54,2.57,2.74,2.74,0,0,0,.2,1,3.33,3.33,0,0,0,.73.5l.79.42a4.44,4.44,0,0,1,.86,1.58c.06.13.22.67.36,1.2a4.75,4.75,0,0,0,.45,1.17c.15.18.16.24,0,.42a3.83,3.83,0,0,1-1.31,1.1,3.32,3.32,0,0,1-2.13-.06,5.65,5.65,0,0,0-.88-.29,4.14,4.14,0,0,1-.65-.18c-.2-.08-.22-.06-.14.2.47,1.63.39,2-.47,1.83a1.41,1.41,0,0,0-.72,0,6.28,6.28,0,0,1-3.07-.6,7.67,7.67,0,0,1-2.59-1.93,6.18,6.18,0,0,1-.89-2.83c-.09-1-.19-1.22-.7-1.22-.15,0-.27-.08-.27-.17s-.12-.19-.27-.22c-.35,0-.41-.57-.15-1.43.32-1.11.26-1.18-.45-.51s-.63.58-.67.26a3.39,3.39,0,0,1,.32-1.08c.2-.42.56-1.36.81-2.08a10.49,10.49,0,0,0,.24-6.13c-.1-.33-.26-1.09-.37-1.69a17.07,17.07,0,0,0-.83-2.7c-.83-2.08-.95-2.32-1.13-2.14s-.19-.74,0-1.38c.13-.41.12-.5,0-.62s-.2-.38-.23-1.1a2.3,2.3,0,0,1,.37-1.68c.22-.39.48-.84.58-1s.16-.27,0-.27c-.44,0-1.64,1.53-1.64,2.09a.33.33,0,0,1-.24.26c-.27.08-.42.52-.31.89s-.15.32-.28,0a2,2,0,0,1,.38-1.71,5.63,5.63,0,0,0,.76-.84,4.49,4.49,0,0,1,.55-.65,2.36,2.36,0,0,0,.46-.34c.39-.32.49-.84.18-1-.13,0-.18-.26-.18-.82,0-.84-.21-1.18-.54-.9s-.22.06.31-.9c.36-.65.54-.87.67-.82s.4-.18.33-.62c-.13-.79-.18-.92-.52-1.3l-.35-.4.18-.65a2.49,2.49,0,0,0-.37-2.33,2.13,2.13,0,0,1-.43-1c0-.45-.12-.49-.34-.13s-.39.08-.26-.38a2.23,2.23,0,0,0-.11-1.41,1.65,1.65,0,0,1,0-1c.13-.73.09-.85-.16-.51a4.13,4.13,0,0,0-.51,2.12c-.05.81-.12,1.09-.29,1.25s-.25.18-.28.15A5.07,5.07,0,0,1,13,49.13a3.89,3.89,0,0,0,0-1.07c-.09-.1-.52.45-.58.76a18.06,18.06,0,0,1-.57,2.27c-.13.25-.46.28-.46,0a3.64,3.64,0,0,1,.17-.69c.25-.76.35-1.3.23-1.3-.27,0-.64.49-.79,1s-.23.61-.44.64-.26,0-.18-.39-.11-.57-.37-.07a2.07,2.07,0,0,0-.17.39,2.6,2.6,0,0,1-.12.37,2.1,2.1,0,0,0-.13.46c0,.06-.14.17-.3.25a3.48,3.48,0,0,0-.85,1c-.51.79-.91,1.14-1.1,1,0,0,.06-.22.23-.4a4.16,4.16,0,0,0,.94-1.49c0-.31-.29-.49-.51-.31a3.53,3.53,0,0,0-.82,1.35.83.83,0,0,1-.29.44c-.17.15-.31.31-.31.37a5.17,5.17,0,0,1-1.11,1.41c-.06,0-.08-.09,0-.21s.12-.29.15-.38,0-.15-.14-.09a1.13,1.13,0,0,1-.38.08c-.1,0-.26.18-.35.41a3.83,3.83,0,0,1-.45.75,7.46,7.46,0,0,0-.56.8c-.16.27-.36.45-.5.45-.38,0-.28-.45.25-1.07A4.46,4.46,0,0,0,4,55.23c0-.26-.46,0-1,.54a3.69,3.69,0,0,0-1.15,2,1.11,1.11,0,0,1-.74.81c-.16,0-.12-.32.06-.47a2,2,0,0,0,.23-.89,6.69,6.69,0,0,1,.15-1c0-.11,0-.2,0-.2a4.14,4.14,0,0,0-.88,1.35c-.08.21-.21.33-.36.33-.34,0-.31-.17.14-.82a3.71,3.71,0,0,0,.81-1.61c0-.24,0-.24-.22-.06s-.62.27-.62.08A2.17,2.17,0,0,1,.7,54.8c.32-.4.37-.56.4-1.35A3.07,3.07,0,0,1,1.42,52c.87-1.61.9-1.71.92-2.7a3.14,3.14,0,0,1,.4-1.74,3.79,3.79,0,0,1,1.73-1.89c.82-.55.82-.55.77-1-.06-.66.08-.86,1.52-2.07.67-.55,1.42-1.2,1.68-1.43a1.76,1.76,0,0,1,.63-.42,2.82,2.82,0,0,0,.8-.6,3.21,3.21,0,0,1,1.05-.71A10.27,10.27,0,0,1,12.8,39a1.63,1.63,0,0,0,1-.81,1.4,1.4,0,0,1,.68-.31c.74-.19,1.07-.47,1.73-1.43.54-.8.82-1,1.48-1.11s.85-.16,1.24-.72a1.13,1.13,0,0,1,.81-.61c.34-.07.53-.22.89-.7a14.1,14.1,0,0,1,1-1.16c.56-.53.57-.54,1.52-.58a2.17,2.17,0,0,0,1-.16,1.79,1.79,0,0,1,.67-.42,2.53,2.53,0,0,1,1.59-.25,3.58,3.58,0,0,0,1.1,0,7.56,7.56,0,0,1,2-.64,2,2,0,0,1,1.41.28c.77.35.79.35,1.06.13a3.63,3.63,0,0,1,1-.41,1.61,1.61,0,0,1,1.77.37c.2.19.45.22,1.82.23s1.65,0,1.91.22a.87.87,0,0,0,.68.14,1.27,1.27,0,0,1,.79.16,6.17,6.17,0,0,0,1.35.37,5.73,5.73,0,0,1,1.53.5c.55.3.69.33,1.11.24a1.2,1.2,0,0,1,1.31.48c.2.24.23.25.58.06.55-.28.83-.25,1.52.18s.65.36,1,.24a2.24,2.24,0,0,1,.65-.14,1.46,1.46,0,0,1,1,.51c0,.12.15.11.54,0a1.45,1.45,0,0,1,1.59.3c.28.33.27.33,1.55.09a1.16,1.16,0,0,1,.8.14,1,1,0,0,0,.86.11c.4-.1.51-.21.82-.82a2.65,2.65,0,0,1,.79-1,3.23,3.23,0,0,0,.58-.46.53.53,0,0,1,.34-.2c.09,0,.26-.2.37-.46a3.46,3.46,0,0,1,1.33-1.51c.28-.17.5-.39.5-.49a1.35,1.35,0,0,1,.32-.54l.31-.38-.28-.32a2.85,2.85,0,0,0-.38-.37c-.05,0-.09-.16-.09-.31s-.1-.32-.36-.41a.93.93,0,0,1-.55-.55A1.47,1.47,0,0,1,59.14,25l.25-.52-.31-.37a1.33,1.33,0,0,1-.31-.56A6.61,6.61,0,0,1,60,20.89a6.2,6.2,0,0,0,1.09-2.23,10.47,10.47,0,0,1,1.22-2.49.78.78,0,0,0,.14-.66C62.3,15,62.27,15,62,15.3a1,1,0,0,1-.63.29c-.25,0-.41.11-.62.43s-.54.49-.6.07-.26-.32-.74.1-1,.49-1,.18-.06-.22-.35,0-1.14-.08-1.62-.52-.38-.49.46-1a7.91,7.91,0,0,0,2.47-2.54,4.3,4.3,0,0,1,2.25-2.1c.41-.13.69-.29.73-.42s.95-.7,1.45-.7h.39l-.63-.71a4.9,4.9,0,0,1-1.31-2c0-.3-.58-.61-.89-.49A.45.45,0,0,1,61,5.73c-.27-.29-.56-.38-1.55-.44-.7,0-.77,0-1.1.29a2.81,2.81,0,0,1-.62.47l-.28.13.5.49c.65.64.75.9.87,2.42s.09,1.57-.94,2.78a2.15,2.15,0,0,1-1.44,1,1.71,1.71,0,0,1-1.54-.06c-.6-.21-.8-.34-.9-.61a1.3,1.3,0,0,0-.48-.51c-.54-.28-.71-.63-.71-1.47A3.84,3.84,0,0,0,52.57,9a1.25,1.25,0,0,1-.11-.66c.09-.27-.21-.3-.42,0a.51.51,0,0,1-.28.18,2.44,2.44,0,0,0-.69.55c-.65.64-1.21.82-1.77.58-.37-.15-.37-.16-.3-.85a2.16,2.16,0,0,1,.51-1.3A4.64,4.64,0,0,0,50,6.67a4.6,4.6,0,0,1,1.88-1.19,4,4,0,0,0,.9-.21c.52-.17.61-.25.68-.58a2.12,2.12,0,0,1,.39-.76,1.67,1.67,0,0,0,.32-.48,5.65,5.65,0,0,1,1.59-1.17c.19-.08.33-.23.33-.32a1.56,1.56,0,0,1,.43-.6A2.66,2.66,0,0,1,58.64.73c.33.05.5,0,.61-.1A4.22,4.22,0,0,1,61,0,2.93,2.93,0,0,1,63.34.8a1.31,1.31,0,0,0,1,.52c.74.09,1.07.27,1.25.7a1.66,1.66,0,0,0,.72.64,3.36,3.36,0,0,1,.92.77,6.45,6.45,0,0,0,.58.68c.13.14.47.55.75.93.46.62.55.69,1.08.76A6.82,6.82,0,0,1,70.6,6c.62.2.77.14,1.11-.46a6.86,6.86,0,0,1,1.61-1.86,3.43,3.43,0,0,1,1-.34A2.88,2.88,0,0,0,75.24,3a3.9,3.9,0,0,1,.9-.37,5.33,5.33,0,0,0,.9-.36,3.91,3.91,0,0,1,.7-.36c.48-.21.54-.21.93,0s.62.25.86,0,.37-.18,1.17-.12l1.89.1c.83,0,1,.06,1.4.42a1.82,1.82,0,0,0,.74.39,2,2,0,0,1,1.37.75,1.68,1.68,0,0,1,.32.55c0,.08.17.21.39.3a1,1,0,0,1,.72,1,3.37,3.37,0,0,0,1.09,2.15,5.26,5.26,0,0,1,1.63,1.9,5.57,5.57,0,0,0,.27.61C90.85,10.6,90.32,12.61,89.81,12.68ZM29.63,86.05c.37.15.42.12.28-.14s-.16-.22-.31-.09S29.44,86,29.63,86.05Zm-.69-1.33c-.05,0,0,.12.17.27.32.34.45.31.15,0A.82.82,0,0,0,28.94,84.72Zm-.23,4.21c0,.07.15.11.33.09s.34-.1.37-.47a3.85,3.85,0,0,0-.18-1.15c-.18-.61-.22-.65-.25-.35a6,6,0,0,0,0,1c0,.5,0,.7-.12.7A.14.14,0,0,0,28.71,88.93ZM86.57,7.63a1,1,0,0,0-.56,0,1.22,1.22,0,0,0,0,.65c.07.48.12.55.34.52a.82.82,0,0,0,.46-.4C87.13,7.86,87.08,7.69,86.57,7.63Zm-1.32-1.2c-.06.24,0,.27.41.27a1.5,1.5,0,0,0,.74-.2A.4.4,0,0,0,86.61,6c0-.15,0-.31,0-.36s.11-.21.11-.39V5l-.18.27c-.25.36-.64.36-.64,0C85.94,4.7,85.47,5.53,85.25,6.43Zm.15-2.72c-.1.09.06.46.19.46a.09.09,0,0,0,.1-.09C85.69,3.92,85.47,3.64,85.4,3.71ZM85,5a1,1,0,0,1,.07.36c0,.16.07.12.3-.13a1.3,1.3,0,0,0,.3-.51c0-.21,0-.22-.42,0C85.09,4.76,85,4.88,85,5Zm-1.43.1A8.84,8.84,0,0,1,83,6.43c-.31.57-.32.63-.11.51a1.12,1.12,0,0,0,.39-.39,3.32,3.32,0,0,1,.54-.64,1.29,1.29,0,0,0,.4-.61,1.8,1.8,0,0,1,.25-.63,1,1,0,0,0,.17-.75c-.08-.38-.3-.36-.3,0a.39.39,0,0,1-.27.34C83.91,4.35,83.77,4.59,83.6,5.09Zm-.12,6.05c.4-.15.32-.24-.54-.61l-.64-.27-.29.33c-.47.54-.38.67.43.67A3.79,3.79,0,0,0,83.48,11.14Zm-.38,1c-.25.13-.32.14-.4,0s-.85-.27-.85-.11a2.15,2.15,0,0,0,.67.94,2,2,0,0,0,.59-.43C83.6,12.07,83.6,11.84,83.1,12.11Zm-1.35-1.83A.42.42,0,0,0,82,10c0-.19,0-.26-.12-.22a.41.41,0,0,0-.2.33C81.6,10.24,81.64,10.31,81.75,10.28ZM84.21,10c.12-.31.09-.4-.3-.89s-.62-.68-.62-.33a.93.93,0,0,1-.38.53l-.38.3.59.37C83.86,10.39,84.05,10.39,84.21,10Zm-.74-5.83c.1-.12.15-.27.11-.33s-.29-.09-.28.23S83.31,4.34,83.47,4.12Zm-.6-1.38.33.18c.18.1.33.26.33.36s.06.17.12.17.12-.1.12-.22a.51.51,0,0,0-.59-.49ZM81.59,6a1.21,1.21,0,0,0,.29-.45c.11-.25.37-.75.57-1.12a3.09,3.09,0,0,0,.36-.85c0-.2-.7-.78-.81-.66a2.92,2.92,0,0,0-.09.7,4.9,4.9,0,0,1-.15,1.05C81.58,5.23,81.49,6,81.59,6Zm-.32-2.77c0,.17,0,.23.06.15a.51.51,0,0,0,0-.3C81.29,3,81.27,3,81.27,3.21Zm-.2,1.6C81,5,81,5,81.16,5a.55.55,0,0,0,.26-.34c.1-.38.08-.7,0-.63a.71.71,0,0,0-.16.34A4.77,4.77,0,0,1,81.07,4.81Zm-1.33-1c0,.61.06,1.27.07,1.46s0,.3.08.22c.11-.29.4-.17.4.18V6l.13-.31a8.77,8.77,0,0,0,.19-1.63c.06-1.29,0-1.35-.2-1.43a1,1,0,0,0-.49,0C79.71,2.74,79.7,2.83,79.74,3.85Zm-1.8,4.41a.72.72,0,0,1-.37.24.44.44,0,0,0-.29.34,1,1,0,0,1-.31.51,2.16,2.16,0,0,0-.65,1.08c0,.11.21.12.81.05a5.57,5.57,0,0,1,2.62.1c.53.29.73.25.94-.2a2.19,2.19,0,0,0,.2-.54A1.66,1.66,0,0,1,81.7,9c.23,0,.63-.34.63-.55a1.44,1.44,0,0,1,.42-.52,2,2,0,0,0,.42-.43c0-.14-.28-.05-.43.15s-.17.19-.46-.08-.34-.28-.62-.13-.38.14-.85,0-.57-.19-1.22.08C78.37,8,78,8.13,77.94,8.26Zm-1.35-.42c.08.26.16.39.18.29a1.27,1.27,0,0,0-.09-.53C76.49,7.1,76.42,7.29,76.59,7.84ZM79,5.43c0-.23,0-.42-.12-.42s-.12.19-.12.42.06.43.12.43S79,5.67,79,5.43ZM78.38,3h.5l-.29-.22c-.36-.28-.43-.28-.58,0S77.92,3,78.38,3Zm-1.7,1.52a5.14,5.14,0,0,1,.49.78,6.1,6.1,0,0,0,.61.94,1.22,1.22,0,0,1,.34.76c0,.24,0,.35.15.32A.27.27,0,0,0,78.4,7l-.15-1a8.88,8.88,0,0,1-.13-1.24c0-.42,0-.51.23-.51s.26.12.31.33.09.31.2.11a.32.32,0,0,0-.06-.43A.67.67,0,0,1,78.6,4c0-.09-.22-.14-.6-.14-.71,0-1.1-.16-1-.42s-.32-.25-.53,0S76.41,4.16,76.68,4.47Zm-1.26-.54c0,.07.1.12.13.12s0,0,0-.12a.13.13,0,0,0-.13-.12C75.4,3.81,75.38,3.87,75.42,3.93Zm-1,.69a1.5,1.5,0,0,0,.62.08,1,1,0,0,1,.63.3c.46.4.6.45.6.22s-.38-.71-.62-.65-.38-.06-.64-.29c-.48-.42-.58-.43-.82-.07S74.06,4.5,74.47,4.62Zm-.59,1.16c-.48.2-.55.32-.27.56a.47.47,0,0,1,.18.29,1.61,1.61,0,0,0,.43.55A5.36,5.36,0,0,1,74.9,8c.14.22.28.35.32.28a.53.53,0,0,1,.32-.16c.18,0,.27.07.41.47a1.6,1.6,0,0,0,.21.47,4,4,0,0,0-.08-.74,2.29,2.29,0,0,0-.34-1,3.27,3.27,0,0,1-.81-1.46c.12-.33.42-.18.68.34s.54.8.74.8-.11-.31-.36-.69-.51-.8-.59-.93c-.18-.33-.5-.36-.8-.08A3,3,0,0,1,73.88,5.78Zm-.51-.89c0,.07,0,.12.11.12a.34.34,0,0,0,.26-.12c0-.06,0-.12-.11-.12A.36.36,0,0,0,73.37,4.89ZM71,8.65l.54-.49c.93-.86,1.24-.55.45.44a4.91,4.91,0,0,1-.59.65c-.1.07-.1.22,0,.58s.14.47.33.29a2.14,2.14,0,0,1,.66-.31l.45-.13-.32-.33c-.27-.29-.29-.35-.14-.48s.54,0,1,.52c.2.27.39.4.5.35.26-.1.22-.21-.26-.72s-.69-.84-.53-.94.75.11,1.11.64.6.49.17-.19a5.59,5.59,0,0,0-1.67-1.71.37.37,0,0,1-.28-.13c-.09-.15.17-.71.42-.91s.07-.42-.16-.33-.39.52-.5,1.16a.76.76,0,0,1-.4.63A1.33,1.33,0,0,0,71,8.33ZM66.1,3.48a.44.44,0,0,0,.08.25c.11.11.28.1.28,0a.47.47,0,0,0-.18-.26C66.14,3.33,66.1,3.33,66.1,3.48Zm-10.22.57s.13-.13.17-.29.11-.37.15-.48,0-.19-.05-.19-.17.22-.24.48S55.83,4.05,55.88,4.05Zm-.06,1.08A.19.19,0,0,0,56,4.92a2,2,0,0,0-.08-.49c-.05-.21-.1-.24-.17-.12C55.57,4.59,55.62,5.13,55.82,5.13ZM54.65,5c.59.22.63.18.63-.45a2.78,2.78,0,0,1,.08-.78c0-.1,0-.19-.07-.19s-.18.12-.24.27a1.82,1.82,0,0,1-.42.56C54.24,4.77,54.24,4.84,54.65,5ZM50.47,8.18c0-.4-.24-.47-.49-.15s-.3.72-.15.87S50.47,8.48,50.47,8.18Zm1.1-1.28c-.17-.42-.25-.41-.64.08-.24.3-.29.44-.18.54s.34.17.66-.08S51.67,7.18,51.57,6.9Zm1.55,0c.32-.17.34-.21.22-.55S53.2,6,52.59,6s-1.11.27-1,.41a2.76,2.76,0,0,0,1,.61A1.6,1.6,0,0,0,53.12,6.88Zm.24,2c0,.3.12.41.35.31l.61-.23c.39-.14.4-.16.12-.2s-.3-.12-.3-.28c0-.5-.45-.71-.9-.42-.15.09-.16.16,0,.35A1.17,1.17,0,0,1,53.36,8.84ZM54,10.51c-.06-.06.41-.57.53-.57s.37-.57.29-.65a1.13,1.13,0,0,0-.52.18,2.14,2.14,0,0,1-.63.23c-.2,0-.36.52-.26.85a.51.51,0,0,0,.4.27l.41.07c.06,0,.21-.09.34-.21.3-.28.12-.45-.26-.25C54.17,10.5,54,10.54,54,10.51Zm.37-4.65c-.22,0-.44,0-.48.12A1.57,1.57,0,0,0,54,6.7c.16.49.25.6.49.6s.31-.1.42-.47C55.12,6.19,54.94,5.86,54.38,5.86Zm.85,5.76c-.17.16-.27.33-.24.38s.28.12.41-.13C55.62,11.46,55.53,11.33,55.23,11.62Zm1.13-.08c0-.24-.4-.14-.45.11s0,.18.21.13A.3.3,0,0,0,56.36,11.54Zm-.14-5.37c-.49-.32-.78-.14-.87.56-.08.55-.05.64.19.83a1.51,1.51,0,0,0,.37.22,2,2,0,0,0,.4-.54C56.66,6.64,56.64,6.44,56.22,6.17Zm.86,5.16a.19.19,0,0,0-.18-.19c-.18,0-.23.15-.09.28S57.08,11.51,57.08,11.33ZM57.51,9c-.26.37-.23.47.13.43s.33-.11.36-.37C58,8.66,57.78,8.63,57.51,9Zm-.06-.93c-.1.11-.11.18,0,.18a.28.28,0,0,0,.21-.13C57.76,7.92,57.61,7.88,57.45,8.08Zm-.72-.55c-.44.86-.28,1,.39.27.35-.35.41-.48.3-.6S57,7,56.73,7.53ZM57.59,2c.06-.12.08-.26,0-.3s-.34.17-.38.39a1.75,1.75,0,0,1-.27.53,1.41,1.41,0,0,0-.26.54,1.56,1.56,0,0,1-.13.49c-.11.24-.11.35,0,.5s.18.17.36-.07a1.31,1.31,0,0,0,.21-.61A4.4,4.4,0,0,1,57.59,2Zm3.89.27a.93.93,0,0,0,.29-.55.51.51,0,0,1,.66-.45c.27.1.23-.16,0-.31s-.49-.15-.49.1-.15.29-.46.42c-.51.2-1.22,1-1.22,1.31,0,.13,0,.2-.1.16s0-.82.25-1.16a.72.72,0,0,0,.14-.65c-.08-.34-.09-.34-.28-.11a3,3,0,0,1-.52.44.69.69,0,0,0-.33.44.39.39,0,0,1-.6.37c-.53-.29-.87,0-1.15,1.11-.13.51-.13.6,0,.66s.57-.39.65-.92.36-.67.36-.26c0,.2.07.25.41.25s.67.24.67.89.18.58.29.13.35-.4.49-.18a.24.24,0,0,0,.17.12,2.65,2.65,0,0,0,.43-1.15A1.45,1.45,0,0,1,61.48,2.24ZM64,6.81c-.23.18-.26.53,0,.46a.45.45,0,0,0,.19-.34C64.2,6.68,64.18,6.67,64,6.81Zm.58-.68A1.91,1.91,0,0,1,65.88,5c.47-.06.48,0,.44.29s-.11.35-.22.36l-.39,0a.21.21,0,0,0-.21.18.54.54,0,0,1-.2.33c-.33.27-.56.94-.39,1.14A.86.86,0,0,1,65,8c0,.23,0,.42,0,.42a5.92,5.92,0,0,0,.79-.66C66.51,7,66.8,6.92,67,7.3s.29.3.6-.18.35-.62-.15-.79-.53-.54.09-.52.47-.22-.24-.43-.87-.32-.87-.67-.1-.31-.36-.4-.36-.2-.36-.37-.08-.25-.33-.25a1.36,1.36,0,0,1-.62-.19.46.46,0,0,0-.57-.06c-.43.19-.52.16-.52-.16A.35.35,0,0,1,64,2.9c.26-.08.26-.08,0-.27a1.23,1.23,0,0,1-.31-.41c-.13-.36-.92-.28-1.51.15-.43.31-.48.4-.42.7a.88.88,0,0,1-.13.65c-.24.38-.18.43.48.38s.67.08.41.56c-.1.18-.09.23,0,.23a.3.3,0,0,0,.25-.21c.07-.22.66-.93.7-.85s.09.16.18.31.12.32-.06.59-.2.31,0,.24.42.14.26.7a1.11,1.11,0,0,0,0,.55C64,6.42,64.52,6.35,64.59,6.13ZM66.8,7.78a2.32,2.32,0,0,0-1.06.72c0,.17.08.15.59-.17S67,7.78,66.8,7.78ZM62.47,12.1a3.34,3.34,0,0,0,1-1.3c0-.18-1.27-.12-1.75.09s-1.44,1.24-1.33,1.53a1.94,1.94,0,0,1-.31,1.19q-.12.12-.27-.09c-.13-.18-.19-.15-.6.34a9.59,9.59,0,0,1-1.86,1.61c-.17.1-.17.13,0,.24.33.22.81.12,1.42-.3.45-.31.62-.37.62-.24,0,.5.52-.19.62-.84a.38.38,0,0,1,.25-.28c.25,0,.29.33.08.72-.11.2-.1.23,0,.16.3-.17.7-.58.7-.71s.12-.19.27-.25a.87.87,0,0,0,.36-.48C61.89,12.78,62.27,12.11,62.47,12.1Zm-.16.73c-.19.16-.25.72-.07.72s.14-.12.18-.27C62.55,12.79,62.52,12.66,62.31,12.83ZM59.81,26a2.29,2.29,0,0,1-.08-.48c0-.12,0-.21-.12-.21s-.17.75,0,.88S59.88,26.28,59.81,26Zm.38,5.39c.19.42.38.36.38-.12,0-.25-.07-.43-.18-.47S60,31.05,60.19,31.41ZM59,32.53c.1.32.25.32.34,0h0a.24.24,0,0,0-.12-.31C58.93,32.13,58.85,32.24,59,32.53Zm-1.17,3.12L58,35l-.25-.41c-.32-.52-.44-.4-.47.45C57.28,36.5,57.37,36.61,57.78,35.65Zm-1.11-.82a.3.3,0,0,0,.25-.17,1.05,1.05,0,0,0,0-.44c0-.24-.06-.22-.24.17S56.51,34.83,56.67,34.83ZM55.5,35.9c.21-.08.38-.21.38-.29a1.17,1.17,0,0,1,.08-.35c0-.15,0-.19-.36-.19s-.43,0-.42.27a1.24,1.24,0,0,1-.08.48C55,36.07,55,36.07,55.5,35.9Zm0,.25a.12.12,0,0,0,0,.24.12.12,0,0,0,0-.24Zm-4.09-.72c0,.06,0,.12.06.12s.08-.06.13-.12,0-.12-.06-.12A.12.12,0,0,0,51.43,35.43Zm-2.19.06.43-.41c.24-.23.4-.46.37-.51-.13-.21-.29-.09-.54.41Zm-.37-1.11c.11.12.28,0,.28-.22A.18.18,0,0,0,49,34C48.79,34,48.72,34.24,48.87,34.38ZM47,36c0,.19.61-.12,1.21-.63.77-.66.78-.89,0-.52C47.66,35.15,47,35.79,47,36Zm-.82-2.15c-.05.25.07.27.51.1s.38-.39-.08-.34C46.34,33.67,46.19,33.76,46.17,33.89Zm-1,2c.14.23.5.06,1.19-.56.46-.42.64-.66.51-.66C46.41,34.7,45,35.71,45.14,35.93ZM44,33.22c0,.2.43.22.55,0a.21.21,0,0,0,0-.24A.34.34,0,0,0,44,33.22ZM42.35,34c-.19-.15-.53-.06-1,.28l-.32.26.28.15a1.3,1.3,0,0,0,1.31-.2c.47-.33,1.15-1.08,1-1.08a2.18,2.18,0,0,0-.64.37C42.63,34,42.46,34.07,42.35,34Zm-1.13-.34.3-.24H41c-.6,0-.62,0-.5.44S40.64,34.09,41.22,33.63Zm-1.81-.25a.42.42,0,0,0,.31-.12A2.82,2.82,0,0,1,41,32.54a1.84,1.84,0,0,1,.68.25c.42.24.86.24.71,0a.2.2,0,0,0-.24,0c-.09,0-.35-.07-.57-.24a1,1,0,0,0-.91-.23c-.28,0-.51.1-.51.14s-.17.18-.39.31C39.15,33.06,39,33.38,39.41,33.38Zm-1.3-1.26c-.44.09-.52.42-.11.42a1.19,1.19,0,0,1,.45.12c.18.11.6,0,.6-.22S38.47,32,38.11,32.12Zm-4.37-.32c-.79.4-1.18.65-1.18.77s.4.1.62-.1,1.28-.37,1.38-.12.2.24.69,0a4.2,4.2,0,0,1,2-.29.62.62,0,0,0,.57-.08c.82-.42.26-.57-1.51-.41a5.11,5.11,0,0,1-1.64,0C34.45,31.5,34.26,31.54,33.74,31.8Zm-2.5-.46c0,.07.08.12.18.12s.18-.05.18-.12-.08-.12-.18-.12S31.24,31.27,31.24,31.34Zm-3,.24c.23-.13.32-.36.14-.36a1.36,1.36,0,0,0-.39.24C27.68,31.71,27.85,31.79,28.24,31.58Zm-2.11,0c0,.07.09.12.12.12s.08-.05.12-.12,0-.12-.12-.12S26.09,31.52,26.13,31.58Zm-4.87,2.29c0,.23.45.11.73-.2a3.13,3.13,0,0,1,.65-.5c.53-.27,1.14-.78,1.07-.89s-.37-.1-.74.23a10.24,10.24,0,0,1-1,.79A2.41,2.41,0,0,0,21.26,33.87Zm.06.47c0,.07,0,.13.12.13s.18,0,.18-.06S21.39,34.23,21.32,34.34Zm-1.79.86c.1.17.26.13.34-.08s.07-.45-.17-.24S19.49,35.15,19.53,35.2Zm-2.06,1.24c.17,0,.3.15.3.25s.32.23.41,0a2.16,2.16,0,0,1,.66-.54,2.14,2.14,0,0,0,.66-.55c.11-.26-.09-.21-.46.13-.69.65-1.25.83-1.07.36.09-.22-.44-.25-.65,0S17.14,36.36,17.47,36.44Zm.67,1.15h0a.47.47,0,0,0,.23-.38c0-.26,0-.26-.29,0S17.67,37.84,18.14,37.59Zm-1.93.56c0,.1.13.16.33.16s.42-.13.72-.58c.44-.65.49-.86.19-.86A3.25,3.25,0,0,0,16.21,38.15ZM16,41.08c.08,0,.26-.28.38-.63a5,5,0,0,0,.25-1.27c0-.59,0-.64-.23-.6s-.44.65-.28,1.31a1,1,0,0,1-.09.81C15.89,41,15.88,41.08,16,41.08Zm-5.55-.48a.9.9,0,0,0,.28-.24c.12-.14.19-.24.16-.24a.86.86,0,0,0-.28.24C10.5,40.49,10.43,40.6,10.46,40.6Zm-.32.24c0,.06,0,.12,0,.12a.28.28,0,0,0,.19-.12c0-.07,0-.12-.05-.12A.25.25,0,0,0,10.14,40.84Zm-4.51,12c0-.06,0-.08-.12,0a.28.28,0,0,0-.12.19c0,.07.06.09.12,0A.25.25,0,0,0,5.63,52.84Zm2.74-2.55c0-.41-.27-.29-.31.16s0,.39.15.25A.5.5,0,0,0,8.37,50.29ZM9.8,48.93c-.11-.11-.55.47-.56.72s.46,0,.55-.35C9.83,49.14,9.84,49,9.8,48.93Zm2.19-2c0-.34-.08-.34-.43,0s-.36.56-.1.66a.38.38,0,0,1,.2.32C11.67,48.17,12,47.28,12,46.88Zm.22-1.54-.28-.14c-.25-.12-.31-.09-.52.25a4.93,4.93,0,0,1-.66.79c-.45.43-.58,1-.24,1a2,2,0,0,0,.69-.51,5.8,5.8,0,0,0,.76-.94Zm1.54-3.72a16.54,16.54,0,0,1,.82-1.56c.16-.22.17-.22.31,0a.38.38,0,0,0,.41.23c.22,0,.27-.12.3-.61l0-.59-.36.08a.81.81,0,0,1-.37,0,2.38,2.38,0,0,1,.3-.45c.32-.44.3-.68-.06-.49a1.13,1.13,0,0,1-.47.12c-.14,0-.25,0-.25.12a2,2,0,0,1-.39.52,1.46,1.46,0,0,1-.93.5,2.48,2.48,0,0,0-.83.32,1,1,0,0,1-.43.23,5,5,0,0,0-1.51,1.65c0,.22-.21.51-.37.51s-.19-.61,0-.9.13-.3,0-.3c-.35,0-.94.77-1.11,1.45A4.77,4.77,0,0,1,7.61,45a1.5,1.5,0,0,1-.47.3,3.22,3.22,0,0,1,.43-.82A4,4,0,0,0,8,43.4a2.11,2.11,0,0,1,.11-.57c.08-.2.08-.33,0-.37s-.47.17-.4.36-.36.63-.89.72a1,1,0,0,0-.68.37c-.21.32-.25.91-.07,1.08s.07.28,0,.58S6,46,5.63,46c-.54-.12-1.69.71-2.1,1.52a2.79,2.79,0,0,0-.29,1.72,2.7,2.7,0,0,1-.83,2.38c-.27.28-.31.45-.36,1.33,0,.67,0,1,.08,1.09s.4-.45.31-.69a1.55,1.55,0,0,1,.25-.75C3,52,3,52,2.92,52.38a4.76,4.76,0,0,0-.07,1,1.65,1.65,0,0,1-.34,1.12,2.64,2.64,0,0,0-.36.72c0,.19.42-.34.66-.85s.4-.49.58-.31,0,.17-.08.27a1.33,1.33,0,0,0-.23.46L3,55l.47-.27c.65-.36.83-.59.91-1.13a1.62,1.62,0,0,1,.36-.77c.16-.17.45-.5.66-.75s.44-.45.53-.45.36.52.31.87.21.24.47-.18.3-.82.1-1A.33.33,0,0,1,6.76,51c.06-.15.12-.17.32-.06s.26.08.42-.29a2.44,2.44,0,0,0,.18-.58,1.4,1.4,0,0,1,.16-.44L8,49.34l.19.27c.22.32.38.25.64-.27a3.86,3.86,0,0,1,.6-.75,1,1,0,0,0,.41-.92A1.23,1.23,0,0,0,9.7,47c-.1-.11-.1-.19,0-.33s.09-.35-.2-.25a3.14,3.14,0,0,0-.76,1.37A5.46,5.46,0,0,1,8.13,49l-.21.3v-.4A2.37,2.37,0,0,1,8.17,48a7.55,7.55,0,0,0,.43-1.11,2.87,2.87,0,0,1,.32-.77,8.19,8.19,0,0,0,.56-1c.41-.85.71-1.1,1-.83.08.08,0,.28-.18.58-.36.56-.49,1-.34,1.06s.32-.14.5-.68a1.29,1.29,0,0,1,.28-.54,1.67,1.67,0,0,0,.44-1.06.48.48,0,0,1,.13-.36,5.32,5.32,0,0,0,.58-1.06c.52-1.11,1-1.63,1.2-1.37s.06.25-.21.55a3.92,3.92,0,0,0-1,2.07,1.7,1.7,0,0,0,.06.55C12.11,44.22,13.14,42.84,13.75,41.62ZM12.61,44.2c-.07,0-.12.09-.12.19s0,.15.12.11a.27.27,0,0,0,.12-.18A.13.13,0,0,0,12.61,44.2Zm.84.73a.12.12,0,0,0-.12.12,2.55,2.55,0,0,1-.48.64c-.44.47-.46.54-.31.75a1,1,0,0,1,.18.52c0,.4.14.22.53-.69S13.66,44.93,13.45,44.93ZM13,44.45c.18.11.46-.06.32-.2a.32.32,0,0,0-.29,0C12.82,44.33,12.82,44.35,13,44.45Zm1.9-3.58c0-.28-.16-.13-.86,1.08a15.12,15.12,0,0,1-.94,1.48.24.24,0,0,0-.1.18c0,.26.25.07.76-.58A4.25,4.25,0,0,0,14.87,40.87Zm-.27,2.84a2.09,2.09,0,0,0,.26-.74c-.06-.19-.81,1-.81,1.25S14.25,44.38,14.6,43.71Zm.64,1.92c.08-.27.18-.58.21-.69s-.1,0-.31.22c-.35.41-.46.72-.29.89S15.1,46.12,15.24,45.63Zm0,1.58a.83.83,0,0,0,.12-.33.14.14,0,0,0-.12-.15c-.07,0-.12.15-.12.33S15.16,47.35,15.25,47.21Zm.58.69a5.11,5.11,0,0,0,.29-1.25,3.13,3.13,0,0,1,.25-1,2.61,2.61,0,0,0,.24-.7c.07-.42.07-.41-.18.12-.14.29-.29.65-.34.78s-.18.45-.3.72a3.42,3.42,0,0,0-.47,1.64C15.43,48.54,15.58,48.45,15.83,47.9Zm-.12,2.2c0-.09,0-.13-.11-.1a.36.36,0,0,0-.21.21c0,.09,0,.13.11.1A.39.39,0,0,0,15.71,50.1Zm.73,4c.06,0,.14-.12.18-.27a2.6,2.6,0,0,0,.07-.56c0-.29,0-.29-.17-.06S16.27,54.06,16.44,54.06Zm0-2.16c.06,0,.13-.12.17-.27.08-.3,0-.39-.15-.28S16.29,51.9,16.44,51.9ZM15.74,64a4.14,4.14,0,0,0,.58-1,4.53,4.53,0,0,1,.73-1.15c.13-.08.24-.2.24-.27,0-.26-.29-.08-.89.53C15.65,62.93,15.26,64,15.74,64Zm6.64,23.08c-.05,0-.21.15-.35.33s-.3.3-.42.19-.12-.22,0-.45.1-.34-.05-.49-.12-.42.26-.42a.76.76,0,0,0,.5-.24c.27-.31.33-.3.49.06s.62.42.62.12a.18.18,0,0,1,.19-.18c.15,0,.14-.08-.07-.45a2.29,2.29,0,0,1-.24-.6c0-.11-.09-.13-.3-.08s-.31,0-.37-.11-.23-.22-.43-.27c-.45-.1-.57-.39-.26-.65a1.71,1.71,0,0,0,.39-.46c.08-.15.22-.27.32-.27a.18.18,0,0,0,.17-.18A7.43,7.43,0,0,0,22,81.21c-.51-.85-.72-2.56-.8-6.65-.08-3.64-.06-3.75,1.18-6.66a5.49,5.49,0,0,0,.43-1.26c0-.25,0-.25-.27.06a2.41,2.41,0,0,1-.51.44,2,2,0,0,0-.52.93c-.42,1.23-.95,1.83-1.15,1.3a3.82,3.82,0,0,1,.85-1.79,2.62,2.62,0,0,0,.36-.76.92.92,0,0,1,.18-.45.42.42,0,0,0,.1-.3,1.48,1.48,0,0,1,.19-.59.51.51,0,0,1,.53-.36c.47,0,1.09-.75.87-1.06a4.83,4.83,0,0,1-.29-.47c-.07-.15-.21-.27-.29-.27s-.22-.45-.06-.87a4.61,4.61,0,0,0,.18-.87l.08-.61-.25.29a4.56,4.56,0,0,0-.36.49c-.09.17-.12.17-.3,0s-.18-.24-.05-.48.35-1.06.24-1.12-.24.1-.42.3c-.47.53-.8.15-.36-.42a1,1,0,0,0,.17-.35c0-.07-.2.15-.45.47a11.07,11.07,0,0,1-.72.87.87.87,0,0,0-.27.44c0,.22-.37.24-.57,0s-.19,0-.36.24-.26.39-.59.33-.39,0-.46.25a1.81,1.81,0,0,1-.43.66c-.36.36-.46.28-.23-.16.11-.21.1-.24-.08-.2s-.25.19-.29.41a3.16,3.16,0,0,1-.52.95,2.05,2.05,0,0,0-.52,1.88,13.2,13.2,0,0,0,.94,3.35c.13.36.29.82.34,1a15.67,15.67,0,0,1,.54,2.28,8.78,8.78,0,0,0,.19,1,16.51,16.51,0,0,1,.3,1.68,6.57,6.57,0,0,0,.3,1.43.47.47,0,0,1-.05.66,2.05,2.05,0,0,0-.25,1,3.86,3.86,0,0,1-.45,1.51c-.33.63-.34.67-.13.83a1,1,0,0,0,.38.17c.12,0,.14.14.07.62s0,.59.05.53.52-.78.44-.9,0-.49.18-.49.1.22.08.49a.77.77,0,0,0,.14.58c.22.13.23,1.2,0,2.27a2,2,0,0,0,0,1.14,4.84,4.84,0,0,1,.2,1.11,5,5,0,0,0,1.92,3.68c.32.19.67.3.67.2s.08-.49.18-1.06C22.48,87.82,22.51,87.12,22.38,87.12ZM18.94,60.64c.11-.11.16-.24.11-.29s-.14,0-.2.09C18.67,60.73,18.72,60.86,18.94,60.64Zm1.52-.24a6.45,6.45,0,0,0,.88-1.73c-.07-.07-.8.64-.8.77a1.18,1.18,0,0,1-.24.42,3.31,3.31,0,0,0-.36.62C19.77,60.94,20.09,60.89,20.46,60.4Zm2.24-2c.06,0,.15-.14.2-.31.1-.42-.13-.64-.31-.3S22.5,58.39,22.7,58.39ZM23.14,69c-.31-.06-.44,0-.4,0a1,1,0,0,0,.51.2c.24,0,.46.16.49.25a.4.4,0,0,0,.36.18c.23,0,.29-.06.29-.3s-.05-.31-.39-.29A4.33,4.33,0,0,1,23.14,69Zm.67-.38a.79.79,0,0,0,.82-.1c.13-.16.08-.18-.34-.18S23.53,68.53,23.81,68.65Zm-1.17,7.57a9.49,9.49,0,0,0-.46-1.44c-.18-.33-.19-.28-.19,1a16.65,16.65,0,0,0,.19,2.52q.51,3,.68.13A6,6,0,0,0,22.64,76.22Zm.08,7.46a.15.15,0,0,0,.15.19c.12,0,.19-.1.19-.25S22.78,83.37,22.72,83.68Zm.13-10.6c.21-.18.29-.5.14-.5a1.72,1.72,0,0,0-.89.67C22.1,73.47,22.52,73.37,22.85,73.08Zm-.27-1.23c.15-.09.13-.11-.08-.11a.43.43,0,0,0-.34.11C22.07,72,22.35,72,22.58,71.85Zm.18-.84c0-.06,0-.12-.05-.12a.13.13,0,0,0-.13.12c0,.07,0,.12.06.12S22.72,71.08,22.76,71Zm.51-.46c0,.14.13.21.24.17a1.53,1.53,0,0,1,.46-.07c.17,0,.3-.07.3-.16s-.51-.32-1.14-.32A.93.93,0,0,1,22.6,70c-.12-.12-.17-.11-.26,0s0,.19.38.22S23.23,70.36,23.27,70.55Zm-.36,18.07,0-.36-.16.36a4.06,4.06,0,0,0-.22,1.07c0,.57,0,.7.11.65s.2-.33.26-.71A5.4,5.4,0,0,0,22.91,88.62Zm.49,1.66c.05-.37-.12-.34-.3,0s-.11.31.06.27A.36.36,0,0,0,23.4,90.28Zm.7-2.75c.12-.23.11-.28-.12-.34-.59-.16-1-.08-1.08.2-.16.58-.09.8.25.84S23.85,88,24.1,87.53Zm.47,2.75c-.24-1.66-.58-2-.59-.67,0,.75.18,1.24.48,1.24S24.64,90.75,24.57,90.28Zm2.22-1.39a3.37,3.37,0,0,0-.3-.45.87.87,0,0,1-.23-.62c.07-.24,0-.27-.3-.11s-.14.17,0,.49a1.45,1.45,0,0,0,.4.55C26.59,88.91,26.79,89,26.79,88.89ZM27,87.08c0-.29,0-.34-.12-.2s-.15.76,0,.66S27,87.3,27,87.08Zm.57-2.85c.27.15.39.16.39,0s-.1-.17-.23-.24C27.46,83.84,27.31,84.05,27.6,84.23ZM24.93,74.8c-.17-.79-.37-1.82-.43-2.29-.16-1.13-.28-1.4-.63-1.35a1.78,1.78,0,0,0-.63.3l-.36.27h.51c.63,0,.76.19.36.53a1.46,1.46,0,0,0-.38.59,1,1,0,0,1-.5.59c-.56.33-.51.64.11.62s.54,0,.19.39-.22.53.08.53c.15,0,.25.4.18.76,0,.06.08.18.2.26s.18.19.06.33-.11.19.08.24.42.65.23.77,0,.15.14.24c.33.24.31.36-.08.57l-.33.18.39.14c.6.21.44.72-.23.72-.22,0-.35.07-.4.24-.11.34,0,.47.55.55a1.2,1.2,0,0,1,.55.2c.09.16-.22.34-.38.21s-.72-.19-.77-.06.21.2.51.3c.86.28.68.66-.24.52-.54-.09-.47.14.08.26a3.47,3.47,0,0,1,.72.26l.36.18-.24.31c-.28.35-.31.64-.09.86s.11.18-.06.31a.49.49,0,0,0-.21.34.33.33,0,0,1-.14.27c-.24.15-.05,1.21.31,1.74s.48.58.6.29.08-.39-.17-.47-.31-.45,0-.73.29-.19.44-.09a.42.42,0,0,1,.21.32.61.61,0,0,0,.15.34.51.51,0,0,1,.15.29c0,.09.12.17.27.19s.25.12.23.21,0,.13.19.06a1.66,1.66,0,0,1,.54-.08.5.5,0,0,0,.41-.12,1.67,1.67,0,0,0-.14-1.25.41.41,0,0,1-.18-.26c0-.07-.12-.15-.27-.17a.33.33,0,0,1-.31-.32c0-.23-.09-.26-.34-.2a.6.6,0,0,1-.47-.07c-.2-.16-.23-.78-.05-.89s.12-.26.12-.49.06-.44.21-.49c.31-.12.38-.28.31-.67a.61.61,0,0,1,.14-.57c.21-.23.2-.26-.29-1a4,4,0,0,1-.84-2.4C25.3,76.65,25.1,75.59,24.93,74.8Zm.4-7.54c0-.17,0-.22-.34-.22s-.84.19-.84.38.24.1.57.08S25.3,67.41,25.33,67.26Zm.33-.79a2.1,2.1,0,0,0-.47-.22,1,1,0,0,1-.52-.41l-.15-.28-.15.32c-.17.39-.12.46.47.57S25.76,66.58,25.66,66.47Zm-.4-.63s0-.1,0-.24-.36-.33-.36-.14A.59.59,0,0,0,25.26,65.84Zm3.57-2.28a.68.68,0,0,0-.09.94c.25.25.39.08.43-.5S29.19,63.37,28.83,63.56Zm.45,1.78c0-.1-.07-.07-.08.07s0,.2.07.16A.25.25,0,0,0,29.28,65.34Zm1.6-2.41c0-.12-.05-.21-.12-.21s-.12.17-.12.39,0,.35.12.21A.93.93,0,0,0,30.88,62.93ZM33,60.61c-.22-.29-.3-.19-.59.75a1.8,1.8,0,0,1-.43.79,1.47,1.47,0,0,0-.34.7c-.2.84-.16.92.23.47l.71-.85C33.16,61.74,33.32,61.07,33,60.61Zm1.75-1.23a3.92,3.92,0,0,0-.79-1.68c-.06,0-.21.16-.32.39-.22.46-.28.86-.08.51s.39-.27.6,0a.3.3,0,0,1,0,.42c-.18.28-.19,1,0,1a.12.12,0,0,0,.13-.12c0-.06.1-.12.23-.12S34.72,59.63,34.72,59.38Zm-.15-1.72a3.21,3.21,0,0,0,0-.65c0-.5,0-.67-.17-.67s-.73.7-.62.81A7.77,7.77,0,0,0,34.57,57.66Zm.58-1.79c0-.07,0-.13-.06-.13a.12.12,0,0,0-.12.13c0,.06,0,.12.05.12S35.1,55.93,35.15,55.87Zm.33-1.95c.23,0,.27-.12.3-.63a1.35,1.35,0,0,0-.09-.71.85.85,0,0,1-.12-.49c0-.34,0-.35-.21-.16s-.2.4-.18,1.08c0,.48,0,.89,0,.91S35.33,53.94,35.48,53.92Zm.16,1.78c0,.11,0,.17.07.14a.39.39,0,0,0,.19-.19C36,55.43,35.72,55.48,35.64,55.7Zm-.13.53c0-.07,0-.13-.06-.13a.12.12,0,0,0-.12.13c0,.06,0,.11.05.11S35.47,56.29,35.51,56.23Zm.66,4.35a2.31,2.31,0,0,0-.51-1.23c-.17,0-.1,1,.09,1.33S36.17,61.05,36.17,60.58Zm.3-2.92a5,5,0,0,1-.29-.56c-.07-.15-.18-.27-.25-.27s-.39.5-.31.92c.19,1,.57,1.27.86.57A.6.6,0,0,0,36.47,57.66Zm.78,4.8c0-.13,0-.2-.12-.16a.39.39,0,0,0-.12.31c0,.13.05.21.12.17A.41.41,0,0,0,37.25,62.46Zm.06-1.65c-.49-.29-.58-.21-.36.31s.21.45.55.27S37.79,61.09,37.31,60.81ZM37,59.23c.29.39.54.49.39.15a3.37,3.37,0,0,1-.14-.84c0-.41-.11-.63-.21-.63C36.69,57.91,36.67,58.74,37,59.23Zm.94,6c0-.13,0-.24-.12-.24s-.12.11-.12.24.05.24.12.24S38,65.37,38,65.24Zm.63-5.17c.47.29.6.11.19-.28a3.29,3.29,0,0,1-.48-.66c-.2-.37-.58-.53-.58-.23A2.08,2.08,0,0,0,38.6,60.07Zm.16,2.46a1.74,1.74,0,0,1-.07-.3.11.11,0,0,0-.12-.11c-.13,0-.16.39,0,.52S38.84,62.72,38.76,62.53Zm.29-1.13c0-.26-.58-.87-.74-.77s-.11.55.1.78S39.05,61.7,39.05,61.4Zm1.33,3.45c-.2,0-.23-.13-.17-.44s0-.37-.05-.37-.27.29-.27.69A3.52,3.52,0,0,0,40.21,66a1.48,1.48,0,0,0,.22-.35C40.68,65.13,40.66,64.92,40.38,64.85ZM40.66,63c.37-.15.05-.32-.43-.24a1,1,0,0,1-.65-.06c-.13-.11-.17-.09-.17.1a.49.49,0,0,0,.57.48c.15,0,.22.05.25.28s.09.31.27.26a.6.6,0,0,0,.31-.17c0-.07,0-.22-.14-.35S40.48,63.08,40.66,63Zm-.7-.67c0-.07,0-.22-.12-.33s-.21-.17-.31,0a1,1,0,0,0-.12.33C39.41,62.51,39.85,62.53,40,62.34Zm1.7,2.42a.29.29,0,0,0-.25.18c0,.1,0,.18,0,.18a.49.49,0,0,0,.25-.18C41.82,64.79,41.81,64.76,41.66,64.76Zm.74-1.64c0-.3-.1-.35-.49-.38s-.45,0-.45.16a.29.29,0,0,0,.23.26c.19.05.21.11.12.36-.23.59-.08.69.36.23A.78.78,0,0,0,42.4,63.12Zm.38,1.29c0-.14-.23-.3-.32-.21s.06.32.21.32A.11.11,0,0,0,42.78,64.41Zm.78,1.67c0-.06,0-.12-.12-.12s-.16.06-.12.12.1.12.12.12S43.52,66.15,43.56,66.08Zm0-2.31c-.24.06-.28.23-.16.56s.22.23.37-.16S43.94,63.68,43.61,63.77Zm1.31,2.31h-.33c-.35,0-.71.29-.51.41a.87.87,0,0,1,.18.43c.11.52.25.45.47-.24Zm-.62-1.64c.14.13.28,0,.28-.35s-.07-.29-.18-.29S44.14,64.28,44.3,64.44Zm1.54,2.39c.07-.19-.32-.19-.51,0a.58.58,0,0,0-.15.36c0,.22,0,.22.3,0A1.35,1.35,0,0,0,45.84,66.83ZM46,64c-.43.17-.51.27-.69.82-.24.77-.25.91,0,.61a.42.42,0,0,0,.11-.34c-.06-.1.44-.61.95-1S46.5,63.77,46,64Zm.4-1.57a1.2,1.2,0,0,1-.52-.51c-.08-.33-.09-.33-.46-.09s-.27.26-.22.69a3.67,3.67,0,0,0,.2.85c.12.29.18.33.49.27a1.92,1.92,0,0,0,.67-.3C46.94,63,46.89,62.7,46.35,62.42Zm2.08,3.87c0-.14-.21-.1-.4.09s-.2.14-.24.11-.34.42-.26.56S48.42,66.48,48.43,66.29ZM49.27,64a.44.44,0,0,1-.06-.35c0-.07,0-.12-.15-.12-.31,0-.84.71-.63.84s.07.18-.18.41a1.53,1.53,0,0,1-.43.31s-.12.08-.15.18c-.11.29.11.21.56-.18a1.59,1.59,0,0,1,.55-.36.83.83,0,0,0,.37-.24C49.35,64.32,49.37,64.23,49.27,64Zm1.45,2.29a1.93,1.93,0,0,0-.85.89c0,.24.12.25.44,0S50.9,66.32,50.72,66.32Zm.05-2.86A2,2,0,0,0,50,64.67c0,.15.45-.33,1-1C51.24,63.28,51.22,63.26,50.77,63.46Zm.12-.74a1.89,1.89,0,0,0,.36-.14c.25-.12.31-.23.31-.6,0-.61-.26-.61-.52,0C50.84,62.43,50.78,62.72,50.89,62.72Zm1,1.56c-.23,0-.35.23-.35.68,0,.23-.05.28-.22.23s-.56.11-.47.34.37.25.73,0a.41.41,0,0,0,.23-.47.42.42,0,0,1,.19-.46C52.29,64.43,52.24,64.28,51.91,64.28Zm.44-1.49a2.52,2.52,0,0,0,.6-.54.66.66,0,0,1,.59-.25.82.82,0,0,0,.7-.37c.3-.35.62-1.18.5-1.3s-1.13.29-1.52.67a3.84,3.84,0,0,1-.72.56.74.74,0,0,0-.35.56,2.43,2.43,0,0,1-.22.69C51.75,63.15,51.83,63.15,52.35,62.79Zm0,4.43c0-.1-.06-.18-.12-.18s-.12.12-.12.25.05.22.12.17A.31.31,0,0,0,52.4,67.22ZM52.76,66c0-.3-.22-.17-.35.21s-.13.38.11.16A.74.74,0,0,0,52.76,66Zm.49-2.54a4.36,4.36,0,0,0,.79-.92c.17-.33.17-.34,0-.26l-.53.19a3.43,3.43,0,0,0-.92.73l-.62.65.32.07.36.1A7,7,0,0,0,53.25,63.47Zm1.42.05c-.1.12-.47.46-.8.76-.81.71-.68.93.3.54A1.4,1.4,0,0,0,55,64c.18-.34.44-.8.58-1C56,62.27,55.49,62.59,54.67,63.52Zm.75-2.83a6.17,6.17,0,0,0-.23.69c0,.23,0,.27.21.24a.68.68,0,0,0,.4-.24c.09-.15.07-.25-.08-.41s-.17-.24-.1-.28a1.75,1.75,0,0,0,.31-.47c.17-.34.18-.4,0-.46s-.68.14-.68.31.07.13.15.15S55.55,60.36,55.42,60.69Zm.88,4.43c.05-.06,0-.12,0-.12a.28.28,0,0,0-.2.12c0,.07,0,.12,0,.12A.25.25,0,0,0,56.3,65.12Zm.05-1.76a3.77,3.77,0,0,0,1-1.45c0-.19-.9.64-1.22,1.13S55.84,63.72,56.35,63.36Zm.32.23a2,2,0,0,0,.43-.35,2.75,2.75,0,0,0,.34-.52c.14-.28.13-.27-.19.06l-.59.65-.24.28Zm.82.11c-.19.21-.27.33-.17.28s.15,0,.09.09a.31.31,0,0,0,0,.27c.1.1.63-.5.63-.72S57.84,63.33,57.49,63.7Zm0,1.71c-.14-.13-.35.26-.56,1-.13.49-.28,1-.32,1.11-.12.3,0,.25.24-.08A8.23,8.23,0,0,0,57.54,65.41Zm.59-.73c-.09-.08-.56.18-.56.33s.23.13.44-.08S58.17,64.72,58.13,64.68Zm.16-3.36a.18.18,0,0,0-.17-.17c-.1,0-.19.17-.22.44l0,.44.22-.27A1,1,0,0,0,58.29,61.32Zm.48.74a2.61,2.61,0,0,0,.48-.57c0-.21-.36-.08-.5.18a1,1,0,0,1-.3.36.38.38,0,0,0-.16.3C58.29,62.47,58.43,62.39,58.77,62.06Zm1-2c.37-.28.76-1.29.5-1.29a3.49,3.49,0,0,0-1.11,1.12C59.13,60.21,59.42,60.29,59.74,60Zm-.55,2.87c-.13.2-.15.3,0,.27a.56.56,0,0,0,.24-.32C59.51,62.51,59.44,62.53,59.19,62.91Zm.18,2.63c0-.1,0-.18-.12-.18s-.08.08,0,.18.09.18.11.18S59.37,65.64,59.37,65.54Zm0-1.15c0-.06-.08-.07-.18,0a.28.28,0,0,0-.18.25c0,.15,0,.15.18,0A.45.45,0,0,0,59.37,64.39ZM59.85,67c0-.35-.16-.69-.32-.69s-.2.11,0,.52S59.85,67.27,59.85,67Zm.2-4.77A6,6,0,0,0,59.5,64a.13.13,0,0,0,.11-.14.65.65,0,0,1,.17-.33C59.94,63.39,60.2,62.1,60.05,62.24Zm1.31-.93c-.06-.17-.1-.17-.31,0a.87.87,0,0,0-.24.55c0,.43,0,.43.37,0A.8.8,0,0,0,61.36,61.31Zm1.24,1.83c.53-.7.6-.9.32-.9-.1,0-.29.21-.42.47a2.07,2.07,0,0,1-.37.55c-.11.07-.17.54-.07.54A6,6,0,0,0,62.6,63.14Zm-.09,20-.31.36a1.23,1.23,0,0,0-.31.87c0,.58.19.68.37.19a4.42,4.42,0,0,0,.19-.87Zm4.24-7.53.24-1.3c0-.17.2-.88.37-1.59a8,8,0,0,0,.29-2.17,10.76,10.76,0,0,1,.12-1.71c.21-1.18.08-1.77-.44-1.92s-.48-.24-.25-.37a.17.17,0,0,1,.23.08c.08.12.11.07.11-.16,0-.43-.18-.52-.44-.22-.12.13-.25.24-.3.24s-.12-.45,0-.54a2.14,2.14,0,0,0,.32-.72c.16-.52.18-.7.06-.81s-.19-.11-.38,0c-.36.22-.42-.08-.17-.85a4.43,4.43,0,0,0,.2-1.21c0-.47,0-.57.16-.52s.22,0,.35-.57c.06-.27,0-.35-.17-.4s-.31-.2,0-.86.29-.76,0-.72-.31.18-.45.6c-.23.73-.31.8-.4.33s-.08-.38-.32-.17-.24.21-.24-.1,0-.31.27-.26.31,0,.46-.27a.85.85,0,0,0,.14-.48c-.06-.18-.39-.2-.39,0S66,59,65.92,59s-.24-.43-.06-.91,0-.52-.38,0c-.23.3-.42.42-.54.38s-.64.38-.64.71a4.29,4.29,0,0,1-.28.91l-.29.7.28.35c.18.22.38.34.52.32a.25.25,0,0,1,.29.18c.19.7.19.89,0,1.17s-.16.35-.12.42,0,.17-.17.25a3.8,3.8,0,0,0-.73.78c-.26.36-.56.66-.66.66-.28,0-.34-.32-.12-.62.37-.54.09-.65-.38-.15a.55.55,0,0,0-.16.71,1.7,1.7,0,0,0,.31.55,1,1,0,0,1,.18.7,2,2,0,0,0,.18.85,3.47,3.47,0,0,1,0,2,5.15,5.15,0,0,0,.3,2.69,6.48,6.48,0,0,1,.14,4.1c-.24.56-.24,1.15,0,1.15s.24.38,0,.57a.92.92,0,0,0,0,.67c.06.39.15.57.37.69.39.21.38.51,0,.87a9.41,9.41,0,0,0-1.46,2.47.16.16,0,0,0,.18.14c.1,0,.36-.39.62-.93.66-1.39,1.09-1.78,1-.9a2.57,2.57,0,0,1-.78,1.63,1.1,1.1,0,0,0-.39.57c0,.38.34.25.58-.22a.49.49,0,0,1,.33-.27c.14,0,.17.14.12.8s0,.84.1,1,.15.39.1,1a8.2,8.2,0,0,1-.1,1c-.1.3-.29,0-.29-.46s-.16-.72-.31-.47a2.34,2.34,0,0,0-.12.7,8.22,8.22,0,0,1-.17,1.09A4.23,4.23,0,0,0,63.52,89a7.73,7.73,0,0,0,2.48,2,2.51,2.51,0,0,0,1.24.33c.48,0,.48,0,.48-.51s-.16-2.25-.25-2.83c-.07-.38-.08-.4-.18-.15a6.77,6.77,0,0,0-.11,2.61c.12.15.12.22,0,.37s-.18.18-.23.18a7.55,7.55,0,0,1-.27-2.92q.15-1.47-.3-.87a1.21,1.21,0,0,0-.16.6c0,.52-.13.92-.28.87s-.33-.74-.19-1.44.12-.72-.06-.93c-.36-.39-.12-.5.54-.24.33.13.63.24.66.24s0-.18,0-.4c0-.38,0-.4-.31-.35s-.5-.09-.48-.67c0-.38,0-.45.31-.48a.36.36,0,0,1,.42.23c.18.38.35.34.48-.1.07-.25.19-.4.32-.4a.36.36,0,0,0,.29-.12,2.48,2.48,0,0,0-.48-1.77c-.33-.48-.45-.57-.79-.57-.52,0-.7-.28-.51-.81a2.23,2.23,0,0,0,.15-.66c0-.38.13-.63.32-.63s.17.12.14.47,0,.49.08.51.21-1.46,0-2.3A5.43,5.43,0,0,1,66.75,75.56ZM63.39,59.67c.08.21.09.21.26,0s.13-.28.05-.36S63.29,59.41,63.39,59.67Zm.78-1.19c0-.15.08-.29,0-.32s-.52.36-.52.49S64.07,58.73,64.17,58.48Zm-.59,4.39c0,.21.29.05.73-.39.26-.27.42-.48.35-.48A3.22,3.22,0,0,0,63.58,62.87Zm8.56-3.35a2,2,0,0,0-.31.5c-.07.18,0,.16.25-.1s.55-.33.39.11,0,.74.27.25.36-.75,0-.89S72.34,59.29,72.14,59.52ZM72.56,57s.1-.19.1-.42,0-.38-.09-.35S72.44,57,72.56,57ZM74,64.47a.31.31,0,0,0-.19.24c0,.24.09.21.24-.07S74.13,64.42,74,64.47Zm.1,3.24c-.12-.17-.2-.2-.3-.1a.33.33,0,0,0-.07.33c.08.19.39.26.49.1S74.18,67.84,74.08,67.71Zm.59-6.53c.08-.64-.1-.67-.73-.09-.34.31-.41.44-.3.55s.1.23,0,.52A12.79,12.79,0,0,0,73,64.07c-.11.63.17.32.56-.62a3.34,3.34,0,0,1,.55-1C74.33,62.34,74.59,61.78,74.67,61.18Zm-1.15,7.17c-.13-.21-.16-.2-.49.13s-.34.38-.2.55.19.16.49-.13S73.64,68.54,73.52,68.35ZM74,55.8a.18.18,0,0,0-.17-.18c-.2,0-.33.18-.22.29S74,56,74,55.8Zm.22-2.2c0-.27,0-.5-.08-.5s-.41.8-.31,1S74.22,54.09,74.25,53.6Zm-.5,1c-.17.05-.25.8-.09.8s.18-.1.25-.23S74,54.51,73.75,54.58Zm-.25,3.33c-.1,0-.18.05-.18.12a.12.12,0,0,0,.11.12.27.27,0,0,0,.18-.12C73.66,58,73.6,57.91,73.5,57.91ZM73,60.72c-.08.21-.23.56-.33.79A24,24,0,0,0,71.75,64c0,.05.12.08.27.06s.33-.2.52-.76c.14-.4.31-.87.39-1.06a2,2,0,0,0,.14-.43,2.68,2.68,0,0,1,.36-.63,1.73,1.73,0,0,0,.36-1v-.47l-.35.33A2.49,2.49,0,0,0,73,60.72Zm.15-6.45c-.08-.17-.27,0-.27.32s.18.5.25.11A.93.93,0,0,0,73.1,54.27Zm-1.06,3c-.12-.33-.26-.56-.32-.5a18,18,0,0,0-.13,2.9,4.48,4.48,0,0,0,.25-.45c.19-.35.21-.51.11-.73s-.09-.32.09-.45S72.25,57.9,72,57.31Zm-.83,5c.12.19.23.13.4-.22.09-.18.27-.59.41-.92l.23-.61-.32.3C71.56,61.25,71.1,62.18,71.21,62.36Zm.16-7.86c0-.26,0-.44-.1-.44s-.39.59-.31.81S71.33,55,71.37,54.5Zm-.5,5.67a2.41,2.41,0,0,0,.15-.61c0-.33-.21-.24-.47.18s-.22.4,0,.61S70.73,60.56,70.87,60.17Zm-.22,2.1c-.14.26,0,.53.17.35a.37.37,0,0,0,0-.35C70.78,62.07,70.77,62.07,70.65,62.27Zm-.92-1.15a2,2,0,0,0,.17-.75c0-.26.07-.65.11-.87s0-.43-.29-.71a1.27,1.27,0,0,1-.37-.48.3.3,0,0,0-.1-.21,4.89,4.89,0,0,0-.1,1.4c0,1.15,0,1.5.18,1.68S69.55,61.45,69.73,61.12Zm-.24.49c-.18-.18-.33.17-.2.48s.1.18.21-.07S69.59,61.71,69.49,61.61Zm-.14-5.14c-.16.23-.16.63,0,.54a.55.55,0,0,0,.11-.4C69.46,56.36,69.44,56.33,69.35,56.47Zm.11-.24a.13.13,0,0,0,.13-.13c0-.06,0-.11-.06-.11a.28.28,0,0,0-.12.11C69.37,56.17,69.39,56.23,69.46,56.23ZM70,61.6c0,.53,0,.56.18.34a1.07,1.07,0,0,0,.18-.57c0-.22-.06-.34-.18-.34S70,61.18,70,61.6ZM70.44,59s.13-.15.19-.33a3.48,3.48,0,0,0,.06-.91c0-.51-.06-.57-.3-.54s-.29,0-.14-.41a.19.19,0,0,0-.11-.29c-.27-.1-.32,0-.38.56A2.27,2.27,0,0,0,70,58.29,2.5,2.5,0,0,0,70.44,59Zm.47,2.16a.12.12,0,1,0,.24,0,.12.12,0,0,0-.24,0Zm-.43-5.79c-.3-.14-.33-.21-.3-.67s-.06-.34-.3,0-.19.33,0,.53.17.24.13.28.17.26.45.5c.58.5.83.43.52-.16A1.15,1.15,0,0,0,70.48,55.36Zm.07-1.75a1.08,1.08,0,0,0-.11-.49c-.22-.35-1.09.25-1.09.75a1.39,1.39,0,0,1-.39.64c-.37.38-.37.4-.15.57s.38.23.54-.25.26-.48.67-.67S70.55,53.87,70.55,53.61ZM68.39,64.49a4.16,4.16,0,0,0,.06,2.18,5,5,0,0,1,.16,1.51c0,.92.1,1.26.48,1.27a1.45,1.45,0,0,1,.5.18c.46.26.86.21,1.5-.2a6.93,6.93,0,0,0,2.28-2.63A3.64,3.64,0,0,0,72.74,65,10.59,10.59,0,0,0,70,64.28a5.61,5.61,0,0,1-.94-.23C68.63,63.88,68.54,63.94,68.39,64.49Zm4.27,5a.37.37,0,0,0-.28-.13c-.18,0-.18,0,0,.18S72.79,69.67,72.66,69.46Zm-1.12.4c-.09.09.35.44.51.39a.28.28,0,0,0,.15-.17C72.25,69.93,71.67,69.73,71.54,69.86ZM67.93,59.49c-.2,0-.31.06-.47.39s-.12.79.1.4.35-.25.35.1.2.35.4,0A.67.67,0,0,0,67.93,59.49Zm7.17,2.1c-.28.27-.35.42-.3.67a.46.46,0,0,1-.06.41c-.07,0-.1.23-.06.41a.56.56,0,0,1-.23.6c-.34.32-.43.74-.11.47a1.84,1.84,0,0,0,.37-.49c.19-.38.42-.44.65-.16a.24.24,0,0,1,0,.33,2.27,2.27,0,0,0-.13.81,5.35,5.35,0,0,1-.09.87c-.08.25.29.3.52.07s.19-.7,0-.7-.15,0,.09-.31c.41-.44,1-.81,1.25-.73a.32.32,0,0,1-.08.6c-.26.07-.26.07,0,.32s.22.25-.22.7-.46.62-.06.62.3.3.07.44a1.14,1.14,0,0,1-.45.14,1.45,1.45,0,0,0-.47.14.42.42,0,0,1-.38,0c-.2-.11-1.07.09-1.07.24a.8.8,0,0,0,.16.3c.16.22.17.22.5,0s.38-.22.44-.16-.08.68-.43.91c-.17.11-.31.27-.31.34a8.91,8.91,0,0,1-1.22,1.32c-1.19,1.16-1.67,1.43-1.67,1,0-.29-.34-.49-.82-.49s-.74.11-.74.3-.26.3-.61.3c-.13,0-.23.06-.23.12s.19.12.43.12.42,0,.39.21-.89.37-1.1.16-.34-.14-.3.2.06.33.67.29.63,0,.63.15-.25.23-.75.34l-.75.17.51.15c.68.19.6.42-.16.5-.56,0-.59.07-.56.38a.4.4,0,0,1-.2.45c-.31.17-.5.75-.5,1.58v.7l.45,0a1.81,1.81,0,0,0,1.56-.74,2.46,2.46,0,0,0,.49-.76,5,5,0,0,1,1-1.24c.69-.69.86-.93.74-1s-.16-.36.15-.32.93-.51.53-.65c-.08,0-.11-.13-.06-.26s.12-.19.23-.09a.63.63,0,0,0,.88-.1c.19-.21.2-.29.07-.5s-.13-.24.33-.16.79-.12.46-.36a.46.46,0,0,1-.2-.3c0-.14.28-.12.75.07a.66.66,0,0,0,.46-.18c.27-.23.27-.26.08-.38s-.29-.53,0-.43a1.57,1.57,0,0,0,1,.15c.18-.07.16-.12-.14-.37-.51-.41-.28-.6.37-.31s1,.12.49-.28-.25-.5.29-.27c.35.15.45.14,1-.09.66-.29.81-.55,1.21-2,.52-1.91.4-2.59-.6-3.24-.47-.3-.58-.33-.73-.19-.31.27-.68.33-.84.13s-.06-.42.3-.42c.16,0,.29,0,.29-.07a2.79,2.79,0,0,0-.92-.77.5.5,0,0,1-.28-.19c-.16-.19-.6-.24-.6-.06s.21.2.47.32c.52.23.53.31,0,.56l-.6.33c-.21.14-.3.14-.42,0s-.08-.21.21-.44l.36-.28-.46-.09A.72.72,0,0,0,75.1,61.59Zm.5-2.48c.06,0,.12,0,.12,0s-.06-.09-.12-.13-.12,0-.12,0A.12.12,0,0,0,75.6,59.11Zm-.12,1c-.07,0-.12,0-.12.12s0,.18.12.18a.12.12,0,0,0,.12-.11A.28.28,0,0,0,75.48,60.13Zm.26-5.78c-.06-.41-.13-.53-.32-.53s-.24.27,0,.62S75.79,54.67,75.74,54.35Zm-.67.83c-.23.08-.23.47,0,.89s.42.51.42.11S75.23,55.13,75.07,55.18Zm1.09-7.82a.89.89,0,0,0,.11-.48c-.11-.11-.43.22-.43.43a1.53,1.53,0,0,1-.37.62c-1,1.19-1.33,1.66-1.25,2s.32.3.7-.47c.28-.58.36-.66.6-.6a.78.78,0,0,0,.53-.11c.23-.17.24-.21.1-.56A.8.8,0,0,1,76.16,47.36Zm-1.4-1.47c0-.32,0-.31-.53.14s-.54.64-.28.74S74.76,46.18,74.76,45.89Zm.72,1.26A.28.28,0,0,0,75.6,47c0-.07-.06-.09-.12-.05a.25.25,0,0,0-.12.19C75.36,47.17,75.41,47.19,75.48,47.15Zm.72-1.74a1.34,1.34,0,0,0-.6.62c0,.17.15.11.44-.16S76.4,45.41,76.2,45.41Zm-.26-5.92a1.06,1.06,0,0,0,0,.81c.08.17.19.28.25.25a5.41,5.41,0,0,0,.44-.88c.41-1,.48-1.09.8-1.14.17,0,.29-.16.35-.4.17-.63,0-.69-.67-.34S76.26,38.37,75.94,39.49ZM77,37.21c.12,0,.31-.22.44-.44.36-.61.07-.74-.32-.15S76.73,37.26,77,37.21Zm-1,4.45c-.21.21-.23.26-.07.26a.52.52,0,0,0,.34-.18C76.57,41.44,76.34,41.37,76.05,41.66ZM75.6,44.8c0,.22.28.13.62-.2a1.05,1.05,0,0,0,.34-.46.93.93,0,0,1,.17-.36c.14-.2.19-.21.37-.06s.21.14.31,0a1.18,1.18,0,0,0-.09-1c-.28-.3-.5-.16-.58.36a2.1,2.1,0,0,1-.62,1.08A2.85,2.85,0,0,0,75.6,44.8Zm1.71,1.33c-.26,0-1.06,1.45-.9,1.61s.29,0,.63-.49S77.52,46.12,77.31,46.13Zm-.15-1.4c-.42.81-.45,1-.16.81a1.23,1.23,0,0,0,.36-.63C77.62,44.05,77.54,44,77.16,44.73Zm.9-4.6c-.14-.13-.53.4-.47.64s0,.34-.24.54a1.19,1.19,0,0,0-.31.39c0,.17.44.11.6-.07A4,4,0,0,0,78.06,40.13Zm.32-1.1a1.08,1.08,0,0,0-.16-.45c-.17-.2-.46-.18-.46,0a1.61,1.61,0,0,1-.24.57,2.18,2.18,0,0,0-.24.49c0,.15.2.1.36-.09a.82.82,0,0,1,.46-.21C78.37,39.34,78.42,39.28,78.38,39Zm.34-1.13a1.44,1.44,0,0,0-.08-.49c-.06-.18-.09-.17-.22.07a.54.54,0,0,0,0,.55C78.54,38.36,78.72,38.29,78.72,37.9Zm.58-6.77a1.59,1.59,0,0,0-.17-.69A1,1,0,0,1,79,30c0-.24,0-.24-.15,0-.23.4-.2,1,0,1.06a.32.32,0,0,1,.22.31c0,.14.06.25.12.25S79.31,31.38,79.3,31.13Zm-.63-2.78c.08.12.11.12.15,0a.23.23,0,0,0,0-.22h0C78.67,28,78.57,28.19,78.67,28.35Zm.53-7.53c0,.1.06.18.13.18s.12-.08.12-.18-.06-.18-.12-.18S79.2,20.72,79.2,20.82ZM79,23.14c.1.29.3.14.31-.24a4.73,4.73,0,0,0,0-.57c0-.19-.44-.61-.61-.61A3.8,3.8,0,0,0,79,23.14Zm-.34,2.44c.07.26.27.31.29.08a1.09,1.09,0,0,0-.09-.57C78.78,25,78.63,25.36,78.69,25.58Zm-.09,1.07c0,.07.08.12.18.12s.18-.05.18-.12-.08-.12-.18-.12S78.6,26.59,78.6,26.65Zm0,7.23-.41.84c-.37.77-.42,1.07-.17,1.07.05,0,.16-.14.23-.3.17-.37.42-.39.6,0s.13.2.08-.21a9,9,0,0,0-.2-.93Zm-.09-2.54a.12.12,0,0,0-.12.11,2.37,2.37,0,0,1-.42.61,6,6,0,0,0-.6.88A7.12,7.12,0,0,1,76.62,34c-.29.36-.77,1-1.05,1.34S75,36,74.85,36s-.38.15-.63.42c-.41.45-.79.61-.79.35,0-.07.15-.24.33-.39a24.07,24.07,0,0,0,2.42-2.22c.13-.18.61-1.07,1.07-2,.79-1.55,1.07-2.27.87-2.27A21,21,0,0,0,76,33.33c-.4.75-1.46,1.54-1.93,1.45a1,1,0,0,0-.66.17,1.45,1.45,0,0,1-.56.24c-.5,0-1.9,1-1.9,1.29,0,.09-.2.25-.45.35a2.66,2.66,0,0,0-.63.35l-.53.47L69,38l-.34-.24a1.26,1.26,0,0,0-.58-.24c-.28,0-.68-.52-.56-.72a3.24,3.24,0,0,0,.11-.93c0-.55.06-.81.18-.85s.15.15.12,1l0,1.07.46.11c.31.08.49.08.54,0a2,2,0,0,1,.52-.33,3.16,3.16,0,0,0,.69-.44.85.85,0,0,1,.44-.23A1.09,1.09,0,0,0,71,35.8a1.53,1.53,0,0,1,.67-.42,2.23,2.23,0,0,0,.64-.31.73.73,0,0,1,.52-.16c.16.05.4-.08.77-.43.6-.55.8-.62.69-.24s-.06.26.45,0a2.16,2.16,0,0,0,.71-.65c.2-.39.27-1,.11-1.15s.63-1.2.78-1.2.09.09.09.2,0,.15.3-.08.42-.84.2-.84a1,1,0,0,0-.36.3c-.3.35-.41.37-.62.12s0-.26.42-.69a2.85,2.85,0,0,0,.91-1.53c.3-.89.32-1,.11-.74a1,1,0,0,0-.24.45c0,.09,0,.17-.1.17a3.9,3.9,0,0,0-.76.66,3.42,3.42,0,0,1-.81.66c-.16,0-.18-.32,0-.42a.5.5,0,0,0,.12-.35,1.32,1.32,0,0,1,.41-.67,2.82,2.82,0,0,0,.56-.74c.11-.27.2-.33.38-.28s.22,0,.18-.08c-.14-.44-.74.07-1.92,1.63-.4.53-.42.6-.25.73s.18.18,0,.58a3.11,3.11,0,0,1-.89.89,3.24,3.24,0,0,0-.7.61c-.08.25,1.4.15,1.8-.12a1.19,1.19,0,0,1,.54-.22c.18,0,.16.06-.13.32a2.53,2.53,0,0,0-.5.69A3.24,3.24,0,0,1,73.2,34c-.34,0-.06-.36.49-.61s1-.62,1-.85-.66,0-.9.26a2.23,2.23,0,0,1-1.31.57c-.2,0-.11-.12.43-.39.82-.4.9-.49.57-.67a1.62,1.62,0,0,0-1.27.27c-.14.1-.53,0-.53-.12s.44-.51.74-.51.38-.07.45-.27a2.7,2.7,0,0,1,.84-.73c.41-.25.74-.53.74-.63s-.09-.22-.64.25a2.42,2.42,0,0,1-.59.42c-.27,0,0-.36.89-1.2s1-1,.84-1.12a.32.32,0,0,1-.07-.35A.56.56,0,0,0,74.9,28c0-.11.09-.26.24-.34a3.93,3.93,0,0,0,.6-.44.93.93,0,0,1,.4-.28c.12,0,.66-.45.66-.6s-.19-.14-.37.07a3.12,3.12,0,0,1-1.19.65,1,1,0,0,1-.42-.3l-.28-.31-.51.26c-.42.21-.55.23-.84.11s-.54-.42-.35-.54a.42.42,0,0,1,.34.06c.16.08.26.08.31,0a.69.69,0,0,1,.43-.12c.2,0,.36-.05.36-.12a.15.15,0,0,1,.16-.12c.55,0,1.24-.72,1.09-1.12s-.79-.17-1.25.25-.45.48.07.21.86-.17.46.23-1,.54-1,.15c0-.09-.1-.2-.24-.24s-.39.1-.83.56-.55.63-.39.66c.4.09.41.25,0,.36a1.73,1.73,0,0,1-1.17-.17c-.78-.29-1.34-.37-1.34-.19s.34.5.78.53l.48,0-.54.21c-.48.17-.51.21-.27.28.62.19,0,.46-.6.29l-.75-.18a2.17,2.17,0,0,1-.87-.61c-.31-.31-.52-.46-.52-.35s.06.18.12.18.63,1,.54,1.19-.13.13-.43-.21-.39-.38-.41-.35a1.27,1.27,0,0,0,.18.55c.24.49.31,1,.17,1.14s-.49-.13-.93-.51l-.34-.3.08.39c.07.34,0,.39-.18.39s-.19.22.32.43.49.47.07.47-.42.11-.16.35.21.26.11.5a.37.37,0,0,0,.06.51c.26.29.26.38,0,.38s-.35-.09-.79-1.3c-.2-.55-.41-1-.48-1s-.1.16-.08.31,0,.27-.21.27-.28-.14-.4-.5c-.22-.65-.45-.75-.45-.18s.21,1,.5,1.11a1.49,1.49,0,0,1,.52.65,2.28,2.28,0,0,0,.66.8c.34.2.36.26.37,1a2.83,2.83,0,0,0,.17,1.09c.19.32.24.72.09.71s-.22-.2-.37-.44A1.58,1.58,0,0,1,66,33.3c0-.64,0-.77-.16-.82a2.6,2.6,0,0,1-1-1.14c-.22-.44-.57-.6-.79-.36s-.11.16,0,.2.12.18.08.39a.46.46,0,0,0,.13.48c.19.16.27.73.1.73s-.75-.82-.76-1-.73-1.09-1.18-1.18-.41-.07-.34.2a1.78,1.78,0,0,1,.08.45,1.75,1.75,0,0,0,.51.63c.37.34.47.5.37.6s-.23.06-.47-.13c-.48-.38-.5-.1,0,.5.61.8.62.81.53.81a6.88,6.88,0,0,1-1.87-2.28c0-.16-.14-.3-.24-.3-.31,0-.16,1,.21,1.41s.27.33.12.33a.33.33,0,0,1-.27-.12.43.43,0,0,0-.31-.12c-.18,0-.23.09-.23.38s.12.48.51.84.52.55.53.88-.05.46-.58,0c-.82-.74-.94-.88-1-1.19-.14-.69-.16-.7-.41-.46s-.3.59.18,1.12a2,2,0,0,1,.42.61c0,.14-.05.14-.55-.07-.17-.07-.3.54-.21.93.14.55.52.81.52.35,0-.13.07-.24.16-.24a.72.72,0,0,1,.38.24.87.87,0,0,0,.57.24c.53,0,.34.29-.22.34a1.35,1.35,0,0,0-.65.2c-.16.14-.22.12-.46-.13a1.17,1.17,0,0,0-.38-.29,1.27,1.27,0,0,1-.3-.47c-.24-.55-.17-1.33.12-1.33s.22-.06,0-.37a.41.41,0,0,0-.69-.08c-.09.1-.07.36,0,.87.22.91.22.9,0,.9s-.5.45-.5.85.22.71.49.71.83.36.83.64,0,.22-.15.11-.45-.18-.45,0a.29.29,0,0,1-.18.24c-.1,0-.18,0-.18,0a2.73,2.73,0,0,0-.46-.64,5.17,5.17,0,0,1-.74-1.21c-.33-.81-.55-.9-.42-.17a4.7,4.7,0,0,1,.07.86,1.3,1.3,0,0,0,.17.64c.19.29.19.29-.15.25s-.34-.07-.41-.82S56.16,36,56,36a1.16,1.16,0,0,0-.3.32.88.88,0,0,0-.15.8c.14.93.14,1,0,1s-.59-1-.59-1.59-.33-.49-.55.23-.23,1,.06,1.16.31.5,0,.5-.24.06-.19.28a1.05,1.05,0,0,1-.1.61c-.26.49-.23.63.17.79a.76.76,0,0,1,.43.45c.1.41,0,.51-.28.2a1.69,1.69,0,0,0-.58-.39,1,1,0,0,1-.58-.65c-.19-.47-.19-.5,0-.66s.22-.13.26.09.2.32.32.12-.06-1-.23-1-.31-.27-.31-.84-.19-.71-.45-.25c-.12.2-.25.37-.3.37s-.12,0,.15-.64.48-.82.48-.52.67.42.77.3a6.61,6.61,0,0,0,.79-1.45c0-.26-.38-.33-.82-.14-.25.1-.38.24-.38.41a.4.4,0,0,1-.27.35,2.26,2.26,0,0,0-1,1.24c-.1.32-.21.45-.37.45s-.24-.07-.24-.15a4,4,0,0,1,.67-1.26A7.11,7.11,0,0,0,53.12,35c0-.16-.46,0-.51.16a3.09,3.09,0,0,1-1.7.87c-.45,0-.41-.34.1-.84s.54-.76.3-.9c-.06,0-.11,0-.11.09a2.28,2.28,0,0,1-1.07.81c-.06,0-.2.13-.31.3s-.5.4-.58.16-.33,0-.33.25-.12.25-.39.3a2.36,2.36,0,0,0-.84.46,1.13,1.13,0,0,0-.4,1.35c.09.31-.07.5-.92,1.13-.51.37-.7.58-.7.79s-.27.67-.48.67-.08-.16,0-.36c.09-.43,0-.46-.47-.12a1.17,1.17,0,0,1-.48.24.5.5,0,0,0-.4.65.55.55,0,0,1-.47.67c-.22,0-.34-.2-.18-.3a.69.69,0,0,0,.12-.45,2,2,0,0,1,1.88-1.72c.92-.12,1.3-.27,1.58-.65s.26-.36.06-.72-.35-.45-.73-.13a.61.61,0,0,0-.24.57c0,.25,0,.32-.15.29a1.5,1.5,0,0,0-.44,0c-.35,0-.46-.19-.25-.44a4.09,4.09,0,0,0,.33-.53,3.2,3.2,0,0,1,.74-.78,2.58,2.58,0,0,0,.58-.54s-.13-.1-.31-.13-.39,0-.65.31a1,1,0,0,0-.3.56c0,.11-.15.34-.46.57-.76.57-1.12.53-.44-.05.2-.16.36-.35.36-.42a1.21,1.21,0,0,1,.25-.44c.24-.3.24-.32,0-.39a1.2,1.2,0,0,0-1.05.49c-.2.21-.21.27-.07.36s-.18,1.08-.49,1.08-.2,0-.09-.36a1.13,1.13,0,0,1,.24-.43c.07,0,0-.13-.08-.21s-.14-.21.32-.73.46-.61.37-.64c-.28-.1-.15-.38.31-.63s.86-.72.57-.72a1.5,1.5,0,0,0-.6.42c-.39.39-.67.46-.67.18s.45-.59.85-.87.26-.2.07-.21a1.22,1.22,0,0,0-.56.27c-.18.15-.7.51-1.15.81-.91.61-1.49,1.16-1.49,1.43a1.86,1.86,0,0,1-1,1c-.31,0-.38-.19-.13-.43a2,2,0,0,0,.63-1.1c0-.24-.05-.26-.33-.2a4.14,4.14,0,0,0-.57.2c-.23.12-.23.13,0,.23l.28.11-.26.28a1.82,1.82,0,0,0-.38.68c-.19.67-1.16,1.18-1.53.81-.22-.22-.18-.3.18-.39s.75-.42.75-.79a2.3,2.3,0,0,1,.48-1c.54-.71.58-.82.27-.82s-1,.44-1,.6-.08.12-.19.12c-.39,0-.09-.41.61-.83s.93-.76.67-1c-.11-.1-.18-.08-.3.08s-.5.27-.6,0-.09-.18-.29,0a.91.91,0,0,1-.53.2.79.79,0,0,0-.49.18c-.49.49-.77-.06-.32-.63a1.26,1.26,0,0,0,.24-.41c0-.14-1.17-.13-1.44,0s-.54.06-.78-.31-.18-.29.14-.42.28-.16.17-.2a1.35,1.35,0,0,0-.66.19c-.76.37-1.05.43-1,.22.15-.38-.31-.36-1.21.06a7.17,7.17,0,0,1-2.49-.06,1.44,1.44,0,0,1,.69-.14c.73-.06,1-.16,2.08-.95.68-.49.73-.55.51-.66s-.49-.16-1.43.46-.95.59-1.59.59S30,32,30.46,31.8c.34-.15.36-.23.15-.44s-.49-.18-1,0-.42.19-.21.42.2.24-.09.24c-.84,0-1.64.42-1.71.9a.46.46,0,0,1-.59.39c-.26-.1-.25-.31,0-.41a.92.92,0,0,0,.51-.56c0-.11-.67-.05-1.35.11-.4.1-.45-.13-.06-.23s.26-.09,0-.21-.72,0-1.34.49a2.16,2.16,0,0,1-.74.48.29.29,0,0,0-.24.18c0,.14-.18.16-.52.11s-.48,0-.68.25a2.27,2.27,0,0,1-.77.81c-.27.09,0,.58.31.58s.37.13-.07.38l-.36.21.08-.32c.09-.38,0-.35-.95.25a5.4,5.4,0,0,0-1.77,2.07A3.22,3.22,0,0,1,18,38.67c-.06,0-.1.17-.1.36s-.06.37-.12.37-.26-.23-.12-.49.05-.46-.21-.2a1.35,1.35,0,0,0-.23.71,6.22,6.22,0,0,1-.11.87l-.1.36.38-.3a11.76,11.76,0,0,0,1.7-2.19c.19-.33.35-.45.52-.42s.32-.1.53-.51c.49-.91.76-1.11,1.59-1.16s1,.13.22.33a3.36,3.36,0,0,0-1.72,1,1.8,1.8,0,0,0-.21.79c0,.44-.07.53-.41.72s-.52.14-.15-.2.32-.54.11-.54a2,2,0,0,0-.83.9c0,.09.11.19.25.22s.24.13.18.39a2.49,2.49,0,0,1-.34.67c-.2.27-.23.38-.12.49a.55.55,0,0,1,.15.33c0,.22-.48.73-.68.73s-.2-.24.09-.46l.25-.21L18.27,41c-.25-.22-.26-.22-.49,0a3.64,3.64,0,0,0-.43,1.15c-.15.68-.25.89-.43.94-.36.09-.39-.17-.12-.88a2.74,2.74,0,0,0,.21-.69s-.2.09-.38.24-.34.39-.37,1,0,.74.14.74.22.08-.11.52a7.51,7.51,0,0,0-.92,2.1c0,.39.34-.12.5-.75a1.66,1.66,0,0,1,.82-1.21,1.69,1.69,0,0,0,.47-.83c.29-.81.53-1.14.67-.91a1.63,1.63,0,0,1-.17.79,4.27,4.27,0,0,0-.25.91,1.81,1.81,0,0,1-.17.63,9.94,9.94,0,0,0-.36,1.25,8,8,0,0,1-.3,1.09c-.78,1.54-.9,1.9-.73,2.18s.12.16.12,0A9.24,9.24,0,0,1,17.2,47,4.22,4.22,0,0,1,17,48.79a2,2,0,0,0-.11.7,1.92,1.92,0,0,1-.11.7,1,1,0,0,0,0,.54l.06.34.29-.27c.32-.3.49-.24.31.1s-.26,1.36-.12,1.36.09.13.05.3,0,.3.1.3c.4,0,.17.86-.38,1.42a1.78,1.78,0,0,0-.16.9,2.75,2.75,0,0,1-.8,2c-.22.24-.26.35-.15.42s.25,0,.41-.23c.49-.62.52-.35.17,1.27-.12.52-.12.72,0,.83s.3-.1.57-1.34L17.37,57c.05-.2,0-.26-.16-.24s-.21-.06-.18-.39c.07-.69.46-1.46.75-1.46s.24.05.18.21-.11.36-.15.54-.06.33.29.21.4-.25.56-.73a3.88,3.88,0,0,1,.43-.91,2,2,0,0,0,.31-.82,1.13,1.13,0,0,1,.49-.84c.43-.33.67-1,.85-2.23.07-.46.15-.66.28-.66s.26,1.71,0,1.91a2.84,2.84,0,0,0-.51.64,2.72,2.72,0,0,1-.43.57,3.45,3.45,0,0,0-.32,1,3,3,0,0,1-.43,1.15.75.75,0,0,0-.22.32,2.56,2.56,0,0,1-.47.65,5,5,0,0,0-1,2.53,4.81,4.81,0,0,1-.18.82c0,.12,0,.21,0,.21.36,0,1.13-1.23,1.13-1.79s.28-1.49.47-1.55.14.06.08.41a4.91,4.91,0,0,0-.08.77V58a2.3,2.3,0,0,1-.75,1.55c-.4.38-.78,1.17-.57,1.17a2.29,2.29,0,0,0,.85-.92c0-.08.16-.27.36-.42a2.78,2.78,0,0,0,.57-.7c.61-1.18,1-1.57,1.19-1.13.05.13-.07.34-.36.61-.45.42-.53.68-.33,1,.09.15.15.13.35-.12a1.63,1.63,0,0,0,.32-.59.55.55,0,0,1,.63-.48c.34,0,.36-.24,0-.33s-.3-.2.12-.95.45-1,.12-1c-.13,0-.24,0-.24-.12,0-.23-.22-.11-.29.17a1.4,1.4,0,0,1-.52.62,5.17,5.17,0,0,0-.71.65c-.28.33-.43.28-.48-.15,0-.18.08-.34.34-.5a3.19,3.19,0,0,0,.63-.58l.24-.34-.26-.5c-.31-.59-.33-.77-.12-1.24.32-.71.64-1.13.84-1.13s.27.16,0,.35a1.69,1.69,0,0,0-.26.79c-.08.7,0,1,.23.79a.51.51,0,0,1,.31-.13c.37,0,.87-1.07,1-2.22.1-.6.17-1.15.17-1.23s.05-.15.11-.15a2.71,2.71,0,0,1,.08,1.14,3.07,3.07,0,0,1-.31,1.59c-.75,1.27-.74,1.17-.39,1.93.17.37.16.43-.13,1.09-.4.88-.4,1.14,0,.71a1,1,0,0,1,.41-.33c.17,0,.29-.23.39-.78.3-1.62.53-2.41.73-2.45s.22,0,.22.31a.8.8,0,0,1-.13.47A7.87,7.87,0,0,0,23,56.59v.3l.27-.33c.3-.36.44-.41.65-.2s.09.24,0,.53a2.17,2.17,0,0,0-.07,1.43s.14-.11.21-.36a1,1,0,0,1,.29-.51c.12,0,.14,0,.07.23a2.86,2.86,0,0,0-.16,1.58c.1.28.09.38,0,.46-.31.2-.46.12-.46-.25s-.28-.51-.41-.17-.09.56.1.49.24.07.37.33.16.43,0,.86a5.81,5.81,0,0,0-.25,1.38c-.05.74,0,.93.13,1.07s.19.09.19-.56.19-1.09.55-.95c.13,0,.18.25.18.73a1.54,1.54,0,0,0,.08.67c.05,0,.2-.14.34-.32l.25-.31.22.34a2.19,2.19,0,0,1,.25,1.19c0,.88.23,1.5.44,1.29a12.66,12.66,0,0,0,.58-1.66c.46-1.51.51-1.9.18-1.46s-.31,0,.17-1.88c.3-1.13.3-1.16.08-1.16-.52,0-.21-.6.42-.83.39-.13.58,0,.36.28a2,2,0,0,0-.21.78c-.06.48,0,.61.1.61A2.63,2.63,0,0,0,28.71,59c0-.71.86-1.77,1.44-1.77.28,0,.31.14.12.5s-.05.38.4,0a1.24,1.24,0,0,0,.48-.85,1.8,1.8,0,0,1,.44-.91,1.91,1.91,0,0,0,.37-.54c0-.06.11-.12.24-.12.32,0,.3.2-.09,1l-.55,1.08a5.15,5.15,0,0,1-.49.73,8.81,8.81,0,0,0-.71,1c-.55.83-.7.95-.62.46.2-1.25.21-1.18-.19-1a.52.52,0,0,0-.24.47,1.84,1.84,0,0,1-.47.94,3.92,3.92,0,0,0-.49.7.74.74,0,0,1-.19.31A2.6,2.6,0,0,0,28,62.72l.1.54.19-.43a6,6,0,0,0,.27-.85c.19-1,.61-1.56.85-1.19q.18.3.39-.18c.16-.34.44-.39.6-.11s.37-.06.6-1.17c.18-.82.25-1,.44-1s.55.39.35.52a.81.81,0,0,0-.23.44,2.36,2.36,0,0,1-.16.48.8.8,0,0,0-.08.21c0,.05,0,.11-.05.12a2.24,2.24,0,0,0,0,.27c0,.13-.07.45-.12.7-.08.43-.07.46.19.42s.59-.71.81-1.93a13.56,13.56,0,0,1,.89-3.3.81.81,0,0,1,.52-.2c.48,0,.71-.53.67-1.5,0-.66,0-.75.18-.71s.21.16.19.82l0,.78.33-.65c.23-.47.28-.67.18-.71a.23.23,0,0,1-.15-.22,1.19,1.19,0,0,0-.2-.48,1.77,1.77,0,0,1,.23-1.7,4,4,0,0,0,.56-1.5c0-.3.3-.27.51.05s.18.25.38-.24a1.41,1.41,0,0,1,.27-.51c.11,0-.07.88-.2,1a1,1,0,0,0-.11.52c0,.24,0,.37-.12.33s-.4.54-.25.7.13.08.13,0,.07,0,.16,0a3.59,3.59,0,0,1-.12,2.15c-.15.25-.15.31,0,.57s.26.3.31.3a1.56,1.56,0,0,1,.09.73,2.57,2.57,0,0,0,.24,1.19c.37.73.48.71.48-.11a3.21,3.21,0,0,1,.12-1c.11-.2.08-.26-.15-.34-.49-.19-.76-1.86-.38-2.39.18-.27.53-.37.53-.16s-.09.17-.2.23-.18.19,0,.92a1.82,1.82,0,0,0,.43,1c.26.23.27.3.2,1.53l-.06,1.3.4.13c.52.18,1.85,1.84,1.64,2s-.07.18.1.31.22.18,0,.18-.21.06-.15.27.9,1.08,1.08,1,.08-.73-.19-1a.43.43,0,0,1-.19-.38,3.62,3.62,0,0,0-.74-1.94c-.53-.28-.89-1-1.28-2.41a3.66,3.66,0,0,1,0-1.54c.11-.78.1-1-.07-1.22s-.16-.56.13-.44.18.23.12,1.24c-.09,1.33,0,1.91.27,2a1.22,1.22,0,0,1,.4.32c.29.37.37.17.17-.43a3.82,3.82,0,0,1-.13-2c.17-.06.41.91.33,1.3a1.44,1.44,0,0,0,.14.73c.22.47,1,1.3,1.15,1.3s.1,0,.06.12-.51.12-.83-.24-.51-.46-.6,0,0,.66.35.82a.77.77,0,0,1,.38.35,2.26,2.26,0,0,0,.28.48c.18.23.22.24.28.08a2.52,2.52,0,0,0,.08-.67c0-.33,0-.46.15-.43s.15.29.15.7c0,.72.09.95.39.95s.16,0,.06.14-.22.08-.48-.08l-.33-.22L41,60a5.5,5.5,0,0,0,.45.6c.24.27.3.6.12.71s-.1.25-.1.49c0,.48.32.64.89.45s.57-.63.21-1.3-.36-.78-.11-.78.62.63.79,1.25a1.11,1.11,0,0,1-.08.94c-.2.44-.2.47,0,.7s.57.3,1-.07.48-.71.12-.9-.23-.15-.06-.34a.91.91,0,0,0,.19-.54c0-.4.44-.46.51,0s.27.39.73,0,.63-.46.53-.2.88,1.15,1.12,1.06a1.42,1.42,0,0,0,.39-.24c.12-.1.25-.14.3-.1s-.1.25-.33.44-.38.38-.26.46.15.29.13.63,0,.54.05.56,1.4-1.1,1.4-1.31-.19-.4-.3-.23-.54.17-.54,0a.45.45,0,0,1,.18-.25c.25-.22.22-.41-.09-.55s-.44-.54-.19-.54a2.19,2.19,0,0,1,.61.24,1.73,1.73,0,0,0,.6.24c.21,0,.69-.87.69-1.24s.12-.69.25-.61c.3.18-.08,1.49-.56,1.94s-.35.26,0,1,.46.77.46.38a.94.94,0,0,1,.3-.5,1,1,0,0,0,.3-.39s-.13-.09-.3-.09-.3-.06-.3-.13.13-.11.29-.11c.36,0,.6-.28.89-1.06.21-.55.22-.64.06-.73s-.08-.53.53-.88a5.47,5.47,0,0,0,1-.75c.48-.5.79-.57.66-.16a2.63,2.63,0,0,1-1.19,1.21c-.44.25-.47.3-.5.86s.14,1.27.27,1.27a4.23,4.23,0,0,0,.53-.32c.5-.33.57-.5.33-.74-.08-.08-.09-.15,0-.16l.48,0a6.1,6.1,0,0,0,2.2-.71c1-.48,1-.57,1.15-1.14a1.47,1.47,0,0,1,.28-.63c.11-.12.16-.25.13-.29s-.19.1-.33.3c-.44.63-1.92,1.32-2.3,1.09-.13-.08-.13-.14,0-.29a.51.51,0,0,1,.31-.19c.08,0,.27-.2.43-.45a4.92,4.92,0,0,1,1.76-1.35,3.48,3.48,0,0,0,.84-.71c.62-.62,1.09-1,1.29-1s0,.32-.58.9-.65.69-.56,1,.06.4-.11.56c-.34.3-.56.9-.37,1s-.12.29-.65.68c-.73.53-.78.6-.55.7s.24.39-.07.85c-.14.2-.13.26,0,.43s.13.25-.3.74-.44.59-.37.69.13.09.26-.09a.72.72,0,0,1,.4-.28.44.44,0,0,0,.3-.29,2.24,2.24,0,0,1,.28-.56,1.62,1.62,0,0,0,.25-.62c.07-.68.68-1.07.68-.43s.43.13.57-.56a.82.82,0,0,1,.39-.62c.22-.11.24-.15.09-.15s-.27-.39,0-.67.26-.23.18,0,0,.27.16.27.25.08.25.18.11.23.31.09a6,6,0,0,0,.66-.93,10.5,10.5,0,0,1,.74-1.08.86.86,0,0,0,.22-.36,1.54,1.54,0,0,1,.41-.53,3.19,3.19,0,0,0,.56-.78,4.11,4.11,0,0,1,.4-.74c.13-.2.34-.53.45-.75a2.53,2.53,0,0,1,1.46-1.23c.3,0,.33,0,.2.18a.49.49,0,0,1-.3.18,4.37,4.37,0,0,0-1.47,1.59.68.68,0,0,1-.17.4.33.33,0,0,0-.11.25,3.57,3.57,0,0,1-.73,1c-1,1.11-1.31,1.65-1.35,2.5a2.86,2.86,0,0,1-.71,1.81.52.52,0,0,0-.17.45.75.75,0,0,1-.11.55.56.56,0,0,0,0,.69l.17.33.19-.45a2.21,2.21,0,0,0,.19-.62c0-.09.16-.23.36-.3a.74.74,0,0,0,.43-.34,5.08,5.08,0,0,1,.32-.7,1.93,1.93,0,0,0,.23-.88,1.09,1.09,0,0,1,.11-.57c.11-.14.1-.17-.07-.17s-.19-.07-.12-.33a1.4,1.4,0,0,1,.25-.52A.6.6,0,0,0,62,57a3.15,3.15,0,0,1,.54-.68,1.79,1.79,0,0,0,.62-1.19,1.79,1.79,0,0,1,.4-1c.44-.48.71-.33.38.2a5.72,5.72,0,0,0-.43,1c-.22.67-.38.92-.7,1.11s-.86,1.48-.71,1.48a6.41,6.41,0,0,0,.76-.6,3,3,0,0,1,.88-.6c.33,0,.37.36,0,.57a5.16,5.16,0,0,0-1.37,1.54c-.16.37-.2,1.13-.07,1.13s.49-.73.49-1a5.35,5.35,0,0,1,1.73-1.81c.26-.17.37-.18.51-.07s.26.11.5,0a5.13,5.13,0,0,1,.57-.18c.18,0,.11-.11-.33-.3-.69-.31-.81-.7-.18-.56s1,.37,1.09.87a2.53,2.53,0,0,0,.44.93,2.49,2.49,0,0,1,.36.61c0,.11.66.41.9.41,0,0-.08-.3-.28-.66a6.08,6.08,0,0,1-.38-.72c0-.15.38-.05.44.12.14.36.3.17.22-.27a1.19,1.19,0,0,0-1.15-1.1c-.37,0-.49,0-.77-.35a1.21,1.21,0,0,0-.78-.46c-.45-.07-.47-.1-.55-.59a1.19,1.19,0,0,1,.14-.89c.27-.46.46-.49.22,0a2.07,2.07,0,0,0-.17.77c0,.47.14.58.72.58a.62.62,0,0,1,.43.13c0,.07.22.1.4.06a.47.47,0,0,1,.5.12c.18.22.83.58.91.5s-.06-.14-.19-.27a.64.64,0,0,1-.24-.35c0-.31-.46-.57-.83-.49s-.39,0-.49-.15,0-.44.18-.26.8.1.86-.1-.09-.15-.42-.15c-.52,0-.81-.23-.81-.64,0-.16-.12-.28-.42-.38a1,1,0,0,1-.62-.55A3.63,3.63,0,0,1,65,51.14c.12-.19.5.3.58.76a1.93,1.93,0,0,0,.23.66,6.67,6.67,0,0,0,2.16.87,1.22,1.22,0,0,0,1.23-.66c.07-.25.13-.28.43-.22s.37,0,.45-.21.44-.61.59-.52a1.58,1.58,0,0,1,.18.68c.09.78.15.88.46.71s.25-.09.3.12.15.25.24.25.17.5,0,1.78c-.06.37,0,.4.21.36s.28-.1.3-.68a5.94,5.94,0,0,1,.11-1,3.39,3.39,0,0,0,.11-.76c0-.41.33-1.06.52-1.06a.69.69,0,0,1,.26.12c.16.09.16.13,0,.27s-.18.24-.12.56l.09.4.23-.43c.16-.3.32-.44.5-.44s.28-.11.36-.39c.15-.51.53-.6.53-.13,0,.26,0,.3.12.16a1.56,1.56,0,0,0,.11-.62,1,1,0,0,1,.19-.59c.23-.19.34-.38.65-1.18.21-.52.22-.62.06-.62s-.22.12-.28.27a1.7,1.7,0,0,1-.36.51.47.47,0,0,0-.2.51c0,.17,0,.28-.07.28a.7.7,0,0,0-.36.19c-.14.12-.22.15-.22.07,0-.25-.23-.16-.56.22s-.91.49-1.07.24-.26-.13-.57.34a1.34,1.34,0,0,1-.56.53c-.33.09-.31,0,0-.58a1.71,1.71,0,0,0,.3-.69c0-.28.32-.69.54-.69a.69.69,0,0,0,.36-.23c.19-.21.2-.25,0-.31s-.67.13-1.17.66a1.41,1.41,0,0,1-1,.53,2,2,0,0,1-.64,0c-.13-.13.13-.29.6-.37.68-.11.91-.24,1-.56A1.29,1.29,0,0,1,73,49.54,1.24,1.24,0,0,0,74.16,49c.27-.51-.15-.62-.91-.23-.5.25-1,.23-1-.06s.55-.47,1.1-.61c.33-.08,1-.66.73-.66a.84.84,0,0,0-.38.26c-.27.29-.49.22-.24-.08s.12-.22,0-.33-.23-.1-.53.05c-.55.27-1,.27-1,0s.29-.35.81-.61a8.23,8.23,0,0,0,2.55-2.23c0-.07-.15,0-.34.2-.35.34-.56.4-.68.22s.07-.47.69-.9,1.12-1.11,1-1.39-.85.24-1,.55a3.81,3.81,0,0,1-1.26,1.48,1.52,1.52,0,0,0-.55.5,1.54,1.54,0,0,1-.36.47c-.42.39-.41,0,0-.48a1.24,1.24,0,0,0,.27-.42,1.33,1.33,0,0,0-.55.09c-.28.07-.55.1-.59,0s.43-.93.62-.93.17.06.17.12.76,0,1.19-.34a2.05,2.05,0,0,0,.57-.7c.21-.48.21-.52,0-.52s-.76-.57-.68-.64a4.13,4.13,0,0,1,1-.32c.12,0,.14.1.09.37s-.06.37.18.24a2.12,2.12,0,0,0,.56-.67L76,41l-.45-.42a2.49,2.49,0,0,0-.52-.42,1.5,1.5,0,0,0-.65.63A.37.37,0,0,1,74,41c-.21,0-.24-.05-.17-.33.12-.49.26-.73.53-.88a1.37,1.37,0,0,0,.43-.59c.14-.36.26-.48.51-.51s.32-.07.28-.53,0-.51.27-.57a4,4,0,0,0,1.48-2.4c0-.22-.08-.18-.33.26a5,5,0,0,1-.84,1.28,5.3,5.3,0,0,1-1,.69c-.6.3-.8.36-.91.25s.06-.49.71-.77c.28-.12.51-.28.51-.36a6.32,6.32,0,0,1,1.46-2.37.56.56,0,0,0,.22-.39.21.21,0,0,1,.23-.23c.27,0,.73-.54.73-.85a3,3,0,0,1,.24-.77C78.49,31.59,78.54,31.34,78.48,31.34ZM73.2,50.55c-.33.33-.37.42-.24.57s.51.16.62-.29C73.75,50.21,73.63,50.12,73.2,50.55ZM57.57,57c.08-.1.12-.21.08-.25s-.44.18-.44.33S57.4,57.21,57.57,57Zm3.72-26.73c0,.13.06.21.12.17a.3.3,0,0,0,.12-.25c0-.09-.05-.17-.12-.17S61.29,30.13,61.29,30.27Zm.12-.85a.12.12,0,0,0,.12-.12.12.12,0,0,0-.12-.12.12.12,0,0,0-.12.12A.13.13,0,0,0,61.41,29.42Zm1.39-.12c.09,0,.18-.06.18-.12s-.09-.12-.18-.12-.19.05-.19.12S62.7,29.3,62.8,29.3Zm.88,1.32a.32.32,0,0,0-.09-.27c-.1-.1-.13-.09-.13,0S63.62,30.8,63.68,30.62Zm1.56-2.29a.28.28,0,0,0-.09-.27c-.1-.1-.13-.08-.13.05S65.18,28.51,65.24,28.33Zm.48-.5c-.13.13-.11.2.12.39s.5.3.5.13a1,1,0,0,0-.23-.39C65.92,27.72,65.85,27.7,65.72,27.83Zm.46-.42c.15.16.31.08.23-.11a1.05,1.05,0,0,1-.07-.3.11.11,0,0,0-.12-.11C66.09,26.89,66.06,27.29,66.18,27.41Zm3-2.08c.11,0,.18-.11.18-.3,0-.36-.18-.39-.36-.07a1.76,1.76,0,0,1-.52.48c-.34.21-.4.3-.35.6a.46.46,0,0,0,.28.41c.15,0,.22.17.22.37a.52.52,0,0,0,.22.42c.32.19.41.16.33-.14l-.2-.71C68.81,25.88,68.92,25.33,69.17,25.33Zm.72.12s.06-.05.06-.12a.12.12,0,0,0-.13-.12c-.07,0-.09.05,0,.12S69.87,25.45,69.89,25.45Zm.17.43c-.11.06-.09.13.07.25s.42.21.42.06S70.2,25.79,70.06,25.88Zm.77-.28c.2.13.42.11.51,0s0-.19-.11-.25A.44.44,0,0,1,71,25a.21.21,0,0,0-.23-.23.32.32,0,0,1-.28-.24c-.08-.27-.33-.33-.33-.09A3.39,3.39,0,0,0,70.83,25.6Zm1,.33c.07,0,.18-.12.23-.27.14-.36.05-.43-.17-.14S71.71,25.93,71.87,25.93ZM73,22.64c.09-.11.09-.2,0-.25s-.17,0-.25.17C72.57,22.84,72.73,22.89,73,22.64ZM73.07,25c.12.15.21.13.61-.14a3.54,3.54,0,0,0,.48-.34,2.8,2.8,0,0,0-.47,0C73.14,24.49,72.83,24.74,73.07,25Zm.36-1.56a.3.3,0,0,0,.12-.25c0-.1,0-.17-.12-.17s-.11.11-.11.24S73.37,23.51,73.43,23.47Zm.3-1s.08-.05.13-.11,0-.13-.06-.13a.13.13,0,0,0-.13.13C73.67,22.39,73.7,22.44,73.73,22.44Zm1.29.67a4.14,4.14,0,0,0-.43.68c-.3.57-.18.68.19.17C75,23.63,75.22,22.92,75,23.11Zm.07-.85c.08.12.25-.24.26-.57,0-.11,0-.21-.1-.21S75,22.1,75.09,22.26ZM76,20.9c-.06.9.11,1.12.29.37.23-.91.27-1.59.09-1.59S76.08,19.94,76,20.9Zm.15-1.55a.51.51,0,0,0,0-.3c0-.08-.06,0-.06.15S76.12,19.43,76.16,19.35Zm.7-1.21a1.26,1.26,0,0,1,.42-.26c.16,0,.15-.08,0-.38s-.13-.25-.41,0-.3.22-.35.14-.31-.14-.31.15a3.41,3.41,0,0,0,.73,1.46,1.76,1.76,0,0,1,.11.79c0,.86.18,1,.22.12a2,2,0,0,0-.47-1.52C76.56,18.4,76.56,18.4,76.86,18.14ZM76,22.64c0,.11,0,.17.07.14a.32.32,0,0,0,.19-.19C76.36,22.37,76.12,22.42,76,22.64Zm-.12,2.88a1,1,0,0,0-.36.55c0,.3,0,.31.25.19s.26-.19.21-.37,0-.22.18-.17.31,0,.46-.25a1.81,1.81,0,0,1,.36-.42c.13-.08.13-.14,0-.27a.44.44,0,0,1-.07-.35c.15-.39-.4.06-.57.46A1.79,1.79,0,0,1,75.91,25.52Zm1.54,4.55a1,1,0,0,0-.17.33c0,.18.18.1.34-.15S77.67,29.77,77.45,30.07ZM78,24.68a1.47,1.47,0,0,0-.14.5c0,.3.25,0,.42-.48a2.76,2.76,0,0,0,.08-1.38c0-.56-.21-.49-.37.16-.1.42-.1.59,0,.72S78.12,24.45,78,24.68Zm.35,2.69a.28.28,0,0,0-.19.12c0,.07,0,.12.12.12s.18-.05.18-.12A.12.12,0,0,0,78.37,27.37Zm-.16-6.08c.13.13.27.08.27-.1a.28.28,0,0,0-.11-.24C78.25,20.87,78.1,21.18,78.21,21.29Zm-.57-1.6c0,.13,0,.13.29,0s.26-.58.12-.94-.24-.21-.19.22c0,.22,0,.44-.09.48A.31.31,0,0,0,77.64,19.69Zm-.24,1.43a.12.12,0,0,0,.24,0,.12.12,0,0,0-.24,0Zm4.65-7.25c-.35-.41-.87-1-1.15-1.42a3.08,3.08,0,0,0-2.63-1.28,3.53,3.53,0,0,0-3.39,1.45,4.73,4.73,0,0,1-1.73,1.61c-.53.27-.61.28-.77.12s-.14-.21.25-.45.51-.36.32-.71.18-.44.43-.24.2.06.34-.14.16-.46-.11-.46-.18-.15-.18-.54,0-.55-.22-.55a.66.66,0,0,1-.41-.2c-.13-.15-.41-.23-.89-.25a3,3,0,0,1-.78-.12,1.41,1.41,0,0,1-.12-.56c0-.36-.1-.47-.28-.5a.84.84,0,0,0-.91.45c-.33.46-.16.72.3.47s.6-.11.79.46.28.6.42.38.54-.17.54-.06a3.17,3.17,0,0,1-1.11,1c-.25,0-.25,0-.07-.36s.06-.51-.58-.61c-.46-.08-.52-.05-.88.35s-.47.46-1.65.45c-.57,0-.66,0-.9.35a.82.82,0,0,1-.5.36c-.19,0-.22-.06-.16-.36.1-.5-.13-.46-.35.06a1.45,1.45,0,0,1-.22.42l-.23.07c-.3.11-.32-.3,0-.74a2.84,2.84,0,0,0,.36-.81,1.8,1.8,0,0,1,.24-.57,1.52,1.52,0,0,0,.24-.57c.07-.32.14-.39.41-.39s.38-.08.55-.48.26-.48.31-.48.2.46,0,.85-.13.44-.06.51c.22.22.48,0,.52-.48s.08-.46.27-.46.26.1.28.35c.06.49-.07.91-.28.91a.17.17,0,0,0-.18.15,2.1,2.1,0,0,1-.07.43c0,.19,0,.27.12.27a.32.32,0,0,0,.27-.19q.07-.2.45-.15c.27,0,.38,0,.41-.18s0-.21-.14-.21c-.28,0-.23-.23.11-.55s.28-.31.15-.52-.13-.32.24-1.3c.1-.28-.33-.15-.53.15s-.47.39-.56.13,1.1-1.61,1.9-1.94c.56-.23.39-.41-.39-.41a1.1,1.1,0,0,0-.8.27c-.16.15-.46.39-.67.55S68,7.5,68,7.58s-.76.91-1.26,1.22a4.35,4.35,0,0,0-.54.38,3,3,0,0,1-1.11.76,2.32,2.32,0,0,1-.61-.18c-.5-.21-.79-.22-1,0s-.15.14.06.26a5.32,5.32,0,0,0,2.19.08c.32-.12.33-.07.09.3s-.26.27-.78.22-.61,0-.67.14a.3.3,0,0,1-.26.19c-.11,0-.15.07-.1.2a.74.74,0,0,1-.16.51,4.64,4.64,0,0,0-.44,1,6.85,6.85,0,0,1-.33.89A4.6,4.6,0,0,0,63,15.57c.14.39.14.39-.61,1.51a6.75,6.75,0,0,0-.94,2.4,3.88,3.88,0,0,1-.86,1.64,6.32,6.32,0,0,0-1,2c-.15.48-.14.52.18.9.47.56.67.66.85.41s.2-.19.4-.08.36.06,1-.35a4.07,4.07,0,0,1,.88-.48c.39,0,.57.61.31,1.09-.08.16-.25.23-.54.23a1.6,1.6,0,0,0-.72.19,1.5,1.5,0,0,1-1.28,0c-.15-.07-.21,0-.24.19a1.52,1.52,0,0,0,.46,1.39,1,1,0,0,0,1,.44A3.69,3.69,0,0,0,63,26.79a1.35,1.35,0,0,0,.87-.9c.46-1,1.11-1.34,1.41-.79a.92.92,0,0,1-.6,1.16,2.3,2.3,0,0,0-.68.45,1.9,1.9,0,0,1-.68.41c-.25.09-.46.24-.49.38a.33.33,0,0,1-.33.24.62.62,0,0,0-.43.2c-.15.21-.17.21-.53,0s-.6-.26-.6-.1.23.22.51.36a3.08,3.08,0,0,0,2.47-.13A5.2,5.2,0,0,0,66.36,25c.17-.68.37-.85.77-.64s.42.14.5-.47a1.32,1.32,0,0,1,.23-.63c.24-.2.76,0,.76.25s.2.42.29.18A2.88,2.88,0,0,0,69,23a2.76,2.76,0,0,1,.17-.94c.19-.47.62-.76.82-.56s0,.23-.21.49l-.34.36.29.3a1.44,1.44,0,0,0,.36.3s.11-.21.16-.48c.09-.59.64-1.25.94-1.13s.2.1,0,.22-.17.25-.08.8l.1.66.15-.37a4.31,4.31,0,0,0,.22-1.06c.06-.65.09-.69.34-.63s.28,0,.33-.17c.08-.33.36-.2.56.28l.16.38.05-.34a.7.7,0,0,0-.1-.51c-.21-.26,0-.47.35-.3a1.59,1.59,0,0,0,.3.13c.13,0,.33-.79.33-1.33a1.63,1.63,0,0,0-.49-1.21,4.31,4.31,0,0,1-.48-.73c0-.24.37-.05.86.44a3.12,3.12,0,0,0,.62.55c.17,0,.09-.37-.21-1s-.38-1-.19-1,.74,1,.81,1.43a1.64,1.64,0,0,0,.25.65c.16.19.16.29,0,1-.12.44-.26.93-.32,1.08s-.06.29,0,.34.17,0,.29-.57a.57.57,0,0,1,.23-.38c.15-.05.13.34,0,1.18a1.5,1.5,0,0,0,0,.3c0,.16,0,.16.12,0a5.5,5.5,0,0,0,.29-1.8,1.09,1.09,0,0,1,.14-.66c.13-.1.11-.31-.09-1.07s-.22-1,0-1.1a1,1,0,0,0,.27-.58c.06-.39,0-.44-.18-.44s-.31-.13-.44-.43c-.26-.63-.23-.75.21-.79s.38-.08.34-.28c-.09-.51-.07-.6.21-.64s.63.18.38.34-.16.13,0,.24.33.15.42-.12.85-.32,1.51.09a2.88,2.88,0,0,0,1.64.63h.44l-.38-.4a1.42,1.42,0,0,1-.38-.54c0-.25.47-.15.74.16a.94.94,0,0,0,.36.3c.06,0,.07-.13,0-.3s0-.3.11-.3a1.08,1.08,0,0,1,.49.3.92.92,0,0,0,.49.3c.1,0,.24.14.3.3s.2.3.3.3C82.79,14.75,82.74,14.67,82.05,13.87ZM70,7.41c-.14.08-.25.21-.25.3s.08.13.42,0,.42-.17.42-.22S70.21,7.28,70,7.41ZM66.8,10.69a.4.4,0,0,0-.32.24c0,.3.3.27.47,0S67.05,10.65,66.8,10.69Zm17.69,2.73c-.16-.3-.36-.3-.36,0s-.27.54-.4.42a1.11,1.11,0,0,1-.08-.48c0-.45-.17-.44-.5,0-.2.27-.2.3,0,.6s.43.36,1.06.24C84.64,14.12,84.72,13.86,84.49,13.42Zm.71-4.51c.26-.13.38-.27.38-.46a4.25,4.25,0,0,1,.07-.66c.07-.32,0-.37-.16-.37a.6.6,0,0,0-.4.18,1.09,1.09,0,0,1-.61.25c-.5.08-1,.4-.7.41a1.42,1.42,0,0,1,.59.42l.43.42A4.11,4.11,0,0,0,85.2,8.91Zm1.11,4.16h-.7s-.11.11-.13.24-.12.25-.21.25-.21,0-.1.29.34.22.75-.29Zm.74-1.21a2.28,2.28,0,0,0-.82-.18c-.65-.07-.7-.06-.49.11l.36.25c.09,0,.05.12-.09.24s-.22.19.15.26a1,1,0,0,1,.45.18c.11.18.17.12.36-.33C87.07,12.15,87.11,11.91,87.05,11.86Zm-.27-2.28a.91.91,0,0,0-.54.12c0,.07.09.12.33.12.54,0,.62.1.29.37s-.25.23-.07.43a.46.46,0,0,1,.14.37c-.12.34.45.15.63-.21C87.89,10.14,87.53,9.58,86.78,9.58Zm1.61-1.32a1.62,1.62,0,0,0-.5-.3c-.24-.07-.31,0-.51.44l-.23.52.27.15c.36.2.37.2.81-.22S88.62,8.48,88.39,8.26ZM89.57,10c.13-.12-.17-.77-.42-.9s-.84.3-.73.7c.06.23.15.27.58.27A1.42,1.42,0,0,0,89.57,10Zm.31.93a.38.38,0,0,0-.26-.36c-.36-.06-.44.13-.24.56s.23.36.36.25A.55.55,0,0,0,89.88,10.92ZM26.47,35.44c.15-.15,0-.31-.15-.2a.15.15,0,0,0-.06.21C26.31,35.53,26.38,35.53,26.47,35.44Zm-2.9-1.09c-.2,0-.63.33-.63.48A2.13,2.13,0,0,0,24,34.75C24.11,34.67,23.75,34.35,23.57,34.35Zm1.93,1.08c.67-.45.86-.67.76-.91s-.18-.1-.64.29a3.38,3.38,0,0,1-.84.55c-.3.09-.36.25-.12.35S25,35.8,25.5,35.43Zm2,20.48c.42-.46.68-1.2.49-1.39s-.31,0-.29.46-.22.75-1.15,1.18c-.35.16-.63.35-.63.42C26,56.9,27.05,56.43,27.53,55.91Zm43.3,14.6a2.23,2.23,0,0,1,0,.27c0,.07-.06.09-.13,0a.25.25,0,0,0-.25,0c-.08,0,0,.23.26.49.5.51.64.51.54,0a3.79,3.79,0,0,1-.08-.73C71.14,70.29,70.87,70.19,70.83,70.51Zm-34.95-36c0-.15,0-.31-.05-.35a2.77,2.77,0,0,0-1.11.72s.13.1.28.16c.37.15,1.17.15,1.17,0s-.08-.15-.18-.19S35.83,34.71,35.88,34.53ZM25.64,56.07c.24-.33.11-.38-.52-.21s-.58.23-.41.4S25.46,56.34,25.64,56.07ZM24.87,60c0,.36.06.43.15.17a.39.39,0,0,0,0-.33C24.9,59.7,24.87,59.74,24.87,60Zm.59-2.84a6.25,6.25,0,0,0-.59,2.3c0,.17,0,.16.22,0a1.42,1.42,0,0,0,.29-.83,4,4,0,0,1,.28-1.08C25.91,57,25.81,56.8,25.46,57.14ZM66.75,18.19a.27.27,0,0,0,.28.15c.27-.06.35-.53.11-.62S66.65,17.94,66.75,18.19ZM37.48,35.6c-.3-.09-.53.1-.44.35s.18.15.38.11C37.79,36,37.83,35.72,37.48,35.6Zm29-15.44c-.32,0-.1.36.45.72a3.87,3.87,0,0,1,.92.8c.31.41.59.48.59.15a1.23,1.23,0,0,0-.29-.53A5.28,5.28,0,0,0,66.48,20.16ZM24.74,60.62a.51.51,0,0,0,0,.34c.09.16.25-.19.18-.39S24.81,60.43,24.74,60.62ZM33,52.48a5.7,5.7,0,0,1-.23,1.15,3.09,3.09,0,0,0-.16.57c0,.13.13.13.33,0a4,4,0,0,0,.41-2.59C33.12,51.49,33,51.72,33,52.48Zm18.22-15.4A5.13,5.13,0,0,1,50,39c-.1,0-.29.46-.26.64a.9.9,0,0,1-.23.41,1.37,1.37,0,0,0-.24.71c0,.38-.25.77-.5.77a.43.43,0,0,0-.27.19c-.13.17-.19.16-.58-.07s-.74-.22-.65.25,0,.45-.3.38-.35-.32-.15-1.08.46-1.23.7-1.23.33.21.13.51-.12.49.23.31c.53-.28.75-.57.7-1s0-.4-.43-.22-.34.1-.57-.12l-.27-.25.58-.25c.44-.18.55-.28.44-.38-.42-.42.08-1.33.84-1.56.29-.09.52-.24.55-.36.08-.3.3-.27.63.07a.6.6,0,0,1,.19.62c0,.23,0,.3.08.26s.18-.22.21-.43C50.9,36.8,51.12,36.69,51.17,37.08Zm-2.5,3.8c0-.22-.13-.2-.48.08s-.27.26-.12.35S48.67,41.15,48.67,40.88Zm.38-3.17c-.09,0-.38.52-.38.67s.19,0,.34-.09S49.2,37.71,49.05,37.71Zm.4.6c-.12.14-.16.24-.09.24a.46.46,0,0,0,.27-.18C49.87,38.09,49.7,38,49.45,38.31Zm-13.88-4.5c0,.09.13.2.29.24a1.08,1.08,0,0,1,.44.25c.14.17.35.23.35.1a1.9,1.9,0,0,0-.2-.42C36.16,33.49,35.57,33.38,35.57,33.81ZM26.28,62.87c-.16.05-.27.72-.16,1s.31,0,.31-.52C26.43,63,26.39,62.83,26.28,62.87Zm6.2-11.64c.12.3.27.22.62-.31.23-.35.29-.53.19-.62a.67.67,0,0,1-.13-.39c0-.4-.13-.44-.44-.16s-.37.58-.16.58.15.41,0,.57A.35.35,0,0,0,32.48,51.23Zm-2.15,3c-.16-.18-.17-.27,0-.5a1.6,1.6,0,0,1,.37-.44c.23-.16.3-.5.11-.5a2,2,0,0,0-.54.5c-.45.52-.54.91-.29,1.16s0,.62-.52.93-.64.71-.51.91.28-.09.54-.36a2.39,2.39,0,0,1,.58-.5c.06,0,.19-.22.3-.49C30.51,54.43,30.51,54.37,30.33,54.18Zm3.4-1.29c0,.74.1.81.2.09s.31-1.32.44-1.32.11-.09.11-.19-.06-.17-.15-.15C34.08,51.4,33.79,52.16,33.73,52.89ZM42.06,58a.38.38,0,0,0,.66,0,.26.26,0,0,0-.13-.33,6,6,0,0,1-.67-.52c-.25-.22-.51-.37-.57-.33s-.06.92.16,1.45c.1.23.23.42.3.42s.16-.19,0-.48S41.86,57.73,42.06,58Zm.84,1.44c-1-.67-1.36-.51-.47.2.27.22.58.5.69.61.28.31.65.26,1-.12s.42-.57.09-.39S43.55,59.85,42.9,59.41Zm1.56-1.12c0,.16.54.11.79-.07s.2-.2.17-.24S44.46,58.17,44.46,58.29ZM67.78,19.76c-.1.1,0,.25.29.61a3.41,3.41,0,0,1,.55.81c.1.25.17.31.27.21s0-.67-.49-1.24C68,19.75,67.89,19.65,67.78,19.76ZM42.57,36.94a1.84,1.84,0,0,1,.81-.61c.41-.09.49-.3.11-.3a1.77,1.77,0,0,0-.75.4A6.23,6.23,0,0,1,42,37c-.22.12-.25.18-.13.32S42.08,37.53,42.57,36.94ZM46,59.25c0,.21.57.09.88-.19.49-.46.38-.54-.28-.22C46.3,59,46,59.19,46,59.25ZM37.1,50c-.06,1-.05,1,.1.71s.24-2.1.06-1.91A4.8,4.8,0,0,0,37.1,50Zm.32-1.8c0,.16.13.27.19.23s.15-1.14,0-1.14S37.33,47.87,37.42,48.24Zm3.94-10.05a1,1,0,0,0-.92.87c0,.22-.11.49-.14.61s0,.22.26.18.33-.1.36-.43a.8.8,0,0,1,.55-.81C41.83,38.5,41.75,38.19,41.36,38.19ZM72.08,18.93c-.22-.34-.49-.43-.63-.21s.13.36.38.66a2.28,2.28,0,0,0,.6.54c.24,0,.28-.35.07-.51A1.85,1.85,0,0,1,72.08,18.93ZM39.66,38.49c-.54.28-.83,1-.46,1.18a.38.38,0,0,0,.45-.39.57.57,0,0,1,.18-.36.6.6,0,0,0,.19-.38C40,38.32,40,38.32,39.66,38.49ZM38.27,36c-.19,0-.45.41-.33.52a.35.35,0,0,0,.51-.09C38.61,36.25,38.52,36,38.27,36Zm3.38,4.51c-.08-.42.17-1.14.4-1.14.06,0,.22.14.35.31.32.4.59.27.32-.15-.15-.23-.16-.34-.06-.47a.28.28,0,0,0,.06-.29c-.21-.35-1.3.18-1.49.73s-.17,1.27,0,1.35C41.64,41,41.73,41,41.65,40.54ZM60.81,13.68c0,.32.18.28.34-.08s.18-.53,0-.53S60.81,13.32,60.81,13.68ZM29.41,34.42c.3-.09.43-.08.5,0a.29.29,0,0,0,.32.07l.41-.13c.15,0,.14-.08,0-.18s-.19-.16-.07-.29a.43.43,0,0,1,.27-.18.67.67,0,0,0,.32-.12c.15-.1.16-.13,0-.23a1.23,1.23,0,0,0-1.09.19.71.71,0,0,1-.32.17.27.27,0,0,0-.2.18.47.47,0,0,1-.43.18c-.37,0-.53.28-.22.39A1.42,1.42,0,0,0,29.41,34.42Zm5,14.83a.47.47,0,0,1-.36.12c-.33,0-.37.12-.15.34s.3.18.57-.1.32-.48.13-.48A.31.31,0,0,0,34.42,49.25ZM29.2,53.92a1.34,1.34,0,0,0,.46-1.2c-.05-.34-.39-.38-.44,0-.09.63-.17.8-.45.92s-.39.45-.22.62S28.83,54.31,29.2,53.92ZM30.81,51a2.21,2.21,0,0,1-.37.68.47.47,0,0,0-.16.3c0,.18.21.22.44.07a3.88,3.88,0,0,0,.64-1.41C31.36,50.25,31,50.49,30.81,51Zm.67,2.64a.83.83,0,0,1-.24.61,1.6,1.6,0,0,0-.36.66,3.78,3.78,0,0,1-.42.89,3,3,0,0,0-.3.5c0,.12.22.05.36-.12a.48.48,0,0,1,.31-.18c.1,0,.24-.15.31-.34a5.32,5.32,0,0,1,.55-.84c.37-.46.4-.56.33-1a1.42,1.42,0,0,1,.06-.8c.22-.41,0-.46-.31-.08A1.16,1.16,0,0,0,31.48,53.63ZM34.2,34c.45-.17.22-.39-.3-.29a10.26,10.26,0,0,1-1.16.1c-.55,0-.72.06-.72.19s.14.19.5.19a1.32,1.32,0,0,1,.59.09.69.69,0,0,0,.72,0A.87.87,0,0,1,34.2,34ZM78.91,13.37c-.5-.28-.68-.16-.35.21a1.81,1.81,0,0,1,.32.48c.09.25.32.28.32,0a1,1,0,0,1,.07-.34C79.31,13.65,79.18,13.51,78.91,13.37Zm1.62-.9a1.38,1.38,0,0,1-.49-.32c-.18-.21-.59-.21-.59,0s.34.51.72.65.72.06.72-.09S80.73,12.55,80.53,12.47ZM28.83,56.53c.22.13.13.49-.15.64a1.85,1.85,0,0,0-.51.5,1.83,1.83,0,0,1-.73.56c-.61.26-1.3,1.16-1.13,1.48a1.84,1.84,0,0,1-.07.95,3.06,3.06,0,0,0-.11.85.37.37,0,0,1-.26.49c-.13,0-.16-.25-.13-1.38s.07-1.41.35-1.83a3.38,3.38,0,0,0,.38-.77,3.43,3.43,0,0,1,1.28-1.31c.07,0,.12.1.12.24,0,.31,0,.3.47-.13C28.55,56.62,28.77,56.48,28.83,56.53Zm-1.12.82c-.09-.09-.56.3-.56.46s.2.11.42-.14S27.76,57.39,27.71,57.35Zm39-35.87c-.32,0-.27.23.13.59a2.32,2.32,0,0,1,.42.43s-.16.07-.36.07c-.4,0-.62.31-.35.49s.77.11,1-.37l.27-.48-.5-.36A2.2,2.2,0,0,0,66.75,21.48ZM27.46,34.41c.22-.17.2-.18-.23-.18s-.45,0-.32.18S27.17,34.63,27.46,34.41Z"/><path class="cls-1" d="M79.66,66.37c-.18-.56-.11-.93.2-.93s.14-.22-.36-.36-.53-.16-.59-.65a2.77,2.77,0,0,0-.24-.84A12.16,12.16,0,0,1,78,61c0-.32.26-.41.58-.19A.94.94,0,0,0,79,61a.47.47,0,0,1,.33.17c.16.19.51.22.62,0s0-.25-.14-.41c-1-1.4-1-1.57-.26-2.26a1.8,1.8,0,0,0,.56-.72c0-.19-.08-.2-.92-.13a3.49,3.49,0,0,1-1.06,0,3.26,3.26,0,0,1-.78-1.3,1.43,1.43,0,0,0-.18-.5c-.17-.22-.38.23-.48,1s-.17.94-.48.78a.46.46,0,0,1-.24-.32,5.45,5.45,0,0,0-.75-1.22c-.41-.57-1.1-1.54-1.53-2.16s-1-1.45-1.29-1.82a4.89,4.89,0,0,1-1-2c.09-.09.32-.11,1.73-.19l2.4-.16a6,6,0,0,1,1.21,0c.06,0,.07.35,0,.71-.09.83.07.94.55.38s.57-.47,1.31.12a2.73,2.73,0,0,0,.57.39c.14,0,.1-.29-.1-.69-.35-.69-.37-.76-.37-1a1.38,1.38,0,0,1,.84-.89c.1,0,.16-.06.14-.14s-.23-.13-.61-.1-.59,0-.8-.3a1.18,1.18,0,0,1-.24-.61c0-.31-.27-.61-.39-.42a.25.25,0,0,0,0,.22,2.17,2.17,0,0,1-.14.75l-.19.65H75.76l.06.3.06.31-1.3.07-2.34.14c-.75.06-1,0-1,0a2.61,2.61,0,0,1,.67-.65c.78-.6.9-1,.34-1.08a1.89,1.89,0,0,0-.67,0,2,2,0,0,1-.6,0,3.64,3.64,0,0,1-1.24-1.58c-.07-.18-.21-.35-.31-.37s-.2,0-.2.43-.21,1.33-.34,1.33a1.37,1.37,0,0,1-.36-.22,1.63,1.63,0,0,0-.34-.22s-.61-.3-1.27-.66l-1.93-1-1.18-.65c-1.37-.78-2.31-1.3-3-1.64a7.7,7.7,0,0,1-.93-.57,3.81,3.81,0,0,0-.72-.42,14.51,14.51,0,0,1-2.66-1.51.81.81,0,0,0-.32-.22,3.57,3.57,0,0,1-.67-.37c-.53-.36-2.6-1.6-3-1.78-.09,0-.4-.23-.67-.41s-.88-.53-1.34-.77c-2.09-1.08-2.87-1.51-3.13-1.69a11.49,11.49,0,0,0-1-.56,12,12,0,0,1-2.71-1.71c-.15-.23-.15-.28,0-.51s.27-.45-.25-.48-.85-.37-1-1-.35-.57-.36-.09a3.92,3.92,0,0,1-.09.65c-.11.37-.38.34-2-.27-.7-.26-1.48-.53-1.73-.6-.82-.23-2.34-.71-2.38-.75s.37-.5.51-.5a.16.16,0,0,0,.14-.17c0-.13-.16-.16-.79-.15s-.83,0-1.06-.24a1.15,1.15,0,0,1-.3-.66c0-.32-.08-.4-.25-.4s-.23.08-.26.44c0,.76-.19.91-.95,1.07-1,.21-1.08.27-.63.54a1.66,1.66,0,0,0,.56.24.86.86,0,0,1,.44.28c.25.27.26.32.15,1-.16.89,0,1,.45.49a1.3,1.3,0,0,1,.59-.41,1.38,1.38,0,0,1,.85.52.59.59,0,0,0,.68.07c.05,0,0-.16-.15-.26s-.25-.34-.3-.82c-.07-.65-.07-.65.2-.58l.71.19c.82.21,2.35.68,2.54.78a1.09,1.09,0,0,0,.44.1c.32,0,1.33.56,1.33.74s.1.15.22.15.22,0,.22.1.13.15.28.22c.35.16.37.58.06,1.16-.14.26-.18.44-.11.48s.44-.14.44-.34c0-.39.72-.22,1.16.27s.44.29.36-.27c-.05-.33,0-.5,0-.5a15.23,15.23,0,0,1,2.58,1.34c.52.32,1.17.7,1.45.85s.69.38.91.52l1.34.79,1.55.91c3.17,1.87,7.15,4.19,7.2,4.19a7.43,7.43,0,0,1,.87.49c.44.27,1.69,1,2.76,1.6l3.13,1.79a20,20,0,0,1,3,1.84c0,.14-.54.23-1,.17s-.72,0-.72.14a2.75,2.75,0,0,0,1,.95c.13,0,.24.12.24.18,0,.24-.43.33-6.42,1.33-1.48.25-3.71.65-5,.89-6.39,1.22-5.87,1.13-8.08,1.45l-1.16.18c-.45.08-.46.07-.4-.23l.06-.31-.57.08c-.72.09-1-.15-1-.8,0-1-.55-.92-.7.08a2.08,2.08,0,0,1-.21.75.92.92,0,0,1-1,0c-.11-.1-.14-.09-.14.06a.3.3,0,0,1-.19.27,2.75,2.75,0,0,0-.48.27c-.45.31-2.32.48-7.53.66-3.36.12-3.78.09-3.44-.25.17-.17.18-.5,0-.6a.21.21,0,0,0-.24,0,1.27,1.27,0,0,1-.64.12c-.6,0-.82-.18-1-.78a.65.65,0,0,0-.29-.43c-.15,0-.19.06-.2.39,0,.82-.14,1.08-.49,1.19a2.37,2.37,0,0,1-.61.09.73.73,0,0,0-.49.23c-.22.24-.24.24-4.42.16-2.31,0-4.56-.09-5-.12s-1.72-.08-2.88-.12L13.33,54l-.16-.31c-.14-.26-.14-.34,0-.53a1.22,1.22,0,0,1,.5-.36c.18-.08.34-.22.34-.31s-.11-.16-.57-.1-.58.06-.89-.27a1.53,1.53,0,0,1-.33-.46c0-.06-.12-.1-.25-.08s-.27.14-.31.37c-.07.43-.44.61-1.19.62A4,4,0,0,1,8.61,52C7.1,51.24,7,51.15,7.25,50.76s.16-.35-.45-.46-.73-.24-.73-.75-.16-.87-.33-.87-.13.29-.18.64c-.12,1-.18,1.07-.9,1a1.54,1.54,0,0,0-.6,0,2.69,2.69,0,0,0,.45.52c.44.44.45.49.46,1.21s0,.75.19.72a.64.64,0,0,0,.33-.34c.18-.37.29-.38.89,0s.67.22.42-.27-.22-.79,0-.79a2.25,2.25,0,0,1,.58.24,29.15,29.15,0,0,0,3.26,1.55c.43,0,.59.33.59,1.24,0,.51,0,.88.11.88a1.82,1.82,0,0,0,.53-.45,1.9,1.9,0,0,1,.53-.44,2.08,2.08,0,0,1,.58.46c.31.3.53.44.65.39s.16-.1,0-.4a1.72,1.72,0,0,1-.17-.39,36.15,36.15,0,0,1,4.91.05c1.38.06,3.72.13,5.2.16,3,.06,4.36.16,4.22.29a40.07,40.07,0,0,1-3.72,1.93L21,58.34c-2.59,1.25-2.69,1.29-3.35,1.34-1,.07-1.28,0-1.51-.54a3.67,3.67,0,0,1-.25-.66c0-.13-.08-.16-.19-.09s-.17.33-.19.69c0,.72-.29,1-.94,1a.87.87,0,0,0-.51.12c-.1.17.38.66.82.85s.36.18.36.82,0,.67.22.67.3-.16.44-.39c.28-.48.52-.49,1.08,0a2.1,2.1,0,0,0,.51.33c.11,0,0-.69-.18-1.23-.13-.36-.12-.42.12-.7a1,1,0,0,1,.34-.3s.66-.26,1.37-.58c1.11-.5,1.91-.89,3.87-1.92.77-.41,2.06-1,2.68-1.25.37-.14,1.21-.52,1.87-.84a6.74,6.74,0,0,1,1.26-.53,2.4,2.4,0,0,1,.13.71l.07.65.36-.43.36-.42.64.2a1.47,1.47,0,0,1,.69.35c.08.19.37.19.37,0a3.59,3.59,0,0,0-.17-.63c-.1-.29-.13-.54-.07-.6a14.11,14.11,0,0,1,2.15-.21c2-.11,5.56-.34,8.74-.55,1.94-.13,2-.1,1.93.71a7.7,7.7,0,0,1-.14.83c-.1.4.33.32.81-.14a1.81,1.81,0,0,1,.51-.39,2.5,2.5,0,0,1,.64.5q1.24,1.16.51-.33c-.28-.57-.34-1-.18-1.26a9.18,9.18,0,0,1,3.15-.81c.83-.13,2-.33,2.57-.45,1.22-.24,2.43-.46,4.24-.78.71-.12,1.79-.32,2.4-.44s1.8-.32,2.63-.45,1.86-.31,2.29-.39,1.53-.26,2.46-.39l1.9-.28c.44-.1.51.06.39.9-.06.42-.14.88-.18,1s0,.25.16.25.24,0,.24-.11.07-.11.15-.11a1.12,1.12,0,0,0,.47-.34,3.1,3.1,0,0,1,.64-.51c.3-.16.35-.15.84.16a4.17,4.17,0,0,0,.8.4c.3.07.75.64,3,3.87.67,1,1.3,1.81,1.39,1.9.25.29.19.33-.49.33s-1.18.22-1,.45a3.57,3.57,0,0,0,.71.43c.9.45,1,.68.89,1.69a8.34,8.34,0,0,1-.18,1,.18.18,0,0,0,.11.26q.18.06.81-.51a2.27,2.27,0,0,1,.74-.54A7.21,7.21,0,0,1,78,63.87a.7.7,0,0,0-.06.43.51.51,0,0,1-.58.67c-.49,0-.7.16-.44.37.52.42.73.67.66.77a1.3,1.3,0,0,0,0,.56c.08.5.35.6.58.22s.6-.28,1.22.15h0a1.91,1.91,0,0,0,.63.33c.14-.08.09-.34-.07-.4A1.31,1.31,0,0,1,79.66,66.37Zm-2-16.69c.12-.1.13-.18.05-.27s-.06-.18.06-.28a.64.64,0,0,0,.17-.42c0-.24,0-.26.17-.14.34.29.42.56.22.78a.45.45,0,0,0-.12.43c.06.18,0,.21-.16.16a.49.49,0,0,0-.39.08c-.14.11-.17.11-.17,0A.51.51,0,0,1,77.63,49.68ZM34.5,30.59l-.27.25-.12-.34c-.09-.26-.17-.33-.34-.28s-.21,0-.21-.07.11-.13.25-.13a2.42,2.42,0,0,0,.47-.06.31.31,0,0,1,.36.16C34.75,30.3,34.73,30.37,34.5,30.59Zm8,2.32c-.07,0-.12,0-.12-.15s0-.17.12-.15a.18.18,0,0,1,.12.15A.17.17,0,0,1,42.5,32.91ZM5.42,51.34c-.22-.23-.14-.4.22-.48s.55,0,.42.36A.38.38,0,0,1,5.42,51.34Zm6.46,2.93h0c-.15.28-.33.28-.33,0a.45.45,0,0,1,.22-.34C12,53.79,12.07,53.92,11.88,54.27Zm.38-.74c-.28.11-.3.08-.22-.29s.12-.47.28-.38A.47.47,0,0,1,12.26,53.53Zm4,7.31c-.3.28-.36.29-.44.09a.68.68,0,0,0-.43-.23l-.37-.07.33-.17a1.43,1.43,0,0,0,.47-.35c.12-.15.16-.15.41,0S16.64,60.53,16.31,60.84Zm14.09-6.2c-.19.3-.31.38-.49.33a.33.33,0,0,0-.32.07c-.11.18-.25.14-.31-.08a3.71,3.71,0,0,0-.14-.39c-.06-.14,0-.22.24-.32s1.27-.2,1.27-.08A1.79,1.79,0,0,1,30.4,54.64Zm14.85-.19-.32.08c-.28.07-.29,0-.27-.35,0-.6.22-.9.48-.74s.19.23.16.56A3.78,3.78,0,0,1,45.25,54.45ZM70.6,50.68a.71.71,0,0,1-.29-.5c0-.28-.15-.36-.28-.16a.47.47,0,0,1-.34.11c-.19,0-.27.06-.27.2a.48.48,0,0,1-.43.47c-.12,0-.15-.12-.11-.54a.92.92,0,0,0-.32-1c-.42-.47-.4-.62.09-.62a1,1,0,0,0,.88-.76.5.5,0,0,1,.07-.28c.1-.1.71.48.71.67s.1.19.7.15c.23,0,.42,0,.42.08A1.63,1.63,0,0,1,71,49a1,1,0,0,0-.17,1.4,1.85,1.85,0,0,1,.22.45C71.09,51,70.91,50.92,70.6,50.68ZM77,60.21a1.94,1.94,0,0,1-.49.31c-.07,0-.05-.33.08-1.15,0-.16-.12-.26-.63-.46-.71-.26-.93-.5-.49-.52.14,0,.42,0,.62-.06s.38,0,.42.07c.22.35.61-.21.61-.86,0-.42.26-.25.47.31l.18.49.57,0c.71-.05.75.12.12.59-.46.34-.56.58-.27.69a.25.25,0,0,1,.16.22c0,.11-.07.12-.25.06S77.49,59.84,77,60.21Zm1.13,6.29c-.06,0-.11,0-.11-.1a.32.32,0,0,1,.11-.24c.06,0,.11,0,.11.1A.32.32,0,0,1,78.13,66.5Zm.52-.69c-.13-.14-.08-.37.09-.37s.17,0,.17.08S78.73,65.89,78.65,65.81Z"/></g></g></svg>