<svg xmlns="http://www.w3.org/2000/svg" viewBox="0 0 54.3 53.79"><title>Asset 496</title><g id="Layer_2" data-name="Layer 2"><g id="Layer_1-2" data-name="Layer 1"><path d="M54.25,25a28.58,28.58,0,0,0-2.54-10.42A23.65,23.65,0,0,0,45.88,7,27.48,27.48,0,0,0,34,.83a27.3,27.3,0,0,0-15,.46,29.28,29.28,0,0,0-13,8.92,22,22,0,0,0-4.64,8.88,2.86,2.86,0,0,1-.07.28,26.85,26.85,0,0,0-1,12.36A19.7,19.7,0,0,0,2.48,38.4,43.2,43.2,0,0,0,8.1,45.78c1.23,1.35,2.86,2.1,4.31,3.13A31.86,31.86,0,0,0,18.57,52c2.59,1.09,5.38,1.18,8.11,1.61a12.53,12.53,0,0,0,5.71-.24,8.68,8.68,0,0,1,1.26-.17,18.24,18.24,0,0,0,6.65-2.53c2.21-1.39,5.88-5.11,6.39-5.5a7.14,7.14,0,0,0,1.1-1.28,34.3,34.3,0,0,0,3.48-4.92,31.25,31.25,0,0,0,2.18-6.5A23.6,23.6,0,0,0,54.25,25Zm-.92,2.81c-.17,1.77-.53,3.53-.84,5.29-.09.55-2.91,3-4,3.42-2.49,1.08-5,2.2-7.52,3.16a36.34,36.34,0,0,1-9.64,1.92c-3.46.3-6.93.48-10.4.59a23.43,23.43,0,0,1-8.86-1.29.81.81,0,0,0-.41,0c-.08,0-.15.1-.24.16-.07.6.39.63.79.74A30.88,30.88,0,0,0,19.76,43c2.76.06,5.52.53,8.29.12,1.52-.23,3.05-.49,4.56-.82,2.84-.6,5.69-1.19,8.49-1.93a38.7,38.7,0,0,0,4.75-1.76c1.77-.71,3.51-1.5,5.38-2.31a8.22,8.22,0,0,1-1.73,3.86,30.6,30.6,0,0,1-6.61,7.25c-1.84,1.43-4,2.26-6,3.45a11,11,0,0,1-4.86,1.62c-.45,0-.86.43-1.3.46a13.35,13.35,0,0,1-3.22,0,76.81,76.81,0,0,1-7.82-1.59,46.38,46.38,0,0,1-5.31-2.14l.05-.34a6,6,0,0,1,1.12,0A68,68,0,0,0,26,49.61a48.24,48.24,0,0,0,12.35-1.84c.44-.13.93-.23.87-1-1.39.31-2.75.55-4.08.92a39.14,39.14,0,0,1-10.06,1,59.63,59.63,0,0,1-11.61-1.11,7.73,7.73,0,0,1-4.39-2.29,41.4,41.4,0,0,1-5.56-7A30.54,30.54,0,0,1,2,34.83c1.78.52,3.35.9,4.88,1.43A29.42,29.42,0,0,0,17.91,38a74.2,74.2,0,0,0,8.53-1c2.68-.44,5.31-1.13,8-1.74.52-.12,1.13-.21,1.23-1a4.12,4.12,0,0,0-2.72.3,52.48,52.48,0,0,1-12.15,2.37,33.26,33.26,0,0,1-8.27-.5c-2.12-.37-4.24-.8-6.34-1.28a23.47,23.47,0,0,1-3.08-1A2.21,2.21,0,0,1,2,33.07c-1.31-2.29-1.1-4.73-.9-7.13a60.48,60.48,0,0,1,1-6.09,2.74,2.74,0,0,1,.29-.63c9.36,4.28,28.68,5.63,32.1,2.08-.5,0-.84.05-1.18.09-2.18.28-4.36.62-6.55.83a47.8,47.8,0,0,1-5.61.28A45.6,45.6,0,0,1,9.19,20.7c-1.7-.5-3.41-1-5.08-1.64-1.29-.48-1.4-.86-1-2.15a19.57,19.57,0,0,1,3.82-6.5,1.68,1.68,0,0,1,1.82-.69,98.23,98.23,0,0,0,16,1.25,36.75,36.75,0,0,0,7.7-.57c.62-.13,1.33-.11,1.73-.73C34,8.92,33.58,8.89,33,9q-3.19.48-6.41.92a11.82,11.82,0,0,1-2.51.21c-2-.15-3.91-.45-5.87-.65-1.4-.15-2.8-.24-4.21-.37A11.27,11.27,0,0,1,9.62,7.93,27.73,27.73,0,0,1,16.18,3.4,23.42,23.42,0,0,1,25.23,1a21.12,21.12,0,0,1,5.42.3,41,41,0,0,1,5.6,1.31,29.85,29.85,0,0,1,8.17,4.62,20.21,20.21,0,0,1,2.19,2c.62.62,1.15,1.33,1.85,2.15-.73.37-1.32.73-2,1a61.53,61.53,0,0,1-11,2.89,40.41,40.41,0,0,1-9.23.83c-2.29-.08-4.58-.4-6.86-.61-.21,0-.43,0-.62,0-.2.64.22.77.58.82,4.45.72,8.9,1.53,13.42.44,4-1,8-1.86,12-2.87,1.44-.36,2.82-1,4.29-1.5a23.35,23.35,0,0,1,4,10.28,17.78,17.78,0,0,1-2.22,1.27c-2.08.85-4.17,1.68-6.32,2.35-1.92.6-3.93.88-5.86,1.45-3.86,1.15-7.85,1.34-11.82,1.72-1.26.12-2.52.28-3.78.37a19.34,19.34,0,0,1-6.3-.34,1.29,1.29,0,0,0-1.49.35,4,4,0,0,0,.78.39,49.55,49.55,0,0,0,11.48.75c3.89-.24,7.56-1.41,11.31-2.23a72.27,72.27,0,0,0,14.22-4.84s.08,0,.27.08A37.8,37.8,0,0,1,53.33,27.85Zm-10.1,3.42c-.39.16-.69.31-.54.8,2,.13,5.25-1.48,6-3.14-.89.33-1.61.58-2.31.88C45.33,30.28,44.29,30.81,43.23,31.27ZM6.71,12.07a2.4,2.4,0,0,0,1.78,1.75c1.29.4,2.6.71,3.92,1a2.48,2.48,0,0,0,.86-.15v-.41c-1.11-.31-2.23-.57-3.31-.93S7.89,12.54,6.71,12.07ZM13.32,29q-2.52-.87-5.06-1.69c-.14,0-.34.09-.52.13l-.1.38a12.38,12.38,0,0,0,4.05,1.55,2.32,2.32,0,0,0,1.9.05C13.46,29.18,13.42,29,13.32,29ZM47.25,17.55c1.64-1.05,1.64-1.15,1.77-1.9l-5.33,2.92c0,.13.07.26.1.39A7.47,7.47,0,0,0,47.25,17.55Zm-4-9.81c.11,0,.06-.5.09-.85l-3.25,1.2C41.31,8.65,42.3,8.15,43.29,7.74ZM7.17,40.06c.58.34.27,1.37,1.17,1.25a1,1,0,0,0,.9-1.11C8.62,40,8.05,39.48,7.17,40.06Zm30.5-19.17c.89,0,1.44-.43,1.32-.94a.78.78,0,0,0-.53-.48c-.46-.09-1.27.52-1.21.9C37.29,20.6,37.58,20.79,37.67,20.89ZM38.24,33c-.19.1-.26.42-.39.64.31.16.66.5.91.43.55-.15,1-.55.61-1.41A5.52,5.52,0,0,0,38.24,33ZM37.58,9.15c.48.17.87-.25,1.09-1.15-1.11-.13-1.5,0-1.5.55A.83.83,0,0,0,37.58,9.15ZM15.67,14.46c-.21,0-.55.4-.53.59s.32.55.6,1c.33-.39.64-.59.68-.84C16.51,14.69,16.11,14.42,15.67,14.46ZM5,25.16c-.27.13-.42.5-.62.77l.21.27c.27,0,.59.09.79,0s.68-.51.64-.7C5.94,25,5.4,25,5,25.16ZM43.18,45.44a.77.77,0,0,0-.21-.7c-.66-.22-1,.2-1.25.95C42.37,46,42.88,46.1,43.18,45.44Z"/></g></g></svg>