<svg xmlns="http://www.w3.org/2000/svg" viewBox="0 0 23.41 41.46"><title>Asset 481</title><g id="Layer_2" data-name="Layer 2"><g id="Layer_1-2" data-name="Layer 1"><path d="M22.7,22.16a3,3,0,0,1-.15-.42,19.3,19.3,0,0,1-.72-3c-.09-.79-.23-1.58-.32-2.37s-.13-1.47-.19-2.21c0-.28-.08-.56-.12-.84a18,18,0,0,1-.11-2.84,6.59,6.59,0,0,0-.59-2.7,5.77,5.77,0,0,0-.27-.56,2.61,2.61,0,0,0-1.62-1.17.67.67,0,0,0-.28,0,1.56,1.56,0,0,0-1.18.56,3.6,3.6,0,0,0-.94,2.32c-.06,1.34,0,2.69-.05,4a3.52,3.52,0,0,0,0,.56c.11.62.13,1.24.18,1.87a11.71,11.71,0,0,1-.12,2.21s-.05,0-.07.08a1,1,0,0,1-.58-.32,6.56,6.56,0,0,1-1.4-1.7c-.18-.34-.35-.68-.53-1a29.22,29.22,0,0,1-1.85-4.21,16.24,16.24,0,0,0-.95-2.23,1,1,0,0,0-.37-.42L10,7.51c0-.23-.06-.49-.08-.75Q9.87,6,9.82,5.17a3.79,3.79,0,0,0-.4-1.47,1.77,1.77,0,0,0-.87-1c-.09,0-.15-.12-.22-.18-.27-.17-.53-.36-.81-.52A.48.48,0,0,0,7,2,31,31,0,0,0,7.1,5.34a4.21,4.21,0,0,1,.06.79c0,.62-.07,1.25-.12,2-.07-.19-.11-.27-.13-.35-.15-.61-.3-1.21-.43-1.82-.06-.3-.09-.6-.14-.9a.82.82,0,0,0,0-.28,1.58,1.58,0,0,1-.13-.6c0-.28-.11-.56-.17-.83,0-.11-.07-.22-.08-.33a10.16,10.16,0,0,0-.37-1.54,1.26,1.26,0,0,0-.17-.35A2.44,2.44,0,0,0,3.65,0,1.44,1.44,0,0,0,2.53.28a3.12,3.12,0,0,0,.14,1c0,.22.1.44.13.67a1.61,1.61,0,0,1-.12.85s-.08,0-.1,0A6.51,6.51,0,0,0,1,1.42a.76.76,0,0,0-1,.05A13,13,0,0,0,0,3.12c0,.3.07.6.11.9.1.7.16,1.4.31,2.08.24,1.17.53,2.33.82,3.49.07.31.21.6.28.92a10.84,10.84,0,0,0,1,2.58c.81,1.59,1.78,3.08,2.73,4.59C6,18.8,6.71,19.92,7.4,21.06c.49.83.95,1.68,1.42,2.52.19.35.34.71.54,1.06.49.85.9,1.75,1.39,2.6s.91,1.82,1.41,2.71a12.09,12.09,0,0,1,1,2.66,15.58,15.58,0,0,1,.3,3.28,16.25,16.25,0,0,1-.15,1.7,6.78,6.78,0,0,1-.14,1.62c-.15.44-.17.92-.32,1.36a1.06,1.06,0,0,0,0,.83c.17-.1.18-.27.21-.43a8.49,8.49,0,0,1,.16-1,14.93,14.93,0,0,0,.39-2.3,10.36,10.36,0,0,0,0-1.93c0-.43-.05-.87-.07-1.3a5.93,5.93,0,0,0-.12-1.19,16,16,0,0,0-.81-3c-.46-1-1-1.92-1.51-2.88L9.45,24.22c-.4-.74-.77-1.48-1.18-2.21s-.81-1.32-1.21-2c-.29-.49-.55-1-.85-1.47-.52-.83-1.07-1.64-1.61-2.46-.13-.21-.26-.42-.38-.63a3.66,3.66,0,0,1-.4-.68c-.08-.24-.24-.41-.33-.62-.22-.48-.52-.91-.76-1.38a12.54,12.54,0,0,1-1-2.53c-.07-.25-.17-.5-.24-.75-.21-.86-.43-1.73-.62-2.6S.56,5.27.43,4.45A15,15,0,0,1,.25,2.81,3.36,3.36,0,0,1,.32,1.63a.68.68,0,0,1,.7.13c.33.25.67.49,1,.76a2,2,0,0,1,.74,1.36,1.6,1.6,0,0,0,.12.37c0,.12.12.24.17.36.29.8.58,1.6.89,2.4a10.56,10.56,0,0,0,.53,1.31,28.65,28.65,0,0,0,1.78,3,7.13,7.13,0,0,0,1.95,2l.61.4.08-.08c0-.07,0-.16-.06-.2A2.49,2.49,0,0,0,8.39,13,5.32,5.32,0,0,1,6.6,11.29L6.37,11A18.29,18.29,0,0,1,4.7,8.13c-.47-1-.82-2-1.2-3a6.83,6.83,0,0,1-.43-2.56A4.68,4.68,0,0,0,2.87,1c-.18-.52,0-.69.52-.68a.91.91,0,0,1,.33,0,6.82,6.82,0,0,1,.79.31,1.47,1.47,0,0,1,.84.95c.09.31.17.62.24.94.33,1.49.54,3,.85,4.52.08.35.21.69.26,1a7.22,7.22,0,0,0,.43,1.46,23.24,23.24,0,0,0,1.4,2.83,5.77,5.77,0,0,0,.48.7,1,1,0,0,0,.26.19c0-.13.05-.2,0-.26a.69.69,0,0,0-.14-.25A23,23,0,0,1,7.42,9.54a1.46,1.46,0,0,1-.14-.71c0-.17,0-.34,0-.51,0-.7.07-1.4.06-2.1s-.06-1.36-.09-2L7.21,2.47c0-.08,0-.19.11-.25a3.48,3.48,0,0,1,.75.47A2.43,2.43,0,0,0,8.53,3,.9.9,0,0,1,9,3.51,3.88,3.88,0,0,1,9.2,4a5.18,5.18,0,0,1,.33,1.08c.08.6.09,1.21.13,1.81l.06,1a2.71,2.71,0,0,0,.12.55c.12.35.2.72.32,1.08s.2.76.33,1.13.29.73.44,1.1c.08.21.13.43.22.64a7.12,7.12,0,0,1,.59,2.12,3.12,3.12,0,0,0,.09.44c0,.06.08.1.14.16.15-.28.16-.28.11-.55a10.2,10.2,0,0,0-.65-2.36,16.65,16.65,0,0,1-.61-1.58c-.23-.67-.41-1.34-.61-2A2.42,2.42,0,0,1,10.08,8a.89.89,0,0,1,.24,0,1,1,0,0,1,.43.58c.4,1,.79,1.93,1.18,2.9.29.71.57,1.43.9,2.14a23.91,23.91,0,0,0,1.39,2.59A8,8,0,0,0,15.86,18a.43.43,0,0,0,.6,0,3.64,3.64,0,0,1,.08-.51,4.54,4.54,0,0,0,.13-1.68c0-.48-.09-.95-.13-1.42A27.91,27.91,0,0,1,16.45,10c0-.45.05-.91.08-1.36A1.07,1.07,0,0,1,16.72,8a1.46,1.46,0,0,1,.15.2c.13.27.25.55.38.82a2.78,2.78,0,0,0,.91,1.07.84.84,0,0,0,1.22-.14,2,2,0,0,0,.56-1.09c0-.29.11-.58.17-.87a.34.34,0,0,1,.13,0c.28.35.12.86.44,1.2a.4.4,0,0,1,0,.22L20.87,12c0,.29,0,.57,0,.86,0,.7.18,1.38.22,2.08,0,.38,0,.76.08,1.14.12,1,.27,2,.41,2.92.05.32.1.64.17,1,.25,1.12.64,2.21,1,3.31a4.93,4.93,0,0,1,.18.83c0,.26.07.53.1.79a14,14,0,0,1,.14,1.58c0,1,0,1.94-.06,2.9s-.16,1.7-.19,2.56a22,22,0,0,1-.4,3L22.17,37c-.24,1.38-.49,2.77-.73,4.15,0,.13,0,.33.14.32.55-2.76,1.19-5.52,1.5-8.31.14-1.34.27-2.68.28-4s.11-2.65,0-4A9.33,9.33,0,0,0,22.7,22.16ZM19.49,9.28a1.88,1.88,0,0,1-.5.59.46.46,0,0,1-.49,0,1.23,1.23,0,0,1-.62-.47c-.3-.51-.57-1-.83-1.54A.74.74,0,0,1,17.2,7,1.29,1.29,0,0,1,19,6.58a9.11,9.11,0,0,1,.8.49A4.53,4.53,0,0,1,19.49,9.28Z"/></g></g></svg>