<svg xmlns="http://www.w3.org/2000/svg" viewBox="0 0 206.19 37.19"><title>Asset 474</title><g id="Layer_2" data-name="Layer 2"><g id="Layer_1-2" data-name="Layer 1"><path d="M204.52,15.81Q199.24,12.44,194,9c-3.23-2.12-6.43-4.28-9.66-6.4-1.31-.86-2.62-1.72-4-2.45-.46-.25-1.14-.08-2-.11-.18,3.21-.39,6.22-.52,9.23-.1,2.3-.07,4.6-.16,6.89a8.54,8.54,0,0,1-.41,1.73c-2.08.65-4.08.4-6.05.41-5,0-10-.05-15.05-.07-3.23,0-6.47,0-9.71,0a4.25,4.25,0,0,1-3-.72c-1.2-1-2.34-.63-3.4.24a2.8,2.8,0,0,1-1.92.89,16,16,0,0,1-5.11-.68,16.55,16.55,0,0,0-3.58-6,5.39,5.39,0,0,0-4.5-1.78,31.19,31.19,0,0,0-4.63.72c-3.75,1-4.82,2.45-5.1,6.42,0,.09-.12.17-.3.44-2,.11-4.22.29-6.4.32a4.12,4.12,0,0,1-2-.65,2.13,2.13,0,0,0-2.61,0,4.4,4.4,0,0,1-3,.76c-8.15-.13-16.3.37-24.44,0C74.34,18,72.15,18,70,18a13,13,0,0,0-1.46-1.76c-2-1.77-4.13-3.52-6.26-5.21-1.15-.9-2.4-1.67-3.62-2.47-.37-.23-.89-.26-1,.24a1.67,1.67,0,0,0,.27,1.12c.14.25.5.36.75.55,2.21,1.75,4.43,3.48,6.62,5.26a12.36,12.36,0,0,1,1.34,1.48,1.34,1.34,0,0,1-1.5.63c-1.67-.07-3.34-.28-5-.26a5.19,5.19,0,0,1-3.44-1.25c-1.7-1.38-3.4-2.77-5.19-4-1.53-1.09-3.15-2-4.78-3a1.09,1.09,0,0,0-1,.31c-.13.22.09.74.28,1s.52.33.78.51c2.38,1.7,4.76,3.38,7.13,5.09.32.23.69.52.34,1.07-1.71,0-3.47.09-5.23.08-3.28,0-3.25-.07-6-2s-5.33-3.68-8-5.47a2.87,2.87,0,0,0-1.45-.37c-.19,0-.45.38-.58.63a.64.64,0,0,0,.15.55,5.84,5.84,0,0,0,.8.48c2.23,1.54,4.46,3.07,6.67,4.63.31.22.72.49.32,1.2A43.4,43.4,0,0,1,35.46,17a3.27,3.27,0,0,1-2.79-1.12A2.17,2.17,0,0,0,31,15.17c-1.85.24-3-.83-4-2.05-1.45-1.78-2.82-3.63-4.13-5.51a15,15,0,0,0-7-5.64,7.19,7.19,0,0,0-2.42-.52c-2.33-.06-3.47,1.48-2.78,3.69a7.63,7.63,0,0,0,3.95,4.67c4,2,7.66,4.73,12,6,.31.09.52.52.86.87a3.63,3.63,0,0,1-3.38.66c-1.44-.25-2.85-.63-4.28-.92a95.79,95.79,0,0,0-10.76-2,14.33,14.33,0,0,0-5.86.72A7.87,7.87,0,0,0,.87,16.52a2.19,2.19,0,0,0-.58,2.84,5.94,5.94,0,0,0,1.56,1.89,5.87,5.87,0,0,0,3.83,1.12,42.14,42.14,0,0,0,12.07-1.63,42.53,42.53,0,0,1,4.87-1.15,15.53,15.53,0,0,1,4.5-.24.89.89,0,0,1-.69,1.09c-1.24.55-2.5,1.07-3.77,1.53a25.62,25.62,0,0,0-6.27,3.52,9.1,9.1,0,0,0-3,3.92c-.82,2,0,3.58,2.14,3.86a5,5,0,0,0,3.91-.73,19.06,19.06,0,0,0,3.22-2.92c1.36-1.71,2.42-3.66,3.75-5.4a14.1,14.1,0,0,1,3.44-3.57c1.18-.73,2.72-.89,3.69-2.11a1.16,1.16,0,0,1,.85-.31q3.45.15,6.88.39c.37,0,.87-.09,1.09.65l-9.29,10c.44,1,1.36.78,2,.34a12.29,12.29,0,0,0,2.28-2.11c2.56-2.89,5.08-5.81,7.53-8.61,3.2-.27,7,.1,8.49.87-1.31,1.53-2.71,2.94-3.86,4.53s-3,2.85-4,5.12c.72,0,1.34.27,1.59.06a23.06,23.06,0,0,0,2.13-2.28c1.72-2,3.48-3.9,5.15-5.9a6,6,0,0,1,5.86-2.15c1.55.21,3.11.32,4.66.51a6.11,6.11,0,0,1,1.21.49A16.12,16.12,0,0,1,65,21.8c-.94,1.12-2,2.17-2.9,3.3q-1.8,2.16-3.49,4.43c-.15.2,0,.66.1,1.24,2.38-1.6,3.43-4,5.22-5.71s3.34-3.68,4.8-5.3c6.43.13,12.48.3,18.53.37,4.6.05,9.2,0,13.8-.05,1.37,0,2.7-.06,3.86.91a1.57,1.57,0,0,0,2,.08c1.19-1.14,2.65-1.18,4.1-1.2s3.11-.44,4.71.15a7.18,7.18,0,0,1,.45,1.15c.82,3.84,3.61,5.7,7,7a2.77,2.77,0,0,0,1.5.15c2.71-.65,5.15-1.78,6.64-4.32.68-1.16,1.33-2.34,2-3.49a19.79,19.79,0,0,1,7.63,1,5.73,5.73,0,0,0,2.44.2,5.67,5.67,0,0,0,2.37-.77,7.19,7.19,0,0,1,4.5-.93c1.67,0,3.34-.12,5-.12,3.34,0,6.68,0,10,0,2.82,0,5.64.07,8.46.06a6.26,6.26,0,0,1,3.53.78,68.36,68.36,0,0,1,.48,11.31c-.28,1.84.32,3.42.78,5.14,2.25-.37,3.77-1.71,5.22-3,2.68-2.36,5.79-4.08,8.69-6.1a117.16,117.16,0,0,0,10.88-7.93,32.41,32.41,0,0,1,2.81-2.05A3.44,3.44,0,0,0,204.52,15.81Zm-86.81-1.24a7.56,7.56,0,0,1,2.58-1.64,33.54,33.54,0,0,1,4.24-1,4.26,4.26,0,0,1,4.21,1.44,8.78,8.78,0,0,1,2.32,4.16c-1.57.59-2.88.81-4.23-.5-1.83-1.78-2.91-1.69-4.73.09-.15.14-.28.31-.5.56l-4.29.07A2.41,2.41,0,0,1,117.71,14.57Zm10.21,11a6,6,0,0,1-5.07.89c-2.77-.75-4.59-3-5-6.52a5.32,5.32,0,0,1,5,.68,2.21,2.21,0,0,0,2.9.14c1.86-1.61,3.68-.7,5.78-.4A9.16,9.16,0,0,1,127.92,25.54Z"/></g></g></svg>