<svg xmlns="http://www.w3.org/2000/svg" viewBox="0 0 102.74 133.76"><title>Asset 570</title><g id="Layer_2" data-name="Layer 2"><g id="Layer_1-2" data-name="Layer 1"><path d="M51.37,82.9c-5.66,0-10.13-.7-13.52-4.1l-1.17-1.17.17,1.64c.63,6.2,6.46,10.38,14.5,10.39h0c8,0,13.87-4.19,14.5-10.39l.17-1.64L64.89,78.8C61.5,82.2,57,82.9,51.37,82.9Zm0,5.59c-6.67,0-11.69-3-13-7.71,3.73,2.85,8.43,3.29,13,3.29h0c4.59,0,9.29-.44,13-3.29C63.06,85.45,58,88.48,51.37,88.49ZM92.13,64.76c-1.62-3-2.78-5.17,5-18.54,8.73-15.07,5.41-25.23,2.66-29.94C93.59,5.73,83.63-.36,73.14,0,65.26.29,58.59,4.38,55.23,11a6.12,6.12,0,0,0-3.84-1h0a6.12,6.12,0,0,0-3.84,1C44.15,4.38,37.48.29,29.6,0,19.1-.35,9.15,5.73,3,16.28.23,21-3.09,31.15,5.64,46.22c7.75,13.37,6.59,15.54,5,18.54-2,3.76-9,2.56-9.12,2.55L.28,67.1l.59,1.07c1.66,3,5,4.66,9.32,4.66.55,0,1.11,0,1.69-.08a22.33,22.33,0,0,0,10-3.58,15.83,15.83,0,0,0,6.57-8c1.24-3.78,1.12-9.69-6.24-16.62.36-.31.72-.62,1.08-.91a3.51,3.51,0,0,1,3.81.2h0a4.85,4.85,0,0,0,.83,1,7.26,7.26,0,0,0,1.31.94c7.12,5.42,6.62,12.76,6.26,18.12a15.47,15.47,0,0,0,.15,5.2,9.53,9.53,0,0,0-.31,2.49c0,3,1.51,6.94,8.42,8.86a32.45,32.45,0,0,0,7,1H52a32.45,32.45,0,0,0,7-1c6.91-1.92,8.39-5.88,8.42-8.86A9.53,9.53,0,0,0,67.07,69a15.47,15.47,0,0,0,.15-5.2c-.36-5.36-.86-12.7,6.26-18.12a7.26,7.26,0,0,0,1.31-.94,4.85,4.85,0,0,0,.83-1h0a3.51,3.51,0,0,1,3.81-.2c.36.29.72.6,1.08.91C73.16,51.45,73,57.36,74.28,61.14a15.83,15.83,0,0,0,6.57,8,22.33,22.33,0,0,0,10,3.58c.58,0,1.14.08,1.69.08,4.31,0,7.66-1.65,9.32-4.66l.59-1.08-1.21.22C101.18,67.32,94.16,68.52,92.13,64.76Zm7.05-25.47a47.65,47.65,0,0,1-3.1,6.34c-7.7,13.29-7,16-5,19.68,1.35,2.52,4.32,3.22,6.73,3.35-5.14,1.49-11.39.72-15-4.49-2.69-3.81-3.43-10,2.45-16a8.79,8.79,0,0,0,4.28,1.26,6.06,6.06,0,0,0,1.21-.12,5.74,5.74,0,0,0,4.55-5,.83.83,0,0,0-.06-.46.81.81,0,0,0-.65-.46,7.25,7.25,0,0,1-3.77-2.3c-.59-.61-1.16-1.23-1.69-1.87,3.21-2.83,4.68-6.38,4.06-9.85a9.8,9.8,0,0,0-4.44-6.44,14,14,0,0,1,8.09,6A13.89,13.89,0,0,1,99.18,39.29ZM77.8,31.18a3.24,3.24,0,0,0-2.47-1.3,6,6,0,0,0,.09-2.82,8.89,8.89,0,0,1,5.63,3.86,3.33,3.33,0,0,1,.45,2.94.61.61,0,0,1-.53.39,6.45,6.45,0,0,0-2.46.54A4.22,4.22,0,0,0,77.8,31.18ZM92,29.55c.54,3-.78,6.18-3.64,8.72q-.39-.51-.75-1c-.36-.51-.7-1.11-1.06-1.75-1.06-1.85-2.25-3.94-4.54-5.23a10.1,10.1,0,0,0-5.62-4.18,15.25,15.25,0,0,1,9-3.53v0C89,23.77,91.43,26.37,92,29.55ZM81,35.42a1.78,1.78,0,0,0,1.51-1,3.58,3.58,0,0,0,.24-2.11,15.47,15.47,0,0,1,2.75,3.81,20.82,20.82,0,0,0,1.12,1.84,33.59,33.59,0,0,0,3.28,4,11,11,0,0,0,2.3,1.83c-1.51-.1-3.48-.82-6.32-4.05-.14-.17-.3-.37-.48-.61-1-1.31-2.68-3.54-6.24-3.28A5.52,5.52,0,0,1,81,35.42ZM101.46,30a29.86,29.86,0,0,1-1,5.35,16.43,16.43,0,0,0-2.71-7.14,15.07,15.07,0,0,0-9.56-6.63,15.87,15.87,0,0,0-13.08,4v-.05A17.53,17.53,0,0,0,73,20.78c0-.07-.09-.15-.14-.23C78,16.09,82,14.33,86.06,14.72c10,.93,14.88,5.79,15.4,15.29ZM85,3.74a32.5,32.5,0,0,1,13.7,13.13A20.19,20.19,0,0,1,101,22.44c-2.39-5.26-7.28-8.19-14.78-8.89-5.46-.51-10.09,2.65-13.93,6A12.14,12.14,0,0,0,68.08,15a20,20,0,0,0-5.85-2.31C66.6,3.33,77.19,2,85,3.75ZM73.18,1.19a24.78,24.78,0,0,1,6.71.69C69.74,1.48,63.47,7,61,12.53h0a12.55,12.55,0,0,1-4.7-1C59.41,5.32,65.72,1.45,73.18,1.19ZM48.08,12a5.07,5.07,0,0,1,3.29-.9,5.07,5.07,0,0,1,3.29.9c1,.65,2.33,1.46,6.21,1.71A16,16,0,0,1,67.52,16c2,1.08,3.35,3.44,4.45,5.34a15.84,15.84,0,0,1,2,4.45c.66,2.91.27,3.7.13,3.88l-.12.12h0l0,.05a3.86,3.86,0,0,1-1.36.46c-.33.08-.68.15-1,.26-5.67,1.88-11.1,9.55-12.42,13.13-2.21,5.71-.33,9.56,1.66,13.63,1.29,2.66,1.62,4.68,1,6.19q-.84,2-3.95,3a23.8,23.8,0,0,1-6.47,1.22,23.8,23.8,0,0,1-6.47-1.22q-3.1-1-3.95-3c-.64-1.51-.31-3.53,1-6.19,2-4.07,3.87-7.92,1.66-13.62-1.32-3.59-6.75-11.26-12.42-13.14-.33-.11-.68-.18-1-.26a3.86,3.86,0,0,1-1.36-.46s0,0-.05-.05h0a.68.68,0,0,1-.12-.12c-.14-.18-.53-1,.13-3.88a15.84,15.84,0,0,1,2-4.45c1.1-1.9,2.48-4.26,4.45-5.34a16,16,0,0,1,6.65-2.33C45.75,13.45,47,12.64,48.08,12ZM73.14,31.4A6.4,6.4,0,0,0,73,32.46c0,.26,0,.51,0,.77-.05.58-.1,1.18-.1,1.78a3.75,3.75,0,0,1-1.16,3c-1.39,1.17-3.62.88-4.27.77a4,4,0,0,1-.53-.15,4.8,4.8,0,0,0-3.34,0c2.33-3,5.47-5.94,8.41-6.91.28-.09.58-.16.89-.23ZM39.21,38.61a4.8,4.8,0,0,0-3.34,0,4,4,0,0,1-.53.15c-.65.11-2.88.4-4.27-.77a3.75,3.75,0,0,1-1.16-3c0-.6-.05-1.2-.1-1.78,0-.26,0-.51,0-.77a6.4,6.4,0,0,0-.16-1.06l.31.07c.31.07.61.14.89.23C33.74,32.67,36.87,35.59,39.21,38.61ZM29.56,1.19C37,1.45,43.33,5.32,46.49,11.55a12.55,12.55,0,0,1-4.7,1h0A17.7,17.7,0,0,0,33.43,4,21.72,21.72,0,0,0,22.84,1.89,24.42,24.42,0,0,1,29.56,1.19ZM4,16.87A32.5,32.5,0,0,1,17.7,3.74h0c7.84-1.75,18.43-.42,22.8,8.94A20,20,0,0,0,34.66,15a12.14,12.14,0,0,0-4.16,4.52C26.66,16.2,22,13,16.57,13.55c-7.5.7-12.39,3.63-14.78,8.89A20,20,0,0,1,4,16.87ZM1.27,30h0c.52-9.5,5.41-14.36,15.4-15.29,4.09-.39,8.06,1.37,13.21,5.83-.05.08-.09.16-.14.23a17.53,17.53,0,0,0-2.15,4.78v.05a15.87,15.87,0,0,0-13.08-4A15.07,15.07,0,0,0,5,28.22a16.43,16.43,0,0,0-2.71,7.14A30.85,30.85,0,0,1,1.27,30Zm23,4.78a6.45,6.45,0,0,0-2.46-.54.61.61,0,0,1-.53-.39,3.33,3.33,0,0,1,.45-2.94,8.89,8.89,0,0,1,5.63-3.86,6,6,0,0,0,.09,2.82,3.24,3.24,0,0,0-2.47,1.3A4.22,4.22,0,0,0,24.23,34.79ZM17.35,22.56a15.25,15.25,0,0,1,9,3.53,10.1,10.1,0,0,0-5.62,4.18c-2.29,1.29-3.48,3.38-4.54,5.23-.36.64-.7,1.24-1.06,1.75q-.36.51-.75,1c-2.86-2.54-4.18-5.68-3.64-8.72s3-5.78,6.63-7ZM16.08,37.92a20.82,20.82,0,0,0,1.12-1.84A15.47,15.47,0,0,1,20,32.27a3.58,3.58,0,0,0,.24,2.11,1.78,1.78,0,0,0,1.51,1,5.52,5.52,0,0,1,1.84.35c-3.56-.26-5.25,2-6.24,3.28-.18.24-.34.44-.48.61-2.84,3.23-4.81,4-6.32,4.05a11.24,11.24,0,0,0,2.3-1.83A33.59,33.59,0,0,0,16.08,37.92ZM11.64,65.31c2-3.67,2.72-6.39-5-19.68a47.65,47.65,0,0,1-3.1-6.34A13.89,13.89,0,0,1,5.93,28.87a14,14,0,0,1,8.09-6,9.8,9.8,0,0,0-4.44,6.44c-.62,3.47.85,7,4.06,9.85-.53.64-1.1,1.26-1.69,1.87a7.25,7.25,0,0,1-3.77,2.3.81.81,0,0,0-.65.46.83.83,0,0,0-.06.46,5.74,5.74,0,0,0,4.55,5,6.06,6.06,0,0,0,1.21.12,8.79,8.79,0,0,0,4.28-1.26c5.88,6,5.14,12.2,2.45,16-3.66,5.21-9.91,6-15,4.49C7.32,68.53,10.29,67.83,11.64,65.31Zm15.7-4.54C25.28,67,17.78,71,11.77,71.58c-3.59.33-6.57-.46-8.48-2.22a16.94,16.94,0,0,0,6.14,1.19,14,14,0,0,0,11.49-5.7c3.67-5.21,2.72-12-2.39-17.32a33.79,33.79,0,0,0,2.8-2.23C26.89,50.5,29,55.83,27.34,60.77ZM22.56,42.7c-.57.46-1.13.95-1.67,1.43a31.58,31.58,0,0,1-3.24,2.58,7.55,7.55,0,0,1-5.4,1.44A4.71,4.71,0,0,1,8.74,44.8l.2,0a11,11,0,0,0,1.22.08c1.75,0,4.16-.62,7.54-4.47.17-.19.35-.43.54-.67,1.16-1.54,2.91-3.84,7.43-2.36a1.49,1.49,0,0,1,0,.21,17.66,17.66,0,0,0,.64,4.53A4.64,4.64,0,0,0,22.56,42.7Zm9.37,3.8.46,0a17.34,17.34,0,0,0,5.47-1.24l-.39-1.11c-4.12,1.43-6.47,1.76-8.73-.26-1.65-1.48-1.78-4.3-1.87-6.35a3.84,3.84,0,0,0-1-2.15,2.92,2.92,0,0,1-.35-.48,3,3,0,0,1,.36-3,2,2,0,0,1,1.94-.83l.47.08a3.92,3.92,0,0,1,.31,1.39c0,.26,0,.52.05.78.05.58.09,1.13.09,1.69a4.85,4.85,0,0,0,1.59,3.92c1.72,1.45,4.22,1.2,5.22,1a6,6,0,0,0,.69-.2c.88-.28,2-.64,4.35.77h0a18,18,0,0,1,1.91,3.6c1.9,4.89.66,8.06-1.61,12.69-1.27,2.6-1.68,4.71-1.25,6.43l-.22.23A20.55,20.55,0,0,0,36.57,67c0-.88,0-1.92.12-3C37,59.11,37.49,52.09,31.93,46.5ZM58.64,79.26a31.17,31.17,0,0,1-6.66,1c0-.52,0-1,0-1.49a2.31,2.31,0,0,1,.41-1.48,2.9,2.9,0,0,1,2.1-.77l.23,0,.6,0c1.53-.11,3.61-.27,4.79-1a4.88,4.88,0,0,0,2.16-4.38l-.12-2.28-1,2c-.69,1.42-2,2.08-4.38,2.26-1.95.15-3.63.32-4.52.91a3.51,3.51,0,0,0-.83.92,3.22,3.22,0,0,0-.92-.92c-.88-.59-2.56-.76-4.51-.91-2.42-.18-3.69-.84-4.38-2.26l-1-2-.12,2.28a4.88,4.88,0,0,0,2.16,4.38c1.18.71,3.26.87,4.79,1l.6,0,.23,0a2.9,2.9,0,0,1,2.1.77,2.33,2.33,0,0,1,.41,1.49c0,.46,0,1,0,1.48a31.17,31.17,0,0,1-6.66-1c-4.92-1.37-7.53-4.05-7.56-7.74,0-3.17,1.47-4.84,3.57-7.07a7.35,7.35,0,0,0,4.43,3.18,24.6,24.6,0,0,0,6.68,1.27v0h.3v0a24.6,24.6,0,0,0,6.68-1.27,7.35,7.35,0,0,0,4.43-3.18c2.1,2.23,3.6,3.9,3.57,7.07C66.17,75.21,63.56,77.89,58.64,79.26Zm-6.45-3.35A2.48,2.48,0,0,1,52.9,75a11,11,0,0,1,4-.72,7.73,7.73,0,0,0,3.78-1.09,3.23,3.23,0,0,1-1.15,1.27,12.07,12.07,0,0,1-4.27.81l-.62.05-.22,0A4.3,4.3,0,0,0,52.19,75.91ZM50.66,76a4.24,4.24,0,0,0-2.29-.67l-.22,0-.62-.05a12.07,12.07,0,0,1-4.27-.81,3.23,3.23,0,0,1-1.15-1.27,7.73,7.73,0,0,0,3.78,1.09,11,11,0,0,1,4,.72A2.18,2.18,0,0,1,50.66,76ZM74,43.91c-2.25,2-4.61,1.69-8.73.26l-.39,1.11a17.34,17.34,0,0,0,5.47,1.24l.46,0C65.25,52.09,65.72,59.11,66,63.92c.08,1.12.15,2.16.13,3a20.55,20.55,0,0,0-2.84-3.48l-.22-.23c.43-1.72,0-3.83-1.25-6.43-2.27-4.63-3.51-7.8-1.61-12.7a18.77,18.77,0,0,1,1.91-3.59h0c2.37-1.41,3.47-1.05,4.35-.77a6,6,0,0,0,.69.2c1,.17,3.5.42,5.22-1A4.85,4.85,0,0,0,74,35c0-.56,0-1.11.09-1.69,0-.26,0-.52.05-.78a3.92,3.92,0,0,1,.31-1.39l.47-.08a2,2,0,0,1,1.94.83,3,3,0,0,1,.36,3,2.92,2.92,0,0,1-.35.48,3.84,3.84,0,0,0-1,2.15C75.78,39.61,75.65,42.43,74,43.91Zm6.18-1.21a4.64,4.64,0,0,0-3.77-.56,17.66,17.66,0,0,0,.64-4.53,1.49,1.49,0,0,1,0-.21c4.52-1.48,6.27.82,7.43,2.36.19.24.37.48.54.67,3.38,3.85,5.79,4.47,7.54,4.47a11,11,0,0,0,1.22-.08l.2,0a4.68,4.68,0,0,1-3.51,3.35,7.55,7.55,0,0,1-5.4-1.44,31.58,31.58,0,0,1-3.24-2.58C81.31,43.65,80.75,43.16,80.18,42.7ZM91,71.58C85,71,77.46,67,75.4,60.77c-1.63-4.94.45-10.27,6-15.47a33.79,33.79,0,0,0,2.8,2.23c-5.11,5.35-6.06,12.11-2.39,17.32a13.49,13.49,0,0,0,7.91,5.29,15,15,0,0,0,3.55.41,17.23,17.23,0,0,0,6.17-1.19C97.54,71.12,94.57,71.91,91,71.58ZM58,36c3.7-6.29,8.28-9.69,13.61-10.11l.1,1.17c-4.93.39-9.2,3.59-12.69,9.54ZM41.79,21.17c0,7,3.49,11,9.58,11s9.58-4,9.58-11h1.17c0,11-7.47,12.18-10.73,12.19h0c-3.26,0-10.73-1.23-10.73-12.19Zm3,14.86-1,.6c-3.49-6-7.76-9.15-12.69-9.54l.1-1.17C36.47,26.34,41.05,29.74,44.75,36Zm-.31-18.35h1.17c0,4,1.94,6.19,5.76,6.4,3.82-.21,5.76-2.36,5.76-6.4H58.3c0,4.66-2.46,7.35-6.92,7.58v0C46.9,25,44.44,22.34,44.44,17.68Z"/><path d="M38.91,125.25l-2.82,8.36h1.09l.8-2.54H41l.79,2.54H43l-2.82-8.36Zm1.85,5h-2.5l.4-1.26c.29-.93.56-1.85.81-2.82h.05c.27,1,.54,1.89.84,2.82Zm8.92-2.6c0-1.75-1.22-2.36-2.93-2.36H44.14v8.36h1.07v-3.53h1.5l2,3.53h1.22L47.81,130A2.29,2.29,0,0,0,49.68,127.61Zm-3.08,1.6H45.21v-3.09H46.6c1.3,0,2,.39,2,1.49S47.9,129.21,46.6,129.21Zm4.8-4h1.07v8.36H51.4Zm4.42,7.46H59.7v.9h-5v-8.36h4.82v.9H55.82v2.62H59v.9H55.82Zm10.83-1.33c0,1.33-1.1,2.38-2.86,2.38a3.92,3.92,0,0,1-2.93-1.25l.6-.7a3.29,3.29,0,0,0,2.34,1c1.1,0,1.75-.55,1.75-1.35s-.61-1.12-1.39-1.47L63,129.47a2.34,2.34,0,0,1-1.68-2.16,2.37,2.37,0,0,1,2.62-2.21,3.53,3.53,0,0,1,2.48,1l-.59.72a2.7,2.7,0,0,0-1.89-.78c-.93,0-1.54.47-1.54,1.21s.73,1.11,1.38,1.38l1.2.52A2.32,2.32,0,0,1,66.65,131.38Z"/></g></g></svg>