<svg xmlns="http://www.w3.org/2000/svg" viewBox="0 0 107.75 153.1"><title>Asset 562</title><g id="Layer_2" data-name="Layer 2"><g id="Layer_1-2" data-name="Layer 1"><path d="M107.54,39.93a1.91,1.91,0,0,0-1.26-.89,1.81,1.81,0,0,0-1.46.37,3.8,3.8,0,0,0-.87,1,2.74,2.74,0,0,1-.62.75C97.76,44.75,94.26,40,89,32.05c-5.52-8.38-12.38-18.82-25.25-15.64l-1.63.4,1.53.7a6.05,6.05,0,0,1,3.45,4.94,2.8,2.8,0,0,1-1.35,2.68c-.81.46-1.31.05-2.64-1.34a11.64,11.64,0,0,0-8.57-4.24V12.86l3.15-3.78L54,0,50.17,9.07l3.2,3.85v6.62a11.66,11.66,0,0,0-8.75,4.25c-1.33,1.39-1.83,1.8-2.64,1.34a2.8,2.8,0,0,1-1.35-2.68,6.05,6.05,0,0,1,3.45-4.94l1.53-.7L44,16.41c-12.87-3.18-19.73,7.26-25.25,15.64C13.49,40,10,44.75,4.42,41.17a2.74,2.74,0,0,1-.62-.75,3.8,3.8,0,0,0-.87-1A1.81,1.81,0,0,0,1.47,39a1.91,1.91,0,0,0-1.26.89,2,2,0,0,0,.3,2.21,3.74,3.74,0,0,0,1.27.92l.32.17c.32.18.64.35,1,.5l45.31,58L48.46,114,54,108.1,59.54,114l.08-12.18,45.08-58c.32-.16.63-.32,1-.5l.32-.17a3.64,3.64,0,0,0,1.27-.92A2,2,0,0,0,107.54,39.93ZM2.42,41a.6.6,0,0,0-.83-.1.59.59,0,0,0-.22.43.92.92,0,0,1-.16-.79.78.78,0,0,1,.48-.35.69.69,0,0,1,.55.16,3,3,0,0,1,.58.72,3.72,3.72,0,0,0,1,1.09C10.62,46.55,15,39.82,19.72,32.7c5.37-8.16,11.41-17.36,22.56-15.45a7.08,7.08,0,0,0-2.81,5.15,3.92,3.92,0,0,0,2,3.75c1.66,1,2.83-.27,4.06-1.55,1.54-1.6,3.63-3.76,7.9-3.89V23.9c-4.09.14-7.88,1.92-11.29,5.33a3.32,3.32,0,0,1-2.93,1.23c-.92-.24-1.4-1.26-1.64-2.1a25.69,25.69,0,0,1-.09-5.51l0-.56-.56-.07c-5.09-.58-9.08,4.6-13.3,10.09-5.48,7.12-11.15,14.48-19.8,10.47Zm51-15.92v1.11a14.77,14.77,0,0,0-10.11,4c-1.41,1.15-2.42,2-3.8,1.73a1.34,1.34,0,0,1-.67-.34h.06a2.64,2.64,0,0,0,.74.1,4.89,4.89,0,0,0,3.32-1.63C46.14,26.84,49.57,25.21,53.38,25.08Zm-5,73.5v1.27L5.21,44.58a11.41,11.41,0,0,0,3.37.53c6.66,0,11.54-6.34,16-12.09,3.82-5,7.44-9.67,11.61-9.67h.07a27.11,27.11,0,0,0,.14,5.22h0v0c.34,2.24,1.15,4.14,2.88,4.47,1.92.35,3.24-.73,4.77-2a13.63,13.63,0,0,1,9.36-3.73l.06,66.48ZM49.61,111l0-7.74,3.33,4.27Zm-.07-9.67V99.09l3.91-3.65v10.93Zm5-93.77H53.37v3.49L51.53,8.87,54,3.06l2.35,5.81L54.54,11Zm0,17.49c3.73.18,7.1,1.81,10.27,5a4.89,4.89,0,0,0,3.32,1.63,2.64,2.64,0,0,0,.74-.1H69a1.34,1.34,0,0,1-.67.34c-1.37.26-2.39-.58-3.8-1.73a14.79,14.79,0,0,0-9.92-4Zm3.82,86-3.26-3.46,3.32-4.27Zm.07-9.66-3.82,4.92V95.5l3.85,3.59Zm1.18-1.52V98.58l-5-4.68-.06-66.54a13.63,13.63,0,0,1,9.17,3.73c1.53,1.26,2.85,2.35,4.77,2,1.73-.33,2.54-2.23,2.88-4.47v0h0a27.11,27.11,0,0,0,.14-5.22h.07c4.17,0,7.79,4.71,11.61,9.67,4.42,5.75,9.3,12.09,16,12.09a11.59,11.59,0,0,0,3.39-.53Zm46.75-58.52a.62.62,0,0,0-.22-.43.6.6,0,0,0-.83.1L104,42.78c-8.66,4-14.33-3.34-19.81-10.47-4.22-5.49-8.2-10.66-13.3-10.09l-.56.07,0,.56a25.69,25.69,0,0,1-.09,5.51c-.24.84-.72,1.86-1.64,2.1a3.32,3.32,0,0,1-2.93-1.23,16.58,16.58,0,0,0-11.11-5.32V20.72a10.46,10.46,0,0,1,7.72,3.88c1.23,1.28,2.4,2.5,4.06,1.55a3.92,3.92,0,0,0,2-3.75,7.08,7.08,0,0,0-2.81-5.15C76.62,15.34,82.66,24.54,88,32.7c4.68,7.12,9.1,13.85,15.93,9.46a3.72,3.72,0,0,0,1-1.09,3,3,0,0,1,.58-.72.69.69,0,0,1,.55-.16.78.78,0,0,1,.48.35A.92.92,0,0,1,106.38,41.33Z"/><path d="M25.92,150.71c0,1.33-1.09,2.39-2.85,2.39a3.94,3.94,0,0,1-2.93-1.25l.59-.7a3.36,3.36,0,0,0,2.35,1c1.1,0,1.75-.55,1.75-1.35s-.62-1.12-1.39-1.46l-1.21-.54a2.34,2.34,0,0,1-1.69-2.15,2.38,2.38,0,0,1,2.63-2.22,3.46,3.46,0,0,1,2.47,1l-.58.71a2.74,2.74,0,0,0-1.89-.78c-.93,0-1.54.47-1.54,1.21s.72,1.11,1.37,1.38l1.2.52A2.32,2.32,0,0,1,25.92,150.71Zm4.57-6.13,2.81,8.36H32.17l-.79-2.53H28.33l-.8,2.53H26.45l2.81-8.36Zm.22,3.7c-.3-.93-.57-1.85-.84-2.82h-.05c-.25,1-.52,1.89-.81,2.82l-.4,1.26h2.5Zm6.77,1.21h1.78v2.18a2.35,2.35,0,0,1-1.51.48c-1.78,0-2.76-1.31-2.76-3.41s1.07-3.37,2.75-3.37a2.38,2.38,0,0,1,1.8.75l.58-.66a3.17,3.17,0,0,0-2.41-1c-2.22,0-3.83,1.64-3.83,4.33s1.56,4.34,3.77,4.34a3.63,3.63,0,0,0,2.59-1v-3.52H37.48Zm9.69,0c0,2-.87,2.64-2,2.64s-1.93-.63-1.93-2.64v-4.93H42.19v4.91c0,2.68,1.3,3.61,3,3.61s3-.93,3-3.61v-4.91h-1Zm8.63-4.93H49.67v.91h2.52v7.45h1.07v-7.45H55.8Zm3.91,0,2.82,8.36H61.4l-.8-2.53h-3l-.8,2.53H55.67l2.82-8.36Zm.23,3.7c-.3-.93-.57-1.85-.84-2.82h-.05c-.25,1-.52,1.89-.82,2.82l-.39,1.26h2.5Zm7.45,1,2.12,3.64H68.3l-2-3.53h-1.5v3.53H63.72v-8.36h2.61c1.71,0,2.93.61,2.93,2.36A2.29,2.29,0,0,1,67.39,149.3Zm.8-2.36c0-1.1-.71-1.49-2-1.49H64.79v3.1h1.39C67.48,148.55,68.19,148,68.19,146.94Zm2.79,6h1.07v-8.36H71Zm8.3-3.43c0,2-.87,2.64-2,2.64s-1.93-.63-1.93-2.64v-4.93H74.29v4.91c0,2.68,1.3,3.61,3,3.61s3-.93,3-3.61v-4.91h-1Zm6.61-1L84.7,148c-.65-.27-1.38-.57-1.38-1.38s.61-1.21,1.54-1.21a2.74,2.74,0,0,1,1.89.78l.58-.71a3.46,3.46,0,0,0-2.47-1,2.37,2.37,0,0,0-2.62,2.22,2.34,2.34,0,0,0,1.68,2.15l1.21.54c.78.34,1.39.61,1.39,1.46s-.65,1.35-1.75,1.35a3.32,3.32,0,0,1-2.34-1l-.6.7a3.94,3.94,0,0,0,2.93,1.25c1.76,0,2.85-1.06,2.85-2.39A2.32,2.32,0,0,0,85.89,148.48Z"/></g></g></svg>