<svg xmlns="http://www.w3.org/2000/svg" viewBox="0 0 99.49 84.41"><defs><style>.cls-1{fill:#fbb03b;}</style></defs><title>Asset 517</title><g id="Layer_2" data-name="Layer 2"><g id="Layer_1-2" data-name="Layer 1"><path d="M46.92,30.25c0-.61.35-.64.59-.06s0,.7-.39.6C46.93,30.75,46.89,30.63,46.92,30.25ZM44.9,55c-.14,0-.18.7,0,.84s.32.1.39-.1S45.09,55,44.9,55Zm-.17-19.85a.26.26,0,0,0-.27.18c-.06.16,0,.2.21.17S45,35.23,44.73,35.16Zm2.82,2.89c.14,0,.33-.51.23-.62s-.36.1-.36.36S47.48,38.05,47.55,38.05Zm-3.11-3.71c-.11,0-.2.06-.2.13s.09.13.2.13.2-.05.2-.13S44.55,34.34,44.44,34.34Zm2.7,11.48A.17.17,0,0,0,47,45.6c-.25,0-.4.22-.28.41S47.08,46.09,47.14,45.82Zm-1.39-9.44c.14-.35,0-.49-.33-.24a.9.9,0,0,0-.25.34C45.17,36.68,45.67,36.6,45.75,36.38ZM45.5,47.75c.22,0,.7.18,1.06.29.82.24.86.24.86.08A.12.12,0,0,0,47.3,48a6.34,6.34,0,0,1-1.07-.45c-.8-.38-.89-.45-.61-.51a.86.86,0,0,1,.5,0,2.58,2.58,0,0,0,.87.11c.66,0,1,.16.7.33s-.14.34.22.48.4.09.55-.06.15-.2-.08-.27a.66.66,0,0,1-.36-.48c-.05-.22-.14-.39-.21-.39s-.12-.09-.12-.2-.47-.28-.6-.07-.76.17-1,0a1.29,1.29,0,0,1-.28-.8c-.07-.7-.31-1.12-.53-.9a.22.22,0,0,0,0,.3,2.58,2.58,0,0,1-.06,1.6,1,1,0,0,0-.11.55C45.1,47.57,45.18,47.67,45.5,47.75ZM46.36,31c.11-.13.11-.21,0-.27s-.55.18-.45.34S46.18,31.19,46.36,31Zm-1.81,2.84c.17,0,0-.57-.14-.63s-.37.37-.15.51A.81.81,0,0,0,44.55,33.81ZM2.64,66.64c0,.18.07.15.35-.13s.33-.39.29-.43S2.64,66.42,2.64,66.64ZM46,37.35c-.11.28-.21.55-.24.61s.06.09.2.07.73-.89.62-1.07S46.14,36.9,46,37.35ZM45.89,44a.31.31,0,0,0-.32.12c-.12.15-.08.26.21.53s.72.44.72.25A2.15,2.15,0,0,0,45.89,44ZM6.51,70.46c-.61.11-.72.17-.62.33S7,70.81,7,70.51C7,70.42,6.82,70.4,6.51,70.46ZM37,44.5c.54-.11.81-.24.84-.38s0-.2-.59,0a4.63,4.63,0,0,1-1,.19c-.36,0-.47.12-.29.31S36.06,44.7,37,44.5Zm1.51-1.36c.14-.13-.31-.32-.79-.32s-1.31.24-1.31.41A6.06,6.06,0,0,0,38.53,43.14Zm-1-.87c.65-.16.79-.38.22-.36s-1,.17-1.06.35S36.81,42.46,37.56,42.27Zm-3.65,6c-.1,0-.1.08,0,.27s.66.37.66.14S34.14,48.25,33.91,48.25Zm.89-1.77c-.31.06-.49.16-.49.28s.13.18.75.11c.86-.11,1.1-.19,1.1-.35S35.52,46.37,34.8,46.48Zm-.36.87c-.72,0-.94.15-.57.36a1.07,1.07,0,0,0,1,0C35.42,47.53,35.19,47.34,34.44,47.35Zm3.27,3.47c.15.15.29.09.44-.18s.1-.27,0-.27S37.59,50.7,37.71,50.82Zm10.81-1.06c.28.11.48.09.57-.06s-.17-.38-.51-.38S48.27,49.65,48.52,49.76Zm-6.05,3.49a.58.58,0,0,0,.07.67c.21.21.38.08.38-.29S42.63,53.09,42.47,53.25Zm6.28-4.53c0-.11,0-.2-.12-.2a.93.93,0,0,1-.32-.08.45.45,0,0,0-.4.14c-.2.2-.3.19-1.3-.12-.83-.25-1.13-.3-1.27-.18-.29.24,0,.39,1.18.64,1.39.29,1.43.29,1.43.13s.18-.13.4-.13S48.75,48.85,48.75,48.72Zm-12,1.92a.28.28,0,0,0,.21.13.13.13,0,0,0,.12-.13c0-.07-.1-.13-.21-.13S36.71,50.57,36.76,50.64Zm11.59-11a.24.24,0,0,0,.25.22c.21,0,.24-.13.25-1.26a3.19,3.19,0,0,0-.11-1.26c-.07,0-.12.22-.12.5,0,.63-.28,1.17-.57,1.11s-.28.33,0,.41A.35.35,0,0,1,48.35,39.69Zm.46-9.32c.08-.13-.17-.67-.39-.83s-.48.49-.17.8S48.7,30.55,48.81,30.37ZM48.26,36c.21.69.36.41.36-.67,0-.75,0-1-.19-1S48.08,35.41,48.26,36ZM41.52,53.52a.26.26,0,0,0,.2.17c.19,0,.36-.39.46-1.11s.07-.64-.14-.59S41.4,53.19,41.52,53.52Zm7.7-17.46a4.63,4.63,0,0,0,.06-1c0-.75,0-1-.15-.87s-.12.43-.06,1A4.19,4.19,0,0,0,49.22,36.06Zm-13,9.41c-1.08.21-1.24.27-1.24.41s.08.12.17.12A7.2,7.2,0,0,0,37,45.6C37.25,45.36,37,45.32,36.21,45.47Zm2.2,5.89c0,.63.44.32.6-.42.07-.34,0-.43-.12-.43S38.41,50.91,38.41,51.36Zm1,0c-.08.44-.06.5.18.5a.36.36,0,0,0,.34-.3c.14-.51.09-.89-.11-.89S39.52,50.73,39.4,51.33Zm1.48-.4c-.13,0-.25.16-.38.6a2.71,2.71,0,0,0-.14.73c0,.06.17.1.3.1s.26-.14.33-.59C41.11,51,41.11,51,40.88,50.93Zm32.88,21.3.53.27c.15,0-.4-.78-.57-.84C73.07,71.41,73.1,71.88,73.76,72.23ZM53.93,37.05c0,.14,0,.21.07.17A.27.27,0,0,0,54,37C54,36.86,53.93,36.89,53.93,37.05Zm-.08,13.06c.11.17.29.17.86,0a8.87,8.87,0,0,1,1.06-.23c.42-.06.61-.15.64-.31s0-.24-.54-.24a1.63,1.63,0,0,0-.83.2,1.43,1.43,0,0,1-.68.2C53.92,49.71,53.71,49.88,53.85,50.11Zm.58-10.73c.53,0,.45-1.34-.11-1.71-.31-.21-.31-.21-.22.18a4,4,0,0,1,.09,1C54.17,39.29,54.21,39.38,54.43,39.38Zm1.38,8.24c0,.09-.12.18-.3.21-.52.06-.69.15-.6.29s.86.18.86,0S56,48,56.2,48s.45-.12.48-.27,0-.23-.43-.23S55.78,47.52,55.81,47.62Zm.87-.56c.08,0,.12-.21.09-.5s-.08-.48-.12-.46a.66.66,0,0,1-.21,0c-.21,0-.16.4.05.48a.2.2,0,0,1,.12.26C56.57,47,56.6,47.06,56.68,47.06ZM54.52,30.71c.1-.23-.28-1.14-.46-1.14s-.3.63-.07,1S54.42,31,54.52,30.71Zm-1.8-.58c0,.25.12.29.45.16s.18-.13,0-.53-.63-.63-.51-.16A2.2,2.2,0,0,1,52.72,30.13Zm-.39.07a3.39,3.39,0,0,0-.51-1.26c-.17-.06-.22.71-.08,1.08C51.81,30.19,52.33,30.35,52.33,30.2ZM55.51,47c0,.11.11.19.26.19S56,47.11,56,47s-.12-.2-.27-.2S55.51,46.89,55.51,47Zm1.06,1.43c0-.15-.08-.19-.3-.13s-.64.16-1.06.24-.76.23-.76.35.16.17.83.09C56.23,48.87,56.57,48.73,56.57,48.43Zm-2-12.8A6.2,6.2,0,0,1,55.18,38c.08.63.14.76.34.76s.25-.1.25-.67,0-.69-.26-.75-.31-.16-.47-1.16c-.11-.69-.42-1.26-.67-1.26S54.23,35.33,54.52,35.63ZM74.1,76.37a1.61,1.61,0,0,0-.93.19c-.57.35-1,.74-1,.94s.2.22.43,0A2.87,2.87,0,0,1,74.11,77c.46,0,.44,0,.5-.35S74.57,76.41,74.1,76.37Zm-.77-3.47c0,.07.09.16.29.21l.51.12c.31.11.35,0,.13-.2S73.47,72.68,73.33,72.9ZM60.63,52.52a.83.83,0,0,0,.06.52c.14.28.32.32.45.11a5.86,5.86,0,0,0-.82-2.23c-.23-.4-.37-.53-.47-.43s0,.38.35.95S60.68,52.34,60.63,52.52ZM50.56,29.08c-.15.05-.17.74,0,1.1s.33.24.42,0S50.74,29,50.56,29.08ZM72.91,75.87c.06.16.15.15.58-.07a4.55,4.55,0,0,1,1-.34c.58-.09.63-.21.17-.41C74,74.74,72.7,75.33,72.91,75.87ZM57.49,36.21c0-.35-.21-.57-.47-.52s-.24.14-.21.37a.69.69,0,0,0,.19.42A.32.32,0,0,0,57.49,36.21Zm.34,9.4c.09.15.22.16.51,0s.29-.45.07-.45S57.75,45.48,57.83,45.61ZM56.07,31.27c.44-.06.48-.51,0-.51-.25,0-.34.07-.34.28S55.84,31.3,56.07,31.27Zm-.58-1.05c-.24-.16-.44-.08-.49.19s0,.22.23.22C55.56,30.63,55.73,30.37,55.49,30.22Zm2.64,5.06c-.05-.26-.64-.37-.64-.11a.61.61,0,0,0,.15.33A.28.28,0,0,0,58.13,35.28Zm0,18.81c-.23-.09-.38-.32-.55-.83l-.27-.87c0-.1-.11-.14-.18-.1s.08,1,.33,1.27.23.52-.09.52-.28.05-.19.63a3.13,3.13,0,0,0,.16.73c.1.17.41.11.49-.1a1,1,0,0,0-.05-.54c-.19-.49-.17-.64.07-.45a.6.6,0,0,1,.2.35.18.18,0,0,0,.19.18C58.57,54.88,58.47,54.23,58.11,54.09Zm1.47-2.16c-.22-.48-.55-.75-.72-.58s.08.26.27.48a3.18,3.18,0,0,1,.5,1,5,5,0,0,0,.27.79.47.47,0,0,0,.38.23c.38,0,.33-.44-.1-1A4.91,4.91,0,0,1,59.58,51.93ZM59,53.64c-.14,0-.3-.15-.42-.43s-.28-.66-.38-.92c-.2-.46-.56-.66-.43-.23A5.44,5.44,0,0,0,59,54.28c.42.23.52.15.4-.29C59.3,53.75,59.17,53.63,59,53.64Zm-2.4-2.34a1.09,1.09,0,0,1-.35.28c-.27.14-.27.14,0-.26s.18-.65-.3-.32a9.31,9.31,0,0,1-1,.55c-.66.31-1.13.74-.94.86a1,1,0,0,0,.6-.19,2.3,2.3,0,0,1,.73-.26.7.7,0,0,0,.41-.16c.09-.09,0,.05-.14.32s-.36.5-.42.5a2.89,2.89,0,0,0-1,.82c0,.18.38.14.72-.09a.7.7,0,0,1,.5-.13c.14.06.05.22-.35.65a2.92,2.92,0,0,1-.77.65c-.51.19-.19.53.39.41.28,0,.52-.3,1-1s.6-.85.68-.62a2.73,2.73,0,0,1,.12.75c0,.42-.06.53-.39.7a1.76,1.76,0,0,1-.57.2,1,1,0,0,0-.43.19c-.26.19-.26.2,0,.39s.25.21.05.28a.59.59,0,0,0-.3.28c0,.12,0,.19.17.19s.81-.57,1.49-1.42c.29-.36.33-1.74,0-1.85s-.25-.39.13-1,.44-.95.21-.95A.3.3,0,0,0,56.63,51.3Zm-.27-15c-.18-.07-.32-.22-.32-.34,0-.35-.53-1.25-.73-1.25s-.25.29.11.81a12.22,12.22,0,0,1,1,2.34c.1.25.16.28.38.16s.23-.21.2-.3-.12-.42-.2-.73S56.6,36.41,56.36,36.33Zm5.15,15.41a2.7,2.7,0,0,0,0,.81c.06.23.18.34.36.34s.25-.06.17-.69a3.29,3.29,0,0,0-.18-.83,6.77,6.77,0,0,1-.35-.85c-.22-.63-.48-1-.65-.79a2.67,2.67,0,0,0,.33.8A1.7,1.7,0,0,1,61.51,51.74Zm7.18,11.57a2.64,2.64,0,0,0-.94,1.46c.07.17.12.18.28,0a.59.59,0,0,0,.2-.39,1,1,0,0,1,.33-.54C68.93,63.54,69,63.19,68.69,63.31ZM56,50.66c.28-.07.41-.19.44-.4s0-.3-.26-.22a8,8,0,0,0-2.37,1.09c0,.23.15.22,1-.11A9.87,9.87,0,0,1,56,50.66Zm17,28.8c-.08.13,0,.39.3.8s.45.58.6.45.15-.23-.1-.64C73.37,79.4,73.11,79.2,73,79.46Zm-.53.6c-.19,0-.11.45.16.89s.74.6.59.13S72.59,80.06,72.44,80.06ZM69,64.32c-.22.44-.23.52-.07.63s.36.08.47-.34a3.43,3.43,0,0,1,.41-.86c.34-.55.4-.79.2-.79S69.3,63.65,69,64.32ZM53.87,35.87a1.74,1.74,0,0,0-.32-.84c-.19-.06-.22.32,0,.43a1.39,1.39,0,0,1,.21.57,2.72,2.72,0,0,0,.16.6C54,36.87,54,36.63,53.87,35.87Zm-.6,2.53c-.22-.24-.31-.59-.43-1.72a5,5,0,0,0-.27-1.41c-.15,0-.14.94,0,1.4a10.12,10.12,0,0,1,.26,1.38c.07.55.17,1.22.22,1.49s.14.5.35.5.26-.07.2-.67A1.64,1.64,0,0,0,53.27,38.4Zm-2.27-1a2.25,2.25,0,0,0-.12-1c-.1,0-.09,1,0,3.54,0,.22.1.3.31.3s.3-.08.3-.22a4.45,4.45,0,0,0-.42-1.43A3.83,3.83,0,0,1,51,37.36Zm1.26,1.18a2.72,2.72,0,0,1-.2-1.36c0-.88-.05-1.14-.26-1.42a1.27,1.27,0,0,1-.27-.68c0-.19-.06-.34-.13-.34s-.13.18-.13.4,0,.39.11.39c.23,0,.61,3,.56,4.48,0,.38,0,.43.34.43h.35l-.09-.81A3,3,0,0,0,52.26,38.54Zm-5.6,11c-.38-.3-.83-.35-.83-.1s.66.61,1.93,1.11c1,.42,1.66.51,1.66.25a2.06,2.06,0,0,0-.84-.41A6,6,0,0,1,46.66,49.58Zm3.21-19.33a1.8,1.8,0,0,0-.43-1.18c-.17-.06-.22.71-.08,1.09A.29.29,0,0,0,49.87,30.25Zm-2.72,23c-.2.06-.43-.07-.83-.45-.73-.71-1.14-1-1.51-1s-.36.32.16.51a5.25,5.25,0,0,1,1.16.74c.38.31.94.72,1.23.91.58.38.8.43.93.22S47.47,53.17,47.15,53.25ZM47,54.53c-.15-.15-.26-.17-.35-.08s0,.28.23.6.63.51.77.15c0-.1,0-.24-.18-.32A2.21,2.21,0,0,1,47,54.53Zm16.65-5.12c0-.36-.1-.63-.37-.63a.15.15,0,0,0-.16.17.85.85,0,0,1-.08.39c-.06.15,0,.38.26.69s.32.51.21.71-.09.3,0,.41.52.18.59-.11.12-.27.19-.27c.22,0,.11-.25-.29-.65A1,1,0,0,1,63.61,49.41ZM45.92,55.19c-.21.07-.19.14.14.55s.57.53.67.24S46.16,55.09,45.92,55.19ZM7.67,68.86c0,.28.87.27,1,0a.21.21,0,0,0-.12-.27C8.23,68.46,7.67,68.64,7.67,68.86ZM49.84,37.71a2.76,2.76,0,0,1-.12,1,2.25,2.25,0,0,0-.21,1.35.37.37,0,0,0,.29,0c.17,0,.21-.31.24-1.59A5.64,5.64,0,0,0,50,36.93C49.88,36.89,49.83,37.22,49.84,37.71Zm.24-2.77a1.4,1.4,0,0,0,0,.56c.1.3.32.17.24-.13a4.28,4.28,0,0,1-.1-.57C50.18,34.63,50.14,34.68,50.08,34.94ZM48.33,52c.44.15.82.09.82-.14,0-.07-.25-.2-.55-.28a1,1,0,0,0-.86,0c-.26.13-.35.13-.55,0a9.16,9.16,0,0,0-1.76-1.17c-.35,0,0,.5.67,1a10.73,10.73,0,0,1,1.13.88,5.09,5.09,0,0,0,.86.67c1,.6,1.25.2.32-.5C47.74,51.87,47.72,51.76,48.33,52Zm50,16.15c-.64,1.06-1.39,1.72-2,1.72-.4,0-.43-.19-.18-1.14.13-.5.13-.63,0-.68a.33.33,0,0,1-.16-.3.5.5,0,0,0-.23-.38c-.2-.11-.18-.2.21-1s.46-1.47,0-.89c-.14.19-.29.26-.44.2s-.29-.37,0-.6A3,3,0,0,0,96.19,64a1.55,1.55,0,0,0-.6-.15,1.13,1.13,0,0,1-.83-.42,8.46,8.46,0,0,0-1.64-1.8c-.27-.11-.46-.46-.33-.6s.24,0,.43.08.38.13.41.1-.49-1.09-1-1.64a6.39,6.39,0,0,1-1-1.47l-.44-.91-1.11-.08a8.46,8.46,0,0,0-1.61,0c-.45.07-.5,0-.46-.17s-.06-.26-.72-.29-.8-.1-.94-.31-.28-.24-.72-.17c-.63.1-.83-.1-.41-.4s.33-.27-.33-.45-.88-.09-.88.19-.63.44-2.35.37a8.28,8.28,0,0,0-4.35.69l-1.09.56c-.89.44-.26.49,1,.07.71-.24.77-.23,1.17.14s.41.31.78.19a8.38,8.38,0,0,1,1.7-.12,5.67,5.67,0,0,1,2.18.35,12,12,0,0,0,1.4.44A5.25,5.25,0,0,1,88,60.58c1.88,2.71,2.4,3.58,2.52,4.16.07.32.19.42.75.61A3.3,3.3,0,0,1,93.38,67a6.5,6.5,0,0,1,1.48,3.9,4.38,4.38,0,0,0,.22,1.56c.47,1.13,0,2.94-1.13,4.56-.23.33-.57.81-.74,1.07-.65,1-3.89,3.56-4.47,3.57-.43,0-.27-.58.3-1.14S90.2,79,89.9,79a.42.42,0,0,0-.31.22.22.22,0,0,1-.43-.09,2.34,2.34,0,0,1,.45-.62,3.09,3.09,0,0,0,.75-1.16s-.15,0-.33,0c-.61.15-.62-.09,0-.68s.8-1.07.28-.93-.48-.11.3-.88a3.84,3.84,0,0,0,.93-1.25l.16-.51-.7-.63a7,7,0,0,0-1.13-.85c-.3-.15-.43-.3-.43-.52a.5.5,0,0,0-.14-.39,4.94,4.94,0,0,1-.59-1,4.94,4.94,0,0,0-.59-1,.65.65,0,0,1-.14-.47,1.61,1.61,0,0,0-.84-1.45,4.92,4.92,0,0,0-2.27,0c-.1.17-.6.18-.6,0s.24-.2.53-.32c1-.38.48-1-.82-1-.38,0-.58-.2-.53-.53,0-.11-.24-.43-.57-.72a2,2,0,0,1-.6-.73.74.74,0,0,0-.58-.67,1.35,1.35,0,0,1-.49-.14c-.26-.14-.26-.16,0-.41s.21-.32.1-.49A2.36,2.36,0,0,0,79.72,61c-.56-.09-.65-.07-.71.15a5.81,5.81,0,0,1-2.44,1.51c-.33.08-1,.21-1.45.27-1.5.21-1.61.25-1.57.57s.78.44,1.7,0,1.12-.42,1.76-.15a3,3,0,0,1,1.5,3,6.25,6.25,0,0,1-2.57,4,2,2,0,0,0-.69.5c0,.24.57.63,1.25.84a2.86,2.86,0,0,1,1.92,3.35,7.18,7.18,0,0,1-1,2.28c-.7.87-.79,1-.73,1.41a5.39,5.39,0,0,1-.55,2.36A8.51,8.51,0,0,1,74.46,83,4.42,4.42,0,0,1,72,84.22a8.56,8.56,0,0,1-4.06-.11,11.57,11.57,0,0,1-3.38-1.65c-.26-.2-.87-.63-1.36-.95s-.89-.68-.89-.8.3-.54.92-.85a10.41,10.41,0,0,0,1.56-1.34c2.22-2.22,2.9-2.62,4.51-2.62h1.09v-.44a11.49,11.49,0,0,0-.26-1.61,3.59,3.59,0,0,1,.65-3.62c.68-1,.82-1.13,1.44-1.35.38-.14.69-.33.69-.42s-.22-.31-.47-.48a2.42,2.42,0,0,1-.72-.86l-.24-.54-1.84-.06a9.89,9.89,0,0,1-2.12-.22c-.23-.12-.39-.11-.77,0a8.15,8.15,0,0,1-4.22-.42l-.91-.32-.78.83-1.09-.09a7.4,7.4,0,0,1-1.32-.22c-.17-.09-.33-.06-.6.12s-.95.39-4,1c-1.93.36-2.55.32-5.4-.37a10.07,10.07,0,0,0-3.18-.13c-.19.06-.43,0-.77-.31a3.88,3.88,0,0,0-.57-.4,6.57,6.57,0,0,0-.8.42,2.27,2.27,0,0,1-2.95-.3c-.26-.26-.27-.26-1.36,0a14.3,14.3,0,0,1-3.62.54,6.42,6.42,0,0,0-1.52.19A17.64,17.64,0,0,1,30,67.7l-1.1.1.38.59A15.6,15.6,0,0,1,30,70a2.61,2.61,0,0,1,.34,1.56c-.05.34,0,.53.06.53s.12.08.08.18.14.46.41.8a2.57,2.57,0,0,1,.72,1.68c0,.45.05.45,1,.17a5.17,5.17,0,0,1,2.24-.07c1.65.15,2.07.31,2.59,1a5,5,0,0,1,1,2.24,5.73,5.73,0,0,0,.74,1.75c.58.72.45,1-.46,1a2.11,2.11,0,0,0-1.35.42,28,28,0,0,1-3.77,1.87,8.5,8.5,0,0,1-3.16.55,6.56,6.56,0,0,1-4.34-2.14c-.74-.76-.76-.8-.77-2.09v-.8l-.75-.06a1.44,1.44,0,0,1-1.5-1.15c-.21-.55-.22-.68,0-1.7a9,9,0,0,1,.63-2l.43-.86.92-.09c1-.1,1.62-.27,1.51-.44a6.06,6.06,0,0,0-.92-.54,3.18,3.18,0,0,1-2-2.18,4.58,4.58,0,0,1,.49-3.38,2.36,2.36,0,0,1,1-1.22,13.93,13.93,0,0,0,2.37-1.72,3.54,3.54,0,0,1,.48-.65c.4-.46.45-.59.3-.7a8.88,8.88,0,0,0-2.95.14,14.91,14.91,0,0,1-3.65.67,4,4,0,0,1-2.14-.4,1.05,1.05,0,0,1-.12-.5c0-.24,0-.28-.18-.17s-.6.36-1.13.64a2.68,2.68,0,0,0-1.08.78.77.77,0,0,1-.79.46,1.1,1.1,0,0,0-.59.4,3.57,3.57,0,0,1-1.15.74,8.48,8.48,0,0,0-1.15.55l-.33.21.45.15c.24.09.43.21.42.28a2.18,2.18,0,0,1-.89.21,4.43,4.43,0,0,0-1.73.58c-.75.41-.87.53-.87.85s.12.44.6.72a1.69,1.69,0,0,1,.59.45c0,.2-.49.66-1.05,1a4.26,4.26,0,0,0-.86.63l-.27.3.4-.05c.87-.11.23.53-1.56,1.52a2.44,2.44,0,0,0-1.16,1,3.07,3.07,0,0,0-.26.59s.21.06.48,0c.65,0,.71.22.12.5-.77.36-.61.59.4.59.48,0,.84,0,.8.11a1.26,1.26,0,0,0,.08.6c.14.45.18.48.53.41s.41-.06.15.9c0,.19,0,.21.31.15.5-.1,1.12.14,1,.4s0,.24,1.08.42a12.26,12.26,0,0,0,2.84,0c.57-.08.94.1.7.34a.61.61,0,0,0-.16.37c0,.26-2.55,1.57-4.11,2.12l-1.46.53a5.15,5.15,0,0,1-3.51,0,8.22,8.22,0,0,1-2.67-2.67,2.21,2.21,0,0,1-.63-1.92,3.09,3.09,0,0,1,.71-2.19c.23-.14.15-.3-.26-.55s-.51-.67.13-1.9c.29-.54.79-1.56,1.12-2.25s.8-1.62,1-2,.61-1.27.84-1.86c.36-.92.46-1,.72-1s.52-.15,1.13-1.3a8.79,8.79,0,0,1,1.16-1.6c.4-.41.8-.86.9-1A7.94,7.94,0,0,1,14.55,59l2.13-.28a7.77,7.77,0,0,1,1.66-.07,1.51,1.51,0,0,0,1.11-.26,3.32,3.32,0,0,1,.71-.32,2.93,2.93,0,0,0,.75-.38,7.16,7.16,0,0,1,1.1-.56c.73-.25.47-.39-.67-.36-1.78.05-3.63-.15-3.95-.45s-.34-.24-.86-.1a2.41,2.41,0,0,0-.77.32,1.34,1.34,0,0,1-.69.17c-.68,0-.84.13-.57.43s.06.47-.3.29a5.46,5.46,0,0,0-1.21-.2,3.66,3.66,0,0,1-1.12-.2,2.13,2.13,0,0,0-.69-.22,2.85,2.85,0,0,1-.89-.34,1.85,1.85,0,0,0-.42-.26,2.06,2.06,0,0,0-.3,1.12.46.46,0,0,1-.19.42.72.72,0,0,0-.22.58,1.66,1.66,0,0,1-.53,1,1.77,1.77,0,0,0-.56,1.07c0,.46-.34.78-1.52,1.41-.94.5-1.79,1.32-1.79,1.72,0,.18.07.35.15.38s.11.13,0,.35c-.24.44-.1.74.24.52s.53,0,.18.23-.7.59-.7.72.13.14.28.18.24.35-.07.35c-.1,0-.25.19-.33.42-.18.52-.18.48.09.55s.18.08-.1.22a3.81,3.81,0,0,0-.86.84c-.29.38-.8,1-1.14,1.35a7.14,7.14,0,0,0-1,1.44c-.29.63-.41.76-.65.72s-.3-.14-.33-.45-.12-.44-.3-.49-.32-.35,0-1.86a18.42,18.42,0,0,1,1.39-4.4,14.56,14.56,0,0,0,.7-1.46c.23-.58.24-.7.08-1-.26-.47-.23-.79.15-1.66a10.27,10.27,0,0,1,2.16-2.9c.42-.44,1.16-1.25,1.63-1.8.78-.9.87-1.07.93-1.7.18-1.84,2.05-2.41,8.12-2.45a20.13,20.13,0,0,0,2.84-.14,5.94,5.94,0,0,1,1.13-.35c.52-.13,1.21-.34,1.53-.46a7.86,7.86,0,0,1,1.59-.33c2.25-.21,4.75.42,8.15,2.06,1.94.94,4,1.66,4,1.38A5.68,5.68,0,0,0,33,52.69a1.39,1.39,0,0,1-.59-.36,6.38,6.38,0,0,0-2.82-1.5A19.31,19.31,0,0,1,27.2,50a5.91,5.91,0,0,0-3.08-.77c-.29,0-.55,0-.59,0a4.13,4.13,0,0,0-1.29-.1A4.16,4.16,0,0,1,21,49c0-.06-.2-.1-.36-.1a.89.89,0,0,1-.88-.72c0-.29-.06-.31-1.3-.4a12.63,12.63,0,0,1-2-.27,14.16,14.16,0,0,1-2.81-1.08,1.77,1.77,0,0,0-.6-.26,5.83,5.83,0,0,1-1.63-1.33c-1.2-1.22-1.46-1.69-1-1.86.21-.08.28-.58.08-.58-.51,0-5.38-5.76-6.11-7.22A4.25,4.25,0,0,0,4,34.6a.89.89,0,0,1-.1-1c.15-.23.16-.4,0-1.05-.22-1.06,0-1.76.91-3.06C6,27.8,7,26.93,7.8,26.76a3.73,3.73,0,0,0,.55-.16c.16-.07.23,0,.28.25s0,.37,0,.4a4.15,4.15,0,0,0-.66,1.27c0,.07.23,0,.53-.14.5-.26.53-.26.53,0s-.26.41-.64.66C7.59,29.51,7,30.07,7,30.32s0,.23.75-.22c1-.6,1-.48.1.36a13,13,0,0,0-1,1c-.18.24-.17.25.27.17s.46-.09.18.14c-.9.74-.56,1.66.91,2.41.49.25.9.64.9.86a1.27,1.27,0,0,0,.31.56,2.32,2.32,0,0,1,.4.66,1.5,1.5,0,0,0,.35.51.83.83,0,0,1,.26.35,2.69,2.69,0,0,0,.37.62l.82,1.16a7.62,7.62,0,0,0,.54.72,5.15,5.15,0,0,1,.39.53c.84,1.22,1.37,1.72,2.1,2a5,5,0,0,1,1.14.61,21.75,21.75,0,0,0,3.34,2.06c1.2.6,1.82.62,2,.06s.46-.65,1.21-.49c.6.13.71.12,1-.12s.39-.23.45-.19.13.42-.11.52-.22.1,0,.27.72.24,1.22-.14a1.7,1.7,0,0,1,.57-.33c.18,0,.19.36,0,.47a.29.29,0,0,0-.13.22c0,.07.14,0,.32-.08a1.43,1.43,0,0,1,.47-.21c.21,0,.16.4-.06.48-.39.15-.19.28.55.35a4.82,4.82,0,0,1,1.4.42,6.23,6.23,0,0,0,.71.34,1.72,1.72,0,0,0,.32-.43c.46-.76.34-1.29-.58-2.61-.38-.53-.38-.55-.15-.81a.79.79,0,0,1,.42-.26c.35,0,.16-.21-.56-.6s-.55-.41-4.34-.3c-1.41,0-1.59,0-1.75-.21s-.14-.33.14-.89a3.16,3.16,0,0,0,.32-.82c0-.34-.59-.71-1.65-1a20.89,20.89,0,0,0-3.29-.78,1.57,1.57,0,0,1-.84-.33c-.09-.22.27-.7,1.4-1.9.72-.76,1-1.2.71-1.2a5.1,5.1,0,0,0-.65.21,3.08,3.08,0,0,1-3.47-1.53,11.36,11.36,0,0,1-1.34-3.26,3.53,3.53,0,0,0-.4-1.12,1.54,1.54,0,0,1-.27-.49.83.83,0,0,0-.26-.39,1.41,1.41,0,0,1-.29-.59c0-.25,0-.33.35-.43,1.17-.34,1.27-.56,1.14-2.52a13.57,13.57,0,0,1,0-1.76c0-.58.06-.6.4-.52a4.84,4.84,0,0,0,1.53.26,2.61,2.61,0,0,0,.46-.88c.18-.46.43-1,.56-1.29s.39-.8.57-1.2a10.25,10.25,0,0,1,1.89-2.81,28.47,28.47,0,0,1,4.77-4,29.27,29.27,0,0,0,4.44-3.38c.57-.54.85-.71,1.15-.71s.41,0,.33.59c-.05.33,0,.6,0,.6a6.88,6.88,0,0,0,1-1,12.18,12.18,0,0,1,2-1.72,10.12,10.12,0,0,1,3-1.5c1.44-.48,4.2-.69,4.9-.37L42,5a6.29,6.29,0,0,1,1.5,1,2.73,2.73,0,0,1,.94,1.43,4.21,4.21,0,0,0,.6,1.22c.45.58.46.62.08.76s-.41,0-.94-.46a3.12,3.12,0,0,0-.8-.58,2.57,2.57,0,0,1-.68-.27,2.34,2.34,0,0,0-2-.06,1.35,1.35,0,0,1-.7.2c-.73,0-1.86.89-2.84,2.25-.68.94-1.43,2.91-1.1,2.91a2.41,2.41,0,0,0,1.16-.83,1.58,1.58,0,0,1,.91-.6,1,1,0,0,1,1.22.35c.24.26.24.26,1-.07s1.28-.42,1.61-.12.55.27,1.66-.33,2.47-.87,2.47-.57c0,.79-.71,1.66-2.15,2.69a1.61,1.61,0,0,0-.7.83c-.07.31-.13.36-.27.24s-.47,0-1.41.33c-2,.79-2.35,1-2.65,1.47-.2.33-.34.44-.51.39s-.39.12-.81.62A11.16,11.16,0,0,1,32,21.74l-2.42.86a12.6,12.6,0,0,1-1.88.54,5.35,5.35,0,0,0-2.3,1.28,2.8,2.8,0,0,0,.79.46,3,3,0,0,1,1.45,1.23,18.14,18.14,0,0,0,1.51,1.71c.73.7.93.82,1.34.82s.5-.06.6-.33a.88.88,0,0,0,.06-.51.25.25,0,0,1,.08-.29c.21-.13.75.56.83,1.07a6.6,6.6,0,0,0,.35,1c.24.56.36.67,1,1a4,4,0,0,1,2,1.65,2.48,2.48,0,0,0,.37.57c.26.16,1.09-.22,1.49-.67a1.06,1.06,0,0,0,.35-1.08c-.07-.62.17-1.41.46-1.51a1.83,1.83,0,0,1,.66.08c.45.12.61.09,1.45-.32,1.11-.54,1.16-.59,1.29-1.34s.6-1.06,1.24-.79a4.72,4.72,0,0,0,.89.25l.45.06-.1-.51c-.08-.46-.36-.85-.6-.85s-.37-1-.26-1.72A1.54,1.54,0,0,1,44.33,23c.77-.19,1.33.58,1.08,1.48-.17.62-.13.8.25,1.18s.37.33.63.14c.49-.36.59-.36,1.1.05s1.36.7,1.36.45c0-.08-.18-.2-.4-.28-.37-.13-.53-.45-.29-.6a1.16,1.16,0,0,0,.09-.64c0-.48,0-.57-.3-.61s-.38-.31-.09-.55.24-.42-.29-.89-.45-.46-.32-.62.05-.55-1-1.89a5.47,5.47,0,0,0-2.2-1.89c-.6-.28-.84-.64-.51-.76s1.87,1,2.78,2a9.63,9.63,0,0,1,2.7,5.29c.06.3.15.64.19.77s.11.32.15.42.17.13.66-.13a3.68,3.68,0,0,1,.74-.33,2.21,2.21,0,0,1,.6.45,5.64,5.64,0,0,0,.92.69c.57.31,1,.13,1.34-.55s.62-.84,1-.53a.53.53,0,0,0,.88-.19c0-.15.16-.26.26-.26.32,0,.37-.45.08-.65s-.35-.55.06-.55.39-.11.34-.49a.25.25,0,0,1,.18-.25q.21-.07.12-.39c-.05-.22,0-.34.13-.4a2.26,2.26,0,0,0,.6-.78,12.06,12.06,0,0,1,1-1.42c.31-.39.7-.91.86-1.17a5,5,0,0,1,1.49-1.46c.23,0-.09.61-.82,1.58-1.86,2.46-2.47,3.4-2.31,3.56a2.1,2.1,0,0,1-.35.81,3.41,3.41,0,0,0-.47,1.94c-.07,1.56,0,1.61,1.38,1.4a2.49,2.49,0,0,1,1.16,0c.1.08.26,0,.47-.14s.29-.3.17-.61a4.29,4.29,0,0,1-.19-2.58c.34-.33,1.63.64,1.89,1.42A1,1,0,0,1,61,26.16c-.25.15-.23.49,0,.8a1.36,1.36,0,0,1,.23.89v.64l.56.08a1.25,1.25,0,0,0,.83-.09c.25-.15.31-.13.53.16a2.23,2.23,0,0,1,.34.67,1.18,1.18,0,0,0,1.62.94c.38-.2.54.05.7,1,.2,1.22,1.13,2.5,1.7,2.35s.6.23.23,1.16c-.45,1.13-.44,1.44,0,1.78,1.06.76,2.88-.08,3.62-1.66A3.88,3.88,0,0,1,72,34a1.14,1.14,0,0,1,.63.23c.51.29.52.29,1.26.06A4.36,4.36,0,0,0,76.15,32a2.23,2.23,0,0,1,.53-.76.56.56,0,0,1,.69.52,1.35,1.35,0,0,0,1.42,1.39c.59,0,1.56-.55,1.61-.89a3.18,3.18,0,0,0-.78-1.67,1,1,0,0,1-.3-.37c-.1-.28-.83-.62-2.54-1.17a6.1,6.1,0,0,1-2.89-1.5c-1.36-1.18-1.62-1.64-3.59-6.33-1.09-2.57-1.18-2.74-1.63-2.95A4.39,4.39,0,0,0,67.59,18c-.83-.1-1.52-.51-3.34-2l-1.52-1.22-.51-1.22a14.06,14.06,0,0,1-1-5.16l-.08-1.78.31.1.33.12s.18.31.38.68A7.61,7.61,0,0,0,63,8.58a4.62,4.62,0,0,1,.63.86c.24.45.26.45,1,.41s1.36.17,1.68.77c.15.3.3.38.81.43a1.23,1.23,0,0,1,1,.52,1.46,1.46,0,0,1,.37.87c0,.27.07.43.18.43a2.87,2.87,0,0,1,.83.47c.74.53.88.55,1.8.24s1-.62.78-1.48a1.83,1.83,0,0,1-.09-.66,6.42,6.42,0,0,0-.61-2.28,17,17,0,0,1-.62-1.59,5.41,5.41,0,0,0-2.25-2.73c-.34-.18-.85-.47-1.15-.65a3.35,3.35,0,0,0-1.73-.39,3.5,3.5,0,0,0-2.16.32,6.29,6.29,0,0,1-1.22.4c-.37,0-.31-.54.11-1.08A13.42,13.42,0,0,1,65.14,1,11.58,11.58,0,0,1,70,0a8.85,8.85,0,0,1,3.24,1.29,3.06,3.06,0,0,0,.63.45,7.63,7.63,0,0,1,1.63,1.7,13.5,13.5,0,0,1,1,2.13,8.18,8.18,0,0,0,.78,1.69,1.45,1.45,0,0,0,.76.09c.7-.08,1.06.19,1.3,1,.16.56.52.77.52.32a.57.57,0,0,1,.6-.56c.43,0,.59.27.59,1a9.58,9.58,0,0,0,.81,3.27,18.06,18.06,0,0,0,3.69,4.69,8.64,8.64,0,0,1,2,2.54,8.17,8.17,0,0,1,1.17,2.48,1.77,1.77,0,0,0,.17.57,11.06,11.06,0,0,1,.45,4.73c0,.34,0,.41.31.45a1.19,1.19,0,0,1,.57.26A3,3,0,0,1,91,29.57c0,.23,0,.25.26.14a5,5,0,0,1,3.18.39,8.18,8.18,0,0,1,2.13,1.82,7.29,7.29,0,0,1,.39,3.3,7.63,7.63,0,0,0-.11,1.28,1.82,1.82,0,0,1-.19,1,4.06,4.06,0,0,0-.43.68c-.13.26-1,1.57-1.85,2.92S92.69,43.73,92.57,44a4.28,4.28,0,0,1-.61.83,2.61,2.61,0,0,0-.49.72,4.46,4.46,0,0,1-1.16,1.65,10.25,10.25,0,0,1-4.86,1.89,9.14,9.14,0,0,0-3.17.82,2.5,2.5,0,0,1-1.2.32,24.79,24.79,0,0,0-4.17.53c-.44.12-1.64.53-2.66.92a21.85,21.85,0,0,1-3.42,1c-1.43.26-1.57.27-1.79.07-.38-.34-.58-.25-1.15.56s-.54.76-.27,1,.35.19,1.2-.05a13.45,13.45,0,0,0,2-.79c.58-.29,1.36-.64,1.73-.78a46.86,46.86,0,0,1,7.56-1.68,3.13,3.13,0,0,1,2.37.7.71.71,0,0,0,1.08.13c.81-.57,4.34-.61,5.55-.07a6.85,6.85,0,0,1,2.67,2.41c.56.88.73,1,1.36.91a2.52,2.52,0,0,1,1.6.79,9.4,9.4,0,0,1,.68,1.34,6.44,6.44,0,0,0,1.77,2.37c1.53,1.55,1.84,2,1.75,2.76a3.92,3.92,0,0,0,.26,1.43C99.73,65.36,99.59,66.08,98.36,68.13Zm-34.49-65c0-.15-.2-.12-.26,0s0,.13.11.1S63.87,3.22,63.87,3.16Zm3.21,0c0-.12,0-.19-.11-.19a.22.22,0,0,1-.2-.24c0-.23-.64-.62-.78-.48s.08.22.28.39.33.39.29.52,0,.2.18.2A.37.37,0,0,0,67.08,3.13ZM62.27,9.3a.28.28,0,0,0-.14-.2c-.07,0-.13,0-.13.12s.06.21.13.21A.14.14,0,0,0,62.27,9.3ZM43.85,12.88c0,.19.34.15.52-.07s.11-.5-.23-.26C44,12.66,43.85,12.81,43.85,12.88Zm-1,.31c0,.05,0,.15.1.21s.36,0,.16-.16S42.88,13.13,42.82,13.19Zm-.82.49c.18.34.26.32.26-.08,0-.2-.08-.33-.2-.33S41.81,13.34,42,13.68ZM41.41,7.2c.16.25.33-.11.41-.87,0-.51,0-.74-.08-.74s-.15.25-.15.65a1.43,1.43,0,0,1-.13.74A.16.16,0,0,0,41.41,7.2ZM5.63,32.61c.54-.33.59-.66.12-.66s-.42-.36.12-.61.74-.91.32-1-.29-.29.26-.73a2.27,2.27,0,0,0,.74-1.07,1.76,1.76,0,0,0,.17-.76c-.15-.15-1.31,1-2,2a8.5,8.5,0,0,0-.86,1.53,1.09,1.09,0,0,0,0,1.09C4.84,33,5,33,5.63,32.61Zm6.65,9.67a3.27,3.27,0,0,0,.52-.19c.48-.2.48-.2.23-.5l-.29-.34s-.11,0-.2.09a.3.3,0,0,1-.37,0,1.41,1.41,0,0,0-.63-.13c-.3,0-.43,0-.39-.17s.29-.16.67-.15h.6l-.18-.35c-.28-.55-.54-.7-1-.61s-.94-.11-.63-.32a1.09,1.09,0,0,1,.5-.13c.26,0,.28,0,.16-.26S11,39,10.59,39A1.4,1.4,0,0,1,10,39c-.14-.14.07-.37.34-.37s.44-.21.19-.45-.45-.27-.82,0a.52.52,0,0,1-.43.13c-.27-.17-.12-.45.33-.61.26-.1.47-.21.47-.26s-.42-.26-.66-.12a.8.8,0,0,1-.55,0l-.29-.11.3-.21a.62.62,0,0,1,.48-.14c.22.08.24-.14.05-.5-.1-.19-.23-.23-.52-.17a1.94,1.94,0,0,1-.76,0L7.74,36l.33-.18a1.52,1.52,0,0,1,.57-.19c.45,0,.15-.33-.45-.47-.44-.11-.6-.21-.63-.43,0-.37-.2-.48-1.16-.82s-1.58-.33-1.58,0a13.34,13.34,0,0,0,2,2.87c.3.33.89,1,1.32,1.6s.89,1.11,1,1.25.36.44.52.66A5.88,5.88,0,0,0,12.28,42.28Zm6.9,3.39A14.58,14.58,0,0,1,16.35,44a8.38,8.38,0,0,0-2.8-1.45,3.09,3.09,0,0,0-1,.33,3.39,3.39,0,0,1-.85.33c-.31,0-.25.19.19.66.29.31.46.4.63.33a2.74,2.74,0,0,1,.63-.16l.4,0-.38.32c-.42.36-.39.55.11.68a.85.85,0,0,0,.72-.21.8.8,0,0,1,.62-.2c.19.08.17.13-.14.42-.59.55-.09.84.56.33.35-.28.83-.36.83-.13,0,.07-.15.2-.34.29s-.32.24-.3.36c.07.33.62.33,1,0a.81.81,0,0,1,.59-.24l.3,0-.28.32a1.12,1.12,0,0,0-.28.43c0,.19.89.12,1.06-.09a.62.62,0,0,1,.43-.2c.2,0,.25.07.2.27s0,.27.41.34.54.1.62.12.41-.2.52-.56S19.8,46,19.18,45.67Zm8.59,1.21a1.48,1.48,0,0,0-1.09-.54c-.36-.05-1.09-.18-1.62-.29A3.18,3.18,0,0,0,24,45.94c-.08,0-.32-.11-.53-.34s-.47-.41-.74-.34a.71.71,0,0,1-.53-.06c-.25-.21-.41-.07-.51.43a4.38,4.38,0,0,1-.54,1.16c-.58.92-.59,1.15,0,1.23s.73,0,1.23-1c.26-.51.55-.91.66-.91s.19.06.19.12a7.1,7.1,0,0,1-.59,1.49c-.37.67,0,.52.75-.31s.76-.8.76-.5a1.21,1.21,0,0,1-.25.66c-.34.43-.33.56,0,.51a1,1,0,0,0,.54-.54c.25-.49.53-.63.69-.37a.5.5,0,0,1-.06.41c-.09.15-.12.31-.08.35a5.43,5.43,0,0,0,1.66.35c.27,0,.48.1.51.22s.3.53.44.53.2-.2.3-.43C28.25,47.67,28.24,47.37,27.77,46.88Zm1,2.47a.79.79,0,0,0-.13-.3c-.12-.18-.15-.18-.27,0s-.16.39.14.39C28.62,49.44,28.74,49.4,28.74,49.35ZM4.23,63.63c0-1.44-1.53.58-2.25,3-.38,1.29-.37,1.4.16,1.3l.43-.07-.43.31a.86.86,0,0,0-.43.63v.32l.35-.32c.2-.17.6-.56.89-.85s.53-.62.51-.8a.77.77,0,0,1,.3-.58c.36-.35.43-.57.17-.53-.49.06-.54,0-.19-.38.51-.53.45-.74-.11-.41s-.64.1-.13-.3c.25-.2.31-.34.25-.59s0-.32.2-.32S4.23,63.94,4.23,63.63ZM8.8,56.1a.77.77,0,0,0-.66-.69c-.08,0-.28.32-.47.7a9.74,9.74,0,0,1-1.94,2.28c-2.29,2.26-2.62,2.82-2,3.47a.69.69,0,0,0,1.14,0c.16-.19.25-.34.19-.35l-.29,0a.31.31,0,0,1-.24-.25c0-.19,0-.23.41-.23,1.11,0,1.75-.35.79-.43-.36,0-.51-.11-.55-.29s0-.24.69-.16,1.17-.1.48-.23c-.23,0-.39-.17-.39-.28s.15-.2.65-.2.67-.06.72-.21S7.29,59,7,59c-.5,0-.74-.23-.46-.41a1.62,1.62,0,0,1,.68-.12c.35,0,.53-.08.63-.26s.09-.29,0-.34-.15-.46.07-.46.2-.12.2-.27.09-.26.33-.26.34-.08.35-.23S8.78,56.27,8.8,56.1ZM17,52.62a5.21,5.21,0,0,0-1.39,0,12.54,12.54,0,0,1-3.74.2c-1.29-.24-3,.22-3,.81a3.72,3.72,0,0,0,.41.92c.37.66.67.86.85.56s.33-.14.41.2.52.58.69.41,0-.27-.14-.49c-.28-.5-.3-.91,0-.91.12,0,.36.33.58.83L12,56,12,55.18c-.06-.69,0-.83.12-.83s.23.2.3.69c.1.75.25,1,.57,1,.13,0,.18-.09.13-.3s-.14-.58-.24-.92a1.52,1.52,0,0,1-.09-.71c.16-.16.5.23.5.56s.33,1.11.45,1.11a3,3,0,0,0,0-.8c-.05-.56,0-.79.08-.79s.17,0,.42,1c.09.35.24.63.33.63.3,0,.33-.22.11-.66s-.31-1.1-.13-1.2.24.1.48.76.41.57.36.07.2-.54.4.07c.1.31.25.53.32.48a.32.32,0,0,0,.05-.32c-.13-.4.15-.42.43,0s.3.34.71.23.46-.19.68-1.05C18.27,52.72,18.26,52.71,17,52.62Zm1.66,2.32c0-.12-.06-.17-.13-.13a.15.15,0,0,0-.06.21C18.59,55.2,18.67,55.17,18.67,54.94Zm.26-1.07c0-.19-.05-.3-.13-.25a.58.58,0,0,0-.13.41c0,.19.06.3.13.25A.57.57,0,0,0,18.93,53.87ZM8,67a.94.94,0,0,0,1.06-.15c.13-.13,0-.29-.5-.77s-.7-.56-.75-.47A1.67,1.67,0,0,0,8,67ZM6.1,76.85c-.57,0-.81-.07-.81-.2a.19.19,0,0,1,.2-.17c.36,0,.19-.33-.41-.77s-1-.44-1.23.42-.19,1.21,0,1.42a5.69,5.69,0,0,1,.68.87A5.88,5.88,0,0,0,7,80.5a4.25,4.25,0,0,0,2.58-.14c1.08-.34,2.77-1.23,2.62-1.38s-.89-.09-.89.15-.59.33-.78.08-.26-.17-.75-.07c-1.1.24-1.9.3-1.8.14a.88.88,0,0,1,.58-.15A1.65,1.65,0,0,0,9.26,79c.15-.1.11-.15-.2-.27a1.69,1.69,0,0,0-1.47-.1c-.66.34-1,.4-1,.2s.31-.27.8-.41.79-.28.79-.35-.31-.16-.94.13-1.25.34-1.38.13.48-.39,1-.39.57-.11.27-.41-.34-.24-.78-.14-.57.07-.61,0c-.15-.24.11-.38.7-.38C7.34,77,7.06,76.88,6.1,76.85Zm3.32-8.09a.7.7,0,0,1-.16-.45c0-.27,0-.29-.34-.18a1.26,1.26,0,0,1-1.52-.35,1.82,1.82,0,0,0-.58-.43,6.42,6.42,0,0,0-.61,1.54,7.61,7.61,0,0,1-1,1.82c-.3.47-1.24,2-1.34,2.16s.11.27.6.49c.87.39.81.39,1.19.08s.24-.5-.2-.21-.69.17-.55-.06a5.24,5.24,0,0,1,.83-.54c.42-.23.78-.44.8-.46s0-.13,0-.25-.21-.21-.55-.18-.49,0-.52-.12.79-.32.91-.13.87-.17,1.58-.74.67-.78-.18-.43c-.18.07-.23,0-.23-.19s-.06-.27-.33-.2c-.46.11-.43-.18,0-.35a1.14,1.14,0,0,1,.65-.06,1.84,1.84,0,0,0,.94-.23C9.64,68.91,9.6,69,9.42,68.76Zm9.45-8.21a1.35,1.35,0,0,1-.33-.58.43.43,0,0,0-.24-.3,18.08,18.08,0,0,0-5.39.63A8.68,8.68,0,0,0,11,61.7c-1.33,1.09-2.17,2.64-1.87,3.43a2.14,2.14,0,0,0,1.53,1,1.24,1.24,0,0,0,.64-.19c.24-.18.24-.19,0-.33a1.49,1.49,0,0,0-.53-.14c-.32,0-.57-.29-.44-.5s.27-.09.79.11a4.24,4.24,0,0,0,1,.26c.48,0,.27-.24-.4-.47-.38-.12-.67-.3-.67-.4,0-.28.4-.22,1.56.22.16.06.32.06.36,0s-.13-.15-.38-.19c-.55-.1-.85-.42-.63-.64s.31-.07.79.15c.89.42,1.37.32.6-.11a1.82,1.82,0,0,1-.63-.5c-.14-.36.31-.32.86.08s.74.48,1.05.28c.16-.1.15-.17-.08-.43-.39-.42-.61-.87-.47-.95s.34.14.61.4.51.44.69.3.18-.19-.05-.38-.6-.76-.44-.86a.15.15,0,0,1,.2,0,4,4,0,0,0,.59.53c.5.4.52.4.8.17l.29-.23L16.43,62c-.51-.65-.32-.85.27-.29.21.2.45.32.57.27s.18-.13,0-.56c-.27-.63-.15-.72.33-.26s.42.36.83.2C19.19,61.07,19.23,61,18.87,60.55Zm.87-.6c0,.2.05.36.12.36s.13,0,.12-.1a1.62,1.62,0,0,0-.12-.36C19.76,59.61,19.75,59.63,19.74,60Zm.67.76a1.62,1.62,0,0,0-.55.72c0,.14.18.07.42-.14S20.61,60.71,20.41,60.71Zm.38-1.22c0-.23-.23-.45-.35-.33a.94.94,0,0,0,0,.5c.07.31.12.37.21.24A1,1,0,0,0,20.79,59.49Zm65.52,5.26c-.22.16-.23.19,0,.2a.59.59,0,0,0,.38-.2C86.86,64.5,86.64,64.49,86.31,64.75Zm5.11,11.6a.13.13,0,1,0,.26,0,.13.13,0,1,0-.26,0Zm2.35-3.16c-.29,0-.37,0-.44.29a.83.83,0,0,0,0,.48c0,.07-.16.43-.46.78-.6.73-.66.89-.26.67s.44,0-.22.65a3.81,3.81,0,0,0-1.12,1.6s.18-.12.39-.36c.37-.4.68-.55.68-.32a5.48,5.48,0,0,1-.61.82C91,78.66,90.82,79,91,79a3.56,3.56,0,0,0,.81-.77c1.59-1.77,2.45-3.43,2.37-4.49C94.14,73.3,94.09,73.23,93.77,73.19Zm-1.77,2c.11-.28.1-.32,0-.32s-.15.12-.18.26C91.69,75.47,91.88,75.51,92,75.21Zm.5-1.47a.77.77,0,0,0,.24-.33c0-.2-.29-.12-.47.12C91.93,74,92.09,74.11,92.5,73.74Zm-3.22-6.09c0,.58.27.82.47.49a2.09,2.09,0,0,1,.64-.32c.31-.1.67-.23.8-.29.48-.19.2.21-.33.48-1.62.82-1.37,1.79.27,1,.69-.31.64-.3.73-.07s-.16.33-.65.6c-.76.43-.84.54-.53.79.15.13.3.11.7-.1a4.55,4.55,0,0,1,1-.35l.52-.08-.59.28c-1,.48-1.33.94-.87,1.32.15.12.36.1,1-.13,1.14-.4,1.21-.22.16.41-.25.15-.4.32-.35.4s1.25.06,1.39-.16A3.06,3.06,0,0,0,93.79,70a10.61,10.61,0,0,0-1.41-2.68,2,2,0,0,0-1.07-.79c-.84-.32-1-.33-1.42-.05s-.43.45-.14.45.37.24.07.4-.29.11-.35-.13C89.35,66.74,89.22,67,89.28,67.65ZM79.89,60s.21.06.47,0c.43-.06.54,0,1.1.52a3.85,3.85,0,0,0,.7.59c.06,0,.22-.18.38-.4s.37-.4.47-.4c.27,0,.24.1-.23.69l-.41.52.23.49.23.49.45-.53a4.12,4.12,0,0,0,.53-.76.32.32,0,0,1,.26-.23c.35,0,.21.66-.27,1.24s-.57.93-.25,1.3.45.31.45.09a7,7,0,0,1,1.28-2.1c.2,0,.24.47.06.58a3.26,3.26,0,0,0-.68,1.41c0,.17-.09.26-.28.26s-.26,0-.12.2.42.23.8-.23c.83-1,1-1.23,1.18-1.09s.08.21-.09.4a4.37,4.37,0,0,0-1,1.44c0,.44.59.2,1.35-.55.61-.6.78-.71.84-.54a.66.66,0,0,1-.12.52c-.3.42-.27.53.12.43s.45.41-.07.68-.5.38-.26.53c.08,0,.38-.14.68-.41s.56-.44.65-.3,0,.31-.3.6c-.64.66-.09,1,.63.4l.36-.31-.44-1.29a12,12,0,0,0-2.28-4,3.22,3.22,0,0,0-2.08-1,2.9,2.9,0,0,1-.92-.27,3.1,3.1,0,0,0-.81-.26.59.59,0,0,1-.4-.2,1.1,1.1,0,0,0-1.25,0A7.49,7.49,0,0,0,79.89,60Zm-.37-1c0,.54.11.56.41,0s.28-.57-.07-.52S79.55,58.62,79.52,59Zm-11.1-1.24c.11,0,.2-.37.25-.88a10.52,10.52,0,0,1,.16-1.19c.07-.27,0-.36-.11-.36-.33,0-.47.29-.56,1.28S68.12,57.83,68.42,57.71Zm-1.25-.94c0,.91.17,1.11.27.31a1.75,1.75,0,0,1,.23-.77c.23-.23.2-.77,0-.77S67.17,56,67.17,56.77Zm2.4-5.87c-.18,0-.41.32-.41.57s.3.21.41-.21C69.62,51.07,69.62,50.9,69.57,50.9Zm11.11-2c0-.73-.29-1.15-.8-1.15s-.46,0-.1.71C80.44,49.72,80.68,49.84,80.68,48.87ZM89.78,45a1.85,1.85,0,0,1-.33-.68c-.2-.67-.49-.69-1.49-.13a26.25,26.25,0,0,1-2.84,1.34c-2.16.95-4,2-4,2.24,0,.07,0,.42,0,.79,0,.76.18.84.48.25.2-.38.57-.47.49-.13,0,.1.07.14.2.12s.22-.15.2-.33c-.06-.39.23-.54.45-.24s.26.22,1.1.08a12.13,12.13,0,0,1,1.39-.15H86l-.17-1,.5.08a1.63,1.63,0,0,1,.75.33c.27.27.36.29.61.13s.14-.2,0-.47c-.17-.46-.17-.48,0-.48s.24.12.34.27c.2.33.42.34.42,0s.21-.48.33-.28a.15.15,0,0,0,.21.06c.07,0,0-.19-.17-.32-.35-.28-.21-.53.17-.3s.52.2.52-.15a.42.42,0,0,1,.2-.39C90,45.46,90,45.16,89.78,45Zm6.12-8.33c0-.17-.28-.29-.83-.42L94.3,36l-.58.65a4.54,4.54,0,0,0-.57.74,4.34,4.34,0,0,1-.4.67A14.13,14.13,0,0,0,91,41.89a11.61,11.61,0,0,1-.44,1.2c-.33.77-.21,1.19.35,1.19a.7.7,0,0,0,.49-.14.34.34,0,0,0-.08-.33c-.2-.24-.06-.45.24-.37s.3,0,.42-.27.15-.36,0-.55c-.4-.4-.2-.61.32-.33.2.11.29.07.47-.2s.2-.35,0-.58S92.4,41,92.55,41a1.45,1.45,0,0,1,.32.17c.22.13.3.12.47-.1a1.1,1.1,0,0,0,.16-.66c0-.33,0-.39.25-.36s.68-.56.45-.7a.34.34,0,0,1-.13-.28c0-.13.09-.17.3-.11s.38-.06.94-1A4.23,4.23,0,0,0,95.9,36.63Zm-2.74-5.84c0,.08,0,.2.16.26a.42.42,0,0,1,.22.3,1.13,1.13,0,0,0,.26.5c.14.19.22.37.17.42a1.82,1.82,0,0,0-.11.7c0,.55,0,.61.36.74s.49.31.11.43-.33.29,0,.47.24.19.13.3-.17.43.22.58,1,.21,1.16,0,0-.17-.19-.21c-.33-.09-.35-.21-.08-.44a.7.7,0,0,0,.2-.48.44.44,0,0,0-.2-.4c-.28-.11-.24-.4.07-.48.14,0,.26-.13.26-.21s-.32-.5-.56-.59-.13-.1,0-.23,0-.29-.47-.77C94.2,31.06,93.24,30.55,93.16,30.79Zm-1.91,1.36a5.94,5.94,0,0,1,.9.35c.24.17,1,.31,1,.17s-.36-.63-.91-.9a3.47,3.47,0,0,1-.8-.53c-.19-.23-.09-.48.2-.48s.23-.22,0-.3l-.46-.16c-.17-.07-.23,0-.23.15a1.79,1.79,0,0,1-.2.63C90.35,31.73,90.42,31.88,91.25,32.15Zm-2,4.08c-.64.74-.75,1.16-.32,1.16.11,0,.24.13.29.29.1.33-.34.77-1.65,1.65a14.28,14.28,0,0,0-2.8,2.72c0,.09.17.3.37.46s.35.31.14.52-.57.26-1.43.33a6.27,6.27,0,0,0-2.89.9,16.06,16.06,0,0,1-1.84.81,8.4,8.4,0,0,0-1,.28,11.65,11.65,0,0,1-5,.07l-1.08-.23-.52.5a3,3,0,0,0-1,1.56c0,.28.12.26.38-.06l.22-.28.6.27c.91.41,1.34.36.79-.1-.18-.15-.23-.28-.14-.4s.25-.11.85.23c.93.52,1.06.53,1,0s.09-.52.76-.06l.49.33.73-.27,1.49-.54c.89-.33,1.3-.26,1.61.28a1.05,1.05,0,0,0,.58.47,3.91,3.91,0,0,0,2.16-.68,7.29,7.29,0,0,1,.94-.57,2.82,2.82,0,0,0,.83-.63c.2-.25.36-.33.57-.27a.84.84,0,0,0,.54-.07c.24-.12.24-.15,0-.38s-.21-.26,0-.34a3,3,0,0,1,.93,0c.76.09,1,0,.65-.24s-.08-.5.56-.41a1.53,1.53,0,0,0,1.1-.18,2.76,2.76,0,0,1,1-.28c.55,0,.69-.2,1.2-1.81.4-1.25.4-1.23.07-1.23s-.3-.34.23-.58a1.89,1.89,0,0,0,.8-.74c.31-.56.23-.78-.18-.47s-.72.26-.72.08A2.61,2.61,0,0,1,92,37.65c.15,0,.26,0,.26,0a1.93,1.93,0,0,1,.08-.27c.06-.15,0-.21-.19-.21-.46,0-.33-.22.31-.53s1.13-.82,1.13-1.19-.26-.5-1.1-1-.82-.67,0-.55c.33.05.6,0,.6,0a6.66,6.66,0,0,0-1.55-1.17c-.42-.23-.8.24-1,1.21A4.12,4.12,0,0,1,89.27,36.23Zm-18,7.47c.11.81.42,1.22.64.86a2.62,2.62,0,0,0-.56-1.44C71.16,43.07,71.14,43.2,71.22,43.7ZM70.83,5.44a.6.6,0,0,0-.22.29c0,.21.12.13.28-.18S71,5.27,70.83,5.44Zm1.84,2.4a4.16,4.16,0,0,1,1-.66c.2,0,.22.48,0,.6a3.62,3.62,0,0,0-.92,1.67.62.62,0,0,1-.13.44c-.19.12-.16.33.05.33s.41-.29.68-.65h0c.46-.61.52-.65.89-.54s.47.05,1-.43a5.79,5.79,0,0,1,.91-.68c.45-.2.35-.4-.15-.32s-.82-.12-.6-.39A.5.5,0,0,1,75.73,7c.11,0,.18-.13.18-.33s-.11-.39-.48-.34-.36-.29-.12-.46.21-.66-.25-.66-.59-.25-.21-.46c.22-.11.25-.19.13-.4s-.27-.26-.66-.26c-.59,0-.73-.28-.26-.53s.2-.4-.4-.4-.77-.18-.51-.48.13-.24-.08-.39a1,1,0,0,0-.51-.19,1.19,1.19,0,0,1-.62-.4c-.4-.42-.8-.52-.8-.2,0,.11-.11.2-.26.2a.24.24,0,0,1-.27-.27c0-.34-.35-.48-.68-.28a.46.46,0,0,1-.5,0,.85.85,0,0,0-1.13.2c-.18.19-.38.31-.45.27-.23-.14-.28.13-.08.41s.3.26.64.23.48,0,.6.29A.94.94,0,0,1,69,3.7c-.2.29-.17.56.07.56.06,0,.22-.27.34-.59.31-.81.52-1,.86-.67a.67.67,0,0,1,0,1c-.32.27-.6.89-.45,1s.5-.17.6-.6.53-1.06.71-1.06a1.33,1.33,0,0,1,.26.6c.15.5.15.63,0,.82s-.15.2.24,0,.63-.27.89,0,.16.27-.25.83a6.81,6.81,0,0,1-.72.88c-.27.25-.38.74-.16.74A2.59,2.59,0,0,0,72,6.55c.72-.9.92-1,1-.6s-.14.85-.71,1.53C71.51,8.44,71.71,8.65,72.67,7.84ZM73.18,11c-.34.29-.18.51.2.27a.21.21,0,0,0,.09-.27C73.4,10.91,73.33,10.91,73.18,11ZM68,13.1c0-.08-.09,0-.21.06-.27.27-.15.48.39.72s.88.23.88,0-.24-.3-.53-.42S68,13.18,68,13.1Zm-4.9.17c0-.14-.06-.26-.13-.26s-.13.12-.13.26.05.27.13.27S63.06,13.42,63.06,13.27Zm.66,1c0-.12-.06-.17-.13-.13a.3.3,0,0,0-.13.21.12.12,0,0,0,.13.12C63.66,14.46,63.72,14.37,63.72,14.26Zm.78,1.06s0-.14-.09-.22-.16-.1-.16,0S64.41,15.41,64.5,15.32Zm15,11.87c-.12-.14-.7.68-.7,1,0,.49.17.38.48-.31A2,2,0,0,0,79.53,27.19Zm.1-1.54a3,3,0,0,1,.68-.93c.58-.62.75-.72,1.09-.69s.41.09.39.39l0,.35.72-.2c.86-.24,1-.17,1.33.74s.51,1.1,1.44,1a3.19,3.19,0,0,0,.93-.2c.23-.21.6-.13.6.14s.15.3.45.4a2.32,2.32,0,0,1,.78.48c.45.44.53.27.53-1.06a11.27,11.27,0,0,0-1.67-5.81,9.55,9.55,0,0,0-2.44-3,25.54,25.54,0,0,1-2-2.09,20.11,20.11,0,0,1-1.76-2.78,7.28,7.28,0,0,1-.54-1.32C79.91,10,79.87,10,79.56,10c-.79,0-1.13-.32-1.32-1.23-.07-.31-.14-.36-.54-.36-1,0-2.1,1-2.92,2.57a7.38,7.38,0,0,1-3.08,3.48,5.21,5.21,0,0,1-3.92,0,6.15,6.15,0,0,1-1.61-.9,3.5,3.5,0,0,0-.66-.5c-.24,0-.86-.57-.86-.8,0-.4.43-.29.73.18a1,1,0,0,0,.73.51c.25,0,.58.13.73.18s.32,0,.46-.25.26-.34.36-.34.22-.2,0-.39-.22-.11-.33.1a1.27,1.27,0,0,0-.14.49c0,.13-.09.2-.23.17s-.25-.46,0-.78.23-.39-.38-.39a1.47,1.47,0,0,1-.73-.15c-.11-.12-.17-.11-.24.06a.29.29,0,0,1-.52.09,1.15,1.15,0,0,1,.08-.61c.1-.31.11-.52,0-.6s-.56.24-.56.69c0,.21,0,.39-.06.39-.22,0-.47-.2-.47-.38s-.78-.78-.85-.65a3.48,3.48,0,0,0-.31.81c.37.16.56.37.53.6s0,.28.22.28c.42,0,.56.3.39.8s-.12.46.05.58a1.91,1.91,0,0,1,.42.59c.16.31.29.41.44.36s.43.13.43.53a.83.83,0,0,0,.25.5c.22.2.27.2.41,0s.41-.24.41.19a1,1,0,0,0,.21.6c.2.2.24.2.53-.07s.71-.26.71.21,0,.33.5.25c.27-.05.52-.14.54-.21a.77.77,0,0,1,.31-.25c.43-.23.64.07.64.9a1.55,1.55,0,0,0,.44,1.28A3.2,3.2,0,0,1,71,19.73a1.74,1.74,0,0,0,.44.89.37.37,0,0,1,.17.47,1.57,1.57,0,0,0,.13.87c.22.59.37.71.54.44s.34.22.21.57c-.17.51,0,1.22.35,1.37a.92.92,0,0,1,.43.66,6.22,6.22,0,0,0,.28.86c.13.32.14.31.36-.32.31-.89.53-.93.45-.09a1.29,1.29,0,0,0,.15,1,1.16,1.16,0,0,1,.21.54c0,.15.1.24.27.24s.25-.05.14-.24a1.84,1.84,0,0,1,.51-1.41c.18-.12.18,0,0,.36a2.15,2.15,0,0,0,.58,2c.46.18.62.15.62-.12h0A2.35,2.35,0,0,1,77,27c.17-.41.25-.47.66-.47s.56.12.27.64a1.56,1.56,0,0,0-.2.49c0,.31.25.17.47-.24a1.14,1.14,0,0,1,.58-.53A1.72,1.72,0,0,0,79.63,25.65Zm1.56-.52c-.1-.1-.75.44-.92.77s0,.16.36-.17.54-.48.57-.5S81.23,25.17,81.19,25.13Zm.35,6.66a7.2,7.2,0,0,0,.81-.3c1-.4,1.25-.41,1.25-.06,0,.14-.08.26-.19.26a3.15,3.15,0,0,0-.75.26c-.41.18-.64.22-.81.12s-.24-.07-.24.13c0,.71.28.83,1.11.48.6-.25.61-.25.61.06s-.18.31-.69.47a6,6,0,0,1-1.07.26A.62.62,0,0,0,81,34c0,.22.32.24.85,0,.86-.33,1.24,0,.47.4a.58.58,0,0,0-.39.51,1.27,1.27,0,0,1-.4.68,1.42,1.42,0,0,0-.4.53A13.6,13.6,0,0,0,82,38.69c.35.72.66.85.6.24,0-.26,0-.35.2-.35a2.44,2.44,0,0,1,1.1,1.24c0,.23-.33.37-.62.26s-.19,0-.11.24.71,1,.93,1a2.65,2.65,0,0,0,.71-.66,21,21,0,0,1,2.74-2.46c.35-.27.35-.28.13-.62s-.2-.75.66-1.68c1.07-1.15,1.54-2.39,1.07-2.78s-.35-.84.12-1.81c.68-1.38.69-1.61.18-2.28-.26-.33-.55-.56-.71-.56A24.76,24.76,0,0,1,86.18,28a11.81,11.81,0,0,1-1.63-.67c-.92-.44-1.14-.61-1.3-1s-.26-.45-.35-.45a2.56,2.56,0,0,0-1.42,1.3.85.85,0,0,1-.25.43,2.65,2.65,0,0,0-.4.81c-.11.33-.26.56-.42.6s-.26.09-.26.12S81.42,31.59,81.54,31.79ZM71.21,38.17a5.41,5.41,0,0,0,.6,1.07c.21,0,.39.76.39,1.63a2.31,2.31,0,0,0,.33,1.49,2.77,2.77,0,0,1,.34.72,1.29,1.29,0,0,0,.26.54c.31.39.34.79.06.79-.12,0-.32-.26-.47-.6s-.31-.59-.37-.59c-.26,0-.25.22.07.8s.35.65,1.74.86l.5.08-.34-.27c-.55-.44,0-.51.83-.1,1.21.59,1.84.55,1.16-.07s-.33-.76.47-.25a2,2,0,0,0,1.9.26c.51-.18.52-.26,0-.54-.22-.13-.4-.32-.4-.44s.09-.25.83.12c.53.27.7.3,1,.19s.64-.38.33-.38-.86-.39-.86-.61.09-.23.84.15.84.36.61-.07,0-1.72.26-1.72.37.7.31,1.15.17.73.31.38a.31.31,0,0,1,.26-.2c.1,0,.19-.06.19-.14s.53-.15.61.07.67.26,1,.07,0-.29-.59-1c-.87-.92-.94-1-2-2.21-1.16-1.4-1.24-1.56-1.37-2.8C80,36,80,35.2,80,34.87c0-1.1,0-1-1-1a2.43,2.43,0,0,1-1.56-.22,4.06,4.06,0,0,0-.7-.28,3.56,3.56,0,0,0-.8.67,4.18,4.18,0,0,1-3,1.23c-.46-.07-.5-.05-.68.38A3.2,3.2,0,0,1,70.91,37C70.7,37.09,70.74,37.21,71.21,38.17Zm-.6,1.6A6.33,6.33,0,0,1,71,41.1c.23,1.16.26,1.26.41,1.11A3.76,3.76,0,0,0,71.56,41a3,3,0,0,0-.46-2,6.16,6.16,0,0,0-.59-1C70.3,37.87,70.37,39.3,70.61,39.77Zm-.24,3.57a2.55,2.55,0,0,0,.14,1l.17.41,0-.42a3.07,3.07,0,0,0-.13-1l-.17-.57Zm-.16,8.23a.13.13,0,0,0-.13.14c0,.3.47,0,.5-.28a1.89,1.89,0,0,1,.55-1.31,1.87,1.87,0,0,0,.44-.71c0-.3.44-.6.58-.45s0,.26-.17.46a2.93,2.93,0,0,0-.37.69,7.19,7.19,0,0,1-.37.89c-.3.57-.26.79.1.65.12,0,.2-.24.2-.5,0-.46.49-1.3.76-1.31s.22.29,0,.47a1.54,1.54,0,0,0-.19.56c-.07.35,0,.43.15.43.34,0,.47-.14.81-.89s.77-1,.61-.34-.14.6,0,.65.28-.24.46-.6.4-.67.49-.67.21.55,0,.76-.08.33.2.22a1.74,1.74,0,0,0,.5-.73,3.17,3.17,0,0,1,.46-.8c.16-.12.17,0,.1.48s0,.62.09.57a.89.89,0,0,0,.33-.51.91.91,0,0,1,.31-.49c.14-.05.17,0,.21.46,0,.29.27.24.32-.06s.12-.37.44-.08a1.22,1.22,0,0,0,.94.19,3.89,3.89,0,0,0,.78-.09,1.75,1.75,0,0,0-.23-.81,4.44,4.44,0,0,1-.36-1.22c0-.64-.35-.67-1.44-.17a6.64,6.64,0,0,1-3,.75c-1.3.15-1.56.22-1.77.47s-.59.26-.46-.07-.32-.24-.48.06a.83.83,0,0,1-.42.34c-.39.13-.78.48-.77.72s.08.1.25-.12c.39-.51.48-.22.17.49A8.66,8.66,0,0,0,70.48,51C70.4,51.31,70.28,51.57,70.21,51.57Zm-.36-11.63c.26.51.3.53.34.24a.4.4,0,0,0-.16-.43.63.63,0,0,1-.21-.51c0-.22-.06-.4-.13-.4C69.46,38.84,69.54,39.36,69.85,39.94ZM60,25.34c-.12,0,0,.41.13.62s.37.09.37-.23A.46.46,0,0,0,60,25.34Zm-.29-.83c0,.19.15.27.34.2s.15-.12.11-.19S59.75,24.36,59.75,24.51ZM60,28c.46.47.68.46.74,0a.69.69,0,0,0-.7-.76C59.6,27.19,59.58,27.53,60,28ZM44.69,26.22a.59.59,0,0,0,0,.8c.19.18.58,0,.77-.35.1-.19.07-.3-.11-.46S44.91,25.94,44.69,26.22ZM43.87,24c0,.27.12.3.35.07s.22-.13.42,0,.51,0,.22-.33A.66.66,0,0,0,43.87,24Zm.61,1.53c.27-.27.18-.48-.25-.58s-.71.07-.59.46A.52.52,0,0,0,44.48,25.57ZM25.76,22.51a5.3,5.3,0,0,0-1-2c-.27-.25-.28-.25-.65.18-.52.57-.65,1.31-.29,1.57a1.48,1.48,0,0,1,.43.65c.14.45.54.64.71.35a1,1,0,0,1,.49-.2C25.82,23,25.84,22.92,25.76,22.51ZM37.35,16.4a.31.31,0,0,0-.2-.26c-.22-.09-.23-.07-.11.23S37.35,16.65,37.35,16.4Zm1.39-3.53c0,.08,0,.14.13.14s.21-.06.21-.14a.13.13,0,0,0-.13-.13A.3.3,0,0,0,38.74,12.87ZM31.51,9.15l.57.58c.48.49.6.55.72.39s.62-.12,1.24.35a2.55,2.55,0,0,0,1.23.53c.06,0,0-.1,0-.24a4.37,4.37,0,0,0-1.41-1.2c-.24,0-.34-.4-.13-.48s.69.14,1.17.59.37.33.62.1.2-.6-.41-1.11c-.3-.25-.35-.36-.23-.5s.21-.14.51.07a4,4,0,0,0,.72.4.78.78,0,0,1,.41.3c.34,1,.35,1,.48.73s0-.4-.23-.91A2.51,2.51,0,0,0,36.2,8c-.23-.09-.22-.57,0-.57a.55.55,0,0,1,.35.2c.17.21.93.28.93.08a1.5,1.5,0,0,0-.28-.46c-.41-.53-.08-.87.36-.37.17.21.26.22.53.1s.32-.21.26-.63,0-.53.06-.58.48.64.6,1.39c.07.41.15.54.31.5s.2-.17.17-.62a2,2,0,0,0-.16-.74c-.19-.23.19-.5.53-.4a.65.65,0,0,1,.34.45c.14.61.19.7.32.62a3.27,3.27,0,0,0,0-2,18,18,0,0,0-2,0c-1.58,0-1.88.1-2.1.31a8.17,8.17,0,0,1-1.14.8,18.48,18.48,0,0,0-3.11,2.39Zm1.64,1.47c-.18,0-.08.4.15.56s.61.13.61,0S33.37,10.62,33.15,10.62ZM17.22,22l.36-.09a4.71,4.71,0,0,0,1.81-1c.56-.49.59-.62.12-.67-.2,0-.38-.12-.41-.22s.13-.16.74-.13c.76,0,.84,0,1.25-.39s.92-.54,1.45-.1.55.41.94,0,.34-.33.71-.15a5.33,5.33,0,0,1,1.56,2.18c.39,1.13.57,1.28,1.07.91.23-.16.24-.23.07-.76a4.78,4.78,0,0,0-.66-1.44,4.31,4.31,0,0,1-.87-1.7c.07-.17.13-.15.37.12a7.8,7.8,0,0,1,1,1.53,4.11,4.11,0,0,0,.26.63c.13.3.32.74.41,1,.17.45.4.54.63.26a4.69,4.69,0,0,0-.37-2.57A3.3,3.3,0,0,0,26.39,18c-.53-.35-.63-.6-.24-.6a3.34,3.34,0,0,1,1.57,1.18,5.15,5.15,0,0,1,.8,2.39c0,.81.18,1,.66.81s.46-.46.37-1.07a3,3,0,0,1,0-.44,7.82,7.82,0,0,0-1.95-3.32c-.28-.25-.4-.74-.18-.74A6.94,6.94,0,0,1,29,18.06a8.78,8.78,0,0,1,.78,1.81c.32,1.1.53,1.39.62.89s.34-.49.64-.12.32.32.54.2a1.91,1.91,0,0,0,.55-.62c.3-.49.57-.52.45,0s.25.23.59-.36.31-.5.38-.22.13.3.19.3a2.21,2.21,0,0,0,.79-1c0-.28.46-.48.64-.3s.16.09.16-.13.08-.3.24-.3.61-.33.74-.74a.61.61,0,0,0-.48-.71,9.85,9.85,0,0,1-2-1.25C33.53,15,34,15,35,15.66s1.56.7,1,.2a.9.9,0,0,1-.3-.5c0-.35.47-.29.72.1s.44.41.42-.15c0-.27,0-.51.13-.54a2.45,2.45,0,0,1,.83.55c1,.88,1.24.69.87-.78-.13-.51.2-.41.4.13.28.76.41.9.79.8s.34-.15.29-.38c-.23-1,0-1.4.32-.5s.61.73.73-.13a1.81,1.81,0,0,1,.21-.73.27.27,0,0,0,.12-.22c0-.21-1.49,0-2.52.29l-.86.28-.27-.35c-.23-.28-.35-.33-.64-.25a.68.68,0,0,0-.44.28,1.25,1.25,0,0,1-.49.4,4.49,4.49,0,0,1-2.15.41c-.11-.18.34-.48.85-.58.23-.05.43-.14.43-.21a7.79,7.79,0,0,0-.83-1.62c-.14-.18-.41-.26-1.09-.3s-1-.11-1.16-.39-.33-.31-.81-.24c-.89.14-1,.27-.48.49s.45.19.13.28a8,8,0,0,1-1.46.05c-1,0-1.13-.07-1.17-.27s0-.23.3-.23.34-.07.34-.2c0-.3.3-.37.87-.21a2.43,2.43,0,0,0,1.17,0c.8-.17.89-.23.79-.59S31.4,10,30.76,10s-1.45-.23-1.54-.47-.38-.22-.94.34a19.75,19.75,0,0,1-3,2.31c-.37.19-1.88,1.16-2.33,1.5a22.37,22.37,0,0,0-4.6,4.69,8.92,8.92,0,0,0-1.08,3Zm5.11-2.18c-.39-.3-.51-.34-.75-.21s-.26.24-.22.41a.34.34,0,0,1-.05.33.32.32,0,0,0-.12.26c0,.34,1,.25,1.31-.12l.3-.32ZM21,21.35a.35.35,0,0,0-.28.14c0,.07,0,.13.12.13a.36.36,0,0,0,.28-.13C21.17,21.41,21.11,21.35,21,21.35Zm-1.6,9.74a6.21,6.21,0,0,1,.84-1.36,2.2,2.2,0,0,0,.51-.81,4.93,4.93,0,0,1,1.72-2,2,2,0,0,0,.37-2.29A7.59,7.59,0,0,1,22.57,23a2.83,2.83,0,0,0-.16-1c-.2-.2-.91.29-1.07.74a2.82,2.82,0,0,1-.62.87c-.45.44-.6.37-.32-.15.12-.22.09-.32-.19-.58a1.54,1.54,0,0,1-.42-.65c-.1-.41-.08-.41-.7-.09a6,6,0,0,1-4.1.68l-.44-.12.09.62c0,.34.12.95.17,1.35a3.06,3.06,0,0,1-.63,2.52c-.38.32-.38.33-.16.61a5,5,0,0,1,.47,1.45,7.35,7.35,0,0,0,1.86,3.87,1.52,1.52,0,0,0,2.14.22c.65-.38.64-.36.42-.71S18.85,32.17,19.4,31.09Zm.25,0c-.44,1-.27,1.65.3,1.28a2.74,2.74,0,0,0,.25-1.14C20.32,30,20.17,30,19.65,31.1Zm10.14,9.33a2.56,2.56,0,0,0,.31-1.07c-.12-.45.22-.69.86-.6s.57.06.5-.18.08-.66.69-1.34c.36-.4.45-.59.4-.88-.1-.49.11-.83.5-.83a.57.57,0,0,0,.46-.25c.24-.46.55-.69.81-.6s.26,0,.24-.84a4.08,4.08,0,0,1,.06-1.06c.16-.26-.47-.82-1.53-1.35s-1.56-.94-1.57-1.32-.22-.59-.95-.56a1.87,1.87,0,0,0-.91.23.87.87,0,0,1-.31.19c-.06,0-.21.13-.35.3s-.28.25-.32.21.11-.31.34-.58c.42-.47.43-.5.18-.68s-.34-.24-.91.28-.74.58-.74.39a3.82,3.82,0,0,1,.46-.62l.47-.55-.55-.54-.36.43a1.2,1.2,0,0,1-.52.43c-.29,0-.17-.37.23-.71s.49-.51.2-.75-.29-.1-.71.31-.81.62-.81.31a1.55,1.55,0,0,1,.8-.95c.33-.11.33-.41,0-.59-.15-.08-.26-.09-.26,0a2.08,2.08,0,0,1-1,.94c-.25,0-.26,0-.06-.45a1.11,1.11,0,0,1,.52-.48c.45-.19.48-.33.14-.52s-.38,0-.87.34a2.18,2.18,0,0,0-.61.59c0,.07-.09.13-.2.13-.37,0-.2-.49.35-1s.51-.52.38-.69-.32-.24-.7.32a14.53,14.53,0,0,1-1.52,1.67,7.28,7.28,0,0,0-1.48,1.81,10.84,10.84,0,0,0-.67,3.17,1.13,1.13,0,0,1-.13.6,1.49,1.49,0,0,0-.19.59,3.47,3.47,0,0,1-.15.69c-.05.13-.05.23,0,.23s.48-.75.48-1a1.32,1.32,0,0,1,.23-.55,6.66,6.66,0,0,0,.84-2.1c0-.38.12-.91.21-.81a3.42,3.42,0,0,1,.14,1,6.34,6.34,0,0,1-.72,3.36l-.44.71a5,5,0,0,1-.94,1.26c-.23,0-.25-.35-.05-.83a2.81,2.81,0,0,0,.2-.65,9.11,9.11,0,0,0-1.72,1.77s.22.13.49.18a17.39,17.39,0,0,1,3.49,1.13A1.82,1.82,0,0,1,23.68,40l0,.52h.6c.32,0,1.05-.06,1.62-.12l1-.11v-.43a12.66,12.66,0,0,1,.95-3.07.49.49,0,0,1,.3-.17c.19,0,.09.81-.16,1.26A8.36,8.36,0,0,0,27.61,39a4.68,4.68,0,0,1-.35,1.08c-.14.19.65.55.8.37a8.7,8.7,0,0,0,.41-1.38,11.51,11.51,0,0,1,.45-1.55c.13-.25.18-.26.39-.11s.23.21,0,1c-.37,1.13-.5,2.48-.25,2.64S29.39,41.26,29.79,40.43Zm-8.47-6.82a.28.28,0,0,0,.13-.21c0-.08-.06-.1-.13,0a.28.28,0,0,0-.13.21C21.19,33.63,21.25,33.66,21.32,33.61Zm11,4.11c0,.18-.13.33-.2.33s-.11.07-.11.17.66-.51.66-.71S32.45,37.4,32.37,37.72Zm-2,2.49-.1-.37-.09.33c-.14.48-.14,1.33,0,1.33s.16-.21.21-.46A2.55,2.55,0,0,0,30.38,40.21Zm-7.88,14c0-.64.06-.83.21-.83s.26.74.08,1.7c-.13.68,0,.76.85.63.51-.08.6-.14.67-.45.13-.62.31-.95.52-.95s.25.15,0,.64c-.18.31-.2.44-.08.56s.82,0,1-.41.53-.41.39,0,.11.49.54.4c.26,0,.33-.14.33-.43a.73.73,0,0,1,.1-.44c.21-.13.47.15.39.43s.21.62.4.38a1.83,1.83,0,0,0,.22-.42c.11-.31.3-.14.37.32,0,.29.11.34.67.37s.63,0,.82-.44.54-.54.54.08.45.64.66,0c.17-.5.56-.66.49-.2-.13.79-.1.93.24.93s.33,0,.29-.52c-.06-.71,0-1,.32-.73s.19.31.12.74,0,.59.13.66c.34.13.4,0,.22-.7s-.12-.84.25-.61a1.12,1.12,0,0,0,.5.16c.4,0,.56.29.56,1s.07.91.29.77.09-.32,0-.62c-.12-.82-.09-1.19.08-1.3s0-.12-.23-.18l-1.12-.28C32,54.16,32,54.16,32,54.46s-.09.29-.12.29-.4-.18-2.7-1.33a43.51,43.51,0,0,0-4.38-1.93,6,6,0,0,0-4.29.55l-.48.22,0,.94c0,.52,0,1.32-.05,1.78a2.19,2.19,0,0,0,.05.91c.2.11.77-.63.86-1.12a2,2,0,0,0-.06-.88c-.22-.61-.19-.76.14-.71s.55.79.29,1.6a2,2,0,0,1-.33.7c-.25.16-.11.46.21.46s.6-.41.6-1.67c0-.82,0-1,.22-1s.21.15.14,1.26c-.06.93,0,1.26.07,1.22S22.48,55.2,22.5,54.25Zm10.75,4a7.94,7.94,0,0,0-2.79-1c-.33-.06-.83-.16-1.12-.24-1.45-.36-4.7-.6-4.94-.36,0,0,.13.08.38.08a24,24,0,0,1,4,.93c.51.16,1.22.36,1.59.45a8.61,8.61,0,0,1,1.15.38,3.25,3.25,0,0,0,1,.24,6,6,0,0,1,.9.11c.58.15.86.15.86,0a.14.14,0,0,0-.15-.13A4.24,4.24,0,0,1,33.25,58.25Zm.66-2c0-.21-.06-.39-.12-.39s-.32.49-.21.66S33.91,56.59,33.91,56.2Zm-7.35,9.54a.7.7,0,0,0,.07.61c.28.34.42.22.33-.31C26.83,65.36,26.67,65.24,26.56,65.74ZM31.71,77.1c.09.23.11.23.29,0a1.14,1.14,0,0,0,.19-.56c0-.17-.06-.31-.14-.31S31.61,76.83,31.71,77.1Zm2.6,2.43c0,.48-.84.51-2.66.11-1.55-.34-1.92-.35-2.52-.07a4.27,4.27,0,0,1-2.27.19c-.28-.08-.36-.05-.4.13A1.1,1.1,0,0,0,26.94,81c.26.14.4.11,1-.18a3.51,3.51,0,0,1,.88-.35c.37,0,.22.26-.31.52s-.93.81-.51.63l1.21-.48a8.08,8.08,0,0,0,1.38-.67c.38-.31.51-.27.28.1a5.47,5.47,0,0,1-1.36.82c-1.12.52-1.19.58-.95.75s.6.25.6.07a4.63,4.63,0,0,1,1.09-.75,12.39,12.39,0,0,0,1.33-.83c.24-.21.41-.18.25,0a15.4,15.4,0,0,1-2,1.52c-.31.16-.23.33.2.42S31.32,82,32.32,81a5.06,5.06,0,0,1,.83-.71c.23,0,.06.31-.41.77-.28.27-.71.71-.94,1l-.44.49h.38c.29,0,.6-.2,1.25-.82,1.47-1.4,1.9-1.74,2-1.55a.31.31,0,0,1-.18.31A6.35,6.35,0,0,0,33.33,82c-.35.57,0,.45.76-.24a6.23,6.23,0,0,1,1.32-.93l.69-.34-.6.53c-.83.74-.5.68.76-.15L37.54,80c.21-.12.21-.22,0-1.39a3.86,3.86,0,0,0-.92-2.29c-.55-.5-3.38-.78-3.78-.37a.45.45,0,0,0,0,.42c.09.29.1.29.27,0,.34-.46.47-.06.28.87-.13.64-.23.86-.42.9s-.23,0-.17-.33a6.18,6.18,0,0,1,.17-.61c0-.14,0-.23-.06-.23s-.22.18-.3.4c-.14.39-.46.52-.71.27-.08-.08-.24,0-.43.33l-.3.46.3.11a8.37,8.37,0,0,0,1.26.27C33.83,79,34.31,79.23,34.31,79.53Zm-4.46-6.1c-.44-.39-.49-.39-1.41-.31a5.87,5.87,0,0,0-1.55.34,5.46,5.46,0,0,1-2,.36c-.25,0-.79,1.57-.85,2.49l-.08,1,.48.2a3.73,3.73,0,0,0,1.18.2c.68,0,.73,0,1.21.6s.87.74,2,.36A4.26,4.26,0,0,0,30,78l.49-.42,0-1.48C30.63,74.4,30.52,74,29.85,73.43ZM28.5,70.31c-.51.26-.55.26-.55,0a.47.47,0,0,1,.29-.36c.47-.21.38-.53-.13-.53s-.69-.22-.69-.63a.22.22,0,0,1,.24-.23c.36,0,.39-.09.23-.61s-.16-.46-.63-.38a1.42,1.42,0,0,1-1.54-.88,1.74,1.74,0,0,0-.39-.52,5.32,5.32,0,0,0-.79,2.22,2.56,2.56,0,0,0,.51,1.9,5.55,5.55,0,0,0,2.87,1.37c.23,0,.43,0,.48.06.15.24.72.17.87-.11a1.27,1.27,0,0,0,.13-.34c0-.1-.45,0-.81.13a.2.2,0,0,1-.29-.12c-.06-.15.05-.28.38-.43.49-.24.51-.28.34-.55S28.84,70.13,28.5,70.31ZM33.22,65l.27-.7-.79-.56c-.44-.31-1-.69-1.2-.86a1.72,1.72,0,0,0-1.12-.3,1.4,1.4,0,0,0-1.24.48c-.59.54-.77,1-.86,2.39,0,.6,0,.93.09,1,.29.17.37,0,.37-.86A2.09,2.09,0,0,1,29,64.45c.27-.39.48-.26.32.18a2.76,2.76,0,0,0,0,1.75c.36.36.5.17.51-.67s.24-1.74.45-1.67.12.42.09.93a4.72,4.72,0,0,0,0,1.16c.1.31.34.38.34.09a.25.25,0,0,1,.13-.23,3.89,3.89,0,0,0,.51-1c.4-1,.68-1.35.68-.72v.37l.21-.29c.11-.17.26-.3.33-.3s.14.35-.21,1.12-.4,1-.08,1S32.91,65.8,33.22,65Zm.72-.19c-.12-.11-.19-.06-.3.22a2.88,2.88,0,0,1-.21.49c0,.06,0,.11.12.11s.26-.15.36-.33S34.05,64.91,33.94,64.79Zm.35-1.62a.59.59,0,0,0-.16-.44.41.41,0,0,0-.44-.11c-.22.09-.21.13.15.44S34.25,63.38,34.29,63.17Zm.94-1.93a.33.33,0,0,0,.17.3c.25.1.76-.14.76-.35a.55.55,0,0,1,.2-.35c.16-.13.21-.12.28.07s.1.2.21,0a.87.87,0,0,0,0-.51c-.07-.29-.15-.31-1.1-.31a19,19,0,0,1-3.65-.29,11.34,11.34,0,0,1-3-1A15.13,15.13,0,0,0,26.36,58a10.72,10.72,0,0,0-2.09-.19,3.74,3.74,0,0,0-1.95.33c-.65.29-.73.37-.79.83-.05.28-.15.87-.23,1.31-.31,1.63-.32,1.52.13,1.52a.75.75,0,0,0,.69-.4.85.85,0,0,1,.54-.39.37.37,0,0,0,.33-.24c.2-.63.34-.86.45-.74s0,.39-.08.82a1.87,1.87,0,0,0-.13.79c.22.22.56-.27.74-1.07a3.92,3.92,0,0,1,.3-1c.08-.08.13.42.13,1.14a2.21,2.21,0,0,1-.09.36c-.08.26,0,.3.25.3s.39,0,.61-1.09c.17-.89.46-1.05.36-.2,0,.31-.09.65-.12.76s.06.2.28.2.35-.08.47-.62.32-1,.34-.63a2.13,2.13,0,0,0,.24,1.09c.21.21.54,0,.54-.34a.68.68,0,0,1,.09-.4c.13-.14.44.17.44.44s.53.44.82.18.51-.15.51.16.49.22.57-.09.41-.25.46.19.56.5.56,0,.51-.46.61.06a.53.53,0,0,0,.35.45c.38.1.45,0,.55-.52s.42-.53.37.12c0,.42,0,.49.22.49a.57.57,0,0,0,.44-.35c.21-.41.42-.44.48-.06,0,.22.14.28.5.28s.45,0,.45-.31a.71.71,0,0,1,.09-.4C34.92,60.67,35.23,61,35.23,61.24Zm.91-5A2.58,2.58,0,0,1,36,57.55a2.56,2.56,0,0,0-.28.68c-.07.32-.05.36.25.36s.39-.13.67-.72a3.36,3.36,0,0,0,.24-2.25c-.07-.55-.11-.61-.36-.53C36.1,55.22,36.1,55.21,36.14,56.27Zm-.53-.68c-.12-.49-.19-.58-.43-.55s-.26.11-.23.3A9.5,9.5,0,0,1,35,56.42c0,1,.47,1.67.66.94A3.74,3.74,0,0,0,35.61,55.59ZM39.1,64.2a1.92,1.92,0,0,0-1.16-1.44c-.8-.46-1.36-.43-1.89.11A1.6,1.6,0,0,0,35.56,64a7.18,7.18,0,0,1-.14,1c0,.14-.11.37-.14.49s.24.3,1,.16c.4-.08.4-.09.4-1,0-1.2,0-1.21.22-1.21s.22.22.28.7a4.69,4.69,0,0,1,0,.83.12.12,0,0,0,.09.16c.12,0,.13-.4,0-1.42,0-.29,0-.33.36-.33s.4,0,.5.53a3.21,3.21,0,0,1,.07.89c0,.3,0,.37.23.37A1.14,1.14,0,0,0,39,65C39.25,64.86,39.26,64.79,39.1,64.2Zm-1.43-8c0,1.1,0,1.44-.22,1.72-.3.46-.29.5.08.5s.34-.11.47-.52a2.13,2.13,0,0,0,0-1.46A.6.6,0,0,1,38,56c.14-.38,0-1.14-.19-1.14S37.65,55.21,37.67,56.24ZM38,59.18l-.54.09.2.4a3.29,3.29,0,0,0,.47.65,1,1,0,0,1,.27.49c0,.13,0,0,.08-.17a1.24,1.24,0,0,1,.17-.51c.07-.08.2-.06.32,0a.52.52,0,0,0,.49.07,4.29,4.29,0,0,1,1-.08c.39,0,.7,0,.7-.08a6.34,6.34,0,0,0-.53-.89,5.23,5.23,0,0,1-.52-.9c0-.13-.16-.12-.38,0s-.06.24.36.66a2.1,2.1,0,0,1,.55.75c0,.27-.4.24-.8-.07a1.31,1.31,0,0,0-.67-.26.81.81,0,0,1-.48-.15A1,1,0,0,0,38,59.18Zm.54-.75a.41.41,0,0,0,.35-.26c0-.29-.36-.24-.53.08S38.3,58.47,38.57,58.43Zm.64-.9c.07,0,.13,0,.13-.06s-.06-.09-.13-.14-.13,0-.13.06A.13.13,0,0,0,39.21,57.53Zm-1.46,3.71a.13.13,0,0,0-.13.13.13.13,0,1,0,.26,0A.13.13,0,0,0,37.75,61.24Zm2.85,2.7a1.27,1.27,0,0,0,.2-.55c0-.4-.36-1.09-.57-1.09a1.87,1.87,0,0,1-.55-.2c-.27-.14-.43-.16-.52-.07s0,.27.35.55a1.66,1.66,0,0,1,.49.53,3,3,0,0,0,.2.61C40.4,64.18,40.42,64.19,40.6,63.94Zm.28.46a1,1,0,0,0,.48-.51,2.69,2.69,0,0,0,0-2.34,1.16,1.16,0,0,0-1.23-.23c-.29.11-.26.32,0,.32a1.26,1.26,0,0,1,.58.26,1.89,1.89,0,0,1,.33,2C40.66,64.3,40.62,64.45,40.88,64.4Zm.53.78c-.39.25-.47.35-.33.45s.39.09.7-.32S42,64.79,41.41,65.18Zm.85.43c0-.07,0-.13-.06-.13s-.1.06-.14.13,0,.14.06.14A.14.14,0,0,0,42.26,65.61Zm2.19-2.06a6.23,6.23,0,0,0-1-.9L42.68,62l-.08.83c-.17,1.77-.19,1.62.24,1.58s.37,0,.31.29,0,.34.31.34.46-.13.78-.61S44.64,63.84,44.45,63.55Zm.28-.65c.52.45.68.47,1.48.18A4.74,4.74,0,0,1,47.43,63a2,2,0,0,0,.92-.11c0-.06-.31-.18-.69-.26A28.22,28.22,0,0,1,44,61.26a4.74,4.74,0,0,1-2.18-2.11c-.48-.93-1.32-2-1.46-1.86s1.48,3,2.2,3.61a8.81,8.81,0,0,0,2.39,1.21c.39.09.86.54.72.68s-.33,0-.64-.19C44.26,62.21,44.12,62.36,44.73,62.9Zm12.1,1.65A2.39,2.39,0,0,0,54.54,64a28.93,28.93,0,0,1-6.12.16c-1.72-.21-2.47-.1-3,.41s-.47.6-.29.87a1.23,1.23,0,0,0,1.75-.18c.16-.36.34-.29.42.16a.41.41,0,0,0,.34.31c.22,0,.32,0,.38-.3.11-.43.45-.45.45,0s.27.57.48.28.45-.18.45.13c0,.1.12.19.27.19s.26-.06.19-.46a1.62,1.62,0,0,1,0-.7c.08-.2.12-.19.34.1a1.51,1.51,0,0,1,.26.83c0,.33.06.49.19.49s.21-.24.27-.76a6.42,6.42,0,0,1,.15-.85c.13-.2.45.07.45.36a.53.53,0,0,0,.13.39c.08,0,.08.2,0,.42-.17.45-.16.58.06.58s.21-.25.28-.86a2.47,2.47,0,0,1,.22-1c.25-.15.42.23.43,1,0,.47.06.72.17.72s.37-.29.39-1c0-1.19.52-.87.56.36,0,.37.06.43.34.43s.35-.09.44-.43c.14-.55.48-.57.49,0s.46.54.67-.07.55-.65.48-.15.25.31.49-.17c.12-.25.25-.34.4-.29S57.09,64.77,56.83,64.55Zm-7-1.46c.18.12,1,.21.92.09a2.72,2.72,0,0,0-.59-.14C49.76,63,49.67,63,49.81,63.09ZM55,62.8c.22,0,.33,0,.24-.06a.77.77,0,0,0-.4,0C54.75,62.77,54.82,62.8,55,62.8Zm1.21.16c.11,0,.16-.06.12-.13a.37.37,0,0,0-.28-.13c-.11,0-.16.06-.12.13A.37.37,0,0,0,56.25,63Zm.51-2.25s.09-.06.14-.13,0-.14-.06-.14a.14.14,0,0,0-.14.14C56.7,60.65,56.73,60.71,56.76,60.71Zm.34,2.12c0-.07,0-.13-.06-.13s-.1.06-.14.13,0,.13.06.13A.13.13,0,0,0,57.1,62.83Zm2.25,2.42a1.8,1.8,0,0,0-.26-.49l-.25-.39-.09.35a.8.8,0,0,0,0,.49C58.85,65.37,59.35,65.4,59.35,65.25Zm.52-1a3.14,3.14,0,0,1-.21-1.71c.1-1.22-.08-1.21-1.34,0l-1,.95.4.4c.39.39.41.39.59.16a.34.34,0,0,1,.39-.17c.13,0,.22,0,.22,0s.1-.12.22-.1.29.3.41.71a3.55,3.55,0,0,0,.35.85C60.21,65.69,60.19,65.11,59.87,64.27ZM58.21,60c.14,0,.22,0,.18-.07a.26.26,0,0,0-.26,0C58,60,58.06,60,58.21,60Zm1.21,0s.06-.06.06-.14a.13.13,0,0,0-.14-.13c-.07,0-.1.06-.06.13S59.39,60.05,59.42,60.05Zm.79-2.65.38-.3c.32-.26.35-.35.23-.65a.56.56,0,0,1,0-.58c.22-.3.48-.15.48.28s.27.42.58.12c.16-.16.17-.27.06-.52a.59.59,0,0,1,0-.6c.22-.42.47-.26.44.3s.1.6.65.35c.26-.12.32-.25.34-.82a1.82,1.82,0,0,1,.17-.82c.21-.22.4.19.3.69s.07.55.41.22.26-.41.22-.93a.61.61,0,0,1,.32-.51c.39-.25.73-.19.73.13s.26.19.45-.12.09-.27-.09-.41-.32-.6-.11-.6.2.12.3.28.2.27.43,0a.68.68,0,0,0,.15-.69c-.09-.46-.09-.46.32-.38s.44,0,.62-.25.2-.35,0-.57c-.37-.41-.27-.59.24-.5s.48,0,.61-.2.12-.31,0-.4a.69.69,0,0,0-.27-.11c-.06,0-.1-.1-.1-.22s.09-.2.44-.15a1.1,1.1,0,0,0,.63,0c.15-.1.13-.16-.12-.35s-.17-.56.41-.56c.33,0,.36,0,.23-.19a3.18,3.18,0,0,1,.19-1.93c.15-.43.14-.49-.2-.82a3.32,3.32,0,0,1-.4-3.33l.31-.63L69,41a1.84,1.84,0,0,1-.48-2.1c.11-.32.21-.59.21-.6s-.45-.31-1-.66c-1.38-.88-1.59-1.33-1.18-2.54l.21-.62-.52-.55A4.84,4.84,0,0,1,65,31.65c-.19-.77-.35-.89-1.21-1-.64-.08-.72-.13-1-.6-.38-.67-.52-.74-1.61-.83A2.63,2.63,0,0,1,59,28.16c-.43-.58-.48-.6-.93-.5a5.76,5.76,0,0,1-3.1-.2l-.63-.31-.51.28a2.29,2.29,0,0,1-2.47-.18l-.84-.47-.65.33a1.41,1.41,0,0,1-1.36.16,6.42,6.42,0,0,1-1.16-.41l-.45-.23-.31.38a1.65,1.65,0,0,0-.31.46,3.08,3.08,0,0,1-.77.47,3.19,3.19,0,0,1-1.85.36h-1.1l-.14.43a2.09,2.09,0,0,1-.56.79,6.36,6.36,0,0,1-2.41,1.11c-.28,0-.35.1-.54.74a3.55,3.55,0,0,1-2.66,2.44c-.52.16-.55.19-.63.8a4,4,0,0,1-1.5,2.22.85.85,0,0,0-.41.76,2.78,2.78,0,0,1-1.5,1.85l-.62.33-.09.9c-.13,1.22-.58,2.08-1.19,2.28a1.11,1.11,0,0,0-.47.24c0,.05.13.42.27.82a5.24,5.24,0,0,1,.26,1.26,2.87,2.87,0,0,1-.87,1.86c-.29.25-.3.3-.15.81.23.77,1.52,2.1,3.21,3.29a25.51,25.51,0,0,0,3.75,1.93.52.52,0,0,1,.29.2,7.54,7.54,0,0,0,1.31.81,10,10,0,0,1,1.49.94c.2.18.42.29.49.25s.27.09.44.31.33.36.46.25.45,0,.45.33.43.86.74.84.26.07.29.34.11.36.38.36.33.05.25.34,0,.46.42.92.55.54.67.44.83.21.92.57.28.32.67,0,.3-.2.3.12a.84.84,0,0,0,.22.55c.21.21.24.21.45-.06s.52-.34.52.12a.54.54,0,0,0,.27.53c.34.19.48.09.72-.48s.55-.54.49,0c0,.21-.1.41-.17.43-.24.09-.11.26.24.33s.83-.11.83-.48a.58.58,0,0,1,.49-.62c.2,0,.24.61,0,.73s-.16.59.05.59a.55.55,0,0,0,.35-.2.52.52,0,0,1,.34-.19c.09,0,.19-.14.21-.3.06-.39.51-.49.51-.11,0,.15-.08.27-.17.27-.26,0-.48.27-.4.48s.32.24.59,0a3.57,3.57,0,0,0,.5-.66c.16-.28.38-.5.48-.5.26,0,.25.61,0,.71s-.26.35,0,.35c.1,0,.31-.21.46-.46.35-.6.71-.64.59-.07-.07.34,0,.4.21.4a.45.45,0,0,0,.41-.33c.07-.19.19-.33.27-.33s.2-.18.28-.4c.25-.72.77-.36.77.53,0,.4,0,.42.37.33a1.29,1.29,0,0,0,.56-.28c.17-.16.16-.18,0-.18-.37,0-.41-.57-.09-1.18s.55-.66.63-.21c.09.61.15.64.5.31a.61.61,0,0,0,.25-.71c-.23-1.1-.23-1.4,0-1.4s.48.5.48,1,.19.41.45,0a.91.91,0,0,0,.07-.83c-.17-.75-.16-1.12.06-1.12s.34.4.34,1c0,.43,0,.44.3.25s.31-.36.36-1,.12-.85.27-.85.22.18.27.56Zm4.5-1.4c-.25.19-.24.2.11.2s.36-.06.36-.19S65,55.75,64.71,56Zm.35-1.38a.12.12,0,0,0,.12-.12.2.2,0,0,0-.29-.2C64.76,54.38,64.87,54.62,65.06,54.62Zm-.14,3.57a.14.14,0,0,0-.14.13c0,.08,0,.14.06.14s.1-.06.14-.14S65,58.19,64.92,58.19Zm0,2.39c.22,0,.4,0,.4-.06a1.33,1.33,0,0,1,.09-.27c.07-.18,0-.22-.37-.18C64.42,60.13,64.31,60.58,64.91,60.58Zm.56-2.77c.16.36.21.39.64.31L66.6,58a1.42,1.42,0,0,0-.09-.47,2.61,2.61,0,0,1,0-1.15c.11-.61.1-.76-.11-1s-.43-.43-.43-.16a8.09,8.09,0,0,1-.35,1.2C65.33,57.29,65.32,57.45,65.47,57.81Zm-1.3-.48c0-.11,0-.2,0-.2s-.15.09-.19.2,0,.2,0,.2S64.13,57.44,64.17,57.33Zm-.27,3a.42.42,0,0,0-.29.29c0,.18,0,.23.2.2a.42.42,0,0,0,.29-.29C64.13,60.36,64.08,60.3,63.9,60.33Zm-.57-2.67c-.08,0-.14.12-.14.27s.06.26.14.26.13-.12.13-.26S63.4,57.66,63.33,57.66Zm-1.42.67c-.25,0-.57.15-.57.27s.18.15.47-.07S62,58.33,61.91,58.33Zm-1.34,3.05a1,1,0,0,0-.29.73c0,.25,0,.45.06.45a2.63,2.63,0,0,0,.4-.57C61.24,61.13,61.16,60.83,60.57,61.38Zm.93-1.28a3.42,3.42,0,0,1,.9.28c.46.26.53.24.53-.12a7.34,7.34,0,0,1,.08-.9c.07-.53.05-.61-.19-.67a.47.47,0,0,0-.43.1,5,5,0,0,1-.8.6,2.41,2.41,0,0,0-.65.52C60.94,60,61.19,60.06,61.5,60.1ZM66,61.49c0-.05-.28-.11-.62-.15a3.33,3.33,0,0,0-2.68,1c-.58.64-1.21,1.77-1.11,2a.22.22,0,0,0,.43,0c0-.29.3-.16.48.2.33.65.45.62.45-.09,0-1.14.39-1,.59.27a1,1,0,0,0,.31.62c.31.18.42.17.42,0a.52.52,0,0,0-.11-.3,2.37,2.37,0,0,1-.2-.88c-.07-.59,0-.76.12-.82s.46.4.46,1.07a1.29,1.29,0,0,0,.22.73c.35.39.46.27.17-.19a3.2,3.2,0,0,1-.07-2.34,2.5,2.5,0,0,1,.66-.69A2,2,0,0,0,66,61.49ZM66.32,65a1.62,1.62,0,0,0-.21-.63c-.21-.49-.26-.53-.26-.25S66.21,65.16,66.32,65ZM72.62,64c-.05-.75-.53-1.19-1.62-1.46a3.07,3.07,0,0,0-3.34.73,3.62,3.62,0,0,1-.88.65c-.19,0-.18.21,0,.65s.49.67,1.35.8c1.24.18,1.27.17,1.58-.69a3.85,3.85,0,0,1,.62-1.12c.31-.3.38-.32.57-.17s.19.21,0,.32a3.27,3.27,0,0,0-.85,1.6.46.46,0,0,0,.42.2c.22,0,.31,0,.25-.15s.61-1.73.79-1.67c.36.12.37.45,0,1s-.45.94-.13.82a1.07,1.07,0,0,1,.37-.08C72.2,65.35,72.65,64.52,72.62,64ZM70.08,77.13a.13.13,0,0,0,.13.14c.08,0,.14,0,.14,0s-.06-.1-.14-.15S70.08,77.06,70.08,77.13ZM67.65,78c.28.31.49.19.28-.15a.54.54,0,0,0-.33-.26C67.38,77.54,67.39,77.67,67.65,78Zm7.94.68c0-.1-.32-.16-.77-.16s-.63,0-.56.1A2.67,2.67,0,0,1,75,79.7c0,.28-.81.38-1.08.13a1.92,1.92,0,0,1-.41-.58c-.19-.39-.19-.39-.51-.15a3,3,0,0,1-1.55.56c-.29,0-.31,0-.23.36a1,1,0,0,0,.22.45,2.18,2.18,0,0,1,.51.93c0,.23-.76.11-1-.16s-.22-.32-.09-.52.11-.28,0-.33a1.6,1.6,0,0,1-.28-.67c-.15-.6-.33-.72-.62-.43s-.17,1,.29,1.88c.29.56.4.9.31,1s-.23,0-.33-.17a5.83,5.83,0,0,1-.83-1.81c0-.18-.08-.23-.3-.2s-.28.12-.24.24.08.38.11.59a2,2,0,0,0,.25.66c.23.34.23.6,0,.6s-.63-.88-.64-1.43c0-.35-.07-.42-.32-.42s-.5.18-.34.49l.33.67c.21.43.12.65-.23.52a2,2,0,0,1-.61-1.16c0-.18-.12-.25-.49-.28s-.5-.11-.5-.23.3-.24,1-.36c1.19-.2,1.65-.41,1.45-.66s0-.45.39-.45a.89.89,0,0,0,.94-.74c0-.17-.07-.32-.15-.32a1.32,1.32,0,0,1-.53-.35c-.48-.47-.66-.29-.2.19s.44.56.13.56a1.83,1.83,0,0,1-.73-.49c-.56-.55-.71-.34-.21.29.28.35.28.37,0,.55a.89.89,0,0,1-1.2-.15c-.58-.57-.85-.3-.3.29.38.4.2.56-.31.27a1.85,1.85,0,0,0-.51-.23,11,11,0,0,0-1.85,1.89.55.55,0,0,0,.16.28c.09.1.43.48.75.86a5.89,5.89,0,0,0,4,1.87,5,5,0,0,0,2.35-.07,5.27,5.27,0,0,0,1.18-.36l.87-.65a4.51,4.51,0,0,0,1.79-2.8A4.22,4.22,0,0,0,75.59,78.63Zm-1.94.23a.3.3,0,0,0,.21-.13c0-.07,0-.13-.13-.13s-.2.06-.2.13A.12.12,0,0,0,73.65,78.86ZM74,71c-.56-1.25-1.23-1.57-1.8-.85a8.58,8.58,0,0,0-1.18,2,2.62,2.62,0,0,0,.06,1.59,8,8,0,0,1,.36,3.13,2.75,2.75,0,0,0,0,1,.39.39,0,0,1,.08.29c-.06.59.13.56,1.24-.2l.9-.62,1.16,0c.92,0,1.21,0,1.34-.17s.09-.23-.32-.4c-.7-.29-.54-.55.31-.5.39,0,.69,0,.7-.1a2.85,2.85,0,0,0,0-.29c0-.09-.25-.22-.58-.3s-.6-.22-.6-.34c0-.29.51-.32,1-.07s.67.17.67-.11-.73-.49-1.23-.49-.46-.35,0-.46a1.26,1.26,0,0,1,.78.11c.32.15.41.16.46,0,.13-.33-.27-.66-.8-.66s-.51,0-.51-.39-.1-.45-.53-.69A3.08,3.08,0,0,1,74,71Zm-.86-5.11a.75.75,0,0,0,0,1.43,2,2,0,0,1,.91,1.29,1.5,1.5,0,0,0,.45.7c.4.41.48.43.84.31a2.1,2.1,0,0,0,.68-.44c.26-.27.27-.33.09-.48-.36-.29-.26-.57.18-.49s.59,0,.14-.44-.53-.79-.29-.79a1.31,1.31,0,0,1,.43.33c.36.39.66.43.66.08,0-.16-.14-.28-.43-.36s-.45-.22-.47-.42.08-.37.44-.1a1,1,0,0,0,.49.2c.39,0,.26-.35-.23-.64s-.62-.61-.13-.52c.18,0,.33,0,.33,0a6.32,6.32,0,0,0-.35-.65c-.4-.7-.68-.74-1.65-.25-.51.26-.65.4-.59.57a.65.65,0,0,1-.12.5c-.16.22-.24.23-.6.1A.77.77,0,0,0,73.12,65.85Zm2.38-7.39a2.88,2.88,0,0,0-.87.14,20.55,20.55,0,0,1-2.82.27,23.44,23.44,0,0,0-5.58.82c-.58.18-.64.28-.45.85.11.33.53.18.69-.24s.51-.41.38.05.14.76.44.76.27-.13.34-.53.16-.53.3-.53.19.13.12.78a2.21,2.21,0,0,0,0,.86c.23.14.47-.19.55-.74.09-.73.46-.81.48-.11,0,.26,0,.52,0,.59.05.24.35-.2.49-.68.2-.7.46-.72.46,0,0,.45,0,.54.23.5s.26-.2.3-.56c.11-.81.4-.76.4.06,0,.56,0,.67.21.64s.32-.31.44-.63a1.44,1.44,0,0,1,.39-.65c.19-.06.19,0-.06,1.15a.45.45,0,0,0,.27.59c.33.22.34.22.42-.14.18-.83.35-1.23.52-1.23s.3.25.15.8,0,.93.25.93c.13,0,.2-.11.18-.3-.06-.66,0-1,.21-1s.2.13.2.37c0,.58.16.71.81.67s.62,0,.44-1.14c-.06-.36,0-.43.19-.43s.41.33.41,1c0,.31.06.37.37.36s.34,0,.14-.17-.43-.8-.18-1,.6-.09.6.2a1.37,1.37,0,0,0,.14.47c.14.26.14.26.52,0l.37-.26L77.83,60a12.18,12.18,0,0,0-.32-1.21c-.1-.25-.1-.43,0-.54.24-.28,0-.3-.75,0A4.83,4.83,0,0,1,75.5,58.46Zm7.17-3.7c0-.08,0-.14-.11-.14a5.46,5.46,0,0,1-1.21-1.84.77.77,0,0,1,.2-.47c.3-.3,0-.38-1.24-.38a21.47,21.47,0,0,0-5,.82l-1.74.53a33.1,33.1,0,0,0-3.76,1.58,1,1,0,0,0-.51.48,15.43,15.43,0,0,0,0,2.09c0,.21.54.09.67-.16h0a2.79,2.79,0,0,0,.13-.93c0-.5,0-.67.2-.67s.36.44.31,1.14c0,.5,0,.52.35.53a1.9,1.9,0,0,0,.48,0,2.37,2.37,0,0,0,0-.81c-.09-.85-.05-1.1.2-1.1s.33.67.34,1.42c0,.49.09.52.63.21.37-.21.38-.23.21-.69a3.38,3.38,0,0,1-.17-.91c0-.61.34-.56.45.07.17,1,.54,1.52.8,1.09,0-.07,0-.13,0-.13-.32,0-.25-1.32.08-1.43.11,0,.16.13.16.54,0,.7.24,1,.65.76a.56.56,0,0,0,.28-.5c0-.45.18-.76.38-.64a.57.57,0,0,1,.15.42c0,.37.21.41.63.11a.71.71,0,0,0,.29-.67c0-.35.06-.45.21-.42s.19.07.18.11a.68.68,0,0,0,.11.34c.14.25.2.26,1,.14s1-.22.93-.69.33-.43.53,0l.15.36,0-.32c.09-.52.26-.59.5-.22s.53.45.64.15.44-.26.59,0S82.67,55,82.67,54.76Zm6.12-2.16a4.29,4.29,0,0,0-1.94-.34c-1.94-.06-2.43.06-2.88.7a2.19,2.19,0,0,0-.37.89c0,.32.05.37.43.39a2,2,0,0,0,1.28-.2c.14-.12.22-.09.38.15.26.39.61.37.8,0s.46-.41.36.18c-.07.4,0,.53.12.6s.26,0,.37-.29.49-.82.64-.82a3.19,3.19,0,0,1-.21,1.32.14.14,0,0,0,.07.2c.07,0,.19-.05.26-.22.18-.44.62-1,.7-.82s0,1.11-.18,1.11-.12.08-.12.18.22.24.48.32c.56.17.82.06,1.15-.53.14-.23.31-.37.45-.34.33.06.36.32,0,.63a.89.89,0,0,0-.27.47c0,.27.61.26.71,0C91.49,55,90.43,53.4,88.79,52.6Zm3.56,3.63a1,1,0,0,0,.26-.42c0-.23-.25-.15-.39.12C92,56.36,92.06,56.54,92.35,56.23Zm3.44,6.47a.14.14,0,0,0-.14-.14c-.08,0-.1.06-.06.14s.11.13.14.13S95.79,62.77,95.79,62.7Zm1.94.16A1.14,1.14,0,0,0,98,62.3c.11-.59,0-.8-1.62-2.32a6.13,6.13,0,0,1-1.74-2.25c-.52-1.1-.79-1.43-1.29-1.58-.24-.08-.31,0-.38.24a.59.59,0,0,1-.27.4c-.25.1-.24,1,0,1.09a.37.37,0,0,1,.2.33,2.12,2.12,0,0,0,1.35,1.31c.38,0,.48.23.22.49s0,.43.39.44a1.4,1.4,0,0,1,.55.12c.15.1.12.15-.17.26-.64.25-.36.54.52.54.58,0,.58.21,0,.33s-.62.33-.14.33.8.15.59.28-.12.17.08.38A1.59,1.59,0,0,0,97.73,62.86Zm-.14.77c-.21,0-.34.07-.34.19a.19.19,0,0,0,.18.2.55.55,0,0,0,.35-.2C97.92,63.66,97.89,63.63,97.59,63.63Zm-.43,1.45a.86.86,0,0,0,.4-.08c.12-.13-.34-.43-.54-.35S96.83,65.08,97.16,65.08Zm1-.37c-.14,0-.16,0-.1.29s0,.35-.28.35-.83.26-.83.45.18.06.4,0c.55-.12.7.26.25.61-.27.21-.29.27-.12.38s.38.17.67-.4S98.5,64.81,98.19,64.71ZM65.65,48.12c.1-.32-.15-.35-.48-.06s-.21.25,0,.6.27.46.59.17.31-.44,0-.44S65.59,48.31,65.65,48.12Zm.14-.5c.19.29,1.11-.06,1.11-.42s0-.31-.54-.12S65.68,47.44,65.79,47.62Zm-.68-2.43c.11.19.87-.1.87-.33s-.59-.24-.79,0S65.06,45.12,65.11,45.19Zm-.45,4c-.6-.44-.95-.06-.39.43a.67.67,0,0,0,.83.16c.24-.09.29-.31.07-.31A1.66,1.66,0,0,1,64.66,49.17Zm-.14-5c0,.15.15.14.57-.06s.48-.49.13-.49S64.52,44,64.52,44.17Zm-2,7.48a.77.77,0,0,0,.08.56c.17.18.58.2.68,0s0-.19-.12-.28a.78.78,0,0,1-.2-.54c0-.2,0-.4-.12-.44a1.41,1.41,0,0,1-.2-.6c-.08-.54-.25-.75-.47-.6s0,.35.14.77A2.36,2.36,0,0,1,62.49,51.65Zm1.63-5.21c0,.22.08.18.48-.23s.45-.52.41-.56S64.12,46.19,64.12,46.44ZM64.23,45c.16-.12.26-.26.22-.33s-.73.14-.73.36S63.86,45.25,64.23,45Zm9,29.51a.49.49,0,0,0,.65,0,.43.43,0,0,1,.41,0c.43.11.42-.18,0-.35S73,74.22,73.21,74.51ZM63.57,48.23c1,0,1.2-.13,1-.43s0-.31.71-.87,1-.93.61-.93a4.81,4.81,0,0,0-1.6,1.47c0,.23-.2.31-1.18.42-.17,0-.35.11-.38.21S62.82,48.27,63.57,48.23Zm.36-4.34c.11.19.58-.11.75-.48a.84.84,0,0,1,.39-.4c.34-.11.32-.59,0-.59s-.26-.06-.19-.25,0-.26-.21-.32-.27-.13-.19-.62.08-.55-.22-.5-.29.11-.25.24a2.76,2.76,0,0,1,0,.62c0,.3,0,.44.16.44.45,0,.46.82,0,1.35C64,43.59,63.89,43.82,63.93,43.89Zm9.5,23.31c.4.16,1.26.17,1.36,0s-.09-.17-.3-.21l-.74-.2C73.14,66.6,72.85,67,73.43,67.2ZM88.9,55.48a.19.19,0,0,0,.2.19c.22,0,.64-.58.57-.8S88.9,55.24,88.9,55.48ZM73.56,66.54a1.07,1.07,0,0,0,.89-.09c.13-.12-.34-.3-.76-.31S73.12,66.36,73.56,66.54Zm3.89-53.49c.18-.07.2-.2.13-.76-.1-.72-.23-1-.46-.81s-.19.86,0,1.32C77.19,13,77.3,13.11,77.45,13.05Zm1.88,2.85c-.24.24,0,.38,1,.59a4.46,4.46,0,0,0,1,.13c.17-.09,0-.3-.28-.3a.64.64,0,0,1-.36-.11,2.94,2.94,0,0,0-.69-.29C79.62,15.79,79.45,15.78,79.33,15.9Zm-46,.76,1.21.46c.54.22.65.11.15-.14a3.88,3.88,0,0,1-.74-.46.86.86,0,0,0-.3-.2,10.25,10.25,0,0,1-1-.53,4.75,4.75,0,0,0-1.13-.53C30.77,15.26,31.92,16.15,33.29,16.66Zm46.63-4.53c.08-.63,0-.92-.35-.8s-.31,1.35,0,1.45S79.85,12.74,79.92,12.13Zm-.29,2.95a2.83,2.83,0,0,0,.92.3c.29,0,.26,0-.19-.26a3.57,3.57,0,0,1-.8-.53c-.35-.32-.63-.34-.57,0C79,14.69,79.3,14.92,79.63,15.08Zm-1-3.86c-.23-.32-.43,0-.55.76-.06.36,0,.63,0,.63C78.59,12.61,79,11.64,78.65,11.22ZM81.41,29c-.11,0-.2.12-.2.28s0,.26.2.12a.54.54,0,0,0,.2-.28C81.61,29.09,81.52,29,81.41,29Zm.79-.92c-.08-.08-.72.54-.72.7s.17,0,.39-.25S82.23,28.15,82.2,28.12Zm-3.37,9.2a3.51,3.51,0,0,0,.81,2.35c.28.35.5.5.69.48s.47-.38.19-.38c-.11,0-.42-.36-.69-.79a3.49,3.49,0,0,1-.6-1.87c-.09-1-.15-1.13-.52-1.49s-.45-.37-.56-.26-.05.25.23.53S78.76,36.39,78.83,37.32Zm-1.33.4c-.29.35.1,1.8.77,2.81.2.32.28.35.61.22s.16-.14-.12-.5A3.58,3.58,0,0,1,78,37.74c0-1,0-1.05-.37-1.42s-.84-.53-.41-.08S77.74,37.44,77.5,37.72Zm5.8-8.41c.39-.33.38-.4-.08-.4s-.83.35-.54.54S83,29.6,83.3,29.31Zm2.9,6a1.57,1.57,0,0,1,.43.12.53.53,0,0,0,.31.06c.47,0,.18-.27-.63-.6s-.86-.37-.86-.14S85.76,35.27,86.2,35.35ZM87.31,34c0-.22-1.24-.68-1.46-.54s-.06.37.47.54C87,34.24,87.31,34.24,87.31,34ZM82,30.43a.32.32,0,0,0-.06.34.25.25,0,0,0,.3.05l.78-.28c.58-.21.83-.53.5-.66A2.6,2.6,0,0,0,82,30.43ZM76,38a6.39,6.39,0,0,0,.39,2.78,1.24,1.24,0,0,0,.49.43c.56.22.67.08.24-.32s-.52-1-.66-2.49c-.11-1.1-.38-1.83-.68-1.83s-.15.48.08.68S76.06,37.58,76,38Zm11.36-5.2c.08-.22-.73-.64-1.09-.57s-.29.34.21.54S87.26,33.06,87.36,32.82Zm-1.51,4.29c.75.34.8.34.8,0,0-.17-.16-.32-.49-.46a6,6,0,0,1-.92-.53c-.42-.33-.85-.44-.85-.22S85.28,36.85,85.85,37.11ZM84.5,38.35a1.33,1.33,0,0,0,.69.15,5,5,0,0,1,.56-.14c.47-.1.49-.44,0-.44A3.28,3.28,0,0,1,84,37.34c-.22-.2-.34-.23-.45-.12S83.88,38.06,84.5,38.35Zm-60.41-17c-.13.13-.1.21.17.42a2.37,2.37,0,0,1,.56.74c.27.56.34.58.34.1S24.32,21.09,24.09,21.32ZM87.81,31.6c.06-.2-.89-.77-1-.62s0,.32.41.61S87.73,31.83,87.81,31.6ZM29.36,16.41c-.38-.25-.88-.3-.88-.09a2.29,2.29,0,0,0,.64.6,9.89,9.89,0,0,1,2.05,2.21c.12.21.29.37.36.37s.1-.06.06-.13a2.06,2.06,0,0,1-.15-.49A6.75,6.75,0,0,0,29.36,16.41ZM72.93,40.19a5.7,5.7,0,0,0,.24,2c.17.39.29.5.55.5s.42-.09.12-.42-.25-.63-.31-1.67c-.1-1.45-.43-2.54-.76-2.55s-.22.29,0,.49A5.11,5.11,0,0,1,72.93,40.19Zm1.46-1.69a3.08,3.08,0,0,0,.12,1.21,4.32,4.32,0,0,1,.21.89,2.56,2.56,0,0,0,.19.7c.13.31.28.46.47.46.34,0,.34-.1,0-1s-.56-1.85-.35-2-.46-1.8-.87-1.8-.23.24.09.63A1,1,0,0,1,74.39,38.5Zm13.72-8.32c0-.19-.28-.35-.62-.35-.15,0-.16.06,0,.27S88.11,30.46,88.11,30.18ZM76.89,13.3c.1-.16-.68-1-.83-.9s0,.58.37.83S76.8,13.44,76.89,13.3Zm-1.14.26c0-.12,0-.16-.17-.14a.43.43,0,0,0-.3.23c0,.11,0,.16.18.13A.4.4,0,0,0,75.75,13.56Zm-.48,4.08c.49-.47.64-.83.41-1s-.42.1-.89.79a14.11,14.11,0,0,0-1.57,3.14.21.21,0,0,0,.22.06,6,6,0,0,0,1.22-2.07A2.3,2.3,0,0,1,75.27,17.64Zm-.48-3.17a.76.76,0,0,0-.42-.27c-.28,0-.21.36.11.59S75.12,14.83,74.79,14.47Zm4.63,9.32c.22-.09.28-.71.07-.71s-.25.23-.39.52a7.38,7.38,0,0,1-.87,1.2c-.66.74-.7.85-.36,1.05s.53.17.76-.23a3.68,3.68,0,0,1,.87-.82,3.12,3.12,0,0,0,.65-.56c0-.06-.2-.1-.46-.1C79.22,24.14,79.06,23.93,79.42,23.79ZM78.72,22a9.26,9.26,0,0,0-1.52,1.75,1.65,1.65,0,0,0-.23.7c0,.43.29.38.36-.06a3.74,3.74,0,0,1,1.07-1.53C78.8,22.45,79,22,78.72,22Zm-46-9a.16.16,0,0,0-.22.16c0,.13.12.21.28.21C33.05,13.4,33,13.09,32.67,13Zm51.64,25.7a3.8,3.8,0,0,1-.8-.68c-.2-.27-.57-.36-.57-.13,0,.41.57,1,1.15,1.22.74.26.83.28.83.11A1.94,1.94,0,0,0,84.31,38.73ZM77.77,21.09c-.14,0-.16,0-1.06,1.17-.67.84-.9,1.34-.73,1.61s.27.07.46-.52a4.55,4.55,0,0,1,.82-1.22C77.87,21.48,78.06,21.09,77.77,21.09Zm-4.13-3.34c.21-.22.2-.5,0-.5s-.52.35-.42.52S73.44,18,73.64,17.75Zm.32-2.1c.2,0,.09-.35-.17-.59s-.3-.21-.43-.08-.09.21.17.42A1.64,1.64,0,0,0,74,15.65Zm2.56,5.83a.51.51,0,0,0,.19-.31c0-.08.12-.22.26-.31s.39-.7.2-.7a9.89,9.89,0,0,0-1.85,2,1.25,1.25,0,0,0,0,.61c.12.49.31.38.69-.41A3.61,3.61,0,0,1,76.52,21.48ZM76.13,19c.2-.08.25-.7.06-.7s-.24.19-.39.43-.54.8-.87,1.26a14.31,14.31,0,0,0-.87,1.36c-.26.5-.26.52,0,.52s.73-.46,1.36-1.7A4.53,4.53,0,0,1,76.13,19ZM33,35.13A4.26,4.26,0,0,0,33.76,34c.12-.29-.38.25-.64.67C33,34.93,32.9,35.14,33,35.13ZM26.32,33.3c-.22-.26-.5.13-1,1.34C24.38,37,24,38.29,24.08,38.75c0,.12.09.23.14.23.26,0,.54-.54.68-1.33a13,13,0,0,1,1.17-3.37C26.39,33.66,26.44,33.45,26.32,33.3Zm.76.94c-.09.09-.91,2.23-1.27,3.33a5.4,5.4,0,0,0-.25,1.37c0,.49,0,.58.23.54s.29-.27.41-.83a21.29,21.29,0,0,1,1.11-3.49c.25-.53.26-.59.06-.79S27.12,34.19,27.08,34.24ZM25,31.59a18.12,18.12,0,0,0-1.7,4c-.52,1.55-.6,2-.43,2.14s.26,0,.63-1.14c.21-.67.62-1.85.91-2.62C25,32.42,25.21,31.52,25,31.59ZM37.42,40.9l.4-.18H37.4a.87.87,0,0,0-.58.19C36.61,41.16,36.86,41.16,37.42,40.9ZM19.64,29.09A11.9,11.9,0,0,0,17.74,32c0,.11.12.2.27.2s.37-.21.65-.83a7.71,7.71,0,0,0,.46-1.19c.08-.36.18-.48.68-.82C20.1,29.17,20,29,19.64,29.09Zm65.84-4.74c0,.12.31.33.64.46h0c.67.27.84.26.9,0,0-.14-.16-.27-.59-.42C85.64,24.08,85.42,24.08,85.48,24.35ZM23.37,32.09c.22-.38.26-.66.09-.66s-.1-.06-1.22,2.38c-.82,1.78-1.13,2.69-1,2.92s.33.12.55-.37l.45-1a12.9,12.9,0,0,0,.92-2.6A1.61,1.61,0,0,1,23.37,32.09ZM82,18.53c-1,.15-.5.57.64.57a1.56,1.56,0,0,1,.86.24,1.77,1.77,0,0,0,.78.27,1.69,1.69,0,0,1,.51.09,1,1,0,0,0,.73,0c.16-.17-.21-.45-.6-.45A3.05,3.05,0,0,1,84,19a2.48,2.48,0,0,0-.72-.2c-.14,0-.25-.06-.25-.12S82.52,18.44,82,18.53Zm2.78,3.73c-.1.1-.09.2,0,.36a1,1,0,0,1,.19.5c0,.2.12.3.46.39a1.82,1.82,0,0,1,.59.24c.17.16.57.16.67,0s-.07-.2-.25-.29c-.38-.17-.41-.25-.2-.46s-.07-.25-.6-.51S84.87,22.15,84.76,22.26ZM72.39,16a.51.51,0,0,0,.06.43c.15.36.42.46.42.16S72.51,15.84,72.39,16Zm11,5.07c-.1.26.18.49.49.4a2.71,2.71,0,0,1,.92.2,8,8,0,0,0,.82.26c.19,0,.51-.16.51-.27s-1-.64-1.83-.73S83.46,20.82,83.38,21ZM82.06,19.8c-.14.22.13.34,1.08.47a7.6,7.6,0,0,1,1.45.34c.69.26,1.26.28,1.26,0s-.12-.31-.88-.48A10,10,0,0,0,82.06,19.8Zm-51,14c.11,0,.3-.16.43-.36a5.49,5.49,0,0,1,.49-.67c.14-.16.2-.3.12-.3-.23,0-.83.54-1,1S30.88,33.81,31.05,33.81ZM25.91,70.29c.16.16.31.1.31-.11A.19.19,0,0,0,26,70C25.82,70,25.76,70.14,25.91,70.29Zm-.48-1.43a.19.19,0,0,0,.19.2c.12,0,.17-.08.12-.2s-.13-.2-.19-.2S25.43,68.75,25.43,68.86Zm2.85,8.36c-1,.11-1.39.26-1.39.51s.07.26,1,0C29.07,77.26,29.2,77.12,28.28,77.22ZM26.89,77c0,.17.16.15.46-.06a3.79,3.79,0,0,1,.79-.34c1.35-.42,1.68-.72.63-.58S26.89,76.63,26.89,77ZM25.32,69.5a.16.16,0,0,0,.16.22c.13,0,.21-.11.21-.28S25.38,69.17,25.32,69.5Zm6.5-35.42a4.11,4.11,0,0,1,.86-.86c.58-.42.69-.6.38-.6a4.87,4.87,0,0,0-1.59,1.58C31.15,34.77,31.42,34.67,31.82,34.08Zm5.94,5.35c.15-.18.13-.2-.2-.16s-.41.11-.44.2C37,39.72,37.55,39.68,37.76,39.43Zm-.09-.66c.33-.13.25-.32-.12-.32s-.42.13-.24.31S37.42,38.86,37.67,38.77Zm.19-1.19c-.13-.12-.51.1-.51.29s.06.18.12.18S37.94,37.66,37.86,37.58Zm0-1.06c-.18-.11-.39,0-.39.28a.19.19,0,0,0,.18.19C37.89,37,38.05,36.63,37.88,36.52Zm-2,28.38c0,.25.06.32.23.29s.4-1,.18-1.21S35.9,64.38,35.9,64.9ZM23.41,55.38a3.35,3.35,0,0,0,.46-1.58c0-.14-.15-.25-.25-.25s-.16.14-.11.58a1,1,0,0,1-.2.91,1.68,1.68,0,0,0-.27.42C23,55.6,23.27,55.55,23.41,55.38ZM36.09,77.83l-.1-.49-.19.45a1.19,1.19,0,0,0-.11.63.24.24,0,0,0,.19.18C36.12,78.6,36.19,78.33,36.09,77.83ZM31.26,31.54c0-.27-.27-.07-.92.68-.38.44-.62.8-.54.8A6,6,0,0,0,31.26,31.54Zm5.26,47.09a.25.25,0,0,0-.28.17c-.06.16,0,.21.22.17S36.82,78.69,36.52,78.63ZM18.87,28a10.26,10.26,0,0,0-2.32,3.43c0,.16.05.28.11.28a2.6,2.6,0,0,0,.79-1.23c-.05-.22.37-.82,1.05-1.51S19.23,28,18.87,28Zm11.46,2.83c0-.27-.45,0-.72.51s-.19.37,0,.37S30.33,31.08,30.33,30.81Zm4.06,47a6.74,6.74,0,0,1,.08-1c0-.27,0-.52,0-.56s-.5.62-.6,1.37-.08.68.23.68S34.39,78.27,34.39,77.84Zm1-.53c.07-.58,0-.83,0-.83s-.35.42-.47,1.22c-.07.52,0,.63.11.63S35.32,78.25,35.43,77.31Zm-7.89-2.65a1.73,1.73,0,0,0,.67-.31c0-.18-.43-.26-.88-.18s-.64.24-.53.52S27,74.83,27.54,74.66ZM25.1,76.55c-.4.17-.46.24-.33.4s.21.16.53,0C26.06,76.55,25.89,76.22,25.1,76.55Zm2.82-1.11c.66-.15.75-.21.62-.43s-1.23-.06-1.6.28-.41.6-.15.7c.09,0,.25,0,.36-.18A1.63,1.63,0,0,1,27.92,75.44Zm-2.63.77c.08,0,.15-.15.16-.33s0-.4,0-.49-.09-.19-.21-.21-.22,0-.18.46.05.52.06.54S25.22,76.21,25.29,76.21ZM18.05,27.48c.92-.87,1-1,.31-.54-1.05.72-2.47,2.3-2.47,2.76,0,.28.26.12.45-.3S16.77,28.71,18.05,27.48Zm7.38-12.95c.74.2,1.29.24,1.38.08s-.09-.16-.29-.21a1.58,1.58,0,0,1-.58-.29c-.28-.24-1.11-.19-1.11.08C24.83,14.3,25.08,14.44,25.43,14.53Zm-4.91,4c.17-.1.15-.13-.09-.13s-.3.06-.3.13S20.27,18.74,20.52,18.57Zm8.09-5.52.88.21c.3,0,.32-.24,0-.39a7.39,7.39,0,0,0-2.13-.57c-.22.13-.1.44.19.5ZM24.5,15.56c.34.13.93.1.93,0s-.15-.19-.33-.26-.34-.19-.34-.26-.2-.14-.46-.14-.46.05-.46.11S24.23,15.46,24.5,15.56Zm2.62-1.68c.43.23.89.19.89-.07s-1.12-.52-1.83-.53c-.52,0-.39.31.15.36A2.59,2.59,0,0,1,27.12,13.88Zm-5,3.37a.78.78,0,0,1,.36-.19c.19-.06.29-.19.27-.32s.07-.22.59-.19.86-.15.44-.31a.2.2,0,0,1-.12-.26c.05-.12-.05-.24-.24-.31s-.36-.06-.58.19a1.08,1.08,0,0,1-.59.35c-.28,0-.33.11-.31.46s0,.43-.5.51c-.28.05-.52.15-.52.22S22,17.41,22.12,17.25Zm-5.94,7.11,1.07-.24c.71-.17.94-.38.61-.59a1.41,1.41,0,0,0-.69.12c-.31.11-.72.23-.92.28s-.36.17-.36.29S16,24.41,16.18,24.36ZM16,25.57c-.1.16-.14.29-.09.29a2.51,2.51,0,0,0,.93-.54,2.65,2.65,0,0,1,.84-.38c.6-.16.71-.5.14-.43A4.22,4.22,0,0,0,16,25.57Zm4.88,1.78c0,.23.35.07.82-.39s.62-.7.32-.7A3.14,3.14,0,0,0,20.92,27.35Zm-4.4.08a5.23,5.23,0,0,1,1.08-.84c.54-.27,1.2-.86,1-.86a5.69,5.69,0,0,0-1,.42c-.94.46-1.64,1.14-1.64,1.6C15.89,28,16,28,16.52,27.43Zm4.21-1.16c.12.19.22.14.85-.41s.66-.76.18-.61S20.64,26.12,20.73,26.27Zm.5-1.81c.22-.26.31-.46.21-.46a1.3,1.3,0,0,0-.78.76C20.66,25,20.83,25,21.23,24.46Zm59.48-7.11c0,.18.23.24.84.3a3.29,3.29,0,0,1,1.06.22c.41.24.43.05,0-.3a1.39,1.39,0,0,0-.66-.34c-.16,0-.52,0-.8-.06S80.68,17.17,80.71,17.35ZM30.5,16.42c.38.3.93.75,1.22,1a5.67,5.67,0,0,0,1.06.74c1,.49,1.37.29.47-.23a10.1,10.1,0,0,1-1.36-1.07c-1.13-1-1.55-1.35-1.84-1.35C29.61,15.52,29.79,15.88,30.5,16.42Z"/><path class="cls-1" d="M73.14,8c-.68-.72-.7-.78-.54-1.24A3.43,3.43,0,0,0,72.77,6a1.52,1.52,0,0,1,.3-.72c.54-.77.17-.86-1-.25a3.23,3.23,0,0,1-1.37.48,5.53,5.53,0,0,1-1.21-.93c-.8-.77-1.18-1-1.18-.78h0a1.68,1.68,0,0,0,.22.43,5.89,5.89,0,0,1,.39,1.42c.1.59.22,1.19.25,1.32s-.22.48-.76.9c-.88.68-1.2,1.11-.74,1a1.43,1.43,0,0,1,.68.08c.4.16.4.16.16.67a7.45,7.45,0,0,1-.76,1.13c-.27.34-1,1.31-1.58,2.16S65,14.58,64.85,14.75s-1,1.48-2,2.92-2.1,3-2.45,3.47-1.14,1.57-1.75,2.46S57,26,56.36,26.84l-2.07,2.93c-.51.72-1.3,1.82-1.77,2.46A18.81,18.81,0,0,0,51.34,34c-.44.82-1.39,1.39-1.92,1.15a1.84,1.84,0,0,1-.63-.59,6.89,6.89,0,0,0-.6-.82c-.69-.78-6.3-9.12-10.42-15.48-1.46-2.25-1.59-2.54-1.13-2.54s.24-.4-.42-.82c-.41-.26-.43-.32-.33-1.06a4.8,4.8,0,0,1,.31-1.19c.48-.92,0-.85-1,.14a3.9,3.9,0,0,1-1,.77A6.37,6.37,0,0,1,32.46,12c-.09-.17-.22-.25-.29-.19s0,.2,0,.31a8.59,8.59,0,0,1,.66,2.1c0,.09-.27.3-.61.48-1.23.62-1.1,1.23.26,1.23,1.12,0,1.27.17,1.83,2.13.11.39.45.08.49-.45.06-.69.33-1.37.55-1.37S39.23,21.16,40,22.7a7.53,7.53,0,0,0,.77,1.2c.51.61,4.67,6.86,5.33,8,.27.47.83,1.33,1.24,1.93A3.87,3.87,0,0,1,48.25,36l.16,1.08L47.5,38a7.19,7.19,0,0,0-.92,1,3.58,3.58,0,0,0,1.07,0l1.07-.1.48,1.06c.47,1,.78,2.68,1.52,8,.29,2,.19,2.2-.67,1.2-.34-.4-.56-.53-.75-.46s-.24.13,0,.45a3.24,3.24,0,0,1,.33,1.15c.11.8.11.8-.46,1.14-.74.43-.66.77.23,1l.69.17,0,1.15a101.58,101.58,0,0,1-1.34,11.78c-.08.51-.23,1.58-.32,2.38S48.11,70,48,70.9s-.34,2.12-.4,2.74c-.09,1-.15,1.15-.52,1.42A1,1,0,0,1,45.53,75c-.32-.37-.8-.52-.8-.26a2.34,2.34,0,0,0,.22.58,5.39,5.39,0,0,1,.32.93c.09.45,0,.53-.68,1-1.07.79-1.05,1.08.06.94.83-.1.86-.1,1,.33a3,3,0,0,1,.17.86c0,.84.66.69.8-.18s.34-.93,1.49-1A4.29,4.29,0,0,0,49.19,78c.05-.05-.24-.36-.64-.7-.6-.51-.74-.71-.74-1.13A2.48,2.48,0,0,1,48,75.3a2.06,2.06,0,0,0,.15-1.06A21.55,21.55,0,0,1,48.51,71c.22-1.44.46-3.24.55-4s.18-1.5.22-1.64.18-1.21.31-2.38.29-2.59.38-3.14.27-1.73.41-2.62.3-1.93.36-2.32a6.41,6.41,0,0,1,.43-1.4c.33-.75.59-.9,1.6-.9.75,0,.87-.24.25-.45-.78-.28-1.05-.61-1.05-1.31a2.86,2.86,0,0,1,.23-1.07c.41-.78.18-1.37-.33-.86-.11.1-.21.11-.26,0a66.24,66.24,0,0,1-1-6.77c-.09-1.3-.07-1.48.26-2.1s.36-.68,1.36-.77A2.9,2.9,0,0,0,53.48,39c.19-.19.13-.26-.45-.52a4.54,4.54,0,0,1-1.19-.85L51.32,37,51.5,36a9.55,9.55,0,0,1,1.32-3.19c.26-.28,1.66-2.24,2.62-3.64.48-.72,1.34-1.93,1.91-2.7s1.44-2,1.94-2.73,1.11-1.61,1.34-1.93c.89-1.21,2.84-4.1,3.21-4.73a10.13,10.13,0,0,1,.88-1.26c.28-.32,1.37-1.75,2.42-3.16s2-2.61,2.07-2.66a1.22,1.22,0,0,0,.25-.58l.11-.49.21.38a1.8,1.8,0,0,1,.21.62.7.7,0,0,0,.24.45.82.82,0,0,1,.23.55c0,.43.28.5.4.1a6,6,0,0,1,.8-1.68,2.16,2.16,0,0,1,1.2-.21c.58,0,1-.06,1-.16A3.79,3.79,0,0,0,73.14,8ZM34.78,15.32c-.36.29-.4.29-.67,0a.78.78,0,0,0-.77-.15c-.6.13-.61-.09,0-.58a1.11,1.11,0,0,1,1.63.08C35.14,15,35.13,15.05,34.78,15.32ZM46.7,77.15a.36.36,0,0,0-.27.31c0,.27-.25.29-.35,0a1.11,1.11,0,0,1,.36-1.27c.54-.29.55-.28.54.31C47,76.89,46.88,77.09,46.7,77.15Zm.64.37c-.09,0-.12-.07-.07-.15s.13-.16.17-.16.06.07.06.16A.16.16,0,0,1,47.34,77.52ZM50.9,52.1c-.2,0-.64-.76-.54-.93s.33-.17.6.24S51.18,52.1,50.9,52.1Zm.82-13.71h-.49c-.28,0-.52.09-.55.19l-.24.85c-.09.36-.23.66-.3.66s-.21-.3-.32-.66c-.34-1.15-.3-1.12-1.39-1.18-.38,0-.37,0,.19-.51l.58-.5L49,36.35c-.18-.75-.18-.88,0-.88s.21.05.21.11a1.91,1.91,0,0,0,1,1c.15,0,.33.19.42.43a3.58,3.58,0,0,0,.64.92Zm20-30.7c.23.35.23.37,0,.33s-.39.17-.67.68l-.4.72-.22-.65c-.18-.51-.31-.66-.62-.69s-.39-.11-.33-.47A1.58,1.58,0,0,1,69.72,7a1.33,1.33,0,0,0,0-.75c-.09-.52-.08-.56.19-.41a2.49,2.49,0,0,1,.56.49l.27.32.61-.34c.34-.19.66-.3.71-.24s0,.35-.23.66C71.55,7.27,71.54,7.34,71.77,7.69Z"/></g></g></svg>