<svg xmlns="http://www.w3.org/2000/svg" viewBox="0 0 45.97 57.87"><defs><style>.cls-1{fill:#1a171b;}.cls-2{stroke:#fff;stroke-width:0.25px;}</style></defs><title>Asset 419</title><g id="Layer_2" data-name="Layer 2"><g id="Layer_1-2" data-name="Layer 1"><path class="cls-1" d="M11.75,57.27a.46.46,0,0,1,.05.21.45.45,0,0,1-.08.26.25.25,0,0,1-.22.1H10.21a.62.62,0,0,1-.51-.32A1,1,0,0,1,9.5,57V53.83a.27.27,0,0,1,.1-.22.31.31,0,0,1,.23-.08.48.48,0,0,1,.32.11.36.36,0,0,1,.14.29V57a.16.16,0,0,0,.06.13.17.17,0,0,0,.13,0h1.13A.17.17,0,0,1,11.75,57.27ZM15.06,57l-.57.32a1,1,0,0,1-.48.14.87.87,0,0,1-.69-.43,1.3,1.3,0,0,1-.27-.74c0-.17.06-.25.19-.25h1.5a.3.3,0,0,0,.24-.11.41.41,0,0,0,.08-.25.35.35,0,0,0-.05-.18.17.17,0,0,0-.13-.08H13.19s-.08,0-.1-.11a1.11,1.11,0,0,1,0-.28,1.2,1.2,0,0,1,.18-.67.69.69,0,0,1,.62-.35,1,1,0,0,1,.5.2.9.9,0,0,0,.53.21.2.2,0,0,0,.18-.13.87.87,0,0,0,0-.28c0-.12-.1-.24-.3-.35a1.27,1.27,0,0,0-.59-.17,1.94,1.94,0,0,0-1.31.6,2.28,2.28,0,0,0-.78,1.76,2.12,2.12,0,0,0,.49,1.5,1.61,1.61,0,0,0,1.25.5,2,2,0,0,0,.87-.24c.32-.15.48-.29.48-.41a.19.19,0,0,0-.05-.14A.14.14,0,0,0,15.06,57Zm4.09-1.34a2.2,2.2,0,0,1-.6,1.55,1.84,1.84,0,0,1-1.41.65A1.35,1.35,0,0,1,16,57.24a2.84,2.84,0,0,1-.43-1.64A2.07,2.07,0,0,1,16.23,54a1.72,1.72,0,0,1,1.17-.53,1.52,1.52,0,0,1,1.27.62A2.46,2.46,0,0,1,19.15,55.67Zm-.88.09A2.78,2.78,0,0,0,18,54.57c-.18-.4-.43-.59-.74-.59a.73.73,0,0,0-.71.56,3.16,3.16,0,0,0-.16,1.12,2.82,2.82,0,0,0,.22,1.16c.17.38.4.57.7.57a.77.77,0,0,0,.73-.54A2.62,2.62,0,0,0,18.27,55.76Z"/><path class="cls-2" d="M42,49.83a1.28,1.28,0,0,1,1.39-1.18s1.43-.06,1,2.65c0,0-.54,1.85-2.71,1C41.69,52.26,43,51.89,42,49.83Zm2.32-1a2.51,2.51,0,0,1,.18,3s1.11.48,1.37-1.5A1.29,1.29,0,0,0,44.29,48.85ZM37.8,50.31a1.74,1.74,0,0,1,.88-1.55c1.06-.51,3,.79,3,.79,0-.82,1-1.18,1-1.18a8.5,8.5,0,0,1-3.3-1.61,2.2,2.2,0,0,0-2.52,1.38A1.85,1.85,0,0,0,37.8,50.31Zm.31,0c.08,1.41,1.63,1,1.63,1,1.08-.54,1,.79,1,.79a1.19,1.19,0,0,0,.7-1.81c-1.58-1.91-2.81-1-2.81-1C38.19,49.49,38.11,50.31,38.11,50.31Zm-.88-17a.7.7,0,0,0,.57,1.05c0-.57.39-.45.39-.45.78.76-.36,1.86-.36,1.86,3.1-.68,1.94-2.63,1.94-2.63A2.1,2.1,0,0,0,37.23,33.33Zm-3.32,2.88c-.23-1.18-.91-.93-.91-.93-1.15.79.54,3.53.54,3.53a1.59,1.59,0,0,0,2.3.14c1.12-1.19,1.79-.31,1.79-.31a1.13,1.13,0,0,0,.68.53c.64-.14.26-1.61.26-1.61a1.56,1.56,0,0,0-2.24-.93C34.44,37.79,33.91,36.21,33.91,36.21ZM21.55,40.89A5.48,5.48,0,0,0,25.87,39c1.69-2.68,3.27-2.09,3.27-2.09a4.1,4.1,0,0,1,0-4.23,5.51,5.51,0,0,0,1.66,5.47,4.67,4.67,0,0,1,1.38,1.95c.09.7.93,1.12.93,1.12,1,.43,3.11-.14,3.11-.14A1.77,1.77,0,0,0,37.32,39c-.31-.53-1.13.38-1.13.38a2.16,2.16,0,0,1-2.45.19c-1.22-.76-1.64-3.16-1.64-3.16-.06-1.47.5-1.89.5-1.89.69-.51,1.36.36,1.36.36.59,1.3,1.22,1.25,1.22,1.25a5.75,5.75,0,0,0,2-.14c.9-1.05.54-1.16.54-1.16a1.18,1.18,0,0,1-.94-1.33c.48-1.32,2.29-1,2.29-1l-.73-1.3c-.54-.76-2.67.34-2.67.34-.49.2-.58-.34-.58-.34C35.6,30.2,32.6,29,32.6,29c3.35.4,3,1.95,3,1.95a2.62,2.62,0,0,1,3.51.11c1.24-.48.67-2.51.67-2.51A4.66,4.66,0,0,1,39,26.6c0-1.5-.35-1.56-.35-1.56-1.09.68-2.63-.34-2.63-.34a1.82,1.82,0,0,1-2,.34C32.5,26.25,32,24.76,32,24.76c-1.58-2.37-4.54-.54-4.54-.54-6.52,2.09-8.16-2.65-8.16-2.65-.95-3.55,1.64-4.74,1.64-4.74.37-1,1.89-1.44,1.89-1.44,3.81-1,1.78,1.19,1.78,1.19a3.89,3.89,0,0,1,5.22.28C29.48,14.41,26.09,14,26.09,14a5.51,5.51,0,0,0-5.69,1.84,3.88,3.88,0,0,0-2.77,4.4,5.69,5.69,0,0,0-2.37,7c1.58,3.27,5.3.73,5.3.73,4.4-2.85,6.55-.11,6.55-.11-2.54-1.5-6.32,1-6.32,1-4,2.56-6-.71-6-.71-1.55,2.91-.71,7.25-.71,7.25a4.75,4.75,0,0,0,5.53,4.06A6.7,6.7,0,0,0,23.53,36c1.49-3.75,4.14-4,4.14-4-1.69.36-3.44,4.2-3.44,4.2-1,2.77-4.17,3.67-4.17,3.67-2.29,1.35-.12,2.82-.12,2.82C19.66,41.09,21.55,40.89,21.55,40.89ZM23.38,17c1.36-1.33.77-1.24.77-1.24C17.86,18.55,21,22.25,21,22.25c2.29,3,8.27.65,8.27.65,2.45-.54,3.44,2,3.44,2,.62.34,1-.4,1-.4A3.57,3.57,0,0,0,29.28,22c-3.64,1.1-5.45-.36-5.45-.36C20.81,19.26,23.38,17,23.38,17ZM35.8,24.19a4.57,4.57,0,0,0-.48-3c-1-1.53-4.94-1.38-4.94-1.38-3.07.16-3.47-1.61-3.47-1.61-.3-1.27,1.1-1.69,1.1-1.69-5.67.28-4.37,3.41-4.37,3.41.69,2.35,7.3,1.44,7.3,1.44a3.41,3.41,0,0,1,3.28,3.21A1.12,1.12,0,0,0,35.8,24.19Zm-5.93-6.77s-1.94-1.43-2.28.34c0,0-.26,1.44,2.62,1.33,0,0,4.34-.42,5.67,1.66a4.75,4.75,0,0,1,.51,3.44,1.93,1.93,0,0,0,2.37.55s1.61-1.7.93-3.48a3.82,3.82,0,0,0-3.25-2.14s-1.12-.06-1.24-.85c0,0,.2-.82,1.13-.42a2.73,2.73,0,0,0-2.61-1.07,3.17,3.17,0,0,1-3.62-1.72,1.78,1.78,0,0,0,.25,1.69S30.69,17.73,29.87,17.42ZM30,38.18a2.48,2.48,0,0,1-.65-.86c-2.11-.27-3.27,2.22-3.27,2.22a4.17,4.17,0,0,1-3.84,2c-2.7.37-1.52,2.58-1.52,2.58,0-1.38,2.71-.15,2.71-.15,2.17.87,3.33-2.37,3.33-2.37C28,38.66,30,38.18,30,38.18Zm3.44,3.73c-.93,0-1.63-1.33-1.63-1.33a4.41,4.41,0,0,0-1.5-2c-1.94.56-3.21,3.27-3.21,3.27-1.84,3.5.44,3.41.44,3.41.81-.22,1.14.71,1.14.71a1,1,0,0,0-.46-1.35c-1-1.27,1-2.85,1-2.85-1.18,1.8,0,2.59,0,2.59a1.62,1.62,0,0,1,.93,1.5,1.09,1.09,0,0,0,.2-1.44c-.7-1.21.68-2.06.68-2.06-1,2,.25,2.65.25,2.65.65.34.64,1.38.64,1.38.89-.17.68-1.92.68-1.92C32.17,43.21,33.48,41.91,33.48,41.91Zm3.87,2.18a4.76,4.76,0,0,0-.85-2.49,10.21,10.21,0,0,1-2.57.45c-2.17,1.94,0,4.77,0,4.77a.72.72,0,0,1,.15-.88c.62-.48,2.43,2.2,2.43,2.2a2.3,2.3,0,0,1,2.59-1.75A4,4,0,0,1,37.35,44.09ZM13.06,12.35a12.67,12.67,0,0,1-1.32,9.25,6.19,6.19,0,0,0-1,4.57,5.71,5.71,0,0,1-.26,2.48c-1.43,2.9.74,3.84.74,3.84,2.23.56,2.4-2.82,2.4-2.82a7.31,7.31,0,0,1,.87-2.49,6.35,6.35,0,0,1,2.43-7.33,4.57,4.57,0,0,1,3-4.51,6,6,0,0,1,5.81-1.95c-1.24-.2-3.3-4.68-3.3-4.68-2.39-4.18-7.3-3.53-7.3-3.53-5.92.71-6.8,5.64-6.8,5.64C11.85,9.1,13.06,12.35,13.06,12.35ZM5.9,21.09s.93-1.64,1.8-1.78c0,0,2.32-.25,2.91-5.16A5.51,5.51,0,0,1,9.23,19s1.94.71,2,2.32c0,0,3.39-7.39,0-10.1,0,0-2.93-1.67-5.72,4.06A10.1,10.1,0,0,1,4,18.35a2.31,2.31,0,0,0,.17,3A1.08,1.08,0,0,0,5.9,21.09ZM5.33,28c.12-.16,0-.65,0-.65a2.69,2.69,0,0,1-.53-2.18c1-2.54.84-3.16.84-3.16-2.39.85-2.56-2-2.56-2-.67,1.3.19,4,.19,4,.12,2.06-.65,2.51-.65,2.51a3.68,3.68,0,0,0-1,1.56c.56-.11,1,.95,1,.95.76-1,1.83,0,1.83,0C4.51,27.92,5.33,28,5.33,28Zm.74.67C5,28,4.85,29,4.85,29,4.79,31.3,6,31.16,6,31.16c.5-.06.65.68.65.68C8.07,30.51,6.07,28.68,6.07,28.68Zm-4.63-.26c-2.71,2.09-.39,3.42-.39,3.42-.29-.65.62-.85.62-.85.87-.31.73-1.78.73-1.78C2.12,28,1.44,28.42,1.44,28.42Zm2.88.94c-1-.71-1.47,0-1.47,0A1.79,1.79,0,0,0,3,31.3c.68.26.85,1.25.85,1.25a2.9,2.9,0,0,1,.62-1.28A1.45,1.45,0,0,0,4.32,29.36Zm9.46,13.85c-1.08-.74-1.26.29-1.26.29-.07,2.43,1.2,2.29,1.2,2.29.53-.06.68.7.68.7C15.87,45.12,13.78,43.21,13.78,43.21ZM9,42.94c-2.82,2.18-.41,3.55-.41,3.55-.29-.67.65-.88.65-.88.91-.32.76-1.84.76-1.84C9.68,42.51,9,42.94,9,42.94Zm3,1c-1-.73-1.52,0-1.52,0a1.87,1.87,0,0,0,.12,2c.7.26.88,1.29.88,1.29a3,3,0,0,1,.64-1.32A1.52,1.52,0,0,0,12,43.91ZM12.39,41a5.83,5.83,0,0,1,.13-2.2c1.29-5.28.43-6.12.43-6.12a1.87,1.87,0,0,1-1.41.43A2.5,2.5,0,0,1,9.7,31.7,9.13,9.13,0,0,0,10,38.58,2.78,2.78,0,0,1,10,41a4.09,4.09,0,0,0-.92,1.51c.76-.24,1.29.8,1.29.8a1.88,1.88,0,0,1,1.87,0c0-.65.9-1,.9-1C13.12,41.88,12.39,41,12.39,41ZM40.84,5.75s.79,2.85-2.42,2.85a2.85,2.85,0,0,0-2.37,2.34s-2.06.19-4.77-2.77a32.34,32.34,0,0,0-7.36-5.72s-7.56-4.83-10.69-.57a3.84,3.84,0,0,0-.44,3.44S13.71,4.86,14,5a2.73,2.73,0,0,1,1.52-3.76s2.67-1.18,8,1.94A33.79,33.79,0,0,1,30.72,9s3.15,3,5.16,2.88c0,0,2.29,2.34,5.5-.48C41.38,11.39,44.46,7.78,40.84,5.75Z"/></g></g></svg>