<svg xmlns="http://www.w3.org/2000/svg" viewBox="0 0 93 120.56"><defs><style>.cls-1{fill:#1a1a1a;}</style></defs><title>Asset 528</title><g id="Layer_2" data-name="Layer 2"><g id="Layer_1-2" data-name="Layer 1"><path class="cls-1" d="M91.59,35.12A42,42,0,1,1,57.88,1.41,46.5,46.5,0,1,0,91.59,35.12ZM20.89,9.45a.65.65,0,0,1,.93,0,.64.64,0,0,1,0,.92.65.65,0,1,1-.93-.92Zm-5.56,4.74a.87.87,0,1,1,1.23,1.23.87.87,0,0,1-1.23-1.23Zm-5,5.88a1.11,1.11,0,0,1,1.57,1.57,1.12,1.12,0,0,1-1.57,0A1.1,1.1,0,0,1,10.34,20.07ZM5.7,27.36l1.24.34.4-1.23.32,1.25,1.27-.27L8,28.36l.87.95L7.63,29l-.4,1.23L6.91,29l-1.27.27.93-.91Zm-2,8.41L4.84,37l1.23-1.09-.46,1.58L7.18,38l-1.6.39L5.9,40,4.76,38.79,3.53,39.88,4,38.3l-1.56-.52,1.6-.4ZM1.85,49.09a2.67,2.67,0,0,1-.08-.48,2.73,2.73,0,0,1,2.41-3A2.73,2.73,0,0,1,7,48.22a2.67,2.67,0,0,1,0,.49,2.69,2.69,0,0,0-2.76-2.16A2.68,2.68,0,0,0,1.85,49.09Zm3.81,7.08a3,3,0,0,0-2,3,3.13,3.13,0,0,1-.37-.73A3,3,0,0,1,9,56.53a3.14,3.14,0,0,1,.15.8A3,3,0,0,0,5.66,56.17Zm4.66,10.72A3.35,3.35,0,0,0,8.7,70,3.28,3.28,0,0,1,7.62,68.9a3.34,3.34,0,1,1,6.21-2A3.36,3.36,0,0,0,10.32,66.89Zm8.81,11.29a2.82,2.82,0,1,1,0-4A2.82,2.82,0,0,1,19.13,78.18ZM29,84.54a3.34,3.34,0,0,1-4.58,1.16,3.38,3.38,0,0,1-1.11-1.08,3.34,3.34,0,0,0,3.07-5.13A3.35,3.35,0,0,1,29,84.54Zm9.68,3.63a3,3,0,0,1-3.8,1.89,3,3,0,0,1-.73-.37A3,3,0,0,0,36,84.22a3.14,3.14,0,0,1,.8.15A3,3,0,0,1,38.68,88.17Zm6,3.38a2.67,2.67,0,0,1-.48-.08,2.6,2.6,0,0,0,.38-5.16,2.67,2.67,0,0,1,.49,0,2.64,2.64,0,1,1-.39,5.24Zm11.23-2.26-.4,1.6L55,89.33l-1.58.46,1.09-1.23-1.19-1.15,1.61.33.4-1.6.52,1.57,1.58-.46-1.09,1.23,1.19,1.14Zm10-1.67L65,86.75l-.91.93.27-1.27-1.25-.32,1.23-.4L64,84.45l.95.86.91-.92-.27,1.27,1.25.32-1.23.4ZM73.25,83a1.1,1.1,0,0,1-1.57,0,1.12,1.12,0,0,1,0-1.57A1.11,1.11,0,1,1,73.25,83Zm5.88-5a.87.87,0,1,1,0-1.23A.86.86,0,0,1,79.13,78Zm4.74-5.57a.65.65,0,1,1,0-.92A.64.64,0,0,1,83.87,72.42Z"/><path class="cls-1" d="M63.28,28.34l-3-.61,1.33,1.86L59.94,28l.16,3.07-1-2.91-.95,2.08L58.73,28l-2.59,1.67,2-2.31-2.28.22L58.1,27l-2.74-1.4,3,.61-1.33-1.86,1.64,1.59-.15-3.08,1,2.92.95-2.08-.56,2.22,2.59-1.67-2,2.31,2.28-.22-2.2.63ZM49.4,46.08l2.17-.71-2.27.3,2-2.38-2.52,1.77.48-2.24-.88,2.11-1.08-2.88.27,3.07-1.71-1.53,1.4,1.81-3-.5L47,46.2l-2.17.71,2.26-.3L45.1,49l2.52-1.76-.47,2.23L48,47.35l1.09,2.88-.27-3.07,1.7,1.53-1.39-1.81,3,.5ZM75.53,21.72l1-2.06.92,2.93-.1-3.08L79,21.13l-1.29-1.88,3,.66L78,18.46l2.21-.59-2.28.18L80,15.78,77.35,17.4l.6-2.2-1,2.06L76,14.32l.1,3.08-1.61-1.62,1.29,1.89-3-.67,2.71,1.45L73.31,19l2.28-.17-2.08,2.26,2.62-1.62ZM27.52,69l2.24-.46-2.28,0,2.21-2.14L27,68l.73-2.17-1.11,2-.75-3-.08,3.07-1.52-1.71,1.18,2-3-.84,2.62,1.61-2.24.46,2.29,0-2.21,2.15L25.63,70l-.72,2.17,1.11-2,.75,3,.08-3.07,1.52,1.71-1.18-2,3,.84ZM39,68.8l1.72-1.32-2,.85.36-2.77-1,2.6-1.32-1.72.85,2-2.77-.35,2.6,1-1.72,1.33,2-.86-.35,2.77,1-2.59,1.33,1.72-.86-2,2.77.36ZM77.84,34.72l1.6-1.47-1.91,1,.12-2.79-.81,2.67-1.47-1.6,1,1.92-2.79-.12,2.68.81-1.6,1.46,1.91-1-.12,2.79.81-2.67,1.47,1.6-1-1.92,2.8.12ZM70.67,10.93l2.72.62L71.9,13.13,73.74,12l.07,2.8.62-2.72L76,13.54,74.86,11.7l2.79-.07L74.93,11l1.49-1.57-1.84,1.15-.07-2.79-.62,2.72L72.31,9l1.15,1.84ZM29.85,56.46,31.16,56l.3,1.34L31.75,56l1.31.42-1-.93,1-.93L31.75,55l-.29-1.35L31.16,55l-1.31-.42,1,.93ZM56.09,31.14l-.29-1.35-.3,1.35-1.31-.42,1,.93-1,.93,1.31-.42.3,1.35.29-1.35,1.31.42-1-.93,1-.93Zm9.41-6.88L66,23l-1,1-.91-1,.39,1.32-1.35.27,1.34.32L64,26.13l1-1,.91,1-.39-1.33,1.35-.26Zm11.67,2.52.3-1.34-.83,1.1-1-.94.53,1.27-1.31.41,1.37.18-.3,1.34.83-1.09,1,.93-.53-1.27L78.54,27ZM21.08,63l.85-.77-.07.81.93-2.64,1.39,1.66-.94-2,2.79.24-2.64-.93,1.66-1.4-2,.95.21-2.45,2.24-1.24-.7,2.18,1.09-2,.77,3,.06-3.08,1.53,1.7-1.2-1.95,3,.82-2.64-1.59,2.24-.48L27.37,54l2.19-2.17-2.69,1.5.7-2.18-1.09,2-.77-3-.06,3.07-1.53-1.69,1.2,1.94-3-.81L25,54.23l-2.24.48L25,54.65l-1.72,1.69v-.12l-.06.17-.42.42.34-.19-.78,2.24L21,57.2,22,59.15l-2.78-.23,2.64.92-1.66,1.4,2-.94-.16,1.86-1.15.37-.3-1.35-.29,1.35-1.31-.42,1,.93-1,.93,1.31-.42.29,1.35.3-1.35L22.1,64Zm27.28-9.11-1,.9-.8-1.12.26,1.35-1.37.14,1.3.45-.57,1.25,1-.9L48,57.12l-.26-1.35,1.37-.14-1.31-.45ZM46.84,66.29,47.35,65l-1,.95-.85-1.08.32,1.34-1.36.2,1.32.39-.51,1.28,1-1,.85,1.08-.32-1.34,1.36-.2Zm22-57.11-.32,1.34.85-1.08,1,.94L69.89,9.1l1.32-.39-1.36-.19.32-1.34-.85,1.08-1-1,.52,1.28L67.51,9Zm2.71.86.22.11s1.12.56,1.17.44-1.07-.67-1.07-.67l-.21-.1s-1.18-.59-1.24-.48S71.58,10,71.58,10Zm3,2.67a10.31,10.31,0,0,0,.45,1.92l.1.35a9.16,9.16,0,0,0,.66,1.74,9.53,9.53,0,0,0-.42-1.83l-.11-.34A10.17,10.17,0,0,0,74.62,12.71ZM75,19.08a18.82,18.82,0,0,0-2.68,1.28l-3.66,2A20.63,20.63,0,0,0,66,24a19.23,19.23,0,0,0,2.86-1.36l3.66-2A16.38,16.38,0,0,0,75,19.08Zm1.73,4.45V23a14.56,14.56,0,0,0-.21-2.71,14.74,14.74,0,0,0-.13,2.73v.5a12.24,12.24,0,0,0,.21,2.56A14.87,14.87,0,0,0,76.73,23.53ZM62.54,25.47s-1.27.5-1.22.62,1.32-.4,1.32-.4l.23-.09s1.19-.48,1.15-.6-1.25.37-1.25.37Zm-5.21,4-.17.18s-.93,1-.84,1.07,1-.91,1-.91l.17-.17s.88-.94.78-1S57.33,29.44,57.33,29.44ZM76.6,31.15a11.12,11.12,0,0,0,.16,2.37,11.92,11.92,0,0,0,.17-2.38v-.46a12.45,12.45,0,0,0-.15-2.51,12.58,12.58,0,0,0-.18,2.52ZM50.76,41a29.6,29.6,0,0,0-1.61,3.53,32.4,32.4,0,0,0,1.92-3.39l2.49-4.88a36.44,36.44,0,0,0,1.74-3.75,32.11,32.11,0,0,0-2,3.61Zm-3,10.68.05-.55a18.79,18.79,0,0,0,.14-3,17.89,17.89,0,0,0-.47,3l-.06.54a15.92,15.92,0,0,0-.11,2.85A17.18,17.18,0,0,0,47.8,51.64Zm-.74,7.58a16,16,0,0,0,.08-2.77,15.2,15.2,0,0,0-.41,2.76l-.33,3.67a13.26,13.26,0,0,0,0,2.6,14.35,14.35,0,0,0,.39-2.59Zm-4.32,8.36-.5.15a17.8,17.8,0,0,0-2.74,1A16,16,0,0,0,42.34,68l.51-.14A15.1,15.1,0,0,0,45.44,67,15.52,15.52,0,0,0,42.74,67.58ZM34.43,69H30.85a15.3,15.3,0,0,0-2.7.16,14.53,14.53,0,0,0,2.71.18h3.59A12,12,0,0,0,37,69.15,13.67,13.67,0,0,0,34.43,69ZM23,66.09s1.66,1.67,1.78,1.55-1.55-1.79-1.55-1.79l-.32-.32S21.14,63.77,21,63.88s1.64,1.89,1.64,1.89Zm-1.43-4.62.06-.11s.32-.61.21-.67-.43.55-.43.55l-.06.12s-.34.64-.23.7S21.55,61.47,21.55,61.47ZM24.25,57l-.14.21s-.8,1.2-.69,1.26.9-1.12.9-1.12l.14-.22s.76-1.13.65-1.2S24.25,57,24.25,57Zm4.95-2.12s-1.05-.5-1.1-.39,1,.62,1,.62l.19.09s1,.48,1.05.36-.95-.59-.95-.59Z"/><path class="cls-1" d="M32.81,22.7a.88.88,0,1,1,.88-.88A.88.88,0,0,1,32.81,22.7Zm.53,17.48a.58.58,0,0,0-.59.58.59.59,0,1,0,1.17,0A.58.58,0,0,0,33.34,40.18ZM46.58,9.23a.59.59,0,1,0,0,1.17.59.59,0,0,0,0-1.17ZM45,72.9a.59.59,0,1,0,.58.58A.58.58,0,0,0,45,72.9ZM63.07,40a.59.59,0,1,0-.59-.58A.58.58,0,0,0,63.07,40ZM33.47,12.15a.47.47,0,1,0,.46.46A.47.47,0,0,0,33.47,12.15ZM70.62,42.6a.47.47,0,1,0,0,.93.47.47,0,0,0,0-.93ZM38.42,57.43a.47.47,0,1,0,.47.46A.47.47,0,0,0,38.42,57.43ZM66,70.69a.47.47,0,1,0,.47.46A.47.47,0,0,0,66,70.69ZM28.16,35.27a.47.47,0,1,0,.47.47A.47.47,0,0,0,28.16,35.27Zm-9.83,13a.47.47,0,1,0,.47.46A.47.47,0,0,0,18.33,48.24ZM59.84,69.11l-.13-.81-.47.67-.77-.29.35.74-.64.52L59,70l.13.81.47-.67.77.3L60,69.7l.63-.51ZM22.19,26l-.26-.65-.27.65-.68-.1.42.55L21,27l.68-.1.27.64.26-.64.68.1-.42-.55.42-.55ZM79.53,58.87l-.26-.65-.26.65-.69-.1.43.55-.43.55.69-.1.26.64.26-.64.69.1-.43-.55.43-.55Zm.9-7.94.37-.74-.77.27-.45-.69-.16.81-.82.05.62.53-.37.74.78-.27.45.69.15-.81.82,0ZM43.74,24.62l-.76.31-.48-.67-.11.82-.82.09.65.5-.33.75.76-.31.48.67.11-.82.82-.09-.65-.5ZM66.22,51.29A7.64,7.64,0,0,1,64.56,51a1.26,1.26,0,0,1-1-1.09c-.15-.82-.37-3.25-.37-3.25s0,0,0,0-.21,2.43-.37,3.25a1.38,1.38,0,0,1-1,1.08,9.16,9.16,0,0,1-1.85.33s0,0,0,0a9.76,9.76,0,0,1,1.81.33,1.41,1.41,0,0,1,1,1.08c.17.83.37,3.25.37,3.25s0,0,0,0,.21-2.46.37-3.25a1.5,1.5,0,0,1,1-1.1,7.6,7.6,0,0,1,1.64-.31S66.23,51.29,66.22,51.29Zm2.19,4.14c-.09-.5-.22-2-.22-2h0s-.12,1.46-.22,2a.82.82,0,0,1-.6.64,5,5,0,0,1-1.11.2h0a7,7,0,0,1,1.09.19.87.87,0,0,1,.62.65c.1.5.22,2,.22,2h0s.13-1.47.22-2a.9.9,0,0,1,.61-.66,4.54,4.54,0,0,1,1-.18h0a4.23,4.23,0,0,1-1-.19A.77.77,0,0,1,68.41,55.43Z"/><path class="cls-1" d="M57,12.84l-.76.32.13.81-.66-.5-.64.52.1-.82-.76-.29.75-.32-.12-.82.65.5.64-.52-.1.82Zm1.31-2.29.32-.17a8.5,8.5,0,0,1,.85-.37c.21-.08.44-.14.6-.19s.29-.08.28-.11-.12,0-.3,0a3.83,3.83,0,0,0-.65.14,5.11,5.11,0,0,0-.89.36l-.32.18a6.77,6.77,0,0,0-.83.57,4.69,4.69,0,0,0-.5.48c-.13.14-.19.25-.18.27a6.65,6.65,0,0,0,.8-.61C57.92,10.8,58.35,10.55,58.35,10.55Zm1,.5a5.65,5.65,0,0,0-.81.19l-.3.11a4.53,4.53,0,0,0-.78.41,2.15,2.15,0,0,0-.66.57s.37-.24.75-.45a5.69,5.69,0,0,1,.76-.37l.29-.11a6.44,6.44,0,0,1,.78-.2,3.45,3.45,0,0,0,.8-.17A2.21,2.21,0,0,0,59.31,11.05Zm-.4,1.11a2.39,2.39,0,0,0-.5,0l-.18,0a3.06,3.06,0,0,0-.51.11c-.26.08-.48.22-.46.26s.25-.06.5-.11a4.56,4.56,0,0,1,.49-.09l.18,0,.48,0c.23,0,.46,0,.48,0a.27.27,0,0,0-.14-.08A1.07,1.07,0,0,0,58.91,12.16Z"/><path class="cls-1" d="M26.21,99.89c-2.67,0-4.66,2.9-4.66,4.66,0,3.15,6.33,3.09,6.33,7.41,0,5.39-9.95,6.33-9.95.72a2.58,2.58,0,0,1,2.71-2.84c-2.05,2.22-1.42,5.81,2.07,5.81,1.91,0,3.94-1.06,3.94-3.1,0-3.64-6.44-3.72-6.44-7.51a6.15,6.15,0,0,1,6-5.66c3.4,0,2.33,4,.59,6.78C24.32,105.63,29.63,99.89,26.21,99.89Zm33.78,10c0,2.21-2.07,5.32-5,5.32-.74,0-1.23-.21-1.23-.38s.24-.11.53-.11c2.27,0,4.32-2.47,4.32-4.63,0-.89-.36-1.64-1.2-1.64-1.49,0-3,2.19-3.52,3.41-1,4.24-2.12,8.16-2.6,8.62s-.95-.54-.91-.69a59.62,59.62,0,0,0,2-7.12c-2.31,3.38-5.32,3-5.32,1.16,0-1.25,1.17-2.83,1.17-4,0-.91-.66-1.23-1.19-1.61a32.6,32.6,0,0,1-1.88,4.07c-1.13,1.59-3,1.1-3.65-.51-2,4.78-5.71,4.2-5.37,1.29-2.42,3.51-6.74,3.78-6.74,0,0-2.84,2.48-5.64,4.64-5.64a1.41,1.41,0,0,1,1.5,1.57c0,1.45-1.1,1.93-1.67,1.23a2.13,2.13,0,0,0,.78-1.68c0-.34-.1-.53-.46-.53-2.33,0-5.37,7-1.93,7,1.49,0,3.17-1.19,4.16-3.12,1.51-4.3,5.13-5.48,5.73-4.27a.32.32,0,0,1,.15,0c.53,0,.72.57.72.82,0,.53-.83,1.55-.83,2.67,0,1.53,1.64,2.62,2.78.84a31.25,31.25,0,0,0,1.71-4c-.82-.83,1-2.92,1-1.44,0,.14-.24.69-.24.78,0,.78,2.16,1.14,2.16,2.94,0,1.3-1.06,2.69-1.06,3.58,0,1.44,2.64.34,4-2.11.86-5,.43-4.94,1.06-4.94a.93.93,0,0,1,1,1,20.62,20.62,0,0,1-.48,2.86C56.54,106,60,107.06,60,109.86ZM41.63,108c-2.4,0-4.11,3.71-4.11,5.32,0,1.9,2.35,1.34,3.83-2.18A5,5,0,0,1,41.63,108Zm23.13-2.52c1.31,0,2-1.8.67-1.8-.67,0-1.54.51-1.54,1.1S64.29,105.48,64.76,105.48Zm10.31,6c-1.13,2.61-3.32,2.14-4.11.34-2,4.78-5.71,4.19-5.37,1.29-1.64,2.48-5,3-5,.32,0-1.61,1.61-6,3.05-6a.45.45,0,0,1,.47.47c0,.69-2.2,3.26-2.2,5.25,0,1,.34,1.27,1,1.27.89,0,1.91-.72,3-2.79,1.65-4.24,5.06-5.16,5.63-4a.32.32,0,0,1,.15,0c.53,0,.72.57.72.82,0,.53-.83,1.55-.83,2.67a1.62,1.62,0,0,0,1.48,1.76c.6,0,1.13-.44,1.68-1.61ZM71,108c-2.4,0-4.11,3.71-4.11,5.32,0,1.91,2.36,1.33,3.83-2.18A4.89,4.89,0,0,1,71,108Z"/></g></g></svg>