<svg xmlns="http://www.w3.org/2000/svg" viewBox="0 0 61.89 120.59"><title>Asset 544</title><g id="Layer_2" data-name="Layer 2"><g id="Layer_1-2" data-name="Layer 1"><path d="M23.29,110.28a5.16,5.16,0,1,0,0,10.31,5.16,5.16,0,1,0,0-10.31ZM23.21,120a4.56,4.56,0,0,1,0-9.11,4.62,4.62,0,0,1,4.63,4.57A4.56,4.56,0,0,1,23.21,120Zm33.45-9.69a5.16,5.16,0,0,0,.05,10.31,5.16,5.16,0,1,0-.05-10.31Zm.12,9.69a4.55,4.55,0,0,1-.12-9.09,4.55,4.55,0,1,1,.12,9.09Zm-20.25-7.68a3.21,3.21,0,0,0-3.23-1.94,8.85,8.85,0,0,1-1,0c-.84-.09-1.15.21-1.13,1.09.05,2.64,0,5.29,0,7.94,0,.33.09.66.13,1l.4,0v-4c2.32-.48,2.41-.44,3.51,1.31.46.75.9,1.52,1.4,2.24a2.26,2.26,0,0,0,.65.47l.19-.22c-.83-1.36-1.66-2.73-2.51-4.15C36.43,115,36.94,113.65,36.53,112.29Zm-2.8,3.28a11.52,11.52,0,0,1-2,0c0-1.45,0-2.71,0-4A.8.8,0,0,1,32,111c.69-.48,2.91,0,3.51.79a2.36,2.36,0,0,1-.16,3A3.55,3.55,0,0,1,33.73,115.57Zm9.75-5.08a22.53,22.53,0,0,0-3.08,0v9.88l.38,0v-4c1.11-.13,2-.14,2.84-.33a2.79,2.79,0,0,0,2.1-2.92A2.47,2.47,0,0,0,43.48,110.49Zm1.29,4c-.88,1.47-2.34,1.13-3.82,1.12V111c1.37-.06,2.75-.43,3.74.84A2.19,2.19,0,0,1,44.77,114.45ZM6.1,118.25a2.9,2.9,0,0,1-2.89,2.33,4.39,4.39,0,0,1-3.21-1l.09-.3a5.58,5.58,0,0,0,.94.34,12.53,12.53,0,0,0,2.56.36,2,2,0,0,0,1.89-1.74,2,2,0,0,0-1.13-2.29c-.78-.41-1.61-.7-2.41-1.07-1.3-.6-1.81-1.4-1.62-2.47a2.46,2.46,0,0,1,2.45-2,17.51,17.51,0,0,1,2.86.44l-.08.47c-.31-.06-.6-.15-.91-.18a11.19,11.19,0,0,0-2.15-.13A1.48,1.48,0,0,0,1,112.39a2.52,2.52,0,0,0,.91,1.67,12.35,12.35,0,0,0,2.38,1.11C5.75,115.87,6.35,116.89,6.1,118.25Zm3.83-5.82a4.59,4.59,0,0,0-1,3.65,4.13,4.13,0,0,0,2.54,3.55c1.48.67,3,.29,4.44-.11-1.12,1.53-4.6,1.39-6.33-.5a5.37,5.37,0,0,1,.5-7.61c1.71-1.47,4.68-1.58,6,.06C13.66,110.62,11.58,110.5,9.93,112.43Zm38.42-2h.29v9.89l-.29,0Z"/><path d="M23.05,25.67a8.05,8.05,0,0,0,15.76-.58,7.8,7.8,0,0,0-4.43-8.36c.29.62.47,1,.62,1.34a4.63,4.63,0,0,1-1.27,5.5A4.57,4.57,0,0,1,26.78,18c.15-.33.25-.69.43-1.21A7.8,7.8,0,0,0,23.05,25.67Zm2.67-7.11c.13,4.44,1.89,6.65,5.21,6.65,3.1,0,4.81-2.22,5.09-6.62,2.85,2.26,3,7.16.41,10.08A7.37,7.37,0,0,1,25.59,29,7.25,7.25,0,0,1,25.72,18.56Z"/><path d="M30.91,15.63a5,5,0,0,0,0-10,5,5,0,1,0,0,10Zm-.1-9.44a4.42,4.42,0,1,1,0,8.84,4.42,4.42,0,0,1,0-8.84Z"/><path d="M18,11.63c2,1.46,2.77,3.55,3.36,5.79.57-2.27,1.32-4.35,3.38-5.82C22.63,10.13,21.88,8,21.28,5.75A9.45,9.45,0,0,1,18,11.63ZM21.3,8.28c.68,1,1.42,2.18,2.15,3.32-.7,1.1-1.46,2.26-2.15,3.33-.7-1.08-1.43-2.23-2.15-3.35Z"/><path d="M31,3.69a1.8,1.8,0,0,0,1.76-1.88,1.85,1.85,0,0,0-3.7.07A1.79,1.79,0,0,0,31,3.69Zm-1.29-1.9c.13-.51.65-.93,1-1.39l.53,0c.32.49.84,1,.9,1.46A1.11,1.11,0,0,1,30.76,3.1C30,3,29.47,2.55,29.66,1.79Z"/><path d="M38,48.82a2.84,2.84,0,0,1,2.71.19,23.62,23.62,0,0,0,3.85,1.79,14,14,0,0,0,3.33.77A2.62,2.62,0,0,0,50.61,50c.34-.67.77-1.3,1.14-1.92,5.15,1.75,5.15,1.75,5.83.73,0-.06,0-.16-.11-.19l-3.21-2c-2.12-1.33-3.12-1.21-4.9.6-.35.35-.63.78-1,1.1a1.06,1.06,0,0,1-.85.26c-3.26-1.33-6.51-2.71-9.76-4.08,1.66,0,3.27.51,4.84.43,2-.09,2.34-2.19,3.34-3.42,5.11,1.71,5.11,1.71,5.88.62-1.4-.87-2.82-1.69-4.18-2.61a2.18,2.18,0,0,0-2.67,0c-.86.62-1.58,1.43-2.41,2.11a1.34,1.34,0,0,1-1,.33C40,41.43,38.58,40.79,37,40.15c.48-.64.78-1.47,1.32-1.67,1.62-.61,3.33-1,5-1.45a2.19,2.19,0,0,1,.57,0A8.39,8.39,0,0,0,52.26,30a3.37,3.37,0,0,1,.63-1.5c2.27-3.1,3.09-6.43,1.51-10-1-2.39-2.24-4.71-3.45-7a25.89,25.89,0,0,0-8.07-9.14,15.85,15.85,0,0,0-1.46-.81c.09.41.07.55.14.63.28.31.58.61.87.91a20.88,20.88,0,0,1,5.28,9.42A3.37,3.37,0,0,1,47,15.64c-.34.41-.71.8-1,1.22a6,6,0,0,0,1,8.65c.48.36,1,.63,1.62,1-1.5,2.07-2.93,4.11-4.43,6.09a1.69,1.69,0,0,1-1.18.47c-2,0-4,0-6,0a2.74,2.74,0,0,0-1.58.65c-.87.75-1.62,1.63-2.42,2.46a10.07,10.07,0,0,1-4,.21c-.17-.15-.33-.32-.49-.49a28,28,0,0,0-2.08-2.14,2.79,2.79,0,0,0-1.57-.69c-2-.08-4,0-6,0a1.7,1.7,0,0,1-1.14-.32c-1.53-2-3-4.13-4.48-6.19a17.77,17.77,0,0,0,2.29-1.74,5.7,5.7,0,0,0,.05-8.18,5,5,0,0,1-1.12-5.85,23,23,0,0,1,5.12-8.11c.25-.25.49-.53.74-.79l-.19-.26a1.47,1.47,0,0,0-.5.12C18.1,3,16.52,4.15,15.11,5.5,11.5,9,9.65,13.51,7.55,17.89c-1.83,3.82-1.17,7.36,1.34,10.67a3,3,0,0,1,.56,1.32,8.39,8.39,0,0,0,8.46,7.17,3.07,3.07,0,0,1,1,.21,13.4,13.4,0,0,0,3,.92,2.6,2.6,0,0,1,2.6,2l-1.48.64-1.59.65c-1.71.71-1.71.71-3-.63-2.07-2.11-2.83-2.21-5.35-.68L11.14,41.4c-.43.28-.84.57-1.26.86l.14.38c2.07.86,3.83-.57,5.8-1.12.38.62.78,1.22,1.13,1.85a3.06,3.06,0,0,0,3.25,1.68A22.45,22.45,0,0,0,23,44.32a6.09,6.09,0,0,1,.95-.08v.31c-.42.13-.86.24-1.27.41-2.73,1.19-5.46,2.41-8.21,3.56a1.41,1.41,0,0,1-1.13-.31c-.71-.57-1.29-1.31-2-1.86A2.46,2.46,0,0,0,8,46.27c-.69.54-1.51.91-2.22,1.43s-1.07.95-1.6,1.42a8.44,8.44,0,0,0,2.38.17A24.67,24.67,0,0,0,10,48.12c.3.48.58.93.85,1.39,1.24,2,2.28,2.47,4.61,1.9a11.82,11.82,0,0,0,1.85-.62c1.5-.67,3-1.42,4.49-2.08a2,2,0,0,1,3,1.82c-.85.28-1.63.48-2.36.78-2.79,1.15-5.57,2.34-8.27,3.48-.9-.86-1.65-1.68-2.51-2.37a2.45,2.45,0,0,0-3.34-.14c-.85.52-1.7,1-2.54,1.57-.5.32-1,.67-1.45,1l.13.37c2.07.86,3.83-.57,5.77-1.11,1.14,1.91,2,4.18,5.2,3.32-.9,2.3-1.67,4.29-2.44,6.29a11.63,11.63,0,0,0-1.56-.16,2.29,2.29,0,0,0-2.25,1.08C7.76,67.38,6.34,70.1,5,72.82a2.8,2.8,0,0,0-.17.76l.41.28c.35-.44.69-.88,1-1.33,1.55-2,3.08-4,4.65-6a3.82,3.82,0,0,1,.81-.61,2.82,2.82,0,0,1,0,1c-.85,2.26-1.72,4.52-2.64,6.75a1.27,1.27,0,0,0,.37,1.67c5.73,5.32,11.43,10.68,17.14,16a17,17,0,0,1,3.49,4.34,12.3,12.3,0,0,0,15.15,5.55,12.9,12.9,0,0,0,8.27-14.43,2.84,2.84,0,0,1,.38-2.24A4.15,4.15,0,0,0,50.47,78a6.87,6.87,0,0,1-.89-.16c.9-.86,1.64-1.63,2.46-2.31a1.57,1.57,0,0,0,.5-2.16c-.94-2.14-1.75-4.33-2.57-6.52a3.15,3.15,0,0,1,0-1l.38,0c1,1.38,2,2.8,3.07,4.15a13,13,0,0,0,3.51,3.58,1.44,1.44,0,0,0-.18-.84c-1.31-2.55-2.68-5.09-3.93-7.67a2.21,2.21,0,0,0-2.46-1.46c-1.48.31-2-.34-2.28-1.57a24.47,24.47,0,0,0-1-2.58c-.22-.59-.42-1.18-.73-2.06,3.21,1,4.06-1.41,5.18-3.35a11.94,11.94,0,0,0,1.36.59c1.18.31,2.36.61,3.55.83.25.05.56-.28.84-.44a2.69,2.69,0,0,0-.51-.67c-1-.65-2-1.26-3-1.88-1.74-1.07-2.68-1-4.19.36-.49.43-.87,1-1.38,1.37a1.42,1.42,0,0,1-1.11.32c-2.42-1-4.81-2-7.23-3-.94-.39-1.92-.72-3.12-1.16C37.06,49.94,37.4,49.12,38,48.82Zm14.78-2.37,3.49,2.15-.13.41-4-1.41Zm-1.2-.25.39.32c-.62,1-1.23,2.08-1.89,3.18L48.42,49Zm-2,4c0,.14,0,.28,0,.43-.74.12-1.57.53-2.2.32-2.41-.82-4.77-1.78-7.09-2.83C40,48,40.11,47,40,46.17Zm-11.3-4.77.19-.21c.35.49.92.94,1,1.47a1.19,1.19,0,0,1-1.2,1.43Zm8.58-5.58,3.64,2.25c0,.11-.09.23-.14.34L46.31,41ZM46.3,17.5c2.55-2.64,2.45-5.22,1-8.14C46.65,8,45.92,6.58,45.2,5.19l.27-.26a51.91,51.91,0,0,1,4.07,5.34A84.46,84.46,0,0,1,54,19.19a8.56,8.56,0,0,1-1.86,9c-.76-1.48-2.13-2-3.6-2.51C45.19,24.53,43.82,20.07,46.3,17.5ZM44.42,33.82a2.69,2.69,0,0,1,.39-1c1.3-1.85,2.66-3.65,3.93-5.52.47-.69.9-.65,1.5-.27a2.7,2.7,0,0,1,1.41,2.46c0,3.14-3.5,6.85-6.63,7.06a7.18,7.18,0,0,1-1-.05C44.2,35.46,44.28,34.64,44.42,33.82ZM7.46,20c2-5.33,4.37-10.55,8.62-14.61a3.64,3.64,0,0,1,.3-.25c-.89,2.09-1.91,4.31-2.78,6.58a4.3,4.3,0,0,0,1.18,4.92,5.31,5.31,0,0,1,1.58,5.65,5,5,0,0,1-3.27,3.46c-1.46.48-2.81,1-3.58,2.62C7.5,25.74,6.35,22.94,7.46,20Zm6.16,15.4a9.26,9.26,0,0,1-3.42-4.9,2.74,2.74,0,0,1,1.48-3.56,1.22,1.22,0,0,1,1.11.19C14.25,29,15.64,31,17,33a2,2,0,0,1,.26.84c.13.82.23,1.64.36,2.66A5.24,5.24,0,0,1,13.62,35.38ZM15.33,41l-4,1.41-.17-.36c1.11-.69,2.2-1.4,3.34-2,.16-.09.59.32.89.5Zm2.17,2.05c-.67-1.12-1.26-2.13-2-3.41,1.71.5,2.53,1.6,3.53,2.79Zm.48.5,4.53-1.86c.17.72.29,1.27.41,1.81C21,44.72,19.24,44.77,18,43.59ZM5.53,49c0-.12-.1-.24-.16-.36l3.57-2.23.66,1.15Zm5.5-.35c-.41-.68-.81-1.37-1.21-2l.35-.36,2.93,2.5C11.9,49.87,11.73,49.85,11,48.68Zm1.21,2c0-.15-.09-.3-.14-.44l9.39-3.91c.12.72.2,1.17.31,1.79C18.63,49,16,51.91,12.24,50.63Zm11.19-2.54a1.23,1.23,0,0,1-1.23-1.32,1.22,1.22,0,0,1,1.23-1.39Zm22.29-8.46.36.32-1.86,3.13-1.71-.67Zm-6.53,2.11,4.5,1.82c-1,1.2-2.72,1.2-4.9,0C38.92,43,39,42.42,39.19,41.74Zm-.85.11c.3.74,0,1.29-.85,1.86-.33-1-.6-1.81-.88-2.67A1.29,1.29,0,0,1,38.34,41.85Zm5.34-8.11c.4,2.51-1.89,4.22-5,3.93l-1.28-3.93Zm-7.6.11c2.19,1.66,2.29,4.16.28,5.93a7.06,7.06,0,0,0-1.12-1.86A8.29,8.29,0,0,0,33.05,37ZM23,37.64c-2.87.45-5.29-1.33-5-3.93h6.26C23.85,35,23.43,36.29,23,37.64Zm2.77-3.83c.43.51.88,1.07,1.36,1.6s.93,1,1.51,1.6c-1.42.6-3.06.86-3.06,3C23.34,38,23.43,35.49,25.76,33.81Zm-2.38,8.07A1.28,1.28,0,0,1,25.11,41l-.84,2.58C23.36,43.19,23.1,42.61,23.38,41.88Zm-.81,10.45c.27-.5.89-.8,1.35-1.2l.36.37c-.32.79-.64,1.58-1,2.44C22.48,53.56,22.27,52.91,22.57,52.33Zm8.34,32.14c-1.72,0-2.75-1-3.74-2.48h7.36C33.6,83.43,32.56,84.44,30.91,84.47Zm-.14,4.24C29,88.65,28,87,28.35,84.27a4.42,4.42,0,0,0,5.09,0C33.59,87.21,32.62,88.77,30.77,88.71Zm3.52-7.44c-2.3,0-4.61,0-6.91,0a1.28,1.28,0,0,1-1-.56c-.76-1.74-1.43-3.53-2.21-5.5H37.5c-.77,2-1.45,3.77-2.22,5.54A1.28,1.28,0,0,1,34.29,81.27Zm2.44-6.76c-3.94,0-7.89,0-11.83,0a1,1,0,0,1-.78-.58c-.37-1.79-.66-3.59-1-5.51H38.58c-.32,1.9-.59,3.71-1,5.49A1.15,1.15,0,0,1,36.73,74.51Zm1.1-6.83c-4.82,0-9.65,0-14.7,0-.1-1.93-.23-3.72-.26-5.51,0-.23.5-.67.77-.67,4.79,0,9.58-.05,14.37,0a1.15,1.15,0,0,1,.81.76c0,1.57-.07,3.14-.22,4.71A1.08,1.08,0,0,1,37.83,67.68ZM37.89,61H30.76c-2.22,0-4.44,0-6.66,0-1,0-1.31-.34-1.16-1.27.22-1.4.36-2.81.64-4.19a1.23,1.23,0,0,1,.9-.71q6.39-.07,12.76,0a1.23,1.23,0,0,1,.91.72c.29,1.54.48,3.1.68,4.65C38.93,60.9,38.44,61,37.89,61ZM5.82,55c-.06-.12-.12-.24-.17-.37l3.52-2.22.7,1.13Zm5.4-.44c-.33-.7-.77-1.34-1.33-2.29,1.73.5,2.49,1.63,3.46,2.65C12.33,55.8,11.7,55.64,11.22,54.6Zm1.33,2.06-.13-.5,9.33-3.87c.11.64.2,1.12.31,1.78C18.91,55,16.26,57.88,12.55,56.66Zm3.48.93a.86.86,0,0,1,.41-.36l5.85-2.66a3.25,3.25,0,0,1,.69-.12c.08.77.06,1.19-.77,1.34a2.67,2.67,0,0,0-1.48.94c-1.66,2.2-3.29,4.42-4.84,6.7-.63.93-1.25,1.11-2.28.37C14.4,61.76,15.2,59.67,16,57.59Zm5.06,0c0-.75.55-1.22,1.56-1.18-.11.92-.22,1.79-.33,2.67l-.51.15A4.81,4.81,0,0,1,21.09,57.57Zm.44,2.18c-2.15,2.48-3,6.14-6.75,7l-.38-.32,5.93-8.08ZM7.18,70.54l-.27-.17c.92-1.8,1.85-3.6,2.81-5.46l1.15.57Zm3.32-6c0-.15.09-.3.13-.46l4.15.72-1.07,1.48ZM25.19,89.28q-7.52-7-15-14.07a1.3,1.3,0,0,1-.37-1.69c1-2.29,1.82-4.63,2.71-7,.18,0,.3,0,.39,0,2.56,1.09,3.59.92,5.39-1.23,1.11-1.32,2-2.81,3-4.22l.91-1.3c.13,2.88.2,5.47.4,8.06.33,4.46,1,8.92,3.21,12.83a18.37,18.37,0,0,1,2.28,6.8c.21,1.5.22,3,.32,4.72C27.29,91.21,26.23,90.25,25.19,89.28Zm3.54-.35a11.32,11.32,0,0,0,2.26.35A9.31,9.31,0,0,0,33,88.77l2.07,5.55-3.26,3A13.89,13.89,0,0,1,28.73,88.93Zm6.62,2.25c2.16-2,4.25-4,6.39-6,3,2.77,6.38,3,10.12,1.55-.07,3.64-1.26,6.61-4.1,8.79a8.2,8.2,0,0,1-12.65-2.9A1,1,0,0,1,35.35,91.18Zm2.84,9.91a10.88,10.88,0,0,1-5.9-3.31l3.37-3.11a9.45,9.45,0,0,0,5.11,3.17c.16,0,.27.31.39.48a.58.58,0,0,1,0,.23C41,101.75,41.73,101.77,38.19,101.09Zm8.88-1.4a11.31,11.31,0,0,1-5.33,1.67c0-1,0-1.88,0-2.78a.89.89,0,0,1,.64-.58A10,10,0,0,0,48,96.21C49.09,98.4,49.06,98.53,47.07,99.69Zm2.36-2c-1-1.69-1-1.7.21-3.07a11.36,11.36,0,0,0,2.81-7c0-.42,0-.84.07-1.26C54,89.64,52.26,95.53,49.43,97.69Zm4-17.49a4.09,4.09,0,0,1-.84,5c-2.21,2.2-6.84,2.39-9.38.38a6.24,6.24,0,0,1-1.59-8.24A19.38,19.38,0,0,1,43,75.68v.89a2.73,2.73,0,0,0,3.47,2.9,20.89,20.89,0,0,0,2.32-.62C50.75,78.28,52.62,78.83,53.41,80.2Zm-2.22-8.47c1.09,2.82,1.09,2.83-1.19,4.86-1,.88-1.77,2-3.24,2.25C45.66,79,44.68,79,44,78a2.33,2.33,0,0,1,.3-3c.13-.17.23-.37.35-.56a3,3,0,0,1-.2-.29,13.13,13.13,0,0,0-1.95,1.18,6.7,6.7,0,0,0-1.56,8.45,1.05,1.05,0,0,1-.24,1.54c-2,1.84-4,3.75-6.23,5.8a13,13,0,0,1-.67-4.4c.11-2.31,1.2-4.13,2.21-6.1a32.08,32.08,0,0,0,3.09-12.3c.21-2.74.29-5.48.45-8.58,1,1.44,1.72,2.63,2.54,3.77a19.8,19.8,0,0,0,2,2.4,3.48,3.48,0,0,0,5.05.42C49.83,68.26,50.51,70,51.19,71.73ZM39.4,59.09c-.11-.91-.22-1.76-.34-2.7,1.1,0,1.57.52,1.63,1.31S40.28,59,39.4,59.09Zm2-.68,3,4.05q1.45,2,2.9,3.95c0,.12-.11.23-.17.35a5.42,5.42,0,0,1-1.68-.52A13,13,0,0,1,43.16,64c-1-1.37-1.95-2.84-2.94-4.3ZM54.64,70l-.33.22-3.45-4.77L52,64.94C52.91,66.69,53.77,68.36,54.64,70Zm-3.59-6,.18.5a25.85,25.85,0,0,1-3,1.52c-.24.09-.75-.55-1.14-.86l.09-.41Zm-2.95-.23c-1,.69-1.61.56-2.25-.38-1.57-2.31-3.23-4.56-4.91-6.79a2.35,2.35,0,0,0-1.4-.87c-.81-.11-.88-.52-.82-1.33a8.41,8.41,0,0,1,1.21.36q2.58,1.13,5.12,2.32a1.47,1.47,0,0,1,.71.68C46.56,59.79,47.32,61.79,48.1,63.82Zm4.41-11.36,3.55,2.19L55.9,55l-4-1.4C52.14,53.11,52.29,52.86,52.51,52.46Zm-1.08-.07.24.21-1.83,3.09-1.46-.59A6.5,6.5,0,0,1,51.43,52.39ZM40,52.3l9.42,3.91a2.19,2.19,0,0,1-2.49.73c-2.45-.85-4.85-1.82-7.33-2.77C39.76,53.4,39.86,52.93,40,52.3Zm-.87,0a4.76,4.76,0,0,1-.24,1.67l-.49-.08c-.32-.78-.63-1.57-1-2.42C38.34,51.22,39,51.54,39.13,52.26Zm-1.83.51c.17.38.28.78.46,1.3H24c.09-.3.13-.48.2-.65C25,51,25.07,51,27.59,51c2.33,0,4.66,0,7,0C36.47,51,36.55,51,37.3,52.77Zm-.9-3a1.48,1.48,0,0,1-.93.64c-1.11.08-2.22,0-3.6,0,1-2.46,1.95-4.71,2.9-7,1.56,2.37,1.73,3.85.63,5.33l-1.15-.83-.27.25L35.6,49.9c.75-1.43,1.7-2.51.92-4.12-.58-1.22-1-2.53-1.45-3.79h-.36l-3.55,8.47-.43,0c-1.21-2.87-2.42-5.75-3.73-8.83a5,5,0,0,0-.53.79c-.35.89-.66,1.79-1,2.69-.76,2.1-.73,2.36.72,4.46l1.69-1.53-.22-.31-1.27.72c-1.16-1.33-1-2.54.61-5.26l3,7.18H26.13a.93.93,0,0,1-.34,0c-.58-.27-1.95-3.42-1.74-4.06.78-2.41,1.57-4.8,2.36-7.2a1.82,1.82,0,0,1,.16-.43c.44-.62,4.25-1.74,5-1.49,3.48,1.16,3.48,1.16,4.62,4.65A14.29,14.29,0,0,0,37,44.21C38.11,46.23,37.63,48,36.4,49.74Zm4-32.34a9.6,9.6,0,0,1,3.12-5.69,23.38,23.38,0,0,1-2-2.79,20.45,20.45,0,0,1-1.06-3.06c-.66,2.19-1.45,4.25-3.48,5.78C39.15,13.08,39.8,15.2,40.44,17.4Zm0-9.12,2.16,3.31-2.16,3.34-2.13-3.34Zm-12.17,30c.3.49.9,1,.82,1.43a1.78,1.78,0,0,1-1.22,1.15,1,1,0,0,1-1.1-1.22,4.82,4.82,0,0,1,.93-1.37Zm6.87,1.54A1.06,1.06,0,0,1,33.87,41c-.5-.09-.93-.61-1.22-.82.07-1.19.53-1.55,1.3-1.53A1.11,1.11,0,0,1,35.11,39.8Z"/></g></g></svg>