<svg xmlns="http://www.w3.org/2000/svg" viewBox="0 0 61.54 83.57"><defs><style>.cls-1,.cls-2{fill-rule:evenodd;}.cls-2{fill:#c6262f;}.cls-3{fill:#fff;}</style></defs><title>Asset 459</title><g id="Layer_2" data-name="Layer 2"><g id="Layer_1-2" data-name="Layer 1"><path d="M42.57,33.39a3.08,3.08,0,0,1,.66,2.2c-.13.71-.86.54-.74-.11A3.58,3.58,0,0,0,42.57,33.39Zm-2.88-5.71a3.85,3.85,0,0,1-.32,2.2c-.2.69.55.94.77.21A3.25,3.25,0,0,0,39.69,27.68Zm2.17,2.43a3.28,3.28,0,0,0-.46-2.4,3.7,3.7,0,0,1-.32,2.2C40.88,30.59,41.64,30.84,41.86,30.11Zm-1.67.59A3.75,3.75,0,0,1,40,32.91c-.17.69.59.92.79.18A3.32,3.32,0,0,0,40.19,30.7ZM42.94,33c-.09.71.7.84.8.08a3.26,3.26,0,0,0-.84-2.3A3.75,3.75,0,0,1,42.94,33ZM40.7,35.85c-.17.7.6.92.8.18a3.32,3.32,0,0,0-.56-2.41A3.82,3.82,0,0,1,40.7,35.85Zm.91-2.8c-.13.7.65.88.79.13a3.28,3.28,0,0,0-.71-2.35A3.85,3.85,0,0,1,41.61,33.05Zm1-3.19c-.2.69.56.94.78.21a3.3,3.3,0,0,0-.46-2.41A3.85,3.85,0,0,1,42.59,29.86Zm2.95-3.47h0a7,7,0,0,0,4.76,3.7,12.92,12.92,0,0,1-5,7.72c-.69,8.68-6,15.5-12,20.28-1.81,1.44-2.74,2.9-2.74,4.19a2.05,2.05,0,0,1-1-1.27c-.18-.38-.63-.56-1.3.07a4,4,0,0,1-.06,3.06H23.42c.42-3,3-3,3.23-4.1a2,2,0,0,1-1.64.24c3-2.07,5.25-6.85,5.7-11.76,1-10.65-12.71-12.79-15.81-3.4a16.36,16.36,0,0,0,.61,11,11.8,11.8,0,0,0,2.83,4.32c-1.73.17-1.49-1.14-2.58-.61,1.25,1.67,3.52,0,4.09,4.3H15.63a4,4,0,0,0-.92-3.52,1.06,1.06,0,0,1-.87,1.1c.06-1.51-.81-2.78-2-4.19C6.54,51.38,3.43,44.92,5.25,36.62a2.79,2.79,0,0,0-.75-3,15.12,15.12,0,0,1-2.49-3A12.62,12.62,0,0,1,.65,19.79c1.49-4.37,4.86-8.06,6.08-12.45.82-2.92.07-6-3.68-7.15,8-1.15,12.43,3.22,13.71,8.15,1.41,5.43-1.56,11.17-5,15.36C9.84,26,5,30,7.35,33.5h0A20.09,20.09,0,0,1,15,29.24c-1.28-.29-2.5-.91-2-2.26.36-.92,1.14-1.91-.54-2.53,3.16-6.83,9-11.21,14.37-12.57a5.08,5.08,0,0,1-5.35-3.71c2.16,2.58,6.46,1,9.3.81,5.76-.4,11.72,1.28,15.78,5.65a14.89,14.89,0,0,1,2.6,3.88,8.58,8.58,0,0,0,2.43-1.84A6.31,6.31,0,0,1,44.66,20a10.89,10.89,0,0,0,5.25.47l.09.33a19.35,19.35,0,0,1,.69,6.77,8.46,8.46,0,0,0,3.73-.89A6.45,6.45,0,0,1,45.54,26.39Zm-2.31-5.95a7.22,7.22,0,0,0,4.36,2.68c1.64.18,1.8-1.35.27-1.53S44.85,21.52,43.23,20.44Zm2.23-3.5c-1.66.18-3.08.69-5-.12a7.59,7.59,0,0,0,5.21,1.88C47.34,18.49,47.06,16.76,45.46,16.94Zm-2.27-2.62c-1.48.46-2.69,1.18-4.64.8a7.23,7.23,0,0,0,5.13.78C45.21,15.4,44.63,13.87,43.19,14.32Zm-2.8-2c-1.41.7-2.52,1.6-4.55,1.53a7.45,7.45,0,0,0,5.32,0C42.62,13,41.77,11.61,40.39,12.28Zm-3.66-1.54c-1.41.73-2.5,1.67-4.52,1.59a7.06,7.06,0,0,0,5.27,0C38.94,11.53,38.09,10,36.73,10.74Zm-6.67,1a5.81,5.81,0,0,0,4.22-.88c1-.85.12-1.91-.86-1.12S31.69,11.49,30.06,11.76Zm-1.12,11a4.88,4.88,0,0,1-2.46-.84,3,3,0,0,0,1.6,1.26,7.8,7.8,0,0,1-3.4.33c4.7,2.59,10.46-3.84,5.72-9.32a13,13,0,0,1,1.12,3.67,1.38,1.38,0,0,0-1.13-.6,3.72,3.72,0,0,1,.92,2.66,2,2,0,0,0-1.4-1.17,4.44,4.44,0,0,1,.5,2.45A2.5,2.5,0,0,0,29,19.7,5.21,5.21,0,0,1,29.72,22a2.79,2.79,0,0,1-1.56-1.6A2.9,2.9,0,0,0,28.94,22.73Zm-5.57-5.5c.92-1.1,1.51-2.26,3.22-2.91a6.41,6.41,0,0,0-4.4,1.88C21.24,17.35,22.47,18.3,23.37,17.23ZM18,28.49a30,30,0,0,1,13,.09c2.63-1.2,4.67-5.15,4.25-9.19-1.33,7.37-9.47,8-12.15,5.27A17,17,0,0,0,18,28.49Zm12.94,3.37.87-.59h0l-1.13-.73.68-.56-.94-.43.31-.24-.42-.14c.13.43.26.89.37,1.37.16.71.3,1.47.41,2.26s.19,1.74.22,2.54v.12l.13.06-.14-.18,1-.61-1.15-1.11,1-.61Zm-11.8-2.24a.15.15,0,0,1,0-.21l.84-.65-.05,0c-.56.08-1.12.19-1.67.3a5.51,5.51,0,0,0,9.35-.42c-.45-.06-.91-.11-1.38-.14l.8.39a.14.14,0,0,1,.07.2.16.16,0,0,1-.2.07l-1.09-.54a4.48,4.48,0,0,1-.4.36l.94.74a.15.15,0,0,1-.19.23l-1-.78a4.15,4.15,0,0,1-.53.32l.6,1a.16.16,0,0,1,0,.21.16.16,0,0,1-.21-.05l-.61-1a5.05,5.05,0,0,1-.55.18l.26,1.1a.15.15,0,0,1-.29.07l-.26-1.1a3.82,3.82,0,0,1-.68.06L22.91,31a.14.14,0,0,1-.14.15.15.15,0,0,1-.16-.14l-.06-1.11a3.82,3.82,0,0,1-.69-.1l-.38,1a.15.15,0,0,1-.19.09.14.14,0,0,1-.09-.19l.37-1a4.11,4.11,0,0,1-.61-.25l-.62.93a.16.16,0,0,1-.21,0,.15.15,0,0,1,0-.21l.61-.91a2.85,2.85,0,0,1-.49-.34l-.89.69A.15.15,0,0,1,19.11,29.62Zm-2.81-.1a19.33,19.33,0,0,0-1.16,4.09,20.48,20.48,0,0,0-.34,3.56A15.51,15.51,0,0,1,24.45,34,16.75,16.75,0,0,1,31,35.35a22.65,22.65,0,0,0-.2-2.51A21.16,21.16,0,0,0,30,29.08q-.57-.15-1.17-.27a6.55,6.55,0,0,1-11.62.47C16.89,29.35,16.59,29.43,16.3,29.52Zm-1.55,1.22.66.59L14.24,32h0l.85.63-1.28,1.09,1,.65-1.19,1.07,1,.64-1,1.28.73.25.26-.23c0-.41,0-.85.05-1.3a24.25,24.25,0,0,1,.33-2.52c.14-.79.31-1.54.5-2.24s.35-1.18.54-1.71l-.7.23-.05.07.5.42Zm-4.68,4.08A1.8,1.8,0,0,1,8.46,36.2a2.83,2.83,0,0,0,.5.13A2,2,0,0,0,11.35,35a2,2,0,0,0-1.86-2,2.92,2.92,0,0,0-.78,0A1.86,1.86,0,0,1,10.07,34.82Zm1.81,8.61a2,2,0,0,0-2.6.9A2.33,2.33,0,0,0,9,45a1.84,1.84,0,0,1,2.28-.48,1.78,1.78,0,0,1,.63,2,2.64,2.64,0,0,0,.32-.41A2,2,0,0,0,11.88,43.43Zm-.35,4.94a1.74,1.74,0,0,1-1.36-1.53,3.86,3.86,0,0,0-.09.51,2,2,0,0,0,1.39,2.31c.88.1,1.68-.78,1.8-2a3.36,3.36,0,0,0,0-.78A1.76,1.76,0,0,1,11.53,48.37Zm-.25-8.67a2,2,0,0,0-2.6.9,2.6,2.6,0,0,0-.31.71,1.85,1.85,0,0,1,2.28-.49,1.78,1.78,0,0,1,.63,2,2.64,2.64,0,0,0,.32-.41A2,2,0,0,0,11.28,39.7ZM6.56,34.39a1.31,1.31,0,0,1,.3-.46c-1.67-2.45-1-5.51.2-8,2.14-4.55,6.65-8.33,6.9-13.6.15-3.53-1-8.8-7.18-10.83a6.56,6.56,0,0,1,.89,1.6,9.27,9.27,0,0,1,5.48,8.8c-1-3.93-3-6-5.1-6.78a7.83,7.83,0,0,1-.2,1.72c3.4,1,6.24,5.1,3.77,10.27.58-4.37-2-7.25-4.54-8.06-.15.35-.32.7-.49,1.06,3.19,1.22,5.68,5.17,3.31,10.11.59-4.42-2-7.18-4.53-7.86l-.61,1.07C7.81,14.5,10.25,18.22,8,22.9c.57-4.24-2-6.83-4.43-7.36-.23.44-.46.88-.68,1.32C6,17.63,8.35,21,6.64,25.45c.16-3.91-2.38-6-4.81-6.18q-.24.61-.42,1.23c3.31.23,5.07,2.88,4.05,7.36-.31-2.43-2.29-4.49-4.64-4a11.89,11.89,0,0,0,0,1.58,4.71,4.71,0,0,1,4.53,4.39,4.07,4.07,0,0,0-4-1.64,11,11,0,0,0,.57,1.39,3.2,3.2,0,0,1,3.53,1.7,3.5,3.5,0,0,0-2.79-.38c.17.27.36.53.56.79a2.7,2.7,0,0,1,2.5.83A3,3,0,0,0,4,32.55c.2.21.41.43.63.64A1.94,1.94,0,0,1,6.56,34.39Zm-.67,3.32a2,2,0,0,0,1.72,2.15,2,2,0,0,0,1.73-2.15,2.43,2.43,0,0,0-.12-.77,1.83,1.83,0,0,1-1.67,1.63,1.79,1.79,0,0,1-1.61-1.38A3,3,0,0,0,5.89,37.71ZM6.37,44a2,2,0,0,0,2.74-.24,2.52,2.52,0,0,0,.48-.62A1.84,1.84,0,0,1,7.25,43a1.77,1.77,0,0,1-.12-2.11,2.4,2.4,0,0,0-.41.32A2,2,0,0,0,6.37,44ZM8.55,46.8a1.59,1.59,0,0,1,.36,1.86,2.13,2.13,0,0,0,.33-.34,1.76,1.76,0,0,0,0-2.46,1.77,1.77,0,0,0-2.41.55,2.25,2.25,0,0,0-.34.6A1.66,1.66,0,0,1,8.55,46.8ZM10.42,51A1.27,1.27,0,0,1,8.9,50.5a1.23,1.23,0,0,1,.3-1.42,2.33,2.33,0,0,0-.33.14A1.34,1.34,0,0,0,8.15,51a1.34,1.34,0,0,0,1.84.34A1.78,1.78,0,0,0,10.42,51Zm1.81,1.29c.59.09,1,.74,1.14,1.57a4,4,0,0,0,.1-.5c.13-1.18-.38-2.23-1.15-2.36s-1.49.72-1.63,1.9a3.38,3.38,0,0,0,0,.78C11,52.75,11.58,52.15,12.23,52.26Zm1.9,2.4c-.05.78-.46,1.37-1,1.39s-1-.43-1.19-1.09a3.08,3.08,0,0,0,0,.43c.09,1,.69,1.75,1.33,1.73s1.1-.85,1-1.82A2.6,2.6,0,0,0,14.13,54.66Zm.46-10.72A15.46,15.46,0,0,1,13,36.77a16.22,16.22,0,0,1,1.28-6.57c-.49.19-1,.4-1.43.62-1.81,5.55-1.25,10.29,1.28,14.36A8.72,8.72,0,0,1,14.59,43.94Zm17-3.62c0-.11.07-.22.1-.33h.06a12.08,12.08,0,0,0,.66-1.84.73.73,0,0,0-.66.2A4.89,4.89,0,0,0,31,39.67l-.33-.22c.17-.49.48-1,.64-1.44.32-.94-1-1.39-1.45-.78a5.06,5.06,0,0,0-.63,1.47l-.38-.16a12.28,12.28,0,0,1,.53-1.43c.38-1-1.63-1.6-2-.7A6.07,6.07,0,0,0,26.91,38l-.38-.07c0-.55.29-1.12.35-1.63.12-1-1.25-1.17-1.58-.47A5.6,5.6,0,0,0,25,37.68a3.55,3.55,0,0,0-.46,0A10.81,10.81,0,0,1,24.62,36c.12-1-2-1.11-2.11-.15a6,6,0,0,0,0,1.8l-.48.05a11.08,11.08,0,0,1-.15-1.61c-.06-1-2.15-.76-2.11.21a8.55,8.55,0,0,0,.2,1.8l-.49.15c-.14-.5-.24-1-.33-1.48-.2-1-1.66-.19-1.75.57a4.09,4.09,0,0,0,.26,1.67l-.39.21c-.09-.37-.15-.76-.26-1.11-.29-1-1.81.05-1.68.83a7.73,7.73,0,0,0,.38,1.41l-.34.33A9,9,0,0,1,15,39.45c-.17-.65-.93-.31-1.2.23A12,12,0,0,0,15,43.2c2.92-5.31,10.69-7.55,15.41-.92A12.47,12.47,0,0,0,31.57,40.32Zm7.61-.16a1.86,1.86,0,0,1,2.34,0,2.43,2.43,0,0,0-.46-.62,1.77,1.77,0,1,0-2.45,2.43,4.12,4.12,0,0,0,.4.33A1.78,1.78,0,0,1,39.18,40.16Zm-2.78,3.1a2,2,0,0,0-1.25,2.46,2.56,2.56,0,0,0,.16.49,1.79,1.79,0,0,1,1.29-1.67,1.85,1.85,0,0,1,2,1.25,2.61,2.61,0,0,0,0-.78A2,2,0,0,0,36.4,43.26Zm-.75,4.63a2,2,0,0,0-2.13-1.75,2,2,0,0,0-1.25,2.45,2.66,2.66,0,0,0,.16.5,1.77,1.77,0,0,1,1.29-1.68,1.85,1.85,0,0,1,2,1.26A2.58,2.58,0,0,0,35.65,47.89Zm.87-8.41a2,2,0,0,0-2.73.3,2.67,2.67,0,0,0-.46.63,1.84,1.84,0,0,1,2.33,0,1.78,1.78,0,0,1,.18,2.11,3.14,3.14,0,0,0,.4-.34A2,2,0,0,0,36.52,39.48Zm-5,4a2,2,0,0,0,1.75,2.12,2.37,2.37,0,0,0,.52.06,1.78,1.78,0,0,1-1-1.85,1.85,1.85,0,0,1,1.93-1.32,2.43,2.43,0,0,0-.73-.26A2,2,0,0,0,31.5,43.46Zm.1,14.2a1.41,1.41,0,0,1-1.5.61c-.5-.22-.68-.91-.46-1.66a2.72,2.72,0,0,0-.35.55c-.42.88-.28,1.8.31,2.05s1.43-.27,1.85-1.16A3.12,3.12,0,0,0,31.6,57.66Zm.64-3.91c-.77-.15-1.61.66-1.9,1.81a3,3,0,0,0-.08.51A1.66,1.66,0,0,1,31.87,55c.65.12,1,.9.95,1.84a3.35,3.35,0,0,0,.28-.73C33.38,55,33,53.9,32.24,53.75ZM35.1,51a2.28,2.28,0,0,0,.09-.51,1.71,1.71,0,0,1-1.8,1,1.73,1.73,0,0,1-1.1-1.95,2.88,2.88,0,0,0-.3.72,1.9,1.9,0,0,0,1,2.46C33.86,52.92,34.8,52.16,35.1,51Zm.7,2a1.52,1.52,0,0,0-.26-.25,1.22,1.22,0,0,1-.21,1.43,1.26,1.26,0,0,1-1.59-.09,1.82,1.82,0,0,0,.29.45C35.27,56,37,54.47,35.8,53.06ZM39,51a2.44,2.44,0,0,0-.12-.69A1.77,1.77,0,0,0,36.77,49a1.78,1.78,0,0,0-.88,2.31,2.68,2.68,0,0,0,.19.42,1.59,1.59,0,0,1,1-1.61A1.66,1.66,0,0,1,39,51Zm1.45-5.15a1.79,1.79,0,0,0-.27-.44,1.77,1.77,0,0,1-.85,1.94,1.85,1.85,0,0,1-2.21-.74,2.7,2.7,0,0,0,.23.75,2,2,0,0,0,2.49,1.17A2,2,0,0,0,40.4,45.87Zm2.34-1.93a1.78,1.78,0,0,1-2.1-.29,1.85,1.85,0,0,1,.11-2.33,2.45,2.45,0,0,0-.65.43,1.76,1.76,0,1,0,2.29,2.57A2.11,2.11,0,0,0,42.74,43.94ZM44,36.5a12.52,12.52,0,0,1-10.76-1.16v.44c2.2,2,6.92,2.74,10.71,1.54C44,37.05,44,36.77,44,36.5ZM30.27,12.59c7.14,3.1,8.7,13.1,1.84,16.79a15.88,15.88,0,0,1,1.11,5.36c2.86,1.94,7.78,2.56,10.81,1C44.61,21.25,39.59,14.27,30.27,12.59ZM45.16,30.32c.52,1.7,0,2.85-.33,4.22s1.18,1.71,1.51.29A6.3,6.3,0,0,0,45.16,30.32Zm0-2.38c1.22,1.29,1.23,2.57,1.57,3.92s1.81,1,1.48-.4A6.25,6.25,0,0,0,45.2,27.94ZM48,26.21c1.6.4,2-1.09.48-1.47s-3-.47-4.44-1.77A7.15,7.15,0,0,0,48,26.21ZM39.6,23c0,.78.88.8.88,0a3.57,3.57,0,0,0-1.24-2.37A4.15,4.15,0,0,1,39.6,23Zm0-3.14c.22.74,1.07.53.83-.28a3.6,3.6,0,0,0-1.85-1.93A4.2,4.2,0,0,1,39.57,19.82Zm2.78,6.78c-.07.78.79.89.88.06a3.64,3.64,0,0,0-1-2.49A4.17,4.17,0,0,1,42.35,26.6Zm-1.52.13c-.07.77.79.89.87.06a3.57,3.57,0,0,0-1-2.49A4.17,4.17,0,0,1,40.83,26.73Zm.4-3.94c0,.78.87.8.88,0a3.64,3.64,0,0,0-1.24-2.38A4.18,4.18,0,0,1,41.23,22.79Zm-3.92,10a3.29,3.29,0,0,0-.55-2.39,3.87,3.87,0,0,1-.23,2.22C36.35,33.3,37.12,33.52,37.31,32.78ZM35.83,15.89a3.06,3.06,0,0,0-1.91-1.24,3.49,3.49,0,0,1,1.27,1.63C35.52,16.86,36.18,16.51,35.83,15.89ZM37.22,19a3,3,0,0,0-1.37-1.82,3.54,3.54,0,0,1,.64,2C36.6,19.78,37.34,19.68,37.22,19Zm-.67,7.88a3.6,3.6,0,0,0,.11-2.68,4.17,4.17,0,0,1-.88,2.26C35.4,27.12,36.14,27.58,36.55,26.86Zm-3.08,3.27a3.82,3.82,0,0,1-.35,2.19c-.21.68.54,1,.77.22A3.25,3.25,0,0,0,33.47,30.13Zm6.69-3.21a3.57,3.57,0,0,0-.8-2.56,4.14,4.14,0,0,1-.07,2.43C39.16,27.56,40,27.74,40.16,26.92Zm-1.7-4a3.62,3.62,0,0,0-1.23-2.38,4.09,4.09,0,0,1,.35,2.41C37.59,23.72,38.46,23.74,38.46,22.91Zm.36-3.07a3.23,3.23,0,0,0-1.38-1.95A3.9,3.9,0,0,1,38.08,20C38.2,20.7,38.94,20.59,38.82,19.84Zm-5.06,14.6c-.25.61.42.92.7.27a3.06,3.06,0,0,0-.18-2.26A3.54,3.54,0,0,1,33.76,34.44Zm4.68-7.51a3.59,3.59,0,0,0-.62-2.6,4.09,4.09,0,0,1-.24,2.41C37.4,27.5,38.24,27.74,38.44,26.93ZM37.22,17c.34.57,1,.22.64-.39A3.05,3.05,0,0,0,36,15.38,3.47,3.47,0,0,1,37.22,17Zm1.26,13.6a3.82,3.82,0,0,1-.35,2.19c-.21.68.54.95.77.22A3.29,3.29,0,0,0,38.48,30.62Zm.05-.59A3.21,3.21,0,0,0,38,27.65a3.76,3.76,0,0,1-.23,2.21C37.58,30.55,38.34,30.77,38.53,30ZM37,35.47c-.23.67.51,1,.76.25a3.22,3.22,0,0,0-.33-2.41A3.71,3.71,0,0,1,37,35.47Zm1.84.3c-.22.72.57,1,.81.23a3.42,3.42,0,0,0-.44-2.53A3.92,3.92,0,0,1,38.79,35.77Zm-3.44-.69c-.26.6.4.92.69.28a3,3,0,0,0-.11-2.25A3.47,3.47,0,0,1,35.35,35.08Zm-.22-4.81a3.82,3.82,0,0,1-.35,2.19c-.21.69.54.95.77.22A3.25,3.25,0,0,0,35.13,30.27Zm1.16-2.79a3.76,3.76,0,0,1-.36,2.2c-.21.68.54.95.78.22A3.33,3.33,0,0,0,36.29,27.48Zm-1.59-.12a3.81,3.81,0,0,1-.57,2.15c-.28.66.44,1,.75.29A3.28,3.28,0,0,0,34.7,27.36Z"/><path class="cls-1" d="M54.07,50.2c-.41.87-1.31.89-.93-.59.58-2.26.43-4.4.85-6.33.12-.54-.2-.53-.59-.38-2.25.85-5.41,1.93-7.64.17a12.83,12.83,0,0,0,7.67-1.62c.48-.28.8-.67,1.39-.46a3.89,3.89,0,0,1,1.48,1.1.9.9,0,0,1-.06,1.35C54.62,45,55.12,48,54.07,50.2Zm-4.59-2.91a16.43,16.43,0,0,0-.84,4.05c0,.62-.12.85.48.74,2.88-.74,5.72-.92,8.48-1.48,2-.42,3.57.5,3.93,1.8.12.87-.91.74-1.05,1.83C59.93,58.34,59,61.4,57.36,63c-.7.65-1.52.84-2,.2-.8-1.19-.42-3.24-1.54-4.29a2.17,2.17,0,0,1,2.34,1.45c.13.76.65.08.84-.18.73-1,1.74-3.16,1.58-6.89,0-.58,0-1.28-.82-1.28a38.11,38.11,0,0,0-9.51,1.68c-1.36.49-2.61-.06-1.64-1.31s2-4.77.46-6.54c-.35-.4.14-.62.56-.49a6.09,6.09,0,0,1,1.39.65c.73.46.67.6.42,1.34Zm5.84,9.34c1.91.11.88-2.16-1.34-1.58a55.51,55.51,0,0,1-12.33,1.63c-.14,0-.31.23-.28.45s.8.67,1.07.72a4,4,0,0,0,1.43-.06c4.08-.69,8-1.37,11.45-1.16Z"/><path class="cls-2" d="M9.36,70.82H46.62A6.39,6.39,0,0,1,53,77.19h0a6.4,6.4,0,0,1-6.37,6.38H9.36A6.39,6.39,0,0,1,3,77.19H3a6.39,6.39,0,0,1,6.37-6.37Z"/><path class="cls-3" d="M16.73,74.33v1.54a3.06,3.06,0,0,1,.39-.36,1.35,1.35,0,0,1,.42-.2,1.53,1.53,0,0,1,.49-.07,1.45,1.45,0,0,1,.7.17,1.08,1.08,0,0,1,.48.49,1,1,0,0,1,.15.42,2.79,2.79,0,0,1,0,.53v2a.69.69,0,0,1-.14.47.48.48,0,0,1-.38.16c-.34,0-.52-.21-.52-.63V77.08a1.56,1.56,0,0,0-.14-.76.59.59,0,0,0-.57-.27.83.83,0,0,0-.5.16.85.85,0,0,0-.33.43,2.54,2.54,0,0,0-.09.82v1.38a.66.66,0,0,1-.14.47.46.46,0,0,1-.38.16c-.34,0-.52-.21-.52-.63V74.33a.69.69,0,0,1,.14-.47.53.53,0,0,1,.76,0,.65.65,0,0,1,.14.47Zm7.59,3a2.33,2.33,0,0,1-.14.85,2,2,0,0,1-.42.68,1.8,1.8,0,0,1-.65.43,2.35,2.35,0,0,1-.86.15,2.26,2.26,0,0,1-.85-.15,2,2,0,0,1-.66-.44,1.84,1.84,0,0,1-.41-.67,2.34,2.34,0,0,1-.15-.85,2.41,2.41,0,0,1,.15-.87,1.84,1.84,0,0,1,.41-.67,1.89,1.89,0,0,1,.66-.43,2.34,2.34,0,0,1,.85-.15,2.39,2.39,0,0,1,.86.15,2,2,0,0,1,.65.44,1.73,1.73,0,0,1,.42.67,2.39,2.39,0,0,1,.14.86Zm-1,0a1.52,1.52,0,0,0-.28-1,.91.91,0,0,0-.75-.36,1,1,0,0,0-.54.16,1.09,1.09,0,0,0-.36.47,2.19,2.19,0,0,0,0,1.43,1.06,1.06,0,0,0,.35.47,1,1,0,0,0,.55.16.91.91,0,0,0,.75-.36,1.51,1.51,0,0,0,.28-1Zm2.9.61v.87a.65.65,0,0,1-.15.47.49.49,0,0,1-.38.16.47.47,0,0,1-.37-.16.65.65,0,0,1-.14-.47v-2.9c0-.46.16-.7.5-.7a.43.43,0,0,1,.38.17,1,1,0,0,1,.12.48,2,2,0,0,1,.38-.48.82.82,0,0,1,.53-.17,1.29,1.29,0,0,1,.63.17.48.48,0,0,1,.31.43.45.45,0,0,1-.41.44,2.08,2.08,0,0,1-.28-.07,1.19,1.19,0,0,0-.39-.07.57.57,0,0,0-.37.12.73.73,0,0,0-.22.35,2.22,2.22,0,0,0-.11.57c0,.21,0,.48,0,.79Zm5.54.14a1.2,1.2,0,0,1-.83,1.2,2.72,2.72,0,0,1-1,.16,2.53,2.53,0,0,1-1-.17,1.37,1.37,0,0,1-.59-.43.84.84,0,0,1-.19-.52.4.4,0,0,1,.12-.29.43.43,0,0,1,.31-.12.37.37,0,0,1,.25.08.8.8,0,0,1,.17.22,1.12,1.12,0,0,0,.38.42,1.17,1.17,0,0,0,.61.14.88.88,0,0,0,.51-.14.37.37,0,0,0,.2-.32.43.43,0,0,0-.21-.4,2.66,2.66,0,0,0-.68-.24,5.26,5.26,0,0,1-.87-.28A1.4,1.4,0,0,1,28.4,77a.85.85,0,0,1-.2-.59,1.07,1.07,0,0,1,.18-.59,1.36,1.36,0,0,1,.55-.44,2.16,2.16,0,0,1,.88-.17,2.75,2.75,0,0,1,.73.09,1.73,1.73,0,0,1,.53.22,1.1,1.1,0,0,1,.33.31.59.59,0,0,1,.11.34.37.37,0,0,1-.12.29.45.45,0,0,1-.34.12.44.44,0,0,1-.27-.09c-.07-.07-.16-.16-.26-.28a.88.88,0,0,0-.27-.24.93.93,0,0,0-.44-.09.86.86,0,0,0-.47.12.35.35,0,0,0-.18.29.32.32,0,0,0,.13.27,1.28,1.28,0,0,0,.37.18l.64.16a3.22,3.22,0,0,1,.79.29,1.31,1.31,0,0,1,.47.38.91.91,0,0,1,.16.51Zm3.78-.5h-2a1.39,1.39,0,0,0,.14.63.9.9,0,0,0,.37.4.89.89,0,0,0,.51.14,1.27,1.27,0,0,0,.34,0,1.35,1.35,0,0,0,.3-.14l.26-.2.32-.29a.37.37,0,0,1,.23-.07.39.39,0,0,1,.26.09.34.34,0,0,1,.1.25.75.75,0,0,1-.11.33,1.61,1.61,0,0,1-.34.36,1.84,1.84,0,0,1-.56.29,2.55,2.55,0,0,1-.77.11A2.08,2.08,0,0,1,33,78.9a2.13,2.13,0,0,1-.56-1.55,2.67,2.67,0,0,1,.14-.86,1.81,1.81,0,0,1,.4-.67,1.65,1.65,0,0,1,.65-.43,2.3,2.3,0,0,1,.85-.16,2,2,0,0,1,1.05.26,1.74,1.74,0,0,1,.65.67,1.69,1.69,0,0,1,.22.83.53.53,0,0,1-.23.51,1.52,1.52,0,0,1-.63.11Zm-2-.59h1.88a1.24,1.24,0,0,0-.29-.8.86.86,0,0,0-.65-.26.82.82,0,0,0-.64.27,1.27,1.27,0,0,0-.3.79Z"/></g></g></svg>