<svg xmlns="http://www.w3.org/2000/svg" viewBox="0 0 30.69 41.73"><title>Asset 485</title><g id="Layer_2" data-name="Layer 2"><g id="Layer_1-2" data-name="Layer 1"><path d="M29.93,15.93c-.11,0-.2-.11-.31-.14a1.94,1.94,0,0,0-.66-.11,3.74,3.74,0,0,0-1.15.29,5,5,0,0,0-1.56,1.13,9.78,9.78,0,0,0-1.44,1.82c-.27.44-.57.85-.82,1.3a7.59,7.59,0,0,0-.77,1.63s-.07,0-.11,0a.34.34,0,0,1-.05-.14,8.62,8.62,0,0,1,0-2.27c.16-1,.35-2,.57-3a25.31,25.31,0,0,1,.75-3c.13-.4.26-.8.35-1.2a16.44,16.44,0,0,1,.69-2.16c.4-1,.82-2,1.24-3a2.69,2.69,0,0,0,.22-1.28,8,8,0,0,0-.43-2.05,1.23,1.23,0,0,0-.14-.25,1.5,1.5,0,0,0-2.51.19c-.08.15-.15.31-.22.47-.37.8-.73,1.61-1.11,2.42a13.54,13.54,0,0,0-.92,2.19,25.1,25.1,0,0,1-1.11,3c-.05.12-.12.23-.23.43,0-.26.05-.43.05-.59a13.75,13.75,0,0,1,.4-3.2c0-.09,0-.19.05-.28A8.31,8.31,0,0,1,21,7a17.16,17.16,0,0,1,.72-1.65,5,5,0,0,0,.65-2.56.58.58,0,0,1,0-.23,2.51,2.51,0,0,0-.06-1,2,2,0,0,0-1-1.37A1,1,0,0,0,20,.39a3.07,3.07,0,0,0-.38.56A6.54,6.54,0,0,0,19,3a11.81,11.81,0,0,1-.46,2l-.57,1.54c0,.07-.08.13-.11.19l-.06,0c.13-.86.26-1.71.4-2.57a4.48,4.48,0,0,0-.16-2,.56.56,0,0,0-.34-.43,1.07,1.07,0,0,0-.94,0,2.76,2.76,0,0,0-1,1A17.5,17.5,0,0,0,15,4.5C14.43,6,13.88,7.44,13.45,9A21,21,0,0,0,13,11.18c-.09.58-.1,1.17-.17,1.75a10.91,10.91,0,0,0-.19,1.12,11.77,11.77,0,0,1-.54,2.49c0,.12-.1.23-.17.41a2.54,2.54,0,0,1-.54-1,2.2,2.2,0,0,0-.12-.44,2.75,2.75,0,0,1-.18-.94A3.43,3.43,0,0,0,11,14c0-.26-.08-.52-.11-.79a5.16,5.16,0,0,0-.06-.79,10.78,10.78,0,0,1-.21-2,20.44,20.44,0,0,0-.4-2.7,1.09,1.09,0,0,0-.36-.63,1,1,0,0,0-1.5.22A2.14,2.14,0,0,0,8.12,8c0,.25,0,.53,0,.79s-.17.5-.19.76,0,.76,0,1.14a22.83,22.83,0,0,0-.09,3,19.37,19.37,0,0,1,0,2.95c-.06,1.36-.05,2.73,0,4.09,0,.36,0,.72,0,1.07,0,.82-.09,1.63-.11,2.45,0,1,0,2.08,0,3.12,0,.6-.06,1.21-.14,1.81a2.92,2.92,0,0,1-.47,1.33c-.57.78-1.13,1.57-1.71,2.34s-1.16,1.45-1.68,2.22A10.16,10.16,0,0,1,2.5,36.59,20.59,20.59,0,0,0,.14,39.42a2.59,2.59,0,0,0-.14.29.25.25,0,0,0,.38,0c.09-.1.15-.22.23-.32.31-.43.6-.88.94-1.28s.69-.7,1-1.08a10.48,10.48,0,0,0,1.06-1.33c.49-.75,1-1.45,1.59-2.15.79-1,1.54-2,2.24-3.07a2,2,0,0,0,.25-.63A17.85,17.85,0,0,0,8,26.32c0-.91,0-1.82,0-2.72,0-.53.1-1.06.13-1.59a7.15,7.15,0,0,0,0-1.53,11.82,11.82,0,0,1-.09-2c0-1,.07-2,.08-3.07,0-1.3,0-2.61,0-3.92a3.43,3.43,0,0,1,0-.56,3.9,3.9,0,0,0,0-1.13.58.58,0,0,1,.18-.62,1.07,1.07,0,0,0,1.2-.75c.09-.2.2-.39.34-.67.06.21.11.32.13.44.18.94.24,1.88.34,2.82.11,1.13.24,2.26.32,3.4a7.38,7.38,0,0,0,.46,1.92A2.77,2.77,0,0,0,12,17.54a2.58,2.58,0,0,0,.5-1.27.64.64,0,0,1,.07-.27,6,6,0,0,0,.32-1.56c.18-1.34.42-2.69.58-4a24.78,24.78,0,0,1,.94-3.34c.26-1,.66-1.9,1-2.84a3,3,0,0,1,.38-.76s.07.07.07.1a.48.48,0,0,0,.24.43.79.79,0,0,0,.6.11,2.85,2.85,0,0,0,.56-.26,5,5,0,0,0,.41-.39l.23-.16a4.5,4.5,0,0,1,0,.61c-.12.83-.21,1.66-.4,2.47S17,8.21,16.84,9.14,16.4,11,16.2,11.91c-.14.61-.25,1.22-.37,1.83-.15.8-.28,1.61-.42,2.41a.45.45,0,0,0,0,.28.29.29,0,0,0,.16.12s.09-.06.12-.1a.18.18,0,0,0,0-.11c.07-1,.31-2.05.48-3.08.06-.37.18-.72.26-1.09.14-.65.26-1.3.4-1.94.09-.43.23-.85.31-1.27a4.4,4.4,0,0,1,.4-1.12,18.48,18.48,0,0,0,1.06-2.31,9.3,9.3,0,0,0,.5-1.86c.05-.36.11-.72.19-1.07,0-.14,0-.31.21-.4.11.15.23.29.33.45a.83.83,0,0,0,.46.31,1,1,0,0,0,1.09-.29,4.25,4.25,0,0,0,.43-.59c0-.06.08-.13.21-.05C22,2.59,22,3.17,22,3.76a.45.45,0,0,1,0,.16,12.46,12.46,0,0,1-.56,1.43A13.13,13.13,0,0,0,20.1,9.86a16.62,16.62,0,0,1-.92,5,5.11,5.11,0,0,0-.14,1.6c.06,0,.08,0,.09,0s.11-.07.11-.11a8,8,0,0,1,.27-1.27,2.69,2.69,0,0,1,.26-1c.16-.3.25-.63.39-.93.3-.61.52-1.26.77-1.89s.6-1.47.85-2.22a15.45,15.45,0,0,1,.73-1.85l1-2.27a4.74,4.74,0,0,1,.23-.44l.2.38a.82.82,0,0,0,.92.51.81.81,0,0,1,.22,0,.87.87,0,0,0,.8-.36l.36-.39a1,1,0,0,1,.12.22,3.94,3.94,0,0,1,.18,1.23,2,2,0,0,1-.19.94c-.33.72-.65,1.45-.95,2.19a9.41,9.41,0,0,0-.37,1c-.23.76-.43,1.53-.65,2.29-.09.33-.18.66-.28,1s-.29.93-.41,1.41c-.21.91-.38,1.82-.59,2.72a29.07,29.07,0,0,0-.48,3.2,1.31,1.31,0,0,0,0,.28,8.88,8.88,0,0,1,.11,1.63.93.93,0,0,0,0,.29,13.46,13.46,0,0,1,.24,2.2c0,.06,0,.13.07.26.09-.09.16-.14.17-.19a4.22,4.22,0,0,0,0-.62c0-.47-.1-.94-.14-1.41a1.34,1.34,0,0,1,.22-1.13s0,0,0-.06a16.77,16.77,0,0,1,1.84-3.38,7.64,7.64,0,0,1,2.22-2.24,5,5,0,0,1,.65-.34.74.74,0,0,1,.26,0c-.13.31-.26.59-.36.87a1.56,1.56,0,0,0,.25,1.55A.91.91,0,0,0,29,19c.12,0,.27,0,.38.1a5.25,5.25,0,0,0-.43.53c-.29.42-.54.87-.84,1.28a10.57,10.57,0,0,0-1,1.9c-.55,1.2-1.06,2.43-1.69,3.6S24.19,28.79,23.55,30a15.76,15.76,0,0,1-2.23,3.33,18.07,18.07,0,0,1-2,2,9.85,9.85,0,0,0-1.85,1.91c-.13.19-.27.37-.41.54-.35.43-.71.85-1.05,1.28s-.78,1-1.15,1.54c-.22.31-.42.63-.61,1a.75.75,0,0,0,0,.23c.09,0,.16,0,.19,0l.33-.46c.66-.88,1.31-1.77,2-2.64.44-.57.91-1.11,1.35-1.68a11,11,0,0,1,1.57-1.56c.16-.13.33-.26.48-.4a9.11,9.11,0,0,0,1.27-1.29c.38-.48.83-.9,1.16-1.4.55-.84,1-1.72,1.51-2.6s.89-1.71,1.31-2.58c.6-1.2,1.18-2.41,1.72-3.64a16.11,16.11,0,0,1,1.79-3.22,5.35,5.35,0,0,1,.58-.68,4.16,4.16,0,0,0,.61-.82,10.71,10.71,0,0,0,.52-.94,1.6,1.6,0,0,0,.13-.89A1,1,0,0,0,29.93,15.93Zm-20.37-8a4.58,4.58,0,0,1-.37.69.67.67,0,0,1-.25.22.35.35,0,0,1-.54-.28,1.37,1.37,0,0,1,.29-1.11c.23-.31.46-.34.91-.17A.86.86,0,0,1,9.56,7.89Zm7.86-4.68a1,1,0,0,1-1.17.52.73.73,0,0,1,0-.8,4,4,0,0,1,.37-.63A.79.79,0,0,1,17.52,2C17.86,2.45,17.65,2.84,17.42,3.21Zm4-1a1.6,1.6,0,0,1-.4.38.72.72,0,0,1-.93-.13c-.52-.67-.59-.8-.18-1.45.17-.26.31-.52.63-.62a.61.61,0,0,1,.44,0,1.79,1.79,0,0,1,.81.71A2.13,2.13,0,0,1,21.46,2.18Zm4.63,2.18c-.08.12-.19.24-.26.37a1,1,0,0,1-1,.42.64.64,0,0,1-.64-.66,5.14,5.14,0,0,1,.07-.88A1.54,1.54,0,0,1,25,3.3a1.15,1.15,0,0,1,1,.34A.54.54,0,0,1,26.09,4.36Zm4.2,13.28c-.11.24-.23.47-.36.7a.48.48,0,0,1-.37.24c-.2,0-.41.05-.61.06a.49.49,0,0,1-.4-.2,1.11,1.11,0,0,1-.29-.9,1.75,1.75,0,0,1,.58-1.4.43.43,0,0,1,.47-.1,4.5,4.5,0,0,1,.58.21.81.81,0,0,1,.44.56A1.19,1.19,0,0,1,30.29,17.64Z"/></g></g></svg>