<svg xmlns="http://www.w3.org/2000/svg" viewBox="0 0 99.06 75.76"><defs><style>.cls-1{fill:#1d1d1b;}</style></defs><title>Asset 405</title><g id="Layer_2" data-name="Layer 2"><g id="Layer_1-2" data-name="Layer 1"><path class="cls-1" d="M9.73,20.58a.39.39,0,0,1-.27-.1.41.41,0,0,1,0-.57l5.79-6.51a.41.41,0,0,1,.57,0,.4.4,0,0,1,0,.57L10,20.45A.39.39,0,0,1,9.73,20.58ZM41.36,40.52a.41.41,0,0,0-.19-.55L9.43,24.64a.4.4,0,0,0-.54.18.41.41,0,0,0,.19.55L40.82,40.7a.33.33,0,0,0,.17,0A.41.41,0,0,0,41.36,40.52Zm24.1,9.36a.39.39,0,0,0-.28-.49L48.06,44.67a.4.4,0,0,0-.5.28.41.41,0,0,0,.29.5L65,50.17h.1A.39.39,0,0,0,65.46,49.88Zm5.33,9.38a.41.41,0,0,0,.34-.47l-.57-3.93a.41.41,0,0,0-.46-.34.41.41,0,0,0-.35.46l.58,3.93a.41.41,0,0,0,.4.35Zm.33-11L78,23.81a.41.41,0,0,0-.28-.5.41.41,0,0,0-.5.28L70.34,48.07a.41.41,0,0,0,.28.5l.11,0A.41.41,0,0,0,71.12,48.29ZM82.63,18.05l6.84-4.54a.4.4,0,1,0-.45-.67l-6.84,4.53a.41.41,0,0,0-.11.57.38.38,0,0,0,.33.18A.39.39,0,0,0,82.63,18.05ZM51.1,19.63a.41.41,0,0,0-.24-.52L24.38,9.4a.4.4,0,1,0-.28.76l26.48,9.72.14,0A.41.41,0,0,0,51.1,19.63Zm24.28,3.06a.4.4,0,0,0-.41-.4H58.7a.41.41,0,0,0,0,.81H75A.41.41,0,0,0,75.38,22.69Zm17.32-14c-.86.22-.4-1.52-1.57-.89L92,9.7c-.92,0-1.73,0-2.55,0s-1.55-.53-2.37-.07c.17.6.59.56,1,.56h3.55c.25,0,.5,0,.84.06-.63,1-1.83,1.28-2,2.63,1.06-.23,1.35-1.36,2.33-1.54,0,.5,0,.93,0,1.35s-.09,1-.06,1.53c0,.74.2,1.47.23,2.21.06,1,0,2,.07,3.07a3.69,3.69,0,0,0,.24.78l.33,0a6.39,6.39,0,0,0,.13-1.06c0-2.13-.13-4.26-.19-6.38,0-.46-.06-.93.42-1.26.73.51,1,1.48,1.81,1.8.48-.32.34-.64.09-.93s-.6-.63-.89-.95-.83-.62-.75-1.35a4,4,0,0,1,1-.15,26,26,0,0,1,2.78.48c.49.12.84.16,1.08-.53a32.71,32.71,0,0,0-4.59-.54L95.88,7.2c-1.22-.06-1.15,1.15-1.95,1.41l.16-1.78-1,.93c0-2,0-3.7,0-5.43,0-.36.24-.77-.54-1A46,46,0,0,0,92.7,8.64ZM72.51,64.11c-.86.21-.4-1.53-1.57-.9.28.63.55,1.22.89,2-.92,0-1.74,0-2.55,0s-1.55-.53-2.37-.08c.17.6.59.56,1,.56,1.18,0,2.36,0,3.55,0,.25,0,.49,0,.84.06-.63,1-1.83,1.29-2,2.63,1.05-.23,1.35-1.35,2.33-1.53,0,.5,0,.92,0,1.35s-.08,1,0,1.53c0,.73.2,1.46.23,2.2.06,1,0,2,.07,3.08a3.33,3.33,0,0,0,.24.78l.33,0a10.06,10.06,0,0,0,.13-1.07c-.06-2.13-.13-4.25-.2-6.38,0-.46,0-.93.43-1.26.73.51,1,1.48,1.81,1.8.48-.31.34-.64.09-.93s-.6-.62-.89-.94-.83-.63-.75-1.35a3.53,3.53,0,0,1,1-.15,23.75,23.75,0,0,1,2.78.48c.49.11.84.15,1.08-.53a32.68,32.68,0,0,0-4.6-.55l1.42-2.19c-1.22,0-1.15,1.16-2,1.41l.16-1.77-1,.92c0-2,0-3.7,0-5.42,0-.37.24-.78-.55-1A47.34,47.34,0,0,0,72.51,64.11ZM17.09,7.36c-.86.21-.4-1.53-1.58-.9.29.62.56,1.22.89,2-.92,0-1.73,0-2.54,0s-1.56-.53-2.37-.07c.17.6.59.56,1,.56H16c.25,0,.5,0,.85.06-.63.95-1.84,1.29-2,2.63,1.06-.23,1.35-1.36,2.33-1.53,0,.5,0,.92,0,1.35s-.08,1-.05,1.52c0,.74.19,1.47.23,2.21.05,1,0,2,.07,3.08a2.92,2.92,0,0,0,.24.78L18,19a8,8,0,0,0,.12-1.07c0-2.13-.13-4.25-.19-6.38,0-.46-.05-.93.43-1.26.72.51,1,1.48,1.8,1.8.48-.32.34-.64.1-.93s-.6-.62-.89-.94-.83-.63-.76-1.35a3.64,3.64,0,0,1,1-.15,26.2,26.2,0,0,1,2.79.47c.49.12.83.16,1.08-.52a33,33,0,0,0-4.6-.55l1.41-2.19c-1.22,0-1.15,1.15-2,1.41l.17-1.77-1,.92c0-2,0-3.7,0-5.42,0-.37.25-.78-.54-1A47.36,47.36,0,0,0,17.09,7.36Zm34.9,13c.21.08.41.18.62.25a12.88,12.88,0,0,1,1.49.47c1.09.5.87.33.83,1.42,0,.52,0,1,0,1.66,0,.4.3-.15.33-.21.13-.33.26-.66.36-1,.16-.62.35-1.15,1.1-1.31a10.64,10.64,0,0,0,2-.49c.48-.16-.69-.51-.86-.58s-.62-.24-.94-.35a1.49,1.49,0,0,1-1.07-1.51c0-.56.06-1.13.1-1.7,0-.2.08-.42-.27-.5a3.57,3.57,0,0,0-.14.38c-.15.69-.35,1.38-.44,2.08S54.59,20,54,20c-.28,0-.57,0-.86,0l-1.1.08C51.87,20.18,51.7,20.25,52,20.39ZM3.88,21.89a5.36,5.36,0,0,0,.62.25A14.36,14.36,0,0,1,6,22.61c1.09.5.87.33.83,1.42,0,.52,0,1,0,1.66,0,.4.3-.15.33-.21a8.33,8.33,0,0,0,.36-1c.17-.61.35-1.14,1.11-1.31a10.25,10.25,0,0,0,2-.49c.47-.16-.7-.5-.87-.58s-.62-.23-.94-.34A1.47,1.47,0,0,1,7.8,20.26a16,16,0,0,1,.1-1.7c0-.21.07-.43-.28-.5a3.44,3.44,0,0,0-.14.37c-.15.7-.34,1.38-.44,2.08s-.56.94-1.15,1a8.08,8.08,0,0,1-.85.05l-1.11.08C3.76,21.69,3.6,21.76,3.88,21.89Zm37,20.37c.21.09.41.19.62.26A12.29,12.29,0,0,1,43,43c1.09.5.87.33.83,1.42,0,.52,0,1,0,1.66,0,.4.3-.15.33-.22a8.33,8.33,0,0,0,.36-1c.17-.61.35-1.14,1.11-1.3a11,11,0,0,0,2-.49c.47-.17-.7-.51-.87-.59l-.94-.34a1.47,1.47,0,0,1-1.06-1.51,16.15,16.15,0,0,1,.1-1.7c0-.21.08-.42-.28-.5a2.92,2.92,0,0,0-.14.38c-.15.69-.34,1.38-.44,2.08s-.55.93-1.15,1c-.28,0-.57,0-.85,0L41,42C40.8,42.06,40.64,42.13,40.92,42.26Zm34.49-22.9c.21.08.41.18.62.25a12.29,12.29,0,0,1,1.49.47c1.09.5.87.33.83,1.42,0,.52,0,1,0,1.66,0,.4.3-.15.33-.21a9.85,9.85,0,0,0,.36-1c.17-.62.35-1.14,1.11-1.31a11,11,0,0,0,2-.49c.47-.16-.7-.51-.87-.58s-.62-.24-.94-.34a1.49,1.49,0,0,1-1.06-1.52,16.31,16.31,0,0,1,.1-1.7c0-.2.08-.42-.28-.5a3.57,3.57,0,0,0-.14.38c-.15.69-.34,1.38-.44,2.08s-.55.94-1.15,1a8.06,8.06,0,0,1-.85,0l-1.11.09C75.29,19.15,75.13,19.22,75.41,19.36ZM64.81,47.93c.16.15.31.32.49.46a14,14,0,0,1,1.23,1c.84.85.7.61.28,1.62-.2.48-.34,1-.55,1.57-.1.39.34,0,.39-.09a6.53,6.53,0,0,0,.68-.8c.37-.51.73-.94,1.49-.83a10.5,10.5,0,0,0,2.06.24c.5,0-.47-.72-.61-.85s-.5-.44-.76-.65a1.46,1.46,0,0,1-.46-1.79c.19-.53.45-1,.68-1.55.09-.19.23-.37-.08-.57a3.56,3.56,0,0,0-.26.31c-.39.59-.81,1.17-1.14,1.79a1.15,1.15,0,0,1-1.44.56,6.48,6.48,0,0,1-.82-.26l-1.06-.31C64.77,47.7,64.58,47.71,64.81,47.93Z"/><path class="cls-1" d="M6.7,48l1.1,0v.11c-.51.08-.52.31-.52,1.64,0,.26,0,.91,0,1.46-.93.07-1.34.75-3,.75A4.06,4.06,0,0,1,0,47.81a4,4,0,0,1,4.35-4.06,15.81,15.81,0,0,1,2.87.46c0,.28,0,.72,0,1.06a7.16,7.16,0,0,0,0,.76H7.1a2.56,2.56,0,0,0-2.67-2c-1.69,0-3.14,1.19-3.14,3.75s1.34,3.83,3.1,3.83A2.45,2.45,0,0,0,6.14,51V49.68c0-1.42-.07-1.54-.6-1.61V48Zm6.21,2.8.08.1a2.32,2.32,0,0,1-2,1,2.7,2.7,0,0,1-.11-5.4A2,2,0,0,1,13,48.6H9.52s0,.09,0,.27c0,1.55.83,2.51,2,2.51A1.9,1.9,0,0,0,12.91,50.78ZM9.55,48.31h2.29c0-1.05-.4-1.57-1-1.57S9.68,47.44,9.55,48.31Zm12.21,2.41V48.41c0-1.54-.86-1.89-1.66-1.89a3.14,3.14,0,0,0-1.88.68,1.48,1.48,0,0,0-1.38-.68,2.76,2.76,0,0,0-1.63.54v-.54a3.49,3.49,0,0,1-1.37.3v.11c.33.09.34.26.34.8v3c0,.88-.15.94-.48,1v.11l1,0,1,0v-.11c-.33-.06-.48-.12-.48-1V47.34a1.86,1.86,0,0,1,1.2-.46c.61,0,1,.31,1,1.53v2.31c0,.88-.14.94-.47,1v.11l1,0,1,0v-.11c-.33-.06-.48-.12-.48-1V48.38a2.53,2.53,0,0,0-.16-1,2.26,2.26,0,0,1,1.35-.51c.63,0,1.06.34,1.06,1.55v2.29c0,.88-.14.94-.47,1v.11l1,0,1,0v-.11C21.9,51.66,21.76,51.6,21.76,50.72Zm2.13-4.81a.52.52,0,0,0,.55-.52.53.53,0,0,0-.55-.56.53.53,0,0,0-.52.56A.52.52,0,0,0,23.89,45.91Zm.49,4.81V46.56a3.73,3.73,0,0,1-1.38.28V47c.33.09.34.27.34.8v3c0,.88-.14.94-.47,1v.11l1,0,1,0v-.11C24.52,51.66,24.38,51.6,24.38,50.72Zm6.07,0v-2.4c0-1.56-1-1.8-1.73-1.8a2.71,2.71,0,0,0-1.65.54v-.54a3.58,3.58,0,0,1-1.38.3v.11c.33.09.34.26.34.8v3c0,.88-.14.94-.47,1v.11l1,0,1,0v-.11c-.33-.06-.47-.12-.47-1V47.35a1.86,1.86,0,0,1,1.21-.47c.63,0,1.13.33,1.13,1.47v2.37c0,.88-.14.94-.47,1v.11l1,0,1,0v-.11C30.59,51.66,30.45,51.6,30.45,50.72Zm2.14-4.81a.52.52,0,0,0,.55-.52.54.54,0,1,0-1.08,0A.52.52,0,0,0,32.59,45.91Zm.48,4.81V46.56a3.68,3.68,0,0,1-1.38.28V47c.33.09.34.27.34.8v3c0,.88-.14.94-.47,1v.11l1,0,1,0v-.11C33.21,51.66,33.07,51.6,33.07,50.72Z"/></g></g></svg>