<svg xmlns="http://www.w3.org/2000/svg" viewBox="0 0 114.47 77.45"><defs><style>.cls-1{fill:#1d1d1b;}</style></defs><title>Asset 436</title><g id="Layer_2" data-name="Layer 2"><g id="Layer_1-2" data-name="Layer 1"><path class="cls-1" d="M22.51,74.85a.6.6,0,0,1-.29-.08l-8.84-5.62a.54.54,0,1,1,.58-.9l8.83,5.61a.54.54,0,0,1-.28,1Z"/><path class="cls-1" d="M30.41,74.85a.54.54,0,0,1-.29-1L55.9,57.23a.54.54,0,1,1,.59.9L30.7,74.77A.6.6,0,0,1,30.41,74.85Z"/><path class="cls-1" d="M64,43.77H64a.53.53,0,0,1-.46-.6l2.26-16.78a.54.54,0,0,1,.6-.46.53.53,0,0,1,.46.6L64.56,43.31A.54.54,0,0,1,64,43.77Z"/><path class="cls-1" d="M72.22,20.54a.54.54,0,0,1-.24-1L95.67,7.67a.54.54,0,0,1,.48,1L72.46,20.48A.53.53,0,0,1,72.22,20.54Z"/><path class="cls-1" d="M68.66,48a.55.55,0,0,1-.49-.31.55.55,0,0,1,.25-.72l38-18.24a.54.54,0,0,1,.72.25.55.55,0,0,1-.25.72l-38,18.24A.53.53,0,0,1,68.66,48Z"/><path class="cls-1" d="M59.93,39.34c1,.36.72.9.72,1.39,0,2.28,0,4.56,0,7.17l1.29-1.22L61.72,49c1.05-.34,1-1.93,2.58-1.86l-1.87,2.89a42.85,42.85,0,0,1,6.07.73c-.32.9-.78.85-1.42.69a32.89,32.89,0,0,0-3.68-.63,5.31,5.31,0,0,0-1.34.2c-.1,1,.56,1.3,1,1.78s.81.81,1.18,1.25.5.81-.13,1.23c-1.11-.42-1.42-1.71-2.38-2.38-.64.43-.59,1.06-.57,1.67.09,2.81.18,5.62.25,8.43a9.66,9.66,0,0,1-.16,1.41l-.44,0a3.93,3.93,0,0,1-.31-1c-.06-1.36,0-2.71-.1-4.07,0-1-.24-1.94-.3-2.91,0-.67,0-1.35.07-2s0-1.13,0-1.79c-1.29.24-1.68,1.73-3.08,2,.28-1.78,1.87-2.22,2.7-3.47-.45,0-.78-.09-1.11-.09-1.57,0-3.13,0-4.7,0-.5,0-1.06.05-1.28-.74,1.07-.6,2.1.15,3.13.1s2.15,0,3.36,0c-.44-1-.8-1.76-1.17-2.59,1.55-.83.94,1.47,2.08,1.19A62.88,62.88,0,0,1,59.93,39.34Z"/><path class="cls-1" d="M7.23,52.25c1,.36.73.9.72,1.39,0,2.28,0,4.56,0,7.17l1.3-1.22c-.09,1-.16,1.64-.22,2.34,1.06-.34,1-1.93,2.58-1.86L9.73,63a43.17,43.17,0,0,1,6.08.73c-.33.9-.78.85-1.43.69a32.89,32.89,0,0,0-3.68-.63,5.31,5.31,0,0,0-1.34.2c-.09,1,.56,1.3,1,1.78s.81.81,1.18,1.25.51.81-.13,1.23C10.3,67.79,10,66.5,9,65.83c-.64.43-.59,1.06-.57,1.67.09,2.81.19,5.62.26,8.43a9.69,9.69,0,0,1-.17,1.41l-.44,0a3.93,3.93,0,0,1-.31-1c-.06-1.36,0-2.72-.09-4.07,0-1-.25-1.94-.31-2.91,0-.67.06-1.35.07-2s0-1.13,0-1.79c-1.29.24-1.68,1.73-3.08,2,.28-1.78,1.87-2.22,2.71-3.47C6.64,64.08,6.31,64,6,64c-1.56,0-3.13,0-4.69,0-.51,0-1.07,0-1.29-.74,1.08-.6,2.1.15,3.13.1s2.15,0,3.37,0L5.32,60.79C6.87,60,6.26,62.26,7.4,62A62.88,62.88,0,0,1,7.23,52.25Z"/><path class="cls-1" d="M96.23,4.78l1.46-.11c.38,0,.76,0,1.13-.06.79-.12,1.4-.41,1.53-1.36s.37-1.83.57-2.75a3.9,3.9,0,0,1,.19-.5c.47.1.38.39.36.67,0,.74-.13,1.49-.13,2.24a2,2,0,0,0,1.41,2c.42.14.83.28,1.24.45.23.1,1.77.55,1.14.77a13.76,13.76,0,0,1-2.65.65c-1,.22-1.25.92-1.47,1.73a10.09,10.09,0,0,1-.47,1.3c0,.09-.38.82-.44.29,0-.82-.07-1.51,0-2.2,0-1.44.33-1.21-1.11-1.87a18.1,18.1,0,0,0-2-.63c-.28-.09-.54-.22-.81-.33S96,4.8,96.23,4.78Z"/><path class="cls-1" d="M105.42,25.48l1.46-.11a10.69,10.69,0,0,0,1.13-.06c.78-.12,1.4-.41,1.52-1.36s.38-1.83.58-2.75c0-.16.12-.32.18-.5.47.1.39.39.37.67-.06.74-.14,1.49-.13,2.24a2,2,0,0,0,1.41,2c.41.14.83.28,1.23.45.23.1,1.78.56,1.15.77a13.67,13.67,0,0,1-2.66.65c-1,.22-1.24.92-1.46,1.73a12.81,12.81,0,0,1-.47,1.31c0,.08-.39.81-.44.28,0-.82-.07-1.51-.05-2.19.05-1.45.34-1.22-1.1-1.88a16.68,16.68,0,0,0-2-.62c-.28-.09-.55-.23-.82-.34S105.19,25.5,105.42,25.48Z"/><path class="cls-1" d="M31.28,72.27l-1.45.24a10.74,10.74,0,0,0-1.12.15c-.77.19-1.36.53-1.4,1.48S27.09,76,27,76.93a3.67,3.67,0,0,1-.14.52c-.48-.06-.42-.36-.42-.63,0-.75,0-1.51-.06-2.25a2,2,0,0,0-1.58-1.87c-.42-.11-.85-.21-1.27-.35-.24-.08-1.81-.4-1.21-.66a14,14,0,0,1,2.6-.88c1-.3,1.16-1,1.31-1.84a10.32,10.32,0,0,1,.36-1.35c0-.09.31-.84.41-.32.09.82.2,1.5.23,2.18.08,1.45-.23,1.24,1.26,1.78a16.89,16.89,0,0,0,2,.45c.28.07.56.18.84.27S31.5,72.23,31.28,72.27Z"/><path class="cls-1" d="M70.71,17.53c-.22.44-.43.88-.65,1.31s-.38.65-.52,1a1.53,1.53,0,0,0,.4,2c.73.57,1.39,1.25,2.07,1.89a4.62,4.62,0,0,1,.34.41c-.32.36-.53.14-.75,0-.62-.43-1.22-.88-1.87-1.25a2,2,0,0,0-2.44.2c-.33.29-.66.57-1,.84-.2.15-1.37,1.24-1.24.6a13.88,13.88,0,0,1,.79-2.63,1.93,1.93,0,0,0-.75-2.13,11.47,11.47,0,0,1-.89-1.07c-.05-.08-.5-.74,0-.52.72.4,1.34.7,1.91,1.07,1.22.77.88.91,2.18,0a20,20,0,0,0,1.54-1.38,7.15,7.15,0,0,1,.7-.53C70.83,17.09,70.8,17.32,70.71,17.53Z"/><path class="cls-1" d="M12.13,32.3v7.82c0,1.73.06,1.92.73,2v.14c-.31,0-1,0-1.49,0s-1.16,0-1.48,0v-.14c.67-.11.73-.3.73-2V32.3H10c-1.83,0-2.18.34-2.46,1.25H7.41c.09-.7.22-1.38.26-2.11.27.09.64.38,3.57.38,2.77,0,3.45,0,4.2-.32a12.57,12.57,0,0,0-.32,2H15C14.91,32.34,14.43,32.32,12.13,32.3Zm8.72,9.23.08.14a1.5,1.5,0,0,1-1.29.69.77.77,0,0,1-.86-.75,3.16,3.16,0,0,1-2.08.8c-1.18,0-2-.67-2-1.63s1.09-1.87,2.47-1.87a3.07,3.07,0,0,1,1.55.38v-2.1c0-1.12-.37-1.58-1.11-1.58s-1.37.58-1.38,1.83H15a2.51,2.51,0,0,1,2.79-2.17c1.41,0,2.33.64,2.33,2.52v3.06c0,.64.1.83.39.83A.5.5,0,0,0,20.85,41.53Zm-2.12-1.92a2,2,0,0,0-1.17-.33,1.25,1.25,0,0,0-1.37,1.34,1.14,1.14,0,0,0,1.2,1.26,2,2,0,0,0,1.34-.56Zm9.53,2.06c-.34,0-.43-.37-.43-.91V35.27a4.94,4.94,0,0,1-1.91.4v.14c.54.12.54.29.54,1.36v3.35c0,.16,0,.32,0,.48a1.77,1.77,0,0,1-1.63.87c-1,0-1.44-.57-1.44-2.2v-4.4a5.1,5.1,0,0,1-1.95.4v.14c.58.12.58.34.58,1.33V40c0,1.95,1.14,2.43,2.27,2.43a2.55,2.55,0,0,0,2.2-1c.1.58.38,1,1.07,1a1.5,1.5,0,0,0,1.29-.87l-.07-.14A.72.72,0,0,1,28.26,41.67Zm5-6.4a2.54,2.54,0,0,0-1.68.93v-.93a4.72,4.72,0,0,1-1.82.4v.14c.44.12.45.34.45,1v4c0,1.17-.19,1.24-.62,1.33v.14c.32,0,.77,0,1.31,0s1,0,1.31,0v-.14c-.44-.09-.63-.16-.63-1.33V36.61a1.21,1.21,0,0,1,.89-.51c.35,0,.58.21.58.8h1.34C34.35,35.77,33.94,35.27,33.22,35.27Zm8.5,6.4c-.35,0-.44-.37-.44-.91V35.27a4.94,4.94,0,0,1-1.91.4v.14c.54.12.54.29.54,1.36v3.35a3.85,3.85,0,0,0,0,.48,1.78,1.78,0,0,1-1.63.87c-1,0-1.44-.57-1.44-2.2v-4.4a5.15,5.15,0,0,1-2,.4v.14c.59.12.59.34.59,1.33V40c0,1.95,1.13,2.43,2.27,2.43a2.56,2.56,0,0,0,2.2-1c.1.58.38,1,1.06,1a1.5,1.5,0,0,0,1.3-.87l-.08-.14A.72.72,0,0,1,41.72,41.67Zm2.61-5a1.06,1.06,0,0,1,1.16-1.08,1.72,1.72,0,0,1,1.63,1.53h.15c0-.46,0-.83,0-1.08a2.47,2.47,0,0,1,0-.53c-.62-.06-1.21-.21-1.8-.21-1.3,0-2.33.69-2.33,1.95,0,2.2,3.14,1.72,3.14,3.67a1.12,1.12,0,0,1-1.22,1.2c-1.12,0-1.62-1-1.57-2h-.15c-.13.58-.09,1.54-.17,2a12.06,12.06,0,0,0,2,.31,2.18,2.18,0,0,0,2.4-2.11C47.57,37.94,44.33,38.33,44.33,36.64Z"/></g></g></svg>