<svg xmlns="http://www.w3.org/2000/svg" viewBox="0 0 94.72 118.47"><defs><style>.cls-1{fill:#1a1a1a;}</style></defs><title>Asset 531</title><g id="Layer_2" data-name="Layer 2"><g id="Layer_1-2" data-name="Layer 1"><path class="cls-1" d="M93.29,35.77A42.78,42.78,0,1,1,59,1.43,47.37,47.37,0,1,0,93.29,35.77Zm-72-26.15a.67.67,0,1,1,0,1A.68.68,0,0,1,21.28,9.62Zm-5.67,4.83a.89.89,0,1,1,0,1.26A.89.89,0,0,1,15.61,14.45Zm-5.08,6a1.13,1.13,0,0,1,1.6,1.6,1.13,1.13,0,1,1-1.6-1.6ZM5.8,27.86l1.27.36L7.48,27l.32,1.28L9.09,28l-.94.92.89,1-1.27-.35-.4,1.25L7,29.48l-1.29.28.94-.92Zm-2,8.57,1.16,1.21,1.25-1.11-.46,1.61,1.59.54-1.63.4L6,40.72,4.85,39.51,3.6,40.62,4.06,39l-1.59-.53,1.63-.4ZM1.88,50a2.64,2.64,0,0,1-.08-.49,2.79,2.79,0,0,1,2.46-3.09,2.94,2.94,0,0,1,2.88,3.19,2.75,2.75,0,0,0-2.81-2.2A2.75,2.75,0,0,0,1.88,50Zm3.89,7.21a3.06,3.06,0,0,0-2.08,3,3,3,0,0,1-.37-.74,3.05,3.05,0,0,1,5.79-1.94,3.32,3.32,0,0,1,.16.81A3,3,0,0,0,5.77,57.21Zm4.74,10.92A3.42,3.42,0,0,0,8.86,71.3a3.47,3.47,0,0,1-1.1-1.12,3.41,3.41,0,1,1,6.32-2A3.42,3.42,0,0,0,10.51,68.13Zm9,11.5a2.88,2.88,0,1,1,0-4.07A2.89,2.89,0,0,1,19.49,79.63Zm10.05,6.48a3.41,3.41,0,0,1-4.67,1.18,3.47,3.47,0,0,1-1.12-1.1A3.4,3.4,0,0,0,26.87,81a3.4,3.4,0,0,1,2.67,5.14Zm9.85,3.69a3.05,3.05,0,0,1-3.86,1.93,3,3,0,0,1-.74-.37,3.06,3.06,0,0,0,1.87-5.58,3.32,3.32,0,0,1,.81.16A3,3,0,0,1,39.39,89.8Zm6.15,3.45a3.85,3.85,0,0,1-.49-.08,2.65,2.65,0,0,0,.39-5.26,2.71,2.71,0,1,1,.1,5.34ZM57,91l-.4,1.63L56,91l-1.61.46,1.11-1.25L54.33,89l1.64.33.4-1.63.54,1.59,1.61-.46-1.11,1.25,1.21,1.16Zm10.22-1.7-1-.89-.92.94L65.57,88l-1.28-.33,1.25-.4L65.19,86l1,.89.92-.94-.28,1.28,1.28.33L66.83,88Zm7.42-4.73a1.13,1.13,0,0,1-1.6-1.6,1.12,1.12,0,0,1,1.6,0A1.13,1.13,0,0,1,74.61,84.52Zm6-5.08a.89.89,0,1,1,0-1.26A.89.89,0,0,1,80.6,79.44Zm4.83-5.67a.67.67,0,1,1,0-1A.68.68,0,0,1,85.43,73.77Z"/><path class="cls-1" d="M48.73,44l.45,2.12-.83-2-1,2.74.25-2.91L46,45.39l1.32-1.72-2.88.48,2.65-1.24L45,42.24l2.15.28-1.85-2.26,2.39,1.68-.45-2.13.83,2,1-2.74L48.83,42l1.61-1.46-1.32,1.73L52,41.79,49.36,43l2.06.68-2.15-.29,1.85,2.26ZM70.57,71.56l2.51-1.5-2.82.77L71.4,69l-1.46,1.61,0-2.92-.75,2.82-1-1.91.67,2.07-2.56-1.42,2.08,2-2.17-.06,2.12.46-2.51,1.5,2.82-.77-1.14,1.85,1.46-1.61,0,2.92.75-2.83,1,1.92L70,72.59,72.6,74,70.52,72l2.17.07ZM37.49,62,39,60.56l-1.82,1,.11-2.65-.76,2.54-1.4-1.52,1,1.82-2.65-.12,2.53.77-1.51,1.39,1.81-1-.11,2.65L37,62.91l1.39,1.52-1-1.82,2.65.12Zm8.69-29.12,2-.32-1,2.46,1.55-2.14.82,1.89-.32-2,2.46,1-2.14-1.56,1.89-.82-2,.33,1-2.47L48.88,31.3l-.82-1.9.33,2-2.47-1L48.07,32ZM47.24,9.53l-.37,1.26.86-1,.9.94-.42-1.23,1.27-.31L48.19,9l.37-1.26-.86,1-.9-.95L47.23,9,46,9.28Zm.49.81c-.17,0,.24,6.24.24,6.24l.54,8.23s.37,5.82.54,5.81-.23-5.86-.23-5.86l-.54-8.23S47.88,10.33,47.73,10.34ZM48.28,37l-.06.67a25.78,25.78,0,0,0-.15,3.52,27.9,27.9,0,0,0,.47-3.51L48.6,37a30.62,30.62,0,0,0,.18-3.71A27.18,27.18,0,0,0,48.28,37Zm-7.9,18.86s-3,5-2.82,5S40.67,56,40.67,56l3.93-6.61s2.77-4.66,2.63-4.75-2.92,4.61-2.92,4.61Zm20.31,3.84c.12-.09-3.2-4.45-3.2-4.45l-4.67-6.15s-3.52-4.62-3.64-4.53,3.41,4.74,3.41,4.74l4.67,6.15S60.56,59.78,60.69,59.68Zm5.59,7.93a21.42,21.42,0,0,0,2,2.55,23.93,23.93,0,0,0-1.78-2.75l-2.69-3.75a26.18,26.18,0,0,0-2.14-2.73l1.27.3-1-.8.9-1-1.21.5-.39-1.25L61.06,60l-1.28-.29,1,.8-.89.95L61.14,61l.38,1.25.17-1.3h0a24.9,24.9,0,0,0,1.9,2.93Z"/><path class="cls-1" d="M31.07,32a.9.9,0,1,1-.9-.89A.9.9,0,0,1,31.07,32Zm53,2.38a.59.59,0,0,0-.6.59.6.6,0,0,0,.6.6.59.59,0,0,0,.59-.6A.58.58,0,0,0,84.09,34.36Zm-68.26-.2a.6.6,0,1,0,.59.59A.6.6,0,0,0,15.83,34.16Zm33,23.32a.59.59,0,0,0-.6.59.6.6,0,0,0,.6.6.59.59,0,0,0,.59-.6A.58.58,0,0,0,48.83,57.48ZM59.38,44.12a.6.6,0,1,0,0,1.19.6.6,0,0,0,0-1.19ZM41.73,20.59a.48.48,0,1,0,.47.47A.47.47,0,0,0,41.73,20.59Zm14.71-6.95a.48.48,0,1,0,.47.47A.47.47,0,0,0,56.44,13.64ZM54.7,23.8a.48.48,0,1,0,.48.47A.48.48,0,0,0,54.7,23.8Zm-31,38.62a.48.48,0,1,0,0,.95.48.48,0,0,0,0-.95ZM36.92,16l-.77.34-.51-.66-.09.83-.83.12.67.49-.31.78.76-.34.52.66.09-.83.83-.12-.68-.49Zm3.53,60.51-.27-.65-.26.65-.7-.1.43.56-.43.56.7-.1.26.66.27-.66.7.1-.44-.56.44-.56ZM35.82,48.71l-.08-.83-.52.66-.76-.34.31.78-.68.49.83.11.09.84.51-.66.77.34L36,49.32l.67-.49Zm38.05,9-.07-.83-.53.65-.76-.35.3.78-.68.48.83.13.07.84.53-.66.76.36L74,58.34l.69-.48ZM19.11,50l-.78.31-.49-.67-.12.82-.83.09.66.52-.34.76.78-.31.49.67.12-.82.83-.09-.66-.52Zm53.3-14.29c-.17-.8-.42-3.13-.42-3.13s0,0,0,0-.23,2.34-.41,3.13a1.47,1.47,0,0,1-1.14,1,12.56,12.56,0,0,1-2.09.32s0,0,0,0a12.91,12.91,0,0,1,2,.31,1.51,1.51,0,0,1,1.18,1.05c.19.79.41,3.13.41,3.13s0,0,0,0,.25-2.37.42-3.13a1.56,1.56,0,0,1,1.14-1.06,9,9,0,0,1,1.85-.3s0,0,0,0a9.56,9.56,0,0,1-1.87-.31C72.79,36.55,72.52,36.23,72.41,35.72Zm7,5.22c-.1-.47-.24-1.82-.24-1.82s0,0,0,0-.13,1.36-.24,1.82a.83.83,0,0,1-.66.6,6.68,6.68,0,0,1-1.22.19h0a8.73,8.73,0,0,1,1.2.18.86.86,0,0,1,.68.61c.11.46.24,1.82.24,1.82h0s.14-1.38.24-1.82a.89.89,0,0,1,.66-.61,5,5,0,0,1,1.08-.18h0A5.74,5.74,0,0,1,80,41.55C79.6,41.42,79.44,41.24,79.38,40.94Z"/><path class="cls-1" d="M69.75,18.75,69.6,20l1.14.44-1.12.47.18,1.2-1-.73-.94.76L68,20.89l-1.14-.44L68,20l-.18-1.2,1,.73Zm4.65-2.53a8.33,8.33,0,0,1,.9-.29c.25-.07.42-.11.42-.16s-.19,0-.45,0a5.08,5.08,0,0,0-1,.21A7.67,7.67,0,0,0,73,16.5l-.47.26a9.08,9.08,0,0,0-1.23.85,6.41,6.41,0,0,0-.74.71c-.19.21-.29.37-.26.39a10.24,10.24,0,0,0,1.17-.89,13.71,13.71,0,0,1,1.22-.8c.15-.09.31-.17.47-.25A8.86,8.86,0,0,1,74.4,16.22ZM74.15,18a6.33,6.33,0,0,0,1.18-.24,3.13,3.13,0,0,0-1.23,0,7.2,7.2,0,0,0-1.2.28l-.44.16a7.5,7.5,0,0,0-1.15.61,2.94,2.94,0,0,0-1,.85,9.3,9.3,0,0,0,1.1-.66,8.6,8.6,0,0,1,1.14-.56l.42-.16A10,10,0,0,1,74.15,18Zm-.65,1.65c.35,0,.69.06.71,0s-.07-.08-.2-.13a2.21,2.21,0,0,0-.5-.1,5.24,5.24,0,0,0-.74,0l-.28,0a4.8,4.8,0,0,0-.75.17c-.37.11-.71.32-.67.38s.37-.08.74-.16a6.19,6.19,0,0,1,.73-.13,2.06,2.06,0,0,1,.26,0S73.15,19.62,73.5,19.62Z"/><path class="cls-1" d="M73.15,113.15c-1.09,2.53-4.31,4.21-4.31,2.57,0-.91,1.08-2.33,1.08-3.65,0-1.83-2.2-2.2-2.2-3,0-.08.23-.64.23-.79,0-1.5-1.84.62-1,1.46a30.75,30.75,0,0,1-1.47,3.55c-2.57,4.64-7.17,4.63-6.34,1,2.46-.24,5.35-2,5.35-4.19a1.18,1.18,0,0,0-1.34-1.31c-2.31,0-4.95,3-5.41,5.5a5,5,0,0,1-4,2.65c-3.5,0-.41-7.08,2-7.08.37,0,.48.2.48.54a2.17,2.17,0,0,1-.8,1.71c.59.71,1.7.22,1.7-1.25,0-3.07-5-1.51-6.08,2.82-2,3.55-3.34,3-3.34,1.92s.88-2.07.88-3.41c0-2.38-2.65-3.39-6.08,1.86a13.43,13.43,0,0,0,.69-2.85c0-.82-1.1-.64-1.58-.11a7.89,7.89,0,0,1-.4,2.14c-2,3.42-4.08,4-4.08,2.29,0-1,1.25-2.51,1.25-3,0-.33-.61-.5-.87-.54-1.05,1.55-3.19,4.7-4.53,4.7-1.89,0,1.1-6.95,3.87-6.95,1,0,1.21,1,1,2,.62,0,1-.22,1-.93a1.74,1.74,0,0,0-2-1.62c-2.31,0-4.87,2.76-5.7,5.17-3,4.46-8.19,4.8-8.19-.79,0-4.85,4.09-11.84,7.2-11.84,2.33,0,.29,3.57-1.25,5.31a.74.74,0,0,0,.67.49c1.19,0,2.5-2.91,2.5-4.59,0-1.34-.82-1.86-2-1.86-4.1,0-8.87,6.43-8.87,12.12,0,6.23,6,7,9.68,2.12-.21,1.52.52,2.29,1.56,2.29s2-.85,3.26-2.51c-.48,2.63,2.6,3.09,4.83-.06-.28.74-.52,1.3-.52,1.4a1.43,1.43,0,0,0,1.15.48c1.12-1.9,3.1-5.33,4.89-5.33.5,0,.87.26.87,1,0,1-.63,2.12-.63,3A1.33,1.33,0,0,0,47.89,117c1.22,0,2.2-.87,3-2.2-.17,4.07,4.32,3.79,6.8.29.07,3.31,5.08,3.46,7.7-.92a25.33,25.33,0,0,0,1.94-4.11c.54.39,1.21.71,1.21,1.64,0,1.14-1.19,2.76-1.19,4a1.4,1.4,0,0,0,1.57,1.4c1.84,0,3.69-1.94,4.51-3.77ZM63.1,109.48c.37,0,.45.18.45.5,0,1.86-2.76,3.39-4.29,3.93C59.84,111.86,61.72,109.48,63.1,109.48Z"/></g></g></svg>