<svg xmlns="http://www.w3.org/2000/svg" viewBox="0 0 201.19 44.94"><title>Asset 471</title><g id="Layer_2" data-name="Layer 2"><g id="Layer_1-2" data-name="Layer 1"><path d="M200.25,20.86q-13.53-8.77-27.09-17.53a7.9,7.9,0,0,0-1.32-.5,6.73,6.73,0,0,0-.59,1.76c0,4.8,0,9.6,0,14.4a4.81,4.81,0,0,1-.59,3.16c-1.06,0-2.19.16-3.32.12-2.82-.11-5.65-.14-8.45-.47-5.93-.68-11.88-.59-17.83-.71-1.37,0-2.62,0-3.79-1a2.56,2.56,0,0,0-3.69.17c-1.87,1.93-4,1-6.14,1-.08-.83-.14-1.44-.2-2s.2-1.26-.64-1.52c-1.55.77-.25,2.62-1.38,3.59l-4.58.08a17.83,17.83,0,0,0-1.5-2.12,2.49,2.49,0,0,0-2.86-.64,4.17,4.17,0,0,0-2.17,1.7c-.32.51-.66,1-1,1.53-1.75-.16-3.42.43-4.75-.22-1-1-.21-2.76-2-3.19-.28,1.1-.52,2.05-.76,3-1.87.14-3.45.32-4.89-1a2.51,2.51,0,0,0-3.68.07,2.91,2.91,0,0,1-2.26.84c-1.14,0-2.28,0-3.42-.06-.17,0-.34-.22-.46-.3-.57-.61.08-1.82-1.2-2.08L88.61,21c-.67.05-1.29.12-1.92.14-1.87.07-3.73.21-5.33-1.18a1.66,1.66,0,0,0-2.29.31,2.55,2.55,0,0,1-1.78,1.08c-3.76.15-7.51.44-11.27.48-2.31,0-4.52-.42-6.11-2.5a32.06,32.06,0,0,0-3.53-3.56Q51.07,10.65,45.71,5.6a.67.67,0,0,0-1.1.12c0,1.22,1.07,1.66,1.79,2.35L59.09,20.19c.35.34.84.67.43,1.41-2.61.46-5.31,0-8,.13-1.85-2.33-3.71-4.59-5.47-6.91a38.14,38.14,0,0,0-3.68-4.25c-2.08-2-4.1-4.11-6.1-6.13-.91.39-1.06.93-.5,1.51,1.23,1.28,2.53,2.5,3.78,3.76a51.07,51.07,0,0,1,4.33,4.51,58.6,58.6,0,0,0,4.34,5.35c.54.55,1.25,1.14.89,2.33l-5-.16c-3.72-3.9-7.23-7.62-10.79-11.3-1.45-1.5-3-2.92-4.52-4.33a1,1,0,0,0-1.7.2A7.17,7.17,0,0,0,28,7.42C32.53,11.26,36.41,15.8,40.59,20a7,7,0,0,1,.89,1.68c-1.33,0-2.37.08-3.41.05-2.09-.05-4.17-.17-6.26-.23s-4.41.17-6.23-1.43c-.07-.07-.2-.07-.29-.11-1.94-1-4.52,1-4.86,2.69a2.76,2.76,0,0,0,.21,1.52,3,3,0,0,0,3.7,1.52,43.84,43.84,0,0,0,4.16-2.79c2.44,0,5.25-.14,8.06-.1,1.45,0,2.9.29,4.35.45a.41.41,0,0,1,.25.15c.06.08.05.2.11.47-.31.39-.67.89-1.09,1.33-2.24,2.34-4.52,4.64-6.74,7-1.87,2-3.66,4-5.48,6-.29.32-.49.8-.06,1.07a1.16,1.16,0,0,0,1.1,0,25.69,25.69,0,0,0,3.09-3.08,104.61,104.61,0,0,1,8.77-9.81c3.34-3.24,3.33-3.26,7.86-2.93.09,0,.17.12.38.27a4.51,4.51,0,0,1-.44,1c-3.48,4.7-6.89,9.47-11.21,13.47a9.24,9.24,0,0,0-.89.88c-.3.34-.4.78,0,1.08a1,1,0,0,0,.85,0,8.13,8.13,0,0,0,1.41-1.21c.93-1,1.76-2.09,2.74-3a46.12,46.12,0,0,0,6.33-7.74,33.33,33.33,0,0,1,4-5.25l8.83.1c-.14.44-.15.78-.33,1-3.81,4.15-7.21,8.68-11.66,12.22-1.15.91-2.21,1.92-3.32,2.88-.48.41-1,.81-.59,1.55.28.48.87.35,1.57-.31C48,39,49.52,37.63,51,36.16q3.21-3.22,6.3-6.54c1.85-2,3.64-4,5.43-6,2.84-.24,5.23-.46,7.62-.64,1.57-.11,3.13-.24,4.7-.23,1.86,0,3.78-.12,5.25,1.49a1.66,1.66,0,0,0,2,.09,2.82,2.82,0,0,0,1-.76c1-1.17,2.24-.9,3.48-.95s1.53.9,2.1,1.62c.09.11.36.08.64.14a3.08,3.08,0,0,1,3.33-1.56c2,.2,3.94.2,5.63,1.53a2.06,2.06,0,0,0,2.85-.28c.24-.21.41-.51.68-.65a5.08,5.08,0,0,1,3.53-.2c.47.86.4,2,1.76,2.12l.85-2c1.34-.09,2.58-.2,3.83-.24a3.61,3.61,0,0,1,3.09,1.18,5.2,5.2,0,0,0,1.51,1.1,2.15,2.15,0,0,0,3.17-.89c.27-.43.49-.9.76-1.41,1.21-.08,2.35-.2,3.48-.2a5,5,0,0,1,1.36.31c.58.59.16,1.68,1.44,1.75l1.24-2c1.1,0,2.14,0,3.18-.06A2.3,2.3,0,0,1,133.62,24a3,3,0,0,0,.61.71,2.54,2.54,0,0,0,3.85-.15c.48-.53.88-1.13,1.29-1.65,10.65-.62,21.09.5,31.73,1.19.05,1.2.15,2.23.13,3.25-.07,4.38-.19,8.76-.25,13.14a12.26,12.26,0,0,0,.21,2.49c.31,1.71,1.67,2.4,2.92,1.34a44.52,44.52,0,0,1,5.46-3.62A84.36,84.36,0,0,0,191,32c3-2.7,6-5.49,9-8.28a9.53,9.53,0,0,0,1.22-1.81A6.2,6.2,0,0,0,200.25,20.86Zm-12.58,7.05h0l.58.08a1.76,1.76,0,0,0,.31,0c-.12.08-.25.24-.34.23A2.31,2.31,0,0,1,187.67,27.91Zm0,.42s0,0,0,0v0Zm-12.92,4.92a8.09,8.09,0,0,1-1.86.37c.07-1.68.11-2.91.16-4,3.5-1.7,12.24-3.78,15.79-3.69C184,28.53,179.42,31,174.76,33.25ZM174.13,27a2,2,0,0,1-.62-.08,3.65,3.65,0,0,1-.2-2.92c5-1.06,12.82-1.46,15.71-.41Zm13.63-5.89a9.34,9.34,0,0,1-1.16.19q-6.34.45-12.69.85c-.18,0-.37-.16-.78-.35-.06-.87-.12-1.85-.19-3.08a38.88,38.88,0,0,1,7.49.81c2.43.37,4.88.7,7.31,1.05C187.75,20.8,187.76,21,187.76,21.15ZM173.7,5.8c2.88,1.17,5.26,3.15,7.82,5-.6.48-1,0-1.38-.15-2.07-1-4.12-1.94-6.14-3C173.29,7.27,172.93,6.64,173.7,5.8Zm-.52,3.72c.2,0,.43-.19.58-.13a106.25,106.25,0,0,1,12.08,5.91c.54.32,1.08.65,1.16,1.37h.08l0,.08L176,12.49c-.59-.23-1.22-.31-1.8-.53C173,11.51,173,11.34,173.18,9.52Zm.06,4.26c3.28.08,10,2.44,14,4.92a9.52,9.52,0,0,1-3.42-.22c-3-.42-6-.86-9-1.35a12.42,12.42,0,0,1-2.07-.74C173,15.34,173.12,14.55,173.24,13.78ZM172.8,36c4.11-2.11,8.09-4.16,12.08-6.19.14-.07.38.05.91.13-3.87,2.75-7.63,5.24-11.41,7.7a9.22,9.22,0,0,1-1.54.62C172.82,37.3,172.81,36.61,172.8,36Zm.63,6.34a1.24,1.24,0,0,1,.3-2c1.23-1,2.45-2,3.74-2.83,3-2,6.07-4.07,9.17-6a27.14,27.14,0,0,1,4.63-2.25A67.34,67.34,0,0,1,173.43,42.32ZM31,2.35A1.58,1.58,0,0,1,32.47.81a1.1,1.1,0,0,1,1,.94c0,.87-.82,1.67-1.6,1.41C31.5,3,31.2,2.57,31,2.35ZM40.7,1.23A1,1,0,0,1,42.05.86a1.31,1.31,0,0,1,.53,1,6.68,6.68,0,0,1-.37,1.48C40.44,2.85,40,2.21,40.7,1.23ZM15.15,21.28c.2.24.68.58.75,1,.13.82-.72,1.5-1.62,1.44a1.08,1.08,0,0,1-1-1C13.14,22,14.05,21.23,15.15,21.28ZM44,43.52c.22.57-.54,1.46-1.28,1.41-.4,0-.77-.46-1.05-.64,0-.94.73-1.66,1.44-1.51A1.41,1.41,0,0,1,44,43.52ZM22,1.62A1.12,1.12,0,0,1,22.61.14,5.7,5.7,0,0,1,23.36,0c.21.16.61.34.78.64.33.58-.18.88-.58,1.17a.75.75,0,0,1-.27.13C22.8,2.08,22.29,2.2,22,1.62Zm10.44,41a3.12,3.12,0,0,1,1,.67c-.05,1-.55,1.52-1.14,1.52A1.33,1.33,0,0,1,31,43.48,1.21,1.21,0,0,1,32.43,42.66ZM2.2,21.79a1.16,1.16,0,0,1-1.07,1.46c-.4,0-.82-.29-1.11-.41a1.29,1.29,0,0,1,1.26-1.56A1.16,1.16,0,0,1,2.2,21.79ZM24.48,42c-.17.63-.54,1.17-1.24,1-.37-.08-.66-.57-.87-.78.09-.87.6-1.28,1.29-1.25A.83.83,0,0,1,24.48,42ZM9.18,21.64a1.1,1.1,0,0,1-1.09,1.41c-.32,0-.61-.36-.79-.47-.09-.87.32-1.48,1-1.48A1.18,1.18,0,0,1,9.18,21.64Z"/></g></g></svg>