<svg xmlns="http://www.w3.org/2000/svg" viewBox="0 0 55.27 73.48"><defs><style>.cls-1{fill:#1d1d1b;}</style></defs><title>Asset 437</title><g id="Layer_2" data-name="Layer 2"><g id="Layer_1-2" data-name="Layer 1"><path class="cls-1" d="M39.74,32.71a.79.79,0,0,0,.43-1.05v0a1.3,1.3,0,0,0-1.49-.55,44.35,44.35,0,0,1-11,1.64,43,43,0,0,1-11-1.64,1.3,1.3,0,0,0-1.49.55v0a.8.8,0,0,0,.43,1.05,23.7,23.7,0,0,0,5.9,2.16V57a24.31,24.31,0,0,0-5.9,2,.75.75,0,0,0-.43,1v0a1.34,1.34,0,0,0,1.49.53A44.92,44.92,0,0,1,27.64,59a46.28,46.28,0,0,1,11,1.57,1.34,1.34,0,0,0,1.49-.53v0a.74.74,0,0,0-.43-1,24.7,24.7,0,0,0-6-2.08V34.9A24.09,24.09,0,0,0,39.74,32.71ZM31.47,56.58a29.81,29.81,0,0,0-3.56-.27h-.54a32,32,0,0,0-3.71.28V35.29a28,28,0,0,0,3.71.3h.54a29.73,29.73,0,0,0,3.56-.28Z"/><path class="cls-1" d="M47.18,26.3a27.64,27.64,0,1,0,8.09,19.54A27.46,27.46,0,0,0,47.18,26.3ZM45.83,64a25.74,25.74,0,1,1,7.54-18.2A25.55,25.55,0,0,1,45.83,64Z"/><path class="cls-1" d="M12.65,6.29c.59,0,1.28,0,1.64,0v.16c-.75.14-.77.46-.77,2.45,0,.39,0,1.36,0,2.18-1.4.09-2,1.11-4.43,1.11A6,6,0,0,1,2.69,6.05C2.69,3,4.85,0,9.16,0a22.85,22.85,0,0,1,4.26.69c0,.41-.05,1.06-.05,1.57s0,.85,0,1.13h-.16a3.8,3.8,0,0,0-4-2.95C6.77.44,4.6,2.21,4.6,6c0,3.67,2,5.69,4.61,5.69a3.58,3.58,0,0,0,2.6-.94v-2c0-2.1-.09-2.28-.88-2.4V6.26C11.29,6.28,12.06,6.29,12.65,6.29Zm9.24,4.17.12.14a3.45,3.45,0,0,1-3,1.56,3.83,3.83,0,0,1-3.88-4,3.8,3.8,0,0,1,3.72-4A2.93,2.93,0,0,1,22,7.21H16.84s0,.15,0,.41c0,2.31,1.24,3.74,3,3.74A2.84,2.84,0,0,0,21.89,10.46Zm-5-3.67H20.3c0-1.56-.6-2.33-1.49-2.33S17.09,5.49,16.89,6.79Zm18.16,3.58V6.93c0-2.29-1.28-2.8-2.46-2.8a4.65,4.65,0,0,0-2.8,1,2.19,2.19,0,0,0-2.05-1,4,4,0,0,0-2.42.8v-.8a5.32,5.32,0,0,1-2.05.44v.17c.49.13.51.37.51,1.18v4.45c0,1.32-.22,1.4-.71,1.5V12c.36,0,.87,0,1.48,0s1.11,0,1.47,0v-.16c-.49-.1-.7-.18-.7-1.5v-5a2.78,2.78,0,0,1,1.78-.69c.91,0,1.53.46,1.53,2.28v3.44c0,1.32-.22,1.4-.71,1.5V12c.36,0,.87,0,1.48,0s1.11,0,1.47,0v-.16c-.49-.1-.7-.18-.7-1.5V6.88a3.58,3.58,0,0,0-.25-1.46,3.44,3.44,0,0,1,2-.77c.93,0,1.57.51,1.57,2.32v3.4c0,1.32-.21,1.4-.7,1.5V12c.36,0,.87,0,1.47,0s1.12,0,1.48,0v-.16C35.27,11.77,35.05,11.69,35.05,10.37Zm3.18-7.16a.78.78,0,0,0,.82-.77.81.81,0,1,0-1.61,0A.77.77,0,0,0,38.23,3.21ZM39,10.37V4.18a5.5,5.5,0,0,1-2.05.43v.16c.49.13.51.39.51,1.18v4.42c0,1.32-.21,1.4-.7,1.5V12c.36,0,.86,0,1.47,0s1.12,0,1.48,0v-.16C39.16,11.77,39,11.69,39,10.37Zm9,0V6.8c0-2.33-1.47-2.67-2.57-2.67a4,4,0,0,0-2.46.8v-.8a5.32,5.32,0,0,1-2.05.44v.17c.49.13.51.37.51,1.18v4.45c0,1.32-.21,1.4-.71,1.5V12c.37,0,.87,0,1.48,0s1.11,0,1.47,0v-.16c-.49-.1-.7-.18-.7-1.5v-5a2.78,2.78,0,0,1,1.8-.71c.94,0,1.69.5,1.69,2.2v3.52c0,1.32-.21,1.4-.7,1.5V12c.36,0,.86,0,1.47,0s1.12,0,1.48,0v-.16C48.19,11.77,48,11.69,48,10.37Zm3.18-7.16A.78.78,0,0,0,52,2.44a.81.81,0,1,0-1.61,0A.77.77,0,0,0,51.16,3.21Zm.72,7.16V4.18a5.5,5.5,0,0,1-2.05.43v.16c.49.13.51.39.51,1.18v4.42c0,1.32-.21,1.4-.7,1.5V12c.36,0,.86,0,1.47,0s1.12,0,1.48,0v-.16C52.09,11.77,51.88,11.69,51.88,10.37Z"/></g></g></svg>