<svg xmlns="http://www.w3.org/2000/svg" viewBox="0 0 113.59 113.59"><defs><style>.cls-1{fill:#1a1a1a;}</style></defs><title>Asset 449</title><g id="Layer_2" data-name="Layer 2"><g id="Layer_1-2" data-name="Layer 1"><path class="cls-1" d="M71.49,61.64A13.18,13.18,0,0,0,65.1,50.39a16.18,16.18,0,0,0,5.15-5.78c1.69-3.18,2.31-5.18,5.91-5.18a2,2,0,0,0,0-4c-5.68,0-7.53,3.59-9,6.48l-.42.82c-1.88,3.53-5.15,5.81-8.33,5.81-4.5,0-7.31-3.77-8.59-6-1-1.79-2.86-7.1-9.35-7.1a2,2,0,0,0,0,4c3.28,0,4.4,2.21,5.39,4.16a17.77,17.77,0,0,0,5.77,6.85,13.1,13.1,0,1,0,19.88,11.2Zm-13.1,9.1a9.1,9.1,0,1,1,9.1-9.1A9.11,9.11,0,0,1,58.39,70.74Z"/><path class="cls-1" d="M57.53,85.61a1.1,1.1,0,0,1-.12.33,5.82,5.82,0,0,0-.48,2c-.08.86,0,1.39.32,1.59a.24.24,0,0,1,.14.22c0,.12-.11.22-.3.31a1.07,1.07,0,0,1-.53.12c-.27,0-.47-.23-.58-.61a4.12,4.12,0,0,1-.1-1.51,4.61,4.61,0,0,1-1.29,1.28,2.2,2.2,0,0,1-1.39.39,1.16,1.16,0,0,1-.78-.48,1.65,1.65,0,0,1-.3-1.27,7.49,7.49,0,0,1,.47-1.76A6.22,6.22,0,0,0,53,84.71a.67.67,0,0,1,.69-.36.61.61,0,0,1,.47.23.52.52,0,0,1,.14.4A2.77,2.77,0,0,1,54,86,11,11,0,0,0,53.53,87a4.89,4.89,0,0,0-.26.9c0,.44,0,.67.23.68s.74-.21,1.31-.72A4.13,4.13,0,0,0,56,86.28a4.1,4.1,0,0,1,.52-1.08A.59.59,0,0,1,57,85C57.4,85,57.56,85.22,57.53,85.61Zm6.4-1.28a1.32,1.32,0,0,0-.9-.19,2.11,2.11,0,0,0-1.35.9,8.57,8.57,0,0,0-1.16,2.1l-.07.17,0-.78a3.47,3.47,0,0,1,.08-.62,4.26,4.26,0,0,0,.13-1,.48.48,0,0,0-.18-.33.59.59,0,0,0-.45-.1.79.79,0,0,0-.47.2.83.83,0,0,0-.24.37,3.61,3.61,0,0,0,0,.68v.35c0,.57,0,1,0,1.43s0,.74.08,1a3.67,3.67,0,0,0,.28,1.25.52.52,0,0,0,.55.34.84.84,0,0,0,.53-.22.92.92,0,0,0,.19-.61,5.22,5.22,0,0,1,.85-2.72c.53-.84.93-1.27,1.19-1.3a.62.62,0,0,1,.32.14.85.85,0,0,0,.62.19.36.36,0,0,0,.3-.21.72.72,0,0,0,.07-.42A.83.83,0,0,0,63.93,84.33ZM47.16,82.05a3.56,3.56,0,0,0,.4.25.41.41,0,0,0,.63-.2.61.61,0,0,0,0-.47c0-.19-.36-.44-.91-.74a18.82,18.82,0,0,0-2.29-1,22.86,22.86,0,0,1-2.7-1.28,2.6,2.6,0,0,0-1.06-.43.41.41,0,0,0-.38.23.45.45,0,0,0,0,.46,1.55,1.55,0,0,0,.59.49l1.09.52c.63.29,1,.46,1.07.51a14.66,14.66,0,0,0-1.06,1.38,23.39,23.39,0,0,0-1.42,2.12,9.31,9.31,0,0,0-.45.91.71.71,0,0,0,0,.64.83.83,0,0,0,.3.35.51.51,0,0,0,.48,0,.78.78,0,0,0,.38-.34.44.44,0,0,0,0-.15,4.59,4.59,0,0,1,.33-.79,23,23,0,0,1,1.35-2.06l1-1.4a.48.48,0,0,1,.18-.15,6.27,6.27,0,0,1,1.7.74C46.75,81.79,47,81.93,47.16,82.05Zm4,2.73a5.67,5.67,0,0,1-.34.7A8.87,8.87,0,0,0,50.1,87a2.89,2.89,0,0,0-.18.89c0,.18,0,.31,0,.37s.07.13.19.23a.28.28,0,0,1,.12.32.49.49,0,0,1-.38.32,1,1,0,0,1-.59,0c-.63-.2-.73-.88-.3-2.06a3.74,3.74,0,0,1-3.07.87,1.15,1.15,0,0,1-.68-.58,1.34,1.34,0,0,1-.06-1,4.58,4.58,0,0,1,2-2.33A3.4,3.4,0,0,1,50,83.35a.82.82,0,0,1,.63.84C51.05,84.3,51.2,84.5,51.12,84.78Zm-1.4-.26a.37.37,0,0,0-.22-.22c-.33-.1-.89.12-1.65.66a3.42,3.42,0,0,0-1.37,1.56c-.08.27-.06.41.05.45a2.42,2.42,0,0,0,1.77-.55,3,3,0,0,0,1.41-1.48A.67.67,0,0,0,49.72,84.52Zm20,1.23a5.75,5.75,0,0,1-.29-2,1,1,0,0,0,0-.35.5.5,0,0,0-.69-.4.58.58,0,0,0-.42.41,4.24,4.24,0,0,0-.08,1.19,4.06,4.06,0,0,1-.47,1.94c-.33.68-.64,1.07-.94,1.16s-.34-.13-.47-.55a5.54,5.54,0,0,1-.1-.93,11.34,11.34,0,0,1,0-1.15,3,3,0,0,0,0-1,.59.59,0,0,0-.29-.32.66.66,0,0,0-.52,0,.71.71,0,0,0-.51.6,6.15,6.15,0,0,1,.18,1.51,7.92,7.92,0,0,0,.23,1.81,1.63,1.63,0,0,0,.76,1.07,1.18,1.18,0,0,0,.9.15,2.19,2.19,0,0,0,1.14-.89,4.79,4.79,0,0,0,.71-1.67,4.2,4.2,0,0,0,.66,1.36c.25.31.51.43.77.35a1,1,0,0,0,.44-.31c.14-.15.2-.29.16-.4s-.09-.13-.21-.16C70.28,87,70,86.58,69.73,85.75Zm5.67-2a1.11,1.11,0,0,0-.59-.51,3.66,3.66,0,0,0-1.41-.1,4.12,4.12,0,0,1-.94,0,.53.53,0,0,1-.35-.25.86.86,0,0,1,.18-.88,2.25,2.25,0,0,1,.78-.74.59.59,0,0,1,.23,0,.81.81,0,0,0,.22,0,.69.69,0,0,0,.23-.3.44.44,0,0,0,0-.4c-.22-.44-.6-.52-1.13-.25a3.81,3.81,0,0,0-1.43,1.49A1.89,1.89,0,0,0,71,83.58a1.16,1.16,0,0,0,.62.55,4.29,4.29,0,0,0,1.62.12c.65,0,1,0,1.11.16a1.32,1.32,0,0,1-.46.66,3.67,3.67,0,0,1-.86.61,1,1,0,0,1-.38.12.94.94,0,0,0-.3.08.61.61,0,0,0-.32.35.5.5,0,0,0,0,.46c.2.39.58.44,1.15.14A5.55,5.55,0,0,0,75,85.32,1.46,1.46,0,0,0,75.4,83.76Z"/><path class="cls-1" d="M78.82,49.19l-2.44-1.1,2.6-.61.29-2.66,1.4,2.28,2.62-.54-1.75,2,1.33,2.32-2.47-1-1.8,2Zm-15-20.41-2-4.32L60.79,29.1l-4.73.56,4.08,2.44-.92,4.67,3.58-3.13L67,36l-1.87-4.37,3.5-3.23ZM83.42,68.24l-1.34-4.57L80.36,68.1,75.6,68l3.68,3-1.59,4.48,4-2.57,3.76,2.9-1.2-4.6,3.92-2.68Zm9.12-10.37-1.7-.55,0-1.78L89.74,57,88,56.49l1,1.44-1,1.47,1.69-.55,1.09,1.41V58.48ZM46.19,29.34l-.06-1.79-1,1.45-1.72-.5,1.05,1.44-1,1.48,1.7-.56,1.09,1.41V30.49l1.67-.61ZM40,61,40,59.18l-1,1.45-1.72-.5,1,1.44-1,1.47,1.7-.55,1.09,1.41V62.11l1.68-.6Zm-4.65,9.67L35,67.09l-1.83,3-3.5-.69L32,72.14l-1.74,3.11,3.28-1.4,2.42,2.62-.32-3.55,3.24-1.49ZM31.71,55.11l3.06-3.64,4.46,1.66-2.52-4,3-3.73-4.62,1.14-2.63-4-.34,4.75L27.5,48.57l4.41,1.79Z"/><path class="cls-1" d="M56.79,113.59a56.8,56.8,0,1,1,56.8-56.8A56.86,56.86,0,0,1,56.79,113.59Zm0-112.34a55.55,55.55,0,1,0,55.55,55.54A55.61,55.61,0,0,0,56.79,1.25Z"/><path class="cls-1" d="M55.72,95.91A38.79,38.79,0,1,1,94.5,57.13,38.83,38.83,0,0,1,55.72,95.91Zm0-76.32A37.54,37.54,0,1,0,93.25,57.13,37.58,37.58,0,0,0,55.72,19.59Z"/><path class="cls-1" d="M75.09,11.16a4.69,4.69,0,0,1-1.12,2l-.06.07-1.19-.28.18-.2a4.14,4.14,0,0,0,1-1.8,2,2,0,0,0,0-1.16.83.83,0,0,0-.62-.56c-.67-.16-1.52.49-2.5,1.93a16.94,16.94,0,0,0-1.58,3A23.7,23.7,0,0,0,68,17.8l-.15.67-1.13-.27.16-.7a22,22,0,0,0,.51-3.57,17.86,17.86,0,0,0,0-3.32c-.24-1.85-.71-2.87-1.41-3a.84.84,0,0,0-.8.22,1.86,1.86,0,0,0-.55,1,3.81,3.81,0,0,0,.15,2l.09.26-1.2-.28,0-.09a4.56,4.56,0,0,1-.13-2.26,2.7,2.7,0,0,1,1-1.6,2,2,0,0,1,1.7-.34c1,.23,1.67,1.08,2,2.52a12.53,12.53,0,0,1,.17,4.46,12.14,12.14,0,0,1,2.12-3.89c1-1.15,2-1.61,3-1.38a2,2,0,0,1,1.38,1.06A2.63,2.63,0,0,1,75.09,11.16Z"/><path class="cls-1" d="M96.84,24.78a2.68,2.68,0,0,0-2.66-.53l-.91.19a3,3,0,0,1-1.4,0,2.29,2.29,0,0,1-1-.73,2.36,2.36,0,0,1-.6-1.13,3,3,0,0,1,.2-1.39l.3-.88a2.68,2.68,0,0,0-.19-2.71l-.37-.43-.72.63.21.23a1.63,1.63,0,0,1,.06,1.64l-.23.65a5.23,5.23,0,0,0-.33,1.36,2.37,2.37,0,0,0,.09.82,4.2,4.2,0,0,0-1.82-.13,3.63,3.63,0,0,0-3.05,3.46,3.7,3.7,0,0,0,3.51,4l.3,0a3.58,3.58,0,0,0,2.43-.91,3.64,3.64,0,0,0,1.09-1.69,4.1,4.1,0,0,0,.1-1.82,2.82,2.82,0,0,0,.81.2A5.1,5.1,0,0,0,94,25.48l.68-.15c.77-.16,1.32-.07,1.62.28l.2.23.72-.63Zm-7,3.3a2.48,2.48,0,0,1-1.88.63,2.67,2.67,0,0,1-2.46-2.8,2.57,2.57,0,0,1,2.55-2.43h.21a2.57,2.57,0,0,1,1.81.91,2.61,2.61,0,0,1-.23,3.69Z"/><path class="cls-1" d="M108,49.63a17.54,17.54,0,0,1-1.54-4.39,17.71,17.71,0,0,1-.51-4.62v-.2l-1,.23v.11a12.43,12.43,0,0,0,.06,2.12l-6.85,1.55a14.41,14.41,0,0,0-.87-1.92l0-.11-1,.23.09.18a19.37,19.37,0,0,1,2,9V52l1-.23v-.12a17.91,17.91,0,0,0,0-2.11L106.13,48a12.4,12.4,0,0,0,.87,1.94l0,.1,1-.23Zm-8.84-1.22c-.06-.44-.15-.93-.27-1.45s-.25-1-.39-1.42L105.14,44c.07.41.17.89.29,1.44s.25,1,.36,1.43Z"/><path class="cls-1" d="M106.49,68.77a2.88,2.88,0,0,0-1.61-2.62,2.3,2.3,0,0,0-3,3,2.21,2.21,0,0,0,1.24,1.25,2.29,2.29,0,0,0,1.3.17,2.43,2.43,0,0,0,.94-.41,7.59,7.59,0,0,1-.59,2.22,12.21,12.21,0,0,1-3.06,4.23l-.18.17,1.17.48.07-.07a11.48,11.48,0,0,0,2.92-4A9.19,9.19,0,0,0,106.49,68.77Zm-1.16,0a1.42,1.42,0,0,1-.78.78,1.42,1.42,0,0,1-1.86-1.87,1.31,1.31,0,0,1,.77-.76,1.43,1.43,0,0,1,1.11,0,1.32,1.32,0,0,1,.76.76A1.38,1.38,0,0,1,105.33,68.82Zm-3.44,3.86a2.26,2.26,0,0,0-1.25-1.25,2.17,2.17,0,0,0-1.29-.16,2.41,2.41,0,0,0-.94.4A7.67,7.67,0,0,1,99,69.45a12.3,12.3,0,0,1,3-4.23l.18-.17-1.17-.48-.07.07a11.77,11.77,0,0,0-2.91,4,9.21,9.21,0,0,0-.8,4.44,2.87,2.87,0,0,0,1.6,2.62,2.21,2.21,0,0,0,.74.17,2.16,2.16,0,0,0,1-.17,2.24,2.24,0,0,0,1.25-1.24A2.29,2.29,0,0,0,101.89,72.68Zm-.81,1.44a1.43,1.43,0,0,1-1.88.76,1.34,1.34,0,0,1-.77-.76,1.38,1.38,0,0,1,0-1.09,1.36,1.36,0,0,1,.78-.78,1.48,1.48,0,0,1,.64-.12,1.19,1.19,0,0,1,.44.11,1.35,1.35,0,0,1,.78.77A1.43,1.43,0,0,1,101.08,74.12Z"/><path class="cls-1" d="M92.73,92A4.49,4.49,0,0,0,91,91.13a2.12,2.12,0,0,0,.31-.28,2.19,2.19,0,0,0,.6-1.68,2.38,2.38,0,0,0-4.75.18A2.21,2.21,0,0,0,87.92,91a4.44,4.44,0,0,0,1.68.78l.49.15a4.63,4.63,0,0,1,1.81,1,1.81,1.81,0,0,1,.66,1.36A2,2,0,0,1,92,95.65a2,2,0,0,1-1.5.72,2.23,2.23,0,0,1-1.58-.67,5.48,5.48,0,0,1-1.14-1.91l-.48-1.19a9.24,9.24,0,0,0-1.74-3.1A1.93,1.93,0,0,0,84.11,89a2,2,0,0,0-1.39.67,3.06,3.06,0,0,0-.67,2.12v.15h1v-.15a2.13,2.13,0,0,1,.39-1.37.81.81,0,0,1,.63-.29,1,1,0,0,1,.69.3,10,10,0,0,1,1.41,2.72l.36.87a13.23,13.23,0,0,0,.75,1.63,4.75,4.75,0,0,0,.8,1,3.07,3.07,0,0,0,2.32.91h.15a3.33,3.33,0,0,0,2.12-1.14,3.19,3.19,0,0,0,.92-2.21A2.72,2.72,0,0,0,92.73,92Zm-2.08-1.82a1.33,1.33,0,0,1-1,.45,1.4,1.4,0,0,1-1-.4,1.38,1.38,0,0,1-.46-1,1.31,1.31,0,0,1,.36-1,1.33,1.33,0,0,1,.86-.44h.12a1.4,1.4,0,0,1,1,.4,1.38,1.38,0,0,1,.46,1A1.33,1.33,0,0,1,90.65,90.22Z"/><path class="cls-1" d="M74.46,107a4,4,0,0,1-1.34-1.91l-2-6-1.1.36,1.7,5.17a6.72,6.72,0,0,1-.37,2.51,5.67,5.67,0,0,1-.83-1.73l-1.81-5.52-1.11.37,1.64,5A6.13,6.13,0,0,1,69,108a4.35,4.35,0,0,1-.74-1.47l-1.61-4.89a7,7,0,0,0-.38-1,6,6,0,0,1,1.38-1l.11-.06-.32-1-.16.08a6.31,6.31,0,0,0-1.58,1.11,4.3,4.3,0,0,0-.9-.84l-.07,0-1.33.44.28.18a3.55,3.55,0,0,1,1.26,1.19,6.8,6.8,0,0,0-.89,2.39,5.29,5.29,0,0,0,.21,2.43,5.53,5.53,0,0,0,1.83,2.59l.1.08.71-.57,0,0a4.82,4.82,0,0,0,.17-.9l.25.76a3.7,3.7,0,0,0,1.37,1.87l.08.06.86-.47,0-.06A5.59,5.59,0,0,0,70,107.3a3.65,3.65,0,0,0,1.08,1.18l.08.06.87-.48,0,0a5.6,5.6,0,0,0,.39-1.47,3.72,3.72,0,0,0,.94,1l.07,0,1.2-.4Zm-8.32-.45a4.31,4.31,0,0,1-.83-1.49,4.44,4.44,0,0,1-.22-1.8,5,5,0,0,1,.37-1.47l.92,2.79A6.52,6.52,0,0,1,66.14,106.58Z"/><path class="cls-1" d="M44,103l3.69,1.29-.38,1.1-2.21-.77a2.3,2.3,0,0,1,0,1.51,2.69,2.69,0,0,1-1.46,1.59,2.85,2.85,0,0,1-1.36.28,3.08,3.08,0,0,1-.82-.17,2.81,2.81,0,0,1-1.64-1.44,2.7,2.7,0,0,1-.15-2.15,2.26,2.26,0,0,1,.94-1.18l-2.2-.77.38-1.1,3.69,1.29-.34,1-.08,0a1.65,1.65,0,0,0-1.28,1.1,1.59,1.59,0,0,0,.09,1.28,1.63,1.63,0,0,0,1,.87,1.66,1.66,0,0,0,1.31-.07,1.61,1.61,0,0,0,.87-1,1.64,1.64,0,0,0-.32-1.65l0-.07Zm-4.37-4.21-.38,1.1,8.89,3.1.39-1.1Z"/><path class="cls-1" d="M28,91.61l-4.46,4.31A3.7,3.7,0,0,0,22.32,98l0,.31-.92-.94,0-.08A4.45,4.45,0,0,1,21.89,96a5.6,5.6,0,0,1-1.49.29h-.06l-.8-.55v-.09a3.28,3.28,0,0,1,.58-1.5,6.42,6.42,0,0,1-1.51.29h-.06l-.82-.58v-.1a3.77,3.77,0,0,1,1.15-2.09l3.8-3.66a9.53,9.53,0,0,0,.75-.8.94.94,0,0,0,.16-.46,1.49,1.49,0,0,0-.53-1l-.25-.27-.75.73L22,83.9l2.29.2-.73.7.43.45a2.16,2.16,0,0,1,.75,1.68,3,3,0,0,1-1,1.76L20,92.23a4.2,4.2,0,0,0-1,1.27,6.11,6.11,0,0,0,2.57-.9L25.42,89l.8.84L22,93.85a5.24,5.24,0,0,0-1.18,1.48,6.3,6.3,0,0,0,2.44-.77l3.91-3.78Z"/><path class="cls-1" d="M16.19,72.36l-.57,1-3.21-1.89-1.29,2.18-1-.58,1.29-2.19-4.25-2.5.33,2.9-1.15.11-.52-4.45L10,65.2l.46,1.06L7.74,67.38,12,69.88l1.29-2.2,1,.6L13,70.46Z"/><path class="cls-1" d="M15.87,44.48A2.18,2.18,0,0,0,16,42.73a2.29,2.29,0,0,0-1.18-1.34,2.12,2.12,0,0,0-1.69-.13,2.18,2.18,0,0,0-1.3,1.12A2.52,2.52,0,0,0,12,44.94c-.27-.07-.6-.18-1-.32l-.74-.26-1-.34a11.42,11.42,0,0,0-2.85-.67H6.32L6,44.61l0,0a7.69,7.69,0,0,0,1.88,2.6,9.65,9.65,0,0,0-2.18-.41,1.39,1.39,0,0,0-1.32.86l-.36.7.9.46L5,48.59A1,1,0,0,1,6,48a8.06,8.06,0,0,1,2,.41,13,13,0,0,1,2.17.79l.41.21.52-1-.54-.28a7.49,7.49,0,0,1-2-1.62,7.74,7.74,0,0,1-1.35-1.88A10.72,10.72,0,0,1,9,45.14l1.53.55c.74.26,1.2.42,1.44.47a4.43,4.43,0,0,0,.88.05,7.61,7.61,0,0,1,1.5,1.88,1.85,1.85,0,0,1-.28,1.4l-.24.46.91.47.42-.82a2.48,2.48,0,0,0,.33-1.78,6.11,6.11,0,0,0-1.28-1.88A3,3,0,0,0,15.87,44.48ZM15,44.11a2.39,2.39,0,0,1-1.57,1.08c-.83-.92-1.08-1.72-.75-2.38a1.16,1.16,0,0,1,.72-.6,1.21,1.21,0,0,1,.62,0,1.66,1.66,0,0,1,.35.13,1.34,1.34,0,0,1,.71.79A1.26,1.26,0,0,1,15,44.11Z"/><path class="cls-1" d="M20.66,26.11,19,25.41l-.66,2.85-1-.23.93-4,1.62.69.66-2.87,1.62.7.66-2.88,2.7,1.17-.39.95-1.59-.69-.67,2.88-1.62-.7Zm5.24-3.3-.66,2.87L23.62,25,23,27.85l-1.63-.69-.92,4.05,1,.22.66-2.85,1.62.69.65-2.86,1.62.7.66-2.88,1.59.69.4-1Z"/><path class="cls-1" d="M48.58,16.15l-1.31.35-.06,0a7.51,7.51,0,0,1-1.84-1.72,6,6,0,0,1-1-1.91L43,13.2A6,6,0,0,1,43,15.37a7.93,7.93,0,0,1-.73,2.41l0,.07L41,18.2l.17-.32a6,6,0,0,0,.71-4.38L40.1,14l-.25-.92,1.73-.46a6.35,6.35,0,0,0-2.7-3.09l-.3-.19L39.83,9l.06,0a6.8,6.8,0,0,1,2.8,3.28l1.42-.38a6.85,6.85,0,0,1,.79-4.25l0-.06,1.25-.34L46,7.58a6.43,6.43,0,0,0-.8,4L47,11.14l.25.92-1.74.47A6.08,6.08,0,0,0,48.27,16Z"/></g></g></svg>