<svg xmlns="http://www.w3.org/2000/svg" viewBox="0 0 67.25 67.88"><title>Asset 488</title><g id="Layer_2" data-name="Layer 2"><g id="Layer_1-2" data-name="Layer 1"><path d="M10.63,10.84l3.21,2.7,3.39,2.82-.17.2c-.86,1.09-1.76,2.14-2.57,3.26a23.48,23.48,0,0,0-1.43,2.31,17.29,17.29,0,0,0-1.32,2.43,46.14,46.14,0,0,0-1.66,5c-.57,2.13-1.18,4.29-.7,6.56.22,1,.23,2.07.38,3.09a16.41,16.41,0,0,0,1.84,4.53,32.48,32.48,0,0,0,1.83,3.19A11.37,11.37,0,0,0,17,51c.22.14.55.36.56.55,0,.71.55,1,1,1.4a18.06,18.06,0,0,0,3.9,2.52,26.5,26.5,0,0,0,5.36,2,12.7,12.7,0,0,0,3.62.65c1.76,0,3.53-.08,5.3,0,2.54.11,4.73-.89,6.9-2,1.15-.58,2.23-1.29,3.35-2a17.79,17.79,0,0,0,5.4-4.78c.35-.47.84-.84,1.14-1.33a34.88,34.88,0,0,0,1.88-3.45,34.5,34.5,0,0,0,1.86-4.76c.44-1.59.56-3.27.85-4.9A12.21,12.21,0,0,0,58,30.5c-.32-1.64-.73-3.26-1.12-4.89-.11-.43-.27-.85-.41-1.27a13.08,13.08,0,0,0-2.2-4.26C53,18.52,51.58,17,50.14,15.58a14.7,14.7,0,0,0-2.74-2.17,33.49,33.49,0,0,0-3.88-1.95,36.61,36.61,0,0,0-3.71-1.38c-.74-.24-1.54-.28-2.29-.47a18.5,18.5,0,0,0-6.38-.2,21.7,21.7,0,0,0-4.73,1.18,18.65,18.65,0,0,0-5.35,2.63,18.81,18.81,0,0,0-3.52,2.84,1.85,1.85,0,0,0-.17-.32c-.94-1-1.86-2.08-2.84-3.06s-1.89-1.7-2.84-2.55a2.66,2.66,0,0,0-.38-.28c-.27-.13-.5-.16-.7.16S10.28,10.56,10.63,10.84Zm4,9.49.69,2.46-2.25.09Zm3.6.52.89-1.05,8.15,8.81-.05.05ZM25,27.43l-.09.1-7.24-5.59c.28-.7.37-.71.88-.27.73.62,1.46,1.22,2.18,1.85,1.4,1.24,2.79,2.5,4.19,3.76C24.91,27.31,24.92,27.38,25,27.43ZM28.4,39.66l.13.12c-.44.53-.85,1.08-1.32,1.57-1.39,1.41-2.83,2.78-4.2,4.21-.64.67-1.17,1.44-1.78,2.13a11.75,11.75,0,0,1-1.11.93l-.5-.56Zm-9.08,8-.64-.74,9.22-7.84.17.17Zm8.82-20-7.31-9.5,1.45-1,6,10.4Zm-.39,6.87-.15,0-.27-1.38C27.85,33.31,27.89,33.45,27.75,34.53Zm-.17,4.18.08.09-9.25,7.8-.61-.71A104.15,104.15,0,0,1,27.58,38.71Zm-.64-1.06.16.15a1.8,1.8,0,0,1-.38.35c-.83.46-1.68.86-2.48,1.35-1.93,1.18-3.83,2.4-5.74,3.6l-1.81,1.11-.41-.65Zm-11,5.21c-.12-.09-.17-.27-.25-.4s-.13-.42.16-.56c.94-.45,1.86-1,2.83-1.36,2-.83,4.1-1.58,6.16-2.37h.13l0,.1c-1.19.62-2.38,1.23-3.57,1.87-.8.44-1.59.92-2.38,1.37s-1.78,1-2.68,1.47C16.22,43,16,43,15.89,42.86ZM25.94,39l.08.1-8.5,6.39L17,44.66C19.8,42.51,22.92,40.8,25.94,39Zm-5,.23c-1.3.51-2.58,1.09-3.86,1.65-.51.22-1,.47-1.53.69a.37.37,0,0,1-.33-.1,3.59,3.59,0,0,1-.3-.71c3.53-1.28,7-2.55,10.51-3.8a3.88,3.88,0,0,1,1-.14s.09.07.26.22C24.74,37.74,22.83,38.43,21,39.18Zm3.25-7.74v0l-10-2.54.25-.94Zm-9.57-3.87.43-1.16,11.09,5.05-.07.11Zm11.21,4.75,0,.14a11.83,11.83,0,0,1-1.8-.27,68.22,68.22,0,0,0-7.62-1.45c-.83-.15-1.65-.39-2.5-.59l.1-.81ZM14,30.75c1.51.28,3,.58,4.55.85,1.06.18,2.15.29,3.21.49a28.63,28.63,0,0,1,2.82.75l-10.7-1.13Zm.25,1.33c1,.17,2.11.32,3.16.46s1.87.21,2.8.31l3.68.42,1,.11v.15l-11.38-.07a5.68,5.68,0,0,1,0-1C13.61,32.07,13.89,32,14.21,32.08Zm1.44,1.8a32.25,32.25,0,0,0,4.61.07c1.08-.05,2.16,0,3.24,0l1.43,0c.83,0,.83,0,1,.9l-12.45.24c0-.35-.05-.79-.09-1.31C14.17,33.85,14.92,33.81,15.65,33.88Zm9.1,1.52v.11l-1,.2c-1.61.28-3.21.6-4.83.84-1.41.21-2.82.35-4.24.51a2.09,2.09,0,0,1-.66,0,.48.48,0,0,1-.33-.25c-.08-.37-.09-.75-.14-1.19Zm.92.61v0L23,36.65c-1.22.28-2.44.58-3.66.85-.93.21-1.87.4-2.81.59-.59.12-1.19.21-1.78.35-.39.09-.61,0-.64-.42a.76.76,0,0,0-.12-.26ZM14.82,38.92c.83-.21,1.68-.37,2.52-.56,1.45-.33,2.89-.67,4.34-1,.56-.13,1.12-.22,1.68-.33l0,.07-8.66,3a3.48,3.48,0,0,1-.34-.87C14.37,39.19,14.64,39,14.82,38.92Zm1.27-14.46.51-1a107.92,107.92,0,0,1,9.8,7Zm9.36,6.19L15.25,26l.6-1.11C19,26.84,22.39,28.5,25.45,30.65ZM12.54,23.88l.16,0,1.19,2-2.33.3C11.91,25.37,12.22,24.63,12.54,23.88Zm-1.27,3.19.18,0,1.32,1.68-2.18,1.15-.15-.13C10.71,28.89,11,28,11.27,27.07Zm-1.6,6.76c.14-.92.28-1.83.43-2.76a3.13,3.13,0,0,1,1.75,1.48l-2,1.36Zm.15,1.46,2.33,1.28-2.1,1.49Zm.52,4.57a3.57,3.57,0,0,1-.1-.94l3.15,1.8L11.7,43.1C11.2,41.92,10.74,40.9,10.34,39.86Zm3.15,6.5L12.15,44h2.47l-1,2.32Zm.48.77,2.85.17-.92,2.2A12.44,12.44,0,0,1,14,47.13ZM18.3,51.6l-1.88-1.54,2.41-.63c-.11.49-.18.83-.27,1.16S18.4,51.24,18.3,51.6ZM20.81,54l-2-1.43,2.18-1C20.93,52.41,20.87,53.15,20.81,54Zm-.16-4.88a35.33,35.33,0,0,1,6.53-7.06l-6.13,7.49Zm.91,1.15a.77.77,0,0,1,0-.63c.77-1,1.59-2,2.38-3,.56-.72,1.08-1.47,1.66-2.17S27,42.81,27.74,42c.42-.48.85-.94,1.29-1.4.08-.09.23-.11.34-.16,0,.14,0,.31-.07.41-.41.55-.85,1.07-1.27,1.61-1.23,1.59-2.46,3.18-3.67,4.78-.65.85-1.3,1.72-1.93,2.59a5.53,5.53,0,0,0-.38.77C21.86,50.49,21.62,50.43,21.56,50.28ZM28.85,31l-.17,0,.15-2.55H29C29,29.23,28.9,30.09,28.85,31Zm.43,7a2,2,0,0,1-.45-1.69l.14,0Zm.16,3.19.06,0L22.9,51.2l-.63-.37C24.69,47.56,27.06,44.33,29.44,41.1ZM21.65,54.54c.73-.48,1.3-.87,2-1.31.13.83.25,1.59.38,2.47Zm2.1-2.74a3.74,3.74,0,0,0-.4-.39,82.31,82.31,0,0,1,7-10.34c0,.15,0,.2,0,.23-.83,1.3-1.69,2.59-2.49,3.91-.68,1.11-1.3,2.27-1.93,3.41s-1.14,2.09-1.71,3.14C24.07,52,23.93,52,23.75,51.8Zm6.86-10.25.15.08c-.5.9-1,1.83-1.49,2.69a25.89,25.89,0,0,0-2.69,5.1c-.39,1.06-.95,2.06-1.45,3.12l-.64-.32A115.58,115.58,0,0,1,30.61,41.55ZM30.78,38c.11.4.22.81.34,1.22C30.64,39.25,30.44,38.66,30.78,38ZM30,21.19c-.42-1.65-.93-3.27-1.4-4.91-.2-.69-.39-1.38-.59-2.09.49-.1.94-.18,1.39-.29s.45.06.49.34c.25,1.46.51,2.92.73,4.39.2,1.29.37,2.58.52,3.88s.25,2.41.35,3.61c0,.12-.1.25-.15.38-.07-.11-.18-.21-.2-.32C30.72,24.52,30.38,22.84,30,21.19Zm.84,21.36c-1.08,3.64-2.87,7-4.13,10.65l-1.11-.46C27,49.22,28.46,45.64,30.8,42.55ZM24.66,56,27,54.64c.27.79.51,1.51.79,2.35Zm3.26-2.39c-.2-.08-.43-.11-.64-.18a1,1,0,0,1-.25-.17,3.82,3.82,0,0,0,.27-.45c.62-1.63,1.23-3.27,1.86-4.9q1.13-2.91,2.27-5.8c0-.06,0-.13.07-.18.13-.21.22-.54.55-.38.08,0,.06.39,0,.57-.91,2.92-1.84,5.84-2.76,8.77-.24.76-.45,1.52-.66,2.29C28.53,53.58,28.36,53.79,27.92,53.62Zm5.87-23.29-.17-.17a3.87,3.87,0,0,1,.41-.4s.14.06.21.09Zm0,11.74c0,4.15-.05,8.3-.07,12.49l-.71,0c0-.57-.07-1.13-.06-1.7,0-1.16.07-2.32.11-3.48,0-.84,0-1.68.09-2.52.08-1.19.19-2.38.31-3.56A4.52,4.52,0,0,1,33.81,42.07ZM34,14.62c-.08,2-.09,4-.15,5.94-.06,1.82-.16,3.64-.24,5.45a1.35,1.35,0,0,1-.09.29L33,26.22c0-4.2-.05-8.39-.07-12.61C34.06,13.52,34.06,13.57,34,14.62Zm-.73,15.56-.49,1.05-.19-.08C32.77,30.84,32.4,30.25,33.28,30.18ZM33,31.83l.1.1-.61.69C32.3,32,32.76,32,33,31.83Zm-.77,5.56.07-.91h.19C32.36,36.77,33,37.14,32.22,37.39Zm.19-11.15h-.19c-.07-1.33-.1-2.67-.21-4-.14-1.54-.34-3.08-.5-4.62-.13-1.17-.25-2.35-.35-3.52,0-.32.06-.58.48-.52a7.67,7.67,0,0,0,.85,0C32.46,17.85,32.44,22,32.41,26.24Zm-1.07,20c-.44,2.66-.88,5.32-1.33,8l-1.17-.4c.78-2.56,1.56-5.09,2.34-7.63ZM28.88,57.28l-.1-.17,1.4-1.57,1,2.17Zm2.19-3-.67-.07c.92-4,1-8,2.4-11.86C32,46.29,31.59,50.26,31.07,54.29Zm1.51-8.22.17,0c-.08,2.81-.16,5.63-.23,8.51l-1-.22C31.89,51.6,32.23,48.84,32.58,46.07ZM32,57.76l-.1-.09L33.47,56l1.21,1.57Zm2.44-3.18c-.07,0-.22-.2-.22-.31q0-1.7,0-3.39c0-1.34,0-2.67,0-4s.07-2.49.11-3.73c0-.41,0-.83,0-1.24s.12-.4.35-.38c.38,4.29.77,8.58,1.15,12.92C35.44,54.5,35,54.56,34.47,54.58ZM36.35,32c.35.35.32.4-.5.72Zm-.28-5.77c.34-.91.68-1.81,1-2.71.18-.5.33-1,.51-1.52.37-1,.76-1.95,1.13-2.93s.72-2,1.1-3.05a11.21,11.21,0,0,1,.52-1.11.28.28,0,0,1,.25-.14c.46.12.92.26,1.37.39L36.2,26.27Zm2.37,8.51.22,0-.21,2.6h-.13A11.4,11.4,0,0,1,38.44,34.72Zm0-2.19c.53.25.19.63.22,1A.67.67,0,0,1,38.44,32.53Zm.35,7.15a13.52,13.52,0,0,1,1.35,1.59,62.54,62.54,0,0,0,4.08,5.36c.89,1.15,1.71,2.34,2.6,3.56l-.85.5q-3.67-5.46-7.35-10.87Zm1,.53.07-.08a1.37,1.37,0,0,1,.2.13,36.3,36.3,0,0,1,3.64,3.9c.84,1,1.71,2.06,2.57,3.09l1.55,1.93-.64.69ZM39.51,39a2,2,0,0,1,.12-.3c.87.78,1.7,1.48,2.47,2.24,1,1,2,2.06,3,3.06s2,1.88,2.94,2.82l1.06,1-1,1A94,94,0,0,0,39.51,39Zm9.27,7.78c-.9-.76-1.74-1.59-2.6-2.39-1-1-2.11-1.93-3.14-2.93-.39-.38-.7-.85-1.1-1.23s-1.12-1-1.69-1.48c-.07-.06-.17-.1-.22-.17a.69.69,0,0,1,0-.25c.08,0,.2,0,.25,0,2.06,1.69,4.1,3.4,6.16,5.09,1,.84,2.11,1.65,3.17,2.47.19.15.37.3.58.45C49.6,47.45,49.58,47.48,48.78,46.8ZM40.11,32c.49.54.57,1,.26,1.45Zm.59,6.15.08-.11L51,45.17l-.58.83Zm-.08-.7c.71,0,9.93,5.39,11,6.4l-.4.82Zm9.24,4.67c-2.11-1.26-4.2-2.55-6.31-3.81-.82-.49-1.66-.93-2.49-1.4l0-.13,11.17,5.33-.39.94A4.72,4.72,0,0,1,49.86,42.16Zm-8.1-5.54.07-.11c1,.43,2.07.88,3.12,1.29,1.67.66,3.36,1.29,5,1.94.67.26,1.32.57,2,.85s.71.31.45,1.13ZM41.52,36v-.14a1.73,1.73,0,0,1,.45,0l5.89,1.6c.72.2,1.43.44,2.15.65l3.15.91-.46,1.34Zm.32-.74a104.14,104.14,0,0,1,11.69,2.34l-.25,1C49.47,37.43,45.61,36.49,41.84,35.25Zm.06-.57s-.07-.12-.15-.26c4.06.35,8,.74,12,1.34l-.17,1.11ZM42,34v-.19h2.18l5.6.05c1.23,0,2.46,0,3.69,0,.39,0,.57.11.46.53-.06.26-.1.53-.15.82Zm-.16-.65,0-.48,12.26-1.33V33.4ZM53.55,31.1c-1.24.16-2.49.32-3.74.44-1,.1-2,.13-3,.23-1.68.18-3.35.4-5,.6-.26-.34-.17-.52.16-.59.56-.14,1.11-.27,1.67-.39,1.45-.31,2.9-.6,4.35-.94,1.92-.46,3.83-1,5.83-1.47.07.6.16,1.21.18,1.83C54,30.9,53.72,31.08,53.55,31.1Zm-12.14.16c1.35-.37,2.69-.67,4-1.11,2-.66,3.86-1.41,5.79-2.12l1.71-.62c.35-.14.51,0,.57.32a6,6,0,0,0,.15.61C52.51,29,41.82,31.58,41.41,31.26Zm.25-.59,11.28-4.48.27.63A83.66,83.66,0,0,1,41.66,30.67Zm.08-.61,5.16-2.6,5.35-2.73.45.76C52.13,26.05,42.77,29.9,41.74,30.06ZM40.61,30l-.09-.14c.82-.45,1.65-.9,2.46-1.36,1.67-.91,3.32-1.84,5-2.75,1.12-.61,2.25-1.2,3.38-1.8.39-.21.48.14.73.4C48.19,26.15,44.56,28.4,40.61,30Zm10.16-6.35c-1.34.75-2.69,1.47-4,2.21s-2.88,1.64-4.33,2.45c-.59.33-1.19.64-1.58.85L50.1,22.2c.24.29.55.64.82,1C51,23.29,50.87,23.56,50.77,23.62Zm-1.45-1.56c-1.79,1.45-3.57,2.92-5.4,4.32-1.2.91-2.49,1.7-3.77,2.5l8.81-8a4.51,4.51,0,0,1,.42.32C49.78,21.59,49.78,21.7,49.32,22.06Zm-2.23-.16C46,22.93,44.93,24,43.82,25c-1.34,1.19-2.71,2.35-4.08,3.51-.11.09-.31.06-.47.09a1.56,1.56,0,0,1,.2-.41c1.25-1.23,2.54-2.42,3.76-3.68C44.64,23,46,21.5,47.35,20c.41-.45.4-.45.81,0l.44.46Zm-8,6.15-.17-.14,1-1.16c1.23-1.43,2.45-2.86,3.68-4.28.78-.9,1.57-1.79,2.36-2.68.18-.2.31-.44.5-.63.46-.48.47-.47,1,.14Zm6.23-8.28c-2.11,2.45-4.24,4.9-6.36,7.34a6,6,0,0,1-.39.49c-.05,0-.18,0-.27.07s-.09-.25,0-.31c.28-.39.59-.75.88-1.14l2.94-3.89q1.59-2.1,3.19-4.19a5,5,0,0,1,.46-.48l.78.66C46.12,18.82,45.74,19.31,45.34,19.77ZM45.57,51l-1.31.91a1.41,1.41,0,0,1-.21-.23c-.74-1.36-1.49-2.71-2.22-4.08s-1.56-3-2.39-4.51c-.43-.78-1-1.51-1.45-2.26-.33-.49-.34-.48.22-.87Zm-3.19,1.9a3.81,3.81,0,0,0-.44.15c-.36.18-.43.08-.53-.33a17.78,17.78,0,0,0-.77-1.94c-.31-.81-.57-1.63-.88-2.44-.58-1.52-1.19-3-1.78-4.55-.35-.91-.69-1.83-1-2.75l.12,0C38.6,43.37,42.39,51.82,42.38,52.92Zm-1.3.38-1.17.27Q38.31,47.8,36.69,42l.2-.06C38.28,45.72,39.66,49.48,41.08,53.3Zm-2.8.61-1,.47c-.45-3.82-.89-7.53-1.33-11.24l.23,0A70,70,0,0,0,38.28,53.91ZM36.15,48.2c.2,1.76.38,3.52.57,5.28a5,5,0,0,1,.08.66c0,.11-.13.22-.2.33l-.28-.09Q35.74,48,35.16,41.69l.19,0c.09.62.2,1.24.27,1.87C35.81,45.09,36,46.65,36.15,48.2ZM34.9,32.15c.09.26.28.54-.27.83l.1-.85ZM36.33,13.9l1.36.21a82,82,0,0,1-2.86,12.12C34.72,25.8,36,14.61,36.33,13.9Zm2.15,43.67c-.75,0-1.5.06-2.26,0a.26.26,0,0,1-.22-.43c.26-.42.52-.83.81-1.31l1.72,1.55ZM36.83,44.2l2.59,9.49-.63.24A66.81,66.81,0,0,1,36.83,44.2Zm2.44,13.13c.38-.89.71-1.67,1-2.5l2.16,1.29A8.74,8.74,0,0,1,39.27,57.33ZM43,52.63c-1.46-3.3-2.91-6.56-4.36-9.82l.06,0c.41.75.83,1.51,1.23,2.27s.84,1.62,1.25,2.43.78,1.61,1.21,2.39.9,1.53,1.38,2.35Zm.82,2.9-.14-.09c.14-.63.28-1.27.43-2l1.9.77Zm2.91-1.73c.1-.73.18-1.32.27-2l2.14.4Zm3-2.13c-.12-.61-.23-1.13-.31-1.65,0-.12.13-.36.19-.36.59,0,1.18.09,1.89.15C50.86,50.47,50.31,51.06,49.72,51.67ZM52.2,49c-.25-.9-.47-1.66-.7-2.5l2.24,0,.12.12Zm2.22-3.34c-.39-.81-.74-1.52-1.13-2.3l2.5-.54C55.31,43.8,54.89,44.67,54.42,45.63Zm1.78-3.76-1.66-2.4,2.52-.56Zm1-3.74-1.79-2,2.13-1.3.12.09C57.53,36,57.39,37,57.22,38.13ZM57.87,34l-.16,0-2-1.81,1.82-1.46.2.07ZM57.53,30,55,28.46l1.62-1.93Zm-1-4.15-2.39-.37,0-.18,1.57-1.8Zm-3.23-6.28a13.31,13.31,0,0,1,1.92,3l-2.5.14c-.26,0-.35-.12-.28-.36.16-.58.32-1.17.5-1.74C53,20.24,53.11,19.94,53.26,19.54Zm-2.58-2.86,2,2.17-2.78.73C50.15,18.57,50.4,17.68,50.68,16.68ZM50.07,16l0,.14c-1,.25-1.79.89-2.94.87.23-1,.43-1.86.65-2.86ZM47.42,14l-2,1.4-.48-2.69A10.48,10.48,0,0,1,47.42,14Zm-2.57,3.89c-.79,1.08-1.6,2.16-2.4,3.24-1,1.36-1.94,2.73-3,4.08-.54.73-1.16,1.41-1.74,2.11l-.12-.05c1.9-3.75,4.5-7,6.67-10.65a3.08,3.08,0,0,1,.33.18C45.24,17.15,45.27,17.27,44.85,17.85Zm-2.23-6.28,1.83.77-1.64,1.57-.32-2.24ZM44,16.26,37.09,27.07l-.7-.28,6-11.41Zm-2-4.84-2.1,1.66L38.57,10.3A10.74,10.74,0,0,1,42,11.42Zm-3.73,2.9a.6.6,0,0,1,.46-.19c.38.09.75.25,1.19.4q-2.21,6-4.4,11.93l-.15,0c.2-.79.42-1.58.61-2.38.38-1.56.77-3.12,1.13-4.69s.66-3,1-4.54A1.1,1.1,0,0,1,38.23,14.32ZM38,10.14l-1.8,2.18H36c-.29-.82-.59-1.64-.93-2.62Zm-2.83,3.62c.28,0,.54.12.49.5-.27,2.09-.54,4.18-.79,6.27-.09.81-.08,1.63-.17,2.43-.12,1.09-.3,2.17-.46,3.26h-.12c0-.46,0-.92,0-1.38.07-1.54.17-3.08.21-4.63s0-2.95,0-4.43A13.71,13.71,0,0,1,34.57,14C34.63,13.58,35,13.73,35.19,13.76ZM31,9.87l3.59-.14-1.87,2.51-1.78-2.18Zm-.62,3.8h.25l.87,7.44-.13,0c-.13-.89-.24-1.78-.38-2.67-.22-1.45-.47-2.89-.69-4.34A1.48,1.48,0,0,1,30.37,13.67ZM30.1,10l-.88,2.39L27.12,11v-.19Zm-3.65,4.63c1-.48,1-.5,1.31.54q1,3.48,2,7c.28,1,.47,2.08.68,3.12a3.63,3.63,0,0,1,0,.66c-.39-.24-3.79-10-4-11.28ZM30,26.79l-.13.05c-1.74-3.74-2.78-7.78-5-11.38l1-.55C27.23,18.9,28.6,22.84,30,26.79ZM26.22,11.2l.13.09-.45,1.83L24.11,12ZM24.55,16a13.5,13.5,0,0,1,.91,1.56c.52,1.09,1,2.18,1.49,3.3.83,2.06,1.61,4.13,2.42,6.2-.55.33-.59.34-.92-.21-.49-.81-.93-1.63-1.4-2.45S26,22.57,25.47,21.66c-.85-1.45-1.71-2.89-2.56-4.33-.07-.12-.16-.24-.29-.43.5-.36,1-.71,1.47-1A.49.49,0,0,1,24.55,16Zm-1.23-3.66.08.1c-.21.91-.42,1.83-.65,2.79l-2.13-1,0-.18Zm-3,6.28c.81.63,7,8.62,7,9.23-.37-.35-.77-.67-1.11-1l-6.48-7.08c-.18-.19-.19-.33,0-.52A8.21,8.21,0,0,0,20.34,18.61Zm-.66-3.95.19.07c0,.71.1,1.43.11,2.14,0,.07-.23.21-.36.21-.69,0-1.39-.07-2.08-.12l-.1-.1Zm.1,9.46c.8.62,1.59,1.26,2.4,1.88s1.62,1.28,2.47,1.87,2.08,1.81,2,2.07L16.89,23l.39-.75C18.14,22.9,19,23.5,19.78,24.12Zm-4.6-4.38,0-.15,1.46-1.8.67,2Zm-10,27c.46-.2,1-.3,1.43-.51,1.25-.55,2.48-1.13,3.73-1.69.6-.27.67-.47.3-1.13l-1.37.44L5,45.06a21.8,21.8,0,0,1-2.2.61c-.41.06-.58.25-.53.56a3.64,3.64,0,0,0,.41,1,.59.59,0,0,0,.91.25C4.11,47.24,4.65,47,5.21,46.72ZM61.09,20.85c-1.19.73-2.39,1.46-3.6,2.16-.41.23-.51.42-.28.88s.42.49.84.27q2.25-1.21,4.51-2.4c.68-.35,1.38-.66,2.06-1,.13-.07.29-.26.28-.37a3,3,0,0,0-.31-.89c-.1-.19-.32-.3-.53-.5l-1,.65C62.41,20,61.76,20.45,61.09,20.85ZM19.53,10.26c.44.61.82,1.26,1.26,1.87.08.12.34.25.44.21a3.62,3.62,0,0,0,.65-.51c-.14-.26-.22-.43-.32-.58a20.34,20.34,0,0,1-1.31-1.92C19.58,8.08,19,6.78,18.41,5.49c-.4-.82-.48-.87-1.34-.72A.76.76,0,0,0,16.52,6C17.53,7.44,18.54,8.85,19.53,10.26Zm-14.2,6.6Q7.67,18.23,10,19.53c.71.39,1.44.76,2.17,1.1.4.19.44-.35.73-.43-.07-.15-.1-.36-.22-.44-.87-.59-1.75-1.15-2.64-1.71Q8,16.79,6,15.56c-.2-.12-.54-.25-.67-.16a3.5,3.5,0,0,0-.67.84A4.56,4.56,0,0,0,5.33,16.86Zm2.92-4c1.09.66,2.16,1.35,3.24,2s2.34,1.48,3.52,2.21a4,4,0,0,0,.48.19c.15-.12.39-.22.47-.4s-.09-.41-.35-.48a.92.92,0,0,1-.33-.19c-1.53-1.18-3.07-2.35-4.58-3.54-.44-.34-.81-.75-1.24-1.09a1.1,1.1,0,0,0-.66-.33.91.91,0,0,0-.9.74A.77.77,0,0,0,8.25,12.82ZM65.67,24.71q-1.12.45-2.25.87l-3.65,1.36c-.48.19-1,.4-1.42.6l.06.13a2.67,2.67,0,0,1,.08.48c0,.33.15.38.43.26a5.5,5.5,0,0,1,.81-.27c.73-.21,1.47-.4,2.21-.59,1.28-.33,2.56-.67,3.85-1a.8.8,0,0,0,.69-1,4.73,4.73,0,0,0-.25-.62A.37.37,0,0,0,65.67,24.71ZM43.34,10c.29.38.74.27.92-.22.34-.91.67-1.83,1-2.75.51-1.49,1-3,1.51-4.49,0-.09,0-.27,0-.3-.38-.22-.77-.41-1.27-.67a3.27,3.27,0,0,0-.47.76c-.23.83-.4,1.67-.6,2.5L43.27,9.65A.57.57,0,0,0,43.34,10ZM19.53,57.93c.47-.71.94-1.4,1.38-2.13.26-.41.08-.67-.54-.67a2,2,0,0,0-.46.35c-.56.7-1.11,1.4-1.64,2.12-1,1.41-2.05,2.85-3.11,4.24-.38.51.15.6.31.84A1,1,0,0,0,16,63s.15-.1.2-.17c.36-.47.72-.93,1.05-1.42C18,60.23,18.78,59.08,19.53,57.93ZM58.61,25.16a1.81,1.81,0,0,0-.57.41A.54.54,0,0,0,58,26c0,.12.22.19.33.26A7.83,7.83,0,0,0,59.55,26c2-.77,4-1.57,6.06-2.37.51-.21.6-.44.42-.89a.78.78,0,0,0-1-.52c-.43.16-.84.38-1.25.57C62,23.6,60.32,24.37,58.61,25.16ZM41,63c-.22-1.13-.45-2.26-.7-3.39a3.4,3.4,0,0,0-.36-1,.59.59,0,0,0-.48-.22c-.22,0-.47.12-.42.46.12.82.22,1.64.35,2.46s.3,1.94.45,2.91h-.07L40,66.58c.06.48.33.64.78.44a1.19,1.19,0,0,0,.69-1.27C41.3,64.83,41.14,63.91,41,63ZM66.54,30c-1.13.21-2.26.4-3.39.62-1.42.28-2.83.59-4.26.89.16.88.16.88.94.77H60l3-.18c1-.07,2.07-.24,3.1-.23s1.23-.67,1.18-1.39C67.18,30,67,29.89,66.54,30ZM28.45,62c.25-.95.54-1.89.8-2.84a.47.47,0,0,0-.12-.42c-.53-.36-.82-.23-1,.42s-.45,1.59-.69,2.38c-.11.35-.25.69-.37,1-.37,1.17-.67,2.37-1.13,3.5s0,1,.9,1.19c.3,0,.51-.21.56-.59a4.53,4.53,0,0,1,.05-.53c.23-.86.49-1.71.71-2.57C28.27,63,28.32,62.49,28.45,62ZM6.58,14.87c1,.59,2.07,1.17,3.11,1.74,1.32.72,2.65,1.42,4,2.12.2.11.48.32.63-.05.09-.22.45-.59-.18-.65-.09,0-.17-.1-.24-.16l-2.07-1.38c-1.37-.92-2.75-1.84-4.13-2.74a7.56,7.56,0,0,0-.77-.4c-.25.17-.62.28-.68.48A.84.84,0,0,0,6.58,14.87ZM27,60.31c.22-.61.43-1.22.65-1.88a2.27,2.27,0,0,0-.21-.25c-.11-.11-.27-.32-.34-.3a.67.67,0,0,0-.38.36c-.29.65-.53,1.33-.8,2-.4,1-.8,2-1.19,3.06s-.72,1.84-1.06,2.77c-.11.31.11.89.31,1A.87.87,0,0,0,25,66.47c.18-.54.33-1.09.48-1.65s.33-1.29.54-1.93C26.34,62,26.68,61.17,27,60.31Zm-17.82-6c.87-.72,1.75-1.42,2.61-2.15s1.7-1.48,2.53-2.24a.71.71,0,0,0,.23-.56c-.07-.18-.33-.29-.51-.43a3.44,3.44,0,0,0-.72.36c-1.26,1-2.48,2.1-3.75,3.11-.61.49-1.32.86-2,1.32-.2.15-.5.42-.47.59a1.41,1.41,0,0,0,.49.81c.27.23.6.1.85-.16S8.92,54.51,9.17,54.31Zm8.69-.2c.14-.16.06-.9-.1-.9a1,1,0,0,0-.66.21Q14.42,56.17,11.77,59a.57.57,0,0,0,0,.55,8.92,8.92,0,0,0,1,.88c.57-.79,1.11-1.61,1.73-2.36C15.6,56.7,16.74,55.41,17.86,54.11ZM4.06,19.21c.74.36,1.49.69,2.23,1.06l4.88,2.48c.25.13.5.24.69-.11a.5.5,0,0,0-.19-.77c-.62-.37-1.24-.76-1.88-1.11-1.66-.91-3.33-1.81-5-2.7-.17-.09-.35-.16-.53-.24-.75,0-.94.37-.57,1.05A.91.91,0,0,0,4.06,19.21ZM3,21.55c1.12.47,2.24.92,3.35,1.4,1,.42,1.91.86,2.87,1.29a11.41,11.41,0,0,0,1.29.56c.5.16.57-.28.6-.6a.64.64,0,0,0-.33-.48c-.42-.21-.89-.33-1.32-.54L3.56,20.29A4.51,4.51,0,0,0,3,20.12c-.45.08-.66.2-.68.44A1.06,1.06,0,0,0,3,21.55Zm42.23-11a1.59,1.59,0,0,0,.36.48c.06,0,.32-.18.46-.31a.89.89,0,0,0,.16-.34c.52-1.32,1-2.64,1.57-3.94.4-.94.87-1.85,1.28-2.78.06-.13.1-.39,0-.44a2.62,2.62,0,0,0-1-.58c-.15,0-.48.38-.57.64-.66,1.94-1.29,3.89-1.91,5.84C45.46,9.6,45.37,10.05,45.24,10.6Zm19,33.49c-1.61-.72-3.23-1.41-4.86-2.1A6.07,6.07,0,0,0,58,41.52c-.2,0-.52.25-.68.47s.19.36.33.51.17.08.26.12c1.73.8,3.47,1.59,5.2,2.4.55.26,1.08.55,1.7.87a3.18,3.18,0,0,0,.34-1C65.15,44.41,64.66,44.26,64.28,44.09Zm-53,1.7c.15-.09.36-.35.33-.41a2.55,2.55,0,0,0-.5-.54c-.37.16-.64.25-.89.38-1,.57-2.05,1.17-3.09,1.71s-2,1-3,1.45c-.39.18-.72.66-.57.91.31.5.52.73,1.11.4q1.63-.91,3.24-1.86T11.28,45.79ZM52.16,14a13.57,13.57,0,0,0-1,1.35c-.08.11,0,.36.08.54a1,1,0,0,0,.44-.09,3.65,3.65,0,0,0,.57-.47c.93-.85,1.86-1.69,2.76-2.57.7-.68,1.33-1.43,2-2.09s.7-.59.32-1.26c-.08-.14-.27-.22-.44-.36a2.85,2.85,0,0,0-.68.43c-.53.56-1,1.16-1.54,1.74C53.82,12.16,53,13.08,52.16,14ZM32.35,59.36a.73.73,0,0,0-.15-.44.63.63,0,0,0-.45-.12.41.41,0,0,0-.27.27c-.05.7-.06,1.4-.1,2.1-.06,1.14-.13,2.29-.21,3.44-.06.89-.14,1.78-.21,2.67,0,.4.13.54.54.49a5.63,5.63,0,0,1,.92,0A7.92,7.92,0,0,0,32.5,67c0-1.34-.09-2.68-.12-4S32.36,60.56,32.35,59.36ZM46.82,11.09a.67.67,0,0,0,.36,1c.35.18.46-.19.58-.4.41-.68.76-1.38,1.18-2,.87-1.43,1.78-2.84,2.66-4.27.06-.1.12-.32.07-.37a9.84,9.84,0,0,0-.78-.64,1.27,1.27,0,0,0-.93.8c-.29.67-.59,1.34-.94,2C48.3,8.46,47.55,9.77,46.82,11.09ZM66.25,27.31c-1.1.32-2.2.66-3.31,1l-.38.11,0-.07-.27.06L59.86,29a6.33,6.33,0,0,0-.88.24c-.4.15-.35.51-.27.81s.34.16.55.13l3.53-.66,3.66-.73c.45-.09.86-.6.79-.94A1.1,1.1,0,0,0,66.25,27.31ZM57.84,17c-.93.72-1.84,1.46-2.75,2.2-.2.16-.51.3-.31.65s.76.54,1,.36c.81-.59,1.62-1.2,2.42-1.81,1-.78,2-1.57,3.07-2.36.15-.13.38-.41.34-.48a4.94,4.94,0,0,0-.66-.82c-.26.15-.43.22-.58.33s-.45.35-.68.52C59.08,16.07,58.45,16.52,57.84,17Zm-9.06-3.92c.1.05.4-.11.5-.25.64-.87,1.26-1.76,1.88-2.64C52,9,52.82,7.87,53.64,6.69c.08-.12.14-.36.07-.45a4.57,4.57,0,0,0-.63-.6,4,4,0,0,0-.77.62c-1.32,2-2.62,3.93-3.92,5.89C48.19,12.45,48.33,12.85,48.78,13.09ZM24.86,60c.3-.72.62-1.42.95-2.13.12-.26,0-.39-.23-.45s-.24-.12-.33-.09-.42.1-.47.23c-.3.68-.53,1.4-.83,2.08-.76,1.67-1.55,3.33-2.32,5-.26.58,0,1,.82,1a2.22,2.22,0,0,0,.36-.41,5.46,5.46,0,0,0,.26-.67l1.07-2.75C24.38,61.24,24.61,60.63,24.86,60Zm-2.58-3.47c.17-.32,0-.53-.43-.58-.05.05-.21.12-.29.25-.52.78-1,1.57-1.55,2.36-1,1.52-2,3-3,4.57-.11.17-.24.52-.17.59a1.76,1.76,0,0,0,.83.46c.17,0,.47-.2.58-.39.48-.8.93-1.62,1.37-2.44C20.55,59.78,21.41,58.17,22.28,56.56Zm26.39,6.65c-.28-.61-.56-1.22-.86-1.81l-2.5-4.89c-.12-.23-.24-.57-.6-.36s-.66.31-.41.8c.47.92.91,1.86,1.36,2.79.67,1.39,1.35,2.77,2,4.18.14.3.35.39.6.28a3.26,3.26,0,0,0,.6-.47l-.07-.11A2.45,2.45,0,0,0,48.67,63.21ZM17.12,10.89c.65.84,1.31,1.68,1.95,2.53.18.24.36.3.6.12s.57-.35.36-.72a13.26,13.26,0,0,0-1-1.47c-.53-.7-1.1-1.36-1.64-2-.68-.88-1.34-1.78-2-2.64a.69.69,0,0,0-.59-.23c-.21.1-.33.38-.49.58a3.15,3.15,0,0,0,.22.5C15.39,8.64,16.25,9.77,17.12,10.89Zm-5.8,44.22,2.17-2.06c.6-.59,1.21-1.16,1.75-1.8.13-.15,0-.52,0-.78a2.7,2.7,0,0,0-.5.18,4.23,4.23,0,0,0-.4.34c-1,.81-1.89,1.64-2.86,2.42s-1.88,1.46-2.82,2.18c-.31.23-.27.45-.05.72s.25.39.42.66a2.52,2.52,0,0,0,.75-.33C10.3,56.16,10.8,55.62,11.32,55.11Zm12.55,2a2.11,2.11,0,0,0-.42-.47c-.06,0-.33.14-.4.26-.46.81-.88,1.63-1.32,2.44-.88,1.6-1.73,3.22-2.65,4.8-.32.53.11.64.33.83a.7.7,0,0,0,.62-.07,1.26,1.26,0,0,0,.37-.52c.23-.47.42-1,.66-1.43.79-1.61,1.61-3.21,2.4-4.82C23.61,57.87,23.71,57.56,23.87,57.15ZM1.34,29.09c.75.16,1.5.29,2.25.42l3.56.6.91.19c.57,0,.84-.09.9-.55s-.26-.46-.55-.52c-1.24-.27-2.49-.53-3.73-.82s-2.2-.55-3.29-.82c-.22-.05-.47-.14-.49.22s0,.44,0,.66A.51.51,0,0,0,1.34,29.09ZM45.49,62.78q-.72-1.68-1.5-3.33c-.25-.52-.58-1-.85-1.53-.36-.67-.35-.68-1-.21.15.37.31.71.45,1.07.42,1.1.83,2.2,1.26,3.3s.86,2.16,1.28,3.24c.08.22.08.5.44.42.55-.14.86-.45.75-.8C46,64.21,45.79,63.49,45.49,62.78ZM.61,31.9a7.36,7.36,0,0,0,1.25.1c.44,0,.88,0,1.33,0,1.31.07,2.62.16,4,.25a6.24,6.24,0,0,0,1-.14c.14,0,.25-.32.27-.5a.42.42,0,0,0-.28-.34c-.77-.1-1.55-.15-2.33-.24-1.78-.2-3.56-.42-5.34-.63a1,1,0,0,0-.31,0,2.82,2.82,0,0,0-.17,1C0,31.63.38,31.84.61,31.9Zm65.92,3.4a2,2,0,0,1-.42,0l-2.21-.09c-1.64-.09-3.29-.1-4.92-.29-.62-.07-.51.35-.62.58s.24.49.44.55a4.9,4.9,0,0,0,1.32.19c1.73,0,3.45,0,5.17,0v.21a12.16,12.16,0,0,0,1.49-.23c.15-.05.3-.4.29-.61S66.86,35.22,66.53,35.3ZM3.27,40.48c.62-.19,1.25-.34,1.87-.51s1.25-.31,1.87-.5,1.23-.09,1.58-.73l.18-.32c-.14,0-.28-.14-.42-.12-.41,0-.83.13-1.25.2-1.74.3-3.48.61-5.23.9-.47.08-1,.1-1.55.16,0,.07-.12.23-.09.36A11.29,11.29,0,0,0,.6,41s.08.06.12.06A6.26,6.26,0,0,0,1.79,41C2.3,40.86,2.77,40.63,3.27,40.48Zm49,16.44c-.84-1-1.71-1.92-2.57-2.87-.23-.26-1-.3-1.11,0s.11.46.23.68a2.49,2.49,0,0,0,.38.42c.6.67,1.25,1.31,1.81,2,.87,1.09,1.67,2.22,2.52,3.32.09.12.28.17.5.29.18-.18.39-.31.47-.5a.71.71,0,0,0,0-.59C53.73,58.74,53,57.82,52.24,56.92ZM56.35,21c-.24.15-.51.25-.3.6s.72.62,1,.44l3.12-2.19c.91-.64,1.84-1.26,2.74-1.91.17-.12.25-.38.4-.61-.14-.22-.21-.47-.37-.55a.67.67,0,0,0-.58.07c-1.19.82-2.36,1.68-3.55,2.51C58,20,57.18,20.5,56.35,21ZM36.2,59.28c-.07-.79-.29-.93-1-.55,0,.29.07.54.08.79,0,.86,0,1.72.09,2.58.09,1.45.2,2.9.32,4.34a1.48,1.48,0,0,0,.27.75c.27.33.61.07.85-.08a.69.69,0,0,0,.24-.57c-.09-.84-.24-1.67-.33-2.51C36.5,62.45,36.33,60.86,36.2,59.28ZM1.28,26.07c.93.26,1.85.55,2.78.81l2.19.61,2.57.74c.13,0,.33.07.4,0a.9.9,0,0,0,.3-.54c0-.13-.22-.32-.38-.38q-2.93-1-5.86-2c-.53-.17-1.08-.28-1.62-.42-.37,0-.69.09-.75.52S.93,26,1.28,26.07ZM21.82,4.51l2.31,4.6c.14.27.29.53.42.8s.51.12.76.16c.08,0,.19-.19.26-.27a2.43,2.43,0,0,0-.06-.31c-.37-.87-.68-1.77-1.11-2.61a24.28,24.28,0,0,1-1.64-3.6c-.24-.73-.62-.85-1.25-.41a.48.48,0,0,0-.19.66C21.47,3.86,21.65,4.18,21.82,4.51ZM1,38.74c.53-.11,1-.29,1.58-.35,1.8-.22,3.61-.41,5.42-.6.28,0,.49-.12.48-.45s-.29-.41-.57-.42-1.1,0-1.1,0V37s-1,0-1.58,0l-4.6.23c-.44,0-.64.19-.53.66a.76.76,0,0,1-.06.39c-.08.28,0,.49.29.51A2.53,2.53,0,0,0,1,38.74Zm.82,4.34a4.61,4.61,0,0,1,.63-.2c.44-.13.89-.24,1.33-.38l2.9-.91c.68-.22,1.35-.42,2-.66A.65.65,0,0,0,9,40c-.22-.38-.48-.16-.73,0a1.19,1.19,0,0,1-.26.11L2.48,41.57l-1.72.48c.12.24.24.37.24.5C1,43.11,1.33,43.32,1.84,43.08ZM41.29,8.44c0,.14,0,.31.09.38a9.29,9.29,0,0,0,.79.56,1.84,1.84,0,0,0,.27-.52c.33-1.52.64-3,1-4.58.17-.8.36-1.59.53-2.38.07-.33-.25-1.06-.45-1s-.59.23-.65.42c-.31,1.16-.56,2.34-.8,3.52-.18.88-.31,1.77-.48,2.65C41.49,7.81,41.38,8.12,41.29,8.44ZM4.24,36.2,8,36.09c.42,0,.5-.35.49-.64s-.21-.56-.34-.57c-.77,0-1.55,0-2.32,0l-2.58.15c-.89.05-1.79.11-2.68.18-.33,0-.63.49-.57,1,1,0,1.94,0,2.91,0C3.37,36.25,3.81,36.21,4.24,36.2Zm16-29.55c.7,1.12,1.36,2.26,2,3.4a3.51,3.51,0,0,1,.24.61c.1.27.23.41.5.17s.33-.25.49-.38.18-.21.29-.33c-.1-.16-.17-.3-.26-.43a61.57,61.57,0,0,1-3.75-6c-.14-.3-.5-.23-.92.14a.46.46,0,0,0-.08.71C19.32,5.2,19.83,5.91,20.29,6.65Zm30.27,5.93a1.81,1.81,0,0,0-.49,1.77c0,.12.14.3.22.31a.49.49,0,0,0,.38-.18c.35-.51.64-1.07,1-1.56,1.1-1.42,2.25-2.81,3.35-4.24a1,1,0,0,0,.12-.77c0-.2-.32-.34-.51-.53a2.29,2.29,0,0,0-.45.3c-.41.53-.8,1.07-1.19,1.61C52.19,10.38,51.36,11.47,50.56,12.58Zm-40.11,38c.49-.4,1-.82,1.47-1.21s.81-.56,1.17-.88.12-.56-.09-.8-.37-.09-.55.06c-.48.39-1,.76-1.47,1.12-.94.66-1.89,1.3-2.81,2-.55.41-1.06.87-1.6,1.29a9.29,9.29,0,0,1-.85.53c.22.28.34.54.55.66.43.28.78,0,1.11-.29C8.41,52.24,9.43,51.42,10.45,50.6ZM2.13,23.82c.78.31,1.57.6,2.36.89,1,.36,2,.72,3,1.05a13.73,13.73,0,0,0,2,.55.77.77,0,0,0,.65-.39c.12-.31-.2-.4-.47-.41a1,1,0,0,1-.24,0c-1.35-.55-2.69-1.14-4.07-1.64a12.76,12.76,0,0,0-3.64-1.25C1.44,23.21,1.58,23.61,2.13,23.82ZM33.48,7.31l.06.86c0,.42.29.45.64.43s.5-.14.5-.49c0-.52,0-1,0-1.56,0-1,0-2-.07-3,0-.82-.12-1.64-.15-2.46a1.06,1.06,0,0,0-.55-1c-.25-.13-.39-.08-.41.22,0,.7-.11,1.4-.1,2.1,0,1.64.09,3.28.14,4.92Zm5.35,56.32h0a1.93,1.93,0,0,0,0-.24c-.21-1.22-.42-2.45-.64-3.67-.06-.34-.15-.68-.22-1s-.28-.49-.55-.39a.68.68,0,0,0-.35.54c0,.63.11,1.26.19,1.9.23,1.88.46,3.76.73,5.63a.69.69,0,0,0,.42.46c.47.14.87-.41.77-1C39.06,65.1,39,64.36,38.83,63.63Zm27.5-25.77c-.35,0-.7,0-1-.07l-6.13-1a.79.79,0,0,0-.78.73c0,.47.37.42.64.46l7,1a1.22,1.22,0,0,0,.6-.07c.4-.16.23-.52.19-.79C66.76,38,66.49,37.88,66.33,37.86ZM61.67,50.08c-.6-.39-1.24-.71-1.85-1.09-1.34-.82-2.67-1.66-4-2.5a.51.51,0,0,0-.82.24c-.15.28,0,.52.31.68.54.3,1.08.62,1.59,1,1.59,1.06,3.16,2.14,4.75,3.2a.46.46,0,0,0,.4,0,5.47,5.47,0,0,0,.19-.86A3.29,3.29,0,0,0,61.67,50.08ZM43.2,63.33a26.37,26.37,0,0,0-1.81-4.82c-.08-.18-.39-.26-.59-.38a1.76,1.76,0,0,0-.08.63c.67,2.44,1.37,4.87,2.06,7.31.07.25.13.53.45.41A3.84,3.84,0,0,0,44,66a6.46,6.46,0,0,0-.14-.75A17.69,17.69,0,0,1,43.2,63.33Zm8.09-4.23c-1.1-1.32-2.26-2.59-3.36-3.91a.73.73,0,0,0-1-.22,2,2,0,0,0,.18.54c.64.9,1.29,1.78,1.95,2.66.46.62.93,1.23,1.38,1.86s.8,1.19,1.2,1.77a.34.34,0,0,0,.27.13.82.82,0,0,0,.62-1.09A12.36,12.36,0,0,0,51.29,59.1ZM66.15,39.94c-.56-.1-1.12-.18-1.69-.27L60.74,39c-.69-.11-1.38-.23-2.07-.33-.39-.06-.47.31-.63.53,0,0,.21.35.38.44a3.44,3.44,0,0,0,.78.2l4.42.81L65.5,41v0c.14,0,.33.09.42,0a2.1,2.1,0,0,0,.7-.69C66.75,40,66.37,40,66.15,39.94ZM49.64,60.76c-.55-1-1.1-1.94-1.66-2.89-.46-.77-.93-1.52-1.43-2.26-.08-.12-.43-.23-.49-.17s-.32.43-.26.56a23.42,23.42,0,0,0,1,2.15c.35.68.75,1.33,1.12,2,.46.83.88,1.69,1.39,2.49.13.2.54.26.83.28.12,0,.27-.21.38-.31a2,2,0,0,0-.13-.47C50.16,61.67,49.9,61.21,49.64,60.76ZM56,15.47c-.74.64-1.49,1.26-2.22,1.92-.13.11-.27.41-.22.5a3.14,3.14,0,0,0,.64.62s.19,0,.25-.08l2.41-2.17,3.38-3c-.16-.69-.45-.81-1.08-.41a2.53,2.53,0,0,0-.42.31C57.77,13.91,56.86,14.69,56,15.47Zm-31-10c.46,1.12,1,2.22,1.39,3.35.17.43.29.64.83.56s.51-.24.4-.55C27.3,8,27,7.23,26.66,6.46s-.79-1.53-1.13-2.32C25.3,3.57,25.17,3,25,2.38c-.08-.25-.1-.57-.49-.55-.7,0-.91.32-.64,1C24.21,3.7,24.58,4.57,25,5.45ZM40.26,8.7a.31.31,0,0,0,.14-.22c.09-.52.15-1,.24-1.55.35-1.82.7-3.64,1.08-5.44.18-.85.19-.92-.53-1.35L41,0a2.41,2.41,0,0,0-.31.59c-.33,1.67-.66,3.34-1,5-.14.8-.24,1.61-.33,2.42C39.34,8.39,39.92,8.82,40.26,8.7Zm-9.95,50c-.41-.07-.35.34-.4.56-.4,1.55-.77,3.09-1.14,4.64-.26,1.11-.53,2.23-.75,3.36a.57.57,0,0,0,.21.51,2.83,2.83,0,0,0,.86.08,8.85,8.85,0,0,0,.27-1c.38-2.24.74-4.48,1.11-6.71,0-.23.16-.45.19-.69S30.69,58.8,30.31,58.73Zm.18-55.25c.31,1.59.6,3.18.94,4.77,0,.2.36.35.55.52a2.36,2.36,0,0,0,.4-.51,1,1,0,0,0,0-.55c-.12-.64-.25-1.27-.38-1.91H32c0-.16-.05-.31-.09-.47-.1-.48-.22-1-.31-1.44-.19-1-.35-2-.53-3.06C31.05.5,30.83.4,30.52.47c-.49.09-.61.38-.46,1S30.36,2.82,30.49,3.48Zm-12.94,54c.6-.8,1.17-1.6,1.77-2.4.18-.25.2-.51,0-.68a.52.52,0,0,0-.79.1c-.79,1-1.57,2.09-2.37,3.12S14.77,59.34,14,60.18c-.59.66-.6.93.18,1.52.32-.38.65-.74.95-1.13C16,59.53,16.77,58.48,17.55,57.43ZM11.17,47.7a4.81,4.81,0,0,0,.76-.56c.1-.11.06-.41,0-.58a.54.54,0,0,0-.46-.06c-.69.36-1.37.74-2,1.15-1.34.85-2.67,1.73-4,2.61a3.81,3.81,0,0,0-.57.6c0,.6.3.84.72.72a1.91,1.91,0,0,0,.56-.26C7.82,50.12,9.49,48.9,11.17,47.7ZM14.4,11.35c.9,1,1.81,2,2.69,3,.34.39.55.46.94.17s.19-.59,0-.83c-.46-.55-1-1.07-1.45-1.61q-1.52-1.65-3.05-3.29A5.56,5.56,0,0,0,13,8.33a2.48,2.48,0,0,0-.6.48c-.06.08.06.36.17.48C13.15,10,13.78,10.66,14.4,11.35ZM5.78,43.71c.93-.32,1.85-.69,2.76-1.06a5.07,5.07,0,0,0,1-.59c.11-.08.09-.33.14-.51a2.61,2.61,0,0,0-.48,0,2.36,2.36,0,0,0-.44.11v-.07a1.59,1.59,0,0,0-.38.06c-1.17.4-2.33.82-3.5,1.23-.85.3-1.68.62-2.55.85-.33.09-.68.1-.83.44s-.13.53,0,.63a.83.83,0,0,0,.65.09c.31-.07.58-.24.88-.33C3.94,44.23,4.87,44,5.78,43.71Zm9.46,10.46c.5-.52,1-1,1.61-1.49a2.25,2.25,0,0,0-.37-.57c-.1-.09-.39-.13-.47,0-1,.85-1.88,1.72-2.8,2.6S11.64,56.2,10.84,57c-.22.21-.46.36-.16.7a.7.7,0,0,0,1,.2,10.76,10.76,0,0,0,.93-.86C13.46,56.06,14.34,55.1,15.24,54.17Zm39.94.6c-1-1-2-1.91-3-2.88-.34-.34-.61,0-.92,0,.06.2.06.47.19.61.89,1,1.81,1.88,2.71,2.82s1.57,1.63,2.36,2.45a.33.33,0,0,0,.53,0l.51-.56a6.22,6.22,0,0,0-.45-.53Zm4.92-3.3c-.77-.54-1.56-1-2.32-1.59S56.07,48.59,55.2,48a.54.54,0,0,0-.88.18c-.2.34.1.47.32.63s.22.12.32.2l5.3,4.15a.63.63,0,0,0,.49.13c.17-.09.27-.31.42-.5a2.34,2.34,0,0,0-.26-.62A5.76,5.76,0,0,0,60.1,51.47ZM62,47.91c-1.67-1-3.36-1.91-5-2.85-.14-.07-.3-.12-.52-.22-.15.16-.38.3-.44.49s.14.38.29.47c.82.52,1.68,1,2.5,1.5,1.22.75,2.43,1.52,3.62,2.3.27.18.48.32.75,0a.51.51,0,0,0-.06-.79A5.91,5.91,0,0,0,62,47.91Zm-24-39a1.87,1.87,0,0,0,.41-.82c.24-1,.45-2,.65-3s.45-2.22.64-3.2c0-.27,0-.46-.06-.51A2.62,2.62,0,0,0,38.89,1c-.06,0-.26.21-.29.35-.09.41-.12.84-.2,1.26-.37,1.93-.76,3.87-1.13,5.81a.53.53,0,0,0,.14.46C37.58,9,37.91,9,38,8.89ZM63.32,46.3a8.28,8.28,0,0,1-1-.39c-1.44-.74-2.86-1.49-4.3-2.22a2,2,0,0,0-.81-.25.65.65,0,0,0-.46.37c0,.12.08.38.2.48a3.44,3.44,0,0,0,.69.42l5.22,2.69c.32.16.65.29,1,.46,0-.27,0-.42.08-.56A.79.79,0,0,0,63.32,46.3ZM52.64,54.79l-1-1c-.27-.26-.53-.55-.81-.79s-.44-.13-.66.08-.09.4,0,.55c.68.72,1.39,1.4,2.06,2.12,1,1,1.91,2.09,2.85,3.14.57.62.56.62,1.22,0a3.84,3.84,0,0,0-.48-.82C54.78,56.94,53.71,55.87,52.64,54.79ZM26.46,3.19c.58,1.7,1.17,3.39,1.73,5.1a1,1,0,0,0,.65.73c.41.13.66,0,.59-.41A6.21,6.21,0,0,0,29,7.06a38.8,38.8,0,0,1-1.95-5.27c-.1-.33-.28-.48-.53-.49-.67,0-.77.15-.55.69S26.32,2.78,26.46,3.19Zm9,5.33a.34.34,0,0,0,.19.23c.59.15.82-.06.87-.69.13-1.67.27-3.34.41-5,0-.52.11-1,.12-1.58a.91.91,0,0,0-.22-.63A1.77,1.77,0,0,0,36.13.6a3.1,3.1,0,0,0-.11.51c-.07.89-.1,1.78-.18,2.66-.13,1.41-.28,2.82-.42,4.22h0A4.68,4.68,0,0,0,35.44,8.52ZM34.49,59.6c0-.25-.09-.51-.37-.44s-.49.27-.5.43c0,1,0,2,0,3,0,.54.08,1.08.13,1.62h-.08c.05.84.12,1.68.16,2.53a.56.56,0,0,0,.66.56c.11,0,.28-.42.28-.64,0-.92,0-1.85,0-2.77C34.64,62.49,34.56,61,34.49,59.6Zm24.69-6.39c-1-.79-2-1.56-3-2.35-.65-.5-1.24-1.07-1.93-1.5-.94-.58-.84-.47-1.07.42,1.5,1.15,3,2.25,4.43,3.38.56.44,1.06,1,1.61,1.42.1.08.3.18.4.14.29-.1.39-.74.17-1A3,3,0,0,0,59.18,53.21Zm6.29-11.44c-.15,0-.3-.09-.46-.12l-4.38-1-2.06-.46a.46.46,0,0,0-.58.36c-.11.32.18.33.39.39,1.49.44,3,.9,4.45,1.31.81.23,1.64.39,2.58.61.14-.11.42-.22.48-.4A.49.49,0,0,0,65.47,41.77Zm-6.09-7.68c.49,0,1,0,1.47,0q2.88-.12,5.74-.27c.15,0,.41-.21.4-.28s-.17-.47-.31-.5c-.55-.13-1.12-.17-1.53-.23-.89.08-1.62.17-2.35.21-1.13.08-2.25.14-3.38.18-.25,0-.48,0-.49.28S59,34.09,59.38,34.09ZM58,55c-.57-.5-1.15-1-1.72-1.5-1.06-.92-2.1-1.85-3.16-2.76-.21-.18-.5-.32-.71,0s-.08.52.19.74c.75.63,1.51,1.26,2.23,1.93.92.85,1.81,1.74,2.73,2.6a1.79,1.79,0,0,0,.46.22c.18-.11.42-.18.49-.33s-.05-.36-.14-.52A1.62,1.62,0,0,0,58,55ZM52.49,16.12c-.19.16-.39.41-.14.6a.72.72,0,0,0,.67,0,14,14,0,0,0,1.64-1.22c1.34-1.18,2.65-2.39,4-3.59a1.87,1.87,0,0,0,.25-.34c-.09-.21-.13-.5-.24-.53a.75.75,0,0,0-.56.19c-1.22,1.07-2.42,2.16-3.63,3.23C53.8,15,53.13,15.56,52.49,16.12ZM1.37,33.17c-.35,0-.77.24-.71.51s.18.59.59.5a1.65,1.65,0,0,1,.31,0c1.76,0,3.51,0,5.28,0A4,4,0,0,0,8,33.93c.13,0,.19-.29.28-.45-.15-.07-.1-.21-.25-.21-1.2,0-1.23,0-3.38,0v0ZM28.46,4q.78,2.13,1.59,4.26c.06.16.23.28.35.42l.24-.39a1.2,1.2,0,0,0,0-.28c-.19-.68-.41-1.34-.59-2-.38-1.45-.77-2.89-1.11-4.35-.17-.69-.29-.79-1-.57a.42.42,0,0,0-.31.63C27.93,2.48,28.18,3.25,28.46,4Z"/></g></g></svg>