<svg xmlns="http://www.w3.org/2000/svg" viewBox="0 0 52.98 104.37"><defs><style>.cls-1{fill:#fbb03b;}</style></defs><title>Asset 519</title><g id="Layer_2" data-name="Layer 2"><g id="Layer_1-2" data-name="Layer 1"><path d="M28.38,53.54c-.18-.71-.19-1.51,0-1.4a.4.4,0,0,1,.13.32c0,.14.06.25.12.25s.52-.69.52-1,.18-.33.36.06.11.38-.21.75a2.05,2.05,0,0,0-.45.94C28.71,54.17,28.55,54.21,28.38,53.54Zm1.87-2.91c0-.13,0-.22-.16-.22s-.2.11-.2.27C29.89,51,30.19,51,30.25,50.63Zm-2.34,4.53c.09.44.24.45.43,0s.19-.95,0-.95-.26-.18-.38-.39-.28-.38-.36-.38-.12.29.12,1A5.74,5.74,0,0,1,27.91,55.16Zm4.34-24.35c-.1-.17-.58-.19-.58,0s.11.18.23.25S32.39,31,32.25,30.81ZM23.32,7c.48,0,.7-.19.38-.31s-.81-.08-.81.12S23,7,23.32,7Zm-.69,5.54a2.32,2.32,0,0,1-.68.32.52.52,0,0,0-.34.19c-.13.15-.13.23,0,.38s.41.24.8-.06a1.09,1.09,0,0,1,.52-.26c.25,0,.49-.42.39-.69S23.23,12.14,22.63,12.52Zm-2-.5c-.24.09-.25.21,0,.41s.61.18.61-.09A.39.39,0,0,0,20.66,12Zm2.23-4a1.49,1.49,0,0,1-.68,1.12c-.59.22-1.09.28-1.17.14a1.83,1.83,0,0,1,.48-1.5C22.26,7.41,22.89,7.52,22.89,8Zm-.83.49a.29.29,0,0,0-.2-.12.12.12,0,0,0-.12.12c0,.07.09.13.2.13S22.1,8.57,22.06,8.5Zm.24,5.42c.09.24.64.24.83,0s.06-.45-.37-.45S22.19,13.64,22.3,13.92ZM22,11.23c-.22-.26-.51-.22-.51.07a.4.4,0,0,1-.12.32.22.22,0,0,0-.05.26c.11.29.37.23.61-.14S22.11,11.38,22,11.23ZM20.64,8a2.15,2.15,0,0,1,1.42-1.14,1,1,0,0,0,.5-.17c.19-.14.2-.2.06-.28a2.4,2.4,0,0,0-2.29.52,1.37,1.37,0,0,0-.25,1.4C20.31,8.59,20.48,8.5,20.64,8Zm4.14.8c-.1,0-.19.2-.22.38a.86.86,0,0,1-.22.49.5.5,0,0,0-.18.32c0,.1.07.15.16.11C24.68,10,25.13,8.67,24.78,8.79Zm.74,1s0-.23,0-.43.06-.38,0-.38-.43.49-.46.77c0,.1-.07.39-.12.62s-.06.41.05.35S25.6,9.9,25.52,9.82Zm-2.6,8.67s0-.21-.06-.38a.48.48,0,0,0-.5-.31c-.46,0-.58.21-.3.52S22.76,18.65,22.92,18.49Zm.39-15.84c.51.31.72.32.72,0,0-.15-.22-.35-.65-.57a2.15,2.15,0,0,0-.71-.29C22.55,1.92,22.92,2.41,23.31,2.65Zm2.48,14.71c.08-.18.1-.32.05-.32s-.41.29-.41.47S25.64,17.7,25.79,17.36Zm2.84,4.32c0,.13,0,.21.06.17a.24.24,0,0,0,0-.25C28.66,21.5,28.63,21.53,28.63,21.68ZM26.26,47.74c0,.14,0,.26,0,.26s.15-.16.2-.36.11-.47.15-.63c.11-.38-.22-.39-.58,0s-.32.51,0,.51S26.32,47.54,26.26,47.74Zm.32-1.56a1.29,1.29,0,0,1,.25-.48c.34-.43.34-.69,0-.51a.49.49,0,0,0-.25.37.63.63,0,0,1-.19.4.44.44,0,0,0-.19.27C26.2,46.4,26.58,46.36,26.58,46.18Zm-1.79-7.93a3,3,0,0,0,.29.67c.21.26.39.18.29-.13a5.39,5.39,0,0,1-.11-1c0-.58-.06-.76-.21-.76s-.23-.21-.31-.58a1.58,1.58,0,0,0-.23-.64,1.33,1.33,0,0,1-.18-.58c-.08-.57-.32-1.2-.45-1.2s-.11.22-.13.48-.09.49-.32.52l-.28,0,.3.47A17.69,17.69,0,0,1,24.79,38.25Zm1.73-4.14c0-.07,0-.13-.19-.13s-.26.06-.26.13.08.13.18.13A.37.37,0,0,0,26.52,34.11ZM42.59,44.34a.52.52,0,0,0,.33.09c.33,0,.21-.31-.14-.36S42.41,44.17,42.59,44.34ZM17.79,64.87c0-.45-.44-.42-1.19.08-.55.36-.75.62-.48.62s.29.42.14.56a.48.48,0,0,0-.12.33c0,.17,0,.17.17,0a2.26,2.26,0,0,1,.78-.46c.83-.33.88-.53.13-.53-.36,0-.56,0-.51-.13a.93.93,0,0,1,.58-.13C17.74,65.19,17.79,65.16,17.79,64.87Zm4.9,4.78c.1.15.11.15.38,0s.25-.26-.06-.34S22.57,69.44,22.69,69.65Zm-.2,7.4c.26-.16.08-.7-.32-1s-.62-.11-.45.32a5.06,5.06,0,0,1,.19.53C22,77.19,22.21,77.23,22.49,77.05Zm-.15-1.81c-.18-.29-.69-.45-.87-.27s0,.21.28.38C22.25,75.67,22.57,75.61,22.34,75.24Zm4.45,9a2.31,2.31,0,0,0,.81-.93s-.08-.07-.17-.07A.77.77,0,0,1,27,83a.67.67,0,0,0-.62-.22c-.49,0-.45.25.06.42s.36.31-.21.31-.66.54.07.68Zm-5.5-7.76c-.18-.14-.23-.14-.34,0a.44.44,0,0,1-.36.21c-.39,0-.3.36.16.64a2.63,2.63,0,0,0,.5.26c.22,0,.24-.3,0-.51s-.19-.25,0-.35S21.48,76.69,21.29,76.52Zm5.74,3-.31-.24a1.17,1.17,0,0,0-.62-.24,1.56,1.56,0,0,1-.75-.33c-.26-.19-.49-.28-.59-.23a.68.68,0,0,1-.34.11.27.27,0,0,0-.23.15c-.05.16.29.39.92.63h0a4.16,4.16,0,0,0,1.15.15Zm-.64,2.81c.54.17.57.17.57,0a.2.2,0,0,0-.19-.2c-.3,0-.23-.32.13-.58s.41-.52.06-.63-.32-.23-.06-.44c.42-.35.22-.49-.58-.42-.52,0-.76,0-.76-.07a.18.18,0,0,0-.19-.15.18.18,0,0,0-.19.18,2.65,2.65,0,0,0,1.11,1.09.15.15,0,0,1,.16.13c0,.07-.17.13-.37.13a.68.68,0,0,0-.46.13C25.5,81.7,26,82.23,26.39,82.37Zm.94,2.43a1.47,1.47,0,0,1-.3.39c-.16,0-.58-.53-.51-.64s0-.12-.05-.12-.31.5-.16.69.1.21,0,.32-.25.47,0,.56c.48.2.8,0,1.14-.67S27.72,84.16,27.33,84.8ZM23.4,67.17a.46.46,0,0,0-.26-.32c-.21-.11-.28-.1-.34.07a.26.26,0,0,0,.1.32C23.17,67.41,23.4,67.38,23.4,67.17Zm-1.53,6.94c.4,0,.47-.11.24-.34s-.63-.07-.63.16S21.62,74.11,21.87,74.11Zm.21,12.27a.36.36,0,0,0,.53-.09c.18-.21.06-.33-.32-.33S21.89,86.19,22.08,86.38ZM16.89,63.74c-.84.34-1.13.59-1.14,1s.16.28.5-.08a3.6,3.6,0,0,1,1.44-.76c.23-.07.32-.46.12-.46A7.53,7.53,0,0,0,16.89,63.74Zm5,9.11c0-.06,0-.18-.11-.26s-.4,0-.26.24A.21.21,0,0,0,21.92,72.85ZM23,68c.06-.18-.43-.46-.61-.35s-.07.17,0,.33S22.89,68.29,23,68Zm-.35,2.71a.26.26,0,0,0-.39-.26c-.09.06-.08.14,0,.26S22.63,71,22.63,70.74Zm-.46,6.68c-.26,0-.36.35-.18.58s.71.25.84,0S22.45,77.42,22.17,77.42ZM17.61,61.63c-.67,0-2.24,1-2.24,1.36s.18.19.73-.34A2.43,2.43,0,0,1,17.24,62C18.05,61.8,18.22,61.63,17.61,61.63Zm-.83,5.15c-.56.35-.65.53-.3.62a1.09,1.09,0,0,0,.4,0,1.1,1.1,0,0,1,.29,0c.07,0,.08-.07,0-.15s0-.22.15-.32.2-.21.1-.31S17.16,66.54,16.78,66.78Zm-.57-16.31q.09.21.21.09a.35.35,0,0,0,0-.35q-.08-.23-.21-.09A.35.35,0,0,0,16.21,50.47Zm0,10.53a3.39,3.39,0,0,1,.8-.4c.86-.34,1-.44.76-.54a5.28,5.28,0,0,0-2,.94C15.75,61.15,16.1,61.15,16.19,61Zm7.12,2.6c0-.11,0-.19,0-.19s-.12.08-.12.19,0,.19.05.19S23.27,63.71,23.31,63.6Zm1.08,4.13a.2.2,0,0,0-.17-.14.19.19,0,0,0-.16.14c0,.08.05.14.16.14S24.41,67.81,24.39,67.73Zm-7.53.44a.29.29,0,0,0,.47-.11c.05-.13,0-.19-.17-.19S16.73,68,16.86,68.17Zm-.3-4.89c.29,0,.84-.32.84-.48s-.2-.21-.31,0a.56.56,0,0,1-.4.13c-.28,0-1.19.74-1.19,1s.17,0,.53-.26A1.4,1.4,0,0,1,16.56,63.28Zm.34-2.23a.56.56,0,0,1-.39.19c-.23,0-.63.32-.63.5s.79,0,1.08-.2a1.08,1.08,0,0,1,.47-.17.49.49,0,0,0,.36-.25c.12-.24.1-.26-.3-.26A.9.9,0,0,0,16.9,61.05ZM33.46,76.27c0-.07-.09-.12-.19-.12s-.26.15-.11.29S33.46,76.43,33.46,76.27ZM52.05,47.66a4.94,4.94,0,0,0-.92.26,4.72,4.72,0,0,1-.74.26,1.65,1.65,0,0,0-.68.39,1.22,1.22,0,0,1-.58.32.41.41,0,0,0-.33.14,1.5,1.5,0,0,1-.51.31,6.31,6.31,0,0,0-.89.5,8.3,8.3,0,0,1-1,.54l-.51.22.06,1c0,.53.19,1.59.34,2.36s.33,1.71.4,2.1A5.24,5.24,0,0,0,47,57a7.35,7.35,0,0,1,.31,1.09c.11.45.23.95.28,1.1a.51.51,0,0,1-.18.54.46.46,0,0,1-.62.13,3.52,3.52,0,0,1-1.59-1.71C44.53,56.88,44,56.45,43.66,57a13,13,0,0,0-.07,2.2c.06,2.25.19,6,.24,6.56a40.44,40.44,0,0,0,1.09,4.88,10.42,10.42,0,0,1,.38,1.42c0,.35-.31.53-.72.43A4.05,4.05,0,0,1,43,71.23a1.3,1.3,0,0,0-.32-.51,1.77,1.77,0,0,1-.32-.47,5.77,5.77,0,0,0-.76-1.49,2.34,2.34,0,0,1-.56-.41A3.33,3.33,0,0,1,40,66.5a1.11,1.11,0,0,0-.54-.77,1.53,1.53,0,0,1-.54-.59,1,1,0,0,0-.63-.5,2,2,0,0,0-.56-.18s-.07,1.09-.12,2.39L37.5,69.2l.4,1.25a16.5,16.5,0,0,0,.78,2,4.56,4.56,0,0,1,.39,3.38,8.71,8.71,0,0,0,.52,4.42,5.31,5.31,0,0,1,.19,2.26A10.66,10.66,0,0,1,39.65,84a8.94,8.94,0,0,0-.14,1,6.86,6.86,0,0,1-.14,1,6,6,0,0,0,.13,1.18,4.82,4.82,0,0,0,1,2.44,4.67,4.67,0,0,1,.51.77,4.79,4.79,0,0,0,2.11,1.72,4.5,4.5,0,0,0,1.83.29c1.08,0,1.11,0,1.55.44a3.84,3.84,0,0,1,1,2.69,3.36,3.36,0,0,1-.33,2.24,5.61,5.61,0,0,1-2,.6,3.59,3.59,0,0,1-3.53-2.14,1.59,1.59,0,0,0-.74-.73,6.63,6.63,0,0,1-1-.62c-.52-.41-1.09-.66-1.18-.52s.24.74,1.1,2.17,1.06,2,.87,3.2-.4,1.67-.8,2a3.27,3.27,0,0,0-.58.7,1.07,1.07,0,0,1-.66.54.61.61,0,0,0-.5.45,1.37,1.37,0,0,1-.46.6.59.59,0,0,1-.7.06,2,2,0,0,1-.58-.39c-.31-.34-.69-3.13-.7-5,0-2.57-.57-4.79-1.2-4.77a6.49,6.49,0,0,0-1.93,1.38,10.39,10.39,0,0,0-.94,1.6,4.36,4.36,0,0,1-1.25,1.7,2.18,2.18,0,0,1-1,.54,1.22,1.22,0,0,0-.6.19c-.46.35-1.07.23-2.27-.46a6.61,6.61,0,0,0-1.63-.72c-.47-.06-.53,0-1.19.65s-1.11,1-1.8,1c-.86,0-1.34-.38-2.1-1.66s-1.8-2.49-2-2.36-.11.88.1,1.56a.88.88,0,0,1-.11,1,5.69,5.69,0,0,1-1.71,1.58c-.53.37-.59.46-.59.89a3.38,3.38,0,0,1-1.56,2.3,7,7,0,0,1-.92.66,1.94,1.94,0,0,0-.49.31,1.46,1.46,0,0,1-1.6.25h0c-.38-.27-.53-.69-.61-1.7-.12-1.62-.11-1.63,2.44-4.36a3,3,0,0,0,1-2.07l.05-.68-.58-.09a1.1,1.1,0,0,0-.76.07,1.56,1.56,0,0,1-.75.17c-.36,0-.52.06-.44.13a.5.5,0,0,1,.12.31c0,.29-.88,0-1.5-.4a1.68,1.68,0,0,1-.68-.92,5.12,5.12,0,0,1,.11-2.39,2.81,2.81,0,0,0,.29-.67,9.7,9.7,0,0,1,1.54-2.54,6.75,6.75,0,0,0,1.64-3.89A10.07,10.07,0,0,1,13.47,83a3.12,3.12,0,0,0,.17-.7l.2-1.59c.08-.63.14-1.43.14-1.78a12.39,12.39,0,0,1,.12-1.41,64.72,64.72,0,0,0,0-8.13c-.07-.76-.15-2.09-.17-3l0-1.57-.32.08a5.43,5.43,0,0,0-.61.18.85.85,0,0,1-.46,0c-.12-.05-.37.26-.76.93a9.2,9.2,0,0,1-1,1.44,1.18,1.18,0,0,1-1,.44c-.37,0-.61-.07-.69-.19s-.21-.08-.58.36c-1.17,1.36-2.55,1.37-2.69,0-.06-.53,0-.66.76-1.81.45-.69,1.07-1.75,1.38-2.36a12.43,12.43,0,0,1,.92-1.59c.21-.27.34-.55.29-.66s0-.2.05-.2a16.1,16.1,0,0,0,1.19-2.2A27.58,27.58,0,0,0,12,55.07c1.38-4.43,1.57-5.16,1.34-5.16s-.64.52-.7.76A12.27,12.27,0,0,1,9.83,53.2a1.24,1.24,0,0,1-1.06.19.71.71,0,0,1-.47-1.12c.4-.58,1.94-2.78,2.46-3.51a14.6,14.6,0,0,0,1-1.56l.74-1.42a26.27,26.27,0,0,0,2.09-5.46c.82-3,.94-3.54.82-3.54a3.73,3.73,0,0,0-.72.61,9.42,9.42,0,0,1-1.21,1c-.32.21-.82.54-1.11.75-1,.72-1.85.44-2.84-1-.29-.42-.66-.92-.81-1.09a11.72,11.72,0,0,1-1.21-2,13.28,13.28,0,0,1-.84-3.76c-.17-2.73-.29-3.58-.63-4.42s-.59-1.2-.82-1.06A7.68,7.68,0,0,0,4.5,27L4,28.06v1.59a20,20,0,0,0,.18,2.53c.14.83.13,1,0,1.14s-.21.15-.21,0-.1-.15-.23-.15-.31-.17-.45-.48L3,32.26l0,1.06c.05,1.2-.11,1.55-.71,1.55-.27,0-.35-.07-.41-.37a2.74,2.74,0,0,1,0-.81c.08-.5-.05-.63-.64-.65-.38,0-.4,0-.39-.54s.08-.82,1-3.83a6.21,6.21,0,0,1,1-2.22,4.06,4.06,0,0,0,.92-1.67.52.52,0,0,0-.15-.57,1.88,1.88,0,0,1-.48-1.56c0-.28.11-.76.16-1.06a1.24,1.24,0,0,1,.3-.7,1.88,1.88,0,0,0,.45-.76,3.8,3.8,0,0,1,.46-.87.92.92,0,0,0,.24-.51c0-.32.71-1,1-.86s.23,0,0-.51a1.41,1.41,0,0,0-1-.85A2.62,2.62,0,0,1,4,16.34a2.58,2.58,0,0,0-.86-.19A1.52,1.52,0,0,1,1.87,14.9c0-.38.18-.54.61-.53.17,0,.15.05-.09.23s-.28.3-.21.51a1.32,1.32,0,0,0,1.06.65A2.35,2.35,0,0,1,4,16c.58.24.67.08.32-.53s-.59-.81-1-.81c-.22,0-.34-.06-.29-.13a.54.54,0,0,1,.4-.13c.29,0,.31,0,.24-.38s-.1-.55-.14-.75c-.1-.5-.43-.77-1.42-1.15a2.26,2.26,0,0,1-.9-.5c0-.13,0-.13.31,0,.62.33,1,.32,1.06,0,0-.17.12-.31.19-.32s.14,0-.15-.88A3,3,0,0,0,1.35,8.85c-.54-.4-.67-.42-.94-.14S.17,9.79.58,10.6l.37.73L.58,11a2,2,0,0,1-.51-.86,3.5,3.5,0,0,1,.15-2,5.35,5.35,0,0,1,1.21,0c1.17.09,1.42.23,1.83,1A10.71,10.71,0,0,1,4,12.07,5,5,0,0,0,4.49,14c.41.88.79,1.26.63.64-.07-.27-.07-.28.09,0a8.1,8.1,0,0,0,.57.7l.41.45v-.48a2.92,2.92,0,0,0-.25-1c-.27-.58-1-1.11-1.05-.82,0,.08-.1.12-.16.07S4.79,13,5.1,13s.42.16.64.45.39.42.45.39,0-1.27-.27-1.45-.8-1.17-.62-1.17.16-.8,0-1.31S4.39,8.76,4.16,8.76c-.06,0-.14.16-.17.35s-.05.33-.07-.06.12-.59.68-.43c.35.09.45.08.45,0,0-.51-.27-.79-1.2-1.26a3.58,3.58,0,0,1-1.5-1.17,1.91,1.91,0,0,1-.53-1.36c0-.54,0-.67.21-.71s.26.07.35.32.26.4.63.52c.89.27.93.24.57-.56a4.45,4.45,0,0,1-.31-.89,1.36,1.36,0,0,1,.65-1c.34-.2.41-.2.6,0A3.34,3.34,0,0,0,5.69,3c.08,0,.22-.2.32-.45a1.25,1.25,0,0,1,.26-.44,2.67,2.67,0,0,1,.51.34,2,2,0,0,1,.64,1l.2.66L8.26,4A2,2,0,0,1,9,3.83a3.44,3.44,0,0,1-.59,1.73A7.55,7.55,0,0,1,7.17,6.88a4.45,4.45,0,0,0-.91,1A2.88,2.88,0,0,0,6.47,9l.28.85.2-.5c.56-1.35,1-2,1.32-1.72.11.11.11.49,0,1.52a4.54,4.54,0,0,1-1.07,3c-.32.29-.37.43-.37,1,0,.85.12,1.49.28,1.49s.09-.1,0-.23a1.38,1.38,0,0,1,.3-.81c.29-.46.46-.6.83-.67s.71,0,.71.23a2.65,2.65,0,0,0,.25.68,2.91,2.91,0,0,1,.26,1.12c0,1,.51.28.76-1.09a1.64,1.64,0,0,0-.17-1.3,5.56,5.56,0,0,1-.37-2c-.07-1.27-.06-1.4.2-1.81.15-.24.34-.44.41-.44s.57.71.57,1c0,.13.06.24.14.24s.1-.14,0-.39c-.2-.92,0-4.21.32-4.39S13,5.46,13,5.91c0,.1.05.17.12.17s.24.26.4.57c.25.5.31.55.53.43s.47,0,.62.66A2.53,2.53,0,0,1,13.5,10.6a4.05,4.05,0,0,0-.89.81,6.11,6.11,0,0,0-1.06,1.66,1.19,1.19,0,0,1-.26.5c-.31.4-.24.51.15.23a1.22,1.22,0,0,1,.58-.2c.23,0,.29.07.29.35s-.3.92-1.14,2c-.65.86-.71.91-1.19,1a3.93,3.93,0,0,0-1.49,1.83,2,2,0,0,0,.34.72,6.22,6.22,0,0,1,.58,1.12,1.59,1.59,0,0,1,.1,1.22c-.08.31-.2.77-.26,1L9,24a4.93,4.93,0,0,0-.07,1.47A8.52,8.52,0,0,0,9.61,28a3.92,3.92,0,0,1,.28.6,4.15,4.15,0,0,0,.45.83,9.9,9.9,0,0,1,.55.89c.41.78,1,1.45,1.09,1.21a22.13,22.13,0,0,0,.7-2.7A10.27,10.27,0,0,1,13,27.51c.09-.15.42-3,.59-5.05.14-1.81.45-2.58,1.35-3.38.38-.33.56-.57.51-.7a.26.26,0,0,0-.21-.19c-.07,0-.13-.29-.13-.64a13.68,13.68,0,0,0-.17-1.75c-.53-3.3-.62-5-.3-5.36a.83.83,0,0,0,.22-.37c0-.2.72-.78,1.22-1,.24-.1.43-.25.43-.35a2.85,2.85,0,0,0-.7-.74c-.71-.59-.88-.93-.75-1.46A.52.52,0,0,0,15,6a5.28,5.28,0,0,1,0-2.6,3.13,3.13,0,0,1,1-1.65,1.37,1.37,0,0,0,.43-.37.76.76,0,0,1,.42-.29.31.31,0,0,0,.26-.2A2.29,2.29,0,0,1,18.36.23a1,1,0,0,1,.44.14c.19.12.3.11.55,0A2.81,2.81,0,0,1,20.24,0a1.76,1.76,0,0,1,1.35.32l.76.41.38-.28A2.35,2.35,0,0,1,24.27.07a3.07,3.07,0,0,1,1.54,1.58c0,.43.38.74.91.74a1.73,1.73,0,0,1,.78.23,4.07,4.07,0,0,1,1.24,1.46.56.56,0,0,0,.25.36c.18.13.27.39.32.94.09.87.21,1,.76,1.19.29.07.41.19.44.41a1.22,1.22,0,0,0,.28.57c.32.35.57,1.09.41,1.19A1.24,1.24,0,0,0,31,9.3a1.23,1.23,0,0,0,.72,1.38,2,2,0,0,1,.73.83c.29.53.32.69.22,1.07A4.26,4.26,0,0,0,33,15.07c.35.73.75.92,1.34.64a2.52,2.52,0,0,1,.5-.2,2,2,0,0,0,.5-.32,1.69,1.69,0,0,1,.61-.32A5.29,5.29,0,0,0,37.64,13a2.72,2.72,0,0,1,.66-.86,2.22,2.22,0,0,0,.57-.69,7.1,7.1,0,0,1,1.4-2,3.23,3.23,0,0,1,1.45-1.12,3.66,3.66,0,0,1,2.6-.08,1.45,1.45,0,0,0,.63.22,4,4,0,0,1,2.14,1.21,1.34,1.34,0,0,0,.35.48.44.44,0,0,1,.16.34.41.41,0,0,0,.1.31,13.46,13.46,0,0,1,1.35,3,16.08,16.08,0,0,1,.76,5.48,46.56,46.56,0,0,1-1.58,10.71c-.35,1.5-1,3.93-1.11,4.14a10.73,10.73,0,0,0-.34,1.27,26.53,26.53,0,0,1-1,3.82A4.39,4.39,0,0,0,45.53,41a4.3,4.3,0,0,1-.15,1.6,4.42,4.42,0,0,0-.09,1.88,8.58,8.58,0,0,0,.17,1.65c.2.19,1.06-.43,2.28-1.64a9.91,9.91,0,0,1,1.39-1.24,1.49,1.49,0,0,1,.49.41c.33.37.4.39.7.26s.36-.12.68.28a1.5,1.5,0,0,1,.35,1c0,.63.39,1.21.63,1s.56-.14.82.2C53.22,46.94,52.87,47.53,52.05,47.66Zm-38-38.07a1.35,1.35,0,0,0,.17-1.34c-.17-.26-.25-.13-.45.66-.1.37-.21.81-.26,1C13.38,10.3,13.71,10.13,14.06,9.59ZM11.62,8.3a5.12,5.12,0,0,1,.13,1.07s0,.16.15.29c.29.33.5.11.73-.78a4.07,4.07,0,0,0,.07-2.09c-.14-.34-.23-.11-.31.82a4.28,4.28,0,0,1-.34,1.73,4.83,4.83,0,0,1,.13-1.85,2.68,2.68,0,0,0,.08-.93c0-.79,0-.86-.27-.83C11.57,5.79,11.39,7,11.62,8.3Zm-.89,3.53c.06-.47.14-.65.32-.69s.24-.18.24-.58a1,1,0,0,0-.13-.59c-.07-.05-.12.08-.12.31s-.06.39-.13.39-.11-.13-.08-.29a3.72,3.72,0,0,0-.41-1.65c-.08-.08-.2,0-.35.22s-.21.46-.08,1.59C10.22,12.46,10.57,13.07,10.73,11.83Zm-.46,4.07c0,.23.45-.09,1.07-.78.79-.88.8-1.11,0-.63A3.13,3.13,0,0,0,10.27,15.9Zm-3.2-4.21A2,2,0,0,0,7.51,11c.4-.89.63-2.65.33-2.55C7.21,8.61,6.49,11.69,7.07,11.69Zm-.4-6.47c0-.08,0-.16-.08-.16-.24,0-.65.8-.65,1.27s.13.41.44-.37C6.51,5.64,6.64,5.31,6.67,5.22Zm0,.46c-.32,1,.69.55,1.12-.45.25-.61.22-.71-.18-.62A1.48,1.48,0,0,0,6.69,5.68ZM5.18,7a2.44,2.44,0,0,0-.49-.64,1.2,1.2,0,0,0-1.21-.51c-.4,0-.72,0-.72.11s.44.5,1.21.82S5.18,7.18,5.18,7Zm.51-2.89c0-.17,0-.17.19,0a.58.58,0,0,1,.19.39c0,.32.08.31.46-.1a.72.72,0,0,0,.25-.61,2.77,2.77,0,0,1-.07-.61c0-.41-.27-.46-.6-.11S5.53,3.39,5,3,4.1,2.55,3.84,3,3.66,3.3,4,4s.87,1.34,1.17,1.35c.08,0,.24-.23.35-.51A2.68,2.68,0,0,0,5.69,4.09Zm.44,6.66c-.1-.94-.24-1.08-.37-.39s.09,1.6.34,1.35A2.08,2.08,0,0,0,6.13,10.75ZM2.48,9.06c0-.24-.43-.52-.55-.4s.32.61.48.61S2.5,9.17,2.48,9.06ZM2.34,29.58a8,8,0,0,0-.72,2c-.13.57-.13.65.07.8s.27.12.32.07A8,8,0,0,0,2.25,31,9.13,9.13,0,0,0,2.34,29.58Zm41,67c.06-.15,0-.29-.2-.44s-.51-.2-.4.12C42.91,96.78,43.19,96.92,43.32,96.57Zm2.37-.78c0-.17-.15-.28-.28-.21s0,.31.16.31A.12.12,0,0,0,45.69,95.79ZM46.42,97c-.08-.66-.22-.85-.54-.72s-.21.18-.14.73c.11.81.16.87.48.7S46.47,97.43,46.42,97Zm.54-.14c0-1-.83-2.19-1.58-2.19-.2,0-.33,0-.29.08s0,.19-.13.32-.17.28-.06.39.15.09.15,0,.17-.23.37-.35c.37-.22.38-.22.64.15a3.49,3.49,0,0,1,.4,1.05c.07.38.16.76.19.85C46.74,97.42,47,97.18,47,96.81Zm-3.15-2.74c.18.18.26.19.52.05a.82.82,0,0,1,.77,0,1.39,1.39,0,0,0,.69.08.63.63,0,0,1,.48.11c.27.21.44.25.43.1s-.19-.36-.67-.65a1.68,1.68,0,0,0-1.32-.23C43.75,93.58,43.49,93.75,43.81,94.07Zm-1.44,0c0,.25.05.31.21.25s.22,0,.27.18.17.32.39.1.15-.09.15.14,0,.29.39.24.42,0,.45,0,.31.13.51-.07a.66.66,0,0,0,.18-.32c0-.19-.42-.18-.6,0s-.17.1-.23-.06a.43.43,0,0,0-.38-.22.39.39,0,0,1-.36-.19A.46.46,0,0,0,43,94c-.18,0-.32-.06-.32-.13a.12.12,0,0,0-.13-.12C42.43,93.73,42.37,93.88,42.37,94.06Zm2.69-57c-.23,0-.39.23-.39.58s.35.22.5-.06S45.33,37,45.06,37Zm-.88,9.47a.66.66,0,0,0-.17.65c.05.5.16.55.46.25s.46-.64.32-2.5c-.11-1.44-.18-1.85-.35-2-.4-.31-.47-.1-.5,1.48s0,1.55.22,1.55S44.49,46.23,44.18,46.51Zm-1.43-3.1c-.29,0-.45.67-.32,1.33.07.39.12.44.44.41l.36,0,.07-1.53a8,8,0,0,0,0-1.62,1.65,1.65,0,0,0-.46-.17c-.36-.09-.36-.09-.28.4a1.24,1.24,0,0,0,.33.67C43.17,43.08,43.08,43.41,42.75,43.41Zm.49,2.9a.83.83,0,0,0,0-.61l-.09-.44L43,45.6C42.63,46.11,42.88,46.74,43.24,46.31Zm0,1.32c.08.13.11.13.16,0a.24.24,0,0,0,0-.24C43.21,47.26,43.11,47.46,43.21,47.63Zm.18-6.7a.46.46,0,0,0,.13-.33c0-.14-.06-.25-.13-.25s-.12.15-.12.33S43.32,41,43.39,40.93Zm0,7.31c0,.31.07.34.18.08a.21.21,0,0,0-.06-.26C43.45,48,43.39,48.1,43.39,48.24Zm.24-8.52c0-.19,0-.27-.13-.23a.43.43,0,0,0-.21.34c0,.2,0,.28.13.24A.48.48,0,0,0,43.63,39.72Zm0-.9c.08-.27-.08-.44-.29-.32s-.15.58,0,.58S43.65,39,43.68,38.82Zm.08-1c.31-.82.31-.86,0-.86s-.34,0-.27.54c0,.3.07.56.07.58S43.67,38,43.76,37.77Zm1.31,2.15c.08-.33.07-.35-.19-.28a2.19,2.19,0,0,1-.37.07c-.12,0-.13.44,0,.56S45,40.28,45.07,39.92ZM45,41.05c0-.1-.13-.19-.2-.19s-.18.8,0,.94S45.09,41.28,45,41.05Zm-.63-6.69a2.33,2.33,0,0,0-.85.5c0,.28.28.33.65.14C44.36,34.89,44.53,34.36,44.37,34.36ZM43.83,36a1,1,0,0,0-.18.36c0,.17.28,0,.43-.2S44,35.66,43.83,36Zm.46,12.59c0,.18.11.11.5-.31s.44-.58.37-.6S44.29,48.26,44.29,48.54Zm.64-10.1c-.27,0-.58.44-.45.64s.18.16.45-.16S45.24,38.44,44.93,38.44ZM39.76,11.31c.11,0,.19-.06.19-.13s.18-.13.39-.13.38-.06.38-.12-.73-.15-.95.07S39.52,11.31,39.76,11.31ZM34.11,17.2a8.42,8.42,0,0,1,1,1.24,4.4,4.4,0,0,0,1,1.07,3.94,3.94,0,0,1,1.43,1.27c.21.34.23.56.16,1.51-.08,1.18,0,1.5.25,1.5.09,0,.18.13.2.29a.41.41,0,0,0,.3.33c.3.06.47.27.38.5a7.22,7.22,0,0,0,1,3.12c.65,1.28.9,1.67.9,1.42a25.26,25.26,0,0,0-.53-2.83A9.86,9.86,0,0,1,40,24.9a10.44,10.44,0,0,0-.13-1.58c-.08-.24,0-.29.38-.36s.68,0,.41.25-.39.69-.21.91.12.23,0,.33-.1.22,0,.38.37.3.37,0,0-.18.13-.08.07.31-.07.71-.16,1,.07,1a.25.25,0,0,0,.18-.13.31.31,0,0,1,.2-.13c.2,0,.14.33-.13.67a.75.75,0,0,0-.2.5c0,.09.09.33.13.53s.11.34.26.21a.5.5,0,0,0,.19-.33.16.16,0,0,1,.14-.18c.16,0,0,.46-.22.83s-.23,1.16,0,1.28.22,0,.32-.15c.24-.33.22-.18-.06.48a1.93,1.93,0,0,0-.07,1.5s.18,0,.32-.09c.48-.3.51-.15.07.32a1.37,1.37,0,0,0-.46.83c0,.33,0,.35.35.27s.34-.08.13.17c-.36.41-.25,1.06.17,1.06s.32.19.1.33-.12.35-.06.9a2.51,2.51,0,0,1,0,1.07c-.16.28-.08.5.18.5s.2-.43.3-1.49c.07-.83.14-2.22.14-3.09a59.52,59.52,0,0,0-.62-7.95,8.63,8.63,0,0,1-.17-2.47,4.74,4.74,0,0,1,.17-1.3,1.36,1.36,0,0,1,.4.24c.27.22.28.26.09.48s-.4,1-.28,1.11a.42.42,0,0,0,.32-.06c.24-.13.24-.12,0,.17a1.19,1.19,0,0,0-.12.9c.09.66.09.65.44.46s.32,0,.06.34a1,1,0,0,0-.12,1c0,.15.17.18.39.12s.31-.05.19.18a.85.85,0,0,1-.32.33c-.09,0-.15.2-.14.36s0,.38,0,.47.1.15.32.1c.44-.11.49.09.13.51a1.78,1.78,0,0,0-.31.43c0,.2.25.41.41.35.34-.13.35.05,0,.49s-.4,1.24.11,1.3.46.21.19.32a1.16,1.16,0,0,0-.38.44c-.22.37-.21.38.09.54s.4.35,0,.53a.49.49,0,0,0-.32.51c0,.24.07.36.19.36s.24.14,0,.45a1.26,1.26,0,0,0-.19.67c0,.41,0,.42.47.39l.48,0,.22-1.53A30.74,30.74,0,0,0,44.94,29a11,11,0,0,1,.15-2.2,17.9,17.9,0,0,0-.49-4.81A16.43,16.43,0,0,1,44,18.6c.15-.15.26.13.28.68a1.47,1.47,0,0,0,.23.81,11.56,11.56,0,0,1,.76,3.22c.06.36.16.61.25.61.36,0,.46.65.46,3a23.28,23.28,0,0,1-.18,3.33c-.09.55-.24,1.69-.33,2.53a15,15,0,0,1-.26,1.85,4.49,4.49,0,0,0-.17.79,4.31,4.31,0,0,1-.14.73c-.06.2,0,.27.27.34a.47.47,0,0,0,.58-.2,1,1,0,0,0,.23-.54c0-.21-.06-.24-.31-.18s-.55-.1-.29-.26a1.37,1.37,0,0,0,.54-1.07c-.05-.14,0-.25,0-.25s.14-.12.14-.26a.33.33,0,0,1,.24-.33c.26-.07.57-.63.45-.83a.22.22,0,0,0-.26-.05c-.1,0-.18,0-.18-.07a3.82,3.82,0,0,1,.73-1.11.72.72,0,0,0,.17-.43c0-.26,0-.26-.26,0s-.64.19-.64-.06c0-.08.13-.19.29-.25.46-.17,1-.73.91-1a.32.32,0,0,0-.25-.19c-.24,0-.23-.12.07-.61s.32-.5,0-.58-.21-.34.13-.34a.5.5,0,0,0,.36-.16A8.25,8.25,0,0,0,48.36,26c0-.22-.29,0-.54.37a1.35,1.35,0,0,1-.38.45c-.2,0-.09-.34.29-.89a5.16,5.16,0,0,0,1-2.17V23.4l-.44.34c-.33.25-.45.29-.45.15a.56.56,0,0,1,.19-.35,3.88,3.88,0,0,0,1-2.06c.1-.82,0-.94-.35-.36-.12.21-.29.38-.37.38s-.21-.21,0-.32a4.2,4.2,0,0,0,.51-.83c.38-.76.54-2,.25-2-.07,0-.24.23-.38.51s-.32.51-.4.51-.11,0-.09-.09c.75-1.55.78-1.63.78-2.65a4.75,4.75,0,0,0-.14-1.33c-.14-.36-.16-.34-.41.74-.18.78-.47,1.42-.65,1.42s0-.17.08-.37a5.73,5.73,0,0,0,.31-1.22,1.82,1.82,0,0,1,.34-1c.2-.14.21-.22.07-.68-.19-.63-.38-.77-.62-.45s-.18.21-.1-.1-.29-1.72-.48-1.53-.18.39-.21,1.2-.28.59-.27-.13c0-.33,0-.69,0-.79s0-.5,0-.87a1.42,1.42,0,0,0-.22-1c-.31-.42-.45-.39-.62.12-.3.87-.67.49-.47-.48.11-.48.1-.6-.06-.66a.27.27,0,0,0-.3.1c-.08.14-.14.1-.23-.14a1,1,0,0,0-.75-.69c-.28-.08-.29-.06-.21.46s.07.54-.13.28a3.13,3.13,0,0,1-.32-.6.57.57,0,0,0-.88-.22c-.13.08-.1.18.16.46s.36.6,0,.34a2.79,2.79,0,0,0-1.46-.15c-.4,0-.36.21.06.32s.35.09.06.22-.36.29-.09.4.21.36-.19.27-.37-.08-.32.38,0,.48-.19.54-.25.08,0,.24.15.17-.41.18c-1.17,0-1.68.29-.62.34a1,1,0,0,1,.76.26c.27.36.22.38-.47.27s-1.32,0-1.53.23-.09.32.58.39a1.44,1.44,0,0,1,.73.25c.13.16,0,.18-.67.17-.45,0-.89,0-1,0-.28,0-.18.5.12.66s1,.76,1,.92-.1,0-.22-.06a4,4,0,0,0-1.35-.62c-.17,0-.81.6-.71.67l.53.35c.69.46.61.7-.12.31s-.93-.38-1.45-.12-.47.36-.06.55a.48.48,0,0,1,.32.47c0,.39-.08.4-.36,0-.16-.19-.41-.28-1-.32a2.16,2.16,0,0,0-.95.07C33.68,16.76,33.72,16.85,34.11,17.2Zm4.53,35.88c.36-.36,1.44.53,1.45,1.18A6.2,6.2,0,0,0,40.36,56l.12.32.17-.32A6.28,6.28,0,0,0,41,55c.1-.53.2-.71.32-.66s.7-.18.7-.39a.5.5,0,0,1,.18-.32.93.93,0,0,0,.16-.72c0-.49,0-.56-.31-.56s-.39-.32-.09-.43.22-.32-.15-.36-.53-.3-.16-.4.24-.42-.15-.36c-.62.09-.79.08-.85-.08s.14-.24.41-.35.45-.28.45-.39-.09-.19-.51-.12-.5,0-.5-.12.15-.3.35-.42a.62.62,0,0,0,0-1.07c-.23-.18-.25-.24-.1-.42a.62.62,0,0,1,.41-.2c.18,0,.24-.09.24-.38s0-.38-.32-.38-.32-.07-.32-.26.08-.25.3-.25a.65.65,0,0,0,.46-.19c.22-.26.11-.64-.19-.64s-.32-.37,0-.42a.38.38,0,0,0,0-.73c-.35-.11-.32-.29.06-.47a.44.44,0,0,0,.3-.58c0-.05-.13-.08-.26-.05s-.23,0-.23-.23.08-.26.18-.26.6-.37.51-.52a.55.55,0,0,0-.38-.12c-.41,0-.39-.17,0-.37l.35-.16-.43-.18c-.48-.2-.44-.36.11-.48s.52-.45.13-.55-.32-.35.09-.54l.35-.16-.35-.19c-.36-.18-.44-.65-.11-.58s.32-.36,0-.56-.35-.56,0-.56.32-.26,0-1.14c-.15-.39-.32-.86-.4-1s-.22-.35-.37-.35c-.3,0-.31-.33,0-.51s.19-.16-.13-.44-.46-.71-.15-.71.18-.42-.15-.57a.82.82,0,0,1-.29-1c.11-.13.07-.28-.2-.63s-.31-.49-.2-.61,0-.27-.27-.57-.37-.43-.25-.57.09-.22-.09-.39a.53.53,0,0,1-.18-.51c.06-.34-.27-.74-.53-.64s-.39-.17-.23-.37-.26-1.23-.47-1.23-.12-.19-.11-.41a.57.57,0,0,0-.21-.54c-.61-.37-.65-.42-.46-.64s.14-.27,0-.53-.2-.31-.6-.23-.45.07-.41-.21a.41.41,0,0,1,.36-.37c.53-.13.37-.41-.36-.62l-.68-.18-.45.43c-.54.51-1.11,1.67-.63,1.27a.42.42,0,0,1,.37-.07.25.25,0,0,0,.28-.06c.1-.16.45-.19.45,0s-.15.18-.32.28a2.14,2.14,0,0,0-.65.88l-.44.93c-.33.61,0,.83.36.22.12-.21.28-.38.36-.38s.14.71-.06,1.19c-.39,1-.32,1.38.18,1.05s.58-.19.17.66c-.24.5-.25.58-.08.75s.22.16.45-.14.48-.14.21.33-.34.64-.19,1l.15.33.3-.28c.38-.36.53-.15.26.38a.76.76,0,0,0,.14,1c.17.14.23.13.38-.08s.35-.15.17.36a.69.69,0,0,0,.07.8l.23.35.27-.34a1.08,1.08,0,0,1,.37-.34c.19,0,.08.49-.18.82s-.25.4-.13.65.21.28.31.24.16,0,.12.29a2.58,2.58,0,0,0,.36,1.18l.42.83L38.7,40a56.73,56.73,0,0,0,.48,6.41,8,8,0,0,1,0,2c-.08.72-.15,1.52-.17,1.78a4.9,4.9,0,0,1-.51,1.69A5.2,5.2,0,0,0,38.3,54a.67.67,0,0,0,.29-.23c.17-.18.18-.26.06-.38S38.54,53.18,38.64,53.08Zm-1.87,8a.75.75,0,0,1,.11-.42,11.53,11.53,0,0,0,.8-1.9c.2-.71-.23-.06-.59.89-.18.49-.44,1.12-.58,1.4a6,6,0,0,0-.32.87.87.87,0,0,1-.31.47,1.24,1.24,0,0,0-.37.66,4.08,4.08,0,0,1-.23.69c-.17.23-.58.33-.69.16s-.17-.12-.43,0-.69.86-2,3.72c-.56,1.2-.13,1.25.49.06.15-.29.45-.85.66-1.23s.46-.9.56-1.15c.35-.91.79-1.14,1-.54.14.33.14.34.19.06s.1-.29.16-.29,0,.21,0,.45a.83.83,0,0,0-.05.54c.15.15.52-.16.57-.49a1.13,1.13,0,0,1,.14-.43,1.6,1.6,0,0,0,.19-.58c0-.24.17-.67.26-1A9.54,9.54,0,0,0,36.77,61.08Zm-.1,3.4a3.28,3.28,0,0,0-.1,1c0,.5-.06,1.27-.11,1.7-.11.82,0,1.26.18,1.12a7.36,7.36,0,0,0,.13-2A7.43,7.43,0,0,0,36.67,64.48Zm-.92,1.35c-.07,0-.13.11-.13.24a1.57,1.57,0,0,1-.07.45c0,.11,0,.2.05.2s.16-.09.2-.2C35.92,66.21,35.89,65.83,35.75,65.83Zm-1.63,0c0,.18,0,.27.16.27s.2-.11.2-.33C34.48,65.36,34.18,65.4,34.12,65.81Zm-.41,1.11c0-.14-.24-.19-.32-.07s0,.12.12.12S33.71,67,33.71,66.92Zm-.25,1a.27.27,0,0,0-.13.2.12.12,0,0,0,.13.12c.07,0,.13-.09.13-.2S33.53,67.89,33.46,67.93Zm-1.68-2.09a.85.85,0,0,0,.35-.42,1,1,0,0,1,.33-.46c.13-.09.2-.22.16-.28s0-.12.07-.12.13.15.14.35.11.13.51-.67A5.19,5.19,0,0,1,34,63.17a.78.78,0,0,1,.44.16c.29.19.32.19.51-.08s.25-.53,0-.44c-.61.24-.35-1.08.35-1.82a6.71,6.71,0,0,0,1.28-2c.08-.29.06-.28-.27.11a6.78,6.78,0,0,0-.57.81,6,6,0,0,1-.67.87,4,4,0,0,0-.46.55A11.12,11.12,0,0,1,33,63.47c-.39.13-1,.79-1,1.06a.66.66,0,0,1-.2.42,2.52,2.52,0,0,0-.46.68,12.94,12.94,0,0,1-.75,1.16,12.21,12.21,0,0,0-.89,1.39c-.38.71-.39.76-.17.92s.43.21.45-.12h0a5.42,5.42,0,0,0,0-.57c0-.33.19-.37.49-.09s.24.17.38,0,.12-.29,0-.6-.1-.44.06-.6a5.81,5.81,0,0,0,.38-.46c.17-.25.18-.24.18.1s.06.32.14.28.09-.29.05-.57S31.56,66,31.78,65.84ZM28.56,76.06c-.06-.16-.12-.17-.22-.07s-.1.2,0,.36S28.69,76.4,28.56,76.06Zm-.32,4c-.21.31-.16.66.09.61a.31.31,0,0,0,.25-.23.58.58,0,0,0-.09-.38C28.38,79.93,28.35,79.93,28.24,80.1ZM28.17,79a.19.19,0,0,0,0,.38.19.19,0,0,0,0-.38Zm0-1.58a.39.39,0,0,0-.67-.2c-.22.17-.13.47.16.54S28.25,77.66,28.21,77.37Zm-.2-1.3a.85.85,0,0,0-.74-.56c-.16,0,0,.64.17.75C27.85,76.51,28.08,76.43,28,76.07Zm-.16-1.19c0-.24-.34-.52-.63-.52s-.13.47.16.61S27.85,75.16,27.85,74.88Zm-1.73-10a.31.31,0,0,0,.2-.26c0-.13-.19-.17-.76-.17s-.77,0-.77.18S25.69,65,26.12,64.86Zm-1.27.59c-.19,0-.31.07-.31.19s.06.22.48.11S25.27,65.45,24.85,65.45ZM26,64c.2,0,.31,0,.22-.06a.7.7,0,0,0-.38,0C25.73,64,25.8,64,26,64Zm.48-.84a3.06,3.06,0,0,0,.15-.59l.09-.5-.46.4a1.4,1.4,0,0,1-.83.41.5.5,0,0,0-.44.19c-.06.16.07.19.68.19A1.84,1.84,0,0,0,26.49,63.18Zm-.32-2.12a2.11,2.11,0,0,1-.72.15c-.25,0-.35.41-.13.56s.69.11,1.13-.25S26.88,60.81,26.17,61.06ZM25.7,50.51c0-.67,0-1,.13-1s.12-.16.06-.5,0-.53.18-.64a.48.48,0,0,1,.38-.07.28.28,0,0,1-.08.5c-.16.06-.19.19-.14.57s0,.56-.14.7-.17.24-.05.35a.3.3,0,0,1,0,.35c-.28.54-.25,2.36,0,2a12.32,12.32,0,0,0,.32-1.27,16.15,16.15,0,0,1,1.48-4.46,13.43,13.43,0,0,0,1.34-3.6.72.72,0,0,1,.15-.44.25.25,0,0,0-.2-.42,5.14,5.14,0,0,0-.84,1.88c0,.18-.49.48-.6.37a4.14,4.14,0,0,1,.38-1.51,1,1,0,0,0,.05-.54c-.13-.35-1.58-.22-2.42.21-.25.13-.41,0-1-.56-.32-.35-.33-.35-.74-.14s-.43.19-.66,0-.55-.19-1,.46-.49.92-.26,1.06.15.32-.06.32a.46.46,0,0,0-.32.25c-.16.31-.17.56,0,.46.43-.26.07,1-.38,1.33a.45.45,0,0,0-.2.56c.05.18.13.33.18.33a2,2,0,0,0,.46-.59c.4-.63.61-.58.28.06S21.66,48,21.84,48s.16-.15.21-.32a.81.81,0,0,1,.35-.46c.24-.14.26-.12.17.16-.28.94-.32,1.64-.09,1.63s.41-.63.41-.85,0-.16.11-.16.26.51.13.85a2,2,0,0,0,.08,1.57c.17.14.22.14.32,0a1.13,1.13,0,0,0,.12-.48c0-.18.06-.28.15-.25a3.61,3.61,0,0,1,.1,2.08c-.15.18-.06.69.13.69s.15-.17.19-.38c.09-.41.28-.6.44-.43a6.4,6.4,0,0,1-.06,1.63c-.15,1.36-.15,1.73,0,1.73a2.22,2.22,0,0,0,.38-.12c.4-.15.46-.64.08-.64s-.43-.25,0-.75S25.74,52.21,25.7,50.51Zm-.51,7.2c-.27.18-.23.35.08.35a.33.33,0,0,0,.25-.2C25.63,57.57,25.48,57.5,25.19,57.71ZM23.62,55.5a.32.32,0,0,0,0,.45c.16.19.19.19.42,0s.24-.28,0-1.31a9.58,9.58,0,0,0-.85-2.73.49.49,0,0,1-.12-.37,1.45,1.45,0,0,0-.36-.73,2.37,2.37,0,0,1-.46-.8,2.65,2.65,0,0,0-.29-.69,9.59,9.59,0,0,1-1.23-2.74,2.37,2.37,0,0,0-.2-.77A4.72,4.72,0,0,1,21,43.55a2.72,2.72,0,0,0,.2-.44A3.28,3.28,0,0,0,20,42.94s0,.25.15.48.2.47,0,1.12a9.34,9.34,0,0,0-.59,2.76c0,.76.09.9.4.62s.21-.17.1.34-.08.88.25.88.46.22.26.46,0,.5.39.31.32-.12.43,0,.08.19-.14.34-.36.45-.09.68.23.13.34,0,.61-.18.61,0a.56.56,0,0,1-.28.36c-.41.28-.22.66.27.55s.61.13.2.39-.36.76.2.4c.21-.13.28-.12.38,0s0,.26-.21.46-.31.34-.24.55.15.26.42.2a.93.93,0,0,1,.52,0,.29.29,0,0,1-.17.52c-.11,0-.2.11-.2.26s.06.24.3.18S23.84,55.15,23.62,55.5Zm-1.49-1.65c-.12,0-.26.6-.16.7a.21.21,0,0,0,.34-.06C22.41,54.33,22.27,53.85,22.13,53.85ZM20.7,51.18c-.06,0-.11.11-.11.25s.19.35.3.08S20.88,51.18,20.7,51.18ZM19.24,36.56c-.11-.38-.28-.36-.46.06a2.52,2.52,0,0,1-.33.57.56.56,0,0,0-.09.49l.09.27.3-.28c.16-.15.36-.24.43-.19S19.36,37,19.24,36.56Zm-.24,2c-.23,0-.3.36-.16.79s.3.46.41.11S19.2,38.57,19,38.57Zm-.39,4.19a.42.42,0,0,0-.3-.12c-.17,0-.3-.18-.45-.66a4.81,4.81,0,0,0-.43-1,4.58,4.58,0,0,1-.66-1.53c0-.35-.14-.64-.3-.64s-.15.31-.13,1A16,16,0,0,1,16,43.09a2.29,2.29,0,0,0-.07.73c.1.16.6.1.86-.09s.22-.23.09-.54a2.83,2.83,0,0,1-.1-1.5c0-.21.07-.43.08-.48s.07-.09.14-.09.16.58,0,.89a.62.62,0,0,0,0,.55c.11.29.18.31.89.31C18.33,42.87,18.65,42.82,18.61,42.76Zm-1.55,1c-.19.25-.07.51.13.31s.34-.18.34,0,.22.22.63-.31a2,2,0,0,0,.39-.63C18.55,43,17.26,43.49,17.06,43.75Zm-1.36-5c-.1.25,0,.43.25.43s.18-.12.18-.31C16.13,38.53,15.83,38.45,15.7,38.77ZM16,38c.1,0,.19-.21.22-.4s0-.34-.1-.34-.13.09-.13.19a1.33,1.33,0,0,1-.09.4C15.86,38,15.89,38.08,16,38Zm1.38-2.71c-.34.83-.19,1.19.2.44.11-.21.24-.38.29-.38a6.16,6.16,0,0,0,.48-2,6.79,6.79,0,0,1,.11-.83c.1-.49-.14-1.41-.39-1.49s-.14.15-.11.65a3.37,3.37,0,0,0,.11.82.85.85,0,0,1,0,.48c-.07.2-.21.74-.33,1.2S17.46,35.18,17.4,35.32ZM18,30.16c.1,0,.18-.05.18-.11s-.48-.56-.63-.51S17.75,30.16,18,30.16Zm-.21,8.92c-.13,0-.16.51,0,.81s.3.24.3-.1S17.92,39.08,17.78,39.08Zm-.34-.41c.09,0,.17-.2.19-.37s0-.3-.16-.06S17.22,38.74,17.44,38.67Zm0-1.63c.07,0,.12-.13.12-.29s0-.25-.12-.09S17.25,37,17.41,37Zm1.81-3.42a.37.37,0,0,0-.26.28,1.08,1.08,0,0,1-.28.46,1.91,1.91,0,0,0-.32,1c-.16,1.41-.13,1.47.36.9a2.48,2.48,0,0,0,.57-1.3C19.51,33.8,19.49,33.57,19.22,33.62Zm.41-1.84c.05-.22.15-.68.23-1,.12-.51.12-.63,0-.73s-.63-.14-.63.08,0,.18-.2,0c-.53-.54-.82,0-.31.56a2.94,2.94,0,0,1,.53,1C19.4,32.3,19.52,32.35,19.63,31.78ZM19.57,36a6.79,6.79,0,0,0,.82,3.09,5.55,5.55,0,0,1,.46,1.11,2.33,2.33,0,0,0,.35.8c.21.24.67.31.67.09a5.49,5.49,0,0,0-.39-.89,3.71,3.71,0,0,1-.38-1,.63.63,0,0,0-.11-.35,2.1,2.1,0,0,1-.25-.69c-.08-.32-.23-.92-.34-1.34a6.83,6.83,0,0,1-.16-1.66c0-.51,0-.9-.09-.92s-.15.11-.17.28-.1.29-.16.25a.13.13,0,0,1-.05-.19.07.07,0,0,0-.06-.12C19.55,34.49,19.54,34.68,19.57,36Zm.59-3.47a.27.27,0,0,0,0-.25c0-.1-.07-.07-.08.08S20.12,32.59,20.16,32.55Zm2-1.51c.31-.49-.16-.71-.57-.26a4.74,4.74,0,0,0-.71,2.41,6,6,0,0,1-.19,1.38,3,3,0,0,0,.06,2.2c.22.47.28.53.45.4s.19-.1.19.23a.73.73,0,0,1-.12.46c-.07,0-.08.22,0,.42.21.7.27.77.55.7s.26,0,.18.46.06,1,.3,1c.07,0,.13-.09.13-.19s.05-.19.12-.19.13.2.13.44a.84.84,0,0,0,.26.67.77.77,0,0,1,.25.37c0,.35.52.32.9,0l.37-.37-.56-.75c-.8-1.08-1.49-3.32-1.09-3.56.2-.13.38.16.38.6a2.4,2.4,0,0,0,.13.68c.13.33.14.34.38.12s.34-.07.11.31c-.12.18-.12.33,0,.63s.32.5.49.19c.09-.15.12-.06.12.34s.07.61.27.77a2,2,0,0,1,.47.77c.23.66.52,1,.86,1,.18,0,.22,0,.15-.22A8.1,8.1,0,0,1,26,40.72c0-.93,0-1.11.15-1.17s.2,0,.2.48.07.61.23.73a1.51,1.51,0,0,1,.4.57c.25.63.43.73.95.54s.42-.18.25-.35A.59.59,0,0,1,28,41a1.21,1.21,0,0,0-.23-.84c-.36-.57-.41-.95-.13-.95.11,0,.19,0,.19.11a13.38,13.38,0,0,0,2.3,3.08c.06,0,.17-.1.24-.23s.11-.35-.83-1.38S27.18,37,27.29,36.47s.13-.52.36-.33a.53.53,0,0,0,.46.07c.25-.08.26-.05.18.37a1,1,0,0,0,.12.77,1.37,1.37,0,0,1,.21.58.82.82,0,0,0,.23.49,1.37,1.37,0,0,1,.32.56c.13.51.5.89.76.79a.26.26,0,0,0,.17-.36c-.11-.42-.81-2.39-1-2.68a2.37,2.37,0,0,1-.17-.65c0-.31-.09-.38-.35-.38s-.34-.09-.47-.61a2.24,2.24,0,0,0-.35-.8.67.67,0,0,1-.2-.33A5.31,5.31,0,0,0,27,33c-.5-.71-.65-.83-1.07-.9s-.61-.22-1-.72a6.18,6.18,0,0,1-1.12-1.59c0-.18-.48-.57-.55-.45a21.24,21.24,0,0,0-.15,2.2c0,1.16-.11,2.32-.13,2.59-.07.77-.22.74-.17,0,0-.45,0-.7-.11-.74s-.17.13-.19.43-.11.5-.26.53-.21,0,0-.49c.23-.68.23-.89,0-.89s-.24-.55,0-.77a2.24,2.24,0,0,0,.63-1.57c0-.36.08-.94.13-1.29s.05-.59,0-.51a3.3,3.3,0,0,0-.35,1.48c.13.21-.09,1.26-.26,1.26S22,31.26,22.13,31Zm.32,1.1c-.14.36-.08.69.12.69a.18.18,0,0,0,.19-.15,2.53,2.53,0,0,1,.08-.45C22.93,31.89,22.58,31.81,22.45,32.14Zm3.83-.83c.09,0,.17-.12.17-.26s-.05-.25-.11-.25-.2-.22-.33-.49c-.24-.54-.77-1.17-1-1.17s-.11.13-.09.29a.8.8,0,0,1-.05.43C24.79,30,26,31.31,26.28,31.31Zm2.7.07c-.27.08-.32.31-.07.31a.73.73,0,0,0,.37-.16,5.44,5.44,0,0,0,.93-1.77.42.42,0,0,0-.21-.54c-.4-.28-.54-.08-.29.42s.16.68-.1.42-.48-.17-.48.23.18.52.29.22c0-.09.09-.13.13-.09S29.23,31.3,29,31.38Zm2.11,4.06c.14-.37.08-.51-.24-.54s-.32,0-.32.27C30.53,35.65,30.93,35.84,31.09,35.44Zm-.31.83c-.07,0-.12.09-.12.2s.05.19.12.19.13-.09.13-.19S30.85,36.27,30.78,36.27Zm1.12-2.85a3.7,3.7,0,0,0,.59-2.29V30L32,30c-.48,0-.49,0-.8.75A6.93,6.93,0,0,1,30.53,32a5.05,5.05,0,0,0-1.14,2.67,8.24,8.24,0,0,0,.71,3.51,7,7,0,0,0,.52,1,3.24,3.24,0,0,0,0-.79c-.05-.44-.17-1.19-.28-1.67A3.81,3.81,0,0,1,30.24,35a9.81,9.81,0,0,1,1.3-3.58c.06,0,.24.1.4.33s.26.41.09.54a.83.83,0,0,0-.25.46c0,.27-.1.31-.42.28s-.37,0-.16.2a.85.85,0,0,1,.22.45.21.21,0,0,1-.42.06c-.05-.13-.1-.13-.22,0s-.13.23,0,.52C31,34.82,31.27,34.65,31.9,33.42Zm-1.75-2c-.21.05-.26.14-.21.34a.42.42,0,0,1-.17.46,1.18,1.18,0,0,0-.32.63c-.11.53-.06.49.72-.63s1-1.61.87-2c-.07-.17-.18-.31-.25-.31s-.29.25-.13.45.12.22,0,.37-.22.16-.29.11-.09,0,0,.21S30.36,31.34,30.15,31.4Zm1.62-1.83c.15.15.6,0,.64-.18s-.5-.89-.67-.89A1.87,1.87,0,0,0,31.77,29.57ZM33,32.17c-.08-.49-.3-.54-.3-.08a7.92,7.92,0,0,1-.65,1.6c-.68,1.39-.91,2.28-.63,2.45.13.08.13.3,0,1a4.38,4.38,0,0,0-.06,1.19c.08.29.12.24.43-.45a3.76,3.76,0,0,0,.36-1.31c0-.53.58-1.8.81-1.8A9.64,9.64,0,0,0,33,32.17Zm-.41,4.23c0,.41,0,.42.11.13a2.5,2.5,0,0,1,.27-.6c.09-.15.13-.32.08-.37S32.57,36,32.58,36.4Zm-.09,4.92a.51.51,0,0,0-.28-.26c-.17-.07-.16,0,0,.18S32.58,41.56,32.49,41.32Zm-1.13,2c.25.55.24.54.59.35s.24-.21.17-.48S32,42.73,32,42.6s-.43-.6-.62-.55S31.14,42.8,31.36,43.3Zm.89,1.77a2.54,2.54,0,0,1,.32.62,3.08,3.08,0,0,0,.86.78.34.34,0,0,0,0-.17,1.58,1.58,0,0,0-.41-.6,3.71,3.71,0,0,1-.6-1c-.12-.35-.27-.57-.37-.54S31.9,44.51,32.25,45.07Zm1.08-7.39a.12.12,0,0,0-.13.12.13.13,0,1,0,.26,0A.12.12,0,0,0,33.33,37.68Zm.09-10.16a.58.58,0,0,0,0-.32c0-.09-.07,0-.07.16S33.38,27.6,33.42,27.52ZM33.15,39.4c.09.51.15.7.25.7s0-.19,0-.42C33.25,39.05,33.05,38.79,33.15,39.4Zm.39,5.27c.31.57.38.23.09-.44-.17-.4-.23-.45-.27-.25A1.35,1.35,0,0,0,33.54,44.67Zm.05-16.17c.07,0,.12-.08.12-.19s-.05-.19-.12-.19-.13.09-.13.19S33.52,28.5,33.59,28.5Zm.25-3.56c0-.07,0-.13-.06-.13s-.09.06-.13.13,0,.13.06.13A.13.13,0,0,0,33.84,24.94Zm.36-1.5a7.51,7.51,0,0,1,.77-1c.34-.31.34-.46,0-.46s-.83.57-1.14,1.37C33.44,24.44,33.51,24.45,34.2,23.44Zm1-3.21a.78.78,0,0,0-.38.2c-.22.2-.24.2-.24,0s-1.33,1.12-1.66,1.8c-.42.86-.52,1.33-.36,1.79s.31.45.42-.15a2.27,2.27,0,0,1,.38-.8,2.16,2.16,0,0,0,.38-.62,4.94,4.94,0,0,1,.72-1C35.23,20.59,35.45,20.23,35.22,20.23ZM33.86,19a1.33,1.33,0,0,0-.44.35c-1.76,1.81-2.13,2.48-2.13,3.87,0,.8,0,.91.26,1a.53.53,0,0,1,.33.4c.16.73.33,1.16.43,1.1s.06-.23,0-.43a4.13,4.13,0,0,0-.25-.63,3,3,0,0,1-.14-1A2.43,2.43,0,0,1,32.38,22c.29-.49.43-.86.38-1a.3.3,0,0,1,.06-.33.53.53,0,0,0,.13-.39c0-.23.07-.31.27-.31s.24.06.19.2,0,.18.08.15a.45.45,0,0,0,.2-.36,1,1,0,0,1,.16-.43C34,19.38,34,19,33.86,19Zm-1.93,8.6c-.07-.05-.16,0-.21.12a.31.31,0,0,1-.26.2c-.1,0-.24.17-.31.38a1.19,1.19,0,0,1-.38.52.51.51,0,0,0-.24.47c0,.31,0,.35.41.35s.42-.05.49-.39a2.6,2.6,0,0,0,0-.79c0-.26,0-.41.09-.41s.14.09.14.2,0,.18.19.05S32.12,27.67,31.93,27.55Zm-1.27.27a1.34,1.34,0,0,0-.08-.26c-.11-.29-.31-.25-.31.05s.09.26.19.26S30.66,27.84,30.66,27.82Zm-.65.52c-.1.1-.09.21,0,.4s.34.35.45.07S30.2,28.15,30,28.34Zm-1,2.31c0-.14-.37-.29-.47-.19a.31.31,0,0,0,0,.27C28.61,30.93,29,30.87,29,30.65Zm-.69,1.88c-.25.06-.3.12-.21.29s.77.31.77,0h0C28.87,32.52,28.7,32.43,28.31,32.53Zm.52,2.31a2.43,2.43,0,0,1-.08-.61c0-.35-.32-.87-.45-.74a3.65,3.65,0,0,0,.49,1.64C28.85,35.13,28.87,35,28.83,34.84ZM21,30.48s-.05-.07-.1-.08-.53.82-.45,1S21,30.66,21,30.48Zm-.4,11.07c-.24-.21-.24-.2-.24.18a.58.58,0,0,0,.22.52c.28.16.4.07.33-.23A1.24,1.24,0,0,0,20.58,41.55Zm3.52,15.5c.15.25.5.06.55-.3s0-.35-.16-.35S24,56.86,24.1,57.05Zm1.59-3.33c-.16.29-.1.64.11.64.06,0,.15-.15.2-.33C26.11,53.58,25.89,53.36,25.69,53.72Zm-.13,2c0,.31,0,.37.13.22a1,1,0,0,0,.12-.41c0-.12,0-.22-.12-.22S25.56,55.44,25.56,55.67Zm0,4.27c-.4,0-.48.25-.11.4s.46.17.94-.06.41-.23.38-.82-.13-.89-.34-.89-.12.23-.08.63,0,.6-.05.56-.19,0-.28.07A.69.69,0,0,1,25.56,59.94ZM27,58.38c.21.24.38.24.38,0a2.79,2.79,0,0,0-.59-1.18c-.13-.13-.15-.23-.05-.32s.24,0,.49.21c.56.54.65.44.4-.45a.81.81,0,0,0-.38-.55c-.33-.1-.32-.35,0-.74l.28-.32.14.47c.08.26.2.45.28.44s.07,1.29-.18,2.29a2.36,2.36,0,0,0-.11.85,2.52,2.52,0,0,1-.06.79c-.39,2.2-.63,4.82-.44,4.82a4.54,4.54,0,0,0,.71-.61,1.93,1.93,0,0,0,.75-1.38c.07-.42.24-1.21.39-1.77s.31-1.2.35-1.43c.09-.45.16-.49.48-.31s.17.22-.13,1.12a8.36,8.36,0,0,1-.53,1.29c-.2.31-.25,1.18-.06,1.18s.36-.14,1.88-1.12a15.5,15.5,0,0,0,3.08-2.83c.18-.24.56-.69.84-1,.71-.76.72-.8.56-1.54-.11-.55-.1-.69.06-.87s.19-.57.2-1.74c0-2.24,0-2.08-.57,2-.06.49-.79,1.59-.83,1.25a9.49,9.49,0,0,1,0-2c.24.15.42-1.58.42-4V48.31l-.39-.76c-.32-.64-.43-.76-.69-.73-.41,0-.44.1-.28.47a.47.47,0,0,0,.46.32c.36,0,.52.18.4.47s-.11.17-.25.05-.32,0-.23.42a.68.68,0,0,0,.36.49c.38.17.39.3,0,.4-.19.05-.25.13-.2.28a1.13,1.13,0,0,1,.08.38c0,.11.08.15.2.11.27-.11.23.07-.08.32s-.26.29-.18.81.16.6.27.6.23.16,0,.36a1.57,1.57,0,0,0-.24.69c-.08.54-.08.54-.22.2a14.71,14.71,0,0,1-.34-2.1,12.08,12.08,0,0,0-2-6.06c-.19-.33-.41-.6-.48-.6s-.05.12,0,.28a11.38,11.38,0,0,1,1,2.58c0,.21,0,.56,0,.77s0,.37-.21.13a1,1,0,0,1-.19-.51,2,2,0,0,0-.25-.71c-.13-.24-.52-1-.85-1.68a8.84,8.84,0,0,0-.68-1.24,3.42,3.42,0,0,0-.37.89,4.26,4.26,0,0,1-.46,1,1.13,1.13,0,0,0-.25.48,1.5,1.5,0,0,1-.31.6,10.86,10.86,0,0,0-.75,1.17,10.62,10.62,0,0,0-1.17,4.24c-.07.67-.18,1.53-.24,1.91A18,18,0,0,0,26.27,58a.37.37,0,0,0,.31.21A.56.56,0,0,1,27,58.38Zm8.29-25.81a.53.53,0,0,0,0-.53c-.15-.27-.16-.26-.33.22A2.23,2.23,0,0,0,35,33.93l.14.31.29-.28a.91.91,0,0,0,.3-.58c0-.25,0-.28-.32-.22S35,33,35.25,32.57Zm2.31,10.06c-.05.33.22.71.38.55a.76.76,0,0,0,0-.52C37.87,42.21,37.62,42.19,37.56,42.63Zm0-.88a.44.44,0,0,0,.39-.2,1,1,0,0,0-.15-1c-.43-.32-.54-.21-.54.52S37.3,41.75,37.58,41.75Zm.33,2.47c.17.46.27.42.21-.08,0-.23-.06-.44-.07-.47s-.06,0-.14.07S37.82,44,37.91,44.22ZM38,38.57c0-.58-.13-.65-.38-.2-.13.26-.13.35,0,.51C37.93,39.2,38,39.11,38,38.57Zm-.23-1.28c-.07-.45-.14-.48-.41-.14s-.31.55.1.5S37.84,37.56,37.81,37.29ZM37,44.62a.7.7,0,0,1-.42.19c-.12,0-.21.06-.21.13a.12.12,0,0,0,.12.13c.06,0,.19.15.29.34a.74.74,0,0,0,.54.43l.41.1a4.83,4.83,0,0,0-.25-.75C37.26,44.5,37.21,44.45,37,44.62Zm.35,8.07c-.24.19-.3.78-.09.78a.15.15,0,0,0,.13-.16,3.34,3.34,0,0,1,.08-.48C37.57,52.55,37.56,52.53,37.37,52.69Zm.1,1.68c-.09-.51-.32-.72-.32-.29,0,.25.29.93.36.86A1.57,1.57,0,0,0,37.47,54.37Zm.19-2.55c0-.26-.06-.39-.19-.39s-.38.31-.27.58S37.66,52.23,37.66,51.82Zm-.38-3.51c0-.1-.06-.19-.13-.19s-.12.09-.12.19,0,.19.12.19S37.28,48.42,37.28,48.31Zm-.64,6.6c0-.2,0-.29-.1-.21a2.06,2.06,0,0,0,0,.74c0,.48.08.56.23.44s.14-.21.05-.38A1.43,1.43,0,0,1,36.64,54.91ZM33,61.56c-.32.35-.64.69-.72.76a13.4,13.4,0,0,0-1.32,2.5c0,.14.05.13.16,0l.66-.92a2.47,2.47,0,0,1,.63-.71,10,10,0,0,0,2.09-2.28c.18-.32.6-1,.93-1.47.87-1.34.87-1.36-.16-.35a7,7,0,0,1-1.06.92,8.26,8.26,0,0,0-1.13,1,8.53,8.53,0,0,1-1.12,1,.12.12,0,0,0-.11.13c0,.23.25.13.73-.29C33.38,61,33.54,60.92,33,61.56Zm3.16-13.3a1.65,1.65,0,0,0,0-.62c0-.22-.12-.28-.21-.19s-.08.28,0,.62S36.08,48.5,36.11,48.26Zm.11-4.34c.15,0,.18-.08.11-.35-.17-.7-.54-.74-.39,0C36,43.76,36.11,43.92,36.22,43.92Zm-.12-3.07c.27,0,.45-.06.5-.19.11-.29-.05-.38-.31-.15a2,2,0,0,1-.41.26C35.77,40.81,35.87,40.85,36.1,40.85Zm.44,1.28c.17,0,.23-.09.23-.38s-.05-.38-.12-.38c-.28,0-.52.17-.52.37S36.24,42.13,36.54,42.13Zm.36.78c0-.3-.2-.46-.32-.26s0,.5.19.5S36.9,43,36.9,42.91Zm-.13-3.38a.35.35,0,0,0-.56-.3c-.37.19-.37.18-.21.47s.18.24.45.12S36.77,39.61,36.77,39.53Zm-.36-2.24c-.22,0-.69.63-.62.83s.2.24.49,0S36.61,37.29,36.41,37.29Zm0-1c0-.27,0-.52-.1-.55s-.74.48-.83.8c-.16.6.13.81.64.45A.73.73,0,0,0,36.39,36.27Zm-.74,15.1c0,.28,0,.41.06.29a1.45,1.45,0,0,0,0-.51C35.68,51,35.66,51.09,35.65,51.37ZM35.17,40l-.28.12c-.16.08-.29.18-.29.24s.18.13.42,0A.35.35,0,0,0,35.17,40ZM35,45.31,34.87,45v.33a.72.72,0,0,0,.08.42C35.1,45.9,35.13,45.64,35,45.31Zm-.9-2c0,.33,0,.46.19.46s.19-.11.16-.4C34.4,42.8,34.1,42.76,34.1,43.33Zm.12-1.51c0-.18-.06-.32-.12-.32s-.18.42-.05.55S34.22,42.15,34.22,41.82Zm.19,2.61a.31.31,0,0,0,.2.13.12.12,0,0,0,.12-.13c0-.07-.09-.13-.2-.13S34.37,44.36,34.41,44.43Zm.78-2.28c.08.13.11.13.15,0a.28.28,0,0,0,0-.24C35.19,41.79,35.08,42,35.19,42.15Zm.05,4.37c0,.11.06.2.13.2a.12.12,0,0,0,.12-.12.29.29,0,0,0-.12-.2C35.3,46.36,35.24,46.41,35.24,46.52ZM36.17,35a.89.89,0,0,0,0-.46c-.06-.21-.14-.26-.34-.2a2.31,2.31,0,0,1-.49.07c-.18,0-.21.08-.15.42.13.75.14.76.54.55A1,1,0,0,0,36.17,35ZM34.6,38.78c-.23.23,0,1,.3,1.14l.27.08a2.82,2.82,0,0,0-.06-.47C35,38.81,34.8,38.57,34.6,38.78Zm0-2c0-.07,0-.12-.05-.12s-.09.05-.14.12,0,.13.06.13A.13.13,0,0,0,34.6,36.78Zm-.18-1c-.13-.21-.58.09-.58.38s.15.32.44,0C34.4,36,34.46,35.85,34.42,35.77ZM27,66.73c0,.32.08.31.55-.09a3.32,3.32,0,0,0,.64-.73,15.79,15.79,0,0,1,2.6-2.63c.2,0,.49-.6.37-.73S30.09,63,29,64.1C27.62,65.6,27,66.43,27,66.73Zm2.55-.38c0,.2.46.12.65-.11s.52-.81.45-.88S29.51,66.2,29.51,66.35Zm.63-1.41c.06,0,.14-.09.18-.19s-.17-.4-.31-.19S30,64.94,30.14,64.94Zm-1,.79c-.19.06-.29.35-.13.35s.16-.09.21-.2S29.2,65.7,29.1,65.73Zm-1.2,2.72c0-.1.26-.2.49-.23s.42-.08.42-.41.07-.39.31-.45.46-.29.19-.52-.26-.12-.6.27L28,68c-.36.41-.46.67-.25.67C27.77,68.63,27.86,68.55,27.9,68.45ZM38.15,50.34c.12-.6.11-.75-.06-1s-.38-.39-.49,0c-.06.24,0,.39.12.49s.25.4-.06.56-.33.64.05.64S38,51,38.15,50.34Zm.24-2.19c.11-.08.07-.32-.17-1-.41-1.13-.42-1.14-.7-.88s-.3.54.09.69.32.19.27.39.09.88.26.88A.75.75,0,0,0,38.39,48.15Zm-6.18-31c.31.33.52.37.72.12s.1-.71-.21-1.68l-.2-.63-.29.63C31.86,16.37,31.85,16.75,32.21,17.13Zm-.41-5.3c0,.26.17.43.24.24a.35.35,0,0,0-.1-.29C31.84,11.68,31.8,11.69,31.8,11.83Zm-1,.35a4.18,4.18,0,0,1,0,3.36,1,1,0,0,0-.07.86,1.13,1.13,0,0,1,.08.55c0,.09.05.3.19.46s.24.5-.16,1.07c-.21.31-.31.35-.65.29a.63.63,0,0,0-.72.26,6.18,6.18,0,0,1-1.79,1.2,2.41,2.41,0,0,0-.68.25,2.74,2.74,0,0,1-.74.25A2.91,2.91,0,0,0,24.92,22c-.08.21-.21.38-.27.38s-.23.26-.37.58c-.22.51-.28.56-.56.49s-.33,0-.34.22,0,.23-.07.14-.5-.21-.61,0,.09.52.45.52.49.17.24.32c-.09.06-.06.15.09.25s.17.19-.32.44l-.53.27v-.49a6.15,6.15,0,0,0-.17-1.15l-.18-.68.45,0c.51.05.65-.14.32-.42S22,22.46,22,22.59a1.37,1.37,0,0,0,.13.32c.21.39.06.29-.33-.22s-.33-.46-.08-.4a.4.4,0,0,0,.43-.12c.21-.24-.09-.48-.76-.6a2.88,2.88,0,0,1-.77-.28c-.37-.24-.44-.18-.28.26s.18,1,0,1A1.64,1.64,0,0,1,20,22a6.4,6.4,0,0,0-.73-1.05,2.87,2.87,0,0,1-.44-.6,5.38,5.38,0,0,0-.43-.72,3.42,3.42,0,0,1-.52-1.22c-.11-.77-.33-.75-.32,0a3.2,3.2,0,0,0,.33,1.3,3.55,3.55,0,0,1,.27,2.59c-.11.22-.3.65-.42.95-.32.78-.58,1-.43.31a7.38,7.38,0,0,1,.24-.84,2.55,2.55,0,0,0,.13-.74c0-.33,0-.36-.19-.23a1.05,1.05,0,0,0-.19.69,2.88,2.88,0,0,1-.25,1c-.26.51-.38,1.34-.14,1,.07-.1.15-.15.19-.12s-.07.26-.24.49c-.63.85-.93,2.9-.42,2.86.14,0,.22.07.22.22a1.29,1.29,0,0,0,.94.95c.28,0,.34,0,.34-.27,0-.44.24-.39.33.07a1.3,1.3,0,0,0,.32.59c.26.23.28.19.26-.52,0-.14.07,0,.15.25a.89.89,0,0,0,.94.69c.24,0,.2-.51-.09-1.07s-.27-.69.06-.32a1.78,1.78,0,0,1,.29.89,1.62,1.62,0,0,0,.17.71c.06,0,0,.21-.09.38-.25.39-.13.39.52,0a2.78,2.78,0,0,0,1.29-2.2c.06-1.32.28-2.22.55-2.22.06,0,0,.35-.15.77a2,2,0,0,0-.17.86c.14.13.58-.46.59-.79s0-.26.25,0a1.14,1.14,0,0,1,.26.48.93.93,0,0,0,.11.4L24,28.65a3.09,3.09,0,0,0,.59.93c.24.08.22-.24,0-.44a1.12,1.12,0,0,1-.27-.62,3.38,3.38,0,0,0-.31-.84c-.29-.5-.45-1.51-.23-1.44a.62.62,0,0,1,.24.43c.14.67.47,1.15,1.65,2.35l1.16,1.18-.08.62A1,1,0,0,0,27,31.88c.37.48.59.55.83.26s.12-.26-.06-.53-.18-.37-.08-.47.17-.58-.13-1.12c-.16-.27-.24-.54-.19-.59s.33.15.58.59c.14.24.69.06.59-.2s-.1-.35-.15-.53L28.34,29l.26.32c.24.29.28.3.46.12a1.08,1.08,0,0,0,.26-.45c0-.13.17-.56.31-.94a5.62,5.62,0,0,0,.26-.93c0-.14.1-.22.26-.22a.22.22,0,0,0,.25-.22,5.94,5.94,0,0,0-1.15-2.46c-.07,0-.12-.1-.13-.22a2,2,0,0,0-.32-.73c-.37-.62-.41-.85-.06-.43s.28.41.33-1.27c0-1,.05-1.09.42-1.47.59-.58.76-.31.33.55a1.91,1.91,0,0,0-.24,1.45l.1.79.15-.68c.2-.86.45-1.16.37-.44A4.36,4.36,0,0,0,30.33,23c.17.72.16.82,0,.95s-.17.19.05.58a4.21,4.21,0,0,1,.34.82c.17.68.83,1.72,1.1,1.72s.31-.24-.3-1.35c-.86-1.57-.9-1.69-.81-3a3.06,3.06,0,0,1,1.09-2.56c1.79-2,1.89-2.18,1.6-2.45s-.22-.2-.15.07,0,.29-.16.29a1.06,1.06,0,0,0-.57.4,5.64,5.64,0,0,1-.84.76,1.59,1.59,0,0,0-.58.69.81.81,0,0,1-.32.45c-.2.11-.24.08-.24-.13a2.13,2.13,0,0,1,.7-1.39c.28-.21.33-.31.21-.43s-.21-.61-.08-.61a1.29,1.29,0,0,1,.3.15c.26.17.71.05.59-.14a.48.48,0,0,0-.38-.13c-.72,0-.87-1.13-.3-2.3s.56-1.58-.17-3.17c-.42-.92-.44-1-.6-1S30.62,11.47,30.84,12.18ZM16,20.8c-.09.06-.09.14,0,.26s.37.23.37,0A.26.26,0,0,0,16,20.8Zm.25-3.12a.13.13,0,0,0,.14-.13c0-.07,0-.13-.06-.13s-.09.06-.13.13S16.18,17.68,16.25,17.68ZM16.06,20c.1-.16-.06-.53-.2-.45s-.14.57,0,.57A.26.26,0,0,0,16.06,20Zm0,2.87c.28.2.37.11.48-.49.07-.38.05-.49-.12-.56C16,21.61,15.65,22.51,16.1,22.85Zm1.22-1.64c.18.25.34.19.34-.13s-.66-1.74-.73-1.45A3.58,3.58,0,0,0,17.32,21.21Zm2.41-7.27c.11,0,.07-.15-.13-.36s-.31-.27-.41-.11a1.57,1.57,0,0,0,.22,1.6c.39.49.83.57,1.2.23s.31-.62.11-.74-.26,0-.43.12-.32.19-.52-.08S19.52,14,19.73,13.94Zm2.39,3.42c0,.26-.33.24-.61,0a.79.79,0,0,0-.38-.24l-.35,0a.26.26,0,0,1-.19-.27c0-.25-.46-.6-.61-.46s.36,1,.61,1.09a.44.44,0,0,0,.39,0,.68.68,0,0,1,.28-.12c.13,0,0,.67-.2.78s-1-.24-1.21-.51-.16-.16-.08.17a1.22,1.22,0,0,0,.23.51.61.61,0,0,1,.1.48c0,.4.26.59.56.35.15-.13.19-.12.19,0a.37.37,0,0,1-.13.28c-.18.11-.16.54,0,.6a.7.7,0,0,0,.45-.13c.34-.22.52-.12.29.15-.09.11-.13.24-.09.29a6.31,6.31,0,0,0,1.59.13,3.87,3.87,0,0,0,2.24-.29,2.4,2.4,0,0,0,.84-.57.52.52,0,0,1,.42-.25.59.59,0,0,0,.44-.25,2,2,0,0,1,.67-.51c.52-.27.66-.56.33-.68a.33.33,0,0,0-.34.11c-.15.18-.5.26-.5.11a1.67,1.67,0,0,1,.38-.39c.21-.18.35-.37.31-.44s-.82.26-.82.42-.06.1-.14.1-.11-.12-.06-.33a.63.63,0,0,0-.06-.5c-.11-.13-.09-.27.08-.56s.2-.43.09-.53-.79.23-.8.53-.34.57-.73.69c-.16,0-.29.17-.29.27s-.33.24-.45,0-.73,0-.86.21-.47.23-.47,0-.12-.19-.32-.19a.8.8,0,0,1-.54-.25.72.72,0,0,0-.38-.26c-.09,0-.29-.23-.45-.51s-.36-.51-.45-.51-.2.08.23.71c.21.31.47.57.58.57A.18.18,0,0,1,22.12,17.36Zm4.79-8.6c.1,0,.18,0,.18-.07s-.4-.84-.46-.79S26.75,8.76,26.91,8.76Zm-2.44,13c.27-.39.25-.52-.09-.42l-.45.12c-.25,0-.45.3-.35.45S24.26,22,24.47,21.72Zm-.82.8c-.29,0-.31,0-.11.4s.16.23.25.09a.76.76,0,0,0,.11-.33C23.9,22.59,23.79,22.52,23.65,22.52Zm5.27-4c.12-.18.16-.32.11-.32a2.36,2.36,0,0,0-.8.8C28.23,19.17,28.71,18.83,28.92,18.51Zm1.62-1.21c.06,0,.12-.09.12-.19,0-.27-.26-.88-.34-.8S30.41,17.3,30.54,17.3Zm-.37-8.87c0,.12,0,.2.17.2s.19-.08.16-.22S30.23,8.16,30.17,8.43Zm-.61,3.28a1.59,1.59,0,0,0,.23.58,2,2,0,0,1,.28,1.12,1.85,1.85,0,0,0,.13.6,1.17,1.17,0,0,1,0,.63c-.17.48-.18.62,0,.62s.2-.31.32-.68c.26-.81.27-1.07.06-1.14s-.1-.11.06-.27a1.14,1.14,0,0,0,.22-.29,3.7,3.7,0,0,0-.44-.59,2.1,2.1,0,0,1-.45-.67.31.31,0,0,0-.21-.24C29.51,11.32,29.49,11.37,29.56,11.71ZM27.94,5.36c.14.15.29.1.29-.09s-.14-.59-.26-.59S27.81,5.24,27.94,5.36Zm-1.15-2.5c-.11.07.77.67,1,.67.06,0,0-.12-.13-.26C27.38,3,27,2.77,26.79,2.86ZM23.94,1a2.73,2.73,0,0,1,.79.8c.38.59.7.78.7.4A2.1,2.1,0,0,0,24,.61C23.52.61,23.5.75,23.94,1ZM18.1,2.05c.44-.21.58-.46.33-.61s-.6.19-.76.53S17.53,2.32,18.1,2.05Zm-.51,1.71s.23-.08.44-.24c.48-.35.65-.22.36.28s-.12.57.85.45c.64-.09.7-.12,1.09-.72a3.86,3.86,0,0,1,.53-.7c.07-.05.28.07.47.26.33.34.38.35,1.24.25,1.39-.15,1.83-.13,2.06.1s.19.23-.15.5-.34.29-.12.38a2.5,2.5,0,0,0,.59.1c.3,0,.35.06.35.38a.79.79,0,0,0,.32.63c.36.28.42.59.12.7s-.1.31.25.24.37,0,1.13,1.17a1.51,1.51,0,0,1,.15,1.79c-.18.28-.2.39-.08.59a2.27,2.27,0,0,1,.15.94c0,.7.1.85.36.54a2.64,2.64,0,0,0,.08-1.53c-.14-.57.26-.43.44.15s.1.83-.43,2.49c-.26.84-.25,1.09.06,1.09s.26-.08.26-.32.07-.32.2-.32.2.11.12.71a6.22,6.22,0,0,1-.28,1.18,3.16,3.16,0,0,0-.23,2c.23.23.31.07.31-.56,0-.4.05-.55.16-.51s.15.29.12.83a2.76,2.76,0,0,0,0,.92c.13.2.38.08.42-.2.1-.62.17-.82.29-.75a.84.84,0,0,1,.12.51c0,.39,0,.44.34.44h.33L30,16.63a5.31,5.31,0,0,0-.2-1.13,1.3,1.3,0,0,1-.06-.63.93.93,0,0,0-.07-.57,1.32,1.32,0,0,1-.09-.61c0-.25,0-.48-.09-.5s-.15.18-.17.44-.1.48-.17.48-.09-.12,0-.29A11.94,11.94,0,0,0,29.15,12c0-1.29,0-1.56.17-1.62s.19-.32.16-1.58-.05-1.49-.29-1.49-.25.07-.24.57A9.21,9.21,0,0,0,29.05,9c.05.32-.06.11-.31-.57-.34-1-.36-1.1-.18-1.24s0-1.06-.41-1.06-.74-.51-.82-.94a.71.71,0,0,0-.44-.38c-.53-.19-1.08-.64-1.08-.89s.32-.28.45-.08a2,2,0,0,0,1.1.48c.08,0-.12-.27-.44-.53-.47-.38-.57-.53-.46-.66s0-.16-.69-.1l-.84.08-.23-.41c-.59-1.08-1.35-1.55-2-1.25-.25.12-.36.1-.59-.11A5.59,5.59,0,0,0,21.15.7c-.58-.31-.7-.33-1.08-.2-.72.25-1.39.72-1.39,1s.58.05,1-.2a2,2,0,0,1,1.53,0c.44.16.5.29.3.61-.1.15-.16.16-.28,0a3.11,3.11,0,0,0-2,0l-.71.34c-.19.09-.35.24-.35.34a.29.29,0,0,1-.18.24C17.81,2.92,17.48,3.65,17.59,3.76ZM26,6.67c-.29-.11-.33,0-.18.35s.39.44.39,0A.42.42,0,0,0,26,6.67Zm-2.6-2.18c-.05,0-.09,0-.08-.16s-.09-.23-.36-.25L22.25,4c-.58-.06-.41.21.38.63s1,.48,1.19.33S23.52,4.41,23.39,4.49ZM17.63,7.27c.72-.52,1.28-.42.6.11-.41.33-.58.65-.44.87s.14.14.3,0,.29-.07.78.44a3.79,3.79,0,0,1,.58.69,3.35,3.35,0,0,0,.42.66,3.28,3.28,0,0,1,.49.81c0,.14.11.34.15.45.11.27-.09.53-.33.44a.66.66,0,0,1-.29-.45c-.05-.21-.12-.37-.16-.37a9.4,9.4,0,0,0-1,.33,13.74,13.74,0,0,0,1.16,1.61,4.47,4.47,0,0,0,.92.76l1,.6a4.22,4.22,0,0,0,.87.39c.52.17.58.16.77-.07a2.84,2.84,0,0,1,.67-.54,2,2,0,0,0,.87-1.35.21.21,0,0,1,.19-.21c.25,0,.26.59,0,1.17a2.67,2.67,0,0,1-1.46,1.62c-.3.09-.52.22-.49.3s.73.37,1,.28c.12,0,.22,0,.22.07s-.1.13-.22.14l-.6,0a2.68,2.68,0,0,1-1.12-.32c-.79-.38-.95-.29-.38.22,1.49,1.33,1.41,1.31,2.11.73.42-.35.62-.38.51-.08s0,.19.16.11l.58-.22a.68.68,0,0,0,.42-.47,2,2,0,0,1,.38-.66c.34-.37.52-1,.32-1.08s-.07-.16.06-.31.17-.23-.06-.43-.22-.25-.09-.46.11-.3-.08-.51-.21-.29-.07-.47.14-.23,0-.36a.53.53,0,0,1-.22-.31.28.28,0,0,0-.18-.22c-.1,0-.17-.14-.14-.22s.08-.31.12-.51.13-.34.34-.27.25,0,.16-.6A4,4,0,0,0,25.66,8a7,7,0,0,1-.76-1.62c-.1-.42-.22-.64-.34-.64a8.27,8.27,0,0,1-2.72-.9c-.89-.49-.91-.5-1.17-.27a2.24,2.24,0,0,1-1.81.5c-.76-.08-.77-.07-1,.83-.07.27-.05.33.11.27.33-.13.21.12-.34.68S17.06,7.7,17.63,7.27Zm.5,2.46c-.12,0-.18.13-.14.19a.21.21,0,0,0,.38,0C18.49,9.71,18.38,9.63,18.13,9.73ZM16.54,5.62a1.18,1.18,0,0,0,.24-.43,3.53,3.53,0,0,0-.28-1.53c-.16,0-.14-.82,0-1.2s0-.52-.53-.07c-.34.27-.51.51-.51.7,0,.34.19.53.31.32a.15.15,0,0,1,.2-.06c.23.14.12.52-.26.89s-.55,1.21-.12,1.21.46.36.21.79a1.68,1.68,0,0,0-.22.64c0,.32.5.89.67.78a2.12,2.12,0,0,0,.08-.94C16.34,6.05,16.38,5.8,16.54,5.62Zm-.66,4.75a5.18,5.18,0,0,1,.59-.08c.1,0,.17-.14.17-.32V9.66l-.51.26C15.45,10.28,15.33,10.48,15.88,10.37ZM16,14.92c.25-.19.48-.3.52-.26s-.09.54-.46.79-.52.57-.25.57a2.07,2.07,0,0,0,.61-.51,1.73,1.73,0,0,1,.7-.51c.28,0,.26.17,0,.45a.68.68,0,0,0-.26.39c0,.08-.2.31-.45.51a1.48,1.48,0,0,0-.44.46c0,.24.36.07.87-.41s.68-.59.91-.32.11.21-.08.28a2.43,2.43,0,0,0-.94.82c0,.15.44.2.5.06a2.76,2.76,0,0,1,.48-.56,1.62,1.62,0,0,1,.88-.48,2.88,2.88,0,0,0,.58-.12c.19-.12.12-.37-.14-.54a.31.31,0,0,1-.18-.35c0-.13,0-.19-.18-.19s-.25-.06-.19-.49,0-.5-.24-.58l-.3-.08.29-.21c.37-.26.37-.55,0-.55s-.8-.47-.9-1.06c-.05-.26-.18-.52-.28-.55a.2.2,0,0,1-.13-.25c.1-.26-.05-.56-.27-.56s-1.05.4-1.05.59a.52.52,0,0,0,.25.33c.34.21.32.4-.07.8s-.32.57.09.57c.22,0,.24.06.17.39s0,.38.27.38.36,0-.26.62S15.25,15.45,16,14.92Zm-1.23,5.33c-.17.31.15.3.53,0,.2-.16.26-.3.2-.46s-.1-.22-.35,0A1.88,1.88,0,0,0,14.72,20.25Zm-.43,1.27.63-.08a2.05,2.05,0,0,0,.74-.18c.15-.16,0-.53-.27-.52a1.54,1.54,0,0,0-.66.39Zm1,1c.33-.15.53-.6.34-.79s-1.2.31-1.33.54S14.68,22.78,15.29,22.5Zm-6.65-7c-.12.57-.05,1.46.12,1.46s.16-.11.24-.24a5.1,5.1,0,0,0,0-2.24C8.88,14.36,8.85,14.44,8.64,15.45ZM7,15.38c-.1.44,0,.48.4.14a4.45,4.45,0,0,0,.69-1c.22-.43.49-.78.58-.78s.22-.15,0-.45-.2-.22-.58.2A5,5,0,0,0,7,15.38Zm1.11,2.07c.25-.59.3-2.54,0-2.13a4.14,4.14,0,0,1-.58.67c-.4.4-.42.47-.36,1.07C7.34,18,7.81,18.24,8.14,17.45Zm-.73,1.12s-.09.06-.13.12,0,.13.06.13a.13.13,0,0,0,.13-.13C7.47,18.63,7.44,18.57,7.41,18.57ZM5.94,16.21c0,.11.06.19.13.19s.09-.08,0-.19S6,16,6,16,5.94,16.11,5.94,16.21Zm-.35,2.45a13.93,13.93,0,0,1,.74,1.7c0,.28.38,1,.49,1A3.13,3.13,0,0,0,6.9,20.2c0-1-.07-1.07-.38-1.34S5.47,18.44,5.59,18.66Zm-.44,2.23a.52.52,0,0,0-.83.13c-.4.89-.58,2.27-.32,2.53.1.1.21,0,.4-.46s.24-.62.07-.89-.17-.3,0-.36.7.63.7,1.35.21.78.32,0A4.92,4.92,0,0,0,5.15,20.89Zm.66.81c0,.72.18.82.3.17A2.49,2.49,0,0,0,6,20.46a4.36,4.36,0,0,0-.38-.93c-.06,0-.2,0-.33.18s-.21.27,0,.59A2,2,0,0,1,5.81,21.7Zm7.28,14.77c-.17-.77-.39-1-.77-.9s-.35,0-.12-.28,0-1.47-.16-1.36a2.29,2.29,0,0,0-.37.54c-.15.26-.23.35-.18.21a5.42,5.42,0,0,0,.26-1.81c-.05,0-.24.07-.41.27-.4.47-.5.36-.24-.26.36-.86,0-1.46-.52-.75-.11.18-.26.32-.32.32-.22,0-.11-.34.2-.63s.3-.53-.16-1.06c-.19-.21-.22-.2-.62.19s-.51.35-.35-.25a.36.36,0,0,1,.32-.28c.13,0,.24-.06.24-.13a3.93,3.93,0,0,0-.33-.87s-.17,0-.33.15c-.38.27-.49.26-.49-.05A.57.57,0,0,1,9,29.11c.32-.2.33-.5,0-.77s-.26-.18-.38-.06-.33,0-.18-.5a1,1,0,0,0,0-.68,4.91,4.91,0,0,1-.21-1.16c-.07-.76-.14-1-.4-1.22l-.31-.29.33-.13c.27-.09.33-.2.31-.48a1.19,1.19,0,0,1,.09-.54.78.78,0,0,0,.08-.46.33.33,0,0,1,.18-.35c.17-.07.2-.19.14-.58s0-.54.06-.59c.32-.2-.48-1.71-.91-1.71s-.36.23-.09.75.22,1-.32,1.69a1.43,1.43,0,0,0-.41,1c0,.44,0,.53-.25.53s-.28-.11-.33-.32-.08-.29-.24.13c-.09.25-.24.63-.34.86-.23.54-.23.85,0,1a5.14,5.14,0,0,1,1,1.92A17.54,17.54,0,0,1,7.22,30c.19,3.3.46,4.4,1.36,5.71.33.47.77,1.11,1,1.43.74,1.09,1.26,1.65,1.53,1.65a1.6,1.6,0,0,0,.67-.25c.37-.22.41-.32.45-.91s.36-1.07.36-.44c0,.37.26.44.51.13C13.21,37.2,13.21,37,13.09,36.47Zm1,.41c.11-.32-.57-1.77-.71-1.53a3.2,3.2,0,0,0,.5,1.69A.25.25,0,0,0,14.13,36.88Zm1.12-3.17a3,3,0,0,0-1.11-1.6c-.65-.6-.83-.84-.72-.94s.72.18,1.44,1a3,3,0,0,1,.94,1.72c.1.52.26.6.46.23.1-.2,0-.5-.32-1.37-.57-1.4-.71-1.62-1.34-2s-.67-.69-.32-.69a4.33,4.33,0,0,1,1.38,1.09,7.67,7.67,0,0,1,.6,1c.67,1.29.88,1,.33-.43-.17-.44-.39-1-.48-1.31A1.31,1.31,0,0,0,15,29.46c-.23-.05-.35-.15-.35-.32s.07-.23.64-.17.64.05.64-.17c0-.39-.28-.65-.86-.8-.74-.19-.76-.55,0-.44.48.08.51.07.51-.24s-.13-.73-.31-.73a.86.86,0,0,1-.4-.18c-.21-.16-.22-.21-.07-.31a.4.4,0,0,1,.42,0,.43.43,0,0,0,.35,0c.17-.1,0-.62-.28-.84s-.18-.53.23-.42c.22.05.33,0,.39-.13s0-.36-.56-.45c-.3,0-.48-.15-.48-.27s.15-.18.61-.15.61,0,.61-.36-.09-.42-.44-.58-.46-.2-.92,0l-.49.24L14.09,25a17,17,0,0,1-.24,2.42c-.17.65-.25.92-.81,2.93-.72,2.59-.72,2.63.26,3.65a4.87,4.87,0,0,1,1.18,1.87c.11.28.2.38.29.29s.09-.18,0-.3a4.31,4.31,0,0,1-.35-1A6.17,6.17,0,0,0,14,33.64c-.2-.32-.24-.93-.07-.93a7.23,7.23,0,0,1,1.15,1.61,2,2,0,0,1,.14.74c0,.28,0,.43.13.39S15.52,34.58,15.25,33.71Zm.32,6.62c.23.33.38.26.5-.24s-.19-.71-.51-.59S15.32,40,15.57,40.33Zm-.56.85c.46.35.87.39.87.09,0-.48-.66-.74-.82-.33A.63.63,0,0,0,15,41.18ZM13.87,44.4l.26.27c.36.35.52.2.42-.39-.07-.42,0-.49.17-.49a.31.31,0,0,0,.19-.57c-.31-.22-.18-.63.23-.68s.71-.36.54-.52a1.33,1.33,0,0,0-.47-.19c-.39-.09-.34-.18-1,1.6Zm-.36,3.67c-.07-.28,0-.33.19-.33s.34-.27,0-.64a.93.93,0,0,1-.32-.53c0-.29.1-.29.4,0s.54.13.37-.2-.16-.51.06-.51.22-.55-.12-.8-.31-.21-.57.21a2.56,2.56,0,0,0-.27.51,2.93,2.93,0,0,1-.34.62,11,11,0,0,0-1,1.74A8.76,8.76,0,0,1,11,49.45,17.54,17.54,0,0,0,9,52.73c.11.18.3.12.85-.26.74-.51,1.14-1,1.09-1.25s0-.34.33-.22.89-.51.79-.86c0-.16,0-.23.17-.23a.7.7,0,0,0,.59-.83c-.07-.28,0-.32.23-.32A.5.5,0,0,0,13.51,48.07ZM9,65.39c-.34-.16-.3-.3.09-.35a1.06,1.06,0,0,0,.61-.4c.25-.34.25-.37,0-.52s-.27-.46.14-.46.38-.07.5-.44.09-.48,0-.52a.4.4,0,0,1-.12-.32c0-.17.09-.24.31-.24a.44.44,0,0,0,.32-.7c-.18-.18-.14-.45.07-.45s.45-.39.45-.78a1.1,1.1,0,0,1,.28-.59,1.24,1.24,0,0,0,.3-.83c0-.38.09-.55.23-.58s.24-.23.28-.48a1.16,1.16,0,0,1,.2-.51.61.61,0,0,0,.11-.41,3.1,3.1,0,0,1,.35-1c.29-.56.33-.71.2-.91s-.11-.28.16-.45.44-.87.17-1c-.1-.06,0-.17.14-.31a.8.8,0,0,0,.31-.69.88.88,0,0,1,.2-.59c.15-.09.16-.18,0-.49s-.11-.4.18-.59.31-.28.24-.7,0-.5.06-.53a2.26,2.26,0,0,0,.3-.87,8.27,8.27,0,0,1,.44-1.4,3.06,3.06,0,0,0,.27-.91c0-.22.08-.37.22-.42a2,2,0,0,0,.59-.64c.44-.7.31-.9-.57-.9-.67,0-.6-.13-1.14,2.17-.15.63-.38,1.49-.51,1.91a11,11,0,0,0-.32,1.4A32.73,32.73,0,0,1,13,54.17c-.25.84-.53,1.8-.62,2.13A19,19,0,0,1,11.22,59a1.7,1.7,0,0,0-.18.5,20.77,20.77,0,0,1-1.19,2.45c-.08.14-.39.63-.69,1.09a6.32,6.32,0,0,0-.54.93c0,.05-.52.92-1.16,1.94-.91,1.46-1.14,1.92-1.08,2.17s.6.41,1.15.07a2.46,2.46,0,0,0,.68-.77c.25-.45.26-.54.09-.6-.37-.15-.22-.43.22-.4s.43,0,.56-.41S9.2,65.5,9,65.39Zm6-5.17a1.68,1.68,0,0,0,.51-.36.94.94,0,0,0,.36-.6c0-.19-.09-.18-.44.12S14.77,60.22,15,60.22Zm.25-2.29a.13.13,0,0,0,.13-.13.13.13,0,0,0-.26,0A.13.13,0,0,0,15.24,57.93Zm1-.73c.47-.38.59-.8.22-.8s-.8.72-.8,1S15.72,57.59,16.2,57.2Zm.2.91c.27-.26.46-.52.42-.58s-.66.25-.93.58a.32.32,0,0,0-.07.34C15.88,58.54,16.08,58.42,16.4,58.11Zm.37-2.69c0-.24-.35-.2-.63.08a3.81,3.81,0,0,1-.57.46.7.7,0,0,0-.33.46c0,.29.11.3.51,0S16.77,55.6,16.77,55.42Zm-.51-1.08a.92.92,0,0,1-.45.28.2.2,0,0,0-.2.16,3.75,3.75,0,0,1-.06.47c-.06.29,0,.29.29-.09l.52-.59C16.62,54.24,16.53,54,16.26,54.34Zm-2.81,9.72c.1-.18.08-.28,0-.39s-.21-.1-.32.1a1.21,1.21,0,0,0-.13.4C13,64.39,13.31,64.31,13.45,64.06Zm.45-1.3-.1-.3-.11.29c-.12.35,0,.62.18.43A.48.48,0,0,0,13.9,62.76Zm.49-6.64c0-.33,0-.48.16-.48s.47-.47.32-.75-.08-.28.11-.42.49-.87.21-.87c-.11,0-.2.06-.2.13s-.06.1-.13.06-.15-.28.25-.66.47-.59.17-1.27l-.21-.49-.08.39a2.44,2.44,0,0,1-.2.57,3.47,3.47,0,0,0-.2.62A6.51,6.51,0,0,1,14,54.81a4.48,4.48,0,0,0-.33,1,4.43,4.43,0,0,1-.26.89,5.84,5.84,0,0,0-.31,1,6,6,0,0,1-.31,1,3,3,0,0,0-.26.64,7.43,7.43,0,0,1-.46,1.08,4.34,4.34,0,0,0-.37,1.21,8.54,8.54,0,0,1-.7,1.91c-1.38,2.86-1.53,3.2-1.53,3.41s.36.28.7,0a10.61,10.61,0,0,0,1.59-2.24c.31-.57.34-.71.19-.77-.3-.12-.22-.34.13-.34a.51.51,0,0,0,.44-.24c.18-.33.17-.35-.12-.43s-.23-.13-.17-.28.17-.19.35-.14c.35.09.55,0,.65-.45s0-.35-.22-.42-.28-.1,0-.16a1.26,1.26,0,0,0,.42-.2c.19-.15.21-.81,0-.92s-.16-.32.06-.32.63-.9.46-1.18-.18-.35,0-.35A4.8,4.8,0,0,0,14.39,56.12Zm0,26.51a.93.93,0,0,1-.08.32c-.08.23.05.26.32.09a.28.28,0,0,0,.1-.32C14.61,82.5,14.35,82.44,14.35,82.63Zm-.64,1.59c0,.45.16.33.37-.29a.89.89,0,0,0,.07-.51C14,83.28,13.71,83.83,13.71,84.22Zm-4.2,9.57a.33.33,0,0,0,.13-.26c0-.1-.06-.19-.13-.19s-.13.12-.13.27S9.44,93.83,9.51,93.79Zm.52.83c-.3-.68-.39-.76-.39-.32s.3.83.52.83C10.22,95.13,10.16,94.9,10,94.62Zm2.88-.06c.06-.06-.14-.07-.43,0a1.08,1.08,0,0,1-.65,0c-.17-.17-.54,0-.54.28a.3.3,0,0,0,.22.28A3.07,3.07,0,0,0,12.91,94.56Zm-.73,4.91c0,.07.06.1.13,0a.28.28,0,0,0,.13-.2c0-.07-.06-.1-.13,0A.27.27,0,0,0,12.18,99.47Zm2.75,1.45c0-.25,0-.44-.07-.44a.43.43,0,0,0-.31.46c.16.52.2.59.28.5A1.14,1.14,0,0,0,14.93,100.92Zm2.19-3.27c-.23.19-.35.08-.35-.32,0-.17.08-.29.19-.29.33,0,.21-.24-.15-.28s-.54-.35-.18-.45c.53-.14.25-.27-.72-.32a5.67,5.67,0,0,0-1,0s.08.18.24.36.28.32.08.39a.35.35,0,0,1-.36-.06c-.18-.17-.35-.18-.35,0a3.43,3.43,0,0,1-.52.8c-.31.41-.49.76-.45.9a3.83,3.83,0,0,1-1,1.69.25.25,0,0,1-.3-.11c-.13-.19-.23-.14-.8.39a1.92,1.92,0,0,0-.73,1.07c-.06.4,0,.48.19.55a.37.37,0,0,1,.25.35.84.84,0,0,0,.22.5c.17.2.18.29,0,.57s-.12.36,0,.44.65-.12.57-.34,0-.18,0-.18.13.07.16.15.18.11.4.06A.51.51,0,0,0,13,103c.06-.29.14-.37.35-.35s.28-.05.31-.39c.05-.49.28-.56.28-.08,0,.29,0,.31.19.17s.19-.34.14-1,0-.9.24-1.21a1.09,1.09,0,0,0,.32-.59c0-.21,0-.22.19-.09s.26.06.21-.28c0-.05.14-.08.34-.06.36,0,.38,0,.27-.86-.08-.52.24-.6.34-.09s.37.51.61,0c.1-.2.23-.34.29-.32s.13-.06.15-.18S17.27,97.52,17.12,97.65Zm-2.26-2.46c.17.21.51.26.51.08s-.3-.27-.54-.27C14.75,95,14.76,95.07,14.86,95.19Zm1.59.32c.2,0,.32-.07.32-.19s-.12-.19-.32-.19-.32.07-.32.19S16.25,95.51,16.45,95.51Zm2.33-.41h.47l-.57-.22h0c-.63-.24-.75-.23-.52,0A1,1,0,0,0,18.78,95.1Zm1.63,1.73a.64.64,0,0,0,.31-.57c0-.29-.06-.37-.26-.37a.44.44,0,0,1-.39-.34c-.09-.26-.16-.3-.27-.19a.75.75,0,0,1-.44.15c-.17,0-.3,0-.3.07a6.32,6.32,0,0,0,.52.76C20.09,97,20.11,97,20.41,96.83Zm.56.84c0-.15-.36-.31-.46-.21s.08.34.28.34S21,97.74,21,97.67Zm-.16-3.43c-.25,0,0-.4.3-.58a1.22,1.22,0,0,0,.63-1.11c0-.24,0-.25-.69-.18s-.74,0-1.07-.24c-.55-.46-.68-.41-.64.23,0,.48.08.55.46.66s.52.28,0,.39a.88.88,0,0,1-.77-.19c-.43-.31-.46-.27-.18.26a.62.62,0,0,0,.73.39c.16,0,.1.21-.07.27-.37.14-1.62-.91-1.62-1.37a3,3,0,0,0-.45-.94c-.45-.68-.5-1-.13-.65s.25-.09-.12-.79-.42-1.06-.12-.94.2,0,.14-.18c-.15-.6.3-.3.9.59.15.21.16.21.08-.08a2.7,2.7,0,0,0-.38-.73,1.58,1.58,0,0,1-.31-.54c0-.25.25-.13.45.22.12.19.17.23.12.09s-.14-.45-.21-.7a8.28,8.28,0,0,0-1.49-2.35.42.42,0,0,0-.39.12c-.23.21-.64.26-.64.08a.49.49,0,0,1,.19-.27c.2-.16.27-.64.09-.64a1.59,1.59,0,0,0-.47.39q-.67.69-.54.06c0-.3,0-.32-.51-.32h-.56l.09,1.12a4.85,4.85,0,0,0,1.27,3.12c.51.7.69,1,.63,1.21s-.11.17-.15.06-.2-.16-.37-.16-.31-.06-.31-.38-.07-.4-.32-.46-.3-.14-.25-.32,0-.24-.18-.24-.27.08-.27.29a.78.78,0,0,0,.12.42C14,90,14.17,91.1,14,91l-.52-.22c-.3-.12-.38-.22-.33-.4a.26.26,0,0,0-.14-.33c-.28-.1-.3-1.07,0-1.07s.19-.15.19-.58,0-.55-.12-.5a.3.3,0,0,0-.13.23,4,4,0,0,1-.78.92c-1.39,1.37-1.77,1.78-1.77,1.9a1.32,1.32,0,0,1-.33.47c-.31.32-.33.41-.25,1,.1.78.32,1.27.32.7s.36-.45.41.07c0,.31.11.42.33.45s.39-.15.16-.29a.51.51,0,0,1-.13-.37.77.77,0,0,0-.12-.41c-.2-.19.07-1,.46-1.33l.33-.31-.16.32a3,3,0,0,0,0,1.71c0,.07.13-.1.18-.38s.14-.76.21-1.08a1.12,1.12,0,0,0,0-.72c-.08-.09,0-.17.09-.22.3-.12.35,0,.34.65a1.72,1.72,0,0,0,.12.76.38.38,0,0,1,0,.41c-.18.33-.18.78,0,.78a3,3,0,0,1,.7.37,1.34,1.34,0,0,0,.74.31c.13-.05.26.08.41.39.24.5.55.61.55.19,0-.24,0-.26.35-.17a2.52,2.52,0,0,0,1.48-.06,1.56,1.56,0,0,0,.17-.61c.05-.48.34-1.06.52-1.06s.1.33.1.74.06.81.21,1,.44.27.52,0,.09-.13.24,0a.74.74,0,0,0,.59.08.79.79,0,0,1,.56.07c.77.69,1.45.81,1.64.31h0C21.23,94.46,21.12,94.24,20.81,94.24Zm-5.7-10.76s0-.09-.12-.14-.13,0-.13.06a.14.14,0,0,0,.13.14C15.06,83.54,15.11,83.51,15.11,83.48Zm-.1.83c0,.08,0,.13.1.1s.15-.09.14-.15S15.06,84.14,15,84.31Zm3.17,6.19c-.3-.5-.85-.94-1-.8s0,.08.08.08.14.1.09.27a.87.87,0,0,0,.16.61,2.13,2.13,0,0,1,.31.67.89.89,0,0,0,.54.56,2.05,2.05,0,0,1,.51.32c.11.18.31.14.31-.06a.48.48,0,0,0-.19-.33.52.52,0,0,1-.19-.33.59.59,0,0,0-.17-.33A6.64,6.64,0,0,1,18.18,90.5Zm3.56,3.87c0,.21.2.13.5-.18s.23-.34.16-.38S21.74,94.18,21.74,94.37Zm-.58,2c.1.15.21.16.39,0s.73-.93.65-1-.46.23-.46.5-.06.22-.25.17S21,96.19,21.16,96.4Zm.52,1.39c.1-.15-.27-.59-.4-.47s.06.61.2.61A.27.27,0,0,0,21.68,97.79Zm.59-.45c.22-.2.33-.68.15-.68s-.55.43-.55.65S22,97.61,22.27,97.34Zm.43,1.22a.25.25,0,0,0-.06-.29c-.12-.11-.21-.08-.4.15s-.21.35-.17.42S22.56,98.78,22.7,98.56Zm.37-6.78c.26-.43.15-.44-.4,0a1,1,0,0,0-.42.58c0,.24,0,.24.31,0A2,2,0,0,0,23.07,91.78Zm1.09-8.24c0-.26-.07-.39-.19-.39s-.23.06-.11.48S24.16,84,24.16,83.54ZM24,84.77c-.15.38-.12.8.05.8a2,2,0,0,0,.34-.58c.2-.43.24-.62.13-.72S24.26,84.21,24,84.77ZM23.52,87q0,.3.45-.09c.29-.24.74-.91.67-1S23.52,86.81,23.52,87Zm-.18,1.57c-.37.53-.21.65.27.21a1.08,1.08,0,0,0,.29-.39C23.9,88.14,23.53,88.26,23.34,88.53Zm-.25,1.37c-.31.28-.43.51-.26.51a2.8,2.8,0,0,0,.56-.39,2.5,2.5,0,0,0,.82-1.32c.32-.9.42-1.47.25-1.47a1,1,0,0,0-.31.29.75.75,0,0,0-.17.68A2.29,2.29,0,0,1,23.09,89.9Zm2.27,6.93a2.71,2.71,0,0,0-1.71.53c-.18.16-.39.26-.48.23s-.16,0-.16.2c0,.33.19.34.54,0a4.4,4.4,0,0,1,1.81-.65C25.62,97.16,25.62,96.93,25.36,96.83Zm.76.53c0-.11-.13-.19-.19-.19s-.12.08-.12.19a.2.2,0,0,0,.19.19C26.12,97.55,26.16,97.47,26.12,97.36Zm.17-3.2a.26.26,0,0,0-.25,0c-.1,0-.07.07.08.08S26.33,94.2,26.29,94.16Zm1.3,4c.15-.29,0-.4-.66-.4h-.4l.3.32C27.19,98.5,27.42,98.52,27.59,98.2Zm1.51,0c0-.09,0-.14-.11-.11a.4.4,0,0,0-.22.22c0,.1,0,.15.11.11A.37.37,0,0,0,29.1,98.19Zm1.17-.66c0-.21-.37-.1-.51.14s-.11.25.19.11S30.27,97.59,30.27,97.53Zm.65-1.45a1.91,1.91,0,0,1-.78,0c-.51-.07-.63-.13-.63-.33s-.05-.24-.12-.24-.29-1.17-.34-3.57c-.16-8.74-.21-9.61-.5-9.5s-.49-.25-.4-.5a.38.38,0,0,1,.33-.19c.18,0,.26-.08.26-.25s-.13-.33-.36-.1-.39-.07-.4-.58a2.56,2.56,0,0,0-.17-.76,5,5,0,0,1-.26-1,2.1,2.1,0,0,0-.28-.82c-.17-.24-.19-.23-.5.12l-.32.36-.67-.23c-.69-.24-1.62-1-1.62-1.29s.5-.07.95.35,1.07.7,1.19.58-.38-.74-.62-.8a.93.93,0,0,1-.44-.37,2.84,2.84,0,0,0-.71-.63c-.47-.29-.74-.63-.6-.76s1.15.34,1.7.88a10.3,10.3,0,0,0,.92.81.61.61,0,0,1,.28.37.18.18,0,0,0,.2.17c.25,0,.24-.43,0-.64a.45.45,0,0,1-.14-.41,11.94,11.94,0,0,0-.05-1.66,4.64,4.64,0,0,1,0-1.55.72.72,0,0,0,.11-.41c0-.16.06-.29.13-.29s.13.2.13.44.05.45.12.45.16-1.12-.05-1.44a5.47,5.47,0,0,1-.14-2.82c.23-.29.25-.58.06-.58a4,4,0,0,0-1.17.82.11.11,0,0,1-.17,0c-.05,0,0-.19.08-.3l.31-.43c.07-.12.31-.47.54-.77.37-.49.53-.89.36-.89a4.84,4.84,0,0,0-1.33.84,1,1,0,0,1-.67.31c-.49,0-.47.25.08.83a1.32,1.32,0,0,1,.45.84c0,.43-.05.44-.48.11-.18-.15-.35-.24-.38-.21a5.14,5.14,0,0,0,1.06,1.52c.24.13.23.47,0,.47s-.16.08-.11.19,0,.19-.07.19c-.24,0-.15.33.17.64s.33.51,0,.51a1,1,0,0,1-.45-.26.64.64,0,0,0-.44-.22c-.08,0,.12.25.45.48.65.46.81.79.32.67-.25-.07-.26,0-.11.13s.24.18.33.14a.2.2,0,0,1,.19.34.43.43,0,0,1-.33,0c-.21-.08-.23.24,0,.45a.76.76,0,0,0,.45.15c.16,0,.29.06.29.13s-.2.13-.44.13a1.09,1.09,0,0,1-.86-.43A1.85,1.85,0,0,0,24,74.62c-.21,0-.26-.07-.23-.29s.29-.35.85-.17c.25.08.29.06.25-.13s-.29-.32-.77-.49-.73-.32-.73-.49.06-.22.38-.15c.63.14.64-.25,0-.81a2.78,2.78,0,0,1-.52-.56c0-.21.88-.08,1.44.21s.59.25.59.13c0-.29-.84-1.06-1.35-1.23s-.6-.38,0-.52.61-.44.26-.72-.23-.49.1-.54a.35.35,0,0,0,.32-.29,1.92,1.92,0,0,1,.51-.67c.36-.32.43-.44.3-.53a.68.68,0,0,0-.52,0c-.38.14-.77,0-.77-.18s.14-.12.43-.06c.47.08.81-.17,1.51-1.14.36-.5.5-1,.2-.73a.69.69,0,0,1-.44.16c-.27,0-.28,0-.15.32s.12.34.09.38a5.76,5.76,0,0,1-.74.23,2,2,0,0,0-.84.38c-.23.31-.32.26-.25-.13s0-.63-.65-.84c-.29-.11-.52-.27-.54-.41s.11-.23,1,0c.22.07.28,0,.28-.16a.69.69,0,0,0-.83-.62c-.29.07-.33,0-.29-.21s.11-.28.41-.26a.65.65,0,0,1,.49.22c.18.32.33.22.42-.25a.73.73,0,0,0-.13-.7c-.2-.21-.2-.24,0-.35s.15-.18-.25-.55c-.64-.6-.56-1.06.1-.57s.66-.47.08-1a1.27,1.27,0,0,1-.38-.53c0-.19.46-.23.57,0s.32.14.32-.13-.05-.25-.11-.25a2.69,2.69,0,0,1-1.16-.84c0-.25.4-.33.63-.12s.9.27.9.08.17-.14.38-.18.38-.16.38-.27c0-.31-.28-.38-.47-.12s-.19.23-.57,0a1.55,1.55,0,0,0-.57-.23,1.08,1.08,0,0,1-.51-.3l-.32-.3.27-.53c.21-.41.24-.58.13-.78s-.38-.32-.38.07-.23.41-.38,0a1,1,0,0,1,0-.7,1.15,1.15,0,0,0,.06-.58c-.07-.17-.11-.17-.4,0-.47.31-.7.16-.7-.45a1.69,1.69,0,0,0-.16-.76c-.12-.2-.11-.29.08-.5s.19-.32.14-.4-.57.23-.48.48,0,.17-.1.13-.18-.28-.18-.81-.05-.76-.19-.76c-.41,0-.51-.19-.43-.78l.08-.59-.35.09c-.34.09-.35.08-.29-.42s0-.53-.11-.58a.34.34,0,0,1-.18-.32,1.18,1.18,0,0,0-.12-.49,3.2,3.2,0,0,1-.26-.58c-.07-.21-.17-.34-.21-.3a17.35,17.35,0,0,0-.36,3.15c0,.24.05.88.07,1.42,0,.82,0,1-.25,1.36a1.49,1.49,0,0,0-.27.52.14.14,0,0,1-.13.14c-.07,0-.12-.25-.12-.56a1.64,1.64,0,0,0-.08-.62,19.62,19.62,0,0,1-.09-2.28,13.09,13.09,0,0,0-.06-2,3.56,3.56,0,0,1-.25.7,2.31,2.31,0,0,0-.2.92c0,.31-.06.5-.19.54s-.28,0-.3-.45a10,10,0,0,1,1.13-3c.29-.56.43-.7.64-.68s.31-.07.43-.48a1.06,1.06,0,0,0,.06-.6c-.15-.14-1.57,1.49-1.88,2.16-.15.33-.32.57-.38.54s-.11-.76.21-1.35a2.61,2.61,0,0,0,.32-.87c0-.21.07-.26.29-.23s.29,0,.32-.51.05-.55.28-.34.56.13.46-.26,0-.7.19-.7.12.09.12.19a.19.19,0,0,0,.19.2c.21,0,.26-.59.07-.89s-.22-.09-.67.32-.73.68-1,.88c-.57.5-1.23,1.55-1.13,1.8a1.83,1.83,0,0,1-.1.79c-.72,2.46-.72,2.77,0,4.29a3.62,3.62,0,0,1,.53,1.45c-.09.18,0,.44.26,1.29a4.43,4.43,0,0,1,0,2.22,1.09,1.09,0,0,0-.11.54c0,.27-.07.43-.17.43a1.35,1.35,0,0,0-.54.38c-.43.45-.37.47.29.12l.48-.26-.5.45c-.56.52-.54.7,0,.39.41-.21.65-.17.64.1a3.43,3.43,0,0,1-1.34.94c-.5.18-1.21.69-1.13.81a.15.15,0,0,0,.19.06c.07,0,0,.18-.12.49a5.06,5.06,0,0,0-.28,2A35.43,35.43,0,0,0,14.87,69a12.19,12.19,0,0,1,.14,1.5c0,.47.07.86.14.86s.08.13,0,.3,0,.3.14.29.22.12.24.75a2.7,2.7,0,0,1-.15,1.13c-.22.46-.24.37.18.87a2.67,2.67,0,0,1,.74,1.81c-.11.41-.24.41-.66,0a.77.77,0,0,1-.27-.83,1,1,0,0,0,0-.55c-.09,0-.22.74-.45,2.69a.66.66,0,0,0,.13.56c.2.17.22.09.2-.87,0-.54.14-.72.29-.34a1.49,1.49,0,0,1-.25,1.46c-.36.34-.42.67-.11.55s.19,0,.12.33a1.51,1.51,0,0,0,.09.88c.11.26.29.78.42,1.17A12,12,0,0,0,17,83.89c.1.16.15.32.12.36s-.17-.1-.28-.32a1,1,0,0,0-.3-.4c-.18,0-.65-.84-.86-1.52-.29-1-.54-1.53-.69-1.53-.36,0-.23,1.71.19,2.55.09.17.26.57.38.89a5.12,5.12,0,0,0,.75,1.21A22,22,0,0,1,18,87.44c.08.15.33.77.54,1.37a7.14,7.14,0,0,0,.46,1.1,37.74,37.74,0,0,0-.12-4c-.06-1.12.16-1.2.26-.1,0,.35.1.62.14.59a7,7,0,0,0-.17-2.59c-.07-.28-.05-.41,0-.41a.17.17,0,0,1,.15.18.37.37,0,0,0,.13.27c.1.06.11-.07.06-.41L19.43,83l.26.32a1.53,1.53,0,0,1,.29.57.4.4,0,0,0,.19.29c.19.06,0-.59-.34-1.3s-.32-.78-.13-.89.27.15.46.44.42.51.51.51.23.12.31.27c.22.41.26.22.11-.6s-.54-1.46-.69-1.3a2.19,2.19,0,0,0,.14.73,1.83,1.83,0,0,1,.13.73,4.37,4.37,0,0,1-.46-1.48,1.26,1.26,0,0,0-.25-.52c-.58-.73-.13-.86.69-.18a1.86,1.86,0,0,1,.72,1c.12.44.17.52.21.32a1.5,1.5,0,0,0-.14-.7,9.09,9.09,0,0,1-.34-.93,8.53,8.53,0,0,0-.4-1,1.14,1.14,0,0,1-.17-.61c0-.07,0-.27-.18-.46s-.23-.39-.18-.46.19.1.32.38.35.55.48.58a5.24,5.24,0,0,1,1.22,2.33,6.44,6.44,0,0,0,.32,1,1,1,0,0,1,.13.69,1.75,1.75,0,0,0,0,.74c.08.67-.11.73-.41.12s-.45-.68-.45-.28a1.53,1.53,0,0,0,1.17,1.22c.29,0,.36.06.33.23s-.9.28-1.25,0c-.2-.19-.28-.2-.43-.08s-.21.08-.33-.35-.39-.82-.38-.44a2.56,2.56,0,0,0,.61,1.59c.29.29.37.45.28.6a1.93,1.93,0,0,0-.1.69c0,.67-.09.7-.37.13-.16-.34-.33-.5-.55-.53a1.27,1.27,0,0,1-.48-.18c-.21-.17-.33-.05-.23.24a1.78,1.78,0,0,0,1.24,1c.68.22,1,.53.5.53-.15,0-.27-.08-.27-.19s0-.16-.24,0-.39.12-.91,0a2,2,0,0,0-.74-.08c-.12.12.36,1,.59,1,.67.22.92.35.92.5a.26.26,0,0,1-.15.22A3,3,0,0,1,19.61,89c-.12-.1-.16-.09-.15,0a2.22,2.22,0,0,0,.64.72c.48.41.73.54,1.07.54s.58.17.21.37-.77,0-1.32-.39a2,2,0,0,0-.6-.36c-.22,0,.35,1.31.7,1.62s.57.35,1.27.09c.44-.17.56-.29.67-.69.19-.61.19-.64,0-.64s-.21-.49.19-.73.64-.78.33-1-.25-.47.11-.64a.73.73,0,0,0,.37-.34c.19-.72.2-.95.06-1.12s-.12-.23.08-.38.37-.88.37-2.53a3.43,3.43,0,0,1,.09-1.09c.16-.1-.12-1-.33-1.09a.63.63,0,0,1-.25-.43.68.68,0,0,0-.27-.43c-.12,0-.18-.26-.18-.6s-.05-.54-.25-.59-.26-.15-.26-.26.08-.16.33-.1A.67.67,0,0,0,23,79c.13-.1.25-.06.49.19a1.08,1.08,0,0,0,.51.32c.12,0,.16.09.12.26a.35.35,0,0,1-.31.25c-.27,0-.29.1-.11.56.06.18.21.33.32.33s.24.24,0,.51-.16.25,0,.56a1.65,1.65,0,0,1,.19.48,3.9,3.9,0,0,0,.3.78A3.63,3.63,0,0,1,25,85.65c-.08.9-.07,1,.17,1s.34.24.1.39a2.92,2.92,0,0,0-.61,1.74c.16.16.18.55,0,.61a2.73,2.73,0,0,0-.45.71c-.29.58-.3.68-.13.75s.15.49-.19.87c-.59.68-.85,1.66-.93,3.57a3,3,0,0,1-.14.92c-.08.13.06.56.25.78,0,0,.19-.07.39-.23a1.1,1.1,0,0,1,.61-.25c.6,0,.83,0,.83-.22a.55.55,0,0,1,.21-.36c.17-.12.18-.2.05-.44-.22-.41,0-.61.44-.42.29.13.32.12.32-.1s-.07-.25-.16-.26a.8.8,0,0,1-.34-.11c-.27-.17.13-.92.61-1.13s.68-.79.09-.79c-.34,0-.64-.3-.52-.51s.24-.11.44-.07.35.06.34-.34a1.13,1.13,0,0,0-.24-.67c-.29-.32-.28-.42.07-.47s.29-.14.33-.46,0-.41-.16-.41a.21.21,0,0,1-.22-.16,1.35,1.35,0,0,1,.17-.83c.1-.12.06-.16-.14-.16s-.27-.08-.27-.19,0-.19.12-.19a.6.6,0,0,0,.31-.19c.27-.27.11-.7-.32-.85-.64-.23-.39-.53.46-.55a1.92,1.92,0,0,0,.68-.11c.22-.14.35.28.17.57s-.18.37,0,.37c.5,0,.34.8-.19,1-.22.09-.38.25-.38.39,0,.4.28.43.6.06s.3-.28.3-.14c0,.38-.37,1.09-.57,1.09s-.2.12-.2.44c0,.6.29.59.59,0,.18-.37.24-.42.28-.24s-.44,1.36-.62,1.36-.15.34,0,.44a.29.29,0,0,0,.32-.07c.15-.13.19-.1.19.17a1,1,0,0,1-.39.65c-.39.32-.48.63-.25.78a.31.31,0,0,0,.32-.06c.38-.32.5,0,.14.31s-.31.39-.21.45,0,.64-.26.64-.31.15,0,.44.22.27.11.41a1.33,1.33,0,0,0-.08.8c0,.48,0,.64-.11.64-.38,0-.15.25.3.32a3.68,3.68,0,0,1,.73.18,1.52,1.52,0,0,0,1.15,0h0a1.12,1.12,0,0,1,.38-.15c.07,0,.11-.15.09-.32,0-.36.16-.51.7-.51a.55.55,0,0,0,.56-.27C31,96.06,31,96,30.92,96.08Zm-4-8c.14,0,.26-.08.26-.18a.31.31,0,0,0-.2-.25c-.3-.11-.31-.1-.31.18A.22.22,0,0,0,27,88.12ZM15.27,73.49a1.36,1.36,0,0,0,0-.77c-.11-.8-.32-.85-.32-.09S15.1,73.67,15.27,73.49Zm14.37,9.22c0-.55,0-.57-.26-.42s-.31,1,.08,1C29.58,83.28,29.64,83.11,29.64,82.71Zm-.29,1.12c-.18.06-.17,1,0,1.1a.74.74,0,0,1,.2.36c.16.51.33.3.25-.32C29.7,84.15,29.54,83.76,29.35,83.83Zm-.22,2.28a.92.92,0,0,0,.41.75c.39.34.73.47.73.29a1.68,1.68,0,0,0-.67-1.26C29.1,85.65,29.13,85.63,29.13,86.11Zm0,1.63c0,.47,0,.52.6.82.76.39.93.4.92,0,0-.57-.15-.86-.49-.95a1.79,1.79,0,0,1-.58-.25C29.19,87.14,29.13,87.19,29.13,87.74Zm1.8-2.17a.56.56,0,0,0-.46.7c.2.66.18.63.37.44a1.58,1.58,0,0,0,.27-.66C31.18,85.62,31.16,85.57,30.93,85.57Zm.06-.48.1.29.05-.29a.66.66,0,0,0,0-.38C31,84.57,30.89,84.8,31,85.09Zm-.2,7.75a.12.12,0,0,0-.13.12c0,.07,0,.13.05.13s.09-.06.14-.13S30.87,92.84,30.79,92.84Zm-1.28-1.27c0,.07.12.12.27.12s.24,0,.11-.19S29.51,91.35,29.51,91.57Zm.64-1c0-.12-.78-.56-.86-.49s0,.18.08.32S30.15,90.79,30.15,90.57Zm-.32,1.84c-.11,0-.19.09-.19.12s.08,0,.19,0,.19-.06.19-.12S29.93,92.37,29.83,92.41Zm-.19,1.26c0,.21.2.25.32,0a.14.14,0,0,1,.19,0,.31.31,0,0,0,.28,0c.1-.07,0-.13-.22-.2C29.8,93.34,29.64,93.4,29.64,93.67Zm.18,1.57c.11.17.71.19.71,0s-.52-.43-.67-.28A.22.22,0,0,0,29.82,95.24Zm-.34-6.31c-.18-.06-.23,0-.23.26s.08.33.17.33a.75.75,0,0,1,.38.26c.27.32.55.32.72,0S30.75,89.34,29.48,88.93Zm1.68-1.09c0-.26,0-.36-.12-.28A.47.47,0,0,0,31,88C31.1,88.37,31.16,88.32,31.16,87.84Zm1.42,4.52c-.22,0-.27,0-.4-.78a4.57,4.57,0,0,0-.33-1.11c-.1-.15-.14-.3-.1-.34a2.3,2.3,0,0,0,0-.79c-.07-.6-.12-.71-.34-.71s-.26.05-.17,1a6.25,6.25,0,0,0,.16,1.1,9.94,9.94,0,0,1,.19,2.19c0,.83.07,1.11.36,1s.31-.11,0,.51a2.46,2.46,0,0,0-.26.65.29.29,0,0,1-.2.22c-.11,0-.16.14-.1.23s.15.06.29-.16a5.92,5.92,0,0,1,.69-.78c.48-.45.53-.74.14-.74-.23,0-.24-.5,0-.68a1.21,1.21,0,0,0,.26-.51C32.82,92.34,32.8,92.3,32.58,92.36Zm.2-1.64.43-.52a1.85,1.85,0,0,0,.11-.77v-.61l-.26.58a3.76,3.76,0,0,1-.5.83.59.59,0,0,0-.15.56l.08.3Zm.3,1.41c-.1.12-.11.2,0,.2a.32.32,0,0,0,.22-.14C33.41,92,33.25,91.92,33.08,92.13Zm.31,1.22c.09-.15-.15-.3-.32-.2s0,.32.13.32A.25.25,0,0,0,33.39,93.35ZM38.65,96a.53.53,0,0,1-.31.15c-.23,0-.21-.38,0-.47a.3.3,0,0,0,.19-.26c0-.14-.07-.17-.28-.1-.68.21-1,.23-1,.05a.23.23,0,0,1,.26-.14c.28,0,.64-.53.54-.86s-.2-.33-.59,0A4.5,4.5,0,0,1,36,95c-.15,0-.12.11.12.3s.29.27.16.4a.83.83,0,0,0,0,1c.13.1.16.21.08.3a11,11,0,0,0-.15,3.66c.26,1.59.27,1.65.48,1.61a.23.23,0,0,1,.26.13c0,.08,0,.16-.15.16-.29,0-.24.33.09.56s.42.25.66-.08a1.19,1.19,0,0,0,.2-.55c0-.4.14-.47.4-.23s.42.15.42-.25c0-.19.09-.28.26-.28s.3-.14.4-.45.2-.44.48-.4.34,0,.33-.71c0,0-.1-.1-.21-.1a.29.29,0,0,1-.27-.16.13.13,0,0,1,.14-.16.65.65,0,0,0,.47-1c-.1-.16-.17-.15-.5.1-.5.37-.51.18,0-.3s.45-.52.26-.82-.18-.15-.52.1c-.6.45-.73.26-.18-.26s.46-.49.32-.66a.37.37,0,0,0-.65,0c-.18.22-.38.25-.38.06s.15-.2.32-.28c.37-.16.41-.38.12-.62S38.76,95.89,38.65,96Zm-1.88-1.63c.21-.14.17-.2-.21-.32s-.5.09-.36.31S36.52,94.52,36.77,94.37Zm1.64-5.67c-.21-.57-.47-1.24-.57-1.51-.54-1.44-1.06-1.92-.89-.8a15.34,15.34,0,0,0,1.49,3.26C38.88,90.33,38.87,89.86,38.41,88.7Zm.48-.62s0-.29-.14-.54c-.28-.6-.4-.48-.14.14C38.72,87.94,38.85,88.12,38.89,88.08Zm2.42,5.15a.54.54,0,0,0,.34.73c.38.18.43.18.52,0a.61.61,0,0,0-.12-.75C41.76,92.88,41.4,92.91,41.31,93.23Zm-.57,1H40.4l.31.22a3.86,3.86,0,0,1,.58.49c.29.32.4.35.51.16S41.12,94.23,40.74,94.24Zm-.34-.77c.11,0,.19-.06.19-.13s-.08-.12-.19-.12-.19.06-.19.12S40.29,93.47,40.4,93.47Zm-.52-2.31c.08.24.84.82.94.72s-.06-.15-.19-.28a6.62,6.62,0,0,1-.44-.55C40,90.7,39.76,90.77,39.88,91.16Zm-.22,1.78c.19,0,.36-.1.38-.17a.62.62,0,0,0-.14-.39c-.18-.24-.19-.24-.38,0S39.27,93,39.66,92.94Zm-.3-1.11a.51.51,0,0,0-.38-.21c-.19,0-.23.08-.19.39.06.49.28.62.51.29S39.45,92,39.36,91.83Zm-.81-13.17a1.75,1.75,0,0,0-.2-.62,8.22,8.22,0,0,1-.48-2.17,1.25,1.25,0,0,0-.25-.59,22,22,0,0,1-1.1-2c-.94-1.86-1.52-2.62-2-2.57-.22,0-.26,0-.26-.44a1.27,1.27,0,0,0-.1-.57c-.16-.16-.11-.43.18-.81a.87.87,0,0,0,.2-.73c-.06-.28,0-.41.17-.53s.25-.22.23-.31c0-.34,0-.47.22-.47s.2-.1.14-.52a2,2,0,0,0-.14-.6c-.17-.16-.37.24-.43.85,0,.36-.13.65-.21.65-.27,0-.48.49-.32.78s.08.3-.19.54a1,1,0,0,0-.34.53,4.79,4.79,0,0,1-.35,1.08c-.26.63-.41.84-.63.87s-.28,0-.28-.32a5.7,5.7,0,0,1,.19-1.06c.1-.38.19-.74.19-.79,0-.25-.54,0-1.08.4s-1,.66-1.45.5-.47.1-.35.67c0,.28,0,.37-.08.31l-.38-.15c-.15,0-.23-.21-.23-.48,0-.74-.12-1-.46-.89s-.3,0-.3-.18a.35.35,0,0,0-.25-.32c-.21,0-.26,0-.33.5a3.55,3.55,0,0,0,0,1c0,.27.1,1,.12,1.63a11.27,11.27,0,0,0,1,4.44c.31.83.34,1.48.06,1.48-.12,0-.13,0-.18-.48s-.26-.63-.39-.51A18.85,18.85,0,0,0,28.88,80,8.61,8.61,0,0,1,29,81.27c0,.22,0,.35.16.35.27,0,.62-.46.58-.78a2.34,2.34,0,0,1,.07-.63c.05-.19.16-.81.24-1.39a2.5,2.5,0,0,1,.31-1.11c.21-.07.21.61,0,1.71a12.21,12.21,0,0,0-.1,3,15.71,15.71,0,0,0,.18,2.22c.05.05.18-.1.28-.34.19-.43.19-.43.19-.09s.35.48.51.07a9.91,9.91,0,0,0,.33-1.36c.2-1.07.4-1.63.53-1.5a.82.82,0,0,1-.07.49,15,15,0,0,0-.45,4,2.89,2.89,0,0,0,.2,1c.06,0,.08.28,0,.53-.11.57.17.53.46-.07.1-.22.23-.4.29-.4.29,0-.15,1.38-.51,1.62a.4.4,0,0,0-.19.48c.1.52.36.36.71-.45a1.9,1.9,0,0,1,.46-.76c.08,0,.1-.34,0-.93-.08-1,.12-1.87.34-1.48a1.08,1.08,0,0,1,0,.69,2.21,2.21,0,0,0-.06.87c0,.21.13,1,.2,1.8A13.27,13.27,0,0,0,34,90.87a4.79,4.79,0,0,1,.19,1,1,1,0,0,0,.3.72c.29.28.38.3,1.25.24a4.07,4.07,0,0,1,1.26.06c.41.17.76.18.76,0a.15.15,0,0,0-.16-.13,2,2,0,0,1-1-.27,1.37,1.37,0,0,0-.81-.07c-.5.06-.66,0-.71-.11a.31.31,0,0,1,0-.27,2.93,2.93,0,0,1,1.67.13c.39.21,1,.29.94.12s-.25-.47-.51-.93c-.47-.84-.74-1.94-.5-2.09s.9,1,.9,1.21.63,1,.84,1,.21-.36-.26-1.13a16,16,0,0,1-1.78-4.16c-.37-1.44-.38-1.51-.2-1.4a.44.44,0,0,1,.13.33c0,.13,0,.25,0,.25l.26.07c.37.15.22-.49-.38-1.54a10.85,10.85,0,0,0-.85-1.3,1.23,1.23,0,0,1-.28-.89,2.42,2.42,0,0,0-.11-.76.83.83,0,0,1,.05-.54c.19-.55.07-.8-.33-.7s-.4,0-.11-.45.14-1.08-.21-1-.45-.16-.18-.46.23-.27,0-.46a.65.65,0,0,1-.28-.62c0-.33-.13-.55-.57-1a2.54,2.54,0,0,0-.7-.57.13.13,0,0,1-.13-.13c0-.27.34-.11.89.43.79.77,1,1.06,1,1.33a.63.63,0,0,0,.1.35A21.73,21.73,0,0,1,36,82.07a2.45,2.45,0,0,0,.32.83,24.35,24.35,0,0,1,1.48,2.84c.45,1,.61,1.06.31.22a3.27,3.27,0,0,1-.2-.82,1.58,1.58,0,0,0-.16-.59.93.93,0,0,1-.06-.7c.16-.56,0-1.22-.24-1.12s-.2,0-.13-.48c0-.31.12-.72.16-.92s0-.37-.19-.43-.25-.13-.17-.34a3.38,3.38,0,0,0,0-1.83c-.08,0-.19.09-.24.24s-.1.27-.15-.09a1.61,1.61,0,0,1,.07-.7c.15-.42-.06-1-.34-1s-.21-.07-.18-.5-.14-1.19-.32-1.19-.17.16-.25.35c-.14.35-.14.34-.17-.16,0-.28,0-.66-.05-.85s-.27-.74-.47-.74-.11.15-.11.35,0,.33-.17.09a2.11,2.11,0,0,1-.25-.76,1.39,1.39,0,0,0-1.17-1.16c-.43-.07-.62-.29-.29-.32a1.68,1.68,0,0,1,1,.17.28.28,0,0,0,.29,0c.07,0,.18.06.25.23a1.37,1.37,0,0,0,.35.49,4.76,4.76,0,0,1,.93,1.18,5,5,0,0,0,.44.71,3.87,3.87,0,0,1,.52,1.05,1.64,1.64,0,0,0,.21.56,15.93,15.93,0,0,1,.87,2.74,2.06,2.06,0,0,0,.15.58c.18.42.19.48.21,1.6,0,.59.07.86.18.86s.15.32.12,1.3c0,1.14.08,1.82.28,1.62a5.68,5.68,0,0,0,.14-1,11.34,11.34,0,0,1,.28-1.65,4.84,4.84,0,0,0-.28-3A7.83,7.83,0,0,1,38.55,78.66Zm-.14-4.42c-.13,0-.15.27,0,.57s.29,0,.21-.33C38.55,74.35,38.47,74.24,38.41,74.24ZM37.4,71a2.14,2.14,0,0,0-.26-.62L36.88,70l.06.55c0,.3,0,.52,0,.47a16.25,16.25,0,0,1-.75-2.46c-.07-.33-.11-.38-.26-.27a.51.51,0,0,0-.17.32,6.32,6.32,0,0,1-.59,1.5c-.2.4-.13.62.19.57s.77.4.92.91a2.17,2.17,0,0,0,.32.7c.16.22.21.23.31.06s.12-.09.12.2c0,.52.24,1.33.39,1.33s.12-.08.12-.19c0-.3.2-.22.37.15s.38.27.41-.28a4.27,4.27,0,0,0-.44-1.35A6.84,6.84,0,0,1,37.4,71Zm.9-8.15c0-.06-.14-.17-.32-.24-.38-.14-.4-.34-.07-.69s.23-.37.17-.81-.13-.52-.2-.5a2.8,2.8,0,0,0-.53,1.56,2.58,2.58,0,0,0,.5,1C38,63.27,38.3,63.06,38.3,62.88Zm.32-3.4c.39-.18.44-.26.44-.68,0-.69-.18-.7-.56,0C38,59.6,38.06,59.73,38.62,59.48ZM39,60.84c.18-.19.2-.87,0-.87a.13.13,0,0,0-.13.13c0,.08,0,.1-.12.06s-.13.11-.13.37C38.68,61,38.78,61.09,39,60.84Zm.51,3.72a8.57,8.57,0,0,0-.16-1.3c-.11-.64-.2-1.3-.2-1.47s-.08-.29-.19-.29-.25.55,0,1.76C39.19,64.16,39.47,64.81,39.55,64.56Zm.21-8.28a.14.14,0,0,0-.06-.19c-.07-.05-.13,0-.13.11S39.65,56.46,39.76,56.28Zm1.6,10.82h0a13.08,13.08,0,0,1-.19-1.65c-.05-.67-.11-1.39-.13-1.6s-.08-1.65-.13-3.21l-.1-2.82-.33,0c-.27,0-.36-.14-.45-.52s-.16-.48-.22-.48c-.21,0-.24.54,0,.95s.2.46,0,.66-.17.25-.08.35.18.09.29,0,.48-.2.48,0a1,1,0,0,1-.31.44.9.9,0,0,0-.32.7c0,.35,0,.38.19.24.33-.27.35,0,0,.5-.22.38-.26.55-.15.66s.19.08.35-.08c.36-.36.38-.1,0,.36s-.42.74-.25.9.16,0,.25-.06.17-.09.17.05a.52.52,0,0,1-.19.35c-.3.25-.19,1.32.12,1.2.12,0,.15.11.11.61a4.64,4.64,0,0,0,.09,1.25c.08.31.19.79.25,1,.11.54.38.92.53.77A.77.77,0,0,0,41.36,67.1Zm1.72-3.82c0-.52-.13-2-.21-3.29a15.21,15.21,0,0,1,0-3.37c.11-.75.11-1.07,0-1.19-.23-.28-.33-.2-.41.33s-.15.51-.37.54-.3.16-.37.48-.15.46-.23.49-.13.28-.13.56v.52l.44-.08c.54-.08.55,0,.08.37-.26.22-.35.39-.3.61s.11.29.33.24.26-.06.07.23c-.47.73-.55.88-.46,1s.23,0,.4-.12c.43-.28.41-.12,0,.43a1.62,1.62,0,0,0-.39,1c0,.48,0,.53.31.57l.34,0-.27.34a1.4,1.4,0,0,0-.27.75c0,.36,0,.4.3.35l.31-.06-.24.39c-.33.55-.33,1.35,0,1.44s.25.08,0,.43a.61.61,0,0,0-.06.69c.12.27.19.31.4.2.39-.21.43-.16.14.2s-.34.82,0,.9.35.37.1.45-.05.31.78,1.78c.6,1.06,1.56,1.77,1,.76S43.32,67,43.08,63.28Zm1-7.75a16.11,16.11,0,0,0-.19-1.62c-.1-.7-.19-1.34-.19-1.43s-.09-.15-.21-.15-.2.16-.15,1.36a4.88,4.88,0,0,0,.28,1.79C43.83,56,44,56,44,55.53ZM45.7,55c-.24-.06-.26-.13-.19-.75s-.07-1.12-.4-1-.23,0,0-.47.24-.9-.06-1c-.14,0-.26-.14-.26-.24s-.16-.22-.56.1-.34.33-.27.77a2.3,2.3,0,0,0,.26.78,2.92,2.92,0,0,1,.26.79c.05.28.2.91.34,1.4.49,1.74,1.89,4.09,1.89,3.17a.31.31,0,0,0-.24-.26c-.2-.06-.22-.16-.18-.68s-.12-1.15-.43-1.15c-.15,0-.18-.08-.12-.33C46,55.21,46,55.12,45.7,55Zm4.21-9.31c-.28.23-.66.52-.84.65s-.44.47-.26.47.5-.24,1-.52c.67-.37,1-.6,1-.77C50.78,45.21,50.49,45.26,49.91,45.73Zm-3.2,1.12a.11.11,0,0,0,.12-.11,7.71,7.71,0,0,1,1.1-1c.6-.48,1.21-1,1.35-1.11s.25-.24,0-.42-.3-.15-.68.11a10.46,10.46,0,0,0-1.8,1.88C46.55,46.56,46.51,46.85,46.71,46.85ZM47,49.31c-.1-.11-.46.13-.46.31s0,.16.25,0S47.07,49.33,47,49.31Zm.27-1.79c.55-.55,1.14-1.11,1.31-1.26s.47-.46.66-.67a1.41,1.41,0,0,1,.48-.4c.07,0,.13-.09.13-.2s-.19-.05-.65.32a3.67,3.67,0,0,1-.78.52A4.31,4.31,0,0,0,47.34,47a.1.1,0,0,1-.11.1,2.17,2.17,0,0,0-.58.45,2.23,2.23,0,0,1-.59.45c-.07,0-.12.11-.12.25C45.94,48.71,46.31,48.52,47.31,47.52ZM50,47.23a5.59,5.59,0,0,1,1-.56c.15-.05.28-.15.28-.21s-.6-.15-.7,0a5,5,0,0,1-1,.57,7.43,7.43,0,0,0-2.25,1.5c0,.18.29.09,1.13-.38C48.93,47.9,49.63,47.48,50,47.23Zm2.29-.58a1.34,1.34,0,0,0-.7.19,3.45,3.45,0,0,1-.74.26,1.33,1.33,0,0,0-.53.39,1.46,1.46,0,0,1-.53.38.28.28,0,0,0-.24.13c-.11.18.16.15.55,0a11.23,11.23,0,0,1,2-.78C52.44,47.1,52.56,46.81,52.31,46.65ZM2.38,10.86c-.08,0-.13,0-.13.06a.13.13,0,0,0,.13.13c.07,0,.12,0,.12-.05S2.45,10.91,2.38,10.86Z"/><path class="cls-1" d="M47.85,48.36c-.35-.32-.39-.4-.32-.77a3.31,3.31,0,0,1,.54-1,1.81,1.81,0,0,0,.46-1c0-.21-.05-.38-.11-.38s-.12-.08-.12-.18-.15-.21-.62.16a2.22,2.22,0,0,1-.86.42,2.19,2.19,0,0,0-.71.26c-.26.17-.29.15-.78-.39a5.42,5.42,0,0,1-.64-.88c-.13-.31-.57-.46-.57-.19,0,.07-.08.09-.18.05s-.21,0-.25.17-.09.23-.12.23-1.69-1.16-2.88-2L39.1,41.62a5.74,5.74,0,0,1-1.1-.94,1.51,1.51,0,0,0-.58-.47c-.48-.2-.48-.33,0-.8.24-.25.32-.42.27-.57s-.44-.2-1.29,0c-.19,0-.29,0-.34-.15a2.88,2.88,0,0,0-.5-.63,21,21,0,0,1-2.05-2.61c-.25-.38-.54-.8-.64-.93-1-1.2-1.82-2.29-2.57-3.34L29.37,30l.35-.07a.84.84,0,0,0,.34-.12c0-.19-.36-.65-1-1.28l-.74-.74.42-.66a3.7,3.7,0,0,1,.59-.76c.21-.13.2-.24-.06-.4s-.33-.08-.81.14-.62.24-.67.16a29.87,29.87,0,0,1-.46-4c0-.67-.11-1.53-.17-1.92a9.23,9.23,0,0,1-.11-1.13c0-.38,0-.43.26-.43a2.89,2.89,0,0,1,.72.17,3.3,3.3,0,0,0,.61.17c.24,0,.18-.55-.07-.63a1.81,1.81,0,0,1-.49-.36l-.28-.3.5-.41a1.3,1.3,0,0,0,.49-.64c0-.22-.05-.23-.63-.16l-.64.08-.22-.79c-.3-1-1.12-4.53-1.53-6.54-.36-1.74-.44-2-.6-1.91s-.1,0-.1-.12c0-.28.45-.45,1-.37.29,0,.51,0,.52,0s0-.17,0-.24-.17-.21-.39-.32A1,1,0,0,1,25.8,6c0-.08.22-.31.54-.53,1-.64.75-.93-.45-.56l-.76.24-.23-.27c-.13-.14-.31-.38-.41-.51A.92.92,0,0,0,24,4c-.29-.09-.3,0-.07.73.1.3-.11.35-.4.09a5.81,5.81,0,0,0-1.11-.51,30.89,30.89,0,0,1-4-1.74.17.17,0,0,1,.08-.19c.14-.09.17-.6,0-.69a2.3,2.3,0,0,0-.77.18l-.68.23-.42-.39c-.22-.21-.45-.43-.49-.48s-.33.06-.33.46-.06.42-.32.53c-1.44.58-1.57,1-.37,1.19.25,0,.49.15.53.25a3.36,3.36,0,0,1-.29,1.1,9.38,9.38,0,0,0-.38,1.07,12.8,12.8,0,0,1-1.35,2.61c-.07,0-.27-.16-.44-.41s-.36-.45-.54-.4-.22.14-.2.54c0,.6,0,.72-.47.81a1.85,1.85,0,0,0-.73.42c-.45.41-.36.54.5.65s.78.15.95.75a1.09,1.09,0,0,0,.28.54c.07,0,.32-.15.54-.39L14,10.5l.66.14a8.92,8.92,0,0,1,2.07.95c.78.45,1.45.82,1.49.82a24.94,24.94,0,0,1,2.36,1.46,6.88,6.88,0,0,0,.93.52,6.82,6.82,0,0,1,.93.53,32.31,32.31,0,0,0,3,1.79c.28,0,.05.24-.42.45-.75.34-.67.72.19.87a1.84,1.84,0,0,1,.63.24c.19.13.2.22.1.67-.18.78,0,1,.44.6.17-.16.22-.16.26,0s.17,1.31.31,2.72c.39,3.93.38,3.89.23,3.89s-.75-.46-1-.91c-.15-.25-.34-.43-.46-.43s-.22.11-.23,1a5.27,5.27,0,0,1-.1,1.19,1.2,1.2,0,0,1-.61.21c-.59.09-1.21.53-1.21.87,0,.16.08.23.27.23a4.6,4.6,0,0,1,1.52.47c.06.05-.08.29-.3.54L23.33,31.2c-1.3,1.43-1.79,1.8-2.58,1.95-.38.07-.44,0-.83-.45a1.89,1.89,0,0,0-.72-.57c-.27-.05-.28,0-.25.65l0,.7-.61.24c-.77.3-1,.6-.55.76a1.61,1.61,0,0,0,.47.12c.19,0,.23.18.07.28s-5.92,1.34-7.13,1.51c-.33,0-.55,0-.55,0a.19.19,0,0,1,.09-.16,1.64,1.64,0,0,0,.35-.41.8.8,0,0,0,.19-.66c-.09-.35-.15-.36-.72-.12a8.79,8.79,0,0,1-.9.34c-.25.08-.55.18-.66.23s-.29-.08-.62-.6c-.51-.8-.4-.68-.78-.77l-.32-.08v1c0,1.16,0,1.18-.85,1.42-.6.18-1,.47-.86.72a1.79,1.79,0,0,0,.74.38,5.58,5.58,0,0,1,.81.31,2.16,2.16,0,0,1,.28.8c.14.68.59,1.38.88,1.38.07,0,.16-.17.19-.39a2.77,2.77,0,0,1,.39-.88l.33-.49.81.05a7.6,7.6,0,0,1,1.08.14c.25.08.26.06.19-.3a1.85,1.85,0,0,0-.36-.73c-.39-.48-.65-.39,3.46-1.24.92-.19,2.1-.45,2.61-.57a11.64,11.64,0,0,1,1.45-.25l.52,0L19,36c0,.27.09.5.15.5a2.43,2.43,0,0,0,.62-.55l.49-.54.63.14c1,.22,1,.22,1-.1s-.05-.34-.32-.49c-.57-.32-.55-.49.14-1.28.93-1.06,3.7-4,3.81-4s.23.29.28.86c0,.24.09.46.17.48s.8-.4.88-.67.13-.23.19-.23.1.32.05.9-.12,1.82-.18,2.94-.16,2.51-.22,3.08-.23,2.18-.36,3.59c-.42,4.48-.94,9.27-1.05,9.79a4.69,4.69,0,0,0-.11.77c0,.47-.23.47-.64,0s-.4-.44-.63-.23a.86.86,0,0,0-.24.71c0,.43-.05.52-.44.78a2.94,2.94,0,0,1-.75.36c-.51.12-.38.29.37.5l.7.19v.86c0,.68,0,.87.19.93s.27,0,.4-.21.22-.21.22-.13-.53,2.31-.95,3.68c-.19.64-.39,1.4-.44,1.69s-.21.91-.35,1.39-.29,1.05-.35,1.26A2.36,2.36,0,0,1,21.83,64a1.44,1.44,0,0,1-.41-.33,1.34,1.34,0,0,0-.6-.39c-.27,0-.28,0-.28.68v.73l-.49.13c-.95.24-1.08.3-1.11.55s0,.26.4.32c1.21.2,1.55.53,1.55,1.49a.79.79,0,0,0,.16.53,1.36,1.36,0,0,1,.18,1.17,6.18,6.18,0,0,0-.15,1c0,.38-.15,1.3-.25,2s-.23,1.73-.29,2.21-.21,1.55-.34,2.39-.28,2-.35,2.67-.17,1.52-.23,2-.19,1.52-.29,2.38-.26,2-.35,2.55-.2,1.28-.24,1.64c-.1.84-.19,1-.5.81a1.17,1.17,0,0,0-.47-.12c-.19,0-.24.08-.27.49s-.07.51-.73.86-.7.43-.7.64a.34.34,0,0,0,.29.35l.81.24.53.14v.76c0,1,.15,1,.74.12l.45-.64.69,0c.68,0,.7,0,.63-.25a1.66,1.66,0,0,0-.45-.58,1.33,1.33,0,0,1-.38-.4,3,3,0,0,1,.57-.51c.45-.33.56-.47.51-.66s-.13-.22-.22-.19c-.47.18-1,.21-1.11.06a6.47,6.47,0,0,1,.09-2.08c0-.22.13-1,.22-1.74s.27-2.15.4-3.14.29-2.22.35-2.73.19-1.5.29-2.21c.2-1.36.47-3.42.64-4.76.06-.44.16-1.07.23-1.39.1-.5.34-2.54.39-3.41,0-.46.31-.56,1.32-.47A5.65,5.65,0,0,0,24,67a.87.87,0,0,0,0-.35,1.69,1.69,0,0,0-.65-.72c-.31-.22-.56-.48-.56-.56a2.28,2.28,0,0,1,.65-.71c.36-.31.6-.58.53-.6s-.09-.12-.06-.21-.06-.2-.64.13a2.78,2.78,0,0,1-.61.29c-.2,0-.09-.78.35-2.44.25-.93.56-2.16.71-2.73.45-1.82,1.19-4.52,1.36-4.91.08-.21.2-.38.26-.38s.24.25.4.55.66,1.24,1.13,2.07,1,1.9,1.25,2.38c.48,1.08,1.51,3.13,1.68,3.37a3.46,3.46,0,0,1,.32.58c.1.22,1,2,1.94,3.92s1.76,3.62,1.76,3.75-.07.22-.15.22-.17.17-.18.44c-.07,1-.05,1-.69,1.31-.94.45-.94.72,0,.92a1.56,1.56,0,0,1,.7.27,2,2,0,0,1,.09.69c0,.63.1.68.5.25.16-.16.31-.26.34-.2a5.42,5.42,0,0,1-.09,1.2c-.09.61-.24,2-.34,3-.22,2.2-.48,4.46-.65,5.64-.22,1.51-.22,1.5-.69,1.06a1.69,1.69,0,0,0-.62-.35l-.33-.09.08.59c.08.58.08.58-.31.74-.21.09-.54.21-.73.27-.63.19-.51.47.31.72s.73.23.92.79a4.06,4.06,0,0,1,.21.94c0,.55.25.47.7-.21A2.37,2.37,0,0,1,33.4,88a1.85,1.85,0,0,1,.74,0c.51.1.57.09.57-.1a.78.78,0,0,0-.31-.45,2.72,2.72,0,0,1-.48-.48c-.15-.22-.13-.27.23-.57a2.36,2.36,0,0,1,.6-.41c.15,0,.18-.14.13-.32-.11-.36-.1-.35-.58-.2-.29.1-.46.11-.54,0s0-1.18.26-3.6c.06-.47.19-1.88.29-3.14a27.68,27.68,0,0,1,.64-4.9c.08-.13.19-.14.63,0,.77.21.91.19.76-.09a.41.41,0,0,0-.29-.23c-.21,0-.76-.66-.76-.92a1.74,1.74,0,0,1,.53-.7c.4-.37.51-.54.46-.72s-.14-.21-.21-.18a8.5,8.5,0,0,1-1.41.41s-.66-1.32-1.43-2.89c-2.31-4.7-4.55-9.2-4.87-9.75a41.93,41.93,0,0,1-2.26-4.68s.29,0,.53.09a1.28,1.28,0,0,0,.6.13c.26-.1,0-.59-.51-.87A5.61,5.61,0,0,1,26,53l-.29-.23.44-.4a5,5,0,0,1,.63-.51c.18-.1.18-.13,0-.3s-.28-.17-.66-.08-.49.06-.52,0A37.87,37.87,0,0,1,26,46.79c.13-1.11.29-2.6.36-3.31s.18-1.77.24-2.38c.26-2.56.6-6.44.69-8a17.22,17.22,0,0,1,.34-3.47c.07-.12.19-.12.56,0s.62.24,2,2,2.08,2.78,3.17,4.22c2.07,2.75,2.12,2.86,1.55,3.47a1.38,1.38,0,0,1-.82.42c-.76.12-.65.39.21.49s1.11.24.93.78c-.28.85.16.9.74.09.37-.53.44-.57.7-.47a11,11,0,0,1,2.45,1.5l2.15,1.54a10.59,10.59,0,0,1,2.61,2.22c.1.44,0,1-.25,1.07-.89.46-1.32.78-1.32,1s.08.23.37.23a8.28,8.28,0,0,1,1.08.13l.73.13v1.3a7.32,7.32,0,0,0,.08,1.44c.13.19.42.17.42,0s.14-.24.3-.31a2.83,2.83,0,0,0,.86-1.48c0-.08.07-.12.15-.09s.5.18.94.31a7,7,0,0,1,1.15.47.78.78,0,0,0,.46.16h0C49.14,50,48.68,49.08,47.85,48.36Zm-34.53-38a4.38,4.38,0,0,1-.24-.49c-.17-.37-.17-.45,0-.59a.56.56,0,0,1,.45-.11c.23,0,.29.12.28.38S13.41,10.45,13.32,10.32ZM24.56,5.76c.42,0,.48.26.17.84l-.21.4-.25-.51C24,5.93,24.05,5.79,24.56,5.76ZM16.3,2.54c.15-.12.22-.11.4,0a.9.9,0,0,1-.05,1.2l-.26.26-.13-.45C16.08,3,16.09,2.71,16.3,2.54Zm8.25,13.13c-.51-.32-1.38-.81-1.92-1.09a12.55,12.55,0,0,1-1.44-.88,1.92,1.92,0,0,0-.56-.36,18.76,18.76,0,0,1-1.7-1c-.87-.54-1.9-1.14-2.28-1.35a10.19,10.19,0,0,1-2.19-1.61c0-.07.14-.38.39-.67.49-.56.51-.87.05-.87-.16,0-.28,0-.28-.06s.27-.72.6-1.51c.59-1.41.6-1.43.93-1.37s.33,0,.33-.05a1.26,1.26,0,0,1,.3-.48c.3-.36.31-.36,1.07-.29.43,0,.74,0,.69,0s0-.16,0-.24.06-.18-.15-.26-.63-.45-.53-.55a14.57,14.57,0,0,1,3.28,1.23l2,.89c.21.09.38.2.38.25a1.31,1.31,0,0,1-.47.37c-.67.42-.6.71.24.87.63.12.64.13.76.63s.45.87.7.54c.09-.12.19-.19.22-.16a13.72,13.72,0,0,1,.41,1.62c.19.85.51,2.13.7,2.83s.4,1.62.47,2a5.22,5.22,0,0,0,.22,1,2.73,2.73,0,0,1,.24,1.28c-.05,0-.23-.13-.4-.35-.37-.48-.73-.53-.83-.11,0,.16-.14.29-.21.29A8.36,8.36,0,0,1,24.55,15.67Zm2.41,2c-.07.41-.61.49-.61.09,0-.11-.12-.17-.35-.17-.42,0-.45-.19-.06-.37a.47.47,0,0,0,.29-.35c0-.32.31-.25.58.13a1.4,1.4,0,0,1,.22.37S27,17.58,27,17.72ZM9.16,37.48c-.34-.13-.58.12-.58.61s-.3.67-.47.5A1.31,1.31,0,0,1,8,38a1,1,0,0,0-.37-.77l-.34-.31.31-.08a.87.87,0,0,1,.48,0c.22.08.23-.09,0-.81a2.35,2.35,0,0,1-.13-.6,1.46,1.46,0,0,1,.38.46c.39.57.75.63,1.27.21a1.25,1.25,0,0,1,.4-.23c.19,0,0,.31-.29.43s-.29.59.12,1a1,1,0,0,1,.28.36C10.09,37.74,9.68,37.67,9.16,37.48Zm11.07-3.31a.57.57,0,0,0-.09.28c0,.27-.54,1-.66.89s-.1-.25-.1-.49a1.06,1.06,0,0,0-.13-.57c-.1-.1-.05-.22.22-.48l.34-.35.25.26C20.33,34,20.35,34.05,20.23,34.17ZM18.82,90.46c.15.12.24.24.21.26l-.42.24-.37.2-.12-.34a.46.46,0,0,0-.44-.37c-.47-.06-.46-.3,0-.49.24-.1.41-.26.41-.37s.06-.17.2-.11a1.42,1.42,0,0,0,.53.07c.37,0,.4,0,.11.24S18.53,90.23,18.82,90.46ZM22,66.14a1.33,1.33,0,0,0-.29.48c-.22.51-.37.4-.47-.32-.05-.37-.13-.57-.23-.57s-.21-.57,0-.66a.44.44,0,0,0,.18-.4c0-.44.15-.43.51,0a.79.79,0,0,1,.23.62c0,.14,0,.28.06.32A.3.3,0,0,1,22,66.14ZM33.15,87.33c-.1,0-.26.17-.37.38s-.2.35-.28.14a.66.66,0,0,1,0-.44c.12-.24-.17-.66-.45-.66-.08,0-.16,0-.16-.12s.14-.11.31-.11.3,0,.23-.35,0-.35,0-.35.6.64.55.89,0,.29.11.32S33.36,87.33,33.15,87.33Zm1.17-15c.13-.34.39-.19.39.24,0,.25.07.43.18.47s.21.28,0,.28a.71.71,0,0,0-.43.23c-.3.33-.39.29-.43-.2s-.09-.44-.32-.5l-.29-.07.25-.14a1.3,1.3,0,0,1,.44-.14A.28.28,0,0,0,34.32,72.29Zm-8.92-19a1.76,1.76,0,0,1-.49-.11c-.27-.1-.31-.08-.49.29s-.42.52-.37,0c0-.3,0-.4-.24-.51l-.28-.14.31-.2a.59.59,0,0,0,.3-.54c0-.41.19-.43.37,0,.07.16.21.29.3.29s.14.07.1.17a.3.3,0,0,0,.08.3l.37.29C25.56,53.27,25.57,53.29,25.4,53.3Zm2.2-24.47c-.62-.07-.7,0-.64.11s-.59,1.2-.74,1a2.07,2.07,0,0,1-.15-.79c0-.38-.05-.76-.06-.85s-.1-.14-.25-.1-1.08-.22-1-.37a1,1,0,0,1,.5-.18c.73-.12.78-.2.75-1a1.6,1.6,0,0,1,.06-.76A3.37,3.37,0,0,1,27,27c0,.15.64.08.84-.08s.29,0,.09.37-.19.75.11.75.23.1.25.44l0,.43Zm8.41,11c-.1.15-.6.07-.6-.09s.15-.11.35-.11C36.14,39.59,36.14,39.59,36,39.79ZM46.7,48.87c-.6-.29-.74-.25-1.13.36s-.57.61-.49-.2c.05-.59,0-.69-.19-.85a2.2,2.2,0,0,0-1-.39c-.31-.08-.32-.09-.13-.3a1.21,1.21,0,0,1,.55-.29c.44-.1.49-.27.33-1-.29-1.22-.3-1.19.19-.67l.64.72.19.24.79-.27c1.29-.43,1.32-.44,1.32-.25a.53.53,0,0,1-.18.32,2.7,2.7,0,0,0-.63,1.22,1.4,1.4,0,0,0,.29.58,1.64,1.64,0,0,1,.29.49.45.45,0,0,0,.17.25C48.18,49.31,47.61,49.3,46.7,48.87Z"/></g></g></svg>