<svg xmlns="http://www.w3.org/2000/svg" viewBox="0 0 78.32 79.36"><defs><style>.cls-1{fill:#1d1d1b;}</style></defs><title>Asset 400</title><g id="Layer_2" data-name="Layer 2"><g id="Layer_1-2" data-name="Layer 1"><path class="cls-1" d="M28.81,49H10.32a.41.41,0,0,1,0-.82H28.81a.41.41,0,0,1,0,.82ZM32.2,60.7l1.1-9a.41.41,0,0,0-.81-.1l-1.1,9a.42.42,0,0,0,.36.46h.05A.41.41,0,0,0,32.2,60.7ZM23.8,74.09l4.4-6.73a.4.4,0,0,0-.11-.56.42.42,0,0,0-.57.12l-4.4,6.73a.41.41,0,0,0,.68.44Zm12.06-29.6,7.23-7.14a.41.41,0,1,0-.57-.58l-7.23,7.14a.41.41,0,0,0,0,.57.42.42,0,0,0,.29.12A.44.44,0,0,0,35.86,44.49ZM49.13,32.17,69.24,12.35a.41.41,0,0,0,0-.58.4.4,0,0,0-.57,0L48.56,31.59a.4.4,0,0,0,0,.57.35.35,0,0,0,.28.13A.4.4,0,0,0,49.13,32.17ZM72,7.36c-.86.21-.4-1.53-1.57-.9l.89,2c-.92,0-1.74,0-2.55,0s-1.56-.53-2.37-.07c.17.6.59.56,1,.56h3.56c.24,0,.49,0,.84.06-.63.95-1.83,1.29-2,2.63,1.06-.23,1.36-1.36,2.33-1.53,0,.5,0,.92,0,1.35s-.08,1-.05,1.52c.05.74.19,1.47.23,2.21,0,1,0,2,.07,3.08a3.33,3.33,0,0,0,.24.78l.33,0A8,8,0,0,0,73,17.91c0-2.13-.12-4.25-.19-6.38,0-.46-.05-.93.43-1.26.73.51,1,1.48,1.81,1.8.47-.32.33-.64.09-.93s-.6-.62-.89-.94-.83-.63-.75-1.35a3.52,3.52,0,0,1,1-.15,25.78,25.78,0,0,1,2.79.47c.49.12.83.16,1.08-.52a32.68,32.68,0,0,0-4.6-.55l1.42-2.19c-1.22,0-1.16,1.15-2,1.41l.17-1.77-1,.92c0-2,0-3.7,0-5.42,0-.37.24-.78-.55-1A47.36,47.36,0,0,0,72,7.36ZM5.6,45.28c-.86.21-.4-1.53-1.58-.9.29.63.56,1.22.89,2-.91,0-1.73,0-2.54,0S.81,45.82,0,46.27c.17.6.59.56,1,.56,1.19,0,2.37,0,3.55,0,.25,0,.5,0,.85.07-.63,1-1.83,1.28-2.05,2.63C4.38,49.3,4.68,48.17,5.65,48c0,.5,0,.93,0,1.35s-.08,1-.05,1.53c.05.74.19,1.47.23,2.2,0,1,0,2.06.07,3.08a2.92,2.92,0,0,0,.24.78l.33,0a7.79,7.79,0,0,0,.12-1.07c0-2.12-.12-4.25-.19-6.37,0-.47-.05-.94.43-1.27.73.51,1,1.49,1.8,1.81.48-.32.34-.65.1-.94s-.6-.62-.89-.94-.83-.63-.76-1.35a3.64,3.64,0,0,1,1-.15,26.22,26.22,0,0,1,2.79.48c.49.11.83.15,1.08-.53A32.85,32.85,0,0,0,7.36,46l1.42-2.18c-1.22-.06-1.16,1.15-2,1.41L7,43.47l-1,.92c0-2,0-3.7,0-5.42,0-.37.25-.78-.54-1A47.32,47.32,0,0,0,5.6,45.28ZM42.2,33.85a6.57,6.57,0,0,0,.61.26,12.29,12.29,0,0,1,1.49.47c1.09.5.87.33.84,1.42,0,.52,0,1,0,1.66,0,.4.31-.15.33-.22a6.88,6.88,0,0,0,.36-1c.17-.61.35-1.14,1.11-1.3a11,11,0,0,0,2-.49c.47-.17-.69-.51-.87-.58s-.62-.24-.93-.35a1.46,1.46,0,0,1-1.07-1.51c0-.56.06-1.13.1-1.7,0-.2.08-.42-.28-.5a2.92,2.92,0,0,0-.14.38c-.15.69-.34,1.38-.43,2.08s-.56.94-1.16,1c-.28,0-.57,0-.85,0l-1.1.08C42.07,33.65,41.91,33.72,42.2,33.85ZM28.55,46.71c.21.08.41.18.62.25a12.88,12.88,0,0,1,1.49.47c1.09.5.87.33.83,1.42,0,.52,0,1,0,1.66,0,.4.3-.15.33-.21.13-.33.26-.66.36-1,.16-.62.35-1.15,1.1-1.31a10.64,10.64,0,0,0,2-.49c.48-.16-.69-.51-.86-.58s-.62-.24-.94-.35a1.47,1.47,0,0,1-1.06-1.51c0-.56.05-1.13.09-1.7,0-.2.08-.42-.27-.5a3.57,3.57,0,0,0-.14.38c-.15.69-.34,1.38-.44,2.08s-.56.94-1.15,1c-.28,0-.57,0-.86,0l-1.1.08C28.43,46.5,28.26,46.57,28.55,46.71Zm-2,17.5a6.57,6.57,0,0,0,.61.26,12.29,12.29,0,0,1,1.49.47c1.09.5.87.33.84,1.42,0,.52,0,1,0,1.66.05.4.31-.15.33-.22a6.88,6.88,0,0,0,.36-1c.17-.61.35-1.14,1.11-1.3a11,11,0,0,0,2-.49c.47-.17-.69-.51-.87-.58s-.62-.24-.94-.35a1.47,1.47,0,0,1-1.06-1.51c0-.56.06-1.13.1-1.7,0-.2.08-.42-.28-.5a2.92,2.92,0,0,0-.14.38c-.15.69-.34,1.38-.43,2.08s-.56.93-1.16,1c-.28,0-.57,0-.85,0l-1.1.08C26.38,64,26.22,64.08,26.51,64.21ZM17.85,75.42c.2.08.4.18.61.25a12.29,12.29,0,0,1,1.49.47c1.09.5.87.33.84,1.42,0,.52,0,1,0,1.66,0,.4.31-.15.33-.21a7.88,7.88,0,0,0,.36-1c.17-.62.35-1.14,1.11-1.31a11,11,0,0,0,2-.49c.47-.16-.69-.51-.87-.58s-.62-.24-.94-.34a1.49,1.49,0,0,1-1.06-1.52c0-.56.06-1.13.1-1.7,0-.2.08-.42-.28-.5a3.57,3.57,0,0,0-.14.38c-.15.69-.34,1.38-.43,2.08s-.56.94-1.16,1a8.06,8.06,0,0,1-.85,0l-1.1.09C17.72,75.21,17.56,75.28,17.85,75.42Z"/><path class="cls-1" d="M47.54,57.2l.11,0a14.86,14.86,0,0,0-.08,1.58,6.6,6.6,0,0,1-2.68.6,4.07,4.07,0,0,1-4.25-4.11,4,4,0,0,1,4.27-4.06,12.29,12.29,0,0,1,2.66.4c0,.3,0,.75,0,1.09s0,.57,0,.76h-.11A2.36,2.36,0,0,0,45,51.53c-1.65,0-3,1.27-3,3.76s1.54,3.81,3,3.81A2.74,2.74,0,0,0,47.54,57.2ZM53,58.74l.06.1a1.13,1.13,0,0,1-1,.53.57.57,0,0,1-.65-.57,2.47,2.47,0,0,1-1.58.6c-.89,0-1.51-.5-1.51-1.23s.83-1.41,1.87-1.41a2.31,2.31,0,0,1,1.17.29V55.46c0-.85-.27-1.2-.83-1.2s-1,.44-1,1.39h-1A1.9,1.9,0,0,1,50.69,54c1.06,0,1.76.48,1.76,1.9v2.32c0,.48.08.62.3.62A.4.4,0,0,0,53,58.74Zm-1.61-1.45a1.5,1.5,0,0,0-.88-.25.94.94,0,0,0-1,1,.86.86,0,0,0,.9,1,1.48,1.48,0,0,0,1-.43Zm7.11.91V55.8c0-1.56-1-1.79-1.73-1.79a2.64,2.64,0,0,0-1.65.54V54a3.77,3.77,0,0,1-1.38.29v.11c.33.09.34.26.34.8v3c0,.88-.14.94-.47,1v.11c.24,0,.58,0,1,0s.75,0,1,0v-.11c-.33-.07-.47-.13-.47-1V54.83a1.84,1.84,0,0,1,1.21-.47c.63,0,1.13.33,1.13,1.47V58.2c0,.88-.14.94-.47,1v.11c.24,0,.58,0,1,0s.75,0,1,0v-.11C58.66,59.14,58.52,59.08,58.52,58.2Zm3.77-4c.69,0,.9.46.93,1.05h1.07A1.76,1.76,0,0,0,62.36,54a2.63,2.63,0,0,0-2.74,2.71,2.56,2.56,0,0,0,2.62,2.68,2.22,2.22,0,0,0,1.93-1l-.08-.08a1.81,1.81,0,0,1-1.39.61c-1.14,0-1.94-.9-1.94-2.46C60.76,55.27,61.24,54.23,62.29,54.23Zm7.1,4,.08.1a2.32,2.32,0,0,1-2,1A2.7,2.7,0,0,1,67.36,54a2,2,0,0,1,2.09,2.07H66s0,.1,0,.27c0,1.56.83,2.51,2,2.51A1.9,1.9,0,0,0,69.39,58.26ZM66,55.79h2.29c0-1-.41-1.56-1-1.56S66.16,54.92,66,55.79ZM73,54a1.93,1.93,0,0,0-1.27.7V54a3.67,3.67,0,0,1-1.37.29v.11c.33.09.34.26.34.8v3c0,.88-.15.94-.48,1v.11c.25,0,.59,0,1,0s.74,0,1,0v-.11c-.33-.07-.48-.13-.48-1V55a.92.92,0,0,1,.67-.39c.27,0,.45.16.45.61h1C73.82,54.38,73.51,54,73,54Z"/></g></g></svg>