<svg xmlns="http://www.w3.org/2000/svg" viewBox="0 0 94.72 118.48"><defs><style>.cls-1{fill:#1a1a1a;}</style></defs><title>Asset 529</title><g id="Layer_2" data-name="Layer 2"><g id="Layer_1-2" data-name="Layer 1"><path class="cls-1" d="M93.29,35.77A42.78,42.78,0,1,1,59,1.43,47.37,47.37,0,1,0,93.29,35.77Zm-72-26.15a.67.67,0,1,1,0,1A.68.68,0,0,1,21.28,9.62Zm-5.67,4.83a.89.89,0,1,1,0,1.26A.89.89,0,0,1,15.61,14.45Zm-5.08,6a1.13,1.13,0,0,1,1.6,1.6,1.13,1.13,0,1,1-1.6-1.6ZM5.8,27.86l1.27.36L7.48,27l.32,1.28L9.09,28l-.94.92.89,1-1.27-.35-.4,1.25L7,29.48l-1.29.28.94-.92Zm-2,8.57,1.16,1.21,1.25-1.11-.46,1.61,1.59.54-1.63.4L6,40.72,4.85,39.51,3.6,40.62,4.06,39l-1.59-.53,1.63-.4ZM1.88,50a2.64,2.64,0,0,1-.08-.49,2.79,2.79,0,0,1,2.46-3.09,2.94,2.94,0,0,1,2.88,3.19,2.75,2.75,0,0,0-2.81-2.2A2.75,2.75,0,0,0,1.88,50Zm3.89,7.21a3.06,3.06,0,0,0-2.08,3,3,3,0,0,1-.37-.74,3.05,3.05,0,0,1,5.79-1.94,3.32,3.32,0,0,1,.16.81A3,3,0,0,0,5.77,57.21Zm4.74,10.92A3.42,3.42,0,0,0,8.86,71.3a3.47,3.47,0,0,1-1.1-1.12,3.41,3.41,0,1,1,6.32-2A3.42,3.42,0,0,0,10.51,68.13Zm9,11.5a2.88,2.88,0,1,1,0-4.07A2.89,2.89,0,0,1,19.49,79.63Zm10.05,6.48a3.41,3.41,0,0,1-4.67,1.18,3.47,3.47,0,0,1-1.12-1.1A3.4,3.4,0,0,0,26.87,81a3.4,3.4,0,0,1,2.67,5.14Zm9.85,3.69a3.05,3.05,0,0,1-3.86,1.93,3,3,0,0,1-.74-.37,3.06,3.06,0,0,0,1.87-5.58,3.32,3.32,0,0,1,.81.16A3,3,0,0,1,39.39,89.8Zm6.15,3.45a3.85,3.85,0,0,1-.49-.08,2.65,2.65,0,0,0,.39-5.26,2.71,2.71,0,1,1,.1,5.34ZM57,91l-.4,1.63L56,91l-1.61.46,1.11-1.25L54.33,89l1.64.33.4-1.63.54,1.59,1.61-.46-1.11,1.25,1.21,1.16Zm10.22-1.7-1-.89-.92.94L65.57,88l-1.28-.33,1.25-.4L65.19,86l1,.89.92-.94-.28,1.28,1.28.33L66.83,88Zm7.42-4.73a1.13,1.13,0,0,1-1.6-1.6,1.12,1.12,0,0,1,1.6,0A1.13,1.13,0,0,1,74.61,84.52Zm6-5.08a.89.89,0,1,1,0-1.26A.89.89,0,0,1,80.6,79.44Zm4.83-5.67a.67.67,0,1,1,0-1A.68.68,0,0,1,85.43,73.77Z"/><path class="cls-1" d="M73.56,58.44l-3,1.31,2.31.83-2.42-.4,2,2.61-2.64-2,.44,2.41-.87-2.29L68.11,64l.38-3.27L66.63,62.3l1.54-1.9-3.26.44,3-1.3-2.3-.83,2.42.4L66,56.5l2.64,2-.43-2.41.87,2.29,1.25-3.05L70,58.57,71.84,57l-1.55,1.89Zm-12-15.85-2.43.27,2.44.18L59,45.11l3-1.3-1,2.24,1.38-2,.51,3.26L63.3,44l1.45,2-1.06-2.21L66.76,45l-2.64-2,2.43-.27-2.44-.18,2.56-2.07-3,1.3,1-2.24-1.37,2-.52-3.26-.38,3.27-1.45-2L62,41.81,58.9,40.62ZM17.84,54l2.44-.11-2.42-.34,2.69-1.89-3.1,1.1,1.13-2.18-1.51,1.93-.29-3.28-.6,3.24-1.32-2.06.92,2.27-3-1.39,2.5,2.14-2.44.11,2.42.34-2.69,1.89,3.1-1.1-1.13,2.18,1.51-1.93.29,3.28.6-3.24L18.27,57l-.92-2.27,3,1.39ZM34,41.24l-2,1.11,2.26-.57-.84,2.87,1.52-2.57,1.12,2-.58-2.25,2.87.84-2.57-1.53,2-1.12-2.25.58.84-2.87-1.53,2.57-1.11-2,.57,2.25-2.87-.84Zm47-7.17L83,33l-2.26.54.88-2.86-1.56,2.55L79,31.16l.54,2.26-2.85-.88,2.54,1.57-2,1.08,2.26-.54-.88,2.86L80.09,35,81.18,37l-.54-2.26,2.85.88ZM35.77,51.94l1.8-1.48-2.11,1,.29-3-1,2.81-1.48-1.8,1,2.11-3-.29,2.81,1L32.28,53.8l2.1-1-.29,3,1-2.81,1.48,1.79-1-2.1,3,.29ZM63.92,35.37l-1.38,1.87,1.8-1.47.45,2.95.3-3L67,37.12l-1.47-1.79,3-.46-3-.29,1.37-1.88-1.79,1.48-.46-3-.29,3-1.88-1.38,1.48,1.8-3,.45ZM70,48.7l.49-3-1.21,2.74-1.35-1.9.84,2.17-3-.49,2.73,1.21-1.89,1.35L68.79,50l-.5,2.95,1.22-2.73,1.34,1.89L70,49.93l3,.5-2.74-1.21,1.9-1.35ZM31.05,72l.24-1.45-.82,1.22-1.15-.93L30,72.11l-1.38.53,1.48.1-.24,1.45L30.65,73l1.14.93-.65-1.32,1.38-.53Zm-1.49-8.67.87,1.2L30.14,63l1.46-.15-1.39-.48.59-1.34-1.1,1-.87-1.19.29,1.45-1.47.15,1.4.47-.6,1.35Zm61.32-35,1-1.06-1.38.53-.39-1.42-.24,1.45-1.42-.36,1.13.92a25.6,25.6,0,0,0-3.52.07l-5,.34a26,26,0,0,0-3.72.44,26.2,26.2,0,0,0,3.76-.08l4.95-.34a22.18,22.18,0,0,0,3.49-.43h0l-1,1.05L90,28.92a13.85,13.85,0,0,0-1.18,2.29l-.19.46a14.19,14.19,0,0,0-.92,2.56,13.62,13.62,0,0,0,1.25-2.43l.2-.46A12.16,12.16,0,0,0,90,28.92h0l.39,1.43.23-1.46,1.43.37ZM87.34,34.7,87,33.26l-.32,1.44-1.4-.44,1.09,1-1.09,1,1.4-.44L87,37.24l.31-1.44,1.41.44-1.09-1,1.09-1ZM18.22,52.17c.1.15,4.9-2.94,4.9-2.94l6.36-4.08a50.31,50.31,0,0,0,4.38-3c-.09-.14-4.6,2.75-4.6,2.75l-6.35,4.08S18.13,52,18.22,52.17Zm16.42-5a25.05,25.05,0,0,0,.11,3.67A26.91,26.91,0,0,0,35,47.13v-.7a27.8,27.8,0,0,0-.1-3.87,28,28,0,0,0-.25,3.88Zm-.51,6.09a14.81,14.81,0,0,0-1.4,2.36L31,59a15.89,15.89,0,0,0-1.17,2.67,16,16,0,0,0,1.49-2.52l1.77-3.43A13.29,13.29,0,0,0,34.13,53.24Zm-.6-.86a36.6,36.6,0,0,0-4.32.08l-6.09.36a39.06,39.06,0,0,0-4.57.45,39.54,39.54,0,0,0,4.62-.09l6.08-.36A32.33,32.33,0,0,0,33.53,52.38Zm2.95-11.13a29.94,29.94,0,0,0,3.89.37l17,.84a21.32,21.32,0,0,0,3.39,0,22.51,22.51,0,0,0-3.37-.34l-17-.84A28.2,28.2,0,0,0,36.48,41.25Zm27,8.45L41.6,51.32a49.09,49.09,0,0,0-5,.54,46.52,46.52,0,0,0,5-.19L63.5,50.05a35,35,0,0,0,4.33-.5A37.13,37.13,0,0,0,63.48,49.7Zm4.77-1.43a17.54,17.54,0,0,0-1.73-1.92L66.17,46a19.3,19.3,0,0,0-2-1.82,17.56,17.56,0,0,0,1.83,2l.35.35A15.62,15.62,0,0,0,68.25,48.27Zm.88,5.66,0,.58a16.82,16.82,0,0,0,0,3,18,18,0,0,0,.3-3l0-.58a19.88,19.88,0,0,0,0-3.18A18,18,0,0,0,69.13,53.93ZM63.61,38.64a11,11,0,0,0-.2,2.07,10.39,10.39,0,0,0,.47-2l.06-.37a9.26,9.26,0,0,0,.17-2,10.88,10.88,0,0,0-.44,1.94Zm5.25-6,3.94-1.94a18.86,18.86,0,0,1,2.87-1.21l-1.3-.69,1.48.08-.06-1.47.67,1.32L77.71,28l-.81,1.24,1.3.69-1.36-.08,2.38,3.14-.13.1-2.36-3.1,0,1.33L76.12,30l-1.25.79.81-1.24h0A17.63,17.63,0,0,1,73,31L69,33A20.27,20.27,0,0,1,66,34.27,21.08,21.08,0,0,1,68.86,32.65Zm7.87-2.86ZM86,35.21a10.27,10.27,0,0,0-1.87-.55l-.36-.08a10.59,10.59,0,0,0-2-.31,10.68,10.68,0,0,0,2,.58l.36.08A8.81,8.81,0,0,0,86,35.21Zm-9.7,3.62-3.55,5.28a42.67,42.67,0,0,0-2.53,4.08A43.11,43.11,0,0,0,73,44.29L76.58,39a36.56,36.56,0,0,0,2.36-3.84A41.21,41.21,0,0,0,76.27,38.83ZM30.09,67.26a24.4,24.4,0,0,0-.63-3.58,24.58,24.58,0,0,0,.28,3.64l.08.65a20.79,20.79,0,0,0,.61,3.39,23.36,23.36,0,0,0-.26-3.45Z"/><path class="cls-1" d="M59.16,56.19a.89.89,0,1,1-.89-.9A.89.89,0,0,1,59.16,56.19Zm4.33,8.65a.6.6,0,0,0-.59.6.6.6,0,0,0,1.19,0A.6.6,0,0,0,63.49,64.84ZM30.08,48.32a.6.6,0,0,0,0,1.19.6.6,0,1,0,0-1.19ZM81,44.18a.6.6,0,0,0-.6-.6.59.59,0,0,0-.59.6.58.58,0,0,0,.59.59A.59.59,0,0,0,81,44.18ZM71.82,25.62a.58.58,0,0,0-.59.59.59.59,0,0,0,.59.6.6.6,0,0,0,.6-.6A.59.59,0,0,0,71.82,25.62ZM41.91,69.4a.48.48,0,1,0,.48.48A.48.48,0,0,0,41.91,69.4Zm9.25-35.23a.48.48,0,1,0,.48.47A.47.47,0,0,0,51.16,34.17Zm24.89,36a.48.48,0,0,0,0,1,.48.48,0,0,0,0-1ZM28.84,18.78a.48.48,0,0,0-.38.56.49.49,0,0,0,.56.38.48.48,0,0,0,.38-.56A.48.48,0,0,0,28.84,18.78ZM43.9,44.14a.48.48,0,0,0-.48.48.48.48,0,0,0,.95,0A.48.48,0,0,0,43.9,44.14ZM56.25,70.4a.48.48,0,1,0,0,.95.48.48,0,0,0,0-.95ZM39.91,57.94a.48.48,0,0,0,0,1,.48.48,0,1,0,0-1ZM24.32,31.37a.48.48,0,1,0,0,.95.48.48,0,0,0,0-.95ZM82.11,58.62,82,57.8l-.49.68-.78-.3.35.76-.65.52.84.08.13.83.48-.69.78.3-.35-.76L83,58.7Zm-29.52-28,.26.66.27-.66.7.1-.44-.56.44-.55-.7.09-.27-.65-.26.65-.7-.09.43.55-.43.56ZM40.13,26.82l-.27-.66-.27.66-.7-.1.44.56-.44.56.7-.1.27.65.27-.65.7.1-.44-.56.44-.56ZM85.25,51.24l.38-.74-.79.27-.46-.7-.16.82-.83,0,.63.55-.38.74.79-.27.46.7.16-.82.83-.05ZM54,76.82l-.78.32-.49-.68-.12.83-.83.09.66.52-.34.76.78-.31.49.67.12-.83.83-.09-.66-.51ZM44.27,14.37c-.15-.8-.36-3.14-.36-3.14a0,0,0,1,0,0,0s-.2,2.35-.36,3.14a1.33,1.33,0,0,1-1,1,9.15,9.15,0,0,1-1.78.32s0,0,0,0a9.6,9.6,0,0,1,1.75.31,1.37,1.37,0,0,1,1,1.05c.16.79.36,3.13.36,3.13a0,0,0,1,0,0,0s.21-2.37.36-3.13a1.44,1.44,0,0,1,1-1.06,6.52,6.52,0,0,1,1.58-.3h0a7.09,7.09,0,0,1-1.6-.31A1.23,1.23,0,0,1,44.27,14.37ZM51.76,20h0a4.52,4.52,0,0,1-1-.19.74.74,0,0,1-.57-.63c-.09-.47-.21-1.87-.21-1.87s0,0,0,0-.12,1.4-.22,1.87a.78.78,0,0,1-.58.62,5.91,5.91,0,0,1-1.06.2h0a6.38,6.38,0,0,1,1,.19.81.81,0,0,1,.6.63c.1.47.22,1.87.22,1.87h0s.12-1.42.21-1.87a.87.87,0,0,1,.58-.64A4.46,4.46,0,0,1,51.76,20Z"/><path class="cls-1" d="M66.17,18.26l-1,.44.17,1.12-.9-.68-.88.71.14-1.13-1.06-.4,1-.44-.17-1.12.9.68.89-.71-.15,1.12ZM68,15.12c.14-.09.28-.16.43-.24a9.1,9.1,0,0,1,1.17-.51c.3-.12.61-.2.84-.27s.39-.11.38-.15-.17,0-.42,0a4.47,4.47,0,0,0-.89.19,7.78,7.78,0,0,0-1.23.5l-.44.24a9.27,9.27,0,0,0-1.14.79,7.52,7.52,0,0,0-.69.66c-.18.2-.27.35-.25.37a8.61,8.61,0,0,0,1.1-.83A11.89,11.89,0,0,1,68,15.12Zm1.32.67a6.84,6.84,0,0,0-1.12.27c-.14,0-.28.1-.41.15a6.33,6.33,0,0,0-1.08.56,2.73,2.73,0,0,0-.9.79,9,9,0,0,0,1-.61,8.94,8.94,0,0,1,1.06-.52l.4-.15A10.64,10.64,0,0,1,69.35,16a4.83,4.83,0,0,0,1.1-.23A3.13,3.13,0,0,0,69.31,15.79Zm-.09,1.63a1.87,1.87,0,0,0-.46-.09,3.4,3.4,0,0,0-.69,0l-.26,0a4.71,4.71,0,0,0-.7.16c-.35.11-.66.3-.63.35s.35-.07.69-.15.68-.12.68-.12l.25,0a4.8,4.8,0,0,1,.65,0c.32,0,.64.06.66,0S69.35,17.46,69.22,17.42Z"/><path class="cls-1" d="M43.9,101.07c-2.18,0-3.52,3-4.64,6.45A2.39,2.39,0,0,1,38,105.3a2.83,2.83,0,0,1,.28-1.34c-1.4,0-2.4,3,.8,4a46.7,46.7,0,0,1-2.7,7.4c-1.42-.38-4.23-1-4.23.5s2.37,3,4.56.6c3.43,1.53,6.67,3.55,7.87.17-1.76.93-4.79-.24-7.25-1a34.29,34.29,0,0,0,3.11-7.42C46.43,108.23,47.57,101.07,43.9,101.07Zm.15.54c2,0,0,6.18-3.45,6.21C41.7,104.5,42.71,101.61,44.05,101.61Zm-11.3,14.28c0-.9,2.29-.12,3.17.24C34.48,118,32.75,116.77,32.75,115.89Zm29.51-2.74c-.56,1.18-1.1,1.64-1.71,1.64A1.65,1.65,0,0,1,59,113c0-1.15.84-2.18.84-2.72,0-.26-.19-.84-.73-.84a.34.34,0,0,0-.15,0c-.59-1.18-4.08-.14-5.74,4.11-2.63,4.41-7,4.27-6.19.76,2.46-.23,5.35-2,5.35-4.18a1.19,1.19,0,0,0-1.34-1.32c-2.54,0-5.48,3.65-5.48,6.22,0,3.25,4.59,3.51,7.31-.25-.53,3.16,3.32,3.87,5.44-1.09.8,1.84,3,2.3,4.19-.35ZM51,109.5c.36,0,.45.17.45.5,0,1.85-2.76,3.39-4.29,3.92C47.76,111.88,49.64,109.5,51,109.5ZM58.14,113c-1.5,3.58-3.91,4.17-3.91,2.22,0-1.64,1.75-5.41,4.19-5.41A5,5,0,0,0,58.14,113Z"/></g></g></svg>