<svg xmlns="http://www.w3.org/2000/svg" viewBox="0 0 73.44 116.79"><title>Asset 541</title><g id="Layer_2" data-name="Layer 2"><g id="Layer_1-2" data-name="Layer 1"><path d="M45.65,106.48a5.21,5.21,0,0,0-5.23,5.13,5.16,5.16,0,0,0,10.32.1A5.07,5.07,0,0,0,45.65,106.48Zm-.12,9.69a4.55,4.55,0,1,1,4.61-4.54A4.48,4.48,0,0,1,45.53,116.17Zm-12.89-9.1v4.28h4.91v.42H32.62v4.33h5.59v.36H32a2.25,2.25,0,0,1-.06-.4q0-4.66,0-9.3c1.4-.39,5.52-.28,6.32.31Zm-3.15,9c-.17.29-.22.46-.27.46-1.8,0-3.59.07-5.39,0-.2,0-.58-.4-.59-.62,0-3,0-6,0-9,0-.14.17-.28.46-.73.06.68.11,1,.11,1.38,0,2.37.07,4.75,0,7.12,0,1.11.37,1.37,1.38,1.32C26.55,116,28,116.1,29.49,116.1Z"/><path d="M73.17,61.14c-1.72-3-3.43-6-5.07-9a45,45,0,0,1-3.85-7.81,10.94,10.94,0,0,0-2.49-3.5A2.57,2.57,0,0,1,61,38.23a14.28,14.28,0,0,0-1.2-10.91c-.79-1.56-2-2.46-3.62-2.27-2.11.25-3.66-.69-5.25-1.77-.57-.38-1.15-.77-1.74-1.12a4.85,4.85,0,0,0-4.09-.38,2.83,2.83,0,0,1-1.58,0,4.48,4.48,0,0,0-5.1,1.33c-.55.67-1.07,1.37-1.69,2.17-.55-.69-1-1.26-1.49-1.87a3.93,3.93,0,0,0-4.06-1.84,9.82,9.82,0,0,1-4.18,0c-2-.42-3.39,1-4.87,2A7.07,7.07,0,0,1,17.38,25a3.59,3.59,0,0,0-3.74,2.25,14.3,14.3,0,0,0-1.23,10.9,2.25,2.25,0,0,1-.75,2.56,9.22,9.22,0,0,0-3,4.91A7.78,7.78,0,0,1,8,47.36C5.44,51.92,2.91,56.47.33,61a1.58,1.58,0,0,0,.1,2c1.6,2,3.08,4.2,4.67,6.27,3.28,4.29,6.61,8.55,9.91,12.82a3.09,3.09,0,0,1,.43.8,11.28,11.28,0,0,0,5.33,6c1.58.85,3.07,1.8,4.57,2.78,3.29,2.16,6.78,4,10.18,6a2,2,0,0,0,2.34,0c1.15-.7,2.39-1.23,3.53-1.94,2.7-1.67,5.36-3.4,8-5.11a9,9,0,0,1,1.34-.83c2.59-1.12,5-2.58,6.28-5.15a33.6,33.6,0,0,1,3.41-4.83c4.27-5.62,8.41-11.33,12.63-17A1.39,1.39,0,0,0,73.17,61.14Zm-9.1-15.7a10.5,10.5,0,0,1,.35,5.09C62.94,49,61.61,47.2,59.86,46s-4-1.88-6-2.78c-.31-.13-.64-.21-1-.35-.13-.06-.22-.21-.33-.32l-7.79-7.78c4.24-4.2,13.74-1.21,15.57,4.93L58,39.13l-.19.42A8.1,8.1,0,0,1,64.07,45.44ZM59.2,27.53a13.59,13.59,0,0,1,1.48,9.54c0,.22-.15.42-.31.86-2.34-3.79-5.73-5.36-9.8-5.72.51-1.69,1.59-2.31,5.91-3.64a3.53,3.53,0,0,0-.83-.18,6.67,6.67,0,0,0-5.47,2.9,2.33,2.33,0,0,1-1.84,1.11,14.15,14.15,0,0,0-2.45.65c2.11-4.4,6.3-7.86,10.21-7.45A3.48,3.48,0,0,1,59.2,27.53ZM25.26,22.37a3.52,3.52,0,0,1,4.32,1.17c1.23,1.53,2.4,3.1,3.6,4.64.22.28.49.52.73.78l.39-.29-4.61-6.06c2-.89,3.58-.57,4.83.91.71.85,1.37,1.73,2.2,2.79.72-.93,1.32-1.75,2-2.54a3.77,3.77,0,0,1,5-1.14l-4.57,6,.37.31a9.22,9.22,0,0,0,.69-.71c1.15-1.49,2.28-3,3.43-4.47a3.78,3.78,0,0,1,5.29-1c1.19.71,2.34,1.47,3.51,2.22a3.15,3.15,0,0,1,.28.23,23,23,0,0,0-4,3,61.8,61.8,0,0,0-4.47,6.23c-.13.2.12.84.38,1.1,2.11,2.18,4.26,4.31,6.42,6.44a5.44,5.44,0,0,1,1,.92c-3,.53-5.55,1.4-7.37,3.77s-2.31,5-2.45,8.1L36.72,48l-5.47,6.73c-.34-6.44-2.8-11-10-11.66l8.25-7.94c-2.28-4.2-4.54-7.93-9.13-9.78C22.13,24.24,23.63,23.19,25.26,22.37ZM35.75,68.13a4.38,4.38,0,0,1,.6,3.43,1.1,1.1,0,0,1-.53.38c-1.82.7-3.65,1.4-5.49,2a1.2,1.2,0,0,1-1-.09,51.28,51.28,0,0,1-4.07-4.14,3.45,3.45,0,0,1-.42-3.4A16.51,16.51,0,0,1,29.12,60C30.85,63.28,33.33,65.68,35.75,68.13ZM30.9,62l.23-.23A15.13,15.13,0,0,0,42.51,62l-5.79,6.34Zm1.43,11.86a8.68,8.68,0,0,1,8.78,0,15.16,15.16,0,0,0,1.81.72,2.25,2.25,0,0,1,.34.2c0,.12,0,.15,0,.19,0,2.19-1,3.36-3.17,4.2-2.37.93-4.44,1.34-6.68,0-.55-.34-1.25-.43-1.79-.78a2.33,2.33,0,0,1-1-1.16C29.94,74.84,30.08,75,32.33,73.87Zm8.35-.77c-1-.36-1.92-.75-2.9-1.07-.62-.2-.77-.57-.82-1.19a4,4,0,0,1,1.28-3.33c2.19-2.26,4.18-4.72,6.34-7.2a17.2,17.2,0,0,1,3.84,5.43A4.37,4.37,0,0,1,48,70.11a12.65,12.65,0,0,1-1,1.37C44.47,74.3,44.13,74.38,40.68,73.1Zm2.08-12.63a8.67,8.67,0,0,1-2.68,1.46,13.3,13.3,0,0,1-7.24-.13,5.72,5.72,0,0,1-1.34-.65c-1.91-1.21-2.22-2.06-1-3.92,1.87-2.82,3.93-5.52,6.06-8.48C37.89,50.37,39,51.65,40,53c1.15,1.57,2.18,3.23,3.25,4.86A1.73,1.73,0,0,1,42.76,60.47ZM12.8,31.2a14.24,14.24,0,0,1,1-2.8c1.25-2.61,2.89-3.32,5.75-2.63a10.7,10.7,0,0,1,5.71,3.85c.85,1,1.57,2.13,2.48,3.39-1.41-.29-2.53-.47-3.62-.77-.31-.09-.55-.5-.77-.79A6.85,6.85,0,0,0,18,28.39a1.74,1.74,0,0,0-1,.32A7.83,7.83,0,0,1,22,30.8a15.42,15.42,0,0,1,1.1,1.38c-4.31.4-7.75,2-10.07,5.76A11.54,11.54,0,0,1,12.8,31.2ZM10,43.77a7.85,7.85,0,0,1,5.61-4.16c0-.16-.11-.33-.16-.5L13,39.72a9.85,9.85,0,0,1,6.74-6.31c3.15-1,6.16-.9,8.89,1.23-2.73,2.77-5.38,5.48-8.06,8.16a1.6,1.6,0,0,1-.81.37A15.48,15.48,0,0,0,9.33,50.61a3.17,3.17,0,0,1-.31.22A11.57,11.57,0,0,1,10,43.77ZM9.55,74.33,6,69.55C4.34,67.27,2.65,65,1,62.7a1.28,1.28,0,0,1-.24-1.08C3.12,57.29,5.54,53,8,48.69l.51,0c-.12,1.68-.2,3.36-.38,5-.14,1.44-.44,2.86-.59,4.3-.14,1.25-.11,2.52-.24,3.77a17.2,17.2,0,0,0,1.4,8.28A40.7,40.7,0,0,1,9.86,74.2Zm53.67-1a16,16,0,0,1-4.63,7.7,21.41,21.41,0,0,0-2.06-12.33l-.47.12c.14.4.26.8.41,1.19,1.51,3.86,2.37,7.8,1.19,11.9-1,3.43-3.35,5.63-6.82,7.17a18.3,18.3,0,0,0,1.6-12.2l-.4,0a11,11,0,0,0,0,1.15,18,18,0,0,1-1,9.25,8.21,8.21,0,0,1-3.25,3.93c-3.35,2-6.75,4-10.11,5.94a1.7,1.7,0,0,1-1.92,0c-3.4-2-6.89-3.87-10.21-6-3-2-4-5.14-4.23-8.54a47.91,47.91,0,0,1,.14-4.93c0-.24,0-.49-.05-.81C20,78.08,20.53,84.06,22.45,89a10.68,10.68,0,0,1-4.52-3.1c-2.54-2.9-3.1-6.38-2.52-10a54.63,54.63,0,0,1,1.67-6.07c.09-.31.18-.62.31-1.05-1.68.9-2.9,6.73-2.63,12.28-2.76-2.92-4.67-6-4.85-9.9S11.54,64,14.17,61c-1.87.42-3.55,3.43-5,8.61a13.41,13.41,0,0,1-1-9.26c.86-3.14,2.92-5.45,5.3-7.55-2.41,1.12-3.9,3.11-5.26,5.28a13.16,13.16,0,0,1,1.71-7.2,13.68,13.68,0,0,1,10.23-7.07,8.48,8.48,0,0,1,9.59,6,29.28,29.28,0,0,1,.81,5.42,1.51,1.51,0,0,1-.16.89c-1,1.71-1.58,3.6-3.07,5a15.8,15.8,0,0,0-2.54,3.67,5.35,5.35,0,0,0,.7,6.51,15.11,15.11,0,0,0,2.67,2.51,3.18,3.18,0,0,1,1.62,2.58,2.89,2.89,0,0,0,2.46,2.95,17.54,17.54,0,0,1,3.09,1.25,2.88,2.88,0,0,0,2.72,0c1.38-.66,2.81-1.22,4.24-1.76a1.34,1.34,0,0,0,1.08-1.3,1.7,1.7,0,0,0,0-.22A4.85,4.85,0,0,1,46,73.29a8.44,8.44,0,0,0,1.9-1.83,5.53,5.53,0,0,0,.77-6.71,13.89,13.89,0,0,0-2.1-3.14,15,15,0,0,1-3.37-5.37,7.93,7.93,0,0,1-.23-3.16c.26-4.85,3-8.22,7.41-9.19,2.88-.64,5.39.3,7.8,1.65,4.86,2.73,7,7.06,7.09,12.55a15.13,15.13,0,0,0-5.08-5.46l-.27.23a9.53,9.53,0,0,0,.83.85c3.18,2.59,5.1,5.86,4.93,10a22.8,22.8,0,0,1-1.26,5.7,16.38,16.38,0,0,0-4.57-8.57l-.34.19a11.35,11.35,0,0,0,.66,1C62.86,65.36,64.21,69.05,63.22,73.36Zm9.41-11c-2.89,4-5.82,8-8.75,11.94l-.29-.1a27.28,27.28,0,0,1,1.09-3.94A16.54,16.54,0,0,0,66,60.77c-.27-1.69-.18-3.44-.28-5.15a9,9,0,0,0-.25-1.36c-.59-2.45-.61-2.88-.14-5.83l4.5,8c.9,1.6,1.82,3.2,2.68,4.82C72.66,61.59,72.79,62.15,72.63,62.38ZM66,44.35a22.51,22.51,0,0,1,1.12-3.09A21.88,21.88,0,0,1,69,38.68c-1.81-1.22-2.35-3.23-3-5.2-.44,1-.64,2-1.09,2.85a21,21,0,0,1-1.8,2.5,20.33,20.33,0,0,1,1.77,2.45A22.73,22.73,0,0,1,66,44.35Zm0-8.55,2,3-2,3-2-3ZM7.32,44.18a9.06,9.06,0,0,1,3.09-5.36,9,9,0,0,1-3.07-5.37c-.61,2.06-1.25,4-3.21,5.39C6.08,40.24,6.76,42.12,7.32,44.18Zm0-8.37,1.94,3-1.94,3c-.65-1-1.31-2-2-3ZM40.13,20.18c-.5-1.17-1-2.33-1.51-3.49l.48-.22,1.56,3.47Zm-8.72-6.81.24.55-3.49,1.5-.23-.51Zm-2.72,6.31-.3-.3,4.12-4.13.23.23Zm16-.14-4.08-4.15,0-.05,4.21,4Zm-3-8.15a5.06,5.06,0,0,0-5-5,5,5,0,0,0-5.14,5.14,5.06,5.06,0,0,0,5,5.07A5.11,5.11,0,0,0,41.77,11.39ZM36.62,16a4.64,4.64,0,0,1-4.47-4.41,4.51,4.51,0,1,1,9-.14A4.58,4.58,0,0,1,36.62,16Zm5.67-4.67h5.8c0,.1,0,.2,0,.3H42.3Zm3,3.87-3.5-1.41.19-.52,3.53,1.36C45.4,14.8,45.33,15,45.26,15.18ZM33,20.11c.46-1.2.92-2.39,1.37-3.58l.56.21L33.45,20.3Zm3.87-3.19v5.91C36.17,22.21,36.12,17.89,36.82,16.92ZM31.35,9.63,27.81,8.22l.2-.51,3.56,1.38C31.5,9.27,31.43,9.45,31.35,9.63Zm1.26-2L28.43,3.46l.3-.3,3.95,4.38Zm-1.57,4H25.26l0-.3H31Zm1.87-8.78.29-.11c.5,1.12,1,2.25,1.5,3.43C33.89,6.08,32.9,4.11,32.91,2.81ZM39,6.31l-.4-.15a15.19,15.19,0,0,1,1.27-3.53l.55.19Zm1.69,1.24-.27-.28,4.12-4.13.15.16ZM41.74,9l3.5-1.52c.06.15.13.3.2.45A15.63,15.63,0,0,1,41.93,9.4ZM36.4,5.76c-.13-1.92,0-3.84,0-5.76h.46V5.75ZM47.62,46.33a2,2,0,0,0-2.13,2.06,2.12,2.12,0,0,0,2.08,2,2,2,0,0,0,2-2A2,2,0,0,0,47.62,46.33Zm0,3.48a1.39,1.39,0,0,1-1.45-1.34,1.48,1.48,0,0,1,1.36-1.57,1.46,1.46,0,1,1,.09,2.91Zm-21.67.63a2.18,2.18,0,0,0,2-2,2,2,0,0,0-2.07-2.12,1.93,1.93,0,0,0-2,2A2,2,0,0,0,25.91,50.44Zm0-3.53a1.38,1.38,0,0,1,1.4,1.44,1.43,1.43,0,1,1-2.86,0A1.44,1.44,0,0,1,25.88,46.91Zm10.83-2.12a4.5,4.5,0,1,0-.05-9,4.5,4.5,0,1,0,.05,9Zm0-8.37a3.93,3.93,0,0,1,3.91,3.86,3.92,3.92,0,1,1-3.91-3.86Z"/></g></g></svg>