<svg xmlns="http://www.w3.org/2000/svg" viewBox="0 0 113.59 113.59"><defs><style>.cls-1{fill:#1a1a1a;}</style></defs><title>Asset 452</title><g id="Layer_2" data-name="Layer 2"><g id="Layer_1-2" data-name="Layer 1"><path class="cls-1" d="M72.27,67.89a1.91,1.91,0,0,0-2.7.11s-2.13,2.23-4.6,2a2.16,2.16,0,0,1-1.57-.76A3.63,3.63,0,0,1,62.65,67c.65-6.72,7-14,7.41-22.29a9.68,9.68,0,0,0-2.73-7.17,11,11,0,0,0-16.07,0,9.49,9.49,0,0,0-2.58,7.24,15.35,15.35,0,0,0,1.41,5,8.17,8.17,0,1,0,6.3,4.49c-1.52-3.79-3.66-6.93-3.89-9.78C52.21,40.88,55.61,38,59.25,38s7.17,2.9,7,6.6c-.36,7.26-6.66,14.53-7.39,22.11a7.32,7.32,0,0,0,1.62,5.09,6.06,6.06,0,0,0,4.82,2.13c4.06,0,7-3.15,7.11-3.28A1.92,1.92,0,0,0,72.27,67.89Zm-19.38-12c.15.37.29.75.41,1.11a4.36,4.36,0,1,1-.41-1.11Z"/><path class="cls-1" d="M53.38,88.35h-.24a11.3,11.3,0,0,1-1.76-.08,8.25,8.25,0,0,0-.86,0c-.62,0-1,0-1.12,0s0,0,0-.15.2-.77.56-2.07.62-2.18.78-2.63a4.86,4.86,0,0,0,.2-.67.55.55,0,0,0-.14-.42.57.57,0,0,0-.41-.24.79.79,0,0,0-.52.06.63.63,0,0,0-.28.28,7.57,7.57,0,0,0-.22.75l-1.08,4.08a7.53,7.53,0,0,1-.35,1,2.8,2.8,0,0,0-.16.45.75.75,0,0,0,.11.48.6.6,0,0,0,.47.32,3.88,3.88,0,0,0,.82,0,9.72,9.72,0,0,1,2.85,0l.46.09.43.1a1.1,1.1,0,0,0,.67-.11.63.63,0,0,0,.36-.5.51.51,0,0,0-.1-.41A.67.67,0,0,0,53.38,88.35Z"/><path class="cls-1" d="M59.87,87.54a.54.54,0,0,0-.38.23A3.1,3.1,0,0,1,57.44,89a.88.88,0,0,1-.62-.18.67.67,0,0,1-.26-.45c0-.1,0-.16.15-.19a5,5,0,0,0,2.2-1.25,2.29,2.29,0,0,0,.77-1.73,1.14,1.14,0,0,0-.42-.83,1.33,1.33,0,0,0-1-.3,3,3,0,0,0-2.17,1.39,4.09,4.09,0,0,0-.87,2.72,2.08,2.08,0,0,0,.62,1.46,1.82,1.82,0,0,0,1.45.44,3.28,3.28,0,0,0,2-.87c.59-.53.87-1,.85-1.31S60.08,87.52,59.87,87.54Zm-2.64-1.76a1.52,1.52,0,0,1,1-.71.3.3,0,0,1,.26.09.47.47,0,0,1,.12.28c0,.28-.17.61-.58,1a3.3,3.3,0,0,1-1.43.79A3.29,3.29,0,0,1,57.23,85.78Z"/><path class="cls-1" d="M66.25,85.52a3.22,3.22,0,0,0-.1-.75,2.2,2.2,0,0,0-.94-1.32,1.84,1.84,0,0,0-1.59-.24A2.74,2.74,0,0,0,61.74,85a4.28,4.28,0,0,0-.25,2.72,1.94,1.94,0,0,0,.84,1.18,1.71,1.71,0,0,0,1.4.19,3.16,3.16,0,0,0,1.72-1.29,4,4,0,0,0,.8-2.28ZM64.68,87a2,2,0,0,1-1.14,1.07.49.49,0,0,1-.48-.16,1.27,1.27,0,0,1-.34-.62,3,3,0,0,1,0-1.43,3.52,3.52,0,0,1,.45-1.15h0a1.1,1.1,0,0,1,.62-.44.76.76,0,0,1,.71.16,1.43,1.43,0,0,1,.44.77A2.36,2.36,0,0,1,64.68,87Z"/><path class="cls-1" d="M51.2,24.57l-1,1.47,1,1.48L49.47,27l-1.09,1.44,0-1.81L46.66,26l1.71-.57,0-1.81,1.08,1.45ZM38.65,72.44,36.86,69.3l-.5,3.58-3.53.73,3.24,1.58-.39,3.58,2.5-2.59,3.29,1.48-1.7-3.18L42.2,71.8Zm40.26,5L78,74.84l-.87,2.56-2.71,0,2.16,1.62-.8,2.59L78,80.09l2.21,1.56-.8-2.58,2.17-1.62ZM90.52,53l-4.74.81-2.36-4.2-.7,4.76-4.71,1,4.31,2.13-.56,4.78,3.36-3.44,4.37,2-2.23-4.26ZM75.69,34l1.1,1.42v-1.8l1.7-.61-1.72-.55-.06-1.81-1,1.46-1.74-.5L75,33.06l-1,1.49ZM27.56,58.26l-.44-2.67L25.83,58l-2.67-.41,1.87,2-1.22,2.42,2.44-1.17,1.92,1.9L27.81,60l2.41-1.24ZM37.38,33.7,35,37.9l-4.75-.8,3.27,3.53-2.23,4.26,4.37-2,3.37,3.44-.57-4.78L42.8,39.4l-4.72-.94Z"/><path class="cls-1" d="M56.79,113.59a56.8,56.8,0,1,1,56.8-56.8A56.86,56.86,0,0,1,56.79,113.59Zm0-112.34a55.55,55.55,0,1,0,55.55,55.54A55.61,55.61,0,0,0,56.79,1.25Z"/><path class="cls-1" d="M55.72,95.91A38.79,38.79,0,1,1,94.5,57.13,38.83,38.83,0,0,1,55.72,95.91Zm0-76.32A37.54,37.54,0,1,0,93.25,57.13,37.58,37.58,0,0,0,55.72,19.59Z"/><path class="cls-1" d="M76,11.19a4.69,4.69,0,0,1-1.12,2l-.06.07L73.59,13l.18-.2a4.17,4.17,0,0,0,1-1.79,1.91,1.91,0,0,0,0-1.17.88.88,0,0,0-.63-.56c-.67-.16-1.51.49-2.5,1.93a16.74,16.74,0,0,0-1.58,3.06,23.14,23.14,0,0,0-1.19,3.59l-.16.67-1.13-.27.17-.7a22.91,22.91,0,0,0,.5-3.57,17.75,17.75,0,0,0,0-3.31c-.24-1.86-.71-2.88-1.4-3a.86.86,0,0,0-.81.22,1.79,1.79,0,0,0-.54,1,3.66,3.66,0,0,0,.14,2l.09.26-1.2-.28,0-.09a4.43,4.43,0,0,1-.12-2.26,2.59,2.59,0,0,1,1-1.59,2,2,0,0,1,1.71-.35c1,.23,1.66,1.08,2,2.53a12.71,12.71,0,0,1,.17,4.45,12.27,12.27,0,0,1,2.11-3.88c1-1.15,2-1.62,3-1.39a2,2,0,0,1,1.37,1.06A2.63,2.63,0,0,1,76,11.19Z"/><path class="cls-1" d="M97.71,24.82a2.64,2.64,0,0,0-2.65-.53l-.92.18a3,3,0,0,1-1.4,0,2.32,2.32,0,0,1-1-.73,2.25,2.25,0,0,1-.59-1.13,3,3,0,0,1,.19-1.39l.3-.88a2.66,2.66,0,0,0-.18-2.7L91,17.22l-.71.62.2.23a1.61,1.61,0,0,1,.06,1.64l-.23.66A5.17,5.17,0,0,0,90,21.72a3,3,0,0,0,.09.82,4,4,0,0,0-1.81-.12,3.45,3.45,0,0,0-1.82.85,3.61,3.61,0,0,0-1.24,2.6,3.73,3.73,0,0,0,3.51,4h.31a3.67,3.67,0,0,0,3.51-2.6,4.06,4.06,0,0,0,.11-1.81,2.66,2.66,0,0,0,.8.19,4.82,4.82,0,0,0,1.39-.15l.68-.14q1.16-.26,1.62.27l.2.23.71-.62Zm-7,3.3A2.61,2.61,0,0,1,87,27.84a2.55,2.55,0,0,1-.66-1.9,2.57,2.57,0,0,1,2.54-2.43h.21a2.52,2.52,0,0,1,1.81.9,2.58,2.58,0,0,1,.66,1.9A2.53,2.53,0,0,1,90.71,28.12Z"/><path class="cls-1" d="M108.83,49.66a17.42,17.42,0,0,1-1.53-4.39,17.31,17.31,0,0,1-.52-4.61v-.21l-1,.23v.12a12.29,12.29,0,0,0,.06,2.11L99,44.46a18.4,18.4,0,0,0-.87-1.92l-.06-.11-1,.23.09.18a19.37,19.37,0,0,1,2,9v.2l1-.22v-.12a16.1,16.1,0,0,0,0-2.12L107,48a12.4,12.4,0,0,0,.87,1.94l.06.1,1-.23ZM100,48.44c-.06-.44-.15-.93-.27-1.45a13.56,13.56,0,0,0-.38-1.41L106,44.06q.1.6.3,1.44c.12.55.24,1,.36,1.42Z"/><path class="cls-1" d="M107.37,68.81a2.88,2.88,0,0,0-1.62-2.62,2.18,2.18,0,0,0-1.75,0,2.23,2.23,0,0,0-1.25,1.25,2.27,2.27,0,0,0,0,1.77A2.23,2.23,0,0,0,104,70.46a2.37,2.37,0,0,0,1.3.16,2.43,2.43,0,0,0,.94-.41,7.59,7.59,0,0,1-.59,2.22,12.21,12.21,0,0,1-3,4.23l-.18.17,1.16.48.08-.07a11.58,11.58,0,0,0,2.91-4A9.31,9.31,0,0,0,107.37,68.81Zm-1.17,0a1.41,1.41,0,0,1-.78.79,1.4,1.4,0,0,1-1.86-.77,1.4,1.4,0,0,1,0-1.1,1.36,1.36,0,0,1,.77-.77,1.38,1.38,0,0,1,1.11,0,1.34,1.34,0,0,1,.77.76A1.4,1.4,0,0,1,106.2,68.85Zm-3.44,3.86a2.21,2.21,0,0,0-1.24-1.25,2.29,2.29,0,0,0-1.3-.16,2.47,2.47,0,0,0-.94.4,7.28,7.28,0,0,1,.6-2.21,12.3,12.3,0,0,1,3-4.24l.18-.16-1.16-.49-.08.07a11.7,11.7,0,0,0-2.91,4,9.17,9.17,0,0,0-.8,4.43,2.86,2.86,0,0,0,1.61,2.62,2.18,2.18,0,0,0,1.76,0,2.22,2.22,0,0,0,1.24-1.24A2.29,2.29,0,0,0,102.76,72.71ZM102,74.15a1.35,1.35,0,0,1-.78.77,1.36,1.36,0,0,1-1.1,0,1.34,1.34,0,0,1-.77-.76,1.42,1.42,0,0,1,0-1.09,1.39,1.39,0,0,1,.78-.78,1.48,1.48,0,0,1,.64-.12,1.36,1.36,0,0,1,.44.11,1.33,1.33,0,0,1,.78.78A1.4,1.4,0,0,1,102,74.15Z"/><path class="cls-1" d="M93.6,92.07a4.63,4.63,0,0,0-1.69-.91,2.17,2.17,0,0,0,.32-.27,2.24,2.24,0,0,0,.6-1.68,2.38,2.38,0,0,0-4.76.17A2.25,2.25,0,0,0,88.79,91a4.6,4.6,0,0,0,1.68.78L91,92a4.75,4.75,0,0,1,1.82.94,1.87,1.87,0,0,1,.66,1.36,2,2,0,0,1-.6,1.44,2,2,0,0,1-1.49.72,2.27,2.27,0,0,1-1.59-.68,5.48,5.48,0,0,1-1.14-1.9l-.48-1.2a9.09,9.09,0,0,0-1.73-3.09A1.88,1.88,0,0,0,85,89a2,2,0,0,0-1.39.66,3.08,3.08,0,0,0-.67,2.12v.15h1V91.8a2.07,2.07,0,0,1,.4-1.37.83.83,0,0,1,.63-.29,1,1,0,0,1,.68.3,9.68,9.68,0,0,1,1.41,2.72l.36.87a13.2,13.2,0,0,0,.76,1.64,4.58,4.58,0,0,0,.79.94,3.15,3.15,0,0,0,2.32.92l.15,0a3.33,3.33,0,0,0,2.12-1.14,3.23,3.23,0,0,0,.93-2.21A2.76,2.76,0,0,0,93.6,92.07Zm-2.08-1.82a1.33,1.33,0,0,1-1,.45,1.49,1.49,0,0,1-1.49-1.38,1.4,1.4,0,0,1,1.23-1.45h.12a1.42,1.42,0,0,1,1,.4,1.38,1.38,0,0,1,.46,1A1.28,1.28,0,0,1,91.52,90.25Z"/><path class="cls-1" d="M75.33,107.07A4,4,0,0,1,74,105.16l-2-6-1.1.37,1.69,5.17a6.67,6.67,0,0,1-.37,2.5,5.67,5.67,0,0,1-.83-1.73L69.61,100l-1.1.36,1.63,5a6.11,6.11,0,0,1-.31,2.7,4.57,4.57,0,0,1-.74-1.46l-1.6-4.9a8.62,8.62,0,0,0-.39-1,5.91,5.91,0,0,1,1.38-1l.11-.07-.32-1-.16.08a6.06,6.06,0,0,0-1.57,1.11,4.61,4.61,0,0,0-.91-.84l-.06,0-1.34.43.28.18a3.78,3.78,0,0,1,1.27,1.19,6.69,6.69,0,0,0-.9,2.4,5.24,5.24,0,0,0,.21,2.42,5.55,5.55,0,0,0,1.83,2.59l.1.08.72-.57v0a4.14,4.14,0,0,0,.17-.89l.25.76a3.7,3.7,0,0,0,1.37,1.87l.08.06.87-.48,0-.05a6,6,0,0,0,.4-1.52A3.8,3.8,0,0,0,72,108.52l.08,0,.87-.48,0,0a5.07,5.07,0,0,0,.39-1.48,3.88,3.88,0,0,0,.94,1l.07,0,1.2-.39ZM67,106.61A4.53,4.53,0,0,1,66,103.33a5.13,5.13,0,0,1,.38-1.48l.91,2.79A6.44,6.44,0,0,1,67,106.61Z"/><path class="cls-1" d="M44.48,104l.05.07a1.66,1.66,0,0,1,.32,1.66,1.6,1.6,0,0,1-.87,1,1.7,1.7,0,0,1-2.28-.79,1.62,1.62,0,0,1-.09-1.29,1.65,1.65,0,0,1,1.28-1.1l.08,0,.35-1-3.7-1.28-.38,1.1,2.2.76a2.35,2.35,0,0,0-.94,1.18,2.65,2.65,0,0,0,.16,2.15,2.84,2.84,0,0,0,1.63,1.45,3,3,0,0,0,.83.16,2.87,2.87,0,0,0,1.36-.28,2.7,2.7,0,0,0,1.45-1.59,2.3,2.3,0,0,0,0-1.51l2.2.77.38-1.1L44.82,103Z"/><rect class="cls-1" x="44.13" y="96.16" width="1.16" height="9.42" transform="translate(-65.25 109.95) rotate(-70.81)"/><path class="cls-1" d="M28.86,91.65,24.4,96a3.72,3.72,0,0,0-1.21,2.11l0,.32-.91-.95v-.08a4.54,4.54,0,0,1,.52-1.28,5.56,5.56,0,0,1-1.5.28h-.05l-.81-.56v-.09a3.31,3.31,0,0,1,.59-1.5,6.5,6.5,0,0,1-1.52.29h0l-.83-.58,0-.09a3.7,3.7,0,0,1,1.15-2.1l3.79-3.66a6.26,6.26,0,0,0,.75-.8.85.85,0,0,0,.16-.46,1.49,1.49,0,0,0-.52-1l-.26-.26-.75.72-.07-2.33,2.28.2-.73.7.44.45A2.18,2.18,0,0,1,25.61,87a2.94,2.94,0,0,1-1,1.75L20.9,92.27a4,4,0,0,0-1,1.26,6.06,6.06,0,0,0,2.58-.9L26.29,89l.8.84-4.21,4.06a5.3,5.3,0,0,0-1.17,1.48,6.25,6.25,0,0,0,2.43-.77l3.91-3.78Z"/><path class="cls-1" d="M17.07,72.39l-.58,1-3.21-1.89L12,73.67l-1-.58,1.28-2.19L8,68.4l.33,2.89-1.15.11L6.7,67l4.14-1.72.46,1.07L8.61,67.41l4.25,2.5,1.29-2.19,1,.59L13.86,70.5Z"/><path class="cls-1" d="M16.74,44.52a2.21,2.21,0,0,0,.13-1.76,2.29,2.29,0,0,0-1.18-1.34A2.12,2.12,0,0,0,14,41.29a2.16,2.16,0,0,0-1.29,1.12A2.52,2.52,0,0,0,12.87,45a8.39,8.39,0,0,1-1-.32l-.73-.26-1-.33a11.47,11.47,0,0,0-2.84-.68H7.19l-.36,1.26,0,0a7.88,7.88,0,0,0,1.88,2.6,9.46,9.46,0,0,0-2.18-.41,1.4,1.4,0,0,0-1.32.86l-.36.7.9.47.15-.28a1,1,0,0,1,1-.59,8.83,8.83,0,0,1,2,.42,12.65,12.65,0,0,1,2.18.79l.4.2.53-1-.55-.28a7.74,7.74,0,0,1-2-1.63A7.74,7.74,0,0,1,8,44.64a10.72,10.72,0,0,1,1.88.53l1.54.55a13.25,13.25,0,0,0,1.43.47,3.83,3.83,0,0,0,.89.05,7.48,7.48,0,0,1,1.49,1.88,1.88,1.88,0,0,1-.28,1.41L14.7,50l.91.46.42-.82a2.48,2.48,0,0,0,.33-1.78A6.11,6.11,0,0,0,15.08,46,3,3,0,0,0,16.74,44.52Zm-.87-.38a2.37,2.37,0,0,1-1.56,1.09c-.84-.93-1.09-1.73-.76-2.38a1.17,1.17,0,0,1,.73-.61,1.09,1.09,0,0,1,.62,0,1.26,1.26,0,0,1,.34.12,1.34,1.34,0,0,1,.71.79A1.22,1.22,0,0,1,15.87,44.14Z"/><path class="cls-1" d="M21.53,26.14l-1.62-.7-.66,2.85-1-.22L19.19,24l1.63.69.65-2.87,1.62.7.66-2.87,2.7,1.16-.39,1-1.59-.69L23.8,24l-1.62-.71Zm5.24-3.3-.66,2.87L24.49,25l-.66,2.88-1.62-.7-.93,4,1,.22.66-2.85,1.62.7.65-2.87,1.62.7.67-2.88,1.59.7.39-1Z"/><path class="cls-1" d="M49.45,16.18l-1.31.35-.06,0a7.65,7.65,0,0,1-1.83-1.72,6.07,6.07,0,0,1-1-1.91l-1.39.37a6.23,6.23,0,0,1,.07,2.17,7.8,7.8,0,0,1-.73,2.42l0,.06-1.31.35.17-.32a6,6,0,0,0,.71-4.38L41,14l-.24-.91,1.73-.47a6.42,6.42,0,0,0-2.71-3.09l-.3-.19L40.7,9l.06,0a6.92,6.92,0,0,1,2.81,3.28L45,11.94a6.79,6.79,0,0,1,.78-4.25l0-.06,1.25-.33-.16.31a6.36,6.36,0,0,0-.79,4l1.73-.46.24.91-1.74.47A6.05,6.05,0,0,0,49.14,16Z"/></g></g></svg>