<svg xmlns="http://www.w3.org/2000/svg" viewBox="0 0 93 120.55"><defs><style>.cls-1{fill:#1a1a1a;}</style></defs><title>Asset 526</title><g id="Layer_2" data-name="Layer 2"><g id="Layer_1-2" data-name="Layer 1"><path class="cls-1" d="M91.59,35.12A42,42,0,1,1,57.88,1.41,46.5,46.5,0,1,0,91.59,35.12ZM20.89,9.45a.65.65,0,0,1,.93,0,.64.64,0,0,1,0,.92.65.65,0,1,1-.93-.92Zm-5.56,4.74a.87.87,0,1,1,1.23,1.23.87.87,0,0,1-1.23-1.23Zm-5,5.88a1.11,1.11,0,0,1,1.57,1.57,1.12,1.12,0,0,1-1.57,0A1.1,1.1,0,0,1,10.34,20.07ZM5.7,27.36l1.24.34.4-1.23.32,1.25,1.27-.27L8,28.36l.87.95L7.63,29l-.4,1.23L6.91,29l-1.27.27.93-.91Zm-2,8.41L4.84,37l1.23-1.09-.46,1.58L7.18,38l-1.6.39L5.9,40,4.76,38.79,3.53,39.88,4,38.3l-1.56-.52,1.6-.4ZM1.85,49.09a2.67,2.67,0,0,1-.08-.48,2.73,2.73,0,0,1,2.41-3A2.73,2.73,0,0,1,7,48.22a2.67,2.67,0,0,1,0,.49,2.69,2.69,0,0,0-2.76-2.16A2.68,2.68,0,0,0,1.85,49.09Zm3.81,7.08a3,3,0,0,0-2,3,3.13,3.13,0,0,1-.37-.73A3,3,0,0,1,9,56.53a3.14,3.14,0,0,1,.15.8A3,3,0,0,0,5.66,56.17Zm4.66,10.72A3.35,3.35,0,0,0,8.7,70,3.28,3.28,0,0,1,7.62,68.9a3.34,3.34,0,1,1,6.21-2A3.36,3.36,0,0,0,10.32,66.89Zm8.81,11.29a2.82,2.82,0,1,1,0-4A2.82,2.82,0,0,1,19.13,78.18ZM29,84.54a3.34,3.34,0,0,1-4.58,1.16,3.38,3.38,0,0,1-1.11-1.08,3.34,3.34,0,0,0,3.07-5.13A3.35,3.35,0,0,1,29,84.54Zm9.68,3.63a3,3,0,0,1-3.8,1.89,3,3,0,0,1-.73-.37A3,3,0,0,0,36,84.22a3.14,3.14,0,0,1,.8.15A3,3,0,0,1,38.68,88.17Zm6,3.38a2.67,2.67,0,0,1-.48-.08,2.6,2.6,0,0,0,.38-5.16,2.67,2.67,0,0,1,.49,0,2.64,2.64,0,1,1-.39,5.24Zm11.22-2.26-.39,1.6L55,89.33l-1.58.46,1.09-1.23-1.19-1.15,1.61.33.4-1.6.52,1.57,1.58-.46-1.09,1.23,1.19,1.14Zm10-1.67L65,86.75l-.91.93.27-1.27-1.25-.32,1.23-.4L64,84.45l.95.86.91-.92-.27,1.27,1.25.32-1.23.4ZM73.25,83a1.1,1.1,0,0,1-1.57,0,1.12,1.12,0,0,1,0-1.57A1.11,1.11,0,1,1,73.25,83Zm5.88-5a.87.87,0,1,1-1.24-1.23A.87.87,0,0,1,79.13,78Zm4.74-5.57a.65.65,0,1,1,0-.92A.64.64,0,0,1,83.87,72.42Z"/><path class="cls-1" d="M70.14,18.3,69,18.79l.2,1.27-1-.77-1,.8.16-1.27-1.19-.46,1.18-.5-.2-1.26,1,.77,1-.8L69,17.84Zm2-3.56.49-.26A11.09,11.09,0,0,1,74,13.9a9.94,9.94,0,0,1,1-.3c.26-.07.44-.13.44-.17s-.19,0-.48,0a4.79,4.79,0,0,0-1,.22,8.24,8.24,0,0,0-1.39.56c-.17.09-.34.18-.5.28a10,10,0,0,0-1.29.89,7.3,7.3,0,0,0-.79.75c-.19.22-.3.39-.27.41s.62-.48,1.24-.94A15.1,15.1,0,0,1,72.19,14.74Zm1.5.77a7.9,7.9,0,0,0-1.27.3L72,16a7.13,7.13,0,0,0-1.22.63,3.16,3.16,0,0,0-1,.9,11.46,11.46,0,0,0,1.16-.7,9,9,0,0,1,1.19-.58l.45-.17a11.27,11.27,0,0,1,1.21-.32A6.5,6.5,0,0,0,75,15.49,3,3,0,0,0,73.69,15.51Zm-.1,1.84a1.9,1.9,0,0,0-.53-.11,4.24,4.24,0,0,0-.77,0l-.3,0a4.68,4.68,0,0,0-.79.18c-.39.12-.74.33-.71.39s.4-.08.78-.16.77-.14.77-.14l.28,0s.37,0,.73,0,.73.07.75,0S73.73,17.4,73.59,17.35Z"/><path class="cls-1" d="M79.25,36,76.31,37.3l2.28.76-2.38-.33,2,2.52-2.64-1.88.48,2.36-.9-2.23-1.16,3,.3-3.22-1.79,1.6L74,38l-3.19.51,2.94-1.35-2.28-.76,2.38.33-2-2.51,2.64,1.87L74,33.73l.9,2.23,1.16-3-.3,3.22,1.8-1.59-1.48,1.89ZM24.34,43.33l-2.52-2,2.4-.17-2.39-.27,2.6-1.93-3,1.16,1.05-2.17L21,39.86l-.37-3.22-.51,3.2-1.34-2,1,2.2-3-1.28,2.51,2-2.4.17,2.39.27-2.59,1.93,3-1.16-1.06,2.17,1.43-1.94.37,3.21L21,42.26l1.35,2-1-2.2ZM82.21,30l-2.93-.21,1.3-1.88-1.73,1.5-.52-2.89-.21,2.93-1.88-1.3,1.5,1.73-2.89.52,2.93.21-1.3,1.88L78.21,31l.52,2.89L78.94,31l1.88,1.3-1.5-1.73Zm-44,27.44-2.71-1.13L37.31,55l-2.11.87.43-2.91-1.14,2.71L33.13,53.8,34,55.91l-2.91-.42,2.71,1.13L32,58l2.11-.87L33.66,60l1.13-2.7,1.36,1.82L35.29,57Zm35.87-25-.78,1.22,1.22-.78.67,1.28-.07-1.45,1.44.07-1.29-.66L76,30.93l-1.21.79-.67-1.29.07,1.45-1.45-.06ZM45.26,44.07l1.27-.7.58,1.32,0-1.44,1.44.16-1.25-.75.86-1.17-1.27.7-.58-1.32,0,1.45-1.44-.16,1.24.74Zm14.06,19.4L59.14,62l-.44,1.38-1.33-.56,1,1.07-1.16.87,1.41-.31.18,1.44.44-1.38,1.33.57-1-1.08,1.16-.87Zm-3.45,4.22.06-1.45-.66,1.3-1.22-.78L54.83,68l-1.28.67L55,68.57,54.94,70l.66-1.29,1.22.77L56,68.29l1.28-.67ZM34.52,43.38l1.38-.44.31,1.41.31-1.41,1.38.44-1.08-1,1.08-1-1.38.44-.31-1.42-.31,1.42-1.38-.44,1.07,1Zm-9.12-1.2-1.13.92,1.41-.37.23,1.43.38-1.4,1.36.52-1-1,1.12-.92-1.4.36-.23-1.43-.39,1.4-1.35-.51Zm-1.56-.48-.2-.06s-1.12-.31-1.15-.19,1.08.45,1.08.45l.2.05s1.06.3,1.1.17S23.84,41.7,23.84,41.7Zm7.06.83h.69a24.07,24.07,0,0,0,3.6-.12,25.64,25.64,0,0,0-3.61-.23h-.69a27,27,0,0,0-3.81.11A27.22,27.22,0,0,0,30.9,42.53Zm6.32-.08a30.52,30.52,0,0,0,4,.39l.73,0a25.76,25.76,0,0,0,3.83,0A30.83,30.83,0,0,0,42,42.53l-.73,0A32,32,0,0,0,37.22,42.45ZM52,41.11l18.15-6.93a27.72,27.72,0,0,0,3.54-1.55A31,31,0,0,0,70,33.85L51.86,40.78a37.81,37.81,0,0,0-4.09,1.75A38.56,38.56,0,0,0,52,41.11ZM76.46,31.6l.13-.09s.67-.47.59-.58-.75.37-.75.37l-.13.09s-.71.49-.63.6S76.46,31.6,76.46,31.6ZM76,35.53a9.83,9.83,0,0,0,1-1.65l.17-.33a10.19,10.19,0,0,0,.79-1.86,10.29,10.29,0,0,0-1,1.75l-.17.33A9.1,9.1,0,0,0,76,35.53ZM71.41,43,61.48,59.54a26.73,26.73,0,0,0-1.81,3.38,29.46,29.46,0,0,0,2.11-3.2l9.93-16.55a37.31,37.31,0,0,0,2.12-3.88A37.31,37.31,0,0,0,71.41,43ZM57.23,66,57,66.2s-1.05,1.25-1,1.34,1.16-1.18,1.16-1.18l.2-.24s1.12-1.32,1-1.41S57.23,66,57.23,66Zm-8.5-1.52L41.12,60.2s-5.37-3-5.46-2.83S41,60.53,41,60.53l7.61,4.24s5.73,3.19,5.81,3S48.73,64.44,48.73,64.44ZM33.4,55.49a48.45,48.45,0,0,0-3.16-3.84L25.62,46.4A52.51,52.51,0,0,0,22,42.56a50.81,50.81,0,0,0,3.37,4.09L30,51.9A44.29,44.29,0,0,0,33.4,55.49Z"/><path class="cls-1" d="M22.47,28.75a.88.88,0,1,1,.88-.87A.87.87,0,0,1,22.47,28.75Zm7.06-5a.6.6,0,0,0-.59.59.59.59,0,0,0,.59.58.58.58,0,0,0,.58-.58A.59.59,0,0,0,29.53,23.77ZM80.42,54.92A.59.59,0,1,0,80,56a.57.57,0,0,0,.75-.33A.58.58,0,0,0,80.42,54.92ZM17.05,51.81a.58.58,0,0,0-.58.58.59.59,0,1,0,1.17,0A.58.58,0,0,0,17.05,51.81ZM61.6,26.14a.59.59,0,1,0,.58.59A.58.58,0,0,0,61.6,26.14ZM35.21,24.72a.47.47,0,1,0,.46.47A.47.47,0,0,0,35.21,24.72ZM38.68,67.5a.47.47,0,0,0-.47.47.47.47,0,0,0,.94,0A.47.47,0,0,0,38.68,67.5ZM80,46.8a.47.47,0,0,0-.26-.61.48.48,0,0,0-.61.26.48.48,0,0,0,.27.61A.46.46,0,0,0,80,46.8ZM52.13,56a.47.47,0,0,0-.17.64.47.47,0,0,0,.81-.47A.47.47,0,0,0,52.13,56ZM47.44,25.07a.47.47,0,1,0-.47.47A.47.47,0,0,0,47.44,25.07Zm19,41.79-.13-.81-.47.67-.77-.3.35.75-.64.51.82.08.12.81.48-.67.76.29-.34-.74.64-.52Zm-32.53-50-.76.33-.5-.65-.09.82-.81.11.66.49-.31.76.75-.34.51.65.09-.81.81-.12-.66-.48Zm-2.5,52-.27-.64-.26.64-.68-.1.42.55-.42.55.68-.1.26.64.27-.64.68.1-.42-.55.42-.55Zm24.16-34-.26-.64-.26.64-.69-.09.43.54-.43.55.69-.1.26.65.26-.65.69.1-.43-.55.43-.54Zm4.21,12-.76.31-.48-.67-.12.81-.82.09.65.51-.34.74.76-.3.48.67.12-.82.82-.08-.65-.51ZM25,56.69,24.2,57l-.45-.69-.15.81-.82,0,.62.54-.37.73.77-.27.45.69.16-.81.82,0-.62-.54ZM47.19,73.2,47,72.4l-.4.72-.79-.21.42.7-.58.59.82,0,.22.79.39-.71.8.21-.43-.71.58-.58ZM39,32.3l-.07-.82-.52.64-.74-.34.29.76-.67.48.81.12.08.82.51-.64.75.35-.3-.77.67-.47Zm8.24,22.84-.51.65L46,55.46l.3.76-.66.48.81.12.09.81L47,57l.76.33-.31-.76.66-.48L47.32,56Zm1.15-42.29c-.13-.77-.34-3-.34-3s0,0,0,0-.19,2.27-.34,3a1.29,1.29,0,0,1-.94,1,9.63,9.63,0,0,1-1.72.31s0,0,0,0a9.09,9.09,0,0,1,1.69.3,1.33,1.33,0,0,1,1,1c.16.78.34,3,.34,3s0,0,0,0,.2-2.3.34-3a1.41,1.41,0,0,1,1-1,6.21,6.21,0,0,1,1.52-.29s0,0,0,0a7.24,7.24,0,0,1-1.54-.3A1.2,1.2,0,0,1,48.39,12.85Zm6.38,5.74a4.11,4.11,0,0,1,.91-.17h0a3.74,3.74,0,0,1-.93-.18.71.71,0,0,1-.55-.6c-.08-.47-.2-1.82-.2-1.82h0s-.12,1.36-.21,1.82a.78.78,0,0,1-.56.6,5.9,5.9,0,0,1-1,.18h0a6.29,6.29,0,0,1,1,.18.79.79,0,0,1,.58.61c.09.46.21,1.82.21,1.82h0s.12-1.38.2-1.82A.85.85,0,0,1,54.77,18.59Z"/><path class="cls-1" d="M36.66,109.85c0,2.21-2.08,5.32-5,5.32-.74,0-1.23-.21-1.23-.38s.24-.11.53-.11c2.27,0,4.32-2.47,4.32-4.64,0-.88-.36-1.63-1.2-1.63-1.49,0-3,2.19-3.52,3.41-1,4.24-2.12,8.16-2.6,8.62s-.95-.55-.92-.69a56.9,56.9,0,0,0,2.07-7.19c-2.15,3.65-5.59,3.33-5.09.6-1.23,1.63-2.16,2.46-3.2,2.46s-1.74-.75-1.53-2.25c-3.64,4.76-9.51,4-9.51-2.08,0-5.59,4.68-11.9,8.71-11.9,1.14,0,2,.51,2,1.82,0,1.65-1.3,4.51-2.46,4.51a.73.73,0,0,1-.66-.48c1.52-1.71,3.52-5.21,1.23-5.21-3.05,0-7.07,6.86-7.07,11.62,0,5.49,5.08,5.16,8,.77.81-2.36,3.33-5.07,5.6-5.07A1.71,1.71,0,0,1,27,108.94c0,.7-.42.91-1,.91.26-1,.07-1.92-.94-1.92-2.71,0-5.64,6.82-3.79,6.82,1.32,0,3.41-3.1,4.45-4.62.26,0,.85.21.85.53,0,.49-1.23,1.93-1.23,2.94,0,1.72,2,1.11,4-2.16.81-4.76.41-4.72,1-4.72a.93.93,0,0,1,1,1,20.62,20.62,0,0,1-.48,2.86C33.21,106,36.66,107.05,36.66,109.85Zm12.16-4.38c1.32,0,2-1.8.68-1.8-.68,0-1.55.51-1.55,1.1S48.35,105.47,48.82,105.47Zm34.4,6c-.89,2.08-2.08,3.58-3.67,3.58a1.3,1.3,0,0,1-1.48-1.35c0-.87.61-2,.61-3,0-.78-.36-1-.84-1-1.76,0-3.71,3.36-4.81,5.23a1.36,1.36,0,0,1-1.12-.47c0-.1.23-.65.51-1.39-2.3,2.91-5,2.43-5,.71,0-1.25,1.16-2.83,1.16-4,0-.91-.66-1.23-1.19-1.61a31.09,31.09,0,0,1-1.88,4.07c-1.13,1.59-2.94,1.1-3.64-.51-2,4.78-5.72,4.2-5.38,1.29-2.46,3.57-6.93,3.8-6.73-.21-1.79,3-5.61,3.28-5.07-.1-2.33,3.26-5.23,2.81-5.23,1,0-1.25,1.16-2.83,1.16-4,0-.91-.65-1.23-1.18-1.61a33.3,33.3,0,0,1-1.89,4.07l-.19-.36a31.41,31.41,0,0,0,1.72-4c-.83-.83,1-2.92,1-1.44,0,.14-.23.69-.23.78,0,.78,2.16,1.14,2.16,2.94,0,1.3-1.06,2.69-1.06,3.58,0,1.42,2.58.37,4-2.06.53-1.89,1.69-4.27,2.76-4.27a.44.44,0,0,1,.46.47c0,.69-2.2,3.26-2.2,5.25,0,1,.34,1.27,1,1.27.87,0,1.86-.69,2.94-2.64,1.08-4.27,6-5.75,6-2.76,0,1.45-1.09,1.93-1.67,1.23a2.14,2.14,0,0,0,.78-1.68c0-.34-.1-.53-.46-.53-1.51,0-3.48,3.12-3.48,5.19,0,3,4,2,5.72-1.36,1.51-4.3,5.12-5.48,5.72-4.27a.34.34,0,0,1,.15,0c.53,0,.72.57.72.82,0,.53-.83,1.55-.83,2.67,0,1.53,1.64,2.62,2.78.84a29.86,29.86,0,0,0,1.71-4c-.83-.84,1-2.91,1-1.44,0,.14-.23.69-.23.78,0,.78,2.16,1.14,2.16,2.94,0,1.3-1.06,2.69-1.06,3.58,0,1.43,2.61.35,4-2.09a9,9,0,0,0,.5-2.42c.46-.52,1.55-.7,1.55.11a13.29,13.29,0,0,1-.68,2.79c3.37-5.15,6-4.15,6-1.82,0,1.31-.87,2.31-.87,3.35,0,1.31,1.64,1.42,3.6-2.5ZM62,108c-2.39,0-4.11,3.71-4.11,5.32,0,1.91,2.36,1.33,3.83-2.19A5,5,0,0,1,62,108Z"/></g></g></svg>