<svg xmlns="http://www.w3.org/2000/svg" viewBox="0 0 69.11 123.68"><title>Asset 535</title><g id="Layer_2" data-name="Layer 2"><g id="Layer_1-2" data-name="Layer 1"><path d="M12,113.63l.05.31c-.45,0-.9.13-1.35.15s-1,0-1.64,0v9.43H8.56c0-1-.07-2-.08-2.92s0-2.15,0-3.22v-3.25l-3-.13c0-.13,0-.26,0-.39Zm25.78,5.52c.87,1.45,1.72,2.87,2.56,4.29l-.24.21a4.66,4.66,0,0,1-.72-.68c-.49-.73-.93-1.49-1.39-2.24-1-1.7-1.16-1.74-3.47-1.23v4.07l-.38,0V113.6a19.25,19.25,0,0,1,3.22,0,2.41,2.41,0,0,1,2.07,2.06,3,3,0,0,1-1,3A7.54,7.54,0,0,1,37.79,119.15Zm.67-1.43a2.21,2.21,0,0,0,.07-2.6c-.94-1.42-2.39-1-3.8-1v4.55C36.12,118.69,37.53,119,38.46,117.72Zm11.29-4.2-.32.07v6.28c0,2-1.07,3.23-2.91,3.24s-2.82-1.19-2.86-3.19c0-1.73,0-3.45,0-5.18,0-.39,0-.78-.08-1.48-.29.4-.47.53-.47.66,0,2.29-.1,4.6.1,6.88.16,1.94,1.64,3,3.62,2.85A3.18,3.18,0,0,0,50,120.4c.06-2.07,0-4.14,0-6.21A2,2,0,0,0,49.75,113.52Zm-32.5-.47c1.48,3.64,2.84,7,4.2,10.36l-.26.2c-.2-.23-.53-.43-.57-.68-.46-2.5-2-3.09-4.34-2.84-1.06.12-1.57.41-1.87,1.37-.23.75-.58,1.47-.89,2.21l-.47-.25C14.4,120.07,15.76,116.73,17.25,113.05Zm2,6.52c-.67-1.7-1.29-3.25-2-5.09-.75,1.85-1.36,3.37-2.05,5.09Zm11-6a8.49,8.49,0,0,0-.11,1c0,1.69,0,3.38,0,5.07,0,.27,0,.53,0,.8a2.7,2.7,0,0,1-2.59,2.72,2.62,2.62,0,0,1-3-2.35c-.18-2-.11-3.91-.15-5.86,0-.43,0-.86-.06-1.29H24a3.5,3.5,0,0,0-.12.63c0,2,0,4.07,0,6.1a3.2,3.2,0,0,0,3.59,3.31,3.23,3.23,0,0,0,3.3-3.49c0-1.88,0-3.76,0-5.64a8.26,8.26,0,0,0-.1-1Zm27.19,5c-.79-.38-1.62-.69-2.41-1.07s-1.5-1-1.25-2.07a1.85,1.85,0,0,1,2-1.39,12.67,12.67,0,0,1,1.92.27l.65.08.07-.44a20.64,20.64,0,0,0-2.68-.4,2.41,2.41,0,0,0-2.58,1.83c-.24,1.21.27,2,1.64,2.68.8.36,1.64.65,2.41,1.07a2,2,0,0,1,1.05,2.12,1.82,1.82,0,0,1-1.54,1.77,12.83,12.83,0,0,1-2.88-.24,4.2,4.2,0,0,1-1-.41l-.12.41a4.63,4.63,0,0,0,4.46.67A2.45,2.45,0,0,0,58.87,121,2.41,2.41,0,0,0,57.42,118.49Z"/><path d="M68.46,75.18a9.72,9.72,0,0,1-1.35-1.69q-4.14-9-8.16-18a1.29,1.29,0,0,1,.28-1.11c.7-.71,1.54-1.27,2.25-2,2.92-2.88,4.62-6.21,4.22-10.48a31.36,31.36,0,0,0-6.3-16.17,52.94,52.94,0,0,1-4.18-6C52.62,15,52.28,9.84,52.74,4.6c.13-1.47.4-2.94.61-4.4L53.09.09a3.19,3.19,0,0,0-.46.44,23.42,23.42,0,0,0-4.22,16.55,28.89,28.89,0,0,0,4.38,11.4,21.74,21.74,0,0,1,2.45,5c1.38,4.65.54,9.87-4.46,13.11a44.93,44.93,0,0,1-10.49,4.89,20.07,20.07,0,0,1-10,.36,31.42,31.42,0,0,1-12.5-5.63A9.57,9.57,0,0,1,14,41.83a12.4,12.4,0,0,1,.05-9.22c.89-2,2.08-3.92,3.16-5.86,4.87-8.7,4.88-17.29-.53-25.77a10.39,10.39,0,0,0-.82-1c-.16.22-.24.28-.24.34a5.43,5.43,0,0,0,.09.56c1.74,8.83.58,17-5.48,24.08A28.34,28.34,0,0,0,4.43,36c-.85,3.13-1.51,6.32-.92,9.54.68,3.76,3.2,6.37,6.09,8.64A1.11,1.11,0,0,1,10,55.76C8.13,59.83,6.34,63.94,4.44,68,3.16,70.72,2.34,73.71,0,75.86c0,0,0,.14,0,.28.15,0,.33.19.49.17,1.45-.22,2.28.63,3.16,1.61q10.92,12.22,21.92,24.39c1.94,2.15,3.73,2.55,6.26,1.25a5.16,5.16,0,0,1,5.41.06c.17.09.35.16.52.24a4.13,4.13,0,0,0,4-.15,10.67,10.67,0,0,0,2.31-2q10.41-11.53,20.76-23.1c1.09-1.22,2.06-2.61,4-2.3,0,0,.11-.09.28-.25C68.9,75.75,68.69,75.46,68.46,75.18Zm-2.94-3.63-.19.14c-.4-.42-.8-.84-1.19-1.27-1.2-1.29-2.36-2.62-3.6-3.87a8.75,8.75,0,0,0-9.6-2.22c-.76.24-1.51.53-2.46.86-.38-1.57-.73-3-1.06-4.32l10.8-5.44Zm1.41,2.83-.21.23L49.3,65.78c3.05-2.07,7.6-1.89,10.19.63S64.46,71.71,66.93,74.38ZM48.6,71.31c-1.67,6.77-3.17,13.58-4.73,20.37-.07.3-.18.58-.27.87h-.24l-.75-2.61c-1.17-4-2.35-8.09-3.5-12.14C37.49,72.12,42.2,65.82,48,66,48.42,67.74,49.08,69.36,48.6,71.31ZM50.77,5.1c.35-.76.75-1.5,1.14-2.24a5,5,0,0,1,.42-.56l-.45,5.9C50.07,7.05,50,6.81,50.77,5.1Zm-.85,2.34c1.13,1,2.13,1.81,2.23,3.47a21.66,21.66,0,0,0,4.77,12.55,4,4,0,0,1,.33.66c-.42-.35-.63-.5-.8-.67C54.2,21.21,51.92,19,49.73,16.7a3.37,3.37,0,0,1-.89-2A18.61,18.61,0,0,1,49.92,7.44Zm5,23.61c-2.14-4.48-5.28-8.51-5.8-14,.53.48.87.77,1.18,1.08,2.58,2.58,5,5.27,7.75,7.71A20.78,20.78,0,0,1,64,36a33.08,33.08,0,0,1,1,6.14C61.71,38.33,57.19,35.79,54.9,31.05Zm1.38,3.74a7.12,7.12,0,0,1,.8.62c2.5,2.48,5,5,7.47,7.49a2.1,2.1,0,0,1,.54,1.39,10.51,10.51,0,0,1-2.57,6c-2.41-2.4-4.7-4.66-7-6.94a.82.82,0,0,1-.22-.69A16.59,16.59,0,0,0,56.28,34.79ZM54.82,43.9,62,51.09c-1.62,1.36-3.29,2.78-4.86,4.09L50,48.07Zm-5.93,4.65a.69.69,0,0,1,.61.14c2.29,2.25,4.57,4.52,7,7-2.07,1-3.93,2-5.82,2.93a1.09,1.09,0,0,1-1-.16c-2.34-2.26-4.64-4.56-7-6.92C44.84,50.46,46.86,49.49,48.89,48.55Zm-7.42,3.26a1.26,1.26,0,0,1,1,.27c2.34,2.25,4.64,4.54,7.13,7a20.46,20.46,0,0,1-2.06.79,1.16,1.16,0,0,1-.91-.2c-2.4-2.24-4.78-4.51-7.15-6.78a1.24,1.24,0,0,1-.19-.37A21.09,21.09,0,0,1,41.47,51.81Zm-9.87.91c1.92-.07,3.84-.08,5.75,0a3,3,0,0,1,1.71.67c2.38,2.17,4.71,4.39,7,6.62a2.93,2.93,0,0,1,.76,1.23c.38,1.28.66,2.58,1,4-6.5.43-8.91,4.6-9.56,10.48-2.48-1.74-4.94-1.88-7.46,0C28.71,67.52,28.22,67,21.2,65.16c.72-2,.51-4.31,2.5-5.93,2.22-1.8,4.18-3.93,6.31-5.86A2.74,2.74,0,0,1,31.6,52.72ZM29.5,79.34c-1.4,4.36-2.55,8.8-3.81,13.21l-.28,0c-.41-1.77-.84-3.54-1.25-5.32-1.3-5.62-2.68-11.23-3.82-16.89-.26-1.29.34-2.75.63-4.12,0-.15.56-.28.86-.27,3.77.12,6.79,2.77,7.8,6.8A11.56,11.56,0,0,1,29.5,79.34ZM28.29,52a15.72,15.72,0,0,0,1.61.57c-2.64,2.5-5.08,4.94-7.7,7.17-.42.35-1.64-.23-2.49-.37L19.65,59l3.06-3c1.14-1.14,2.33-2.23,3.39-3.43A1.61,1.61,0,0,1,28.29,52Zm-7.38-3.1c1.71.91,3.51,1.66,5.54,2.6-1,.9-1.84,1.68-2.69,2.51-1.45,1.41-2.85,2.88-4.33,4.27a1.34,1.34,0,0,1-1.15.27c-1.87-.88-3.68-1.85-5.68-2.88.38-.42.61-.7.86-1,1.84-1.84,3.72-3.65,5.5-5.54A1.35,1.35,0,0,1,20.91,48.9ZM17,2.51a39.31,39.31,0,0,1,1.65,3.63c.39,1.16-.82,1.41-1.48,2.22l-.47-5.79ZM12.86,22.44a22.07,22.07,0,0,0,4.05-11.19c.21-2,.35-2.35,2.25-3.71a20.09,20.09,0,0,1,1,7.87A1,1,0,0,1,20,16q-3.69,3.75-7.42,7.48l-.22-.17A10.3,10.3,0,0,1,12.86,22.44ZM4.58,37.86a27.51,27.51,0,0,1,3.69-9A4.79,4.79,0,0,1,9,28L19.3,17.62c.16-.15.34-.28.51-.42l.35.15c-.6,1.91-1.06,3.87-1.82,5.71s-1.8,3.45-2.7,5.18c-.8,1.53-1.56,3.08-2.34,4.61a3,3,0,0,1-.48.76c-2.73,2.75-5.48,5.48-8.22,8.22-.11.1-.24.18-.7.52C4.15,40.65,4.29,39.24,4.58,37.86Zm-.66,5.9a1.13,1.13,0,0,1,.37-.68l8.05-8a2.48,2.48,0,0,1,.47-.26,14.92,14.92,0,0,0,.82,7.7,1.18,1.18,0,0,1-.2,1C11.23,45.76,9,48,6.65,50.38A10.08,10.08,0,0,1,3.92,43.76Zm3,7.29,7.25-7.2,4.93,4.29c-.13.15-.32.41-.55.64-1.92,1.93-3.86,3.84-5.76,5.79-.5.51-.88.61-1.45.13C9.88,53.47,8.4,52.28,6.91,51.05Zm3.87,4.45c3.57,1.7,7,3.3,10.31,4.94a1,1,0,0,1,.42.85c-.26,1.27-.61,2.52-1,3.88l-2.33-.79a8.85,8.85,0,0,0-10,2.49c-1.51,1.62-3,3.26-4.69,4.77ZM9.89,66.16c2.53-2.35,6.75-2.35,9.88-.39L2.31,74.63l-.24-.25C4.66,71.63,7.11,68.72,9.89,66.16ZM2.05,76c0-.16-.07-.32-.1-.49L20.1,66.3c-.17,4.15-3.91,10-9.31,9.72C7.88,75.88,5,76,2.05,76ZM25.37,101.2,3.24,76.58c2,0,3.75,0,5.52,0a24.78,24.78,0,0,0,3.45-.07A8.77,8.77,0,0,0,18.76,72c.23-.4.47-.78.87-1.47.46,1.88.86,3.47,1.23,5.07q2,8.84,4.06,17.68a2.33,2.33,0,0,1,.17,1.13c-.77,2.17.05,4.22.36,6.32A2.12,2.12,0,0,1,25.37,101.2Zm17.57-.27a3.17,3.17,0,0,1-3.37,2.82,7.69,7.69,0,0,1-1.83-.59,5.87,5.87,0,0,0-6.49,0,3.5,3.5,0,0,1-3.92-.16,3.14,3.14,0,0,1-1.12-1.58c-.35-1.25-.41-2.58-.75-3.83s.17-2.57.52-3.8c1.48-5.27,3.14-10.49,4.47-15.8.79-3.19,4.69-3.66,6.68-2.22a3.66,3.66,0,0,1,1.25,1.83c1.78,6,3.5,12.06,5.21,18.1a3.28,3.28,0,0,1,0,1.36C43.43,98.37,43.18,99.65,42.94,100.93Zm.94,0-.28-.1c.19-1.16.39-2.32.58-3.49.06-.37.25-.81.13-1.12-.84-2.07,0-4,.49-5.93,1.42-6.27,2.89-12.53,4.35-18.79.06-.24.16-.48.31-.92.4.65.68,1.13,1,1.6a8.72,8.72,0,0,0,7.84,4.38c2,0,4-.12,6-.17.44,0,.89,0,1.69,0ZM67,75.7c-1,.06-2,.16-3.08.16-2.52,0-5.06.11-7.57-.1a6.52,6.52,0,0,1-4.46-2.61,11.89,11.89,0,0,1-3-6.87L67,75.45ZM43.17,46.36a11.69,11.69,0,0,0-1.3-17.81c1.8-4.28,1.22-7.67-1.74-10.1a7.77,7.77,0,0,0-9.22-.32c-3.24,2.26-3.89,5.39-2.19,10.46A11.48,11.48,0,1,0,43.17,46.36ZM30.28,19.45a7.06,7.06,0,0,1,11.41,8c-.28.57-.48.85-1.19.5a11.33,11.33,0,0,0-10.7.15,1.58,1.58,0,0,1-.31.09C27.55,25.85,27.93,21.8,30.28,19.45Zm10.37,9.37c-2.21,3.49-7.93,3.54-10.74,0C32.63,26.75,38.16,26.76,40.65,28.82Zm-11.4.39a8,8,0,0,0,6,2.83,7.85,7.85,0,0,0,6.08-2.86,10.64,10.64,0,0,1,4.3,12,10.79,10.79,0,1,1-16.39-12Zm5.54-15A5.37,5.37,0,0,0,40.61,9.8c.38-2.35-.94-4.9-3-5.45.77,1.83,1,3.53-1,4.62a2.59,2.59,0,0,1-3-.24C32.07,7.54,32.21,6,33,4.41c-1.72.23-3.18,2.49-3.1,4.6A5.35,5.35,0,0,0,34.79,14.23ZM31.68,6.07c.57,2.7,1.71,3.88,3.72,3.83S38.52,8.6,38.9,6a4.57,4.57,0,0,1-.34,6.39,4.78,4.78,0,0,1-6.72-.22C30.5,10.76,29.81,7.83,31.68,6.07Zm28.88,81.8a9.4,9.4,0,0,1-3.32,5.85c2.11,1.47,2.73,3.58,3.38,5.74A9.51,9.51,0,0,1,64,93.64C61.9,92.15,61.21,90.07,60.56,87.87Zm0,9.1-2.13-3.31c.68-1.06,1.42-2.19,2.14-3.32l2.14,3.33ZM8.44,21.58c.48-1,.71-2.1,1.19-3a25.39,25.39,0,0,1,2-2.87,9.37,9.37,0,0,1-3.12-5.63A10,10,0,0,1,5.2,15.82,9.19,9.19,0,0,1,8.44,21.58Zm.07-9.1,2.14,3.33L8.52,19.12C7.8,18,7.08,16.9,6.37,15.8ZM34.5,71a9.09,9.09,0,0,1,6.13-6.64,8.68,8.68,0,0,1-6-6.5,8.91,8.91,0,0,0-1.3,2.49A3.84,3.84,0,0,1,30.93,63a22.13,22.13,0,0,0-2.43,1.33l-.13.35C31.7,65.49,33.61,67.67,34.5,71Zm-.2-11.78.28.09a12,12,0,0,0,1.58,3.14c.81.84,2.07,1.24,3.45,2-2.65.88-4.46,2.33-4.87,5.08l-.27-.09a12.12,12.12,0,0,0-1.62-3.19c-.8-.83-2.08-1.22-3.44-2C32.11,63.44,33.89,62,34.3,59.23Zm6.26,30.89c-.14.88-.21,1.52-.34,2.15a3.25,3.25,0,0,1-3.52,2.89h-4c-2.59,0-3.8-1.15-4-3.78,0-.36-.07-.71-.11-1.08-.23,0-.34,0-.37.09a1.86,1.86,0,0,0-.29.49,15,15,0,0,0-.79,6.67,3.55,3.55,0,0,0,3.44,3q4,.08,7.93,0c1.79,0,3.53-1.47,3.47-3.19a54.13,54.13,0,0,0-.86-6.55C41.07,90.61,40.83,90.45,40.56,90.12Zm.32,8.37a4.28,4.28,0,0,1-2.48,1.38c-2.6.18-5.21.07-7.82.06a2.74,2.74,0,0,1-2.46-1.46c-1-1.9-.39-3.83-.08-6.06.47.87.71,1.44,1.06,1.94a3,3,0,0,0,2.71,1.41,48.07,48.07,0,0,1,4.95,0,3.55,3.55,0,0,0,3.75-2.41,3.05,3.05,0,0,1,.13-.32c0-.1.11-.19.17-.3C41.62,94,41.79,97.51,40.88,98.49ZM21,68.88c-.47,3.13,2,6.59,5.06,7C26.33,71.64,24.26,68.82,21,68.88Zm.63.75c2.72.48,3.73,1.91,3.75,5.41A5.57,5.57,0,0,1,21.58,69.63Zm21.6,6.24c3-.56,5.55-4.16,4.9-7.06A5.48,5.48,0,0,0,43.18,75.87Zm4.3-6.26A5.57,5.57,0,0,1,43.78,75C43.55,71.86,44.74,70,47.48,69.61ZM40.61,95.84c0,.52.15,1.27-.11,1.5A16.58,16.58,0,0,1,38,98.9l-.43-.44a17,17,0,0,1,1.58-2.52C39.35,95.67,40.1,95.86,40.61,95.84Zm-10.76,0a22.19,22.19,0,0,1,1.67,2.57l-.33.29a4.27,4.27,0,0,1-2.87-1.7,1.28,1.28,0,0,1,.26-1.24A1.3,1.3,0,0,1,29.85,95.89Z"/></g></g></svg>