<svg xmlns="http://www.w3.org/2000/svg" viewBox="0 0 55.27 74.42"><defs><style>.cls-1{fill:#1d1d1b;}</style></defs><title>Asset 439</title><g id="Layer_2" data-name="Layer 2"><g id="Layer_1-2" data-name="Layer 1"><path class="cls-1" d="M40,32.2c-4.21,5-5.94,8.72-6.27,13.61h3.34a1.1,1.1,0,1,1,0,2.2H33.67c.13,4.15,1.51,8.57,5.34,13.41.51.65-.1,1.29-.61,1.56h0c-.42.22-.71.21-1.16-.23A22.74,22.74,0,0,1,30.44,48H24.83A22.74,22.74,0,0,1,18,62.76c-.45.44-.73.45-1.16.23h0c-.51-.27-1.12-.91-.61-1.56,3.83-4.84,5.22-9.26,5.34-13.41H17.51a1.1,1.1,0,1,1,0-2.2h4c-.34-4.89-2.07-8.61-6.28-13.61-.53-.63,0-1.26.48-1.56a.85.85,0,0,1,1.21.1C23.83,37,24.72,42.3,24.84,45.81h5.6c.11-3.51,1-8.78,7.86-15.07a.87.87,0,0,1,1.22-.1C40,30.94,40.52,31.57,40,32.2ZM55.27,46.78A27.63,27.63,0,0,1,8.09,66.32,27.64,27.64,0,0,1,47.18,27.24,27.45,27.45,0,0,1,55.27,46.78Zm-1.9,0A25.73,25.73,0,0,0,9.44,28.59,25.73,25.73,0,1,0,45.83,65,25.57,25.57,0,0,0,53.37,46.78Z"/><path class="cls-1" d="M15.63,3.25a3.2,3.2,0,0,1-3.42,3.22,2.57,2.57,0,0,1-1.49-.37l.09-.17a2.27,2.27,0,0,0,1,.22c1.38,0,2-1.17,2-2.72,0-1.89-.87-3-2.43-3a2.93,2.93,0,0,0-1,.15V9.9c0,1.57.15,1.79.82,1.9V12c-.35,0-1.08,0-1.67,0s-1.32,0-1.68,0V11.8c.69-.11.82-.33.82-1.9V2.07C8.68.49,8.52.28,7.83.16V0C8.19,0,8.9,0,9.47,0,10.29,0,11,0,11.4,0,14.32,0,15.63,1.48,15.63,3.25Zm2.92,7.06V4.11a5.31,5.31,0,0,1-2.05.43V4.7c.49.13.51.4.51,1.18v4.43c0,1.31-.21,1.39-.71,1.49V12c.36,0,.87,0,1.48,0s1.11,0,1.47,0V11.8C18.76,11.7,18.55,11.62,18.55,10.31Zm-.72-7.16a.79.79,0,0,0,.82-.77.81.81,0,1,0-1.61,0A.78.78,0,0,0,17.83,3.15Zm4,2.46a1.19,1.19,0,0,1,1.31-1.22,1.93,1.93,0,0,1,1.83,1.72h.17c0-.52,0-.93,0-1.21a3.3,3.3,0,0,1,0-.61c-.7-.06-1.36-.23-2-.23-1.46,0-2.62.77-2.62,2.2,0,2.48,3.54,1.93,3.54,4.13a1.26,1.26,0,0,1-1.38,1.34c-1.26,0-1.82-1.11-1.77-2.29h-.16c-.15.66-.1,1.74-.2,2.28a14.71,14.71,0,0,0,2.25.34,2.45,2.45,0,0,0,2.7-2.37C25.43,7.06,21.78,7.51,21.78,5.61Zm8.78-1.22c1,0,1.34.69,1.39,1.58h1.59c-.23-1.23-1.39-1.91-2.86-1.91a3.93,3.93,0,0,0-4.09,4,3.82,3.82,0,0,0,3.91,4,3.29,3.29,0,0,0,2.86-1.5l-.11-.11a2.71,2.71,0,0,1-2.07.9c-1.7,0-2.88-1.34-2.88-3.65C28.3,6,29,4.39,30.56,4.39Zm10.55,6,.12.15a3.45,3.45,0,0,1-3,1.56,3.83,3.83,0,0,1-3.88-4,3.8,3.8,0,0,1,3.72-4,3,3,0,0,1,3.1,3.09H36.07a3.24,3.24,0,0,0,0,.41c0,2.31,1.25,3.73,3,3.73A2.84,2.84,0,0,0,41.11,10.39Zm-5-3.67h3.41c0-1.56-.61-2.33-1.5-2.33S36.31,5.42,36.12,6.72Zm7.67-1.11A1.19,1.19,0,0,1,45.1,4.39a1.93,1.93,0,0,1,1.83,1.72h.17c0-.52,0-.93,0-1.21a3.16,3.16,0,0,1,0-.61c-.7-.06-1.36-.23-2-.23-1.46,0-2.62.77-2.62,2.2,0,2.48,3.54,1.93,3.54,4.13a1.26,1.26,0,0,1-1.38,1.34c-1.26,0-1.82-1.11-1.77-2.29h-.16c-.15.66-.1,1.74-.2,2.28a14.53,14.53,0,0,0,2.25.34,2.45,2.45,0,0,0,2.7-2.37C47.44,7.06,43.79,7.51,43.79,5.61Z"/></g></g></svg>