<svg xmlns="http://www.w3.org/2000/svg" viewBox="0 0 96.99 50.5"><defs><style>.cls-1{fill:#1d1d1b;}</style></defs><title>Asset 432</title><g id="Layer_2" data-name="Layer 2"><g id="Layer_1-2" data-name="Layer 1"><path class="cls-1" d="M13.33,14.39a.54.54,0,0,1,0-1.08l42.48-1.45a.54.54,0,1,1,0,1.07L13.35,14.38Zm59,7.05a.54.54,0,0,0,0-.76l-7.49-6.86a.53.53,0,1,0-.72.79l7.48,6.86a.54.54,0,0,0,.36.14A.56.56,0,0,0,72.37,21.44Zm12.8,11.63a.54.54,0,0,0-.06-.76l-7.64-6.55a.54.54,0,0,0-.7.82l7.64,6.55a.61.61,0,0,0,.35.13A.55.55,0,0,0,85.17,33.07Zm3.42,2c-1.14.28-.53-2-2.09-1.19.38.83.74,1.61,1.18,2.59-1.21,0-2.29,0-3.36,0s-2.06-.7-3.14-.1c.23.79.78.74,1.29.74h4.7c.32,0,.65.05,1.11.08-.83,1.26-2.42,1.7-2.7,3.48,1.4-.31,1.79-1.8,3.08-2,0,.66,0,1.22,0,1.78s-.11,1.35-.07,2c.06,1,.25,1.94.3,2.92.07,1.35,0,2.71.09,4.06a4.6,4.6,0,0,0,.32,1l.43,0A9.82,9.82,0,0,0,89.9,49c-.07-2.81-.17-5.62-.25-8.42,0-.61-.07-1.24.56-1.67,1,.67,1.28,2,2.39,2.38.63-.42.45-.85.12-1.23s-.79-.83-1.17-1.25-1.1-.83-1-1.78a4.47,4.47,0,0,1,1.33-.2,32.68,32.68,0,0,1,3.69.63c.64.15,1.1.21,1.42-.7a44.36,44.36,0,0,0-6.07-.72l1.86-2.89c-1.61-.08-1.52,1.52-2.58,1.86l.22-2.35-1.3,1.23c0-2.62,0-4.9,0-7.17,0-.49.33-1-.71-1.39A61.66,61.66,0,0,0,88.59,35.1ZM7.4,9.73c-1.14.28-.53-2-2.08-1.19.38.82.73,1.61,1.18,2.58-1.22,0-2.29,0-3.37,0s-2-.7-3.13-.1c.22.79.78.74,1.29.74H6c.33,0,.66.05,1.12.08-.84,1.26-2.43,1.7-2.71,3.48,1.4-.31,1.79-1.8,3.08-2,0,.66,0,1.22,0,1.78s-.11,1.35-.07,2c.06,1,.26,1.94.31,2.92.07,1.35,0,2.71.09,4.06a3.93,3.93,0,0,0,.31,1l.44,0a9.69,9.69,0,0,0,.17-1.41c-.07-2.81-.17-5.62-.26-8.43,0-.6-.07-1.23.57-1.66,1,.67,1.27,1.95,2.38,2.38.64-.42.45-.85.13-1.23s-.79-.83-1.18-1.25-1.09-.83-1-1.79a4.87,4.87,0,0,1,1.34-.19,32.89,32.89,0,0,1,3.68.63c.65.15,1.1.2,1.43-.7a41.74,41.74,0,0,0-6.08-.72L11.6,7.82C10,7.74,10.08,9.34,9,9.68c.06-.71.13-1.36.22-2.35L7.94,8.56c0-2.62,0-4.9,0-7.18C8,.9,8.27.35,7.23,0A62.88,62.88,0,0,0,7.4,9.73Zm49.19.06a8.33,8.33,0,0,0,.82.34,16.68,16.68,0,0,1,2,.62c1.44.66,1.15.43,1.1,1.88,0,.68,0,1.37.05,2.19,0,.53.4-.2.43-.28a12.06,12.06,0,0,0,.48-1.31c.22-.81.46-1.51,1.46-1.73a13.85,13.85,0,0,0,2.66-.65c.62-.21-.92-.67-1.15-.77-.4-.17-.82-.31-1.24-.45a2,2,0,0,1-1.41-2c0-.75.08-1.49.13-2.24,0-.28.11-.56-.36-.67-.06.18-.14.34-.18.51-.21.91-.46,1.82-.58,2.74S60,9.21,59.24,9.34c-.37.05-.75,0-1.13.05l-1.45.11C56.43,9.52,56.21,9.62,56.59,9.79Zm24,14.11c-.2-.22-.39-.44-.61-.64a15.58,15.58,0,0,1-1.56-1.35c-1.06-1.18-.89-.86-.27-2.16.3-.62.52-1.27.83-2,.16-.51-.45,0-.51.08a13.17,13.17,0,0,0-1,1c-.52.65-1,1.2-2,1a13.42,13.42,0,0,0-2.69-.46c-.66-.05.57,1,.75,1.16s.62.61,1,.91a1.94,1.94,0,0,1,.5,2.39c-.29.69-.67,1.34-1,2-.13.24-.32.47.06.75a3.27,3.27,0,0,0,.37-.38c.55-.76,1.15-1.5,1.63-2.3a1.52,1.52,0,0,1,1.94-.64c.36.09.7.27,1.06.4l1.38.48C80.58,24.21,80.82,24.21,80.54,23.9Z"/><path class="cls-1" d="M29.63,40.79l-2.87-9h-.3l-2.9,7.57c-.92,2.4-1.21,2.87-2,3.12v.14c.29,0,.56,0,1.06,0s1.11,0,1.43,0V42.5a.66.66,0,0,1-.62-.73,6.93,6.93,0,0,1,.59-2l.3-.81c.45,0,.89,0,1.5,0s1.09,0,1.65,0l.48,1.51a6.3,6.3,0,0,1,.39,1.51c0,.31-.16.5-.62.56v.14c.32,0,1.07,0,1.61,0s1.12,0,1.43,0V42.5C30.2,42.37,30,42,29.63,40.79Zm-3.86-2.4H24.48l1.5-4,1.26,4Zm10.4-1.13H34.83c0-.6-.23-.81-.58-.81a1.21,1.21,0,0,0-.89.51v4.21c0,1.17.19,1.24.63,1.33v.14c-.33,0-.78,0-1.32,0s-1,0-1.31,0V42.5c.44-.09.63-.16.63-1.33v-4c0-.71,0-.93-.45-1.05V36a4.77,4.77,0,0,0,1.82-.4v.94A2.49,2.49,0,0,1,35,35.62C35.76,35.62,36.17,36.12,36.17,37.26Zm3.31,5.24v.14c-.33,0-.78,0-1.32,0s-1,0-1.31,0V42.5c.44-.09.63-.16.63-1.33V37.24c0-.7,0-.93-.45-1.05v-.14a5,5,0,0,0,1.82-.38v5.5C38.85,42.34,39,42.41,39.48,42.5Zm-2-8.38a.7.7,0,0,1,.7-.74.71.71,0,0,1,.73.74.7.7,0,0,1-.73.69A.69.69,0,0,1,37.51,34.12Zm7,7.93c-1.55,0-2.66-1.27-2.66-3.32,0-.24,0-.37,0-.37h4.56a2.62,2.62,0,0,0-2.75-2.74,3.58,3.58,0,0,0,.15,7.14,3.07,3.07,0,0,0,2.63-1.38l-.1-.13A2.56,2.56,0,0,1,44.48,42.05Zm-.9-6.13c.79,0,1.3.68,1.33,2.06h-3C42.05,36.83,42.66,35.92,43.58,35.92Zm8.36,4.7a2.18,2.18,0,0,1-2.4,2.11,12.32,12.32,0,0,1-2-.31c.09-.48.05-1.44.18-2h.14c0,1.05.45,2,1.58,2a1.12,1.12,0,0,0,1.22-1.19c0-2-3.15-1.48-3.15-3.67,0-1.27,1-2,2.33-2,.6,0,1.18.15,1.81.21a2.52,2.52,0,0,0,0,.54c0,.24,0,.61,0,1.07h-.14a1.72,1.72,0,0,0-1.63-1.52A1.05,1.05,0,0,0,48.69,37C48.69,38.68,51.94,38.29,51.94,40.62Z"/></g></g></svg>