<svg xmlns="http://www.w3.org/2000/svg" viewBox="0 0 100.34 70.64"><defs><style>.cls-1{fill:#1d1d1b;}</style></defs><title>Asset 444</title><g id="Layer_2" data-name="Layer 2"><g id="Layer_1-2" data-name="Layer 1"><path class="cls-1" d="M13.68,42.58a.54.54,0,0,1-.5-.35L6.45,24.63a.52.52,0,0,1,.31-.69.53.53,0,0,1,.69.31l6.74,17.6a.54.54,0,0,1-.31.69A.48.48,0,0,1,13.68,42.58Zm37.24,21a.55.55,0,0,0-.33-.69L23.14,53.25a.54.54,0,1,0-.36,1l27.45,9.67a.57.57,0,0,0,.18,0A.55.55,0,0,0,50.92,63.61Zm8.66-.6L90,20.44a.54.54,0,1,0-.87-.63L58.71,62.39a.53.53,0,0,0,.12.75.52.52,0,0,0,.31.1A.54.54,0,0,0,59.58,63Zm.77-31L86,17.52a.54.54,0,0,0,.21-.73.53.53,0,0,0-.73-.2L59.83,31.05a.54.54,0,0,0-.21.73.53.53,0,0,0,.47.28A.48.48,0,0,0,60.35,32Zm-13.28,2.8a.53.53,0,0,0-.36-.67l-37.78-11a.53.53,0,0,0-.66.36.55.55,0,0,0,.36.67l37.78,11a.39.39,0,0,0,.15,0A.53.53,0,0,0,47.07,34.79Zm7.44.13c-1.14.29-.53-2-2.08-1.18.38.82.73,1.61,1.18,2.58-1.22,0-2.29,0-3.37,0s-2.05-.71-3.13-.11c.23.8.78.75,1.29.75,1.56,0,3.13,0,4.69,0,.33,0,.66,0,1.12.08-.84,1.26-2.42,1.7-2.71,3.48,1.4-.31,1.79-1.8,3.09-2,0,.67,0,1.23,0,1.79s-.11,1.35-.07,2c.06,1,.26,1.94.31,2.92.07,1.35,0,2.71.09,4.06a4.35,4.35,0,0,0,.31,1l.44,0a9.69,9.69,0,0,0,.17-1.41c-.07-2.81-.17-5.62-.26-8.43,0-.61-.06-1.23.57-1.66,1,.67,1.27,1.95,2.39,2.38.63-.42.44-.85.12-1.23s-.79-.83-1.18-1.25-1.09-.83-1-1.79a4.75,4.75,0,0,1,1.33-.19,32.51,32.51,0,0,1,3.68.63c.65.15,1.1.2,1.43-.7a41.74,41.74,0,0,0-6.08-.72L58.71,33c-1.61-.08-1.52,1.52-2.58,1.86l.22-2.35-1.3,1.22c0-2.61,0-4.89,0-7.17,0-.48.32-1-.72-1.38A62.73,62.73,0,0,0,54.51,34.92ZM91.93,11.6c-1.14.28-.53-2-2.08-1.19L91,13c-1.22,0-2.3,0-3.37,0s-2.06-.7-3.13-.1c.22.8.78.74,1.29.75h4.69c.33,0,.66,0,1.12.09-.84,1.25-2.43,1.7-2.71,3.47,1.4-.3,1.79-1.79,3.08-2,0,.67,0,1.23,0,1.79s-.11,1.35-.07,2c.06,1,.26,1.94.31,2.91.07,1.36,0,2.72.09,4.07a3.93,3.93,0,0,0,.31,1l.44,0a8.46,8.46,0,0,0,.16-1.41c-.06-2.81-.16-5.62-.25-8.43,0-.61-.07-1.23.57-1.67,1,.68,1.27,2,2.38,2.39.64-.42.45-.85.13-1.24s-.79-.82-1.18-1.25-1.09-.82-1-1.78a5.31,5.31,0,0,1,1.34-.2,35.39,35.39,0,0,1,3.68.64c.65.15,1.1.2,1.43-.7a43.17,43.17,0,0,0-6.08-.73l1.87-2.89c-1.61-.07-1.52,1.52-2.58,1.87.06-.71.13-1.37.22-2.35l-1.3,1.22c0-2.61,0-4.89,0-7.17,0-.48.32-1-.72-1.38A62.77,62.77,0,0,0,91.93,11.6ZM17.29,45.54c-1.14.28-.53-2-2.09-1.19l1.18,2.59c-1.21,0-2.29,0-3.36,0s-2.06-.7-3.14-.1c.23.79.78.74,1.29.74h4.69c.33,0,.66,0,1.12.09-.83,1.25-2.42,1.7-2.7,3.47,1.4-.3,1.78-1.79,3.08-2,0,.66,0,1.23,0,1.79s-.1,1.35-.06,2c.06,1,.25,1.94.3,2.91.07,1.36,0,2.71.09,4.07a4.38,4.38,0,0,0,.32,1l.43,0a9.69,9.69,0,0,0,.17-1.41c-.07-2.81-.17-5.62-.25-8.43,0-.61-.07-1.23.56-1.67,1,.67,1.28,2,2.39,2.38.63-.42.45-.84.12-1.23s-.79-.82-1.18-1.25-1.09-.83-1-1.78a5.17,5.17,0,0,1,1.33-.2,32.68,32.68,0,0,1,3.69.63c.64.16,1.1.21,1.42-.69a43,43,0,0,0-6.08-.73l1.87-2.89c-1.61-.07-1.52,1.52-2.58,1.87l.22-2.35-1.3,1.22c0-2.61,0-4.89,0-7.17,0-.49.33-1-.71-1.38A60.38,60.38,0,0,0,17.29,45.54ZM51.54,65.42a8.33,8.33,0,0,0,.82.34,18.78,18.78,0,0,1,2,.62c1.44.66,1.15.44,1.1,1.88,0,.69,0,1.37,0,2.19.05.53.4-.19.43-.28a12.06,12.06,0,0,0,.48-1.31c.22-.81.46-1.51,1.46-1.72a15.51,15.51,0,0,0,2.66-.65c.62-.22-.92-.67-1.15-.77-.4-.17-.82-.31-1.24-.45a2,2,0,0,1-1.41-2c0-.74.08-1.49.13-2.24,0-.27.11-.56-.36-.66a5,5,0,0,0-.18.5c-.21.91-.46,1.82-.58,2.75S55,64.84,54.19,65a10.49,10.49,0,0,1-1.12,0l-1.46.11C51.38,65.15,51.16,65.25,51.54,65.42ZM.21,20.7c.27.11.53.24.81.33a18.1,18.1,0,0,1,2,.63c1.44.66,1.15.43,1.1,1.87,0,.69,0,1.38,0,2.2.06.53.4-.2.44-.29a12,12,0,0,0,.47-1.31c.22-.8.47-1.5,1.46-1.72a14.43,14.43,0,0,0,2.66-.65c.63-.22-.91-.67-1.15-.77-.4-.17-.82-.31-1.23-.45a2,2,0,0,1-1.41-2c0-.75.08-1.5.13-2.25,0-.27.1-.56-.36-.66a3.9,3.9,0,0,0-.19.5c-.2.92-.45,1.82-.58,2.75s-.73,1.24-1.52,1.36c-.37.06-.75,0-1.13.06l-1.46.11C.05,20.43-.17,20.52.21,20.7Z"/><path class="cls-1" d="M23.94,7.89l.14,0C24,8.46,24,9.31,24,10a8.69,8.69,0,0,1-3.54.8,5.39,5.39,0,0,1-5.62-5.44A5.31,5.31,0,0,1,20.47,0,17.26,17.26,0,0,1,24,.52c0,.41,0,1,0,1.45s0,.75,0,1h-.15A3.11,3.11,0,0,0,20.59.39c-2.19,0-4,1.69-4,5,0,3.46,2,5,4,5A3.6,3.6,0,0,0,23.94,7.89Zm7.25,2,.07.13a1.47,1.47,0,0,1-1.28.7.76.76,0,0,1-.86-.75,3.24,3.24,0,0,1-2.08.8c-1.18,0-2-.67-2-1.63s1.1-1.87,2.48-1.87a3,3,0,0,1,1.54.38V5.59C29.06,4.47,28.7,4,28,4s-1.37.59-1.39,1.84H25.32A2.5,2.5,0,0,1,28.1,3.67c1.41,0,2.33.64,2.33,2.52V9.25c0,.64.1.83.4.83A.54.54,0,0,0,31.19,9.93ZM29.06,8a2,2,0,0,0-1.16-.34A1.25,1.25,0,0,0,26.53,9a1.14,1.14,0,0,0,1.19,1.27,1.93,1.93,0,0,0,1.34-.57Zm10-.82a3.42,3.42,0,0,1-3.48,3.56,3.07,3.07,0,0,1-1.75-.51V12.5c0,1.16.19,1.23.63,1.32V14c-.32,0-.77,0-1.31,0s-1,0-1.31,0v-.15c.44-.09.63-.16.63-1.32V5.26c0-.72,0-1-.54-1V4.06a4.74,4.74,0,0,0,1.9-.39v.67a3.15,3.15,0,0,1,2-.67A3.3,3.3,0,0,1,39.08,7.19Zm-1.61.11c0-2-.72-3.21-2.09-3.21a2.14,2.14,0,0,0-1.53.67v5a2.22,2.22,0,0,0,1.56.61C36.5,10.37,37.47,9.6,37.47,7.3Zm6.29-3.63a2.56,2.56,0,0,0-1.68.93V3.67a4.72,4.72,0,0,1-1.82.39v.15c.44.12.45.33.45,1v4c0,1.16-.19,1.24-.62,1.32v.15c.32,0,.77,0,1.31,0s1,0,1.31,0v-.15c-.44-.08-.63-.16-.63-1.32V5A1.21,1.21,0,0,1,43,4.5c.35,0,.58.2.58.8h1.34C44.89,4.17,44.48,3.67,43.76,3.67Zm3.17-.82a.69.69,0,0,0,.73-.68.72.72,0,1,0-1.43,0A.69.69,0,0,0,46.93,2.85Zm.64,6.37V3.71a4.55,4.55,0,0,1-1.82.38v.15c.44.11.45.35.45,1V9.22c0,1.16-.19,1.24-.62,1.32v.15c.32,0,.77,0,1.31,0s1,0,1.31,0v-.15C47.76,10.46,47.57,10.38,47.57,9.22ZM52.64,4c.92,0,1.19.61,1.24,1.4h1.41a2.33,2.33,0,0,0-2.55-1.69,3.49,3.49,0,0,0-3.63,3.58,3.4,3.4,0,0,0,3.47,3.56,2.93,2.93,0,0,0,2.55-1.33l-.1-.1a2.42,2.42,0,0,1-1.84.8c-1.51,0-2.56-1.19-2.56-3.25C50.63,5.34,51.26,4,52.64,4ZM63.28,7.22a3.47,3.47,0,0,1-3.61,3.53A3.41,3.41,0,0,1,56.1,7.27a3.59,3.59,0,0,1,7.18,0Zm-1.61,0c0-2-.41-3.31-2-3.31s-2,1.53-2,3.29.35,3.21,2,3.21S61.67,9,61.67,7.27Zm6.26-3.6a2.56,2.56,0,0,0-1.68.93V3.67a4.72,4.72,0,0,1-1.82.39v.15c.44.12.46.33.46,1v4c0,1.16-.19,1.24-.63,1.32v.15c.32,0,.77,0,1.31,0s1,0,1.31,0v-.15c-.44-.08-.63-.16-.63-1.32V5a1.21,1.21,0,0,1,.89-.51c.35,0,.59.2.59.8h1.34C69.07,4.17,68.66,3.67,67.93,3.67Zm8.29,5.55V6c0-2.06-1.32-2.37-2.29-2.37a3.53,3.53,0,0,0-2.19.71V3.67a4.72,4.72,0,0,1-1.82.39v.15c.44.12.46.33.46,1v4c0,1.16-.19,1.24-.63,1.32v.15c.32,0,.77,0,1.31,0s1,0,1.31,0v-.15c-.44-.08-.63-.16-.63-1.32V4.76a2.46,2.46,0,0,1,1.61-.62c.83,0,1.5.43,1.5,2V9.22c0,1.16-.19,1.24-.63,1.32v.15c.32,0,.77,0,1.31,0s1,0,1.31,0v-.15C76.4,10.46,76.22,10.38,76.22,9.22Z"/></g></g></svg>