<svg xmlns="http://www.w3.org/2000/svg" viewBox="0 0 98.84 145.75"><title>Asset 566</title><g id="Layer_2" data-name="Layer 2"><g id="Layer_1-2" data-name="Layer 1"><path d="M36.43,38.94c-1.13-.14-2.82.21-4.42,2.71-1,1.58-1.43,1.78-2,2.06a6.44,6.44,0,0,0-.71.38l.61,1c.22-.13.42-.22.6-.31a4.14,4.14,0,0,0,1.71-1.35c1.69,4.1,4.21,3.8,6.26,3.54h.06a5.85,5.85,0,0,1,3.49.89c.46,1.54.77,2.8.77,2.82l1.14-.27c0-.09-.51-2.14-1.23-4.27C41.57,42.79,39.19,39.27,36.43,38.94Zm1.94,6.85h0c-2.11.26-3.93.48-5.31-3.54,1-1.57,2.12-2.3,3.28-2.16,2.19.27,4.21,3.35,5.21,6.19A6.31,6.31,0,0,0,38.37,45.79Zm28.46-4.14c-1.6-2.5-3.29-2.85-4.42-2.71-2.76.33-5.13,3.85-6.26,7.19-.72,2.13-1.21,4.18-1.23,4.27l1.14.27s.31-1.28.78-2.83A5.91,5.91,0,0,1,60.33,47h.05c2,.26,4.57.56,6.27-3.54a4.12,4.12,0,0,0,1.7,1.35c.19.09.38.18.6.31l.62-1a7.51,7.51,0,0,0-.72-.38C68.27,43.43,67.84,43.23,66.83,41.65ZM60.52,45.8h-.05a6.31,6.31,0,0,0-3.13.5c1-2.84,3-5.92,5.21-6.19,1.16-.15,2.27.59,3.28,2.16C64.45,46.28,62.63,46.06,60.52,45.8Zm35.89,1.76,2.43-.18-2.24-1a10.18,10.18,0,0,0-1-.33c-1.63-.44-4.28-1.16-8.42-5.17.31.06.62.1.93.14,1.76.24,3.59.5,6.42,3.48l.94,1,.07-1.36c.32-6.08-4.92-9.5-8.36-11.45,4,.63,6.65-.44,8.23-3.22l.54-1-1.1.09a11.37,11.37,0,0,1-8.91-3.17c0-.19.09-.38.13-.57a9,9,0,0,0-1-6.79,3.35,3.35,0,0,0-2.41-1.46c-2-.28-4.7.79-7.22,2.19,1.11-1.68,2.47-3.07,6.33-3.67l1.66-.26-1.46-.83a14,14,0,0,0-12.05-1.31A13.46,13.46,0,0,1,74.05,9a7,7,0,0,1,2.84-.92l1.83,0-1.5-1A13.59,13.59,0,0,0,67.06,5.48a13.48,13.48,0,0,0-5.51,3.28,58.1,58.1,0,0,1,4.39-7.3L67.1,0,65.31.54C63.84,1,56.1,4.78,52.64,9.66c-.4-1.47-.87-3.28-1-3.77a16.68,16.68,0,0,0-1.59-4.76L49.42.21l-.67.92a17,17,0,0,0-1.59,4.76c-.08.49-.56,2.3-.95,3.77C42.74,4.78,35,1,33.53.54L31.74,0,32.9,1.46a58.1,58.1,0,0,1,4.39,7.3c-1.54-1.37-3.59-2.89-5.5-3.28A13.68,13.68,0,0,0,21.62,7l-1.46,1L22,8.1A7,7,0,0,1,24.79,9,13.46,13.46,0,0,1,29,12.77a14,14,0,0,0-12,1.31l-1.47.83,1.67.26c3.85.6,5.21,2,6.32,3.67-2.51-1.4-5.21-2.47-7.21-2.19a3.36,3.36,0,0,0-2.42,1.46,9,9,0,0,0-1,6.79c0,.19.08.38.12.57A11.29,11.29,0,0,1,4,28.64l-1.1-.09.54,1c1.58,2.78,4.29,3.85,8.23,3.22C8.27,34.68,3,38.1,3.35,44.18l.07,1.36.94-1c2.84-3,4.66-3.24,6.42-3.48.31,0,.62-.08.93-.14-4.14,4-6.78,4.73-8.42,5.17a10.18,10.18,0,0,0-1,.33L0,47.38l2.43.18c1.11.08,2.17.12,3.2.12s2.11,0,3.1-.14a12.86,12.86,0,0,0-5.73,9,28.54,28.54,0,0,0-.06,9.15l.9,5.14.26-5.22a5.91,5.91,0,0,1,1.12-2.65,13.47,13.47,0,0,1,3.05-3.12A22.45,22.45,0,0,0,6,74.76l.22,1.17L7.05,75a9.82,9.82,0,0,0,1.37-2.65c.71-1.74,1.56-3.81,3.22-5.11-1.88,5-2.46,10.48-1,13.28l.7,1.37.39-1.48c1.09-4,3.3-7.1,7.2-9.94-2.16,3.22-5.1,8.76-3.59,13.29L15.7,85l.66-1.07C17.5,82,19.74,78.78,21.82,76a27.31,27.31,0,0,0-1.51,14.77l.5,2.31.64-2.27a24.78,24.78,0,0,1,3-6.38A9.65,9.65,0,0,0,24.93,89a43.44,43.44,0,0,0,3,5.17c0,.2.06.41.1.61.55,2.79,4.14,8.2,4.3,8.43l1.14,1.71-.07-2.06a12.32,12.32,0,0,1,.54-3.52,19.3,19.3,0,0,0,2.21,5.41c1.49,2.65,2.2,4,2.52,4.63.15.34.26.56.28.59L40,109.5s-.06-.14-.25-.54A9.8,9.8,0,0,1,39,103.5a23.37,23.37,0,0,0,5.57,8.73L46,113.62l-.47-2a30.83,30.83,0,0,1-.77-5.48,47.4,47.4,0,0,0,3.93,6.08l0,.06.2.16.41.55.16-.12.16.12.42-.55.2-.16-.05-.06a46.29,46.29,0,0,0,3.93-6.08,29.93,29.93,0,0,1-.77,5.48l-.47,2,1.45-1.39a23.53,23.53,0,0,0,5.56-8.73,9.9,9.9,0,0,1-.76,5.48c-.19.38-.24.51-.25.52l1.06.49a5,5,0,0,0,.29-.59c.32-.64,1-2,2.52-4.63a19.27,19.27,0,0,0,2.2-5.41,11.91,11.91,0,0,1,.54,3.52l-.07,2.06,1.15-1.71c.15-.23,3.74-5.64,4.29-8.43,0-.2.07-.41.1-.61a41.92,41.92,0,0,0,3-5.17,9.65,9.65,0,0,0,.45-4.61,25,25,0,0,1,3,6.38L78,93.06l.5-2.31A27.31,27.31,0,0,0,77,76c2.09,2.8,4.32,6.06,5.47,7.94L83.14,85l.4-1.19c1.51-4.53-1.43-10.07-3.59-13.29,3.91,2.84,6.11,5.91,7.2,9.94l.4,1.48.69-1.37c1.42-2.8.85-8.24-1-13.28,1.67,1.3,2.51,3.37,3.22,5.11A9.82,9.82,0,0,0,91.79,75l.79.89.23-1.17a22.44,22.44,0,0,0-2.24-14.94,13.56,13.56,0,0,1,3.06,3.12,6,6,0,0,1,1.11,2.65l.18,5.67,1-5.59a28.28,28.28,0,0,0-.05-9.13,12.92,12.92,0,0,0-5.74-9c1,.09,2,.14,3.1.14S95.31,47.64,96.41,47.56Zm-2.13-4.85a9.75,9.75,0,0,0-6.06-2.8A6.15,6.15,0,0,1,85,38.77a35.73,35.73,0,0,0-4.23-3.55,21,21,0,0,0,3.73.45h3l-2.82-1.13a13.41,13.41,0,0,1-2.89-2.22A8.32,8.32,0,0,0,83,31.19l.24.37a7.42,7.42,0,0,0,2.47,1.72C88.77,35,93.71,37.73,94.28,42.71ZM93.7,29.85c-1.85,2.17-5.06,2.45-9.78.85l-.4-.14a13.68,13.68,0,0,0,2-3.81A12.4,12.4,0,0,0,93.7,29.85ZM83,18a2.08,2.08,0,0,1,1,.79,7.82,7.82,0,0,1,.83,5.91A11.47,11.47,0,0,1,81,31.5c-.82-.8-1.77-1.8-2.86-3.05a32.76,32.76,0,0,0-3.95-4.05C75.31,22.55,79.27,16.81,83,18Zm-6.64,1.66a24.38,24.38,0,0,0-3.19,4.1A4.63,4.63,0,0,0,71.1,23c.83-.62,1.83-1.32,2.92-2C74.85,20.49,75.64,20,76.38,19.63ZM35,2.47c3,1.53,8.71,4.95,10.87,8.9a10.6,10.6,0,0,1,1.51,5.42,16.84,16.84,0,0,0,.19,2.1l1.16-.18a16.34,16.34,0,0,1-.18-2A11.55,11.55,0,0,0,47.05,11c.2-.74,1.13-4.17,1.27-4.94a16.15,16.15,0,0,1,1.1-3.65,16.15,16.15,0,0,1,1.1,3.65c.14.77,1.07,4.2,1.27,4.94a11.55,11.55,0,0,0-1.53,5.69,18.49,18.49,0,0,1-.17,2l1.15.18a16.84,16.84,0,0,0,.19-2.1,10.6,10.6,0,0,1,1.51-5.42C55.1,7.42,60.76,4,63.81,2.47,60.93,7,56,16.49,55,22v0c-.45,4.26-4.72,8-4.76,8.06h0a5.37,5.37,0,0,0-.79.58,7,7,0,0,0-.79-.58h0s-4.32-3.79-4.77-8.06v0C42.86,16.49,37.92,7,35,2.47ZM24.82,21c1.09.69,2.09,1.39,2.93,2a4.6,4.6,0,0,0-2.09.7,25,25,0,0,0-3.2-4.11C23.21,20,24,20.49,24.82,21Zm-10-2.26a2.08,2.08,0,0,1,1-.79c3.75-1.16,7.71,4.58,8.87,6.43a32.76,32.76,0,0,0-4,4.05c-1.09,1.25-2,2.25-2.86,3.05A11.52,11.52,0,0,1,14,24.68,7.89,7.89,0,0,1,14.81,18.76ZM5.14,29.85a12.35,12.35,0,0,0,8.18-3.1,13.7,13.7,0,0,0,2,3.81l-.41.14C10.2,32.3,7,32,5.14,29.85Zm5.48,10.06a9.75,9.75,0,0,0-6.06,2.8c.57-5,5.51-7.73,8.57-9.43a7.5,7.5,0,0,0,2.48-1.72l.23-.37A8.89,8.89,0,0,0,17,32.32a13.41,13.41,0,0,1-2.89,2.22l-2.81,1.13h3a21.16,21.16,0,0,0,3.74-.45,35,35,0,0,0-4.24,3.55A6.15,6.15,0,0,1,10.62,39.91Zm67.1,48.31a31.84,31.84,0,0,0-2.85-5.17c-1.29-2-2.68-3.79-3.9-5.39l-.64-.84-.93.71.64.84c.9,1.17,1.88,2.47,2.85,3.85h0c.25,1.23.74,4.77,0,6.28-.64,1.29-1.25,2.38-1.76,3.22A19.46,19.46,0,0,0,70,85.37l-1.1.42a18,18,0,0,1,.76,8.79c-.34,1.71-2.06,4.71-3.17,6.51A12.81,12.81,0,0,0,65.19,97a15.07,15.07,0,0,0-1.45-6.5L62.67,91c2.37,5.34,1.32,9.16-1,13.25l-.52.93a8.2,8.2,0,0,0-.65-3.49L60,100.47c-1.25-2.84-1.77-4-1.88-5.42L57,95.14c.13,1.61.67,2.83,2,5.8l.2.44c-.43,3.37-2.72,6.61-4.25,8.45.34-1.93.65-4.69.07-6.16a26.89,26.89,0,0,0-1.23-2.78,3.35,3.35,0,0,1-.45-1.62l-1.17.14a4.52,4.52,0,0,0,.57,2A21.29,21.29,0,0,1,53.79,104c-.09.31-.84,2.51-4.37,7.34-3.52-4.83-4.27-7-4.37-7.34a23.22,23.22,0,0,1,1.13-2.51,4.52,4.52,0,0,0,.57-2l-1.17-.14a3.25,3.25,0,0,1-.44,1.62,26.07,26.07,0,0,0-1.24,2.78c-.57,1.47-.26,4.23.07,6.16-1.53-1.84-3.81-5.08-4.24-8.45l.19-.44c1.3-3,1.84-4.19,2-5.8l-1.17-.09c-.11,1.41-.63,2.58-1.87,5.42l-.51,1.17a8.21,8.21,0,0,0-.66,3.49l-.52-.93c-2.31-4.09-3.36-7.91-1-13.25l-1.08-.48A15.07,15.07,0,0,0,33.65,97a13.33,13.33,0,0,0-1.31,4.12c-1.1-1.8-2.83-4.8-3.17-6.51a18,18,0,0,1,.76-8.79l-1.09-.42a19.32,19.32,0,0,0-1.1,6.35c-.5-.84-1.12-1.93-1.76-3.22-.75-1.51-.26-5,0-6.28h0c1-1.38,2-2.68,2.85-3.85l.64-.84-.93-.71-.64.84c-1.22,1.6-2.6,3.41-3.9,5.39a33,33,0,0,0-2.86,5.2c-.78-7.76,2.73-16.12,6.91-19a11.26,11.26,0,0,0,4.71-9,9.35,9.35,0,0,1,.54,4.45,8.65,8.65,0,0,0-.53,11.38,5.47,5.47,0,0,0-1.26,5.94,5.15,5.15,0,0,0,4.9,3h.11c-.26,2.52,2.15,4.81,4.9,5.67a35.53,35.53,0,0,0,7.18,1.63v0a5.35,5.35,0,0,0,.6,0h.5a5.13,5.13,0,0,0,.6,0v0a35.39,35.39,0,0,0,7.18-1.63c2.76-.86,5.16-3.15,4.9-5.67h.11a5.15,5.15,0,0,0,4.9-3,5.46,5.46,0,0,0-1.25-5.94,8.66,8.66,0,0,0-.54-11.38,9.4,9.4,0,0,1,.54-4.46,11.29,11.29,0,0,0,4.71,9C75.8,72.68,78.31,81.48,77.72,88.22ZM43.17,77.38c-8.42,1.11-8.67.32-9.28-1.58,0,0,0-.1,0-.15h0A4.17,4.17,0,0,1,35.1,72c1.27,1.57,3.64,2.69,6.73,3.14L42,74c-3.34-.49-5.78-1.83-6.52-3.59a2.2,2.2,0,0,1,.16-2.18c.74-1,4-.12,6.27.9A3.91,3.91,0,0,0,45,72.35l.83.2c2,.47,2.48.62,2.62,1.83a47.71,47.71,0,0,1,.07,6.69c-.95.94-3.75,2.49-11.93,2.85a4,4,0,0,1-4.06-2.32,4.25,4.25,0,0,1,.69-4.3c.69,1.24,1.81,1.77,4.2,1.77a47.49,47.49,0,0,0,5.88-.53ZM57,75.12c3.1-.45,5.47-1.57,6.74-3.14A4.19,4.19,0,0,1,65,75.64h0a.83.83,0,0,1,0,.15c-.6,1.9-.86,2.69-9.28,1.58l-.16,1.16a47.81,47.81,0,0,0,5.88.53c2.39,0,3.51-.53,4.2-1.77a4.23,4.23,0,0,1,.69,4.3,4,4,0,0,1-4.06,2.32c-8.17-.36-11-1.91-11.93-2.85a47.71,47.71,0,0,1,.07-6.69c.14-1.21.58-1.36,2.62-1.83l.83-.2a3.89,3.89,0,0,0,3.12-3.26c2.27-1,5.53-1.92,6.27-.9a2.18,2.18,0,0,1,.16,2.18c-.74,1.76-3.18,3.1-6.51,3.59Zm.09,14.53a29.92,29.92,0,0,1-7.68,1.63,29.72,29.72,0,0,1-7.67-1.63C39.4,88.92,37.33,87,37.68,85c7.54-.44,10.55-2,11.74-3.18,1.2,1.2,4.2,2.74,11.74,3.18C61.51,87,59.44,88.92,57.1,89.65ZM52,71.58c1.15-1.14,2.49-2.15,3.64-2.23h.07a2.73,2.73,0,0,1-2.15,1.87l-.81.19Zm4-3.63a.42.42,0,0,1-.39.23c-2.35.15-4.86,2.92-6.12,4.52-1.26-1.6-3.76-4.37-6.11-4.52a.43.43,0,0,1-.4-.23.63.63,0,0,1,.11-.62c.16-.22.68-.7,2.07-.5a8.72,8.72,0,0,1,3.47,1.49h1.72a8.77,8.77,0,0,1,3.48-1.49c1.38-.2,1.9.28,2.06.5A.61.61,0,0,1,55.93,68Zm-9.06,3.63-.74-.18-.82-.19a2.7,2.7,0,0,1-2.14-1.87h.06C44.39,69.43,45.72,70.44,46.87,71.58ZM93,46.52c-5.13,0-11.19-1.06-15.23-6.12l-.92.74a16.68,16.68,0,0,0,9.25,5.73v.05a12.14,12.14,0,0,1,8.62,9.82A25.28,25.28,0,0,1,95,63c-1-1.84-3.29-4.38-8.14-6.74C78,51.9,76.57,49.66,75.54,47l-1.1.42c1.3,3.41,3.42,5.75,11.91,9.88.67.32,1.28.65,1.84,1h0A21.23,21.23,0,0,1,91.91,72.9l-.4-1c-.89-2.19-2.12-5.17-5-6.46-1.51-3.38-3.6-6.38-6.06-8-5.77-3.83-6.24-8.67-6.25-8.72l-1.17.1c0,.22.5,5.43,6.77,9.6C82.44,60.23,85,64.19,86.54,69a21.22,21.22,0,0,1,1.17,9.32c-1.58-4.2-4.53-7.4-9.56-10.45-2.8-1.69-4.73-5.12-5.44-9.65l-1.15.18c.72,4.64,2.68,8.23,5.53,10.18.25.3,6.35,7.67,5.63,13.49-2.35-3.62-7.14-10.36-9-11.87h0a12,12,0,0,0-2.17-1.95c-4.64-3.2-4.24-8.93-4.17-9.69,3.31-3.33,5.9-6.86,2.81-12.66l-1,.55c2.55,4.8,1,7.65-2.86,11.54a7.76,7.76,0,0,0-1.91,5.43c-3-2.91-1.33-5.46-1.26-5.57l-1-.67s-2.4,3.55,1.54,7.22,3.44,7.35,2.48,9.41a6.62,6.62,0,0,0-1.74-2.91s0-.08,0-.12a3.31,3.31,0,0,0-.29-3.32c-.72-1-2.29-1.18-4.63-.56a5.66,5.66,0,0,0,.69-1.15c.76-1.73.54-3.81-.65-6.19-2-3.88-2.57-6.16-2-7.39.33-.72,1.12-1.21,2.57-1.59,3.46-.91,5.52-2.13,6.29-3.72l-1-.51c-.61,1.25-2.47,2.29-5.53,3.09C58,50,57,50.66,56.48,51.73c-.73,1.62-.14,4.05,2,8.39,1,2.05,1.24,3.8.63,5.19a4.74,4.74,0,0,1-2,2.14,1.88,1.88,0,0,0-.36-.82,3.23,3.23,0,0,0-3.17-1,12.12,12.12,0,0,0-4.17,1.79,12,12,0,0,0-4.17-1.79,3.24,3.24,0,0,0-3.17,1,1.86,1.86,0,0,0-.35.82,4.76,4.76,0,0,1-2-2.14c-.6-1.39-.39-3.14.63-5.19,2.18-4.34,2.77-6.77,2-8.39C41.88,50.66,40.85,50,39,49.48c-3.07-.8-4.93-1.84-5.54-3.09l-1,.51c.78,1.59,2.83,2.81,6.29,3.72,1.45.38,2.25.87,2.57,1.59.56,1.23-.06,3.51-2,7.39-1.19,2.38-1.41,4.46-.65,6.19a5.27,5.27,0,0,0,.7,1.15c-2.35-.62-3.91-.44-4.64.56a3.31,3.31,0,0,0-.29,3.32l.06.12a6.69,6.69,0,0,0-1.75,2.91c-.95-2.06-1.58-5.63,2.48-9.41s1.57-7.18,1.54-7.22l-1,.67s1.77,2.63-1.26,5.57A7.76,7.76,0,0,0,32.6,58c-3.89-3.89-5.41-6.74-2.86-11.54l-1-.55c-3.09,5.8-.49,9.33,2.81,12.66.08.77.48,6.49-4.17,9.69a11.63,11.63,0,0,0-2.16,1.95h0c-1.91,1.51-6.7,8.25-9.06,11.87-.72-5.82,5.38-13.18,5.63-13.49,2.85-2,4.81-5.54,5.54-10.18l-1.16-.18c-.71,4.53-2.64,8-5.43,9.65-5,3-8,6.25-9.57,10.45A21.37,21.37,0,0,1,12.3,69c1.57-4.84,4.1-8.8,6.78-10.58,6.27-4.17,6.75-9.38,6.77-9.6l-1.17-.1s-.48,4.89-6.25,8.72c-2.45,1.64-4.55,4.64-6.06,8-2.92,1.29-4.14,4.27-5,6.46-.13.33-.27.65-.39,1a21.18,21.18,0,0,1,3.72-14.65h0c.56-.32,1.17-.65,1.84-1C21,53.15,23.1,50.8,24.4,47.39L23.31,47c-1,2.69-2.45,4.93-11.33,9.24C7.12,58.57,4.87,61.11,3.83,63a25.86,25.86,0,0,1,.32-6.22,12,12,0,0,1,8.62-9.81v-.05A16.64,16.64,0,0,0,22,41.14l-.91-.74C17,45.49,10.91,46.53,5.77,46.52c1.91-.79,4.56-2.38,8.05-6.05.26-.27.52-.54.78-.79l.17-.14v0a33.62,33.62,0,0,1,8.38-6l.08,0h0a22.47,22.47,0,0,1,3.13-1.32L26,31.09a23.77,23.77,0,0,0-3.61,1.52,22.19,22.19,0,0,1-5.86,1.69,43.19,43.19,0,0,0,5.09-5.08c2.6-3,4.44-4.95,6.25-5,1.15-.05,2.41.64,4.09,2.23,4.39,4.19,7.78,2.93,7.93,2.88l-.43-1.09s-2.84,1-6.69-2.64a13.45,13.45,0,0,0-2.05-1.65l0,0a54.09,54.09,0,0,0-5-3.67c-.25-.37-.49-.76-.72-1.13a8.89,8.89,0,0,0-6-4.72,12.92,12.92,0,0,1,7.66-1,10.79,10.79,0,0,1,3.64,1.34c.12.19.23.39.35.59,4.2,7.47,6.46,9.44,11,12.46l.65-1c-4.44-3-6.51-4.79-10.61-12.07-2.83-5-6-6.79-8-7.43a13.42,13.42,0,0,1,7.84-.64c3.23.67,7.24,5.3,7.28,5.35l.05-.05a46.71,46.71,0,0,1,3.83,10.29c.33,3,2.31,5.75,3.72,7.34a4.11,4.11,0,0,0-2.1.71,17,17,0,0,1-5.64,2.14c-3,.71-5.76,1.39-6,5.43l1.17.07c.19-3.17,2.15-3.65,5.11-4.36a18,18,0,0,0,6-2.3c2.39-1.57,4.19.87,4.27,1h.37c.07-.11,1.86-2.56,4.26-1a17.93,17.93,0,0,0,6,2.3c3,.71,4.91,1.19,5.11,4.36l1.17-.07c-.25-4-3-4.72-6-5.43a17,17,0,0,1-5.64-2.14,4.08,4.08,0,0,0-2.09-.71c1.41-1.59,3.38-4.3,3.72-7.34A46.11,46.11,0,0,1,60,11.93L60,12c0-.05,4-4.68,7.27-5.35a13.41,13.41,0,0,1,7.84.64c-1.93.64-5.13,2.42-8,7.43C63.07,22,61,23.79,56.56,26.77l.65,1c4.52-3,6.78-5,11-12.46l.34-.59a12.26,12.26,0,0,1,11.3-.33,8.87,8.87,0,0,0-6,4.72c-.23.37-.47.76-.73,1.13a57.44,57.44,0,0,0-5,3.67l0,0a13.58,13.58,0,0,0-2.05,1.65c-3.82,3.64-6.58,2.68-6.7,2.63L59,29.3c.14.05,3.53,1.31,7.92-2.88,1.68-1.59,2.94-2.28,4.09-2.23,1.81.08,3.65,2,6.26,5A42.55,42.55,0,0,0,82.3,34.3a22.14,22.14,0,0,1-5.85-1.69,24.1,24.1,0,0,0-3.62-1.52l-.33,1.12a22.7,22.7,0,0,1,3.12,1.32h0l.08,0a33.44,33.44,0,0,1,8.38,6v0l.17.14c.26.25.52.52.78.79,3.49,3.67,6.15,5.26,8,6.05Z"/><path d="M40.7,144.69h3.65v.9H39.63v-8.36H40.7Zm6.2-3h3.16v-.9H46.9v-2.61h3.74v-.91H45.83v8.36h4.94v-.9H46.9Zm12.31-.28c0,2.69-1.48,4.38-3.58,4.38s-3.57-1.69-3.57-4.38,1.47-4.29,3.57-4.29S59.21,138.71,59.21,141.37Zm-1.11,0c0-2.07-1-3.35-2.47-3.35s-2.46,1.28-2.46,3.35,1,3.43,2.46,3.43S58.1,143.46,58.1,141.37Z"/></g></g></svg>