<svg xmlns="http://www.w3.org/2000/svg" viewBox="0 0 87.6 99.27"><defs><style>.cls-1{fill:#fbb03b;}</style></defs><title>Asset 521</title><g id="Layer_2" data-name="Layer 2"><g id="Layer_1-2" data-name="Layer 1"><path d="M24.35,34.07c-.2.11-.47,0-.47-.1s-.16-.18-.34-.27c-.4-.21-.38-.43,0-.69s.32-.17.46,0,.17.18.37.06.26-.11.34,0S24.61,33.92,24.35,34.07Zm-2.59-1.68a.34.34,0,0,0,.56,0c.17-.17.17-.38,0-.48S21.69,32.2,21.76,32.39Zm-1-1.1a.27.27,0,0,0,.44.1.42.42,0,0,0,0-.53C21,30.75,20.67,31.09,20.74,31.29ZM85.58,61.85c.14-.18.13-.18,0,0s-.19.16-.19.19S85.44,62,85.58,61.85ZM44.91,40.26c-.08-.21-.39-.21-1.13,0s-.91.37-.91.71.39.33.46.12a1.57,1.57,0,0,1,.69-.24C44.74,40.7,45,40.53,44.91,40.26Zm-5.36-2.77c-.43,0-.43.32,0,.43a3.69,3.69,0,0,1,1,.8c.74.75.87.82,1.09.56S40.18,37.43,39.55,37.49Zm2.56.42c-.18.1-.22.21-.2.52s.29.59.5.33C42.81,38.28,42.59,37.65,42.11,37.91Zm2.75,4.24c0,.2.47.31.57.15a.33.33,0,0,0-.08-.29C45.19,41.79,44.81,41.89,44.86,42.15ZM45.71,33a.45.45,0,0,0-.45-.45c-.23,0-.27.32-.07.52S45.71,33.24,45.71,33Zm-6.58,9.6a.33.33,0,0,0,.51.14.4.4,0,0,0-.1-.55A.33.33,0,0,0,39.13,42.61Zm5.07-5A.8.8,0,0,1,44,38a2.12,2.12,0,0,0-.55,1.07.8.8,0,0,1-.27.46c-.31.3-.36.61-.1.7s.19.1.32-.1a2.33,2.33,0,0,1,.71-.41c.79-.32.87-.38.87-.63s-.25-.27-.7-.1c-.22.08-.28.07-.28-.06s.42-.47.92-.52.72-.3.53-.6-.08-.23.09-.33a.31.31,0,0,0,0-.56c-.12-.11-.27-.07-.73.18S44.23,37.5,44.2,37.63ZM45,41c0,.15.07.21.25.21a.62.62,0,0,0,.33-.07c.12-.12.08-.45-.06-.5A.42.42,0,0,0,45,41Zm-5.7-5.14a2.14,2.14,0,0,1,.73.45l.55.45.08-.69c.11-.84.38-1.19.92-1.19s.46-.07,0-1.41a7.76,7.76,0,0,1-.32-1.3c0-.22,0-.25.24-.19.85.24,1.35.15.63-.12-.43-.17-.41-.34.06-.54s.42-.37,0-.37a.92.92,0,0,1-.45-.17c-.29-.21-.1-.41.57-.58.5-.13.56-.12.93.11s.51.58.06.74-.34.33,0,.33.38.24.07.49a.76.76,0,0,0-.29.48.36.36,0,0,1-.16.31.25.25,0,0,0-.16.22c0,.12.11.06.38-.17s.45-.31.53-.28a.37.37,0,0,1,.15.58,5.29,5.29,0,0,0-.63,1.3,3.13,3.13,0,0,1-.77,1.12c-.2.15-.2.17,0,.57a1.32,1.32,0,0,0,.26.41s.1-.17.13-.38a1.21,1.21,0,0,1,1.47-1.1c.43.14.39,2-.06,2.33A1.43,1.43,0,0,1,42.84,37l-.19-.23-.23.24a1,1,0,0,1-1,.38c-.17,0-.21,0-.16.11a.57.57,0,0,1,0,.34c-.11.27-.23.2-.85-.49a6.65,6.65,0,0,0-1-.93C39,36.14,38.92,35.83,39.25,35.83Zm4.28.56c0,.11,0,.21.1.21s.36-.31.29-.43S43.53,36.16,43.53,36.39Zm-1.64-3.51c0,.06.1.11.23.11s.19-.05.15-.11a.26.26,0,0,0-.22-.11C42,32.77,41.89,32.82,41.89,32.88Zm-.52,3.46a.31.31,0,0,0,.23.24c.15,0,.19,0,.16-.16a.31.31,0,0,0-.23-.24C41.38,36.15,41.34,36.2,41.37,36.34Zm4.11,3.72a.35.35,0,0,0,0-.51c-.08-.13-.13-.13-.27,0a.53.53,0,0,0-.17.33A.24.24,0,0,0,45.48,40.06Zm.88-3.44c.09-.17.07-.25,0-.35s-.51-.05-.47.24S46.21,36.89,46.36,36.62ZM44,79.27a.49.49,0,0,1-.12-.69c.06-.07,0-.28-.17-.56l-.27-.45-.68.06a1.68,1.68,0,0,0-.76.18c-.14.22-.08.37.22.48s.27.11.07.12-.41.16-.52.51c-.05.17,0,.31.19.49s.24.29.14.45-.07.27.08.53.17.36.06.49c-.31.38.57.68,1.35.45.36-.1.41-.15.38-.39s-.1-.3-.33-.34l-.31,0,.44-.46C44.24,79.57,44.27,79.46,44,79.27Zm-1,2.6c-.41.08-.54.29-.34.53s.18.18.63.09.43-.33.22-.53A.52.52,0,0,0,43,81.87Zm1.38-15.08a9.27,9.27,0,0,0-3.11,0c0,.08.2.14.64.19,1.28.13,2.65.29,3,.34a.63.63,0,0,0,.46-.08C45.67,67,45.5,66.86,44.38,66.79ZM43.15,87.71a1.18,1.18,0,0,1-.89,0c-.56-.15-.78-.09-.56.17a1.85,1.85,0,0,0,1.79.36c.3-.12.4-.39.2-.55S43.45,87.61,43.15,87.71Zm1.92-14.63c-.15.12-.23.27-.19.37s-.05.25-.22.37-.25.26-.17.42c.2.36-.1.59-.79.62A2.24,2.24,0,0,0,43,75a1.18,1.18,0,0,1-1-.1c-.12-.15-.11-.2.06-.33s.19-.15-.09-.26-.29-.16-.23-.33,0-.29-.19-.44-.25-.22,0-.38a1.37,1.37,0,0,1,1.16.06,2.46,2.46,0,0,0,1.42-.34,2.09,2.09,0,0,1,.68-.25C45.28,72.49,45.45,72.77,45.07,73.08Zm-1.25,1a1.3,1.3,0,0,1-.52-.24.61.61,0,0,0-.51-.15c-.18.06-.18.08,0,.21a.36.36,0,0,1,.12.43c-.08.32.07.38.28.12a1.14,1.14,0,0,1,.48-.26C43.87,74.11,43.93,74.07,43.82,74.06Zm-.86-6a2.13,2.13,0,0,0,1,.11.42.42,0,0,0,.08-.23c0-.1-.18-.14-.6-.14C42.89,67.83,42.59,68,43,68.09Zm-.3,20.58c-.49-.1-.6-.1-.75,0s-.17.26.57.46.77.19.93,0S43.37,88.82,42.66,88.67Zm.82-13.47a2.61,2.61,0,0,1-.69,0c-.35,0-.46,0-.46.16,0,.32.73.64,1.19.51a.79.79,0,0,0,.38-.25A.34.34,0,0,0,43.48,75.2Zm2.93-41.6c.06-.17-.19-.5-.38-.5s-.24.32-.1.5S46.33,33.8,46.41,33.6Zm.81,14.52c-.21,0-6-.19-7.28-.18-.5,0-.74.1-.59.25a23.25,23.25,0,0,0,4.89.3A16.06,16.06,0,0,1,46,48.4a4,4,0,0,0,1.45-.12C47.46,48.22,47.35,48.15,47.22,48.12Zm-15,46.74c-.24-.09-.75.4-.65.64s.15.21.53,0h0C32.43,95.32,32.49,95,32.21,94.86ZM43.34,85c.44-.17.49-.31.26-.62s-.16-.19-.48,0a2.26,2.26,0,0,1-.7.18,1.22,1.22,0,0,0-.53.1c-.14.09-.14.12,0,.26A1.73,1.73,0,0,0,43.34,85Zm-.79,7.27c-.49-.41-.81-.41-1,0a.48.48,0,0,0,0,.54c.08.13.18.23.22.23a1.14,1.14,0,0,1,.31.38c.25.4.59.51.7.22h0a.77.77,0,0,0-.06-.43c-.1-.21-.09-.31,0-.45S42.88,92.55,42.55,92.27Zm.4-6.78a2.08,2.08,0,0,1-.65.13c-.34,0-.47.18-.29.39a1.74,1.74,0,0,0,1.21.09.42.42,0,0,0,.21-.62C43.34,85.4,43.21,85.4,43,85.49Zm-1.45,8a.64.64,0,0,0-.43-.14c-.17.06,0,.32.42.94a1.1,1.1,0,0,1,.27.53c0,.08-.18,0-.35-.27-.3-.39-.63-.51-.78-.28,0,.06.11.37.32.68a2.13,2.13,0,0,1,.4.87c0,.22,0,.3.21.3a.38.38,0,0,0,.29-.13,1.05,1.05,0,0,0,.06-.48c0-.27,0-.36.2-.41C42.6,95,42.21,94,41.5,93.48Zm1.73-6.55c.45-.24.49-.33.24-.55s-.25-.1-.67.11-.55.22-.87.11c-.57-.18-.72,0-.24.33A1.52,1.52,0,0,0,43.23,86.93Zm2.61-48.48a.46.46,0,0,0-.45.46c0,.22.17.25.46.08S46.1,38.45,45.84,38.45Zm7.7-8.72c.11-.17.1-.24,0-.35a.33.33,0,0,0-.53.3C53,30,53.38,30,53.54,29.73ZM33,29.93a.8.8,0,0,1,.35-.36c.34-.17.4-.46.12-.61s-1,.23-1.07.61S32.86,30.39,33,29.93Zm-2.42,2c-.05.2.17.53.36.53a.56.56,0,0,0,.27-.18c.1-.1.16-.25.12-.33s.05-.2.16-.26a.42.42,0,0,0,.22-.34c0-.16.05-.2.2-.15.36.11.51-.21.35-.74s-.37-1-.57-1-.36.28-.21.46.27.94.16.94-.18-.15-.28-.33-.61-.47-.5-.19c.29.77.09,1-.24.24-.13-.3-.28-.49-.36-.45s-.13.45.15,1.1A1.73,1.73,0,0,1,30.61,31.92ZM54.34,30.6c.18-.35.14-.66-.11-.66s-.44.3-.44.64S54.18,30.89,54.34,30.6Zm.18,1a.47.47,0,0,1,.32.2c.12.16.17.17.38,0s.23-.12.2.33,0,.48.15.51.23-.07.31-.28c.24-.65.25-.88,0-1a.32.32,0,0,1-.23-.28c0-.19,0-.23-.3-.21,0,0-.11-.1-.14-.24-.09-.39-.4-.37-.65,0S54.27,31.57,54.52,31.57Zm32.9,33.8c-.23.07-.54-.1-.54-.31a2.55,2.55,0,0,0-.23-.58c-.25-.51-.53-.63-.53-.22a.83.83,0,0,1-.15.44c-.11.16-.16.17-.26,0a1.08,1.08,0,0,1-.16-.42c0-.27,0-.27-1.24-.29l-1.45,0a1.65,1.65,0,0,1-.6-.19,11.37,11.37,0,0,0-4.77,0,10.51,10.51,0,0,1-1.58.33c-.54.06-1.27.17-1.61.24a11,11,0,0,1-4.51-.61l-.65-.27-.82-.38a4.2,4.2,0,0,0-.71-.29,7,7,0,0,1-1-.54c-.5-.3-1.24-.73-1.64-.95a12.31,12.31,0,0,1-2.82-2.06A3.42,3.42,0,0,0,61,58.43a4.81,4.81,0,0,1-1.89-1.84c-.21-.31-.53-.75-.7-1a12.26,12.26,0,0,1-1.23-2.49.82.82,0,0,0-.21-.38.53.53,0,0,1-.16-.37,1.45,1.45,0,0,0-.27-.64,5.38,5.38,0,0,1-.51-1.54c-.23-1.1-.25-1.14-.52-1.13A1,1,0,0,1,55.1,49c-.15-.06-.17.08-.12,1.22s.05,1.28.42,1.72.37.49.31.84a1,1,0,0,0,.2.79,3.39,3.39,0,0,1,.39,1.12,15.71,15.71,0,0,0,.45,1.71,7.82,7.82,0,0,1,.32,1.15,2.65,2.65,0,0,0,.39.76c.37.55.38.58.16.64s-.28.21.08.54c.77.71.73.61.42.85s-.26.27-.18.68a1.2,1.2,0,0,0,.4.73c.25.22.29.3.18.41s-.21.12-.49,0-.37-.11-.55.11a1.09,1.09,0,0,0-.19.33,3.57,3.57,0,0,0,.8.45,3.93,3.93,0,0,1,1.08.71,2.49,2.49,0,0,0,1.09.63,8.69,8.69,0,0,1,1.07.46,8.11,8.11,0,0,0,.79.44A5.11,5.11,0,0,1,63.79,67a1.78,1.78,0,0,0,.74.61c.38.18.52.3.49.44s-.13.18-.39.16c-.69-.05-.25.52.68.9.46.19.66.32.66.46s-.1.21-.39.23-.38,0-.34.45.09.44.44.59A15.26,15.26,0,0,1,67.76,72a1.18,1.18,0,0,0,.67.2,2.43,2.43,0,0,1,1.67,1.1,5.27,5.27,0,0,0,.58.79,1.79,1.79,0,0,1,.37.52c0,.05.19.13.43.17.64.1,1.36,1,.87,1-.19,0-.14.14.41.87a16.81,16.81,0,0,1,2.39,4.14,4.34,4.34,0,0,1,.39,1.87A7.94,7.94,0,0,1,75.48,84c-.07.31-.12.35-.37.32s-.3-.09-.42-.93-.42-1.59-.75-1.63-.51.14-.59.88a1.82,1.82,0,0,1-.28.94c-.25.28-.33.28-.6,0s-.28-.61-.06-1.17a5.92,5.92,0,0,0,.21-1.45c0-.93,0-1.08-.22-1.49s-.53-.66-.65-.47-.18.1-.33.1-.34-.19-.16-.53c.08-.15,0-.25-.25-.46-.53-.42-.59-.44-.76-.27a.84.84,0,0,1-.36.19c-.18,0-.21,0-.19-.41s0-.49-.53-.93c-.31-.26-.72-.63-.91-.82a1.72,1.72,0,0,0-.61-.42,8.42,8.42,0,0,1-3.54-2.9,2.72,2.72,0,0,0-.75-.81,2.74,2.74,0,0,1-.79-.75,6.46,6.46,0,0,0-1.37-1.22c-1.76-1.17-2-1.32-2.3-1.47a7.6,7.6,0,0,1-2.08-2.21,5.51,5.51,0,0,0-.77-1,.82.82,0,0,1-.29-.47c-.26-.85-.43-1.12-.65-1.06s-.34-.08-.64-.38a1.4,1.4,0,0,1-.51-1c-.05-.29-.15-.87-.23-1.29A18,18,0,0,1,53.58,58a11.27,11.27,0,0,0-.16-2.68,5.35,5.35,0,0,1-.17-1.27c0-.54,0-.76-.18-.87a2.39,2.39,0,0,1-.43-.71,3,3,0,0,0-.35-.63c-.42-.26-.33,2.09.13,3.24.35.86.35.93,0,1.08s-.32.15-.12,1.22a9.57,9.57,0,0,1-.23,3.88,1.63,1.63,0,0,0-.15.93,5.21,5.21,0,0,1-.14,1.21c-.09.3-.25,1-.35,1.48-.19,1-.38,1.31-.75,1.31-.19,0-.27.14-.48.84-.76,2.6-.86,2.81-1.49,3.15-.33.18-.39.32-.93,2a10.05,10.05,0,0,1-1.49,3.48c-.46.65-.48.71-.41,1.22s0,.56-.21.68-.32.1-.45,0-.21-.09.09.51c.87,1.72.89,1.83.49,3.29A8.12,8.12,0,0,1,45.2,83l-.27.39.22.5c.47,1.1.54,2.13.35,4.78-.09,1.35-.38,2.16-.86,2.39s-.4.25-.18.48.19.35.13,1.13a5.48,5.48,0,0,1-.22,1.28c-.09.21-.42,1-.73,1.85a6.87,6.87,0,0,1-1,2A2.93,2.93,0,0,1,41,99a3,3,0,0,1-2.2.16,1.82,1.82,0,0,1-.53-.54l-.26-.4-.41.36a2.68,2.68,0,0,1-2.05.57c-1.91-.27-4.86-1.3-5.4-1.88a4,4,0,0,1-.95-1.36c0-.18-.09-.21-.54-.21A2.09,2.09,0,0,1,27.11,95a2.28,2.28,0,0,0-.47-.35,18.94,18.94,0,0,1-2-2.19,4.23,4.23,0,0,1-.47-.9,1.47,1.47,0,0,0-.4-.63.38.38,0,0,1-.2-.25c0-.08-.19-.29-.41-.47-.88-.71-1.58-2.6-1.85-5a2.08,2.08,0,0,1,.08-.86c.12-.29.12-.35,0-.39-.33-.11-.62-.58-.88-1.4a5.57,5.57,0,0,1,.64-4.79,4.35,4.35,0,0,1,2.43-1.71,10.6,10.6,0,0,0,2.62-1.26A2.05,2.05,0,0,0,26.13,72a6.44,6.44,0,0,0-3-.78c-.92,0-1.23-.11-1.23-.22s.16-.15.52-.15a1.55,1.55,0,0,0,.74-.15,1.76,1.76,0,0,1,1.41-.17,8.39,8.39,0,0,0,1,.15A4.12,4.12,0,0,1,27.76,72a3.14,3.14,0,0,1,.69,2.18,6.6,6.6,0,0,1-.57,1.34,5.45,5.45,0,0,0-.44.9A2.75,2.75,0,0,1,27,77a3.49,3.49,0,0,0-.56.84,3,3,0,0,0-.15,1.72A2.51,2.51,0,0,1,26.18,81a2.19,2.19,0,0,1-.94,1.33,4.4,4.4,0,0,1-1.47.85,3.62,3.62,0,0,0-.77.33,7.52,7.52,0,0,0,.81.74,7.4,7.4,0,0,1,1.13,1.14A7.5,7.5,0,0,1,26,88.16c0,.44.12.62.74,1.42.39.5.8,1.06.92,1.24a8.22,8.22,0,0,0,.6.82,19.16,19.16,0,0,1,1.65,2.15c.08.17.18.23.29.18a4.25,4.25,0,0,1,3.22.24,15,15,0,0,0,3.12,1c.33,0,.42-.06.66-.46a9.88,9.88,0,0,1,1.14-1.33,11.63,11.63,0,0,0,2-2.52,2.34,2.34,0,0,0-.27-.63,4.09,4.09,0,0,1-.4-1.84c-.22-2.53.07-3.88,1-4.81a2,2,0,0,0,.52-.7c0-.22-.42-.92-.55-.92a1.22,1.22,0,0,1-.31-.48A7.19,7.19,0,0,1,40.29,78c.24-.45.23-.57,0-.57s-.37-.31,0-1l.3-.63-.44-.76c-.24-.41-.56-1-.72-1.32a17.74,17.74,0,0,1-1.16-3.5.47.47,0,0,0-.28-.46c-.32-.17-.7-.92-1.15-2.29-.65-2-.94-2.65-1.15-2.76s-.34-.26-.53-.93a8.93,8.93,0,0,1-.2-2c0-1.38,0-1.39-.29-1.45l-.28-.06,0-2.4c-.07-4.36-.05-5,.14-5.54a2.42,2.42,0,0,0,.15-.82,7.08,7.08,0,0,1,.29-2,4,4,0,0,0,.39-1.48,16.23,16.23,0,0,0-1.3,2.53,2,2,0,0,1-.55.73,1.1,1.1,0,0,0-.4.59,3.49,3.49,0,0,1-.24.76,1.88,1.88,0,0,0,0,1.2A16.47,16.47,0,0,1,33,58.13a3.11,3.11,0,0,0,.1,1.67c.13.47.25.9.28.94a2,2,0,0,1-.07.63c-.13.6-.4.89-.84.89-.15,0-.25.06-.25.18a1.89,1.89,0,0,1-.81,1.47,9.07,9.07,0,0,0-1,1,6.46,6.46,0,0,1-2.12,1.68,3.45,3.45,0,0,1-.62.23,13,13,0,0,0-1.26.66c-.85.47-1.24.63-1.43.59s-.25,0-.25.09-.14.21-.3.27a10.73,10.73,0,0,1-1.39.42,1.3,1.3,0,0,0-.38.13c-2,.93-2.11,1-3.12,1l-2.38.07-1.41,0-.61.54A3.84,3.84,0,0,0,13.73,73a1.34,1.34,0,0,0,.43,1.44,1,1,0,0,1,.32.46c0,.38-.93.54-1.22.2a2.3,2.3,0,0,1-.3-.55c-.08-.19-.19-.35-.24-.35-.21,0-.21.32,0,.94a2.14,2.14,0,0,1,.17.71s-.2.11-.38.15c-.66.15-1.2-.73-1.21-2a3.51,3.51,0,0,1,.39-1.68,5.94,5.94,0,0,0,.39-1.07,3.66,3.66,0,0,1,1.13-1.5A3.24,3.24,0,0,1,14.89,69a1.89,1.89,0,0,0,.68-.27l.23-.2-.35-.26c-.52-.41-.36-.54.34-.31A3.27,3.27,0,0,0,18,68l.25-.18L18,67.54l-.25-.27.44,0c.72,0,1-.23.37-.43s-.35-.32.64-.32a4.18,4.18,0,0,0,1.59-.23,4.92,4.92,0,0,1,2-.23H24.1l.23-.48a1.38,1.38,0,0,1,.63-.67l.39-.2-.3-.11c-.41-.15-.38-.23.14-.44.24-.1.43-.24.43-.33S25,63.17,24.55,63s-.48-.37-.1-.29l.94.2c.66.14.71.14,1.13-.1a12.29,12.29,0,0,1,1.53-.63c1.38-.47,1.64-.61,2.1-1.1l.37-.39-.24-.38a.73.73,0,0,0-.62-.43,1,1,0,0,1-.47-.14c-.13-.12,0-.33.21-.33.39,0,0-.73-.48-.89l-.39-.12.36-.3.37-.29,0-1.57a10,10,0,0,1,.15-1.76,2.28,2.28,0,0,0,.1-.78,2.72,2.72,0,0,1,.39-1.37c.43-.86.74-1.16,1.38-1.34.35-.09.42-.15.36-.3a3.25,3.25,0,0,1-.43-2.05l.07-.78L31,47.81c-.4-.06-.58.09-1,.84a8.06,8.06,0,0,0-.59,2.74,4.81,4.81,0,0,1-.88,2.68,7.8,7.8,0,0,0-1.08,2.13c-.4,1.06-.42,1.09-.84,1.09s-1.11.35-2.13,1.2a6,6,0,0,1-3.56,1.59,5.69,5.69,0,0,0-1.79.82c-1.2.72-1.34.77-1.52.6s-.5.09-1.14.4a5.46,5.46,0,0,1-1.36.51,24.23,24.23,0,0,1-3.17-.29,2,2,0,0,0-1.48.09,1.38,1.38,0,0,1-.7.12c-.19-.07-.19-.09,0-.34l.24-.27-.26,0c-1.53-.32-1.72-.33-2.28-.13s-.94.11-.55-.31.12-.46-.34-.18c-.64.39-.92.26-.57-.26.22-.35.08-.42-.75-.41a3.16,3.16,0,0,0-2.9,1.73c-.21.42-.26.45-.53.38s-.31-.13-.36-.75-.22-1-.49-.8a.69.69,0,0,0-.17.46c0,.28,0,.31-.38.31-.51,0-.57-.2-.25-.84s.86-1,2.06-1.47c2.59-.94,4.36-1.19,5.67-.82a11.86,11.86,0,0,0,1.8.29c.65.07,1.23.15,1.27.17a3.11,3.11,0,0,0,.88-.12,4.11,4.11,0,0,1,1.95,0c.63.1,1.38.22,1.67.28,1,.2,1.2.15,1.49-.39s.26-.49.08-.69-.23-.35.41-.35,1.15-.17,1.15-.33a.42.42,0,0,0-.16-.21c-.31-.26-.18-.36.38-.28s.71-.05.1-.45-.39-.5.34-.36.85.13,1.23-.24a4.52,4.52,0,0,1,1.06-.68,3.23,3.23,0,0,1,1.8-.36c1.07,0,1.1,0,1.24-.3s.12-.45-.28-.54-.62-.24-.52-.4.2-.11.39-.07a.63.63,0,0,0,.62-.2c.37-.32.31-.39-.71-.71a2.45,2.45,0,0,1-.79-.34,1.52,1.52,0,0,1,.74-.1,3.27,3.27,0,0,0,.86-.08,1.85,1.85,0,0,0,.31-1.1.78.78,0,0,0-.3-.1c-.39-.06-.48-.23-.18-.34a3.41,3.41,0,0,0,1.29-1.49,3,3,0,0,1,1.3-1.44A1.68,1.68,0,0,0,28,47c.17-.27.39-.5.51-.52s.25-.18.34-.53a5.22,5.22,0,0,1,.43-1c.28-.5.23-.46-.71.53-1.46,1.54-3.22,2.7-4.11,2.7a3,3,0,0,0-1,.26,8.52,8.52,0,0,1-3.94.67,7.46,7.46,0,0,1-2.4-.24,8.61,8.61,0,0,0-1.69-.3,5.49,5.49,0,0,1-1.25-.22A4.54,4.54,0,0,0,12.69,48c-.49,0-1.29-.57-2.5-1.77a11,11,0,0,0-1.53-1.34c-.4-.21-.52-.43-.28-.51.08,0,0-.23-.19-.53s-.34-.54-.37-.6l-.36-.63c-.26-.42-.37-.51-.63-.51A1.21,1.21,0,0,1,6.32,42a3.33,3.33,0,0,0-.49-.22c-.46-.16-.36-.33.2-.33s.58-.21-.32-.54c-.73-.27-.88-.47-.39-.53s.55-.1.3-.54-.43-.6-.65-.39a1.92,1.92,0,0,1-1,.2c-1.17.06-1.76.47-1.76,1.23,0,.24-.06.35-.17.35-.29,0-.6-.41-.6-.82s0-.38-.23-.38a.48.48,0,0,0-.37.19c-.12.16-.18.17-.44,0S.16,40,.21,39.7a4.29,4.29,0,0,1,.26-.79c.18-.35.31-.44,1.05-.72l.86-.33L3.44,38l1.65.22a5.31,5.31,0,0,1,.82.17A12.12,12.12,0,0,1,9,40.92a1,1,0,0,0,.43.38,1.58,1.58,0,0,1,.61.66,7.55,7.55,0,0,0,1.73,1.71,7.23,7.23,0,0,1,1.74,1.72c.29.53.31.54.75.52a1.64,1.64,0,0,0,.52-.08c.09-.09-.2-.38-.65-.63a1.23,1.23,0,0,1-.42-.32c0-.16.43-.1.85.11a2.05,2.05,0,0,0,1.44.24c.2-.13,0-.36-.6-.75s-.28-.41.89,0,1.41.47,1.5.23.57-.21,1,0a7.24,7.24,0,0,0,1.34.16,5.05,5.05,0,0,1,1.16.14,5.28,5.28,0,0,0,2.47.68.87.87,0,0,0,.19-.47c.06-.35,0-.41-.22-.5-.48-.19-.42-.32.17-.4a3.09,3.09,0,0,0,.66-.13c.15-.09-.14-.34-.47-.41-.18,0-.32-.12-.32-.17s.18-.13,1.13-.26c.61-.08.73-.24.39-.51L25,42.59l.46,0c.42,0,.56,0,1.52-.62a4.91,4.91,0,0,0,2.06-2.08l.18-.42-.29.07a6.58,6.58,0,0,0-.79.3c-.41.2-.54.22-.83.11a1.56,1.56,0,0,0-1.31.24,5.85,5.85,0,0,1-2.53.8,3.1,3.1,0,0,0-1,.19c-.48.39-2.08,1-2.08.76s.25-.47.54-.59.33-.2.33-.28-.41-.19-.76,0c-.55.31-1,.09-.6-.27s0-.5-.64-.26-.83.14-.91-.19c0-.14-.3-.34-.68-.53a13.82,13.82,0,0,1-3-2,7.65,7.65,0,0,0-.72-.61,2.87,2.87,0,0,1-.62-.64,5,5,0,0,0-.87-.89,4,4,0,0,1-1.44-2l-.18-.6-1,0-1.38,0c-.57,0-.85.3-.85.93s0,.55-.48.39c-.24-.1-.28-.18-.28-.6s-.15-.76-.25-.39c0,.12-.13.22-.22.22s-.51-.4-.51-.62A3.56,3.56,0,0,1,7,31.63a4.23,4.23,0,0,1,2.34,0,1.23,1.23,0,0,0,.65.1,1.61,1.61,0,0,1,1.25.55,2,2,0,0,0,.68.46,4.31,4.31,0,0,1,1.05.81l1.23,1.29a3,3,0,0,0,1.22.9,7.3,7.3,0,0,1,2,1.13c.15.13.56.44.91.68A3.37,3.37,0,0,0,21,38a21.78,21.78,0,0,0,3.19-.83c.11-.08-.14-.51-.37-.66s-.3-.15-.43,0-.49-.05-.49-.44a.63.63,0,0,0-.17-.44c-.14-.12-.18-.1-.23.1s-.13.23-.24.21-.31-.39-.33-.91-.15-.65-.47-.44-.48.09-.56-.75-.2-.85-.59-.76c-.2,0-.26,0-.35-.25s-.35-.79-.63-1.37l-.52-1.06H18a2.26,2.26,0,0,1-1.31-.29,5.75,5.75,0,0,1-2-1.69,22.06,22.06,0,0,1-2.23-4.57,3.07,3.07,0,0,0-.29-.84.85.85,0,0,1-.1-.55,6.32,6.32,0,0,0,0-1.19,3.47,3.47,0,0,1,0-1,24.2,24.2,0,0,0,.33-4.39,6.28,6.28,0,0,1,.66-3.54c.25-.45.38-.57.59-.57.37,0,.44.28.21.92-.33.92-.38,1.24-.22,1.45a.51.51,0,0,1-.06.77.77.77,0,0,0-.22.64c0,.4,0,.47.25.5s.38.47.09.86-.29.72,0,.87.22.19.17.53c-.09.54.12,1.07.45,1.16s.25.12.23.36a1.61,1.61,0,0,0,.29.84,6.88,6.88,0,0,1,.4.74c.05.1.13.19.19.19s.16-.17.27-.88c0-.21.11-.7.18-1.09.1-.66.09-.72-.11-.89a.66.66,0,0,1-.11-.86c.17-.32-.08-1.07-.36-1.11s-.49-.36-.21-.74a1.29,1.29,0,0,0-.06-1.43c-.15-.25-.15-.38,0-1.13.31-1.52,1.13-2.54,1.6-2,.11.15.09.28-.16.84s-.3.71-.25,2.16a6.55,6.55,0,0,0,.4,2.47,11.5,11.5,0,0,0,.45,1.17.74.74,0,0,1,.1.31,9.18,9.18,0,0,0,1.61,2.23,10.59,10.59,0,0,1,2.46,4.16c.1.52.18.65.48.83s.37.31.37.41c0,.27-.24.45-.44.33s-.41-.11-.47.3,0,.44.22.64.28.26.15.41a.64.64,0,0,1-.45.18c-.28,0-.33.06-.44.46s-.11.47.21.74a7.72,7.72,0,0,0,1.6,1.1c.14,0,.24.18.27.42a.76.76,0,0,0,.35.53c.26.16.3.16.47,0s.43-.18.47.13.37.47.89.39.44-.05.44.15.13.27.44.39c.59.24.74.57.56,1.24a1.4,1.4,0,0,0-.08.54,3.68,3.68,0,0,0,.92-.41l.88-.45v-.89A5.84,5.84,0,0,0,28,30.82c-.11-.35-.12-.51,0-.6s.15-.07.23.07.29.23.49-.18a.76.76,0,0,0,.06-.71,1,1,0,0,1-.06-.51.23.23,0,0,1,.44,0c.09.24.34.2.65-.12a.59.59,0,0,0,.21-.69c-.09-.53.08-.67.43-.34l.25.24.45-.23c.37-.19.45-.29.45-.55,0-.43.18-.51.49-.22s.29.23,1.22.11c.53-.07,1-.14,1-.15l.12-.23A1.57,1.57,0,0,1,35.53,26c.49,0,.55,0,.73.25l.19.29.3-.28a.75.75,0,0,1,1.26.1c.35.46.46.47.55.06s.43-.65,1.38-1.19a2.13,2.13,0,0,1,1.22-.35c.58,0,1,.17,1,.44a2,2,0,0,1-.45.52c-.45.43-.45.44-.29.77s.15.36,0,.56-.14.22.13.22.32-.09.49-.46a2.3,2.3,0,0,0,.22-.76.38.38,0,0,1,.57-.34,1.62,1.62,0,0,0,.61.09h.48l.24.65c.23.61.55,1,.43.51,0-.15,0-.27.23-.4.36-.24.35-.4-.05-.63s-.45-.64-.21-.79a2.45,2.45,0,0,1,.87.13,2.29,2.29,0,0,1,1.28.69,4.65,4.65,0,0,1,.64.71c.12.21.14.21.52-.15a1.09,1.09,0,0,1,1-.39c.38,0,.64,0,.69.14s.21.07.6-.15a1.06,1.06,0,0,1,1.72.67l.13.49.46-.07a1.72,1.72,0,0,1,1.12.23,2.46,2.46,0,0,0,.86.25.38.38,0,0,1,.48.4c0,.3.5.71.86.71.16,0,.24.09.29.3.1.48.21.63.55.69s.31.1.29.41a1.17,1.17,0,0,0,.58,1.12c.31.11.34.28.09.55s-.13.24.47.8a8.27,8.27,0,0,0,1,.83c.27.16.35.29.35.54,0,.4-.21.43-.74.11s-.46-.26-.46-.11A2.36,2.36,0,0,0,59,35a1.25,1.25,0,0,0,.38-.35,3.58,3.58,0,0,0,.49-2.11c0-.39.05-.43.28-.41a3.51,3.51,0,0,0,1.64-.93,1,1,0,0,0,0-.53c-.07-.45.13-.56.47-.25s.26.25.43,0A4.71,4.71,0,0,0,63,29.9c.15-.28.15-.33-.14-.84s-.27-.56-.17-.67.2-.07.44.16a1.66,1.66,0,0,0,.37.29c.13,0,.3-.61.42-1.47a11.93,11.93,0,0,1,.24-1.24c.11-.35.09-.38-.48-.88a4.74,4.74,0,0,1-.74-.82c-.15-.28-.2-.29-.76-.26-.75,0-.78-.1-.15-.56s.54-.66-.13-.66c-.83,0-.84-.4,0-.75.26-.11.29-.17.22-.37a4.44,4.44,0,0,1-.07-1c0-1.16.25-1.67,2.33-5.15.37-.63.76-1.27.86-1.42a11.49,11.49,0,0,0,.56-1.15A9.94,9.94,0,0,1,66.32,12a.88.88,0,0,0,.14-.4,4.33,4.33,0,0,1,.23-.82,12.43,12.43,0,0,0,.69-2.88A16.32,16.32,0,0,0,66.83,1c-.08-.27-.11-.52-.06-.55a.63.63,0,0,0,.16-.25c.2-.53.52,0,.9,1.39a10.1,10.1,0,0,0,.86,2.73.4.4,0,0,1,.1.61.72.72,0,0,0,.25,1,.34.34,0,0,1,0,.65.55.55,0,0,0,.06.92c.27.18.28.2.11.45s-.21.75.11.9.34.29,0,.59a.74.74,0,0,0-.28.69.86.86,0,0,0,.17.6.41.41,0,0,1,0,.67c-.16.11-.22.32-.25.83a1.52,1.52,0,0,0,0,.68c.4,0,.83-.71.68-1.14s-.11-.43,0-.59A10.28,10.28,0,0,0,70.28,9c.08-.47.06-.58-.12-.78s-.26-.46,0-.5.25-.09.31-1.51a16.09,16.09,0,0,0,0-2.1c-.08-.47-.07-.68,0-.79.21-.26.48-.2.69.16s.2.61.2,2.43a18.14,18.14,0,0,0,.42,4.47c.06.34.17,1.17.23,1.86s.19,1.72.29,2.32a21.45,21.45,0,0,1,.16,3.81c0,2.9-.08,3.27-.8,5-.8,2-1.55,2.84-2.72,3.11l-.92.23a2.57,2.57,0,0,1-.7.1c-.5,0-.62.23-.84,1.64a19.09,19.09,0,0,1-.44,2.07c-.16.57-.33,1.23-.39,1.47A12.21,12.21,0,0,1,65,33.6a6.31,6.31,0,0,1-1.29,1.87,6.45,6.45,0,0,1-3.4,2.08c-.52.06-.56,0-.92-.35s-.65-.45-.78-.11c0,.12.15.4.62.88a2.16,2.16,0,0,0,1.41.85,3.65,3.65,0,0,0,2.5-.25c.4-.28.56-.29.56,0a.3.3,0,0,0,.25.27c.18,0,.35,0,.69-.38.72-.7,1.27-.39.59.33-.39.43-.42.62-.09.73s.3,0,.49-.24.29-.3.44-.2a.56.56,0,0,1,.23.35c.08.51.41.34,1.42-.75s1-1.09.93-1.46,0-.49.44-.22c.22.14.28.13.58,0a1.4,1.4,0,0,0,.5-1.28c0-.13,0-.15.35-.08s.44,0,.51-.08a.91.91,0,0,0-.08-.92c-.14-.21-.15-.31-.06-.4s.21-.07.45.11a1.5,1.5,0,0,0,.42.24,13.27,13.27,0,0,0,1.44-1.31c1.54-1.51,1.68-1.57,3.25-1.51,1.08.05,1.36.17,1.81.78.18.24.2.33.09.57a.41.41,0,0,1-.34.27c-.27,0-.27,0,0,.46s.27.46-.05.61-.31.07-.69-.29a2.57,2.57,0,0,0-.93-.55,1.07,1.07,0,0,0-1,.07,2.89,2.89,0,0,0-.72.46.42.42,0,0,1-.4.18c-.13,0-.42.31-1.16,1.44A21.65,21.65,0,0,1,69.64,40a13.22,13.22,0,0,0-1.43,1.59.62.62,0,0,1-.21.33c-.19.17-.66.25-2.74.45l-1.17.12a5.79,5.79,0,0,1-2.8-.63,1.53,1.53,0,0,0-.79-.15.28.28,0,0,1-.37-.16A2,2,0,0,0,59.5,41c-.69-.36-.9-.54-.9-.75s-.1-.18-.36-.18a1.77,1.77,0,0,1-.73-.21l-.63-.34a23.93,23.93,0,0,1-2.44-2.09c-.92-.84-1.27-1.09-1.64-1.17a1.33,1.33,0,0,1-.65-.34.79.79,0,0,0-.55-.27,3.3,3.3,0,0,1-.54-.1c-.09,0-.33.09-.54.27l-.38.33.7,0a3,3,0,0,1,2.19.73c.21.19.65.55,1,.79,1,.74,1.52,1.33,1.55,1.81s.09.46.58.78a14.88,14.88,0,0,1,2.51,2.24,5.1,5.1,0,0,0,1.16,1,1.52,1.52,0,0,1,.53.35c.22.24.24.32.14.54s0,.51.25.51a.86.86,0,0,1,.38.27c.21.22.23.29.11.43s-.13.24.2.77c.18.29.26.33.72.32s.55,0,1-.57.8-.7,1-.38c.09.16.22.19.77.16s.77-.09,1.31-.78c.18-.24.23-.25.38-.13s.22.31,0,.69-.14.3.23.42a.76.76,0,0,0,1.08-.39c.18-.33.25-.38.49-.33a2.42,2.42,0,0,0,.62.06c.29,0,.4.06.58.35a1.56,1.56,0,0,1,.22.65c0,.22.06.3.28.36a1.07,1.07,0,0,0,.47,0,3.07,3.07,0,0,0,.93-1.23,7.26,7.26,0,0,1,1.78-1.82A1.54,1.54,0,0,0,74,42.52c0-.35.22-.35.39,0,.09.18.2.27.3.23a1.58,1.58,0,0,0,.6-1.11,2.06,2.06,0,0,1,.06-.5c.08-.21.44-.23.51,0s.08.11.21,0,.31-.55.13-.62-.15-.19-.15-.36a1,1,0,0,0-.17-.51c-.38-.52-.09-.52.42,0s.62.48.62.29a2.18,2.18,0,0,1,.52-.46,6.59,6.59,0,0,0,.68-.53,6,6,0,0,1,.82-.47,3.11,3.11,0,0,1,1.86-.3A15.32,15.32,0,0,0,83,38l.93-.16.29.28a3.11,3.11,0,0,1,.7,1.42c.07.34-.09.66-.32.66s-.53-.64-.45-.77,0-.25-.17-.43-.3-.33-.75-.33a1.54,1.54,0,0,0-.6.08c-.09.09.75.9.93.9s.11,0,0,.13-.09.21,0,.43a.84.84,0,0,1,0,.48.37.37,0,0,1-.56.06,4.17,4.17,0,0,0-.72-.56c-.71-.48-.57-.47-2.14-.26-.55.08-.58.1-1,.75a11.24,11.24,0,0,0-.78,1.51,5.11,5.11,0,0,1-1.1,1.68,8.54,8.54,0,0,0-.75.9,17.91,17.91,0,0,1-1.46,1.34c-1.59,1.39-2.59,2.6-2.37,2.88a.44.44,0,0,1,.06.39c-.07.22-.12.23-.64.14a9.74,9.74,0,0,0-2.91,0,15.08,15.08,0,0,1-2.78.42,11.09,11.09,0,0,1-4.16-.62c-.66-.3-1.59-.48-1.68-.32s-.72-.1-1.44-.62a3.73,3.73,0,0,0-.57-.36s-.07.13-.07.28.24.52.79,1.1.9,1,1,1.19a1.21,1.21,0,0,0,.5.44c.25.08.72.47.72.61s-.1.11-.22.15-.21.08,0,.36a1.75,1.75,0,0,0,1,.9c.48.16.6.52.21.62s-.16.46.73.85c.66.29.9.52.68.66a.85.85,0,0,1-.45,0c-.26-.06-.32,0-.28.07.21.57.2.63-.12.87-.62.46,0,.87,1.28.87a5.94,5.94,0,0,1,1.35.18,1.64,1.64,0,0,0,1.06,0,3,3,0,0,1,.66-.13c.23,0,.24.05.19.38s0,.54.61.52a3.77,3.77,0,0,1,.83.08,5.5,5.5,0,0,0,.81.15c.54.06.68.2.51.51s-.2.23-.36.19c-1-.23-1-.23-1,0s.13.37,1,.4,1.3.22,1,.54c-.1.13-.28.15-.83.1s-.7,0-.7,0a1.71,1.71,0,0,0,.37.46c.36.35.42.37,1.83.52a16.3,16.3,0,0,0,2.11.1L75,61c.3,0,.4,0,.49.21s.74.38,1.18.15c.29-.16.32-.16.52.08s.25.26,1.54.23a7.19,7.19,0,0,1,1.49,0,9.48,9.48,0,0,0,3.08.34c1.42,0,2.07.1,2.07.28s.12.11.26.15a3.55,3.55,0,0,1,1.62,1.67C87.67,65.18,87.69,65.29,87.42,65.37ZM80.33,39.05l.6-.13-.55,0a1.76,1.76,0,0,0-.69.09C79.42,39.15,79.72,39.18,80.33,39.05Zm-9.17,8.34c0,.14.82.33,1,.22a.46.46,0,0,1,.33,0c.32.1.36-.25.07-.5s-.25-.22-.06-.38a.39.39,0,0,1,.47,0c.38.17.59-.05.33-.34s-.16-.22,0-.33.21-.11.39,0,.41.06.22-.16,0-.53.45-.44.31,0,.28-.18,0-.26.42-.34.54-.21,1-.77a3.61,3.61,0,0,0,.61-1,.78.78,0,0,1,.45-.46.72.72,0,0,0,.44-.5.82.82,0,0,1,.19-.4,1.66,1.66,0,0,0,.29-.46c.1-.22.32-.63.49-.92a1.42,1.42,0,0,0,.25-.69c-.06-.15-.13-.14-.52.08a4.33,4.33,0,0,0-1.46,1.56c-.24.34-.57.8-.74,1-.33.44-.37.58-.15.58a.45.45,0,0,1,.29.16c.2.24-.13.71-.5.71a7.38,7.38,0,0,0-2,.63,3.72,3.72,0,0,0-1.44,1.33,9.86,9.86,0,0,1-.71,1A2.53,2.53,0,0,0,71.16,47.39Zm-2.75-.84c.6.25.94,0,.62-.52l-.19-.28-.3.36C68.27,46.43,68.25,46.49,68.41,46.55Zm-6.7,2c.21,0,.27,0,.27-.14a.59.59,0,0,1,.49-.43,1.44,1.44,0,0,1,.28.49c.11.27.26.5.31.5a1.18,1.18,0,0,1,.28.06c.16.06.18,0,.15-.51s0-.59.27-.63.3,0,.3.63a1.34,1.34,0,0,0,.12.72c.22.14.37-.18.37-.82s.17-1,.41-.78A3.4,3.4,0,0,1,65,49.15c0,.08,0,.17.15.2s.2,0,.18-.63.09-.95.38-.84c.13,0,.17.23.17.72s0,.66.24.66.22,0,.17-.45.06-.86.31-.86.33.47.22.65a.63.63,0,0,0,0,.39c.06.21.13.28.31.25s.23-.11.24-.39a.86.86,0,0,1,.13-.48c.18-.18.46,0,.46.28a.47.47,0,0,0,.1.34c.16.09.42-.05.48-.28a.3.3,0,0,1,.55-.06c.09.11.31.14.81.09s.68-.08.68-.26a1.25,1.25,0,0,0-.24-.53.64.64,0,0,0-.59-.32,10.78,10.78,0,0,1-2.45-.58,5.8,5.8,0,0,0-2.81-.3c-.22.07-.82.31-1.33.52-.76.32-.95.36-1.12.26-.33-.21-.62-.05-.69.37S61.35,48.46,61.71,48.52ZM77.48,32.87c.14.27.34.31.34.07,0-.09,0-.17,0-.17l-.23-.07C77.38,32.64,77.37,32.66,77.48,32.87Zm-3.38.66c0,.18.12.14.71-.27A1.6,1.6,0,0,1,76,32.88c.69,0,.79-.05.64-.34s-.91-.27-1.55,0C74.6,32.74,74.1,33.25,74.1,33.53Zm-5.83,5.59a.9.9,0,0,0,.52.09,1.12,1.12,0,0,0,.81-.3l.75-.61a1.7,1.7,0,0,0,.49-.61,1.22,1.22,0,0,1,.44-.47c.19-.11.31-.22.28-.25a5,5,0,0,1,.65-1.1A12.35,12.35,0,0,0,73,34.56l.1-.27-.38.3a9,9,0,0,0-1.57,1.87.5.5,0,0,0-.06.38c0,.11-.19.29-.74.57a5.31,5.31,0,0,0-1.07.7,7.05,7.05,0,0,1-.68.6C68.39,38.88,68.23,39.06,68.27,39.12Zm-.76,1.05a.66.66,0,0,0,.79,0c.18-.18.16-.53,0-.53a1,1,0,0,1-.32-.06c-.09,0-.26,0-.39.19S67.34,40,67.51,40.17Zm-7.9.12a.51.51,0,0,0,.52,0c.3-.16.54-.07.54.21s.13.29.34.4.35.16.5-.06c.27-.38.6-.25.63.25s.26.33.3-.06.09-.37.28-.39.25,0,.31.27c.14.64.17.69.43.69a.31.31,0,0,0,.34-.27c.06-.25.48-.41.48-.19a.73.73,0,0,0,.16.3c.17.21.17.21.16,0,0-.58.14-.66.55-.22a1.26,1.26,0,0,0,1.28.2c.33-.09.31-.24-.09-.67s-.41-.35-.68-.33a1.7,1.7,0,0,1-.73-.18c-1.27-.67-1.3-.68-1.83-.58L62,39.84a1.28,1.28,0,0,0-.63.16.53.53,0,0,1-.34.09c-.15,0-.24,0-.21-.1a.3.3,0,0,1,.28,0c.12,0,.22,0,.22-.06s-.69-.34-1.17-.34C59.31,39.54,59,40,59.61,40.29Zm6.74-14.18a.11.11,0,0,0-.22,0,.11.11,0,1,0,.22,0Zm0-1.32c0-.24,0-.24-.39-.09-.24.09-.26.14-.15.27C66.05,25.26,66.35,25.15,66.35,24.79ZM70.72,10.6a.23.23,0,0,0,.11.17c.06,0,.11,0,.11-.1s0-.17-.11-.17A.1.1,0,0,0,70.72,10.6Zm-.11,1c0,.18.51.43.6.29a.34.34,0,0,0,0-.26C71.12,11.45,70.61,11.42,70.61,11.63ZM70.27,13c.29-.05.45-.13.45-.22s0-.1,0-.1a.74.74,0,0,1-.2-.06c-.1,0-.18,0-.22.17S70.23,13,70.27,13Zm-.42.78c0,.05.07.1.17.1s.14-.05.1-.1a.23.23,0,0,0-.17-.11A.1.1,0,0,0,69.85,13.78Zm-1.08-.06c0,.24.2.09.2-.2s0-.19-.12-.11A.42.42,0,0,0,68.77,13.72Zm.39,2.61c-.16.12-.27.13-.53,0s-.34-.09-.42,0-.13.31.16.39.54.41.34.58-.23.09-.44,0a.7.7,0,0,0-.4-.05c-.33.21-.68,1.38-1,3.44a6.53,6.53,0,0,1-.42,1.43,4.85,4.85,0,0,0-.29.68s.13.12.28.18c.4.15.32.49-.12.49-.25,0-.33.05-.36.24s0,.25.17.25a.55.55,0,0,1,.35.14c.11.11.18.07.38-.17.47-.58,1-.24.61.37-.2.27-.21.33-.07.47a1.51,1.51,0,0,1,.22.6c0,.25.12.45.18.45a.09.09,0,0,0,.1-.09,1.82,1.82,0,0,1,0-.34c0-.2.06-.24.23-.2a.26.26,0,0,0,.33-.15c.15-.28.31-.26.67.08s.58.29.67-.17c0-.24.13-.33.29-.33s.4-.43.23-.75-.15-.78.1-.78a.35.35,0,0,1,.28.11.2.2,0,0,0,.16.1c.14,0,.26-.45.13-.53a2.77,2.77,0,0,1-.46-1.06c0-.07.1-.17.22-.21s.2-.09,0-.38c-.36-.7,0-.93.41-.27.14.21.3.36.36.34s.15-.42,0-.62a3.12,3.12,0,0,1-.36-.65,6.41,6.41,0,0,0-.41-.74c-.16-.22-.16-.25,0-.31s.29,0,.54.35.38.4.44.23a.44.44,0,0,0-.14-.44,4.19,4.19,0,0,1-.82-1.32c.13-.13.44-.06.63.16s.22.19.24.17-.29-.72-.39-.72-.14-.12-.21-.27c-.18-.39,0-.47.44-.17.18.14.31.2.28.15l-.24-.53a4,4,0,0,0-.41-.7c-.19-.24-.19-.29,0-.43s.19-.14.34,0,.32.06.21-.46c-.08-.35-.16-.47-.32-.47a1.67,1.67,0,0,1-.4-.09.5.5,0,0,0-.44.08c-.22.15-.32.15-.62,0s-.37-.1-.45,0,0,.18.14.25.4.28.33.47-.43.29-.7.15-.27-.09-.41.06-.14.2,0,.24a1.44,1.44,0,0,1,.39.26C69.34,16.17,69.34,16.18,69.16,16.33Zm-1-3.63c.07-.12-.21-.37-.3-.28a.23.23,0,0,0,0,.22C67.91,12.81,68.06,12.84,68.15,12.7ZM68.1,8.32c0,.12.05.21.11.21s.11-.09.11-.21,0-.22-.11-.22S68.1,8.2,68.1,8.32Zm-.19,1.11c.07.21.41.24.41,0s-.1-.17-.23-.17S67.88,9.35,67.91,9.43Zm-.26,1.11c.18.21.51.29.66.14s.12-.37-.24-.43S67.46,10.31,67.65,10.54Zm-.29.72c0,.17.63.37.63.21s-.09-.1-.2-.1a.59.59,0,0,1-.34-.13C67.33,11.13,67.32,11.13,67.36,11.26ZM64.6,23.88c-.38.2-.4.28-.09.47a.33.33,0,0,1,.17.35.2.2,0,0,0,.32.23c.1-.07.12-.16.21-1.05,0-.3.11-.72.16-.92a.87.87,0,0,0-.07-.69c-.21-.41-.07-.6.29-.42s.4,0,.07-.54c-.2-.36-.26-.55-.17-.61a.21.21,0,0,1,.24.05.44.44,0,0,0,.27.12c.12,0,.14-.1.09-.48a1,1,0,0,1,.08-.74,2.42,2.42,0,0,0,.23-.78A11.41,11.41,0,0,1,67.08,17a10.61,10.61,0,0,0,.8-2.47A6,6,0,0,0,68,13.34a.89.89,0,0,0-.35-.07,2.45,2.45,0,0,1-.51-.09.62.62,0,0,0-.54.2c-.32.25-.32.27-.18.7s.08.72-.28.65a.31.31,0,0,0-.36.47c.15.23.13.65,0,.67l-.4,0c-.43,0-.54.33-.25.72.44.59.25,1.07-.27.66s-.54-.09-.1.56a2.66,2.66,0,0,1,.39.77c0,.39-.25.32-.67-.16-.27-.32-.49-.48-.59-.45s-.19.39.23,1,.42.88.17.88a1.7,1.7,0,0,1-.51-.38c-.39-.37-.6-.41-.6-.12a.75.75,0,0,0,.24.35c.31.27.58.91.44,1.05s-.57,0-.57-.18-.29-.43-.43-.34,0,.25.21.55a1.71,1.71,0,0,1,.33.69.39.39,0,0,0,.11.29c.19.11.13.26-.17.41s-.25.17-.14.27a1.08,1.08,0,0,0,.48.16c.38,0,.5.38.21.6s-.12.29.31.14C64.89,23.13,65.24,23.55,64.6,23.88Zm-5,11.93c0,.22,0,.26.13.15a.44.44,0,0,1,.3-.12c.1,0,.28.16.42.35.24.34.24.34.24.08a2.51,2.51,0,0,0-.22-.76c-.17-.38-.19-.5-.08-.57s.94.62,1,1,.25.06.16-.53,0-.87.27-.87c.07,0,.2.19.27.41.17.55.19.57.37.51s.15-.23.14-.55c0-.5.14-.78.35-.65a.33.33,0,0,1,.12.23c0,.09,0,.16.09.16s0-.17,0-.39-.08-.41.08-.57.2-.17.38.06.21.24.4,0a.55.55,0,0,0,.12-.53.54.54,0,0,1,.07-.44.85.85,0,0,0,.1-.51c0-.32,0-.4.25-.49a.38.38,0,0,0,.27-.31.51.51,0,0,1,.17-.34,1,1,0,0,0,.16-.69,1.71,1.71,0,0,1,.23-.91c.19-.32.21-.42.11-.67a2.56,2.56,0,0,1,0-1.17c.1-.88.08-1-.08-1a4,4,0,0,0-.72,1.53,9.42,9.42,0,0,1-1.08,2.28c-.28.43-.37.67-.33.9s.07.45.09.63c.07.39-.16.73-.42.63a.19.19,0,0,1-.13-.25c.11-.28,0-.71-.25-.67s-.19.19-.23.63-.07.6-.33.6-.28-.07-.3-.25-.08-.24-.13-.24-.09.11-.09.24c0,.48-.16,1-.31,1s-.48-.16-.48-.42c0-.11-.05-.18-.1-.14s-.11.33-.11.67a1.75,1.75,0,0,1-.6,1.44A.86.86,0,0,0,59.58,35.81Zm-50-3.44a4.61,4.61,0,0,0-2.32,0c-.19.15-.08.16,1.23.14S9.85,32.49,9.54,32.37ZM14,35.64a10.92,10.92,0,0,0-2.15-2.21.19.19,0,0,0-.19.2,5.22,5.22,0,0,0,1,1.79.85.85,0,0,0,.8.3A1.35,1.35,0,0,0,14,35.64ZM17.77,38a4,4,0,0,1-.65-.46,4.25,4.25,0,0,0-2.7-1.22c-.2,0-.37.11-.37.16s.62.54.85.54.26.11.33.33c.13.38.16.39.5.16s.45-.07.35.33.2.59.46.35.67-.24.67,0a.5.5,0,0,1-.12.32.23.23,0,0,0-.05.24c.09.15.21.15.34,0a.9.9,0,0,1,.44-.14C18.27,38.6,18.25,38.26,17.77,38Zm.8,1a.85.85,0,0,1-.22.07s0,0,0,.11.29.12.37-.07S18.7,39,18.57,39ZM25.73,36c0,.14.18.1.32-.07a.27.27,0,0,0,.06-.29c-.06-.09-.12-.07-.23.07A.79.79,0,0,0,25.73,36ZM13.39,20.28s0,0,.11,0a.11.11,0,0,0,.11-.12c0-.06,0-.08-.11-.05S13.39,20.25,13.39,20.28ZM13,19.5c.07.18.4.24.4.08s-.32-.39-.4-.31A.29.29,0,0,0,13,19.5Zm5.16,9.62a1.5,1.5,0,0,0-.28.41c0,.13.18.09.3-.06a1.32,1.32,0,0,0,.18-.41C18.42,28.8,18.42,28.8,18.15,29.12Zm.71-.87a.36.36,0,0,1-.12-.26,9.42,9.42,0,0,0-1.11-2.18,1.71,1.71,0,0,0-.59-.57c-.21-.08-.26-.18-.26-.52s-.09-.52-.72-1.18a13.36,13.36,0,0,1-1.78-2.42c-.38-.73-1.57.3-1.26,1.1.06.15.1.14.38-.06s.35-.21.45-.11.08.3-.1.87c-.32,1-.37,1.31-.26,1.39s.21-.09.34-.27c.39-.55,1-.31.6.26a2.94,2.94,0,0,0-.26.95c-.15,1.09,0,1.28.4.48.17-.34.31-.49.46-.49.36,0,.38.3.07.91a1.13,1.13,0,0,0-.16,1.06c.12.48.36.86.47.74a2.45,2.45,0,0,0,.09-.7c0-.61.21-1.14.38-1.13a.62.62,0,0,1,.23.09c.12.08.13.26,0,1-.17,1.21-.16,1.66,0,1.61a.25.25,0,0,0,.14-.2,3.28,3.28,0,0,1,.24-.67c.22-.5.59-.82.8-.69s.13.41,0,.55a4.51,4.51,0,0,0-.45,1.37c0,.4.31.31.54-.15s.64-1,.83-1a.53.53,0,0,1,.31.24c.12.18.2.21.29.12S19,28.3,18.86,28.25Zm-.46-2.44c.06.06.12,0,.15-.18s-.07-.38-.18-.1A.27.27,0,0,0,18.4,25.81ZM19.86,28a1.89,1.89,0,0,0,.07-1.12c0-.11.06-.18.26-.2s.3-.05.32-.76a3.53,3.53,0,0,0-.32-2,8.72,8.72,0,0,0-1.94-2.81c-.9-.92-1-1-1.22-.86s-.25.15-.15.27a.36.36,0,0,1-.22.56c-.31.1-.25.36.09.4s.47.47,0,.72-.4.31-.23.57.13.13.23,0,.53,0,.53.33a.56.56,0,0,1-.12.37.21.21,0,0,0,.13.36c.06,0,.1-.07.1-.16s.28-.22.39-.05a1.32,1.32,0,0,1-.06.61c-.11.39-.11.51,0,.62s.15.1.19,0a.74.74,0,0,1,.54-.46c.13,0,.16.08.12.33s0,.32.26.32a.54.54,0,0,1,.37.11,1.87,1.87,0,0,1-.4,1.09c-.05,0-.1.13-.1.28,0,.36.29.35.38,0,.05-.21.13-.27.31-.25s.24.1.23.52a.79.79,0,0,1-.23.66.93.93,0,0,0-.27.44h0c0,.24,0,.28.26.29A.68.68,0,0,0,19.86,28Zm4.78,7.48c.56,0,.66,0,.81-.25s.22-.49.08-.49-.15-.12-.21-.26-.08-.38.09-.82a4.08,4.08,0,0,0,.21-.66c0-.17-.77-.34-1.22-.26s-.42,0-.42-.16,0-.29-.47-.4-.3,0-.23.17a.59.59,0,0,1-.46.75c-.41,0-.44-.31-.08-.61l.32-.26-.55-.49a2.8,2.8,0,0,0-.68-.49.16.16,0,0,1-.14-.18,1.17,1.17,0,0,0-.3-.53l-.66-.8-.36-.44-.28.28c-.27.27-.27.29-.11.58a1.38,1.38,0,0,1,.18.58.46.46,0,0,0,.12.35.93.93,0,0,1,.22.33,3.29,3.29,0,0,0,.94,1.24c.07,0,.18.17.25.38s.15.37.5.31.49.1.26.52c-.09.17-.06.29.13.54s.26.31.43.16.23-.15.61,0,.42.25.4.54v.33Zm1.85,2.69c0-.34,0-.35-.62-.4a1.84,1.84,0,0,0-.94.09,1,1,0,0,1-.57.09,4,4,0,0,0-1.34.32,10.32,10.32,0,0,1-2.17.51c-1.09.12-1.34.24-1.34.66,0,.13.11.21.35.24a3.06,3.06,0,0,1,.54.13c.13.06.2,0,.25-.15.11-.34.54-.26.59.1.09.68.53.75.58.1a.78.78,0,0,1,.22-.57c.26-.16.34,0,.35.5,0,.35.06.47.2.5s.2,0,.2-.27c0-.69.05-.75.28-.78s.25,0,.33.48c.05.28.15.54.23.56s.16.06.14-.76c0-.56,0-.63.2-.63s.28.1.39.79c0,.23.11.41.16.41s.34-.3.27-.48,0-.72.19-.72.17.15.24.33c.17.44.48.43.6,0,.06-.22.17-.37.3-.39S26.49,38.58,26.49,38.17Zm.44-2c0-.26-.27-.29-.37,0a2,2,0,0,0-.06.22s.09.05.21.05A.19.19,0,0,0,26.93,36.16ZM3.59,38.63c-.94-.12-2.06.08-2.22.4-.08.13-.07.2,0,.24a1.83,1.83,0,0,0,1.35-.06A2.65,2.65,0,0,1,3.82,39C4.73,39,4.58,38.75,3.59,38.63Zm4.05,1.82a6.24,6.24,0,0,0-1.06-.87l-.33-.17.19.26a6.29,6.29,0,0,1,.41.69,11.11,11.11,0,0,0,.74,1.12c.52.73.61.79.71.51C8.51,41.46,8.38,41.15,7.64,40.45Zm5.16,5.12a3.12,3.12,0,0,0-1.12-1.08,11.53,11.53,0,0,1-2.18-2c-.24-.41-.44-.42-.52,0a1.89,1.89,0,0,0,.23,1.38c.22.27.23.27.29,0s.13-.21.31-.19.32.29.17.86a.58.58,0,0,0,.15.54l.22.27.21-.27c.21-.26.22-.26.38-.06s.21.46.05.55-.14.28,0,.28.14-.1.17-.22a.32.32,0,0,1,.3-.22c.21,0,.22.05.17.59,0,.37,0,.63.06.71s.24.15.4,0a.51.51,0,0,1,.32-.17c.09,0,.26-.15.36-.33S12.93,45.83,12.8,45.57Zm10.53,1.35a.63.63,0,0,0-.55-.5,1.35,1.35,0,0,1-.51-.15,6.71,6.71,0,0,0-2.55-.62c-.39,0-1,0-1.31,0a4,4,0,0,0-2.06.32,3.92,3.92,0,0,1-1.43.72c-.41,0-.67.21-.59.47.18.6.87.88.94.38s.46-.33.5,0c0,.17.08.3.14.3h.18s.13-.18.2-.41.18-.42.36-.45.25,0,.22.49,0,.53.22.56.26,0,.18-.27c-.15-.6-.12-1,.08-1s.38.3.5,1c0,.28.14.45.27.47s.18,0,.12-.77,0-.84.06-.9.43.18.5.88a1.81,1.81,0,0,0,.22.81c.27.23.29-.12.05-.88s-.24-1.08.09-1.08c.17,0,.25.19.47,1s.29,1,.56,1,.34.07.35-.91c0-.61,0-.76.19-.79s.26.1.36,1c.05.43.12.63.22.63s.13-.1.08-.41c-.11-.68-.09-.84.11-.88s.22,0,.41.72c.12.46.13.47.47.41.74-.15.74-.15.66-.61s0-.43.11-.43A.17.17,0,0,0,23.33,46.92ZM5,59.57a.16.16,0,0,0-.16-.15,16.26,16.26,0,0,0-2.89.86c-.12.08-.12.13,0,.32s.42.31.59.14a6.7,6.7,0,0,1,1.92-.9C4.78,59.77,5,59.67,5,59.57Zm4.87.09a1.72,1.72,0,0,0-.75-.17c-.38-.05-1-.16-1.47-.26-.82-.18-1.67-.11-1.75.16s.72.58,1,.58a.54.54,0,0,0,.33-.13c.08-.08.17,0,.3.17s.36.35.55.1.49-.1.49.29.34.46.52.06c.07-.15.2-.28.28-.28S9.94,59.79,9.86,59.66Zm7.08.82c-.13-.41-.25-.48-.9-.56-.35,0-.92-.13-1.28-.19a16.17,16.17,0,0,0-1.71-.16c-1,0-1.1,0-1.64.24a6.39,6.39,0,0,0-1.06.68c-.45.36-.47.4-.28.53s.78.18.9,0,.49-.14.57.18.14.28.4.3.35,0,.38-.38.08-.42.25-.42.25.11.32.47.17.46.27.46.14-.11.09-.55,0-.56.1-.61.38.09.53.69c.08.31.2.53.29.53s.17-.07.06-.44a.49.49,0,0,1,0-.38c.14-.23.42,0,.68.47.12.22.24.4.28.4a3.16,3.16,0,0,0,.46-.19c.34-.17.38-.24.38-.63a1.73,1.73,0,0,1,.08-.57c.12-.17.39-.06.47.2a.29.29,0,0,0,.23.21C17,60.73,17,60.66,16.94,60.48Zm8-3.54c-.17-.06-.19-.49,0-.65s-.23-.47-.73-.59a3.33,3.33,0,0,0-3.28,1c-.46.47-.55.63-.47.79s-.06.44-.49.44c-.61,0-2.35,1-2.35,1.41a2,2,0,0,0,.4.55c.44.49.5.51,1,.27s.69-.47.63-.88,0-.37.15-.37a.69.69,0,0,1,.42.22c.2.22.82.31.82.11s-.15-.18-.33-.27c-.37-.19-.44-.49-.11-.49a.45.45,0,0,0,.33-.22c.14-.26.51-.28.81,0a.66.66,0,0,0,.52.1c.23-.05.33,0,.47.21s.25.33.49.18.12-.15-.11-.39a2.88,2.88,0,0,0-.57-.45c-.61-.31-.14-.6.52-.32s.57.22.27-.1-.24-.3-.1-.44.22-.13.68.16a2.52,2.52,0,0,0,.66.33C24.68,57.45,25.05,57,24.89,56.94ZM14.72,69.79a3.71,3.71,0,0,0-1.47,1,9.44,9.44,0,0,0-1.06,2.55c0,.19.64,0,.7-.26.4-1.58.93-2.45,1.67-2.76C14.94,70.12,15.05,69.79,14.72,69.79Zm2.69-1a3.4,3.4,0,0,0-1.37.4s0,.1,0,.17a3.38,3.38,0,0,0,1.51,0C17.88,69.31,17.78,68.92,17.41,68.78Zm7-1a1.84,1.84,0,0,0-.56-1,4.09,4.09,0,0,0-1.39-.08,3,3,0,0,0-1.89.44,9.12,9.12,0,0,0-2,1.4c-.12.17-.13.25,0,.38s.35.2.52-.06.42-.28.63,0,.53.3.24-.16c-.11-.17-.11-.24,0-.35s.2-.08.47.12.54.22.33-.12c-.12-.19-.11-.25,0-.4s.2-.14.48.13.48.37.4,0,.21-.6.44-.4a.45.45,0,0,1,.17.28.15.15,0,0,0,.17.15c.11,0,.15-.09.13-.3s0-.3.2-.33a.44.44,0,0,1,.37.14c.15.19.44.22.44.06s.17-.09.43,0S24.42,67.83,24.42,67.8Zm3.06,5.77s.05,0,.11,0a.11.11,0,0,0,.11-.11c0-.07-.05-.09-.11,0S27.48,73.54,27.48,73.57Zm-1,2.12a.1.1,0,0,0,.11.11.11.11,0,0,0,0-.22A.1.1,0,0,0,26.5,75.69Zm-.66.44a.11.11,0,0,0,.22,0,.11.11,0,0,0-.22,0Zm1.53,15.78a.86.86,0,0,0,.27.38.92.92,0,0,1,.28.39.37.37,0,0,0,.21.26c.12.07.22.08.22,0S27.38,91.78,27.37,91.91Zm-3.25-6.22.06.32a1.61,1.61,0,0,0,.31.63.67.67,0,0,1,.19.47.29.29,0,0,0,.13.31c.17.12.18.18.06.32a.27.27,0,0,0-.07.28,1,1,0,0,0,.28.23c.18.09.21.08.21-.11a1.12,1.12,0,0,0-.09-.41,5.58,5.58,0,0,1-.23-.52,6.39,6.39,0,0,0-.67-1.27ZM22,82.46c.12,0,.12,0,0-.28-.25-.38-.07-.58.35-.39a1.27,1.27,0,0,0,.65.06c.21,0,.38,0,.43.05.17.28.25.09.11-.26s-.2-.49,0-.49a1.15,1.15,0,0,1,.55.35c.2.19.39.31.43.27a1.46,1.46,0,0,0-.17-.69,2.17,2.17,0,0,1-.18-.67c.14-.14.62.12.77.41s.33.42.42.16a1.4,1.4,0,0,0-.38-1l-.25-.33.35-.27.35-.28-.18-.37c-.17-.35-.17-.39,0-.59a.59.59,0,0,0,.11-.6c-.06-.32,0-.39.11-.39s.21-.26-.1-.54-.64-.23-.55.21c.06.28,0,.33-.14.33a.53.53,0,0,1-.35-.17c-.17-.2-.43-.21-.43,0a.35.35,0,0,1-.55.29c-.43-.23-1,.18-1.57,1l-.2.31.33-.07c.36-.08.51,0,.41.36a1,1,0,0,1-.83.45c-.21,0-.48.36-.36.48a.7.7,0,0,0,.36.07c.38,0,.71.25.63.47s-.24.18-.58.2-.54.1-.57.19,0,.14.33.08.42,0,.53.11.1.22-.27.53l-.42.35.28.07a.51.51,0,0,1,.36.35C21.79,82.34,21.89,82.46,22,82.46Zm2.48,6.93a2,2,0,0,1,.68-.56c.14,0,.26-.11.26-.16s-.11,0-.25,0-.34.07-.71-.17-.58-.55-.32-.64c.1,0,.09-.11-.05-.26a.87.87,0,0,1-.19-.51.46.46,0,0,0-.23-.41.29.29,0,0,1-.18-.33.67.67,0,0,0-.15-.47c-.25-.31-.26-.43-.06-.6s.2-.07.38.06c.37.25.4.1.05-.23-.67-.62-1.07-.84-1.37-.73a.7.7,0,0,0-.25,1,.81.81,0,0,1,.17.46.51.51,0,0,0,.11.36c.07,0,.09.26,0,.55s0,.48.1.48.43.39.3.65-.14.46.1.31.56,0,.35.33-.27.47-.15.59.17.08.29,0,.53,0,.38.34a.44.44,0,0,0-.05.32C23.84,90,24,89.87,24.46,89.39Zm2.78,4.1a.92.92,0,0,0,.24-.11c.13-.08.07-.2-.35-.63a7,7,0,0,1-1.48-2.2c.06-.34.4-.24.86.27.67.73.66.39,0-.5-.54-.72-.68-.82-1.08-.77-.23,0-.74.61-.82.94s.11.61.31.53a.37.37,0,0,1,.28.06c.13.08.14.15,0,.43s-.08.57.13.36.52-.17.52,0a.86.86,0,0,1-.16.37c-.28.4,0,.78.35.46s.47.08.39.46a.59.59,0,0,0,.13.54h0c.25.27.46.27.55,0C27.13,93.59,27.2,93.49,27.24,93.49Zm2.2.88c0-.22-.53-.88-.71-.88s-.16.05-.16.12-.15.1-.44.07-.45,0-.6.25-.2.51.11.71.28.17.48-.07.59-.22.5.17-.05.29.33.2A.71.71,0,0,0,29.44,94.37Zm43.74-15a3.17,3.17,0,0,1,.16,1c0,.56,0,.6.26.6a3.57,3.57,0,0,1,.6.07c.25,0,.34,0,.34-.08a7.69,7.69,0,0,0-.87-1.76C73.24,78.52,72.89,78.64,73.18,79.33Zm-2.59-3.79a1.54,1.54,0,0,1-1,.1,1.54,1.54,0,0,0-.64,0,2,2,0,0,0,.35.39c.28.27.41.32.66.26a.51.51,0,0,1,.58.22,1,1,0,0,1,.27.44c0,.28.31.43.61.29a1.7,1.7,0,0,1,.38-.12c.14,0,.13.36,0,.52s0,.19.19.4a1.19,1.19,0,0,0,.51.28c.17,0,.18-.06.12-.41a2.32,2.32,0,0,0-.39-.81,2,2,0,0,1-.31-.48,3.7,3.7,0,0,0-.5-.66l-.5-.59ZM65.07,72.4c.35,0,.43,0,.38.28a.67.67,0,0,0,.09.47c.13.18.15.18.35,0s.57-.26.57-.08.12.16.27.22c.32.12.35.28.1.56s-.07.26.34.07.57,0,.38.35-.12.25.24.17c.68-.16.91-.14.94.11s.13.25.6.3c.73.09,1,.09,1,0a3.11,3.11,0,0,0-1.46-1.45.59.59,0,0,1-.28-.16,5.48,5.48,0,0,0-.66-.41c-.27-.14-.84-.46-1.25-.71-1.1-.65-1.19-.66-1.47-.22S64.88,72.43,65.07,72.4ZM55.12,41.71c.27.64.25.63.59.41s.56-.16.62.18c0,.13.1.24.17.22.24-.05.27.27.07.65-.37.71-.38.79,0,.39s.76-.55.76-.25A3,3,0,0,1,57,44a1.84,1.84,0,0,0-.23.61s.2-.16.4-.4c.54-.67.93-.5.44.19-.34.49-.46.77-.35.83s.28-.21.49-.54.48-.6.62-.6c.31,0,.26.25-.23,1s-.5.78-.29.95.22.05.45-.26c.45-.59.94-.45.6.17-.09.18-.07.22.13.22s.22,0,.17.38,0,.37.1.22c.42-.42.72,0,.44.56-.14.3-.16.42-.06.54s.28.19.54-.18.21-.36.09-.5-.1-.21.12-.39l.26-.21-.29-.6a1.42,1.42,0,0,0-.57-.7.36.36,0,0,1-.27-.38c0-.82-3.94-4.66-4.44-4.33C54.92,40.77,54.9,41.21,55.12,41.71Zm-.3,1.46a2.39,2.39,0,0,0-1-1.39,8.57,8.57,0,0,1-1-1c-.5-.66-1.36-1-1.4-.57,0,.14.12.29.35.43a2.73,2.73,0,0,1,1.15,1.63c0,.32,0,.37.72.68.39.19.83.38,1,.44S54.88,43.45,54.82,43.17Zm-4.28-5.94c0,.41.46,1.6.63,1.5a.55.55,0,0,0,.11-.38c0-.3.24-.51.45-.38a1.41,1.41,0,0,1,.1.65c0,.46,0,.6.16.6a.17.17,0,0,0,.17-.15.65.65,0,0,1,.2-.34c.17-.15.26-.16.44-.06s.21.16.12.33c-.2.38-.14.56.18.48s.5.11.41.54a.57.57,0,0,0,.13.52c.3.33.47.25.76-.41a6.53,6.53,0,0,0,.27-.67,13.63,13.63,0,0,0-1.91-1.87,3.24,3.24,0,0,0-1.87-.76C50.62,36.86,50.57,36.92,50.54,37.23Zm0,6.62c.27.26,1.16-.22,1.44-.78a1.41,1.41,0,0,0-.13-1.34c-.37-.55-.49-.52-.57.12a4.82,4.82,0,0,1-.44,1.25A2.25,2.25,0,0,0,50.49,43.85Zm-3.14,5.46c0-.21.12-.19,2.62.46.17,0,.24,0,.17,0a3.3,3.3,0,0,0-.85-.29c-1-.25-1.28-.38-1.28-.51s.36-.18,1.22-.06c.23,0,.42,0,.42,0s-.62-.27-.85-.24-1-.21-1-.32a4.33,4.33,0,0,1,1.69-.11c.56,0,.21-.13-.57-.29-.41-.08-1.92-.19-3.36-.25s-3.07-.16-3.63-.23a14.77,14.77,0,0,0-2.46,0L38,47.43v.29c0,.28,0,.29-.66.25s-1.07.09-1.26.36,0,.27.3.16a7.71,7.71,0,0,1,1.21-.17c.88-.07.93-.06.89.14s-.24.25-1,.42c-1.11.25-1.66.47-1.75.7s0,.25.51.12l1.29-.31c.87-.21,1.1-.2,1.1,0s-.28.34-1.44.65a5.64,5.64,0,0,0-1.11.38c-.22.21,0,.2.74-.06a8.68,8.68,0,0,1,1.37-.33,3,3,0,0,0,.82-.19,9.45,9.45,0,0,1,2.13-.42c.47,0,4.37.12,5.57.18.79,0,1.07,0,.9,0A.36.36,0,0,1,47.35,49.31ZM36.14,51.89c-.32,0-.8.18-.8.32s.08.13.6-.11C36.27,52,36.32,51.9,36.14,51.89Zm1.78-7.68c-.33-.13-.7-.09-.76.08s.07.2.64.07C38.07,44.3,38.09,44.28,37.92,44.21Zm0,.87c-.17-.07-.72.08-.72.2s.45,0,.7,0S38.09,45.14,37.92,45.08Zm-.23-1.82c.1-.16,0-.33-.28-.33s-.36.19-.11.32S37.6,43.39,37.69,43.26Zm-.49-1.08c0-.19-.34-.11-.48.12s.06.47.29.21A.72.72,0,0,0,37.2,42.18Zm-.76,3.42a.43.43,0,0,0-.08.36c0,.17,0,.17.06,0a.58.58,0,0,1,.26-.36c.18-.13.19-.17.06-.17A.45.45,0,0,0,36.44,45.6Zm-.12,1.7a.11.11,0,1,0,.11-.11A.11.11,0,0,0,36.32,47.3Zm2.06-2a.48.48,0,0,1,.13.3c0,.15.41.17,3.52.19,1.94,0,3.8,0,4.15.09s.63,0,.63,0a4.68,4.68,0,0,0-1.42-.19c-1-.06-1.42-.12-1.42-.22s.24-.27.68-.27.3-.13-.22-.2a4.57,4.57,0,0,0-2.19.11c-.22.15-.49.17-1.77.14-.83,0-1.55,0-1.6-.06h-.36C38.31,45.11,38.27,45.14,38.38,45.25Zm.25-.57c.12,0,.19,0,.15-.11a.39.39,0,0,0-.29-.11c-.12,0-.18,0-.15.11A.39.39,0,0,0,38.63,44.68Zm2.55-.11c-.31.08-.3.08.13.09a.88.88,0,0,0,.53-.09C41.91,44.44,41.67,44.44,41.18,44.57Zm.42-1.06c.13-.13.08-.25-.09-.18s-.16.1-.16.16S41.5,43.62,41.6,43.51Zm.63.82h.54c.7,0,.84-.11.5-.34s-.3-.16-.66.08Zm1.3-1.51c.19-.15.22-.21.1-.22a.48.48,0,0,0-.29.13.28.28,0,0,1-.47-.23c0-.12,0-.23-.1-.23s-.11.1-.11.22-.06.22-.13.22-.1,0,0,.1A.89.89,0,0,0,43.53,42.82Zm3.06,2c-.51,0-.7,0-.77.08a.28.28,0,0,0,0,.24.15.15,0,0,0,.13.06l.84-.08C47.63,45.05,47.56,44.93,46.59,44.82Zm.11-.8a.1.1,0,0,0,.11-.1.23.23,0,0,0-.11-.17c-.06,0-.11,0-.11.1S46.64,44,46.7,44Zm-2.41,2.73a.11.11,0,0,0,0,.22.11.11,0,1,0,0-.22Zm-1,0a3.17,3.17,0,0,1-.63-.16c-.06,0-.11,0-.11,0s.08.14.17.18a2.51,2.51,0,0,0,.63.05l.45,0Zm4.63.44c.55,0,.51-.06-.11-.15-.31,0-.45,0-.41,0A.9.9,0,0,0,47.92,47.19Zm1.62-4.79c-.54-.16-.53-.17-.47.15s.12.27.41.27C50,42.82,50.05,42.55,49.54,42.4Zm-.06,2.11c-.21.15-.2.16.08.16s.3-.05.3-.16S49.74,44.31,49.48,44.51Zm-.93,1.29s.19.08.43.08a4.47,4.47,0,0,1,.76.07c.21,0,.34,0,.34-.05s-.33-.13-.76-.15A1.74,1.74,0,0,0,48.55,45.8ZM50,48.86a.22.22,0,0,0-.21,0s0,.06.15.06S50.08,48.9,50,48.86Zm-.23,1.6a3.23,3.23,0,0,0,1.36.45c0-.06-.25-.2-.62-.33C49.79,50.35,49.47,50.29,49.76,50.46ZM50.81,49c-.11-.2-.16-.22-.32-.09s-.18.15.08.31S51,49.3,50.81,49Zm0,.84a.11.11,0,0,0,0,.22.11.11,0,1,0,0-.22Zm.31-4.42.24-.13L51.14,45c-.35-.33-.53-.3-.45.07S50.86,45.54,51.15,45.39Zm-.8,2.8s0,.1.14.14.16.05.06-.06S50.39,48.16,50.35,48.19Zm-.16-13a.25.25,0,0,0-.11-.17c-.06,0-.11,0-.11.11s.05.17.11.17A.11.11,0,0,0,50.19,35.18Zm2.08-.29a1.73,1.73,0,0,0-.47-.65,1.41,1.41,0,0,0-1.67-.45c-.3.15-.35.23-.33.5,0,.61.23.55.3-.1,0-.37.38-.41.54-.06.09.2.17.25.26.17s.46,0,.54.27a.61.61,0,0,0,.4.38C52.28,35.1,52.27,35.1,52.27,34.89Zm5.89,1.24c0,.25.05.28.3.18s.18-.36,0-.59-.12-.14-.22,0A.89.89,0,0,0,58.16,36.13Zm-1.25.75a4.68,4.68,0,0,1-1.67-1.12A2.28,2.28,0,0,0,53.85,35c-.49-.13-.56-.13-.68,0-.26.35-.16.54.43.85s.58.28.7.11.49-.11.46.33.24.82.5.61.45-.08.45.33,0,.37.32.38.34.06.36.18.14.17.33.16.3,0,.3.34.07.41.48.68a1.86,1.86,0,0,0,.76.33.61.61,0,0,0,.56-.57A7,7,0,0,0,56.91,36.88Zm.49-1.24c0,.45.18.36.24-.11a1.4,1.4,0,0,0,0-.46C57.56,35,57.4,35.34,57.4,35.64Zm-5.32-5.31a.5.5,0,0,0,.49.19c.32-.08.38.11.25.78s-.06.76.15.47a.51.51,0,0,1,.37-.2c.18,0,.23.08.26.41s.08.41.37.49.36.16.47.59.16.49.37.44.46,0,.62.53.28.67.38.5a1,1,0,0,1,.56-.12c.4,0,.51.05.57.23s.11.21.22.07.09-.27-.1-.69a6.69,6.69,0,0,1-.32-1c-.29-1.52-.67-2.45-1.16-2.82a2.9,2.9,0,0,1-.79-.77c-.14-.18-.33-.34-.41-.34a.26.26,0,0,1-.22-.17,1.55,1.55,0,0,0-.63-.44c-.54-.25-.56-.25-.72-.05a.77.77,0,0,1-.43.24c-.24,0-.29.13-.41.73S51.84,30.08,52.08,30.33Zm-1.35-3.24a3,3,0,0,1,.07,1.29c0,.53-.09,1.1-.1,1.27s0,.34.12.37.36-.43.37-.95a2.78,2.78,0,0,1,.12-.72,2.07,2.07,0,0,0-.42-1.63C50.62,26.62,50.58,26.72,50.73,27.09Zm-1.07,2.75c.38.24.55-.07.61-1.13,0-.69,0-.95-.11-1.11s-.17-.14-.24.65a4.24,4.24,0,0,1-.24,1.18C49.54,29.69,49.54,29.76,49.66,29.84Zm-.52,1.3a4.69,4.69,0,0,1-.21,1.07.86.86,0,0,0,0,.75c.13.41.13.41.52.21a4.2,4.2,0,0,1,.75-.29c.61-.18,1.25,0,2.06.77a2.21,2.21,0,0,0,1,.58c.48.08.68.09.68,0s-.34-.4-.76-.84a7.25,7.25,0,0,1-1.64-2.48c0-.17-.09-.19-.68-.18s-1-.09-1.25-.38S49.21,30.37,49.14,31.14Zm-.57-3.9c.21.06.22.11.16.64,0,.32-.1.74-.14.94s0,.35.16.35.41-.36.45-1.09S49.07,27,48.66,27,48.22,27.15,48.57,27.24ZM48,28.32c0,.08.06,0,.06-.13s0-.21-.06-.14A.42.42,0,0,0,48,28.32Zm-1,2.14c0,.05.14.19.3.31s.31.21.49,0,.25-.34-.12-.26c-.18,0-.35,0-.39,0S47,30.33,47,30.46Zm-.87.55a2.15,2.15,0,0,0,.53.76c.29.23.47.17.33-.11S46.15,30.85,46.15,31Zm-.43-3.84a.36.36,0,0,0,.15.24c.12.11.16.05.22-.27a.87.87,0,0,0,0-.46C46,26.61,45.72,27,45.72,27.17Zm-1.86,1.56a3.73,3.73,0,0,0,.82.6c1.09.66,1.2.65.88-.08-.21-.49-.68-.95-1-.95S43.86,28.58,43.86,28.73Zm-.33-1.11c0,.27.06.3.17.12a.21.21,0,0,0-.05-.24C43.56,27.41,43.53,27.44,43.53,27.62ZM40.7,28.74c-.18,0-.56.31-.56.47s.31.07.66,0a3.51,3.51,0,0,1,.76-.1c.71,0,.86-.13.62-.49s-1-.41-1.16-.06A.43.43,0,0,1,40.7,28.74ZM40,27.06l0,.34.19-.37c.21-.42.26-.92.08-.92s-.11.12-.11.27,0,.28-.11.3S39.93,26.87,40,27.06Zm-.13.88a.13.13,0,0,0,.11.14c.06,0,.11-.14.1-.3s0-.26-.1-.14A.69.69,0,0,0,39.82,27.94Zm-1,1.81a.14.14,0,0,0,.14.19c.1,0,.17-.1.17-.23S38.91,29.48,38.85,29.75Zm-.47,1.58a3.35,3.35,0,0,1,.15.35c0,.14.07.13.14,0s0-.52-.22-.52S38.31,31.19,38.38,31.33Zm-1-4.43a1,1,0,0,0,.11.47,2.83,2.83,0,0,1,.16.82,4.12,4.12,0,0,0,.11.82.69.69,0,0,1-.11.73c-.16.22-.17.3-.06.34.27.11.61-.24.61-.61C38.18,28.69,37.54,26.71,37.36,26.9Zm0,10.06c-.17-.07-.37.12-.37.36,0,.07.13.16.28.2.39.09.3.4-.15.52s-.43.17-.17.36.12.36-.25.49-.36.44-.11.44.4.25.31.4a.85.85,0,0,1-.38.24c-.3.11-.61.6-.48.74s.14,0,.23-.07.74-.11.8.08-.09.19-.24.26-.68.71-.57.82a2.56,2.56,0,0,0,1.16-.7c0-.08.13-.2.29-.27s.3-.1.37,0a.38.38,0,0,1-.33.54c-.12,0-.22.05-.22.1a.73.73,0,0,1-.06.26c-.09.23.28.34.44.12a.32.32,0,0,1,.59.16c0,.18,0,.27-.19.31s-.29.19,0,.41.36.5.06.58-.28.21.05.29.44,0,.41-.17.08-.19.6-.23a2.53,2.53,0,0,1,.82.05c.29.14.24-.1-.1-.55s-.27-.39-.11-.51a.66.66,0,0,0,.18-.48c0-.37.17-.43.57-.22s.35,0,0-.37a1.22,1.22,0,0,0-.63-.42c-.21,0-.3-.1-.3-.26s.07-.21.44-.21a3.06,3.06,0,0,1,.65.09c.25.1-.86-1-1.19-1.19s-.13-.38.26-.38a3.18,3.18,0,0,1,1.56,1.13c.33.38.36.78.06.78-.11,0-.19,0-.19.08V41s.18.12.4.13c.49,0,.52.18.11.63a2,2,0,0,0-.3.39.83.83,0,0,0,.42.06c.32,0,.43-.06.51-.25A1.91,1.91,0,0,1,44,41.18a1,1,0,0,1,.52.1c.12.2-.08.46-.4.52l-.33.07.36.15c.29.12.34.19.28.4a1.92,1.92,0,0,0,.08.74l.15.48.12-.3a.73.73,0,0,1,.32-.38,1,1,0,0,0,.33-.24c.12-.15.15-.15.3.05s.15.23,0,.39a.76.76,0,0,0-.25.43c0,.22,0,.27.24.3s.28,0,.28-.22.06-.26.23-.28.25,0,.26.1,0,0,.1-.1c.14-.34.24-.31.78.25s.59.55.85.39.19-.13-.46-.44c-.4-.19-.52-.3-.52-.49s.32-.48.43-.29a2.13,2.13,0,0,0,.53.29,1.31,1.31,0,0,1,.62.47c.14.26.16.27.23.09s-.21-.57-1.25-1.14c-.24-.14-.45-.32-.45-.4,0-.25.45-.28.9,0,.7.35.71.18,0-.51-1.07-1.11-.68-1.27.77-.31,1,.65,1.12.65,1.12,0,0-.26,0-.3-.36-.3s-.46-.1-.87-.52-.65-.91-.39-1.07c.07,0,.2,0,.3.15a4.64,4.64,0,0,0,1.23.9s.09-.13.09-.29a1.94,1.94,0,0,0-.54-.92c-.37-.45-.51-.71-.47-.86s.12-.22.2-.22.2-.32.09-.73A.93.93,0,0,0,49,37c-.47-.23-.54-.42-.21-.59a.43.43,0,0,1,.44,0c.19.1.22.08.22-.16s-.06-.28-.23-.28-.65-.19-.65-.33.13-.16.27-.21.26-.15.18-.36a.41.41,0,0,0-.3-.26,1.17,1.17,0,0,1-.47-.15c-.25-.13-.25-.14-.06-.29a.77.77,0,0,1,.31-.15c.05,0,0-.07,0-.16s-.17-.13-.43.06A.9.9,0,0,1,46.9,34c-.19-.23,0-.4.57-.43s.83-.25.65-.7c-.12-.28-.19-.33-.38-.26a1.9,1.9,0,0,1-1.4-.14,2.23,2.23,0,0,1-.69-.83c-.43-.81-.53-.91-.75-.74a.36.36,0,0,1-.34.07c-.15-.05-.17-.15-.11-.5s0-.54-.24-.31-.44,0-.48-.25-.09-.26-.75-.25a8.11,8.11,0,0,0-1.12.08c-.33.07-.4.13-.4.36s-.27.35-.59.07-.21-.18-.14.12c.17.68-.27,1-.51.4-.07-.18-.16-.33-.21-.33s-.3.51-.3.87a2.13,2.13,0,0,1-.16.69c-.14.32-.26.41-.85.62-.38.13-.84.31-1,.4-.43.18-.48.48-.08.48.15,0,.31.07.34.16s.16.14.38.09.33,0,.38.12c.11.28.4.21.7-.16s.66-.36.66,0c0,.5-.84,1.05-1.18.77a.88.88,0,0,0-.44-.15.62.62,0,0,1-.39-.18c-.08-.13-.16-.13-.46,0-.47.21-.5.47-.06.38.25-.05.35,0,.44.16s0,.42-.48.49l-.33,0,.36.09c.46.11.66.44.36.6a1.3,1.3,0,0,1-.49.11c-.4,0-.35.2.1.39S37.92,37.18,37.35,37ZM34.91,42.5c.26-.31.34-.35.48-.23a.53.53,0,0,1,.17.34.32.32,0,0,0,.11.26c.18.12.12-.25-.11-.7a2.14,2.14,0,0,1-.22-.6c0-.24-.26-.21-.5.06a.42.42,0,0,1-.44.16c-.65-.16-.75.25-.26,1.1a3.22,3.22,0,0,0,.43.64c.16.1.24-.12.13-.4S34.66,42.8,34.91,42.5Zm.19-1.82c.19,0,.16-.44,0-.52-.44-.17-.71,0-1.58.72a4.26,4.26,0,0,1-1.09.8,3.75,3.75,0,0,0-1.31,1.15c0,.12-.06.14.75-.23a3.7,3.7,0,0,1,1-.33c.22,0,.26-.05.26-.34a.91.91,0,0,1,.17-.54A6.88,6.88,0,0,1,35.1,40.68ZM36,37.82c.07-.34,0-.37-.31-.52a2.33,2.33,0,0,0-1.74.05,4.7,4.7,0,0,0-1.59,1.59,2.43,2.43,0,0,0,.44.9c.15.24.41.37.27.14a.5.5,0,0,1,0-.34c.06-.18.13-.21.38-.17s.31.05.29-.34,0-.41.2-.44.27.06.36.25c.15.34.37.36.33,0-.08-.61.37-.69.62-.11l.18.41.24-.54A5,5,0,0,0,36,37.82Zm-.27-2.91c0-.41.29-.64.51-.35s.14.13.12-.44,0-.63-.34-.62a2.91,2.91,0,0,0-1.32.38,1,1,0,0,0-.31.87c.09.29.35.26.39,0s.11-.24.31-.24.28.05.31.43a1.33,1.33,0,0,0,.13.54C35.69,35.58,35.8,35.29,35.76,34.91Zm-1.67,1.14-.17.33h.88c.92,0,1-.08.41-.36S34.27,35.69,34.09,36.05Zm2.75-6.89c.2.68.25.68.25,0s-.09-1.08-.23-1.08S36.7,28.66,36.84,29.16Zm-1.19-.74c.06.48.12.64.18.5s0-1.44-.17-1.31S35.59,28,35.65,28.42Zm-.09,1.3a.11.11,0,0,0,.11.11c.07,0,.09,0,0-.11s-.09-.11-.11-.11S35.56,29.66,35.56,29.72Zm-2.81,3.79c-1.07,1-1.36,1.38-.89,1.11a3.23,3.23,0,0,1,1.46-.06c.19.06.25,0,.41-.47A1.83,1.83,0,0,1,34.83,33c.65-.13,1.56-.31,1.68-.35s.14-.18.14-.35a.66.66,0,0,1,.12-.42c.08-.09.08-.31,0-.8s-.15-.67-.36-.6a1.79,1.79,0,0,1-1.14.08c-.31-.11-.32-.1-.45.33A6.94,6.94,0,0,1,32.75,33.51Zm.3-1.55c.06,0,.11,0,.11-.11s0-.17-.11-.17a.11.11,0,0,0-.11.11A.25.25,0,0,0,33.05,32Zm-4,1.66c.21.41.44.48.34.11-.25-.93-.16-1.37.23-1,.15.13.16.09.09-.43s-.06-.57.13-.57c.46,0,.76,1.35.42,1.81a.89.89,0,0,0-.17.45c0,.41-.13.58-.41.58s-.27,0-.21.34a3.23,3.23,0,0,1,.07.5c0,.23.31.17.45-.1a6.48,6.48,0,0,1,.59-.79c.56-.67.71-.94.71-1.3s.15-.44.41-.3a.58.58,0,0,0,.41,0c.18-.06.22-.17.22-.72s0-.64.27-.64.28-.06.33-.44.1-.43.27-.43a.46.46,0,0,1,.36.3c.2.42.35.27.35-.37a2.34,2.34,0,0,1,.1-.73,3.14,3.14,0,0,0,.24-1.55c-.07-.37-.09-.39-.63-.42a1,1,0,0,0-.9.26.67.67,0,0,1-.58.23,1.38,1.38,0,0,0-1.15.52.73.73,0,0,1-.44.28c-.41,0-1.43,1.53-1.44,2.14a.49.49,0,0,1-.12.33A3.55,3.55,0,0,0,29.06,33.62Zm-.81,1.23c.31.54.48.56.4,0s-.33-1-.46-1S28,34.41,28.25,34.85Zm-.77-.05a.28.28,0,0,0-.11-.22c-.06,0-.11,0-.11.15s0,.23.11.23S27.48,34.89,27.48,34.8Zm.76,1.52c0-.27-.31-.6-.5-.52s-.32.76-.15,1a.42.42,0,0,0,.21.16C28,36.92,28.24,36.52,28.24,36.32Zm1.33,1.83c0-.43.08-.52.27-.55s.25,0,.31.41.25.6.25.2.23-.85.46-.85.22.07.22.33.07.38.36.27c.13-.05.12-.13-.05-.48s-.15-.9.18-1,.22,0,.33.61c.07.46.12.49.39.24s.19-.2,0-.55-.17-.39,0-.61.63-.2.52.13c0,.12,0,.22,0,.22s.85-1.27.71-1.36a3.86,3.86,0,0,0-1.92.46,3.28,3.28,0,0,1-.84.35,1.34,1.34,0,0,0-.58.39c-.22.21-.45.38-.53.37-.42-.06-.63,0-.78.32a1.26,1.26,0,0,1-.5.47c-.33.16-.35.2-.37.89a3.26,3.26,0,0,0,0,.73s0,0,0-.11.1-.11.22-.11.22-.06.23-.14,0-.28,0-.46.06-.33.29-.33.28.06.31.36C29.26,38.89,29.53,38.77,29.57,38.15Zm1.85.69c-.14-.08-.46,0-.39.17a.29.29,0,0,0,.43,0A.13.13,0,0,0,31.42,38.84Zm-2,3.71c-.35-.27-.37-.32-.23-.46s.21-.14.38,0c.37.19.46.14.39-.21s0-.42.52-.14c.29.17.33.17.5,0s.17-.2,0-.39c-.38-.42-.14-.56.5-.29.13,0,.21,0,.26-.13a1.07,1.07,0,0,1,.28-.37c.18-.14.2-.22.1-.4s-.27-.23-.73-.29a3.85,3.85,0,0,1-.81-.17c-.24-.13-.56.19-.82.81a3.46,3.46,0,0,1-.64.91,10.69,10.69,0,0,1-1.86,1.46c-.06,0,0,.15.08.25s.22.32,0,.5-.22.11-.46,0l-.38-.19c-.13-.06-1.18,1-1.18,1.17A1,1,0,0,1,25,45c-.39.37-.42.67-.14,1.61a2,2,0,0,0,.26.65c.14,0,.42-.42.42-.64s.21-.31.42-.1.17.09.31-.05.16-.23,0-.52c-.21-.5,0-.68.38-.33.2.19.31.23.4.14s.06-.22-.11-.5-.31-.84-.08-.84a1.11,1.11,0,0,1,.47.4c.19.24.37.37.45.32s.15-.38-.16-.79-.21-.72.31-.33.75.37.38,0-.39-.67,0-.67a.58.58,0,0,1,.4.16.43.43,0,0,0,.29.16c.2,0,.19-.26,0-.43s-.06-.36.4-.29S29.88,42.93,29.38,42.55Zm0,5.23a4.21,4.21,0,0,1-.39-.17c-.22-.12-.27-.1-.44.25a.84.84,0,0,1-.45.34c-.78.25-1.66,1.54-2.09,3.06a4.83,4.83,0,0,0-.09,1.94,1.38,1.38,0,0,1-.16.66,2.48,2.48,0,0,0-.22.77c0,.22.12.36.6.67l.61.4.15-.38c.23-.53.2-.77-.11-1A1,1,0,0,1,26.5,54a1.14,1.14,0,0,1,.5,0c.62,0,.74-.18.27-.45s-.44-.5-.23-.63a.91.91,0,0,1,.52.22l.41.28.2-.25c.2-.24.2-.25-.05-.44a1.57,1.57,0,0,0-.55-.27c-.4-.08-.61-.32-.43-.5s.25-.08.66.06a3.13,3.13,0,0,0,.67.19c.29,0-.47-.55-.95-.68-.26-.07-.48-.19-.48-.27s.52-.28,1-.1.65.22.65,0-.2-.25-.8-.44a.23.23,0,0,1-.16-.26c0-.18.33-.23.76-.13.1,0,.2,0,.22-.06s-.23-.21-.54-.33c-1-.37-.53-.71.56-.43.49.13.33-.27-.23-.58-.26-.14-.47-.3-.47-.35s.44-.19.78-.1.44,0,.62-.37S29.53,47.83,29.36,47.78Zm2.49-2.42c-.12-.08-.22-.19-.22-.25s.76-.14,1,0,.45,0,.45-.14a1.68,1.68,0,0,0-.46-.52c-.25-.21-.41-.42-.35-.46a1.57,1.57,0,0,1,.69.2c.7.33.7.33.6,0s-.18-.38-.66-.72-.57-.3-1.19,0a5.51,5.51,0,0,0-1.9,2.26c-.35.69-.41,1-.24,1a4,4,0,0,0,.81.1c.7,0,.72,0,.85-.27s.1-.35-.11-.58-.16-.43.48-.33S32.26,45.61,31.85,45.36Zm-.71,17c-.34-.63-.45-.66-.91-.3a3.26,3.26,0,0,1-1.55.8,4.11,4.11,0,0,0-.93.33.94.94,0,0,1-.49.14.58.58,0,0,0-.42.23c-.21.22-.23.3-.13.5s.08.27-.19.53a4,4,0,0,0-.51.6,1,1,0,0,1-.51.37c-.44.08-.59.31-.47.66s.18.3.5.32a.75.75,0,0,0,.54-.13.81.81,0,0,1,.54-.16.81.81,0,0,0,.49-.11c0-.06.18-.11.32-.11.37,0,.45-.2.2-.53-.44-.59.05-.79.53-.21.25.3.31.33.46.2s.22-.33-.12-.68-.27-.33-.13-.48.21-.12.6.16.44.32.57.11.11-.21,0-.21-.28-.17-.68-.79c-.18-.27-.18-.3,0-.37a.44.44,0,0,1,.4.14,1.08,1.08,0,0,0,.7.21c.43,0,.48,0,.46-.21s0-.24.32-.27C31.25,63.1,31.38,62.87,31.14,62.41Zm1.4-1.09c0-.1-.1-.34-.37-.64-.44-.48-.44-.69,0-.55.19.06.2,0,.09-.24a1.93,1.93,0,0,0-.43-.62c-.32-.31-.34-.51,0-.51.08,0,.15-.1.15-.22s-.15-.29-.49-.46c-.54-.26-.64-.52-.2-.52.28,0,.28,0,.11-.2s-.23-.33.39-.36l.58,0-.58-.3c-.71-.38-.7-.59,0-.53.49,0,.51,0,.41-.18a2.41,2.41,0,0,0-.48-.51l-.49-.39c-.29-.24-.14-.35.36-.28s.5,0,.46-.07-.1-.14-.15-.14a2.39,2.39,0,0,1-.59-.4c-.32-.26-.45-.45-.4-.56s.12-.16.4-.06c.45.16.51.07.23-.38s-.21-.51.12-.51.25-.4-.07-.61-.63,0-1,.71A8.64,8.64,0,0,0,30,56.31c0,2.06,0,2.11.52,3,.34.57.57.85.73.87a.55.55,0,0,1,.34.26c.06.12.23.4.37.62C32.21,61.51,32.43,61.61,32.54,61.32Zm.4-10.73a2,2,0,0,0-.63-.61c-.18-.1,0,.5.23.62S32.94,50.71,32.94,50.59Zm1.56-3.84c-.08-.29-.89-1-1.07-.91a3.51,3.51,0,0,0-1,1.57A3.27,3.27,0,0,0,32,49.33c.06.31.11.36.23.26s.23-.06.51.1.63.29.63.17a3,3,0,0,0-.4-.5c-.47-.5-.62-.74-.54-.83s.58.07.88.36.38.25.46.22.19-.44,0-.62c-.46-.38-.45-.9,0-.6.64.42.66,0,0-.76s-.44-.87.19-.44S34.57,47,34.5,46.75Zm.73-.66c0-.79-.61-1.26-1.16-.9-.27.17-.27.2-.09.3s.41.27.67.47C35.21,46.38,35.23,46.38,35.23,46.09Zm.65-1.56c.28-.46.28-.55,0-.37s-.22.19-.22.26-.1.16-.22.2-.22.12-.22.17C35.23,45.05,35.67,44.87,35.88,44.53Zm-.33,9.8c1-.48,1.69-.6,3.89-.67a13,13,0,0,1,3,.12,15.37,15.37,0,0,0,2.73.18,27.41,27.41,0,0,1,5.44.36c.44.22.8.32.8.22,0-.39-1.12-.85-2.88-1.22-.88-.18-1.17-.39-.7-.51a19.11,19.11,0,0,1,3.12.55c.14,0,.24,0,.24,0s-.42-.23-2.07-.53a11,11,0,0,1-1.31-.29l-.27-.11.27-.07a1.59,1.59,0,0,1,.65,0c.48.11,1.71.12,1.6,0A9,9,0,0,0,48.8,52c-.65-.13-1.42-.32-1.71-.41A4.21,4.21,0,0,0,46,51.45a7.7,7.7,0,0,1-1.38-.18,22.68,22.68,0,0,0-5.88.07,5.88,5.88,0,0,1-1,.21c-1.1.15-1.46.34-.59.32a2.05,2.05,0,0,1,.7.05c.16.15-.21.38-.74.45a4.64,4.64,0,0,0-1,.24,4,4,0,0,1-.71.25c-.26,0-.34.14-.37.37l0,.3.42-.28a3.78,3.78,0,0,1,2.31-.41c1.19.1.92.38-.51.5a2.45,2.45,0,0,0-1.69.59.45.45,0,0,1-.41.17c-.16,0-.22,0-.22.15C34.9,54.6,35,54.61,35.55,54.33Zm2.52,12c.87,0,1,0,.55-.17s-1.41-.2-1.5,0,.09.39.3.26A1.62,1.62,0,0,1,38.07,66.3ZM38,67c-.21,0-.33,0-.29.1s.07.11.09.1l.29-.1C38.33,67,38.32,67,38,67Zm1.07,3.16c0-.06-.07-.11-.17-.11s-.14,0-.1.11a.23.23,0,0,0,.17.11A.1.1,0,0,0,39.05,70.12ZM37.89,96.77c-.11-.26-.19-.33-.35-.29a.42.42,0,0,1-.4-.15c-.24-.27-.51-.3-.41,0s-1,.68-1.28.31c-.08-.09-.12-.18-.1-.2l.35-.18c.35-.18.39-.33.08-.33-.12,0-.22,0-.22.09,0,.32-1.48.38-1.61.06,0-.08-.19-.15-.35-.15a.68.68,0,0,1-.45-.17.33.33,0,0,0-.34-.1c-.28.09-.38-.23-.16-.48s.22-.39-.4-.54a2.16,2.16,0,0,0-2.12.33.91.91,0,0,0-.12,1,4.32,4.32,0,0,1,.34.45,2,2,0,0,0,.47.49c.26.17.3.17.42,0s.29-.17.69-.16c.62,0,.73.12.66.73,0,.18,0,.27.13.27s.18-.12.2-.29c.06-.58.66-.39.68.22v.29l.15-.35c.28-.62.56-.56.62.13s.31.59.44.08c.06-.24.15-.35.3-.35s.22.1.28.49c.1.66.27.67.42,0,0-.23.14-.3.33-.3s.27.06.3.3c.06.48.35.42,1-.23S38,97.11,37.89,96.77Zm5.9-5L43.72,91l-.37-.07a5.67,5.67,0,0,0-1.76.14.68.68,0,0,0-.54.4,1.19,1.19,0,0,0-.16.48c0,.07-.09.21-.24.3s-.25.24-.21.39,0,.24-.29.33-.32.14-.16.26a.37.37,0,0,1,.14.34c0,.18-.12.2-.56.17s-.52,0-.52.06.61.58.79.58,1,.68,1.13,1a.74.74,0,0,1-.4,1.1c-.24,0-.32.12-.32.32s-.38.6-.61.51-.13-.18-.08-.51a1.4,1.4,0,0,0-.23-1c-.18-.34-.25-.58-.18-.64s.5,0,.7.38.51.56.51.3c0-.5-.68-1.31-1.1-1.31a1,1,0,0,1-.44-.12c-.24-.13-.48,0-.87.57-.2.28-.2.28.13.65a2.8,2.8,0,0,1,.72,1.9c0,.51.11.81.23.9.39.31,1.4.09,2.29-.49a3.32,3.32,0,0,0,1.45-1.94c.19-.48.43-1.07.54-1.31A7,7,0,0,0,43.79,91.79Zm.67-7.54a2.54,2.54,0,0,0-1.38-.64,1,1,0,0,0-.94.26,1.69,1.69,0,0,1-.79.33c-.32,0-.59.23-.35.31s.13.46-.17.58-.28.13-.11.22.23.41-.09.54c-.16.06-.25.15-.21.22a.2.2,0,0,0,.22.06c.09,0,.18,0,.21,0s-.05.44-.28.51-.24.26.18.26.38,0,.38.2a.47.47,0,0,1-.51.46c-.16,0-.26.07-.26.16s.12.17.44.17.44,0,.44.16a.27.27,0,0,1-.19.23c-.55.17-.68.26-.62.42s.2.17.44.17.37,0,.35.19a.57.57,0,0,1-.29.31c-.38.19-.43.3-.11.23s.6.21.33.51-.16.21.63.12c.45-.05.95-.08,1.09-.08l.89.09c.51.06.62,0,.68-.1a.57.57,0,0,0,0-.34.48.48,0,0,1,.11-.4c.24-.35.22-.47-.16-.9s-.34-.67.07-.56c.22,0,.26,0,.26-.21s0-.3-.11-.33a.34.34,0,0,1,.07-.54c.13,0,.16-.17.12-.47a1.85,1.85,0,0,1,0-.65A2.23,2.23,0,0,0,44.46,84.25Zm.55-5a.7.7,0,0,1-.23-.42c-.07-.62-.87-1.48-1.37-1.48a8.51,8.51,0,0,1-.94-.13l-.7-.13-.26.32c-.36.44-.62,1.19-.46,1.34s.08.2,0,.39-.12.29.11.48l.25.2-.25.18-.26.18.27.21c.25.2.25.22.07.42s-.24.32,0,.39a.3.3,0,0,1,.22.3,1.14,1.14,0,0,0,.27.56,1.13,1.13,0,0,1,.27.57c0,.23,0,.24,1.09.26s1.12,0,1.33-.19.25-.21,0-.36-.16-.57.16-.48c.16,0,.26,0,.38-.26s.2-.43,0-.43-.52-.34-.45-.5.2-.16.37-.16c.35,0,.41-.18.13-.38s-.17-.17,0-.44S45.2,79.37,45,79.23Zm1.47-7.14c.67,0,.72-.2.16-.54a1.06,1.06,0,0,0-.83-.16c-.39.06-.43.1-.38.32s0,.29-.29.47a3.6,3.6,0,0,1-1.81.45,1,1,0,0,0-.68.17c-.19.17-.24.17-.83,0s-.64-.26-.64-.45A.44.44,0,0,0,41,72c-.22-.13-.06-.44.22-.44.44,0,0-.3-.54-.37-1.15-.15-2.08.24-1,.41.37.06.43.11.4.31a.36.36,0,0,1-.28.3c-.42.1-.33.27.17.34a1.56,1.56,0,0,1,.54.14c.13.13-.13.45-.39.49s-.23.1-.23.19.08.15.38.09.38,0,.38.13a.72.72,0,0,1-.18.39c-.15.16-.15.24,0,.51s.21.35.31.37a1.19,1.19,0,0,1,.39.59,1.32,1.32,0,0,0,.65.8c.71.41,2.17.41,2.42,0,0-.06.18-.11.31-.11a1.15,1.15,0,0,0,.6-.37c.28-.29.35-.44.32-.73s0-.38.3-.43.28-.09.19-.15-.15-.39.14-.46.35-.38,0-.65S46,73,46.38,73s.4-.15-.07-.42S45.84,72.09,46.48,72.09Zm-3.73-.3c.08.2.18.24.68.27s1.19-.21,1.19-.44a3.23,3.23,0,0,0-1-.08C42.67,71.54,42.66,71.54,42.75,71.79Zm5.86-4.07a2.06,2.06,0,0,0-.55-.11c-.38,0-1.4-.47-1.29-.58A.61.61,0,0,1,47.1,67c.15,0,.24,0,.2-.11a.92.92,0,0,0-.53-.11c-.68,0-.86-.16-.39-.36l.37-.16h-.57a1.28,1.28,0,0,1-.63-.12.25.25,0,0,0-.18-.11c-.06,0-.08,0,0,.1a.39.39,0,0,1,0,.28c-.07.16-.23.18-1.45.12a31.64,31.64,0,0,1-4-.29c-.5-.12-.67,0-.25.18s.45.42.16.58a.49.49,0,0,0-.19.41v.31l-.87,0c-.94,0-1.16.13-.93.4s.35.17.9.17c.87,0,1.27.15,1.06.39s-.34.16-.76.16c-.95,0-1,.28,0,.44l1.31.26,1.8.34a8.31,8.31,0,0,0,1.31.14l1.8-.1,1.67-.09c.18,0,.24-.07.22-.25s0-.26.22-.28.32-.24,0-.24-.42-.28-.29-.4a1.53,1.53,0,0,1,.42-.15l.36-.09h-.39c-.75,0-.79-.49,0-.5C48.44,67.85,48.82,67.81,48.61,67.72Zm-1-.78c.13,0,.16,0,.07-.06a.22.22,0,0,0-.21,0S47.52,67,47.63,66.94Zm2.89-2a.8.8,0,0,0-.38-.11c-.19,0-.19,0-.06.11a.8.8,0,0,0,.38.1C50.64,65.09,50.65,65.07,50.52,65Zm.65-1.85c0-.22-1.62-.53-3.33-.64-1.1-.08-1.41-.25-.63-.35.35,0,.37-.07.17-.13s-.23-.12-.18-.24.1-.2-1.65-.18a7.51,7.51,0,0,1-1.69-.15,14.64,14.64,0,0,0-1.73-.3c-1-.11-1.17-.11-1.37,0a2.18,2.18,0,0,1-.78.18c-.3,0-1,.06-1.5.11-.73.07-1,.06-1.14-.05-.31-.23-1.67,0-1.67.29a2.2,2.2,0,0,0,.85,0,5.84,5.84,0,0,1,1.67.13c.93.21,1.14.31,1,.49s-.27.11-.7.06a6.15,6.15,0,0,0-2-.05c-.26.08-.25.09.15.1.71,0,1.52.27,1.56.48s0,.19-.81.14a7.69,7.69,0,0,0-1.28,0c-.41.07-.42.09-.36.41a1.38,1.38,0,0,0,.17.44,18.43,18.43,0,0,0,4.21.67c.72,0,1.83.11,2.46.18a57.53,57.53,0,0,0,6.83.08c.08-.14-.09-.2-1-.33-1.13-.17-1.15-.18-.95-.39s.33-.16,1.47,0c.71.06,1.4.15,1.54.18.41.11.28-.16-.21-.4a10.71,10.71,0,0,0-2.68-.65c-.16,0-.25-.07-.25-.18s.13-.17,1.12-.12a5.59,5.59,0,0,1,1.71.29c.44.16.63.19.74.1A.35.35,0,0,0,51.17,63.14ZM38.51,60.93c.15,0,.21,0,.13,0a.32.32,0,0,0-.27,0C38.3,60.91,38.36,60.93,38.51,60.93Zm12.77,1.46c0-.21-.21-.38-.38-.31s-.16.1,0,.23S51.28,62.54,51.28,62.39Zm-.39-6A5.32,5.32,0,0,0,47.17,56a17.31,17.31,0,0,1-4.62-.29c-.57-.12-1.34-.27-1.69-.32a11.84,11.84,0,0,0-3.42,0c-.4.15-.4.15.44.16.67,0,.85,0,.85.17s0,.18-1.64.43c-1.37.21-2,.38-2,.56s.16.09.6-.07a3.81,3.81,0,0,1,2.34-.06c.2.24-.07.36-1,.44a4.17,4.17,0,0,0-1.1.19c-.47.24-1,.65-1,.82s-.06.21,1.37-.29a10.2,10.2,0,0,1,1.46-.4c.41-.06.47,0,.43.12s-.38.32-1.18.6c-1.49.53-2.08.84-2.08,1.11s.19.26,1.31-.09a6.71,6.71,0,0,1,2.46-.3,9.37,9.37,0,0,1,2.35.2l1.42.34a9.54,9.54,0,0,0,2.42,0,16.65,16.65,0,0,1,2.24,0,9.65,9.65,0,0,0,1.61.1c1,0,1.23,0,1.39.19s1.29.34,1.29.16-.09-.12-.21-.12a.36.36,0,0,1-.28-.11A7.88,7.88,0,0,0,48.66,59c-.45-.08-.79-.19-.76-.25.14-.26,2.63,0,3.51.33C51.93,59.25,51.45,56.87,50.89,56.42Zm2.92-4.61c.25-.16.29-.27.35-1a4.08,4.08,0,0,0-.56-2.68,5.61,5.61,0,0,0-1.06-1.6L52,46l-.43.15c-.36.13-.42.19-.4.45s.18.53.46.36.25-.12.36,0,.08.21-.1.45-.22.5.1.33.45.06.1.69a3,3,0,0,0-.34.73c0,.25.21.11.51-.34s.69-.67.69-.22-.67,1.23-.94,1.23c-.09,0-.15.12-.15.33s0,.32.07.32a2.58,2.58,0,0,0,.55-.39c.59-.48.83-.38.48.19s-.29.56,0,.48a.45.45,0,0,1,.38,0c.13.11.12.17,0,.4a.45.45,0,0,0-.05.54C53.37,52,53.43,52.05,53.81,51.81ZM53,46.1c.06,0,.08-.05,0-.11s-.08-.11-.11-.11,0,0,0,.11A.11.11,0,0,0,53,46.1ZM54.56,46c.23-.07.24-.09.09-.16s-.57,0-.56.1S54.23,46.09,54.56,46ZM57,63.46c-.13,0-.29.14-.39.34a.6.6,0,0,0,0,.71c.15.32.23.37.57.37s.39,0,.31.39l-.07.39.4-.08c.35-.06.39,0,.39.15a.4.4,0,0,1-.11.3.26.26,0,0,0-.11.22c0,.13.09.12.44-.06.54-.27.62-.27.71,0s.13.2.32.16a.37.37,0,0,1,.38.1c.14.17.08.26-.53.71-.24.18-.25.23-.12.39s.21.12.76-.43a2.57,2.57,0,0,1,.8-.6c.42,0,.08.79-.42,1-.34.13-.45.41-.24.62s.22.12.69-.18,1-.44,1-.18-.24.38-.72.69c-.17.11-.18.15,0,.24s.26,0,.55-.22.77-.42.77-.19a1.54,1.54,0,0,1-.28.5c-.2.26-.25.41-.17.49s.26.08.57-.15a.43.43,0,0,1,.36-.06c.17.07.17.1,0,.41s-.18.39.42,1.11a1.83,1.83,0,0,0,.56.52.49.49,0,0,0,.39-.37.72.72,0,0,1,.18-.3c.16-.18.15-.23-.18-.75a9,9,0,0,1-1-1.94.25.25,0,0,0-.17-.2.84.84,0,0,1-.27-.48,1.63,1.63,0,0,0-.58-.78A8.8,8.8,0,0,0,59.63,65a2.17,2.17,0,0,1-.83-.5A4.47,4.47,0,0,0,57,63.46Zm-2-10a2.21,2.21,0,0,0-.59-.46c-.16,0-.44.61-.44,1s0,.33.22.27a.3.3,0,0,1,.3.48c-.11.11-.09.17.06.28s.25.45,0,.54-.16.2-.16.4,0,.34.45.27.44-.07.41.18-.14.28-.39.36c-.45.13-.5.43-.06.34a.74.74,0,0,1,.46,0c.26.17,0,.49-.44.55s-.38.11-.38.27.06.22.58.19.58,0,.64.13c.12.31-.17.5-.74.5s-.53,0-.53.22.2.31.71.31.62,0,.58.26-.11.25-.66.28-.63.08-.63.19.36.38.86.38.6.1.49.38-.18.18-.6.15-.53,0-.53,0c0,.49,0,.51.41.54s.41.08.41.26-.1.23-.33.27-.34.11-.29.44c0,.13.21.13.51,0a1.81,1.81,0,0,1,.58-.11,1.34,1.34,0,0,0,.57-.12,2,2,0,0,0,.49-2.13,5.51,5.51,0,0,1-.27-1c-.14-.73-.46-2.09-.75-3.13-.12-.45-.28-1.11-.35-1.47A1.7,1.7,0,0,0,54.93,53.44Zm2.58-5.37c.12,0,.15,0,.12-.34a4,4,0,0,0-1.86-2.65,9.16,9.16,0,0,0-2.19-1.39c-.77-.34-.86-.29-1.32.67-.13.27.53.61.85.44s.79-.16.79.07a.49.49,0,0,1-.13.33c-.16.16,0,.18.37,0s1,0,1,.24a.46.46,0,0,1-.13.26c-.1.1,0,.14.16.2.73.18.59.7-.19.7-.51,0-.62.06-.54.29s.3.15,1,.15,1,0,1.15.22c.31.34.09.46-.6.33s-1-.07-1,.22.33.44.69.24A3.79,3.79,0,0,1,57.51,48.07Zm4.32,8a1.84,1.84,0,0,0,.59-.49,1.19,1.19,0,0,0-.2-.4c-.11-.16-.36-.63-.57-1a3,3,0,0,0-.62-.91.55.55,0,0,1-.25-.44,9.74,9.74,0,0,0-2.46-3.37,4,4,0,0,0-.91-.49c-.44-.14-.49-.14-.62,0a.47.47,0,0,0,.29.72.34.34,0,0,1,.11.65c-.35.19-.29.44.1.44s.53.26.28.53-.17.62.36.43c.29-.11.37-.11.45,0a.45.45,0,0,1-.32.6c-.18.06-.2.14-.15.48.09.51.19.57.6.37s.35-.14.43,0,.12.27-.26.57-.32.31-.23.4.23,0,.52-.16.67-.35.77-.17-.12.49-.53.71-.48.38-.19.64.23.18.58,0c.77-.47,1.08-.19.43.4-.35.33-.42.45-.33.6s.28.24.62,0,.46-.27.46,0a.7.7,0,0,1-.29.49l-.29.23.26.27c.27.29.43.35.43.15A2,2,0,0,1,61.83,56.07Zm3.1,4.06c-.18.2-.22.31-.14.39s.17.08.44-.42C65.4,59.77,65.25,59.79,64.93,60.13Zm4.94,1.38L69.42,61a6.23,6.23,0,0,1-.74-1.1,2.71,2.71,0,0,0-1.53-1.38,6.91,6.91,0,0,0-2.66-.8,7.41,7.41,0,0,1-1.91-.31c-.18,0-.28,0-.42.21s-.17.3,0,.58c.29.45.4.49.61.19a.69.69,0,0,1,.36-.27.28.28,0,0,1,.17.47c-.15.18-.2.75-.07.8s.19-.11.29-.29c.2-.35.5-.43.6-.17a.8.8,0,0,1-.13.48.77.77,0,0,0-.13.5c.08.18.52.25.52.07a1.63,1.63,0,0,1,.28-.44c.32-.37.76-.43.74-.08,0,.12.06.19.19.19.33,0,.38.32.11.81s-.23.45,0,.58.33.17.4-.17c.11-.57,1-1.21,1-.73a2.68,2.68,0,0,1-.55,1.09c-.16.1-.13.27.05.27s.27-.21.41-.46.34-.48.5-.5c.35-.05.43.26.15.64s-.28.51-.17.8.32.21.68-.15c.58-.57,1-.38.51.26l-.27.4.28.11c.36.14.32.15.54-.2a4.73,4.73,0,0,1,.46-.59Zm6.7,1.09A6.56,6.56,0,0,0,73.72,62c-.54,0-1.37-.1-1.84-.16-.82-.1-.86-.09-1.06.14a1.1,1.1,0,0,0-.1,1.11c.14.37.47.39.38,0s.2-.64.44-.54c.09,0,.16.18.16.33,0,.38.2.69.44.69s.2-.06.15-.31,0-.33.12-.38.26.06.47.41.49.6.62.39a.13.13,0,0,0,0-.17.41.41,0,0,1,0-.55c.06,0,.26.09.43.27a1,1,0,0,0,.48.34c.31,0,.51-.13.51-.34s.2-.27.52,0,.83.17.88-.14a.24.24,0,0,1,.26-.25C76.75,62.8,76.75,62.79,76.57,62.6Zm4.7.13a6.47,6.47,0,0,0-2.63-.36,8.21,8.21,0,0,0-1.26.07s0,.13.07.23.29.18,1.42.15a10,10,0,0,1,1.75.07C81.06,63,81.44,62.9,81.27,62.73Zm3.66.19a7.54,7.54,0,0,0-2.85.06c0,.07.13.18.3.24a8.23,8.23,0,0,0,2.42.14C85.28,63.28,85.34,63.09,84.93,62.92ZM47.79,57.29c-.12.14-.07.19.25.33a2.25,2.25,0,0,0,.7.16,6.86,6.86,0,0,1,1.12.23c1.27.35,1.42.37,1.42.17s-.44-.5-1.48-.72C48.22,57.13,47.94,57.11,47.79,57.29Zm1.86-.37c1.08.24,1.09.24,1.08,0a.74.74,0,0,0-.08-.34,4.63,4.63,0,0,0-2.36-.28c-1.34.13-1.19.46.21.47A6.45,6.45,0,0,1,49.65,56.92ZM44.7,62.21A18.79,18.79,0,0,1,42.79,62c-.87-.17-1.23-.14-.89.07a5.36,5.36,0,0,0,1.94.44c1.37.15,1.87.13,1.87,0S45.45,62.27,44.7,62.21Zm-1.39-5.78-1.69-.22c-.24,0-.67-.08-1-.13-.62-.09-.71.1-.16.33a29,29,0,0,0,5.8.58c.21-.14-.15-.3-.7-.31A17.36,17.36,0,0,1,43.31,56.43Zm.14-3.93c-.72,0-.9,0-.9.09s.2.26,1.2.34c.77.07.87.06.87-.11S44.54,52.57,43.45,52.5Zm-3-.44a24.56,24.56,0,0,1,2.74,0c2.86.25,3.53.27,3.48.1s-.34-.17-1-.22a9.65,9.65,0,0,1-1.41-.19,22.68,22.68,0,0,0-5.78.1C38.27,52.07,39,52.13,40.46,52.06Zm3.81,5.32a13.65,13.65,0,0,1-1.53-.09c-.35-.06-.52,0-.52,0s.11.18,1.22.4a2.64,2.64,0,0,0,1.51.07.42.42,0,0,0,.3-.23C45.28,57.43,45.09,57.39,44.27,57.38Zm-1.72,5.41c0,.15.3.23,1.2.33a1.91,1.91,0,0,0,.84,0,.2.2,0,0,0-.06-.21A4.68,4.68,0,0,0,42.55,62.79Z"/><path class="cls-1" d="M73.75,30.92c-.94,0-1.16-.1-1.44-.69a16.3,16.3,0,0,1-1.2-3.38.26.26,0,0,1,.18-.24c.15,0,.15-.1-.06-.49a3.12,3.12,0,0,1-.31-.95c-.07-.5-.07-.51.55-.89.44-.27.6-.44.54-.57a1.63,1.63,0,0,1-.07-.31c0-.09-.28-.11-.83-.06-.93.08-1,0-1.11-.79-.07-.48-.37-.91-.62-.91-.09,0-.19.33-.27.85a2.48,2.48,0,0,1-.28,1,2.91,2.91,0,0,1-1,0,25.51,25.51,0,0,1-3.73-.72c-.19-.12-.12-.39.12-.47a.28.28,0,0,0,.21-.33c0-.22-.12-.27-.61-.32l-.6-.06L63,20.87c-.21-.69-.4-.95-.59-.82a.35.35,0,0,0-.1.26,2.59,2.59,0,0,1-.43,1.27c-.14.14-.32.16-.77.1s-.58-.05-.58.17.12.29.34.38c.58.24.89.65.8,1.07l-.14.72q-.17.77.72-.18a2.36,2.36,0,0,1,.6-.54,2,2,0,0,1,.56.42c.49.47.87.46.78,0,0-.16,0-.3,0-.33a7.4,7.4,0,0,1,1.26.16c.84.15,1.23.28,1.37.44a5.08,5.08,0,0,0,.78.68l.59.46.06,1c.06.9.08,1,.33,1s.27,0,.27-.2.05-.21.12-.21.29-.25.51-.55l.38-.54.26.33a6.44,6.44,0,0,1,.95,2.84,1.89,1.89,0,0,1-.24,1.37c-.27.5-.33.54-.93.62-1.54.21-1.68.28-1.09.56a3.62,3.62,0,0,1,1.23,1A21.45,21.45,0,0,1,68,33.71c-1.13.76-2.42,1.63-2.86,1.94a29.74,29.74,0,0,1-4.2,2.71c-.33.06-.4,0-.77-.5a4.26,4.26,0,0,0-.53-.66c-.2-.13-.43.19-.46.66s-.09.59-.83.74-.85.37-.21.62c.26.1.48.23.48.28,0,.24-1.57.52-2.08.37a3.08,3.08,0,0,1-1.23-1.75c-.06-.24-.17-.36-.32-.36s-.24.15-.35.8a3.84,3.84,0,0,1-.21.88,2.55,2.55,0,0,1-.83.1c-1,0-1,.23-.16.85s.76.6.47,2a4.54,4.54,0,0,1-1.18,2.4c-.48.56-.68.54-.81-.07-.06-.27-.5-.71-.62-.6a4.14,4.14,0,0,0-.1.6c-.07.72-.14.81-.53.81a6.3,6.3,0,0,0-.77.08c-.55.09-.56.37,0,.63a5.41,5.41,0,0,1,.64.38l.28.21-.48,1c-.26.55-.62,1.42-.8,1.95a9.22,9.22,0,0,1-.42,1.07C49,51,48,53.39,47.71,54c-.08.25-.24.62-.33.84s-.34.86-.53,1.45C46,58.94,44.56,62,44.32,61.78a3.85,3.85,0,0,1-.58-1.26.33.33,0,0,0-.2-.28c-.35-.14-.57.14-.66.79a2.21,2.21,0,0,1-.17.72,2.22,2.22,0,0,1-.85.13A1.71,1.71,0,0,0,41,62c0,.06.25.42.65.78l.72.66-.27.56a4.68,4.68,0,0,1-.41.74.42.42,0,0,0-.09.36c.06.14.14.15.43.06a.73.73,0,0,0,.41-.3.27.27,0,0,1,.21-.17c.11,0,.12,1,.06,4.28a26.51,26.51,0,0,1-.3,5.12,3.82,3.82,0,0,1-.32.95,1.72,1.72,0,0,1-.7.15c-.78,0-.8.31-.06.58.29.11.55.29.57.39a2.41,2.41,0,0,1-.27.86,6.73,6.73,0,0,0-.3.72c0,.13.73-.08.91-.26s.22-.19.31.49a29.12,29.12,0,0,1-.17,5.59l-.16.47-.87,0c-.67,0-.86.07-.86.21s.38.62.92,1,.51.58.24.66l-1.63.46c-.82.23-2.15.59-3,.79-1.3.33-1.48.35-1.64.19a.75.75,0,0,0-.46-.18c-.49,0-.66-.14-1-.74-.39-.76-.65-.73-.87.1l-.16.61-.7.08c-.73.08-.93.21-.72.47.08.08.1.19.06.23s-6.85.1-7.45,0c-.25,0-.45-.11-.45-.15a2.08,2.08,0,0,1,.41-.52c.27-.31.38-.52.34-.69s-.15-.23-.75-.2a1.41,1.41,0,0,1-.9-.15A3.28,3.28,0,0,1,22,84.71c0-.6-.66-.76-.77-.19,0,.14-.09.49-.15.78s-.16.55-.23.57a49.65,49.65,0,0,1-4.58-4.65,4.94,4.94,0,0,1-.7-1.28,1.34,1.34,0,0,1,.42-.33c.45-.27.45-.43,0-.61-.25-.1-.27-.15-.16-.38a7.07,7.07,0,0,1,1.28-1.76,2.88,2.88,0,0,1,.76.65c.6.65.61.65.81.4s.21-.52.06-1.59c-.1-.69-.06-.74.84-1.06.73-.27.7-.23.51-.53s-.28-.25-.73-.25h-.57l.26-.39a11.93,11.93,0,0,1,2.7-2.58c.18,0,.4-.19.69-.6a2.63,2.63,0,0,1,.51-.6,2.75,2.75,0,0,1,.49.42c.37.36.46.4.63.27s.17-.2,0-.68-.17-.54,0-.66.76-.63.76-.77-.28-.12-.65-.12h-.65l-.3-.59a2.8,2.8,0,0,1-.3-.79c0-.1-.07-.17-.15-.14a2.9,2.9,0,0,0-.53,1.26c-.06.26-.36,0-.52-.53s0-.87.81-1.31l.61-.35a.59.59,0,0,0-.12-.27c-.1-.17-.33-.26-.81-.32S21.49,65.6,21,65l-.58-.62.09.48a1.43,1.43,0,0,0,.87,1.15l.47.3c.1.07-.28.42-.56.53s-.28.16-.21.58c0,.26,0,.47,0,.47a2.48,2.48,0,0,1-.61-.47c-.57-.53-.69-.57-.79-.27s-.53.79-.6.72.27-.78.42-.87-.43-1-.67-1.06-.17-.33.22-.26.92-.18.92-.66a1.34,1.34,0,0,1,.47-1c.17-.12.17-.17,0-.47-.27-.5-.51-.43-.61.2-.21,1.27-.25,1.37-.66,1.41a4.82,4.82,0,0,1-1.05-.09c-.64-.12-1.13,0-1.12.2a1.86,1.86,0,0,0,.59.41,2.3,2.3,0,0,1,.71.55c.11.21.06.23-.56.28-.38,0-1.41,0-2.31,0-1.23,0-1.67,0-1.83-.19a1.27,1.27,0,0,0-.83-.13l-.62,0-.46-.78c-.6-1-.76-1-.76,0s.08.84-1,1c-.73.15-.67.4.17.67.67.21.72.25.72.6a3.32,3.32,0,0,1-.11.75c-.18.61.21.5.74-.21s.6-.66,1.26,0c.51.47.82.29.45-.26a2,2,0,0,1-.23-.51c-.09-.36.28-.5,1.2-.48.37,0,1.6,0,2.73-.08,2.36-.1,2.25-.17,1.7,1a10.57,10.57,0,0,0-.43,1.08c-.07.29,0,.33.21.33s.5-.22.93-.65a2.61,2.61,0,0,1,.85-.66c.19,0,.47.29,1,1a1.3,1.3,0,0,0,.56.43c.19.07.35.19.35.28a11.73,11.73,0,0,1-2.41,2.79L18.15,74l-.48-1a4.56,4.56,0,0,0-.57-1c-.24,0-.47.47-.54,1.09-.13,1.1-.12,1.09-1,1L14.81,74v.33c0,.26.14.47.6.87l.59.54-.18.66c-.1.36-.2.8-.23,1-.07.53-.35,1-.53,1s-.23-.22-.31-.45c-.22-.67-.44-.58-.77.33l-.3.8-.77.06c-1,.08-1,.28-.12.78l.66.37,0,.72c0,.45,0,.76.1.81s.33-.14.59-.44l.47-.51.45.44a3.42,3.42,0,0,0,.88.61,13.8,13.8,0,0,1,2.16,2c2.53,2.64,2.57,2.72,1.45,2.47s-.9.27.52,1.17a2,2,0,0,1,.56.47,4.16,4.16,0,0,1-.35,1.16,7.25,7.25,0,0,0-.42,1.18h0c0,.37.39.18,1.15-.55l.76-.73.74.72c.66.65.77.72.95.58s.2-.19,0-.91c-.16-.52-.2-.8-.12-.88s8.34-.13,9,0c.3.07.33.12.33.66,0,.71.27.93.58.46.11-.16.3-.41.43-.57l.24-.28.32.26c.42.33.79.24.72-.18a.66.66,0,0,0-.17-.36c-.36-.23.55-.88.93-.67s.59,0,3.43-.76c1.24-.36,2.33-.65,2.42-.65s.13.09.1.21-.09.41-.13.66c-.07.41-.06.44.21.44s.49-.22.95-.72l.67-.72.45.33a5.13,5.13,0,0,1,.76.69c.27.31.34.34.51.2s.24-.35-.11-1.12a1.89,1.89,0,0,1-.23-.82,1.5,1.5,0,0,1,.48-.43c.4-.26.42-.3.26-.54s-.32-.27-.73-.3-.57-.07-1-.69L43.22,83l-.06-2.85a11.12,11.12,0,0,1,.07-2.84,1.44,1.44,0,0,1,.5.31c.55.46.69.25.44-.64s-.27-1,.28-1.1a1,1,0,0,0,.47-.21c0-.14-.77-.62-1-.62s-.3-.18-.41-.39-.21-.75-.19-4.14c0-4.47.11-5.94.35-6s.37.13.65.43.52.47.72.36.21-.2.16-.33a7.72,7.72,0,0,1-.18-.77,3.45,3.45,0,0,0-.17-.66c-.07-.13.06-.29.49-.59s.43-.74,0-.74a.21.21,0,0,1-.23-.24,20.79,20.79,0,0,1,1.19-3.21c.33-.75.95-2.29,2.07-5.12,1.66-4.22,2.72-6.31,3.19-6.31.11,0,.35.19.54.42.3.38.34.4.54.22a.48.48,0,0,0,.16-.39c0-.1-.08-.39-.13-.64-.07-.42,0-.45.28-.57s.58-.46.25-.71-.25-.21-.08-.55a10.41,10.41,0,0,1,.65-.94c.25-.32.57-.77.72-1a3.66,3.66,0,0,1,.49-.64c.24-.21.26-.21.69.12a4.19,4.19,0,0,1,.51.42,4.27,4.27,0,0,0,.57.39,1,1,0,0,0,.8.24c.31-.07.36-.16.19-.35a9.36,9.36,0,0,1-1-1.89c0-.34,2-1.59,2.28-1.42a.8.8,0,0,1,.1.47c0,.59.29.52.64-.16.11-.21.24-.38.3-.38a1.45,1.45,0,0,1,.46.42c.22.27.41.39.53.35s.16-.13,0-.66c-.23-.7-.2-.74,1-1.54.46-.31,1.17-.83,1.58-1.15s1.23-.91,1.84-1.32c2.75-1.85,4.52-3,4.62-3s.12.27.12.6c0,.53,0,.59.26.59a.83.83,0,0,0,.52-.32c.15-.18.3-.3.34-.26a3.24,3.24,0,0,1-.18,1c-.14.52-.33,1.26-.43,1.66a13.71,13.71,0,0,1-.88,2.57c-.23.45-.56.58-1.55.58a.93.93,0,0,0-.58.17c-.12.14,0,.22.37.43a8.37,8.37,0,0,1,.85.5c.34.23.34.24.26,1.18s-.08.93.16.93a.66.66,0,0,0,.45-.29c.11-.17.23-.3.29-.3.24,0,.41,1.23.41,3v1.85H70c-.72,0-.8.31-.14.57a2,2,0,0,1,.53.29,2.38,2.38,0,0,1-.12.78,2.31,2.31,0,0,0-.12.75c.12.12.47-.12.63-.44s.22-.33.4-.23a1.82,1.82,0,0,1,.49.48c.2.29.29.34.47.24s.2-.18.1-.51c-.26-.81-.25-.85.13-1s.37-.23.37-.51,0-.34-.52-.34a1,1,0,0,1-.68-.18,12.16,12.16,0,0,1-.6-4.46c.1-.15.15-.15.34,0s.62.17.62-.08a4.69,4.69,0,0,0-.18-.72c-.17-.56-.16-.6.07-.85a2.16,2.16,0,0,1,.59-.41.65.65,0,0,0,.39-.42c0-.27,0-.29-.66-.36s-.72-.1-.93-.57A2.81,2.81,0,0,1,71,38a34.72,34.72,0,0,1,1.08-4.62c.08-.13.19-.08.56.28s.83.56,1,.38a2,2,0,0,0-.22-.78c-.33-.82-.32-1.18,0-1.36a1.31,1.31,0,0,0,.7-.75C74.21,30.94,74.18,30.92,73.75,30.92Zm-11-8.4a3,3,0,0,1-.42.19c-.11,0-.2-.4-.1-.47a.84.84,0,0,0,.18-.28c.09-.25.32-.27.32,0a.39.39,0,0,0,.2.28C63.15,22.31,63.12,22.35,62.8,22.52Zm7.48,2.32c0,.1-.11.14-.29.1-.37-.07-.43,0-.74.56s-.49.65-.43-.12a1.83,1.83,0,0,0-.1-.95c-.16-.32-.42-.39-.5-.14s-.09.11-.21,0-.12-.27.59-.32.8-.12.86-.49.27-.26.32.09.23.56.71.48l.44-.07-.33.35A1.3,1.3,0,0,0,70.28,24.84ZM22.6,69.1c.4-.08.6.14.33.34s-.3.2-.48,0S22.28,69.16,22.6,69.1ZM12,67.22a.55.55,0,0,0-.37.18c-.17.2-.25.21-.42,0a2.33,2.33,0,0,0-.35-.29C10.6,67,10.6,67,10.9,67s.59-.24.5-.58.18-.32.41.1a.94.94,0,0,0,.29.35c.06,0,.1.08.1.18A.21.21,0,0,1,12,67.22Zm4.63,7.42c.33-.13.36-.18.36-.74,0-.34.05-.61.11-.61s.22.25.36.56a6.7,6.7,0,0,0,.53.94c.2.25.25.41.17.49s-.08.4,0,.92a2.84,2.84,0,0,1,0,.83s-.26-.19-.49-.47a2.37,2.37,0,0,0-.62-.57c-.13,0-.18-.13-.13-.29s-.05-.32-.31-.52a1.24,1.24,0,0,1-.37-.34S16.4,74.71,16.6,74.64Zm-1.28,6.27c-.2,0-.51-.26-.51-.43,0-.32-.37-.34-.61,0l-.23.29.07-.39c.07-.34,0-.4-.26-.52l-.33-.14.34-.07c.28,0,.38-.16.47-.49l.11-.41.16.38c.09.22.24.39.34.39s.15,0,0,.31-.1.33,0,.45a1.2,1.2,0,0,1,.32.4C15.35,80.79,15.37,80.91,15.32,80.91ZM23,87.67c-.55.47-.56.48-.4.85s.07.59-.31.2-.57-.4-.95.1-.58.53-.3,0c.43-.83.42-.91-.1-1.28s-.61-.53-.08-.53.55-.15.55-.64c0-.26.41-.89.52-.79a7.14,7.14,0,0,1,.35.74c.3.67.32.69.79.69.26,0,.48,0,.48.11A2.39,2.39,0,0,1,23,87.67Zm10.52.2c-.11-.12.07-.77.21-.77s.3.24.3.45S33.54,87.93,33.47,87.87Zm9.37-13.15c.1,0,.18.1.18.24s-.13.31-.28.16S42.66,74.72,42.84,74.72Zm.53,9.45c.26.53.43.67.85.67s.29.18,0,.4-.27.2-.06.74a1.4,1.4,0,0,1,.14.62s-.24-.14-.47-.39l-.42-.44-.58.49h0a3.82,3.82,0,0,1-.66.48s0-.28.17-.62l.24-.62-.42-.35c-.51-.41-.54-.57-.1-.49s.63-.07.73-.54S43.08,83.56,43.37,84.17Zm0-7.78s-.09-.06-.13-.12,0-.12,0-.12a.12.12,0,0,1,.13.12C43.38,76.33,43.35,76.39,43.33,76.39Zm-.08-.72c-.07,0-.09,0,0-.12s.1-.12.13-.12.05.06.05.12A.12.12,0,0,1,43.25,75.67Zm.92-11.83A2.41,2.41,0,0,0,43,63.17c-.2,0-.83-.64-.73-.74a.89.89,0,0,1,.46,0c.37.06.41,0,.55-.36s.29-.54.46,0a1.58,1.58,0,0,0,.45.64c.28.2.3.26.16.42s-.13.26,0,.5a1.92,1.92,0,0,1,.14.35C44.45,64.08,44.23,64,44.17,63.84Zm7.61-17.1a.84.84,0,0,0-.42-.23c-.19,0-.68-.32-.59-.39a2.83,2.83,0,0,1,1.11-.25c.08,0,.15.2.15.38a1.63,1.63,0,0,0,.09.53C52.24,47.05,52.07,47,51.78,46.74ZM56,42.05c-.73-.65-1-.68-1.27-.13s-.54.76-.37.36a6.13,6.13,0,0,0,.25-.86l.15-.63-.4-.31c-.4-.33-.44-.58-.06-.46s.65-.33.57-.64a.62.62,0,0,1,.1-.45c.17-.24.18-.23.4.63a.82.82,0,0,0,.6.7c.49.22.62.49.3.61s-.22.37.12,1.05a2.46,2.46,0,0,1,.25.63A3,3,0,0,1,56,42.05Zm4.59-2.82c-.19.19-.29.18-.37,0a.39.39,0,0,0-.35-.18c-.24,0-.28-.06-.28-.41,0-.51.14-.53.41-.06a.57.57,0,0,0,.47.35C60.78,38.89,60.83,39,60.61,39.23Zm10.68,8.11a.51.51,0,0,1,.18.26c0,.06-.08.1-.18.1s-.18-.11-.18-.25S71.14,47.22,71.29,47.34Zm.17-7.4c.47.05.46.18,0,.57-.29.22-.41.39-.38.57s0,.2,0,.13a1,1,0,0,0-.29-.27c-.28-.18-.52,0-.65.35,0,.12-.12.22-.18.22s-.15-.13-.12-.59c0-.24-.1-.38-.54-.66l-.56-.35.7-.12c.64-.11.72-.16.93-.57s.37-.46.61.22C71.06,39.83,71.15,39.91,71.46,39.94ZM73,31.8c-.4.36-.44.44-.36.8s.06.39-.12.24a.52.52,0,0,1-.2-.32c0-.17-.23-.28-.45-.2a1.47,1.47,0,0,0-.4.52c-.41.71-.64.59-.45-.24.12-.52.07-.73-.15-.73s-1-.6-.87-.69a1.71,1.71,0,0,1,.63-.08c.56,0,.56,0,.72-.53l.17-.52.25.3a4.61,4.61,0,0,1,.45.67c.18.33.27.38.72.38h.51Z"/></g></g></svg>