<svg xmlns="http://www.w3.org/2000/svg" viewBox="0 0 86.21 110.79"><title>Asset 543</title><g id="Layer_2" data-name="Layer 2"><g id="Layer_1-2" data-name="Layer 1"><path d="M40.56,100.78h.37v9.76l-7.72-8.48v8.43l-.42.29a2.32,2.32,0,0,1-.17-.61c0-3.11,0-6.23.24-9.44l7.38,8.2.32-.08Zm14.33,8c0-3,0-3,3-3h2v-.5H55v-4c1.87-.29,3.75.12,5.55-.24l0-.35h-6v9.65h6.23V110H55C54.93,109.47,54.89,109.14,54.89,108.81Zm15,1.64-.2.2a3.06,3.06,0,0,1-.72-.6c-.67-1-1.33-2-1.92-3.09s-1.56-.53-2.36-.51c-.19,0-.48.79-.52,1.23-.08.94,0,1.89,0,2.84h-.39V100.7a23.19,23.19,0,0,1,2.77,0,2.62,2.62,0,0,1,2.38,1.85,3,3,0,0,1-1,3.25c-.15.12-.31.22-.56.4Zm-1.47-7.09a2.22,2.22,0,0,0-2.27-2.1c-.6,0-1.21,0-1.84,0a2.37,2.37,0,0,0-.14.52c0,.75,0,1.5,0,2.25,0,1.93.12,2,2.09,1.74l.23,0A2.21,2.21,0,0,0,68.37,103.36ZM25.9,100.23l4.31,10.45c-.42-.18-.67-.22-.8-.36a2.45,2.45,0,0,1-.29-.61c-.38-.81-.61-2.14-1.19-2.32a12.29,12.29,0,0,0-4-.11c-.24,0-.52.46-.67.77-.41.85-.75,1.72-1.12,2.58l-.46-.19Zm2,6.39c-.66-1.66-1.27-3.17-2-5-.76,1.86-1.38,3.4-2,5Zm17,1a4.26,4.26,0,0,1,.64-5c1.62-1.83,3.65-2,5.84-.93-.06-.75-.43-1-1.82-1.17a5.1,5.1,0,0,0-3.45,9.33c1.7,1.08,4.21,1,5.4-.24C48.77,110.52,46.31,110.45,44.88,107.65Zm-31.58.54a4.23,4.23,0,0,1,0-5.1c1.56-2.25,3.75-2.43,6.21-1.45-.7-1.15-2.72-1.43-4.45-.76a5.06,5.06,0,0,0-3.15,5.47,4.83,4.83,0,0,0,4.47,4.28c1.77.14,2.83-.2,3.13-1.14C17.1,110.51,14.87,110.46,13.3,108.19Z"/><path d="M81.48,62.75a3,3,0,0,0-.79-1.2,15.34,15.34,0,0,0-10.81-4.29c-.57,0-1.58-.28-1.62-.54-.12-.94.82-1,1.49-1.16a6.34,6.34,0,0,0,.78-.18,24.56,24.56,0,0,0,4.39-1.87c2.14-1.41,3.25-3.35,2.53-6.11-.92-3.53-1.59-7.13-2.38-10.7a8.33,8.33,0,0,0-.37-1.06l-.34,0c0,.34-.12.69-.15,1-.39,4.17-.77,8.34-1.18,12.51a1.25,1.25,0,0,1-.48.9,22.44,22.44,0,0,1-3.18,1,1,1,0,0,1-1.19-1.33c.69-1.86,1.39-3.71,2.06-5.57a22,22,0,0,0,1.6-8.5c-.13-2.39-1-4.41-3.39-5.46-.33-.14-.56-.56-.77-.89a51.66,51.66,0,0,0-2.91-4.73c-2.32-3-5.34-5-9.33-5S48,21.25,44.89,23.54c-.09.06-.09.25-.15.43a4.37,4.37,0,0,0,.48.14l6.45,1.16c2,.36,3.31,1.56,3.4,3.24l-8.89-1.67a16.73,16.73,0,0,0,5.33,6.06c4.22,3,8.77,4.92,14.3,3.19-.32,1.24-.55,2.26-.89,3.25-.07.2-.58.29-.9.35-1.22.25-2.6.2-3.63.76a3,3,0,0,1-3,.17,2.16,2.16,0,0,0-.43-.14,50.39,50.39,0,0,0-15.27-1.59c-4.72.1-9.42.43-13.89,2.15A1,1,0,0,1,27,41a6.84,6.84,0,0,0-5.55-1.25c-.34-1.24-.66-2.39-1-3.76,4.13,1.43,7.77.62,11.27-1.21a20.08,20.08,0,0,0,8.26-7.6l-.19-.33L31.1,28.52a3.84,3.84,0,0,1,3.39-3.24c1.43-.26,2.87-.48,4.3-.74.91-.17,1.8-.38,2.7-.58l.11-.46c-1.73-.93-3.39-2-5.19-2.76-4.95-2.08-9.53-1.48-13.49,2.26a19.51,19.51,0,0,0-4.3,6.24,2.15,2.15,0,0,1-.92,1,4.89,4.89,0,0,0-3.1,4.31,27.19,27.19,0,0,0,.38,6,45.13,45.13,0,0,0,1.69,5.61c.34,1.07.79,2.1,1.12,3.16.13.41.23,1,0,1.28a1.56,1.56,0,0,1-1.27.35c-.78-.13-1.53-.49-2.31-.67A1.23,1.23,0,0,1,13.15,49c-.35-4.25-.76-8.49-1.16-12.73a2.59,2.59,0,0,0-.23-.64,2,2,0,0,0-.61,1.11c-.81,3.68-1.57,7.37-2.43,11a4.66,4.66,0,0,0,.79,4c1.68,2.4,4.24,3.22,7,3.79.7.14,1.64.18,1.54,1.13s-1,.57-1.61.58A15.45,15.45,0,0,0,6.07,61.05a4.35,4.35,0,0,0-1.31,1.79c-1,3.29-1.85,6.61-2.74,9.92a3.51,3.51,0,0,0-.05.8l.27.09c.23-.31.49-.61.7-.94,2.1-3.2,4.16-6.43,6.29-9.6a2.33,2.33,0,0,1,1.42-.91c2.35-.29,4.73-.48,7.09-.67.9-.07,1.81,0,2.73,0,0,1.18-.7,1.36-1.4,1.58a14.81,14.81,0,0,0-9.15,7.25,3,3,0,0,0-.37,1.39c.06,2.79.16,5.58.27,8.36,0,.9.15,1.78.22,2.67l.38,0c.13-.4.29-.81.41-1.22.84-2.94,1.83-5.84,2.45-8.82A4.73,4.73,0,0,1,17,68.62c1.94-.55,3.78-1.47,5.67-2.2.64-.26,1.37-.17,1.49.52.08.49-.37,1.08-.63,1.59-.07.14-.33.17-.5.27a26.09,26.09,0,0,0-7.84,6c-2,2.43-2.06,4.25-.19,6.7a7.46,7.46,0,0,1,1.79,4.7,4.75,4.75,0,0,0,3.63,4.94,17.76,17.76,0,0,0,4.2.37,1.51,1.51,0,0,0,1.53-1.41,7.07,7.07,0,0,0-2-6.44A8,8,0,0,0,19,81.41c-.11-1.37-.26-2.56-.28-3.76a1.51,1.51,0,0,1,.57-1.08c2.18-1.6,4.38-3.18,6.63-4.68,1-.7,2.18-1.12,3.45-.22a3.36,3.36,0,0,0,1.85.44q11.91,0,23.83,0a3.58,3.58,0,0,0,2-.51c1.21-.87,2.3-.37,3.25.24,2.3,1.5,4.52,3.12,6.74,4.74a1.35,1.35,0,0,1,.52,1c0,1.27-.17,2.53-.28,3.84l-.86.15A7.32,7.32,0,0,0,60,88.31c-.27,2.48.44,3.27,2.92,3.28.39,0,.77,0,1.16,0,3.25-.24,5.44-2.31,5.41-5.46A5.83,5.83,0,0,1,71,81.89c.3-.34.51-.75.81-1.09a3.23,3.23,0,0,0,.59-3.5,10,10,0,0,0-1.56-2.73,25.53,25.53,0,0,0-7.81-5.87c-.73-.39-1.33-.88-1-1.75s1.24-.67,2-.38c2.35.93,4.67,1.9,7,2.8a1.89,1.89,0,0,1,1.27,1.42c1,3.67,2.07,7.33,3.12,11a10,10,0,0,0,.43,1A1.16,1.16,0,0,0,76.3,82c.13-3,.16-5.95.4-8.92a6.31,6.31,0,0,0-1.53-4.58A16.1,16.1,0,0,0,66.93,63a4.82,4.82,0,0,1-1.31-1l.22-.46c.94,0,1.88-.06,2.82,0,2.25.17,4.5.43,6.76.6a1.89,1.89,0,0,1,1.65,1c2.08,3.26,4.2,6.49,6.32,9.73.19.29.43.56.64.84l.27-.1a6.93,6.93,0,0,0-.12-1C83.3,69.29,82.41,66,81.48,62.75ZM74.62,38.66l.25,0c.48,2.14.95,4.29,1.43,6.43.22,1,.48,2,.62,3a1.08,1.08,0,0,1-.47.91c-.84.34-1.73.54-2.85.87C74,46,74.29,42.33,74.62,38.66ZM77,49.45c-.5,2.75-3.74,5.17-6.72,5.27-.09-1-.18-1.95-.29-3.12ZM68.71,52a1.68,1.68,0,0,1,0,3ZM11.35,38.7h.28c.33,3.65.67,7.3,1,11.14L9.14,48.76Zm4.61,16a7.4,7.4,0,0,1-6.74-5.25l7.07,2.15Zm1.56.36c-1.25-.9-1.3-2.1,0-3.11Zm-14,15.73-.28-.07c.7-2.54,1.39-5.07,2.12-7.6a.77.77,0,0,1,.53-.46c.94-.13,1.89-.19,3.09-.29ZM6.37,62A13.63,13.63,0,0,1,17,57.87L17.67,61ZM51,24.58c-1.64-.29-3.28-.61-5.18-1a17.4,17.4,0,0,1,8-3.36c4.34-.49,7.63,1.37,10.28,4.56.63.76,1.12,1.62,1.72,2.4a5.75,5.75,0,0,1,.66,6.33c-.14.3-.43.72-.7.76a20.61,20.61,0,0,1-4.54.4c-2.94-.26-4.8-2.21-5.34-5.22C55.34,26,54.48,25.19,51,24.58ZM62.51,36.14c-5.12.39-12.63-3.82-15-8.44,1.86.34,3.59.74,5.34,1a3.13,3.13,0,0,1,3.05,2.47c1,3.17,3.93,4.63,7.6,4.2.81-.09,1.61-.22,2.42-.33l.08.39A26.19,26.19,0,0,1,62.51,36.14Zm5.42-5.3a3.49,3.49,0,0,1,2.78,2.52,12.89,12.89,0,0,1,.49,3.55,21.22,21.22,0,0,1-1.66,7.41c-1.27-2.59-1.43-2.76-4.11-4.44ZM66.71,41.37a5.38,5.38,0,0,1,.92,7.91,20.34,20.34,0,0,0-7.77-7.58C61,40,64.61,39.73,66.71,41.37ZM32.1,28.94c2.17-.36,4.33-.82,6.68-1.27C35.37,34,24.08,38.42,20.32,35c1.23.11,2.43.3,3.64.31,3.53,0,5.9-1.75,6.74-5.1A1.5,1.5,0,0,1,32.1,28.94ZM20.19,27.5c1.8-2.93,4-5.49,7.33-6.71,4-1.45,7.67-.26,11.17,1.7.51.29,1,.63,1.78,1.12l-5.83,1c-2.61.46-3.84,1.69-4.22,4.28-.7,4.64-4,6.64-9.12,5.62a2.21,2.21,0,0,1-1.83-1.64A5.58,5.58,0,0,1,20.19,27.5Zm-5,6.8a4.4,4.4,0,0,1,3.07-3.54L20.85,40a6.91,6.91,0,0,0-4.12,4.52C15.57,41,14.5,37.77,15.22,34.3ZM19,41.83a5.51,5.51,0,0,1,7.51-.19,20.12,20.12,0,0,0-7.89,7.64A5.31,5.31,0,0,1,19,41.83ZM18.4,57.64,20,60.94C17.89,60.63,17.22,59.1,18.4,57.64ZM10.69,79.8l-.25,0c-.1-2.61-.2-5.22-.26-7.82a.89.89,0,0,1,.43-.68c.82-.39,1.67-.7,2.83-1.16Zm.14-9.32-.16-.28a14.71,14.71,0,0,1,9-6.66l1.55,2.75Zm10.1-8c.77,1.1,1.45,2.09,2.19,3.14C21.12,65.73,20.25,64.51,20.93,62.53ZM15.82,81.69c-.4-.55-.8-1.09-1.3-1.79l3.34-2.34c.9,1.79.51,4.56-.85,5.72Zm4.62.61a6.66,6.66,0,0,1,5.18,6c.15,2.26-.34,2.76-2.61,2.67-4.12-.16-6.17-2.37-5.72-6.44a4.46,4.46,0,0,1,1.43-2.31C19,82,19.87,82.16,20.44,82.3Zm-6-3.11-.32-.11a11.46,11.46,0,0,1,.31-1.86,9.15,9.15,0,0,1,3.44-4.28c1.86-1.42,3.85-2.68,5.72-4L25.5,71.4Zm12.8-8.27a7.68,7.68,0,0,1-2-.71A1.77,1.77,0,0,1,24.74,68l2.54,2.61Zm31.41-.4,2.85-2.41a2,2,0,0,1-2.85,2.41ZM68.83,87c-.57,2.73-2.41,4-5.75,4.05-2.12,0-2.57-.42-2.48-2.49a7,7,0,0,1,6-6.43c.65-.08.93.21,1.37.68A4.34,4.34,0,0,1,68.83,87Zm.31-3.52c-1.54-1.92-1.3-3.84-.92-6l3.5,2.5ZM62.43,69.23c3.88,1.41,10.65,6.78,9.42,10L60.77,71.42Zm.7-3.52,2.14-3.15C66.06,64.32,65.17,65.62,63.13,65.71Zm12.92,6.22a71.79,71.79,0,0,1-.5,7.85l-2.74-9.66c1.13.45,2,.75,2.8,1.13A.9.9,0,0,1,76.05,71.93Zm-9.51-8.28c2.88.12,7.92,3.82,9,6.88-3.63-1.46-7.13-2.88-10.54-4.24Zm-1.32-2.3c-.13.23-.66.26-1,.32s-1,.09-1.48.13v.3l1.91.24a16.91,16.91,0,0,1-1.25,1.85c-2,2.19-3.94,4.4-6.07,6.45a4.1,4.1,0,0,1-2.61.86q-11.57.1-23.14,0a4.84,4.84,0,0,1-2.72-.9c-1.57-1.23-3-2.7-4.6-4.26L26,66l.15-.41c-2.86.57-3.39-1.59-4.71-3.39h5.39l0-.36a5.64,5.64,0,0,0-1-.15c-1.3,0-2.61.05-3.91,0a1.76,1.76,0,0,1-1.23-.73c-.66-1.12-1.18-2.32-1.89-3.75H29.65l0-.37a7,7,0,0,0-1.19-.19c-2.91,0-5.83,0-8.75,0a1.14,1.14,0,0,1-1.32-1,7.72,7.72,0,0,1,1-6.48A19.31,19.31,0,0,1,34.16,40a61.39,61.39,0,0,1,21.16.64c5.4,1.24,9.23,4.55,11.94,9.22a4.91,4.91,0,0,1,.28.62c0,.06,0,.14-.06.41H58.9v.4h8.93a7.29,7.29,0,0,1-.25,4.9c-.06.2-.55.36-.84.36-1.46,0-2.92,0-4.37,0a7,7,0,0,0-1.12.17l0,.35h6.14C66.61,58.72,66,60.07,65.22,61.35Zm3.06-1.66a1.91,1.91,0,0,1-2,1.24l1.56-3.29A1.63,1.63,0,0,1,68.28,59.69ZM68.56,61c.23-1.05.44-2,.67-3.09A13.9,13.9,0,0,1,80,62Zm14.19,9.78L77.3,62.36c1.2.11,2.13.16,3.06.28a.81.81,0,0,1,.55.45c.72,2.51,1.41,5,2.11,7.54ZM43.08,21.57a10.93,10.93,0,0,0,11-10.79A10.94,10.94,0,0,0,43.06,0a10.79,10.79,0,1,0,0,21.57Zm10.4-10.84a7,7,0,0,1-14.07,0,7,7,0,0,1,14.07,0ZM40.36,1c4-1.11,9,.54,10.67,3.48-5-2.07-8.53-1.45-10.89,1.9a7.43,7.43,0,0,0,.79,9.47c2.7,2.8,6.49,3,10.63.48-1.16,2.72-6,5.28-10.28,4.47a10.49,10.49,0,0,1-8.5-9.55A10.28,10.28,0,0,1,40.36,1ZM56.54,13.67a.85.85,0,0,1-.76.15,5.37,5.37,0,0,1,.65-.84,7.16,7.16,0,0,1,9.77.46c3,3,6.72,3,9.74.06a7.13,7.13,0,0,1,8.92-1.16,10.25,10.25,0,0,1,1.1.87l-.26.33c-.27-.16-.55-.31-.81-.48a6.54,6.54,0,0,0-8.57.91A7.14,7.14,0,0,1,66,14.1C63,11.24,59.85,11.1,56.54,13.67ZM.3,13.55l-.3-.3a8.91,8.91,0,0,1,.78-.84,7.16,7.16,0,0,1,9.43.32c3.37,3.27,6.9,3.28,10.26,0a7.09,7.09,0,0,1,9-.72,10.55,10.55,0,0,1,.81.69l-.19.29a5.23,5.23,0,0,1-.79-.38,6.5,6.5,0,0,0-8.58.74c-3.27,3.19-7.38,3.18-10.66,0a6.52,6.52,0,0,0-8.86-.49Zm.19-3.41L.32,9.82A6.87,6.87,0,0,1,6.06,7.46a6.94,6.94,0,0,1,4.77,2.21,6.48,6.48,0,0,0,9.58.09c2.69-2.62,6.33-3.08,9.21-1.14a8.93,8.93,0,0,1,.87.76l-.19.28a7.94,7.94,0,0,1-.72-.34,6.46,6.46,0,0,0-8.65.81c-3,3-7.37,3.16-10.33.11a6.75,6.75,0,0,0-9.48-.41A2.31,2.31,0,0,1,.49,10.14Zm.3,6.56a4.3,4.3,0,0,1-.52.35L0,16.86A5.35,5.35,0,0,1,.66,16a7,7,0,0,1,9.57.28,6.84,6.84,0,0,0,10.21,0,7,7,0,0,1,9.14-.67,7.82,7.82,0,0,1,.66.63l-.23.28c-.29-.16-.6-.32-.89-.5a6.46,6.46,0,0,0-8.39.79c-3.28,3.22-7.38,3.25-10.68.07A6.46,6.46,0,0,0,.79,16.7Zm83.57-1.16A17.24,17.24,0,0,1,86,16.64l-.21.36c-.29-.15-.6-.27-.87-.44a6.3,6.3,0,0,0-8.37.76,7.5,7.5,0,0,1-10.89,0c-2.43-2.64-6.13-2.62-8.9-.34-.25.21-.5.39-.75.59l-.24-.22a5.11,5.11,0,0,1,.66-.87,7.16,7.16,0,0,1,9.16-.08c.5.42.93.9,1.43,1.31a6.46,6.46,0,0,0,8.83-.63A7.24,7.24,0,0,1,84.36,15.54Zm1.85-5.73-.18.3a5.18,5.18,0,0,1-.76-.34,6.45,6.45,0,0,0-8.64.9,7.16,7.16,0,0,1-10.52-.11,6.57,6.57,0,0,0-8.94-.5c-.28.23-.56.46-.85.68L56,10.5a4.78,4.78,0,0,1,.45-.63,7.08,7.08,0,0,1,9.84.1c1.8,1.81,3.89,2.83,6.4,2.14A9.29,9.29,0,0,0,76.3,10a7.32,7.32,0,0,1,9-1A9.31,9.31,0,0,1,86.21,9.81ZM34.56,35.49a2.22,2.22,0,0,0,2.28,2.19A2.18,2.18,0,0,0,39,35.39a2.13,2.13,0,0,0-2.26-2.16A2.17,2.17,0,0,0,34.56,35.49Zm3.89,0a1.71,1.71,0,0,1-1.72,1.61,1.73,1.73,0,0,1-1.62-1.71,1.7,1.7,0,0,1,1.67-1.53A1.67,1.67,0,0,1,38.45,35.46Zm13.21,0a2.13,2.13,0,0,0-2.17-2.25,2.17,2.17,0,0,0-2.28,2.17,2.23,2.23,0,1,0,4.45.08Zm-3.87,0a1.64,1.64,0,0,1,1.67-1.66,1.61,1.61,0,0,1,1.63,1.68,1.66,1.66,0,0,1-1.65,1.56A1.69,1.69,0,0,1,47.79,35.49Zm6.14,20v-.48l-8.19-.71c.91-1.29,1.71-2.43,2.52-3.56l-.32-.31-3.6,2.45c-.28-3.68-.54-7.13-.81-10.58H43c-.24,3.46-.48,6.93-.73,10.64l-3.61-2.41-.3.31C39.17,52,40,53.15,40.86,54.4l-8.1.78,0,.5,8.18.72L38.42,60l.34.33,3.57-2.49c.28,3.68.54,7.13.81,10.58h.51c.24-3.46.47-6.93.73-10.62L48,60.18l.31-.33-2.51-3.49ZM46,57.8,45.9,58l-2-1.26-.37,5.23-.18,0-.5-5.21L41,57.9l-.14-.1,1.11-1.86L38,55.51v-.19l3.87-.46-1.07-1.81.13-.13,1.89,1,.37-5.13.18,0c.15,1.64.31,3.27.49,5.14l2.31-1.39L44.7,54.84l4.18.39v.16l-4.13.5ZM33.46,48.46a8.66,8.66,0,0,1-3.31-5.68c-.51,1.1-.74,2.18-1.24,3.12a22,22,0,0,1-2,2.72,9,9,0,0,1,3.19,5.62A9.13,9.13,0,0,1,33.46,48.46Zm-3.38,3.29-2.14-3.26,2.15-3.28,2.14,3.29ZM54.8,58.33c-.6,2.17-1.32,4.19-3.44,5.69,2.15,1.44,2.81,3.52,3.46,5.66A9,9,0,0,1,58.16,64C56.14,62.54,55.39,60.52,54.8,58.33Zm0,9L52.65,64l2.13-3.27L56.94,64Z"/></g></g></svg>