<svg xmlns="http://www.w3.org/2000/svg" viewBox="0 0 85.58 87.78"><title>Asset 493</title><g id="Layer_2" data-name="Layer 2"><g id="Layer_1-2" data-name="Layer 1"><path d="M44.11,31.18c0-.11.11-.25.21-.46.13.16.28.25.27.33s-.11.26-.18.39C44.3,31.36,44.12,31.28,44.11,31.18Zm-1.42-4.13c.26-.1.26-.41,0-.82,0,0,0,0-.15-.06-.32.21-.51.45-.24.8A.38.38,0,0,0,42.69,27.05Zm1.92,2.62c.34-.18.36-.42,0-.77-.15.23-.58.24-.36.67A.35.35,0,0,0,44.61,29.67Zm-.7,4.82-.6.72C44.09,35.27,44.15,35.19,43.91,34.49Zm.33-1.27a2.5,2.5,0,0,0,.17-.65c0-.09-.08-.2-.13-.29l-.22,0a1.17,1.17,0,0,0-.12.31,4.85,4.85,0,0,0,0,.66S44.23,33.25,44.24,33.22Zm1.84,3.55c.88,0,.9,0,1.06-.89a.63.63,0,0,0-.89.19A2.06,2.06,0,0,0,46.08,36.77Zm3-3.57c0-.13-.17-.35-.24-.34a2.53,2.53,0,0,0-.61.28c.21.19.3.33.42.36S49.09,33.48,49.07,33.2ZM44.9,35.9c.85-2.12,1.7-4.23,2.54-6.35,0-.08,0-.2-.07-.36-.15.1-.32.15-.35.24-.73,2.23-2,4.26-2.46,6.74C44.75,36,44.87,36,44.9,35.9Zm3.15-8.22c0-.09-.16-.23-.25-.35l-.45.37.39.36C47.85,27.94,48,27.82,48.05,27.68Zm-.71,7a.54.54,0,0,0,.42.26c.4-.12.42-.42.21-.79C47.62,34.16,47.3,34.21,47.34,34.66Zm-9.8-3.35A7.25,7.25,0,0,0,37,30c-.19.15-.27.29-.23.39A28.85,28.85,0,0,0,39.28,36C39,34.34,37.94,33,37.54,31.31Zm-3.21-.14c.06-.13,0-.32-.08-.48-.15.06-.39.08-.44.18a2.29,2.29,0,0,0,0,.73C34.07,31.39,34.27,31.31,34.33,31.17Zm2.73,5.11a.49.49,0,0,0,.47,0c.24-.28,0-.48-.24-.64C37,35.8,36.81,36,37.06,36.28Zm-1.77-3.63c0-.13-.08-.31-.13-.47l-.18,0c-.1.16-.26.32-.28.49s.14.29.22.44A1.63,1.63,0,0,0,35.29,32.65Zm.67,2c.28.06.46-.15.44-.43s-.14-.29-.3-.59c-.19.29-.37.44-.38.6A.5.5,0,0,0,36,34.69ZM48.3,38.32C50,36.66,51.6,35,53.24,33.4l-.11-.21c-.1,0-.24,0-.29,0q-2.33,2.34-4.62,4.7S48.25,38.07,48.3,38.32ZM39.71,30a.44.44,0,0,0,.3-.63c0-.09-.19-.14-.3-.21-.1.19-.21.38-.3.58s0,.14.08.25S39.67,30,39.71,30Zm1.08,5.68c.26.09.38-.12.42-.36s0-.43-.4-.53c-.08.13-.25.29-.26.46A.53.53,0,0,0,40.79,35.66Zm1.65.21h.24a73.13,73.13,0,0,0,.15-7.7c-.56,0-.44.36-.44.63q0,3.43,0,6.87A.64.64,0,0,0,42.44,35.87ZM40,34a.49.49,0,0,0,.47,0c.27-.35.06-.57-.32-.78C40,33.43,39.71,33.65,40,34Zm-.44-1.81c.69-.23.72-.32.34-.88ZM36.32,29A1.56,1.56,0,0,0,36.5,29c.12-.37,0-.63-.37-.72a.37.37,0,0,0-.3.19C35.74,28.81,36,28.93,36.32,29ZM51.79,46.14c0-.11-.13-.24-.25-.44-.15.17-.33.29-.32.38s.18.23.28.35C51.6,46.33,51.78,46.25,51.79,46.14Zm0-3.59c-.09-.41-.31-.6-.69-.43a.51.51,0,0,0-.12.47C51.27,43,51.55,42.79,51.82,42.55Zm-1.74-4.07a.31.31,0,0,0-.41.35.51.51,0,0,0,.32.36c.13,0,.28-.15.51-.28C50.32,38.71,50.22,38.51,50.08,38.48ZM55.27,47a.43.43,0,0,0,.32.25c.11,0,.22-.16.33-.25l-.41-.43C55.39,46.79,55.24,46.93,55.27,47ZM54,46.67c0-.15-.26-.33-.42-.37s-.33.14-.67.3c.3.23.44.42.6.44S54,47,54,46.67Zm1.13,6.21c-.12,0-.26.08-.52.18.23.17.35.32.49.35s.21-.15.32-.23C55.33,53.07,55.24,52.91,55.13,52.88Zm2.27-2.12c-.14,0-.3.18-.63.41a3.89,3.89,0,0,0,.72.28c.25,0,.45-.15.38-.38A.62.62,0,0,0,57.4,50.76Zm3-6.93c-.25-.16-.43-.32-.47-.29a2,2,0,0,0-.38.44c.1.07.22.23.29.21A2.52,2.52,0,0,0,60.4,43.83Zm-4.78,6.26L50,47.34c0,.21-.05.33,0,.35,1.87,1.14,3.89,2,5.9,3,0-.18,0-.28,0-.33A.83.83,0,0,0,55.62,50.09Zm-4.22.81a3.56,3.56,0,0,0,.65.42c.06,0,.2-.19.3-.29a1.66,1.66,0,0,0-.43-.37C51.84,50.62,51.67,50.77,51.4,50.9Zm-.95-1.12c.13,0,.33-.26.31-.29a3.41,3.41,0,0,0-.45-.55c-.14.18-.26.27-.27.38S50.25,49.85,50.45,49.78ZM57.58,47c-.09,0-.25.09-.53.22a2.49,2.49,0,0,0,.59.36c.08,0,.2-.16.31-.25C57.83,47.17,57.72,47,57.58,47Zm-6.87-6.3,5.4-2.91c-.23-.07-.34-.15-.41-.12a25,25,0,0,0-4.91,2.72C50.73,40.41,50.73,40.56,50.71,40.66Zm1.57-3c-.4-.07-.75-.14-.85.55C51.89,38.23,52.26,38.3,52.28,37.68Zm1-.92a2.6,2.6,0,0,0,.46-.36c-.07-.09-.18-.27-.22-.26a4.47,4.47,0,0,0-.6.34C53.14,36.63,53.27,36.78,53.31,36.76Zm1.18-5.23a.36.36,0,0,0-.3-.17c-.33.12-.32.37-.17.66C54.34,32,54.55,31.87,54.49,31.53Zm2.9,9.19c-.1-.11-.2-.3-.29-.31s-.3.13-.55.26c.2.16.33.34.42.32S57.25,40.81,57.39,40.72Zm-3.87,1-.83.13C53.17,42.33,53.17,42.33,53.52,41.68ZM51.31,44l0,.13,7.32,0,.06-.2c-.08-.06-.16-.18-.24-.18l-6.84.08C51.53,43.83,51.42,43.93,51.31,44ZM50.15,31.37c0-.09-.16-.2-.26-.3l-.33.35c.13.11.26.27.3.25S50.13,31.49,50.15,31.37ZM55.41,41.5c-.23-.35-.48-.43-.74-.16a.45.45,0,0,0,0,.42C55,42,55.18,41.76,55.41,41.5Zm1.83-4.27a1.41,1.41,0,0,0,.46-.45s-.15-.22-.29-.4l-.54.53C57,37,57.19,37.26,57.24,37.23ZM32.54,34.4l3.38,3.75a.72.72,0,0,0,.24.14l.14-.13a24.38,24.38,0,0,0-4.47-5c0,.14,0,.32.06.43A7.53,7.53,0,0,0,32.54,34.4Zm5.81,6.76c0,.11.15.22.23.33.1-.11.26-.2.28-.32s-.12-.24-.24-.45C38.49,40.92,38.35,41,38.35,41.16Zm-.15,2.07c0-.14-.11-.31-.22-.6-.19.26-.37.4-.37.54s.16.28.25.43C38,43.47,38.17,43.37,38.2,43.23ZM35,49.9a.45.45,0,0,0,.35-.2c0-.31-.2-.39-.48-.36C34.7,49.58,34.7,49.8,35,49.9Zm9.86-6c-.52-.46-1.1-.17-1.63-.21a11,11,0,0,0-1.62,0,4.61,4.61,0,0,0-1.68.27A12.06,12.06,0,0,0,44.86,43.88Zm-3.27,2.55h1.86A1.5,1.5,0,0,0,41.59,46.43Zm-1.25,1.65c-.16,0-.3.21-.54.4.23.18.41.39.49.35a.69.69,0,0,0,.37-.4C40.68,48.33,40.43,48.07,40.34,48.08Zm3.81-2.7a11.36,11.36,0,0,0-3.14.27A4.26,4.26,0,0,0,44.15,45.38Zm-1.71,3.21c-.33.42,0,.63.31.95.35-.33.46-.63.17-1A.28.28,0,0,0,42.44,48.59Zm-1.85-8.73c.1,0,.34-.23.33-.33a3.35,3.35,0,0,0-.34-.83c-.2.29-.35.42-.37.56S40.26,39.82,40.59,39.86Zm6.58,1.83c.21-.19,0-.47-.49-.8a.57.57,0,0,0,0,.88C46.76,41.84,47.06,41.78,47.17,41.69Zm-1.38-1.87a.47.47,0,0,0-.43-.59.7.7,0,0,0-.21.92C45.45,40.16,45.73,40.17,45.79,39.82Zm1.85,4.3a.47.47,0,0,0,.22-.42c0-.17-.18-.32-.28-.48l-.21,0a2.42,2.42,0,0,0-.16.55C47.21,44.07,47.4,44.22,47.64,44.12Zm-1,1.82c0,.25,0,.52.37.48.13,0,.37-.2.36-.28a2.79,2.79,0,0,0-.33-.72C46.83,45.69,46.67,45.8,46.64,45.94ZM42.5,42.76c-.53,0-1.1-.24-1.59.25h3.14C43.6,42.54,43,42.8,42.5,42.76Zm.25-1.8-1.08.24C42.5,41.44,42.52,41.44,42.75,41Zm.1,11.63-.24-.05a2.21,2.21,0,0,0-.16.52c0,.79,0,1.58-.06,2.37,0,1.48-.09,3-.13,4.42a7.36,7.36,0,0,0,.06.81l.22,0C42.72,58,42.77,55.28,42.85,52.59Zm.24-10.69a3.38,3.38,0,0,0-1.81.05v.16h1.82Zm.4-2.83a1.23,1.23,0,0,0-.46-.58c-.05,0-.3.2-.58.39.28.23.42.42.61.48S43.55,39.35,43.49,39.07Zm5.93,16a1,1,0,0,0,.4.4c.07,0,.24-.15.36-.24l-.46-.58C49.57,54.85,49.39,55,49.42,55.06Zm3.49-.29c0-.12.09-.26.05-.3-1.49-1.52-3-3-4.5-4.54C48.56,50.75,51.56,53.89,52.91,54.77Zm-2.6,1.89a5.75,5.75,0,0,0,.68.4c.06,0,.19-.14.29-.22a4.27,4.27,0,0,0-.47-.48C50.76,56.33,50.57,56.5,50.31,56.66ZM49,53.44a.75.75,0,0,0-.44,0c-.06,0-.12.27-.07.34s.26.3.4.3.28-.17.47-.3C49.24,53.6,49.15,53.48,49,53.44Zm.26,5.81-.19.11c.06.21.1.43.18.64a.31.31,0,0,0,.52.15.67.67,0,0,0,0-.62C49.75,59.39,49.49,59.34,49.3,59.25ZM85.41,43.93a5.49,5.49,0,0,0-.86-.14,36.1,36.1,0,0,0-5.67.76c-2.39.41-4.76,1-7.16,1.27A57,57,0,0,0,63.18,48l-1.32.36c.56.43,1,.76,1.4,1.08,2.23,1.62,4.45,3.26,6.69,4.85,1.29.92,2.61,1.8,4,2.62a29,29,0,0,0,2.68,1.31c0,.33-.12.48-.48.38s-.67-.23-1-.31c-2.3-.47-4.6-.9-6.89-1.39-1.41-.31-2.8-.69-4.19-1.09a44.22,44.22,0,0,0-4.9-1.05C59.91,56,60.59,57,61.28,58A58.81,58.81,0,0,0,67.51,65l5.11,5.3a1.74,1.74,0,0,1,.2.3c-.22.31-.41.18-.59,0l-1.34-.93c-1.78-1.26-3.55-2.55-5.34-3.78a55.66,55.66,0,0,0-6.9-4.06A19.23,19.23,0,0,0,54,60.4a1.6,1.6,0,0,0-.37,0,39.6,39.6,0,0,0,1,6.55c.22,1,.59,1.92.86,2.89.36,1.23.67,2.47,1,3.69s.87,2.69,1.32,4c.09.25.23.48.08.77a.94.94,0,0,1-.73-.61,51.59,51.59,0,0,0-3.87-5.86c-.39-.56-.68-1.19-1.08-1.74-.8-1.1-1.64-2.18-2.47-3.25-.66-.85-1.32-1.68-2-2.51-.11-.14-.25-.27-.46-.5-.13.35-.24.62-.32.9a39.73,39.73,0,0,0-1.68,8.58c-.12,1.71-.33,3.42-.49,5.13-.09,1-.13,2-.24,3-.17,1.46-.39,2.92-.58,4.38-.08.61-.15,1.22-.23,1.89a.79.79,0,0,1-.65-.73c-.25-2.31-.44-4.62-.78-6.91A49.1,49.1,0,0,0,40.49,71c-.65-1.85-1.11-3.76-1.69-5.63-.23-.75-.52-1.48-.79-2.21L25.35,77.93l-.13-.09c.26-.64.52-1.28.79-1.91.64-1.44,1.36-2.86,1.93-4.33a26.86,26.86,0,0,0,1.63-5c.34-2,.73-3.91,1.09-5.86a5,5,0,0,0,0-.78c-.2.09-.33.12-.44.18-2.34,1.29-4.7,2.54-7,3.89a35.83,35.83,0,0,0-3.87,2.6c-2.43,1.88-4.81,3.85-7.21,5.79a3.53,3.53,0,0,1-.32.21c-.34-.52-.36-.81,0-1.13a7.83,7.83,0,0,0,2-2.21c.62-1,1.5-1.76,2.16-2.72s1.35-1.92,2.06-2.85,1.69-2,2.45-3.07a49.32,49.32,0,0,0,4.33-6.72l.21-.47A93.54,93.54,0,0,0,6.13,57.36a.52.52,0,0,1,.28-.82C7.7,55.92,9,55.36,10.3,54.71c2.89-1.49,5.75-3,8.62-4.52,1.16-.6,2.34-1.17,3.5-1.76.12-.06.21-.15.48-.33-1-.22-1.76-.42-2.57-.58-1.89-.38-3.8-.73-5.7-1.12-.77-.15-1.54-.37-2.31-.53a43.79,43.79,0,0,0-6.25-.7c-1.72-.11-3.43-.31-5.14-.48-.1,0-.21,0-.31-.07-.71-.16-.73-.2-.45-.89a3.9,3.9,0,0,0,1.06.11c1.4-.2,2.79-.45,4.19-.67l6.79-1.07,2-.32c1.7-.29,3.41-.5,5.08-.88a13.7,13.7,0,0,0,4.16-1.49L21.21,38c-1.65-1.07-3.3-2.13-4.93-3.23A46.3,46.3,0,0,0,9.51,31a3.29,3.29,0,0,1-.81-.5,1.44,1.44,0,0,1,1.15-.06c1.36.4,2.71.84,4.08,1.18,1.56.38,3.14.69,4.72,1,2.25.41,4.51.78,7,1.2-.41-.57-.7-1-1.06-1.46a76.68,76.68,0,0,1-6.24-8.2c-1.06-1.59-2.12-3.18-3.21-4.75-.36-.51-.81-1-1.21-1.44a.69.69,0,0,1-.14-.54c.42.31.84.63,1.28.92,1.63,1.08,3.23,2.23,4.92,3.21,1.84,1.07,3.77,2,5.66,2.94l5.86,2.92c.14.07.3.11.57.21-.07-.65-.14-1.2-.2-1.75-.17-1.52-.3-3.05-.52-4.56a56.41,56.41,0,0,0-1.91-9.37c-.28-.88-.58-1.76-.88-2.64-.08-.23-.14-.42.26-.52.33.55.68,1.12,1,1.7.69,1.17,1.36,2.36,2.05,3.53.89,1.49,1.81,3,2.7,4.47s1.54,2.76,2.41,4.08a25.39,25.39,0,0,0,1.91,2.32,15.86,15.86,0,0,0,.66-3.23c.32-2.71.68-5.41,1-8.12.33-3.07.59-6.14.91-9.21.14-1.33.35-2.65.54-4a1.42,1.42,0,0,1,.1-.29c.38-.06.46.14.5.41.15.89.32,1.77.44,2.67.22,1.59.38,3.19.6,4.79.2,1.4.43,2.8.68,4.2.4,2.31.83,4.61,1.24,6.92.26,1.45.49,2.9.76,4.35.09.51.24,1,.4,1.66a17.35,17.35,0,0,0,1.08-1.43c1.28-2.1,2.66-4.14,3.78-6.32,1.53-3,3.24-5.87,5-8.72.17-.28.32-.67.81-.59.2.38,0,.73-.1,1.08A35.41,35.41,0,0,0,55.71,14a33.53,33.53,0,0,1-1.4,5.13c-.41,1.1-.91,2.17-1.23,3.29-.39,1.35-.63,2.74-1,4.29C54.7,25.2,60.72,20,61.43,19.4c1-.86,2-1.67,2.92-2.51s2.11-1.89,3.18-2.82A16.85,16.85,0,0,1,69,13a1.2,1.2,0,0,1,.51-.05,1.2,1.2,0,0,1,0,.51c-.34.5-.72,1-1.07,1.45l-4.16,5.88A37.21,37.21,0,0,0,60,28.24c-.4,1-.86,1.94-1.22,2.94a14.66,14.66,0,0,0-.41,1.87A7.4,7.4,0,0,0,61,33c2-.28,4-.56,6-1a56.91,56.91,0,0,0,8.19-2.3c1-.39,2.06-.83,3.09-1.23a1.42,1.42,0,0,1,.28,0c.07.38-.08.57-.41.76-1.69.95-3.38,1.89-5,2.91a52.9,52.9,0,0,0-5,3.32c-1.32,1-2.82,1.85-4.22,2.81a9.06,9.06,0,0,0-2.28,2.07,2.29,2.29,0,0,0,.43.2,70.23,70.23,0,0,0,7.37,1c2.2.16,4.4.44,6.59.66.49,0,1,0,1.48.07,1.54.19,3.07.43,4.62.62,1,.12,2,.19,2.92.28C85.63,43.22,85.71,43.39,85.41,43.93Zm-23.79-3c.14,1,.26,2,.38,3,6.07-.38,12-.16,18-1a4,4,0,0,0-.48-.07c-1.89-.19-3.79-.39-5.69-.57-1.44-.14-2.88-.21-4.32-.36-1.89-.2-3.78-.45-5.67-.7C63.17,41.15,62.45,41,61.62,40.88ZM73.86,31c-2.23,1-4.59,1.61-6.78,2.68s-4.41,2.1-6.7,3.18c.36,1,.68,1.83,1,2.7.69-.55,1.35-1.12,2.06-1.63,1-.69,2-1.33,3-2l0,0c.55-.36,1.1-.71,1.63-1.08,1.11-.75,2.2-1.52,3.3-2.26C72.17,32.09,73,31.57,73.86,31ZM58.6,33.71l1.66,2.76,10.55-4.84v0c-2,.44-4,.95-6,1.3S60.66,33.44,58.6,33.71ZM55.27,29.8l2.61,2.9A17.52,17.52,0,0,1,58.4,31c.59-1.46,1.22-2.91,1.85-4.36A16.08,16.08,0,0,1,61,25a74.09,74.09,0,0,1,5.62-8.33,7.1,7.1,0,0,0,1-1.79A168.3,168.3,0,0,0,55.27,29.8ZM52,27.3,55,29.4l10.72-13-.1-.13c-1.33,1.19-2.7,2.34-4,3.58a57.34,57.34,0,0,1-6.54,5.42C54.09,25.94,53.06,26.6,52,27.3Zm3.26-13.7c-.92,1.24-5.5,11.82-5.51,12.71l1.76.77a13,13,0,0,0,.33-1.51,28.42,28.42,0,0,1,1.8-6.2A36.71,36.71,0,0,0,55.28,13.6ZM46.84,25.48l2.31.65,7.06-15.86L56,10.13c-.37.6-.77,1.17-1.1,1.79-1.22,2.22-2.41,4.46-3.61,6.69A48,48,0,0,1,47.93,24C47.59,24.49,47.23,25,46.84,25.48ZM42.42,2.71l0,.29h0c0-.1,0-.21,0-.31Zm.29,22.14,3.47.45c-1.32-7.14-2.56-14.24-3.57-21.38C42.25,7.5,42.34,23.23,42.71,24.85Zm-3.39.23L42,24.86c0-7.2,0-14.35,0-21.5-.51,3.63-.95,7.24-1.31,10.87S40,21.46,39.32,25.08ZM30.16,12.14c.79,2.36,1.7,4.66,2.71,6.92s1.81,4.65,3,6.93l2.62-.81a1.87,1.87,0,0,0-.15-.27,21.8,21.8,0,0,1-3.05-4.43,80.35,80.35,0,0,0-4.45-7.33c-.12-.18-.23-.38-.34-.56Zm2.28,15.49,3-1.5c-1.54-3.68-3.06-7.3-4.57-10.92l-.09,0C31.31,19.36,31.87,23.48,32.44,27.63ZM16.7,20c1,1.58,10,9.43,12.27,10.74,1-.88,1.92-1.75,2.91-2.66l-7.69-3.84A73.53,73.53,0,0,1,16.7,20Zm9.68,14,2.13-2.85c-4-3.42-8.15-6.55-11.82-10.25A118.37,118.37,0,0,0,26.38,34ZM15,32.3a67.57,67.57,0,0,0,9.94,4.16l1.22-2.11Zm9,6.84L24.68,37,13.42,32.26A108.3,108.3,0,0,0,24,39.14ZM4.25,44c1.44-.06,2.89-.12,4.33-.2,1.69-.1,3.37-.27,5.06-.29,2.83,0,5.67,0,8.5,0,.48,0,1-.05,1.5-.09.05-1.2.1-2.3.16-3.59-.63.25-1.1.45-1.58.63A31.5,31.5,0,0,1,16,41.94c-2.07.32-4.13.7-6.21,1A43.64,43.64,0,0,0,3.73,44,3.66,3.66,0,0,0,4.25,44Zm19.3,3.79v-.71c0-.81-.05-1.62,0-2.44,0-.56,0-.65-.59-.7l-.49,0c-2.33,0-4.67,0-7,0-1.64,0-3.27.15-4.9.23l-6.19.31v.2C10.89,44.75,17.17,46.46,23.55,47.83ZM10.31,55.22c4.66-1.54,9.26-3.17,13.82-5.07-.17-.65-.32-1.24-.49-1.87C19.14,50.63,14.73,52.93,10.31,55.22Zm15-2.27-1.1-2.31L11.91,55.27A109.71,109.71,0,0,1,25.33,53ZM14.55,69.44l13.11-13-2-2.93c-.14.22-.26.4-.36.59a61,61,0,0,1-5.19,7.83c-1.48,2-3,3.88-4.51,5.82-.4.52-.75,1.09-1.12,1.64Zm16.13-10L27.85,56.8,17.52,67.05c-.21.21-.41.44-.61.66a.06.06,0,0,0,0,.06.3.3,0,0,0,.08.07c.8-.6,1.57-1.25,2.4-1.81a42.73,42.73,0,0,1,5.52-3.32c1-.47,1.88-1.18,2.85-1.73S29.66,60,30.68,59.43ZM27.81,72.81l.18.08L34.48,62l-3.26-2.11A46.17,46.17,0,0,1,27.81,72.81Zm9.77-10L34.92,62,27.18,75l.22.16C30.69,71,34.5,67.26,37.58,62.85Zm5.69,21c.07-6.75-.37-13.48-.63-20.21l-4.24-.55A85.34,85.34,0,0,1,43.27,83.85ZM46.75,63l-3.65.57c.08,2.31.14,4.6.23,6.88s.22,4.52.31,6.79,0,4.52.29,6.77c.22-1.52.34-3,.48-4.56q.3-3.14.63-6.27c.13-1.16.22-2.34.46-3.48.38-1.81.89-3.59,1.33-5.39C46.92,63.9,47.2,63.48,46.75,63Zm2.91-.78c-.54.14-1.12.28-1.7.45a.5.5,0,0,0-.3.7,1.91,1.91,0,0,0,.25.33c1.23,1.56,2.52,3.08,3.69,4.69,1.37,1.9,2.63,3.88,3.95,5.82.35.52.72,1,1.09,1.53A91.45,91.45,0,0,0,49.66,62.22Zm3.46-1.87L50.06,62c.35.71.65,1.38,1,2,1.09,1.95,2.38,3.78,3.29,5.82.42.94.94,1.84,1.41,2.76-.33-1.35-.83-2.63-1.17-4s-.61-2.76-.85-4.15S53.33,61.79,53.12,60.35Zm.74-1A17.61,17.61,0,0,0,57.33,56a34.46,34.46,0,0,0,2.76-4.53,14,14,0,0,0,1.4-4.16,16.49,16.49,0,0,0,0-3.91,18.16,18.16,0,0,0-2.29-8,25.19,25.19,0,0,0-1.64-2.34,18.44,18.44,0,0,0-4.21-4.29,14.32,14.32,0,0,0-4-2.14,23,23,0,0,0-7.2-1.31,26.13,26.13,0,0,0-3.85.36,15.33,15.33,0,0,0-2.32.76,13.23,13.23,0,0,0-3.42,1.72,24,24,0,0,0-6.5,7.1,18.62,18.62,0,0,0-1.71,3.88,3.35,3.35,0,0,0-.12.95,25.71,25.71,0,0,1-.11,3.73,13.44,13.44,0,0,0,1.12,8c.16.36.49.65.64,1a15.69,15.69,0,0,0,3,4.35A18.5,18.5,0,0,0,33,60.51,10.24,10.24,0,0,0,36.35,62a9.54,9.54,0,0,1,1.49.37,15.32,15.32,0,0,0,4.88.77c.57-.07,1.44-.14,2.29-.29,1.16-.19,2.3-.45,3.45-.69a3.51,3.51,0,0,0,.85-.27A28.34,28.34,0,0,0,53.86,59.33Zm11.72,6L56.52,57.6l-2.68,2.23A22.68,22.68,0,0,1,60,62.06C61.77,63.13,63.6,64.18,65.58,65.33Zm-7-10.41-1.71,2.32c3.85,3.66,8,6.88,12.12,10.1-1.16-1.36-2.4-2.65-3.62-3.94a39.25,39.25,0,0,1-3.63-4.1C60.69,57.85,59.64,56.41,58.56,54.92Zm14.11,2.42a42.38,42.38,0,0,0-6.83-3.12A26.72,26.72,0,0,1,62,52.64c-.54-.3-1.11-.54-1.7-.83l-1.25,2.47,1,.21c1.59.38,3.17.78,4.76,1.15,2.33.56,4.66,1.1,7,1.64A5.61,5.61,0,0,0,72.67,57.34ZM61.61,48.78c-.41.95-.78,1.78-1.19,2.72a29.2,29.2,0,0,0,3,1.49c2.82,1,5.6,2.1,8.33,3.34a6.14,6.14,0,0,0,.64.19Zm19.83-5.21L62,44.29c-.08,1.28-.16,2.47-.24,3.74,1-.29,1.93-.5,2.81-.83a40.66,40.66,0,0,1,6.15-1.63c1.51-.3,3-.51,4.58-.78,2-.35,4-.73,6.08-1.1ZM54.61,56.15a.57.57,0,0,0,.08-.44c-.12-.39-.44-.47-1.13-.3-.08.59.38.64.69.8A.38.38,0,0,0,54.61,56.15ZM40.68,44.84a20.28,20.28,0,0,0,3.63.17c-.11-.17-.15-.32-.21-.33A9.84,9.84,0,0,0,40.68,44.84ZM54.12,52a2.06,2.06,0,0,0-.52-.43c-.07,0-.32.13-.34.23,0,.32.21.4.46.41S53.93,52.14,54.12,52Zm-9.21,1.39c-.25-.19-.42-.41-.54-.39s-.29.25-.43.39a1.76,1.76,0,0,0,.47.44C44.49,53.89,44.67,53.64,44.91,53.42Zm2.49-1.6c-.07.37.27.43.52.47s.29-.13.59-.28a3.28,3.28,0,0,0-.73-.49C47.69,51.49,47.43,51.69,47.4,51.82Zm-2.51-1.16a6.23,6.23,0,0,1-6.31-1A9.31,9.31,0,0,1,35.8,45.8a5.59,5.59,0,0,1-.26-1.42,8.3,8.3,0,0,1,1-4.11A6.09,6.09,0,0,1,38,38.72a7,7,0,0,1,5.53-1.41A6.88,6.88,0,0,1,47,38.62a5.75,5.75,0,0,1,2.41,4.09,10.09,10.09,0,0,1,.08,2.19A7,7,0,0,1,44.89,50.66Zm.42-.69a7.09,7.09,0,0,0,3.09-2.92,6.28,6.28,0,0,0,.7-3.95,6,6,0,0,0-3.34-4.83,7.79,7.79,0,0,0-4.48-.57c-2.21.24-4.81,2.3-5.16,4.62L35.88,44A4.66,4.66,0,0,0,36,45.16a10.79,10.79,0,0,0,1.81,3.18,6.26,6.26,0,0,0,5,2.35A5.56,5.56,0,0,0,45.31,50Zm0-2.47c-.53.26-.53.26-.41.87C45.61,48.31,45.67,48.17,45.28,47.5Zm-.39,9.27c-.13,0-.26.17-.48.34.19.17.34.39.42.37a.54.54,0,0,0,.33-.36A.46.46,0,0,0,44.89,56.77Zm0-1.25c.06-.32.11-.64-.32-.73-.09,0-.33.16-.33.25C44.27,55.43,44.46,55.63,44.93,55.52Zm.34,3.61c0,.15.21.25.33.37.08-.09.25-.19.24-.26a2.13,2.13,0,0,0-.26-.54C45.42,58.91,45.25,59.05,45.27,59.13ZM46,51.54c-.12.19-.2.27-.19.31l2.79,6.68.23-.05c0-.14.08-.32,0-.43C47.84,55.94,47.15,53.69,46,51.54Zm-7.93-5.39c-.08.25.12.39.36.42s.47,0,.44-.31-.16-.35-.31-.63C38.31,45.87,38.1,46,38.05,46.15ZM27.91,47a.89.89,0,0,0-.22-.47,2.13,2.13,0,0,0-.57-.28c0,.29-.1.53,0,.66a.88.88,0,0,0,.52.28C27.7,47.19,27.91,47,27.91,47Zm-.23-9.75.16-.72c-.3-.13-.53-.4-.83-.14a.48.48,0,0,0-.12.43C27,37.17,27.27,37.27,27.68,37.23Zm3.63,9.71c.12-.4.29-.67.22-.79-.19-.31-.5-.34-.92,0ZM29,41c.14,0,.3-.11.62-.24a3.32,3.32,0,0,0-.7-.55.31.31,0,0,0-.45.3C28.48,40.81,28.75,40.93,29,41Zm-3.26,2.53c-.1.12-.34.3-.36.5a.62.62,0,0,0,.4.48c.29,0,.44-.23.44-.54S26.19,43.5,25.77,43.48Zm1.93,8a.51.51,0,0,0,.37.32,3.3,3.3,0,0,0,.73-.31l-.4-.63C28,51,27.62,51,27.7,51.5ZM33,45.76a.41.41,0,0,0-.17.37c.19.3.46.27.76.07C33.56,45.85,33.4,45.64,33,45.76Zm1.11-1.83v-.17a4.63,4.63,0,0,0-.8-.14l-6.06.18a1.56,1.56,0,0,0-.4.13l0,.17h6.91C33.93,44.11,34,44,34.15,43.93Zm-6.86-4.15c-.1.06-.2.32-.15.38.24.3.49.21.71-.07C27.77,39.78,27.6,39.59,27.29,39.78Zm3.81-7.14c.26-.07.25-.34.1-.52a3.31,3.31,0,0,0-.63-.46c0,.38-.07.62,0,.77A.59.59,0,0,0,31.1,32.64Zm.83,3.77c0,.13.24.36.39.38s.28-.22.53-.43c-.26-.2-.45-.42-.55-.39A.62.62,0,0,0,31.93,36.41Zm-1.72,4.43c.18.14.29.29.4.3S30.86,41,31,41c-.11-.12-.2-.29-.34-.35S30.41,40.72,30.21,40.84Zm.49-5.35c.19-.28.16-.55-.24-.77a.51.51,0,0,0-.17.77C30.33,35.56,30.65,35.55,30.7,35.49Zm3.22,2.39a.41.41,0,0,0,.26.31c.28,0,.38-.21.33-.44s-.18-.22-.36-.41C34,37.58,33.92,37.73,33.92,37.88ZM35,40.24c0-.09.08-.14.08-.19a.22.22,0,0,0-.06-.14l-5.87-2.63a2.39,2.39,0,0,0-.52-.1c.08.19.09.33.16.36A37.15,37.15,0,0,0,35,40.24Zm-2.63,1.39c.08,0,.15-.12.23-.18L32,40.92C31.94,41.48,32.09,41.63,32.38,41.63Zm1.08-.28c-.08,0-.11.2-.16.31l.6.24C33.86,41.41,33.71,41.28,33.46,41.35Zm3.21,8.94s0-.06,0-.08l-.11-.08a.57.57,0,0,0-.25.1l-4.51,4.36a.51.51,0,0,0-.1.21s0,.1.12.31c1.67-1.49,3.2-3,4.71-4.56A1.13,1.13,0,0,0,36.67,50.29Zm.47,1.31a.28.28,0,0,0-.27.12c-.17.34.06.47.42.62C37.42,52,37.5,51.73,37.14,51.6Zm1.66-.05-.17,0c-1,2.12-2,4.27-2.89,6.42a1,1,0,0,0,0,.38l.13.07a3.44,3.44,0,0,0,.39-.55c.87-1.95,1.73-3.92,2.58-5.88C38.88,51.84,38.82,51.68,38.8,51.55ZM39.06,59c-.17.17-.33.35-.56.6.22.16.35.35.48.35.37,0,.39-.33.38-.59S39.16,59.15,39.06,59Zm-4.41.58c.21.15.39.33.43.31a1.5,1.5,0,0,0,.46-.48c0-.07-.18-.26-.28-.4Zm-5-13a1.64,1.64,0,0,0-.39-.4s-.17.14-.35.29a3.44,3.44,0,0,0,.49.39S29.67,46.61,29.65,46.57ZM40,53.09c0,.07.18.19.28.29a2.08,2.08,0,0,0,.3-.43c0-.05-.13-.18-.26-.35C40.2,52.8,40.06,52.93,40,53.09Zm-1,3.94a1,1,0,0,0,0,.53s.24.12.27.08a1,1,0,0,0,.28-.44c0-.13-.06-.29-.15-.59C39.27,56.82,39.09,56.9,39.05,57Zm-4.31-1.51a2.11,2.11,0,0,0-.21-.59c-.15.25-.29.37-.29.48s.16.22.25.34C34.58,55.67,34.75,55.59,34.74,55.52Zm5.12.07c.4-.06.59-.22.38-.71C39.86,55,39.67,55.19,39.86,55.59Zm-10-2.41c0,.24-.11.5-.2.92l1-.33C30.46,53.31,30.31,53,29.83,53.18Zm1.31,2.28c-.58.06-.84.28-.71.68a.51.51,0,0,0,.4.26c.38,0,.48-.35.36-.89C31.19,55.49,31.15,55.47,31.14,55.46Zm2.08-4.28s.25-.19.23-.22a3.36,3.36,0,0,0-.36-.55c-.16.22-.33.4-.31.43A1.34,1.34,0,0,0,33.22,51.18Zm1.69-3.68a.66.66,0,0,0-.44,0l-5.3,2.92.07.2a1.5,1.5,0,0,0,.52-.09A28.39,28.39,0,0,0,34.91,47.5Zm-1.82,9.65a.39.39,0,0,0,.35,0c.2-.26.14-.5-.2-.72C33,56.65,32.86,56.89,33.09,57.15Zm-.84-4.87a2,2,0,0,0-.48-.32c-.1,0-.24.13-.51.28.28.17.44.32.61.33S32.12,52.39,32.25,52.28ZM42.48,61.7c-.06,0-.21.18-.31.28a1.75,1.75,0,0,0,.38.34c.05,0,.19-.12.36-.23C42.74,61.92,42.63,61.76,42.48,61.7Zm-7-8.05a1.83,1.83,0,0,0,.48.32c.07,0,.21-.17.41-.35-.23-.14-.39-.31-.55-.33S35.54,53.52,35.43,53.65Z"/></g></g></svg>