<svg xmlns="http://www.w3.org/2000/svg" viewBox="0 0 86.59 58.59"><defs><style>.cls-1{fill:#1d1d1b;}</style></defs><title>Asset 404</title><g id="Layer_2" data-name="Layer 2"><g id="Layer_1-2" data-name="Layer 1"><path class="cls-1" d="M17.24,55.88a.4.4,0,0,1-.21.74.43.43,0,0,1-.22-.06l-6.69-4.25a.4.4,0,1,1,.44-.68ZM42.29,43.29,22.78,55.88a.41.41,0,0,0,.44.68L42.73,44a.4.4,0,0,0-.44-.68Zm6.09-10.18h.06a.41.41,0,0,0,.4-.36l1.71-12.69a.4.4,0,0,0-.8-.11L48,32.65A.41.41,0,0,0,48.38,33.11Zm6.25-17.57a.37.37,0,0,0,.18,0l17.93-9A.41.41,0,0,0,72.92,6a.4.4,0,0,0-.54-.18l-17.93,9a.4.4,0,0,0-.18.54A.41.41,0,0,0,54.63,15.54Zm25.9,6.18L51.76,35.53a.4.4,0,0,0,.18.77.33.33,0,0,0,.17,0l28.77-13.8a.41.41,0,0,0-.35-.74Zm-31.89,14c-1.22-.06-1.15,1.15-2,1.41.05-.54.09-1,.16-1.78l-1,.93c0-2,0-3.71,0-5.43,0-.37.24-.78-.54-1a47.34,47.34,0,0,0,.12,7.36c-.86.21-.4-1.52-1.57-.9.28.63.55,1.22.89,2-.92,0-1.73,0-2.55,0s-1.55-.53-2.36-.08c.16.6.59.56,1,.56h3.55c.25,0,.5,0,.84.07-.63.95-1.83,1.28-2,2.63,1.06-.23,1.35-1.36,2.33-1.54,0,.5,0,.93,0,1.35s-.08,1-.05,1.53c0,.74.19,1.47.23,2.2,0,1,0,2.06.06,3.08a3.88,3.88,0,0,0,.24.78l.33,0a6.51,6.51,0,0,0,.13-1.07c-.05-2.12-.13-4.25-.19-6.37,0-.46-.05-.94.43-1.27.72.51,1,1.49,1.8,1.81.48-.32.34-.64.09-.94s-.6-.62-.89-.94-.83-.63-.75-1.35a4,4,0,0,1,1-.15,26.67,26.67,0,0,1,2.79.48c.48.12.83.15,1.07-.53a32.71,32.71,0,0,0-4.59-.55Zm-40.8,14c-.33-.37-.83-.63-.76-1.35a3.64,3.64,0,0,1,1-.15,26.2,26.2,0,0,1,2.79.47c.49.12.83.16,1.08-.52a32.85,32.85,0,0,0-4.6-.55l1.42-2.19c-1.22,0-1.16,1.15-2,1.41,0-.53.1-1,.17-1.77L6,46c0-2,0-3.7,0-5.42,0-.37.25-.78-.54-1a47.36,47.36,0,0,0,.13,7.36c-.86.21-.4-1.53-1.58-.9.29.62.56,1.22.89,2-.91,0-1.73,0-2.54,0S.81,47.42,0,47.88c.17.6.59.56,1,.56,1.19,0,2.37,0,3.55,0,.25,0,.5,0,.85.06-.63,1-1.83,1.29-2.05,2.63,1.06-.23,1.36-1.36,2.33-1.53,0,.5,0,.92,0,1.35s-.08,1-.05,1.52c.05.74.19,1.47.23,2.21,0,1,0,2,.07,3.08a2.92,2.92,0,0,0,.24.78l.33,0a8,8,0,0,0,.12-1.07c0-2.13-.12-4.25-.19-6.38,0-.46-.05-.93.43-1.26.73.51,1,1.48,1.8,1.8.48-.32.34-.64.1-.93S8.13,50.05,7.84,49.73ZM72.75,3.83c.21.09.41.19.62.26a12.88,12.88,0,0,1,1.49.47c1.09.5.87.33.83,1.42,0,.52,0,1,0,1.66,0,.4.3-.15.33-.22.13-.32.26-.65.36-1,.16-.61.35-1.14,1.1-1.3a10.83,10.83,0,0,0,2-.49c.48-.17-.69-.51-.87-.58s-.62-.24-.93-.35A1.49,1.49,0,0,1,76.66,2.2c0-.57.06-1.13.1-1.7,0-.2.08-.42-.27-.5a2.92,2.92,0,0,0-.14.38c-.16.69-.35,1.38-.44,2.08s-.56.93-1.15,1c-.28,0-.57,0-.86,0l-1.1.08C72.63,3.63,72.46,3.7,72.75,3.83ZM85.61,19.72c-.3-.13-.62-.24-.93-.35a1.47,1.47,0,0,1-1.07-1.51c0-.56.06-1.13.1-1.7,0-.2.08-.42-.27-.5a2.92,2.92,0,0,0-.14.38c-.16.69-.35,1.38-.44,2.08s-.56.94-1.15,1c-.28,0-.57,0-.86,0l-1.1.08c-.17,0-.34.09,0,.23s.4.18.62.25a12.88,12.88,0,0,1,1.49.47c1.09.5.87.33.83,1.42,0,.52,0,1,0,1.66,0,.4.3-.15.33-.21a9.75,9.75,0,0,0,.35-1c.17-.62.36-1.15,1.11-1.31a10.83,10.83,0,0,0,2-.49C87,20.13,85.79,19.79,85.61,19.72ZM23.69,54.45c-.21-.07-.42-.15-.63-.2a15.42,15.42,0,0,1-1.53-.34c-1.13-.41-.9-.25-1-1.35,0-.51-.11-1-.18-1.65-.08-.39-.29.18-.31.25a7.17,7.17,0,0,0-.27,1c-.12.63-.25,1.17-1,1.4a10.52,10.52,0,0,0-2,.66c-.46.2.73.44.91.5s.64.19,1,.27a1.46,1.46,0,0,1,1.19,1.41c.06.57,0,1.13.05,1.7,0,.21,0,.43.32.48,0-.14.08-.26.1-.39.1-.7.23-1.4.26-2.11s.48-1,1.06-1.12a8.27,8.27,0,0,1,.85-.12l1.09-.18C23.83,54.64,24,54.56,23.69,54.45ZM49.23,15a1.46,1.46,0,0,1,.56,1.61,10.42,10.42,0,0,0-.6,2c-.1.49.79-.34,1-.46s.51-.41.76-.63a1.48,1.48,0,0,1,1.85-.15c.49.28,1,.62,1.41.94.17.12.33.29.57,0-.09-.11-.16-.22-.25-.31-.52-.48-1-1-1.57-1.43a1.14,1.14,0,0,1-.3-1.52c.1-.26.26-.5.39-.76s.33-.66.49-1c.07-.15.1-.33-.17-.15s-.36.25-.53.4a14.45,14.45,0,0,1-1.16,1.05c-1,.68-.72.58-1.64,0-.44-.28-.91-.51-1.45-.81-.37-.16,0,.34,0,.4A8.83,8.83,0,0,0,49.23,15Z"/><path class="cls-1" d="M9.18,24.44v5.91c0,1.31,0,1.46.55,1.53V32L8.6,32,7.48,32v-.11c.51-.07.55-.22.55-1.53V24.44H7.59c-1.39,0-1.65.25-1.86.94H5.61c.06-.53.16-1,.19-1.59a6.5,6.5,0,0,0,2.7.28c2.1,0,2.62,0,3.18-.24a12.87,12.87,0,0,0-.25,1.49h-.12C11.28,24.47,10.92,24.45,9.18,24.44Zm6.6,7,.05.1a1.13,1.13,0,0,1-1,.53.58.58,0,0,1-.65-.57,2.43,2.43,0,0,1-1.58.6c-.89,0-1.5-.51-1.5-1.23S12,29.44,13,29.44a2.41,2.41,0,0,1,1.17.28V28.14c0-.85-.28-1.2-.84-1.2s-1,.44-1.05,1.38h-.94a1.89,1.89,0,0,1,2.1-1.64c1.07,0,1.76.49,1.76,1.91V30.9c0,.49.08.63.3.63A.42.42,0,0,0,15.78,31.42ZM14.17,30a1.52,1.52,0,0,0-.88-.26,1,1,0,0,0-1,1,.85.85,0,0,0,.9.95,1.55,1.55,0,0,0,1-.42Zm7.21,1.55c-.26,0-.33-.28-.33-.68V26.68a3.57,3.57,0,0,1-1.44.3v.11c.41.09.41.22.41,1v2.53c0,.12,0,.24,0,.36a1.35,1.35,0,0,1-1.24.66c-.78,0-1.09-.43-1.09-1.66V26.68a3.67,3.67,0,0,1-1.47.3v.11c.44.09.44.25.44,1v2.13c0,1.48.86,1.84,1.72,1.84a2,2,0,0,0,1.66-.78c.08.44.29.78.8.78a1.11,1.11,0,0,0,1-.66l0-.1A.56.56,0,0,1,21.38,31.52Zm3.75-4.84a1.9,1.9,0,0,0-1.27.71v-.71a3.5,3.5,0,0,1-1.38.3v.11c.33.09.34.25.34.79v3c0,.88-.14.94-.47,1V32l1,0,1,0v-.11c-.33-.06-.47-.12-.47-1V27.7a.89.89,0,0,1,.67-.39c.27,0,.44.16.44.61h1C26,27.06,25.68,26.68,25.13,26.68Zm6.43,4.84c-.26,0-.33-.28-.33-.68V26.68a3.6,3.6,0,0,1-1.44.3v.11c.4.09.4.22.4,1v2.53a2.17,2.17,0,0,0,0,.36,1.35,1.35,0,0,1-1.24.66c-.78,0-1.09-.43-1.09-1.66V26.68a3.69,3.69,0,0,1-1.48.3v.11c.45.09.45.25.45,1v2.13c0,1.48.85,1.84,1.71,1.84a2,2,0,0,0,1.67-.78c.07.44.28.78.8.78a1.11,1.11,0,0,0,1-.66l0-.1A.58.58,0,0,1,31.56,31.52Zm2-3.8a.8.8,0,0,1,.88-.82,1.32,1.32,0,0,1,1.24,1.16h.11c0-.35,0-.63,0-.81a2.15,2.15,0,0,1,0-.41,13.74,13.74,0,0,0-1.37-.16c-1,0-1.76.52-1.76,1.48,0,1.66,2.38,1.3,2.38,2.78a.84.84,0,0,1-.93.9c-.84,0-1.22-.75-1.19-1.54h-.11c-.1.44-.06,1.16-.13,1.53a9.62,9.62,0,0,0,1.51.23A1.65,1.65,0,0,0,36,30.46C36,28.7,33.53,29,33.53,27.72Z"/></g></g></svg>