<svg xmlns="http://www.w3.org/2000/svg" viewBox="0 0 90.39 82.15"><defs><style>.cls-1{fill:#1d1d1b;}</style></defs><title>Asset 407</title><g id="Layer_2" data-name="Layer 2"><g id="Layer_1-2" data-name="Layer 1"><path class="cls-1" d="M5.13,59.68a.46.46,0,0,1-.2,0,.41.41,0,0,1-.16-.56l6.34-11.33a.41.41,0,0,1,.71.4L5.48,59.47A.4.4,0,0,1,5.13,59.68ZM19.86,69.93a.41.41,0,0,0-.21-.53L5.29,63.18a.41.41,0,0,0-.53.22.4.4,0,0,0,.21.53l14.35,6.21a.32.32,0,0,0,.16,0A.41.41,0,0,0,19.86,69.93Zm9.68-.44,9.73-9a.4.4,0,0,0,0-.57.41.41,0,0,0-.58,0l-9.73,9a.42.42,0,0,0,0,.58.43.43,0,0,0,.3.13A.39.39,0,0,0,29.54,69.49Zm9.71-13.08a.4.4,0,0,0,.07-.57L32,46.54a.41.41,0,0,0-.64.5l7.35,9.31a.41.41,0,0,0,.32.15A.38.38,0,0,0,39.25,56.41Zm-6.65-13,14-8.51a.4.4,0,0,0,.13-.56.39.39,0,0,0-.55-.13l-14,8.51a.41.41,0,0,0-.14.56.42.42,0,0,0,.35.19A.39.39,0,0,0,32.6,43.36ZM52.19,31.58l6.4-3.25a.41.41,0,1,0-.37-.73l-6.4,3.25a.4.4,0,0,0-.17.55.4.4,0,0,0,.36.22A.39.39,0,0,0,52.19,31.58Zm13-10.22L68,11.14a.41.41,0,0,0-.78-.22L64.36,21.14a.41.41,0,0,0,.28.5l.11,0A.41.41,0,0,0,65.14,21.36Zm12.23,3.58a.4.4,0,0,0-.38-.42L67.6,24.1a.41.41,0,0,0,0,.81l9.39.42h0A.39.39,0,0,0,77.37,24.94Zm-9.54-2.32,12.9-10a.4.4,0,0,0,.07-.57.41.41,0,0,0-.57-.08L67.33,22a.41.41,0,0,0-.07.57.42.42,0,0,0,.32.16A.38.38,0,0,0,67.83,22.62ZM12.94,41.84c-.86.21-.4-1.53-1.57-.9l.89,2c-.92,0-1.74,0-2.55,0s-1.55-.54-2.37-.08c.17.6.59.56,1,.56h3.55c.25,0,.5,0,.84.06-.63.95-1.83,1.29-2,2.63,1.05-.23,1.35-1.36,2.33-1.53,0,.5,0,.92,0,1.35s-.09,1-.06,1.53c.05.73.2,1.46.23,2.2.06,1,0,2,.07,3.08a3.33,3.33,0,0,0,.24.78l.33,0a8,8,0,0,0,.13-1.07c-.06-2.13-.13-4.25-.19-6.38,0-.46-.06-.93.42-1.26.73.51,1,1.48,1.81,1.8.48-.31.34-.64.09-.93s-.6-.62-.89-.94-.83-.63-.75-1.35a3.58,3.58,0,0,1,1-.15,23.75,23.75,0,0,1,2.78.48c.49.11.84.15,1.08-.53a32.71,32.71,0,0,0-4.59-.55l1.41-2.19c-1.22,0-1.15,1.15-2,1.41L14.33,40l-1,.92c0-2,0-3.7,0-5.42,0-.37.24-.78-.55-1.05A47.36,47.36,0,0,0,12.94,41.84ZM23.25,70.5c-.86.21-.4-1.53-1.58-.9.29.62.56,1.21.89,2-.91,0-1.73,0-2.54,0s-1.56-.53-2.37-.07c.17.6.59.56,1,.56,1.19,0,2.37,0,3.55,0,.25,0,.5,0,.85.06-.63,1-1.83,1.29-2.05,2.63,1.06-.23,1.36-1.36,2.33-1.54,0,.51,0,.93,0,1.36s-.08,1-.05,1.52c0,.74.19,1.47.23,2.21.05,1,0,2,.07,3.08a2.92,2.92,0,0,0,.24.78l.33,0a8,8,0,0,0,.12-1.07c0-2.13-.12-4.25-.19-6.38,0-.46-.05-.93.43-1.26.73.51,1,1.48,1.8,1.8.48-.32.34-.64.1-.93s-.6-.62-.89-.94-.83-.63-.76-1.35a3.64,3.64,0,0,1,1-.15,26.2,26.2,0,0,1,2.79.47c.49.12.83.16,1.08-.52a33,33,0,0,0-4.6-.55c.49-.76.91-1.4,1.41-2.19-1.21,0-1.15,1.15-2,1.41l.17-1.77-1,.92c0-2,0-3.7,0-5.42,0-.37.25-.78-.54-1A47.36,47.36,0,0,0,23.25,70.5ZM62.62,24.16c-.86.22-.4-1.52-1.58-.89.29.62.56,1.21.89,1.95-.91,0-1.73,0-2.54,0s-1.56-.53-2.37-.07c.17.6.59.56,1,.56h3.55c.25,0,.5,0,.85.06-.63.95-1.83,1.29-2,2.63,1.06-.23,1.36-1.36,2.33-1.54,0,.51,0,.93,0,1.36s-.08,1-.05,1.52c0,.74.19,1.47.23,2.21,0,1,0,2,.07,3.07a2.81,2.81,0,0,0,.24.78l.33,0a7.64,7.64,0,0,0,.12-1.06c0-2.13-.12-4.25-.19-6.38,0-.46-.05-.93.43-1.26.73.51,1,1.48,1.8,1.8.48-.32.34-.64.1-.93s-.6-.63-.89-.95-.83-.62-.76-1.35a4.05,4.05,0,0,1,1-.15A26.22,26.22,0,0,1,67.9,26c.49.12.83.16,1.08-.52a31.43,31.43,0,0,0-4.6-.55l1.42-2.19c-1.22-.06-1.16,1.15-2,1.41L64,22.35l-1,.93c0-2,0-3.7,0-5.43,0-.36.25-.77-.54-1A47.21,47.21,0,0,0,62.62,24.16ZM84,7.36c-.87.21-.4-1.53-1.58-.9.29.62.55,1.22.89,2-.92,0-1.73,0-2.54,0s-1.56-.53-2.37-.07c.17.6.59.56,1,.56H82.9c.25,0,.5,0,.85.06-.64.95-1.84,1.29-2,2.63,1.06-.23,1.35-1.36,2.33-1.53,0,.5,0,.92,0,1.35s-.08,1,0,1.52c0,.74.19,1.47.23,2.21.05,1,0,2,.07,3.08a3.29,3.29,0,0,0,.23.78l.33,0A6.65,6.65,0,0,0,85,17.91c0-2.13-.13-4.25-.19-6.38,0-.46,0-.93.43-1.26.72.51,1,1.48,1.8,1.8.48-.32.34-.64.1-.93s-.6-.62-.9-.94-.82-.63-.75-1.35a3.64,3.64,0,0,1,1-.15,26.63,26.63,0,0,1,2.79.47c.48.12.83.16,1.07-.52a32.71,32.71,0,0,0-4.59-.55l1.41-2.19c-1.22,0-1.15,1.15-2,1.41l.16-1.77-1,.92c0-2,0-3.7,0-5.42,0-.37.25-.78-.54-1A47.36,47.36,0,0,0,84,7.36ZM45.83,32.42c.21.09.41.19.62.26a12.88,12.88,0,0,1,1.49.47c1.09.5.87.32.83,1.42,0,.52,0,1,0,1.66,0,.4.3-.15.33-.22.13-.32.26-.65.36-1,.16-.61.35-1.14,1.1-1.3a10.9,10.9,0,0,0,2-.5c.48-.16-.69-.5-.87-.58s-.62-.23-.93-.34a1.49,1.49,0,0,1-1.07-1.51c0-.57.06-1.13.1-1.7,0-.21.08-.43-.27-.5a2.92,2.92,0,0,0-.14.38c-.16.69-.35,1.38-.44,2.08s-.56.93-1.15,1c-.28,0-.57,0-.86,0l-1.1.08C45.71,32.22,45.54,32.29,45.83,32.42ZM26.6,44.16c.21.08.41.18.62.25a14.36,14.36,0,0,1,1.49.47c1.09.5.87.33.83,1.42,0,.52,0,1,0,1.66,0,.4.3-.15.33-.21a9.85,9.85,0,0,0,.36-1c.16-.62.35-1.14,1.11-1.31a11,11,0,0,0,2-.49c.47-.16-.7-.51-.87-.58s-.62-.24-.94-.34a1.48,1.48,0,0,1-1.06-1.52,16,16,0,0,1,.1-1.69c0-.21.07-.43-.28-.51-.05.14-.11.26-.14.38-.15.69-.34,1.38-.44,2.08s-.56.94-1.15,1a6,6,0,0,1-.85,0l-1.11.09C26.48,44,26.32,44,26.6,44.16ZM66.14,8.59a5.36,5.36,0,0,0,.62.25c.49.17,1,.26,1.49.47,1.09.51.87.33.83,1.43,0,.51,0,1,0,1.65,0,.4.3-.14.33-.21.13-.32.26-.65.36-1,.16-.61.35-1.14,1.1-1.31a9.92,9.92,0,0,0,2-.49c.48-.16-.69-.5-.86-.58s-.63-.23-.94-.34A1.49,1.49,0,0,1,70.05,7c0-.57.06-1.14.1-1.7,0-.21.08-.43-.27-.5a2.92,2.92,0,0,0-.14.38c-.15.69-.35,1.38-.44,2.08s-.56.93-1.15,1a8.11,8.11,0,0,1-.86,0l-1.1.08C66,8.39,65.85,8.46,66.14,8.59ZM78.06,25a6.5,6.5,0,0,0,.61.25,14.36,14.36,0,0,1,1.49.47c1.09.5.88.33.84,1.42,0,.52,0,1,0,1.66,0,.4.31-.15.33-.21a7.35,7.35,0,0,0,.36-1c.17-.61.35-1.14,1.11-1.31a10.25,10.25,0,0,0,2-.49c.47-.16-.69-.5-.87-.58S83.35,25,83,24.9A1.48,1.48,0,0,1,82,23.39c0-.57.06-1.14.1-1.7,0-.21.08-.43-.28-.51a2.45,2.45,0,0,0-.13.38c-.16.7-.35,1.38-.44,2.08s-.56.94-1.16,1a8.08,8.08,0,0,1-.85,0l-1.1.08C77.94,24.82,77.77,24.89,78.06,25Zm-40,33.06c.2.08.4.18.61.25a12.45,12.45,0,0,1,1.5.47c1.08.5.87.33.83,1.42,0,.52,0,1,0,1.66,0,.4.3-.15.33-.21a9.12,9.12,0,0,0,.35-1c.17-.61.35-1.14,1.11-1.3a10.83,10.83,0,0,0,2-.49c.47-.17-.69-.51-.87-.58s-.62-.24-.93-.35A1.47,1.47,0,0,1,42,56.44c0-.56.06-1.13.1-1.7,0-.2.08-.42-.27-.5a2,2,0,0,0-.14.38c-.16.69-.35,1.38-.44,2.08s-.56.94-1.16,1c-.28,0-.56,0-.85,0l-1.1.08C38,57.87,37.8,57.94,38.09,58.08Zm-37.93,3a6.57,6.57,0,0,0,.61.26,12.29,12.29,0,0,1,1.49.47c1.09.5.88.33.84,1.42,0,.52,0,1,0,1.66.05.4.31-.15.33-.22a6.88,6.88,0,0,0,.36-1c.17-.61.35-1.14,1.11-1.3a11,11,0,0,0,2-.49c.47-.17-.69-.51-.87-.59s-.62-.23-.93-.34a1.46,1.46,0,0,1-1.07-1.51c0-.57.06-1.13.1-1.7,0-.21.08-.42-.28-.5a2.92,2.92,0,0,0-.14.38c-.15.69-.34,1.38-.43,2.08s-.56.93-1.16,1c-.28,0-.57,0-.85,0l-1.1.08C0,60.87-.13,60.94.16,61.07Z"/><path class="cls-1" d="M59.67,47.62A2.27,2.27,0,0,1,57.22,50c-.68,0-1.09-.2-1.58-.2a.8.8,0,0,0-.31,0s0-.17,0-.34,0-.66,0-1a2.16,2.16,0,0,1,.12-.77h.11a3.73,3.73,0,0,0,0,.48,1.6,1.6,0,0,0,1.68,1.47,1.36,1.36,0,0,0,1.49-1.43c0-2.14-3.4-1.94-3.4-4.38a2.1,2.1,0,0,1,2.23-2.16c.58,0,1,.17,1.43.17a1,1,0,0,0,.38-.06c0,.27,0,.61,0,1,0,.18,0,.5,0,.82h-.12C59,42.43,58.36,42,57.59,42a1.2,1.2,0,0,0-1.34,1.25C56.25,45.3,59.67,45,59.67,47.62Zm3.52-2.81c.7,0,.91.47.94,1.06H65.2a1.76,1.76,0,0,0-1.93-1.28,2.64,2.64,0,0,0-2.74,2.71A2.57,2.57,0,0,0,63.15,50a2.22,2.22,0,0,0,1.93-1L65,48.91a1.81,1.81,0,0,1-1.39.61c-1.14,0-1.94-.91-1.94-2.46C61.67,45.86,62.15,44.81,63.19,44.81Zm8.07,2.47A2.63,2.63,0,0,1,68.53,50a2.58,2.58,0,0,1-2.7-2.64,2.72,2.72,0,0,1,5.43,0Zm-1.22,0c0-1.49-.31-2.5-1.49-2.5s-1.5,1.16-1.5,2.49.26,2.43,1.48,2.43S70,48.64,70,47.31Zm4.72-2.72a1.9,1.9,0,0,0-1.27.71v-.71a3.49,3.49,0,0,1-1.37.3V45c.33.09.34.25.34.79v3c0,.88-.14.94-.47,1v.11l1,0,1,0v-.11c-.33-.06-.48-.12-.48-1V45.61a.92.92,0,0,1,.68-.39c.26,0,.44.15.44.61h1C75.62,45,75.31,44.59,74.76,44.59Zm6.78,2.67A2.59,2.59,0,0,1,78.9,50a2.34,2.34,0,0,1-1.32-.39v1.71c0,.88.14.94.48,1v.11l-1,0-1,0v-.11c.33-.06.48-.12.48-1V45.79c0-.54,0-.71-.41-.79v-.11a3.57,3.57,0,0,0,1.44-.3v.51a2.38,2.38,0,0,1,1.49-.51A2.51,2.51,0,0,1,81.54,47.26Zm-1.23.08c0-1.5-.54-2.43-1.57-2.43a1.59,1.59,0,0,0-1.16.51V49.2a1.67,1.67,0,0,0,1.18.46C79.59,49.66,80.31,49.08,80.31,47.34Zm3.48,1.45V44.63a3.67,3.67,0,0,1-1.37.28V45c.33.09.34.27.34.8v3c0,.88-.14.94-.47,1v.11l1,0,1,0v-.11C83.94,49.73,83.79,49.67,83.79,48.79ZM83.31,44a.54.54,0,1,0-.53-.52A.53.53,0,0,0,83.31,44Zm7.08,3.3A2.62,2.62,0,0,1,87.66,50,2.58,2.58,0,0,1,85,47.31a2.72,2.72,0,0,1,5.43,0Zm-1.22,0c0-1.49-.31-2.5-1.49-2.5S86.19,46,86.19,47.3s.26,2.43,1.47,2.43S89.17,48.64,89.17,47.31Z"/></g></g></svg>