<svg xmlns="http://www.w3.org/2000/svg" viewBox="0 0 83.01 154.3"><title>Asset 563</title><g id="Layer_2" data-name="Layer 2"><g id="Layer_1-2" data-name="Layer 1"><path d="M82.7,21.8a4.64,4.64,0,0,0-1.11-2.45C84.51,6.82,75.12,1.09,75,1L73.27,0l.94,1.81s1,2,0,2.85l-.3.25.43,1.42-.57,1.32.24.28s.43.49.25.92c-.26.64-1.27,1.34-3.05,2.42-.2.12-.38.24-.56.37-1.57-1-1.34-1.83-1.34-1.86l.12-.33-.74-.8L68.54,7.4,68,7.13a3.7,3.7,0,0,1-.43-2.23l.07-2.67-1.18,2.4a13.75,13.75,0,0,0-1.12,3.13,10.4,10.4,0,0,0,2.91,8.81,13,13,0,0,0,.18,2.12c.6,3.82,4.09,5.43,5.32,5.88a3.54,3.54,0,0,0,1,1.62,1.46,1.46,0,0,0-.42.32,1.49,1.49,0,0,0-.31.56,14.64,14.64,0,0,0-1.9-.32c-1.6-.19-3.09-1.6-4.53-3a14.77,14.77,0,0,0-3.17-2.52,2.58,2.58,0,0,0-2.27-.16,3.71,3.71,0,0,0-1.61,1.52c0-.09-.09-.18-.13-.26a2.63,2.63,0,0,0-2.16-1.5,2.2,2.2,0,0,0-2,1.06,14.42,14.42,0,0,0-.88,1.8,7.51,7.51,0,0,1-1.5,2.56,3.35,3.35,0,0,1-.64.37,5,5,0,0,0-3.17-1.05h-.28a4.47,4.47,0,0,0-2.39.81A2.81,2.81,0,0,0,45.9,25a1.28,1.28,0,0,0-1.36.55c-.59.77-2.25.54-2.84.38l-.13,0-.26,0c-.59.15-2.25.39-2.84-.38a1.28,1.28,0,0,0-1.36-.55,2.81,2.81,0,0,0-1.56,1.37,4.54,4.54,0,0,0-2.39-.82h-.28a5.09,5.09,0,0,0-3.17,1.05,2.89,2.89,0,0,1-.64-.37,7.46,7.46,0,0,1-1.5-2.55,14.42,14.42,0,0,0-.88-1.8,2.12,2.12,0,0,0-2-1.06,2.65,2.65,0,0,0-2.17,1.5l-.13.26a3.68,3.68,0,0,0-1.6-1.52,2.6,2.6,0,0,0-2.28.16,14.77,14.77,0,0,0-3.17,2.52c-1.44,1.36-2.93,2.77-4.52,3A14.37,14.37,0,0,0,9.35,27,1.5,1.5,0,0,0,9,26.21a1.35,1.35,0,0,0-.47-.35,2.91,2.91,0,0,0,.7-1.27c1.23-.45,4.73-2.07,5.32-5.89a12.78,12.78,0,0,0,.18-2.11,10.4,10.4,0,0,0,2.91-8.81,14.11,14.11,0,0,0-1.12-3.14l-1.47-3L15.42,5a3,3,0,0,1-.24,2l-.78.35.11.93-.65.37v.81a2.77,2.77,0,0,1-1.5,2.27c-.18-.13-.36-.25-.56-.37C10,10.21,9,9.51,8.75,8.87A1,1,0,0,1,9,8l.22-.24L8.81,6.34,9.15,5.1l-.29-.24c-1-.84,0-3,0-3.06L9.6.1,8,1.05c-.1.06-9.49,5.78-6.56,18.32A4.58,4.58,0,0,0,.31,21.82c-.73,3.43-.27,8.37,2.47,11.1a9.11,9.11,0,0,0,3.11,1.92l.12.1a1.53,1.53,0,0,0,.9.47,2.18,2.18,0,0,0,.66,0h.12l.19,0a7.73,7.73,0,0,0,1.52.18,3.24,3.24,0,0,0,.55,0H10a8.46,8.46,0,0,0,6.4-4,11.7,11.7,0,0,1,5.44-4,3.41,3.41,0,0,0,.19.5,4.8,4.8,0,0,0,3.23,2.49c.09.42.51.58,1.05.78a3,3,0,0,0,1.06.21,4,4,0,0,0,2.42-1.2c.45-.35,1-.75,1.63-1.2,1.65-1.1,2.7-.35,3.05,0a1.3,1.3,0,0,1-.79,1,1.72,1.72,0,0,1-1.54-.29,1.19,1.19,0,0,0-1.64.19,4.22,4.22,0,0,0-.54,5c.59.83.34,1.45-.19,2.56A6.12,6.12,0,0,0,29,40.33c0,1.41.47,1.79,1.24,1.92l0,0a16.75,16.75,0,0,0-7.84,2.94c-.63.44-2.41-1.83-3.26-2.92L18.92,42l.7-.21c2-.59,4.69-1.4,4.87-3.07a4.14,4.14,0,0,0-1-3.08l-.59-.62-.36.77a7.11,7.11,0,0,1-1.36,2,7.91,7.91,0,0,1-2.72,1c-1.62.41-3.44.87-3.52,2.66-.06,1.55,1.42,3,2.86,4.46a13.81,13.81,0,0,1,1.8,2,2.2,2.2,0,0,0,2,1.18,9.14,9.14,0,0,0,2.67-.62c.67-.21,1.42-.46,2.27-.67a20.75,20.75,0,0,1,3.4-.46s0,0,0,.06a2.58,2.58,0,0,0,.54.78,3.93,3.93,0,0,0-.87,2.17l-4,6.55a1.49,1.49,0,0,1-.55.51c-2.22,1.13-3.42,1.34-3.65,1.21-.69-.59-1.18-2.79-1.35-3.51l0-.18A3,3,0,0,0,18.71,53a2.76,2.76,0,0,0-2-.27l-1.05.3.83.71a3.68,3.68,0,0,1,1.06,1.72c.08.32.17,1,.27,1.78.49,3.6.78,5.07,1.72,5.11.44,0,.86,0,1.26,0,3.74,0,5.87-.75,6.85-2.4a9.19,9.19,0,0,1,2.8-3,1.37,1.37,0,0,0,.2.22,6.47,6.47,0,0,0-.72,2.21h0l-2.48,8.13a4,4,0,0,1-1.09,1.76c-2.46,2.32-5.53,4.21-6.41,3.33-4.07-4.07-5.92-2.51-6.11-2.31l-.59.57.73.37a8.27,8.27,0,0,1,2.18,1.74l.72.84A9.84,9.84,0,0,0,19.12,76a2.79,2.79,0,0,0,1.5.5c.87,0,1.85-.49,3.41-1.45a12.4,12.4,0,0,1,3.39-1.17,9.22,9.22,0,0,0,3-1.08,8.15,8.15,0,0,0,1.84-3.29,3.9,3.9,0,0,0,.65.52,23.63,23.63,0,0,0-3,11.62c0,1.12-.88,1.34-3.06,1.58-1.58.18-3.37.38-4.55,1.55A3.16,3.16,0,0,1,20.11,86a1.76,1.76,0,0,1-1.21-.84c-2.23-3.26-4.41-2.59-4.5-2.56l-1.2.4,1.08.66A5.37,5.37,0,0,1,16,85.28c.16.31.29.57.4.81A5,5,0,0,0,18,88.24a2.71,2.71,0,0,0,1.67.54c1.39,0,3-.87,4.8-1.83a6.06,6.06,0,0,1,3.88-.19,7.06,7.06,0,0,0,3.87-.09c1-.44,1.16-1.89,1.32-3.73a15.05,15.05,0,0,1,.59-3.59,13.74,13.74,0,0,1,2.22-4.22,4.25,4.25,0,0,1,.59.36,2.39,2.39,0,0,0,.47,3.18c-1.09,1.53-3.78,5.87-1.3,8.52a11.41,11.41,0,0,0,1.6,1.42c-.87,1.28-3.25,5.28-1.38,8.09a9.69,9.69,0,0,0,1.34,1.61c-.74,1-2.76,3.81-2.13,6.11-.23.22-.78.7-2,1.71a6.06,6.06,0,0,0-1,1.11,10.47,10.47,0,0,0-5.54,1.41,4.67,4.67,0,0,0-1.06.78,7.14,7.14,0,0,0-5-2.33c-.21,0-.43,0-.65.05a12.51,12.51,0,0,0-1.7-3.1,5.34,5.34,0,0,0,2.07-4.86,2.34,2.34,0,0,0-.7-1.57,1.15,1.15,0,0,1-.34-1.07,4.87,4.87,0,0,1,1.63-2.65l.9-.79-1.18-.22a4.82,4.82,0,0,0-4.79,2.38c-.31.47-.71.54-1.46.64a3.31,3.31,0,0,0-2.86,1.66,5.65,5.65,0,0,0,.57,6.21,5.53,5.53,0,0,0-.65,2.86c0,2.73,3.11,5.14,5.32,5.67a5.47,5.47,0,0,0,1.92,2.12,8.11,8.11,0,0,0,4.16,1.16,5.38,5.38,0,0,0,2.76-.7l0,0a9.8,9.8,0,0,0,4.12,1.4,8.43,8.43,0,0,0,.86,0,11,11,0,0,0,6.75-2.75c4.11-1.31,7.55-6.83,8-7.58q.19-.19.39-.42c1.83-2.12-.08-5.61-1-7a9.27,9.27,0,0,0,1.69-1.92c1.88-2.81-.52-6.82-1.38-8.1a11.29,11.29,0,0,0,1.6-1.4c2.49-2.68-.3-7.11-1.39-8.63a3,3,0,0,0,.5-3,4.07,4.07,0,0,1,.64-.39,13.38,13.38,0,0,1,2.23,4.23,15.05,15.05,0,0,1,.59,3.59c.16,1.84.28,3.29,1.32,3.73a7.15,7.15,0,0,0,3.87.09,6.06,6.06,0,0,1,3.88.19c1.79,1,3.41,1.83,4.8,1.83A2.71,2.71,0,0,0,65,88.24a4.88,4.88,0,0,0,1.57-2.15c.11-.24.24-.5.4-.81a5.47,5.47,0,0,1,1.74-1.67L69.82,83l-1.21-.4c-.09,0-2.27-.7-4.5,2.56a1.77,1.77,0,0,1-1.2.84,3.16,3.16,0,0,1-2.24-1.17c-1.17-1.17-3-1.37-4.55-1.55-2.17-.24-3.06-.46-3.06-1.58a23.58,23.58,0,0,0-3-11.64,3.23,3.23,0,0,0,.66-.52,8.15,8.15,0,0,0,1.84,3.29,9.31,9.31,0,0,0,3,1.08A12.4,12.4,0,0,1,59,75c1.57,1,2.54,1.45,3.41,1.45a2.79,2.79,0,0,0,1.5-.5,9.84,9.84,0,0,0,2.3-2.22l.72-.84a8.52,8.52,0,0,1,2.18-1.74l.73-.37-.59-.57c-.19-.19-2-1.76-6.1,2.31-.88.88-4-1-6.42-3.33a4,4,0,0,1-1.09-1.76l-2.48-8.13h0a6.65,6.65,0,0,0-.71-2.2l.2-.23A9,9,0,0,1,55.38,60c1,1.65,3.12,2.41,6.85,2.41l1.26,0c.94,0,1.24-1.51,1.72-5.11.1-.75.19-1.45.27-1.78a3.56,3.56,0,0,1,1.06-1.71l.84-.71-1.06-.31a2.73,2.73,0,0,0-2,.27A3,3,0,0,0,63,55.05l0,.18c-.16.72-.66,2.93-1.34,3.51-.24.13-1.44-.07-3.65-1.21a1.29,1.29,0,0,1-.55-.51l-4-6.55a3.93,3.93,0,0,0-.87-2.17,2.47,2.47,0,0,0,.54-.78l.09-.22a18.92,18.92,0,0,1,3.16.45c.84.21,1.59.45,2.26.67a9.5,9.5,0,0,0,2.67.61,2.19,2.19,0,0,0,2-1.18,13.37,13.37,0,0,1,1.81-2c1.43-1.43,2.91-2.91,2.85-4.47-.08-1.79-1.9-2.25-3.51-2.65a7.83,7.83,0,0,1-2.72-1,7.41,7.41,0,0,1-1.37-2L60,34.86l-.59.61a4.17,4.17,0,0,0-1,3.09c.18,1.67,2.89,2.47,4.87,3.06l.7.21-.21.27c-.85,1.09-2.63,3.35-3.26,2.91a16.9,16.9,0,0,0-7.31-2.88c.54-.2.86-.66.86-1.82a6,6,0,0,0-.78-2.71c-.53-1.12-.77-1.73-.19-2.57a4.23,4.23,0,0,0-.53-5,1.19,1.19,0,0,0-1.64-.19,1.71,1.71,0,0,1-1.55.29,1.3,1.3,0,0,1-.79-1c.33-.33,1.39-1.1,3.05,0,.67.45,1.18.85,1.63,1.2a4,4,0,0,0,2.42,1.2,3,3,0,0,0,1.06-.21c.54-.2,1-.36,1-.77A4.82,4.82,0,0,0,61,28a3.41,3.41,0,0,0,.19-.5,11.66,11.66,0,0,1,5.45,4,8.41,8.41,0,0,0,6.39,4l.08,0a4.39,4.39,0,0,0,.54,0,7.56,7.56,0,0,0,1.71-.22l.08,0a1.57,1.57,0,0,0,.87,0,1.74,1.74,0,0,0,.84-.56,9.37,9.37,0,0,0,3.13-1.92C83,30.17,83.43,25.23,82.7,21.8ZM15,9.4V9.26l.74-.42L15.67,8h0a1.45,1.45,0,0,0,.66-.7,4.44,4.44,0,0,1,.16.68,9.09,9.09,0,0,1-1.9,7,4.91,4.91,0,0,0-1.3-2.52A3.84,3.84,0,0,0,15,9.4ZM7.27,3a3.08,3.08,0,0,0,.56,2.45l-.23.87.32,1.08a2.05,2.05,0,0,0-.26,1.87c.39.95,1.45,1.72,3.53,3,1.54.93,2.86,2.11,2.21,6.23-.49,3.16-3.52,4.57-4.55,5a3.09,3.09,0,0,0-1-.48c-.81-.3-1-.43-.92-.8a1.86,1.86,0,0,0-.4-1.61,1.85,1.85,0,0,0-1.69-.2,2,2,0,0,1-.77.07c-.16-.05-.26-.21-.41-.47a1.55,1.55,0,0,0-1.14-.92C.48,10.13,4.92,5,7.27,3ZM5.42,33.35A7.24,7.24,0,0,1,3.61,32.1C1.44,29.93,1,26.19,1.25,23.41a6.06,6.06,0,0,1,.88-3.11,1,1,0,0,1,.25-.07c.1,0,.15.09.3.35a2,2,0,0,0,1,1,2.62,2.62,0,0,0,1.39,0,2.93,2.93,0,0,1,.66-.09s.09.12,0,.62c-.15,1.36,1,1.78,1.69,2a3.5,3.5,0,0,1,.6.25s0,.35-1.07,1.42C4.84,28,5.1,31.51,5.42,33.35Zm2-5.17c-.63.91-.73,4.17-.3,6.07H7c-.06,0-.14-.08-.23-.16l0,0c-.21-.85-1.07-4.86.85-7.17a.67.67,0,0,1,.51.1.6.6,0,0,1,.07.42A2.52,2.52,0,0,0,7.41,28.18Zm14.24-1.82a12.75,12.75,0,0,0-6.2,4.54,7.25,7.25,0,0,1-5.6,3.51H9.77a4.63,4.63,0,0,1-1.43-.08c-.49-1.47-.36-4.92,0-5.49s.46-.66,2.62-.92c2-.23,3.62-1.78,5.2-3.27a14.06,14.06,0,0,1,2.89-2.33,1.5,1.5,0,0,1,1.29-.12,3.58,3.58,0,0,1,1.51,2A6.83,6.83,0,0,0,21.65,26.36ZM29.72,45.3a2.28,2.28,0,0,0-.13,1,21.32,21.32,0,0,0-3.37.48c-.88.22-1.66.48-2.34.7-2.18.71-2.79.79-3.32-.07a15.18,15.18,0,0,0-2-2.24C17.39,44,16,42.65,16.08,41.61c0-.88,1-1.17,2.62-1.57a8.74,8.74,0,0,0,3.14-1.23,5.69,5.69,0,0,0,1.24-1.58,2.65,2.65,0,0,1,.24,1.4c-.09.89-2.85,1.71-4,2.06s-1.69.5-1.83.94a.65.65,0,0,0,.12.6c.2.24.41.51.63.79,1.55,2,3.32,4.23,4.85,3.15a15.79,15.79,0,0,1,5.8-2.5,1.09,1.09,0,0,0,0,.18,1.94,1.94,0,0,0,.92,1.31ZM54.09,44a1.35,1.35,0,0,0,0-.53A16,16,0,0,1,59.77,46c1.54,1.08,3.3-1.16,4.86-3.15.21-.28.42-.54.62-.79a.64.64,0,0,0,.12-.59c-.14-.44-.56-.57-1.82-.94s-3.95-1.17-4-2.06A2.79,2.79,0,0,1,59.75,37,5.54,5.54,0,0,0,61,38.61a8.58,8.58,0,0,0,3.14,1.24c1.61.4,2.59.69,2.63,1.56,0,1-1.32,2.39-2.51,3.59a13.83,13.83,0,0,0-2,2.24c-.53.86-1.14.77-3.32.06-.68-.22-1.46-.47-2.34-.69a19.69,19.69,0,0,0-3.19-.47,2.19,2.19,0,0,0-.13-.86.54.54,0,0,0-.07-.13A1.81,1.81,0,0,0,54.09,44ZM26.21,29.45a3.63,3.63,0,0,1-3.09-1.91c-.77-1.68.09-3.8.5-4.64a1.5,1.5,0,0,1,1.18-.84,1,1,0,0,1,.9.52,13.29,13.29,0,0,1,.8,1.64,7.72,7.72,0,0,0,1.85,3,2.68,2.68,0,0,0,.37.25c-.18.16-.36.33-.55.52A8.08,8.08,0,0,1,26.21,29.45Zm4.59-1.32c-.71.48-1.26.91-1.7,1.26-1,.79-1.39,1.06-2,.91A9.15,9.15,0,0,0,29,28.83c2-2,3-2,3.91-2h.31a3.63,3.63,0,0,1,1.79.69l-.16.4A3.53,3.53,0,0,0,30.8,28.13ZM30,43.69s0,0,.11-.1a2.76,2.76,0,0,0,1.58-1.18,7.37,7.37,0,0,1,2,.65,9.9,9.9,0,0,0,4,1.13A3.18,3.18,0,0,0,36.82,46v.1a.9.9,0,0,0,.06.25,1.51,1.51,0,0,1-.7-.22,9.36,9.36,0,0,0-5.07-1.77A1.13,1.13,0,0,1,30,43.69Zm8.66,3.55a17.67,17.67,0,0,0,2.53.15h.37a18.22,18.22,0,0,0,2.26-.09,6.87,6.87,0,0,0,1.82.27,3.4,3.4,0,0,0,1.79-.44A8.1,8.1,0,0,1,52,45.53h.08c.19.17.32.64-.07,1.53s-1.4,1-2.62,1.29a8.38,8.38,0,0,0-3,1.06,7,7,0,0,1-4.78,1.19h-.19a6.89,6.89,0,0,1-4.8-1.17,8.19,8.19,0,0,0-3-1.06c-1.22-.26-2.27-.48-2.62-1.29s-.25-1.36-.07-1.53H31a8.2,8.2,0,0,1,4.54,1.59,2.74,2.74,0,0,0,1.51.41A4.68,4.68,0,0,0,38.69,47.24ZM38,45.88c.33-1.25,2.5-2.46,3.53-2.93a11.31,11.31,0,0,1,1.17.61l.08,0c1,.59,2.06,1.42,2.28,2.27a12.89,12.89,0,0,1-3.51.35A13.4,13.4,0,0,1,38,45.88ZM51,56.73a4.53,4.53,0,0,1-2.14.69,4,4,0,0,0-2.56,1.11c-1.78,1.66-4.68,1.26-4.71,1.26l-.09,0-.09,0s-3,.42-4.76-1.25a4,4,0,0,0-2.56-1.1A4.56,4.56,0,0,1,32,56.75a1.89,1.89,0,0,1-1-1.33,3.32,3.32,0,0,1,.81-2.21,4.81,4.81,0,0,0,2,.3,2.08,2.08,0,0,1,1.75.56,8,8,0,0,0,5.25,1.83c.35,0,.6,0,.72,0a8.2,8.2,0,0,0,5.9-1.82,2,2,0,0,1,1.75-.55,4.85,4.85,0,0,0,2-.31A3.34,3.34,0,0,1,52,55.41,1.9,1.9,0,0,1,51,56.73Zm1,3.46a1.43,1.43,0,0,1-.45,1.11,2.37,2.37,0,0,1-1.78.51,7.38,7.38,0,0,0-4.6.81,8.79,8.79,0,0,1-3.59.66h-.08a8.68,8.68,0,0,1-3.64-.65,7.52,7.52,0,0,0-4.6-.81,2.37,2.37,0,0,1-1.78-.5A1.43,1.43,0,0,1,31,60.21a5.3,5.3,0,0,1,.56-2.34,5.82,5.82,0,0,0,2.4.74,2.79,2.79,0,0,1,1.9.79A6.85,6.85,0,0,0,40.56,61a8.11,8.11,0,0,0,1,0,7.37,7.37,0,0,0,5.6-1.58A2.84,2.84,0,0,1,49,58.59a5.83,5.83,0,0,0,2.39-.74A5.3,5.3,0,0,1,52,60.19Zm-.73-8.32a3.46,3.46,0,0,1-2,.45,3.24,3.24,0,0,0-2.55.85,7.1,7.1,0,0,1-5,1.52h-.14a7.18,7.18,0,0,1-5.12-1.5,3.24,3.24,0,0,0-2.55-.85,3.47,3.47,0,0,1-2-.46,1.64,1.64,0,0,1-1-1.17A2.67,2.67,0,0,1,31.45,49a9.9,9.9,0,0,0,1.94.55,7.12,7.12,0,0,1,2.57.88,8.2,8.2,0,0,0,4.62,1.44,5.66,5.66,0,0,0,1-.07,8.22,8.22,0,0,0,5.52-1.39,7,7,0,0,1,2.56-.88,9.9,9.9,0,0,0,1.94-.55,2.67,2.67,0,0,1,.67,1.76A1.68,1.68,0,0,1,51.26,51.87ZM29.83,55.58l.06.3a10.08,10.08,0,0,0-3.27,3.5c-.81,1.37-3,1.94-6.87,1.81a22.62,22.62,0,0,1-.79-4.1c-.1-.81-.2-1.51-.29-1.89a4.36,4.36,0,0,0-.44-1.1,2.06,2.06,0,0,1,.68,1.23l0,.17c.37,1.64.86,3.41,1.73,4.16.27.22,1.08.91,4.94-1.07a2.52,2.52,0,0,0,1-1L30.07,52a3.17,3.17,0,0,0,.7.66A4.32,4.32,0,0,0,29.83,55.58ZM31.51,68c-.4,1.36-1.21,3.41-1.79,3.84a9.07,9.07,0,0,1-2.58.88,13,13,0,0,0-3.72,1.31c-2.43,1.49-2.88,1.45-3.67,1a9.06,9.06,0,0,1-2-2L17,72.17a8.68,8.68,0,0,0-1.09-1,8.8,8.8,0,0,1,3.16,2.27c2.1,2.1,7.07-2.39,8.05-3.31a5.26,5.26,0,0,0,1.4-2.27l1.84-6a3,3,0,0,0,.33.38l.07.05a3.89,3.89,0,0,0-.57,2.11,2.06,2.06,0,0,0,.67,1.55,2.83,2.83,0,0,0,.94.56A2.93,2.93,0,0,0,31.51,68ZM33,79a15.32,15.32,0,0,0-.66,3.89c-.09,1.09-.22,2.58-.61,2.74a6.06,6.06,0,0,1-3.23,0,7.07,7.07,0,0,0-4.61.32c-2.21,1.18-4.12,2.2-5.21,1.38a3.77,3.77,0,0,1-1.22-1.73l-.42-.82,0-.09a7.41,7.41,0,0,1,.91,1.11A2.84,2.84,0,0,0,20,87.12a4.15,4.15,0,0,0,3.17-1.51c.89-.88,2.4-1,3.86-1.21,1.92-.22,4.1-.46,4.1-2.75A23.42,23.42,0,0,1,33,72.47a3.59,3.59,0,0,0,.48.9,3.63,3.63,0,0,0,1.72,1.3A15.58,15.58,0,0,0,33,79Zm2.66,25.89h0a.47.47,0,0,1-.06-.19ZM12.76,98.16a2.22,2.22,0,0,1,2-1.09,2.81,2.81,0,0,0,2.29-1.16,4,4,0,0,1,2.29-1.77,4.48,4.48,0,0,0-1,2.36A2.25,2.25,0,0,0,19,98.42a1.16,1.16,0,0,1,.39.88,4.17,4.17,0,0,1-1.72,3.89,3.19,3.19,0,0,0-.78-.49,3.88,3.88,0,0,0-3.65.1l-.11.09A4.45,4.45,0,0,1,12.76,98.16Zm4.06,11.3a3.28,3.28,0,0,0-.23,1.51c-2.19-.82-3.74-3-3.74-4.33s.35-2.41,1-2.86a2.73,2.73,0,0,1,2.54,0c1.13.47,2.15,2.5,2.61,3.65-.13,0-.26.09-.39.15A3.41,3.41,0,0,0,16.82,109.46ZM25,114a6.23,6.23,0,0,1-5.39-.58,4.3,4.3,0,0,1-1.63-1.9,2.13,2.13,0,0,1,0-1.66,2.19,2.19,0,0,1,1.19-1.22,4.43,4.43,0,0,1,1.73-.39,6.11,6.11,0,0,1,4.28,2.07,5.41,5.41,0,0,0-.42.79A3,3,0,0,0,25,114Zm5.16,1.12a8.57,8.57,0,0,1-3.63-1.24,1.84,1.84,0,0,1-.71-2.31,3.88,3.88,0,0,1,1.71-1.92,10.05,10.05,0,0,1,4.3-1.27,8.52,8.52,0,0,0-.67,2.39,2.55,2.55,0,0,0,1.59,2.72,7.4,7.4,0,0,0,2.46.37A8.48,8.48,0,0,1,30.11,115.15Zm5.77-2.43a8.38,8.38,0,0,1-2.75-.29,1.39,1.39,0,0,1-.86-1.47,6,6,0,0,1,2-3.92c.86-.7,1.44-1.18,1.83-1.53a15.53,15.53,0,0,0,2.73,2.9,2,2,0,0,0,1.29.52,1.62,1.62,0,0,0,.4-.05,11.6,11.6,0,0,0,2.21-.81C41,110.17,38.46,112.72,35.88,112.72Zm9.21-7.88a9.69,9.69,0,0,1-4.87,2.9c-.08,0-.3.07-.65-.22A14.77,14.77,0,0,1,37,104.78c-1.2-1.54.52-4.39,1.55-5.7a8.35,8.35,0,0,0,1.34.84,3.47,3.47,0,0,0,3.12,0,9,9,0,0,0,1.06-.62C45,100.78,46.28,103.46,45.09,104.84ZM45.72,96a8.25,8.25,0,0,1-3.22,2.85,2.31,2.31,0,0,1-2.08,0,8.05,8.05,0,0,1-3.12-2.82c-1.46-2.19.63-5.68,1.37-6.79a10.91,10.91,0,0,0,2.61,1.16l.14,0,.14,0a11.64,11.64,0,0,0,2.77-1.19C45.06,90.32,47.18,93.83,45.72,96Zm.33-9.65a11,11,0,0,1-4.63,2.86A10.88,10.88,0,0,1,37,86.39c-1.86-2,.43-5.67,1.38-7,1.72,1.13,2.89,2,2.91,2l.39.28.35-.34a21.35,21.35,0,0,1,2.54-1.86l.11-.08C45.63,80.75,47.88,84.41,46.05,86.38ZM37.71,77a1.2,1.2,0,0,1,.12-.66c.35.38.64.73.91,1,.8,1,1.43,1.73,2.71,1.73h.16c1.27,0,1.87-.75,2.64-1.7.23-.29.49-.6.79-.94a2.08,2.08,0,0,1-1.15,2,24.41,24.41,0,0,0-2.34,1.69C41,79.75,40,79,38.66,78.18A1.83,1.83,0,0,1,37.71,77Zm6.94-1.81a17.64,17.64,0,0,0-1.31,1.49c-.73.9-1.05,1.27-1.72,1.27h-.16c-.71,0-1.05-.37-1.82-1.3-.35-.42-.75-.9-1.28-1.43A6,6,0,0,0,36,73.71a2.76,2.76,0,0,1-1.54-1,2.12,2.12,0,0,1-.32-2.18,16.18,16.18,0,0,0,2.26.17,17.79,17.79,0,0,1,2.89.24,6.4,6.4,0,0,1,1.89,1.14l.38.32.38-.33a5.73,5.73,0,0,1,1.82-1.15,17.88,17.88,0,0,1,2.89-.24,16.18,16.18,0,0,0,2.26-.17,2.17,2.17,0,0,1-.32,2.18,2.76,2.76,0,0,1-1.54,1A6,6,0,0,0,44.65,75.15Zm7.24,6.5c0,2.29,2.18,2.53,4.1,2.75,1.46.16,3,.33,3.86,1.21A4.15,4.15,0,0,0,63,87.12a2.84,2.84,0,0,0,2.06-1.35A6.94,6.94,0,0,1,66,84.66a.41.41,0,0,0,0,.09c-.16.31-.3.58-.41.82a3.93,3.93,0,0,1-1.22,1.73c-1.1.82-3-.2-5.22-1.38a7.07,7.07,0,0,0-4.61-.32,6.06,6.06,0,0,1-3.23,0c-.39-.16-.51-1.65-.61-2.74A15.75,15.75,0,0,0,50,79a15.38,15.38,0,0,0-2.21-4.29,3.63,3.63,0,0,0,1.73-1.31,4.1,4.1,0,0,0,.48-.89A23.47,23.47,0,0,1,51.89,81.65ZM50.32,68a1.86,1.86,0,0,1-1.07,1.19,8.13,8.13,0,0,1-2.66.33,18.92,18.92,0,0,0-3.08.26,5.69,5.69,0,0,0-2,1.11,6.1,6.1,0,0,0-2-1.09,19,19,0,0,0-3.09-.26,8,8,0,0,1-2.65-.33A1.88,1.88,0,0,1,32.69,68,1.85,1.85,0,0,1,33,66.69a5,5,0,0,0,.55,0,7.16,7.16,0,0,1,3.88.57,11.17,11.17,0,0,0,3.64.58h.46a11.5,11.5,0,0,0,4-.59,7.27,7.27,0,0,1,3.88-.57,5.23,5.23,0,0,0,.56,0A1.91,1.91,0,0,1,50.32,68Zm-.78-2.46a8.19,8.19,0,0,0-4.36.64,10.23,10.23,0,0,1-3.62.51H41.5a10.6,10.6,0,0,1-3.67-.5,8.18,8.18,0,0,0-4.36-.64A2.48,2.48,0,0,1,31.65,65a.89.89,0,0,1-.3-.69,2.7,2.7,0,0,1,.42-1.54,4,4,0,0,0,1.58.18,6.3,6.3,0,0,1,4,.72,9.8,9.8,0,0,0,3.79.75h.37a9.68,9.68,0,0,0,4.11-.76,6.38,6.38,0,0,1,4-.72,4,4,0,0,0,1.58-.18,2.7,2.7,0,0,1,.42,1.54.91.91,0,0,1-.29.69A2.52,2.52,0,0,1,49.54,65.5Zm3.12-3.71,1.84,6a5.26,5.26,0,0,0,1.4,2.27c1,.92,6,5.41,8.06,3.31a8.87,8.87,0,0,1,3.16-2.28A8.18,8.18,0,0,0,66,72.15c-.27.31-.51.59-.73.86a9,9,0,0,1-2,2c-.78.5-1.24.53-3.66-1a13.12,13.12,0,0,0-3.73-1.31,8.77,8.77,0,0,1-2.58-.88c-.58-.43-1.39-2.48-1.79-3.84a2.93,2.93,0,0,0-.28-1.56,2.83,2.83,0,0,0,.94-.56,2.06,2.06,0,0,0,.67-1.55,3.89,3.89,0,0,0-.57-2.11l.07,0A2,2,0,0,0,52.66,61.79ZM52.94,52l3.43,5.67a2.56,2.56,0,0,0,1,.94c3.86,2,4.67,1.29,4.94,1.07.87-.74,1.36-2.52,1.73-4.15l0-.18a2.09,2.09,0,0,1,.68-1.23,4.36,4.36,0,0,0-.44,1.1c-.09.38-.18,1.08-.29,1.89a21.62,21.62,0,0,1-.79,4.1c-3.87.14-6.06-.44-6.87-1.81a10.08,10.08,0,0,0-3.27-3.5,1.59,1.59,0,0,0,.06-.3,4.29,4.29,0,0,0-.94-2.93A3.46,3.46,0,0,0,52.94,52Zm0-8.18c0,.21-.4.54-1,.58a9.36,9.36,0,0,0-5.07,1.77,1.61,1.61,0,0,1-.58.21,1.39,1.39,0,0,0,0-.23V46a3.14,3.14,0,0,0-.81-1.75A10.69,10.69,0,0,0,49.27,43a7.36,7.36,0,0,1,2.06-.66,3.68,3.68,0,0,0,1.45,1.16C53,43.64,53,43.73,52.94,43.78Zm-4-12.57a2.9,2.9,0,0,0,2.65-.46,1.86,1.86,0,0,1,.64.93,2.9,2.9,0,0,1-.13,2.68c-1,1.43-.42,2.66.1,3.74a5.26,5.26,0,0,1,.66,2.21c0,.6-.08.72-.09.73a2.1,2.1,0,0,1-.62.08,8.44,8.44,0,0,0-3.35.86c-2.4,1.14-3.72,1.42-5,.79-.25-.15-.48-.29-.71-.41a9.1,9.1,0,0,1-.84-.67l-.56-.56-.41.36c-2.15,1.9-3.78,2-7,.51a8.4,8.4,0,0,0-3.35-.86,2.51,2.51,0,0,1-.62-.08s-.09-.13-.09-.73a5.14,5.14,0,0,1,.67-2.21c.51-1.08,1.1-2.31.1-3.74a2.9,2.9,0,0,1-.14-2.68,1.79,1.79,0,0,1,.65-.93,2.84,2.84,0,0,0,2.64.45,2.54,2.54,0,0,0,1.58-2c.32-1.6,1.23-2.91,1.68-3,0,0,.07,0,.17.12,1.1,1.44,3.51.94,4,.82.64.14,2.88.54,3.93-.84.1-.13.15-.12.17-.11.45.1,1.36,1.41,1.68,3A2.57,2.57,0,0,0,48.9,31.21Zm5-1.84c-.44-.35-1-.78-1.7-1.25a3.51,3.51,0,0,0-4.05-.26c0-.13-.1-.26-.16-.4a3.67,3.67,0,0,1,1.79-.69h.31c.95,0,1.94.06,3.91,2a8.91,8.91,0,0,0,1.92,1.47C55.3,30.43,54.92,30.16,53.91,29.37Zm6-1.85a3.63,3.63,0,0,1-3.09,1.91,8,8,0,0,1-2-1.45c-.19-.19-.37-.36-.55-.52a2.68,2.68,0,0,0,.37-.25,7.72,7.72,0,0,0,1.85-3,16.91,16.91,0,0,1,.8-1.64,1,1,0,0,1,.9-.52,1.52,1.52,0,0,1,1.18.84C59.8,23.72,60.66,25.84,59.89,27.52ZM68.42,15a9.09,9.09,0,0,1-1.9-7,6.9,6.9,0,0,1,.19-.79,1.77,1.77,0,0,0,.74,1l.12,1,.57.61a3,3,0,0,0,1.57,2.65A5,5,0,0,0,68.42,15Zm5.74,8.51c-1-.39-4.06-1.78-4.55-5-.65-4.12.67-5.3,2.21-6.22,2.08-1.27,3.14-2,3.53-3a2,2,0,0,0-.23-1.82l.48-1.06-.35-1.13a2.79,2.79,0,0,0,.55-2.22c2.35,2,6.71,7.12,4.66,16a1.55,1.55,0,0,0-1.15.92c-.15.26-.25.42-.41.47a1.79,1.79,0,0,1-.76-.07,1.87,1.87,0,0,0-1.7.2,1.86,1.86,0,0,0-.4,1.61c0,.37-.11.5-.92.8A3.32,3.32,0,0,0,74.16,23.46Zm.51,10.86a5,5,0,0,1-1.43.09l-.08,0a7.19,7.19,0,0,1-5.6-3.51,12.78,12.78,0,0,0-6.2-4.53,6.86,6.86,0,0,0-.24-2.19,3.61,3.61,0,0,1,1.51-2,1.5,1.5,0,0,1,1.29.12,14.06,14.06,0,0,1,2.89,2.33c1.58,1.5,3.22,3,5.2,3.27,2.16.26,2.29.44,2.62.92S75.16,32.85,74.67,34.32ZM76.26,34l0,.06a.48.48,0,0,1-.3.21h0c.44-1.89.35-5.19-.29-6.11a3,3,0,0,0-.45-.53.54.54,0,0,1,.08-.34.61.61,0,0,1,.41-.11C77.22,29.48,76.47,33.11,76.26,34Zm3.15-1.91a7.37,7.37,0,0,1-1.81,1.25c.32-1.84.57-5.4-1.61-7.58-1-1-1.07-1.38-1.08-1.38a2.17,2.17,0,0,1,.61-.29c.69-.25,1.84-.67,1.69-2a1.45,1.45,0,0,1,0-.6,2.34,2.34,0,0,1,.69.07,2.58,2.58,0,0,0,1.38,0,2,2,0,0,0,1-1c.23-.4.23-.4.53-.29a5.91,5.91,0,0,1,.9,3.12C82,26.17,81.57,29.91,79.41,32.08Z"/><path d="M23.64,151.92c0,1.32-1.09,2.38-2.85,2.38a3.9,3.9,0,0,1-2.93-1.25l.59-.7a3.37,3.37,0,0,0,2.35,1c1.1,0,1.75-.55,1.75-1.36s-.62-1.12-1.39-1.46L20,150a2.33,2.33,0,0,1-1.69-2.15,2.38,2.38,0,0,1,2.63-2.22,3.47,3.47,0,0,1,2.47,1l-.59.71a2.69,2.69,0,0,0-1.88-.77c-.93,0-1.54.47-1.54,1.21s.72,1.11,1.37,1.37l1.2.53A2.3,2.3,0,0,1,23.64,151.92Zm4.83,1.44c-1.58,0-2.57-1.32-2.57-3.42s1-3.36,2.61-3.36a2.31,2.31,0,0,1,1.71.75l.59-.67a3.14,3.14,0,0,0-2.31-1c-2.13,0-3.71,1.65-3.71,4.34s1.55,4.33,3.64,4.33A3.23,3.23,0,0,0,31,153.09l-.59-.64A2.48,2.48,0,0,1,28.47,153.36Zm10.38-3.43c0,2.69-1.48,4.37-3.58,4.37s-3.57-1.68-3.57-4.37,1.46-4.3,3.57-4.3S38.85,147.26,38.85,149.93Zm-1.11,0c0-2.08-1-3.35-2.47-3.35s-2.46,1.27-2.46,3.35,1,3.43,2.46,3.43S37.74,152,37.74,149.93Zm6.58.57,2.12,3.65H45.23l-2-3.53h-1.5v3.53H40.65v-8.37h2.61c1.71,0,2.93.62,2.93,2.36A2.28,2.28,0,0,1,44.32,150.5Zm.8-2.36c0-1.09-.71-1.49-2-1.49H41.72v3.1h1.39C44.41,149.75,45.12,149.21,45.12,148.14Zm8.32.1c0,1.78-1.26,2.59-3.09,2.59H49v3.32H47.91v-8.37h2.38C52.17,145.78,53.44,146.41,53.44,148.24Zm-1.07,0c0-1.19-.74-1.59-2.2-1.59H49V150h1.24C51.67,150,52.37,149.43,52.37,148.24Zm2.77,5.91h1.07v-8.37H55.14Zm10-4.22c0,2.69-1.48,4.37-3.59,4.37S58,152.62,58,149.93s1.46-4.3,3.56-4.3S65.16,147.26,65.16,149.93Zm-1.11,0c0-2.08-1-3.35-2.48-3.35s-2.46,1.27-2.46,3.35,1,3.43,2.46,3.43S64.05,152,64.05,149.93Z"/></g></g></svg>