<svg xmlns="http://www.w3.org/2000/svg" viewBox="0 0 51.42 63.19"><defs><style>.cls-1{fill:#1a171b;}.cls-2,.cls-3,.cls-4{stroke:#fff;stroke-width:0.25px;}.cls-3{fill:none;}.cls-4{fill:#fff;}</style></defs><title>Asset 411</title><g id="Layer_2" data-name="Layer 2"><g id="Layer_1-2" data-name="Layer 1"><path class="cls-1" d="M21.7,59.82a.84.84,0,0,1-.39.62,3.06,3.06,0,0,1-.72.44,1.92,1.92,0,0,1-.39.16A.29.29,0,0,1,20,61a.17.17,0,0,1-.07-.14s.15-.16.44-.34.43-.36.43-.58a.66.66,0,0,0-.25-.53.92.92,0,0,0-.62-.22.42.42,0,0,0-.18,0,.24.24,0,0,0-.09.08v3.42a.26.26,0,0,1-.13.23.54.54,0,0,1-.31.09A.5.5,0,0,1,19,63a.25.25,0,0,1-.11-.21V59.46a.75.75,0,0,1,.08-.35.52.52,0,0,1,.26-.22l.58-.25a.2.2,0,0,1,.11,0h.17a1.93,1.93,0,0,1,1,.38C21.49,59.26,21.7,59.54,21.7,59.82Zm.81-1.14a.48.48,0,0,0-.3.08.26.26,0,0,0-.13.22v3.78a.25.25,0,0,0,.15.23.64.64,0,0,0,.34.09.48.48,0,0,0,.22,0,.16.16,0,0,0,.08-.13v-4a.19.19,0,0,0-.1-.17A.71.71,0,0,0,22.51,58.68Zm5.82.6a.53.53,0,0,1,.33.14,1,1,0,0,0,.58.29.36.36,0,0,0,.27-.1.29.29,0,0,0,.12-.24.46.46,0,0,0-.25-.38,1.4,1.4,0,0,0-.57-.21.82.82,0,0,0-.22,0,.65.65,0,0,0-.2,0,.33.33,0,0,0-.13,0,3.91,3.91,0,0,0-.75.48,2.83,2.83,0,0,0-.69.61,1.08,1.08,0,0,0-.19.46,2.78,2.78,0,0,0-.1.73A2.25,2.25,0,0,0,27,62.67a1.52,1.52,0,0,0,1.19.52,2.11,2.11,0,0,0,.91-.23c.31-.16.47-.29.47-.4a.25.25,0,0,0-.05-.15.18.18,0,0,0-.13-.06l-.51.26a1,1,0,0,1-.44.13.88.88,0,0,1-.78-.52,2.93,2.93,0,0,1,0-2.5A.76.76,0,0,1,28.33,59.28Zm4.6,3-.56.32a1,1,0,0,1-.48.14.87.87,0,0,1-.69-.43,1.27,1.27,0,0,1-.27-.73c0-.17.06-.26.19-.26h1.5a.27.27,0,0,0,.23-.11.33.33,0,0,0,.08-.24.32.32,0,0,0,0-.19.14.14,0,0,0-.12-.08H31.07s-.08,0-.1-.11a.7.7,0,0,1,0-.27,1.32,1.32,0,0,1,.17-.68.72.72,0,0,1,.63-.35.9.9,0,0,1,.5.21.92.92,0,0,0,.53.2.17.17,0,0,0,.17-.13.61.61,0,0,0,.06-.28c0-.12-.1-.24-.31-.35a1.21,1.21,0,0,0-.58-.16,2,2,0,0,0-1.32.59A2.32,2.32,0,0,0,30,61.13a2.15,2.15,0,0,0,.48,1.5,1.65,1.65,0,0,0,1.26.5,2.13,2.13,0,0,0,.87-.23q.48-.24.48-.42a.24.24,0,0,0-.05-.14A.14.14,0,0,0,32.93,62.28Zm2.24-1.9a3.5,3.5,0,0,0-.45-.3.63.63,0,0,1-.08-.27.48.48,0,0,1,.13-.34.45.45,0,0,1,.34-.13,1.22,1.22,0,0,1,.47.24,1.24,1.24,0,0,0,.48.24.46.46,0,0,0,.34-.11.31.31,0,0,0,.07-.21c0-.25-.18-.44-.54-.56a2.78,2.78,0,0,0-.53-.1,1.86,1.86,0,0,0-1,.37c-.37.25-.56.5-.56.74a1.07,1.07,0,0,0,.47.78l.85.68a1.11,1.11,0,0,1,.46.82.38.38,0,0,1-.13.32.52.52,0,0,1-.33.1,1.44,1.44,0,0,1-.71-.36,1.67,1.67,0,0,0-.62-.35.34.34,0,0,0-.27.15.38.38,0,0,0-.08.18.74.74,0,0,0,.37.56,1.45,1.45,0,0,0,.89.3,2.46,2.46,0,0,0,1-.25c.49-.22.73-.51.73-.88a1.42,1.42,0,0,0-.46-.88A5.37,5.37,0,0,0,35.17,60.38ZM24.82,59.27a1.16,1.16,0,0,1,.47.25,1.24,1.24,0,0,0,.48.24.43.43,0,0,0,.34-.12.27.27,0,0,0,.07-.2c0-.25-.18-.44-.54-.56a3.69,3.69,0,0,0-.52-.11,1.88,1.88,0,0,0-1,.38c-.37.25-.55.49-.55.74a1.09,1.09,0,0,0,.46.78l.85.67a1.13,1.13,0,0,1,.46.82.39.39,0,0,1-.13.33.59.59,0,0,1-.33.1,1.44,1.44,0,0,1-.71-.36,1.6,1.6,0,0,0-.62-.36.33.33,0,0,0-.27.16.34.34,0,0,0-.08.18.77.77,0,0,0,.37.56,1.45,1.45,0,0,0,.89.3,2.62,2.62,0,0,0,1-.25c.49-.23.73-.52.73-.88a1.45,1.45,0,0,0-.45-.88,6,6,0,0,0-.85-.74,4.62,4.62,0,0,0-.45-.31.56.56,0,0,1-.08-.26.51.51,0,0,1,.13-.34A.46.46,0,0,1,24.82,59.27Z"/><path class="cls-2" d="M41.34,40.93v0l.06-.06Zm-7.29,3.22c-.44-.77.6-1.57.6-1.57a24.58,24.58,0,0,0,4.53-5A34.49,34.49,0,0,1,26.4,46.08s-3.24.51-3.64,2.38v.19c.4-.52,1.5-1.08,2-.79a2.14,2.14,0,0,0,1.21.23,1.61,1.61,0,0,0,2.24.49c.47-.15.9.28,1.31.56.89.5,1.45-.59,2.07-1.09.44-.42,1.07-1,1.51-1.45L31.9,48.05c-.36.43-1.14,1.11-.79,1.72.13.24.33.3.55.42s.94.52.78.87c-.46,1,1.06,1.53,1.06,1.53-.06.44.36.71.69.88a1.89,1.89,0,0,1,.5,1.46,2.53,2.53,0,0,0,1-1.8,9.88,9.88,0,0,0,.12-2A9.41,9.41,0,0,1,36.32,48a16.84,16.84,0,0,1,3-5.2,17.11,17.11,0,0,1,2-1.87,19.31,19.31,0,0,1-5.21,3.29C34.43,45,34.05,44.15,34.05,44.15Zm5.22-31.36a9.49,9.49,0,0,1,8.33-2.17S46.8,13,48.51,14c0,0,1.25.24,1,1.86a2.14,2.14,0,0,0,.86,1.84,1.44,1.44,0,0,1,.5,1.72,2.54,2.54,0,0,0,.25,1.68s.56.57-.07,1.86a5.89,5.89,0,0,0-1,2.4A16,16,0,0,0,39.27,12.79Zm8.5,6.69a8.78,8.78,0,0,1,3.07-1.08m.44,3.19a6.37,6.37,0,0,0-2.19.52m.19-7.56s-2.84.75-3.77,1.75a1.33,1.33,0,0,0-.14.19m2.11-3.95a6.77,6.77,0,0,0-5,1.75M43.87,38.6S35.51,46,34.16,44.25c0,0-.74-.49.55-1.63,0,0,8.43-6.28,6.07-13.26a9.29,9.29,0,0,0-9.2-4.8s4.66-2.1,2.47-6.44c0,0-1.83-3.37-8.27-3.88,0,0,10.92-5,19.6,3.82C45.38,18.06,55.56,28.27,43.87,38.6Zm-9.7,9.63L32.49,51m7.8-17.17s-1.15,3.78-2.84,4.66c0,0-2.39-1.07-3.35.82a4.82,4.82,0,0,1,3.35-4A5.62,5.62,0,0,0,40.29,33.81Zm-4.48,4.44a3.29,3.29,0,0,1,2-2,6.49,6.49,0,0,0,1.35-.49m-2.45,2.56c.34-1.09,1.73-1.21,1.73-1.21M34.43,25.23a3.72,3.72,0,0,1,1.25.34,2.85,2.85,0,0,0,2.25,2.22s.36.32-.13,1.51c0,0-.25,1.14.48,1.6,0,0-4-.4-3.85-5.67m3.5,4.12a3.6,3.6,0,0,1-2.7-3m-4.42-1.64s2.09-3.2,1-5.61c0,0-.77-2-4.77-4.17,0,0,5.54,1.24,6.52,4.24C33.56,19.18,34.71,21.92,30.81,24.72Zm-.74.18s-6,1.65-8.71,0c0,0-.71-.39.06-.8a9.3,9.3,0,0,0,2.66-1.22A8.84,8.84,0,0,0,19,21.34s-1,.1-.59-.81a15.76,15.76,0,0,1,6.37-5.72s5.39,1.49,6.48,5.41A5.73,5.73,0,0,1,30.07,24.9Zm11,.49s-.93.12-1.48-1.1a3.79,3.79,0,0,1-.17-.48,11,11,0,0,1-.29-2.36Zm-2.9-5A5.49,5.49,0,0,0,38.13,22a2.56,2.56,0,0,0,1.49,2.33ZM42.35,20a6.24,6.24,0,0,0-4.42-2.35s-.39,2.51.81,3.1A2.66,2.66,0,0,0,40.19,23s.62,1.14,1.49,1.12a2.83,2.83,0,0,0,2.53,1.16A5,5,0,0,1,42.35,20Zm-1,.38a4.79,4.79,0,0,0,.37,3.82Zm-1.18-.79a4,4,0,0,0,0,3.4Zm-1.45,1.2.24-2A5.52,5.52,0,0,0,38.68,20.78Zm-13-2.29a1.12,1.12,0,0,1-1.12-1.93,1.12,1.12,0,1,1,1.12,1.93Z"/><path class="cls-3" d="M33.51,52.6c.14-.83.8-1.47,1-2.24"/><path class="cls-3" d="M28.29,48.51c1-.8,2-1.63,3.07-2.48"/><path class="cls-2" d="M10.08,14.21h0a.18.18,0,0,1-.07.05ZM26.64,7.29a2.18,2.18,0,0,0-1.22-.23,1.61,1.61,0,0,0-2.24-.49c-.47.15-.89-.29-1.31-.56-.89-.5-1.45.59-2.07,1.09-.43.41-1.07,1-1.51,1.45.35-.41.89-1,1.23-1.45s1.14-1.11.8-1.72A1.14,1.14,0,0,0,19.77,5c-.34-.2-.94-.53-.79-.87.46-1-1.06-1.53-1.06-1.53.06-.44-.35-.72-.69-.88A1.92,1.92,0,0,1,16.74.22a2.49,2.49,0,0,0-1,1.8,9.19,9.19,0,0,0-.13,2,9.34,9.34,0,0,1-.54,3.14,16.8,16.8,0,0,1-3,5.21,17.08,17.08,0,0,1-2,1.87,19.31,19.31,0,0,1,5.21-3.29c1.68-.74,2.06.09,2.06.09.45.77-.6,1.57-.6,1.57a24.58,24.58,0,0,0-4.53,5A34.49,34.49,0,0,1,25,9.07s3.25-.51,3.64-2.38V6.5C28.27,7,27.18,7.58,26.64,7.29Z"/><path class="cls-2" d="M12.15,42.36a9.45,9.45,0,0,1-8.33,2.16s.81-2.32-.9-3.37c0,0-1.26-.24-1-1.87a2.15,2.15,0,0,0-.86-1.84,1.44,1.44,0,0,1-.5-1.71,2.48,2.48,0,0,0-.25-1.68s-.55-.57.07-1.86a5.82,5.82,0,0,0,1-2.4A16,16,0,0,0,12.15,42.36Zm-3.22-1.5a6.76,6.76,0,0,1-5,1.75m-.29-6.94A8.75,8.75,0,0,1,.59,36.75m5.47,1.91a1.19,1.19,0,0,1-.15.18c-.93,1-3.77,1.76-3.77,1.76M2.33,33a6.23,6.23,0,0,1-2.19.51"/><path class="cls-2" d="M25.64,40.9s-10.91,5-19.59-3.82c0,0-10.18-10.2,1.51-20.53,0,0,8.36-7.41,9.71-5.65,0,0,.74.49-.56,1.63,0,0-8.43,6.28-6.06,13.26a9.28,9.28,0,0,0,9.19,4.8s-4.66,2.1-2.46,6.44C17.38,37,19.21,40.4,25.64,40.9Z"/><path class="cls-2" d="M17.33,15.86a4.82,4.82,0,0,1-3.35,4,5.67,5.67,0,0,0-2.85,1.45s1.15-3.78,2.84-4.66C14,16.68,16.37,17.75,17.33,15.86Z"/><path class="cls-2" d="M17,29.92a3.78,3.78,0,0,1-1.25-.34,2.87,2.87,0,0,0-2.24-2.23s-.36-.31.12-1.5c0,0,.26-1.14-.47-1.6C13.15,24.25,17.11,24.65,17,29.92Zm-3.5-4.12a3.58,3.58,0,0,1,2.7,3"/><path class="cls-2" d="M24.38,40.21S18.84,39,17.86,36c0,0-1.15-2.74,2.76-5.54,0,0-2.1,3.2-1,5.61,0,0,.77,2,4.76,4.17"/><path class="cls-2" d="M33.06,34.62a15.74,15.74,0,0,1-6.38,5.72s-5.39-1.49-6.48-5.41a5.73,5.73,0,0,1,1.15-4.68s6-1.65,8.71,0c0,0,.72.39-.06.8a9.28,9.28,0,0,0-2.65,1.22,8.8,8.8,0,0,0,5.12,1.52S33.48,33.71,33.06,34.62Z"/><path class="cls-4" d="M26.85,38.59a1.12,1.12,0,0,1-1.12-1.93,1.12,1.12,0,1,1,1.12,1.93Z"/><path class="cls-2" d="M12.27,33.7l-1.94-4s.92-.11,1.47,1.11a3.79,3.79,0,0,1,.17.48A10.83,10.83,0,0,1,12.27,33.7Zm1,1L11.8,30.86a2.56,2.56,0,0,1,1.49,2.33A5.1,5.1,0,0,1,13.22,34.73Zm.27,2.78a6.24,6.24,0,0,1-4.42-2.35,5,5,0,0,0-1.86-5.25,2.84,2.84,0,0,1,2.54,1.16c.86,0,1.49,1.12,1.49,1.12a2.65,2.65,0,0,1,1.45,2.21C13.89,35,13.49,37.51,13.49,37.51ZM9.74,31a4.76,4.76,0,0,1,.38,3.82m1.16-2.61a4,4,0,0,1,0,3.4m1.46-1.2a5.52,5.52,0,0,1-.24,2"/></g></g></svg>