<svg xmlns="http://www.w3.org/2000/svg" viewBox="0 0 86.64 70.23"><defs><style>.cls-1{fill:#1d1d1b;}</style></defs><title>Asset 426</title><g id="Layer_2" data-name="Layer 2"><g id="Layer_1-2" data-name="Layer 1"><path class="cls-1" d="M22.94,22a.45.45,0,0,1-.21-.86l16.14-8.35a.46.46,0,0,1,.62.2.46.46,0,0,1-.2.62L23.15,21.91A.41.41,0,0,1,22.94,22Zm42.34,6.16a.45.45,0,0,0-.43-.48L24,25.22a.46.46,0,0,0-.05.91L64.8,28.55h0A.45.45,0,0,0,65.28,28.12Zm2.24-3.7a.46.46,0,0,0-.09-.64l-16-12.23a.46.46,0,0,0-.64.09.45.45,0,0,0,.09.64l16,12.23a.51.51,0,0,0,.28.09A.46.46,0,0,0,67.52,24.42ZM77.7,51.6a.46.46,0,0,0,.35-.54L74.13,32a.44.44,0,0,0-.54-.35.46.46,0,0,0-.36.54l3.92,19.1a.47.47,0,0,0,.45.37ZM64.38,54.31l5.42-23a.47.47,0,0,0-.35-.55.46.46,0,0,0-.55.34l-5.41,23a.46.46,0,0,0,.34.55h.11A.46.46,0,0,0,64.38,54.31ZM76.1,59.42a.47.47,0,0,0-.39-.52L65.55,57.48a.47.47,0,0,0-.52.39.46.46,0,0,0,.39.52l10.16,1.42h.06A.47.47,0,0,0,76.1,59.42ZM14.16,57.09a.46.46,0,0,0-.42-.5L9,56.22a.46.46,0,1,0-.08.91l4.75.38h0A.46.46,0,0,0,14.16,57.09Zm6.21-4.64.71-25.55a.46.46,0,0,0-.92,0l-.71,25.55a.46.46,0,0,0,.45.47h0A.45.45,0,0,0,20.37,52.45ZM5.69,54.39,17.36,26.65a.46.46,0,0,0-.24-.6.45.45,0,0,0-.6.25L4.84,54a.47.47,0,0,0,.25.6.39.39,0,0,0,.18,0A.46.46,0,0,0,5.69,54.39ZM43.79,8.3c-1,.24-.45-1.72-1.77-1L43,9.5c-1,0-2,0-2.87,0s-1.76-.6-2.67-.09c.19.68.66.63,1.09.64h4c.28,0,.56,0,1,.07-.71,1.08-2.06,1.46-2.3,3,1.19-.26,1.52-1.53,2.63-1.73,0,.56,0,1,0,1.52s-.09,1.16-.05,1.73c.05.83.21,1.65.26,2.49,0,1.15,0,2.31.07,3.47a4.42,4.42,0,0,0,.27.88l.37,0a8.2,8.2,0,0,0,.15-1.2c-.06-2.4-.15-4.8-.22-7.2,0-.52-.06-1,.48-1.42.82.57,1.09,1.67,2,2,.54-.36.38-.72.11-1s-.68-.7-1-1.07-.93-.7-.85-1.52a4.56,4.56,0,0,1,1.14-.17,30.29,30.29,0,0,1,3.14.54c.55.13.94.18,1.22-.59a36.62,36.62,0,0,0-5.19-.62l1.6-2.47C46,6.61,46.08,8,45.18,8.26c0-.6.1-1.16.18-2l-1.11,1c0-2.23,0-4.17,0-6.12,0-.41.28-.88-.61-1.18A54.46,54.46,0,0,0,43.79,8.3Zm35.67,46c-1,.24-.45-1.72-1.78-1l1,2.2c-1,0-2,0-2.88,0s-1.75-.59-2.67-.08c.19.68.67.63,1.1.63h4c.28,0,.56,0,1,.07-.71,1.07-2.07,1.45-2.31,3,1.2-.26,1.53-1.53,2.63-1.73,0,.56,0,1,0,1.52s-.09,1.15-.06,1.72c.05.84.22,1.66.26,2.49.06,1.16,0,2.32.08,3.47a3.19,3.19,0,0,0,.27.88l.37,0a8.17,8.17,0,0,0,.14-1.2c-.06-2.4-.14-4.8-.21-7.2,0-.52-.06-1.05.48-1.42.82.57,1.09,1.67,2,2,.55-.36.39-.72.11-1s-.68-.71-1-1.07-.94-.71-.85-1.52a4.55,4.55,0,0,1,1.13-.17,27.63,27.63,0,0,1,3.15.54c.55.13.94.18,1.22-.59a35.38,35.38,0,0,0-5.19-.62L83,52.62c-1.37-.06-1.3,1.3-2.2,1.59l.19-2-1.11,1c0-2.23,0-4.18,0-6.12,0-.41.27-.88-.62-1.18A53.19,53.19,0,0,0,79.46,54.25ZM18.24,57.08c-1,.24-.45-1.72-1.78-1l1,2.21c-1,0-2,0-2.87,0s-1.76-.6-2.68-.09c.19.68.67.63,1.1.64h4c.28,0,.56,0,.95.07-.71,1.08-2.07,1.45-2.31,3,1.2-.26,1.53-1.53,2.63-1.73,0,.56,0,1,0,1.52s-.09,1.16-.06,1.73c.05.83.22,1.65.26,2.49.06,1.15,0,2.31.08,3.47a3.41,3.41,0,0,0,.27.88l.37,0a8.17,8.17,0,0,0,.14-1.2c-.06-2.4-.14-4.8-.21-7.2,0-.52-.06-1,.48-1.42.82.57,1.09,1.67,2,2,.54-.36.38-.72.1-1s-.67-.7-1-1.07-.94-.7-.85-1.52a4.55,4.55,0,0,1,1.13-.17,30,30,0,0,1,3.15.54c.55.13.94.18,1.22-.59a36.8,36.8,0,0,0-5.19-.62l1.59-2.47c-1.37-.06-1.3,1.3-2.2,1.59l.19-2-1.11,1c0-2.23,0-4.17,0-6.12,0-.41.27-.88-.62-1.18A53.19,53.19,0,0,0,18.24,57.08Zm39.38-1.29c.23.1.46.21.69.29a13.81,13.81,0,0,1,1.69.53c1.22.56,1,.37.94,1.6,0,.58,0,1.17,0,1.87.05.45.34-.17.37-.24a9.35,9.35,0,0,0,.4-1.12c.19-.69.4-1.28,1.25-1.47a12.2,12.2,0,0,0,2.27-.55c.54-.19-.78-.58-1-.66s-.7-.27-1.05-.39A1.67,1.67,0,0,1,62,54c0-.64.07-1.28.11-1.92,0-.23.09-.48-.3-.57a2.85,2.85,0,0,0-.16.43c-.18.78-.39,1.56-.5,2.35s-.63,1-1.3,1.16c-.31.05-.64,0-1,.05s-.83.06-1.25.09C57.48,55.56,57.29,55.64,57.62,55.79ZM15.52,23c.23.09.45.21.69.28a15.63,15.63,0,0,1,1.68.53c1.23.57,1,.37.94,1.61,0,.58,0,1.17.05,1.87,0,.45.34-.17.37-.24a9.35,9.35,0,0,0,.4-1.12c.19-.69.4-1.29,1.25-1.47a12.28,12.28,0,0,0,2.27-.56c.53-.18-.78-.57-1-.65-.35-.15-.7-.27-1.06-.39a1.68,1.68,0,0,1-1.2-1.71c0-.64.07-1.27.11-1.91,0-.24.09-.48-.31-.57a4.43,4.43,0,0,0-.15.43c-.18.78-.39,1.55-.5,2.34s-.63,1.06-1.3,1.17c-.32.05-.64,0-1,0l-1.25.1C15.38,22.72,15.19,22.8,15.52,23Zm-15.3,35c.25,0,.5,0,.75,0a14.91,14.91,0,0,1,1.76-.08c1.35.1,1,0,1.44,1.17.18.56.43,1.1.68,1.75.21.4.27-.28.27-.36a7.89,7.89,0,0,0,0-1.19,1.65,1.65,0,0,1,.67-1.81,12,12,0,0,0,1.93-1.31c.44-.35-.93-.26-1.14-.27-.38,0-.75,0-1.13,0a1.68,1.68,0,0,1-1.72-1.19c-.22-.59-.38-1.22-.55-1.83-.07-.23-.09-.48-.49-.43a3.53,3.53,0,0,0,0,.46c.11.79.17,1.59.35,2.37a1.3,1.3,0,0,1-.82,1.54c-.28.16-.6.25-.89.38l-1.14.52C0,57.74-.14,57.88.22,57.91Zm66.92-30c.25,0,.49.11.74.14a14.41,14.41,0,0,1,1.75.18c1.32.31,1,.16,1.25,1.38.09.58.26,1.15.41,1.83.14.43.3-.24.32-.31.07-.39.14-.79.17-1.18,0-.71.13-1.34.93-1.69a12.06,12.06,0,0,0,2.11-1c.49-.29-.88-.41-1.09-.45-.37-.07-.74-.12-1.11-.16a1.67,1.67,0,0,1-1.52-1.44c-.14-.62-.2-1.26-.28-1.9,0-.23,0-.48-.42-.49a4,4,0,0,0-.06.45c0,.8-.07,1.6,0,2.4s-.4,1.16-1,1.4c-.3.11-.62.16-.93.24l-1.2.34C67,27.71,66.79,27.82,67.14,27.91Z"/><path class="cls-1" d="M35.87,43.72H36c0,.73-.06,1.29-.06,2-1,0-2.12,0-3.45,0l-2,0v-.12c.58-.1.67-.33.67-1.45V38.16c0-1.19-.11-1.35-.62-1.44V36.6l1.25,0,1.28,0v.12c-.52.09-.62.25-.62,1.44v7a8.19,8.19,0,0,0,1.19.07C35.19,45.24,35.62,45.07,35.87,43.72Zm2.44.7v-4.7a4.15,4.15,0,0,1-1.55.32v.12c.37.1.39.3.39.9v3.36c0,1-.17,1-.54,1.13v.12l1.12,0,1.12,0v-.12C38.48,45.47,38.31,45.41,38.31,44.42ZM37.77,39a.59.59,0,0,0,.62-.58.61.61,0,1,0-1.22,0A.59.59,0,0,0,37.77,39Zm7.69,3.57a3.05,3.05,0,0,1-3,3.2c-1,0-1.33-.45-2.16-.45a1.82,1.82,0,0,0-.52.07l0-.07c.28-.21.28-.38.28-1.73v-6c0-.61,0-.81-.48-.9v-.12a4.06,4.06,0,0,0,1.65-.34v4a2.45,2.45,0,0,1,1.52-.5A2.71,2.71,0,0,1,45.46,42.55Zm-1.38.22c0-1.82-.57-2.74-1.7-2.74a1.75,1.75,0,0,0-1.19.46v3.3c0,1.18.41,1.64,1.21,1.64C43.7,45.43,44.08,44.28,44.08,42.77Zm5.36-3.09a2.17,2.17,0,0,0-1.43.79v-.79a4,4,0,0,1-1.55.33v.13c.37.1.38.28.38.89v3.39c0,1-.16,1-.53,1.13v.12l1.12,0,1.11,0v-.12c-.37-.08-.53-.14-.53-1.13v-3.6a1,1,0,0,1,.76-.43c.3,0,.49.17.49.68h1.15C50.41,40.1,50.06,39.68,49.44,39.68Zm6.72,5.46a1.26,1.26,0,0,1-1.09.59.65.65,0,0,1-.73-.64,2.74,2.74,0,0,1-1.78.68c-1,0-1.7-.57-1.7-1.39s.93-1.59,2.11-1.59a2.66,2.66,0,0,1,1.32.32V41.32c0-1-.31-1.36-.95-1.36s-1.17.5-1.18,1.57H51.09a2.14,2.14,0,0,1,2.38-1.85c1.2,0,2,.55,2,2.15v2.61c0,.55.08.71.33.71A.45.45,0,0,0,56.1,45Zm-1.87-1.76a1.81,1.81,0,0,0-1-.28,1.06,1.06,0,0,0-1.17,1.14,1,1,0,0,0,1,1.08,1.69,1.69,0,0,0,1.15-.48Z"/></g></g></svg>