<svg xmlns="http://www.w3.org/2000/svg" viewBox="0 0 38.88 55.7"><title>Asset 504</title><g id="Layer_2" data-name="Layer 2"><g id="Layer_1-2" data-name="Layer 1"><path d="M20.73,17.88A18.09,18.09,0,0,1,23,14.45c1.37-1.6,2.78-3.18,4.18-4.76a7.19,7.19,0,0,1,1-1c.93-.72,1.87-1.43,2.82-2.11a12.1,12.1,0,0,1,1.58-1,14.41,14.41,0,0,1,2-.93,11.86,11.86,0,0,1,3.66-1.21.52.52,0,0,0,.51-.41,2.61,2.61,0,0,0,.08-.42,9.73,9.73,0,0,0-2.75-1.25C35.57,1.26,35,1.14,34.44,1A21,21,0,0,0,28.89,0a19.72,19.72,0,0,0-7.46,1.06c-.5.17-1,.37-1.48.55a43.9,43.9,0,0,0-5.09,2.2A25.53,25.53,0,0,0,8.4,8.52a29.84,29.84,0,0,0-3,3.49A22.46,22.46,0,0,0,2.9,16.74c-.45,1.05-.82,2.13-1.26,3.19A21.34,21.34,0,0,0,0,27.56a20.45,20.45,0,0,0,.1,2.82c.09,1,.3,2,.44,3a28.43,28.43,0,0,0,1.1,4.17,11.3,11.3,0,0,0,.74,1.88c.67,1.27,1.4,2.51,2.11,3.76a5.88,5.88,0,0,0,.59.88c.68.81,1.36,1.61,2.07,2.4a23,23,0,0,0,4.08,3.48,17.2,17.2,0,0,0,1.54,1A26.86,26.86,0,0,0,16,52.57c1.16.43,2.27,1,3.41,1.43.13.06.28.08.42.13,1.05.37,2.15.58,3.2,1a9.7,9.7,0,0,0,4.69.51c.32,0,.64-.06,1-.08,1-.06,1.94-.1,2.91-.18a36.64,36.64,0,0,0,5.09-1,5.65,5.65,0,0,0,2-.86c-.1-.39-.38-.48-.65-.61a36.36,36.36,0,0,1-6.77-4.08C30.17,47.92,29.07,47,28,46.05c-.53-.46-1-1-1.53-1.46a52.24,52.24,0,0,1-3.77-3.82,14,14,0,0,1-2.6-4.37c.11-.21.22-.42.34-.62s.15-.51.42-.62a2,2,0,0,0,2.3.41A8,8,0,0,1,26.19,35c0-.1.06-.15,0-.2-.16-.9-.31-1.8-.49-2.69a3.12,3.12,0,0,0-.61-1.35,6.46,6.46,0,0,1-.38-.58c.13-.06.2-.13.28-.13a3.24,3.24,0,0,0,1.72-.62,1.82,1.82,0,0,1,.31-.16A10.73,10.73,0,0,0,29.25,28a3.45,3.45,0,0,0,.46-.47c-.46-.22-.87-.38-1.23-.6-.63-.39-1.23-.81-1.83-1.23A3.68,3.68,0,0,0,25.4,25a3.35,3.35,0,0,1-.55-.25c.18-.36.35-.67.51-1a3.47,3.47,0,0,0,.45-1.95c0-.64,0-1.29-.07-1.93a1.22,1.22,0,0,0-.24-.83,43.32,43.32,0,0,0-5,1.45.91.91,0,0,1-.34-1.27C20.34,18.8,20.5,18.32,20.73,17.88Zm0,16.3a8.46,8.46,0,0,1-.83,1.93l-1.28,2.1c-.15.24-.34.46-.56.76a1.83,1.83,0,0,1-.29-.39,22.45,22.45,0,0,0-1.46-3.1,5.92,5.92,0,0,1-.3-4.61,5,5,0,0,1,.92-1.78,2.85,2.85,0,0,1,.32-.26,1.58,1.58,0,0,1,.15.43c.06,1.17.1,2.35.14,3.52a.68.68,0,0,0,.29.59c0-.95,0-1.73,0-2.52,0-.47,0-.94,0-1.41,0-.28.15-.43.48-.49a3,3,0,0,1,.35.31,10.42,10.42,0,0,1,2.06,3A2.63,2.63,0,0,1,20.73,34.18Zm-6.28-1.85c.27-.33.56-.66.82-1,.22.1.13.22.13.32,0,.65-.06,1.29,0,1.94a1.34,1.34,0,0,1-.59,1.2,7,7,0,0,1-3.4,1.32,2.14,2.14,0,0,1-.44,0,1.07,1.07,0,0,1-.26-.08,24.75,24.75,0,0,1-.28-2.81A2.85,2.85,0,0,1,10.71,32,1.16,1.16,0,0,1,12,31.24a7.62,7.62,0,0,0,2.6-.32l.42-.1a1.57,1.57,0,0,1-.14.36c-.32.39-.65.76-1,1.15a1.79,1.79,0,0,0-.47.83C13.86,33,13.86,33,14.45,32.33Zm-.69-1.58a7.16,7.16,0,0,1-5.54-1.14c-.41-.29-.84-.54-1.25-.83a7.75,7.75,0,0,1-.71-.59c.37-.24.6-.43.85-.56.73-.39,1.45-.77,2.19-1.13A4.68,4.68,0,0,1,11.87,26c.94.1,1.87.23,2.79.41a3.24,3.24,0,0,1,1.88,1.07,2.53,2.53,0,0,1,.13.22,2.21,2.21,0,0,1-1.24.23c-.47,0-.94,0-1.41,0L12.71,28c0,.36.28.32.46.32H15.9l.85.05A2.78,2.78,0,0,1,16,29.61,4.06,4.06,0,0,1,13.76,30.75Zm1.49-5.64a2,2,0,0,1,.07.26.41.41,0,0,1-.05.11c-.39-.15-.6-.52-.93-.74s-.46-.67-.95-.76c.29.89,1.12,1.3,1.61,2.09a10.71,10.71,0,0,1-3-.56,2,2,0,0,1-.92-.78,8.61,8.61,0,0,1-.63-1.25c-.26-.74-.44-1.51-.66-2.3a1.11,1.11,0,0,1,.32-.17c.92-.17,1.84-.32,2.76-.5a2.48,2.48,0,0,1,1.84.4.58.58,0,0,1,.3.67l0,.17A5.37,5.37,0,0,0,15.25,25.11Zm10.3,8c.09.45.14.91.2,1.37-1.08.29-2,.54-3,.81a1.73,1.73,0,0,1-1.44-.16.52.52,0,0,1-.29-.66c0-.2.11-.4.14-.6A2.53,2.53,0,0,0,21,32.37a9.85,9.85,0,0,0-.92-1.8,6.41,6.41,0,0,1-.3-.57c.95.37,1.45,1.14,2.26,1.58-.22-.49-.22-.49-.9-1.07a5.08,5.08,0,0,1-1.07-1.06c.42.08.73.12,1,.21a11,11,0,0,0,2.33.44,1.64,1.64,0,0,1,1.31.77A5,5,0,0,1,25.55,33.07Zm-.14-7.72a2.15,2.15,0,0,1,.63.3c.95.64,1.88,1.29,2.87,2a1.45,1.45,0,0,1-.33.36c-.87.5-1.75,1-2.63,1.44a1.31,1.31,0,0,1-.58.18,9.31,9.31,0,0,1-3,0,15,15,0,0,1-3.28-1,1.72,1.72,0,0,1-.35-.25s0,0,0-.14a2.14,2.14,0,0,1,.91,0h1c.33,0,.65,0,1,0l1,0,0-.21c-1.31-.16-2.65.06-3.94-.18-.08-.3.1-.43.25-.56a8.37,8.37,0,0,1,3.5-1.95A6.06,6.06,0,0,1,25.41,25.35Zm-4.89-4a.59.59,0,0,1,.35-.56A7,7,0,0,1,22,20.33c.93-.27,1.87-.5,2.81-.73a3,3,0,0,1,.53,0,1.45,1.45,0,0,1,.09.36c0,.73,0,1.47,0,2.2a3.31,3.31,0,0,1-1.19,2.46.72.72,0,0,1-.46.21,8.39,8.39,0,0,0-3.24.71s0,0-.2,0c.61-.81,1.29-1.48,1.85-2.33-.45.13-.51.18-1.14.93A8.75,8.75,0,0,1,20,25.23a1.38,1.38,0,0,1,0-.42c.08-.25.17-.5.27-.74a3.93,3.93,0,0,0,.25-1.56C20.48,22.13,20.52,21.75,20.52,21.37Zm-.27.59a4.11,4.11,0,0,1-.26,1.9l-.5,1.41A5,5,0,0,1,18.43,27a4.16,4.16,0,0,1-.45.32A2.43,2.43,0,0,1,17.75,26q0-1.32,0-2.64a2.41,2.41,0,0,0-.14-1c-.31,0-.25.21-.25.37,0,.88.08,1.76.1,2.64,0,.5,0,1,0,1.5a2,2,0,0,1-.17.5,2.18,2.18,0,0,1-1.07-.93,8.27,8.27,0,0,1-1-3,5.06,5.06,0,0,1,.44-2.67,18.66,18.66,0,0,1,2.27-3.64,2.48,2.48,0,0,1,.73.95c.26.43.51.86.73,1.31s.41.88.64,1.31A3.14,3.14,0,0,1,20.25,22Zm-.48-2.8c-.33-.1-.41-.36-.54-.58l-1.05-1.72a2.7,2.7,0,0,0-.27-.3c-.1,0-.17,0-.2.08-.32.49-.63,1-.94,1.48l-1.58,2.6-.33-.18a3.06,3.06,0,0,0-2.3-.36,13.41,13.41,0,0,1-3.31.49c.37,1.22.69,2.32,1.05,3.4a5,5,0,0,0,.47.84c.12.19.26.38.42.62a1.63,1.63,0,0,1-.44.18,5.32,5.32,0,0,0-1.92.6c-.84.42-1.66.89-2.48,1.35-.24.14-.5.31-.52.64,0,.06.06.13.1.16l2.19,1.47a5.15,5.15,0,0,0,2.22,1,2,2,0,0,1,.42.18c-.17.34-.35.64-.48,1a3.28,3.28,0,0,0-.23,1.55c.09,1,.19,1.93.29,2.94a2.67,2.67,0,0,0,.4,0l1.56-.3a5.84,5.84,0,0,0,2.57-1.1,6.26,6.26,0,0,1,.6-.39c.55.78.86,1.64,1.31,2.42a18.74,18.74,0,0,0,1.14,2.41,2.13,2.13,0,0,0,.37-.31c.22-.35.44-.69.64-1.06a8.71,8.71,0,0,1,.89-1.29,1.66,1.66,0,0,1,.49.77,9.62,9.62,0,0,0,1.59,2.62,54.08,54.08,0,0,0,4.66,4.91c.26.24.5.5.75.74a13.75,13.75,0,0,0,1.53,1.33c.9.66,1.76,1.38,2.62,2.09a26.51,26.51,0,0,0,3.18,2.05,29.41,29.41,0,0,0,3.16,1.74c.08,0,.13.11.24.21a3,3,0,0,1-.36.25,10,10,0,0,1-2,.64c-1.16.2-2.3.46-3.46.64-.81.12-1.64.15-2.46.21-1.11.08-2.23.17-3.34.21a10.56,10.56,0,0,1-1.49-.1,1.21,1.21,0,0,1-.5-.15,3.52,3.52,0,0,0-1.09-.33c-.76-.19-1.52-.43-2.28-.67a47.3,47.3,0,0,1-5.65-2.22,18.81,18.81,0,0,1-3.44-2c-.73-.54-1.49-1-2.22-1.59a17.9,17.9,0,0,1-2.67-2.55L5.84,44.41A27,27,0,0,1,3.3,40.5,10.46,10.46,0,0,1,2.6,39,27.79,27.79,0,0,1,1,33.6C.77,32.35.55,31.11.44,29.85A14.66,14.66,0,0,1,.41,27,24.52,24.52,0,0,1,1,23c.21-.77.45-1.52.72-2.27.59-1.62,1.2-3.24,1.88-4.84A16.1,16.1,0,0,1,5.15,13a29.54,29.54,0,0,1,4.62-5.3A24.2,24.2,0,0,1,15,4.17c.46-.24.9-.53,1.38-.73,1.33-.56,2.67-1.08,4-1.62A19.67,19.67,0,0,1,23.7.8c.66-.13,1.33-.22,2-.3S26.88.42,27.46.35a11.71,11.71,0,0,1,2.29.09,21.4,21.4,0,0,1,3.82.6c1.1.29,2.21.58,3.28,1,.39.14.77.31,1.14.48a2,2,0,0,1,.32.27c-.13.34-.41.35-.65.44-1.15.44-2.3.86-3.43,1.34A23.87,23.87,0,0,0,28.59,8a19.81,19.81,0,0,0-2.08,2c-.94,1-1.83,2.07-2.76,3.1a24,24,0,0,0-3.16,4.33c-.2.35-.35.74-.52,1.11C20,18.72,19.87,18.93,19.77,19.16Zm-11,16.05-.16,0a2.44,2.44,0,0,1,0-.47s.14-.11.19-.08a.23.23,0,0,1,.13.19A2.2,2.2,0,0,1,8.79,35.21ZM20.42,40c0-.09.13-.15.26-.29a1.83,1.83,0,0,1,.2.4.18.18,0,0,1-.23.19C20.49,40.27,20.37,40.16,20.42,40Zm4.13,4.89c-.11-.19-.21-.29-.22-.4s.13-.17.22-.19a.22.22,0,0,1,.27.24C24.81,44.64,24.68,44.73,24.55,44.89ZM12.08,49c0-.06.09-.14.15-.16s.3.11.28.41a.45.45,0,0,1-.14.08C12.24,49.31,12.05,49.11,12.08,49ZM1.46,29.65c-.07,0-.13-.08-.25-.17a3.29,3.29,0,0,1,.35-.32.36.36,0,0,1,.16.15A.28.28,0,0,1,1.46,29.65ZM15.59,17.46a1.84,1.84,0,0,1,.09.4c0,.05-.1.14-.16.14a.25.25,0,0,1-.18-.37C15.38,17.57,15.46,17.54,15.59,17.46Zm5.54,35.62a.18.18,0,0,1,.08-.14c.11-.07.31.05.32.2s-.07.14-.09.19A.25.25,0,0,1,21.13,53.08ZM17.7,41c-.06-.08-.16-.17-.16-.25s.11-.16.24-.31c.07.17.16.28.14.35S17.78,41,17.7,41Zm-9-7.61a.43.43,0,0,1,.15-.25c.06,0,.17,0,.23.06,0,.2-.07.33-.22.32S8.68,33.44,8.69,33.41Zm15.22-22.3a1.14,1.14,0,0,1,.17.29c0,.11-.13.23-.22.16a.43.43,0,0,1-.15-.26S23.81,11.19,23.91,11.11ZM5.7,29.11a.25.25,0,0,1,.19.34.23.23,0,0,1-.2.1.23.23,0,0,1-.16-.33C5.57,29.16,5.66,29.14,5.7,29.11ZM27.53,47.37a.34.34,0,0,1,.28-.09c.08,0,.14.13.26.26-.16.07-.26.15-.35.14A.23.23,0,0,1,27.53,47.37Zm2.55,2.38c0-.06.07-.13.09-.18.22,0,.37.09.36.27a.18.18,0,0,1-.08.14A.3.3,0,0,1,30.08,49.75Zm1.36,1c0-.07.1-.15.19-.28l.26.36c-.08,0-.18.14-.25.13A.32.32,0,0,1,31.44,50.73Zm-15.8-.06c.07.11.16.19.17.28s-.11.18-.23.16a.18.18,0,0,1-.14-.25C15.46,50.79,15.55,50.75,15.64,50.67ZM13.45,6.18c.06.09-.13.27-.26.24S13,6.29,13,6.25a.88.88,0,0,1,.2-.25A1.17,1.17,0,0,1,13.45,6.18ZM23.57,53.85s0-.13,0-.14.15-.07.21,0a.29.29,0,0,1,.15.19s-.05.12-.09.23A2.59,2.59,0,0,1,23.57,53.85Zm-3.48-51a.26.26,0,0,1-.17.17c-.05,0-.12-.07-.21-.13s.09-.17.15-.21S20.12,2.77,20.09,2.89ZM8.53,21.74c.09.12.17.18.18.25a.17.17,0,0,1-.21.19c-.07,0-.16-.12-.15-.16S8.45,21.86,8.53,21.74ZM26.19,46.55a2.52,2.52,0,0,1-.18-.38s.13-.13.18-.11.28.13.22.31S26.3,46.47,26.19,46.55ZM15.84,38.38c0-.08.06-.18.13-.37.13.16.23.24.24.32s-.1.16-.15.25C16,38.51,15.86,38.46,15.84,38.38Zm10.84-30c0-.06-.13-.12-.13-.17s.08-.29.26-.27.11.1.2.19ZM15.17,5.32c0,.12,0,.24-.17.22s-.18-.1-.18-.14.09-.17.16-.3C15.08,5.2,15.16,5.25,15.17,5.32ZM5,14.92c.09.11.19.19.18.21a1.5,1.5,0,0,1-.2.24c-.06-.06-.17-.12-.16-.16A1.09,1.09,0,0,1,5,14.92ZM31.52,54a1,1,0,0,1-.23-.22s.06-.12.13-.25a2.81,2.81,0,0,1,.3.29s0,.11,0,.14S31.55,54.06,31.52,54ZM3.2,20.35a3.26,3.26,0,0,1-.35.19s-.14-.1-.14-.15A.23.23,0,0,1,3,20.15C3,20.16,3.09,20.25,3.2,20.35Zm29.86,33.2c.13.15.26.23.26.3s-.12.17-.2.23-.17-.09-.18-.15S33,53.74,33.06,53.55ZM2.62,36.3c0,.06-.11.09-.23.18a1.2,1.2,0,0,1-.14-.32s.1-.16.16-.16A.23.23,0,0,1,2.62,36.3ZM35.3,53.41c0-.06.09-.11.12-.15.24,0,.39.21.32.34a.22.22,0,0,1-.2.1C35.41,53.66,35.26,53.59,35.3,53.41ZM2.24,22.14c-.08-.06-.2-.15-.2-.23s.13-.14.27-.28c.06.18.12.28.1.36S2.26,22.15,2.24,22.14ZM1.79,24c-.05,0-.14-.11-.26-.21l.28-.25c.07.08.19.16.18.23A.33.33,0,0,1,1.79,24ZM13.84,36.6c0-.07.09-.13.15-.22.08.07.16.11.2.18a.17.17,0,0,1-.2.2A.22.22,0,0,1,13.84,36.6Zm1-17.35-.23.22c-.05,0-.13-.1-.14-.17s0-.23.17-.23S14.79,19.17,14.88,19.25Zm1.54,20.41a1.19,1.19,0,0,1,.12-.32c.1.11.18.16.2.22s0,.24-.16.24S16.42,39.71,16.42,39.66Zm.3-35.09s-.13.07-.2.1-.1-.14-.09-.21.08-.11.19-.24C16.67,4.39,16.73,4.48,16.72,4.57Zm.1,10.94a2.08,2.08,0,0,1,.19.39.29.29,0,0,1-.14.19c-.12.05-.26-.13-.22-.28A1.44,1.44,0,0,1,16.82,15.51Zm1.45-12c.06,0,.15,0,.22.08l-.19.3c-.09-.1-.19-.16-.18-.21A.24.24,0,0,1,18.27,3.49Zm.92,49a1.38,1.38,0,0,1-.17-.25c.06,0,.15-.11.19-.09a1.58,1.58,0,0,1,.25.26C19.32,52.48,19.22,52.54,19.19,52.52Zm.3-35.65a1.25,1.25,0,0,1,.19.29c0,.06-.08.13-.12.2s-.16-.14-.19-.22S19.42,17,19.49,16.87Zm1.1-.9c0,.07-.06.18-.11.2a1.28,1.28,0,0,1-.42,0c.17-.15.23-.24.32-.28S20.52,15.93,20.59,16Zm1.65-3.09c.08-.07.14-.15.21-.16s.15.08.16.14,0,.25-.19.21S22.31,13,22.24,12.88Zm-.57,28.55c0-.07.1-.12.19-.23a1.09,1.09,0,0,1,.18.29s-.11.14-.17.15A.18.18,0,0,1,21.67,41.43ZM1.42,27.62a.58.58,0,0,1-.21.2s-.11-.08-.22-.17l.33-.25C1.36,27.48,1.44,27.57,1.42,27.62Zm0-1.84a1.38,1.38,0,0,1-.15-.25c0-.05.11-.16.15-.15s.15.09.29.17ZM25.14,9.62a.25.25,0,0,1,.17-.15c.06,0,.12.08.21.15-.08.08-.12.16-.19.19S25.09,9.72,25.14,9.62Zm.24,44.48c0-.06.08-.13.15-.26.1.12.18.19.2.28s-.07.15-.13.17S25.39,54.22,25.38,54.1ZM1.8,31.94a.63.63,0,0,1-.22-.18s.09-.12.18-.24a.94.94,0,0,1,.17.26S1.82,32,1.8,31.94Zm1.5,6.45c-.24-.06-.35-.15-.22-.36,0,0,.11-.07.14-.05C3.43,38.08,3.35,38.23,3.3,38.39Zm.54-20.22c.06,0,.11.08.2.15a1.44,1.44,0,0,1-.21.15c-.12,0-.25-.11-.19-.19A.24.24,0,0,1,3.84,18.17Zm.4,21.64c.14.16.23.23.26.31s0,.14-.06.21-.21-.06-.25-.13S4.21,40,4.24,39.81Zm2.38,4a.73.73,0,0,1-.21-.22s.09-.11.17-.21a1.7,1.7,0,0,1,.2.29S6.64,43.78,6.62,43.77ZM28,1.31c-.05,0-.12-.06-.25-.14L28,1c.05.06.14.12.14.19A.22.22,0,0,1,28,1.31Zm.89,47.29c0-.06.12-.1.23-.18a2.27,2.27,0,0,1,.13.3.26.26,0,0,1-.14.07C29,48.79,28.85,48.74,28.87,48.6ZM7,26.28a1.38,1.38,0,0,1-.17.25l-.23-.19a.94.94,0,0,1,.24-.19S7,26.26,7,26.28Zm-.1,4.17a.93.93,0,0,1,.32-.11.23.23,0,0,1,.13.16c0,.14-.12.18-.23.15S7,30.55,6.88,30.45ZM29.2,54c0-.05.09-.12.16-.2l.19.22c-.06.05-.13.15-.18.14S29.22,54.06,29.2,54Zm.72-52.85c0-.06.14-.08.26-.15l.16.28a.79.79,0,0,1-.23.08C30,1.35,29.88,1.27,29.92,1.14Zm-22,19a1.24,1.24,0,0,1,.19.21s-.1.14-.14.14-.12-.09-.19-.15Zm.62,5.51a.16.16,0,0,1-.06.31c-.06,0-.1-.11-.16-.21C8.38,25.73,8.47,25.66,8.51,25.68Zm.78-2.18a.85.85,0,0,1-.23.12.15.15,0,0,1-.14-.23.22.22,0,0,1,.2-.07C9.18,23.33,9.22,23.42,9.29,23.5ZM32.52,3.83c.09.11.2.19.19.26s-.13.14-.2.21a1.23,1.23,0,0,1-.17-.25S32.43,3.93,32.52,3.83ZM9,9.73a.9.9,0,0,1-.27-.21c.12-.08.18-.16.25-.17s.21.09.17.22S9.06,9.74,9,9.73ZM32.75,51.56c0-.06.13-.09.25-.16a1.16,1.16,0,0,1,.11.31.29.29,0,0,1-.2.09C32.79,51.78,32.7,51.69,32.75,51.56ZM9.35,31.8a1.1,1.1,0,0,1-.14-.26s.1-.1.22-.2a1.68,1.68,0,0,1,.09.33S9.41,31.76,9.35,31.8ZM10.54,8.05c.06.14.12.22.1.27s-.1.15-.16.15-.16-.12-.15-.15S10.44,8.17,10.54,8.05Zm.37,11c.07.07.15.13.16.19s-.09.15-.14.15-.25,0-.21-.17S10.83,19.1,10.91,19ZM36.29,2.62c0-.06.06-.13.13-.25.1.16.17.22.16.28a.15.15,0,0,1-.29,0ZM11.92,7.13a1,1,0,0,1-.25.17c-.06,0-.14-.06-.29-.14a1.54,1.54,0,0,1,.39-.2S11.87,7.07,11.92,7.13Zm1,30.19c-.09,0-.16-.09-.29-.18.14-.11.21-.21.29-.21s.17.12.14.24S12.94,37.33,12.9,37.32Zm2.62.24a.3.3,0,0,1-.1-.21c0-.06.09-.11.17-.2.06.1.12.16.13.23S15.6,37.63,15.52,37.56Zm13-30.74s.08-.11.15-.19c.07.08.17.14.16.19a.21.21,0,0,1-.15.16A.22.22,0,0,1,28.5,6.82Zm1.76-1.5.19-.21a.94.94,0,0,1,.19.24s-.12.16-.15.15A1,1,0,0,1,30.26,5.32ZM8.92,19.71c-.06,0-.14-.06-.25-.11.08-.08.14-.18.2-.18s.12.08.19.12S9,19.7,8.92,19.71ZM5.67,13.57c.06,0,.14.06.22.09L5.71,14c-.1-.12-.18-.18-.18-.24A.22.22,0,0,1,5.67,13.57ZM9,36.1c.09.11.19.18.18.21a1.31,1.31,0,0,1-.17.24c-.05,0-.15-.1-.15-.13A1.14,1.14,0,0,1,9,36.1ZM7.69,11a.32.32,0,0,1-.1-.2c0-.06.09-.12.17-.2.07.09.14.15.15.22S7.77,11.09,7.69,11ZM18.61,39.92c0-.06.1-.12.18-.21.06.08.14.15.13.2a.24.24,0,0,1-.15.17C18.71,40.08,18.6,40,18.61,39.92ZM8.31,31.41c0-.07-.07-.15-.05-.2s.13-.06.24-.12c0,.12,0,.22,0,.26S8.38,31.39,8.31,31.41Zm1.12,6.2s.07-.12.13-.22c.07.08.15.14.15.19s-.07.12-.11.18S9.44,37.67,9.43,37.61ZM6.61,12.75a.71.71,0,0,1-.06-.23c0-.06.1-.11.18-.18.06.1.14.21.13.23A1.6,1.6,0,0,1,6.61,12.75Zm3.73,35.11a.9.9,0,0,1,.14-.24l.16.23a1.3,1.3,0,0,1-.19.11S10.33,47.88,10.34,47.86ZM21.12,14.59c0-.1.07-.2.12-.35.1.12.2.2.19.24s-.13.15-.2.23S21.12,14.62,21.12,14.59ZM23,43.16c-.08,0-.15-.13-.26-.22l.21-.18a1.44,1.44,0,0,1,.18.25S23,43.17,23,43.16ZM2,34.05c0,.06.12.13.11.19s-.11.15-.16.14-.15-.15-.11-.26S1.9,34.08,2,34.05ZM28.08,54.16c0,.05-.07.16-.12.16a1.05,1.05,0,0,1-.32-.09c.1-.12.14-.2.2-.23A.17.17,0,0,1,28.08,54.16ZM18.92,15.6l.09.12-.18.09s-.06-.11,0-.14S18.87,15.63,18.92,15.6ZM5.48,41.9c.08.09.16.14.16.2s-.07.11-.1.17-.14-.09-.16-.15S5.43,42,5.48,41.9Zm3.6,4.24s0,.09.06.13L9,46.35l-.08-.17S9,46.12,9.08,46.14ZM9.84,25l-.18-.08.08-.16a.46.46,0,0,1,.16.11S9.86,24.91,9.84,25ZM4.93,27.62c0,.11,0,.23-.16.21a.24.24,0,0,1-.14-.14c0-.06.06-.13.1-.22C4.82,27.53,4.91,27.56,4.93,27.62ZM34.19,3.79s-.12-.06-.11-.08a.56.56,0,0,1,.07-.19l.17.09A1.18,1.18,0,0,1,34.19,3.79Zm-.11,48.6a.2.2,0,0,1,.12-.16c.06,0,.13.07.19.1s0,.15-.07.17S34.1,52.52,34.08,52.39ZM11.27,37.58c0-.1-.13-.17-.11-.22a.23.23,0,0,1,.18-.12.2.2,0,0,1,.12.16C11.45,37.46,11.36,37.5,11.27,37.58ZM34.44,2.07c-.08-.08-.15-.12-.18-.18s0-.12.06-.12a.87.87,0,0,1,.22.05ZM12.88,19c0,.11.12.2.1.23s-.13.07-.19.11-.08-.1-.07-.14A.76.76,0,0,1,12.88,19ZM14,50.12a1.07,1.07,0,0,1-.19-.13s.07-.13.08-.12a1.07,1.07,0,0,1,.22.1A1.13,1.13,0,0,1,14,50.12Zm3.9-35.61c.05,0,.13,0,.13.07a1.51,1.51,0,0,1,0,.3h-.08c0-.1-.05-.2-.07-.3S17.87,14.53,17.88,14.51Zm3.4-11.94s-.08-.11-.07-.12a1.18,1.18,0,0,1,.18-.13l.1.17A.9.9,0,0,1,21.28,2.57ZM35.35,3c0-.06.09-.11.16-.21l.12.24a.7.7,0,0,1-.2.08S35.34,3,35.35,3ZM17.16,51.51a.71.71,0,0,1,.11-.21l.15.21a.62.62,0,0,1-.17.11A.17.17,0,0,1,17.16,51.51Zm-2-15.27c0-.05-.08-.12-.06-.14a1.24,1.24,0,0,1,.18-.14l.08.16ZM25.73,1.67c-.06-.09-.14-.15-.13-.2s.08-.1.13-.16.15.11.15.16S25.8,1.59,25.73,1.67Zm-2,.34A.9.9,0,0,1,23.52,2l.11-.23a1.64,1.64,0,0,1,.18.16A.19.19,0,0,1,23.74,2ZM19.41,38.94c-.06,0-.14,0-.28-.1.21-.12.27-.19.33-.18a.19.19,0,0,1,.11.16S19.47,38.93,19.41,38.94Zm-15-22.56.21.06-.09.25a1.51,1.51,0,0,1-.18-.18S4.35,16.38,4.37,16.38Zm28-14.73-.09-.12.18-.11c0,.05.06.11,0,.14S32.46,1.62,32.41,1.65ZM7.6,44.94s-.13,0-.13-.06,0-.1,0-.15a.32.32,0,0,1,.14.08S7.62,44.9,7.6,44.94Zm-1.81-18s-.11,0-.15,0,0-.08-.08-.12l.12-.08Z"/></g></g></svg>