<svg xmlns="http://www.w3.org/2000/svg" viewBox="0 0 87.78 145.02"><title>Asset 569</title><g id="Layer_2" data-name="Layer 2"><g id="Layer_1-2" data-name="Layer 1"><path d="M60.81,47.53,61,48.68c-3.94.72-4.51,4.88-4.54,5.06l-1.16-.15C55.33,53.54,56,48.4,60.81,47.53Zm-11.13,5a17.27,17.27,0,0,0,.69,4.88L51.49,57c0-.07-2.49-7.86,2.58-12.48l-.79-.87A11.66,11.66,0,0,0,49.68,52.51Zm5.68,28.05a.76.76,0,0,0-.83.25c-.37.45-.8.59-2.57,1.12l-1.37.42a3.75,3.75,0,0,0-2.88,4.05l1.16-.17a2.56,2.56,0,0,1,2.06-2.76l1.37-.41,1.06-.33a4.8,4.8,0,0,1-1.9,2.38l.28.51.28.52a6.08,6.08,0,0,0,2.73-4A2.83,2.83,0,0,0,55,82a3.18,3.18,0,0,1,0,1.43,4.6,4.6,0,0,1-2.79,3.25l.51,1c3.49-1.68,3.57-4.5,3.52-5.32S56,80.75,55.36,80.56ZM87.78,47.71l-.54.32a33.48,33.48,0,0,1-3.69,1.77,12.64,12.64,0,0,0-4,2.34c-2,2-7.6,2-9.89,1.47a.76.76,0,0,0-.7.11c-.7.52-1.11,2.26-1.24,5.17v0c-.19,1.59-.37,2.17-.77,2.45a1,1,0,0,1-.74.13,16.92,16.92,0,0,1-.51,2.17c.3.87,1.69,5,2.37,8a3.87,3.87,0,0,0,1.23,2.17c.9.92,1.82,1.87,1.82,5.65-.36,5.4-1.67,6.74-3,8.16a9.5,9.5,0,0,0-2.35,3.44,27.38,27.38,0,0,1-2,4.2c-2.54,4.25-7.66,8.58-11.5,11.47-2.24,1.68-4.23,3-5.51,3.84-2.1,1.35-2.5,1.54-2.71,1.54H43.8l-.1,0-.12-.06s-3.7-2.21-7.89-5.35C30,102.5,26.15,98.66,24.15,95.32a28.36,28.36,0,0,1-2-4.16,10,10,0,0,0-2.29-3.35c-1.42-1.48-2.76-2.88-3.11-8.25,0-3.82.92-4.77,1.81-5.69a3.82,3.82,0,0,0,1.24-2.17c.68-3,2.06-7.14,2.36-8a18.79,18.79,0,0,1-.51-2.17,1,1,0,0,1-.74-.13c-.39-.28-.57-.86-.77-2.45v0c-.13-2.91-.55-4.65-1.25-5.17a.74.74,0,0,0-.69-.11c-2.29.57-7.86.57-9.89-1.47a12.58,12.58,0,0,0-4-2.34A34.29,34.29,0,0,1,.55,48L0,47.71l.35-.52c2.09-3.11,4.5-4.93,7.15-5.42,4.09-.75,7.71,1.81,9.66,3.18.38.27.71.51.93.64a3.12,3.12,0,0,0,3.49-.78c.5-.58.23-.92.14-1-.85-1.07-.61-2.17.06-3.31C11,36,4.13,29.33,1.5,20.56A26.58,26.58,0,0,1,1.54,5C2.28,3,3.73-.36,5,0c.94.28.59,1.78.46,2.34L5.34,3c-1.28,5.4-2.49,10.5,6,19,6.24,6.23,18.29,9.44,18.41,9.47l-.05.18a4.49,4.49,0,0,1,3.53.39c4.55,2.29,10.35,1.5,10.6,1.46a2.73,2.73,0,0,1,.51,0,18.18,18.18,0,0,0,10.19-1.49,4.49,4.49,0,0,1,3.53-.39l0-.18c.12,0,12.17-3.24,18.41-9.47,8.5-8.51,7.29-13.61,6-19l-.16-.64c-.13-.56-.48-2.06.46-2.34C84.06-.36,85.5,3,86.24,5a26.56,26.56,0,0,1,.05,15.57C83.66,29.33,76.84,36,66,40.47c.68,1.14.91,2.24.06,3.31-.09.11-.35.45.15,1a3.1,3.1,0,0,0,3.48.78c.23-.13.56-.37.94-.64,1.94-1.37,5.57-3.93,9.65-3.18,2.66.49,5.06,2.31,7.15,5.42ZM59.39,32.32A14,14,0,0,1,62.64,36c.3.44.59.86.87,1.21s.59.75.89,1.11.64.78.93,1.17C76,35.17,82.62,28.7,85.16,20.22a25.25,25.25,0,0,0,0-14.83,17,17,0,0,0-1.79-3.73c0,.13.05.27.09.44l.15.64c1.3,5.48,2.64,11.14-6.32,20.11C71.84,28.27,62.53,31.38,59.39,32.32ZM22.46,39.48c.29-.39.6-.77.93-1.17l.89-1.11c.27-.36.56-.77.86-1.21a13.9,13.9,0,0,1,3.26-3.67c-3.15-.94-12.45-4.05-17.88-9.47-9-9-7.62-14.63-6.32-20.11l.15-.64c0-.17.07-.31.09-.44a16.4,16.4,0,0,0-1.8,3.73,25.25,25.25,0,0,0,0,14.83C5.16,28.7,11.83,35.17,22.46,39.48ZM17.14,50c-.56-1.7-3.74-5.22-8.87-6a5.86,5.86,0,0,0-5.92,2.53c-.13.17-.25.31-.35.43l0,0-.27.37c1.07.57,2.09,1,3,1.41a13.33,13.33,0,0,1,4.41,2.58c1.45,1.46,5.59,1.65,8,1.31A3.48,3.48,0,0,0,17.14,50ZM64.88,65.08a18.63,18.63,0,0,1-1.6,3.14c2,10-1.39,15.59-1.53,15.82l-1-.61c0-.06,3-5,1.6-13.73-.17.27-.35.54-.53.81-1.85,2.83-3.75,5.75-4.18,8.94a7.28,7.28,0,0,1,1,3.42,6.89,6.89,0,0,1-1,3.94,3.69,3.69,0,0,0-.56,3.06,8.87,8.87,0,0,0,1,2.33c.64,1.13,1.18,2.1-.13,3.7a3.58,3.58,0,0,1-2.08,1.41c-1.2,1.88-2.41,2.59-4,2.59a12.19,12.19,0,0,1-3.45-.68,9.5,9.5,0,0,0-4,0,1.26,1.26,0,0,1-.65,0,7.32,7.32,0,0,0-4.34-.08c-3.59,1.11-5.54,1.1-7.47-1.91a3.56,3.56,0,0,1-2.07-1.41c-1.32-1.6-.77-2.57-.14-3.7a9.2,9.2,0,0,0,1-2.33,3.76,3.76,0,0,0-.56-3.06,6.73,6.73,0,0,1-1-3.94,7.4,7.4,0,0,1,1-3.42c-.43-3.19-2.33-6.11-4.18-8.94l-.53-.81C24.06,78.44,27,83.37,27,83.43L26,84c-.15-.23-3.51-5.81-1.54-15.82a20.24,20.24,0,0,1-1.6-3.14c-.53,1.61-1.48,4.58-2,6.87a5,5,0,0,1-1.54,2.74c-.76.78-1.48,1.52-1.48,4.83.33,4.9,1.47,6.1,2.78,7.48l.25.26a27.17,27.17,0,0,1-.67-8.94l1.16.15a28,28,0,0,0,3.75,16.25c4.25,7.11,16.8,15,18.76,16.2,2-1.13,14.42-9,18.7-16.2a28,28,0,0,0,3.75-16.25l1.17-.15a27.13,27.13,0,0,1-.65,8.83c.1-.1.19-.2.29-.29,1.28-1.32,2.39-2.45,2.72-7.38,0-3.27-.72-4-1.49-4.79A5,5,0,0,1,66.87,72C66.36,69.66,65.42,66.69,64.88,65.08ZM56.61,86.27a5.86,5.86,0,0,0,.86-3.33c-.12-2.11-1.08-3.61-2-4a.58.58,0,0,0-.64,0l-.33.27c-1,.9-2.64,2.26-5.31.3a10.24,10.24,0,0,0-10.67,0c-2.68,2-4.27.6-5.32-.3L32.92,79a.43.43,0,0,0-.29-.1.87.87,0,0,0-.36.09c-.88.38-1.83,1.88-2,4a5.71,5.71,0,0,0,.86,3.33,4.84,4.84,0,0,1,.65,3.89,10.11,10.11,0,0,1-1.11,2.61c-.59,1-.79,1.41,0,2.39,1.29,1.56,2.08,1.25,4.81-.21l0,0c.12-.06.25-.1.37-.15a13.21,13.21,0,0,1,8-1.11c1.35,0,5.49-.07,8,1.12l.36.14v0c2.73,1.46,3.52,1.76,4.8.21.81-1,.61-1.34,0-2.39A9.75,9.75,0,0,1,56,90.16,4.81,4.81,0,0,1,56.61,86.27ZM36.3,95.88l-.1.05a14.2,14.2,0,0,1-2.92,1.31c1.28,1.72,2.54,1.85,5.75.86a8.39,8.39,0,0,1,4.91,0l.22,0a10.64,10.64,0,0,1,4.6,0c3.2,1,4.46.86,5.74-.85a13.76,13.76,0,0,1-2.88-1.31l-.16-.07a9.58,9.58,0,0,0-4.88.25,7.64,7.64,0,0,1-2.42.3H43.9a9.22,9.22,0,0,1-2.7-.3A9.55,9.55,0,0,0,36.3,95.88ZM41.59,95a8,8,0,0,0,2.32.23H44A6.53,6.53,0,0,0,46.19,95c.13-.05.29-.09.46-.14-1.26-.08-2.32-.05-2.7,0-.1,0-.15,0-.15,0a13.88,13.88,0,0,0-3.42-.12A8,8,0,0,1,41.59,95ZM79.35,42.87l.15,0c-3.38-.33-6.49,1.86-8.19,3.06-.43.3-.76.54-1,.69a4.27,4.27,0,0,1-5-1,1.89,1.89,0,0,1-.18-2.53c.76-.95-.09-2.08-1.65-4-.3-.36-.61-.74-.91-1.13s-.59-.81-.9-1.27c-2-2.88-3.75-5-6.61-3.54a19.39,19.39,0,0,1-10.84,1.61l-.27,0c-.54.07-6.5.8-11.25-1.58-2.85-1.44-4.61.66-6.6,3.54-.31.46-.61.89-.9,1.27l-.92,1.13c-1.56,1.92-2.41,3.05-1.65,4a1.89,1.89,0,0,1-.17,2.53,4.27,4.27,0,0,1-5,1,10.82,10.82,0,0,1-1-.69c-1.71-1.2-4.81-3.39-8.19-3.06l.15,0c5.44.81,9.08,4.52,9.82,6.78a4.9,4.9,0,0,1,.13,2.75,1.87,1.87,0,0,1,1.18.38c1,.77,1.56,2.63,1.71,6,0,.32.07.57.11.78a19,19,0,0,1,.23-4.82l1.15.25A18.52,18.52,0,0,0,22.72,61a4.1,4.1,0,0,1,.21.82,5.93,5.93,0,0,0,.85,2.34l0,.07,0,.07A26.12,26.12,0,0,0,27,69.87c1.73,2.65,3.51,5.38,4.18,8.42a2.86,2.86,0,0,1,.67-.42,1.75,1.75,0,0,1,1.86.18l.14.12c.21-1.56.55-4.63.71-8.4.23-5.2,0-10.33-3-12.63A9.69,9.69,0,0,1,30.21,56a6.2,6.2,0,0,0-2.63.31,3.69,3.69,0,0,1-1.69.45,2.82,2.82,0,0,1-1.06-.2,3.22,3.22,0,0,1-1.83-2,9.22,9.22,0,0,1-.51-1.93,1.82,1.82,0,0,1-1.09-1.12c-.57-1.28.44-1.95,1.18-2.45s1.37-1,1.37-1.82h1.17A3.34,3.34,0,0,1,23.23,50c-.85.57-.9.69-.76,1,.27.61.42.64,1.74.29a12.9,12.9,0,0,1,2.23-.42c1.78-.15,2.46,1,3.18,2.21a9.76,9.76,0,0,0,2.57,3.09c3.47,2.62,3.73,8.09,3.5,13.61-.19,4.48-.65,8-.82,9.19.76.47,1.61.59,3-.43a10.29,10.29,0,0,1,5.36-1.7h0s.28,0,.66,0,.62,0,.66,0h0a10.32,10.32,0,0,1,5.37,1.7c1.39,1,2.24.9,3,.43-.17-1.21-.62-4.71-.81-9.19-.24-5.52,0-11,3.49-13.61a9.63,9.63,0,0,0,2.57-3.09c.72-1.21,1.41-2.36,3.18-2.21a12.9,12.9,0,0,1,2.23.42c1.32.35,1.47.32,1.74-.29.14-.31.09-.43-.76-1a3.35,3.35,0,0,1-1.89-2.8h1.18c0,.84.54,1.27,1.37,1.82s1.74,1.17,1.18,2.45a1.87,1.87,0,0,1-1.09,1.12,10.72,10.72,0,0,1-.51,1.93,3.27,3.27,0,0,1-1.83,2,2.9,2.9,0,0,1-1.06.2,3.69,3.69,0,0,1-1.69-.45A6.24,6.24,0,0,0,57.57,56a9.09,9.09,0,0,1-1.27,1.16c-3,2.3-3.25,7.43-3,12.63.16,3.77.51,6.84.71,8.4l.15-.12A1.74,1.74,0,0,1,56,77.87a3,3,0,0,1,.66.42c.68-3,2.46-5.77,4.19-8.42a26.56,26.56,0,0,0,3.1-5.62l0-.07.05-.07a5.9,5.9,0,0,0,.84-2.34,4.67,4.67,0,0,1,.21-.82A18.18,18.18,0,0,0,65,55l1.15-.25a18.74,18.74,0,0,1,.24,4.82c0-.21.07-.46.11-.78.15-3.41.68-5.27,1.71-6a1.83,1.83,0,0,1,1.17-.38,4.92,4.92,0,0,1,.14-2.75C70.27,47.39,73.9,43.68,79.35,42.87ZM60.75,55.25a2.13,2.13,0,0,0,1.78.2,2,2,0,0,0,1.15-1.29,9.6,9.6,0,0,0,.42-1.5c-.27,0-.55-.12-.83-.19a11.1,11.1,0,0,0-2-.39c-1-.08-1.34.41-2.07,1.64-.2.34-.42.7-.67,1.07A5.69,5.69,0,0,1,60.75,55.25ZM28.61,53.72c-.73-1.23-1.06-1.72-2.07-1.64a11.1,11.1,0,0,0-2,.39c-.28.07-.56.14-.83.19a9.6,9.6,0,0,0,.42,1.5,2.08,2.08,0,0,0,1.16,1.29,2.13,2.13,0,0,0,1.78-.2,5.68,5.68,0,0,1,2.24-.46C29,54.42,28.81,54.06,28.61,53.72Zm57.48-6.4L85.82,47l0,0c-.1-.12-.22-.26-.35-.43A5.84,5.84,0,0,0,79.52,44c-5.14.76-8.32,4.28-8.88,6a3.6,3.6,0,0,0,.06,2.61c2.38.34,6.53.14,8-1.31a13.23,13.23,0,0,1,4.41-2.58C84,48.33,85,47.89,86.09,47.32ZM27,47.53l-.21,1.15c3.95.72,4.52,4.88,4.54,5.06l.58-.07.58-.08C32.46,53.54,31.77,48.4,27,47.53Zm6.74-3C38.78,49.16,36.32,57,36.3,57l1.11.37a16.85,16.85,0,0,0,.69-4.88,11.63,11.63,0,0,0-3.6-8.84ZM37.2,82.35l-1.37-.42c-1.78-.53-2.21-.67-2.58-1.12a.78.78,0,0,0-.83-.25c-.59.19-.86,1.06-.91,1.81s0,3.64,3.51,5.32l.51-1a4.62,4.62,0,0,1-2.79-3.25,3.15,3.15,0,0,1,0-1.43,2,2,0,0,0,.28.2,6.08,6.08,0,0,0,2.72,4l.57-1a4.79,4.79,0,0,1-1.91-2.38l1.07.33,1.36.41a2.54,2.54,0,0,1,2.06,2.76l.58.08.58.09A3.74,3.74,0,0,0,37.2,82.35Z"/><path d="M28.7,137.41H26.17v7.46H25.1v-7.46H22.57v-.9H28.7Zm3.92-.9,2.81,8.36H34.3l-.79-2.54h-3l-.8,2.54H28.58l2.81-8.36Zm.23,3.69c-.31-.93-.58-1.85-.84-2.81H32c-.25,1-.52,1.88-.81,2.81l-.4,1.26h2.5Zm8.52,1.24c0,2-.86,2.64-2,2.64s-1.94-.64-1.94-2.64v-4.93H36.39v4.9c0,2.68,1.3,3.61,3,3.61s3-.93,3-3.61v-4.9h-1Zm7-.22,2.13,3.65H49.25l-2-3.53H45.73v3.53H44.66v-8.36h2.62c1.7,0,2.93.61,2.93,2.35A2.28,2.28,0,0,1,48.33,141.22Zm.81-2.36c0-1.09-.72-1.49-2-1.49H45.73v3.1h1.39C48.42,140.47,49.14,139.93,49.14,138.86Zm7.73,2.58c0,2-.86,2.64-2,2.64S53,143.44,53,141.44v-4.93H51.89v4.9c0,2.68,1.3,3.61,3,3.61s3-.93,3-3.61v-4.9h-1Zm6.62-1-1.2-.53c-.65-.26-1.38-.57-1.38-1.37s.62-1.21,1.55-1.21a2.72,2.72,0,0,1,1.88.77l.59-.71a3.47,3.47,0,0,0-2.47-1,2.38,2.38,0,0,0-2.63,2.22,2.34,2.34,0,0,0,1.68,2.15l1.21.54c.78.34,1.39.61,1.39,1.47s-.65,1.35-1.74,1.35a3.35,3.35,0,0,1-2.35-1l-.6.7A3.94,3.94,0,0,0,62.36,145c1.75,0,2.85-1.06,2.85-2.38A2.3,2.3,0,0,0,63.49,140.41Z"/></g></g></svg>