<svg xmlns="http://www.w3.org/2000/svg" viewBox="0 0 113.59 113.59"><defs><style>.cls-1{fill:#1a1a1a;}</style></defs><title>Asset 456</title><g id="Layer_2" data-name="Layer 2"><g id="Layer_1-2" data-name="Layer 1"><path class="cls-1" d="M71.89,56.7H65.64a22.93,22.93,0,0,0,6.44,13.83,2.22,2.22,0,0,1-3.27,3A27.49,27.49,0,0,1,61.19,56.7H55.68a27.49,27.49,0,0,1-7.62,16.82,2.22,2.22,0,1,1-3.27-3A22.93,22.93,0,0,0,51.23,56.7H45a2.22,2.22,0,1,1,0-4.44h6.24a22.75,22.75,0,0,0-6.42-13.79A2.22,2.22,0,0,1,48,35.39a27.16,27.16,0,0,1,7.68,16.87h5.51a27.19,27.19,0,0,1,7.68-16.87,2.22,2.22,0,0,1,3.81,1.5,2.19,2.19,0,0,1-.62,1.58,22.75,22.75,0,0,0-6.42,13.79h6.25a2.22,2.22,0,0,1,0,4.44Z"/><path class="cls-1" d="M49.9,83.87a1.45,1.45,0,0,0-.17-1.44,3.39,3.39,0,0,0-1.58-1.17,12,12,0,0,0-2.38-.66c-1-.18-1.5-.14-1.61.12a.6.6,0,0,0,.08.69,1.49,1.49,0,0,1-.14.44c-.1.22-.46.86-1.09,1.93-.78,1.33-1.22,2.11-1.32,2.36a.6.6,0,0,0,.32.91.59.59,0,0,0,.52,0,.76.76,0,0,0,.36-.39A17.3,17.3,0,0,1,43.73,85c.07,0,.33,0,.79.14a8.57,8.57,0,0,0,3.4.1A2.43,2.43,0,0,0,49.9,83.87Zm-1.2-.39c-.18.43-.71.69-1.58.77a8.35,8.35,0,0,1-2.8-.25l1.31-2.32a6.9,6.9,0,0,1,2.1.49C48.59,82.53,48.92,83,48.7,83.48Z"/><path class="cls-1" d="M52.36,83.28a1,1,0,0,0,.63-.13.78.78,0,0,0,.47-.54.58.58,0,0,0-.11-.5.8.8,0,0,0-.51-.32,1,1,0,0,0-.74.06.74.74,0,0,0-.36.52.68.68,0,0,0,.13.54A.72.72,0,0,0,52.36,83.28Z"/><path class="cls-1" d="M51.28,84.39a.55.55,0,0,0-.52.14,1.13,1.13,0,0,0-.31.57,10.17,10.17,0,0,1-.4,1h0q-.11.23-.21.48a10.44,10.44,0,0,0-.71,2c-.14.65,0,1,.46,1.13a.72.72,0,0,0,.53-.08c.18-.09.28-.18.29-.25a.61.61,0,0,0,0-.15,4.34,4.34,0,0,1,.07-.83c.06-.24.15-.56.28-.95a8.62,8.62,0,0,1,.69-1.46l.05-.1a3.83,3.83,0,0,0,.38-.77.46.46,0,0,0-.12-.4A.9.9,0,0,0,51.28,84.39Z"/><path class="cls-1" d="M56,84.5A3.66,3.66,0,0,0,54,85a1.87,1.87,0,0,0-1.2,1.44,1.23,1.23,0,0,0,.23.81,4.26,4.26,0,0,0,1.31,1c.56.31.84.56.84.74a1.32,1.32,0,0,1-.75.3,3.51,3.51,0,0,1-1.06,0A1,1,0,0,1,53,89.2a1.31,1.31,0,0,0-.31-.1.71.71,0,0,0-.46.13.49.49,0,0,0-.24.39c0,.44.25.68.89.75a5.51,5.51,0,0,0,2.39-.27c.72-.25,1.11-.63,1.16-1.11a1.13,1.13,0,0,0-.22-.76A3.85,3.85,0,0,0,55,87.37a3.41,3.41,0,0,1-.78-.53.55.55,0,0,1-.16-.4c0-.27.24-.48.63-.65a2.3,2.3,0,0,1,1.06-.2.58.58,0,0,1,.22.1l.2.09a.69.69,0,0,0,.36-.13.43.43,0,0,0,.24-.33C56.86,84.83,56.58,84.56,56,84.5Z"/><path class="cls-1" d="M61.89,88.48a1.32,1.32,0,0,0-.63.32,3.12,3.12,0,0,1-1.68.69c-.52,0-.79-.18-.82-.63a3.88,3.88,0,0,1,.55-2c.4-.78.74-1.17,1-1.19s.23.15.3.47.3.66.64.64a.61.61,0,0,0,.35-.2.86.86,0,0,0,.14-.66,1.59,1.59,0,0,0-.42-1,1,1,0,0,0-.88-.42c-.7,0-1.38.59-2,1.61A4.78,4.78,0,0,0,57.51,89a1.72,1.72,0,0,0,.54,1.22,1.83,1.83,0,0,0,1.36.36,3.51,3.51,0,0,0,1.92-.74c.59-.46.88-.81.87-1.07A.26.26,0,0,0,61.89,88.48Z"/><path class="cls-1" d="M67.84,86.74a.59.59,0,0,0-.33.29,3.08,3.08,0,0,1-1.8,1.52.86.86,0,0,1-.64-.07.68.68,0,0,1-.33-.39.19.19,0,0,1,.11-.22,4.8,4.8,0,0,0,1.94-1.6,2.25,2.25,0,0,0,.46-1.83,1.15,1.15,0,0,0-.55-.74,1.33,1.33,0,0,0-1-.12,3,3,0,0,0-1.89,1.74,4,4,0,0,0-.38,2.81,2,2,0,0,0,.86,1.32,1.88,1.88,0,0,0,1.49.18,3.29,3.29,0,0,0,1.86-1.21c.49-.62.69-1.09.6-1.43A.29.29,0,0,0,67.84,86.74ZM65,85.48c.26-.51.54-.8.84-.88a.36.36,0,0,1,.27.05.44.44,0,0,1,.16.25A1.37,1.37,0,0,1,65.84,86a3.41,3.41,0,0,1-1.27,1A3.23,3.23,0,0,1,65,85.48Z"/><path class="cls-1" d="M73.05,85.38a1.06,1.06,0,0,0-.56-.56,3.6,3.6,0,0,0-1.4-.21,3.59,3.59,0,0,1-.94-.1.5.5,0,0,1-.33-.28c-.11-.24,0-.53.25-.86a2.08,2.08,0,0,1,.83-.69.54.54,0,0,1,.24,0,.59.59,0,0,0,.22,0,.65.65,0,0,0,.26-.28.45.45,0,0,0,0-.4c-.2-.45-.57-.56-1.12-.33A3.72,3.72,0,0,0,69,83a1.88,1.88,0,0,0-.36,1.84,1.17,1.17,0,0,0,.58.6,4.13,4.13,0,0,0,1.62.25c.65,0,1,.09,1.1.25a1.35,1.35,0,0,1-.52.62,3.76,3.76,0,0,1-.9.55,1.12,1.12,0,0,1-.39.09,1.53,1.53,0,0,0-.32.05.66.66,0,0,0-.34.34.53.53,0,0,0,0,.46c.17.4.55.48,1.14.23a5.5,5.5,0,0,0,2-1.38C73.08,86.34,73.24,85.83,73.05,85.38Z"/><path class="cls-1" d="M63.54,75.47l-1.68.61v1.79l-1.1-1.42-1.7.56,1-1.48L59,74.08l1.72.5,1.05-1.45.06,1.79ZM80.92,45.54l1.81-2,2.48,1-1.33-2.34,1.75-2L83,40.76l-1.39-2.3-.3,2.67-2.62.63,2.45,1.1ZM33.32,68.59l-1.78-3.12L31,69l-3.51.73,3.23,1.56-.39,3.57,2.48-2.58,3.27,1.47-1.68-3.16L36.85,68ZM28.43,59,29.88,60l-.51-1.72,1.45-1.06-1.79,0-.56-1.7-.6,1.69H26.08l1.42,1.09L27,60Zm8.45-14.9-.7-4.73-2.33,4.17-4.72-.8,3.25,3.51-2.22,4.24,4.34-2,3.35,3.41-.56-4.74L41.57,45ZM90.26,59.32l-4.72.8L83.2,56l-.69,4.73-4.69.94,4.28,2.12-.55,4.75,3.34-3.42,4.34,2L87,62.83ZM55.12,27.72l-.41-3.56-1.85,3.07-3.52-.7,2.36,2.7-1.76,3.13,3.3-1.4,2.44,2.63L55.36,30l3.26-1.5ZM80.75,77.24,79.69,75.8l0,1.79-1.7.57,1.7.59v1.79l1.09-1.43,1.71.54-1-1.47,1-1.46ZM68.75,27l-1.07-1.45,0,1.8L66,28l1.69.58,0,1.8,1.08-1.43,1.71.54-1-1.47,1-1.47Z"/><path class="cls-1" d="M56.79,0a56.8,56.8,0,1,0,56.8,56.79A56.86,56.86,0,0,0,56.79,0Zm0,112.34a55.55,55.55,0,1,1,55.55-55.55A55.61,55.61,0,0,1,56.79,112.34Z"/><path class="cls-1" d="M74.87,8.08A2,2,0,0,0,73.49,7c-1-.23-2,.24-3,1.39a12.08,12.08,0,0,0-2.12,3.88,12.47,12.47,0,0,0-.17-4.45c-.37-1.45-1-2.3-2-2.53a2,2,0,0,0-1.71.35,2.59,2.59,0,0,0-1,1.59,4.67,4.67,0,0,0,.12,2.26l0,.09,1.19.28-.08-.26a3.77,3.77,0,0,1-.15-2,1.8,1.8,0,0,1,.55-1,.84.84,0,0,1,.8-.22c.7.16,1.17,1.18,1.41,3a17.75,17.75,0,0,1,0,3.31,21.71,21.71,0,0,1-.51,3.57l-.16.7,1.12.27.16-.67A22.22,22.22,0,0,1,69.19,13a16.74,16.74,0,0,1,1.58-3.06c1-1.44,1.82-2.09,2.49-1.93a.87.87,0,0,1,.63.56,1.91,1.91,0,0,1,0,1.17,4.07,4.07,0,0,1-1,1.79l-.17.2,1.19.28.06-.07a4.66,4.66,0,0,0,1.11-2A2.58,2.58,0,0,0,74.87,8.08Z"/><path class="cls-1" d="M96.81,23.58a2.63,2.63,0,0,0-2.65-.53l-.91.18a3,3,0,0,1-1.41,0,2.24,2.24,0,0,1-1-.73,2.36,2.36,0,0,1-.6-1.13,3,3,0,0,1,.2-1.39l.3-.88a2.66,2.66,0,0,0-.19-2.7L90.14,16l-.71.62.21.23a1.63,1.63,0,0,1,.06,1.64l-.24.66a5.17,5.17,0,0,0-.33,1.35,2.67,2.67,0,0,0,.1.82,4,4,0,0,0-1.82-.12,3.63,3.63,0,0,0-3,3.45,3.65,3.65,0,0,0,.91,2.74,3.7,3.7,0,0,0,2.6,1.26h.3A3.61,3.61,0,0,0,91.68,26a4.06,4.06,0,0,0,.11-1.81,2.79,2.79,0,0,0,.81.19A4.76,4.76,0,0,0,94,24.27l.68-.14q1.16-.25,1.62.27l.2.23.71-.62Zm-7,3.3a2.62,2.62,0,0,1-3.68-.28,2.55,2.55,0,0,1-.66-1.9A2.57,2.57,0,0,1,88,22.27h.21a2.48,2.48,0,0,1,1.8.9,2.58,2.58,0,0,1,.66,1.9A2.52,2.52,0,0,1,89.82,26.88Z"/><path class="cls-1" d="M107.93,48.42A17.42,17.42,0,0,1,106.4,44a17.26,17.26,0,0,1-.51-4.61v-.21l-1,.23v.12a11.37,11.37,0,0,0,0,2.11L98.1,43.22a16.53,16.53,0,0,0-.87-1.92l-.06-.11-1,.23.1.18A18.42,18.42,0,0,1,97.84,46a18.84,18.84,0,0,1,.48,4.63v.2l1-.22v-.12a18.16,18.16,0,0,0,0-2.12l6.84-1.56a11.48,11.48,0,0,0,.86,1.94l.06.1,1-.23ZM99.09,47.2a13.19,13.19,0,0,0-.26-1.45c-.12-.51-.25-1-.39-1.41l6.68-1.52c.07.4.16.88.29,1.44s.25,1,.36,1.42Z"/><path class="cls-1" d="M106.47,67.57A2.87,2.87,0,0,0,104.86,65a2.2,2.2,0,0,0-1.76,0,2.33,2.33,0,0,0-1.25,3,2.27,2.27,0,0,0,1.25,1.26,2.37,2.37,0,0,0,1.3.16,2.5,2.5,0,0,0,.94-.41,7.34,7.34,0,0,1-.6,2.22,12.21,12.21,0,0,1-3,4.23l-.18.17,1.17.48.07-.06a11.52,11.52,0,0,0,2.92-4A9.17,9.17,0,0,0,106.47,67.57Zm-1.17,0a1.39,1.39,0,0,1-.77.79,1.38,1.38,0,0,1-1.09,0,1.44,1.44,0,0,1-.78-1.88,1.44,1.44,0,0,1,1.89-.76,1.35,1.35,0,0,1,.76.76A1.31,1.31,0,0,1,105.3,67.61Z"/><path class="cls-1" d="M101.86,71.47a2.21,2.21,0,0,0-1.24-1.25,2.28,2.28,0,0,0-1.3-.16,2.5,2.5,0,0,0-.94.41,7.88,7.88,0,0,1,.6-2.22A12.34,12.34,0,0,1,102,64l.18-.16L101,63.36l-.07.07a11.61,11.61,0,0,0-2.92,4,9.17,9.17,0,0,0-.8,4.43,2.89,2.89,0,0,0,1.61,2.62,2.43,2.43,0,0,0,.74.18,2.3,2.3,0,0,0,1-.18,2.31,2.31,0,0,0,1.24-3Zm-.81,1.44a1.33,1.33,0,0,1-.77.77,1.38,1.38,0,0,1-1.11,0,1.35,1.35,0,0,1-.76-.76,1.34,1.34,0,0,1,0-1.09,1.37,1.37,0,0,1,.77-.78,1.31,1.31,0,0,1,1.09,0,1.39,1.39,0,0,1,.78.78A1.36,1.36,0,0,1,101.05,72.91Z"/><path class="cls-1" d="M92.71,90.84a4.54,4.54,0,0,0-1.7-.92,1.75,1.75,0,0,0,.32-.27,2.24,2.24,0,0,0,.6-1.68,2.32,2.32,0,0,0-.75-1.64,2.34,2.34,0,0,0-1.72-.64,2.36,2.36,0,0,0-2.28,2.45,2.21,2.21,0,0,0,.71,1.64,4.78,4.78,0,0,0,1.68.78l.49.15a4.75,4.75,0,0,1,1.82.94A1.87,1.87,0,0,1,92.54,93a2.26,2.26,0,0,1-2.09,2.16,2.23,2.23,0,0,1-1.58-.68,5.19,5.19,0,0,1-1.14-1.9l-.49-1.2a9.09,9.09,0,0,0-1.73-3.09,1.85,1.85,0,0,0-1.42-.53,2,2,0,0,0-1.39.66A3,3,0,0,0,82,90.55v.15h1v-.15a2.07,2.07,0,0,1,.39-1.37.8.8,0,0,1,.63-.28.93.93,0,0,1,.69.29,9.93,9.93,0,0,1,1.4,2.72l.36.87a14.9,14.9,0,0,0,.76,1.64,4.66,4.66,0,0,0,.8.94,3.12,3.12,0,0,0,2.32.92l.15,0a3.31,3.31,0,0,0,2.11-1.14,3.18,3.18,0,0,0,.93-2.21A2.72,2.72,0,0,0,92.71,90.84ZM90.63,89a1.33,1.33,0,0,1-1,.45,1.47,1.47,0,0,1-1.49-1.38,1.38,1.38,0,0,1,1.22-1.45h.12A1.47,1.47,0,0,1,91,88,1.31,1.31,0,0,1,90.63,89Z"/><path class="cls-1" d="M74.43,105.83a4,4,0,0,1-1.33-1.91l-2-6-1.1.37,1.7,5.17a6.84,6.84,0,0,1-.37,2.5,5.44,5.44,0,0,1-.83-1.73l-1.81-5.51-1.11.36,1.64,5a6.26,6.26,0,0,1-.31,2.7,4.2,4.2,0,0,1-.74-1.46l-1.61-4.9a6.37,6.37,0,0,0-.38-.94,5.47,5.47,0,0,1,1.38-1l.11-.07-.32-1-.17.08a6.19,6.19,0,0,0-1.57,1.12,4.16,4.16,0,0,0-.91-.85l-.06,0-1.33.43.28.18a3.73,3.73,0,0,1,1.26,1.19,6.85,6.85,0,0,0-.89,2.4,5.24,5.24,0,0,0,.21,2.42A5.48,5.48,0,0,0,66,106.88l.09.08.72-.57,0,0a5.89,5.89,0,0,0,.17-.89l.25.76a3.7,3.7,0,0,0,1.37,1.87l.08.06.86-.48,0,0a6,6,0,0,0,.41-1.52,3.68,3.68,0,0,0,1.08,1.19l.08,0,.86-.48,0,0a5.79,5.79,0,0,0,.39-1.48,3.57,3.57,0,0,0,.94,1l.06.05,1.2-.39Zm-8.31-.46a4.46,4.46,0,0,1-.84-1.48,4.64,4.64,0,0,1-.21-1.8,4.8,4.8,0,0,1,.37-1.48l.92,2.79A6.76,6.76,0,0,1,66.12,105.37Z"/><path class="cls-1" d="M43.58,102.72l.06.07a1.65,1.65,0,0,1,.31,1.66,1.58,1.58,0,0,1-.86,1,1.69,1.69,0,0,1-2.28-.79,1.58,1.58,0,0,1-.1-1.29,1.68,1.68,0,0,1,1.29-1.1l.08,0,.34-1-3.7-1.28-.38,1.1,2.2.76a2.28,2.28,0,0,0-.93,1.18,2.65,2.65,0,0,0,.15,2.15,2.83,2.83,0,0,0,1.64,1.45,3,3,0,0,0,.82.16,2.87,2.87,0,0,0,1.36-.28A2.7,2.7,0,0,0,45,104.87a2.3,2.3,0,0,0,0-1.51l2.21.77.38-1.1-3.7-1.29Z"/><rect class="cls-1" x="43.23" y="94.93" width="1.16" height="9.42" transform="translate(-64.68 108.27) rotate(-70.81)"/><path class="cls-1" d="M27.16,89.12,23.24,92.9a6.25,6.25,0,0,1-2.43.77A5.35,5.35,0,0,1,22,92.19l4.22-4.06-.81-.84-3.78,3.65a6.16,6.16,0,0,1-2.57.9,4,4,0,0,1,1-1.27L23.67,87a3,3,0,0,0,1-1.76A2.11,2.11,0,0,0,24,83.59l-.43-.45.73-.7L22,82.24l.08,2.33.75-.73.25.27a1.43,1.43,0,0,1,.52,1,.85.85,0,0,1-.16.46,8,8,0,0,1-.75.8l-3.79,3.66a3.71,3.71,0,0,0-1.15,2.09l0,.1.83.58h.05a6.41,6.41,0,0,0,1.52-.29,3.43,3.43,0,0,0-.59,1.5v.09l.8.55h.05a5.23,5.23,0,0,0,1.5-.29,4.45,4.45,0,0,0-.51,1.29l0,.08.91.94.05-.31a3.65,3.65,0,0,1,1.2-2.11L28,90Z"/><polygon class="cls-1" points="12.96 69.26 14.25 67.07 13.26 66.48 11.97 68.67 7.71 66.17 10.4 65.06 9.94 63.99 5.8 65.71 6.32 70.16 7.47 70.05 7.14 67.16 11.39 69.66 10.1 71.85 11.1 72.43 12.39 70.24 15.59 72.13 16.17 71.15 12.96 69.26"/><path class="cls-1" d="M15.85,43.28A2.21,2.21,0,0,0,16,41.52a2.31,2.31,0,0,0-1.17-1.34,2.12,2.12,0,0,0-1.69-.13,2.18,2.18,0,0,0-1.3,1.12A2.55,2.55,0,0,0,12,43.73a8.31,8.31,0,0,1-1-.32l-.74-.26-1-.33a11.63,11.63,0,0,0-2.85-.68H6.3L5.93,43.4l0,.05a7.6,7.6,0,0,0,1.88,2.6,9.65,9.65,0,0,0-2.18-.41,1.41,1.41,0,0,0-1.33.86L4,47.2l.91.47L5,47.39a1,1,0,0,1,1-.59,8.76,8.76,0,0,1,2,.42A12.17,12.17,0,0,1,10.1,48l.41.2.52-1-.55-.28a7.91,7.91,0,0,1-2-1.63A8,8,0,0,1,7.09,43.4,10.26,10.26,0,0,1,9,43.93l1.54.55A12.47,12.47,0,0,0,12,45a3.78,3.78,0,0,0,.88,0,7.61,7.61,0,0,1,1.5,1.88A1.89,1.89,0,0,1,14,48.29l-.23.46.9.46.42-.82a2.44,2.44,0,0,0,.34-1.78,6,6,0,0,0-1.29-1.88A3,3,0,0,0,15.85,43.28ZM15,42.9A2.35,2.35,0,0,1,13.41,44c-.83-.93-1.09-1.73-.75-2.38a1.15,1.15,0,0,1,.72-.61A1.1,1.1,0,0,1,14,41a1.06,1.06,0,0,1,.34.12,1.36,1.36,0,0,1,.72.79A1.22,1.22,0,0,1,15,42.9Z"/><polygon class="cls-1" points="21.29 22.03 22.9 22.74 23.57 19.85 25.16 20.55 25.56 19.59 22.86 18.43 22.2 21.3 20.58 20.6 19.92 23.48 18.29 22.78 17.37 26.83 18.36 27.05 19.02 24.2 20.64 24.9 21.29 22.03"/><polygon class="cls-1" points="25.87 21.6 25.21 24.47 23.6 23.77 22.94 26.65 21.31 25.95 20.39 30 21.37 30.22 22.03 27.37 23.66 28.07 24.31 25.2 25.93 25.9 26.59 23.02 28.18 23.71 28.57 22.76 25.87 21.6"/><path class="cls-1" d="M48.25,14.75a6,6,0,0,1-2.81-3.43l1.74-.47-.25-.91-1.73.46a6.43,6.43,0,0,1,.79-4l.17-.31-1.26.33,0,.06a6.93,6.93,0,0,0-.78,4.25l-1.42.38a6.85,6.85,0,0,0-2.8-3.28l-.06,0-1.25.34.29.19a6.32,6.32,0,0,1,2.71,3.09l-1.73.47.25.91,1.74-.47a6.09,6.09,0,0,1-.71,4.38l-.17.32,1.3-.35,0-.06A7.78,7.78,0,0,0,43,14.16,6,6,0,0,0,42.93,12l1.4-.37a5.84,5.84,0,0,0,1,1.91,7.75,7.75,0,0,0,1.84,1.73l.06,0,1.31-.35Z"/><path class="cls-1" d="M55.72,18.34A38.79,38.79,0,1,0,94.5,57.13,38.83,38.83,0,0,0,55.72,18.34Zm0,76.32A37.54,37.54,0,1,1,93.25,57.13,37.58,37.58,0,0,1,55.72,94.66Z"/></g></g></svg>