<svg xmlns="http://www.w3.org/2000/svg" viewBox="0 0 70.68 71.72"><title>Asset 497</title><g id="Layer_2" data-name="Layer 2"><g id="Layer_1-2" data-name="Layer 1"><path d="M69.18,27.37a25.09,25.09,0,0,0-1.9-4.93c-.47-1-1.21-2-1.65-3a21,21,0,0,0-3.8-6.34c-1.15-1.26-2.1-2.71-3.26-4A12.38,12.38,0,0,0,56,6.93a50.54,50.54,0,0,0-5.26-2.87A35.44,35.44,0,0,0,45,1.82c-2.71-.73-5.5-1.17-8.26-1.7A7.17,7.17,0,0,0,34.88,0c-1.71.13-3.43.23-5.13.49-3.11.48-6.23,1-8.94,2.76-1.19.79-2.49,1.41-3.69,2.18S14.81,7,13.71,7.82a21.4,21.4,0,0,0-4,3.37,48.94,48.94,0,0,0-5.31,8,21.68,21.68,0,0,0-2.75,7.91,4.28,4.28,0,0,1-.37,1.64C.06,31,0,33.51,0,36a24.06,24.06,0,0,0,1.58,8.94c1,2.58,2,5.14,3,7.74A17.67,17.67,0,0,0,9,59.52c.59.56,1.15,1.15,1.72,1.73a29.33,29.33,0,0,0,7.61,5.92A43.45,43.45,0,0,0,24.89,70a37.18,37.18,0,0,0,11.62,1.69,25.41,25.41,0,0,0,8.14-1.16c2.41-.73,4.8-1.56,7.13-2.52a15.58,15.58,0,0,0,2.79-1.92c.39-.27.77-.54,1.18-.79a16,16,0,0,0,4.73-4.49c.47-.66.93-1.32,1.37-2,1.26-2,3.22-3.59,3.26-6.21,0-.13.12-.26.18-.39q1.51-3.31,3-6.63c.2-.43.43-.84.6-1.28a28.39,28.39,0,0,0,1.72-8.88C70.83,32.63,69.72,30,69.18,27.37Zm-4.73-8.61-2.07.16c-.07-1.35-.12-2.52-.19-3.87C63.48,16,63.85,17.36,64.45,18.76Zm-2.87.12L60.05,19c-.24-2.47-.76-5.64-1-8.09C61.25,12.77,62,15.41,61.58,18.88ZM58.22,10.8a27.19,27.19,0,0,1,1,7.92c0,.22-.61.44-.8.33A47.32,47.32,0,0,1,58.22,10.8Zm-44.72-2a55.1,55.1,0,0,1,4.66-3.28,37.81,37.81,0,0,1,6.43-3.06A46.36,46.36,0,0,1,31.17,1.2c.42-.08.86-.06,1.29-.12a18.69,18.69,0,0,1,5.83.11c4.89.91,9.69,2.08,14,4.71,1.26.77,2.58,1.44,3.83,2.22a18.1,18.1,0,0,1,1.75,1.42l-.14.26c-5-.07-10.07-.17-15.1-.23s-10.11-.15-15.17-.05-10,.34-15.06.56l-.07-.3C12.72,9.45,13.09,9.1,13.5,8.81ZM57.58,19H55.86V10.76h1.53C57.33,13.54,57.71,16.26,57.58,19Zm-2.51-8.41V19l-1.31.07c-.1-2.86-.2-5.63-.3-8.6Zm-3.89,4.14c-.06-1.41,0-2.82,0-4.35l1.69.18v8.34l-1.53.22A20.91,20.91,0,0,1,51.18,14.75Zm-.75-4.32V19l-1,.17c-.57-.37-.84-6.11-.5-8.69Zm-2.3-.09V19c-1.17.05-1.2.05-1.24-.86-.08-1.81-.12-3.62-.16-5.43,0-.67,0-1.33,0-2.17ZM46.2,19l-1.79.12V10.77c.2-.2.26-.31.34-.32.32,0,.65,0,1.1-.07A71.88,71.88,0,0,1,46.2,19Zm-2.57-8.5v8.41l-1.83.24V10.52ZM41,19.1H39.91c-.18-2.84-.36-5.67-.55-8.6H41A64.94,64.94,0,0,1,41,19.1ZM39,19.38H37.42c-.11-3-.21-5.88-.31-8.91l1.63-.14C38.88,13.41,39.3,16.37,39,19.38Zm-2.19,0H34.41v-9l2.06-.11C36.57,13.31,36.67,16.27,36.77,19.36ZM33.59,10.3v9c-.68.14-1,0-1.11-.54-.08-.71-.2-1.41-.21-2.12,0-2,0-4.07,0-6.22Zm-2,.08v8.79L30,19V10.46Zm-2.32,0v8.43H27.57V10.39Zm-5.37.09h2.95c-.06,2.8.34,5.53-.06,8.29H24.07C23.66,16,24,13.35,23.89,10.48Zm-.67.09v8.2l-1.64.08V10.57Zm-2.39,0v8.25l-1.69.19V10.62Zm-2.48.07v8.23l-1.71-.11c-.24-2.73-.46-5.27-.7-8Zm-2.41,8.12-2.08-.17c0-2.7-.75-5.16-.35-7.73h1.85Zm-4.86-7.93,1.58.13c.2,2.51.39,5,.59,7.55H11.39A46.82,46.82,0,0,1,11.08,10.88Zm-.93.77c.17,2.39.33,4.53.5,6.87l-2.56.13C8.57,16.25,7.76,13.7,10.15,11.65ZM7.37,15.57l.29.08c-.1.93-.19,1.86-.29,2.87H5.84C6.05,17.33,6.93,16.57,7.37,15.57Zm-4.31,9.1c.52-1.48,1.18-2.92,1.75-4.39A1.09,1.09,0,0,1,6,19.45l10.73.22a39,39,0,0,0,5.29,0,44.75,44.75,0,0,1,8.43.2,86,86,0,0,0,12.43,0c2.09-.14,4.19,0,6.29,0,2.28,0,4.56,0,6.84.06a65.62,65.62,0,0,0,8.65-.41,25.11,25.11,0,0,1,3.84,7.8,18.39,18.39,0,0,1-2,.25c-2.72.06-5.43.1-8.15.11-3.1,0-6.2,0-9.3,0-6.29,0-12.58.07-18.87.09-1.14,0-2.28-.16-3.43-.17-4-.07-8-.09-12-.16-3.15-.06-6.3-.18-9.45-.27-.86,0-1.71,0-2.63,0A4.44,4.44,0,0,1,3.06,24.67Zm64.66,9.27c0,.89-.06.89-1.27.72-.09-2.07-.18-4-.27-6.13l1.26-.18a1.5,1.5,0,0,1,.19.45C67.67,30.51,67.72,32.23,67.72,33.94Zm-2,.85H63.78V28.41h1.57A27.29,27.29,0,0,1,65.67,34.79Zm-2.5-.31c-.9.42-.9.42-1.83,0-.09-2-.18-4-.29-6.19l1.86.1C63,30.49,63.09,32.5,63.17,34.48Zm-2.64.19-1.83.17V28.48h1.68C60.53,30.5,60.55,32.52,60.53,34.67Zm-4.28-6.21,1.63.17v6.06L56.63,35C56.09,32.82,56.32,30.72,56.25,28.46Zm-.62,6.4H54.2a39.11,39.11,0,0,1-.2-6.14h1.41A32.5,32.5,0,0,1,55.63,34.86Zm-2.36-6.2v6.26a3.14,3.14,0,0,1-.63.06,6.61,6.61,0,0,1-.84-.15c-.12-2-.24-4-.36-6.17Zm-2.14,6.22-1.75.21c-.11-2.24-.23-4.39-.34-6.69l1.71.15C50.88,30.69,51,32.74,51.13,34.88Zm-2.58.33H47.17a45.18,45.18,0,0,1-.46-6.74h1.68C48.59,30.69,48.56,32.86,48.55,35.21Zm-2.24.15-1.44-.1c-.1-2.28-.21-4.49-.32-6.78h1.39C46.24,30.75,46.19,33,46.31,35.36Zm-4.1-6.86h1.62c.11,2.28.22,4.49.34,6.92l-1.64-.13C42,33.05,42.27,30.83,42.21,28.5Zm-.65,0v6.89l-1.31-.1c-.13-2.27-.25-4.48-.38-6.79Zm-2,6.76H38V28.57l1.28-.24C39.36,30.67,39.44,32.89,39.52,35.24Zm-2.24-6.71v6.62l-1,.08c-.2-2.24,0-4.44,0-6.7Zm-1.79,2.62c0,1-.11,2.08-.12,3.12,0,.73-.34.91-1.13.73V28.6l1.17-.06C35.44,29.48,35.5,30.31,35.49,31.15Zm-2,3.82H32V28.73l1.26-.25C33.87,30.68,33.58,32.79,33.53,35Zm-2.31-.07-1,.07V28.66h1A30.26,30.26,0,0,1,31.22,34.9Zm-1.8-6.33v6.22H27.61V28.35Zm-2.74,6h-1.6c-.09-2.06-.17-4.08-.27-6.25h1.72C27.05,29.58,27.11,32,26.68,34.6Zm-2.47,0H22.78c-.13-2.11-.26-4.18-.4-6.32.34-.05.56-.1.78-.12s.47,0,.88,0A28.15,28.15,0,0,1,24.21,34.61Zm-2.51,0-1.51-.08c-.09-2-.17-4-.27-6.11l1.61-.07A15.54,15.54,0,0,1,21.7,34.58Zm-4-4.94c-.14-1.52-.12-1.55,1.5-1.19.08,2,.16,3.88.24,5.89l-1.56.21c-.06-1.46-.13-2.83-.18-4.2C17.71,30.11,17.74,29.87,17.72,29.64ZM17,28.28V34.5H15.32V28.38Zm-2.4,5.32a7.65,7.65,0,0,1-.21,1.1H13.25c-.18-2.1-.36-4.2-.57-6.5l1.9.15C14.58,30.19,14.58,31.9,14.57,33.6Zm-2.19,1.13L11,34.88c-.22-2.26-.44-4.42-.66-6.7H12A35.5,35.5,0,0,1,12.38,34.73Zm-2.27,0-1.63.22c-.08-1.2-.14-2.31-.25-3.41S8,29.3,7.85,28.09H9.73C9.86,30.37,10,32.49,10.11,34.71Zm-2.37.08-1.59.09A37.24,37.24,0,0,1,5.76,28h1.5C7.42,30.22,7.57,32.43,7.74,34.79ZM5.23,34.7c-1.2.3-1.4.26-1.45-.48-.12-1.75-.19-3.51-.24-5.26a3.85,3.85,0,0,1,.24-1l1.14,0A32.29,32.29,0,0,1,5.23,34.7ZM1.44,30.45c.45-.79.21-2,1.46-2.62.33,2.42-.18,4.67.3,7H1A6.91,6.91,0,0,1,1.44,30.45ZM5.14,52a55.19,55.19,0,0,1-2.77-7.32H4.78c1,2.41.69,5.05,1.47,7.48C5.72,52.52,5.37,52.63,5.14,52Zm.51-7.3H7.33q.36,3.9.71,7.75l-.43.21c-.21-.2-.58-.36-.63-.58C6.52,49.71,6.1,47.28,5.65,44.74ZM13,62.06h3.08c.1.89.2,1.73.33,2.87A12.56,12.56,0,0,1,13,62.06Zm5.92,3.56-1.64.1c-.18-1.19-.34-2.25-.53-3.46h2.17Zm.63-3.33,1.85-.09c.07,1.22.13,2.32.19,3.48H19.81C19.72,64.54,19.64,63.48,19.55,62.29Zm18.33,8.5a37.4,37.4,0,0,1-18.07-3.72l.08-.52,31.83.29,0,.31A36.36,36.36,0,0,1,37.88,70.79ZM22.05,62.27h1.74c.11,1.23.21,2.34.33,3.58l-1.72-.11Zm2.32,0L26,62.15c.12,1.31.21,2.43.31,3.65H24.93C24.74,64.65,24.57,63.54,24.37,62.31Zm2.48.11c1.25-.33,1.43-.26,1.54.69s.1,1.67.14,2.59c-1.38.13-1.41.13-1.51-.8S26.9,63.23,26.85,62.42Zm2.08-.29h1.72v3.7H29.32ZM31.29,62h1.39v3.7c-1.1.16-1.14.17-1.22-.69S31.35,63.14,31.29,62Zm2.21,3.81V62L35,61.89c.06,1.33.12,2.58.19,3.94Zm2-3.91,2-.18V66l-1.67-.07C35.78,64.57,35.67,63.31,35.54,61.92Zm2.67-.2h2.43c-.06,1.37-.12,2.72-.19,4.25l-2,.09C38.4,64.62,38.31,63.27,38.21,61.72Zm3,4.21V61.7h1.89a12.27,12.27,0,0,1-.06,4.23ZM44,66v-4.3h1.82V66Zm2.63,0V61.66l1.23-.09a13.29,13.29,0,0,1,0,4.36Zm2.08,0V61.65h1.43V65.9Zm3.69-.08L50.9,66v-4.3h1.59C52.55,63.09,53,64.42,52.4,65.9Zm1,0V61.68H54.9c.05,1,.09,2,.13,3Zm2.42-1.47c-.08-1.1-.13-1.87-.19-2.81h3.06C58,62.86,57,63.46,55.84,64.47Zm7.24-8.71c-1,1.41-2,2.79-3,4.17a1.9,1.9,0,0,1-1.67.88c-3.39,0-6.78,0-10.17,0-3.82.07-7.63.22-11.45.34-3.1.1-6.2.28-9.3.3-4.67,0-9.35-.05-14,0a3.25,3.25,0,0,1-2.63-1.15c-1-1.11-2.05-2.13-2.94-3.3s-1.43-2.31-2.18-3.54c3-.13,5.83-.32,8.63-.35,4.19,0,8.38,0,12.57,0,1.86,0,3.73,0,5.58-.14a122.05,122.05,0,0,1,15.3.21c4.7.2,9.4.3,14.1.43.66,0,1.32,0,2.36,0C63.75,54.54,63.47,55.19,63.08,55.76Zm-55-11.19c.51,0,.93,0,1.35,0,.57,0,.84.31.85.91.06,2,.17,4,.23,6a7.27,7.27,0,0,1-.17,1.15H8.87C8.6,50,7.94,47.36,8.08,44.57Zm3-.08,1.82.08c.1,2.63.21,5.16.31,7.8h-2C11.32,49.8,10.6,47.21,11.1,44.49Zm2.91,0c.67.53.67.53.68,4.63,0,2.66,0,2.66-.51,3.06C13.71,51.11,13.58,45.42,14,44.54Zm2.89,0c.13,2.48.25,5,.39,7.58H15.57c0-.57-.07-1.13-.09-1.69-.07-1.52-.18-3-.21-4.56C15.25,44.54,15.36,44.47,16.9,44.54Zm.81.86c0-1,.16-1,1.48-1a66.2,66.2,0,0,1,.35,8L18,52.18C17.91,49.86,17.76,47.63,17.71,45.4Zm2.21-.17a.79.79,0,0,1,.8-1,.74.74,0,0,1,.86.74,48.62,48.62,0,0,1,.31,7.17l-1.42.14a7.06,7.06,0,0,1-.21-1C20.14,49.3,20,47.26,19.92,45.23Zm2.33-.73h1.84a38,38,0,0,1,.24,7.63l-1.55.15C22.6,49.69,22.43,47.2,22.25,44.5ZM25,52.27v-7.5c1.35-.29,1.61-.17,1.65,1.06.06,2.09,0,4.18,0,6.44Zm4.54-.05H27.36V44.81h2A51.79,51.79,0,0,1,29.55,52.22Zm.68-.1V44.81l1.85.17A32.81,32.81,0,0,1,32,52.12Zm2.6.05V45.12h1.82v7Zm2.71-.07V45.17a3.82,3.82,0,0,1,.55-.11,4.73,4.73,0,0,1,.7.07c.1,2.35.2,4.57.3,6.9Zm1.92-7h1.8c.15,2.33.3,4.58.46,7h-2C37.66,49.76,37.56,47.46,37.46,45.1Zm2.42,0H41.3v7c-.54.13-.85,0-.89-.49C40.24,49.45,40.06,47.33,39.88,45.1Zm2.17,0H43.6v7H42.28C41.52,49.82,42.22,47.49,42.05,45.1Zm2.2,0L45.81,45v7.4l-1.31-.13C44.41,49.9,44.33,47.6,44.25,45.15ZM46.41,45h1.87c.1,2.45.19,4.89.29,7.41H46.76C46.64,50,46.53,47.57,46.41,45Zm2.71,7.49V45a2.92,2.92,0,0,1,.54-.15,6.51,6.51,0,0,1,.78,0,36.4,36.4,0,0,1,.27,7.9Zm2.22-7.58c.73-.19,1.21-.17,1.21.67v7c-1,.32-1.13-.18-1.13-.77,0-1.71-.05-3.43-.08-5.14Zm3.76,8-1.74-.23V45c.17-.13.24-.22.32-.22.32,0,.65,0,1.07,0C55.4,47.46,55,50.1,55.1,53Zm.69-.13v-8l1.72-.09a71.22,71.22,0,0,1,.16,8.13Zm2.44-8.11,1.89-.25A38,38,0,0,1,60,52.82H58.48C58.4,50.11,58.32,47.47,58.23,44.74ZM60.92,53V44.54H63a56.22,56.22,0,0,1,0,8.21Zm2.92-.19V44.54l4-.28A32.92,32.92,0,0,1,63.84,52.76Zm5.44-12c-.08.27-.2.54-.26.82-.51,2.47-.55,1.94-2.5,2q-10.14.35-20.29.63c-3.7.1-7.41.22-11.12.18-2.52,0-5.05-.31-7.57-.5a115.58,115.58,0,0,0-15.12-.1c-2.95.16-5.9.11-8.85.14-.47,0-.94-.07-1.4-.11A20.48,20.48,0,0,1,.89,36.35c1.44-1.12,3.11-.63,4.63-.71,4.62-.24,9.25-.37,13.88-.35,3.81,0,7.62.32,11.43.48,2.28.09,4.56.13,6.84.22,5.3.22,10.59-.07,15.89-.23,5-.14,10-.08,15-.1a10.19,10.19,0,0,1,1,.11A10.86,10.86,0,0,1,69.28,40.75Zm-.75-5.87c-.08-2.21-.16-4.24-.24-6.26l.29-.06c.57,2,1,4,1.51,6.16Z"/></g></g></svg>