<svg xmlns="http://www.w3.org/2000/svg" viewBox="0 0 102.84 119.66"><title>Asset 549</title><g id="Layer_2" data-name="Layer 2"><g id="Layer_1-2" data-name="Layer 1"><path d="M37,115.34h2.64v3.55a5,5,0,0,1-1.39.58,6.09,6.09,0,0,1-1.55.19,4.2,4.2,0,0,1-1.64-.31,3.88,3.88,0,0,1-1.3-.86,4,4,0,0,1-.85-1.3,4.49,4.49,0,0,1-.3-1.66,4.22,4.22,0,0,1,.31-1.65,3.78,3.78,0,0,1,.86-1.31,3.88,3.88,0,0,1,1.3-.86,4.14,4.14,0,0,1,1.62-.31,4.39,4.39,0,0,1,1.65.28,3.77,3.77,0,0,1,1.2.78L39,113a2.86,2.86,0,0,0-1-.67,3.35,3.35,0,0,0-1.3-.24,3.12,3.12,0,0,0-1.36.28,2.89,2.89,0,0,0-1,.75,3.23,3.23,0,0,0-.65,1.09,3.82,3.82,0,0,0,0,2.61,3.23,3.23,0,0,0,.65,1.09,3,3,0,0,0,1,.74,3.12,3.12,0,0,0,1.36.28,5.17,5.17,0,0,0,1.22-.14,3.17,3.17,0,0,0,.9-.37v-2.39H37Zm5.48.38h3.81V115H42.46v-2.7h4.08v-.71H41.66v7.86h5v-.71H42.46Zm9.67,2.39h0l-2.66-6.51H48.24v7.86H49v-6.83h0l2.84,6.83h.42l2.85-6.83h0v6.83H56V111.6H54.77Zm5.95,1.35h.8V111.6h-.8Zm8.48-1.16h0L62,111.6H61v7.86h.8V112.7h0l4.57,6.76h1V111.6h-.8Zm2.89-6.7v7.86h.8V111.6Z"/><path d="M57.15,98.75H52.77l-1.35-4.17-1.36,4.17H45.69l3.54,2.57-1.35,4.16,3.54-2.57L55,105.48l-1.35-4.16Zm-5.73,3.13-2,1.41.74-2.29-1.94-1.42h2.4l.75-2.29.74,2.29h2.41l-2,1.42.75,2.29Z"/><path d="M56.17,77.28a4.39,4.39,0,0,0-2.66-4,3.78,3.78,0,0,0,2.22-2.83L55,70.3a3.16,3.16,0,0,1-3.18,2.56,3.2,3.2,0,0,1-3.18-2.56l-.76.12a3.79,3.79,0,0,0,2.23,2.83,4.38,4.38,0,0,0,1.33,8.39v2.8H49.18v.76h2.24V88h.76V85.2h2.24v-.76H52.18v-2.8A4.39,4.39,0,0,0,56.17,77.28ZM51.8,80.89a3.61,3.61,0,1,1,3.61-3.61A3.61,3.61,0,0,1,51.8,80.89Z"/><path d="M50.52,49.54l0-.09a16.1,16.1,0,0,0-.49-2,7.45,7.45,0,0,0,0-3.11,18.08,18.08,0,0,0-4.53-8.08,26.31,26.31,0,0,0-7.3-5.64A22.34,22.34,0,0,0,22.3,29a13.32,13.32,0,0,0-.14-2.73,8.29,8.29,0,0,0-4.67-6.68,8.78,8.78,0,0,0-3.65-.79,6.93,6.93,0,0,0-7.09,5.41c-.89,4,1.21,7.64,5.48,9.57a13,13,0,0,0,2.47.83,21.82,21.82,0,0,0-2.92,11.77c.29,5.78,1.3,12.34,6.51,17.27a92,92,0,0,0-3.2,15.15v.1l0,.09a18.93,18.93,0,0,0,5.18,6.9,15.84,15.84,0,0,0,10.35,3.61,23,23,0,0,0,5.13-.61l1.85-.43-1.87-.32a9.33,9.33,0,0,1-6.95-4.54,13.33,13.33,0,0,1-.92-9.6l.19.21c.7.93,4.92,5.63,7.71,5.1a2.49,2.49,0,0,0,1.87-2.06,8.37,8.37,0,0,1,1.08-2.43,1.91,1.91,0,0,0,.48.06,1.82,1.82,0,0,0,1-.27,1.36,1.36,0,0,0,.6-.7,1.08,1.08,0,0,0,0-.64,1.44,1.44,0,0,0,1.08-1.19,1.2,1.2,0,0,0-.21-.88l0-.06.34-.44a3.61,3.61,0,0,1,1.68-1.46,2.42,2.42,0,0,1,.56-.09c.52,0,1.05-.1,1.27-.49a.73.73,0,0,0,0-.72c-.93-1.94-1.66-4-.59-6.06a21.7,21.7,0,0,1,2.16-3.15,21.51,21.51,0,0,0,2.22-3.21A9.54,9.54,0,0,0,50.52,49.54ZM22.11,30.8v0s.07-.37.13-.91a21.49,21.49,0,0,1,15.54,1.48c4.67,2.35,10.26,7.77,11.42,13.2A5.92,5.92,0,0,1,46.67,51c-.62-5.18-4.2-11-9.28-15.07C32.63,32.15,27.2,30.41,22,31A1.8,1.8,0,0,0,22.11,30.8Zm14.81,5.74c5.06,4,8.58,9.89,9,15l-.59.35a27.84,27.84,0,0,1-5.64,2.27c-2-7.35-8.57-17.15-18.37-22,.09-.11.17-.23.25-.35C26.72,31.08,32.15,32.75,36.92,36.54ZM20.59,33.07l.27-.28C30.55,37.46,37,47.13,39,54.36c-1.67.49-3.43.93-5.16,1.37l-1,.27C25.28,49.74,22.22,40,20.59,33.07Zm11.3,23.16a58.81,58.81,0,0,0-7,2.17c-6.42-4.78-8.92-16.81-6.56-23.78a6.19,6.19,0,0,0,1.64-1C21.59,40.51,24.64,49.94,31.89,56.23Zm-18-36.63a7.93,7.93,0,0,1,3.33.73c5.45,2.52,4.31,9.67,4.21,10.24C21,26,19,23.41,17.3,22a9.54,9.54,0,0,0-5.65-2.09A7.49,7.49,0,0,1,13.84,19.6Zm-4,1.26a8.6,8.6,0,0,1,7,1.77c1.73,1.39,3.79,4.12,3.84,9.22a7.56,7.56,0,0,1-.72.78,12.18,12.18,0,0,0-4.54-7.27A9.89,9.89,0,0,0,7.74,23.6,5.67,5.67,0,0,1,9.8,20.86ZM7.5,24.42h0A9.09,9.09,0,0,1,15,26a11.37,11.37,0,0,1,4.31,7.24,5,5,0,0,1-1.32.73c-2-4-8.51-6.58-10.48-6.49A6.91,6.91,0,0,1,7.5,24.42Zm5.05,8.71A8.88,8.88,0,0,1,7.67,28.2c1.65,0,7.56,2.3,9.48,5.88a4.89,4.89,0,0,1-.54,0h0A10.49,10.49,0,0,1,12.55,33.13Zm0,13.25a20.91,20.91,0,0,1,3-11.59,7.88,7.88,0,0,0,1.09.08h0a5.69,5.69,0,0,0,.83-.06,24.78,24.78,0,0,0,.1,12.71c1.22,4.82,3.58,8.86,6.51,11.22-2.45,1.08-4.4,2.42-5.38,4.26C15.86,60.31,13,56.13,12.54,46.38ZM40.38,72.59a.75.75,0,0,1-.21,0l-1.48-.28,1.17.95c.18.16.25.31.2.46a.91.91,0,0,1-.84.46,1,1,0,0,1-.65-.23,4.75,4.75,0,0,1-1.29-2.77,5.6,5.6,0,0,0,1.76.2h.33a5,5,0,0,1,1.32.11c.31.09.47.28.43.55A.71.71,0,0,1,40.38,72.59ZM48.66,55.2a21.35,21.35,0,0,1-2.14,3.1,22.49,22.49,0,0,0-2.24,3.27c-1.22,2.35-.39,4.72.59,6.74v0a4,4,0,0,1-.65.1,3.16,3.16,0,0,0-.75.13,4.34,4.34,0,0,0-2,1.72c-.11.13-.21.28-.33.42l-.07.09-.16-.05a5.49,5.49,0,0,0-1.52-.15H39a3.4,3.4,0,0,1-2-.4l-.7-.52.09.87v0c.08.85.41,2.93,1.63,3.93a9.34,9.34,0,0,0-1.14,2.59c-.24.9-.66,1.39-1.27,1.51-2.06.39-5.87-3.34-7-4.82l0,0s-.25-.28-.61-.73l-.41-.52-.24.62A13.87,13.87,0,0,0,28.15,84a9.63,9.63,0,0,0,5.73,4.5c-5.13.8-9.53-.26-13.09-3.18a18,18,0,0,1-4.93-6.53,86,86,0,0,1,3.06-14.54h0l.21-.5c1.67-4,8.39-5.66,14.89-7.31,6.69-1.69,13.56-3.43,15.55-7.69.08.35.14.65.17.81l0,.1A8.77,8.77,0,0,1,48.66,55.2Zm-5.41,4.34-.71.29A3.53,3.53,0,0,0,37.75,58l-.26-.71A4.32,4.32,0,0,1,43.25,59.54Zm-.42,8.59-.36.29a.67.67,0,0,0-.85-.22l-.21-.41A1.13,1.13,0,0,1,42.83,68.13Zm-1.07-6a3,3,0,0,1-1.18.23A4,4,0,0,1,37,59.76l.68-.35c1.48,2.94,3.68,2,3.77,2Zm-12,25.64a.35.35,0,1,1,.34.35A.35.35,0,0,1,29.78,87.74Zm-2.31-.54a.59.59,0,1,1,1.17,0,.59.59,0,0,1-1.17,0Zm-.68-.71a.75.75,0,0,1-1.5,0,.75.75,0,0,1,1.5,0ZM25,85.59a.86.86,0,1,1-.85-.85A.85.85,0,0,1,25,85.59ZM23.2,84.47a.91.91,0,1,1-.91-.91A.9.9,0,0,1,23.2,84.47Zm-1.64-1.38a.91.91,0,1,1-.91-.9A.9.9,0,0,1,21.56,83.09Zm-2.29-.76a.86.86,0,1,1,.86-.86A.86.86,0,0,1,19.27,82.33Zm-1.07-2a.76.76,0,1,1,.76-.76A.76.76,0,0,1,18.2,80.38Zm-.72-2.17a.59.59,0,0,1-.59-.6.58.58,0,0,1,.59-.59.59.59,0,0,1,.6.59A.6.6,0,0,1,17.48,78.21Zm-.37-2.34a.36.36,0,1,1,.37-.36A.36.36,0,0,1,17.11,75.87Z"/><path d="M96.08,24.25A6.92,6.92,0,0,0,89,18.84a8.77,8.77,0,0,0-3.64.79,8.28,8.28,0,0,0-4.68,6.68A14.91,14.91,0,0,0,80.53,29a22.32,22.32,0,0,0-15.82,1.61,26.35,26.35,0,0,0-7.31,5.64,18,18,0,0,0-4.52,8.08,7.46,7.46,0,0,0-.06,3.11,15.66,15.66,0,0,0-.48,2l0,.09a9.48,9.48,0,0,0,1.18,6,22.23,22.23,0,0,0,2.21,3.21,21.76,21.76,0,0,1,2.17,3.15c1.06,2,.34,4.12-.6,6.06a.76.76,0,0,0,0,.72c.22.39.76.44,1.27.49a2.33,2.33,0,0,1,.56.09,3.64,3.64,0,0,1,1.69,1.46l.34.44.05.06a1.16,1.16,0,0,0-.21.88A1.44,1.44,0,0,0,62,73.31a.94.94,0,0,0,0,.64,1.34,1.34,0,0,0,.59.7,1.88,1.88,0,0,0,1,.27,1.84,1.84,0,0,0,.47-.06,8.68,8.68,0,0,1,1.09,2.43A2.49,2.49,0,0,0,67,79.35c2.79.53,7-4.17,7.72-5.1l.18-.21a13.28,13.28,0,0,1-.92,9.6,9.31,9.31,0,0,1-6.94,4.54l-1.88.32,1.86.43a23,23,0,0,0,5.12.61,15.82,15.82,0,0,0,10.35-3.61A18.82,18.82,0,0,0,87.71,79l0-.09v-.1a92,92,0,0,0-3.2-15.15c5.2-4.93,6.21-11.49,6.5-17.27a21.81,21.81,0,0,0-2.91-11.77,12.61,12.61,0,0,0,2.46-.83C94.87,31.89,97,28.22,96.08,24.25Zm-.74.17a7.06,7.06,0,0,1,0,3c-2-.09-8.51,2.45-10.49,6.49a5.1,5.1,0,0,1-1.31-.73A11.3,11.3,0,0,1,87.88,26a9.11,9.11,0,0,1,7.46-1.56ZM82.9,33.65a6.15,6.15,0,0,0,1.63,1c2.37,7-.14,19-6.56,23.78a59.21,59.21,0,0,0-7-2.17C78.2,49.94,81.24,40.51,82.9,33.65ZM70,56,69,55.73c-1.73-.44-3.48-.88-5.16-1.37,2-7.23,8.46-16.9,18.15-21.57l.27.28C80.61,40,77.56,49.74,70,56ZM93,20.86A5.67,5.67,0,0,1,95.1,23.6a9.87,9.87,0,0,0-7.67,1.76,12.26,12.26,0,0,0-4.55,7.27,7.46,7.46,0,0,1-.71-.78c0-5.1,2.11-7.83,3.84-9.22A8.6,8.6,0,0,1,93,20.86Zm-7.37-.53A7.91,7.91,0,0,1,89,19.6a7.44,7.44,0,0,1,2.19.34A9.58,9.58,0,0,0,85.53,22c-1.71,1.38-3.72,3.95-4.07,8.54C81.36,30,80.21,22.85,85.67,20.33Zm-4.2,11.86c-9.8,4.8-16.32,14.6-18.37,22a28.08,28.08,0,0,1-5.64-2.27c-.2-.12-.4-.23-.58-.35.45-5.09,4-10.94,9-15,4.76-3.79,10.19-5.46,15.3-4.7C81.3,32,81.38,32.08,81.47,32.19ZM53.62,44.53c1.16-5.43,6.76-10.85,11.43-13.2a21.49,21.49,0,0,1,15.54-1.48,7.55,7.55,0,0,0,.13.91v0a1.72,1.72,0,0,0,.07.21c-5.16-.6-10.59,1.14-15.36,4.94-5.07,4-8.65,9.89-9.28,15.07A5.92,5.92,0,0,1,53.62,44.53Zm10,29.63a.91.91,0,0,1-.84-.46c-.06-.15,0-.3.2-.46l1.16-.95-1.48.28a.75.75,0,0,1-.21,0,.71.71,0,0,1-.74-.57c0-.27.12-.46.44-.55a4.93,4.93,0,0,1,1.31-.11h.34a5.6,5.6,0,0,0,1.76-.2,4.75,4.75,0,0,1-1.29,2.77A1,1,0,0,1,63.62,74.16ZM87,78.81a18.18,18.18,0,0,1-4.93,6.53c-3.56,2.92-8,4-13.1,3.18A9.65,9.65,0,0,0,74.69,84a14,14,0,0,0,.75-10.9l-.24-.62-.42.52c-.35.45-.6.73-.6.73l0,0c-1.11,1.48-4.92,5.21-7,4.82-.62-.12-1-.61-1.28-1.51a9.06,9.06,0,0,0-1.14-2.59c1.23-1,1.55-3.08,1.64-3.93v0l.1-.87-.7.52a3.43,3.43,0,0,1-2,.4h-.34a5.53,5.53,0,0,0-1.52.15l-.16.05-.07-.09-.32-.42a4.32,4.32,0,0,0-2-1.72,3.16,3.16,0,0,0-.74-.13,3.87,3.87,0,0,1-.65-.1v0c1-2,1.81-4.39.58-6.74a21.73,21.73,0,0,0-2.24-3.27,22.17,22.17,0,0,1-2.14-3.1,8.7,8.7,0,0,1-1.1-5.51l0-.1.16-.81c2,4.26,8.86,6,15.55,7.69,6.51,1.65,13.23,3.35,14.9,7.31l.21.5h0A88.41,88.41,0,0,1,87,78.81Zm3.31-32.43C89.8,56.13,87,60.31,84.17,63c-1-1.84-2.93-3.18-5.39-4.26,2.94-2.36,5.29-6.4,6.51-11.22a24.68,24.68,0,0,0,.1-12.71,5.73,5.73,0,0,0,.84.06h0a8,8,0,0,0,1.1-.08A20.91,20.91,0,0,1,90.29,46.38ZM86.23,34.11h0a4.93,4.93,0,0,1-.55,0c1.93-3.58,7.84-5.84,9.49-5.88a8.94,8.94,0,0,1-4.88,4.93A10.55,10.55,0,0,1,86.23,34.11ZM60.29,59.83l-.7-.29a4.32,4.32,0,0,1,5.76-2.21l-.26.71A3.55,3.55,0,0,0,60.29,59.83Zm1.13,8-.21.41a.68.68,0,0,0-.85.22L60,68.13A1.11,1.11,0,0,1,61.42,67.79Zm3.74-8.38.68.35a4,4,0,0,1-3.59,2.57,3,3,0,0,1-1.17-.23l.3-.7C61.47,61.44,63.67,62.35,65.16,59.41Zm7.9,28.33a.35.35,0,1,1-.35-.35A.35.35,0,0,1,73.06,87.74Zm2.3-.54a.59.59,0,0,1-1.17,0,.59.59,0,1,1,1.17,0Zm2.18-.71a.75.75,0,0,1-1.5,0,.75.75,0,0,1,1.5,0Zm2-.9a.86.86,0,1,1-.85-.85A.85.85,0,0,1,79.58,85.59Zm1.87-1.12a.91.91,0,1,1-.91-.91A.9.9,0,0,1,81.45,84.47Zm1.64-1.38a.91.91,0,1,1-.91-.9A.91.91,0,0,1,83.09,83.09Zm1.34-1.62a.87.87,0,1,1-.86-.86A.87.87,0,0,1,84.43,81.47Zm-.56-1.85a.76.76,0,1,1,.76.76A.76.76,0,0,1,83.87,79.62Zm.88-2a.6.6,0,0,1,1.2,0,.6.6,0,0,1-1.2,0Zm.61-2.1a.36.36,0,1,1,.36.36A.36.36,0,0,1,85.36,75.51Z"/><path d="M92.65,80.26l-2.75-.48,2.75-.49.49-2.75.48,2.75,2.75.49-2.75.48L93.14,83Z"/><path d="M57.15,4.16H52.77L51.42,0,50.06,4.16H45.69l3.54,2.57L47.88,10.9l3.54-2.57L55,10.9,53.61,6.73ZM51.42,7.29l-2,1.42.74-2.3L48.27,5h2.4l.75-2.29L52.16,5h2.41l-2,1.41.75,2.3Z"/><path d="M102.17,37.36H98.59L97.48,34l-1.11,3.4H92.79l2.9,2.11-1.11,3.41,2.9-2.11,2.9,2.11-1.11-3.41Zm-4.69,2.38-1.31.95.5-1.54-1.3-.95H97l.5-1.54L98,38.2H99.6l-1.31.95.5,1.54Z"/><path d="M57.15,98.75H52.77l-1.35-4.17-1.36,4.17H45.69l3.54,2.57-1.35,4.16,3.54-2.57L55,105.48l-1.35-4.16Zm-5.73,3.13-2,1.41.74-2.29-1.94-1.42h2.4l.75-2.29.74,2.29h2.41l-2,1.42.75,2.29Z"/><path d="M10.05,37.36H6.46L5.35,34l-1.1,3.4H.66l2.9,2.11L2.45,42.88l2.9-2.11,2.9,2.11-1.1-3.41Zm-4.7,2.38-1.3.95.5-1.54L3.24,38.2H4.86l.49-1.54.5,1.54H7.47l-1.31.95.5,1.54Z"/><path d="M57.29,24.5l-2.73-1,1.66-2.4-2.75,1-.27-2.9-1.48,2.51-2.07-2.05.49,2.87-2.91-.23,2.22,1.89-2.38,1.68,2.92,0-.74,2.82,2.25-1.85,1.24,2.63.53-2.87,2.65,1.22-1.44-2.54Zm-4.65.88-.25,1.38-.6-1.26-1.07.88L51.07,25H49.68l1.13-.81-1.06-.91,1.39.12-.23-1.38,1,1,.71-1.2.13,1.39,1.31-.47-.79,1.15,1.31.48-1.35.37L53.91,26Z"/><path d="M83.79,12.25l-2.28-.85,1.38-2-2.3.81-.22-2.42-1.24,2.1L77.4,8.18l.4,2.4-2.43-.2L77.23,12l-2,1.41,2.44,0-.62,2.36,1.88-1.55,1,2.2.44-2.4,2.21,1-1.2-2.12Zm-3.16.92-.83-.38-.17.91-.39-.83-.71.58.23-.89h-.92l.75-.54-.7-.59.92.07-.15-.9.65.64.47-.79.08.91.87-.3-.53.75.87.32-.89.25Z"/><path d="M101.47,64.16l-2.73-1,1.65-2.4-2.74,1-.27-2.9L95.9,61.33l-2.07-2,.48,2.88-2.9-.24,2.22,1.89L91.25,65.5l2.91,0-.73,2.82,2.24-1.86,1.25,2.63.53-2.86,2.65,1.21-1.44-2.53ZM96.82,65l-.25,1.37L96,65.15,94.89,66l.36-1.35h-1.4L95,63.87,93.93,63l1.39.11-.23-1.38,1,1,.71-1.2.12,1.39,1.32-.47-.79,1.15,1.3.49-1.34.37.69,1.21Z"/><path d="M27.59,13.37l-2-1.41,1.85-1.58-2.43.2.41-2.4L23.7,9.89l-1.23-2.1-.23,2.42-2.3-.81,1.39,2-2.28.85,2.35.65L20.19,15l2.22-1,.44,2.4,1-2.2,1.88,1.55-.61-2.36Zm-3.28.08-.71-.58-.4.83L23,12.79l-.84.38.46-.79-.89-.25.86-.32-.52-.75.86.3.09-.91.47.79.65-.64-.15.9.91-.07-.7.59.75.54h-.92Z"/><path d="M11.58,65.5,9.21,63.81l2.22-1.89-2.91.24L9,59.28l-2.08,2L5.46,58.82l-.27,2.9-2.75-1,1.66,2.4-2.73,1,2.81.77L2.74,67.46l2.65-1.21.52,2.86,1.25-2.63,2.25,1.86-.74-2.82Zm-4.71-.35-.6,1.26L6,65l-1.27.58.69-1.21L4.09,64l1.31-.49L4.61,62.4l1.31.47.13-1.39.71,1.2,1-1-.23,1.38L8.91,63l-1.06.9L9,64.68H7.59L7.94,66Z"/><path d="M70.67,20.7l-3.07.54-.54,3.07-.55-3.07-3.07-.54,3.07-.55.55-3.07.54,3.07Z"/><path d="M99.11,52.13l-2.75-.49,2.75-.49.49-2.75.48,2.75,2.76.49-2.76.49-.48,2.75Z"/><path d="M68.12,98.49l-3.46-.61,3.46-.62.61-3.45.61,3.45,3.46.62-3.46.61-.61,3.45Z"/><path d="M35.78,24.31l-.55-3.07-3.07-.54,3.07-.55.55-3.07.54,3.07,3.07.55-3.07.54Z"/><path d="M3.24,54.88l-.49-2.75L0,51.64l2.75-.49.49-2.75.49,2.75,2.75.49-2.75.49Z"/><path d="M9.7,83l-.49-2.76-2.75-.48,2.75-.49.49-2.75.49,2.75,2.75.49-2.75.48Z"/><path d="M34.11,101.94l-.62-3.45L30,97.88l3.45-.62.62-3.45.61,3.45,3.45.62-3.45.61Z"/><path d="M66.46,4.87a1.77,1.77,0,1,0,1.77,1.77A1.77,1.77,0,0,0,66.46,4.87Zm0,2.87a1.1,1.1,0,1,1,1.1-1.1A1.1,1.1,0,0,1,66.46,7.74Z"/><path d="M83.68,89.22A1.77,1.77,0,1,0,85.45,91,1.77,1.77,0,0,0,83.68,89.22Zm0,2.87a1.1,1.1,0,1,1,0-2.2,1.1,1.1,0,0,1,0,2.2Z"/><path d="M36.37,4.87a1.77,1.77,0,1,0,1.77,1.77A1.77,1.77,0,0,0,36.37,4.87Zm0,2.87a1.1,1.1,0,0,1,0-2.2,1.1,1.1,0,1,1,0,2.2Z"/><path d="M19.16,89.22A1.77,1.77,0,1,0,20.93,91,1.77,1.77,0,0,0,19.16,89.22Zm0,2.87a1.1,1.1,0,1,1,1.1-1.1A1.1,1.1,0,0,1,19.16,92.09Z"/></g></g></svg>