<svg xmlns="http://www.w3.org/2000/svg" viewBox="0 0 55.83 56.08"><defs><style>.cls-1{fill:#1a171b;}.cls-2{stroke:#fff;stroke-width:0.25px;}</style></defs><title>Asset 416</title><g id="Layer_2" data-name="Layer 2"><g id="Layer_1-2" data-name="Layer 1"><path class="cls-1" d="M15.71,52.12H15s0,0-.07.07a.37.37,0,0,0-.07.1v3.22a.27.27,0,0,1-.11.23.37.37,0,0,1-.25.09.44.44,0,0,1-.27-.09.24.24,0,0,1-.11-.22V52.18s0,0,0-.06a.14.14,0,0,0-.11,0h-.66a.18.18,0,0,1-.16-.09.43.43,0,0,1,0-.4.19.19,0,0,1,.16-.08h2.46a.17.17,0,0,1,.14.09.46.46,0,0,1,.05.21.33.33,0,0,1-.06.21A.23.23,0,0,1,15.71,52.12Zm2.48-.49a.81.81,0,0,0-.48-.15.9.9,0,0,0-.49.13.71.71,0,0,0-.32.32l-1.16,2.76a.43.43,0,0,0,0,.19.85.85,0,0,0,.43.67,1.53,1.53,0,0,0,.89.31,1,1,0,0,0,.57-.21,4.23,4.23,0,0,0,.71-.71.15.15,0,0,0,0-.08.26.26,0,0,0-.07-.15.35.35,0,0,0-.16-.08l-.26.25a.91.91,0,0,1-.53.24.89.89,0,0,1-.55-.2.6.6,0,0,1-.26-.46.58.58,0,0,1,0-.18l.89-2.05a.15.15,0,0,1,.14-.08c.06,0,.1,0,.11.07l1,3.35a.55.55,0,0,0,.16.26.4.4,0,0,0,.23.08.53.53,0,0,0,.34-.13.26.26,0,0,0,.09-.27l-1-3.44A.68.68,0,0,0,18.19,51.63Zm4.46-.26a.36.36,0,0,0-.24.09.26.26,0,0,0-.11.21l0,1.21v.53a4.54,4.54,0,0,1-.13,1.28c-.13.44-.37.66-.73.66a.76.76,0,0,1-.53-.2.59.59,0,0,1-.23-.45,3.46,3.46,0,0,1-.06-.55c0-.14,0-.39,0-.76,0-.11,0-.37,0-.76s0-.67,0-.83a.35.35,0,0,0-.11-.29.4.4,0,0,0-.27-.09.39.39,0,0,0-.26.09.32.32,0,0,0-.13.23v.68c0,.31,0,.68,0,1.13s0,.91.09,1.38a1.37,1.37,0,0,0,.54.65,1.56,1.56,0,0,0,.87.25,1.54,1.54,0,0,0,1-.5,1.9,1.9,0,0,0,.65-1.44v-2.2a.28.28,0,0,0-.12-.23A.49.49,0,0,0,22.65,51.37Zm2.64,2.51v-.14a1.9,1.9,0,0,0,.67-.47,1,1,0,0,0,.31-.62,1.13,1.13,0,0,0-.51-.82,1.65,1.65,0,0,0-1-.41,1.56,1.56,0,0,0-.87.26.8.8,0,0,0-.38.65V55.6a.18.18,0,0,0,.11.18.54.54,0,0,0,.27.06.61.61,0,0,0,.28-.07.23.23,0,0,0,.12-.2V52.35a.45.45,0,0,1,.09-.28.27.27,0,0,1,.22-.11.91.91,0,0,1,.85.83c0,.21-.15.41-.45.61s-.45.37-.45.53l.22.32c.21.32.37.55.47.72a5,5,0,0,1,.39.71.53.53,0,0,0,.17.12.32.32,0,0,0,.16,0,.63.63,0,0,0,.33-.09c.11-.06.17-.13.17-.22a1.51,1.51,0,0,0-.38-.78A7.64,7.64,0,0,0,25.29,53.88Zm5.05-.24a2.21,2.21,0,0,1-.59,1.55,1.87,1.87,0,0,1-1.41.65,1.33,1.33,0,0,1-1.14-.63,2.85,2.85,0,0,1-.44-1.65A2.07,2.07,0,0,1,27.43,52a1.69,1.69,0,0,1,1.16-.53,1.54,1.54,0,0,1,1.28.62A2.45,2.45,0,0,1,30.34,53.64Zm-.88.09a2.78,2.78,0,0,0-.23-1.19c-.19-.4-.43-.6-.75-.6a.73.73,0,0,0-.7.57,3.1,3.1,0,0,0-.17,1.12,2.74,2.74,0,0,0,.23,1.15c.17.39.4.58.69.58a.78.78,0,0,0,.74-.54A2.66,2.66,0,0,0,29.46,53.73Z"/><path class="cls-1" d="M35.59,52.29h-.7s0,0-.08.07l-.07.1v3.21a.27.27,0,0,1-.1.24.42.42,0,0,1-.52,0,.25.25,0,0,1-.12-.22V52.35a.09.09,0,0,0,0-.06.16.16,0,0,0-.11,0h-.67a.16.16,0,0,1-.15-.09A.32.32,0,0,1,33,52a.39.39,0,0,1,.05-.2.19.19,0,0,1,.16-.08h2.46a.16.16,0,0,1,.14.09.46.46,0,0,1,.05.21.33.33,0,0,1-.06.21A.21.21,0,0,1,35.59,52.29Zm2.49-.49a.86.86,0,0,0-.49-.15.92.92,0,0,0-.49.13.68.68,0,0,0-.31.32l-1.17,2.76a.41.41,0,0,0,0,.19.86.86,0,0,0,.43.66,1.49,1.49,0,0,0,.89.32,1,1,0,0,0,.58-.21,4.66,4.66,0,0,0,.71-.71.17.17,0,0,0,0-.08.21.21,0,0,0-.07-.15A.35.35,0,0,0,38,54.8a2.81,2.81,0,0,1-.26.25.88.88,0,0,1-.53.24.91.91,0,0,1-.55-.2.59.59,0,0,1-.25-.46.39.39,0,0,1,0-.18l.89-2.05a.14.14,0,0,1,.14-.08.09.09,0,0,1,.1.06l1,3.36a.55.55,0,0,0,.16.26.41.41,0,0,0,.24.08.53.53,0,0,0,.33-.13.27.27,0,0,0,.1-.28l-1-3.43A.76.76,0,0,0,38.08,51.8Zm4.45-.26a.36.36,0,0,0-.24.09.25.25,0,0,0-.1.21l0,1.21v.53a4.54,4.54,0,0,1-.13,1.28q-.19.66-.72.66a.75.75,0,0,1-.53-.2.57.57,0,0,1-.24-.45c0-.23-.05-.42-.06-.55s0-.39,0-.76c0-.11,0-.37,0-.76s0-.67,0-.83a.33.33,0,0,0-.11-.29.4.4,0,0,0-.27-.09.39.39,0,0,0-.26.09.36.36,0,0,0-.13.23v.68c0,.31,0,.68,0,1.13s.05.91.1,1.38a1.41,1.41,0,0,0,.53.65,1.59,1.59,0,0,0,.88.25,1.56,1.56,0,0,0,1-.5,1.92,1.92,0,0,0,.64-1.44v-2.2a.28.28,0,0,0-.12-.23A.45.45,0,0,0,42.53,51.54Zm2.65,2.51v-.14a1.78,1.78,0,0,0,.66-.47,1,1,0,0,0,.32-.62,1.15,1.15,0,0,0-.52-.82,1.64,1.64,0,0,0-1-.41,1.56,1.56,0,0,0-.87.26.77.77,0,0,0-.39.65v3.27a.2.2,0,0,0,.11.18.6.6,0,0,0,.27.06.61.61,0,0,0,.28-.07.23.23,0,0,0,.12-.2V52.52a.45.45,0,0,1,.09-.28.28.28,0,0,1,.22-.11.79.79,0,0,1,.59.27.75.75,0,0,1,.26.56c0,.21-.15.41-.45.61s-.45.37-.45.53l.22.32c.21.32.37.55.47.72a6.75,6.75,0,0,1,.4.71.42.42,0,0,0,.16.12.35.35,0,0,0,.17,0,.68.68,0,0,0,.33-.09.25.25,0,0,0,.16-.22,1.47,1.47,0,0,0-.37-.78A7.77,7.77,0,0,0,45.18,54.05Zm4.31-2.51a.36.36,0,0,0-.24.09.26.26,0,0,0-.11.21l0,1.21v.53A4.54,4.54,0,0,1,49,54.86c-.13.44-.37.66-.73.66a.76.76,0,0,1-.53-.2.59.59,0,0,1-.23-.45,5.28,5.28,0,0,1-.06-.55c0-.14,0-.39,0-.76,0-.11,0-.37,0-.76s0-.67,0-.83a.35.35,0,0,0-.11-.29.4.4,0,0,0-.27-.09.39.39,0,0,0-.26.09.32.32,0,0,0-.13.23v.68c0,.31,0,.68,0,1.13s.05.91.09,1.38a1.37,1.37,0,0,0,.54.65,1.56,1.56,0,0,0,.87.25,1.54,1.54,0,0,0,1-.5,1.93,1.93,0,0,0,.65-1.44v-2.2a.28.28,0,0,0-.12-.23A.49.49,0,0,0,49.49,51.54ZM52,53.25a3.1,3.1,0,0,0-.45-.31.59.59,0,0,1-.08-.27.45.45,0,0,1,.14-.33.44.44,0,0,1,.33-.14,1.16,1.16,0,0,1,.47.24,1.13,1.13,0,0,0,.49.25.44.44,0,0,0,.34-.12.32.32,0,0,0,.06-.2c0-.25-.17-.44-.53-.56a2.79,2.79,0,0,0-.53-.11,1.88,1.88,0,0,0-1,.37c-.37.25-.55.5-.55.75a1.09,1.09,0,0,0,.46.78l.86.67a1.13,1.13,0,0,1,.45.82.36.36,0,0,1-.13.32.52.52,0,0,1-.33.1,1.39,1.39,0,0,1-.71-.35,1.59,1.59,0,0,0-.61-.36.32.32,0,0,0-.27.15.32.32,0,0,0-.08.19.74.74,0,0,0,.36.55,1.48,1.48,0,0,0,.89.31,2.53,2.53,0,0,0,1-.26q.72-.33.72-.87a1.42,1.42,0,0,0-.45-.88A5.43,5.43,0,0,0,52,53.25Z"/><path class="cls-2" d="M9.72,15.06a2.71,2.71,0,0,0,2.78,1.53A1.76,1.76,0,0,0,14.22,19s1.17.18,2.63-1.81c0,0,3.22,1.11,2,5A9.17,9.17,0,0,0,17.48,26s-.19,2.07-.88,2.64c0,0-2.49-1.76-4.61,0,0,0-.91-2.89-1.72-3.15,0,0-2.67-1.53-2.92-2.41a1,1,0,0,1,1.28-.33s.51.33,1-.39a.82.82,0,0,1,1-.3s1.61-.37.91-1.69c0,0-.58,1.36-1.09,1.06,0,0-1,0-1.14.41,0,0-.66.84-1,.25a1.71,1.71,0,0,0-1,.27s-.84.87-1.39-1C6,21.38,4.28,16,9.72,15.06Zm2.53,14.07c.1,2.33,1.83,1.84,1.83,1.84,1.38-.2,2.2-2,2.2-2a3.46,3.46,0,0,0-4,.2m4.18-.08a3.1,3.1,0,0,1-1.92,2.3,1.28,1.28,0,0,1-.94,0s.1.5.93.64a2,2,0,0,0,2-1.88s.12-.77-.06-1M10.16,14.73A2.49,2.49,0,0,0,12.8,16s2.08-1.39,1.5-4.86a4.32,4.32,0,0,0-3.52-3.26s-.4.26.41.66a3.75,3.75,0,0,1,1.06,3.77A4.9,4.9,0,0,1,10.16,14.73Zm-7.47,4c-1.83-.55-1.27-3-1.27-3,.11-1.1-.32-.69-.32-.69a4.49,4.49,0,0,0-.52,4.73c1.65,2.76,4.87,1.52,4.87,1.52a4.89,4.89,0,0,1-.19-3A3.07,3.07,0,0,1,2.69,18.75Zm.82,6.62c.14.84.88.36.88.36-.15-.25.47-.95.47-.95A2.6,2.6,0,0,0,6.32,23.1c-.47-.18-.87-1.24-.87-1.24C3.18,22.62,3.51,25.37,3.51,25.37ZM17.59,13.63a6.3,6.3,0,0,0-3.13,1.43s-1.9,1.81-1.19,2.85c0,0,1.13,1.53,3.29-1.25C16.56,16.66,18.39,14.32,17.59,13.63ZM14.92,12.2a3.24,3.24,0,0,1-.22,1.69A5.78,5.78,0,0,1,17.79,13s1.44.26-.46,3.48c0,0,4.31,2.14,1.57,7.34a8.47,8.47,0,0,1,1.57,3.26s.41,3.42,2.71,3A1.6,1.6,0,0,0,23.87,28s-.8-5.16,2.71-5.34c0,0-2.52,2.23-1.68,5.27,0,0,.29,1.64-1.72,3.62,0,0-1.43,2-1.86,1.93a1.38,1.38,0,0,0-.52,1.58s.44,1.09.92,1.28l2.15,2.56a10,10,0,0,1,1.21,1.82s1.06,1.69,2.12,0c0,0,.51-1.09-.91-1.72,0,0-1.65-.87-1.87-1.35l-1.2-1.83a3.52,3.52,0,0,0,.07-1.64l1.86-1.87A6.69,6.69,0,0,1,28.37,31s2.89,0,4.79-6A8.56,8.56,0,0,0,32,18a9.87,9.87,0,0,0-.88-9,8.84,8.84,0,0,1,1.72,8.81,9.55,9.55,0,0,1,.62,8.52,11.65,11.65,0,0,1-2.78,4.17s3.8,1.06,5.93-.18c0,0,3.21-1.91,5.19.18,0,0-2.6-7.53,1.2-10.53,0,0-4.24,5.85,1.65,15.29a1.92,1.92,0,0,1,0,1.93,13,13,0,0,1-2.49,3.95s-2,1.14-.84,2.12c0,0,1.21,1.21,2.09-1.57A31.41,31.41,0,0,1,47,37s.62-.4.37-1.87c0,0-.26-1.68,2.08-2.81,0,0,3.4-1.39,2.34-9.69,0,0-.44-4.65-5.89-7.53,0,0-6.8-2.86-8.33-5.71a11,11,0,0,0-13.13-4S18,8.47,14.92,12.2Zm2.87,17.37a5.53,5.53,0,0,1-1.89,3.07,1.41,1.41,0,0,0-.73,1.28,5.5,5.5,0,0,0,.73,2.38,16.47,16.47,0,0,1,1.89,4c.83,2.37,2.32,1.24,2.32,1.24.84-1.39-1-2.05-1-2.05-1.06,0-2.13-4.35-2.13-4.35a1.14,1.14,0,0,0,.51-.62.86.86,0,0,1,.55-.95,6.21,6.21,0,0,0,3.69-3c-1.17,0-1.86-1.86-1.86-1.86A6.15,6.15,0,0,0,18.76,25C18.14,25.67,17.79,29.57,17.79,29.57Zm2.68,10.24a1.52,1.52,0,0,1,0,2.12s1.36,1.24,2.35.22c0,0,.51-.77-.52-1.46,0,0-.33-.73.3-.88A3.64,3.64,0,0,0,20.47,39.81Zm7-.44s1,1.13-.51,2.39c0,0,1.1,1.27,2.16.83a1.3,1.3,0,0,0,.3-1.79s-.53-.84,0-1.17C29.44,39.63,27.84,39,27.49,39.37ZM48.08,24.06s.84,1.64-.95,4.23A5.19,5.19,0,0,0,47,33s-.26-3,.88-4.31c0,0,1.75-2.56.18-4.6M37.51,33.38a4.19,4.19,0,0,1,1.79,1.68,1.61,1.61,0,0,1-.07,1.35,9.14,9.14,0,0,1-2.78,3.07c-1.72.8-.8,1.61-.8,1.61,1.5.92,1.9-.59,1.9-.59A30.76,30.76,0,0,1,40.73,37c1.32-1.21.18-2.12.18-2.12-.73-1.54,0-4.24,0-4.24-.87-.84-2.81-.29-2.81-.29a5.12,5.12,0,0,1-2.45.91A5.06,5.06,0,0,0,37.51,33.38ZM33.36,43c.59.87,1.78.14,1.78.14a.91.91,0,0,1,1.13,0,1.61,1.61,0,0,0,.62-1.41c-1.75.38-1.9-1.11-1.9-1.11C32.58,42.08,33.36,43,33.36,43Zm5.49,2.1c.6.88,1.78.14,1.78.14a.92.92,0,0,1,1.14,0,1.61,1.61,0,0,0,.62-1.41c-1.76.38-1.9-1.11-1.9-1.11C38.07,44.18,38.85,45.13,38.85,45.13ZM42.38.1s1.53,1.3-.7,4.48c0,0-1.72,2,.11,3.13,0,0,.32,2.39,4.12,3.15,0,0,7.14.78,8.38,6a6.82,6.82,0,0,1-1.93,6.31,2.88,2.88,0,0,1,0,2,9,9,0,0,0,3.11-8.69s-.63-5.11-9-6.37c0,0-3.86-.56-3.82-2.7C42.71,7.39,47.24,3.93,42.38.1Z"/></g></g></svg>