<svg xmlns="http://www.w3.org/2000/svg" viewBox="0 0 83.18 85.35"><defs><style>.cls-1,.cls-2{fill-rule:evenodd;}.cls-2{fill:#c6262f;}.cls-3{fill:#fff;}</style></defs><title>Asset 460</title><g id="Layer_2" data-name="Layer 2"><g id="Layer_1-2" data-name="Layer 1"><path d="M33,64.12a2.75,2.75,0,0,1-1.94-1.94,1.09,1.09,0,0,1,2-.79c.62.75.62,2.12,1.7,2.92C33.3,63.61,33,62,32.54,62A1.3,1.3,0,0,0,33,63.09,1.34,1.34,0,0,1,31.77,62C31.38,62.51,31.94,63.48,33,64.12ZM25.14,12c-.81.73,0,1.68.85.9a5,5,0,0,0,1.35-3.51C26.89,10.75,26,11.24,25.14,12ZM35.46,66.58a3.16,3.16,0,0,0-1.88-2.25.94.94,0,0,0-1.27,1.17c.23,1.06,1.48,1.57,2.45,1.66a2.36,2.36,0,0,1-1.54-1.3.66.66,0,0,0,.47.06,1.23,1.23,0,0,1-.3-.7C34.35,65,35.06,65.62,35.46,66.58ZM36.12,68a2.31,2.31,0,0,0,2.26.09c-1,.2-1.87-.08-1.94-.63a1.11,1.11,0,0,0,1.34,0,1.07,1.07,0,0,1-.88-.46c.33-.24,1.38.58,2.64.2-1.09.11-1.85-.72-2.65-.82A.9.9,0,0,0,36.12,68ZM24.72,15c-.9.92.08,2,1.05,1a6,6,0,0,0,1.34-4.21C26.67,13.46,25.64,14.1,24.72,15ZM34.18,4a3.51,3.51,0,0,1,.29-2.17A3.15,3.15,0,0,0,33.33,4C33.35,4.77,34.2,4.73,34.18,4ZM31,8a5.08,5.08,0,0,1-.91-2.84A4.43,4.43,0,0,0,30,8.48C30.47,9.4,31.41,8.9,31,8Zm2-2.95a4.27,4.27,0,0,1,0-2.57,3.69,3.69,0,0,0-1,2.66C32.12,6.05,33.06,5.91,33,5.09Zm2.57-1.87a2.18,2.18,0,0,1,.25-1.62,2.22,2.22,0,0,0-1,1.61A.38.38,0,1,0,35.53,3.22Zm-5,38.92a4.15,4.15,0,0,0,.39,3.3,3.64,3.64,0,0,1,0-2.62c.24-.49.69-.61,1.05-.06a5.62,5.62,0,0,1-.11,5.3c1.52-2.34,1.23-4,.32-6.28a7.76,7.76,0,0,1-.56-4.54,3.94,3.94,0,0,1-1.57.17A6.45,6.45,0,0,1,30.57,42.14ZM36.79,2.69c0-.41-.16-.78.26-1.24-.52.3-1,.79-1,1.24S36.8,3.09,36.79,2.69ZM68.36,69.32A9.67,9.67,0,0,0,61.42,67c-3.4.18-7.7,1-9.14-3.09-.65-1.84-.43-5.79-2.17-8-.91-1.15-2.91-1.2-3.16.45a15.66,15.66,0,0,0,.31,3.58c1,9.11-9.3,12.9-15.4,7.27A21.65,21.65,0,0,1,28.12,62C14.93,68.44,5.81,65.33,2,59.24c-4-6.36-1.81-15.37,4.64-19C13.46,36.32,24.4,37.85,31.27,50,44.09,37.58,44.81,14.86,42,10.29a4.84,4.84,0,0,0-8.82.75c-.6,1.76-.25,4.12,1.81,6.75h0A11.75,11.75,0,0,0,33.27,17c-5.6-6.63-.79-15.67,9.23-14.33a9.45,9.45,0,0,0-8.22-.82,9.37,9.37,0,0,0-2.78,1.7,5,5,0,0,0,.35,2.87c.24.91-.76,1.21-1,.25a4.21,4.21,0,0,1,.66-3.1c-3.58,3.07-4.07,8.31-2.58,12.64-.38,0-.77,0-1.15,0-1.63-7.69,1.44-13.24,7-15a10.63,10.63,0,0,0-8.47,6c-1.88,3.57-1.62,6.92-2.39,9.86a11.6,11.6,0,0,0-2.11,1.07c1.3-1.85,1.53-4.37,2.15-7.17a18.71,18.71,0,0,1,2.19-5.56c4-6.73,14.25-7,19.51-1.95,5.64,5.41,6.51,14.33,5.56,21.71-1.66,12.85-9.7,26-17.39,31.53a16.78,16.78,0,0,0,1.73,6c1.87,3.18,7.35,3.52,7.82-.83.24-2.24-.87-5.23-.56-7.69a6.26,6.26,0,0,1,10.58-3.9c3.28,3.34.86,9.17,1.23,12.57s4.09,2.35,6.34,2.31C64.4,65.16,67,66.38,68.36,69.32Zm-14.67-15a4.06,4.06,0,0,1-.16,2.39c-.15.75.68,1,.86.16A3.54,3.54,0,0,0,53.69,54.36Zm-3-3.74a5,5,0,0,1,1.93,2.23c.51.79,1.42.26.88-.6A4.39,4.39,0,0,0,50.65,50.62Zm-4.48.5a4.59,4.59,0,0,1,2.67-.5c.87,0,.86-1-.07-1A4,4,0,0,0,46.17,51.12Zm3.82-25c.26-2-1.93-1-1.92-2.21,0-1.45-1.38-1.39-1.65,0-.24,1.19-1.09,1.38-2,1-.1.61-.2,1.22-.32,1.83.39,1,2.16.7,2.38-.63.14-.82,1.43-.91,1.39.08-.06,1.25.95,1.43,2,.87Zm.49-6.37c-2.28,1-2-1-2.46-1.57a.88.88,0,0,0-1.43.21,13.37,13.37,0,0,1-.29,1.37c-.21.47-.72.69-1.46.69,0,.45-.05.9-.08,1.36.85.77,1.81.27,2-.75.31-1.36,1.19-1,1.52,0s1.11,1.05,2.12.38c0-.41,0-.81,0-1.21Zm-.6-5.64c-1.47.66-1.8,0-2.21-.41a.92.92,0,0,0-1.59.37c-.25.71-.61,1.29-1.51,1.34a20,20,0,0,1,.23,2.11c1.63.67,2-.48,2-1.6,0-.6.45-.71.74-.35.81,1.06,1.65,1.64,2.64.19C50.11,15.17,50,14.62,49.88,14.07ZM34.17,6.5c-.5.13-.72-.42-.23-1.24a6.73,6.73,0,0,0-1.85,2.16c0,.41.19.47.56.53s.45.43.19.92c-.16.31-.54.94-.2,1.13a5,5,0,0,1,2.09-2.14C35.8,7.14,35.46,6.18,34.17,6.5Zm4.1-2.16c.55-.12,1.47-.19,1.82-1.22a10.22,10.22,0,0,0-2.31.29c-.2.42-.69.61-1.1.84a1.05,1.05,0,0,0-.45,1.58c.37.48,1.17.66.39,1.38a6.1,6.1,0,0,1,1.81,0c.7-.72.63-1.46-.34-1.67S37.31,4.57,38.27,4.34ZM42.2,6c-.83-1-.16-1.58.94-1.14.51.21,1.08.75,1.85.44a4.79,4.79,0,0,0-1.81-1.55C40.49,3.44,40.35,5,40.32,6.23a2.15,2.15,0,0,1-.38,1.4,5.08,5.08,0,0,1,1.21.75C42.34,8.33,43.34,7.38,42.2,6Zm1.66,6.57c1.77-.22,1.63-1.43,1.49-2.13-.2-.94.76-1.52,1.47-.53.45.65.68,1.86,2.22,1.25a18.53,18.53,0,0,0-1.33-2.85c-.25,1.12-.75.12-1.36-.44a1.35,1.35,0,0,0-2.35,1c0,.68.18,1.44-.9,2A11.63,11.63,0,0,1,43.86,12.59Zm-1,19.3c-.16,1.17,1.83,1.6,2.32.57.7-1.49,1.81-1.26,1.6,0s.61,2.25,1.44,1.32c.2-.59.38-1.19.55-1.8-1.38.1-1.63-.76-1.53-2.1.08-1.05-.92-1.27-1.37-.5-.27.45-.21,1-.46,1.48-.4.71-1.84.47-2.21-.15C43.05,31.08,42.94,31.49,42.82,31.89Zm-1.91,5.6a1.51,1.51,0,0,0,2.79,0c.42-.92,1.52-.78,1.3.39a.94.94,0,0,0,1,1.23c.18-.39.36-.78.53-1.17-1.4-.57-1-1.28-.92-2.3s-1-1.3-1.49.18c-.38,1.09-2.23.73-2.59-.08C41.35,36.36,41.13,36.93,40.91,37.49Zm-2.2,5a1.23,1.23,0,0,0,1.82,0c.65-.8,1.46-.23,1,.44-.76,1.23-.08,2.38,1.35,1.84.42-.66.82-1.32,1.21-2-1.82-.19-1.49-1.41-1.28-1.86.36-.77-.55-1.25-1.32-.26a2.2,2.2,0,0,1-2.32.83C39,41.81,38.88,42.15,38.71,42.48Zm-.17,4.23c.4-.42,1-.19.83.27-.26.7-1.12,2.25.72,1.75q.51-.66,1-1.32a1.15,1.15,0,0,1-.57-1.63c.52-1-.9-1.43-1.57-.66-.41.47-1,.34-1.53-.23-.25.43-.5.83-.75,1.21C36.48,47,37.62,47.67,38.54,46.71Zm-5.13,3c.16,1.6,1.23,1.55,2,1s1.45.25,1,.8-.92,1.26.31,1.24l1.12-1.25c-.93-.58-.93-1.07-.74-1.43.4-.73-.22-1.21-1.07-.35a.88.88,0,0,1-1.53-.82A4.38,4.38,0,0,1,33.41,49.68Zm5.53,16.5c-4.1-.37-5.44-5.89-6.15-9.57-1.4-7.28-5.54-13.1-12.94-15.92A14.15,14.15,0,0,0,8.27,41c-7.54,3.91-9.6,15.66-2,20.78,6.14,4.13,13.39,3.43,21.5-.9a16.1,16.1,0,0,0-1.25-3.1c-4.31,2.69-12.11,3.32-14.21-2.23-1.72-4.54,2.34-9.7,7.34-8.4,3.05.8,5.05,4,6.4,6.75,1.73,3.5,2.85,7.29,4.84,10.65,1.76,3,4.48,4.9,8.13,4.46C40.85,68.77,41.06,66.38,38.94,66.18Zm4.47-1.07A4.16,4.16,0,0,0,42,67.91c.5-1.09,1.3-1.42,2.07-2S44.21,64.54,43.41,65.11Zm2.22-4.42c-.29-1.14-1.47-.8-1.21.27s.74,2,.34,3.41A5,5,0,0,0,45.63,60.69ZM45,56.19a5.06,5.06,0,0,0,.87,3.67c-.39-1.39.08-2.31.34-3.41S45.28,55.05,45,56.19Zm.16-3.83a5.09,5.09,0,0,0-.77,3.7,5.8,5.8,0,0,1,1.76-2.94C46.82,52.26,45.9,51.45,45.15,52.36Zm4.41-.76a5.1,5.1,0,0,0-2.86,2.46c1-1,2.08-1,3.19-1.26S50.71,51.33,49.56,51.6ZM52,56c.85.55,1.39-.35.6-.87a5.07,5.07,0,0,1-2.21-1.94A4.35,4.35,0,0,0,52,56Zm1.15,3.3a4.08,4.08,0,0,1-.37-2.37,3.58,3.58,0,0,0-.46,2.61C52.61,60.33,53.42,60.05,53.19,59.31Zm.45,2.89a3.13,3.13,0,0,0,.1-2.33,3.64,3.64,0,0,1-.78,2C52.63,62.44,53.27,62.84,53.64,62.2Zm1.13,2.73a3.05,3.05,0,0,1-1.16-1.33,2.62,2.62,0,0,0,.73,1.8C54.8,65.79,55.2,65.3,54.77,64.93ZM26.37,10.27a4.54,4.54,0,0,0,1.54-3.06c-.54,1.2-1.4,1.56-2.23,2.17S25.5,10.89,26.37,10.27Zm2.26-5a3.09,3.09,0,0,0,1.6-1.62,3.64,3.64,0,0,1-1.85.92C27.75,4.82,28,5.53,28.63,5.31ZM27.32,7.37A3.67,3.67,0,0,0,29,5.25a4.16,4.16,0,0,1-2.1,1.31C26.21,6.89,26.54,7.71,27.32,7.37Zm3.84,7.27c-1.06-.9-2.19-1.47-2.81-3.14a6.19,6.19,0,0,0,1.8,4.28C31.26,16.71,32.19,15.52,31.16,14.64Zm-.72-4.75A5.32,5.32,0,0,1,29.08,7.1a4.55,4.55,0,0,0,.42,3.39C30.1,11.37,31,10.71,30.44,9.89Zm.13,2a5.73,5.73,0,0,1-2.15-2.66,5.07,5.07,0,0,0,1.28,3.54C30.56,13.61,31.37,12.69,30.57,11.94ZM25.71,48a2.61,2.61,0,0,0,1.94,1.54c-1.08-.53-1.74-1.63-1.28-2a1.31,1.31,0,0,0,.72,1c-.38-.37-.53-.82-.21-1.13a1.26,1.26,0,0,0,.93,1.22,1.55,1.55,0,0,1-.61-1.22c.52,0,.89.48,1.2,1.54a2.34,2.34,0,0,0-.93-2.1C26.45,46.18,25.32,46.93,25.71,48Zm-18,8.7c.24-1.51-1-2.78-2.42-3.58,1.4,1,1.93,2.36.79,3.65a1.81,1.81,0,0,1-1-.78.93.93,0,0,0-.28.72A2.93,2.93,0,0,1,3.7,53.86c-.59,1.46-.91,3.45.76,4.3A2.21,2.21,0,0,0,7.7,56.72Zm2.53-13.09a4.63,4.63,0,0,0,4.31-.75c-1.37.73-2.78.74-3.7-.46a1.68,1.68,0,0,1,1-.5,1,1,0,0,0-.61-.41,3.52,3.52,0,0,1,3,0c-1.22-.85-3.15-1.48-4.42-.5A1.44,1.44,0,0,0,10.23,43.63Zm-2,3.64A2.73,2.73,0,0,0,9.6,43.83c.09,1.62-.65,2.59-2.51,2.08a1.45,1.45,0,0,1,0-1.17.94.94,0,0,0-.79,0c-.13-1.05.58-1.65,1.65-2A2.74,2.74,0,0,0,5,45,2.35,2.35,0,0,0,8.27,47.27ZM6.05,51.79a4.18,4.18,0,0,0,.35-4.16c.1,2-.24,3-1.14,3.29a2.8,2.8,0,0,1,.32-2.46,2.2,2.2,0,0,0-.88,2.6C4,50.67,4,49.8,4.4,49a2.27,2.27,0,0,0-.62,2.2c-1-.45-.55-2.72,1-4.15a4.37,4.37,0,0,0-2.41,3.63A2,2,0,0,0,6.05,51.79Zm14.68,9.12a2.23,2.23,0,0,1-1.81.42,1.86,1.86,0,0,0,2.1-.11c0,.55-.62.78-1.34.72a1.92,1.92,0,0,0,1.73-.17c0,.74-1.69,1-3.2.43a3.83,3.83,0,0,0,3.32.58c1.46-.53,1.2-2.24-.48-2.59a3.25,3.25,0,0,0-3,.84C19.43,60.46,20.24,60.41,20.73,60.91Zm5-1a1.53,1.53,0,0,0-1.62.92,1.33,1.33,0,0,1,1.33,0c-.28.54-1.35.33-2.2,1.92.95-1.13,1.94-.6,3-1.32a1.35,1.35,0,0,0,.08-2.23,2.41,2.41,0,0,0-3.36,1.38A2,2,0,0,1,25.75,59.88Zm-18-1.54c1.63.59,2.33,1.19,2.23,2a2.37,2.37,0,0,1-1.84-1.07A1.89,1.89,0,0,0,9.9,60.82c-.55.44-1.25.16-1.76-.45a2,2,0,0,0,1.54,1.21c-.69.66-2.33-.46-3-2.15a3.72,3.72,0,0,0,2.09,3.1A1.69,1.69,0,0,0,10.92,60,3.6,3.6,0,0,0,7.74,58.34Zm20.34-7.58c.33.85,1.43,1.47,1.59,2.7.09-1.49-1.08-2.43-.9-2.85a1.24,1.24,0,0,1,.74.85A1.26,1.26,0,0,0,29.12,50c.63-.06,1.16.83,1.2,2a2.56,2.56,0,0,0-.69-2.45A1,1,0,0,0,28.08,50.76Zm3.13,8.12a1.92,1.92,0,0,0,1.11,1.38c-.67-.54-.95-1.41-.58-1.6a1,1,0,0,0,.34.85c-.2-.32-.24-.66,0-.82a.92.92,0,0,0,.46,1,1.14,1.14,0,0,1-.24-.95c.37.09.55.48.6,1.26a1.69,1.69,0,0,0-.32-1.61C32,57.72,31.11,58.06,31.21,58.88ZM16,43.31a2.93,2.93,0,0,0,2.9,0c-1.37.2-2.12,0-2.4-.56a2,2,0,0,1,1.73.06,1.64,1.64,0,0,0-1.9-.44c.19-.51.79-.58,1.41-.34a1.68,1.68,0,0,0-1.59-.28c.19-.72,1.8-.55,3,.41a3.32,3.32,0,0,0-2.79-1.41C14.83,40.84,14.56,42.54,16,43.31ZM29.76,54.25a4.5,4.5,0,0,0,1.39,3.19,2.48,2.48,0,0,1-.51-2.88,1.56,1.56,0,0,1,.53.7.77.77,0,0,0,.13-.52,3.42,3.42,0,0,1,.63,2.31,3.71,3.71,0,0,0-.63-3.44C30.53,52.89,29.82,53.32,29.76,54.25ZM12.28,61.49c1.64,1,3.49.36,3.86.81a1.93,1.93,0,0,1-1.54.48,1.47,1.47,0,0,0,2,.3c-.53.87-1.86,1-3.2.34a3.49,3.49,0,0,0,3.29.74,1.38,1.38,0,0,0-.29-2.69C15.23,61.29,13.79,62.09,12.28,61.49ZM22.51,44.57c-1.27-.36-1.87-.76-1.93-1.32a1.51,1.51,0,0,1,1.31.47,1.55,1.55,0,0,0-1.3-1.36c.65-.44,1.75.2,2.49,1.42a3.21,3.21,0,0,0-2.22-2.25,1.12,1.12,0,0,0-1.18,1.77A3.3,3.3,0,0,0,22.51,44.57Zm3.06,2c-1.17-.39-1.94-1.19-1.7-1.83a1.36,1.36,0,0,0,1.42.83,1.33,1.33,0,0,1-.67-1c.49-.06.95.37,1.51,1.38a2.86,2.86,0,0,0-1.64-2.15,1,1,0,0,0-1.27,1.35A2.84,2.84,0,0,0,25.57,46.58Zm-.95,1.63a2.47,2.47,0,0,0-1.36-2,1,1,0,0,0-1,1.6c.55.66,1.73.89,2.24,1.95-.36-1.37-1.7-1.86-1.67-2.3a1.16,1.16,0,0,1,.92.55A1.18,1.18,0,0,0,23,46.8C23.49,46.56,24.24,47.2,24.62,48.21Zm-5.39-2.78a1.45,1.45,0,0,1,.78-.18.7.7,0,0,0-.38-.3,3.13,3.13,0,0,1,2.16.36,3.41,3.41,0,0,0-3.1-.79c-.9.36-.81,1.11-.06,1.52a4.13,4.13,0,0,0,3.18.07A2.27,2.27,0,0,1,19.23,45.43ZM30.31,57.92c-.8-.7-1.71,0-1.62,1.06a3.13,3.13,0,0,0,1.82,2.4c-1-.83-1.5-2-1.08-2.6a1.52,1.52,0,0,0,1.1,1.41,1.77,1.77,0,0,1-.33-1.36c.49.1.8.74,1,2A3.65,3.65,0,0,0,30.31,57.92ZM13.74,46.44a1.76,1.76,0,0,1,1.44-.69,1.78,1.78,0,0,0-2.15,0c.15-.88,1.56-1.28,3.15-.91a3.7,3.7,0,0,0-3.63,0,1.44,1.44,0,0,0,1.15,2.59C15,47.32,16.25,46,18,46.28,16,45.59,14.25,46.84,13.74,46.44Zm14,8.64a1.26,1.26,0,0,1,.75.92,1.32,1.32,0,0,0-.36-1.56c.66,0,1.19.9,1.21,2.11a2.73,2.73,0,0,0-.66-2.61A1.07,1.07,0,0,0,27,55.22c.32.9,1.47,1.59,1.6,2.89C28.74,56.54,27.53,55.52,27.73,55.08Zm-1.94-3.94a.82.82,0,0,0,.48.32,1.71,1.71,0,0,1-.1-.94c1.06.27,1.6,1.34,1.7,2.63a4.82,4.82,0,0,0-1.22-3.51c-.74-.69-1.6-.52-1.68.62a4,4,0,0,0,2,3.16A3.75,3.75,0,0,1,25.79,51.14Zm-15.66-.41a1.82,1.82,0,0,1,.11-1.82A2.08,2.08,0,0,0,8.83,51a2.67,2.67,0,0,1,1.22-3.77A3.31,3.31,0,0,0,7.81,51.7a1.84,1.84,0,0,0,3.05.12c1.09-1.31.47-2.71,2.11-3.89C10.72,48.91,10.88,50.41,10.13,50.73ZM33.74,17.58l1.22.21a10.19,10.19,0,0,1,1.9,1.37c2.91,2.68,3.42,6.67.33,9.38-1.2,1.05-2.55,1.95-2.81,3.25a23,23,0,0,1-.64,3.37,3.4,3.4,0,0,1-2.11,2.08.38.38,0,0,0,0-.1l-1.6.23a.08.08,0,0,0,0,0,3.91,3.91,0,0,1-2.93-1.59c-1.31-1.83-1.48-3.41-3.69-4.27a9.3,9.3,0,0,1-4-2.78,7,7,0,0,1-.39-7.83,8.24,8.24,0,0,1,2.73-2.78c0,.07-.08.16-.14.24l2-.43c.1-.28.17-.58.25-.88a13.86,13.86,0,0,1,3.64-.82h.18c0,.16,0,.3.08.45l1.26.05c-.07-.17-.13-.36-.19-.54a13.23,13.23,0,0,1,4.36.79C33.43,17.2,33.56,17.4,33.74,17.58ZM30.5,20.22c1.6.27,1.76,1.13,2.65,1.77s1.8-.15,1.16-.94A4.63,4.63,0,0,0,31,19.78,2.75,2.75,0,0,1,30.5,20.22ZM30,20.5l-.24.1A5,5,0,0,0,32,22.85c1.15.49,1.67-.48.6-1A7.2,7.2,0,0,1,30,20.5Zm-2.31,3.6c.35,1.2,1.48.85,1.17-.28a7.48,7.48,0,0,1-.5-3l-.15,0A5.14,5.14,0,0,0,27.72,24.1Zm.05-3.45a1.88,1.88,0,0,1-.3-.12A8.93,8.93,0,0,1,25.59,23c-.82,1,.21,1.92,1.1.91A5.23,5.23,0,0,0,27.77,20.65Zm1.47,3.8c0,1.33,1.48,1.35,1.42-.08a5.83,5.83,0,0,0-1.86-3.58h-.2A7.89,7.89,0,0,1,29.24,24.45Zm-1.93-6a1.36,1.36,0,0,0,2.67,0,1.36,1.36,0,0,0-2.67,0ZM27,20.23a3.15,3.15,0,0,0-2.5,1.8c-.28.78.58,1.18,1.06.48.64-.93.64-1.57,1.67-2.13Zm-3.08.45a2.18,2.18,0,0,1,2.44-1.16,2,2,0,0,1-.22-.57,3.26,3.26,0,0,0-3,1.15A.51.51,0,1,0,23.87,20.68ZM22,26.6a3.85,3.85,0,0,0-2.22-.22c.05.22.12.44.19.65A3,3,0,0,1,22,26.6Zm-.94,2.25a3,3,0,0,1,3.4.17,2.37,2.37,0,0,0-3.95-.91A6.76,6.76,0,0,0,21.1,28.85ZM25,31.38a4.81,4.81,0,0,0-.16-1.54,2.77,2.77,0,0,0-2.72-.06A9.16,9.16,0,0,0,24.24,31,4.7,4.7,0,0,1,25,31.38Zm12-4a2.41,2.41,0,0,0-1.78.87,4,4,0,0,0,.1.77A12.41,12.41,0,0,0,36.94,27.36Zm.88-2.19a2.23,2.23,0,0,0-2.63,2.22,2.86,2.86,0,0,1,2.41-1.24A4.21,4.21,0,0,0,37.82,25.17Zm0-1.35a3.68,3.68,0,0,0-1,.61,2.84,2.84,0,0,1,1.07-.28C37.81,24,37.79,23.93,37.77,23.82Zm-4.07.29c1,1.19-.73,2.84-2.11,1.57a1.63,1.63,0,0,1-.72,1.81c.06-.23.11-.45.18-.69s-.26.05-.23-.1a5.66,5.66,0,0,0-.34,1,2.3,2.3,0,0,1-1.69.06,8.27,8.27,0,0,0-.95-1.87c.06.16-.29,0-.24.17a13.8,13.8,0,0,1,.67,1.42,1.94,1.94,0,0,1-.74-1.3c-.14,1-2.25,1-1.75-.57a1.55,1.55,0,0,1-2.26-2.09c-1.27.6-2.26-1.37-1.15-2.22a.93.93,0,0,1-.84-.36,6.06,6.06,0,0,0-1.84,4.35A4.65,4.65,0,0,1,25,27.9a5.28,5.28,0,0,1,.38,3.78c.91.79,1.19,1.88,2,3.1A3.19,3.19,0,0,0,33,34.2a21.83,21.83,0,0,0,.55-3A3.48,3.48,0,0,1,34.8,29.4a5.24,5.24,0,0,1-.38-2.9,4.73,4.73,0,0,1,3-3.78,6.64,6.64,0,0,0-1.61-2.41,1.37,1.37,0,0,1-.57.32A1.92,1.92,0,0,1,33.7,24.11Zm1-4.78a4,4,0,0,0-3.23-.72,3.15,3.15,0,0,1-.09.42,2.59,2.59,0,0,1,2.7.74C34.5,20.25,35.09,19.73,34.7,19.33Zm-3.65,9.16c-.39,1.08.75,1.45,1.13.45a5.62,5.62,0,0,1,1.58-3A5,5,0,0,0,31.05,28.49ZM30.42,34c.62,1.61,2.38.5,1.22-.62-1-.94-1.54-3-.77-5.93a3,3,0,0,1-.39.22A12.93,12.93,0,0,0,30.42,34ZM11.56,59.22a2.92,2.92,0,0,0,2.06,2.05c1.53.42,2.52-1,1.57-2.09a3.31,3.31,0,0,0-3-.94c1.51.13,2.79,1.13,2.42,1.78a1.64,1.64,0,0,0-1.33-.91c.61.26,1,.73.77,1.23a1.61,1.61,0,0,0-1.67-1,2,2,0,0,1,1.29,1.16C13.05,60.72,12.41,60.32,11.56,59.22ZM9.87,52.71c-.18,2,1.36,3.32,1.11,3.88a1.89,1.89,0,0,1-1.2-1.13,1.43,1.43,0,0,0,.7,1.95c-1.09,0-1.88-1.15-1.9-2.69a3.4,3.4,0,0,0,.91,3.33,1.51,1.51,0,0,0,2.42-1.64C11.5,55.26,10,54.38,9.87,52.71Zm14.51-26c1.35.65,1.74,1.65,2.41,2.63s1.74.25,1.05-.77A5.3,5.3,0,0,0,24.38,26.7Zm4,6.87c-1.06,1.51,1.14,2.38,1.5.44a14.36,14.36,0,0,0-1.06-6.24,2,2,0,0,1-.52-.28C29.42,30.29,29.16,32.42,28.35,33.57Z"/><path class="cls-1" d="M71.06,52.26a8.88,8.88,0,0,1,.46,1.86c0,3-.37,6.73.18,8.33,1.47,4.32,7,1.62,10.38,1.81.77,0,1.24-.06,1.07-1.06-.22-1.37-1.23-3.31-1.23-6-1.58,2.62-.32,4.43-1.51,5-2.48,1.1-6.86,1.45-7.12-1.32-.07-.74-.2-2-.2-3.23a27.94,27.94,0,0,0,5.93-3c.93-.84.14-2-.81-2.48-.64-.35-.81.37-1.08,1.07a7.88,7.88,0,0,1-4,3.52,6.35,6.35,0,0,1,.64-2.66c.27-.48.79-.94.24-1.48a4.29,4.29,0,0,0-1.88-.94c-.84-.16-1.2,0-1,.61ZM77.79,51c.65-1.1,1.51-1.4,1.66-2.14.11-.57-.62-.9-1.21-.81-2.3.35-4.9,1.41-7.69,1.22a7.83,7.83,0,0,1-.76,4c-.45.6-1.33,0-1.18-1,.12-.79,1.11-2.28,1-4.86,0-.91.53-.82.71-.16a5.69,5.69,0,0,1,.19,1.17,31.43,31.43,0,0,0,8.53-1.95c1.14-.41,4.24,1,4,2.54-.18.89-1.36.23-5.21,2ZM59,55.71c-.44-1.82-.89-4.76-2-5.79-.37-.34-1.05-.73-.15-.94a3.58,3.58,0,0,1,1.19,0A1.33,1.33,0,0,1,59.22,50c.88-.16,1.92-.39,2.92-.65a11.26,11.26,0,0,0-1-4.72c-.39-.55-1.64-1.55,0-1.5a5.1,5.1,0,0,1,1.51.29,1.93,1.93,0,0,1,1.18,1.85c.06,1.12.06,2.34,0,3.61.66-.2,1.25-.39,1.67-.56.88-.35,2.57.26,2.78,1.22a1.3,1.3,0,0,1-1.15,1.6,15,15,0,0,1-.52,2.06c.78.19.92.94.11,1-1.15.08-2.27.22-3.33.4-.14,1.43-.3,2.82-.44,4.07a28.11,28.11,0,0,0,3.24-1.38c-.26-.6-.52-1.16-.62-1.42-.24-.69.34-.64.73-.46a3.44,3.44,0,0,1,2.32,3.16c0,1.14-1.41,2.37-1.75.57A6.85,6.85,0,0,0,66.5,58a39.64,39.64,0,0,1-7.58,4.32c-1.29.52-2.18-.51-2.66-1.48-.38-.77,0-.74.67-.8a23.45,23.45,0,0,0,5-1c.09-.7.21-2.31.28-4.21-.77.15-1.49.31-2.16.46v.11c0,.92-.56,2.06-1,.27Zm6.5-2.43a9.87,9.87,0,0,0,.33-2.9c-.06-.63-.52-1-1.11-.73a8,8,0,0,1-.93.33c-.07,1.21-.17,2.45-.29,3.67.67-.15,1.35-.28,2-.37ZM62.19,54c0-1.16,0-2.4,0-3.59a14.1,14.1,0,0,1-2.81.3A27,27,0,0,1,60,54.51L62.19,54Zm14.57-10c-.22-1.21-2.16-2.05-4.11-2.13-.3,0-.4.3-.24.7a9.72,9.72,0,0,0,2.22,2.64c1.34,1.06,2.35,0,2.13-1.21Z"/><path class="cls-2" d="M9,72.6H46.21A6.4,6.4,0,0,1,52.58,79h0a6.39,6.39,0,0,1-6.37,6.37H9A6.39,6.39,0,0,1,2.58,79h0A6.39,6.39,0,0,1,9,72.6Z"/><path class="cls-3" d="M19.76,80.1a1.26,1.26,0,0,1-.21.73,1.32,1.32,0,0,1-.61.46,2.85,2.85,0,0,1-1,.16,2.48,2.48,0,0,1-.95-.17,1.42,1.42,0,0,1-.58-.43.83.83,0,0,1-.19-.51.4.4,0,0,1,.12-.29.41.41,0,0,1,.31-.12.35.35,0,0,1,.24.08.8.8,0,0,1,.17.22,1,1,0,0,0,1,.55.88.88,0,0,0,.51-.14.4.4,0,0,0,.2-.31.42.42,0,0,0-.21-.4,2.82,2.82,0,0,0-.68-.24,6.89,6.89,0,0,1-.86-.27,1.57,1.57,0,0,1-.54-.39.87.87,0,0,1-.2-.58,1,1,0,0,1,.19-.58,1.21,1.21,0,0,1,.54-.45,2.25,2.25,0,0,1,.87-.16,3.11,3.11,0,0,1,.72.08,1.73,1.73,0,0,1,.53.23,1.1,1.1,0,0,1,.33.31.62.62,0,0,1,.11.33.38.38,0,0,1-.12.29.5.5,0,0,1-.34.11.44.44,0,0,1-.27-.09,1.71,1.71,0,0,1-.25-.27A.92.92,0,0,0,18.3,78a.86.86,0,0,0-.43-.09.83.83,0,0,0-.46.12.35.35,0,0,0-.19.29.33.33,0,0,0,.14.27,1.16,1.16,0,0,0,.37.17l.63.17a3.34,3.34,0,0,1,.78.27,1.29,1.29,0,0,1,.46.39.79.79,0,0,1,.16.5Zm1.8-2.27V78a1.92,1.92,0,0,1,.6-.52,1.58,1.58,0,0,1,.74-.17,1.49,1.49,0,0,1,.73.18,1.08,1.08,0,0,1,.47.5,1.17,1.17,0,0,1,.14.41,4.11,4.11,0,0,1,0,.55v1.92a.66.66,0,0,1-.15.47.47.47,0,0,1-.36.16.49.49,0,0,1-.38-.17.68.68,0,0,1-.14-.46V79.1a1.76,1.76,0,0,0-.14-.77.57.57,0,0,0-.56-.27.81.81,0,0,0-.5.16.91.91,0,0,0-.34.45,3.29,3.29,0,0,0-.07.86v1.29a.66.66,0,0,1-.15.47.49.49,0,0,1-.37.16.48.48,0,0,1-.37-.17.68.68,0,0,1-.14-.46v-3a.6.6,0,0,1,.13-.43.43.43,0,0,1,.35-.15.4.4,0,0,1,.24.07.42.42,0,0,1,.18.19.71.71,0,0,1,.06.31Zm6.33,3a3.5,3.5,0,0,1-.72.43,1.94,1.94,0,0,1-.78.15,1.54,1.54,0,0,1-.7-.16,1.25,1.25,0,0,1-.46-.42,1.11,1.11,0,0,1-.16-.59,1,1,0,0,1,.27-.72,1.33,1.33,0,0,1,.73-.39l.49-.11.66-.14.6-.16a1,1,0,0,0-.16-.6.73.73,0,0,0-.6-.19,1.29,1.29,0,0,0-.59.11.89.89,0,0,0-.34.33l-.2.29a.35.35,0,0,1-.25.07.41.41,0,0,1-.3-.12.37.37,0,0,1-.13-.28.88.88,0,0,1,.2-.53,1.28,1.28,0,0,1,.6-.42,2.66,2.66,0,0,1,1-.17,3.05,3.05,0,0,1,1.07.16,1,1,0,0,1,.54.51,2.17,2.17,0,0,1,.16.92V80a2.18,2.18,0,0,0,.09.6A1.68,1.68,0,0,1,29,81a.4.4,0,0,1-.15.29.53.53,0,0,1-.34.13.45.45,0,0,1-.31-.15,3,3,0,0,1-.33-.43Zm-.07-1.49a6.35,6.35,0,0,1-.65.17l-.6.14a.77.77,0,0,0-.32.17.43.43,0,0,0-.15.35.52.52,0,0,0,.18.4.65.65,0,0,0,.46.16,1.22,1.22,0,0,0,.57-.13,1,1,0,0,0,.38-.35,1.61,1.61,0,0,0,.13-.77v-.14ZM32.44,81l-.91-1.49L31,80v.82a.66.66,0,0,1-.16.46.54.54,0,0,1-.36.16.47.47,0,0,1-.37-.16.71.71,0,0,1-.14-.47V76.43a.85.85,0,0,1,.13-.52.45.45,0,0,1,.38-.18.51.51,0,0,1,.38.16.74.74,0,0,1,.14.48v2.5l1.15-1.22.33-.31a.51.51,0,0,1,.28-.08.47.47,0,0,1,.32.12.46.46,0,0,1,.13.31c0,.15-.15.35-.42.6l-.55.51,1.06,1.65c.07.13.13.22.16.29a.31.31,0,0,1,.05.18.52.52,0,0,1-.13.38.45.45,0,0,1-.35.15.37.37,0,0,1-.29-.11,2.12,2.12,0,0,1-.28-.37Zm4.44-1.36h-2a1.31,1.31,0,0,0,.14.61.93.93,0,0,0,.37.41,1,1,0,0,0,.5.13,1.27,1.27,0,0,0,.34,0,.86.86,0,0,0,.29-.14,1.74,1.74,0,0,0,.26-.19c.09-.07.19-.17.32-.29a.31.31,0,0,1,.22-.07.36.36,0,0,1,.26.09.3.3,0,0,1,.1.24.68.68,0,0,1-.11.33,1.35,1.35,0,0,1-.33.36,1.89,1.89,0,0,1-.55.28,2.3,2.3,0,0,1-.77.12,2,2,0,0,1-1.54-.57,2.1,2.1,0,0,1-.55-1.53A2.57,2.57,0,0,1,34,78.5a1.81,1.81,0,0,1,.4-.67A1.61,1.61,0,0,1,35,77.4a2.24,2.24,0,0,1,.84-.15,2,2,0,0,1,1,.26A1.76,1.76,0,0,1,37.73,79c0,.26-.07.42-.22.5a1.36,1.36,0,0,1-.63.12Zm-2-.59h1.86a1.26,1.26,0,0,0-.28-.79A.87.87,0,0,0,35.8,78a.8.8,0,0,0-.63.27,1.24,1.24,0,0,0-.3.78Z"/></g></g></svg>