<svg xmlns="http://www.w3.org/2000/svg" viewBox="0 0 76.78 62.24"><defs><style>.cls-1{fill:#1d1d1b;}</style></defs><title>Asset 399</title><g id="Layer_2" data-name="Layer 2"><g id="Layer_1-2" data-name="Layer 1"><path class="cls-1" d="M20.33,19.46a.4.4,0,0,1-.36-.22.39.39,0,0,1,.17-.54l14.31-7.4a.42.42,0,0,1,.55.18.4.4,0,0,1-.18.54l-14.31,7.4A.37.37,0,0,1,20.33,19.46Zm37.52,5.46a.41.41,0,0,0-.38-.43L21.29,22.35a.4.4,0,0,0-.43.38.41.41,0,0,0,.38.43L57.42,25.3h0A.4.4,0,0,0,57.85,24.92Zm2-3.28a.4.4,0,0,0-.07-.57L45.58,10.24a.41.41,0,0,0-.57.07.4.4,0,0,0,.08.57L59.26,21.72a.39.39,0,0,0,.25.08A.39.39,0,0,0,59.83,21.64Zm9,24.09a.41.41,0,0,0,.32-.48L65.7,28.32a.41.41,0,1,0-.8.16l3.48,16.93a.39.39,0,0,0,.39.32Zm-11.79,2.4,4.79-20.41a.41.41,0,1,0-.79-.18L56.26,48a.41.41,0,0,0,.31.49h.09A.42.42,0,0,0,57.06,48.13Zm10.38,4.53a.41.41,0,0,0-.35-.46l-9-1.26a.42.42,0,0,0-.46.35.41.41,0,0,0,.35.46L67,53H67A.41.41,0,0,0,67.44,52.66ZM12.55,50.59a.42.42,0,0,0-.38-.44L8,49.82a.4.4,0,0,0-.43.37.41.41,0,0,0,.37.44l4.21.33h0A.41.41,0,0,0,12.55,50.59Zm5.5-4.11.63-22.64a.4.4,0,0,0-.39-.42.4.4,0,0,0-.42.39l-.63,22.65a.4.4,0,0,0,.39.41h0A.39.39,0,0,0,18.05,46.48ZM5,48.2,15.39,23.62a.41.41,0,0,0-.22-.53.4.4,0,0,0-.53.21L4.29,47.88a.42.42,0,0,0,.22.54.41.41,0,0,0,.16,0A.4.4,0,0,0,5,48.2ZM38.81,7.36c-.86.21-.4-1.53-1.57-.9l.89,2c-.92,0-1.74,0-2.55,0S34,7.89,33.21,8.35c.17.6.59.56,1,.56h3.56c.25,0,.49,0,.84.06-.63.95-1.83,1.29-2,2.63,1.06-.23,1.36-1.36,2.34-1.53,0,.5,0,.92,0,1.35s-.08,1,0,1.52c0,.74.2,1.47.23,2.21.05,1,0,2,.07,3.08a3.33,3.33,0,0,0,.24.78l.33,0a8,8,0,0,0,.12-1.07c0-2.13-.12-4.25-.19-6.38,0-.46,0-.93.43-1.26.73.51,1,1.48,1.81,1.8.48-.32.34-.64.09-.93s-.6-.62-.89-.94-.83-.63-.75-1.35a3.53,3.53,0,0,1,1-.15,26,26,0,0,1,2.78.47c.49.12.83.16,1.08-.52a32.68,32.68,0,0,0-4.6-.55L42,5.91c-1.22,0-1.16,1.15-2,1.41l.17-1.77-1,.92c0-2,0-3.7,0-5.42,0-.37.24-.78-.55-1A47.36,47.36,0,0,0,38.81,7.36ZM70.42,48.08c-.86.21-.4-1.53-1.58-.9l.89,2c-.92,0-1.73,0-2.54,0s-1.56-.53-2.37-.07c.17.6.59.56,1,.56,1.19,0,2.37,0,3.55,0,.25,0,.5,0,.85.06-.63,1-1.84,1.29-2,2.63,1.06-.23,1.35-1.36,2.33-1.54,0,.51,0,.93,0,1.36s-.08,1,0,1.52c0,.74.19,1.47.23,2.21,0,1,0,2.05.07,3.08a2.92,2.92,0,0,0,.24.78l.33,0a8,8,0,0,0,.12-1.07c0-2.13-.13-4.25-.19-6.38,0-.46,0-.93.43-1.26.72.51,1,1.48,1.8,1.8.48-.32.34-.64.1-.93s-.6-.63-.89-1-.83-.62-.76-1.34a3.64,3.64,0,0,1,1-.15,26.2,26.2,0,0,1,2.79.47c.49.12.83.16,1.08-.52a33,33,0,0,0-4.6-.55l1.41-2.19c-1.22-.05-1.15,1.15-2,1.41l.17-1.77-1,.92c0-2,0-3.7,0-5.42,0-.37.25-.78-.54-1.05A47.36,47.36,0,0,0,70.42,48.08ZM16.16,50.59c-.86.21-.4-1.53-1.57-.9l.89,2c-.92,0-1.73,0-2.55,0s-1.55-.53-2.37-.07c.17.6.6.56,1,.56h3.55c.25,0,.5,0,.84.06-.63.95-1.83,1.29-2,2.63,1.06-.23,1.35-1.36,2.33-1.54,0,.51,0,.93,0,1.36s-.08,1,0,1.52c0,.74.19,1.47.23,2.21.05,1,0,2,.06,3.08a3.88,3.88,0,0,0,.24.78l.33,0a6.65,6.65,0,0,0,.13-1.07C17.11,59,17,56.89,17,54.76c0-.46-.06-.93.43-1.26.72.51,1,1.48,1.8,1.8.48-.32.34-.64.09-.93s-.6-.63-.89-.95-.83-.62-.75-1.34a3.58,3.58,0,0,1,1-.15,26,26,0,0,1,2.78.47c.49.12.84.16,1.08-.52a32.71,32.71,0,0,0-4.59-.55l1.41-2.19c-1.22,0-1.15,1.15-1.95,1.41l.16-1.77-1,.92c0-2,0-3.7,0-5.42,0-.37.24-.78-.54-1.05A47.38,47.38,0,0,0,16.16,50.59Zm34.9-1.15a5.36,5.36,0,0,0,.62.25,15.21,15.21,0,0,1,1.49.48c1.09.5.87.32.83,1.42,0,.51,0,1,0,1.66,0,.39.3-.15.33-.22.13-.32.26-.65.36-1,.16-.61.35-1.14,1.1-1.3a10.9,10.9,0,0,0,2-.5c.48-.16-.69-.5-.86-.58s-.63-.23-.94-.34A1.49,1.49,0,0,1,55,47.81c0-.57.06-1.13.1-1.7,0-.21.08-.43-.27-.5a2.92,2.92,0,0,0-.14.38c-.15.69-.35,1.38-.44,2.08s-.56.93-1.15,1c-.28,0-.57,0-.86,0l-1.1.08C50.94,49.24,50.77,49.31,51.06,49.44ZM13.75,20.34c.21.08.41.18.62.25a12.88,12.88,0,0,1,1.49.47c1.09.5.87.33.83,1.42,0,.52,0,1,0,1.66,0,.4.3-.15.33-.21a9.12,9.12,0,0,0,.35-1c.17-.61.36-1.14,1.11-1.3a10.83,10.83,0,0,0,2-.49c.48-.17-.69-.51-.87-.58s-.62-.24-.93-.35a1.49,1.49,0,0,1-1.07-1.51c0-.56.06-1.13.1-1.7,0-.2.08-.42-.27-.5a2.92,2.92,0,0,0-.14.38c-.16.69-.35,1.38-.44,2.08s-.56.94-1.15,1c-.28,0-.57,0-.86,0l-1.1.08C13.63,20.13,13.46,20.2,13.75,20.34ZM.19,51.32l.67,0a13.7,13.7,0,0,1,1.56-.08c1.2.09.93,0,1.27,1,.17.49.38,1,.61,1.54.18.36.24-.24.24-.31a9.37,9.37,0,0,0,0-1.06c0-.63-.06-1.19.59-1.6a11.82,11.82,0,0,0,1.72-1.16c.38-.32-.83-.24-1-.25s-.66,0-1,0A1.49,1.49,0,0,1,3.3,48.43c-.2-.53-.34-1.08-.49-1.62-.06-.2-.08-.43-.44-.38a2.6,2.6,0,0,0,0,.4c.09.71.15,1.42.3,2.11A1.14,1.14,0,0,1,2,50.3c-.25.14-.53.22-.79.34l-1,.46C0,51.17-.12,51.3.19,51.32ZM59.5,24.73c.22,0,.44.1.66.13a11.47,11.47,0,0,1,1.55.16c1.17.27.92.14,1.1,1.22.09.51.23,1,.37,1.62.12.38.27-.21.28-.28a7.24,7.24,0,0,0,.15-1c0-.63.12-1.19.83-1.5a10.7,10.7,0,0,0,1.87-.88c.43-.26-.78-.36-1-.4s-.66-.1-1-.15A1.47,1.47,0,0,1,63,22.34c-.12-.55-.17-1.12-.25-1.68,0-.21,0-.43-.37-.44,0,.15,0,.27-.06.4,0,.71-.06,1.42,0,2.13A1.15,1.15,0,0,1,61.4,24a8.41,8.41,0,0,1-.83.21l-1.06.3C59.34,24.55,59.19,24.66,59.5,24.73Z"/><path class="cls-1" d="M31.89,38.74c0,.65-.05,1.15-.05,1.74-.93,0-1.87,0-3.05,0l-1.75,0v-.11c.51-.08.59-.28.59-1.27V33.82c0-1.06-.1-1.2-.55-1.28v-.11l1.11,0,1.14,0v.11c-.47.08-.55.22-.55,1.28V40a6.46,6.46,0,0,0,1,.06c1.36,0,1.73-.15,2-1.35Z"/><path class="cls-1" d="M34.43,40.47l-1,0-1,0v-.11c.34-.06.48-.12.48-1v-3c0-.53,0-.71-.34-.8v-.11A3.67,3.67,0,0,0,34,35.2v4.16c0,.88.15.94.48,1Zm-1-5.92a.52.52,0,0,1-.53-.52.54.54,0,1,1,.53.52Z"/><path class="cls-1" d="M35.22,40.14c.24-.18.24-.33.24-1.53V33.26c0-.54,0-.72-.42-.8v-.11a3.66,3.66,0,0,0,1.46-.29V35.6a2.27,2.27,0,0,1,1.35-.44,2.41,2.41,0,0,1,2.44,2.55,2.71,2.71,0,0,1-2.66,2.83c-.87,0-1.18-.4-1.9-.4a1.48,1.48,0,0,0-.47.07Zm1.28-1.33c0,1,.36,1.45,1.08,1.45,1.14,0,1.49-1,1.49-2.35,0-1.62-.51-2.44-1.51-2.44a1.55,1.55,0,0,0-1.06.41Z"/><path class="cls-1" d="M43,40.47l-1,0-1,0v-.11c.33-.06.47-.12.47-1v-3c0-.54,0-.7-.34-.79v-.11a3.58,3.58,0,0,0,1.38-.3v.71a1.88,1.88,0,0,1,1.26-.71c.55,0,.86.38.86,1.24h-1c0-.45-.18-.61-.44-.61a.89.89,0,0,0-.67.39v3.18c0,.88.14.94.47,1Z"/><path class="cls-1" d="M49.77,40a1.13,1.13,0,0,1-1,.53.59.59,0,0,1-.65-.57,2.42,2.42,0,0,1-1.57.6c-.89,0-1.51-.5-1.51-1.23s.83-1.41,1.87-1.41a2.41,2.41,0,0,1,1.17.28V36.62c0-.85-.28-1.2-.84-1.2s-1,.44-1,1.39h-.95a1.9,1.9,0,0,1,2.1-1.65c1.07,0,1.77.49,1.77,1.91v2.31c0,.49.07.63.29.63a.4.4,0,0,0,.28-.11Zm-1.66-.26V38.45a1.5,1.5,0,0,0-.88-.26,1,1,0,0,0-1,1,.87.87,0,0,0,.91,1A1.49,1.49,0,0,0,48.11,39.74Z"/></g></g></svg>