<svg xmlns="http://www.w3.org/2000/svg" viewBox="0 0 103.99 120.8"><title>Asset 550</title><g id="Layer_2" data-name="Layer 2"><g id="Layer_1-2" data-name="Layer 1"><path d="M36,118.92l.62.4a3.16,3.16,0,0,1-.48.57,3.49,3.49,0,0,1-.65.47,4.09,4.09,0,0,1-.83.32,3.76,3.76,0,0,1-1,.12,4.2,4.2,0,0,1-1.64-.31,3.93,3.93,0,0,1-1.3-.86,3.76,3.76,0,0,1-.85-1.31,4.22,4.22,0,0,1-.31-1.65,4.5,4.5,0,0,1,.31-1.66,4,4,0,0,1,.86-1.3,3.83,3.83,0,0,1,1.3-.86,4.19,4.19,0,0,1,1.63-.31,4,4,0,0,1,.85.09,3.75,3.75,0,0,1,.78.25,3.36,3.36,0,0,1,.67.39,2.45,2.45,0,0,1,.5.52l-.67.49a2.15,2.15,0,0,0-.32-.38,2.62,2.62,0,0,0-.49-.33,2.87,2.87,0,0,0-.6-.23,2.71,2.71,0,0,0-.71-.09,3.32,3.32,0,0,0-1.37.27,3.26,3.26,0,0,0-1,.75,3.3,3.3,0,0,0-.64,1.09,3.79,3.79,0,0,0-.22,1.31,3.74,3.74,0,0,0,.22,1.3,3.4,3.4,0,0,0,.65,1.09,3,3,0,0,0,1,.75,3.15,3.15,0,0,0,1.36.28,3,3,0,0,0,1.29-.28A2.35,2.35,0,0,0,36,118.92Zm5.24-6.18,3.38,7.86h-.89l-.86-2.07H38.83L38,120.6H37.1l3.4-7.86Zm1.33,5.06-1.74-4.18-1.73,4.18Zm8.8,1.63h0l-4.57-6.69h-1v7.86h.8v-6.76h0l4.57,6.76h1v-7.86h-.8Zm7.87.38a3,3,0,0,1-1.29.28,3.15,3.15,0,0,1-1.36-.28,2.89,2.89,0,0,1-1-.75,3.23,3.23,0,0,1-.65-1.09,3.74,3.74,0,0,1-.23-1.3,3.8,3.8,0,0,1,.23-1.31,3.11,3.11,0,0,1,1.67-1.84,3.32,3.32,0,0,1,1.37-.27,2.58,2.58,0,0,1,.7.09,3,3,0,0,1,.61.23,2.53,2.53,0,0,1,.48.33,1.87,1.87,0,0,1,.33.38l.67-.49a2.72,2.72,0,0,0-.5-.52,3.67,3.67,0,0,0-.67-.39,3.75,3.75,0,0,0-.78-.25,4,4,0,0,0-.85-.09,4.15,4.15,0,0,0-1.63.31,3.83,3.83,0,0,0-1.3.86,3.88,3.88,0,0,0-.86,1.3,4.3,4.3,0,0,0-.31,1.66,4.4,4.4,0,0,0,.3,1.65,4.06,4.06,0,0,0,.85,1.31,4.15,4.15,0,0,0,1.3.86,4.25,4.25,0,0,0,1.65.31,3.81,3.81,0,0,0,1-.12,4,4,0,0,0,.82-.32,3.26,3.26,0,0,0,.66-.47,3.16,3.16,0,0,0,.48-.57l-.62-.4A2.47,2.47,0,0,1,59.27,119.81Zm3.82-3H66.9v-.71H63.09v-2.7h4.07v-.71H62.29v7.86h5v-.71H63.09Zm11.06,3.74h-1L71,116.92H69.66v3.68h-.8v-7.86h2.31a4.6,4.6,0,0,1,1.08.11,2.33,2.33,0,0,1,.85.36,1.61,1.61,0,0,1,.56.65,2.19,2.19,0,0,1,.2,1,1.87,1.87,0,0,1-.58,1.4,2,2,0,0,1-.63.42,2.84,2.84,0,0,1-.8.2Zm-3.1-4.37a2.61,2.61,0,0,0,1.49-.35,1.16,1.16,0,0,0,.52-1,1.46,1.46,0,0,0-.14-.66,1.18,1.18,0,0,0-.4-.43,1.83,1.83,0,0,0-.62-.25,4.15,4.15,0,0,0-.82-.08H69.66v2.81Z"/><path d="M79.08,50.36l.22-2.47-1,2.26A22.65,22.65,0,0,1,60.36,62.41a19,19,0,0,0,.5-1.87,21.34,21.34,0,0,0,11.9-7.07A16.56,16.56,0,0,0,77,42.3l-.12-2.56-.7,2.47c0,.13-3.73,12.84-14.9,15.52.06-.71.09-1.43.09-2.14,8.85-3.68,13.28-12.36,12.44-18.72l-.33-2.54L73,36.84c0,.12-2.39,11.62-11.74,15.95-.09-1.11-.23-2.19-.4-3.21v0a4.41,4.41,0,0,1,.76-1.08,4,4,0,0,0,.79-1.13c2.74-2.4,5-7.82,4.91-9.79a3.92,3.92,0,0,0,1.48-1.77c1-2,.8-3.56.16-4.4,1.93-1,3.56-3.83,4.17-7.42.9-5.29-.6-12.35-7.75-14.85l-1.16-.4.67,1s.23.35.53.9c.83,1.55,2.3,4.81,1.39,7.2A3.56,3.56,0,0,1,66,19.08a17.15,17.15,0,0,1-1-7.21l.11-1-.8.67C62.06,13.43,61.9,18,63.16,21a8.48,8.48,0,0,0,1,5.85,4.93,4.93,0,0,1,.26,1.1A9.4,9.4,0,0,0,65,30.28a2.16,2.16,0,0,0-.59.49,7.55,7.55,0,0,0-1.6,4.4,1.86,1.86,0,0,0,.23.71c-2.12,2.08-2.88,5.37-3.5,8v0h0c-.13-.44-.25-.82-.35-1.13a40,40,0,0,0-2.62-6.32A1.58,1.58,0,0,0,55.29,34H55.1a12,12,0,0,0-1.3-1.61s0-.07,0-.11c0-.21,0-.52,0-.91s0-.87.07-1.41.08-1.16.14-1.83.13-1.39.22-2.15.21-1.57.34-2.4.3-1.68.5-2.53.42-1.73.68-2.58.55-1.7.88-2.52a25,25,0,0,1,1.1-2.33,18.14,18.14,0,0,1,1.3-2l.36-.45L59.6,11l.18-.21.36-.39c.12-.13.25-.24.37-.36a10.67,10.67,0,0,1,1.42-1.16,10.06,10.06,0,0,1,1.22-.72A6.84,6.84,0,0,1,64,7.77l.28-.12-.28.1c-.2.08-.5.17-.86.34a9.38,9.38,0,0,0-1.26.67,10.23,10.23,0,0,0-1.49,1.11l-.39.34-.39.39-.19.2-.19.21c-.13.14-.25.29-.38.44a17.44,17.44,0,0,0-1.42,2,22.33,22.33,0,0,0-1.24,2.33c-.37.81-.72,1.66-1,2.52s-.57,1.73-.81,2.59-.44,1.73-.63,2.56-.33,1.65-.46,2.42-.24,1.5-.33,2.18-.16,1.3-.22,1.85-.11,1-.14,1.43c0,0,0,.05,0,.07a3.37,3.37,0,0,0-.38-.19l-.08,0h-.42l-.08,0a3.36,3.36,0,0,0-.63.35c0-.08,0-.15,0-.23,0-.4-.09-.88-.14-1.43s-.14-1.17-.23-1.85-.19-1.41-.33-2.18-.28-1.58-.46-2.42-.38-1.69-.63-2.56-.5-1.73-.81-2.59a26.53,26.53,0,0,0-1-2.52,22.28,22.28,0,0,0-1.23-2.33,18.76,18.76,0,0,0-1.42-2L44.3,11l-.19-.21-.2-.2-.38-.39-.39-.34a10.79,10.79,0,0,0-1.49-1.11,9.43,9.43,0,0,0-1.27-.67c-.35-.17-.65-.26-.85-.34l-.29-.1.28.12a6.84,6.84,0,0,1,.84.37,10.88,10.88,0,0,1,1.22.72A10.67,10.67,0,0,1,43,10c.12.12.24.23.36.36l.36.39.19.21.17.21.35.45a18.14,18.14,0,0,1,1.3,2A20.8,20.8,0,0,1,46.83,16c.33.82.63,1.66.89,2.52s.48,1.72.67,2.58.36,1.71.5,2.53.26,1.63.34,2.4.17,1.48.23,2.15.1,1.29.13,1.83.06,1,.08,1.41,0,.7,0,.91v.32h0a13.15,13.15,0,0,0-1.1,1.4h-.19a1.58,1.58,0,0,0-1.29,2.49,41,41,0,0,0-2.62,6.32c-.1.31-.22.69-.35,1.13h0v0c-.62-2.67-1.38-6-3.5-8a1.86,1.86,0,0,0,.23-.71,7.55,7.55,0,0,0-1.6-4.4,2.29,2.29,0,0,0-.58-.49,9.36,9.36,0,0,0,.66-2.38,4.93,4.93,0,0,1,.26-1.1,8.48,8.48,0,0,0,1-5.85c1.24-2.93.95-7.53-1.32-9.45l-.8-.67.12,1a17.14,17.14,0,0,1-.84,7.21A3.78,3.78,0,0,1,37,17.85c-.87-2.31.46-5.42,1.31-7,.34-.65.6-1.06.61-1.07l.68-1-1.17.4c-7.15,2.5-8.65,9.56-7.75,14.85.61,3.59,2.25,6.4,4.17,7.42-.63.84-.81,2.4.17,4.4a3.85,3.85,0,0,0,1.47,1.77c-.13,2,2.17,7.39,4.91,9.79a4.16,4.16,0,0,0,.79,1.13,4.41,4.41,0,0,1,.76,1.08v0c-.17,1-.31,2.1-.4,3.21C33.18,48.46,30.82,37,30.79,36.84l-.49-2.51L30,36.87A16.4,16.4,0,0,0,32.7,47.49a21.32,21.32,0,0,0,9.71,8.1c0,.71,0,1.43.09,2.14-5.72-1.37-9.42-5.39-11.54-8.56a27.92,27.92,0,0,1-3.36-7l-.7-2.47-.12,2.56A16.61,16.61,0,0,0,31,53.47a21.34,21.34,0,0,0,11.9,7.07,19,19,0,0,0,.5,1.87A22.65,22.65,0,0,1,25.48,50.15l-1-2.25.22,2.46c.78,8.81,10.8,14.28,19.69,14.33,0,.08.08.16.13.24-4.3,1.45-8.72.9-13.14-1.63a23.67,23.67,0,0,1-5.65-4.55l-1-1.22L25,59.1c.56,2.88,3.55,5.75,7.79,7.49A19,19,0,0,0,39.63,68h.14a10.71,10.71,0,0,0,5.89-1.55,1.07,1.07,0,0,0,.16.14c-1.11,5.28-1.56,14.53.78,19.25a14.58,14.58,0,0,1-1.53.83c-1.85.92-4,2-4,4.77a2.24,2.24,0,0,0,.73,1.64c1.67,1.64,6.06,1.94,9,1.94H52c2.92.06,8.1-.11,10-1.93a2.27,2.27,0,0,0,.72-1.64c0-2.8-2.1-3.85-4-4.77a14.58,14.58,0,0,1-1.53-.83c2.34-4.72,1.89-14,.78-19.25a1.07,1.07,0,0,0,.16-.14A10.74,10.74,0,0,0,64,68h.15A19,19,0,0,0,71,66.59c4.24-1.74,7.23-4.61,7.79-7.49l.3-1.58-1,1.23a23.52,23.52,0,0,1-5.63,4.53c-4.43,2.55-8.85,3.1-13.15,1.65l.12-.24C68.29,64.64,78.31,59.17,79.08,50.36ZM71.3,43.73A29.19,29.19,0,0,0,73,39.82c-.59,5.5-4.63,11.82-11.64,14.87,0-.34,0-.68-.05-1A21.35,21.35,0,0,0,71.3,43.73ZM61.18,58.61c6.15-1.38,10.1-5.64,12.33-9A29.84,29.84,0,0,0,76,45.16a17.13,17.13,0,0,1-3.83,7.77A20.48,20.48,0,0,1,61,59.65C61.09,59.31,61.13,59,61.18,58.61ZM42.42,54.69c-7-3-11-9.37-11.64-14.87a29.19,29.19,0,0,0,1.68,3.91,21.35,21.35,0,0,0,10,9.94C42.45,54,42.43,54.35,42.42,54.69ZM31.64,52.93a17.13,17.13,0,0,1-3.83-7.77,29.84,29.84,0,0,0,2.44,4.45c4,6,8.86,8.22,12.34,9,0,.35.09.7.14,1A20.48,20.48,0,0,1,31.64,52.93Zm43,3.59a25.5,25.5,0,0,0,3.08-3.76,14.34,14.34,0,0,1-6,7.37,23,23,0,0,1-12,3.71c.08-.18.16-.37.23-.56A23,23,0,0,0,74.66,56.52ZM64.1,13.09a20,20,0,0,0,1.2,6.57,5.79,5.79,0,0,1-1.48.69A9,9,0,0,1,64.1,13.09Zm.74,13.3A7.53,7.53,0,0,1,64,21.18a5.12,5.12,0,0,0,3.58-3c1-2.67-.46-6.07-1.37-7.78,5.7,2.64,6.88,8.79,6.09,13.47C71.59,27.9,69.48,31,67.37,31a2.58,2.58,0,0,1-.39,0c-1.16-.2-1.49-1.56-1.78-3.18A4.92,4.92,0,0,0,64.84,26.39Zm.24,4.93a1.47,1.47,0,0,1,.41-.34,2.27,2.27,0,0,0,1.35.78,3.08,3.08,0,0,0,.53,0,3.53,3.53,0,0,0,.72-.08c.78.61.59,2.34-.08,3.7-.53,1.1-1.17,1.58-1.49,1.48l-.29-.09c-1-.31-2.44-.77-2.55-1.74A6.81,6.81,0,0,1,65.08,31.32Zm-1.45,5.19A6.81,6.81,0,0,0,66,37.6l.28.09a.65.65,0,0,0,.2.05c0,1.53-1.72,5.89-4,8.35a2,2,0,0,0-.08-.33,2.78,2.78,0,0,0-1.78-1.93l-.14,0C61,41.32,61.78,38.35,63.63,36.51Zm-3.2,8.14A2,2,0,0,1,61.59,46c.29.85-.07,1.27-.63,1.9l-.35.42c-.26-1.34-.56-2.54-.83-3.53A.78.78,0,0,1,60.43,44.65ZM39.52,13.06a9.24,9.24,0,0,1,.42,7.29,5.79,5.79,0,0,1-1.48-.69A19.35,19.35,0,0,0,39.52,13.06Zm-8,10.77c-.8-4.68.38-10.83,6.09-13.47a16.61,16.61,0,0,0-.89,1.94c-.91,2.33-1.08,4.3-.49,5.84a5.14,5.14,0,0,0,3.59,3,7.59,7.59,0,0,1-.87,5.21,4.92,4.92,0,0,0-.36,1.36c-.29,1.62-.62,3-1.78,3.18a2.58,2.58,0,0,1-.39,0C34.28,31,32.17,27.9,31.49,23.83Zm4.26,11.59c-.67-1.36-.86-3.09-.08-3.7a3.53,3.53,0,0,0,.72.08,3.27,3.27,0,0,0,.54,0A2.25,2.25,0,0,0,38.27,31a1.34,1.34,0,0,1,.41.34,6.81,6.81,0,0,1,1.4,3.75c-.11,1-1.58,1.43-2.55,1.74l-.29.09C36.92,37,36.29,36.52,35.75,35.42Zm5.62,10.34c0,.11-.06.22-.08.33-2.27-2.46-4-6.82-4-8.35a.65.65,0,0,0,.2-.05l.28-.09a6.81,6.81,0,0,0,2.35-1.09c1.85,1.84,2.59,4.81,3.16,7.3l-.14,0A2.78,2.78,0,0,0,41.37,45.76Zm1.43,2.17c-.55-.63-.92-1-.63-1.9a2,2,0,0,1,1.16-1.38.78.78,0,0,1,.65.17c-.27,1-.57,2.19-.83,3.53ZM32,60.13a14.34,14.34,0,0,1-6-7.37,25.5,25.5,0,0,0,3.08,3.76,23,23,0,0,0,14.62,6.76,5.55,5.55,0,0,0,.24.56A23.08,23.08,0,0,1,32,60.13Zm1.11,5.68a13.59,13.59,0,0,1-6.57-5A25.09,25.09,0,0,0,30.92,64a16.56,16.56,0,0,0,14,1.65l.14.2C42.21,67.64,37.55,67.63,33.09,65.81Zm9.34,26.7a1.43,1.43,0,0,1-.47-1c0-2.29,1.69-3.13,3.49-4,.53-.27,1.08-.54,1.58-.86a4,4,0,0,0,1.67,1c-.14.42-.31.85-.49,1.29-.66,1.6-1.39,3.39-.69,5.19C45,93.83,43.23,93.29,42.43,92.51Zm12.89,1.63c-1,.07-2.14.09-3.35.06h-.18c-1.21,0-2.33,0-3.35-.06h0c-.85-1.61-.16-3.3.51-4.93.19-.45.37-.91.53-1.37a9.51,9.51,0,0,0,2.11.28h.43a8.83,8.83,0,0,0,2.2-.27c.16.46.35.92.53,1.37.67,1.63,1.36,3.32.51,4.93Zm3-6.69c1.79.89,3.48,1.73,3.48,4a1.4,1.4,0,0,1-.47,1c-.8.78-2.58,1.32-5.09,1.56.7-1.8,0-3.59-.68-5.19-.19-.44-.36-.87-.5-1.29a3.9,3.9,0,0,0,1.67-1A17.3,17.3,0,0,0,58.32,87.45Zm-2.14-1.52c-.47.81-2.78,1.36-4.12,1.34H51.7c-1.34,0-3.65-.53-4.12-1.34a16.73,16.73,0,0,1-1.68-6.65A10.46,10.46,0,0,0,51.67,81h.42a10.52,10.52,0,0,0,5.78-1.7A16.89,16.89,0,0,1,56.18,85.93Zm1.76-7.75a9.49,9.49,0,0,1-6.06,2,9.49,9.49,0,0,1-6.06-2,47.48,47.48,0,0,1,.08-5.85,9.8,9.8,0,0,0,5.77,1.8h.42a9.86,9.86,0,0,0,5.78-1.8A49.55,49.55,0,0,1,57.94,78.18ZM46,71.34a41.68,41.68,0,0,1,.59-4.2,11.11,11.11,0,0,0,4.77,1.07l.51,0h.06l.51,0a11.08,11.08,0,0,0,4.77-1.07,41.5,41.5,0,0,1,.6,4.2,9.88,9.88,0,0,1-11.81,0ZM72.84,64a25.09,25.09,0,0,0,4.4-3.24,13.54,13.54,0,0,1-6.57,5c-4.46,1.82-9.11,1.83-12,0a2.43,2.43,0,0,0,.14-.2A16.55,16.55,0,0,0,72.84,64ZM58.26,65c-1.27,2.07-3.83,2.25-5.89,2.38l-.49,0-.49,0c-2.06-.13-4.62-.31-5.89-2.38-3-4.83-3-13-.14-21.88a39.43,39.43,0,0,1,2.48-6,1.65,1.65,0,0,0,.63.13,1.58,1.58,0,0,0,1-2.83A6.94,6.94,0,0,1,51.84,32h.08a7,7,0,0,1,2.4,2.35,1.58,1.58,0,0,0,1,2.83,1.74,1.74,0,0,0,.64-.13,40.49,40.49,0,0,1,2.47,6C61.27,52,61.22,60.16,58.26,65Zm-8.4-25.71-1.29-.14,1,.87A7.61,7.61,0,0,1,52,45.33a7.59,7.59,0,0,1-2.42,5.31l-1,.87,1.29-.14a6.08,6.08,0,0,0,0-12.09Zm1.17,11a8.49,8.49,0,0,0,1.76-4.91A8.44,8.44,0,0,0,51,40.42a5.25,5.25,0,0,1,0,9.82Zm-5,.25a.48.48,0,0,1,0-1,.48.48,0,1,1,0,1Zm1,2.4a.77.77,0,1,1,.77-.77A.77.77,0,0,1,47.09,52.89Zm.74,2.39a.94.94,0,1,1,.93-.93A.94.94,0,0,1,47.83,55.28Zm.52,2.36a1,1,0,1,1,1-1A1,1,0,0,1,48.35,57.64Zm.34,2.28a1,1,0,1,1,1-1A1,1,0,0,1,48.69,59.92Zm1,1.37a.84.84,0,1,1-1.68,0,.84.84,0,1,1,1.68,0Zm-.27,2.34a.6.6,0,1,1-.6-.59A.6.6,0,0,1,49.44,63.63ZM48.69,66a.2.2,0,0,1-.2.19A.2.2,0,0,1,48.3,66a.19.19,0,0,1,.19-.19A.19.19,0,0,1,48.69,66ZM58.17,50a.48.48,0,0,1-.48.47.48.48,0,0,1,0-1A.48.48,0,0,1,58.17,50Zm-.73,2.1a.77.77,0,1,1-.77-.77A.77.77,0,0,1,57.44,52.12Zm-.57,2.23a.94.94,0,1,1-.93-.94A.93.93,0,0,1,56.87,54.35Zm-.45,2.28a1,1,0,1,1-1-1A1,1,0,0,1,56.42,56.63ZM56,59a1,1,0,1,1-1-1A1,1,0,0,1,56,59Zm-.31,2.34a.84.84,0,1,1-.84-.84A.84.84,0,0,1,55.73,61.29Zm-.22,2.34a.59.59,0,0,1-.59.6.6.6,0,1,1,0-1.19A.59.59,0,0,1,55.51,63.63Zm0,2.32a.2.2,0,0,1-.19.19.19.19,0,0,1-.19-.19.18.18,0,0,1,.19-.19A.19.19,0,0,1,55.46,66Z"/><path d="M85.63,30.8,83.34,30l1.39-2-2.3.81-.23-2.42L81,28.44l-1.74-1.71.41,2.4-2.43-.2,1.86,1.58-2,1.41,2.43,0L78.9,34.3l1.88-1.55,1,2.2.44-2.4,2.22,1-1.21-2.12Zm-3.16.92-.84-.38-.16.91-.4-.84-.71.59.24-.89h-.92l.75-.53-.7-.59.91.07-.15-.9.66.64.46-.79.09.91.86-.3-.52.75.86.32-.89.25Z"/><path d="M88.18,89.48l-2.29-.85,1.39-2-2.3.82L84.75,85l-1.23,2.11L81.79,85.4l.4,2.41-2.43-.2,1.86,1.58-2,1.41,2.44,0L81.45,93l1.88-1.56,1,2.21.45-2.4,2.21,1-1.2-2.12ZM85,90.4,84.19,90l-.17.9-.39-.83-.71.59.23-.89h-.92l.75-.53-.7-.59.92.07L83,87.82l.66.65.46-.79.09.91.86-.31-.52.76.86.32-.88.24Z"/><path d="M104,56.41l-2.73-1,1.66-2.4-2.75,1-.27-2.91-1.48,2.52-2.07-2.05.49,2.87-2.91-.23,2.22,1.89-2.38,1.68,2.92,0L96,60.59l2.25-1.86,1.24,2.64L100,58.5l2.65,1.22-1.44-2.54Zm-4.65.88-.25,1.37-.6-1.25-1.07.88.35-1.35h-1.4l1.14-.8-1.06-.91,1.39.12L97.61,54l1,1,.71-1.2.13,1.39,1.31-.47L100,55.81l1.3.48-1.34.37.69,1.22Z"/><path d="M10.22,57.75,7.84,56.07l2.22-1.89-2.91.23.49-2.87L5.57,53.59,4.09,51.07,3.82,54,1.07,53l1.66,2.4L0,56.41l2.81.77L1.37,59.72,4,58.5l.53,2.87,1.24-2.64L8,60.59,7.3,57.77ZM5.5,57.41l-.6,1.25-.25-1.37-1.27.59.69-1.22-1.35-.37L4,55.81l-.79-1.15,1.31.47.13-1.39.71,1.2,1-1-.23,1.38,1.39-.12-1.06.91,1.13.8H6.22l.35,1.35Z"/><path d="M57,6.68,54.61,5,56.83,3.1l-2.9.24L54.41.47l-2.07,2L50.86,0l-.27,2.9-2.74-1,1.65,2.4-2.73,1,2.81.77L48.14,8.64l2.65-1.21.53,2.86,1.25-2.63,2.24,1.86L54.08,6.7Zm-4.72-.35-.6,1.26-.25-1.37-1.27.58.69-1.21L49.5,5.22l1.3-.49L50,3.58l1.32.47.12-1.39.71,1.21,1-1-.23,1.37,1.39-.11-1.06.9,1.14.81H53l.36,1.35Z"/><path d="M27.16,31.92l-2-1.41L27,28.93l-2.43.2.41-2.4-1.74,1.71L22,26.34l-.23,2.42L19.5,28l1.39,2-2.28.85,2.35.65-1.21,2.12,2.22-1,.44,2.4,1.05-2.2,1.87,1.55-.61-2.36ZM23.87,32l-.71-.59-.39.84-.17-.91-.84.38.46-.79-.89-.25.86-.32-.52-.75.87.3.08-.91.47.79.65-.64-.15.9.92-.07-.7.59.74.53h-.92Z"/><path d="M24.6,90.6l-2-1.41,1.86-1.58-2.43.2.41-2.41-1.74,1.72L19.48,85l-.23,2.43L17,86.62l1.39,2-2.29.85,2.36.65L17.2,92.25l2.22-1,.44,2.4,1-2.21L22.78,93l-.61-2.36Zm-3.29.08-.7-.59-.4.83-.16-.9-.84.38.45-.8-.88-.24.86-.32-.52-.76.86.31.09-.91.46.79.66-.65-.16.91.92-.07-.7.59.75.53h-.92Z"/><path d="M53,101.21,51.88,97.8l-1.11,3.41H47.19l2.9,2.11L49,106.73l2.9-2.11,2.9,2.11-1.11-3.41,2.9-2.11Zm.2,3.32-1.31-1-1.31,1,.5-1.53-1.3-1h1.61l.5-1.54.5,1.54H54l-1.31,1Z"/><path d="M82.77,73.88l-1.11-3.41-1.11,3.41H77L79.87,76l-1.11,3.4,2.9-2.1,2.9,2.1L83.46,76l2.89-2.11ZM83,77.2l-1.31-1-1.3,1,.49-1.53-1.3-1h1.61l.5-1.53.5,1.53h1.62l-1.31,1Z"/><path d="M101.67,37.05H98.09L97,33.64l-1.11,3.41H92.28l2.91,2.11-1.11,3.41L97,40.46l2.9,2.11-1.11-3.41ZM97,39.42l-1.31.95.5-1.53-1.31-1h1.62l.5-1.54.5,1.54h1.61l-1.3,1,.5,1.53Z"/><path d="M23.68,73.88l-1.11-3.41-1.11,3.41H17.88L20.78,76l-1.11,3.4,2.9-2.1,2.9,2.1L24.36,76l2.9-2.11Zm.2,3.32-1.31-1-1.31,1,.5-1.53-1.3-1h1.61l.5-1.53.5,1.53h1.62l-1.31,1Z"/><path d="M8.36,37.05,7.25,33.64l-1.1,3.41H2.56l2.9,2.11L4.35,42.57l2.9-2.11,2.9,2.11-1.1-3.41L12,37.05Zm.2,3.32-1.31-.95L6,40.37l.5-1.53-1.31-1H6.76l.49-1.54.5,1.54H9.37l-1.31,1Z"/><path d="M80.61,14.9l-3.07-.54,3.07-.54.54-3.08.55,3.08,3.07.54-3.07.54L81.15,18Z"/><path d="M87,48.5,84.25,48,87,47.52l.49-2.75L88,47.52l2.76.49L88,48.5l-.48,2.75Z"/><path d="M97.6,73.42l-2.75-.48,2.75-.49.49-2.75.48,2.75,2.76.49-2.76.48-.48,2.76Z"/><path d="M69.15,85.23l-2.75-.48,2.75-.49.49-2.75.49,2.75,2.75.49-2.75.48L69.64,88Z"/><path d="M26.7,14.36l-3.08.54L23.08,18l-.54-3.08-3.08-.54,3.08-.54.54-3.08.54,3.08Z"/><path d="M16.75,51.25l-.49-2.75L13.51,48l2.75-.49.49-2.75.48,2.75L20,48l-2.75.49Z"/><path d="M6.14,76.18l-.48-2.76-2.75-.48,2.75-.49.48-2.75.49,2.75,2.75.49-2.75.48Z"/><path d="M34.59,88l-.48-2.76-2.76-.48,2.76-.49.48-2.75.49,2.75,2.75.49-2.75.48Z"/><path d="M69.64,3.38a1.77,1.77,0,1,0,1.77,1.77A1.77,1.77,0,0,0,69.64,3.38Zm0,2.87a1.1,1.1,0,1,1,1.1-1.1A1.1,1.1,0,0,1,69.64,6.25Z"/><path d="M92.81,23.6a1.77,1.77,0,1,0,1.77,1.77A1.77,1.77,0,0,0,92.81,23.6Zm0,2.87a1.1,1.1,0,1,1,1.1-1.1A1.09,1.09,0,0,1,92.81,26.47Z"/><path d="M69.21,98.54A1.77,1.77,0,1,0,71,100.31,1.77,1.77,0,0,0,69.21,98.54Zm0,2.87a1.1,1.1,0,1,1,1.1-1.1A1.1,1.1,0,0,1,69.21,101.41Z"/><path d="M87.49,63.5a1.77,1.77,0,1,0,1.77,1.77A1.77,1.77,0,0,0,87.49,63.5Zm0,2.87a1.1,1.1,0,1,1,0-2.2,1.1,1.1,0,1,1,0,2.2Z"/><path d="M65.56,72.3a1.77,1.77,0,1,0,1.77,1.77A1.77,1.77,0,0,0,65.56,72.3Zm0,2.87a1.1,1.1,0,1,1,1.1-1.1A1.1,1.1,0,0,1,65.56,75.17Z"/><path d="M34.59,3.38a1.77,1.77,0,1,0,1.77,1.77A1.77,1.77,0,0,0,34.59,3.38Zm0,2.87a1.1,1.1,0,0,1,0-2.2,1.1,1.1,0,0,1,0,2.2Z"/><path d="M11.42,23.6a1.77,1.77,0,1,0,1.77,1.77A1.77,1.77,0,0,0,11.42,23.6Zm0,2.87a1.1,1.1,0,0,1,0-2.2,1.1,1.1,0,0,1,0,2.2Z"/><path d="M35,98.54a1.77,1.77,0,1,0,1.77,1.77A1.78,1.78,0,0,0,35,98.54Zm0,2.87a1.1,1.1,0,1,1,1.1-1.1A1.1,1.1,0,0,1,35,101.41Z"/><path d="M16.75,63.5a1.77,1.77,0,1,0,1.77,1.77A1.77,1.77,0,0,0,16.75,63.5Zm0,2.87a1.1,1.1,0,0,1,0-2.2,1.1,1.1,0,1,1,0,2.2Z"/><path d="M38.67,72.3a1.77,1.77,0,1,0,1.77,1.77A1.77,1.77,0,0,0,38.67,72.3Zm0,2.87a1.1,1.1,0,1,1,1.1-1.1A1.1,1.1,0,0,1,38.67,75.17Z"/></g></g></svg>