<svg xmlns="http://www.w3.org/2000/svg" viewBox="0 0 40.33 62.79"><defs><style>.cls-1{fill:#1a171b;}.cls-2{stroke:#fff;stroke-width:0.25px;}</style></defs><title>Asset 415</title><g id="Layer_2" data-name="Layer 2"><g id="Layer_1-2" data-name="Layer 1"><path class="cls-1" d="M15.63,58.54a.81.81,0,0,1,.34.69,6.25,6.25,0,0,1-.19,1.29,6.66,6.66,0,0,1-.55,1.5c-.26.48-.54.73-.83.73s-.71-.33-1-1a8.69,8.69,0,0,1-.6-1.88,7.09,7.09,0,0,1-.19-1.1.31.31,0,0,1,.12-.24.45.45,0,0,1,.28-.09.31.31,0,0,1,.35.28,9.81,9.81,0,0,0,.49,2.14c.27.79.49,1.18.67,1.18s.29-.31.51-.93a4.54,4.54,0,0,0,.32-1.36.67.67,0,0,0-.22-.52.85.85,0,0,0-.58-.19.5.5,0,0,0-.38.19.43.43,0,0,1-.29.19s-.09,0-.13-.09a.39.39,0,0,1,0-.18c0-.1.1-.26.32-.48a1.13,1.13,0,0,1,.74-.38A1.43,1.43,0,0,1,15.63,58.54ZM17,58.36a.56.56,0,0,0-.3.08.26.26,0,0,0-.13.23v3.78a.25.25,0,0,0,.15.23.63.63,0,0,0,.34.08.48.48,0,0,0,.22,0,.16.16,0,0,0,.08-.13v-4a.2.2,0,0,0-.11-.17A.49.49,0,0,0,17,58.36Zm2.75,2.44v-.14a1.9,1.9,0,0,0,.67-.47,1,1,0,0,0,.31-.62,1.13,1.13,0,0,0-.51-.82,1.65,1.65,0,0,0-1-.41,1.56,1.56,0,0,0-.87.26.77.77,0,0,0-.39.65v3.27a.19.19,0,0,0,.12.18.54.54,0,0,0,.27.06.64.64,0,0,0,.28-.07.23.23,0,0,0,.12-.2V59.27a.51.51,0,0,1,.08-.28.28.28,0,0,1,.23-.11.81.81,0,0,1,.59.27.79.79,0,0,1,.26.56c0,.21-.15.41-.45.61s-.45.37-.45.53a3.62,3.62,0,0,0,.22.32l.47.72a5,5,0,0,1,.39.71.44.44,0,0,0,.17.12.32.32,0,0,0,.16,0,.68.68,0,0,0,.33-.09c.11-.06.17-.13.17-.22a1.51,1.51,0,0,0-.38-.78A8.77,8.77,0,0,0,19.72,60.8Zm4.18-.39c-.21,0-.32.33-.34,1s-.18,1-.49,1a.83.83,0,0,1-.76-.5A2.67,2.67,0,0,1,22,60.59a2.37,2.37,0,0,1,.3-1.29.77.77,0,0,1,.63-.39.67.67,0,0,1,.39.13,1.46,1.46,0,0,0,.61.29.27.27,0,0,0,.24-.11.43.43,0,0,0,0-.23c0-.15-.1-.29-.3-.43a.84.84,0,0,0-.48-.19h-.19l-.18,0a5.93,5.93,0,0,0-1.34.75,1.94,1.94,0,0,0-.42.71,2.66,2.66,0,0,0-.14.85,2.29,2.29,0,0,0,.48,1.48,1.51,1.51,0,0,0,1.23.6A1.48,1.48,0,0,0,24,62.43a1.32,1.32,0,0,0,.38-1l0-.5C24.29,60.57,24.15,60.41,23.9,60.41Zm4.35.15a2.22,2.22,0,0,1-.6,1.55,1.84,1.84,0,0,1-1.4.65,1.33,1.33,0,0,1-1.14-.63,2.78,2.78,0,0,1-.44-1.65,2.06,2.06,0,0,1,.66-1.57,1.72,1.72,0,0,1,1.17-.53,1.52,1.52,0,0,1,1.27.62A2.46,2.46,0,0,1,28.25,60.56Zm-.88.09a2.78,2.78,0,0,0-.24-1.19c-.18-.4-.43-.6-.74-.6a.74.74,0,0,0-.71.57,3.13,3.13,0,0,0-.16,1.12,2.74,2.74,0,0,0,.22,1.15c.17.39.4.58.7.58a.79.79,0,0,0,.74-.54A2.84,2.84,0,0,0,27.37,60.65Z"/><path class="cls-2" d="M20.78,8c.37-1.7-.29-1.94-.29-1.94a1.91,1.91,0,0,1-.87-1.6c1,1.09,2.69,0,2.69,0a1.85,1.85,0,0,1,1.12,1.31c-.05.8.87,1.65.87,1.65,1,.63,1.21,1.16,1.21,1.16a1.36,1.36,0,0,0-1.19.17l-.65.61C22.55,10,22.38,9,22.38,9c-.6-.08-.56-.42-.56-.42-.09-.51-.49-.25-.49-.25A.35.35,0,0,1,20.78,8Zm1.43-3.83C22.12,2.85,24,3.09,24,3.09c-2,.44-1.45,1.18-1.45,1.18a2.09,2.09,0,0,1,1.28,1.61c-.05.92,1,1.46,1,1.46a4,4,0,0,1,1,1,31.62,31.62,0,0,1,2.94-4.71c-.71-.07-1.17-1.21-1.17-1.21a4.37,4.37,0,0,0-3-2.26c-5-.58-5.31,3.66-5.31,3.66A1.94,1.94,0,0,0,22.21,4.21ZM7.05,21.65a3,3,0,0,0,1.36-.39S10,21,11.3,20.92a15.52,15.52,0,0,0,6.74-2,2.58,2.58,0,0,0,1.31-1,38.7,38.7,0,0,0,3-3.79s1-1.14,1.29-.55a2.91,2.91,0,0,0-1,.7,19.17,19.17,0,0,1-1.92,2.62s.43,1.92,2.42.32a2.72,2.72,0,0,1-1.5,1.14s-.46,3-1.53,4a2.42,2.42,0,0,0-.61,1.07,8.17,8.17,0,0,1,7.23.82s.32-.58-.56-1.57c0,0-.48-.75,0-3,0,0,.36-3.5-.88-5,0,0,1.85,1.28,1.31,5.09,0,0-.46,3.33,1.05,3.59,0,0,.67-.14.21-4.1,0,0,1.28,3.09-.06,4.55l-.06.06a34.52,34.52,0,0,1,1,5.61s.09,1.65,1.4,1.16c0,0,.73-.7.13-3.47,0,0,1,2.45,0,3.76A24.09,24.09,0,0,1,31.58,35s.26,1.24,1.16,1c0,0,.68-.17-.27-2.23,0,0,1.22,1.34.71,2.62a2.83,2.83,0,0,0,1.82,2s.48,0,0-.46a22.9,22.9,0,0,1-2.06-6s-1.63-8-1.56-12.76a86.26,86.26,0,0,1,.78-11.79s.58-3.83-1.34-4.56c0,0-1.28-1-5.53,7.59a2.24,2.24,0,0,1,.22-1.57s-.77,0-1.7,1a7.36,7.36,0,0,1-1.4.55A2.44,2.44,0,0,0,21,12.16a22.93,22.93,0,0,0-3.55,4.69s-1.6.12-5.09,2c0,0-3.4,1.36-4.42.56,0,0-1.65.2-1.82-.07,0,0-.33-.1-.48.38v1.1s.19.67,1.35.79Zm.55.29-1,0c-.12.76-.18,1.75.56,1.65S7.6,22.39,7.6,21.94Zm26,20.36a11.65,11.65,0,0,1-4.1-5.71,32.82,32.82,0,0,0-2-6.41c.59-3.52-.78-5-.78-5C24.25,22.59,19.28,24,19.28,24c-1.22.43-1.37,3.21-1.37,3.21a57,57,0,0,1-4.15,14c-.78,1.29-3.13,6.77-3.13,6.77a26.21,26.21,0,0,1-3.17,4.57c0,2.78,3.13,2.31,3.13,2.31,1.45-1.29,2.58-5.32,2.58-5.32A46.5,46.5,0,0,1,15.87,42c1.92-4.5,4.38-15.25,4.38-15.25-.19,6.53-3.24,15-3.24,15-1.37,3.25-3,8.14-3,8.14a14.34,14.34,0,0,1-2.31,5.39c1.8,1.49,5.67-.23,5.67-.23A20.58,20.58,0,0,0,18,50.75c.07-1.56,1.23-8.41,1.23-8.41.76-3.24,2.25-13.71,2.25-13.71.31,2.29-1.26,12.15-1.26,12.15a80.59,80.59,0,0,0-1,14.39c5.2,1.57,6.45.43,6.45.43C20.61,37.38,23.5,26.54,23.5,26.54c-1.09,13.73,3.76,28.88,3.76,28.88,1.84,1.64,5.32-.28,5.32-.28C31,53.45,28,45,28,45a30.52,30.52,0,0,1-2.7-17.29,43,43,0,0,0,3.33,16.86C32.3,54.43,34,55.33,34,55.33a2.67,2.67,0,0,0,3.28-1.45,17.63,17.63,0,0,1-2.06-3.4,29.25,29.25,0,0,0-4.35-7.28c-4.15-4.14-4.11-10.56-4.11-10.56a21.94,21.94,0,0,0,4.42,10c1.45,1,3.52,4.69,3.52,4.69A35.74,35.74,0,0,0,37.78,53c1.25-.54,1.33-2.27,1.33-2.27A19.55,19.55,0,0,0,33.59,42.3ZM39.8,36a5.93,5.93,0,0,1-.28-1.19c-.63-2.32-1-4.57-1.41-7a60,60,0,0,1-.42-10.6c.07-1,.07-2,.14-2.95.21-2,.63-3.94.92-6a12.21,12.21,0,0,0,0-4.22,2.53,2.53,0,0,1-.22-.49,1,1,0,0,0-.91-.42c-1.74.14-2.65,2-3.61,3.24a5.3,5.3,0,0,1,1.12,1C36,5.46,37,5.62,37,5.62c1.57.11.44,3.65.44,3.65a31.27,31.27,0,0,0-.89,6.08,16.92,16.92,0,0,1,.2-5.41c1-3.48.13-3.52.13-3.52-.59-.21-1.46,1.35-1.46,1.35a5.44,5.44,0,0,1,.6,3.71c-.38,1.91.07,2.59.07,2.59a2,2,0,0,1-1.31.17c-1-.17-1.17-1.45-1.17-1.45-.44-2.7-1.47-2.45-1.47-2.45a23.06,23.06,0,0,0-.28,3.38,1.22,1.22,0,0,1,.46.83A16,16,0,0,1,32.26,20a.92.92,0,0,0,.26.9.81.81,0,0,0,.86,0c.35-.21.35-.56.42-.92a15.29,15.29,0,0,0-.09-2.71c.51,1.45.94,3.7-.75,4.47a35.52,35.52,0,0,1,.77,5.83.86.86,0,0,0,.77.84.83.83,0,0,0,.85-.49c.53-.93.21-2.11,0-3.1l0-.09a3.67,3.67,0,0,1,.56,1.51,4.14,4.14,0,0,1,0,1.36A3,3,0,0,1,35.28,29c.84,1.05.77,2.38,1,3.72.14.56.7,1.16,1.34.84.47-.22.07-1.54-.16-2.25a2.37,2.37,0,0,1,.72,1.48A5.46,5.46,0,0,1,38,34.29c.35.92.62,2.13,1.54,2.6.19.1.26.18.54,0l.06,0C40,36.63,39.94,36.25,39.8,36ZM34,6.44l0,0h0Zm-1.35-.52L32.19,10c1.44.28,1.61,2.7,1.61,2.7.53,1.93,2,1.19,2,1.19a5.82,5.82,0,0,1,0-2.53A4.89,4.89,0,0,0,32.64,5.92ZM6.14,18.08a1.16,1.16,0,0,1,.37,1c.24.24,1.22,0,1.22,0a1.89,1.89,0,0,1,.33-1.05l1.11-1.28c.12,1,.91.54.91.54.41-.44,1.3-.12,1.3-.12-.25-1.23-1.08-1-1.08-1-.47.31-.65.18-.72.06l1.21-1.4c.1,1,.92.6.92.6.42-.43,1.31-.12,1.31-.12-.25-1.23-1.08-1-1.08-1-.55.36-.71.14-.75,0l1-1.1,0,0a.58.58,0,0,0,.6.52,1.09,1.09,0,0,0,1-1.06A5.5,5.5,0,0,1,14.15,11a3.87,3.87,0,0,1-1.47.65c-1.34.12-1.18,1.08-1.18,1.08a.64.64,0,0,0,.49.46l-1,1.11c-.12-.06-.26-.24.05-.73,0,0,.27-.83-1-1.06,0,0,.33.89-.1,1.31,0,0-.43.83.63.91L9.27,16.1c-.11-.09-.2-.28.08-.71,0,0,.28-.83-1-1.07,0,0,.33.89-.11,1.31,0,0-.41.8.58.91L7.58,17.92c0-1.2,0-2.74,0-3.94h0a.68.68,0,0,0,1.09-.4c0-.7,1-1.19,1-1.19-1.23-.8-1.68.12-1.68.12-.08.42-.22.58-.34.64l0-2.16a.68.68,0,0,0,1.17-.33c0-.7,1-1.19,1-1.19C8.46,8.66,8,9.58,8,9.58c-.11.57-.32.68-.48.67l0-2c.91.7,1.2-.3,1.2-.3,0-.71,1-1.19,1-1.19C8.46,6,8,6.9,8,6.9c-.12.59-.35.68-.5.66V7.33a5,5,0,0,0,0-1,.57.57,0,0,0,.66-.13,1.08,1.08,0,0,0,0-1.41,5.6,5.6,0,0,1-.9-1.6,3.84,3.84,0,0,1-.63,1.47c-.89,1-.11,1.6-.11,1.6a.61.61,0,0,0,.64,0,4.94,4.94,0,0,0-.07,1.07v.21c-.12.07-.47.17-.63-.62,0,0-.44-.92-1.67-.12,0,0,1,.48,1,1.19C5.71,8,6,9.06,7,8.19l0,2.05c-.15,0-.42,0-.56-.66,0,0-.44-.92-1.67-.12,0,0,1,.49,1,1.19,0,0,.3,1,1.24.28l0,2.21c-.16,0-.37-.1-.49-.67,0,0-.44-.92-1.67-.12,0,0,1,.49,1,1.19a.69.69,0,0,0,1.17.34c0,1.22-.11,2.59-.16,3.8v.2L5.36,16.36c1.06-.08.62-.91.62-.91-.43-.42-.1-1.31-.1-1.31-1.24.23-1,1.06-1,1.06.3.48.17.66,0,.73L3.7,14.52c1.08-.07.64-.91.64-.91-.43-.42-.11-1.31-.11-1.31-1.23.24-1,1.07-1,1.07.31.49.17.67,0,.73L2.35,13l0,0c-.07,0-.19.07-.19.07l0,.09,1,1.15c-.07.12-.26.25-.73-.06,0,0-.83-.28-1.08.95,0,0,.89-.32,1.31.12a.58.58,0,0,0,.9-.51L4.61,16.2c-.11.07-.3.08-.65-.14,0,0-.83-.29-1.08.94,0,0,.9-.31,1.31.13,0,0,.69.38.89-.35ZM2.13,13s.54-.06.63-.49c0,0,.17-1-1.17-1.09A3.78,3.78,0,0,1,.12,10.8a5.79,5.79,0,0,1,.44,1.78,1.07,1.07,0,0,0,.94,1.05A.58.58,0,0,0,2.13,13Z"/></g></g></svg>