<svg xmlns="http://www.w3.org/2000/svg" viewBox="0 0 106.24 62.02"><defs><style>.cls-1{fill:#1d1d1b;}</style></defs><title>Asset 401</title><g id="Layer_2" data-name="Layer 2"><g id="Layer_1-2" data-name="Layer 1"><path class="cls-1" d="M14.14,25.55a.41.41,0,0,1-.16-.78l11.93-4.84a.41.41,0,0,1,.53.23.4.4,0,0,1-.23.52L14.29,25.52A.4.4,0,0,1,14.14,25.55Zm28.5-2.72a.41.41,0,0,0-.29-.5L32.44,19.7a.41.41,0,0,0-.5.28.42.42,0,0,0,.29.5l9.91,2.64h.11A.41.41,0,0,0,42.64,22.83ZM10.36,54.94l9.79-1.15a.41.41,0,0,0-.1-.81l-9.78,1.16a.41.41,0,0,0,0,.81Zm17.37.65a.4.4,0,0,0,0-.57L26,53.11a.41.41,0,0,0-.57,0,.4.4,0,0,0,0,.57l1.73,1.91a.43.43,0,0,0,.3.13A.39.39,0,0,0,27.73,55.59Zm4.48.54,9.86-7.24a.41.41,0,0,0,.09-.57.4.4,0,0,0-.57-.08l-9.86,7.23a.41.41,0,0,0-.09.57.42.42,0,0,0,.33.17A.43.43,0,0,0,32.21,56.13ZM44.7,40.82,45.41,31a.41.41,0,0,0-.38-.43.4.4,0,0,0-.43.37l-.71,9.84a.4.4,0,0,0,.37.43h0A.41.41,0,0,0,44.7,40.82ZM62.08,25.15a.4.4,0,0,0-.4-.41H54.2a.41.41,0,0,0,0,.81h7.48A.4.4,0,0,0,62.08,25.15Zm7.76,12.69a.4.4,0,0,0,.31-.48l-2.1-10a.41.41,0,0,0-.48-.32.4.4,0,0,0-.31.48l2.1,10a.4.4,0,0,0,.39.32Zm-3,11a.4.4,0,0,0-.39-.42l-20.68-1a.41.41,0,1,0,0,.81l20.68,1h0A.41.41,0,0,0,66.88,48.81Zm2.53-26.43L77.25,16a.4.4,0,0,0,.06-.57.41.41,0,0,0-.57-.06l-7.85,6.41a.42.42,0,0,0-.06.58.44.44,0,0,0,.32.15A.39.39,0,0,0,69.41,22.38Zm17.9,30.77a.4.4,0,0,0-.25-.51L74.93,48.41a.4.4,0,0,0-.52.25.41.41,0,0,0,.25.52L86.79,53.4a.35.35,0,0,0,.14,0A.42.42,0,0,0,87.31,53.15Zm7.27-.45,6.66-5.59a.41.41,0,0,0,.05-.57.39.39,0,0,0-.57,0l-6.66,5.59a.4.4,0,0,0,0,.57.39.39,0,0,0,.57.05ZM80.92,10.34c-.87.22-.4-1.52-1.58-.89l.89,2c-.92,0-1.73,0-2.54,0s-1.56-.53-2.37-.08c.17.61.59.57,1,.57h3.55c.25,0,.5,0,.85.06-.64.95-1.84,1.28-2,2.63C79.7,14.36,80,13.23,81,13.05c0,.5,0,.93,0,1.35s-.08,1,0,1.53c0,.74.19,1.47.23,2.21,0,1,0,2.05.07,3.07a3.16,3.16,0,0,0,.23.78l.33,0a6.39,6.39,0,0,0,.13-1.06c0-2.13-.13-4.26-.19-6.38,0-.46,0-.93.43-1.26.72.51,1,1.48,1.8,1.8.48-.32.34-.64.1-.93s-.6-.63-.9-1-.82-.62-.75-1.35a4,4,0,0,1,1-.15,26.67,26.67,0,0,1,2.79.48c.48.12.83.16,1.07-.53a32.71,32.71,0,0,0-4.59-.54L84.09,8.9c-1.22-.06-1.15,1.15-2,1.41l.16-1.78-1,.93c0-2,0-3.7,0-5.43,0-.36.24-.77-.54-1A47.21,47.21,0,0,0,80.92,10.34ZM46.53,24.26c-.86.21-.4-1.53-1.57-.9l.89,2c-.92,0-1.74,0-2.55,0s-1.55-.53-2.37-.08c.17.6.59.56,1,.56,1.18,0,2.36,0,3.55,0,.25,0,.49,0,.84.06-.63.95-1.83,1.29-2,2.63,1.05-.23,1.35-1.35,2.33-1.53,0,.5,0,.92,0,1.35s-.08,1,0,1.53c0,.73.2,1.47.23,2.2.06,1,0,2.05.07,3.08a3.33,3.33,0,0,0,.24.78l.33,0a9.76,9.76,0,0,0,.13-1.07c-.06-2.13-.13-4.25-.2-6.38,0-.46,0-.93.43-1.26.73.51,1,1.48,1.81,1.8.48-.31.34-.64.09-.93s-.6-.62-.89-.94-.83-.63-.75-1.35a3.53,3.53,0,0,1,1-.15,23.75,23.75,0,0,1,2.78.48c.49.11.84.15,1.08-.53a32.68,32.68,0,0,0-4.6-.55l1.42-2.19c-1.22,0-1.15,1.16-2,1.41l.16-1.77-1,.92c0-2,0-3.7,0-5.42,0-.37.24-.78-.55-1.05A47.34,47.34,0,0,0,46.53,24.26Zm-40,30.5c.82-.34.63,1.45,1.69.66L7,53.61c.91-.13,1.72-.23,2.51-.39s1.62.29,2.36-.28c-.26-.56-.67-.46-1-.41l-3.51.54c-.25,0-.5,0-.84.06.48-1,1.62-1.54,1.63-2.91C7.08,50.61,7,51.77,6,52.09c-.07-.49-.15-.91-.2-1.33a15,15,0,0,0-.18-1.52c-.15-.72-.41-1.42-.56-2.15-.2-1-.33-2-.53-3a3.06,3.06,0,0,0-.35-.73l-.32.08a6.39,6.39,0,0,0,0,1.07c.37,2.09.76,4.18,1.14,6.28.08.45.19.91-.23,1.31-.8-.4-1.18-1.32-2.06-1.51-.42.38-.24.68,0,.93s.69.53,1,.8.91.5,1,1.22a3.68,3.68,0,0,1-1,.3A24.09,24.09,0,0,1,1,53.76c-.5,0-.85,0-1,.68a32.81,32.81,0,0,0,4.63-.15L3.56,56.67c1.21-.13,1-1.31,1.72-1.69l.1,1.78.83-1.06c.3,1.95.56,3.66.81,5.36.05.37-.13.81.69,1A47.21,47.21,0,0,0,6.48,54.76ZM70.69,43.11c-.88.11-.21-1.56-1.45-1.08.2.66.4,1.28.65,2-.91-.11-1.72-.23-2.53-.29s-1.48-.71-2.34-.36c.09.62.51.63.89.68,1.18.14,2.36.27,3.53.42.25,0,.49.09.83.16-.74.87-2,1.06-2.34,2.37,1.08-.1,1.5-1.19,2.49-1.25-.06.5-.1.92-.16,1.34s-.2,1-.23,1.51c0,.74,0,1.48,0,2.22-.07,1-.21,2-.29,3.06a3.2,3.2,0,0,0,.14.8h.33a6.3,6.3,0,0,0,.25-1c.2-2.12.38-4.24.57-6.36,0-.45.06-.93.58-1.2.66.6.78,1.59,1.58,2,.51-.26.41-.6.2-.92s-.52-.69-.77-1-.75-.72-.59-1.43a3.9,3.9,0,0,1,1,0,25.56,25.56,0,0,1,2.71.81c.47.17.81.25,1.13-.4a34,34,0,0,0-4.5-1.09l1.67-2c-1.21-.2-1.28,1-2.11,1.17l.38-1.75-1.09.8c.24-2,.43-3.67.66-5.38,0-.37.33-.75-.42-1.11A47.58,47.58,0,0,0,70.69,43.11ZM87.92,53.43c.2.08.4.18.61.25a14.36,14.36,0,0,1,1.49.47c1.09.5.88.33.84,1.42,0,.52,0,1,0,1.66,0,.4.31-.15.33-.21a7.88,7.88,0,0,0,.36-1c.17-.62.35-1.14,1.11-1.31a11,11,0,0,0,2-.49c.47-.16-.69-.51-.87-.58s-.62-.24-.93-.34a1.48,1.48,0,0,1-1.07-1.52c0-.56.06-1.13.1-1.69,0-.21.08-.43-.28-.51-.05.14-.11.26-.14.38-.15.69-.34,1.38-.43,2.08s-.56.94-1.16,1a6,6,0,0,1-.85,0l-1.1.09C87.79,53.22,87.63,53.29,87.92,53.43ZM62.63,23.59c.2.08.4.18.61.25a14.54,14.54,0,0,1,1.5.47c1.08.5.87.33.83,1.42,0,.52,0,1,0,1.66,0,.4.3-.15.33-.21a9.75,9.75,0,0,0,.35-1c.17-.62.35-1.14,1.11-1.31a10.83,10.83,0,0,0,2-.49c.47-.16-.69-.51-.87-.58s-.62-.24-.93-.34A1.49,1.49,0,0,1,66.54,22c0-.56.06-1.13.1-1.69,0-.21.08-.43-.27-.51a2.57,2.57,0,0,0-.14.38c-.16.69-.35,1.38-.44,2.08s-.56.94-1.16,1a6,6,0,0,1-.85,0l-1.1.09C62.51,23.38,62.34,23.45,62.63,23.59ZM39.92,45.38c.2.08.4.18.61.25A14.36,14.36,0,0,1,42,46.1c1.09.5.88.33.84,1.42,0,.52,0,1,0,1.66,0,.4.31-.15.33-.21a7.35,7.35,0,0,0,.36-1c.17-.62.35-1.14,1.11-1.31a11,11,0,0,0,2-.49c.47-.16-.69-.51-.87-.58s-.62-.24-.93-.34a1.49,1.49,0,0,1-1.07-1.52c0-.56.06-1.13.1-1.69,0-.21.08-.43-.28-.51a2.45,2.45,0,0,0-.13.38c-.16.69-.35,1.38-.44,2.08s-.56.94-1.16,1a6,6,0,0,1-.85,0l-1.1.09C39.8,45.17,39.63,45.24,39.92,45.38ZM25.51,18.27a6.57,6.57,0,0,0,.61.26,12.45,12.45,0,0,1,1.5.47c1.09.5.87.32.83,1.42,0,.52,0,1,0,1.66,0,.4.3-.15.33-.22a8.29,8.29,0,0,0,.35-1c.17-.61.36-1.14,1.11-1.3a10.9,10.9,0,0,0,2-.5c.48-.16-.69-.5-.87-.58s-.62-.23-.93-.34a1.48,1.48,0,0,1-1.07-1.51c0-.57.06-1.13.1-1.7,0-.21.08-.43-.27-.5a2.92,2.92,0,0,0-.14.38c-.16.69-.35,1.38-.44,2.08s-.56.93-1.15,1c-.28,0-.57,0-.86,0l-1.1.08C25.39,18.07,25.22,18.14,25.51,18.27ZM8.31,26.36c.2.08.4.18.61.25a14.36,14.36,0,0,1,1.49.47c1.09.5.88.33.84,1.42,0,.52,0,1,0,1.66.05.4.31-.15.33-.21A7.35,7.35,0,0,0,12,29c.17-.61.35-1.14,1.11-1.31a11,11,0,0,0,2-.49c.47-.16-.69-.51-.87-.58s-.62-.24-.93-.34a1.48,1.48,0,0,1-1.07-1.52c0-.56.06-1.13.1-1.69,0-.21.08-.43-.28-.51a2.45,2.45,0,0,0-.13.38c-.16.7-.35,1.38-.44,2.08s-.56.94-1.16,1a8.08,8.08,0,0,1-.85,0l-1.1.08C8.19,26.15,8,26.23,8.31,26.36Zm11.13,25a4.23,4.23,0,0,0,.62.25,15.16,15.16,0,0,1,1.49.47c1.09.5.87.33.83,1.42,0,.52,0,1,0,1.66,0,.4.3-.14.33-.21a8.29,8.29,0,0,0,.35-1c.17-.61.36-1.14,1.11-1.31a10.09,10.09,0,0,0,2-.49c.48-.16-.69-.5-.87-.58s-.62-.23-.93-.34a1.49,1.49,0,0,1-1.07-1.51c0-.57.06-1.14.1-1.7,0-.21.08-.43-.27-.5a3.44,3.44,0,0,0-.14.37c-.16.7-.35,1.38-.44,2.09s-.56.93-1.15,1a8.11,8.11,0,0,1-.86.05l-1.1.08C19.32,51.2,19.15,51.27,19.44,51.4Zm6.13,6.12a5.36,5.36,0,0,0,.62.25c.49.17,1,.26,1.49.47,1.09.5.87.33.83,1.42,0,.52,0,1,0,1.66,0,.4.3-.14.33-.21.13-.32.26-.65.36-1,.16-.61.35-1.14,1.1-1.31a10.09,10.09,0,0,0,2-.49c.48-.16-.69-.5-.87-.58s-.62-.23-.93-.34a1.49,1.49,0,0,1-1.07-1.51c0-.57.06-1.14.1-1.7,0-.21.08-.43-.27-.5a3.44,3.44,0,0,0-.14.37c-.16.7-.35,1.38-.44,2.09s-.56.93-1.15,1a8.11,8.11,0,0,1-.86,0l-1.1.08C25.45,57.32,25.28,57.39,25.57,57.52Zm73.77-12.7c.21.08.41.18.62.25a14.36,14.36,0,0,1,1.49.47c1.09.5.87.33.84,1.42,0,.52,0,1,0,1.66,0,.4.31-.15.33-.21a7.35,7.35,0,0,0,.36-1c.17-.61.35-1.14,1.11-1.31a10.25,10.25,0,0,0,2-.49c.47-.16-.69-.5-.87-.58s-.62-.24-.94-.34a1.48,1.48,0,0,1-1.06-1.52c0-.56.06-1.13.1-1.69,0-.21.08-.43-.28-.51,0,.14-.11.26-.14.38-.15.7-.34,1.38-.43,2.08s-.56.94-1.16,1a8.08,8.08,0,0,1-.85.05l-1.11.08C99.22,44.61,99.06,44.69,99.34,44.82Z"/><path class="cls-1" d="M40.89,8.26,38.21,1.18c-.29-.78-.5-.95-.85-1.07V0l1.19,0,1.27,0V.11c-.38.06-.52.2-.52.44a2.33,2.33,0,0,0,.17.72l1.88,5.11,1.46-4.21A5.21,5.21,0,0,0,43.17.69a.53.53,0,0,0-.49-.58V0l1.15,0,.81,0V.11c-.6.19-.83.5-1.46,2.27L41.09,8.26Z"/><path class="cls-1" d="M46.4,8l-1,0-1,0V7.93c.33-.06.47-.12.47-1V4c0-.53,0-.71-.34-.8V3.05a3.67,3.67,0,0,0,1.37-.28V6.93c0,.88.15.94.48,1Zm-1-5.92a.53.53,0,0,1-.53-.52A.54.54,0,1,1,46,1.6.53.53,0,0,1,45.44,2.12Z"/><path class="cls-1" d="M49.09,8l-1,0-1,0V7.93c.33-.06.48-.12.48-1v-3c0-.54,0-.7-.34-.79V3a3.49,3.49,0,0,0,1.37-.3v.71a1.9,1.9,0,0,1,1.27-.71c.55,0,.86.38.86,1.24h-1c0-.46-.18-.61-.45-.61a.92.92,0,0,0-.67.39V6.93c0,.88.15.94.48,1Z"/><path class="cls-1" d="M56,3.87c-.14-.29-.32-.42-.49-.42a.4.4,0,0,0-.25.09,1.64,1.64,0,0,1,.36,1,1.92,1.92,0,0,1-2.14,1.78,2.47,2.47,0,0,1-.39,0,.61.61,0,0,0-.45.61c0,.52.49.57,1.34.66C55.08,7.72,56,8.05,56,9s-.77,1.54-2.5,1.54c-1.37,0-2.53-.45-2.53-1.41,0-.49.3-1,1.33-1.32-.42-.11-.75-.33-.75-.75s.45-.73.89-.83a1.68,1.68,0,0,1-1.19-1.62,2,2,0,0,1,2.14-1.84,2.35,2.35,0,0,1,1.63.61,1.16,1.16,0,0,1,.8-.51.8.8,0,0,1,.54.27ZM52.14,9a1.21,1.21,0,0,0,1.37,1.26c.74,0,1.33-.35,1.33-1.2,0-1.05-.87-1.17-1.71-1.2A1,1,0,0,0,52.14,9Zm2.24-4.44c0-1-.25-1.65-1-1.65s-.93.57-.93,1.62.27,1.59.94,1.59S54.38,5.63,54.38,4.59Z"/><path class="cls-1" d="M59.42,8.09a2.58,2.58,0,0,1-2.7-2.64,2.72,2.72,0,0,1,5.43,0A2.63,2.63,0,0,1,59.42,8.09Zm1.51-2.64C60.93,4,60.62,3,59.44,3s-1.5,1.16-1.5,2.49.27,2.43,1.48,2.43S60.93,6.78,60.93,5.45Z"/></g></g></svg>