<svg xmlns="http://www.w3.org/2000/svg" viewBox="0 0 122.6 86.46"><defs><style>.cls-1{fill:#1d1d1b;}</style></defs><title>Asset 434</title><g id="Layer_2" data-name="Layer 2"><g id="Layer_1-2" data-name="Layer 1"><path class="cls-1" d="M33.33,51.4a.53.53,0,0,1-.11.75l-11,8.42a.48.48,0,0,1-.32.11.54.54,0,0,1-.33-1l11-8.42A.54.54,0,0,1,33.33,51.4ZM11.66,31.46a.53.53,0,0,0,.14.74L32.6,46.46a.54.54,0,0,0,.74-.14.54.54,0,0,0-.14-.75L12.41,31.32A.53.53,0,0,0,11.66,31.46ZM53.22,9.93,13.71,22.62a.53.53,0,0,0-.35.67.53.53,0,0,0,.51.38.51.51,0,0,0,.17,0L53.55,11a.54.54,0,0,0-.33-1ZM77.83,29.57a.53.53,0,0,0,.3.09.51.51,0,0,0,.44-.24l6.24-9.21a.54.54,0,1,0-.89-.6l-6.24,9.21A.55.55,0,0,0,77.83,29.57Zm.25,6a.55.55,0,0,0-.49.59l1,11a.54.54,0,0,0,.54.49h0a.53.53,0,0,0,.48-.58l-1-11A.53.53,0,0,0,78.08,35.59ZM99.76,26a.56.56,0,0,0,.32-.11.55.55,0,0,0,.11-.75l-5.62-7.53a.54.54,0,1,0-.86.64l5.61,7.53A.56.56,0,0,0,99.76,26Zm15.59,21.69a.54.54,0,0,0,.45-.84l-9.67-14.7a.54.54,0,0,0-.74-.15.54.54,0,0,0-.16.74l9.67,14.7A.55.55,0,0,0,115.35,47.69ZM65.24,14.77a.51.51,0,0,0,.39-.18.54.54,0,0,0,0-.76l-4.16-3.78a.54.54,0,0,0-.76,0,.55.55,0,0,0,0,.76l4.16,3.79A.59.59,0,0,0,65.24,14.77Zm7.48,3.07a.53.53,0,0,0,.52.42h.11L83,16.17a.54.54,0,1,0-.22-1.05L73.13,17.2A.53.53,0,0,0,72.72,17.84Zm18.94-4.36c-.44-.48-1.1-.83-1-1.79A4.87,4.87,0,0,1,92,11.5a32.89,32.89,0,0,1,3.68.63c.65.15,1.1.2,1.43-.7A41.74,41.74,0,0,0,91,10.71L92.9,7.82c-1.61-.08-1.52,1.52-2.58,1.86.06-.71.12-1.36.22-2.35-.53.49-.78.74-1.3,1.23,0-2.62,0-4.9,0-7.18,0-.48.32-1-.72-1.38a62.88,62.88,0,0,0,.17,9.73c-1.14.28-.53-2-2.08-1.19.37.82.73,1.61,1.18,2.58-1.22,0-2.3,0-3.37,0s-2.06-.7-3.13-.1c.22.79.78.74,1.28.74h4.7c.33,0,.66.05,1.12.08-.84,1.26-2.43,1.7-2.71,3.48,1.4-.31,1.79-1.8,3.08-2,0,.66,0,1.22,0,1.78s-.11,1.35-.07,2c.06,1,.26,1.94.31,2.92.06,1.35,0,2.71.09,4.06a3.93,3.93,0,0,0,.31,1l.44,0A8.46,8.46,0,0,0,90,23.67c-.06-2.81-.16-5.62-.25-8.43,0-.6-.07-1.23.57-1.66,1,.67,1.27,1.95,2.38,2.38.64-.42.45-.85.13-1.23S92.05,13.9,91.66,13.48ZM85.29,49.73c-1.61-.08-1.52,1.52-2.58,1.86.07-.71.13-1.36.22-2.35l-1.3,1.23c0-2.62,0-4.9,0-7.17,0-.49.32-1-.72-1.39a62.88,62.88,0,0,0,.17,9.73c-1.14.28-.53-2-2.08-1.19L80.19,53c-1.22,0-2.29,0-3.37,0s-2-.7-3.13-.1c.22.79.78.74,1.29.74,1.56,0,3.13,0,4.69,0,.33,0,.66.05,1.12.08-.84,1.26-2.42,1.7-2.71,3.48,1.4-.31,1.79-1.8,3.09-2,0,.66,0,1.22,0,1.78s-.11,1.35-.07,2c.06,1,.26,1.94.31,2.92.07,1.35,0,2.71.09,4.06a4.11,4.11,0,0,0,.31,1l.44,0a9.82,9.82,0,0,0,.17-1.42c-.07-2.81-.17-5.61-.26-8.42,0-.61-.06-1.24.57-1.67,1,.67,1.27,2,2.39,2.38.63-.42.44-.85.12-1.23s-.79-.83-1.18-1.25-1.09-.83-1-1.78a4.43,4.43,0,0,1,1.33-.2,32.51,32.51,0,0,1,3.68.63c.65.15,1.1.21,1.43-.7a44.69,44.69,0,0,0-6.08-.72Zm-64.41,11c-1.62-.08-1.53,1.52-2.59,1.86l.22-2.35-1.29,1.23c0-2.62,0-4.9,0-7.17,0-.49.32-1-.72-1.39a62.88,62.88,0,0,0,.17,9.73c-1.14.28-.53-2-2.08-1.19.37.83.73,1.61,1.17,2.59-1.21,0-2.29,0-3.36,0s-2.06-.7-3.13-.1c.22.79.78.74,1.28.74,1.57,0,3.13,0,4.7,0,.33,0,.65,0,1.11.08-.83,1.26-2.42,1.7-2.7,3.48,1.4-.3,1.79-1.8,3.08-2,0,.66,0,1.22,0,1.78s-.11,1.35-.07,2c.06,1,.25,1.94.3,2.92.07,1.35,0,2.71.09,4.07a4.69,4.69,0,0,0,.32,1l.44,0A11.49,11.49,0,0,0,18,76.58c-.07-2.81-.17-5.62-.25-8.43,0-.61-.07-1.24.56-1.67,1,.67,1.28,2,2.39,2.38.63-.42.45-.85.13-1.23s-.8-.83-1.18-1.25-1.1-.83-1-1.78A4.82,4.82,0,0,1,20,64.4a32.68,32.68,0,0,1,3.69.63c.64.15,1.1.21,1.42-.7A44.36,44.36,0,0,0,19,63.61C19.66,62.6,20.2,61.76,20.88,60.72ZM11.41,30.59c.64-.42.45-.85.13-1.23s-.79-.83-1.18-1.25-1.09-.83-1-1.78a4.89,4.89,0,0,1,1.34-.2,32.89,32.89,0,0,1,3.68.63c.65.15,1.1.21,1.43-.7a44.69,44.69,0,0,0-6.08-.72l1.87-2.89C10,22.37,10.08,24,9,24.31c.07-.71.13-1.36.22-2.35l-1.3,1.23c0-2.62,0-4.9,0-7.17,0-.49.32-1-.72-1.39a62.88,62.88,0,0,0,.17,9.73c-1.14.28-.53-2-2.08-1.19L6.5,25.76c-1.22,0-2.29,0-3.37,0s-2-.7-3.13-.1c.22.79.78.74,1.29.74,1.56,0,3.13,0,4.69,0,.33,0,.66.05,1.12.08-.84,1.26-2.43,1.7-2.71,3.48,1.4-.3,1.79-1.8,3.08-2,0,.66,0,1.22,0,1.78s-.11,1.35-.07,2c.06,1,.26,1.94.31,2.92.07,1.35,0,2.71.09,4.07a4.17,4.17,0,0,0,.31,1l.44,0a9.86,9.86,0,0,0,.17-1.41c-.07-2.81-.17-5.62-.26-8.43,0-.61-.07-1.24.57-1.67C10,28.88,10.3,30.17,11.41,30.59ZM60.59,7.78c-.4-.17-.82-.31-1.24-.45a2,2,0,0,1-1.41-2c0-.75.08-1.49.13-2.24,0-.28.11-.56-.36-.67-.06.18-.14.34-.18.51-.21.91-.46,1.82-.58,2.75S56.21,6.91,55.42,7c-.37,0-.75,0-1.12,0l-1.46.11c-.23,0-.45.12-.07.29a8.33,8.33,0,0,0,.82.34,16.68,16.68,0,0,1,2,.62c1.44.66,1.15.43,1.1,1.88,0,.68,0,1.37.05,2.19,0,.53.4-.2.43-.28a12.06,12.06,0,0,0,.48-1.31c.22-.81.46-1.51,1.46-1.73a13.85,13.85,0,0,0,2.66-.65C62.36,8.34,60.82,7.88,60.59,7.78ZM38.8,49.12c-.4-.17-.82-.31-1.23-.45a2,2,0,0,1-1.41-2c0-.75.07-1.5.13-2.24,0-.28.1-.57-.37-.67-.06.18-.14.33-.18.5-.2.92-.46,1.83-.58,2.75s-.74,1.24-1.52,1.36c-.37.06-.76,0-1.13.06l-1.46.11c-.23,0-.45.11-.07.29s.54.24.82.33a18.82,18.82,0,0,1,2,.63c1.44.66,1.15.43,1.1,1.87,0,.69,0,1.38.05,2.2.06.53.4-.2.44-.29a11.84,11.84,0,0,0,.47-1.3c.22-.81.46-1.51,1.46-1.73A13.67,13.67,0,0,0,40,49.89C40.58,49.67,39,49.22,38.8,49.12ZM71.42,15.7c-.44-.06-.87-.09-1.31-.13A2,2,0,0,1,68.24,14c-.19-.72-.3-1.46-.44-2.2,0-.27,0-.57-.52-.55,0,.18,0,.36,0,.53,0,.93,0,1.88.13,2.8a1.51,1.51,0,0,1-1.13,1.7,9.69,9.69,0,0,1-1.08.34l-1.38.48c-.22.07-.41.22,0,.29a6.5,6.5,0,0,0,.87.12,20,20,0,0,1,2.06.11c1.56.28,1.23.13,1.54,1.54.15.67.37,1.32.6,2.11.19.5.34-.29.35-.38a12.82,12.82,0,0,0,.13-1.39c0-.84.07-1.57,1-2a14.32,14.32,0,0,0,2.41-1.29C73.27,15.79,71.67,15.74,71.42,15.7Zm4,19.46c0,.68,0,1.37,0,2.19.06.53.41-.19.44-.28a10.14,10.14,0,0,0,.48-1.3c.23-.81.48-1.51,1.48-1.72a13.53,13.53,0,0,0,2.66-.63c.63-.21-.91-.67-1.14-.77-.4-.18-.82-.32-1.23-.47a2,2,0,0,1-1.4-2c0-.74.09-1.49.15-2.24,0-.27.11-.56-.36-.67a4.38,4.38,0,0,0-.18.5c-.21.92-.47,1.82-.6,2.75s-.75,1.23-1.54,1.35c-.37.05-.75,0-1.13.05L71.67,32c-.22,0-.44.12-.06.3s.53.24.81.34a16,16,0,0,1,2,.63C75.82,34,75.53,33.72,75.47,35.16Zm30.82-6.84c-.4-.17-.82-.31-1.23-.45a2,2,0,0,1-1.41-2c0-.75.08-1.5.13-2.25,0-.27.11-.56-.36-.66a3.9,3.9,0,0,0-.19.5c-.2.92-.45,1.83-.57,2.75s-.74,1.24-1.53,1.36c-.37.06-.75,0-1.13.06l-1.46.11c-.22,0-.44.11-.06.29s.53.24.81.33a18.1,18.1,0,0,1,2,.63c1.44.66,1.16.43,1.1,1.87,0,.69,0,1.38,0,2.2.06.53.4-.2.44-.29a10.09,10.09,0,0,0,.47-1.3c.22-.81.47-1.51,1.47-1.73a14.54,14.54,0,0,0,2.65-.65C108.07,28.87,106.53,28.42,106.29,28.32Zm15,21.78c-.4-.17-.82-.31-1.23-.45a2,2,0,0,1-1.41-2c0-.75.07-1.5.13-2.24,0-.28.1-.57-.37-.67-.06.18-.14.33-.18.5-.2.92-.46,1.83-.58,2.75s-.74,1.24-1.52,1.36c-.37.06-.76,0-1.13.06l-1.46.11c-.23,0-.45.11-.07.29s.54.24.82.33a18.82,18.82,0,0,1,2,.63c1.44.66,1.15.43,1.1,1.87,0,.69,0,1.38,0,2.2.06.53.4-.2.44-.29a11.84,11.84,0,0,0,.47-1.3c.22-.81.46-1.51,1.46-1.73a13.67,13.67,0,0,0,2.66-.65C123.08,50.65,121.54,50.2,121.3,50.1Z"/><path class="cls-1" d="M44.66,81.34l-2.87-9h-.31l-2.9,7.57c-.92,2.41-1.21,2.87-2,3.12v.14l1.06,0,1.43,0V83a.66.66,0,0,1-.61-.73,6.82,6.82,0,0,1,.58-2l.31-.81c.45,0,.88,0,1.5,0s1.09,0,1.64,0L42.92,81a6.43,6.43,0,0,1,.4,1.52c0,.3-.16.49-.63.55v.14l1.62,0,1.42,0V83C45.22,82.91,45.05,82.56,44.66,81.34ZM40.8,78.93H39.5l1.5-4,1.27,4ZM53,85V78.26c0-1.21,0-1.53.46-1.77l0-.14a3.88,3.88,0,0,1-1,.11c-1,0-1.39-.29-2.35-.29a3.5,3.5,0,0,0-3.68,3.65,3.39,3.39,0,0,0,5.2,2.93V85c0,1.17-.19,1.24-.63,1.33v.14c.32,0,.77,0,1.31,0s1,0,1.31,0v-.14C53.14,86.23,53,86.16,53,85Zm-1.37-2.65a2.28,2.28,0,0,1-1.49.52C49,82.86,48,82.11,48,79.78c0-1.94.68-3.27,2.26-3.27,1.19,0,1.34.78,1.34,2.26Zm10.13-.07.07.13a1.46,1.46,0,0,1-1.29.87c-.69,0-1-.45-1.06-1a2.56,2.56,0,0,1-2.2,1c-1.14,0-2.28-.48-2.28-2.43V78c0-1,0-1.21-.58-1.33v-.14a5.1,5.1,0,0,0,1.95-.39v4.39c0,1.63.41,2.2,1.45,2.2a1.78,1.78,0,0,0,1.63-.87,3.85,3.85,0,0,1,0-.48V78.06c0-1.06,0-1.24-.54-1.36v-.14a4.93,4.93,0,0,0,1.91-.39v5.49c0,.53.09.9.44.9A.73.73,0,0,0,61.72,82.27Zm6.47.3c-.29,0-.4-.19-.4-.83V78.68c0-1.87-.91-2.51-2.33-2.51a2.51,2.51,0,0,0-2.78,2.17h1.25c0-1.26.56-1.84,1.39-1.84s1.1.47,1.1,1.59v2.09a3.11,3.11,0,0,0-1.54-.37c-1.38,0-2.47.75-2.47,1.86,0,1,.81,1.63,2,1.63a3.16,3.16,0,0,0,2.08-.8.77.77,0,0,0,.86.76,1.48,1.48,0,0,0,1.28-.7l-.07-.13A.55.55,0,0,1,68.19,82.57Zm-1.77-.36a2,2,0,0,1-1.34.57,1.14,1.14,0,0,1-1.19-1.27,1.25,1.25,0,0,1,1.37-1.34,2,2,0,0,1,1.16.34Zm7.74-4.41H72.82c0-.6-.24-.8-.59-.8a1.16,1.16,0,0,0-.88.51v4.2c0,1.17.19,1.24.62,1.33v.14l-1.31,0-1.31,0V83c.44-.09.63-.16.63-1.33v-4c0-.71,0-.93-.45-1v-.14a5,5,0,0,0,1.82-.39v.93A2.48,2.48,0,0,1,73,76.17C73.75,76.17,74.16,76.66,74.16,77.8Zm1.34-3.13a.71.71,0,1,1,1.42,0,.71.71,0,0,1-1.42,0Zm2,8.37v.14l-1.31,0-1.31,0V83c.44-.09.63-.16.63-1.33V77.78c0-.7,0-.93-.45-1v-.14a5,5,0,0,0,1.82-.38v5.5C76.84,82.88,77,83,77.46,83Zm8.09-.77.07.13a1.49,1.49,0,0,1-1.3.87c-.68,0-1-.45-1.06-1a2.56,2.56,0,0,1-2.2,1c-1.14,0-2.27-.48-2.27-2.43V78c0-1,0-1.21-.59-1.33v-.14a5.11,5.11,0,0,0,2-.39v4.39c0,1.63.4,2.2,1.44,2.2a1.78,1.78,0,0,0,1.63-.87,3.85,3.85,0,0,1,0-.48V78.06c0-1.06,0-1.24-.53-1.36v-.14a4.92,4.92,0,0,0,1.9-.39v5.49c0,.53.09.9.44.9A.73.73,0,0,0,85.55,82.27Zm5.32-1.11a2.18,2.18,0,0,1-2.4,2.11,13,13,0,0,1-2-.3c.08-.48,0-1.45.17-2h.15c0,1,.45,2,1.57,2a1.12,1.12,0,0,0,1.22-1.19c0-2-3.14-1.47-3.14-3.67,0-1.27,1-2,2.33-2,.59,0,1.18.14,1.8.2a2.52,2.52,0,0,0,0,.54q0,.38,0,1.08h-.15a1.71,1.71,0,0,0-1.63-1.53,1,1,0,0,0-1.16,1.07C87.63,79.22,90.87,78.83,90.87,81.16Z"/></g></g></svg>