<svg xmlns="http://www.w3.org/2000/svg" viewBox="0 0 93 118.52"><defs><style>.cls-1{fill:#1a1a1a;}</style></defs><title>Asset 530</title><g id="Layer_2" data-name="Layer 2"><g id="Layer_1-2" data-name="Layer 1"><path class="cls-1" d="M91.59,35.12A42,42,0,1,1,57.88,1.41,46.5,46.5,0,1,0,91.59,35.12ZM20.89,9.45a.65.65,0,0,1,.93,0,.64.64,0,0,1,0,.92.65.65,0,1,1-.93-.92Zm-5.56,4.74a.87.87,0,1,1,1.23,1.23.87.87,0,0,1-1.23-1.23Zm-5,5.88a1.11,1.11,0,0,1,1.57,1.57,1.12,1.12,0,0,1-1.57,0A1.1,1.1,0,0,1,10.34,20.07ZM5.7,27.36l1.24.34.4-1.23.32,1.25,1.27-.27L8,28.36l.87.95L7.63,29l-.4,1.23L6.91,29l-1.27.27.93-.91Zm-2,8.41L4.84,37l1.23-1.09-.46,1.58L7.18,38l-1.6.39L5.9,40,4.76,38.79,3.53,39.88,4,38.3l-1.56-.52,1.6-.4ZM1.85,49.09a2.67,2.67,0,0,1-.08-.48,2.73,2.73,0,0,1,2.41-3A2.73,2.73,0,0,1,7,48.22a2.67,2.67,0,0,1,0,.49,2.69,2.69,0,0,0-2.76-2.16A2.68,2.68,0,0,0,1.85,49.09Zm3.81,7.08a3,3,0,0,0-2,3,3.13,3.13,0,0,1-.37-.73A3,3,0,0,1,9,56.53a3.14,3.14,0,0,1,.15.8A3,3,0,0,0,5.66,56.17Zm4.66,10.72A3.35,3.35,0,0,0,8.7,70,3.28,3.28,0,0,1,7.62,68.9a3.34,3.34,0,1,1,6.21-2A3.36,3.36,0,0,0,10.32,66.89Zm8.81,11.29a2.82,2.82,0,1,1,0-4A2.82,2.82,0,0,1,19.13,78.18ZM29,84.54a3.34,3.34,0,0,1-4.58,1.16,3.38,3.38,0,0,1-1.11-1.08,3.34,3.34,0,0,0,3.07-5.13A3.35,3.35,0,0,1,29,84.54Zm9.68,3.63a3,3,0,0,1-3.8,1.89,3,3,0,0,1-.73-.37A3,3,0,0,0,36,84.22a3.14,3.14,0,0,1,.8.15A3,3,0,0,1,38.68,88.17Zm6,3.38a2.67,2.67,0,0,1-.48-.08,2.6,2.6,0,0,0,.38-5.16,2.67,2.67,0,0,1,.49,0,2.64,2.64,0,1,1-.39,5.24Zm11.22-2.26-.39,1.6L55,89.33l-1.58.46,1.09-1.23-1.19-1.15,1.61.33.4-1.6.52,1.57,1.58-.46-1.09,1.23,1.19,1.14Zm10-1.67L65,86.75l-.91.93.27-1.27-1.25-.32,1.23-.4L64,84.45l.95.86.91-.92-.27,1.27,1.25.32-1.23.4ZM73.25,83a1.1,1.1,0,0,1-1.57,0,1.12,1.12,0,0,1,0-1.57A1.11,1.11,0,1,1,73.25,83Zm5.88-5a.87.87,0,1,1-1.24-1.23A.87.87,0,0,1,79.13,78Zm4.74-5.57a.65.65,0,1,1,0-.92A.64.64,0,0,1,83.87,72.42Z"/><path class="cls-1" d="M48.92,9.81,51.45,8l-2.28-.32,2.3-.1-2.35-2L51.93,6.9l-.86-2.14,1.24,2,.56-3,.28,3.09,1.42-1.82L53.5,7l2.93-1L53.89,7.73l2.28.32-2.3.1,2.36,2-2.82-1.3L54.28,11,53,9.05l-.57,3L52.2,9l-1.42,1.82,1.06-2.05ZM77.55,32.15,75,30.36l2.28-.31L75,29.93l2.37-2-2.82,1.29.88-2.13L74.18,29,73.63,26l-.3,3.09-1.4-1.82,1,2.05-2.92-1.05L72.59,30l-2.29.3,2.3.12-2.36,2,2.82-1.29-.88,2.13,1.25-1.94L74,34.42l.29-3.09,1.41,1.82-1.05-2ZM63.18,60.23l1.07-2L62.83,60l-.28-3.09L62,60,60.75,58l.86,2.13-2.81-1.3,2.35,2-2.3.11,2.28.32-2.54,1.78,2.93-1-1.06,2,1.41-1.82.28,3.09.57-3L64,64.25l-.87-2.14,2.81,1.31-2.35-2,2.3-.1L63.57,61l2.54-1.78ZM36.94,76.55l2-.79L36.81,76l1.13-2.57L36.2,75.66l-.79-2,.26,2.17-2.58-1.13,2.22,1.74-2,.79,2.17-.26-1.13,2.58,1.74-2.22.79,2-.26-2.17,2.58,1.13Zm3.21-51.72L38,25.39l.76-2.71-1.41,2.44-1.07-1.91.56,2.12-2.71-.76L36.61,26,34.7,27.05l2.12-.57-.76,2.71,1.41-2.43,1.07,1.9L38,26.55l2.71.76L38.25,25.9ZM36.58,71l-.75,1.17L37,71.38l.64,1.23-.07-1.38,1.39,0-1.24-.63.74-1.17-1.16.76L36.65,69l.08,1.39-1.39-.06Zm6-50.84,5.17-6.29s3.65-4.43,3.52-4.55-3.8,4.36-3.8,4.36l-5.17,6.29s-3.89,4.73-3.76,4.83S42.54,20.13,42.54,20.13ZM54.26,9.57c-.12.12,5.41,6,5.41,6L67,23.32s5.17,5.49,5.29,5.37-5.07-5.62-5.07-5.62L59.89,15.3S54.38,9.46,54.26,9.57ZM71.71,29.83c0-.16-9.48-1.29-9.48-1.29L48.85,27s-10.08-1.19-10.1-1,10.1,1.36,10.1,1.36l13.39,1.58S71.69,30,71.71,29.83ZM37.64,34.12s0-6.79-.15-6.79-.19,6.79-.19,6.79L37.21,63.8s0,5.89.16,5.89.18-5.89.18-5.89Zm28.24,17.3s-2.9,7.69-2.73,7.75,3.06-7.67,3.06-7.67l4.1-10.89s3.09-8.2,2.93-8.26S70,40.53,70,40.53ZM36.44,73.65s-.27,1.42-.14,1.45.39-1.41.39-1.41l.05-.27s.28-1.5.15-1.52-.4,1.48-.4,1.48Z"/><path class="cls-1" d="M22.89,27.46a.88.88,0,1,1-.88-.87A.87.87,0,0,1,22.89,27.46Zm7.28-3.25a.59.59,0,0,0,0-1.17.59.59,0,1,0,0,1.17ZM73.71,46.56a.59.59,0,1,0,0,1.17.59.59,0,0,0,0-1.17ZM25.6,53.27a.58.58,0,0,0-.58.58.59.59,0,0,0,.58.59.6.6,0,0,0,.59-.59A.59.59,0,0,0,25.6,53.27ZM59,38.62a.59.59,0,0,0-.59.59.59.59,0,0,0,1.17,0A.59.59,0,0,0,59,38.62ZM70.72,59.7a.59.59,0,1,0,.59.59A.58.58,0,0,0,70.72,59.7ZM42.17,14.44a.59.59,0,0,0,0,1.17.59.59,0,1,0,0-1.17ZM57.71,24.57a.58.58,0,0,0-.58.58.58.58,0,1,0,1.16,0A.58.58,0,0,0,57.71,24.57ZM30.94,42a.47.47,0,1,0,.47.46A.47.47,0,0,0,30.94,42Zm22.44,22.7a.47.47,0,0,0-.46.47.47.47,0,0,0,.93,0A.47.47,0,0,0,53.38,64.72ZM41.65,30.77a.47.47,0,1,0,.47.46A.47.47,0,0,0,41.65,30.77ZM81.76,32.3a.47.47,0,1,0,.47.47A.47.47,0,0,0,81.76,32.3ZM64,11.16a.47.47,0,1,0-.47-.47A.47.47,0,0,0,64,11.16ZM45.88,34.7a.47.47,0,1,0,.47.47A.47.47,0,0,0,45.88,34.7Zm-19.24,34a.47.47,0,1,0,0,.93.47.47,0,0,0,0-.93Zm58.85-23-.82-.07-.13-.81-.47.67-.77-.3.35.75-.64.52.82.07.12.81.48-.67.76.3-.34-.75ZM28.58,39l.75-.33.51.65.08-.82.82-.11-.67-.48.31-.77-.75.34-.5-.65-.09.82-.81.11.66.48ZM75.71,64.76l-.26-.64-.26.64-.68-.1.42.55-.42.55.68-.1.26.65.26-.65.69.1L76,65.21l.42-.55ZM51.17,54.35l-.26-.64-.26.64-.69-.1.43.55-.43.55.69-.1.26.64.26-.64.69.1-.43-.55.43-.55Zm13,20.82-.09-.82-.5.65-.75-.34.3.76-.66.49.81.11.09.82.5-.65.75.34-.3-.76.66-.49ZM18.4,46.51l-.77.27-.45-.68-.16.8L16.2,47l.62.54-.37.73.78-.27.45.69.15-.81.82,0L18,47.25ZM29.89,62.26l-.08-.82-.51.64-.75-.34.3.76-.68.48.82.12.07.82.52-.64.74.35L30,62.86l.67-.47Zm19.8,15-.76.31-.49-.66-.11.81-.82.09.65.51-.33.75.76-.31.49.66.11-.81.82-.09-.65-.5ZM34.45,15.17c-.09-.52-.23-2.05-.23-2.05s0,0,0,0-.13,1.54-.24,2.05a.84.84,0,0,1-.63.68,5.93,5.93,0,0,1-1.17.21h0a6.34,6.34,0,0,1,1.15.2A.88.88,0,0,1,34,17c.11.52.24,2.05.24,2.05h0s.14-1.55.23-2.05a1,1,0,0,1,.64-.7,4.53,4.53,0,0,1,1-.19s0,0,0,0a4.57,4.57,0,0,1-1-.2A.82.82,0,0,1,34.45,15.17Zm41.61,5.4c-.07-.42-.18-1.63-.18-1.63s0,0,0,0-.11,1.22-.19,1.63a.69.69,0,0,1-.5.54,4.89,4.89,0,0,1-.93.17h0a5.55,5.55,0,0,1,.91.16.71.71,0,0,1,.52.55c.09.41.19,1.63.19,1.63h0s.1-1.23.18-1.63a.75.75,0,0,1,.51-.55,3,3,0,0,1,.82-.16h0a4.08,4.08,0,0,1-.83-.16A.65.65,0,0,1,76.06,20.57Z"/><path class="cls-1" d="M35.89,101.43c-2.14,0-3.46,3-4.56,6.33a2.34,2.34,0,0,1-1.2-2.18,2.77,2.77,0,0,1,.27-1.32c-1.38,0-2.36,2.93.79,3.94a46.82,46.82,0,0,1-2.65,7.27c-1.39-.37-4.15-1-4.15.48s2.32,3,4.47.6c3.33,1.48,6.55,3.49,7.73.17-1.73.9-4.71-.24-7.12-1a33.21,33.21,0,0,0,3.05-7.28C38.36,108.46,39.5,101.43,35.89,101.43ZM36,102c1.92,0,0,6.08-3.39,6.1C33.73,104.79,34.72,102,36,102Zm-11.1,14c0-.88,2.25-.12,3.11.23C26.64,118.07,24.94,116.84,24.94,116Zm16.12-9.15c0-.6.86-1.11,1.54-1.11,1.3,0,.64,1.81-.68,1.81C41.46,107.53,41.06,107.31,41.06,106.83Zm27.34,6.41c-1.94,3.43-4.11,4.21-4.11,2.42,0-1,1.23-2.46,1.23-3,0-.31-.59-.48-.85-.53-1,1.53-3.13,4.62-4.45,4.62-1.85,0,1.08-6.82,3.8-6.82,1,0,1.19,1,.93,1.93.61,0,1-.21,1-.91a1.71,1.71,0,0,0-1.92-1.59c-2.26,0-4.76,2.68-5.58,5-1.58,2.07-3.55,2.6-3.55,1.39,0-.89,1.06-2.29,1.06-3.58,0-1.8-2.16-2.16-2.16-3,0-.08.23-.63.23-.78,0-1.47-1.8.61-1,1.44a32.37,32.37,0,0,1-1.72,4,2.74,2.74,0,0,1-2.86,1.5,6.55,6.55,0,0,0,.74-2.88c0-3-3.11-2.31-3.11.3a3.06,3.06,0,0,0,1.54,2.73c-1,1.88-3.49,2.9-3.49-.21a12.4,12.4,0,0,1,1-4.47c2.5-1.51,4.83-6.1,4.83-8.07,0-.6-.22-1.34-.68-1.34-1.56,0-5.62,7.84-6.44,12.52-1,1.78-2,2.41-2.82,2.41s-1-.25-1-1.27c0-2,2.21-4.55,2.21-5.25a.45.45,0,0,0-.47-.47c-1.44,0-3,4.35-3,6,0,2.67,3.41,2.16,5-.38-.13,1.75.44,3.15,2.16,3.15a4.09,4.09,0,0,0,3.37-2.35c1.81.36,3-.62,3.71-2.35-.05,0,.47-.83,1.42-3.24.53.38,1.18.7,1.18,1.61,0,1.12-1.16,2.71-1.16,4,0,1.64,2.48,2.19,4.76-.45-.22,1.51.5,2.27,1.53,2.27s2-.83,3.2-2.46c-.56,3.09,3.82,3,5.65-1.75Zm-19.08-9.8c0,1.08-1.93,5.12-3.88,6.69C46.49,106.65,49.32,102.37,49.32,103.44ZM47.9,115.21c-1.45-.94-1.2-3.72-.22-3.72C48.43,111.49,48.7,113.5,47.9,115.21Z"/></g></g></svg>